<?xml version="1.0" encoding="UTF-8"?>
<!DOCTYPE svg PUBLIC "-//W3C//DTD SVG 1.1//EN" "http://www.w3.org/Graphics/SVG/1.1/DTD/svg11.dtd">
<!-- Creator: CorelDRAW -->
<svg xmlns="http://www.w3.org/2000/svg" xml:space="preserve" width="2000px" height="1600px" version="1.1" style="shape-rendering:geometricPrecision; text-rendering:geometricPrecision; image-rendering:optimizeQuality; fill-rule:evenodd; clip-rule:evenodd"
viewBox="0 0 2000 1600"
 xmlns:xlink="http://www.w3.org/1999/xlink">
 <defs>
  <style type="text/css">
   <![CDATA[
    .fil0 {fill:black}
    .fil1 {fill:#FEFEFE}
    .fil2 {fill:#4E2583;fill-rule:nonzero}
   ]]>
  </style>
 </defs>
 <g id="Capa_x0020_1">
  <metadata id="CorelCorpID_0Corel-Layer"/>
  <g id="Abilene_x0020_Christian_x0020_University_x0020_Wildcats.cdr">
   <path class="fil0" d="M1093.74 735.52c43.49,-0.01 86.98,0 130.47,0l41.56 0 0.06 41.57c0.02,14.72 0,29.44 0.02,44.15l0.05 41.59 -41.59 0.09c-23.15,0.05 -46.3,0.03 -69.45,0.03 -0.01,44.33 -0.01,88.66 0,132.99 16.08,-5.33 31.7,-12.02 46.39,-20.45 24.66,-14.17 49.91,-36.83 56.25,-65.73l7.2 -32.76 33.54 0.07c36.87,0.08 73.73,0.19 110.59,0.17l48.5 -0.02 -7.33 47.94c-6.04,39.49 -24.82,76.39 -52.08,105.48 -27.58,29.43 -62.23,51.03 -99.24,66.59 -45.97,19.32 -94.63,30.23 -143.9,36.74 0.07,13.27 0.6,26.6 2.75,39.49 3.64,21.82 12.26,43.61 27.04,60.3 15.97,18.03 38.27,30.09 60.95,37.49 34.96,11.4 72.51,14.45 109.11,14.3 30.99,-0.13 62.42,1.01 93.26,-2.51 30.1,-3.44 61.01,-10.17 87.9,-24.55 18.05,-9.66 34.29,-23.61 45.14,-41.08 13.45,-21.67 19.23,-47.83 19.29,-73.14 0.2,-93.87 0.09,-187.75 -0.02,-281.62 -23.92,0.1 -47.85,0.26 -71.77,0.29l-41.63 0.07 -0.06 -41.63c-0.02,-14.9 -0.11,-29.81 0.04,-44.71l0.43 -41.21 41.22 0.02c109.94,0.08 219.89,0.02 329.83,0.04l41.56 0.01 0.06 41.56c0.02,14.71 -0.02,29.42 0.02,44.13l0.1 41.63 -41.64 0.09c-23.18,0.05 -46.36,0 -69.54,0 0.01,91.89 0.31,183.77 0.38,275.66 0.02,30.11 -3.84,60.27 -13.34,88.91 -11.7,35.32 -32.21,67.53 -59.38,92.96 -39.33,36.81 -89.3,58.84 -140.99,72.05 -64.51,16.49 -131.18,19.9 -197.49,19.3 -76.17,0.64 -152.76,-2.86 -225.96,-25.83 -41.15,-12.91 -80.36,-32.74 -112.28,-62.09 -32.85,-30.21 -55.86,-70.56 -65.88,-113.99 -5.9,-23.4 -7.44,-46.63 -7.74,-70.23 -74.57,-4.78 -148.8,-16.97 -218.38,-45.18 -61.29,-24.84 -117.77,-63.68 -156.12,-118.28 -29.26,-41.64 -46.58,-90.97 -51.83,-141.47 -5.75,-55.38 0.19,-112.49 21.22,-164.29 1.05,-2.59 2.14,-5.16 3.28,-7.71 -33.73,-0.01 -67.46,-0.01 -101.2,0.03 -15.25,24.27 -30.55,48.5 -45.85,72.74 14.35,-0.01 28.7,-0.01 43.05,0l41.47 0.05 0.11 41.47c0.04,14.73 0,29.47 0.02,44.21l0.05 41.65 -41.65 0.02c-106.19,0.06 -212.38,0.02 -318.58,0.02l-41.29 0 -0.33 -41.29c-0.12,-14.81 -0.04,-29.62 -0.06,-44.43l-0.05 -41.6 41.6 -0.08c24.72,-0.04 49.43,-0.02 74.15,-0.02 112.38,-176.02 224.74,-352.06 337.03,-528.14l12.26 -19.22 22.8 -0.02c45.95,-0.04 91.9,-0.04 137.84,0l22.96 0.02 12.23 19.42c51.89,82.4 103.87,164.75 155.79,247.13 39.28,-4.6 78.86,-6.62 118.42,-6.44 47.35,0.22 94.55,6.52 140.62,17.32 32.38,7.59 64.23,17.66 94.14,32.34 1.43,0.7 2.85,1.41 4.27,2.13 0,-0.31 0,-0.62 0,-0.94l0.14 -41.48 41.48 0c30.17,0 60.34,-0.02 90.51,0l41.6 0.02 0 41.6c0,61.37 -0.02,122.75 0.01,184.13l0.03 41.59 -41.6 0.05c-31.83,0.04 -63.65,0.54 -95.48,0.42l-31.91 -0.11 -8.18 -30.85c-5.58,-21.07 -16.12,-41 -31.17,-56.85 -19.18,-20.19 -44.67,-33.98 -70.81,-42.94 -36.56,-12.54 -75.56,-17.39 -114.04,-18.65 -20.33,-0.66 -40.71,-0.44 -61.02,0.79 33.32,52.91 66.68,105.8 100.07,158.68zm-161.27 476.6c0,7.71 -1.93,14.9 -5.78,21.56 -3.88,6.67 -9.14,11.91 -15.8,15.74 -6.67,3.84 -13.86,5.77 -21.56,5.77 -7.69,0 -14.86,-1.93 -21.52,-5.77 -6.67,-3.83 -11.93,-9.07 -15.8,-15.74 -3.86,-6.66 -5.78,-13.85 -5.78,-21.56 0,-7.67 1.92,-14.85 5.78,-21.54 3.87,-6.66 9.13,-11.92 15.8,-15.76 6.66,-3.83 13.83,-5.76 21.52,-5.76 7.7,0 14.89,1.93 21.56,5.76 6.66,3.84 11.92,9.1 15.8,15.76 3.85,6.69 5.78,13.87 5.78,21.54zm-8.33 0c0,-9.59 -3.39,-17.76 -10.19,-24.56 -6.8,-6.79 -15.01,-10.18 -24.6,-10.18 -9.6,0 -17.81,3.39 -24.61,10.18 -6.8,6.8 -10.19,14.97 -10.19,24.56 0,9.6 3.39,17.77 10.19,24.57 6.8,6.78 15.01,10.17 24.61,10.17 9.59,0 17.8,-3.39 24.6,-10.17 6.8,-6.8 10.19,-14.97 10.19,-24.57zm-54.33 -23.06l20.62 0c5.83,0 10.05,1.18 12.67,3.53 2.62,2.35 3.93,5.51 3.93,9.48 0,3.08 -1,5.76 -3,8.01 -1.98,2.26 -5.15,3.89 -9.44,4.91 1.75,0.68 3.06,1.41 3.89,2.16 1.16,1.04 2.39,2.62 3.66,4.68 0.08,0.16 2.54,4.61 7.44,13.36l-13.53 0c-4.41,-8.79 -7.36,-14.03 -8.86,-15.75 -1.5,-1.71 -3.03,-2.58 -4.53,-2.58 -0.33,0 -0.81,0.06 -1.4,0.18l0 18.15 -11.45 0 0 -46.13zm11.45 19.54l4.97 0c3.29,0 5.62,-0.54 6.99,-1.62 1.35,-1.08 2.02,-2.47 2.02,-4.16 0,-1.7 -0.65,-3.09 -1.94,-4.17 -1.29,-1.07 -3.51,-1.61 -6.63,-1.61l-5.41 0 0 11.56zm-207.87 -673.33c19.28,-13.08 39.8,-24.15 61.04,-33.65 -28.05,-45.44 -56,-90.95 -84.15,-136.33 -35.55,56.67 -71.17,113.3 -106.74,169.96 43.28,0 86.57,-0.06 129.85,0.02zm205.43 200.25c-15.09,-24.26 -30.17,-48.52 -45.27,-72.77 -18.67,0 -37.34,0.01 -56.01,0.01 -17.71,22.04 -29.63,48.7 -35.36,76.31 -6.53,31.48 -7.59,64.25 -2.33,95.99 4.57,27.64 15.11,54.43 31.33,77.32 16.84,23.77 39.53,43.22 64.73,57.68 39.72,22.8 84.82,34.73 130.21,40.29 0.01,-49.13 0.02,-98.26 0,-147.4 -43.55,-0.01 -87.1,0.05 -130.65,-0.03l-41.39 -0.07 -0.16 -41.39c-0.05,-14.84 -0.06,-29.69 0.02,-44.53l0.22 -41.39 41.38 -0.02c14.43,-0.01 28.85,0 43.28,0z"/>
   <path class="fil1" d="M949.39 555.08c43.32,68.8 86.67,137.58 130.09,206.31 48.24,-0.01 96.48,0.01 144.73,0.01l15.72 0 0.02 15.72c0.02,14.72 0,29.44 0.02,44.16l0.02 15.74 -15.73 0.03c-31.76,0.07 -63.51,0 -95.26,0.03 -0.03,64.29 -0.03,128.57 0,192.85 29.67,-6.78 58.72,-16.83 85.14,-32.01 31.33,-17.99 60.63,-46.15 68.64,-82.61l2.72 -12.39 12.69 0.02c36.89,0.08 73.77,0.19 110.66,0.18l18.35 -0.01 -2.78 18.14c-5.25,34.33 -21.7,66.43 -45.38,91.7 -25.07,26.75 -56.76,46.29 -90.39,60.43 -50.74,21.33 -105.08,31.81 -159.62,37.6 -0.13,22.28 -0.67,44.87 2.98,66.74 4.45,26.67 15.15,52.82 33.19,73.2 19.09,21.55 45.16,36.07 72.29,44.92 37.68,12.29 77.81,15.74 117.24,15.58 31.99,-0.13 64.26,0.96 96.09,-2.67 33.46,-3.82 67.28,-11.45 97.17,-27.45 22.08,-11.81 41.66,-28.89 54.92,-50.25 16.01,-25.79 23.11,-56.56 23.18,-86.73 0.22,-102.53 0.07,-205.07 -0.04,-307.61 -32.56,0.03 -65.11,0.31 -97.66,0.36l-15.75 0.02 -0.03 -15.75c-0.02,-14.8 -0.11,-29.6 0.04,-44.4l0.17 -15.59 15.59 0.01c109.95,0.07 219.9,0.02 329.85,0.04l15.72 0 0.02 15.72c0.02,14.72 -0.01,29.44 0.02,44.16l0.04 15.75 -15.75 0.04c-31.79,0.07 -63.57,-0.05 -95.36,0.02 -0.05,100.51 0.3,201.02 0.37,301.53 0.02,27.32 -3.4,54.76 -12.02,80.76 -10.34,31.21 -28.48,59.73 -52.5,82.2 -36.06,33.75 -82.35,53.77 -129.71,65.88 -62.45,15.95 -127.18,19.07 -191.08,18.49 -73.39,0.62 -147.7,-2.51 -218.23,-24.64 -37.47,-11.76 -73.43,-29.72 -102.51,-56.46 -29.21,-26.86 -49.47,-62.76 -58.24,-101.01 -7.44,-29.31 -7.24,-58.86 -7.03,-88.69 -79.83,-3.47 -160.07,-14.45 -234.52,-44.63 -56.61,-22.94 -109.22,-58.71 -144.67,-109.17 -26.72,-38.03 -42.47,-83.16 -47.26,-129.27 -5.32,-51.18 0.01,-104 19.45,-151.89 6.17,-15.2 13.98,-29.58 22.85,-43.3 -53.02,-0.03 -106.03,-0.04 -159.05,0.04 -26.08,41.53 -52.3,82.98 -78.45,124.47 29.98,0.01 59.96,-0.03 89.94,0l15.69 0.01 0.04 15.69c0.04,14.73 0,29.45 0.02,44.18l0.02 15.76 -15.76 0.01c-106.19,0.06 -212.38,0.02 -318.57,0.02l-15.62 0 -0.13 -15.63c-0.11,-14.75 -0.04,-29.5 -0.05,-44.26l-0.02 -15.74 15.74 -0.03c29.42,-0.05 58.85,0 88.28,-0.03 114.93,-180 229.82,-360.04 344.67,-540.09l4.64 -7.27 8.62 -0.01c45.94,-0.04 91.87,-0.04 137.8,0l8.69 0.01 4.62 7.35c54.84,87.04 109.74,174.04 164.59,261.07 43.52,-5.92 87.48,-8.5 131.39,-8.29 45.41,0.21 90.68,6.28 134.85,16.63 30.46,7.14 60.5,16.57 88.65,30.38 14.77,7.24 28.97,15.77 41.53,26.37 -0.01,-16.11 -0.05,-32.22 0.01,-48.32l0.05 -15.7 15.69 0c30.17,0 60.33,-0.02 90.49,0l15.74 0.01 0 15.74c0,61.38 -0.02,122.76 0.02,184.14l0.01 15.74 -15.74 0.02c-31.79,0.04 -63.57,0.54 -95.36,0.42l-12.07 -0.04 -3.1 -11.67c-6.69,-25.27 -19.38,-49.05 -37.42,-68.04 -22.1,-23.28 -51.02,-39.26 -81.18,-49.61 -39.04,-13.39 -80.48,-18.69 -121.59,-20.03 -35.42,-1.15 -70.98,0.28 -106.14,4.89zm-176.91 -41.1c-40.73,-65.83 -81.13,-131.86 -122.11,-197.53 -51.13,81.59 -102.44,163.07 -153.6,244.65 61.58,0.08 123.15,-0.07 184.72,0.06 27.93,-19.99 58.9,-35.13 90.99,-47.18zm152.87 247.41c-25.79,-41.51 -51.59,-83.02 -77.43,-124.51 -27.41,-0.02 -54.81,0.02 -82.22,0 -24.87,26.92 -41.42,61.14 -48.85,96.93 -7.18,34.6 -8.31,70.59 -2.53,105.48 5.22,31.5 17.26,61.96 35.75,88.05 19.01,26.84 44.5,48.83 72.96,65.16 51.24,29.42 110.35,42.21 168.96,46.31 0.01,-67.24 0.04,-134.47 -0.01,-201.71 -52.16,-0.07 -104.31,0.04 -156.46,-0.05l-15.66 -0.03 -0.06 -15.66c-0.06,-14.77 -0.06,-29.53 0.02,-44.3l0.08 -15.66 15.66 0c29.93,-0.02 59.86,0.01 89.79,-0.01z"/>
   <path class="fil2" d="M587.88 229.76c45.91,-0.04 91.85,-0.04 137.77,0 56.64,89.92 113.36,179.79 170.02,269.71 46.07,-6.84 92.68,-9.54 139.21,-9.57 44.2,0.45 88.28,6.24 131.32,16.21 29.26,6.97 58.21,15.96 85.31,29.19 16.89,8.35 33.19,18.42 46.55,31.84 6.05,6.45 11.66,13.33 17.58,19.94 0.19,-29.28 0,-58.56 0.09,-87.82 30.16,0 60.32,-0.02 90.48,0 0,61.37 -0.02,122.76 0.02,184.15 -31.76,0.04 -63.51,0.54 -95.28,0.42 -7.37,-27.82 -21.27,-54.02 -41.23,-74.85 -23.8,-25.24 -54.92,-42.45 -87.49,-53.65 -40.56,-13.89 -83.49,-19.38 -126.19,-20.88 -44.39,-1.34 -88.98,1.08 -132.78,8.68 49.12,78.05 98.29,156.06 147.54,234.01 51.15,-0.02 102.28,0 153.41,0 0.01,14.73 0,29.44 0.01,44.16 -36.97,0.08 -73.97,-0.02 -110.96,0.06 -0.04,75.96 -0.04,151.92 0,227.89 37.84,-6.97 75.29,-18.33 108.72,-37.67 35.41,-20.2 67.18,-51.91 76.18,-92.89 36.9,0.08 73.8,0.19 110.7,0.17 -4.77,31.18 -19.69,60.46 -41.31,83.32 -23.44,25.22 -53.5,43.33 -85,56.68 -53.67,22.46 -111.62,32.55 -169.29,37.86 0.34,27.86 -1.53,55.99 3.22,83.6 4.8,29.62 16.81,58.52 36.93,81.04 20.87,23.78 49.37,39.71 79.2,49.46 39.33,12.81 81.02,16.45 122.19,16.35 32.61,-0.21 65.35,0.99 97.81,-2.78 35.5,-3.98 71.12,-12.19 102.81,-29.2 24.55,-13.08 46.21,-32.07 60.87,-55.84 17.64,-28.28 25.2,-61.92 25.55,-94.99 -0.04,-107.79 0.06,-215.58 -0.06,-323.38 -37.8,-0.08 -75.62,0.28 -113.42,0.34 -0.02,-14.74 -0.11,-29.47 0.04,-44.21 109.95,0.07 219.9,0.01 329.86,0.03 0.01,14.73 -0.02,29.45 0.01,44.18 -37.01,0.08 -74.04,-0.1 -111.06,0.08 -0.09,105.75 0.37,211.49 0.37,317.23 0.09,25.62 -3.07,51.44 -11.22,75.79 -9.44,28.75 -26.16,55.06 -48.32,75.66 -34,31.96 -78.18,50.63 -122.85,62.12 -61.11,15.55 -124.53,18.57 -187.32,18 -71.63,0.61 -144.51,-2.4 -213.37,-23.92 -35.2,-11.12 -69.32,-27.76 -96.57,-53.02 -26.98,-24.61 -45.49,-57.81 -53.63,-93.29 -8.29,-32.67 -6.48,-66.58 -6.48,-99.98 -82.91,-2.66 -167.01,-12.7 -244.43,-44.06 -53.73,-21.79 -104.15,-55.59 -137.7,-103.63 -25.31,-35.75 -39.96,-78.44 -44.48,-121.85 -5.03,-48.61 -0.27,-98.9 18.38,-144.34 9.37,-23.57 23.31,-44.94 38.72,-64.95 -66.08,-0.04 -132.14,-0.08 -198.22,0.04 -32.65,52.02 -65.53,103.9 -98.24,155.91 39.49,0.09 78.95,0 118.42,0.03 0.04,14.73 0,29.44 0.02,44.16 -106.18,0.06 -212.38,0.02 -318.56,0.02 -0.11,-14.73 -0.04,-29.43 -0.06,-44.16 32.31,-0.05 64.61,0 96.9,-0.04 116.48,-182.43 232.9,-364.87 349.31,-547.36zm-119.53 347.03c71.44,0.19 142.91,-0.04 214.35,0.12 2.41,0.19 4.79,-0.42 6.66,-2.02 32.33,-23.39 69.07,-39.92 106.78,-52.62 -48.64,-78.47 -96.72,-157.28 -145.76,-235.5 -60.57,96.74 -121.43,193.3 -182.03,290.02zm230.43 265.08c5.65,33.83 18.52,66.56 38.44,94.57 20.29,28.74 47.54,52.22 77.97,69.72 58.31,33.44 126.02,46.42 192.54,49.31 0.02,-78.03 0.06,-156.06 -0.02,-234.09 -57.39,-0.12 -114.78,0.02 -172.17,-0.08 -0.05,-14.72 -0.05,-29.43 0.02,-44.16 39.35,-0.02 78.72,0.04 118.09,-0.03 -32.3,-52.01 -64.61,-104 -96.98,-155.97 -32.56,-0.04 -65.11,0.02 -97.68,-0.02 -56.42,56.86 -72.87,143.71 -60.21,220.75z"/>
  </g>
 </g>
</svg>
