<?xml version="1.0" encoding="UTF-8"?>
<!DOCTYPE svg PUBLIC "-//W3C//DTD SVG 1.1//EN" "http://www.w3.org/Graphics/SVG/1.1/DTD/svg11.dtd">
<!-- Creator: CorelDRAW -->
<svg xmlns="http://www.w3.org/2000/svg" xml:space="preserve" width="2000px" height="1600px" version="1.1" style="shape-rendering:geometricPrecision; text-rendering:geometricPrecision; image-rendering:optimizeQuality; fill-rule:evenodd; clip-rule:evenodd"
viewBox="0 0 2000 1600"
 xmlns:xlink="http://www.w3.org/1999/xlink">
 <defs>
  <style type="text/css">
   <![CDATA[
    .fil2 {fill:#00275D;fill-rule:nonzero}
    .fil1 {fill:#937C4A;fill-rule:nonzero}
    .fil0 {fill:#FEFEFE;fill-rule:nonzero}
   ]]>
  </style>
 </defs>
 <g id="Capa_x0020_1">
  <metadata id="CorelCorpID_0Corel-Layer"/>
  <g id="Akron_x0020_Zips.cdr">
   <path class="fil0" d="M1554.4 441.41c41.01,-6.2 82.22,-11.38 123.13,-18.19 -2.92,2.21 -6.7,2.45 -10.06,3.55 -119.72,34.3 -239.51,68.34 -359.23,102.61l-0.12 0.56c84.3,-10.87 168.62,-21.56 252.9,-32.45 -230.03,162.77 -460.23,325.28 -690.32,487.99 -4.63,2.95 -8.7,6.82 -13.8,9 2.27,0.22 4.53,0.17 6.78,-0.25 154.09,-22.5 308.17,-45 462.26,-67.5 13.66,-2.14 27.48,-3.75 41.08,-6.21 45.99,-16.47 91.98,-32.94 137.94,-49.49 -50.06,64.25 -100.56,128.18 -150.83,192.28 -317.85,34.69 -635.7,69.44 -953.56,104.16 -5.85,0.49 -11.67,1.66 -17.55,1.44 99.7,-42.87 199.26,-86.13 298.93,-129.06 14.27,-6.51 29.05,-12.03 43.05,-19.02 -76.04,21.87 -152.16,43.44 -228.27,65.1 -19.01,5.72 -38.36,10.43 -57.16,16.73 0.24,-0.4 0.67,-1.21 0.91,-1.62 202.76,-142.99 405.41,-286.11 608.16,-429.12 10.24,-7.45 20.81,-14.43 30.95,-22.03 -170.58,25.32 -341.31,49.83 -511.91,74.96 -45.42,16.17 -90.55,33.14 -136.03,49.09 50.04,-64.07 100.55,-127.8 150.49,-191.95 324.08,-46.89 648.16,-93.72 972.26,-140.58z"/>
   <path class="fil1" d="M1894.49 334.66l5.51 0c-261.57,186.1 -523.63,371.51 -785.28,557.53 77.88,-11.06 155.7,-22.7 233.55,-33.98 6.99,-1.53 13.54,-4.63 20.33,-6.88 108.58,-38.73 216.95,-78.02 325.59,-116.48 -101.99,129.91 -204.04,259.78 -305.99,389.74 -404.75,44.17 -809.49,88.54 -1214.22,132.74 -22.06,2.82 -44.46,4.02 -66.26,8.01l-7.72 0 0 -1.62 1.17 0.67c37.75,-27.53 76.17,-54.13 114.19,-81.31 202.05,-143.38 404.3,-286.52 606.24,-430.05 -79.47,11.62 -159.01,23.02 -238.43,34.94 -114.01,41.05 -227.78,82.8 -341.81,123.81 102.1,-130.46 204.71,-260.54 306.8,-391 50.54,-6.45 100.95,-13.88 151.46,-20.67 385.61,-53.26 771.22,-106.46 1156.85,-159.69 12.65,-2.01 25.54,-2.92 38.02,-5.76zm-262.34 55.32l0 0c-357.69,50.06 -715.39,100.03 -1073.06,150.12 -84.05,106.87 -167.93,213.89 -251.94,320.79 -1.76,2.28 -3.92,4.38 -4.77,7.21 90.74,-33.04 181.54,-65.87 272.3,-98.89 3.21,-1.34 6.65,-1.84 10.1,-2.25 105.85,-15.5 211.74,-30.86 317.59,-46.41 -12.04,9.83 -25.37,18.2 -37.93,27.44 -229.58,162.88 -459.41,325.49 -688.85,488.53 98.64,-10.37 197.21,-21.55 295.83,-32.17 301.23,-32.99 602.46,-65.96 903.7,-98.87 3.03,0.24 4.16,-3.02 5.88,-4.84 84.03,-106.85 167.78,-213.92 251.94,-320.65l0.37 -1.96c-92.71,33.44 -185.51,66.75 -278.37,99.77 -106.83,15.74 -213.7,31.28 -320.57,46.82 1.52,-2.52 4.39,-3.63 6.64,-5.39 228.53,-162.13 457.01,-324.32 685.54,-486.43 32.36,-23.28 65.32,-45.86 97.37,-69.47 -63.96,8.58 -127.84,17.83 -191.77,26.65z"/>
   <path class="fil2" d="M1632.15 389.98c63.93,-8.82 127.81,-18.07 191.77,-26.65 -32.05,23.61 -65.01,46.19 -97.37,69.47 -228.53,162.11 -457.01,324.3 -685.54,486.43 -2.25,1.76 -5.12,2.87 -6.64,5.39 106.87,-15.54 213.74,-31.08 320.57,-46.82 92.86,-33.02 185.66,-66.33 278.37,-99.77l-0.37 1.96c-84.16,106.73 -167.91,213.8 -251.94,320.65 -1.72,1.82 -2.85,5.08 -5.88,4.84 -301.24,32.91 -602.47,65.88 -903.7,98.87 -98.62,10.62 -197.19,21.8 -295.83,32.17 229.44,-163.04 459.27,-325.65 688.85,-488.53 12.56,-9.24 25.89,-17.61 37.93,-27.44 -105.85,15.55 -211.74,30.91 -317.59,46.41 -3.45,0.41 -6.89,0.91 -10.1,2.25 -90.76,33.02 -181.56,65.85 -272.3,98.89 0.85,-2.83 3.01,-4.93 4.77,-7.21 84.01,-106.9 167.89,-213.92 251.94,-320.79 357.67,-50.09 715.37,-100.06 1073.06,-150.12zm-77.75 51.43l0 0c-324.1,46.86 -648.18,93.69 -972.26,140.58 -49.94,64.15 -100.45,127.88 -150.49,191.95 45.48,-15.95 90.61,-32.92 136.03,-49.09 170.6,-25.13 341.33,-49.64 511.91,-74.96 -10.14,7.6 -20.71,14.58 -30.95,22.03 -202.75,143.01 -405.4,286.13 -608.16,429.12 -0.24,0.41 -0.67,1.22 -0.91,1.62 18.8,-6.3 38.15,-11.01 57.16,-16.73 76.11,-21.66 152.23,-43.23 228.27,-65.1 -14,6.99 -28.78,12.51 -43.05,19.02 -99.67,42.93 -199.23,86.19 -298.93,129.06 5.88,0.22 11.7,-0.95 17.55,-1.44 317.86,-34.72 635.71,-69.47 953.56,-104.16 50.27,-64.1 100.77,-128.03 150.83,-192.28 -45.96,16.55 -91.95,33.02 -137.94,49.49 -13.6,2.46 -27.42,4.07 -41.08,6.21 -154.09,22.5 -308.17,45 -462.26,67.5 -2.25,0.42 -4.51,0.47 -6.78,0.25 5.1,-2.18 9.17,-6.05 13.8,-9 230.09,-162.71 460.29,-325.22 690.32,-487.99 -84.28,10.89 -168.6,21.58 -252.9,32.45l0.12 -0.56c119.72,-34.27 239.51,-68.31 359.23,-102.61 3.36,-1.1 7.14,-1.34 10.06,-3.55 -40.91,6.81 -82.12,11.99 -123.13,18.19z"/>
  </g>
 </g>
</svg>
