<?xml version="1.0" encoding="UTF-8"?>
<!DOCTYPE svg PUBLIC "-//W3C//DTD SVG 1.1//EN" "http://www.w3.org/Graphics/SVG/1.1/DTD/svg11.dtd">
<!-- Creator: CorelDRAW -->
<svg xmlns="http://www.w3.org/2000/svg" xml:space="preserve" width="2000px" height="1600px" version="1.1" style="shape-rendering:geometricPrecision; text-rendering:geometricPrecision; image-rendering:optimizeQuality; fill-rule:evenodd; clip-rule:evenodd"
viewBox="0 0 2000 1600"
 xmlns:xlink="http://www.w3.org/1999/xlink">
 <defs>
  <style type="text/css">
   <![CDATA[
    .fil0 {fill:#661012;fill-rule:nonzero}
   ]]>
  </style>
 </defs>
 <g id="Capa_x0020_1">
  <metadata id="CorelCorpID_0Corel-Layer"/>
  <path id="Alabama_x0020_A_x0026_M_x0020_Bulldogs.cdr" class="fil0" d="M605.32 1327.2c18.7,-48.89 37.55,-97.69 56.3,-146.54 50.56,94.13 137.83,169.99 241.48,198.93 49.14,13.94 101.26,16.41 151.64,8.32 123.88,-15.02 234.94,-95.38 295.88,-203.11 18.36,43.73 36.62,87.5 55.07,131.18 -35.25,49.62 -79.94,92.57 -131.16,125.51 -73.53,47.75 -160.07,74.33 -247.54,78.51l-45.05 0c-59.84,-3.06 -119.55,-15.13 -174.54,-39.31 -78.4,-34.04 -147.22,-88.28 -202.08,-153.49zm513.44 -327.66c27.79,-1.53 55.7,-0.25 83.54,-0.75 5.03,0.32 11.16,-0.87 15.18,2.95 2.88,3.56 4.91,8.39 3.88,13.03 -5.46,6.76 -15.13,8.48 -20.18,15.65 -3.75,6.31 2.38,12.48 4.21,18.4 17.3,43.66 34.38,87.43 51.59,131.14 3.52,8.64 6.26,17.69 11.1,25.73 5.06,-1.64 10.02,-3.47 15.02,-5.28 4.76,5.1 10.86,10.04 11.8,17.47 -0.55,4.52 -3.68,8.06 -6.27,11.63 -19.33,25.21 -44.41,45.03 -67.81,66.26 -7,-3.01 -17.92,-8.25 -15.91,-17.46 3.24,-2.99 7.27,-5.05 10.21,-8.34 0.44,-9.53 0.1,-19.52 -3.77,-28.39 -19.65,-49.42 -40.32,-98.42 -61.32,-147.27 -50.95,91.73 -101.69,183.61 -152.46,275.47 -49.65,-93.66 -97.9,-188.09 -147.68,-281.66 -0.8,-0.03 -2.42,-0.1 -3.25,-0.14 -21.66,52.55 -42.67,105.39 -64.2,157.99 -6.33,12.77 10.58,23.11 7.47,36.13 -1.3,4.1 -5.18,6.56 -8.59,8.83 -19.5,-6.01 -33.99,-21.83 -46.65,-37.1 -8.85,-11 -17.51,-22.1 -26.79,-32.69 -5.67,-6.49 -0.07,-16.09 6.38,-19.63 4.18,-2.56 8.16,2.03 12.11,3.2 19.75,-47.75 40.32,-95.22 57.35,-144.05 3.72,-10.6 6.99,-21.39 8.66,-32.52 -4.75,-1.92 -9.64,-3.43 -14.26,-5.65 -5.17,-6.56 -4.66,-21.16 5.78,-21.85 30.63,-0.21 61.3,0.02 91.96,-0.09 40,73.46 79.93,146.95 119.74,220.5 0.67,1.99 4.55,6.91 5.4,1.79 39.18,-74.47 78.51,-148.85 117.76,-223.3zm-486.31 -750.97c6.4,-2.92 16.78,-3.29 18.86,5.21 1.96,9.65 1.85,19.91 0.02,29.58 -4.3,14.24 -20.78,17.35 -30.42,26.81 -6.27,5.24 -7,13.83 -9.35,21.1 -2.22,9.16 -6.33,18.03 -6.49,27.61 0.02,150.81 0,301.65 0,452.46 -0.46,26.33 0.91,52.8 -0.64,79.04 -32.28,83.52 -65.05,166.88 -97.6,250.31 -0.1,-239.27 -0.07,-478.54 -0.03,-717.79 -0.36,-5.46 1.06,-11.36 -1.37,-16.48 -16.45,4.62 -25.69,21.74 -41.87,26.97 -4.73,1.88 -9.19,-2.4 -9.9,-6.87 -5.85,-20.74 3.77,-42.52 18.47,-57.1 48.39,-46.24 98.33,-93.42 160.32,-120.85zm710.31 7.48c-0.5,-6.06 2.81,-12.1 8.52,-14.43 14.43,2.88 27.55,10.04 40.51,16.71 35.4,19.66 68.32,43.75 98.44,70.79 20.26,18.65 40.48,38.65 52.64,63.68 5.92,11.73 6.63,28.07 -4.64,36.82 -10.08,2.15 -16.13,-9.23 -25.35,-10.81 -4.66,4.62 -2.87,11.77 -3.29,17.65 0.05,241.23 0.16,482.47 -0.04,723.68 -38.26,-93.12 -75.59,-186.68 -113.6,-279.91 -1.83,-4.41 -3.8,-8.94 -3.48,-13.81 0.05,-180.61 0,-361.23 0.03,-541.85 0.13,-7.34 -3.07,-14.51 -8.3,-19.59 -9.97,-9.99 -24.75,-12.87 -35.04,-22.4 -7.18,-6.85 -5.97,-17.5 -6.4,-26.53zm-371.7 -176.05l48.73 0c21.62,1.53 43.36,2.79 64.8,6.15 9.23,2.19 19.59,4.62 26.05,12.09 6.13,10.47 5.86,25.33 -1.48,35.09 -8.71,6.44 -20.46,4.27 -30.52,6.44 19.48,50.86 40.62,101.1 60.65,151.77 134.83,334.68 269.57,669.37 404.29,1004.09 2.15,5.45 6.15,12.07 12.99,11.3 11.49,-1.72 19.65,-13.99 31.97,-11.94 8.48,2.08 11.66,11.46 13.14,19.09 3.02,15.59 -4.52,30.74 -13.89,42.7 -11.38,14.49 -24.83,27.2 -36.37,41.58 -30.67,31.86 -60.87,68.5 -104.66,82.12 -10.1,-9.67 -14.22,-24.48 -11.11,-38.01 6.35,-10.7 20,-16.78 22.47,-29.88 0.5,-7.61 -3.86,-14.4 -6.22,-21.39 -53.58,-137.42 -106.99,-274.9 -160.52,-412.34 -186.43,0 -372.85,0 -559.27,0 -59.93,141.87 -119.82,283.77 -179.75,425.64 -4.53,10.52 -0.18,21.99 5.23,31.27 6.01,11.09 15.43,20.99 17.03,33.99 0.69,9.97 -7.02,18.13 -15.18,22.65 -4.22,2.93 -8.84,-1.09 -12.96,-2.35 -31.79,-15 -56.34,-41.08 -80.54,-65.85 -24.14,-25.9 -50.63,-50.49 -68.3,-81.54l0 -11.77c1.74,-9.5 6.97,-19.47 16.18,-23.47 11.29,-0.25 18.38,12.39 29.69,12.43 7.5,-1.39 11.8,-8.64 17.24,-13.34 8.09,-6.98 10.24,-17.83 14.24,-27.25 146.99,-376.41 294.01,-752.8 441,-1129.21 1.35,-3.61 2.49,-7.32 3.59,-11.02 -11.11,-2.61 -23.95,0.98 -33.87,-5.46 -4.07,-7.34 -3.75,-16.21 -3.43,-24.32 0.39,-9.49 6.26,-19.55 16.18,-21.4 23.93,-4.43 48.32,-6.12 72.6,-7.86zm-210.08 798.9l0 0c162.49,-0.11 324.96,-0.02 487.45,-0.04 -82.24,-199.86 -164.46,-399.75 -246.49,-599.71 -80.14,200 -160.74,399.8 -240.96,599.75zm196.8 -401.32c0.7,-7.68 9.28,-10.04 15.61,-11.16 18.63,-2.4 37.64,-1.55 56.14,1.47 5.48,1.3 12.25,1.57 15.81,6.67 4,5.46 3.2,15.52 -3.93,17.99 -4.37,2.1 -10.86,2.47 -12.07,8.18 -0.71,5.42 1.81,10.63 3.52,15.66 43.27,107.68 86.47,215.38 129.79,323.02 3.61,11.88 20.89,2.62 26.12,12.82 1.83,4.91 3.91,10.83 1.24,15.84 -2.02,2.35 -5.61,1.28 -8.28,1.69 -37.3,-0.14 -74.65,0.07 -111.95,-0.09 -8.12,0.96 -6.54,-9.88 -4.26,-14.65 3.43,-8.28 12.37,-11.45 20.69,-12.09 0.39,-19.98 -14.22,-35.59 -21.46,-53.24 -45.58,0.05 -91.13,0.02 -136.69,0 -7.98,19.59 -17.03,38.84 -22.97,59.16 5.28,0.25 10.58,0.04 15.84,0.68 5.23,3.66 2.72,11.34 2.42,16.73 -0.36,5.74 -6.85,6.68 -11.38,6.36 -34.95,-0.23 -69.94,0.27 -104.87,-0.25 -5.26,-4.44 -4.04,-12.26 -2.54,-18.15 8.21,-0.66 16.78,-2.29 23.16,-7.91 7.43,-5.42 11.43,-13.99 14.38,-22.45 42.51,-109.48 85.18,-218.92 127.74,-328.38 -4.98,-5.03 -13.85,-9.45 -12.06,-17.9zm-10.02 256.68l0 0c33.51,0.48 66.98,-0.84 100.46,-0.55 -16.84,-42.17 -33.55,-84.38 -50.44,-126.53 -16.8,42.31 -33.44,84.68 -50.02,127.08z"/>
 </g>
</svg>
