<?xml version="1.0" encoding="UTF-8"?>
<!DOCTYPE svg PUBLIC "-//W3C//DTD SVG 1.1//EN" "http://www.w3.org/Graphics/SVG/1.1/DTD/svg11.dtd">
<!-- Creator: CorelDRAW -->
<svg xmlns="http://www.w3.org/2000/svg" xml:space="preserve" width="2000px" height="1600px" version="1.1" style="shape-rendering:geometricPrecision; text-rendering:geometricPrecision; image-rendering:optimizeQuality; fill-rule:evenodd; clip-rule:evenodd"
viewBox="0 0 2000 1600"
 xmlns:xlink="http://www.w3.org/1999/xlink">
 <defs>
  <style type="text/css">
   <![CDATA[
    .fil3 {fill:black;fill-rule:nonzero}
    .fil2 {fill:#005DAB;fill-rule:nonzero}
    .fil0 {fill:#FEFEFE;fill-rule:nonzero}
    .fil1 {fill:#FFD204;fill-rule:nonzero}
   ]]>
  </style>
 </defs>
 <g id="Capa_x0020_1">
  <metadata id="CorelCorpID_0Corel-Layer"/>
  <g id="Alaska_x0020_Nanooks.cdr">
   <path class="fil0" d="M1480.1 1232.93c5.74,-18.78 10.76,-37.78 16.82,-56.45 5.58,18.65 10.19,37.59 15.63,56.31 -10.81,0.42 -21.64,0.16 -32.45,0.14zm-752.89 -222.12c50.75,-0.2 101.48,-0.03 152.23,-0.09 3.28,8.95 7.54,17.59 13.39,25.14 2.32,3.09 5.89,4.75 9.29,6.36 -53.52,-0.03 -107.05,0.26 -160.57,-0.15 4.67,-1.8 5.16,-7.11 3.47,-11.16 -5.48,-7.13 -15.51,-10.65 -17.81,-20.1zm283 -25.98c2.04,12.08 4.84,24.57 12,34.75 9.51,11.52 23.72,17.78 37.52,22.56 -16.61,0.21 -33.22,0.09 -49.83,0.11 0.15,-19.14 -0.38,-38.3 0.31,-57.42zm219.85 -126.98c15.41,-1.21 30.41,-6.39 45.99,-5.56 13.19,0.34 25.29,6.19 37.33,11 7.85,3.33 16.35,4.5 24.55,6.67 0,57.43 -0.02,114.84 0,172.27 -33.53,0.06 -67.08,0 -100.63,0.03 -35.34,-0.24 -70.69,0.46 -106.02,-0.37 2.54,-0.43 5.04,-0.89 7.61,-1.29 0.58,-8.12 -4.96,-16.06 -12.6,-18.64 -9.97,-4.22 -20.91,-5.88 -30.43,-11.23 56.12,-0.03 112.25,-0.01 168.38,-0.01 7.38,5.62 17.21,7.36 26.28,5.95 0.5,-2 1.05,-3.98 1.59,-5.95 4.76,0 9.54,-0.02 14.32,-0.06 -0.16,-46.64 0.12,-93.26 -0.13,-139.89 -24.41,0.14 -48.81,-0.03 -73.21,0.08 -1.04,-4.34 -2.02,-8.67 -3.03,-13zm-578.69 -18.11c22.3,-0.2 44.58,-0.05 66.87,-0.08 -1.53,10.35 -1.97,20.83 -3.44,31.19 -10.58,-0.08 -21.17,0.03 -31.74,-0.09 -0.26,22.37 0.03,44.75 -0.14,67.12 -9.89,13.45 -19.38,27.28 -27.33,41.96 -0.55,6.06 -1.92,13.18 1.91,18.48 5.6,8.58 6.25,19.14 10.2,28.41 2.48,5.63 4.76,11.94 10.09,15.52 -8.8,-0.08 -17.62,0.14 -26.42,-0.11 0.09,-67.46 0.08,-134.93 0,-202.4zm353.78 -144.57c30.36,-0.54 59.45,-10.4 89.48,-13.65 16.98,-1.22 34.47,-1.6 50.84,3.78 11.34,4.81 22.96,9.27 33.29,16.09 14.7,9.1 29.15,18.68 44.86,26.01 6.28,3.21 12.6,6.46 19.46,8.28 19.67,5.04 39.42,9.8 59.43,13.36 15.53,3.24 31.46,5.21 46.31,11.03 17.52,5.98 35.4,13.48 48.29,27.24 6.07,6.52 9.48,14.74 12.66,22.92 5.61,12.7 21.14,16.93 26.67,29.63 -5.25,3.99 -10.85,7.92 -17.38,9.42 -14.72,2.84 -29.8,1.92 -44.62,0.33 0.73,-2.94 1.01,-6.47 3.94,-8.14 5.88,-4.14 12.9,-6.1 19.43,-8.93 -2.69,-9.5 1.78,-18.87 1.48,-28.47 -8.88,-1.72 -14,7.21 -21.15,10.48 -5.08,3.03 -10.57,-0.55 -15.69,-1.56 -9.26,-2.9 -18.84,0.75 -27.07,4.94 -5.96,3.65 -14.3,1.51 -18.44,-3.93 -8.45,-8.98 -9.44,-22.42 -18.02,-31.31 3.78,-2.58 9.02,-1.82 13.18,-3.92 -7.63,-5.24 -16.34,-8.53 -24.85,-12.05 -5.82,-2.43 -12.26,-2 -18.2,-0.36 -0.32,4.22 -2.21,9.16 0.95,12.79 4.28,7.09 13.62,8.38 18.01,15.39 -2.67,2.43 -4.84,6.71 -9.07,6.19 -14.03,-0.39 -24.25,-13.82 -38.55,-13.07 -3.74,-0.17 -6.94,2.05 -10.51,2.6 -6.93,-2.31 -12.26,-7.94 -19.4,-9.73 -6.9,3.05 -14.62,6.6 -22.28,4.06 -11.55,-2.64 -20.88,-10.22 -30.87,-16.12 0.31,-2.67 0.44,-5.58 2.21,-7.78 3.7,-3.38 9.47,-4.15 12.01,-8.86 1.53,-1.97 1.5,-6.02 -1.1,-7.03 -4.94,-0.39 -9.9,-0.09 -14.84,-0.12 -5.63,-5.48 -6.61,-13.85 -12,-19.48 -5.52,-0.63 -9.35,4.83 -11.96,9 -3.22,6.63 -4.28,14.06 -6.53,21.03 -7.34,12.81 -19.57,21.51 -30.43,31.08 -9.23,7.99 -20.19,14.61 -26.76,25.18 -3.73,10.12 2.09,21.12 9.48,28.04 -9.38,8.3 -22.52,10.86 -31.42,19.84 -5.27,5.14 -10.14,12.96 -7.29,20.5 4.26,1.76 13.05,2.26 10.7,9.03 -4.63,9.84 -14.55,16.95 -16.36,28.22 6.3,7.89 10.05,17.44 13.24,26.91 3.39,14.42 7.72,28.6 12.22,42.7 -4.2,8.12 -16.97,8.06 -19.01,18.05 3.91,3.68 8.53,7.07 14.02,7.79 6.68,1.29 14.37,3.52 18.04,9.76 10.02,-3.97 22.08,-2.04 30.4,4.79 4.54,3.53 8.83,7.38 13.34,10.94 -16.53,2.32 -33.35,1.99 -49.89,-0.09 -13.77,-2.06 -27.77,-8.25 -35.55,-20.31 -4.66,-5.87 -7.39,-13 -9.16,-20.21 -3.08,-17.67 -4.36,-35.63 -4.2,-53.54 -1.62,-16.4 -2.39,-33.12 -7.57,-48.9 -5.86,-15.36 -11.37,-30.9 -15.48,-46.84 -1.83,-9.9 -2.88,-20.96 2.33,-30.08 4.2,-8.03 9.1,-16.84 6.35,-26.21 -11.83,2.82 -18.28,13.91 -23.98,23.63 -5.67,8.06 -6.43,18.99 -14.01,25.79 -6.24,4.58 -13.2,8.19 -20.58,10.56 -6.75,-0.87 -12.54,-5.01 -19.25,-5.9 -12.94,0.26 -25.04,5.46 -37.48,8.5 -10.14,1.87 -21.72,2.15 -30.24,-4.57 -6.14,-5.29 -11.17,-13.32 -9.76,-21.72 2.15,-14.8 9.56,-29.25 6.35,-44.48 -18.73,22.01 -45.42,36.16 -61.7,60.39 4.24,10.53 5.26,22.82 0.92,33.48 -2.78,8.19 -8.72,14.87 -15.07,20.53 -10.47,7.8 -20.72,15.91 -31.59,23.17 -4.85,3.22 -8.59,7.76 -12.73,11.8 1.38,9.21 6.41,18.6 3.46,27.93 -4.18,5.84 -10.59,9.46 -16.54,13.18 -5.91,3.72 -13.17,5.14 -18.17,10.22 0.52,6.23 0.85,12.54 0.27,18.8 -1.43,6.77 -4.68,12.98 -7.04,19.45 12.09,5.06 24.91,8.4 37.69,11.29 -5.33,4.47 -12.65,4.25 -19.18,4.92 -12.51,0.37 -25.29,-1.32 -36.82,-6.4 -4.06,-10.58 -5.36,-22.03 -10.23,-32.3 -1.6,-4.22 -4.48,-7.76 -6.46,-11.79 3.22,-14.05 11.27,-26.36 20.63,-37.09 8.46,-8.4 16.36,-17.34 24.87,-25.69 8.53,-11.17 15.85,-24.08 17.25,-38.32 2.98,-18.13 3.28,-36.61 6.99,-54.63 10.05,-40.32 32.71,-77.8 64.83,-104.32 11.82,-10.56 26.41,-17.12 40.72,-23.55 32.56,-12.3 68.09,-11.08 102.31,-10.21 22.52,0.66 45.04,1.03 67.57,0.62zm-241.29 -566.15c152.39,0 304.78,0 457.18,0 0,68.02 0,136.05 0,204.08 -26.05,0.06 -52.11,-0.08 -78.14,0.07 29.67,130.42 59.37,260.82 89,391.25 -12.24,-6.21 -25.11,-11.19 -36.62,-18.78 -30.31,-134.76 -61.41,-269.35 -91.8,-404.08 28.67,0.01 57.35,0.04 86.03,-0.02 -0.03,-46.99 0,-93.99 -0.02,-140.98 -131.36,-0.02 -262.73,-0.02 -394.09,0 -0.05,46.96 0.09,93.93 -0.08,140.89 27.27,0.27 54.54,0.06 81.81,0.11 -29.07,140.62 -58.8,281.12 -87.82,421.76 -8.38,6.81 -17.05,13.4 -24.21,21.57 -6.35,7.4 -12.15,15.24 -17.63,23.31 11.53,-57.34 23.94,-114.5 35.82,-171.78 18.24,-87.8 37.09,-175.48 54.96,-263.35 -24.8,0.09 -49.59,0.03 -74.39,0.03 0,-68.03 0,-136.06 0,-204.08zm157.98 474.53c20.78,-95.39 40.98,-190.89 61.79,-286.27 19.56,95.35 38.16,190.9 57.52,286.28 -39.77,0.11 -79.55,0.13 -119.31,-0.01zm56.65 -98.31l0 0c-4.52,21.3 -9.3,42.54 -13.64,63.88 11.34,0 22.7,0.03 34.05,-0.03 -5.31,-27.07 -10.86,-54.1 -16.15,-81.17 -2.18,5.56 -2.92,11.51 -4.26,17.32zm61.56 632.29c18.75,-6.64 40.61,-6.21 58.11,3.81 0.02,-2.11 0.02,-4.18 0.05,-6.25 16.58,-0.06 33.17,-0.15 49.77,0.05 -0.08,22.34 -0.08,44.66 0,67 -16.3,0.13 -32.6,0.03 -48.88,0.06 -0.79,-5.88 -1.22,-12.23 -4.98,-17.09 -7.46,-9.63 -23.23,-12.23 -32.95,-4.72 -3.34,5.16 2.63,9.79 6.95,11.66 21.22,10.24 44.66,15.81 64.61,28.72 12.5,8.33 22.18,21.4 24.79,36.37 2.49,15.55 0.05,32.65 -9.86,45.33 -9.42,11.77 -23.57,18.92 -38.04,22.34 -18.76,4.03 -39.45,2.94 -56.32,-6.96 -0.03,2.38 -0.04,4.8 -0.07,7.22 -16.59,-0.25 -33.2,0.28 -49.8,-0.28 0.36,-24.53 0.04,-49.07 0.16,-73.61 16.42,0.02 32.85,-0.04 49.28,0.03 0.42,8.17 0.11,17.52 6.25,23.84 8.14,8.17 22.8,11.42 32.42,4.02 4.96,-3.4 5.63,-11.31 1.16,-15.36 -6.09,-5.34 -13.78,-8.36 -21.11,-11.55 -13.8,-5.58 -27.59,-11.34 -40.57,-18.7 -9.21,-5.27 -18.36,-11.67 -23.63,-21.17 -7.49,-13.53 -7.58,-30.44 -2,-44.68 6.01,-14.85 20.05,-24.71 34.66,-30.08zm-16.82 18.34l0 0c-18.69,15.86 -19.1,50.01 1.57,64.42 10.41,7.57 22.18,13.01 33.92,18.19 11.91,5.24 24.51,9.24 35.45,16.47 5.61,3.7 10.02,10.11 9.26,17.1 -0.3,8.37 -7.49,14.77 -14.92,17.44 -11.77,3.72 -25.19,0.14 -34.17,-8.16 -6.19,-5.71 -8.38,-14.29 -9.07,-22.4 -11.28,0.08 -22.57,0.05 -33.85,0.02 -0.14,19.4 0.03,38.8 -0.09,58.2 11.26,0.19 22.54,0.04 33.81,0.09 0,-5.26 -0.01,-10.5 0.05,-15.74 7.59,6.79 15.95,13.27 26.13,15.51 20.95,4.98 44.4,1.64 61.98,-11.23 7.92,-5.72 13.47,-14.43 15.73,-23.92 3.43,-14.47 1.72,-30.97 -7.87,-42.82 -7.34,-9.91 -18.49,-15.9 -29.55,-20.77 -15.82,-7.45 -32.89,-11.96 -48.44,-20.06 -5.78,-2.91 -10.99,-8.48 -10.92,-15.31 0.39,-6.05 5.4,-10.65 10.85,-12.6 9.57,-3.43 20.87,-2.45 29.45,3.16 7.5,4.47 12.01,12.52 13.48,20.96 11.4,-0.12 22.81,0.18 34.21,-0.16 -0.23,-17.15 -0.03,-34.29 -0.1,-51.43 -11.36,-0.03 -22.71,0.06 -34.05,-0.06 -0.12,4.94 -0.12,9.87 -0.09,14.81 -4.91,-4.23 -9.72,-8.79 -15.69,-11.52 -21.73,-9.77 -48.9,-5.43 -67.08,9.81zm-591.53 -20.75c42.19,-0.21 84.37,-0.03 126.54,-0.09 0.03,14.48 0.05,28.95 0,43.42 -6.94,0 -13.9,0 -20.85,0 10.78,34.41 21.15,68.95 32.21,103.25 7.36,-0.15 14.72,-0.1 22.07,-0.06 -0.04,14.47 0.08,28.95 -0.06,43.43 -30.15,-0.09 -60.29,-0.06 -90.44,-0.01 -0.1,-14.49 -0.01,-28.96 -0.04,-43.45 3.97,-0.01 7.94,0.02 11.92,0.06 -1.27,-5.67 -2.82,-11.25 -4.43,-16.82 -11.46,0.09 -22.92,0.09 -34.36,0 -1.81,5.57 -3.44,11.18 -5.17,16.78 4.19,-0.02 8.39,-0.03 12.58,-0.12 0.32,14.51 0.15,29.05 0.09,43.56 -27.39,-0.07 -54.79,-0.1 -82.19,0.03 -0.27,-14.5 -0.06,-28.99 -0.11,-43.49 7.75,-0.01 15.51,0.06 23.26,-0.06 9.76,-34.4 19.86,-68.69 29.6,-103.1 -6.87,0 -13.74,0.03 -20.63,-0.06 0.07,-14.43 0.07,-28.84 0.01,-43.27zm7.72 7.85l0 0c0.21,9.22 0.08,18.44 0.09,27.67 7.73,0.05 15.48,-0.01 23.22,0.05 -11.46,39.57 -22.8,79.17 -34.28,118.73 -7.06,-0.03 -14.14,-0.02 -21.21,-0.02 -0.01,9.27 0,18.54 0,27.82 22.21,0.11 44.41,-0.15 66.6,0.14 0.39,-9.33 0.17,-18.66 0.14,-28 -5.11,0.04 -10.22,0.04 -15.32,0.03 3.19,-10.78 6.5,-21.51 9.75,-32.25 15.41,-0.04 30.82,-0.02 46.24,-0.02 2.89,10.78 5.86,21.55 8.68,32.36 -4.72,-0.05 -9.44,-0.28 -14.16,0 -0.67,9.19 0.02,18.42 -0.34,27.62 25.03,0.26 50.07,0.15 75.11,0.06 -0.13,-9.27 0.03,-18.54 -0.12,-27.8 -6.72,0.06 -13.43,0.04 -20.14,0.03 -12.2,-39.62 -24.66,-79.15 -36.81,-118.78 7.88,0.08 15.74,0.08 23.63,0.02 -0.03,-9.28 0,-18.54 -0.02,-27.8 -37.02,0.1 -74.04,-0.21 -111.06,0.14zm165.25 -7.92c36.25,-0.02 72.48,-0.03 108.72,0 0,14.47 0,28.93 0,43.4 -8.42,0 -16.82,0 -25.24,0 0.06,34.41 -0.13,68.83 0.11,103.24 15.24,-0.11 30.5,-0.17 45.76,0.03 0.31,-10.31 0.07,-20.61 0.15,-30.89 15.84,-0.03 31.66,-0.02 47.5,0 -0.03,24.74 0.06,49.48 -0.05,74.23 -58.58,-0.03 -117.16,-0.11 -175.73,0.04 -0.28,-14.48 -0.01,-28.96 -0.15,-43.43 7.93,-0.12 15.86,-0.04 23.78,-0.06 0,-34.39 0.02,-68.77 -0.01,-103.16 -8.29,0 -16.55,0 -24.84,0 -0.01,-14.47 -0.02,-28.94 0,-43.4zm8.11 7.84l0 0c0.07,9.24 0.01,18.5 0.04,27.77 8.09,-0.03 16.2,0.09 24.29,-0.11 0.49,39.61 0.06,79.22 0.21,118.84 -8.18,0.06 -16.38,-0.1 -24.56,0.12 0.08,9.2 0.11,18.4 -0.01,27.61 53.66,0.34 107.33,-0.08 160.99,0.21 0.31,-19.45 0.06,-38.91 0.14,-58.35 -10.65,0 -21.29,-0.02 -31.92,0 -0.01,10.13 0.02,20.29 -0.03,30.42 -20.5,0 -41.01,-0.02 -61.51,0.02 -0.12,-39.59 -0.03,-79.18 -0.04,-118.75 8.4,-0.01 16.81,-0.01 25.22,-0.01 0.01,-9.27 -0.05,-18.53 0.04,-27.77 -30.95,-0.11 -61.91,-0.09 -92.86,0zm216.39 -7.84c42.17,-0.02 84.35,-0.02 126.52,0 0.02,14.47 0.02,28.93 0,43.4 -6.97,0 -13.96,-0.06 -20.94,0.09 10.72,34.32 21.39,68.66 32.02,103.01 7.36,0.09 14.74,0.15 22.11,-0.07 0.51,14.5 0.09,29.03 0.23,43.55 -30.14,0.04 -60.27,-0.09 -90.39,0.06 -0.38,-14.44 -0.01,-28.89 -0.2,-43.33 3.99,-0.15 7.98,-0.18 11.97,-0.13 -1.35,-5.63 -2.87,-11.18 -4.45,-16.73 -11.52,0.03 -23.02,-0.03 -34.54,0.04 -1.62,5.57 -3.32,11.11 -4.99,16.67 4.28,-0.04 8.57,-0.01 12.84,0.15 -0.2,14.43 -0.04,28.84 -0.09,43.25 -27.46,0.03 -54.92,0 -82.36,0.02 0.09,-14.5 -0.24,-29.02 0.18,-43.52 7.6,0.21 15.21,0 22.83,0.21 10.13,-34.32 19.8,-68.79 29.86,-103.12 -6.86,-0.24 -13.73,-0.15 -20.6,-0.15 0,-14.47 0,-28.93 0,-43.4zm7.75 7.82l0 0c0.07,9.26 0.03,18.52 0.03,27.79 7.65,0 15.3,0.04 22.96,-0.06 -10.9,39.72 -22.76,79.2 -34.05,118.83 -7.07,-0.05 -14.12,-0.03 -21.18,-0.03 0,9.28 -0.02,18.56 0,27.84 22.26,0 44.53,0 66.79,0 0,-9.28 0,-18.56 0,-27.84 -5.16,-0.01 -10.33,-0.01 -15.49,0 3.38,-10.74 6.41,-21.61 9.93,-32.32 15.39,0.11 30.78,-0.05 46.17,0.09 2.84,10.74 5.78,21.46 8.67,32.21 -4.79,0.02 -9.6,0.02 -14.4,0.02 0,9.28 0,18.56 0,27.84 24.99,0 49.97,0 74.96,0 0,-9.28 0,-18.56 0,-27.84 -6.74,-0.01 -13.46,-0.01 -20.18,0 -12.35,-39.55 -24.61,-79.14 -36.93,-118.71 7.89,-0.05 15.79,-0.05 23.69,0 0.06,-9.3 0.01,-18.59 0.03,-27.86 -37.01,0.02 -74,-0.06 -111,0.04zm344.04 -7.82c31.07,0.06 62.13,-0.17 93.19,0.1 -0.09,14.41 -0.08,28.81 0,43.23 -3.76,0.04 -7.5,0.08 -11.24,0.16 0.15,10.58 -0.03,21.17 0.1,31.76 11.77,-9.94 22.42,-21.18 33.65,-31.72l-3.6 -0.14c-0.05,-14.48 -0.05,-28.95 0,-43.41 30.53,0.02 61.08,-0.01 91.61,0.02 0.02,14.46 0,28.93 0,43.4 -8.46,0 -16.94,0 -25.4,0 -14.14,14.03 -28.08,28.28 -42.33,42.18 16.65,20.53 33.98,40.51 50.75,60.94 7.27,0.07 14.55,0.01 21.82,0.07 -0.09,14.49 0.16,28.98 -0.13,43.46 -32.17,-0.32 -64.34,0.27 -96.49,-0.29 0.46,-13.72 -0.23,-27.46 0.32,-41.15 0.31,-0.74 0.92,-2.24 1.21,-2.98 -10.46,-12.43 -20.63,-25.13 -31.47,-37.25 0.03,12.74 -0.04,25.49 0.05,38.24 3.62,-0.06 7.24,-0.12 10.88,-0.19 0.5,14.5 0.07,29.02 0.22,43.53 -31.02,0.06 -62.03,-0.07 -93.05,0.08 -0.23,-14.46 0.03,-28.93 -0.15,-43.39 7.75,-0.16 15.48,-0.16 23.23,0.05 0.53,-34.4 -0.02,-68.82 0.27,-103.23 -7.81,-0.14 -15.63,-0.06 -23.44,-0.07 0,-14.47 0,-28.94 0,-43.4zm7.76 7.8l0 0c0.05,9.27 0.02,18.53 0.02,27.81 7.79,0 15.6,0 23.39,0.01 0,39.57 -0.01,79.15 0,118.72 -7.78,0.01 -15.56,0.03 -23.32,-0.01 -0.07,9.3 -0.19,18.62 0.07,27.95 25.8,-0.2 51.62,-0.03 77.41,-0.09 0.03,-9.28 0.02,-18.57 0.02,-27.85 -3.71,0 -7.41,0.01 -11.09,0.04 -0.09,-39.58 -0.03,-79.17 -0.04,-118.76 3.71,-0.01 7.42,-0.03 11.14,-0.03 0,-9.23 -0.09,-18.46 0.08,-27.7 -25.9,-0.25 -51.79,-0.09 -77.68,-0.09zm112.1 -0.02l0 0c-0.02,9.26 0,18.53 -0.02,27.81 5.07,0.03 10.14,0 15.2,0.03 -18.97,18.51 -38.26,36.71 -57.4,55.07 17.61,21.36 35.63,42.36 53.22,63.72 -3.67,-0.04 -7.33,-0.07 -10.99,-0.07 -0.04,9.25 0.03,18.5 -0.05,27.76 27,0.12 54,0.19 81,-0.03 -0.12,-9.25 -0.05,-18.48 -0.06,-27.72 -5.9,0 -11.77,0.05 -17.65,-0.11 -19.02,-23.14 -38.58,-45.83 -57.52,-69.01 16.65,-16.42 33.13,-33.03 49.65,-49.59 6.89,-0.06 13.78,-0.03 20.68,-0.02 0.03,-9.28 0,-18.57 0.01,-27.84 -25.35,0 -50.72,0 -76.07,0zm135.45 -7.78c42.17,-0.02 84.35,-0.02 126.52,0 0.02,14.46 0,28.93 0.02,43.4 -7.01,0 -14.02,-0.07 -21.01,0.1 10.77,34.32 21.35,68.7 32.04,103.05 7.39,0.01 14.78,0.09 22.19,-0.09 0.4,14.5 0.07,29.02 0.16,43.52 -30.13,0.03 -60.26,-0.08 -90.41,0.04 -0.3,-14.42 0.03,-28.87 -0.18,-43.29 3.98,-0.18 7.96,-0.21 11.96,-0.14 -1.45,-5.59 -2.92,-11.16 -4.46,-16.71 -11.52,-0.02 -23.04,-0.08 -34.56,0.03 -1.65,5.55 -3.35,11.09 -4.97,16.64 4.29,-0.03 8.59,0 12.88,0.18 -0.22,14.41 -0.03,28.84 -0.1,43.25 -27.45,-0.02 -54.91,0 -82.37,0 0.11,-14.52 -0.22,-29.02 0.18,-43.52 7.58,0.19 15.18,0.03 22.79,0.18 10.25,-34.29 19.78,-68.8 29.92,-103.12 -6.87,-0.19 -13.75,-0.12 -20.6,-0.12 0,-14.47 0,-28.94 0,-43.4zm7.74 7.82l0 0c0.08,9.26 0.02,18.52 0.05,27.8 7.69,-0.01 15.38,-0.01 23.07,-0.01 -11.33,39.6 -22.8,79.17 -34.25,118.74 -7.03,-0.01 -14.07,0 -21.09,0 -0.03,9.28 -0.03,18.56 -0.01,27.84 22.26,0 44.53,0 66.79,0 0,-9.28 0,-18.56 0,-27.84 -5.18,-0.01 -10.35,-0.01 -15.5,0 3.12,-10.73 6.64,-21.34 9.56,-32.13 15.48,-0.33 30.98,-0.09 46.49,-0.12 2.79,10.76 5.78,21.49 8.7,32.24 -4.79,0 -9.59,0 -14.37,0.01 0,9.28 0,18.56 0,27.84 24.98,0 49.97,0 74.96,0 0,-9.28 0.02,-18.56 -0.01,-27.84 -6.73,0 -13.44,-0.04 -20.15,0.06 -12.52,-39.54 -24.61,-79.22 -37.01,-118.79 7.91,-0.01 15.82,-0.03 23.75,0.02 0.04,-9.3 0.01,-18.59 0.02,-27.86 -37,0.02 -73.99,-0.06 -111,0.04zm-968.3 90.14c5.65,-18.79 10.51,-37.86 16.93,-56.39 5.24,18.75 10.21,37.57 15.43,56.32 -10.77,0.13 -21.56,0 -32.36,0.07zm16.32 -28.02l0 0c-2.1,6.68 -3.98,13.42 -5.96,20.14 3.92,0.06 7.84,0.09 11.76,0.14 -1.9,-6.77 -3.32,-13.69 -5.8,-20.28zm397.67 -28.43c5.79,18.65 10.66,37.59 15.56,56.48 -10.75,-0.17 -21.5,0.14 -32.23,-0.19 5.7,-18.72 10.94,-37.58 16.67,-56.29zm-0.34 28.12l0 0c-1.87,6.84 -3.96,13.64 -5.84,20.5 3.91,0.01 7.81,0.03 11.72,0.04 -1.92,-6.86 -3.45,-13.85 -5.88,-20.54zm601.13 20.51l0 0c3.93,0 7.87,0.02 11.8,0.05 -1.87,-6.8 -3.5,-13.66 -5.64,-20.37 -2.36,6.67 -4.13,13.54 -6.16,20.32z"/>
   <path class="fil1" d="M1002.84 1145.71c15.91,-17.79 40.19,-26.9 63.82,-26.43 7.51,-0.14 14.86,1.83 22.36,1.68 24.28,-0.13 48.57,0.09 72.85,-0.1 0.41,31.76 -0.02,63.56 0.21,95.34 -4.08,0.1 -8.17,0.1 -12.23,0.1 14.2,13.05 22.77,31.77 22.62,51.14 6.04,0.09 12.08,0.09 18.12,0.07 0.05,-24.97 -0.04,-49.92 0.05,-74.89 -7.93,-0.14 -15.86,-0.04 -23.78,-0.08 0,-23.75 -0.02,-47.49 0.01,-71.24 77.17,0 154.36,-0.01 231.55,0 0.01,23.75 0,47.5 0,71.25 -11,-0.03 -21.99,0.09 -32.97,-0.07 -9.99,9.6 -19.64,19.56 -29.5,29.31 12.78,15.22 25.52,30.46 38.3,45.68 14.15,0.09 28.29,0.04 42.44,0.01 6.87,-25.04 14.83,-49.81 21.22,-74.97 -5.25,0.04 -10.51,0.06 -15.74,0.03 0,-23.75 -0.02,-47.49 0,-71.24 51.46,0 102.9,0 154.37,0 0.01,23.75 0,47.5 0,71.25 -5.21,0.02 -10.41,0 -15.6,-0.06 7.3,25.06 15.66,49.8 22.98,74.84 8.66,0.34 17.33,0.11 26.01,0.18 0,23.75 0,47.5 0,71.25 -147.69,0 -295.38,0 -443.07,0 0.01,-13.83 -0.08,-27.65 0.06,-41.47 -7.75,17.93 -23.95,30.81 -41.98,37.46 -15.23,5.63 -31.87,7.3 -47.96,5.3 -13.69,-2.45 -27.64,-0.85 -41.44,-1.29 -216.63,-0.05 -433.24,0.07 -649.87,-0.06 0.08,-23.72 0.05,-47.44 0.02,-71.14 8.8,-0.09 17.62,-0.05 26.43,-0.05 7.29,-24.97 14.54,-49.93 21.62,-74.96 -5.26,-0.38 -10.91,0.85 -15.96,-0.58 -0.37,-23.54 -0.03,-47.1 -0.15,-70.65 51.49,0.06 102.99,-0.21 154.48,0.13 -0.17,23.65 -0.17,47.29 0,70.95 -5.24,0.2 -10.48,0.2 -15.71,0.11 7.68,25.02 15.49,50 23.26,75 12.04,0 24.08,0 36.12,0 0.06,-24.94 -0.08,-49.86 0.07,-74.8 -8.3,-0.34 -16.61,-0.1 -24.91,-0.16 -0.02,-23.75 -0.01,-47.5 -0.01,-71.25 45.53,0 91.03,-0.01 136.56,0 0.01,23.75 0,47.49 0,71.24 -8.52,0.01 -17.04,0.03 -25.56,-0.02 -0.13,24.98 0.03,49.95 -0.07,74.93 6.1,0.09 12.21,0.15 18.33,-0.13 -0.26,-10.08 -0.08,-20.16 -0.12,-30.24 25.23,0 50.47,-0.01 75.7,0.02 -0.05,10.06 0.13,20.14 -0.13,30.22 4.67,0.22 9.33,0.24 14.01,0.15 7.08,-24.93 14.35,-49.8 21.48,-74.71 -5.35,-0.3 -10.7,-0.27 -16.06,-0.19 -0.02,-23.75 0,-47.5 0,-71.25 51.46,-0.03 102.92,-0.03 154.38,0 -0.03,23.75 0,47.48 -0.01,71.23 -5.21,0.02 -10.41,0 -15.6,-0.07 7.45,25.04 15.61,49.87 23.06,74.91 4.19,0.11 8.38,0.14 12.58,0.14 0.07,-10.19 -0.17,-20.38 0.15,-30.55 6.94,0.13 13.89,0.12 20.85,0.09 -10.15,-8.63 -18.33,-19.94 -21.14,-33.13 -4.46,-20.03 -0.47,-42.71 13.5,-58.23zm487.65 79.48c2.03,-6.78 3.8,-13.65 6.16,-20.32 2.14,6.71 3.77,13.57 5.64,20.37 -3.93,-0.03 -7.87,-0.05 -11.8,-0.05zm-601.13 -20.51c2.43,6.69 3.96,13.68 5.88,20.54 -3.91,-0.01 -7.81,-0.03 -11.72,-0.04 1.88,-6.86 3.97,-13.66 5.84,-20.5zm-397.33 0.31c2.48,6.59 3.9,13.51 5.8,20.28 -3.92,-0.05 -7.84,-0.08 -11.76,-0.14 1.98,-6.72 3.86,-13.46 5.96,-20.14zm486.46 -699.75c1.34,-5.81 2.08,-11.76 4.26,-17.32 5.29,27.07 10.84,54.1 16.15,81.17 -11.35,0.06 -22.71,0.03 -34.05,0.03 4.34,-21.34 9.12,-42.58 13.64,-63.88zm-274.85 -425.06c137.85,-0.34 275.68,-0.06 413.52,-0.15 54.71,0.14 109.43,-0.27 164.13,0.21 -0.29,104.19 -0.09,208.37 -0.11,312.57 -20.2,0.14 -40.42,0 -60.63,0.06 25.6,116.29 51.32,232.53 77.08,348.77 -22.07,-5.04 -44.06,-10.59 -65.73,-17.18l0 -0.04c-29.63,-130.43 -59.33,-260.83 -89,-391.25 26.03,-0.15 52.09,-0.01 78.14,-0.07 0,-68.03 0,-136.06 0,-204.08 -152.4,0 -304.79,0 -457.18,0 0,68.02 0,136.05 0,204.08 24.8,0 49.59,0.06 74.39,-0.03 -17.87,87.87 -36.72,175.55 -54.96,263.35 -11.88,57.28 -24.29,114.44 -35.82,171.78 -7.81,11.7 -14.47,24.1 -19.92,37.05 -5.52,10.69 -7.01,22.76 -9.31,34.41 -22.29,0.03 -44.57,-0.12 -66.87,0.08 0.08,67.47 0.09,134.94 0,202.4 8.8,0.25 17.62,0.03 26.42,0.11 21.2,0.68 42.95,6.32 63.76,-0.18 53.52,0.41 107.05,0.12 160.57,0.15 25.45,3.19 51.18,-2.51 76.61,1.48 5.69,1.22 11.7,0.65 17.13,-1.35 3.93,-2.11 2.57,-7.56 0.89,-10.75 -5.14,-8.58 -14.75,-12.84 -23.57,-16.62 -9.16,-4.34 -18.69,-11.08 -20.96,-21.58 -2.17,-10.32 -1.81,-21.11 0.22,-31.43 3.03,-16.86 4.37,-33.96 6.33,-50.96 1.17,-9.64 4.7,-19.6 12.78,-25.6 8.1,0.61 16.09,2.24 24.22,2.64 4.47,8.09 8.7,16.58 9.61,25.93 1.3,13.9 3.36,27.78 3.02,41.77 -0.1,9.73 0.52,19.43 1.81,29.08 -0.69,19.12 -0.16,38.28 -0.31,57.42 16.61,-0.02 33.22,0.1 49.83,-0.11 23.48,4.96 48.08,4.65 71.55,-0.25 35.33,0.83 70.68,0.13 106.02,0.37 33.55,-0.03 67.1,0.03 100.63,-0.03 -0.02,-57.43 0,-114.84 0,-172.27 19.5,4.81 39.7,6.22 59.74,5.68 -0.07,75.48 0.17,150.98 -0.12,226.45 -165.71,-0.19 -331.41,-0.02 -497.12,-0.08 -102.95,0.07 -205.89,-0.14 -308.85,0.1 -0.66,-25.49 -0.09,-50.99 -0.28,-76.49 0.09,-82.04 -0.18,-164.09 0.12,-246.15 30.76,0.09 61.51,0.09 92.25,0 26.91,-128.88 54.08,-257.73 80.99,-386.61 -20.31,-0.02 -40.63,0.06 -60.95,-0.03 0,-104.22 0.13,-208.43 -0.07,-312.65zm336.41 1057.35l0 0c-14.61,5.37 -28.65,15.23 -34.66,30.08 -5.58,14.24 -5.49,31.15 2,44.68 5.27,9.5 14.42,15.9 23.63,21.17 12.98,7.36 26.77,13.12 40.57,18.7 7.33,3.19 15.02,6.21 21.11,11.55 4.47,4.05 3.8,11.96 -1.16,15.36 -9.62,7.4 -24.28,4.15 -32.42,-4.02 -6.14,-6.32 -5.83,-15.67 -6.25,-23.84 -16.43,-0.07 -32.86,-0.01 -49.28,-0.03 -0.12,24.54 0.2,49.08 -0.16,73.61 16.6,0.56 33.21,0.03 49.8,0.28 0.03,-2.42 0.04,-4.84 0.07,-7.22 16.87,9.9 37.56,10.99 56.32,6.96 14.47,-3.42 28.62,-10.57 38.04,-22.34 9.91,-12.68 12.35,-29.78 9.86,-45.33 -2.61,-14.97 -12.29,-28.04 -24.79,-36.37 -19.95,-12.91 -43.39,-18.48 -64.61,-28.72 -4.32,-1.87 -10.29,-6.5 -6.95,-11.66 9.72,-7.51 25.49,-4.91 32.95,4.72 3.76,4.86 4.19,11.21 4.98,17.09 16.28,-0.03 32.58,0.07 48.88,-0.06 -0.08,-22.34 -0.08,-44.66 0,-67 -16.6,-0.2 -33.19,-0.11 -49.77,-0.05 -0.03,2.07 -0.03,4.14 -0.05,6.25 -17.5,-10.02 -39.36,-10.45 -58.11,-3.81zm-608.35 -2.41l0 0c0.06,14.43 0.06,28.84 -0.01,43.27 6.89,0.09 13.76,0.06 20.63,0.06 -9.74,34.41 -19.84,68.7 -29.6,103.1 -7.75,0.12 -15.51,0.05 -23.26,0.06 0.05,14.5 -0.16,28.99 0.11,43.49 27.4,-0.13 54.8,-0.1 82.19,-0.03 0.06,-14.51 0.23,-29.05 -0.09,-43.56 -4.19,0.09 -8.39,0.1 -12.58,0.12 1.73,-5.6 3.36,-11.21 5.17,-16.78 11.44,0.09 22.9,0.09 34.36,0 1.61,5.57 3.16,11.15 4.43,16.82 -3.98,-0.04 -7.95,-0.07 -11.92,-0.06 0.03,14.49 -0.06,28.96 0.04,43.45 30.15,-0.05 60.29,-0.08 90.44,0.01 0.14,-14.48 0.02,-28.96 0.06,-43.43 -7.35,-0.04 -14.71,-0.09 -22.07,0.06 -11.06,-34.3 -21.43,-68.84 -32.21,-103.25 6.95,0 13.91,0 20.85,0 0.05,-14.47 0.03,-28.94 0,-43.42 -42.17,0.06 -84.35,-0.12 -126.54,0.09zm172.97 -0.07l0 0c-0.02,14.46 -0.01,28.93 0,43.4 8.29,0 16.55,0 24.84,0 0.03,34.39 0.01,68.77 0.01,103.16 -7.92,0.02 -15.85,-0.06 -23.78,0.06 0.14,14.47 -0.13,28.95 0.15,43.43 58.57,-0.15 117.15,-0.07 175.73,-0.04 0.11,-24.75 0.02,-49.49 0.05,-74.23 -15.84,-0.02 -31.66,-0.03 -47.5,0 -0.08,10.28 0.16,20.58 -0.15,30.89 -15.26,-0.2 -30.52,-0.14 -45.76,-0.03 -0.24,-34.41 -0.05,-68.83 -0.11,-103.24 8.42,0 16.82,0 25.24,0 0,-14.47 0,-28.93 0,-43.4 -36.24,-0.03 -72.47,-0.02 -108.72,0zm224.5 0l0 0c0,14.47 0,28.93 0,43.4 6.87,0 13.74,-0.09 20.6,0.15 -10.06,34.33 -19.73,68.8 -29.86,103.12 -7.62,-0.21 -15.23,0 -22.83,-0.21 -0.42,14.5 -0.09,29.02 -0.18,43.52 27.44,-0.02 54.9,0.01 82.36,-0.02 0.05,-14.41 -0.11,-28.82 0.09,-43.25 -4.27,-0.16 -8.56,-0.19 -12.84,-0.15 1.67,-5.56 3.37,-11.1 4.99,-16.67 11.52,-0.07 23.02,-0.01 34.54,-0.04 1.58,5.55 3.1,11.1 4.45,16.73 -3.99,-0.05 -7.98,-0.02 -11.97,0.13 0.19,14.44 -0.18,28.89 0.2,43.33 30.12,-0.15 60.25,-0.02 90.39,-0.06 -0.14,-14.52 0.28,-29.05 -0.23,-43.55 -7.37,0.22 -14.75,0.16 -22.11,0.07 -10.63,-34.35 -21.3,-68.69 -32.02,-103.01 6.98,-0.15 13.97,-0.09 20.94,-0.09 0.02,-14.47 0.02,-28.93 0,-43.4 -42.17,-0.02 -84.35,-0.02 -126.52,0zm351.79 0l0 0c0,14.46 0,28.93 0,43.4 7.81,0.01 15.63,-0.07 23.44,0.07 -0.29,34.41 0.26,68.83 -0.27,103.23 -7.75,-0.21 -15.48,-0.21 -23.23,-0.05 0.18,14.46 -0.08,28.93 0.15,43.39 31.02,-0.15 62.03,-0.02 93.05,-0.08 -0.15,-14.51 0.28,-29.03 -0.22,-43.53 -3.64,0.07 -7.26,0.13 -10.88,0.19 -0.09,-12.75 -0.02,-25.5 -0.05,-38.24 10.84,12.12 21.01,24.82 31.47,37.25 -0.29,0.74 -0.9,2.24 -1.21,2.98 -0.55,13.69 0.14,27.43 -0.32,41.15 32.15,0.56 64.32,-0.03 96.49,0.29 0.29,-14.48 0.04,-28.97 0.13,-43.46 -7.27,-0.06 -14.55,0 -21.82,-0.07 -16.77,-20.43 -34.1,-40.41 -50.75,-60.94 14.25,-13.9 28.19,-28.15 42.33,-42.18 8.46,0 16.94,0 25.4,0 0,-14.47 0.02,-28.94 0,-43.4 -30.53,-0.03 -61.08,0 -91.61,-0.02 -0.05,14.46 -0.05,28.93 0,43.41l3.6 0.14c-11.23,10.54 -21.88,21.78 -33.65,31.72 -0.13,-10.59 0.05,-21.18 -0.1,-31.76 3.74,-0.08 7.48,-0.12 11.24,-0.16 -0.08,-14.42 -0.09,-28.82 0,-43.23 -31.06,-0.27 -62.12,-0.04 -93.19,-0.1zm255.31 0l0 0c0,14.46 0,28.93 0,43.4 6.85,0 13.73,-0.07 20.6,0.12 -10.14,34.32 -19.67,68.83 -29.92,103.12 -7.61,-0.15 -15.21,0.01 -22.79,-0.18 -0.4,14.5 -0.07,29 -0.18,43.52 27.46,0 54.92,-0.02 82.37,0 0.07,-14.41 -0.12,-28.84 0.1,-43.25 -4.29,-0.18 -8.59,-0.21 -12.88,-0.18 1.62,-5.55 3.32,-11.09 4.97,-16.64 11.52,-0.11 23.04,-0.05 34.56,-0.03 1.54,5.55 3.01,11.12 4.46,16.71 -4,-0.07 -7.98,-0.04 -11.96,0.14 0.21,14.42 -0.12,28.87 0.18,43.29 30.15,-0.12 60.28,-0.01 90.41,-0.04 -0.09,-14.5 0.24,-29.02 -0.16,-43.52 -7.41,0.18 -14.8,0.1 -22.19,0.09 -10.69,-34.35 -21.27,-68.73 -32.04,-103.05 6.99,-0.17 14,-0.1 21.01,-0.1 -0.02,-14.47 0,-28.94 -0.02,-43.4 -42.17,-0.02 -84.35,-0.02 -126.52,0z"/>
   <path class="fil2" d="M593.87 1381.4c0.12,-9.41 -0.14,-18.83 0.16,-28.24 35.83,0.16 71.65,0.03 107.48,0.07 -0.01,9.41 0.05,18.82 -0.04,28.23 -7.23,-0.06 -14.47,-0.01 -21.7,-0.04 11.18,36.19 22.89,72.21 34.18,108.37 6.49,-0.01 12.98,-0.01 19.48,0 0.04,9.34 -0.11,18.69 0.1,28.04 -26.97,0.42 -53.96,0 -80.94,0.21 -0.12,-9.41 -0.04,-18.84 -0.06,-28.25 6.93,-0.01 13.86,-0.01 20.8,0.02 -2.51,-9.31 -5.13,-18.57 -7.65,-27.85 -14.13,0.03 -28.25,-0.06 -42.36,0.05 -2.64,9.3 -5.76,18.47 -8.42,27.78 7.23,0 14.44,-0.01 21.67,0 -0.01,9.41 0.06,18.82 -0.06,28.23 -24.32,-0.03 -48.65,-0.07 -72.98,0.02 -0.12,-9.41 -0.05,-18.84 -0.06,-28.25 6.8,-0.01 13.58,0 20.38,-0.01 10.58,-36.12 21.28,-72.2 31.82,-108.33 -7.27,-0.03 -14.53,0.01 -21.8,-0.05zm808.26 -28.17c26.83,0 53.67,0 80.52,0 0.02,9.38 -0.01,18.78 0.02,28.17 -6.82,0.54 -14.03,-0.92 -20.61,0.64 -15.27,14.7 -30.44,29.53 -45.51,44.46 11.85,14.44 24.15,28.5 36.15,42.82 5.98,6.67 11.28,14.01 17.63,20.31 5.57,0.41 11.18,0.06 16.78,0.16 -0.02,9.4 0.04,18.81 -0.05,28.23 -29.4,-0.03 -58.81,-0.04 -88.23,0 -0.1,-9.41 -0.03,-18.82 -0.04,-28.23 6.17,-0.01 12.35,0.02 18.52,-0.01 -16.27,-19.69 -33.11,-38.86 -49.46,-58.46 17.9,-16.47 35.76,-33.01 53.29,-49.87 -6.34,-0.03 -12.68,-0.02 -19.01,-0.02 0,-9.41 0,-18.8 0,-28.2zm-100.21 28.19c0.07,-9.43 -0.12,-18.84 0.12,-28.25 28.63,0.11 57.26,0.08 85.91,0.02 0.18,9.41 0.02,18.8 0.11,28.21 -6.91,0.05 -13.81,0.06 -20.7,-0.01 -0.28,36.11 -0.01,72.24 -0.13,108.37 6.31,0.03 12.62,0.02 18.94,0.03 -0.04,9.41 0.12,18.84 -0.1,28.25 -28.09,-0.22 -56.17,0.21 -84.24,-0.21 0.21,-9.35 0.04,-18.7 0.12,-28.04 7.45,-0.06 14.9,0.15 22.37,-0.18 -0.29,-36.07 -0.02,-72.12 -0.14,-108.18 -7.43,0 -14.85,0.02 -22.26,-0.01zm-554.76 -28.19c23,-0.09 46.01,0.15 69.02,-0.12 20.34,33.79 40.05,67.93 60.23,101.78 0.57,-24.47 0.11,-48.96 0.26,-73.46 -7.19,0 -14.37,0.02 -21.54,-0.01 0.09,-9.43 -0.14,-18.84 0.13,-28.25 24.67,0.11 49.33,0.09 74,0.02 0.22,9.39 0.03,18.8 0.12,28.23 -7.8,0.03 -15.59,0 -23.38,0.01 0,45.88 -0.06,91.75 0.03,137.62 -12.28,0.13 -24.57,0.03 -36.84,0.06 -23.53,-40.3 -46.84,-80.74 -70.5,-120.95 0.09,30.54 0.05,61.07 0.03,91.6 6.92,0.05 13.85,0.02 20.78,0.03 -0.01,9.41 0.11,18.84 -0.07,28.26 -24.08,-0.11 -48.15,-0.04 -72.23,-0.03 -0.09,-9.42 -0.03,-18.82 -0.04,-28.23 7.33,-0.06 14.66,0.14 22,-0.18 -0.3,-36.05 0.07,-72.12 -0.2,-108.19 -7.27,0.03 -14.54,0.03 -21.82,-0.02 0.03,-9.39 0,-18.77 0.02,-28.17zm-356.63 28.19c0.09,-9.43 -0.14,-18.84 0.13,-28.25 23.01,0.15 46.02,0 69.04,0.08 20.1,33.77 39.7,67.83 60.07,101.45 -0.25,-24.43 0.07,-48.86 -0.18,-73.3 -7.02,0.05 -14.04,0.03 -21.08,0.03 0,-9.38 0.05,-18.74 -0.03,-28.11 24.63,-0.21 49.27,-0.04 73.9,-0.09 -0.02,9.41 0.04,18.82 -0.05,28.25 -7.61,-0.09 -15.23,0 -22.84,-0.09 -0.27,45.9 -0.03,91.81 -0.12,137.72 -12.25,0.04 -24.49,-0.08 -36.74,0.06 -14.64,-24.63 -28.84,-49.52 -43.34,-74.24 -9.09,-15.25 -17.49,-30.94 -27.09,-45.88 -0.17,30.24 -0.03,60.49 -0.06,90.74 6.8,-0.01 13.59,-0.01 20.39,0 -0.01,9.41 0.06,18.84 -0.06,28.25 -24,-0.19 -48.01,0.18 -72.02,-0.18 0.18,-9.37 0.05,-18.72 0.11,-28.07 7.27,0 14.56,-0.01 21.85,0.02 0.06,-36.13 0.01,-72.25 0.01,-108.36 -7.29,-0.03 -14.59,0 -21.89,-0.03zm1114.88 0.99c6.32,-24.59 37.24,-37.86 59.83,-27.04 5.05,2.34 8.97,6.43 12.8,10.38 -0.02,-4.19 -0.03,-8.36 -0.02,-12.52 9.4,-0.01 18.79,0 28.19,0 0.09,16.78 -0.1,33.55 0.12,50.32 -9.4,0.28 -18.79,0.15 -28.17,0.11 -1.01,-7.93 -4.34,-15.92 -11.23,-20.43 -7.86,-5.6 -20.96,-5.33 -26.66,3.21 -3.94,6.2 -0.46,14.38 5.32,18.08 12.97,8.58 28.16,12.98 41.41,21.09 12.41,6.5 22.71,17.9 25.77,31.82 2.94,13.66 1.94,28.74 -5,41.09 -11.6,18.84 -37.21,25.89 -57.59,18.75 -6.88,-2.35 -12.27,-7.34 -17.13,-12.52 0.06,4.41 0.07,8.84 0.06,13.26 -9.4,-0.03 -18.8,-0.02 -28.19,-0.02 -0.03,-18.77 0.04,-37.55 -0.05,-56.33 9.37,-0.04 18.75,-0.28 28.12,0.08 1.04,7.64 1.9,16.1 7.75,21.83 7.05,7.96 20.63,11.12 29.13,3.65 7.63,-6.01 8.35,-18.43 1.53,-25.32 -8.43,-8.21 -19.86,-11.98 -29.95,-17.59 -9.96,-5.49 -20.19,-11.03 -28.22,-19.24 -10.47,-11.32 -11.12,-28.35 -7.82,-42.66zm-204.59 -239.58c25.35,0 50.72,0 76.07,0 -0.01,9.27 0.02,18.56 -0.01,27.84 -6.9,-0.01 -13.79,-0.04 -20.68,0.02 -16.52,16.56 -33,33.17 -49.65,49.59 18.94,23.18 38.5,45.87 57.52,69.01 5.88,0.16 11.75,0.11 17.65,0.11 0.01,9.24 -0.06,18.47 0.06,27.72 -27,0.22 -54,0.15 -81,0.03 0.08,-9.26 0.01,-18.51 0.05,-27.76 3.66,0 7.32,0.03 10.99,0.07 -17.59,-21.36 -35.61,-42.36 -53.22,-63.72 19.14,-18.36 38.43,-36.56 57.4,-55.07 -5.06,-0.03 -10.13,0 -15.2,-0.03 0.02,-9.28 0,-18.55 0.02,-27.81zm-112.1 0.02c25.89,0 51.78,-0.16 77.68,0.09 -0.17,9.24 -0.08,18.47 -0.08,27.7 -3.72,0 -7.43,0.02 -11.14,0.03 0.01,39.59 -0.05,79.18 0.04,118.76 3.68,-0.03 7.38,-0.04 11.09,-0.04 0,9.28 0.01,18.57 -0.02,27.85 -25.79,0.06 -51.61,-0.11 -77.41,0.09 -0.26,-9.33 -0.14,-18.65 -0.07,-27.95 7.76,0.04 15.54,0.02 23.32,0.01 -0.01,-39.57 0,-79.15 0,-118.72 -7.79,-0.01 -15.6,-0.01 -23.39,-0.01 0,-9.28 0.03,-18.54 -0.02,-27.81zm-575.94 0.04c30.95,-0.09 61.91,-0.11 92.86,0 -0.09,9.24 -0.03,18.5 -0.04,27.77 -8.41,0 -16.82,0 -25.22,0.01 0.01,39.57 -0.08,79.16 0.04,118.75 20.5,-0.04 41.01,-0.02 61.51,-0.02 0.05,-10.13 0.02,-20.29 0.03,-30.42 10.63,-0.02 21.27,0 31.92,0 -0.08,19.44 0.17,38.9 -0.14,58.35 -53.66,-0.29 -107.33,0.13 -160.99,-0.21 0.12,-9.21 0.09,-18.41 0.01,-27.61 8.18,-0.22 16.38,-0.06 24.56,-0.12 -0.15,-39.62 0.28,-79.23 -0.21,-118.84 -8.09,0.2 -16.2,0.08 -24.29,0.11 -0.03,-9.27 0.03,-18.53 -0.04,-27.77zm410.45 12.98c18.18,-15.24 45.35,-19.58 67.08,-9.81 5.97,2.73 10.78,7.29 15.69,11.52 -0.03,-4.94 -0.03,-9.87 0.09,-14.81 11.34,0.12 22.69,0.03 34.05,0.06 0.07,17.14 -0.13,34.28 0.1,51.43 -11.4,0.34 -22.81,0.04 -34.21,0.16 -1.47,-8.44 -5.98,-16.49 -13.48,-20.96 -8.58,-5.61 -19.88,-6.59 -29.45,-3.16 -5.45,1.95 -10.46,6.55 -10.85,12.6 -0.07,6.83 5.14,12.4 10.92,15.31 15.55,8.1 32.62,12.61 48.44,20.06 11.06,4.87 22.21,10.86 29.55,20.77 9.59,11.85 11.3,28.35 7.87,42.82 -2.26,9.49 -7.81,18.2 -15.73,23.92 -17.58,12.87 -41.03,16.21 -61.98,11.23 -10.18,-2.24 -18.54,-8.72 -26.13,-15.51 -0.06,5.24 -0.05,10.48 -0.05,15.74 -11.27,-0.05 -22.55,0.1 -33.81,-0.09 0.12,-19.4 -0.05,-38.8 0.09,-58.2 11.28,0.03 22.57,0.06 33.85,-0.02 0.69,8.11 2.88,16.69 9.07,22.4 8.98,8.3 22.4,11.88 34.17,8.16 7.43,-2.67 14.62,-9.07 14.92,-17.44 0.76,-6.99 -3.65,-13.4 -9.26,-17.1 -10.94,-7.23 -23.54,-11.23 -35.45,-16.47 -11.74,-5.18 -23.51,-10.62 -33.92,-18.19 -20.67,-14.41 -20.26,-48.56 -1.57,-64.42zm-223.32 -224.96c11.22,-8.58 23.29,-18.29 37.97,-19.15 11.25,13.8 17.29,31.03 23.19,47.64 6.04,17.15 11.65,34.44 18.37,51.32 -50.75,0.06 -101.48,-0.11 -152.23,0.09 -1.28,-8.82 2.8,-17.56 7.94,-24.49 8.36,-9.96 18.46,-18.28 28.69,-26.23 12.37,-9.31 23.63,-19.97 36.07,-29.18zm296.96 -39.13c21.63,7.05 28.16,32.83 48.46,41.81 13.14,7.07 27.54,11.4 40.48,18.85 11.94,7.07 25.89,9.73 37.75,16.98 18.2,8.63 24.92,29.75 40.68,41.3 -56.13,0 -112.26,-0.02 -168.38,0.01 -1.85,-1.5 -3.61,-3.11 -5.36,-4.7 2.79,-31.98 -3.47,-64.04 0.66,-95.94 0.84,-6.39 3.31,-12.39 5.71,-18.31zm-413.95 46.1c0.17,-22.37 -0.12,-44.75 0.14,-67.12 10.57,0.12 21.16,0.01 31.74,0.09 -2.09,13.95 -3.15,28.9 -11.01,41.07 -6.61,8.94 -14.32,17 -20.87,25.96zm525.1 -79.74c7.33,0.88 14.72,0.51 22.04,-0.29 1.01,4.33 1.99,8.66 3.03,13 24.4,-0.11 48.8,0.06 73.21,-0.08 0.25,46.63 -0.03,93.25 0.13,139.89 -4.78,0.04 -9.56,0.06 -14.32,0.06 2.59,-8.63 2.27,-17.74 1.94,-26.62 -1.13,-15.67 -9.14,-29.61 -17.19,-42.7 -2.74,-4.5 -6.38,-8.42 -10.46,-11.74 -11.15,-9.06 -23.98,-15.66 -36.24,-23.02 -7.95,-4.68 -14.59,-11.42 -19.68,-19.08 -5.33,-8.8 -4.41,-19.74 -2.46,-29.42zm-412.62 -697.58c131.36,-0.02 262.73,-0.02 394.09,0 0.02,46.99 -0.01,93.99 0.02,140.98 -28.68,0.06 -57.36,0.03 -86.03,0.02 30.39,134.73 61.49,269.32 91.8,404.08 -20.97,-11.25 -41.44,-24.76 -65.04,-29.75 -11.54,-0.95 -23.29,-1.26 -34.78,0.12 -28.59,8.46 -58.5,10.35 -88.11,11.8 -32.2,1.38 -64.39,-1.17 -96.59,0.37 -18.46,0.87 -37.3,-0.26 -55.33,4.61 -12.25,3.63 -24.75,6.91 -36.21,12.67 -10.15,5.61 -20.76,10.61 -29.91,17.86 29.02,-140.64 58.75,-281.14 87.82,-421.76 -27.27,-0.05 -54.54,0.16 -81.81,-0.11 0.17,-46.96 0.03,-93.93 0.08,-140.89zm126.44 442.99l0 0c39.76,0.14 79.54,0.12 119.31,0.01 -19.36,-95.38 -37.96,-190.93 -57.52,-286.28 -20.81,95.38 -41.01,190.88 -61.79,286.27zm-482.42 539.42c37.02,-0.35 74.04,-0.04 111.06,-0.14 0.02,9.26 -0.01,18.52 0.02,27.8 -7.89,0.06 -15.75,0.06 -23.63,-0.02 12.15,39.63 24.61,79.16 36.81,118.78 6.71,0.01 13.42,0.03 20.14,-0.03 0.15,9.26 -0.01,18.53 0.12,27.8 -25.04,0.09 -50.08,0.2 -75.11,-0.06 0.36,-9.2 -0.33,-18.43 0.34,-27.62 4.72,-0.28 9.44,-0.05 14.16,0 -2.82,-10.81 -5.79,-21.58 -8.68,-32.36 -15.42,0 -30.83,-0.02 -46.24,0.02 -3.25,10.74 -6.56,21.47 -9.75,32.25 5.1,0.01 10.21,0.01 15.32,-0.03 0.03,9.34 0.25,18.67 -0.14,28 -22.19,-0.29 -44.39,-0.03 -66.6,-0.14 0,-9.28 -0.01,-18.55 0,-27.82 7.07,0 14.15,-0.01 21.21,0.02 11.48,-39.56 22.82,-79.16 34.28,-118.73 -7.74,-0.06 -15.49,0 -23.22,-0.05 -0.01,-9.23 0.12,-18.45 -0.09,-27.67zm36.29 90.04l0 0c10.8,-0.07 21.59,0.06 32.36,-0.07 -5.22,-18.75 -10.19,-37.57 -15.43,-56.32 -6.42,18.53 -11.28,37.6 -16.93,56.39zm361.21 -90.14c37,-0.1 73.99,-0.02 111,-0.04 -0.02,9.27 0.03,18.56 -0.03,27.86 -7.9,-0.05 -15.8,-0.05 -23.69,0 12.32,39.57 24.58,79.16 36.93,118.71 6.72,-0.01 13.44,-0.01 20.18,0 0,9.28 0,18.56 0,27.84 -24.99,0 -49.97,0 -74.96,0 0,-9.28 0,-18.56 0,-27.84 4.8,0 9.61,0 14.4,-0.02 -2.89,-10.75 -5.83,-21.47 -8.67,-32.21 -15.39,-0.14 -30.78,0.02 -46.17,-0.09 -3.52,10.71 -6.55,21.58 -9.93,32.32 5.16,-0.01 10.33,-0.01 15.49,0 0,9.28 0,18.56 0,27.84 -22.26,0 -44.53,0 -66.79,0 -0.02,-9.28 0,-18.56 0,-27.84 7.06,0 14.11,-0.02 21.18,0.03 11.29,-39.63 23.15,-79.11 34.05,-118.83 -7.66,0.1 -15.31,0.06 -22.96,0.06 0,-9.27 0.04,-18.53 -0.03,-27.79zm52.78 33.69l0 0c-5.73,18.71 -10.97,37.57 -16.67,56.29 10.73,0.33 21.48,0.02 32.23,0.19 -4.9,-18.89 -9.77,-37.83 -15.56,-56.48zm554.31 -33.69c37.01,-0.1 74,-0.02 111,-0.04 -0.01,9.27 0.02,18.56 -0.02,27.86 -7.93,-0.05 -15.84,-0.03 -23.75,-0.02 12.4,39.57 24.49,79.25 37.01,118.79 6.71,-0.1 13.42,-0.06 20.15,-0.06 0.03,9.28 0.01,18.56 0.01,27.84 -24.99,0 -49.98,0 -74.96,0 0,-9.28 0,-18.56 0,-27.84 4.78,-0.01 9.58,-0.01 14.37,-0.01 -2.92,-10.75 -5.91,-21.48 -8.7,-32.24 -15.51,0.03 -31.01,-0.21 -46.49,0.12 -2.92,10.79 -6.44,21.4 -9.56,32.13 5.15,-0.01 10.32,-0.01 15.5,0 0,9.28 0,18.56 0,27.84 -22.26,0 -44.53,0 -66.79,0 -0.02,-9.28 -0.02,-18.56 0.01,-27.84 7.02,0 14.06,-0.01 21.09,0 11.45,-39.57 22.92,-79.14 34.25,-118.74 -7.69,0 -15.38,0 -23.07,0.01 -0.03,-9.28 0.03,-18.54 -0.05,-27.8zm36.09 90.06l0 0c10.81,0.02 21.64,0.28 32.45,-0.14 -5.44,-18.72 -10.05,-37.66 -15.63,-56.31 -6.06,18.67 -11.08,37.67 -16.82,56.45zm-482.37 118.86c21.11,-2.6 43.37,-1.1 62.83,8.06 22.68,10.88 39.71,32.87 44.47,57.58 4.53,23.44 0.23,49.16 -14.44,68.37 -12.9,17.91 -33.44,29.52 -55.19,32.61 -20.72,2.91 -42.55,2.06 -62.12,-5.86 -18.46,-7.43 -32.93,-22.74 -41.54,-40.42 -9.24,-19.57 -10.36,-42.59 -4.19,-63.21 6.89,-22.01 23.47,-40.99 44.69,-50.17 8.11,-3.56 16.73,-5.8 25.49,-6.96zm5.82 30.86l0 0c-13.97,3.85 -25.35,15.23 -29.75,28.96 -4.09,12.83 -4.69,26.73 -2.18,39.94 2.6,13.65 11.07,26.19 23.2,33.11 13.73,7.57 31.6,6.6 44.47,-2.33 7.6,-5.45 13.88,-12.99 16.95,-21.91 4.35,-12.32 5.12,-25.8 3.06,-38.64 -2.11,-13.14 -8.93,-25.89 -20.02,-33.53 -10.26,-7.17 -23.78,-8.86 -35.73,-5.6zm190.2 -30.84c23.87,-2.99 49.55,-0.61 70.44,12.2 17.44,11.16 30.96,28.87 35.9,49.12 6.44,26.03 1.47,55.48 -16.21,76.16 -13.83,17.38 -35.21,27.53 -57.07,29.79 -24.3,2.46 -50.57,0.1 -71.29,-13.94 -19.4,-13.64 -32.76,-35.82 -35.18,-59.46 -2.32,-19.98 1.87,-40.99 13.31,-57.7 13.3,-20.39 36.03,-33.55 60.1,-36.17zm5.54 30.89l0 0c-14.86,4.18 -26.48,16.95 -30.31,31.78 -3.5,13.46 -3.99,27.95 -0.24,41.41 3.36,12.38 11.83,23.32 23.2,29.33 12.01,6.12 26.93,6.01 38.91,-0.16 9.82,-5.18 17.62,-14.06 21.39,-24.52 4.48,-12.37 5,-25.91 3.11,-38.82 -2.13,-13.2 -9.1,-25.84 -20.17,-33.58 -10.33,-7.09 -23.91,-8.78 -35.89,-5.44zm-568.3 54.78l0 0c9.28,-0.04 18.57,-0.01 27.85,-0.01 -4.44,-16.06 -8.98,-32.11 -13.29,-48.2 -5.19,15.97 -9.66,32.15 -14.56,48.21z"/>
   <path class="fil3" d="M1095.46 676.01c11.49,-1.38 23.24,-1.07 34.78,-0.12 23.6,4.99 44.07,18.5 65.04,29.75 11.51,7.59 24.38,12.57 36.62,18.78l0 0.04c21.67,6.59 43.66,12.14 65.73,17.18 29.89,6.27 60.31,13.13 87.04,28.51 7.47,5.08 14.89,10.66 20.35,17.95 4.19,7.27 5.95,15.94 11.55,22.42 7.81,7.29 16.34,13.81 25.43,19.42 3.8,2.95 7.36,6.81 8.44,11.65 -0.62,3.53 -2.27,6.83 -4.36,9.71 -7.33,7.18 -15.45,13.79 -24.98,17.84 -7.11,4.19 -15.13,6.62 -23.43,6.5 -20.04,0.54 -40.24,-0.87 -59.74,-5.68 -8.2,-2.17 -16.7,-3.34 -24.55,-6.67 -12.04,-4.81 -24.14,-10.66 -37.33,-11 -15.58,-0.83 -30.58,4.35 -45.99,5.56 -7.32,0.8 -14.71,1.17 -22.04,0.29 -1.95,9.68 -2.87,20.62 2.46,29.42 5.09,7.66 11.73,14.4 19.68,19.08 12.26,7.36 25.09,13.96 36.24,23.02 4.08,3.32 7.72,7.24 10.46,11.74 8.05,13.09 16.06,27.03 17.19,42.7 0.33,8.88 0.65,17.99 -1.94,26.62 -0.54,1.97 -1.09,3.95 -1.59,5.95 -9.07,1.41 -18.9,-0.33 -26.28,-5.95 -15.76,-11.55 -22.48,-32.67 -40.68,-41.3 -11.86,-7.25 -25.81,-9.91 -37.75,-16.98 -12.94,-7.45 -27.34,-11.78 -40.48,-18.85 -20.3,-8.98 -26.83,-34.76 -48.46,-41.81 -2.4,5.92 -4.87,11.92 -5.71,18.31 -4.13,31.9 2.13,63.96 -0.66,95.94 1.75,1.59 3.51,3.2 5.36,4.7 9.52,5.35 20.46,7.01 30.43,11.23 7.64,2.58 13.18,10.52 12.6,18.64 -2.57,0.4 -5.07,0.86 -7.61,1.29 -23.47,4.9 -48.07,5.21 -71.55,0.25 -13.8,-4.78 -28.01,-11.04 -37.52,-22.56 -7.16,-10.18 -9.96,-22.67 -12,-34.75 -1.29,-9.65 -1.91,-19.35 -1.81,-29.08 0.34,-13.99 -1.72,-27.87 -3.02,-41.77 -0.91,-9.35 -5.14,-17.84 -9.61,-25.93 -8.13,-0.4 -16.12,-2.03 -24.22,-2.64 -8.08,6 -11.61,15.96 -12.78,25.6 -1.96,17 -3.3,34.1 -6.33,50.96 -2.03,10.32 -2.39,21.11 -0.22,31.43 2.27,10.5 11.8,17.24 20.96,21.58 8.82,3.78 18.43,8.04 23.57,16.62 1.68,3.19 3.04,8.64 -0.89,10.75 -5.43,2 -11.44,2.57 -17.13,1.35 -25.43,-3.99 -51.16,1.71 -76.61,-1.48 -3.4,-1.61 -6.97,-3.27 -9.29,-6.36 -5.85,-7.55 -10.11,-16.19 -13.39,-25.14 -6.72,-16.88 -12.33,-34.17 -18.37,-51.32 -5.9,-16.61 -11.94,-33.84 -23.19,-47.64 -14.68,0.86 -26.75,10.57 -37.97,19.15 -12.44,9.21 -23.7,19.87 -36.07,29.18 -10.23,7.95 -20.33,16.27 -28.69,26.23 -5.14,6.93 -9.22,15.67 -7.94,24.49 2.3,9.45 12.33,12.97 17.81,20.1 1.69,4.05 1.2,9.36 -3.47,11.16 -20.81,6.5 -42.56,0.86 -63.76,0.18 -5.33,-3.58 -7.61,-9.89 -10.09,-15.52 -3.95,-9.27 -4.6,-19.83 -10.2,-28.41 -3.83,-5.3 -2.46,-12.42 -1.91,-18.48 7.95,-14.68 17.44,-28.51 27.33,-41.96 6.55,-8.96 14.26,-17.02 20.87,-25.96 7.86,-12.17 8.92,-27.12 11.01,-41.07 1.47,-10.36 1.91,-20.84 3.44,-31.19 2.3,-11.65 3.79,-23.72 9.31,-34.41 5.45,-12.95 12.11,-25.35 19.92,-37.05 5.48,-8.07 11.28,-15.91 17.63,-23.31 7.16,-8.17 15.83,-14.76 24.21,-21.57 9.15,-7.25 19.76,-12.25 29.91,-17.86 11.46,-5.76 23.96,-9.04 36.21,-12.67 18.03,-4.87 36.87,-3.74 55.33,-4.61 32.2,-1.54 64.39,1.01 96.59,-0.37 29.61,-1.45 59.52,-3.34 88.11,-11.8zm-90.31 19.16l0 0c-22.53,0.41 -45.05,0.04 -67.57,-0.62 -34.22,-0.87 -69.75,-2.09 -102.31,10.21 -14.31,6.43 -28.9,12.99 -40.72,23.55 -32.12,26.52 -54.78,64 -64.83,104.32 -3.71,18.02 -4.01,36.5 -6.99,54.63 -1.4,14.24 -8.72,27.15 -17.25,38.32 -8.51,8.35 -16.41,17.29 -24.87,25.69 -9.36,10.73 -17.41,23.04 -20.63,37.09 1.98,4.03 4.86,7.57 6.46,11.79 4.87,10.27 6.17,21.72 10.23,32.3 11.53,5.08 24.31,6.77 36.82,6.4 6.53,-0.67 13.85,-0.45 19.18,-4.92 -12.78,-2.89 -25.6,-6.23 -37.69,-11.29 2.36,-6.47 5.61,-12.68 7.04,-19.45 0.58,-6.26 0.25,-12.57 -0.27,-18.8 5,-5.08 12.26,-6.5 18.17,-10.22 5.95,-3.72 12.36,-7.34 16.54,-13.18 2.95,-9.33 -2.08,-18.72 -3.46,-27.93 4.14,-4.04 7.88,-8.58 12.73,-11.8 10.87,-7.26 21.12,-15.37 31.59,-23.17 6.35,-5.66 12.29,-12.34 15.07,-20.53 4.34,-10.66 3.32,-22.95 -0.92,-33.48 16.28,-24.23 42.97,-38.38 61.7,-60.39 3.21,15.23 -4.2,29.68 -6.35,44.48 -1.41,8.4 3.62,16.43 9.76,21.72 8.52,6.72 20.1,6.44 30.24,4.57 12.44,-3.04 24.54,-8.24 37.48,-8.5 6.71,0.89 12.5,5.03 19.25,5.9 7.38,-2.37 14.34,-5.98 20.58,-10.56 7.58,-6.8 8.34,-17.73 14.01,-25.79 5.7,-9.72 12.15,-20.81 23.98,-23.63 2.75,9.37 -2.15,18.18 -6.35,26.21 -5.21,9.12 -4.16,20.18 -2.33,30.08 4.11,15.94 9.62,31.48 15.48,46.84 5.18,15.78 5.95,32.5 7.57,48.9 -0.16,17.91 1.12,35.87 4.2,53.54 1.77,7.21 4.5,14.34 9.16,20.21 7.78,12.06 21.78,18.25 35.55,20.31 16.54,2.08 33.36,2.41 49.89,0.09 -4.51,-3.56 -8.8,-7.41 -13.34,-10.94 -8.32,-6.83 -20.38,-8.76 -30.4,-4.79 -3.67,-6.24 -11.36,-8.47 -18.04,-9.76 -5.49,-0.72 -10.11,-4.11 -14.02,-7.79 2.04,-9.99 14.81,-9.93 19.01,-18.05 -4.5,-14.1 -8.83,-28.28 -12.22,-42.7 -3.19,-9.47 -6.94,-19.02 -13.24,-26.91 1.81,-11.27 11.73,-18.38 16.36,-28.22 2.35,-6.77 -6.44,-7.27 -10.7,-9.03 -2.85,-7.54 2.02,-15.36 7.29,-20.5 8.9,-8.98 22.04,-11.54 31.42,-19.84 -7.39,-6.92 -13.21,-17.92 -9.48,-28.04 6.57,-10.57 17.53,-17.19 26.76,-25.18 10.86,-9.57 23.09,-18.27 30.43,-31.08 2.25,-6.97 3.31,-14.4 6.53,-21.03 2.61,-4.17 6.44,-9.63 11.96,-9 5.39,5.63 6.37,14 12,19.48 4.94,0.03 9.9,-0.27 14.84,0.12 2.6,1.01 2.63,5.06 1.1,7.03 -2.54,4.71 -8.31,5.48 -12.01,8.86 -1.77,2.2 -1.9,5.11 -2.21,7.78 9.99,5.9 19.32,13.48 30.87,16.12 7.66,2.54 15.38,-1.01 22.28,-4.06 7.14,1.79 12.47,7.42 19.4,9.73 3.57,-0.55 6.77,-2.77 10.51,-2.6 14.3,-0.75 24.52,12.68 38.55,13.07 4.23,0.52 6.4,-3.76 9.07,-6.19 -4.39,-7.01 -13.73,-8.3 -18.01,-15.39 -3.16,-3.63 -1.27,-8.57 -0.95,-12.79 5.94,-1.64 12.38,-2.07 18.2,0.36 8.51,3.52 17.22,6.81 24.85,12.05 -4.16,2.1 -9.4,1.34 -13.18,3.92 8.58,8.89 9.57,22.33 18.02,31.31 4.14,5.44 12.48,7.58 18.44,3.93 8.23,-4.19 17.81,-7.84 27.07,-4.94 5.12,1.01 10.61,4.59 15.69,1.56 7.15,-3.27 12.27,-12.2 21.15,-10.48 0.3,9.6 -4.17,18.97 -1.48,28.47 -6.53,2.83 -13.55,4.79 -19.43,8.93 -2.93,1.67 -3.21,5.2 -3.94,8.14 14.82,1.59 29.9,2.51 44.62,-0.33 6.53,-1.5 12.13,-5.43 17.38,-9.42 -5.53,-12.7 -21.06,-16.93 -26.67,-29.63 -3.18,-8.18 -6.59,-16.4 -12.66,-22.92 -12.89,-13.76 -30.77,-21.26 -48.29,-27.24 -14.85,-5.82 -30.78,-7.79 -46.31,-11.03 -20.01,-3.56 -39.76,-8.32 -59.43,-13.36 -6.86,-1.82 -13.18,-5.07 -19.46,-8.28 -15.71,-7.33 -30.16,-16.91 -44.86,-26.01 -10.33,-6.82 -21.95,-11.28 -33.29,-16.09 -16.37,-5.38 -33.86,-5 -50.84,-3.78 -30.03,3.25 -59.12,13.11 -89.48,13.65z"/>
  </g>
 </g>
</svg>
