<?xml version="1.0" encoding="UTF-8"?>
<!DOCTYPE svg PUBLIC "-//W3C//DTD SVG 1.1//EN" "http://www.w3.org/Graphics/SVG/1.1/DTD/svg11.dtd">
<!-- Creator: CorelDRAW -->
<svg xmlns="http://www.w3.org/2000/svg" xml:space="preserve" width="2000px" height="1600px" version="1.1" style="shape-rendering:geometricPrecision; text-rendering:geometricPrecision; image-rendering:optimizeQuality; fill-rule:evenodd; clip-rule:evenodd"
viewBox="0 0 2000 1600"
 xmlns:xlink="http://www.w3.org/1999/xlink">
 <defs>
  <style type="text/css">
   <![CDATA[
    .fil6 {fill:#2B0046;fill-rule:nonzero}
    .fil2 {fill:#4D2470;fill-rule:nonzero}
    .fil3 {fill:#765F95;fill-rule:nonzero}
    .fil4 {fill:#784918;fill-rule:nonzero}
    .fil1 {fill:#B58236;fill-rule:nonzero}
    .fil5 {fill:#E9C14E;fill-rule:nonzero}
    .fil0 {fill:#FEFEFE;fill-rule:nonzero}
   ]]>
  </style>
 </defs>
 <g id="Capa_x0020_1">
  <metadata id="CorelCorpID_0Corel-Layer"/>
  <g id="Alcorn_x0020_State_x0020_Braves.cdr">
   <path class="fil0" d="M382.07 899.24c1.71,-3.59 3.78,-9.89 8.94,-8.16 4.53,3.36 5.9,9.43 7,14.7 -2.55,-3.34 -4.49,-7.27 -7.87,-9.87 -4.49,0.06 -5.95,5.07 -7.72,8.37 -18.71,45.23 -36.49,90.88 -55.71,135.92l-0.9 -1.56c18.69,-46.5 37.44,-92.96 56.26,-139.4zm215.63 205.33c-2.12,-8.04 -3.06,-16.48 -2.43,-24.76 0.14,7.35 0.73,14.77 2.71,21.89 1.26,4.47 5.63,7.29 9.84,8.66 12.56,3.87 25.84,2.93 38.8,3 5.85,0.17 11.61,-0.84 17.35,-1.92 12.69,-3.71 18.08,-17.1 19.53,-29.1 1.47,-0.22 2.95,-0.4 4.44,-0.57 0.41,1.85 0.83,3.71 1.28,5.59 -1.76,-0.4 -3.5,-0.78 -5.24,-1.13 -2.27,7.96 -3.92,16.59 -9.45,23.07 -6.35,6.62 -15.97,7.77 -24.63,8.47 -13.51,0.48 -27.22,0.54 -40.46,-2.46 -5.52,-1.18 -10.33,-5.17 -11.74,-10.74zm654.46 -72.21c10.93,1.77 21.98,1.73 33.02,1.52 19.38,25.25 36.06,52.53 56.85,76.72 -0.97,-0.12 -2.92,-0.39 -3.9,-0.51 -18.19,-21.59 -33.55,-45.35 -50.25,-68.06 -3.14,-4.83 -9.62,-4.29 -14.64,-4.38 -7.06,0.31 -14.18,-0.64 -21.15,0.77 0.02,-2.03 0.04,-4.05 0.07,-6.06zm-281.05 8.71c-2.16,-11.8 -4.05,-23.93 -2.47,-35.9 -0.53,11.91 0.98,23.8 3.64,35.4 6.95,33.28 30.41,64.73 63.97,74.42 22.4,6.31 48.74,5.03 67.4,-10.22 15.63,-12.29 24,-31.32 27.74,-50.43 0.08,8.1 -2.54,15.86 -5.31,23.38 -3.62,9.28 -8.52,18.27 -15.59,25.39 -1.33,1.34 -2.6,2.71 -3.91,4.06 -2.37,2.45 -5.07,4.65 -8.16,6.14 -26.78,14.8 -61.41,11.89 -86.22,-5.61 -22.37,-15.18 -35.19,-40.89 -41.09,-66.63zm-602.81 -19.5c4.21,-10.9 7.9,-22.03 12.45,-32.79l0.62 -0.15c4.05,10.96 7.9,22 12.02,32.93 -8.36,0.09 -16.73,0.07 -25.09,0.01zm948.45 -44.69c2.16,7.04 -0.45,14.39 -2.66,21.11 -4.12,11.31 -12.51,22.96 -25.28,24.7 -12.15,1.57 -24.61,0.31 -36.4,-2.92 -0.21,-2.37 -0.89,-4.85 0.26,-7.09l0.93 2.28c11.4,3.33 23.52,4.33 35.29,2.76 6.17,-0.81 11.48,-4.56 15.67,-8.96 7.84,-8.55 12.53,-20.24 12.19,-31.88zm174.4 -18.66c2.7,1.99 5.28,4.15 7.54,6.67 12.14,13.77 25.07,26.82 37.46,40.34 29.06,29.99 59.17,58.92 88.13,88.99 2.18,2.28 4.82,4.32 6.19,7.26 -0.48,0.36 -1.46,1.09 -1.94,1.44 -25.79,-25.68 -51.66,-51.3 -77.28,-77.15 -19.68,-19.56 -38.23,-40.19 -57.46,-60.15 -0.2,-0.31 -0.58,-0.9 -0.76,-1.2 -0.3,-0.51 -0.87,-1.55 -1.17,-2.06 -0.17,-1.03 -0.53,-3.11 -0.71,-4.14zm-142.89 22.51c4.15,-8.44 5.77,-17.81 7.03,-27.03 0.11,16.4 -5.07,32.75 -15.19,45.72 -6.73,8.94 -14.81,16.9 -23.43,24.02l-1.4 0.07c-0.32,-1.18 -0.62,-2.34 -0.88,-3.49 13.68,-10.65 26.3,-23.49 33.87,-39.29zm-967.65 -22.59c-1.64,-2.02 -0.35,-3.98 1.82,-4.64 8.77,27.2 20.16,53.57 28.59,80.87l-1.2 2.33c0.42,0.76 1.23,2.27 1.64,3.01 -19.83,0.98 -39.72,0.11 -59.58,0.36 -0.01,-1.6 -0.03,-3.2 -0.06,-4.77 19.34,0.03 38.68,-0.02 58.02,0.03 -6.93,-18.84 -13.85,-37.68 -20.79,-56.53 -2.65,-6.95 -4.61,-14.22 -8.44,-20.66zm873.97 -47.16c11.75,-1.98 24.52,-2.07 35.52,3.11 18.58,8.3 29.48,29.97 27.06,49.8 0,-16.5 -8.32,-33.29 -22.64,-41.91 -12.17,-7.6 -27.33,-8.19 -41.06,-5.39 -0.32,0.65 -0.99,1.96 -1.33,2.61 -0.25,-2.78 -1.71,-7.73 2.45,-8.22zm-232.43 -1.43c1.77,-0.69 3.59,-1.26 5.44,-1.76 1.43,-0.31 4.29,-0.96 5.72,-1.29 1.02,0.88 2.04,1.79 3.08,2.7 -4.74,0.14 -9.51,1.09 -14.24,0.35zm16.29 -3l-0.26 -0.41c10.46,-1.01 21.24,-1.63 31.47,1.34 18.08,4.63 33,17.47 43.46,32.57 11.86,17.41 18.13,38.1 20.6,58.89 0.3,8 0.81,16.01 0.93,24.01 -0.35,7.42 0.05,14.87 -0.65,22.27 -0.7,-20.77 1.53,-42.04 -4.41,-62.3 -7.78,-30.75 -28.27,-60.73 -59.36,-71.15 -7.26,-2.26 -14.8,-3.92 -22.43,-3.7 -2.94,-0.16 -6.08,0.37 -8.82,-0.84l-0.53 -0.68zm144.49 -4.95c8.01,-1.32 16.63,-1.18 24.17,2.1 5.99,2.86 7.11,10.04 7.42,15.98 0.86,19.28 -0.48,38.6 0.81,57.88 0.15,2.44 0,4.91 -0.47,7.34 -0.82,-20.06 0,-40.27 -0.62,-60.38 -0.33,-5.23 -1.03,-11.46 -5.83,-14.54 -6.59,-4.26 -14.72,-3.29 -22.14,-3.93 -2.31,-0.28 -2.59,-2.77 -3.34,-4.45zm435.66 -1.15c-0.18,-2.19 -0.06,-5.1 2.88,-5.02 17.01,-1.15 34.06,1.21 51.1,0.26 9.54,-0.04 19.34,-1.74 28.76,0.33 0.4,2.41 0.17,4.85 0.09,7.29 -4.83,-0.37 -9.64,-0.88 -14.35,-1.97 -5.78,-1.2 -11.67,-0.33 -17.48,-0.27 -16.89,0.33 -33.76,-0.79 -50.62,-0.62l-0.38 0zm-1092.79 -0.06c0.62,-1.74 0.2,-4.91 2.81,-4.93 9.8,-0.95 19.65,0.14 29.48,0.16 20.78,1.02 41.58,-0.7 62.37,-0.38 3.22,-0.77 5.58,3.69 2.61,5.46 -5.19,0.03 -10.39,0.17 -15.58,0.3 -7.68,-0.39 -15.34,0.01 -23.02,0.11 -19.56,0.4 -39.12,-0.71 -58.67,-0.72zm498.78 -7.34c16.17,-2.44 32.88,-3.48 49.08,-0.92 -11.93,1.43 -23.96,0.52 -35.9,1.43 -28.53,2.01 -56.6,13.87 -76.86,34.24 -16,16.44 -27.14,37.4 -32.38,59.69 -1.7,6.44 -2.29,13.11 -3.93,19.56 1.92,-26.55 10.77,-53.1 27.95,-73.72 17.8,-21.95 44.35,-35.79 72.04,-40.28zm-233.44 0.58c38.23,-6.33 77.37,-1.62 114.9,6.49 1.71,1.19 1.1,3.66 1.73,5.42 -17.74,-2.9 -35.33,-6.92 -53.28,-8.32 -28.33,-2.22 -57.62,-2.02 -84.77,7.32 -29.31,10.03 -54.51,32.18 -66.95,60.71 -6.54,14.21 -9.12,29.74 -10.88,45.16 0.58,-26.99 8.8,-54.33 26,-75.45 18.06,-22.43 45.02,-36.68 73.25,-41.33z"/>
   <path class="fil1" d="M1101.61 1196.99c149.88,-0.03 299.76,0.03 449.65,-0.03 21.57,41.98 41.95,84.85 69.14,123.59 7.29,10.19 14.31,20.7 23.49,29.32 21.02,20.07 45.07,36.88 70.62,50.64 20.48,10.63 42.94,20.61 66.6,17.75 0.2,33.91 0,67.8 0.11,101.69 -248.1,0.08 -496.21,0.01 -744.31,0.03 -0.24,-37.4 -0.66,-74.82 -0.33,-112.24 26.46,-1.17 52.97,-1.7 79.36,-3.97 14.49,-1.32 29.4,-3.87 42.05,-11.49 6.41,-3.79 8.94,-11.35 9.53,-18.39 0.81,-11.46 0.75,-23.16 -2.37,-34.31 -7.11,-27.22 -20.65,-52.08 -31.64,-77.82 -10.62,-21.6 -21.56,-43.03 -31.9,-64.77zm551.11 -178.73c0.18,-20.35 -0.22,-40.81 0.63,-61.17 1.08,19.26 0,38.57 0.95,57.83 -0.39,0.82 -1.18,2.5 -1.58,3.34zm-650.02 -125.58c17.99,-6.1 37.11,-7.98 56,-7.18 31.75,0.21 64.39,10.1 88.43,31.45 20.25,17.72 32.61,43.37 36.19,69.88 4.52,33.28 -1.28,68.65 -19.64,97.16 -13.8,21.44 -34.46,38.3 -58.22,47.6 -27.59,11.07 -58.34,12.7 -87.4,7.35 -4.68,-0.9 -9.36,-1.92 -13.68,-3.93 11.04,0.44 21.43,5.36 32.59,4.68 13.45,-0.39 27.13,0.59 40.37,-2.36 20.69,-2.29 40.36,-11.35 56.62,-24.21 22.74,-18.08 37.78,-44.99 42.92,-73.45 3.13,-15.43 2.94,-31.27 1.99,-46.91 -2.58,-25.31 -12.45,-50.82 -31.43,-68.34 -19.33,-19.85 -46.83,-29.07 -73.78,-32.29 -16.2,-2.56 -32.91,-1.52 -49.08,0.92 -27.69,4.49 -54.24,18.33 -72.04,40.28 -17.18,20.62 -26.03,47.17 -27.95,73.72 -2.97,8.07 0.07,16.48 0.03,24.77 3.81,36.09 23.11,71.42 54.52,90.58 7.75,5.46 17.04,7.96 25.24,12.61 -19.12,-4.83 -36.61,-15.72 -50.47,-29.64 -42.18,-42.74 -47.79,-115.2 -14.63,-164.86 14.83,-22.6 37.65,-39.72 63.42,-47.83zm-208.33 -423.57c63.77,-129.65 127.2,-259.49 191.06,-389.1 17.54,0.08 35.09,-0.13 52.63,0.11 126.32,251.24 253.18,502.24 379.46,753.53 -144.52,-0.05 -289.03,0.02 -433.55,-0.05 -24.58,-53.8 -49.23,-107.57 -73.75,-161.41 -9.98,17.21 -18.45,35.26 -27.84,52.79 -18.84,36.23 -37.5,72.57 -56.48,108.72 -70.07,-0.14 -140.13,-0.05 -210.2,-0.05 59.28,-121.63 119.22,-242.97 178.67,-364.54zm176.2 -335.33l0 0 -0.17 -0.22c-28.93,60 -58.59,119.65 -87.85,179.5 -83.22,170.04 -166.97,339.85 -249.98,510 12.68,0 25.37,-0.03 38.05,0l0.24 -0.51c37.04,0.53 74.11,-0.09 111.17,0.3 12.62,0.32 25.26,0.21 37.88,0.06 15.39,-30.36 31.44,-60.38 46.94,-90.68 14.7,-27.97 28.96,-56.19 43.99,-83.97 26.4,58.35 53.19,116.52 79.79,174.77 13.26,-0.01 26.53,0.3 39.79,-0.15 112.6,-0.56 225.22,-0.03 337.82,-0.39 10.62,1.44 21.55,0.14 32.29,0.62 -47.73,-95.5 -96.11,-190.66 -143.94,-286.09 -56.09,-110.71 -111.42,-221.82 -167.75,-332.4 -18.7,-38.08 -38.33,-75.7 -56.92,-113.84 -13.44,-0.89 -26.87,0.64 -40.3,0.11 -6.93,14.33 -13.96,28.64 -21.05,42.89zm-586.16 752.26c3.74,-1.07 8.42,-1.26 11.52,1.52 4.4,3.91 6.26,9.71 8.59,14.93 25.59,62.04 50.18,124.51 76.12,186.41 4.29,9.19 8.41,19.09 16.4,25.74 7.52,6.08 18.95,0.64 26.08,7.17 6.14,-4.32 13.95,-3.29 21.01,-4.52 4.63,-10.2 3.14,-21.77 4.5,-32.62 0.3,-50.24 0.04,-100.49 0.14,-150.72 0.14,-6.82 -1.07,-13.55 -1.6,-20.33 -6.32,-7.99 -17.75,-1.62 -25.09,-7.45 -5.22,-4.4 -3.26,-14.13 3.56,-15.68 7.14,-1.28 14.46,-0.69 21.67,-0.69 13.93,0.9 27.88,0.45 41.82,0.56 11.91,0.02 23.97,-1.88 35.77,0.25 6.47,1.87 8.15,10.9 3.24,15.28 -5.94,5.18 -14.34,1.87 -21.25,3.81 -4.89,1.37 -5.07,7.45 -5.26,11.63 -0.53,35.77 -0.15,71.56 -0.33,107.35 0.14,20.19 -0.38,40.42 0.69,60.59 0.82,4.47 0.5,9.69 3.65,13.31 6.05,4.4 13.95,3.89 21.04,4.65 11.36,0.34 22.91,0.92 34.1,-1.45 7.23,-1.43 12.08,-8.03 13.79,-14.86 1.68,-4.86 1.19,-11.3 6.28,-14.18 4.76,-3.34 12.12,-0.8 13.7,4.82 1.4,10.89 -0.67,21.77 -1.96,32.54 -1.34,6.61 -1.58,14.26 -6.53,19.39 -5.94,5.64 -14.83,4.65 -22.37,5.27 -19.7,-0.73 -39.42,-1.25 -59.15,-1.34 -18.58,-1.24 -37.23,-1.29 -55.81,-0.12 -8.55,-0.1 -18.21,2.22 -25.39,-3.77 -3.98,2.62 -8.58,4.17 -13.37,4 -22.01,-0.02 -44.04,0.3 -66.04,-0.65 -5.14,-0.58 -12.03,-0.49 -14.56,-5.99 -1.87,-5.32 1.36,-10.37 6.17,-12.54 -7,-20.14 -15.56,-39.71 -22.76,-59.76 -19.43,-0.75 -38.88,-0.11 -58.33,-0.36 -1.96,0.36 -5.29,-0.84 -6.08,1.74 -4.97,11.74 -9.36,23.74 -14.19,35.55 -2.76,7.12 -5.86,14.49 -5.27,22.3 6.7,1.05 15.54,-1.48 20.28,4.79 2.32,5.45 0.3,12.98 -6.09,14.42 -7.56,1.09 -15.28,0.37 -22.88,0.11 -18.75,-1.72 -37.53,1.65 -56.26,0.05 -8.26,-0.94 -10.72,-13.5 -3.66,-17.52 6.69,-2.71 14.46,-0.59 21.07,-3.67 7.18,-4.11 10.57,-12.1 13.71,-19.34 26.75,-65.98 53.37,-132.02 80.14,-197.98 2.13,-4.73 4.29,-10.15 9.19,-12.64zm-2.34 13.2l0 0c-18.82,46.44 -37.57,92.9 -56.26,139.4l-0.6 -1.03c-6.75,16 -12.86,32.25 -19.58,48.26 -4.49,10.4 -7.85,21.76 -15.78,30.19 -6.51,6.17 -15.6,7.18 -24.17,7.04 -6.3,-0.06 -3.23,9.52 1.65,8.94 12.98,-0.32 26.07,0.73 38.94,-1.2 11.83,1.67 23.88,1.31 35.77,0.95 0.44,-0.57 1.31,-1.74 1.74,-2.31 0.92,-1.48 1.48,-3.11 1.71,-4.93 -7.63,-1.04 -18.06,1.38 -22.18,-7.14 -0.06,0.84 -0.19,2.51 -0.26,3.33 -0.66,-3.27 -0.58,-6.62 0.07,-9.87 0.25,1.6 0.53,3.22 0.86,4.85 0.77,-4.43 1.68,-8.85 3.37,-13 5.83,-14.88 11.55,-29.78 17.49,-44.6 0.67,-2.91 4.2,-2.18 6.36,-2.41 21.28,0.17 42.56,-0.09 63.83,0.17 3.53,2.89 4.43,7.51 6.05,11.55 4.09,11.34 8.91,22.37 12.98,33.71 1.91,6.71 3.96,13.41 7.14,19.66 -2.63,1.25 -5.59,2.04 -7.81,4.03 -1.65,2.73 0.22,5.5 2.21,7.41 3.78,1.65 7.88,2.34 12,2.2 23.79,0.01 47.6,0.82 71.36,-0.32 0.14,-1.67 0.28,-3.35 0.43,-5 0.07,-0.98 0.2,-2.95 0.28,-3.93 -2.55,-4.08 -6.64,-1.42 -9.68,0.35 -4.14,-0.52 -8.43,-0.7 -12.28,-2.41 -8.21,-3.31 -12.11,-11.86 -16.75,-18.78 -8.86,-17.67 -15.56,-36.31 -23.19,-54.53 -18.14,-43.19 -35.26,-86.8 -53.01,-130.14 -2.01,-4.74 -3.56,-9.76 -6.75,-13.9 -1.1,-5.27 -2.47,-11.34 -7,-14.7 -5.16,-1.73 -7.23,4.57 -8.94,8.16zm143.73 1.15l0 0c1.32,3.82 5.92,2.36 8.94,2.92 7.69,-0.11 17.66,2.83 19.07,11.62 1.62,12.93 0.25,26.05 1.14,39.06 -0.98,46.66 -0.08,93.39 -0.72,140.04 -1.62,8.54 -0.51,17.93 -5.19,25.61 -4.63,4.36 -11.74,2.7 -17.54,3.4 -3.59,-0.51 -5.42,5.85 -1.55,6.73 0.46,1.88 0.42,5.07 3.29,4.71 13.96,0.5 27.94,-0.43 41.92,-0.4 29.05,-0.1 58.06,1.94 87.12,1.91 6.49,-0.23 13.48,0.79 19.55,-2.07 4.36,-3.51 4.31,-9.84 5.43,-14.86 0.93,-10.03 3.48,-20.13 1.89,-30.19l0.07 -1.51c-0.45,-1.88 -0.87,-3.74 -1.28,-5.59 -1.49,0.17 -2.97,0.35 -4.44,0.57 -1.45,12 -6.84,25.39 -19.53,29.1 -5.74,1.08 -11.5,2.09 -17.35,1.92 -12.96,-0.07 -26.24,0.87 -38.8,-3 -4.21,-1.37 -8.58,-4.19 -9.84,-8.66 -1.98,-7.12 -2.57,-14.54 -2.71,-21.89 1.32,-10.25 0.53,-20.62 0.64,-30.92 -1.74,-11.31 -0.98,-22.73 -1.12,-34.1 0,-19.18 0.09,-38.36 -0.17,-57.55 0.4,-7.97 -0.84,-16.07 0.96,-23.94 -0.31,15.48 0.1,30.98 -0.26,46.47 -0.23,2.24 1.94,2.25 1.68,0 -0.44,-16.37 0.46,-32.76 -0.75,-49.1 0.42,-7.02 -0.34,-15.22 4.54,-20.94 5.49,-4.24 12.81,-4.74 19.51,-4.54 1.8,-0.2 4.12,0.44 5.37,-1.3 -0.38,-1.43 -1.25,-2.49 -2.6,-3.19 2.97,-1.77 0.61,-6.23 -2.61,-5.46 -20.79,-0.32 -41.59,1.4 -62.37,0.38 -9.83,-0.02 -19.68,-1.11 -29.48,-0.16 -2.61,0.02 -2.19,3.19 -2.81,4.93zm276.72 -14.12c25.68,-1.77 51.61,-1.18 77.03,3.14 7.96,1.23 15.76,3.39 23.78,4.15 5.57,0.16 10.92,5.01 10.73,10.72 -2.69,17.48 -1.45,35.3 -2.95,52.9 -0.28,4.23 -2.05,9.39 -6.49,10.8 -3.77,0.42 -8.73,1.08 -11.11,-2.67 -3.75,-4.82 -2.15,-11.22 -3.47,-16.76 -2.49,-9.22 -7.97,-18.05 -16.49,-22.76 -15.39,-9.09 -33.64,-11.16 -51.15,-12.14 -14.22,0.76 -28.98,2.35 -41.6,9.48 -18.92,10.47 -30.94,30.5 -34.98,51.37 -4.43,22.41 -4.52,46.26 3.13,68.01 7.72,23.32 22.65,45.1 44.32,57.4 11.64,6.54 24.97,10.3 38.36,10.01 14.65,-0.05 30.26,0.59 43.53,-6.64 9.89,-5.46 16.64,-15.65 19.08,-26.57 0.87,-3.6 2.18,-7.55 5.66,-9.45 5.77,-3.79 14.61,1.17 14.19,8.12 0.53,11.44 -2.38,22.68 -4.1,33.93 -1.74,8.12 -2.55,18.25 -10.53,22.89 -9.23,5.07 -19.9,6.25 -30.14,7.89 -30.78,3.14 -62.43,2.66 -92.31,-6.11 -27.02,-7.97 -52.19,-24.01 -68.75,-47.07 -15.76,-21.61 -23.08,-48.72 -22.71,-75.3 -0.72,-22.17 5.1,-44.45 15.86,-63.79 13.49,-23.74 35.55,-42.3 60.97,-52.14 12.82,-5.12 26.47,-7.81 40.14,-9.41zm-11.38 7.36l0 0c-28.23,4.65 -55.19,18.9 -73.25,41.33 -17.2,21.12 -25.42,48.46 -26,75.45 -0.96,5.86 -0.95,11.85 0.13,17.71 1.47,14.03 4.35,28.13 10.55,40.9 13.33,29.68 40.69,51.8 71.39,61.64 22.51,7.66 46.5,9.73 70.14,8.94 17,-0.11 34.47,-1.29 50.51,-7.37 7.88,-2.93 8.18,-12.45 9.77,-19.4 2.02,-11.49 5.45,-23.24 3.4,-34.95l1.76 0.34c-0.22,-1.96 -0.44,-3.92 -0.66,-5.86 -2.11,0.09 -5.65,-0.73 -5.73,2.39 -2.24,13.02 -10.08,24.94 -21.13,32.15 -9.86,6.36 -21.81,7.74 -33.24,8.71 -10.35,0.37 -20.86,0.68 -31.01,-1.79 -27.08,-6.17 -51.04,-24.27 -64.92,-48.25 -10.2,-16.79 -14.24,-36.4 -15.91,-55.72 -0.84,-8.3 -0.77,-16.73 0.95,-24.94 0.31,0.81 0.95,2.41 1.26,3.21 1.31,-19.09 8.61,-37.97 21.19,-52.49 14.32,-16.18 36.02,-24.67 57.44,-24.51 18.38,-0.8 37.21,1.18 54.14,8.78 10.96,4.65 20.38,13.37 24.51,24.7 3.3,6.67 2.3,14.29 4.32,21.29 0.84,0 2.54,0 3.39,0 1.28,-2.9 2.3,-6.04 0.87,-9.07 1.34,-17.07 -0.4,-34.35 2.76,-51.28 -0.63,-1.76 -0.02,-4.23 -1.73,-5.42 -37.53,-8.11 -76.67,-12.82 -114.9,-6.49zm677.64 -5.21c2,-3.27 6.21,-3.25 9.6,-2.91 7.29,1.39 11.26,8.55 16.19,13.43 28.07,29.45 56.32,58.71 85.08,87.48 14.6,14.43 28.93,29.12 42.97,44.09 7.93,7.87 15.11,16.51 23.57,23.83 0.26,-20.94 -1.68,-41.85 -1.43,-62.79 0.42,-20.77 -1.5,-41.49 -1.5,-62.26 -0.1,-5.77 0.14,-12.13 -3.26,-17.08 -6.87,-6.67 -17.97,0.06 -25.2,-5.85 -3.5,-2.58 -3.64,-7.53 -2.49,-11.32 1.65,-3.5 5.6,-5.02 9.27,-5.1 13.93,-0.91 27.86,0.75 41.8,0.42 12.44,0.28 24.92,-1.65 37.34,-0.11 6.5,0.61 10.31,9.05 6.02,14.17 -4.18,5.87 -12.17,4.08 -18.33,4.94 -5.71,1.73 -5.75,8.83 -6.28,13.71 -0.06,23.85 -0.67,47.68 -1.63,71.5 0.31,26.86 -0.44,53.71 -1.32,80.54 -0.78,18.28 0.59,36.64 -0.97,54.88 -0.22,4.27 -2.87,7.71 -5.66,10.71 -4.46,0.3 -9.46,0.89 -13.15,-2.18 -9.99,-7.54 -18,-17.33 -27.31,-25.66 -24.29,-24.38 -48.43,-48.93 -72.87,-73.16 -20.75,-20.37 -40.49,-41.71 -60.52,-62.76 -0.65,22.48 1.03,44.91 1.48,67.39 -0.23,18.16 0.82,36.3 1.62,54.43 0.66,5.78 1.01,12.29 4.78,17 7.25,4.36 17.09,0.11 24.1,5.2 5.32,4.93 2.43,14.98 -4.97,15.98 -15.16,1.72 -30.49,-0.22 -45.69,-0.3 -11.99,0.66 -23.98,1.28 -35.96,0.76 -3.84,0.02 -6.69,-2.75 -9.5,-4.94 -3.02,2.46 -6.33,5.19 -10.46,5.02 -11.97,0.16 -23.94,0 -35.92,0.07 -11.75,0.04 -24,-1.7 -34.15,-8.01 -11.33,-6.89 -20.07,-17.15 -28.28,-27.38 -15.65,-19.73 -29.32,-40.93 -44.46,-61.05 -7.71,0.28 -15.41,-0.51 -23.1,0.08 0.2,17.57 -0.51,35.17 0.87,52.72 0.61,7.41 -0.98,16.46 4.29,22.45 7.37,2.37 15.65,0.77 23.05,3.31 6.81,3.95 5.01,16.12 -3.18,17.25 -20.85,2.13 -41.88,-1.35 -62.79,0.05 -9.38,0.54 -18.75,0.73 -28.13,0.51 -3.91,-0.11 -8.11,-1.92 -10.04,-5.47 -2.17,-4.46 -0.57,-10.85 4.4,-12.61 5.41,-1.58 11.15,-1.4 16.71,-2.07 2.01,-4.36 3.05,-9.07 3.33,-13.86 1.71,-12.95 1.1,-26.03 1.21,-39.04 -0.04,-46.62 0.11,-93.26 -0.07,-139.88 -0.67,-4.98 0.1,-12.98 -6.25,-14.38 -6.8,-2.61 -14.74,0.7 -21.1,-3.36 -6.13,-3.87 -4.84,-14.97 2.64,-16.37 16.48,-2.02 33.1,0.56 49.64,-0.08 25.42,0.7 51.16,-3.03 76.32,1.9 12.5,2.66 24.79,7.82 34.31,16.49 10.71,10.79 17.16,25.55 18.15,40.69 0.78,18.5 -5.64,36.97 -17.19,51.39 -6.14,8.04 -13.57,14.93 -20.89,21.84 18.87,23.84 37.4,48 57.78,70.57 9.03,10.32 19.81,20.19 33.39,23.75 6.57,2.02 15.22,-0.31 19.45,6.39 5.93,-7.21 15.84,-4.26 23.79,-6.39 2.53,-1.51 2.92,-4.74 3.32,-7.37 2.94,-25.79 0.97,-51.78 1.95,-77.66 -0.45,-10.95 1.09,-21.85 0.68,-32.77 1.31,-30.54 -0.08,-61.12 1.35,-91.65 0.27,-6.42 -0.56,-13.65 3.6,-19.12zm3.04 8.16l0 0c-0.18,9.34 -0.74,18.66 -1.43,27.98 -0.46,27.97 0.08,55.95 -0.43,83.94 -2.46,19.06 -1,38.35 -1.43,57.53 -0.45,12.91 1.13,25.96 -1.32,38.74 -0.32,5.21 -0.24,11.18 -4.5,14.97 -5.98,3.91 -13.38,2.79 -20.11,3.49 -3.11,1.05 -2.16,4.63 -2.66,7.13 8.75,3.47 18.42,0.87 27.59,1.6 6.27,0.66 12.44,-2.08 18.66,-0.56 10.29,1.12 20.69,0.25 31.03,0.7 3.23,-0.42 7.85,1.2 9.54,-2.56 1.68,-1.57 2.51,-5.19 -0.71,-5.32 -8.13,-1.44 -18.91,1.04 -24.36,-6.84 -7.05,-13.41 -5.48,-29.05 -5.94,-43.67 -1.56,-18.56 -0.28,-37.22 -0.98,-55.81 -2.24,-17.32 -1.48,-34.88 -0.98,-52.28 19.23,19.96 37.78,40.59 57.46,60.15 25.62,25.85 51.49,51.47 77.28,77.15l-0.97 0.56c7.39,7.08 14.41,14.51 21.78,21.61 5.54,4.95 10.17,11.35 17.17,14.38 3.43,0.95 4.96,-2.87 6.93,-4.83 -2.22,-16.56 -0.54,-33.3 -0.7,-49.94 1.21,-29.53 1.63,-59.1 1.43,-88.67 1.07,-24.36 1.07,-48.74 1.73,-73.11 0.52,-8.23 2.47,-18.26 11.17,-21.58 4.71,1.09 9.52,1.6 14.35,1.97 0.08,-2.44 0.31,-4.88 -0.09,-7.29 -9.42,-2.07 -19.22,-0.37 -28.76,-0.33 -17.04,0.95 -34.09,-1.41 -51.1,-0.26 -2.94,-0.08 -3.06,2.83 -2.88,5.02l0.38 0 0.67 2.3c7.85,1.29 17.13,-1.01 23.78,4.42 6.5,5.3 5.71,14.41 5.69,21.92 -0.79,14.63 2.11,29.12 1.4,43.76 0.45,18.59 -1.2,37.31 1.4,55.8 0.4,13.08 -0.31,26.21 0.23,39.3 -11.8,-10.97 -22.17,-23.34 -33.62,-34.66 -14.03,-13.99 -27.19,-28.79 -41.39,-42.59 -17.5,-17.26 -34.68,-34.86 -52.05,-52.29 -12.03,-11.78 -22.83,-24.71 -34.99,-36.39 -4.48,-3.93 -7.71,-9.89 -13.79,-11.5l-0.99 -1.42c-1.73,2.18 -3.78,4.46 -3.49,7.48zm-288.89 5.02l0 0c0.75,1.68 1.03,4.17 3.34,4.45 7.42,0.64 15.55,-0.33 22.14,3.93 4.8,3.08 5.5,9.31 5.83,14.54 0.62,20.11 -0.2,40.32 0.62,60.38 -0.6,13.51 0.14,27.08 -0.15,40.62 0.45,10.43 -1.85,20.75 -1.14,31.2 -0.5,16.03 1.26,32.23 -1.44,48.12 -0.14,5.41 -1,11.1 -4.4,15.5 -5.68,2.95 -12.22,2.17 -18.35,2.98 -5.32,2.63 -0.04,10.03 4.57,8.75 12.95,-0.39 26,0.67 38.84,-1.21 4.64,0.43 9.28,1.4 14,1.1 11.43,-0.39 22.89,0.61 34.28,-0.15 0.47,-0.56 1.4,-1.68 1.85,-2.24 3,-0.5 4.22,-5.11 0.5,-5.41 -7.23,-1.24 -14.97,0.05 -21.81,-3.13 -3.7,-1.92 -4.99,-6.12 -6.34,-9.73l-1.43 0.25c-2.52,-16.52 -1.06,-33.38 -1.82,-50.03 -0.53,-7.69 -0.14,-15.4 0.07,-23.1 6.97,-1.41 14.09,-0.46 21.15,-0.77 5.02,0.09 11.5,-0.45 14.64,4.38 16.7,22.71 32.06,46.47 50.25,68.06 0.94,3.73 4.07,6.16 6.71,8.72 6.24,5.82 13.34,10.92 21.49,13.67 10.52,3.65 21.85,2.69 32.82,2.81 8.79,-0.19 17.64,0.36 26.44,-0.2 3.06,0.36 3.75,-3.47 3.68,-5.69 0.16,-1.87 1.4,-4.46 -1.18,-5.12 -5.73,-1.02 -11.67,-0.9 -17.18,-3 -15.82,-5.42 -27.64,-18.03 -38.24,-30.4 -18.24,-20.79 -35.27,-42.58 -52.41,-64.29 -0.96,-1.33 -2.16,-2.39 -3.59,-3.15 8.62,-7.12 16.7,-15.08 23.43,-24.02 10.12,-12.97 15.3,-29.32 15.19,-45.72 0.19,-15.94 -6.72,-32.25 -18.98,-42.58 -16.08,-12.27 -37.17,-15.43 -56.9,-15.18 -25.37,0.25 -50.74,0.69 -76.11,0.1 -5.73,-0.02 -11.48,-0.45 -17.18,0.18 -3.17,-0.32 -2.63,3.44 -3.19,5.38zm-147.81 9.36c11.66,-2.78 23.4,0.33 35.1,0.81 31.09,10.42 51.58,40.4 59.36,71.15 5.94,20.26 3.71,41.53 4.41,62.3 0.7,-7.4 0.3,-14.85 0.65,-22.27 2.55,4.56 1.29,10.08 1.67,15.09 -1.57,21.87 -6.44,44.6 -20.23,62.24 -1.57,1.4 -2.97,4.62 -5.59,2.83 7.07,-7.12 11.97,-16.11 15.59,-25.39 2.77,-7.52 5.39,-15.28 5.31,-23.38 -3.74,19.11 -12.11,38.14 -27.74,50.43 -18.66,15.25 -45,16.53 -67.4,10.22 -33.56,-9.69 -57.02,-41.14 -63.97,-74.42 0.34,-9.86 -3.08,-19.33 -3.02,-29.18 -0.48,-25.15 2.6,-51.97 17.62,-73.01 10.9,-15.88 29.36,-25.23 48.24,-27.42zm-2.21 3.41l0 0c-15.89,1.95 -31.36,9.77 -40.79,22.94 -13.96,18.95 -17.85,43.41 -17.62,66.43 -0.52,28.53 6.86,58.34 25.5,80.54 15.03,18.08 38.37,28.59 61.83,28.47 18.14,0.43 36.55,-7.91 47.4,-22.62 11.64,-15.33 16.1,-34.75 17.78,-53.57 0.41,-15.13 1.18,-30.47 -1.94,-45.38 -3.97,-20.9 -12.97,-41.43 -28.55,-56.28 -16.52,-16.2 -40.77,-23.81 -63.61,-20.53zm99.22 131.87l0 0c-1.08,1.74 -1.81,6.05 0.48,6.86 1.07,-1.77 1.64,-6.05 -0.48,-6.86zm121.33 -129.65c13.73,-2.8 28.89,-2.21 41.06,5.39 14.32,8.62 22.64,25.41 22.64,41.91 -0.42,4.31 -0.75,8.65 -0.41,12.99 0.34,11.64 -4.35,23.33 -12.19,31.88 -4.19,4.4 -9.5,8.15 -15.67,8.96 -11.77,1.57 -23.89,0.57 -35.29,-2.76l-0.93 -2.28c-0.65,-4.48 -0.62,-9.02 -0.62,-13.51 0.12,-26.66 -0.03,-53.32 0.08,-79.97 0.34,-0.65 1.01,-1.96 1.33,-2.61zm4.67 1.94l0 0c0.39,29.96 -0.08,59.93 0.2,89.87 -0.05,3.63 4.86,2.68 7.21,3.36 10.73,0.53 23.79,3.31 32.32,-5.03 10.42,-9.77 13.42,-24.91 13,-38.65 0.53,-16.93 -5.64,-35.79 -20.62,-45.15 -9.54,-6.2 -21.32,-4.97 -32.11,-4.4zm-877.52 39.61c3.83,6.44 5.79,13.71 8.44,20.66 6.94,18.85 13.86,37.69 20.79,56.53 -19.34,-0.05 -38.68,0 -58.02,-0.03 9,-25.92 19.06,-51.51 28.79,-77.16zm-2.45 22.64l0 0c-5.79,16.1 -12.13,31.99 -17.88,48.1 13.7,0.23 27.39,0.25 41.09,-0.02 -6.5,-18 -13.17,-35.94 -19.68,-53.93 -1.67,1.6 -2.83,3.64 -3.53,5.85zm110.17 216.18c70.78,0.22 141.55,-0.31 212.31,0.27 -9.06,19.85 -18.81,39.37 -28.21,59.07 -6.64,13.95 -10.78,28.89 -15.53,43.55 -6.13,19.26 -10.62,39.78 -7.42,60.02 2.43,14.6 15.28,24.39 28.3,29.47 14.13,5.38 28.51,10.69 43.62,12.52 15.3,1.96 30.75,2.08 46.15,2.28 0.36,38.57 0.39,77.14 1.36,115.68 -183.37,0.36 -366.75,0.05 -550.12,0.16 -0.01,-27.95 0,-55.91 -0.01,-83.86 38.35,-1.72 75.54,-13.41 110.76,-28.04 21.6,-9.7 43.8,-20.37 60.03,-38.07 40.48,-52.89 73.94,-111.22 98.76,-173.05zm6.67 10.85l0 0c-3.01,7.31 -6.51,14.41 -9.92,21.55 -23.83,49.05 -49.76,97.44 -82.5,141.21 -20.33,28.13 -53.91,41.19 -85.07,53.46 -28.12,11.3 -57.64,19.48 -87.96,21.7 -0.22,13.34 -0.26,26.69 0.22,40.05 0.22,7.97 -0.48,15.99 0.59,23.95l-0.31 0.24c176.07,-0.19 352.15,-0.19 528.22,0l-0.28 -0.39c-0.37,-31.76 -0.26,-63.55 -1.08,-95.32 -30.72,0.16 -62.42,-4.22 -89.94,-18.57 -13.12,-6.52 -23.95,-18.28 -27.25,-32.77 -5.01,-20.56 0.19,-41.71 5.44,-61.67 1.68,-3.35 2.49,-7.03 3.65,-10.56 9.58,-28.61 22.41,-55.97 35.35,-83.16 -12.91,0.07 -25.85,-0.25 -38.78,0.17 -36.75,0.22 -73.52,0.22 -110.29,0.11 -13.35,-0.35 -26.73,-0.35 -40.09,0zm623.48 -0.23l0 0c5.86,14.57 14.27,27.92 20.95,42.1 10.74,23.46 22.36,46.62 30.32,71.23 6,18.7 10.72,38.57 7.55,58.28 -1.94,7.39 -5.14,14.77 -10.99,19.92 -6.14,5.55 -14.19,8.14 -22.14,9.88 -31.97,7.14 -64.89,8.28 -97.53,8.79 0.99,24.22 0.22,48.47 0.46,72.71 0.28,6.37 -0.84,12.88 0.83,19.17l-0.38 0.24c241.02,-0.03 482.04,-0.2 723.07,0.1l-0.2 -0.2c0.94,-6.95 0.45,-13.95 0.54,-20.91 -0.03,-19.25 0.05,-38.48 -0.01,-57.71 0.69,-3.03 -3.33,-2.44 -4.96,-3.08 -26.12,-4.37 -50.19,-15.98 -73.38,-28.2l0.03 -0.78c-22.82,-13.63 -43.42,-30.79 -61.58,-50.15 -17.78,-18.39 -30.45,-40.82 -43.39,-62.68 -14.84,-25.88 -28.94,-52.2 -42.66,-78.71 -11.5,-0.14 -23,0.03 -34.49,-0.12l0.2 0.66c-39.8,-0.7 -79.64,-0.09 -119.46,-0.28 -72.02,0.14 -144.06,-0.04 -216.07,0.45l-0.27 -0.46c-18.79,-0.67 -37.63,-0.17 -56.44,-0.25z"/>
   <path class="fil2" d="M970.57 133.78c7.09,-14.25 14.12,-28.56 21.05,-42.89 13.43,0.53 26.86,-1 40.3,-0.11 18.59,38.14 38.22,75.76 56.92,113.84 0.41,11.98 0.1,23.96 0.07,35.93 0.03,2.99 0.08,6.1 1.41,8.86 15.41,31 30.18,62.33 45.24,93.5 66.99,138.03 133.78,276.16 200.97,414.08 10.89,21.67 20.97,43.75 31.71,65.5 -112.6,0.36 -225.22,-0.17 -337.82,0.39 -29.39,-55.36 -58.4,-110.96 -87.61,-166.42 -10.73,-19.65 -20.31,-39.96 -31.73,-59.22 -0.61,16.99 -0.27,34.02 -0.24,51.02 -15.03,27.78 -29.29,56 -43.99,83.97 -9.59,-1.6 -18.16,-8.1 -28.05,-7.54 -20.13,31.94 -37.92,65.42 -56.77,98.16 -37.06,-0.39 -74.13,0.23 -111.17,-0.3 101.23,-221.41 203.33,-442.44 303.91,-664.14 1.79,-4.51 5.04,-8.68 5.44,-13.59 -3.03,-3.84 -6.72,-7.1 -9.64,-11.04zm204.62 1074.51c72.01,-0.49 144.05,-0.31 216.07,-0.45 39.82,0.19 79.66,-0.42 119.46,0.28 6.17,19.09 15.03,37.19 23.69,55.26 13.71,27.34 29.21,53.86 47.29,78.56 28.81,39.76 65.42,75.11 110.33,95.97 0.89,-12.65 -0.21,-25.34 0.58,-38.01 23.19,12.22 47.26,23.83 73.38,28.2 1.63,0.64 5.65,0.05 4.96,3.08 0.06,19.23 -0.02,38.46 0.01,57.71 -0.09,6.96 0.4,13.96 -0.54,20.91 -9.44,-9.46 -17.94,-19.83 -27.49,-29.17 -1.62,-1.93 -4.23,-1.65 -6.42,-1.76 -168.95,0.3 -337.92,-0.34 -506.9,0.7 -17.25,-0.24 -34.55,0.75 -51.78,-0.62 3.73,-0.53 7.45,-1.16 11.16,-1.75 1.36,-13.16 1.26,-26.49 0.16,-39.65 -8.01,2.06 -15.49,5.71 -23.51,7.68 -24.36,6.27 -49.65,6.05 -74.54,8.18 -0.14,8.61 -0.25,17.24 0.23,25.87 -13.85,10.94 -29.01,20.13 -43.4,30.38 -1.67,-6.29 -0.55,-12.8 -0.83,-19.17 -0.24,-24.24 0.53,-48.49 -0.46,-72.71 32.64,-0.51 65.56,-1.65 97.53,-8.79 7.95,-1.74 16,-4.33 22.14,-9.88 5.85,-5.15 9.05,-12.53 10.99,-19.92 11.04,10.92 20.52,23.28 30.8,34.87 1.94,2.4 6.42,4.79 8.46,1.18 5.75,-10.3 8.9,-21.95 10.51,-33.59 3.4,-20.04 -0.98,-40.5 -7.57,-59.43 -12.52,-38.81 -27.74,-76.71 -44.31,-113.93zm-640.1 -0.48c36.77,0.11 73.54,0.11 110.29,-0.11 -9.98,25.95 -19.19,52.22 -26.23,79.13 -1.02,3.91 -1.3,7.95 -1.57,11.96 9.17,0.95 18.35,2.31 27.58,2.46 -5.25,19.96 -10.45,41.11 -5.44,61.67 3.3,14.49 14.13,26.25 27.25,32.77 27.52,14.35 59.22,18.73 89.94,18.57 0.82,31.77 0.71,63.56 1.08,95.32 -6.57,-9.07 -12.62,-18.49 -18.87,-27.77 -81.62,0.05 -163.22,-0.01 -244.83,0.33 -23.11,-0.02 -46.21,0.37 -69.29,-0.02 0.66,-10.18 -2.1,-20.28 -0.67,-30.42 1.26,-10.42 0.62,-20.91 -0.44,-31.28 -0.71,-6.9 2.38,-13.98 -0.48,-20.61 -8.53,10.6 -18.81,19.87 -30.84,26.35 -15.24,7.75 -30.75,15.31 -47.5,19.28 -26.22,7.07 -52.95,12.12 -79.65,17.03 -0.25,6.42 -0.28,12.86 -0.07,19.3 42.13,0.29 84.28,-0.03 126.41,-0.22 3.28,0.06 6.54,0.31 9.82,0.48 -4.85,0.28 -9.7,0.65 -14.56,0.62 -37.81,-0.26 -75.63,0.24 -113.44,-0.03 -3.5,0.09 -7.43,-0.32 -10.26,2.18 -10.99,8.3 -21.89,16.72 -32.96,24.93 -1.07,-7.96 -0.37,-15.98 -0.59,-23.95 -0.48,-13.36 -0.44,-26.71 -0.22,-40.05 30.32,-2.22 59.84,-10.4 87.96,-21.7 31.16,-12.27 64.74,-25.33 85.07,-53.46 11.3,2.47 20.97,9.48 32.1,12.21 7.91,-8.02 12.98,-18.28 19.23,-27.56 29.43,-47.79 55.38,-97.6 81.18,-147.41z"/>
   <path class="fil3" d="M970.4 133.56l0.17 0.22c2.92,3.94 6.61,7.2 9.64,11.04 -0.4,4.91 -3.65,9.08 -5.44,13.59 -100.58,221.7 -202.68,442.73 -303.91,664.14l-0.24 0.51c-12.68,-0.03 -25.37,0 -38.05,0 83.01,-170.15 166.76,-339.96 249.98,-510 29.26,-59.85 58.92,-119.5 87.85,-179.5zm195.24 1311.67c8.02,-1.97 15.5,-5.62 23.51,-7.68 1.1,13.16 1.2,26.49 -0.16,39.65 -3.71,0.59 -7.43,1.22 -11.16,1.75 -28.84,0.02 -57.66,0.05 -86.5,0.33 -0.48,-8.63 -0.37,-17.26 -0.23,-25.87 24.89,-2.13 50.18,-1.91 74.54,-8.18zm-773.07 -19.07c12.03,-6.48 22.31,-15.75 30.84,-26.35 2.86,6.63 -0.23,13.71 0.48,20.61 1.06,10.37 1.7,20.86 0.44,31.28 -1.43,10.14 1.33,20.24 0.67,30.42 -7.81,-0.28 -15.61,-0.15 -23.42,-0.09 -3.28,-0.17 -6.54,-0.42 -9.82,-0.48 -42.13,0.19 -84.28,0.51 -126.41,0.22 -0.21,-6.44 -0.18,-12.88 0.07,-19.3 26.7,-4.91 53.43,-9.96 79.65,-17.03 16.75,-3.97 32.26,-11.53 47.5,-19.28zm1117.95 -218.7c11.49,0.15 22.99,-0.02 34.49,0.12 13.72,26.51 27.82,52.83 42.66,78.71 12.94,21.86 25.61,44.29 43.39,62.68 18.16,19.36 38.76,36.52 61.58,50.15l-0.03 0.78c-0.79,12.67 0.31,25.36 -0.58,38.01 -44.91,-20.86 -81.52,-56.21 -110.33,-95.97 -18.08,-24.7 -33.58,-51.22 -47.29,-78.56 -8.66,-18.07 -17.52,-36.17 -23.69,-55.26l-0.2 -0.66zm-392.04 0.12c18.81,0.08 37.65,-0.42 56.44,0.25l0.27 0.46c16.57,37.22 31.79,75.12 44.31,113.93 6.59,18.93 10.97,39.39 7.57,59.43 -1.61,11.64 -4.76,23.29 -10.51,33.59 -2.04,3.61 -6.52,1.22 -8.46,-1.18 -10.28,-11.59 -19.76,-23.95 -30.8,-34.87 3.17,-19.71 -1.55,-39.58 -7.55,-58.28 -7.96,-24.61 -19.58,-47.77 -30.32,-71.23 -6.68,-14.18 -15.09,-27.53 -20.95,-42.1zm-473.1 0.12c12.93,-0.42 25.87,-0.1 38.78,-0.17 -12.94,27.19 -25.77,54.55 -35.35,83.16 -1.16,3.53 -1.97,7.21 -3.65,10.56 -9.23,-0.15 -18.41,-1.51 -27.58,-2.46 0.27,-4.01 0.55,-8.05 1.57,-11.96 7.04,-26.91 16.25,-53.18 26.23,-79.13zm-150.38 0.11c13.36,-0.35 26.74,-0.35 40.09,0 -25.8,49.81 -51.75,99.62 -81.18,147.41 -6.25,9.28 -11.32,19.54 -19.23,27.56 -11.13,-2.73 -20.8,-9.74 -32.1,-12.21 32.74,-43.77 58.67,-92.16 82.5,-141.21 3.41,-7.14 6.91,-14.24 9.92,-21.55zm343.8 -483.12c9.89,-0.56 18.46,5.94 28.05,7.54 -15.5,30.3 -31.55,60.32 -46.94,90.68 -12.62,0.15 -25.26,0.26 -37.88,-0.06 18.85,-32.74 36.64,-66.22 56.77,-98.16zm72.28 -127.45c11.42,19.26 21,39.57 31.73,59.22 29.21,55.46 58.22,111.06 87.61,166.42 -13.26,0.45 -26.53,0.14 -39.79,0.15 -26.6,-58.25 -53.39,-116.42 -79.79,-174.77 -0.03,-17 -0.37,-34.03 0.24,-51.02zm177.76 -392.62c56.33,110.58 111.66,221.69 167.75,332.4 47.83,95.43 96.21,190.59 143.94,286.09 -10.74,-0.48 -21.67,0.82 -32.29,-0.62 -10.74,-21.75 -20.82,-43.83 -31.71,-65.5 -67.19,-137.92 -133.98,-276.05 -200.97,-414.08 -15.06,-31.17 -29.83,-62.5 -45.24,-93.5 -1.33,-2.76 -1.38,-5.87 -1.41,-8.86 0.03,-11.97 0.34,-23.95 -0.07,-35.93z"/>
   <path class="fil4" d="M378.16 980.78c0.7,-2.21 1.86,-4.25 3.53,-5.85 6.51,17.99 13.18,35.93 19.68,53.93 -13.7,0.27 -27.39,0.25 -41.09,0.02 5.75,-16.11 12.09,-32 17.88,-48.1zm-54.85 136.63c4.12,8.52 14.55,6.1 22.18,7.14 -0.23,1.82 -0.79,3.45 -1.71,4.93 -5.23,0.01 -10.75,0.66 -15.76,-1.2 -3.17,-1.15 -4.74,-4.37 -4.97,-7.54 0.07,-0.82 0.2,-2.49 0.26,-3.33zm930.53 -5.86l1.43 -0.25c1.35,3.61 2.64,7.81 6.34,9.73 6.84,3.18 14.58,1.89 21.81,3.13 3.72,0.3 2.5,4.91 -0.5,5.41 -7.06,-0.3 -14.38,-0.16 -21.09,-2.57 -5.85,-2.78 -6.64,-9.88 -7.99,-15.45zm-155.42 1.76c3.09,-1.49 5.79,-3.69 8.16,-6.14 -0.59,3.88 -4.5,6.11 -8.16,6.14zm-409.27 -24.44c1.59,10.06 -0.96,20.16 -1.89,30.19 -1.12,5.02 -1.07,11.35 -5.43,14.86 -6.07,2.86 -13.06,1.84 -19.55,2.07 -29.06,0.03 -58.07,-2.01 -87.12,-1.91 -13.98,-0.03 -27.96,0.9 -41.92,0.4 -2.87,0.36 -2.83,-2.83 -3.29,-4.71 11.46,0.22 22.85,-1.71 34.32,-1.32 36.3,-0.61 72.57,2.35 108.87,1.49 4.36,-0.14 10.22,-0.95 11.27,-6.11 3.08,-11.36 4.06,-23.24 4.74,-34.96zm-270.81 -38.93c9.22,19.9 16.03,40.87 24.57,61.1 2.7,5.43 2.76,11.52 2,17.41 24.81,0.79 49.66,1.03 74.48,0.67 -0.15,1.65 -0.29,3.33 -0.43,5 -23.76,1.14 -47.57,0.33 -71.36,0.32 -4.12,0.14 -8.22,-0.55 -12,-2.2 2.25,-2.14 5.05,-3.45 7.96,-4.44 2.63,-10.78 -3.87,-20.37 -7.17,-30.15 -5.91,-15.95 -12.71,-31.57 -18.05,-47.71zm-72.88 0.73c23.18,-0.29 46.36,-0.03 69.56,-0.14 0,1.78 0,3.55 0.01,5.35 -21.27,-0.26 -42.55,0 -63.83,-0.17 -2.16,0.23 -5.69,-0.5 -6.36,2.41 -5.94,14.82 -11.66,29.72 -17.49,44.6 -1.69,4.15 -2.6,8.57 -3.37,13 -0.33,-1.63 -0.61,-3.25 -0.86,-4.85 1.23,-7.37 4.09,-14.32 6.84,-21.22 5.23,-12.97 10.28,-26 15.5,-38.98zm969.81 -27.16l1.4 -0.07c1.43,0.76 2.63,1.82 3.59,3.15 17.14,21.71 34.17,43.5 52.41,64.29 10.6,12.37 22.42,24.98 38.24,30.4 5.51,2.1 11.45,1.98 17.18,3 2.58,0.66 1.34,3.25 1.18,5.12 -7.65,-0.22 -15.51,-0.67 -22.59,-3.89 -11.31,-5 -20.61,-13.57 -28.77,-22.71 -19.76,-21.89 -37.58,-45.41 -56.01,-68.39 -2.72,-3.29 -5.69,-6.6 -6.63,-10.9zm-578.33 -13.66c1.67,19.32 5.71,38.93 15.91,55.72 13.88,23.98 37.84,42.08 64.92,48.25 10.15,2.47 20.66,2.16 31.01,1.79 11.43,-0.97 23.38,-2.35 33.24,-8.71 11.05,-7.21 18.89,-19.13 21.13,-32.15 0.08,-3.12 3.62,-2.3 5.73,-2.39 0.22,1.94 0.44,3.9 0.66,5.86l-1.76 -0.34c-0.78,-0.16 -2.35,-0.45 -3.12,-0.61 -2.45,7.03 -4.11,14.46 -8.23,20.77 -5.91,10.17 -16.2,17.4 -27.55,20.21 -13.09,3.31 -26.77,3.45 -40.18,2.91 -27.94,-2.44 -53.7,-18.56 -70.15,-40.96 -14.72,-20.23 -21.57,-45.51 -21.61,-70.35zm756.09 -45.43c0.18,0.3 0.56,0.89 0.76,1.2 -0.5,17.4 -1.26,34.96 0.98,52.28 0.7,18.59 -0.58,37.25 0.98,55.81 0.46,14.62 -1.11,30.26 5.94,43.67 5.45,7.88 16.23,5.4 24.36,6.84 3.22,0.13 2.39,3.75 0.71,5.32 -8.16,-0.19 -17.83,0.81 -24.37,-4.98 -6.24,-8.76 -6.11,-20.22 -7.03,-30.51 0.17,-16.11 -1.27,-32.17 -0.93,-48.27 -0.22,-11.99 0.66,-24.04 -1.03,-35.95 -1.09,-15.11 -0.3,-30.28 -0.37,-45.41zm-1110.6 -10.92c0.97,1.21 1.74,2.53 2.33,3.97 9.42,25.64 18.74,51.31 28.36,76.86 -0.53,0 -1.57,0.02 -2.1,0.04 -8.43,-27.3 -19.82,-53.67 -28.59,-80.87zm645.16 -45.71c3.41,-1.57 7.15,-2.27 10.85,-1.24l0.53 0.68c2.74,1.21 5.88,0.68 8.82,0.84 7.63,-0.22 15.17,1.44 22.43,3.7 -11.7,-0.48 -23.44,-3.59 -35.1,-0.81 -18.88,2.19 -37.34,11.54 -48.24,27.42 -15.02,21.04 -18.1,47.86 -17.62,73.01 -0.06,9.85 3.36,19.32 3.02,29.18 -2.66,-11.6 -4.17,-23.49 -3.64,-35.4 -0.18,-22.26 2.75,-45.29 13.87,-64.95 8.21,-14.72 22.17,-26.49 38.6,-30.81l1.04 0.14c4.73,0.74 9.5,-0.21 14.24,-0.35 -1.04,-0.91 -2.06,-1.82 -3.08,-2.7 -1.43,0.33 -4.29,0.98 -5.72,1.29zm-268.62 24.75c12.36,-15.34 31.5,-24.02 50.9,-25.7 22.15,-1.83 45.35,0.06 65.56,9.95 10.76,5.21 18.98,15.13 22.21,26.63 1.65,5.32 1.34,11.02 2.87,16.39 0.94,0.23 2.82,0.73 3.77,0.98 0.19,-1 0.55,-2.99 0.73,-3.97 1.43,3.03 0.41,6.17 -0.87,9.07 -0.85,0 -2.55,0 -3.39,0 -2.02,-7 -1.02,-14.62 -4.32,-21.29 -4.13,-11.33 -13.55,-20.05 -24.51,-24.7 -16.93,-7.6 -35.76,-9.58 -54.14,-8.78 -21.42,-0.16 -43.12,8.33 -57.44,24.51 -12.58,14.52 -19.88,33.4 -21.19,52.49 -0.31,-0.8 -0.95,-2.4 -1.26,-3.21 2.77,-18.75 8.61,-37.7 21.08,-52.37zm-151.48 -31.54c5.19,-0.13 10.39,-0.27 15.58,-0.3 1.35,0.7 2.22,1.76 2.6,3.19 -1.25,1.74 -3.57,1.1 -5.37,1.3 -6.7,-0.2 -14.02,0.3 -19.51,4.54 -4.88,5.72 -4.12,13.92 -4.54,20.94 1.21,16.34 0.31,32.73 0.75,49.1 0.26,2.25 -1.91,2.24 -1.68,0 0.36,-15.49 -0.05,-30.99 0.26,-46.47 0.61,-8.53 -0.6,-17.63 3.33,-25.56 1.54,-3.56 5.49,-4.91 8.58,-6.74zm466.17 -8.87c26.95,3.22 54.45,12.44 73.78,32.29 18.98,17.52 28.85,43.03 31.43,68.34 0.95,15.64 1.14,31.48 -1.99,46.91 -5.14,28.46 -20.18,55.37 -42.92,73.45 -16.26,12.86 -35.93,21.92 -56.62,24.21 -2.58,-1.31 -5.35,-1.95 -8.15,-2.44 26.4,-2.58 52.32,-13.36 71.35,-32.06 19.27,-18.28 31.6,-43.22 36.16,-69.26 4.64,-25.43 2.33,-52.68 -9.22,-76.03 -9.11,-18.49 -24.41,-33.6 -42.46,-43.36 -22.9,-12.56 -49.19,-17.57 -75.07,-18.41 -4.14,-0.29 -8.16,-1.37 -12.19,-2.21 11.94,-0.91 23.97,0 35.9,-1.43zm402.64 -1.61c6.08,1.61 9.31,7.57 13.79,11.5 12.16,11.68 22.96,24.61 34.99,36.39 17.37,17.43 34.55,35.03 52.05,52.29 14.2,13.8 27.36,28.6 41.39,42.59 11.45,11.32 21.82,23.69 33.62,34.66 0.58,0.56 1.71,1.69 2.29,2.25 0.43,-8.85 -0.17,-17.71 0.54,-26.52 0.14,10.74 0.34,21.48 0.09,32.21 -9.18,-6.76 -16.05,-16.09 -24.19,-24.02 -42.31,-44.68 -86.49,-87.55 -128.59,-132.44 -8.75,-9.54 -18.67,-18.14 -25.98,-28.91zm-1099.87 -7.78c5.02,-6.12 14.58,-7.6 21.24,-3.34 6.39,4.01 9.06,11.46 11.97,18.05 25.52,62.64 49.81,125.8 75.85,188.25 3.93,8.55 7.61,17.78 14.81,24.19 6.97,4.46 15.89,1.2 23.31,4.49 5.39,-1.85 11.11,-1.83 16.74,-2.25 2.53,-13.12 2.27,-26.56 2.41,-39.85 -0.06,-47.68 0.11,-95.37 -0.08,-143.05 -0.57,-4.48 0.84,-9.8 -1.83,-13.67 -6.56,-1.85 -13.96,0.14 -20.06,-3.48 -8.6,-4.42 -9.79,-17.99 -2.35,-24.02 4.76,-4.43 11.71,-4.4 17.8,-4.3 26.46,1.07 52.92,1.01 79.38,-0.04 5.97,-0.07 12.81,0.46 16.98,5.32 6.43,6.33 4.76,18.52 -3.11,22.9 -6.53,3.73 -14.38,2.11 -21.52,3.34 -1.68,16.02 -1.18,32.14 -1.24,48.21 0,29.52 0,59.03 0,88.57 0.17,15.53 -0.44,31.29 2.74,46.59 11.98,4.06 24.89,2.97 37.34,3.11 5.91,-0.45 12.53,-0.27 17.53,-3.97 7.36,-6.39 3.84,-18.33 11.45,-24.45 4.46,-3.95 10.8,-4.17 16.29,-2.66 -11.18,-24.95 -14.88,-53.18 -10.98,-80.22 4.05,-27.65 16.86,-54.27 37.35,-73.5 21.57,-21.09 50.99,-32.68 80.69,-35.99 32.34,-3.59 65.16,-0.82 96.93,5.79 6.11,1.22 13.22,0.77 18.1,5.34 4.4,3.59 6.06,9.67 5.18,15.18 -2.24,16.57 -1.56,33.31 -2.38,49.98 -0.5,5.53 -2.49,11.58 -7.54,14.58 -6.16,4.17 -15.19,3.09 -20.07,-2.57 -3.24,-3.7 -4.06,-8.73 -4.22,-13.46 -0.35,-11.16 -6.88,-22.24 -17.31,-26.75 -20.29,-9.61 -43.75,-11.26 -65.69,-7.51 -14.92,2.47 -28.55,11.08 -37.45,23.29 -12.2,16.4 -15.85,37.42 -16.1,57.42 -0.76,20.23 3.25,40.97 13.68,58.47 13.87,23.52 38.77,40.93 66.19,43.56 12.02,0.47 24.3,0.28 36.01,-2.77 9.61,-2.48 17.78,-9.51 21.69,-18.65 3.04,-5.58 2.51,-12.73 7.08,-17.49 6.04,-7.01 18.61,-6.51 23.82,1.21 3.79,5.32 3.37,12.22 2.52,18.36 -1.8,12.91 -3.47,25.89 -6.97,38.46 -1.64,6.17 -5.73,11.77 -11.58,14.57 -11.87,5.61 -25.15,7.1 -38.07,8.5 -32.41,2.38 -65.85,1.31 -96.68,-9.95 -26.18,-9.48 -49.7,-26.77 -65.34,-49.91 -0.47,13.49 -2.05,27.05 -5.05,40.23 -1.62,8.19 -8.32,15.11 -16.7,16.32 -15.41,2.24 -31.01,0.28 -46.51,0.61 -25.9,-0.31 -51.79,-2.6 -77.69,-1.17 -10.43,-0.14 -21.23,2.19 -31.28,-1.55 -4.13,0.25 -8.06,2.14 -12.28,2.02 -23.25,0.02 -46.51,0.26 -69.75,-0.64 -6.31,0 -13.73,-1.96 -16.71,-8.1 -3.78,-6.25 -1.08,-14 3.68,-18.84 -6.68,-17.78 -13.34,-35.57 -20.15,-53.31 -18.45,0.08 -36.92,0.17 -55.37,-0.03 -6.5,16.67 -13.44,33.26 -18.61,50.4 5.98,-0.14 12.79,-0.28 17.29,4.4 8.05,7.6 4.07,23.06 -6.86,25.47 -12.81,1.89 -25.79,-0.36 -38.66,-0.22 -13.96,0.39 -27.92,1.41 -41.9,0.74 -9.27,-0.45 -16.42,-10.32 -13.7,-19.26 1.45,-5.55 6.14,-9.99 11.87,-10.79 5.55,-0.7 11.55,0.25 16.69,-2.39 6.14,-4.21 8.57,-11.68 11.44,-18.19 24.89,-62.54 49.97,-125 74.95,-187.52 3.24,-7.49 5.46,-15.7 10.79,-22.06zm7.98 3.3l0 0c-4.9,2.49 -7.06,7.91 -9.19,12.64 -26.77,65.96 -53.39,132 -80.14,197.98 -3.14,7.24 -6.53,15.23 -13.71,19.34 -6.61,3.08 -14.38,0.96 -21.07,3.67 -7.06,4.02 -4.6,16.58 3.66,17.52 18.73,1.6 37.51,-1.77 56.26,-0.05 7.6,0.26 15.32,0.98 22.88,-0.11 6.39,-1.44 8.41,-8.97 6.09,-14.42 -4.74,-6.27 -13.58,-3.74 -20.28,-4.79 -0.59,-7.81 2.51,-15.18 5.27,-22.3 4.83,-11.81 9.22,-23.81 14.19,-35.55 0.79,-2.58 4.12,-1.38 6.08,-1.74 19.45,0.25 38.9,-0.39 58.33,0.36 7.2,20.05 15.76,39.62 22.76,59.76 -4.81,2.17 -8.04,7.22 -6.17,12.54 2.53,5.5 9.42,5.41 14.56,5.99 22,0.95 44.03,0.63 66.04,0.65 4.79,0.17 9.39,-1.38 13.37,-4 7.18,5.99 16.84,3.67 25.39,3.77 18.58,-1.17 37.23,-1.12 55.81,0.12 19.73,0.09 39.45,0.61 59.15,1.34 7.54,-0.62 16.43,0.37 22.37,-5.27 4.95,-5.13 5.19,-12.78 6.53,-19.39 1.29,-10.77 3.36,-21.65 1.96,-32.54 -1.58,-5.62 -8.94,-8.16 -13.7,-4.82 -5.09,2.88 -4.6,9.32 -6.28,14.18 -1.71,6.83 -6.56,13.43 -13.79,14.86 -11.19,2.37 -22.74,1.79 -34.1,1.45 -7.09,-0.76 -14.99,-0.25 -21.04,-4.65 -3.15,-3.62 -2.83,-8.84 -3.65,-13.31 -1.07,-20.17 -0.55,-40.4 -0.69,-60.59 0.18,-35.79 -0.2,-71.58 0.33,-107.35 0.19,-4.18 0.37,-10.26 5.26,-11.63 6.91,-1.94 15.31,1.37 21.25,-3.81 4.91,-4.38 3.23,-13.41 -3.24,-15.28 -11.8,-2.13 -23.86,-0.23 -35.77,-0.25 -13.94,-0.11 -27.89,0.34 -41.82,-0.56 -7.21,0 -14.53,-0.59 -21.67,0.69 -6.82,1.55 -8.78,11.28 -3.56,15.68 7.34,5.83 18.77,-0.54 25.09,7.45 0.53,6.78 1.74,13.51 1.6,20.33 -0.1,50.23 0.16,100.48 -0.14,150.72 -1.36,10.85 0.13,22.42 -4.5,32.62 -7.06,1.23 -14.87,0.2 -21.01,4.52 -7.13,-6.53 -18.56,-1.09 -26.08,-7.17 -7.99,-6.65 -12.11,-16.55 -16.4,-25.74 -25.94,-61.9 -50.53,-124.37 -76.12,-186.41 -2.33,-5.22 -4.19,-11.02 -8.59,-14.93 -3.1,-2.78 -7.78,-2.59 -11.52,-1.52zm418.11 0.23l0 0c-13.67,1.6 -27.32,4.29 -40.14,9.41 -25.42,9.84 -47.48,28.4 -60.97,52.14 -10.76,19.34 -16.58,41.62 -15.86,63.79 -0.37,26.58 6.95,53.69 22.71,75.3 16.56,23.06 41.73,39.1 68.75,47.07 29.88,8.77 61.53,9.25 92.31,6.11 10.24,-1.64 20.91,-2.82 30.14,-7.89 7.98,-4.64 8.79,-14.77 10.53,-22.89 1.72,-11.25 4.63,-22.49 4.1,-33.93 0.42,-6.95 -8.42,-11.91 -14.19,-8.12 -3.48,1.9 -4.79,5.85 -5.66,9.45 -2.44,10.92 -9.19,21.11 -19.08,26.57 -13.27,7.23 -28.88,6.59 -43.53,6.64 -13.39,0.29 -26.72,-3.47 -38.36,-10.01 -21.67,-12.3 -36.6,-34.08 -44.32,-57.4 -7.65,-21.75 -7.56,-45.6 -3.13,-68.01 4.04,-20.87 16.06,-40.9 34.98,-51.37 12.62,-7.13 27.38,-8.72 41.6,-9.48 17.51,0.98 35.76,3.05 51.15,12.14 8.52,4.71 14,13.54 16.49,22.76 1.32,5.54 -0.28,11.94 3.47,16.76 2.38,3.75 7.34,3.09 11.11,2.67 4.44,-1.41 6.21,-6.57 6.49,-10.8 1.5,-17.6 0.26,-35.42 2.95,-52.9 0.19,-5.71 -5.16,-10.56 -10.73,-10.72 -8.02,-0.76 -15.82,-2.92 -23.78,-4.15 -25.42,-4.32 -51.35,-4.91 -77.03,-3.14zm229.01 -5.65c33.23,-3.53 68.28,0.54 97.97,16.69 18.2,9.94 33.83,24.7 44.06,42.8 15.06,26.05 19.38,57.36 15.78,86.96 -3.11,27.04 -13.89,53.34 -31.69,74.03 -20.85,24.54 -51.21,40.08 -82.91,44.62 -28.01,3.92 -57.33,1.85 -83.68,-8.89 -24.39,-9.84 -45.33,-27.8 -58.84,-50.34 -29.48,-47.99 -26.31,-114.03 9.02,-158.16 21.56,-27.88 55.62,-44.14 90.29,-47.71zm-28.83 12.06l0 0c-25.77,8.11 -48.59,25.23 -63.42,47.83 -33.16,49.66 -27.55,122.12 14.63,164.86 13.86,13.92 31.35,24.81 50.47,29.64 4.32,2.01 9,3.03 13.68,3.93 29.06,5.35 59.81,3.72 87.4,-7.35 23.76,-9.3 44.42,-26.16 58.22,-47.6 18.36,-28.51 24.16,-63.88 19.64,-97.16 -3.58,-26.51 -15.94,-52.16 -36.19,-69.88 -24.04,-21.35 -56.68,-31.24 -88.43,-31.45 -18.89,-0.8 -38.01,1.08 -56,7.18zm461.47 -8.54c6.05,-7.92 18.78,-6.96 25.13,0.08 14.53,15.02 28.52,30.55 43.15,45.49 35.4,37.48 72.56,73.25 107.81,110.87 -0.71,-33.96 -1.69,-67.93 -2.2,-101.92 -0.45,-7.82 0.01,-15.82 -2.33,-23.39 -8.55,-1.6 -19.11,1.4 -25.78,-5.66 -7.21,-6.98 -4.6,-20.85 5.1,-24.16 10.6,-3.48 21.92,-0.64 32.85,-1.27 17.64,1.55 35.36,-1.33 52.98,0.07 10.68,0.92 16.94,14.26 10.82,23.07 -4.79,7.89 -14.82,6.83 -22.71,7.9 -2.01,10.77 -0.98,21.76 -1.73,32.63 -0.59,38.87 -1.07,77.72 -2.08,116.57 -0.08,21.23 -0.41,42.47 -1.12,63.7 0.25,7.51 -3.76,15.52 -11.16,18.07 -7.23,2.36 -15.02,-0.73 -20.35,-5.72 -26.59,-24.64 -51.38,-51.12 -77.16,-76.58 -24.06,-23.76 -47.71,-47.9 -70.69,-72.68 -0.15,27.52 1.64,55.02 1.76,82.55 0.59,12.45 0.03,25.14 3.3,37.31 8.37,3.22 19.29,-1.04 25.82,6.7 7.8,8.27 2.24,23.6 -9.13,24.83 -18.51,1.94 -37.17,-1.32 -55.72,0.09 -8.81,0.53 -17.64,0.5 -26.45,0.37 -3.5,0 -6.72,-1.39 -9.88,-2.65 -8.02,4.21 -17.24,2.3 -25.88,2.69 -18.33,-0.38 -38.09,2.19 -54.79,-7.14 -18.34,-10.09 -30.64,-27.67 -42.93,-44.03 -11.09,-14.86 -21.39,-30.25 -32.34,-45.21 -4.87,0.07 -9.73,0.02 -14.57,-0.43 0.22,21.42 -0.87,43.09 2.43,64.33 7.07,3.62 16.35,-0.14 23.32,4.38 6.43,3.73 8.81,12.77 5.35,19.31 -2.43,5.44 -8.43,8.38 -14.15,8.74 -15.5,0.37 -31,-0.28 -46.5,-0.83 -14.47,0.04 -28.95,1.42 -43.43,0.78 -6.1,-0.31 -12.3,-3.98 -14.34,-9.93 -2.66,-6.28 -0.19,-14.37 5.77,-17.8 5.14,-3.42 11.57,-2.41 17.4,-3.13 2.84,-14.7 1.77,-29.71 2.61,-44.57 0.01,-41.94 0.03,-83.87 -0.02,-125.81 -0.45,-7.39 -0.29,-14.79 -0.76,-22.17 -0.2,-1.71 -0.23,-4.63 -2.8,-4.32 -6.64,-1.4 -13.9,0.32 -20.12,-2.94 -6.7,-3.34 -9.74,-12.34 -6.51,-19.06 2.32,-6.3 9.23,-9.47 15.61,-9.37 20.71,-0.28 41.41,1.49 62.11,0.43 27.43,-0.39 56.55,-2.94 81.92,9.73 18.19,8.32 30.46,26.54 34.27,45.85 2.39,15.84 0.56,32.52 -6.52,47.01 -6.68,13.93 -16.79,26.05 -28.4,36.16 15.72,20.1 31.53,40.14 48.21,59.46 9.7,10.93 19.62,23.01 33.84,28.05 6.86,2.78 14.76,0.76 21.25,4.58 6.33,-3.29 13.58,-2.33 20.43,-3.14 3.19,-16.93 1.31,-34.28 2.24,-51.38 1.01,-51.02 1.38,-102.06 2.44,-153.08 0.41,-7.91 -0.87,-16.88 4.63,-23.43zm4.61 4.28l0 0c-4.16,5.47 -3.33,12.7 -3.6,19.12 -1.43,30.53 -0.04,61.11 -1.35,91.65 0.41,10.92 -1.13,21.82 -0.68,32.77 -0.98,25.88 0.99,51.87 -1.95,77.66 -0.4,2.63 -0.79,5.86 -3.32,7.37 -7.95,2.13 -17.86,-0.82 -23.79,6.39 -4.23,-6.7 -12.88,-4.37 -19.45,-6.39 -13.58,-3.56 -24.36,-13.43 -33.39,-23.75 -20.38,-22.57 -38.91,-46.73 -57.78,-70.57 7.32,-6.91 14.75,-13.8 20.89,-21.84 11.55,-14.42 17.97,-32.89 17.19,-51.39 -0.99,-15.14 -7.44,-29.9 -18.15,-40.69 -9.52,-8.67 -21.81,-13.83 -34.31,-16.49 -25.16,-4.93 -50.9,-1.2 -76.32,-1.9 -16.54,0.64 -33.16,-1.94 -49.64,0.08 -7.48,1.4 -8.77,12.5 -2.64,16.37 6.36,4.06 14.3,0.75 21.1,3.36 6.35,1.4 5.58,9.4 6.25,14.38 0.18,46.62 0.03,93.26 0.07,139.88 -0.11,13.01 0.5,26.09 -1.21,39.04 -0.28,4.79 -1.32,9.5 -3.33,13.86 -5.56,0.67 -11.3,0.49 -16.71,2.07 -4.97,1.76 -6.57,8.15 -4.4,12.61 1.93,3.55 6.13,5.36 10.04,5.47 9.38,0.22 18.75,0.03 28.13,-0.51 20.91,-1.4 41.94,2.08 62.79,-0.05 8.19,-1.13 9.99,-13.3 3.18,-17.25 -7.4,-2.54 -15.68,-0.94 -23.05,-3.31 -5.27,-5.99 -3.68,-15.04 -4.29,-22.45 -1.38,-17.55 -0.67,-35.15 -0.87,-52.72 7.69,-0.59 15.39,0.2 23.1,-0.08 15.14,20.12 28.81,41.32 44.46,61.05 8.21,10.23 16.95,20.49 28.28,27.38 10.15,6.31 22.4,8.05 34.15,8.01 11.98,-0.07 23.95,0.09 35.92,-0.07 4.13,0.17 7.44,-2.56 10.46,-5.02 2.81,2.19 5.66,4.96 9.5,4.94 11.98,0.52 23.97,-0.1 35.96,-0.76 15.2,0.08 30.53,2.02 45.69,0.3 7.4,-1 10.29,-11.05 4.97,-15.98 -7.01,-5.09 -16.85,-0.84 -24.1,-5.2 -3.77,-4.71 -4.12,-11.22 -4.78,-17 -0.8,-18.13 -1.85,-36.27 -1.62,-54.43 -0.45,-22.48 -2.13,-44.91 -1.48,-67.39 20.03,21.05 39.77,42.39 60.52,62.76 24.44,24.23 48.58,48.78 72.87,73.16 9.31,8.33 17.32,18.12 27.31,25.66 3.69,3.07 8.69,2.48 13.15,2.18 2.79,-3 5.44,-6.44 5.66,-10.71 1.56,-18.24 0.19,-36.6 0.97,-54.88 0.88,-26.83 1.63,-53.68 1.32,-80.54 0.96,-23.82 1.57,-47.65 1.63,-71.5 0.53,-4.88 0.57,-11.98 6.28,-13.71 6.16,-0.86 14.15,0.93 18.33,-4.94 4.29,-5.12 0.48,-13.56 -6.02,-14.17 -12.42,-1.54 -24.9,0.39 -37.34,0.11 -13.94,0.33 -27.87,-1.33 -41.8,-0.42 -3.67,0.08 -7.62,1.6 -9.27,5.1 -1.15,3.79 -1.01,8.74 2.49,11.32 7.23,5.91 18.33,-0.82 25.2,5.85 3.4,4.95 3.16,11.31 3.26,17.08 0,20.77 1.92,41.49 1.5,62.26 -0.25,20.94 1.69,41.85 1.43,62.79 -8.46,-7.32 -15.64,-15.96 -23.57,-23.83 -14.04,-14.97 -28.37,-29.66 -42.97,-44.09 -28.76,-28.77 -57.01,-58.03 -85.08,-87.48 -4.93,-4.88 -8.9,-12.04 -16.19,-13.43 -3.39,-0.34 -7.6,-0.36 -9.6,2.91zm-435.87 25.95c22.84,-3.28 47.09,4.33 63.61,20.53 15.58,14.85 24.58,35.38 28.55,56.28 3.12,14.91 2.35,30.25 1.94,45.38 -1.68,18.82 -6.14,38.24 -17.78,53.57 -10.85,14.71 -29.26,23.05 -47.4,22.62 -23.46,0.12 -46.8,-10.39 -61.83,-28.47 -18.64,-22.2 -26.02,-52.01 -25.5,-80.54 -0.23,-23.02 3.66,-47.48 17.62,-66.43 9.43,-13.17 24.9,-20.99 40.79,-22.94zm-4.48 6.59l0 0c-9.17,1.91 -17.92,6 -25,12.18 -12.52,11.21 -18.68,27.79 -21.37,44.02 -4.34,28.07 -2.4,58 10.09,83.88 9.03,19.42 25.51,35.93 46.25,42.35 16.31,4.87 34.95,5.58 50.23,-2.91 14.83,-7.83 23.86,-23.3 28.21,-39.02 5.57,-20.77 6.42,-42.72 3.59,-63.97 -3.49,-25.26 -15.07,-50.68 -36.48,-65.6 -15.89,-11.41 -36.53,-14.62 -55.52,-10.93zm229.7 -2.43c10.79,-0.57 22.57,-1.8 32.11,4.4 14.98,9.36 21.15,28.22 20.62,45.15 0.42,13.74 -2.58,28.88 -13,38.65 -8.53,8.34 -21.59,5.56 -32.32,5.03 -2.35,-0.68 -7.26,0.27 -7.21,-3.36 -0.28,-29.94 0.19,-59.91 -0.2,-89.87zm5.81 4.87l0 0c-0.14,27.44 -0.03,54.88 -0.06,82.33 8.29,1.13 17.01,2.27 25.2,0.03 10.46,-5.05 14.46,-17.41 15.79,-28.17 1.67,-15.19 0.31,-32.65 -10.86,-44.21 -7.67,-8.12 -19.26,-10.79 -30.07,-9.98zm-895.64 98.17l0 0c8.36,0.06 16.73,0.08 25.09,-0.01 -4.12,-10.93 -7.97,-21.97 -12.02,-32.93l-0.62 0.15c-4.55,10.76 -8.24,21.89 -12.45,32.79z"/>
   <path class="fil5" d="M1182.93 901.6c0.56,-1.94 0.02,-5.7 3.19,-5.38 5.7,-0.63 11.45,-0.2 17.18,-0.18 25.37,0.59 50.74,0.15 76.11,-0.1 19.73,-0.25 40.82,2.91 56.9,15.18 12.26,10.33 19.17,26.64 18.98,42.58 -1.26,9.22 -2.88,18.59 -7.03,27.03 -7.57,15.8 -20.19,28.64 -33.87,39.29 0.26,1.15 0.56,2.31 0.88,3.49 0.94,4.3 3.91,7.61 6.63,10.9 18.43,22.98 36.25,46.5 56.01,68.39 8.16,9.14 17.46,17.71 28.77,22.71 7.08,3.22 14.94,3.67 22.59,3.89 0.07,2.22 -0.62,6.05 -3.68,5.69 -8.8,0.56 -17.65,0.01 -26.44,0.2 -10.97,-0.12 -22.3,0.84 -32.82,-2.81 -8.15,-2.75 -15.25,-7.85 -21.49,-13.67 -2.64,-2.56 -5.77,-4.99 -6.71,-8.72 0.98,0.12 2.93,0.39 3.9,0.51 -20.79,-24.19 -37.47,-51.47 -56.85,-76.72 -11.04,0.21 -22.09,0.25 -33.02,-1.52 -0.03,2.01 -0.05,4.03 -0.07,6.06 -0.21,7.7 -0.6,15.41 -0.07,23.1 0.76,16.65 -0.7,33.51 1.82,50.03 1.35,5.57 2.14,12.67 7.99,15.45 6.71,2.41 14.03,2.27 21.09,2.57 -0.45,0.56 -1.38,1.68 -1.85,2.24 -11.39,0.76 -22.85,-0.24 -34.28,0.15 -4.72,0.3 -9.36,-0.67 -14,-1.1 -12.84,1.88 -25.89,0.82 -38.84,1.21 -4.61,1.28 -9.89,-6.12 -4.57,-8.75 6.13,-0.81 12.67,-0.03 18.35,-2.98 3.4,-4.4 4.26,-10.09 4.4,-15.5 2.7,-15.89 0.94,-32.09 1.44,-48.12 -0.71,-10.45 1.59,-20.77 1.14,-31.2 0.29,-13.54 -0.45,-27.11 0.15,-40.62 0.47,-2.43 0.62,-4.9 0.47,-7.34 -1.29,-19.28 0.05,-38.6 -0.81,-57.88 -0.31,-5.94 -1.43,-13.12 -7.42,-15.98 -7.54,-3.28 -16.16,-3.42 -24.17,-2.1zm-50.8 144.64c2.12,0.81 1.55,5.09 0.48,6.86 -2.29,-0.81 -1.56,-5.12 -0.48,-6.86zm-606.33 -145.85c19.55,0.01 39.11,1.12 58.67,0.72 7.68,-0.1 15.34,-0.5 23.02,-0.11 -3.09,1.83 -7.04,3.18 -8.58,6.74 -3.93,7.93 -2.72,17.03 -3.33,25.56 -1.8,7.87 -0.56,15.97 -0.96,23.94 0.26,19.19 0.17,38.37 0.17,57.55 0.14,11.37 -0.62,22.79 1.12,34.1 -0.11,10.3 0.68,20.67 -0.64,30.92 -0.63,8.28 0.31,16.72 2.43,24.76 1.41,5.57 6.22,9.56 11.74,10.74 13.24,3 26.95,2.94 40.46,2.46 8.66,-0.7 18.28,-1.85 24.63,-8.47 5.53,-6.48 7.18,-15.11 9.45,-23.07 1.74,0.35 3.48,0.73 5.24,1.13l-0.07 1.51c-0.68,11.72 -1.66,23.6 -4.74,34.96 -1.05,5.16 -6.91,5.97 -11.27,6.11 -36.3,0.86 -72.57,-2.1 -108.87,-1.49 -11.47,-0.39 -22.86,1.54 -34.32,1.32 -3.87,-0.88 -2.04,-7.24 1.55,-6.73 5.8,-0.7 12.91,0.96 17.54,-3.4 4.68,-7.68 3.57,-17.07 5.19,-25.61 0.64,-46.65 -0.26,-93.38 0.72,-140.04 -0.89,-13.01 0.48,-26.13 -1.14,-39.06 -1.41,-8.79 -11.38,-11.73 -19.07,-11.62 -3.02,-0.56 -7.62,0.9 -8.94,-2.92zm243.92 4.15c27.15,-9.34 56.44,-9.54 84.77,-7.32 17.95,1.4 35.54,5.42 53.28,8.32 -3.16,16.93 -1.42,34.21 -2.76,51.28 -0.18,0.98 -0.54,2.97 -0.73,3.97 -0.95,-0.25 -2.83,-0.75 -3.77,-0.98 -1.53,-5.37 -1.22,-11.07 -2.87,-16.39 -3.23,-11.5 -11.45,-21.42 -22.21,-26.63 -20.21,-9.89 -43.41,-11.78 -65.56,-9.95 -19.4,1.68 -38.54,10.36 -50.9,25.7 -12.47,14.67 -18.31,33.62 -21.08,52.37 -1.72,8.21 -1.79,16.64 -0.95,24.94 0.04,24.84 6.89,50.12 21.61,70.35 16.45,22.4 42.21,38.52 70.15,40.96 13.41,0.54 27.09,0.4 40.18,-2.91 11.35,-2.81 21.64,-10.04 27.55,-20.21 4.12,-6.31 5.78,-13.74 8.23,-20.77 0.77,0.16 2.34,0.45 3.12,0.61 2.05,11.71 -1.38,23.46 -3.4,34.95 -1.59,6.95 -1.89,16.47 -9.77,19.4 -16.04,6.08 -33.51,7.26 -50.51,7.37 -23.64,0.79 -47.63,-1.28 -70.14,-8.94 -30.7,-9.84 -58.06,-31.96 -71.39,-61.64 -6.2,-12.77 -9.08,-26.87 -10.55,-40.9 -1.08,-5.86 -1.09,-11.85 -0.13,-17.71 1.76,-15.42 4.34,-30.95 10.88,-45.16 12.44,-28.53 37.64,-50.68 66.95,-60.71zm702.1 -7.96c-0.29,-3.02 1.76,-5.3 3.49,-7.48l0.99 1.42c7.31,10.77 17.23,19.37 25.98,28.91 42.1,44.89 86.28,87.76 128.59,132.44 8.14,7.93 15.01,17.26 24.19,24.02 0.25,-10.73 0.05,-21.47 -0.09,-32.21 -0.71,8.81 -0.11,17.67 -0.54,26.52 -0.58,-0.56 -1.71,-1.69 -2.29,-2.25 -0.54,-13.09 0.17,-26.22 -0.23,-39.3 -2.6,-18.49 -0.95,-37.21 -1.4,-55.8 0.71,-14.64 -2.19,-29.13 -1.4,-43.76 0.02,-7.51 0.81,-16.62 -5.69,-21.92 -6.65,-5.43 -15.93,-3.13 -23.78,-4.42l-0.67 -2.3c16.86,-0.17 33.73,0.95 50.62,0.62 5.81,-0.06 11.7,-0.93 17.48,0.27 -8.7,3.32 -10.65,13.35 -11.17,21.58 -0.66,24.37 -0.66,48.75 -1.73,73.11 0.2,29.57 -0.22,59.14 -1.43,88.67 0.16,16.64 -1.52,33.38 0.7,49.94 -1.97,1.96 -3.5,5.78 -6.93,4.83 -7,-3.03 -11.63,-9.43 -17.17,-14.38 -7.37,-7.1 -14.39,-14.53 -21.78,-21.61l0.97 -0.56c0.48,-0.35 1.46,-1.08 1.94,-1.44 -1.37,-2.94 -4.01,-4.98 -6.19,-7.26 -28.96,-30.07 -59.07,-59 -88.13,-88.99 -12.39,-13.52 -25.32,-26.57 -37.46,-40.34 -2.26,-2.52 -4.84,-4.68 -7.54,-6.67 0.18,1.03 0.54,3.11 0.71,4.14 0.3,0.51 0.87,1.55 1.17,2.06 0.07,15.13 -0.72,30.3 0.37,45.41 1.69,11.91 0.81,23.96 1.03,35.95 -0.34,16.1 1.1,32.16 0.93,48.27 0.92,10.29 0.79,21.75 7.03,30.51 6.54,5.79 16.21,4.79 24.37,4.98 -1.69,3.76 -6.31,2.14 -9.54,2.56 -10.34,-0.45 -20.74,0.42 -31.03,-0.7 -6.22,-1.52 -12.39,1.22 -18.66,0.56 -9.17,-0.73 -18.84,1.87 -27.59,-1.6 0.5,-2.5 -0.45,-6.08 2.66,-7.13 6.73,-0.7 14.13,0.42 20.11,-3.49 4.26,-3.79 4.18,-9.76 4.5,-14.97 2.45,-12.78 0.87,-25.83 1.32,-38.74 0.43,-19.18 -1.03,-38.47 1.43,-57.53 0.51,-27.99 -0.03,-55.97 0.43,-83.94 0.69,-9.32 1.25,-18.64 1.43,-27.98zm180.9 121.68l0 0c0.4,-0.84 1.19,-2.52 1.58,-3.34 -0.95,-19.26 0.13,-38.57 -0.95,-57.83 -0.85,20.36 -0.45,40.82 -0.63,61.17zm-691.82 -90.46c20.26,-20.37 48.33,-32.23 76.86,-34.24 4.03,0.84 8.05,1.92 12.19,2.21 25.88,0.84 52.17,5.85 75.07,18.41 18.05,9.76 33.35,24.87 42.46,43.36 11.55,23.35 13.86,50.6 9.22,76.03 -4.56,26.04 -16.89,50.98 -36.16,69.26 -19.03,18.7 -44.95,29.48 -71.35,32.06 2.8,0.49 5.57,1.13 8.15,2.44 -13.24,2.95 -26.92,1.97 -40.37,2.36 -11.16,0.68 -21.55,-4.24 -32.59,-4.68 -8.2,-4.65 -17.49,-7.15 -25.24,-12.61 -31.41,-19.16 -50.71,-54.49 -54.52,-90.58 0.04,-8.29 -3,-16.7 -0.03,-24.77 1.64,-6.45 2.23,-13.12 3.93,-19.56 5.24,-22.29 16.38,-43.25 32.38,-59.69zm66.69 -20.01l0 0c-1.85,0.5 -3.67,1.07 -5.44,1.76l-1.04 -0.14c-16.43,4.32 -30.39,16.09 -38.6,30.81 -11.12,19.66 -14.05,42.69 -13.87,64.95 -1.58,11.97 0.31,24.1 2.47,35.9 5.9,25.74 18.72,51.45 41.09,66.63 24.81,17.5 59.44,20.41 86.22,5.61 3.66,-0.03 7.57,-2.26 8.16,-6.14 1.31,-1.35 2.58,-2.72 3.91,-4.06 2.62,1.79 4.02,-1.43 5.59,-2.83 13.79,-17.64 18.66,-40.37 20.23,-62.24 -0.38,-5.01 0.88,-10.53 -1.67,-15.09 -0.12,-8 -0.63,-16.01 -0.93,-24.01 -2.47,-20.79 -8.74,-41.48 -20.6,-58.89 -10.46,-15.1 -25.38,-27.94 -43.46,-32.57 -10.23,-2.97 -21.01,-2.35 -31.47,-1.34l0.26 0.41c-3.7,-1.03 -7.44,-0.33 -10.85,1.24zm-645.17 -3.51c1.77,-3.3 3.23,-8.31 7.72,-8.37 3.38,2.6 5.32,6.53 7.87,9.87 3.19,4.14 4.74,9.16 6.75,13.9 17.75,43.34 34.87,86.95 53.01,130.14 7.63,18.22 14.33,36.86 23.19,54.53 4.64,6.92 8.54,15.47 16.75,18.78 3.85,1.71 8.14,1.89 12.28,2.41 3.04,-1.77 7.13,-4.43 9.68,-0.35 -0.08,0.98 -0.21,2.95 -0.28,3.93 -24.82,0.36 -49.67,0.12 -74.48,-0.67 0.76,-5.89 0.7,-11.98 -2,-17.41 -8.54,-20.23 -15.35,-41.2 -24.57,-61.1 5.34,16.14 12.14,31.76 18.05,47.71 3.3,9.78 9.8,19.37 7.17,30.15 -2.91,0.99 -5.71,2.3 -7.96,4.44 -1.99,-1.91 -3.86,-4.68 -2.21,-7.41 2.22,-1.99 5.18,-2.78 7.81,-4.03 -3.18,-6.25 -5.23,-12.95 -7.14,-19.66 -4.07,-11.34 -8.89,-22.37 -12.98,-33.71 -1.62,-4.04 -2.52,-8.66 -6.05,-11.55 -0.01,-1.8 -0.01,-3.57 -0.01,-5.35 -23.2,0.11 -46.38,-0.15 -69.56,0.14 -5.22,12.98 -10.27,26.01 -15.5,38.98 -2.75,6.9 -5.61,13.85 -6.84,21.22 -0.65,3.25 -0.73,6.6 -0.07,9.87 0.23,3.17 1.8,6.39 4.97,7.54 5.01,1.86 10.53,1.21 15.76,1.2 -0.43,0.57 -1.3,1.74 -1.74,2.31 -11.89,0.36 -23.94,0.72 -35.77,-0.95 -12.87,1.93 -25.96,0.88 -38.94,1.2 -4.88,0.58 -7.95,-9 -1.65,-8.94 8.57,0.14 17.66,-0.87 24.17,-7.04 7.93,-8.43 11.29,-19.79 15.78,-30.19 6.72,-16.01 12.83,-32.26 19.58,-48.26l0.6 1.03 0.9 1.56c19.22,-45.04 37,-90.69 55.71,-135.92zm-1.81 53.86l0 0c-9.73,25.65 -19.79,51.24 -28.79,77.16 0.03,1.57 0.05,3.17 0.06,4.77 19.86,-0.25 39.75,0.62 59.58,-0.36 -0.41,-0.74 -1.22,-2.25 -1.64,-3.01l1.2 -2.33c0.53,-0.02 1.57,-0.04 2.1,-0.04 -9.62,-25.55 -18.94,-51.22 -28.36,-76.86 -0.59,-1.44 -1.36,-2.76 -2.33,-3.97 -2.17,0.66 -3.46,2.62 -1.82,4.64zm873.97 -47.16l0 0c-4.16,0.49 -2.7,5.44 -2.45,8.22 -0.11,26.65 0.04,53.31 -0.08,79.97 0,4.49 -0.03,9.03 0.62,13.51 -1.15,2.24 -0.47,4.72 -0.26,7.09 11.79,3.23 24.25,4.49 36.4,2.92 12.77,-1.74 21.16,-13.39 25.28,-24.7 2.21,-6.72 4.82,-14.07 2.66,-21.11 -0.34,-4.34 -0.01,-8.68 0.41,-12.99 2.42,-19.83 -8.48,-41.5 -27.06,-49.8 -11,-5.18 -23.77,-5.09 -35.52,-3.11z"/>
   <path class="fil6" d="M1091.33 1479.28c28.84,-0.28 57.66,-0.31 86.5,-0.33 17.23,1.37 34.53,0.38 51.78,0.62 168.98,-1.04 337.95,-0.4 506.9,-0.7 2.19,0.11 4.8,-0.17 6.42,1.76 9.55,9.34 18.05,19.71 27.49,29.17l0.2 0.2c-241.03,-0.3 -482.05,-0.13 -723.07,-0.1l0.38 -0.24c14.39,-10.25 29.55,-19.44 43.4,-30.38zm-689.75 2.75c7.81,-0.06 15.61,-0.19 23.42,0.09 23.08,0.39 46.18,0 69.29,0.02 81.61,-0.34 163.21,-0.28 244.83,-0.33 6.25,9.28 12.3,18.7 18.87,27.77l0.28 0.39c-176.07,-0.19 -352.15,-0.19 -528.22,0l0.31 -0.24c11.07,-8.21 21.97,-16.63 32.96,-24.93 2.83,-2.5 6.76,-2.09 10.26,-2.18 37.81,0.27 75.63,-0.23 113.44,0.03 4.86,0.03 9.71,-0.34 14.56,-0.62z"/>
  </g>
 </g>
</svg>
