<?xml version="1.0" encoding="UTF-8"?>
<!DOCTYPE svg PUBLIC "-//W3C//DTD SVG 1.1//EN" "http://www.w3.org/Graphics/SVG/1.1/DTD/svg11.dtd">
<!-- Creator: CorelDRAW -->
<svg xmlns="http://www.w3.org/2000/svg" xml:space="preserve" width="2000px" height="1600px" version="1.1" style="shape-rendering:geometricPrecision; text-rendering:geometricPrecision; image-rendering:optimizeQuality; fill-rule:evenodd; clip-rule:evenodd"
viewBox="0 0 2000 1600"
 xmlns:xlink="http://www.w3.org/1999/xlink">
 <defs>
  <style type="text/css">
   <![CDATA[
    .fil1 {fill:#020204;fill-rule:nonzero}
    .fil2 {fill:#FDD203;fill-rule:nonzero}
    .fil0 {fill:#FEFEFE;fill-rule:nonzero}
   ]]>
  </style>
 </defs>
 <g id="Capa_x0020_1">
  <metadata id="CorelCorpID_0Corel-Layer"/>
  <g id="Appalachian_x0020_State_x0020_Mountaineers.cdr">
   <path class="fil0" d="M775.46 365.1c-0.23,-70.12 0.95,-140.26 -0.6,-210.35 87.36,1.06 174.75,0.17 262.1,0.46 62.62,-0.17 125.26,0.37 187.87,-0.29 -0.37,69.74 -0.46,139.54 0,209.29 -27.24,2.15 -54.65,0.03 -81.95,1.14 2.38,13.92 7.71,27.13 13.78,39.82 5.56,17.7 12.66,34.85 20.22,51.78 9.63,29.96 23.54,58.32 33.97,87.96 7.94,24.35 19.94,47.12 27.64,71.55 18.9,46.94 37.89,93.94 55.25,141.52 12.29,25.15 18.62,52.73 31.14,77.82 5.61,17.59 14.06,34.11 20.02,51.61 9.73,23.03 16.95,47 27.41,69.75 6.9,15.75 10.42,32.91 19.07,47.91 1.55,2.92 2.01,6.25 2.95,9.43 5.24,10.19 7.28,21.62 12.06,32.05 7.48,14.75 12.55,30.56 18.53,45.94 0.23,5.44 4.41,8.85 9.68,6.53 -6.13,-0.2 -5.75,5.93 -3.29,9.94 4.24,7.33 5.15,15.92 9.02,23.43 8.65,17.27 12.6,36.43 21.28,53.7 5.04,10.46 7.54,22.03 13.21,32.14 1.6,6.36 3.49,12.63 5.75,18.79 25.67,-0.06 51.36,-0.12 77.05,-0.06 0.43,50.07 0.06,100.13 0.17,150.2 0.32,19.25 -0.86,38.58 0.95,57.77 -133.07,-0.03 -266.14,-0.11 -399.19,0.06 2.32,-69.2 0.35,-138.54 1.01,-207.77 26.38,-0.26 52.84,-0.86 79.22,0.34 -3.67,-15.47 -10.71,-29.84 -13.43,-45.57 -2.49,-11.8 -8.54,-22.48 -10.57,-34.4 -2.15,-8.76 -7.05,-16.67 -7.96,-25.78 -1.44,-11.74 -8.63,-21.73 -9.74,-33.54 -6.1,-13.83 -7.91,-28.9 -13.44,-42.87 -4.24,-1.32 -8.56,-2.44 -13,-2.12 -117.06,0.26 -234.15,-0.2 -351.21,0.23 -8.73,1.52 -7.99,11.77 -10.25,18.3 -5.64,13.15 -7.45,27.41 -12.66,40.73 -1.58,12.69 -9.11,23.71 -9.94,36.55 -11.51,28.58 -16.67,59.31 -28.18,87.93 26.89,-0.43 53.84,0.66 80.71,-0.78 -1.06,69.52 -0.14,139.09 -0.49,208.63 -132.81,0.12 -265.63,-0.14 -398.44,0.14 1.64,-69.36 0.29,-138.79 0.72,-208.16 25.63,0.22 51.27,0 76.9,0.14 1.61,-8.97 6.88,-16.56 9.97,-24.98 23.09,-64.27 49.55,-127.43 74.07,-191.1 11.08,-27.75 20.94,-55.99 32.94,-83.4 5.98,-19.97 14.92,-38.87 22.42,-58.26 15.93,-41.1 32.25,-82.06 48.38,-123.05 26.01,-69.91 55.14,-138.48 80.65,-208.63 10.57,-20.93 16.19,-43.93 26.59,-64.96 6.64,-20.59 15.35,-40.5 23.17,-60.57 3.52,-12.89 10.88,-24.44 13.54,-37.58 0.92,-1.29 2.75,-3.9 3.67,-5.21 0.66,-5.13 2.29,-10.09 4.96,-14.53 -27.9,0.86 -55.8,0.12 -83.7,0.38zm508.74 627.46c4.56,-6.59 6.93,-14.44 12.15,-20.57 3.38,9.14 6.21,20 -1.12,28.07 -4.61,-1.06 -8.1,-3.95 -11.03,-7.5zm-448.65 -43.45c0.26,-6.19 9.2,-6.82 9.74,-0.43 1.43,13.35 1.55,27.38 -2.37,40.35 -1.78,-1.34 -5.33,-4.06 -7.11,-5.41 -0.71,-11.48 -0.11,-23.03 -0.26,-34.51zm209.61 -18.1c1.23,-0.06 3.69,-0.2 4.92,-0.26 1.75,5.58 1.75,11.4 0.12,17.01 -3.04,11.95 1.17,25.15 -4.18,36.52 -7.36,2.81 -10.32,-6.7 -9.51,-12.29 0.6,-13.86 0.8,-29.01 8.65,-40.98zm-72.04 -3.73c0.86,-0.37 2.58,-1.11 3.44,-1.49 5.44,3.18 11.66,3.15 17.76,2.58 -0.92,9.91 -0.37,19.85 0.05,29.76 -2.4,4.7 -4.38,9.6 -6.35,14.49l-1.81 -0.77c-1.06,6.99 -11.14,7.16 -12.77,0.37 1.54,-14.98 -0.06,-29.96 -0.32,-44.94zm243 -5.87c1.32,0.12 4.01,0.29 5.36,0.4 5.21,15.67 -0.52,32.54 -13.18,42.79 -0.28,-14.86 -1.37,-30.47 7.82,-43.19zm-47.83 43.02c0,-15.29 -2.46,-34.31 11.17,-44.85 7.02,4.58 2.58,14.32 3.69,21.28 -3.69,8.65 -7.3,17.44 -14.86,23.57zm-170.08 -452.97l0 0c-1.72,6.01 -3.26,12.08 -5.87,17.78 -12.72,28.67 -22.31,58.58 -35.09,87.22 -26.66,75.96 -59.34,149.8 -86.32,225.47 4.61,-0.95 9.25,-2.26 14.03,-2.21 74.53,0.09 149.06,-0.03 223.58,0.06 6.33,-0.11 12.98,0.89 18.96,-1.83 -5.44,-9.34 -8.36,-19.77 -13.06,-29.42 -34.6,-92.86 -71.83,-184.74 -107.18,-277.34 -1.83,-7.1 -4.72,-13.8 -9.05,-19.73zm-0.89 363.21l0 0c0.41,15.15 -1.69,30.04 -2.83,45.11 -1.49,1.06 -4.5,3.21 -5.99,4.27 -3.86,-0.15 -7.7,-0.32 -11.54,-0.58 -4.87,-2.29 -3.44,-9.16 -4.3,-13.6 -9.51,3.69 -14.26,13.09 -22.16,18.44 0.02,-2.78 0.05,-8.3 0.08,-11.08 -3.64,-1.95 -8.53,-3.78 -11.51,0.37 -3.38,6.67 -1.58,14.47 -3.47,21.57 -2.61,10.85 -1.95,22.02 -1.23,33.05 -4.5,5.53 -9.08,16.16 -17.79,13.29 -8.39,-21.71 3.07,-44.97 -0.63,-67.45 -1.83,-0.09 -5.52,-0.32 -7.36,-0.43 -2.35,3.55 -4.92,7.22 -5.01,11.66 -1.83,15.15 -1.6,30.44 -1.98,45.68 0.09,4.27 -2.43,7.91 -4.04,11.74 -1.25,0.03 -3.83,0.15 -5.12,0.18 -9.14,-21.23 -3.21,-44.83 -4.81,-67.17 -0.66,-1.43 -1.98,-4.24 -2.64,-5.67 -2.26,0.34 -4.5,0.29 -6.73,-0.2 -3.92,9.94 -2.2,20.74 -1.23,31.05 -4.27,2.77 -8.42,5.75 -12.63,8.62 -9.37,-5.01 -4.24,-16.53 -5.96,-24.92 0.23,-7.62 -5.96,-12.6 -10.14,-18.1 -11.57,-3.44 -19.82,6.76 -23.03,16.58 0.12,12.98 -0.05,25.98 0.17,38.96 -0.11,5.64 0.23,13.14 -5.95,15.81 -6.19,-0.92 -7.25,-8.02 -7.45,-13.07 -0.14,-13.34 1.92,-26.66 1.23,-40.01 -1.57,-16.32 5.9,-33.6 -2.29,-48.95 -8.45,-5.27 -13.8,5.24 -18.99,10.11 -2.66,5.3 -6.47,9.8 -11.08,13.47 -2.07,-7.68 -5.7,-14.76 -9.86,-21.49 -8.73,0.43 -14.12,7.39 -19.53,13.29 -0.66,-4.98 -4.5,-8.13 -7.82,-11.48 -5.58,0.2 -11.8,-1.69 -16.81,1.57 -9.05,4.99 -14.64,14.21 -23.32,19.71 -4.15,2.43 -7.76,5.67 -10.22,9.88 -2.47,1.32 -4.9,2.64 -7.36,3.95 2.35,2.61 4.72,5.19 7.1,7.79 9.65,-6.36 15.35,-20.33 28.01,-20.22 2.26,27.64 0.43,55.4 1.32,83.09 -0.26,10.72 19.73,11.29 19.07,-0.05 1.61,-22.78 -3.37,-47.61 9.91,-67.97 0.95,-0.12 2.81,-0.35 3.73,-0.43 6.18,24.32 -1.38,50.44 5.44,74.93 2.78,0.25 5.59,0.54 8.39,0.83 1.69,-0.81 5.07,-2.41 6.76,-3.21 10.28,-19.91 0.57,-43.51 6.25,-64.5 2.49,-5.25 4.98,-12.58 12.11,-12 1.95,22.71 -1.55,45.68 2.86,68.22 3.01,6.22 5.96,13.4 13.12,15.78 9.83,1.38 13.92,-9.42 16.13,-16.9 3.15,4.04 6.24,8.14 9.08,12.43 5.47,2.78 12.37,5.93 17.38,0.46 7.16,-8.7 6.05,-20.62 6.25,-31.16 6.81,1.15 12.57,-2.49 17.99,-6.07 1.46,12.08 -4.82,28.5 6.44,37.15 7.25,6.78 15.52,-1.75 21.2,-6.36 3.32,3.84 6.47,8.96 12.11,9.51 6.76,-1.35 12.03,-6.02 17.19,-10.29 1.4,5.39 9.85,15.82 13,5.73 -0.89,-0.54 -2.69,-1.63 -3.61,-2.2 7.85,0.69 3.52,-8.42 5.07,-12.95 2.49,-9.56 2.84,-19.45 2.18,-29.24 2.4,-1.15 4.81,-2.29 7.24,-3.44 0.75,0.57 2.29,1.75 3.07,2.32 -0.57,13.35 -1.43,27.04 3.43,39.76 10.52,4.38 22.86,1.31 28.9,-8.54 3.04,7.36 6.71,14.41 10.77,21.25 11.52,4.3 19.22,-6.67 23.43,-15.61 2.81,5.79 5.3,13.04 11.95,15.44 6.47,-1 10.68,-6.24 15.86,-9.68 7.42,2.64 15.47,3.01 23,0.49 3.38,3.81 7.25,8.88 13.15,7.5 3.72,-1.86 7.13,-4.35 11.09,-5.76 3.2,4.62 7.24,8.88 13.4,8.05 1.37,-14.12 4.24,-28.04 4.9,-42.22 0.05,-5.47 3.69,-8.04 9.11,-7.67 0.54,14.89 -3.38,34.28 9.85,44.91 6.21,6.27 13.29,-1.38 19.53,-3.67 3.18,3.01 6.42,5.96 9.68,8.88 5.3,-0.26 10.6,-0.43 15.9,-0.6 4.21,-3.9 8.28,-7.96 12.32,-12.03 4.06,5.87 8.27,11.8 14.49,15.64 5.41,-0.52 11.68,0.74 15.81,-3.69 12.74,-8.57 16.93,-24.06 20.59,-37.98 -0.37,-3.81 1.35,-14.15 6.68,-8.34 1.89,11.4 -6.3,22.74 -1.44,34.06 1.61,6.76 6.99,11.85 13.32,14.35 5.96,-0.03 12.58,-3.58 17.9,0.68 6.25,3.58 14.58,8.34 21.4,3.33 3.44,-6.99 6.33,-14.58 6.19,-22.49 -0.03,-15.24 0.48,-30.44 0.31,-45.68 0.23,-7.65 -4.78,-13.89 -7.79,-20.54 -10.94,5.76 -10.65,21.2 -12.77,31.99 -1.81,3.58 -2.18,10.63 -7.56,9.86 1.14,1.92 2.31,3.86 3.52,5.81 -4.61,9.88 -10.06,19.85 -18.85,26.64 -5.61,-6.3 -5.84,-14.75 -6.21,-22.69 3.92,-5.87 3.09,-13.06 3.26,-19.7 3.84,-6.39 1.66,-14.15 4.67,-20.8 -6.67,-3.29 -13.98,-5.15 -20.42,-8.93 -2.46,3.69 -3.78,7.9 -3.64,12.37 -0.49,13.92 -6.1,26.87 -8.88,40.33 -6.13,10.4 -14.12,21.97 -27.58,22.23 3.01,-6.1 0.51,-12.55 -0.95,-18.68 7.94,-5.84 13.87,-13.63 17.82,-22.6 6.93,-8.56 3.75,-19.96 4.3,-30.01 -0.35,-7.54 -8.57,-10.89 -13.64,-15.1 -5.47,1.81 -11.43,3.7 -14.61,8.94 -5.38,5.87 -4.15,14.69 -9.19,20.79 -0.57,14.27 -1.6,28.44 1.18,42.56 -5.27,5.47 -10.72,10.89 -17.82,13.87 -5.7,-5.1 -7.42,-12.64 -10.34,-19.34 4.41,-2.75 9.02,-5.24 13.09,-8.45 6.67,-5.98 7.62,-15.41 12.4,-22.6 0.12,-7.67 0.23,-15.4 -1.09,-22.97 -2.92,-5.64 -8.88,-8.82 -13.57,-12.83 -14.73,2.09 -20.17,16.99 -22.63,29.65 -0.29,10.31 -5.24,21.34 -0.09,31.19 -0.23,5.1 -0.71,10.25 -2.55,15.09 -2.34,0.23 -4.66,0.46 -6.98,0.72 -7.45,-23.03 0.65,-47.23 -2.04,-70.6 -10.37,0.23 -15.55,10.94 -23.46,16.18 -0.25,-3.81 -0.54,-7.59 -0.83,-11.4 -2,-0.23 -6.04,-0.75 -8.05,-1 -1.86,3.69 -3.69,7.41 -5.47,11.17 1.12,9.68 -2.75,19.04 -2.6,28.73 -1.26,10.68 2.23,24.74 -9.22,30.98 -2.41,-3.17 -6.91,-5.98 -6.05,-10.62 -0.74,-14.52 1.89,-29.04 0.29,-43.54 0.71,-1.28 2.12,-3.81 2.83,-5.07 -1.14,-2.63 -2.29,-5.24 -3.43,-7.84 -1.95,-0.66 -5.88,-1.98 -7.82,-2.64 -7.74,13.58 -3.87,29.7 -4.76,44.54 -0.68,5.84 3.01,12.29 -0.14,17.73 -4.44,1.52 -8.68,-0.03 -12.63,-1.95 -0.49,-15.95 1.92,-31.65 4.78,-47.29 -6.73,-8.05 -14.66,-25.03 -27.41,-17.58 -13.89,16.44 -14.2,39.35 -14.26,59.77 -3.93,5.39 -7.08,13.38 -14.81,13.61 -1.92,-2.09 -3.81,-4.18 -5.61,-6.3 0.37,-10.8 0.2,-21.63 0.63,-32.46 0.51,-7.73 -2.01,-15.95 1.89,-23.14 4.61,-0.43 9.22,-1.26 13.57,-2.98 -3.89,-3.03 -8.56,-4.69 -13.37,-5.55 0.54,-6.62 0.45,-13.24 0.83,-19.85 0.43,-7.33 4.01,-14.67 1.74,-22 -3.32,-3.46 -8.3,-3.15 -12.66,-3.49zm80.37 14.46l0 0c-0.6,4.3 -0.08,8.65 0.12,12.95 2.03,0.43 6.1,1.29 8.13,1.69 7.48,0.25 11.26,-10.43 5.45,-15.04 -3.3,-4.5 -10.03,-2.58 -13.7,0.4z"/>
   <path class="fil1" d="M997.32 874.67c4.36,0.34 9.34,0.03 12.66,3.49 2.27,7.33 -1.31,14.67 -1.74,22 -0.38,6.61 -0.29,13.23 -0.83,19.85 4.81,0.86 9.48,2.52 13.37,5.55 -4.35,1.72 -8.96,2.55 -13.57,2.98 -3.9,7.19 -1.38,15.41 -1.89,23.14 -0.43,10.83 -0.26,21.66 -0.63,32.46 1.8,2.12 3.69,4.21 5.61,6.3 7.73,-0.23 10.88,-8.22 14.81,-13.61 0.06,-20.42 0.37,-43.33 14.26,-59.77 12.75,-7.45 20.68,9.53 27.41,17.58 -2.86,15.64 -5.27,31.34 -4.78,47.29 3.95,1.92 8.19,3.47 12.63,1.95 3.15,-5.44 -0.54,-11.89 0.14,-17.73 0.89,-14.84 -2.98,-30.96 4.76,-44.54 1.94,0.66 5.87,1.98 7.82,2.64 1.14,2.6 2.29,5.21 3.43,7.84 -0.71,1.26 -2.12,3.79 -2.83,5.07 1.6,14.5 -1.03,29.02 -0.29,43.54 -0.86,4.64 3.64,7.45 6.05,10.62 11.45,-6.24 7.96,-20.3 9.22,-30.98 -0.15,-9.69 3.72,-19.05 2.6,-28.73 1.78,-3.76 3.61,-7.48 5.47,-11.17 2.01,0.25 6.05,0.77 8.05,1 0.29,3.81 0.58,7.59 0.83,11.4 7.91,-5.24 13.09,-15.95 23.46,-16.18 2.69,23.37 -5.41,47.57 2.04,70.6 2.32,-0.26 4.64,-0.49 6.98,-0.72 1.84,-4.84 2.32,-9.99 2.55,-15.09 -5.15,-9.85 -0.2,-20.88 0.09,-31.19 2.46,-12.66 7.9,-27.56 22.63,-29.65 4.69,4.01 10.65,7.19 13.57,12.83 1.32,7.57 1.21,15.3 1.09,22.97 -4.78,7.19 -5.73,16.62 -12.4,22.6 -4.07,3.21 -8.68,5.7 -13.09,8.45 2.92,6.7 4.64,14.24 10.34,19.34 7.1,-2.98 12.55,-8.4 17.82,-13.87 -2.78,-14.12 -1.75,-28.29 -1.18,-42.56 5.04,-6.1 3.81,-14.92 9.19,-20.79 3.18,-5.24 9.14,-7.13 14.61,-8.94 5.07,4.21 13.29,7.56 13.64,15.1 -0.55,10.05 2.63,21.45 -4.3,30.01 -3.95,8.97 -9.88,16.76 -17.82,22.6 1.46,6.13 3.96,12.58 0.95,18.68 13.46,-0.26 21.45,-11.83 27.58,-22.23 2.78,-13.46 8.39,-26.41 8.88,-40.33 -0.14,-4.47 1.18,-8.68 3.64,-12.37 6.44,3.78 13.75,5.64 20.42,8.93 -3.01,6.65 -0.83,14.41 -4.67,20.8 -0.17,6.64 0.66,13.83 -3.26,19.7 0.37,7.94 0.6,16.39 6.21,22.69 8.79,-6.79 14.24,-16.76 18.85,-26.64 -1.21,-1.95 -2.38,-3.89 -3.52,-5.81 5.38,0.77 5.75,-6.28 7.56,-9.86 2.12,-10.79 1.83,-26.23 12.77,-31.99 3.01,6.65 8.02,12.89 7.79,20.54 0.17,15.24 -0.34,30.44 -0.31,45.68 0.14,7.91 -2.75,15.5 -6.19,22.49 -6.82,5.01 -15.15,0.25 -21.4,-3.33 -5.32,-4.26 -11.94,-0.71 -17.9,-0.68 -6.33,-2.5 -11.71,-7.59 -13.32,-14.35 -4.86,-11.32 3.33,-22.66 1.44,-34.06 -5.33,-5.81 -7.05,4.53 -6.68,8.34 -3.66,13.92 -7.85,29.41 -20.59,37.98 -4.13,4.43 -10.4,3.17 -15.81,3.69 -6.22,-3.84 -10.43,-9.77 -14.49,-15.64 -4.04,4.07 -8.11,8.13 -12.32,12.03 -5.3,0.17 -10.6,0.34 -15.9,0.6 -3.26,-2.92 -6.5,-5.87 -9.68,-8.88 -6.24,2.29 -13.32,9.94 -19.53,3.67 -13.23,-10.63 -9.31,-30.02 -9.85,-44.91 -5.42,-0.37 -9.06,2.2 -9.11,7.67 -0.66,14.18 -3.53,28.1 -4.9,42.22 -6.16,0.83 -10.2,-3.43 -13.4,-8.05 -3.96,1.41 -7.37,3.9 -11.09,5.76 -5.9,1.38 -9.77,-3.69 -13.15,-7.5 -7.53,2.52 -15.58,2.15 -23,-0.49 -5.18,3.44 -9.39,8.68 -15.86,9.68 -6.65,-2.4 -9.14,-9.65 -11.95,-15.44 -4.21,8.94 -11.91,19.91 -23.43,15.61 -4.06,-6.84 -7.73,-13.89 -10.77,-21.25 -6.04,9.85 -18.38,12.92 -28.9,8.54 -4.86,-12.72 -4,-26.41 -3.43,-39.76 -0.78,-0.57 -2.32,-1.75 -3.07,-2.32 -2.43,1.15 -4.84,2.29 -7.24,3.44 0.66,9.79 0.31,19.68 -2.18,29.24 -1.55,4.53 2.78,13.64 -5.07,12.95 0.92,0.57 2.72,1.66 3.61,2.2 -3.15,10.09 -11.6,-0.34 -13,-5.73 -5.16,4.27 -10.43,8.94 -17.19,10.29 -5.64,-0.55 -8.79,-5.67 -12.11,-9.51 -5.68,4.61 -13.95,13.14 -21.2,6.36 -11.26,-8.65 -4.98,-25.07 -6.44,-37.15 -5.42,3.58 -11.18,7.22 -17.99,6.07 -0.2,10.54 0.91,22.46 -6.25,31.16 -5.01,5.47 -11.91,2.32 -17.38,-0.46 -2.84,-4.29 -5.93,-8.39 -9.08,-12.43 -2.21,7.48 -6.3,18.28 -16.13,16.9 -7.16,-2.38 -10.11,-9.56 -13.12,-15.78 -4.41,-22.54 -0.91,-45.51 -2.86,-68.22 -7.13,-0.58 -9.62,6.75 -12.11,12 -5.68,20.99 4.03,44.59 -6.25,64.5 -1.69,0.8 -5.07,2.4 -6.76,3.21 -2.8,-0.29 -5.61,-0.58 -8.39,-0.83 -6.82,-24.49 0.74,-50.61 -5.44,-74.93 -0.92,0.08 -2.78,0.31 -3.73,0.43 -13.28,20.36 -8.3,45.19 -9.91,67.97 0.66,11.34 -19.33,10.77 -19.07,0.05 -0.89,-27.69 0.94,-55.45 -1.32,-83.09 -12.66,-0.11 -18.36,13.86 -28.01,20.22 -2.38,-2.6 -4.75,-5.18 -7.1,-7.79 2.46,-1.31 4.89,-2.63 7.36,-3.95 2.46,-4.21 6.07,-7.45 10.22,-9.88 8.68,-5.5 14.27,-14.72 23.32,-19.71 5.01,-3.26 11.23,-1.37 16.81,-1.57 3.32,3.35 7.16,6.5 7.82,11.48 5.41,-5.9 10.8,-12.86 19.53,-13.29 4.16,6.73 7.79,13.81 9.86,21.49 4.61,-3.67 8.42,-8.17 11.08,-13.47 5.19,-4.87 10.54,-15.38 18.99,-10.11 8.19,15.35 0.72,32.63 2.29,48.95 0.69,13.35 -1.37,26.67 -1.23,40.01 0.2,5.05 1.26,12.15 7.45,13.07 6.18,-2.67 5.84,-10.17 5.95,-15.81 -0.22,-12.98 -0.05,-25.98 -0.17,-38.96 3.21,-9.82 11.46,-20.02 23.03,-16.58 4.18,5.5 10.37,10.48 10.14,18.1 1.72,8.39 -3.41,19.91 5.96,24.92 4.21,-2.87 8.36,-5.85 12.63,-8.62 -0.97,-10.31 -2.69,-21.11 1.23,-31.05 2.23,0.49 4.47,0.54 6.73,0.2 0.66,1.43 1.98,4.24 2.64,5.67 1.6,22.34 -4.33,45.94 4.81,67.17 1.29,-0.03 3.87,-0.15 5.12,-0.18 1.61,-3.83 4.13,-7.47 4.04,-11.74 0.38,-15.24 0.15,-30.53 1.98,-45.68 0.09,-4.44 2.66,-8.11 5.01,-11.66 1.84,0.11 5.53,0.34 7.36,0.43 3.7,22.48 -7.76,45.74 0.63,67.45 8.71,2.87 13.29,-7.76 17.79,-13.29 -0.72,-11.03 -1.38,-22.2 1.23,-33.05 1.89,-7.1 0.09,-14.9 3.47,-21.57 2.98,-4.15 7.87,-2.32 11.51,-0.37 -0.03,2.78 -0.06,8.3 -0.08,11.08 7.9,-5.35 12.65,-14.75 22.16,-18.44 0.86,4.44 -0.57,11.31 4.3,13.6 3.84,0.26 7.68,0.43 11.54,0.58 1.49,-1.06 4.5,-3.21 5.99,-4.27 1.14,-15.07 3.24,-29.96 2.83,-45.11zm80.37 14.46c3.67,-2.98 10.4,-4.9 13.7,-0.4 5.81,4.61 2.03,15.29 -5.45,15.04 -2.03,-0.4 -6.1,-1.26 -8.13,-1.69 -0.2,-4.3 -0.72,-8.65 -0.12,-12.95zm-378.3 -808.39c66.62,-1.09 133.3,-0.32 199.95,-0.55 122.19,-0.14 244.4,-0.02 366.62,-0.08 11.66,-0.12 23.37,-0.32 35.03,0.51 -0.26,120.07 -0.6,240.17 0.17,360.23 -16.18,1.72 -32.48,0.12 -48.72,1.09 51.44,132.99 103.57,265.71 155.61,398.47 33.2,86.9 68.46,173.03 100.88,260.18 -1.09,0.49 -3.29,1.44 -4.41,1.9 1.54,-0.09 4.64,-0.29 6.19,-0.38 6.18,19.71 15.49,38.3 21.39,58.12 34,0.46 68,0.31 101.99,0.06 0.52,119.58 -0.14,239.21 0.32,358.79 -54.93,1.75 -110.04,0.12 -165.06,0.81 -128.38,-0.38 -256.78,0.77 -385.13,-0.55 -0.02,-119.64 -0.31,-239.27 0.15,-358.91 17.5,0.03 35,0.17 52.47,-0.09 -2.15,-10.37 -5.87,-20.28 -8.65,-30.44 -85.61,-0.32 -171.22,-0.32 -256.83,0 -2.64,10.16 -5.93,20.13 -8.42,30.36 17.24,0.4 34.51,0.14 51.75,0.17 0.32,119.72 0.12,239.42 0.09,359.14 -147.37,0.75 -294.81,-0.11 -442.21,0.43 -35.43,-0.52 -70.89,0.46 -106.32,-0.54 -1.08,-119.67 -0.6,-239.42 -0.2,-359.09 33.57,0.26 67.17,0.03 100.74,0.09 93.69,-239.54 187.23,-479.07 280.89,-718.6 -16.12,-0.4 -32.25,-0.26 -48.38,-0.23 -0.97,-96.33 -0.23,-192.65 -0.45,-288.94 0.2,-24.01 -0.49,-47.98 0.54,-71.95zm17.62 54.85l0 0c-0.15,96.06 0.28,192.13 -0.23,288.19 18.84,-0.28 37.69,0.32 56.54,-0.45 -2.7,10.51 -7.45,20.27 -11.29,30.36 -68.65,175.72 -137.42,351.4 -205.99,527.15 -25.52,65.56 -51.7,130.93 -76.48,196.74 -32.05,1.81 -64.21,0.06 -96.29,0.92 0,107.98 0.08,215.96 -0.06,323.97 171.39,0.03 342.79,-0.06 514.18,0.03 -0.28,-107.95 -0.28,-215.87 -0.03,-323.83 -19.21,-0.54 -38.49,-0.63 -57.71,0.03 4.9,-22.6 12.46,-44.68 19.28,-66.71 79.36,-0.54 158.73,-0.08 238.1,-0.22 14.92,0.17 29.87,-0.64 44.74,0.8 5.12,22.28 13.92,43.53 18.53,65.93 -19.54,-0.28 -39.07,-0.28 -58.6,0.03 0.08,107.95 -0.03,215.9 0.05,323.88 171.57,0.18 343.13,-0.05 514.73,0.12 0.03,-108.01 0,-216.02 0.03,-324.03 -31.91,-0.4 -63.82,-0.03 -95.72,-0.2 -87.73,-225.3 -175.87,-450.42 -263.91,-675.58 -9.77,-26.52 -21.34,-52.41 -30.22,-79.22 18.68,0.46 37.38,0.03 56.05,0.43 0.52,-108.7 0.41,-217.48 0.06,-326.21 -188.38,0.32 -376.76,0.46 -565.14,-0.05 -1.51,12.6 -0.37,25.26 -0.62,37.92zm40.07 2.95c161.88,-0.8 323.79,-0.26 485.71,-0.26 0.26,81.72 0.48,163.46 -0.15,245.18 -25.14,0.05 -50.29,-0.09 -75.41,0.11 66.16,169.45 132.44,338.86 198.6,508.34 43.05,108.93 84.7,218.45 128.43,327.09 27.3,-0.8 54.65,-0.28 81.98,-0.43 0,81.2 0.08,162.4 -0.03,243.6 -144.73,0.06 -289.49,-0.06 -434.21,0.06 0.05,-81.2 -0.38,-162.4 0.22,-243.57 24.09,-0.17 48.21,0.03 72.33,-0.15 -12.75,-48.11 -28.82,-95.34 -42.31,-143.26 -0.31,-4.73 -6.16,-3.27 -9.31,-3.55 -111.41,0.34 -222.89,-0.29 -334.31,0.31 -14.66,48.84 -29.35,97.64 -43.79,146.56 23.97,0.17 47.95,-0.11 71.95,-0.03 0.37,81.2 0.03,162.43 0.2,243.66 -144.59,-0.06 -289.14,0.03 -433.73,-0.06 0.17,-81.14 0.58,-162.34 -0.2,-243.48 27.56,0.08 55.14,-0.52 82.66,0.37 109.59,-278.29 218,-557.06 326.81,-835.66 -25.09,0.03 -50.18,0.31 -75.27,-0.11 -0.12,-81.58 0.17,-163.15 -0.17,-244.72zm18.38 226.56l0 0c27.9,-0.26 55.8,0.48 83.7,-0.38 -2.67,4.44 -4.3,9.4 -4.96,14.53 -0.92,1.31 -2.75,3.92 -3.67,5.21 -2.66,13.14 -10.02,24.69 -13.54,37.58 -7.82,20.07 -16.53,39.98 -23.17,60.57 -10.4,21.03 -16.02,44.03 -26.59,64.96 -25.51,70.15 -54.64,138.72 -80.65,208.63 -16.13,40.99 -32.45,81.95 -48.38,123.05 -7.5,19.39 -16.44,38.29 -22.42,58.26 -12,27.41 -21.86,55.65 -32.94,83.4 -24.52,63.67 -50.98,126.83 -74.07,191.1 -3.09,8.42 -8.36,16.01 -9.97,24.98 -25.63,-0.14 -51.27,0.08 -76.9,-0.14 -0.43,69.37 0.92,138.8 -0.72,208.16 132.81,-0.28 265.63,-0.02 398.44,-0.14 0.35,-69.54 -0.57,-139.11 0.49,-208.63 -26.87,1.44 -53.82,0.35 -80.71,0.78 11.51,-28.62 16.67,-59.35 28.18,-87.93 0.83,-12.84 8.36,-23.86 9.94,-36.55 5.21,-13.32 7.02,-27.58 12.66,-40.73 2.26,-6.53 1.52,-16.78 10.25,-18.3 117.06,-0.43 234.15,0.03 351.21,-0.23 4.44,-0.32 8.76,0.8 13,2.12 5.53,13.97 7.34,29.04 13.44,42.87 1.11,11.81 8.3,21.8 9.74,33.54 0.91,9.11 5.81,17.02 7.96,25.78 2.03,11.92 8.08,22.6 10.57,34.4 2.72,15.73 9.76,30.1 13.43,45.57 -26.38,-1.2 -52.84,-0.6 -79.22,-0.34 -0.66,69.23 1.31,138.57 -1.01,207.77 133.05,-0.17 266.12,-0.09 399.19,-0.06 -1.81,-19.19 -0.63,-38.52 -0.95,-57.77 -0.11,-50.07 0.26,-100.13 -0.17,-150.2 -25.69,-0.06 -51.38,0 -77.05,0.06 -2.26,-6.16 -4.15,-12.43 -5.75,-18.79 -5.67,-10.11 -8.17,-21.68 -13.21,-32.14 -8.68,-17.27 -12.63,-36.43 -21.28,-53.7 -3.87,-7.51 -4.78,-16.1 -9.02,-23.43 -2.46,-4.01 -2.84,-10.14 3.29,-9.94 -5.27,2.32 -9.45,-1.09 -9.68,-6.53 -5.98,-15.38 -11.05,-31.19 -18.53,-45.94 -4.78,-10.43 -6.82,-21.86 -12.06,-32.05 -0.94,-3.18 -1.4,-6.51 -2.95,-9.43 -8.65,-15 -12.17,-32.16 -19.07,-47.91 -10.46,-22.75 -17.68,-46.72 -27.41,-69.75 -5.96,-17.5 -14.41,-34.02 -20.02,-51.61 -12.52,-25.09 -18.85,-52.67 -31.14,-77.82 -17.36,-47.58 -36.35,-94.58 -55.25,-141.52 -7.7,-24.43 -19.7,-47.2 -27.64,-71.55 -10.43,-29.64 -24.34,-58 -33.97,-87.96 -7.56,-16.93 -14.66,-34.08 -20.22,-51.78 -6.07,-12.69 -11.4,-25.9 -13.78,-39.82 27.3,-1.11 54.71,1.01 81.95,-1.14 -0.46,-69.75 -0.37,-139.55 0,-209.29 -62.61,0.66 -125.25,0.12 -187.87,0.29 -87.35,-0.29 -174.74,0.6 -262.1,-0.46 1.55,70.09 0.37,140.23 0.6,210.35zm222.75 146.36c4.33,5.93 7.22,12.63 9.05,19.73 35.35,92.6 72.58,184.48 107.18,277.34 4.7,9.65 7.62,20.08 13.06,29.42 -5.98,2.72 -12.63,1.72 -18.96,1.83 -74.52,-0.09 -149.05,0.03 -223.58,-0.06 -4.78,-0.05 -9.42,1.26 -14.03,2.21 26.98,-75.67 59.66,-149.51 86.32,-225.47 12.78,-28.64 22.37,-58.55 35.09,-87.22 2.61,-5.7 4.15,-11.77 5.87,-17.78zm0.66 48.57l0 0c-33.8,87.42 -67.54,174.89 -101.79,262.14 67.99,1.31 136.08,0.34 204.1,0.48 -34.14,-87.53 -67.62,-175.32 -102.31,-262.62zm-0.03 110.91c14.64,36.97 29.45,73.86 43.17,111.21 -28.5,0.46 -57,0.32 -85.47,0.12 12.83,-37.55 28.93,-73.96 42.3,-111.33zm-16.47 93.94l0 0c11.35,0.09 22.66,0.09 34,-0.23 -5.44,-14.03 -9.91,-28.5 -16.98,-41.81 -7.77,13 -12.58,27.61 -17.02,42.04zm185.92 199.55l0 0c7.56,-6.13 11.17,-14.92 14.86,-23.57 -1.11,-6.96 3.33,-16.7 -3.69,-21.28 -13.63,10.54 -11.17,29.56 -11.17,44.85zm47.83 -43.02l0 0c-9.19,12.72 -8.1,28.33 -7.82,43.19 12.66,-10.25 18.39,-27.12 13.18,-42.79 -1.35,-0.11 -4.04,-0.28 -5.36,-0.4zm-243 5.87l0 0c0.26,14.98 1.86,29.96 0.32,44.94 1.63,6.79 11.71,6.62 12.77,-0.37l1.81 0.77c1.97,-4.89 3.95,-9.79 6.35,-14.49 -0.42,-9.91 -0.97,-19.85 -0.05,-29.76 -6.1,0.57 -12.32,0.6 -17.76,-2.58 -0.86,0.38 -2.58,1.12 -3.44,1.49zm72.04 3.73l0 0c-7.85,11.97 -8.05,27.12 -8.65,40.98 -0.81,5.59 2.15,15.1 9.51,12.29 5.35,-11.37 1.14,-24.57 4.18,-36.52 1.63,-5.61 1.63,-11.43 -0.12,-17.01 -1.23,0.06 -3.69,0.2 -4.92,0.26zm-209.61 18.1l0 0c0.15,11.48 -0.45,23.03 0.26,34.51 1.78,1.35 5.33,4.07 7.11,5.41 3.92,-12.97 3.8,-27 2.37,-40.35 -0.54,-6.39 -9.48,-5.76 -9.74,0.43zm448.65 43.45l0 0c2.93,3.55 6.42,6.44 11.03,7.5 7.33,-8.07 4.5,-18.93 1.12,-28.07 -5.22,6.13 -7.59,13.98 -12.15,20.57z"/>
   <path class="fil2" d="M998.87 560.03c34.69,87.3 68.17,175.09 102.31,262.62 -68.02,-0.14 -136.11,0.83 -204.1,-0.48 34.25,-87.25 67.99,-174.72 101.79,-262.14zm-281.86 -424.44c0.25,-12.66 -0.89,-25.32 0.62,-37.92 188.38,0.51 376.76,0.37 565.14,0.05 0.35,108.73 0.46,217.51 -0.06,326.21 -18.67,-0.4 -37.37,0.03 -56.05,-0.43 8.88,26.81 20.45,52.7 30.22,79.22 88.04,225.16 176.18,450.28 263.91,675.58 31.9,0.17 63.81,-0.2 95.72,0.2 -0.03,108.01 0,216.02 -0.03,324.03 -171.6,-0.17 -343.16,0.06 -514.73,-0.12 -0.08,-107.98 0.03,-215.93 -0.05,-323.88 19.53,-0.31 39.06,-0.31 58.6,-0.03 -4.61,-22.4 -13.41,-43.65 -18.53,-65.93 -14.87,-1.44 -29.82,-0.63 -44.74,-0.8 -79.37,0.14 -158.74,-0.32 -238.1,0.22 -6.82,22.03 -14.38,44.11 -19.28,66.71 19.22,-0.66 38.5,-0.57 57.71,-0.03 -0.25,107.96 -0.25,215.88 0.03,323.83 -171.39,-0.09 -342.79,0 -514.18,-0.03 0.14,-108.01 0.06,-215.99 0.06,-323.97 32.08,-0.86 64.24,0.89 96.29,-0.92 24.78,-65.81 50.96,-131.18 76.48,-196.74 68.57,-175.75 137.34,-351.43 205.99,-527.15 3.84,-10.09 8.59,-19.85 11.29,-30.36 -18.85,0.77 -37.7,0.17 -56.54,0.45 0.51,-96.06 0.08,-192.13 0.23,-288.19zm40.07 2.95l0 0c0.34,81.57 0.05,163.14 0.17,244.72 25.09,0.42 50.18,0.14 75.27,0.11 -108.81,278.6 -217.22,557.37 -326.81,835.66 -27.52,-0.89 -55.1,-0.29 -82.66,-0.37 0.78,81.14 0.37,162.34 0.2,243.48 144.59,0.09 289.14,0 433.73,0.06 -0.17,-81.23 0.17,-162.46 -0.2,-243.66 -24,-0.08 -47.98,0.2 -71.95,0.03 14.44,-48.92 29.13,-97.72 43.79,-146.56 111.42,-0.6 222.9,0.03 334.31,-0.31 3.15,0.28 9,-1.18 9.31,3.55 13.49,47.92 29.56,95.15 42.31,143.26 -24.12,0.18 -48.24,-0.02 -72.33,0.15 -0.6,81.17 -0.17,162.37 -0.22,243.57 144.72,-0.12 289.48,0 434.21,-0.06 0.11,-81.2 0.03,-162.4 0.03,-243.6 -27.33,0.15 -54.68,-0.37 -81.98,0.43 -43.73,-108.64 -85.38,-218.16 -128.43,-327.09 -66.16,-169.48 -132.44,-338.89 -198.6,-508.34 25.12,-0.2 50.27,-0.06 75.41,-0.11 0.63,-81.72 0.41,-163.46 0.15,-245.18 -161.92,0 -323.83,-0.54 -485.71,0.26zm241.76 532.4l0 0c-13.37,37.37 -29.47,73.78 -42.3,111.33 28.47,0.2 56.97,0.34 85.47,-0.12 -13.72,-37.35 -28.53,-74.24 -43.17,-111.21z"/>
  </g>
 </g>
</svg>
