<?xml version="1.0" encoding="UTF-8"?>
<!DOCTYPE svg PUBLIC "-//W3C//DTD SVG 1.1//EN" "http://www.w3.org/Graphics/SVG/1.1/DTD/svg11.dtd">
<!-- Creator: CorelDRAW -->
<svg xmlns="http://www.w3.org/2000/svg" xml:space="preserve" width="2000px" height="1600px" version="1.1" style="shape-rendering:geometricPrecision; text-rendering:geometricPrecision; image-rendering:optimizeQuality; fill-rule:evenodd; clip-rule:evenodd"
viewBox="0 0 2000 1600"
 xmlns:xlink="http://www.w3.org/1999/xlink">
 <defs>
  <style type="text/css">
   <![CDATA[
    .fil1 {fill:#8D0E39;fill-rule:nonzero}
    .fil0 {fill:#FFCD34;fill-rule:nonzero}
   ]]>
  </style>
 </defs>
 <g id="Capa_x0020_1">
  <metadata id="CorelCorpID_0Corel-Layer"/>
  <g id="Arizona_x0020_State_x0020_Sun_x0020_Devils.cdr">
   <path class="fil0" d="M1000.53 120.87c15.81,27.63 26.58,57.69 38.44,87.13 23.36,57.35 33.1,118.83 45.44,179.18 -18.83,-17.47 -38.99,-34.11 -62.45,-44.94 4.14,5.19 8.71,9.99 13.44,14.65 -0.7,79.09 -1.39,158.15 -1.11,237.24 0.89,66.3 1.37,132.68 6.42,198.85 0.57,5.63 0.39,12.05 4.59,16.44 3.91,4.89 11.23,4.62 16.32,1.83 14.01,-6.59 28.19,-12.85 42.22,-19.41 6.13,-2.56 10.65,-8.16 11.75,-14.74 12.07,-59.77 24.32,-119.66 42.47,-177.95 10.44,-33.34 22.63,-66.46 40.84,-96.45 -22.08,6.17 -42.69,16.27 -63.45,25.78 4.28,-5.55 8.98,-10.74 13.24,-16.3 21.66,-29.67 44.96,-58.56 73,-82.51 28.89,-25.05 62.4,-44.16 96.85,-60.46 -41.67,63.73 -73.35,133.74 -95.25,206.61 -29.26,95.91 -43.04,195.61 -54.99,294.9 -7.43,-6.88 -15.25,-13.33 -22.79,-20.07 -33.9,17.65 -68.12,34.7 -102.08,52.23 -0.02,19.22 0.02,38.45 -0.02,57.67 -28.51,0.04 -57.03,-0.05 -85.56,0.04 0.07,-19.33 -0.64,-38.67 -0.71,-58.01 -34.01,-17.07 -67.77,-34.69 -101.8,-51.79 -7.61,6.49 -15,13.26 -22.75,19.59 -13.02,-108.67 -28.36,-217.99 -63.79,-321.95 -20.96,-63.13 -50.08,-123.52 -86.4,-179.24 27.52,12.87 54.17,27.84 78.67,45.87 27.82,20.53 51.73,45.88 73.01,73.03 10.63,13.35 20.16,27.54 31.54,40.3 -20.89,-8.98 -41.12,-20.02 -63.4,-25.24 21.44,35.23 34.51,74.63 46.1,113.97 14.86,51.43 25.85,103.86 36.25,156.34 1.21,6.7 3.73,14.11 10.42,17.21 14.43,7.18 29.33,13.38 43.87,20.35 4.96,2.58 12.09,3.72 16.16,-1.05 5.25,-4.9 4.73,-12.62 5.41,-19.14 6.63,-95.13 6.11,-190.51 6.45,-285.8 -1.37,-33.46 0.23,-66.95 -1.17,-100.41 -0.02,-16.12 0.03,-32.23 0,-48.32 4.48,-4.57 9.12,-9.01 13.54,-13.65 -23.82,9.88 -43.96,27.09 -62.5,44.69 11.82,-60.83 22.15,-122.59 45.58,-180.3 11.93,-29.05 22.29,-58.97 38.2,-86.17zm-38.63 965.62c25.69,-0.45 51.4,-0.11 77.12,-0.18 -12.67,115.27 -25.67,230.49 -38.27,345.76 -5.07,-36.02 -8.18,-72.34 -12.5,-108.5 -8.87,-79.02 -17.39,-158.06 -26.35,-237.08zm-4.37 -40.73c28.69,-0.09 57.37,-0.04 86.06,-0.02 -0.94,9.87 -2.01,19.75 -3.04,29.62 -26.7,0.11 -53.42,0.07 -80.14,0.02 -1.05,-9.87 -2.15,-19.72 -2.88,-29.62zm8.76 -33.16c22.65,-0.07 45.32,-0.03 68,-0.03 0.02,7.43 0,14.86 -0.03,22.29 -22.65,-0.03 -45.3,0.02 -67.95,-0.03 -0.02,-7.4 -0.02,-14.83 -0.02,-22.23zm-9.12 -40.6c28.73,0 57.48,0.02 86.24,0 0.04,9.9 0.04,19.79 0,29.69 -28.76,0 -57.51,0.05 -86.27,-0.02 0,-9.9 0,-19.77 0.03,-29.67z"/>
   <path class="fil1" d="M1000.05 80l0.61 0c18.7,35.68 37.05,71.68 52.32,109.01 29.88,78.6 50.91,160.98 58.04,244.91 -19,-15.41 -37.63,-31.25 -56.69,-46.54 -6.74,133.08 -2.56,266.4 3.43,399.41 11.43,-6.54 25.53,-10.08 33.78,-20.94 7.2,-18.54 9.56,-38.53 14.97,-57.62 16.32,-61.24 37.03,-121.4 63.02,-179.2 -24.46,10.74 -48,23.5 -70.97,37.12 20.32,-51.66 55.66,-96.14 95.2,-134.52 48.82,-46.92 107.43,-82.88 169.67,-109.09l0 2.47c-38.7,65.92 -74.77,133.6 -103.84,204.32 -10.45,25.62 -19.32,51.93 -25.33,78.94 -22.9,97.49 -40.73,196.74 -43.84,297.01 -0.71,18.17 0.39,36.32 0.69,54.47 -1.08,0.59 -3.27,1.81 -4.37,2.4 -11.47,-22.4 -23.49,-44.62 -37.62,-65.49 -14.38,111.78 -28.23,223.62 -42.7,335.39 -1.73,-0.69 -3.47,-1.37 -5.21,-2.04 -4.64,-82.4 -10.67,-164.71 -15.38,-247.11 -27.96,178.97 -55,358.08 -82.61,537.1l-5.3 0c-27.91,-178.58 -54.65,-357.37 -82.61,-535.95 -5.76,82.4 -9.98,164.91 -16.32,247.27 -1.16,-0.03 -3.49,-0.03 -4.66,-0.05 -14.17,-111.57 -28.25,-223.15 -42.47,-334.72 -14.24,20.71 -25.69,43.15 -37.76,65.16 -1.12,-0.34 -3.36,-1.05 -4.5,-1.39 3.66,-64.98 -2.7,-130.06 -12.07,-194.33 -8.91,-59.18 -20.78,-117.9 -35.34,-175.93 -13.57,-49.19 -35.13,-95.68 -57.35,-141.44 -21.32,-42.56 -44.09,-84.39 -68.27,-125.37l0 -1.22c12.14,5.67 24.6,10.66 36.5,16.78 82.63,40.55 156.64,101.56 205.63,180.09 9.25,14.95 17.73,30.47 23.56,47.09 -23.04,-13.4 -46.37,-26.33 -70.81,-37.03 31.5,70.95 56.25,145.01 72.87,220.85 2.24,7.56 3.25,16.52 10.19,21.46 8.8,6.49 18.97,10.79 28.76,15.54 3.56,-75.54 5.78,-151.18 6.76,-226.79 0.96,-57.64 -1.12,-115.27 -3.29,-172.84 -18.97,15.4 -37.62,31.17 -56.61,46.51 5.82,-74.03 23.54,-146.76 47.61,-216.87 16.02,-47.63 39.59,-92.16 62.31,-136.82zm0.48 40.87l0 0zm0 0c-15.91,27.2 -26.27,57.12 -38.2,86.17 -23.43,57.71 -33.76,119.47 -45.58,180.3 18.54,-17.6 38.68,-34.81 62.5,-44.69 -4.42,4.64 -9.06,9.08 -13.54,13.65 0.03,16.09 -0.02,32.2 0,48.32 1.4,33.46 -0.2,66.95 1.17,100.41 -0.34,95.29 0.18,190.67 -6.45,285.8 -0.68,6.52 -0.16,14.24 -5.41,19.14 -4.07,4.77 -11.2,3.63 -16.16,1.05 -14.54,-6.97 -29.44,-13.17 -43.87,-20.35 -6.69,-3.1 -9.21,-10.51 -10.42,-17.21 -10.4,-52.48 -21.39,-104.91 -36.25,-156.34 -11.59,-39.34 -24.66,-78.74 -46.1,-113.97 22.28,5.22 42.51,16.26 63.4,25.24 -11.38,-12.76 -20.91,-26.95 -31.54,-40.3 -21.28,-27.15 -45.19,-52.5 -73.01,-73.03 -24.5,-18.03 -51.15,-33 -78.67,-45.87 36.32,55.72 65.44,116.11 86.4,179.24 35.43,103.96 50.77,213.28 63.79,321.95 7.75,-6.33 15.14,-13.1 22.75,-19.59 34.03,17.1 67.79,34.72 101.8,51.79 0.07,19.34 0.78,38.68 0.71,58.01 28.53,-0.09 57.05,0 85.56,-0.04 0.04,-19.22 0,-38.45 0.02,-57.67 33.96,-17.53 68.18,-34.58 102.08,-52.23 7.54,6.74 15.36,13.19 22.79,20.07 11.95,-99.29 25.73,-198.99 54.99,-294.9 21.9,-72.87 53.58,-142.88 95.25,-206.61 -34.45,16.3 -67.96,35.41 -96.85,60.46 -28.04,23.95 -51.34,52.84 -73,82.51 -4.26,5.56 -8.96,10.75 -13.24,16.3 20.76,-9.51 41.37,-19.61 63.45,-25.78 -18.21,29.99 -30.4,63.11 -40.84,96.45 -18.15,58.29 -30.4,118.18 -42.47,177.95 -1.1,6.58 -5.62,12.18 -11.75,14.74 -14.03,6.56 -28.21,12.82 -42.22,19.41 -5.09,2.79 -12.41,3.06 -16.32,-1.83 -4.2,-4.39 -4.02,-10.81 -4.59,-16.44 -5.05,-66.17 -5.53,-132.55 -6.42,-198.85 -0.28,-79.09 0.41,-158.15 1.11,-237.24 -4.73,-4.66 -9.3,-9.46 -13.44,-14.65 23.46,10.83 43.62,27.47 62.45,44.94 -12.34,-60.35 -22.08,-121.83 -45.44,-179.18 -11.86,-29.44 -22.63,-59.5 -38.44,-87.13zm-43.36 851.13l0 0zm0 0c-0.03,9.9 -0.03,19.77 -0.03,29.67 28.76,0.07 57.51,0.02 86.27,0.02 0.04,-9.9 0.04,-19.79 0,-29.69 -28.76,0.02 -57.51,0 -86.24,0zm9.12 40.6l0 0zm0 0c0,7.4 0,14.83 0.02,22.23 22.65,0.05 45.3,0 67.95,0.03 0.03,-7.43 0.05,-14.86 0.03,-22.29 -22.68,0 -45.35,-0.04 -68,0.03zm-8.76 33.16l0 0zm0 0c0.73,9.9 1.83,19.75 2.88,29.62 26.72,0.05 53.44,0.09 80.14,-0.02 1.03,-9.87 2.1,-19.75 3.04,-29.62 -28.69,-0.02 -57.37,-0.07 -86.06,0.02zm4.37 40.73l0 0zm0 0c8.96,79.02 17.48,158.06 26.35,237.08 4.32,36.16 7.43,72.48 12.5,108.5 12.6,-115.27 25.6,-230.49 38.27,-345.76 -25.72,0.07 -51.43,-0.27 -77.12,0.18z"/>
  </g>
 </g>
</svg>
