<?xml version="1.0" encoding="UTF-8"?>
<!DOCTYPE svg PUBLIC "-//W3C//DTD SVG 1.1//EN" "http://www.w3.org/Graphics/SVG/1.1/DTD/svg11.dtd">
<!-- Creator: CorelDRAW -->
<svg xmlns="http://www.w3.org/2000/svg" xml:space="preserve" width="2000px" height="1600px" version="1.1" style="shape-rendering:geometricPrecision; text-rendering:geometricPrecision; image-rendering:optimizeQuality; fill-rule:evenodd; clip-rule:evenodd"
viewBox="0 0 2000 1600"
 xmlns:xlink="http://www.w3.org/1999/xlink">
 <defs>
  <style type="text/css">
   <![CDATA[
    .fil1 {fill:black;fill-rule:nonzero}
    .fil0 {fill:#A31F37;fill-rule:nonzero}
    .fil2 {fill:#FEFEFE;fill-rule:nonzero}
   ]]>
  </style>
 </defs>
 <g id="Capa_x0020_1">
  <metadata id="CorelCorpID_0Corel-Layer"/>
  <g id="Arkansas_x0020_Razorbacks.cdr">
   <path class="fil0" d="M180.52 762.82c9.46,-9.38 22.93,-13.74 36.09,-13.39 20.11,0.28 40.16,7.01 56.58,18.52 3.71,10.59 7.49,21.33 14.55,30.29 -25.42,8.41 -53.68,7.72 -78.76,-1.57 -9.54,-3.31 -17.28,-10.56 -27.24,-12.79 -8.38,-2.21 -17.2,-1.46 -25.41,1.09 6.63,0.23 13.45,0.36 19.63,2.99 7.68,2.98 13.82,8.7 21.22,12.19 16.06,7.79 33.95,10.61 51.58,12.32 -19.18,8.38 -42.23,6.83 -60.49,-3.23 -7.11,-3.74 -13.09,-9.34 -20.45,-12.64 -9.99,-4.67 -20.95,-6.72 -31.82,-8.14 8.47,-11.44 23.56,-16.73 37.46,-14.87 10.25,0.89 19.54,6.18 29.84,6.58 7.16,0.33 14.31,-0.73 21.28,-2.23 -13.03,-8.91 -28.92,-11.81 -44.06,-15.12zm1091.46 231.82c3.42,1.41 6.86,2.83 10.31,4.23 -4.58,7.71 -5.4,16.82 -8.88,24.97 -9.77,24.55 -30.73,43.06 -54.43,53.85 -14.37,6.58 -30.77,13.06 -38.05,28.28 -5.59,12.37 -12.88,24.53 -24.44,32.18 -10.87,7.57 -24.53,10.48 -37.6,9.03 -14.64,-1.46 -29.27,-2.96 -43.91,-4.51 3.35,-5.28 6.96,-10.39 10.82,-15.3 14.37,1.24 28.69,3.49 43.15,3.92 15.17,0.37 29.17,-9.45 35.93,-22.69 4.38,-8.68 8.44,-17.77 15.49,-24.68 12.12,-12.57 29.59,-17.06 44.12,-25.99 23.28,-13.95 40.2,-37.28 47.49,-63.29zm218.58 -298.34c1.23,-2.83 4.6,-7.66 7.81,-4.41 -1.75,5.02 -4.81,9.82 -3.58,15.51 -2.53,-3.06 -6.04,-6.77 -4.23,-11.1zm-36.73 -20.13c2.41,0.36 4.86,0.75 7.31,1.11 0.38,11.81 2.86,23.36 7.33,34.29 -9.33,-9.36 -13.94,-22.37 -14.64,-35.4zm2.9 -7.56c5.64,-1.29 11.34,-2.73 17.18,-2.8 2.67,1.83 4.68,4.41 6.86,6.76 -8.04,-1.18 -16.05,-2.58 -24.04,-3.96zm-139.46 -232.59c10.33,13.71 21.6,26.68 33.51,39.03 -2.75,-1.26 -5.52,-2.54 -8.25,-3.83 0,3.5 0.05,7 0.09,10.49 -9.29,-4.41 -18.19,-9.62 -27.58,-13.8 0.1,-10.66 0.97,-21.3 2.23,-31.89zm-67.78 9.01c21.91,18.73 44.47,37.13 70.11,50.55 33.26,18.6 66.41,39.48 90.4,69.64 -1.34,-15.25 -12.57,-26.93 -23.31,-36.72 -8.46,-7.54 -17.6,-14.25 -26.97,-20.58 -0.02,-2.5 -0.02,-4.98 0.01,-7.47 11.36,6.42 21.92,14.17 31.94,22.52 0.63,-4.39 1.32,-8.79 2,-13.18 11.46,7.84 22.28,16.53 32.8,25.57 0.35,-3.39 0.7,-6.79 1.07,-10.17 45.59,30.09 88.83,64.34 125.22,105.27 22.74,24.94 42.54,52.77 68.28,74.86 17.34,15.11 37.15,27.03 57.6,37.42 29.8,16.17 60.03,31.69 88.63,49.94 -16.43,13.63 -30.14,31.8 -33.67,53.3 15.51,-14.91 32.42,-29.41 52.99,-36.7 8.11,-3.07 16.97,-3.4 25.39,-1.54 -18.91,13.63 -35.01,32.36 -41.89,54.94 17.36,-15.77 35.91,-30.69 57.13,-40.98 11.45,-5.33 24.13,-9.74 36.93,-7.83 7.73,1.18 15.5,6.08 17.85,13.89 2.38,10.32 -2.4,21.71 -11.29,27.44 -7.41,4.78 -15.17,9.82 -24.09,11.01 -27.61,4.39 -55.32,12.14 -79.1,27.27 -7.26,5.11 -15.58,10.59 -18.43,19.47 -1.42,3.73 2.33,7.41 6.06,6.79 11.49,-1.23 21.58,-7.78 30.87,-14.27 6.01,-4.79 13.79,-9.89 13.96,-18.48 12.33,-5.93 25.07,-11.21 38.46,-14.29 -12.97,6.98 -25.08,15.67 -35.32,26.26 -11.17,11.62 -22.23,24.03 -36.7,31.64 -8.35,4.46 -18.68,5.53 -27.4,1.48 -11.89,-5.05 -19.14,-16.32 -29.01,-24.08 -28.74,-22.91 -58.91,-43.97 -89.43,-64.42 3.44,-13.32 4.51,-27.09 5.19,-40.83 1.4,-17.65 5.8,-34.87 8.48,-52.34 -11.64,6.98 -24.13,12.91 -34.05,22.33 -10.05,9.06 -18.21,20.02 -24.53,31.92 -9.86,-23.22 -23.23,-46.3 -44.6,-60.71 -4.37,-3.26 -11.07,-4.91 -15.51,-0.91 -4.72,3.69 -4.72,11.15 -0.77,15.42 9.41,11.92 14.65,26.46 17.88,41.16 -19.91,-4.48 -40.46,-7.11 -60.84,-4.91 -10.69,1.3 -22.05,5.19 -28.57,14.25 -4.42,6.04 -4.53,13.89 -3.4,20.98 1.73,-4.48 2.96,-9.34 6.21,-13.02 6.18,-7.13 15.27,-10.87 24.19,-13.25 20.39,-5.2 41.65,-4.75 62.48,-3.34 0.83,4.6 1.62,9.21 2.38,13.84 -20.66,-1.8 -41.79,-2.41 -62.09,2.6 -7.84,2.2 -16.64,5.08 -21.12,12.44 -3.46,6.99 -0.88,15.77 4.12,21.36 6.71,6.91 16.63,9.41 25.92,10.36 7.68,0.96 16.06,-0.58 23.02,3.63 15.88,8.76 26.37,25.16 43.46,32.09 14.95,6.29 31.45,1.81 47,4.46 7.03,0.93 12.36,6.06 18.2,9.59 24.2,15.35 48.49,31 75.13,41.81 10.58,4.01 23.13,8.06 33.89,2.48 4.84,-2.25 6.18,-7.81 8.02,-12.3 4.8,7.26 8.28,16.5 4.57,25.01 -4.63,10.54 -12.61,20.01 -22.67,25.71 -7.94,4.47 -17.35,2.21 -25.22,-1.12 -23.48,-9.14 -45.39,-21.86 -68.91,-30.87 -25.57,-8.71 -53.35,-8.58 -79.82,-4.61 -15.42,2.09 -29.97,7.87 -45.09,11.3 -17.92,4.65 -36,9.94 -54.72,9.16 -10.69,0.55 -20.81,-4.46 -31.52,-3.25 -15.25,1.04 -30.52,3.08 -45.24,7.26 -8.49,2.19 -15.84,8.08 -24.86,8.11 -15.02,-0.26 -30.36,-0.7 -44.73,-5.51 -23.26,-7.23 -43.31,-23.23 -56.53,-43.56 -14.97,-22.38 -21.91,-48.87 -26.34,-75.11 -1.93,37.96 7.01,78.76 32.97,107.7 -11.79,22.04 -27.86,42.14 -48.42,56.58 -26.51,19.15 -59.38,27.51 -84.72,48.5 -20.92,16.56 -35.89,38.95 -50.51,60.93 -10.44,15.55 -23.84,31.32 -43.06,35.45 -16.2,4.45 -33.15,-0.03 -47.64,-7.61 -21.38,-10.37 -39.69,-25.69 -58.66,-39.69 -14.27,-4.45 -29.89,0.13 -44.27,-3.87 -12.89,-6.41 -22.17,-17.88 -33.39,-26.59 -16.57,-10.51 -33.77,-20.01 -50.19,-30.75 10.73,0.29 21.71,0.61 32.01,3.96 9.04,4.58 17.4,10.42 26.17,15.48 10.62,6.28 18.08,16.51 28.14,23.45 14.16,2.28 29.03,-0.43 43.03,3.53 8.19,2.63 14.59,8.72 21.51,13.57 15.97,11.61 32.09,23.4 50.22,31.44 10.59,5.01 23.53,4.74 33.89,-0.7 7.64,-4.33 13.27,-11.32 18.43,-18.27 10.67,-14.87 20.3,-30.52 31.7,-44.86 5.27,-6.72 11.73,-12.37 17.49,-18.65 -23.01,8.75 -39.27,28.41 -54.14,47.13 -6.84,7.92 -14.83,16.96 -26.04,17.65 -16.1,1.03 -30.49,-8.15 -42.46,-17.9 -12.77,-10.14 -24.18,-23.21 -40.44,-27.69 -12.61,-3.58 -23.23,-11.59 -32.61,-20.48 14.39,0.89 28.71,-1.3 42.91,-3.32 70.74,-11.02 138.73,-40.53 194.56,-85.39 -9.96,-10.17 -23.51,-15.55 -36.89,-19.58 -28.47,-8.16 -57.96,-11.92 -86.6,-19.41 -26.52,-6.56 -52.53,-16.32 -75.3,-31.66 1.44,-5.29 3.25,-11.27 0.37,-16.43 -5.41,-9.94 -16.72,-14.41 -26.93,-17.72 -15.86,-5.34 -32.95,-4.66 -49.28,-2.16 -9.84,-12.21 -15.06,-27.7 -15.42,-43.33 -1.07,-19.45 3.18,-38.68 9.06,-57.1 -20.38,17.72 -24.8,46.79 -23.65,72.4 -10.95,1.47 -22.93,1.32 -32.48,-4.93 -8.71,-5.41 -12.33,-15.5 -18.24,-23.39 -17.37,-24.21 -41.76,-41.96 -65.39,-59.58 -13.05,-9.59 -24.46,-21.15 -35.85,-32.62 -3.11,9.12 -0.28,18.97 6.08,25.96 17.25,19.87 39.63,34.45 57.26,53.97 14.42,15.46 26.75,34.03 30.19,55.28 3.12,16.5 0.24,33.57 -5.61,49.14 -10.34,4.46 -20.51,9.27 -30.9,13.6 13.4,-22.03 23.69,-48.47 17.21,-74.5 -6.19,-27.32 -30.25,-46.82 -55.98,-55.08 17.8,16.78 36.14,36.35 39.77,61.56 2.53,16.33 -6.88,31.44 -18.92,41.58 4.35,0.41 8.71,0.85 13.05,1.33 -5.42,10.04 -15,16.82 -23.96,23.48 4.02,0.93 8.05,1.81 12.07,2.73 -13.28,11.42 -29.05,19.62 -45.42,25.68 -4.2,1.34 -8.71,3.56 -13.14,1.88 -23.33,-6.73 -46.49,-19.45 -59.26,-40.85 -6.89,-10.7 -9.56,-23.38 -10.77,-35.88 -6.56,11.55 -9.29,25.79 -4.75,38.56 4.36,13.39 14.9,23.43 25.85,31.71 -6.27,-1.02 -12.49,-2.19 -18.72,-3.32 1.3,4.98 2.33,10.76 7.09,13.69 8.18,5.59 15.34,14.24 25.83,15.04 18.1,1.5 36.2,-1.7 53.66,-6.25 28.2,-7.57 55.1,-19.3 81,-32.67 32.72,-17.5 67.12,-33.4 104.05,-39.21 19,-2.68 40.26,-2.95 56.76,8.32 -7.14,2.67 -14.35,5.13 -21.54,7.63 1.21,4.06 2.43,8.14 3.66,12.22 -5.78,2.95 -12.07,5.03 -17.28,8.98 1.6,8.97 4.06,17.76 5.91,26.69 -5.55,2.23 -11.07,4.51 -16.57,6.84 3.2,14.34 -5.44,27.31 -13.94,37.95 -7.57,9.76 -16.3,18.9 -21.58,30.21 -3.48,6.66 -0.05,14.08 0.99,20.91 -21.4,-10.29 -46.11,-10.19 -68.91,-5.31 -31.28,6.51 -60.64,19.73 -89.2,33.72 -35.05,17.3 -68.83,37.05 -104.02,54.08 -16.78,7.96 -33.95,15.67 -52.28,19.27 -9.98,1.9 -21.08,2.28 -30.09,-3.12 -10.66,-6.62 -18.87,-17.18 -22.42,-29.24 -3.82,-12.63 -3.21,-26.06 -1.96,-39.04 2.13,-21.3 5.66,-42.63 4.21,-64.11 -1.13,-19.1 -6.61,-38 -16.53,-54.4 -4.7,-6.78 -11.18,-12.07 -16.17,-18.62 -12.24,-15.22 -23.06,-33.28 -23.05,-53.43 -10.15,-11.17 -19.39,-23.93 -22.66,-38.97 -2.46,-9.84 -2.31,-22.01 -11.72,-28.29 -23.06,-15.68 -54.3,-17.86 -73.38,-39.73 -19.27,-21.38 -17.59,-56.81 2.15,-77.32 15.81,-17.55 43.11,-22.97 64.44,-12.84 12.47,5.64 22.56,15.95 28.35,28.31 -6.22,9.14 -10.09,19.88 -17.4,28.25 -6.16,7 -16.33,6.16 -24.34,3.33 1.05,-4.41 3.01,-9.27 0.56,-13.6 -3.29,-7.03 -13.98,-8.64 -19.13,-2.8 -4.91,4.71 -4.16,13.37 1.08,17.54 11.16,9.54 27.78,15.91 41.78,8.75 11.34,-5.38 15.89,-17.75 22.05,-27.77 25.31,-42.94 58.79,-82.56 102.72,-107.25 28.26,-16.29 59.78,-25.44 90.7,-35.17 30.5,-7.54 61.89,-11.09 93.25,-12.54 -4.3,-3.68 -8.51,-7.44 -12.63,-11.32 18.6,-3.78 37.54,-5.25 56.44,-6.61 -4.02,-3.9 -8.23,-7.58 -12.46,-11.22 18.88,-3.3 37.97,-5.71 57.15,-6.2 -3.81,-3.61 -7.66,-7.21 -11.47,-10.8 18.71,-3.22 37.59,-5.75 56.61,-6.37 -4.16,-4.32 -8.56,-8.4 -12.97,-12.47 18.66,-3.64 37.63,-5.53 56.61,-6.54 -4.29,-4.3 -8.56,-8.61 -12.7,-13.02 18.98,-2.58 38.15,-3.38 57.29,-3.52 -4.17,-4.47 -8.29,-9 -12.38,-13.53 19.21,-1.87 38.58,-1.79 57.86,-1.19 -3.75,-4.82 -7.53,-9.62 -11.24,-14.47 19.07,-0.26 38.18,0.59 57.11,2.95 -3.18,-5.21 -6.37,-10.4 -9.57,-15.6 19,1.85 37.86,5.01 56.48,9.27 -2.48,-5.57 -4.98,-11.14 -7.38,-16.73 18.67,4.33 36.94,10.16 54.87,16.87 -2.03,-5.76 -4.08,-11.52 -6.08,-17.3 18.32,5.61 35.89,13.28 53.19,21.43 -1.58,-6.25 -3.25,-12.46 -4.83,-18.69 17.86,8 34.5,18.39 50.95,28.93 -0.67,-6.01 -1.4,-12.04 -2.06,-18.05 16.25,9.41 31.53,20.41 46.3,31.98 3.68,3.02 7.85,5.67 10.69,9.58 2.7,7.14 3.77,14.8 5.95,22.13 -12.94,-11.67 -26.41,-22.85 -40.95,-32.49 2,6.7 4.2,13.32 6.31,20 -15.42,-11.24 -31.07,-22.23 -48.19,-30.77 1.97,8.36 4.3,16.63 6.4,24.96 -16.89,-8.13 -33.35,-17.14 -50.49,-24.71 2.15,5.94 4.23,11.92 6.13,17.96 -17.45,-6.75 -34.6,-14.3 -52.27,-20.48 2.2,5.05 4.45,10.06 6.6,15.12 -17.29,-4.13 -34.34,-9.24 -51.76,-12.77 3.07,5.23 6.28,10.36 9.51,15.5 -18.17,-2.44 -36.22,-5.79 -54.47,-7.49 3.68,4.93 7.5,9.76 11.23,14.65 -18.82,-0.38 -37.6,-1.59 -56.42,-2.11 4.88,5.63 9.93,11.11 14.96,16.58 -36.35,2.99 -72.37,8.98 -108.17,15.77 6.89,6.31 13.97,12.41 20.86,18.72 -37.23,8.29 -73.43,21.78 -106.68,40.44 43.92,-15.6 89.55,-26.22 135.79,-32.18 -6.33,-5.83 -13.02,-11.24 -19.27,-17.15 35.87,-7.21 72.59,-10.68 109.17,-9.39 -4.86,-5.27 -9.91,-10.36 -14.59,-15.81 19.3,1.65 38.53,3.85 57.82,5.65 -3.65,-4.7 -7.41,-9.31 -11.09,-13.97 18.4,2.86 36.68,6.56 55.03,9.79 -3.11,-4.55 -6.26,-9.06 -9.24,-13.69 19.7,6.23 38.81,14.21 58.26,21.18 -1.96,-4.76 -4.05,-9.46 -6.13,-14.17 18.45,7.05 36.54,14.97 54.87,22.28 -1.83,-5.58 -3.75,-11.15 -5.48,-16.77 29.02,11.83 56.25,27.79 81.59,46.18 12.01,8.89 24.16,17.73 34.95,28.11 10.86,12.62 23.81,23.97 39.42,30.3 9.37,3.73 20.64,1.92 27.8,-5.38 -8.99,0.1 -18.45,0.42 -26.62,-3.93 -22.95,-11.39 -38.33,-33.4 -49.11,-55.95 -16.55,-35.95 -24.36,-75.38 -27.6,-114.64zm48.2 54.7l0 0zm0 0c4.4,10.69 11.06,20.26 18.62,28.96 -1.07,9.87 2.53,19.51 9.51,26.5 -2.69,7.75 -3.72,16.52 -0.19,24.2 4.95,10.47 13.21,19.12 22.66,25.69 0.49,-4.11 0.94,-8.21 1.42,-12.3 8.29,2.09 15.74,6.41 22.65,11.35 -0.87,-4.53 -1.72,-9.04 -2.52,-13.57 8.98,2.28 17.24,6.53 24.89,11.64 -8.19,-21.11 -23.09,-38.7 -38.76,-54.66 -18,-17.59 -37.53,-33.61 -58.28,-47.81zm179.64 85.42l0 0zm0 0c12.13,16.85 26.54,31.95 41.54,46.27 -8.48,-3.48 -17.08,-6.72 -26.09,-8.52 4.44,5.83 9.71,10.97 15.35,15.63 17.05,14.24 37.23,26.31 59.81,28.33 -24.04,-32.97 -52.08,-65.62 -90.61,-81.71zm-420.37 27.16l0 0zm0 0c3.37,5.24 6.83,10.42 10.33,15.6 -27.99,-0.88 -56.18,3.46 -82.43,13.26 32.54,-3 66.13,-3.75 97.63,6.34 -0.87,-3.21 -1.83,-6.41 -2.73,-9.59 28.17,9.67 54.38,25.48 75.2,46.87 1.43,-5.68 2.36,-11.47 3.11,-17.28 9.44,14.87 17.07,30.75 25.44,46.2 2.28,-5.24 4.4,-10.54 6.61,-15.81 2.15,8.94 9.51,18.08 5.05,27.42 -7.49,22.23 -6.38,47.36 3.45,68.7 1.29,-29.15 6.32,-60.26 25.89,-83.15 -9.71,-25.06 -21.6,-49.94 -39.9,-69.94 -0.31,5.85 -0.58,11.71 -0.75,17.55 -10.7,-15.9 -24.31,-29.74 -39.93,-40.84 1.65,8.7 2.92,17.5 3.53,26.36 -27.49,-16.67 -58.38,-28.51 -90.5,-31.69zm344.68 4.66l0 0zm0 0c25.35,3.38 47.03,19.05 63.28,38.07 -4.21,-0.44 -8.74,-0.05 -12.52,-2.25 -11.39,-6.35 -23.21,-12.29 -36.04,-15.09 7.23,5.8 15.01,10.99 21.39,17.8 2.74,3.03 6.36,6.15 6.01,10.68 0.88,20.13 4.71,42.31 19.91,56.86 10.46,10.17 26.04,11.59 39.83,9.46 -3.46,-1.93 -6.91,-3.87 -10.36,-5.81 13.31,0.93 26.41,-3.12 37.2,-10.84 16.29,6.79 34.55,7.76 51.65,3.66 -8.65,-0.8 -17.26,-2.6 -25.14,-6.36 -22.53,-10.36 -40.71,-28.08 -56.21,-47.08 -11.88,-14.81 -25.85,-28.25 -42.43,-37.66 -16.95,-9.67 -37.07,-15.09 -56.57,-11.44zm-891.37 30.12l0 0zm0 0c-40.78,23.46 -71.7,60.68 -95.3,100.78 -6.47,10.54 -11.29,22.81 -21.73,30.2 -12.82,8.83 -29.78,9.89 -44.42,5.43 -12.66,-4.06 -24.84,-10.87 -33.75,-20.85 -8.51,-9.74 -8.28,-23.73 -4.2,-35.33 -10.04,15.67 -10.02,37.75 2.27,52.22 11.19,13.09 28.4,18.05 43.79,24.37 14.42,5.78 30.74,11.83 38.71,26.2 6.93,11.29 5.61,25.31 11.44,37.01 4.43,9.46 11.71,17.1 18.85,24.56 -2.95,15.94 5.68,31.03 14.52,43.58 7.79,11.54 19.43,19.95 26.19,32.24 13.06,21.98 15.47,48.25 15.44,73.3 -0.25,22.94 -5.9,45.55 -5.08,68.53 0.28,11.91 5.11,23.8 14.12,31.72 5.78,4.28 13.45,3.1 20.12,2.37 20.21,-3.15 39.11,-11.48 57.56,-19.95 54.17,-25.56 105.33,-57.61 161.82,-78.13 26.87,-9.39 56.21,-16.63 84.5,-9.32 -9.47,-18.1 -29.6,-26.88 -48.89,-29.91 4.13,3.88 8.3,7.76 12.37,11.72 -18.5,-3.68 -37.71,-2.68 -55.78,2.6 4.62,2.86 9.34,5.55 14.01,8.36 -18.57,-0.67 -37.65,1.28 -54.5,9.59 5.21,2.22 10.44,4.38 15.7,6.49 -18.88,0.57 -37.58,6.02 -53.72,15.86 2.38,0.83 4.8,1.69 7.21,2.53 -16.42,2.03 -32.23,8.52 -45.12,18.91 1.61,0.35 4.86,1.07 6.49,1.42 -31.27,15.87 -62.82,31.89 -96.46,42.14 -6.31,1.29 -15.75,5.32 -19.5,-2.29 -6.83,-12.64 -4.16,-27.63 -3.1,-41.28 2.09,2.76 4.13,5.54 6.25,8.29 3.61,-17.32 3.68,-35.65 -1.6,-52.65 3.61,4.16 7.33,8.22 11.16,12.17 -0.19,-20.08 -5.55,-39.96 -15.61,-57.36 5.58,2.53 11.09,5.23 16.66,7.81 -6.95,-19.6 -19.59,-36.67 -33.67,-51.72 -8.45,-8.16 -15.29,-18.12 -19.12,-29.24 -2.23,-6.18 -0.03,-12.72 0.83,-18.93 -6.91,-8.31 -15.23,-15.82 -19.06,-26.2 -3.81,-7.39 -3.55,-15.8 -4.61,-23.81 -3.53,-6.66 -7.96,-13.25 -7.95,-21.11 -1.11,-8.09 2.88,-15.44 4.82,-22.98 -5.03,-12.51 -7.8,-26.11 -5.63,-39.58 5.79,7.28 11.09,14.92 16.5,22.48 -4.68,-18.13 -5.03,-37.08 -3.08,-55.63 3.41,3.26 6.77,6.57 10.14,9.89 0.68,-12.82 2.05,-26.19 8.08,-37.73 2.46,2.74 4.37,5.92 6.29,9.09 6.01,-15.81 14.64,-30.61 25.49,-43.56 0.67,3.18 1.33,6.37 2,9.59 21.28,-31.11 56.25,-48.61 90,-62.88 -24.71,7.15 -49.17,15.99 -71.45,28.99zm-180.95 64.71l0 0zm0 0c9.32,-1.37 19.22,-1.08 27.73,3.4 9.82,4.53 16.76,13.33 21.17,22.99 1.8,-3.03 3.62,-6.06 5.47,-9.06 -10.59,-18.21 -35.17,-26.69 -54.37,-17.33zm907.66 107.72l0 0zm0 0c-0.68,14.3 4.35,28.25 11.67,40.34 4.93,7.11 2.67,16.27 5.53,24.11 6.35,21.13 23.41,36.54 41.18,48.43 -14.15,6.66 -29.66,0.76 -43.11,-4.72 4.68,9.25 10.56,18.12 18.98,24.35 17.75,13.6 40.9,17.45 62.74,17.22 8.83,0.23 16.67,-4.13 24.93,-6.53 18.85,-5.73 38.45,-9.34 58.18,-9.74 7.43,-0.29 14.37,2.99 21.76,3.31 19.67,1.18 38.62,-5 57.45,-9.66 9.97,-2.43 19.63,-6.03 29.69,-8.17 28.26,-6.21 57.9,-7.33 86.29,-1.24 11.32,2.35 21.98,6.88 32.95,10.43 -12.32,-10.78 -27.59,-17.69 -43.39,-21.56 -31.71,-7.9 -65.03,-4.02 -96.31,3.92 -14.34,3.27 -28.54,7.93 -43.33,8.5 -22.95,-0.24 -47.07,-5.4 -65.01,-20.55 1.97,7.04 5.21,13.62 9.11,19.8 -19.3,1.63 -40.65,-2.1 -54.68,-16.49 -8.73,-0.08 -17.79,-1.08 -25.21,-6.02 -5.7,-3 -8.99,-8.7 -13.56,-12.93 -5.21,-3.19 -11.24,-5.28 -15.4,-9.95 -4.98,-4.68 -7.29,-11.26 -9.01,-17.69 -4.23,-2.26 -8.65,-4.36 -12.07,-7.79 -7.19,-6.91 -9.17,-17.09 -9.82,-26.63 -5.02,-3.29 -9.76,-7.31 -12.33,-12.87 -7.09,-14 -5.47,-30.17 -3.66,-45.21 -7.62,10.99 -12.99,23.85 -13.57,37.34zm-421.96 103.88l0 0zm0 0c-30.39,12.16 -59.56,27.08 -89.52,40.25 -26.55,11.56 -53.88,22.6 -82.84,26.18 -11.24,1.56 -22.56,0.28 -33.82,-0.12 17.54,7.04 36.92,7.14 55.47,5.33 36.05,-4.13 70.4,-17.19 102.92,-32.84 25.31,-12.55 51.17,-24.19 78.18,-32.58 -0.6,6.41 0.47,12.83 3.11,18.73 -1.95,3.99 -4.64,8.07 -4.13,12.74 0.12,4.64 3.62,8.02 6.18,11.54 0.58,-4.67 0.02,-9.98 3.15,-13.88 2.76,-3.88 7.51,-5.39 11.57,-7.46 -1.31,-8.07 -5.93,-16.73 -1.98,-24.71 2.26,-5.04 7.76,-7.02 12.32,-9.4 0.02,-2.93 0.05,-5.85 0.1,-8.75 -21.05,0.7 -41.26,7.35 -60.71,14.97zm-606.02 -163.78l0 0zm0 0c9.92,3.82 19.68,8.28 28.16,14.82 7.17,-1.4 14.37,-2.8 21.58,-4.08 -15.24,-7.86 -32.52,-12.49 -49.74,-10.74zm-0.93 29.37l0 0zm0 0c19.61,7.23 41.22,8.61 61.67,4.42 -1.5,-3.65 -2.76,-7.46 -4.91,-10.81 -3.73,-1.46 -7.84,-1.07 -11.74,-0.86 -15.17,1.26 -30.07,4.54 -45.02,7.25z"/>
   <path class="fil1" d="M1401.64 616.97c19.5,-3.65 39.62,1.77 56.57,11.44 16.58,9.41 30.55,22.85 42.43,37.66 15.5,19 33.68,36.72 56.21,47.08 7.88,3.76 16.49,5.56 25.14,6.36 -17.1,4.1 -35.36,3.13 -51.65,-3.66 -10.79,7.72 -23.89,11.77 -37.2,10.84 3.45,1.94 6.9,3.88 10.36,5.81 -13.79,2.13 -29.37,0.71 -39.83,-9.46 -15.2,-14.55 -19.03,-36.73 -19.91,-56.86 0.35,-4.53 -3.27,-7.65 -6.01,-10.68 -6.38,-6.81 -14.16,-12 -21.39,-17.8 12.83,2.8 24.65,8.74 36.04,15.09 3.78,2.2 8.31,1.81 12.52,2.25 -16.25,-19.02 -37.93,-34.69 -63.28,-38.07zm-586.62 306.43c19.45,-7.62 39.66,-14.27 60.71,-14.97 -0.05,2.9 -0.08,5.82 -0.1,8.75 -4.56,2.38 -10.06,4.36 -12.32,9.4 -3.95,7.98 0.67,16.64 1.98,24.71 -4.06,2.07 -8.81,3.58 -11.57,7.46 -3.13,3.9 -2.57,9.21 -3.15,13.88 -2.56,-3.52 -6.06,-6.9 -6.18,-11.54 -0.51,-4.67 2.18,-8.75 4.13,-12.74 -2.64,-5.9 -3.71,-12.32 -3.11,-18.73 -27.01,8.39 -52.87,20.03 -78.18,32.58 -32.52,15.65 -66.87,28.71 -102.92,32.84 -18.55,1.81 -37.93,1.71 -55.47,-5.33 11.26,0.4 22.58,1.68 33.82,0.12 28.96,-3.58 56.29,-14.62 82.84,-26.18 29.96,-13.17 59.13,-28.09 89.52,-40.25zm421.96 -103.88c0.58,-13.49 5.95,-26.35 13.57,-37.34 -1.81,15.04 -3.43,31.21 3.66,45.21 2.57,5.56 7.31,9.58 12.33,12.87 0.65,9.54 2.63,19.72 9.82,26.63 3.42,3.43 7.84,5.53 12.07,7.79 1.72,6.43 4.03,13.01 9.01,17.69 4.16,4.67 10.19,6.76 15.4,9.95 4.57,4.23 7.86,9.93 13.56,12.93 7.42,4.94 16.48,5.94 25.21,6.02 14.03,14.39 35.38,18.12 54.68,16.49 -3.9,-6.18 -7.14,-12.76 -9.11,-19.8 17.94,15.15 42.06,20.31 65.01,20.55 14.79,-0.57 28.99,-5.23 43.33,-8.5 31.28,-7.94 64.6,-11.82 96.31,-3.92 15.8,3.87 31.07,10.78 43.39,21.56 -10.97,-3.55 -21.63,-8.08 -32.95,-10.43 -28.39,-6.09 -58.03,-4.97 -86.29,1.24 -10.06,2.14 -19.72,5.74 -29.69,8.17 -18.83,4.66 -37.78,10.84 -57.45,9.66 -7.39,-0.32 -14.33,-3.6 -21.76,-3.31 -19.73,0.4 -39.33,4.01 -58.18,9.74 -8.26,2.4 -16.1,6.76 -24.93,6.53 -21.84,0.23 -44.99,-3.62 -62.74,-17.22 -8.42,-6.23 -14.3,-15.1 -18.98,-24.35 13.45,5.48 28.96,11.38 43.11,4.72 -17.77,-11.89 -34.83,-27.3 -41.18,-48.43 -2.86,-7.84 -0.6,-17 -5.53,-24.11 -7.32,-12.09 -12.35,-26.04 -11.67,-40.34zm-1028.91 -30.53c14.95,-2.71 29.85,-5.99 45.02,-7.25 3.9,-0.21 8.01,-0.6 11.74,0.86 2.15,3.35 3.41,7.16 4.91,10.81 -20.45,4.19 -42.06,2.81 -61.67,-4.42zm0.93 -29.37c17.22,-1.75 34.5,2.88 49.74,10.74 -7.21,1.28 -14.41,2.68 -21.58,4.08 -8.48,-6.54 -18.24,-11 -28.16,-14.82zm120.32 -47.82c19.2,-9.36 43.78,-0.88 54.37,17.33 -1.85,3 -3.67,6.03 -5.47,9.06 -4.41,-9.66 -11.35,-18.46 -21.17,-22.99 -8.51,-4.48 -18.41,-4.77 -27.73,-3.4zm180.95 -64.71c22.28,-13 46.74,-21.84 71.45,-28.99 -33.75,14.27 -68.72,31.77 -90,62.88 -0.67,-3.22 -1.33,-6.41 -2,-9.59 -10.85,12.95 -19.48,27.75 -25.49,43.56 -1.92,-3.17 -3.83,-6.35 -6.29,-9.09 -6.03,11.54 -7.4,24.91 -8.08,37.73 -3.37,-3.32 -6.73,-6.63 -10.14,-9.89 -1.95,18.55 -1.6,37.5 3.08,55.63 -5.41,-7.56 -10.71,-15.2 -16.5,-22.48 -2.17,13.47 0.6,27.07 5.63,39.58 -1.94,7.54 -5.93,14.89 -4.82,22.98 -0.01,7.86 4.42,14.45 7.95,21.11 1.06,8.01 0.8,16.42 4.61,23.81 3.83,10.38 12.15,17.89 19.06,26.2 -0.86,6.21 -3.06,12.75 -0.83,18.93 3.83,11.12 10.67,21.08 19.12,29.24 14.08,15.05 26.72,32.12 33.67,51.72 -5.57,-2.58 -11.08,-5.28 -16.66,-7.81 10.06,17.4 15.42,37.28 15.61,57.36 -3.83,-3.95 -7.55,-8.01 -11.16,-12.17 5.28,17 5.21,35.33 1.6,52.65 -2.12,-2.75 -4.16,-5.53 -6.25,-8.29 -1.06,13.65 -3.73,28.64 3.1,41.28 3.75,7.61 13.19,3.58 19.5,2.29 33.64,-10.25 65.19,-26.27 96.46,-42.14 -1.63,-0.35 -4.88,-1.07 -6.49,-1.42 12.89,-10.39 28.7,-16.88 45.12,-18.91 -2.41,-0.84 -4.83,-1.7 -7.21,-2.53 16.14,-9.84 34.84,-15.29 53.72,-15.86 -5.26,-2.11 -10.49,-4.27 -15.7,-6.49 16.85,-8.31 35.93,-10.26 54.5,-9.59 -4.67,-2.81 -9.39,-5.5 -14.01,-8.36 18.07,-5.28 37.28,-6.28 55.78,-2.6 -4.07,-3.96 -8.24,-7.84 -12.37,-11.72 19.29,3.03 39.42,11.81 48.89,29.91 -28.29,-7.31 -57.63,-0.07 -84.5,9.32 -56.49,20.52 -107.65,52.57 -161.82,78.13 -18.45,8.47 -37.35,16.8 -57.56,19.95 -6.67,0.73 -14.34,1.91 -20.12,-2.37 -9.01,-7.92 -13.84,-19.81 -14.12,-31.72 -0.82,-22.98 4.83,-45.59 5.08,-68.53 0.03,-25.05 -2.38,-51.32 -15.44,-73.3 -6.76,-12.29 -18.4,-20.7 -26.19,-32.24 -8.84,-12.55 -17.47,-27.64 -14.52,-43.58 -7.14,-7.46 -14.42,-15.1 -18.85,-24.56 -5.83,-11.7 -4.51,-25.72 -11.44,-37.01 -7.97,-14.37 -24.29,-20.42 -38.71,-26.2 -15.39,-6.32 -32.6,-11.28 -43.79,-24.37 -12.29,-14.47 -12.31,-36.55 -2.27,-52.22 -4.08,11.6 -4.31,25.59 4.2,35.33 8.91,9.98 21.09,16.79 33.75,20.85 14.64,4.46 31.6,3.4 44.42,-5.43 10.44,-7.39 15.26,-19.66 21.73,-30.2 23.6,-40.1 54.52,-77.32 95.3,-100.78zm546.69 -34.78c32.12,3.18 63.01,15.02 90.5,31.69 -0.61,-8.86 -1.88,-17.66 -3.53,-26.36 15.62,11.1 29.23,24.94 39.93,40.84 0.17,-5.84 0.44,-11.7 0.75,-17.55 18.3,20 30.19,44.88 39.9,69.94 -19.57,22.89 -24.6,54 -25.89,83.15 -9.83,-21.34 -10.94,-46.47 -3.45,-68.7 4.46,-9.34 -2.9,-18.48 -5.05,-27.42 -2.21,5.27 -4.33,10.57 -6.61,15.81 -8.37,-15.45 -16,-31.33 -25.44,-46.2 -0.75,5.81 -1.68,11.6 -3.11,17.28 -20.82,-21.39 -47.03,-37.2 -75.2,-46.87 0.9,3.18 1.86,6.38 2.73,9.59 -31.5,-10.09 -65.09,-9.34 -97.63,-6.34 26.25,-9.8 54.44,-14.14 82.43,-13.26 -3.5,-5.18 -6.96,-10.36 -10.33,-15.6zm420.37 -27.16c38.53,16.09 66.57,48.74 90.61,81.71 -22.58,-2.02 -42.76,-14.09 -59.81,-28.33 -5.64,-4.66 -10.91,-9.8 -15.35,-15.63 9.01,1.8 17.61,5.04 26.09,8.52 -15,-14.32 -29.41,-29.42 -41.54,-46.27zm-179.64 -85.42c20.75,14.2 40.28,30.22 58.28,47.81 15.67,15.96 30.57,33.55 38.76,54.66 -7.65,-5.11 -15.91,-9.36 -24.89,-11.64 0.8,4.53 1.65,9.04 2.52,13.57 -6.91,-4.94 -14.36,-9.26 -22.65,-11.35 -0.48,4.09 -0.93,8.19 -1.42,12.3 -9.45,-6.57 -17.71,-15.22 -22.66,-25.69 -3.53,-7.68 -2.5,-16.45 0.19,-24.2 -6.98,-6.99 -10.58,-16.63 -9.51,-26.5 -7.56,-8.7 -14.22,-18.27 -18.62,-28.96zm11.97 -93.25l2.33 0 -1.74 0.02c8.49,12.12 16.45,24.66 25.96,36.05 13.03,16.08 27.89,30.59 43.21,44.47 0.43,-2.48 0.86,-4.96 1.29,-7.44 10.48,7.44 21.17,14.59 31.66,22.01 0.18,-1.73 0.56,-5.21 0.76,-6.96 56.12,33.77 106.91,76.15 151.76,123.79 19.35,20.15 35.89,42.84 55.72,62.56 18.81,19 41.36,34 65.39,45.61 21.88,11.25 43.26,23.44 64.46,35.96 14.3,8.61 28.75,17.09 42.21,27.03 14.43,-1.73 29.72,1.2 41.24,10.45 15.6,-4.89 33.69,-6.47 48.36,2.05 9.82,5.17 16.73,15.24 17.73,26.35l0 8.39c-0.68,12.55 -8.04,23.89 -18.63,30.42 -16.74,10.62 -35.37,18.22 -50.84,30.82 -15.73,11.96 -27.14,28.47 -42.36,41 -9.66,7.99 -21.85,12.95 -34.47,12.93 3.15,12.78 -1.88,25.93 -9.77,35.94 -9.13,12.05 -21.38,23.61 -37.13,25.19 -19.2,2.13 -37.64,-6.11 -54.32,-14.68 -11.26,-5.9 -22.48,-11.84 -33.77,-17.67 -10.34,-5.38 -22.01,-7.38 -33.49,-8.53 -21.96,-1.76 -44.29,0.39 -65.38,6.75 -12.38,3.96 -25.1,6.71 -37.64,10.05 -21.76,5.86 -44.97,7.98 -67.08,2.68 -14.79,-0.89 -29.58,2.05 -43.98,5.18 -8.97,1.72 -16.45,7.71 -25.54,8.96 -15.39,2.47 -31.11,1.3 -46.48,-0.73 -5.14,7.94 -5.99,17.6 -9.87,26.09 -10.62,26.19 -32.15,46.82 -57.1,59.48 -9.39,5.13 -19.83,8.37 -28.51,14.75 -8.07,6.03 -10,16.54 -15.55,24.46 -13.53,22.33 -39.48,36.5 -65.64,35 -18.9,-1.51 -37.71,-3.83 -56.58,-5.59 -12.72,16.52 -30.4,30.52 -51.67,33.13 -23.09,4.22 -45.89,-4.69 -65.45,-16.28 -16.7,-9.39 -31.49,-21.68 -46.96,-32.85 -13.34,-2.23 -27.26,0.41 -40.5,-2.92 -19.99,-7.19 -31.75,-26.62 -50.37,-36.08 -16.98,-10.26 -33.98,-20.48 -50.9,-30.84 -2.46,-1.31 -5.09,-3.54 -7.99,-2.06 -20.77,6.37 -40.3,16.12 -59.73,25.71 -36.5,18.28 -72.13,38.28 -109.2,55.4 -20.53,9.25 -41.53,18.15 -63.81,22.12 -13.58,2.29 -28.44,2.57 -40.82,-4.29 -16.56,-9.84 -28.79,-26.81 -32.27,-45.83 -5.28,-26.74 1.73,-53.65 3.18,-80.39 1.51,-21.06 -1.19,-42.89 -11.19,-61.74 -3.37,-7.29 -9.91,-12.22 -14.84,-18.35 -13.75,-16.2 -25.53,-35.15 -28.74,-56.5 -0.28,-5.56 -5.01,-9.11 -7.84,-13.44 -9.93,-13 -15.44,-28.77 -17.69,-44.85 -0.3,-6.71 -7.32,-9.1 -12.4,-11.59 -18.68,-8.08 -38.7,-13.86 -55.25,-26.16 -10.04,4.79 -21.55,5.61 -31.12,11.45 -21.3,11.41 -46.81,15.66 -70.35,9.49 -12.61,-3.01 -24.05,-9.4 -34.4,-17.03 -19.57,-12.35 -43.61,-9.04 -65.56,-11.12l0 -2.95 0.02 2.32c8.99,-10.2 17.03,-21.2 26.35,-31.08 9.73,-10.05 23.2,-15.45 36.97,-16.91 8.11,-9.23 18.15,-17.07 30.19,-20.47 26.46,-7.66 54.95,-0.85 78.86,11.52 1.65,-21.36 12.19,-42.19 29.49,-55.08 14.92,-11.57 34.48,-16.8 53.22,-14.55 19.58,2.13 37.88,12.62 50.1,28.02 25.26,-36.4 57.6,-68.72 97.08,-89.5 22.94,-12.3 47.67,-20.88 72.56,-28.3 24.33,-5.78 48.77,-11.29 73.58,-14.53 -3.11,-2.74 -6.22,-5.49 -9.35,-8.24 17.25,-3.86 34.55,-7.56 52.08,-9.84 -2.93,-2.58 -5.84,-5.14 -8.74,-7.76 18.12,-3.89 36.3,-7.61 54.67,-10.14 -2.75,-2.61 -5.53,-5.21 -8.26,-7.86 17.73,-3.63 35.56,-6.89 53.55,-9.04 -3.38,-3.18 -6.81,-6.33 -10.18,-9.52 18.62,-3.62 37.22,-7.41 56.05,-9.83 -3.84,-3.88 -7.72,-7.71 -11.49,-11.64 18.63,-3.08 37.4,-5.53 56.27,-6.82 -3.25,-3.72 -6.56,-7.36 -9.89,-10.99 19.14,-2.8 38.44,-5.23 57.83,-5.13 -3.6,-4.55 -7.2,-9.08 -10.66,-13.72 19.76,-1.32 39.63,-1.85 59.41,-0.57 -3.36,-5.38 -6.71,-10.77 -9.99,-16.2 20.17,1.03 40.3,3 60.19,6.51 -2.59,-5.98 -5.27,-11.91 -7.92,-17.85 19.08,3.73 38.05,8.13 56.76,13.47 -1.89,-5.44 -3.79,-10.87 -5.74,-16.29 18.68,5.13 37.33,10.56 55.28,17.91 -1.76,-6.57 -3.5,-13.13 -5.24,-19.69 19.11,7.85 38.09,16.26 55.91,26.8 -0.73,-5.62 -1.38,-11.24 -2.08,-16.87 25.68,14.02 50.74,29.32 74.05,47.05 -2.9,-19.78 -4.2,-39.78 -4.53,-59.77 20.4,20.51 42.31,39.59 66.22,55.93 1.62,-22.13 4.06,-44.21 7.04,-66.21zm7.61 29.54l0 0zm0 0c-1.26,10.59 -2.13,21.23 -2.23,31.89 9.39,4.18 18.29,9.39 27.58,13.8 -0.04,-3.49 -0.09,-6.99 -0.09,-10.49 2.73,1.29 5.5,2.57 8.25,3.83 -11.91,-12.35 -23.18,-25.32 -33.51,-39.03zm-67.78 9.01l0 0zm0 0c3.24,39.26 11.05,78.69 27.6,114.64 10.78,22.55 26.16,44.56 49.11,55.95 8.17,4.35 17.63,4.03 26.62,3.93 -7.16,7.3 -18.43,9.11 -27.8,5.38 -15.61,-6.33 -28.56,-17.68 -39.42,-30.3 -10.79,-10.38 -22.94,-19.22 -34.95,-28.11 -25.34,-18.39 -52.57,-34.35 -81.59,-46.18 1.73,5.62 3.65,11.19 5.48,16.77 -18.33,-7.31 -36.42,-15.23 -54.87,-22.28 2.08,4.71 4.17,9.41 6.13,14.17 -19.45,-6.97 -38.56,-14.95 -58.26,-21.18 2.98,4.63 6.13,9.14 9.24,13.69 -18.35,-3.23 -36.63,-6.93 -55.03,-9.79 3.68,4.66 7.44,9.27 11.09,13.97 -19.29,-1.8 -38.52,-4 -57.82,-5.65 4.68,5.45 9.73,10.54 14.59,15.81 -36.58,-1.29 -73.3,2.18 -109.17,9.39 6.25,5.91 12.94,11.32 19.27,17.15 -46.24,5.96 -91.87,16.58 -135.79,32.18 33.25,-18.66 69.45,-32.15 106.68,-40.44 -6.89,-6.31 -13.97,-12.41 -20.86,-18.72 35.8,-6.79 71.82,-12.78 108.17,-15.77 -5.03,-5.47 -10.08,-10.95 -14.96,-16.58 18.82,0.52 37.6,1.73 56.42,2.11 -3.73,-4.89 -7.55,-9.72 -11.23,-14.65 18.25,1.7 36.3,5.05 54.47,7.49 -3.23,-5.14 -6.44,-10.27 -9.51,-15.5 17.42,3.53 34.47,8.64 51.76,12.77 -2.15,-5.06 -4.4,-10.07 -6.6,-15.12 17.67,6.18 34.82,13.73 52.27,20.48 -1.9,-6.04 -3.98,-12.02 -6.13,-17.96 17.14,7.57 33.6,16.58 50.49,24.71 -2.1,-8.33 -4.43,-16.6 -6.4,-24.96 17.12,8.54 32.77,19.53 48.19,30.77 -2.11,-6.68 -4.31,-13.3 -6.31,-20 14.54,9.64 28.01,20.82 40.95,32.49 -2.18,-7.33 -3.25,-14.99 -5.95,-22.13 -2.84,-3.91 -7.01,-6.56 -10.69,-9.58 -14.77,-11.57 -30.05,-22.57 -46.3,-31.98 0.66,6.01 1.39,12.04 2.06,18.05 -16.45,-10.54 -33.09,-20.93 -50.95,-28.93 1.58,6.23 3.25,12.44 4.83,18.69 -17.3,-8.15 -34.87,-15.82 -53.19,-21.43 2,5.78 4.05,11.54 6.08,17.3 -17.93,-6.71 -36.2,-12.54 -54.87,-16.87 2.4,5.59 4.9,11.16 7.38,16.73 -18.62,-4.26 -37.48,-7.42 -56.48,-9.27 3.2,5.2 6.39,10.39 9.57,15.6 -18.93,-2.36 -38.04,-3.21 -57.11,-2.95 3.71,4.85 7.49,9.65 11.24,14.47 -19.28,-0.6 -38.65,-0.68 -57.86,1.19 4.09,4.53 8.21,9.06 12.38,13.53 -19.14,0.14 -38.31,0.94 -57.29,3.52 4.14,4.41 8.41,8.72 12.7,13.02 -18.98,1.01 -37.95,2.9 -56.61,6.54 4.41,4.07 8.81,8.15 12.97,12.47 -19.02,0.62 -37.9,3.15 -56.61,6.37 3.81,3.59 7.66,7.19 11.47,10.8 -19.18,0.49 -38.27,2.9 -57.15,6.2 4.23,3.64 8.44,7.32 12.46,11.22 -18.9,1.36 -37.84,2.83 -56.44,6.61 4.12,3.88 8.33,7.64 12.63,11.32 -31.36,1.45 -62.75,5 -93.25,12.54 -30.92,9.73 -62.44,18.88 -90.7,35.17 -43.93,24.69 -77.41,64.31 -102.72,107.25 -6.16,10.02 -10.71,22.39 -22.05,27.77 -14,7.16 -30.62,0.79 -41.78,-8.75 -5.24,-4.17 -5.99,-12.83 -1.08,-17.54 5.15,-5.84 15.84,-4.23 19.13,2.8 2.45,4.33 0.49,9.19 -0.56,13.6 8.01,2.83 18.18,3.67 24.34,-3.33 7.31,-8.37 11.18,-19.11 17.4,-28.25 -5.79,-12.36 -15.88,-22.67 -28.35,-28.31 -21.33,-10.13 -48.63,-4.71 -64.44,12.84 -19.74,20.51 -21.42,55.94 -2.15,77.32 19.08,21.87 50.32,24.05 73.38,39.73 9.41,6.28 9.26,18.45 11.72,28.29 3.27,15.04 12.51,27.8 22.66,38.97 -0.01,20.15 10.81,38.21 23.05,53.43 4.99,6.55 11.47,11.84 16.17,18.62 9.92,16.4 15.4,35.3 16.53,54.4 1.45,21.48 -2.08,42.81 -4.21,64.11 -1.25,12.98 -1.86,26.41 1.96,39.04 3.55,12.06 11.76,22.62 22.42,29.24 9.01,5.4 20.11,5.02 30.09,3.12 18.33,-3.6 35.5,-11.31 52.28,-19.27 35.19,-17.03 68.97,-36.78 104.02,-54.08 28.56,-13.99 57.92,-27.21 89.2,-33.72 22.8,-4.88 47.51,-4.98 68.91,5.31 -1.04,-6.83 -4.47,-14.25 -0.99,-20.91 5.28,-11.31 14.01,-20.45 21.58,-30.21 8.5,-10.64 17.14,-23.61 13.94,-37.95 5.5,-2.33 11.02,-4.61 16.57,-6.84 -1.85,-8.93 -4.31,-17.72 -5.91,-26.69 5.21,-3.95 11.5,-6.03 17.28,-8.98 -1.23,-4.08 -2.45,-8.16 -3.66,-12.22 7.19,-2.5 14.4,-4.96 21.54,-7.63 -16.5,-11.27 -37.76,-11 -56.76,-8.32 -36.93,5.81 -71.33,21.71 -104.05,39.21 -25.9,13.37 -52.8,25.1 -81,32.67 -17.46,4.55 -35.56,7.75 -53.66,6.25 -10.49,-0.8 -17.65,-9.45 -25.83,-15.04 -4.76,-2.93 -5.79,-8.71 -7.09,-13.69 6.23,1.13 12.45,2.3 18.72,3.32 -10.95,-8.28 -21.49,-18.32 -25.85,-31.71 -4.54,-12.77 -1.81,-27.01 4.75,-38.56 1.21,12.5 3.88,25.18 10.77,35.88 12.77,21.4 35.93,34.12 59.26,40.85 4.43,1.68 8.94,-0.54 13.14,-1.88 16.37,-6.06 32.14,-14.26 45.42,-25.68 -4.02,-0.92 -8.05,-1.8 -12.07,-2.73 8.96,-6.66 18.54,-13.44 23.96,-23.48 -4.34,-0.48 -8.7,-0.92 -13.05,-1.33 12.04,-10.14 21.45,-25.25 18.92,-41.58 -3.63,-25.21 -21.97,-44.78 -39.77,-61.56 25.73,8.26 49.79,27.76 55.98,55.08 6.48,26.03 -3.81,52.47 -17.21,74.5 10.39,-4.33 20.56,-9.14 30.9,-13.6 5.85,-15.57 8.73,-32.64 5.61,-49.14 -3.44,-21.25 -15.77,-39.82 -30.19,-55.28 -17.63,-19.52 -40.01,-34.1 -57.26,-53.97 -6.36,-6.99 -9.19,-16.84 -6.08,-25.96 11.39,11.47 22.8,23.03 35.85,32.62 23.63,17.62 48.02,35.37 65.39,59.58 5.91,7.89 9.53,17.98 18.24,23.39 9.55,6.25 21.53,6.4 32.48,4.93 -1.15,-25.61 3.27,-54.68 23.65,-72.4 -5.88,18.42 -10.13,37.65 -9.06,57.1 0.36,15.63 5.58,31.12 15.42,43.33 16.33,-2.5 33.42,-3.18 49.28,2.16 10.21,3.31 21.52,7.78 26.93,17.72 2.88,5.16 1.07,11.14 -0.37,16.43 22.77,15.34 48.78,25.1 75.3,31.66 28.64,7.49 58.13,11.25 86.6,19.41 13.38,4.03 26.93,9.41 36.89,19.58 -55.83,44.86 -123.82,74.37 -194.56,85.39 -14.2,2.02 -28.52,4.21 -42.91,3.32 9.38,8.89 20,16.9 32.61,20.48 16.26,4.48 27.67,17.55 40.44,27.69 11.97,9.75 26.36,18.93 42.46,17.9 11.21,-0.69 19.2,-9.73 26.04,-17.65 14.87,-18.72 31.13,-38.38 54.14,-47.13 -5.76,6.28 -12.22,11.93 -17.49,18.65 -11.4,14.34 -21.03,29.99 -31.7,44.86 -5.16,6.95 -10.79,13.94 -18.43,18.27 -10.36,5.44 -23.3,5.71 -33.89,0.7 -18.13,-8.04 -34.25,-19.83 -50.22,-31.44 -6.92,-4.85 -13.32,-10.94 -21.51,-13.57 -14,-3.96 -28.87,-1.25 -43.03,-3.53 -10.06,-6.94 -17.52,-17.17 -28.14,-23.45 -8.77,-5.06 -17.13,-10.9 -26.17,-15.48 -10.3,-3.35 -21.28,-3.67 -32.01,-3.96 16.42,10.74 33.62,20.24 50.19,30.75 11.22,8.71 20.5,20.18 33.39,26.59 14.38,4 30,-0.58 44.27,3.87 18.97,14 37.28,29.32 58.66,39.69 14.49,7.58 31.44,12.06 47.64,7.61 19.22,-4.13 32.62,-19.9 43.06,-35.45 14.62,-21.98 29.59,-44.37 50.51,-60.93 25.34,-20.99 58.21,-29.35 84.72,-48.5 20.56,-14.44 36.63,-34.54 48.42,-56.58 -25.96,-28.94 -34.9,-69.74 -32.97,-107.7 4.43,26.24 11.37,52.73 26.34,75.11 13.22,20.33 33.27,36.33 56.53,43.56 14.37,4.81 29.71,5.25 44.73,5.51 9.02,-0.03 16.37,-5.92 24.86,-8.11 14.72,-4.18 29.99,-6.22 45.24,-7.26 10.71,-1.21 20.83,3.8 31.52,3.25 18.72,0.78 36.8,-4.51 54.72,-9.16 15.12,-3.43 29.67,-9.21 45.09,-11.3 26.47,-3.97 54.25,-4.1 79.82,4.61 23.52,9.01 45.43,21.73 68.91,30.87 7.87,3.33 17.28,5.59 25.22,1.12 10.06,-5.7 18.04,-15.17 22.67,-25.71 3.71,-8.51 0.23,-17.75 -4.57,-25.01 -1.84,4.49 -3.18,10.05 -8.02,12.3 -10.76,5.58 -23.31,1.53 -33.89,-2.48 -26.64,-10.81 -50.93,-26.46 -75.13,-41.81 -5.84,-3.53 -11.17,-8.66 -18.2,-9.59 -15.55,-2.65 -32.05,1.83 -47,-4.46 -17.09,-6.93 -27.58,-23.33 -43.46,-32.09 -6.96,-4.21 -15.34,-2.67 -23.02,-3.63 -9.29,-0.95 -19.21,-3.45 -25.92,-10.36 -5,-5.59 -7.58,-14.37 -4.12,-21.36 4.48,-7.36 13.28,-10.24 21.12,-12.44 20.3,-5.01 41.43,-4.4 62.09,-2.6 -0.76,-4.63 -1.55,-9.24 -2.38,-13.84 -20.83,-1.41 -42.09,-1.86 -62.48,3.34 -8.92,2.38 -18.01,6.12 -24.19,13.25 -3.25,3.68 -4.48,8.54 -6.21,13.02 -1.13,-7.09 -1.02,-14.94 3.4,-20.98 6.52,-9.06 17.88,-12.95 28.57,-14.25 20.38,-2.2 40.93,0.43 60.84,4.91 -3.23,-14.7 -8.47,-29.24 -17.88,-41.16 -3.95,-4.27 -3.95,-11.73 0.77,-15.42 4.44,-4 11.14,-2.35 15.51,0.91 21.37,14.41 34.74,37.49 44.6,60.71 6.32,-11.9 14.48,-22.86 24.53,-31.92 9.92,-9.42 22.41,-15.35 34.05,-22.33 -2.68,17.47 -7.08,34.69 -8.48,52.34 -0.68,13.74 -1.75,27.51 -5.19,40.83 30.52,20.45 60.69,41.51 89.43,64.42 9.87,7.76 17.12,19.03 29.01,24.08 8.72,4.05 19.05,2.98 27.4,-1.48 14.47,-7.61 25.53,-20.02 36.7,-31.64 10.24,-10.59 22.35,-19.28 35.32,-26.26 -13.39,3.08 -26.13,8.36 -38.46,14.29 -0.17,8.59 -7.95,13.69 -13.96,18.48 -9.29,6.49 -19.38,13.04 -30.87,14.27 -3.73,0.62 -7.48,-3.06 -6.06,-6.79 2.85,-8.88 11.17,-14.36 18.43,-19.47 23.78,-15.13 51.49,-22.88 79.1,-27.27 8.92,-1.19 16.68,-6.23 24.09,-11.01 8.89,-5.73 13.67,-17.12 11.29,-27.44 -2.35,-7.81 -10.12,-12.71 -17.85,-13.89 -12.8,-1.91 -25.48,2.5 -36.93,7.83 -21.22,10.29 -39.77,25.21 -57.13,40.98 6.88,-22.58 22.98,-41.31 41.89,-54.94 -8.42,-1.86 -17.28,-1.53 -25.39,1.54 -20.57,7.29 -37.48,21.79 -52.99,36.7 3.53,-21.5 17.24,-39.67 33.67,-53.3 -28.6,-18.25 -58.83,-33.77 -88.63,-49.94 -20.45,-10.39 -40.26,-22.31 -57.6,-37.42 -25.74,-22.09 -45.54,-49.92 -68.28,-74.86 -36.39,-40.93 -79.63,-75.18 -125.22,-105.27 -0.37,3.38 -0.72,6.78 -1.07,10.17 -10.52,-9.04 -21.34,-17.73 -32.8,-25.57 -0.68,4.39 -1.37,8.79 -2,13.18 -10.02,-8.35 -20.58,-16.1 -31.94,-22.52 -0.03,2.49 -0.03,4.97 -0.01,7.47 9.37,6.33 18.51,13.04 26.97,20.58 10.74,9.79 21.97,21.47 23.31,36.72 -23.99,-30.16 -57.14,-51.04 -90.4,-69.64 -25.64,-13.42 -48.2,-31.82 -70.11,-50.55zm-1068.97 317.79l0 0zm0 0c15.14,3.31 31.03,6.21 44.06,15.12 -6.97,1.5 -14.12,2.56 -21.28,2.23 -10.3,-0.4 -19.59,-5.69 -29.84,-6.58 -13.9,-1.86 -28.99,3.43 -37.46,14.87 10.87,1.42 21.83,3.47 31.82,8.14 7.36,3.3 13.34,8.9 20.45,12.64 18.26,10.06 41.31,11.61 60.49,3.23 -17.63,-1.71 -35.52,-4.53 -51.58,-12.32 -7.4,-3.49 -13.54,-9.21 -21.22,-12.19 -6.18,-2.63 -13,-2.76 -19.63,-2.99 8.21,-2.55 17.03,-3.3 25.41,-1.09 9.96,2.23 17.7,9.48 27.24,12.79 25.08,9.29 53.34,9.98 78.76,1.57 -7.06,-8.96 -10.84,-19.7 -14.55,-30.29 -16.42,-11.51 -36.47,-18.24 -56.58,-18.52 -13.16,-0.35 -26.63,4.01 -36.09,13.39zm1343.58 -10.37l0 0zm0 0c8.29,11.57 14.2,24.76 17.58,38.59 5.58,22.83 6.65,46.59 4.98,69.99 -0.53,6.94 0.07,14.88 5.46,19.95 4.95,4.63 12.71,3.33 18.24,0.46 7.21,-3.88 9.02,-12.97 8.07,-20.48 -2.31,-18.16 -6.79,-36.06 -13.44,-53.13 -8.59,-21.43 -21.26,-42.46 -40.89,-55.38zm57.51 67.1l0 0zm0 0c-2.64,7.28 -3.2,16.87 3.18,22.4 4.88,3.96 12.17,6.99 18.2,3.81 6.7,-4.1 9.14,-12.36 9.66,-19.77 1.73,-17.93 2.25,-36 6.18,-53.65 -16.62,11.71 -30.09,28.09 -37.22,47.21zm-100.85 22.05l0 0zm0 0c1.96,9.95 17.13,15.12 23.71,6.84 3.81,-9.03 3.86,-21.08 -3.83,-28.21 -6.11,7.6 -13.64,13.87 -19.88,21.37zm24.57 6.22l0 0zm0 0c2.3,8.75 13.07,13.44 21.05,9.4 4.4,-2.8 4.53,-8.41 5.08,-13.04 0.73,-6.55 -1.52,-13.19 -6.2,-17.84 -6.12,7.65 -13.7,13.94 -19.93,21.48zm95.08 33.41l0 0zm0 0c-1.88,9.77 10.27,17.46 18.73,13.07 -0.75,9.49 10.78,18.13 19.1,12.12 -0.3,9.19 11.11,18.12 19.15,11.74 6.46,-7.18 12.49,-17.22 9.19,-27.18 -8.19,4 -16.53,7.68 -24.87,11.34 4.23,-6.89 8.72,-15.07 5.53,-23.33 -8.15,4.37 -16.74,7.78 -25.13,11.61 3.99,-8.03 7.79,-17.8 3.04,-26.37 -7.84,6.26 -17.25,10.35 -24.74,17zm-682.55 46.72l0 0zm0 0c0.65,3.46 1.3,6.94 1.96,10.41 -5.37,2.79 -10.84,5.37 -16.13,8.31 10.96,5.26 22.38,9.54 34.22,12.32 32.75,7.82 66.57,9.14 100.06,11.14 -13.18,-2.93 -26.51,-5.15 -39.59,-8.51 -28.44,-6.78 -55.84,-17.97 -80.52,-33.67zm354.12 66.69l0 0zm0 0c-7.29,26.01 -24.21,49.34 -47.49,63.29 -14.53,8.93 -32,13.42 -44.12,25.99 -7.05,6.91 -11.11,16 -15.49,24.68 -6.76,13.24 -20.76,23.06 -35.93,22.69 -14.46,-0.43 -28.78,-2.68 -43.15,-3.92 -3.86,4.91 -7.47,10.02 -10.82,15.3 14.64,1.55 29.27,3.05 43.91,4.51 13.07,1.45 26.73,-1.46 37.6,-9.03 11.56,-7.65 18.85,-19.81 24.44,-32.18 7.28,-15.22 23.68,-21.7 38.05,-28.28 23.7,-10.79 44.66,-29.3 54.43,-53.85 3.48,-8.15 4.3,-17.26 8.88,-24.97 -3.45,-1.4 -6.89,-2.82 -10.31,-4.23zm184.75 -326.03l0 0zm0 0c7.99,1.38 16,2.78 24.04,3.96 -2.18,-2.35 -4.19,-4.93 -6.86,-6.76 -5.84,0.07 -11.54,1.51 -17.18,2.8zm-2.9 7.56l0 0zm0 0c0.7,13.03 5.31,26.04 14.64,35.4 -4.47,-10.93 -6.95,-22.48 -7.33,-34.29 -2.45,-0.36 -4.9,-0.75 -7.31,-1.11zm15.25 5.19l0 0zm0 0c1.12,12.42 4.65,26.41 15.67,33.72 11.31,6.81 25.18,1.72 35.62,-4.38 -2.13,-1.63 -4.28,-3.23 -6.43,-4.81 -4.84,8.79 -17.43,12.49 -25.29,5.44 -8.61,-6.97 -6.63,-21.28 2.68,-26.74 -5.13,-7.09 -14.92,-3.63 -22.25,-3.23zm21.48 14.94l0 0zm0 0c-1.81,4.33 1.7,8.04 4.23,11.1 -1.23,-5.69 1.83,-10.49 3.58,-15.51 -3.21,-3.25 -6.58,1.58 -7.81,4.41z"/>
   <path class="fil2" d="M1469.08 681.36c7.33,-0.4 17.12,-3.86 22.25,3.23 -9.31,5.46 -11.29,19.77 -2.68,26.74 7.86,7.05 20.45,3.35 25.29,-5.44 2.15,1.58 4.3,3.18 6.43,4.81 -10.44,6.1 -24.31,11.19 -35.62,4.38 -11.02,-7.31 -14.55,-21.3 -15.67,-33.72zm-551.22 246.59c24.68,15.7 52.08,26.89 80.52,33.67 13.08,3.36 26.41,5.58 39.59,8.51 -33.49,-2 -67.31,-3.32 -100.06,-11.14 -11.84,-2.78 -23.26,-7.06 -34.22,-12.32 5.29,-2.94 10.76,-5.52 16.13,-8.31 -0.66,-3.47 -1.31,-6.95 -1.96,-10.41zm682.55 -46.72c7.49,-6.65 16.9,-10.74 24.74,-17 4.75,8.57 0.95,18.34 -3.04,26.37 8.39,-3.83 16.98,-7.24 25.13,-11.61 3.19,8.26 -1.3,16.44 -5.53,23.33 8.34,-3.66 16.68,-7.34 24.87,-11.34 3.3,9.96 -2.73,20 -9.19,27.18 -8.04,6.38 -19.45,-2.55 -19.15,-11.74 -8.32,6.01 -19.85,-2.63 -19.1,-12.12 -8.46,4.39 -20.61,-3.3 -18.73,-13.07zm-95.08 -33.41c6.23,-7.54 13.81,-13.83 19.93,-21.48 4.68,4.65 6.93,11.29 6.2,17.84 -0.55,4.63 -0.68,10.24 -5.08,13.04 -7.98,4.04 -18.75,-0.65 -21.05,-9.4zm-24.57 -6.22c6.24,-7.5 13.77,-13.77 19.88,-21.37 7.69,7.13 7.64,19.18 3.83,28.21 -6.58,8.28 -21.75,3.11 -23.71,-6.84zm100.85 -22.05c7.13,-19.12 20.6,-35.5 37.22,-47.21 -3.93,17.65 -4.45,35.72 -6.18,53.65 -0.52,7.41 -2.96,15.67 -9.66,19.77 -6.03,3.18 -13.32,0.15 -18.2,-3.81 -6.38,-5.53 -5.82,-15.12 -3.18,-22.4zm-57.51 -67.1c19.63,12.92 32.3,33.95 40.89,55.38 6.65,17.07 11.13,34.97 13.44,53.13 0.95,7.51 -0.86,16.6 -8.07,20.48 -5.53,2.87 -13.29,4.17 -18.24,-0.46 -5.39,-5.07 -5.99,-13.01 -5.46,-19.95 1.67,-23.4 0.6,-47.16 -4.98,-69.99 -3.38,-13.83 -9.29,-27.02 -17.58,-38.59z"/>
  </g>
 </g>
</svg>
