<?xml version="1.0" encoding="UTF-8"?>
<!DOCTYPE svg PUBLIC "-//W3C//DTD SVG 1.1//EN" "http://www.w3.org/Graphics/SVG/1.1/DTD/svg11.dtd">
<!-- Creator: CorelDRAW -->
<svg xmlns="http://www.w3.org/2000/svg" xml:space="preserve" width="2000px" height="1600px" version="1.1" style="shape-rendering:geometricPrecision; text-rendering:geometricPrecision; image-rendering:optimizeQuality; fill-rule:evenodd; clip-rule:evenodd"
viewBox="0 0 2000 1600"
 xmlns:xlink="http://www.w3.org/1999/xlink">
 <defs>
  <style type="text/css">
   <![CDATA[
    .fil0 {fill:#841337;fill-rule:nonzero}
    .fil1 {fill:#FEFEFE;fill-rule:nonzero}
   ]]>
  </style>
 </defs>
 <g id="Capa_x0020_1">
  <metadata id="CorelCorpID_0Corel-Layer"/>
  <g id="Arkansas_x0020_Little_x0020_Rock_x0020_Trojans.cdr">
   <path class="fil0" d="M1015.59 80l49.03 0c56.46,2.17 112.86,10.74 166.76,27.98 68.39,21.49 133.31,53.67 192.55,93.98 52.89,35.94 100.91,79.2 141.05,129.04 34.59,42.87 65.21,89.23 89.24,138.85l0 1.07c-75.78,36.3 -151.66,72.42 -227.54,108.49 -17.49,-24.64 -36.6,-48.33 -58.93,-68.81 -8.28,-7.79 -16.82,-15.33 -25.08,-23.12 -3.27,-3.11 -7.26,-6.09 -12.02,-5.79 -4.57,-0.96 -7.24,3.38 -10.2,5.97 -11.95,12.32 -23.85,24.7 -36.2,36.61 -0.2,5.51 -0.5,11.82 3.63,16.1 13.79,14.71 29.12,27.99 41.99,43.56 39.48,47.8 69.54,103.04 90.74,161.21 22.27,62.74 35.94,128.18 46.75,193.74 4.96,30.42 9,60.96 12.3,91.59 -21.6,2.05 -43.16,4.37 -64.76,6.37 3.82,47.18 4.83,94.66 1.05,141.88 -2.03,26.7 -5.02,53.3 -8.68,79.82 -1.88,17.57 -5.67,36.43 -18.61,49.41 -11.75,10.66 -28.94,10.34 -43.82,9.44 -38.55,-1.92 -76.87,-7.4 -114.35,-16.64 -6.74,18.36 -14.58,36.35 -24.78,53.08 40.44,5.82 80.46,15.47 118.56,30.33 37.49,14.58 73.79,32.02 109.33,50.81 1.48,1.03 4.12,1.62 3.7,3.98 -11.54,3.59 -23.68,4.52 -35.42,7.29 -28.19,5.57 -55.25,16.43 -79.73,31.43 -9.12,5.46 -16.91,12.77 -25.38,19.09 -3.44,2.94 -7.88,0.86 -11.35,-0.78 -27.69,-13.1 -56.71,-23.23 -86.24,-31.32 -32.21,-8.93 -64.32,-19.66 -97.9,-21.94 -16.16,-2.24 -30.61,-11.61 -42.12,-22.81 -5.45,-5.49 -9.81,-12.03 -12.53,-19.27 -12.27,-31.18 -21.39,-63.48 -31.32,-95.45 -10.39,-34.15 -20.7,-68.34 -30.74,-102.59 -1.8,-7.13 -6.21,-13.48 -12.16,-17.76 -8.41,-6.21 -19.38,-6.51 -29.41,-6.12 -27.52,1.78 -54.7,11.13 -76.71,27.86 -13.7,9.85 -26.4,21.7 -34.65,36.6 -10.49,18.62 -19.48,38.83 -20.74,60.47 48.8,30.55 87.98,73.63 123.84,118.11 22.93,29 38.66,63.06 49.53,98.24l-0.89 0c-60.55,-41.62 -125.02,-77.49 -192.22,-107.18 -29.99,-12.89 -61.17,-22.69 -92.3,-32.36 -26.79,-8.73 -54.74,-13.56 -82.79,-15.62 -48.48,-3.91 -97.51,0.42 -145.64,-8 -28.71,-4.41 -56.15,-14.58 -82.56,-26.44 -13.15,-6.01 -25.97,-12.76 -38.06,-20.69 38.42,-22.37 76.86,-44.73 115.24,-67.17 14.06,7.29 28.8,13.43 44.19,17.28 17.03,4.46 34.8,4.29 52.27,4.16 -42.54,-41.21 -80.09,-87.59 -111.64,-137.72 -39.56,-63.15 -67.6,-133.21 -85.09,-205.55 -10.74,-44.48 -17.01,-89.99 -19,-135.71l0 -44.25c2.4,-52.68 10.73,-105.05 24.87,-155.84 17.71,-63.56 43.7,-125 78.77,-180.96 30.49,-48.11 67.1,-92.25 107.79,-132.07 24.73,-24.66 51.25,-47.65 80.18,-67.29 52.46,-35.93 109.56,-65.16 169.49,-86.46 66.99,-23.73 137.85,-35.23 208.71,-38.13z"/>
   <path class="fil1" d="M1048.34 370.01c2.59,-1.44 5.67,-1.09 8.53,-1.16 28.77,0.86 57.41,5.07 85.28,12.16 4.91,1.5 10.03,3.74 13.05,8.07 2.83,4.86 2.79,11.03 0.52,16.09 -5.37,13.03 -10.74,26.07 -16.02,39.13 -1.62,3.77 -3.66,8.07 -7.93,9.35 -6.22,2.23 -12.84,0.39 -19.06,-0.78 -20.11,-4.02 -40.59,-6.01 -61.08,-6.27 -7.54,0.07 -12.54,-7.54 -12.47,-14.46 -0.49,-16.09 -0.85,-32.18 -1.42,-48.25 -0.55,-6.56 5.39,-11.16 10.6,-13.88zm-69.5 1.72c8.02,-0.53 17.44,-3.84 24.32,2.01 7.99,7.91 4.41,19.81 5.64,29.74 -0.25,10.4 1.1,21.02 -0.89,31.29 -1.42,5.85 -5.23,12 -11.61,13.16 -22.59,5.94 -44.96,12.89 -66.52,21.88 -5.58,2.4 -14.05,1.43 -16.09,-5.15 -7.72,-17.62 -15.5,-35.2 -23.24,-52.8 -2.42,-5 -3.23,-11.5 0.45,-16.11 4.21,-6.24 12.07,-7.54 18.73,-9.63 22.58,-6.88 45.77,-11.74 69.21,-14.39zm215.81 27.72c2.97,-1.03 6.36,-1.81 9.46,-0.69 32.09,12.58 62.98,28.55 90.89,48.88 6.83,6.16 5.68,17.32 1.32,24.56 -8.98,9.44 -18.47,18.39 -27.56,27.73 -3.71,3.68 -7.28,8.27 -12.85,8.96 -9.49,2.56 -17.3,-4.8 -24.83,-9.3 -17.04,-11.86 -36.86,-18.61 -54.78,-28.89 -7.2,-3.91 -7.75,-13.72 -5.1,-20.6 5.17,-13.64 10.74,-27.13 15.95,-40.73 1.45,-3.91 3.29,-8.29 7.5,-9.92zm-350.6 13.69c6.78,-3.26 15.61,-0.27 18.49,6.81 7.61,18.01 14.85,36.16 22.42,54.18 1.79,4.22 2.86,9.51 0.04,13.53 -3.31,5.23 -9.3,7.52 -14.39,10.54 -15.71,8.73 -29.99,19.7 -44.55,30.17 -4.76,3.67 -11.54,3.29 -16.07,-0.57 -13.6,-11.2 -26.52,-23.28 -38.22,-36.48 -3.72,-4.05 -6.03,-9.33 -6.46,-14.81 0.09,-5.56 4.09,-10.04 8.25,-13.26 22.46,-18.08 45.04,-36.39 70.49,-50.11zm86.46 88c28.33,-11.79 58.31,-20.13 88.96,-22.72 54.15,-4.59 109.83,3.93 159.07,27.34 51.52,24.53 95.93,63.04 129.28,109.19 19.45,26.63 35.93,55.38 49.85,85.26 3.29,6.9 4,15.33 0.57,22.31 -3.66,6.81 -10.99,11.47 -18.67,12.17 -6.63,0.51 -13.03,-3.19 -16.76,-8.52 -36.59,-54.26 -84.04,-101.85 -140.71,-135.01 -34.95,-20.6 -74.3,-33.12 -114.31,-39.05 -41.37,-6.17 -84.06,-2.15 -123.77,10.75 -15.9,4.25 -30.19,19.02 -29.35,36.25 -0.32,15.08 11.91,29.19 26.82,31.24 9.37,2.56 18.37,-1.92 27.49,-3.38 34.9,-6.6 72.21,-6.03 105.28,8.07 35.13,14.72 66.13,38.99 89.53,68.98 20.94,27.93 34.96,60.66 43.18,94.47 7.54,30.63 9.23,62.9 2.88,93.9 -3.56,16.93 -7.72,34.19 -16.93,49.07 -16.47,31.27 -25.67,66.65 -24.94,102.1 -0.28,31.53 5.94,63.64 21.58,91.29 10.48,18.86 23.04,37.2 40.45,50.32 15.36,11.81 33.3,20.24 52.27,24.31 -28.79,16.46 -62.67,24.17 -95.7,20.33 -33.42,-3.41 -64.75,-19.16 -89.64,-41.36 -44.87,-39.29 -75.47,-92.89 -92.76,-149.53 -10.7,-35.01 -18.1,-71.12 -21.3,-107.56 2.88,-15.41 -1.96,-31.61 -11.8,-43.63 -7.03,-7.05 -16.7,-10.45 -25.92,-13.52 -15.24,-5.16 -31.65,2.68 -42.55,13.26 -11.25,10.72 -15.04,27.11 -13.22,42.13 1.26,10.95 8.83,19.59 16.14,27.24 5.22,5.31 13.28,6.25 18.58,11.5 9.77,9.26 17.01,21.26 21.15,34.04 3.43,17.83 -1.86,35.95 -8.62,52.38 -13.81,33.22 -38.83,60.92 -68.52,80.87 -28.3,19.57 -61.69,31.13 -95.8,34.97 -27.75,2.98 -55.7,3.5 -83.52,5.72 35.54,-42.01 70.86,-84.2 106.42,-126.19 -20.43,-28.58 -37.53,-59.55 -50.92,-92.03 -15.29,-36.45 -23.3,-75.77 -24.48,-115.24 -2.61,-63.91 13.97,-127.59 42.72,-184.41 21.5,-43.89 51.84,-83.94 90.7,-113.86 23.7,-17.82 49.96,-32.04 77.27,-43.45zm-198.28 6.29c5.42,-2.03 11.63,0.52 15.5,4.48 11.2,10.67 22.33,21.42 33.59,32.02 6.79,5.88 7.75,17.76 1.17,24.21 -15.45,17.12 -28.66,36.11 -40.37,55.93 -2.19,4.75 -7.86,6.26 -12.59,4.64 -17.71,-4.44 -34.31,-12.27 -51.18,-19.07 -5.25,-1.92 -8.73,-6.99 -9.51,-12.41 -0.54,-4 2.29,-7.24 4.05,-10.55 14.91,-24.28 29.4,-49.12 48.48,-70.45 3.2,-3.39 6.45,-7 10.86,-8.8zm-74.49 128.3c3.82,-1.79 8.18,-1.1 11.95,0.48 13.55,5.35 27.16,10.56 40.73,15.91 7.87,2.56 13.24,12.4 9.44,20.11 -8.73,22.03 -17.12,44.3 -22.28,67.49 -0.89,6.93 -7.43,12.08 -14.18,12.6 -11.81,1.37 -23.83,0.52 -35.47,-1.67 -11.15,-0.55 -15.79,-12.52 -16.66,-21.99 0.32,-25.09 6.61,-49.58 13.8,-73.48 1.97,-7.48 5.44,-15.7 12.67,-19.45zm-21.99 160.82c-1.16,-5.46 2.92,-9.72 6.93,-12.64 11.88,0.36 23.79,-0.3 35.67,0.3 4.23,1.82 8.69,5.21 8.71,10.3 0.28,9.51 -0.75,19.02 -0.39,28.55 -0.54,22.65 1.77,45.24 4.71,67.68 0.78,12.78 -21.71,18.02 -25.58,5.42 -13.16,-32.14 -24.06,-65.35 -30.05,-99.61zm600.62 44.55c32.63,-3.2 65.27,-6.29 97.89,-9.47 10.33,27.69 20.9,55.3 31.11,83.04 -43.02,-24.48 -86.01,-49.03 -129,-73.57z"/>
  </g>
 </g>
</svg>
