<?xml version="1.0" encoding="UTF-8"?>
<!DOCTYPE svg PUBLIC "-//W3C//DTD SVG 1.1//EN" "http://www.w3.org/Graphics/SVG/1.1/DTD/svg11.dtd">
<!-- Creator: CorelDRAW -->
<svg xmlns="http://www.w3.org/2000/svg" xml:space="preserve" width="2000px" height="1600px" version="1.1" style="shape-rendering:geometricPrecision; text-rendering:geometricPrecision; image-rendering:optimizeQuality; fill-rule:evenodd; clip-rule:evenodd"
viewBox="0 0 2000 1600"
 xmlns:xlink="http://www.w3.org/1999/xlink">
 <defs>
  <style type="text/css">
   <![CDATA[
    .fil0 {fill:#17181D;fill-rule:nonzero}
    .fil1 {fill:#D5B98A;fill-rule:nonzero}
   ]]>
  </style>
 </defs>
 <g id="Capa_x0020_1">
  <metadata id="CorelCorpID_0Corel-Layer"/>
  <g id="Army_x0020_Black_x0020_Knights.cdr">
   <path class="fil0" d="M382.44 140.27c-7.15,-26.88 13.53,-56.38 40.88,-59.9 10.54,-1.41 21.04,1.81 31.53,-0.15 15.65,-0.15 31.34,-0.28 46.99,0.07 12.26,10.43 22.7,22.9 34.63,33.72 4.58,0.78 9.28,0.3 13.93,0.39 356.11,-0.08 712.23,0.07 1068.36,-0.06 0.4,161.8 0.06,323.62 0.17,485.43 -0.22,46.16 0.56,92.35 -0.62,138.49 -7.9,125.86 -40.97,250.44 -98.67,362.72 -0.28,0.92 -0.8,2.77 -1.07,3.69 6.91,8.63 16.01,15.29 22.94,23.94 0.62,36.88 -0.04,73.83 0.3,110.75 -36.45,0.3 -72.92,-0.36 -109.35,0.3 -7.37,7.3 -12.91,16.21 -19.9,23.87 -90.96,109.43 -210.88,195.6 -345.77,241.95 -11.59,4.06 -23.35,7.66 -35.05,11.37 -5.39,1.47 -10.82,3.85 -16.53,2.95 -76.54,-21.09 -149.65,-54.6 -215.88,-98.41 -117.48,-77.5 -212.9,-186.71 -278.14,-311.14 -1.89,-5.06 -7.15,-7.06 -11.53,-9.4 -34.31,-17.62 -65.41,-40.68 -95.27,-64.9 13.88,-13.99 27.82,-27.93 41.81,-41.8 3.33,-3.37 7,-6.52 9.66,-10.47 -0.51,-3.95 -1.93,-7.66 -3.09,-11.42 -15.34,-46.33 -26.98,-93.9 -34.64,-142.1 -3.76,-26.15 -8.81,-52.42 -7.8,-78.93 -0.45,3.32 -0.79,6.63 -1.26,9.95 -0.65,-8.88 -0.71,-17.77 -1.31,-26.64 -1.79,-16.78 -0.8,-33.66 -1.61,-50.49 -0.01,-147.96 -0.03,-295.93 0,-443.91 0.73,-6.76 -5.99,-10.37 -9.82,-14.81 -8.26,-8.77 -17.77,-16.54 -25.16,-26.02 -0.23,-14.43 -0.02,-28.86 -0.1,-43.3 -0.2,-5.35 3.56,-10.39 1.37,-15.74z"/>
   <path class="fil1" d="M975.36 240.8c19.88,-2.45 39.95,-1.31 59.92,-1.56 106.87,3.24 212.04,44.43 293.04,114.21 55.79,47.65 100.49,108.26 129.27,175.77 21.8,50.69 34.2,105.28 37.45,160.31 0.27,17.53 0.27,35.05 0.02,52.59 -4.62,83.15 -30.85,165.43 -77.18,234.8 -40.64,-41.03 -81.75,-81.62 -122.41,-122.61 -2.75,-1.86 -1.29,-5.06 -0.34,-7.47 23.25,-48.9 33.25,-104.2 28.14,-158.09 -5.99,-71.34 -38.75,-139.76 -89.74,-189.9 -59.42,-59.58 -144.34,-92.31 -228.31,-88.82 -38.72,2.13 -77.3,10.59 -112.57,26.92 -3.4,1.44 -6.81,3.31 -10.61,3.4 -4.42,-2.94 -7.81,-7.15 -11.61,-10.82 -28.68,-28.73 -57.41,-57.39 -86.11,-86.13 -8.91,-9.23 -18.64,-17.73 -26.83,-27.65 14.18,-8.18 27.97,-17.03 42.65,-24.3 54.36,-28.08 114.27,-45.36 175.22,-50.65zm-423.97 879.58c12.05,4.02 23.7,9.22 35.92,12.86 5.69,2.17 13.09,2.71 16.04,8.89 74.57,118.4 180.65,217.97 306.97,279.11 32.22,15.99 65.86,29 100.16,39.78 3.7,1.16 7.73,2.04 11.6,0.99 138.55,-41.46 261.99,-127.91 353.01,-239.76 5.84,-7 11.26,-14.34 17.2,-21.27 8.05,7.96 16,16.01 24.04,23.98 -20.63,26.3 -42.33,51.86 -66.23,75.28 -90.01,92.44 -204.05,161.64 -328.2,197.12 -2.38,0.5 -4.76,0.5 -7.12,0.04 -132.91,-37.39 -253.54,-114.44 -346.86,-215.79 -27.61,-29.63 -52.85,-61.46 -75.74,-94.84 -14.43,-21.58 -28.9,-43.28 -40.79,-66.39zm465.11 -24.79c0.58,-0.23 1.76,-0.67 2.34,-0.9 10.9,33.96 21.81,67.94 33.12,101.76 26.26,0.02 52.53,0.02 78.77,0 9.98,0.1 20.05,-0.58 29.94,1.31 -27.73,20.07 -55.34,40.29 -83.14,60.24 -1.38,1.73 -5.46,3.06 -3.93,5.81 11.33,33.79 21.9,67.86 33.36,101.61 -29.09,-20.2 -57.38,-41.58 -86.21,-62.13 -2.24,-2.49 -4.92,-0.21 -7.07,1.1 -28.21,20.33 -56.05,41.21 -84.5,61.18 11.57,-34.37 22.55,-68.93 33.79,-103.41 -2.46,-2.75 -5.49,-4.89 -8.41,-7.06 -26.45,-19.09 -52.81,-38.32 -79.26,-57.39 35.17,-0.83 70.39,0.13 105.56,-0.45 3.52,0.34 4.23,-3.46 5.24,-5.96 6.57,-20.38 13.14,-40.77 19.79,-61.12 3.5,-11.55 8.07,-22.78 10.61,-34.59zm-569.16 -61.52c4.2,-5.63 9.14,-10.83 15,-14.75 1.55,0.83 3.05,1.76 4.47,2.83 76.86,59.55 173.59,92.98 270.79,93.73 97.88,1.84 195.94,-29.93 274.6,-88.13 2.77,-2.34 6.63,-4.1 9.1,-0.38 56.25,51.86 137.91,74.98 212.82,58.65 11.39,-1.7 22,-6.45 33.21,-8.7 6.69,3.97 11.4,10.46 16.74,16 -31.73,13.5 -66.49,19.62 -100.92,18.89 -58.91,0.71 -117.32,-20.68 -163.31,-57.21 -2.87,-3.35 -6.7,-1.29 -9.64,0.77 -62.59,42.68 -135.67,69.81 -210.88,78.59 -113.79,13.8 -232.3,-15.3 -326.46,-80.76 -8.65,-6.29 -17.99,-11.87 -25.52,-19.53zm824.02 -145.5c82.16,81.09 163.54,163.01 245.34,244.46 2.01,2.23 4.51,4.61 4.12,7.92 0.11,25.83 -0.09,51.67 0.06,77.5 -27.39,0.09 -54.8,0.07 -82.18,0.02 -72.92,-73.1 -145.93,-146.11 -219.07,-219.01 -0.07,-7.45 -0.11,-14.92 0.14,-22.35 74.35,74.02 148.39,148.38 222.69,222.45 2.96,3.65 7.9,2.53 12,2.75 16.43,-0.24 32.89,0.21 49.33,-0.28 -88.68,-88.6 -177.39,-177.22 -266.05,-265.82 -4.14,-3.07 0.28,-7.12 2.6,-9.61 11.64,-11.57 21.62,-24.63 31.02,-38.03zm-370.92 -410.37c42.51,-20.83 90.72,-30.36 137.93,-26.5 63.87,4.62 125.82,33.36 170.07,79.73 24.65,24.71 43.64,54.86 56.65,87.19 26.5,67.06 24.37,145.05 -6.57,210.27 -13.48,28.86 -32.22,55.35 -55.36,77.33 -17.67,18.29 -39.03,32.35 -60.86,45.11 24.81,24.51 49.35,49.27 74.08,73.85 6.16,6.2 12.48,12.28 18.18,18.95 -36.86,8.93 -76.14,7.84 -112.23,-3.95 -37.63,-12.15 -71.21,-35.79 -95.81,-66.7 -1.83,-2.27 -5.19,-6.72 -7.92,-3.07 -68.89,61.38 -158.71,99.1 -250.94,103.93 -30.89,0.77 -61.96,0.73 -92.48,-4.87 -66.72,-10.93 -130.72,-38.58 -184.13,-80.08 73.1,-72.24 145.46,-145.29 218.32,-217.77 2.26,-2.92 6.14,-2.3 9.39,-2.47 31.3,0.13 62.58,0.06 93.87,0.08 29.78,-1.02 59.39,-13.35 80.08,-34.99 10.39,-11.23 18.59,-24.69 22.71,-39.48 -56.14,-0.04 -112.31,-0.02 -168.47,-0.02 -3.63,-0.25 -6.94,1.53 -9.35,4.15 -31.77,31.88 -63.69,63.61 -95.44,95.53 -2.53,2.42 -5.32,5.32 -9.17,4.64 -18.72,-0.16 -37.44,0.27 -56.16,-0.31 30.77,-31.71 62.47,-62.57 93.6,-93.94 72.69,-72.71 145.47,-145.32 218.12,-218.07 3.49,-3.44 7.45,-6.4 11.89,-8.54zm-249.86 -70.08c45.08,44.68 89.79,89.76 134.79,134.54 2.84,2.84 5.84,5.58 8.27,8.79 -1.76,4.67 -5.89,7.87 -9.56,11.01 -2.04,-0.86 -3.75,-2.28 -5.32,-3.78 -38.62,-38.77 -77.39,-77.41 -116.06,-116.12 -3.97,-4.1 -8.43,-7.75 -11.85,-12.33 -1.15,-7.31 -0.34,-14.76 -0.27,-22.11zm-100.43 36.09c49.1,-85.8 123.01,-156.91 210.08,-203.62 5.3,5.39 10.95,10.52 15.65,16.49 -29.21,14.83 -56.37,33.34 -82.37,53.17 56.74,57.52 114.25,114.32 171.21,171.64 -13.44,13.76 -26.99,27.45 -40.86,40.77 -57.7,-57.73 -115.53,-115.37 -173.18,-173.16 -34.99,33.36 -63.59,73.03 -87.11,115.15 -4.68,-4.64 -9.75,-8.93 -13.85,-14.11 -2,-1.95 -0.62,-4.35 0.43,-6.33zm-112.69 -224.59c11.28,11.07 23.17,21.72 33.32,33.81 0.66,151 -0.04,302.05 0.34,453.06 1.33,11.22 1.81,22.51 1.91,33.81 2.95,36.3 7.15,72.58 14.37,108.32 5.64,31.09 14.3,61.53 22.73,91.93 -7.79,9.79 -17.52,17.9 -26.13,26.98 -26.06,-75.63 -40.2,-155.16 -45.12,-234.88 0.49,-13.78 -1.97,-27.41 -1.44,-41.15 0.04,-157.29 -0.02,-314.59 0.02,-471.88zm83.96 -83.3c358.86,-0.58 717.74,-0.02 1076.6,-0.28 0.08,154.57 -0.02,309.14 0.02,463.73 -0.19,41.19 0.38,82.37 -0.35,123.54 -5.53,118.74 -34.32,236.47 -85.14,343.98 -3.5,7.16 -6.5,14.63 -10.9,21.32 -8.59,-7.77 -17.26,-15.69 -24.5,-24.73 2.08,-7.21 6.27,-13.56 9.19,-20.43 52.88,-115.78 80.18,-243.36 78.1,-370.67 0,-167.64 0.04,-335.26 -0.02,-502.89 -336.49,-0.02 -672.98,-0.08 -1009.48,0.03 -11.15,-11.21 -22.46,-22.29 -33.52,-33.6zm-118.54 -6.42c-0.88,-15.78 13.97,-29.95 29.62,-28.88 7.13,-0.14 13.33,3.78 19,7.65 4.02,-2.77 7.37,-7.77 12.73,-7.6 9.3,-0.02 18.66,-0.49 27.93,0.32 5.71,3.48 9.94,8.82 14.62,13.48 -5.94,6.14 -12.1,12.07 -17.94,18.31 43.45,42.7 86.02,86.31 129.62,128.86 29.22,-25.89 61.29,-48.48 94.93,-68.23 7.32,7.56 15.26,14.56 22.2,22.5 -0.07,2.47 -2.32,3.52 -4.14,4.64 -85.19,48.62 -157.15,119.94 -206.72,204.58 -8.25,-7.59 -16.19,-15.52 -23.83,-23.74 18.76,-29.73 39.2,-58.44 62.41,-84.86 -40.47,-41.14 -81.67,-81.6 -122.3,-122.61 -2.13,-2.16 -4.28,-4.35 -6.7,-6.2 -6.66,4.96 -11.45,12.05 -18.44,16.6 -4.84,-4.6 -10.85,-8.78 -13.59,-15.01 -0.67,-8.72 -0.3,-17.48 -0.24,-26.23 -0.32,-5.48 5.11,-8.61 7.51,-12.99 -2.91,-6.61 -7.31,-13.01 -6.67,-20.59zm588.54 182.24l0 0c2.4,25.61 4.75,51.22 7.53,76.79 13.02,-0.11 26.05,-0.3 39.1,0.13 2.38,-25.63 5.06,-51.2 7.58,-76.81 -18.01,-1.96 -36.18,-1.98 -54.21,-0.11zm-77.91 12.35l0 0c6.77,24.9 14.86,49.44 22.07,74.23 12.45,-3.14 25.1,-5.36 37.76,-7.43 -0.85,-25.8 -5.02,-51.31 -6.74,-77.04 -17.9,2.34 -35.57,5.94 -53.09,10.24zm157.13 -10.22l0 0c-3.4,25.48 -4.45,51.22 -8.12,76.7 12.8,2.38 25.55,5.2 38.36,7.54 8.33,-24.15 15.07,-48.89 22.48,-73.36 -17.26,-5.06 -34.99,-8.03 -52.72,-10.88zm-241.13 43.41l0 0c19.3,19.21 38.45,38.59 57.88,57.72 7.92,-3.47 16.08,-6.37 24.02,-9.79 -7.43,-24.49 -14.45,-49.09 -22.24,-73.46 -20.55,6.78 -40.68,15.11 -59.66,25.53zm317.87 -25.25l0 0c-7.14,24.41 -14.77,48.69 -21.87,73.12 11.42,6.1 24.17,9.38 35.59,15.61 12.03,-22.82 24.91,-45.24 35.81,-68.64 -16.19,-7.45 -32.52,-14.7 -49.53,-20.09zm66.96 42.08l0 0c-10.11,19.62 -20.8,38.98 -30.8,58.65 11.05,6.46 21.77,13.5 31.99,21.23 16.55,-19.8 33.38,-39.48 48.56,-60.37 -14.41,-10.03 -28.62,-20.42 -44.01,-28.9 -2.39,2.8 -4.02,6.16 -5.74,9.39zm21.13 96.04l0 0c9.42,8.87 18.52,18.03 27.48,27.33 19.51,-16.55 39.43,-32.65 58.84,-49.31 -11.21,-13.93 -24.36,-26.08 -37.74,-37.83 -16.36,19.78 -32.65,39.66 -48.58,59.81zm100.45 -0.66l0 0c-19.13,15.6 -37.9,31.64 -56.92,47.38 7.63,10.35 14.73,21.08 21.79,31.84 22.68,-11.94 45.17,-24.25 67.46,-36.91 -7.97,-13.68 -16.81,-26.86 -26.26,-39.56 -1.39,-1.76 -3.63,-5.05 -6.07,-2.75zm-22.72 101.99l0 0c4.53,11.79 10.42,23.06 14.36,35.14 24.8,-7.29 49.49,-15.05 73.98,-23.35 -6.42,-16.64 -12.69,-33.41 -21.38,-49.02 -22.18,12.65 -45.34,23.68 -66.96,37.23zm21.94 59.53l0 0c3.44,12.6 5.26,25.55 8.29,38.22 25.01,-4 50.39,-5.39 75.48,-8.87 -0.23,-14.43 -4.29,-28.36 -7.13,-42.42 -0.98,-3.39 -1.18,-7.41 -4.14,-9.77 -24.3,7.15 -48.39,15.09 -72.5,22.84zm67.76 56.18l0 0c-19.13,2.84 -38.52,3.57 -57.56,6.98 0.79,12.88 1.97,25.8 0.26,38.67 26,1.17 51.87,4.67 77.9,5.86 -0.47,-17.63 1.38,-35.41 -1.33,-52.9 -6.44,0.28 -12.9,0.41 -19.27,1.39zm-59.28 70.05l0 0c-1.89,12.75 -4.35,25.4 -6.74,38.07 24.54,7.36 49.19,14.32 73.89,21.18 4.47,-17.34 7.95,-34.94 9.71,-52.76 -25.66,-1.89 -51.25,-4.28 -76.86,-6.49zm-23.74 89.1l0 0c3.16,4.85 7.69,8.56 11.72,12.68 15.31,14.84 29.91,30.42 45.49,44.98 10.73,-20.23 19.62,-41.43 26.68,-63.22 -24.73,-6.98 -49.29,-14.69 -74.21,-20.93 -3.35,8.77 -7.34,17.4 -9.68,26.49z"/>
  </g>
 </g>
</svg>
