<?xml version="1.0" encoding="UTF-8"?>
<!DOCTYPE svg PUBLIC "-//W3C//DTD SVG 1.1//EN" "http://www.w3.org/Graphics/SVG/1.1/DTD/svg11.dtd">
<!-- Creator: CorelDRAW -->
<svg xmlns="http://www.w3.org/2000/svg" xml:space="preserve" width="2000px" height="1600px" version="1.1" style="shape-rendering:geometricPrecision; text-rendering:geometricPrecision; image-rendering:optimizeQuality; fill-rule:evenodd; clip-rule:evenodd"
viewBox="0 0 2000 1600"
 xmlns:xlink="http://www.w3.org/1999/xlink">
 <defs>
  <style type="text/css">
   <![CDATA[
    .fil1 {fill:#3B3968;fill-rule:nonzero}
    .fil2 {fill:#B80035;fill-rule:nonzero}
    .fil0 {fill:#FEFEFE;fill-rule:nonzero}
   ]]>
  </style>
 </defs>
 <g id="Capa_x0020_1">
  <metadata id="CorelCorpID_0Corel-Layer"/>
  <g id="Belmont_x0020_Bruins.cdr">
   <path class="fil0" d="M1128.37 958.31c16.37,-19.27 38.35,-34.81 63.92,-38.24 34.13,-5.99 69.47,9.37 90.96,36.02 -0.03,-10.73 -0.05,-21.44 0,-32.17 153.22,0.02 306.41,0.02 459.64,0 0.02,56.89 -0.03,113.81 0.02,170.7 -13.23,0.35 -26.46,0.73 -39.7,0.45 -6.29,-10.66 -17.19,-17.01 -28.16,-21.87 -0.26,59.28 0,118.55 -0.12,177.83 7.9,0.92 15.83,1.93 23.8,2.78 -0.04,29.2 0,58.4 -0.04,87.62 -109.35,-13.2 -219.29,-20.66 -329.16,-27.85 -122.21,-7.01 -244.58,-12.79 -367.02,-12.62 -1.91,11.91 -4.17,23.8 -5.8,35.76 -16.44,0.21 -32.86,0.09 -49.27,0.07 -2.86,-11.94 -5.38,-23.94 -8.28,-35.85 -220.07,3.49 -440.33,14.31 -658.89,41.06 0.03,-29.2 -0.16,-58.4 0.1,-87.58 6.7,-0.54 13.4,-1.25 20.1,-1.96 0.07,-80.9 -0.03,-161.78 0.02,-242.68 -6.72,-0.03 -13.47,-0.03 -20.19,-0.05 -0.05,-28.61 -0.12,-57.22 0.02,-85.83 282.65,0.07 565.29,0.02 847.93,0.02 0.07,11.46 -0.02,22.93 0.12,34.39zm-736.98 305.1c-0.07,-40.9 -0.04,-81.8 0,-122.7 9.77,0.35 20.24,-1.35 29.42,2.97 7.87,3.92 8.13,13.68 8.2,21.35 -0.07,26.72 0.1,53.47 -0.07,80.22 0.12,5.49 -1.86,12.54 -8.04,13.84 -9.67,2.41 -19.67,2.95 -29.51,4.32zm796.54 -246.72c1.72,-11.77 5.35,-26.09 18.47,-29.65 16.98,3.02 18.7,22.74 20.75,36.61 3.8,38.32 3.21,76.96 3.24,115.45 -1.25,25.86 -0.17,52.01 -5.19,77.54 -1.7,6.98 -3.33,14.69 -8.75,19.83 -5.66,5.57 -16.02,4.51 -20.64,-1.86 -5.71,-7.97 -7.03,-18.05 -8.56,-27.46 -3.02,-26.46 -3.57,-53.14 -3.4,-79.74 0.14,-36.92 -1.02,-74.07 4.08,-110.72zm-796.51 81.96c-0.12,-37.22 -0.05,-74.44 -0.05,-111.66 8.33,0.12 16.68,-0.31 25,0.24 3.78,-0.1 7.46,2.69 8.31,6.39 2.14,9.08 1.76,18.49 1.36,27.74 -1.11,13.84 -0.38,27.74 -0.68,41.61 -11.35,11.86 -22.65,23.77 -33.94,35.68zm784.08 -231.24c24.37,0.56 48.59,-2.72 72.15,-8.73 -7.76,18.42 -19.58,35.07 -34.6,48.26 -3.18,-0.03 -6.37,-0.03 -9.53,-0.03 3.75,-8.3 7.12,-16.77 10.47,-25.23 -12.95,-4.44 -25.8,-9.18 -38.49,-14.27zm94.23 -15.69c25.05,-9.15 48.45,-22.38 70.05,-37.98 -1.72,17.93 -7,35.29 -13.51,52.01 -2.22,-4.29 -4.44,-8.56 -6.68,-12.8 -6.11,14.6 -15.8,27.64 -29.03,36.49 -0.73,-6.54 -1.63,-13.02 -2.76,-19.49 -10.97,17.39 -22.08,36.04 -40.36,46.66 8.89,-21.11 16.28,-42.79 22.29,-64.89zm-504.67 -41.25c5.83,18.06 12.85,37.29 29.01,48.73 3.07,-9.44 7.34,-18.42 13,-26.56 0.68,14.62 3.25,30.19 13.94,41.09 2.81,-9.39 7.5,-18.02 13.25,-25.9 0.41,20.49 8.75,40.59 23.24,55.12 1.32,-8.47 3.49,-16.93 8.51,-24.01 3.12,11.75 8.26,22.81 14.96,32.95 -19.06,0.05 -38.12,0.07 -57.18,-0.02 -1.86,-4.79 -3.77,-9.58 -5.78,-14.3 -1.7,4.74 -3.35,9.51 -4.78,14.37 -5.22,-0.03 -10.45,0 -15.67,0.02 -6.48,-11.6 -10.45,-24.36 -12.1,-37.53 -3.68,5.52 -7.36,11.04 -11.06,16.54 -14.06,-24.06 -18.14,-53.87 -9.34,-80.5zm594.82 -13.68c5,-6.16 12.03,-10.34 17.93,-15.6 -2.29,20.64 -5.69,42.77 -19.75,59.07 1.32,-14.46 1.25,-29.02 1.82,-43.47zm31.91 -31.35c6.02,-7.41 11.44,-15.24 17.2,-22.83 1.18,17.31 -5.5,34.43 -17.36,46.96 0.07,-8.07 0.19,-16.11 0.16,-24.13zm-599.72 -54.23c10.73,7.83 22.38,14.27 33.35,21.72 3.94,9.58 6.98,19.61 12.45,28.5 2.03,-6.21 4.27,-12.34 6.8,-18.35 7.8,18.09 15.26,36.39 25.35,53.4 -22.66,-7.6 -43.28,-21.91 -57.55,-41.16 -2.29,4.51 -4.58,9.03 -6.91,13.51 -7.76,-18.2 -13.35,-37.69 -13.49,-57.62zm462.87 -44.67c17.2,28.68 21.56,63.59 18.47,96.44 -3.26,-4.71 -6.46,-9.43 -9.84,-14.01 -1.72,18.14 -6.7,36.59 -18.06,51.16 -2.22,-5.99 -4.53,-11.91 -7.01,-17.76 -19.36,26.02 -47.79,44.21 -78.45,54.04 2.95,-7.38 5.17,-15.02 6.75,-22.81 -38.64,21.07 -85.88,22.72 -127.11,8.54 33.51,-2.76 67.24,-14.41 92.2,-37.57 -0.03,5.12 -0.03,10.23 0.02,15.35 24.98,-9.86 46.3,-27.85 61.04,-50.21 1.58,9.19 2.65,18.56 1.11,27.85 12.6,-13.75 22.67,-29.81 29.96,-46.96 2.1,7.92 3.13,16.06 3.58,24.25 19.32,-25.12 24.25,-57.65 27.34,-88.31zm-532.5 54.98c-6.25,-22.9 -3.56,-47.34 4.5,-69.44 16.35,18.87 34.42,36.32 54.51,51.16 -1.84,14.69 -1.74,29.6 0.85,44.2 -5.14,-3.84 -9.83,-8.25 -13.82,-13.3 -1.91,11.11 -1.77,22.45 -0.02,33.59 -22.41,-14.04 -34.63,-39.54 -37.01,-65.29 -4.11,5.78 -6.96,12.31 -9.01,19.08zm-135.84 -97.37c5.54,13.99 13.11,27.1 23.21,38.33 7.43,-9.79 15.45,-19.13 24.13,-27.83 -1.96,24.53 -3.02,50.26 6.18,73.59 3.04,-7.19 6.82,-14.03 11.44,-20.33 -0.38,15.54 1.25,31.32 7.55,45.69 4.27,-6.89 8.7,-13.66 13.63,-20.1 -0.47,15.28 1.72,30.94 9.95,44.13 3.12,-7.83 7.79,-15.05 14.91,-19.79 -0.35,34.96 7.83,70.29 23.75,101.4 -32.03,-21.51 -61.94,-46.89 -85.05,-77.98 -29.63,-39.46 -46.87,-87.93 -49.7,-137.11zm744.55 32.76c20.17,-10.28 39.46,-22.45 56.26,-37.71 -2.93,21.13 -10.5,41.44 -20.5,60.22 -3.92,7.5 -9.06,14.34 -15.12,20.28 6.37,-13.75 8.61,-28.85 9.34,-43.85 -9.98,0.78 -19.98,1.3 -29.98,1.06zm65.31 -45.83c4.65,-6.6 10.69,-12.12 15.97,-18.23 2.57,25.24 -7.81,49.77 -21.63,70.31 3.68,-17.14 5.83,-34.53 5.66,-52.08zm-732.78 46.99c-2.97,-28.21 4.04,-57.32 18.75,-81.52 9.27,25.08 22.98,48.38 39.56,69.35 -11.53,15.73 -15.73,35.36 -17.29,54.46 -8.18,-14.25 -9.72,-30.85 -9.67,-46.94 -6.96,7.72 -11.79,16.94 -14.53,26.94 -2.64,-17.08 -3.23,-34.41 -0.5,-51.51 -7.52,8.44 -12.78,18.53 -16.32,29.22zm769.27 -95.41c2.67,17.95 -0.3,36.32 -7.52,52.91 0.66,-11.89 -1.42,-23.54 -3.82,-35.1 3.18,-6.28 7.5,-11.94 11.34,-17.81zm-426.55 61.07c6.65,-24.51 15.67,-49.06 30.9,-69.66 -2.36,21.16 -1.41,42.58 1.04,63.69 4.55,-4.34 9.15,-8.63 13.82,-12.86 0.73,9.86 2.03,19.72 4.39,29.35 4.79,-2.22 9.55,-4.41 14.34,-6.66 1.86,3.8 3.7,7.6 5.54,11.42 4.32,-1.93 8.64,-3.87 12.93,-5.83 2.78,3.9 5.57,7.81 8.33,11.75 4.64,-2.73 9.31,-5.4 14.03,-8.02 2.36,3.54 4.76,7.05 7.17,10.57 2.9,-2.83 5.85,-5.64 8.85,-8.42 2.45,2.71 4.9,5.4 7.4,8.11 5.95,-8.4 11.94,-16.72 17.88,-25.12 2.08,4.93 4.08,9.89 6.09,14.86 9.74,-15.02 17,-31.42 24.74,-47.53 -0.61,23.66 -4.65,47.08 -9.44,70.2 -2,8.42 -7.05,19.51 -17.4,18.63 -23.85,-1.65 -48.1,-1.27 -71.54,3.89 -20.95,-15.28 -46.3,-21.98 -70.41,-30.42 -11.06,-4.15 -11.39,-18.28 -8.66,-27.95zm-352.93 -26.11c-4.32,-23.03 3.82,-47.72 17.6,-66.38 1.2,8.87 2.99,17.64 5.51,26.23 -11.81,10.59 -18.77,25.12 -23.11,40.15zm-9.67 -70.32c5.68,-20.28 14.22,-40.38 28.63,-56.06 -2.14,13.94 -4.69,27.97 -3.06,42.1 -12.74,10.38 -21.63,24.51 -28.45,39.3 -0.05,-8.52 0.43,-17.13 2.88,-25.34zm847.81 -102.7c14.82,-1.43 26.59,-11.13 37.91,-19.86 -1.56,7.29 -3.52,14.79 -8.4,20.64 -4.48,5.9 -11.41,9.08 -16.77,13.99 -1.46,4.98 -1.11,10.26 -1.65,15.35 -6.06,-9.01 -9.77,-19.34 -11.09,-30.12zm-49.01 -136.73c16.94,8.63 36.18,3.47 54.23,6.04 16.41,2.1 34.08,5.97 45.9,18.47 9.39,9.08 15.35,22.64 11.74,35.75 -3.37,-2.59 -6.67,-5.21 -9.93,-7.9 6.65,14.44 0.05,29.68 -7.88,42.01 -1.76,-5.02 -3.86,-9.91 -6.17,-14.67 -2.27,18.47 -20.08,28.52 -36.33,32.93 -0.54,-5.21 -1.11,-10.38 -1.65,-15.57 11.42,-0.99 20.8,-8.28 26.7,-17.74 -2.22,0.05 -6.67,0.17 -8.89,0.22 7.97,-8.99 9.67,-21.28 9.46,-32.86 -8.19,7.76 -18.8,13.09 -30.27,12.9 -3.7,-0.28 -9.03,0.38 -10.68,-3.89 -10.35,-19.6 -22.5,-38.28 -36.23,-55.69zm-409.69 123.74c-22.45,-43.54 -9.41,-100.91 27.81,-132.21 10.88,7.64 22.36,15.45 35.62,18.02 12.55,-0.87 24.41,-5.89 36.91,-7.4 20.01,-3.87 41.09,1.84 57.51,13.61 6.49,4.41 12.41,10.16 20.19,12.28 8.85,2.5 18.12,2.81 27.24,3.54 4.39,41.73 -14.83,84.11 -45.02,112.4 8.35,-24.32 11.46,-50.24 9.6,-75.86 -6.82,6.46 -14.11,12.48 -22.46,16.89 -0.31,-9.44 -0.23,-18.85 -0.16,-28.26 -4.15,2.29 -8.28,4.55 -12.43,6.82 -2.15,-4.3 -4.25,-8.59 -6.33,-12.91 -3.79,2.36 -7.61,4.72 -11.44,7.08 -2.28,-3.47 -4.6,-6.96 -6.88,-10.42 -3.05,2.31 -6.07,4.62 -9.11,6.91 -2.19,-4.23 -4.36,-8.45 -6.56,-12.65 -3.67,3.52 -7.38,7.06 -10.96,10.67 -4.39,-3.64 -8.71,-7.29 -13.02,-11 -7.2,8.28 -13.83,17.03 -19.82,26.23 -3.75,-7.97 -6.11,-16.48 -7.07,-25.24 -23.92,20.83 -37.72,50.79 -43.62,81.5zm270.22 -175.51c21.96,-6.37 45.36,-3.12 66.73,3.93 -5.29,2.51 -10.5,5.17 -15.55,8.1 30.36,7.94 54.06,31.01 71.82,55.9 8.66,12.33 15.55,25.85 20.46,40.1 -7.25,-3.59 -14.44,-7.22 -21.61,-10.97 -4.98,17.38 -4.39,37.48 6.49,52.57 6.67,9.72 17.1,15.81 27.81,20.19 -4.09,1.37 -8.14,2.76 -12.18,4.13 3.14,4.67 6.16,9.41 8.94,14.32 -5.37,-0.61 -10.77,-1.2 -16.15,-1.7 17.88,27.5 12.83,62.91 4.81,92.93 -3.33,-3.42 -6.7,-6.79 -10.1,-10.09 -3.3,26.49 -15.42,51.35 -33.04,71.25 -0.9,-5.7 -1.82,-11.41 -2.64,-17.12 -9.34,15.03 -22.13,28.07 -37.22,37.34 -0.1,-4.34 -0.19,-8.68 -0.29,-13 -18.42,41.07 -63.49,67.72 -108.33,64.18 8.96,-2.69 17.29,-7.31 24.08,-13.82 20.71,-19.18 35.43,-45.19 39.96,-73.17 3.61,5.17 6.84,10.59 9.48,16.35 7.38,-13.4 13.56,-27.48 17.5,-42.29 4.08,4.83 7.62,10.12 10.66,15.68 11.2,-14.76 21.02,-30.92 25.9,-48.96 3.77,4.5 7.64,8.94 11.77,13.13 10.12,-18.42 11.82,-39.72 14.36,-60.19 3.8,3.3 7.65,6.58 11.59,9.76 4.1,-24.71 0.51,-50.9 -10.88,-73.28 -6.22,23.59 -19.22,44.84 -34.53,63.64 -2.88,-4.74 -5.85,-9.44 -8.94,-14.06 -9.76,20.14 -21.44,39.96 -39.06,54.27 -0.87,-5.66 -1.96,-11.29 -3.16,-16.91 -4.81,9.93 -8.78,20.48 -16.2,28.83 -18.94,22.73 -47.79,35.14 -76.66,38.87 34.18,-22.32 55.62,-60.17 65.33,-99.12 1.99,6.16 3.9,12.34 5.9,18.5 8.94,-13.66 15.95,-28.43 23.19,-43 3.94,5.85 7.57,11.89 11.04,17.99 5.84,-11.15 9.5,-23.25 13.46,-35.16 3.4,4.1 6.89,8.13 10.52,12.05 13.4,-20.92 14.53,-46.42 16.14,-70.46 -7.72,15.9 -17.39,31.3 -31.35,42.44 -0.52,-5.57 -1.06,-11.14 -1.56,-16.7 -11.74,15.14 -30.99,21.32 -49.01,25.12 14.27,-20.88 24.81,-44.37 30.24,-69.09 8.02,5.76 17.92,4.72 27.22,4.32 -0.33,-2.55 -0.66,-5.07 -0.99,-7.57 4.93,-1.33 10.45,-2.08 14.31,-5.76 6.23,-5.8 8.17,-14.46 10.43,-22.34 2.66,0.36 8,1.06 10.66,1.42 -2.57,-2.9 -5.14,-5.78 -7.69,-8.63 3.85,-2.01 7.74,-3.99 11.56,-6.09 -18.59,-16.56 -45.48,-16.6 -68.92,-15.35 -6.04,-10.5 -12.9,-20.74 -16.3,-32.48zm-609.66 -28.76c2.65,9.18 7.62,17.43 14.82,23.76 1.03,-3.87 2,-7.76 2.94,-11.66 6.25,14.49 19.6,23.83 33.52,30.1 -10.92,3.8 -22.05,7.88 -33.73,8.3 -15.94,-10.99 -20.75,-32.26 -17.55,-50.5zm22.62 -84.49c25.26,-21.08 67.51,-12.99 84.92,14.44 1.91,-5.99 3.84,-11.98 5.92,-17.9 14.95,8.54 30.94,15.28 47.55,19.95 -3.77,2.03 -7.53,4.11 -11.23,6.23 5.28,2.26 10.57,4.65 15.38,7.85 -38.94,-0.68 -73.24,23.14 -97.79,51.49 -0.9,-4.62 -1.61,-9.27 -2.17,-13.94 -6.44,6.73 -10.83,14.96 -14.13,23.59 -9.7,-17.81 -5.17,-38.92 2.05,-56.73 -14.55,6.25 -25.07,18.47 -33.47,31.49 -2.66,-9.95 -3.02,-20.31 -1.3,-30.45 -6.03,3.96 -11.32,8.94 -16.22,14.2 -1.14,-18.66 5.35,-38.47 20.49,-50.22zm427.45 -32.76c26.96,-1.13 55.1,4.34 77.06,20.78 -19.7,5.33 -32.74,27.06 -28.33,46.96 5.4,27.96 46.28,41.82 66.26,20.31 -8.83,-0.02 -18.17,0.62 -26.3,-3.44 -11.26,-6.23 -9.91,-26.49 2.71,-30.36 15.45,-4.69 32.12,6.58 37.17,21.21 4.86,15.19 2.97,32.26 -4.72,46.2 22.98,18.28 34.94,47.27 36.73,76.07 1.44,18.92 -0.61,37.95 -5.68,56.21 -2.55,-0.12 -5.05,-0.26 -7.6,-0.4 1.37,24.63 -0.24,51.42 -16.09,71.61 -3.09,-4.2 -6.25,-8.35 -9.53,-12.38 0.59,19.93 -1.76,40.92 -13.89,57.48 -2.9,-4.72 -5.75,-9.41 -8.63,-14.11 -1.77,20.5 -7.27,41.49 -21.06,57.32 -13.57,15.14 -23.19,35.99 -18.45,56.63 8.02,37.36 20.83,75.51 13.14,114.09 -3.42,-3.46 -6.89,-6.88 -10.4,-10.21 -0.66,21.09 -7.2,42.48 -20.81,58.87 -2.64,-2.61 -3.82,-7.66 -7.95,-8.11 -7.52,16.58 -19.79,30.73 -35.4,40.17 -0.99,-4.88 -2.03,-9.77 -3.04,-14.63 -7.24,12.13 -18.05,21.87 -30.88,27.72 0.26,-7.53 0.24,-15.07 -0.4,-22.57 -9.98,13.42 -21.53,25.94 -36.44,33.99 -15.97,-9.98 -25.24,-27.2 -29.23,-45.17 -3.89,6.27 -7.54,12.73 -11.08,19.22 -21.3,-15.99 -32.46,-41.89 -37.67,-67.32 -2.19,5.62 -4.86,11.04 -8,16.21 -19.08,-18.31 -25.94,-47.84 -15.92,-72.49 -4.24,1.56 -8.51,3.07 -12.81,4.51 14.84,-27.01 20.67,-58.76 17.22,-89.3 -3.98,5.14 -8.28,10.05 -13.02,14.53 3.4,-22.06 -1.72,-46.3 -16.79,-63.22 1.93,18.24 3.75,37.79 -4.58,54.82 -5.4,11.68 -15.66,19.88 -25.52,27.67 8.12,0.85 16.28,0.33 24.2,-1.61 -2.78,6.75 -6.2,13.21 -9.95,19.49 4.74,-0.38 9.48,-0.71 14.24,-0.99 -13.53,18.56 -14.17,42.95 -9.88,64.67 3.11,-6.25 7.6,-11.72 13.78,-15.19 -9.41,33.24 -2.24,69.91 17.88,97.79 2.21,-6.81 5.16,-13.37 9.45,-19.15 -0.07,32.79 22.2,59.44 41.42,83.85 -16.93,-2.92 -34.29,-7.73 -47.6,-19.15 -8.86,-7.15 -14.9,-16.93 -22.33,-25.43 -1.18,5.64 -2.1,11.3 -3.05,16.99 -19.71,-16.54 -25.66,-43.05 -26.79,-67.63 -7.08,6.68 -11.53,15.31 -14.79,24.37 -9.93,-15.4 -10.33,-34.72 -5.52,-51.92 -7.24,4.06 -13.66,9.41 -18.37,16.28 -3.87,-25.5 -1.8,-52.22 9.12,-75.83 -12.69,10.52 -22.38,24.48 -26.79,40.42 -7.92,-6.2 -13.66,-14.6 -17.31,-23.91 -6.68,8.02 -12.36,16.89 -15.59,26.91 -8.28,-24.32 -3.33,-51.28 7.99,-73.73 -5.02,2.54 -10.05,5.21 -14.9,8.06 3.84,-10.33 5.47,-21.27 7.21,-32.12 -11.08,17.17 -31.08,25.47 -50.36,29.39 12.39,-12.55 13.09,-31.16 12.76,-47.72 -7,5.73 -15.16,9.77 -23.91,12.17 2.07,-16.27 0.14,-33.8 -10.71,-46.82 -7.97,6.7 -13.7,15.4 -18.75,24.39 -6.63,-13.54 -7.83,-28.87 -6.37,-43.68 -3.77,4.76 -7.5,9.57 -11.37,14.29 -2.29,-21.58 2.99,-43 10.68,-63 -6.48,4.13 -12.07,9.39 -17.43,14.84 -7.57,-32.58 6.87,-66.17 29.94,-88.98 -12.01,1.42 -23.19,6.21 -35.01,8.47 2.03,-30.07 23.94,-54.7 49.13,-69.08 -6.32,-1.32 -12.64,-2.67 -18.94,-4.01 14.53,-9.16 26.78,-21.52 37.23,-35.05 9.1,-12.01 17.45,-25.48 18.86,-40.86 -6.15,2.46 -12.26,5.05 -18.44,7.41 10.83,-33.97 37.55,-62.88 71.77,-73.8 20.22,-7.36 42.11,-6.7 63.17,-4.53 -4.69,-5.55 -9.86,-10.66 -15.19,-15.59 20.71,-7.72 43.87,-8.99 64.89,-1.56 -3.47,-5.73 -7.12,-11.37 -10.76,-16.98 29.11,1.79 59.84,12.5 78.69,35.75 -10.1,4.77 -19.84,10.24 -29.13,16.44 -34.3,-23.51 -82.22,-15.94 -114.21,8.07 7.57,-1.11 15.21,-1.86 22.88,-2.03 -2.55,5 -5.02,10.07 -7.5,15.12 6.82,-2.66 14.01,-4.27 21.37,-4.6 -2.1,11.28 -0.26,22.95 5.42,32.95 -3.27,1.87 -6.51,3.73 -9.71,5.69 13.06,3.02 26.6,3.21 39.79,0.82 -17.65,23.33 -22.32,53.64 -22.98,82.16 0.17,30.42 4.75,61.65 18.12,89.25 -1.79,-13.82 -1.58,-27.83 0.16,-41.63 3.68,0.02 7.36,0.07 11.04,0.12 -7.07,-15.83 -10.99,-33.24 -9.86,-50.62 4.86,2.71 9.63,5.52 14.44,8.3 -5.69,-29.1 -3.4,-60.29 10.73,-86.75 17.43,-32.95 47.77,-59.13 82.82,-71.75 -0.76,-12.43 1.79,-25.9 11.13,-34.82 10.87,-11.84 29.06,-14.34 43.8,-9.36 5.78,1.98 11.37,6.72 11.72,13.21 0.95,8.54 -6.51,15.26 -13.91,17.81 -10.15,2.97 -20.52,-0.81 -29.89,-4.58 1.56,8.21 5.66,16.25 13.47,20.07 14.6,7.9 32.5,5.5 47.36,-0.42 22.79,-9.06 33.71,-39.89 20.81,-60.98 -4.46,-8.32 -12.6,-13.49 -20.24,-18.56zm17.97 86.83l0 0c-13.96,13.35 -35.9,17.33 -53.59,9.36 6.68,6.27 15.26,10.78 20.9,18.37 9.6,0.15 19.13,-1.34 28.14,-4.67 -4.17,6.77 -9.93,12.34 -17.08,15.88 9.06,12.92 16.25,27.27 19.04,42.9 22.26,-33.02 61.23,-51.51 99.79,-57.24 -14.38,-2.06 -28.84,-0.9 -43.18,0.82 -9.77,1.75 -17.32,-6.01 -24.91,-10.75 -1.53,7.07 -2.81,14.22 -4.01,21.37 -5.9,2.64 -11.75,5.38 -17.5,8.28 5.82,-22.25 7.38,-45.29 7.24,-68.19 -3.52,8.72 -7.69,17.52 -14.84,23.87zm-131.97 35.12l0 0c-21.46,18.77 -33.85,46.27 -36.86,74.39 4.67,-6.04 9.57,-11.89 14.88,-17.38 -3.89,10.52 -6.02,21.58 -5.83,32.83 4.81,-4.88 9.89,-9.5 15.33,-13.68 4.63,56.04 -15.3,114.3 -54.72,154.66 -2.07,2.5 1.18,4.46 2.45,6.35 21,22.52 34.49,52.62 34.14,83.73 -0.05,39.41 -4.27,78.83 -11.68,117.53 14.39,6.25 27.53,14.86 40.55,23.52 15.4,10.52 30.64,21.54 43.56,35.07 31.68,-8.63 64.82,-12.83 97.68,-11.98 11.79,-19.95 18.09,-42.62 21.96,-65.31 6.58,-41.54 3.75,-86.02 -16.09,-123.79 -4.84,-7.71 -0.68,-16.81 5.05,-22.66 23.02,-25.76 44.81,-53.36 58.66,-85.27 10,-22.27 15.31,-46.4 17.07,-70.67 3.43,4.84 6.73,9.79 9.84,14.86 7.97,-13.72 11.91,-29.46 9.88,-45.31 3.64,2.15 7.25,4.37 10.83,6.63 0.33,-18.23 -1.63,-37.34 -11.42,-53.19 -7.45,-13.07 -20.73,-21.51 -34.81,-25.92 6.2,5.71 10.83,12.81 13.94,20.66 -9.36,-4.72 -19.69,-6.53 -30.1,-6.37 5.45,7.13 10.12,14.79 14.25,22.76 -8.21,-2.28 -16.7,-3.13 -25.19,-2.45 9.98,7.01 12.69,19.06 12.97,30.55 -21.27,-15.22 -47.15,-21.99 -72.51,-26.63 -26.3,-4.32 -53.47,-5.48 -79.63,0.37 1.7,-10.59 6.77,-20.21 14.58,-27.59 -7.88,0.99 -15.26,3.84 -22.08,7.83 4.77,-11.87 11.42,-23 21,-31.61 -9.93,1.28 -19.91,2.81 -29.21,6.79 5.67,-10.35 11.92,-20.33 18.83,-29.88 -17.62,1.49 -34.37,9.25 -47.32,21.16zm-207.71 -0.1l0 0c2.83,2.13 5.69,4.23 8.54,6.3 -2.57,0.97 -5.12,1.93 -7.69,2.9 4.49,4.53 8.33,9.74 9.41,16.18 -3.65,0.19 -7.28,0.38 -10.92,0.52 7.03,9.79 11.61,23.52 4.86,34.65 -9.76,15.9 -24.13,28.35 -34.17,44.09 -14.98,23.37 -24.44,50.61 -25.17,78.47 3.98,-5.57 8.32,-10.9 13.37,-15.54 -3.16,19.45 -0.02,40.02 9.15,57.52 2.83,-5.02 5.55,-10.09 8.5,-15.04 -2.36,22.5 -0.5,46.49 12.61,65.66 2.31,-5.82 4.67,-11.6 7.41,-17.24 1.16,22.22 4.98,45.22 17.81,63.94 2.24,-4.45 4.53,-8.91 6.86,-13.32 4.37,24.67 20.38,48.52 45.01,56.47 -19.93,-21.07 -26.47,-52.41 -18.4,-80.06 -3.68,1.37 -7.34,2.81 -10.97,4.25 -2.45,-9.81 -2.57,-19.96 -2.57,-29.98 -3.78,4.08 -7.38,8.35 -10.92,12.64 -8.78,-28.8 -5.03,-60.41 5,-88.4 -7.41,1.91 -13.82,6.03 -19.39,11.18 2.45,-15.69 7.93,-30.9 17.64,-43.57 -10.73,2.1 -20.28,7.52 -28.63,14.41 1.18,-14.36 3.49,-28.75 9.48,-41.98 -6.67,2.57 -12.92,6.06 -18.94,9.86 0.92,-14.32 3.07,-28.78 9.39,-41.82 12.43,-28.52 38.35,-48.66 66.63,-60.08 -6.39,-10.66 -13.68,-21.68 -25.09,-27.48 -11.85,-6.49 -25.83,-5.92 -38.81,-4.53zm66.54 80.74l0 0c-12.76,17.27 -21.53,37.39 -25.64,58.45 5.52,-2.52 11.09,-4.95 16.75,-7.1 -6.77,12.1 -10.26,25.66 -11.6,39.42 4.31,-2.06 8.65,-4.13 12.99,-6.11 -6.37,19.5 -11.01,40.54 -5.92,60.92 4.08,-11.08 10.85,-21.04 20.71,-27.79 0.21,18.59 -2.88,38 -13.28,53.81 8.47,-1.68 17.17,-3.87 23.73,-9.88 -2.73,11.69 -5.09,23.63 -11.06,34.22 6.67,-1.06 13.16,-3.09 18.92,-6.7 -1.04,13.68 -2.72,27.57 -8.5,40.19 15.85,-12.38 31.23,-29.17 32.48,-50.26 4.63,1.39 9.23,2.9 13.83,4.41 -29.2,-40.45 -50.6,-88.4 -51.38,-138.95 -0.73,-21.73 3.49,-43.17 9.18,-63.99 -8.42,4.78 -15.43,11.67 -21.21,19.36zm42.2 -80.36c-4.46,-10.52 -0.56,-22.31 6.72,-30.47 10.66,4.62 20.52,10.99 29.02,18.94 4.9,-2.46 9.83,-4.86 14.83,-7.15 2.12,11.13 -0.4,23.94 -10.47,30.47 -13.19,10.12 -34.42,3.71 -40.1,-11.79zm13.89 -2.52l0 0c0.47,6.93 10.22,10.85 14.68,5 3.65,-3.12 2.02,-7.74 0.94,-11.65 -2.29,2.12 -4.6,4.22 -6.89,6.34 -2.31,-2.41 -4.69,-4.81 -7,-7.22 -0.45,1.89 -1.3,5.64 -1.73,7.53zm374.76 71.23c4.31,3.23 8.49,6.63 12.59,10.12 9.34,-3.66 19.37,-5.19 29.39,-4.72 0.94,9.39 1.39,20.19 -5.73,27.48 -9.39,11.23 -29.11,7.71 -35.78,-4.84 -5.57,-8.39 -4.34,-19.22 -0.47,-28.04zm11.2 23.35l0 0c0.94,4.08 5,5.97 7.95,8.4 2.45,-1.25 4.83,-2.67 7.15,-4.2 2.92,-3.02 1.1,-7.53 1.29,-11.23 -2.76,2.05 -5.47,4.15 -8.16,6.25 -2,-2.36 -4.01,-4.69 -5.99,-7.03 -0.9,2.57 -1.63,5.17 -2.24,7.81zm-139.87 637.16l0 0c-35.95,7.95 -58.24,42.06 -69.04,74.96 -13.71,40.83 -15.31,84.54 -13,127.2 3.26,38.64 11.39,78.76 34.75,110.65 11.98,15.92 28.94,28.94 48.89,32.6 26.68,6.01 55.31,-5.07 72.93,-25.52 23.21,-26.73 33.24,-62.06 38.24,-96.4 5.56,-45.5 4.72,-92.37 -7.15,-136.85 -7.85,-27.7 -20.83,-55.79 -44.37,-73.53 -17.14,-13.32 -40.19,-17.54 -61.25,-13.11zm-889.45 3.47l0 0c0.03,14.69 0.03,29.39 -0.02,44.06 6.77,-0.03 13.51,-0.07 20.26,-0.17 0.33,93.95 0.05,187.92 0.14,281.89 -6.74,0.92 -13.51,1.58 -20.28,2.12 -0.15,15.17 -0.1,30.36 -0.05,45.55 51.75,-5.33 103.43,-11.32 155.27,-15.64 12.32,-0.56 27.15,-8.02 27.65,-21.91 0.35,-42.5 0,-85.03 0.19,-127.56 0.35,-11.93 -2.06,-24.88 -10.64,-33.73 -7.95,-8.16 -19.63,-10.57 -30.55,-11.15 15.24,-11.63 33.66,-24.21 36.99,-44.51 0.87,-25.22 0.37,-50.46 0.54,-75.67 0.05,-11.84 -2.76,-25.05 -12.71,-32.57 -13.4,-9.91 -30.9,-9.77 -46.8,-10.67 -40,-0.11 -79.99,0 -119.99,-0.04zm189.57 -0.03l0 0c-0.02,14.7 0,29.39 -0.02,44.09 8.39,-0.03 16.77,-0.03 25.14,-0.07 0.02,87.84 0.05,175.7 0,263.56 -8.35,0.59 -16.72,1.2 -25.07,1.7 -0.07,15.28 -0.1,30.54 0.02,45.83 59.11,-5.14 118.36,-9.01 177.64,-11.68 0.07,-45.52 0.21,-91.05 -0.07,-136.54 -7.51,22.59 -30.48,34.48 -51.87,40.75 0.07,17.67 0.19,35.34 -0.45,53 -10.21,0.69 -20.43,1.35 -30.64,1.84 0.02,-37.07 0.02,-74.18 0,-111.28 13.02,-0.05 26.02,0.21 39.01,-0.21 -0.4,-14.41 0.5,-28.85 -0.44,-43.21 -12.81,-0.78 -25.67,-0.1 -38.5,-0.31 -0.16,-34.44 0.07,-68.88 -0.14,-103.31 10.4,-0.17 20.78,-0.1 31.18,-0.12 0,22.81 0.1,45.64 -0.07,68.47 12.34,-16.98 32.06,-26.46 52.06,-31.04 0,-27.15 -0.03,-54.29 0.02,-81.44 -59.27,0 -118.55,0.04 -177.8,-0.03zm184.12 0.03l0 0c0,14.67 0.03,29.36 -0.02,44.06 6.37,-0.03 12.76,-0.05 19.13,-0.1 0.02,84.28 0.07,168.56 0,252.83 -6.39,0.17 -12.76,0.4 -19.13,0.59 0.05,15.12 0,30.24 0.05,45.38 55.59,-2.68 111.21,-4.55 166.85,-5.99 -0.07,-46.18 0.12,-92.36 -0.07,-138.55 -7.12,23.42 -30.24,36.42 -52.34,42.79 -0.26,17.31 0.61,34.65 -0.57,51.96 -8.3,0.26 -16.6,0.76 -24.9,0.95 0.04,-83.31 -0.03,-166.62 0.02,-249.96 10.59,0.07 21.18,0.07 31.77,0.05 -0.14,-14.67 -0.09,-29.34 -0.05,-43.99 -40.26,-0.05 -80.5,0 -120.74,-0.02zm171.86 0l0 0c0,14.67 0.05,29.36 -0.05,44.03 6.65,0 13.3,-0.02 19.96,-0.02 -0.05,82.34 0.14,164.71 -0.1,247.07 -6.65,0.19 -13.28,0.43 -19.93,0.62 0.24,15.05 0.07,30.1 0.12,45.12 25.45,-0.75 50.88,-0.99 76.33,-1.53 -0.03,-15.07 -0.03,-30.15 0,-45.22 -5.03,0.05 -10.05,0.14 -15.05,0.33 0.59,-53.56 -0.85,-107.16 0.73,-160.67 18.09,80.69 36.98,161.21 55.4,241.83 4.86,0 9.75,0 14.65,0.03 13.35,-79.84 27.15,-159.62 39.51,-239.62 0.52,4.97 0.92,10 0.94,15.05 -0.23,47.57 -0.04,95.17 -0.11,142.74 -5.26,-0.02 -10.48,-0.04 -15.71,0 0.04,15.05 -0.1,30.1 0.09,45.15 34.82,-0.33 69.63,1.27 104.42,0.57 -0.16,-12.5 -0.05,-25.01 -0.02,-37.48 -0.57,-2.39 1.15,-6.25 -2.08,-7.15 -5.59,-0.59 -11.2,-0.28 -16.79,-0.26 -0.03,-82.2 0,-164.38 -0.03,-246.58 6.28,0 12.58,0 18.87,-0.02 -0.04,-14.65 -0.04,-29.3 -0.02,-43.95 -35.76,-0.11 -71.54,0.03 -107.3,-0.07 -7.07,42.11 -12.71,84.49 -20.28,126.5 -6.89,-42.15 -13.07,-84.39 -20.05,-126.52 -37.83,0.14 -75.67,0.02 -113.5,0.05zm457.23 0.02l0 0c0.07,14.67 0.05,29.34 0,44.01 6.21,-0.02 12.39,0 18.61,0.05 -0.07,84.54 -0.04,169.05 -0.02,253.59 -6.2,-0.15 -12.38,-0.29 -18.56,-0.43 0.02,15.1 0,30.19 0.02,45.29 25.95,1.39 51.92,2.52 77.86,4.24 0,-15.16 0.03,-30.33 0,-45.47 -5.33,-0.29 -10.61,-0.54 -15.9,-0.78 -0.02,-39.34 0.05,-78.71 -0.02,-118.08 -0.19,-24.03 -2.9,-47.97 -3.04,-72.01 25.16,74.65 52.83,148.46 81.04,222 2.95,6.89 4.44,14.6 8.61,20.88 12.53,1.96 25.24,2.17 37.88,3.21 0.12,-104.19 -0.02,-208.37 0.07,-312.56 5.38,0.03 10.76,0.05 16.16,0.05 -0.07,-14.67 -0.05,-29.32 -0.02,-43.97 -25.66,-0.09 -51.3,0 -76.97,-0.04 0.03,14.67 0.05,29.36 0,44.06 5.71,-0.03 11.42,-0.05 17.15,-0.07 0.05,19.38 0.02,38.77 0,58.16 -0.35,24.18 2.81,48.28 2.01,72.49 -19.53,-58.45 -38.59,-117.11 -60.81,-174.62 -28.02,-0.02 -56.04,-0.02 -84.07,0zm212.95 141.78l0 0c8.84,-17.45 26.06,-28.3 44.01,-34.65 0.03,-21.06 -0.02,-42.12 0.03,-63.16 7.97,0.02 15.92,0.04 23.91,0.04 -0.07,91.14 -0.04,182.28 -0.02,273.42 -7.81,-1.1 -15.66,-1.72 -23.49,-2.26 -0.03,15.14 -0.03,30.31 0,45.48 38.89,3.61 77.76,7.85 116.59,12.22 -0.12,-15.17 -0.12,-30.31 0,-45.48 -7.88,-0.94 -15.73,-1.94 -23.59,-2.83 -0.07,-93.48 0.07,-186.95 -0.07,-280.43 8.04,-0.16 16.09,-0.14 24.15,-0.12 0,21.14 0.07,42.25 -0.04,63.38 17.92,6.37 35.33,17.15 43.99,34.77 -0.17,-47.41 -0.03,-94.8 -0.08,-142.21 -68.47,0.05 -136.92,0.05 -205.37,0.03 0,47.27 0.05,94.53 -0.02,141.8z"/>
   <path class="fil1" d="M686.56 1420.43c17.69,0.33 35.43,-0.36 53.12,0.35 10.99,0.62 23.85,3.75 29.44,14.25 7.12,14.55 2.17,34.65 -13.54,41.21 5.92,13.89 11.53,27.92 17.4,41.84 -10.82,0.02 -21.65,0.02 -32.47,0.05 -4.79,-12.15 -9.58,-24.3 -14.23,-36.47 -3.28,-0.09 -6.55,-0.17 -9.81,-0.19 -0.02,12.2 -0.02,24.39 0,36.59 -9.98,0.07 -19.95,0.02 -29.95,0.07 0.04,-32.55 -0.03,-65.13 0.04,-97.7zm480.52 0.07c9.5,0 19.03,-0.05 28.56,0.12 9.96,16.96 20.36,33.68 30.64,50.47 -0.45,-16.86 -0.99,-33.7 -1.53,-50.54 8.47,-0.07 16.96,-0.05 25.43,-0.07 0,32.55 -0.03,65.1 0.02,97.65 -8.21,-0.05 -16.39,-0.05 -24.6,0 -11.8,-19.13 -23.21,-38.47 -34.98,-57.6 0.33,19.2 0.71,38.42 1.08,57.64 -8.2,-0.09 -16.39,-0.09 -24.57,-0.02 -0.07,-32.55 0,-65.1 -0.05,-97.65zm-127.89 0c10.35,0 20.73,0 31.09,-0.02 0.16,32.52 0,65.05 0.09,97.58 -10.4,0.07 -20.8,0.04 -31.18,0.04 0.07,-32.55 0.05,-65.07 0,-97.6zm-176.15 -0.07c10.07,0.09 20.12,0.09 30.19,0.02 0.19,21.75 -0.3,43.54 0.17,65.29 -0.29,12.03 17.71,14.6 23.68,5.85 2.64,-4.65 2.26,-10.14 2.38,-15.26 -0.14,-18.63 -0.05,-37.24 -0.09,-55.85 7.85,0 15.68,0.02 23.54,0.07 -0.03,21.77 -0.03,43.56 0.02,65.36 0.31,9.97 -3.14,20.78 -11.56,26.79 -9.64,6.96 -22.19,7.83 -33.68,7.08 -9.95,-0.8 -20.78,-3.35 -27.53,-11.28 -5.96,-6.72 -7.24,-16.13 -7.14,-24.79 0.04,-21.11 0.02,-42.19 0.02,-63.28zm494.39 6.3c13.28,-9.25 31.25,-10.64 46.39,-5.74 10.5,3.28 17.95,12.13 22.25,21.92 -8.19,2.54 -16.45,4.83 -24.68,7.19 -4.05,-5.97 -10.4,-11.23 -18.14,-9.62 -5.07,-0.07 -11.48,7.03 -5.7,10.8 13.61,5.97 30.07,5.12 42.05,14.84 12.27,10.3 11.28,31.18 -0.23,41.75 -14.75,13.91 -37.81,14.67 -56.05,8.04 -11.53,-4.22 -19.83,-14.44 -22.88,-26.16 9.01,-1.75 18.09,-3.23 27.08,-5.09 3.33,6.03 8.38,11.98 15.92,12.02 5.43,0.85 15.36,-0.73 13.59,-8.27 -0.02,-3.26 -3.82,-3.97 -6.16,-4.91 -13.37,-3.77 -28.49,-5.45 -39.08,-15.36 -11.46,-11.72 -7.38,-32.55 5.64,-41.41zm-27.01 -1122.35c0.61,-2.64 1.34,-5.24 2.24,-7.81 1.98,2.34 3.99,4.67 5.99,7.03 2.69,-2.1 5.4,-4.2 8.16,-6.25 -0.19,3.7 1.63,8.21 -1.29,11.23 -2.32,1.53 -4.7,2.95 -7.15,4.2 -2.95,-2.43 -7.01,-4.32 -7.95,-8.4zm-442.05 -11.7c5.78,-7.69 12.79,-14.58 21.21,-19.36 -5.69,20.82 -9.91,42.26 -9.18,63.99 0.78,50.55 22.18,98.5 51.38,138.95 -4.6,-1.51 -9.2,-3.02 -13.83,-4.41 -1.25,21.09 -16.63,37.88 -32.48,50.26 5.78,-12.62 7.46,-26.51 8.5,-40.19 -5.76,3.61 -12.25,5.64 -18.92,6.7 5.97,-10.59 8.33,-22.53 11.06,-34.22 -6.56,6.01 -15.26,8.2 -23.73,9.88 10.4,-15.81 13.49,-35.22 13.28,-53.81 -9.86,6.75 -16.63,16.71 -20.71,27.79 -5.09,-20.38 -0.45,-41.42 5.92,-60.92 -4.34,1.98 -8.68,4.05 -12.99,6.11 1.34,-13.76 4.83,-27.32 11.6,-39.42 -5.66,2.15 -11.23,4.58 -16.75,7.1 4.11,-21.06 12.88,-41.18 25.64,-58.45zm-66.54 -80.74c12.98,-1.39 26.96,-1.96 38.81,4.53 11.41,5.8 18.7,16.82 25.09,27.48 -28.28,11.42 -54.2,31.56 -66.63,60.08 -6.32,13.04 -8.47,27.5 -9.39,41.82 6.02,-3.8 12.27,-7.29 18.94,-9.86 -5.99,13.23 -8.3,27.62 -9.48,41.98 8.35,-6.89 17.9,-12.31 28.63,-14.41 -9.71,12.67 -15.19,27.88 -17.64,43.57 5.57,-5.15 11.98,-9.27 19.39,-11.18 -10.03,27.99 -13.78,59.6 -5,88.4 3.54,-4.29 7.14,-8.56 10.92,-12.64 0,10.02 0.12,20.17 2.57,29.98 3.63,-1.44 7.29,-2.88 10.97,-4.25 -8.07,27.65 -1.53,58.99 18.4,80.06 -24.63,-7.95 -40.64,-31.8 -45.01,-56.47 -2.33,4.41 -4.62,8.87 -6.86,13.32 -12.83,-18.72 -16.65,-41.72 -17.81,-63.94 -2.74,5.64 -5.1,11.42 -7.41,17.24 -13.11,-19.17 -14.97,-43.16 -12.61,-65.66 -2.95,4.95 -5.67,10.02 -8.5,15.04 -9.17,-17.5 -12.31,-38.07 -9.15,-57.52 -5.05,4.64 -9.39,9.97 -13.37,15.54 0.73,-27.86 10.19,-55.1 25.17,-78.47 10.04,-15.74 24.41,-28.19 34.17,-44.09 6.75,-11.13 2.17,-24.86 -4.86,-34.65 3.64,-0.14 7.27,-0.33 10.92,-0.52 -1.08,-6.44 -4.92,-11.65 -9.41,-16.18 2.57,-0.97 5.12,-1.93 7.69,-2.9 -2.85,-2.07 -5.71,-4.17 -8.54,-6.3zm122.63 -2.14c0.43,-1.89 1.28,-5.64 1.73,-7.53 2.31,2.41 4.69,4.81 7,7.22 2.29,-2.12 4.6,-4.22 6.89,-6.34 1.08,3.91 2.71,8.53 -0.94,11.65 -4.46,5.85 -14.21,1.93 -14.68,-5zm217.05 -32.88c7.15,-6.35 11.32,-15.15 14.84,-23.87 0.14,22.9 -1.42,45.94 -7.24,68.19 5.75,-2.9 11.6,-5.64 17.5,-8.28 1.2,-7.15 2.48,-14.3 4.01,-21.37 7.59,4.74 15.14,12.5 24.91,10.75 14.34,-1.72 28.8,-2.88 43.18,-0.82 -38.56,5.73 -77.53,24.22 -99.79,57.24 -2.79,-15.63 -9.98,-29.98 -19.04,-42.9 7.15,-3.54 12.91,-9.11 17.08,-15.88 -9.01,3.33 -18.54,4.82 -28.14,4.67 -5.64,-7.59 -14.22,-12.1 -20.9,-18.37 17.69,7.97 39.63,3.99 53.59,-9.36zm-73.33 -82.56c37.93,-18.73 83.97,-18.77 122.7,-2.26 30.24,12.57 59.09,33.23 73.64,63.35 7.66,15.33 8.02,33.4 2.38,49.44 8.4,4.06 15.45,12.69 25.62,11.37 36.06,1.08 72.32,13.47 100.19,36.7 -6.08,-0.31 -12.12,-0.75 -18.16,-1.23 14.6,7.88 29.79,14.89 42.91,25.22 25.83,-3 52.45,-3.85 77.81,2.74 25.26,5.89 44.98,26.46 54.79,49.83 9.98,23.54 8,50.24 0.4,74.16 -2.57,-4.62 -5.42,-9.05 -8.39,-13.42 -3.26,15.64 -8.87,30.9 -18.97,43.47 -1.88,-5.09 -3.82,-10.14 -5.82,-15.19 -3.21,12.31 -10.8,22.98 -21.23,30.17 4.15,18.66 22.24,29.25 40.07,31.49 -13.39,9.48 -27.8,19.58 -44.91,19.74 10.64,13.64 16.59,30.4 18.24,47.53 -8.26,-3.4 -16.82,-6.53 -25.9,-5.83 3.91,22.51 6.27,46.59 -2.76,68.24 -5.05,-7.19 -8.99,-15.1 -13.94,-22.34 -7.95,21.87 -2.34,47.91 14.62,63.97 -7.45,0.07 -14.83,-0.89 -22.17,-2.12 1.04,16.42 6.86,32.46 17.46,45.14 -7.13,0.22 -14.25,0.12 -21.35,-0.23 12.57,15.26 20.14,36.68 11.3,55.69 -4.86,-3.23 -10,-6.02 -15.36,-8.28 -3.02,22.64 4.04,49.06 25.64,60.29 -6.11,0.87 -12.17,1.88 -18.18,3.21 7.8,8.49 17.38,15.14 28.23,19.2 -6.72,-0.05 -13.47,-0.1 -20.17,-0.12 22.03,12.22 37.74,35.69 36.75,61.39 -4.62,-1.62 -9.24,-3.18 -13.82,-4.74 6.34,9.25 10.59,19.79 11.32,31.12 78,-0.29 155.98,-0.05 233.99,-0.15 -0.1,64.96 -0.05,129.94 -0.03,194.9 -7.66,0.12 -15.31,0.43 -22.95,0.64 0,8.82 0.02,17.67 0.05,26.49 -14.55,0.19 -29.13,-0.4 -43.69,0.21 -1.88,3.73 -1.08,8.12 -1.32,12.17 0.17,31.23 0.05,62.44 0.08,93.67 7.78,1.25 15.61,2.05 23.49,2.71 0.16,37.5 -0.07,74.98 0.12,112.46 -7.58,-0.89 -15.12,-1.98 -22.69,-2.8 -0.08,9.85 -0.03,19.71 -0.08,29.57 -107.41,-13.04 -215.37,-21.04 -323.33,-28.04 -118.76,-7.29 -237.69,-12.69 -356.68,-13.71 -0.45,3.07 -0.85,6.16 -1.25,9.25 -6.16,0 -12.29,0 -18.42,0.05 -1.54,8.89 -2.95,17.81 -4.63,26.7 -22.9,-0.12 -45.8,-0.14 -68.68,0.02 -3.04,-11.86 -5.69,-23.8 -8.42,-35.71 -71.54,0.47 -143.06,3.07 -214.55,5.97 -149.42,6.98 -298.9,16.79 -447.19,36.91 0.02,-37.52 0.17,-75.03 -0.05,-112.53 6.99,-0.9 13.97,-1.75 20.95,-2.62 0.09,-73.24 0.02,-146.45 0.05,-219.69 -6.99,0.02 -13.94,0.02 -20.9,0.05 0.02,-36.59 0,-73.19 0,-109.78 7.71,0.05 15.42,0 23.14,-0.23 0,-8.87 0,-17.76 -0.12,-26.61 65.78,-0.07 131.57,-0.02 197.38,-0.02 3.96,-16.82 15.92,-29.84 29.13,-40.19 -9.25,-0.9 -17.74,2.97 -25.85,6.79 2.9,-19.41 14.92,-37.29 32.33,-46.54 -7.66,-2.85 -15.09,-6.32 -21.84,-10.94 15.57,-6.21 30.92,-14.72 40.85,-28.64 6.91,-9.15 9.93,-20.45 11.68,-31.58 -9.84,0.71 -19.72,0.35 -29.44,-1.21 11.7,-7.52 20,-18.84 27.55,-30.28 -9.03,1.23 -18.18,1.89 -27.22,0.21 27.91,-17.71 43.62,-50.85 42.53,-83.54 -6.79,4.5 -12.15,10.63 -17.43,16.77 -1.49,-16.89 1.16,-34.25 10.71,-48.57 -6.63,1.16 -12.24,4.77 -17.2,9.15 -0.94,-23.25 14.56,-45.45 36.75,-52.48 -12.1,-5.87 -23.59,-15.54 -26.53,-29.29 17.03,-5.26 34.39,-12.83 45.61,-27.27 9.11,-11.02 13.24,-25.1 15.08,-39.04 -7.81,0.66 -15.17,3.42 -21.89,7.36 1.39,-26.68 15.78,-52.86 39.22,-66.23 -14.98,-7.05 -30,-18.07 -33.16,-35.48 16.04,2.03 33.94,3.64 48.26,-5.44 3.63,-2.67 8.09,-5.9 8.49,-10.76 -12.88,-4.86 -27.24,-3.63 -40.33,-0.31 7.4,-19.41 23.46,-37.43 44.69,-41.06 -10.35,-6.79 -14.95,-18.92 -16.06,-30.76 16.3,7.69 35.14,7.69 52.29,3.02 -9.03,-5.26 -15.64,-13.44 -20.73,-22.41 14.34,3.75 30.1,1.82 41.89,-7.55 -15.33,-11.15 -22.97,-29.79 -23.19,-48.4 -4.95,7.06 -7.33,15.34 -9.31,23.59 -9.72,-13.59 -9.2,-30.78 -9.01,-46.68 -3.16,5.66 -5.99,11.49 -8.89,17.29 -6.47,-22.17 -5.74,-47.15 5.82,-67.55 14.62,-25.85 41.18,-44.63 70.38,-49.98 28.83,-5.76 59.42,-3.47 86.78,7.47 21.44,8.47 42.1,19.13 64.51,24.98 16.16,4.25 33.05,5.24 49.68,3.75 -3.78,-2.9 -7.57,-5.7 -11.37,-8.53 44.98,-11.23 95.88,-5.93 134.82,20.37 6.32,-21.46 23.47,-38 43.19,-47.62zm55.36 -4.27l0 0c7.64,5.07 15.78,10.24 20.24,18.56 12.9,21.09 1.98,51.92 -20.81,60.98 -14.86,5.92 -32.76,8.32 -47.36,0.42 -7.81,-3.82 -11.91,-11.86 -13.47,-20.07 9.37,3.77 19.74,7.55 29.89,4.58 7.4,-2.55 14.86,-9.27 13.91,-17.81 -0.35,-6.49 -5.94,-11.23 -11.72,-13.21 -14.74,-4.98 -32.93,-2.48 -43.8,9.36 -9.34,8.92 -11.89,22.39 -11.13,34.82 -35.05,12.62 -65.39,38.8 -82.82,71.75 -14.13,26.46 -16.42,57.65 -10.73,86.75 -4.81,-2.78 -9.58,-5.59 -14.44,-8.3 -1.13,17.38 2.79,34.79 9.86,50.62 -3.68,-0.05 -7.36,-0.1 -11.04,-0.12 -1.74,13.8 -1.95,27.81 -0.16,41.63 -13.37,-27.6 -17.95,-58.83 -18.12,-89.25 0.66,-28.52 5.33,-58.83 22.98,-82.16 -13.19,2.39 -26.73,2.2 -39.79,-0.82 3.2,-1.96 6.44,-3.82 9.71,-5.69 -5.68,-10 -7.52,-21.67 -5.42,-32.95 -7.36,0.33 -14.55,1.94 -21.37,4.6 2.48,-5.05 4.95,-10.12 7.5,-15.12 -7.67,0.17 -15.31,0.92 -22.88,2.03 31.99,-24.01 79.91,-31.58 114.21,-8.07 9.29,-6.2 19.03,-11.67 29.13,-16.44 -18.85,-23.25 -49.58,-33.96 -78.69,-35.75 3.64,5.61 7.29,11.25 10.76,16.98 -21.02,-7.43 -44.18,-6.16 -64.89,1.56 5.33,4.93 10.5,10.04 15.19,15.59 -21.06,-2.17 -42.95,-2.83 -63.17,4.53 -34.22,10.92 -60.94,39.83 -71.77,73.8 6.18,-2.36 12.29,-4.95 18.44,-7.41 -1.41,15.38 -9.76,28.85 -18.86,40.86 -10.45,13.53 -22.7,25.89 -37.23,35.05 6.3,1.34 12.62,2.69 18.94,4.01 -25.19,14.38 -47.1,39.01 -49.13,69.08 11.82,-2.26 23,-7.05 35.01,-8.47 -23.07,22.81 -37.51,56.4 -29.94,88.98 5.36,-5.45 10.95,-10.71 17.43,-14.84 -7.69,20 -12.97,41.42 -10.68,63 3.87,-4.72 7.6,-9.53 11.37,-14.29 -1.46,14.81 -0.26,30.14 6.37,43.68 5.05,-8.99 10.78,-17.69 18.75,-24.39 10.85,13.02 12.78,30.55 10.71,46.82 8.75,-2.4 16.91,-6.44 23.91,-12.17 0.33,16.56 -0.37,35.17 -12.76,47.72 19.28,-3.92 39.28,-12.22 50.36,-29.39 -1.74,10.85 -3.37,21.79 -7.21,32.12 4.85,-2.85 9.88,-5.52 14.9,-8.06 -11.32,22.45 -16.27,49.41 -7.99,73.73 3.23,-10.02 8.91,-18.89 15.59,-26.91 3.65,9.31 9.39,17.71 17.31,23.91 4.41,-15.94 14.1,-29.9 26.79,-40.42 -10.92,23.61 -12.99,50.33 -9.12,75.83 4.71,-6.87 11.13,-12.22 18.37,-16.28 -4.81,17.2 -4.41,36.52 5.52,51.92 3.26,-9.06 7.71,-17.69 14.79,-24.37 1.13,24.58 7.08,51.09 26.79,67.63 0.95,-5.69 1.87,-11.35 3.05,-16.99 7.43,8.5 13.47,18.28 22.33,25.43 13.31,11.42 30.67,16.23 47.6,19.15 -19.22,-24.41 -41.49,-51.06 -41.42,-83.85 -4.29,5.78 -7.24,12.34 -9.45,19.15 -20.12,-27.88 -27.29,-64.55 -17.88,-97.79 -6.18,3.47 -10.67,8.94 -13.78,15.19 -4.29,-21.72 -3.65,-46.11 9.88,-64.67 -4.76,0.28 -9.5,0.61 -14.24,0.99 3.75,-6.28 7.17,-12.74 9.95,-19.49 -7.92,1.94 -16.08,2.46 -24.2,1.61 9.86,-7.79 20.12,-15.99 25.52,-27.67 8.33,-17.03 6.51,-36.58 4.58,-54.82 15.07,16.92 20.19,41.16 16.79,63.22 4.74,-4.48 9.04,-9.39 13.02,-14.53 3.45,30.54 -2.38,62.29 -17.22,89.3 4.3,-1.44 8.57,-2.95 12.81,-4.51 -10.02,24.65 -3.16,54.18 15.92,72.49 3.14,-5.17 5.81,-10.59 8,-16.21 5.21,25.43 16.37,51.33 37.67,67.32 3.54,-6.49 7.19,-12.95 11.08,-19.22 3.99,17.97 13.26,35.19 29.23,45.17 14.91,-8.05 26.46,-20.57 36.44,-33.99 0.64,7.5 0.66,15.04 0.4,22.57 12.83,-5.85 23.64,-15.59 30.88,-27.72 1.01,4.86 2.05,9.75 3.04,14.63 15.61,-9.44 27.88,-23.59 35.4,-40.17 4.13,0.45 5.31,5.5 7.95,8.11 13.61,-16.39 20.15,-37.78 20.81,-58.87 3.51,3.33 6.98,6.75 10.4,10.21 7.69,-38.58 -5.12,-76.73 -13.14,-114.09 -4.74,-20.64 4.88,-41.49 18.45,-56.63 13.79,-15.83 19.29,-36.82 21.06,-57.32 2.88,4.7 5.73,9.39 8.63,14.11 12.13,-16.56 14.48,-37.55 13.89,-57.48 3.28,4.03 6.44,8.18 9.53,12.38 15.85,-20.19 17.46,-46.98 16.09,-71.61 2.55,0.14 5.05,0.28 7.6,0.4 5.07,-18.26 7.12,-37.29 5.68,-56.21 -1.79,-28.8 -13.75,-57.79 -36.73,-76.07 7.69,-13.94 9.58,-31.01 4.72,-46.2 -5.05,-14.63 -21.72,-25.9 -37.17,-21.21 -12.62,3.87 -13.97,24.13 -2.71,30.36 8.13,4.06 17.47,3.42 26.3,3.44 -19.98,21.51 -60.86,7.65 -66.26,-20.31 -4.41,-19.9 8.63,-41.63 28.33,-46.96 -21.96,-16.44 -50.1,-21.91 -77.06,-20.78zm-427.45 32.76l0 0c-15.14,11.75 -21.63,31.56 -20.49,50.22 4.9,-5.26 10.19,-10.24 16.22,-14.2 -1.72,10.14 -1.36,20.5 1.3,30.45 8.4,-13.02 18.92,-25.24 33.47,-31.49 -7.22,17.81 -11.75,38.92 -2.05,56.73 3.3,-8.63 7.69,-16.86 14.13,-23.59 0.56,4.67 1.27,9.32 2.17,13.94 24.55,-28.35 58.85,-52.17 97.79,-51.49 -4.81,-3.2 -10.1,-5.59 -15.38,-7.85 3.7,-2.12 7.46,-4.2 11.23,-6.23 -16.61,-4.67 -32.6,-11.41 -47.55,-19.95 -2.08,5.92 -4.01,11.91 -5.92,17.9 -17.41,-27.43 -59.66,-35.52 -84.92,-14.44zm214.48 89.47l0 0c5.68,15.5 26.91,21.91 40.1,11.79 10.07,-6.53 12.59,-19.34 10.47,-30.47 -5,2.29 -9.93,4.69 -14.83,7.15 -8.5,-7.95 -18.36,-14.32 -29.02,-18.94 -7.28,8.16 -11.18,19.95 -6.72,30.47zm-237.1 -4.98l0 0c-3.2,18.24 1.61,39.51 17.55,50.5 11.68,-0.42 22.81,-4.5 33.73,-8.3 -13.92,-6.27 -27.27,-15.61 -33.52,-30.1 -0.94,3.9 -1.91,7.79 -2.94,11.66 -7.2,-6.33 -12.17,-14.58 -14.82,-23.76zm609.66 28.76l0 0c3.4,11.74 10.26,21.98 16.3,32.48 23.44,-1.25 50.33,-1.21 68.92,15.35 -3.82,2.1 -7.71,4.08 -11.56,6.09 2.55,2.85 5.12,5.73 7.69,8.63 -2.66,-0.36 -8,-1.06 -10.66,-1.42 -2.26,7.88 -4.2,16.54 -10.43,22.34 -3.86,3.68 -9.38,4.43 -14.31,5.76 0.33,2.5 0.66,5.02 0.99,7.57 -9.3,0.4 -19.2,1.44 -27.22,-4.32 -5.43,24.72 -15.97,48.21 -30.24,69.09 18.02,-3.8 37.27,-9.98 49.01,-25.12 0.5,5.56 1.04,11.13 1.56,16.7 13.96,-11.14 23.63,-26.54 31.35,-42.44 -1.61,24.04 -2.74,49.54 -16.14,70.46 -3.63,-3.92 -7.12,-7.95 -10.52,-12.05 -3.96,11.91 -7.62,24.01 -13.46,35.16 -3.47,-6.1 -7.1,-12.14 -11.04,-17.99 -7.24,14.57 -14.25,29.34 -23.19,43 -2,-6.16 -3.91,-12.34 -5.9,-18.5 -9.71,38.95 -31.15,76.8 -65.33,99.12 28.87,-3.73 57.72,-16.14 76.66,-38.87 7.42,-8.35 11.39,-18.9 16.2,-28.83 1.2,5.62 2.29,11.25 3.16,16.91 17.62,-14.31 29.3,-34.13 39.06,-54.27 3.09,4.62 6.06,9.32 8.94,14.06 15.31,-18.8 28.31,-40.05 34.53,-63.64 11.39,22.38 14.98,48.57 10.88,73.28 -3.94,-3.18 -7.79,-6.46 -11.59,-9.76 -2.54,20.47 -4.24,41.77 -14.36,60.19 -4.13,-4.19 -8,-8.63 -11.77,-13.13 -4.88,18.04 -14.7,34.2 -25.9,48.96 -3.04,-5.56 -6.58,-10.85 -10.66,-15.68 -3.94,14.81 -10.12,28.89 -17.5,42.29 -2.64,-5.76 -5.87,-11.18 -9.48,-16.35 -4.53,27.98 -19.25,53.99 -39.96,73.17 -6.79,6.51 -15.12,11.13 -24.08,13.82 44.84,3.54 89.91,-23.11 108.33,-64.18 0.1,4.32 0.19,8.66 0.29,13 15.09,-9.27 27.88,-22.31 37.22,-37.34 0.82,5.71 1.74,11.42 2.64,17.12 17.62,-19.9 29.74,-44.76 33.04,-71.25 3.4,3.3 6.77,6.67 10.1,10.09 8.02,-30.02 13.07,-65.43 -4.81,-92.93 5.38,0.5 10.78,1.09 16.15,1.7 -2.78,-4.91 -5.8,-9.65 -8.94,-14.32 4.04,-1.37 8.09,-2.76 12.18,-4.13 -10.71,-4.38 -21.14,-10.47 -27.81,-20.19 -10.88,-15.09 -11.47,-35.19 -6.49,-52.57 7.17,3.75 14.36,7.38 21.61,10.97 -4.91,-14.25 -11.8,-27.77 -20.46,-40.1 -17.76,-24.89 -41.46,-47.96 -71.82,-55.9 5.05,-2.93 10.26,-5.59 15.55,-8.1 -21.37,-7.05 -44.77,-10.3 -66.73,-3.93zm16.09 44.93l0 0c-3.87,8.82 -5.1,19.65 0.47,28.04 6.67,12.55 26.39,16.07 35.78,4.84 7.12,-7.29 6.67,-18.09 5.73,-27.48 -10.02,-0.47 -20.05,1.06 -29.39,4.72 -4.1,-3.49 -8.28,-6.89 -12.59,-10.12zm123.38 6.84l0 0c13.73,17.41 25.88,36.09 36.23,55.69 1.65,4.27 6.98,3.61 10.68,3.89 11.47,0.19 22.08,-5.14 30.27,-12.9 0.21,11.58 -1.49,23.87 -9.46,32.86 2.22,-0.05 6.67,-0.17 8.89,-0.22 -5.9,9.46 -15.28,16.75 -26.7,17.74 0.54,5.19 1.11,10.36 1.65,15.57 16.25,-4.41 34.06,-14.46 36.33,-32.93 2.31,4.76 4.41,9.65 6.17,14.67 7.93,-12.33 14.53,-27.57 7.88,-42.01 3.26,2.69 6.56,5.31 9.93,7.9 3.61,-13.11 -2.35,-26.67 -11.74,-35.75 -11.82,-12.5 -29.49,-16.37 -45.9,-18.47 -18.05,-2.57 -37.29,2.59 -54.23,-6.04zm49.01 136.73l0 0c1.32,10.78 5.03,21.11 11.09,30.12 0.54,-5.09 0.19,-10.37 1.65,-15.35 5.36,-4.91 12.29,-8.09 16.77,-13.99 4.88,-5.85 6.84,-13.35 8.4,-20.64 -11.32,8.73 -23.09,18.43 -37.91,19.86zm-847.81 102.7l0 0c-2.45,8.21 -2.93,16.82 -2.88,25.34 6.82,-14.79 15.71,-28.92 28.45,-39.3 -1.63,-14.13 0.92,-28.16 3.06,-42.1 -14.41,15.68 -22.95,35.78 -28.63,56.06zm9.67 70.32l0 0c4.34,-15.03 11.3,-29.56 23.11,-40.15 -2.52,-8.59 -4.31,-17.36 -5.51,-26.23 -13.78,18.66 -21.92,43.35 -17.6,66.38zm779.48 -34.96l0 0c-3.84,5.87 -8.16,11.53 -11.34,17.81 2.4,11.56 4.48,23.21 3.82,35.1 7.22,-16.59 10.19,-34.96 7.52,-52.91zm-769.27 95.41l0 0c3.54,-10.69 8.8,-20.78 16.32,-29.22 -2.73,17.1 -2.14,34.43 0.5,51.51 2.74,-10 7.57,-19.22 14.53,-26.94 -0.05,16.09 1.49,32.69 9.67,46.94 1.56,-19.1 5.76,-38.73 17.29,-54.46 -16.58,-20.97 -30.29,-44.27 -39.56,-69.35 -14.71,24.2 -21.72,53.31 -18.75,81.52zm732.78 -46.99l0 0c0.17,17.55 -1.98,34.94 -5.66,52.08 13.82,-20.54 24.2,-45.07 21.63,-70.31 -5.28,6.11 -11.32,11.63 -15.97,18.23zm-65.31 45.83l0 0c10,0.24 20,-0.28 29.98,-1.06 -0.73,15 -2.97,30.1 -9.34,43.85 6.06,-5.94 11.2,-12.78 15.12,-20.28 10,-18.78 17.57,-39.09 20.5,-60.22 -16.8,15.26 -36.09,27.43 -56.26,37.71zm-744.55 -32.76l0 0c2.83,49.18 20.07,97.65 49.7,137.11 23.11,31.09 53.02,56.47 85.05,77.98 -15.92,-31.11 -24.1,-66.44 -23.75,-101.4 -7.12,4.74 -11.79,11.96 -14.91,19.79 -8.23,-13.19 -10.42,-28.85 -9.95,-44.13 -4.93,6.44 -9.36,13.21 -13.63,20.1 -6.3,-14.37 -7.93,-30.15 -7.55,-45.69 -4.62,6.3 -8.4,13.14 -11.44,20.33 -9.2,-23.33 -8.14,-49.06 -6.18,-73.59 -8.68,8.7 -16.7,18.04 -24.13,27.83 -10.1,-11.23 -17.67,-24.34 -23.21,-38.33zm135.84 97.37l0 0c2.05,-6.77 4.9,-13.3 9.01,-19.08 2.38,25.75 14.6,51.25 37.01,65.29 -1.75,-11.14 -1.89,-22.48 0.02,-33.59 3.99,5.05 8.68,9.46 13.82,13.3 -2.59,-14.6 -2.69,-29.51 -0.85,-44.2 -20.09,-14.84 -38.16,-32.29 -54.51,-51.16 -8.06,22.1 -10.75,46.54 -4.5,69.44zm532.5 -54.98l0 0c-3.09,30.66 -8.02,63.19 -27.34,88.31 -0.45,-8.19 -1.48,-16.33 -3.58,-24.25 -7.29,17.15 -17.36,33.21 -29.96,46.96 1.54,-9.29 0.47,-18.66 -1.11,-27.85 -14.74,22.36 -36.06,40.35 -61.04,50.21 -0.05,-5.12 -0.05,-10.23 -0.02,-15.35 -24.96,23.16 -58.69,34.81 -92.2,37.57 41.23,14.18 88.47,12.53 127.11,-8.54 -1.58,7.79 -3.8,15.43 -6.75,22.81 30.66,-9.83 59.09,-28.02 78.45,-54.04 2.48,5.85 4.79,11.77 7.01,17.76 11.36,-14.57 16.34,-33.02 18.06,-51.16 3.38,4.58 6.58,9.3 9.84,14.01 3.09,-32.85 -1.27,-67.76 -18.47,-96.44zm-462.87 44.67l0 0c0.14,19.93 5.73,39.42 13.49,57.62 2.33,-4.48 4.62,-9 6.91,-13.51 14.27,19.25 34.89,33.56 57.55,41.16 -10.09,-17.01 -17.55,-35.31 -25.35,-53.4 -2.53,6.01 -4.77,12.14 -6.8,18.35 -5.47,-8.89 -8.51,-18.92 -12.45,-28.5 -10.97,-7.45 -22.62,-13.89 -33.35,-21.72zm599.72 54.23l0 0c0.03,8.02 -0.09,16.06 -0.16,24.13 11.86,-12.53 18.54,-29.65 17.36,-46.96 -5.76,7.59 -11.18,15.42 -17.2,22.83zm-31.91 31.35l0 0c-0.57,14.45 -0.5,29.01 -1.82,43.47 14.06,-16.3 17.46,-38.43 19.75,-59.07 -5.9,5.26 -12.93,9.44 -17.93,15.6zm-594.82 13.68l0 0c-8.8,26.63 -4.72,56.44 9.34,80.5 3.7,-5.5 7.38,-11.02 11.06,-16.54 1.65,13.17 5.62,25.93 12.1,37.53 5.22,-0.02 10.45,-0.05 15.67,-0.02 1.43,-4.86 3.08,-9.63 4.78,-14.37 2.01,4.72 3.92,9.51 5.78,14.3 19.06,0.09 38.12,0.07 57.18,0.02 -6.7,-10.14 -11.84,-21.2 -14.96,-32.95 -5.02,7.08 -7.19,15.54 -8.51,24.01 -14.49,-14.53 -22.83,-34.63 -23.24,-55.12 -5.75,7.88 -10.44,16.51 -13.25,25.9 -10.69,-10.9 -13.26,-26.47 -13.94,-41.09 -5.66,8.14 -9.93,17.12 -13,26.56 -16.16,-11.44 -23.18,-30.67 -29.01,-48.73zm504.67 41.25l0 0c-6.01,22.1 -13.4,43.78 -22.29,64.89 18.28,-10.62 29.39,-29.27 40.36,-46.66 1.13,6.47 2.03,12.95 2.76,19.49 13.23,-8.85 22.92,-21.89 29.03,-36.49 2.24,4.24 4.46,8.51 6.68,12.8 6.51,-16.72 11.79,-34.08 13.51,-52.01 -21.6,15.6 -45,28.83 -70.05,37.98zm-94.23 15.69l0 0c12.69,5.09 25.54,9.83 38.49,14.27 -3.35,8.46 -6.72,16.93 -10.47,25.23 3.16,0 6.35,0 9.53,0.03 15.02,-13.19 26.84,-29.84 34.6,-48.26 -23.56,6.01 -47.78,9.29 -72.15,8.73zm-47.13 90.9l0 0c-0.14,-11.46 -0.05,-22.93 -0.12,-34.39 -282.64,0 -565.28,0.05 -847.93,-0.02 -0.14,28.61 -0.07,57.22 -0.02,85.83 6.72,0.02 13.47,0.02 20.19,0.05 -0.05,80.9 0.05,161.78 -0.02,242.68 -6.7,0.71 -13.4,1.42 -20.1,1.96 -0.26,29.18 -0.07,58.38 -0.1,87.58 218.56,-26.75 438.82,-37.57 658.89,-41.06 2.9,11.91 5.42,23.91 8.28,35.85 16.41,0.02 32.83,0.14 49.27,-0.07 1.63,-11.96 3.89,-23.85 5.8,-35.76 122.44,-0.17 244.81,5.61 367.02,12.62 109.87,7.19 219.81,14.65 329.16,27.85 0.04,-29.22 0,-58.42 0.04,-87.62 -7.97,-0.85 -15.9,-1.86 -23.8,-2.78 0.12,-59.28 -0.14,-118.55 0.12,-177.83 10.97,4.86 21.87,11.21 28.16,21.87 13.24,0.28 26.47,-0.1 39.7,-0.45 -0.05,-56.89 0,-113.81 -0.02,-170.7 -153.23,0.02 -306.42,0.02 -459.64,0 -0.05,10.73 -0.03,21.44 0,32.17 -21.49,-26.65 -56.83,-42.01 -90.96,-36.02 -25.57,3.43 -47.55,18.97 -63.92,38.24zm-98.83 -746.27c12.95,-11.91 29.7,-19.67 47.32,-21.16 -6.91,9.55 -13.16,19.53 -18.83,29.88 9.3,-3.98 19.28,-5.51 29.21,-6.79 -9.58,8.61 -16.23,19.74 -21,31.61 6.82,-3.99 14.2,-6.84 22.08,-7.83 -7.81,7.38 -12.88,17 -14.58,27.59 26.16,-5.85 53.33,-4.69 79.63,-0.37 25.36,4.64 51.24,11.41 72.51,26.63 -0.28,-11.49 -2.99,-23.54 -12.97,-30.55 8.49,-0.68 16.98,0.17 25.19,2.45 -4.13,-7.97 -8.8,-15.63 -14.25,-22.76 10.41,-0.16 20.74,1.65 30.1,6.37 -3.11,-7.85 -7.74,-14.95 -13.94,-20.66 14.08,4.41 27.36,12.85 34.81,25.92 9.79,15.85 11.75,34.96 11.42,53.19 -3.58,-2.26 -7.19,-4.48 -10.83,-6.63 2.03,15.85 -1.91,31.59 -9.88,45.31 -3.11,-5.07 -6.41,-10.02 -9.84,-14.86 -1.76,24.27 -7.07,48.4 -17.07,70.67 -13.85,31.91 -35.64,59.51 -58.66,85.27 -5.73,5.85 -9.89,14.95 -5.05,22.66 19.84,37.77 22.67,82.25 16.09,123.79 -3.87,22.69 -10.17,45.36 -21.96,65.31 -32.86,-0.85 -66,3.35 -97.68,11.98 -12.92,-13.53 -28.16,-24.55 -43.56,-35.07 -13.02,-8.66 -26.16,-17.27 -40.55,-23.52 7.41,-38.7 11.63,-78.12 11.68,-117.53 0.35,-31.11 -13.14,-61.21 -34.14,-83.73 -1.27,-1.89 -4.52,-3.85 -2.45,-6.35 39.42,-40.36 59.35,-98.62 54.72,-154.66 -5.44,4.18 -10.52,8.8 -15.33,13.68 -0.19,-11.25 1.94,-22.31 5.83,-32.83 -5.31,5.49 -10.21,11.34 -14.88,17.38 3.01,-28.12 15.4,-55.62 36.86,-74.39zm3.37 199.57l0 0c5.9,-30.71 19.7,-60.67 43.62,-81.5 0.96,8.76 3.32,17.27 7.07,25.24 5.99,-9.2 12.62,-17.95 19.82,-26.23 4.31,3.71 8.63,7.36 13.02,11 3.58,-3.61 7.29,-7.15 10.96,-10.67 2.2,4.2 4.37,8.42 6.56,12.65 3.04,-2.29 6.06,-4.6 9.11,-6.91 2.28,3.46 4.6,6.95 6.88,10.42 3.83,-2.36 7.65,-4.72 11.44,-7.08 2.08,4.32 4.18,8.61 6.33,12.91 4.15,-2.27 8.28,-4.53 12.43,-6.82 -0.07,9.41 -0.15,18.82 0.16,28.26 8.35,-4.41 15.64,-10.43 22.46,-16.89 1.86,25.62 -1.25,51.54 -9.6,75.86 30.19,-28.29 49.41,-70.67 45.02,-112.4 -9.12,-0.73 -18.39,-1.04 -27.24,-3.54 -7.78,-2.12 -13.7,-7.87 -20.19,-12.28 -16.42,-11.77 -37.5,-17.48 -57.51,-13.61 -12.5,1.51 -24.36,6.53 -36.91,7.4 -13.26,-2.57 -24.74,-10.38 -35.62,-18.02 -37.22,31.3 -50.26,88.67 -27.81,132.21zm-16.11 44.67l0 0c2.27,4.79 6.63,9.58 5.05,15.29 -2.52,14.74 -9.95,29.69 -5.85,44.79 8.99,18.35 28.94,27.88 39.75,44.91 7.43,13.96 4.67,30.8 10.66,45.26 6.06,11.82 19.22,17.53 31.39,20.9 10.57,2.52 21.89,5.31 32.6,1.89 17.31,-5.78 29.7,-22.32 33.85,-39.68 4.31,-25.42 -5.62,-50.24 -13.85,-73.82 -3.56,-9.65 -1.46,-20.08 -2.54,-30.08 -0.31,-3.65 -1.91,-7.64 -5.64,-8.98 -11.32,-5.05 -24.04,-4.37 -36.16,-4.63 0.73,14.2 0.45,28.61 -3.89,42.29 -1.75,-27.69 -22.72,-51.86 -49.04,-59.41 -11.98,-3.19 -24.32,0.07 -36.33,1.27zm-10.4 167.45l0 0c-2.73,9.67 -2.4,23.8 8.66,27.95 24.11,8.44 49.46,15.14 70.41,30.42 23.44,-5.16 47.69,-5.54 71.54,-3.89 10.35,0.88 15.4,-10.21 17.4,-18.63 4.79,-23.12 8.83,-46.54 9.44,-70.2 -7.74,16.11 -15,32.51 -24.74,47.53 -2.01,-4.97 -4.01,-9.93 -6.09,-14.86 -5.94,8.4 -11.93,16.72 -17.88,25.12 -2.5,-2.71 -4.95,-5.4 -7.4,-8.11 -3,2.78 -5.95,5.59 -8.85,8.42 -2.41,-3.52 -4.81,-7.03 -7.17,-10.57 -4.72,2.62 -9.39,5.29 -14.03,8.02 -2.76,-3.94 -5.55,-7.85 -8.33,-11.75 -4.29,1.96 -8.61,3.9 -12.93,5.83 -1.84,-3.82 -3.68,-7.62 -5.54,-11.42 -4.79,2.25 -9.55,4.44 -14.34,6.66 -2.36,-9.63 -3.66,-19.49 -4.39,-29.35 -4.67,4.23 -9.27,8.52 -13.82,12.86 -2.45,-21.11 -3.4,-42.53 -1.04,-63.69 -15.23,20.6 -24.25,45.15 -30.9,69.66zm-493.27 797c14.13,-0.66 28.28,-0.02 42.41,-0.28 9.62,0.17 20.64,-0.45 28.35,6.37 13.06,10.61 10.85,35.71 -6.49,40.66 15.64,3.71 21.51,22.65 14.55,36.12 -4.74,10.02 -16.55,13.94 -26.96,14.22 -17.45,0.59 -34.93,0.26 -52.38,0.14 0.47,-32.41 -0.62,-64.86 0.52,-97.23zm27.85 21.02l0 0c0,5.45 0.03,10.9 0.03,16.37 6.67,-0.38 13.91,1.09 20.12,-2.05 4.36,-3.37 3.7,-10.47 -1.14,-13.05 -6.11,-2 -12.69,-1.01 -19.01,-1.27zm0.03 36.87l0 0c-0.03,5.94 -0.03,11.89 0,17.85 8.68,-0.26 25.49,2.62 24.55,-10.8 -3.63,-9.98 -16.44,-6.18 -24.55,-7.05zm175.44 -36.82l0 0c0,6.15 0,12.33 0,18.54 7,-0.36 14.6,1.27 21.08,-2.05 5.92,-3.28 5.33,-13.76 -1.43,-15.64 -6.42,-1.54 -13.12,-0.66 -19.65,-0.85z"/>
   <path class="fil2" d="M301.1 945.01c40,0.04 79.99,-0.07 119.99,0.04 15.9,0.9 33.4,0.76 46.8,10.67 9.95,7.52 12.76,20.73 12.71,32.57 -0.17,25.21 0.33,50.45 -0.54,75.67 -3.33,20.3 -21.75,32.88 -36.99,44.51 10.92,0.58 22.6,2.99 30.55,11.15 8.58,8.85 10.99,21.8 10.64,33.73 -0.19,42.53 0.16,85.06 -0.19,127.56 -0.5,13.89 -15.33,21.35 -27.65,21.91 -51.84,4.32 -103.52,10.31 -155.27,15.64 -0.05,-15.19 -0.1,-30.38 0.05,-45.55 6.77,-0.54 13.54,-1.2 20.28,-2.12 -0.09,-93.97 0.19,-187.94 -0.14,-281.89 -6.75,0.1 -13.49,0.14 -20.26,0.17 0.05,-14.67 0.05,-29.37 0.02,-44.06zm1215.73 141.8c0.07,-47.27 0.02,-94.53 0.02,-141.8 68.45,0.02 136.9,0.02 205.37,-0.03 0.05,47.41 -0.09,94.8 0.08,142.21 -8.66,-17.62 -26.07,-28.4 -43.99,-34.77 0.11,-21.13 0.04,-42.24 0.04,-63.38 -8.06,-0.02 -16.11,-0.04 -24.15,0.12 0.14,93.48 0,186.95 0.07,280.43 7.86,0.89 15.71,1.89 23.59,2.83 -0.12,15.17 -0.12,30.31 0,45.48 -38.83,-4.37 -77.7,-8.61 -116.59,-12.22 -0.03,-15.17 -0.03,-30.34 0,-45.48 7.83,0.54 15.68,1.16 23.49,2.26 -0.02,-91.14 -0.05,-182.28 0.02,-273.42 -7.99,0 -15.94,-0.02 -23.91,-0.04 -0.05,21.04 0,42.1 -0.03,63.16 -17.95,6.35 -35.17,17.2 -44.01,34.65zm-212.95 -141.78c28.03,-0.02 56.05,-0.02 84.07,0 22.22,57.51 41.28,116.17 60.81,174.62 0.8,-24.21 -2.36,-48.31 -2.01,-72.49 0.02,-19.39 0.05,-38.78 0,-58.16 -5.73,0.02 -11.44,0.04 -17.15,0.07 0.05,-14.7 0.03,-29.39 0,-44.06 25.67,0.04 51.31,-0.05 76.97,0.04 -0.03,14.65 -0.05,29.3 0.02,43.97 -5.4,0 -10.78,-0.02 -16.16,-0.05 -0.09,104.19 0.05,208.37 -0.07,312.56 -12.64,-1.04 -25.35,-1.25 -37.88,-3.21 -4.17,-6.28 -5.66,-13.99 -8.61,-20.88 -28.21,-73.54 -55.88,-147.35 -81.04,-222 0.14,24.04 2.85,47.98 3.04,72.01 0.07,39.37 0,78.74 0.02,118.08 5.29,0.24 10.57,0.49 15.9,0.78 0.03,15.14 0,30.31 0,45.47 -25.94,-1.72 -51.91,-2.85 -77.86,-4.24 -0.02,-15.1 0,-30.19 -0.02,-45.29 6.18,0.14 12.36,0.28 18.56,0.43 -0.02,-84.54 -0.05,-169.05 0.02,-253.59 -6.22,-0.05 -12.4,-0.07 -18.61,-0.05 0.05,-14.67 0.07,-29.34 0,-44.01zm-457.23 -0.02c37.83,-0.03 75.67,0.09 113.5,-0.05 6.98,42.13 13.16,84.37 20.05,126.52 7.57,-42.01 13.21,-84.39 20.28,-126.5 35.76,0.1 71.54,-0.04 107.3,0.07 -0.02,14.65 -0.02,29.3 0.02,43.95 -6.29,0.02 -12.59,0.02 -18.87,0.02 0.03,82.2 0,164.38 0.03,246.58 5.59,-0.02 11.2,-0.33 16.79,0.26 3.23,0.9 1.51,4.76 2.08,7.15 -0.03,12.47 -0.14,24.98 0.02,37.48 -34.79,0.7 -69.6,-0.9 -104.42,-0.57 -0.19,-15.05 -0.05,-30.1 -0.09,-45.15 5.23,-0.04 10.45,-0.02 15.71,0 0.07,-47.57 -0.12,-95.17 0.11,-142.74 -0.02,-5.05 -0.42,-10.08 -0.94,-15.05 -12.36,80 -26.16,159.78 -39.51,239.62 -4.9,-0.03 -9.79,-0.03 -14.65,-0.03 -18.42,-80.62 -37.31,-161.14 -55.4,-241.83 -1.58,53.51 -0.14,107.11 -0.73,160.67 5,-0.19 10.02,-0.28 15.05,-0.33 -0.03,15.07 -0.03,30.15 0,45.22 -25.45,0.54 -50.88,0.78 -76.33,1.53 -0.05,-15.02 0.12,-30.07 -0.12,-45.12 6.65,-0.19 13.28,-0.43 19.93,-0.62 0.24,-82.36 0.05,-164.73 0.1,-247.07 -6.66,0 -13.31,0.02 -19.96,0.02 0.1,-14.67 0.05,-29.36 0.05,-44.03zm-171.86 0c40.24,0.02 80.48,-0.03 120.74,0.02 -0.04,14.65 -0.09,29.32 0.05,43.99 -10.59,0.02 -21.18,0.02 -31.77,-0.05 -0.05,83.34 0.02,166.65 -0.02,249.96 8.3,-0.19 16.6,-0.69 24.9,-0.95 1.18,-17.31 0.31,-34.65 0.57,-51.96 22.1,-6.37 45.22,-19.37 52.34,-42.79 0.19,46.19 0,92.37 0.07,138.55 -55.64,1.44 -111.26,3.31 -166.85,5.99 -0.05,-15.14 0,-30.26 -0.05,-45.38 6.37,-0.19 12.74,-0.42 19.13,-0.59 0.07,-84.27 0.02,-168.55 0,-252.83 -6.37,0.05 -12.76,0.07 -19.13,0.1 0.05,-14.7 0.02,-29.39 0.02,-44.06zm-184.12 -0.03c59.25,0.07 118.53,0.03 177.8,0.03 -0.05,27.15 -0.02,54.29 -0.02,81.44 -20,4.58 -39.72,14.06 -52.06,31.04 0.17,-22.83 0.07,-45.66 0.07,-68.47 -10.4,0.02 -20.78,-0.05 -31.18,0.12 0.21,34.43 -0.02,68.87 0.14,103.31 12.83,0.21 25.69,-0.47 38.5,0.31 0.94,14.36 0.04,28.8 0.44,43.21 -12.99,0.42 -25.99,0.16 -39.01,0.21 0.02,37.1 0.02,74.21 0,111.28 10.21,-0.49 20.43,-1.15 30.64,-1.84 0.64,-17.66 0.52,-35.33 0.45,-53 21.39,-6.27 44.36,-18.16 51.87,-40.75 0.28,45.49 0.14,91.02 0.07,136.54 -59.28,2.67 -118.53,6.54 -177.64,11.68 -0.12,-15.29 -0.09,-30.55 -0.02,-45.83 8.35,-0.5 16.72,-1.11 25.07,-1.7 0.05,-87.86 0.02,-175.72 0,-263.56 -8.37,0.04 -16.75,0.04 -25.14,0.07 0.02,-14.7 0,-29.39 0.02,-44.09zm526.13 -488.7c12.01,-1.2 24.35,-4.46 36.33,-1.27 26.32,7.55 47.29,31.72 49.04,59.41 4.34,-13.68 4.62,-28.09 3.89,-42.29 12.12,0.26 24.84,-0.42 36.16,4.63 3.73,1.34 5.33,5.33 5.64,8.98 1.08,10 -1.02,20.43 2.54,30.08 8.23,23.58 18.16,48.4 13.85,73.82 -4.15,17.36 -16.54,33.9 -33.85,39.68 -10.71,3.42 -22.03,0.63 -32.6,-1.89 -12.17,-3.37 -25.33,-9.08 -31.39,-20.9 -5.99,-14.46 -3.23,-31.3 -10.66,-45.26 -10.81,-17.03 -30.76,-26.56 -39.75,-44.91 -4.1,-15.1 3.33,-30.05 5.85,-44.79 1.58,-5.71 -2.78,-10.5 -5.05,-15.29zm173.75 485.26c21.06,-4.43 44.11,-0.21 61.25,13.11 23.54,17.74 36.52,45.83 44.37,73.53 11.87,44.48 12.71,91.35 7.15,136.85 -5,34.34 -15.03,69.67 -38.24,96.4 -17.62,20.45 -46.25,31.53 -72.93,25.52 -19.95,-3.66 -36.91,-16.68 -48.89,-32.6 -23.36,-31.89 -31.49,-72.01 -34.75,-110.65 -2.31,-42.66 -0.71,-86.37 13,-127.2 10.8,-32.9 33.09,-67.01 69.04,-74.96zm-2.62 75.15l0 0c-5.1,36.65 -3.94,73.8 -4.08,110.72 -0.17,26.6 0.38,53.28 3.4,79.74 1.53,9.41 2.85,19.49 8.56,27.46 4.62,6.37 14.98,7.43 20.64,1.86 5.42,-5.14 7.05,-12.85 8.75,-19.83 5.02,-25.53 3.94,-51.68 5.19,-77.54 -0.03,-38.49 0.56,-77.13 -3.24,-115.45 -2.05,-13.87 -3.77,-33.59 -20.75,-36.61 -13.12,3.56 -16.75,17.88 -18.47,29.65zm-796.51 81.96l0 0c11.29,-11.91 22.59,-23.82 33.94,-35.68 0.3,-13.87 -0.43,-27.77 0.68,-41.61 0.4,-9.25 0.78,-18.66 -1.36,-27.74 -0.85,-3.7 -4.53,-6.49 -8.31,-6.39 -8.32,-0.55 -16.67,-0.12 -25,-0.24 0,37.22 -0.07,74.44 0.05,111.66zm-0.03 164.76l0 0c9.84,-1.37 19.84,-1.91 29.51,-4.32 6.18,-1.3 8.16,-8.35 8.04,-13.84 0.17,-26.75 0,-53.5 0.07,-80.22 -0.07,-7.67 -0.33,-17.43 -8.2,-21.35 -9.18,-4.32 -19.65,-2.62 -29.42,-2.97 -0.04,40.9 -0.07,81.8 0,122.7z"/>
  </g>
 </g>
</svg>
