<?xml version="1.0" encoding="UTF-8"?>
<!DOCTYPE svg PUBLIC "-//W3C//DTD SVG 1.1//EN" "http://www.w3.org/Graphics/SVG/1.1/DTD/svg11.dtd">
<!-- Creator: CorelDRAW -->
<svg xmlns="http://www.w3.org/2000/svg" xml:space="preserve" width="2000px" height="1600px" version="1.1" style="shape-rendering:geometricPrecision; text-rendering:geometricPrecision; image-rendering:optimizeQuality; fill-rule:evenodd; clip-rule:evenodd"
viewBox="0 0 2000 1600"
 xmlns:xlink="http://www.w3.org/1999/xlink">
 <defs>
  <style type="text/css">
   <![CDATA[
    .fil2 {fill:black;fill-rule:nonzero}
    .fil1 {fill:#025646;fill-rule:nonzero}
    .fil3 {fill:#D3AE7D;fill-rule:nonzero}
    .fil0 {fill:#FEFEFE;fill-rule:nonzero}
   ]]>
  </style>
 </defs>
 <g id="Capa_x0020_1">
  <metadata id="CorelCorpID_0Corel-Layer"/>
  <g id="Bemidji_x0020_State_x0020_Beavers_x0020_.cdr">
   <path class="fil0" d="M1331.03 803.39c38.99,-24.36 86.16,-35.89 131.97,-30.58 4.25,0.56 8.78,0.77 12.59,3.03 -18.9,51.77 -36.91,103.89 -55.14,155.92 -18.63,9.29 -39.22,16.24 -60.12,17.22 8.85,-20.57 19.93,-40.61 24.13,-62.82 -15.62,19.06 -31.11,38.34 -44.58,59.02 -2.66,5 -8.55,6.06 -13.48,7.52 -11.81,2.82 -23.94,5.34 -36.12,4.48 13.45,-51.29 27.09,-102.53 40.75,-153.79z"/>
   <path class="fil1" d="M621.96 139.21c156.52,-54.5 325.58,-70.79 489.96,-51.29 106.36,12.76 211.02,41.05 308.55,85.54 81.15,37.08 157.44,85.38 224.07,144.85 64.16,57.22 119.31,125.04 159.46,201.24 43.86,82.76 68.52,175.67 70.44,269.37 1.41,83.02 -14.86,166.39 -47.4,242.84 -31.32,74.43 -77.29,142.28 -132.39,201.13 -116.99,124.48 -272.84,208.4 -437.19,251.58 -128.3,33.76 -262.72,43.01 -394.6,29.67 0.14,-1.45 0.44,-4.32 0.58,-5.78 42.85,0.86 85.82,1.39 128.57,-2.1 186.31,-13.75 371.05,-77.86 518.32,-194.26 71.37,-56.55 133.38,-125.59 178.5,-204.89 45.32,-79.27 72.8,-169.04 77.08,-260.38 4.97,-97.28 -16.39,-195.42 -59.59,-282.6 -39.15,-79.34 -95.15,-149.84 -161.18,-208.5 -66.63,-59.35 -143.25,-107.1 -224.86,-142.97 -198.58,-87.02 -425.2,-105.41 -636.33,-58.29 -142.47,32.13 -279.06,95.5 -390.48,190.63 -2.73,3.4 -6.06,2.8 -9.16,0.05 94.65,-93.56 212.43,-161.97 337.65,-205.84zm92.01 79.95c153.88,-29.77 315.16,-21.5 464.81,25.4 -0.8,1.96 -1.61,3.9 -2.42,5.87 -169.81,-42 -352.05,-34.56 -517.21,23.6 -124.62,44.32 -240.97,119.05 -322.16,224.67 -28.2,36.29 -51.75,76.29 -69.13,118.84 -5.27,13.43 -10.98,26.77 -13.94,40.94 -5.34,12.94 -8.02,26.76 -11.07,40.37 -7.97,37.28 -10.59,75.58 -9.06,113.65 2.59,54.06 15.07,107.59 36.35,157.32 10.52,25.1 23.37,49.16 37.84,72.21 26.6,42.01 58.96,80.33 95.43,114.12 83.94,77.82 187.65,132.79 297.09,165.17 73.91,22.25 150.87,33.97 227.95,36.37 30.26,1.07 60.56,0.33 90.77,-1.57 49.46,-3.3 98.66,-10.61 146.9,-22.05 88.2,-20.84 173.41,-55.47 249.75,-104.49 83.27,-53.53 156.33,-124.96 204.82,-211.8 1.18,-4.76 5.57,-2.98 8.83,-1.59 -32.86,81.7 -85.77,154.62 -150.14,214.41 -63.46,59.24 -137.93,106.11 -217.39,140.78 -91.66,39.91 -190.22,63.42 -289.78,71.25 -112.47,8.6 -226.64,-1.66 -335.11,-33 -87.25,-25.08 -170.87,-63.61 -245.36,-115.61 -82.42,-57.55 -153.86,-132.3 -201.89,-221 -44.93,-82.19 -68.13,-176.51 -63.88,-270.25 3.1,-81.45 26.67,-161.74 66.33,-232.86 46.46,-83.88 113.74,-155.2 191.46,-210.9 97.93,-70.38 212.13,-116.69 330.21,-139.85z"/>
   <path class="fil2" d="M919.58 332.71c139.41,-17.31 281.42,-8.72 418.82,19.41 62.31,13.34 124.23,30.09 182.89,55.29 17.42,7.35 34.6,16.59 47.17,31.06 1.69,2.54 2.47,5.64 2.93,8.67 1.53,16.04 -1.15,32.1 -0.97,48.09 11.21,51.5 14.96,105.1 7.1,157.35 -6.66,42.95 -23.04,86.74 -56.35,116.14 -4.28,4.32 -11.12,6.84 -12.25,13.5 -19.67,59.24 -39.82,118.31 -59.49,177.55 -2.33,6.59 -3.95,13.84 -8.94,19.07 -6.55,7.21 -16.21,10.3 -25.41,12.52 -20.59,4.44 -41.76,5.39 -62.49,9.02 -38.46,6.28 -74.58,23.23 -106.2,45.69 -35.18,25.19 -65.55,57.3 -88.04,94.32 -20.84,34.58 -35.52,74.63 -32.45,115.56 1.99,30.23 17.24,58.62 40.22,78.12 -48.24,11.44 -97.44,18.75 -146.9,22.05 1.15,-46.98 13.89,-92.68 27.62,-137.31 -29.22,20.2 -60.77,38.69 -83.16,66.84 -16.74,21.22 -26.51,46.76 -35.23,72.04 -77.08,-2.4 -154.04,-14.12 -227.95,-36.37 50.24,-70.43 108.42,-135.21 172.65,-193.15 50.98,-44.96 106.59,-86.44 170.17,-111.8 22.77,-9.06 46.67,-15.41 71.07,-18.03 10.77,-1.64 22.93,-4.16 30.1,-13.12 3.53,-6.31 -4.63,-10.22 -9.6,-11.35 -57.89,-11.19 -120.9,-4.44 -171.65,27.06 -32.89,19.23 -58.98,47.5 -89.47,69.94 -12.87,9.31 -27.76,16.32 -43.73,17.68 -37.49,4.44 -78.49,3.63 -111.19,-17.56 -32.61,-20.97 -50.46,-57.23 -65.09,-91.78 -15,-41.17 -6.05,-85.45 -2.49,-127.75 1.24,-9.4 -1.16,-20.17 4.69,-28.36 2.61,-4.18 8.41,-4.62 12.41,-2.24 3.1,4.14 5.02,8.99 7.47,13.52 21.26,40.87 56.3,75.63 100.07,91.46 59.82,21.82 127.95,10.61 182.68,-19.95 25.29,-14.26 50.48,-30.8 67.38,-54.96 13.4,-18.7 19.76,-41.09 27.15,-62.58 10.73,-32.89 26.6,-64.1 46.94,-92.11 20.6,-28.4 45.81,-55.24 78.47,-69.54 12,-4.74 26.28,-8.88 38.62,-3.17 4.76,2.17 5.55,8.07 2.59,12.07 -13.43,25.07 -23.58,52.95 -23.07,81.74 0.23,15.97 6.8,33.79 22.21,40.91 20.18,9.59 43.39,4.25 63.86,-1.55 32.94,-10.91 65.71,-23.04 95.87,-40.37 27.55,-15.97 54.62,-36.17 69.32,-65.2 12.94,-25.33 10.24,-57.53 -6.22,-80.6 -3.26,-8.64 0.49,-18.86 6.5,-25.44 10.16,-11.44 25.97,-13.92 40.05,-17.62 9.24,-2.24 16.34,-11.25 17.08,-20.61 -0.16,-6.26 -7.58,-7.65 -12.48,-6.66 -19.81,2.48 -33.88,17.91 -49.97,28.04 -4.18,2.66 -11.33,5.31 -14.56,-0.02 -11.56,-19 -18.54,-44.61 -6.54,-65.07 11.9,-19.57 34.8,-28.42 56.14,-33.39 -41.1,-21.68 -86.42,-34 -131.56,-44.01 -127.14,-26.44 -258.67,-23.97 -386.88,-6.86 -106.04,14.3 -210.46,39.54 -312.06,72.96 -141.05,46.87 -278.18,111.63 -393.51,206.63 2.96,-14.17 8.67,-27.51 13.94,-40.94 17.38,-42.55 40.93,-82.55 69.13,-118.84 88.31,-45.18 182.4,-77.98 277.74,-104.84 99.93,-27.75 201.86,-48.74 304.85,-61.15zm-485.43 548.11c4.88,-4.07 15.12,-10.47 18.74,-1.85 1.18,8.9 -2.24,17.47 -4.76,25.84 -12.99,40.63 -26.37,81.49 -31.27,124.06 -5.48,42.32 -9.01,84.85 -13.45,127.28 -36.47,-33.79 -68.83,-72.11 -95.43,-114.12 18.77,-40.75 39.31,-81.94 71.21,-114.18 17.12,-17.06 37.67,-30.14 54.96,-47.03zm93.33 -218.74c3.51,-5.08 7.37,-10.54 13.63,-12.32 2.87,13.29 -1.5,26.56 -2.56,39.78 -9.78,79.55 1.25,161.16 29.54,236.02 21.79,58.62 53.69,113.16 91.68,162.71 17.2,22.95 38.09,43.55 50.6,69.71 5.68,12.27 10.67,27.32 3.88,40.19 -6.56,10.96 -20.36,13.87 -32.24,13.69 -22.91,-0.72 -44.84,-9.36 -64.3,-21.04 -16.67,-9.87 -29.98,-24.43 -41.07,-40.12 -19.12,-27.16 -33.47,-57.32 -45.97,-87.97 -16.3,-40.74 -29.01,-82.9 -38.37,-125.77 -7.09,-33.4 -12.46,-67.38 -12.41,-101.6 1.06,-36.61 6.82,-73.16 17.75,-108.12 7.28,-22.79 16.39,-45.26 29.84,-65.16zm-179.42 38.02c39.75,-30.9 81.56,-59.49 126.38,-82.56 -36.64,38.58 -68.23,81.61 -96.57,126.54 -44.47,70.77 -80.08,146.91 -107.73,225.74 -21.28,-49.73 -33.76,-103.26 -36.35,-157.32 33.03,-42.18 72.34,-79.19 114.27,-112.4zm335.03 -186.93c27.58,-5.9 56.26,-1.5 83.51,4.32 5.96,2.15 15.44,2.54 16.59,10.29 -0.16,3.65 -3.02,5.91 -5.98,7.44 -8.74,4.81 -15.4,12.36 -22.35,19.32 -22.28,23.37 -39.48,51.01 -54.16,79.62 -16.87,34.05 -30.76,69.78 -38.99,106.94 -0.55,4.83 -6.49,4.74 -10.14,4.53 -6.57,-1.66 -8.6,-8.85 -9.64,-14.67 -4.35,-25.87 -5.43,-52.17 -5.11,-78.35 -0.41,-29.7 1.69,-59.5 7.47,-88.66 2.79,-12.67 6.21,-25.82 14.4,-36.2 6.03,-7.67 15.04,-12.34 24.4,-14.58zm388.71 -9.2c20.01,-11.76 44.54,-17.24 67.44,-11.95 19.69,4.69 36.08,18.86 46.5,35.87 3.24,5.02 4.99,10.79 4.81,16.8 -10.42,-4.76 -21.06,-10.37 -32.77,-10.56 -9.78,4.99 -18.82,11.7 -29.61,14.52 -22.77,7.09 -47.68,-3.22 -63.56,-19.79 -7.1,-8.34 -1.13,-20.06 7.19,-24.89zm16.78 -96.63c36.77,-5.67 73.98,-10.89 111.28,-8.39 20.87,1.78 43.25,6.12 59.1,20.89 14.4,13.27 21.45,36.33 10.59,53.88 -32.68,-8.19 -66.47,-11.12 -100.08,-11.81 -82.6,-1.41 -166.41,12.64 -241.48,48.02 7.42,-27.18 27.92,-48.81 50.83,-64.2 32.61,-21.84 71.3,-32.52 109.76,-38.39zm242.45 396.05c-13.66,51.26 -27.3,102.5 -40.75,153.79 12.18,0.86 24.31,-1.66 36.12,-4.48 4.93,-1.46 10.82,-2.52 13.48,-7.52 13.47,-20.68 28.96,-39.96 44.58,-59.02 -4.2,22.21 -15.28,42.25 -24.13,62.82 20.9,-0.98 41.49,-7.93 60.12,-17.22 18.23,-52.03 36.24,-104.15 55.14,-155.92 -3.81,-2.26 -8.34,-2.47 -12.59,-3.03 -45.81,-5.31 -92.98,6.22 -131.97,30.58z"/>
   <path class="fil3" d="M959.49 378.89c128.21,-17.11 259.74,-19.58 386.88,6.86 45.14,10.01 90.46,22.33 131.56,44.01 -21.34,4.97 -44.24,13.82 -56.14,33.39 -12,20.46 -5.02,46.07 6.54,65.07 3.23,5.33 10.38,2.68 14.56,0.02 16.09,-10.13 30.16,-25.56 49.97,-28.04 4.9,-0.99 12.32,0.4 12.48,6.66 -0.74,9.36 -7.84,18.37 -17.08,20.61 -14.08,3.7 -29.89,6.18 -40.05,17.62 -6.01,6.58 -9.76,16.8 -6.5,25.44 16.46,23.07 19.16,55.27 6.22,80.6 -14.7,29.03 -41.77,49.23 -69.32,65.2 -30.16,17.33 -62.93,29.46 -95.87,40.37 -20.47,5.8 -43.68,11.14 -63.86,1.55 -15.41,-7.12 -21.98,-24.94 -22.21,-40.91 -0.51,-28.79 9.64,-56.67 23.07,-81.74 2.96,-4 2.17,-9.9 -2.59,-12.07 -12.34,-5.71 -26.62,-1.57 -38.62,3.17 -32.66,14.3 -57.87,41.14 -78.47,69.54 -20.34,28.01 -36.21,59.22 -46.94,92.11 -7.39,21.49 -13.75,43.88 -27.15,62.58 -16.9,24.16 -42.09,40.7 -67.38,54.96 -54.73,30.56 -122.86,41.77 -182.68,19.95 -43.77,-15.83 -78.81,-50.59 -100.07,-91.46 -2.45,-4.53 -4.37,-9.38 -7.47,-13.52 -4,-2.38 -9.8,-1.94 -12.41,2.24 -5.85,8.19 -3.45,18.96 -4.69,28.36 -3.56,42.3 -12.51,86.58 2.49,127.75 14.63,34.55 32.48,70.81 65.09,91.78 32.7,21.19 73.7,22 111.19,17.56 15.97,-1.36 30.86,-8.37 43.73,-17.68 30.49,-22.44 56.58,-50.71 89.47,-69.94 50.75,-31.5 113.76,-38.25 171.65,-27.06 4.97,1.13 13.13,5.04 9.6,11.35 -7.17,8.96 -19.33,11.48 -30.1,13.12 -24.4,2.62 -48.3,8.97 -71.07,18.03 -63.58,25.36 -119.19,66.84 -170.17,111.8 -64.23,57.94 -122.41,122.72 -172.65,193.15 -109.44,-32.38 -213.15,-87.35 -297.09,-165.17 4.44,-42.43 7.97,-84.96 13.45,-127.28 4.9,-42.57 18.28,-83.43 31.27,-124.06 2.52,-8.37 5.94,-16.94 4.76,-25.84 -3.62,-8.62 -13.86,-2.22 -18.74,1.85 -17.29,16.89 -37.84,29.97 -54.96,47.03 -31.9,32.24 -52.44,73.43 -71.21,114.18 -14.47,-23.05 -27.32,-47.11 -37.84,-72.21 27.65,-78.83 63.26,-154.97 107.73,-225.74 28.34,-44.93 59.93,-87.96 96.57,-126.54 -44.82,23.07 -86.63,51.66 -126.38,82.56 -41.93,33.21 -81.24,70.22 -114.27,112.4 -1.53,-38.07 1.09,-76.37 9.06,-113.65 3.05,-13.61 5.73,-27.43 11.07,-40.37 115.33,-95 252.46,-159.76 393.51,-206.63 101.6,-33.42 206.02,-58.66 312.06,-72.96zm4.19 906.76c22.39,-28.15 53.94,-46.64 83.16,-66.84 -13.73,44.63 -26.47,90.33 -27.62,137.31 -30.21,1.9 -60.51,2.64 -90.77,1.57 8.72,-25.28 18.49,-50.82 35.23,-72.04zm124.9 -878.31l0 0c-38.46,5.87 -77.15,16.55 -109.76,38.39 -22.91,15.39 -43.41,37.02 -50.83,64.2 75.07,-35.38 158.88,-49.43 241.48,-48.02 33.61,0.69 67.4,3.62 100.08,11.81 10.86,-17.55 3.81,-40.61 -10.59,-53.88 -15.85,-14.77 -38.23,-19.11 -59.1,-20.89 -37.3,-2.5 -74.51,2.72 -111.28,8.39zm-16.78 96.63l0 0c-8.32,4.83 -14.29,16.55 -7.19,24.89 15.88,16.57 40.79,26.88 63.56,19.79 10.79,-2.82 19.83,-9.53 29.61,-14.52 11.71,0.19 22.35,5.8 32.77,10.56 0.18,-6.01 -1.57,-11.78 -4.81,-16.8 -10.42,-17.01 -26.81,-31.18 -46.5,-35.87 -22.9,-5.29 -47.43,0.19 -67.44,11.95zm-388.71 9.2l0 0c-9.36,2.24 -18.37,6.91 -24.4,14.58 -8.19,10.38 -11.61,23.53 -14.4,36.2 -5.78,29.16 -7.88,58.96 -7.47,88.66 -0.32,26.18 0.76,52.48 5.11,78.35 1.04,5.82 3.07,13.01 9.64,14.67 3.65,0.21 9.59,0.3 10.14,-4.53 8.23,-37.16 22.12,-72.89 38.99,-106.94 14.68,-28.61 31.88,-56.25 54.16,-79.62 6.95,-6.96 13.61,-14.51 22.35,-19.32 2.96,-1.53 5.82,-3.79 5.98,-7.44 -1.15,-7.75 -10.63,-8.14 -16.59,-10.29 -27.25,-5.82 -55.93,-10.22 -83.51,-4.32zm-155.61 148.91l0 0c-13.45,19.9 -22.56,42.37 -29.84,65.16 -10.93,34.96 -16.69,71.51 -17.75,108.12 -0.05,34.22 5.32,68.2 12.41,101.6 9.36,42.87 22.07,85.03 38.37,125.77 12.5,30.65 26.85,60.81 45.97,87.97 11.09,15.69 24.4,30.25 41.07,40.12 19.46,11.68 41.39,20.32 64.3,21.04 11.88,0.18 25.68,-2.73 32.24,-13.69 6.79,-12.87 1.8,-27.92 -3.88,-40.19 -12.51,-26.16 -33.4,-46.76 -50.6,-69.71 -37.99,-49.55 -69.89,-104.09 -91.68,-162.71 -28.29,-74.86 -39.32,-156.47 -29.54,-236.02 1.06,-13.22 5.43,-26.49 2.56,-39.78 -6.26,1.78 -10.12,7.24 -13.63,12.32z"/>
  </g>
 </g>
</svg>
