<?xml version="1.0" encoding="UTF-8"?>
<!DOCTYPE svg PUBLIC "-//W3C//DTD SVG 1.1//EN" "http://www.w3.org/Graphics/SVG/1.1/DTD/svg11.dtd">
<!-- Creator: CorelDRAW -->
<svg xmlns="http://www.w3.org/2000/svg" xml:space="preserve" width="2000px" height="1600px" version="1.1" style="shape-rendering:geometricPrecision; text-rendering:geometricPrecision; image-rendering:optimizeQuality; fill-rule:evenodd; clip-rule:evenodd"
viewBox="0 0 2000 1600"
 xmlns:xlink="http://www.w3.org/1999/xlink">
 <defs>
  <style type="text/css">
   <![CDATA[
    .fil2 {fill:#050607;fill-rule:nonzero}
    .fil1 {fill:#145FAC;fill-rule:nonzero}
    .fil4 {fill:#221F1F;fill-rule:nonzero}
    .fil3 {fill:#494F52;fill-rule:nonzero}
    .fil0 {fill:#FEFEFE;fill-rule:nonzero}
   ]]>
  </style>
 </defs>
 <g id="Capa_x0020_1">
  <metadata id="CorelCorpID_0Corel-Layer"/>
  <g id="Bentley_x0020_Falcons.cdr">
   <path class="fil0" d="M740.17 150.78c85.59,-15.9 172.66,-22.53 259.6,-24.39 0.02,16.88 0,33.76 0.02,50.66 -74.11,2.97 -148.27,8.36 -221.62,19.8 -91.57,13.93 -180.67,40.69 -267.14,73.47 4.74,206.72 9.73,413.43 14.89,620.13 1.49,40.59 -0.18,81.86 10.25,121.48 6.41,26.47 18.45,51.05 31.42,74.84 14.12,28.29 32.58,54.27 54.22,77.3 40.13,42.9 85.86,80.05 131.83,116.45 74.65,60.01 159.98,104.8 246.1,145.82 0.08,18.42 0.03,36.85 0.03,55.27 -46.78,-24.78 -93.07,-50.51 -138.63,-77.5 -48.64,-29.19 -97.1,-59.19 -140.81,-95.53 -31.18,-25.5 -61.82,-51.65 -91.11,-79.3 -37.73,-35.8 -73.89,-74.12 -100.85,-118.89 -16.66,-28.23 -32.38,-57.57 -40.21,-89.63 -9.64,-36.48 -8.85,-74.48 -9.96,-111.87 -6.2,-222.72 -12.66,-445.44 -18.45,-668.18 3.3,-1.3 6.56,-2.7 9.8,-4.17 86.47,-38.94 177.24,-68.72 270.62,-85.76zm-80.87 137.27c113.5,0.03 227.01,0.02 340.51,0.02 30.58,0.28 61.24,-0.92 91.78,1.46 43.61,3.5 87.72,10.64 127.88,28.7 40.26,18.15 72.66,52.05 90.35,92.38 15.16,33.83 19.92,71.54 17.91,108.35 -1.72,34.86 -10.11,69.97 -28.16,100.1 -14.08,23.98 -34.84,43.61 -58.69,57.72 -23.2,13.59 -48.84,23.52 -75.52,27.42 48.98,5.79 98.71,19.53 138.55,49.68 22.64,16.85 38.79,40.8 50.7,66.07 13.65,29.24 20.39,61.71 19.29,93.97 -1.01,34.93 -10.85,69.31 -26.86,100.29 -11.63,23.5 -28.95,43.86 -49.05,60.57 -24.99,20.75 -53.99,36.3 -84.23,47.9 -27.41,10.36 -56.03,18.18 -85.27,20.93 -42.84,2.46 -85.79,1.38 -128.68,1.62 -106,-0.73 -211.99,-2.62 -317.95,-5.23l0.03 -0.48c13.66,-20.96 26.62,-42.39 40.04,-63.51 41.99,-0.01 83.97,0.06 125.94,-0.03 -0.02,-238.52 -0.05,-477.04 0.02,-715.56 30.13,22.99 60.21,46.05 90.26,69.15 0.04,74.61 -0.01,149.21 0.04,223.83 0.18,45.68 0.62,91.38 0.82,137.06 -0.01,76.86 0.04,153.74 -0.03,230.6 -29.58,19.18 -59.34,38.06 -88.8,57.39 62.94,2.39 125.94,4.35 188.93,3.51 31.56,-0.7 63.49,-1.32 94.33,-8.88 34,-7.97 67.17,-22.25 93.74,-45.28 21.27,-18.15 37.41,-42.15 46.33,-68.64 9.43,-28.58 14.13,-59.32 9.38,-89.27 -4.18,-26.72 -17.35,-51.57 -35.63,-71.34 -16.02,-17.49 -35.27,-31.79 -55.48,-44.06 -32.98,-19.15 -70.12,-29.78 -107.3,-37.19 -28.73,-5.32 -57.83,-9.46 -87.07,-10.01 21.12,-4.63 42.64,-7.5 63.62,-12.83 23.91,-6.16 48.45,-10.39 71.41,-19.75 21.9,-8.8 42.63,-20.57 61.44,-34.8 21.54,-16.59 35.95,-41.34 41.59,-67.78 5.15,-23.5 5.32,-47.74 4.61,-71.66 -1.26,-30.52 -18.42,-57.87 -39.3,-79.11 -19.62,-19.14 -42.74,-35.23 -68.66,-44.5 -36.92,-12.62 -76.22,-16.29 -115.01,-17.47 -101.16,0.03 -202.33,-0.1 -303.48,0.08 -18.32,-23.65 -35.64,-48.07 -54.33,-71.42z"/>
   <path class="fil1" d="M975.58 80l24.19 0c0.05,15.29 0.04,30.59 0,45.88l0 0.51c-86.94,1.86 -174.01,8.49 -259.6,24.39 -93.38,17.04 -184.15,46.82 -270.62,85.76 -3.24,1.47 -6.5,2.87 -9.8,4.17 5.79,222.74 12.25,445.46 18.45,668.18 1.11,37.39 0.32,75.39 9.96,111.87 7.83,32.06 23.55,61.4 40.21,89.63 26.96,44.77 63.12,83.09 100.85,118.89 29.29,27.65 59.93,53.8 91.11,79.3 43.71,36.34 92.17,66.34 140.81,95.53 45.56,26.99 91.85,52.72 138.63,77.5l0 1.2c0.17,12.39 -0.3,24.8 0.37,37.19l-0.91 0c-56.27,-30.17 -112.57,-60.42 -167.31,-93.32 -49.28,-29.61 -98.2,-60.32 -142.35,-97.32 -47.66,-39.27 -94.59,-79.82 -136.08,-125.67 -19.92,-22.1 -38.29,-45.72 -53.53,-71.29 -17.95,-30.56 -34.54,-62.38 -43.46,-96.87 -7.9,-29.08 -9.79,-59.35 -10.7,-89.35 -6.84,-241.73 -12.66,-483.49 -19.56,-725.22l0 -16.1c128.72,-60.27 267.1,-100.11 408.41,-115.83 46.8,-5.47 93.88,-7.93 140.93,-9.03zm-197.41 116.85c73.35,-11.44 147.51,-16.83 221.62,-19.8 0.02,37.01 0,74.01 0.02,111.02 -113.5,0 -227.01,0.01 -340.51,-0.02 -0.99,8.27 -0.42,16.59 -0.54,24.9 0.07,37.68 -0.12,75.38 0.09,113.07 33.09,0.36 66.21,-0.42 99.28,0.39 -0.39,197.63 0.03,395.28 -0.21,592.92 -25.47,0.6 -50.96,-0.43 -76.42,0.5 0.37,39.89 -0.39,79.82 0.39,119.69l-0.03 0.48c105.96,2.61 211.95,4.5 317.95,5.23 -0.04,93.71 0.06,187.4 -0.07,281.11 -86.12,-41.02 -171.45,-85.81 -246.1,-145.82 -45.97,-36.4 -91.7,-73.55 -131.83,-116.45 -21.64,-23.03 -40.1,-49.01 -54.22,-77.3 -12.97,-23.79 -25.01,-48.37 -31.42,-74.84 -10.43,-39.62 -8.76,-80.89 -10.25,-121.48 -5.16,-206.7 -10.15,-413.41 -14.89,-620.13 86.47,-32.78 175.57,-59.54 267.14,-73.47z"/>
   <path class="fil2" d="M999.77 80l38.59 0c93.97,2.57 187.86,13.44 279.38,35.25 88.17,20.69 173.93,51.15 256.02,89.3 -3.93,168.4 -8.86,336.79 -13.15,505.18 -2.26,80.46 -4.17,160.94 -6.63,241.39 -0.93,33.06 -4.14,66.43 -14.52,98.02 -10.35,31.92 -26.5,61.58 -43.84,90.2 -33.36,52.87 -78.69,96.78 -124.88,138.38 -28.37,25.17 -57.46,49.61 -87.37,72.96 -49.03,36.6 -101.61,68.1 -154.52,98.7 -33.82,19.4 -67.97,38.21 -102.39,56.51 -8.46,4.84 -17.61,8.57 -25.62,14.11l-0.7 0c-0.67,-12.39 -0.2,-24.8 -0.37,-37.19 56.91,-30.34 113.23,-61.82 168.16,-95.62 23.5,-14.58 46.76,-29.54 69.31,-45.54 26.27,-18.4 50.68,-39.24 75.25,-59.8 44.78,-38.27 88.73,-78.04 126.07,-123.79 18.03,-22.08 33.63,-46.07 46.91,-71.27 14.23,-25.46 24.95,-53.01 30.24,-81.73 4.64,-24.41 5.4,-49.31 5.87,-74.08 6.35,-230.18 12.9,-460.36 19.13,-690.55 -61.28,-27.81 -124.42,-51.75 -189.41,-69.41 -114.41,-31.23 -233.24,-42.81 -351.53,-45.14 0.04,-15.29 0.05,-30.59 0,-45.88zm-60.76 710.46c33.19,-3.1 66.67,-4.37 99.94,-1.8 28.82,2.41 58.14,7.73 83.89,21.47 21.2,11.21 38.64,30.08 46.22,53.04 10.16,30.42 9.57,65.49 -6.01,94.02 -12.47,23.33 -33.86,40.9 -57.68,51.79 -15.26,6.78 -32.1,8.52 -48.5,10.35 -39.19,3.51 -78.61,3.14 -117.89,1.73 0.07,-76.86 0.02,-153.74 0.03,-230.6zm-0.86 -360.89c39.71,-3.03 79.92,-4.81 119.42,1.18 25.97,4.35 50.7,17.07 69.27,35.75 16.54,16.9 24.92,40.76 24.09,64.26 -0.93,31.77 -12.02,64.38 -35.18,86.85 -18.59,18.5 -44.06,29.11 -69.98,31.74 -35.72,3.83 -71.71,4.02 -107.58,4.05 -0.05,-74.62 0,-149.22 -0.04,-223.83z"/>
   <path class="fil3" d="M999.77 125.88c118.29,2.33 237.12,13.91 351.53,45.14 64.99,17.66 128.13,41.6 189.41,69.41 -6.23,230.19 -12.78,460.37 -19.13,690.55 -0.47,24.77 -1.23,49.67 -5.87,74.08 -5.29,28.72 -16.01,56.27 -30.24,81.73 -13.28,25.2 -28.88,49.19 -46.91,71.27 -37.34,45.75 -81.29,85.52 -126.07,123.79 -24.57,20.56 -48.98,41.4 -75.25,59.8 -22.55,16 -45.81,30.96 -69.31,45.54 -54.93,33.8 -111.25,65.28 -168.16,95.62l0 -1.2c0,-18.42 0.05,-36.85 -0.03,-55.27 83.36,-40.82 166.77,-83.51 239.83,-141.4 47.92,-37.75 95.66,-76.18 137.49,-120.74 19.62,-20.95 37.05,-44.09 50.37,-69.55 13.17,-24.41 26.51,-49.04 33.89,-75.93 11.91,-39.42 10.77,-81 12.08,-121.72 5.25,-208.74 10.3,-417.51 15.06,-626.27 -65.57,-24.95 -132.6,-46.48 -201.23,-61.33 -94.43,-20.6 -191.12,-27.79 -287.44,-32.35 -0.02,-16.9 0,-33.78 -0.02,-50.66l0 -0.51zm-340.47 162.17c18.69,23.35 36.01,47.77 54.33,71.42 101.15,-0.18 202.32,-0.05 303.48,-0.08 38.79,1.18 78.09,4.85 115.01,17.47 25.92,9.27 49.04,25.36 68.66,44.5 20.88,21.24 38.04,48.59 39.3,79.11 0.71,23.92 0.54,48.16 -4.61,71.66 -5.64,26.44 -20.05,51.19 -41.59,67.78 -18.81,14.23 -39.54,26 -61.44,34.8 -22.96,9.36 -47.5,13.59 -71.41,19.75 -20.98,5.33 -42.5,8.2 -63.62,12.83 29.24,0.55 58.34,4.69 87.07,10.01 37.18,7.41 74.32,18.04 107.3,37.19 20.21,12.27 39.46,26.57 55.48,44.06 18.28,19.77 31.45,44.62 35.63,71.34 4.75,29.95 0.05,60.69 -9.38,89.27 -8.92,26.49 -25.06,50.49 -46.33,68.64 -26.57,23.03 -59.74,37.31 -93.74,45.28 -30.84,7.56 -62.77,8.18 -94.33,8.88 -62.99,0.84 -125.99,-1.12 -188.93,-3.51 29.46,-19.33 59.22,-38.21 88.8,-57.39 39.28,1.41 78.7,1.78 117.89,-1.73 16.4,-1.83 33.24,-3.57 48.5,-10.35 23.82,-10.89 45.21,-28.46 57.68,-51.79 15.58,-28.53 16.17,-63.6 6.01,-94.02 -7.58,-22.96 -25.02,-41.83 -46.22,-53.04 -25.75,-13.74 -55.07,-19.06 -83.89,-21.47 -33.27,-2.57 -66.75,-1.3 -99.94,1.8 -0.2,-45.68 -0.64,-91.38 -0.82,-137.06 35.87,-0.03 71.86,-0.22 107.58,-4.05 25.92,-2.63 51.39,-13.24 69.98,-31.74 23.16,-22.47 34.25,-55.08 35.18,-86.85 0.83,-23.5 -7.55,-47.36 -24.09,-64.26 -18.57,-18.68 -43.3,-31.4 -69.27,-35.75 -39.5,-5.99 -79.71,-4.21 -119.42,-1.18 -30.05,-23.1 -60.13,-46.16 -90.26,-69.15 -0.07,238.52 -0.04,477.04 -0.02,715.56 -41.97,0.09 -83.95,0.02 -125.94,0.03 -13.42,21.12 -26.38,42.55 -40.04,63.51 -0.78,-39.87 -0.02,-79.8 -0.39,-119.69 25.46,-0.93 50.95,0.1 76.42,-0.5 0.24,-197.64 -0.18,-395.29 0.21,-592.92 -33.07,-0.81 -66.19,-0.03 -99.28,-0.39 -0.21,-37.69 -0.02,-75.39 -0.09,-113.07 0.12,-8.31 -0.45,-16.63 0.54,-24.9z"/>
   <path class="fil4" d="M999.79 177.05c96.32,4.56 193.01,11.75 287.44,32.35 68.63,14.85 135.66,36.38 201.23,61.33 -4.76,208.76 -9.81,417.53 -15.06,626.27 -1.31,40.72 -0.17,82.3 -12.08,121.72 -7.38,26.89 -20.72,51.52 -33.89,75.93 -13.32,25.46 -30.75,48.6 -50.37,69.55 -41.83,44.56 -89.57,82.99 -137.49,120.74 -73.06,57.89 -156.47,100.58 -239.83,141.4 0.13,-93.71 0.03,-187.4 0.07,-281.11 42.89,-0.24 85.84,0.84 128.68,-1.62 29.24,-2.75 57.86,-10.57 85.27,-20.93 30.24,-11.6 59.24,-27.15 84.23,-47.9 20.1,-16.71 37.42,-37.07 49.05,-60.57 16.01,-30.98 25.85,-65.36 26.86,-100.29 1.1,-32.26 -5.64,-64.73 -19.29,-93.97 -11.91,-25.27 -28.06,-49.22 -50.7,-66.07 -39.84,-30.15 -89.57,-43.89 -138.55,-49.68 26.68,-3.9 52.32,-13.83 75.52,-27.42 23.85,-14.11 44.61,-33.74 58.69,-57.72 18.05,-30.13 26.44,-65.24 28.16,-100.1 2.01,-36.81 -2.75,-74.52 -17.91,-108.35 -17.69,-40.33 -50.09,-74.23 -90.35,-92.38 -40.16,-18.06 -84.27,-25.2 -127.88,-28.7 -30.54,-2.38 -61.2,-1.18 -91.78,-1.46 -0.02,-37.01 0,-74.01 -0.02,-111.02z"/>
  </g>
 </g>
</svg>
