<?xml version="1.0" encoding="UTF-8"?>
<!DOCTYPE svg PUBLIC "-//W3C//DTD SVG 1.1//EN" "http://www.w3.org/Graphics/SVG/1.1/DTD/svg11.dtd">
<!-- Creator: CorelDRAW -->
<svg xmlns="http://www.w3.org/2000/svg" xml:space="preserve" width="2000px" height="1600px" version="1.1" style="shape-rendering:geometricPrecision; text-rendering:geometricPrecision; image-rendering:optimizeQuality; fill-rule:evenodd; clip-rule:evenodd"
viewBox="0 0 2000 1600"
 xmlns:xlink="http://www.w3.org/1999/xlink">
 <defs>
  <style type="text/css">
   <![CDATA[
    .fil2 {fill:black;fill-rule:nonzero}
    .fil4 {fill:#00974D;fill-rule:nonzero}
    .fil3 {fill:#026346;fill-rule:nonzero}
    .fil1 {fill:#B0B0B1;fill-rule:nonzero}
    .fil5 {fill:#C51F3E;fill-rule:nonzero}
    .fil0 {fill:#FEFEFE;fill-rule:nonzero}
   ]]>
  </style>
 </defs>
 <g id="Capa_x0020_1">
  <metadata id="CorelCorpID_0Corel-Layer"/>
  <g id="Binghamton_x0020_Bearcats.cdr">
   <path class="fil0" d="M1524.35 886.24c3,-0.91 6.15,-1.31 9.34,-1.31 23.8,0.03 47.6,0.02 71.4,0.02 6.45,-0.17 13.28,2.83 16.26,8.8 3.13,5.86 1.95,12.89 -0.56,18.76 -14.92,36.02 -29.86,72.05 -44.77,108.08 -5.07,12.8 -16.34,22.68 -29.29,27.07 -5.8,1.94 -12,1.87 -18.02,1.8 -21.01,-0.06 -42.05,0.04 -63.06,-0.03 -6.02,0.02 -12.6,-1.99 -16.11,-7.19 -4.13,-5.79 -3.37,-13.58 -0.75,-19.81 12.96,-31.21 25.87,-62.44 38.82,-93.64 4.12,-9.02 6.59,-19.05 13.13,-26.76 6.1,-7.4 14.4,-13.04 23.61,-15.79zm-87.68 340.13c0.07,-0.55 0.22,-1.63 0.3,-2.18 10.83,7.73 22.23,15.68 35.49,18.4 5.32,1.59 9.91,-2.02 14.8,-3.31 8.65,-0.93 15.05,6.76 18.61,13.72 -9.64,3.86 -20.3,6.45 -30.64,3.91 -16.63,-3.89 -29.54,-16.64 -38.56,-30.54zm30.82 -29.67c-2.42,-2.74 -5.64,-5.08 -6.58,-8.75 15.69,7.64 31.57,17.27 49.62,17.33 6.03,0.2 11.49,-2.58 16.16,-6.05 7.49,4.11 13.61,10.88 15.73,19.3 -9.45,5.15 -20.47,7.72 -31.16,5.5 -17.3,-3.55 -31.66,-15.02 -43.77,-27.33zm20.63 -54.96c0.14,-0.52 0.4,-1.58 0.52,-2.09 16.47,10.9 37.31,15.98 56.68,10.85 9.05,0 18.6,6.37 20.64,15.58 -10.4,3.25 -21.29,6.02 -32.24,4.4 -18.6,-1.99 -35.09,-13.6 -45.6,-28.74zm8.57 -62.89c14.84,8.27 30.18,16.73 47.24,19.18 7.72,1.14 16.47,0.23 22.06,-5.84 6.93,3.85 13.09,9.77 15.4,17.54 -3.45,3.4 -8.49,3.84 -12.95,4.91 -12.01,2.18 -24.94,2.73 -36.35,-2.27 -11.37,-4.78 -20.76,-13.36 -28.07,-23.16 -1.64,-1.87 -2.87,-4.74 -5.77,-4.62 -0.51,-1.93 -1.08,-3.85 -1.56,-5.74zm148.29 -193.81c27.98,-0.19 55.96,-0.08 83.94,-0.06 6.36,27.51 12.69,55.06 19.12,82.56 11.94,-27.33 22.93,-55.08 34.46,-82.59 15.37,0.03 30.72,-0.07 46.08,0.04 -22.79,54.78 -45.46,109.61 -68.14,164.42 -13.29,0.07 -26.58,0.02 -39.88,0.04 -7.44,-30.78 -13.89,-61.81 -21.81,-92.46 -12.46,30.87 -25.54,61.48 -38.04,92.33 -15.38,0.26 -30.78,0.11 -46.16,0.08 15.83,-37.94 31.4,-75.98 47.27,-113.89 16.6,-7.12 33.52,-13.55 49.89,-21.18 -21.16,0.08 -42.34,-0.03 -63.51,0.07 -1.16,-9.78 -2.12,-19.58 -3.22,-29.36zm-298.44 29.36c-1.01,-9.86 -2.67,-19.69 -2.82,-29.6 45.4,0.36 90.8,0.03 136.2,0.16 -3.98,9.83 -8.06,19.63 -12.15,29.41 -14.01,0.01 -28.01,-0.05 -42.02,0.03 -18.5,45.06 -37.26,90.03 -55.89,135.06 -15.31,-0.05 -30.64,0.02 -45.96,-0.03 15.66,-37.97 31.48,-75.89 47.12,-113.87 16.73,-7.09 33.65,-13.75 50.21,-21.19 -24.9,0.01 -49.79,-0.05 -74.69,0.03zm-220.08 -29.47c28.76,0 57.53,0.08 86.29,-0.03 2.62,24.56 4.01,49.25 6.25,73.87 21.43,-23.45 42.8,-46.96 64.11,-70.51 1.48,-1.46 2.77,-3.86 5.29,-3.31 14.58,-0.04 29.17,0.04 43.77,-0.02 -19.67,54.81 -39.78,109.47 -59.29,164.34 -15.41,0.43 -30.84,0.06 -46.26,0.18 10.07,-27.66 20.04,-55.38 30.07,-83.07 -22.77,24.18 -44.72,49.19 -67.18,73.67 -2.66,2.6 -4.59,6.27 -8.18,7.74 -1.89,-27.2 -4.25,-54.36 -6.24,-81.56 -13.29,27.61 -25.95,55.52 -39.01,83.23 -15.32,-0.05 -30.63,0.04 -45.93,-0.05 17.58,-37.95 35.35,-75.82 53.04,-113.73 16.42,-7.38 33.49,-13.39 49.64,-21.33 -21.07,0 -42.12,0.06 -63.17,-0.03 -1.07,-9.8 -2.12,-19.6 -3.2,-29.39zm-318.49 0.2c27.93,-0.43 55.85,-0.04 83.78,-0.2 -7.9,19.69 -16.46,39.13 -24.16,58.92 11.43,-0.16 22.89,0.03 34.32,-0.11 7.87,-19.61 16.33,-38.97 24.08,-58.63 15.4,-0.36 30.82,-0.07 46.23,-0.16 -22.69,54.84 -45.5,109.62 -68.09,164.5 -15.36,0 -30.71,0 -46.06,0 10.49,-25.41 21.08,-50.79 31.54,-76.23 -11.6,0.15 -23.2,-0.41 -34.79,0.3 -9.88,25.44 -20.91,50.44 -31.01,75.8 -15.38,0.28 -30.78,0.06 -46.16,0.13 15.68,-37.96 31.43,-75.88 47.14,-113.84 16.56,-7.27 33.56,-13.55 49.92,-21.24 -21.16,0.01 -42.33,-0.04 -63.5,0.03 -1.07,-9.76 -1.98,-19.54 -3.24,-29.27zm-149.54 30.25c6.51,-18.12 25.29,-31.91 44.85,-30.45 31.39,0.11 62.79,-0.12 94.18,0.1 -5.29,12.81 -10.63,25.59 -15.91,38.4 -4.4,-3.1 -8.87,-6.03 -13.28,-9.06 -21.13,0 -42.26,-0.02 -63.4,0 -13.04,31.47 -26.09,62.96 -39.1,94.45 -2.22,4.03 -1.11,10.56 4.28,11.06 8.42,0.45 16.86,-0.07 25.29,0.23 5.02,-11.65 10.03,-23.35 14.52,-35.2 -0.13,-5.87 -1.31,-11.65 -1.77,-17.49 18.41,-0.02 36.83,-0.03 55.24,0 -11.3,27.3 -22.67,54.6 -33.88,81.95 -31.9,0.21 -63.79,-0.02 -95.7,0.11 -6.25,0.08 -13.37,-0.69 -17.7,-5.78 -5.24,-5.61 -4.94,-14.24 -2.06,-20.9 14.75,-35.84 29.67,-71.61 44.44,-107.42zm-194.34 -30.42c5.22,-0.01 10.43,-0.01 15.65,0 19.39,13.13 44.7,15.23 67.08,10.13 -3.9,-2.94 -7.56,-6.22 -10.46,-10.16 3.84,0 7.71,0.02 11.57,0.03 6.46,27.58 12.71,55.23 19.29,82.78 11.64,-27.55 22.84,-55.28 34.46,-82.84 15.3,0.11 30.6,0 45.89,0.08 -22.75,54.88 -45.31,109.84 -68.32,164.62 -13.22,-0.35 -26.47,-0.02 -39.69,-0.2 -7.11,-30.86 -14.26,-61.73 -21.47,-92.55 -12.99,30.79 -25.59,61.75 -38.48,92.58 -15.33,0.02 -30.65,0.03 -45.98,0 15.63,-37.89 31.49,-75.69 46.97,-113.63 16.83,-7.41 33.93,-14.13 50.77,-21.47 -21.36,0.07 -42.73,0 -64.09,0.04 -1.15,-9.8 -2.23,-19.6 -3.19,-29.41zm-90.61 0c27.93,-0.01 55.86,-0.01 83.78,0 -22.59,54.75 -45.58,109.34 -67.85,164.22 -15.42,0.62 -30.85,0.1 -46.28,0.27 15.68,-38.04 31.43,-76.05 47.26,-114.02 16.62,-6.94 33.44,-13.52 49.8,-21.06 -21.18,-0.04 -42.35,0.03 -63.53,-0.02 -1.08,-9.8 -2.05,-19.61 -3.18,-29.39zm635.06 -95.83c2.91,3.16 3.68,7.44 5.07,11.37 1.74,5.24 5.14,9.69 8.14,14.27 -4.51,-2.04 -9.04,-4.78 -11.39,-9.3 -2.99,-4.91 -2.21,-10.91 -1.82,-16.34zm75.83 -0.47c0.19,-0.76 0.61,-2.28 0.81,-3.03 2.02,6.56 2.93,13.96 0.06,20.42 -2.48,5.39 -7.74,8.83 -13.19,10.72 0.1,-0.53 0.3,-1.57 0.4,-2.1 6.89,-6.9 11.96,-16.05 11.92,-26.01zm-623.46 1.78c3.76,-8.54 13.13,-13.48 22.29,-12.75 -4.69,34.61 0.62,73.14 24.8,99.9 0.45,-0.4 1.31,-1.18 1.74,-1.58 0.25,0.73 0.75,2.16 0.98,2.89 0.49,0.69 1.49,2.07 1.99,2.76 -20.82,-7.52 -36.37,-25.29 -46.63,-44.37 -7.18,-14.14 -12.28,-31.7 -5.17,-46.85zm73.29 -9.53c-0.66,-11.79 7.76,-22.45 18.39,-26.67 1.52,-0.42 4.59,-1.23 6.11,-1.63 -4.08,35.21 5.59,71.03 23.52,101.27 0.96,1.83 1.72,3.73 2.27,5.74 -11.44,-7.39 -20.48,-17.89 -28.79,-28.54 -10.82,-14.69 -20.57,-31.54 -21.5,-50.17zm463.98 -34.71c4.22,0.5 8.48,0.83 12.73,1.24 -2.36,8.62 -0.72,17.41 0.49,26.04 -7.02,-7.54 -11.12,-17.29 -13.22,-27.28zm96.54 -3.3c3.52,0.4 7.07,0.71 10.61,0.95 0.18,10.32 -5.02,20.28 -13.08,26.6 -0.23,-2.09 -0.43,-4.18 -0.61,-6.25 0.61,0.88 1.86,2.65 2.49,3.55 1.94,-8.09 3.3,-16.78 0.59,-24.85zm-450.05 -14.44c11.39,0.07 19.5,9.7 23.77,19.28 8.8,20.27 9.18,43.39 4.39,64.74 -2.42,9.68 -5.4,19.48 -10.87,27.91 0.75,-10.99 2.4,-21.91 2.06,-32.93 0.26,-27.42 -6.19,-54.88 -19.35,-79zm77.27 -10.59c9.67,-0.92 17.66,5.92 22.51,13.54 6.91,11.36 9.25,24.95 8.57,38.09 -0.88,20.16 -6.94,40.1 -17.63,57.22 -0.24,-0.65 -0.68,-1.94 -0.92,-2.59 7.28,-24.25 9.4,-50.62 2.24,-75.15 -3.05,-11.15 -8.67,-21.36 -14.77,-31.11zm471.75 -49.47c27.02,-3.85 53.97,-11.14 77.75,-24.81 -26.38,21.09 -59.3,32.8 -92.45,37.77 5.5,-3.58 10.46,-7.92 14.7,-12.96zm-366.33 -30.23c25.71,12.09 52.21,22.64 79.72,29.85 2.67,4.92 6.47,9.15 10.79,12.68 -32.25,-8.74 -64.17,-21.55 -90.51,-42.53zm375.16 10.47c30.57,-4.46 58.71,-18.63 84.27,-35.44 -22.87,25.08 -55.59,38.89 -88.01,46.91 1.39,-3.78 2.68,-7.59 3.74,-11.47zm-384.97 -39.98c27.16,15.37 54.84,30.67 85.11,39.04 -0.12,3.03 0,6.06 0.44,9.06 -31.06,-10.75 -60.23,-27.13 -85.55,-48.1zm385.79 21.96c34.04,-7.67 64.49,-26.83 89.86,-50.37 -20.53,30.72 -54.56,50.39 -89.78,59.54 -0.02,-3.07 -0.03,-6.12 -0.08,-9.17zm-397.4 -55.37c31.45,20.49 63.45,41.24 99.45,52.85 -0.89,2.81 -1.51,5.67 -1.95,8.57 -36.55,-12.92 -69.35,-34.97 -97.5,-61.42zm146.39 -18.17c0.58,-1.46 -0.61,-5.38 2.12,-4.57 1.73,0.93 3.32,2.1 4.93,3.25 -0.52,4.51 0.74,9.58 5.02,11.86 5.65,3.75 13.84,0.97 16.39,-5.23 2.39,0.23 4.77,0.51 7.18,0.83 -2.76,7.92 -10.76,13.85 -19.28,12.94 -9.33,-0.83 -17.22,-9.63 -16.36,-19.08zm199.38 -12.36c6.36,8.55 2.5,21.83 -7.06,26.15 -8.22,4.58 -19.4,0.82 -23.62,-7.44 2.02,-0.69 4.07,-1.39 6.13,-2.09 3.65,4.05 9.85,6.17 14.83,3.22 5.39,-2.55 7.2,-9.52 5.03,-14.82 1.54,-1.67 3.1,-3.35 4.69,-5.02zm-950.71 340.24c45.37,-0.05 90.75,0.02 136.13,-0.03 5.36,-0.12 11.07,1.32 14.77,5.45 5.24,5.41 5.14,13.94 2.45,20.55 -3.08,7.41 -5.95,14.94 -9.28,22.23 -13.09,9.66 -27.33,17.72 -40.42,27.38 4.77,4.73 9.16,9.83 13.79,14.7 4.42,4.26 4.44,11.24 2.37,16.64 -3.58,9.14 -7.55,18.12 -11.19,27.22 -6.57,17.67 -24.65,31.19 -43.83,30.38 -31.72,-0.08 -63.44,0.02 -95.17,-0.05 15.72,-38 31.36,-76.04 47.27,-113.95 16.63,-7.08 33.52,-13.59 49.94,-21.13 -21.23,0.02 -42.46,0.02 -63.68,0.02 -1.01,-9.82 -2.07,-19.61 -3.15,-29.41zm71.61 29.36l0 0c-14.69,35.2 -29.17,70.49 -43.83,105.71 7.86,-0.05 15.73,0.08 23.59,-0.02 7.11,0.03 13.51,-5.27 15.76,-11.85 3.33,-8.07 8.62,-17.5 3.78,-26.09 -5.85,-7.12 -12.6,-13.51 -18.5,-20.6 23.52,-15.78 47.47,-30.94 70.68,-47.17 -17.16,0.1 -34.33,0.08 -51.48,0.02zm724.39 -29.42c23.62,0.14 47.25,-0.05 70.87,0.09 9.4,0.12 18.6,6.22 21.67,15.24 2.27,5.91 0.87,12.31 0.1,18.39 -5.72,43.58 -11.51,87.15 -17.14,130.75 -13.3,0.18 -26.57,0.03 -39.85,0.08 1.83,-12.7 3.23,-25.44 5.12,-38.12 -12.94,0.2 -25.92,-0.4 -38.85,0.31 -4.92,12.7 -10.31,25.23 -15.54,37.81 -15.32,-0.02 -30.65,0.01 -45.98,-0.02 15.78,-37.74 31.19,-75.64 47.07,-113.34 16.44,-8.03 33.89,-14.23 50.68,-21.69 -16.8,-0.13 -33.61,0.05 -50.42,-0.08 4.12,-9.8 8.11,-19.64 12.27,-29.42zm14.49 97.47l0 0c9.91,-0.03 19.84,-0.18 29.75,0.1 3.54,-22.64 6.08,-45.45 9.2,-68.15 -3.7,0.03 -7.36,0.05 -11.03,0.05 -9.28,22.67 -19.07,45.16 -27.92,68zm527.76 -67.74l0 0c-14.12,35.27 -29.03,70.23 -43.44,105.38 11.45,0.05 22.92,0 34.38,0.03 14.65,-35.2 29.19,-70.47 43.82,-105.67 -11.58,0.16 -23.19,-0.35 -34.76,0.26z"/>
   <path class="fil1" d="M1251.01 282.04l18.76 0c1.29,6.48 4.69,12.25 6.73,18.48 10.65,29.64 17.62,61.15 15.98,92.79 85.06,29.32 154.74,96.6 192.53,177.63 -10.41,-3.2 -20.32,-7.81 -30.75,-10.99 3.45,7.64 7.47,15 11.06,22.59 1.44,2.8 2.63,5.9 5.05,8.09 42.51,33.28 77.12,78.07 94.06,129.68 12.58,37.69 13.71,78.65 5.19,117.35 110.12,0.06 220.26,0.08 330.38,-0.02l0 0.83c-7.24,13.41 -12.02,27.98 -18.16,41.92 -29.26,70.65 -58.58,141.3 -87.77,211.99 -1.01,1.46 -1.29,4.6 -3.69,4.29 -36.43,0.05 -72.87,0 -109.3,0.02 -2.62,6.11 -7.52,11.85 -6.64,18.89 1.07,23.21 -5.37,46.79 -18.35,66.08 -2.72,4.35 -7.39,7.89 -7.67,13.38 -3.52,29.72 -21.5,57.51 -47.77,72.07 -4.46,2.6 -10.06,4.11 -12.57,9.08 -15.01,23.14 -40.55,39.56 -68.25,41.77l-20.11 0c-6.89,-1.56 -13.85,-2.92 -20.61,-4.94 -7.02,-2.16 -14.42,-1.08 -21.62,-1.26 -351.99,-0.08 -703.99,0.13 -1055.98,-0.12 17.45,-43.44 35.95,-86.47 53.45,-129.91 -38.2,-0.22 -76.42,-0.02 -114.65,-0.1 11.46,-28.37 23.67,-56.45 34.86,-84.93 -91.72,-0.05 -183.45,0 -275.17,-0.01l0 -1.65c19.74,-45.97 38.3,-92.45 57.74,-138.56 1.25,-3.07 2.81,-6.25 2.24,-9.65 -3.84,-36.38 -7.95,-72.74 -11.67,-109.12 83.77,-0.04 167.54,0 251.31,-0.02 -9.85,-19.66 -12.45,-42.21 -8.74,-63.79 -27.61,-4.51 -50.76,-24.77 -61.89,-50.01 13.93,-0.45 28.28,-2.6 40.28,-10.14 17.59,-10.65 28.08,-29.04 38.64,-46.02 13.74,-22.87 29.4,-45.41 51.31,-61.22 2.79,-2.26 6.45,-3.98 7.72,-7.58 12.49,-32.05 31.98,-61.84 58.55,-83.93 2.75,-8.85 3.84,-18.18 6.46,-27.1 -3.18,2.22 -6.33,4.49 -9.51,6.73 -3.62,-19.06 2.86,-38.4 11.68,-55.14 21.1,-38.39 57.02,-67.41 97.2,-84 44.61,-18.53 95.7,-19.74 141.62,-5.21 3.29,1 6.49,2.47 9.95,2.74 5.39,-0.37 10.54,-2.16 15.74,-3.45 2.91,-18.2 6.55,-36.4 12.73,-53.8 12.55,-2.24 25.45,-1.51 37.93,0.79 36,6.75 69.28,23.46 100.06,42.8 3.36,1.76 6.48,5.35 10.62,4.52 56.19,-9.68 113.8,-10.84 170.42,-4.17 33.17,-30.57 75.1,-53.67 120.62,-57.67zm181.9 939.68c1.36,0.6 2.75,1.23 4.16,1.86l-0.1 0.61c-0.08,0.55 -0.23,1.63 -0.3,2.18 9.02,13.9 21.93,26.65 38.56,30.54 10.34,2.54 21,-0.05 30.64,-3.91 1.28,4.01 1.53,8.84 -2.03,11.8 -7.89,6.9 -19.81,7.54 -29.49,4.59 -13.82,-4.32 -24.93,-14.75 -32.84,-26.58 -4.22,-6.38 -7.47,-13.49 -8.6,-21.09zm23.9 -36.77c0.72,1.9 7.03,0.51 4.1,3 0.94,3.67 4.16,6.01 6.58,8.75 12.11,12.31 26.47,23.78 43.77,27.33 10.69,2.22 21.71,-0.35 31.16,-5.5 0.71,6.68 -2.2,14.02 -8.78,16.6 -13.99,6.6 -29.91,0.27 -41.77,-7.87 -15.02,-10.71 -28.26,-24.96 -35.06,-42.31zm27.72 -47.64c1.39,0.58 2.81,1.14 4.27,1.67l-0.16 0.67c-0.12,0.51 -0.38,1.57 -0.52,2.09 10.51,15.14 27,26.75 45.6,28.74 10.95,1.62 21.84,-1.15 32.24,-4.4 0.49,5.36 -1.81,10.84 -6.24,13.98 -9.11,6.51 -21.29,7.45 -31.85,4.36 -21.72,-6.07 -38.09,-25.58 -43.34,-47.11zm-509.39 -13.29c1.37,-3.52 2.82,-7 4.41,-10.41 4.57,0.23 9.33,-0.53 13.79,0.81 3.38,2.79 -0.57,7.82 -3.7,9.02 -4.71,1.22 -9.7,0.38 -14.5,0.58zm523.11 -39.43c2.9,-0.12 4.13,2.75 5.77,4.62 7.31,9.8 16.7,18.38 28.07,23.16 11.41,5 24.34,4.45 36.35,2.27 4.46,-1.07 9.5,-1.51 12.95,-4.91l0.53 -0.43c-0.05,5.47 0.45,11.8 -3.98,15.88 -7.99,7.82 -20.49,8.09 -30.86,6.3 -23.21,-5.19 -41.27,-24.97 -48.83,-46.89zm-489.71 -295.46c0.59,-0.85 0.49,-4.39 2.25,-2.89 4.81,8.16 10.91,16.4 20.24,19.61 2.33,-2.68 5.22,-4.77 8.48,-6.23 3.22,2.82 6.15,5.93 8.7,9.38 3.37,-3.05 6.78,-6.1 10.1,-9.23 3.58,1.54 6.66,3.94 9.48,6.63 6.4,-5.06 11.62,-11.32 16.58,-17.74 0.04,9.96 -5.03,19.11 -11.92,26.01 -0.1,0.53 -0.3,1.57 -0.4,2.1l-0.07 0.43c-16.49,3.45 -33.81,2.84 -49.94,-2l-0.29 -0.43c-3,-4.58 -6.4,-9.03 -8.14,-14.27 -1.39,-3.93 -2.16,-8.21 -5.07,-11.37zm-525.34 -11.44c13.74,2.97 23.49,15.08 28.33,27.65 3.61,8.83 0.23,18.31 -2.82,26.78 -5.17,14.11 -4.56,30 1.03,43.89 -0.43,0.4 -1.29,1.18 -1.74,1.58 -24.18,-26.76 -29.49,-65.29 -24.8,-99.9zm69.39 -23.45c7.73,-3.4 17.6,-3.5 24.36,2.12 8.78,7.32 12.51,18.89 14.27,29.83 -5.37,8.21 -7.51,18.04 -8.27,27.7 -0.96,15.6 0.43,31.31 3.96,46.54 -0.53,0.02 -1.61,0.07 -2.14,0.08l-0.28 -0.89c-0.55,-2.01 -1.31,-3.91 -2.27,-5.74 -17.93,-30.24 -27.6,-66.06 -23.52,-101.27 -1.52,0.4 -4.59,1.21 -6.11,1.63zm74.43 -18.1c4.43,-5.02 11.09,-7.41 17.65,-7.68 13.16,24.12 19.61,51.58 19.35,79 0.34,11.02 -1.31,21.94 -2.06,32.93 -0.08,0.68 -0.26,2.06 -0.36,2.75 -2.57,-3.56 -3.62,-7.87 -5.39,-11.8 -7.23,-16.51 -17.3,-31.77 -29.75,-44.8 -5.34,-5.42 -6.93,-13.27 -7.87,-20.55 -0.98,-10.46 1.37,-21.8 8.43,-29.85zm427.66 -12.98c9.91,11.77 25.16,17.57 40.04,19.74 2.71,8.07 1.35,16.76 -0.59,24.85 -0.63,-0.9 -1.88,-2.67 -2.49,-3.55 -2.09,-6.07 -4.46,-12.05 -8.07,-17.4 -3.55,1.79 -7.11,3.58 -10.66,5.35 -4.01,-2.8 -7.81,-5.88 -11.35,-9.23 -2.41,3.56 -5.36,6.88 -9.5,8.35 -2.58,-2.37 -5.27,-4.61 -8,-6.76 -2.96,4.21 -6.95,7.47 -10.98,10.61 -4.49,-1.4 -8.65,-3.57 -12.71,-5.89 -4.61,8.32 -6.17,17.89 -5.45,27.32 -0.86,-0.62 -2.57,-1.84 -3.43,-2.44l-0.09 -0.63c-1.21,-8.63 -2.85,-17.42 -0.49,-26.04 11.02,-0.23 22.75,-1.56 31.97,-8.17 5.72,-3.76 9.46,-9.79 11.8,-16.11zm-358.16 28.01c1.39,-14.53 9.88,-30.48 25.42,-33.3 6.1,9.75 11.72,19.96 14.77,31.11 7.16,24.53 5.04,50.9 -2.24,75.15 0.24,0.65 0.68,1.94 0.92,2.59l0.13 0.36c-1.64,2.36 -3.33,4.66 -5.14,6.88 0.55,-22.67 -11.83,-43.59 -27.33,-59.27 -6.81,-5.59 -7.16,-15.41 -6.53,-23.52zm356.88 -57.76c13.33,-7.08 26.36,-14.72 39.73,-21.7 4.3,-0.41 4.05,5.01 2.67,7.66 -3.36,4.74 -9.71,4.86 -14.45,7.46 -9.62,5.15 -18.4,11.72 -26.94,18.46 -11.86,-10.19 -25.7,-17.66 -39.79,-24.33 1.36,-1.47 2.68,-4.52 5.25,-2.7 11.82,3.43 22.81,9.2 33.53,15.15zm151.06 -380.74l0 0c-25.02,10.99 -47.73,26.97 -67.24,46.05 -4.24,0.53 -8.52,-1.08 -12.78,-1.31 -56.96,-6.78 -114.98,-4.24 -171.3,6.5 -28.7,-20.67 -60.48,-37.83 -94.99,-46.38 -10.82,-2.47 -21.87,-4.57 -33.03,-3.9 -4.28,17 -7.77,34.15 -10.74,51.4 -11.07,2.51 -22.14,4.91 -33.21,7.41 -33,-13.06 -69.67,-16.62 -104.56,-10.09 -36.26,6.76 -70.97,23.14 -98.37,47.97 -10.57,9.99 -20.63,21.49 -24.83,35.73 7.93,-6.3 17.64,-9.66 27.48,-11.57 -21,25.59 -34.07,57.48 -37.69,90.35 -27.05,19.57 -45.63,48.65 -58.44,79.03 -2.02,3.94 -2.17,9.38 -6.5,11.66 -22.75,14.56 -39.06,36.77 -53.53,59.11 -10.1,15.13 -19.44,31.01 -32.32,44.02 -8.79,8.72 -19.79,15.27 -31.96,17.84 12.12,16.64 34.13,21.44 53.62,19.99 -4.92,15.94 -7.71,32.91 -5.17,49.55 2.62,19.64 13.29,37.93 29.02,49.96 -89.8,0.03 -179.6,-0.35 -269.38,0.2 3.41,29.02 6.28,58.13 9.51,87.18 1.22,0 3.68,0 4.92,-0.02 -18.68,45 -37.31,90 -55.94,135.02 42.95,0.2 85.89,0.03 128.84,0.08 8.3,-0.1 16.72,0.52 24.93,-1.11 8,-1.27 15.39,-4.69 22.59,-8.23 -1.3,3.1 -2.57,6.19 -3.85,9.33 389.84,0.08 779.65,-0.05 1169.47,0.06 4.33,16.56 14.16,31.53 28.1,41.57 -15.8,-3.63 -30.78,-11.52 -41.21,-24.11 -0.79,17.63 0.71,35.68 7.19,52.26 4.55,12.71 13.06,23.38 22.94,32.38 -17.73,-5.32 -33,-16.67 -45.24,-30.34 -3.24,9.97 -3.5,20.55 -3.22,30.94 -320.79,0.02 -641.59,0.03 -962.37,0 -15.48,37.43 -31.11,74.78 -46.44,112.28 349.54,0.13 699.08,-0.07 1048.62,0.1 14.99,4.62 30.9,8.02 46.64,5.35 22.91,-4.56 43.88,-19.84 53.6,-41.32 11.51,-3.98 22.2,-10.46 30.62,-19.31 13.71,-13.51 21,-32.49 22.56,-51.46 -0.29,-5.01 4.62,-7.63 7.14,-11.33 15.61,-19.47 20.09,-45.53 17.72,-69.86 5.22,-8.42 9.46,-17.47 11.63,-27.18 4.25,-0.03 8.52,-0.03 12.8,0.02 3.91,-8.49 6.61,-17.59 11.24,-25.71 2.2,8.5 3.87,17.15 6.06,25.67 27.6,-0.08 55.23,0.2 82.83,-0.15 30.21,-74.28 61.52,-148.14 91.79,-222.41 -36.35,0.12 -72.7,0 -109.05,0.05 -2.3,5.47 -4.54,10.96 -6.79,16.46 -1.71,-5.41 -2.79,-10.99 -4.15,-16.48 -68.95,0.02 -137.9,0.04 -206.87,0 13.03,-38.86 16.05,-81.51 5.23,-121.26 -14.56,-54.15 -51.15,-100.49 -96.09,-133.06 -12.63,-28.37 -28.04,-55.57 -46.39,-80.67 11.32,4.56 22.53,9.4 33.93,13.76 -34.38,-57.7 -91.43,-99.48 -153.6,-123.12 -4.64,-2.07 -9.93,-2.76 -14.28,-5.3 1.72,-35.73 -2.84,-72.18 -16.3,-105.51 -18.35,-0.35 -36.41,4.79 -53.19,11.91zm-787.44 801.01l0 0c3.25,0 6.5,0 9.75,0.01 -3.35,7.91 -6.57,15.88 -9.93,23.79 -1.63,3.81 -3.02,8.35 -1.1,12.34 4.81,6.25 13.56,6.27 20.72,6.92 13.91,-0.27 28.13,1.32 41.7,-2.51 7,-1.94 13.8,-6.23 16.86,-13.02 4.41,-10.07 8.41,-20.29 12.73,-30.39 0.9,-1.87 1.13,-3.94 1.33,-5.96 -9.78,-2.42 -20.03,-0.52 -30,-1.18 -4.99,11.62 -9.67,23.37 -14.59,35.04 -2.25,6.89 -13.34,9.76 -17.93,3.74 4.19,-10.64 8.72,-21.14 13.09,-31.7 0.95,-1.86 1.14,-3.91 1.31,-5.94 -13.03,-2.43 -26.52,-0.44 -39.75,-1.12 -1.44,3.29 -2.83,6.63 -4.19,9.98zm115.48 0l0 0c3.39,0 6.79,0 10.21,0.01 -4.88,11.79 -9.75,23.57 -14.66,35.34 -1.06,2.22 -2.68,6.2 1.22,6.65 7.6,0.67 15.28,0.04 22.92,0.29 3.58,-8.3 6.94,-16.72 10.46,-25.06 6.34,8.09 11.5,17.06 17.93,25.08 8.4,-0.1 16.82,-0.03 25.23,-0.03 6.39,-15.22 12.63,-30.5 18.99,-45.72 0.98,-2 2.16,-5.65 -1.13,-6.13 -7.67,-0.93 -15.46,-0.13 -23.17,-0.4 -3.08,7.2 -6.11,14.42 -8.96,21.73 -5.74,-6.86 -9.63,-15.28 -15.92,-21.58 -12.84,-0.46 -25.7,0.18 -38.55,-0.31 -1.86,3.21 -3.23,6.68 -4.57,10.13zm120.97 -9.95l0 0c-1.4,3.3 -2.78,6.61 -4.12,9.93 3.4,0 6.79,0.02 10.21,0.05 -5.21,12.43 -10.33,24.88 -15.48,37.32 -1.33,2.16 0.11,4.88 2.73,4.74 8.95,0.44 17.92,0.04 26.89,0.17 6.21,-14.9 12.33,-29.85 18.58,-44.75 0.64,-2.07 2.53,-4.54 0.69,-6.53 -2.47,-1.23 -5.3,-0.88 -7.94,-0.98 -10.52,0.08 -21.05,0.02 -31.56,0.05zm63.78 9.91l0 0c3.27,0.02 6.55,0.02 9.83,0 2.41,13.43 3.1,27.13 5.7,40.51 0.53,0.41 1.6,1.24 2.13,1.66 8.83,0.38 17.71,0 26.57,0.15 13.85,-13.88 27.16,-28.26 40.93,-42.22 2.77,-3.17 6.32,-5.82 7.88,-9.84 -8.66,-0.37 -17.31,-0.09 -25.94,-0.2 -8.74,9.71 -17.41,19.49 -26.21,29.14 -0.73,-8.99 -0.54,-18.12 -2,-27 -0.38,-0.49 -1.13,-1.43 -1.51,-1.91 -11.12,-0.47 -22.26,-0.15 -33.38,-0.13 -1.36,3.26 -2.7,6.54 -4,9.84zm119.14 -9.88l0 0c-1.37,3.32 -2.73,6.63 -4.07,9.98 3.33,-0.05 6.66,-0.1 10.01,-0.13 -4.83,13.01 -10.76,25.61 -15.63,38.6 -0.95,2.35 2.22,3.83 4.16,3.65 19.37,0.2 38.76,0.05 58.14,0.06 5.57,0.19 6.38,-6.51 8.35,-10.34 -12.13,0 -24.26,0 -36.38,0 1.76,-4.28 3.53,-8.55 5.29,-12.81 8.64,-0.23 17.3,0.33 25.92,-0.27 4.33,-1.49 4.99,-6.51 6.75,-10.12 -9.45,-0.02 -18.88,0 -28.31,0 1.17,-2.9 2.34,-5.81 3.51,-8.69 9.3,-0.15 18.62,0.23 27.91,-0.15 4.2,-1.37 4.78,-6.38 6.42,-9.83 -24.02,0.04 -48.05,-0.03 -72.07,0.05zm104.19 0.04l0 0c-1.36,3.28 -2.72,6.56 -4.06,9.88 3.71,0 7.44,0 11.17,0 -5.01,12.41 -10.28,24.72 -15.33,37.14 -1.92,2.3 0.4,4.86 2.83,4.97 8.89,0.42 17.79,0.02 26.69,0.15 3.31,-7.72 6.2,-15.63 9.88,-23.2 6.41,5.98 8.81,14.98 14.27,21.76 0.61,0.33 1.85,0.98 2.47,1.29 10.75,0.4 21.53,0.03 32.28,0.13 -5.55,-7.8 -12.84,-14.38 -17.65,-22.69 11.36,-0.39 21.47,-9.28 22.2,-20.8 -0.22,-6.84 -8.26,-8.47 -13.68,-8.65 -23.68,-0.08 -47.39,-0.12 -71.07,0.02zm121.96 18.51l0 0c-0.57,3.26 0.59,6.81 3.84,8.19 7.96,3.31 16.91,3.53 24.8,7.04 3.05,3.12 -1.46,7.68 -4.83,7.91 -11.75,0.35 -23.52,0.03 -35.27,0.11 -1.31,2.94 -2.65,5.94 -2.7,9.24 2.54,0.76 5.16,1.31 7.86,1.19 14.38,-0.17 28.77,0.12 43.16,-0.13 10.44,-0.57 19.24,-8.65 21.81,-18.6 1.44,-3.56 0.38,-8.55 -3.43,-10.09 -7.87,-3.4 -16.69,-3.83 -24.58,-7.1 -3.4,-2.2 0.35,-5.53 3,-5.78 9.21,-0.57 18.46,0.06 27.7,-0.28 1.35,-3.45 2.76,-6.88 4.22,-10.28 -15.05,0.02 -30.1,-0.08 -45.15,0.03 -10.19,0.17 -18.68,8.84 -20.43,18.55zm98.5 -18.41l0 0c-1.24,3.29 -2.54,6.58 -3.86,9.84 3.33,-0.05 6.66,-0.1 10.01,-0.13 -5.09,13.41 -10.96,26.5 -16.28,39.83 0.8,0.54 2.35,1.67 3.15,2.24 9.2,0.51 18.48,0.39 27.71,0.01 6.4,-16.81 14.08,-33.12 20.24,-50 -3.31,-2.57 -7.56,-1.93 -11.44,-1.99 -9.84,0.16 -19.7,-0.22 -29.53,0.2zm67.95 -0.1l0 0c-1.32,3.28 -2.66,6.56 -3.96,9.88 7.08,0.01 14.16,-0.02 21.25,0.03 -4.97,12.03 -9.96,24.08 -14.96,36.11 -0.8,1.71 -1.94,5.03 0.84,5.59 9.3,1.28 18.85,0.16 28.26,0.55 6.02,-14.08 11.62,-28.31 17.7,-42.35 5.94,-0.04 11.92,0.38 17.85,-0.13 3.95,-1.6 4.54,-6.35 6.25,-9.73 -24.41,-0.02 -48.81,-0.1 -73.23,0.05zm95.03 9.61l0 0c4.04,0.33 8.12,0.33 12.21,0.27 3.78,7.22 7.68,14.4 11.29,21.72 -1.91,4.58 -3.86,9.14 -5.77,13.71 -1.22,2.22 -2.35,6.32 1.51,6.6 9.17,0.53 18.38,0.18 27.58,0.13 2.78,-6.76 5.04,-13.84 8.6,-20.22 10.64,-9.33 21.58,-18.35 32.37,-27.53 1.34,-1.18 2.36,-2.6 3.02,-4.29 -9.05,-0.17 -18.1,-0.02 -27.15,-0.09 -6.28,6.19 -12.48,12.47 -18.71,18.68 -2.59,-5.53 -4.76,-11.27 -7.61,-16.64 -1.39,-2.37 -4.38,-1.97 -6.66,-2.05 -8.87,0.08 -17.72,-0.09 -26.59,0.13 -1.28,3.21 -2.67,6.4 -4.09,9.58z"/>
   <path class="fil2" d="M940.58 1103.8c23.68,-0.14 47.39,-0.1 71.07,-0.02 5.42,0.18 13.46,1.81 13.68,8.65 -0.73,11.52 -10.84,20.41 -22.2,20.8 4.81,8.31 12.1,14.89 17.65,22.69 -10.75,-0.1 -21.53,0.27 -32.28,-0.13 -0.62,-0.31 -1.86,-0.96 -2.47,-1.29 -5.46,-6.78 -7.86,-15.78 -14.27,-21.76 -3.68,7.57 -6.57,15.48 -9.88,23.2 -8.9,-0.13 -17.8,0.27 -26.69,-0.15 -2.43,-0.11 -4.75,-2.67 -2.83,-4.97 5.05,-12.42 10.32,-24.73 15.33,-37.14 -3.73,0 -7.46,0 -11.17,0 1.34,-3.32 2.7,-6.6 4.06,-9.88zm-397.11 154.85c2.27,-5.98 4.76,-11.86 7.27,-17.73 4.46,-0.02 8.96,-0.35 13.4,0.3 2.27,0.38 3.56,2.71 2.43,4.79 -1.54,3.73 -2.48,8.15 -5.58,10.94 -5.36,2.9 -11.72,1.45 -17.52,1.7zm588.86 -15c6.17,-8.4 11.94,-17.17 18.86,-24.96 0.09,8.26 -0.59,16.49 -0.73,24.76 -6.03,0.65 -12.09,0.32 -18.13,0.2zm-353.72 -0.06c5.95,-8.64 12.15,-17.14 18.8,-25.26 -0.15,8.45 -0.53,16.92 -1.03,25.37 -5.93,0.14 -11.85,0.2 -17.77,-0.11zm-217.7 -27.45c5.22,0.18 10.88,-1.21 15.82,1.01 1.61,3.27 -0.81,7.18 -3.31,9.27 -5.3,2.85 -11.62,1.27 -17.35,1.55 1.6,-3.94 3.23,-7.89 4.84,-11.83zm356.85 -0.52c5.48,-0.14 11,0.04 16.41,1.15 1.72,5.78 -2.52,12.28 -8.47,13.08 -4.61,0.56 -9.25,0.21 -13.86,0.21 1.97,-4.82 3.96,-9.63 5.92,-14.44zm792.2 -103.83c1.42,0.09 2.88,0.21 4.36,0.33 1.87,5.73 3.44,11.58 5.65,17.23 1.72,-5.78 3.26,-11.63 5.48,-17.25 1.06,-0.05 3.19,-0.13 4.25,-0.18 0,7.62 0,15.23 0,22.85l-2.89 0.09c-0.08,-5.64 0,-11.26 0.02,-16.88 -2.44,5.34 -3.56,11.13 -5.65,16.58l-2.14 0.56c-3.02,-5.57 -4.19,-11.98 -5.74,-18.08 -0.79,5.82 -0.66,11.68 -0.56,17.55 -0.68,0.15 -2.04,0.45 -2.73,0.6 -0.37,-7.79 -0.29,-15.62 -0.05,-23.4zm-18.22 0.14c5.19,0.12 10.39,0.09 15.6,0.07 -0.02,0.63 -0.07,1.89 -0.08,2.52 -2.36,-0.02 -4.68,-0.02 -6.98,-0.02 -0.02,6.82 0.05,13.64 -0.07,20.47 -0.71,-0.08 -2.14,-0.23 -2.85,-0.29 0.02,-6.72 0,-13.41 0.02,-20.09 -2.49,-0.05 -4.93,-0.17 -7.31,-0.68 0.43,-0.5 1.26,-1.48 1.67,-1.98zm-367.72 1.48c1.42,-3.18 2.81,-6.37 4.09,-9.58 8.87,-0.22 17.72,-0.05 26.59,-0.13 2.28,0.08 5.27,-0.32 6.66,2.05 2.85,5.37 5.02,11.11 7.61,16.64 6.23,-6.21 12.43,-12.49 18.71,-18.68 9.05,0.07 18.1,-0.08 27.15,0.09 -0.66,1.69 -1.68,3.11 -3.02,4.29 -10.79,9.18 -21.73,18.2 -32.37,27.53 -3.56,6.38 -5.82,13.46 -8.6,20.22 -9.2,0.05 -18.41,0.4 -27.58,-0.13 -3.86,-0.28 -2.73,-4.38 -1.51,-6.6 1.91,-4.57 3.86,-9.13 5.77,-13.71 -3.61,-7.32 -7.51,-14.5 -11.29,-21.72 -4.09,0.06 -8.17,0.06 -12.21,-0.27zm-95.03 -9.61c24.42,-0.15 48.82,-0.07 73.23,-0.05 -1.71,3.38 -2.3,8.13 -6.25,9.73 -5.93,0.51 -11.91,0.09 -17.85,0.13 -6.08,14.04 -11.68,28.27 -17.7,42.35 -9.41,-0.39 -18.96,0.73 -28.26,-0.55 -2.78,-0.56 -1.64,-3.88 -0.84,-5.59 5,-12.03 9.99,-24.08 14.96,-36.11 -7.09,-0.05 -14.17,-0.02 -21.25,-0.03 1.3,-3.32 2.64,-6.6 3.96,-9.88zm-67.95 0.1c9.83,-0.42 19.69,-0.04 29.53,-0.2 3.88,0.06 8.13,-0.58 11.44,1.99 -6.16,16.88 -13.84,33.19 -20.24,50 -9.23,0.38 -18.51,0.5 -27.71,-0.01 -0.8,-0.57 -2.35,-1.7 -3.15,-2.24 5.32,-13.33 11.19,-26.42 16.28,-39.83 -3.35,0.03 -6.68,0.08 -10.01,0.13 1.32,-3.26 2.62,-6.55 3.86,-9.84zm-98.5 18.41c1.75,-9.71 10.24,-18.38 20.43,-18.55 15.05,-0.11 30.1,-0.01 45.15,-0.03 -1.46,3.4 -2.87,6.83 -4.22,10.28 -9.24,0.34 -18.49,-0.29 -27.7,0.28 -2.65,0.25 -6.4,3.58 -3,5.78 7.89,3.27 16.71,3.7 24.58,7.1 3.81,1.54 4.87,6.53 3.43,10.09 -2.57,9.95 -11.37,18.03 -21.81,18.6 -14.39,0.25 -28.78,-0.04 -43.16,0.13 -2.7,0.12 -5.32,-0.43 -7.86,-1.19 0.05,-3.3 1.39,-6.3 2.7,-9.24 11.75,-0.08 23.52,0.24 35.27,-0.11 3.37,-0.23 7.88,-4.79 4.83,-7.91 -7.89,-3.51 -16.84,-3.73 -24.8,-7.04 -3.25,-1.38 -4.41,-4.93 -3.84,-8.19zm-226.15 -18.55c24.02,-0.08 48.05,-0.01 72.07,-0.05 -1.64,3.45 -2.22,8.46 -6.42,9.83 -9.29,0.38 -18.61,0 -27.91,0.15 -1.17,2.88 -2.34,5.79 -3.51,8.69 9.43,0 18.86,-0.02 28.31,0 -1.76,3.61 -2.42,8.63 -6.75,10.12 -8.62,0.6 -17.28,0.04 -25.92,0.27 -1.76,4.26 -3.53,8.53 -5.29,12.81 12.12,0 24.25,0 36.38,0 -1.97,3.83 -2.78,10.53 -8.35,10.34 -19.38,-0.01 -38.77,0.14 -58.14,-0.06 -1.94,0.18 -5.11,-1.3 -4.16,-3.65 4.87,-12.99 10.8,-25.59 15.63,-38.6 -3.35,0.03 -6.68,0.08 -10.01,0.13 1.34,-3.35 2.7,-6.66 4.07,-9.98zm-119.14 9.88c1.3,-3.3 2.64,-6.58 4,-9.84 11.12,-0.02 22.26,-0.34 33.38,0.13 0.38,0.48 1.13,1.42 1.51,1.91 1.46,8.88 1.27,18.01 2,27 8.8,-9.65 17.47,-19.43 26.21,-29.14 8.63,0.11 17.28,-0.17 25.94,0.2 -1.56,4.02 -5.11,6.67 -7.88,9.84 -13.77,13.96 -27.08,28.34 -40.93,42.22 -8.86,-0.15 -17.74,0.23 -26.57,-0.15 -0.53,-0.42 -1.6,-1.25 -2.13,-1.66 -2.6,-13.38 -3.29,-27.08 -5.7,-40.51 -3.28,0.02 -6.56,0.02 -9.83,0zm-63.78 -9.91c10.51,-0.03 21.04,0.03 31.56,-0.05 2.64,0.1 5.47,-0.25 7.94,0.98 1.84,1.99 -0.05,4.46 -0.69,6.53 -6.25,14.9 -12.37,29.85 -18.58,44.75 -8.97,-0.13 -17.94,0.27 -26.89,-0.17 -2.62,0.14 -4.06,-2.58 -2.73,-4.74 5.15,-12.44 10.27,-24.89 15.48,-37.32 -3.42,-0.03 -6.81,-0.05 -10.21,-0.05 1.34,-3.32 2.72,-6.63 4.12,-9.93zm-120.97 9.95c1.34,-3.45 2.71,-6.92 4.57,-10.13 12.85,0.49 25.71,-0.15 38.55,0.31 6.29,6.3 10.18,14.72 15.92,21.58 2.85,-7.31 5.88,-14.53 8.96,-21.73 7.71,0.27 15.5,-0.53 23.17,0.4 3.29,0.48 2.11,4.13 1.13,6.13 -6.36,15.22 -12.6,30.5 -18.99,45.72 -8.41,0 -16.83,-0.07 -25.23,0.03 -6.43,-8.02 -11.59,-16.99 -17.93,-25.08 -3.52,8.34 -6.88,16.76 -10.46,25.06 -7.64,-0.25 -15.32,0.38 -22.92,-0.29 -3.9,-0.45 -2.28,-4.43 -1.22,-6.65 4.91,-11.77 9.78,-23.55 14.66,-35.34 -3.42,-0.01 -6.82,-0.01 -10.21,-0.01zm-115.48 0c1.36,-3.35 2.75,-6.69 4.19,-9.98 13.23,0.68 26.72,-1.31 39.75,1.12 -0.17,2.03 -0.36,4.08 -1.31,5.94 -4.37,10.56 -8.9,21.06 -13.09,31.7 4.59,6.02 15.68,3.15 17.93,-3.74 4.92,-11.67 9.6,-23.42 14.59,-35.04 9.97,0.66 20.22,-1.24 30,1.18 -0.2,2.02 -0.43,4.09 -1.33,5.96 -4.32,10.1 -8.32,20.32 -12.73,30.39 -3.06,6.79 -9.86,11.08 -16.86,13.02 -13.57,3.83 -27.79,2.24 -41.7,2.51 -7.16,-0.65 -15.91,-0.67 -20.72,-6.92 -1.92,-3.99 -0.53,-8.53 1.1,-12.34 3.36,-7.91 6.58,-15.88 9.93,-23.79 -3.25,-0.01 -6.5,-0.01 -9.75,-0.01zm-176.88 -101.74c5.32,-12.12 9.96,-24.53 15.41,-36.58 4.69,5.4 13.86,10.82 9.98,19.21 -2.82,6.03 -3.76,14.35 -10.44,17.44 -4.88,0.97 -10.08,1.02 -14.95,-0.07zm782.48 -37.13c5.59,-13.59 10.63,-27.49 17.19,-40.64 -0.71,13.64 -3.35,27.1 -4.87,40.66 -4.11,0.05 -8.22,0.05 -12.32,-0.02zm521.59 -52.6c6.15,-0.7 12.33,-0.34 18.51,-0.37 -12.41,30.3 -24.96,60.53 -37.57,90.75 -5.98,-0.02 -11.97,0.01 -17.95,0 11.93,-30.29 25.11,-60.09 37.01,-90.38zm-1266.68 -0.34c7.26,-0.06 14.52,-0.2 21.76,0.12 -9.64,6.53 -19.19,13.29 -29.35,18.99 2.07,-6.54 5.05,-12.74 7.59,-19.11zm770.92 -437.78c2.87,-20.17 11.65,-42.08 31.04,-51.48 -8,13.06 -13.54,27.86 -13.64,43.34 -0.63,15.99 4.26,31.46 10.56,45.95 -11.32,3.79 -21.13,11.53 -26.62,22.22 -3.63,-19.74 -4.06,-40.14 -1.34,-60.03zm156.01 -171.42c16.78,-7.12 34.84,-12.26 53.19,-11.91 13.46,33.33 18.02,69.78 16.3,105.51 4.35,2.54 9.64,3.23 14.28,5.3 62.17,23.64 119.22,65.42 153.6,123.12 -11.4,-4.36 -22.61,-9.2 -33.93,-13.76 18.35,25.1 33.76,52.3 46.39,80.67 44.94,32.57 81.53,78.91 96.09,133.06 10.82,39.75 7.8,82.4 -5.23,121.26 68.97,0.04 137.92,0.02 206.87,0 1.36,5.49 2.44,11.07 4.15,16.48 2.25,-5.5 4.49,-10.99 6.79,-16.46 36.35,-0.05 72.7,0.07 109.05,-0.05 -30.27,74.27 -61.58,148.13 -91.79,222.41 -27.6,0.35 -55.23,0.07 -82.83,0.15 -2.19,-8.52 -3.86,-17.17 -6.06,-25.67 -4.63,8.12 -7.33,17.22 -11.24,25.71 -4.28,-0.05 -8.55,-0.05 -12.8,-0.02 -2.17,9.71 -6.41,18.76 -11.63,27.18 2.37,24.33 -2.11,50.39 -17.72,69.86 -2.52,3.7 -7.43,6.32 -7.14,11.33 -1.56,18.97 -8.85,37.95 -22.56,51.46 -8.42,8.85 -19.11,15.33 -30.62,19.31 -9.72,21.48 -30.69,36.76 -53.6,41.32 -15.74,2.67 -31.65,-0.73 -46.64,-5.35 -349.54,-0.17 -699.08,0.03 -1048.62,-0.1 15.33,-37.5 30.96,-74.85 46.44,-112.28 320.78,0.03 641.58,0.02 962.37,0 -0.28,-10.39 -0.02,-20.97 3.22,-30.94 12.24,13.67 27.51,25.02 45.24,30.34 -9.88,-9 -18.39,-19.67 -22.94,-32.38 -6.48,-16.58 -7.98,-34.63 -7.19,-52.26 10.43,12.59 25.41,20.48 41.21,24.11 -13.94,-10.04 -23.77,-25.01 -28.1,-41.57 -389.82,-0.11 -779.63,0.02 -1169.47,-0.06 1.28,-3.14 2.55,-6.23 3.85,-9.33 -7.2,3.54 -14.59,6.96 -22.59,8.23 -8.21,1.63 -16.63,1.01 -24.93,1.11 -42.95,-0.05 -85.89,0.12 -128.84,-0.08 18.63,-45.02 37.26,-90.02 55.94,-135.02 -1.24,0.02 -3.7,0.02 -4.92,0.02 -3.23,-29.05 -6.1,-58.16 -9.51,-87.18 89.78,-0.55 179.58,-0.17 269.38,-0.2 -15.73,-12.03 -26.4,-30.32 -29.02,-49.96 -2.54,-16.64 0.25,-33.61 5.17,-49.55 -19.49,1.45 -41.5,-3.35 -53.62,-19.99 12.17,-2.57 23.17,-9.12 31.96,-17.84 12.88,-13.01 22.22,-28.89 32.32,-44.02 14.47,-22.34 30.78,-44.55 53.53,-59.11 4.33,-2.28 4.48,-7.72 6.5,-11.66 12.81,-30.38 31.39,-59.46 58.44,-79.03 3.62,-32.87 16.69,-64.76 37.69,-90.35 -9.84,1.91 -19.55,5.27 -27.48,11.57 4.2,-14.24 14.26,-25.74 24.83,-35.73 27.4,-24.83 62.11,-41.21 98.37,-47.97 34.89,-6.53 71.56,-2.97 104.56,10.09 11.07,-2.5 22.14,-4.9 33.21,-7.41 2.97,-17.25 6.46,-34.4 10.74,-51.4 11.16,-0.67 22.21,1.43 33.03,3.9 34.51,8.55 66.29,25.71 94.99,46.38 56.32,-10.74 114.34,-13.28 171.3,-6.5 4.26,0.23 8.54,1.84 12.78,1.31 19.51,-19.08 42.22,-35.06 67.24,-46.05zm-60.49 76.93l0 0c-4.05,5.63 -9.14,10.79 -11.49,17.42 6.7,1.67 13.08,4.31 19.26,7.34 4.44,2.82 9.7,5.1 12.5,9.79 -20.87,-5.98 -43.3,-5.28 -64.3,-0.44 -1.97,-0.14 -3.91,0.61 -5.81,0.89 3.83,-10.64 9.51,-20.45 15.3,-30.13 4.25,-6.46 8.6,-12.88 13.17,-19.14 -26.42,-6.8 -56.04,-8.95 -80.98,3.97 -23.36,-9.92 -49.86,-7.44 -73.71,-0.71 2.99,4.89 7.21,8.84 10.69,13.38 7.13,8.93 13.79,18.23 19.64,28.06 -2.4,-0.23 -4.8,-0.78 -7.21,-0.62 -15.11,-3.05 -31.01,-2.4 -46.02,0.93 -0.37,-0.46 -1.11,-1.42 -1.48,-1.9 5.06,-3.4 10.13,-6.83 15.02,-10.51 -25.41,-41.22 -70.28,-68.9 -117.7,-76.63 -5.75,24.58 -9.51,49.69 -9.94,74.95 -0.17,12.57 3.56,26.09 14,33.96 1.43,17.67 4.79,38.38 20.49,49.22 3.38,-8.41 7.36,-16.6 10.41,-25.11l-0.25 -1.51c-8.57,-10.46 -15.02,-22.56 -19.06,-35.47 -8.32,-26.21 -6.87,-54.55 -0.22,-80.95 2.14,1.49 4.23,3.03 6.33,4.57l0.38 -0.02c20.61,17.67 39.88,37.51 53.08,61.45 -4.64,-1.56 -7.74,-5.72 -11.97,-8.03 -8.19,-4.9 -17.27,-9.04 -26.89,-9.81 7.56,7.91 14.69,16.41 19.78,26.12 -6.9,-2.08 -13.96,-3.84 -21.22,-3.71 8.54,5.98 16.96,12.33 23.06,20.95 7.41,-4.66 15.13,-8.83 23.35,-11.87 0.57,1.5 1.1,2.99 1.63,4.5 -20.56,15.34 -35.08,38.61 -39.52,63.92 11.21,-16.31 22.28,-33.64 38.95,-44.95 -6.54,14.08 -11.67,29.04 -12.74,44.64 -1.43,15.81 2.53,32.15 11.9,45.06 4.8,-6.14 10.66,-11.28 16.95,-15.87 18.45,19.95 46.45,27.18 72.75,28.17 4.11,10.59 10.18,20.86 19.92,26.99 -3.26,14.98 -4.72,32.15 4.97,45.18 -7.26,-0.76 -14.61,-3.76 -19.04,-9.8 -4.52,-5.75 -5.73,-13.19 -6.31,-20.27 -5.16,-5.58 -10.41,-11.1 -15.45,-16.79 -6.38,5.66 -14.07,10.38 -22.87,10.31 -11.31,1.21 -22.86,-4.52 -28.43,-14.47 -2.47,-3.34 -2.6,-8.17 -5.9,-10.87 -1.14,5.42 -2.24,11.32 0.11,16.61 1.96,5.24 6.67,8.57 10.35,12.54 -8.61,-0.29 -17.42,-2.17 -25.84,0.5 -7.21,1.91 -13.38,6.43 -18.05,12.17 -4.1,-9.45 0.36,-20.19 8.52,-25.79 -8.97,-7.84 -17.39,-16.58 -22.74,-27.38 -2.87,3.43 -3.8,7.92 -5.07,12.1 -3.62,12.76 -3.98,26.13 -3.3,39.31 -4.71,-2.48 -7.3,-7.44 -10.31,-11.62 -13.03,-21.11 -15.4,-46.72 -14.87,-70.99 -9.5,-7.12 -15.7,-17.48 -21.53,-27.58 -4.39,3.58 -9.27,7.36 -15.2,7.51 -11.3,1.01 -21.55,-5.55 -29.49,-12.94 -0.41,6.11 1.96,11.93 3.58,17.71 8.84,27.83 26.59,51.8 46.78,72.47 -2.55,-0.71 -5.07,-1.51 -7.34,-2.87 -14.51,-8.2 -26.62,-19.92 -37.94,-32.02 -3.77,-3.91 -6.83,-8.49 -11.13,-11.88 -1.19,34.34 4.99,69.36 20.79,100.09 17.47,33.79 46.16,62.14 80.98,77.73 -5.72,3.82 -12.1,6.6 -17.48,10.94 -12.27,9.1 -22.03,23.26 -21.98,39 13.31,-9.97 29.42,-15.74 45.86,-17.73 16.57,-2.32 33.32,-0.58 49.84,1.28 -8.37,-8.49 -19.99,-12.52 -31.56,-14.13 6.7,-3.13 14.46,-2.6 21.7,-3.13 10.64,-0.51 21.59,4.05 27.53,13.11 11.65,17.57 14.24,39 19.11,59.04 4.72,19.09 13.99,39 31.87,48.98 13.54,7.95 29.79,8.2 44.99,6.89 13.31,-1.69 26.93,-5.48 37.27,-14.42 12.91,-10.82 19.08,-27.28 23.37,-43.07 4.56,-15.6 6.13,-32.39 14.84,-46.48 11.09,-19.06 31.37,-31.72 52.95,-35.22 1.01,0.18 3.02,0.56 4.01,0.76 -10.74,5.24 -20.53,12.96 -26.76,23.27 29.78,-7.14 62.86,-10.54 91.24,3.5 -0.2,-1.06 -0.63,-3.15 -0.85,-4.19l-0.69 -0.29c-7.25,-15.74 -21.88,-27.06 -37.76,-33.24 5.55,-2.84 11.49,-4.84 16.99,-7.83 26.78,-13.17 48.56,-35.57 62.25,-62 16.38,-31.81 22.91,-68.09 22.03,-103.68 -4.19,2.17 -7.59,5.59 -11.77,7.76 -10.42,5.75 -22.39,8.6 -34.27,8.25 3.08,-3.86 7.34,-6.53 10.67,-10.14 13.76,-14.42 23.22,-32.78 27.85,-52.13 -6.87,3.48 -14.11,6.53 -21.85,7.2 -10.77,1.32 -21.63,-2.55 -29.9,-9.4l-0.51 -1.66c-4.48,8.14 -9.09,16.2 -14.39,23.85 3.43,15.7 3.75,32.12 0.56,47.9 -4.12,20.87 -14.42,40.16 -28.14,56.29 0.21,-6.65 2.59,-13.03 2.47,-19.71 0.31,-12.86 -1.51,-26.85 -9.17,-37.49 -4.97,9.63 -12.15,17.89 -19.95,25.33 7.49,6.31 14.25,15.58 11.67,25.97 -4.2,-3.41 -7.89,-7.69 -13.15,-9.48 -12.48,-5.11 -26.14,-3.35 -39.2,-2.77 5.41,-2.82 11.41,-4.97 15.57,-9.66 8.32,-8.12 7.64,-21.98 1.77,-31.29 -0.38,5.91 0.23,12.08 -2,17.71 -3.4,9.73 -12.87,16.35 -22.8,18 -7.84,1.61 -15.59,-0.74 -22.54,-4.24 -3.18,5.32 -8.25,8.93 -13.7,11.6 -3.49,16.25 -16.88,28.68 -32.32,33.75 0.21,-0.83 0.64,-2.5 0.86,-3.33 11.27,-11.47 10.46,-29.31 7.46,-43.94 8.22,-5.11 13.11,-13.96 16.02,-22.92 27.5,-8.39 51.87,-24.57 73.83,-42.73 5.3,3.89 9.64,8.83 14.25,13.47 0.25,-0.03 0.76,-0.13 1.01,-0.16 9.35,-18.77 9.58,-40.81 4.58,-60.85 12.36,9.41 19.82,23.37 29.28,35.34 -1.6,-12.55 -3.76,-25.23 -9.24,-36.73 -7.16,-16.06 -20.59,-29.36 -37.11,-35.6 7.01,-0.3 13.55,2.45 20.32,3.79 7.04,-8.07 13.92,-16.59 21.49,-24.31 -7.94,1.67 -15.51,4.64 -23.37,6.64 6.33,-9.64 14.59,-17.77 21.83,-26.7 -10.95,1.34 -20.17,8.4 -30.68,11.06 12.03,-18.14 26.62,-34.48 43,-48.8 1.97,-0.51 3.21,-2.37 4.94,-3.38 2.6,7.9 3.41,16.29 3.49,24.58 0.4,26.78 -7.09,52.94 -16.59,77.73 5.29,6.1 9.63,12.93 13.81,19.81 10.76,-12.46 11.3,-30.07 12,-45.71 11.43,-9.17 14.34,-24.75 14.4,-38.62 0.12,-22.33 -4.67,-44.37 -10.72,-65.77 -40.16,13.11 -75.43,39.53 -101.85,72.27zm-507.55 9.31l0 0c-6.18,3.17 -12.76,5.85 -18.12,10.36 8.09,-0.93 16.36,-0.23 24.1,2.4 -2.93,3.5 -7.67,4.6 -11.3,7.16 -31.99,19.16 -52.76,54.05 -57.6,90.68 13.06,-3.91 26.47,-6.59 40.06,-7.75 12.45,-0.6 25.08,0.39 36.9,4.62 -1.11,0.66 -2.22,1.31 -3.33,1.97 -28.84,3.2 -57.24,12.83 -81.32,29.19 -21.21,14.79 -39.76,35.17 -47.77,60.17 14.21,-4.26 29.09,-6.6 43.93,-5.42 7.14,0.91 14.15,2.68 20.86,5.28 -1.14,0.8 -2.28,1.6 -3.43,2.39 -34.49,5.92 -67.77,20.79 -93.99,44.16 -19.11,16.59 -33.83,37.4 -48,58.19 -7.94,11.17 -15.63,23.22 -27.62,30.5 21.12,-1.74 37.91,-16.01 55.1,-26.9 -9.58,14.76 -20.9,29 -25.74,46.26l-0.5 0.23c-1.86,8.55 -1.51,18.64 5.11,25.17 7.57,-16.22 26.12,-26.8 43.97,-23.43 4.04,0.43 9.99,2.2 12.5,-2.17 4.55,-16.94 8.75,-35.84 22.42,-47.95 0.13,3.68 0.28,7.37 0.76,11.04 0.09,2.23 0.27,4.47 0.52,6.69 1.52,5.21 1.54,12.08 5.53,15.83 3.72,-2.1 6.4,-5.72 10.2,-7.79 14.4,-9.36 33.08,-11.4 49.14,-5.22 4.23,-9.4 2.95,-20.14 -0.35,-29.6 -0.38,-1.89 -1.79,-4.1 -0.23,-5.87 6.63,3.33 11.85,8.64 16.41,14.37l-0.27 0.28c3.47,4.01 6.05,9.28 11.06,11.62 2.73,-0.35 4.82,-2.44 7.18,-3.7 11.91,-7.37 26.78,-12.18 40.64,-7.75 -0.37,-9.95 -2.06,-20.02 -6.52,-29.01 -2.55,-5.75 -7.14,-10.23 -10.02,-15.79 14.81,8.18 27.73,19.74 37.16,33.83 2.22,3.84 4.32,7.75 6.36,11.7 6.46,-5.41 14.47,-9.15 22.97,-9.48 13.89,-0.8 27.07,4.46 39.88,9.06 3.33,1.38 7.43,2.06 10.33,-0.64 3.61,-4.08 2.87,-10.33 0.46,-14.85 -5.32,-10.56 -13.81,-19.25 -23.17,-26.33 -23.55,-17.51 -54.98,-23.42 -83.45,-16.75 -5.01,1.26 -10.11,2.67 -14.32,5.77 -1.58,0.64 -3.14,1.37 -4.64,2.15 0.54,0.65 1.65,1.94 2.2,2.59 -5.5,-1.74 -9.7,-6.02 -15.12,-7.94 -13.4,-5.69 -30.29,-2.29 -40.19,8.45 -3.65,3.35 -7.04,7.49 -7.99,12.48 -6.71,-4.19 -13.74,-8.8 -22.01,-8.52 -7.87,0.08 -15.66,2.98 -21.6,8.17l-1.79 -0.53c6.65,-15.73 25.16,-25.87 41.82,-20.02 7.81,-10.04 19.36,-16.91 31.78,-19.52 11.36,-2.54 23.12,-0.8 34.12,2.55 7.26,-5.16 15.83,-7.86 24.53,-9.37 -3.1,-4.44 -8.18,-6.79 -12.73,-9.46 -11.32,-5.85 -23.48,-9.98 -35.85,-12.93 0.17,-0.48 0.53,-1.41 0.72,-1.89 15.56,-5.9 32.96,-5.37 49.09,-2.17 12.56,2.22 25.09,5.9 37.97,5.17 7.34,-0.3 13.38,-5.82 16.48,-12.15 7.29,-15.66 5.81,-34.75 -3.2,-49.42 -6.47,-11.92 -17.06,-20.57 -26.9,-29.52 23.6,-2.14 46.11,9.23 63.46,24.41 -0.71,-9.26 -6.81,-17.02 -13.11,-23.4 -17.39,-16.61 -40.31,-26.32 -63.45,-31.79 12.1,-4.2 22.38,-13.25 27.78,-24.88 7.74,-15.76 7.3,-33.91 5.29,-50.92 17.6,-4.82 36.68,-4.34 53.9,1.73 -10.57,9.81 -22.09,20 -26.62,34.24 7.03,-4.33 13.69,-9.23 21.08,-12.95 17.09,-9.36 35.79,-15.08 54.04,-21.67 0.23,-7.08 0.33,-14.18 0.46,-21.25 -13.09,1.6 -25.42,6.84 -37.84,11.08 -16.84,-9.39 -36.33,-15 -55.62,-14.52 -28.61,-1.39 -56.85,7.3 -82.56,19.28zm621.61 40.71l0 0c4.1,7.32 9.73,13.66 16.1,19.09 7.57,6.2 17.05,12.37 27.33,10.3 8.92,-1.93 14.45,-9.7 19.47,-16.65 3.22,13.73 2.97,27.93 0.83,41.79 0.23,0.4 0.68,1.19 0.91,1.59 3.15,9.7 5.52,19.58 7.41,29.57 12.47,15.18 25.84,30.02 35.11,47.49 -8.59,-3.97 -17.21,-8.87 -26.99,-8.62 0.32,0.79 0.98,2.4 1.3,3.21 17.58,22.16 33.48,46 44.9,71.97 -24.1,20.05 -40.56,50.17 -40.94,81.86 -0.61,23.42 7.56,46.13 18.89,66.32 2.19,-3.6 2.19,-7.96 3.4,-11.92 2.49,-8.9 6.63,-17.98 14.36,-23.52 -0.42,29.3 7.62,60.8 30.34,80.82 5.7,5.9 14.27,6.48 21.8,8.38 24.43,4.66 50.6,5.31 74.25,-3.11 10.63,-16.68 17.24,-36.27 18.82,-55.97 5.98,-33.19 -2.61,-68.19 -20.59,-96.48 -15.17,-23.97 -36.03,-44.16 -59.82,-59.49 -3.43,-1.92 -3.71,-6.27 -5.34,-9.48 -19.98,-48.93 -52.25,-92.14 -90.04,-128.77 9.94,-0.4 19.87,0.51 29.76,1.62 -8.2,-9.64 -18.64,-17.1 -28.89,-24.41 -25.7,-17.2 -54.13,-30.27 -83.65,-39.4 -3.02,4.53 -5.87,9.18 -8.72,13.81zm-106.32 105.1l0 0c-1.59,1.67 -3.15,3.35 -4.69,5.02 2.17,5.3 0.36,12.27 -5.03,14.82 -4.98,2.95 -11.18,0.83 -14.83,-3.22 -2.06,0.7 -4.11,1.4 -6.13,2.09 4.22,8.26 15.4,12.02 23.62,7.44 9.56,-4.32 13.42,-17.6 7.06,-26.15zm-199.38 12.36l0 0c-0.86,9.45 7.03,18.25 16.36,19.08 8.52,0.91 16.52,-5.02 19.28,-12.94 -2.41,-0.32 -4.79,-0.6 -7.18,-0.83 -2.55,6.2 -10.74,8.98 -16.39,5.23 -4.28,-2.28 -5.54,-7.35 -5.02,-11.86 -1.61,-1.15 -3.2,-2.32 -4.93,-3.25 -2.73,-0.81 -1.54,3.11 -2.12,4.57zm-182.82 95.84l0 0c9.02,12 17.67,24.4 23.87,38.15 9.5,20.55 15.1,44.04 10.14,66.53 -3.04,13.53 -13.49,25.01 -27.06,28.41 -3.08,23.9 -13.64,46.2 -28.43,65.04 22.79,-16.44 39.52,-41.15 46.38,-68.42 4.95,-2.83 10.47,-4.79 14.68,-8.8 9.47,-7.92 13.73,-20.67 12.88,-32.79 -1.44,-25.19 -12.89,-49.02 -28.69,-68.35 -6.93,-7.59 -14.05,-15.74 -23.77,-19.77zm-72.99 98.25l0 0c-0.63,8.11 -0.28,17.93 6.53,23.52 15.5,15.68 27.88,36.6 27.33,59.27 1.81,-2.22 3.5,-4.52 5.14,-6.88l-0.13 -0.36c10.69,-17.12 16.75,-37.06 17.63,-57.22 0.68,-13.14 -1.66,-26.73 -8.57,-38.09 -4.85,-7.62 -12.84,-14.46 -22.51,-13.54 -15.54,2.82 -24.03,18.77 -25.42,33.3zm-69.5 -15.03l0 0c-7.06,8.05 -9.41,19.39 -8.43,29.85 0.94,7.28 2.53,15.13 7.87,20.55 12.45,13.03 22.52,28.29 29.75,44.8 1.77,3.93 2.82,8.24 5.39,11.8 0.1,-0.69 0.28,-2.07 0.36,-2.75 5.47,-8.43 8.45,-18.23 10.87,-27.91 4.79,-21.35 4.41,-44.47 -4.39,-64.74 -4.27,-9.58 -12.38,-19.21 -23.77,-19.28 -6.56,0.27 -13.22,2.66 -17.65,7.68zm-74.43 18.1l0 0c-10.63,4.22 -19.05,14.88 -18.39,26.67 0.93,18.63 10.68,35.48 21.5,50.17 8.31,10.65 17.35,21.15 28.79,28.54l0.28 0.89c0.53,-0.01 1.61,-0.06 2.14,-0.08 -3.53,-15.23 -4.92,-30.94 -3.96,-46.54 0.76,-9.66 2.9,-19.49 8.27,-27.7 -1.76,-10.94 -5.49,-22.51 -14.27,-29.83 -6.76,-5.62 -16.63,-5.52 -24.36,-2.12zm-91.68 36.2l0 0c-7.11,15.15 -2.01,32.71 5.17,46.85 10.26,19.08 25.81,36.85 46.63,44.37 -0.5,-0.69 -1.5,-2.07 -1.99,-2.76 -0.23,-0.73 -0.73,-2.16 -0.98,-2.89 -5.59,-13.89 -6.2,-29.78 -1.03,-43.89 3.05,-8.47 6.43,-17.95 2.82,-26.78 -4.84,-12.57 -14.59,-24.68 -28.33,-27.65 -9.16,-0.73 -18.53,4.21 -22.29,12.75zm826.86 13.29l0 0c-3.98,16.99 -6.12,35.52 0.41,52.19 12.9,-0.08 25.83,0.27 38.72,-0.21 -8.83,-8.62 -17.68,-17.62 -22.91,-29.01 -7.85,-15.26 -8.85,-32.82 -7.64,-49.64 -3.79,8.55 -6.31,17.62 -8.58,26.67zm-1094.9 73.67l0 0c1.24,14.84 2.93,29.64 4.67,44.41 10.62,0.13 21.25,-0.22 31.87,0.18 -5.15,3.66 -11.6,4.99 -17.23,7.77 -17.72,42.23 -35.14,84.58 -52.63,126.9 35.37,0.6 70.78,0.03 106.16,0.28 20.72,0.86 40.63,-12.56 49.16,-31.18 3.23,-7.41 6.18,-14.91 9.32,-22.34 3.2,-7.36 6.99,-15.33 4.8,-23.54 -1.24,-7.77 -8.27,-12.33 -12.66,-18.24 11.39,-8.26 23.8,-15.14 34.86,-23.77 3.71,-8.14 6.99,-16.48 10.31,-24.78 3.44,-8.49 3.26,-18.9 -2.47,-26.35 -4.73,-6.19 -12.67,-9.19 -20.31,-9.24 -48.61,-0.08 -97.24,0.1 -145.85,-0.1zm172.44 0l0 0c1.27,14.82 3.12,29.59 4.62,44.39 10.74,0.2 21.48,-0.28 32.21,0.28 -6.07,4.84 -17.04,3.9 -19.58,12.38 -16.55,40.89 -34.17,81.4 -50.28,122.47 20.45,0.04 40.92,-0.16 61.39,0.1 3.4,-6 5.43,-12.63 8.25,-18.91 17.46,-42.23 34.99,-84.43 52.43,-126.66 1.27,-2.67 1.74,-5.99 4.22,-7.88 0.67,5.91 1.25,11.84 1.66,17.77 10.92,1.41 22.01,-0.49 32.93,1.08 -5.43,2.29 -11.02,4.23 -16.35,6.73 -2.47,0.93 -2.89,3.88 -3.97,5.97 -16.57,40.59 -33.77,80.95 -50.15,121.62 20.67,0.28 41.34,0.27 61.99,0 9.78,-23.55 19.59,-47.09 29.24,-70.71 0.38,-1.52 1.29,-2.47 2.75,-2.83 5.6,24.61 11.05,49.28 17.23,73.76 16.78,-0.12 33.55,-0.04 50.33,-0.04 11.68,-26.83 22.45,-54.06 33.81,-81.05 13.47,-32.83 27.38,-65.5 40.59,-98.43 -20.74,0.2 -41.49,-0.17 -62.22,0.2 -8.65,21.54 -17.77,42.91 -26.52,64.4 -1.06,-1.55 -2.01,-3.21 -2.27,-5.08 -4.48,-19.88 -9.08,-39.72 -13.81,-59.54 -7.49,0.13 -15,-0.1 -22.51,0.25 1.59,2.4 3.19,4.82 4.74,7.26l0.32 0c2.9,3.94 6.56,7.22 10.46,10.16 -22.38,5.1 -47.69,3 -67.08,-10.13 -3.03,-2.47 -6.02,-4.95 -8.98,-7.47 -35.16,-0.05 -70.31,0.1 -105.45,-0.09zm286.46 34.51l0 0c-14.84,35.92 -29.75,71.8 -44.59,107.7 -3.81,8.82 -4.36,19.93 1.97,27.73 5.74,7.5 15.62,10 24.65,9.6 33.61,-0.3 67.24,0.43 100.82,-0.37 13.1,-32.25 26.59,-64.34 39.88,-96.51 -24.91,-0.25 -49.82,-0.07 -74.73,-0.1 0.3,8.27 2.58,16.46 2.17,24.73 -3.45,9.32 -7.74,18.32 -11.21,27.65 -6.1,0.41 -12.21,0.25 -18.31,0.2 12.31,-30.28 24.94,-60.45 37.48,-90.65 16.62,-0.18 33.23,0.05 49.85,-0.12 2.82,0.09 5.98,-0.39 8.37,1.5 5.57,3.68 10.96,7.65 16.63,11.22 6.29,-12.77 10.49,-26.49 17.02,-39.14 0.79,8.82 1.77,17.62 2.73,26.44 10.78,0.22 21.57,-0.31 32.34,0.3 -5.57,3.31 -12.02,4.76 -17.6,7.97 -5.21,11.06 -9.43,22.58 -14.27,33.8 -12.62,31.04 -25.99,61.79 -38.19,93 20.72,-0.09 41.47,0.41 62.17,-0.25 10.31,-25.43 20.64,-50.87 31.61,-76.01 5.87,0.06 11.73,-0.02 17.6,0.18 -9.84,25.51 -21.15,50.45 -30.98,75.98 20.59,0.33 41.17,0.08 61.76,0.13 25.06,-59.68 49.62,-119.57 74.42,-179.35 -20.77,-0.02 -41.54,-0.2 -62.3,0.08 -7.98,19.61 -16.12,39.15 -24.27,58.67 -5.98,0.07 -11.97,0.07 -17.95,0.04 7.33,-19.83 16.74,-38.87 23.59,-58.84 -66.9,-0.02 -133.81,0.05 -200.71,-0.04 -21.78,-0.97 -42.34,14.44 -49.95,34.46zm340.24 -34.44l0 0c-6.28,14.7 -12.26,29.54 -18.43,44.29 7.79,0.36 15.65,-0.58 23.37,0.71 -5.39,2.25 -10.92,4.14 -16.21,6.61 -2.57,0.87 -3.02,3.85 -4.09,5.97 -16.55,40.64 -33.85,80.97 -50.13,121.71 20.67,0.23 41.34,0.28 62.01,-0.04 5.49,-12.64 10.09,-25.7 16.19,-38.07 8.09,0.27 16.18,0.02 24.25,0.19 -1.17,12.71 -3.4,25.3 -4.67,38.02 38.87,0.03 77.75,0.18 116.62,-0.07 7.51,-16.06 14.98,-32.14 22.49,-48.2 1.97,-4.19 3.6,-8.62 6.5,-12.3 1.8,20.24 2.63,40.59 5.1,60.77 2.98,-0.1 6,-0.15 9.02,-0.14 17.68,-18.31 33.88,-38.1 51.79,-56.18 -5.65,18.97 -13.57,37.24 -19.62,56.1 20.68,-0.13 41.4,0.6 62.05,-0.36 18.29,-51.7 37.35,-103.1 55.76,-154.74 0.76,-1.75 0.96,-4.23 3.13,-4.79 0.78,8.28 1.66,16.57 2.62,24.84 14.52,0.28 29.07,-0.4 43.59,0.35 -5.3,2.72 -11.02,4.49 -16.37,7.06 -2.06,0.71 -2.6,2.97 -3.42,4.71 -16.75,41 -34.04,81.79 -50.66,122.85 20.61,0.33 41.25,0.1 61.89,0.11 18.97,-44.9 37.22,-90.08 56.13,-135.01 13.88,-0.05 27.77,-0.1 41.65,0.05 6.32,-14.69 12.72,-29.41 18.22,-44.42 -69.46,0.13 -138.94,-0.27 -208.39,0.2 -18.83,21.1 -37.76,42.13 -57.12,62.73 -2.35,-20.9 -3.41,-41.95 -5.37,-62.9 -33.94,-0.05 -67.87,-0.07 -101.82,0.02 1.65,14.72 3.29,29.45 4.74,44.22 10.79,0.26 21.62,-0.23 32.41,0.28 -5.59,3.96 -13.53,4.23 -18.18,9.25 -19.1,40.51 -37.96,81.15 -56.86,121.75 -0.13,-1.75 -0.11,-3.51 0,-5.25 5.92,-45.36 12.02,-90.73 17.84,-136.11 1.9,-13.51 -6.76,-27.31 -19.44,-32.02 -6.55,-2.79 -13.78,-2.16 -20.7,-2.17 -21.97,0 -43.93,0 -65.89,-0.02zm535.64 0.4l0 0c-18.16,3.03 -34.22,16.34 -40.95,33.46 -13.86,33.55 -27.75,67.08 -41.66,100.61 -2.78,6.71 -6.18,13.52 -5.86,21 -0.09,7.62 3.73,15.3 10.19,19.46 5.27,3.56 11.77,4.56 18.02,4.52 22.12,-0.03 44.27,-0.05 66.41,0.02 21.02,0.43 41.02,-13.74 48.93,-33 15,-36.3 30.07,-72.58 45.1,-108.86 3.45,-8.06 4.37,-17.95 -0.43,-25.68 -4.94,-8.22 -14.79,-12.51 -24.2,-11.95 -25.18,0.34 -50.39,-0.49 -75.55,0.42zm109.06 -0.35l0 0c1.46,14.77 3.1,29.52 4.74,44.29 10.61,0.2 21.25,-0.32 31.86,0.28 -5.24,3.58 -11.7,4.67 -17.11,7.95 -8.5,18.8 -15.86,38.13 -23.94,57.12 -9.4,23.29 -19.65,46.26 -28.53,69.75 20.39,0.11 40.77,-0.23 61.16,0.18 7.54,-14.77 12.88,-30.6 19.57,-45.76 4.43,-9.65 7.4,-20.06 12.82,-29.19 5.67,24.89 11.58,49.72 17.18,74.63 17.04,0.1 34.13,0.47 51.17,-0.18 24.51,-59.62 49.31,-119.12 73.92,-178.69 -20.6,-0.98 -41.28,-0.13 -61.9,-0.43 -7.03,16.31 -13.63,32.79 -20.49,49.16 -2.32,5.27 -3.91,10.94 -7.26,15.68 -5,-21.5 -10.11,-42.98 -14.88,-64.52 -32.75,-0.68 -65.54,-0.15 -98.31,-0.27zm-54.83 200.75l0 0c8.92,5.32 16.21,13.76 18.3,24.13 2.29,11.24 1.79,24.62 -6.56,33.37 -5.6,6.1 -14.04,8.1 -22,8.67 9.42,8.47 11.14,22.47 8.14,34.21 -4.16,13.32 -19.16,20.2 -32.37,19.04 4.69,5.01 8.92,10.81 10.3,17.67 2.22,12.36 -4.03,25.76 -15.09,31.81 -6.48,3.92 -14.3,4.41 -21.64,3.51 2.57,6.28 3.19,13.21 0.89,19.67 11.9,0.83 23.92,-5.15 29.89,-15.58 -2.71,-1.24 -5.37,-2.48 -8.01,-3.81 29.17,-5.37 55.71,-27.01 63.23,-56.25 -10.97,5.47 -23.9,7.72 -35.68,3.45 10.6,-5.09 21.58,-9.75 30.66,-17.41 17.34,-13.27 28.66,-34.32 28.62,-56.35 -9.21,7.62 -19.62,17.58 -32.7,14.57 13.59,-8.97 26.42,-19.99 33.9,-34.78 3.89,-8.08 8,-16.72 7.85,-25.89 -19.24,0.24 -38.48,0.3 -57.73,-0.03zm-85.19 0.58l0 0c0.48,1.89 1.05,3.81 1.56,5.74 7.56,21.92 25.62,41.7 48.83,46.89 10.37,1.79 22.87,1.52 30.86,-6.3 4.43,-4.08 3.93,-10.41 3.98,-15.88l-0.53 0.43c-2.31,-7.77 -8.47,-13.69 -15.4,-17.54 -5.59,6.07 -14.34,6.98 -22.06,5.84 -17.06,-2.45 -32.4,-10.91 -47.24,-19.18zm-12.16 58.46l0 0c5.25,21.53 21.62,41.04 43.34,47.11 10.56,3.09 22.74,2.15 31.85,-4.36 4.43,-3.14 6.73,-8.62 6.24,-13.98 -2.04,-9.21 -11.59,-15.58 -20.64,-15.58 -19.37,5.13 -40.21,0.05 -56.68,-10.85l0.16 -0.67c-1.46,-0.53 -2.88,-1.09 -4.27,-1.67zm-27.72 47.64l0 0c6.8,17.35 20.04,31.6 35.06,42.31 11.86,8.14 27.78,14.47 41.77,7.87 6.58,-2.58 9.49,-9.92 8.78,-16.6 -2.12,-8.42 -8.24,-15.19 -15.73,-19.3 -4.67,3.47 -10.13,6.25 -16.16,6.05 -18.05,-0.06 -33.93,-9.69 -49.62,-17.33 2.93,-2.49 -3.38,-1.1 -4.1,-3zm-932.63 18.28l0 0c-1.81,4.22 -3.57,8.47 -5.24,12.74 3.48,0.02 6.94,0.02 10.42,0.02 -6.33,17.34 -14.2,34.09 -20.8,51.33 -1.62,3.45 3.42,4.03 5.7,4.16 18.8,0.18 37.61,-0.02 56.42,0.08 7.79,0.48 15.49,-3.66 19.6,-10.24 3.76,-5.92 7.65,-12.41 7.95,-19.57 0.33,-5.56 -5.27,-7.99 -9.76,-8.99 5.65,-2.1 11.6,-5.23 13.91,-11.19 1.7,-4.37 3.87,-9.86 0.91,-14.15 -3.58,-3.94 -9.47,-3.91 -14.37,-4.24 -21.58,0.01 -43.16,-0.07 -64.74,0.05zm124.37 -0.02l0 0c-1.84,4.23 -4.03,8.37 -4.9,12.94 3.28,-0.09 6.56,-0.19 9.87,-0.26 -6.59,18.17 -15.14,35.57 -21.54,53.78 2.57,1.43 5.43,1.98 8.37,1.89 17.73,0 35.47,-0.05 53.22,0 2.05,-4.65 4.01,-9.34 5.83,-14.1 -10.31,0.02 -20.62,-0.1 -30.93,0.1 0.98,-5.84 3.73,-11.19 6.39,-16.41 10.44,0.3 20.88,0.08 31.32,0.15 1.83,-4.39 3.65,-8.77 5.42,-13.16 -10.51,-0.22 -21.03,-0.07 -31.54,-0.07 1.56,-4.24 3.23,-8.42 5.11,-12.51 10.52,0.06 21.03,0.06 31.55,0.02 1.84,-4.07 3.55,-8.18 5.13,-12.34 -24.44,-0.13 -48.87,-0.06 -73.3,-0.03zm121.35 0.15l0 0c-1.71,4.23 -3.42,8.45 -5.04,12.71 4.07,-0.06 8.17,-0.08 12.26,0.04 -13.64,17.2 -28.06,33.79 -42,50.75 -0.98,1.32 -1.72,2.78 -2.22,4.39 8.25,0.58 16.53,0.21 24.8,0.3 3.59,-4.93 7.24,-9.81 10.74,-14.79 9.19,-0.28 18.41,-0.06 27.61,-0.13 0.46,4.59 -2.52,11.47 1.91,14.52 9.41,0.93 18.94,0.15 28.4,0.38 -0.41,-22.04 0.73,-44.09 0.22,-66.11 -0.58,-0.49 -1.71,-1.46 -2.29,-1.96 -18.1,-0.56 -36.28,-0.32 -54.39,-0.1zm111.08 0.12l0 0c-1.64,4.19 -3.37,8.35 -4.86,12.61 3.15,-0.07 6.33,-0.12 9.51,-0.18 -0.11,4.59 -2.73,8.53 -4.29,12.74 -5.35,13.33 -11.12,26.51 -16.36,39.88 0.27,2.62 3.58,2.7 5.57,2.95 8.14,0.12 16.29,0.28 24.42,-0.23 3.11,-8.47 6.86,-16.69 10.19,-25.06 0.8,-2.22 2.07,-4.19 3.68,-5.9 6.25,8.5 7.39,19.72 12.23,29.05 1.06,2.21 3.7,2.12 5.79,2.19 9.01,0.07 18.01,0 27.03,0 -4.74,-10.11 -10.14,-19.89 -14.55,-30.15 7.99,-1.21 15.86,-4.89 20.23,-11.95 3.65,-5.86 7.89,-13.36 4.93,-20.3 -2.9,-5.84 -10.31,-5.79 -15.9,-5.97 -22.54,0.23 -45.1,-0.36 -67.62,0.32zm127.56 10.21l0 0c-7.69,9.94 -11.99,21.97 -16.05,33.73 -1.84,6 -4.11,13.95 1.18,18.89 5.75,5.11 14.05,4.59 21.23,5.14 10.87,0.08 21.76,0.36 32.62,-0.18 1.72,-4.81 3.71,-9.5 5.57,-14.24 -8.34,-0.2 -16.74,0.59 -25.01,-0.58 -3.83,-0.3 -5.64,-4.74 -4.31,-8.02 2.42,-8.44 6.06,-16.51 10.13,-24.29 1.82,-3.64 4.75,-7.39 9.21,-7.54 9.03,-0.59 18.1,0.27 27.15,-0.39 1.66,-4.36 3.45,-8.66 5.14,-13 -14.07,-0.05 -28.15,-0.08 -42.22,0 -9.15,0.08 -18.84,3.02 -24.64,10.48zm115.6 -10.5l0 0c-1.95,4.16 -4.17,8.31 -4.82,12.93 3.9,-0.08 7.77,-0.16 11.67,-0.15 -12.03,15.75 -25.28,30.58 -37.81,45.93 -2.15,3.03 -5.9,5.54 -6.01,9.56 8.03,0.19 16.09,-0.03 24.13,0.19 4.01,-4.83 7.46,-10.08 11.3,-15.02 9.12,0 18.23,0 27.35,-0.02 0.58,4.69 -3,12.3 2.52,14.77 9.26,0.4 18.55,0.12 27.83,0.08 -0.43,-21.01 0.46,-42 0.36,-63 0.27,-2.25 -0.56,-5.12 -3.31,-5.12 -17.72,-0.39 -35.47,-0.05 -53.21,-0.15zm95.34 12.78l0 0c6.98,0.09 13.96,0.1 20.95,-0.05 -0.33,1.94 -0.76,3.88 -1.59,5.7 -6.65,15.65 -12.93,31.46 -19.62,47.09 1.47,1.78 3.56,2.84 5.95,2.72 8.15,0.23 16.34,0.25 24.51,-0.11 7.38,-18.53 15.16,-36.9 22.81,-55.31 6.91,-0.32 13.97,0.74 20.8,-0.55 3.39,-3.03 4.04,-8.17 5.86,-12.25 -24.72,-0.13 -49.45,0.12 -74.18,-0.13 -2.12,4.16 -3.83,8.52 -5.49,12.89zm110.67 4.66l0 0c-1.64,4.64 -5.37,10.69 -0.91,14.94 7.37,6.69 18.23,6.61 26.62,11.46 3.21,4.2 -1.63,9.2 -6.02,9.32 -11.54,1.21 -23.16,0.53 -34.71,0.68 -2.12,4.79 -4.14,9.63 -6.06,14.52 14.08,0 28.17,0 42.26,0.01 6.58,-0.18 13.56,-0.48 19.39,-3.91 7.79,-4.39 12.19,-12.79 15,-20.95 1.43,-4.01 1.79,-9.59 -2.4,-12.08 -6.7,-4.09 -14.6,-5.29 -21.81,-8.16 -2.04,-0.72 -5.02,-2.02 -3.91,-4.8 0.16,-3.63 4.09,-5.37 7.27,-5.52 11.41,-1.08 22.89,-0.22 34.33,-0.63 1.66,-4.06 3.33,-8.12 5,-12.17 -16.98,-0.31 -33.99,-0.16 -50.96,-0.1 -10.64,-0.15 -19.51,7.83 -23.09,17.39zm102.76 1.09l0 0c1.13,7.6 4.38,14.71 8.6,21.09 7.91,11.83 19.02,22.26 32.84,26.58 9.68,2.95 21.6,2.31 29.49,-4.59 3.56,-2.96 3.31,-7.79 2.03,-11.8 -3.56,-6.96 -9.96,-14.65 -18.61,-13.72 -4.89,1.29 -9.48,4.9 -14.8,3.31 -13.26,-2.72 -24.66,-10.67 -35.49,-18.4l0.1 -0.61c-1.41,-0.63 -2.8,-1.26 -4.16,-1.86zm-332.42 -607.11c4.53,-3.73 9.61,-7.59 15.66,-8.07 4.48,0.13 4.68,5.32 6.1,8.45 5.29,-1.74 10.31,-4.17 15.5,-6.21 10.33,-2.84 21.91,-3.86 31.82,1.04 8.14,3.67 14.26,11.16 16.5,19.78 4.31,16.26 -0.43,34.74 -12.47,46.59 -10.14,10.22 -24.74,15.6 -39.08,14.5 -4.39,-0.38 -8.87,-1.14 -12.56,-3.7 11.05,-2.73 21.61,-7.45 30.43,-14.75 -8.62,0.24 -17.69,0.93 -25.66,-3.05 11.27,-3.24 21.75,-9.23 29.75,-17.88 -8.3,1.79 -16.77,3.15 -25.28,2.19 10.21,-7.13 23.89,-12.25 28.2,-25.1 1.97,-4.32 -3.95,-5.43 -6.9,-5.68 -18.64,-0.48 -35.65,14.53 -39.56,32.4 -1.06,7.78 -0.03,15.93 -3.6,23.21 2.24,2.38 4.46,4.79 6.68,7.21 -12.94,4.54 -25.82,10.22 -36.15,19.45 -2.93,2.62 -6.21,6.87 -3.44,10.8 4.85,7.19 14.41,8.37 22.34,9.43 18.38,1.55 34.09,-11.36 43.94,-25.66 32.47,-3.52 64.47,-11.21 94.87,-23.17 -3.12,2.68 -6.46,5.09 -10.01,7.14 -22.97,13.69 -48.8,21.6 -74.55,28.13 -5.42,8.7 -12.6,16.37 -21.37,21.76 -2.65,1.81 -5.83,3.12 -7.61,5.92 -13.29,20.65 -14.7,46.04 -24.78,68.04 -6.11,13.42 -19.59,22.07 -33.89,24.34 -14.29,2.11 -29.32,2.61 -43.23,-1.82 -10.75,-3.35 -19.7,-11.57 -24.23,-21.84 -9.46,-21.07 -8.63,-45.25 -18.28,-66.25 -6.46,-5.09 -13.81,-9.55 -17.85,-17.02 -2.44,-3.14 -3.25,-8.79 -8.07,-8.87 -27.47,-3.53 -54.07,-13.53 -77.03,-29.02 -4.07,-2.61 -7.93,-5.52 -11.3,-9 3.7,1.39 7.31,3.03 10.91,4.74 30.68,14.25 64.36,22.09 98.22,22.24 2.78,6.28 6.45,12.4 12.15,16.46 10.29,7.82 24.35,8.48 36.48,5.33 5.02,-1.6 10.64,-3.91 13.22,-8.81 -0.92,-6.07 -5.28,-11.06 -9.53,-15.24 -9.08,-8.6 -21.66,-11.96 -33.82,-13.09 2.51,-3.2 5.05,-6.4 7.54,-9.63 -9.17,-11.93 -4.38,-28.77 -12.5,-41.17 -6.46,-9.45 -18.83,-12.58 -29.69,-11.69 -3.59,0.58 -8.1,1.4 -10.01,4.86 4.74,11.07 15.67,17.42 24.45,24.95 -8.62,0.84 -17.15,-0.65 -25.59,-2.21 8.04,8.85 19.13,13.91 29.64,19.16 -9.02,2.47 -18.39,2.16 -27.58,1.18 7.77,8.85 19.64,11.43 30.38,14.87 -6.05,7.59 -17.03,6.91 -25.35,4.07 -9.13,-3.93 -18.08,-9.03 -24.48,-16.82 -7.56,-8.82 -11.07,-20.67 -10.55,-32.17 0.67,-13.26 8.7,-25.91 20.56,-31.92 9.82,-5.22 21.82,-5.24 31.96,-0.97 2.92,1.51 5.8,3.1 8.73,4.63 2.01,-2.94 3.52,-7.39 7.8,-7.38 7.72,0.96 13.9,6.32 19.42,11.41 6.73,6.82 13.03,14.52 16.14,23.73 -6.54,-4.14 -12.1,-11.65 -20.57,-11.2 1.43,7.82 4.61,15.16 7.48,22.54 1.87,4.85 5.04,9.63 10.08,11.63 5.85,2.46 12.03,4.13 17.7,7.08 5.85,2.67 12.03,6.71 18.74,4.82 8.39,-4.32 16.28,-9.61 24.98,-13.32 6.81,-3.08 14.41,-7.01 16.86,-14.65 2.55,-7.43 8.55,-13.94 7.26,-22.3 -10.51,-3.11 -17.7,7.33 -25.82,12.02 3.76,-10.61 11.65,-19.08 19.9,-26.44zm-47.09 78.8l0 0c-10.72,-5.95 -21.71,-11.72 -33.53,-15.15 -2.57,-1.82 -3.89,1.23 -5.25,2.7 14.09,6.67 27.93,14.14 39.79,24.33 8.54,-6.74 17.32,-13.31 26.94,-18.46 4.74,-2.6 11.09,-2.72 14.45,-7.46 1.38,-2.65 1.63,-8.07 -2.67,-7.66 -13.37,6.98 -26.4,14.62 -39.73,21.7zm1.28 29.75l0 0c-2.34,6.32 -6.08,12.35 -11.8,16.11 -9.22,6.61 -20.95,7.94 -31.97,8.17 -4.25,-0.41 -8.51,-0.74 -12.73,-1.24 2.1,9.99 6.2,19.74 13.22,27.28l0.09 0.63c0.86,0.6 2.57,1.82 3.43,2.44 -0.72,-9.43 0.84,-19 5.45,-27.32 4.06,2.32 8.22,4.49 12.71,5.89 4.03,-3.14 8.02,-6.4 10.98,-10.61 2.73,2.15 5.42,4.39 8,6.76 4.14,-1.47 7.09,-4.79 9.5,-8.35 3.54,3.35 7.34,6.43 11.35,9.23 3.55,-1.77 7.11,-3.56 10.66,-5.35 3.61,5.35 5.98,11.33 8.07,17.4 0.18,2.07 0.38,4.16 0.61,6.25 8.06,-6.32 13.26,-16.28 13.08,-26.6 -3.54,-0.24 -7.09,-0.55 -10.61,-0.95 -14.88,-2.17 -30.13,-7.97 -40.04,-19.74zm-4.54 61.64l0 0c-2.79,-8.45 -0.38,-18.13 -5.69,-25.81 -3.06,2.82 -6.16,5.62 -9.41,8.26 -3.55,-1.59 -7,-3.33 -10.36,-5.24 -4.13,10.05 -1.53,21.8 5.19,30.08 2.75,-2.68 5.72,-5.75 9.79,-6.11 3.45,3.15 5.31,7.89 8.75,11.2 3.68,-3.39 7.16,-7.03 10.83,-10.46 2.42,1.58 4.85,3.17 7.27,4.76 8.82,-7.56 15.65,-19.09 13.13,-31.08 -2.39,1.4 -4.72,2.87 -7.01,4.41 -3.91,-2.52 -7.48,-5.5 -11.12,-8.35 -9.3,6.68 -6.43,19.37 -11.37,28.34zm-41.6 4.33l0 0c-0.39,5.43 -1.17,11.43 1.82,16.34 2.35,4.52 6.88,7.26 11.39,9.3l0.29 0.43c16.13,4.84 33.45,5.45 49.94,2l0.07 -0.43c5.45,-1.89 10.71,-5.33 13.19,-10.72 2.87,-6.46 1.96,-13.86 -0.06,-20.42 -0.2,0.75 -0.62,2.27 -0.81,3.03 -4.96,6.42 -10.18,12.68 -16.58,17.74 -2.82,-2.69 -5.9,-5.09 -9.48,-6.63 -3.32,3.13 -6.73,6.18 -10.1,9.23 -2.55,-3.45 -5.48,-6.56 -8.7,-9.38 -3.26,1.46 -6.15,3.55 -8.48,6.23 -9.33,-3.21 -15.43,-11.45 -20.24,-19.61 -1.76,-1.5 -1.66,2.04 -2.25,2.89zm-33.4 334.89l0 0c4.8,-0.2 9.79,0.64 14.5,-0.58 3.13,-1.2 7.08,-6.23 3.7,-9.02 -4.46,-1.34 -9.22,-0.58 -13.79,-0.81 -1.59,3.41 -3.04,6.89 -4.41,10.41z"/>
   <path class="fil3" d="M1539.25 914.63c11.57,-0.61 23.18,-0.1 34.76,-0.26 -14.63,35.2 -29.17,70.47 -43.82,105.67 -11.46,-0.03 -22.93,0.02 -34.38,-0.03 14.41,-35.15 29.32,-70.11 43.44,-105.38zm42.63 163.64c19.25,0.33 38.49,0.27 57.73,0.03 0.15,9.17 -3.96,17.81 -7.85,25.89 -7.48,14.79 -20.31,25.81 -33.9,34.78 13.08,3.01 23.49,-6.95 32.7,-14.57 0.04,22.03 -11.28,43.08 -28.62,56.35 -9.08,7.66 -20.06,12.32 -30.66,17.41 11.78,4.27 24.71,2.02 35.68,-3.45 -7.52,29.24 -34.06,50.88 -63.23,56.25 2.64,1.33 5.3,2.57 8.01,3.81 -5.97,10.43 -17.99,16.41 -29.89,15.58 2.3,-6.46 1.68,-13.39 -0.89,-19.67 7.34,0.9 15.16,0.41 21.64,-3.51 11.06,-6.05 17.31,-19.45 15.09,-31.81 -1.38,-6.86 -5.61,-12.66 -10.3,-17.67 13.21,1.16 28.21,-5.72 32.37,-19.04 3,-11.74 1.28,-25.74 -8.14,-34.21 7.96,-0.57 16.4,-2.57 22,-8.67 8.35,-8.75 8.85,-22.13 6.56,-33.37 -2.09,-10.37 -9.38,-18.81 -18.3,-24.13zm-294.11 -274.54c2.27,-9.05 4.79,-18.12 8.58,-26.67 -1.21,16.82 -0.21,34.38 7.64,49.64 5.23,11.39 14.08,20.39 22.91,29.01 -12.89,0.48 -25.82,0.13 -38.72,0.21 -6.53,-16.67 -4.39,-35.2 -0.41,-52.19zm-102.17 -91.21c18.9,-0.9 38.87,2.93 54.6,13.92 4.32,2.75 7.36,7.43 12.35,9.13l0.69 0.29c0.22,1.04 0.65,3.13 0.85,4.19 -28.38,-14.04 -61.46,-10.64 -91.24,-3.5 6.23,-10.31 16.02,-18.03 26.76,-23.27 -0.99,-0.2 -3,-0.58 -4.01,-0.76zm-630.43 -51.88c8.27,-0.28 15.3,4.33 22.01,8.52 3.38,6.78 5.77,14.32 11.04,19.94 -1.56,1.77 -0.15,3.98 0.23,5.87 3.3,9.46 4.58,20.2 0.35,29.6 -16.06,-6.18 -34.74,-4.14 -49.14,5.22 -3.8,2.07 -6.48,5.69 -10.2,7.79 -3.99,-3.75 -4.01,-10.62 -5.53,-15.83 7.92,-6.91 16.06,-13.9 25.87,-18.01 6.86,-3.22 14.44,-4.13 21.88,-5.08 -0.61,-8.17 -2.57,-16.22 -5.85,-23.73 -2.47,-5.49 -6.95,-9.66 -10.66,-14.29zm214.34 -7.72c9.72,4.03 16.84,12.18 23.77,19.77 15.8,19.33 27.25,43.16 28.69,68.35 0.85,12.12 -3.41,24.87 -12.88,32.79 -4.21,4.01 -9.73,5.97 -14.68,8.8 -6.86,27.27 -23.59,51.98 -46.38,68.42 14.79,-18.84 25.35,-41.14 28.43,-65.04 13.57,-3.4 24.02,-14.88 27.06,-28.41 4.96,-22.49 -0.64,-45.98 -10.14,-66.53 -6.2,-13.75 -14.85,-26.15 -23.87,-38.15zm-184.34 3.76c9.9,-10.74 26.79,-14.14 40.19,-8.45 5.42,1.92 9.62,6.2 15.12,7.94 2.11,0.89 4.24,1.77 6.22,2.95 2.88,5.56 7.47,10.04 10.02,15.79 4.46,8.99 6.15,19.06 6.52,29.01 -13.86,-4.43 -28.73,0.38 -40.64,7.75 -2.36,1.26 -4.45,3.35 -7.18,3.7 -5.01,-2.34 -7.59,-7.61 -11.06,-11.62l0.27 -0.28c8.6,-11.27 22.87,-14.42 34.23,-21.76 -7.56,-13.31 -19.3,-26.03 -35.03,-28.73 -6.46,-1.5 -12.76,1.43 -18.66,3.7zm72.07 -11.02c28.47,-6.67 59.9,-0.76 83.45,16.75 9.36,7.08 17.85,15.77 23.17,26.33 2.41,4.52 3.15,10.77 -0.46,14.85 -2.9,2.7 -7,2.02 -10.33,0.64 -12.81,-4.6 -25.99,-9.86 -39.88,-9.06 -8.5,0.33 -16.51,4.07 -22.97,9.48 -2.04,-3.95 -4.14,-7.86 -6.36,-11.7 7.27,-10.81 21.18,-10.7 32.61,-12.93 3.98,-0.33 8.66,-3.3 7.74,-7.84 -3.39,-6 -9.91,-9.3 -15.91,-12.14 -12.66,-5.27 -26,-9.53 -39.79,-10.04 -8.57,-0.38 -17.07,0.86 -25.59,1.43 4.21,-3.1 9.31,-4.51 14.32,-5.77zm455.7 9.46c3.91,-17.87 20.92,-32.88 39.56,-32.4 2.95,0.25 8.87,1.36 6.9,5.68 -4.31,12.85 -17.99,17.97 -28.2,25.1 8.51,0.96 16.98,-0.4 25.28,-2.19 -8,8.65 -18.48,14.64 -29.75,17.88 7.97,3.98 17.04,3.29 25.66,3.05 -8.82,7.3 -19.38,12.02 -30.43,14.75 3.69,2.56 8.17,3.32 12.56,3.7 -6.12,16.38 -21.43,26.04 -35.75,34.53 -7.93,-1.06 -17.49,-2.24 -22.34,-9.43 -2.77,-3.93 0.51,-8.18 3.44,-10.8 10.33,-9.23 23.21,-14.91 36.15,-19.45 -2.22,-2.42 -4.44,-4.83 -6.68,-7.21 3.57,-7.28 2.54,-15.43 3.6,-23.21zm209.73 -159.38c8.03,5.85 15.52,12.5 22.02,20.04 17.17,18.31 31.7,39.18 42.64,61.81 1.86,3.73 4.01,7.57 3.63,11.9 -5.1,0.63 -10.17,1.45 -15.2,2.58 3.2,5.65 7.68,10.41 11.36,15.72 10.16,14.05 18.96,29.12 26.07,44.93 1.56,3.35 2.67,7.06 1.66,10.76 -5.66,27.21 -5.81,55.62 0.31,82.79 7.48,-11.82 13.46,-24.48 20.24,-36.7 2.4,21.43 3.06,43.56 11.34,63.81 5.05,13.41 14.45,26.74 28.77,31.1 12.18,3.54 26.12,1.93 36.68,-5.32 6.05,-4.13 9.56,-10.78 13.13,-16.94 -1.58,19.7 -8.19,39.29 -18.82,55.97 -23.65,8.42 -49.82,7.77 -74.25,3.11 -7.53,-1.9 -16.1,-2.48 -21.8,-8.38 -22.72,-20.02 -30.76,-51.52 -30.34,-80.82 -7.73,5.54 -11.87,14.62 -14.36,23.52 -1.21,3.96 -1.21,8.32 -3.4,11.92 -11.33,-20.19 -19.5,-42.9 -18.89,-66.32 0.38,-31.69 16.84,-61.81 40.94,-81.86 -11.42,-25.97 -27.32,-49.81 -44.9,-71.97 -0.32,-0.81 -0.98,-2.42 -1.3,-3.21 9.78,-0.25 18.4,4.65 26.99,8.62 -9.27,-17.47 -22.64,-32.31 -35.11,-47.49 -1.89,-9.99 -4.26,-19.87 -7.41,-29.57zm-445.46 -101.19c9.62,0.77 18.7,4.91 26.89,9.81 4.23,2.31 7.33,6.47 11.97,8.03 2.42,4.36 4.32,9 6.11,13.65 -8.22,3.04 -15.94,7.21 -23.35,11.87 -6.1,-8.62 -14.52,-14.97 -23.06,-20.95 7.26,-0.13 14.32,1.63 21.22,3.71 -5.09,-9.71 -12.22,-18.21 -19.78,-26.12zm304.28 2.94c10.51,-2.66 19.73,-9.72 30.68,-11.06 -7.24,8.93 -15.5,17.06 -21.83,26.7 7.86,-2 15.43,-4.97 23.37,-6.64 -7.57,7.72 -14.45,16.24 -21.49,24.31 -6.77,-1.34 -13.31,-4.09 -20.32,-3.79 -1.75,-0.72 -3.44,-1.51 -5.11,-2.29 3.61,-9.71 9.25,-18.5 14.7,-27.23zm-462.51 -17.86c19.29,-0.48 38.78,5.13 55.62,14.52 12.42,-4.24 24.75,-9.48 37.84,-11.08 -0.13,7.07 -0.23,14.17 -0.46,21.25 -18.25,6.59 -36.95,12.31 -54.04,21.67 -7.39,3.72 -14.05,8.62 -21.08,12.95 4.53,-14.24 16.05,-24.43 26.62,-34.24 -17.22,-6.07 -36.3,-6.55 -53.9,-1.73 2.01,17.01 2.45,35.16 -5.29,50.92 -5.4,11.63 -15.68,20.68 -27.78,24.88 23.14,5.47 46.06,15.18 63.45,31.79 6.3,6.38 12.4,14.14 13.11,23.4 -17.35,-15.18 -39.86,-26.55 -63.46,-24.41 9.84,8.95 20.43,17.6 26.9,29.52 9.01,14.67 10.49,33.76 3.2,49.42 -3.1,6.33 -9.14,11.85 -16.48,12.15 -12.88,0.73 -25.41,-2.95 -37.97,-5.17 -16.13,-3.2 -33.53,-3.73 -49.09,2.17 -0.19,0.48 -0.55,1.41 -0.72,1.89 12.37,2.95 24.53,7.08 35.85,12.93 4.55,2.67 9.63,5.02 12.73,9.46 -8.7,1.51 -17.27,4.21 -24.53,9.37 -11,-3.35 -22.76,-5.09 -34.12,-2.55 -12.42,2.61 -23.97,9.48 -31.78,19.52 -16.66,-5.85 -35.17,4.29 -41.82,20.02l1.79 0.53c-4.89,5.17 -5.98,12.48 -7.83,19.08 -2.51,8.83 -2.24,18.07 -2.33,27.17 -0.48,-3.67 -0.63,-7.36 -0.76,-11.04 -13.67,12.11 -17.87,31.01 -22.42,47.95 -2.51,4.37 -8.46,2.6 -12.5,2.17 -17.85,-3.37 -36.4,7.21 -43.97,23.43 -6.62,-6.53 -6.97,-16.62 -5.11,-25.17l0.5 -0.23c5.95,-2.51 9.84,-8.06 15.41,-11.21 8.07,-5.63 17.79,-8.14 27.52,-8.62 2.58,-16.8 10.9,-31.74 19.26,-46.24 -13.33,2.52 -25.02,10 -35.31,18.53 4.68,-13.44 12.98,-25.31 21.62,-36.48 29.63,-37.44 74.07,-62.59 121.39,-68.87 -9.85,-1.84 -19.86,-0.99 -29.64,0.68 1.15,-0.79 2.29,-1.59 3.43,-2.39 -6.71,-2.6 -13.72,-4.37 -20.86,-5.28 15.21,-33.73 46.39,-58.06 80.38,-71.12 13.88,-5.61 28.69,-8.01 43.16,-11.46 -12.61,-2.65 -25.62,-2.68 -38.38,-1.36 1.11,-0.66 2.22,-1.31 3.33,-1.97 -11.82,-4.23 -24.45,-5.22 -36.9,-4.62 0.82,-0.25 2.44,-0.77 3.27,-1.01 4.34,-33.04 20.42,-65.37 47.38,-85.6 5.67,-4.44 12.1,-7.74 17.91,-11.98 -8.41,-1.23 -16.91,-0.66 -25.38,-0.74 18.66,-12.3 40.76,-17.67 62.24,-22.8zm121.87 -48.33c47.42,7.73 92.29,35.41 117.7,76.63 -4.89,3.68 -9.96,7.11 -15.02,10.51 0.37,0.48 1.11,1.44 1.48,1.9 -1.4,0.35 -2.79,0.7 -4.18,1.05 -14.24,-29.51 -39.13,-53.66 -68.42,-68.14 -2.92,-1.53 -6.05,-2.97 -9.42,-2.31l-0.38 0.02c-2.1,-1.54 -4.19,-3.08 -6.33,-4.57 -6.65,26.4 -8.1,54.74 0.22,80.95 4.04,12.91 10.49,25.01 19.06,35.47l0.25 1.51c-3.05,8.51 -7.03,16.7 -10.41,25.11 -15.7,-10.84 -19.06,-31.55 -20.49,-49.22 -10.44,-7.87 -14.17,-21.39 -14,-33.96 0.43,-25.26 4.19,-50.37 9.94,-74.95zm303.12 58.3c26.42,-32.74 61.69,-59.16 101.85,-72.27 6.05,21.4 10.84,43.44 10.72,65.77 -0.06,13.87 -2.97,29.45 -14.4,38.62 -0.7,15.64 -1.24,33.25 -12,45.71 -4.18,-6.88 -8.52,-13.71 -13.81,-19.81 9.5,-24.79 16.99,-50.95 16.59,-77.73 -0.08,-8.29 -0.89,-16.68 -3.49,-24.58 -1.73,1.01 -2.97,2.87 -4.94,3.38 -2.72,0.68 -5.49,1.26 -7.96,2.59 -26.95,14.37 -49.52,36.69 -64.79,63.08 -6.18,-3.03 -12.56,-5.67 -19.26,-7.34 2.35,-6.63 7.44,-11.79 11.49,-17.42zm-165.37 2.37c16.36,-6.22 34.96,-7.08 51.45,-0.85 4.72,1.69 8.98,4.46 13.71,6.13 5.72,-0.73 10.85,-3.87 16.46,-5.25 15.94,-4.56 34.22,-5.95 49.21,2.47 -5.79,9.68 -11.47,19.49 -15.3,30.13 1.9,-0.28 3.84,-1.03 5.81,-0.89 8.46,2.68 17.38,3.46 25.85,6.13 16.17,4.44 31.37,11.88 45.69,20.47 3.56,1.46 2.49,5.52 2.07,8.49 -2.62,13.72 -8.4,26.76 -16.57,38.07 -15.52,22.34 -39.43,37.51 -64.81,46.32 -2.92,1.23 -7.03,1.84 -7.77,5.54 -3.33,10.46 -9.53,19.56 -16.1,28.23 1.79,6.56 3.42,13.22 3.62,20.05 0.53,8.06 -1.41,16.09 -0.1,24.12 -0.22,0.83 -0.65,2.5 -0.86,3.33 15.44,-5.07 28.83,-17.5 32.32,-33.75 5.45,-2.67 10.52,-6.28 13.7,-11.6 6.95,3.5 14.7,5.85 22.54,4.24 9.93,-1.65 19.4,-8.27 22.8,-18 2.23,-5.63 1.62,-11.8 2,-17.71 5.87,9.31 6.55,23.17 -1.77,31.29 -4.16,4.69 -10.16,6.84 -15.57,9.66 13.06,-0.58 26.72,-2.34 39.2,2.77 5.26,1.79 8.95,6.07 13.15,9.48 2.58,-10.39 -4.18,-19.66 -11.67,-25.97 7.8,-7.44 14.98,-15.7 19.95,-25.33 7.66,10.64 9.48,24.63 9.17,37.49 0.12,6.68 -2.26,13.06 -2.47,19.71 13.72,-16.13 24.02,-35.42 28.14,-56.29 3.19,-15.78 2.87,-32.2 -0.56,-47.9 5.3,-7.65 9.91,-15.71 14.39,-23.85l0.51 1.66c2.98,13.13 16.21,20.09 28.48,22.38 -7.93,17.17 -20.51,31.55 -33.98,44.58 10.69,9.5 25.77,10.89 39.4,9.22 -11.08,19.02 -27.62,34.5 -46.07,46.31 -13.12,7.67 -27.21,14.5 -42.29,16.97 -4,-2.92 -5.41,-8.7 -9.55,-11.8 -16.24,-14.82 -42.58,-12.5 -59.09,0.63 1.01,0.03 3.03,0.1 4.06,0.13 -5.19,2.04 -10.21,4.47 -15.5,6.21 -1.42,-3.13 -1.62,-8.32 -6.1,-8.45 -6.05,0.48 -11.13,4.34 -15.66,8.07 -8.25,7.36 -16.14,15.83 -19.9,26.44 8.12,-4.69 15.31,-15.13 25.82,-12.02 -7.92,7.06 -10.68,19.11 -20.84,23.64 -9.59,4.49 -19.5,8.27 -29.22,12.51 -0.61,4.73 -0.83,9.6 0.96,14.12 -6.71,1.89 -12.89,-2.15 -18.74,-4.82 -5.67,-2.95 -11.85,-4.62 -17.7,-7.08 -5.04,-2 -8.21,-6.78 -10.08,-11.63 -2.87,-7.38 -6.05,-14.72 -7.48,-22.54 8.47,-0.45 14.03,7.06 20.57,11.2 -3.11,-9.21 -9.41,-16.91 -16.14,-23.73 -5.52,-5.09 -11.7,-10.45 -19.42,-11.41 -4.28,-0.01 -5.79,4.44 -7.8,7.38 -2.93,-1.53 -5.81,-3.12 -8.73,-4.63l2.15 -0.51c-5.48,-5.68 -12.87,-9.1 -20.37,-11.24 -14.68,-3.94 -31.49,1.84 -40.64,14.01 -3.15,4.22 -5.45,9 -7.54,13.8 -36,-11.61 -68,-32.36 -99.45,-52.85 28.15,26.45 60.95,48.5 97.5,61.42 -0.35,3.68 -0.58,7.35 -0.78,11.03 -30.27,-8.37 -57.95,-23.67 -85.11,-39.04 25.32,20.97 54.49,37.35 85.55,48.1 1.28,3.78 2.61,7.53 3.98,11.26 -27.51,-7.21 -54.01,-17.76 -79.72,-29.85 26.34,20.98 58.26,33.79 90.51,42.53 10.99,6.82 23.12,13.47 36.43,13.22 8.32,2.84 19.3,3.52 25.35,-4.07 -10.74,-3.44 -22.61,-6.02 -30.38,-14.87 9.19,0.98 18.56,1.29 27.58,-1.18 -10.51,-5.25 -21.6,-10.31 -29.64,-19.16 8.44,1.56 16.97,3.05 25.59,2.21 -8.78,-7.53 -19.71,-13.88 -24.45,-24.95 1.91,-3.46 6.42,-4.28 10.01,-4.86 10.86,-0.89 23.23,2.24 29.69,11.69 8.12,12.4 3.33,29.24 12.5,41.17 -2.49,3.23 -5.03,6.43 -7.54,9.63 12.16,1.13 24.74,4.49 33.82,13.09 4.25,4.18 8.61,9.17 9.53,15.24 -2.58,4.9 -8.2,7.21 -13.22,8.81 -12.13,3.15 -26.19,2.49 -36.48,-5.33 -5.7,-4.06 -9.37,-10.18 -12.15,-16.46 -33.86,-0.15 -67.54,-7.99 -98.22,-22.24 -3.6,-1.71 -7.21,-3.35 -10.91,-4.74 3.37,3.48 7.23,6.39 11.3,9 22.96,15.49 49.56,25.49 77.03,29.02 4.82,0.08 5.63,5.73 8.07,8.87 4.04,7.47 11.39,11.93 17.85,17.02 9.65,21 8.82,45.18 18.28,66.25 4.53,10.27 13.48,18.49 24.23,21.84 13.91,4.43 28.94,3.93 43.23,1.82 -0.15,7.55 -4.28,13.88 -8.2,19.99 -15.2,1.31 -31.45,1.06 -44.99,-6.89 -17.88,-9.98 -27.15,-29.89 -31.87,-48.98 -4.87,-20.04 -7.46,-41.47 -19.11,-59.04 -5.94,-9.06 -16.89,-13.62 -27.53,-13.11 -7.24,0.53 -15,0 -21.7,3.13 11.57,1.61 23.19,5.64 31.56,14.13 -16.52,-1.86 -33.27,-3.6 -49.84,-1.28 -16.44,1.99 -32.55,7.76 -45.86,17.73 -0.05,-15.74 9.71,-29.9 21.98,-39 5.38,-4.34 11.76,-7.12 17.48,-10.94 -34.82,-15.59 -63.51,-43.94 -80.98,-77.73 -15.8,-30.73 -21.98,-65.75 -20.79,-100.09 4.3,3.39 7.36,7.97 11.13,11.88 11.32,12.1 23.43,23.82 37.94,32.02 2.27,1.36 4.79,2.16 7.34,2.87 -20.19,-20.67 -37.94,-44.64 -46.78,-72.47 -1.62,-5.78 -3.99,-11.6 -3.58,-17.71 7.94,7.39 18.19,13.95 29.49,12.94 5.93,-0.15 10.81,-3.93 15.2,-7.51 5.83,10.1 12.03,20.46 21.53,27.58 -0.53,24.27 1.84,49.88 14.87,70.99 3.01,4.18 5.6,9.14 10.31,11.62 -0.68,-13.18 -0.32,-26.55 3.3,-39.31 1.27,-4.18 2.2,-8.67 5.07,-12.1 5.35,10.8 13.77,19.54 22.74,27.38 -8.16,5.6 -12.62,16.34 -8.52,25.79 4.67,-5.74 10.84,-10.26 18.05,-12.17 8.42,-2.67 17.23,-0.79 25.84,-0.5 -3.68,-3.97 -8.39,-7.3 -10.35,-12.54 -2.35,-5.29 -1.25,-11.19 -0.11,-16.61 3.3,2.7 3.43,7.53 5.9,10.87 5.57,9.95 17.12,15.68 28.43,14.47 8.8,0.07 16.49,-4.65 22.87,-10.31 5.04,5.69 10.29,11.21 15.45,16.79 0.58,7.08 1.79,14.52 6.31,20.27 4.43,6.04 11.78,9.04 19.04,9.8 -9.69,-13.03 -8.23,-30.2 -4.97,-45.18 -9.74,-6.13 -15.81,-16.4 -19.92,-26.99 -26.3,-0.99 -54.3,-8.22 -72.75,-28.17 -7.69,-8.34 -11.47,-19.61 -12.64,-30.73 -1.31,-15.28 1.16,-30.6 4.69,-45.45 1.49,-8.92 11.5,-11.14 18.21,-15.08 12.78,-7.18 27.29,-9.68 41.42,-12.67 2.41,-0.16 4.81,0.39 7.21,0.62 -5.85,-9.83 -12.51,-19.13 -19.64,-28.06zm69.85 92.12l0 0c-2.72,19.89 -2.29,40.29 1.34,60.03 5.49,-10.69 15.3,-18.43 26.62,-22.22 -6.3,-14.49 -11.19,-29.96 -10.56,-45.95 0.1,-15.48 5.64,-30.28 13.64,-43.34 -19.39,9.4 -28.17,31.31 -31.04,51.48zm-855.58 393.31c48.61,0.2 97.24,0.02 145.85,0.1 7.64,0.05 15.58,3.05 20.31,9.24 5.73,7.45 5.91,17.86 2.47,26.35 -3.32,8.3 -6.6,16.64 -10.31,24.78 -11.06,8.63 -23.47,15.51 -34.86,23.77 4.39,5.91 11.42,10.47 12.66,18.24 2.19,8.21 -1.6,16.18 -4.8,23.54 -3.14,7.43 -6.09,14.93 -9.32,22.34 -8.53,18.62 -28.44,32.04 -49.16,31.18 -35.38,-0.25 -70.79,0.32 -106.16,-0.28 17.49,-42.32 34.91,-84.67 52.63,-126.9 5.63,-2.78 12.08,-4.11 17.23,-7.77 -10.62,-0.4 -21.25,-0.05 -31.87,-0.18 -1.74,-14.77 -3.43,-29.57 -4.67,-44.41zm8.13 7.56l0 0c1.08,9.8 2.14,19.59 3.15,29.41 21.22,0 42.45,0 63.68,-0.02 -16.42,7.54 -33.31,14.05 -49.94,21.13 -15.91,37.91 -31.55,75.95 -47.27,113.95 31.73,0.07 63.45,-0.03 95.17,0.05 19.18,0.81 37.26,-12.71 43.83,-30.38 3.64,-9.1 7.61,-18.08 11.19,-27.22 2.07,-5.4 2.05,-12.38 -2.37,-16.64 -4.63,-4.87 -9.02,-9.97 -13.79,-14.7 13.09,-9.66 27.33,-17.72 40.42,-27.38 3.33,-7.29 6.2,-14.82 9.28,-22.23 2.69,-6.61 2.79,-15.14 -2.45,-20.55 -3.7,-4.13 -9.41,-5.57 -14.77,-5.45 -45.38,0.05 -90.76,-0.02 -136.13,0.03zm164.31 -7.56c35.14,0.19 70.29,0.04 105.45,0.09 2.96,2.52 5.95,5 8.98,7.47 -5.22,-0.01 -10.43,-0.01 -15.65,0 0.96,9.81 2.04,19.61 3.19,29.41 21.36,-0.04 42.73,0.03 64.09,-0.04 -16.84,7.34 -33.94,14.06 -50.77,21.47 -15.48,37.94 -31.34,75.74 -46.97,113.63 15.33,0.03 30.65,0.02 45.98,0 12.89,-30.83 25.49,-61.79 38.48,-92.58 7.21,30.82 14.36,61.69 21.47,92.55 13.22,0.18 26.47,-0.15 39.69,0.2 23.01,-54.78 45.57,-109.74 68.32,-164.62 -15.29,-0.08 -30.59,0.03 -45.89,-0.08 -11.62,27.56 -22.82,55.29 -34.46,82.84 -6.58,-27.55 -12.83,-55.2 -19.29,-82.78 -3.86,-0.01 -7.73,-0.03 -11.57,-0.03l-0.32 0c-1.55,-2.44 -3.15,-4.86 -4.74,-7.26 7.51,-0.35 15.02,-0.12 22.51,-0.25 4.73,19.82 9.33,39.66 13.81,59.54 0.26,1.87 1.21,3.53 2.27,5.08 8.75,-21.49 17.87,-42.86 26.52,-64.4 20.73,-0.37 41.48,0 62.22,-0.2 -13.21,32.93 -27.12,65.6 -40.59,98.43 -11.36,26.99 -22.13,54.22 -33.81,81.05 -16.78,0 -33.55,-0.08 -50.33,0.04 -6.18,-24.48 -11.63,-49.15 -17.23,-73.76 -1.46,0.36 -2.37,1.31 -2.75,2.83 -9.65,23.62 -19.46,47.16 -29.24,70.71 -20.65,0.27 -41.32,0.28 -61.99,0 16.38,-40.67 33.58,-81.03 50.15,-121.62 1.08,-2.09 1.5,-5.04 3.97,-5.97 5.33,-2.5 10.92,-4.44 16.35,-6.73 -10.92,-1.57 -22.01,0.33 -32.93,-1.08 -0.41,-5.93 -0.99,-11.86 -1.66,-17.77 -2.48,1.89 -2.95,5.21 -4.22,7.88 -17.44,42.23 -34.97,84.43 -52.43,126.66 -2.82,6.28 -4.85,12.91 -8.25,18.91 -20.47,-0.26 -40.94,-0.06 -61.39,-0.1 16.11,-41.07 33.73,-81.58 50.28,-122.47 2.54,-8.48 13.51,-7.54 19.58,-12.38 -10.73,-0.56 -21.47,-0.08 -32.21,-0.28 -1.5,-14.8 -3.35,-29.57 -4.62,-44.39zm8.17 7.56l0 0c1.13,9.78 2.1,19.59 3.18,29.39 21.18,0.05 42.35,-0.02 63.53,0.02 -16.36,7.54 -33.18,14.12 -49.8,21.06 -15.83,37.97 -31.58,75.98 -47.26,114.02 15.43,-0.17 30.86,0.35 46.28,-0.27 22.27,-54.88 45.26,-109.47 67.85,-164.22 -27.92,-0.01 -55.85,-0.01 -83.78,0zm278.29 26.95c7.61,-20.02 28.17,-35.43 49.95,-34.46 66.9,0.09 133.81,0.02 200.71,0.04 -6.85,19.97 -16.26,39.01 -23.59,58.84 5.98,0.03 11.97,0.03 17.95,-0.04 8.15,-19.52 16.29,-39.06 24.27,-58.67 20.76,-0.28 41.53,-0.1 62.3,-0.08 -24.8,59.78 -49.36,119.67 -74.42,179.35 -20.59,-0.05 -41.17,0.2 -61.76,-0.13 9.83,-25.53 21.14,-50.47 30.98,-75.98 -5.87,-0.2 -11.73,-0.12 -17.6,-0.18 -10.97,25.14 -21.3,50.58 -31.61,76.01 -20.7,0.66 -41.45,0.16 -62.17,0.25 12.2,-31.21 25.57,-61.96 38.19,-93 4.84,-11.22 9.06,-22.74 14.27,-33.8 5.58,-3.21 12.03,-4.66 17.6,-7.97 -10.77,-0.61 -21.56,-0.08 -32.34,-0.3 -0.96,-8.82 -1.94,-17.62 -2.73,-26.44 -6.53,12.65 -10.73,26.37 -17.02,39.14 -5.67,-3.57 -11.06,-7.54 -16.63,-11.22 -2.39,-1.89 -5.55,-1.41 -8.37,-1.5 -16.62,0.17 -33.23,-0.06 -49.85,0.12 -12.54,30.2 -25.17,60.37 -37.48,90.65 6.1,0.05 12.21,0.21 18.31,-0.2 3.47,-9.33 7.76,-18.33 11.21,-27.65 0.41,-8.27 -1.87,-16.46 -2.17,-24.73 24.91,0.03 49.82,-0.15 74.73,0.1 -13.29,32.17 -26.78,64.26 -39.88,96.51 -33.58,0.8 -67.21,0.07 -100.82,0.37 -9.03,0.4 -18.91,-2.1 -24.65,-9.6 -6.33,-7.8 -5.78,-18.91 -1.97,-27.73 14.84,-35.9 29.75,-71.78 44.59,-107.7zm6.66 3.47l0 0c-14.77,35.81 -29.69,71.58 -44.44,107.42 -2.88,6.66 -3.18,15.29 2.06,20.9 4.33,5.09 11.45,5.86 17.7,5.78 31.91,-0.13 63.8,0.1 95.7,-0.11 11.21,-27.35 22.58,-54.65 33.88,-81.95 -18.41,-0.03 -36.83,-0.02 -55.24,0 0.46,5.84 1.64,11.62 1.77,17.49 -4.49,11.85 -9.5,23.55 -14.52,35.2 -8.43,-0.3 -16.87,0.22 -25.29,-0.23 -5.39,-0.5 -6.5,-7.03 -4.28,-11.06 13.01,-31.49 26.06,-62.98 39.1,-94.45 21.14,-0.02 42.27,0 63.4,0 4.41,3.03 8.88,5.96 13.28,9.06 5.28,-12.81 10.62,-25.59 15.91,-38.4 -31.39,-0.22 -62.79,0.01 -94.18,-0.1 -19.56,-1.46 -38.34,12.33 -44.85,30.45zm149.54 -30.25l0 0c1.26,9.73 2.17,19.51 3.24,29.27 21.17,-0.07 42.34,-0.02 63.5,-0.03 -16.36,7.69 -33.36,13.97 -49.92,21.24 -15.71,37.96 -31.46,75.88 -47.14,113.84 15.38,-0.07 30.78,0.15 46.16,-0.13 10.1,-25.36 21.13,-50.36 31.01,-75.8 11.59,-0.71 23.19,-0.15 34.79,-0.3 -10.46,25.44 -21.05,50.82 -31.54,76.23 15.35,0 30.7,0 46.06,0 22.59,-54.88 45.4,-109.66 68.09,-164.5 -15.41,0.09 -30.83,-0.2 -46.23,0.16 -7.75,19.66 -16.21,39.02 -24.08,58.63 -11.43,0.14 -22.89,-0.05 -34.32,0.11 7.7,-19.79 16.26,-39.23 24.16,-58.92 -27.93,0.16 -55.85,-0.23 -83.78,0.2zm184.04 -7.66c21.96,0.02 43.92,0.02 65.89,0.02 6.92,0.01 14.15,-0.62 20.7,2.17 12.68,4.71 21.34,18.51 19.44,32.02 -5.82,45.38 -11.92,90.75 -17.84,136.11 -0.11,1.74 -0.13,3.5 0,5.25 18.9,-40.6 37.76,-81.24 56.86,-121.75 4.65,-5.02 12.59,-5.29 18.18,-9.25 -10.79,-0.51 -21.62,-0.02 -32.41,-0.28 -1.45,-14.77 -3.09,-29.5 -4.74,-44.22 33.95,-0.09 67.88,-0.07 101.82,-0.02 1.96,20.95 3.02,42 5.37,62.9 19.36,-20.6 38.29,-41.63 57.12,-62.73 69.45,-0.47 138.93,-0.07 208.39,-0.2 -5.5,15.01 -11.9,29.73 -18.22,44.42 -13.88,-0.15 -27.77,-0.1 -41.65,-0.05 -18.91,44.93 -37.16,90.11 -56.13,135.01 -20.64,-0.01 -41.28,0.22 -61.89,-0.11 16.62,-41.06 33.91,-81.85 50.66,-122.85 0.82,-1.74 1.36,-4 3.42,-4.71 5.35,-2.57 11.07,-4.34 16.37,-7.06 -14.52,-0.75 -29.07,-0.07 -43.59,-0.35 -0.96,-8.27 -1.84,-16.56 -2.62,-24.84 -2.17,0.56 -2.37,3.04 -3.13,4.79 -18.41,51.64 -37.47,103.04 -55.76,154.74 -20.65,0.96 -41.37,0.23 -62.05,0.36 6.05,-18.86 13.97,-37.13 19.62,-56.1 -17.91,18.08 -34.11,37.87 -51.79,56.18 -3.02,-0.01 -6.04,0.04 -9.02,0.14 -2.47,-20.18 -3.3,-40.53 -5.1,-60.77 -2.9,3.68 -4.53,8.11 -6.5,12.3 -7.51,16.06 -14.98,32.14 -22.49,48.2 -38.87,0.25 -77.75,0.1 -116.62,0.07 1.27,-12.72 3.5,-25.31 4.67,-38.02 -8.07,-0.17 -16.16,0.08 -24.25,-0.19 -6.1,12.37 -10.7,25.43 -16.19,38.07 -20.67,0.32 -41.34,0.27 -62.01,0.04 16.28,-40.74 33.58,-81.07 50.13,-121.71 1.07,-2.12 1.52,-5.1 4.09,-5.97 5.29,-2.47 10.82,-4.36 16.21,-6.61 -7.72,-1.29 -15.58,-0.35 -23.37,-0.71 6.17,-14.75 12.15,-29.59 18.43,-44.29zm4.99 7.43l0 0c-4.16,9.78 -8.15,19.62 -12.27,29.42 16.81,0.13 33.62,-0.05 50.42,0.08 -16.79,7.46 -34.24,13.66 -50.68,21.69 -15.88,37.7 -31.29,75.6 -47.07,113.34 15.33,0.03 30.66,0 45.98,0.02 5.23,-12.58 10.62,-25.11 15.54,-37.81 12.93,-0.71 25.91,-0.11 38.85,-0.31 -1.89,12.68 -3.29,25.42 -5.12,38.12 13.28,-0.05 26.55,0.1 39.85,-0.08 5.63,-43.6 11.42,-87.17 17.14,-130.75 0.77,-6.08 2.17,-12.48 -0.1,-18.39 -3.07,-9.02 -12.27,-15.12 -21.67,-15.24 -23.62,-0.14 -47.25,0.05 -70.87,-0.09zm129.46 0.03l0 0c1.08,9.79 2.13,19.59 3.2,29.39 21.05,0.09 42.1,0.03 63.17,0.03 -16.15,7.94 -33.22,13.95 -49.64,21.33 -17.69,37.91 -35.46,75.78 -53.04,113.73 15.3,0.09 30.61,0 45.93,0.05 13.06,-27.71 25.72,-55.62 39.01,-83.23 1.99,27.2 4.35,54.36 6.24,81.56 3.59,-1.47 5.52,-5.14 8.18,-7.74 22.46,-24.48 44.41,-49.49 67.18,-73.67 -10.03,27.69 -20,55.41 -30.07,83.07 15.42,-0.12 30.85,0.25 46.26,-0.18 19.51,-54.87 39.62,-109.53 59.29,-164.34 -14.6,0.06 -29.19,-0.02 -43.77,0.02 -2.52,-0.55 -3.81,1.85 -5.29,3.31 -21.31,23.55 -42.68,47.06 -64.11,70.51 -2.24,-24.62 -3.63,-49.31 -6.25,-73.87 -28.76,0.11 -57.53,0.03 -86.29,0.03zm220.08 29.47l0 0c24.9,-0.08 49.79,-0.02 74.69,-0.03 -16.56,7.44 -33.48,14.1 -50.21,21.19 -15.64,37.98 -31.46,75.9 -47.12,113.87 15.32,0.05 30.65,-0.02 45.96,0.03 18.63,-45.03 37.39,-90 55.89,-135.06 14.01,-0.08 28.01,-0.02 42.02,-0.03 4.09,-9.78 8.17,-19.58 12.15,-29.41 -45.4,-0.13 -90.8,0.2 -136.2,-0.16 0.15,9.91 1.81,19.74 2.82,29.6zm181.11 -36.53c25.16,-0.91 50.37,-0.08 75.55,-0.42 9.41,-0.56 19.26,3.73 24.2,11.95 4.8,7.73 3.88,17.62 0.43,25.68 -15.03,36.28 -30.1,72.56 -45.1,108.86 -7.91,19.26 -27.91,33.43 -48.93,33 -22.14,-0.07 -44.29,-0.05 -66.41,-0.02 -6.25,0.04 -12.75,-0.96 -18.02,-4.52 -6.46,-4.16 -10.28,-11.84 -10.19,-19.46 -0.32,-7.48 3.08,-14.29 5.86,-21 13.91,-33.53 27.8,-67.06 41.66,-100.61 6.73,-17.12 22.79,-30.43 40.95,-33.46zm-3.3 8.37l0 0c-9.21,2.75 -17.51,8.39 -23.61,15.79 -6.54,7.71 -9.01,17.74 -13.13,26.76 -12.95,31.2 -25.86,62.43 -38.82,93.64 -2.62,6.23 -3.38,14.02 0.75,19.81 3.51,5.2 10.09,7.21 16.11,7.19 21.01,0.07 42.05,-0.03 63.06,0.03 6.02,0.07 12.22,0.14 18.02,-1.8 12.95,-4.39 24.22,-14.27 29.29,-27.07 14.91,-36.03 29.85,-72.06 44.77,-108.08 2.51,-5.87 3.69,-12.9 0.56,-18.76 -2.98,-5.97 -9.81,-8.97 -16.26,-8.8 -23.8,0 -47.6,0.01 -71.4,-0.02 -3.19,0 -6.34,0.4 -9.34,1.31zm112.36 -8.72c32.77,0.12 65.56,-0.41 98.31,0.27 4.77,21.54 9.88,43.02 14.88,64.52 3.35,-4.74 4.94,-10.41 7.26,-15.68 6.86,-16.37 13.46,-32.85 20.49,-49.16 20.62,0.3 41.3,-0.55 61.9,0.43 -24.61,59.57 -49.41,119.07 -73.92,178.69 -17.04,0.65 -34.13,0.28 -51.17,0.18 -5.6,-24.91 -11.51,-49.74 -17.18,-74.63 -5.42,9.13 -8.39,19.54 -12.82,29.19 -6.69,15.16 -12.03,30.99 -19.57,45.76 -20.39,-0.41 -40.77,-0.07 -61.16,-0.18 8.88,-23.49 19.13,-46.46 28.53,-69.75 8.08,-18.99 15.44,-38.32 23.94,-57.12 5.41,-3.28 11.87,-4.37 17.11,-7.95 -10.61,-0.6 -21.25,-0.08 -31.86,-0.28 -1.64,-14.77 -3.28,-29.52 -4.74,-44.29zm8.27 7.52l0 0c1.1,9.78 2.06,19.58 3.22,29.36 21.17,-0.1 42.35,0.01 63.51,-0.07 -16.37,7.63 -33.29,14.06 -49.89,21.18 -15.87,37.91 -31.44,75.95 -47.27,113.89 15.38,0.03 30.78,0.18 46.16,-0.08 12.5,-30.85 25.58,-61.46 38.04,-92.33 7.92,30.65 14.37,61.68 21.81,92.46 13.3,-0.02 26.59,0.03 39.88,-0.04 22.68,-54.81 45.35,-109.64 68.14,-164.42 -15.36,-0.11 -30.71,-0.01 -46.08,-0.04 -11.53,27.51 -22.52,55.26 -34.46,82.59 -6.43,-27.5 -12.76,-55.05 -19.12,-82.56 -27.98,-0.02 -55.96,-0.13 -83.94,0.06zm-1372.37 29.28c17.15,0.06 34.32,0.08 51.48,-0.02 -23.21,16.23 -47.16,31.39 -70.68,47.17 5.9,7.09 12.65,13.48 18.5,20.6 4.84,8.59 -0.45,18.02 -3.78,26.09 -2.25,6.58 -8.65,11.88 -15.76,11.85 -7.86,0.1 -15.73,-0.03 -23.59,0.02 14.66,-35.22 29.14,-70.51 43.83,-105.71zm4.92 7.55l0 0c-2.54,6.37 -5.52,12.57 -7.59,19.11 10.16,-5.7 19.71,-12.46 29.35,-18.99 -7.24,-0.32 -14.5,-0.18 -21.76,-0.12zm-37.39 90.07l0 0c4.87,1.09 10.07,1.04 14.95,0.07 6.68,-3.09 7.62,-11.41 10.44,-17.44 3.88,-8.39 -5.29,-13.81 -9.98,-19.21 -5.45,12.05 -10.09,24.46 -15.41,36.58zm771.35 -29.57c8.85,-22.84 18.64,-45.33 27.92,-68 3.67,0 7.33,-0.02 11.03,-0.05 -3.12,22.7 -5.66,45.51 -9.2,68.15 -9.91,-0.28 -19.84,-0.13 -29.75,-0.1zm11.13 -7.56l0 0c4.1,0.07 8.21,0.07 12.32,0.02 1.52,-13.56 4.16,-27.02 4.87,-40.66 -6.56,13.15 -11.6,27.05 -17.19,40.64zm521.59 -52.6l0 0c-11.9,30.29 -25.08,60.09 -37.01,90.38 5.98,0.01 11.97,-0.02 17.95,0 12.61,-30.22 25.16,-60.45 37.57,-90.75 -6.18,0.03 -12.36,-0.33 -18.51,0.37z"/>
   <path class="fil4" d="M1124.14 1203.19c17.74,0.1 35.49,-0.24 53.21,0.15 2.75,0 3.58,2.87 3.31,5.12 0.1,21 -0.79,41.99 -0.36,63 -9.28,0.04 -18.57,0.32 -27.83,-0.08 -5.52,-2.47 -1.94,-10.08 -2.52,-14.77 -9.12,0.02 -18.23,0.02 -27.35,0.02 -3.84,4.94 -7.29,10.19 -11.3,15.02 -8.04,-0.22 -16.1,0 -24.13,-0.19 0.11,-4.02 3.86,-6.53 6.01,-9.56 12.53,-15.35 25.78,-30.18 37.81,-45.93 -3.9,-0.01 -7.77,0.07 -11.67,0.15 0.65,-4.62 2.87,-8.77 4.82,-12.93zm206.01 17.44c3.58,-9.56 12.45,-17.54 23.09,-17.39 16.97,-0.06 33.98,-0.21 50.96,0.1 -1.67,4.05 -3.34,8.11 -5,12.17 -11.44,0.41 -22.92,-0.45 -34.33,0.63 -3.18,0.15 -7.11,1.89 -7.27,5.52 -1.11,2.78 1.87,4.08 3.91,4.8 7.21,2.87 15.11,4.07 21.81,8.16 4.19,2.49 3.83,8.07 2.4,12.08 -2.81,8.16 -7.21,16.56 -15,20.95 -5.83,3.43 -12.81,3.73 -19.39,3.91 -14.09,-0.01 -28.18,-0.01 -42.26,-0.01 1.92,-4.89 3.94,-9.73 6.06,-14.52 11.55,-0.15 23.17,0.53 34.71,-0.68 4.39,-0.12 9.23,-5.12 6.02,-9.32 -8.39,-4.85 -19.25,-4.77 -26.62,-11.46 -4.46,-4.25 -0.73,-10.3 0.91,-14.94zm-110.67 -4.66c1.66,-4.37 3.37,-8.73 5.49,-12.89 24.73,0.25 49.46,0 74.18,0.13 -1.82,4.08 -2.47,9.22 -5.86,12.25 -6.83,1.29 -13.89,0.23 -20.8,0.55 -7.65,18.41 -15.43,36.78 -22.81,55.31 -8.17,0.36 -16.36,0.34 -24.51,0.11 -2.39,0.12 -4.48,-0.94 -5.95,-2.72 6.69,-15.63 12.97,-31.44 19.62,-47.09 0.83,-1.82 1.26,-3.76 1.59,-5.7 -6.99,0.15 -13.97,0.14 -20.95,0.05zm-210.94 -2.28c5.8,-7.46 15.49,-10.4 24.64,-10.48 14.07,-0.08 28.15,-0.05 42.22,0 -1.69,4.34 -3.48,8.64 -5.14,13 -9.05,0.66 -18.12,-0.2 -27.15,0.39 -4.46,0.15 -7.39,3.9 -9.21,7.54 -4.07,7.78 -7.71,15.85 -10.13,24.29 -1.33,3.28 0.48,7.72 4.31,8.02 8.27,1.17 16.67,0.38 25.01,0.58 -1.86,4.74 -3.85,9.43 -5.57,14.24 -10.86,0.54 -21.75,0.26 -32.62,0.18 -7.18,-0.55 -15.48,-0.03 -21.23,-5.14 -5.29,-4.94 -3.02,-12.89 -1.18,-18.89 4.06,-11.76 8.36,-23.79 16.05,-33.73zm-359.99 -10.48c24.43,-0.03 48.86,-0.1 73.3,0.03 -1.58,4.16 -3.29,8.27 -5.13,12.34 -10.52,0.04 -21.03,0.04 -31.55,-0.02 -1.88,4.09 -3.55,8.27 -5.11,12.51 10.51,0 21.03,-0.15 31.54,0.07 -1.77,4.39 -3.59,8.77 -5.42,13.16 -10.44,-0.07 -20.88,0.15 -31.32,-0.15 -2.66,5.22 -5.41,10.57 -6.39,16.41 10.31,-0.2 20.62,-0.08 30.93,-0.1 -1.82,4.76 -3.78,9.45 -5.83,14.1 -17.75,-0.05 -35.49,0 -53.22,0 -2.94,0.09 -5.8,-0.46 -8.37,-1.89 6.4,-18.21 14.95,-35.61 21.54,-53.78 -3.31,0.07 -6.59,0.17 -9.87,0.26 0.87,-4.57 3.06,-8.71 4.9,-12.94zm-114.98 -534.4c5.94,-5.19 13.73,-8.09 21.6,-8.17 3.71,4.63 8.19,8.8 10.66,14.29 3.28,7.51 5.24,15.56 5.85,23.73 -7.44,0.95 -15.02,1.86 -21.88,5.08 -9.81,4.11 -17.95,11.1 -25.87,18.01 -0.25,-2.22 -0.43,-4.46 -0.52,-6.69 0.09,-9.1 -0.18,-18.34 2.33,-27.17 1.85,-6.6 2.94,-13.91 7.83,-19.08zm51.6 -12.13c5.9,-2.27 12.2,-5.2 18.66,-3.7 15.73,2.7 27.47,15.42 35.03,28.73 -11.36,7.34 -25.63,10.49 -34.23,21.76 -4.56,-5.73 -9.78,-11.04 -16.41,-14.37 -5.27,-5.62 -7.66,-13.16 -11.04,-19.94 0.95,-4.99 4.34,-9.13 7.99,-12.48zm57.75 -5.25c8.52,-0.57 17.02,-1.81 25.59,-1.43 13.79,0.51 27.13,4.77 39.79,10.04 6,2.84 12.52,6.14 15.91,12.14 0.92,4.54 -3.76,7.51 -7.74,7.84 -11.43,2.23 -25.34,2.12 -32.61,12.93 -9.43,-14.09 -22.35,-25.65 -37.16,-33.83 -1.98,-1.18 -4.11,-2.06 -6.22,-2.95 -0.55,-0.65 -1.66,-1.94 -2.2,-2.59 1.5,-0.78 3.06,-1.51 4.64,-2.15zm442.65 1.24c10.16,-4.53 12.92,-16.58 20.84,-23.64 1.29,8.36 -4.71,14.87 -7.26,22.3 -2.45,7.64 -10.05,11.57 -16.86,14.65 -8.7,3.71 -16.59,9 -24.98,13.32 -1.79,-4.52 -1.57,-9.39 -0.96,-14.12 9.72,-4.24 19.63,-8.02 29.22,-12.51zm-172.64 -38.37c9.15,-12.17 25.96,-17.95 40.64,-14.01 7.5,2.14 14.89,5.56 20.37,11.24l-2.15 0.51c-10.14,-4.27 -22.14,-4.25 -31.96,0.97 -11.86,6.01 -19.89,18.66 -20.56,31.92 -0.52,11.5 2.99,23.35 10.55,32.17 6.4,7.79 15.35,12.89 24.48,16.82 -13.31,0.25 -25.44,-6.4 -36.43,-13.22 -4.32,-3.53 -8.12,-7.76 -10.79,-12.68 -1.37,-3.73 -2.7,-7.48 -3.98,-11.26 -0.44,-3 -0.56,-6.03 -0.44,-9.06 0.2,-3.68 0.43,-7.35 0.78,-11.03 0.44,-2.9 1.06,-5.76 1.95,-8.57 2.09,-4.8 4.39,-9.58 7.54,-13.8zm-333.53 -14.34c9.78,-1.67 19.79,-2.52 29.64,-0.68 -47.32,6.28 -91.76,31.43 -121.39,68.87 -8.64,11.17 -16.94,23.04 -21.62,36.48 10.29,-8.53 21.98,-16.01 35.31,-18.53 -8.36,14.5 -16.68,29.44 -19.26,46.24 -9.73,0.48 -19.45,2.99 -27.52,8.62 -5.57,3.15 -9.46,8.7 -15.41,11.21 4.84,-17.26 16.16,-31.5 25.74,-46.26 -17.19,10.89 -33.98,25.16 -55.1,26.9 11.99,-7.28 19.68,-19.33 27.62,-30.5 14.17,-20.79 28.89,-41.6 48,-58.19 26.22,-23.37 59.5,-38.24 93.99,-44.16zm67.73 -91.61c12.76,-1.32 25.77,-1.29 38.38,1.36 -14.47,3.45 -29.28,5.85 -43.16,11.46 -33.99,13.06 -65.17,37.39 -80.38,71.12 -14.84,-1.18 -29.72,1.16 -43.93,5.42 8.01,-25 26.56,-45.38 47.77,-60.17 24.08,-16.36 52.48,-25.99 81.32,-29.19zm610.9 -68.73c2.85,-4.63 5.7,-9.28 8.72,-13.81 29.52,9.13 57.95,22.2 83.65,39.4 10.25,7.31 20.69,14.77 28.89,24.41 -9.89,-1.11 -19.82,-2.02 -29.76,-1.62 37.79,36.63 70.06,79.84 90.04,128.77 1.63,3.21 1.91,7.56 5.34,9.48 23.79,15.33 44.65,35.52 59.82,59.49 17.98,28.29 26.57,63.29 20.59,96.48 -3.57,6.16 -7.08,12.81 -13.13,16.94 -10.56,7.25 -24.5,8.86 -36.68,5.32 -14.32,-4.36 -23.72,-17.69 -28.77,-31.1 -8.28,-20.25 -8.94,-42.38 -11.34,-63.81 -6.78,12.22 -12.76,24.88 -20.24,36.7 -6.12,-27.17 -5.97,-55.58 -0.31,-82.79 1.01,-3.7 -0.1,-7.41 -1.66,-10.76 -7.11,-15.81 -15.91,-30.88 -26.07,-44.93 -3.68,-5.31 -8.16,-10.07 -11.36,-15.72 5.03,-1.13 10.1,-1.95 15.2,-2.58 0.38,-4.33 -1.77,-8.17 -3.63,-11.9 -10.94,-22.63 -25.47,-43.5 -42.64,-61.81 -6.5,-7.54 -13.99,-14.19 -22.02,-20.04 -0.23,-0.4 -0.68,-1.19 -0.91,-1.59 2.14,-13.86 2.39,-28.06 -0.83,-41.79 -5.02,6.95 -10.55,14.72 -19.47,16.65 -10.28,2.07 -19.76,-4.1 -27.33,-10.3 -6.37,-5.43 -12,-11.77 -16.1,-19.09zm-621.61 -40.71c25.71,-11.98 53.95,-20.67 82.56,-19.28 -21.48,5.13 -43.58,10.5 -62.24,22.8 8.47,0.08 16.97,-0.49 25.38,0.74 -5.81,4.24 -12.24,7.54 -17.91,11.98 -26.96,20.23 -43.04,52.56 -47.38,85.6 -0.83,0.24 -2.45,0.76 -3.27,1.01 -13.59,1.16 -27,3.84 -40.06,7.75 4.84,-36.63 25.61,-71.52 57.6,-90.68 3.63,-2.56 8.37,-3.66 11.3,-7.16 -7.74,-2.63 -16.01,-3.33 -24.1,-2.4 5.36,-4.51 11.94,-7.19 18.12,-10.36zm405.2 -19.61c24.94,-12.92 54.56,-10.77 80.98,-3.97 -4.57,6.26 -8.92,12.68 -13.17,19.14 -14.99,-8.42 -33.27,-7.03 -49.21,-2.47 -5.61,1.38 -10.74,4.52 -16.46,5.25 -4.73,-1.67 -8.99,-4.44 -13.71,-6.13 -16.49,-6.23 -35.09,-5.37 -51.45,0.85 -3.48,-4.54 -7.7,-8.49 -10.69,-13.38 23.85,-6.73 50.35,-9.21 73.71,0.71zm-178.63 -28.36c3.37,-0.66 6.5,0.78 9.42,2.31 29.29,14.48 54.18,38.63 68.42,68.14 1.39,-0.35 2.78,-0.7 4.18,-1.05 15.01,-3.33 30.91,-3.98 46.02,-0.93 -14.13,2.99 -28.64,5.49 -41.42,12.67 -6.71,3.94 -16.72,6.16 -18.21,15.08 -3.53,14.85 -6,30.17 -4.69,45.45 1.17,11.12 4.95,22.39 12.64,30.73 -6.29,4.59 -12.15,9.73 -16.95,15.87 -9.37,-12.91 -13.33,-29.25 -11.9,-45.06 1.07,-15.6 6.2,-30.56 12.74,-44.64 -16.67,11.31 -27.74,28.64 -38.95,44.95 4.44,-25.31 18.96,-48.58 39.52,-63.92 -0.53,-1.51 -1.06,-3 -1.63,-4.5 -1.79,-4.65 -3.69,-9.29 -6.11,-13.65 -13.2,-23.94 -32.47,-43.78 -53.08,-61.45zm353.54 0.34c2.47,-1.33 5.24,-1.91 7.96,-2.59 -16.38,14.32 -30.97,30.66 -43,48.8 -5.45,8.73 -11.09,17.52 -14.7,27.23 1.67,0.78 3.36,1.57 5.11,2.29 16.52,6.24 29.95,19.54 37.11,35.6 5.48,11.5 7.64,24.18 9.24,36.73 -9.46,-11.97 -16.92,-25.93 -29.28,-35.34 5,20.04 4.77,42.08 -4.58,60.85 -0.25,0.03 -0.76,0.13 -1.01,0.16 -4.61,-4.64 -8.95,-9.58 -14.25,-13.47 -21.96,18.16 -46.33,34.34 -73.83,42.73 -2.91,8.96 -7.8,17.81 -16.02,22.92 3,14.63 3.81,32.47 -7.46,43.94 -1.31,-8.03 0.63,-16.06 0.1,-24.12 -0.2,-6.83 -1.83,-13.49 -3.62,-20.05 6.57,-8.67 12.77,-17.77 16.1,-28.23 0.74,-3.7 4.85,-4.31 7.77,-5.54 25.38,-8.81 49.29,-23.98 64.81,-46.32 8.17,-11.31 13.95,-24.35 16.57,-38.07 0.42,-2.97 1.49,-7.03 -2.07,-8.49 -14.32,-8.59 -29.52,-16.03 -45.69,-20.47 -8.47,-2.67 -17.39,-3.45 -25.85,-6.13 21,-4.84 43.43,-5.54 64.3,0.44 -2.8,-4.69 -8.06,-6.97 -12.5,-9.79 15.27,-26.39 37.84,-48.71 64.79,-63.08zm40.26 129.08c8.27,6.85 19.13,10.72 29.9,9.4 7.74,-0.67 14.98,-3.72 21.85,-7.2 -4.63,19.35 -14.09,37.71 -27.85,52.13 -3.33,3.61 -7.59,6.28 -10.67,10.14 11.88,0.35 23.85,-2.5 34.27,-8.25 4.18,-2.17 7.58,-5.59 11.77,-7.76 0.88,35.59 -5.65,71.87 -22.03,103.68 -13.69,26.43 -35.47,48.83 -62.25,62 -5.5,2.99 -11.44,4.99 -16.99,7.83 15.88,6.18 30.51,17.5 37.76,33.24 -4.99,-1.7 -8.03,-6.38 -12.35,-9.13 -15.73,-10.99 -35.7,-14.82 -54.6,-13.92 -21.58,3.5 -41.86,16.16 -52.95,35.22 -8.71,14.09 -10.28,30.88 -14.84,46.48 -4.29,15.79 -10.46,32.25 -23.37,43.07 -10.34,8.94 -23.96,12.73 -37.27,14.42 3.92,-6.11 8.05,-12.44 8.2,-19.99 14.3,-2.27 27.78,-10.92 33.89,-24.34 10.08,-22 11.49,-47.39 24.78,-68.04 1.78,-2.8 4.96,-4.11 7.61,-5.92 8.77,-5.39 15.95,-13.06 21.37,-21.76 25.75,-6.53 51.58,-14.44 74.55,-28.13 3.55,-2.05 6.89,-4.46 10.01,-7.14 -30.4,11.96 -62.4,19.65 -94.87,23.17 -9.85,14.3 -25.56,27.21 -43.94,25.66 14.32,-8.49 29.63,-18.15 35.75,-34.53 14.34,1.1 28.94,-4.28 39.08,-14.5 12.04,-11.85 16.78,-30.33 12.47,-46.59 -2.24,-8.62 -8.36,-16.11 -16.5,-19.78 -9.91,-4.9 -21.49,-3.88 -31.82,-1.04 -1.03,-0.03 -3.05,-0.1 -4.06,-0.13 16.51,-13.13 42.85,-15.45 59.09,-0.63 4.14,3.1 5.55,8.88 9.55,11.8 15.08,-2.47 29.17,-9.3 42.29,-16.97 18.45,-11.81 34.99,-27.29 46.07,-46.31 -13.63,1.67 -28.71,0.28 -39.4,-9.22 13.47,-13.03 26.05,-27.41 33.98,-44.58 -12.27,-2.29 -25.5,-9.25 -28.48,-22.38zm-53.45 150.26l0 0c0.05,3.05 0.06,6.1 0.08,9.17 35.22,-9.15 69.25,-28.82 89.78,-59.54 -25.37,23.54 -55.82,42.7 -89.86,50.37zm-0.82 18.02l0 0c-1.06,3.88 -2.35,7.69 -3.74,11.47 32.42,-8.02 65.14,-21.83 88.01,-46.91 -25.56,16.81 -53.7,30.98 -84.27,35.44zm-8.83 19.76l0 0c-4.24,5.04 -9.2,9.38 -14.7,12.96 33.15,-4.97 66.07,-16.68 92.45,-37.77 -23.78,13.67 -50.73,20.96 -77.75,24.81zm-669.51 534.83c21.58,-0.12 43.16,-0.04 64.74,-0.05 4.9,0.33 10.79,0.3 14.37,4.24 2.96,4.29 0.79,9.78 -0.91,14.15 -2.31,5.96 -8.26,9.09 -13.91,11.19 4.49,1 10.09,3.43 9.76,8.99 -0.3,7.16 -4.19,13.65 -7.95,19.57 -4.11,6.58 -11.81,10.72 -19.6,10.24 -18.81,-0.1 -37.62,0.1 -56.42,-0.08 -2.28,-0.13 -7.32,-0.71 -5.7,-4.16 6.6,-17.24 14.47,-33.99 20.8,-51.33 -3.48,0 -6.94,0 -10.42,-0.02 1.67,-4.27 3.43,-8.52 5.24,-12.74zm36.73 12.91l0 0c-1.61,3.94 -3.24,7.89 -4.84,11.83 5.73,-0.28 12.05,1.3 17.35,-1.55 2.5,-2.09 4.92,-6 3.31,-9.27 -4.94,-2.22 -10.6,-0.83 -15.82,-1.01zm-17.44 42.51l0 0c5.8,-0.25 12.16,1.2 17.52,-1.7 3.1,-2.79 4.04,-7.21 5.58,-10.94 1.13,-2.08 -0.16,-4.41 -2.43,-4.79 -4.44,-0.65 -8.94,-0.32 -13.4,-0.3 -2.51,5.87 -5,11.75 -7.27,17.73zm226.43 -55.29c18.11,-0.22 36.29,-0.46 54.39,0.1 0.58,0.5 1.71,1.47 2.29,1.96 0.51,22.02 -0.63,44.07 -0.22,66.11 -9.46,-0.23 -18.99,0.55 -28.4,-0.38 -4.43,-3.05 -1.45,-9.93 -1.91,-14.52 -9.2,0.07 -18.42,-0.15 -27.61,0.13 -3.5,4.98 -7.15,9.86 -10.74,14.79 -8.27,-0.09 -16.55,0.28 -24.8,-0.3 0.5,-1.61 1.24,-3.07 2.22,-4.39 13.94,-16.96 28.36,-33.55 42,-50.75 -4.09,-0.12 -8.19,-0.1 -12.26,-0.04 1.62,-4.26 3.33,-8.48 5.04,-12.71zm8.71 40.23l0 0c5.92,0.31 11.84,0.25 17.77,0.11 0.5,-8.45 0.88,-16.92 1.03,-25.37 -6.65,8.12 -12.85,16.62 -18.8,25.26zm102.37 -40.11c22.52,-0.68 45.08,-0.09 67.62,-0.32 5.59,0.18 13,0.13 15.9,5.97 2.96,6.94 -1.28,14.44 -4.93,20.3 -4.37,7.06 -12.24,10.74 -20.23,11.95 4.41,10.26 9.81,20.04 14.55,30.15 -9.02,0 -18.02,0.07 -27.03,0 -2.09,-0.07 -4.73,0.02 -5.79,-2.19 -4.84,-9.33 -5.98,-20.55 -12.23,-29.05 -1.61,1.71 -2.88,3.68 -3.68,5.9 -3.33,8.37 -7.08,16.59 -10.19,25.06 -8.13,0.51 -16.28,0.35 -24.42,0.23 -1.99,-0.25 -5.3,-0.33 -5.57,-2.95 5.24,-13.37 11.01,-26.55 16.36,-39.88 1.56,-4.21 4.18,-8.15 4.29,-12.74 -3.18,0.06 -6.36,0.11 -9.51,0.18 1.49,-4.26 3.22,-8.42 4.86,-12.61zm36.78 12.14l0 0c-1.96,4.81 -3.95,9.62 -5.92,14.44 4.61,0 9.25,0.35 13.86,-0.21 5.95,-0.8 10.19,-7.3 8.47,-13.08 -5.41,-1.11 -10.93,-1.29 -16.41,-1.15zm214.57 28.03l0 0c6.04,0.12 12.1,0.45 18.13,-0.2 0.14,-8.27 0.82,-16.5 0.73,-24.76 -6.92,7.79 -12.69,16.56 -18.86,24.96z"/>
   <path class="fil5" d="M1050.14 784.8c4.94,-8.97 2.07,-21.66 11.37,-28.34 3.64,2.85 7.21,5.83 11.12,8.35 2.29,-1.54 4.62,-3.01 7.01,-4.41 2.52,11.99 -4.31,23.52 -13.13,31.08 -2.42,-1.59 -4.85,-3.18 -7.27,-4.76 -3.67,3.43 -7.15,7.07 -10.83,10.46 -3.44,-3.31 -5.3,-8.05 -8.75,-11.2 -4.07,0.36 -7.04,3.43 -9.79,6.11 -6.72,-8.28 -9.32,-20.03 -5.19,-30.08 3.36,1.91 6.81,3.65 10.36,5.24 3.25,-2.64 6.35,-5.44 9.41,-8.26 5.31,7.68 2.9,17.36 5.69,25.81z"/>
  </g>
 </g>
</svg>
