<?xml version="1.0" encoding="UTF-8"?>
<!DOCTYPE svg PUBLIC "-//W3C//DTD SVG 1.1//EN" "http://www.w3.org/Graphics/SVG/1.1/DTD/svg11.dtd">
<!-- Creator: CorelDRAW -->
<svg xmlns="http://www.w3.org/2000/svg" xml:space="preserve" width="2000px" height="1600px" version="1.1" style="shape-rendering:geometricPrecision; text-rendering:geometricPrecision; image-rendering:optimizeQuality; fill-rule:evenodd; clip-rule:evenodd"
viewBox="0 0 2000 1600"
 xmlns:xlink="http://www.w3.org/1999/xlink">
 <defs>
  <style type="text/css">
   <![CDATA[
    .fil1 {fill:#011763}
    .fil2 {fill:#1154C7}
    .fil4 {fill:#1550CD}
    .fil3 {fill:#3E87FD}
    .fil0 {fill:#CAA962}
    .fil5 {fill:#FEFEFE}
   ]]>
  </style>
 </defs>
 <g id="Capa_x0020_1">
  <metadata id="CorelCorpID_0Corel-Layer"/>
  <g id="Bluefield_x0020_State_x0020_College.cdr">
   <path class="fil0" d="M929.18 1447.83l-136.78 59 -12.27 -5.88c-274.6,-131.64 -489.75,-337.89 -598.81,-624.96 -33,-86.86 -55.13,-178.52 -65.2,-270.91 -3.16,-28.94 -5.15,-58.08 -5.72,-87.19 -0.26,-13.28 0.11,-26.31 0.11,-39.53l-0.08 -231.47 293.65 -34.78c8.4,-1 16.85,-2.42 25.29,-3.84 3.34,-5.77 6.92,-11.44 10.32,-16.7 17.35,-26.84 37.65,-52.31 58.91,-76.13l31.62 -35.44 18.29 43.82c9.31,22.24 19.15,44.42 29.17,66.43 61.56,-5.55 123.36,-9.23 185.09,-11.9 106.44,-4.61 213.12,-6.18 319.66,-6.18 186.26,0 374.07,13.34 558.34,40.8 53.86,8.03 107.66,17.28 160.99,28.28 19.89,4.1 40.04,8.37 59.72,13.37l28.21 7.17 -6.4 28.4c-85.07,377.48 -292.35,689.9 -589.56,930.85l31.63 26.13 -67.16 42.13c4.25,6.7 8.85,13.37 11.8,17.81 13.9,20.89 28.45,41.43 43.09,61.81 24.76,34.48 50.01,68.73 75.59,102.61l34.6 45.84 -57.39 2.07c-45.28,1.64 -90.71,-0.42 -135.75,-5.15 -101.11,-10.63 -202.95,-34.78 -300.96,-66.46z"/>
   <path class="fil1" d="M793.06 1473.97l79.45 -34.27c0,0 -167.73,-78.41 -207.72,-131.9 0,0 369.74,193.7 700.01,181.75 0,0 -155.01,-205.19 -144.36,-211.87l53.93 -33.83 -28.15 -23.25c233.04,-181.75 504.55,-478.45 607.89,-936.99 0,0 -320.41,-81.53 -771.68,-81.53 -255.85,0 -418.77,9.77 -523.1,19.93 -23.12,-50.16 -38.41,-86.66 -38.41,-86.66 -53.75,60.24 -72.06,100.07 -72.06,100.07 -15.52,26.9 -36.51,79.8 -36.51,79.8 -8.31,-22.85 -4.3,-67.73 -4.75,-73.41l-267.25 31.65 0.07 204.89c0.01,33.67 -33.93,666.5 652.64,995.62zm484.45 -1003.48c0,0 4.79,70.2 -31.88,98.46 -17.53,-20.12 -32.52,-35.1 -32.52,-35.1 46.74,-26.49 64.4,-63.36 64.4,-63.36zm-188.87 362.7c-19.99,0 -52.7,-11.48 -60.23,-33.55l27.52 0c4.79,0 41.46,24.37 64.14,29.08 0,0 -11.44,4.47 -31.43,4.47zm-583.08 -570.68c0,0 -22.85,56.08 -22.85,117.36 0,61.27 40.5,174.48 118.4,174.48 60.76,0 62.57,-15.84 62.31,-20.77 0,0 -170.33,-32.2 -157.86,-271.07z"/>
   <path class="fil2" d="M401.96 340.74c-36.5,5.27 -72.11,10.68 -106.63,16.13l-5.56 158.81c-0.06,1.72 -0.21,5.35 -0.32,10.63 29.18,-48.57 105.1,-102.24 105.1,-102.24 2.49,-23.61 7.39,-83.02 7.41,-83.33z"/>
   <path class="fil3" d="M1249.98 722.87c0,0 8.31,-28.04 10.91,-39.99 0,0 78.93,155.79 66.47,157.35 -12.46,1.56 -63.87,6.23 -63.36,9.87 0.52,3.63 61.8,203.56 54.27,208.49 -7.53,4.94 -5.45,4.68 -10.64,4.68 -5.2,0 -13.73,0.78 -16.85,-0.78 -3.11,-1.56 -118.14,-76.67 -129.56,-34.6 0,0 -10.91,0.52 -10.91,-15.58 0,-16.1 20.25,-36.35 43.62,-36.35 23.37,0 -68.81,-7.02 -99.44,-7.02 -30.64,0 -103.86,-5.71 -183.83,72.19 0,0 66.47,-36.87 181.75,-32.2 0,0 61.8,81.01 112.17,81.01l0 41.8c0,0 -87.24,-11.94 -157.87,-87.24 0,0 -84.12,-9.35 -141.25,50.89 0,0 18.18,3.64 44.14,18.18 25.97,14.54 131.39,83.6 230.05,83.6l26.49 35.32c0,0 -96.59,-10.91 -131.91,6.23 -35.31,17.13 -37.91,43.1 -13.5,92.43 0,0 -65.43,-35.31 -81.01,-82.05 0,0 -10.8,26.67 -3.63,51.41 0,0 -335.99,-97.11 -378.57,-250.82 -42.59,-153.71 179.67,-79.97 187.98,-36.35 8.31,43.62 21.75,98.64 33.75,126.19 3.12,-16.62 18.18,-96.07 44.15,-176.04 0,0 -125.16,-105.42 -125.16,-244.59 0,-139.17 120.48,-159.95 195.26,-159.95 74.78,0 205.64,41.55 316.48,163.92zm-232.35 -41.62c0,0 -105.94,-2.08 -178.64,54 0,0 124.64,-18.69 185.91,22.85 0,0 -91.39,-9.34 -127.75,11.43 0,0 37.39,43.62 99.71,70.62 0,0 -25.97,11.43 -43.62,12.47 0,0 116.32,35.31 207.72,13.5 0,0 16.62,31.67 19.73,30.12 3.12,-1.56 75.3,-56.61 74.26,-79.46 -1.04,-22.84 -20.25,-34.27 -32.2,-39.46 -15.38,-6.69 28.1,25.7 -13.75,25.7 -41.86,0 -165.92,-93.22 -191.37,-121.77z"/>
   <path class="fil4" d="M1124.62 871.9l0 0.01c0,0 -62.85,60.67 -51.42,61.19 11.42,0.52 95.55,-14.02 184.87,47.77 0,0 -41.96,-71.71 -32.72,-121.99 -19.94,19.16 -42.93,36.49 -44.66,37.36 -3.11,1.55 -19.73,-30.12 -19.73,-30.12 -11.8,2.81 -24.01,4.67 -36.34,5.78zm-708.05 -19.02c5.71,23.37 32.19,67.51 32.19,67.51 0,0 16.1,-45.7 43.62,-58.16 -41.84,-53.16 -16.74,-83.3 16.1,-62.84 0,0 -22.85,-42.06 -62.83,-42.06 -40.17,0 -35.79,68.14 -29.08,95.55zm21.29 -231.61c0,0 146.44,60.23 200.45,220.18l-66.47 -7.27c0,0 13.5,-74.78 -133.98,-212.91zm921.47 358.25c135.65,-151.01 262.14,-355.88 321.12,-628.41 -327.98,-86.9 -718.55,-75.77 -1062.91,-37.92 0.16,0.16 16.57,16.09 21.22,22.8 4.68,6.75 245.11,-56.08 524.49,153.72 0,0 96.59,-36.35 100.75,-151.64 0,0 155.79,106.98 59.2,341.7 0,0 46.73,60.24 85.16,198.37 0,0 -62.31,8.31 -63.35,8.31 -1.04,0 14.31,93.03 14.32,93.07zm-538.55 152.02c5.15,-26.66 19.6,-97.15 42.62,-168.05 0,0 -125.16,-105.42 -125.16,-244.59 0,-121.39 91.65,-152.7 164.69,-158.72 -63.66,14.57 -113.27,47.01 -113.27,118.47 0,150.59 181.75,256.01 181.75,256.01 -87.99,51.52 -139.4,168.98 -150.63,196.88zm253.45 107.18c-35.31,17.13 -37.91,43.1 -13.5,92.43 0,0 -65.43,-35.31 -81.01,-82.05 0,0 -10.8,26.67 -3.63,51.41 0,0 -16.7,-4.83 -43.09,-14.02 0.03,-0.12 10.91,-53.53 29.58,-84.65 0,0 39.47,51.93 71.66,68.55 0,0 -21.81,-52.97 -18.69,-77.89 0,0 7.28,10.39 58.68,46.22zm63.34 27.44c0,0 -3.12,31.16 75.3,138.65 0,0 -110.1,-61.79 -110.1,-110.61 0,-37.9 34.8,-28.04 34.8,-28.04zm-204.61 20.32c-92.09,-32.08 -302.35,-117.34 -335.44,-236.79 -42.59,-153.71 179.67,-79.97 187.98,-36.35 8.31,43.62 21.94,97.64 33.94,125.19 0,0 -34.46,-33.28 -52.11,-22.89 -17.66,10.38 -9.35,36.35 12.46,64.39 21.81,28.04 58.19,66.48 153.17,106.45zm159.45 -277.55c0,0 61.8,81.01 112.17,81.01l0 41.8c0,0 -50.21,-6.88 -105.29,-43.07 -15.74,-38.19 -6.88,-79.74 -6.88,-79.74z"/>
   <path class="fil5" d="M1011.32 1078.43c0,0 64.91,49.07 138.13,76.34 -3.72,1.03 -7.44,2.07 -11.16,3.11 -36.15,-8.63 -74.81,-24.05 -115.8,-45.84l-1.82 -6.78 -9.5 9.5 0.15 -36.33zm234.31 -509.48c5.32,6.09 10.86,12.66 16.3,19.42 0,0 17.24,-19.05 22.85,-39.98 5.61,-20.94 7.79,-52.97 -7.27,-77.9 0,0 4.79,70.2 -31.88,98.46zm-740.07 -306.44c0,0 46.74,108.02 94.51,157.87 47.78,49.85 113.21,76.86 113.21,118.4 0,41.54 -46.74,46.74 -78.93,46.74 0,0 50.75,-45.13 29.07,-51.94 0,0 -170.33,-32.2 -157.86,-271.07z"/>
  </g>
 </g>
</svg>
