<?xml version="1.0" encoding="UTF-8"?>
<!DOCTYPE svg PUBLIC "-//W3C//DTD SVG 1.1//EN" "http://www.w3.org/Graphics/SVG/1.1/DTD/svg11.dtd">
<!-- Creator: CorelDRAW -->
<svg xmlns="http://www.w3.org/2000/svg" xml:space="preserve" width="2000px" height="1600px" version="1.1" style="shape-rendering:geometricPrecision; text-rendering:geometricPrecision; image-rendering:optimizeQuality; fill-rule:evenodd; clip-rule:evenodd"
viewBox="0 0 2000 1600"
 xmlns:xlink="http://www.w3.org/1999/xlink">
 <defs>
  <style type="text/css">
   <![CDATA[
    .fil3 {fill:#040204;fill-rule:nonzero}
    .fil1 {fill:#8D021C;fill-rule:nonzero}
    .fil2 {fill:#D90229;fill-rule:nonzero}
    .fil0 {fill:#FBFDFB;fill-rule:nonzero}
   ]]>
  </style>
 </defs>
 <g id="Capa_x0020_1">
  <metadata id="CorelCorpID_0Corel-Layer"/>
  <g id="Boston_x0020_University_x0020_Terriers.cdr">
   <path class="fil0" d="M1250.71 1353.14c19.19,-0.12 38.35,0.12 57.54,-0.15 3.22,3.85 9.32,6.74 8.66,12.64 0.03,14.16 0.36,28.39 -0.21,42.56 -2.53,5.59 -7.67,9.62 -13.42,11.64 6.17,7.94 6.35,24.09 18.83,23.94 0.06,5.89 0.09,11.79 0.15,17.71 -6.28,-0.06 -12.54,-0.12 -18.8,-0.24 -7.64,-14.37 -12.93,-30.1 -22.22,-43.52l-3.85 1.54c-0.57,8 -0.24,16.03 -0.21,24.09 2.01,-0.06 6.07,-0.12 8.12,-0.15 0.06,6.01 0.09,12.09 0.15,18.16 -11.52,0.06 -23.04,0.03 -34.56,0.15 -0.09,-6.07 -0.12,-12.12 -0.15,-18.13 2.07,0 6.22,-0.06 8.3,-0.06 0.06,-23.88 -0.15,-47.74 0.12,-71.59 -2.08,-0.15 -6.23,-0.48 -8.3,-0.63 -0.06,-5.99 -0.09,-12 -0.15,-17.96zm316.6 -0.03c12.03,0 24.06,-0.03 36.09,0.03 0,5.99 0.03,12.01 0.06,18.02 -2.17,0 -6.53,0 -8.69,0 4.06,7.7 8,15.49 12.66,22.89 3.55,-7.34 7.79,-14.38 10.35,-22.14 -1.72,-0.33 -5.15,-1.02 -6.83,-1.38 -0.03,-5.81 0,-11.61 0.03,-17.39 11.28,-0.06 22.56,-0.03 33.84,-0.03 -0.03,5.84 -0.06,11.67 -0.12,17.51 -8.01,-0.78 -9.57,7.79 -12.7,13.2 -4.84,10.71 -11.13,20.79 -15.34,31.79 -1.02,9.12 -0.27,18.32 -0.48,27.5 2.08,0.12 6.26,0.3 8.33,0.39 -0.06,5.98 -0.12,11.97 -0.21,17.95 -11.52,-0.03 -23.04,0.03 -34.56,-0.21 0.09,-5.92 0.15,-11.82 0.24,-17.68 2.08,-0.12 6.2,-0.39 8.25,-0.51 -1.03,-11.64 2.7,-24.52 -3.76,-35.07 -6.65,-11.95 -12.37,-24.43 -19.37,-36.13 -1.96,-0.3 -5.84,-0.84 -7.79,-1.14 -0.03,-5.9 -0.03,-11.76 0,-17.6zm-93.34 0.18c24.85,-0.39 49.69,-0.09 74.57,-0.18 0,13.06 0.09,26.11 -0.18,39.19 -5.9,-0.02 -11.79,0 -17.69,0.1 -0.15,-7.07 -0.21,-14.14 -0.24,-21.18 -2.59,0 -7.79,-0.03 -10.41,-0.03 -0.24,23.82 0.27,47.64 -0.27,71.47 2.11,0.27 6.32,0.78 8.42,1.02 0.03,5.86 0.06,11.76 0.16,17.65 -11.59,0.12 -23.17,0.12 -34.72,0.03 0,-5.89 0.04,-11.76 0.07,-17.59 2.1,-0.33 6.37,-0.93 8.51,-1.24 -0.66,-23.79 -0.06,-47.58 -0.36,-71.37 -2.59,0.03 -7.82,0.06 -10.41,0.09 -0.03,7.04 -0.06,14.05 -0.12,21.09 -5.78,-0.06 -11.49,-0.09 -17.24,-0.09 -0.05,-13 0.03,-25.99 -0.09,-38.96zm-132.34 9.27c3.52,-3.16 6.35,-7.61 10.98,-9.27 13.08,-0.6 26.23,-0.03 39.37,-0.12 3.01,3.07 6.08,6.17 9.12,9.24 0.06,7.16 0.06,14.35 0.06,21.53 -6.02,0 -12.03,0 -18.05,0 0,-4.24 0,-8.48 0,-12.72 -7.76,-0.03 -15.52,-0.03 -23.25,0 -0.09,8.48 -0.09,16.96 0.03,25.48 10.5,-0.03 21.02,0 31.58,-0.09 3.16,3 6.35,6.04 9.57,9.05 0.12,11.79 0.21,23.58 0.18,35.4 1.62,9.17 -7.4,14.35 -12.52,20.42 -12.03,-0.12 -24.03,-0.09 -36.03,-0.03 -3.7,-3.73 -7.37,-7.43 -11.04,-11.12 0.06,-6.62 0.09,-13.24 0.15,-19.83 5.99,0 12,0.03 17.99,0.09 0,4.22 0.03,8.49 0.06,12.76 7.7,-0.03 15.4,0 23.13,0.12 0.21,-9.6 0.18,-19.22 0.03,-28.82 -10.05,0 -20.12,0.57 -30.14,-0.12 -4.51,-2.34 -7.64,-6.58 -11.25,-10.01 0.15,-13.99 0.15,-27.97 0.03,-41.96zm-176.07 8.27c0.12,-5.68 -0.06,-11.37 0.57,-16.99 21.9,-1.63 44,-0.46 65.99,-0.52 -0.12,10.98 -0.12,21.96 -0.15,32.97 -6.29,-0.06 -12.6,-0.09 -18.89,-0.18 0,-4.99 0,-9.99 0,-14.92 -6.98,0 -13.96,0 -20.93,0.03 -0.03,7.22 0,14.47 0,21.72 7.28,0 14.58,0.03 21.86,0.15 -0.03,5.89 0,11.79 0.06,17.71 -7.4,0.15 -14.76,0.24 -22.16,0.57 0.3,10.62 0.27,21.27 0.18,31.92 7.01,0.03 14.04,0.03 21.11,0 -0.12,-7.58 -0.06,-15.16 0.21,-22.71 6.2,0.09 12.39,0.15 18.59,0.21 0.03,13.53 0.03,27.1 0,40.63 -22.05,0 -44.12,-0.06 -66.17,0.06 -0.03,-5.95 -0.03,-11.88 -0.03,-17.8 2.13,-0.24 6.38,-0.75 8.48,-1.02 -0.54,-23.77 -0.06,-47.53 -0.27,-71.29 -2.11,-0.12 -6.35,-0.39 -8.45,-0.54zm-98.96 -17.69c11.49,-0.06 22.98,-0.06 34.5,0 0.03,6.02 0.03,12.01 0.06,18.02 -2.01,-0.03 -6.1,-0.12 -8.12,-0.15 4.75,18.35 7.79,37.21 13.78,55.25 4.48,-18.34 8.78,-36.75 13.08,-55.16 -2.08,0 -6.2,0.03 -8.27,0.06 0,-6.05 0.03,-12.03 0.06,-18.02 11.49,-0.06 23.01,-0.06 34.5,-0.03 0.03,5.96 0.06,11.91 0.12,17.9 -1.93,0.09 -5.78,0.24 -7.7,0.33 -7.58,29.93 -14.77,59.98 -22.08,89.96 -6.8,0.09 -13.59,0.09 -20.36,-0.06 -6.98,-30.07 -14.98,-59.85 -22.44,-89.78 -1.83,-0.15 -5.44,-0.39 -7.25,-0.51 0.03,-5.95 0.06,-11.88 0.12,-17.81zm-53.6 4.97c2.95,-1.48 5.81,-3.1 8.73,-4.67 8.39,-0.51 16.81,-0.39 25.2,-0.33 0.03,5.9 0.06,11.79 0.12,17.72 -1.86,0.18 -5.62,0.54 -7.52,0.69 0.09,23.52 -0.3,47.04 0.24,70.56 10.8,0.43 6.35,12.25 7.52,19.22 -11.34,0.12 -22.71,0.12 -34.05,0.18 -0.06,-5.92 -0.08,-11.88 -0.15,-17.8 1.93,-0.21 5.78,-0.66 7.7,-0.87 -0.3,-23.86 -0.06,-47.71 -0.18,-71.56 -1.83,0 -5.5,0 -7.34,0 -0.09,-4.42 -0.18,-8.78 -0.27,-13.14zm-332.2 -5c8.42,-0.06 16.81,-0.03 25.23,0.24 8.06,19.19 14.95,38.99 24.63,57.42 0.88,-13.14 0.4,-26.29 0.37,-39.43 -2.05,-0.06 -6.14,-0.18 -8.15,-0.24 0,-6.02 0,-12 0.02,-17.99 11.55,0 23.07,0 34.59,0 0,5.99 -0.03,12 -0.06,18.02 -2.07,0.12 -6.22,0.3 -8.3,0.42 0.06,29.99 0.33,60.01 -0.15,89.99 -5.68,-0.09 -11.34,-0.18 -17.02,-0.3 -8.06,-19.07 -15.61,-38.38 -24.7,-56.99 -0.33,12.99 -0.06,26.01 -0.18,39.04 2.08,0.03 6.26,0.09 8.34,0.12 -0.03,6.01 -0.1,12.06 -0.19,18.13 -11.51,-0.18 -23.03,-0.09 -34.55,-0.21 0.06,-6.04 0.12,-12.06 0.15,-18.04 2.07,-0.03 6.16,-0.06 8.21,-0.09 -0.12,-23.98 0.18,-47.95 -0.18,-71.92 -2.02,-0.03 -6.08,-0.12 -8.09,-0.15 0,-6.05 0,-12.03 0.03,-18.02zm-170.69 0.03c24.72,-0.15 49.44,0.15 74.17,-0.15 0.54,13.06 0.21,26.14 0.33,39.22 -6.05,0 -12.12,-0.02 -18.2,-0.02 0.06,-7.1 0.06,-14.17 0.06,-21.21 -2.47,0.18 -7.4,0.57 -9.9,0.75 0.31,23.82 0.13,47.68 0.13,71.53 2.07,0.03 6.25,0.12 8.33,0.15 -0.03,6.01 -0.09,12.06 -0.15,18.1 -11.52,-0.12 -23.04,-0.06 -34.59,-0.18 0.06,-6.04 0.12,-12.12 0.18,-18.13 1.86,0.03 5.59,0.09 7.46,0.12 -0.03,-24.06 0.03,-48.13 -0.03,-72.16 -2.41,0.06 -7.25,0.18 -9.69,0.24 0,6.92 -0.03,13.87 -0.03,20.81 -6.04,0 -12.09,0 -18.11,0 0.07,-13.02 0.04,-26.04 0.04,-39.07zm-78.33 9.66c3.16,-3.31 6.35,-6.56 9.57,-9.78 13.2,0.12 26.41,0.12 39.64,0.03 3.31,3.01 6.74,5.9 9.75,9.27 1.35,7.13 0.45,14.49 0.45,21.74 -6.29,-0.09 -12.58,-0.15 -18.83,-0.24 0.03,-4.21 0.09,-8.42 0.12,-12.6 -7.49,-0.03 -14.98,-0.06 -22.47,0 -0.03,8.48 -0.03,16.96 0,25.45 10.11,0.18 20.24,-0.48 30.32,0.27 4.63,2.31 7.61,6.89 11.22,10.49 -0.64,13.27 0.27,26.56 -0.42,39.83 -3.58,5.29 -8.04,10.37 -13.39,13.92 -11.67,0.72 -23.4,0.03 -35.1,0.18 -3.55,-3.67 -7.13,-7.31 -10.68,-10.91 -0.06,-6.65 -0.09,-13.27 -0.18,-19.86 6.02,-0.06 12.06,-0.09 18.11,-0.12 0.03,4.24 0.09,8.52 0.12,12.79 7.49,0.09 14.98,0.09 22.47,0.03 0.03,-9.54 0,-19.04 -0.15,-28.58 -10.2,0.09 -20.4,0.12 -30.59,-0.09 -3.22,-3.28 -6.44,-6.49 -9.72,-9.71 -0.27,-14.05 0.03,-28.1 -0.24,-42.11zm988.99 -9.84c11.22,0.21 22.44,0.21 33.68,0.06 0.09,5.96 0.15,11.91 0.21,17.93 -1.92,0.15 -5.8,0.51 -7.72,0.69 0.17,23.85 0.08,47.7 0.05,71.56 1.9,0.09 5.72,0.21 7.65,0.27 -0.07,5.98 -0.07,11.97 -0.1,17.98 -11.31,-0.03 -22.61,-0.06 -33.92,-0.09 0.03,-6.04 0.06,-12.06 0.09,-18.04 1.89,-0.03 5.65,-0.06 7.52,-0.09 -0.03,-23.97 0,-47.95 0,-71.89 -1.9,-0.09 -5.72,-0.24 -7.64,-0.33 0.06,-6.01 0.09,-12.03 0.18,-18.05zm-502.99 0.09c8.09,0.03 16.21,0.06 24.33,0.03 8.45,19.61 15.97,39.62 25.03,58.96 0.3,-13.63 0.15,-27.28 0.03,-40.91 -2.05,0.03 -6.11,0.03 -8.16,0.03 -0.03,-6.14 -0.03,-12.27 -0.03,-18.41 2.44,0.24 7.28,0.72 9.72,0.93 7.91,3.61 16.3,6.23 24.99,7.22 -0.03,3.34 0,6.68 0,10.05 -2.07,0.12 -6.22,0.33 -8.3,0.45 -0.06,30.02 0.03,60.01 -0.03,90.02 -5.59,0 -11.16,-0.03 -16.75,-0.03 -8.27,-18.67 -15.55,-37.8 -24.39,-56.24 -0.43,12.72 -0.24,25.44 -0.18,38.17 2.07,0.06 6.22,0.15 8.3,0.18 -0.03,5.98 -0.06,11.97 -0.09,17.95 -11.55,-0.06 -23.07,-0.06 -34.59,-0.03 -0.06,-5.89 -0.09,-11.76 -0.12,-17.62 1.92,-0.21 5.8,-0.6 7.73,-0.81 -0.18,-23.83 -0.06,-47.62 -0.09,-71.44 -1.93,-0.18 -5.78,-0.51 -7.7,-0.69 0.09,-5.96 0.18,-11.88 0.3,-17.81zm-96.16 -0.09c11.4,0.21 22.83,0.21 34.26,0.06 0.09,5.99 0.18,12 0.27,18.05 -2.11,0.06 -6.32,0.15 -8.42,0.21 0.06,24.06 -0.18,48.13 0.15,72.16 7.91,-0.09 15.85,-0.12 23.76,0 0.33,-24.03 0.03,-48.1 0.15,-72.16 -2.11,-0.06 -6.32,-0.15 -8.42,-0.21 0.09,-6.05 0.15,-12.06 0.3,-18.11 11.46,0.21 22.89,0.21 34.32,0.06 0.09,6.02 0.15,12.06 0.21,18.11 -2.08,0.03 -6.26,0.09 -8.36,0.15 -0.21,26.41 0.39,52.85 -0.24,79.23 -2.56,4.15 -6.35,7.33 -9.66,10.88 -13.44,0.03 -26.86,0.03 -40.3,0.03 -3.31,-3.61 -7.34,-6.73 -9.75,-11.03 -0.57,-26.35 -0.03,-52.73 -0.21,-79.11 -2.1,-0.03 -6.32,-0.15 -8.42,-0.18 0.09,-6.08 0.18,-12.12 0.36,-18.14zm235.06 -126.5c13.62,-6.5 28.3,-10.68 43.28,-12.51 1.23,5.08 2.53,10.19 3.52,15.36 -16.33,1.18 -34.23,-0.84 -48.04,9.75 -1.38,-3.91 -3.73,-10.23 1.24,-12.6zm-31.34 -36.79c13.47,0 25.32,-9.56 38.77,-7.58 14.28,6.08 25.65,17.18 37.11,27.37 -13.23,2.83 -26.38,6.14 -39.82,7.88 -11.13,-10.34 -23.58,-19.07 -36.06,-27.67zm12.93 -26.47c-3.52,-9.02 1.59,-18.49 10.08,-22.28 9.8,3.42 19.4,7.39 29.38,10.25 1.11,1.66 3.28,4.96 4.39,6.65 -11.46,-2.23 -24.15,-0.3 -35.01,-4.66 -1.05,-1.6 -3.16,-4.81 -4.21,-6.44 0.33,2.92 0.96,8.78 1.29,11.7 15.22,1.69 30.77,0.96 46.11,1.59 -5.08,-0.78 -8.84,-3.75 -10.52,-8.6 7.24,4.82 15.73,7.25 23.28,11.58 -15.01,1.3 -30.14,0.24 -45.09,2.23 -6.56,0.51 -13.99,2.35 -19.7,-2.02zm-192.05 -12.18c20.55,-10.74 45.39,-11.31 67.74,-6.77 46.41,12.25 90.95,32.7 129.21,61.78 5,3.64 9.27,8.13 13.3,12.79 -8.97,2.88 -17.78,6.25 -26.17,10.52 -3.85,-6.94 -8.06,-13.65 -12.45,-20.24l-0.24 1.51c13.59,22.34 8.18,53.17 -10.23,71.22 -16.42,15.85 -40.7,24.15 -63.31,19.34 -15.79,-3.19 -29.09,-13.69 -39.44,-25.6 -10.67,-20.36 -13.86,-45.92 -3.42,-67.1 4.27,-10.29 12.78,-17.81 18.85,-26.95 -28.81,17.63 -31.7,55.25 -32.21,85.69 -7.88,-1.44 -16.54,-3.34 -21.29,-10.47 -11.74,-12.93 -8.94,-31.43 -9.75,-47.43 -0.81,-19.43 9.81,-37.14 22.95,-50.65 -28.94,20.03 -33.69,59.47 -29.48,91.8 -10.04,-5.66 -23.49,-10.23 -26.49,-22.77 -4.31,-26.83 -0.09,-58.77 22.43,-76.67zm263.36 -9.59c42.5,27.37 64.4,78.71 65.6,128.04 -0.36,12.69 2.5,26.74 -4.69,38.11 -4.72,-2.59 -14.38,-3.16 -12.6,-10.89 6.83,-31.43 6.83,-66.26 -9.93,-94.75 -10.56,7.7 -14.98,20.67 -20.24,32.1 1.62,-15.7 8.78,-29.96 17.78,-42.62 -0.88,-4.4 -6.26,-5.57 -9.06,-8.4 -2.61,3.88 -5.17,7.83 -7.97,11.55 1.81,-6.01 3.79,-11.97 5.9,-17.86 -4.75,-5.75 -12.06,-10.23 -13.69,-17.87 -1.11,-7.13 -7.01,-11.91 -11.1,-17.41zm-148.85 -1.12c-4.63,-13.44 19.73,-20.27 24.54,-7.88 6.02,13.96 11.25,28.25 16.91,42.35 -4.61,-2.7 -9.12,-5.47 -13.6,-8.3 -4.06,-12.78 -16.36,-21.95 -16.54,-36 -1.08,1.86 -2.05,3.76 -2.92,5.74 3.97,11.22 13.84,19.1 17.66,30.41 -12.76,-3.82 -18.98,-16.21 -26.05,-26.32zm-37.18 -14.89c-2.64,-6.28 -2.1,-13.05 1.45,-18.91 4.66,5.62 4.72,14.43 -1.45,18.91zm37.33 -23c17.5,-10.23 38.92,-8.27 57.9,-4.09 2.43,4.75 4.75,9.59 6.92,14.49 -21.9,0.82 -45.27,0.6 -64.82,-10.4zm211.57 13.86c12.06,-12.18 23.46,-25.02 33.62,-38.86 6.89,5.39 16.21,7.43 21.6,14.71 -9.12,6.89 -19.73,12.21 -31.34,12.39 -6.41,6.74 -13.72,13.54 -23.88,11.76zm-172.68 -58.83c0.93,-5.83 1.99,-11.64 3.19,-17.38 3.22,3.57 6.22,7.36 9.02,11.3l-6.71 1.15c2.71,3.52 7.22,6.28 5.87,11.7 -3.94,-2.05 -7.67,-4.39 -11.37,-6.77zm-242.25 19.04c5.99,-15.76 19.31,-29.21 36.13,-32.69 19.76,-4.19 39.88,2.37 57.33,11.42 34.83,17.48 60.54,50.26 72.9,86.87 -5.59,-1.05 -11.18,-2.14 -16.78,-3.22 -7.49,-21.53 -23.85,-38.65 -40.79,-53.27 -14.76,-11.55 -30.04,-24.57 -49.08,-27.94 -14.65,-2.53 -28.15,5.66 -38.23,15.43 4.3,-11.1 15.1,-16.6 24.51,-22.65 -19.01,-1.02 -36.27,10.26 -45.99,26.05zm218.58 -11.58c5.17,-11.01 11.7,-22.26 23.13,-27.73 -1.33,7.94 -1.78,16.06 -0.87,24.09 -7.55,0.33 -15.04,1.38 -22.26,3.64zm-137.97 -20.78c0.87,-5.48 8.27,-5.84 12.64,-5.66 12.33,2.35 21.5,14.32 22.25,26.65 -8.72,-2.44 -10.89,-11.52 -15.04,-18.38 0.55,2.38 1.57,7.1 2.08,9.48 -7.16,-4.36 -14.77,-7.79 -21.93,-12.09zm123.05 -35.11c0.27,19.8 -1.65,40.16 6.8,58.78 -9.99,8 -23.55,11.97 -36.31,10.43 1.39,-25.53 12.61,-50.14 29.51,-69.21zm9.75 54.17c-8.25,-19.39 -9.51,-42.4 -0.79,-61.86 6.77,12.96 12.58,27.28 25.3,35.7 -9.84,7.04 -18.32,15.73 -24.51,26.16zm-192.74 -73.38c14.4,1.95 28.63,4.99 43.04,7.12 -2.11,3.76 -4.21,7.46 -6.35,11.22 -3.4,-2.1 -6.8,-4.12 -10.22,-6.1 3.49,4.75 12.03,8.69 6.19,15.25 -12.66,-6.59 -21.05,-19.22 -32.66,-27.49zm56.3 5.14c2.35,-5.17 5.63,-9.87 9.84,-13.69 -4.48,22.02 13.92,38.74 22.32,57.27 -1.84,-0.66 -5.48,-1.92 -7.31,-2.59 -5.51,-4.12 -10.2,-9.11 -14.86,-14.13 -5.6,3.22 -11.16,6.46 -16.75,9.68 2.46,-5.29 5.11,-10.49 7.61,-15.76 -7.01,6.08 -13,13.21 -19.83,19.46 4.55,-14.22 12.52,-26.92 18.98,-40.24zm101.3 -13.51c3.89,-3.67 9.24,-2.94 12.79,0.82 6.01,6.1 10.34,14.28 19.01,17.23 -19.01,18.53 -32.01,42.11 -40.67,66.98 -7.04,-28.27 -4.57,-59.01 8.87,-85.03zm-82.47 24.16c12.45,-20.91 23.16,-43.04 36.34,-63.62 5.62,9.42 8,21.96 1.17,31.4 -10.41,16.28 -13.06,35.77 -15.64,54.47 -0.51,0.3 -1.54,0.91 -2.08,1.21 -7.1,-6.53 -11.7,-15.31 -19.04,-21.63l-0.75 -1.83zm383.91 -65.93c8.76,1.14 19.43,3.54 21.66,13.53 -6.41,-2.8 -12.81,-5.68 -19.7,-7.01 -0.66,-2.19 -1.33,-4.36 -1.96,-6.52zm-65.33 0.39c16.13,-3.52 32.82,-4.58 49.24,-3.01 8.36,0 10.74,10.04 11.34,16.72 -2.68,-2.97 -4.03,-8.12 -8.78,-8.06 -19.19,-3.76 -39.64,-2.16 -57.06,7.13 -4.51,-0.96 -9.05,-1.83 -13.56,-2.35 2.88,3.49 6.43,6.32 10.04,9.06 -6.28,-1.15 -12.24,-3.55 -17.83,-6.59 6.88,-7.58 16.96,-10.59 26.61,-12.9zm-255.72 -2.56c20.52,-11.76 43.62,1.65 59.56,15.04 8.27,8.72 18.2,18.29 19.19,30.98 -7.82,-13.69 -18.68,-27.19 -34.59,-31.43 -11.85,-2.95 -25.03,-10.53 -36.76,-3.34 -11.79,5.56 -18.47,17.2 -26.89,26.53 6.38,-12.51 14.38,-25.57 27.43,-31.94 10.59,-3.4 21.69,0.42 32.43,0.87 -11.88,-7.94 -26.65,-8.75 -40.37,-6.71zm78.45 19.1c16.81,-12.27 35.61,-26.92 57.54,-25.75 -8.76,6.2 -19.49,8.06 -29.21,12.18 -9.8,3.73 -18.89,9.06 -28.33,13.57zm-12.46 -10.95c11.28,-15.13 31.89,-18.32 49.36,-21.05 -17.26,5.08 -33.02,13.8 -49.36,21.05zm6.62 -64.3c1.5,-0.67 4.57,-1.99 6.11,-2.65 -0.66,7.28 -1.66,14.53 -3.22,21.68l-4.39 -3.54c0.15,-1.54 0.45,-4.64 0.63,-6.2 0.21,-2.32 0.63,-6.95 0.87,-9.29zm210.67 -8.46c1.5,-0.75 4.51,-2.25 5.98,-2.97 1.78,7.79 0.54,15.67 -2.53,22.98 -5.65,-2.38 -16.99,1.47 -17.02,-7.55 0.87,1.17 2.59,3.52 3.46,4.69l6.2 -0.18c-0.18,-2.44 -0.49,-7.31 -0.64,-9.75l4.03 1.09c0.16,-2.08 0.39,-6.23 0.52,-8.31zm-160.71 -9.74c18.2,11.64 35.34,25.59 55.86,33.11 -4.28,3.28 -9.99,3.1 -14.98,4.4 -15.01,2.58 -29.9,5.98 -44.61,9.95 4.81,-15.28 7.37,-31.64 3.73,-47.46zm-89.18 21.71c2.47,-12.54 3.79,-25.92 10.89,-36.9 -4.03,15.28 -6.86,30.8 -9.02,46.44 -1.15,-3.04 -2.83,-6.2 -1.87,-9.54zm44.76 -41.11c12.27,-3.04 23.34,4 31.25,12.72 7.79,13 1.8,27.85 0.51,41.63 -1.33,0.36 -4,1.05 -5.36,1.38 0.3,-8.33 0.67,-16.66 0.58,-24.99 -1.54,8.06 -2.68,16.27 -5.66,23.97 -2.07,-13.26 1.93,-28.09 -6.83,-39.64 -3.37,-0.06 -6.73,-0.12 -10.07,-0.18 -3.31,5.35 -6.53,10.76 -9.21,16.45 -2.07,4.36 -3.61,8.93 -5.38,13.41 -1.23,2.74 -3.67,8.19 -4.9,10.92 -0.33,-7.79 0,-15.52 -0.18,-23.31l0.99 -2.31c0.93,-11.25 5.83,-22.44 14.26,-30.05zm-54.87 39.19c0.91,-16.48 5.12,-33.63 15.22,-46.95 -6.19,14.65 -9.68,30.23 -11.28,46.02 -0.99,0.24 -2.94,0.69 -3.94,0.93zm40.07 -53.06c4.27,-6.86 15.01,-7.16 18.5,0.6 -8.55,11.31 -18.53,22.11 -22.5,36.13 -6.95,21.35 -0.63,44.27 9.17,63.64 -9.38,1.08 -12.87,-8.78 -17.11,-15.13 -15.98,-26.95 -7.13,-62.29 11.94,-85.24zm106.86 -8.24c18.5,12.78 35.92,27.49 52.04,43.16 9.14,7.82 4.48,23.52 -4.06,29.48 2.28,-7.94 5.56,-17.42 -1.3,-24.15 -15.04,-16.67 -30.74,-32.73 -46.68,-48.49zm134.84 8.84c9.81,-11.06 10.5,-26.16 13.27,-39.91 8.06,23.85 -8.19,45.06 -22.23,62.47l0.6 -10.95c-2.38,3.7 -2.98,7.97 -2.71,12.28 -2.07,2.7 -4.72,4.84 -7.22,7.09 2.23,-4.21 4.88,-8.21 6.38,-12.75 -9.41,7.82 -17.02,17.63 -27.07,24.73 -0.03,-2.17 -0.12,-6.53 -0.15,-8.7 13.9,-10.31 27.58,-21.29 39.13,-34.26zm-288.89 -56.87c12.75,-6.77 29.83,-6.17 40.99,3.61 22.02,17.65 36.37,42.44 54.77,63.43 1.69,-1.23 3.34,-2.5 5.06,-3.73 -1.36,-1.44 -4,-4.33 -5.33,-5.77 30.65,22.67 66.5,38.1 104.4,43.1 -0.69,4.36 -1.65,8.69 -2.83,12.96 -28.21,-8.42 -56.84,-17.84 -81.12,-35.01 -4.33,-3.13 -9.08,-6.2 -11.3,-11.28 -1.39,1.51 -2.74,3.04 -4.07,4.57 18.65,11.91 36.07,26.08 56.04,36.1 -14.56,-1.93 -27.82,-9.12 -39.55,-17.63 -19.22,-13.75 -37.81,-28.36 -55.31,-44.21 -14.32,-14.23 -29.45,-30.23 -50.02,-34.5 -18.14,-0.82 -32.46,12.54 -45.12,23.82 6.86,-17.09 22.65,-31.43 42.11,-29.54 16.57,-2.31 29.65,9.15 41.93,18.32 -5.3,-6.98 -10.8,-14.08 -18.08,-19.13 -9.78,-6.02 -21.63,-4.93 -32.57,-5.11zm212.58 -78.3c29.48,17.78 56.07,40.88 75.86,69.18 -17.51,-17.32 -35.4,-34.56 -56.49,-47.61 2.8,7.94 6.26,15.7 8.31,23.91 -8.64,-15.52 -18.2,-30.47 -27.68,-45.48zm-202.6 -29.11c12.96,-11.7 28.33,-23.58 46.8,-22.86 20,1.56 35.95,15.43 49.51,29 24.93,27.01 48.03,56.24 64.76,89.09 -21.15,-28.76 -41.03,-59.05 -67.74,-83.08 -13.23,-13.26 -34.8,-14.98 -51.64,-8.75 -0.03,-0.78 -0.03,-2.41 -0.03,-3.22 5.89,-2.53 12,-4.51 17.99,-6.77 -17.69,-1.65 -34.8,4.94 -49.24,14.74 -17,11.61 -33.51,24.06 -48.61,38.14 -2.28,2.29 -5.02,3.64 -8.24,4.06 13.9,-18.14 29.81,-34.68 46.44,-50.35zm182.36 -38.8c15.01,-14.77 31.73,-28.3 51.19,-36.73 -14.58,15.1 -35.34,22.68 -50.35,37.6l-0.84 -0.87zm-103.25 16.75c38.1,15.46 71.7,39.83 102.83,66.32 -8.99,-12.93 -22.92,-21.2 -33.11,-33.02 28.39,2.47 48.78,25.11 63.28,47.58 15.55,22.71 22.59,49.6 30.62,75.5 1.2,-0.21 3.58,-0.66 4.75,-0.91 5.9,-10.37 9.45,-21.89 13.78,-32.99 7.15,0.99 4.39,9.2 3.76,14.13 -5.21,21.27 -10.23,43.44 -23.34,61.45 -6.14,9.48 -14.65,18.17 -16.04,29.9l-3.58 -2.61c1.78,8.54 1.84,17.26 1.15,25.95 21.26,3.97 43.34,7.67 62.29,18.68 -23.73,-0.18 -47.61,0.45 -70.83,5.53 32.21,0.97 65.75,-6.31 96.91,5.45 9.53,4.03 23.07,5.5 26.83,16.81 7.21,19.58 5.77,40.94 4.06,61.33 -2.98,30.17 -17.45,59.64 -41.18,78.83 -10.68,8.58 -24.76,0.09 -34.65,-5.74 -0.12,-12.63 13.96,-20.57 15.01,-33.54 -8.87,12.85 -15.64,27.1 -25.93,39.01 -19.52,22.62 -43.7,43.46 -73.42,50.56 -23.67,5.39 -49.2,7.25 -72.48,-0.57 -22.47,-11.58 -31.77,-37.81 -36.64,-61.06 -3.88,-14.01 0.78,-28.3 -0.39,-42.37 -1.14,4.42 -1.75,8.96 -2.2,13.5 -8.3,-9.14 -21.2,-12.96 -27.94,-23.64 -5.56,-7.52 -8.54,-17.12 -15.64,-23.37 -10.26,-3.28 -15.73,-13.27 -25.17,-17.87 1.2,-1.56 3.64,-4.69 4.84,-6.25 -16.21,-0.27 -26.62,15.1 -32.25,28.48 4.07,-4.33 7.86,-8.9 12.34,-12.78 -8.85,26.71 -15.13,56.96 -3.91,83.94 -1.45,0.03 -4.3,0.15 -5.75,0.21 4.6,6.8 12.33,12.94 21.12,11.1 15.04,-2.76 28.33,-10.91 42.92,-15.25 8.81,-1.95 17.92,-0.66 26.86,-0.21 0.84,6.26 1.44,12.55 2.01,18.83 -15.1,-2.01 -29.95,2.14 -43.85,7.64 0.45,-1.86 1.38,-5.59 1.83,-7.46 -9.29,8.81 -17.95,19.1 -29.59,24.85 -10.71,-1.87 -17.48,-12.28 -24.15,-19.98 -1.45,1.6 -2.86,3.19 -4.31,4.82 6.59,5.26 10.77,13.02 7.58,21.56 -6.55,-7.55 -12.21,-15.79 -18.47,-23.55 4.07,-1.71 8.07,-3.64 11.83,-5.95 -19.19,-20.28 -17.66,-50.35 -16.85,-76.25 2.95,-20.75 13.69,-40.09 28.34,-54.92 7.49,-6.8 17.35,-1.06 25.29,1.68 21.33,7.22 34.8,26.62 47.61,43.95 7.22,-20.04 22.62,-36.55 41.93,-45.39 8.57,-4.24 19.07,-5.42 25.63,-13 13.08,-14.25 28.84,-26.46 47.13,-33.17 10.56,-3.82 22.08,-3.34 32.7,-7.1 3.12,-10.98 7.39,-22.08 6.91,-33.66 -2.82,-6.64 -8.51,-11.49 -13.53,-16.42 -26.71,-24.39 -56.25,-46.41 -77.12,-76.4 -6.5,-9.89 -14.83,-19.58 -16.3,-31.73 15.94,4.48 29.05,15.13 43.16,23.4 10.13,5.78 18.53,14.98 30.14,17.9 3.73,-16.33 -5.15,-31.49 -13.69,-44.61 -23.64,-35.67 -54.05,-66.02 -83.13,-97.12zm139.29 188.68l0 0c8.54,4 14.01,-5.89 17.89,-11.82 -5.14,2.14 -9.35,7.55 -15.1,7.4 -11.94,-4.51 -22.34,-12 -33.14,-18.62 7.79,10.17 19.07,17.32 30.35,23.04zm-36.34 -13.23l0 0c8.84,11.82 20.84,21.29 33.81,28.24 11.7,6.71 23.1,-6.59 23.64,-17.69 -4.81,5.06 -8.33,12.64 -15.55,14.5 -16.3,-3.55 -28.39,-16.15 -41.9,-25.05zm29.24 81.54l0 0c12.75,-1.81 9.17,-17.99 9.83,-27.22 -3.97,8.81 -6.79,18.04 -9.83,27.22zm-2.11 8.81l0 0c17.66,-3.04 35.7,-0.75 53.54,-2.35 -7.04,-4.24 -15.43,-2.76 -23.19,-2.79 -10.23,0.54 -21.02,0.3 -30.35,5.14zm-10.01 36.99l0 0c-5.45,5.69 0.78,13.03 6.94,14.32 18.14,4.6 37.33,9.78 50.99,23.43 -2.62,-0.06 -7.79,-0.18 -10.41,-0.24 11.82,9.27 20.33,23.55 34.8,28.82 7.7,-2.11 12.06,-9.6 17.17,-15.16 9.45,-10.74 11.64,-25.6 20.31,-36.88 3.51,-5.02 9.26,-12.42 2.91,-17.74 -22.92,-16.64 -53.11,-14.65 -79.88,-12.28 -14.92,2.11 -32.37,3.61 -42.83,15.73zm-63.17 79.65l0 0c-0.39,4.03 -0.9,8.06 -1.47,12.09 1.83,-0.6 5.47,-1.83 7.31,-2.46 2.43,-4.82 -3.19,-6.8 -5.84,-9.63zm11.97 12.09l0 0c-0.27,4.27 -1.77,8.15 -4.3,11.58 3.16,-0.57 6.32,-1.2 9.45,-1.89 0.12,-4.03 -2.71,-6.86 -5.15,-9.69zm-26.01 3.31l0 0c-0.06,1.9 -0.24,5.62 -0.3,7.52 -1.9,0.24 -5.69,0.72 -7.55,0.96 2.52,3.85 9.56,6.56 12.15,1.32 2.04,-3.75 -2.2,-7.24 -4.3,-9.8zm16.54 9.38l0 0c-1.17,5.33 -4.54,7.88 -10.05,7.73 3.76,6.41 10.92,4.82 15.01,-0.06 -1.65,-2.55 -3.31,-5.11 -4.96,-7.67zm-11.55 30.11l0 0c0.84,6.53 5.41,9.03 11.37,6.2 0.15,-1.75 0.42,-5.2 0.57,-6.95 -3.94,1.05 -7.94,1.9 -11.94,0.75zm-800.49 271.6c18.59,0.03 37.21,0.09 55.8,-0.06 3.45,3.37 6.91,6.77 10.34,10.2 -1.95,12.27 5.39,28.97 -6.79,37.27 2.19,2.67 4.42,5.32 6.67,8.03 0.12,11.91 0.21,23.82 0.18,35.76 1.12,7.46 -5.23,13.81 -11.34,16.9 -18.31,0.7 -36.69,0.03 -55.01,0.15 0.03,-6.01 0.06,-12.03 0.09,-18.04 2.08,0 6.17,0 8.21,-0.03 -0.12,-24 0.27,-48.01 -0.21,-72.01 -2.01,-0.03 -6.04,-0.09 -8.06,-0.12 0.03,-6.05 0.06,-12.03 0.12,-18.05zm27.04 18.14l0 0c0,7.25 0,14.5 0.03,21.75 6.98,0 13.96,0 20.94,0 0.03,-7.25 0.03,-14.53 0.03,-21.78 -7.01,0 -14.02,0 -21,0.03zm-0.06 40.6l0 0c0.09,10.47 0.09,20.94 -0.03,31.44 7.04,0.06 14.11,0.06 21.15,0.06 -0.09,-10.5 -0.09,-21 0.03,-31.46 -7.07,-0.09 -14.11,-0.09 -21.15,-0.04zm58.92 -46.13c2.68,-5 6.98,-9.12 11.58,-12.34 11.91,-0.24 24.04,-1.11 35.86,0.55 3.88,3.43 7.03,7.54 10.37,11.49 -0.33,28.3 -0.09,56.6 -0.12,84.91 -3.61,3.69 -7.22,7.39 -10.8,11.09 -12.3,0.03 -24.63,0.06 -36.93,-0.06 -3.31,-3.73 -6.74,-7.34 -10.17,-10.92 0.12,-28.24 -0.39,-56.51 0.21,-84.72zm17.84 5.5l0 0c0.03,24.09 -0.18,48.18 0.12,72.25 7.16,-0.09 14.32,-0.09 21.51,-0.09 0.21,-24.03 0.06,-48.1 0.09,-72.13 -7.25,-0.03 -14.5,-0.06 -21.72,-0.03zm230.63 -5.93c4.04,-4.15 7.56,-9.17 12.79,-11.91 11.1,-0.51 22.26,-0.51 33.35,0 5.36,2.59 8.82,7.79 12.91,11.98 -0.51,28.21 -0.03,56.42 -0.27,84.63 -4.09,3.73 -7.49,8.55 -12.43,11.22 -11.82,0.7 -23.64,0.06 -35.46,0.18 -3.49,-3.85 -6.97,-7.7 -10.52,-11.43 -0.52,-28.21 0.18,-56.45 -0.37,-84.67zm19.01 5.96l0 0c0,24.06 -0.12,48.12 0.09,72.19 6.92,-0.06 13.87,-0.06 20.82,0 0.24,-24.07 0.09,-48.13 0.09,-72.19 -7.01,-0.03 -14.02,-0.03 -21,0zm654.98 0l0 0c0,9.63 0,19.28 -0.12,28.94 7.21,0.27 14.4,0.36 21.62,0.51 0.3,-9.84 0.3,-19.64 0.24,-29.45 -7.25,-0.03 -14.49,-0.03 -21.74,0z"/>
   <path class="fil1" d="M478.52 689.27c4.67,-0.33 9.36,-0.66 14.05,-0.75 78.38,0.15 156.76,-0.27 235.15,0.21 0.63,112.43 -0.15,224.89 0.27,337.32 0,6.68 -0.51,13.35 -1.08,20.03 -82.78,-0.06 -165.52,0 -248.3,-0.06 0.09,-118.93 0.36,-237.82 -0.09,-356.75zm706.44 590.82c174.18,-0.04 348.36,0.39 522.54,-0.21 1.05,80 0.15,160.04 0.45,240.07 -500.28,0.06 -1000.6,0.06 -1500.88,0 0,-79.91 0,-159.86 0,-239.77 167.38,-0.04 334.8,0 502.18,0 48.6,0.3 97.21,-0.67 145.79,0.45 10.52,6.37 21.17,12.63 32.18,18.25 -27.16,2.05 -54.41,0.76 -81.6,1.09 -191.3,0.33 -382.56,-0.51 -573.85,0.39 -0.34,66.17 -0.15,132.34 -0.09,198.51 75.01,1.38 150.08,0.3 225.1,0.57 336.84,0.12 673.71,-0.03 1010.55,0.06 72.33,-0.21 144.7,0.39 217.04,-0.33 0.99,-43.43 0.18,-86.89 0.48,-130.33 -0.39,-22.88 0.78,-45.77 -0.69,-68.6 -166.24,-0.63 -332.48,0.06 -498.72,-0.33 0.09,-6.62 -0.12,-13.24 -0.48,-19.82zm-192.8 -436.25c3.58,-3.46 8.12,-10.38 13.66,-5.63 11.18,9.09 28.51,14.92 29.5,31.71 0.33,14.7 -1.8,31.28 -12.15,42.56 -9.14,6.58 -20.48,9.02 -30.62,13.62 -12.72,-13.11 -18.17,-32.3 -13.47,-49.99 0.18,7.79 -0.15,15.52 0.18,23.31 1.23,-2.73 3.67,-8.18 4.9,-10.92 0.93,0.54 2.83,1.6 3.76,2.14 -0.18,1.56 -0.48,4.66 -0.63,6.2 -0.96,7.3 -2.47,16.96 5.17,21.38 6.65,4.96 13.33,-2.62 15.43,-8.57 4.57,-12.72 4.21,-27.4 -1.08,-39.88 -6.02,-5.48 -12.27,2.16 -17.27,5.32 2.68,-5.69 5.9,-11.1 9.21,-16.45 3.34,0.06 6.7,0.12 10.07,0.18 8.76,11.55 4.76,26.38 6.83,39.64 2.98,-7.7 4.12,-15.91 5.66,-23.97 0.09,8.33 -0.28,16.66 -0.58,24.99 1.36,-0.33 4.03,-1.02 5.36,-1.38 1.29,-13.78 7.28,-28.63 -0.51,-41.63 -7.91,-8.72 -18.98,-15.76 -31.25,-12.72 -0.54,0.03 -1.63,0.06 -2.17,0.09zm428.49 -763.55c124.07,-0.39 248.17,-0.34 372.27,-0.03 -0.24,67.4 0.33,134.8 -0.3,202.21 -28.21,-0.24 -56.46,-0.06 -84.67,-0.09 -0.06,276.86 0.09,553.73 -0.06,830.59 -39.37,39.32 -78.87,78.51 -117.94,118.09 -136.13,0.39 -272.26,0.12 -408.39,0.12 -2.26,-2.2 -4.42,-4.45 -6.53,-6.77 -4.06,-11.13 -7.94,-22.32 -12.15,-33.39 10.77,6.74 18.5,18.92 30.8,22.56 126.3,0.45 252.65,-0.09 378.95,0.24 6.16,0.61 11.82,-1.8 15.94,-6.34 29.24,-29.03 58.17,-58.32 87.5,-87.26 6.76,-7.07 16.69,-13.86 14.86,-25.08 -0.31,-276.51 0.11,-553.01 -0.15,-829.51 28.39,-1.21 56.81,0.33 85.23,-0.88 0,-55.76 -0.06,-111.55 0.1,-167.35 -58.81,-1.14 -117.61,-0.09 -176.41,-0.51 -53.93,0.39 -107.86,-0.6 -161.79,0.45 -0.36,55.82 -0.03,111.65 -0.09,167.47 28.09,0.79 56.22,0.36 84.34,0.21 1.05,240.63 0.06,481.31 0.45,721.93 -0.3,19.73 0.93,39.49 -0.96,59.16 -80.67,-0.15 -161.34,0.06 -242.01,-0.21 2.53,-5.5 4.72,-11.16 6.65,-16.87 73.15,-0.03 146.3,0.09 219.45,-0.06 0,-248.84 -0.12,-497.64 0.06,-746.47 -28.46,-0.6 -56.91,0.54 -85.36,-0.6 0.54,-67.2 0.15,-134.42 0.21,-201.61zm-445.15 0c124.07,-0.34 248.2,-0.45 372.3,0.06 -0.36,67.37 0.42,134.77 -0.39,202.12 -27.97,-0.18 -55.98,-0.24 -83.95,0.03 -0.03,212.5 0.39,425 -0.21,637.46 -5.41,-1.65 -10.89,-3.06 -16.27,-4.66 -1.08,-34.62 0.81,-69.24 -1.17,-103.83 -0.06,-7.3 -0.1,-14.61 -0.06,-21.92 0.24,-5.39 0.69,-10.77 0.87,-16.15 0.27,-169.4 -0.33,-338.83 0.3,-508.23 28.03,-0.24 56.06,0.46 84.07,-0.54 -0.31,-55.73 -0.09,-111.47 -0.03,-167.2 -65.81,-1.29 -131.65,-0.03 -197.49,-0.48 -46.87,0.24 -93.76,-0.54 -140.62,0.39 -0.6,55.79 -0.18,111.56 -0.09,167.35 28.12,1.18 56.31,0.21 84.46,0.57 0.48,121.25 0,242.49 0.24,363.73 0.36,11.67 0.09,23.37 -1.8,34.89 -4.97,-3.15 -9.93,-6.28 -15.01,-9.17 -0.15,-124.04 -0.18,-248.11 0.03,-372.15 -28.46,-0.72 -56.94,0.48 -85.36,-0.63 0.51,-67.23 0.15,-134.42 0.18,-201.64zm-766.98 -0.03c195.23,-0.39 390.46,-0.21 585.67,-0.09 39.28,39.25 79.64,77.45 118.93,116.73 0.09,104.58 0.06,209.16 0,313.77 -26.02,26.1 -52.43,51.85 -78.06,78.38 9.42,8.96 18.56,18.23 27.07,28.06 -4.27,4.57 -8.36,9.36 -12.33,14.26 -10.35,-16.66 -26.41,-28.42 -38.5,-43.64 21.93,-21.6 43.59,-43.47 65.33,-65.27 6.26,-6.47 13.69,-12 18.5,-19.73 1.17,-5.96 1.02,-12.06 1.08,-18.11 -0.48,-79.22 -0.09,-158.45 -0.3,-237.67 -0.24,-13.99 1.11,-28.01 -0.48,-41.9 -8.18,-12.51 -20.93,-21.12 -31.16,-31.82 -17.2,-17.81 -35.73,-34.23 -53.03,-51.92 -8.36,-7.73 -15.61,-16.78 -24.99,-23.31 -6.41,-1.59 -13.06,-1.08 -19.58,-1.17 -180.23,0.51 -360.48,-0.51 -540.71,0.51 -0.99,55.79 0,111.62 -0.33,167.41 28.18,1.15 56.4,0.06 84.61,0.45 0.6,248.57 -0.09,497.13 0.24,745.69 0.21,11.73 0.06,23.46 -0.87,35.19 -27.97,0.36 -55.98,-0.96 -83.92,0.69 -0.03,55.47 -0.18,110.93 0.09,166.39 83.05,1.39 166.09,0.12 249.13,0.57 79.14,0.03 158.27,0.03 237.41,-0.03 20.6,-0.18 41.29,0.85 61.87,-0.93 4.72,6.26 9.65,12.36 14.8,18.26 -193.37,0.54 -386.77,-0.03 -580.14,0.3 -0.82,-67.31 0.21,-134.66 -0.51,-201.94 28.42,-0.84 56.84,-0.06 85.27,-0.42 0,-248.84 -0.15,-497.64 0.06,-746.44 -28.43,-0.6 -56.88,0.36 -85.3,-0.51 0.42,-67.26 0.12,-134.51 0.15,-201.76zm270.06 185.12c83.08,-0.6 166.15,-0.18 249.26,-0.15 0.09,84.22 0.39,168.44 -0.24,252.66 -82.99,-0.06 -166.03,0.75 -249.02,-0.39 0.36,-84.04 0.15,-168.08 0,-252.12zm17.24 16.97l0 0c0,72.94 0,145.84 0,218.78 71.67,0.06 143.35,0 215.02,0.03 0.03,-72.93 0.06,-145.87 -0.03,-218.81 -71.64,0.03 -143.32,0 -214.99,0zm0.27 423.19l0 0c-0.6,107.83 -0.12,215.66 -0.27,323.49 71.67,0 143.35,0 215.02,0 0.09,-107.74 -0.06,-215.48 0.06,-323.25 -71.61,-0.3 -143.23,0.21 -214.81,-0.24z"/>
   <path class="fil2" d="M231.77 1300.36c191.29,-0.9 382.55,-0.06 573.85,-0.39 27.19,-0.33 54.44,0.96 81.6,-1.09 29.51,14.44 55.94,34.32 81.48,54.8 -2.44,-0.21 -7.28,-0.69 -9.72,-0.93 0,6.14 0,12.27 0.03,18.41 2.05,0 6.11,0 8.16,-0.03 0.12,13.63 0.27,27.28 -0.03,40.91 -9.06,-19.34 -16.58,-39.35 -25.03,-58.96 -8.12,0.03 -16.24,0 -24.33,-0.03 -0.12,5.93 -0.21,11.85 -0.3,17.81 1.92,0.18 5.77,0.51 7.7,0.69 0.03,23.82 -0.09,47.61 0.09,71.44 -1.93,0.21 -5.81,0.6 -7.73,0.81 0.03,5.86 0.06,11.73 0.12,17.62 11.52,-0.03 23.04,-0.03 34.59,0.03 0.03,-5.98 0.06,-11.97 0.09,-17.95 -2.08,-0.03 -6.23,-0.12 -8.3,-0.18 -0.06,-12.73 -0.25,-25.45 0.18,-38.17 8.84,18.44 16.12,37.57 24.39,56.24 5.59,0 11.16,0.03 16.75,0.03 0.06,-30.01 -0.03,-60 0.03,-90.02 2.08,-0.12 6.23,-0.33 8.3,-0.45 0,-3.37 -0.03,-6.71 0,-10.05 6.5,-0.45 12.97,-1.29 19.31,-2.79 0.09,4.36 0.18,8.72 0.27,13.14 1.84,0 5.51,0 7.34,0 0.12,23.85 -0.12,47.7 0.18,71.56 -1.92,0.21 -5.77,0.66 -7.7,0.87 0.07,5.92 0.09,11.88 0.15,17.8 11.34,-0.06 22.71,-0.06 34.05,-0.18 -1.17,-6.97 3.28,-18.79 -7.52,-19.22 -0.54,-23.52 -0.15,-47.04 -0.24,-70.56 1.9,-0.15 5.66,-0.51 7.52,-0.69 -0.06,-5.93 -0.09,-11.82 -0.12,-17.72 -8.39,-0.06 -16.81,-0.18 -25.2,0.33 16.09,-16.63 29.8,-35.37 43.43,-54.01 17.14,7.21 33.93,15.4 51.91,20.36 16.15,4.57 33.03,12.51 50.05,7.76 11.91,-3.52 16.78,-16.49 18.32,-27.64 166.24,0.39 332.48,-0.3 498.72,0.33 1.47,22.83 0.3,45.72 0.69,68.6 -0.3,43.44 0.51,86.9 -0.48,130.33 -72.34,0.72 -144.71,0.12 -217.04,0.33 -336.84,-0.09 -673.71,0.06 -1010.55,-0.06 -75.02,-0.27 -150.09,0.81 -225.1,-0.57 -0.06,-66.17 -0.25,-132.34 0.09,-198.51zm64 111.46c7.04,-0.05 14.08,-0.05 21.15,0.04 -0.12,10.46 -0.12,20.96 -0.03,31.46 -7.04,0 -14.11,0 -21.15,-0.06 0.12,-10.5 0.12,-20.97 0.03,-31.44zm981.38 -40.6c7.25,-0.03 14.49,-0.03 21.74,0 0.06,9.81 0.06,19.61 -0.24,29.45 -7.22,-0.15 -14.41,-0.24 -21.62,-0.51 0.12,-9.66 0.12,-19.31 0.12,-28.94zm-654.98 0c6.98,-0.03 13.99,-0.03 21,0 0,24.06 0.15,48.12 -0.09,72.19 -6.95,-0.06 -13.9,-0.06 -20.82,0 -0.21,-24.07 -0.09,-48.13 -0.09,-72.19zm-249.64 -0.03c7.22,-0.03 14.47,0 21.72,0.03 -0.03,24.03 0.12,48.1 -0.09,72.13 -7.19,0 -14.35,0 -21.51,0.09 -0.3,-24.07 -0.09,-48.16 -0.12,-72.25zm-76.7 0.03c6.98,-0.03 13.99,-0.03 21,-0.03 0,7.25 0,14.53 -0.03,21.78 -6.98,0 -13.96,0 -20.94,0 -0.03,-7.25 -0.03,-14.5 -0.03,-21.75zm639.33 -251.48c9.66,1.84 17.36,-3.88 23.31,-10.71 21.39,8.27 44.43,10.83 67.2,9.21 7.7,6.43 13.77,15.16 23.25,19.55 -14.89,3.07 -20.52,24.36 -8.4,33.62 8.37,0.28 16.76,-0.51 25.12,-0.15 -12.63,8.91 -28.15,13.03 -43.4,14.14 -7.97,0.93 -15.58,-5.14 -18.17,-12.39 -6.13,-14.8 -11.49,-29.93 -18.02,-44.55 -5.29,-10.28 -19.88,-6.28 -27.19,-0.42 -6.67,7.61 -4.15,18.74 3.22,24.82 -12.33,-3.25 -30.05,-2.77 -33.38,-18.26 3.16,-4.51 5.5,-9.44 6.46,-14.86zm-124.01 -82.5c8.97,-18.89 18.26,-37.6 27.43,-56.37 6.68,-0.6 12.61,1.84 17.63,6.11 -3.16,3.61 -6.53,7.04 -10.11,10.28 2.26,2.92 4.67,5.69 7.22,8.34l0.75 1.83c0.79,3.79 1.45,7.76 3.55,11.13 14.2,23.1 29.42,45.66 47.22,66.2 -11.3,6.77 -17.08,-8.15 -24.6,-13.87 -0.69,-13.95 -9.83,-24.78 -20.06,-33.35l6.47 0.99c-8.4,-18.53 -26.8,-35.25 -22.32,-57.27 -4.21,3.82 -7.49,8.52 -9.84,13.69 -6.46,13.32 -14.43,26.02 -18.98,40.24 6.83,-6.25 12.82,-13.38 19.83,-19.46 -2.5,5.27 -5.15,10.47 -7.61,15.76 5.59,-3.22 11.15,-6.46 16.75,-9.68 4.66,5.02 9.35,10.01 14.86,14.13 -8,-1.14 -16.18,-0.99 -23.46,2.89 -7.94,3.94 -16.61,-0.69 -24.73,-1.59zm434.66 -225.77c1.98,34.59 0.09,69.21 1.17,103.83 -12.06,-6.52 -22.2,-15.97 -33.84,-23.13 2.89,-8.12 5.6,-16.45 6.2,-25.11 0.99,-7.01 0.15,-14.98 5.47,-20.45 8.66,-10.62 16.21,-22.23 21,-35.14zm-124.08 -146.47c5.12,-11.1 13.06,-20.76 21.03,-29.96 1.47,18.77 -2.47,39.37 -13.93,54.44 0,-2.32 0,-6.98 0,-9.32l-1.65 5.89c-4.18,-6.11 -6.59,-13.62 -5.45,-21.05zm-241.34 -11.91c9.51,-13.12 21.36,-25.09 35.22,-33.57 -4.93,28.51 -13.35,57.42 -29.87,81.48 -0.02,-3.13 -0.08,-9.32 -0.08,-12.45 -5.3,7.46 -4.49,18.77 -12.22,24.12 0.42,-19.82 -1.23,-41.03 6.95,-59.58zm557.52 -555.75c53.93,-1.05 107.86,-0.06 161.79,-0.45 58.8,0.42 117.6,-0.63 176.41,0.51 -0.16,55.8 -0.1,111.59 -0.1,167.35 -28.42,1.21 -56.84,-0.33 -85.23,0.88 0.26,276.5 -0.16,553 0.15,829.51 1.83,11.22 -8.1,18.01 -14.86,25.08 -29.33,28.94 -58.26,58.23 -87.5,87.26 -4.12,4.54 -9.78,6.95 -15.94,6.34 -126.3,-0.33 -252.65,0.21 -378.95,-0.24 -12.3,-3.64 -20.03,-15.82 -30.8,-22.56 -9.8,-14.73 -18.92,-30.16 -31.67,-42.61 -1.99,-2.8 -5.99,-4.91 -5.96,-8.61 10.83,-4.63 21.81,-8.87 32.4,-14.04 9.23,-4.85 19.91,-0.75 29.68,-3.1 6.65,-2.77 11.19,-8.69 16.31,-13.51 14.79,1.9 23.85,-10.76 36.3,-15.82 19.73,-8.78 30.44,-29.08 39.7,-47.43 80.67,0.27 161.34,0.06 242.01,0.21 1.89,-19.67 0.66,-39.43 0.96,-59.16 -0.39,-240.62 0.6,-481.3 -0.45,-721.93 -28.12,0.15 -56.25,0.58 -84.34,-0.21 0.06,-55.82 -0.27,-111.65 0.09,-167.47zm-445.06 0c46.86,-0.93 93.75,-0.15 140.62,-0.39 65.84,0.45 131.68,-0.81 197.49,0.48 -0.06,55.73 -0.28,111.47 0.03,167.2 -28.01,1 -56.04,0.3 -84.07,0.54 -0.63,169.4 -0.03,338.83 -0.3,508.23 -0.18,5.38 -0.63,10.76 -0.87,16.15 -18.02,-46.59 -60.79,-76.94 -100.74,-103.8 7.86,-22.89 13.39,-46.59 24.97,-68.04 3.01,-13.05 16.69,-17.98 22.95,-28.93 3.1,-4.57 3.82,-10.17 5.23,-15.37 -17.11,2.26 -32.48,10.59 -47.73,18.14 -19.25,10.76 -38.35,23.73 -50.92,42.23 -7.76,11.4 -5.39,25.77 0.39,37.44 -8.42,-1.14 -17.27,-1.95 -24.24,-7.34 1.89,-11.52 2.16,-23.22 1.8,-34.89 -0.24,-121.24 0.24,-242.48 -0.24,-363.73 -28.15,-0.36 -56.34,0.61 -84.46,-0.57 -0.09,-55.79 -0.51,-111.56 0.09,-167.35zm-766.89 0c180.23,-1.02 360.48,0 540.71,-0.51 6.52,0.09 13.17,-0.42 19.58,1.17 9.38,6.53 16.63,15.58 24.99,23.31 17.3,17.69 35.83,34.11 53.03,51.92 10.23,10.7 22.98,19.31 31.16,31.82 1.59,13.89 0.24,27.91 0.48,41.9 0.21,79.22 -0.18,158.45 0.3,237.67 -0.06,6.05 0.09,12.15 -1.08,18.11 -4.81,7.73 -12.24,13.26 -18.5,19.73 -21.74,21.8 -43.4,43.67 -65.33,65.27 12.09,15.22 28.15,26.98 38.5,43.64 -11.04,14.56 -26.5,29.08 -25.56,48.91 0.45,27.1 20.48,48.42 39.13,65.9 -14.11,23.67 -20.55,50.92 -25.39,77.78 -3.61,18.71 0.03,38.5 10.29,54.56 11.79,17.68 25.84,33.93 34.92,53.33 -9.05,15.52 -17.54,31.4 -26.41,47.07 -7.67,-3.01 -15.52,-10.29 -24.15,-6.74 -5.45,4.84 -7.7,12.33 -11.34,18.53 -17.93,-2.29 -35.73,-5.45 -53.66,-7.4 11.88,14.98 24.93,28.96 37.51,43.37 -3.13,9.84 -14.17,9.99 -22.23,13.48 -14.35,5.23 -25.12,17.71 -30.14,31.94 -7.67,20.84 -7.61,43.46 -7.34,65.36 0.09,27.64 12.64,53.51 28.76,75.31 -20.58,1.78 -41.27,0.75 -61.87,0.93 -79.14,0.06 -158.27,0.06 -237.41,0.03 -83.04,-0.45 -166.08,0.82 -249.13,-0.57 -0.27,-55.46 -0.12,-110.92 -0.09,-166.39 27.94,-1.65 55.95,-0.33 83.92,-0.69 0.93,-11.73 1.08,-23.46 0.87,-35.19 -0.33,-248.56 0.36,-497.12 -0.24,-745.69 -28.21,-0.39 -56.43,0.7 -84.61,-0.45 0.33,-55.79 -0.66,-111.62 0.33,-167.41zm252.62 168.04l0 0c0.15,84.04 0.36,168.08 0,252.12 82.99,1.14 166.03,0.33 249.02,0.39 0.63,-84.22 0.33,-168.44 0.24,-252.66 -83.11,-0.03 -166.18,-0.45 -249.26,0.15zm-0.06 423.89l0 0c0.45,118.93 0.18,237.82 0.09,356.75 82.78,0.06 165.52,0 248.3,0.06 0.57,-6.68 1.08,-13.35 1.08,-20.03 -0.42,-112.43 0.36,-224.89 -0.27,-337.32 -78.39,-0.48 -156.77,-0.06 -235.15,-0.21 -4.69,0.09 -9.38,0.42 -14.05,0.75zm343.1 663.69l0 0c-0.18,6.02 -0.27,12.06 -0.36,18.14 2.1,0.03 6.32,0.15 8.42,0.18 0.18,26.38 -0.36,52.76 0.21,79.11 2.41,4.3 6.44,7.42 9.75,11.03 13.44,0 26.86,0 40.3,-0.03 3.31,-3.55 7.1,-6.73 9.66,-10.88 0.63,-26.38 0.03,-52.82 0.24,-79.23 2.1,-0.06 6.28,-0.12 8.36,-0.15 -0.06,-6.05 -0.12,-12.09 -0.21,-18.11 -11.43,0.15 -22.86,0.15 -34.32,-0.06 -0.15,6.05 -0.21,12.06 -0.3,18.11 2.1,0.06 6.31,0.15 8.42,0.21 -0.12,24.06 0.18,48.13 -0.15,72.16 -7.91,-0.12 -15.85,-0.09 -23.76,0 -0.33,-24.03 -0.09,-48.1 -0.15,-72.16 2.1,-0.06 6.31,-0.15 8.42,-0.21 -0.09,-6.05 -0.18,-12.06 -0.27,-18.05 -11.43,0.15 -22.86,0.15 -34.26,-0.06zm599.15 0l0 0c-0.09,6.02 -0.12,12.04 -0.18,18.05 1.92,0.09 5.74,0.24 7.64,0.33 0,23.94 -0.03,47.92 0,71.89 -1.87,0.03 -5.63,0.06 -7.52,0.09 -0.03,5.98 -0.06,12 -0.09,18.04 11.31,0.03 22.61,0.06 33.92,0.09 0.03,-6.01 0.03,-12 0.1,-17.98 -1.93,-0.06 -5.75,-0.18 -7.65,-0.27 0.03,-23.86 0.12,-47.71 -0.05,-71.56 1.92,-0.18 5.8,-0.54 7.72,-0.69 -0.06,-6.02 -0.12,-11.97 -0.21,-17.93 -11.24,0.15 -22.46,0.15 -33.68,-0.06zm-1151.98 0.12l0 0c-0.06,6.02 -0.09,12 -0.12,18.05 2.02,0.03 6.05,0.09 8.06,0.12 0.48,24 0.09,48.01 0.21,72.01 -2.04,0.03 -6.13,0.03 -8.21,0.03 -0.03,6.01 -0.06,12.03 -0.09,18.04 18.32,-0.12 36.7,0.55 55.01,-0.15 6.11,-3.09 12.46,-9.44 11.34,-16.9 0.03,-11.94 -0.06,-23.85 -0.18,-35.76 -2.25,-2.71 -4.48,-5.36 -6.67,-8.03 12.18,-8.3 4.84,-25 6.79,-37.27 -3.43,-3.43 -6.89,-6.83 -10.34,-10.2 -18.59,0.15 -37.21,0.09 -55.8,0.06zm85.9 12.61l0 0c-0.6,28.21 -0.09,56.48 -0.21,84.72 3.43,3.58 6.86,7.19 10.17,10.92 12.3,0.12 24.63,0.09 36.93,0.06 3.58,-3.7 7.19,-7.4 10.8,-11.09 0.03,-28.31 -0.21,-56.61 0.12,-84.91 -3.34,-3.95 -6.49,-8.06 -10.37,-11.49 -11.82,-1.66 -23.95,-0.79 -35.86,-0.55 -4.6,3.22 -8.9,7.34 -11.58,12.34zm77.09 -2.89l0 0c0.27,14.01 -0.03,28.06 0.24,42.11 3.28,3.22 6.5,6.43 9.72,9.71 10.19,0.21 20.39,0.18 30.59,0.09 0.15,9.54 0.18,19.04 0.15,28.58 -7.49,0.06 -14.98,0.06 -22.47,-0.03 -0.03,-4.27 -0.09,-8.55 -0.12,-12.79 -6.05,0.03 -12.09,0.06 -18.11,0.12 0.09,6.59 0.12,13.21 0.18,19.86 3.55,3.6 7.13,7.24 10.68,10.91 11.7,-0.15 23.43,0.54 35.1,-0.18 5.35,-3.55 9.81,-8.63 13.39,-13.92 0.69,-13.27 -0.22,-26.56 0.42,-39.83 -3.61,-3.6 -6.59,-8.18 -11.22,-10.49 -10.08,-0.75 -20.21,-0.09 -30.32,-0.27 -0.03,-8.49 -0.03,-16.97 0,-25.45 7.49,-0.06 14.98,-0.03 22.47,0 -0.03,4.18 -0.09,8.39 -0.12,12.6 6.25,0.09 12.54,0.15 18.83,0.24 0,-7.25 0.9,-14.61 -0.45,-21.74 -3.01,-3.37 -6.44,-6.26 -9.75,-9.27 -13.23,0.09 -26.44,0.09 -39.64,-0.03 -3.22,3.22 -6.41,6.47 -9.57,9.78zm78.33 -9.66l0 0c0,13.03 0.03,26.05 -0.04,39.07 6.02,0 12.07,0 18.11,0 0,-6.94 0.03,-13.89 0.03,-20.81 2.44,-0.06 7.28,-0.18 9.69,-0.24 0.06,24.03 0,48.1 0.03,72.16 -1.87,-0.03 -5.6,-0.09 -7.46,-0.12 -0.06,6.01 -0.12,12.09 -0.18,18.13 11.55,0.12 23.07,0.06 34.59,0.18 0.06,-6.04 0.12,-12.09 0.15,-18.1 -2.08,-0.03 -6.26,-0.12 -8.33,-0.15 0,-23.85 0.18,-47.71 -0.13,-71.53 2.5,-0.18 7.43,-0.57 9.9,-0.75 0,7.04 0,14.11 -0.06,21.21 6.08,0 12.15,0.02 18.2,0.02 -0.12,-13.08 0.21,-26.16 -0.33,-39.22 -24.73,0.3 -49.45,0 -74.17,0.15zm93.05 12.12l0 0c0.55,28.22 -0.15,56.46 0.37,84.67 3.55,3.73 7.03,7.58 10.52,11.43 11.82,-0.12 23.64,0.52 35.46,-0.18 4.94,-2.67 8.34,-7.49 12.43,-11.22 0.24,-28.21 -0.24,-56.42 0.27,-84.63 -4.09,-4.19 -7.55,-9.39 -12.91,-11.98 -11.09,-0.51 -22.25,-0.51 -33.35,0 -5.23,2.74 -8.75,7.76 -12.79,11.91zm77.64 -12.15l0 0c-0.03,5.99 -0.03,11.97 -0.03,18.02 2.01,0.03 6.07,0.12 8.09,0.15 0.36,23.97 0.06,47.94 0.18,71.92 -2.05,0.03 -6.14,0.06 -8.21,0.09 -0.03,5.98 -0.09,12 -0.15,18.04 11.52,0.12 23.04,0.03 34.55,0.21 0.09,-6.07 0.16,-12.12 0.19,-18.13 -2.08,-0.03 -6.26,-0.09 -8.34,-0.12 0.12,-13.03 -0.15,-26.05 0.18,-39.04 9.09,18.61 16.64,37.92 24.7,56.99 5.68,0.12 11.34,0.21 17.02,0.3 0.48,-29.98 0.21,-60 0.15,-89.99 2.08,-0.12 6.23,-0.3 8.3,-0.42 0.03,-6.02 0.06,-12.03 0.06,-18.02 -11.52,0 -23.04,0 -34.59,0 -0.02,5.99 -0.02,11.97 -0.02,17.99 2.01,0.06 6.1,0.18 8.15,0.24 0.03,13.14 0.51,26.29 -0.37,39.43 -9.68,-18.43 -16.57,-38.23 -24.63,-57.42 -8.42,-0.27 -16.81,-0.3 -25.23,-0.24zm385.8 0.03l0 0c-0.06,5.93 -0.09,11.86 -0.12,17.81 1.81,0.12 5.42,0.36 7.25,0.51 7.46,29.93 15.46,59.71 22.44,89.78 6.77,0.15 13.56,0.15 20.36,0.06 7.31,-29.98 14.5,-60.03 22.08,-89.96 1.92,-0.09 5.77,-0.24 7.7,-0.33 -0.06,-5.99 -0.09,-11.94 -0.12,-17.9 -11.49,-0.03 -23.01,-0.03 -34.5,0.03 -0.03,5.99 -0.06,11.97 -0.06,18.02 2.07,-0.03 6.19,-0.06 8.27,-0.06 -4.3,18.41 -8.6,36.82 -13.08,55.16 -5.99,-18.04 -9.03,-36.9 -13.78,-55.25 2.02,0.03 6.11,0.12 8.12,0.15 -0.03,-6.01 -0.03,-12 -0.06,-18.02 -11.52,-0.06 -23.01,-0.06 -34.5,0zm98.96 17.69l0 0c2.1,0.15 6.34,0.42 8.45,0.54 0.21,23.76 -0.27,47.52 0.27,71.29 -2.1,0.27 -6.35,0.78 -8.48,1.02 0,5.92 0,11.85 0.03,17.8 22.05,-0.12 44.12,-0.06 66.17,-0.06 0.03,-13.53 0.03,-27.1 0,-40.63 -6.2,-0.06 -12.39,-0.12 -18.59,-0.21 -0.27,7.55 -0.33,15.13 -0.21,22.71 -7.07,0.03 -14.1,0.03 -21.11,0 0.09,-10.65 0.12,-21.3 -0.18,-31.92 7.4,-0.33 14.76,-0.42 22.16,-0.57 -0.06,-5.92 -0.09,-11.82 -0.06,-17.71 -7.28,-0.12 -14.58,-0.15 -21.86,-0.15 0,-7.25 -0.03,-14.5 0,-21.72 6.97,-0.03 13.95,-0.03 20.93,-0.03 0,4.93 0,9.93 0,14.92 6.29,0.09 12.6,0.12 18.89,0.18 0.03,-11.01 0.03,-21.99 0.15,-32.97 -21.99,0.06 -44.09,-1.11 -65.99,0.52 -0.63,5.62 -0.45,11.31 -0.57,16.99zm85.15 -17.69l0 0c0.06,5.96 0.09,11.97 0.15,17.96 2.07,0.15 6.22,0.48 8.3,0.63 -0.27,23.85 -0.06,47.71 -0.12,71.59 -2.08,0 -6.23,0.06 -8.3,0.06 0.03,6.01 0.06,12.06 0.15,18.13 11.52,-0.12 23.04,-0.09 34.56,-0.15 -0.06,-6.07 -0.09,-12.15 -0.15,-18.16 -2.05,0.03 -6.11,0.09 -8.12,0.15 -0.03,-8.06 -0.36,-16.09 0.21,-24.09l3.85 -1.54c9.29,13.42 14.58,29.15 22.22,43.52 6.26,0.12 12.52,0.18 18.8,0.24 -0.06,-5.92 -0.09,-11.82 -0.15,-17.71 -12.48,0.15 -12.66,-16 -18.83,-23.94 5.75,-2.02 10.89,-6.05 13.42,-11.64 0.57,-14.17 0.24,-28.4 0.21,-42.56 0.66,-5.9 -5.44,-8.79 -8.66,-12.64 -19.19,0.27 -38.35,0.03 -57.54,0.15zm90.92 9.42l0 0c0.12,13.99 0.12,27.97 -0.03,41.96 3.61,3.43 6.74,7.67 11.25,10.01 10.02,0.69 20.09,0.12 30.14,0.12 0.15,9.6 0.18,19.22 -0.03,28.82 -7.73,-0.12 -15.43,-0.15 -23.13,-0.12 -0.03,-4.27 -0.06,-8.54 -0.06,-12.76 -5.99,-0.06 -12,-0.09 -17.99,-0.09 -0.06,6.59 -0.09,13.21 -0.15,19.83 3.67,3.69 7.34,7.39 11.04,11.12 12,-0.06 24,-0.09 36.03,0.03 5.12,-6.07 14.14,-11.25 12.52,-20.42 0.03,-11.82 -0.06,-23.61 -0.18,-35.4 -3.22,-3.01 -6.41,-6.05 -9.57,-9.05 -10.56,0.09 -21.08,0.06 -31.58,0.09 -0.12,-8.52 -0.12,-17 -0.03,-25.48 7.73,-0.03 15.49,-0.03 23.25,0 0,4.24 0,8.48 0,12.72 6.02,0 12.03,0 18.05,0 0,-7.18 0,-14.37 -0.06,-21.53 -3.04,-3.07 -6.11,-6.17 -9.12,-9.24 -13.14,0.09 -26.29,-0.48 -39.37,0.12 -4.63,1.66 -7.46,6.11 -10.98,9.27zm132.34 -9.27l0 0c0.12,12.97 0.04,25.96 0.09,38.96 5.75,0 11.46,0.03 17.24,0.09 0.06,-7.04 0.09,-14.05 0.12,-21.09 2.59,-0.03 7.82,-0.06 10.41,-0.09 0.3,23.79 -0.3,47.58 0.36,71.37 -2.14,0.31 -6.41,0.91 -8.51,1.24 -0.03,5.83 -0.07,11.7 -0.07,17.59 11.55,0.09 23.13,0.09 34.72,-0.03 -0.1,-5.89 -0.13,-11.79 -0.16,-17.65 -2.1,-0.24 -6.31,-0.75 -8.42,-1.02 0.54,-23.83 0.03,-47.65 0.27,-71.47 2.62,0 7.82,0.03 10.41,0.03 0.03,7.04 0.09,14.11 0.24,21.18 5.9,-0.1 11.79,-0.12 17.69,-0.1 0.27,-13.08 0.18,-26.13 0.18,-39.19 -24.88,0.09 -49.72,-0.21 -74.57,0.18zm93.34 -0.18l0 0c-0.03,5.84 -0.03,11.7 0,17.6 1.95,0.3 5.83,0.84 7.79,1.14 7,11.7 12.72,24.18 19.37,36.13 6.46,10.55 2.73,23.43 3.76,35.07 -2.05,0.12 -6.17,0.39 -8.25,0.51 -0.09,5.86 -0.15,11.76 -0.24,17.68 11.52,0.24 23.04,0.18 34.56,0.21 0.09,-5.98 0.15,-11.97 0.21,-17.95 -2.07,-0.09 -6.25,-0.27 -8.33,-0.39 0.21,-9.18 -0.54,-18.38 0.48,-27.5 4.21,-11 10.5,-21.08 15.34,-31.79 3.13,-5.41 4.69,-13.98 12.7,-13.2 0.06,-5.84 0.09,-11.67 0.12,-17.51 -11.28,0 -22.56,-0.03 -33.84,0.03 -0.03,5.78 -0.06,11.58 -0.03,17.39 1.68,0.36 5.11,1.05 6.83,1.38 -2.56,7.76 -6.8,14.8 -10.35,22.14 -4.66,-7.4 -8.6,-15.19 -12.66,-22.89 2.16,0 6.52,0 8.69,0 -0.03,-6.01 -0.06,-12.03 -0.06,-18.02 -12.03,-0.06 -24.06,-0.03 -36.09,-0.03z"/>
   <path class="fil3" d="M1141.5 946.94c10.46,-12.12 27.91,-13.62 42.83,-15.73 26.77,-2.37 56.96,-4.36 79.88,12.28 6.35,5.32 0.6,12.72 -2.91,17.74 -8.67,11.28 -10.86,26.14 -20.31,36.88 -5.11,5.56 -9.47,13.05 -17.17,15.16 -14.47,-5.27 -22.98,-19.55 -34.8,-28.82 2.62,0.06 7.79,0.18 10.41,0.24 -13.66,-13.65 -32.85,-18.83 -50.99,-23.43 -6.16,-1.29 -12.39,-8.63 -6.94,-14.32zm-72.22 134.54c4,1.15 8,0.3 11.94,-0.75 -0.15,1.75 -0.42,5.2 -0.57,6.95 -5.96,2.83 -10.53,0.33 -11.37,-6.2zm11.55 -30.11c1.65,2.56 3.31,5.12 4.96,7.67 -4.09,4.88 -11.25,6.47 -15.01,0.06 5.51,0.15 8.88,-2.4 10.05,-7.73zm-16.54 -9.38c2.1,2.56 6.34,6.05 4.3,9.8 -2.59,5.24 -9.63,2.53 -12.15,-1.32 1.86,-0.24 5.65,-0.72 7.55,-0.96 0.06,-1.9 0.24,-5.62 0.3,-7.52zm26.01 -3.31c2.44,2.83 5.27,5.66 5.15,9.69 -3.13,0.69 -6.29,1.32 -9.45,1.89 2.53,-3.43 4.03,-7.31 4.3,-11.58zm-11.97 -12.09c2.65,2.83 8.27,4.81 5.84,9.63 -1.84,0.63 -5.48,1.86 -7.31,2.46 0.57,-4.03 1.08,-8.06 1.47,-12.09zm73.18 -116.64c9.33,-4.84 20.12,-4.6 30.35,-5.14 7.76,0.03 16.15,-1.45 23.19,2.79 -17.84,1.6 -35.88,-0.69 -53.54,2.35zm2.11 -8.81c3.04,-9.18 5.86,-18.41 9.83,-27.22 -0.66,9.23 2.92,25.41 -9.83,27.22zm-164.08 -26.05c5,-3.16 11.25,-10.8 17.27,-5.32 5.29,12.48 5.65,27.16 1.08,39.88 -2.1,5.95 -8.78,13.53 -15.43,8.57 -7.64,-4.42 -6.13,-14.08 -5.17,-21.38l4.39 3.54c1.56,-7.15 2.56,-14.4 3.22,-21.68 -1.54,0.66 -4.61,1.98 -6.11,2.65 -0.24,2.34 -0.66,6.97 -0.87,9.29 -0.93,-0.54 -2.83,-1.6 -3.76,-2.14 1.77,-4.48 3.31,-9.05 5.38,-13.41zm134.84 -55.49c13.51,8.9 25.6,21.5 41.9,25.05 7.22,-1.86 10.74,-9.44 15.55,-14.5 -0.54,11.1 -11.94,24.4 -23.64,17.69 -12.97,-6.95 -24.97,-16.42 -33.81,-28.24zm36.34 13.23c-11.28,-5.72 -22.56,-12.87 -30.35,-23.04 10.8,6.62 21.2,14.11 33.14,18.62 5.75,0.15 9.96,-5.26 15.1,-7.4 -3.88,5.93 -9.35,15.82 -17.89,11.82zm-168.38 -311.66c5.69,-3.16 9.84,3.69 8.12,8.63 -0.3,23.73 -23.37,36.81 -39.28,50.5 -9.26,18.44 -16.33,38.32 -29.42,54.59 -4.12,8.18 -6.22,17.35 -10.01,25.74 21.81,-15.33 45.87,-31.03 73.48,-31.52 23.64,2.41 44.99,14.23 65.42,25.6 5.08,2.89 10.04,6.02 15.01,9.17 6.97,5.39 15.82,6.2 24.24,7.34 -5.78,-11.67 -8.15,-26.04 -0.39,-37.44 12.57,-18.5 31.67,-31.47 50.92,-42.23 15.25,-7.55 30.62,-15.88 47.73,-18.14 -1.41,5.2 -2.13,10.8 -5.23,15.37 -6.26,10.95 -19.94,15.88 -22.95,28.93 -11.58,21.45 -17.11,45.15 -24.97,68.04 39.95,26.86 82.72,57.21 100.74,103.8 -0.04,7.31 0,14.62 0.06,21.92 -4.79,12.91 -12.34,24.52 -21,35.14 -5.32,5.47 -4.48,13.44 -5.47,20.45 -0.6,8.66 -3.31,16.99 -6.2,25.11 11.64,7.16 21.78,16.61 33.84,23.13 5.38,1.6 10.86,3.01 16.27,4.66 7.04,2.71 14.59,5.36 19.91,10.92 5.72,10.62 6.74,23.04 8.27,34.83 1.6,21.15 1.57,42.95 -5.14,63.32 -1.93,5.71 -4.12,11.37 -6.65,16.87 -9.26,18.35 -19.97,38.65 -39.7,47.43 -12.45,5.06 -21.51,17.72 -36.3,15.82 -5.12,4.82 -9.66,10.74 -16.31,13.51 -9.77,2.35 -20.45,-1.75 -29.68,3.1 -10.59,5.17 -21.57,9.41 -32.4,14.04 -0.03,3.7 3.97,5.81 5.96,8.61 12.75,12.45 21.87,27.88 31.67,42.61 4.21,11.07 8.09,22.26 12.15,33.39 5.24,18.14 8.75,36.82 9.93,55.68 0.36,6.58 0.57,13.2 0.48,19.82 -1.54,11.15 -6.41,24.12 -18.32,27.64 -17.02,4.75 -33.9,-3.19 -50.05,-7.76 -17.98,-4.96 -34.77,-13.15 -51.91,-20.36 -13.63,18.64 -27.34,37.38 -43.43,54.01 -2.92,1.57 -5.78,3.19 -8.73,4.67 -6.34,1.5 -12.81,2.34 -19.31,2.79 -8.69,-0.99 -17.08,-3.61 -24.99,-7.22 -25.54,-20.48 -51.97,-40.36 -81.48,-54.8 -11.01,-5.62 -21.66,-11.88 -32.18,-18.25 -22.92,-15.22 -46.17,-30.47 -66.05,-49.6 -5.15,-5.9 -10.08,-12 -14.8,-18.26 -16.12,-21.8 -28.67,-47.67 -28.76,-75.31 -0.27,-21.9 -0.33,-44.52 7.34,-65.36 5.02,-14.23 15.79,-26.71 30.14,-31.94 8.06,-3.49 19.1,-3.64 22.23,-13.48 -12.58,-14.41 -25.63,-28.39 -37.51,-43.37 17.93,1.95 35.73,5.11 53.66,7.4 3.64,-6.2 5.89,-13.69 11.34,-18.53 8.63,-3.55 16.48,3.73 24.15,6.74 8.87,-15.67 17.36,-31.55 26.41,-47.07 -9.08,-19.4 -23.13,-35.65 -34.92,-53.33 -10.26,-16.06 -13.9,-35.85 -10.29,-54.56 4.84,-26.86 11.28,-54.11 25.39,-77.78 -18.65,-17.48 -38.68,-38.8 -39.13,-65.9 -0.94,-19.83 14.52,-34.35 25.56,-48.91 3.97,-4.9 8.06,-9.69 12.33,-14.26 24.52,-26.38 54.75,-46.26 83.89,-67.01 14.89,-10.41 29.15,-22.47 46.32,-28.93zm132.34 106.23l0 0 0.84 0.87c15.01,-14.92 35.77,-22.5 50.35,-37.6 -19.46,8.43 -36.18,21.96 -51.19,36.73zm-244.29 25.69l0 0c-8.18,18.55 -6.53,39.76 -6.95,59.58 7.73,-5.35 6.92,-16.66 12.22,-24.12 0,3.13 0.06,9.32 0.08,12.45 16.52,-24.06 24.94,-52.97 29.87,-81.48 -13.86,8.48 -25.71,20.45 -35.22,33.57zm241.34 11.91l0 0c-1.14,7.43 1.27,14.94 5.45,21.05l1.65 -5.89c0,2.34 0,7 0,9.32 11.46,-15.07 15.4,-35.67 13.93,-54.44 -7.97,9.2 -15.91,18.86 -21.03,29.96zm-179.41 1.2l0 0c-16.63,15.67 -32.54,32.21 -46.44,50.35 3.22,-0.42 5.96,-1.77 8.24,-4.06 15.1,-14.08 31.61,-26.53 48.61,-38.14 14.44,-9.8 31.55,-16.39 49.24,-14.74 -5.99,2.26 -12.1,4.24 -17.99,6.77 0,0.81 0,2.44 0.03,3.22 16.84,-6.23 38.41,-4.51 51.64,8.75 26.71,24.03 46.59,54.32 67.74,83.08 -16.73,-32.85 -39.83,-62.08 -64.76,-89.09 -13.56,-13.57 -29.51,-27.44 -49.51,-29 -18.47,-0.72 -33.84,11.16 -46.8,22.86zm79.11 -22.05l0 0c29.08,31.1 59.49,61.45 83.13,97.12 8.54,13.12 17.42,28.28 13.69,44.61 -11.61,-2.92 -20.01,-12.12 -30.14,-17.9 -14.11,-8.27 -27.22,-18.92 -43.16,-23.4 1.47,12.15 9.8,21.84 16.3,31.73 20.87,29.99 50.41,52.01 77.12,76.4 5.02,4.93 10.71,9.78 13.53,16.42 0.48,11.58 -3.79,22.68 -6.91,33.66 -10.62,3.76 -22.14,3.28 -32.7,7.1 -18.29,6.71 -34.05,18.92 -47.13,33.17 -6.56,7.58 -17.06,8.76 -25.63,13 -19.31,8.84 -34.71,25.35 -41.93,45.39 -12.81,-17.33 -26.28,-36.73 -47.61,-43.95 -7.94,-2.74 -17.8,-8.48 -25.29,-1.68 -14.65,14.83 -25.39,34.17 -28.34,54.92 -0.81,25.9 -2.34,55.97 16.85,76.25 -3.76,2.31 -7.76,4.24 -11.83,5.95 6.26,7.76 11.92,16 18.47,23.55 3.19,-8.54 -0.99,-16.3 -7.58,-21.56 1.45,-1.63 2.86,-3.22 4.31,-4.82 6.67,7.7 13.44,18.11 24.15,19.98 11.64,-5.75 20.3,-16.04 29.59,-24.85 -0.45,1.87 -1.38,5.6 -1.83,7.46 13.9,-5.5 28.75,-9.65 43.85,-7.64 -0.57,-6.28 -1.17,-12.57 -2.01,-18.83 -8.94,-0.45 -18.05,-1.74 -26.86,0.21 -14.59,4.34 -27.88,12.49 -42.92,15.25 -8.79,1.84 -16.52,-4.3 -21.12,-11.1 1.45,-0.06 4.3,-0.18 5.75,-0.21 -11.22,-26.98 -4.94,-57.23 3.91,-83.94 -4.48,3.88 -8.27,8.45 -12.34,12.78 5.63,-13.38 16.04,-28.75 32.25,-28.48 -1.2,1.56 -3.64,4.69 -4.84,6.25 9.44,4.6 14.91,14.59 25.17,17.87 7.1,6.25 10.08,15.85 15.64,23.37 6.74,10.68 19.64,14.5 27.94,23.64 0.45,-4.54 1.06,-9.08 2.2,-13.5 1.17,14.07 -3.49,28.36 0.39,42.37 4.87,23.25 14.17,49.48 36.64,61.06 23.28,7.82 48.81,5.96 72.48,0.57 29.72,-7.1 53.9,-27.94 73.42,-50.56 10.29,-11.91 17.06,-26.16 25.93,-39.01 -1.05,12.97 -15.13,20.91 -15.01,33.54 9.89,5.83 23.97,14.32 34.65,5.74 23.73,-19.19 38.2,-48.66 41.18,-78.83 1.71,-20.39 3.15,-41.75 -4.06,-61.33 -3.76,-11.31 -17.3,-12.78 -26.83,-16.81 -31.16,-11.76 -64.7,-4.48 -96.91,-5.45 23.22,-5.08 47.1,-5.71 70.83,-5.53 -18.95,-11.01 -41.03,-14.71 -62.29,-18.68 0.69,-8.69 0.63,-17.41 -1.15,-25.95l3.58 2.61c1.39,-11.73 9.9,-20.42 16.04,-29.9 13.11,-18.01 18.13,-40.18 23.34,-61.45 0.63,-4.93 3.39,-13.14 -3.76,-14.13 -4.33,11.1 -7.88,22.62 -13.78,32.99 -1.17,0.25 -3.55,0.7 -4.75,0.91 -8.03,-25.9 -15.07,-52.79 -30.62,-75.5 -14.5,-22.47 -34.89,-45.11 -63.28,-47.58 10.19,11.82 24.12,20.09 33.11,33.02 -31.13,-26.49 -64.73,-50.86 -102.83,-66.32zm123.49 51.16l0 0c9.48,15.01 19.04,29.96 27.68,45.48 -2.05,-8.21 -5.51,-15.97 -8.31,-23.91 21.09,13.05 38.98,30.29 56.49,47.61 -19.79,-28.3 -46.38,-51.4 -75.86,-69.18zm-212.58 78.3l0 0c10.94,0.18 22.79,-0.91 32.57,5.11 7.28,5.05 12.78,12.15 18.08,19.13 -12.28,-9.17 -25.36,-20.63 -41.93,-18.32 -19.46,-1.89 -35.25,12.45 -42.11,29.54 12.66,-11.28 26.98,-24.64 45.12,-23.82 20.57,4.27 35.7,20.27 50.02,34.5 17.5,15.85 36.09,30.46 55.31,44.21 11.73,8.51 24.99,15.7 39.55,17.63 -19.97,-10.02 -37.39,-24.19 -56.04,-36.1 1.33,-1.53 2.68,-3.06 4.07,-4.57 2.22,5.08 6.97,8.15 11.3,11.28 24.28,17.17 52.91,26.59 81.12,35.01 1.18,-4.27 2.14,-8.6 2.83,-12.96 -37.9,-5 -73.75,-20.43 -104.4,-43.1 1.33,1.44 3.97,4.33 5.33,5.77 -1.72,1.23 -3.37,2.5 -5.06,3.73 -18.4,-20.99 -32.75,-45.78 -54.77,-63.43 -11.16,-9.78 -28.24,-10.38 -40.99,-3.61zm288.89 56.87l0 0c-11.55,12.97 -25.23,23.95 -39.13,34.26 0.03,2.17 0.12,6.53 0.15,8.7 10.05,-7.1 17.66,-16.91 27.07,-24.73 -1.5,4.54 -4.15,8.54 -6.38,12.75 2.5,-2.25 5.15,-4.39 7.22,-7.09 -0.27,-4.31 0.33,-8.58 2.71,-12.28l-0.6 10.95c14.04,-17.41 30.29,-38.62 22.23,-62.47 -2.77,13.75 -3.46,28.85 -13.27,39.91zm-134.84 -8.84l0 0c15.94,15.76 31.64,31.82 46.68,48.49 6.86,6.73 3.58,16.21 1.3,24.15 8.54,-5.96 13.2,-21.66 4.06,-29.48 -16.12,-15.67 -33.54,-30.38 -52.04,-43.16zm-106.86 8.24l0 0c-19.07,22.95 -27.92,58.29 -11.94,85.24 4.24,6.35 7.73,16.21 17.11,15.13 -9.8,-19.37 -16.12,-42.29 -9.17,-63.64 3.97,-14.02 13.95,-24.82 22.5,-36.13 -3.49,-7.76 -14.23,-7.46 -18.5,-0.6zm-40.07 53.06l0 0c1,-0.24 2.95,-0.69 3.94,-0.93 1.6,-15.79 5.09,-31.37 11.28,-46.02 -10.1,13.32 -14.31,30.47 -15.22,46.95zm52.7 -39.1l0 0c0.54,-0.03 1.63,-0.06 2.17,-0.09 -8.43,7.61 -13.33,18.8 -14.26,30.05l-0.99 2.31c-4.7,17.69 0.75,36.88 13.47,49.99 10.14,-4.6 21.48,-7.04 30.62,-13.62 10.35,-11.28 12.48,-27.86 12.15,-42.56 -0.99,-16.79 -18.32,-22.62 -29.5,-31.71 -5.54,-4.75 -10.08,2.17 -13.66,5.63zm-42.59 41.02l0 0c-0.96,3.34 0.72,6.5 1.87,9.54 2.16,-15.64 4.99,-31.16 9.02,-46.44 -7.1,10.98 -8.42,24.36 -10.89,36.9zm89.18 -21.71l0 0c3.64,15.82 1.08,32.18 -3.73,47.46 14.71,-3.97 29.6,-7.37 44.61,-9.95 4.99,-1.3 10.7,-1.12 14.98,-4.4 -20.52,-7.52 -37.66,-21.47 -55.86,-33.11zm160.71 9.74l0 0c-0.13,2.08 -0.36,6.23 -0.52,8.31l-4.03 -1.09c0.15,2.44 0.46,7.31 0.64,9.75l-6.2 0.18c-0.87,-1.17 -2.59,-3.52 -3.46,-4.69 0.03,9.02 11.37,5.17 17.02,7.55 3.07,-7.31 4.31,-15.19 2.53,-22.98 -1.47,0.72 -4.48,2.22 -5.98,2.97zm-217.29 72.76l0 0c16.34,-7.25 32.1,-15.97 49.36,-21.05 -17.47,2.73 -38.08,5.92 -49.36,21.05zm12.46 10.95l0 0c9.44,-4.51 18.53,-9.84 28.33,-13.57 9.72,-4.12 20.45,-5.98 29.21,-12.18 -21.93,-1.17 -40.73,13.48 -57.54,25.75zm-78.45 -19.1l0 0c13.72,-2.04 28.49,-1.23 40.37,6.71 -10.74,-0.45 -21.84,-4.27 -32.43,-0.87 -13.05,6.37 -21.05,19.43 -27.43,31.94 8.42,-9.33 15.1,-20.97 26.89,-26.53 11.73,-7.19 24.91,0.39 36.76,3.34 15.91,4.24 26.77,17.74 34.59,31.43 -0.99,-12.69 -10.92,-22.26 -19.19,-30.98 -15.94,-13.39 -39.04,-26.8 -59.56,-15.04zm-62.86 68.1l0 0c-2.55,-2.65 -4.96,-5.42 -7.22,-8.34 3.58,-3.24 6.95,-6.67 10.11,-10.28 -5.02,-4.27 -10.95,-6.71 -17.63,-6.11 -9.17,18.77 -18.46,37.48 -27.43,56.37 8.12,0.9 16.79,5.53 24.73,1.59 7.28,-3.88 15.46,-4.03 23.46,-2.89 1.83,0.67 5.47,1.93 7.31,2.59l-6.47 -0.99c10.23,8.57 19.37,19.4 20.06,33.35 7.52,5.72 13.3,20.64 24.6,13.87 -17.8,-20.54 -33.02,-43.1 -47.22,-66.2 -2.1,-3.37 -2.76,-7.34 -3.55,-11.13 7.34,6.32 11.94,15.1 19.04,21.63 0.54,-0.3 1.57,-0.91 2.08,-1.21 2.58,-18.7 5.23,-38.19 15.64,-54.47 6.83,-9.44 4.45,-21.98 -1.17,-31.4 -13.18,20.58 -23.89,42.71 -36.34,63.62zm82.47 -24.16l0 0c-13.44,26.02 -15.91,56.76 -8.87,85.03 8.66,-24.87 21.66,-48.45 40.67,-66.98 -8.67,-2.95 -13,-11.13 -19.01,-17.23 -3.55,-3.76 -8.9,-4.49 -12.79,-0.82zm-157.6 8.37l0 0c11.61,8.27 20,20.9 32.66,27.49 5.84,-6.56 -2.7,-10.5 -6.19,-15.25 3.42,1.98 6.82,4 10.22,6.1 2.14,-3.76 4.24,-7.46 6.35,-11.22 -14.41,-2.13 -28.64,-5.17 -43.04,-7.12zm192.74 73.38l0 0c6.19,-10.43 14.67,-19.12 24.51,-26.16 -12.72,-8.42 -18.53,-22.74 -25.3,-35.7 -8.72,19.46 -7.46,42.47 0.79,61.86zm-9.75 -54.17l0 0c-16.9,19.07 -28.12,43.68 -29.51,69.21 12.76,1.54 26.32,-2.43 36.31,-10.43 -8.45,-18.62 -6.53,-38.98 -6.8,-58.78zm-123.05 35.11l0 0c7.16,4.3 14.77,7.73 21.93,12.09 -0.51,-2.38 -1.53,-7.1 -2.08,-9.48 4.15,6.86 6.32,15.94 15.04,18.38 -0.75,-12.33 -9.92,-24.3 -22.25,-26.65 -4.37,-0.18 -11.77,0.18 -12.64,5.66zm137.97 20.78l0 0c7.22,-2.26 14.71,-3.31 22.26,-3.64 -0.91,-8.03 -0.46,-16.15 0.87,-24.09 -11.43,5.47 -17.96,16.72 -23.13,27.73zm-218.58 11.58l0 0c9.72,-15.79 26.98,-27.07 45.99,-26.05 -9.41,6.05 -20.21,11.55 -24.51,22.65 10.08,-9.77 23.58,-17.96 38.23,-15.43 19.04,3.37 34.32,16.39 49.08,27.94 16.94,14.62 33.3,31.74 40.79,53.27 5.6,1.08 11.19,2.17 16.78,3.22 -12.36,-36.61 -38.07,-69.39 -72.9,-86.87 -17.45,-9.05 -37.57,-15.61 -57.33,-11.42 -16.82,3.48 -30.14,16.93 -36.13,32.69zm242.25 -19.04l0 0c3.7,2.38 7.43,4.72 11.37,6.77 1.35,-5.42 -3.16,-8.18 -5.87,-11.7l6.71 -1.15c-2.8,-3.94 -5.8,-7.73 -9.02,-11.3 -1.2,5.74 -2.26,11.55 -3.19,17.38zm172.68 58.83l0 0c10.16,1.78 17.47,-5.02 23.88,-11.76 11.61,-0.18 22.22,-5.5 31.34,-12.39 -5.39,-7.28 -14.71,-9.32 -21.6,-14.71 -10.16,13.84 -21.56,26.68 -33.62,38.86zm-211.57 -13.86l0 0c19.55,11 42.92,11.22 64.82,10.4 -2.17,-4.9 -4.49,-9.74 -6.92,-14.49 -18.98,-4.18 -40.4,-6.14 -57.9,4.09zm-37.33 23l0 0c6.17,-4.48 6.11,-13.29 1.45,-18.91 -3.55,5.86 -4.09,12.63 -1.45,18.91zm11.61 -5.68l0 0c-0.96,5.42 -3.3,10.35 -6.46,14.86 3.33,15.49 21.05,15.01 33.38,18.26 -7.37,-6.08 -9.89,-17.21 -3.22,-24.82 7.31,-5.86 21.9,-9.86 27.19,0.42 6.53,14.62 11.89,29.75 18.02,44.55 2.59,7.25 10.2,13.32 18.17,12.39 15.25,-1.11 30.77,-5.23 43.4,-14.14 -8.36,-0.36 -16.75,0.43 -25.12,0.15 -12.12,-9.26 -6.49,-30.55 8.4,-33.62 -9.48,-4.39 -15.55,-13.12 -23.25,-19.55 -22.77,1.62 -45.81,-0.94 -67.2,-9.21 -5.95,6.83 -13.65,12.55 -23.31,10.71zm25.57 20.57l0 0c7.07,10.11 13.29,22.5 26.05,26.32 -3.82,-11.31 -13.69,-19.19 -17.66,-30.41 0.87,-1.98 1.84,-3.88 2.92,-5.74 0.18,14.05 12.48,23.22 16.54,36 4.48,2.83 8.99,5.6 13.6,8.3 -5.66,-14.1 -10.89,-28.39 -16.91,-42.35 -4.81,-12.39 -29.17,-5.56 -24.54,7.88zm148.85 1.12l0 0c4.09,5.5 9.99,10.28 11.1,17.41 1.63,7.64 8.94,12.12 13.69,17.87 -2.11,5.89 -4.09,11.85 -5.9,17.86 2.8,-3.72 5.36,-7.67 7.97,-11.55 2.8,2.83 8.18,4 9.06,8.4 -9,12.66 -16.16,26.92 -17.78,42.62 5.26,-11.43 9.68,-24.4 20.24,-32.1 16.76,28.49 16.76,63.32 9.93,94.75 -1.78,7.73 7.88,8.3 12.6,10.89 7.19,-11.37 4.33,-25.42 4.69,-38.11 -1.2,-49.33 -23.1,-100.67 -65.6,-128.04zm-263.36 9.59l0 0c-22.52,17.9 -26.74,49.84 -22.43,76.67 3,12.54 16.45,17.11 26.49,22.77 -4.21,-32.33 0.54,-71.77 29.48,-91.8 -13.14,13.51 -23.76,31.22 -22.95,50.65 0.81,16 -1.99,34.5 9.75,47.43 4.75,7.13 13.41,9.03 21.29,10.47 0.51,-30.44 3.4,-68.06 32.21,-85.69 -6.07,9.14 -14.58,16.66 -18.85,26.95 -10.44,21.18 -7.25,46.74 3.42,67.1 10.35,11.91 23.65,22.41 39.44,25.6 22.61,4.81 46.89,-3.49 63.31,-19.34 18.41,-18.05 23.82,-48.88 10.23,-71.22l0.24 -1.51c4.39,6.59 8.6,13.3 12.45,20.24 8.39,-4.27 17.2,-7.64 26.17,-10.52 -4.03,-4.66 -8.3,-9.15 -13.3,-12.79 -38.26,-29.08 -82.8,-49.53 -129.21,-61.78 -22.35,-4.54 -47.19,-3.97 -67.74,6.77zm192.05 12.18l0 0c5.71,4.37 13.14,2.53 19.7,2.02 14.95,-1.99 30.08,-0.93 45.09,-2.23 -7.55,-4.33 -16.04,-6.76 -23.28,-11.58 1.68,4.85 5.44,7.82 10.52,8.6 -15.34,-0.63 -30.89,0.1 -46.11,-1.59 -0.33,-2.92 -0.96,-8.78 -1.29,-11.7 1.05,1.63 3.16,4.84 4.21,6.44 10.86,4.36 23.55,2.43 35.01,4.66 -1.11,-1.69 -3.28,-4.99 -4.39,-6.65 -9.98,-2.86 -19.58,-6.83 -29.38,-10.25 -8.49,3.79 -13.6,13.26 -10.08,22.28zm-12.93 26.47l0 0c12.48,8.6 24.93,17.33 36.06,27.67 13.44,-1.74 26.59,-5.05 39.82,-7.88 -11.46,-10.19 -22.83,-21.29 -37.11,-27.37 -13.45,-1.98 -25.3,7.58 -38.77,7.58zm31.34 36.79l0 0c-4.97,2.37 -2.62,8.69 -1.24,12.6 13.81,-10.59 31.71,-8.57 48.04,-9.75 -0.99,-5.17 -2.29,-10.28 -3.52,-15.36 -14.98,1.83 -29.66,6.01 -43.28,12.51zm115.22 -286.4l0 0c-9.65,2.31 -19.73,5.32 -26.61,12.9 5.59,3.04 11.55,5.44 17.83,6.59 -3.61,-2.74 -7.16,-5.57 -10.04,-9.06 4.51,0.52 9.05,1.39 13.56,2.35 17.42,-9.29 37.87,-10.89 57.06,-7.13 4.75,-0.06 6.1,5.09 8.78,8.06 -0.6,-6.68 -2.98,-16.72 -11.34,-16.72 -16.42,-1.57 -33.11,-0.51 -49.24,3.01zm65.33 -0.39l0 0c0.63,2.16 1.3,4.33 1.96,6.52 6.89,1.33 13.29,4.21 19.7,7.01 -2.23,-9.99 -12.9,-12.39 -21.66,-13.53z"/>
  </g>
 </g>
</svg>
