<?xml version="1.0" encoding="UTF-8"?>
<!DOCTYPE svg PUBLIC "-//W3C//DTD SVG 1.1//EN" "http://www.w3.org/Graphics/SVG/1.1/DTD/svg11.dtd">
<!-- Creator: CorelDRAW -->
<svg xmlns="http://www.w3.org/2000/svg" xml:space="preserve" width="2000px" height="1600px" version="1.1" style="shape-rendering:geometricPrecision; text-rendering:geometricPrecision; image-rendering:optimizeQuality; fill-rule:evenodd; clip-rule:evenodd"
viewBox="0 0 2000 1600"
 xmlns:xlink="http://www.w3.org/1999/xlink">
 <defs>
  <style type="text/css">
   <![CDATA[
    .fil1 {fill:#040204;fill-rule:nonzero}
    .fil3 {fill:#840416;fill-rule:nonzero}
    .fil2 {fill:#C4B163;fill-rule:nonzero}
    .fil0 {fill:#FBFDFB;fill-rule:nonzero}
   ]]>
  </style>
 </defs>
 <g id="Capa_x0020_1">
  <metadata id="CorelCorpID_0Corel-Layer"/>
  <g id="Boston_x0020_College_x0020_Eagles.cdr">
   <path class="fil0" d="M1173.8 928.01c29.11,5.82 56.6,18.07 82.2,32.9 18.77,11.56 37.11,24.73 50.88,42.2 7.21,9.38 13,20.92 11.45,33.11 -6.42,-1.5 -12.95,-2.48 -19.56,-1.72 1.52,-3.24 2.94,-6.5 4.27,-9.79 -4.68,0.13 -7.21,6.09 -12.43,4.08 -7.19,-3.38 -9.17,-11.92 -12.41,-18.5 -3.29,-8.33 -10.29,-14.56 -18.12,-18.5 4.3,5.03 9.3,9.63 11.89,15.91 -4.68,2.15 -10.53,4.85 -10.58,10.8 -1.88,9.99 11.37,16.33 18.82,10.02 2.67,2.36 5.34,4.78 7.92,7.29 -15.94,6.2 -31.34,-5.55 -47.7,-4.03 3.73,11.48 8.55,22.58 13.96,33.39 -32.4,-20.25 -67.74,-35.89 -105.02,-44.62 11.59,-10.4 25.85,-16.87 38.88,-25.12 -17.33,-10.72 -35.8,-20.19 -55.83,-24.59 19.81,-7.95 41.63,-11 62.88,-9.2 -6.07,-11.89 -13.25,-23.15 -21.5,-33.63zm-358.19 197.8c31.18,-4.57 61.52,-15.75 87.64,-33.49 14.06,34.69 46.91,57.43 81.41,68.89 8.48,3.24 17.54,4.65 26.06,7.86 -66.88,20.9 -142.76,2.53 -195.11,-43.26zm502.26 -73.32c13.47,0.62 20.76,21.14 11.21,30.55 2.39,-11.7 -3.4,-22.39 -11.21,-30.55z"/>
   <path class="fil1" d="M635.88 80l534.03 0c48.27,1.69 96.78,2.64 144.67,9.85 29.68,4.68 59.99,11.13 85.89,27.04 20.49,12.33 36.51,32.44 42.34,55.78 5.87,22.94 2.61,47.18 -3.98,69.6 -11.34,38.85 -32.18,73.84 -49.13,110.32 -12.95,24.95 -23.78,51.29 -41.06,73.68 -24.24,32.93 -58.36,57.47 -95.69,73.63 15.51,19.48 19.84,45.87 17.31,70.11 -2.73,28.16 -14.75,54.2 -27.43,79.09 43.67,-34.71 95.69,-55.96 143.49,-84.04 55.37,-31.91 109.03,-70.44 145.89,-123.58 27.94,-39.42 42.85,-87.17 44.65,-135.33 15.18,32.73 18.2,70.22 11.67,105.48 -7.73,43.73 -27.83,84.35 -53.14,120.51 26.34,-17.36 45.01,-43.43 65,-67.26 -5.87,43.91 -24.65,85.87 -53.54,119.47 25.33,-8.57 46.96,-25.33 65.24,-44.48 -13.17,39.75 -42.03,72.94 -77.18,95.14 86.62,1.5 173.36,0.3 260.05,0.6 -53.63,110.52 -109.24,220.08 -162.95,330.57 -96.53,0.22 -193.04,0.19 -289.57,0 18.88,-38.01 37.62,-76.1 56.53,-114.1 -11.78,-0.11 -23.53,0.02 -35.31,-0.14 -22.5,39.99 -48.4,82.03 -91.09,103.03 20.65,15.13 41.46,31.73 54.25,54.34 4.98,8.11 5.71,17.63 6.34,26.88 10.99,12.87 20.98,30.34 14.75,47.67 -7.38,19.12 -27.21,28.76 -44.95,36.21 2.75,-12.6 5.17,-26.12 -0.63,-38.31 -4.11,10.72 -8.46,21.36 -14.47,31.16 -9.96,-7 -18.53,-15.81 -25.47,-25.8 -3.94,-6.09 -11.1,-8.57 -17.17,-11.91 -20.08,-10.53 -41.11,-19.13 -62.6,-26.26 19.97,31.72 39.67,64.13 51.99,99.72 4.63,2.55 9.17,5.41 14.31,6.93 5.25,-11.56 11.38,-22.71 16.68,-34.25 96.43,0.08 192.85,-0.11 289.28,0.08 -27.51,55.32 -54.67,110.82 -82.39,166.02 -22.5,46.47 -45.22,93.76 -79.01,133.27 -23.43,27.48 -52.89,49.68 -86.2,63.77 -53.24,22.5 -111.57,28.62 -168.76,32.35 -69.82,4.11 -139.74,2.97 -209.67,3.13 -150.89,-0.03 -301.79,0.05 -452.68,-0.05 93.51,-189.89 187.73,-379.42 281.16,-569.35 -78.79,2.01 -157.61,1.33 -236.43,1.44 -105.3,0 -210.56,-0.05 -315.86,0.03l0 -6.43 0.9 4.68c11.62,-26.44 25.06,-52.02 37.85,-77.89 130.62,-264.16 261.57,-528.19 392.09,-792.4zm21.22 33.19l0 0c-133.24,268.27 -266.01,536.84 -398.76,805.35 37.55,0.3 75.12,0.06 112.67,0.14 143.79,-0.46 287.64,1.2 431.41,-1.42 -5.23,-6.5 -11.05,-12.48 -15.76,-19.37 -7.21,-0.08 -14.39,-0.02 -21.57,0.36 6.55,-0.55 13.11,-1.09 19.67,-1.5 -24.11,-32.05 -44.46,-67.15 -57.41,-105.21 -2.09,-6.75 -4.13,-13.47 -5.93,-20.27 -58.42,-0.47 -116.8,-0.03 -175.22,-0.22 20.11,-40.05 39.53,-80.43 59.67,-120.42 -4.19,-7.08 -8.49,-14.1 -12.71,-21.14 -10.23,-20.25 -19.89,-41.17 -23.7,-63.7 21.17,19.05 45.99,34.45 73.82,41.42 1.28,-1.99 3.81,-5.96 5.09,-7.95 -8.71,-8.38 -18.4,-15.73 -25.8,-25.39 -36.97,-43.5 -48.75,-103.41 -43.31,-159.13 5.63,8.38 6.64,18.91 11.23,27.88 15.87,37.52 40.3,75.15 78.17,93.08 -12.02,-18.53 -23.97,-37.38 -31.45,-58.36 -21.58,-58.06 -19.45,-122.51 -4.08,-181.83 1.8,-5.93 2.28,-12.57 6.48,-17.47 0.46,72.84 21.41,146.79 65.4,205.45 4.79,5.93 9.01,12.57 15.32,17.03 -13.55,-32.65 -24.95,-66.55 -28.59,-101.89 -7.11,-58.14 6.23,-118.98 39.04,-167.74 3.86,-5.63 7.62,-11.53 13.11,-15.78 -9.36,39.86 -13.71,81.65 -6.96,122.25 0.22,11.51 3.05,23.02 6.07,34.12 19.15,-36.76 36.75,-74.31 55.55,-111.26 111.47,0.09 222.94,0 334.39,0.03 10.55,0.44 21.68,1.01 31.18,6.1 4.43,2.39 5.79,7.53 6.26,12.18 -1.8,13.91 -9.61,25.93 -15.54,38.37 -9.71,20.1 -19.51,40.21 -29.85,60.05 -15.4,25 -45.9,35.64 -73.98,36.94 -98.02,0.38 -196.06,-0.27 -294.06,0.33 3,6.77 6.21,13.44 9.47,20.11 22.42,42.71 56,78.03 90.06,111.58 7.86,6.28 14.2,14.91 23.02,19.64 36.37,0.3 72.75,0 109.1,0.14 7.92,0.38 16.38,0.76 23.37,4.84 6.42,3.56 5.99,11.7 4.84,17.93 -5.25,24.13 -19.4,44.89 -28.51,67.53 5.39,4.27 10.69,8.62 16.08,12.92 41.27,34.01 81.49,70.63 110.79,115.82 3.95,6.18 7.67,12.49 11.56,18.7 7.65,-11.21 12.03,-24.14 18.42,-36.03 6.75,-14.01 16.14,-26.55 21.96,-41.03 18.47,-36.94 36.76,-73.95 54.96,-111 10.88,-24.24 20.16,-51.81 12.76,-78.42 -6.94,-24.43 -29.68,-40.51 -52.92,-47.75 0.82,-3.53 5.31,-2.58 7.92,-3.78 47.34,-10.83 94.08,-32.73 125.48,-70.87 21.06,-24.35 32.6,-54.8 47.45,-82.96 16.49,-35.34 36.92,-69.33 46.53,-107.44 5.68,-22.26 5.19,-48.79 -11.48,-66.42 -19.73,-20.54 -48.87,-27.29 -75.78,-32.73 -59.77,-10.17 -120.64,-10.75 -181.09,-11.67 -161.29,-0.11 -322.55,0.19 -483.84,-0.14zm162.1 180.47l0 0c-14.58,28.87 -28.59,58.04 -42.98,87.01 90.73,-0.21 181.5,0.11 272.21,-0.16 17.58,-1.09 38.09,-5.39 48.21,-21.36 10.88,-21.79 21.85,-43.56 32.32,-65.6 -103.25,0.09 -206.5,-0.11 -309.76,0.11zm-94.11 123.91l0 0c15.1,80.97 60.43,155.03 123.5,207.67 57.05,49.49 124.01,87.04 176.58,141.78 23.86,22.34 39.64,52.08 49.22,83.04 10.44,34.15 11.2,72.65 -4.68,105.27 -14.18,29.44 -40.25,51.34 -68.89,66.03 20.7,29.3 51.04,49.41 81.05,68.05 -27.16,-2.8 -53.85,-9.09 -80.1,-16.44 2.37,4.85 7.21,7.6 11.26,10.89 25.8,19.67 56.92,30.25 87.58,39.67 -11.48,1.27 -23.07,0.32 -34.6,0.43 1.98,3.57 6.12,4.71 9.6,6.2 20.03,7.38 42.12,9.72 63.07,5.31 -4.63,-25.96 -14.83,-50.66 -27.4,-73.71 -17.58,-2.8 -35.72,-4.95 -52.21,-12.24 19.4,0.25 38.52,-3.07 57.43,-7.02 11.84,-2.5 24,-1.77 35.92,-3.37 -14.56,-4.25 -29.66,-6.31 -44.13,-10.69 15.72,-11.9 32.05,-23.38 50.63,-30.37 0.33,-0.68 0.93,-2.09 1.22,-2.77 -21.79,-10.29 -45.19,-16.27 -68.31,-22.48 22.69,-12.49 47.39,-22.39 73.18,-26.03 -7.37,-13.91 -16.89,-26.45 -25.03,-39.89 28.25,2.37 55.34,11.34 81.76,21.11 -6.66,-77.57 9.72,-159.74 57.55,-222.56 42.66,-55.47 106.24,-88.04 164.71,-123.87 35.65,-21.88 72.16,-48.16 88.84,-88.05 -5.5,4.49 -9.69,10.26 -14.72,15.18 -26.28,26.78 -59.23,45.57 -91.88,63.45 -64.21,34.45 -131.53,66.33 -184.44,117.59 -49.25,45.96 -82.99,107.39 -97.79,172.91 16.98,7.26 33.44,17.38 45.19,31.83 -18.99,-5.74 -38.28,-10.42 -57.92,-13.17 -5.77,-9.66 -6.29,-21.82 -11.32,-31.99 -20.6,-55.83 -62.5,-100.05 -107.06,-137.92 -66.58,-55.78 -139.72,-104.23 -199.41,-167.87 -35.67,-37.17 -65.6,-79.88 -88.4,-125.97zm-32.87 97.62l0 0c1.15,4.84 2.73,9.58 4.58,14.2 35.72,91.39 93.56,173.91 166.24,239.73 0.92,1.22 2.8,3.73 3.72,4.98 -11.56,-4.82 -22.42,-11.16 -33.27,-17.31 -47.21,-27.45 -92.15,-58.6 -135.99,-91.12 1.72,3.38 3.57,6.7 5.83,9.74 40.54,56.3 85.92,110.14 141.23,152.53 7.16,5.71 15.4,10.01 22.07,16.38 -27.62,-6.99 -53.38,-19.34 -79.4,-30.58 17.09,36.89 45.88,67.34 77.68,92.12 23.46,17.88 50.2,32.82 79.59,37.71 16.65,2.1 34.36,1.47 49.6,-6.25 21.98,-10.97 39.83,-32.33 42.58,-57.22 2.83,-26.34 -9.64,-51.48 -24.85,-72.13 -26.2,-34.8 -61.29,-61.68 -97.62,-85.11 -86.68,-53.68 -163.35,-124.17 -221.99,-207.67zm742.72 117.75l0 0c-44.86,25.85 -92.42,50.58 -125.81,91.34 -17.03,21.57 -28.18,47.18 -35.8,73.41 -0.73,2.74 -1.69,5.6 -0.95,8.46 14.23,-10.88 30.17,-20.33 47.96,-23.78 -7.5,42.63 -23.53,84.21 -48.92,119.44 32.27,-11.56 54.04,-40.54 68.65,-70.28 16.57,-33.76 33.14,-68.34 59.15,-96.04 22.85,-24.46 50.82,-43.67 80.92,-58.14 3.37,-1.55 6.44,-3.7 9.25,-6.18 -34.58,2.64 -67.86,12.98 -100.7,23.45 43.34,-26.77 83.45,-59.15 116.61,-97.95 5.04,-6.12 10.7,-11.83 14.37,-18.93 -26.69,20.65 -55.18,38.91 -84.73,55.2zm-515.61 -33.84l0 0c13.63,11.83 27.86,22.99 42.23,33.9 6.09,-11.05 11.04,-22.67 16.75,-33.9 -19.67,-0.17 -39.34,-0.17 -58.98,0zm581.67 89.48l0 0c-23.97,16.08 -48.53,31.89 -68.67,52.79 -16.6,16.97 -29.93,36.81 -41.27,57.6 -3.7,6.47 -7.32,13 -10.48,19.77 24.05,0 48.13,-0.27 72.21,0.14 -19.04,37.9 -37.57,76.05 -56.56,113.97 71.55,0.17 143.14,0.19 214.72,0 43.29,-88.01 87.23,-175.7 130.38,-263.78 -70.47,0.06 -140.94,-0.27 -211.4,0.17 -9.88,6.09 -19.08,13.25 -28.93,19.34zm-901.06 49l0 0c26.93,0.47 53.87,-0.21 80.8,0.39 -18.88,-17.36 -36.97,-35.7 -52.7,-55.97 -10.09,18.12 -18.39,37.25 -28.1,55.58zm573.86 190.43l0 0c8.25,10.48 15.43,21.74 21.5,33.63 -21.25,-1.8 -43.07,1.25 -62.88,9.2 20.03,4.4 38.5,13.87 55.83,24.59 -13.03,8.25 -27.29,14.72 -38.88,25.12 37.28,8.73 72.62,24.37 105.02,44.62 -5.41,-10.81 -10.23,-21.91 -13.96,-33.39 16.36,-1.52 31.76,10.23 47.7,4.03 -2.58,-2.51 -5.25,-4.93 -7.92,-7.29 -7.45,6.31 -20.7,-0.03 -18.82,-10.02 0.05,-5.95 5.9,-8.65 10.58,-10.8 -2.59,-6.28 -7.59,-10.88 -11.89,-15.91 7.83,3.94 14.83,10.17 18.12,18.5 3.24,6.58 5.22,15.12 12.41,18.5 5.22,2.01 7.75,-3.95 12.43,-4.08 -1.33,3.29 -2.75,6.55 -4.27,9.79 6.61,-0.76 13.14,0.22 19.56,1.72 1.55,-12.19 -4.24,-23.73 -11.45,-33.11 -13.77,-17.47 -32.11,-30.64 -50.88,-42.2 -25.6,-14.83 -53.09,-27.08 -82.2,-32.9zm-377.86 20.54l0 0c-88.94,179.22 -177.39,358.68 -266.01,538.06 137.48,0.08 274.94,0 412.42,0.03 85.4,-0.33 171.19,1.74 256.1,-9.17 48.41,-6.72 98.14,-18.61 137.86,-48.56 37.52,-27.92 62.09,-68.95 83.29,-109.79 27.4,-54.69 54.2,-109.64 81.46,-164.41 -71.67,0.24 -143.36,-0.41 -215.03,0.4 -1.87,4.19 -3.8,8.33 -5.82,12.44 7,2.04 13.2,6.8 20.41,7.86 4.19,5.5 10.47,9.36 13.47,15.81 5.57,10.85 4.57,24.16 -0.22,35.12 -2.69,-9.87 -7.84,-21.76 -18.64,-24.48 2.04,14.01 -8.32,26.93 -21.49,30.5l-0.41 -4.08c7.37,-9.66 4.19,-27.62 -8.95,-29.93 -11.13,24.95 -24.11,48.97 -35.97,73.57 -8.11,18.53 -20,36.05 -36.89,47.58 -14.64,10.42 -32.68,15.48 -50.53,15.48 -107.04,-0.24 -214.07,0.33 -321.11,-0.27 17.77,-35.88 35.37,-71.83 53.22,-107.69 5.39,-13.14 13.88,-25.05 17.96,-38.68 -6.48,-1.56 -12.87,-3.43 -19.18,-5.5 -36.03,-12.46 -69.68,-35.51 -89.35,-68.7 64.29,-18.58 129.34,-43.61 179.05,-89.92 2.78,-2.37 5.06,-5.23 6.72,-8.46 -50.2,-9.74 -96.04,-35.32 -134.7,-68.24 -4.85,0.16 -9.69,0.3 -14.53,0.43 -7.7,0.63 -15.43,0.79 -23.13,0.6zm475.62 79.04l0 0 -0.08 -3.51c5.9,4.11 5.39,-6.69 -0.06,-1.96l0 -2.26 3.13 -2.39c-0.57,-1.47 -1.76,-4.43 -2.36,-5.9 -9.04,1.22 -10.45,15.23 -0.63,16.02zm-17.98 11.59l0 0c6.47,20.11 15.8,39.75 30.09,55.51 8.68,-5.39 9.36,-16.6 11.02,-25.69 -2.42,-1.6 -4.82,-3.18 -7.21,-4.79 1.41,8.68 1.41,17.52 0.22,26.23 -1.12,0.22 -3.32,0.6 -4.44,0.79 -6.58,-13.41 -12.65,-27.13 -17.71,-41.19 12.21,2.04 23.53,7.75 34.03,14.12 11.51,6.99 19.13,20.05 18.62,33.66 7.64,-4.85 15.94,-10.34 18.93,-19.38 2.75,-12.68 -4.81,-25.03 -13.88,-33.22 -10.41,-6.94 -23.99,-4.05 -35.45,-1.66 -11.56,4.87 -22.71,-3.48 -34.22,-4.38zm-112.64 53.33l0 0c12.95,13.79 30.11,21.98 46.36,31.04 -8.73,-0.02 -17.47,0.11 -26.15,0.47 8.63,8.81 21.09,12.46 32.68,15.75 7.67,1.36 15.86,3.97 23.59,1.44 -5.61,-16.68 -14.53,-32.02 -24.92,-46.14 -17.23,2.64 -34.48,-0.41 -51.56,-2.56zm-325.33 33.3l0 0c52.35,45.79 128.23,64.16 195.11,43.26 -8.52,-3.21 -17.58,-4.62 -26.06,-7.86 -34.5,-11.46 -67.35,-34.2 -81.41,-68.89 -26.12,17.74 -56.46,28.92 -87.64,33.49zm204.44 60.1l0 0c-29.74,12.11 -62.82,12.46 -94.35,9.53 -17.06,35.56 -34.78,70.82 -52.24,106.19 89.18,0.03 178.34,-0.03 267.53,0.03 10.96,0.08 21.98,-3.03 31.07,-9.2 13.66,-8.92 21.28,-24.05 27.97,-38.39 5.44,-12.38 12.41,-24.05 17.58,-36.54 -3.84,-6.12 -9.5,-10.53 -15.92,-13.69 4.65,24.16 -18.99,40.08 -39.15,45.96 8.65,-9.85 18.09,-21.14 17.28,-35.13 -0.19,-12.92 -13.12,-21.57 -25.09,-21.9 -15.78,-1.58 -30.5,9.88 -34.83,24.76 -6.77,-15.18 -7.34,-36.43 9.17,-45.55 -0.57,-6.63 -10.12,-9.85 -15.31,-13.52 -20.44,-2.61 -40.82,-8.38 -58.58,-19.07 -12.11,15.15 -21.66,32.48 -35.13,46.52zm109.7 -31.64l0 0c6.13,5.99 14.45,9.14 20.57,15.24 -5.71,3.59 -11.26,7.56 -15.72,12.7 12.68,-3.78 28.13,-7.12 39.37,2.07 9.08,6.1 12.68,16.65 17.98,25.66 0.57,-8.14 -0.24,-16.33 -3.26,-23.94 11.97,3.04 22.03,10.25 32.54,16.43 -15.98,-25.77 -47.45,-33.66 -72.98,-46.55 -5.49,-3.92 -12.35,-1.74 -18.5,-1.61zm85 8.71l0 0c8.22,3.75 16.54,7.18 24.81,10.83 -4.05,4.4 -8.02,8.98 -10.74,14.36 9.98,-4.46 21.36,-6.69 32.1,-3.67 9.99,3.02 17.63,10.5 24.54,17.93 -0.4,-6.21 -3.21,-11.81 -5.74,-17.31 9.09,2.21 17.61,6.15 26.31,9.56 -4.16,-6.97 -10.99,-11.76 -18.17,-15.19 -20.03,-9.82 -43.04,-11.18 -62.74,-21.76 -3.49,1.71 -6.91,3.48 -10.37,5.25z"/>
   <path class="fil2" d="M1253.58 1039.18c11.51,0.9 22.66,9.25 34.22,4.38 11.46,-2.39 25.04,-5.28 35.45,1.66 9.07,8.19 16.63,20.54 13.88,33.22 -2.99,9.04 -11.29,14.53 -18.93,19.38 0.51,-13.61 -7.11,-26.67 -18.62,-33.66 -10.5,-6.37 -21.82,-12.08 -34.03,-14.12 5.06,14.06 11.13,27.78 17.71,41.19 1.12,-0.19 3.32,-0.57 4.44,-0.79 1.19,-8.71 1.19,-17.55 -0.22,-26.23 2.39,1.61 4.79,3.19 7.21,4.79 -1.66,9.09 -2.34,20.3 -11.02,25.69 -14.29,-15.76 -23.62,-35.4 -30.09,-55.51zm-381.7 143.66c6.31,2.07 12.7,3.94 19.18,5.5 -4.08,13.63 -12.57,25.54 -17.96,38.68 -17.85,35.86 -35.45,71.81 -53.22,107.69 107.04,0.6 214.07,0.03 321.11,0.27 17.85,0 35.89,-5.06 50.53,-15.48 16.89,-11.53 28.78,-29.05 36.89,-47.58 11.86,-24.6 24.84,-48.62 35.97,-73.57 13.14,2.31 16.32,20.27 8.95,29.93 -10.97,20.59 -20.68,41.84 -31.15,62.71 -17.14,35.61 -52.9,62.77 -93.14,64.18 -120.69,0.3 -241.41,-0.11 -362.13,0.19 27.91,-57.7 56.54,-115.06 84.97,-172.52zm342.87 -19.86c3.46,-1.77 6.88,-3.54 10.37,-5.25 19.7,10.58 42.71,11.94 62.74,21.76 7.18,3.43 14.01,8.22 18.17,15.19 -8.7,-3.41 -17.22,-7.35 -26.31,-9.56 2.53,5.5 5.34,11.1 5.74,17.31 -6.91,-7.43 -14.55,-14.91 -24.54,-17.93 -10.74,-3.02 -22.12,-0.79 -32.1,3.67 2.72,-5.38 6.69,-9.96 10.74,-14.36 -8.27,-3.65 -16.59,-7.08 -24.81,-10.83zm-85 -8.71c6.15,-0.13 13.01,-2.31 18.5,1.61 25.53,12.89 57,20.78 72.98,46.55 -10.51,-6.18 -20.57,-13.39 -32.54,-16.43 3.02,7.61 3.83,15.8 3.26,23.94 -5.3,-9.01 -8.9,-19.56 -17.98,-25.66 -11.24,-9.19 -26.69,-5.85 -39.37,-2.07 4.46,-5.14 10.01,-9.11 15.72,-12.7 -6.12,-6.1 -14.44,-9.25 -20.57,-15.24zm141.81 -126.68c-9.82,-0.79 -8.41,-14.8 0.63,-16.02 0.6,1.47 1.79,4.43 2.36,5.9l-3.13 2.39 0 2.26 0.06 1.96 0.08 3.51zm-475.62 -79.04c7.7,0.19 15.43,0.03 23.13,-0.6 -85.03,172.64 -170.7,344.97 -255.59,517.69 164.44,0.11 328.89,-0.03 493.33,0.08 55.56,-1.01 111.44,-2.89 166.21,-12.98 43.53,-8.08 87.34,-24.27 119.2,-56.13 36.13,-36.46 57.68,-83.94 79.96,-129.4 15.48,-30.61 30.56,-61.38 45.52,-92.23 -55.69,0.32 -111.41,-0.52 -167.08,0.43 -7.21,-1.06 -13.41,-5.82 -20.41,-7.86 2.02,-4.11 3.95,-8.25 5.82,-12.44 71.67,-0.81 143.36,-0.16 215.03,-0.4 -27.26,54.77 -54.06,109.72 -81.46,164.41 -21.2,40.84 -45.77,81.87 -83.29,109.79 -39.72,29.95 -89.45,41.84 -137.86,48.56 -84.91,10.91 -170.7,8.84 -256.1,9.17 -137.48,-0.03 -274.94,0.05 -412.42,-0.03 88.62,-179.38 177.07,-358.84 266.01,-538.06zm705.06 -259.97c9.85,-6.09 19.05,-13.25 28.93,-19.34 70.46,-0.44 140.93,-0.11 211.4,-0.17 -43.15,88.08 -87.09,175.77 -130.38,263.78 -71.58,0.19 -143.17,0.17 -214.72,0 18.99,-37.92 37.52,-76.07 56.56,-113.97 -24.08,-0.41 -48.16,-0.14 -72.21,-0.14 3.16,-6.77 6.78,-13.3 10.48,-19.77 31.26,0.46 62.49,-1.37 93.75,-0.6 -18.8,38.3 -38.09,76.37 -56.64,114.81 56.78,0.3 113.56,0 170.35,0.14 37.35,-74.66 74.06,-149.64 111.22,-224.41 -69.57,-0.46 -139.17,0.16 -208.74,-0.33zm-907.84 -59.09c4.22,7.04 8.52,14.06 12.71,21.14 -20.14,39.99 -39.56,80.37 -59.67,120.42 58.42,0.19 116.8,-0.25 175.22,0.22 1.8,6.8 3.84,13.52 5.93,20.27 -71.31,-0.38 -142.62,-0.03 -213.93,-0.19 26.33,-54.07 53.08,-107.94 79.74,-161.86zm263.32 -83.58c40.38,-1.47 80.83,-0.14 121.24,-0.68 16.78,-0.2 35.37,-0.22 49.27,10.63 11.73,9.85 13.22,27.02 9.11,40.92 -6.77,25.52 -20.59,48.38 -31.72,72.13 -5.39,-4.3 -10.69,-8.65 -16.08,-12.92 9.11,-22.64 23.26,-43.4 28.51,-67.53 1.15,-6.23 1.58,-14.37 -4.84,-17.93 -6.99,-4.08 -15.45,-4.46 -23.37,-4.84 -36.35,-0.14 -72.73,0.16 -109.1,-0.14 -8.82,-4.73 -15.16,-13.36 -23.02,-19.64zm-71.42 -305.74c116.88,-0.54 233.77,-0.03 350.65,-0.27 16.63,0.57 35.48,2.78 47.53,15.56 11.92,13.96 7.76,34.31 0.55,49.47 -12.27,25.79 -25.36,51.17 -37.77,76.89 -17.41,34.88 -57.57,51.64 -94.92,52.51 -94.88,0.05 -189.78,0.08 -284.68,0 -3.26,-6.67 -6.47,-13.34 -9.47,-20.11 98,-0.6 196.04,0.05 294.06,-0.33 28.08,-1.3 58.58,-11.94 73.98,-36.94 10.34,-19.84 20.14,-39.95 29.85,-60.05 5.93,-12.44 13.74,-24.46 15.54,-38.37 -0.47,-4.65 -1.83,-9.79 -6.26,-12.18 -9.5,-5.09 -20.63,-5.66 -31.18,-6.1 -111.45,-0.03 -222.92,0.06 -334.39,-0.03 -18.8,36.95 -36.4,74.5 -55.55,111.26 -3.02,-11.1 -5.85,-22.61 -6.07,-34.12 16.59,-32.11 32.18,-64.76 48.13,-97.19zm-127.96 -126.98c161.29,0.33 322.55,0.03 483.84,0.14 60.45,0.92 121.32,1.5 181.09,11.67 26.91,5.44 56.05,12.19 75.78,32.73 16.67,17.63 17.16,44.16 11.48,66.42 -9.61,38.11 -30.04,72.1 -46.53,107.44 -14.85,28.16 -26.39,58.61 -47.45,82.96 -31.4,38.14 -78.14,60.04 -125.48,70.87 -2.61,1.2 -7.1,0.25 -7.92,3.78 23.24,7.24 45.98,23.32 52.92,47.75 7.4,26.61 -1.88,54.18 -12.76,78.42 -18.2,37.05 -36.49,74.06 -54.96,111 -5.82,14.48 -15.21,27.02 -21.96,41.03 -6.39,11.89 -10.77,24.82 -18.42,36.03 -3.89,-6.21 -7.61,-12.52 -11.56,-18.7 26.09,-47.01 47.86,-96.31 72.59,-144.06 11.81,-25.14 28.38,-50.03 27.32,-78.98 0.3,-19.95 -11.68,-38.31 -27.92,-49.11 -23.29,-15.92 -51.53,-22.04 -78.9,-26.64 2.61,-0.9 5.2,-1.82 7.92,-2.48 39.26,-7.02 78.55,-16.29 114.95,-33 29.52,-13.6 57.22,-32.73 76.7,-59.07 12.08,-15.42 19.7,-33.63 28.62,-50.93 16.87,-36.59 37.79,-71.45 50.61,-109.81 4.81,-16.24 9.66,-34.53 2.17,-50.77 -7.45,-15.51 -24.32,-22.8 -39.66,-28.08 -32.3,-10.07 -66.28,-13.09 -99.88,-15.15 -34.31,-3.46 -68.84,-1.8 -103.2,-4.08 -159.11,0.21 -318.25,-0.25 -477.36,0.21 -126.28,255.4 -253.12,510.53 -378.98,766.12 134.87,0.11 269.74,0.08 404.61,0.03 23.45,-0.71 46.9,0.46 70.33,-0.68 7.18,-0.38 14.36,-0.44 21.57,-0.36 4.71,6.89 10.53,12.87 15.76,19.37 -143.77,2.62 -287.62,0.96 -431.41,1.42 -37.55,-0.08 -75.12,0.16 -112.67,-0.14 132.75,-268.51 265.52,-537.08 398.76,-805.35zm650.43 934.7l0 0c3.48,1.82 6.99,1.82 10.53,0.05 -0.19,-4 -9.42,-3.02 -10.53,-0.05zm10.34 4.6l0 0c7.81,8.16 13.6,18.85 11.21,30.55 9.55,-9.41 2.26,-29.93 -11.21,-30.55z"/>
   <path class="fil3" d="M669.13 132.78c159.11,-0.46 318.25,0 477.36,-0.21 34.36,2.28 68.89,0.62 103.2,4.08 33.6,2.06 67.58,5.08 99.88,15.15 15.34,5.28 32.21,12.57 39.66,28.08 7.49,16.24 2.64,34.53 -2.17,50.77 -12.82,38.36 -33.74,73.22 -50.61,109.81 -8.92,17.3 -16.54,35.51 -28.62,50.93 -19.48,26.34 -47.18,45.47 -76.7,59.07 -36.4,16.71 -75.69,25.98 -114.95,33 -2.72,0.66 -5.31,1.58 -7.92,2.48 27.37,4.6 55.61,10.72 78.9,26.64 16.24,10.8 28.22,29.16 27.92,49.11 1.06,28.95 -15.51,53.84 -27.32,78.98 -24.73,47.75 -46.5,97.05 -72.59,144.06 -29.3,-45.19 -69.52,-81.81 -110.79,-115.82 11.13,-23.75 24.95,-46.61 31.72,-72.13 4.11,-13.9 2.62,-31.07 -9.11,-40.92 -13.9,-10.85 -32.49,-10.83 -49.27,-10.63 -40.41,0.54 -80.86,-0.79 -121.24,0.68 -34.06,-33.55 -67.64,-68.87 -90.06,-111.58 94.9,0.08 189.8,0.05 284.68,0 37.35,-0.87 77.51,-17.63 94.92,-52.51 12.41,-25.72 25.5,-51.1 37.77,-76.89 7.21,-15.16 11.37,-35.51 -0.55,-49.47 -12.05,-12.78 -30.9,-14.99 -47.53,-15.56 -116.88,0.24 -233.77,-0.27 -350.65,0.27 -15.95,32.43 -31.54,65.08 -48.13,97.19 -6.75,-40.6 -2.4,-82.39 6.96,-122.25 -5.49,4.25 -9.25,10.15 -13.11,15.78 -32.81,48.76 -46.15,109.6 -39.04,167.74 3.64,35.34 15.04,69.24 28.59,101.89 -6.31,-4.46 -10.53,-11.1 -15.32,-17.03 -43.99,-58.66 -64.94,-132.61 -65.4,-205.45 -4.2,4.9 -4.68,11.54 -6.48,17.47 -15.37,59.32 -17.5,123.77 4.08,181.83 7.48,20.98 19.43,39.83 31.45,58.36 -37.87,-17.93 -62.3,-55.56 -78.17,-93.08 -4.59,-8.97 -5.6,-19.5 -11.23,-27.88 -5.44,55.72 6.34,115.63 43.31,159.13 7.4,9.66 17.09,17.01 25.8,25.39 -1.28,1.99 -3.81,5.96 -5.09,7.95 -27.83,-6.97 -52.65,-22.37 -73.82,-41.42 3.81,22.53 13.47,43.45 23.7,63.7 -26.66,53.92 -53.41,107.79 -79.74,161.86 71.31,0.16 142.62,-0.19 213.93,0.19 12.95,38.06 33.3,73.16 57.41,105.21 -6.56,0.41 -13.12,0.95 -19.67,1.5 -23.43,1.14 -46.88,-0.03 -70.33,0.68 -134.87,0.05 -269.74,0.08 -404.61,-0.03 125.86,-255.59 252.7,-510.72 378.98,-766.12zm471.81 959.73c17.08,2.15 34.33,5.2 51.56,2.56 10.39,14.12 19.31,29.46 24.92,46.14 -7.73,2.53 -15.92,-0.08 -23.59,-1.44 -11.59,-3.29 -24.05,-6.94 -32.68,-15.75 8.68,-0.36 17.42,-0.49 26.15,-0.47 -16.25,-9.06 -33.41,-17.25 -46.36,-31.04zm166.59 -44.62c1.11,-2.97 10.34,-3.95 10.53,0.05 -3.54,1.77 -7.05,1.77 -10.53,-0.05zm-36.11 -25.77c5.45,-4.73 5.96,6.07 0.06,1.96l-0.06 -1.96zm-452.35 -74.17c4.84,-0.13 9.68,-0.27 14.53,-0.43 38.66,32.92 84.5,58.5 134.7,68.24 -1.66,3.23 -3.94,6.09 -6.72,8.46 -49.71,46.31 -114.76,71.34 -179.05,89.92 19.67,33.19 53.32,56.24 89.35,68.7 -28.43,57.46 -57.06,114.82 -84.97,172.52 120.72,-0.3 241.44,0.11 362.13,-0.19 40.24,-1.41 76,-28.57 93.14,-64.18 10.47,-20.87 20.18,-42.12 31.15,-62.71l0.41 4.08c13.17,-3.57 23.53,-16.49 21.49,-30.5 10.8,2.72 15.95,14.61 18.64,24.48 4.79,-10.96 5.79,-24.27 0.22,-35.12 -3,-6.45 -9.28,-10.31 -13.47,-15.81 55.67,-0.95 111.39,-0.11 167.08,-0.43 -14.96,30.85 -30.04,61.62 -45.52,92.23 -22.28,45.46 -43.83,92.94 -79.96,129.4 -31.86,31.86 -75.67,48.05 -119.2,56.13 -54.77,10.09 -110.65,11.97 -166.21,12.98 -164.44,-0.11 -328.89,0.03 -493.33,-0.08 84.89,-172.72 170.56,-345.05 255.59,-517.69zm613.26 -206.58c20.14,-20.9 44.7,-36.71 68.67,-52.79 69.57,0.49 139.17,-0.13 208.74,0.33 -37.16,74.77 -73.87,149.75 -111.22,224.41 -56.79,-0.14 -113.57,0.16 -170.35,-0.14 18.55,-38.44 37.84,-76.51 56.64,-114.81 -31.26,-0.77 -62.49,1.06 -93.75,0.6 11.34,-20.79 24.67,-40.63 41.27,-57.6zm2.61 -108.43c29.55,-16.29 58.04,-34.55 84.73,-55.2 -3.67,7.1 -9.33,12.81 -14.37,18.93 -33.16,38.8 -73.27,71.18 -116.61,97.95 32.84,-10.47 66.12,-20.81 100.7,-23.45 -2.81,2.48 -5.88,4.63 -9.25,6.18 -30.1,14.47 -58.07,33.68 -80.92,58.14 -26.01,27.7 -42.58,62.28 -59.15,96.04 -14.61,29.74 -36.38,58.72 -68.65,70.28 25.39,-35.23 41.42,-76.81 48.92,-119.44 -17.79,3.45 -33.73,12.9 -47.96,23.78 -0.74,-2.86 0.22,-5.72 0.95,-8.46 7.62,-26.23 18.77,-51.84 35.8,-73.41 33.39,-40.76 80.95,-65.49 125.81,-91.34zm-742.72 -117.75c58.64,83.5 135.31,153.99 221.99,207.67 36.33,23.43 71.42,50.31 97.62,85.11 15.21,20.65 27.68,45.79 24.85,72.13 -2.75,24.89 -20.6,46.25 -42.58,57.22 -15.24,7.72 -32.95,8.35 -49.6,6.25 -29.39,-4.89 -56.13,-19.83 -79.59,-37.71 -31.8,-24.78 -60.59,-55.23 -77.68,-92.12 26.02,11.24 51.78,23.59 79.4,30.58 -6.67,-6.37 -14.91,-10.67 -22.07,-16.38 -55.31,-42.39 -100.69,-96.23 -141.23,-152.53 -2.26,-3.04 -4.11,-6.36 -5.83,-9.74 43.84,32.52 88.78,63.67 135.99,91.12 10.85,6.15 21.71,12.49 33.27,17.31 -0.92,-1.25 -2.8,-3.76 -3.72,-4.98 -72.68,-65.82 -130.52,-148.34 -166.24,-239.73 -1.85,-4.62 -3.43,-9.36 -4.58,-14.2zm32.87 -97.62c22.8,46.09 52.73,88.8 88.4,125.97 59.69,63.64 132.83,112.09 199.41,167.87 44.56,37.87 86.46,82.09 107.06,137.92 5.03,10.17 5.55,22.33 11.32,31.99 19.64,2.75 38.93,7.43 57.92,13.17 -11.75,-14.45 -28.21,-24.57 -45.19,-31.83 14.8,-65.52 48.54,-126.95 97.79,-172.91 52.91,-51.26 120.23,-83.14 184.44,-117.59 32.65,-17.88 65.6,-36.67 91.88,-63.45 5.03,-4.92 9.22,-10.69 14.72,-15.18 -16.68,39.89 -53.19,66.17 -88.84,88.05 -58.47,35.83 -122.05,68.4 -164.71,123.87 -47.83,62.82 -64.21,144.99 -57.55,222.56 -26.42,-9.77 -53.51,-18.74 -81.76,-21.11 8.14,13.44 17.66,25.98 25.03,39.89 -25.79,3.64 -50.49,13.54 -73.18,26.03 23.12,6.21 46.52,12.19 68.31,22.48 -0.29,0.68 -0.89,2.09 -1.22,2.77 -18.58,6.99 -34.91,18.47 -50.63,30.37 14.47,4.38 29.57,6.44 44.13,10.69 -11.92,1.6 -24.08,0.87 -35.92,3.37 -18.91,3.95 -38.03,7.27 -57.43,7.02 16.49,7.29 34.63,9.44 52.21,12.24 12.57,23.05 22.77,47.75 27.4,73.71 -20.95,4.41 -43.04,2.07 -63.07,-5.31 -3.48,-1.49 -7.62,-2.63 -9.6,-6.2 11.53,-0.11 23.12,0.84 34.6,-0.43 -30.66,-9.42 -61.78,-20 -87.58,-39.67 -4.05,-3.29 -8.89,-6.04 -11.26,-10.89 26.25,7.35 52.94,13.64 80.1,16.44 -30.01,-18.64 -60.35,-38.75 -81.05,-68.05 28.64,-14.69 54.71,-36.59 68.89,-66.03 15.88,-32.62 15.12,-71.12 4.68,-105.27 -9.58,-30.96 -25.36,-60.7 -49.22,-83.04 -52.57,-54.74 -119.53,-92.29 -176.58,-141.78 -63.07,-52.64 -108.4,-126.7 -123.5,-207.67z"/>
  </g>
 </g>
</svg>
