<?xml version="1.0" encoding="UTF-8"?>
<!DOCTYPE svg PUBLIC "-//W3C//DTD SVG 1.1//EN" "http://www.w3.org/Graphics/SVG/1.1/DTD/svg11.dtd">
<!-- Creator: CorelDRAW -->
<svg xmlns="http://www.w3.org/2000/svg" xml:space="preserve" width="2000px" height="1600px" version="1.1" style="shape-rendering:geometricPrecision; text-rendering:geometricPrecision; image-rendering:optimizeQuality; fill-rule:evenodd; clip-rule:evenodd"
viewBox="0 0 2000 1600"
 xmlns:xlink="http://www.w3.org/1999/xlink">
 <defs>
  <style type="text/css">
   <![CDATA[
    .fil2 {fill:#522D1C;fill-rule:nonzero}
    .fil3 {fill:#C39A74;fill-rule:nonzero}
    .fil1 {fill:#F05C25;fill-rule:nonzero}
    .fil0 {fill:#FEFEFE;fill-rule:nonzero}
   ]]>
  </style>
 </defs>
 <g id="Capa_x0020_1">
  <metadata id="CorelCorpID_0Corel-Layer"/>
  <g id="Bowling_x0020_Green_x0020_Falcons.cdr">
   <path class="fil0" d="M386.56 190.53c159.83,-0.03 319.67,-0.05 479.53,0 30.28,0.29 61.88,8.56 84.51,29.61 19.56,17.84 29.54,44.34 29.89,70.52 0.11,60.3 0,120.6 0.04,180.9 -0.14,20.64 -3.96,42.28 -16.56,59.18 -7.44,10.84 -17.97,18.92 -28.53,26.5 17.22,11.16 32.02,27.26 38.31,47.09 6.49,19.15 6.92,39.67 6.78,59.68 57.83,0 115.66,-0.02 173.49,0.03 0.43,49.6 -0.82,99.19 -0.57,148.82 -0.03,44.66 0.04,89.29 -0.05,133.95 -21.39,-19.05 -41.5,-39.6 -59.66,-61.74 -12.09,-15.16 -23.7,-31.03 -31.06,-49.08 -9.55,-23.18 -16.03,-47.46 -21.73,-71.8 -20.13,0.05 -40.26,0 -60.42,0.02 0,22.36 0,44.69 0.03,67.04 -0.37,20.59 -1.81,41.75 -10.08,60.87 -10.67,24.44 -31.86,43.98 -56.96,52.86 -17.45,5.96 -36.09,6.57 -54.35,7.03 -31.12,0 -62.22,-0.02 -93.35,0 0,100.98 0,201.93 0,302.91 -0.09,13.65 -0.04,27.37 1.19,41 0.99,7.74 2.82,16.14 8.64,21.82 5.65,5.64 14.06,6.76 21.69,7.01 83.2,0 166.38,-0.02 249.59,0.02 0.07,-68.02 0,-136.06 0.02,-204.08 -27.6,-4.15 -55.08,-9.51 -81.9,-17.31 -39.46,-11.27 -73.47,-35.41 -105.97,-59.6 -11.34,-8.72 -22.63,-17.52 -33.3,-27.04 110.94,-0.07 221.88,-0.03 332.82,0 -0.02,136.06 0,272.12 0,408.21 -131.12,0 -262.23,-0.02 -393.35,0 -31.15,-0.09 -63.53,-11.52 -83.78,-36 -19.03,-22.43 -26.36,-52.45 -26.73,-81.31 0,-118.54 0,-237.08 0,-355.63 -87.92,-0.04 -175.86,0.07 -263.81,-0.04 9.3,-26.41 24.62,-50.78 44.45,-70.54 14.75,-12.78 32.64,-21.17 49.93,-29.91 -0.09,-186.91 0,-373.8 -0.04,-560.68 -19.86,-9.66 -40.17,-19.6 -56.34,-34.93 -18.23,-18.78 -30.83,-42.11 -42.37,-65.38zm957.66 132.67c25.11,-4.65 50.3,-9.59 75.9,-10.08 15.39,-0.2 30.76,-0.06 46.15,-0.02 -14.88,13.95 -29.43,28.29 -44.13,42.44 -26.04,-10.6 -51.92,-21.62 -77.92,-32.34zm-747.3 -32.5l0 0c0.02,72.35 -0.07,144.7 0.04,217.05 75.97,-0.07 151.94,-0.05 227.9,-0.02 10.4,-0.25 21.51,-0.23 30.95,-5.22 10.67,-6.12 12.78,-19.61 13.07,-30.81 0.03,-48.14 -0.02,-96.28 0.03,-144.4 -0.12,-10.3 -2.45,-21.89 -11.16,-28.47 -10.07,-7.49 -23.31,-7.49 -35.29,-8.08 -75.19,-0.09 -150.38,-0.02 -225.54,-0.05zm0 317.2l0 0c-0.05,81.28 0.09,162.54 -0.07,243.82 19.3,0.21 38.61,0.05 57.92,0.07 0,-25.95 -0.05,-51.92 0,-77.89 0.32,-24.67 7.58,-49.68 22.85,-69.3 19.31,-25.54 51.17,-40.13 82.93,-40.59 36.1,0 72.22,0 108.33,0 -0.2,-12.36 1.17,-25.1 -2.79,-37.03 -2.11,-6.85 -7.35,-12.71 -14.13,-15.09 -11.59,-4.29 -24.19,-4.06 -36.35,-4.01 -72.9,0.05 -145.8,0 -218.69,0.02zm181.04 162.54l0 0c-7.24,4.83 -10.28,13.65 -11.08,21.94 -1.81,19.77 -0.78,39.62 -1.08,59.41 18.92,-0.07 37.83,0.23 56.73,-0.14 11.95,-0.68 25.05,-0.84 35.15,-8.17 8.73,-6.44 11.09,-18.1 11.23,-28.31 0,-16.99 -0.05,-33.96 -0.03,-50.96 -21.55,0 -43.12,-0.02 -64.67,0 -8.98,0.3 -18.51,1.26 -26.25,6.23z"/>
   <path class="fil1" d="M1360.19 80l49.4 0c44.57,2.75 89.57,8.04 131.96,22.79 22.49,42.67 45.37,85.13 67.7,127.86 39.49,13.31 77.99,33.83 104.69,66.6 28.83,34.33 41.52,79.2 45.28,123.17l0 29.18c-1.77,22.12 -6.53,44.02 -14.48,64.77 -8.86,24.73 -25.83,45.19 -40.08,66.9 -15.39,-15.94 -27.23,-37.2 -49.19,-44.98 -29.64,-11.52 -62.41,-12.19 -93.76,-10.24 -40.17,143.44 -80.07,286.97 -120.22,430.41 17.16,6.57 33.83,14.77 51.83,18.82 19.65,4.74 39.42,8.98 59.2,13.17 -24.85,25.29 -56.7,42.53 -89.5,55.17 -66.6,25.17 -140.69,25.91 -209.33,8.82 -0.3,107.98 0.5,215.97 -0.62,323.96 0,47.86 0,95.73 0,143.59 -161.89,0 -323.82,0.03 -485.71,-0.02 -44.32,-0.14 -89.32,-12.3 -125.28,-38.79 -41.43,-30.12 -68.5,-77.48 -77.69,-127.5 -5.15,-25.72 -4.78,-52.08 -4.69,-78.17 -0.02,-76.33 0,-152.67 -0.02,-229 -105.17,-0.07 -210.36,0.02 -315.55,-0.05 13,-44.68 25.42,-89.82 45.62,-131.92 13.83,-30.78 34.26,-58.05 56.96,-82.83 13.17,-13.86 26.77,-27.4 42.2,-38.73 0.62,-77.3 0.95,-154.59 0.71,-231.89 1.52,-69.55 -0.34,-139.13 1.22,-208.67 1.4,-5.81 -4.05,-8.56 -7.86,-11.47 -23.29,-16.37 -40.4,-39.62 -56.68,-62.57 -10.4,-15.11 -20.89,-30.34 -28.29,-47.2 -20.19,-44.2 -38.4,-89.28 -57.23,-134.07l0 -1.67c205.39,0.07 410.78,-0.05 616.19,0.04 34.95,-0.16 70.34,5.13 102.49,19.33 42.03,17.91 78.08,50.59 97.54,92.18 14.2,-17.77 30.08,-34.4 48.33,-48.09 26.93,-20.25 58.28,-33.44 89.55,-45.46 52.81,-20.04 108.94,-30.58 165.31,-33.44zm-26.29 460.64c47.95,-15.78 97.1,-28.49 147.24,-34.88 -43.31,152.32 -87.24,304.46 -130.3,456.83 -45.14,-13.51 -87.16,-35.95 -126.95,-60.94 -0.04,-100.95 0.03,-201.91 -0.02,-302.89 -7.78,0 -15.55,-0.02 -23.29,-0.11 42.3,-23.82 87.44,-42.32 133.32,-58.01zm-96.86 -192.54c34.22,-10.72 69.19,-19.61 104.85,-23.71 -38.23,25.91 -74.16,55.33 -106.04,88.8 -44.89,47.31 -83.91,101.27 -108.24,162.1 -3.2,7.76 -6.16,15.64 -9.25,23.45 -26.18,0 -52.38,0.02 -78.56,-0.02 -3.34,-12.87 -7.76,-25.49 -14.04,-37.24 -3.43,-4.7 1.81,-9.32 3.35,-13.67 16.05,-30.95 16.99,-66.6 16.15,-100.66 55.88,-46.35 123.12,-76.91 191.78,-99.05zm-54.81 -132.68c65.71,-32.68 139.16,-50.93 212.72,-48.69 30.05,0.85 59.96,4.95 89.28,11.54 21.23,39.95 42.83,79.73 63.55,119.97 -41.38,-22.45 -86.87,-36.35 -132.97,-45.07 -55.56,-10.31 -112.15,-14.57 -168.59,-14.02 -35.24,-0.16 -70.44,2.68 -105.35,7.53 10.68,-13.97 26.09,-23.1 41.36,-31.26zm15.85 -68.82l0 0c-32.43,12.25 -63.25,29.45 -89.13,52.65 -25.72,22.56 -45.72,50.66 -63.88,79.41 -3.02,-41.92 -22.05,-82.91 -54.6,-109.94 -33.66,-28.67 -78.26,-42.48 -122.09,-42.94 -194.37,0.07 -388.75,-0.02 -583.12,0.05 13.03,31.47 26.29,62.84 40.44,93.81 5.84,13.33 14.14,25.37 22.24,37.4 11.18,15.96 22.52,31.99 36.3,45.85 10.7,10.88 23.57,19.23 36.4,27.37 -0.44,35.61 0.59,71.27 -0.65,106.88 -0.27,58.84 0.58,117.7 -0.59,176.51 0.04,64.93 0.02,129.88 0,194.81 -32.48,20.86 -58.72,50.16 -81.17,81.26 -26.04,38.38 -40.93,82.97 -54.55,126.97 102.14,0.14 204.29,-0.16 306.43,0.14 -0.13,80.16 -0.02,160.29 -0.07,240.45 0.67,32.82 -2.58,66.19 5.34,98.44 8.41,37.53 28.58,72.94 58.93,96.99 29.84,24.07 68.25,36.21 106.36,36.94 154.2,-0.02 308.4,0.04 462.63,-0.02 0,-99.58 0,-199.19 0,-298.77 -0.28,-60.23 1.03,-120.42 0.57,-180.65 44.68,15.11 91.89,23.77 139.16,22.03 40.76,-1.51 82.24,-9.83 118.13,-29.86 -10.95,-3.44 -22.26,-5.43 -33.23,-8.71 -15.83,-4.33 -30.88,-10.88 -46.06,-16.95 44.13,-159.74 89.92,-319.07 134.12,-478.8 21.23,-5.19 43.35,-5.65 65.09,-4.32 35.88,1.58 74.38,9.27 100.93,35.31 19.78,-32.86 27.8,-72.14 24.71,-110.25 -3.55,-38.2 -15.28,-77.39 -41.98,-105.97 -24.6,-27.09 -58.61,-43.56 -93.31,-53.62 -3.66,-0.43 -5.35,-3.71 -6.87,-6.61 -21.57,-41.11 -43.65,-81.99 -65.18,-123.15 -26.84,-8.38 -54.85,-12.53 -82.79,-15.23 -80.59,-7.17 -162.81,3.89 -238.51,32.52z"/>
   <path class="fil2" d="M1198.08 146.6c75.7,-28.63 157.92,-39.69 238.51,-32.52 27.94,2.7 55.95,6.85 82.79,15.23 21.53,41.16 43.61,82.04 65.18,123.15 1.52,2.9 3.21,6.18 6.87,6.61 34.7,10.06 68.71,26.53 93.31,53.62 26.7,28.58 38.43,67.77 41.98,105.97 3.09,38.11 -4.93,77.39 -24.71,110.25 -26.55,-26.04 -65.05,-33.73 -100.93,-35.31 -21.74,-1.33 -43.86,-0.87 -65.09,4.32 -44.2,159.73 -89.99,319.06 -134.12,478.8 15.18,6.07 30.23,12.62 46.06,16.95 10.97,3.28 22.28,5.27 33.23,8.71 -35.89,20.03 -77.37,28.35 -118.13,29.86 -47.27,1.74 -94.48,-6.92 -139.16,-22.03 0.46,60.23 -0.85,120.42 -0.57,180.65 0,99.58 0,199.19 0,298.77 -154.23,0.06 -308.43,0 -462.63,0.02 -38.11,-0.73 -76.52,-12.87 -106.36,-36.94 -30.35,-24.05 -50.52,-59.46 -58.93,-96.99 -7.92,-32.25 -4.67,-65.62 -5.34,-98.44 0.05,-80.16 -0.06,-160.29 0.07,-240.45 -102.14,-0.3 -204.29,0 -306.43,-0.14 13.62,-44 28.51,-88.59 54.55,-126.97 22.45,-31.1 48.69,-60.4 81.17,-81.26 0.02,-64.93 0.04,-129.88 0,-194.81 1.17,-58.81 0.32,-117.67 0.59,-176.51 1.24,-35.61 0.21,-71.27 0.65,-106.88 -12.83,-8.14 -25.7,-16.49 -36.4,-27.37 -13.78,-13.86 -25.12,-29.89 -36.3,-45.85 -8.1,-12.03 -16.4,-24.07 -22.24,-37.4 -14.15,-30.97 -27.41,-62.34 -40.44,-93.81 194.37,-0.07 388.75,0.02 583.12,-0.05 43.83,0.46 88.43,14.27 122.09,42.94 32.55,27.03 51.58,68.02 54.6,109.94 18.16,-28.75 38.16,-56.85 63.88,-79.41 25.88,-23.2 56.7,-40.4 89.13,-52.65zm-420.12 623.84c7.74,-4.97 17.27,-5.93 26.25,-6.23 21.55,-0.02 43.12,0 64.67,0 -0.02,17 0.03,33.97 0.03,50.96 -0.14,10.21 -2.5,21.87 -11.23,28.31 -10.1,7.33 -23.2,7.49 -35.15,8.17 -18.9,0.37 -37.81,0.07 -56.73,0.14 0.3,-19.79 -0.73,-39.64 1.08,-59.41 0.8,-8.29 3.84,-17.11 11.08,-21.94zm-181.04 -162.54c72.89,-0.02 145.79,0.03 218.69,-0.02 12.16,-0.05 24.76,-0.28 36.35,4.01 6.78,2.38 12.02,8.24 14.13,15.09 3.96,11.93 2.59,24.67 2.79,37.03 -36.11,0 -72.23,0 -108.33,0 -31.76,0.46 -63.62,15.05 -82.93,40.59 -15.27,19.62 -22.53,44.63 -22.85,69.3 -0.05,25.97 0,51.94 0,77.89 -19.31,-0.02 -38.62,0.14 -57.92,-0.07 0.16,-81.28 0.02,-162.54 0.07,-243.82zm0 -317.2c75.16,0.03 150.35,-0.04 225.54,0.05 11.98,0.59 25.22,0.59 35.29,8.08 8.71,6.58 11.04,18.17 11.16,28.47 -0.05,48.12 0,96.26 -0.03,144.4 -0.29,11.2 -2.4,24.69 -13.07,30.81 -9.44,4.99 -20.55,4.97 -30.95,5.22 -75.96,-0.03 -151.93,-0.05 -227.9,0.02 -0.11,-72.35 -0.02,-144.7 -0.04,-217.05zm585.31 -75.28l0 0c-15.27,8.16 -30.68,17.29 -41.36,31.26 34.91,-4.85 70.11,-7.69 105.35,-7.53 56.44,-0.55 113.03,3.71 168.59,14.02 46.1,8.72 91.59,22.62 132.97,45.07 -20.72,-40.24 -42.32,-80.02 -63.55,-119.97 -29.32,-6.59 -59.23,-10.69 -89.28,-11.54 -73.56,-2.24 -147.01,16.01 -212.72,48.69zm-795.67 -24.89l0 0c11.54,23.27 24.14,46.6 42.37,65.38 16.17,15.33 36.48,25.27 56.34,34.93 0.04,186.88 -0.05,373.77 0.04,560.68 -17.29,8.74 -35.18,17.13 -49.93,29.91 -19.83,19.76 -35.15,44.13 -44.45,70.54 87.95,0.11 175.89,0 263.81,0.04 0,118.55 0,237.09 0,355.63 0.37,28.86 7.7,58.88 26.73,81.31 20.25,24.48 52.63,35.91 83.78,36 131.12,-0.02 262.23,0 393.35,0 0,-136.09 -0.02,-272.15 0,-408.21 -110.94,-0.03 -221.88,-0.07 -332.82,0 10.67,9.52 21.96,18.32 33.3,27.04 32.5,24.19 66.51,48.33 105.97,59.6 26.82,7.8 54.3,13.16 81.9,17.31 -0.02,68.02 0.05,136.06 -0.02,204.08 -83.21,-0.04 -166.39,-0.02 -249.59,-0.02 -7.63,-0.25 -16.04,-1.37 -21.69,-7.01 -5.82,-5.68 -7.65,-14.08 -8.64,-21.82 -1.23,-13.63 -1.28,-27.35 -1.19,-41 0,-100.98 0,-201.93 0,-302.91 31.13,-0.02 62.23,0 93.35,0 18.26,-0.46 36.9,-1.07 54.35,-7.03 25.1,-8.88 46.29,-28.42 56.96,-52.86 8.27,-19.12 9.71,-40.28 10.08,-60.87 -0.03,-22.35 -0.03,-44.68 -0.03,-67.04 20.16,-0.02 40.29,0.03 60.42,-0.02 5.7,24.34 12.18,48.62 21.73,71.8 7.36,18.05 18.97,33.92 31.06,49.08 18.16,22.14 38.27,42.69 59.66,61.74 0.09,-44.66 0.02,-89.29 0.05,-133.95 -0.25,-49.63 1,-99.22 0.57,-148.82 -57.83,-0.05 -115.66,-0.03 -173.49,-0.03 0.14,-20.01 -0.29,-40.53 -6.78,-59.68 -6.29,-19.83 -21.09,-35.93 -38.31,-47.09 10.56,-7.58 21.09,-15.66 28.53,-26.5 12.6,-16.9 16.42,-38.54 16.56,-59.18 -0.04,-60.3 0.07,-120.6 -0.04,-180.9 -0.35,-26.18 -10.33,-52.68 -29.89,-70.52 -22.63,-21.05 -54.23,-29.32 -84.51,-29.61 -159.86,-0.05 -319.7,-0.03 -479.53,0zm1163.51 106.97l0 0c-1.62,22.61 -16.69,41.12 -32.95,55.59 -28.33,24.78 -60.7,44.29 -92.9,63.51 9.51,-0.21 18.83,-2.29 28.26,-3.23 46.61,-5.32 94.02,-7.24 140.56,-0.25 32.61,4.51 65.54,18.82 85.4,46.05 8.68,-34.05 0.34,-72.35 -23.96,-98.16 -28.26,-30.16 -66.37,-48.78 -104.41,-63.51zm-205.85 25.7l0 0c26,10.72 51.88,21.74 77.92,32.34 14.7,-14.15 29.25,-28.49 44.13,-42.44 -15.39,-0.04 -30.76,-0.18 -46.15,0.02 -25.6,0.49 -50.79,5.43 -75.9,10.08zm-107.18 24.9l0 0c-68.66,22.14 -135.9,52.7 -191.78,99.05 0.84,34.06 -0.1,69.71 -16.15,100.66 -1.54,4.35 -6.78,8.97 -3.35,13.67 6.28,11.75 10.7,24.37 14.04,37.24 26.18,0.04 52.38,0.02 78.56,0.02 3.09,-7.81 6.05,-15.69 9.25,-23.45 24.33,-60.83 63.35,-114.79 108.24,-162.1 31.88,-33.47 67.81,-62.89 106.04,-88.8 -35.66,4.1 -70.63,12.99 -104.85,23.71zm96.86 192.54l0 0c-45.88,15.69 -91.02,34.19 -133.32,58.01 7.74,0.09 15.51,0.11 23.29,0.11 0.05,100.98 -0.02,201.94 0.02,302.89 39.79,24.99 81.81,47.43 126.95,60.94 43.06,-152.37 86.99,-304.51 130.3,-456.83 -50.14,6.39 -99.29,19.1 -147.24,34.88z"/>
   <path class="fil3" d="M1550.07 297.5c38.04,14.73 76.15,33.35 104.41,63.51 24.3,25.81 32.64,64.11 23.96,98.16 -19.86,-27.23 -52.79,-41.54 -85.4,-46.05 -46.54,-6.99 -93.95,-5.07 -140.56,0.25 -9.43,0.94 -18.75,3.02 -28.26,3.23 32.2,-19.22 64.57,-38.73 92.9,-63.51 16.26,-14.47 31.33,-32.98 32.95,-55.59z"/>
  </g>
 </g>
</svg>
