<?xml version="1.0" encoding="UTF-8"?>
<!DOCTYPE svg PUBLIC "-//W3C//DTD SVG 1.1//EN" "http://www.w3.org/Graphics/SVG/1.1/DTD/svg11.dtd">
<!-- Creator: CorelDRAW -->
<svg xmlns="http://www.w3.org/2000/svg" xml:space="preserve" width="2000px" height="1600px" version="1.1" style="shape-rendering:geometricPrecision; text-rendering:geometricPrecision; image-rendering:optimizeQuality; fill-rule:evenodd; clip-rule:evenodd"
viewBox="0 0 2000 1600"
 xmlns:xlink="http://www.w3.org/1999/xlink">
 <defs>
  <style type="text/css">
   <![CDATA[
    .fil1 {fill:#FEFEFE}
    .fil0 {fill:#D11F2D;fill-rule:nonzero}
   ]]>
  </style>
 </defs>
 <g id="Capa_x0020_1">
  <metadata id="CorelCorpID_0Corel-Layer"/>
  <g id="Bradley_x0020_Braves.cdr">
   <path class="fil0" d="M931.96 1225.23c46.36,-0.05 92.71,0.05 139.06,-0.05 5.89,0.12 11.89,-0.53 17.72,0.63 13.07,11.95 25.09,25.02 37.78,37.39 -0.2,73.27 0.4,146.58 -0.3,219.83 -10.7,13.27 -24.09,24.6 -35.97,36.97l-158.31 0c0,-11.4 -0.02,-22.79 0.05,-34.19 5.19,-4.35 10.38,-8.69 15.59,-13.02 -0.14,-66.37 0.23,-132.76 -0.19,-199.12 -5.19,-4.19 -10.31,-8.43 -15.43,-12.67 -0.04,-11.93 -0.04,-23.84 0,-35.77zm652.32 34.47c-0.79,-11.49 -0.05,-23.03 -0.16,-34.52 31.43,0.1 62.87,0 94.3,0.05 0,11.88 0,23.77 0,35.63 -5.21,4.35 -10.44,8.66 -15.66,12.97 9.11,25.25 18.63,50.38 28.26,75.45 9.55,-25.04 18.93,-50.18 28.26,-75.29 -5.35,-4.44 -10.67,-8.89 -15.96,-13.41 0,-11.79 -0.02,-23.56 0,-35.35 31.46,-0.02 62.94,-0.02 94.4,0 0.02,11.82 -0.02,23.61 0.02,35.42 -6.09,5.98 -14.85,10.01 -18.09,18.35 -16.21,40.28 -32.52,80.54 -48.88,120.78 -2.5,6.6 -6.34,13.04 -6.07,20.36 0.03,17.51 0.1,35.05 0.05,52.58 5.24,4.31 10.45,8.67 15.61,13.09 0.03,11.4 0.03,22.79 0.03,34.19l-99.03 0c-0.02,-11.37 0,-22.72 -0.02,-34.1 5.28,-4.79 11.81,-8.5 15.96,-14.34 0.09,-19.18 1.32,-38.61 -0.68,-57.68 -17.72,-45.33 -36.5,-90.27 -54.55,-135.49 -3.17,-8.52 -13.09,-11.42 -17.79,-18.69zm-209.87 -34.47c61.36,0 122.75,-0.02 184.11,0 0.12,27.59 -0.11,55.18 0.14,82.79 -20.62,5.77 -41.35,11 -62.06,16.38 -0.07,-15.29 0,-30.6 -0.04,-45.89 -14.48,0.02 -28.94,0 -43.39,0.02 -0.05,21.99 -0.02,43.99 -0.02,65.98 27.42,0.07 54.85,-0.07 82.28,0.09 -0.12,18.9 0.02,37.8 -0.1,56.73 -27.4,-0.07 -54.78,-0.05 -82.18,-0.02 0,22.37 0,44.75 0.02,67.15 14.45,-0.02 28.93,0 43.39,0 0.02,-11.49 0,-22.98 0.02,-34.47 20.64,-5.44 41.26,-10.91 61.94,-16.19 0.05,34.07 0.02,68.13 0.02,102.2l-184.15 0c0,-11.4 -0.03,-22.79 0.02,-34.17 5.23,-4.35 10.42,-8.73 15.64,-13.13 -0.19,-66.34 0.23,-132.69 -0.21,-199.03 -5.19,-4.19 -10.31,-8.43 -15.45,-12.67 -0.03,-11.93 -0.03,-23.84 0.02,-35.77zm-207.11 34.63c-0.77,-11.53 0,-23.12 -0.19,-34.65 32.99,0.04 65.97,-0.03 98.98,0.02 0,11.91 0,23.81 0.03,35.72 -5.29,4.33 -10.52,8.71 -15.69,13.16 0.07,64.77 0,129.56 0.03,194.33 10.42,0.02 20.84,0.02 31.24,0.02 0.05,-17.63 0,-35.23 0.03,-52.86 20.64,-5.54 41.3,-10.91 61.96,-16.33 0,40.23 0,80.49 0,120.73l-176.63 0c0,-11.37 -0.11,-22.75 0.14,-34.1 5.61,-4.33 11,-8.91 16.24,-13.71 -0.37,-66.02 -0.09,-132.06 -0.14,-198.1 -5.35,-4.71 -11.56,-8.62 -16,-14.23zm-606.57 -1037.19c124.02,-97.55 283.42,-146.82 440.66,-142.4 147.63,2.74 294.86,53.07 410.57,145.36 0.18,168.94 0,337.86 0.09,506.8 0.42,42.57 -7.27,85.43 -24.46,124.48 -30.3,70.42 -89.99,127.2 -161.5,154.67 -80.15,32.11 -160.09,64.75 -240.34,96.62 -82.53,-33.82 -165.48,-66.64 -248.09,-100.28 -64.37,-27.03 -118.23,-78.15 -148.25,-141.18 -20.78,-43.07 -30.26,-91.2 -28.68,-138.9 0,-168.38 0,-336.79 0,-505.17zm340.91 -89.7l0 0c-105.16,13.04 -206.6,52.93 -293.26,113.83 -0.4,161.83 -0.02,323.68 -0.19,485.53 -0.14,26.57 3.01,53.26 10.84,78.69 20.97,70.77 76.42,129.91 145.36,156.09 73.78,29.88 147.77,59.35 221.48,89.39 70.4,-27.94 140.49,-56.59 210.82,-84.74 13.55,-5.51 27.29,-10.79 40.1,-17.95 33.38,-18.11 62.59,-44.01 84.04,-75.38 29.14,-41.72 44.31,-92.89 43.13,-143.71 -0.02,-160.62 0.03,-321.22 -0.02,-481.82 -0.16,-7.07 -9.2,-8.83 -13.67,-13 -64.26,-43.62 -136.41,-75.63 -211.91,-93.93 -77.23,-18.65 -157.89,-23.05 -236.72,-13zm-151.7 125.37c128.26,-0.44 256.52,-0.3 384.78,-0.07 26.48,26.87 53.24,53.44 79.97,80.06 1.78,1.97 4.52,3.87 3.89,6.99 0.09,64.03 -0.05,128.08 0.07,192.11 -13.37,13.5 -26.87,26.87 -40.26,40.35 13.37,13.27 26.5,26.76 40.05,39.87 0.37,64.53 0.09,129.09 0.14,193.65 0.46,3.04 -2.59,4.73 -4.21,6.79 -25.18,25.02 -50.27,50.1 -75.29,75.28 -2.34,1.95 -4.38,5.38 -7.95,4.66 -127.01,0 -254.02,0.02 -381.03,0 -0.02,-28.84 0.02,-57.68 -0.02,-86.52 12.95,-11.07 25.87,-22.17 38.75,-33.33 0.21,-133.5 -0.07,-267.02 0.12,-400.52 -12.77,-11.46 -25.99,-22.4 -38.92,-33.7 0.05,-28.54 0.23,-57.08 -0.09,-85.62zm55.04 49.71l0 0c13.5,12 26.87,24.18 40.49,36.07 0.32,155.55 0.32,311.15 0,466.7 -12.16,13.43 -27.22,24.48 -40.12,37.38 102.5,0.07 205.03,0 307.55,0.03 15.92,-15.73 31.53,-31.78 47.61,-47.37 0.39,-61.41 0.11,-122.82 0.14,-184.26 0.46,-3.12 -2.46,-4.93 -4.22,-6.97 -10.63,-10.47 -21.17,-21.03 -31.67,-31.62 12.05,-11.95 24.05,-23.93 35.98,-36 -0.07,-62.24 -0.09,-124.48 0,-186.75 -15.71,-16.08 -32.2,-31.32 -47.93,-47.37 -102.62,0.16 -205.24,-0.16 -307.83,0.16zm80.77 36.25c78.34,0.21 156.66,0.03 234.98,0.1 0,71.81 0,143.62 0,215.43 -78.29,0.09 -156.61,-0.19 -234.91,0.14 -0.39,-71.88 -0.25,-143.79 -0.07,-215.67zm57.36 50.41l0 0c-0.35,38.43 -0.07,76.86 -0.17,115.31 39.96,0.03 79.92,0 119.86,0 0.14,-38.31 -0.21,-76.65 0.18,-114.96 -39.95,-0.67 -79.91,0 -119.87,-0.35zm-57.47 201.58c78.36,0.04 156.73,0 235.09,0.02 0.05,71.58 -0.09,143.16 0.07,214.74 -78.39,0.28 -156.78,0.04 -235.19,0.11 0,-71.62 -0.02,-143.25 0.03,-214.87zm57.33 50.4l0 0c-0.03,38.23 -0.03,76.45 0,114.65 39.93,0.02 79.89,0.02 119.83,0 0.02,-38.2 0.02,-76.42 0,-114.65 -39.94,0 -79.9,-0.02 -119.83,0zm-740.71 578.54c54.11,0.19 108.24,-0.37 162.36,0.26 13.76,11.58 25.69,25.31 38.66,37.85 -0.09,26.66 -0.09,53.32 -0.02,80.01 -10.66,9.98 -21.59,19.69 -32.27,29.65 10.75,9.87 21.7,19.55 32.29,29.6 -0.4,26.62 0.42,53.26 -0.35,79.85 -11.02,13.44 -24.48,25.04 -36.67,37.55l-164 0 0 -34.51c5.05,-6.17 16.03,-9.43 15.08,-18.81 -0.05,-64.22 -0.07,-128.43 0.02,-192.64 -5,-4.42 -10.17,-8.69 -15.1,-13.16l0 -35.65zm78.15 57.43l0 0c0.07,21.19 0,42.39 0.05,63.61 18.9,0 37.8,0 56.71,0 0.04,-21.22 -0.03,-42.42 0.04,-63.61 -18.92,-0.14 -37.87,-0.14 -56.8,0zm0.05 116.88l0 0c-0.02,21.43 -0.05,42.86 0,64.29 18.88,0 37.74,-0.05 56.62,0.04 0.23,-21.45 0.04,-42.88 0.09,-64.33 -18.91,0 -37.81,0 -56.71,0zm165.02 -174.31c51.82,-0.02 103.64,0 155.46,0 12.7,12.6 25.32,25.27 37.97,37.94 0.05,29.56 -0.07,59.14 0.07,88.7 -10.61,10.03 -21.45,19.81 -32.27,29.63 11.68,10.4 21.94,22.28 33.78,32.5 0.37,19.6 0.09,39.17 0.16,58.77 5.19,4.35 10.38,8.73 15.59,13.09 0.07,11.37 0.04,22.74 0.04,34.14l-79.34 0c-0.04,-37.46 0.1,-74.94 -0.09,-112.39 -17.35,0.11 -34.7,-0.03 -52.05,0.09 0.07,21.68 0.02,43.36 0.02,65.07 4.68,3.94 9.34,7.92 13.95,11.95 -0.07,11.75 -0.05,23.51 -0.05,35.28l-93.24 0c0,-11.35 -0.02,-22.7 0.05,-34.05 5.21,-4.4 10.38,-8.83 15.54,-13.25 0.14,-63.77 -0.09,-127.52 0.12,-191.3 1.92,-10.49 -9.96,-14.4 -15.75,-20.84 0.09,-11.79 0.02,-23.56 0.04,-35.33zm79.34 129.72l0 0c16.01,0 32.02,-0.04 48.02,0.03 0.1,-24.14 0.03,-48.28 0.05,-72.39 -15.98,-0.07 -31.97,0.04 -47.95,-0.07 -0.25,24.13 -0.05,48.27 -0.12,72.43zm217.8 -129.6c34.33,-0.19 68.68,-0.24 103.01,0.02 12.42,12.74 25.16,25.18 37.67,37.83 -0.05,64.74 0.07,129.49 -0.05,194.26 0.19,5.09 -0.65,10.44 0.83,15.42 4.68,4.89 10.27,8.78 15.43,13.16 0,11.31 0,22.63 0,33.96l-96.15 0c0.02,-11.84 0.04,-23.65 -0.03,-35.49 4.54,-3.77 9.13,-7.52 13.79,-11.19 0.32,-21.33 0.11,-42.64 0.11,-63.95 -15.43,0.04 -30.83,0.04 -46.24,0 -0.04,21.29 -0.13,42.6 0.05,63.89 4.7,3.73 9.31,7.52 13.88,11.44 -0.12,11.77 -0.05,23.53 -0.07,35.3l-96.14 0c0,-11.33 -0.02,-22.65 0.03,-33.98 5.26,-4.47 10.58,-8.87 15.98,-13.16 0.49,-69.89 0.07,-139.77 0.21,-209.66 12.53,-12.65 25.25,-25.11 37.69,-37.85zm28.35 57.24l0 0c-0.02,25.08 -0.02,50.17 0,75.26 15.43,0 30.86,0 46.28,0 0.03,-25.09 0.03,-50.18 0,-75.26 -15.42,-0.03 -30.85,-0.03 -46.28,0zm239.73 0l0 0c0,60.59 0,121.19 0,181.82 16.59,0 33.2,0 49.78,0 0.03,-60.6 0.03,-121.23 0,-181.82 -16.58,-0.03 -33.19,-0.03 -49.78,0z"/>
   <path class="fil1" d="M942.97 761.34c39.93,0.02 79.89,0.02 119.83,0 0.02,-38.2 0.02,-76.42 0,-114.65 -39.94,0 -79.9,-0.02 -119.83,0 -0.03,38.23 -0.03,76.45 0,114.65zm42.9 295.16c70.4,-27.94 140.49,-56.59 210.82,-84.74 13.55,-5.51 27.29,-10.79 40.1,-17.95 33.38,-18.11 62.59,-44.01 84.04,-75.38 29.14,-41.72 44.31,-92.89 43.13,-143.71 -0.02,-160.62 0.03,-321.22 -0.02,-481.82 -0.16,-7.07 -9.2,-8.83 -13.67,-13 -64.26,-43.62 -136.41,-75.63 -211.91,-93.93 -77.23,-18.65 -157.89,-23.05 -236.72,-13 -105.16,13.04 -206.6,52.93 -293.26,113.83 -0.4,161.83 -0.02,323.68 -0.19,485.53 -0.14,26.57 3.01,53.26 10.84,78.69 20.97,70.77 76.42,129.91 145.36,156.09 73.78,29.88 147.77,59.35 221.48,89.39zm145.26 -158.47c-127.01,0 -254.02,0.02 -381.03,0 -0.02,-28.84 0.02,-57.68 -0.02,-86.52 12.95,-11.07 25.87,-22.17 38.75,-33.33 0.21,-133.5 -0.07,-267.02 0.12,-400.52 -12.77,-11.46 -25.99,-22.4 -38.92,-33.7 0.05,-28.54 0.23,-57.08 -0.09,-85.62 128.26,-0.44 256.52,-0.3 384.78,-0.07 26.48,26.87 53.24,53.44 79.97,80.06 1.78,1.97 4.52,3.87 3.89,6.99 0.09,64.03 -0.05,128.08 0.07,192.11 -13.37,13.5 -26.87,26.87 -40.26,40.35 13.37,13.27 26.5,26.76 40.05,39.87 0.37,64.53 0.09,129.09 0.14,193.65 0.46,3.04 -2.59,4.73 -4.21,6.79 -25.18,25.02 -50.27,50.1 -75.29,75.28 -2.34,1.95 -4.38,5.38 -7.95,4.66zm-188.19 -388.01c39.96,0.03 79.92,0 119.86,0 0.14,-38.31 -0.21,-76.65 0.18,-114.96 -39.95,-0.67 -79.91,0 -119.87,-0.35 -0.35,38.43 -0.07,76.86 -0.17,115.31zm169.96 338.21c15.92,-15.73 31.53,-31.78 47.61,-47.37 0.39,-61.41 0.11,-122.82 0.14,-184.26 0.46,-3.12 -2.46,-4.93 -4.22,-6.97 -10.63,-10.47 -21.17,-21.03 -31.67,-31.62 12.05,-11.95 24.05,-23.93 35.98,-36 -0.07,-62.24 -0.09,-124.48 0,-186.75 -15.71,-16.08 -32.2,-31.32 -47.93,-47.37 -102.62,0.16 -205.24,-0.16 -307.83,0.16 13.5,12 26.87,24.18 40.49,36.07 0.32,155.55 0.32,311.15 0,466.7 -12.16,13.43 -27.22,24.48 -40.12,37.38 102.5,0.07 205.03,0 307.55,0.03zm7.83 -251.92c0.05,71.58 -0.09,143.16 0.07,214.74 -78.39,0.28 -156.78,0.04 -235.19,0.11 0,-71.62 -0.02,-143.25 0.03,-214.87 78.36,0.04 156.73,0 235.09,0.02zm0 -36.48c-78.29,0.09 -156.61,-0.19 -234.91,0.14 -0.39,-71.88 -0.25,-143.79 -0.07,-215.67 78.34,0.21 156.66,0.03 234.98,0.1 0,71.81 0,143.62 0,215.43z"/>
  </g>
 </g>
</svg>
