<?xml version="1.0" encoding="UTF-8"?>
<!DOCTYPE svg PUBLIC "-//W3C//DTD SVG 1.1//EN" "http://www.w3.org/Graphics/SVG/1.1/DTD/svg11.dtd">
<!-- Creator: CorelDRAW -->
<svg xmlns="http://www.w3.org/2000/svg" xml:space="preserve" width="2000px" height="1600px" version="1.1" style="shape-rendering:geometricPrecision; text-rendering:geometricPrecision; image-rendering:optimizeQuality; fill-rule:evenodd; clip-rule:evenodd"
viewBox="0 0 2000 1600"
 xmlns:xlink="http://www.w3.org/1999/xlink">
 <defs>
  <style type="text/css">
   <![CDATA[
    .fil1 {fill:#13305A;fill-rule:nonzero}
    .fil0 {fill:#FEFEFE;fill-rule:nonzero}
   ]]>
  </style>
 </defs>
 <g id="Capa_x0020_1">
  <metadata id="CorelCorpID_0Corel-Layer"/>
  <g id="Brigham_x0020_Young_x0020_Cougars.cdr">
   <path class="fil0" d="M721.44 336.11c57.95,-13.26 116.93,-22.7 176.39,-25.01 4.97,47.91 10.67,95.76 14.97,143.72 -22.72,1.25 -45.35,3.63 -67.95,6.25 -16.08,2.06 -32.27,3.89 -48.05,7.75 94.55,109.97 188.83,220.16 283.55,329.95 83.13,-100.86 166.77,-201.33 249.74,-302.3 -19.18,-6.9 -39.18,-11.15 -59.03,-15.62 -20.56,-4.25 -41.11,-8.58 -61.91,-11.48 5.9,-46.89 12.96,-93.67 16.85,-140.8 158.5,26.76 312.63,89.26 438.36,190.45 -27.56,35.68 -53.17,72.81 -80.63,108.58 -31.49,-29.68 -68.51,-52.73 -106.15,-73.73 -110.75,134.7 -221.35,269.53 -331.89,404.4 0.14,59.22 -0.02,118.43 0.07,177.64 42.31,-5.19 84.4,-12.17 126.23,-20.34 10.11,44.7 24.29,88.4 33.94,133.22 -83.17,21.7 -168.94,32.32 -254.75,35.68 -113.19,4.13 -227.27,-4.96 -337.63,-31.17 9.09,-45.32 18.74,-90.55 27.05,-136.02 39.58,9.14 79.96,14.34 120.26,18.95 0.21,-58.58 -0.47,-117.19 0.44,-175.77 0.42,-3.51 -2.89,-5.5 -4.75,-7.95 -115.03,-130.28 -229.81,-260.79 -344.91,-390.99 -17.38,9.26 -33.78,20.2 -49.86,31.54 -15.96,11.41 -31.79,23.11 -46.13,36.53 -29.54,-35.77 -57.61,-72.71 -86.65,-108.88 52.99,-46.04 113.77,-82.43 177.37,-111.81 68.9,-31.67 141.24,-55.64 215.07,-72.79z"/>
   <path class="fil1" d="M965.74 217.28l68.23 0c152.53,4.21 305.32,31.88 446.85,89.82 59.53,24.45 116.95,54.3 170.3,90.39 50.26,34.24 97.08,73.99 136.62,120.33 35.72,41.74 65.61,88.85 85.37,140.25 16.69,42.83 25.66,88.55 26.89,134.5l0 15.03c-1.41,55.86 -14.85,111.22 -38.66,161.73 -38.38,81.78 -100.69,150.33 -171.77,205.14 -87.12,66.96 -187.63,115.01 -291.97,148.45 -151.85,48.3 -312.71,66.05 -471.59,57.89 -151.86,-8.12 -303.36,-40.47 -442.23,-103.26 -63.62,-28.88 -124.45,-64.34 -179.42,-107.56 -62.77,-49.38 -118.24,-109.51 -155.89,-180.35 -28.36,-52.89 -45.44,-111.91 -48.47,-171.91l0 -35.49c3.35,-69.89 26.24,-138.09 62.95,-197.42 41.83,-68.15 99.72,-125.33 164.11,-172.22 74.5,-54.1 157.95,-95.14 244.67,-125.61 126.48,-44.33 260.25,-66.03 394.01,-69.71zm-244.3 118.83l0 0c-73.83,17.15 -146.17,41.12 -215.07,72.79 -63.6,29.38 -124.38,65.77 -177.37,111.81 29.04,36.17 57.11,73.11 86.65,108.88 14.34,-13.42 30.17,-25.12 46.13,-36.53 16.08,-11.34 32.48,-22.28 49.86,-31.54 115.1,130.2 229.88,260.71 344.91,390.99 1.86,2.45 5.17,4.44 4.75,7.95 -0.91,58.58 -0.23,117.19 -0.44,175.77 -40.3,-4.61 -80.68,-9.81 -120.26,-18.95 -8.31,45.47 -17.96,90.7 -27.05,136.02 110.36,26.21 224.44,35.3 337.63,31.17 85.81,-3.36 171.58,-13.98 254.75,-35.68 -9.65,-44.82 -23.83,-88.52 -33.94,-133.22 -41.83,8.17 -83.92,15.15 -126.23,20.34 -0.09,-59.21 0.07,-118.42 -0.07,-177.64 110.54,-134.87 221.14,-269.7 331.89,-404.4 37.64,21 74.66,44.05 106.15,73.73 27.46,-35.77 53.07,-72.9 80.63,-108.58 -125.73,-101.19 -279.86,-163.69 -438.36,-190.45 -3.89,47.13 -10.95,93.91 -16.85,140.8 20.8,2.9 41.35,7.23 61.91,11.48 19.85,4.47 39.85,8.72 59.03,15.62 -82.97,100.97 -166.61,201.44 -249.74,302.3 -94.72,-109.79 -189,-219.98 -283.55,-329.95 15.78,-3.86 31.97,-5.69 48.05,-7.75 22.6,-2.62 45.23,-5 67.95,-6.25 -4.3,-47.96 -10,-95.81 -14.97,-143.72 -59.46,2.31 -118.44,11.75 -176.39,25.01z"/>
  </g>
 </g>
</svg>
