<?xml version="1.0" encoding="UTF-8"?>
<!DOCTYPE svg PUBLIC "-//W3C//DTD SVG 1.1//EN" "http://www.w3.org/Graphics/SVG/1.1/DTD/svg11.dtd">
<!-- Creator: CorelDRAW -->
<svg xmlns="http://www.w3.org/2000/svg" xml:space="preserve" width="2000px" height="1600px" version="1.1" style="shape-rendering:geometricPrecision; text-rendering:geometricPrecision; image-rendering:optimizeQuality; fill-rule:evenodd; clip-rule:evenodd"
viewBox="0 0 2000 1600"
 xmlns:xlink="http://www.w3.org/1999/xlink">
 <defs>
  <style type="text/css">
   <![CDATA[
    .fil1 {fill:#004685;fill-rule:nonzero}
    .fil2 {fill:#F47937;fill-rule:nonzero}
    .fil0 {fill:#FEFEFE;fill-rule:nonzero}
   ]]>
  </style>
 </defs>
 <g id="Capa_x0020_1">
  <metadata id="CorelCorpID_0Corel-Layer"/>
  <g id="Bucknell_x0020_Bison.cdr">
   <path class="fil0" d="M560.26 1060.57c25.59,-3.78 51.17,-7.55 76.78,-11.27 -7.8,7.32 -15.78,14.42 -23.74,21.57 -10.6,48.06 -21.13,96.13 -31.6,144.23 -3.61,16.56 -6.47,33.79 -15.21,48.6 -9.79,16.66 -26.4,28.47 -44.42,34.83 -23.75,7.7 -49.15,10.96 -73.98,7.7 -11.52,-1.89 -24,-7.34 -29.07,-18.59 -5.47,-11.73 -3.06,-25.09 -0.74,-37.28 11.04,-52.47 22.32,-104.91 33.4,-157.36 -4.96,-5.21 -9.91,-10.43 -14.61,-15.87 32.67,-4.26 65.25,-9.11 97.91,-13.32 -7.28,6.83 -14.57,13.68 -21.7,20.66 -9.34,43.8 -18.92,87.55 -28.43,131.3 -2.91,14.59 -7.17,28.97 -8.36,43.85 -0.4,5.42 1.57,11.93 7.1,14.04 9.11,3.19 19.03,1.51 28.24,-0.49 9.9,-2.32 18.96,-8.64 23.64,-17.79 6.87,-13.3 8.44,-28.42 11.96,-42.78 9.89,-45.39 19.87,-90.79 29.7,-136.18 -5.68,-5.23 -11.3,-10.51 -16.87,-15.85zm1231.34 -39.32c34.42,18.6 61.74,47.17 92.34,71.01 -33.81,-18.96 -69.3,-38.84 -92.34,-71.01zm-370.83 -233.53c3.19,-2.04 6.38,-4.08 9.59,-6.1 15.19,8.91 29.41,19.36 42.89,30.7 -21.74,-9.15 -45.53,-10.87 -68.82,-11.49 3.36,-2.72 6.76,-5.41 10.23,-8.02 8.4,1.44 16.79,2.79 25.23,4.02 -6.3,-3.17 -12.7,-6.17 -19.12,-9.11zm80.97 -45.44c6.37,-4.11 14.24,-1.58 20.73,0.97 12.13,4.9 25.12,10.47 32.72,21.71 11.11,-1.24 22.58,-1.41 33.41,1.79 5.25,1.55 10.68,4 13.8,8.78 -17.72,-1.43 -35.55,-2.28 -53.25,-0.06 -9.21,-11.02 -21.53,-20.66 -35.9,-23.41 -8.85,-1.95 -16.16,4.45 -20.29,11.54 0.8,-7.64 1.63,-16.79 8.78,-21.32zm-60.66 -127.68c-3.83,-8.53 0.75,-17.66 4.56,-25.32 2.34,5.1 4.95,10.06 7.89,14.81 -1.4,2 -4.93,3.17 -4.3,6.12 0.39,7.43 7.66,11.34 13.24,14.87 -7.83,-1.34 -17.26,-2.7 -21.39,-10.48zm348.77 -127.15c7.02,15.06 9.87,33.38 1.81,48.64 -10.56,20.25 -32.06,31.91 -53.02,38.76 3.4,-11.1 5.72,-22.49 7.78,-33.91 11.79,-1.17 23.83,-5.45 31.73,-14.66 9.28,-10.54 12.32,-25.11 11.7,-38.83zm-407.83 -87.9c-16.4,11.88 -32.34,25.94 -40.42,45 -5.75,13.05 -7.18,28.88 -0.28,41.79 7.08,13.77 24.74,17.98 31.09,32.36 2.55,4.83 0.1,11.58 -5.31,13 -18.46,3.7 -40.19,-3.47 -49.04,-20.98 -9.64,-19.36 -8.91,-43.32 0.35,-62.7 12.31,-24.93 37.68,-40.7 63.61,-48.47zm193.13 518.83c32.19,-4.68 64.3,-9.81 96.49,-14.46 -5.66,5.87 -11.47,11.59 -17.28,17.33 -1.7,1.86 -3.96,3.56 -4.42,6.22 -15.03,70.62 -30.02,141.29 -45.02,211.93 31.68,-3.21 60.08,-25.46 70.65,-55.51 8.66,-0.87 17.32,-1.55 26,-2.32 -5.21,24.94 -10.55,49.85 -15.59,74.81 -55.51,6.89 -111.04,13.51 -166.54,20.15 6.99,-7.19 15.07,-13.36 21.54,-21.02 16.25,-73.72 31.93,-147.58 47.7,-221.41 -4.64,-5.14 -9.11,-10.42 -13.53,-15.72zm22.53 13.13l0 0c-15.89,76.28 -31.66,152.57 -47.34,228.87 4.47,-0.51 8.98,-1.02 13.49,-1.51 15.38,-76.28 30.81,-152.57 46.23,-228.83 -4.15,0.47 -8.27,0.98 -12.38,1.47zm77.66 182.57l0 0c-14.98,17.18 -37.49,25.58 -59.34,29.83 -2.32,0.34 -4.55,1.17 -5.28,3.6 16.64,3.24 34.83,3.19 50.22,-4.74 14.25,-7.37 23.1,-22.79 24.29,-38.56 -5.34,0.36 -6.53,6.66 -9.89,9.87zm-272.3 -172.32c32.28,-4.51 64.56,-9.04 96.87,-13.51 -5.91,5.68 -11.83,11.34 -17.87,16.88 -1.91,1.81 -4.17,3.63 -4.38,6.47 -14.94,69.65 -29.96,139.29 -44.81,208.95 31.26,-3.32 59.87,-24.66 70.55,-54.44 8.68,-1.22 17.36,-2.35 26.05,-3.47 -5.54,24.98 -11.34,49.89 -16.68,74.91 -55.47,6.72 -110.96,13.45 -166.45,20.09 6.66,-6.43 13.76,-12.39 20.59,-18.66 1.96,-1.45 2.47,-3.9 3.02,-6.13 15.47,-71.79 31.2,-143.51 46.66,-215.3 -4.55,-5.25 -9.02,-10.55 -13.55,-15.79zm22.43 13.15l0 0c-16.04,76.24 -32.34,152.43 -48.34,228.69 4.47,-0.43 8.95,-0.9 13.44,-1.37 16.22,-76.31 32.3,-152.64 48.53,-228.95 -4.55,0.53 -9.1,1.06 -13.63,1.63zm83.83 183.77l0 0c-10.53,15.26 -29.26,22.09 -46.9,24.77 -3.97,0.91 -8.97,0.14 -11.66,3.85 15.51,4.25 33.54,5.23 47.62,-3.75 9.98,-6.3 15.4,-17.68 17.19,-29.02 -3.42,-1.32 -4.49,2.34 -6.25,4.15zm-278.66 -172.64c52.91,-7.62 105.89,-14.74 158.83,-22.19 -4.73,22.04 -9.66,44.06 -14.53,66.07 -9.03,1.12 -18.05,2.23 -27.07,3.4 1.6,-8.24 3.64,-18.28 -3.62,-24.53 -10.74,-12.11 -28.27,-10.03 -42.57,-7.75 -6.58,31.41 -13.42,62.79 -19.87,94.22 23.08,-5.94 34.68,-29.73 42.66,-50.13 3.85,-0.49 7.7,-0.88 11.57,-1.3 -6.66,32.08 -14.06,64 -21.04,96 -3.38,0.72 -6.72,1.49 -10.06,2.27 -1.24,-5.93 -3.07,-12.33 -8.34,-15.91 -5.77,-4.49 -13.41,-4.43 -20.36,-4.45 -5.94,26.96 -11.88,53.92 -17.73,80.9 14.66,-2.39 29.57,-6.39 41.68,-15.36 6.72,-5.17 13.26,-10.77 18.38,-17.6 5.24,-6.79 7,-15.42 11.43,-22.68 8.72,-1.19 17.45,-2.34 26.21,-3.23 -7.23,24.82 -14.46,49.7 -20.23,74.91 -54.04,6.76 -108.09,13.47 -162.15,20.09 7.45,-6.69 14.6,-13.73 21.92,-20.58 15.5,-72.02 30.99,-144.04 46.55,-216.06 -4.24,-5.3 -9.05,-10.15 -13.05,-15.62 0.07,-0.6 0.22,-1.81 0.3,-2.42l1.09 1.95zm79.32 2.49l0 0c1.34,4.04 5.89,2.19 8.95,2.72 12.39,0.07 26.51,1.9 35.35,11.54 3.57,3.23 2.53,10.14 7.83,11.4 1.46,-9.85 1.76,-22.68 -8.17,-28.32 -13.84,-7.25 -30.11,-2 -43.96,2.66zm-57.7 10.9l0 0c-15.43,72.55 -30.73,145.12 -46.3,217.63 4.51,-0.51 9.06,-1 13.61,-1.46 15.07,-72.64 30.15,-145.26 45.13,-217.92 -4.17,0.59 -8.3,1.15 -12.44,1.75zm71.51 180.04l0 0c-9.85,18.08 -30.47,26.4 -49.83,29.44 -3.6,1.09 -9.24,-0.25 -10.51,4.39 15.14,3.12 32.33,4.95 46.17,-3.43 10.16,-6.02 15.46,-17.47 17.17,-28.76 -0.75,-0.41 -2.26,-1.22 -3,-1.64zm-153.52 -184.47c18.39,-2.49 36.75,-5.34 55.15,-7.75 -6.36,5.85 -13.04,11.32 -19.63,16.94 -1.71,1.64 -4.07,3.07 -4.45,5.64 -16.58,77.38 -32.98,154.81 -49.58,232.21 -19.04,2.19 -38.08,4.4 -57.12,6.68 -14.56,-56.36 -29.41,-112.66 -44.09,-169 -11.7,53.6 -23.59,107.17 -35.17,160.79 5.6,5.34 11.32,10.55 16.92,15.91 -18.85,2.11 -37.64,4.6 -56.51,6.66 9.85,-46.29 19.68,-92.57 29.53,-138.85 7.53,-36.44 15.91,-72.68 22.76,-109.23 23.85,-3.36 47.69,-6.72 71.56,-10.02 11.83,49.44 23.08,99.06 35.44,148.38 11.64,-52.81 23.36,-105.59 35.19,-158.36zm6.77 15.19l0 0c-15.49,72.23 -30.21,144.62 -45.38,216.92 4.13,-0.56 8.3,-1.09 12.45,-1.64 15.38,-72.15 30.85,-144.28 46.19,-216.43 -4.45,0.36 -8.85,0.79 -13.26,1.15zm-144.62 20.23l0 0c-15.04,72.32 -30.08,144.62 -45.19,216.92 4.54,-1.04 9.09,-2.06 13.66,-3.04 14.98,-71.83 30.15,-143.62 45.04,-215.47 -4.51,0.51 -9.02,1.04 -13.51,1.59zm25.41 4.07l0 0c-1.09,8.38 -5.17,16.66 -3.77,25.17 15.45,56.87 30.88,113.74 46.22,170.62 4.1,-0.52 8.21,-1.03 12.33,-1.54 -17.16,-64.68 -34.36,-129.36 -51.59,-194.04 -0.81,-0.04 -2.4,-0.15 -3.19,-0.21zm-137.64 -4.98c27.41,-3.75 54.77,-7.85 82.23,-11.23 -10.38,10.17 -22.46,18.72 -31.17,30.48 -23.76,29.69 -47.89,59.11 -71.38,89.01 17.17,35.31 33.7,70.91 50.62,106.33 4.21,7.56 10.87,13.33 16.25,20.03 -33.7,4.15 -67.4,8.27 -101.1,12.38 5.81,-6.62 11.96,-12.92 18.02,-19.3 -10.38,-22.47 -20.34,-45.11 -30.66,-67.62 -5.34,24.3 -10.07,48.71 -15.43,73 4.85,5.39 9.9,10.58 14.68,16.01 -32.95,4.1 -65.87,8.34 -98.83,12.29 7.2,-7.98 16.64,-14.23 22.81,-22.96 15.22,-69.02 30.24,-138.12 45.2,-207.19 -3.03,-5.61 -6.03,-11.21 -8.92,-16.87 31,-4.02 61.98,-8.28 93,-12.25 -7.02,7.63 -15.26,14.04 -22.15,21.76 -6.85,27.43 -12.45,55.22 -18.81,82.79 23.28,-30.79 46.81,-61.38 70.09,-92.17 -4.83,-4.83 -9.66,-9.64 -14.45,-14.49zm25.98 11.94l0 0c-30.98,39.72 -62.04,79.36 -93.13,118.98 15.6,31.36 30.83,62.91 46.64,94.17 4.11,-0.47 8.23,-0.96 12.36,-1.39 -14.83,-31.19 -29.96,-62.23 -44.89,-93.36 31.32,-40.08 62.7,-80.11 94.06,-120.17 -5.02,0.6 -10.04,1.19 -15.04,1.77zm-115.77 16.8l0 0c-14.78,69.96 -29.42,139.94 -44.04,209.92 4.49,-0.53 9,-1.06 13.49,-1.57 14.75,-70.47 29.42,-140.96 44.13,-211.43 -4.55,1.02 -9.07,2.04 -13.58,3.08zm-500.61 -23.49c24.59,-3 49.63,-8.14 74.32,-3.53 9.93,2.21 21.46,6.45 25.25,16.85 4.79,13.3 4.21,27.9 2.26,41.71 -3.77,20.95 -10.49,41.32 -19.19,60.74 -6.37,15.47 -19.62,26.91 -33.52,35.57 15.35,5.56 24.6,21.03 26.75,36.64 4.19,26.79 -5.51,53.85 -20.89,75.54 -13.58,20.51 -35.6,33.97 -58.71,41.27 -24.96,7.98 -51.29,9.75 -77.15,12.83 -15.4,1.64 -30.78,3.58 -46.17,5.13 6.22,-6.28 12.71,-12.26 19.15,-18.32 1.45,-1.57 3.45,-2.89 3.75,-5.15 19.55,-90.98 38.81,-182.06 58.44,-273.02 -5.04,-5.98 -10.4,-11.7 -15.06,-17.98 20.21,-3.13 40.53,-5.47 60.77,-8.28zm59.04 9.3l0 0c1.32,3.9 4.38,7.05 5.21,11.17 2.36,11.7 0.62,23.71 -1.08,35.37 -4.43,25.12 -10.79,50.12 -21.58,73.33 -3.66,7.88 -8.49,15.35 -15.32,20.9 1.37,0.94 3.15,2.21 4.79,0.81 11.49,-5.73 18.98,-16.77 25.4,-27.47 10.54,-18.41 17.6,-38.77 21.56,-59.58 2.47,-14.5 2.51,-30.21 -4,-43.68 -3.02,-5.34 -8.15,-11.74 -14.98,-10.85zm-95.96 12.96l0 0c-19.34,92.6 -39.02,185.15 -58.4,277.77 4.51,-0.54 9,-1.05 13.49,-1.54 19.57,-92.53 38.97,-185.08 58.49,-277.61 -4.52,0.42 -9.05,0.89 -13.58,1.38zm51.58 4.11l0 0c-8.36,39.78 -16.87,79.53 -25.37,119.27 9.37,-1.31 18.98,-2.02 27.94,-5.25 4.92,-1.72 6.96,-7.02 9.13,-11.26 6.27,-14.27 10.45,-29.32 14.15,-44.42 3.7,-16.9 7.7,-34 7.1,-51.41 -0.1,-3 -0.3,-6.34 -2.63,-8.53 -10.09,-1.3 -20.26,0.49 -30.32,1.6zm16.3 134.85l0 0c3.27,3.93 5.65,8.55 5.85,13.76 1.85,21.02 -2.37,42.07 -8.39,62.13 -5.79,18.24 -12.55,37.08 -26.62,50.68 7.56,0.56 13.09,-5.68 18.09,-10.44 14.77,-16.28 23.49,-37.22 28.75,-58.34 4.25,-16.98 5.61,-36.77 -4.62,-51.92 -2.98,-3.55 -8.15,-8.64 -13.06,-5.87zm-48.28 14.34l0 0c-7.45,35.95 -14.85,71.91 -22.24,107.87 10.54,-1.34 21.32,-2.06 31.45,-5.47 8.53,-3.02 12.79,-11.85 16.13,-19.63 8.44,-21.16 11.79,-43.96 14.04,-66.49 0.06,-5.94 0.94,-15.11 -6.28,-17.18 -10.83,-2.8 -22.17,-0.36 -33.1,0.9zm448.51 -151.15c12.27,-3.98 24.42,-8.25 36.72,-12.11 -6.25,28.34 -12.77,56.6 -18.89,84.96 -10.87,1.58 -21.73,3.04 -32.62,4.53 1.7,-13.25 1.66,-26.96 -1.43,-40 -1.95,-6.51 -5.38,-14.53 -12.95,-15.72 -10.22,-1.57 -19.81,4.28 -26.9,11.11 -10.57,9.89 -15.1,24.12 -19.21,37.57 -6.08,22.15 -11.34,44.53 -15.59,67.09 -4.34,21.61 -10.18,43.38 -8.54,65.63 0.24,6 3.62,12.83 10.19,13.71 13.05,1.53 25.6,-5.62 33.64,-15.52 11.19,-13.81 19,-30.14 25.2,-46.68 9.02,-1.08 18.02,-2.23 27.02,-3.36 -5.69,27.24 -11.94,54.38 -17.75,81.6 -10,-1.36 -19.96,-2.94 -29.96,-4.38 -16.51,13.29 -38.63,18.5 -59.38,14.93 -16.36,-3.21 -31.21,-13.91 -38.93,-28.74 -7.94,-16.39 -8.09,-35.15 -6.88,-52.94 3.17,-41.4 21.21,-80.57 46.45,-113.09 16.15,-20.36 35.81,-39 60.15,-49.06 15.7,-6.04 34.64,-8.93 49.66,0.47zm-70.02 22.49l0 0c-28.04,21.79 -49.07,51.87 -62.68,84.49 -11.62,28.98 -16.68,61.76 -8.71,92.32 3.15,14.19 15.34,24.1 27.53,30.72 0.03,-4.62 -3.68,-7.81 -5.7,-11.59 -7.64,-13.09 -9.53,-28.64 -9.32,-43.54 0.84,-31.36 9.45,-62.12 22.32,-90.59 10.17,-22.58 23.51,-44.02 41.41,-61.26 1.59,-3.76 -3.55,-2.27 -4.85,-0.55zm-106 9.72l0 0c-11.45,55.17 -22.94,110.34 -34.41,165.51 -3.51,17.66 -13.61,34.49 -29.15,44 -2.38,1.34 -4.4,3.17 -5.06,5.96 23.34,-5.51 41.02,-26 47.32,-48.55 11.7,-56.09 23.19,-112.21 34.83,-168.3 -4.51,0.45 -9.02,0.93 -13.53,1.38zm-154.11 167.06l0 0c-2.85,13.6 -7.11,27.99 -2.06,41.66 3.63,11.52 14.47,19.62 26.29,21.2 -0.38,-4.71 -5.66,-5.96 -8.36,-9.09 -8.19,-8.66 -9.27,-21.76 -6.89,-32.94 11.64,-57.55 23.74,-115.02 35.3,-172.57 -4.41,0.41 -8.85,0.85 -13.26,1.24 -10.6,50.12 -20.64,100.34 -31.02,150.5z"/>
   <path class="fil1" d="M1381.34 584.36c27.62,-0.02 57.66,-9.7 73.45,-33.79 2.36,22.71 10.65,46.37 28.85,61.2 12.81,10.51 29.96,13.55 46.13,12.66 -10.11,4.49 -20.24,8.89 -30.28,13.49 0.81,22.76 -0.83,46.02 -9.3,67.38 -3.3,-22.68 -8.42,-45.45 -18.83,-66.02 -10.68,1.06 -22.3,-0.19 -30.96,-7.05 -9.02,-6.68 -10.82,-18.83 -18.78,-26.42 -10.34,-11.87 -25.81,-16.75 -40.28,-21.45zm-398.27 724.23c21.02,-2.1 41.91,-5.89 63.02,-6.8 -1.01,4.49 -1.35,9.25 -3.3,13.49 -2.41,2.31 -5.98,2.25 -9.04,2.87 -17.96,2.15 -35.94,4.36 -53.88,6.57 1.02,-5.4 2.07,-10.78 3.2,-16.13zm7.67 -23.76c19.85,-2.05 39.56,-5.17 59.47,-6.72 -0.49,2.44 -0.95,4.87 -1.42,7.34 -20.68,3.66 -41.66,5.48 -62.51,8.1 1,-3.04 -0.45,-9.15 4.46,-8.72zm369.84 -43.98c25.33,-3.25 50.63,-6.6 75.95,-9.87 -2.45,12.42 -5.17,24.78 -7.55,37.21 -25.32,3.21 -50.64,6.6 -75.96,9.85 2.28,-12.44 4.98,-24.81 7.56,-37.19zm-1048.13 -50.53c10.93,-1.26 22.27,-3.7 33.1,-0.9 7.22,2.07 6.34,11.24 6.28,17.18 -2.25,22.53 -5.6,45.33 -14.04,66.49 -3.34,7.78 -7.6,16.61 -16.13,19.63 -10.13,3.41 -20.91,4.13 -31.45,5.47 7.39,-35.96 14.79,-71.92 22.24,-107.87zm31.98 -149.19c10.06,-1.11 20.23,-2.9 30.32,-1.6 2.33,2.19 2.53,5.53 2.63,8.53 0.6,17.41 -3.4,34.51 -7.1,51.41 -3.7,15.1 -7.88,30.15 -14.15,44.42 -2.17,4.24 -4.21,9.54 -9.13,11.26 -8.96,3.23 -18.57,3.94 -27.94,5.25 8.5,-39.74 17.01,-79.49 25.37,-119.27zm818.74 -398.22c40.98,1.62 81.83,7.41 121.6,17.43 38.51,9.92 76.4,24.09 109.63,46.3 -16.49,4.79 -33.06,9.23 -49.65,13.61 -53.33,-35.29 -114.26,-58.48 -176.84,-70.91 -3.42,-0.08 -3.27,-4.36 -4.74,-6.43zm-246.3 -154.55c31.62,-6.76 64.94,0.22 93.26,15.09 -28.85,-0.56 -57.92,1.66 -86.04,8.38 -17.58,4.51 -35.26,10.76 -49.67,22.11 -11.82,10.17 -22.31,21.76 -33.76,32.32 -34.75,34.16 -70.81,67.97 -113.58,91.95 -17.74,10.22 -36.66,18.15 -55.76,25.41 -6.89,6.68 -7.23,17.53 -7.57,26.59 0.99,36.9 23.23,73.73 58.1,87.75 20.38,9.1 43.41,7.57 64.83,3.49 34.15,-6.88 65.79,-22.75 94.72,-41.79 3.2,-2.15 6.86,-3.55 10.62,-4.43 19.53,-4.85 39.94,-8.08 60.04,-4.87 -1.46,-3.45 -2.8,-6.95 -4.17,-10.42 -18.53,-2.02 -37.14,-0.17 -55.55,1.78 -8.62,0.22 -14.85,6.92 -22.15,10.56 -34.44,19.7 -74.23,35.29 -114.57,29.31 -31.41,-4.38 -58.39,-25.1 -75.54,-51.12 25.71,15.02 56,24.61 85.94,19.44 39.89,-6.46 73.24,-31.7 102.83,-57.7l0.92 -0.21c23.21,10.94 48.53,21.32 74.72,17.85 0.47,-13.4 7.38,-27.15 19.57,-33.42 19.01,1.23 36.45,10.44 51.28,21.93 2.7,-7.79 -1.72,-15.3 -7.94,-19.74 -8.42,-6.79 -18.83,-10.6 -26.89,-17.86 29.96,-1.27 60.49,1.99 89.07,11.26 -9,-7.96 -19.15,-14.4 -30.16,-19.13 -11.68,-2.8 -23.74,-1.46 -35.57,-1.95 -13.26,-3.54 -24.21,-12.64 -37.3,-16.62 -14.66,-4.7 -29.93,-10.04 -45.55,-7.98 -7.04,0.79 -11.64,6.57 -16.51,11.04 -11.47,10.83 -23.7,21.02 -37.23,29.19 -4.85,3.03 -10.71,3.34 -16.24,3.79 -18.27,1.13 -36.74,0.36 -54.66,-3.44 -17.72,7.5 -36.02,14.38 -55.17,16.93 8.92,-9.53 19.51,-17.34 30.17,-24.81 11.6,-7.64 24.07,-14.98 38.05,-16.93 16.78,-0.34 33.61,2.29 50.34,1.42 12.46,-7.91 23.23,-18.25 32.91,-29.32 5.55,-6.42 14.42,-8.14 22.47,-8.53 21.83,-0.89 43.12,5.04 64.1,10.24 8.56,1.97 16.18,6.36 23.79,10.55 17.17,7.95 36.68,5.28 54.73,9.42 21.89,5.96 43.02,14.32 64.1,22.6 13.43,4.66 23.51,15.21 33.7,24.64 10.05,10.36 21.07,20.36 28.17,33.08 -1.57,31.72 -4.53,63.96 -15.36,94.06 -21.72,-13.74 -43.45,-27.44 -65.12,-41.27 16.1,20.85 32.63,41.34 48.84,62.08 -61.61,4.15 -123.27,-7.48 -182.06,-25.17 -2.83,-1.23 -6.85,-1.21 -8.32,-4.36 -5.76,-11 -8.47,-23.21 -12.46,-34.89 -31.07,0.79 -58.3,17.83 -84.41,32.89 -16.25,10.53 -33.6,19.53 -52.34,24.73 -18.13,5.1 -36.96,9.17 -55.9,8.04 -22.29,-1.92 -43.46,-10.36 -62.93,-21 -12.55,-7.13 -24.91,-15.11 -34.77,-25.77 -8.68,-9.4 -9.23,-24.1 -19.42,-32.23 -2.07,-10.24 -3.9,-20.51 -5.9,-30.75 -0.67,-2.65 -0.29,-5.32 0.77,-7.78 -1.83,-12.64 -3.53,-26.71 3.62,-38.09 8.15,-12.89 23.1,-18.64 36.81,-23.57 12.89,-4.24 22.17,-14.7 33.91,-21.02 29.75,-15.52 55,-37.92 81.83,-57.75 15.64,-11.1 28.21,-25.78 42.55,-38.4 23.83,-21.81 51.62,-41.11 83.81,-47.6zm756.34 -59.28c21.73,31.07 26.98,70.86 23.96,107.92 -0.94,17.62 -8.91,34.91 -22.47,46.32 -22.02,18.4 -51.66,24.04 -79.6,24.81 15.01,-21.68 31.71,-42.94 40.65,-68.04 5.78,11.42 7.23,24.87 4.18,37.31 15.73,-9.8 24.33,-27.31 29.09,-44.63 9.25,-33.75 7.57,-69.22 4.19,-103.69zm-605.59 -222.48l34.76 0c80.96,3.87 158.24,35.78 224.71,80.95 76.95,-9.23 156.16,-3.06 230.12,20.43 16.72,5.44 33.11,11.85 49.04,19.28 -2.15,-7.77 -4.4,-15.49 -6.53,-23.24 55.51,19.6 106.36,56.89 135.73,108.6 16.06,27.91 24,59.76 26.29,91.7 5.41,-5.68 9.96,-12.47 11.47,-20.3 3.47,-14.66 -0.51,-29.6 -4.57,-43.68 19.78,16.85 37.79,36.9 47.83,61.17 7.17,17.09 7.96,37.66 -1.56,54.02 -11.23,20.09 -31.83,32.45 -52.08,41.98 -10.64,5.24 -22.15,8.38 -33.06,12.89 -7.94,11.86 -18.03,22.45 -31.11,28.68 3.91,12.07 4.79,25.22 1.3,37.5 -4,14.72 -13.09,27.53 -24.07,37.91 -14.61,14.74 -29.57,31.43 -33.12,52.62 -2.62,10.59 -3.3,22.85 -11.9,30.68 -10.55,10.15 -26.11,11.46 -40.02,11.29 -2.96,10.26 -10.74,18.5 -20.55,22.54 -18.58,7.91 -39.47,6.68 -59.07,4.17 3.85,11.38 3.2,24.55 -4.19,34.4 -12.98,17.66 -34.83,25.15 -55.15,30.68 40.75,-5.1 81.32,-11.79 122,-17.53 64.45,-9.43 128.9,-18.91 193.34,-28.34 -22.19,23.61 -45.1,46.57 -67.46,70.02 22.38,5.3 34.15,27.23 53.74,37.45 20.21,11.66 44.23,12.15 66.89,11.89 19.02,12.02 34.6,29.06 47.66,47.26 18.6,26.3 29.77,57.72 31.94,89.85l0 16.49c-21.32,-11.98 -42.96,-23.37 -64.41,-35.11 13.16,16.72 26.32,33.43 39.33,50.28 -46.98,19.89 -100.37,18.21 -149.05,5.78 -8.96,42.11 -17.74,84.26 -26.66,126.39 -320.91,39.4 -641.83,78.55 -962.72,118.1l-6.98 0c49.68,-31.34 99.09,-63.1 148.7,-94.57 -259.42,30.23 -518.81,60.59 -778.21,90.89l0 -0.79c26.28,-25.1 52.41,-50.36 78.74,-75.4 4.79,-4.13 4.56,-10.96 6.07,-16.6 16.72,-79.42 33.55,-158.8 50.36,-238.19 -20.83,-19.02 -41.72,-37.98 -62.55,-56.98 38.32,-5.91 76.66,-11.83 115,-17.68 -29.28,-16.06 -56.39,-38.31 -72.51,-68.04 -12.28,-22.53 -15.36,-49.7 -8.56,-74.44 8.36,-30.84 28.34,-57.32 51.77,-78.49 18.38,-16.39 39.13,-30.37 61.89,-39.94 12.07,-5.24 25.56,-6.87 37.02,-13.64 7.49,-4.3 14.71,-10.57 16.83,-19.28 2.24,-8.23 -0.97,-16.83 -5.72,-23.53 -7.08,-10.55 -19.76,-15.98 -25.7,-27.44 -7.79,-13.81 -6.32,-30.36 -3,-45.24 14.43,6.96 29.42,13.22 45.34,15.81 -20.09,-13.93 -37.92,-34.59 -39.92,-59.91 -2.38,-26.68 12.22,-51.15 29.18,-70.47 4.7,32.64 16.57,66.06 41.38,88.87 13.62,12.81 31.57,19.81 49.79,22.83 10.76,7.59 19,18.57 25.4,30 8.96,16.02 10.26,36.64 1.26,52.94 -11.22,21.04 -31.92,34.78 -52.33,45.87 -20.97,11.34 -42.27,22.04 -63.78,32.36 -27.51,13.98 -56.13,26.7 -80.32,46.19 -15.79,12.51 -28.32,29.92 -32.38,49.9 -4.01,19.97 -2.62,42.15 8.81,59.57 11.44,17.92 31.95,28.08 52.42,31.62 13.91,2.15 29.19,2.93 41.87,-4.2 0.73,-14.53 3.34,-28.91 6.66,-43.06 13.34,-56.85 41.64,-110.79 83.92,-151.45 15.08,-15.29 33.02,-27.27 49.38,-41.08 38.79,-32.13 75.87,-67.43 103.51,-109.89 8.4,-12.54 14.34,-26.62 23.51,-38.66 16.9,-23.03 35.3,-44.96 54.94,-65.7 18.27,-18.71 37.29,-37.35 60.42,-50 -13.61,-3.5 -27.15,-7.28 -40.72,-10.92 17.36,-24.58 37.49,-47.04 58.44,-68.58 40.47,-40.46 86.05,-76.21 136.84,-102.8 50.72,-26.81 106.97,-43.58 164.36,-46.68zm-146.11 93.1c-48.87,25.83 -94.45,58.06 -134.79,95.88 16.69,6.53 32.7,14.63 48.51,23.04 -15.53,6.98 -29,17.55 -42.31,27.98 -38.37,31.14 -73.32,66.42 -104.9,104.38 -21.3,25.98 -41.08,53.44 -56.53,83.34 -11.38,22.15 -25.13,43.3 -42.43,61.32 -17.63,18.46 -39.65,33.96 -65.1,38.85 -25,16.45 -46.21,38.43 -63.72,62.64 -36.51,51.57 -54.77,115.3 -54.07,178.27 17.45,1.64 35.72,5.49 49.45,17.11 10.1,8.25 15.32,21.23 15.44,34.11 90.34,-12.66 180.68,-25.26 271.03,-37.75 -0.54,-29.53 -10.51,-59 -29.34,-81.91 -24.77,-30.51 -61.09,-49.64 -98.6,-59.62 29.26,-8.58 61.51,-4.34 88.42,9.62 8.33,4.78 15.79,11.1 24.79,14.68 24.64,11.02 53.47,9.27 78,-1.13 17.02,-6.47 31.11,-18.6 48.09,-25.19 31.51,-13.23 68.38,-13.55 99.85,0 -36.02,28.64 -70.71,59.4 -100.05,94.94 74.5,-30.49 154.73,-48.94 235.52,-47.35 37.85,0.58 76,5.15 112.12,16.85 -11.85,9.83 -23.91,19.41 -35.81,29.17 71.94,-18.95 146.37,-25.99 220.49,-29.34 -13.27,-4.48 -26.91,-7.76 -40.76,-9.87 -38.58,-5.98 -77.79,-6.47 -116.73,-4.87 6.92,-5.83 13.92,-11.57 20.69,-17.59 -33.32,-15.22 -70.24,-19.79 -106.43,-22.22 31.75,-32.76 72.72,-56.96 117.25,-67.32 -5.19,-41.87 -23.06,-82.15 -51.06,-113.74 48.02,18.72 86.22,58.12 108.41,104.1 27.06,-29.83 69.02,-40.44 108.02,-40.46 -32.81,8.74 -62.51,31.08 -76.9,62.23 -1.78,5.4 -7.78,6.77 -12.38,8.85 -23.96,8.89 -49.91,11.39 -75.3,9.77 -23,-1.19 -47.87,4.4 -64.4,21.42 22.25,-2.81 45.23,-4.57 67.13,1.43 8.53,2.15 16.02,7.1 24.49,9.47 19,5.59 39.14,5.02 58.66,3.17 -21.2,10.91 -45.11,14.44 -68.54,17.02 24.83,7.53 51.07,9.27 76.88,8.17 29.76,-1.66 59.87,-6.77 87.06,-19.4 8.55,-4.5 18.59,-9.67 21.83,-19.45 2.36,-10.53 -8.23,-17.21 -16.72,-20.13 -22.18,-7.58 -46.03,-8.32 -69.26,-8.4 14.55,-22.86 35.6,-43.15 62.25,-50.66 4.69,7.68 10.15,15.15 17.66,20.36 14.56,10.68 33.77,12.87 51.2,9.78 -15.9,-5.72 -32.22,-15.68 -37.87,-32.55 -6.17,-16.1 3.82,-37.93 21.89,-40.02 15.87,-1.19 31.61,5.91 43.74,15.77 6.83,7.87 15.87,14 26.15,16.21 16.17,0.94 32.96,-1.06 48.4,5 -1.34,-16.6 12.11,-29.11 23.13,-39.57 20.36,-16.56 32.7,-42.43 32.09,-68.75 -7.19,1.75 -14.32,3.7 -21.47,5.57 -1.38,18.6 -13.42,35.11 -28.98,44.75 -12.7,7.66 -20.89,20.44 -29.04,32.42 -2.4,-20.1 5.87,-39.74 16.7,-56.21 7.38,-11.61 5.66,-26.17 3.96,-39.11 28.28,0.99 57.91,-4.02 81.7,-20.18 21.66,-14.39 35.83,-38.37 40.32,-63.79 5.93,-32.92 1.08,-67.28 -10.87,-98.36 -13.64,-34.71 -39.24,-65.49 -73.11,-81.88 -0.11,7.75 -0.09,15.51 -0.09,23.26 -55.61,-40.87 -123.7,-61.49 -191.72,-68.7 -84.14,-8.58 -169.59,0.1 -251.36,21.02 19.96,-23.38 44.41,-42.39 69.9,-59.32 -53.28,-29.56 -115.01,-43.17 -175.79,-39.21 -61.3,3.76 -120.64,23.76 -174.79,52.1zm868.34 187.75c0.62,13.72 -2.42,28.29 -11.7,38.83 -7.9,9.21 -19.94,13.49 -31.73,14.66 -2.06,11.42 -4.38,22.81 -7.78,33.91 20.96,-6.85 42.46,-18.51 53.02,-38.76 8.06,-15.26 5.21,-33.58 -1.81,-48.64zm-288.11 254.83c-7.15,4.53 -7.98,13.68 -8.78,21.32 4.13,-7.09 11.44,-13.49 20.29,-11.54 14.37,2.75 26.69,12.39 35.9,23.41 17.7,-2.22 35.53,-1.37 53.25,0.06 -3.12,-4.78 -8.55,-7.23 -13.8,-8.78 -10.83,-3.2 -22.3,-3.03 -33.41,-1.79 -7.6,-11.24 -20.59,-16.81 -32.72,-21.71 -6.49,-2.55 -14.36,-5.08 -20.73,-0.97zm-80.97 45.44c6.42,2.94 12.82,5.94 19.12,9.11 -8.44,-1.23 -16.83,-2.58 -25.23,-4.02 -3.47,2.61 -6.87,5.3 -10.23,8.02 23.29,0.62 47.08,2.34 68.82,11.49 -13.48,-11.34 -27.7,-21.79 -42.89,-30.7 -3.21,2.02 -6.4,4.06 -9.59,6.1zm154.38 130.66c4.42,5.3 8.89,10.58 13.53,15.72 -15.77,73.83 -31.45,147.69 -47.7,221.41 -6.47,7.66 -14.55,13.83 -21.54,21.02 55.5,-6.64 111.03,-13.26 166.54,-20.15 5.04,-24.96 10.38,-49.87 15.59,-74.81 -8.68,0.77 -17.34,1.45 -26,2.32 -10.57,30.05 -38.97,52.3 -70.65,55.51 15,-70.64 29.99,-141.31 45.02,-211.93 0.46,-2.66 2.72,-4.36 4.42,-6.22 5.81,-5.74 11.62,-11.46 17.28,-17.33 -32.19,4.65 -64.3,9.78 -96.49,14.46zm-172.11 23.38c4.53,5.24 9,10.54 13.55,15.79 -15.46,71.79 -31.19,143.51 -46.66,215.3 -0.55,2.23 -1.06,4.68 -3.02,6.13 -6.83,6.27 -13.93,12.23 -20.59,18.66 55.49,-6.64 110.98,-13.37 166.45,-20.09 5.34,-25.02 11.14,-49.93 16.68,-74.91 -8.69,1.12 -17.37,2.25 -26.05,3.47 -10.68,29.78 -39.29,51.12 -70.55,54.44 14.85,-69.66 29.87,-139.3 44.81,-208.95 0.21,-2.84 2.47,-4.66 4.38,-6.47 6.04,-5.54 11.96,-11.2 17.87,-16.88 -32.31,4.47 -64.59,9 -96.87,13.51zm-172.4 24.28l-1.09 -1.95c-0.08,0.61 -0.23,1.82 -0.3,2.42 4,5.47 8.81,10.32 13.05,15.62 -15.56,72.02 -31.05,144.04 -46.55,216.06 -7.32,6.85 -14.47,13.89 -21.92,20.58 54.06,-6.62 108.11,-13.33 162.15,-20.09 5.77,-25.21 13,-50.09 20.23,-74.91 -8.76,0.89 -17.49,2.04 -26.21,3.23 -4.43,7.26 -6.19,15.89 -11.43,22.68 -5.12,6.83 -11.66,12.43 -18.38,17.6 -12.11,8.97 -27.02,12.97 -41.68,15.36 5.85,-26.98 11.79,-53.94 17.73,-80.9 6.95,0.02 14.59,-0.04 20.36,4.45 5.27,3.58 7.1,9.98 8.34,15.91 3.34,-0.78 6.68,-1.55 10.06,-2.27 6.98,-32 14.38,-63.92 21.04,-96 -3.87,0.42 -7.72,0.81 -11.57,1.3 -7.98,20.4 -19.58,44.19 -42.66,50.13 6.45,-31.43 13.29,-62.81 19.87,-94.22 14.3,-2.28 31.83,-4.36 42.57,7.75 7.26,6.25 5.22,16.29 3.62,24.53 9.02,-1.17 18.04,-2.28 27.07,-3.4 4.87,-22.01 9.8,-44.03 14.53,-66.07 -52.94,7.45 -105.92,14.57 -158.83,22.19zm455.95 -14.51c-4.14,19.75 -8.27,39.51 -12.31,59.28 25.23,9.4 44.85,29.51 57.95,52.57 11.03,-7.49 22.54,-14.38 34.96,-19.32 -7.6,-16.85 -22.15,-28.76 -32.17,-43.95 17.13,3.49 35.7,8.93 52.41,0.68 -17.51,-0.66 -35.37,-4.49 -50,-14.54 -10.6,-6.8 -18.39,-16.85 -27.79,-25.04 -6.45,-5.64 -14.87,-7.98 -23.05,-9.68zm-516.34 23.47c-11.83,52.77 -23.55,105.55 -35.19,158.36 -12.36,-49.32 -23.61,-98.94 -35.44,-148.38 -23.87,3.3 -47.71,6.66 -71.56,10.02 -6.85,36.55 -15.23,72.79 -22.76,109.23 -9.85,46.28 -19.68,92.56 -29.53,138.85 18.87,-2.06 37.66,-4.55 56.51,-6.66 -5.6,-5.36 -11.32,-10.57 -16.92,-15.91 11.58,-53.62 23.47,-107.19 35.17,-160.79 14.68,56.34 29.53,112.64 44.09,169 19.04,-2.28 38.08,-4.49 57.12,-6.68 16.6,-77.4 33,-154.83 49.58,-232.21 0.38,-2.57 2.74,-4 4.45,-5.64 6.59,-5.62 13.27,-11.09 19.63,-16.94 -18.4,2.41 -36.76,5.26 -55.15,7.75zm-250.08 34.51c4.79,4.85 9.62,9.66 14.45,14.49 -23.28,30.79 -46.81,61.38 -70.09,92.17 6.36,-27.57 11.96,-55.36 18.81,-82.79 6.89,-7.72 15.13,-14.13 22.15,-21.76 -31.02,3.97 -62,8.23 -93,12.25 2.89,5.66 5.89,11.26 8.92,16.87 -14.96,69.07 -29.98,138.17 -45.2,207.19 -6.17,8.73 -15.61,14.98 -22.81,22.96 32.96,-3.95 65.88,-8.19 98.83,-12.29 -4.78,-5.43 -9.83,-10.62 -14.68,-16.01 5.36,-24.29 10.09,-48.7 15.43,-73 10.32,22.51 20.28,45.15 30.66,67.62 -6.06,6.38 -12.21,12.68 -18.02,19.3 33.7,-4.11 67.4,-8.23 101.1,-12.38 -5.38,-6.7 -12.04,-12.47 -16.25,-20.03 -16.92,-35.42 -33.45,-71.02 -50.62,-106.33 23.49,-29.9 47.62,-59.32 71.38,-89.01 8.71,-11.76 20.79,-20.31 31.17,-30.48 -27.46,3.38 -54.82,7.48 -82.23,11.23zm-590.4 5.25c-20.24,2.81 -40.56,5.15 -60.77,8.28 4.66,6.28 10.02,12 15.06,17.98 -19.63,90.96 -38.89,182.04 -58.44,273.02 -0.3,2.26 -2.3,3.58 -3.75,5.15 -6.44,6.06 -12.93,12.04 -19.15,18.32 15.39,-1.55 30.77,-3.49 46.17,-5.13 25.86,-3.08 52.19,-4.85 77.15,-12.83 23.11,-7.3 45.13,-20.76 58.71,-41.27 15.38,-21.69 25.08,-48.75 20.89,-75.54 -2.15,-15.61 -11.4,-31.08 -26.75,-36.64 13.9,-8.66 27.15,-20.1 33.52,-35.57 8.7,-19.42 15.42,-39.79 19.19,-60.74 1.95,-13.81 2.53,-28.41 -2.26,-41.71 -3.79,-10.4 -15.32,-14.64 -25.25,-16.85 -24.69,-4.61 -49.73,0.53 -74.32,3.53zm1461.83 6.49c23.04,32.17 58.53,52.05 92.34,71.01 -30.6,-23.84 -57.92,-52.41 -92.34,-71.01zm-1030.64 17.92c-15.02,-9.4 -33.96,-6.51 -49.66,-0.47 -24.34,10.06 -44,28.7 -60.15,49.06 -25.24,32.52 -43.28,71.69 -46.45,113.09 -1.21,17.79 -1.06,36.55 6.88,52.94 7.72,14.83 22.57,25.53 38.93,28.74 20.75,3.57 42.87,-1.64 59.38,-14.93 10,1.44 19.96,3.02 29.96,4.38 5.81,-27.22 12.06,-54.36 17.75,-81.6 -9,1.13 -18,2.28 -27.02,3.36 -6.2,16.54 -14.01,32.87 -25.2,46.68 -8.04,9.9 -20.59,17.05 -33.64,15.52 -6.57,-0.88 -9.95,-7.71 -10.19,-13.71 -1.64,-22.25 4.2,-44.02 8.54,-65.63 4.25,-22.56 9.51,-44.94 15.59,-67.09 4.11,-13.45 8.64,-27.68 19.21,-37.57 7.09,-6.83 16.68,-12.68 26.9,-11.11 7.57,1.19 11,9.21 12.95,15.72 3.09,13.04 3.13,26.75 1.43,40 10.89,-1.49 21.75,-2.95 32.62,-4.53 6.12,-28.36 12.64,-56.62 18.89,-84.96 -12.3,3.86 -24.45,8.13 -36.72,12.11zm-200.7 21.4c5.57,5.34 11.19,10.62 16.87,15.85 -9.83,45.39 -19.81,90.79 -29.7,136.18 -3.52,14.36 -5.09,29.48 -11.96,42.78 -4.68,9.15 -13.74,15.47 -23.64,17.79 -9.21,2 -19.13,3.68 -28.24,0.49 -5.53,-2.11 -7.5,-8.62 -7.1,-14.04 1.19,-14.88 5.45,-29.26 8.36,-43.85 9.51,-43.75 19.09,-87.5 28.43,-131.3 7.13,-6.98 14.42,-13.83 21.7,-20.66 -32.66,4.21 -65.24,9.06 -97.91,13.32 4.7,5.44 9.65,10.66 14.61,15.87 -11.08,52.45 -22.36,104.89 -33.4,157.36 -2.32,12.19 -4.73,25.55 0.74,37.28 5.07,11.25 17.55,16.7 29.07,18.59 24.83,3.26 50.23,0 73.98,-7.7 18.02,-6.36 34.63,-18.17 44.42,-34.83 8.74,-14.81 11.6,-32.04 15.21,-48.6 10.47,-48.1 21,-96.17 31.6,-144.23 7.96,-7.15 15.94,-14.25 23.74,-21.57 -25.61,3.72 -51.19,7.49 -76.78,11.27zm1038.48 135.38c-2.76,14.01 -5.89,27.96 -8.74,41.96 -18.85,-11.32 -37.55,-22.87 -56.4,-34.19 -10.17,1.28 -20.39,1.96 -30.49,3.71 -4.52,23.42 -9.62,46.7 -14.3,70.08 10.81,-0.92 21.59,-2.38 32.44,-3.07 3.49,-13.99 6,-28.18 9.17,-42.23 18.69,11.53 37.56,22.77 56.26,34.3 10.04,-1.53 20.09,-3.09 30.17,-4.4 4.43,-18.85 8.23,-37.83 12.4,-56.71 7.52,-5.44 15.24,-10.61 22.73,-16.1 -17.77,2 -35.47,4.57 -53.24,6.65zm-161.95 19.6c-28.05,3.53 -56.15,6.73 -84.17,10.51 -9.71,1.58 -21.58,4.96 -24.98,15.41 -3.22,13.47 -5.9,27.08 -8.71,40.63 -0.97,4.49 -1.5,11.05 3.84,12.98 7.23,2.28 14.99,0.9 22.4,0.39 29.04,-3.47 58.08,-7.11 87.13,-10.68 8.53,-1.26 17.57,-2.86 24.49,-8.41 5.47,-4.53 6,-12.04 7.51,-18.47 2.08,-11.51 5.38,-22.78 6.83,-34.38 0.76,-3.85 -1.47,-8.04 -5.45,-8.85 -9.49,-2.34 -19.32,0.11 -28.89,0.87zm-159.28 19.64c-21.98,2.7 -43.93,5.55 -65.91,8.21 -8.34,1.04 -16.85,1.81 -24.69,4.96 -5.08,2 -9.82,5.92 -11.23,11.4 -2.34,8.26 -5.51,17.34 -1.77,25.71 8.88,3.29 18.43,1.7 27.6,0.81 21.36,-2.51 42.72,-5.05 64.08,-7.62 -0.72,3.15 -1.42,6.32 -2.1,9.49 -22.41,3.02 -44.83,5.96 -67.23,9.06 -11.01,1.9 -22.15,-0.44 -33.22,0.09 -0.36,4.64 -2.64,9.93 -0.06,14.29 5.17,5.39 13.51,4.01 20.25,3.64 27.9,-3.87 55.88,-7.19 83.79,-10.98 9.73,-1.51 21.11,-4.87 25.43,-14.7 2.32,-6.66 3.85,-13.74 4.1,-20.78 -0.96,-8.24 -10.85,-9.03 -17.34,-8.32 -25.47,2.36 -50.83,5.95 -76.27,8.72 0.76,-3.21 1.51,-6.4 2.34,-9.58 22.25,-2.49 44.42,-5.82 66.65,-8.4 9.28,-0.26 18.49,1.45 27.75,1.89 0.41,-4.91 3.15,-10.97 -1.08,-14.98 -5.92,-4.68 -14.13,-3.1 -21.09,-2.91zm-163.94 19.6c-4.91,23.49 -9.57,47.02 -14.63,70.48 11.32,-0.97 22.61,-2.27 33.93,-3.27 4.83,-23.89 9.83,-47.73 14.51,-71.64 -11.29,1.41 -22.53,3 -33.81,4.43zm-59.95 6.96c-38.34,4.82 -76.73,9.29 -115.05,14.25 5,4.02 10.66,7.08 16.17,10.4 -4.25,19.22 -8.1,38.55 -12.36,57.75 31.24,-3.26 62.49,-6.71 93.73,-10.09 10.74,-1.4 21.91,-3.19 31.17,-9.15 8.1,-5.06 7.76,-15.72 10.02,-23.95 2.12,-4.96 -2.66,-8.45 -6.45,-10.45 3.68,-2.11 8.32,-4.04 9.58,-8.51 2.27,-5.89 4.53,-14.36 -1.58,-18.72 -7.94,-3.32 -16.89,-2.22 -25.23,-1.53zm270.25 -851.9c27.53,-21.66 62,-34.51 97.04,-35.76 40.6,-1.32 81.41,11.57 114.47,35.04 -34.1,-5.43 -69.85,-6.9 -103.13,3.64 -17.8,5.7 -35.46,16.93 -42.53,34.99 -4.91,11.24 -2.12,24.33 4.34,34.35 9.3,14.4 23.37,24.85 37.86,33.59 -7.09,14.11 -18.13,26.73 -32.54,33.64 -15,7.21 -32.55,7.34 -48.44,3.26 -30.03,-8.18 -64.18,-7.35 -90.94,10.02 12.38,0.47 25.26,0.53 36.81,5.61 6.06,2.41 9.59,8.17 14.36,12.28 9.04,7.85 20.11,12.72 30.98,17.49 -30.53,4.32 -64.66,2.47 -90.23,-16.57 -18.66,-13.71 -27.07,-37.01 -28.69,-59.39 11.84,9.37 28.17,11 42.32,6.53 10.13,-3.4 20.85,-4.08 31.45,-4.57 -12.28,-13.13 -17.06,-32.11 -13.94,-49.64 3.98,-26.06 20.77,-48.25 40.81,-64.51zm58.15 -10.3c-25.93,7.77 -51.3,23.54 -63.61,48.47 -9.26,19.38 -9.99,43.34 -0.35,62.7 8.85,17.51 30.58,24.68 49.04,20.98 5.41,-1.42 7.86,-8.17 5.31,-13 -6.35,-14.38 -24.01,-18.59 -31.09,-32.36 -6.9,-12.91 -5.47,-28.74 0.28,-41.79 8.08,-19.06 24.02,-33.12 40.42,-45zm59.06 215.05c4.13,7.78 13.56,9.14 21.39,10.48 -5.58,-3.53 -12.85,-7.44 -13.24,-14.87 -0.63,-2.95 2.9,-4.12 4.3,-6.12 -2.94,-4.75 -5.55,-9.71 -7.89,-14.81 -3.81,7.66 -8.39,16.79 -4.56,25.32z"/>
   <path class="fil2" d="M1053.62 1261.75c8.34,-0.69 17.29,-1.79 25.23,1.53 6.11,4.36 3.85,12.83 1.58,18.72 -1.26,4.47 -5.9,6.4 -9.58,8.51 3.79,2 8.57,5.49 6.45,10.45 -2.26,8.23 -1.92,18.89 -10.02,23.95 -9.26,5.96 -20.43,7.75 -31.17,9.15 -31.24,3.38 -62.49,6.83 -93.73,10.09 4.26,-19.2 8.11,-38.53 12.36,-57.75 -5.51,-3.32 -11.17,-6.38 -16.17,-10.4 38.32,-4.96 76.71,-9.43 115.05,-14.25zm59.95 -6.96c11.28,-1.43 22.52,-3.02 33.81,-4.43 -4.68,23.91 -9.68,47.75 -14.51,71.64 -11.32,1 -22.61,2.3 -33.93,3.27 5.06,-23.46 9.72,-46.99 14.63,-70.48zm163.94 -19.6c6.96,-0.19 15.17,-1.77 21.09,2.91 4.23,4.01 1.49,10.07 1.08,14.98 -9.26,-0.44 -18.47,-2.15 -27.75,-1.89 -22.23,2.58 -44.4,5.91 -66.65,8.4 -0.83,3.18 -1.58,6.37 -2.34,9.58 25.44,-2.77 50.8,-6.36 76.27,-8.72 6.49,-0.71 16.38,0.08 17.34,8.32 -0.25,7.04 -1.78,14.12 -4.1,20.78 -4.32,9.83 -15.7,13.19 -25.43,14.7 -27.91,3.79 -55.89,7.11 -83.79,10.98 -6.74,0.37 -15.08,1.75 -20.25,-3.64 -2.58,-4.36 -0.3,-9.65 0.06,-14.29 11.07,-0.53 22.21,1.81 33.22,-0.09 22.4,-3.1 44.82,-6.04 67.23,-9.06 0.68,-3.17 1.38,-6.34 2.1,-9.49 -21.36,2.57 -42.72,5.11 -64.08,7.62 -9.17,0.89 -18.72,2.48 -27.6,-0.81 -3.74,-8.37 -0.57,-17.45 1.77,-25.71 1.41,-5.48 6.15,-9.4 11.23,-11.4 7.84,-3.15 16.35,-3.92 24.69,-4.96 21.98,-2.66 43.93,-5.51 65.91,-8.21zm321.23 -39.24c17.77,-2.08 35.47,-4.65 53.24,-6.65 -7.49,5.49 -15.21,10.66 -22.73,16.1 -4.17,18.88 -7.97,37.86 -12.4,56.71 -10.08,1.31 -20.13,2.87 -30.17,4.4 -18.7,-11.53 -37.57,-22.77 -56.26,-34.3 -3.17,14.05 -5.68,28.24 -9.17,42.23 -10.85,0.69 -21.63,2.15 -32.44,3.07 4.68,-23.38 9.78,-46.66 14.3,-70.08 10.1,-1.75 20.32,-2.43 30.49,-3.71 18.85,11.32 37.55,22.87 56.4,34.19 2.85,-14 5.98,-27.95 8.74,-41.96zm-1238.01 -19.97c4.91,-2.77 10.08,2.32 13.06,5.87 10.23,15.15 8.87,34.94 4.62,51.92 -5.26,21.12 -13.98,42.06 -28.75,58.34 -5,4.76 -10.53,11 -18.09,10.44 14.07,-13.6 20.83,-32.44 26.62,-50.68 6.02,-20.06 10.24,-41.11 8.39,-62.13 -0.2,-5.21 -2.58,-9.83 -5.85,-13.76zm963.04 -16.51c0.74,0.42 2.25,1.23 3,1.64 -1.71,11.29 -7.01,22.74 -17.17,28.76 -13.84,8.38 -31.03,6.55 -46.17,3.43 1.27,-4.64 6.91,-3.3 10.51,-4.39 19.36,-3.04 39.98,-11.36 49.83,-29.44zm185.53 -20.79c1.76,-1.81 2.83,-5.47 6.25,-4.15 -1.79,11.34 -7.21,22.72 -17.19,29.02 -14.08,8.98 -32.11,8 -47.62,3.75 2.69,-3.71 7.69,-2.94 11.66,-3.85 17.64,-2.68 36.37,-9.51 46.9,-24.77zm166.04 -24.6c3.36,-3.21 4.55,-9.51 9.89,-9.87 -1.19,15.77 -10.04,31.19 -24.29,38.56 -15.39,7.93 -33.58,7.98 -50.22,4.74 0.73,-2.43 2.96,-3.26 5.28,-3.6 21.85,-4.25 44.36,-12.65 59.34,-29.83zm-1244.51 124.36c10.38,-50.16 20.42,-100.38 31.02,-150.5 4.41,-0.39 8.85,-0.83 13.26,-1.24 -11.56,57.55 -23.66,115.02 -35.3,172.57 -2.38,11.18 -1.3,24.28 6.89,32.94 2.7,3.13 7.98,4.38 8.36,9.09 -11.82,-1.58 -22.66,-9.68 -26.29,-21.2 -5.05,-13.67 -0.79,-28.06 2.06,-41.66zm154.11 -167.06c4.51,-0.45 9.02,-0.93 13.53,-1.38 -11.64,56.09 -23.13,112.21 -34.83,168.3 -6.3,22.55 -23.98,43.04 -47.32,48.55 0.66,-2.79 2.68,-4.62 5.06,-5.96 15.54,-9.51 25.64,-26.34 29.15,-44 11.47,-55.17 22.96,-110.34 34.41,-165.51zm106 -9.72c1.3,-1.72 6.44,-3.21 4.85,0.55 -17.9,17.24 -31.24,38.68 -41.41,61.26 -12.87,28.47 -21.48,59.23 -22.32,90.59 -0.21,14.9 1.68,30.45 9.32,43.54 2.02,3.78 5.73,6.97 5.7,11.59 -12.19,-6.62 -24.38,-16.53 -27.53,-30.72 -7.97,-30.56 -2.91,-63.34 8.71,-92.32 13.61,-32.62 34.64,-62.7 62.68,-84.49zm139.44 -23.41c4.51,-1.04 9.03,-2.06 13.58,-3.08 -14.71,70.47 -29.38,140.96 -44.13,211.43 -4.49,0.51 -9,1.04 -13.49,1.57 14.62,-69.98 29.26,-139.96 44.04,-209.92zm-537.53 -1.23c4.53,-0.49 9.06,-0.96 13.58,-1.38 -19.52,92.53 -38.92,185.08 -58.49,277.61 -4.49,0.49 -8.98,1 -13.49,1.54 19.38,-92.62 39.06,-185.17 58.4,-277.77zm95.96 -12.96c6.83,-0.89 11.96,5.51 14.98,10.85 6.51,13.47 6.47,29.18 4,43.68 -3.96,20.81 -11.02,41.17 -21.56,59.58 -6.42,10.7 -13.91,21.74 -25.4,27.47 -1.64,1.4 -3.42,0.13 -4.79,-0.81 6.83,-5.55 11.66,-13.02 15.32,-20.9 10.79,-23.21 17.15,-48.21 21.58,-73.33 1.7,-11.66 3.44,-23.67 1.08,-35.37 -0.83,-4.12 -3.89,-7.27 -5.21,-11.17zm557.34 -2.61c5,-0.58 10.02,-1.17 15.04,-1.77 -31.36,40.06 -62.74,80.09 -94.06,120.17 14.93,31.13 30.06,62.17 44.89,93.36 -4.13,0.43 -8.25,0.92 -12.36,1.39 -15.81,-31.26 -31.04,-62.81 -46.64,-94.17 31.09,-39.62 62.15,-79.26 93.13,-118.98zm111.66 -6.96c0.79,0.06 2.38,0.17 3.19,0.21 17.23,64.68 34.43,129.36 51.59,194.04 -4.12,0.51 -8.23,1.02 -12.33,1.54 -15.34,-56.88 -30.77,-113.75 -46.22,-170.62 -1.4,-8.51 2.68,-16.79 3.77,-25.17zm-25.41 -4.07c4.49,-0.55 9,-1.08 13.51,-1.59 -14.89,71.85 -30.06,143.64 -45.04,215.47 -4.57,0.98 -9.12,2 -13.66,3.04 15.11,-72.3 30.15,-144.6 45.19,-216.92zm144.62 -20.23c4.41,-0.36 8.81,-0.79 13.26,-1.15 -15.34,72.15 -30.81,144.28 -46.19,216.43 -4.15,0.55 -8.32,1.08 -12.45,1.64 15.17,-72.3 29.89,-144.69 45.38,-216.92zm75.24 -10.76c4.14,-0.6 8.27,-1.16 12.44,-1.75 -14.98,72.66 -30.06,145.28 -45.13,217.92 -4.55,0.46 -9.1,0.95 -13.61,1.46 15.57,-72.51 30.87,-145.08 46.3,-217.63zm57.7 -10.9c13.85,-4.66 30.12,-9.91 43.96,-2.66 9.93,5.64 9.63,18.47 8.17,28.32 -5.3,-1.26 -4.26,-8.17 -7.83,-11.4 -8.84,-9.64 -22.96,-11.47 -35.35,-11.54 -3.06,-0.53 -7.61,1.32 -8.95,-2.72zm115.51 -13.62c4.53,-0.57 9.08,-1.1 13.63,-1.63 -16.23,76.31 -32.31,152.64 -48.53,228.95 -4.49,0.47 -8.97,0.94 -13.44,1.37 16,-76.26 32.3,-152.45 48.34,-228.69zm261.12 -3.38c8.18,1.7 16.6,4.04 23.05,9.68 9.4,8.19 17.19,18.24 27.79,25.04 14.63,10.05 32.49,13.88 50,14.54 -16.71,8.25 -35.28,2.81 -52.41,-0.68 10.02,15.19 24.57,27.1 32.17,43.95 -12.42,4.94 -23.93,11.83 -34.96,19.32 -13.1,-23.06 -32.72,-43.17 -57.95,-52.57 4.04,-19.77 8.17,-39.53 12.31,-59.28zm-88.91 -20.02c4.11,-0.49 8.23,-1 12.38,-1.47 -15.42,76.26 -30.85,152.55 -46.23,228.83 -4.51,0.49 -9.02,1 -13.49,1.51 15.68,-76.3 31.45,-152.59 47.34,-228.87zm-676.17 -631.81c54.15,-28.34 113.49,-48.34 174.79,-52.1 60.78,-3.96 122.51,9.65 175.79,39.21 -25.49,16.93 -49.94,35.94 -69.9,59.32 81.77,-20.92 167.22,-29.6 251.36,-21.02 68.02,7.21 136.11,27.83 191.72,68.7 0,-7.75 -0.02,-15.51 0.09,-23.26 33.87,16.39 59.47,47.17 73.11,81.88 11.95,31.08 16.8,65.44 10.87,98.36 -4.49,25.42 -18.66,49.4 -40.32,63.79 -23.79,16.16 -53.42,21.17 -81.7,20.18 1.7,12.94 3.42,27.5 -3.96,39.11 -10.83,16.47 -19.1,36.11 -16.7,56.21 8.15,-11.98 16.34,-24.76 29.04,-32.42 15.56,-9.64 27.6,-26.15 28.98,-44.75 7.15,-1.87 14.28,-3.82 21.47,-5.57 0.61,26.32 -11.73,52.19 -32.09,68.75 -11.02,10.46 -24.47,22.97 -23.13,39.57 -15.44,-6.06 -32.23,-4.06 -48.4,-5 -10.28,-2.21 -19.32,-8.34 -26.15,-16.21 -12.13,-9.86 -27.87,-16.96 -43.74,-15.77 -18.07,2.09 -28.06,23.92 -21.89,40.02 5.65,16.87 21.97,26.83 37.87,32.55 -17.43,3.09 -36.64,0.9 -51.2,-9.78 -7.51,-5.21 -12.97,-12.68 -17.66,-20.36 -26.65,7.51 -47.7,27.8 -62.25,50.66 23.23,0.08 47.08,0.82 69.26,8.4 8.49,2.92 19.08,9.6 16.72,20.13 -3.24,9.78 -13.28,14.95 -21.83,19.45 -27.19,12.63 -57.3,17.74 -87.06,19.4 -25.81,1.1 -52.05,-0.64 -76.88,-8.17 23.43,-2.58 47.34,-6.11 68.54,-17.02 -19.52,1.85 -39.66,2.42 -58.66,-3.17 -8.47,-2.37 -15.96,-7.32 -24.49,-9.47 -21.9,-6 -44.88,-4.24 -67.13,-1.43 16.53,-17.02 41.4,-22.61 64.4,-21.42 25.39,1.62 51.34,-0.88 75.3,-9.77 4.6,-2.08 10.6,-3.45 12.38,-8.85 14.39,-31.15 44.09,-53.49 76.9,-62.23 -39,0.02 -80.96,10.63 -108.02,40.46 -22.19,-45.98 -60.39,-85.38 -108.41,-104.1 28,31.59 45.87,71.87 51.06,113.74 -44.53,10.36 -85.5,34.56 -117.25,67.32 36.19,2.43 73.11,7 106.43,22.22 -6.77,6.02 -13.77,11.76 -20.69,17.59 38.94,-1.6 78.15,-1.11 116.73,4.87 13.85,2.11 27.49,5.39 40.76,9.87 -74.12,3.35 -148.55,10.39 -220.49,29.34 11.9,-9.76 23.96,-19.34 35.81,-29.17 -36.12,-11.7 -74.27,-16.27 -112.12,-16.85 -80.79,-1.59 -161.02,16.86 -235.52,47.35 29.34,-35.54 64.03,-66.3 100.05,-94.94 -31.47,-13.55 -68.34,-13.23 -99.85,0 -16.98,6.59 -31.07,18.72 -48.09,25.19 -24.53,10.4 -53.36,12.15 -78,1.13 -9,-3.58 -16.46,-9.9 -24.79,-14.68 -26.91,-13.96 -59.16,-18.2 -88.42,-9.62 37.51,9.98 73.83,29.11 98.6,59.62 18.83,22.91 28.8,52.38 29.34,81.91 -90.35,12.49 -180.69,25.09 -271.03,37.75 -0.12,-12.88 -5.34,-25.86 -15.44,-34.11 -13.73,-11.62 -32,-15.47 -49.45,-17.11 -0.7,-62.97 17.56,-126.7 54.07,-178.27 17.51,-24.21 38.72,-46.19 63.72,-62.64 25.45,-4.89 47.47,-20.39 65.1,-38.85 17.3,-18.02 31.05,-39.17 42.43,-61.32 15.45,-29.9 35.23,-57.36 56.53,-83.34 31.58,-37.96 66.53,-73.24 104.9,-104.38 13.31,-10.43 26.78,-21 42.31,-27.98 -15.81,-8.41 -31.82,-16.51 -48.51,-23.04 40.34,-37.82 85.92,-70.05 134.79,-95.88zm402.36 110.15l0 0c-20.04,16.26 -36.83,38.45 -40.81,64.51 -3.12,17.53 1.66,36.51 13.94,49.64 -10.6,0.49 -21.32,1.17 -31.45,4.57 -14.15,4.47 -30.48,2.84 -42.32,-6.53 1.62,22.38 10.03,45.68 28.69,59.39 25.57,19.04 59.7,20.89 90.23,16.57 -10.87,-4.77 -21.94,-9.64 -30.98,-17.49 -4.77,-4.11 -8.3,-9.87 -14.36,-12.28 -11.55,-5.08 -24.43,-5.14 -36.81,-5.61 26.76,-17.37 60.91,-18.2 90.94,-10.02 15.89,4.08 33.44,3.95 48.44,-3.26 14.41,-6.91 25.45,-19.53 32.54,-33.64 -14.49,-8.74 -28.56,-19.19 -37.86,-33.59 -6.46,-10.02 -9.25,-23.11 -4.34,-34.35 7.07,-18.06 24.73,-29.29 42.53,-34.99 33.28,-10.54 69.03,-9.07 103.13,-3.64 -33.06,-23.47 -73.87,-36.36 -114.47,-35.04 -35.04,1.25 -69.51,14.1 -97.04,35.76zm349.34 19.23l0 0c3.38,34.47 5.06,69.94 -4.19,103.69 -4.76,17.32 -13.36,34.83 -29.09,44.63 3.05,-12.44 1.6,-25.89 -4.18,-37.31 -8.94,25.1 -25.64,46.36 -40.65,68.04 27.94,-0.77 57.58,-6.41 79.6,-24.81 13.56,-11.41 21.53,-28.7 22.47,-46.32 3.02,-37.06 -2.23,-76.85 -23.96,-107.92zm-756.34 59.28l0 0c-32.19,6.49 -59.98,25.79 -83.81,47.6 -14.34,12.62 -26.91,27.3 -42.55,38.4 -26.83,19.83 -52.08,42.23 -81.83,57.75 -11.74,6.32 -21.02,16.78 -33.91,21.02 -13.71,4.93 -28.66,10.68 -36.81,23.57 -7.15,11.38 -5.45,25.45 -3.62,38.09 -1.06,2.46 -1.44,5.13 -0.77,7.78 2,10.24 3.83,20.51 5.9,30.75 10.19,8.13 10.74,22.83 19.42,32.23 9.86,10.66 22.22,18.64 34.77,25.77 19.47,10.64 40.64,19.08 62.93,21 18.94,1.13 37.77,-2.94 55.9,-8.04 18.74,-5.2 36.09,-14.2 52.34,-24.73 26.11,-15.06 53.34,-32.1 84.41,-32.89 3.99,11.68 6.7,23.89 12.46,34.89 1.47,3.15 5.49,3.13 8.32,4.36 58.79,17.69 120.45,29.32 182.06,25.17 -16.21,-20.74 -32.74,-41.23 -48.84,-62.08 21.67,13.83 43.4,27.53 65.12,41.27 10.83,-30.1 13.79,-62.34 15.36,-94.06 -7.1,-12.72 -18.12,-22.72 -28.17,-33.08 -10.19,-9.43 -20.27,-19.98 -33.7,-24.64 -21.08,-8.28 -42.21,-16.64 -64.1,-22.6 -18.05,-4.14 -37.56,-1.47 -54.73,-9.42 -7.61,-4.19 -15.23,-8.58 -23.79,-10.55 -20.98,-5.2 -42.27,-11.13 -64.1,-10.24 -8.05,0.39 -16.92,2.11 -22.47,8.53 -9.68,11.07 -20.45,21.41 -32.91,29.32 -16.73,0.87 -33.56,-1.76 -50.34,-1.42 -13.98,1.95 -26.45,9.29 -38.05,16.93 -10.66,7.47 -21.25,15.28 -30.17,24.81 19.15,-2.55 37.45,-9.43 55.17,-16.93 17.92,3.8 36.39,4.57 54.66,3.44 5.53,-0.45 11.39,-0.76 16.24,-3.79 13.53,-8.17 25.76,-18.36 37.23,-29.19 4.87,-4.47 9.47,-10.25 16.51,-11.04 15.62,-2.06 30.89,3.28 45.55,7.98 13.09,3.98 24.04,13.08 37.3,16.62 11.83,0.49 23.89,-0.85 35.57,1.95 11.01,4.73 21.16,11.17 30.16,19.13 -28.58,-9.27 -59.11,-12.53 -89.07,-11.26 8.06,7.26 18.47,11.07 26.89,17.86 6.22,4.44 10.64,11.95 7.94,19.74 -14.83,-11.49 -32.27,-20.7 -51.28,-21.93 -12.19,6.27 -19.1,20.02 -19.57,33.42 -26.19,3.47 -51.51,-6.91 -74.72,-17.85l-0.92 0.21c-29.59,26 -62.94,51.24 -102.83,57.7 -29.94,5.17 -60.23,-4.42 -85.94,-19.44 17.15,26.02 44.13,46.74 75.54,51.12 40.34,5.98 80.13,-9.61 114.57,-29.31 7.3,-3.64 13.53,-10.34 22.15,-10.56 18.41,-1.95 37.02,-3.8 55.55,-1.78 1.37,3.47 2.71,6.97 4.17,10.42 -20.1,-3.21 -40.51,0.02 -60.04,4.87 -3.76,0.88 -7.42,2.28 -10.62,4.43 -28.93,19.04 -60.57,34.91 -94.72,41.79 -21.42,4.08 -44.45,5.61 -64.83,-3.49 -34.87,-14.02 -57.11,-50.85 -58.1,-87.75 0.34,-9.06 0.68,-19.91 7.57,-26.59 19.1,-7.26 38.02,-15.19 55.76,-25.41 42.77,-23.98 78.83,-57.79 113.58,-91.95 11.45,-10.56 21.94,-22.15 33.76,-32.32 14.41,-11.35 32.09,-17.6 49.67,-22.11 28.12,-6.72 57.19,-8.94 86.04,-8.38 -28.32,-14.87 -61.64,-21.85 -93.26,-15.09zm464.47 96l0 0c14.47,4.7 29.94,9.58 40.28,21.45 7.96,7.59 9.76,19.74 18.78,26.42 8.66,6.86 20.28,8.11 30.96,7.05 10.41,20.57 15.53,43.34 18.83,66.02 8.47,-21.36 10.11,-44.62 9.3,-67.38 10.04,-4.6 20.17,-9 30.28,-13.49 -16.17,0.89 -33.32,-2.15 -46.13,-12.66 -18.2,-14.83 -26.49,-38.49 -28.85,-61.2 -15.79,24.09 -45.83,33.77 -73.45,33.79zm-218.17 58.55l0 0c1.47,2.07 1.32,6.35 4.74,6.43 62.58,12.43 123.51,35.62 176.84,70.91 16.59,-4.38 33.16,-8.82 49.65,-13.61 -33.23,-22.21 -71.12,-36.38 -109.63,-46.3 -39.77,-10.02 -80.62,-15.81 -121.6,-17.43zm273.62 572.64c9.57,-0.76 19.4,-3.21 28.89,-0.87 3.98,0.81 6.21,5 5.45,8.85 -1.45,11.6 -4.75,22.87 -6.83,34.38 -1.51,6.43 -2.04,13.94 -7.51,18.47 -6.92,5.55 -15.96,7.15 -24.49,8.41 -29.05,3.57 -58.09,7.21 -87.13,10.68 -7.41,0.51 -15.17,1.89 -22.4,-0.39 -5.34,-1.93 -4.81,-8.49 -3.84,-12.98 2.81,-13.55 5.49,-27.16 8.71,-40.63 3.4,-10.45 15.27,-13.83 24.98,-15.41 28.02,-3.78 56.12,-6.98 84.17,-10.51zm-76.21 25.3l0 0c-2.58,12.38 -5.28,24.75 -7.56,37.19 25.32,-3.25 50.64,-6.64 75.96,-9.85 2.38,-12.43 5.1,-24.79 7.55,-37.21 -25.32,3.27 -50.62,6.62 -75.95,9.87zm-369.84 43.98l0 0c-4.91,-0.43 -3.46,5.68 -4.46,8.72 20.85,-2.62 41.83,-4.44 62.51,-8.1 0.47,-2.47 0.93,-4.9 1.42,-7.34 -19.91,1.55 -39.62,4.67 -59.47,6.72zm-7.67 23.76l0 0c-1.13,5.35 -2.18,10.73 -3.2,16.13 17.94,-2.21 35.92,-4.42 53.88,-6.57 3.06,-0.62 6.63,-0.56 9.04,-2.87 1.95,-4.24 2.29,-9 3.3,-13.49 -21.11,0.91 -42,4.7 -63.02,6.8z"/>
  </g>
 </g>
</svg>
