<?xml version="1.0" encoding="UTF-8"?>
<!DOCTYPE svg PUBLIC "-//W3C//DTD SVG 1.1//EN" "http://www.w3.org/Graphics/SVG/1.1/DTD/svg11.dtd">
<!-- Creator: CorelDRAW -->
<svg xmlns="http://www.w3.org/2000/svg" xml:space="preserve" width="2000px" height="1600px" version="1.1" style="shape-rendering:geometricPrecision; text-rendering:geometricPrecision; image-rendering:optimizeQuality; fill-rule:evenodd; clip-rule:evenodd"
viewBox="0 0 2000 1600"
 xmlns:xlink="http://www.w3.org/1999/xlink">
 <defs>
  <style type="text/css">
   <![CDATA[
    .fil0 {fill:#00529B;fill-rule:nonzero}
    .fil1 {fill:#D1D4D7;fill-rule:nonzero}
    .fil2 {fill:#FEFEFE;fill-rule:nonzero}
   ]]>
  </style>
 </defs>
 <g id="Capa_x0020_1">
  <metadata id="CorelCorpID_0Corel-Layer"/>
  <g id="Central_x0020_Connecticut_x0020_Blue_x0020_Devils.cdr">
   <path class="fil0" d="M1627.56 682.53c24.78,-14.46 54.01,-21.29 82.61,-21.29 5.56,3.49 10.16,8.58 15.09,12.87 19.22,18.9 36.06,40.66 48.13,64.81 2.86,-3.65 5.72,-7.15 8.58,-10.64 5.4,19.54 8.74,40.03 7.15,60.36 -31.77,11.6 -62.59,26.21 -91.98,43.21 0.48,-11.6 5.72,-22.4 11.92,-32.25 -10.97,-12.07 -18.59,-26.84 -23.52,-42.25 -1.42,-4.61 -2.06,-9.53 -5.08,-13.51 -9.69,-12.86 -20.02,-25.41 -31.13,-37.01 28.43,5.4 56.07,14.14 82.76,25.1 -6.67,-17.63 -18.11,-33.2 -31.93,-45.91 -24.15,-3.18 -48.61,-3.18 -72.92,-2.7l0.32 -0.79zm-1227.32 268.46c3.81,0.16 7.46,0.16 11.28,0.16 0.31,3.97 -1.75,7.79 -3.34,11.28 -3.81,2.23 -8.58,0.8 -12.87,1.11 1.59,-4.13 3.34,-8.26 4.93,-12.55zm395.55 -17.79c4.29,0 8.58,0 13.03,0.32 -1.91,10.01 -7.15,19.06 -10.33,28.75 -4.61,2.07 -9.69,1.11 -14.61,1.27 3.81,-10.16 7.94,-20.17 11.91,-30.34zm-388.56 0c3.33,0 6.67,0 10.01,0.16 -0.48,3.65 -1.28,7.78 -3.98,10.33 -3.33,0.79 -6.83,0.31 -10.32,0.31 1.43,-3.65 2.86,-7.15 4.29,-10.8zm1194.28 -55.28c8.74,7.78 19.38,13.98 31.29,15.57 8.11,1.27 16.05,3.33 23.67,6.51 -12.23,6.67 -23.67,14.61 -33.83,23.99 -2.38,-4.93 -3.18,-10.49 -3.5,-15.89 -2.06,-2.38 -4.92,-3.97 -6.99,-6.19 -6.35,-6.52 -9.05,-15.41 -10.64,-23.99zm-1207.31 -86.26c5.72,0 11.44,0 17.16,0 -5.56,15.89 -11.12,31.77 -16.68,47.66 -5.88,0.16 -11.76,0.16 -17.64,0.16 4.93,-16.21 10.81,-32.09 17.16,-47.82zm644.48 -164.26c10.8,-0.16 21.45,0 32.25,-0.16 -3.5,10.01 -6.99,20.02 -10.64,30.03 -10.81,-0.16 -21.45,0 -32.25,0 3.49,-10.01 7.15,-20.02 10.64,-29.87zm171.73 55.13c11.59,-20.18 23.03,-40.51 34.78,-60.69 -3.17,20.18 -6.03,40.51 -9.21,60.69 -8.42,0 -17,0 -25.57,0zm337.57 -235.59c40.82,-56.55 122.63,-81.17 186.97,-52.26 -13.34,14.77 -25.42,31.29 -32.25,50.2 -3.65,10.32 -5.08,22.4 0,32.56 6.83,13.51 12.87,27.48 15.73,42.42 3.18,2.38 6.19,4.6 9.37,6.99 16.04,-6.2 26.85,-20.97 34.47,-35.75 7.47,-14.77 12.23,-31.29 12.39,-47.97 23.35,12.39 42.1,32.41 55.13,55.28 10.48,17.79 15.09,38.6 14.61,59.26 -0.32,27.64 -9.37,55.91 -28.43,76.41 22.87,42.57 39.39,88.48 48.61,135.82 0.95,6.03 2.86,12.23 2.38,18.42 -6.04,6.2 -12.87,11.76 -18.91,17.96 14.14,48.13 22.24,98.01 29.08,147.73 -16.21,-2.54 -32.41,-5.24 -48.61,-7.94 2.38,6.35 5.24,12.55 8.26,18.59 -11.28,18.74 -26.37,34.63 -41.15,50.67 1.75,11.6 2.86,24.31 -2.06,35.27 -1.75,3.97 -6.04,7.15 -4.77,11.91 4.13,43.05 14.3,86.1 34.63,124.54 4.45,8.42 9.69,16.52 15.57,24.15 -45.27,13.34 -94.2,4.61 -136.62,-14.46 -22.55,-9.37 -42.89,-23.51 -64.33,-35.26 -42.74,-24.15 -86.1,-47.18 -131.54,-65.93 -63.38,-27.96 -130.89,-51.31 -200.95,-50.2 -31.45,1.28 -62.75,5.41 -93.09,12.87 -23.51,6.36 -46.39,14.62 -68.63,24.62 4.61,-34.15 22.72,-64.81 44.17,-91.02 -282.61,0 -565.21,0 -847.82,0 6.67,-18.75 13.5,-37.17 20.18,-55.92 -10.81,-12.55 -21.77,-24.78 -32.41,-37.49 283.56,-0.16 566.96,0 850.36,0 -1.91,-6.03 -3.82,-12.23 -5.56,-18.27 -306.12,0 -612.24,0 -918.35,0 -13.19,-0.47 -26.85,-6.83 -33.36,-18.58 -5.24,-9.85 -3.82,-21.45 -0.8,-31.62 4.93,-15.88 10.65,-31.61 17,-46.86 -2.54,-3.02 -5.08,-5.88 -7.47,-8.73 -23.03,-0.16 -47.49,1.42 -68.78,-9.06 -15.41,-6.99 -26.53,-22.87 -27.01,-40.03 -1.11,-23.04 9.38,-44.32 16.68,-65.77 9.69,-25.57 17.32,-52.26 29.87,-76.73 -13.34,-15.25 -26.85,-30.34 -39.71,-45.9 58.93,-0.16 117.87,0 176.8,0 19.54,0.31 40.19,1.27 57.51,11.43 7.46,4.29 13.66,10.81 17.95,18.43 285.78,0 571.56,0 857.51,0 47.65,-73.55 131.85,-121.21 219.22,-125.81 26.21,-1.59 52.42,1.27 78.16,6.03zm26.36 47.02l0 0zm0 0c-8.1,23.51 -0.47,51 17.32,67.99 11.12,8.74 25.26,13.82 39.4,14.46 18.11,0.32 34.95,-11.76 42.09,-28.12 4.29,-10.96 1.91,-23.19 -2.38,-33.83 -3.65,-9.69 -10.33,-18.11 -12.39,-28.44 -5.08,-20.97 1.27,-42.89 11.44,-61.32 0.47,0 1.27,-0.16 1.59,-0.16 -0.32,-0.47 -0.96,-1.43 -1.27,-1.9 -41.62,3.65 -81.66,31.29 -95.8,71.32zm215.57 4.29l0 0zm0 0c-4.13,21.61 -15.09,42.26 -32.56,55.76 7.46,7.79 14.45,15.89 21.28,24.31 3.98,5.08 7.95,10.48 11.92,15.72 18.27,-25.25 21.6,-62.27 3.81,-88.64 -1.59,-2.22 -3.02,-4.61 -4.45,-7.15zm-1584.91 67.99l0 0zm0 0c4.29,5.25 8.74,10.33 13.19,15.25 -10.8,9.69 -16.05,23.51 -21.13,36.54 -8.26,21.76 -16.04,43.84 -23.99,65.77 -4.45,11.28 -8.42,22.71 -9.85,34.79 -0.95,6.19 0.8,13.18 5.72,17.31 8.58,6.83 20.18,8.1 30.66,8.9 39.08,0.16 78.32,-0.16 117.56,0 4.28,-12.39 8.73,-24.78 13.18,-37.18 -32.41,-0.31 -64.81,-0.15 -97.06,-0.15 10.17,-35.43 22.4,-70.22 37.33,-103.9 12.55,0 25.26,0 37.81,0 -2.86,8.11 -5.72,16.05 -8.58,24.15 19.7,0 39.4,0 58.94,0 3.81,-11.12 8.26,-22.08 10.32,-33.68 1.59,-7.94 -1.9,-16.68 -9.05,-20.81 -10.33,-5.87 -22.56,-6.51 -34.16,-6.99 -40.35,0 -80.7,0 -120.89,0zm185.23 29.87l0 0zm0 0c3.65,4.29 7.31,8.42 11.12,12.55 -15.89,45.43 -32.25,90.7 -48.13,136.14 44.95,0 90.07,0 135.18,0 3.82,-10.33 7.47,-20.81 11.12,-31.14 -26.05,0 -52.1,0 -78.31,0 3.65,-10.32 7.15,-20.65 11.12,-30.82 12.07,0.16 24.3,0 36.37,0.16 2.39,-0.47 5.56,0.8 7.63,-0.79 3.34,-8.9 6.2,-17.79 9.37,-26.69 -14.61,0 -29.23,0 -43.84,0 3.17,-9.37 6.67,-18.74 10.01,-28.12 9.84,-0.16 19.69,-0.16 29.54,-0.16 -1.9,5.72 -3.97,11.44 -5.87,17 16.2,0.16 32.4,0 48.61,0.16 5.87,-16.04 11.43,-32.25 17.15,-48.29 -50.36,0 -100.71,0.16 -151.07,0zm171.09 0l0 0zm0 0c3.65,4.29 7.46,8.58 11.12,12.87 -15.89,45.27 -31.77,90.54 -47.5,135.82 17,-0.16 33.84,0 50.83,0 9.54,-28.6 19.22,-57.03 28.92,-85.47 10,28.28 19.22,56.87 28.91,85.47 18.11,0 36.38,0 54.64,0 17.64,-49.57 35.27,-99.13 52.9,-148.69 -17.47,0.32 -34.79,-0.16 -52.1,0.16 -10.01,30.02 -20.02,59.89 -30.18,89.75 -9.06,-30.02 -18.27,-59.89 -27.49,-89.91 -23.35,0 -46.7,0.16 -70.05,0zm212.55 0l0 0zm0 0c-5.72,16.04 -11.44,32.09 -17.16,48.13 13.66,0.16 27.32,0 41.15,0.16 2.06,-5.72 4.13,-11.44 6.03,-17 6.99,-0.16 13.98,-0.16 20.97,-0.16 -13.98,39.24 -27.96,78.32 -41.78,117.56 19.38,0 38.6,0 57.98,0 13.98,-39.08 27.8,-78.16 41.78,-117.4 6.67,-0.16 13.51,0 20.34,-0.16 -1.91,5.72 -3.97,11.44 -5.88,17 13.66,0.16 27.32,0.16 40.98,0 5.56,-16.04 11.28,-31.93 17,-47.97 -60.52,-0.16 -120.89,0 -181.41,-0.16zm201.59 0l0 0zm0 0c3.65,4.29 7.46,8.58 11.28,12.87 -16.21,45.27 -32.41,90.54 -48.3,135.82 19.38,0 38.92,0 58.46,0 7.15,-19.86 14.14,-39.88 21.45,-59.89 10.8,0.16 21.6,0.16 32.4,0.16 -7.14,19.85 -14.29,39.71 -21.28,59.73 19.06,0 38.28,0 57.5,0 4.93,-14.62 10.01,-29.23 15.1,-43.69 2.38,-6.35 5.24,-13.66 2.06,-20.33 -3.5,-6.83 -11.91,-8.1 -17.95,-11.76 8.9,-2.38 17.95,-5.56 24.78,-12.07 7.78,-7.78 10.64,-18.74 14.3,-28.75 2.7,-7.79 3.49,-18.59 -3.97,-24.15 -9.06,-6.83 -20.81,-7.15 -31.62,-7.78 -38.12,-0.16 -76.09,0 -114.21,-0.16zm213.5 0.16l0 0zm0 0c3.81,4.13 7.47,8.42 11.28,12.39 -27.17,45.43 -54.49,90.7 -81.81,136.14 19.54,0 38.92,0 58.3,0 6.51,-12.23 13.18,-24.31 19.7,-36.54 11.59,-0.16 23.35,0 35.1,0 -1.59,12.23 -3.65,24.31 -5.4,36.54 19.7,0 39.4,0 59.1,0 4.92,-49.57 9.69,-98.97 14.61,-148.53 -36.85,-0.16 -73.87,0 -110.88,0zm161.24 -0.16l0 0zm0 0c3.81,4.13 7.47,8.42 11.28,12.55 -15.73,45.43 -31.77,90.7 -47.5,136.14 45.91,0 91.98,0 138.05,0 3.49,-10.33 7.14,-20.81 10.96,-31.14 -26.69,0 -53.38,0 -80.07,0 13.66,-39.24 27.49,-78.31 41.31,-117.55 -24.63,0 -49.41,0.16 -74.03,0zm333.76 9.37l0 0zm0 0c-8.58,10.49 -19.86,17.95 -30.66,25.42 -29.55,15.72 -63.39,22.24 -96.59,20.17 -13.82,9.38 -27.16,19.54 -40.35,30.03 3.18,35.74 10.17,71.01 19.06,105.79 0.96,5.72 6.04,8.74 9.7,12.55 23.51,21.61 48.45,41.47 72.91,61.8 -20.49,-1.11 -40.35,-7.47 -59.09,-15.73 -28.92,-12.87 -55.92,-29.7 -81.66,-48.13 -1.11,-7.94 -2.38,-15.89 -4.92,-23.51 -22.08,0 -44.16,0 -66.24,0 -3.82,10.17 -7.31,20.49 -10.97,30.66 10.01,14.61 22.4,27.8 36.7,38.28 2.07,1.11 3.81,3.5 6.51,3.18 15.41,-0.32 30.98,-2.07 45.75,-6.67 -5.71,10.48 -11.75,20.97 -20.49,29.23 -11.75,8.42 -23.67,16.84 -35.9,24.78 11.12,30.02 22.88,60.05 37.97,88.48 3.02,4.61 4.76,10.8 10.01,13.5 46.86,29.23 95.94,55.13 146.3,77.68 43.05,18.91 87.21,35.43 132.81,46.55 -4.61,-19.54 -8.11,-39.4 -10.33,-59.41 -18.59,-5.56 -30.82,-23.04 -34.47,-41.46 13.98,7.14 30.34,8.73 45.43,4.76 -3.81,-10.17 -8.74,-20.01 -15.57,-28.43 -4.44,-3.18 -9.85,-4.45 -14.77,-6.68 -27.8,-9.53 -57.03,-14.29 -86.26,-16.99 -7.78,4.6 -15.25,9.85 -23.03,14.61 5.24,-29.07 24.62,-55.28 51.62,-67.51 20.5,6.67 39.56,17.15 58.15,27.64 17.95,10.64 35.74,21.29 52.26,33.99 6.35,-6.19 11.91,-13.34 16.84,-20.81 -9.85,-23.03 -20.33,-45.91 -30.34,-68.78l2.54 0.32c21.13,7.94 43.05,13.82 64.97,19.38 -5.08,-40.99 -16.2,-81.18 -31.29,-119.62 9.85,-7.15 19.38,-14.62 28.91,-22.24 -9.85,-40.83 -27.17,-79.75 -50.84,-114.38 -27.16,-21.44 -58.45,-37.01 -89.91,-50.99 -2.22,-1.59 -3.49,1.43 -4.76,2.54zm-1424.15 168.39l0 0zm0 0c1.9,2.22 3.97,4.61 6.04,6.99 -6.99,6.99 -9.54,16.84 -13.03,25.89 -3.81,10.96 -8.26,21.76 -11.44,33.04 -1.27,4.29 -2.22,9.85 1.75,13.19 5.08,3.97 11.91,3.81 17.95,4.29 17.16,0 34.15,0 51.15,0 2.22,-5.88 4.29,-11.92 6.35,-17.79 -15.09,-0.16 -30.18,0.15 -45.27,-0.16 4.77,-16.37 10.49,-32.41 17.32,-47.98 5.87,0 11.59,0 17.31,0 -1.27,3.66 -2.54,7.31 -3.81,11.12 9.21,0 18.43,0.16 27.64,0 1.91,-6.83 5.24,-13.5 4.29,-20.49 -2.22,-6.2 -9.53,-7.62 -15.25,-8.1 -20.33,-0.16 -40.67,0 -61,0zm103.73 0l0 0zm0 0c1.75,2.22 3.81,4.29 5.72,6.51 -4.92,5.72 -7.78,12.71 -10.48,19.7 -4.45,12.07 -8.74,24.3 -12.87,36.54 -1.59,5.4 -3.02,12.39 1.59,16.36 6.19,4.45 14.29,3.81 21.44,4.29 12.24,-0.32 24.63,0.79 36.7,-0.8 8.58,-1.11 16.68,-6.51 20.17,-14.45 6.2,-13.35 10.01,-27.33 15.09,-40.99 2.23,-6.51 5.57,-13.82 2.71,-20.49 -3.82,-6.04 -11.92,-6.04 -18.11,-6.51 -20.66,-0.32 -41.31,-0.16 -61.96,-0.16zm103.89 0l0 0zm0 0c2.23,2.54 4.45,5.08 6.36,7.78 -9.06,25.1 -17.63,50.36 -26.53,75.62 9.53,0 19.06,0 28.43,0 5.72,-15.89 10.65,-31.93 16.37,-47.66 5.4,15.89 10.64,31.77 16.04,47.66 10.17,0 20.34,0 30.5,0 10.01,-27.8 19.86,-55.6 29.71,-83.4 -9.69,0 -19.54,0 -29.39,0 -5.24,16.68 -11.28,33.2 -16.68,49.88 -5.24,-16.52 -10.17,-33.2 -15.41,-49.88 -13.03,0 -26.21,0 -39.4,0zm117.88 0l0 0zm0 0c2.06,2.38 4.13,4.76 6.35,6.99 -8.42,25.57 -17.79,50.83 -26.53,76.41 9.53,0 19.06,0 28.44,0 5.71,-15.89 10.64,-31.93 16.36,-47.82 5.4,15.89 10.64,31.93 16.04,47.82 10.17,0 20.34,0 30.5,0 10.01,-27.8 19.86,-55.6 29.71,-83.4 -9.69,0 -19.54,0 -29.39,0 -5.24,16.68 -11.12,33.2 -16.68,49.72 -5.24,-16.52 -10.17,-33.2 -15.41,-49.72 -13.02,0 -26.21,0 -39.39,0zm118.03 0l0 0zm0 0c2.06,2.22 4.13,4.45 5.87,6.99 0.48,2.06 -0.95,3.97 -1.43,5.88 -8.42,23.51 -16.84,47.02 -24.94,70.53 25.26,0 50.52,0 75.78,0 2.06,-6.04 4.13,-11.92 6.19,-17.79 -14.61,-0.16 -29.23,0 -43.68,0 2.06,-5.72 3.97,-11.44 5.88,-17 8.26,0 16.36,-0.16 24.62,0 1.9,-5.09 3.81,-10.17 5.4,-15.41 -8.1,0 -16.2,0 -24.31,0 1.75,-5.08 3.5,-10.17 5.25,-15.25 5.56,-0.16 10.96,-0.16 16.36,-0.16 -0.95,3.02 -2.07,6.04 -3.18,9.21 9.21,0 18.43,0 27.48,-0.16 3.02,-9.05 6.52,-17.79 9.38,-26.84 -28.12,0 -56.4,0 -84.67,0zm101.66 0l0 0zm0 0c1.75,2.38 4.93,4.45 5.56,7.47 -7.78,8.57 -10.32,20.01 -14.45,30.49 -3.66,10.97 -8.58,21.45 -10.49,32.89 -0.95,4.13 1.59,8.42 5.25,9.85 5.71,2.54 12.23,2.54 18.26,2.7 16.05,0 32.25,0 48.3,0 2.06,-5.88 4.13,-11.76 6.35,-17.64 -15.09,-0.47 -30.18,-0.15 -45.27,-0.15 4.76,-16.53 10.32,-32.57 17.47,-48.3 5.72,0.16 11.44,0.16 17.16,0.16 -1.27,3.66 -2.7,7.47 -3.97,11.12 9.37,0 18.58,0 27.8,0 1.74,-6.19 4.6,-12.39 4.6,-18.9 -1.11,-7.47 -9.69,-9.37 -16.04,-9.69 -20.18,-0.16 -40.35,0 -60.53,0zm98.97 0l0 0zm0 0c-3.18,8.89 -6.51,17.95 -9.69,26.84 7.79,0.16 15.57,0.16 23.19,0.16 1.12,-3.17 2.39,-6.35 3.5,-9.53 3.81,0 7.62,0 11.44,0 -7.79,21.93 -15.73,44.01 -23.51,65.93 10.96,0 21.76,0 32.56,0 7.94,-21.92 15.73,-44 23.51,-65.93 3.66,0 7.47,0 11.12,0 -1.11,3.18 -2.22,6.36 -3.33,9.53 7.78,0 15.41,0 23.19,-0.16 3.18,-8.89 6.35,-17.95 9.53,-26.84 -33.84,0 -67.67,0 -101.51,0zm113.9 0l0 0zm0 0c2.07,2.54 4.29,4.92 6.36,7.47 -9.06,25.25 -17.8,50.67 -26.69,75.93 10.8,0 21.6,0 32.56,0 9.85,-27.8 19.7,-55.6 29.39,-83.4 -13.82,0 -27.64,0 -41.62,0zm60.68 0l0 0zm0 0c2.07,2.38 4.13,4.76 6.2,6.99 -6.35,6.03 -8.74,14.61 -11.91,22.56 -4.14,11.91 -8.9,23.67 -12.4,35.74 -1.11,4.45 -2.54,10.17 1.28,13.66 5.08,3.97 11.91,3.97 18.1,4.45 17,0.16 34.16,0 51.32,0 2.06,-6.04 4.13,-11.92 6.19,-17.79 -15.09,0 -30.18,0 -45.27,0 4.76,-16.53 10.48,-32.57 17.47,-48.14 5.72,0 11.44,0 17.32,0 -1.43,3.66 -2.7,7.47 -3.98,11.12 9.22,0 18.59,0.16 27.81,0 1.74,-6.35 4.6,-12.39 4.44,-19.06 -1.11,-7.31 -9.53,-9.21 -15.72,-9.53 -20.18,-0.16 -40.51,0 -60.85,0zm94.84 0l0 0zm0 0c2.07,2.54 4.29,4.92 6.36,7.47 -6.99,19.22 -13.83,38.6 -20.81,57.98 -1.12,3.33 -2.55,6.99 -0.96,10.48 1.59,3.97 6.2,5.4 10.01,6.36 11.44,1.9 23.03,0.95 34.63,1.11 10.33,0.16 21.76,-0.32 30.18,-6.99 4.45,-3.18 6.68,-8.26 8.42,-13.19 7.47,-21.12 14.94,-42.09 22.4,-63.22 -10.8,0 -21.76,0 -32.56,0 -7.79,21.76 -15.57,43.68 -23.36,65.61 -5.4,0 -10.8,0 -16.04,0 7.63,-21.93 15.41,-43.69 23.03,-65.61 -13.82,0 -27.48,0 -41.3,0zm107.39 0l0 0zm0 0c-3.34,8.89 -6.51,17.95 -9.69,27 7.78,0 15.57,0 23.19,0 1.11,-3.17 2.23,-6.35 3.34,-9.53 3.81,0 7.62,-0.16 11.43,0 -7.62,21.93 -15.56,43.85 -23.35,65.93 10.96,0 21.77,0.16 32.73,-0.16 7.62,-21.92 15.57,-43.84 23.35,-65.77 3.65,0 7.31,0 10.96,0 -1.11,3.18 -2.06,6.36 -3.18,9.53 7.79,0 15.41,0 23.04,0 3.17,-9.05 6.51,-17.95 9.53,-27 -33.84,0 -67.51,0 -101.35,0zm-884.67 151.86l0 0zm0 0c-0.96,2.55 -1.91,4.93 -2.7,7.47 0.95,0 3.01,0 3.97,0 -4.61,12.55 -9.69,24.78 -14.46,37.33 8.58,0 17.16,0.48 25.74,-0.16 8.26,-1.27 10.16,-10.16 12.55,-16.68 1.27,-2.22 0,-4.44 -0.96,-6.51 4.29,-4.13 6.68,-10.17 7.31,-16.04 0.16,-3.66 -3.97,-5.25 -6.99,-5.25 -8.26,-0.31 -16.36,0 -24.46,-0.16zm87.84 0l0 0zm0 0c-0.95,2.55 -2.06,4.93 -3.01,7.31 1.11,0.16 3.01,0.32 3.97,0.32 -4.93,12.39 -9.69,24.78 -14.46,37.17 8.74,0.16 17.48,0 26.21,0.16 0.96,-2.38 1.75,-4.76 2.7,-7.15 -5.56,0 -10.96,0 -16.52,0 4.93,-12.55 9.85,-25.1 14.62,-37.81 -4.45,0 -9.06,0 -13.51,0zm77.37 7.47l0 0zm0 0c0.95,0 2.86,0 3.81,0 -3.49,10.01 -7.94,19.7 -11.12,29.87 -1.27,3.17 0.95,6.99 4.45,7.3 6.04,0.48 12.23,0.32 18.27,0.16 6.03,0 11.28,-4.13 13.34,-9.69 4.77,-11.59 9.06,-23.35 13.66,-34.95 -3.17,-0.16 -6.35,-0.16 -9.53,-0.16 -4.76,11.44 -8.74,23.04 -13.66,34.48 -3.18,5.72 -11.12,2.7 -16.36,3.17 2.86,-13.02 9.37,-24.94 13.5,-37.49 -4.45,-0.16 -8.9,-0.16 -13.34,-0.16 -1.12,2.39 -2.07,4.93 -3.02,7.47zm91.34 -0.16l0 0zm0 0c0.95,0.16 3.02,0.32 3.97,0.32 -4.76,12.39 -9.69,24.78 -14.45,37.17 9.69,0.16 19.22,0 28.75,0.16 0.95,-2.38 1.91,-4.76 2.7,-7.15 -6.36,0 -12.71,0 -19.06,0 1.43,-3.81 3.02,-7.78 4.44,-11.59 6.04,0 11.92,0 17.8,0 0.95,-2.39 1.9,-4.77 2.86,-6.99 -5.88,-0.16 -11.92,0 -17.8,-0.16 1.43,-3.82 3.02,-7.79 4.61,-11.6 6.2,0 12.55,0 18.75,0.16 1.11,-2.54 2.22,-4.92 3.17,-7.47 -10.96,-0.16 -21.76,0 -32.72,-0.16 -1.11,2.39 -2.07,4.93 -3.02,7.31zm132.01 -6.99l0 0zm0 0c-0.95,2.39 -1.75,4.77 -2.54,7.15 0.95,0 2.86,0 3.81,0 -4.61,12.55 -9.69,24.94 -14.3,37.33 8.58,0 17.32,0.32 25.9,0 5.4,-0.47 9.53,-4.6 11.28,-9.53 3.17,-8.89 6.99,-17.47 9.85,-26.37 1.58,-3.49 -0.64,-8.1 -4.61,-8.42 -9.85,-0.95 -19.7,-0.48 -29.39,-0.16zm89.44 -0.16l0 0zm0 0c-0.96,2.39 -1.91,4.93 -2.86,7.31 0.95,0 3.01,0 3.97,0 -4.77,12.55 -9.69,24.94 -14.46,37.33 9.69,0.16 19.22,0.16 28.91,0 0.8,-2.22 1.75,-4.6 2.7,-6.99 -6.35,0 -12.7,0 -19.06,0 1.43,-3.81 2.86,-7.78 4.29,-11.59 5.88,0 11.76,-0.16 17.63,0.16 1.12,-2.39 2.07,-4.77 3.02,-7.15 -5.88,-0.16 -11.75,-0.16 -17.79,0 1.43,-3.98 3.02,-7.79 4.45,-11.6 6.35,-0.16 12.71,-0.16 19.22,-0.16 0.95,-2.38 1.91,-4.92 3.02,-7.47 -11.12,0 -22.08,0 -33.04,0.16zm83.24 0l0 0zm0 0c-0.8,2.39 -1.75,4.77 -2.54,7.15 1.11,0 3.49,0.32 4.6,0.32 -0.63,12.39 -1.11,24.78 -1.43,37.17 4.13,0.16 8.1,0.16 12.08,0 10.96,-14.77 21.76,-29.7 32.72,-44.64 -3.18,-0.16 -6.51,-0.16 -9.69,-0.16 -8.58,11.76 -16.84,23.68 -25.42,35.27 0.16,-11.75 1.27,-23.51 1.75,-35.27 -4.13,0 -8.1,0 -12.07,0.16zm94.36 -0.16l0 0zm0 0c-0.96,2.39 -2.07,4.93 -3.02,7.31 1.11,0.16 3.02,0.32 3.97,0.32 -4.92,12.39 -9.69,24.78 -14.45,37.17 3.17,0 6.35,0 9.68,0 5.72,-14.93 11.6,-29.7 17.32,-44.8 -4.45,0 -9.05,0 -13.5,0zm63.22 7.47l0 0zm0 0c0.96,0 3.02,0.16 3.97,0.16 -4.76,12.39 -9.85,24.78 -14.45,37.33 8.74,-0.16 17.47,0 26.21,0 0.79,-2.38 1.75,-4.76 2.54,-7.15 -5.4,0 -10.96,0 -16.52,0 4.92,-12.55 10.01,-25.1 14.77,-37.81 -4.6,0 -9.21,0 -13.66,0 -0.95,2.55 -1.9,4.93 -2.86,7.47zm80.22 8.58l0 0zm0 0c-1.11,2.86 -1.9,7.15 1.12,9.05 5.24,1.91 10.8,0.8 16.2,1.28 -1.43,3.65 -1.91,8.42 -5.08,10.96 -6.36,1.11 -13.03,0.16 -19.54,0.47 -0.96,2.39 -1.75,4.61 -2.7,6.99 9.85,-0.95 21.6,3.02 30.18,-3.33 4.13,-5.56 7.15,-12.55 7.15,-19.38 -4.29,-5.72 -12.55,-2.55 -18.59,-3.5 1.43,-3.49 1.91,-7.62 4.61,-10.48 3.81,-1.12 7.94,-0.48 11.91,-0.64 -0.79,1.91 -1.43,3.65 -2.22,5.4 2.7,0 5.4,0 8.26,0 1.59,-4.29 3.34,-8.58 4.92,-12.87 -8.42,0.48 -17.15,-0.95 -25.41,1.12 -6.52,2.06 -8.74,9.21 -10.81,14.93zm470.06 13.5l0 0zm0 0c17.47,2.54 34.79,6.2 52.11,10.01 -10.81,-7.78 -22.72,-14.14 -34.79,-19.86 -5.88,3.18 -11.6,6.52 -17.32,9.85zm32.09 -210.48l0 0zm0 0c7.31,19.06 19.38,37.65 38.44,46.54 -1.59,-5.24 -3.49,-10.48 -5.08,-15.72 3.18,-1.91 6.35,-3.98 9.69,-6.04 -13.5,-9.85 -28.44,-17.16 -43.05,-24.78z"/>
   <path class="fil1" d="M1661.24 361.64l37.01 0c5.88,1.74 12.08,2.86 18.11,4.13 18.27,4.6 35.75,12.71 50.68,24.3 -17.95,17.32 -34.16,37.17 -44.32,60.05 -6.99,16.52 4.92,32.25 11.28,46.86 5.24,-6.67 8.89,-14.29 11.91,-22.24 7.31,-19.85 10.64,-41.46 9.21,-62.75 28.28,8.58 53.86,25.58 73.08,47.98 14.45,17.31 26.53,37.17 32.25,59.25 10.32,39.4 4.13,83.56 -19.7,117.08 23.83,50.2 41.62,103.73 48.29,159.17 -4.77,5.88 -10.8,10.49 -16.05,15.89 -1.9,1.43 -0.79,3.97 -0.47,5.88 11.75,46.22 19.06,93.4 25.73,140.43 0.48,3.01 1.12,5.87 1.75,8.73l0 11.44c-14.61,-0.79 -28.75,-4.45 -43.37,-6.04 -10.8,18.11 -24.62,34.16 -38.6,50.04 -0.95,8.58 0.48,17.64 -2.06,26.21 -1.27,7.79 -7.31,14.46 -5.72,22.72 6.19,55.12 27.16,109.93 65.45,150.91 -18.59,9.54 -39.08,13.35 -59.42,16.68l-38.44 0c-9.53,-2.38 -19.38,-2.86 -28.91,-5.08 -24.31,-4.76 -47.82,-13.34 -69.74,-24.78 -22.08,-11.28 -43.05,-24.62 -64.65,-36.7 -53.86,-29.86 -109.14,-57.66 -167.28,-78.31 -22.56,-7.95 -45.27,-15.09 -68.63,-19.86 -42.09,-8.58 -85.78,-10.01 -127.88,-1.59 -45.27,9.22 -89.43,23.67 -130.73,44.32 0.47,-44.16 8.89,-75.3 39.39,-105.8 -281.97,0 -563.78,0.16 -845.59,-0.15 7.78,-23.67 17,-46.87 25.1,-70.54 -11.76,-13.82 -23.51,-27.48 -35.59,-40.98 -15.72,-0.16 -31.45,0 -47.17,-0.16 -13.19,0 -26.38,-3.97 -36.86,-11.92 -11.28,-8.25 -19.22,-21.12 -20.17,-35.26 -1.75,-20.33 6.83,-39.72 13.82,-58.46 -21.29,-0.32 -43.21,-2.06 -62.43,-12.23 -18.27,-9.22 -31.93,-27.64 -34.48,-47.98 -2.86,-21.76 4.13,-43.21 11.12,-63.54 10.01,-27.96 19.07,-56.23 30.82,-83.56 -19.06,-22.55 -38.92,-44.48 -57.98,-67.03l0 -0.96c74.82,0.8 149.48,0 224.3,0.48 24.79,0.63 51.63,4.45 70.85,21.6 3.82,2.86 6.52,8.58 11.92,8.11 277.36,0 554.57,0.15 831.77,-0.16 29.23,-42.26 69.9,-76.57 116.44,-98.18 56.87,-27 122,-34.95 183.96,-25.41 18.27,-20.81 41.46,-36.86 66.88,-47.5 17.47,-7.79 36.37,-11.6 55.12,-15.09zm-466.09 580.14c2.07,-5.72 4.29,-12.87 10.81,-14.93 8.26,-2.07 16.99,-0.64 25.41,-1.12 -1.58,4.29 -3.33,8.58 -4.92,12.87 -2.86,0 -5.56,0 -8.26,0 0.79,-1.75 1.43,-3.49 2.22,-5.4 -3.97,0.16 -8.1,-0.48 -11.91,0.64 -2.7,2.86 -3.18,6.99 -4.61,10.48 6.04,0.95 14.3,-2.22 18.59,3.5 0,6.83 -3.02,13.82 -7.15,19.38 -8.58,6.35 -20.33,2.38 -30.18,3.33 0.95,-2.38 1.74,-4.6 2.7,-6.99 6.51,-0.31 13.18,0.64 19.54,-0.47 3.17,-2.54 3.65,-7.31 5.08,-10.96 -5.4,-0.48 -10.96,0.63 -16.2,-1.28 -3.02,-1.9 -2.23,-6.19 -1.12,-9.05zm-80.22 -8.58c0.96,-2.54 1.91,-4.92 2.86,-7.47 4.45,0 9.06,0 13.66,0 -4.76,12.71 -9.85,25.26 -14.77,37.81 5.56,0 11.12,0 16.52,0 -0.79,2.39 -1.75,4.77 -2.54,7.15 -8.74,0 -17.47,-0.16 -26.21,0 4.6,-12.55 9.69,-24.94 14.45,-37.33 -0.95,0 -3.01,-0.16 -3.97,-0.16zm-63.22 -7.47c4.45,0 9.05,0 13.5,0 -5.72,15.1 -11.6,29.87 -17.32,44.8 -3.33,0 -6.51,0 -9.68,0 4.76,-12.39 9.53,-24.78 14.45,-37.17 -0.95,0 -2.86,-0.16 -3.97,-0.32 0.95,-2.38 2.06,-4.92 3.02,-7.31zm-94.36 0.16c3.97,-0.16 7.94,-0.16 12.07,-0.16 -0.48,11.76 -1.59,23.52 -1.75,35.27 8.58,-11.59 16.84,-23.51 25.42,-35.27 3.18,0 6.51,0 9.69,0.16 -10.96,14.94 -21.76,29.87 -32.72,44.64 -3.98,0.16 -7.95,0.16 -12.08,0 0.32,-12.39 0.8,-24.78 1.43,-37.17 -1.11,0 -3.49,-0.32 -4.6,-0.32 0.79,-2.38 1.74,-4.76 2.54,-7.15zm-83.24 0c10.96,-0.16 21.92,-0.16 33.04,-0.16 -1.11,2.55 -2.07,5.09 -3.02,7.47 -6.51,0 -12.87,0 -19.22,0.16 -1.43,3.81 -3.02,7.62 -4.45,11.6 6.04,-0.16 11.91,-0.16 17.79,0 -0.95,2.38 -1.9,4.76 -3.02,7.15 -5.87,-0.32 -11.75,-0.16 -17.63,-0.16 -1.43,3.81 -2.86,7.78 -4.29,11.59 6.36,0 12.71,0 19.06,0 -0.95,2.39 -1.9,4.77 -2.7,6.99 -9.69,0.16 -19.22,0.16 -28.91,0 4.77,-12.39 9.69,-24.78 14.46,-37.33 -0.96,0 -3.02,0 -3.97,0 0.95,-2.38 1.9,-4.92 2.86,-7.31zm-89.44 0.16c9.69,-0.32 19.54,-0.79 29.39,0.16 3.97,0.32 6.19,4.93 4.61,8.42 -2.86,8.9 -6.68,17.48 -9.85,26.37 -1.75,4.93 -5.88,9.06 -11.28,9.53 -8.58,0.32 -17.32,0 -25.9,0 4.61,-12.39 9.69,-24.78 14.3,-37.33 -0.95,0 -2.86,0 -3.81,0 0.79,-2.38 1.59,-4.76 2.54,-7.15zm11.12 7.15l0 0zm0 0c-3.97,10.17 -8.1,20.18 -11.91,30.34 4.92,-0.16 10,0.8 14.61,-1.27 3.18,-9.69 8.42,-18.74 10.33,-28.75 -4.45,-0.32 -8.74,-0.32 -13.03,-0.32zm-143.13 -0.16c0.95,-2.38 1.91,-4.92 3.02,-7.31 10.96,0.16 21.76,0 32.72,0.16 -0.95,2.55 -2.06,4.93 -3.17,7.47 -6.2,-0.16 -12.55,-0.16 -18.75,-0.16 -1.59,3.81 -3.18,7.78 -4.61,11.6 5.88,0.16 11.92,0 17.8,0.16 -0.96,2.22 -1.91,4.6 -2.86,6.99 -5.88,0 -11.76,0 -17.8,0 -1.42,3.81 -3.01,7.78 -4.44,11.59 6.35,0 12.7,0 19.06,0 -0.79,2.39 -1.75,4.77 -2.7,7.15 -9.53,-0.16 -19.06,0 -28.75,-0.16 4.76,-12.39 9.69,-24.78 14.45,-37.17 -0.95,0 -3.02,-0.16 -3.97,-0.32zm-91.34 0.16c0.95,-2.54 1.9,-5.08 3.02,-7.47 4.44,0 8.89,0 13.34,0.16 -4.13,12.55 -10.64,24.47 -13.5,37.49 5.24,-0.47 13.18,2.55 16.36,-3.17 4.92,-11.44 8.9,-23.04 13.66,-34.48 3.18,0 6.36,0 9.53,0.16 -4.6,11.6 -8.89,23.36 -13.66,34.95 -2.06,5.56 -7.31,9.69 -13.34,9.69 -6.04,0.16 -12.23,0.32 -18.27,-0.16 -3.5,-0.31 -5.72,-4.13 -4.45,-7.3 3.18,-10.17 7.63,-19.86 11.12,-29.87 -0.95,0 -2.86,0 -3.81,0zm-77.37 -7.47c4.45,0 9.06,0 13.51,0 -4.77,12.71 -9.69,25.26 -14.62,37.81 5.56,0 10.96,0 16.52,0 -0.95,2.39 -1.74,4.77 -2.7,7.15 -8.73,-0.16 -17.47,0 -26.21,-0.16 4.77,-12.39 9.53,-24.78 14.46,-37.17 -0.96,0 -2.86,-0.16 -3.97,-0.32 0.95,-2.38 2.06,-4.76 3.01,-7.31zm-87.84 0c8.1,0.16 16.2,-0.15 24.46,0.16 3.02,0 7.15,1.59 6.99,5.25 -0.63,5.87 -3.02,11.91 -7.31,16.04 0.96,2.07 2.23,4.29 0.96,6.51 -2.39,6.52 -4.29,15.41 -12.55,16.68 -8.58,0.64 -17.16,0.16 -25.74,0.16 4.77,-12.55 9.85,-24.78 14.46,-37.33 -0.96,0 -3.02,0 -3.97,0 0.79,-2.54 1.74,-4.92 2.7,-7.47zm11.12 7.47l0 0zm0 0c-1.43,3.65 -2.86,7.15 -4.29,10.8 3.49,0 6.99,0.48 10.32,-0.31 2.7,-2.55 3.5,-6.68 3.98,-10.33 -3.34,-0.16 -6.68,-0.16 -10.01,-0.16zm-6.99 17.79l0 0zm0 0c-1.59,4.29 -3.34,8.42 -4.93,12.55 4.29,-0.31 9.06,1.12 12.87,-1.11 1.59,-3.49 3.65,-7.31 3.34,-11.28 -3.82,0 -7.47,0 -11.28,-0.16zm880.54 -177.12c33.84,0 67.51,0 101.35,0 -3.02,9.05 -6.36,17.95 -9.53,27 -7.63,0 -15.25,0 -23.04,0 1.12,-3.17 2.07,-6.35 3.18,-9.53 -3.65,0 -7.31,0 -10.96,0 -7.78,21.93 -15.73,43.85 -23.35,65.77 -10.96,0.32 -21.77,0.16 -32.73,0.16 7.79,-22.08 15.73,-44 23.35,-65.93 -3.81,-0.16 -7.62,0 -11.43,0 -1.11,3.18 -2.23,6.36 -3.34,9.53 -7.62,0 -15.41,0 -23.19,0 3.18,-9.05 6.35,-18.11 9.69,-27zm-107.39 0c13.82,0 27.48,0 41.3,0 -7.62,21.92 -15.4,43.68 -23.03,65.61 5.24,0 10.64,0 16.04,0 7.79,-21.93 15.57,-43.85 23.36,-65.61 10.8,0 21.76,0 32.56,0 -7.46,21.13 -14.93,42.1 -22.4,63.22 -1.74,4.93 -3.97,10.01 -8.42,13.19 -8.42,6.67 -19.85,7.15 -30.18,6.99 -11.6,-0.16 -23.19,0.79 -34.63,-1.11 -3.81,-0.96 -8.42,-2.39 -10.01,-6.36 -1.59,-3.49 -0.16,-7.15 0.96,-10.48 6.98,-19.38 13.82,-38.76 20.81,-57.98 -2.07,-2.55 -4.29,-4.93 -6.36,-7.47zm-94.84 0c20.34,0 40.67,-0.16 60.85,0 6.19,0.32 14.61,2.22 15.72,9.53 0.16,6.67 -2.7,12.71 -4.44,19.06 -9.22,0.16 -18.59,0 -27.81,0 1.28,-3.65 2.55,-7.46 3.98,-11.12 -5.88,0 -11.6,0 -17.32,0 -6.99,15.57 -12.71,31.61 -17.47,48.14 15.09,0 30.18,0 45.27,0 -2.06,5.87 -4.13,11.75 -6.19,17.79 -17.16,0 -34.32,0.16 -51.32,0 -6.19,-0.48 -13.02,-0.48 -18.1,-4.45 -3.82,-3.49 -2.39,-9.21 -1.28,-13.66 3.5,-12.07 8.26,-23.83 12.4,-35.74 3.17,-7.95 5.56,-16.53 11.91,-22.56 -2.07,-2.23 -4.13,-4.61 -6.2,-6.99zm-60.68 0c13.98,0 27.8,0 41.62,0 -9.69,27.8 -19.54,55.6 -29.39,83.4 -10.96,0 -21.76,0 -32.56,0 8.89,-25.26 17.63,-50.68 26.69,-75.93 -2.07,-2.55 -4.29,-4.93 -6.36,-7.47zm-113.9 0c33.84,0 67.67,0 101.51,0 -3.18,8.89 -6.35,17.95 -9.53,26.84 -7.78,0.16 -15.41,0.16 -23.19,0.16 1.11,-3.17 2.22,-6.35 3.33,-9.53 -3.65,0 -7.46,0 -11.12,0 -7.78,21.93 -15.57,44.01 -23.51,65.93 -10.8,0 -21.6,0 -32.56,0 7.78,-21.92 15.72,-44 23.51,-65.93 -3.82,0 -7.63,0 -11.44,0 -1.11,3.18 -2.38,6.36 -3.5,9.53 -7.62,0 -15.4,0 -23.19,-0.16 3.18,-8.89 6.51,-17.95 9.69,-26.84zm-98.97 0c20.18,0 40.35,-0.16 60.53,0 6.35,0.32 14.93,2.22 16.04,9.69 0,6.51 -2.86,12.71 -4.6,18.9 -9.22,0 -18.43,0 -27.8,0 1.27,-3.65 2.7,-7.46 3.97,-11.12 -5.72,0 -11.44,0 -17.16,-0.16 -7.15,15.73 -12.71,31.77 -17.47,48.3 15.09,0 30.18,-0.32 45.27,0.15 -2.22,5.88 -4.29,11.76 -6.35,17.64 -16.05,0 -32.25,0 -48.3,0 -6.03,-0.16 -12.55,-0.16 -18.26,-2.7 -3.66,-1.43 -6.2,-5.72 -5.25,-9.85 1.91,-11.44 6.83,-21.92 10.49,-32.89 4.13,-10.48 6.67,-21.92 14.45,-30.49 -0.63,-3.02 -3.81,-5.09 -5.56,-7.47zm-101.66 0c28.27,0 56.55,0 84.67,0 -2.86,9.05 -6.36,17.79 -9.38,26.84 -9.05,0.16 -18.27,0.16 -27.48,0.16 1.11,-3.17 2.23,-6.19 3.18,-9.21 -5.4,0 -10.8,0 -16.36,0.16 -1.75,5.08 -3.5,10.17 -5.25,15.25 8.11,0 16.21,0 24.31,0 -1.59,5.24 -3.5,10.32 -5.4,15.41 -8.26,-0.16 -16.36,0 -24.62,0 -1.91,5.56 -3.82,11.28 -5.88,17 14.45,0 29.07,-0.16 43.68,0 -2.06,5.87 -4.13,11.75 -6.19,17.79 -25.26,0 -50.52,0 -75.78,0 8.1,-23.51 16.52,-47.02 24.94,-70.53 0.48,-1.91 1.91,-3.82 1.43,-5.88 -1.74,-2.54 -3.81,-4.77 -5.87,-6.99zm-118.03 0c13.18,0 26.37,0 39.39,0 5.24,16.52 10.17,33.2 15.41,49.72 5.56,-16.52 11.44,-33.04 16.68,-49.72 9.85,0 19.7,0 29.39,0 -9.85,27.8 -19.7,55.6 -29.71,83.4 -10.16,0 -20.33,0 -30.5,0 -5.4,-15.89 -10.64,-31.93 -16.04,-47.82 -5.72,15.89 -10.65,31.93 -16.36,47.82 -9.38,0 -18.91,0 -28.44,0 8.74,-25.58 18.11,-50.84 26.53,-76.41 -2.22,-2.23 -4.29,-4.61 -6.35,-6.99zm-117.88 0c13.19,0 26.37,0 39.4,0 5.24,16.68 10.17,33.36 15.41,49.88 5.4,-16.68 11.44,-33.2 16.68,-49.88 9.85,0 19.7,0 29.39,0 -9.85,27.8 -19.7,55.6 -29.71,83.4 -10.16,0 -20.33,0 -30.5,0 -5.4,-15.89 -10.64,-31.77 -16.04,-47.66 -5.72,15.73 -10.65,31.77 -16.37,47.66 -9.37,0 -18.9,0 -28.43,0 8.9,-25.26 17.47,-50.52 26.53,-75.62 -1.91,-2.7 -4.13,-5.24 -6.36,-7.78zm-103.89 0c20.65,0 41.3,-0.16 61.96,0.16 6.19,0.47 14.29,0.47 18.11,6.51 2.86,6.67 -0.48,13.98 -2.71,20.49 -5.08,13.66 -8.89,27.64 -15.09,40.99 -3.49,7.94 -11.59,13.34 -20.17,14.45 -12.07,1.59 -24.46,0.48 -36.7,0.8 -7.15,-0.48 -15.25,0.16 -21.44,-4.29 -4.61,-3.97 -3.18,-10.96 -1.59,-16.36 4.13,-12.24 8.42,-24.47 12.87,-36.54 2.7,-6.99 5.56,-13.98 10.48,-19.7 -1.91,-2.22 -3.97,-4.29 -5.72,-6.51zm30.66 17.79l0 0zm0 0c-6.35,15.73 -12.23,31.61 -17.16,47.82 5.88,0 11.76,0 17.64,-0.16 5.56,-15.89 11.12,-31.77 16.68,-47.66 -5.72,0 -11.44,0 -17.16,0zm-134.39 -17.79c20.33,0 40.67,-0.16 61,0 5.72,0.48 13.03,1.9 15.25,8.1 0.95,6.99 -2.38,13.66 -4.29,20.49 -9.21,0.16 -18.43,0 -27.64,0 1.27,-3.81 2.54,-7.46 3.81,-11.12 -5.72,0 -11.44,0 -17.31,0 -6.83,15.57 -12.55,31.61 -17.32,47.98 15.09,0.31 30.18,0 45.27,0.16 -2.06,5.87 -4.13,11.91 -6.35,17.79 -17,0 -33.99,0 -51.15,0 -6.04,-0.48 -12.87,-0.32 -17.95,-4.29 -3.97,-3.34 -3.02,-8.9 -1.75,-13.19 3.18,-11.28 7.63,-22.08 11.44,-33.04 3.49,-9.05 6.04,-18.9 13.03,-25.89 -2.07,-2.38 -4.14,-4.77 -6.04,-6.99zm1296.9 -122.8c33.2,2.07 67.04,-4.45 96.59,-20.17 -10.49,16.2 -20.81,32.88 -25.74,51.63l-0.32 0.79c24.31,-0.48 48.77,-0.48 72.92,2.7 13.82,12.71 25.26,28.28 31.93,45.91 -26.69,-10.96 -54.33,-19.7 -82.76,-25.1 11.11,11.6 21.44,24.15 31.13,37.01 3.02,3.98 3.66,8.9 5.08,13.51 4.93,15.41 12.55,30.18 23.52,42.25 -6.2,9.85 -11.44,20.65 -11.92,32.25 29.39,-17 60.21,-31.61 91.98,-43.21 3.65,27.33 7.47,54.81 7.62,82.45 -9.05,8.74 -21.44,13.18 -32.88,18.11 0.79,0.47 2.22,1.11 3.02,1.59l-2.54 -0.32c10.01,22.87 20.49,45.75 30.34,68.78 -4.93,7.47 -10.49,14.62 -16.84,20.81 -16.52,-12.7 -34.31,-23.35 -52.26,-33.99 -18.59,-10.49 -37.65,-20.97 -58.15,-27.64 -27,12.23 -46.38,38.44 -51.62,67.51 7.78,-4.76 15.25,-10.01 23.03,-14.61 29.23,2.7 58.46,7.46 86.26,16.99 4.92,2.23 10.33,3.5 14.77,6.68 6.83,8.42 11.76,18.26 15.57,28.43 -15.09,3.97 -31.45,2.38 -45.43,-4.76 3.65,18.42 15.88,35.9 34.47,41.46 2.22,20.01 5.72,39.87 10.33,59.41 -45.6,-11.12 -89.76,-27.64 -132.81,-46.55 -50.36,-22.55 -99.44,-48.45 -146.3,-77.68 -5.25,-2.7 -6.99,-8.89 -10.01,-13.5 -15.09,-28.43 -26.85,-58.46 -37.97,-88.48 12.23,-7.94 24.15,-16.36 35.9,-24.78 8.74,-8.26 14.78,-18.75 20.49,-29.23 -14.77,4.6 -30.34,6.35 -45.75,6.67 -2.7,0.32 -4.44,-2.07 -6.51,-3.18 -14.3,-10.48 -26.69,-23.67 -36.7,-38.28 3.66,-10.17 7.15,-20.49 10.97,-30.66 22.08,0 44.16,0 66.24,0 2.54,7.62 3.81,15.57 4.92,23.51 25.74,18.43 52.74,35.26 81.66,48.13 18.74,8.26 38.6,14.62 59.09,15.73 -24.46,-20.33 -49.4,-40.19 -72.91,-61.8 -3.66,-3.81 -8.74,-6.83 -9.7,-12.55 -8.89,-34.78 -15.88,-70.05 -19.06,-105.79 13.19,-10.49 26.53,-20.65 40.35,-30.03zm44.8 226.85l0 0zm0 0c1.59,8.58 4.29,17.47 10.64,23.99 2.07,2.22 4.93,3.81 6.99,6.19 0.32,5.4 1.12,10.96 3.5,15.89 10.16,-9.38 21.6,-17.32 33.83,-23.99 -7.62,-3.18 -15.56,-5.24 -23.67,-6.51 -11.91,-1.59 -22.55,-7.79 -31.29,-15.57zm196.19 -350.12c-0.32,-7.63 -4.13,-14.77 -3.34,-22.4 17.79,26.37 14.46,63.39 -3.81,88.64 -3.97,-5.24 -7.94,-10.64 -11.92,-15.72 12.87,-13.35 20.82,-31.78 19.07,-50.52zm-223.36 -33.84c14.14,-40.03 54.18,-67.67 95.8,-71.32 0.31,0.47 0.95,1.43 1.27,1.9 -0.32,0 -1.12,0.16 -1.59,0.16 -3.34,0.32 -6.52,1.11 -9.38,3.02 -25.09,14.46 -42.89,40.83 -46.7,69.42 -3.97,27.48 4.77,55.12 17.32,79.27 -14.14,-0.64 -28.28,-5.72 -39.4,-14.46 -17.79,-16.99 -25.42,-44.48 -17.32,-67.99zm-26.36 -47.02c-25.74,-4.76 -51.95,-7.62 -78.16,-6.03 -87.37,4.6 -171.57,52.26 -219.22,125.81 -285.95,0 -571.73,0 -857.51,0 -4.29,-7.62 -10.49,-14.14 -17.95,-18.43 -17.32,-10.16 -37.97,-11.12 -57.51,-11.43 -58.93,0 -117.87,-0.16 -176.8,0 12.86,15.56 26.37,30.65 39.71,45.9 -12.55,24.47 -20.18,51.16 -29.87,76.73 -7.3,21.45 -17.79,42.73 -16.68,65.77 0.48,17.16 11.6,33.04 27.01,40.03 21.29,10.48 45.75,8.9 68.78,9.06 2.39,2.85 4.93,5.71 7.47,8.73 -6.35,15.25 -12.07,30.98 -17,46.86 -3.02,10.17 -4.44,21.77 0.8,31.62 6.51,11.75 20.17,18.11 33.36,18.58 306.11,0 612.23,0 918.35,0 1.74,6.04 3.65,12.24 5.56,18.27 -283.4,0 -566.8,-0.16 -850.36,0 10.64,12.71 21.6,24.94 32.41,37.49 -6.68,18.75 -13.51,37.17 -20.18,55.92 282.61,0 565.21,0 847.82,0 -21.45,26.21 -39.56,56.87 -44.17,91.02 22.24,-10 45.12,-18.26 68.63,-24.62 30.34,-7.46 61.64,-11.59 93.09,-12.87 70.06,-1.11 137.57,22.24 200.95,50.2 45.44,18.75 88.8,41.78 131.54,65.93 21.44,11.75 41.78,25.89 64.33,35.26 42.42,19.07 91.35,27.8 136.62,14.46 -5.88,-7.63 -11.12,-15.73 -15.57,-24.15 -20.33,-38.44 -30.5,-81.49 -34.63,-124.54 -1.27,-4.76 3.02,-7.94 4.77,-11.91 4.92,-10.96 3.81,-23.67 2.06,-35.27 14.78,-16.04 29.87,-31.93 41.15,-50.67 -3.02,-6.04 -5.88,-12.24 -8.26,-18.59 16.2,2.7 32.4,5.4 48.61,7.94 -6.84,-49.72 -14.94,-99.6 -29.08,-147.73 6.04,-6.2 12.87,-11.76 18.91,-17.96 0.48,-6.19 -1.43,-12.39 -2.38,-18.42 -9.22,-47.34 -25.74,-93.25 -48.61,-135.82 19.06,-20.5 28.11,-48.77 28.43,-76.41 0.48,-20.66 -4.13,-41.47 -14.61,-59.26 -13.03,-22.87 -31.78,-42.89 -55.13,-55.28 -0.16,16.68 -4.92,33.2 -12.39,47.97 -7.62,14.78 -18.43,29.55 -34.47,35.75 -3.18,-2.39 -6.19,-4.61 -9.37,-6.99 -2.86,-14.94 -8.9,-28.91 -15.73,-42.42 -5.08,-10.16 -3.65,-22.24 0,-32.56 6.83,-18.91 18.91,-35.43 32.25,-50.2 -64.34,-28.91 -146.15,-4.29 -186.97,52.26z"/>
   <path class="fil2" d="M1188.96 596.27c37.01,0 74.03,-0.16 110.88,0 -4.92,49.56 -9.69,98.96 -14.61,148.53 -19.7,0 -39.4,0 -59.1,0 1.75,-12.23 3.81,-24.31 5.4,-36.54 -11.75,0 -23.51,-0.16 -35.1,0 -6.52,12.23 -13.19,24.31 -19.7,36.54 -19.38,0 -38.76,0 -58.3,0 27.32,-45.44 54.64,-90.71 81.81,-136.14 -3.81,-3.97 -7.47,-8.26 -11.28,-12.39zm476.25 359.01c5.72,-3.33 11.44,-6.67 17.32,-9.85 12.07,5.72 23.98,12.08 34.79,19.86 -17.32,-3.81 -34.64,-7.47 -52.11,-10.01zm32.09 -210.48c14.61,7.62 29.55,14.93 43.05,24.78 -3.34,2.06 -6.51,4.13 -9.69,6.04 1.59,5.24 3.49,10.48 5.08,15.72 -19.06,-8.89 -31.13,-27.48 -38.44,-46.54zm-13.34 -139.32c1.27,-1.11 2.54,-4.13 4.76,-2.54 31.46,13.98 62.75,29.55 89.91,50.99 23.67,34.63 40.99,73.55 50.84,114.38 -9.53,7.62 -19.06,15.09 -28.91,22.24 15.09,38.44 26.21,78.63 31.29,119.62 -21.92,-5.56 -43.84,-11.44 -64.97,-19.38 -0.8,-0.48 -2.23,-1.12 -3.02,-1.59 11.44,-4.93 23.83,-9.37 32.88,-18.11 -0.15,-27.64 -3.97,-55.12 -7.62,-82.45 1.59,-20.33 -1.75,-40.82 -7.15,-60.36 -2.86,3.49 -5.72,6.99 -8.58,10.64 -12.07,-24.15 -28.91,-45.91 -48.13,-64.81 -4.93,-4.29 -9.53,-9.38 -15.09,-12.87 -28.6,0 -57.83,6.83 -82.61,21.29 4.93,-18.75 15.25,-35.43 25.74,-51.63 10.8,-7.47 22.08,-14.93 30.66,-25.42zm-333.76 -9.37c24.62,0.16 49.4,0 74.03,0 -13.82,39.24 -27.65,78.31 -41.31,117.55 26.69,0 53.38,0 80.07,0 -3.82,10.33 -7.47,20.81 -10.96,31.14 -46.07,0 -92.14,0 -138.05,0 15.73,-45.44 31.77,-90.71 47.5,-136.14 -3.81,-4.13 -7.47,-8.42 -11.28,-12.55zm-576.33 0c60.52,0.16 120.89,0 181.41,0.16 -5.72,16.04 -11.44,31.93 -17,47.97 -13.66,0.16 -27.32,0.16 -40.98,0 1.91,-5.56 3.97,-11.28 5.88,-17 -6.83,0.16 -13.67,0 -20.34,0.16 -13.98,39.24 -27.8,78.32 -41.78,117.4 -19.38,0 -38.6,0 -57.98,0 13.82,-39.24 27.8,-78.32 41.78,-117.56 -6.99,0 -13.98,0 -20.97,0.16 -1.9,5.56 -3.97,11.28 -6.03,17 -13.83,-0.16 -27.49,0 -41.15,-0.16 5.72,-16.04 11.44,-32.09 17.16,-48.13zm-212.55 0c23.35,0.16 46.7,0 70.05,0 9.22,30.02 18.43,59.89 27.49,89.91 10.16,-29.86 20.17,-59.73 30.18,-89.75 17.31,-0.32 34.63,0.16 52.1,-0.16 -17.63,49.56 -35.26,99.12 -52.9,148.69 -18.26,0 -36.53,0 -54.64,0 -9.69,-28.6 -18.91,-57.19 -28.91,-85.47 -9.7,28.44 -19.38,56.87 -28.92,85.47 -16.99,0 -33.83,-0.16 -50.83,0 15.73,-45.28 31.61,-90.55 47.5,-135.82 -3.66,-4.29 -7.47,-8.58 -11.12,-12.87zm-171.09 0c50.36,0.16 100.71,0 151.07,0 -5.72,16.04 -11.28,32.25 -17.15,48.29 -16.21,-0.16 -32.41,0 -48.61,-0.16 1.9,-5.56 3.97,-11.28 5.87,-17 -9.85,0 -19.7,0 -29.54,0.16 -3.34,9.38 -6.84,18.75 -10.01,28.12 14.61,0 29.23,0 43.84,0 -3.17,8.9 -6.03,17.79 -9.37,26.69 -2.07,1.59 -5.24,0.32 -7.63,0.79 -12.07,-0.16 -24.3,0 -36.37,-0.16 -3.97,10.17 -7.47,20.5 -11.12,30.82 26.21,0 52.26,0 78.31,0 -3.65,10.33 -7.3,20.81 -11.12,31.14 -45.11,0 -90.23,0 -135.18,0 15.88,-45.44 32.24,-90.71 48.13,-136.14 -3.81,-4.13 -7.47,-8.26 -11.12,-12.55zm-185.23 -29.87c40.19,0 80.54,0 120.89,0 11.6,0.48 23.83,1.12 34.16,6.99 7.15,4.13 10.64,12.87 9.05,20.81 -2.06,11.6 -6.51,22.56 -10.32,33.68 -19.54,0 -39.24,0 -58.94,0 2.86,-8.1 5.72,-16.04 8.58,-24.15 -12.55,0 -25.26,0 -37.81,0 -14.93,33.68 -27.16,68.47 -37.33,103.9 32.25,0 64.65,-0.16 97.06,0.15 -4.45,12.4 -8.9,24.79 -13.18,37.18 -39.24,-0.16 -78.48,0.16 -117.56,0 -10.48,-0.8 -22.08,-2.07 -30.66,-8.9 -4.92,-4.13 -6.67,-11.12 -5.72,-17.31 1.43,-12.08 5.4,-23.51 9.85,-34.79 7.95,-21.93 15.73,-44.01 23.99,-65.77 5.08,-13.03 10.33,-26.85 21.13,-36.54 -4.45,-4.92 -8.9,-10 -13.19,-15.25zm1584.91 -67.99c1.43,2.54 2.86,4.93 4.45,7.15 -0.79,7.63 3.02,14.77 3.34,22.4 1.75,18.74 -6.2,37.17 -19.07,50.52 -6.83,-8.42 -13.82,-16.52 -21.28,-24.31 17.47,-13.5 28.43,-34.15 32.56,-55.76zm-129.47 -70.53c2.86,-1.91 6.04,-2.7 9.38,-3.02 -10.17,18.43 -16.52,40.35 -11.44,61.32 2.06,10.33 8.74,18.75 12.39,28.44 4.29,10.64 6.67,22.87 2.38,33.83 -7.14,16.36 -23.98,28.44 -42.09,28.12 -12.55,-24.15 -21.29,-51.79 -17.32,-79.27 3.81,-28.59 21.61,-54.96 46.7,-69.42zm-684.98 168.39c38.12,0.16 76.09,0 114.21,0.16 10.81,0.63 22.56,0.95 31.62,7.78 7.46,5.56 6.67,16.36 3.97,24.15 -3.66,10.01 -6.52,20.97 -14.3,28.75 -6.83,6.51 -15.88,9.69 -24.78,12.07 6.04,3.66 14.45,4.93 17.95,11.76 3.18,6.67 0.32,13.98 -2.06,20.33 -5.09,14.46 -10.17,29.07 -15.1,43.69 -19.22,0 -38.44,0 -57.5,0 6.99,-20.02 14.14,-39.88 21.28,-59.73 -10.8,0 -21.6,0 -32.4,-0.16 -7.31,20.01 -14.3,40.03 -21.45,59.89 -19.54,0 -39.08,0 -58.46,0 15.89,-45.28 32.09,-90.55 48.3,-135.82 -3.82,-4.29 -7.63,-8.58 -11.28,-12.87zm63.22 31.29l0 0zm0 0c-3.49,9.85 -7.15,19.86 -10.64,29.87 10.8,0 21.44,-0.16 32.25,0 3.65,-10.01 7.14,-20.02 10.64,-30.03 -10.8,0.16 -21.45,0 -32.25,0.16zm171.73 55.13l0 0zm0 0c8.57,0 17.15,0 25.57,0 3.18,-20.18 6.04,-40.51 9.21,-60.69 -11.75,20.18 -23.19,40.51 -34.78,60.69z"/>
  </g>
 </g>
</svg>
