<?xml version="1.0" encoding="UTF-8"?>
<!DOCTYPE svg PUBLIC "-//W3C//DTD SVG 1.1//EN" "http://www.w3.org/Graphics/SVG/1.1/DTD/svg11.dtd">
<!-- Creator: CorelDRAW -->
<svg xmlns="http://www.w3.org/2000/svg" xml:space="preserve" width="2000px" height="1600px" version="1.1" style="shape-rendering:geometricPrecision; text-rendering:geometricPrecision; image-rendering:optimizeQuality; fill-rule:evenodd; clip-rule:evenodd"
viewBox="0 0 2000 1600"
 xmlns:xlink="http://www.w3.org/1999/xlink">
 <defs>
  <style type="text/css">
   <![CDATA[
    .fil0 {fill:black;fill-rule:nonzero}
    .fil2 {fill:#C29A5B;fill-rule:nonzero}
    .fil1 {fill:#FEFEFE;fill-rule:nonzero}
   ]]>
  </style>
 </defs>
 <g id="Capa_x0020_1">
  <metadata id="CorelCorpID_0Corel-Layer"/>
  <g id="Central_x0020_Florida_x0020_Knights.cdr">
   <path class="fil0" d="M100 90.5l944.86 0c-22.9,92.41 -45.44,184.91 -68.16,277.36 4.48,-2.02 8.81,-5.39 14,-4.94 91.58,0.22 183.17,-0.28 274.73,0.24 55.1,37.49 109.44,76.21 164.29,114.15 12.7,9.06 25.74,17.65 38.29,26.91 0.43,3.61 -1.3,7.18 -1.95,10.73 -14.71,59.05 -29.24,118.14 -43.85,177.18 159.25,0.02 318.52,-0.03 477.79,0.04 -21.7,88.01 -43.13,176.07 -64.89,264.07 -31.35,0.09 -62.69,-0.26 -94.05,0.17 -20.83,86.5 -42.31,172.83 -63.39,259.25 -82.5,0 -165.01,-0.02 -247.5,0.02 -23.96,97.95 -47.93,195.93 -72.11,293.82l-360.68 0c27.06,-109.2 53.71,-218.5 80.51,-327.76 -91.21,-0.06 -182.43,0.04 -273.63,-0.06 -64.37,-47.74 -128.85,-95.31 -193.25,-143.01 11.46,-45.57 22.61,-91.23 33.9,-136.85 -95.14,0.02 -190.29,0 -285.44,0 -65.78,-46.64 -131.57,-93.28 -197.43,-139.83 42.66,-173.78 85.29,-347.58 127.86,-521.35 -63.27,-49.98 -126.67,-99.78 -189.9,-149.81l0 -0.33zm188.91 65.57l0 0c24.76,19.96 49.94,39.39 74.82,59.18 -42.31,173.02 -84.93,345.96 -127.17,518.97 48.02,34.02 96.02,68.07 144.06,102.05 83.78,0 167.57,0 251.35,0 3.55,0.22 6.34,-2.27 9.33,-3.74 35.55,-19.68 71.1,-39.32 106.68,-58.9 -19.51,78.95 -38.94,157.93 -58.53,236.86 46.03,33.9 91.86,68.03 137.85,101.95 85.61,-0.13 171.23,0.25 256.84,-0.18 31.72,-16.8 63.15,-34.22 94.75,-51.31 -31.07,126.89 -62.26,253.76 -93.28,380.67 72.58,-0.02 145.17,0.02 217.76,-0.02 24.25,-98.38 48.31,-196.8 72.43,-295.22 82.49,-0.01 164.97,0.02 247.47,-0.01 10.34,-41.96 20.66,-83.94 30.81,-125.95 -82.44,-0.09 -164.9,0 -247.35,-0.05 6.1,-25 12.33,-49.94 18.36,-74.95 -24.77,-19.49 -49.58,-38.93 -74.24,-58.55 143.31,0.15 286.62,0.06 429.94,0.04 10.3,-41.81 20.61,-83.62 30.76,-125.46 -216.16,-0.04 -432.32,-0.06 -648.47,0 24.72,19.92 49.64,39.59 74.43,59.45 -44.99,0.06 -89.97,0 -134.96,0.02 -13.62,55.02 -27.14,110.05 -40.77,165.04 -49.91,0 -99.81,0.07 -149.71,-0.04 30.18,-122.98 60.93,-245.86 91,-368.88 -24.79,-19.42 -49.53,-38.89 -74.3,-58.35 79.54,-0.01 159.09,0.02 238.63,-0.01 -10.86,43.68 -21.71,87.39 -32.4,131.13 72.12,0 144.24,-0.04 216.37,0.02 12.79,-51.91 25.74,-103.76 38.46,-155.67 -48.65,-33.99 -97.2,-68.21 -146.14,-101.73 -80.01,-0.35 -160.06,-0.27 -240.06,-0.03 -42.26,21.5 -84.31,43.52 -126.3,65.52 27.69,-114.01 55.79,-227.92 83.73,-341.87 -102.46,0.02 -204.91,-0.01 -307.37,0.02 24.83,19.92 49.94,39.47 74.91,59.2 -40.37,165 -81.01,329.94 -121.31,494.96 -49.02,0.07 -98.05,0.04 -147.07,0.02 45.4,-184.71 90.51,-369.5 136,-554.2 -102.43,0.02 -204.87,0 -307.31,0.02z"/>
   <path class="fil1" d="M373.2 185.38c61.84,-0.07 123.69,-0.02 185.53,-0.03 -2.25,10.24 -5.09,20.36 -7.33,30.61 -41.84,0.15 -83.71,0.05 -125.55,0.05 -43.15,174.9 -86.05,349.83 -129.27,524.7 -9.12,-6.12 -18,-12.59 -26.97,-18.95 42.42,-172.62 84.79,-345.25 127.02,-517.91 -7.85,-6.12 -15.6,-12.33 -23.43,-18.47zm1026.71 864.33c72.29,-0.04 144.6,-0.07 216.9,0 -2.4,10.19 -4.93,20.35 -7.42,30.5 -72.29,0.34 -144.6,0.08 -216.9,0.13 2.27,-10.26 5.02,-20.4 7.42,-30.63zm-274.3 -199.96c31.24,0.06 62.49,-0.07 93.73,0.06 -2.21,10.43 -5.02,20.71 -7.55,31.07 -20.74,0.08 -41.49,-0.05 -62.23,0.08 -13.55,54.97 -27.21,109.95 -40.74,164.94 -70.38,0.11 -140.75,0.02 -211.13,0.06 2.38,-10.25 4.88,-20.48 7.5,-30.67 59.77,0.03 119.54,-0.13 179.32,0.07 14.02,-55.12 27.34,-110.41 41.1,-165.61zm121.8 -59.03c175.61,-0.04 351.21,-0.02 526.83,0 -2.36,10.25 -5,20.44 -7.55,30.65 -155.66,0.04 -311.34,0 -467.01,0.02 -48.52,196.78 -96.65,393.66 -145.08,590.44 -10.56,0.04 -21.12,0.07 -31.69,-0.02 49.42,-200.86 98.55,-401.77 147.93,-602.62 -7.85,-6.14 -15.66,-12.26 -23.43,-18.47zm-50.09 -231.08c10.55,-0.03 21.09,0.02 31.65,-0.03 -8.44,33.64 -16.49,67.38 -25.06,100.98 -10.49,-0.16 -20.96,0 -31.43,-0.11 8.07,-33.66 16.49,-67.25 24.84,-100.84zm-190.51 -96.16c2.51,-1.44 5.28,-2.24 8.2,-1.99 72.6,0.13 145.19,-0.06 217.78,0.09 2.69,-0.26 4.61,2.06 6.79,3.29 13.07,9.34 26.44,18.28 39.46,27.71 -87.06,0.43 -174.17,-0.41 -261.19,0.43 -53,26.95 -105.48,55.01 -158.45,82.07 -36.8,147.7 -73.16,295.52 -110.12,443.18 -8.98,-6.54 -17.93,-13.11 -26.72,-19.86 36.9,-148.11 73.03,-296.41 110,-444.48 58.12,-30.08 116.18,-60.26 174.25,-90.44zm-268.8 -278.13c61.9,0.03 123.79,-0.1 185.68,0.07 -2.49,10.21 -5.02,20.4 -7.46,30.61 -41.95,-0.02 -83.91,0.02 -125.86,-0.02 -45.64,184.85 -90.71,369.84 -136.27,554.7 -69.44,0 -138.91,-0.02 -208.35,0 2.44,-10.41 5.23,-20.72 7.64,-31.13 58.92,-0.06 117.84,0.02 176.76,-0.04 43.78,-178.54 87.65,-357.06 131.31,-535.62 -7.81,-6.21 -15.69,-12.29 -23.45,-18.57z"/>
   <path class="fil2" d="M288.91 156.07c102.44,-0.02 204.88,0 307.31,-0.02 -45.49,184.7 -90.6,369.49 -136,554.2 49.02,0.02 98.05,0.05 147.07,-0.02 40.3,-165.02 80.94,-329.96 121.31,-494.96 -24.97,-19.73 -50.08,-39.28 -74.91,-59.2 102.46,-0.03 204.91,0 307.37,-0.02 -27.94,113.95 -56.04,227.86 -83.73,341.87 41.99,-22 84.04,-44.02 126.3,-65.52 80,-0.24 160.05,-0.32 240.06,0.03 48.94,33.52 97.49,67.74 146.14,101.73 -12.72,51.91 -25.67,103.76 -38.46,155.67 -72.13,-0.06 -144.25,-0.02 -216.37,-0.02 10.69,-43.74 21.54,-87.45 32.4,-131.13 -79.54,0.03 -159.09,0 -238.63,0.01 24.77,19.46 49.51,38.93 74.3,58.35 -30.07,123.02 -60.82,245.9 -91,368.88 49.9,0.11 99.8,0.04 149.71,0.04 13.63,-54.99 27.15,-110.02 40.77,-165.04 44.99,-0.02 89.97,0.04 134.96,-0.02 -24.79,-19.86 -49.71,-39.53 -74.43,-59.45 216.15,-0.06 432.31,-0.04 648.47,0 -10.15,41.84 -20.46,83.65 -30.76,125.46 -143.32,0.02 -286.63,0.11 -429.94,-0.04 24.66,19.62 49.47,39.06 74.24,58.55 -6.03,25.01 -12.26,49.95 -18.36,74.95 82.45,0.05 164.91,-0.04 247.35,0.05 -10.15,42.01 -20.47,83.99 -30.81,125.95 -82.5,0.03 -164.98,0 -247.47,0.01 -24.12,98.42 -48.18,196.84 -72.43,295.22 -72.59,0.04 -145.18,0 -217.76,0.02 31.02,-126.91 62.21,-253.78 93.28,-380.67 -31.6,17.09 -63.03,34.51 -94.75,51.31 -85.61,0.43 -171.23,0.05 -256.84,0.18 -45.99,-33.92 -91.82,-68.05 -137.85,-101.95 19.59,-78.93 39.02,-157.91 58.53,-236.86 -35.58,19.58 -71.13,39.22 -106.68,58.9 -2.99,1.47 -5.78,3.96 -9.33,3.74 -83.78,0 -167.57,0 -251.35,0 -48.04,-33.98 -96.04,-68.03 -144.06,-102.05 42.24,-173.01 84.86,-345.95 127.17,-518.97 -24.88,-19.79 -50.06,-39.22 -74.82,-59.18zm84.29 29.31l0 0c7.83,6.14 15.58,12.35 23.43,18.47 -42.23,172.66 -84.6,345.29 -127.02,517.91 8.97,6.36 17.85,12.83 26.97,18.95 43.22,-174.87 86.12,-349.8 129.27,-524.7 41.84,0 83.71,0.1 125.55,-0.05 2.24,-10.25 5.08,-20.37 7.33,-30.61 -61.84,0.01 -123.69,-0.04 -185.53,0.03zm364.81 -0.03l0 0c7.76,6.28 15.64,12.36 23.45,18.57 -43.66,178.56 -87.53,357.08 -131.31,535.62 -58.92,0.06 -117.84,-0.02 -176.76,0.04 -2.41,10.41 -5.2,20.72 -7.64,31.13 69.44,-0.02 138.91,0 208.35,0 45.56,-184.86 90.63,-369.85 136.27,-554.7 41.95,0.04 83.91,0 125.86,0.02 2.44,-10.21 4.97,-20.4 7.46,-30.61 -61.89,-0.17 -123.78,-0.04 -185.68,-0.07zm268.8 278.13l0 0c-58.07,30.18 -116.13,60.36 -174.25,90.44 -36.97,148.07 -73.1,296.37 -110,444.48 8.79,6.75 17.74,13.32 26.72,19.86 36.96,-147.66 73.32,-295.48 110.12,-443.18 52.97,-27.06 105.45,-55.12 158.45,-82.07 87.02,-0.84 174.13,0 261.19,-0.43 -13.02,-9.43 -26.39,-18.37 -39.46,-27.71 -2.18,-1.23 -4.1,-3.55 -6.79,-3.29 -72.59,-0.15 -145.18,0.04 -217.78,-0.09 -2.92,-0.25 -5.69,0.55 -8.2,1.99zm190.51 96.16l0 0c-8.35,33.59 -16.77,67.18 -24.84,100.84 10.47,0.11 20.94,-0.05 31.43,0.11 8.57,-33.6 16.62,-67.34 25.06,-100.98 -10.56,0.05 -21.1,0 -31.65,0.03zm50.09 231.08l0 0c7.77,6.21 15.58,12.33 23.43,18.47 -49.38,200.85 -98.51,401.76 -147.93,602.62 10.57,0.09 21.13,0.06 31.69,0.02 48.43,-196.78 96.56,-393.66 145.08,-590.44 155.67,-0.02 311.35,0.02 467.01,-0.02 2.55,-10.21 5.19,-20.4 7.55,-30.65 -175.62,-0.02 -351.22,-0.04 -526.83,0zm-121.8 59.03l0 0c-13.76,55.2 -27.08,110.49 -41.1,165.61 -59.78,-0.2 -119.55,-0.04 -179.32,-0.07 -2.62,10.19 -5.12,20.42 -7.5,30.67 70.38,-0.04 140.75,0.05 211.13,-0.06 13.53,-54.99 27.19,-109.97 40.74,-164.94 20.74,-0.13 41.49,0 62.23,-0.08 2.53,-10.36 5.34,-20.64 7.55,-31.07 -31.24,-0.13 -62.49,0 -93.73,-0.06zm274.3 199.96l0 0c-2.4,10.23 -5.15,20.37 -7.42,30.63 72.3,-0.05 144.61,0.21 216.9,-0.13 2.49,-10.15 5.02,-20.31 7.42,-30.5 -72.3,-0.07 -144.61,-0.04 -216.9,0z"/>
  </g>
 </g>
</svg>
