<?xml version="1.0" encoding="UTF-8"?>
<!DOCTYPE svg PUBLIC "-//W3C//DTD SVG 1.1//EN" "http://www.w3.org/Graphics/SVG/1.1/DTD/svg11.dtd">
<!-- Creator: CorelDRAW -->
<svg xmlns="http://www.w3.org/2000/svg" xml:space="preserve" width="2000px" height="1600px" version="1.1" style="shape-rendering:geometricPrecision; text-rendering:geometricPrecision; image-rendering:optimizeQuality; fill-rule:evenodd; clip-rule:evenodd"
viewBox="0 0 2000 1600"
 xmlns:xlink="http://www.w3.org/1999/xlink">
 <defs>
  <style type="text/css">
   <![CDATA[
    .fil1 {fill:#6B0B24;fill-rule:nonzero}
    .fil2 {fill:#FDCD0A;fill-rule:nonzero}
    .fil0 {fill:#FEFEFE;fill-rule:nonzero}
   ]]>
  </style>
 </defs>
 <g id="Capa_x0020_1">
  <metadata id="CorelCorpID_0Corel-Layer"/>
  <g id="Central_x0020_Michigan_x0020_Chippewas.cdr">
   <path class="fil0" d="M1172.56 390.18c58.45,-0.02 116.9,-0.04 175.38,0.02 -2.69,6.29 -5.53,12.51 -8.26,18.77 -49.32,-0.02 -98.62,0.02 -147.94,-0.02 -81.79,181.16 -163.47,362.36 -245.15,543.58 -9.19,-0.02 -18.39,0.03 -27.58,-0.04 84.45,-187.46 169.08,-374.84 253.55,-562.31z"/>
   <path class="fil1" d="M1038.3 164.91l644.54 0c61.59,44.46 123.03,89.1 184.68,133.46 -47.98,101.47 -95.41,203.23 -143.78,304.5 -63.23,-0.39 -126.51,-0.06 -189.76,-0.17 -93.23,0.39 -186.43,-0.77 -279.66,-0.53 22.78,-51.7 45.68,-103.36 68.5,-155.06 5.65,-12.69 11.21,-25.42 16.86,-38.14 2.73,-6.26 5.57,-12.48 8.26,-18.77 -58.48,-0.06 -116.93,-0.04 -175.38,-0.02 -84.47,187.47 -169.1,374.85 -253.55,562.31 9.19,0.07 18.39,0.02 27.58,0.04 14.05,0 28.11,0 42.16,0 36.06,-0.02 72.1,0 108.17,-0.02 32.27,-72.87 64.49,-145.79 96.81,-218.64 53.73,0.45 107.45,-0.71 161.19,-0.49 107.57,0.37 215.12,-0.91 322.71,-0.49 -46.51,102.78 -93.37,205.39 -139.91,308.14 -0.93,3.88 -4.86,5.04 -8.05,6.49 -98.95,43.34 -197.55,87.56 -296.63,130.57 -216.18,0.51 -432.42,0.05 -648.63,0.23 -61.28,-45.44 -122.44,-91.08 -183.7,-136.54 9.34,-21.4 19.14,-42.57 28.68,-63.86 4.98,-11.19 10.15,-22.29 15.03,-33.52 68.85,0 137.7,-0.02 206.54,0.02 4.15,-8.64 8.24,-17.31 12.35,-25.95 -156.51,-0.02 -313.04,0.08 -469.57,-0.06 9.4,-20.87 18.92,-41.7 28.5,-62.51 87.37,0.04 174.75,0 262.13,0.02 7.64,-16.76 15.11,-33.58 22.75,-50.34 5.13,-11.55 10.38,-23.06 15.6,-34.57 114.37,-0.02 228.74,0.02 343.1,-0.02 3.44,-7.93 6.92,-15.87 10.32,-23.8 -237.85,-0.18 -475.67,-0.04 -713.52,-0.08 13.45,-29.51 26.5,-59.23 40.27,-88.6 123.5,0.29 246.98,0.04 370.48,0.13 25.81,-57.3 51.68,-114.55 77.49,-171.85 4.72,-10.51 9.54,-20.99 14.18,-31.54 46.08,0.02 92.17,-0.06 138.26,0.04 4.05,-8.42 7.91,-16.93 11.78,-25.45 -161.45,-0.06 -322.92,0.04 -484.4,-0.04 9.26,-20.36 18.25,-40.84 27.75,-61.08 115.22,0.19 230.44,0.05 345.68,0.09 10.55,-23.5 21.15,-46.97 31.75,-70.44 100.78,-44.54 201.56,-89.12 302.44,-133.46zm-891.48 1115.08c484.68,0.04 969.38,-0.08 1454.08,0.04 -16.07,34.7 -32,69.44 -47.96,104.2 -484.32,-0.04 -968.63,0.1 -1452.94,-0.08l0 -0.45c15.82,-34.47 31.16,-69.17 46.82,-103.71z"/>
   <path class="fil2" d="M1625.22 1279.99c11.19,0 22.39,-0.02 33.6,0.02 -23.71,51.77 -47.86,103.34 -71.73,155.05 -489.79,0.02 -979.57,0.08 -1469.36,-0.02 4.99,-11.03 9.91,-22.09 15.04,-33.03 478.57,0.04 957.13,0 1435.7,0.02 19.1,-40.6 37.84,-81.36 56.75,-122.04zm-1402.05 -335.51c73.75,-0.18 147.5,-0.04 221.25,-0.08 -4.88,11.23 -10.05,22.33 -15.03,33.52 -73.47,0.08 -146.91,0.04 -220.35,0.02 4.65,-11.19 9.49,-22.27 14.13,-33.46zm1457.13 -158.85c12.83,0.61 25.63,-0.83 38.46,-0.36 -45.95,102.16 -91.97,204.3 -138.43,306.24 -104.11,46.47 -208.21,93.07 -312.28,139.65 -4.15,1.66 -8.14,4.47 -12.8,4.11 -229.73,-0.06 -459.45,0.02 -689.2,-0.04 -55.18,-41.64 -110.44,-83.15 -165.56,-124.85 4.37,-10.12 9.03,-20.13 13.36,-30.26 52.05,38.79 103.71,78.14 155.74,117.01 227.2,-0.1 454.41,0.1 681.6,-0.1 20.68,-8.05 40.8,-17.88 61.28,-26.6 80.95,-35.82 162.02,-71.39 242.91,-107.35 33.96,-75.87 68.13,-151.65 102.16,-227.5 7.69,-16.59 14.62,-33.57 22.76,-49.95zm-1498.52 19.93c5.29,-11.49 10.37,-23.04 15.6,-34.55 108.45,-0.02 216.9,0.02 325.34,0 -5.22,11.51 -10.47,23.02 -15.6,34.57 -108.44,-0.02 -216.89,0.05 -325.34,-0.02zm167.03 -350.29c105.41,-0.06 210.83,0 316.23,-0.02 -4.64,10.55 -9.46,21.03 -14.18,31.54 -105.62,-0.08 -211.22,0.08 -316.84,-0.08 4.96,-10.47 9.78,-20.99 14.79,-31.44zm597.78 497.26c81.68,-181.22 163.36,-362.42 245.15,-543.58 49.32,0.04 98.62,0 147.94,0.02 -5.65,12.72 -11.21,25.45 -16.86,38.14 -35.37,0.02 -70.76,-0.02 -106.13,0.02 -75.97,168.47 -151.97,336.94 -227.94,505.4 -14.05,0 -28.11,0 -42.16,0zm929.9 -613.62c7.87,5.39 15.68,10.88 23.51,16.33l0 1.4c-47.67,101.27 -94.88,202.74 -142.53,304.03 -103.65,-1.04 -207.36,-0.26 -311.03,-0.51 -60.49,-1.04 -121,-0.26 -181.5,-0.53 6.46,-13.36 13.52,-26.42 20.17,-39.68 153.32,0.1 306.63,-0.02 459.97,0.06 43.85,-93.66 87.58,-187.4 131.41,-281.1z"/>
  </g>
 </g>
</svg>
