<?xml version="1.0" encoding="UTF-8"?>
<!DOCTYPE svg PUBLIC "-//W3C//DTD SVG 1.1//EN" "http://www.w3.org/Graphics/SVG/1.1/DTD/svg11.dtd">
<!-- Creator: CorelDRAW -->
<svg xmlns="http://www.w3.org/2000/svg" xml:space="preserve" width="2000px" height="1600px" version="1.1" style="shape-rendering:geometricPrecision; text-rendering:geometricPrecision; image-rendering:optimizeQuality; fill-rule:evenodd; clip-rule:evenodd"
viewBox="0 0 2000 1600"
 xmlns:xlink="http://www.w3.org/1999/xlink">
 <defs>
  <style type="text/css">
   <![CDATA[
    .fil0 {fill:#172B54;fill-rule:nonzero}
    .fil2 {fill:#EEA91E;fill-rule:nonzero}
    .fil1 {fill:#FEFEFE;fill-rule:nonzero}
   ]]>
  </style>
 </defs>
 <g id="Capa_x0020_1">
  <metadata id="CorelCorpID_0Corel-Layer"/>
  <g id="Chattanooga_x0020_Mocs.cdr">
   <path class="fil0" d="M970.47 80l851.23 0c-49.97,211.89 -99.35,423.92 -149.22,635.84 -219.85,-0.05 -439.68,0.04 -659.53,-0.03 10.45,-45.48 20.98,-90.92 31.34,-136.4 -4.13,0.01 -8.26,0.01 -12.38,0.01 -43.29,145.47 -80.39,292.84 -108.49,442.02 52.61,0 105.22,0 157.83,0 77.72,-0.88 155.47,-0.24 233.18,-0.43 98.94,-1.04 197.91,0.07 296.85,-0.76 -35.45,166.58 -71.02,333.15 -106.38,499.75l-921.29 0c-70.4,-3.35 -141.6,-11.64 -207.91,-36.72 -51.64,-19.39 -99.95,-50.02 -135.26,-92.86 -35.12,-42.06 -56.23,-95 -62.14,-149.32l0 -22c6.34,-74 17.02,-147.59 30.18,-220.66 6.84,-39.57 17.58,-78.3 26.8,-117.34 19.7,-80.96 39.44,-161.91 59.12,-242.87 16.4,-65.35 32.15,-130.94 51.9,-195.4 14.76,-47.46 31.87,-94.58 56.84,-137.75 37.66,-66.37 97.11,-118.84 164.93,-152.99 62.05,-31.46 130.38,-48.64 198.99,-58.31 67.36,-9.72 135.49,-11.76 203.41,-13.78z"/>
   <path class="fil1" d="M903.45 158.37c83.41,-4 166.91,-2.59 250.39,-2.83 191.04,-0.02 382.09,0.03 573.12,-0.02 -37.9,161.44 -75.78,322.88 -113.6,484.34 -167.84,0 -335.67,-0.02 -503.51,0 10.43,-45.45 20.99,-90.86 31.27,-136.34 -54.88,-0.17 -109.73,-0.01 -164.6,-0.08 -43.01,140.32 -81.27,282.16 -111.13,425.88 -11.76,55.81 -22.13,111.91 -31.94,168.07 83.76,0 167.5,0.11 251.26,-0.05 53.52,-0.85 107.08,-0.12 160.63,-0.36 38.57,0.33 77.12,-0.62 115.71,-0.43 52.46,0 104.93,0 157.38,0 -24.72,116.11 -49.51,232.21 -74.24,348.34 -238.39,0 -476.77,0 -715.17,0 -82.41,-0.34 -165.53,2.94 -247.04,-11.81 -39.35,-7.09 -78.37,-18.21 -113.73,-37.19 -28.7,-15.28 -54.74,-36.14 -74.23,-62.29 -18.98,-25.27 -31.32,-55.26 -36.68,-86.34 -3.81,-17.76 -0.27,-35.87 0.95,-53.73 7.79,-71.77 18.51,-143.27 32.78,-214.06 24.24,-100.08 48.74,-200.12 73.03,-300.18 16.68,-67.63 32.96,-135.4 52.63,-202.25 12.05,-40.06 25.45,-79.98 44.68,-117.26 15.04,-29.51 34.33,-57.03 58.24,-80.05 42.13,-41.64 96.12,-69.47 152.27,-87.02 74.89,-23.32 153.54,-30.82 231.53,-34.34z"/>
   <path class="fil2" d="M860.18 210.76c59.2,-3.84 118.56,-5.49 177.89,-5.15 208.61,0.02 417.22,-0.05 625.82,0.04 -30.01,128.18 -60.11,256.35 -90.12,384.53 -133.67,0.14 -267.35,-0.09 -401.02,0.12 9.84,-45.74 20.82,-91.25 31.2,-136.88 -88.04,-0.07 -176.1,-0.02 -264.14,-0.02 -47.34,151.34 -89.54,304.42 -122.04,459.68 -16.3,77.61 -30.59,155.63 -43.04,233.95 144.22,0.06 288.46,0 432.71,0.02 55.78,-0.93 111.6,-0.21 167.41,-0.43 27.33,-0.33 54.7,0.66 82,-0.52 -17.72,83.03 -35.35,166.08 -53.13,249.12 -222.56,0.1 -445.14,0 -667.7,0.03 -76.68,-0.48 -153.83,2.49 -229.96,-8.73 -38.72,-5.86 -77.43,-15.34 -112.43,-33.4 -27.85,-14.38 -52.99,-35.36 -68.72,-62.78 -10.78,-18.97 -18.15,-40.35 -19.32,-62.21 2.26,-34.13 6.94,-68.06 11.41,-101.97 6.35,-45.91 13.67,-91.74 23.03,-137.15 27.21,-111.9 54.53,-223.77 81.79,-335.65 16.73,-65.84 32.5,-132.02 53.68,-196.59 12.68,-37.84 27.63,-75.46 50.65,-108.3 32.21,-45.89 80.56,-78.44 132.38,-98.5 64.23,-25.05 133.29,-34.17 201.65,-39.21z"/>
  </g>
 </g>
</svg>
