<?xml version="1.0" encoding="UTF-8"?>
<!DOCTYPE svg PUBLIC "-//W3C//DTD SVG 1.1//EN" "http://www.w3.org/Graphics/SVG/1.1/DTD/svg11.dtd">
<!-- Creator: CorelDRAW -->
<svg xmlns="http://www.w3.org/2000/svg" xml:space="preserve" width="2000px" height="1600px" version="1.1" style="shape-rendering:geometricPrecision; text-rendering:geometricPrecision; image-rendering:optimizeQuality; fill-rule:evenodd; clip-rule:evenodd"
viewBox="0 0 2000 1600"
 xmlns:xlink="http://www.w3.org/1999/xlink">
 <defs>
  <style type="text/css">
   <![CDATA[
    .fil0 {fill:black}
    .fil1 {fill:#034639;fill-rule:nonzero}
    .fil4 {fill:#A3A3A3;fill-rule:nonzero}
    .fil2 {fill:#CEB182;fill-rule:nonzero}
    .fil5 {fill:#E2D1B5;fill-rule:nonzero}
    .fil3 {fill:#FEFEFE;fill-rule:nonzero}
   ]]>
  </style>
 </defs>
 <g id="Capa_x0020_1">
  <metadata id="CorelCorpID_0Corel-Layer"/>
  <g id="Cleveland_x0020_State_x0020_Vikings.cdr">
   <path class="fil0" d="M525.04 706.49c-0.17,23.05 -0.01,46.1 -0.05,69.15l-4.92 3.43 -1.7 14.34c-1.95,16.53 -3.71,33.48 -7.59,49.69 -3.88,16.17 -9.89,30.66 -17.81,45.26l-2.92 5.39c-48.95,-4.54 -97.88,-10.06 -146.54,-17.13 -45.73,-6.65 -90.47,-14.73 -135.52,-25.1l-9.54 41.7c7.22,1.66 14.44,3.32 21.68,4.9 -4.63,0.91 -9.22,2.05 -13.77,3.45 -29.45,9.04 -52.23,27.45 -68.98,53.14 -29.58,45.34 -41.93,101.17 -35.89,154.84 5.63,49.96 27.71,99.71 68.37,130.79 52.21,39.92 116.39,36.11 174.14,10.82 2.63,-1.15 4.97,-2.63 6.97,-4.41 3.49,1.15 7.29,1.56 11.2,1.11 47.51,-5.46 95.97,-3.59 143.7,-7.42 8.27,-0.66 16.27,-1.3 24.49,-2 14.44,-1.23 34.89,-1.25 56.49,-1.7 -20.11,29.75 -19.76,72.51 4.56,100.72 13.79,16.53 31.07,25.48 50.16,34.51 1.81,0.85 3.62,1.7 5.44,2.56 -13.07,-1.44 -26.01,-6.36 -36.42,-14.42 -8.79,-6.82 -20.38,-7.31 -29.72,-1.26 -9.33,6.05 -13.62,16.83 -10.99,27.64l10.8 44.45c1.93,7.94 6.92,13.97 14.37,17.35 3.86,1.74 7.78,3.34 11.76,4.79l-9.82 0 -7.14 0 0 7.14c0,8.92 0,17.85 0,26.77l0 7.14 817.5 0 0.05 -7.09c0.06,-9.01 0,-18.01 -0.24,-27.01l-0.12 -4.48c6.34,-3.1 11.22,-8.78 13.29,-16.04 4.44,-15.54 7.96,-31.34 12.61,-46.82 3.14,-10.46 -0.36,-21.22 -9.05,-27.84 -8.69,-6.61 -20,-7.12 -29.25,-1.31 -0.23,0.15 -0.46,0.29 -0.7,0.44 2.09,-3.76 3.24,-8.09 3.22,-12.7 -0.06,-14.54 -0.12,-29.08 0.06,-43.62 0.05,-4.73 -1.04,-9.08 -3.21,-12.91 8.22,-4.58 13.25,-13.21 13.02,-22.99 -0.31,-13.21 0.42,-26.42 0.44,-39.64 1.16,0.1 2.31,0.2 3.47,0.31 2.16,0.21 4.28,0.17 6.33,-0.12 1.67,0.62 3.43,1.08 5.27,1.37 20.84,3.29 42.17,2.87 62.8,6.37 10.42,1.76 20.33,-2.65 25.99,-11.57 5.67,-8.93 5.44,-19.77 -0.6,-28.45 -9.85,-14.16 -13.73,-34.85 -14.89,-57.11 27.16,44.49 57.52,85.12 106.2,114.8 8.19,4.98 17.73,5.13 26.06,0.41 0.87,-0.5 1.71,-1.03 2.5,-1.6 1.47,0.47 3.01,0.82 4.6,1.03 60.96,8.12 139.1,27.81 196.2,-2.85 72.44,-38.9 72.87,-137.1 65.57,-207.91 -5.3,-51.44 -20.59,-107.74 -69.97,-133.57 -13.33,-6.97 -27.68,-10.94 -42.38,-12.97 6.77,-1.37 13.52,-2.78 20.24,-4.26l6.95 -1.53 -9.04 -41.85 -7 1.54c-43.42,9.55 -87.75,16.49 -131.8,22.38 -53.46,7.15 -107.2,12.66 -160.93,17.22l-3.15 -5.73c-8.79,-16.03 -19.46,-39.47 -22.36,-57.49 -2.04,-12.68 -2.39,-25.59 -4.2,-38.32l-2.15 -15.07 -4.83 -2.92c-0.1,-22.56 0.04,-45.11 0,-67.66 4.95,-2.12 9.9,-4.27 14.81,-6.49l18.81 -8.46 0.13 -20.63c0.03,-4.1 -0.19,-8.19 -0.42,-12.29 32.28,-20.79 60.95,-47.58 81.87,-79.91 35.09,-54.21 40.78,-122.83 26.94,-184.8 -14.05,-62.9 -43.14,-120.06 -72.32,-177.01l-0.22 -0.44 -0.24 -0.42c-16.59,-30.14 -32.6,-60.06 -55.98,-85.66 -23.37,-25.61 -63.85,-33.24 -92.95,-12.8 -27.49,18.5 -35.7,48.3 -40.94,79.34l-0.14 0.83 -0.1 0.84c-3.14,27.6 -5.11,55.36 -5.35,83.16l-0.01 1 0.05 0.99c1.65,30.87 3.13,61.75 5.21,92.59 0.29,4.26 0.19,9.03 -0.56,13.55 -0.72,-0.21 -1.45,-0.41 -2.18,-0.6 -16.04,-4.07 -29.46,-0.38 -43.8,6.14 -14.91,-17.77 -29.31,-35.96 -45.58,-52.55l-0.4 -0.4 -0.41 -0.39c-23.52,-22.34 -48.06,-43.65 -74.3,-62.76 -45.9,-33.42 -95.32,-62.83 -150.95,-76.48l-0.72 -0.18 -0.72 -0.14c-32.27,-6.34 -65.35,-1.37 -95.68,10.67 -68.27,27.1 -128.14,71 -181.81,120.53 -20.39,18.81 -37.38,40.5 -55.23,61.59 -4.5,-1.95 -9.04,-3.79 -13.75,-5.22 -2.6,-0.8 -5.24,-1.47 -7.9,-2l-1.54 -0.31 -1.55 -0.15c-8.02,-0.79 -14.62,0.07 -21.39,2.36 -1.03,-6.26 -0.87,-13.15 -0.4,-18.95 4.2,-51.51 7.2,-103.27 1.62,-154.8 -2.79,-25.73 -6.27,-50.33 -19.18,-73.26 -16.1,-28.59 -51.3,-44.68 -82.96,-33.73 -24.96,7.52 -38.82,25.4 -53.6,45.52l-0.43 0.58 -0.4 0.6c-21.79,32.75 -40.12,67.6 -57.19,102.99 -16.82,33.1 -31.09,67.66 -42.61,103.12l-0.13 0.39 -0.12 0.4c-16.06,54.33 -23.02,112.98 -3.95,167.54 17.58,54.07 57.07,97.36 104.12,128.18 -0.21,4.16 -0.3,8.34 -0.27,12.51l0.12 20.21 18.27 8.64c4.96,2.35 10.04,4.42 15.12,6.48zm1213.34 292.93c7.31,-1.66 14.95,-2.55 19.13,-0.03 21.94,13.23 29.35,61.12 29.72,84.15 0.41,24.95 -5.27,68.52 -28.74,83.22 -5.46,3.42 -11.45,4.71 -17.54,4.67 -1.04,-27.81 -2.72,-55.67 -3.55,-83.49 -0.63,-21.37 -1.06,-42.93 -0.4,-64.3 0.18,-5.83 0.44,-15.67 1.38,-24.22zm-1113.49 25.99c0,2.23 0,4.47 0,6.7 2.59,0 5.15,-0.08 7.64,-0.28 -0.84,-1.13 -1.59,-2.36 -2.25,-3.66 -0.63,-1.23 -2.64,-2.12 -5.39,-2.76zm375.55 106.45c-8.33,0.48 -16.27,-3.08 -21.47,-9.72 0.01,4.51 0,9.01 -0.04,13.51 7.34,0.49 14.79,-0.82 21.51,-3.79zm-21.74 -98.92c0,0.57 0,1.14 0.01,1.7 1.63,-0.01 3.26,-0.05 4.88,-0.1 -1.18,-0.72 -2.88,-1.23 -4.89,-1.6zm384.46 342.85c-2.54,-0.86 -4.93,-2.12 -7.1,-3.76 0,1.36 0,2.71 0,4.06 2.42,0.04 4.78,-0.06 7.1,-0.3zm-289.65 -77.26c10.87,33.76 22.98,67.38 39.89,96.99 4.43,-20.88 4.01,-51.76 3.53,-63.35 -0.59,-14.31 -1.77,-28.66 -3.36,-42.94 -4.57,1.07 -8.89,2.95 -12.51,5.95 -7.95,6.57 -18.47,7.78 -27.55,3.35zm-189.79 86.2c7.14,-19.07 13.39,-38.68 18.98,-58.26 1.71,-5.95 4.89,-17.58 8.07,-30.65 -1.41,0.81 -2.91,1.5 -4.49,2.05 -8.87,3.11 -18.2,1.31 -25.07,-4.58 -0.17,2.8 -8.38,120.5 2.51,91.44zm163.95 -166.52c0.03,0.08 0.05,0.15 0.08,0.22 4.85,13.66 9.39,27.89 13.92,42.37 3.24,-13.17 7.18,-26.15 10.14,-39.39 0.22,-0.98 0.5,-1.95 0.82,-2.88 -8.32,-0.1 -16.64,-0.2 -24.96,-0.32zm-13.03 -101.89c0.56,-11.33 0.64,-22.71 0.39,-33.88 -0.38,-17 -1.54,-34.62 -4.21,-51.59 -1.97,5.48 -5.76,10.1 -10.83,13.13 3.27,4.39 4.93,9.57 4.89,15.35 -0.12,15.66 0.03,31.33 -0.06,46.99 -0.03,4.04 -0.95,7.87 -2.61,11.27 3.97,-1.46 8.23,-1.9 12.43,-1.27zm-203.95 87.49c8.5,0.11 17,0.12 25.49,0 -0.11,-0.26 -0.22,-0.52 -0.32,-0.78 -3.92,-9.8 -1.7,-20.42 5.77,-27.79 3.89,-5.58 7.32,-23.95 8.36,-30.41 3.19,-19.75 4.45,-40.41 4.76,-60.41 0.18,-11.73 0.04,-23.67 -0.59,-35.54 -14.48,51.64 -28.68,103.37 -43.47,154.93zm-155.3 -174.19c-2.82,4.84 -7.2,8.64 -12.57,10.76 3.78,4.64 5.69,10.26 5.57,16.54 -0.33,17.1 0.23,34.19 -0.37,51.28 -0.37,10.56 -6.67,19.37 -16.55,23.12 -9.27,3.53 -19.16,1.64 -26.37,-4.94 0.02,5.21 0.02,10.42 0.01,15.63 14.51,0.36 29.53,-4.03 38.86,-14.87 7.82,-9.1 20.44,-11.59 31.13,-6.15 10.7,5.44 16.12,17.11 13.37,28.79 -3.76,16 -6.97,32.1 -10.97,48.03 15.6,0.63 31.56,3.78 44.12,12.18 2,-2.27 4.37,-4.17 7.02,-5.6 -12.33,-14.35 -21.25,-32.08 -28.4,-49.15 -12.91,-30.82 -22.07,-63.54 -33.2,-95.07 -3.53,-9.99 -7.35,-20.33 -11.65,-30.55zm-323.46 103.91c1.42,-17.49 2.18,-35.11 2.53,-52.48 0.47,-22.87 0.26,-46.17 -1.24,-69.13 -3.05,5.71 -8.14,9.96 -14.66,12.07 -9.01,2.92 -18.2,0.95 -25.21,-5.42 -11.48,-10.43 -33.77,-27.82 -50.78,-20.78 -25.28,10.46 -34.09,59.86 -34.8,83.49 -0.75,24.97 4.77,68.73 28.45,83.32 24.26,14.94 62.32,-11.19 80.42,-25.47 4.55,-3.59 9.89,-5.47 15.29,-5.6zm931.96 68.18c3.77,0.09 7.54,0.18 11.31,0.27 -0.56,-8.73 3.25,-16.91 10.56,-22.22 3.75,-2.73 0.15,-14.77 -3.83,-25.18 -7.5,-0.34 -15.02,-0.74 -22.52,-0.93 -0.85,2.31 -1.73,4.62 -2.63,6.98 -1.17,3.08 -3.53,8.96 -3.6,12.27 -0.03,1.93 2.59,4.6 3.75,5.77 6.21,6.28 8.68,14.7 6.96,23.04zm-512.25 251.37c-3.06,-2.33 -5.61,-5.39 -7.47,-9.08 -4.47,-8.89 -3.6,-18.88 2.34,-26.87 18.39,-24.77 12.19,-85.16 9.15,-127.41 -3.83,1.12 -7.44,2.88 -10.55,5.46 -8.71,7.22 -20.56,8 -30.13,1.95 -1.46,-0.91 -2.79,-1.95 -4,-3.08 -1.09,0.25 -2.18,0.43 -3.28,0.53 29.02,20.37 50.78,50.1 44.14,88.31 -5.75,33.14 -31.88,57.96 -62.1,70.19l61.9 0zm220.73 0c-4.08,-3.07 -7.23,-7.4 -8.94,-12.63 -3.52,-10.74 0.11,-22.03 9.23,-28.72 1.41,-1.03 3.43,-2.57 3.74,-4.45 0.47,-2.82 -0.56,-8.05 -1.96,-13.44 -7.09,-0.62 -14.21,-0.3 -21.31,0.55 -1.98,5.7 -3.69,11.31 -3.78,14.57 -0.07,2.91 1.9,5.74 3.58,7.94 6.05,7.97 7.01,18.01 2.56,26.98 -1.85,3.74 -4.43,6.85 -7.53,9.2l24.41 0zm252.5 0c-3.6,-2.72 -6.48,-6.44 -8.31,-10.94 -3.88,-9.53 -1.93,-19.87 5.06,-27.27 3.4,-5.69 6.23,-22.54 7.14,-28.75 2.71,-18.5 3.75,-37.72 3.9,-56.4 0.09,-12.14 -0.19,-24.53 -1.07,-36.8 -3.36,3.23 -7.64,5.53 -12.55,6.57 -7.89,1.69 -15.64,-0.24 -21.55,-5.11 -1.07,16.78 -2.42,33.6 -2.71,50.44 -0.24,14.12 0.01,59.05 10.4,69.6 7.43,7.54 9.49,18.2 5.4,27.96 -1.84,4.39 -4.68,8.03 -8.21,10.7l22.5 0zm-733.33 -514.5c-13.48,-1.16 -26.97,-2.38 -40.44,-3.69 0.41,0.69 0.8,1.41 1.16,2.15 4.52,9.39 3.14,19.95 -3.64,27.87 -11.57,13.51 -10.77,79.16 -10.3,97 0.52,19.63 1.63,39.23 2.75,58.84 0.55,9.53 1.19,19.2 1.59,28.84 12.86,1.56 26.95,-4.77 35.86,-13.57 5.55,-5.48 12.87,-8.03 20.15,-7.39 0.95,-14.49 1.41,-29.04 1.55,-43.42 0.24,-24.19 -0.4,-48.96 -2.96,-73.02 -0.83,-7.82 -3.61,-30.54 -7.56,-37.75 -6.67,-7.57 -8.3,-17.85 -4.22,-27.2 1.47,-3.38 3.54,-6.3 6.06,-8.66zm278.8 15.54c-10.03,-0.3 -20.07,-0.62 -30.1,-0.96 3.12,3.98 5.08,8.92 5.4,14.34 1.8,30.43 12.16,63.5 23.96,95.63 0.12,-0.38 0.24,-0.76 0.35,-1.15 3.51,-11.53 17.15,-59 3.91,-67.84 -9.38,-6.27 -13.5,-17.36 -10.49,-28.23 1.29,-4.66 3.73,-8.68 6.97,-11.79zm439.73 -1.59l-8.49 0.3c-27.13,0.93 -54.27,1.69 -81.42,2.3 3,2.4 5.48,5.53 7.23,9.26 4.43,9.41 2.97,19.93 -3.85,27.78 -10.83,12.48 -10.22,61.58 -9.74,77.58 0.64,21.45 2.8,43.27 3.85,64.82 14.09,-0.06 26.07,-6.47 39.38,-15.92 8.72,-6.18 19.77,-6.43 28.67,-0.72 12.9,-40.79 20.42,-86.03 30.65,-123.99 -0.11,-0.06 -0.22,-0.11 -0.32,-0.16 -10.25,-5.41 -15.51,-16.5 -13.2,-27.85 1.07,-5.3 3.64,-9.9 7.24,-13.4zm167.66 -8.16c-18.03,1.13 -36.06,2.18 -54.09,3.14 3.64,3.07 6.43,7.2 7.96,12.08 19.54,62.51 32.8,139.42 63.59,200.24 0.27,-1.96 0.48,-3.64 0.63,-4.89 2.69,-23.53 2.93,-48.15 1.99,-71.8 -0.93,-23.59 -3.11,-47.97 -7.55,-71.17 -1.5,-7.81 -6.38,-30.18 -11.43,-36.31 -6.37,-7.74 -7.71,-17.77 -3.58,-26.91 0.7,-1.57 1.53,-3.03 2.48,-4.38zm145.25 -11.23c-13.87,1.29 -27.75,2.52 -41.64,3.68 1.45,1.44 2.75,3.09 3.88,4.93 18.54,30.15 35.6,61.76 53.94,92.42 0.32,-28.62 -2.41,-56.16 -14.38,-70.56 -6.2,-7.46 -7.7,-17.02 -4.08,-26.01 0.64,-1.59 1.4,-3.08 2.28,-4.46z"/>
   <path class="fil1" d="M942.74 1227.02c27.18,1.16 56.2,1.73 80.79,0 24.56,69.25 40.5,146.24 83.02,205.44l-98.69 0c23.07,-16.92 12.84,-38.8 6.88,-60.96 -21,-5.91 -41.18,-3.83 -60.73,-0.06 -7.45,24.45 -18.23,39.07 -1.54,61.02l-63.29 0c16.96,-16.64 69.17,-185.78 53.56,-205.44zm-386.73 -1085.34c-17.11,4.88 -27.64,20.35 -37.6,33.95 -21.04,31.57 -38.65,65.25 -55.1,99.37 -16.19,31.8 -29.88,64.89 -40.88,98.84 -14.14,47.69 -21.19,100.14 -4.35,148.07 17.29,53.43 59.98,94.61 107.88,121.74 -1.75,9.61 -2.38,19.34 -2.32,29.1 14.34,6.78 29.66,11.48 43.38,19.61 -4.58,2.38 -11.28,4.25 -9.82,10.91 -0.3,30.32 0.06,60.64 -0.18,90.98 -2.23,1.55 -4.49,3.13 -6.75,4.7 -5.14,43.57 -7.6,66.89 -29.03,106.44 8.29,0.7 16.64,1.37 25.05,2.02 15.57,-27.48 26.22,-64.45 29.48,-94.98 50.45,-13.92 101.66,-24.99 152.18,-38.73 -18.36,13.68 -40.35,23.02 -55.16,41.05 -10.09,13.12 -12.68,29.99 -14.85,45.91 -8.39,-5.15 -16.99,-9.88 -25.71,-14.43 -0.53,22.45 -11.15,45.65 -20.1,65.77 13.05,0.81 26.19,1.58 39.43,2.3 4.31,-0.56 8.75,-2.45 13.01,-3.09 4.71,-7.38 9.94,-14.4 15.56,-21.1 -0.05,7.96 -0.45,17.64 -0.81,25.62 11.63,0.57 23.32,1.11 35.07,1.61 -7,-16.6 -13.65,-39.39 -12.15,-56.44 -0.27,-15.44 8.78,-31.48 24.01,-36.21 14.67,-3.96 29.9,-0.77 44.75,0.3 2.02,-7.38 4.01,-14.79 6.06,-22.17 4.44,-0.12 8.87,-0.2 13.3,-0.29 1.22,16.51 3.49,34.09 13.63,47.81 6.52,7.43 14.4,13.68 22.64,19.16 -13.74,-16.52 -17.64,-40.2 -8.66,-59.89 0.36,-1.04 1.04,-3.1 1.4,-4.14 5.8,2.35 11.55,4.82 17.35,7.26 5.06,2.11 10.14,4.22 15.17,6.46 -0.42,7.43 -2.05,18.44 7.08,21.45 8.42,3.69 15.38,-2.44 20.32,-8.51 4.08,1.93 8.15,3.9 12.26,5.89 5.62,2.71 11.31,5.27 16.99,7.91 5.5,2.53 10.92,5.3 16.27,8.18 -23.62,28.65 -64.44,32.26 -99.04,33.71 16.84,7.8 35.91,11.1 54.32,8.54 25.47,-3.48 50.31,-11.21 72.99,-23.35 -2.83,12.82 -5.95,25.58 -8.6,38.44 -0.29,3.02 -1.65,7.68 -2.35,11.3 5.17,0.03 10.34,0.06 15.52,0.08 1.05,-15.17 6.71,-32.11 18.07,-42.24 -9.88,-16.18 -11.31,-35.88 -12.44,-54.38l0 0c11.22,-6.49 22.23,-13.39 32.94,-20.68 12.02,7.26 24.36,13.95 35.85,22.11 -2.74,15.23 -2.74,31.32 -9.44,45.61 -0.95,3.09 -4.84,7.11 -1.13,9.93 9.62,9.72 14.1,25.94 16.98,39.49 4.54,-0.03 9.07,-0.07 13.6,-0.12 -2.71,-15.6 -7.4,-34.22 -10.49,-48.83 38.23,19.76 85.41,33.74 126.95,15.71 -27.14,-1.55 -55.01,-5.03 -79.47,-17.7 -7.85,-3.84 -13.77,-10.44 -19.19,-17.11 5.51,-2.68 11.04,-5.3 16.57,-7.88 5.65,-2.71 11.34,-5.42 16.99,-8.16 4.11,-2.02 8.27,-4.01 12.44,-5.98 4.91,5.87 11.66,12.65 19.99,8.75 9.88,-2.53 7.56,-13.71 7.02,-21.27 5.21,-2.23 10.41,-4.4 15.65,-6.58 5.59,-2.35 11.16,-4.73 16.81,-6.96 9.7,19.58 7.02,42.87 -4.22,61.17 8.77,-6.16 18.05,-12.58 23.23,-22.28 7.05,-13 8.69,-27.94 10.26,-42.4 3.96,0.12 7.95,0.33 11.91,0.68 4.25,6.7 5.05,15.09 7.46,22.62 13.45,-2.2 27.26,-4.2 40.82,-1.76 13.51,2.8 24.04,14.4 26.57,27.82 3.48,20.93 -1.23,45.24 -11.2,64.2 10.69,-0.46 21.31,-0.95 31.88,-1.46 -0.44,-8.23 -0.98,-19.3 -1.04,-25.58 5.34,6.52 13.93,17.28 20.64,24.6 16.5,-0.85 32.84,-1.76 48.99,-2.72 -9.04,-22.63 -21.19,-38.21 -21.73,-66.3 -8.6,5.03 -17.23,9.97 -25.74,15.17 -2.08,-16.45 -4.52,-34.18 -15.65,-47.27 -15.14,-17.08 -36.03,-27.2 -54.77,-39.63 49.51,12.55 99.46,23.8 148.61,37.49 6.1,31.1 17.46,67.89 33.23,96.33 9.1,-0.66 18.12,-1.33 27.07,-2.02 -11.02,-20.1 -22.65,-47.85 -25.88,-67.78 -2.05,-12.88 -2.44,-25.94 -4.28,-38.88 -2.41,-1.46 -4.79,-2.89 -7.17,-4.34 -0.33,-30.29 -0.06,-60.58 -0.15,-90.84 1.43,-6.3 -4.7,-8.92 -8.63,-12.31 14.04,-6.37 28.32,-12.14 42.4,-18.48 0.06,-9.4 -1.16,-18.77 -0.81,-28.17 1.4,-2.89 4.73,-4.14 7.2,-6.01 31.63,-18.96 60.13,-44.19 80.21,-75.28 30.47,-47 34.61,-106.74 22.56,-160.33 -13.33,-60 -41.75,-115.05 -69.56,-169.37 -15.24,-27.64 -29.93,-56.23 -51.59,-79.53 -12.38,-13.92 -35.17,-19.25 -50.94,-8 -19.13,12.73 -23.98,37.1 -27.52,58.22 -3.03,26.48 -4.91,53.14 -5.15,79.8 1.64,30.7 2.98,61.46 5.18,92.14 1.19,19.72 -3,41.8 -19.13,54.86 -8.69,0.86 -15.26,-6.73 -23.41,-8.57 -17.02,-4.52 -30.8,13.45 -47.52,10.92 -19.25,-21.75 -36.68,-45.22 -57.06,-66.02 -22.49,-21.39 -46.02,-41.74 -71.08,-60.07 -42.36,-30.76 -88.3,-58.67 -139.68,-71.25 -26.15,-5.15 -53.05,-0.66 -77.62,9.01 -64.47,25.68 -121.3,67.36 -171.88,114.28 -24.93,22.76 -44.51,50.54 -67.06,75.45 -13.33,-1.97 -24.69,-10.56 -37.87,-13.18 -8.69,-0.87 -16.1,4.58 -23.59,8.09 -2.95,1.49 -6.85,3.69 -9.47,0.36 -16.86,-14.67 -19.39,-38.62 -17.58,-59.63 3.93,-49.44 7.23,-99.28 1.7,-148.72 -2.08,-20.83 -4.7,-42.49 -15.23,-60.96 -8.48,-15.3 -28,-25.2 -45.05,-18.93zm-342.65 718.4c77.25,17.8 173.51,31.4 280.73,41.21l5.16 -9.53c19.13,-35.29 21.61,-58.48 26.22,-97.52l1.31 -11.14 5.34 -3.72c0.08,-25.4 -0.14,-50.8 0.09,-76.2 -0.06,-0.52 -0.1,-1.03 -0.13,-1.55 -6.47,-2.62 -12.97,-5.17 -19.11,-8.07l-14.21 -6.72 -0.09 -15.72c-0.04,-5.41 0.12,-10.81 0.52,-16.2 -47.2,-30.05 -87.22,-72.85 -104.77,-126.81 -18.57,-53.13 -11.61,-110.28 4.06,-163.16l0.09 -0.3 0.1 -0.31c11.38,-35.1 25.53,-69.32 42.25,-102.22 16.93,-35.1 35.07,-69.67 56.7,-102.13l0.31 -0.47 0.33 -0.45c13.75,-18.75 26.78,-35.99 50.05,-42.95 28.44,-9.92 60.1,4.79 74.54,30.44 12.39,22.01 15.63,45.88 18.3,70.53 5.54,51.11 2.53,102.37 -1.63,153.45 -0.7,8.47 -0.81,20.09 2.7,29.19 7.64,-3.57 14.86,-5.97 25.49,-4.91l1.21 0.11 1.19 0.24c2.44,0.49 4.84,1.1 7.21,1.82 5.34,1.63 10.4,3.79 15.49,6.04 0.74,0.33 1.52,0.68 2.33,1.05 18.93,-22.11 36.49,-45.1 58.09,-65.03 53.03,-48.93 112.16,-92.37 179.6,-119.14 29.06,-11.53 60.76,-16.39 91.67,-10.31l0.56 0.11 0.56 0.14c54.72,13.4 103.31,42.46 148.45,75.33 25.99,18.92 50.31,40.02 73.59,62.16l0.32 0.3 0.3 0.32c17.45,17.8 32.7,37.39 48.76,56.34 0.97,-0.46 1.82,-0.88 2.37,-1.14 13.77,-6.51 26.24,-10.82 41.6,-6.88 3.11,0.75 5.99,1.8 8.78,3.08 2.86,-7.44 3.31,-16.37 2.83,-23.43 -2.07,-30.81 -3.55,-61.65 -5.2,-92.49l-0.04 -0.77 0.01 -0.78c0.25,-27.54 2.17,-55.06 5.31,-82.42l0.07 -0.64 0.11 -0.64c4.83,-28.81 12.22,-57.33 38,-74.68 26.1,-18.34 62.77,-11.43 83.58,11.76 23.23,25.06 38.66,54.64 55,84.29l0.18 0.34 0.18 0.33c28.9,56.45 57.77,112.99 71.7,175.32 13.44,60.15 8.11,126.71 -25.96,179.36 -21.12,32.63 -50.39,59.45 -83.24,80 0.27,5.35 0.68,10.72 0.64,16.04l-0.1 16.04 -14.63 6.59c-6.25,2.81 -12.56,5.52 -18.86,8.22 -0.04,0.57 -0.1,1.15 -0.17,1.74 0.06,24.91 -0.11,49.81 0.03,74.72l5.36 3.25 1.67 11.72c1.82,12.77 2.18,25.75 4.22,38.44 2.96,18.42 14.13,43.35 23.15,59.79l5.38 9.81c119.72,-10.06 223.26,-23.64 298.29,-40.14l6.03 27.89c-173.69,38.2 -498.12,60.92 -823.52,60.69 -292.89,-0.2 -586.85,-19.01 -772.81,-61.85l6.36 -27.78zm1186.66 600.14c0.24,8.89 0.3,17.85 0.24,26.77l-803.27 0c0,-8.92 0,-17.85 0,-26.77 267.68,0 535.35,0 803.03,0zm-138.69 -233.2c40.11,0.39 80.39,2.83 120.41,0 0.23,14.7 -0.76,30.23 -0.41,45.34 -11.63,-16.66 -33.44,-12.88 -50.96,-13.12 0,16.58 -0.06,33.15 0.06,49.72 13.69,-0.24 27.49,0.65 41.09,-1.61 -0.18,14.67 -0.12,29.34 -0.06,44.04 -8.78,-14.58 -26.81,-11.61 -41.24,-11.64 0.33,19.55 -0.03,39.1 0.27,58.67 30.85,7.12 52.06,3.08 77.83,-13.12 -4.67,15.56 -8.21,31.42 -12.7,47.16l-135.25 0c22.93,-22.36 24.72,-183.05 0.96,-205.44zm-164.43 0c49.09,2.38 98.3,0.48 147.44,0 -3.45,16.34 -7.78,31.96 -10.66,47.34 -8.87,-12.8 -26.99,-15.89 -40.58,-10.03 -0.6,38.7 -14.9,139.03 13.77,168.13l-83.63 0c27.95,-26.34 20.26,-116.69 12.97,-169.26 -18.06,-2.44 -37.13,0.27 -51.53,12.17 3.42,-16.07 8.62,-32.25 12.22,-48.35zm-335.96 0c50.46,2.59 99.18,4.18 148.15,0 -7.86,15.53 -11.18,31.06 -11.31,46.59 -9.64,-11.87 -26.94,-12.11 -40.88,-9.34 0,42.52 -15.32,137.18 13.81,168.19l-83.57 0c30.09,-40.5 12.85,-121.4 12.97,-169.2 -18.06,-2.56 -37.07,0.24 -51.41,12.14 4.08,-16.13 8.16,-32.25 12.24,-48.38zm-137.59 9.4c11.56,-7.22 85.95,-24.44 108.18,-1.6l-6.01 34.06c-48.83,-26.07 -105.51,2.8 -39.99,31.48 130.39,57.08 30.28,174.38 -79.88,124.51l-10.8 -44.45c52.5,40.68 135.34,12.68 80.6,-19.99 -21.51,-13.06 -47.81,-19.55 -64.44,-39.6 -21.31,-24.51 -15.56,-67.24 12.34,-84.41zm415.52 -260.71c28.41,-0.18 56.85,0.27 85.26,-0.39 -27.77,32 -11.63,138.32 -11.6,180.81 30.78,10 54.41,1.2 79.38,-16.52 -5.33,18.45 -11.19,36.75 -16.69,55.16 -43.89,-1.48 -87.8,-1.69 -131.68,-2.32 23.45,-21.88 24.22,-184.28 -4.67,-216.74zm-155.04 -1.25c39.35,0.09 83.57,6.69 122.52,-0.24 -0.06,15.92 0,31.84 0.29,47.76 -11.78,-18.45 -35.07,-15.27 -53.82,-15.15 0.24,17.79 0.18,35.59 0.18,53.38 15.38,-0.15 30.85,0.8 46.18,-1.07 -0.12,15.67 0.03,31.35 -0.06,47.03 -9.49,-16.78 -30.2,-12.2 -46.15,-12.7 0.33,20.56 0.51,41.12 -0.12,61.64 26.28,12.18 57.87,6.43 78.13,-13.29 -3.9,16.92 -8.27,33.76 -12.11,50.72 -46.38,-1.25 -92.76,0.69 -139.15,0.95 26.81,-25.19 27.17,-197.82 4.11,-219.03zm-214.48 -8.92c35.31,1.83 35.32,1.61 70.63,3.48 3.31,55.94 32.76,118.57 50.96,170.68 11.46,-41.85 59.34,-138.77 17.2,-166.93 20.11,-0.99 40.46,-0.24 60.58,1.28 -22.53,77.83 -43.5,156.13 -65.99,233.99 -71.1,-10.07 -73.12,-161.64 -133.38,-242.5zm-140.31 -8.04c40.75,0.84 83.56,11.21 124.18,7.56 1.25,17.11 1.31,34.36 -0.02,51.47 -10.24,-20.14 -35.08,-17.58 -54.06,-18.56 0.06,19.6 0.09,39.24 0,58.87 14.48,0.21 29.12,2.15 43.55,-0.41 -0.32,16.96 0.24,33.91 -0.36,50.87 -13.45,-14.09 -23.59,-12.58 -42.9,-12.58 -0.2,22.91 0.24,45.82 -0.26,68.75 28.47,9.17 63.99,4.02 84.28,-19.57 -4.43,18.86 -8.09,37.96 -13.24,56.61 -23.07,12.86 -111.6,9.74 -142.02,12.32 21.84,-25.82 25.18,-230.21 0.85,-255.33zm1035.51 -10.32c30.56,-3.48 30.54,-3.66 61.16,-6.6 -31.11,44.79 -10.8,235.12 -10.29,295.19 -70.57,-43.01 -101.17,-114.75 -143.1,-183.66 0.12,48.87 -12.5,119.73 17.31,162.6 -20.56,-3.48 -42.51,-3.17 -63.09,-6.42 27.71,-31.32 20.4,-214.64 -7.87,-248.97 21.6,-0.74 43.05,-3.84 64.65,-4.11 31.9,51.87 60.53,109.55 97.62,157.81 0.07,-46.11 15.98,-126.88 -16.39,-165.84zm-1199.8 -8.12c28.43,5.78 56.49,10.1 84.35,9.13 -28.91,33.77 -11.66,171.52 -11.75,219.15 25.43,15.86 58.85,7.08 79.23,-13.03 -4.41,20.14 -7.06,40.67 -12.77,60.51 -45.99,3.69 -98.76,2.24 -144.58,7.5 25.16,-32.14 28.91,-254.4 5.52,-283.26zm-205.85 29.69c44.35,-67.31 120.2,-48.51 184.58,-33.2 -4.52,21.3 -8.39,42.69 -12.85,63.99 -163.03,-148.01 -187.33,324.84 21.93,159.77 -6.04,22.82 -12.17,45.67 -18.87,68.31 -178.09,77.97 -258.13,-130.4 -174.79,-258.87zm1482.17 -32.76c115.8,-12.51 213.85,-46.53 230.33,113.45 25.19,244.47 -122.28,197.36 -232.8,182.64 34.87,-22.45 16.72,-227.61 16.36,-269.13 0.3,-10.86 -7.38,-19.19 -13.89,-26.96zm75.33 42.85c-11.35,32.8 -1.47,171.75 -0.51,214.03 116.16,36.86 119.55,-176.33 54.89,-215.49 -17.04,-10.12 -36.89,-3.42 -54.38,1.46zm-468.38 -7.8c26.3,-2.23 52.66,-3.42 79.05,-3.78 24.41,78.07 38.43,172.06 86.37,239.59 -30.8,-3 -61.8,0.45 -92.56,-6.31 23.36,-16.99 7.08,-49.46 -1.55,-71.1 -19.72,-0.27 -39.42,-2.2 -59.11,-1.43 -4.99,26.92 -25.06,44.96 -1.57,68.73 -21.21,1.38 -36.21,2.54 -61.44,0.3 39.31,-56.76 47.25,-138.86 66.04,-203.89 3.54,-11.01 -7.05,-17.79 -15.23,-22.11zm21.33 123.77c13.48,0.38 26.95,0.53 40.46,1.04 -7.44,-22.49 -14.13,-45.22 -21.33,-67.81 -8.66,21.37 -12.7,44.57 -19.13,66.77zm-286.03 186.75c0.44,22.97 -12.95,39.7 -19.42,59.55 15.51,-1.89 29.35,-2.01 40.11,-0.33 -6.9,-19.74 -5.99,-44.61 -20.69,-59.22z"/>
   <path class="fil2" d="M778.94 730.38c37.13,8.27 74.23,18.06 109.37,32.81 27.16,13.18 52.18,31.21 73.42,52.61 -8.8,5.56 -17.52,11.27 -25.91,17.46 -19.43,-15.83 -40.7,-30.05 -64.44,-38.5 -26.36,-8.24 -53.88,-12.05 -81.37,-13.98 1.37,-4.2 2.79,-8.36 4.34,-12.5 -5,-12.7 -10.26,-25.26 -15.41,-37.9zm533.12 184.75c-0.45,-8.21 -0.97,-18.24 -1.04,-25.58 5.86,7.16 13.63,17.41 20.52,24.61l-0.3 0.01 -0.3 0.02 -0.31 0.01 -0.3 0.02 -0.3 0.02 -0.31 0.01 -0.3 0.02 -0.3 0.01 -0.31 0.02 -0.3 0.01 -0.31 0.02 -0.3 0.01 -0.3 0.02 -0.31 0.01 -0.3 0.02 -0.3 0.02 -0.31 0.01 -0.3 0.02 -0.31 0.01 -0.3 0.02 -1.52 0.07 -0.3 0.02 -0.31 0.01 -0.3 0.02 -0.31 0.01 -0.3 0.02 -0.31 0.01 -0.3 0.02 -0.3 0.02 -0.31 0.01 -0.3 0.02 -0.31 0.01 -0.3 0.02 -0.31 0.01 -0.3 0.02 -0.31 0.01 -0.3 0.02 -0.31 0.01 -0.3 0.02 -0.31 0.01 -0.3 0.02 -0.31 0.01 -0.3 0.02 -0.31 0.01 -0.3 0.02 -0.31 0.01 -3.05 0.15 -0.3 0.01 -0.31 0.02 -0.31 0.01 -0.3 0.02zm-631.93 -25.02c-0.05,7.96 -0.45,17.64 -0.81,25.62l-0.43 -0.02 -0.44 -0.02 -0.43 -0.02 -0.44 -0.02 -0.43 -0.03 -0.44 -0.02 -0.43 -0.02 -0.43 -0.02 -0.44 -0.02 -0.43 -0.02 -0.44 -0.02 -1.73 -0.09 -0.44 -0.02 -0.43 -0.03 -0.44 -0.02 -0.43 -0.02 -0.43 -0.02 -0.44 -0.02 -0.43 -0.02 -0.43 -0.03 -0.44 -0.02 -0.43 -0.02 -0.43 -0.02 -0.44 -0.03 -0.43 -0.02 -0.43 -0.02 -0.44 -0.02 -0.43 -0.02 -2.16 -0.12 -0.44 -0.02 -0.43 -0.02 -0.43 -0.02 -0.43 -0.03 -0.44 -0.02 -0.43 -0.02 -0.43 -0.03 -0.43 -0.02 -0.43 -0.02 -0.44 -0.02 -0.43 -0.03 -0.43 -0.02 -0.43 -0.02 -2.59 -0.14 -0.43 -0.02 -0.44 -0.03 -0.43 -0.02 -0.43 -0.02 -0.43 -0.03 -0.43 -0.02 -0.43 -0.02 -0.43 -0.03 -0.43 -0.02c16.63,-1.82 18.09,-11.78 28.51,-24.19zm582.63 -116.71c49.51,12.55 99.46,23.8 148.61,37.49 6.17,31.43 17.25,67.83 33.25,96.33l-0.98 0.07 -0.99 0.07 -0.98 0.07 -2.96 0.21 -0.99 0.07 -1.98 0.14 -0.99 0.07 -0.99 0.07 -0.99 0.06 -0.99 0.07 -1 0.07 -0.99 0.07 -0.99 0.07 -2.99 0.2 -0.99 0.07 -1 0.07 -1.99 0.13 -1 0.07 -1 0.07 -1 0.07 -1 0.06 -1 0.07 -1 0.07 -3 0.19 -1 0.07 -1.01 0.07 -1 0.06 -1.01 0.07 -1 0.06 -1.01 0.07 -3.02 0.19 -1 0.07 -1.01 0.06 -1.01 0.06 -1.01 0.07 -1.01 0.06 -1.01 0.07 -2.02 0.12 -1.01 0.07 -1.02 0.06 -1.01 0.06 -1.01 0.07 -1.02 0.06 -1.01 0.06 -3.93 0.24 -0.13 0.01 -1.02 0.06 -1.02 0.06 -1.02 0.06 -1.02 0.06 -1.02 0.07c-10.38,-19.16 -21.13,-44.86 -21.55,-66.31 -8.6,5.03 -17.23,9.97 -25.74,15.17 -2.08,-16.45 -4.52,-34.18 -15.65,-47.27 -15.14,-17.08 -36.03,-27.2 -54.77,-39.63zm-716.47 134.01c16.87,-27.81 26.06,-62.94 29.48,-94.98 50.45,-13.92 101.66,-24.99 152.18,-38.73 -18.36,13.68 -40.35,23.02 -55.16,41.05 -10.09,13.12 -12.68,29.99 -14.85,45.91 -8.39,-5.15 -16.99,-9.88 -25.71,-14.43 -0.53,22.45 -11.15,45.65 -20.1,65.77l-0.45 -0.03 -0.45 -0.03 -0.44 -0.03 -0.45 -0.03 -0.45 -0.02 -0.45 -0.03 -0.45 -0.03 -0.45 -0.03 -0.45 -0.03 -3.14 -0.2 -0.45 -0.03 -0.44 -0.03 -0.45 -0.02 -0.45 -0.03 -0.45 -0.03 -0.45 -0.03 -0.44 -0.03 -0.45 -0.03 -0.45 -0.03 -0.45 -0.03 -0.44 -0.03 -0.45 -0.02 -0.45 -0.03 -0.45 -0.03 -1.34 -0.09 -0.44 -0.03 -0.45 -0.03 -0.45 -0.03 -0.44 -0.03 -0.45 -0.03 -0.44 -0.03 -0.45 -0.03 -0.45 -0.03 -0.44 -0.03 -0.45 -0.03 -0.44 -0.02 -0.45 -0.03 -0.45 -0.04 -0.44 -0.02 -2.67 -0.18 -0.45 -0.03 -0.44 -0.03 -0.45 -0.03 -0.44 -0.03 -0.45 -0.04 -0.44 -0.02 -0.45 -0.04 -0.44 -0.03 -0.44 -0.03 -0.45 -0.03 -0.44 -0.03 -17.53 -1.23 -0.31 -0.03 -0.31 -0.02 -0.23 -0.02 -0.08 0 -0.31 -0.02 -0.31 -0.03 -0.31 -0.02 -0.31 -0.02 -0.31 -0.02 -0.31 -0.03 -0.31 -0.02 -0.31 -0.02 -0.31 -0.03 -0.3 -0.02 -0.31 -0.02 -0.31 -0.02 -0.31 -0.03 -0.31 -0.02 -0.31 -0.02 -0.31 -0.02 -0.31 -0.03 -0.31 -0.02 -0.3 -0.02 -0.31 -0.03 -0.31 -0.02 -0.31 -0.02 -0.31 -0.03 -0.31 -0.02 -0.3 -0.02 -0.62 -0.05 -0.31 -0.02 -0.31 -0.02 -0.3 -0.03 -0.31 -0.02 -0.31 -0.02 -0.31 -0.03 -0.31 -0.02 -1.23 -0.09 -0.31 -0.03 -0.3 -0.02 -0.31 -0.02 -0.62 -0.05 -0.3 -0.02 -0.31 -0.03 -0.31 -0.02 -0.31 -0.02 -0.3 -0.03 -0.62 -0.04 -0.3 -0.03 -1.23 -0.09 -0.31 -0.02 -0.31 -0.03 -0.3 -0.02 -0.31 -0.02 -0.31 -0.03 -0.3 -0.02zm580 -151.77c28.98,-9.94 58.52,-18.18 88.45,-24.67 -5.09,12.65 -10.26,25.26 -15.56,37.82 1.67,4.1 3.39,8.24 5.06,12.37 -26.72,2.26 -53.49,5.78 -79.26,13.33 -24.6,8.45 -46.71,22.88 -66.73,39.27 -8.81,-5.95 -17.64,-11.84 -26.57,-17.58 27.28,-25.85 58.61,-48.64 94.61,-60.54z"/>
   <path class="fil3" d="M546.19 179.56c4.88,-5.63 10.06,-12.74 18.12,-13.33 12.77,4.64 14.79,19.87 17.76,31.33 7.41,42.16 5.51,85.21 4.32,127.81 -1.94,30.76 -8.3,63.43 4.7,92.74 8.54,20.94 27.85,36.26 49.71,41.32 -34.27,48.23 -69.7,98.39 -82.11,157.33 -17.67,-5.15 -33.65,-14.82 -48.38,-25.65 -28.29,-21.51 -53.82,-48.79 -65.78,-82.89 -16.21,-44.83 -9.04,-93.95 5.48,-138.19 15.35,-46 37.54,-89.32 59.92,-132.19 11.09,-19.99 22.19,-40.19 36.26,-58.28zm441.65 1135.79c-2.72,5.96 -5.5,11.92 -8.3,17.89 3.96,-0.07 7.92,-0.11 11.88,-0.11 -1.07,-5.21 -2.11,-10.43 -3.16,-15.64 -0.14,-0.71 -0.28,-1.42 -0.42,-2.14zm430.93 -96.75c1.64,1.22 3.59,2.05 5.77,2.39 20.87,3.29 42.2,2.87 62.95,6.39 5.21,0.88 10.16,-1.33 12.99,-5.79 2.83,-4.46 2.72,-9.88 -0.3,-14.22 -19.12,-27.49 -18.6,-71.49 -16.73,-110.85 33.17,57.71 65,113.48 125.28,150.22 4.09,2.5 8.86,2.57 13.03,0.21 3.11,-1.76 5.22,-4.51 6.08,-7.78 1.99,3.06 5.21,5.14 9.06,5.65 57.07,7.6 135.21,27.14 188.42,-1.43 26.27,-14.11 42.29,-37.33 51.38,-65.28 13.01,-39.99 11.74,-88.66 7.49,-129.99 -4.81,-46.64 -18.11,-99.95 -63.15,-123.5 -25.57,-13.38 -55.88,-14.43 -84.09,-12.64 -32.45,2.05 -64.91,7.74 -97.26,11.24 -3.85,0.41 -7.09,2.35 -9.17,5.39 -1.85,-0.74 -3.9,-1.03 -6.04,-0.83 -20.54,1.98 -40.89,4.3 -61.39,6.63 -4.81,0.55 -8.66,3.48 -10.47,7.98 -1.81,4.49 -1.06,9.28 2.04,13 21.33,25.67 18.24,77.89 15.34,120.15 -27.26,-40.96 -50.04,-85.29 -75.73,-127.06 -2.44,-3.96 -6.46,-6.17 -11.11,-6.12 -21.73,0.27 -43.25,3.37 -64.93,4.12 -5.01,0.17 -9.21,2.98 -11.27,7.56 -2.06,4.56 -1.39,9.58 1.79,13.45 7.09,8.6 12.07,31.27 14.13,42.06 4.57,23.84 6.81,48.85 7.77,73.09 0.99,24.89 0.71,50.91 -2.29,75.66 -0.96,7.9 -3.56,25.53 -8.09,35.83 -43.9,-65.6 -57.69,-156.36 -80.94,-230.7 -1.72,-5.51 -6.66,-9.09 -12.44,-9.02 -26.68,0.36 -53.36,1.57 -79.96,3.83 -5.77,0.49 -10.35,4.57 -11.51,10.24 -1.15,5.68 1.48,11.23 6.6,13.93 1.83,0.96 8.08,4.43 9.06,6.57 -0.01,0.08 -0.04,0.17 -0.06,0.23 -0.04,0.13 -0.08,0.24 -0.11,0.37 -17.2,59.51 -25.29,135.23 -57.52,189.61 3.68,-11.99 7.38,-23.97 10.86,-36.01 1.55,-5.35 -0.37,-10.83 -4.9,-14.05 -4.54,-3.22 -10.35,-3.22 -14.88,0 -19.39,13.76 -37.06,21.54 -59.35,17.05 -1.86,-43.18 -12.66,-137.8 8.72,-162.43 3.41,-3.93 4.14,-9.19 1.92,-13.89 -2.21,-4.71 -6.72,-7.5 -11.92,-7.38 -28.35,0.65 -56.71,0.2 -85.06,0.38 -5.16,0.03 -9.56,2.91 -11.66,7.63 -2.09,4.72 -1.29,9.91 2.15,13.77 6.61,7.42 10.89,26.2 12.71,35.74 3.85,20.21 5.44,41.6 5.9,62.15 0.5,22.19 -0.27,45.46 -3.46,67.45 -0.92,6.35 -4.88,29 -9.65,33.45 -0.22,0.21 -0.44,0.43 -0.64,0.65 3.1,-13.01 6.37,-25.97 9.37,-39 1.3,-5.64 -1.17,-11.25 -6.22,-14.08 -5.04,-2.84 -11.12,-2.05 -15.26,1.99 -14.64,14.24 -36.67,19.38 -56.09,13.72 0.26,-13.41 0.23,-26.83 0.07,-40.24 6.64,-0.09 13.48,0.17 17.43,2.08 2.03,0.99 3.39,2.37 4.5,4.33 2.91,5.14 8.71,7.6 14.42,6.11 5.72,-1.49 9.58,-6.46 9.62,-12.37 0.09,-15.66 -0.06,-31.34 0.06,-47.01 0.03,-3.83 -1.44,-7.14 -4.3,-9.69 -2.86,-2.55 -6.31,-3.63 -10.11,-3.16 -10.47,1.28 -21.15,1.16 -31.76,1.04 0,-9.35 0,-18.7 -0.06,-28.04 8.16,-0.11 16.82,0.28 22.78,3.11 3.09,1.47 5.4,3.52 7.23,6.4 3.15,4.92 8.96,7.08 14.55,5.39 5.59,-1.69 9.24,-6.71 9.13,-12.54 -0.29,-15.82 -0.35,-31.65 -0.29,-47.47 0.01,-3.94 -1.56,-7.34 -4.58,-9.88 -3.02,-2.54 -6.64,-3.51 -10.52,-2.82 -20.32,3.61 -41.76,3.29 -62.32,2.4 -19.29,-0.83 -38.61,-2.32 -57.92,-2.36 -2.71,-0.01 -5.23,0.78 -7.31,2.21 -1.93,-1.51 -4.25,-2.39 -6.87,-2.59 -20.67,-1.56 -41.45,-2.31 -62.17,-1.3 -5.63,0.28 -10.25,3.97 -11.75,9.41 -1.51,5.43 0.55,10.98 5.24,14.11 21.38,14.29 7.06,63.18 1.25,82.28 -3.62,11.88 -7.73,23.6 -11.89,35.3 -5.76,-15.11 -11.6,-30.19 -16.95,-45.46 -9.7,-27.63 -18.87,-57.96 -20.6,-87.31 -0.39,-6.56 -5.59,-11.73 -12.15,-12.08 -23.55,-1.24 -47.1,-2.26 -70.64,-3.48 -3.18,-0.16 -6.12,0.76 -8.47,2.57 0,0 0,0 -0.01,-0.01 -2.72,-2.31 -5.9,-3.32 -9.47,-3 -21.54,1.94 -43.66,-0.3 -65.09,-2.68 -19.17,-2.13 -38.38,-4.53 -57.67,-4.92 -5.32,-0.11 -9.92,2.84 -12.05,7.71 -2.12,4.88 -1.15,10.25 2.55,14.07 5,5.22 8.85,32.55 9.71,39.75 3.09,25.97 3.81,53.01 3.55,79.14 -0.22,22.6 -1.2,45.74 -3.64,68.34 -0.19,-4.39 -2.61,-8.39 -6.65,-10.61 -5.06,-2.79 -11.12,-1.96 -15.23,2.1 -14.54,14.35 -38.05,22.32 -57.43,14.34 -0.27,-12.65 -1.16,-25.46 -1.88,-38.01 -1.13,-19.74 -2.24,-39.48 -2.77,-59.24 -0.6,-22.68 -1.76,-88.01 13.39,-105.7 3.39,-3.96 4.08,-9.24 1.82,-13.93 -2.26,-4.7 -6.82,-7.45 -12.03,-7.27 -27.27,0.95 -54.69,-3.46 -81.33,-8.88 -4.59,-0.94 -9.07,0.57 -12.07,3.92 -1.57,-3.57 -4.73,-6.38 -8.8,-7.34 -43.12,-10.26 -92.79,-22.56 -136.32,-9.2 -26.57,8.16 -46.88,24.72 -61.99,47.88 -27.95,42.86 -39.59,95.66 -33.87,146.38 5.22,46.43 25.57,93.1 63.4,122.02 48.37,36.99 107.84,32.62 161.18,9.26 3.59,-1.57 6.05,-4.37 7.17,-8.13 0.41,-1.41 0.83,-2.83 1.24,-4.24 0.22,0.54 0.47,1.06 0.76,1.58 2.59,4.62 7.42,7.1 12.68,6.49 47.71,-5.48 96.24,-3.61 144.14,-7.45 9.03,-0.73 15.65,-1.26 24.43,-2 9.47,-0.81 19.28,-0.92 28.78,-1.12 13.15,-0.29 26.29,-0.51 39.43,-0.97 6.75,-0.24 15.76,-0.53 25.44,-1.18 -2.41,0.98 -4.55,2.03 -6.32,3.12 -34.54,21.35 -41.79,73.13 -15.39,103.66 12.42,14.92 28.64,23.06 45.86,31.2 7.34,3.47 14.8,6.92 21.77,11.1 2.39,1.44 10.16,6.61 11.56,9.88 -1.33,1.5 -5.2,3.15 -6.67,3.67 -6.16,2.19 -13.41,2.89 -19.92,2.82 -18.13,-0.22 -36.73,-6.43 -51.09,-17.56 -4.39,-3.4 -10.19,-3.65 -14.86,-0.62 -4.66,3.02 -6.81,8.41 -5.5,13.82l10.8 44.45c0.97,3.97 3.47,6.98 7.19,8.67 32.32,14.63 69.83,18.14 103.28,5.1 26.55,-10.36 50.49,-31.86 55.55,-61 3.16,-18.2 -1.88,-35.69 -12.52,-50.58 -13.57,-18.98 -34.92,-32.3 -55.97,-41.51 -4.03,-1.76 -17.99,-8.57 -21.38,-13.61 3.51,-2.41 12.32,-3.35 15.48,-3.42 11.87,-0.28 24.25,3.09 34.68,8.66 3.75,2 7.85,2.08 11.67,0.22 1.95,-0.94 3.54,-2.26 4.73,-3.87 0.33,3.91 2.45,7.48 5.97,9.7 4.78,3.02 10.71,2.63 15.06,-0.98 8.64,-7.17 19.64,-9.97 30.66,-10.05 2.07,45.01 13.48,116.96 -10.74,149.55 -2.97,4 -3.4,8.99 -1.16,13.44 2.23,4.45 6.5,7.08 11.48,7.08l83.57 0c3.62,0 6.88,-1.41 9.24,-3.87 2.35,2.46 5.61,3.87 9.23,3.87l63.29 0c5,0 9.29,-2.66 11.51,-7.14 2.22,-4.49 1.74,-9.51 -1.28,-13.49 -3.67,-4.82 -6.35,-9.87 -6.19,-16.05 0.11,-4.47 1.56,-9.23 2.96,-13.44 1.39,-4.18 2.91,-8.3 4.35,-12.45 13.59,-2.21 27.13,-3.07 40.68,-0.47 2.67,8.92 5.81,19.78 4.58,27.13 -0.93,5.59 -4.36,9.42 -8.82,12.69 -4.56,3.35 -6.38,8.99 -4.62,14.37 1.76,5.37 6.56,8.85 12.22,8.85l98.69 0c3.19,0 6.08,-1.08 8.34,-3.03 2.26,1.94 5.16,3.03 8.35,3.03l83.63 0c5.29,0 9.81,-3.01 11.86,-7.89 2.04,-4.88 1.01,-10.21 -2.71,-13.98 -21.58,-21.9 -12.53,-108.98 -10.44,-149.05 6.66,-0.45 13.74,1.81 17.54,7.29 3.01,4.35 8.06,6.35 13.24,5.25 5.18,-1.11 8.97,-5 9.95,-10.2 2.33,-12.43 5.51,-24.72 8.38,-37.05 3.54,7.38 6.27,22.65 7.04,27.73 3.08,20.34 3.94,41.85 3.78,62.41 -0.16,20.54 -1.36,41.96 -4.67,62.25 -1,6.13 -4.94,26.8 -9.44,31.19 -3.83,3.72 -4.95,9.1 -2.94,14.04 2.01,4.94 6.57,8.01 11.91,8.01l135.25 0c5.82,0 10.75,-3.72 12.35,-9.32 4.45,-15.6 7.99,-31.46 12.66,-46.99 1.57,-5.23 -0.18,-10.62 -4.53,-13.92 -4.34,-3.31 -10,-3.56 -14.62,-0.66 -20.37,12.8 -36.54,16.74 -58.25,13.4 -0.06,-11.83 0.03,-23.65 -0.03,-35.47 5.05,0.03 10.05,0.43 13.22,1.95 1.78,0.85 3.01,2.02 4.03,3.71 3.02,5.03 8.82,7.33 14.47,5.75 5.65,-1.58 9.41,-6.56 9.39,-12.43 -0.06,-14.61 -0.12,-29.21 0.06,-43.82 0.04,-3.94 -1.5,-7.35 -4.49,-9.91 -2.98,-2.57 -6.59,-3.57 -10.47,-2.92 -8.54,1.41 -17.4,1.48 -26.19,1.43 -0.02,-8.08 -0.01,-16.16 -0.01,-24.25 7.72,-0.1 15.88,0.18 21.26,2.62 2.65,1.19 4.67,2.86 6.33,5.24 3.29,4.72 9.06,6.65 14.54,4.86 5.47,-1.8 8.98,-6.76 8.84,-12.52 -0.35,-15.08 0.65,-30.16 0.41,-45.24 -0.06,-3.27 -1.18,-6.12 -3.34,-8.45 6.96,0.23 13.93,0.59 20.94,1.27 2.34,0.23 4.59,-0.14 6.58,-1.04zm-476.03 8.42c27.18,1.16 56.2,1.73 80.79,0 24.56,69.25 40.5,146.24 83.02,205.44l-98.69 0c23.07,-16.92 12.84,-38.8 6.88,-60.96 -21,-5.91 -41.18,-3.83 -60.73,-0.06 -7.45,24.45 -18.23,39.07 -1.54,61.02l-63.29 0c16.96,-16.64 69.17,-185.78 53.56,-205.44zm318.59 0c40.11,0.39 80.39,2.83 120.41,0 0.23,14.7 -0.76,30.23 -0.41,45.34 -11.63,-16.66 -33.44,-12.88 -50.96,-13.12 0,16.58 -0.06,33.15 0.06,49.72 13.69,-0.24 27.49,0.65 41.09,-1.61 -0.18,14.67 -0.12,29.34 -0.06,44.04 -8.78,-14.58 -26.81,-11.61 -41.24,-11.64 0.33,19.55 -0.03,39.1 0.27,58.67 30.85,7.12 52.06,3.08 77.83,-13.12 -4.67,15.56 -8.21,31.42 -12.7,47.16l-135.25 0c22.93,-22.36 24.72,-183.05 0.96,-205.44zm-164.43 0c49.09,2.38 98.3,0.48 147.44,0 -3.45,16.34 -7.78,31.96 -10.66,47.34 -8.87,-12.8 -26.99,-15.89 -40.58,-10.03 -0.6,38.7 -14.9,139.03 13.77,168.13l-83.63 0c27.95,-26.34 20.26,-116.69 12.97,-169.26 -18.06,-2.44 -37.13,0.27 -51.53,12.17 3.42,-16.07 8.62,-32.25 12.22,-48.35zm-335.96 0c50.46,2.59 99.18,4.18 148.15,0 -7.86,15.53 -11.18,31.06 -11.31,46.59 -9.64,-11.87 -26.94,-12.11 -40.88,-9.34 0,42.52 -15.32,137.18 13.81,168.19l-83.57 0c30.09,-40.5 12.85,-121.4 12.97,-169.2 -18.06,-2.56 -37.07,0.24 -51.41,12.14 4.08,-16.13 8.16,-32.25 12.24,-48.38zm-137.59 9.4c11.56,-7.22 85.95,-24.44 108.18,-1.6l-6.01 34.06c-48.83,-26.07 -105.51,2.8 -39.99,31.48 130.39,57.08 30.28,174.38 -79.88,124.51l-10.8 -44.45c52.5,40.68 135.34,12.68 80.6,-19.99 -21.51,-13.06 -47.81,-19.55 -64.44,-39.6 -21.31,-24.51 -15.56,-67.24 12.34,-84.41zm415.52 -260.71c28.41,-0.18 56.85,0.27 85.26,-0.39 -27.77,32 -11.63,138.32 -11.6,180.81 30.78,10 54.41,1.2 79.38,-16.52 -5.33,18.45 -11.19,36.75 -16.69,55.16 -43.89,-1.48 -87.8,-1.69 -131.68,-2.32 23.45,-21.88 24.22,-184.28 -4.67,-216.74zm-155.04 -1.25c39.35,0.09 83.57,6.69 122.52,-0.24 -0.06,15.92 0,31.84 0.29,47.76 -11.78,-18.45 -35.07,-15.27 -53.82,-15.15 0.24,17.79 0.18,35.59 0.18,53.38 15.38,-0.15 30.85,0.8 46.18,-1.07 -0.12,15.67 0.03,31.35 -0.06,47.03 -9.49,-16.78 -30.2,-12.2 -46.15,-12.7 0.33,20.56 0.51,41.12 -0.12,61.64 26.28,12.18 57.87,6.43 78.13,-13.29 -3.9,16.92 -8.27,33.76 -12.11,50.72 -46.38,-1.25 -92.76,0.69 -139.15,0.95 26.81,-25.19 27.17,-197.82 4.11,-219.03zm-214.48 -8.92c35.31,1.83 35.32,1.61 70.63,3.48 3.31,55.94 32.76,118.57 50.96,170.68 11.46,-41.85 59.34,-138.77 17.2,-166.93 20.11,-0.99 40.46,-0.24 60.58,1.28 -22.53,77.83 -43.5,156.13 -65.99,233.99 -71.1,-10.07 -73.12,-161.64 -133.38,-242.5zm-140.31 -8.04c40.75,0.84 83.56,11.21 124.18,7.56 1.25,17.11 1.31,34.36 -0.02,51.47 -10.24,-20.14 -35.08,-17.58 -54.06,-18.56 0.06,19.6 0.09,39.24 0,58.87 14.48,0.21 29.12,2.15 43.55,-0.41 -0.32,16.96 0.24,33.91 -0.36,50.87 -13.45,-14.09 -23.59,-12.58 -42.9,-12.58 -0.2,22.91 0.24,45.82 -0.26,68.75 28.47,9.17 63.99,4.02 84.28,-19.57 -4.43,18.86 -8.09,37.96 -13.24,56.61 -23.07,12.86 -111.6,9.74 -142.02,12.32 21.84,-25.82 25.18,-230.21 0.85,-255.33zm1035.51 -10.32c30.56,-3.48 30.54,-3.66 61.16,-6.6 -31.11,44.79 -10.8,235.12 -10.29,295.19 -70.57,-43.01 -101.17,-114.75 -143.1,-183.66 0.12,48.87 -12.5,119.73 17.31,162.6 -20.56,-3.48 -42.51,-3.17 -63.09,-6.42 27.71,-31.32 20.4,-214.64 -7.87,-248.97 21.6,-0.74 43.05,-3.84 64.65,-4.11 31.9,51.87 60.53,109.55 97.62,157.81 0.07,-46.11 15.98,-126.88 -16.39,-165.84zm-1199.8 -8.12c28.43,5.78 56.49,10.1 84.35,9.13 -28.91,33.77 -11.66,171.52 -11.75,219.15 25.43,15.86 58.85,7.08 79.23,-13.03 -4.41,20.14 -7.06,40.67 -12.77,60.51 -45.99,3.69 -98.76,2.24 -144.58,7.5 25.16,-32.14 28.91,-254.4 5.52,-283.26zm-205.85 29.69c44.35,-67.31 120.2,-48.51 184.58,-33.2 -4.52,21.3 -8.39,42.69 -12.85,63.99 -163.03,-148.01 -187.33,324.84 21.93,159.77 -6.04,22.82 -12.17,45.67 -18.87,68.31 -178.09,77.97 -258.13,-130.4 -174.79,-258.87zm1482.17 -32.76c115.8,-12.51 213.85,-46.53 230.33,113.45 25.19,244.47 -122.28,197.36 -232.8,182.64 34.87,-22.45 16.72,-227.61 16.36,-269.13 0.3,-10.86 -7.38,-19.19 -13.89,-26.96zm75.33 42.85c-11.35,32.8 -1.47,171.75 -0.51,214.03 116.16,36.86 119.55,-176.33 54.89,-215.49 -17.04,-10.12 -36.89,-3.42 -54.38,1.46zm-468.38 -7.8c26.3,-2.23 52.66,-3.42 79.05,-3.78 24.41,78.07 38.43,172.06 86.37,239.59 -30.8,-3 -61.8,0.45 -92.56,-6.31 23.36,-16.99 7.08,-49.46 -1.55,-71.1 -19.72,-0.27 -39.42,-2.2 -59.11,-1.43 -4.99,26.92 -25.06,44.96 -1.57,68.73 -21.21,1.38 -36.21,2.54 -61.44,0.3 39.31,-56.76 47.25,-138.86 66.04,-203.89 3.54,-11.01 -7.05,-17.79 -15.23,-22.11zm21.33 123.77c13.48,0.38 26.95,0.53 40.46,1.04 -7.44,-22.49 -14.13,-45.22 -21.33,-67.81 -8.66,21.37 -12.7,44.57 -19.13,66.77zm-286.03 186.75c14.7,14.61 13.79,39.48 20.69,59.22 -10.76,-1.68 -24.6,-1.56 -40.11,0.33 6.47,-19.85 19.86,-36.58 19.42,-59.55zm202.23 -79.11c0.01,0.01 0.01,0.03 0.02,0.04 2,4.26 5.81,6.93 10.5,7.35 13.64,1.21 26.95,1.59 40.63,1.05 7.6,-0.31 15.19,-0.83 22.79,-1.33 5.13,-0.33 9.34,-3.44 11.17,-8.26 1.83,-4.81 0.75,-9.93 -2.87,-13.59 -4.15,-4.21 -7.57,-8.92 -7.46,-15.05 0.11,-5.34 2.56,-11.65 4.44,-16.6 1.97,-5.18 3.91,-10.21 5.5,-15.39 13.45,0.01 26.93,0.95 40.38,1.41 5.21,12.6 11.91,29.93 8.49,40.39 -1.06,3.27 -3.06,5.67 -5.82,7.68 -4.18,3.04 -6.08,7.96 -5.02,13.03 1.06,5.06 4.77,8.81 9.82,9.92 4.58,1 9.15,1.79 13.71,2.41 -23.47,-0.17 -46.95,-1.11 -70.37,-1.34 -3.31,-0.03 -6.33,1.12 -8.64,3.17 -2.36,-2.11 -5.3,-3.2 -8.6,-3.17 -48.88,0.48 -97.84,2.39 -146.7,0.02 -6.3,-0.31 -11.79,3.88 -13.17,10.03 -3.63,16.26 -8.76,32.16 -12.24,48.47 -1.16,5.45 1.15,10.78 5.91,13.67 4.76,2.89 10.56,2.46 14.85,-1.08 8.98,-7.43 20.52,-10.13 31.98,-10.05 2.37,18.72 4.14,37.59 4.92,56.4 0.87,21.18 1.54,73.97 -14.61,90.75 -40.34,-57.76 -56.21,-133.95 -79.52,-199.65 -1.96,-5.52 -7.17,-8.94 -13.01,-8.53 -26.17,1.84 -53.15,1.1 -79.35,-0.02 -5.14,-0.21 -9.66,2.42 -12,7.01 -2.2,4.34 -1.86,9.23 0.9,13.16 2.03,6.05 -1.25,27.26 -2.28,33.26 -3.61,20.92 -9.01,42 -14.84,62.39 -5.93,20.76 -12.58,41.61 -20.27,61.78 -2.4,6.32 -10.28,26.84 -14.66,31.56 -0.06,0.06 -0.12,0.12 -0.18,0.18 -14.89,-16.1 -14.59,-60.28 -14.05,-80.84 0.37,-14.18 1.28,-28.34 2.2,-42.49 0.52,-8.11 1.1,-16.32 1.42,-24.5 6.93,-0.2 14.25,1.05 18.29,6.03 3.48,4.28 9.01,5.85 14.22,4.02 5.21,-1.82 8.56,-6.5 8.6,-12.02 0.12,-14.47 3.39,-27.98 9.92,-40.89 2.17,-4.27 1.87,-9.03 -0.81,-13 -2.68,-3.96 -6.98,-6.02 -11.74,-5.61 -31.74,2.71 -63.58,2.94 -95.4,2.07 1.11,-1.33 1.96,-2.91 2.47,-4.68 21.41,-74.12 41.45,-148.63 62.76,-222.77 3.22,8.4 5.67,23.63 6.35,28.61 3,21.96 3.76,45.03 3.42,67.17 -0.34,21.69 -1.75,44.35 -5.5,65.74 -1.29,7.29 -5.63,28.56 -11.18,33.77 -3.93,3.69 -5.13,9.12 -3.13,14.13 2,5.01 6.62,8.12 12.01,8.08 46.24,-0.26 92.49,-2.2 138.73,-0.95 5.93,0.16 11.07,-3.63 12.69,-9.27 0.09,0.32 0.2,0.64 0.33,0.96 1.92,4.99 6.45,8.14 11.8,8.22 43.81,0.63 87.64,0.83 131.43,2.32 4.38,0.14 8.33,-1.84 10.77,-5.17zm449.87 -253.24c3.38,4.14 6.81,9.1 6.7,13.39 -0.01,0.16 -0.01,0.3 -0.01,0.46 0.15,17.4 1.47,35.28 2.31,52.69 1.27,26.34 2.34,52.7 2.64,79.07 0.33,28.26 0.12,58 -3.38,86.05 -1.2,9.65 -2.89,20.19 -6.04,29.41 -0.89,2.6 -3.55,9.42 -6,10.99 -1.44,0.93 -2.64,2.08 -3.58,3.39 -0.47,-16.68 -1.61,-33.52 -2.53,-50.1 -1.52,-27.28 -2.96,-54.56 -3.72,-81.87 -0.83,-30.03 -2.77,-116.92 13.61,-143.48zm-1281.33 253.77c0.5,-1.63 0.97,-3.35 1.42,-5.12 -0.47,1.71 -0.94,3.42 -1.42,5.12zm9.01 -51.08c-0.92,-1.28 -2.09,-2.41 -3.49,-3.33 -4.71,-3.09 -10.6,-2.84 -15.01,0.65 -16.62,13.11 -37.74,26.84 -58.76,31.28 -12.64,2.67 -25.18,1.93 -36.36,-4.96 -28.39,-17.49 -35.47,-64.34 -34.56,-94.64 0.61,-20.42 4.55,-42.37 12.92,-61.09 6,-13.42 15.71,-28.06 29.82,-33.9 22.83,-9.45 48.29,8.59 64.33,23.15 3.51,3.18 8.1,4.17 12.6,2.71 4.51,-1.46 7.65,-4.96 8.62,-9.59 3.87,-18.51 7.3,-37.1 11.1,-55.63 0.15,0.21 0.3,0.4 0.46,0.6 5.42,6.69 8.97,37.25 9.82,45.93 2.85,29.05 3.32,59.06 2.72,88.23 -0.48,23.35 -1.66,47.2 -4.21,70.59zm314.41 59.2c2.54,-1.72 4.25,-4.12 5.09,-7.17 5.2,-18.86 8.89,-38.06 13.36,-57.09 1.37,-5.84 -1.34,-11.68 -6.68,-14.4 -5.35,-2.72 -11.66,-1.47 -15.57,3.08 -14.73,17.12 -39.74,22.12 -61.53,18.02 0.17,-15.35 0.03,-30.7 0.05,-46.05 3.5,0.1 6.89,0.39 9.61,1.15 4.53,1.26 8.01,4.19 11.2,7.54 3.65,3.82 8.93,5.01 13.86,3.13 4.94,-1.87 8.09,-6.28 8.28,-11.56 0.6,-17.02 0.03,-34.05 0.36,-51.07 0.08,-3.98 -1.47,-7.44 -4.5,-10.02 -3.02,-2.59 -6.67,-3.58 -10.59,-2.89 -9.12,1.62 -18.86,1.2 -28.42,0.73 0.02,-11.11 0.02,-22.21 -0.01,-33.32 8.58,0.32 17.74,1.17 23.47,4.5 2.81,1.63 4.78,3.78 6.25,6.67 2.65,5.21 8.23,7.92 13.96,6.79 5.73,-1.14 9.85,-5.78 10.31,-11.61 0.85,-10.88 1.16,-21.8 0.97,-32.72 13.76,21.86 23.75,47.21 32.18,71.08 11.04,31.28 20.13,63.83 32.93,94.39 10.36,24.72 25.23,52.76 50.47,64.92 -6.99,-0.31 -13.98,-0.65 -20.96,-1.01 -6.19,-0.32 -11.6,3.68 -13.12,9.68 -2.17,8.57 -4.34,17.14 -6.5,25.71l2.21 -12.53c0.74,-4.2 -0.48,-8.14 -3.45,-11.19 -15.1,-15.52 -42.99,-16.33 -63.23,-14.76zm1049.43 -221.93c12.11,-3.48 26.78,-7.08 37.21,-0.79 12.16,7.34 20.42,22.64 25.31,35.51 7.05,18.56 10.3,39.64 10.62,59.45 0.49,30.2 -6.69,76.72 -34.77,94.31 -11.42,7.15 -24.25,7.84 -36.85,5.25 -0.4,-11.49 -1,-23.01 -1.52,-34.48 -0.92,-20.03 -1.79,-40.06 -2.38,-60.1 -0.65,-21.63 -1.07,-43.45 -0.41,-65.08 0.28,-8.91 0.69,-23.51 2.79,-34.07zm-434.94 93.31c-2.01,-0.04 -4.02,-0.09 -6.03,-0.13 0.89,-3.54 1.76,-7.1 2.65,-10.66 1.12,3.6 2.24,7.2 3.38,10.79zm-133.46 -268.98c5.59,-2.35 11.16,-4.73 16.81,-6.96 -0.03,10.3 1.16,21.27 -3.66,30.79 -7.71,16.04 -25.05,25.65 -42.25,27.73 -16.36,1.1 -31.47,-7.37 -42.99,-18.32 5.65,-2.71 11.34,-5.42 16.99,-8.16 8.12,19.76 37.22,19.22 49.06,3.49 6.55,-8.01 5.83,-18.87 6.04,-28.57zm-340.57 -3.89c0.36,-1.04 1.04,-3.1 1.4,-4.14 5.8,2.35 11.55,4.82 17.35,7.26 -0.18,7.88 -0.57,16.16 2.94,23.47 8.57,20.18 43.05,23.69 51.89,1.82 5.62,2.71 11.31,5.27 16.99,7.91 -8.3,7.65 -17.68,14.82 -28.92,17.29 -18.36,4.28 -37.93,-3.78 -50.37,-17.41 -8.84,-9.81 -9.85,-23.68 -11.28,-36.2zm499 -115.86c7.55,1.16 15.26,6.97 14.58,15.39 0.71,8.5 -7.23,14.22 -14.85,15.17 2.86,-4.7 8.15,-8.84 7.47,-14.94 0.95,-6.36 -4.11,-10.77 -7.2,-15.62zm-638.65 0.87c10.29,-0.06 19.84,10.59 15.14,20.73 -2.08,6.55 -9.1,8.24 -14.78,10.33 3.6,-4.91 9.34,-9.49 8.62,-16.22 0.72,-6.54 -5.47,-10.32 -8.98,-14.84zm484.18 -32.7c6.93,1.78 15.29,6.07 14.37,14.64 1.63,9.25 -6.76,14.31 -14.07,17.1 2.76,-5.53 7.4,-10.56 7.4,-17.07 -0.56,-5.74 -4.88,-9.97 -7.7,-14.67zm-327.45 -0.71c7.88,1.33 14.7,6.9 15.89,15.14 -0.77,8.36 -7.56,14.85 -15.83,15.71 3.3,-4.82 8.45,-9.2 8,-15.59 0.21,-6.25 -4.96,-10.47 -8.06,-15.26zm164.41 -11.13c8.63,1.1 17.85,8.03 16,17.73 -0.56,7.5 -7.97,11.13 -13.95,13.89 2.41,-5.65 7.29,-10.74 6.84,-17.19 -0.14,-6.16 -5.38,-10.06 -8.89,-14.43zm421.79 -479.39c7.97,-10.06 19.6,0.42 24.9,7.89 26.21,34.95 45.22,74.61 64.47,113.68 25.14,53.22 49.77,109.96 46.65,170.12 -1.04,37.81 -17.58,74.4 -43.91,101.33 -21.99,23.03 -48.35,42.54 -78.52,53.31 -13.53,-58.78 -47.81,-109.6 -82.91,-157.56 19.13,-4.58 36.74,-16.51 46.26,-33.95 12.35,-22.1 13.6,-48.58 10.23,-73.19 -1.63,-37.63 -5.41,-75.42 -1.81,-113.05 1.49,-23.12 1.58,-48.53 14.64,-68.58z"/>
   <path class="fil4" d="M1392.89 696.13c-0.62,23.42 -0.09,46.83 -0.23,70.25 -313.85,-110.4 -490.19,-71.2 -793.18,-1.04 -0.09,-22.47 0.15,-44.93 1.49,-67.36 229.14,-82.39 569.66,-90.41 791.92,-1.85zm-415.3 -429.82c142.75,-32.52 370.21,254.29 390.91,402.51 -112.74,-44.14 -250.91,-57.63 -372.2,-58.04 -0.11,-108.98 0.06,-217.96 -0.08,-326.97 -169.86,32.22 -294.47,221.46 -342.89,377.75 -8.3,3.87 -17.26,6.19 -25.94,9.08 25.74,-155.57 190.54,-367.58 350.2,-404.33zm10.06 372.85c-11.02,4.35 -18.21,16.52 -16.96,28.26 0.24,14.49 13.68,27.02 28.11,26.39 14.76,-0.44 27.61,-14.31 26.19,-29.18 1.22,-18.51 -20.5,-33.68 -37.34,-25.47zm-168.99 12.76c-18.22,10.23 -17.84,39.39 0.44,49.33 17.5,10.83 42.25,-4.46 41.03,-24.78 1.1,-20.53 -23.89,-36.27 -41.47,-24.55zm329.97 -0.8c-19.75,8.21 -22.19,37.99 -4.34,49.57 16.72,12.7 41.39,-0.98 42.96,-21.39 1.51,-19.71 -20.47,-37.88 -38.62,-28.18zm157.75 30.2c-21.17,5.96 -27.03,37.19 -8.87,49.92 14.7,12.53 39.9,3.27 43.08,-15.74 5.89,-19.6 -14.37,-40.85 -34.21,-34.18zm-640.32 2.17c-18.09,7.56 -22.39,34.58 -7.17,47.13 14.11,14.78 41.98,4.82 44.78,-15.06 5.92,-20.53 -18.06,-42.39 -37.61,-32.07z"/>
   <path class="fil5" d="M963.28 826.21c11.22,-6.49 22.23,-13.39 32.94,-20.68 12.02,7.26 24.36,13.95 35.85,22.11 -2.74,15.23 -2.74,31.32 -9.44,45.61 -0.95,3.09 -4.84,7.11 -1.13,9.93 9.88,9.98 14.11,25.76 16.99,39.49 -19.54,0.15 -39.11,0.22 -58.69,0.21 -7.41,-0.01 -14.83,-0.03 -22.24,-0.06 0.6,-15.74 6.19,-31.56 18.16,-42.23 -9.88,-16.18 -11.31,-35.88 -12.44,-54.38zm241.34 -23.18c3.96,0.12 7.95,0.33 11.91,0.68 4.25,6.7 5.05,15.09 7.46,22.62 13.45,-2.2 27.26,-4.2 40.82,-1.76 13.51,2.8 24.04,14.4 26.57,27.82 3.64,21.89 -0.28,44.87 -11.24,64.2 -73.96,3.19 -150.65,5.21 -228.02,5.96 -2.67,-15.86 -7.33,-33.7 -10.53,-48.83 38.23,19.76 85.41,33.74 126.95,15.71 -27.14,-1.55 -55.01,-5.03 -79.47,-17.7 -7.85,-3.84 -13.77,-10.44 -19.19,-17.11 5.51,-2.68 11.04,-5.3 16.57,-7.88 11.52,10.95 26.63,19.42 42.99,18.32 17.2,-2.08 34.54,-11.69 42.25,-27.73 4.82,-9.52 3.63,-20.49 3.66,-30.79 9.7,19.58 7.02,42.87 -4.22,61.17 8.77,-6.16 18.05,-12.58 23.23,-22.28 7.05,-13 8.69,-27.94 10.26,-42.4zm-490.29 114.3c-7.37,-16.73 -13.67,-38.49 -12.09,-56.43 -0.27,-15.44 8.78,-31.48 24.01,-36.21 14.67,-3.96 29.9,-0.77 44.75,0.3 2.02,-7.38 4.01,-14.79 6.06,-22.17 4.44,-0.12 8.87,-0.2 13.3,-0.29 1.22,16.51 3.49,34.09 13.63,47.81 6.52,7.43 14.4,13.68 22.64,19.16 -13.74,-16.52 -17.64,-40.2 -8.66,-59.89 1.43,12.52 2.44,26.39 11.28,36.2 12.44,13.63 32.01,21.69 50.37,17.41 11.24,-2.47 20.62,-9.64 28.92,-17.29 5.5,2.53 10.92,5.3 16.27,8.18 -23.62,28.65 -64.44,32.26 -99.04,33.71 16.84,7.8 35.91,11.1 54.32,8.54 25.47,-3.48 50.31,-11.21 72.99,-23.35 -2.83,12.82 -5.95,25.58 -8.6,38.44 -0.77,3.77 -1.57,7.53 -2.3,11.3 -76.86,-0.48 -153.46,-2.25 -227.85,-5.42zm195.4 -171.01c20.56,-3.57 41.56,-2.94 62.36,-3.57 38.79,0.18 77.74,-0.65 116.36,3.4 -22.59,12.82 -45.79,24.45 -68.46,37.13 3.3,-9.94 7.14,-19.67 10.74,-29.46 -8.27,3.93 -16.01,9.05 -24.7,12.05 -2.79,-5.98 -5.38,-12.05 -8.48,-17.88 -6.39,4.46 -8.48,13 -13.29,18.95 -7.59,-4.49 -15.36,-8.68 -23.15,-12.73 4.4,9.52 8.8,19.07 12.97,28.71 -21.48,-12.14 -43.02,-24.22 -64.35,-36.6z"/>
  </g>
 </g>
</svg>
