<?xml version="1.0" encoding="UTF-8"?>
<!DOCTYPE svg PUBLIC "-//W3C//DTD SVG 1.1//EN" "http://www.w3.org/Graphics/SVG/1.1/DTD/svg11.dtd">
<!-- Creator: CorelDRAW -->
<svg xmlns="http://www.w3.org/2000/svg" xml:space="preserve" width="2000px" height="1600px" version="1.1" style="shape-rendering:geometricPrecision; text-rendering:geometricPrecision; image-rendering:optimizeQuality; fill-rule:evenodd; clip-rule:evenodd"
viewBox="0 0 2000 1600"
 xmlns:xlink="http://www.w3.org/1999/xlink">
 <defs>
  <style type="text/css">
   <![CDATA[
    .fil0 {fill:#044A85;fill-rule:nonzero}
    .fil2 {fill:#80BDEA;fill-rule:nonzero}
    .fil1 {fill:#FBFDFB;fill-rule:nonzero}
   ]]>
  </style>
 </defs>
 <g id="Capa_x0020_1">
  <metadata id="CorelCorpID_0Corel-Layer"/>
  <g id="Columbia_x0020_Lions.cdr">
   <path class="fil0" d="M878.56 435.13c45.27,-12.39 97.11,-5.12 134.3,24.58 37.24,-28.93 88.48,-35.28 132.99,-21.69 -12.31,3.22 -23.59,10.05 -30.62,20.9 44.02,-10.93 93.11,-5.72 131.88,18.52 -13.21,3.76 -26.56,7.3 -39.01,13.24 9.67,4.3 19.67,7.85 29.91,10.6 13.59,-11.72 32.25,-14.3 49.55,-11.93 35.69,1.85 65.68,23.45 96.06,39.96 18.79,10.46 38.9,18.2 58.24,27.59 -16.05,24.79 -35.58,48.6 -62.39,62.22 23.02,15.8 39.67,39.07 52.31,63.64 11.82,23.18 22.09,47.43 28.17,72.79 -19.35,-8.91 -39.15,-19.59 -61.16,-18.42 34.38,27.79 55.68,68.54 66.99,110.66 13.92,50.86 16.42,104.36 11.36,156.69 -8.91,-22.42 -29.7,-36.91 -50.51,-47.29 10.24,95.76 -13.92,196.71 -73.61,273.23 -15.2,19.43 -31.84,38.11 -51.84,52.8 0.38,-32.12 -4.25,-64.37 -12.94,-95.24 -1.58,25.94 -5.5,52.03 -16.53,75.81 -21.36,47.79 -59.14,86.22 -100.77,116.98 -14.25,10 -28.41,20.51 -44.49,27.43 5.86,-7.22 12.89,-13.62 17.22,-21.98 7.25,-13.84 10.6,-29.37 12.7,-44.73 -12.34,13.56 -20.68,30.1 -31.9,44.56 -16.73,22.21 -38.17,40.49 -61.16,55.93 -9.13,6.24 -18.01,13.95 -21.71,24.71 -6.19,17.13 -2.86,35.66 -1.5,53.31 -35.9,-10.95 -68.92,-30.13 -98.94,-52.41 -34.03,-25.83 -63.34,-58.27 -83.85,-95.84 -7.76,-13.92 -11.96,-29.39 -18.69,-43.75 0.66,22.99 2.43,45.93 2.53,68.95 -16.86,-12.39 -33.42,-25.25 -49.14,-39.06 -14.36,-12.48 -23.07,-29.67 -34.4,-44.62 -13.95,-18.28 -20.79,-40.62 -27.16,-62.39 -6.82,-23.43 -10.14,-47.62 -13.38,-71.7 -8.72,33.24 -3.68,68.57 5.5,101.2 -23.92,-17.67 -43.34,-40.67 -60.77,-64.56 -53.53,-75.02 -74.4,-170.5 -65.22,-261.52 -20.57,10.55 -41.84,24.82 -49.85,47.65 -5.8,-46.91 -2.97,-94.8 6.95,-140.95 10.21,-47.78 32.22,-94.61 70.22,-126.51 -22.09,-1.41 -41.95,9.48 -61.1,18.85 10.38,-35.6 24.33,-70.64 45.63,-101.2 9.75,-14.11 22.18,-26.18 35.99,-36.28 -26.54,-12.15 -45.44,-35.75 -61.19,-59.53 -2.86,-3.38 3.13,-4.52 5.1,-5.75 15.71,-6.78 31.35,-13.75 46.58,-21.63 26.37,-13.94 51.46,-31.35 80.5,-39.5 23.56,-4.63 51.16,-7.73 70.85,9.16 9.59,-3.22 19.1,-6.65 28.55,-10.25 -11.71,-7.3 -25.52,-9.39 -38.22,-14.24 38.82,-23.65 87.01,-28.55 130.9,-18.66 -6.21,-10.82 -17.55,-16.51 -28.93,-20.33zm-575.62 -21.6c4.61,-1.46 9.2,-2.98 13.8,-4.46 0.44,-12.35 0.36,-24.71 0.62,-37.06l0.04 -2.41 2.29 -0.77c15.62,-5.29 31.04,-11.2 47.07,-15.2l4.17 -1.04 0.1 4.3c0.05,2.54 0.1,5.07 0.15,7.61 2.83,-0.82 5.67,-1.6 8.54,-2.31l4.17 -1.05 0.09 4.3c0.63,28.38 0.63,56.76 1.26,85.13l0.06 2.66 -2.55 0.72c-32.3,9.23 -64.78,17.84 -96.81,28.01 -11.33,3.59 -24.81,5.57 -34.66,-2.72 -1.36,-1.15 -2.55,-2.39 -3.57,-3.71 -3.34,-0.89 -6.52,-2.43 -9.39,-4.85 -9.9,-8.34 -10.15,-21.57 -10.48,-33.45l0 -0.11c0.14,-39.96 -0.12,-79.93 0.11,-119.89 0.16,-28.41 17.96,-55.22 43.51,-67.16 30.85,-15.28 61.67,-30.78 93.8,-43.28l4.66 -1.81 0.02 5c0.01,2.87 0.05,5.75 0.1,8.62 2.72,-1.1 5.44,-2.19 8.17,-3.25l4.66 -1.81 0.03 5c0.1,24.67 1.98,49.33 0.45,73.99l-0.14 2.33 -2.21 0.72c-15.79,5.22 -31,12.06 -46.74,17.45l-4.37 1.5 -0.17 -4.62c-0.11,-2.78 -0.19,-5.57 -0.26,-8.36 -2.7,1.01 -5.42,1.99 -8.16,2.93l-4.37 1.5 -0.17 -4.62c-0.1,-2.66 -0.18,-5.31 -0.25,-7.97 -4.65,1.93 -9.14,4.2 -13.2,7.09 -1.06,27.48 -0.02,54.98 -0.39,82.39 0.08,10.21 -0.19,20.45 0.02,30.66zm371.99 -225.65c-0.76,25.87 -0.42,51.77 0.36,77.72 0.19,20.4 -0.04,40.8 0.12,61.2 4,-0.48 8,-1.1 11.97,-1.76 0.41,-15.37 -0.01,-30.76 0.41,-46.13l0.07 -2.85 2.82 -0.45c17.19,-2.75 34.41,-5.4 51.79,-6.6l3.69 -0.26 -0.02 3.7c-0.01,3.72 -0.02,7.45 -0.02,11.18 3.08,-0.3 6.17,-0.56 9.27,-0.78l3.69 -0.26 -0.02 3.7c-0.13,34.73 0.27,69.45 -0.13,104.17l-0.04 3.1 -3.09 0.28c-51.73,4.74 -103.22,11.79 -154.54,19.78l-3.71 0.58 -0.25 -3.75c-0.26,-3.98 -0.48,-7.97 -0.65,-11.96 -2.77,0.43 -5.54,0.86 -8.31,1.29l-3.71 0.58 -0.25 -3.75c-1.12,-17.36 -1.53,-34.78 -0.65,-52.16l0.13 -2.69 2.64 -0.51c4.56,-0.88 9.12,-1.81 13.67,-2.7 -0.05,-45.04 -0.9,-90.08 -0.93,-135.12l-0.3 0.04 -3.7 0.47 -0.18 -3.72c-0.18,-3.91 -0.34,-7.81 -0.48,-11.72 -2.85,0.37 -5.71,0.76 -8.56,1.12l-3.7 0.48 -0.17 -3.73c-0.8,-17.08 -1.26,-34.2 -0.47,-51.28l0.12 -2.59 2.52 -0.6c29.91,-7.13 59.73,-14.74 90.05,-19.96l3.9 -0.66 0.12 3.94c0.13,4.03 0.25,8.07 0.34,12.11 2.85,-0.54 5.71,-1.05 8.56,-1.54l3.89 -0.67 0.13 3.95c0.58,18 0.96,36.03 -0.42,54.01l-0.21 2.8 -2.79 0.34c-4.32,0.54 -8.64,1.11 -12.96,1.66zm997.02 134.79c-1.61,10.23 -3.66,20.43 -5.08,30.69 3.03,1.01 6.07,2.01 9.12,2.97 -1.08,-11.25 -2.53,-22.46 -4.04,-33.66zm88.28 126.91c2.96,1.01 5.91,2.03 8.86,3.04l2.15 0.74 0.17 2.26c1.02,13.78 0.91,27.62 0.2,41.41l-0.23 4.36 -4.19 -1.25c-21.86,-6.5 -43.85,-12.66 -65.35,-20.29l-1.53 -0.55 -0.55 -1.51c-1.7,-4.65 -2.76,-9.38 -3.47,-14.15 -2.09,-0.72 -4.18,-1.44 -6.26,-2.18l-1.53 -0.54 -0.55 -1.52c-4.84,-13.23 -4.48,-27.17 -5.8,-40.82 -7.33,-2.62 -14.88,-4.65 -22.44,-6.45 -2.03,16.7 -4.04,33.4 -5.91,50.12l-0.41 3.63 -3.59 -0.62c-22.15,-3.82 -43.52,-10.96 -65.56,-15.25l-2.59 -0.5 -0.18 -2.62c-0.33,-4.5 -0.53,-9 -0.64,-13.5 -2.79,-0.62 -5.59,-1.22 -8.4,-1.76l-2.59 -0.5 -0.18 -2.63c-1.16,-15.99 -0.75,-32.02 -0.37,-48.03l0.1 -3.87 3.83 0.55c4.16,0.61 8.32,1.18 12.5,1.67 10,-58.26 21.33,-116.28 31.82,-174.45l0.68 -3.76 3.67 1.08c18.07,5.31 34.62,14.27 51.89,21.6l0.07 0.03 0.08 0.04c12.94,6.27 26.4,11.44 38.69,18.99l0.99 0.61 0.41 1.08c1.6,4.15 2.6,8.38 3.35,12.66 2.39,1.28 4.74,2.61 7.05,4.03l1 0.61 0.41 1.09c4.34,11.3 4.34,23.24 6.6,34.96l0.01 0.08c7.61,45.3 14.16,90.79 22.5,135.96l2.34 0.81 2.15 0.73 0.17 2.27c0.31,4.11 0.51,8.22 0.63,12.34zm-219.01 -208c-0.05,42.16 -1.5,84.33 -1.06,126.49l1.33 0.32 2.59 0.62 0.05 2.65c0.09,4.4 0.15,8.79 0.19,13.19 3.08,0.73 6.16,1.48 9.24,2.21l2.59 0.62 0.05 2.66c0.33,16.32 0.27,32.65 0.11,48.97l-0.04 4.16 -4.08 -0.82c-29.68,-6.04 -59.29,-12.57 -89.23,-17.25l-2.79 -0.43 -0.11 -2.83c-0.19,-4.66 -0.31,-9.32 -0.38,-13.99 -2.93,-0.49 -5.86,-0.97 -8.79,-1.43l-2.79 -0.43 -0.11 -2.82c-0.68,-17.13 -0.52,-34.27 -0.19,-51.39l0.07 -3.92 3.88 0.58c4.25,0.65 8.5,1.33 12.75,2.02 2.08,-15.63 0.71,-31.6 0.98,-47.3 0.47,-28.11 0.42,-56.23 0.63,-84.34l-1.29 -0.33 -2.46 -0.61 -0.14 -2.53c-0.25,-4.43 -0.42,-8.86 -0.52,-13.3l-8.95 -2.23 -2.46 -0.61 -0.15 -2.53c-0.96,-17.05 -0.66,-34.14 -0.22,-51.2l0.11 -4.33 4.19 1.09c30.28,7.9 59.88,18.08 89.48,28.13l2.25 0.77 0.08 2.36c0.15,4.12 0.24,8.23 0.29,12.34l9.46 3.21 2.24 0.76 0.09 2.37c0.57,15.92 0.24,31.86 0.3,47.79l0.01 4.07 -4.01 -0.67c-4.39,-0.73 -8.79,-1.43 -13.19,-2.09zm-275.64 -60.01l-0.13 -18.3 -8.15 0.66 -0.46 -63.72 3.31 0.41c35.17,4.37 69.91,11.58 104.53,19.09l0.09 0.02c13.96,3.41 28.51,4.74 40.32,13.86 9.94,7.67 16.39,18.42 19.99,30.18 8.9,13.19 12.36,29.98 11.77,45.82 -0.65,17.11 2.07,34.22 -3.24,50.92l-0.05 0.14c-2.52,6.92 -7.55,10.38 -13.44,12.45 1.6,2.23 2.97,4.69 4.01,7.47 0.13,0.34 0.25,0.68 0.37,1.02 1.94,3.8 4.45,9.15 7.91,16.61 5.8,15.47 2.9,31.37 3.18,47.38l0 0.13c-0.37,18.22 1.53,37.43 -9.15,53.36 -7.39,11.47 -21.8,16.43 -34.95,14 -41.94,-6.2 -84.02,-11.55 -126.24,-15.55l-2.99 -0.28 -0.12 -3.01c-0.17,-4.63 -0.3,-9.25 -0.38,-13.88l-4.78 -0.46 -3 -0.28 -0.11 -3.01c-0.69,-17.98 -0.61,-35.98 -0.14,-53.97l0.08 -3.31 3.32 -0.03c4.54,-0.05 9.09,-0.09 13.64,-0.15 1.21,-29.42 -0.29,-58.87 0.8,-88.3 0.62,-16.59 0.53,-33.2 0.49,-49.81l-6.48 0.54zm78.02 10.04c-0.01,10.01 -0.1,20.02 -0.04,30.02 7.03,1.26 14.06,2.51 21.11,3.72 -0.08,-9.99 0.06,-19.98 0.19,-29.97 -7.07,-1.35 -14.15,-2.65 -21.26,-3.77zm-0.7 99.7c0.08,12.66 -0.27,25.31 -0.4,37.97 7,1.15 14.02,2.22 21.06,3.15 0.4,-12.6 0.42,-25.2 0.31,-37.8 -6.95,-1.36 -13.94,-2.47 -20.97,-3.32zm-117.31 -180.46c3.33,0.49 6.66,1.01 9.98,1.56l2.88 0.47 0 2.91c0.03,18.1 0.11,36.21 -0.05,54.3l-0.04 3.8 -3.77 -0.41c-4.28,-0.47 -8.56,-0.92 -12.84,-1.36 -1.74,47.45 -0.28,94.94 -1.2,142.4l2.73 0.25 0.18 2.94c0.28,4.41 0.47,8.81 0.59,13.22 3.06,0.29 6.12,0.57 9.18,0.85l2.93 0.26 0.19 2.95c1.15,18.33 0.77,36.7 0.36,55.04l-0.08 3.54 -3.53 -0.18c-23.68,-1.23 -47.32,-3.11 -70.97,-4.72l-3.3 -0.22 0.1 -3.31c0.13,-4.35 0.24,-8.7 0.34,-13.05 -3.34,-0.23 -6.68,-0.47 -10.03,-0.69l-3.3 -0.23 0.1 -3.3c0.95,-31.5 0.95,-63.02 0.75,-94.53 -12.11,26.88 -23.4,53.89 -36.42,80.47l-12.89 -17.27 -3.06 -6.43c-12,-25.24 -22.14,-51.3 -33.56,-76.73l-0.23 -0.48c-0.01,4.47 0.06,8.94 0.07,13.4 0.13,38.21 -0.08,76.42 0.08,114.63l0.02 3.32 -3.32 0.12c-22.69,0.88 -45.4,0.58 -68.09,0.25l-3.32 -0.05 -0.07 -3.31c-0.1,-4.59 -0.18,-9.19 -0.23,-13.78 -3.09,-0.04 -6.18,-0.09 -9.27,-0.13l-3.31 -0.05 -0.08 -3.31c-0.41,-18.62 -0.41,-37.25 0.03,-55.87l0.08 -3.24 3.24 -0.11c4.36,-0.16 8.74,-0.29 13.11,-0.39 0.77,-48.14 0.44,-96.28 0.31,-144.41l-0.32 -0.01 -3.25 -0.06 -0.12 -3.25c-0.17,-4.59 -0.3,-9.18 -0.4,-13.78 -3.04,-0.06 -6.08,-0.12 -9.12,-0.18l-3.25 -0.07 -0.11 -3.24c-0.69,-18.67 -0.83,-37.37 0.08,-56.03l0.16 -3.28 3.27 0.01c22.81,0.02 45.64,-0.6 68.39,1.29l2.01 0.17 0.83 1.83c2.28,5 4.54,10 6.78,15.02 1.09,0.08 2.17,0.16 3.26,0.25l2.01 0.17 0.84 1.83c14.66,32.12 28.28,64.68 42.36,97.06 16.64,-35.78 31.13,-72.53 48.03,-108.19l1 -2.11 2.32 0.15c22.78,1.45 45.51,3.88 68.04,7.58l2.87 0.48 0.01 2.91 0.02 12.33zm-451.54 61.47l-1.66 0.04 -3.46 0.08 -0.06 -3.46c-0.06,-3.82 -0.19,-7.63 -0.33,-11.45l-7.47 0.19 -3.46 0.09 -0.06 -3.47c-0.3,-18.2 -2.04,-36.4 -0.09,-54.58l0.3 -2.77 2.77 -0.28c24.28,-2.46 48.37,-6.65 72.76,-7.97l3.22 -0.17 0.38 3.2c0.47,4.01 0.78,8.03 0.98,12.04 2.25,-0.16 4.49,-0.31 6.74,-0.43l3.22 -0.17 0.38 3.2c1.79,15.15 1.26,30.37 1.17,45.59 -0.31,52.34 0.48,104.67 0.7,157 5,-0.21 9.99,-0.5 14.98,-0.81 0.91,-73.18 -0.13,-146.37 -0.23,-219.55l-0.01 -3.25 3.25 -0.19c24.65,-1.42 49.28,-3.71 74,-3.65l3.36 0.01 0.07 3.35c0.07,3.78 0.14,7.56 0.19,11.33 2.57,-0.04 5.13,-0.06 7.7,-0.05l3.36 0 0.07 3.36c0.38,18.55 0.46,37.11 -0.03,55.65l-0.09 3.27 -3.26 0.08c-4.39,0.11 -8.78,0.2 -13.17,0.28 1.05,53.09 0.01,106.2 0.53,159.29 0.18,18.87 -2.24,39.31 -15.52,53.82 -7.32,8.54 -18.51,12.05 -29.42,12.63 -20.89,1.1 -41.8,1.9 -62.66,3.45 -11.03,0.82 -22.98,-0.55 -31.01,-8.97 -4.02,-3.8 -7,-8.08 -9.23,-12.67 -0.72,-0.61 -1.42,-1.27 -2.09,-1.97 -16.67,-15.79 -15.64,-39.75 -16.18,-60.83l0 -0.15c0.71,-43.7 -0.64,-87.41 -0.64,-131.11zm-283.8 58.98c-4.46,1.39 -8.91,2.84 -13.34,4.33 -0.38,42.74 0.27,85.48 0.88,128.22 4.49,-1.08 8.97,-2.17 13.45,-3.26 0.01,-43.1 -0.92,-86.19 -0.99,-129.29zm55.31 -66.23c10.18,5 16.87,16.66 18.41,27.62 3.52,25.18 0.85,50.54 1.96,75.81 1.24,28.14 0.02,56.31 1.14,84.44 0.83,20.75 -2.17,43.48 -17.52,58.78 -14.04,14.53 -34.1,13.94 -52.21,18.57l-0.15 0.03 -0.15 0.03c-17.64,2.88 -34.45,9.44 -52.58,9.31l-0.08 -0.01 -0.08 0c-9.76,-0.53 -17.48,-6.24 -22.4,-14 -10.66,-5.21 -17.3,-17.32 -18.23,-29.25 -2.41,-30.87 -0.7,-61.82 -1.57,-92.73 -0.61,-21.92 -0.86,-43.86 -0.46,-65.79 0.45,-24.71 13.93,-50.06 37.1,-60.36l0.07 -0.03c17.26,-7.19 35.18,-12.5 52.92,-18.55 9.24,-2.94 18.28,-6.48 27.99,-7.6 4.58,-0.53 9.07,0.22 13.23,2.2 5.15,2.45 9.43,6.61 12.61,11.53zm567.76 799.59c2.78,-1.28 5.56,-2.57 8.37,-3.85 -0.14,4.8 -0.27,9.57 -0.44,14.36 -6.59,0.65 -6.7,-5.86 -7.93,-10.51zm-212.51 -3.74c2.35,1.09 4.69,2.21 7.03,3.33 0.14,3.16 0.27,6.32 0.44,9.5 -1.86,0.17 -5.56,0.49 -7.41,0.66 0,-4.5 -0.03,-8.99 -0.06,-13.49zm232.24 -16.59c-0.58,-4.44 4.96,-5.42 7.73,-7.3 -0.02,4.8 -0.1,9.59 -0.24,14.41 -3.24,-1.3 -7.98,-2.67 -7.49,-7.11zm-251.6 -7.24c5.69,1.69 7.73,6.45 8.28,11.93 -2.05,0.41 -6.11,1.2 -8.15,1.61 -0.08,-4.53 -0.13,-9.02 -0.13,-13.54zm272.25 -9.7c-0.44,-6.21 1.25,-11.66 7.57,-13.76 0.11,4.58 0.19,9.21 0.27,13.84 -1.96,-0.03 -5.88,-0.08 -7.84,-0.08zm-293.29 -13c2.57,0.82 5.1,1.67 7.66,2.51 -0.11,3.62 -0.25,7.27 -0.38,10.93 -1.8,-0.17 -5.34,-0.47 -7.11,-0.63 -0.03,-4.28 -0.08,-8.56 -0.17,-12.81zm115.59 -202.24c18.91,-22.39 55.57,-20.97 77.39,-3.46 -4.71,1.88 -9.31,4.28 -14.33,5.26 -11.46,-2.18 -23.01,-7.93 -34.86,-4.19 -9.21,2.83 -18.69,6.13 -28.2,2.39zm99.46 -88.18c41.03,-14.46 79.87,-34.29 119.89,-51.13 -9.1,30.81 -38.11,50.56 -67.59,59.28 -5.44,2.37 -12.96,2.45 -16.1,8.25 -7.82,12.51 -12.61,26.73 -21.38,38.66 -6.02,8.25 -12.4,16.26 -19.81,23.32 1.15,-26.13 2.18,-52.36 4.99,-78.38zm-243.38 -51.13c27.19,10.82 53.1,24.57 80.31,35.39 12.78,5.66 26.1,10.13 38.77,16.04 2.42,3.54 1.69,8.2 2.31,12.26 1.06,21.9 2.75,43.78 3.71,65.68 -11.88,-11.93 -22.83,-25.12 -30.05,-40.45 -4.39,-8.26 -7.63,-17.38 -13.76,-24.57 -14.57,-6.3 -30.51,-9.65 -43.97,-18.47 -17.38,-10.22 -31.21,-26.57 -37.32,-45.88zm117.82 -85.21c2.97,10.68 4.44,21.74 3.33,32.8 -12.53,-6.21 -24.17,-14.33 -37.41,-19.02 -16.91,-6.1 -35.85,-9.42 -53.25,-3.32 11.71,6.7 22.83,15.04 29.39,27.19 -27.3,6.56 -55.27,10.95 -81.61,20.95 -8.53,3.46 -15.26,10.02 -21.91,16.18 -28.9,27.7 -52,61.45 -67.91,98.18 4.82,-0.19 9.67,-0.44 14.52,-0.63 6.46,26.97 0.24,54.76 -4.6,81.48 5.33,-1.12 10.65,-2.32 15.99,-3.41 -9.13,14.39 -19.75,27.73 -29.64,41.57 -10.35,13.71 -15.58,30.65 -17.9,47.49 -3.95,38.08 10.65,75.26 31,106.76 17.33,-5.67 34.43,-12.02 52,-17 -20.29,-8.18 -41.46,-18.99 -51.65,-39.5 -10.43,-18.31 -0.84,-39.72 9.76,-55.55 10.16,-13.97 20.92,-29.83 38.35,-35.03 21.09,-7.36 41.41,-16.89 62.9,-23.13 -10.4,12.83 -22.25,24.82 -29.34,39.96 -11.06,20.76 -13.48,46.97 -2.34,68.19 10.27,19.72 27.3,35.9 47.46,45.25 -0.06,2.2 -0.14,6.62 -0.19,8.82 -17.25,-0.32 -34.49,-2.5 -51.74,-0.79 -23.8,2.29 -47.56,7.03 -69.82,15.94 4.96,6.43 8.37,15.01 15.5,19.23 11.39,-3.59 22.07,-9.15 33.54,-12.56 29.39,-10.05 60.86,-13.51 91.78,-10.73 1.11,4.22 4.41,12.64 -2.95,12.31 -39.96,-4.35 -80.36,3.27 -117.65,17.57 5.39,8.34 11.71,16 18.03,23.62 38.22,-18.39 80.28,-32.93 123.3,-28.49 -0.08,4.9 -0.3,9.83 -0.66,14.74 28.77,7.22 60.53,8.28 88.29,-3.41 2.54,-10.3 5.5,-20.57 6.13,-31.19 -5.53,-5.53 -14.38,-6.32 -21.49,-9.21 -20.32,-7 -44.11,-11.14 -57.92,-29.28 -6.78,-7.25 -15.14,-14.25 -16.07,-24.88 -5.58,-40.15 9.51,-79.05 18.36,-117.6 2.43,-13.75 -8.09,-24.7 -13.43,-36.31 -1.93,-9.12 -0.63,-19.34 -6.29,-27.29 -3.9,-6.27 -10.74,-9.51 -16.95,-12.92 5.15,10.68 10.36,23.78 3.55,35.04 -10.63,15.5 -35.26,16.5 -49.56,5.72 -8.58,-6.16 -8.55,-17.44 -8.5,-26.89 -17.89,-5.7 -41.02,-4.31 -53.09,-21.06 23.56,-9.15 48.82,-13.97 74.12,-13.73 25.45,-0.49 54.05,0.74 74.16,18.44 17.62,14.61 19.72,39.59 35.68,55.52 -12.12,44.13 -20.78,89.16 -27.87,134.36 23.32,-0.82 44.6,9.26 66.15,16.56 38.27,8.99 75.13,-9.04 111.69,-17.54 -6.43,-44.93 -16.16,-89.41 -26.16,-133.54 15.59,-18.88 20.46,-45.79 41.93,-59.74 25.42,-17.3 57.7,-13.95 86.87,-13.98 18.09,-0.24 35.47,5.34 52.14,11.8 -1.01,3.98 -0.13,9.45 -4.76,11.28 -13.63,7.24 -29.59,7.43 -44.65,7.76 -0.25,-2.15 -0.74,-6.46 -0.98,-8.61 -1.99,0.85 -3.95,1.72 -5.94,2.56 4.52,10.44 8.09,23.98 -0.28,33.54 -13.15,14.38 -40.26,14.11 -52.3,-1.53 -7.79,-11.03 -1.85,-24.49 2.21,-35.68 -6.38,3.62 -13.11,7.51 -16.84,14.08 -5.04,7.9 -4.06,17.68 -6.1,26.48 -5.12,11.82 -15.8,23.07 -13.24,36.88 8.36,35.58 20.41,71.27 18.39,108.29 -0.14,13.4 -7.55,25.01 -15.17,35.44 -6.87,9.15 -17.85,13.7 -28.17,17.79 -17.41,6.4 -35.33,11.28 -52.91,17.24 2.05,10.65 4.15,21.28 6.52,31.87 16.67,7.14 35.03,8.61 52.98,8.78 15.8,0.05 32.06,-0.38 46.86,-6.68 -6.65,-1.17 -13.3,-2.12 -19.92,-3.35 1.12,-3.46 2.24,-6.92 3.38,-10.35 45.63,-3.11 90.25,12.07 129.72,33.89 6.05,-8.42 11.96,-16.95 17.22,-25.88 -40.78,-16.26 -85.05,-25.09 -128.96,-19.94 0.74,-4.17 -2.07,-11.66 4.33,-12.13 44.62,-5.74 88.92,7.99 129.13,26.29 4.57,-6.97 8.93,-14.08 12.66,-21.52 -24.76,-9.34 -50.86,-15.31 -77.28,-17.21 -16.18,-1.31 -32.36,0.84 -48.57,0.7 0.27,-3.35 0.57,-6.67 0.9,-10.02 9.42,-2.02 19.26,-4.5 26.26,-11.63 19.37,-16.16 35.17,-39.67 33.53,-65.87 -1.39,-30.41 -21.06,-55.58 -41.79,-76.14 23.13,8.25 45.88,17.54 68.9,26.07 14.63,4.9 23.48,18.47 32.6,30.02 11.66,15.82 22.07,36.91 13.84,56.58 -10.51,23.64 -34.97,36.07 -58.46,43.37 18.69,3.86 36.64,10.57 54.19,17.98 19.01,-34.22 36.83,-73.23 29.28,-113.3 -3.4,-16.43 -6.95,-34.03 -18.39,-46.99 -9.12,-10.87 -18.52,-21.53 -27.18,-32.78 4.98,0.99 9.97,1.99 14.98,3 -6.4,-24.82 -13.68,-50.5 -9.45,-76.33 0.89,-10.35 13.21,-5.26 19.99,-6.26 -17.71,-41.58 -44.57,-79.9 -79.52,-108.67 -29.12,-14.14 -61.73,-19.51 -93.33,-25.61 5.56,-12.94 17.77,-20.4 28.5,-28.55 -32.28,-9.61 -63.31,7.88 -90.63,23.05 -0.47,-11.12 1.17,-22.12 3.86,-32.85 -14,0.65 -26.96,7.81 -36.09,18.22 -2.72,3.73 -2.45,8.72 -3.16,13.08 -3.19,35.49 -6.87,70.96 -9.29,106.54 -6.4,-0.38 -12.75,-0.9 -19.1,-1.58 -2.26,-33.56 -5.66,-67.04 -8.77,-100.55 -0.9,-5.09 -0.38,-10.98 -4.14,-15.01 -11.14,-12.29 -25.74,-22.83 -42.88,-23.7zm-232.89 47.24c-23.75,6.48 -40.59,27.1 -64.78,32.9 9.84,11.23 24.55,16.05 38.5,19.81 10.54,2.15 21.54,4.9 32.3,3.1 16.05,-13.29 31.06,-28.03 45.88,-42.71 3.92,-3.08 -2.1,-5.94 -4.33,-7.36 -14.36,-7.9 -31.74,-8.52 -47.57,-5.74zm536.58 11.9c11.31,13.51 25.25,24.44 37.54,37 5.18,4.43 10,11.76 17.84,10.32 22.21,-1.66 45.58,-7.22 62.36,-22.77 -16.67,-5.34 -30.92,-15.51 -45.36,-25.01 -21.44,-14.17 -51.02,-13.41 -72.38,0.46zm-420.85 162.71c5.61,17.49 34.73,18.5 41.38,1.31 3.43,-7.16 -1.28,-14.19 -4.63,-20.35 -1.2,5.67 -0.36,12.23 -4.06,17.08 -4.66,6.57 -15.56,7.28 -21.03,1.42 -5.4,-4.74 -3.95,-12.59 -5.15,-18.93 -4.39,5.5 -8.67,12.04 -6.51,19.47zm323.41 0.22c5.31,17.16 33.26,18.12 40.59,2.07 3.57,-6.56 0.24,-13.67 -3.22,-19.42 -1.49,4.88 -1.96,10.19 -4.55,14.65 -4.82,7.47 -16.99,7.93 -22.47,0.99 -4.3,-4.8 -3.19,-11.75 -3.92,-17.66 -4.61,5.23 -9.4,12.1 -6.43,19.37zm-376.59 286.77c6.84,10.57 15.01,20.24 20.81,31.47 16.24,30.56 24.49,64.45 32.91,97.79 8.01,33.27 15.39,67.78 34.05,97.04 16.35,25.58 43.73,42.55 72.98,49.36 48.52,12.45 98.84,5.31 148.03,2.56 19.07,-1.28 38.44,-6.37 54.02,-17.82 16.21,-11.6 27.16,-29.09 34.33,-47.42 10.16,-26.78 17.35,-54.57 23.81,-82.44 10.89,-44.02 22.45,-89.84 51.62,-125.82 -23.7,-11.8 -49.28,-21.09 -75.65,-24.19 -5.04,4.44 -6.97,11.46 -12.12,15.85 -5.34,3.65 -11.74,5.12 -17.82,7.03 13.98,23.64 20.19,54.51 6.89,79.82 -7.79,13.75 -14.82,28.38 -16.26,44.35 -2.69,26.66 2.67,54.42 -6.54,80.22 -2.69,8.39 -9.12,15.53 -17.7,18.01 -18.72,6.1 -38.22,0 -56.83,-3.24 -26.56,-4.17 -54.24,-5.29 -80.39,1.93 -14.55,3.76 -29.61,8.12 -44.78,5.88 -14.52,-2.04 -26.1,-14.9 -28.04,-29.17 -3.48,-25.23 9.27,-50.4 2.1,-75.41 -4.71,-19.58 -18.85,-35.05 -24.54,-54.21 -6.38,-22.58 -0.52,-46.77 11.33,-66.49 -5.07,-1.96 -10.19,-3.79 -15.01,-6.27 -8.61,-4.19 -12.5,-13.54 -17.87,-20.86 -27.41,3.15 -54.13,10.95 -79.33,22.03zm173.99 17.6c5.32,15.47 10.44,31.06 17.08,46.01 7.19,-13.65 12.94,-27.98 20.33,-41.54 8.71,14.06 15.41,29.23 23.75,43.5 8.61,-14.95 15.58,-30.78 24.55,-45.54 8.28,13.86 13.02,29.66 21.87,43.17 7.38,-14.41 12.69,-29.8 19.29,-44.56 -22.01,-4.33 -48.9,1.74 -66.04,-16.05 -15.9,15.61 -40.29,13.51 -60.83,15.01zm130.54 0.41c6.95,29.34 17.85,57.97 18.8,88.48 10.87,-19.34 19.83,-40.78 19.04,-63.36 -0.21,-10.22 -0.43,-22.94 -9.8,-29.29 -9.43,0.85 -18.69,2.89 -28.04,4.17zm-170.88 14.25c-1.91,25.99 4.82,52.25 18.9,74.2 0.82,-16.4 3.3,-32.69 7.71,-48.51 3.27,-13.54 9.1,-26.48 10.3,-40.48 -8.42,-0.79 -16.78,-2.35 -25.22,-2.65 -7.09,2.81 -11.26,10 -11.69,17.44zm-9.94 35.9c4.93,16.78 17.05,30.7 19.64,48.3 1.66,11.88 4.63,23.76 11.82,33.62 6.05,-14.6 9.7,-31.33 21.47,-42.64 0.9,8.23 0.43,16.7 2.61,24.77 6.97,11.41 16.51,21.03 25.36,31 1.45,-3.87 2.86,-7.71 4.31,-11.55 9.34,9.56 17.38,20.29 26.53,30.04 5.34,-5.17 9.56,-12.14 16.86,-14.79 -5.04,7.06 -10.87,13.49 -16.72,19.83 -8.83,-9.69 -16.7,-20.24 -26.05,-29.44 -3.89,13.4 -8.39,26.64 -12.5,39.99 26.53,-3 53.23,-3.46 79.9,-2.56 -4.06,-13.05 -9.45,-25.61 -14.41,-38.31 -2.62,2.37 -5.26,4.74 -7.77,7.22 2.32,-4.16 4.58,-8.36 7.03,-12.45 2.26,2.43 4.53,4.85 6.81,7.3 9.29,-8.11 19.92,-15.06 27.46,-24.95 2.26,-8.55 2.05,-17.51 3.33,-26.23 12.09,14.19 16.72,32.74 23.48,49.71 12.09,-10.7 10.57,-27.62 14.55,-41.89 3.81,-16.32 10.78,-31.69 15.09,-47.87 -3.3,0.22 -6.6,0.49 -9.86,0.82 -4.94,16.32 -10.82,32.74 -21.44,46.31 -1.04,-10.98 -1.88,-22.01 -3.71,-32.91 -17.57,-4.87 -37.59,-6.18 -53.75,3.74 -10.57,5.33 -17.57,16.01 -28.55,20.45 -8.74,-0.98 -15.33,-7.98 -22.88,-12.01 -15.8,-10.46 -35,-14.85 -53.83,-13.35 -2.2,11.31 -3.02,22.78 -3.92,34.22 -10.41,-13.41 -16.51,-29.53 -21.6,-45.58 -3.08,-0.3 -6.19,-0.54 -9.26,-0.79zm38.68 135.66c10.05,-0.27 19.94,-1.98 29.72,-4.19 -5.99,-28.63 -18.12,-56.23 -17.63,-86 -16.23,26.69 -25.88,60.34 -12.09,90.19zm139.12 -88.91c-1.44,21 -5.8,41.65 -12.07,61.7 -1.01,-0.41 -2.97,-1.2 -3.95,-1.58 1.17,3.84 3.87,14.55 -3.29,8.99 1.09,3.76 1.99,7.57 2.86,11.44 10.76,1.12 21.44,3.33 32.28,3.54 9.75,-28.57 -1.34,-59.22 -15.83,-84.09z"/>
   <path class="fil1" d="M832.74 709.48c-2.16,-7.43 2.12,-13.97 6.51,-19.47 1.2,6.34 -0.25,14.19 5.15,18.93 5.47,5.86 16.37,5.15 21.03,-1.42 3.7,-4.85 2.86,-11.41 4.06,-17.08 3.35,6.16 8.06,13.19 4.63,20.35 -6.65,17.19 -35.77,16.18 -41.38,-1.31zm156.36 444.29c9.35,9.2 17.22,19.75 26.05,29.44 5.85,-6.34 11.68,-12.77 16.72,-19.83 0.6,-0.82 1.83,-2.45 2.45,-3.27 2.51,-2.48 5.15,-4.85 7.77,-7.22 4.96,12.7 10.35,25.26 14.41,38.31 -26.67,-0.9 -53.37,-0.44 -79.9,2.56 4.11,-13.35 8.61,-26.59 12.5,-39.99zm91.97 -42.39c14.49,24.87 25.58,55.52 15.83,84.09 -10.84,-0.21 -21.52,-2.42 -32.28,-3.54 -0.87,-3.87 -1.77,-7.68 -2.86,-11.44 7.16,5.56 4.46,-5.15 3.29,-8.99 0.98,0.38 2.94,1.17 3.95,1.58 6.27,-20.05 10.63,-40.7 12.07,-61.7zm-139.12 88.91c-13.79,-29.85 -4.14,-63.5 12.09,-90.19 -0.49,29.77 11.64,57.37 17.63,86 -9.78,2.21 -19.67,3.92 -29.72,4.19zm-28.74 -171.56c0.43,-7.44 4.6,-14.63 11.69,-17.44 8.44,0.3 16.8,1.86 25.22,2.65 -1.2,14 -7.03,26.94 -10.3,40.48 -4.41,15.82 -6.89,32.11 -7.71,48.51 -14.08,-21.95 -20.81,-48.21 -18.9,-74.2zm170.88 -14.25c9.35,-1.28 18.61,-3.32 28.04,-4.17 9.37,6.35 9.59,19.07 9.8,29.29 0.79,22.58 -8.17,44.02 -19.04,63.36 -0.95,-30.51 -11.85,-59.14 -18.8,-88.48zm-130.54 -0.41c20.54,-1.5 44.93,0.6 60.83,-15.01 17.14,17.79 44.03,11.72 66.04,16.05 -6.6,14.76 -11.91,30.15 -19.29,44.56 -8.85,-13.51 -13.59,-29.31 -21.87,-43.17 -8.97,14.76 -15.94,30.59 -24.55,45.54 -8.34,-14.27 -15.04,-29.44 -23.75,-43.5 -7.39,13.56 -13.14,27.89 -20.33,41.54 -6.64,-14.95 -11.76,-30.54 -17.08,-46.01zm202.6 -304.37c-2.97,-7.27 1.82,-14.14 6.43,-19.37 0.73,5.91 -0.38,12.86 3.92,17.66 5.48,6.94 17.65,6.48 22.47,-0.99 2.59,-4.46 3.06,-9.77 4.55,-14.65 3.46,5.75 6.79,12.86 3.22,19.42 -7.33,16.05 -35.28,15.09 -40.59,-2.07z"/>
   <path class="fil2" d="M949.9 487.63c17.14,0.87 31.74,11.41 42.88,23.7 3.76,4.03 3.24,9.92 4.14,15.01 3.11,33.51 6.51,66.99 8.77,100.55 6.35,0.68 12.7,1.2 19.1,1.58 2.42,-35.58 6.1,-71.05 9.29,-106.54 0.71,-4.36 0.44,-9.35 3.16,-13.08 9.13,-10.41 22.09,-17.57 36.09,-18.22 -2.69,10.73 -4.33,21.73 -3.86,32.85 27.32,-15.17 58.35,-32.66 90.63,-23.05 -10.73,8.15 -22.94,15.61 -28.5,28.55 31.6,6.1 64.21,11.47 93.33,25.61 34.95,28.77 61.81,67.09 79.52,108.67 -6.78,1 -19.1,-4.09 -19.99,6.26 -4.23,25.83 3.05,51.51 9.45,76.33 -5.01,-1.01 -10,-2.01 -14.98,-3 8.66,11.25 18.06,21.91 27.18,32.78 11.44,12.96 14.99,30.56 18.39,46.99 7.55,40.07 -10.27,79.08 -29.28,113.3 -17.55,-7.41 -35.5,-14.12 -54.19,-17.98 23.49,-7.3 47.95,-19.73 58.46,-43.37 8.23,-19.67 -2.18,-40.76 -13.84,-56.58 -9.12,-11.55 -17.97,-25.12 -32.6,-30.02 -23.02,-8.53 -45.77,-17.82 -68.9,-26.07 20.73,20.56 40.4,45.73 41.79,76.14 1.64,26.2 -14.16,49.71 -33.53,65.87 -7,7.13 -16.84,9.61 -26.26,11.63 -0.33,3.35 -0.63,6.67 -0.9,10.02 16.21,0.14 32.39,-2.01 48.57,-0.7 26.42,1.9 52.52,7.87 77.28,17.21 -3.73,7.44 -8.09,14.55 -12.66,21.52 -40.21,-18.3 -84.51,-32.03 -129.13,-26.29 -6.4,0.47 -3.59,7.96 -4.33,12.13 43.91,-5.15 88.18,3.68 128.96,19.94 -5.26,8.93 -11.17,17.46 -17.22,25.88 -39.47,-21.82 -84.09,-37 -129.72,-33.89 -1.14,3.43 -2.26,6.89 -3.38,10.35 6.62,1.23 13.27,2.18 19.92,3.35 -14.8,6.3 -31.06,6.73 -46.86,6.68 -17.95,-0.17 -36.31,-1.64 -52.98,-8.78 -2.37,-10.59 -4.47,-21.22 -6.52,-31.87 17.58,-5.96 35.5,-10.84 52.91,-17.24 10.32,-4.09 21.3,-8.64 28.17,-17.79 7.62,-10.43 15.03,-22.04 15.17,-35.44 2.02,-37.02 -10.03,-72.71 -18.39,-108.29 -2.56,-13.81 8.12,-25.06 13.24,-36.88 2.04,-8.8 1.06,-18.58 6.1,-26.48 3.73,-6.57 10.46,-10.46 16.84,-14.08 -4.06,11.19 -10,24.65 -2.21,35.68 12.04,15.64 39.15,15.91 52.3,1.53 8.37,-9.56 4.8,-23.1 0.28,-33.54 1.99,-0.84 3.95,-1.71 5.94,-2.56 0.24,2.15 0.73,6.46 0.98,8.61 15.06,-0.33 31.02,-0.52 44.65,-7.76 4.63,-1.83 3.75,-7.3 4.76,-11.28 -16.67,-6.46 -34.05,-12.04 -52.14,-11.8 -29.17,0.03 -61.45,-3.32 -86.87,13.98 -21.47,13.95 -26.34,40.86 -41.93,59.74 10,44.13 19.73,88.61 26.16,133.54 -36.56,8.5 -73.42,26.53 -111.69,17.54 -21.55,-7.3 -42.83,-17.38 -66.15,-16.56 7.09,-45.2 15.75,-90.23 27.87,-134.36 -15.96,-15.93 -18.06,-40.91 -35.68,-55.52 -20.11,-17.7 -48.71,-18.93 -74.16,-18.44 -25.3,-0.24 -50.56,4.58 -74.12,13.73 12.07,16.75 35.2,15.36 53.09,21.06 -0.05,9.45 -0.08,20.73 8.5,26.89 14.3,10.78 38.93,9.78 49.56,-5.72 6.81,-11.26 1.6,-24.36 -3.55,-35.04 6.21,3.41 13.05,6.65 16.95,12.92 5.66,7.95 4.36,18.17 6.29,27.29 5.34,11.61 15.86,22.56 13.43,36.31 -8.85,38.55 -23.94,77.45 -18.36,117.6 0.93,10.63 9.29,17.63 16.07,24.88 13.81,18.14 37.6,22.28 57.92,29.28 7.11,2.89 15.96,3.68 21.49,9.21 -0.63,10.62 -3.59,20.89 -6.13,31.19 -27.76,11.69 -59.52,10.63 -88.29,3.41 0.36,-4.91 0.58,-9.84 0.66,-14.74 -43.02,-4.44 -85.08,10.1 -123.3,28.49 -6.32,-7.62 -12.64,-15.28 -18.03,-23.62 37.29,-14.3 77.69,-21.92 117.65,-17.57 7.36,0.33 4.06,-8.09 2.95,-12.31 -30.92,-2.78 -62.39,0.68 -91.78,10.73 -11.47,3.41 -22.15,8.97 -33.54,12.56 -7.13,-4.22 -10.54,-12.8 -15.5,-19.23 22.26,-8.91 46.02,-13.65 69.82,-15.94 17.25,-1.71 34.49,0.47 51.74,0.79 0.05,-2.2 0.13,-6.62 0.19,-8.82 -20.16,-9.35 -37.19,-25.53 -47.46,-45.25 -11.14,-21.22 -8.72,-47.43 2.34,-68.19 7.09,-15.14 18.94,-27.13 29.34,-39.96 -21.49,6.24 -41.81,15.77 -62.9,23.13 -17.43,5.2 -28.19,21.06 -38.35,35.03 -10.6,15.83 -20.19,37.24 -9.76,55.55 10.19,20.51 31.36,31.32 51.65,39.5 -17.57,4.98 -34.67,11.33 -52,17 -20.35,-31.5 -34.95,-68.68 -31,-106.76 2.32,-16.84 7.55,-33.78 17.9,-47.49 9.89,-13.84 20.51,-27.18 29.64,-41.57 -5.34,1.09 -10.66,2.29 -15.99,3.41 4.84,-26.72 11.06,-54.51 4.6,-81.48 -4.85,0.19 -9.7,0.44 -14.52,0.63 15.91,-36.73 39.01,-70.48 67.91,-98.18 6.65,-6.16 13.38,-12.72 21.91,-16.18 26.34,-10 54.31,-14.39 81.61,-20.95 -6.56,-12.15 -17.68,-20.49 -29.39,-27.19 17.4,-6.1 36.34,-2.78 53.25,3.32 13.24,4.69 24.88,12.81 37.41,19.02 1.11,-11.06 -0.36,-22.12 -3.33,-32.8zm-677.09 -233.9c30.76,-15.23 61.52,-30.7 93.52,-43.15 0.11,24.6 1.99,49.2 0.47,73.77 -15.83,5.23 -31.03,12.07 -46.78,17.47 -0.32,-8.59 -0.4,-17.17 -0.6,-25.75 -11.25,3.79 -23.04,7.36 -32.6,14.66 -1.17,28.03 -0.08,56.14 -0.47,84.2 0.14,15.75 -0.57,31.55 0.9,47.26 11.06,-2.77 21.82,-6.56 32.67,-9.99 0.54,-13.16 0.43,-26.35 0.7,-39.53 15.53,-5.26 30.87,-11.14 46.8,-15.12 0.63,28.36 0.63,56.74 1.26,85.13 -32.34,9.23 -64.86,17.82 -96.9,28.03 -10.11,3.16 -22.61,5.37 -31.41,-2.07 -8.94,-7.49 -8.96,-20.24 -9.26,-30.92 0.13,-39.96 -0.08,-79.92 0.11,-119.89 0.19,-27.08 17.19,-52.68 41.59,-64.1zm1180.38 -107.27c30.18,7.87 59.71,18.03 89.24,28.06 0.58,15.88 0.25,31.76 0.3,47.67 -5.72,-0.96 -11.47,-1.85 -17.19,-2.67 0.06,49.71 -1.99,99.4 -0.73,149.06 5.23,1.2 10.49,2.48 15.72,3.74 0.32,16.29 0.27,32.58 0.11,48.87 -29.75,-6.05 -59.42,-12.59 -89.38,-17.27 -0.68,-17.06 -0.52,-34.14 -0.19,-51.19 5.39,0.82 10.76,1.69 16.15,2.56 2.83,-16.94 1.12,-34.13 1.52,-51.19 0.47,-34.24 0.39,-68.48 0.82,-102.73 -5.39,-1.3 -10.79,-2.66 -16.15,-4 -0.96,-16.94 -0.66,-33.94 -0.22,-50.91zm-868.24 -10.63c29.83,-7.11 59.58,-14.71 89.84,-19.91 0.57,17.87 0.95,35.79 -0.41,53.64 -5.28,0.65 -10.57,1.36 -15.88,2.01 -0.87,26.92 -0.54,53.86 0.27,80.8 0.25,26.51 -0.22,53.01 0.38,79.52 10.55,0 21.03,-1.55 31.41,-3.35 0.55,-16.32 0.06,-32.64 0.49,-48.95 17.08,-2.73 34.22,-5.37 51.49,-6.57 -0.14,34.73 0.27,69.44 -0.14,104.15 -51.81,4.74 -103.35,11.79 -154.76,19.8 -1.11,-17.22 -1.52,-34.52 -0.65,-51.76 5.48,-1.06 10.95,-2.18 16.46,-3.24 -0.03,-52.47 -1.18,-104.94 -0.9,-157.4 -5.72,0.7 -11.42,1.5 -17.14,2.23 -0.79,-17 -1.25,-34 -0.46,-50.97zm283.15 -46.61c24.57,-1.41 49.14,-3.7 73.79,-3.65 0.39,18.5 0.47,37 -0.02,55.49 -5.53,0.14 -11.06,0.25 -16.59,0.36 1.17,54.21 0.16,108.44 0.6,162.68 0.27,17.95 -1.99,37.71 -14.66,51.52 -6.67,7.81 -17.05,11.03 -27.02,11.47 -20.93,1.19 -41.85,2.01 -62.74,3.46 -9.97,0.84 -21.09,-0.33 -28.33,-7.99 -15.8,-14.9 -14.66,-38.54 -15.18,-58.48 0.82,-49.88 -1.06,-99.71 -0.54,-149.59 -5.53,0.08 -11.06,0.25 -16.59,0.38 -0.3,-18.06 -2.04,-36.15 -0.11,-54.15 24.22,-2.45 48.27,-6.65 72.6,-7.96 1.77,15.01 1.14,30.11 1.14,45.17 -0.43,58.49 0.68,116.95 0.77,175.43 11.03,0 22.06,-0.65 33.07,-1.36 0.98,-74.26 -0.08,-148.52 -0.19,-222.78zm108.55 -5.12c22.72,0.03 45.44,-0.6 68.11,1.28 19.18,42.01 36.58,84.8 55.54,126.89 19.21,-39.66 35.09,-80.88 53.97,-120.7 22.66,1.44 45.3,3.86 67.69,7.54 0.03,18.09 0.11,36.18 -0.05,54.27 -5.5,-0.6 -11.01,-1.18 -16.51,-1.75 -2.21,55.08 0.08,110.25 -1.85,165.36 5.42,0.52 10.87,1.03 16.32,1.52 1.14,18.23 0.76,36.51 0.35,54.76 -23.67,-1.23 -47.29,-3.11 -70.91,-4.71 1.5,-49.91 0.63,-99.9 0.36,-149.83 -7.96,7.35 -10.38,18.39 -15.1,27.79 -12.61,27.48 -23.91,55.57 -37.21,82.7 -11.99,-25.2 -22.12,-51.24 -33.56,-76.71 -6.16,-13.08 -10.08,-27.3 -18.55,-39.15 -1.45,12.01 -1.09,24.16 -1.04,36.26 0.11,38.22 -0.08,76.41 0.08,114.63 -22.63,0.87 -45.27,0.57 -67.91,0.25 -0.41,-18.55 -0.41,-37.13 0.03,-55.71 5.45,-0.19 10.9,-0.36 16.37,-0.46 0.96,-56.04 0.38,-112.1 0.33,-168.14 -5.53,-0.14 -11.03,-0.24 -16.54,-0.35 -0.68,-18.58 -0.81,-37.19 0.08,-55.74zm282.91 20.51c35.06,4.36 69.71,11.55 104.22,19.05 13.27,3.24 27.84,4.63 39.04,13.23 16.75,12.97 22.86,35.09 22.15,55.52 -0.68,16.62 2.04,33.92 -3.08,50.02 -4.28,11.71 -18.31,11.98 -28.58,14.11 10.14,7.27 22.75,13.4 27.44,25.82 5.53,14.8 2.69,30.84 2.96,46.23 -0.35,17.33 1.56,36.43 -8.6,51.57 -6.65,10.33 -19.67,14.68 -31.49,12.48 -42.04,-6.21 -84.18,-11.58 -126.49,-15.58 -0.68,-17.93 -0.6,-35.85 -0.13,-53.75 5.61,-0.06 11.25,-0.11 16.89,-0.19 1.47,-30.51 -0.09,-61.05 0.95,-91.56 0.98,-23.89 0.33,-47.81 0.52,-71.7 -5.1,0.03 -10.22,0 -15.29,0.63 -1.25,0.7 -3.75,2.12 -5.01,2.83l0.55 -1.88c5.28,-18.47 1,-37.98 3.95,-56.83zm72.16 65.95l0 0c0.03,17.71 -0.3,35.42 0.33,53.13 11.96,2.12 23.91,4.3 35.93,6.32 -0.25,-17.63 0.27,-35.25 0.35,-52.88 -12.17,-2.34 -24.35,-4.77 -36.61,-6.57zm-0.74 99.85l0 0c0.28,20.32 -0.7,40.67 -0.32,60.99 11.96,2.04 23.97,4 36.04,5.5 0.76,-20.1 0.49,-40.23 0.22,-60.34 -11.83,-2.8 -23.84,-4.85 -35.94,-6.15zm-811.03 -115.07c15.34,-1.75 26.18,13.29 28.11,27.02 3.49,24.98 0.98,50.34 1.94,75.49 1.39,28.11 -0.11,56.28 1.14,84.42 0.65,19.69 -1.91,41.65 -16.56,56.25 -13.16,13.62 -33.43,13.24 -50.59,17.63 -17.35,2.83 -34.3,9.4 -52,9.26 -14.69,-0.79 -24.11,-15.09 -25.07,-28.69 -2.5,-30.81 -0.89,-61.72 -1.55,-92.56 -0.81,-21.88 -0.81,-43.78 -0.46,-65.63 0.46,-23.37 13.13,-47.53 35.06,-57.29 17.19,-7.16 35.06,-12.45 52.63,-18.44 8.99,-2.86 17.92,-6.35 27.35,-7.46zm-58.95 67.01l0 0c-0.49,49.74 0.44,99.51 1.12,149.26 10.81,-2.48 21.6,-5.1 32.39,-7.74 0.05,-50.56 -1.23,-101.12 -0.96,-151.68 -10.92,3.11 -21.79,6.48 -32.55,10.16zm1159.75 -16.78c17.9,5.26 34.38,14.19 51.52,21.47 12.8,6.21 26.23,11.36 38.38,18.82 4.2,10.92 4.22,22.94 6.43,34.38 8.58,51.1 15.83,102.51 25.8,153.37 4.38,1.44 8.74,2.97 13.13,4.47 1.01,13.62 0.9,27.32 0.19,40.97 -21.8,-6.48 -43.78,-12.64 -65.19,-20.24 -6.54,-17.87 -3.32,-38.25 -8.53,-56.66 -11.96,-5.67 -24.87,-9.08 -37.7,-12.05 -2.18,17.98 -4.36,35.96 -6.37,53.97 -22.12,-3.81 -43.48,-10.95 -65.49,-15.23 -1.15,-15.88 -0.74,-31.79 -0.36,-47.7 5.26,0.77 10.54,1.47 15.83,2.05 10.13,-59.34 21.68,-118.4 32.36,-177.62zm43.73 54.1l0 0c-3.66,14.22 -5.1,28.88 -7.69,43.32 -2.5,16.29 -6.21,32.47 -6.92,49 9.95,3.22 19.81,6.71 29.83,9.73 -2.23,-26.18 -6.67,-52.11 -9.61,-78.21 -1.15,-8.09 -1.04,-16.76 -5.61,-23.84zm-761.21 804.96c3.07,0.25 6.18,0.49 9.26,0.79 5.09,16.05 11.19,32.17 21.6,45.58 0.9,-11.44 1.72,-22.91 3.92,-34.22 18.83,-1.5 38.03,2.89 53.83,13.35 7.55,4.03 14.14,11.03 22.88,12.01 10.98,-4.44 17.98,-15.12 28.55,-20.45 16.16,-9.92 36.18,-8.61 53.75,-3.74 1.83,10.9 2.67,21.93 3.71,32.91 10.62,-13.57 16.5,-29.99 21.44,-46.31 3.26,-0.33 6.56,-0.6 9.86,-0.82 -4.31,16.18 -11.28,31.55 -15.09,47.87 -3.98,14.27 -2.46,31.19 -14.55,41.89 -6.76,-16.97 -11.39,-35.52 -23.48,-49.71 -1.28,8.72 -1.07,17.68 -3.33,26.23 -7.54,9.89 -18.17,16.84 -27.46,24.95 -2.28,-2.45 -4.55,-4.87 -6.81,-7.3 -2.45,4.09 -4.71,8.29 -7.03,12.45 -0.62,0.82 -1.85,2.45 -2.45,3.27 -7.3,2.65 -11.52,9.62 -16.86,14.79 -9.15,-9.75 -17.19,-20.48 -26.53,-30.04 -1.45,3.84 -2.86,7.68 -4.31,11.55 -8.85,-9.97 -18.39,-19.59 -25.36,-31 -2.18,-8.07 -1.71,-16.54 -2.61,-24.77 -11.77,11.31 -15.42,28.04 -21.47,42.64 -7.19,-9.86 -10.16,-21.74 -11.82,-33.62 -2.59,-17.6 -14.71,-31.52 -19.64,-48.3zm-123.71 -68.16c25.2,-11.08 51.92,-18.88 79.33,-22.03 5.37,7.32 9.26,16.67 17.87,20.86 4.82,2.48 9.94,4.31 15.01,6.27 -11.85,19.72 -17.71,43.91 -11.33,66.49 5.69,19.16 19.83,34.63 24.54,54.21 7.17,25.01 -5.58,50.18 -2.1,75.41 1.94,14.27 13.52,27.13 28.04,29.17 15.17,2.24 30.23,-2.12 44.78,-5.88 26.15,-7.22 53.83,-6.1 80.39,-1.93 18.61,3.24 38.11,9.34 56.83,3.24 8.58,-2.48 15.01,-9.62 17.7,-18.01 9.21,-25.8 3.85,-53.56 6.54,-80.22 1.44,-15.97 8.47,-30.6 16.26,-44.35 13.3,-25.31 7.09,-56.18 -6.89,-79.82 6.08,-1.91 12.48,-3.38 17.82,-7.03 5.15,-4.39 7.08,-11.41 12.12,-15.85 26.37,3.1 51.95,12.39 75.65,24.19 -29.17,35.98 -40.73,81.8 -51.62,125.82 -6.46,27.87 -13.65,55.66 -23.81,82.44 -7.17,18.33 -18.12,35.82 -34.33,47.42 -15.58,11.45 -34.95,16.54 -54.02,17.82 -49.19,2.75 -99.51,9.89 -148.03,-2.56 -29.25,-6.81 -56.63,-23.78 -72.98,-49.36 -18.66,-29.26 -26.04,-63.77 -34.05,-97.04 -8.42,-33.34 -16.67,-67.23 -32.91,-97.79 -5.8,-11.23 -13.97,-20.9 -20.81,-31.47zm474.03 -449.7c21.36,-13.87 50.94,-14.63 72.38,-0.46 14.44,9.5 28.69,19.67 45.36,25.01 -16.78,15.55 -40.15,21.11 -62.36,22.77 -7.84,1.44 -12.66,-5.89 -17.84,-10.32 -12.29,-12.56 -26.23,-23.49 -37.54,-37zm-536.58 -11.9c15.83,-2.78 33.21,-2.16 47.57,5.74 2.23,1.42 8.25,4.28 4.33,7.36 -14.82,14.68 -29.83,29.42 -45.88,42.71 -10.76,1.8 -21.76,-0.95 -32.3,-3.1 -13.95,-3.76 -28.66,-8.58 -38.5,-19.81 24.19,-5.8 41.03,-26.42 64.78,-32.9zm115.07 37.97l0 0c6.11,19.31 19.94,35.66 37.32,45.88 13.46,8.82 29.4,12.17 43.97,18.47 6.13,7.19 9.37,16.31 13.76,24.57 7.22,15.33 18.17,28.52 30.05,40.45 -0.96,-21.9 -2.65,-43.78 -3.71,-65.68 -0.62,-4.06 0.11,-8.72 -2.31,-12.26 -12.67,-5.91 -25.99,-10.38 -38.77,-16.04 -27.21,-10.82 -53.12,-24.57 -80.31,-35.39zm243.38 51.13l0 0c-2.81,26.02 -3.84,52.25 -4.99,78.38 7.41,-7.06 13.79,-15.07 19.81,-23.32 8.77,-11.93 13.56,-26.15 21.38,-38.66 3.14,-5.8 10.66,-5.88 16.1,-8.25 29.48,-8.72 58.49,-28.47 67.59,-59.28 -40.02,16.84 -78.86,36.67 -119.89,51.13zm-99.46 88.18l0 0c9.51,3.74 18.99,0.44 28.2,-2.39 11.85,-3.74 23.4,2.01 34.86,4.19 5.02,-0.98 9.62,-3.38 14.33,-5.26 -21.82,-17.51 -58.48,-18.93 -77.39,3.46zm-115.59 202.24l0 0c0.09,4.25 0.14,8.53 0.17,12.81 1.77,0.16 5.31,0.46 7.11,0.63 0.13,-3.66 0.27,-7.31 0.38,-10.93 -2.56,-0.84 -5.09,-1.69 -7.66,-2.51zm293.29 13l0 0c1.96,0 5.88,0.05 7.84,0.08 -0.08,-4.63 -0.16,-9.26 -0.27,-13.84 -6.32,2.1 -8.01,7.55 -7.57,13.76zm-272.25 9.7l0 0c0,4.52 0.05,9.01 0.13,13.54 2.04,-0.41 6.1,-1.2 8.15,-1.61 -0.55,-5.48 -2.59,-10.24 -8.28,-11.93zm251.6 7.24l0 0c-0.49,4.44 4.25,5.81 7.49,7.11 0.14,-4.82 0.22,-9.61 0.24,-14.41 -2.77,1.88 -8.31,2.86 -7.73,7.3zm-232.24 16.59l0 0c0.03,4.5 0.06,8.99 0.06,13.49 1.85,-0.17 5.55,-0.49 7.41,-0.66 -0.17,-3.18 -0.3,-6.34 -0.44,-9.5 -2.34,-1.12 -4.68,-2.24 -7.03,-3.33zm212.51 3.74l0 0c1.23,4.65 1.34,11.16 7.93,10.51 0.17,-4.79 0.3,-9.56 0.44,-14.36 -2.81,1.28 -5.59,2.57 -8.37,3.85z"/>
  </g>
 </g>
</svg>
