<?xml version="1.0" encoding="UTF-8"?>
<!DOCTYPE svg PUBLIC "-//W3C//DTD SVG 1.1//EN" "http://www.w3.org/Graphics/SVG/1.1/DTD/svg11.dtd">
<!-- Creator: CorelDRAW -->
<svg xmlns="http://www.w3.org/2000/svg" xml:space="preserve" width="2000px" height="1600px" version="1.1" style="shape-rendering:geometricPrecision; text-rendering:geometricPrecision; image-rendering:optimizeQuality; fill-rule:evenodd; clip-rule:evenodd"
viewBox="0 0 2000 1600"
 xmlns:xlink="http://www.w3.org/1999/xlink">
 <defs>
  <style type="text/css">
   <![CDATA[
    .fil1 {fill:#001F61;fill-rule:nonzero}
    .fil2 {fill:#FCC403;fill-rule:nonzero}
    .fil0 {fill:#FDFDFD;fill-rule:nonzero}
   ]]>
  </style>
 </defs>
 <g id="Capa_x0020_1">
  <metadata id="CorelCorpID_0Corel-Layer"/>
  <g id="Coppin_x0020_State_x0020_Eagles.cdr">
   <path class="fil0" d="M388.31 440.66c5.39,-0.03 10.77,0.03 16.15,0.17 0.35,3.85 0.67,7.73 0.95,11.58 -5.98,-3.48 -11.74,-7.38 -17.1,-11.75zm865.8 625.52c13.8,1.47 27.69,2.83 41.23,6.13 4.81,8.65 3.3,18.26 0.09,27.17 -13.34,-11.66 -27.05,-22.83 -41.32,-33.3zm360.13 -510.39c7.23,-10.73 17.36,-19.01 25.66,-28.88 -0.03,6.31 -0.03,12.62 0,18.93 -8.36,3.79 -16.72,7.69 -25.66,9.95z"/>
   <path class="fil1" d="M1373.9 664.21c24.19,-13.05 43.75,-39.26 73.53,-38.31 6.22,-0.03 16.78,-0.55 16.81,8.25 -0.06,12.61 -15.48,16.63 -23.9,23.35 0.28,5.9 1.7,12.06 -0.35,17.79 -8.39,5.18 -18.58,5.59 -28.13,6.57 -0.17,4.66 -0.29,9.32 -0.55,13.98 -9.17,2.6 -18.57,4.16 -28.01,5.41 1.22,4.94 2.2,9.92 3.07,14.96 -9.52,4.22 -19.73,6.42 -30.09,6.97 2.05,4.75 4.22,9.49 5.58,14.53 -12.24,11.05 -30.29,8.5 -45.51,10.15 -0.49,5.79 2.69,13.86 -3.18,17.65 -9.29,5.67 -20.32,7.29 -30.67,10.01 -2.49,5.27 -4.98,10.51 -7.59,15.69 -16,4.51 -32.87,3.61 -49.01,0.29 -6.05,-0.35 -9.75,-5.59 -13.52,-9.64 33.11,-34.4 75.44,-57.44 115.37,-82.67 15.28,-11.83 28.7,-26.15 46.15,-34.98zm-443.78 410.16c1.62,0.11 4.86,0.37 6.49,0.49 2.95,9.63 7.58,18.57 12.9,27.11 -15.8,2.86 -19.97,-15.6 -19.39,-27.6zm36.67 -2.87c1.79,0 5.4,0.06 7.2,0.09 0.55,6.05 1.21,12.15 3.5,17.85 6.25,1.01 10.82,-4.48 16.06,-7 1.53,5.9 2.98,11.89 5.09,17.68 4.98,1.97 8.16,-5.1 12.21,-7.06 3.45,9.98 8.31,19.3 13.86,28.24 -3.09,-0.09 -6.16,-0.18 -9.23,-0.26 -5.35,-10.01 -16.84,-12.01 -25.23,-18.38 -6.39,-4.8 -16.49,-3.5 -20.95,-10.96 -4.63,-5.85 -3.27,-13.4 -2.51,-20.2zm-64.85 -8.16c1.59,-0.03 4.8,-0.11 6.4,-0.17 -0.06,10.01 -0.21,19.99 0.37,30 -1.71,-0.2 -5.15,-0.63 -6.88,-0.84 -2.99,-9.49 -2.23,-19.44 0.11,-28.99zm251.39 -14.93c10.76,-0.38 21.5,0.87 31.91,3.7 0.35,1.65 1.07,4.92 1.42,6.54 -11.2,-0.37 -22.36,-1.65 -33.33,-3.79 0,-1.62 0,-4.83 0,-6.45zm-9.03 -20.57c11.23,-0.09 22.4,1.76 32.81,6.02 0.06,1.79 0.15,5.41 0.21,7.2 -10.74,-1.39 -21.1,-4.54 -31.54,-7.26 -0.38,-1.48 -1.1,-4.49 -1.48,-5.96zm25.96 -52.63c8.44,1.99 16.11,6.1 23.52,10.53 0.2,1.59 0.58,4.74 0.78,6.3 -8.97,0.15 -16.29,-4.97 -23.35,-9.8 -0.23,-1.77 -0.72,-5.27 -0.95,-7.03zm14.32 -14.18c10.82,3.32 20.8,8.82 30.03,15.36 0.12,1.82 0.35,5.47 0.49,7.29 -11.77,-3.64 -22.19,-10.33 -33.13,-15.77 0.87,-2.28 1.74,-4.6 2.61,-6.88zm-510.91 -282.41c3.47,-5.29 10.36,-13.57 17.1,-8.51 -3.53,4.92 -7,9.84 -10.01,15.08 11.84,7.75 26.19,8.45 39.76,10.59 -0.06,1.68 -0.18,5 -0.23,6.68 -11.38,3.56 -27,2.06 -33.86,13.66 16.09,7.09 33.83,6.19 50.99,6.19 0.03,1.56 0.05,4.63 0.05,6.16 -9.66,3.51 -20.22,5.33 -28.67,11.52 -0.46,2.46 -0.84,4.92 -1.07,7.41 10.3,5.5 21.27,9.61 32.61,12.35 0.06,1.54 0.17,4.6 0.2,6.14 -11.63,2.69 -25.64,1.97 -33.51,12.61 9.84,13.4 28.45,8.86 42.77,9.64 -0.17,1.59 -0.49,4.75 -0.64,6.31 -6.65,2.05 -13.54,3.61 -19.79,6.77 -2.92,2.75 -2.52,9.05 1.56,10.79 8.8,6.02 20.11,4.66 30.24,5.44 -0.32,1.33 -0.89,3.99 -1.18,5.32 -6.2,3.8 -11.95,8.25 -17.16,13.29 1.33,3.18 2.66,6.36 3.96,9.57 13.72,2.38 27.55,-0.05 41.32,-0.05 -4.2,10.53 -18.49,9.31 -24.94,17.96 -0.44,2.96 -0.73,5.96 -0.87,8.97 8.68,3.04 17.88,2.64 26.91,1.88 -2.69,5.91 -5.3,11.9 -6.71,18.26 9.69,0.99 19.38,0.26 29.05,-0.61 -3.01,7.59 -6.66,15.31 -5.18,23.7 7.72,0.15 15.33,-1.04 22.89,-2.66 0.98,8.39 -4.17,21.33 6.22,25.41 10.59,6.36 22.22,-2.96 33.27,1.24 -8.36,10.47 -23.38,10.24 -35.04,6.83 -9.37,-3.24 -13.77,-12.41 -16.26,-21.33 -5.21,-1.36 -10.56,-2.46 -15.39,-4.89 -5.7,-3.38 -5.27,-10.93 -7.21,-16.52 -5.58,-1.71 -11.37,-3.01 -16.49,-5.87 -4.02,-3.5 -4.69,-9.12 -6.63,-13.77 -5.81,-2.64 -12.7,-4.11 -16.87,-9.32 -1.76,-6.31 -0.34,-12.88 -0.03,-19.27 -6.74,-2.72 -15.36,-4.29 -18.69,-11.64 -4.54,-6.36 1.48,-13.22 3.79,-19.24 -6.85,-2.83 -14.12,-5.41 -19.5,-10.73 -2.08,-5.88 -1.01,-12.18 -0.75,-18.23 -7,-2.92 -15.68,-4.69 -19.59,-11.92 -3.67,-10.97 8.04,-17.25 15.22,-22.89 -6.45,-5.32 -17.85,-9.55 -16.38,-19.68 0.75,-4.42 4.28,-7.61 6.72,-11.16 -8.77,-2.15 -18.06,-3.79 -25.55,-9.09 -4.75,-8.59 3.58,-15.42 8.88,-21.01 -7.29,-5.03 -19.39,-10.36 -15.31,-21.38zm849.07 -53.67c13.26,-1.22 27.12,-4.08 40.11,0.4 1.82,11.34 -8.39,17.07 -14.5,24.68 -1.97,6.8 -3.76,13.72 -6.54,20.29 2.03,4.05 4.14,8.1 5.41,12.5 -6.16,14.09 -22.08,18.11 -35.39,22.16 3.13,2.43 6.25,4.92 9.38,7.41 -1.24,2.86 -2.46,5.7 -3.68,8.56 -12.55,2.81 -25.23,5.12 -37.99,6.57 5.24,2 10.91,3.53 15.05,7.52 2.37,4.49 -4.02,7.32 -7.26,8.68 -10.54,2.96 -21.62,3.45 -32.5,4.2 0.03,4.54 0.64,9.26 -0.87,13.66 -13.1,5.78 -27.89,5.32 -41.89,6.45 -1.6,3.88 -3.01,7.84 -5.3,11.34 -12.64,2.06 -25.49,0.52 -38.22,0.52 -3.04,5.59 -5.47,12.42 -11.78,15.11 -12.27,6.51 -26.5,3.96 -39.81,4.6 -1.54,7.41 -4.86,15.22 -12.73,17.62 -19.25,8.16 -40.63,5.84 -60.97,5.84 -0.06,-1.59 -0.17,-4.77 -0.23,-6.36 20.92,-4.4 45.71,3.5 63.6,-11.17 1.04,-5.56 0.81,-11.23 1.15,-16.84 16.64,1.71 34.67,6.6 50,-2.95 -2.19,-5.15 -5,-9.99 -7.78,-14.82 16.15,-1.33 32.26,1.65 48.47,0.76 -5.65,-3.68 -11.37,-7.24 -16.84,-11.12 8.5,-6.07 18.81,-1.7 28.27,-1.53 11.05,0.49 22.74,1.39 32.92,-3.79 -13.77,-7.55 -31.28,-3.1 -44.3,-11.63 8.4,-6.14 19.07,-3.13 28.68,-3.71 16.46,-0.52 33.36,1.22 49.48,-3 -19.5,-5.76 -39.93,-5.99 -59.9,-9.06 0.03,-1.56 0.06,-4.72 0.06,-6.31 30.53,-1.36 61.37,-0.95 91.52,-6.48 -23.17,-6.89 -47.8,-5.12 -71.64,-7.47 0,-1.5 0.06,-4.54 0.06,-6.04 14.98,-3.24 30.29,-2.06 45.43,-0.73 18.6,-1.56 38.62,-3.93 53.93,-15.59 0.06,-1.85 0.2,-5.62 0.26,-7.5 -30.18,2.95 -59.81,18.35 -90.51,9.41 -0.14,-1.74 -0.43,-5.24 -0.58,-7.01 13.26,1.13 26.8,2.75 39.99,-0.11 12.21,-2.58 24.34,-5.7 36.69,-7.79 7.09,-1.38 11.37,-8.1 14.67,-13.94 -22.97,-0.49 -47.02,12.04 -69.15,1.59 7.11,-6.83 17.39,-3.99 26.24,-4.66 22.43,-0.06 46.15,-5.81 61.2,-23.67 -19.24,-0.08 -38.92,0.26 -57.41,6.22 -3.76,1.45 -7.75,1.31 -11.25,-0.69 8.76,-11.05 23.78,-10.42 36.45,-12.12zm-1418.22 -272.25c40.8,-46.3 80.73,-93.35 121.93,-139.3 136.6,0.18 273.24,-0.49 409.87,0.32 0.37,90.8 0.08,181.63 0.14,272.42 0.23,5.62 -0.69,11.4 0.9,16.9 8.94,8.57 18.49,16.87 29.34,22.98 0.26,-52.9 0.06,-105.82 0.09,-158.74 0.43,-4.05 -0.76,-8.86 1.96,-12.3 39.85,-45.75 79.78,-91.4 119.68,-137.12 2.55,-3.36 6.48,-5.07 10.7,-4.52 134.47,0.06 268.93,0 403.39,0.03 0.55,101.91 0.14,203.85 0.26,305.76 -67.65,-0.2 -135.33,0.78 -202.95,-0.46 -0.03,-26.02 0.69,-52.03 -0.32,-77.98 -43.75,0.03 -87.5,-0.06 -131.25,0.03 -0.67,81.82 -0.35,163.71 -0.14,245.54 66.84,0.29 133.68,0.2 200.52,0.03 3.82,0.32 8.59,-0.78 11.43,2.57 36.74,36.49 71.52,74.89 108.33,111.35 4.86,4.91 10.42,9.49 13.71,15.71 0.73,42.88 -0.26,85.82 0.41,128.7 18.95,11.46 39.35,20.34 58.13,32.06 16.58,11.6 30.87,27.69 37.01,47.25 1.53,4.89 4.57,9.06 8.1,12.76 1.27,-26.27 0.06,-52.6 0.52,-78.9 -0.38,-21.99 0.81,-44.04 -0.72,-66.01 -5.39,0 -10.74,0.03 -16.09,0.18 -3.5,5.21 -6.37,11.17 -11.58,14.93 -7.49,3.76 -16.17,2.69 -24.19,3.96 -8.39,4.49 -12.96,15.4 -23.64,15.17 0.5,-1.28 1.45,-3.82 1.91,-5.1 2.9,-4.69 6.28,-9.05 9.61,-13.45 -3.33,-1.91 -6.65,-3.79 -9.92,-5.67 0.03,-2.03 0.08,-6.08 0.14,-8.11 12.82,7.06 28.07,11.61 42.42,6.25 2.63,-3.55 3.76,-7.92 5.18,-12.03 -8.05,-3.21 -16,-6.8 -22.98,-12.01 16.24,-4.46 30.13,9.55 46.27,7.64 5.61,-0.73 9.06,-5.85 13.05,-9.35 -9.78,-4.86 -20.98,-8.07 -28.04,-16.92 19.82,-2.26 35.13,16.31 55.21,12.84 9.06,0.67 14.93,-6.31 14.9,-14.9 -14.15,-4.72 -29.28,-7.64 -41.55,-16.58 10.65,-5.12 21.27,2.29 31.48,4.98 15.25,5.35 36.58,6.6 45.11,-10.19 -12.81,-3.76 -25.98,-6.54 -38.39,-11.51 -4.11,-1.28 -6.43,-5.04 -9.06,-8.08 17.91,0.06 34.08,9.09 51.68,11.37 16.29,2.09 36.6,4.38 47.89,-10.38 -11.69,-6.11 -23.93,-11.14 -36.35,-15.54 -0.26,-1.94 -0.81,-5.82 -1.1,-7.76 16.76,2.17 30.68,12.42 46.53,17.22 12.96,1.33 26.68,1.65 39.3,-2.23 5.58,-1.41 7.72,-7.06 9.72,-11.8 -14.3,-2.58 -28.97,-4.46 -42.22,-10.82 4.43,-2.93 9.64,-4.23 14.84,-2.58 17.89,3.36 35.83,6.39 53.68,9.78 12.07,2.29 23.81,-1.91 34.2,-7.75 -25.72,-7.76 -53.36,-8.51 -78.04,-19.56 2.14,-0.93 6.43,-2.81 8.57,-3.74 35.18,5.94 70.31,19.82 106.45,13.23 9.23,-2.87 16.38,-9.73 23.84,-15.51 -32.35,-3.91 -65.13,-3.68 -97.16,-9.87 -0.18,-1.56 -0.52,-4.69 -0.67,-6.25 25.26,0.49 50.29,4.72 75.55,5.96 16.9,0.38 33.71,5.15 50.64,2.84 13.63,-3.65 26.24,-11.14 35.62,-21.79 -18.52,-2.03 -37.21,-0.29 -55.73,-2.08 -22.77,-2.55 -45.81,-0.5 -68.43,-4.46 -0.12,-1.62 -0.32,-4.86 -0.41,-6.45 44.04,0.92 88.05,5.35 132.12,3.21 9.49,-2.23 17.01,-9.12 25.58,-13.48 11.34,-6.86 25.29,-10.25 33.45,-21.45 -20.84,0.99 -40.43,9.18 -61.03,11.69 -21.12,4.2 -42.73,2.95 -64.03,5.39 -16.15,1.15 -31.97,4.71 -48,6.77 0,-1.68 0.05,-5.04 0.08,-6.72 35.77,-10.91 73.7,-7.03 110.25,-13.25 19.9,-3.59 39.61,-8.25 59.23,-13.25 16.49,-3.56 29.25,-17.16 35.3,-32.44 -14.38,2.2 -26.39,10.71 -39.24,16.81 -18.31,8.86 -37.33,16.64 -57.15,21.42 -4.97,2.11 -9.57,-0.99 -14,-2.81 24.65,-10.5 51.33,-16.09 74.85,-29.46 23.91,-10.09 40.74,-35.01 39.82,-61.11 -15.31,8.02 -27.84,20.08 -41.64,30.3 -17.42,13.74 -36.34,25.4 -54.43,38.22 -14.61,9.35 -30.7,18.61 -48.61,18.32 3.94,-7.55 12.53,-9.58 19.77,-12.65 21.21,-7.98 38.25,-23.44 57.32,-35.21 24.42,-17.74 48.23,-36.4 71.35,-55.79 11.31,-9.08 17.16,-23.06 16.46,-37.47 -41.14,31.05 -80,65.74 -125.69,90.19 -20.05,10.45 -38.45,23.9 -59.03,33.31 -5.23,2.92 -11.31,2.34 -16.98,1.82 12.15,-11.43 28.41,-16.41 42.27,-25.23 26.1,-16.41 54.34,-29.49 78.73,-48.59 24.69,-18.66 49.48,-37.26 73.04,-57.37 8.99,-7.06 12.73,-18.12 16.26,-28.53 -17.39,1.01 -32.7,9.92 -47.98,17.36 -14.26,7.55 -29.19,14.23 -41.81,24.48 -22.33,18.49 -46.18,35.12 -70.25,51.27 -15.63,10.88 -35.22,13.57 -51.07,24.02 -6.16,3.9 -12.62,7.43 -19.56,9.75 2.43,-5.01 4.51,-10.62 9.37,-13.83 17.16,-12.62 39.24,-15.31 56.86,-27.09 19.07,-12.56 37.62,-25.98 55.82,-39.75 13.62,-10.07 26.36,-22.11 33.71,-37.65 -18.26,4.86 -34.12,15.51 -51.25,23.12 -26.5,11.98 -52.4,25.46 -79.8,35.33 -28.04,9.55 -51.33,28.85 -78.53,40.22 -4.31,1.45 -8.94,1.36 -13.4,1.76 2.23,-2.63 4.2,-5.58 7.06,-7.55 26.48,-15.56 57.15,-26.04 77.81,-49.79 15.13,-15.98 30.87,-32.01 40.77,-51.91 -16.44,8.24 -31.54,18.86 -47.98,27.08 -20.37,10.24 -40.68,20.66 -59.63,33.36 -21.65,14.85 -45.14,26.59 -68.43,38.51 -9.23,5.59 -21.04,1.25 -29.86,7.53 -28.22,18.43 -54.69,40.51 -86.64,52.31 -41.4,17.07 -83.53,32.5 -126.99,43.52 -24.51,5.58 -44.91,20.75 -66.52,32.67 -1.02,-2.52 -1.97,-5.04 -2.9,-7.55 17.62,-10.02 34.09,-22.57 53.45,-29.14 31.13,-9 62.73,-16.84 92.94,-28.79 0.95,-6.4 1.38,-12.85 1.3,-19.33 -0.35,-69.18 0.35,-138.4 -0.32,-207.61 -20.46,-0.38 -40.94,0.49 -61.37,-0.58 -0.93,-55.03 -0.12,-110.07 -0.41,-165.1 0.29,-20.4 -0.66,-40.83 0.67,-61.23 99.88,-0.49 199.82,-0.64 299.71,0.09 0.29,75.23 0.11,150.49 0.06,225.75 -12.33,1.5 -24.77,0.95 -37.13,1.01 -0.46,42.33 -0.52,84.7 -0.03,127.03 19.53,-8.83 36.03,-22.83 54.89,-32.87 25.78,-14.5 54.08,-25.35 77.26,-43.98 0.52,-16.7 -0.03,-33.42 0.26,-50.15 -13.69,-0.12 -27.37,0.26 -41.06,-0.49 -0.03,-75.43 -0.14,-150.9 0.09,-226.33 100.26,-0.81 200.58,-0.29 300.86,-0.26 0.15,75.61 0.35,151.24 -0.08,226.85 -19.19,0.41 -38.37,0 -57.55,0.26 0.23,264.06 -0.06,528.12 0.14,792.21 2.06,12.39 -10.16,19.39 -16.43,28.3 -35.07,40.11 -70.08,80.24 -104.98,120.46 -2.98,4.05 -8.07,5.29 -12.85,5.06 -88.83,0.06 -177.66,-0.14 -266.49,0.09 -5.82,-0.2 -12.96,1.27 -16.93,-4.17 -35.93,-42.24 -71.24,-85.07 -107.43,-127.11 -6.69,6.31 -11.58,14.06 -15.66,22.22 -1.41,-0.14 -4.19,-0.46 -5.58,-0.63 -0.52,-9.35 -0.64,-18.72 -1.91,-27.98 -9.75,5.81 -16.26,15.27 -23.81,23.46 -5.59,-5.12 -2.87,-12.82 -3.51,-19.41 -0.55,-14.82 -10.87,-26.88 -21.2,-36.49 -8.19,0.26 -16.35,0.09 -24.51,-0.17 -3.76,5.38 -8.34,10.7 -9.26,17.44 -1.13,8.42 0.78,16.87 0.89,25.32 -6.45,-1.33 -11.74,-5.21 -16.78,-9.2 -37.64,44.39 -75.72,88.4 -113.19,132.93 -3.47,3.85 -9.38,3.41 -14.09,3.73 -119.68,-0.11 -239.35,0 -359,-0.06 -14.26,-0.14 -28.56,0.67 -42.74,-0.95 -0.08,-61.63 -0.11,-123.26 0,-184.9 0.03,-5.49 -0.58,-10.91 -1.27,-16.32 -9.52,2.64 -19.5,4.06 -28.97,0.41 -0.98,19.18 1.16,38.6 -1.04,57.67 -37.9,45.89 -77.34,90.48 -115.42,136.22 -3.64,5.1 -9.29,8.66 -15.8,7.9 -90.77,-0.05 -181.57,0.09 -272.36,-0.08 -7.24,0.43 -11.2,-6.37 -15.69,-10.8 -37.26,-43.6 -75.34,-86.54 -112.93,-129.92 -3.01,-2.54 -3.18,-6.51 -3.18,-10.12 -0.09,-286.52 0.06,-573 -0.09,-859.52 0.58,-7.87 -2.26,-17.48 4.4,-23.49zm397.57 21.29l0 0c-4.05,5.18 -2.46,12.21 -1.71,18.2 5.09,28.56 23.21,52.2 39.67,75.23 12.53,18.29 31.65,30.15 46.93,45.84 15.11,15.16 33.22,26.64 50.67,38.83 17.71,13.19 35.39,26.44 53.18,39.52 21.07,15.34 38.48,34.9 56.31,53.73 24.1,26.28 47.6,53.27 67.33,83.05 15.62,23.52 26.85,49.56 37.85,75.46 9.72,23.53 19.56,47.08 26.07,71.73 3.47,14.24 5.81,29.05 13.19,41.93 5.59,10.65 15.97,18.26 27.49,21.41 5.82,2.43 14.38,2.17 16.55,9.46 -19.04,2.23 -38.02,-7.58 -49.07,-22.86 -6.4,-9.31 -9.93,-20.25 -12.59,-31.16 -8.85,-42.65 -27.11,-82.55 -44.99,-122.05 -19.62,-44.18 -51.83,-80.9 -83.57,-116.72 -11.6,-12.42 -23.64,-24.45 -35.53,-36.61 -16.44,-16.75 -36.26,-29.54 -54.83,-43.69 -11.52,-9.49 -23.58,-19.33 -38.2,-23.52 -4.28,-1.07 -7.64,2.83 -11.34,4.22 1.42,12.47 11.11,21.13 20.83,27.81 4.6,3.76 13.31,7.55 9.18,14.9 -11.49,-5.09 -22.86,-11.83 -35.94,-10.7 3.1,17.73 23,24.16 36.6,32.43 0.15,1.8 0.41,5.41 0.52,7.24 -14.09,-4.17 -27.66,-11.49 -42.85,-10.13 1.16,3.85 2.05,8.19 5.7,10.56 12.38,9.92 28.39,13.69 41.09,23.15 -1.56,0.81 -4.69,2.4 -6.25,3.21 -14.21,-3.96 -28.21,-10.45 -43.4,-8.13 1.27,3.88 1.76,8.48 5.55,10.88 12.67,11.05 29.95,12.82 45.34,17.85 0.15,1.82 0.47,5.44 0.64,7.24 -13.46,-0.29 -26.27,-7.76 -39.82,-4.52 0.9,3.65 0.09,8.07 2.64,11.14 11.46,12.59 27.54,19.71 43.92,23.32 0.32,1.22 0.9,3.65 1.22,4.86 -15.89,4.58 -32.47,-5.38 -48.53,0.58 11.66,16.9 34.64,11.52 50.58,19.97 -12.41,7.87 -29.37,0.08 -40.13,11.8 14.09,19.16 41.03,14.24 61.54,18.52 0.09,1.56 0.2,4.69 0.26,6.22 -13.94,1.19 -28.84,0.35 -41.55,7.12 15.57,12.59 38.28,6.25 53.76,17.48 -13.19,4.08 -27.23,3.04 -40.45,6.83 8.31,14.41 27.43,14.75 41.96,17.99 0.17,1.68 0.49,5.1 0.66,6.8 -8.68,1.28 -17.76,1.39 -25.75,5.38 -0.87,2.73 -1.59,5.5 -2.14,8.34 12.41,9 27.89,8.13 42.45,7.67 -0.2,1.44 -0.61,4.37 -0.81,5.84 -5.04,1.88 -10.04,3.76 -15.02,5.7 0.15,1.45 0.38,4.37 0.52,5.82 11.06,3.79 22.37,0.78 33.71,0.95 -2.78,11.49 -18.26,9.81 -24.25,19.13 12.74,2.6 25.73,2.98 38.6,4.51 -5.21,6.4 -11.86,11.37 -17.13,17.68 0.21,1.07 0.64,3.24 0.84,4.34 10.79,1.36 21.68,-0.35 32.5,0.38 -1.45,5.06 -2.93,10.13 -4.2,15.25 9.2,4.6 19.33,3.35 29.17,2.17 0.23,6.62 0.34,13.28 0.66,19.9 12.13,1.74 24.22,-0.46 36.34,-0.83 -1.7,2.98 -2.92,6.74 -6.82,7.32 -9.29,3.21 -19.65,3.32 -29.2,1.27 -7.67,-2.05 -9.81,-10.27 -11.81,-16.9 -6.82,-1.59 -14.35,-1.5 -20.51,-5.15 -4.25,-3.94 -6.19,-9.69 -10.16,-13.86 -10.12,-0.61 -22.59,0.41 -27.69,-10.59 2.2,-5.09 4.37,-10.16 6.6,-15.22 -9.26,-0.55 -18.46,-2.26 -26.97,-6.08 0.26,-4.54 0.55,-9.08 0.9,-13.62 -6.94,-5.01 -12.18,-11.92 -13.25,-20.61 -9.38,-3.27 -21.76,-6.01 -24.28,-17.27 1.59,-5.96 5.38,-10.88 8.8,-15.89 -7.41,-4.02 -16.15,-7.11 -20.78,-14.64 -2.57,-6.04 2.55,-11.02 5.88,-15.42 -7.33,-2.52 -15.17,-4.66 -20.87,-10.21 -1.91,-6.11 2.64,-10.97 5.96,-15.45 -9.8,-3.53 -21.75,-7.35 -25.49,-18.26 -1.33,-6.6 4.72,-10.8 8.39,-15.31 -9.43,-4.86 -20.63,-11.37 -18.34,-23.84 5.5,-2.26 11.02,-4.4 16.64,-6.45 -6.37,-7.53 -15.69,-13.57 -18.12,-23.62 0.76,-4.89 2.23,-9.57 3.45,-14.35 -5.01,-5.23 -12.99,-9.52 -13.55,-17.47 -1.15,-6.23 4.75,-10.1 7.33,-15.05 -1.1,-7.06 -5.18,-13.25 -7.35,-20 5.18,-2.92 10.53,-5.55 16.08,-7.75 -3.21,-5.9 -6.19,-11.89 -9,-17.97 0.64,-1.82 1.86,-5.52 2.49,-7.38 4.14,-1.73 8.31,-3.38 12.47,-5 -3.41,-7.55 -8.47,-15.31 -6.51,-23.99 1.83,-4.89 6.17,-8.25 9.44,-12.18 -12.36,-10.68 -26.04,-19.5 -40.97,-26.04 -35.97,-20.89 -71.21,-43.49 -102.55,-70.98 -21.33,-18.52 -42.27,-38.8 -54.43,-64.73 -2.54,7.18 -5.99,14.47 -4.95,22.31 1.65,17.19 6.31,33.88 11.17,50.41 2.14,9.46 11.92,13.42 18.72,19.09 32.67,25.29 65.14,50.96 99.45,74.05 6.08,3.93 11.9,8.21 17.42,12.93 -1.15,0.78 -3.47,2.38 -4.63,3.18 -8.36,-2.22 -15.36,-7.61 -22.45,-12.35 -27.11,-18.9 -53.62,-38.69 -79.43,-59.32 -13.22,-10.18 -26.15,-21 -41.08,-28.7 -21.3,-11.34 -38.08,-29.08 -54.75,-46.18 -11.14,-11.55 -18.52,-25.9 -27.46,-39.06 -5.79,23.43 5.06,45.92 14.09,66.86 6.25,16.73 22.8,25.56 35.56,36.7 49.37,41.23 99.68,82.29 156.83,112.38 4.05,1.71 6.71,5.06 7.78,9.32 -6.97,-0.44 -13.51,-2.84 -19.47,-6.28 -43.63,-23.15 -82.67,-53.79 -121.09,-84.49 -24.63,-19.71 -47.98,-41.03 -74.19,-58.63 -9.64,-6.68 -17.56,-15.36 -25.78,-23.61 -1.51,10.22 -3.16,21.07 0.55,31.02 11.28,28.76 37,48.03 59.03,68.4 50.72,43.87 111.89,73.27 173.37,98.85 0.15,1.53 0.47,4.57 0.61,6.07 -12.87,-0.17 -23.93,-7.26 -35.42,-12.06 -53.44,-23.3 -105.32,-51.88 -149.07,-90.83 -8.85,-7.49 -17.13,-15.65 -26.39,-22.66 -3.12,14.1 -2.6,30.1 7.06,41.64 7.64,15.39 22.77,23.99 36.58,33.04 46.32,29.81 96.84,52.49 148.32,71.85 11.46,4.69 24.62,6.34 34.03,15.13 -10.31,4.11 -20.49,-1.67 -30.13,-4.83 -50.55,-18.31 -99.79,-40.51 -145.94,-68.14 -11.38,-6.63 -21.59,-15.22 -33.74,-20.49 -3.56,20.78 16.09,32.93 27.6,46.88 11.98,15.16 31.4,19.67 48.12,27.31 11.05,4.84 17.94,16.55 30.18,19.04 38.77,10.3 77.69,20.49 117.33,27 0.06,1.5 0.2,4.54 0.26,6.08 -12.3,0.26 -24.48,-1.51 -36.37,-4.52 -27.37,-5.76 -54.28,-13.28 -81.31,-20.28 -7.46,-2.06 -15.25,-1.94 -22.88,-1.94 -13.81,0.49 -26.6,-5.56 -39.85,-8.42 2.09,9.03 10.53,13.57 17.71,18.14 8.62,5.15 17.33,10.62 27.26,12.76 39.06,6.89 78.15,13.89 117.59,18.46 9.66,0.67 19.73,-0.08 28.7,4.28 -1.59,1.16 -4.8,3.48 -6.42,4.63 -26.62,0.26 -52.84,-5.46 -79.2,-8.68 -20.11,-2.51 -39.72,-8.36 -59.98,-9.54 1.42,11.31 13.02,15.82 21.21,21.67 7.29,5.32 16.58,4.86 25.15,5.12 27.8,-0.03 54.8,7.49 82.14,11.6 10.53,1.62 21.33,2.63 31.25,6.83 -5.79,7.93 -15.57,3.53 -23.49,2.66 -33.89,-4.74 -67.36,-15.07 -101.91,-12.61 8.27,8.07 16.78,16.2 27.02,21.73 32,4.66 64.73,5.18 97.11,3.7 -0.09,1.62 -0.29,4.86 -0.38,6.48 -30.61,4.69 -61.28,-0.46 -92.01,0.06 9.52,10.94 22.71,18 35.91,23.5 23.23,1.99 45.22,-10.65 68.57,-8.6 4.11,0.38 5.99,2.9 5.7,7.5 -22.25,-0.44 -43.52,6.07 -65.13,10.06 0.03,1.42 0.09,4.29 0.12,5.71 6.91,6.65 13.39,14.93 23.32,17.04 18.02,5.7 37.04,6.36 55.76,4.92 -0.15,1.65 -0.44,5 -0.58,6.68 -19.94,5.99 -40.11,-0.55 -59.87,-3.59 0.32,10.28 8.42,17.39 16.23,22.89 18.35,3.65 37.16,3.88 55.79,3.21 -0.06,1.62 -0.2,4.89 -0.29,6.54 -18.46,5.67 -37.15,-1.39 -55.81,-0.55 -2.61,12.39 7.32,21.96 18.25,25.47 15.86,7.58 33.36,1.01 49.95,1.53 3.9,0.35 5.78,2.66 5.64,6.97 -11.55,1.3 -23.38,0.75 -34.46,4.78 4.42,5.78 9.63,11.86 17.21,13.31 13.75,0.92 27.75,-2.35 41.26,1.44 -8.19,8.34 -21.35,4.92 -31.85,7.44 0.2,3.04 0.4,6.08 0.57,9.14 21.73,8.51 42.97,-5.93 64.96,-4.19 -0.26,1.59 -0.81,4.77 -1.07,6.33 -14.03,2.23 -27.89,5.33 -41.55,9.35 -1.88,14.15 14.59,18.92 25.67,19.65 15.28,-2.69 30.06,-7.99 45.6,-9.2 -0.14,1.7 -0.38,5.15 -0.52,6.88 -12.27,3.36 -24.94,5.3 -36.84,10.01 10.54,6.57 23.24,7.35 35.31,6.69 9.69,-1.77 18.05,-7.41 26.73,-11.75 7.87,9.78 -9.11,13.31 -15.19,17.51 2.92,3.35 5.38,7.4 9.32,9.69 10.44,-1.19 18.92,-9.2 29.66,-9.87 -0.03,2.72 -0.06,5.44 -0.09,8.19 -6.31,2.06 -12.47,4.54 -18.58,7.09 2.09,6.63 5.36,14.03 11.63,17.48 12.48,-2.09 23.79,-13.08 36.93,-8.25 -4.26,3.62 -8.74,7.18 -14.07,9.06 -15.59,5.9 -30.81,12.87 -46.93,17.18 -35.44,9.73 -71.06,18.81 -107.06,26.31 -22.83,5.09 -46.38,8.79 -67.79,18.6 -4.92,2.75 -14.3,8.86 -8.89,15.05 7.53,7.9 19.59,13.68 30.59,10.21 25.89,-6.91 51.73,-14.2 77.52,-21.61 15.53,-4.28 30.61,-10.42 46.58,-13.02 -0.09,1.73 -0.32,5.21 -0.43,6.94 -41.76,15.08 -85.22,24.51 -127.49,37.82 -0.09,5.53 -0.73,11.14 0.37,16.61 7.99,10.85 23.79,8.82 35.65,11.63 21.38,-8.39 41.9,-19.01 63.49,-27.08 16.49,-5.99 32.17,-14.56 49.33,-18.55 1.39,1.01 4.17,3.01 5.56,4.02 -5.53,3.3 -11.26,6.31 -17.28,8.6 -29.54,11.4 -58.91,23.26 -87.61,36.6 -1.36,7.23 -6.4,16.4 0.14,22.51 10.16,6.89 23.24,1.3 34.26,-0.23 25.43,-19.04 51.56,-37.56 79.34,-53.24 3.65,-2.61 8.1,-1.65 12.04,-0.32 -9.55,10.62 -23.15,15.88 -34.67,23.93 -16.03,10.85 -33.22,20.48 -47.16,34.08 -4.78,4.63 0.46,10.74 4.8,13.31 10.48,9.06 28.62,7.85 37.44,-2.95 17.1,-18.6 36.49,-34.89 55.01,-52.05 6.68,-5.82 12.06,-14.5 21.64,-15.45 -0.95,3.47 -1.04,7.49 -3.9,10.1 -14.56,15.33 -31.14,28.53 -46.44,43.08 -6.89,6.31 -14.39,12.3 -19.01,20.6 14.55,7.7 32.69,7.09 46.7,-1.39 15.94,-19.53 30.61,-40.42 41.32,-63.34 5.03,-10.7 14.58,-18.2 20.54,-28.29 2.4,-6.43 -0.38,-13.4 -1.68,-19.8 -4.54,-0.43 -9.14,-0.46 -13.54,-1.59 -5.5,-2.31 -7.64,-8.27 -10.76,-12.85 -6.31,-1.21 -13.17,-1.44 -18.81,-4.74 -8.48,-9.43 -9.49,-25.9 0.23,-34.95 5.61,5.87 2.17,13.57 1.97,20.6 0.66,4.43 4.22,7.64 6.45,11.37 6.83,-4.51 12.67,-10.27 19.21,-15.13 0.99,9.17 -1.85,19.33 3.33,27.66 6.11,1.97 12.82,-0.38 19.18,-0.26 1.07,9.84 3.5,19.62 8.45,28.27 6.17,-3.39 11.95,-7.38 17.83,-11.2 4.89,9.52 11.37,18.63 21.64,22.83 2.81,-5.18 3.39,-13.43 10.71,-14.03 0.14,12.44 0.08,24.94 -0.38,37.38 -1.56,19.01 -15.33,34.75 -15.42,53.94 6.45,-0.5 14.18,1.62 19.82,-2.03 10.91,-19.5 18.95,-40.89 22.16,-63.08 2.98,0.49 6.6,0.35 7.84,3.82 6.14,10.45 13.98,21.27 26.54,24.19 4.74,-6.1 9.52,-12.21 14.18,-18.37 2.02,-0.15 6.13,-0.47 8.16,-0.61 -1.28,10.36 -12.04,15.88 -14.7,25.49 0.26,8.62 10.04,13.57 17.82,13.77 3.04,-8.94 6.63,-17.7 10.04,-26.5 2.87,-0.32 5.7,-0.61 8.57,-0.87 -3.07,14.82 -13.26,28.27 -9.81,44.04 6.1,-0.75 13.28,-0.69 17.88,-5.5 3.07,-4.54 4.11,-10.1 5.96,-15.19 1.53,-0.14 4.6,-0.46 6.16,-0.61 0.55,9.09 -5.47,21.59 3.59,27.87 8.22,6.65 19.39,3.18 29.05,4.71 0.93,-5.55 1.62,-11.11 2.17,-16.69 -4.14,-1.3 -8.22,-2.72 -12.33,-4.05 -0.17,-1.45 -0.57,-4.34 -0.78,-5.76 5.96,0.12 11.9,0.38 17.86,0.52 7.09,-7.38 14.81,-15.74 25.34,-17.59 7.58,-0.52 16.58,-1.53 22.6,4.19 3.7,9.73 2.4,20.64 4.81,30.7 2.95,3.88 6.71,7.04 10.3,10.33 1.27,-10.33 2.57,-21.84 10.67,-29.28 4.58,-6.13 14.27,-6.48 20.08,-2.02 8.92,6.54 18.98,11.11 28.82,16.06 2.12,-11.84 -4.77,-21.21 -10.96,-30.39 23.96,0.06 50.08,5.76 66.14,25 0.76,-7.32 4.4,-15.8 -0.43,-22.42 -12.91,-19.16 -37.88,-27 -60.07,-24.36 -27.03,4.28 -55.82,0.95 -80.15,-12.04 -13.51,-6.98 -23.47,-18.78 -34.84,-28.56 -23,-19.91 -37.61,-47.08 -57.84,-69.42 -8.59,-12.09 -20.83,-20.74 -34.11,-26.99 -0.21,-1.77 -0.58,-5.27 -0.76,-7.03 8.83,0.78 16.76,5 23.5,10.62 28.5,24.01 45.4,58.36 72.13,84.02 1.86,0 5.5,0 7.32,0 -3.06,-6.74 -3.9,-13.83 0.38,-20.28 -6.8,-2.43 -13.57,-4.83 -20.25,-7.49 3.79,-4.55 7.72,-8.97 11.6,-13.43 -4.72,-1.27 -9.43,-2.52 -14.18,-3.7 1.48,-9.29 10.94,-13 17.54,-18.2 -9.06,-1.91 -18.26,-3.71 -26.45,-8.19 5.76,-5.9 13.05,-9.78 20.43,-13.23 -5.44,-1.76 -10.88,-3.56 -16.24,-5.52 0.06,-1.45 0.18,-4.31 0.21,-5.76 7.12,-3.07 14.23,-6.16 21.41,-9.11 -5.24,-3.01 -10.56,-5.91 -15.89,-8.74 -0.17,-1.74 -0.52,-5.15 -0.66,-6.89 7.38,-2.69 14.9,-5.01 22.45,-7.32 -3.53,-4.54 -7.15,-9.03 -10.62,-13.6 4.05,-2.03 8.6,-3.36 12.04,-6.48 -1.13,-1.45 -3.39,-4.37 -4.54,-5.85 3.27,-1.36 6.59,-2.54 10.01,-3.47 -1.39,-3.27 -2.66,-6.57 -3.85,-9.89 5.73,-0.76 11.57,-1.8 17.36,-0.82 7.55,3.22 7.21,12.8 8.31,19.65 -8.08,4.11 -15.8,9.15 -24.77,11.11 4.51,4 8.16,8.83 10.59,14.38 -6.77,2.06 -13.57,4.11 -20.2,6.63 5.61,3.47 11.78,6.57 15.51,12.33 -5.9,3.41 -11.95,6.62 -18.11,9.57 4.6,2.06 9.11,4.26 13.57,6.63 -0.26,1.3 -0.81,3.88 -1.07,5.18 -4.06,2.75 -8.08,5.53 -12.04,8.36 6.6,2.11 13.22,4.2 19.67,6.74 -4.05,7.06 -10.96,11.52 -17.27,16.35 4.83,1.8 9.69,3.68 14.53,5.56 -3.68,4.83 -7.58,9.52 -11.49,14.15 5.29,1.85 10.62,3.73 15.91,5.73 -1.16,4.08 -2.37,8.19 -3.53,12.32 6.51,1.51 13.31,2.43 19.77,-0.03 20.34,-6.56 41.95,-5.41 63.02,-4.83 34.17,1.59 66.43,13.75 98.55,24.42 -11.14,-12.44 -27.26,-18.95 -37.85,-31.91 17.42,-6.92 36.66,-1.16 54.49,1.21 17.7,2.69 19.5,24.31 13.77,37.94 5.56,-5.04 11.6,-10.02 14.41,-17.19 6.86,-12.94 0.2,-29.6 -11.43,-37.3 -15.94,-1.19 -32,-0.58 -47.94,0.26 -10.33,1.51 -12.65,-11.14 -17.39,-17.65 -10.65,1.88 -21.47,2.95 -32.3,2.11 -0.26,-1.39 -0.78,-4.22 -1.04,-5.64 15.86,-2.4 31.8,-5.9 47.95,-5.32 10.3,0.23 15.94,10.3 21.96,17.24 4.95,0.12 9.89,0.18 14.87,0.26 -4.28,-11.74 -7.87,-24.24 -16.26,-33.85 -11.29,-14.24 -26.76,-24.34 -42.91,-32.23 -18.46,-8.86 -35.42,-20.49 -53.39,-30.24 -12.73,-7 -28.24,-6.89 -40.45,-15.11 -33.79,-24.18 -74.39,-39 -115.8,-42.65 -18.86,-2.17 -37.79,-6.1 -56.85,-5.18 -10.54,3.01 -20.78,7.96 -32.12,6.37 8.36,13.51 17.36,27.03 29.77,37.18 7.38,6.08 16.44,9.38 24.97,13.43 -3.58,7.66 -13.16,3.79 -18.66,0.72 -25.84,-13.63 -39.21,-40.91 -54.71,-64.26 -15.63,-23.07 -18.93,-51.45 -29.46,-76.77 -10.19,-23.67 -19.71,-48.2 -36.4,-68.23 -20.95,-24.85 -36.92,-53.38 -57.15,-78.76 -25.49,-31.74 -60.27,-53.73 -90.8,-80.06 -38.48,-28.85 -74.04,-61.34 -112.09,-90.77 -11.26,-8.68 -22.6,-17.59 -30.93,-29.28 -15.83,-21.04 -32.24,-41.73 -46.68,-63.78 -3.18,-3.87 -5.72,-9.83 -11.45,-10.01zm-113.78 66.67l0 0c5.36,4.37 11.12,8.27 17.1,11.75 -0.28,-3.85 -0.6,-7.73 -0.95,-11.58 -5.38,-0.14 -10.76,-0.2 -16.15,-0.17zm-86.83 47.71l0 0c-1.24,38.77 -0.12,77.61 -0.52,116.41 0,179.42 0.06,358.85 -0.03,538.28 0.03,5.41 0.35,10.82 0.96,16.23 44.01,0.35 88.05,0.17 132.05,0.12 0.5,-26.1 -0.14,-52.2 0.32,-78.3 42.36,-0.55 84.73,0.43 127.06,-0.47 13.77,-4.37 27.02,-10.64 41.37,-13.31 53.25,-11.77 106.72,-23.06 158.89,-39.15 -7.09,-14.64 -22.14,-22.56 -33.25,-33.7 -10.3,-2.72 -21.32,-1.02 -31.57,-4.14 -6.6,-2.46 -11.17,-8.1 -17.19,-11.46 -7.72,-2.78 -16.29,-3.67 -23.08,-8.59 -5.76,-4.92 -7.53,-12.65 -9.64,-19.56 -5.27,-1.16 -10.59,-2.15 -15.6,-4.17 -5.23,-4.89 -4.83,-13.98 -11.48,-17.54 -7.18,-4.39 -14.79,-8.76 -18.55,-16.69 -4.02,-8.59 -14.96,-8.36 -22.37,-12.59 -11.75,-4.28 -20.4,-16.06 -18.46,-28.85 1.45,-10.96 -11.92,-15.01 -14.58,-24.48 -1.45,-4.62 -2,-9.43 -3.39,-14.06 -5.32,-6.94 -12.61,-12.21 -17.27,-19.67 -7.99,-15.02 -27.61,-16.18 -38.28,-28.39 -5.38,-6.34 -9.38,-13.86 -15.8,-19.24 -7.32,-6.16 -15.37,-11.66 -21.21,-19.36 -6.71,-8.94 -16.7,-14.21 -25.64,-20.51 -8.94,-5.96 -8.88,-19.22 -18.46,-24.54 -10.07,-6.42 -21.21,-11.37 -30.18,-19.42 -6.77,-6.85 -14.29,-15.24 -11.98,-25.72 18.78,-2.46 34.12,13.19 52.96,11.23 -3.85,-7.29 -11.78,-10.33 -18.9,-13.4 -14.81,-6.19 -31.45,-11.28 -41.78,-24.42 -7.99,-10.3 -18.26,-18.66 -25.58,-29.51 -6.45,-8.48 -3.76,-19.68 -4.98,-29.49 -0.6,-13.54 -14.41,-21.44 -16.29,-34.58 -2.14,-11.43 -0.14,-23 -0.14,-34.49 0.52,-5.41 -4.4,-8.74 -7.41,-12.47zm1312.76 67.42l0 0c8.94,-2.26 17.3,-6.16 25.66,-9.95 -0.03,-6.31 -0.03,-12.62 0,-18.93 -8.3,9.87 -18.43,18.15 -25.66,28.88zm-4.11 222.89l0 0c-9.44,6.1 -21.67,1.36 -31.37,6.71 -10.59,5.41 -21.03,11.57 -32.84,13.89 -11.17,1.74 -22.22,-1.53 -33.25,-2.69 -3.03,7.06 -6.42,14.29 -5.49,22.22 0.49,113.51 -0.61,227.05 0.55,340.57 43.34,-0.06 86.74,0.52 130.09,-0.23l1.85 -1.71c0.09,-132.35 0.61,-264.73 -0.26,-397.08 -11.31,3.44 -19.56,12.18 -29.28,18.32zm-357.29 252.17l0 0c2.51,4.89 6.45,8.04 12.24,7.52 -1.59,-5.53 -7.56,-6.28 -12.24,-7.52zm1.27 35.33l0 0c14.27,10.47 27.98,21.64 41.32,33.3 3.21,-8.91 4.72,-18.52 -0.09,-27.17 -13.54,-3.3 -27.43,-4.66 -41.23,-6.13zm-51.27 16l0 0c-0.12,15.13 0.08,30.26 -0.21,45.43 14.04,2.31 28.1,6.45 39.27,15.65 12.96,9.08 18.52,26.24 33.56,32.64 9.99,4.14 20.17,7.87 30.59,10.79 0.49,-24.74 0.11,-49.45 0.23,-74.16 -5.27,0.29 -10.94,2.05 -15.83,-0.66 -27.72,-13.49 -56.71,-26.22 -87.61,-29.69zm-355.3 28.38l0 0c-10.44,10.3 -18.52,22.77 -24.68,36.06 -8.74,18.17 -21.99,33.5 -32.84,50.34 12.01,-0.11 24.62,0.49 35.91,-4.45 6.8,-3.5 10.59,-10.54 14.93,-16.5 13.25,-20.39 28.56,-39.67 38.71,-61.92 -2.89,-2.69 -5.61,-5.52 -8.73,-7.84 -7.87,0.81 -15.63,2.55 -23.3,4.31zm37.18 13.69l0 0c-12.67,22.74 -28.81,43.29 -42.41,65.45 0.81,1.01 2.37,3.01 3.18,4.02 13.28,0.81 26.47,-5.93 35.76,-15.04 8.02,-17.62 16.7,-36.14 15.63,-55.99 -4.14,-1.28 -10.01,-4.23 -12.16,1.56zm51.51 20.92l0 0c-1.19,4.69 -2.26,9.4 -3.18,14.18 6.39,0.08 12.81,0.08 19.27,-0.26 -4.84,-5.24 -9.99,-10.22 -16.09,-13.92zm263.89 23.96l0 0c1.1,11.51 0.95,23.17 -1.54,34.52 -3.12,12.55 1.28,25.05 2.9,37.47 1.47,-11.98 5.35,-25.52 16.55,-31.89 6.28,-1.47 12.82,-0.75 19.24,-1.1 -0.23,-8.62 1.42,-17.88 -2.81,-25.84 -8.62,-9.46 -22.19,-11.77 -34.34,-13.16zm45.48 37.27l0 0c16.29,9.92 24.45,27.34 33.16,43.46 3.85,-3.19 7.84,-6.22 11.37,-9.78 1.22,-11.95 -9.78,-20.08 -13.8,-30.44 6.98,0.29 13.92,2.23 18.95,7.35 12.04,9.2 3.33,25.72 7.64,38.19 9.61,-6.45 21.91,-12.79 22.66,-25.9 -12.79,-10.96 -28.07,-18.05 -43,-25.55 1.39,-1.07 4.2,-3.21 5.62,-4.28 15.19,3.1 29.02,10.65 42.44,18.17 -0.32,-3.03 -0.63,-6.04 -0.89,-9.05 -4.58,-3.3 -9.15,-6.66 -14.41,-8.66 -19.22,-6.94 -38.26,-14.38 -56.8,-22.88 -4.43,9.75 -8.63,19.59 -12.94,29.37zm188.57 -570.92l0 0c-10.24,3.27 -18.89,10.04 -27.2,16.64 18.38,5.09 37.76,-2.64 49.63,-16.99 -7.47,-0.43 -15.08,-1.22 -22.43,0.35zm-30.41 28.56l0 0c-9.37,1.01 -21.09,-2.9 -26.21,7.58 18.05,2.08 36.51,2.52 54.45,-0.58 -0.03,-2.03 -0.11,-6.05 -0.14,-8.04 -9.26,-3.68 -18.75,0.23 -28.1,1.04zm-51.99 27.86l0 0c14.78,1.19 29.71,1.62 44.5,0.17 -3.76,-11.05 -17.91,-9.46 -27.29,-11.25 -8.04,-1.71 -12.56,6.13 -17.21,11.08zm-29.29 23.09l0 0c18.7,2.2 37.65,1.13 55.93,-3.44 -8.68,-6.25 -19.24,-9.17 -29.65,-10.68 -10.97,-1.76 -19.25,7.15 -26.28,14.12zm-66.52 40.66l0 0c6.66,4.63 13.02,10.18 20.84,12.79 10.61,-1.25 20.77,-5.01 30.81,-8.57 0,-1.59 0.03,-4.77 0.06,-6.37 -5.87,-2.95 -11.72,-5.93 -17.59,-8.85 -0.26,-1.36 -0.81,-4.08 -1.07,-5.44 20.92,-1.74 44.04,5.01 63.16,-5.93 -14.06,-5.15 -28.7,-9.03 -43.55,-11 -18.83,8.68 -35.7,21.44 -52.66,33.37zm-13.08 6.51l0 0c-8.36,4.71 -14.52,12.35 -21.12,19.18 15.71,4.95 32.93,6.97 48.99,2.29 -1.19,-4.03 -0.9,-9.15 -5.1,-11.4 -6.79,-4.58 -14.2,-10.22 -22.77,-10.07z"/>
   <path class="fil2" d="M1599.62 525.12c16.44,-8.22 31.54,-18.84 47.98,-27.08 -9.9,19.9 -25.64,35.93 -40.77,51.91 -20.66,23.75 -51.33,34.23 -77.81,49.79 -2.86,1.97 -4.83,4.92 -7.06,7.55 4.46,-0.4 9.09,-0.31 13.4,-1.76 27.2,-11.37 50.49,-30.67 78.53,-40.22 27.4,-9.87 53.3,-23.35 79.8,-35.33 17.13,-7.61 32.99,-18.26 51.25,-23.12 -7.35,15.54 -20.09,27.58 -33.71,37.65 -18.2,13.77 -36.75,27.19 -55.82,39.75 -17.62,11.78 -39.7,14.47 -56.86,27.09 -4.86,3.21 -6.94,8.82 -9.37,13.83 6.94,-2.32 13.4,-5.85 19.56,-9.75 15.85,-10.45 35.44,-13.14 51.07,-24.02 24.07,-16.15 47.92,-32.78 70.25,-51.27 12.62,-10.25 27.55,-16.93 41.81,-24.48 15.28,-7.44 30.59,-16.35 47.98,-17.36 -3.53,10.41 -7.27,21.47 -16.26,28.53 -23.56,20.11 -48.35,38.71 -73.04,57.37 -24.39,19.1 -52.63,32.18 -78.73,48.59 -13.86,8.82 -30.12,13.8 -42.27,25.23 5.67,0.52 11.75,1.1 16.98,-1.82 20.58,-9.41 38.98,-22.86 59.03,-33.31 45.69,-24.45 84.55,-59.14 125.69,-90.19 0.7,14.41 -5.15,28.39 -16.46,37.47 -23.12,19.39 -46.93,38.05 -71.35,55.79 -19.07,11.77 -36.11,27.23 -57.32,35.21 -7.24,3.07 -15.83,5.1 -19.77,12.65 17.91,0.29 34,-8.97 48.61,-18.32 18.09,-12.82 37.01,-24.48 54.43,-38.22 13.8,-10.22 26.33,-22.28 41.64,-30.3 0.92,26.1 -15.91,51.02 -39.82,61.11 -23.52,13.37 -50.2,18.96 -74.85,29.46 4.43,1.82 9.03,4.92 14,2.81 19.82,-4.78 38.84,-12.56 57.15,-21.42 12.85,-6.1 24.86,-14.61 39.24,-16.81 -6.05,15.28 -18.81,28.88 -35.3,32.44 -19.62,5 -39.33,9.66 -59.23,13.25 -36.55,6.22 -74.48,2.34 -110.25,13.25 -0.03,1.68 -0.08,5.04 -0.08,6.72 16.03,-2.06 31.85,-5.62 48,-6.77 21.3,-2.44 42.91,-1.19 64.03,-5.39 20.6,-2.51 40.19,-10.7 61.03,-11.69 -8.16,11.2 -22.11,14.59 -33.45,21.45 -8.57,4.36 -16.09,11.25 -25.58,13.48 -44.07,2.14 -88.08,-2.29 -132.12,-3.21 0.09,1.59 0.29,4.83 0.41,6.45 22.62,3.96 45.66,1.91 68.43,4.46 18.52,1.79 37.21,0.05 55.73,2.08 -9.38,10.65 -21.99,18.14 -35.62,21.79 -16.93,2.31 -33.74,-2.46 -50.64,-2.84 -25.26,-1.24 -50.29,-5.47 -75.55,-5.96 0.15,1.56 0.49,4.69 0.67,6.25 32.03,6.19 64.81,5.96 97.16,9.87 -7.46,5.78 -14.61,12.64 -23.84,15.51 -36.14,6.59 -71.27,-7.29 -106.45,-13.23 -2.14,0.93 -6.43,2.81 -8.57,3.74 24.68,11.05 52.32,11.8 78.04,19.56 -10.39,5.84 -22.13,10.04 -34.2,7.75 -17.85,-3.39 -35.79,-6.42 -53.68,-9.78 -5.2,-1.65 -10.41,-0.35 -14.84,2.58 13.25,6.36 27.92,8.24 42.22,10.82 -2,4.74 -4.14,10.39 -9.72,11.8 -12.62,3.88 -26.34,3.56 -39.3,2.23 -15.85,-4.8 -29.77,-15.05 -46.53,-17.22 0.29,1.94 0.84,5.82 1.1,7.76 12.42,4.4 24.66,9.43 36.35,15.54 -11.29,14.76 -31.6,12.47 -47.89,10.38 -17.6,-2.28 -33.77,-11.31 -51.68,-11.37 2.63,3.04 4.95,6.8 9.06,8.08 12.41,4.97 25.58,7.75 38.39,11.51 -8.53,16.79 -29.86,15.54 -45.11,10.19 -10.21,-2.69 -20.83,-10.1 -31.48,-4.98 12.27,8.94 27.4,11.86 41.55,16.58 0.03,8.59 -5.84,15.57 -14.9,14.9 -20.08,3.47 -35.39,-15.1 -55.21,-12.84 7.06,8.85 18.26,12.06 28.04,16.92 -3.99,3.5 -7.44,8.62 -13.05,9.35 -16.14,1.91 -30.03,-12.1 -46.27,-7.64 6.98,5.21 14.93,8.8 22.98,12.01 -1.42,4.11 -2.55,8.48 -5.18,12.03 -14.35,5.36 -29.6,0.81 -42.42,-6.25 -0.43,-26.93 0.61,-53.84 0.41,-80.75 0.2,-7.67 -3.19,-14.67 -6.31,-21.44 16.14,3.32 33.01,4.22 49.01,-0.29 2.61,-5.18 5.1,-10.42 7.59,-15.69 10.35,-2.72 21.38,-4.34 30.67,-10.01 5.87,-3.79 2.69,-11.86 3.18,-17.65 15.22,-1.65 33.27,0.9 45.51,-10.15 -1.36,-5.04 -3.53,-9.78 -5.58,-14.53 10.36,-0.55 20.57,-2.75 30.09,-6.97 -0.87,-5.04 -1.85,-10.02 -3.07,-14.96 9.44,-1.25 18.84,-2.81 28.01,-5.41 0.26,-4.66 0.38,-9.32 0.55,-13.98 9.55,-0.98 19.74,-1.39 28.13,-6.57 2.05,-5.73 0.63,-11.89 0.35,-17.79 8.42,-6.72 23.84,-10.74 23.9,-23.35 -0.03,-8.8 -10.59,-8.28 -16.81,-8.25 -29.78,-0.95 -49.34,25.26 -73.53,38.31 -17.45,8.83 -30.87,23.15 -46.15,34.98 -39.93,25.23 -82.26,48.27 -115.37,82.67 -17.91,-15.25 -33.56,-32.9 -50.83,-48.84 21.61,-11.92 42.01,-27.09 66.52,-32.67 43.46,-11.02 85.59,-26.45 126.99,-43.52 31.95,-11.8 58.42,-33.88 86.64,-52.31 8.82,-6.28 20.63,-1.94 29.86,-7.53 23.29,-11.92 46.78,-23.66 68.43,-38.51 18.95,-12.7 39.26,-23.12 59.63,-33.36zm-354.02 681.28c4.31,-9.78 8.51,-19.62 12.94,-29.37 18.54,8.5 37.58,15.94 56.8,22.88 5.26,2 9.83,5.36 14.41,8.66 0.26,3.01 0.57,6.02 0.89,9.05 -13.42,-7.52 -27.25,-15.07 -42.44,-18.17 -1.42,1.07 -4.23,3.21 -5.62,4.28 14.93,7.5 30.21,14.59 43,25.55 -0.75,13.11 -13.05,19.45 -22.66,25.9 -4.31,-12.47 4.4,-28.99 -7.64,-38.19 -5.03,-5.12 -11.97,-7.06 -18.95,-7.35 4.02,10.36 15.02,18.49 13.8,30.44 -3.53,3.56 -7.52,6.59 -11.37,9.78 -8.71,-16.12 -16.87,-33.54 -33.16,-43.46zm-45.48 -37.27c12.15,1.39 25.72,3.7 34.34,13.16 4.23,7.96 2.58,17.22 2.81,25.84 -6.42,0.35 -12.96,-0.37 -19.24,1.1 -11.2,6.37 -15.08,19.91 -16.55,31.89 -1.62,-12.42 -6.02,-24.92 -2.9,-37.47 2.49,-11.35 2.64,-23.01 1.54,-34.52zm-315.4 -44.88c2.15,-5.79 8.02,-2.84 12.16,-1.56 1.07,19.85 -7.61,38.37 -15.63,55.99 -9.29,9.11 -22.48,15.85 -35.76,15.04 -0.81,-1.01 -2.37,-3.01 -3.18,-4.02 13.6,-22.16 29.74,-42.71 42.41,-65.45zm-37.18 -13.69c7.67,-1.76 15.43,-3.5 23.3,-4.31 3.12,2.32 5.84,5.15 8.73,7.84 -10.15,22.25 -25.46,41.53 -38.71,61.92 -4.34,5.96 -8.13,13 -14.93,16.5 -11.29,4.94 -23.9,4.34 -35.91,4.45 10.85,-16.84 24.1,-32.17 32.84,-50.34 6.16,-13.29 14.24,-25.76 24.68,-36.06zm405.3 -79.71c4.68,1.24 10.65,1.99 12.24,7.52 -5.79,0.52 -9.73,-2.63 -12.24,-7.52zm-21.18 -129.05c3.27,1.88 6.59,3.76 9.92,5.67 -3.33,4.4 -6.71,8.76 -9.61,13.45 -0.2,-6.36 -0.28,-12.76 -0.31,-19.12zm11.22 -139.64c8.57,-0.15 15.98,5.49 22.77,10.07 4.2,2.25 3.91,7.37 5.1,11.4 -16.06,4.68 -33.28,2.66 -48.99,-2.29 6.6,-6.83 12.76,-14.47 21.12,-19.18zm13.08 -6.51c16.96,-11.93 33.83,-24.69 52.66,-33.37 14.85,1.97 29.49,5.85 43.55,11 -19.12,10.94 -42.24,4.19 -63.16,5.93 0.26,1.36 0.81,4.08 1.07,5.44 5.87,2.92 11.72,5.9 17.59,8.85 -0.03,1.6 -0.06,4.78 -0.06,6.37 -10.04,3.56 -20.2,7.32 -30.81,8.57 -7.82,-2.61 -14.18,-8.16 -20.84,-12.79zm66.52 -40.66c7.03,-6.97 15.31,-15.88 26.28,-14.12 10.41,1.51 20.97,4.43 29.65,10.68 -18.28,4.57 -37.23,5.64 -55.93,3.44zm29.29 -23.09c4.65,-4.95 9.17,-12.79 17.21,-11.08 9.38,1.79 23.53,0.2 27.29,11.25 -14.79,1.45 -29.72,1.02 -44.5,-0.17zm51.99 -27.86c9.35,-0.81 18.84,-4.72 28.1,-1.04 0.03,1.99 0.11,6.01 0.14,8.04 -17.94,3.1 -36.4,2.66 -54.45,0.58 5.12,-10.48 16.84,-6.57 26.21,-7.58zm30.41 -28.56c7.35,-1.57 14.96,-0.78 22.43,-0.35 -11.87,14.35 -31.25,22.08 -49.63,16.99 8.31,-6.6 16.96,-13.37 27.2,-16.64zm-932.08 -261.49c5.73,0.18 8.27,6.14 11.45,10.01 14.44,22.05 30.85,42.74 46.68,63.78 8.33,11.69 19.67,20.6 30.93,29.28 38.05,29.43 73.61,61.92 112.09,90.77 30.53,26.33 65.31,48.32 90.8,80.06 20.23,25.38 36.2,53.91 57.15,78.76 16.69,20.03 26.21,44.56 36.4,68.23 10.53,25.32 13.83,53.7 29.46,76.77 15.5,23.35 28.87,50.63 54.71,64.26 5.5,3.07 15.08,6.94 18.66,-0.72 -8.53,-4.05 -17.59,-7.35 -24.97,-13.43 -12.41,-10.15 -21.41,-23.67 -29.77,-37.18 11.34,1.59 21.58,-3.36 32.12,-6.37 19.06,-0.92 37.99,3.01 56.85,5.18 41.41,3.65 82.01,18.47 115.8,42.65 12.21,8.22 27.72,8.11 40.45,15.11 17.97,9.75 34.93,21.38 53.39,30.24 16.15,7.89 31.62,17.99 42.91,32.23 8.39,9.61 11.98,22.11 16.26,33.85 -4.98,-0.08 -9.92,-0.14 -14.87,-0.26 -6.02,-6.94 -11.66,-17.01 -21.96,-17.24 -16.15,-0.58 -32.09,2.92 -47.95,5.32 0.26,1.42 0.78,4.25 1.04,5.64 10.83,0.84 21.65,-0.23 32.3,-2.11 4.74,6.51 7.06,19.16 17.39,17.65 15.94,-0.84 32,-1.45 47.94,-0.26 11.63,7.7 18.29,24.36 11.43,37.3 -2.81,7.17 -8.85,12.15 -14.41,17.19 5.73,-13.63 3.93,-35.25 -13.77,-37.94 -17.83,-2.37 -37.07,-8.13 -54.49,-1.21 10.59,12.96 26.71,19.47 37.85,31.91 -32.12,-10.67 -64.38,-22.83 -98.55,-24.42 -21.07,-0.58 -42.68,-1.73 -63.02,4.83 -6.46,2.46 -13.26,1.54 -19.77,0.03 1.16,-4.13 2.37,-8.24 3.53,-12.32 -5.29,-2 -10.62,-3.88 -15.91,-5.73 3.91,-4.63 7.81,-9.32 11.49,-14.15 -4.84,-1.88 -9.7,-3.76 -14.53,-5.56 6.31,-4.83 13.22,-9.29 17.27,-16.35 -6.45,-2.54 -13.07,-4.63 -19.67,-6.74 3.96,-2.83 7.98,-5.61 12.04,-8.36 0.26,-1.3 0.81,-3.88 1.07,-5.18 -4.46,-2.37 -8.97,-4.57 -13.57,-6.63 6.16,-2.95 12.21,-6.16 18.11,-9.57 -3.73,-5.76 -9.9,-8.86 -15.51,-12.33 6.63,-2.52 13.43,-4.57 20.2,-6.63 -2.43,-5.55 -6.08,-10.38 -10.59,-14.38 8.97,-1.96 16.69,-7 24.77,-11.11 -1.1,-6.85 -0.76,-16.43 -8.31,-19.65 -5.79,-0.98 -11.63,0.06 -17.36,0.82 1.19,3.32 2.46,6.62 3.85,9.89 -3.42,0.93 -6.74,2.11 -10.01,3.47 1.15,1.48 3.41,4.4 4.54,5.85 -3.44,3.12 -7.99,4.45 -12.04,6.48 3.47,4.57 7.09,9.06 10.62,13.6 -7.55,2.31 -15.07,4.63 -22.45,7.32 0.14,1.74 0.49,5.15 0.66,6.89 5.33,2.83 10.65,5.73 15.89,8.74 -7.18,2.95 -14.29,6.04 -21.41,9.11 -0.03,1.45 -0.15,4.31 -0.21,5.76 5.36,1.96 10.8,3.76 16.24,5.52 -7.38,3.45 -14.67,7.33 -20.43,13.23 8.19,4.48 17.39,6.28 26.45,8.19 -6.6,5.2 -16.06,8.91 -17.54,18.2 4.75,1.18 9.46,2.43 14.18,3.7 -3.88,4.46 -7.81,8.88 -11.6,13.43 6.68,2.66 13.45,5.06 20.25,7.49 -4.28,6.45 -3.44,13.54 -0.38,20.28 -1.82,0 -5.46,0 -7.32,0 -26.73,-25.66 -43.63,-60.01 -72.13,-84.02 -6.74,-5.62 -14.67,-9.84 -23.5,-10.62 0.18,1.76 0.55,5.26 0.76,7.03 13.28,6.25 25.52,14.9 34.11,26.99 20.23,22.34 34.84,49.51 57.84,69.42 11.37,9.78 21.33,21.58 34.84,28.56 24.33,12.99 53.12,16.32 80.15,12.04 22.19,-2.64 47.16,5.2 60.07,24.36 4.83,6.62 1.19,15.1 0.43,22.42 -16.06,-19.24 -42.18,-24.94 -66.14,-25 6.19,9.18 13.08,18.55 10.96,30.39 -9.84,-4.95 -19.9,-9.52 -28.82,-16.06 -5.81,-4.46 -15.5,-4.11 -20.08,2.02 -8.1,7.44 -9.4,18.95 -10.67,29.28 -3.59,-3.29 -7.35,-6.45 -10.3,-10.33 -2.41,-10.06 -1.11,-20.97 -4.81,-30.7 -6.02,-5.72 -15.02,-4.71 -22.6,-4.19 -10.53,1.85 -18.25,10.21 -25.34,17.59 -5.96,-0.14 -11.9,-0.4 -17.86,-0.52 0.21,1.42 0.61,4.31 0.78,5.76 4.11,1.33 8.19,2.75 12.33,4.05 -0.55,5.58 -1.24,11.14 -2.17,16.69 -9.66,-1.53 -20.83,1.94 -29.05,-4.71 -9.06,-6.28 -3.04,-18.78 -3.59,-27.87 -1.56,0.15 -4.63,0.47 -6.16,0.61 -1.85,5.09 -2.89,10.65 -5.96,15.19 -4.6,4.81 -11.78,4.75 -17.88,5.5 -3.45,-15.77 6.74,-29.22 9.81,-44.04 -2.87,0.26 -5.7,0.55 -8.57,0.87 -3.41,8.8 -7,17.56 -10.04,26.5 -7.78,-0.2 -17.56,-5.15 -17.82,-13.77 2.66,-9.61 13.42,-15.13 14.7,-25.49 -2.03,0.14 -6.14,0.46 -8.16,0.61 -4.66,6.16 -9.44,12.27 -14.18,18.37 -12.56,-2.92 -20.4,-13.74 -26.54,-24.19 -1.24,-3.47 -4.86,-3.33 -7.84,-3.82 -3.21,22.19 -11.25,43.58 -22.16,63.08 -5.64,3.65 -13.37,1.53 -19.82,2.03 0.09,-19.19 13.86,-34.93 15.42,-53.94 0.46,-12.44 0.52,-24.94 0.38,-37.38 -7.32,0.6 -7.9,8.85 -10.71,14.03 -10.27,-4.2 -16.75,-13.31 -21.64,-22.83 -5.88,3.82 -11.66,7.81 -17.83,11.2 -4.95,-8.65 -7.38,-18.43 -8.45,-28.27 -6.36,-0.12 -13.07,2.23 -19.18,0.26 -5.18,-8.33 -2.34,-18.49 -3.33,-27.66 -6.54,4.86 -12.38,10.62 -19.21,15.13 -2.23,-3.73 -5.79,-6.94 -6.45,-11.37 0.2,-7.03 3.64,-14.73 -1.97,-20.6 -9.72,9.05 -8.71,25.52 -0.23,34.95 5.64,3.3 12.5,3.53 18.81,4.74 3.12,4.58 5.26,10.54 10.76,12.85 4.4,1.13 9,1.16 13.54,1.59 1.3,6.4 4.08,13.37 1.68,19.8 -5.96,10.09 -15.51,17.59 -20.54,28.29 -10.71,22.92 -25.38,43.81 -41.32,63.34 -14.01,8.48 -32.15,9.09 -46.7,1.39 4.62,-8.3 12.12,-14.29 19.01,-20.6 15.3,-14.55 31.88,-27.75 46.44,-43.08 2.86,-2.61 2.95,-6.63 3.9,-10.1 -9.58,0.95 -14.96,9.63 -21.64,15.45 -18.52,17.16 -37.91,33.45 -55.01,52.05 -8.82,10.8 -26.96,12.01 -37.44,2.95 -4.34,-2.57 -9.58,-8.68 -4.8,-13.31 13.94,-13.6 31.13,-23.23 47.16,-34.08 11.52,-8.05 25.12,-13.31 34.67,-23.93 -3.94,-1.33 -8.39,-2.29 -12.04,0.32 -27.78,15.68 -53.91,34.2 -79.34,53.24 -11.02,1.53 -24.1,7.12 -34.26,0.23 -6.54,-6.11 -1.5,-15.28 -0.14,-22.51 28.7,-13.34 58.07,-25.2 87.61,-36.6 6.02,-2.29 11.75,-5.3 17.28,-8.6 -1.39,-1.01 -4.17,-3.01 -5.56,-4.02 -17.16,3.99 -32.84,12.56 -49.33,18.55 -21.59,8.07 -42.11,18.69 -63.49,27.08 -11.86,-2.81 -27.66,-0.78 -35.65,-11.63 -1.1,-5.47 -0.46,-11.08 -0.37,-16.61 42.27,-13.31 85.73,-22.74 127.49,-37.82 0.11,-1.73 0.34,-5.21 0.43,-6.94 -15.97,2.6 -31.05,8.74 -46.58,13.02 -25.79,7.41 -51.63,14.7 -77.52,21.61 -11,3.47 -23.06,-2.31 -30.59,-10.21 -5.41,-6.19 3.97,-12.3 8.89,-15.05 21.41,-9.81 44.96,-13.51 67.79,-18.6 36,-7.5 71.62,-16.58 107.06,-26.31 16.12,-4.31 31.34,-11.28 46.93,-17.18 5.33,-1.88 9.81,-5.44 14.07,-9.06 -13.14,-4.83 -24.45,6.16 -36.93,8.25 -6.27,-3.45 -9.54,-10.85 -11.63,-17.48 6.11,-2.55 12.27,-5.03 18.58,-7.09 0.03,-2.75 0.06,-5.47 0.09,-8.19 -10.74,0.67 -19.22,8.68 -29.66,9.87 -3.94,-2.29 -6.4,-6.34 -9.32,-9.69 6.08,-4.2 23.06,-7.73 15.19,-17.51 -8.68,4.34 -17.04,9.98 -26.73,11.75 -12.07,0.66 -24.77,-0.12 -35.31,-6.69 11.9,-4.71 24.57,-6.65 36.84,-10.01 0.14,-1.73 0.38,-5.18 0.52,-6.88 -15.54,1.21 -30.32,6.51 -45.6,9.2 -11.08,-0.73 -27.55,-5.5 -25.67,-19.65 13.66,-4.02 27.52,-7.12 41.55,-9.35 0.26,-1.56 0.81,-4.74 1.07,-6.33 -21.99,-1.74 -43.23,12.7 -64.96,4.19 -0.17,-3.06 -0.37,-6.1 -0.57,-9.14 10.5,-2.52 23.66,0.9 31.85,-7.44 -13.51,-3.79 -27.51,-0.52 -41.26,-1.44 -7.58,-1.45 -12.79,-7.53 -17.21,-13.31 11.08,-4.03 22.91,-3.48 34.46,-4.78 0.14,-4.31 -1.74,-6.62 -5.64,-6.97 -16.59,-0.52 -34.09,6.05 -49.95,-1.53 -10.93,-3.51 -20.86,-13.08 -18.25,-25.47 18.66,-0.84 37.35,6.22 55.81,0.55 0.09,-1.65 0.23,-4.92 0.29,-6.54 -18.63,0.67 -37.44,0.44 -55.79,-3.21 -7.81,-5.5 -15.91,-12.61 -16.23,-22.89 19.76,3.04 39.93,9.58 59.87,3.59 0.14,-1.68 0.43,-5.03 0.58,-6.68 -18.72,1.44 -37.74,0.78 -55.76,-4.92 -9.93,-2.11 -16.41,-10.39 -23.32,-17.04 -0.03,-1.42 -0.09,-4.29 -0.12,-5.71 21.61,-3.99 42.88,-10.5 65.13,-10.06 0.29,-4.6 -1.59,-7.12 -5.7,-7.5 -23.35,-2.05 -45.34,10.59 -68.57,8.6 -13.2,-5.5 -26.39,-12.56 -35.91,-23.5 30.73,-0.52 61.4,4.63 92.01,-0.06 0.09,-1.62 0.29,-4.86 0.38,-6.48 -32.38,1.48 -65.11,0.96 -97.11,-3.7 -10.24,-5.53 -18.75,-13.66 -27.02,-21.73 34.55,-2.46 68.02,7.87 101.91,12.61 7.92,0.87 17.7,5.27 23.49,-2.66 -9.92,-4.2 -20.72,-5.21 -31.25,-6.83 -27.34,-4.11 -54.34,-11.63 -82.14,-11.6 -8.57,-0.26 -17.86,0.2 -25.15,-5.12 -8.19,-5.85 -19.79,-10.36 -21.21,-21.67 20.26,1.18 39.87,7.03 59.98,9.54 26.36,3.22 52.58,8.94 79.2,8.68 1.62,-1.15 4.83,-3.47 6.42,-4.63 -8.97,-4.36 -19.04,-3.61 -28.7,-4.28 -39.44,-4.57 -78.53,-11.57 -117.59,-18.46 -9.93,-2.14 -18.64,-7.61 -27.26,-12.76 -7.18,-4.57 -15.62,-9.11 -17.71,-18.14 13.25,2.86 26.04,8.91 39.85,8.42 7.63,0 15.42,-0.12 22.88,1.94 27.03,7 53.94,14.52 81.31,20.28 11.89,3.01 24.07,4.78 36.37,4.52 -0.06,-1.54 -0.2,-4.58 -0.26,-6.08 -39.64,-6.51 -78.56,-16.7 -117.33,-27 -12.24,-2.49 -19.13,-14.2 -30.18,-19.04 -16.72,-7.64 -36.14,-12.15 -48.12,-27.31 -11.51,-13.95 -31.16,-26.1 -27.6,-46.88 12.15,5.27 22.36,13.86 33.74,20.49 46.15,27.63 95.39,49.83 145.94,68.14 9.64,3.16 19.82,8.94 30.13,4.83 -9.41,-8.79 -22.57,-10.44 -34.03,-15.13 -51.48,-19.36 -102,-42.04 -148.32,-71.85 -13.81,-9.05 -28.94,-17.65 -36.58,-33.04 -9.66,-11.54 -10.18,-27.54 -7.06,-41.64 9.26,7.01 17.54,15.17 26.39,22.66 43.75,38.95 95.63,67.53 149.07,90.83 11.49,4.8 22.55,11.89 35.42,12.06 -0.14,-1.5 -0.46,-4.54 -0.61,-6.07 -61.48,-25.58 -122.65,-54.98 -173.37,-98.85 -22.03,-20.37 -47.75,-39.64 -59.03,-68.4 -3.71,-9.95 -2.06,-20.8 -0.55,-31.02 8.22,8.25 16.14,16.93 25.78,23.61 26.21,17.6 49.56,38.92 74.19,58.63 38.42,30.7 77.46,61.34 121.09,84.49 5.96,3.44 12.5,5.84 19.47,6.28 -1.07,-4.26 -3.73,-7.61 -7.78,-9.32 -57.15,-30.09 -107.46,-71.15 -156.83,-112.38 -12.76,-11.14 -29.31,-19.97 -35.56,-36.7 -9.03,-20.94 -19.88,-43.43 -14.09,-66.86 8.94,13.16 16.32,27.51 27.46,39.06 16.67,17.1 33.45,34.84 54.75,46.18 14.93,7.7 27.86,18.52 41.08,28.7 25.81,20.63 52.32,40.42 79.43,59.32 7.09,4.74 14.09,10.13 22.45,12.35 1.16,-0.8 3.48,-2.4 4.63,-3.18 -5.52,-4.72 -11.34,-9 -17.42,-12.93 -34.31,-23.09 -66.78,-48.76 -99.45,-74.05 -6.8,-5.67 -16.58,-9.63 -18.72,-19.09 -4.86,-16.53 -9.52,-33.22 -11.17,-50.41 -1.04,-7.84 2.41,-15.13 4.95,-22.31 12.16,25.93 33.1,46.21 54.43,64.73 31.34,27.49 66.58,50.09 102.55,70.98 14.93,6.54 28.61,15.36 40.97,26.04 -3.27,3.93 -7.61,7.29 -9.44,12.18 -1.96,8.68 3.1,16.44 6.51,23.99 -4.16,1.62 -8.33,3.27 -12.47,5 -0.63,1.86 -1.85,5.56 -2.49,7.38 2.81,6.08 5.79,12.07 9,17.97 -5.55,2.2 -10.9,4.83 -16.08,7.75 2.17,6.75 6.25,12.94 7.35,20 -2.58,4.95 -8.48,8.82 -7.33,15.05 0.56,7.95 8.54,12.24 13.55,17.47 -1.22,4.78 -2.69,9.46 -3.45,14.35 2.43,10.05 11.75,16.09 18.12,23.62 -5.62,2.05 -11.14,4.19 -16.64,6.45 -2.29,12.47 8.91,18.98 18.34,23.84 -3.67,4.51 -9.72,8.71 -8.39,15.31 3.74,10.91 15.69,14.73 25.49,18.26 -3.32,4.48 -7.87,9.34 -5.96,15.45 5.7,5.55 13.54,7.69 20.87,10.21 -3.33,4.4 -8.45,9.38 -5.88,15.42 4.63,7.53 13.37,10.62 20.78,14.64 -3.42,5.01 -7.21,9.93 -8.8,15.89 2.52,11.26 14.9,14 24.28,17.27 1.07,8.69 6.31,15.6 13.25,20.61 -0.35,4.54 -0.64,9.08 -0.9,13.62 8.51,3.82 17.71,5.53 26.97,6.08 -2.23,5.06 -4.4,10.13 -6.6,15.22 5.1,11 17.57,9.98 27.69,10.59 3.97,4.17 5.91,9.92 10.16,13.86 6.16,3.65 13.69,3.56 20.51,5.15 2,6.63 4.14,14.85 11.81,16.9 9.55,2.05 19.91,1.94 29.2,-1.27 3.9,-0.58 5.12,-4.34 6.82,-7.32 -12.12,0.37 -24.21,2.57 -36.34,0.83 -0.32,-6.62 -0.43,-13.28 -0.66,-19.9 -9.84,1.18 -19.97,2.43 -29.17,-2.17 1.27,-5.12 2.75,-10.19 4.2,-15.25 -10.82,-0.73 -21.71,0.98 -32.5,-0.38 -0.2,-1.1 -0.63,-3.27 -0.84,-4.34 5.27,-6.31 11.92,-11.28 17.13,-17.68 -12.87,-1.53 -25.86,-1.91 -38.6,-4.51 5.99,-9.32 21.47,-7.64 24.25,-19.13 -11.34,-0.17 -22.65,2.84 -33.71,-0.95 -0.14,-1.45 -0.37,-4.37 -0.52,-5.82 4.98,-1.94 9.98,-3.82 15.02,-5.7 0.2,-1.47 0.61,-4.4 0.81,-5.84 -14.56,0.46 -30.04,1.33 -42.45,-7.67 0.55,-2.84 1.27,-5.61 2.14,-8.34 7.99,-3.99 17.07,-4.1 25.75,-5.38 -0.17,-1.7 -0.49,-5.12 -0.66,-6.8 -14.53,-3.24 -33.65,-3.58 -41.96,-17.99 13.22,-3.79 27.26,-2.75 40.45,-6.83 -15.48,-11.23 -38.19,-4.89 -53.76,-17.48 12.71,-6.77 27.61,-5.93 41.55,-7.12 -0.06,-1.53 -0.17,-4.66 -0.26,-6.22 -20.51,-4.28 -47.45,0.64 -61.54,-18.52 10.76,-11.72 27.72,-3.93 40.13,-11.8 -15.94,-8.45 -38.92,-3.07 -50.58,-19.97 16.06,-5.96 32.64,4 48.53,-0.58 -0.32,-1.21 -0.9,-3.64 -1.22,-4.86 -16.38,-3.61 -32.46,-10.73 -43.92,-23.32 -2.55,-3.07 -1.74,-7.49 -2.64,-11.14 13.55,-3.24 26.36,4.23 39.82,4.52 -0.17,-1.8 -0.49,-5.42 -0.64,-7.24 -15.39,-5.03 -32.67,-6.8 -45.34,-17.85 -3.79,-2.4 -4.28,-7 -5.55,-10.88 15.19,-2.32 29.19,4.17 43.4,8.13 1.56,-0.81 4.69,-2.4 6.25,-3.21 -12.7,-9.46 -28.71,-13.23 -41.09,-23.15 -3.65,-2.37 -4.54,-6.71 -5.7,-10.56 15.19,-1.36 28.76,5.96 42.85,10.13 -0.11,-1.83 -0.37,-5.44 -0.52,-7.24 -13.6,-8.27 -33.5,-14.7 -36.6,-32.43 13.08,-1.13 24.45,5.61 35.94,10.7 4.13,-7.35 -4.58,-11.14 -9.18,-14.9 -9.72,-6.68 -19.41,-15.34 -20.83,-27.81 3.7,-1.39 7.06,-5.29 11.34,-4.22 14.62,4.19 26.68,14.03 38.2,23.52 18.57,14.15 38.39,26.94 54.83,43.69 11.89,12.16 23.93,24.19 35.53,36.61 31.74,35.82 63.95,72.54 83.57,116.72 17.88,39.5 36.14,79.4 44.99,122.05 2.66,10.91 6.19,21.85 12.59,31.16 11.05,15.28 30.03,25.09 49.07,22.86 -2.17,-7.29 -10.73,-7.03 -16.55,-9.46 -11.52,-3.15 -21.9,-10.76 -27.49,-21.41 -7.38,-12.88 -9.72,-27.69 -13.19,-41.93 -6.51,-24.65 -16.35,-48.2 -26.07,-71.73 -11,-25.9 -22.23,-51.94 -37.85,-75.46 -19.73,-29.78 -43.23,-56.77 -67.33,-83.05 -17.83,-18.83 -35.24,-38.39 -56.31,-53.73 -17.79,-13.08 -35.47,-26.33 -53.18,-39.52 -17.45,-12.19 -35.56,-23.67 -50.67,-38.83 -15.28,-15.69 -34.4,-27.55 -46.93,-45.84 -16.46,-23.03 -34.58,-46.67 -39.67,-75.23 -0.75,-5.99 -2.34,-13.02 1.71,-18.2zm171.58 304.63l0 0c-4.08,11.02 8.02,16.35 15.31,21.38 -5.3,5.59 -13.63,12.42 -8.88,21.01 7.49,5.3 16.78,6.94 25.55,9.09 -2.44,3.55 -5.97,6.74 -6.72,11.16 -1.47,10.13 9.93,14.36 16.38,19.68 -7.18,5.64 -18.89,11.92 -15.22,22.89 3.91,7.23 12.59,9 19.59,11.92 -0.26,6.05 -1.33,12.35 0.75,18.23 5.38,5.32 12.65,7.9 19.5,10.73 -2.31,6.02 -8.33,12.88 -3.79,19.24 3.33,7.35 11.95,8.92 18.69,11.64 -0.31,6.39 -1.73,12.96 0.03,19.27 4.17,5.21 11.06,6.68 16.87,9.32 1.94,4.65 2.61,10.27 6.63,13.77 5.12,2.86 10.91,4.16 16.49,5.87 1.94,5.59 1.51,13.14 7.21,16.52 4.83,2.43 10.18,3.53 15.39,4.89 2.49,8.92 6.89,18.09 16.26,21.33 11.66,3.41 26.68,3.64 35.04,-6.83 -11.05,-4.2 -22.68,5.12 -33.27,-1.24 -10.39,-4.08 -5.24,-17.02 -6.22,-25.41 -7.56,1.62 -15.17,2.81 -22.89,2.66 -1.48,-8.39 2.17,-16.11 5.18,-23.7 -9.67,0.87 -19.36,1.6 -29.05,0.61 1.41,-6.36 4.02,-12.35 6.71,-18.26 -9.03,0.76 -18.23,1.16 -26.91,-1.88 0.14,-3.01 0.43,-6.01 0.87,-8.97 6.45,-8.65 20.74,-7.43 24.94,-17.96 -13.77,0 -27.6,2.43 -41.32,0.05 -1.3,-3.21 -2.63,-6.39 -3.96,-9.57 5.21,-5.04 10.96,-9.49 17.16,-13.29 0.29,-1.33 0.86,-3.99 1.18,-5.32 -10.13,-0.78 -21.44,0.58 -30.24,-5.44 -4.08,-1.74 -4.48,-8.04 -1.56,-10.79 6.25,-3.16 13.14,-4.72 19.79,-6.77 0.15,-1.56 0.47,-4.72 0.64,-6.31 -14.32,-0.78 -32.93,3.76 -42.77,-9.64 7.87,-10.64 21.88,-9.92 33.51,-12.61 -0.03,-1.54 -0.14,-4.6 -0.2,-6.14 -11.34,-2.74 -22.31,-6.85 -32.61,-12.35 0.23,-2.49 0.61,-4.95 1.07,-7.41 8.45,-6.19 19.01,-8.01 28.67,-11.52 0,-1.53 -0.02,-4.6 -0.05,-6.16 -17.16,0 -34.9,0.9 -50.99,-6.19 6.86,-11.6 22.48,-10.1 33.86,-13.66 0.05,-1.68 0.17,-5 0.23,-6.68 -13.57,-2.14 -27.92,-2.84 -39.76,-10.59 3.01,-5.24 6.48,-10.16 10.01,-15.08 -6.74,-5.06 -13.63,3.22 -17.1,8.51zm510.91 282.41l0 0c-0.87,2.28 -1.74,4.6 -2.61,6.88 10.94,5.44 21.36,12.13 33.13,15.77 -0.14,-1.82 -0.37,-5.47 -0.49,-7.29 -9.23,-6.54 -19.21,-12.04 -30.03,-15.36zm-14.32 14.18l0 0c0.23,1.76 0.72,5.26 0.95,7.03 7.06,4.83 14.38,9.95 23.35,9.8 -0.2,-1.56 -0.58,-4.71 -0.78,-6.3 -7.41,-4.43 -15.08,-8.54 -23.52,-10.53zm-25.96 52.63l0 0c0.38,1.47 1.1,4.48 1.48,5.96 10.44,2.72 20.8,5.87 31.54,7.26 -0.06,-1.79 -0.15,-5.41 -0.21,-7.2 -10.41,-4.26 -21.58,-6.11 -32.81,-6.02zm9.03 20.57l0 0c0,1.62 0,4.83 0,6.45 10.97,2.14 22.13,3.42 33.33,3.79 -0.35,-1.62 -1.07,-4.89 -1.42,-6.54 -10.41,-2.83 -21.15,-4.08 -31.91,-3.7zm-251.39 14.93l0 0c-2.34,9.55 -3.1,19.5 -0.11,28.99 1.73,0.21 5.17,0.64 6.88,0.84 -0.58,-10.01 -0.43,-19.99 -0.37,-30 -1.6,0.06 -4.81,0.14 -6.4,0.17zm64.85 8.16l0 0c-0.76,6.8 -2.12,14.35 2.51,20.2 4.46,7.46 14.56,6.16 20.95,10.96 8.39,6.37 19.88,8.37 25.23,18.38 3.07,0.08 6.14,0.17 9.23,0.26 -5.55,-8.94 -10.41,-18.26 -13.86,-28.24 -4.05,1.96 -7.23,9.03 -12.21,7.06 -2.11,-5.79 -3.56,-11.78 -5.09,-17.68 -5.24,2.52 -9.81,8.01 -16.06,7 -2.29,-5.7 -2.95,-11.8 -3.5,-17.85 -1.8,-0.03 -5.41,-0.09 -7.2,-0.09zm-36.67 2.87l0 0c-0.58,12 3.59,30.46 19.39,27.6 -5.32,-8.54 -9.95,-17.48 -12.9,-27.11 -1.63,-0.12 -4.87,-0.38 -6.49,-0.49zm592.62 -449.42l0 0c-12.67,1.7 -27.69,1.07 -36.45,12.12 3.5,2 7.49,2.14 11.25,0.69 18.49,-5.96 38.17,-6.3 57.41,-6.22 -15.05,17.86 -38.77,23.61 -61.2,23.67 -8.85,0.67 -19.13,-2.17 -26.24,4.66 22.13,10.45 46.18,-2.08 69.15,-1.59 -3.3,5.84 -7.58,12.56 -14.67,13.94 -12.35,2.09 -24.48,5.21 -36.69,7.79 -13.19,2.86 -26.73,1.24 -39.99,0.11 0.15,1.77 0.44,5.27 0.58,7.01 30.7,8.94 60.33,-6.46 90.51,-9.41 -0.06,1.88 -0.2,5.65 -0.26,7.5 -15.31,11.66 -35.33,14.03 -53.93,15.59 -15.14,-1.33 -30.45,-2.51 -45.43,0.73 0,1.5 -0.06,4.54 -0.06,6.04 23.84,2.35 48.47,0.58 71.64,7.47 -30.15,5.53 -60.99,5.12 -91.52,6.48 0,1.59 -0.03,4.75 -0.06,6.31 19.97,3.07 40.4,3.3 59.9,9.06 -16.12,4.22 -33.02,2.48 -49.48,3 -9.61,0.58 -20.28,-2.43 -28.68,3.71 13.02,8.53 30.53,4.08 44.3,11.63 -10.18,5.18 -21.87,4.28 -32.92,3.79 -9.46,-0.17 -19.77,-4.54 -28.27,1.53 5.47,3.88 11.19,7.44 16.84,11.12 -16.21,0.89 -32.32,-2.09 -48.47,-0.76 2.78,4.83 5.59,9.67 7.78,14.82 -15.33,9.55 -33.36,4.66 -50,2.95 -0.34,5.61 -0.11,11.28 -1.15,16.84 -17.89,14.67 -42.68,6.77 -63.6,11.17 0.06,1.59 0.17,4.77 0.23,6.36 20.34,0 41.72,2.32 60.97,-5.84 7.87,-2.4 11.19,-10.21 12.73,-17.62 13.31,-0.64 27.54,1.91 39.81,-4.6 6.31,-2.69 8.74,-9.52 11.78,-15.11 12.73,0 25.58,1.54 38.22,-0.52 2.29,-3.5 3.7,-7.46 5.3,-11.34 14,-1.13 28.79,-0.67 41.89,-6.45 1.51,-4.4 0.9,-9.12 0.87,-13.66 10.88,-0.75 21.96,-1.24 32.5,-4.2 3.24,-1.36 9.63,-4.19 7.26,-8.68 -4.14,-3.99 -9.81,-5.52 -15.05,-7.52 12.76,-1.45 25.44,-3.76 37.99,-6.57 1.22,-2.86 2.44,-5.7 3.68,-8.56 -3.13,-2.49 -6.25,-4.98 -9.38,-7.41 13.31,-4.05 29.23,-8.07 35.39,-22.16 -1.27,-4.4 -3.38,-8.45 -5.41,-12.5 2.78,-6.57 4.57,-13.49 6.54,-20.29 6.11,-7.61 16.32,-13.34 14.5,-24.68 -12.99,-4.48 -26.85,-1.62 -40.11,-0.4z"/>
  </g>
 </g>
</svg>
