<?xml version="1.0" encoding="UTF-8"?>
<!DOCTYPE svg PUBLIC "-//W3C//DTD SVG 1.1//EN" "http://www.w3.org/Graphics/SVG/1.1/DTD/svg11.dtd">
<!-- Creator: CorelDRAW -->
<svg xmlns="http://www.w3.org/2000/svg" xml:space="preserve" width="2000px" height="1600px" version="1.1" style="shape-rendering:geometricPrecision; text-rendering:geometricPrecision; image-rendering:optimizeQuality; fill-rule:evenodd; clip-rule:evenodd"
viewBox="0 0 2000 1600"
 xmlns:xlink="http://www.w3.org/1999/xlink">
 <defs>
  <style type="text/css">
   <![CDATA[
    .fil0 {fill:black;fill-rule:nonzero}
    .fil4 {fill:#6A533A;fill-rule:nonzero}
    .fil3 {fill:#8A663C;fill-rule:nonzero}
    .fil2 {fill:#DF1A1D;fill-rule:nonzero}
    .fil1 {fill:#FEFEFE;fill-rule:nonzero}
   ]]>
  </style>
 </defs>
 <g id="Capa_x0020_1">
  <metadata id="CorelCorpID_0Corel-Layer"/>
  <g id="Cornell_x0020_Big_x0020_Red.cdr">
   <path class="fil0" d="M708.56 85.03c2.81,-2.6 5.97,-5.53 10.17,-4.96 196.05,-0.02 392.13,0.05 588.21,-0.02 3.41,-0.23 6.85,0.55 9.2,3.23 63.46,59.58 126.86,119.22 190.34,178.8 4.68,4.61 10.19,8.56 13.84,14.09 1.29,15.69 0.11,31.53 0.5,47.26 0.03,68.28 -0.02,136.53 0.03,204.78 -0.88,0.97 -2.61,2.93 -3.49,3.89 -32.33,0.14 -64.69,-0.02 -97.03,0.07 -8.97,12.9 -21.77,22.56 -36.08,28.84 11.26,18.33 17.44,40.45 12.37,61.81 54.22,25.72 103.54,61.4 145.7,104.05 54.85,55.31 97.98,121.48 130.87,191.9 6.05,14.21 11.01,28.88 16.59,43.29l0 5.56c-9.14,-2.3 -18.06,-5.28 -27.01,-8.16 9.36,45.14 17.83,90.67 20.46,136.75 2.44,50.24 -8.88,101.72 -35.59,144.62 -20.81,32.27 -49.52,58.59 -80.02,81.51 -41.17,30.59 -86.47,55.18 -132.88,76.86 -36.83,16.79 -75.07,30.81 -114.51,40.11 -5.7,1.24 -10.98,3.73 -16.1,6.41 -34.51,17.46 -69.06,35.29 -105.87,47.49 -47.61,15.27 -96.99,27.91 -147.34,26.71 -36.72,-0.78 -74.53,-10.61 -103.34,-34.25 -15.75,-1.59 -31.2,-6.94 -43.94,-16.45 -3.69,-1.84 -4.7,-5.37 -3.85,-9.2 12.55,1.41 24.98,3.94 37.62,4.54 -6.41,-8.28 -17.25,-11.04 -24.72,-18.22 -6.14,-4.17 -10.15,-12.2 -18.2,-12.89 -18.48,-3.21 -36.28,-10.27 -51.53,-21.22 0.35,-1.41 1.08,-4.22 1.45,-5.63 12.41,1.55 24.8,3.32 37.23,4.84 -0.81,-3.85 -1.57,-7.68 -2.38,-11.5 -58.12,0.06 -116.24,0.09 -174.35,0.02 -5.99,0.34 -9.54,-5.42 -13.72,-8.79 -63.91,-63.75 -128.43,-126.93 -192.5,-190.54 -5.15,-5.86 -14.56,-10.34 -14.1,-19.19 0.03,-33.82 0.03,-67.63 0,-101.42 -34.2,-17.25 -67.55,-38.31 -92.05,-68.3 -9.04,-10.63 -15.31,-23.18 -23.06,-34.69 -12.41,-18.98 -24.87,-37.94 -37.32,-56.92 -19.19,-28.03 -15.13,-64.77 -3.35,-94.89 -6.06,1.57 -12.43,4.47 -18.59,1.59 3.88,-28.14 15.55,-54.66 31.05,-78.26 17.76,-26.89 40.13,-50.44 64.23,-71.71 30.96,-27.54 64.49,-52.24 100.43,-72.86 0.02,-108.16 0.05,-216.33 0,-324.48 0.11,-3.23 -0.19,-7.09 2.86,-9.14 66.52,-61.84 133.25,-123.49 199.77,-185.33z"/>
   <path class="fil1" d="M540.57 289.57c62.42,-58.28 125.29,-116.04 187.73,-174.3 190.45,-0.02 380.88,-0.02 571.33,0 62.23,58.12 124.94,115.74 187.2,173.82 -0.07,68.34 0,136.66 -0.03,205 -21.7,0 -43.41,0 -65.11,0 0.44,-3.85 0.9,-7.7 1.38,-11.55 17.58,0.02 35.18,0.02 52.78,0.02 0.02,-62.39 -0.05,-124.76 0.04,-187.15 -60.01,-56.39 -120.24,-112.58 -180.11,-169.11 -187.85,-0.19 -375.69,-0.12 -563.53,-0.03 -59.97,56.03 -120.15,111.82 -180.12,167.82 -0.14,159.45 0.05,318.93 -0.09,478.38l0 0.25c-3.83,0.81 -7.61,1.64 -11.42,2.52 -0.14,-161.9 -0.02,-323.77 -0.05,-485.67zm-20.75 797.16c3.82,0.44 7.65,0.9 11.5,1.36l0 1.25c0,24.45 0,48.9 -0.02,73.35 62.97,62.11 126.1,124.04 188.72,186.5 35.75,0.21 71.5,-0.14 107.25,0.14 7.59,2.51 14.03,8 20.99,11.97 -44.44,0.12 -88.87,0.02 -133.31,0.05 -49.09,-49.59 -99.09,-98.21 -148.24,-147.74 -15.37,-15.73 -31.63,-30.51 -46.92,-46.31 0.03,-26.85 0,-53.72 0.03,-80.57zm577.04 -248.62c2.17,-4.1 4.45,-8.95 9.41,-10.15 2.22,10.54 3.49,21.27 6.39,31.67 2.95,-0.76 5.81,-1.75 8.61,-2.95 4.82,0.05 8.28,3.04 11.16,6.62 4.7,-5.86 12.08,-1.82 15.59,3.11 4.43,-3.62 10.33,-2.3 13.54,2.19 3.51,-0.32 7.03,-0.46 10.59,-0.09 0.55,1.76 1.68,5.24 2.23,6.99 8.75,-7.38 14.28,-17.71 22.56,-25.56 1.48,2.84 1.78,5.79 0.88,8.89 -2.58,12.2 -8.37,24.01 -17.42,32.7 -4.43,2.88 -10.01,-0.05 -10.58,-5.23 -4.27,3.02 -8.74,1.63 -11.42,-2.63 -5.21,2.67 -12.71,1.49 -13.93,-5.12 -2.72,1.61 -5.54,3.04 -8.35,4.45 -2.42,-2.33 -4.8,-4.69 -7.15,-7.06 -5.21,3.8 -13.84,4.27 -17.32,-2.05 -5.29,4.84 -14.67,4.4 -18.04,-2.45 -2.49,-11.02 -1.55,-23.04 3.25,-33.33zm-247.21 -12.68c4.24,4.17 8.46,8.39 12.66,12.64 -0.02,87.92 0,175.87 0,263.79 100.15,0 200.28,0.03 300.43,0 0,-36.9 0,-73.81 0,-110.71 65.82,0 131.65,0 197.48,0 1.68,3.83 3.39,7.66 5.14,11.49 -63.13,0.09 -126.23,0.02 -189.34,0.02 -0.07,36.9 0,73.81 -0.05,110.71 -108.77,0.03 -217.55,0.03 -326.32,0 -0.05,-93.78 0,-187.59 -0.02,-281.37 0,-1.64 0,-4.94 0.02,-6.57zm278.51 -88.32c28.21,5.53 57.57,14.14 86.33,7.56 6.72,5.19 14.01,9.71 20.42,15.32 5.26,7.01 0.53,16.24 -4.89,21.61 -4.8,4.98 -8.33,11.56 -14.79,14.58 0.23,-9.76 3.26,-19.19 3.49,-28.97 -2.87,1.8 -5.1,4.98 -8.56,5.51 -4.38,-0.76 -6.16,-4.93 -8.19,-8.28 -4.41,4.87 -15.27,6.51 -14.99,-2.6 -3.28,-0.26 -6.32,0.9 -9.23,2.16 -3.37,-1.13 -7.33,-2 -7.01,-6.66 -4.77,1.2 -10.22,4.31 -14.76,0.83 -1.69,-3.28 -2.98,-6.69 -4.45,-10.04 -5.82,6.07 -10.71,12.9 -15.67,19.66 -2.99,0.32 -5.97,0.64 -8.94,0.96 -1.5,-10.54 -1.07,-21.24 1.24,-31.64zm70.12 -90.39c8.67,-7.75 21.77,-3.85 31.11,0.67 13.96,7.45 29.34,13.7 45.49,12.38 5.37,-0.97 9.18,3.44 10.17,8.28 -19.49,-2.65 -41.31,-0.16 -57.73,-13.05 -8.07,-6.88 -19.15,-6.74 -29.04,-8.28zm81.54 -48.72c4.42,9.32 8.62,-4.22 14.37,-4.54 -0.42,3.64 -0.86,7.31 -1.3,10.95 -2.79,1.99 -5.39,5.77 -9.29,4.78 -5.08,-0.18 -7.13,-5.63 -10.22,-8.7 2.12,-0.85 4.27,-1.68 6.44,-2.49zm-199.03 -50.28c2.97,2.03 5.95,4.08 8.9,6.16 -2.77,3.92 -1.98,8.51 0.67,12.22 3.78,-0.2 7.12,-1.68 9.71,-4.52 2.63,2.29 5.28,4.57 7.93,6.88 -5.1,7.47 -16.1,8.81 -23.82,5.19 -7.66,-6.02 -7.55,-17.83 -3.39,-25.93zm-178.85 -229.08c91.34,0.39 182.7,0.04 274.06,0.16 -0.03,25.28 0.02,50.53 -0.03,75.81 -4.45,-2.65 -8.85,-5.32 -13.26,-7.98 0.07,-18.96 0.03,-37.92 0.03,-56.88 -80.22,0 -160.45,0.03 -240.67,-0.02 -6.09,-4.73 -12.98,-8.26 -20.13,-11.09z"/>
   <path class="fil2" d="M732.25 126.27c187.84,-0.09 375.68,-0.16 563.53,0.03 59.87,56.53 120.1,112.72 180.11,169.11 -0.09,62.39 -0.02,124.76 -0.04,187.15 -17.6,0 -35.2,0 -52.78,-0.02 0.95,-22.05 -5.14,-44.98 -20.23,-61.56 -13.76,-14.9 -32.36,-25.44 -52.15,-29.71 -25.21,-4.91 -49.96,6.53 -69.63,21.36 -6.04,4.38 -10.54,10.4 -14.6,16.56 -18.64,-16.19 -43.71,-22.84 -68.02,-22.67 -9.25,0.78 -15.22,-7.59 -22.47,-11.91 0.05,-25.28 0,-50.53 0.03,-75.81 -91.36,-0.12 -182.72,0.23 -274.06,-0.16 -20.83,-5.59 -43.83,-7.18 -63.89,2.1 -27.47,12.31 -45.21,38.68 -57.27,65.25 -9.85,21.98 -11.05,47.49 -2.89,70.21 7.52,20.23 17.42,41.31 36.05,53.58 -23.59,26.38 -39.62,59.62 -44.17,94.82 -4.08,28.37 -1.03,57.29 5.42,85.06 4.64,-1.68 9.3,-3.32 13.96,-4.98 -0.83,16.49 -0.67,33.03 -1.85,49.5 -1.45,15.87 3.62,31.44 9.99,45.76 9.8,23.97 28.35,43.23 49.5,57.67 0.71,-1.41 2.12,-4.2 2.84,-5.61 0.02,93.78 -0.03,187.59 0.02,281.37 108.77,0.03 217.55,0.03 326.32,0 0.05,-36.9 -0.02,-73.81 0.05,-110.71 63.11,0 126.21,0.07 189.34,-0.02 12.9,31.6 21.55,66.91 13.38,100.84 -6.23,27.08 -24.29,50.19 -46.68,66.06 -13.45,9.75 -28.23,17.53 -43.55,23.89 -0.05,-4.5 -0.09,-8.97 -0.11,-13.45 -26.69,14.84 -55.66,25.77 -85.65,31.56 -67.65,-11.19 -135.97,-23.71 -204.86,-20.28 -26.27,1.85 -54.04,5.24 -76.32,20.44 -10.36,7.08 -17.79,17.9 -20.83,30.05 -13.84,-0.53 -26.74,-5.86 -39.33,-11.11 -2.14,4.56 -1.11,9.68 2.01,13.56 8.12,10.72 21.66,14.78 34.04,18.22 -11.81,9.3 -19.09,23.23 -21.56,37.94 -15.39,-0.25 -31,-2.65 -44.63,-10.1 -0.79,6.67 5.55,11.37 9.57,15.87 8.85,8.35 20.13,13.47 31.55,17.39 -3.46,8.03 -6,16.49 -6.46,25.28 -12.27,-1.34 -24.56,-2.51 -36.83,-3.76 -0.46,1.08 -1.36,3.23 -1.83,4.29 -35.75,-0.28 -71.5,0.07 -107.25,-0.14 -62.62,-62.46 -125.75,-124.39 -188.72,-186.5 0.02,-24.45 0.02,-48.9 0.02,-73.35 37.14,6.76 77.46,10.47 112.91,-5.28 20.62,-8.93 36.1,-26.71 45,-47.06 17.21,-1.26 36.49,-3.16 49.68,-15.45 0.23,-0.88 0.69,-2.65 0.92,-3.53 -15.4,-0.92 -30.88,-1.13 -46.31,-1.5 10.66,-9.22 19.93,-21.03 21.68,-35.47 16.22,-0.95 33.86,-4.25 45.37,-16.75 -0.95,-0.58 -2.84,-1.73 -3.78,-2.33 -14.37,-1.2 -28.86,-0.97 -43.27,-1.43 6.89,-9.75 12.29,-20.76 13.1,-32.84 16.05,-1.57 35.15,-4.34 44.74,-18.94 -14.9,1.64 -29.98,1.52 -44.86,-0.39 -2.21,-5.58 -5.26,-10.98 -6.18,-16.95 1.96,-7.29 4.2,-14.53 4.89,-22.1 18.11,-6.81 40.3,-14.65 47.24,-34.62 -6.37,0.85 -11.79,4.57 -17.88,6.3 -12.11,3.52 -24.7,5.25 -37.25,6.15 -3.32,-4.66 -6.62,-9.29 -9.87,-13.97 1.29,-5.42 2.56,-10.84 3.85,-16.27 14.4,-7.26 29.39,-15.24 38.98,-28.67 -0.2,-1.1 -0.67,-3.29 -0.87,-4.38 -13.43,7.85 -28.51,12.64 -44.04,13.75 -4.26,-19.88 -22.39,-33.15 -41.74,-36.17 -37.46,-6.43 -75.17,2.93 -111.59,11.03 0.14,-159.45 -0.05,-318.93 0.09,-478.38 59.97,-56 120.15,-111.79 180.12,-167.82z"/>
   <path class="fil3" d="M1509.61 807.25c6.05,3.23 11.93,6.85 17.35,11.12 31.78,24.31 59.9,54.32 78.54,89.98 19.72,39 35.36,80.36 43.89,123.3 9.2,47.17 8.58,97.22 -8.12,142.68 -14.67,41.8 -42.48,77.8 -75.35,107 -39.84,34.69 -86.43,61.22 -135.21,81.15 8.69,-9.25 20.5,-14.37 30.38,-22.15 13.28,-10.35 27.37,-20.45 36.76,-34.73 12.64,-18.87 25.19,-37.83 38.38,-56.33 3.83,-5.3 6.37,-11.48 7.24,-17.97 5.03,-35.01 3.35,-70.76 -2.67,-105.54 -5.17,17.51 -8.42,35.59 -15.39,52.54 -14.48,36.05 -35.12,69.98 -62.04,98.12 4.91,-13.84 11.88,-27.03 14.81,-41.54 2.74,-11.6 2.76,-23.59 1.4,-35.38 -11.99,20.55 -22.85,41.75 -34.5,62.48 -8.97,15.82 -16.29,33.47 -30.82,45.19 -6.55,5.58 -14.34,9.31 -22.16,12.73 2.72,-10.08 5.81,-20.09 7.61,-30.38 -14.88,18.02 -25.24,39.44 -41.2,56.58 -15.5,15.32 -35.19,26.41 -56.18,32.22 0.34,-19.03 3.27,-37.87 3.96,-56.88 -9.29,12.99 -17.02,27.13 -27.95,38.91 -27.13,29.83 -63.41,50.1 -101.42,62.6 -40.16,13.75 -82.5,19.77 -124.69,22.89 -12.48,1.06 -25.53,-1.44 -36.05,-8.47 -6,-3.92 -8.56,-11.46 -8.35,-18.36 0.85,-5.1 4.66,-9 7.38,-13.19 -17.07,-1.2 -35.01,-6.76 -46.45,-20.14 -6.51,-8.58 -1.22,-19.4 2.51,-27.95 -10.7,-5.03 -25.05,-10.5 -26.69,-23.95 -0.85,-11.99 11.58,-17.64 19.86,-23.38 -7.12,-6.81 -13.56,-16.57 -10.03,-26.78 4.31,-11.86 17.67,-15.25 28.58,-18.11 -4.52,-8.81 -10.47,-19.72 -4.22,-29.25 5.88,-7.88 15.96,-11 22.95,-17.78 49.66,-2.12 99.59,1.34 148.63,9.34 17.97,2.7 35.27,8.37 52.43,13.93 21.96,-6.43 43.59,-14 65.48,-20.71 -0.9,3.74 -1.75,7.54 -2.63,11.3 43.27,-9.48 87.83,-25.78 117.98,-59.71 24.15,-26.87 34,-63.99 32.17,-99.53 -2.42,-48.9 -19.65,-95.65 -40.45,-139.47 3.83,-4.94 7.56,-9.95 11.44,-14.84 20.37,18.09 30.91,44.82 35.15,71.21 3.02,16.4 1.34,33.14 2.56,49.73 19.31,-30.77 16.84,-69.32 9.55,-103.43 29.89,37.44 41.26,87.42 36.03,134.56 -1.5,19.15 -7.73,37.39 -11.24,56.14 31.63,-30.37 51.65,-74.15 49.57,-118.39 -0.69,-27.61 -10.61,-53.7 -21.54,-78.65 21.63,16.81 35.5,41.15 47.95,65.04 1.89,-23.71 -0.74,-47.84 -8.02,-70.49 -9.6,-28.07 -26.74,-53.55 -49.55,-72.56 -10.1,-8.97 -21.93,-15.59 -32.5,-23.92 21.61,4.62 41.45,15.04 60.25,26.32 27.93,16.61 50.65,40.2 71.85,64.47 -5.01,-18.94 -13.31,-36.86 -22.72,-53.97 -11.7,-21.48 -28.16,-39.63 -44.5,-57.6zm-1079.66 -108.43c24.75,-21.63 51.44,-40.99 78.91,-58.98 0,5.77 -0.02,11.56 -0.16,17.35 -25.95,27.63 -49.22,57.8 -70.03,89.49 22.19,-19.67 45.51,-38.06 70.14,-54.59 0,4.56 0.03,9.13 0,13.7 -15.57,17.25 -29.68,35.84 -41.65,55.77 -6.9,11.55 -14.6,22.76 -19.17,35.52 21.11,-16.47 39.3,-36.38 60.82,-52.38 0.03,4.01 0.03,8.02 0.05,12.06 -9.83,8.9 -21.31,16.52 -27.86,28.39 9.68,-4.84 18.73,-10.81 27.81,-16.67 0.03,5.47 0.03,10.93 0.05,16.4 -21.61,11.83 -41.68,26.25 -60.78,41.79 28.69,-9.8 57.39,-19.77 86.68,-27.65 30.01,-8.1 60.59,-15.27 91.8,-16.06 14.05,0.16 29.32,1.23 40.9,10.15 -19.73,-4.75 -40,-8.09 -60.3,-5.03 11.03,5.86 25.42,10.13 29.3,23.6 4.03,10.31 -4.94,18.82 -10.45,26.43 10.19,5.54 23.5,11.65 23.92,25.12 2.16,10.49 -7.18,17.41 -13.7,23.87 9.2,5.52 19.99,12.48 20.04,24.57 1.68,14.81 -12.89,22.97 -24.27,28.37 4.82,6.92 9.92,14.92 7.41,23.75 -2.86,13.77 -16.79,20.23 -28.51,25.1 3.07,9.73 10.84,22.51 1.78,31.28 -13.29,9.29 -29.87,13.51 -46.02,13.05 -28.23,0.05 -55.86,-8.03 -81.28,-19.9 -9.07,-3.97 -17.83,-8.65 -25.65,-14.77 9,-2 17.99,-4.15 26.76,-7.08 -21.52,-3.53 -42.56,-11.48 -59.21,-25.9 -12.8,-9.99 -21.89,-23.57 -32.16,-35.94 2.1,9.07 4.34,18.16 4.73,27.5 -4.63,-6.57 -7.91,-14.05 -13.05,-20.3 -8.44,-9.94 -17.62,-19.26 -25.79,-29.43 -7.93,-13.86 -8.81,-30.63 -7.43,-46.22 3.74,-30.29 19.7,-57.25 36.89,-81.84 -11.08,2.56 -22.01,5.7 -33.08,8.33 17.34,-34.53 43.89,-63.36 72.56,-88.85zm378.46 -308.73c17.02,-33 58.42,-51.41 94.22,-40.68 30.51,7.86 54.53,35.05 58.26,66.4 28.93,-19.79 65.32,-22.88 99.39,-22 -1.48,-2.54 -2.95,-5.08 -4.41,-7.59 42.21,-1.48 86.5,6.76 120.91,32.52 22.14,16.01 38.5,38.52 51.37,62.34 0.32,-16.12 -6.78,-31.06 -15.73,-44.05 37.27,2.79 69.93,25.53 94.5,52.43 13.72,16.17 26.89,33.51 33.93,53.76 6.04,14.81 11.92,29.66 18.03,44.45 3,6.85 4.2,14.37 4.11,21.84 0.67,22.93 -13.17,43.78 -10.91,66.89 2.19,15.64 0.67,32.48 -7.68,46.2 -15.62,31.28 -39.26,57.96 -52.66,90.46 -1.57,-2.9 -3.14,-5.81 -4.68,-8.69 -6.99,10.82 -14.21,21.56 -19.22,33.49 -6.73,16.05 -15.93,31 -26.2,45.02 -12.59,16.52 -28.18,31.53 -47.72,39.37 1.59,-6.75 3.18,-13.51 4.68,-20.27 -6.43,11.07 -14.53,21.17 -24.12,29.68 -7.31,6.32 -17.56,7.11 -26.81,7.43 -26.98,-0.25 -53.71,-8.21 -77.01,-21.73 -7.89,-4.26 -10.45,-13.63 -11.65,-21.84 -2.49,-18.27 -2.77,-37.99 -13.01,-54.02 -0.41,18.59 -0.55,37.6 -6.39,55.47 -5.05,-11.37 -9.61,-23.18 -17.07,-33.23 -9.38,-12.62 -25.09,-17.67 -36.39,-28.14 -14.23,-12.37 -22.84,-29.48 -31,-46.13 -2.17,8.21 -4.66,16.3 -7.64,24.24 -26.27,-38.84 -38.28,-86.2 -39.12,-132.76 -1.08,-39.88 6.46,-80.23 23.9,-116.21 5.67,-12.15 12.83,-23.52 19.24,-35.29 -6.97,-0.48 -13.96,-0.99 -20.9,-1.61 10.89,-14.46 29.64,-18.15 46.59,-20 -2.79,9.57 -4.8,19.4 -5.1,29.41 6.37,-2.54 12.81,-4.91 19.33,-7.01 -7.05,13.88 -14.44,29.8 -8.16,45.46 8.33,20.23 26.69,34.64 45.3,45.09 -13.86,-18.13 -29.16,-38.06 -27.98,-62.23 0,-22.21 14.88,-39.76 28.07,-56.05 -10.54,0.23 -20.85,2.42 -30.98,5.24 2.89,-9.11 6.19,-18.08 9.44,-27.06 -31.6,-2.83 -65.02,4.52 -89.7,25.24 -15.87,13.4 -29.92,30.17 -37.21,49.82 4.62,-1.2 9.23,-2.45 13.84,-3.67 -6.69,17.97 -13.31,36.05 -16.63,55.01 -7.19,38.29 -4.4,77.89 4.64,115.6 3.53,15.5 10.98,29.71 14.94,45.07 -12.01,-7.08 -19.53,-19.23 -26.59,-30.84 -18.59,-31.2 -24.13,-68.87 -20.02,-104.64 1.2,-11.7 3.64,-23.23 5.05,-34.9 -8.03,4.29 -15.96,8.74 -24.08,12.87 -5.86,-29.45 0.83,-60.13 13.89,-86.77 3.53,-6.85 6.64,-13.91 9.91,-20.9 4.36,-4.36 8.79,-8.67 12.37,-13.7 -7.61,3.02 -14.88,6.85 -21.8,11.21 -20.14,-9.89 -36.07,-27.88 -41.89,-49.7 -4.77,-19.8 -5.12,-41.87 4.55,-60.3zm28.94 -16.56l0 0c5.19,2.05 10.43,3.99 15.67,5.98 -6.21,4.35 -12.74,8.51 -17.53,14.48 -11.19,12.92 -11.03,31 -9.32,47.01 0.92,15.87 8.81,31.81 23.2,39.46 11.56,-11.11 25.56,-19.14 40,-25.92 -3.69,5.88 -6.81,12.08 -9.28,18.59 20.9,-14.03 40.51,-29.94 62.14,-42.84 -1.52,0.03 -4.57,0.05 -6.09,0.07 2.77,-24.97 -15.89,-45.92 -35.89,-57.96 -19.42,-11.02 -43.29,-7.42 -62.9,1.13zm298.35 79.81l0 0c3.72,3.87 7.68,7.47 11.65,11.09 11.53,10.52 18.96,24.52 26.39,38.04 3.18,5.6 5.56,11.62 6.99,17.92 -15.41,-13.89 -23.07,-34.51 -39.77,-47.15 -16.54,-13.72 -39.42,-17.53 -60.2,-13.84 -12.8,2.4 -26.85,4.09 -37.02,13.01 21.89,-1.59 45.74,-6.11 66.27,3.97 23.8,15.73 36.67,42.28 52.77,64.88 16.79,23.3 40.97,45.1 71.2,46.06 -0.18,2.13 -0.36,4.27 -0.53,6.42 4.02,-0.26 8.38,0.41 12.02,-1.76 20.87,-10.84 30.4,-34.53 49.98,-46.96 5.79,-4.1 12.94,-1.34 19.29,-0.53 -1.83,-6.13 -5.47,-12.89 -12.46,-13.93 -13.15,-1.96 -23.9,7.2 -34.9,12.71 4.13,-12.41 8.93,-24.82 9.44,-38.08 -10.24,14.04 -19.01,30.7 -35.29,38.63 -7.94,3.74 -19.7,5.86 -25.31,-2.74 -9.96,-13.86 -15.03,-30.59 -24.63,-44.73 -11.9,-20.85 -31.46,-39.04 -55.89,-43.01zm-87.53 67.28l0 0c4.2,3.02 8.47,5.93 12.73,8.88 -7.68,0.74 -15.36,1.54 -22.99,2.63 10.1,2.28 20.23,4.64 29.94,8.39 -9.55,12.32 -6.62,32 6.18,40.95 13.86,9.36 35.75,5.25 42.51,-11.03 4.22,5.47 8.67,10.77 13.49,15.73 -3.39,-20.6 -11.86,-41.93 -29.29,-54.57 -15.02,-11 -34.55,-12.99 -52.57,-10.98zm224.36 63.77l0 0c-9.44,7.57 -18.48,15.67 -28.77,22.1 8.65,1.59 15.27,7.45 17.26,16.1 -5.86,0.53 -11.72,0.92 -17.58,1.29 11.69,3.85 23.41,10.91 26.43,23.78 -23.2,1.59 -41.4,-17.48 -64.51,-15.87 -19.63,-0.46 -38.29,17.44 -36.17,37.46 2.7,6.39 8.42,11.23 13.94,15.29 8.85,3.49 18.13,-2.23 24.31,-8.35 3.04,-2.42 5.42,-6.43 9.59,-6.92 5.24,1 12.87,3.05 12.94,9.67 -1.54,12.78 -13.54,20.27 -24.93,23.57 7.01,6.48 14.25,12.69 21.33,19.12 8.54,-2.72 16.96,-5.79 25.42,-8.67 -8.26,-8.72 -5.9,-22.03 1.02,-30.77 3.78,-4.77 11.92,-3.85 15.17,1.11 1.48,7.84 -4.24,15.04 -2.65,22.97 6.32,0.07 12.62,-0.71 18.82,-2.01 3.95,15.37 -4.61,30.1 -12.43,42.7 -7.11,11.07 -17.44,21.15 -18.27,35.06 15.99,-16.26 36.72,-29.85 44.61,-52.22 5.54,-14.63 2.56,-30.66 -3.34,-44.63 2.12,-6.95 4.47,-14.58 1.66,-21.69 -1.78,-5.97 -8.49,-9.31 -9.05,-15.7 -1.24,-8.65 -2.09,-17.35 -3.41,-26 7.87,-1.27 17.74,-0.71 22.56,-8.44 5.42,-5.88 3.41,-14.11 2.67,-21.22 4.11,-0.04 8.22,-0.18 12.34,0.14 0.33,10.98 0.79,22.42 -3.57,32.75 -3.97,10.68 -11.47,19.38 -18.02,28.46 15.74,0.12 30.24,-10.6 34.51,-25.78 4.68,-12.36 -2.51,-24.89 -10.01,-34.37l0.76 -1.34c-3.3,-2 -6.57,-4.01 -9.82,-6.06 2.3,-0.42 6.89,-1.23 9.2,-1.64 -15.75,-8.88 -36.7,-10.59 -52.01,0.11zm-111.15 8.58l0 0c0.69,1.09 2.09,3.21 2.79,4.3 15.01,-0.67 31,-5.68 45.3,1.26 6.73,2.43 12.8,8.56 20.48,6.39 -8.38,-6.94 -17.35,-13.17 -26.55,-18.93 -13.79,-7.73 -30.28,-1.78 -42.02,6.98zm-90.47 32.43l0 0c2.82,1.09 5.63,2.08 8.54,3 -11.65,3.21 -23.39,6.14 -35.06,9.3 1.7,1.68 5.42,2.05 5.72,4.87 -9.3,6.11 -19.19,11.62 -26.64,20.11 -16.68,16.97 -24.01,41.31 -23.34,64.74 5.39,-2.26 10.74,-4.63 16.07,-7.1 -1.66,9.06 -3.23,18.22 -2.93,27.47 0.26,23.34 10.96,45.58 25.93,63.06 -1.09,-10.36 -0.81,-20.78 -1.66,-31.14 1.8,-17.48 4.15,-35.1 10.24,-51.71 6.85,-20.37 18.75,-38.64 32.96,-54.62 -6.71,2.44 -13.45,4.89 -20.23,7.15 14.02,-19.67 36.1,-30.86 52.5,-48.14 6.76,-6.82 13.63,-14.78 13.93,-24.91 -18.75,5.77 -37.48,11.56 -56.03,17.92zm115.72 -11.11l0 0c6.11,1.8 12.48,-0.35 18.71,0.74 7.52,0.99 14.62,5.3 22.39,3.55 -5.56,-5.63 -12.04,-11.12 -20.15,-12.23 -7.85,-1.31 -15.57,2.45 -20.95,7.94zm-126.07 126.99l0 0c-10.84,10.13 -10.52,26.35 -7.06,39.65 3.57,-7.58 6.8,-15.68 13.49,-21.17 7.64,26.06 10.75,53.3 10.43,80.43 0.11,16.79 -0.99,33.95 3.07,50.42 4.52,11.72 17.71,16.12 28.8,19.21 -5.6,-4.75 -10.97,-10.03 -13.49,-17.11 21.66,12.73 47.7,16.49 72.47,15.1 14.26,-1.01 28.88,-9.43 33.12,-23.73 6.62,-21.68 13.1,-43.43 19.49,-65.18 6.39,-20.11 20.19,-36.49 31.19,-54.14 -9.83,-11.81 -25.24,-19.53 -29.76,-35.08 -19.44,0.76 -38.88,1.75 -58.35,2.31 -17.72,-1.29 -35.11,-6.23 -53,-5.26 -17.44,0.62 -36.89,2.26 -50.4,14.55zm527.89 213.27l0 0c2.19,15.75 6.69,31.06 8.7,46.89 9.06,57.27 6.99,117.15 -12.3,172.2 -2.69,7.38 -5.95,14.6 -7.98,22.24 5.05,-5.54 8.21,-12.41 11.49,-19.05 22,-42.65 33.26,-90.49 34.44,-138.37 0.48,-12.83 -6,-24.36 -10.08,-36.12 -6.81,-16.5 -13.75,-33.29 -24.27,-47.79z"/>
   <path class="fil4" d="M1319.28 423.61c21.15,-7.78 47.77,-4.2 63.01,13.42 17.12,15.75 21.99,41.96 13.77,63.36 -6.02,16.86 -20.89,28.69 -37.18,34.97 -3.43,-6.74 -6.41,-13.7 -9.29,-20.69 12.31,-7.75 25.72,-17.21 29.24,-32.25 2.33,-7.29 -0.99,-14.51 -2.58,-21.54 1.85,-0.16 5.54,-0.48 7.38,-0.65 -11.44,-11.23 -25.09,-23.52 -42.18,-23.18 -14.79,0.93 -25.17,12.71 -34.16,23.18 -5.56,-3.75 -11.08,-7.61 -16.47,-11.57 6.89,-10.75 16.19,-20.62 28.46,-25.05zm206.13 754.69c6.97,-16.95 10.22,-35.03 15.39,-52.54 6.02,34.78 7.7,70.53 2.67,105.54 -0.87,6.49 -3.41,12.67 -7.24,17.97 -13.19,18.5 -25.74,37.46 -38.38,56.33 -9.39,14.28 -23.48,24.38 -36.76,34.73 -9.88,7.78 -21.69,12.9 -30.38,22.15 -7.98,5.12 -17.6,7.03 -26.11,11.16 -34.42,15.66 -70.74,26.64 -107.35,35.78 -28.34,12.59 -55.47,27.95 -83.65,40.94 -41.71,17.66 -85.37,32.01 -130.67,36.39 -35.15,3.14 -71.46,0.19 -104.25,-13.58 5.3,-5.15 11,-9.83 16.3,-14.93 -9.25,-1.08 -18.54,-1.7 -27.81,-2.63 1.93,-6.82 5.85,-12.8 9.89,-18.54 -16.54,0.67 -33.26,-4.31 -45.83,-15.27 5.93,-3.23 11.88,-6.43 17.74,-9.76 -9.74,-2.28 -19.56,-4.17 -29.32,-6.32 -1.01,-7.61 -0.32,-15.36 4.84,-21.4 -7.77,-4.96 -15.66,-9.69 -23.27,-14.83 6.74,-2.77 13.47,-5.49 20.07,-8.54 -9.02,-3.85 -18.43,-6.59 -27.61,-9.96 2.47,-10.19 11.95,-15.82 20.37,-20.69 -3.28,-3.02 -5.95,-6.57 -7.98,-10.52 6.87,-2.88 13.77,-5.67 20.66,-8.51 -7.96,-3.62 -16.14,-6.73 -24.24,-9.98 3.23,-12.94 15.06,-20.72 27.2,-24.22 -1.78,-4.41 -3.44,-8.84 -4.99,-13.29 9.69,-2.56 19.42,-4.87 29.16,-7.31 -8.31,-3.78 -16.93,-6.74 -25.4,-10.13 2.49,-13.07 15.8,-18.66 27.22,-21.89 15.01,-3.82 30.54,-5.69 46.04,-5.97 -6.99,6.78 -17.07,9.9 -22.95,17.78 -6.25,9.53 -0.3,20.44 4.22,29.25 -10.91,2.86 -24.27,6.25 -28.58,18.11 -3.53,10.21 2.91,19.97 10.03,26.78 -8.28,5.74 -20.71,11.39 -19.86,23.38 1.64,13.45 15.99,18.92 26.69,23.95 -3.73,8.55 -9.02,19.37 -2.51,27.95 11.44,13.38 29.38,18.94 46.45,20.14 -2.72,4.19 -6.53,8.09 -7.38,13.19 -0.21,6.9 2.35,14.44 8.35,18.36 10.52,7.03 23.57,9.53 36.05,8.47 42.19,-3.12 84.53,-9.14 124.69,-22.89 38.01,-12.5 74.29,-32.77 101.42,-62.6 10.93,-11.78 18.66,-25.92 27.95,-38.91 -0.69,19.01 -3.62,37.85 -3.96,56.88 20.99,-5.81 40.68,-16.9 56.18,-32.22 15.96,-17.14 26.32,-38.56 41.2,-56.58 -1.8,10.29 -4.89,20.3 -7.61,30.38 7.82,-3.42 15.61,-7.15 22.16,-12.73 14.53,-11.72 21.85,-29.37 30.82,-45.19 11.65,-20.73 22.51,-41.93 34.5,-62.48 1.36,11.79 1.34,23.78 -1.4,35.38 -2.93,14.51 -9.9,27.7 -14.81,41.54 26.92,-28.14 47.56,-62.07 62.04,-98.12zm63.04 -223.75c10.52,14.5 17.46,31.29 24.27,47.79 4.08,11.76 10.56,23.29 10.08,36.12 -1.18,47.88 -12.44,95.72 -34.44,138.37 -3.28,6.64 -6.44,13.51 -11.49,19.05 2.03,-7.64 5.29,-14.86 7.98,-22.24 19.29,-55.05 21.36,-114.93 12.3,-172.2 -2.01,-15.83 -6.51,-31.14 -8.7,-46.89zm-981.29 -166.47c20.3,-3.06 40.57,0.28 60.3,5.03 5.6,3.69 7.24,10.77 9.8,16.59 -6.74,3.83 -13.84,6.98 -20.48,11.02 0.07,0.44 0.2,1.32 0.27,1.75 6.67,1.78 13.52,2.82 20.28,4.29 -3.67,5.38 -7.34,10.73 -11.05,16.08 9.34,2.91 18.45,7.59 23.9,16.08 -8.01,4.31 -16.45,7.77 -24.66,11.69 9.09,2.45 18.2,4.78 27.17,7.61 -3.51,6.85 -8.53,12.76 -14.81,17.23 8.26,4.45 15.78,10.54 19.74,19.28 -6.41,3.58 -13.17,6.44 -19.85,9.44 6.13,2.81 12.24,5.67 18.29,8.69 -5.01,9.39 -12.99,17.26 -23.48,20.09 5.26,4.32 9.73,9.65 10.51,16.68 -6.78,3.18 -13.81,5.84 -20.48,9.32 5.65,2.07 11.37,3.94 17.12,5.76 -5.1,11.21 -16.75,17.03 -27.94,20.49 3.4,5.21 6.16,10.84 6.99,17.06 -6.55,3 -13.24,5.68 -19.88,8.45 4.27,2.65 8.86,4.79 13.59,6.55 -14,18.63 -38.82,23.64 -60.8,24.7 -40.9,0.88 -83.06,-6.04 -118.84,-26.76 -31.39,-17.99 -56.46,-46.15 -73,-78.07 -0.39,-9.34 -2.63,-18.43 -4.73,-27.5 10.27,12.37 19.36,25.95 32.16,35.94 16.65,14.42 37.69,22.37 59.21,25.9 -8.77,2.93 -17.76,5.08 -26.76,7.08 7.82,6.12 16.58,10.8 25.65,14.77 25.42,11.87 53.05,19.95 81.28,19.9 16.15,0.46 32.73,-3.76 46.02,-13.05 9.06,-8.77 1.29,-21.55 -1.78,-31.28 11.72,-4.87 25.65,-11.33 28.51,-25.1 2.51,-8.83 -2.59,-16.83 -7.41,-23.75 11.38,-5.4 25.95,-13.56 24.27,-28.37 -0.05,-12.09 -10.84,-19.05 -20.04,-24.57 6.52,-6.46 15.86,-13.38 13.7,-23.87 -0.42,-13.47 -13.73,-19.58 -23.92,-25.12 5.51,-7.61 14.48,-16.12 10.45,-26.43 -3.88,-13.47 -18.27,-17.74 -29.3,-23.6zm-126.16 -2.93c6.55,-11.87 18.03,-19.49 27.86,-28.39 -0.02,3.9 -0.05,7.82 -0.05,11.72 -9.08,5.86 -18.13,11.83 -27.81,16.67zm-13.84 -23.59c11.97,-19.93 26.08,-38.52 41.65,-55.77 0.03,12.96 0.05,25.92 0,38.91 -21.52,16 -39.71,35.91 -60.82,52.38 4.57,-12.76 12.27,-23.97 19.17,-35.52zm932.02 -103.8c28.92,10.89 54.32,29.46 77.84,49.18 30.63,26.18 57.74,56.19 82.92,87.56 28.51,37.94 56.88,76.6 76.65,119.98 -10.43,-1.43 -20.51,-7.86 -31.09,-6.13 -18.64,-35.66 -46.76,-65.67 -78.54,-89.98 -5.42,-4.27 -11.3,-7.89 -17.35,-11.12 16.34,17.97 32.8,36.12 44.5,57.6 9.41,17.11 17.71,35.03 22.72,53.97 -21.2,-24.27 -43.92,-47.86 -71.85,-64.47 -18.8,-11.28 -38.64,-21.7 -60.25,-26.32 10.57,8.33 22.4,14.95 32.5,23.92 22.81,19.01 39.95,44.49 49.55,72.56 7.28,22.65 9.91,46.78 8.02,70.49 -12.45,-23.89 -26.32,-48.23 -47.95,-65.04 10.93,24.95 20.85,51.04 21.54,78.65 2.08,44.24 -17.94,88.02 -49.57,118.39 3.51,-18.75 9.74,-36.99 11.24,-56.14 5.23,-47.14 -6.14,-97.12 -36.03,-134.56 7.29,34.11 9.76,72.66 -9.55,103.43 -1.22,-16.59 0.46,-33.33 -2.56,-49.73 -4.24,-26.39 -14.78,-53.12 -35.15,-71.21 -3.88,4.89 -7.61,9.9 -11.44,14.84 -13.72,16.05 -32.75,26.57 -52.04,34.55 5.47,-11.72 10.98,-23.48 13.91,-36.12 -20.96,23.96 -52.24,34.78 -82.27,42.21 3.78,-10.84 8.02,-21.5 11.78,-32.34 -32.43,24.68 -71.04,42.16 -111.93,45.69 -44.33,4.71 -88.59,-6.32 -129.4,-22.95 16.82,14.39 36.51,24.98 56.7,33.86 17.3,7.84 36.02,11.63 53.85,17.95 0.03,0.71 0.1,2.12 0.12,2.83 -21.34,8.42 -44.91,7.66 -67.44,7.24 18.45,13.64 40.94,20.44 63.52,23.14 0.04,7.17 0.04,14.37 0,21.56 -80.13,0.07 -160.26,0.05 -240.39,0 -0.14,-64.55 0.16,-129.11 -0.14,-193.65 4.02,4.64 9.12,8.12 14.81,10.43 0.97,-5.36 1.85,-10.73 2.77,-16.1 13.26,10.26 27.77,19.85 44.65,22.67 16.56,2.42 33.19,6.55 47.66,15.29 13.17,7.59 23.45,19.26 30.93,32.38 0,-5 0,-10.01 0,-14.99 21.79,18.64 47.3,34.12 75.9,39.12 21.52,3.99 43.92,0.9 64.22,-6.96 34.16,-14.37 67.4,-34.1 90.23,-63.99 8.14,-10.42 14.6,-22.07 19.97,-34.13 3.51,5.55 7.13,11.04 10.98,16.4 6.58,-25.72 16.01,-50.96 30.77,-73.14 10.91,-16.06 21.61,-32.23 32.39,-48.37 9.38,-14.86 16.37,-31.14 21.65,-47.86 34.53,17.8 66.99,39.55 96.72,64.6 -22.1,-33.49 -49.82,-63.08 -80.73,-88.59 22.46,9.8 43.22,23 63.18,37.13 -17.03,-23.36 -36.56,-44.93 -58.52,-63.73zm-319.73 -29.36c4.47,0.63 8.95,1.25 13.44,1.92 -12.54,11.6 -27.4,20.41 -39.57,32.4 -13.2,15.11 -26.95,31.51 -29.69,52.13 4.73,-3 9.43,-6.02 14.14,-9.09 -7.84,23.78 -11.05,50.54 -0.23,73.95 0.85,10.36 0.57,20.78 1.66,31.14 -14.97,-17.48 -25.67,-39.72 -25.93,-63.06 -0.3,-9.25 1.27,-18.41 2.93,-27.47 -5.33,2.47 -10.68,4.84 -16.07,7.1 -0.67,-23.43 6.66,-47.77 23.34,-64.74 7.45,-8.49 17.34,-14 26.64,-20.11 -0.3,-2.82 -4.02,-3.19 -5.72,-4.87 11.67,-3.16 23.41,-6.09 35.06,-9.3zm242.04 -36.14c0.74,0.25 2.19,0.78 2.91,1.06 7.5,9.48 14.69,22.01 10.01,34.37 -4.27,15.18 -18.77,25.9 -34.51,25.78 6.55,-9.08 14.05,-17.78 18.02,-28.46 4.36,-10.33 3.9,-21.77 3.57,-32.75zm-404.05 -86.33c24.68,-20.72 58.1,-28.07 89.7,-25.24 -3.25,8.98 -6.55,17.95 -9.44,27.06 10.13,-2.82 20.44,-5.01 30.98,-5.24 -13.19,16.29 -28.07,33.84 -28.07,56.05 -1.18,24.17 14.12,44.1 27.98,62.23 -18.61,-10.45 -36.97,-24.86 -45.3,-45.09 -6.28,-15.66 1.11,-31.58 8.16,-45.46 -6.52,2.1 -12.96,4.47 -19.33,7.01 0.3,-10.01 2.31,-19.84 5.1,-29.41 -16.95,1.85 -35.7,5.54 -46.59,20 6.94,0.62 13.93,1.13 20.9,1.61 -6.41,11.77 -13.57,23.14 -19.24,35.29 -17.44,35.98 -24.98,76.33 -23.9,116.21 0.84,46.56 12.85,93.92 39.12,132.76 2.98,-7.94 5.47,-16.03 7.64,-24.24 8.16,16.65 16.77,33.76 31,46.13 11.3,10.47 27.01,15.52 36.39,28.14 7.46,10.05 12.02,21.86 17.07,33.23 -0.11,1.09 -0.37,3.28 -0.48,4.39 -8.53,-10.96 -19.47,-20.39 -33.38,-23.51 -32.86,-7.52 -68.41,-18.63 -89,-47.33 -3.58,6.14 -6.72,12.51 -10.48,18.5 -6.36,-4.29 -9.66,-11.99 -15.27,-17.25 -8.94,-11.26 -22.67,-17.71 -30.37,-29.99 -6.11,-8.78 -9.94,-18.79 -14.28,-28.46 -6.04,3.95 -7.61,12.43 -11.63,18.27 -14.48,-12.52 -19.44,-32.04 -20.94,-50.4 -2.77,-34.5 6.39,-69.24 0.42,-103.61 -6.95,-0.11 -11.58,7.27 -17.09,10.87 -8.63,-38.13 6.5,-76.76 27.54,-108.11 9.34,-13.19 18.43,-26.94 30.53,-37.76 -3.27,6.99 -6.38,14.05 -9.91,20.9 -13.06,26.64 -19.75,57.32 -13.89,86.77 8.12,-4.13 16.05,-8.58 24.08,-12.87 -1.41,11.67 -3.85,23.2 -5.05,34.9 -4.11,35.77 1.43,73.44 20.02,104.64 7.06,11.61 14.58,23.76 26.59,30.84 -3.96,-15.36 -11.41,-29.57 -14.94,-45.07 -9.04,-37.71 -11.83,-77.31 -4.64,-115.6 3.32,-18.96 9.94,-37.04 16.63,-55.01 -4.61,1.22 -9.22,2.47 -13.84,3.67 7.29,-19.65 21.34,-36.42 37.21,-49.82zm218.26 -52.59c24.43,3.97 43.99,22.16 55.89,43.01 9.6,14.14 14.67,30.87 24.63,44.73 5.61,8.6 17.37,6.48 25.31,2.74 16.28,-7.93 25.05,-24.59 35.29,-38.63 -0.51,13.26 -5.31,25.67 -9.44,38.08 11,-5.51 21.75,-14.67 34.9,-12.71 6.99,1.04 10.63,7.8 12.46,13.93 -6.35,-0.81 -13.5,-3.57 -19.29,0.53 -19.58,12.43 -29.11,36.12 -49.98,46.96 -3.64,2.17 -8,1.5 -12.02,1.76 0.17,-2.15 0.35,-4.29 0.53,-6.42 -30.23,-0.96 -54.41,-22.76 -71.2,-46.06 -16.1,-22.6 -28.97,-49.15 -52.77,-64.88 -20.53,-10.08 -44.38,-5.56 -66.27,-3.97 10.17,-8.92 24.22,-10.61 37.02,-13.01 20.78,-3.69 43.66,0.12 60.2,13.84 16.7,12.64 24.36,33.26 39.77,47.15 -1.43,-6.3 -3.81,-12.32 -6.99,-17.92 -7.43,-13.52 -14.86,-27.52 -26.39,-38.04 -3.97,-3.62 -7.93,-7.22 -11.65,-11.09z"/>
  </g>
 </g>
</svg>
