<?xml version="1.0" encoding="UTF-8"?>
<!DOCTYPE svg PUBLIC "-//W3C//DTD SVG 1.1//EN" "http://www.w3.org/Graphics/SVG/1.1/DTD/svg11.dtd">
<!-- Creator: CorelDRAW -->
<svg xmlns="http://www.w3.org/2000/svg" xml:space="preserve" width="2000px" height="1600px" version="1.1" style="shape-rendering:geometricPrecision; text-rendering:geometricPrecision; image-rendering:optimizeQuality; fill-rule:evenodd; clip-rule:evenodd"
viewBox="0 0 2000 1600"
 xmlns:xlink="http://www.w3.org/1999/xlink">
 <defs>
  <style type="text/css">
   <![CDATA[
    .fil2 {fill:#221F1F;fill-rule:nonzero}
    .fil1 {fill:#E41A38;fill-rule:nonzero}
    .fil0 {fill:#FEFEFE;fill-rule:nonzero}
   ]]>
  </style>
 </defs>
 <g id="Capa_x0020_1">
  <metadata id="CorelCorpID_0Corel-Layer"/>
  <g id="Davidson_x0020_Wildcats.cdr">
   <path class="fil0" d="M827.84 386.23c61.96,-14.47 125.87,-19.51 189.38,-18.56 81.93,2.13 162.24,21.36 240.45,44.59 35.8,10.26 70.06,25.07 105.62,36 37.79,11.93 76.9,18.75 116.05,24.11 -35.87,14.31 -73.36,24.71 -111.35,31.52 -28.45,4.47 -57.53,7.77 -86.28,5.57 20.2,26.28 34.02,56.58 50.57,85.15 42.64,78.21 79.78,160.72 97.25,248.5 2.5,12.94 4.44,26 5.25,39.17 -12.73,-4.41 -25.38,-9.04 -38.25,-13.06 5.27,54.43 4.16,110.75 -14.49,162.73 -19.3,51.54 -57.06,94.44 -101.18,126.47 1.01,-39.5 -2.78,-81.38 -24.36,-115.58 -12,-19.42 -29.66,-36.56 -52.15,-42.71 -19.39,-5.57 -41.53,-6.75 -59.95,2.54 -14.05,7.28 -23.16,21.7 -26.39,36.91 -7.44,35.8 -26.33,71.18 -58.01,90.99 -14.89,8.64 -32.4,17.38 -49.99,12.25 -10.22,-2.77 -17.29,-11.19 -22.77,-19.71l-1.18 -0.1c-6.14,10.5 -12.34,20.97 -18.32,31.57 -18.29,-2.58 -32.64,-15.94 -46.09,-27.55 -4.76,9.94 -8.16,20.51 -13.01,30.4 -18.28,-5.34 -33.01,-19.39 -43.11,-35.13 -11.8,-19.51 -19.57,-41.7 -22.18,-64.32 3.07,-37.58 3.56,-75.56 -1.09,-113.04 -2.42,-23.02 -12.71,-45.49 -29.7,-61.41 -4.2,-4.05 -8.85,-7.6 -12.62,-12.07 17.36,6.48 34.72,16.64 43.75,33.47 13.76,27.2 19.51,57.8 20.07,88.1 0.99,25.54 -4.03,51.98 4.64,76.69 4.62,14.7 15.14,29.12 30.97,32.61 36.06,-10.01 73.94,-5.71 110.5,-1.32 14.51,-6.84 28.73,-14.97 40.17,-26.42 16.43,-15.78 27.5,-36.23 35.75,-57.24 14.17,-36.61 21.26,-75.46 26.58,-114.2 1.22,-13.52 -10.24,-24.13 -21.4,-29.65 28.89,-4.56 53.02,-22.58 73.42,-42.55l0.86 0c38.46,-0.69 76.82,-4.09 115.28,-5.64 45.53,-2.87 91.15,-4.6 136.66,-7.74 -76.29,-7.4 -152.7,-13.89 -229.04,-20.66 2.04,-4.35 4.09,-8.67 6.08,-13.04l0.56 -0.09c68.85,-9.04 137.86,-16.92 206.64,-26.42 -66.84,-2.82 -133.66,-6.77 -200.54,-8.78 -0.16,-4.79 -0.21,-9.57 -0.28,-14.35 58.75,-13.2 117.55,-26.31 176.16,-40.08 -62.4,-0.3 -124.81,1.27 -187.18,1.73 -45.28,6.34 -89.54,18.31 -133.45,30.81 1.04,3.24 4.71,3.88 7.37,5.39 18.86,9.01 36.98,21.54 48.4,39.4 8.36,13.69 12.08,32.5 2.98,46.74 -9.01,13.17 -25.31,18.37 -40.24,21.3 -6.24,1.69 -12.16,-1.57 -18.05,-3.14 -27.8,-8.39 -55.49,-17.22 -83.39,-25.31 27.83,-21.74 51.84,-49.57 64.21,-83.04 -57.48,0.72 -114.91,2.75 -172.37,3.68 1.23,26.14 15.07,49.99 32.86,68.52 4.35,4.9 10.06,8.6 13.57,14.26 -27.71,10.17 -55,21.54 -82.67,31.83 -13.29,1.55 -26.58,-3.72 -37.74,-10.59 -16.13,-9.98 -23.23,-31.22 -18.03,-49.2 5.27,-19.02 18.75,-36.2 37.05,-44.19 8.6,-4.05 18.14,-5.18 27.34,-7.24 -42.34,-9.73 -84.38,-20.84 -126.74,-30.41 -26.05,-1.76 -52.14,-3.33 -78.26,-4.25 23.78,9.17 47.77,17.84 71.65,26.78 -1.3,7.56 -2.41,15.19 -3.01,22.84 -28.33,1.11 -56.71,1.22 -85.05,2.56 28.64,7.93 57.48,15.12 86.16,22.86 1.25,6.36 2.57,12.74 4.09,19.07 -36.17,6.61 -72.11,14.51 -108.14,21.84 39.64,1.92 79.37,2.1 119.07,2.52l0.54 -0.03c5.17,7.03 10,14.7 17.35,19.67 24.76,15.03 47.43,34.14 64.53,57.62 15.65,25.29 19.09,56.42 15.58,85.49 -1.09,17.47 -7.14,34.28 -7.56,51.82 -21.31,-5.71 -44.54,0.88 -60.69,15.6 -26.14,23.29 -38.81,57.11 -50.18,89.3 -34.64,-29.79 -57.92,-71.16 -69.68,-115.02 -14.12,-52.14 -15.6,-107.2 -8,-160.52 -12.78,5.46 -25.72,10.47 -38.34,16.32 7.91,-53.02 21.15,-105.23 37.79,-156.19 12.87,-38.13 27.59,-75.88 47.06,-111.21 4.39,-8.49 12.84,-16.67 23.18,-15.14 12.43,1.8 21.67,11.83 28.19,21.88 8.18,13.66 17.59,27.02 30.44,36.71 15.37,12.22 34.97,19.46 54.71,18.56 14.09,-0.37 29.72,-1.18 42.01,6.93 7.03,4.46 9.18,13.7 5.69,21.12 14.47,-10.4 26.32,-24.45 35.68,-39.56 7.58,-12.95 13.04,-28.64 8.88,-43.64 -3.75,-14.17 -15,-24.87 -27.13,-32.33 -19.86,-12.27 -42.95,-17.29 -64.9,-24.48 -38.02,-12.29 -78.1,-21.21 -111.54,-44.19 -12.44,-8.43 -25.03,-19.55 -27.85,-35.08 -1.85,-13.78 7.16,-26 16.94,-34.62 16.62,-14.08 36.31,-24.18 56.63,-31.76 29.81,-11.76 60.04,-22.69 91.31,-29.93zm160.1 656.03c5.4,-13.15 11.53,-27.16 23.43,-35.68 -1.29,22.23 1.23,45.46 12.2,65.22 -41.04,-18.49 -89.51,-17.75 -130.58,0.27 -4.83,-20.77 -4.99,-43.03 2.64,-63.16 8.36,10.86 15.04,22.97 22.67,34.39 23.2,0.86 46.48,0.69 69.64,-1.04zm-51.22 -189.91c2.84,-0.92 5.78,-2.98 8.9,-1.73 33.09,8.92 65.87,19.04 98.66,28.98 -9.68,20.27 -12.41,42.85 -14.81,64.92 -15.16,-15.39 -19.95,-37.69 -20.78,-58.56 -37.56,-0.12 -75.09,0.34 -112.65,0.41 -5.45,18.08 -6.81,37.17 -7.88,55.95 -15.74,-15.5 -22.35,-39.12 -20.11,-60.85 22.84,-9.82 45.84,-19.25 68.67,-29.12zm187.83 -253.88c5.2,-0.07 10.42,-0.03 15.65,0.25 0.55,14.72 -3.79,30.3 -14.68,40.68 -12.83,12.36 -32.22,15.78 -49.23,12.13 -19.37,-4.71 -34.6,-19.3 -45.09,-35.68 9.08,-3.47 18.44,-6.08 27.85,-8.48 -3.77,21.14 15.44,41.94 36.77,39.68 23.02,-0.9 39.01,-27.87 28.73,-48.58zm-360.94 -1.53c9.57,-0.18 19.12,-0.02 28.68,0.39 -7.9,20.74 7.93,46.48 30.65,46.44 19.02,2.01 36.33,-14.68 36.56,-33.49 4.14,1.29 8.25,2.63 12.37,4.02 -11.05,18.54 -29.31,34.18 -51.29,37 -14.63,1.62 -30.25,-2.26 -41.55,-11.93 -11.86,-10.42 -17.22,-26.94 -15.42,-42.43zm165.92 -163.07l0 0c-4.16,8.18 -5.89,17.26 -8.69,25.93 -7.05,23.69 -14.1,47.38 -21.28,71.04 -37.65,-1.87 -75.35,-4.02 -113,-4.83 24.15,6.5 48.58,12.69 71.44,23.11 24.34,10.91 48.7,25.61 62.54,49.23 2.96,-54.82 5.39,-109.69 8.99,-164.48zm26.63 4.69l0 0c2.65,54.73 6.98,109.38 9.59,164.14 8.43,-18.59 25.05,-31.55 42.22,-41.61 34.46,-20.03 73.18,-30.87 111.5,-40.79 -44.15,2.2 -88.15,7.17 -132.3,9.76 -9.98,-30.63 -20.15,-61.23 -31.01,-91.5zm277.82 77.24l0 0c-60.78,20.15 -122.35,37.9 -183.3,57.52 -18.62,7.21 -38.02,17.08 -48.6,34.81 -7.88,12.99 -7.23,29.4 -1.76,43.15 8.14,20.04 22.7,36.84 38.88,50.89 -0.49,-7.9 -3.01,-18.67 5.57,-23.37 15.55,-8.32 34,-4.34 50.89,-4.85 23.37,0.32 47.91,-8.9 61.8,-28.43 14.19,-18.88 18.03,-43.12 18.65,-66.12 18.84,-20.59 37.88,-41.02 57.16,-61.22 0.18,-0.58 0.53,-1.78 0.71,-2.38z"/>
   <path class="fil1" d="M999.56 80c32.96,31.48 64.6,64.39 97.02,96.42 62.13,62.43 124.79,124.3 186.56,187.05 -22.74,-8.53 -46.45,-13.89 -69.79,-20.5 -25.1,-6.82 -50.64,-12.04 -76.34,-16.04 -34.37,-4.67 -68.78,-10.7 -103.59,-10.17 -62.54,-1.13 -125.45,1.8 -186.93,13.86 -46.85,8.97 -92.45,23.49 -136.89,40.66 1.32,-1.76 2.7,-3.45 4.16,-5.09 95.27,-95.4 190.79,-190.55 285.8,-286.19zm174.77 989.56c1.46,-4.3 3.12,-11.72 9.15,-10.59 11.01,2.68 17.96,12.9 23.67,22 13.2,23 15.97,50.87 12,76.76 -3.91,26.74 -14.06,52.65 -29.79,74.65 -11.26,15.48 -25.68,28.22 -40.03,40.74 35.1,-0.37 68.24,-14.6 98.94,-30.48 28.91,-15.53 56.21,-33.88 82.78,-53.11 -108.62,109.32 -217.92,217.99 -326.68,327.15 -1.71,1.45 -4.28,5.22 -6.45,2.15 -111.38,-111.1 -222.34,-222.64 -333.78,-333.69 11.26,6.93 21.88,14.9 33.81,20.73 23,12.25 48.47,18.4 72.99,26.74 -6.13,-36.19 -12.48,-73.93 -2.68,-110.08 3.63,-14.17 12.41,-29.08 27.89,-32.08 8.16,35.96 27.83,69.5 56.49,92.86 16.29,12.6 33.86,23.6 52.44,32.45 18,8.69 37.33,14.05 56.35,19.92 -1.18,-7.21 -2.5,-14.4 -3.56,-21.61 22.39,12.05 46.91,19.12 70.56,28.2 -1.5,-8.37 -3.15,-16.71 -4.26,-25.12 18.68,5.29 37.95,7.58 57.09,10.47 -2.31,-12.83 -5.2,-25.56 -7.44,-38.39 49.71,-21.38 87.39,-67.42 100.51,-119.67zm-9.08 -238.61c7.65,-11.33 16.25,-22.03 22.9,-34.04 76.34,6.77 152.75,13.26 229.04,20.66 -45.51,3.14 -91.13,4.87 -136.66,7.74 -38.46,1.55 -76.82,4.95 -115.28,5.64zm-567.12 -14.56c36.03,-7.33 71.97,-15.23 108.14,-21.84 3.56,8.13 6.82,16.43 10.93,24.36 -39.7,-0.42 -79.43,-0.6 -119.07,-2.52zm296.97 -64.25c33.32,-0.14 66.65,-2.27 99.98,-2.5 -5.6,6.38 -11.47,12.51 -17.17,18.77 -3.77,-1.85 -7.47,-3.95 -11.61,-4.86 -7.46,-0.25 -14.19,7.17 -13.61,14.54 1.32,4.21 5.45,6.57 8.37,9.64 -6.24,6.61 -12.53,13.17 -18.59,19.97 -6.51,-5.11 -12.64,-10.7 -19.13,-15.83 1.52,-8.72 3.79,-20.5 -5.85,-25.47 -5.59,-3.56 -9.52,3 -12.29,6.77 -5.25,-5.94 -8.49,-13.34 -10.1,-21.03zm-279.08 0.48c28.34,-1.34 56.72,-1.45 85.05,-2.56 -0.32,8.48 0.14,16.99 1.11,25.42 -28.68,-7.74 -57.52,-14.93 -86.16,-22.86zm584.87 -4.04c66.88,2.01 133.7,5.96 200.54,8.78 -68.78,9.5 -137.79,17.38 -206.64,26.42 2.61,-11.63 5.47,-23.25 6.1,-35.2zm-568.46 -48.14c26.12,0.92 52.21,2.49 78.26,4.25 -2.43,7.44 -4.74,14.93 -6.61,22.53 -23.88,-8.94 -47.87,-17.61 -71.65,-26.78zm557.16 -4.56c62.37,-0.46 124.78,-2.03 187.18,-1.73 -58.61,13.77 -117.41,26.88 -176.16,40.08 -1.18,-13.41 -5.27,-26.26 -11.02,-38.35zm-374.9 -95.08c6.47,0.65 12.92,1.57 19.25,3.17 -3.79,9.59 -5.2,19.99 -9.73,29.28 -3.33,-10.77 -6.17,-21.68 -9.52,-32.45zm267.84 1.41c6.27,-0.81 12.53,-1.75 18.77,-2.77 -2.84,10.49 -5.62,21.01 -8.58,31.48 -5.75,-8.42 -6.84,-19.21 -10.19,-28.71zm404.32 -34.74c78.35,76.83 155.06,155.39 233.2,232.46 -24.89,26.44 -51.26,51.5 -76.71,77.4 -72.43,72.46 -144.86,144.94 -217.32,217.39 -6.56,6.34 -12.46,13.43 -19.78,18.96 22.99,-30.6 34.25,-68.18 41.46,-105.28 4.39,-23.06 7.05,-46.45 7.77,-69.91 14.79,7.97 29.79,15.55 44.69,23.34 -3.74,-54.96 -10.79,-109.9 -26.04,-162.94 -11.42,-43.56 -28.96,-85.09 -45.39,-126.88 -5.55,-13.34 -11.47,-26.51 -17.85,-39.45 31.02,-13.71 55.93,-38.21 75.97,-65.09zm-1206.9 233.32c79,-80.32 159.43,-159.27 238.54,-239.46 24.08,24.91 50.64,47.81 81.17,64.52 -8.88,18.13 -16.55,36.82 -23.74,55.68 -18.93,50.92 -35.73,102.87 -45.62,156.38 -9.57,48.81 -6.91,98.82 -6.8,148.26 12.76,-14.35 23.65,-30.35 36.84,-44.28 -0.92,71.5 20.13,143.87 63.01,201.46 -6.78,-5.15 -12.32,-11.67 -18.4,-17.61 -108.37,-108.28 -216.44,-216.88 -325,-324.95zm1199.39 -328.42c0.65,-0.3 1.92,-0.88 2.56,-1.18 -9.54,29.35 -26.69,56.53 -49.08,77.84 -27.23,25.96 -63.54,40.75 -100.54,45.58 -16.55,-28.57 -30.37,-58.87 -50.57,-85.15 28.75,2.2 57.83,-1.1 86.28,-5.57 37.99,-6.81 75.48,-17.21 111.35,-31.52z"/>
   <path class="fil2" d="M1233.98 515.8c-0.18,0.6 -0.53,1.8 -0.71,2.38 -19.28,20.2 -38.32,40.63 -57.16,61.22 -0.62,23 -4.46,47.24 -18.65,66.12 -13.89,19.53 -38.43,28.75 -61.8,28.43 -16.89,0.51 -35.34,-3.47 -50.89,4.85 -8.58,4.7 -6.06,15.47 -5.57,23.37 -16.18,-14.05 -30.74,-30.85 -38.88,-50.89 -5.47,-13.75 -6.12,-30.16 1.76,-43.15 10.58,-17.73 29.98,-27.6 48.6,-34.81 60.95,-19.62 122.52,-37.37 183.3,-57.52zm-277.82 -77.24c10.86,30.27 21.03,60.87 31.01,91.5 44.15,-2.59 88.15,-7.56 132.3,-9.76 -38.32,9.92 -77.04,20.76 -111.5,40.79 -17.17,10.06 -33.79,23.02 -42.22,41.61 -2.61,-54.76 -6.94,-109.41 -9.59,-164.14zm-26.63 -4.69c-3.6,54.79 -6.03,109.66 -8.99,164.48 -13.84,-23.62 -38.2,-38.32 -62.54,-49.23 -22.86,-10.42 -47.29,-16.61 -71.44,-23.11 37.65,0.81 75.35,2.96 113,4.83 7.18,-23.66 14.23,-47.35 21.28,-71.04 2.8,-8.67 4.53,-17.75 8.69,-25.93zm-58.36 -83.58c60.44,-9.59 121.85,-11.48 182.94,-9.57 42.71,3.19 85.07,10.27 126.92,19.28 38.25,8.71 76.6,17.96 113.11,32.59 73.64,30.11 152.08,49.8 231.68,53.75 -14.22,39.55 -34.25,77.22 -59.63,110.78 -22.19,28.54 -51.4,55.54 -88.57,60.83 15.51,29.56 29.49,59.95 40.87,91.34 28.47,67.55 48.09,139.06 55.19,212.12 -14.19,-7.33 -28.36,-14.65 -42.48,-22.07 4.04,51.01 -2.2,102.89 -18.24,151.5 -11.32,34.48 -33,64.71 -59.44,89.3 -42.3,40.21 -93.12,69.73 -142.67,99.96 21.93,-34 35.78,-74.26 33.53,-115.05 -1.94,-27.07 -11.02,-54.85 -30.55,-74.4 -8.46,-8.9 -20.18,-15.81 -32.8,-15.18 -11.74,0.43 -21.72,9.22 -26.06,19.76 -3.61,8.99 -5.16,18.65 -8.95,27.59 -12.5,30.83 -34.48,58.08 -62.91,75.58 -9.43,5.98 -21.03,8.85 -28.75,17.29 -5.69,6.58 -5.2,15.97 -1.9,23.52 -21.05,-3.46 -42.17,-10.44 -59.65,-22.97 1.99,9.94 4.09,19.85 5.46,29.91 -25.45,-9.62 -51.33,-22.21 -68.41,-44.15 1.98,13.62 3.67,27.27 5.68,40.91 -25.21,-9.34 -48.88,-22.9 -69.82,-39.71 -28.24,-23.94 -44.58,-59.28 -49.37,-95.59 -18.37,-3.58 -38.85,1.14 -52.05,14.91 -14.88,15.6 -20.4,37.47 -22.97,58.31 -1.55,19.14 -1.71,38.53 1.09,57.57 -45.3,-13.29 -84.64,-44.16 -110.15,-83.71 -32.73,-50.27 -46.39,-110.82 -47.82,-170.19 0.39,-15.6 0.9,-31.34 4.48,-46.6 -14.19,6.38 -27.27,14.96 -41.41,21.43 -0.93,-51.86 10.63,-102.94 25.21,-152.42 12.55,-41.65 26.65,-82.95 44.77,-122.54 4.6,-9.71 9.48,-19.32 15.51,-28.25 -49.12,-21.88 -89.72,-59.25 -122.33,-101.43 -18.52,-23.97 -35.32,-49.62 -46.48,-77.91 10.81,2.84 22.05,2.42 33.07,1.36 46.48,-2.31 92.86,-7.79 138.42,-17.4 30.6,-6.5 59.63,-18.42 88.77,-29.52 47.45,-18.28 96.49,-32.68 146.71,-40.93zm-43.33 35.94l0 0c-31.27,7.24 -61.5,18.17 -91.31,29.93 -20.32,7.58 -40.01,17.68 -56.63,31.76 -9.78,8.62 -18.79,20.84 -16.94,34.62 2.82,15.53 15.41,26.65 27.85,35.08 33.44,22.98 73.52,31.9 111.54,44.19 21.95,7.19 45.04,12.21 64.9,24.48 12.13,7.46 23.38,18.16 27.13,32.33 4.16,15 -1.3,30.69 -8.88,43.64 -9.36,15.11 -21.21,29.16 -35.68,39.56 3.49,-7.42 1.34,-16.66 -5.69,-21.12 -12.29,-8.11 -27.92,-7.3 -42.01,-6.93 -19.74,0.9 -39.34,-6.34 -54.71,-18.56 -12.85,-9.69 -22.26,-23.05 -30.44,-36.71 -6.52,-10.05 -15.76,-20.08 -28.19,-21.88 -10.34,-1.53 -18.79,6.65 -23.18,15.14 -19.47,35.33 -34.19,73.08 -47.06,111.21 -16.64,50.96 -29.88,103.17 -37.79,156.19 12.62,-5.85 25.56,-10.86 38.34,-16.32 -7.6,53.32 -6.12,108.38 8,160.52 11.76,43.86 35.04,85.23 69.68,115.02 11.37,-32.19 24.04,-66.01 50.18,-89.3 16.15,-14.72 39.38,-21.31 60.69,-15.6 0.42,-17.54 6.47,-34.35 7.56,-51.82 3.51,-29.07 0.07,-60.2 -15.58,-85.49 -17.1,-23.48 -39.77,-42.59 -64.53,-57.62 -7.35,-4.97 -12.18,-12.64 -17.35,-19.67l-0.54 0.03c-4.11,-7.93 -7.37,-16.23 -10.93,-24.36 -1.52,-6.33 -2.84,-12.71 -4.09,-19.07 -0.97,-8.43 -1.43,-16.94 -1.11,-25.42 0.6,-7.65 1.71,-15.28 3.01,-22.84 1.87,-7.6 4.18,-15.09 6.61,-22.53 42.36,9.57 84.4,20.68 126.74,30.41 -9.2,2.06 -18.74,3.19 -27.34,7.24 -18.3,7.99 -31.78,25.17 -37.05,44.19 -5.2,17.98 1.9,39.22 18.03,49.2 11.16,6.87 24.45,12.14 37.74,10.59 27.67,-10.29 54.96,-21.66 82.67,-31.83 -3.51,-5.66 -9.22,-9.36 -13.57,-14.26 -17.79,-18.53 -31.63,-42.38 -32.86,-68.52 57.46,-0.93 114.89,-2.96 172.37,-3.68 -12.37,33.47 -36.38,61.3 -64.21,83.04 27.9,8.09 55.59,16.92 83.39,25.31 5.89,1.57 11.81,4.83 18.05,3.14 14.93,-2.93 31.23,-8.13 40.24,-21.3 9.1,-14.24 5.38,-33.05 -2.98,-46.74 -11.42,-17.86 -29.54,-30.39 -48.4,-39.4 -2.66,-1.51 -6.33,-2.15 -7.37,-5.39 43.91,-12.5 88.17,-24.47 133.45,-30.81 5.75,12.09 9.84,24.94 11.02,38.35 0.07,4.78 0.12,9.56 0.28,14.35 -0.63,11.95 -3.49,23.57 -6.1,35.2l-0.56 0.09c-1.99,4.37 -4.04,8.69 -6.08,13.04 -6.65,12.01 -15.25,22.71 -22.9,34.04l-0.86 0c-20.4,19.97 -44.53,37.99 -73.42,42.55 11.16,5.52 22.62,16.13 21.4,29.65 -5.32,38.74 -12.41,77.59 -26.58,114.2 -8.25,21.01 -19.32,41.46 -35.75,57.24 -11.44,11.45 -25.66,19.58 -40.17,26.42 -36.56,-4.39 -74.44,-8.69 -110.5,1.32 -15.83,-3.49 -26.35,-17.91 -30.97,-32.61 -8.67,-24.71 -3.65,-51.15 -4.64,-76.69 -0.56,-30.3 -6.31,-60.9 -20.07,-88.1 -9.03,-16.83 -26.39,-26.99 -43.75,-33.47 3.77,4.47 8.42,8.02 12.62,12.07 16.99,15.92 27.28,38.39 29.7,61.41 4.65,37.48 4.16,75.46 1.09,113.04 2.61,22.62 10.38,44.81 22.18,64.32 10.1,15.74 24.83,29.79 43.11,35.13 4.85,-9.89 8.25,-20.46 13.01,-30.4 13.45,11.61 27.8,24.97 46.09,27.55 5.98,-10.6 12.18,-21.07 18.32,-31.57l1.18 0.1c5.48,8.52 12.55,16.94 22.77,19.71 17.59,5.13 35.1,-3.61 49.99,-12.25 31.68,-19.81 50.57,-55.19 58.01,-90.99 3.23,-15.21 12.34,-29.63 26.39,-36.91 18.42,-9.29 40.56,-8.11 59.95,-2.54 22.49,6.15 40.15,23.29 52.15,42.71 21.58,34.2 25.37,76.08 24.36,115.58 44.12,-32.03 81.88,-74.93 101.18,-126.47 18.65,-51.98 19.76,-108.3 14.49,-162.73 12.87,4.02 25.52,8.65 38.25,13.06 -0.81,-13.17 -2.75,-26.23 -5.25,-39.17 -17.47,-87.78 -54.61,-170.29 -97.25,-248.5 37,-4.83 73.31,-19.62 100.54,-45.58 22.39,-21.31 39.54,-48.49 49.08,-77.84 -0.64,0.3 -1.91,0.88 -2.56,1.18 -39.15,-5.36 -78.26,-12.18 -116.05,-24.11 -35.56,-10.93 -69.82,-25.74 -105.62,-36 -78.21,-23.23 -158.52,-42.46 -240.45,-44.59 -63.51,-0.95 -127.42,4.09 -189.38,18.56zm-64.23 210.71l0 0c-1.8,15.49 3.56,32.01 15.42,42.43 11.3,9.67 26.92,13.55 41.55,11.93 21.98,-2.82 40.24,-18.46 51.29,-37 -4.12,-1.39 -8.23,-2.73 -12.37,-4.02 -0.23,18.81 -17.54,35.5 -36.56,33.49 -22.72,0.04 -38.55,-25.7 -30.65,-46.44 -9.56,-0.41 -19.11,-0.57 -28.68,-0.39zm51.08 3.86l0 0c3.35,10.77 6.19,21.68 9.52,32.45 4.53,-9.29 5.94,-19.69 9.73,-29.28 -6.33,-1.6 -12.78,-2.52 -19.25,-3.17zm80.41 151.34l0 0c1.61,7.69 4.85,15.09 10.1,21.03 2.77,-3.77 6.7,-10.33 12.29,-6.77 9.64,4.97 7.37,16.75 5.85,25.47 6.49,5.13 12.62,10.72 19.13,15.83 6.06,-6.8 12.35,-13.36 18.59,-19.97 -2.92,-3.07 -7.05,-5.43 -8.37,-9.64 -0.58,-7.37 6.15,-14.79 13.61,-14.54 4.14,0.91 7.84,3.01 11.61,4.86 5.7,-6.26 11.57,-12.39 17.17,-18.77 -33.33,0.23 -66.66,2.36 -99.98,2.5zm41.62 100.21l0 0c-22.83,9.87 -45.83,19.3 -68.67,29.12 -2.24,21.73 4.37,45.35 20.11,60.85 1.07,-18.78 2.43,-37.87 7.88,-55.95 37.56,-0.07 75.09,-0.53 112.65,-0.41 0.83,20.87 5.62,43.17 20.78,58.56 2.4,-22.07 5.13,-44.65 14.81,-64.92 -32.79,-9.94 -65.57,-20.06 -98.66,-28.98 -3.12,-1.25 -6.06,0.81 -8.9,1.73zm51.22 189.91l0 0c-23.16,1.73 -46.44,1.9 -69.64,1.04 -7.63,-11.42 -14.31,-23.53 -22.67,-34.39 -7.63,20.13 -7.47,42.39 -2.64,63.16 41.07,-18.02 89.54,-18.76 130.58,-0.27 -10.97,-19.76 -13.49,-42.99 -12.2,-65.22 -11.9,8.52 -18.03,22.53 -23.43,35.68zm94.59 -440.05l0 0c3.35,9.5 4.44,20.29 10.19,28.71 2.96,-10.47 5.74,-20.99 8.58,-31.48 -6.24,1.02 -12.5,1.96 -18.77,2.77zm42.02 -3.74l0 0c10.28,20.71 -5.71,47.68 -28.73,48.58 -21.33,2.26 -40.54,-18.54 -36.77,-39.68 -9.41,2.4 -18.77,5.01 -27.85,8.48 10.49,16.38 25.72,30.97 45.09,35.68 17.01,3.65 36.4,0.23 49.23,-12.13 10.89,-10.38 15.23,-25.96 14.68,-40.68 -5.23,-0.28 -10.45,-0.32 -15.65,-0.25z"/>
  </g>
 </g>
</svg>
