<?xml version="1.0" encoding="UTF-8"?>
<!DOCTYPE svg PUBLIC "-//W3C//DTD SVG 1.1//EN" "http://www.w3.org/Graphics/SVG/1.1/DTD/svg11.dtd">
<!-- Creator: CorelDRAW -->
<svg xmlns="http://www.w3.org/2000/svg" xml:space="preserve" width="2000px" height="1600px" version="1.1" style="shape-rendering:geometricPrecision; text-rendering:geometricPrecision; image-rendering:optimizeQuality; fill-rule:evenodd; clip-rule:evenodd"
viewBox="0 0 2000 1600"
 xmlns:xlink="http://www.w3.org/1999/xlink">
 <defs>
  <style type="text/css">
   <![CDATA[
    .fil2 {fill:black;fill-rule:nonzero}
    .fil3 {fill:#0079C1;fill-rule:nonzero}
    .fil1 {fill:#EE3D42;fill-rule:nonzero}
    .fil0 {fill:#FEFEFE;fill-rule:nonzero}
   ]]>
  </style>
 </defs>
 <g id="Capa_x0020_1">
  <metadata id="CorelCorpID_0Corel-Layer"/>
  <g id="DePaul_x0020_Blue_x0020_Demons.cdr">
   <path class="fil0" d="M1329.53 1167.93c11.35,-2.13 22.98,-0.51 34.46,-1.04 5.99,0.37 13.45,-1.42 18.12,3.46 2.97,2.71 2.1,7.08 0.79,10.44 -6.9,17.36 -13.92,34.67 -20.93,52.01 -3.22,8.1 -11.03,15.25 -20.14,15.14 -14.07,-0.07 -28.12,0.16 -42.18,-0.11 -5.84,0.16 -11.28,-5.95 -8.15,-11.59 7.33,-18.6 14.83,-37.14 22.25,-55.7 2.11,-7.06 9.15,-10.77 15.78,-12.61zm183 13.65c3.42,-9.94 14.63,-14.45 24.42,-14.65 16.28,-0.09 32.55,0.02 48.82,-0.02 -3.24,8.15 -6.41,16.36 -9.83,24.46 -8.15,-0.06 -16.27,-0.04 -24.4,-0.06 0.93,-2.42 1.89,-4.82 2.86,-7.19 -4.95,-0.03 -9.87,-0.03 -14.78,0 -2,4.97 -3.98,9.94 -5.93,14.94 10.01,0.26 20.05,-0.34 30.06,0.24 5.31,0.31 9.13,6.35 7.5,11.28 -2.44,7.75 -5.86,15.16 -8.79,22.75 -3.19,9.24 -13.32,15.05 -22.86,14.63 -17.23,-0.02 -34.46,-0.04 -51.66,0 3.26,-8.3 6.63,-16.58 9.87,-24.88 8.93,-0.18 17.88,-0.11 26.82,-0.09 -1.04,2.57 -2.08,5.15 -3.11,7.75 4.62,-0.03 9.26,0 13.9,0.11 2.38,-5.38 4.6,-10.77 6.77,-16.21 -9.72,-0.22 -19.47,0.38 -29.15,-0.22 -5.81,-0.47 -9.83,-6.8 -8.39,-12.28 2,-7.08 5.31,-13.7 7.88,-20.56zm-114.68 -14.69c13.98,0.02 27.97,0.06 41.96,-0.02 3.39,13.07 6.41,26.24 9.67,39.36 5.33,-13.06 10.55,-26.18 15.74,-39.3 11.08,-0.02 22.18,-0.06 33.31,0.02 -2.25,5.58 -4.47,11.17 -6.58,16.79 -2.33,0.24 -4.66,0.51 -6.95,0.77 -8.54,21.14 -16.87,42.34 -25.46,63.43 -8.72,-0.02 -17.45,0 -26.15,-0.02 -3.2,-13.32 -6.24,-26.69 -9.48,-39.98 -5.4,13.29 -10.7,26.66 -16.03,40 -12.28,-0.02 -24.58,0 -36.88,-0.02 6.95,-8.13 17.3,-14.08 20.39,-24.89 4.99,-13.1 10.54,-25.97 15.63,-39.03 -3,-5.75 -6.04,-11.45 -9.17,-17.11zm-220.03 0.06c13.83,-0.13 27.66,0.07 41.51,-0.11 3.42,11.37 6.95,22.71 10.28,34.12 12.61,-11.21 24.53,-23.15 37.34,-34.16 10.55,0.22 21.14,0.07 31.7,0.11 -2.26,5.53 -4.46,11.1 -6.57,16.72 -2.33,0.35 -4.66,0.71 -6.95,1.11 -5.79,15.43 -12.21,30.63 -18.22,46 1.71,0 5.1,0.02 6.81,0.02 -2.22,5.73 -4.51,11.41 -6.77,17.14 -11.05,0.06 -22.09,0.04 -33.14,0 5.48,-13.99 11.25,-27.84 16.78,-41.81 -11.57,10.35 -22.89,20.96 -34.26,31.51 -3.84,-10.5 -8.03,-20.89 -11.92,-31.4 -5.46,13.92 -11.14,27.78 -16.58,41.7 -12.21,0.06 -24.42,0.04 -36.61,0.02 5.66,-5.91 11.9,-11.32 16.76,-17.94 6.64,-15.14 12.26,-30.75 18.67,-46 -2.84,-5.73 -5.86,-11.37 -8.83,-17.03zm-93.56 -0.04c27.26,0.02 54.53,-0.04 81.79,0.02 -3.64,8.64 -7.13,17.34 -10.61,26.04 -7.73,0.05 -15.43,0.05 -23.14,-0.02 1.09,-2.97 2.2,-5.93 3.33,-8.86 -4.97,-0.02 -9.94,0.03 -14.91,0.2 -1.78,4.75 -3.62,9.48 -5.49,14.21 6.93,0.05 13.86,0.45 20.78,0.71 -2.02,4.93 -3.99,9.86 -5.88,14.83 -7.06,0.05 -14.1,0.05 -21.11,0 -2.29,5.53 -4.53,11.08 -6.71,16.67 4.93,0 9.86,0.03 14.81,0.03 1.33,-3.49 2.64,-6.95 3.97,-10.42 8.33,-0.2 16.63,-0.13 24.96,-0.11 -3.76,9.22 -7.4,18.47 -11.13,27.71 -25.77,0 -51.55,0.11 -77.32,-0.07 6.64,-7.95 16.67,-13.63 19.69,-24.11 5.2,-13.25 10.5,-26.48 15.88,-39.67 -2.89,-5.77 -5.95,-11.46 -8.91,-17.16zm-261.28 0.09c27.2,-0.2 54.42,-0.02 81.61,-0.09 -3.59,8.72 -6.81,17.6 -10.68,26.24 -7.68,-0.22 -15.36,-0.16 -23.04,-0.16 1.18,-2.97 2.35,-5.9 3.53,-8.85 -4.91,-0.02 -9.81,-0.02 -14.7,-0.02 -2.02,4.77 -3.93,9.59 -5.79,14.43 6.93,0 13.85,0.37 20.78,0.68 -2,4.98 -3.97,9.93 -6,14.88 -7.06,-0.07 -14.12,-0.07 -21.15,0.04 -2.13,5.53 -4.33,11.04 -6.51,16.54 4.84,0.02 9.7,0.05 14.57,0.05 1.44,-3.53 2.88,-7.06 4.35,-10.57 8.23,0.04 16.49,0 24.75,0.07 -3.71,9.23 -7.37,18.47 -11.1,27.7 -25.64,-0.04 -51.3,0.07 -76.97,-0.07 5.02,-6.26 11.41,-11.25 16.41,-17.51 6.68,-15.32 12.52,-31.02 18.78,-46.51 -2.98,-5.62 -5.91,-11.24 -8.84,-16.85zm-101.68 -0.09c14.61,0 29.22,-0.02 43.81,0.02 -8.33,21.34 -17.1,42.52 -25.58,63.81 4.78,0 9.57,-0.03 14.34,0 8.42,-21.27 17.08,-42.43 25.4,-63.74 11.57,-0.18 23.11,-0.07 34.7,-0.07 -2.24,5.73 -4.53,11.43 -6.82,17.16 -1.62,0 -4.86,0.03 -6.48,0.03 -6.17,15.45 -12.3,30.9 -18.58,46.28 -3.51,9.86 -13.34,17.94 -24.06,17.56 -13.28,-0.15 -26.58,0.2 -39.86,-0.15 -6.83,-0.14 -11.03,-8.19 -8.01,-14.1 6.37,-16.72 13.25,-33.28 19.91,-49.88 -3.08,-5.58 -5.97,-11.22 -8.77,-16.92zm-91.15 -0.02c17,0.13 34.01,-0.18 51.04,0.17 -2.27,5.55 -4.46,11.15 -6.53,16.79 -2.37,0.13 -4.73,0.27 -7.08,0.42 -5.97,15.56 -12.48,30.93 -18.58,46.44 3.77,0 7.57,0 11.36,0 1.85,-4.66 3.76,-9.3 5.71,-13.89 8.95,0.06 17.87,0.04 26.8,0.02 -4.07,10.39 -8.26,20.73 -12.39,31.1 -25.69,0 -51.35,-0.02 -77.02,0 7.11,-7.95 16.68,-14.54 19.98,-25.13 5.02,-13.1 10.53,-25.97 15.66,-39.03 -3.02,-5.62 -6.11,-11.19 -8.95,-16.89zm1026.38 -780.89c32.03,-0.02 64.09,0.05 96.15,-0.02 -4.71,12.77 -9.64,25.44 -14.23,38.25 -5.51,0.05 -11.01,0.07 -16.5,0.14 -19.82,53.68 -39.98,107.23 -59.81,160.91 18.36,-0.05 36.75,0 55.11,-0.03 3.21,-8.9 6.59,-17.73 9.87,-26.61 18.14,-0.05 36.28,-0.03 54.42,0 -5.86,15.29 -10.01,32.14 -21.89,44.15 -12.88,12.68 -31.68,16.74 -49.18,17.41 -46.2,0.02 -92.4,0.09 -138.57,-0.02 8.01,-8.48 17.71,-15.43 25.02,-24.51 22.44,-59.17 44.27,-118.62 66.42,-177.9 1.71,-3.19 0.09,-6.57 -0.62,-9.76 -2.13,-7.33 -4.17,-14.66 -6.19,-22.01zm-239.39 0c26.55,-0.02 53.1,0.03 79.68,-0.02 -24.78,66.4 -49.44,132.85 -74.24,199.23 14.32,0.09 28.64,0.04 42.96,0.02 24.79,-66.42 49.44,-132.89 74.3,-199.29 25.09,0.15 50.2,0.02 75.28,0.06 -4.75,12.77 -9.41,25.58 -14.27,38.3 -4.78,0 -9.55,0 -14.3,0.04 -20.45,54.71 -40.71,109.48 -61.18,164.16 -7.88,20.93 -31.71,30.01 -52.4,31.63 -27.33,0.25 -54.66,0.02 -81.96,0.09 -10.39,-10.37 -20.94,-20.6 -30.82,-31.46 21.63,-58.03 43.25,-116.06 64.85,-174.09 -2.64,-9.55 -5.37,-19.07 -7.9,-28.67zm-684.4 0.05c61.63,-0.11 123.28,0.02 184.91,-0.07 -6.82,18.52 -13.77,36.99 -20.63,55.5 -18.16,0 -36.32,0.09 -54.48,-0.04 2.42,-6.66 4.93,-13.3 7.39,-19.91 -16.89,0 -33.81,0 -50.7,0 -7.57,19.91 -14.99,39.89 -22.33,59.91 17.07,0.09 34.14,-0.02 51.21,0.05 -4.22,11.88 -8.83,23.58 -13.1,35.43 -17.16,0.18 -34.32,-0.04 -51.46,0.11 -8.39,22.74 -16.96,45.4 -25.31,68.16 17.5,0.11 35.01,0.09 52.53,0.02 3.22,-8.9 6.51,-17.76 9.88,-26.6 18.18,0 36.34,0 54.52,0 -6.83,15.32 -9.16,33.77 -22.48,45.27 -13.88,11.77 -32.57,15.61 -50.29,16.32 -44.89,0.06 -89.76,-0.02 -134.62,0.04 7.59,-6.9 14.94,-14.09 22.53,-21.04 2.73,-2.09 3.64,-5.51 4.86,-8.57 21.51,-58.3 43.54,-116.42 64.92,-174.77 -0.74,-10.07 -5.27,-19.82 -7.35,-29.81zm-261.04 -61.56c60.41,-0.14 120.82,-0.14 181.23,0 13.23,13.89 27.55,26.68 40.94,40.42 -26.47,71.31 -53.09,142.55 -79.59,213.84 -4.8,13.08 -13.39,25.13 -25.6,32.21 -11.19,6.71 -24.35,9.13 -37.23,9.62 -53.82,-0.8 -107.65,-0.12 -161.47,-0.38 33.64,-88.83 66.96,-177.76 100.66,-266.54 -6.24,-9.79 -12.79,-19.36 -18.94,-29.17zm91.38 47.08l0 0c-25.11,67.34 -50.15,134.69 -75.26,202.03 16.47,-0.16 32.97,0.33 49.44,-0.27 24.71,-67.35 50,-134.49 75,-201.73 -16.39,-0.05 -32.79,-0.03 -49.18,-0.03zm410.65 -47.17c58.12,0.06 116.24,-0.16 174.36,0.11 13.27,13.61 26.86,26.91 40.25,40.4 -14.45,38.74 -28.66,77.6 -43.4,116.2 -10.08,23.27 -36.57,33.5 -60.37,34.66 -24.22,0.35 -48.44,-0.09 -72.66,0.2 -7.5,20.53 -15.27,40.98 -22.82,61.51 8.92,0.03 17.87,-0.02 26.79,0.05 -4.28,12.96 -9.9,26.75 -21.86,34.48 -9.35,6.12 -20.78,8.45 -31.84,8.25 -29.84,-0.13 -59.67,0.07 -89.49,-0.11 9.44,-7.81 18.76,-15.76 28.22,-23.55 2.44,-1.67 3.51,-4.44 4.53,-7.11 28.88,-77.92 58.05,-155.75 86.93,-233.7 -6.17,-10.5 -12.38,-20.96 -18.64,-31.39zm55.63 144.83l0 0c15.03,-0.06 30.04,0.25 45.07,-0.17 11.7,-32.62 24.17,-64.94 36.1,-97.49 -14.88,-0.06 -29.75,0.14 -44.63,-0.11 -12.41,32.5 -24.26,65.23 -36.54,97.77zm192.52 -83.25c48.2,0.05 96.4,0.02 144.57,0.02 -4.59,12.84 -9.45,25.56 -14.25,38.32 -6.62,-0.04 -13.25,-0.02 -19.87,0 -9.43,52.55 -19.11,105.03 -28.41,157.6 6.17,0 12.34,0 18.51,0.03 -4.46,12.3 -8.37,27.26 -21.56,32.99 -20.15,8.59 -42.64,4.21 -63.89,5.28 4.93,-20.89 9.66,-41.8 14.61,-62.69 -15.72,-0.07 -31.42,0 -47.11,-0.05 -10.57,20.98 -21.09,41.96 -31.99,62.74 -24.91,0 -49.82,0.02 -74.71,0 9.33,-8.3 19.83,-15.41 28.29,-24.6 34.21,-60.03 68.2,-120.24 102.3,-180.36 -2.11,-9.76 -4.35,-19.51 -6.49,-29.28zm46.98 44.96l0 0c-14.85,29.9 -30.39,59.45 -45.22,89.35 12.12,0.05 24.26,-0.02 36.41,0.07 7.06,-29.77 13.83,-59.58 20.69,-89.4 -3.98,-0.02 -7.93,-0.02 -11.88,-0.02zm-735.57 736.57c24.46,-0.07 48.95,-0.07 73.42,-0.02 3.48,-0.18 6.83,2.19 7.37,5.77 1.26,14.41 -7.29,30.48 -22.49,33.12 4.66,1.82 10.16,6.6 7.5,12.12 -4.2,11.28 -7.9,26.6 -21.69,29.24 -23.44,0.45 -46.93,0.11 -70.37,0.13 6.63,-8.03 16.76,-13.69 19.91,-24.15 5.15,-13.3 10.74,-26.42 15.94,-39.69 -3.24,-5.49 -6.51,-10.97 -9.59,-16.52zm36.94 17.2l0 0c-1.95,4.8 -3.84,9.62 -5.66,14.46 4.82,-0.05 9.66,-0.07 14.5,-0.09 1.88,-4.84 3.86,-9.64 5.88,-14.43 -4.91,0 -9.81,0.02 -14.72,0.06zm-12.17 30.51l0 0c-2.19,5.35 -4.35,10.72 -6.41,16.14 4.93,-0.07 9.9,-0.07 14.85,-0.11 2.15,-5.35 4.26,-10.7 6.37,-16.05 -4.95,-0.03 -9.88,0 -14.81,0.02zm430.18 -48.31c23.89,0.09 47.78,-0.16 71.67,0.11 7.15,-0.49 11.03,7.73 8.15,13.7 -7.09,18.16 -14.5,36.21 -21.65,54.35 -2.8,8.05 -11.46,12.96 -19.76,12.87 -21.55,0.05 -43.09,-0.09 -64.65,0.05 5.51,-6.18 11.75,-11.73 16.88,-18.19 6.46,-15.16 12.18,-30.61 18.51,-45.84 -3.06,-5.68 -6.06,-11.39 -9.15,-17.05zm36.68 17.74l0 0c-6.19,15.54 -12.43,31.08 -18.65,46.62 4.77,0 9.57,0.02 14.37,0.07 6.3,-15.52 12.47,-31.11 18.69,-46.65 -4.82,-0.04 -9.61,-0.04 -14.41,-0.04zm314.98 -0.02l0 0c-6.24,15.56 -12.7,31.01 -18.76,46.64 4.62,0 9.26,0.02 13.9,0.02 6.22,-15.52 12.45,-31.04 18.63,-46.58 -4.62,-0.04 -9.19,-0.06 -13.77,-0.08z"/>
   <path class="fil1" d="M720.57 125.41c30.88,-12.14 63.58,-20.13 96.75,-22.13 -24.06,27.55 -44.33,60.5 -48.71,97.46 -4.08,31.55 6.75,65.8 31.68,86.36 23.36,19.29 54.24,25.75 83.7,28.15 -16.25,-20.45 -32.52,-40.87 -48.8,-61.32 114.03,-0.06 228.05,0.02 342.07,-0.04 20.16,20.76 39.96,41.85 59.96,62.78 50.36,-0.11 100.71,0.02 151.06,-0.09 26.22,-1.33 53.68,-7.08 74.5,-24 17.7,-14.05 27.62,-36.43 28.31,-58.81 1.57,-37.96 -13.34,-74.26 -30.84,-107.18 73.73,8.73 139.07,54.01 183.67,111.87 18.69,24.04 33.74,50.77 45.77,78.72 60.46,0.02 120.91,-0.06 181.38,0.05 -21.24,57.58 -42.87,115 -64.16,172.54 31.02,0.07 62.05,-0.04 93.09,0.07 -14.45,39.54 -29.28,78.94 -43.98,118.39 -8.5,21.94 -19.25,44.6 -39.05,58.57 -22.51,15.89 -50.82,19.82 -77.66,21.6 -19,1.24 -38.03,0.33 -57.05,0.71 -40.27,111.4 -103.92,212.9 -176.3,306.12 67.63,39.1 135.67,77.46 203.14,116.8 -16.83,43.89 -33.39,87.89 -50.29,131.76 -9.39,23.07 -23.31,46.24 -46.17,57.99 -23.94,12.16 -51.55,10.57 -77.59,10.54 -112.34,-0.02 -224.67,0.05 -336.99,-0.02 -75.17,64.65 -153.25,125.81 -233.19,184.42 -61.19,-58.19 -119.44,-119.51 -173.48,-184.4 -134.73,-0.04 -269.47,0.09 -404.2,-0.06 12.63,-33.57 26.15,-66.83 38.07,-100.66 -44.91,-36.92 -89.47,-74.24 -134.29,-111.27 29.15,-0.29 58.32,0.51 87.45,-0.6 87.13,0.04 174.27,0 261.39,0.02 -27.27,-45.64 -52.24,-92.71 -73.8,-141.33 -78.83,-7.21 -157.71,-14.14 -236.55,-21.31 -7.68,-0.67 -15.42,-1.02 -22.95,-2.73 78.21,-11.39 156.25,-24.11 234.39,-36.12 -3.26,-8.61 -6.46,-17.25 -9.54,-25.93 -106.5,-13.7 -213,-27.33 -319.45,-41.34 98.95,-10.16 197.99,-19.51 296.98,-29.41 -2.22,-7.57 -4,-15.25 -6.39,-22.76 -134.16,-18.89 -268.37,-37.54 -402.5,-56.72 106.03,-8.1 212.1,-15.36 318.16,-23.13 22.22,-1.87 44.6,-2.69 66.75,-5.22 0.03,-1.16 0.09,-3.46 0.11,-4.62 -120.48,-0.27 -240.94,0.09 -361.4,-0.18 59.28,-25.86 118.77,-51.3 178.18,-76.9 31.93,-83.16 63.27,-166.55 94.96,-249.8 -22.89,-35.7 -46.6,-70.89 -69.49,-106.58 78.34,-0.23 156.69,-0.09 235.03,-0.07 39.1,-57.08 93.65,-104.48 158.27,-130.19zm517.16 740.02c22.58,4.48 45.16,9.01 67.74,13.63 1.69,5.72 1.11,11.9 -3.4,16.23 -21.47,-9.93 -43.04,-19.59 -64.34,-29.86zm-258.25 -169.82c57.98,-5.77 116.79,-4.08 174.34,5.2 46.37,7.55 92.11,21 133.76,43.02 -2.69,8.33 -8.44,15.41 -16.68,18.72 -8.08,-4.77 -16.38,-9.15 -24.86,-13.12 -83.14,-38.41 -175.5,-53.15 -266.56,-53.82zm-391.82 -418.88l0 0c-68.05,-0.13 -136.09,-0.08 -204.14,-0.02 17.65,27.95 36.48,55.17 54.06,83.19 -34.45,89.27 -67.93,178.91 -102.3,268.2 -37.87,13.23 -75.75,26.38 -113.53,39.81 99.01,0.13 198.05,-0.02 297.06,0.06 2.27,15.37 4.93,30.68 7.71,45.96 -94.78,4.11 -189.57,7.9 -284.35,11.57 49.8,7.26 99.93,12.3 149.86,18.67 113.17,13.74 226.33,27.41 339.51,41.13 55.03,6.91 110.2,12.81 165.13,20.43 -50.62,2.09 -101.19,4.86 -151.79,6.97 -49.79,-7.88 -99.86,-14.19 -149.76,-21.45 -17.54,-2.48 -35.06,-4.88 -52.57,-7.43 3.44,12.78 7.14,25.51 10.72,38.29 -71.6,2.69 -143.11,7.17 -214.68,9.64 3.24,1.02 6.61,1.75 10.03,2.02 201.56,16.58 403.1,33.54 604.66,49.97 -64.23,6.48 -128.61,11.83 -192.92,17.61 -46.36,-6.53 -92.85,-12.1 -139.27,-18.16 -16.54,-2.22 -33.12,-4.22 -49.68,-6.46 4.57,13.58 9.74,26.97 14.89,40.38 -46.68,4.55 -93.51,7.86 -140.1,13.07 188.3,8.4 376.61,16.65 564.89,25.34 12.5,16.4 25.15,32.7 37.45,49.26 -13.36,2.31 -26.73,4.73 -40.07,7.13 -6.04,-8.44 -12.52,-16.5 -18.43,-25 -113.18,-9.11 -226.44,-17.43 -339.67,-26.11 -15.87,-1.31 -31.79,-2.44 -47.66,-3.71 20.96,48.64 44.47,96.17 70.75,142.13 274.2,-0.05 548.42,0 822.62,0 -35.07,-38.05 -69.8,-76.41 -105.65,-113.73 2.2,-5.6 4.51,-11.15 6.82,-16.7 -5.31,-3.17 -13.06,-6.26 -13.79,-13.16 5.88,-12.33 19.05,-18.81 29.24,-27.15 -17.56,-18.65 -35.7,-36.77 -53.15,-55.53 2.84,-8.12 5.48,-16.32 8.24,-24.46 -7.49,-10.86 -15.32,-21.54 -24.31,-31.22 22.31,-5.21 45.86,-11.9 62.76,-28.24 9.94,-9.25 11.39,-24.73 5.48,-36.58 -9.59,-19.98 -28.02,-33.55 -45.55,-46.18 21.4,9.86 42.55,21.98 58.52,39.63 10.27,11.1 16,28.55 7.41,42.31 -11.54,18.74 -32.88,28.37 -52.95,35.26 3.6,5.95 7.53,11.7 11.26,17.56 -4.04,10.68 -8.55,21.13 -12.75,31.74 20.54,19.85 41.52,39.23 62.17,58.97 -12.32,8.7 -24.42,17.67 -36.66,26.48 4.53,4.58 9.04,9.13 13.7,13.55 -3.08,5.24 -6.33,10.41 -9.59,15.54 3.89,3.84 7.9,7.55 12.03,11.16 45.29,41.03 90.67,81.99 135.96,123.04 -108.14,-0.64 -216.26,0.91 -324.42,0.44 -133.24,-0.02 -266.49,0.03 -399.74,-0.02 -32.5,1.13 -65.05,0.33 -97.57,0.58 -128.52,-0.02 -257.02,0 -385.54,-0.02 34.48,28.39 69.05,56.7 103.68,84.91 -10.21,27.73 -21.56,55.06 -32.06,82.7 379.21,0.07 758.42,0 1137.63,0.05 17.42,-0.32 35.56,-3.58 50.17,-13.64 14.85,-9.76 24.64,-25.46 31.01,-41.71 14.3,-37.45 28.73,-74.84 43.01,-112.29 -71.4,-40.36 -142.89,-80.61 -214.31,-120.93 76.86,-101.5 143.31,-212.5 184.07,-333.58 33.5,-0.45 67.38,1.77 100.41,-5.02 15.76,-3.18 31.26,-9.41 43.2,-20.45 14.81,-13.9 23.27,-32.9 30.73,-51.44 10.06,-26.68 19.94,-53.46 29.93,-80.16 -36.55,-0.09 -73.11,-0.07 -109.65,-0.02 4.86,-12.93 9.63,-25.89 14.43,-38.86 5.44,-0.02 10.88,-0.02 16.34,0.03 16.67,-44.58 33.25,-89.21 49.84,-133.81 -54.73,-0.02 -109.45,0.05 -164.15,-0.02 -12.81,-33.03 -31.35,-63.83 -54.71,-90.47 -26.06,-29.63 -57.94,-53.92 -92.64,-72.64 9.55,38.79 9.64,83.77 -14.38,117.51 -21.72,30.44 -60.7,41.69 -96.44,42.8 -61.1,0 -122.2,0.2 -183.29,-0.11 -19.21,-19.53 -38.87,-38.6 -57.68,-58.54 -92.47,-0.29 -184.95,-0.13 -277.42,-0.07 14.32,19.76 29.24,39.05 43.78,58.66 -40.29,-0.85 -82.05,4.33 -120.81,-9.53 -28.24,-9.68 -52.82,-30.72 -64.41,-58.52 -15.85,-36.81 -12.3,-79.92 4.33,-115.84 -64.05,25.4 -121.08,68.89 -160.95,125.23zm285.21 1035.04l0 0c-17.39,0.02 -34.77,-0.07 -52.15,0.06 44.22,52.75 92.15,102.66 145.08,146.75 68.93,-45.56 136.22,-93.77 199.72,-146.72 -20.27,-0.2 -40.54,-0.09 -60.79,-0.07 -77.3,-0.07 -154.58,-0.02 -231.86,-0.02z"/>
   <path class="fil2" d="M587.66 276.73c39.87,-56.34 96.9,-99.83 160.95,-125.23 -16.63,35.92 -20.18,79.03 -4.33,115.84 11.59,27.8 36.17,48.84 64.41,58.52 38.76,13.86 80.52,8.68 120.81,9.53 -14.54,-19.61 -29.46,-38.9 -43.78,-58.66 92.47,-0.06 184.95,-0.22 277.42,0.07 18.81,19.94 38.47,39.01 57.68,58.54 61.09,0.31 122.19,0.11 183.29,0.11 35.74,-1.11 74.72,-12.36 96.44,-42.8 24.02,-33.74 23.93,-78.72 14.38,-117.51 34.7,18.72 66.58,43.01 92.64,72.64 23.36,26.64 41.9,57.44 54.71,90.47 54.7,0.07 109.42,0 164.15,0.02 -16.59,44.6 -33.17,89.23 -49.84,133.81 -5.46,-0.05 -10.9,-0.05 -16.34,-0.03 -4.8,12.97 -9.57,25.93 -14.43,38.86 36.54,-0.05 73.1,-0.07 109.65,0.02 -9.99,26.7 -19.87,53.48 -29.93,80.16 -7.46,18.54 -15.92,37.54 -30.73,51.44 -11.94,11.04 -27.44,17.27 -43.2,20.45 -33.03,6.79 -66.91,4.57 -100.41,5.02 -40.76,121.08 -107.21,232.08 -184.07,333.58 71.42,40.32 142.91,80.57 214.31,120.93 -14.28,37.45 -28.71,74.84 -43.01,112.29 -6.37,16.25 -16.16,31.95 -31.01,41.71 -14.61,10.06 -32.75,13.32 -50.17,13.64 -379.21,-0.05 -758.42,0.02 -1137.63,-0.05 10.5,-27.64 21.85,-54.97 32.06,-82.7 -34.63,-28.21 -69.2,-56.52 -103.68,-84.91 128.52,0.02 257.02,0 385.54,0.02 32.52,-0.25 65.07,0.55 97.57,-0.58 133.25,0.05 266.5,0 399.74,0.02 108.16,0.47 216.28,-1.08 324.42,-0.44 -45.29,-41.05 -90.67,-82.01 -135.96,-123.04 77.42,-100.59 143.04,-211.24 185.98,-330.98 -343.67,-0.23 -687.35,0 -1031.04,-0.12 1.55,14.88 3.35,29.73 5.66,44.52 133.2,-5.4 266.38,-10.68 399.57,-16.28 91.06,0.67 183.42,15.41 266.56,53.82 8.48,3.97 16.78,8.35 24.86,13.12 -27.15,9.32 -56.32,5.75 -84.47,6.15 -8.77,0.66 -16.47,-4.27 -24.66,-6.53 -87.3,-27.64 -180.03,-29.59 -270.74,-26.13 -63.83,-0.27 -127.65,1.84 -191.48,0.44 4.33,0.6 8.68,1.25 13.03,1.69 90.09,5.15 180.14,10.95 269.98,19.41 43,4.21 87.34,7.54 127.05,26.04 19.25,9.1 38.55,23.15 44.45,44.73 -14.72,-3.91 -29.35,-8.01 -44.02,-11.99 11.5,22.11 23.44,44 34.9,66.14 -45.43,-15.9 -90.6,-32.53 -136.09,-48.27 18.51,28.51 38.07,56.95 63.56,79.7 10.12,8.37 22.38,17.32 36.23,15.66 7.37,-1.2 9.95,-8.82 12.34,-14.79 25.02,7.66 50.02,15.36 75.02,23.09 -18.83,6.33 -37.77,12.28 -56.55,18.76 16.92,30.01 37.1,61.43 69.42,76.52 -109.84,11.99 -219.56,25.05 -329.36,37.39 -24.29,3.11 -48.76,4.97 -72.95,8.63 184.82,-7.59 369.66,-15.31 554.5,-22.48 -11.21,-14.77 -22.2,-29.69 -33.43,-44.41 13.89,0.07 27.81,-0.02 41.71,0.07 -4.71,-6.15 -9.3,-12.41 -13.74,-18.76 -12.01,1.4 -23.93,3.38 -35.92,4.91 -9.28,0.62 -14.32,9.72 -21.25,14.72 1.71,-9.19 3.64,-18.32 5.35,-27.49 12.61,-4.95 25.35,-9.63 37.97,-14.63 -21.96,-34.7 -55.73,-60.05 -91.32,-79.54 -16.05,-9.08 -33.21,-15.92 -50.1,-23.18 -8.33,-10.52 -14.99,-22.29 -22.67,-33.28 35.57,6.53 71.26,12.26 106.87,18.65 -4.3,-9.63 -9.85,-18.65 -16.42,-26.88 -20.85,3.55 -42.52,1.08 -62.1,-6.82 -7.64,-3.11 -13.56,-9.01 -19.23,-14.79 33.7,4.36 69.65,2.36 100.33,-13.52 13.23,-7.01 26.28,-18.27 28.57,-33.9 2.29,-15.09 -5.79,-29.39 -15.54,-40.25 -11.12,-12.52 -24.95,-22.06 -38.96,-31.03 25.93,10.68 52.53,23.46 70.73,45.55 10.15,12.19 14.21,29.42 7.9,44.38 10.39,-3.42 21.78,-7.17 28.15,-16.76 5.27,-7.61 3.47,-17.67 -0.46,-25.46 -9.08,-18.39 -24.87,-31.97 -39.65,-45.65 13.81,3.36 26.04,10.77 38.32,17.63 17.53,12.63 35.96,26.2 45.55,46.18 5.91,11.85 4.46,27.33 -5.48,36.58 -16.9,16.34 -40.45,23.03 -62.76,28.24 8.99,9.68 16.82,20.36 24.31,31.22 -2.76,8.14 -5.4,16.34 -8.24,24.46 17.45,18.76 35.59,36.88 53.15,55.53 -10.19,8.34 -23.36,14.82 -29.24,27.15 0.73,6.9 8.48,9.99 13.79,13.16 -2.31,5.55 -4.62,11.1 -6.82,16.7 35.85,37.32 70.58,75.68 105.65,113.73 -274.2,0 -548.42,-0.05 -822.62,0 -26.28,-45.96 -49.79,-93.49 -70.75,-142.13 15.87,1.27 31.79,2.4 47.66,3.71 14.9,36.23 32.04,71.53 50.67,105.98 102.47,-18.24 204.95,-36.58 307.43,-54.87 13.34,-2.4 26.71,-4.82 40.07,-7.13 -12.3,-16.56 -24.95,-32.86 -37.45,-49.26 -188.28,-8.69 -376.59,-16.94 -564.89,-25.34 46.59,-5.21 93.42,-8.52 140.1,-13.07 -5.15,-13.41 -10.32,-26.8 -14.89,-40.38 16.56,2.24 33.14,4.24 49.68,6.46 3.49,9.96 6.86,19.98 10.53,29.88 42.91,-3.95 85.84,-7.62 128.74,-11.72 64.31,-5.78 128.69,-11.13 192.92,-17.61 -201.56,-16.43 -403.1,-33.39 -604.66,-49.97 -3.42,-0.27 -6.79,-1 -10.03,-2.02 71.57,-2.47 143.08,-6.95 214.68,-9.64 -3.58,-12.78 -7.28,-25.51 -10.72,-38.29 17.51,2.55 35.03,4.95 52.57,7.43 2.24,9.46 4.53,18.94 7.1,28.33 47.55,-2.31 95.13,-4.35 142.66,-6.88 50.6,-2.11 101.17,-4.88 151.79,-6.97 -54.93,-7.62 -110.1,-13.52 -165.13,-20.43 -113.18,-13.72 -226.34,-27.39 -339.51,-41.13 -49.93,-6.37 -100.06,-11.41 -149.86,-18.67 94.78,-3.67 189.57,-7.46 284.35,-11.57 -2.78,-15.28 -5.44,-30.59 -7.71,-45.96 -99.01,-0.08 -198.05,0.07 -297.06,-0.06 37.78,-13.43 75.66,-26.58 113.53,-39.81 34.37,-89.29 67.85,-178.93 102.3,-268.2 -17.58,-28.02 -36.41,-55.24 -54.06,-83.19 68.05,-0.06 136.09,-0.11 204.14,0.02zm517.07 1035.06c20.25,-0.02 40.52,-0.13 60.79,0.07 -63.5,52.95 -130.79,101.16 -199.72,146.72 -52.93,-44.09 -100.86,-94 -145.08,-146.75 17.38,-0.13 34.76,-0.04 52.15,-0.06 30.5,34.74 62.38,68.33 96.02,100.06 46.44,-31.71 91.84,-64.98 135.84,-100.04zm137.53 -803.19c5.2,-10.33 10.08,-20.83 15.99,-30.77 -2.27,10.3 -4.62,20.6 -7.11,30.88 -2.97,-0.05 -5.92,-0.07 -8.88,-0.11zm-168.57 -125.9c6.84,-0.03 13.7,-0.03 20.58,0 -9.3,24.99 -18.51,49.99 -27.97,74.92 -6.81,-0.02 -13.61,-0.02 -20.4,-0.04 9.1,-25.02 18.58,-49.91 27.79,-74.88zm-502.59 -0.03c8.3,0 16.6,0 24.9,0.03 -22.35,59.72 -44.35,119.59 -66.86,179.27 -8.31,-0.03 -16.61,-0.03 -24.89,-0.03 22.31,-59.74 44.45,-119.55 66.85,-179.27zm74.37 -105.47l0 0c8.77,0.07 17.54,-0.04 26.3,0.09 20.59,20.58 41.21,41.14 62.43,61.05 -26.3,-32.9 -40.56,-76.08 -33.72,-118.17 -21.93,15.07 -40.32,34.92 -55.01,57.03zm908.6 -31.9l0 0c-0.46,34.19 -13.76,67.33 -35.52,93.48 29.99,0.09 59.96,0.05 89.96,0 -8.91,-35.45 -28.49,-67.89 -54.44,-93.48zm-1103.32 68.04l0 0c9.08,13.79 17.98,27.71 27.19,41.41 -34.59,92.44 -69.73,184.66 -104.34,277.08 59.27,0.07 118.57,0.05 177.85,0.02 21.56,-0.26 44.18,-7.28 58.65,-24 11.37,-12.01 15.79,-28.28 21.58,-43.33 25.13,-67.45 50.17,-134.91 75.42,-202.31 -13.63,-14.37 -28.46,-27.51 -42.14,-41.81 -3.35,-2.77 -6.19,-7.64 -11.14,-7.1 -67.69,0.02 -135.38,-0.05 -203.07,0.04zm503.33 0.02l0 0c8.46,14.59 17.27,28.98 25.82,43.52 -28,75.41 -56.19,150.76 -84.19,226.18 -0.91,2.44 -2,4.9 -4.13,6.52 -16.23,13.77 -32.81,27.15 -48.88,41.1 0.09,0.29 0.26,0.89 0.35,1.17 39.01,0.07 78.04,-0.02 117.07,0.05 16.67,-0.05 34.45,-3.78 46.88,-15.65 14.08,-13.1 18.28,-32.62 25.05,-49.87 -8.91,-0.02 -17.81,0.05 -26.71,-0.06 4.77,-12.95 9.61,-25.84 14.39,-38.79 27.41,-0.88 55.16,2.25 82.29,-2.71 23.16,-4.24 45.71,-18.62 54.24,-41.33 15.05,-40.63 30.55,-81.08 45.18,-121.86 -16.43,-15.88 -32.33,-32.28 -48.58,-48.33 -66.27,0.04 -132.51,-0.09 -198.78,0.06zm-236.35 60.99l0 0c3.02,11.5 6.31,22.91 9.57,34.34 0.71,2.76 1.69,5.69 0.35,8.44 -21.02,56.54 -42.15,113.07 -63.13,169.63 -0.8,2.56 -2.38,4.76 -4.42,6.51 -13.72,12.76 -27.35,25.64 -41.03,38.5 52.24,0.26 104.45,0.02 156.67,0.11 19.8,-0.36 40.54,-3.16 57.48,-14.19 10.54,-6.57 18.38,-16.96 22.64,-28.57 5.29,-14.01 10.5,-28.06 15.63,-42.14 -26.15,-0.11 -52.28,0.11 -78.41,-0.11 -3.8,8.79 -6.57,17.98 -10.3,26.8 -9.39,-0.14 -18.76,-0.05 -28.13,-0.09 5.57,-15.21 11.3,-30.33 16.92,-45.49 17.11,0 34.23,0.04 51.35,-0.02 7.15,-19.25 14.41,-38.46 21.46,-57.73 -17.11,0.03 -34.21,0.03 -51.3,0 4.62,-12.63 9.32,-25.24 14.19,-37.78 8.79,0.11 17.58,0.07 26.39,0.07 -2.48,6.85 -5.1,13.65 -7.57,20.51 26.15,0.11 52.33,-0.11 78.48,0.11 10.08,-26.2 19.72,-52.55 29.46,-78.88 -72.11,-0.07 -144.19,-0.02 -216.3,-0.02zm490.06 0.04l0 0c2.62,13.06 5.77,25.98 8.61,38.99 -32.46,57.48 -65.16,114.8 -97.59,172.27 -1.36,2.31 -2.85,4.58 -4.91,6.31 -15.7,13.28 -31.64,26.33 -47.15,39.83 37.58,0.2 75.15,0.02 112.73,0.09 10.64,-21.12 21.4,-42.16 32.19,-63.23 8.53,-0.07 17.07,-0.05 25.64,-0.07 -4.77,21.09 -9.72,42.16 -14.58,63.23 27.35,-1.27 56.19,4.06 82.34,-6.19 21.67,-9.53 25.44,-35.19 33.59,-54.75 -7.11,-0.07 -14.16,-0.07 -21.25,0.04 7.97,-45 16.23,-89.95 24.36,-134.93 6.06,-0.02 12.12,-0.02 18.2,-0.02 7.77,-20.5 15.34,-41.05 23,-61.61 -58.39,0.02 -116.8,-0.05 -175.18,0.04zm194.3 -0.02l0 0c3.02,10.75 5.88,21.51 9.01,32.21 0.8,3.45 2.51,7.06 0.89,10.55 -21.51,58.28 -43.47,116.38 -64.89,174.67 13.23,13.26 25.93,27.02 39.38,40.05 27.31,0 54.61,0.07 81.92,-0.02 20.91,-0.8 42.89,-7.3 57.61,-22.89 8.73,-8.92 11.59,-21.44 16.05,-32.7 17.61,-46.75 34.59,-93.77 52.53,-140.4 4.66,0.09 9.34,0.14 14.05,0.14 7.57,-20.56 15.39,-41.03 22.84,-61.61 -33.16,-0.04 -66.35,-0.07 -99.54,0.02 -24.73,66.43 -49.31,132.9 -74.31,199.23 -6.19,-0.04 -12.39,-0.02 -18.56,-0.02 24.56,-66.47 49.58,-132.76 74.04,-199.25 -37.01,0 -74.02,-0.05 -111.02,0.02zm239.5 -0.07l0 0c3.35,13.28 7.63,26.33 10.76,39.66 -20.13,56.27 -41.73,112.13 -62.29,168.3 -1.42,3.51 -2.42,7.44 -5.29,10.1 -13.83,13.23 -27.95,26.17 -41.73,39.45 54.26,0.13 108.51,0.07 162.75,0.02 22.89,-0.53 48.11,-5.24 64.05,-23.13 15.1,-17.5 19.45,-40.94 28.19,-61.72 -26.19,-0.04 -52.41,0 -78.61,-0.02 -3.42,8.81 -6.61,17.74 -9.88,26.62 -10.32,0.02 -20.64,0.04 -30.95,-0.03 16.99,-45.88 34.08,-91.75 51.22,-137.59 5.42,0 10.86,0 16.3,0 7.59,-20.54 15.47,-40.96 22.82,-61.59 -42.45,-0.09 -84.9,0.05 -127.34,-0.07zm-403.86 491.13l0 0c21.3,10.27 42.87,19.93 64.34,29.86 4.51,-4.33 5.09,-10.51 3.4,-16.23 -22.58,-4.62 -45.16,-9.15 -67.74,-13.63zm92.69 15.38l0 0c5.57,15.81 10.88,31.7 16.12,47.62 10.68,-1.22 21.29,-3.11 32.04,-3.93 -16.12,-14.5 -32.17,-29.06 -48.16,-43.69zm-919.44 265.63l0 0c23.25,18.52 46.78,36.68 70.07,55.15 -9.41,21.75 -19,43.42 -28.35,65.2 367.44,0.04 734.88,-0.02 1102.3,0.04 13.04,-0.17 26.84,-1.97 37.7,-9.76 11.28,-7.73 17.94,-20.32 22.67,-32.77 9.85,-26 19.93,-51.91 29.77,-77.93 -411.4,0.05 -822.78,-0.08 -1234.16,0.07z"/>
   <path class="fil3" d="M410.98 1146.44c411.38,-0.15 822.76,-0.02 1234.16,-0.07 -9.84,26.02 -19.92,51.93 -29.77,77.93 -4.73,12.45 -11.39,25.04 -22.67,32.77 -10.86,7.79 -24.66,9.59 -37.7,9.76 -367.42,-0.06 -734.86,0 -1102.3,-0.04 9.35,-21.78 18.94,-43.45 28.35,-65.2 -23.29,-18.47 -46.82,-36.63 -70.07,-55.15zm461.89 165.33c77.28,0 154.56,-0.05 231.86,0.02 -44,35.06 -89.4,68.33 -135.84,100.04 -33.64,-31.73 -65.52,-65.32 -96.02,-100.06zm-314.81 -96.55c4.93,-0.02 9.86,-0.05 14.81,-0.02 -2.11,5.35 -4.22,10.7 -6.37,16.05 -4.95,0.04 -9.92,0.04 -14.85,0.11 2.06,-5.42 4.22,-10.79 6.41,-16.14zm781.84 -30.59c4.58,0.02 9.15,0.04 13.77,0.08 -6.18,15.54 -12.41,31.06 -18.63,46.58 -4.64,0 -9.28,-0.02 -13.9,-0.02 6.06,-15.63 12.52,-31.08 18.76,-46.64zm-314.98 0.02c4.8,0 9.59,0 14.41,0.04 -6.22,15.54 -12.39,31.13 -18.69,46.65 -4.8,-0.05 -9.6,-0.07 -14.37,-0.07 6.22,-15.54 12.46,-31.08 18.65,-46.62zm-454.69 0.06c4.91,-0.04 9.81,-0.06 14.72,-0.06 -2.02,4.79 -4,9.59 -5.88,14.43 -4.84,0.02 -9.68,0.04 -14.5,0.09 1.82,-4.84 3.71,-9.66 5.66,-14.46zm80.14 -223.91c113.23,8.68 226.49,17 339.67,26.11 5.91,8.5 12.39,16.56 18.43,25 -102.48,18.29 -204.96,36.63 -307.43,54.87 -18.63,-34.45 -35.77,-69.75 -50.67,-105.98zm-29.28 -77.61c46.42,6.06 92.91,11.63 139.27,18.16 -42.9,4.1 -85.83,7.77 -128.74,11.72 -3.67,-9.9 -7.04,-19.92 -10.53,-29.88zm709.33 -2.38c15.99,14.63 32.04,29.19 48.16,43.69 -10.75,0.82 -21.36,2.71 -32.04,3.93 -5.24,-15.92 -10.55,-31.81 -16.12,-47.62zm-735.3 -89.56c49.9,7.26 99.97,13.57 149.76,21.45 -47.53,2.53 -95.11,4.57 -142.66,6.88 -2.57,-9.39 -4.86,-18.87 -7.1,-28.33zm-20.87 -123.88c343.69,0.12 687.37,-0.11 1031.04,0.12 -42.94,119.74 -108.56,230.39 -185.98,330.98 -4.13,-3.61 -8.14,-7.32 -12.03,-11.16 3.26,-5.13 6.51,-10.3 9.59,-15.54 -4.66,-4.42 -9.17,-8.97 -13.7,-13.55 12.24,-8.81 24.34,-17.78 36.66,-26.48 -20.65,-19.74 -41.63,-39.12 -62.17,-58.97 4.2,-10.61 8.71,-21.06 12.75,-31.74 -3.73,-5.86 -7.66,-11.61 -11.26,-17.56 20.07,-6.89 41.41,-16.52 52.95,-35.26 8.59,-13.76 2.86,-31.21 -7.41,-42.31 -15.97,-17.65 -37.12,-29.77 -58.52,-39.63 -12.28,-6.86 -24.51,-14.27 -38.32,-17.63 14.78,13.68 30.57,27.26 39.65,45.65 3.93,7.79 5.73,17.85 0.46,25.46 -6.37,9.59 -17.76,13.34 -28.15,16.76 6.31,-14.96 2.25,-32.19 -7.9,-44.38 -18.2,-22.09 -44.8,-34.87 -70.73,-45.55 14.01,8.97 27.84,18.51 38.96,31.03 9.75,10.86 17.83,25.16 15.54,40.25 -2.29,15.63 -15.34,26.89 -28.57,33.9 -30.68,15.88 -66.63,17.88 -100.33,13.52 5.67,5.78 11.59,11.68 19.23,14.79 19.58,7.9 41.25,10.37 62.1,6.82 6.57,8.23 12.12,17.25 16.42,26.88 -35.61,-6.39 -71.3,-12.12 -106.87,-18.65 7.68,10.99 14.34,22.76 22.67,33.28 16.89,7.26 34.05,14.1 50.1,23.18 35.59,19.49 69.36,44.84 91.32,79.54 -12.62,5 -25.36,9.68 -37.97,14.63 -1.71,9.17 -3.64,18.3 -5.35,27.49 6.93,-5 11.97,-14.1 21.25,-14.72 11.99,-1.53 23.91,-3.51 35.92,-4.91 4.44,6.35 9.03,12.61 13.74,18.76 -13.9,-0.09 -27.82,0 -41.71,-0.07 11.23,14.72 22.22,29.64 33.43,44.41 -184.84,7.17 -369.68,14.89 -554.5,22.48 24.19,-3.66 48.66,-5.52 72.95,-8.63 109.8,-12.34 219.52,-25.4 329.36,-37.39 -32.32,-15.09 -52.5,-46.51 -69.42,-76.52 18.78,-6.48 37.72,-12.43 56.55,-18.76 -25,-7.73 -50,-15.43 -75.02,-23.09 -2.39,5.97 -4.97,13.59 -12.34,14.79 -13.85,1.66 -26.11,-7.29 -36.23,-15.66 -25.49,-22.75 -45.05,-51.19 -63.56,-79.7 45.49,15.74 90.66,32.37 136.09,48.27 -11.46,-22.14 -23.4,-44.03 -34.9,-66.14 14.67,3.98 29.3,8.08 44.02,11.99 -5.9,-21.58 -25.2,-35.63 -44.45,-44.73 -39.71,-18.5 -84.05,-21.83 -127.05,-26.04 -89.84,-8.46 -179.89,-14.26 -269.98,-19.41 -4.35,-0.44 -8.7,-1.09 -13.03,-1.69 63.83,1.4 127.65,-0.71 191.48,-0.44 90.71,-3.46 183.44,-1.51 270.74,26.13 8.19,2.26 15.89,7.19 24.66,6.53 28.15,-0.4 57.32,3.17 84.47,-6.15 8.24,-3.31 13.99,-10.39 16.68,-18.72 -41.65,-22.02 -87.39,-35.47 -133.76,-43.02 -57.55,-9.28 -116.36,-10.97 -174.34,-5.2 -133.19,5.6 -266.37,10.88 -399.57,16.28 -2.31,-14.79 -4.11,-29.64 -5.66,-44.52zm979.82 -422.07c25.95,25.59 45.53,58.03 54.44,93.48 -30,0.05 -59.97,0.09 -89.96,0 21.76,-26.15 35.06,-59.29 35.52,-93.48zm-908.6 31.9c14.69,-22.11 33.08,-41.96 55.01,-57.03 -6.84,42.09 7.42,85.27 33.72,118.17 -21.22,-19.91 -41.84,-40.47 -62.43,-61.05 -8.76,-0.13 -17.53,-0.02 -26.3,-0.09zm-194.72 36.14c67.69,-0.09 135.38,-0.02 203.07,-0.04 4.95,-0.54 7.79,4.33 11.14,7.1 13.68,14.3 28.51,27.44 42.14,41.81 -25.25,67.4 -50.29,134.86 -75.42,202.31 -5.79,15.05 -10.21,31.32 -21.58,43.33 -14.47,16.72 -37.09,23.74 -58.65,24 -59.28,0.03 -118.58,0.05 -177.85,-0.02 34.61,-92.42 69.75,-184.64 104.34,-277.08 -9.21,-13.7 -18.11,-27.62 -27.19,-41.41zm20.95 11.15l0 0c6.15,9.81 12.7,19.38 18.94,29.17 -33.7,88.78 -67.02,177.71 -100.66,266.54 53.82,0.26 107.65,-0.42 161.47,0.38 12.88,-0.49 26.04,-2.91 37.23,-9.62 12.21,-7.08 20.8,-19.13 25.6,-32.21 26.5,-71.29 53.12,-142.53 79.59,-213.84 -13.39,-13.74 -27.71,-26.53 -40.94,-40.42 -60.41,-0.14 -120.82,-0.14 -181.23,0zm482.38 -11.13c66.27,-0.15 132.51,-0.02 198.78,-0.06 16.25,16.05 32.15,32.45 48.58,48.33 -14.63,40.78 -30.13,81.23 -45.18,121.86 -8.53,22.71 -31.08,37.09 -54.24,41.33 -27.13,4.96 -54.88,1.83 -82.29,2.71 -4.78,12.95 -9.62,25.84 -14.39,38.79 8.9,0.11 17.8,0.04 26.71,0.06 -6.77,17.25 -10.97,36.77 -25.05,49.87 -12.43,11.87 -30.21,15.6 -46.88,15.65 -39.03,-0.07 -78.06,0.02 -117.07,-0.05 -0.09,-0.28 -0.26,-0.88 -0.35,-1.17 16.07,-13.95 32.65,-27.33 48.88,-41.1 2.13,-1.62 3.22,-4.08 4.13,-6.52 28,-75.42 56.19,-150.77 84.19,-226.18 -8.55,-14.54 -17.36,-28.93 -25.82,-43.52zm19.65 11.04l0 0c6.26,10.43 12.47,20.89 18.64,31.39 -28.88,77.95 -58.05,155.78 -86.93,233.7 -1.02,2.67 -2.09,5.44 -4.53,7.11 -9.46,7.79 -18.78,15.74 -28.22,23.55 29.82,0.18 59.65,-0.02 89.49,0.11 11.06,0.2 22.49,-2.13 31.84,-8.25 11.96,-7.73 17.58,-21.52 21.86,-34.48 -8.92,-0.07 -17.87,-0.02 -26.79,-0.05 7.55,-20.53 15.32,-40.98 22.82,-61.51 24.22,-0.29 48.44,0.15 72.66,-0.2 23.8,-1.16 50.29,-11.39 60.37,-34.66 14.74,-38.6 28.95,-77.46 43.4,-116.2 -13.39,-13.49 -26.98,-26.79 -40.25,-40.4 -58.12,-0.27 -116.24,-0.05 -174.36,-0.11zm-410.65 47.17c16.39,0 32.79,-0.02 49.18,0.03 -25,67.24 -50.29,134.38 -75,201.73 -16.47,0.6 -32.97,0.11 -49.44,0.27 25.11,-67.34 50.15,-134.69 75.26,-202.03zm8.02 11.1l0 0c-22.4,59.72 -44.54,119.53 -66.85,179.27 8.28,0 16.58,0 24.89,0.03 22.51,-59.68 44.51,-119.55 66.86,-179.27 -8.3,-0.03 -16.6,-0.03 -24.9,-0.03zm458.26 86.56c12.28,-32.54 24.13,-65.27 36.54,-97.77 14.88,0.25 29.75,0.05 44.63,0.11 -11.93,32.55 -24.4,64.87 -36.1,97.49 -15.03,0.42 -30.04,0.11 -45.07,0.17zm44.33 -86.53l0 0c-9.21,24.97 -18.69,49.86 -27.79,74.88 6.79,0.02 13.59,0.02 20.4,0.04 9.46,-24.93 18.67,-49.93 27.97,-74.92 -6.88,-0.03 -13.74,-0.03 -20.58,0zm-355.96 -8.35c72.11,0 144.19,-0.05 216.3,0.02 -9.74,26.33 -19.38,52.68 -29.46,78.88 -26.15,-0.22 -52.33,0 -78.48,-0.11 2.47,-6.86 5.09,-13.66 7.57,-20.51 -8.81,0 -17.6,0.04 -26.39,-0.07 -4.87,12.54 -9.57,25.15 -14.19,37.78 17.09,0.03 34.19,0.03 51.3,0 -7.05,19.27 -14.31,38.48 -21.46,57.73 -17.12,0.06 -34.24,0.02 -51.35,0.02 -5.62,15.16 -11.35,30.28 -16.92,45.49 9.37,0.04 18.74,-0.05 28.13,0.09 3.73,-8.82 6.5,-18.01 10.3,-26.8 26.13,0.22 52.26,0 78.41,0.11 -5.13,14.08 -10.34,28.13 -15.63,42.14 -4.26,11.61 -12.1,22 -22.64,28.57 -16.94,11.03 -37.68,13.83 -57.48,14.19 -52.22,-0.09 -104.43,0.15 -156.67,-0.11 13.68,-12.86 27.31,-25.74 41.03,-38.5 2.04,-1.75 3.62,-3.95 4.42,-6.51 20.98,-56.56 42.11,-113.09 63.13,-169.63 1.34,-2.75 0.36,-5.68 -0.35,-8.44 -3.26,-11.43 -6.55,-22.84 -9.57,-34.34zm15.01 11.7l0 0c2.08,9.99 6.61,19.74 7.35,29.81 -21.38,58.35 -43.41,116.47 -64.92,174.77 -1.22,3.06 -2.13,6.48 -4.86,8.57 -7.59,6.95 -14.94,14.14 -22.53,21.04 44.86,-0.06 89.73,0.02 134.62,-0.04 17.72,-0.71 36.41,-4.55 50.29,-16.32 13.32,-11.5 15.65,-29.95 22.48,-45.27 -18.18,0 -36.34,0 -54.52,0 -3.37,8.84 -6.66,17.7 -9.88,26.6 -17.52,0.07 -35.03,0.09 -52.53,-0.02 8.35,-22.76 16.92,-45.42 25.31,-68.16 17.14,-0.15 34.3,0.07 51.46,-0.11 4.27,-11.85 8.88,-23.55 13.1,-35.43 -17.07,-0.07 -34.14,0.04 -51.21,-0.05 7.34,-20.02 14.76,-40 22.33,-59.91 16.89,0 33.81,0 50.7,0 -2.46,6.61 -4.97,13.25 -7.39,19.91 18.16,0.13 36.32,0.04 54.48,0.04 6.86,-18.51 13.81,-36.98 20.63,-55.5 -61.63,0.09 -123.28,-0.04 -184.91,0.07zm475.05 -11.66c58.38,-0.09 116.79,-0.02 175.18,-0.04 -7.66,20.56 -15.23,41.11 -23,61.61 -6.08,0 -12.14,0 -18.2,0.02 -8.13,44.98 -16.39,89.93 -24.36,134.93 7.09,-0.11 14.14,-0.11 21.25,-0.04 -8.15,19.56 -11.92,45.22 -33.59,54.75 -26.15,10.25 -54.99,4.92 -82.34,6.19 4.86,-21.07 9.81,-42.14 14.58,-63.23 -8.57,0.02 -17.11,0 -25.64,0.07 -10.79,21.07 -21.55,42.11 -32.19,63.23 -37.58,-0.07 -75.15,0.11 -112.73,-0.09 15.51,-13.5 31.45,-26.55 47.15,-39.83 2.06,-1.73 3.55,-4 4.91,-6.31 32.43,-57.47 65.13,-114.79 97.59,-172.27 -2.84,-13.01 -5.99,-25.93 -8.61,-38.99zm14.09 11.59l0 0c2.14,9.77 4.38,19.52 6.49,29.28 -34.1,60.12 -68.09,120.33 -102.3,180.36 -8.46,9.19 -18.96,16.3 -28.29,24.6 24.89,0.02 49.8,0 74.71,0 10.9,-20.78 21.42,-41.76 31.99,-62.74 15.69,0.05 31.39,-0.02 47.11,0.05 -4.95,20.89 -9.68,41.8 -14.61,62.69 21.25,-1.07 43.74,3.31 63.89,-5.28 13.19,-5.73 17.1,-20.69 21.56,-32.99 -6.17,-0.03 -12.34,-0.03 -18.51,-0.03 9.3,-52.57 18.98,-105.05 28.41,-157.6 6.62,-0.02 13.25,-0.04 19.87,0 4.8,-12.76 9.66,-25.48 14.25,-38.32 -48.17,0 -96.37,0.03 -144.57,-0.02zm180.21 -11.61c37,-0.07 74.01,-0.02 111.02,-0.02 -24.46,66.49 -49.48,132.78 -74.04,199.25 6.17,0 12.37,-0.02 18.56,0.02 25,-66.33 49.58,-132.8 74.31,-199.23 33.19,-0.09 66.38,-0.06 99.54,-0.02 -7.45,20.58 -15.27,41.05 -22.84,61.61 -4.71,0 -9.39,-0.05 -14.05,-0.14 -17.94,46.63 -34.92,93.65 -52.53,140.4 -4.46,11.26 -7.32,23.78 -16.05,32.7 -14.72,15.59 -36.7,22.09 -57.61,22.89 -27.31,0.09 -54.61,0.02 -81.92,0.02 -13.45,-13.03 -26.15,-26.79 -39.38,-40.05 21.42,-58.29 43.38,-116.39 64.89,-174.67 1.62,-3.49 -0.09,-7.1 -0.89,-10.55 -3.13,-10.7 -5.99,-21.46 -9.01,-32.21zm15.05 11.63l0 0c2.53,9.6 5.26,19.12 7.9,28.67 -21.6,58.03 -43.22,116.06 -64.85,174.09 9.88,10.86 20.43,21.09 30.82,31.46 27.3,-0.07 54.63,0.16 81.96,-0.09 20.69,-1.62 44.52,-10.7 52.4,-31.63 20.47,-54.68 40.73,-109.45 61.18,-164.16 4.75,-0.04 9.52,-0.04 14.3,-0.04 4.86,-12.72 9.52,-25.53 14.27,-38.3 -25.08,-0.04 -50.19,0.09 -75.28,-0.06 -24.86,66.4 -49.51,132.87 -74.3,199.29 -14.32,0.02 -28.64,0.07 -42.96,-0.02 24.8,-66.38 49.46,-132.83 74.24,-199.23 -26.58,0.05 -53.13,0 -79.68,0.02zm224.45 -11.7c42.44,0.12 84.89,-0.02 127.34,0.07 -7.35,20.63 -15.23,41.05 -22.82,61.59 -5.44,0 -10.88,0 -16.3,0 -17.14,45.84 -34.23,91.71 -51.22,137.59 10.31,0.07 20.63,0.05 30.95,0.03 3.27,-8.88 6.46,-17.81 9.88,-26.62 26.2,0.02 52.42,-0.02 78.61,0.02 -8.74,20.78 -13.09,44.22 -28.19,61.72 -15.94,17.89 -41.16,22.6 -64.05,23.13 -54.24,0.05 -108.49,0.11 -162.75,-0.02 13.78,-13.28 27.9,-26.22 41.73,-39.45 2.87,-2.66 3.87,-6.59 5.29,-10.1 20.56,-56.17 42.16,-112.03 62.29,-168.3 -3.13,-13.33 -7.41,-26.38 -10.76,-39.66zm14.94 11.7l0 0c2.02,7.35 4.06,14.68 6.19,22.01 0.71,3.19 2.33,6.57 0.62,9.76 -22.15,59.28 -43.98,118.73 -66.42,177.9 -7.31,9.08 -17.01,16.03 -25.02,24.51 46.17,0.11 92.37,0.04 138.57,0.02 17.5,-0.67 36.3,-4.73 49.18,-17.41 11.88,-12.01 16.03,-28.86 21.89,-44.15 -18.14,-0.03 -36.28,-0.05 -54.42,0 -3.28,8.88 -6.66,17.71 -9.87,26.61 -18.36,0.03 -36.75,-0.02 -55.11,0.03 19.83,-53.68 39.99,-107.23 59.81,-160.91 5.49,-0.07 10.99,-0.09 16.5,-0.14 4.59,-12.81 9.52,-25.48 14.23,-38.25 -32.06,0.07 -64.12,0 -96.15,0.02zm-387.67 44.94c3.95,0 7.9,0 11.88,0.02 -6.86,29.82 -13.63,59.63 -20.69,89.4 -12.15,-0.09 -24.29,-0.02 -36.41,-0.07 14.83,-29.9 30.37,-59.45 45.22,-89.35zm-26.6 77.66l0 0c2.96,0.04 5.91,0.06 8.88,0.11 2.49,-10.28 4.84,-20.58 7.11,-30.88 -5.91,9.94 -10.79,20.44 -15.99,30.77zm-708.97 658.91l0 0c3.08,5.55 6.35,11.03 9.59,16.52 -5.2,13.27 -10.79,26.39 -15.94,39.69 -3.15,10.46 -13.28,16.12 -19.91,24.15 23.44,-0.02 46.93,0.32 70.37,-0.13 13.79,-2.64 17.49,-17.96 21.69,-29.24 2.66,-5.52 -2.84,-10.3 -7.5,-12.12 15.2,-2.64 23.75,-18.71 22.49,-33.12 -0.54,-3.58 -3.89,-5.95 -7.37,-5.77 -24.47,-0.05 -48.96,-0.05 -73.42,0.02zm96.86 -0.62l0 0c2.84,5.7 5.93,11.27 8.95,16.89 -5.13,13.06 -10.64,25.93 -15.66,39.03 -3.3,10.59 -12.87,17.18 -19.98,25.13 25.67,-0.02 51.33,0 77.02,0 4.13,-10.37 8.32,-20.71 12.39,-31.1 -8.93,0.02 -17.85,0.04 -26.8,-0.02 -1.95,4.59 -3.86,9.23 -5.71,13.89 -3.79,0 -7.59,0 -11.36,0 6.1,-15.51 12.61,-30.88 18.58,-46.44 2.35,-0.15 4.71,-0.29 7.08,-0.42 2.07,-5.64 4.26,-11.24 6.53,-16.79 -17.03,-0.35 -34.04,-0.04 -51.04,-0.17zm91.15 0.02l0 0c2.8,5.7 5.69,11.34 8.77,16.92 -6.66,16.6 -13.54,33.16 -19.91,49.88 -3.02,5.91 1.18,13.96 8.01,14.1 13.28,0.35 26.58,0 39.86,0.15 10.72,0.38 20.55,-7.7 24.06,-17.56 6.28,-15.38 12.41,-30.83 18.58,-46.28 1.62,0 4.86,-0.03 6.48,-0.03 2.29,-5.73 4.58,-11.43 6.82,-17.16 -11.59,0 -23.13,-0.11 -34.7,0.07 -8.32,21.31 -16.98,42.47 -25.4,63.74 -4.77,-0.03 -9.56,0 -14.34,0 8.48,-21.29 17.25,-42.47 25.58,-63.81 -14.59,-0.04 -29.2,-0.02 -43.81,-0.02zm101.68 0.09l0 0c2.93,5.61 5.86,11.23 8.84,16.85 -6.26,15.49 -12.1,31.19 -18.78,46.51 -5,6.26 -11.39,11.25 -16.41,17.51 25.67,0.14 51.33,0.03 76.97,0.07 3.73,-9.23 7.39,-18.47 11.1,-27.7 -8.26,-0.07 -16.52,-0.03 -24.75,-0.07 -1.47,3.51 -2.91,7.04 -4.35,10.57 -4.87,0 -9.73,-0.03 -14.57,-0.05 2.18,-5.5 4.38,-11.01 6.51,-16.54 7.03,-0.11 14.09,-0.11 21.15,-0.04 2.03,-4.95 4,-9.9 6,-14.88 -6.93,-0.31 -13.85,-0.68 -20.78,-0.68 1.86,-4.84 3.77,-9.66 5.79,-14.43 4.89,0 9.79,0 14.7,0.02 -1.18,2.95 -2.35,5.88 -3.53,8.85 7.68,0 15.36,-0.06 23.04,0.16 3.87,-8.64 7.09,-17.52 10.68,-26.24 -27.19,0.07 -54.41,-0.11 -81.61,0.09zm165.26 -0.09l0 0c3.09,5.66 6.09,11.37 9.15,17.05 -6.33,15.23 -12.05,30.68 -18.51,45.84 -5.13,6.46 -11.37,12.01 -16.88,18.19 21.56,-0.14 43.1,0 64.65,-0.05 8.3,0.09 16.96,-4.82 19.76,-12.87 7.15,-18.14 14.56,-36.19 21.65,-54.35 2.88,-5.97 -1,-14.19 -8.15,-13.7 -23.89,-0.27 -47.78,-0.02 -71.67,-0.11zm96.02 0l0 0c2.96,5.7 6.02,11.39 8.91,17.16 -5.38,13.19 -10.68,26.42 -15.88,39.67 -3.02,10.48 -13.05,16.16 -19.69,24.11 25.77,0.18 51.55,0.07 77.32,0.07 3.73,-9.24 7.37,-18.49 11.13,-27.71 -8.33,-0.02 -16.63,-0.09 -24.96,0.11 -1.33,3.47 -2.64,6.93 -3.97,10.42 -4.95,0 -9.88,-0.03 -14.81,-0.03 2.18,-5.59 4.42,-11.14 6.71,-16.67 7.01,0.05 14.05,0.05 21.11,0 1.89,-4.97 3.86,-9.9 5.88,-14.83 -6.92,-0.26 -13.85,-0.66 -20.78,-0.71 1.87,-4.73 3.71,-9.46 5.49,-14.21 4.97,-0.17 9.94,-0.22 14.91,-0.2 -1.13,2.93 -2.24,5.89 -3.33,8.86 7.71,0.07 15.41,0.07 23.14,0.02 3.48,-8.7 6.97,-17.4 10.61,-26.04 -27.26,-0.06 -54.53,0 -81.79,-0.02zm93.56 0.04l0 0c2.97,5.66 5.99,11.3 8.83,17.03 -6.41,15.25 -12.03,30.86 -18.67,46 -4.86,6.62 -11.1,12.03 -16.76,17.94 12.19,0.02 24.4,0.04 36.61,-0.02 5.44,-13.92 11.12,-27.78 16.58,-41.7 3.89,10.51 8.08,20.9 11.92,31.4 11.37,-10.55 22.69,-21.16 34.26,-31.51 -5.53,13.97 -11.3,27.82 -16.78,41.81 11.05,0.04 22.09,0.06 33.14,0 2.26,-5.73 4.55,-11.41 6.77,-17.14 -1.71,0 -5.1,-0.02 -6.81,-0.02 6.01,-15.37 12.43,-30.57 18.22,-46 2.29,-0.4 4.62,-0.76 6.95,-1.11 2.11,-5.62 4.31,-11.19 6.57,-16.72 -10.56,-0.04 -21.15,0.11 -31.7,-0.11 -12.81,11.01 -24.73,22.95 -37.34,34.16 -3.33,-11.41 -6.86,-22.75 -10.28,-34.12 -13.85,0.18 -27.68,-0.02 -41.51,0.11zm151.71 0.98l0 0c-6.63,1.84 -13.67,5.55 -15.78,12.61 -7.42,18.56 -14.92,37.1 -22.25,55.7 -3.13,5.64 2.31,11.75 8.15,11.59 14.06,0.27 28.11,0.04 42.18,0.11 9.11,0.11 16.92,-7.04 20.14,-15.14 7.01,-17.34 14.03,-34.65 20.93,-52.01 1.31,-3.36 2.18,-7.73 -0.79,-10.44 -4.67,-4.88 -12.13,-3.09 -18.12,-3.46 -11.48,0.53 -23.11,-1.09 -34.46,1.04zm68.32 -1.04l0 0c3.13,5.66 6.17,11.36 9.17,17.11 -5.09,13.06 -10.64,25.93 -15.63,39.03 -3.09,10.81 -13.44,16.76 -20.39,24.89 12.3,0.02 24.6,0 36.88,0.02 5.33,-13.34 10.63,-26.71 16.03,-40 3.24,13.29 6.28,26.66 9.48,39.98 8.7,0.02 17.43,0 26.15,0.02 8.59,-21.09 16.92,-42.29 25.46,-63.43 2.29,-0.26 4.62,-0.53 6.95,-0.77 2.11,-5.62 4.33,-11.21 6.58,-16.79 -11.13,-0.08 -22.23,-0.04 -33.31,-0.02 -5.19,13.12 -10.41,26.24 -15.74,39.3 -3.26,-13.12 -6.28,-26.29 -9.67,-39.36 -13.99,0.08 -27.98,0.04 -41.96,0.02zm114.68 14.69l0 0c-2.57,6.86 -5.88,13.48 -7.88,20.56 -1.44,5.48 2.58,11.81 8.39,12.28 9.68,0.6 19.43,0 29.15,0.22 -2.17,5.44 -4.39,10.83 -6.77,16.21 -4.64,-0.11 -9.28,-0.14 -13.9,-0.11 1.03,-2.6 2.07,-5.18 3.11,-7.75 -8.94,-0.02 -17.89,-0.09 -26.82,0.09 -3.24,8.3 -6.61,16.58 -9.87,24.88 17.2,-0.04 34.43,-0.02 51.66,0 9.54,0.42 19.67,-5.39 22.86,-14.63 2.93,-7.59 6.35,-15 8.79,-22.75 1.63,-4.93 -2.19,-10.97 -7.5,-11.28 -10.01,-0.58 -20.05,0.02 -30.06,-0.24 1.95,-5 3.93,-9.97 5.93,-14.94 4.91,-0.03 9.83,-0.03 14.78,0 -0.97,2.37 -1.93,4.77 -2.86,7.19 8.13,0.02 16.25,0 24.4,0.06 3.42,-8.1 6.59,-16.31 9.83,-24.46 -16.27,0.04 -32.54,-0.07 -48.82,0.02 -9.79,0.2 -21,4.71 -24.42,14.65z"/>
  </g>
 </g>
</svg>
