<?xml version="1.0" encoding="UTF-8"?>
<!DOCTYPE svg PUBLIC "-//W3C//DTD SVG 1.1//EN" "http://www.w3.org/Graphics/SVG/1.1/DTD/svg11.dtd">
<!-- Creator: CorelDRAW -->
<svg xmlns="http://www.w3.org/2000/svg" xml:space="preserve" width="2000px" height="1600px" version="1.1" style="shape-rendering:geometricPrecision; text-rendering:geometricPrecision; image-rendering:optimizeQuality; fill-rule:evenodd; clip-rule:evenodd"
viewBox="0 0 2000 1600"
 xmlns:xlink="http://www.w3.org/1999/xlink">
 <defs>
  <style type="text/css">
   <![CDATA[
    .fil1 {fill:#063674;fill-rule:nonzero}
    .fil3 {fill:#AD0840;fill-rule:nonzero}
    .fil0 {fill:#E7E4E0;fill-rule:nonzero}
    .fil2 {fill:#FEFEFE;fill-rule:nonzero}
   ]]>
  </style>
 </defs>
 <g id="Capa_x0020_1">
  <metadata id="CorelCorpID_0Corel-Layer"/>
  <g id="Detroit_x0020_Titans.cdr">
   <path class="fil0" d="M1095.72 137.18c72.74,-15.37 150.31,-13.28 220.27,13.24 1.88,0.84 4.15,1.58 4.94,3.72 4.79,9.91 6.86,20.94 12.43,30.51 6.34,-5.16 12.15,-10.98 18.7,-15.9 1.39,-1.59 3.22,0 4.76,0.5 65.21,34.77 116.91,92.02 150.08,157.61 32.13,62.3 48.62,131.63 55.14,201.12 38.3,0.44 76.62,0.11 114.94,0.2 18.98,0.15 38.03,-0.64 56.95,1.51 28.76,2.61 57.23,8.44 84.67,17.43 23.17,8.08 45.96,17.99 65.98,32.33 7.61,5.29 12.47,13.53 15.42,22.15l0 172.52c-1.84,5.06 -5.55,9.97 -4.41,15.63 1.34,8.22 2.97,16.38 4.41,24.6l0 50.89c-2.44,15.53 -3.76,31.33 -8.9,46.31 -6.94,24.18 -19.9,46.47 -37.06,64.8 -13.27,14.14 -29.34,25.43 -46.32,34.65 -37.88,18.51 -80.2,25.6 -122.02,27.39 -59.16,1.64 -118.99,-0.93 -177.4,10.42 9.38,7.76 19.83,14.1 29.52,21.44 39.95,30.33 78.27,63.01 112.95,99.29 52.09,54.93 97.77,117.04 127.5,187.01 5.25,12.88 10.55,25.91 13.22,39.65 -38.4,2.37 -76.83,-2.76 -114.53,-9.77 -109.23,-21.89 -211.61,-71.4 -301.77,-136.11 -17.89,-12.24 -35.21,-25.29 -53.26,-37.27 -8.45,8.12 -15.4,17.58 -23.75,25.8 -38.96,42.59 -82.41,81.06 -129.07,115.06 -8.74,5.88 -16.89,12.82 -26.27,17.69 -13.59,-1.37 -26.29,-7.57 -39.7,-10.17 -1.37,11.11 -1.64,22.3 -2.67,33.43 0.21,4.31 -4.71,5.5 -7.59,7.47 -11.91,5.84 -23.48,12.41 -35.68,17.63 -5.89,-6.03 -11.15,-12.63 -17.39,-18.3 -2.37,9.39 -2.12,19.3 -5.06,28.55 -17.68,8.42 -36.51,14.32 -55.09,20.5 -74.4,23.05 -155.34,29.9 -231.27,10.04 -29.72,-7.32 -57.94,-19.68 -84.56,-34.61 -50.03,-28.87 -91.63,-71 -123.07,-119.21 -13.31,-21.31 -26.34,-43.16 -35.21,-66.73 4.5,-8.85 11.63,-16.03 17.49,-23.97 -9.43,-4.07 -19.31,-6.93 -28.9,-10.6 -10.87,-29.72 -17.19,-60.92 -22.25,-92.11 -4.02,-26.62 -6.5,-53.51 -7.22,-80.43 -7.73,5 -16.07,10.18 -25.66,9.9 -67.9,0.06 -135.81,0.04 -203.72,0.02 -7.43,-0.05 -14.91,0.55 -22.27,-0.58 -10.9,-2.18 -20.98,-9.32 -25.73,-19.51 -4.07,-7.73 -3.74,-16.7 -3.7,-25.16 -0.02,-43.34 0.12,-86.67 -0.04,-130.01 -0.17,-6.57 1.23,-13.05 3.81,-19.07 -17.12,-0.19 -33.96,3.69 -51.03,4.25 -9.36,0.12 -18.95,-3.14 -25.62,-9.83 -5.11,-4.95 -8.18,-11.54 -10.71,-18.09l0 -269.21c4.67,-15.3 18.56,-27.48 34.86,-27.94 86.73,-0.14 173.46,0.02 260.18,-0.07 3.25,-0.11 6.48,-0.35 9.71,-0.62 -6.55,-6.26 -14.54,-10.69 -21.79,-16.05 -17.3,-11.97 -34.53,-24.05 -51.63,-36.3 -27.25,-19.05 -52.52,-40.89 -75.58,-64.83 -4.85,-4.53 -8.71,-10.59 -15.14,-13 -23.55,-9.02 -47.22,-17.85 -70.37,-27.92 -13.1,-5.7 -26.41,-11.34 -38.1,-19.67 -8.84,-6.28 -15.46,-15.59 -17.92,-26.21 -8.97,-32.02 -0.4,-66.86 17.9,-94.01 17.21,-26.01 42.88,-48.68 74.44,-54.14 13.45,-1.93 28.64,-3.28 40.56,4.59 14,9.14 25.15,21.84 36.37,34.08 13.81,15.45 27.52,30.96 41.29,46.43 4.46,4.9 7.9,11.24 14.22,14.02 23.85,10.37 47.07,22.32 69.28,35.84 29.51,18.84 57.83,39.4 86.38,59.6 5.94,4.02 11.12,9.38 17.88,12.01 10.13,-11.29 17.21,-25.06 26.78,-36.86 2.18,-2.86 5.74,-3.97 9.01,-5.07 46.24,-14.4 92.35,-29.14 138.59,-43.5 9.41,13.24 17.48,27.36 26.34,40.95 2.32,3.62 5.1,7.06 6.52,11.17 0.82,7.97 -0.14,16.01 0.33,24.02 10.1,-11.34 21.06,-21.9 31.12,-33.28 41.64,-41.39 86.63,-79.62 135.78,-111.84 63.71,-41.57 133.94,-74.5 208.71,-90.02z"/>
   <path class="fil1" d="M1121.77 173.57c63.32,-10.73 130.32,-6.85 189.96,18.14 4.53,9.83 7.18,20.53 10.92,30.71 6.81,-5.21 13.1,-11.08 19.91,-16.31 54.41,29.67 98.4,76.58 127.67,130.93 37.62,69.35 53.77,148.57 56.21,226.91 50.16,0.12 100.31,0 150.47,0.07 50.64,-2.22 102.27,4.72 149.32,24.13 13.4,5.44 26.07,12.5 38.09,20.56 0.14,52.74 0.35,105.51 -0.11,158.24 -5.02,-0.12 -10.03,-0.14 -15.01,-0.17 13.99,25.28 16.26,55.07 14.89,83.41 -0.05,29.24 -6.27,59.23 -22.39,84.01 -12.45,19.46 -30.75,34.7 -51.09,45.38 -18.79,8.83 -38.89,14.7 -59.32,18.26 -27.18,4.92 -54.89,5.04 -82.43,5.64 -42.22,-0.17 -84.59,0.79 -126.47,6.62 -34.05,4.57 -67.72,11.98 -100.66,21.72 49.19,36.25 101.34,68.62 147.54,108.78 30.79,26.46 59.68,55.19 86.05,86.08 33.53,39.83 63.8,83.31 82.94,131.97 -48.43,-2.02 -95.98,-13.69 -141.52,-29.87 -64.96,-23.48 -126.67,-55.86 -183.3,-95.34 -33.93,-25.83 -67,-52.77 -100.99,-78.48 -55.66,69.58 -121.25,131.62 -195.85,180.56 -12.99,-5 -25.88,-10.25 -38.86,-15.31 0.32,13 -0.79,25.97 -0.37,38.97 -11.78,6.87 -23.97,12.99 -36.19,19.04 -6.59,-7.94 -12.82,-16.16 -19.6,-23.91 -0.61,11.1 -0.7,22.26 -1.33,33.37 -70.35,30.5 -148.22,47.27 -224.92,37.92 -66.86,-7.94 -131.11,-38.13 -178.81,-85.81 -36.49,-35.33 -63.25,-79.73 -82.01,-126.68 5.76,-8.59 11.89,-16.91 17.82,-25.38 -10.11,-3.72 -20.21,-7.48 -30.27,-11.31 -19.18,-64.57 -25.01,-132.64 -21.62,-199.74 -20.51,0 -41,0 -61.51,0 0,10.1 0,20.2 0,30.3 -73.18,0 -146.34,0 -219.52,0 0.04,-47.45 -0.07,-94.89 0.06,-142.34 4,-1.75 7.93,-3.63 11.87,-5.54 -0.37,-17.25 0.38,-34.51 -0.41,-51.74 -31.78,3.46 -63.58,6.83 -95.42,9.9 0.07,-84.41 0.07,-168.81 0.01,-253.21 97.68,-0.1 195.37,-0.05 293.06,-0.02 10.35,-14.52 20.6,-29.08 30.75,-43.7 -40.53,-27.59 -81.11,-55.15 -120.54,-84.33 -28.31,-21.23 -53.73,-46.06 -77.48,-72.23 -4.61,0.23 -9.28,-0.18 -13.5,-2.2 -29.01,-11.71 -58.64,-22.14 -86.66,-36.14 -6.29,-3.23 -12.95,-8 -13.42,-15.73 -5.37,-26.55 6.3,-53.39 23.5,-73.18 12.96,-15.12 31.62,-26.73 51.96,-27.16 7.83,2.05 13.42,8.51 19.18,13.82 20.4,20.67 39.33,42.72 58.75,64.31 3.25,3.14 4.64,7.46 5.66,11.74 33.3,13.79 65.89,29.68 95.95,49.65 40.2,26.9 79.15,55.56 118.43,83.76 14.16,-19.95 27.86,-40.3 42.45,-59.91 35.95,-11.84 72.16,-23.06 108.33,-34.18 3.88,6.82 8.64,13.1 12.26,20.06 -0.3,21.74 -1.14,43.5 -1.16,65.24 -19.3,15.68 -38.65,31.29 -57.92,47.01 14.6,10.23 29.09,20.61 43.77,30.73 61.32,-89.32 136.97,-169.59 226.36,-231.23 68.05,-46.71 144.68,-82.94 226.52,-96.79z"/>
   <path class="fil2" d="M1596.58 606.46c28.24,-15.1 61.18,-17.51 92.62,-17 34.15,-0.33 69.03,0.04 101.9,10.45 16.62,5.15 32.16,13.38 46.1,23.71 0.09,38.44 -0.14,76.88 0.13,115.32 -20.78,0.67 -41.57,-0.23 -62.35,0.48 11.7,6.3 24.01,11.9 33.9,21.02 17.52,14.68 26.35,37.46 27.53,59.92 1.04,28.9 1.41,58.93 -9.66,86.2 -8.48,21.87 -24.67,40.57 -45.18,51.95 -26.9,15.21 -58.32,19.72 -88.81,20.37 -37.01,-0.41 -74,1.63 -110.91,4.39 -37.3,2.95 -74.55,6.88 -111.46,13.06 -19.65,3.52 -39.41,7.31 -58.2,14.21 -26.71,10.7 -53.24,21.85 -79.81,32.84 12.82,-19.11 27.16,-37.19 40.53,-55.93 -33.23,15.28 -65.61,32.5 -96.36,52.33 -16.68,10.99 -33.1,22.53 -47.85,36.04 1.33,-9.54 3.03,-19.02 4.53,-28.52 -24.76,16.54 -48.26,34.89 -72.02,52.84 -39.07,29.76 -77.5,60.37 -116.34,90.45 42.28,-55.54 86.13,-109.93 132.22,-162.37 23.6,-25.9 46.83,-52.73 75.3,-73.49 -42.19,-0.05 -84.37,0.09 -126.53,-0.07 4.9,-35.28 -7.22,-72.86 -33.77,-96.99 -0.97,3.97 -1.83,7.96 -2.67,11.96 3.71,1.69 9.47,1.06 11.89,4.44 0.24,26.87 0.03,53.78 0.09,80.64 -55.74,0.02 -111.5,0.02 -167.25,0 0.07,-27.53 -0.16,-55.07 0.12,-82.6 4.57,-0.93 9.13,-1.97 13.64,-3.16 7.06,-16.14 9.84,-33.79 14.98,-50.6 -27.74,-1.93 -55.44,-4.4 -83.18,-6.39 0.16,19.13 -0.34,38.25 0.26,57.36 3.88,1.72 7.73,3.52 11.59,5.3 -0.1,26.73 0.18,53.45 -0.12,80.18 -54.99,-0.17 -109.97,-0.01 -164.94,-0.09 -0.01,-26.71 -0.01,-53.42 -0.01,-80.13 3.83,-1.77 7.64,-3.56 11.54,-5.16 0.77,-19.09 0.01,-38.21 0.4,-57.3 -32.51,1.98 -64.92,5.28 -97.41,7.41 -0.14,16.52 -0.46,33.07 0.17,49.59 3.83,1.88 7.68,3.71 11.56,5.48 -0.02,26.54 -0.05,53.07 0.02,79.61 -54.76,0.15 -109.51,0.1 -164.25,0.01 0.03,-26.53 0.03,-53.08 0,-79.62 3.83,-1.81 7.65,-3.6 11.45,-5.46 0,-27.17 -0.07,-54.35 0.03,-81.52 -33.38,-3.6 -66.78,-7.13 -100.18,-10.45 0.07,28.42 0.02,56.83 0.02,85.24 0.07,4.71 -0.37,9.45 0.5,14.11 3.53,2.24 7.47,3.74 11.3,5.42 0.22,32.54 -0.13,65.08 0.17,97.62 -55.07,0.35 -110.18,0.23 -165.25,0.07 0.21,-32.52 -0.05,-65.02 0.14,-97.55 3.97,-1.77 7.91,-3.62 11.8,-5.56 -0.01,-33.11 -0.05,-66.23 0.02,-99.33 -31.92,3.13 -63.81,6.57 -95.72,9.92 -0.04,-65.29 -0.02,-130.58 0,-195.87 110.91,-0.04 221.83,-0.02 332.74,0 0.02,23.25 0.02,46.52 0.02,69.78 57.78,0.21 115.57,-0.45 173.34,0.44 102.18,0 204.35,0 306.5,0.02 0.05,36.69 -0.06,73.39 0.05,110.09 10.33,-36.47 19.83,-73.19 30.03,-109.72 60.74,0.07 121.49,0.14 182.23,-0.04 16.42,63.91 32.12,127.99 48.35,191.95 2.26,6.63 2.52,15.77 10.18,18.63 2.3,-1.3 4.64,-2.57 6.97,-3.83 0.28,-37.74 -0.02,-75.48 0.14,-113.2 -0.05,-3.07 0.14,-6.18 -0.56,-9.16 -3.51,-2.25 -7.45,-3.73 -11.26,-5.38 -0.17,-26.74 -0.01,-53.49 -0.07,-80.23 48.07,0 96.13,0 144.2,0 7.32,14.61 15.31,28.9 22.11,43.78 1.12,-14.56 0.24,-29.19 0.52,-43.78 46.89,-0.02 93.76,0.01 140.65,-0.02 7.65,-23.64 26.52,-41.97 47.64,-54.11zm-591.59 636.76c2.42,-1.75 4.88,-3.49 7.34,-5.19 10.25,24.86 21.12,49.5 31.1,74.49 0.17,10.26 -0.21,20.53 0.46,30.78 -7.1,-6.27 -15.05,-11.88 -21.34,-18.86 -6.15,-27.01 -11.5,-54.19 -17.56,-81.22zm-40.67 -3.05c12.02,-5.78 23.76,-12.19 35.54,-18.46 -7.64,13.12 -16.33,25.64 -24.71,38.3l-1.07 0.18 -0.98 -0.53c-3.06,-6.44 -5.94,-12.96 -8.78,-19.49zm31.55 -40.64c2.65,5.71 5.22,11.47 7.57,17.33 -0.45,1.85 -1.81,3.27 -3.76,3.5 -0.73,-7.04 -2.54,-13.89 -3.81,-20.83zm116.31 -31.85c4.65,-3.34 9.36,-6.62 14.08,-9.89 10.28,12.98 20.55,25.97 30.82,38.97 -23.46,21.88 -48.36,42.25 -74.56,60.78 7.22,5.98 14.5,11.9 21.72,17.89 5.46,6.09 7.54,14.47 11.4,21.6 -8.64,-2.93 -17.54,-5.23 -25.97,-8.71 -11.7,-16.51 -22.82,-33.47 -34.42,-50.08 -4.46,-6.96 -9.45,-13.54 -13.86,-20.53 4.55,-3.64 9.48,-6.76 14.21,-10.15 6.88,11.15 13.47,22.48 20.32,33.64 20.1,-14.36 39.35,-29.9 57.75,-46.37 -7.21,-9.01 -14.33,-18.11 -21.49,-27.15zm-493.66 -32.7c4.09,-1.42 8.2,-2.79 12.31,-4.2 2.16,3.49 4.3,7.03 6.45,10.56 -3.85,1.59 -7.71,3.19 -11.59,4.77 -3.22,5.57 -6.34,11.19 -9.49,16.83 4.04,10.11 8.28,20.16 13.17,29.9 2.13,-10.83 3.97,-21.74 6.13,-32.57 14.54,21.93 34.09,39.77 52.46,58.35 -1.49,16.47 -2.6,32.96 -3.74,49.47 10.53,9.64 21.9,18.33 33.93,26.04 -0.11,-17.36 -0.3,-34.71 -0.9,-52.05 22.32,12.8 46.43,22.53 71.79,27.24 1.69,18.14 4.11,36.19 5.69,54.35 15.96,3.39 32.38,4.39 48.7,4.25 -3.87,-18.28 -7.75,-36.54 -11.52,-54.83 27.55,-1 54.96,-5.39 81.34,-13.45 6.11,18.18 11.73,36.51 17.73,54.71 19.48,-5.76 38.45,-13.12 56.9,-21.57 -4.07,-9.01 -7.9,-18.12 -12.22,-27.01l-0.7 -1.42c4.72,-3.44 9.53,-6.76 14.31,-10.12 2.39,5.22 4.72,10.47 7.29,15.63 0.31,0.83 0.96,2.48 1.3,3.31 -0.76,11.43 -0.81,22.89 -0.99,34.34 -24.84,11.46 -50.59,21.01 -77.12,27.72 -6.03,-18.23 -11.75,-36.55 -17.69,-54.79 -16.21,4.07 -32.73,6.81 -49.34,8.46 3.72,18.44 7.83,36.79 11.53,55.23 -28.39,2.33 -57.09,0.28 -84.89,-5.92 -2.14,-18.28 -3.97,-36.6 -6.04,-54.88 -13.22,-3.19 -26.09,-7.71 -38.6,-13.01 0.6,17.67 0.76,35.37 0.99,53.05 -25.33,-12.41 -48.96,-28.38 -69.04,-48.27 0.8,-15.81 2.45,-31.56 3.32,-47.35 0.64,-3.25 -2.42,-5.21 -4.18,-7.39 -7.11,-7.15 -13.24,-15.16 -19.44,-23.09 -3.39,15.1 -4.97,30.54 -7.85,45.73 -12.18,-19.57 -24,-39.43 -32.98,-60.7 -3.93,6.82 -7.76,13.7 -11.55,20.6 12.8,30.84 29.08,60.5 50.77,86.02 28.75,34.15 67.19,59.67 109.42,73.98 -1.21,-0.12 -3.62,-0.35 -4.83,-0.45 -52.61,-14.97 -99.85,-47.33 -133.37,-90.5 -17.34,-22.02 -31.47,-46.5 -42.5,-72.24 14.85,-21.69 30.1,-43.11 45.04,-64.73zm587.47 -4.31c12.85,-9.99 25.48,-20.31 38.65,-29.9 -9.73,12.94 -20.18,25.3 -30.82,37.51 -2.63,-2.53 -5.23,-5.06 -7.83,-7.61zm-514.22 -3.05c4.39,-11.75 9.69,-23.18 14.86,-34.61 16.27,21.83 36.14,41.44 59.95,54.96 28.32,16.86 61.18,24.52 93.86,26.29 -54.44,9.5 -113.34,-2.65 -157.45,-36.61 -3.83,-3.22 -8.46,-5.76 -11.22,-10.03zm638.68 -60.87c16.64,-8.25 33.8,-15.43 51.15,-22.02 43.41,31.21 87.96,60.85 130.5,93.27 64.02,49.33 122.24,107.07 167.3,174.43 -83.77,-20.76 -162.44,-59.27 -233.84,-107.26 3.4,0.84 6.93,1.58 10.04,3.37 24.13,13.68 49.47,25.24 75.36,35.21 24.84,8.76 50.22,17.63 76.7,19.48 -6.64,-6.89 -15.17,-11.38 -22.72,-17.11 -84.79,-59.86 -169.78,-119.4 -254.49,-179.37zm-642.6 -39.33c4.6,-6.24 8.75,-12.81 13.77,-18.71 -0.61,7.01 -5.25,12.54 -8.43,18.53 -3.6,7.08 -8.48,13.56 -11.11,21.07 3.6,13.47 13.03,24.41 18.5,37.01 -6.62,10.29 -15.82,18.65 -23.46,28.18 -7.28,-6.92 -12.82,-15.35 -19.16,-23.07 -5.79,8.44 -10.04,17.8 -15.36,26.53 -3.29,-4.14 -6.13,-8.57 -9.12,-12.91 17.81,-25.76 36.32,-51.05 54.37,-76.63zm-73.88 -50.74c16.39,0 32.79,-0.03 49.17,0.02 1.11,13.14 4.78,25.82 7.36,38.67 1.09,3.46 -2.81,5.22 -4.81,7.22 -10.43,8.01 -20.6,16.35 -31.2,24.13 -9.45,-22.48 -16.27,-46.05 -20.52,-70.04zm-36.58 0c3.59,-0.01 7.17,-0.01 10.77,0 2.77,39.04 10.1,77.9 24.01,114.57 -3.64,3.34 -7.34,6.6 -11.03,9.91 -2.11,-7.75 -4.22,-15.49 -5.9,-23.34 -5.96,1.56 -12.05,0.24 -18.04,-0.35 -3.86,-28.15 -5.69,-56.57 -5.27,-84.98 -0.21,-5.8 3.18,-10.75 5.46,-15.81zm-49.69 -0.42c5.97,-0.03 11.94,-0.02 17.93,-0.02 -3.41,54.37 0.1,109.2 10.6,162.64 -0.73,0.61 -2.17,1.82 -2.91,2.42 -3.67,2.99 -7.34,5.94 -11.01,8.92 -13.14,-56.93 -17.32,-115.69 -14.61,-173.96zm1367.89 -186.51c-1.14,-5.66 2.57,-10.57 4.41,-15.63l0 40.23c-1.44,-8.22 -3.07,-16.38 -4.41,-24.6zm-810.98 30.82c6.51,-27.96 13.06,-55.9 19.74,-83.82 6.9,27.74 12.66,55.77 19.05,83.64 -12.94,0.09 -25.87,-0.21 -38.79,0.18zm333.01 -246.4c6.27,-0.05 12.54,-0.14 18.82,-0.11 2.6,-0.91 4.18,1.57 5.69,3.13 5.57,6.67 10.96,13.5 16.65,20.09 6.52,-7.68 12.8,-15.53 19.3,-23.24 7.2,0.11 14.42,0 21.65,0.13 -10.2,12.77 -21.02,25.04 -31.62,37.47 -0.16,6.82 -0.09,13.63 -0.16,20.44 -6.15,-0.05 -12.28,-0.03 -18.41,-0.07 0.02,-6.78 0.07,-13.57 -0.08,-20.35 -10.72,-12.42 -21.34,-24.9 -31.84,-37.49zm-67.1 2c8.74,-3.95 18.63,-2.11 27.92,-2.51 10.34,0.37 21.35,-1.46 31.07,3.02 6.81,3.56 6.79,12.24 6.77,18.91 -5.9,0.02 -11.78,0.02 -17.66,0 -0.88,-2.09 -0.51,-5.34 -3.22,-6.06 -7.23,-1.82 -14.82,-0.66 -22.19,-0.96 -4.46,-0.02 -10.59,0.21 -12.3,5.27 -1.53,5.67 -1.16,11.73 -0.47,17.52 0.21,3.78 3.93,6.24 7.53,6.08 8.77,0.14 17.58,0.51 26.34,-0.25 3.92,-0.14 4.25,-4.65 5.03,-7.51 5.91,-0.04 11.85,-0.02 17.8,-0.02 -0.22,6.25 0.67,13.8 -4.49,18.42 -6.46,5.55 -15.67,4.65 -23.59,4.86 -11.53,-0.38 -23.25,0.99 -34.63,-1.4 -6.88,-1.46 -12.27,-7.62 -12.64,-14.65 -0.53,-8.25 -0.18,-16.54 -0.21,-24.79 -0.04,-6.34 2.88,-13.21 8.94,-15.93zm-164.87 -1.91c21.08,-0.36 42.17,-0.07 63.26,-0.14 0,4.49 0,8.99 0.05,13.5 -15.08,0.19 -30.17,0.02 -45.25,0.09 -0.02,2.91 -0.02,5.85 0,8.76 14.29,-0.02 28.59,0.12 42.88,-0.07 0.12,4.29 0.14,8.57 0.11,12.85 -14.33,-0.07 -28.68,-0.03 -43.01,-0.01 0,2.93 0.03,5.86 0.1,8.81 15.35,-0.05 30.7,-0.16 46.05,0.06 -0.05,4.63 -0.05,9.28 -0.05,13.94 -21.36,0 -42.71,0 -64.08,0 -0.04,-19.27 0.07,-38.53 -0.06,-57.79zm-106.17 -0.14c9.1,-0.06 18.19,0.07 27.31,-0.11 6.85,12.12 13.19,24.5 19.91,36.67 6.71,-12.14 13.19,-24.38 19.78,-36.58 9.11,0 18.22,0 27.36,0.02 0,19.31 0.05,38.63 -0.04,57.95 -5.79,-0.06 -11.57,-0.06 -17.35,0.07 -0.32,-13.47 -0.12,-26.92 -0.1,-40.38 -7.84,13.28 -15.16,26.84 -22.69,40.27 -4.53,0 -9.07,0.21 -13.56,-0.12 -8.2,-13.03 -14.95,-26.97 -22.97,-40.13 -0.23,13.42 -0.05,26.83 -0.11,40.27 -5.84,0 -11.69,-0.02 -17.52,0 -0.07,-19.32 -0.04,-38.64 -0.02,-57.93zm-114.53 14.92c-0.11,-4.99 -0.11,-9.97 0.01,-14.96 22.64,0.05 45.3,-0.02 67.95,0.04 0.02,4.95 0.02,9.92 0,14.89 -8.33,0.01 -16.65,0.03 -24.97,0 -0.11,14.34 0.03,28.71 -0.09,43.07 -5.95,-0.05 -11.92,-0.05 -17.88,-0.01 -0.16,-14.35 -0.03,-28.7 -0.07,-43.05 -8.32,0 -16.64,-0.01 -24.95,0.02zm-25.96 -14.92c5.99,-0.02 11.98,-0.02 17.98,-0.02 -0.01,19.33 0.06,38.65 -0.03,57.98 -5.99,-0.05 -11.98,-0.05 -17.95,-0.03 -0.03,-19.32 -0.02,-38.64 0,-57.93zm-247.19 -0.02c22.53,0 45.07,-0.02 67.6,0.02 0.01,4.95 0.01,9.92 0,14.89 -8.2,0.01 -16.39,0 -24.59,0.03 0.09,14.26 -0.12,28.54 0.12,42.82 -6.04,0.26 -12.06,0.22 -18.1,0.17 -0.07,-14.35 0.14,-28.71 -0.12,-43.06 -8.31,0.09 -16.6,0.05 -24.91,0.05 0,-4.98 0,-9.95 0,-14.92zm-70.24 0c21.07,0 42.15,0 63.24,0 0,4.56 -0.04,9.11 -0.14,13.68 -15,-0.21 -29.98,0.05 -44.98,-0.14 -0.07,2.95 -0.12,5.9 -0.15,8.87 14.38,0.01 28.74,-0.13 43.11,0.07 -0.05,4.21 -0.07,8.42 -0.07,12.64 -14.35,0.05 -28.71,-0.14 -43.06,0.12 0.02,2.88 0.03,5.76 0.07,8.66 15.35,0 30.69,0 46.04,0.02 0.02,4.62 0.04,9.23 0.13,13.85 -21.38,0.41 -42.77,0.04 -64.15,0.21 -0.09,-19.33 -0.02,-38.65 -0.04,-57.98zm-58 -32.95c11.32,-16.28 22.69,-32.52 34.26,-48.62 22.79,16.28 45.88,32.1 68.57,48.54 -34.28,0.24 -68.55,0.05 -102.83,0.08zm228.75 -105.61c1.86,1.49 3.7,2.99 5.56,4.48 -15.73,15.01 -28.29,32.91 -42.78,49.03l-0.82 -2.58c11.96,-17.49 24.32,-34.75 38.04,-50.93zm-214.3 -32.8c25.13,-10.54 50.22,-21.2 75.39,-31.68 -0.83,13.22 -1.93,26.41 -2.9,39.63 -19.54,16.11 -39.16,32.12 -58.78,48.1 -8.14,6.06 -12.5,15.56 -18.63,23.41l-0.58 0.18c-11.15,2.89 -21.04,9.01 -31.57,13.45 -14.79,6.48 -29,14.38 -44.24,19.74 24.87,-35.7 50.12,-71.14 75.02,-106.83 1.69,-2.37 3.36,-5.04 6.29,-6zm636.48 -35.07c3.49,-3.53 6.2,-8.48 10.85,-10.5 7.94,6.74 14.05,15.29 20.51,23.41 2.06,2.49 3.67,5.32 4.78,8.37 -6.32,-3.12 -11.7,-7.78 -17.91,-11.1 -5.94,-3.65 -12.77,-5.76 -18.23,-10.18zm-227.89 -51.4c39.23,-14.28 81.62,-21.32 123.28,-16.28 33.29,4.23 66.19,16.01 92.65,36.96 -5.23,6.64 -9.38,14.11 -14.7,20.67 -2.61,0.65 -5.3,-0.24 -7.87,-0.63 -46.87,-10.46 -95.53,-0.05 -139.73,16.42 -67.49,26.32 -127.98,68.63 -180.03,118.64 10.01,-2.09 19.79,-5.69 30.13,-5.76 14.95,-0.8 31.01,3.87 40.78,15.79 9.64,10.62 12.03,25.31 13.4,39.06 -73.51,0.1 -147.04,-0.06 -220.57,0.08 22.58,-34.94 48.73,-67.54 77.23,-97.81 52.23,-54.28 114.15,-101.21 185.43,-127.14zm250.23 8.15c28.89,-27.05 58.35,-53.46 87.35,-80.4 11.94,9.5 24.28,18.55 35.5,28.87 -10.67,-4.42 -21.21,-9.22 -31.85,-13.73 -4.25,3.34 -8.52,6.65 -12.77,9.99 13.35,9.5 26.03,20 37.28,31.94 -16.24,8.59 -32.54,17.09 -48.85,25.57 9.96,11.07 19.14,22.83 27.22,35.34 17.44,-7.13 34.96,-14.05 52.45,-21.08 1.58,2.74 3.18,5.48 4.78,8.22 -4.88,4.57 -8.46,10.73 -14.43,13.98 -0.37,0.91 -1.09,2.77 -1.46,3.71 14.31,-6.7 28.62,-13.35 42.97,-19.97 4.97,1.89 7.08,6.64 8.69,11.32 -9.25,1.55 -18.44,3.36 -27.62,5.19 9.78,19.19 18.23,39.09 24.65,59.69 -18.47,5.18 -36.84,10.62 -55.3,15.82 5.29,18.07 9.45,36.46 12.56,55.02 18.97,-3.13 37.91,-6.33 56.86,-9.52 2.99,18.81 4.74,37.79 5.89,56.79 -5.69,0 -11.37,0 -17.02,-0.02 -0.77,-12.36 -1.81,-24.72 -3.29,-37.01 -18.94,3.07 -37.87,6.35 -56.8,9.55 -3.87,-29.35 -10.1,-58.41 -20.09,-86.3 18.36,-5.41 36.82,-10.43 55.17,-15.91 -5.76,-15.35 -12.48,-30.34 -20.39,-44.71 -3.09,0.78 -6.16,1.58 -9.23,2.36l3.37 -1.62c-1.02,-0.97 -2.04,-1.93 -3.06,-2.9 -14.48,6.34 -29.22,12.08 -43.92,17.84 -2.51,1.57 -3.44,-2.12 -4.65,-3.47 -12.12,-21.27 -28.27,-39.9 -46.01,-56.64 16.1,-8.5 32.31,-16.84 48.4,-25.37 -7.1,-6.01 -14.53,-11.59 -22.25,-16.77 -20.02,15.75 -40.11,31.41 -60.11,47.2 -1,-0.75 -3.02,-2.25 -4.04,-2.98zm-1030.94 -95.27c7.25,-3.81 17.04,-4.38 23.27,1.67 19.98,17.01 36.7,37.42 54.04,57.03 2.05,2.44 5.44,5.57 3.12,8.99 -2.79,2.67 -6.8,2.92 -10.47,2.9 -16.54,-15.5 -34.05,-30.01 -52.17,-43.65 -9.38,-7.61 -22.97,-11.12 -34.38,-6.29 -5.5,2.09 -9.19,6.83 -13.63,10.43 7.64,-12.31 17.02,-24.45 30.22,-31.08zm950.28 -3.6c14.98,0.01 30.01,-0.53 44.92,1.21 15.07,1.39 29.82,4.79 44.57,7.95 -12.82,10.8 -26.36,20.71 -39.39,31.24 12.08,3.75 23.95,8.28 35.28,13.93 12.49,-7.71 24.53,-16.09 37.13,-23.64 -11.14,15.07 -23.36,29.35 -35.3,43.77 -11.5,-5.9 -23.13,-11.61 -35.46,-15.55 -13.13,-4.54 -26.87,-6.88 -40.37,-9.95 12.57,-10.1 25.46,-19.83 37.97,-30.03 -14.12,-1.76 -28.45,-2.83 -42.68,-1.79 -10.34,9.67 -20.7,19.33 -31.06,28.99 -2.48,2.7 -6.46,1.97 -9.71,2.44 -26.49,1.41 -52.27,8.13 -77.66,15.33 -2.72,0.48 -5.44,0.91 -8.11,1.53 7.59,-9.68 16.24,-18.44 24.25,-27.76 -13.54,4.98 -27.08,10.2 -39.88,16.84 -6.29,5.74 -10.27,13.59 -15.84,20 -20.42,5.97 -39.62,15.38 -58.5,25.04 -30.17,15.38 -58.11,34.79 -84.54,55.88 -2.38,1.79 -5.12,3.04 -7.79,4.3 3.05,-6.57 4.67,-14.31 10.41,-19.23 22.5,-20.21 46.08,-39.26 70.98,-56.46 3.22,3.02 6.45,6.03 9.68,9.05 11.41,-6.87 22.86,-13.68 34.79,-19.67 3.26,-1.81 6.95,-3.28 9.25,-6.38 5.67,-7.35 11.06,-14.94 16.67,-22.35 4.35,-6.15 12.26,-7.67 18.59,-10.96 28.56,-13.06 58.8,-21.72 89.13,-29.54 -9.31,10.77 -18.9,21.31 -28.43,31.88 12.31,-2.16 24.7,-3.94 37.19,-4.64 11.33,-10.45 22.48,-21.07 33.91,-31.43zm-102.26 -0.2c62.94,-20.24 131.71,-27.65 196.3,-10.65 8.34,1.86 16.19,5.68 24.71,6.81l1.31 0.19c0.6,0.83 1.79,2.46 2.39,3.27 -27.62,-9.71 -57.18,-12.87 -86.34,-13.38 -68.37,0.12 -135.28,20.61 -196.07,50.91 -72.99,36.56 -138.26,87.26 -195.51,145.15 -36.02,36.62 -68.98,76.22 -98.57,118.19 -4.9,-3.39 -9.82,-6.73 -14.45,-10.47 62.27,-86.22 137.76,-163.88 227.1,-222.2 28.36,-18.58 58.12,-35.01 89.07,-48.87 16.49,-6.79 33.03,-13.55 50.06,-18.95zm-520.58 348.77c18.29,-0.02 36.55,-0.02 54.83,-0.02 7.02,0.17 15.35,0.84 19.84,7.04 4.34,6.29 2.72,14.33 3.04,21.49 -0.35,7.31 1.32,15.37 -2.69,21.97 -3.98,5.89 -11.67,7.4 -18.35,7.45 -18.88,0.02 -37.77,-0.04 -56.65,0.02 -0.07,-19.32 -0.03,-38.64 -0.02,-57.95zm18.42 14.9l0 0c-0.01,9.33 0.04,18.65 -0.05,28 12.16,-0.2 24.43,1.03 36.48,-0.81 5.69,-1.74 4.77,-8.8 4.93,-13.45 0.02,-4.71 0.49,-12.14 -5.55,-13.37 -11.89,-0.89 -23.88,-0.1 -35.81,-0.37zm215.15 -14.9c18.28,0 36.56,-0.08 54.84,0.01 5.81,-0.05 12.62,2.22 14.73,8.2 2.06,6.4 2.09,13.47 0.56,19.97 -0.98,3.71 -4.37,5.78 -7.85,6.76 3.01,1.48 6.59,2.97 7.55,6.53 1.48,5.36 0.67,11.01 0.76,16.51 -5.97,-0.07 -11.94,-0.05 -17.91,-0.07 -0.18,-4.42 0.68,-9.18 -1.49,-13.26 -3.1,-2.03 -6.94,-1.6 -10.44,-1.68 -7.58,0.03 -15.15,0.05 -22.74,0 -0.03,4.98 -0.05,9.99 -0.07,14.99 -5.95,-0.05 -11.89,-0.05 -17.8,0.02 -0.34,-19.33 -0.08,-38.65 -0.14,-57.98zm18.01 14.87l0 0c-0.03,4.55 -0.05,9.1 -0.03,13.64 10.04,-0.21 20.14,0.44 30.19,-0.31 7.44,0.31 7.37,-13.82 -0.13,-13.24 -10.01,-0.21 -20.02,0.05 -30.03,-0.09zm74.25 -13.7c9.47,-2.88 19.49,-1.19 29.24,-1.63 9.38,0.38 19.04,-1.2 28.17,1.63 5.77,1.83 9.97,7.31 10.57,13.3 0.88,8.16 0.26,16.4 0.42,24.6 0.14,6.79 -2.77,14.47 -9.57,17.1 -9.94,3.94 -20.91,2.27 -31.35,2.64 -9.88,-0.28 -20.37,1.14 -29.69,-2.97 -6.38,-2.81 -8.92,-10.2 -8.84,-16.72 0,-7.69 -0.26,-15.4 0.2,-23.07 0.3,-6.54 4.41,-12.98 10.85,-14.88zm12.63 14.31l0 0c-5.97,2.25 -5.15,9.56 -5.32,14.72 0.19,4.32 -0.13,10.2 4.44,12.47 8.06,1.6 16.38,0.42 24.58,0.81 4.29,-0.16 10.63,0.75 12.51,-4.29 1.72,-6.27 1.65,-13.19 0.16,-19.51 -2.3,-5.81 -9.42,-5.2 -14.51,-5.25 -7.27,0.37 -14.79,-0.9 -21.86,1.05zm388.57 -15.48c18.82,0.07 37.65,-0.2 56.47,0.1 6.98,-0.12 13.86,5.18 14.09,12.42 0.88,7.93 1.9,20.16 -8.22,22.44 10.15,2.91 8.4,14.8 8.29,22.99 -5.99,-0.02 -11.96,-0.02 -17.93,-0.07 -0.48,-4.9 1.69,-13.24 -4.9,-14.6 -9.9,-0.72 -19.86,-0.05 -29.78,-0.31 -0.04,5 -0.06,10.01 -0.11,15.01 -5.97,-0.07 -11.94,-0.07 -17.91,-0.05 -0.04,-19.32 -0.02,-38.62 0,-57.93zm18.02 14.87l0 0c-0.04,4.55 -0.06,9.1 -0.04,13.64 10.56,-0.35 21.21,0.76 31.7,-0.61 4.69,-0.93 3.11,-6.88 3.63,-10.27 -1.73,-0.97 -3.17,-2.97 -5.39,-2.69 -9.97,-0.18 -19.95,0.05 -29.9,-0.07zm325.56 32.19l0 0c-18.3,10.76 -35.09,26.88 -40.48,48.08 -5.51,22.34 -5.69,45.85 -2.47,68.56 2.66,19.3 11.62,38.16 27.27,50.24 20.12,15.44 45.29,21.69 69.43,27.85 13.19,3.62 27.38,5.27 39.15,12.75 10.74,7.01 14.29,20.88 13.36,33.03 -56.32,1.48 -112.65,8.52 -166.97,23.78 16.4,-17.23 33.56,-33.72 50.09,-50.8 -54.3,9.04 -107.72,23.83 -158.46,45.31 -57.19,24 -110.61,56.72 -158.4,96.23 1.06,-7.38 2.39,-14.7 3.37,-22.07 -33.17,26.04 -63.46,55.56 -92.14,86.41 -17.7,19.48 -35.74,38.79 -51.89,59.61 38.69,-31.02 78.67,-60.43 119.78,-88.16 -1.07,7.6 -2.46,15.15 -3.62,22.74 29.56,-25.38 61.96,-47.64 97.06,-64.64 33.77,-16.56 69.98,-27.68 106.74,-35.37 -21.2,21.06 -42.13,42.41 -63.57,63.22 92.39,-27.62 189.48,-34.84 285.47,-35.56 15.47,0.56 31.05,-0.23 46.41,-2.3 25.92,-3.64 52.65,-12.7 70.74,-32.52 18.93,-20.15 25.04,-48.74 25.57,-75.59 0.14,-18.16 1.32,-37.05 -5.16,-54.37 -5.22,-15.2 -17.42,-26.93 -31.12,-34.77 -26.38,-14.91 -56.27,-21.44 -85.14,-29.62 -9.67,-3.27 -20.6,-6.59 -26.44,-15.63 -5.29,-9.31 -3.89,-20.9 1.23,-29.96 -12.51,-2.49 -24.99,-5.04 -37.43,-7.8 18.83,0.39 37.69,-0.4 56.51,0.39 7.1,0.03 14.4,3.27 18.11,9.52 6.22,9.92 4.88,22.11 5.25,33.27 30.24,-0.21 60.5,-0.01 90.74,-0.08 4.47,-0.02 8.97,0 13.48,0.07 0.2,-30.42 0.25,-60.87 -0.03,-91.28 -35.09,-23.13 -78.71,-26.29 -119.56,-25.77 -32.64,-0.79 -67.32,-0.52 -96.88,15.23zm-1424.51 -13.24l0 0c0.19,53.66 -0.25,107.33 0.23,160.98 20.98,-2.34 42,-4.46 63,-6.62 4.55,-0.48 9.08,-0.97 13.63,-1.41 0.02,-21.14 -0.02,-42.28 0,-63.43 0.19,-5.09 0.55,-11.06 4.71,-14.64 4.12,-2.9 9.38,-3.13 14.17,-4.11 -0.02,63.62 0,127.25 0,190.89 -0.16,5.37 -0.21,11.18 -3.18,15.89 -2.02,3.27 -5.5,5.13 -8.64,7.13 -0.02,23.65 -0.17,47.33 0.09,70.98 39.32,-0.19 78.65,-0.03 117.97,-0.09 4.67,0 9.36,0 14.05,0 0,-23.56 0.02,-47.11 -0.01,-70.66 -6.91,-3.32 -12.26,-10.03 -11.81,-18 0,-62.57 -0.14,-125.12 0.07,-187.68 -13.24,-3.19 -26.64,-5.55 -39.88,-8.67 13,0.28 26.01,-0.09 39.01,0.14 5.07,0.23 10.6,0.74 14.66,4.09 3.71,3.18 4.51,8.36 4.55,12.98 0.02,21.7 -0.04,43.41 0.02,65.11 21.07,2.11 42.11,4.62 63.22,6.43l0 0.25c4.67,0.4 9.36,0.91 14.03,1.38 0,-53.65 0,-107.31 0,-160.98 -4.69,0 -9.38,0 -14.05,0 -95.29,0.04 -190.56,-0.05 -285.84,0.04zm325.35 69.35l0 0c0.02,17.84 -0.07,35.68 0.05,53.52 6.82,3.27 12.03,9.84 11.7,17.67 0.21,39.19 0.09,78.39 0.05,117.59 0.49,8.2 -4.18,15.85 -11.69,19.14 -0.3,17.56 0.07,35.12 -0.2,52.7 39.23,0.33 78.48,0.03 117.73,0.14 4.71,0.02 9.43,0 14.15,-0.12 -0.26,-17.56 0.11,-35.11 -0.19,-52.65 -6.76,-3.2 -11.96,-9.71 -11.69,-17.44 -0.14,-39.27 0,-78.53 -0.06,-117.8 -0.14,-4.34 1.13,-8.53 2.94,-12.45 -12.17,-2.09 -24.33,-4.28 -36.43,-6.76 10.44,0.05 20.85,-0.04 31.28,0 4.67,0 9.36,0 14.07,0 0,-17.86 0.01,-35.7 -0.02,-53.56 -4.69,0 -9.38,0 -14.05,0 -39.21,0 -78.43,-0.02 -117.64,0.02zm154.55 0.42l0 0c0.02,40.83 -0.12,81.66 0.06,122.49 -0.06,1.03 -0.02,2.07 0.08,3.12l1.74 -1.67c24.94,-2.28 49.96,-4 74.94,-5.97 0.01,-15.17 -0.02,-30.33 0,-45.48 0.03,-5.32 1.21,-11.33 5.74,-14.66 3.9,-2.32 8.52,-2.83 12.8,-4.1 -0.25,42.48 -0.05,84.98 -0.09,127.48 -0.17,6.18 0.92,12.92 -2.47,18.49 -1.95,3.46 -5.52,5.46 -8.77,7.5 -0.31,17.89 -0.38,35.81 0.04,53.7 39.28,-0.28 78.57,-0.03 117.85,-0.12 4.53,0 9.08,0 13.63,0 0,-17.76 0.03,-35.51 -0.04,-53.25 -3.47,-2.44 -7.39,-4.7 -9.39,-8.62 -2.53,-4.85 -1.95,-10.48 -2,-15.77 0.07,-40.37 -0.04,-80.76 0.03,-121.13 -13.43,-2.9 -26.92,-5.54 -40.32,-8.57 12.96,0.33 25.94,-0.06 38.9,0.17 5.53,0.32 11.8,0.65 15.89,4.9 3.86,4.2 3.95,10.24 3.99,15.63 -0.11,14.58 0.05,29.17 -0.11,43.76 21.09,1.72 42.2,3.29 63.29,4.99 4.53,0.33 9.06,0.68 13.61,1 0,-41.29 0,-82.59 0,-123.89 -4.55,0 -9.09,-0.02 -13.63,0 -95.25,0 -190.51,-0.02 -285.77,0zm307.58 188.34l0 0c-2.28,8.64 -7.77,16.75 -16.54,19.76 -0.02,17.5 0.09,34.99 -0.05,52.5 40.27,0.41 80.54,0.06 120.8,0.18 4.53,0 9.08,0 13.63,-0.04 -0.05,-17.63 0.03,-35.26 -0.04,-52.89 -6.07,-2.2 -12.96,-6.74 -12.29,-14.1 1.63,-11.26 5.08,-22.16 7.38,-33.3 -4.8,-3.76 -10.28,-6.64 -16.28,-7.83 17.58,-1.42 34.22,7.62 45.41,20.72 21.85,23.5 34.81,55.25 34.26,87.44 26.31,0.02 52.63,-0.02 78.96,0.02 4.54,0.01 9.09,-0.02 13.66,-0.16 -0.12,-17.58 0,-35.14 -0.07,-52.72 -10.33,-5.83 -13.05,-18.05 -15.81,-28.62 -14.99,-59.61 -30.01,-119.21 -44.86,-178.85 -4.69,-0.01 -9.38,-0.01 -14.07,-0.01 -47.64,-0.02 -95.29,0.01 -142.95,-0.02 -17.12,62.62 -33.98,125.31 -51.14,187.92zm290.82 -136.08l0 0c7.16,3.21 12.31,10.4 11.81,18.42 -0.01,39.86 0.14,79.76 -0.08,119.63 0.19,7.56 -4.97,13.9 -11.59,16.96 -0.41,17.67 -0.02,35.33 -0.22,53.02 16.28,0.14 32.54,-0.04 48.82,0.1 2.95,-0.17 6.36,0.49 8.87,-1.56 11.91,-8.39 24.27,-16.09 36.65,-23.76 4.9,-2.42 9.54,-5.3 14.16,-8.2 -0.02,-6.48 0,-12.96 -0.02,-19.42 -6.17,-3.2 -11.56,-8.8 -11.68,-16.13 -0.42,-16.22 0,-32.47 -0.16,-48.69 12.86,23.32 25.82,46.59 38.5,70.01 37.77,-18.8 77.26,-34.1 117.85,-45.65 4.62,-1.29 9.25,-2.55 13.91,-3.78 0.01,-26.17 0,-52.33 0,-78.5 -0.06,-8.48 -1.3,-17.44 2.67,-25.3 -12.33,-2.13 -24.62,-4.39 -36.88,-6.8 10.66,0.21 21.32,0.02 31.99,0.05 4.55,0.02 9.14,0.02 13.72,0.02 -0.09,-17.74 0.19,-35.47 -0.16,-53.21 -4.5,0.07 -8.97,0.09 -13.45,0.11 -32.66,0.01 -65.31,-0.14 -97.96,0.07 0.14,17.54 -0.03,35.08 0.09,52.63 6.45,3.03 11.8,9.01 11.72,16.49 0.24,16.1 0.07,32.22 0.03,48.34 -20,-39.16 -40.44,-78.11 -60.27,-117.36 -4.78,-0.23 -9.53,-0.24 -14.28,-0.19 -34.63,-0.07 -69.26,0.14 -103.89,-0.11 -0.4,17.6 -0.1,35.21 -0.15,52.81zm283.13 20.16l0 0c0.05,26.09 -0.03,52.21 0.05,78.3 20.87,-4.88 41.92,-8.99 63.13,-12.04 -10.07,-4.81 -20.03,-10.14 -28.57,-17.42 -12.62,-10.33 -21.49,-24.77 -26.46,-40.2 -1.7,-5.02 -2.32,-10.36 -4.51,-15.21 -2.34,1.53 -4.22,3.6 -3.64,6.57zm53.77 106.7l0 0c31.86,-5.95 64.15,-9.15 96.5,-10.89 -3.49,-5.44 -10.17,-6.94 -15.91,-8.74 -16.05,-4.27 -32.42,-7.43 -48.13,-12.84 -11.42,10.22 -21.57,21.72 -32.46,32.47z"/>
   <path class="fil3" d="M966.91 866.05c17.16,-62.61 34.02,-125.3 51.14,-187.92 47.66,0.03 95.31,0 142.95,0.02 15.7,61.46 30.61,123.13 46.5,184.55 2.07,9.16 6.06,18.43 14.47,23.46 0.39,17.45 0.07,34.89 0.18,52.35 -26.33,-0.04 -52.65,0 -78.96,-0.02 0.55,-32.19 -12.41,-63.94 -34.26,-87.44 -11.19,-13.1 -27.83,-22.14 -45.41,-20.72 -5.13,-0.3 -10.27,-0.54 -15.42,-0.67 6.16,2.22 12.2,4.81 17.65,8.52 -2.16,11.12 -5.76,21.97 -7.25,33.21 -0.92,7.76 6.26,12.34 12.52,14.8 0.24,17.42 0.03,34.86 0.1,52.3 -40.26,-0.12 -80.53,0.23 -120.8,-0.18 0.14,-17.51 0.03,-35 0.05,-52.5 8.77,-3.01 14.26,-11.12 16.54,-19.76zm22.36 388.18c2.86,-2.1 5.83,-4.07 8.85,-5.91 0.09,7.71 -0.12,15.43 -0.74,23.12l-0.82 -1.58c-2.57,-5.16 -4.9,-10.41 -7.29,-15.63zm23.06 -16.2c9.71,-6.75 19.23,-13.75 29.06,-20.32 4.41,6.99 9.4,13.57 13.86,20.53 3.35,20.77 8.25,41.27 11.18,62.13 -7.23,4.95 -14.98,9.08 -22.46,13.63l-0.54 -1.48c-9.98,-24.99 -20.85,-49.63 -31.1,-74.49zm-418.34 -35.13c3.79,-6.9 7.62,-13.78 11.55,-20.6 8.98,21.27 20.8,41.13 32.98,60.7 2.88,-15.19 4.46,-30.63 7.85,-45.73 6.2,7.93 12.33,15.94 19.44,23.09 1.76,2.18 4.82,4.14 4.18,7.39 -0.87,15.79 -2.52,31.54 -3.32,47.35 20.08,19.89 43.71,35.86 69.04,48.27 -0.23,-17.68 -0.39,-35.38 -0.99,-53.05 12.51,5.3 25.38,9.82 38.6,13.01 2.07,18.28 3.9,36.6 6.04,54.88 27.8,6.2 56.5,8.25 84.89,5.92 -3.7,-18.44 -7.81,-36.79 -11.53,-55.23 16.61,-1.65 33.13,-4.39 49.34,-8.46 5.94,18.24 11.66,36.56 17.69,54.79 26.53,-6.71 52.28,-16.26 77.12,-27.72 -0.65,10.17 -0.24,20.38 -1.12,30.54 -66.21,28.93 -140.14,45.31 -212.26,33.16 -11.47,-2.39 -23.44,-3.74 -34.14,-8.76 1.21,0.1 3.62,0.33 4.83,0.45 -42.23,-14.31 -80.67,-39.83 -109.42,-73.98 -21.69,-25.52 -37.97,-55.18 -50.77,-86.02zm461.61 4.66c18.86,-13.28 37.7,-26.61 56.58,-39.88 7.16,9.04 14.28,18.14 21.49,27.15 -18.4,16.47 -37.65,32.01 -57.75,46.37 -6.85,-11.16 -13.44,-22.49 -20.32,-33.64zm-429.91 -61.45c3.88,-1.58 7.74,-3.18 11.59,-4.77 13.03,19.94 28.67,38.31 47.22,53.36 29.47,24.18 65.82,39.69 103.56,44.84 39.51,5.65 79.97,0.47 118.02,-10.94 48.93,-14.61 94.06,-39.71 135.5,-69.19 -11.92,19.63 -25.62,38.17 -38.14,57.45 -2.35,-5.86 -4.92,-11.62 -7.57,-17.33 1.27,6.94 3.08,13.79 3.81,20.83l0.18 1.35c-11.78,6.27 -23.52,12.68 -35.54,18.46 2.84,6.53 5.72,13.05 8.78,19.49l0.17 1.46 -0.28 1.54c-0.44,0.86 -1.28,2.59 -1.7,3.45 1.09,-0.09 3.28,-0.25 4.37,-0.34 4.32,8.89 8.15,18 12.22,27.01 -18.45,8.45 -37.42,15.81 -56.9,21.57 -6,-18.2 -11.62,-36.53 -17.73,-54.71 -26.38,8.06 -53.79,12.45 -81.34,13.45 3.77,18.29 7.65,36.55 11.52,54.83 -16.32,0.14 -32.74,-0.86 -48.7,-4.25 -1.58,-18.16 -4,-36.21 -5.69,-54.35 -25.36,-4.71 -49.47,-14.44 -71.79,-27.24 0.6,17.34 0.79,34.69 0.9,52.05 -12.03,-7.71 -23.4,-16.4 -33.93,-26.04 1.14,-16.51 2.25,-33 3.74,-49.47 -18.37,-18.58 -37.92,-36.42 -52.46,-58.35 -2.16,10.83 -4,21.74 -6.13,32.57 -4.89,-9.74 -9.13,-19.79 -13.17,-29.9 3.15,-5.64 6.27,-11.26 9.49,-16.83zm618.95 -45.34c7.34,5.99 15.05,11.5 22.22,17.7 -47.08,59.06 -101.21,112.83 -162.62,156.96 -7.22,-5.99 -14.5,-11.91 -21.72,-17.89 26.2,-18.53 51.1,-38.9 74.56,-60.78 -10.27,-13 -20.54,-25.99 -30.82,-38.97 19.64,-14.1 39.57,-27.82 59.04,-42.15 -3.58,13.54 -8.04,26.85 -11.85,40.34 11.26,-7.88 21.51,-17.09 32.54,-25.31 2.6,2.55 5.2,5.08 7.83,7.61 10.64,-12.21 21.09,-24.57 30.82,-37.51zm-699.01 -124.53c10.59,-0.22 21.16,0.69 31.76,0.44 -2.28,5.06 -5.67,10.01 -5.46,15.81 -0.42,28.41 1.41,56.83 5.27,84.98 5.99,0.59 12.08,1.91 18.04,0.35 1.68,7.85 3.79,15.59 5.9,23.34 -12.93,11.37 -25.82,22.79 -38.67,34.24 -2.81,2.28 -5.2,5.76 -9.15,5.9 0.74,-0.6 2.18,-1.81 2.91,-2.42 -10.5,-53.44 -14.01,-108.27 -10.6,-162.64zm712.1 -246.27c0.05,-17.6 -0.25,-35.21 0.15,-52.81 34.63,0.25 69.26,0.04 103.89,0.11 24.78,47.64 49.33,95.41 74.5,142.82 0.16,-8.41 0.21,-16.84 0.05,-25.27 0.04,-16.12 0.21,-32.24 -0.03,-48.34 0.08,-7.48 -5.27,-13.46 -11.72,-16.49 -0.12,-17.55 0.05,-35.09 -0.09,-52.63 32.65,-0.21 65.3,-0.06 97.96,-0.07 -0.05,17.68 0.12,35.38 -0.11,53.08 -10.67,-0.03 -21.33,0.16 -31.99,-0.05 -5.32,-0.4 -10.64,-0.49 -15.97,-0.32 12.53,3.36 25.45,4.94 38.15,7.47 -1.23,4.72 -2.09,9.55 -2,14.47 0.17,30.9 -0.04,61.83 0.12,92.76 -40.59,11.55 -80.08,26.85 -117.85,45.65 -12.68,-23.42 -25.64,-46.69 -38.5,-70.01 -4.26,-8.05 -8.85,-15.95 -13.96,-23.5 -0.24,20.13 0.02,40.27 -0.14,60.41 0.05,6.34 -0.31,12.93 2.07,18.93 1.81,4.39 6.17,6.83 9.77,9.59 0.05,8.99 0.24,18 -0.04,27.01 -12.38,7.67 -24.74,15.37 -36.65,23.76 -2.51,2.05 -5.92,1.39 -8.87,1.56 -16.28,-0.14 -32.54,0.04 -48.82,-0.1 0.2,-17.69 -0.19,-35.35 0.22,-53.02 6.62,-3.06 11.78,-9.4 11.59,-16.96 0.22,-39.87 0.07,-79.77 0.08,-119.63 0.5,-8.02 -4.65,-15.21 -11.81,-18.42zm-598.4 -52.26c95.26,-0.02 190.52,0 285.77,0 0.04,40.97 0.02,81.92 0.02,122.89 -21.09,-1.7 -42.2,-3.27 -63.29,-4.99 0.16,-14.59 0,-29.18 0.11,-43.76 -0.04,-5.39 -0.13,-11.43 -3.99,-15.63 -4.09,-4.25 -10.36,-4.58 -15.89,-4.9 -12.96,-0.23 -25.94,0.16 -38.9,-0.17 -5.32,-0.41 -10.68,-0.27 -15.98,0.17 14.05,2.97 28.15,5.74 42.2,8.78 0.14,42.57 -0.12,85.12 0.12,127.69 -0.56,8.04 4.95,14.4 11.61,18.02 0.33,17.56 0.07,35.12 0.14,52.68 -39.28,0.09 -78.57,-0.16 -117.85,0.12 -0.42,-17.89 -0.35,-35.81 -0.04,-53.7 3.25,-2.04 6.82,-4.04 8.77,-7.5 3.39,-5.57 2.3,-12.31 2.47,-18.49 0.04,-42.5 -0.16,-85 0.09,-127.48l0.05 -0.72c-8.88,0.72 -18.47,0.25 -26.39,4.99 -5.02,2.95 -5.94,9.15 -6.15,14.45 -0.4,15.04 0.23,30.1 -0.31,45.14 -20.83,1.51 -41.68,3.1 -62.5,4.9 -0.18,-40.83 -0.04,-81.66 -0.06,-122.49zm-154.55 -0.42c39.21,-0.04 78.43,-0.02 117.64,-0.02 0.02,17.86 0.02,35.7 0,53.56 -10.43,-0.04 -20.84,0.05 -31.28,0 -5.14,-0.6 -10.34,-0.54 -15.48,-0.02 12.24,2.94 24.7,4.73 37.07,7.11 -1.25,5.13 -2.2,10.37 -2.18,15.65 0.05,36.37 0.05,72.74 0,109.09 0.17,5.11 0.14,10.55 2.76,15.12 2,3.58 5.76,5.58 8.97,7.94 0.33,17.44 0.07,34.89 0.14,52.33 -39.25,-0.11 -78.5,0.19 -117.73,-0.14 0.27,-17.58 -0.1,-35.14 0.2,-52.7 7.51,-3.29 12.18,-10.94 11.69,-19.14 0.04,-39.2 0.16,-78.4 -0.05,-117.59 0.33,-7.83 -4.88,-14.4 -11.7,-17.67 -0.12,-17.84 -0.03,-35.68 -0.05,-53.52zm-325.35 -69.35c95.28,-0.09 190.55,0 285.84,-0.04 0.02,53.12 -0.02,106.25 0.02,159.35 -21.11,-1.81 -42.15,-4.32 -63.22,-6.43 -0.06,-21.7 0,-43.41 -0.02,-65.11 -0.04,-4.62 -0.84,-9.8 -4.55,-12.98 -4.06,-3.35 -9.59,-3.86 -14.66,-4.09 -13,-0.23 -26.01,0.14 -39.01,-0.14 -5.35,-0.49 -10.73,-0.27 -16.05,0.4 13.95,2.41 27.71,5.71 41.61,8.31 0.36,57.25 0.07,114.5 0.15,171.74 0.16,7.54 -0.72,15.25 1.2,22.64 1.33,5.64 6.51,8.89 10.74,12.28 -0.15,23.21 -0.03,46.43 -0.07,69.64 -39.32,0.06 -78.65,-0.1 -117.97,0.09 -0.26,-23.65 -0.11,-47.33 -0.09,-70.98 3.14,-2 6.62,-3.86 8.64,-7.13 2.97,-4.71 3.02,-10.52 3.18,-15.89 0,-63.64 -0.02,-127.27 0,-190.89l0.02 -0.67c-9.06,0.72 -18.79,0 -27.01,4.5 -4.74,2.51 -5.66,8.3 -5.53,13.15 0.03,22.2 0.05,44.41 0.01,66.61 -21,2.16 -42.02,4.28 -63,6.62 -0.48,-53.65 -0.04,-107.32 -0.23,-160.98zm1424.51 13.24c29.56,-15.75 64.24,-16.02 96.88,-15.23 36.53,1.57 75.13,5.29 106.11,26.63 0,30.11 0,60.23 0,90.35 -30.24,0.07 -60.5,-0.13 -90.74,0.08 -0.37,-11.16 0.97,-23.35 -5.25,-33.27 -3.71,-6.25 -11.01,-9.49 -18.11,-9.52 -18.82,-0.79 -37.68,0 -56.51,-0.39 -4.51,-0.4 -9.04,-0.3 -13.52,0.16 11.98,3.51 24.37,5.34 36.56,7.96 -6.07,11.69 -6.23,29.08 5.88,36.98 14.09,8.96 31,11.33 46.72,16.1 25.13,7.43 51.49,14.84 71.98,32 14.98,12.34 21.74,31.99 22.35,50.93 0.62,25.97 1.22,52.99 -9.11,77.39 -8.13,20.81 -25.11,37.47 -45.36,46.59 -23.14,10.87 -48.98,13.1 -74.16,14.45 -95.99,0.72 -193.08,7.94 -285.47,35.56 21.44,-20.81 42.37,-42.16 63.57,-63.22 -36.76,7.69 -72.97,18.81 -106.74,35.37 -35.1,17 -67.5,39.26 -97.06,64.64 1.16,-7.59 2.55,-15.14 3.62,-22.74 -41.11,27.73 -81.09,57.14 -119.78,88.16 16.15,-20.82 34.19,-40.13 51.89,-59.61 28.68,-30.85 58.97,-60.37 92.14,-86.41 -0.98,7.37 -2.31,14.69 -3.37,22.07 47.79,-39.51 101.21,-72.23 158.4,-96.23 50.74,-21.48 104.16,-36.27 158.46,-45.31 -16.53,17.08 -33.69,33.57 -50.09,50.8 54.32,-15.26 110.65,-22.3 166.97,-23.78 0.93,-12.15 -2.62,-26.02 -13.36,-33.03 -11.77,-7.48 -25.96,-9.13 -39.15,-12.75 -24.14,-6.16 -49.31,-12.41 -69.43,-27.85 -15.65,-12.08 -24.61,-30.94 -27.27,-50.24 -3.22,-22.71 -3.04,-46.22 2.47,-68.56 5.39,-21.2 22.18,-37.32 40.48,-48.08zm-207.85 -257.81c9.18,-1.83 18.37,-3.64 27.62,-5.19 28.31,56.75 41.99,119.93 45.17,183.01 -9.4,-0.04 -18.77,-0.02 -28.13,-0.02 -1.15,-19 -2.9,-37.98 -5.89,-56.79 -18.95,3.19 -37.89,6.39 -56.86,9.52 -3.11,-18.56 -7.27,-36.95 -12.56,-55.02 18.46,-5.2 36.83,-10.64 55.3,-15.82 -6.42,-20.6 -14.87,-40.5 -24.65,-59.69zm-155.22 -35.97c20,-15.79 40.09,-31.45 60.11,-47.2 7.72,5.18 15.15,10.76 22.25,16.77 -16.09,8.53 -32.3,16.87 -48.4,25.37 17.74,16.74 33.89,35.37 46.01,56.64 1.21,1.35 2.14,5.04 4.65,3.47 14.7,-5.76 29.44,-11.5 43.92,-17.84 1.02,0.97 2.04,1.93 3.06,2.9l-3.37 1.62c3.07,-0.78 6.14,-1.58 9.23,-2.36 7.91,14.37 14.63,29.36 20.39,44.71 -18.35,5.48 -36.81,10.5 -55.17,15.91 9.99,27.89 16.22,56.95 20.09,86.3 18.93,-3.2 37.86,-6.48 56.8,-9.55 1.48,12.29 2.52,24.65 3.29,37.01 -27.77,-0.07 -55.53,0.21 -83.29,-0.14 -4.78,-61.18 -22.11,-123.15 -59.46,-172.69 -11.51,-15.35 -25.19,-28.93 -40.11,-40.92zm-220.2 -47.34c12.8,-6.64 26.34,-11.86 39.88,-16.84 -8.01,9.32 -16.66,18.08 -24.25,27.76 -10.4,3.37 -21.09,5.65 -31.47,9.08 5.57,-6.41 9.55,-14.26 15.84,-20zm294.39 -10.91c4.25,-3.34 8.52,-6.65 12.77,-9.99 10.64,4.51 21.18,9.31 31.85,13.73 18.34,16.14 33.56,35.56 47.08,55.83 -6.12,6.93 -12.62,13.54 -18.82,20.42 -1.6,-2.74 -3.2,-5.48 -4.78,-8.22 -17.49,7.03 -35.01,13.95 -52.45,21.08 -8.08,-12.51 -17.26,-24.27 -27.22,-35.34 16.31,-8.48 32.61,-16.98 48.85,-25.57 -11.25,-11.94 -23.93,-22.44 -37.28,-31.94zm-152.22 -26.46c14.23,-1.04 28.56,0.03 42.68,1.79 -12.51,10.2 -25.4,19.93 -37.97,30.03 13.5,3.07 27.24,5.41 40.37,9.95 12.33,3.94 23.96,9.65 35.46,15.55 -4.64,6.35 -9.87,12.24 -14.74,18.4 -30.73,-19.91 -66.46,-31.93 -103.04,-34.23 -8.64,-0.37 -17.35,-1.47 -25.94,0.02 -18.55,-0.03 -36.92,2.78 -55.25,5.25 25.39,-7.2 51.17,-13.92 77.66,-15.33 3.25,-0.47 7.23,0.26 9.71,-2.44 10.36,-9.66 20.72,-19.32 31.06,-28.99zm-166.63 19.81c60.79,-30.3 127.7,-50.79 196.07,-50.91 29.16,0.51 58.72,3.67 86.34,13.38 -0.6,-0.81 -1.79,-2.44 -2.39,-3.27 8.24,1.7 15.72,6.11 23.22,9.84 -7.2,8 -13.14,17.15 -20.77,24.7 -12.6,7.55 -24.64,15.93 -37.13,23.64 -11.33,-5.65 -23.2,-10.18 -35.28,-13.93 13.03,-10.53 26.57,-20.44 39.39,-31.24 -14.75,-3.16 -29.5,-6.56 -44.57,-7.95 -14.91,-1.74 -29.94,-1.2 -44.92,-1.21 -11.43,10.36 -22.58,20.98 -33.91,31.43 -12.49,0.7 -24.88,2.48 -37.19,4.64 9.53,-10.57 19.12,-21.11 28.43,-31.88 -30.33,7.82 -60.57,16.48 -89.13,29.54 -6.33,3.29 -14.24,4.81 -18.59,10.96 -5.61,7.41 -11,15 -16.67,22.35 -2.3,3.1 -5.99,4.57 -9.25,6.38 -11.93,5.99 -23.38,12.8 -34.79,19.67 -3.23,-3.02 -6.46,-6.03 -9.68,-9.05 -24.9,17.2 -48.48,36.25 -70.98,56.46 -5.74,4.92 -7.36,12.66 -10.41,19.23 -1.72,3.46 -4.59,6.11 -7.52,8.54 -17.1,14.41 -33,30.2 -48.61,46.2 -1.86,-1.49 -3.7,-2.99 -5.56,-4.48 -13.72,16.18 -26.08,33.44 -38.04,50.93 -5.78,8.16 -11.28,16.49 -16.9,24.74 -6.32,8.73 -10.78,18.67 -17.45,27.17 -5.95,-4.15 -11.91,-8.31 -17.79,-12.54 29.59,-41.97 62.55,-81.57 98.57,-118.19 57.25,-57.89 122.52,-108.59 195.51,-145.15zm11.52 -20.83c63.62,-28.61 134.44,-45.34 204.37,-36.58 21.14,2.63 42.03,7.71 62.01,15.1 0.19,0.33 0.6,1 0.81,1.32 -8.52,-1.13 -16.37,-4.95 -24.71,-6.81 -64.59,-17 -133.36,-9.59 -196.3,10.65 -17.03,5.4 -33.57,12.16 -50.06,18.95 1.14,-1.09 2.44,-1.96 3.88,-2.63zm88.36 473.09l0 0c-8.37,35.39 -17.15,70.68 -25.5,106.07 4.66,0.05 9.35,0.02 14.02,-0.26 12.92,-0.39 25.85,-0.09 38.79,-0.18 -6.39,-27.87 -12.15,-55.9 -19.05,-83.64 -0.65,-9.98 -3.94,-19.65 -5.92,-29.45 -0.9,2.46 -1.74,4.91 -2.34,7.46z"/>
  </g>
 </g>
</svg>
