<?xml version="1.0" encoding="UTF-8"?>
<!DOCTYPE svg PUBLIC "-//W3C//DTD SVG 1.1//EN" "http://www.w3.org/Graphics/SVG/1.1/DTD/svg11.dtd">
<!-- Creator: CorelDRAW -->
<svg xmlns="http://www.w3.org/2000/svg" xml:space="preserve" width="2000px" height="1600px" version="1.1" style="shape-rendering:geometricPrecision; text-rendering:geometricPrecision; image-rendering:optimizeQuality; fill-rule:evenodd; clip-rule:evenodd"
viewBox="0 0 2000 1600"
 xmlns:xlink="http://www.w3.org/1999/xlink">
 <defs>
  <style type="text/css">
   <![CDATA[
    .fil0 {fill:#005495;fill-rule:nonzero}
    .fil2 {fill:#BDC0C2;fill-rule:nonzero}
    .fil1 {fill:#FEFEFE;fill-rule:nonzero}
   ]]>
  </style>
 </defs>
 <g id="Capa_x0020_1">
  <metadata id="CorelCorpID_0Corel-Layer"/>
  <g id="Drake_x0020_Bulldogs.cdr">
   <path class="fil0" d="M587.52 228.72l12.76 0c17.81,2.25 33.3,11.99 47.28,22.59 14.27,0.28 28.7,0.95 42.54,4.91 12.27,-11.15 26.09,-22.27 42.99,-24.84 11.71,-2.04 23.91,3.26 30.96,12.69 12.04,15.53 15.99,35.39 19.42,54.28 13.11,8.2 24.84,18.8 33.4,31.75 25.63,8.63 49.56,23.88 65.73,45.82 11.51,15.63 18.39,34.43 20.4,53.69 -0.19,4.22 3.94,6.16 6.55,8.65 28.08,23.62 40.71,63.93 30.59,99.27 -1.58,3.82 -0.64,7.8 0.46,11.59 3.14,12.2 0,25.7 -7.89,35.46 -5.33,6.9 -12.69,11.84 -20.21,16.08 -1.37,12.28 -4.71,24.41 -10.8,35.21 -7.43,14.05 -18.94,25.36 -31.26,35.17 36.28,10.02 70.49,28.9 96.67,56.16 31.04,31.45 49.52,74.06 54.24,117.78 94.86,-0.02 189.72,0.02 284.58,-0.02 17.47,0 34.91,3.28 51.12,9.83 4.6,-13.65 9.71,-27.13 14.62,-40.67 0.39,-2.25 2.26,-3.41 4.39,-3.79 83.74,-23.38 167.42,-46.98 251.17,-70.42 -13.85,35 -27.67,70.01 -41.48,105.02 42.25,0.1 84.52,0.02 126.77,0.05 25.16,0.46 50.69,-1.82 75.48,3.69 28.64,5.94 55.58,20.67 75.27,42.39 20.62,22.4 33.21,51.79 35.99,82.05 4.32,45.35 -10.53,91.15 -36.75,127.97 -30.7,43.19 -76.28,76.19 -127.73,89.68 -31.85,8.64 -65.18,6.1 -97.81,5.86 -158.96,0.05 -317.93,0 -476.9,0.02 -16.04,-0.26 -32.33,1.22 -48.06,-2.73 -11.34,-2.48 -22.29,-6.62 -32.51,-12.06 -2.06,4.81 -3.91,9.71 -5.58,14.69 -82.49,0.24 -165,0.05 -247.5,0.08 6.11,-16.28 12.59,-32.43 18.51,-48.78 -55.08,31.94 -118.33,51.29 -182.31,50.09 -75.26,0 -150.49,0 -225.75,0 17.48,-44.89 35.53,-89.56 52.87,-134.51 -14.32,14.74 -27.36,30.69 -40.21,46.71 -13.17,17.41 -27.62,35.08 -47.6,44.96 -12.1,6.3 -26.52,8.34 -39.7,4.46 -14.7,5.84 -31.59,4.67 -45.58,-2.6 -5.66,23.17 -12.76,47.34 -29.52,65.13 -9.26,9.98 -22.33,17.19 -36.21,16.95 -6.89,-0.57 -12.95,3.09 -19.37,4.89 -18.06,5.57 -40.43,4.22 -53.69,-10.77 -13.65,-1.77 -27.91,-5.07 -38.61,-14.3 -6.64,-5.66 -10.6,-13.89 -11.7,-22.47 -8.46,-5.98 -16.16,-13.62 -19.73,-23.55 -6.45,-16.88 -2.31,-38 11.68,-49.9 12.75,-10.94 18.91,-27.57 22.01,-43.64 -2.98,-7.05 -7.87,-13.21 -10.32,-20.55 -8.43,-20.43 -7.33,-45.36 6.1,-63.42 -19.98,-57.72 -34.27,-117.78 -37.29,-178.97l0 -37.91c2.59,-41.55 10,-84.04 30.93,-120.57 0.2,-0.57 0.6,-1.7 0.8,-2.27 15,-88.43 54.66,-173.65 117.39,-238.3 56.44,-58.52 131.86,-96.92 211.11,-113.38 2.7,-0.58 5.44,-1.04 8.03,-2.05 12.32,-9.41 18.98,-24.38 31.58,-33.49 12.65,-9.74 28.74,-13.83 44.5,-14.05 10.84,-13.16 25.82,-23.77 43.18,-25.61zm546.39 1031.56l0 0c-11.44,31.58 -23.07,63.1 -34.36,94.73 11.12,0.07 21.31,-6.11 28.44,-14.29 11.51,-13.33 18,-30.09 22.92,-46.78 2.09,-8.17 4.17,-17.43 0.38,-25.39 -3.23,-6.38 -10.88,-7.99 -17.38,-8.27zm-747.16 44.95l0 0c-6.08,17 -12.34,33.93 -18.48,50.91 6.85,0.12 14.34,0.69 20.26,-3.43 8.97,-6.01 13.02,-16.69 16.3,-26.5 1.59,-5.53 3.48,-12.46 -0.65,-17.31 -4.36,-4.96 -11.58,-3.66 -17.43,-3.67zm5.31 -14.57l0 0c4.67,-0.48 9.56,-0.51 13.9,-2.54 8.34,-3.41 13.38,-12.9 12.97,-21.65 -2.3,-6.31 -10.16,-5.79 -15.65,-6.12 -3.91,10.04 -7.44,20.23 -11.22,30.31zm-30.79 -44.6c22.7,-0.2 45.41,-0.08 68.1,-0.08 8.53,0.43 18.41,1.51 24.35,8.4 5.49,7.72 1.54,17.84 -2.64,25.22 -6.2,10.86 -18.93,15.23 -30.64,16.84 6.69,1.29 13.75,3.45 18.25,8.94 5.33,6.21 5.3,15.2 3.17,22.71 -3.7,12.54 -11.25,24.38 -22.37,31.55 -10.67,7.12 -23.72,9.76 -36.36,9.85 -22.35,-0.04 -44.71,-0.02 -67.04,-0.02 1.78,-4.89 3.52,-9.81 5.49,-14.63 2.61,-0.02 5.21,-0.06 7.82,-0.09 10.98,-31.51 22.78,-62.75 34.07,-94.16 -2.44,-0.05 -4.89,-0.1 -7.33,-0.14 1.74,-4.8 3.47,-9.58 5.13,-14.39zm969.14 14.29l0 0c-6.96,2.97 -11.17,9.83 -14.53,16.28 -8.2,17.17 -13.67,36.02 -13.33,55.17 0.55,8.56 2.08,19.14 10.54,23.52 6.41,2.11 14.04,0.48 19.05,-4.12 6.3,-5.7 9.95,-13.59 13.06,-21.34 5.95,-14.58 9.69,-30.24 9.57,-46.04 -0.55,-7.5 -1.36,-15.9 -6.93,-21.53 -4.43,-4.77 -11.89,-4.1 -17.43,-1.94zm10.84 -16.47c15.32,-2.21 32.73,-1.23 44.98,9.35 10.81,9.49 13.55,25.13 11.15,38.75 -6.74,38.19 -37.7,71.66 -76.2,78.86 -10.2,0.63 -20.46,0.33 -30.69,0.21 -12.69,-1.87 -24.3,-10.91 -28.32,-23.25 -5.14,-15.28 -1.27,-31.97 5.13,-46.26 13.05,-29.85 41.26,-53.39 73.95,-57.66zm205.89 1.14c12.66,-2.34 26.77,-4.17 38.34,2.88 7.42,3.69 12.67,10.17 17.22,16.91 -10.09,5.37 -20.28,10.57 -30.42,15.82 -1.88,-7.98 -5.18,-17.81 -14.29,-19.78 -11.06,-1.56 -21.75,4.78 -28.69,13 -9.9,11.7 -16.01,26.18 -20.02,40.83 -2.58,10.57 -3.79,23.65 4.46,32.13 6.33,6.12 16.5,8.85 24.84,7.44 5.45,-14.61 10.89,-29.26 15.91,-44.03 -7.08,0.03 -14.15,0.26 -21.21,-0.14 1.75,-4.66 3.48,-9.33 4.88,-14.12 19.17,-0.49 38.36,-0.31 57.54,-0.08 -8.82,24.44 -17.88,48.8 -26.31,73.38 -20.35,0.47 -40.71,0.09 -61.07,0.21 -13.98,0 -29.2,-5.97 -36.03,-18.89 -7.85,-14.51 -5.04,-32.25 0.96,-46.9 12.41,-30.62 41.91,-52.34 73.89,-58.66zm184.37 3.07c12.98,-5.1 27.89,-7.31 41.29,-2.39 9.48,3.38 17.43,10.36 22.47,19.04 -9.01,4.89 -18.13,9.57 -27.31,14.12 -3.21,-6.28 -6.43,-13.45 -13.12,-16.66 -9.08,-3.91 -19.85,-0.13 -26.85,6.18 -3.81,3.4 -1.87,9.38 2.27,11.56 13.26,8.06 30.65,9.63 41.01,22.2 7.88,9.61 5.23,23.36 0.24,33.69 -8.71,16.5 -25.57,27.05 -42.87,32.78 -11.2,4.12 -23.29,2.15 -34.94,2.51 -13.79,-1.45 -25.56,-10.09 -35.56,-19.17 7.93,-7.78 16.45,-14.94 24.14,-22.97 8.69,11.21 21.1,20.07 35.44,21.91 7.49,0.91 16.21,1.51 22.55,-3.38 2.77,-2.69 5.82,-7.15 3.52,-11.03 -3.7,-5.3 -10.17,-7.39 -15.82,-9.93 -10.36,-4.51 -21.71,-8.42 -29.4,-17.16 -5.3,-5.98 -6.6,-14.64 -4.41,-22.21 4.94,-18.25 20.18,-32.2 37.35,-39.09zm-1192.43 12.57c1.18,-5.06 3.15,-9.86 4.95,-14.72 15.97,0.09 31.93,-0.1 47.9,0.11 -11.65,31.73 -23.18,63.52 -34.74,95.29 -1.37,4.56 -3.65,9.96 -1.05,14.49 4.17,4.08 10.79,3.17 16.03,2.21 8.3,-1.85 12.36,-10.24 15.16,-17.44 11.51,-31.51 23,-63.04 34.41,-94.59 15.97,-0.09 31.94,-0.09 47.91,0 -1.78,4.65 -3.17,9.45 -5.23,14 -2.54,1.18 -5.66,0.31 -8.41,0.56 -9,25.05 -18.16,50.04 -27.3,75.04 -7.33,17.29 -24.98,27.58 -42.17,33.02 -10.72,4.03 -22.33,2.09 -33.5,2.55 -10.1,0.69 -20.26,-3.46 -27.53,-10.37 -6.57,-6.28 -8.99,-16.25 -5.96,-24.84 8.96,-25.22 18.46,-50.25 27.4,-75.48 -2.63,0.05 -5.27,0.1 -7.87,0.17zm211.18 -14.68c19.45,0 38.9,-0.07 58.34,0.03 -1.77,4.91 -3.5,9.83 -5.52,14.65 -3.5,-0.1 -7,-0.15 -10.48,-0.19 -11.63,31.41 -22.92,62.94 -34.42,94.38 8.74,-0.05 17.48,0.24 26.22,-0.07 10.75,-1.06 18.35,-10.18 22.12,-19.64 4.16,0 8.31,0 12.48,0.02 -4.7,11.41 -9.95,22.61 -14.48,34.08 -33.06,0.52 -66.11,0.09 -99.17,0.23 1.78,-4.67 3.17,-9.49 5.25,-14.02 2.59,-1.8 7.82,1.34 8.78,-2.69 11.13,-30.76 22.4,-61.46 33.49,-92.25 -2.61,0.03 -5.22,0.08 -7.81,0.17 1.61,-4.96 3.43,-9.83 5.2,-14.7zm170.17 0.29c19.54,-0.71 39.13,-0.12 58.7,-0.31 -1.78,4.91 -3.57,9.83 -5.47,14.7 -3.52,-0.1 -7.02,-0.15 -10.5,-0.22 -11.68,31.42 -23.11,62.95 -34.39,94.53 9.64,-0.53 19.4,0.71 28.99,-0.67 9.36,-2.29 15.76,-10.55 19.17,-19.14 4.21,-0.02 8.41,-0.02 12.63,0 -5.06,11.39 -9.83,22.9 -14.87,34.31 -32.97,-0.04 -65.94,0.07 -98.91,-0.05 1.85,-4.75 3.6,-9.54 5.11,-14.4 2.64,-0.06 5.28,-0.08 7.96,-0.05 11.82,-31.39 23.12,-62.99 34.49,-94.53 -2.62,0.03 -5.23,0.08 -7.83,0.13 1.69,-4.75 3.43,-9.48 4.92,-14.3zm165.9 14.41c1.09,-5.1 3.14,-9.9 4.99,-14.72 18.92,0.05 37.86,-0.1 56.78,0.05 13.1,0.62 27.43,4.46 35.8,15.28 7.73,9.73 7.79,23.09 5.49,34.74 -5.48,23.67 -19.15,46.03 -39.73,59.41 -15.1,9.79 -33.28,14.46 -51.21,14.05 -17.65,-0.06 -35.32,0 -52.97,-0.02 1.67,-4.94 3.43,-9.83 5.41,-14.63 3.08,0.01 6.17,-0.02 9.28,-0.07 10.96,-31.55 22.86,-62.79 33.99,-94.28 -2.62,0.05 -5.24,0.12 -7.83,0.19z"/>
   <path class="fil1" d="M611.83 752.37c48.52,-33.13 105.03,-56.01 163.99,-60.18 43.21,-3.33 87.98,3.31 126.44,24 28.92,15.52 53.64,39.2 69.22,68.2 15.11,27.57 21.51,59.31 20.96,90.59 99.92,0.06 199.85,0.02 299.79,0.02 18.56,-0.14 38.01,0.29 54.96,8.8 9.52,4.65 17.72,11.82 23.45,20.74 9.04,-22.4 16.71,-45.39 24.96,-68.12 60.26,-17.15 120.61,-33.96 180.94,-50.84 -17.77,45.97 -36.2,91.69 -54.07,137.61 22.45,-15.48 44.03,-32.24 66.52,-47.61 54.86,-0.37 109.75,-0.01 164.63,-0.17 31.05,-0.22 62.84,11.08 84.57,33.71 20.96,21.31 31.29,51.64 30.43,81.26 -0.81,44.14 -22.01,86.11 -52.58,117.23 -35.32,36.23 -84.91,60.31 -136.11,59.01 -181.31,-0.02 -362.61,0.02 -543.93,-0.02 -27.31,-0.65 -56.06,-13.08 -69.81,-37.72 -4.74,12.59 -9.37,25.22 -14.21,37.76 -60.55,-0.14 -121.12,0.17 -181.68,-0.16 14.74,-38.46 29.49,-76.92 44.24,-115.37l-0.61 -0.3c-16.21,22.18 -37.93,39.6 -60.13,55.46 -56.52,39.66 -125.12,63.11 -194.49,61.64 -59.35,0.01 -118.72,-0.05 -178.1,0.05 12.99,-33.52 26.46,-66.83 39.43,-100.35 10.29,-0.09 20.58,-0.11 30.85,0.02 22.63,-61.86 45.09,-123.79 67.3,-185.78 -1.99,-2.68 -5.21,-4.09 -7.84,-6.03 -26.26,-17.85 -52.49,-35.71 -78.72,-53.62 23.25,-26.69 50.42,-49.85 79.6,-69.83zm572.17 301.31c14.24,-14.21 35.77,-17.52 55.07,-16.33 -1.67,6.88 -4.62,13.36 -6.85,20.07 -3.58,9.14 -5.69,19.28 -12.52,26.74 -8.39,10.12 -22.94,14.45 -35.56,11.03 -6.92,-1.82 -12.03,-8.39 -12.03,-15.56 0.12,-9.83 5.06,-19.09 11.89,-25.95zm-846.66 -38.48c9.37,-12.64 25.17,-17.38 39.44,-22.11 -0.7,20.67 -1.99,42.06 5.04,61.89 3.57,10.17 11.41,19.88 22.56,21.82 13.95,2.71 27.07,-4.03 39.54,-9.28 -10.33,14.34 -21.18,28.34 -33.14,41.38 -5.37,5.64 -10.31,12.02 -17.43,15.59 -9.86,5.58 -21.9,5.49 -32.39,1.79 -13.86,6.96 -33.91,6.69 -43.1,-7.57 -8.72,0.29 -18.27,-1.05 -24.74,-7.46 -4.46,-4.12 -6.24,-10.19 -6.36,-16.11 -7.28,-3.55 -12.58,-10.75 -13.08,-18.92 -1.08,-11.31 4.12,-21.87 9.85,-31.24 9.44,5.63 19.81,-1.11 27.88,-6.17 9.7,-6.59 18.66,-14.36 25.93,-23.61zm-60.02 -32.81c3.52,-7.89 5.18,-16.47 9.06,-24.21 5.02,16.8 7.87,34.14 9.4,51.58 -14.57,0.12 -28.29,7.84 -36.8,19.51 -10.79,14.1 -18.68,32.76 -13.53,50.6 1.23,5.56 4.8,10.05 7.5,14.93 -0.49,12.26 3.1,25.3 12.45,33.76 6.3,6.12 14.84,8.78 23.09,11.09 -5.42,22.05 -11.87,45.79 -29.23,61.64 -0.1,-7 4.05,-16.97 -3,-21.8 -4.29,5.52 -6.21,12.54 -11.1,17.67 -8.75,11.4 -23.57,16.6 -37.66,14.87 5.29,-8.99 11.12,-18.37 12.01,-29.01 -0.94,-4.12 -4.94,-1.15 -6.57,0.81 -8.27,8.93 -19.83,15.92 -32.37,15.44 -7.22,-0.07 -13.77,-3.49 -19.83,-7.09 9.62,-6.65 21.44,-13.23 25.17,-25.01 -2.47,-3.88 -6.52,-0.27 -9.52,0.79 -8.99,3.79 -20.04,6.59 -29.15,1.7 -6.93,-3.88 -9.09,-12.2 -9.97,-19.52 24.07,-20.57 37.81,-52.32 37.33,-83.87 -9.86,-9.42 -17.44,-22.39 -17,-36.38 0.35,-11.81 7.02,-22.22 14.98,-30.45 4.46,14 13.7,27.84 28.3,32.52 15.51,4.56 32.53,0.29 45.92,-8.16 14.38,-10.02 23.99,-25.43 30.52,-41.41zm1451.58 -38.96c6.35,-5.46 14.03,-11.27 22.88,-10.48 7.93,1.01 11.58,9.38 12.94,16.33 2.73,16.74 -0.28,33.79 -4.27,50.09 -22.83,-0.04 -45.65,0.05 -68.47,-0.05 9.23,-20.36 20.44,-40.47 36.92,-55.89zm-816.95 -433.81c6.27,6.02 7.71,15.03 8.15,23.31 -3.98,-1.68 -7.96,-3.34 -12.02,-4.77 1.7,-6.09 3,-12.28 3.87,-18.54zm-98.37 -2.97c-0.81,-2.49 -2.66,-4.72 -2.51,-7.43 8.29,6.11 17.33,13.09 18.94,24.07 -4.65,0.81 -9.25,1.84 -13.81,3.04 0.15,-6.64 -0.02,-13.47 -2.62,-19.68zm-109.88 -49.63c-11.78,-6.39 -15.76,-22 -10.51,-33.94 4.44,1.87 8.75,4.06 12.95,6.45 -3.38,7.96 2.49,18.13 11.27,18.39 4.79,0.72 8.8,-2.29 11.99,-5.44 3.35,1.92 6.62,3.93 9.88,6 -7.29,11.62 -23.84,15.9 -35.58,8.54zm-91.6 -174.01c8.32,-4.32 18.15,-3 26.9,-0.92 5.99,1.9 12.31,0.17 18.46,0.63 20.24,0.43 41.94,6.67 55.37,22.73 -12.33,4.2 -23.9,12.75 -28.34,25.41 19.09,-7.78 40.19,-12.34 60.74,-8.39 19.49,3.34 37.09,14.8 49.01,30.45 1.62,1.8 2.83,4.52 5.65,4.63 23.1,4.75 45.52,17.07 58.89,36.93 5.14,7 4.85,18.84 -3.19,23.55 -9.51,5.34 -21.93,0.04 -26.83,-9.16 -10.91,-18.97 -32.37,-30.15 -53.92,-31.03 7.89,7.15 17.04,14.8 19.01,25.87 1.42,9.95 -6.69,18.41 -15.56,21.41 -16.19,5.85 -33.81,0.79 -49.03,-5.63 -21.11,-9.96 -43.04,-20.02 -66.69,-21.36 -14.1,-0.82 -28.72,4.29 -37.83,15.39 14.33,-0.08 28.62,2.3 42.25,6.67 -1.85,8.14 -2.47,16.59 -0.68,24.79 -37.19,-6.6 -78.17,10.24 -97.66,43.09 -4.63,7.11 -6.14,15.55 -9.18,23.33 -2.98,2.97 -7.1,4.46 -10.58,6.78 -18.91,11.71 -33.2,32.59 -32.97,55.36 -0.53,10.44 2.67,20.51 6.82,29.95 -1.23,8.47 -0.56,17.07 1.93,25.26 -24.86,10.19 -48.34,26.27 -62.62,49.48 -7.75,12.43 -11.92,26.86 -12.97,41.41 21.64,-34.11 56.48,-58.82 95.06,-70.15 18.57,11 40.57,15.22 61.97,14.53 33.8,0.48 68.36,-7.48 96.65,-26.48 18.23,-11.62 32.51,-28.05 47.28,-43.57 18.42,-18.12 38.27,-35.77 62.37,-45.87 22.95,-9.85 48.48,-12.03 73.16,-10.04 9.08,1.39 20.53,2.8 25.41,11.77 3.89,9.76 -7.09,20.03 -16.73,18.27 -16.48,-2.87 -32.97,-9.66 -49.97,-6.5 -9.18,1.23 -17.24,6.26 -24.24,12.05 -1.11,1.31 -2.14,2.68 -3.15,4.07 8.57,4.67 17.82,11.27 19.5,21.63 1.34,11.48 -7.02,21.32 -16.02,27.24 -23.88,14.86 -54.72,14.79 -80.35,4.55 -14.27,19.93 -35.15,35.11 -58.89,41.55 -19.3,5.61 -39.66,5.95 -59.53,3.86 -27.72,-1.81 -56.21,-1.91 -83.06,6.21 -15.93,4.82 -31.27,13.84 -40.48,28.04 -4.15,6.88 -7.36,14.58 -7.79,22.68 0.52,-0.39 1.51,-1.22 2.01,-1.63 36.95,-18.17 79.85,-22.78 120.28,-16.14 -1.44,0.81 -2.9,1.61 -4.39,2.31 -36,9.54 -71.03,24.41 -101.38,46.22 -25.71,18.63 -47.88,45.01 -53.72,77 -4.81,23.13 -0.31,46.9 7.27,68.91 -1.36,0.14 -4.05,0.43 -5.4,0.58 -15.99,-1.11 -27.62,-14.13 -43.03,-17.24 -11.1,-2.43 -22.52,-0.36 -33.23,2.85 -31.46,8.34 -65.68,-6.41 -85.49,-31.25 35.1,1.52 65.48,-22.01 100.59,-20.95 -9.26,-4 -19.33,-5.57 -29.28,-6.71 -7.02,-0.06 -7.72,-8.08 -8.85,-13.38 -3.55,-22.93 9.11,-44.17 22.06,-61.96 12.9,-17.73 12.72,-40.82 12.02,-61.79 -0.46,-23.48 -7.36,-46.52 -5.61,-70.1 1.31,-24.23 12.25,-48.34 31.58,-63.39 6.71,-5.57 14.6,-9.37 22.37,-13.23 -0.8,-0.54 -2.42,-1.66 -3.22,-2.23 -23.4,-23.45 -36.73,-56.31 -37.66,-89.32 -0.99,-32.32 9.06,-64.14 24.64,-92.18 4.25,13.82 16.43,23.88 29.98,27.99 19.97,6.32 41.62,4 61.57,-1.21 29.78,-8.07 58.15,-25.26 75.19,-51.48 9.6,-14.77 15.07,-32.15 16.07,-49.72 -0.36,-1.13 -1.08,-3.39 -1.44,-4.53 2.79,-2.79 5.25,-6.14 8.9,-7.89zm91.88 448.77l0 0c-50.28,17.81 -95.98,47.79 -133.36,85.7 12.01,8.58 24.33,16.71 36.5,25.05 28.03,-29.13 62.41,-52.6 100.63,-66.11 31.94,-11.09 67.91,-15.01 100.2,-3.09 23.04,8.28 42.46,26.07 52.39,48.51 12.91,28.34 11.92,61.09 3.69,90.59 -9.3,33.54 -27.11,64.36 -49.67,90.71 -36.4,42.29 -85.71,75.36 -141.12,85.7 34.41,-96.9 70.26,-193.31 104.5,-290.24 -39.61,-3.64 -79.58,8.71 -113.27,29.06 -32.49,87.79 -63.54,176.17 -95.92,264.01 -10.37,-0.22 -20.73,-0.06 -31.09,-0.1 -6.62,16.81 -13.27,33.61 -19.83,50.45 46.63,0.38 93.27,0.05 139.91,0.16 120.49,3.14 237.93,-71.93 288.22,-181 14.74,-32.11 23.95,-67.48 21.74,-103.01 -1.72,-32.47 -13.95,-64.56 -35.63,-88.96 -22.87,-26.09 -55.24,-42.66 -88.98,-49.57 -46.25,-9.52 -94.69,-3.49 -138.91,12.14zm99.65 83.54l0 0c-27.31,75.12 -54.67,150.24 -81.71,225.46 39.97,-23.26 73.44,-58.07 94.07,-99.53 12.13,-25.3 20.26,-53.98 15.43,-82.15 -2.89,-17.55 -12.58,-34.19 -27.79,-43.78zm610.27 40.97l0 0c-4.05,11.16 -8.08,22.35 -12.09,33.53 8.76,-1.83 17.22,-4.87 25.83,-7.27 -31.25,86.25 -62.54,172.48 -93.85,258.7 33.64,0.19 67.3,-0.05 100.94,0.12 4.28,-11.39 8.42,-22.87 12.5,-34.34 -5.8,-0.02 -11.6,0 -17.38,-0.1 7.77,-20.45 14.31,-41.42 22.78,-61.57 12.39,32.15 25.79,63.92 38.48,95.94 29.57,-0.17 59.16,0.41 88.72,-0.29 3.64,-11.46 8.15,-22.63 12.01,-34 -7.77,-0.02 -15.52,0.02 -23.26,-0.02 -15.51,-35.03 -30.86,-70.11 -46.54,-105.05 30.81,-22.38 61.86,-44.43 92.7,-66.74 5.15,-4.17 12.25,-1.74 18.34,-2.15 4.49,-11.24 8.49,-22.66 12.73,-34 -14.96,-0.08 -29.89,0 -44.83,-0.05 -42.97,30.89 -85.91,61.86 -128.82,92.84 19.81,-56.99 41.34,-113.39 61.49,-170.26 -39.95,11.43 -79.82,23.18 -119.75,34.71zm-298.19 42.14l0 0c-19.97,6.99 -34.41,23.38 -48.15,38.67 4.08,-12.76 8.97,-25.25 13.57,-37.83 -28.07,-0.53 -56.15,-0.2 -84.21,-0.17l-0.96 0.64c-4.38,10.99 -8.56,22.07 -12.52,33.24 5.42,-0.08 10.87,-0.1 16.31,-0.1 -21.34,58.2 -42.32,116.58 -63.99,174.66 -5.54,-0.19 -11.08,-0.19 -16.6,0.05 -3.81,11.36 -8.37,22.44 -12.37,33.73 42.78,0 85.58,-0.02 128.37,0.02 4.28,-11.29 8.42,-22.63 12.69,-33.9 -9.2,-0.02 -18.37,0 -27.55,-0.02 12.2,-34.37 24.92,-68.58 37.28,-102.9 6.5,-17.93 23.79,-31.12 42.69,-33.16 13.43,-1.77 26.9,3.17 37.64,11.06 8.95,-24.31 17.89,-48.6 26.71,-72.94 -13.04,-11.56 -32.13,-17.02 -48.91,-11.05zm102.94 16.06l0 0c1.79,-5.16 3.6,-10.31 5.44,-15.46 -9.97,-0.05 -19.93,0.02 -29.9,-0.03 -9.37,25.87 -18.89,51.7 -28.1,77.64 10.43,-0.09 20.84,0.17 31.27,-0.15 6.45,-11.43 15.34,-22.2 27.52,-27.74 9.59,-4.21 21.18,-5.58 30.93,-1.08 5.28,2.29 8.34,7.9 8.69,13.5 0.76,12.28 -6,23.09 -9.86,34.32 -21.24,0.04 -42.45,0.04 -63.67,0 -23.01,-0.94 -45.45,8.29 -63.41,22.22 -19.6,15.06 -34.97,36.57 -39.96,61.01 -2.89,14.7 -1.27,31.02 7.56,43.51 8.99,13.43 25.16,20.63 41.02,21.22 25.83,1.11 51.22,-8.38 72.21,-22.99 -2.55,7 -5.4,13.89 -8.06,20.86 36.23,-0.02 72.48,0.05 108.72,-0.04 4.21,-11.44 8.53,-22.83 12.72,-34.27 -7.77,-0.02 -15.55,0.02 -23.32,-0.02 17.23,-48.06 34.72,-96.04 52.08,-144.06 5,-15.26 5.8,-33.86 -4.61,-47.12 -7.76,-10.62 -20.6,-16.07 -33.25,-18.11 -32.13,-5.42 -65.11,2.71 -94.02,16.79zm485.84 -9.02l0 0c-34.63,13.41 -64.09,38.78 -84.16,69.87 -13.7,21.52 -23.53,46.14 -25.09,71.8 -1.68,24.89 7.13,50.52 24.95,68.17 16.42,17.95 40.52,28.29 64.81,28.2 30.69,1 60.54,-10.82 85.24,-28.44 16.69,-12.19 32.44,-26.36 43.97,-43.65 -16.06,-0.04 -32.1,0.03 -48.12,-0.04 -14.24,15.94 -33.12,30.11 -55.29,30.95 -12.88,0.77 -27.44,-4.34 -33.17,-16.74 -6.83,-15.13 -3.07,-32.2 0.72,-47.62 51.12,-0.11 102.24,0.24 153.34,-0.18 12.09,-28.66 16.23,-62.85 2.09,-91.56 -12.76,-24.52 -36.35,-44.26 -64.03,-48.84 -21.96,-3.52 -44.61,0.32 -65.26,8.08z"/>
   <path class="fil2" d="M281.51 430.83c35.87,-34.77 78.12,-64.07 125.7,-80.18 -6.41,6.78 -13.84,12.52 -19.86,19.69 -32.78,35.82 -54.43,83.89 -51.65,133.05 9.05,-26.21 19.83,-52.47 37.01,-74.48 -2.11,17.91 -1.57,36.31 3.95,53.62 9.16,29.53 31.38,54.04 58.19,68.82 0.8,0.57 2.42,1.69 3.22,2.23 -7.77,3.86 -15.66,7.66 -22.37,13.23 -19.33,15.05 -30.27,39.16 -31.58,63.39 -1.75,23.58 5.15,46.62 5.61,70.1 0.7,20.97 0.88,44.06 -12.02,61.79 -12.95,17.79 -25.61,39.03 -22.06,61.96 1.13,5.3 1.83,13.32 8.85,13.38 -14.34,-1.21 -28.77,-0.72 -42.99,1.32 -16.26,2.42 -33.28,-1.69 -46.73,-11.06 -14.61,-9.86 -25.23,-24.89 -31,-41.44 -2.29,19.74 3.32,40.6 16.35,55.76 3.88,4.93 8.94,8.68 13.64,12.77 -4.73,4.18 -10.91,7.6 -13.35,13.72 1.31,31.55 15.43,60.47 25.96,89.68 -3.88,7.74 -5.54,16.32 -9.06,24.21 -6.53,15.98 -16.14,31.39 -30.52,41.41 -13.39,8.45 -30.41,12.72 -45.92,8.16 -14.6,-4.68 -23.84,-18.52 -28.3,-32.52 -23.07,-63.97 -38.43,-131.27 -39.97,-199.44 -0.4,-39.14 4.51,-78.89 19.5,-115.31 5.39,11.43 8.94,24.31 18.22,33.47 -5.44,-44.51 0.5,-89.94 14.19,-132.5 19.07,-58.53 53.57,-111.43 96.99,-154.83zm268.68 439.4c11.43,6.9 21.85,15.3 33.06,22.54 -8.82,24.58 -17.38,49.3 -26.76,73.65 -16.9,12.07 -32.9,25.44 -48.88,38.75 -19.53,16.38 -38.27,33.83 -55.16,52.97 -2.87,3.09 -5.23,6.72 -8.53,9.38 -12.47,5.25 -25.59,11.99 -39.54,9.28 -11.15,-1.94 -18.99,-11.65 -22.56,-21.82 -7.03,-19.83 -5.74,-41.22 -5.04,-61.89l0 -0.29c13.14,-3.36 24.96,-11.31 33.14,-22.11 7.26,-9.33 12.23,-20.16 17.26,-30.78 35.94,-0.62 72.34,-13.29 98.72,-38.16 9.57,-9.22 18.15,-19.68 24.29,-31.52zm-43.4 -105.99c30.35,-21.81 65.38,-36.68 101.38,-46.22 -45.4,29.99 -86.9,66.68 -119.08,110.75 15.51,10.41 30.91,20.98 46.31,31.53 -14.76,22.18 -36.29,40.78 -62.18,48.37 -5.97,1.31 -12.14,3.33 -18.28,2.06 1.35,-0.15 4.04,-0.44 5.4,-0.58 -7.58,-22.01 -12.08,-45.78 -7.27,-68.91 5.84,-31.99 28.01,-58.37 53.72,-77zm310.1 -186.52c1.01,-1.39 2.04,-2.76 3.15,-4.07l-1.2 3.11c19.27,-3.98 40.01,-0.27 56.66,10.24 1.8,1.39 5.1,2.28 4.62,5.22 -0.19,20.24 -12.42,38.61 -28.17,50.52 -15.08,12.29 -34.52,18.42 -53.85,18.69 -18.71,0.02 -37.62,-3.81 -54.43,-12.18 -19.83,25.08 -50.76,40.76 -82.7,42.1 -35.9,1.23 -72.01,-7.02 -107.73,-0.53 -24.71,4.56 -47.94,19.38 -60.96,41.03 -0.5,0.41 -1.49,1.24 -2.01,1.63 0.43,-8.1 3.64,-15.8 7.79,-22.68 9.21,-14.2 24.55,-23.22 40.48,-28.04 26.85,-8.12 55.34,-8.02 83.06,-6.21 19.87,2.09 40.23,1.75 59.53,-3.86 23.74,-6.44 44.62,-21.62 58.89,-41.55 25.63,10.24 56.47,10.31 80.35,-4.55 9,-5.92 17.36,-15.76 16.02,-27.24 -1.68,-10.36 -10.93,-16.96 -19.5,-21.63zm-94.2 -86.58c24.45,-29.98 60.59,-50.88 99.32,-54.6 17.49,-1.56 36.17,-0.34 51.91,8.08 -16.94,-0.44 -34.58,-0.03 -50.19,7.41 15.23,15.72 37.58,22.32 58.75,24.91 7.04,-1.48 13.19,-6 18.5,-10.75 6.26,9.19 12.52,19.36 12.55,30.85 -5.42,-3.19 -10.77,-6.55 -16.79,-8.5 1.7,10.79 3.53,22.18 -0.16,32.81 -17.22,-3.94 -35.23,-6.09 -52.76,-3.17 -3.14,-10.57 -9.57,-20.26 -18.89,-26.3 -8.23,-5.62 -17.98,-8.39 -27.7,-9.97 4.44,15.6 7.92,32.58 2.21,48.35 -16.96,6.82 -31.46,18.4 -45.05,30.38 -15.01,13.08 -27.34,28.92 -42.88,41.42 -19.81,16.42 -43.47,30.06 -69.6,32.15 -17.61,2.01 -35.78,-7.14 -44.94,-22.23 -11.61,-18.32 -8.28,-41.38 -2.44,-61.07 -13.15,6.67 -22.02,20.1 -24.35,34.53 -3.14,16.78 1.42,33.73 6.75,49.56 -21.58,-1.91 -42.57,-12.82 -54.19,-31.51 -4.15,-9.44 -7.35,-19.51 -6.82,-29.95 -0.23,-22.77 14.06,-43.65 32.97,-55.36 3.48,-2.32 7.6,-3.81 10.58,-6.78 3.04,-7.78 4.55,-16.22 9.18,-23.33 19.49,-32.85 60.47,-49.69 97.66,-43.09 0.32,1.36 0.94,4.03 1.25,5.37 -18.63,0.86 -38.03,6.57 -51.39,20.19 -9.85,10.14 -14.88,23.9 -16.57,37.72 9.91,-13.1 23.08,-24.2 38.97,-29.16 19.52,-6.72 40.81,-3.77 60,2.63 -5.73,10.94 -10.48,22.62 -11.23,35.11 -1.22,15.39 2.38,31.19 10.19,44.52 -0.79,-25.5 9.5,-50.44 25.16,-70.22zm-7.99 -220.44c5.69,-5.24 12.11,-10.74 20.14,-11.58 5.06,-0.29 9.59,3.08 12.01,7.34 4.61,7.77 5.81,16.95 6.75,25.78 -7.1,-1.46 -14.34,-2.12 -21.58,-2.42 -5.02,-6.45 -11.09,-11.9 -17.01,-17.48 -0.09,-0.41 -0.24,-1.23 -0.31,-1.64zm-147.9 6.31c7.94,-5.16 12.12,-15.8 22.11,-17.62 10.51,-1.51 20.48,3.61 29.47,8.46 7.13,4.3 14.7,8.27 20.62,14.24 -8.75,-2.08 -18.58,-3.4 -26.9,0.92 -3.65,1.75 -6.11,5.1 -8.9,7.89 -0.76,0.52 -2.28,1.55 -3.06,2.05 -13.2,26.34 -32.69,50.53 -58.8,64.91 -15.32,8.4 -32.85,12.33 -50.28,11.97 -9.62,-0.15 -20.03,0.79 -28.78,-4.01 -5.66,-3.19 -3.13,-10.69 0.31,-14.58 11.9,-15.01 27.73,-26.22 41.37,-39.49 7.05,-6.69 10.4,-17.02 19.37,-21.63 13.63,-7.11 30.88,-3.38 43.47,-13.11zm-365.04 417.8l0 0c3.98,22.32 16.47,42.12 31.8,58.41 -1.56,-6.46 -4.48,-12.5 -6.31,-18.88 -10.59,-34.29 -13.42,-70.47 -12.78,-106.19 -11.79,19.8 -16.95,43.87 -12.71,66.66z"/>
  </g>
 </g>
</svg>
