<?xml version="1.0" encoding="UTF-8"?>
<!DOCTYPE svg PUBLIC "-//W3C//DTD SVG 1.1//EN" "http://www.w3.org/Graphics/SVG/1.1/DTD/svg11.dtd">
<!-- Creator: CorelDRAW -->
<svg xmlns="http://www.w3.org/2000/svg" xml:space="preserve" width="2000px" height="1600px" version="1.1" style="shape-rendering:geometricPrecision; text-rendering:geometricPrecision; image-rendering:optimizeQuality; fill-rule:evenodd; clip-rule:evenodd"
viewBox="0 0 2000 1600"
 xmlns:xlink="http://www.w3.org/1999/xlink">
 <defs>
  <style type="text/css">
   <![CDATA[
    .fil2 {fill:#043974;fill-rule:nonzero}
    .fil3 {fill:#EB3934;fill-rule:nonzero}
    .fil0 {fill:#FBD55C;fill-rule:nonzero}
    .fil1 {fill:#FBFDFB;fill-rule:nonzero}
   ]]>
  </style>
 </defs>
 <g id="Capa_x0020_1">
  <metadata id="CorelCorpID_0Corel-Layer"/>
  <g id="Drexel_x0020_Dragons.cdr">
   <path class="fil0" d="M1116.29 284.94c23.55,43.74 52.67,84.87 89.04,118.89 27.28,24.97 58.46,46.89 93.93,58.36 23.11,6.21 47.02,8.89 70.72,11.77 -9.85,10.28 -19.9,20.43 -29.89,30.58 40.54,-4 82.99,-7.6 122.13,6.32 12.17,3.86 20.27,14.08 26.52,24.66 8.43,-17.52 25.72,-27.47 43.64,-33 -19.54,31.55 -27.41,68.87 -27.51,105.64 -18.67,-18.78 -39.67,-37.2 -65.59,-44.83 -36.93,-10.25 -75.38,3.63 -112.48,-4.14 -27.7,-7.47 -45.95,-31.6 -59.54,-55.34 -0.7,27.97 21.55,48.37 41.69,64.37 14.88,14.81 27.18,34.12 28.6,55.58 3.24,25.88 17.72,50.28 39.51,64.76 16.92,11.84 37.52,16.34 57.72,18.49 -11.8,30.64 -31.34,60.73 -62.55,74.22 0.5,-29.79 -2.05,-64.21 -25.49,-85.6 -23.11,-19.4 -54.55,-21.32 -82.36,-29.75 -38.19,-10.68 -64.07,-50.29 -63.31,-89.14 0.69,-24.83 13.06,-47.44 28.83,-65.96 -59.2,-14.31 -111.39,28.27 -147.16,70.49 14.48,-38.95 19.14,-83.08 4.89,-122.82 -4,-12.47 -11.41,-23.31 -17.26,-34.88l1.92 -2.62c35.08,6.58 71.55,19.18 96.24,46.26 -28.53,18.51 -57.29,41.32 -69.13,74.49 31.91,-32.17 76.94,-59.25 123.88,-47.85 -8.39,-18.08 -15.47,-39.47 -5.62,-58.52 -44.36,-29.09 -77.49,-74.15 -95.68,-123.48 -0.99,-1.19 -2.97,-3.54 -3.97,-4.73 -0.29,-7.41 -0.99,-14.81 -1.72,-22.22zm-538.84 1.82c20.17,-41.46 42.29,-82.06 68.01,-120.35 -52.64,87.98 -98.99,181.35 -121.01,282.12 -18.35,82.36 -17.95,170.51 12.27,250.09 32.69,7.53 65.56,14.25 98.52,20.46 -0.1,45.89 14.28,92.58 44.6,127.59 31.71,37.23 78.36,57.92 125.44,67.64 9.29,-28.1 26.45,-53 47.41,-73.69 49.23,-48.17 116.28,-72.54 182.74,-85.4 -3.24,15.47 -3.91,31.31 -3.31,47.08 -35.08,2.25 -70.09,-3.67 -105.14,-2.61 -14.61,3.57 -26.84,12.99 -39.64,20.46 13.42,0.9 27.74,0.43 39.84,7.21 14.08,7.64 23.67,21.06 32.63,33.92 13.56,20.27 26.35,40.96 39.74,61.3 4.4,-0.07 8.8,-0.13 13.2,-0.17 -3.71,-37.39 -7.74,-74.75 -11.35,-112.11 11.84,8.93 25.1,16.1 35.98,26.25 7.04,9.89 10.38,21.82 14.51,33.13 -9.29,-8.86 -16.17,-19.74 -21.36,-31.38 -4.73,0.57 -9.49,1.16 -14.18,1.76 0.53,27.93 -0.66,59.24 17.22,82.62 11.31,14.98 31.58,15.77 48.54,12.89 5.12,11.51 10.25,23.08 15.17,34.68 -23.04,57.14 -45.75,114.37 -68.5,171.6 -3.24,10.51 -13.36,15.93 -21.46,22.31 3.94,-37.99 9.46,-75.77 13.06,-113.8 -5.42,2.05 -12.76,1.59 -15.87,7.41 -16.56,23.41 -30.38,48.83 -48.7,71.02 -27.73,33.24 -48.38,31.17 -86.12,31.6 0.03,-52.5 -0.07,-104.97 0.03,-157.47 14.51,1.02 31.08,0.63 42.42,11.34 15.57,14.94 22.61,36.07 32.99,54.52 3.97,0 7.97,0.07 11.97,0.1 0.3,-51.84 0.13,-103.68 0.13,-155.53 -3.04,-0.06 -9.12,-0.23 -12.13,-0.29 -9.09,17.19 -14.85,36.6 -28,51.31 -11.97,13.13 -30.85,13.88 -47.35,14.61 -0.33,-48.5 0.33,-97 -0.36,-145.47 -27.31,22.81 -48.17,52.96 -59.05,86.89 -5.39,-1.19 -10.78,-2.38 -16.17,-3.54 -0.16,14.51 1.12,29.09 -0.63,43.54 -6.41,12.5 -17.22,22.15 -25.59,33.33 8.76,9.85 17.59,19.6 26.29,29.52 -0.13,44.21 0.03,88.41 -0.07,132.61 -5.49,7.31 -10.91,14.65 -16.33,22.02 -4.63,-4.39 -9.23,-8.76 -13.89,-13.09 -0.2,-41.66 0.03,-83.32 -0.06,-124.97 0.55,-39.65 -41.87,-46.07 -72.61,-51.28 22.29,-3.74 47.35,-7.34 63.55,-24.73 13.62,-16.47 8.03,-39.31 8.99,-58.89 -27.01,-7.4 -52.87,-18.64 -76.24,-34.08 -0.36,24.07 0.59,48.14 -0.36,72.17 -0.2,10.08 -4.14,21.03 -13.86,25.59 -17.06,8 -36.6,6.18 -54.95,6.65 0,-54.32 0,-108.68 -0.03,-163 6.31,1.16 12.6,2.31 18.91,3.47 -6.78,-14.31 -12.63,-29.03 -16.86,-44.27 -35.64,-7.5 -71.22,-15.21 -106.92,-22.25 8.49,16.66 21.92,31.11 27.37,49.1 1.09,46.35 -0.06,92.77 0.47,139.19 -0.17,8.36 0.69,16.93 -1.19,25.16 -6.82,11.31 -16.4,20.57 -24.6,30.81 8.59,9.69 17.26,19.38 25.79,29.17 -0.1,55.34 -0.14,110.65 0.03,166 1.88,21.95 -18.25,36.04 -28.3,53.36 43.74,-12.4 88.31,-21.92 133.27,-28.73 -10.58,-13.85 -31.44,-24.27 -28.1,-44.53 0.29,-55.91 0.13,-111.85 0.13,-167.79 15.7,0.22 60.75,-2.85 67.22,16.16 1.95,6.25 1.88,12.86 2.05,19.34 -0.14,56.51 -0.2,113.01 0,169.51 37.22,-7.83 75.28,-9.91 112.87,-15.17 114.46,-10.25 229.42,-7.9 344.14,-5.36 -8.92,-10.97 -20,-20.4 -27.04,-32.76 7.44,-43.68 18.48,-86.82 27.44,-130.23 9.92,39.94 19.44,79.97 29.29,119.95 0.3,4.13 3.21,9.06 0.37,12.89 -7.74,10.78 -17.36,20.1 -25.73,30.42 51.75,5.16 103.52,9.55 155.2,15.21 80.87,13.55 160.71,32.5 240.53,51.11 61.99,16.83 122.06,40.04 181.93,63.15 0.27,-141.44 0,-282.88 0.14,-424.32 -5.19,0.03 -10.32,0.07 -15.48,0.13 -13.58,116.91 -27.34,233.82 -40.96,350.76 -15.11,-4.4 -30.22,-8.8 -45.29,-13.19 0.09,-115.66 0.06,-231.27 0.03,-346.93 5.69,-0.69 11.41,-1.38 17.16,-2.08 -5.72,-2.81 -11.47,-5.59 -17.16,-8.36 0.06,-22.75 -0.07,-45.53 0.1,-68.28 12.07,15.67 21.82,34.69 40.33,43.81 21.82,11.9 47.84,10.15 71.29,4.63 -25.04,-23.1 -81.18,-71.9 -55.81,-112.28 10.64,-17.49 30.25,-26.05 48.76,-32.63 -14.05,-8.96 -28.86,-18.52 -45.99,-19.44 -36.23,-1.94 -62.94,27.39 -142.36,19.8 -17.99,-1.55 -34.52,-9.26 -51.28,-15.34 11.27,-3.07 22.41,-6.45 33.79,-9.16 29.32,5.26 60.8,7.64 88.9,-4.2 18.22,-7.4 32.3,-21.98 43.15,-37.98 60.24,-22.32 118.73,-48.94 175.59,-78.73 -12.33,39.45 -25.59,78.63 -38.22,118 -6.05,19.54 -15.37,38.75 -14.71,59.71 0.26,64.94 0.33,129.87 -0.03,194.81 0.36,6.54 -0.4,14.18 4.62,19.27 12.83,14.48 27.51,27.21 40.8,41.26 -15.64,16.4 -31.93,32.17 -47.84,48.34 0.07,75.12 0.2,150.27 -0.1,225.38 -1.19,17.99 11.18,32.24 19.08,47.22 34.88,62.39 70.72,124.24 104.84,187.06 -95.95,-70.92 -204.85,-123.72 -318.45,-159.62 -9.1,33.72 -18.72,67.31 -27.91,101 -78.29,-26.74 -158.93,-46.28 -240.29,-61 -161.35,-29.29 -326.92,-36.6 -489.89,-17.35 -121.86,14.15 -242.84,38.91 -359.08,78.42 -9.36,-33.66 -18.72,-67.35 -28.04,-101.01 -75.25,23.25 -148.15,53.7 -218.61,88.78 -40.27,20.26 -80.21,41.39 -117.73,66.42l0 -2.25c34.42,-61.4 69.07,-122.66 103.71,-183.96 7.05,-12.73 16.7,-25.36 16.17,-40.66 -0.06,-71.62 -0.3,-143.2 0.1,-214.81 -0.33,-6.55 0.17,-14.05 -4.89,-19.04 -13.39,-14.91 -28.53,-28.14 -42.35,-42.65 15.2,-15.05 30.28,-30.15 45.36,-45.3 0.26,-70.22 -0.07,-140.45 0.23,-210.64 0.46,-20.07 -8.27,-38.51 -14.12,-57.23 -12.93,-40.1 -26.28,-80.07 -39.14,-120.24 34.71,17.62 69.39,35.37 105.36,50.35 26.42,11.84 53.86,21.09 80.51,32.33 54.22,20.54 110.26,35.98 166.5,49.9 -7.34,-31.91 -14.84,-64.05 -15.51,-96.98 -4.26,-108.01 29.43,-213.68 75.52,-310.12zm114.92 -106.99c26.45,84.61 89.4,153.77 164.29,199.2 27.41,16.76 56.53,30.68 86.36,42.69 17.79,7.17 38.38,11.27 56.9,4.49 11.7,-4.33 21.55,-18.32 15.9,-30.71 -2.51,-6.98 -10.91,-5.06 -16.63,-6.02 -15.74,-0.43 -31.51,-1.49 -47.05,-4.17 16.9,-6.68 33.89,-13.12 51.12,-18.88 5.25,-2.31 10.48,0.86 15.37,2.58 15.67,6.81 31.64,12.9 47.41,19.38 -8.59,11.9 -18.25,23.08 -29.59,32.43 15.34,15.14 25.26,34.65 31.18,55.22 -69.53,-7.41 -143.89,-0.14 -204.39,37.55 -53.18,32.54 -73.89,86.91 -69.07,147.06 -24.66,4.9 -49.1,11.25 -74.16,13.99 10.32,1.19 20.67,2.18 31.05,2.48 119.72,4.3 239.47,9.03 359.19,13.46 22.15,24.03 44.93,47.47 66.95,71.67 -16.04,37.99 -34.59,76.44 -37,118.3 -0.79,1.67 -63.7,58.52 -90.49,36.47 -12.8,-10.85 -14.38,-28.7 -17.46,-44.11 36.48,28.78 68.37,11.82 80.28,-30.68 4,-15.24 7.54,-31.21 5.98,-47.01 -3.31,-21.89 -30.28,-32.57 -49.56,-25.16 -9.49,4.26 -15.37,13.35 -21.85,21.06 -1.16,-80.06 58.31,-52.21 75.05,-51.28 8.66,-0.46 7.87,-12.6 0.59,-14.62 -24.46,-8.56 -54.68,-10.08 -75.05,8.6 -80.21,-10.25 -163.99,-9.52 -241.05,17.49 -23.41,7.61 -44.61,20.04 -65.7,32.4 -15.7,1.69 -31.21,-5.29 -44.77,-12.73 -23.2,-13.95 -43.21,-33.36 -58.38,-55.74 -1.36,-28.33 8.63,-57.33 28.23,-78.03 19.31,-20.66 45.53,-33.13 72.14,-41.59 -13.68,-62.02 -0.64,-124.98 62.82,-151.03 31.77,-13.12 66.89,-14.81 100.84,-13.32 -77.63,-42.78 -147.19,-105.27 -186.37,-185.88 -10.35,-20.83 -17.16,-43.11 -23.08,-65.56zm-27.64 2.91c-2.48,19.11 -7.04,37.89 -9.39,57.07 -13.22,95.51 -5.52,195.49 32.44,284.83 8.26,19.63 18.31,38.48 30.02,56.27 -8.73,3.37 -17.19,7.37 -25.33,11.97 -68.5,-126.35 -64.65,-275.01 -27.74,-410.14zm303.68 169.01c13.49,-19.63 26.81,-39.37 40.24,-59.08 24.13,21.76 48.1,43.68 72.07,65.6 -2.41,5.39 -4.79,10.78 -7.24,16.13 -21.92,-9.35 -43.84,-18.78 -65.66,-28.37 -29.03,10.68 -58.06,21.36 -87.15,31.91 -15.54,-5.36 -30.82,-11.47 -45.53,-18.84 6.68,-17.36 13.42,-34.69 20.8,-51.78 24.17,14.78 48.27,29.69 72.47,44.43zm150.6 -34.94c0.82,0.3 2.51,0.86 3.34,1.12 5.75,41.63 20.59,84.91 52.17,114.1 -31.25,-12.43 -65.53,-16.96 -98.86,-11.94 30.16,-25.26 42.69,-65 43.35,-103.28zm89.76 66.98c19.24,-15.04 30.38,-38.05 34.38,-61.79 6.68,46.88 31.65,88.44 58.85,126.23 -34.38,-15.9 -67.04,-36.8 -93.23,-64.44zm-166.17 118.37c6.81,19.1 15.94,37.42 28.86,53.19 -0.76,5.03 -1.52,10.05 -2.34,15.08 -3.54,1.09 -7.08,2.18 -10.62,3.27 -12.63,-21.65 -14.71,-47.08 -15.9,-71.54zm-34.75 98.59c-17.29,-28.64 -27.77,-60.74 -34.35,-93.37 15.21,29.46 32.14,60.04 60.67,78.69 -9.09,4.29 -17.82,9.32 -26.32,14.68zm-101.37 -71.85c19.81,33.49 42.52,69.04 79.48,85.37 -9.62,5.95 -18.31,13.26 -25.59,21.95 -29.35,-28.53 -46.38,-67.54 -53.89,-107.32zm233.62 21.29c4.79,3.67 9.59,7.34 14.38,11.05 -9.09,-0.07 -18.15,-0.1 -27.21,-0.3 4.23,-3.64 8.53,-7.18 12.83,-10.75zm-292.17 25.23c23.01,34.85 51.84,71.88 95.25,80.47 -4.39,4.2 -8.3,8.96 -13.29,12.5 -9.16,0.33 -18.35,-0.66 -27.51,-0.86 -23.83,-26.58 -48.66,-55.64 -54.45,-92.11zm605 125.04c5.36,-1.32 10.75,-2.64 16.14,-3.93 5.52,20.79 14.08,42.28 32.8,54.65 -27.38,3.9 -54.56,9.22 -81.83,13.79 14.58,-19.41 26.48,-41 32.89,-64.51zm-271.04 43.97c55.61,-5.52 110.99,-13.09 166.04,-22.64 7.14,17.02 9.02,35.5 9.42,53.79 -33.13,5.45 -65.99,13.02 -99.55,15.37 -26.35,2.25 -52.63,4.73 -78.98,6.81 5.25,-13.02 11.01,-25.85 16.86,-38.65 -4.63,-4.86 -9.23,-9.75 -13.79,-14.68zm334.56 10.15c4.63,0.7 9.22,1.43 13.88,2.12 6.78,7.54 13.46,15.18 19.54,23.31 -10.38,-1.09 -20.83,-1.46 -31.24,-0.56 -0.66,-8.3 -1.42,-16.6 -2.18,-24.87zm-598.56 5.23c6.28,1.49 2.91,15.6 -3.64,12.26 -2.77,-3.86 -0.59,-10.48 3.64,-12.26zm-51.78 42.75c-1.88,-14.19 1.19,-28.17 5.59,-41.56 1.19,10.45 2.91,20.86 5.56,31.11 -3.74,3.47 -7.44,6.94 -11.15,10.45zm-43.6 42.78c-8.7,-21.29 -11.58,-44.97 -5.2,-67.32 2.45,17.53 6.85,34.82 14.65,50.79 -3.17,5.49 -6.31,11.01 -9.45,16.53zm236.13 -43.18c6.48,-9.59 15.87,-22.78 29.39,-18.38 9.35,1.12 13.95,9.78 17.29,17.55 -15.57,0.53 -31.15,0.1 -46.68,0.83zm185.97 43.74c6.51,-21.82 29.13,-31.61 44.01,-46.91 6.87,8.89 13.78,17.78 20.59,26.78 -0.13,41.65 -0.16,83.31 0.04,124.97 2.91,19.54 -16.93,30.35 -26.16,44.97 8.73,9.62 17.43,19.27 26.06,28.99 0,46.88 -0.14,93.8 0.06,140.68 -5.19,5.92 -10.45,11.77 -15.7,17.62 -10.02,-11.24 -24.07,-19.93 -29,-34.81 -22.64,-59.38 -45.39,-118.73 -68.3,-177.98 16.23,-41.42 32.5,-82.78 48.4,-124.31zm139.85 -44.27c18.19,-0.99 36.34,-2.84 54.55,-3.7 14.78,-0.6 30.36,5.02 39.02,17.52 13.03,18.45 24.4,37.96 36.96,56.7 3.21,0 9.66,-0.06 12.86,-0.1 -1.49,-19.7 -4.23,-39.27 -5.22,-59.01 11.11,16.17 13.16,36.73 25.29,52.37 0.27,115.25 -0.06,230.54 0.17,345.79 -8.96,10.19 -18.06,20.21 -27.41,30.03 4.86,-58.69 10.28,-117.31 15.21,-175.96 -5.26,1.49 -13.16,-0.37 -15.21,6.25 -17.62,31.34 -33.59,64.47 -59.45,90.06 -8.82,7.9 -19.24,17.03 -32.03,15.21 -14.82,-1.42 -29.66,-2.94 -44.57,-2.52 -0.04,-56.99 -0.07,-113.99 0.03,-170.99 14.71,1.22 31.67,0.19 43.01,11.54 15.18,14.84 22.06,35.64 32.41,53.75 3.96,0.17 7.93,0.34 11.93,0.53 0.37,-52 0.13,-104.01 0.13,-155.98 -4.1,0.16 -8.16,0.36 -12.2,0.56 -8.49,17.06 -14.54,35.84 -27.07,50.55 -12.07,13.52 -31.35,14.85 -48.24,14.52 -0.17,-59.05 0.03,-118.1 -0.17,-177.12zm-592.44 86.89c-18.31,-23.44 -27.04,-53.69 -23.44,-83.29 3.74,20.6 12.33,40.04 25.06,56.71 6.91,7.67 -0.73,17.88 -1.62,26.58zm380.88 -76.18c5.02,7.01 10.02,14.09 15.04,21.16 -13.85,39.98 -27.27,80.08 -41.29,120.02 -4.86,-15.11 -10.15,-30.09 -15.21,-45.13 8.26,-6.81 16.43,-13.72 24.4,-20.86 -1.75,-26.25 8.82,-50.89 17.06,-75.19z"/>
   <path class="fil1" d="M1382.55 576.98c27.53,-4.99 58.12,-2.71 81.59,13.85 11.71,8.27 23.08,18.42 28.96,31.78 -6.31,14.25 -21.45,20.53 -35.27,25.06 6.05,-8.37 14.28,-16.67 14.35,-27.71 0.43,-7.77 -4.3,-14.28 -8.01,-20.66 -4.46,7.44 -10.01,14.18 -17.52,18.68 1.92,-12.2 -0.33,-24.63 -10.51,-32.57 -7.04,3.54 -14.12,7.08 -21.16,10.61 -3.61,-6.31 -7.24,-12.63 -10.88,-18.94 -4.66,3.84 -9.32,7.7 -13.95,11.57 -2.55,-3.87 -5.09,-7.77 -7.6,-11.67zm-29.33 43.05c4,-0.53 8.03,-0.47 12.1,-0.5 -2.51,5.59 -6.08,10.98 -6.71,17.23 0.76,5.78 4.86,10.28 7.7,15.17 5.75,-4.73 11.97,-8.89 18.65,-12.3 -5.36,11.91 -5.69,24.97 -0.37,36.97 -16.29,-14.55 -30.97,-33.86 -31.37,-56.57z"/>
   <path class="fil2" d="M535.96 1288.91c22.21,-4.37 43.74,-13.16 66.52,-13.99 7.01,0.27 4.59,8 5.22,12.63 -0.3,18.68 0.26,37.36 -0.26,56.04 0.16,9.33 -11.41,11.34 -18.29,13.89 -24.73,6.48 -49.49,13.09 -74.55,18.25 1.75,-6.48 8.07,-8.56 12.92,-12.04 1.43,-21.45 0.1,-42.98 0.53,-64.43 -3.27,0.49 -9.85,1.55 -13.12,2.08 1.52,-10.45 13.22,-9.85 21.03,-12.43zm883.48 -8.6c26.68,-0.36 51.65,11.04 77.4,16.7 0.07,7.37 0.07,14.74 0.13,22.15 -8.56,-2.25 -17.12,-4.53 -25.72,-6.81 -0.07,-4.89 -0.13,-9.82 -0.16,-14.71 -8.2,-2.19 -16.37,-4.4 -24.54,-6.58 0,9.19 0.04,18.38 0.07,27.57 14.12,3.87 28.6,6.61 42.15,12.2 4,1.95 9.82,3.93 9.46,9.49 0.96,11.54 0.3,23.14 0,34.71 -26.71,0.57 -51.61,-11.07 -77.37,-16.49 -0.1,-9.2 -0.13,-18.42 0,-27.58 8.6,2.18 17.2,4.47 25.76,6.88 -0.03,6.61 -0.1,13.26 -0.13,19.9 8.2,2.25 16.43,4.47 24.66,6.68 -0.03,-10.61 -0.03,-21.19 -0.06,-31.77 -17,-5.92 -37.23,-6.51 -51.25,-18.65 -1.52,-11.17 -0.66,-22.48 -0.4,-33.69zm-158.07 -31.64c25.2,4.4 50.49,8.43 75.58,13.56 6.22,1.71 15.71,4.16 15.24,12.33 1.13,20.89 -0.99,41.86 0.67,62.72 4.79,3.11 10.94,4.82 12.89,11.01 -13.69,-1.62 -27.21,-4.4 -40.77,-6.75 -0.16,-24.69 -0.19,-49.43 -0.03,-74.12 -8.5,-1.59 -16.99,-3.14 -25.46,-4.7 -0.03,24.77 0.04,49.53 -0.23,74.29 -13.49,-2.41 -27.04,-4.49 -40.4,-7.67 2.35,-6.35 8.46,-5.65 13.98,-5.59 -0.19,-21.85 -0.03,-43.7 -0.09,-65.52 -3.91,-0.8 -7.77,-1.56 -11.64,-2.29 0.06,-1.81 0.2,-5.45 0.26,-7.27zm-283.84 -9.82c4.6,-4.96 12.1,-4.36 18.29,-4.96 19.64,0.3 39.28,1.59 58.91,1.95 0,7.38 0,14.81 0,22.22 -8.29,-0.43 -16.63,-0.76 -24.96,-0.96 0,-4.86 0.04,-9.65 0.04,-14.48 -8.47,-0.33 -16.97,-0.86 -25.43,-1.32 -0.1,22.32 0.13,44.63 -0.1,66.95 8.5,0.5 17,0.96 25.49,1.29 0,-10.81 -0.06,-21.62 -0.1,-32.4 -4.36,-0.04 -8.69,-0.04 -13.06,-0.04l0 -7.6c13.26,0.56 26.55,0.66 39.81,1.36 0.1,15.63 -0.07,31.24 -0.1,46.88 -21.65,-1.16 -43.41,-1.03 -65,-2.98 -6.02,-0.76 -15.41,-2.11 -14.25,-10.38 -0.13,-21.82 -1.12,-43.77 0.46,-65.53zm497.23 -705.61c3.43,6.45 7.1,12.79 11,18.98 6.45,-5.1 12.87,-10.22 19.25,-15.44 -9.13,14.71 -12.04,31.84 -12.1,48.9 -10.85,-15.44 -16.83,-33.66 -18.15,-52.44zm-228.5 -77.47c14.65,7.74 29.3,15.94 45.43,20.14 15.21,4.59 31.14,4.73 46.78,6.55 -9.75,2.51 -19.64,4.39 -29.59,5.98 6.32,5.36 12.67,10.71 18.72,16.4 -29.4,-11.8 -58.82,-26.29 -81.34,-49.07zm-560.07 -358.19l1.06 0c16.79,60.31 43.47,118.26 81.17,168.42 25.29,33.98 56.7,63.51 92.97,85.56 8.96,-22.31 18.12,-44.57 26.94,-66.92 25.29,15.31 50.36,30.95 75.65,46.26 14.25,-20.43 27.77,-41.3 42.09,-61.66 26.61,24.36 53.29,48.7 80.04,72.9 11.94,-45.16 11.97,-92.54 5.79,-138.6 28.5,59.75 61.26,118.4 105.73,167.86 9.49,-8.3 17.82,-18.08 23.17,-29.59 14.19,-29.33 21,-61.5 26.95,-93.34 0.66,70.92 28.83,138.96 69.6,196.03 2.51,3.14 5.02,6.98 9.29,7.8 26.31,5.82 53.39,7.44 80.3,7.41 -8.59,8.76 -17.32,17.39 -25.88,26.15 36.56,-0.23 76.54,0.13 107.35,22.62 10.05,-7.05 20.27,-14.25 32.1,-17.96 16.53,-5.68 34.22,-5.35 51.45,-6.35 -24.24,18.06 -39.78,45.4 -46.16,74.63 -7.73,30.58 -6.11,62.32 -3.27,93.43 -7.44,-8.89 -14.81,-17.79 -22.15,-26.75 -5.59,7.47 -11.14,15.41 -19.44,20.07 -13.56,8.3 -29.89,9.09 -45.27,10.58 14.19,-10.94 29.99,-23.27 31.12,-42.78 -9.13,6.31 -19.58,10.48 -30.88,8.86 3.37,-9.39 5.72,-19.28 1.19,-28.76 -8.47,3.6 -16.73,7.6 -25.1,11.5 -3.24,-5.82 -6.51,-11.6 -9.78,-17.36 -4.63,3.77 -9.26,7.57 -13.89,11.34 -4.83,-7.63 -9.69,-15.27 -14.55,-22.88 -12.53,0.63 -25.09,1.06 -37.65,0.47 6.67,10.91 12.29,22.45 15.73,34.78 8.8,1.78 17.36,4.4 25.73,7.64 -5.72,6.31 -10.75,13.25 -13.56,21.39 10.78,-3.47 22.05,-5.62 33.29,-3.04 -6.15,9.12 -14.84,20.53 -7.5,31.64 10.91,25.35 42.75,22.25 65.49,23.17 -0.59,2.09 -1.78,6.22 -2.38,8.3 -6.41,23.51 -18.31,45.1 -32.89,64.51 27.27,-4.57 54.45,-9.89 81.83,-13.79 -18.72,-12.37 -27.28,-33.86 -32.8,-54.65 -1.46,-4.96 -2.84,-9.95 -4.2,-14.91 8.43,3.24 16.83,6.61 25.26,9.88 16.76,6.08 33.29,13.79 51.28,15.34 27.18,2.85 54.95,1.09 81.4,-6.01 20.13,-5.13 39.67,-14.92 60.96,-13.79 17.13,0.92 31.94,10.48 45.99,19.44 -18.51,6.58 -38.12,15.14 -48.76,32.63 -8.47,13.06 -7.71,30.05 -1.49,43.91 12.07,27.84 35.47,48.24 57.3,68.37 -23.45,5.52 -49.47,7.27 -71.29,-4.63 -18.51,-9.12 -28.26,-28.14 -40.33,-43.81 -0.17,22.75 -0.04,45.53 -0.1,68.28 5.69,2.77 11.44,5.55 17.16,8.36 -5.75,0.7 -11.47,1.39 -17.16,2.08 0.03,115.66 0.06,231.27 -0.03,346.93 15.07,4.39 30.18,8.79 45.29,13.19 13.62,-116.94 27.38,-233.85 40.96,-350.76 5.16,-0.06 10.29,-0.1 15.48,-0.13 -0.14,141.44 0.13,282.88 -0.14,424.32 -59.87,-23.11 -119.94,-46.32 -181.93,-63.15 -79.82,-18.61 -159.66,-37.56 -240.53,-51.11 -51.68,-5.66 -103.45,-10.05 -155.2,-15.21 8.37,-10.32 17.99,-19.64 25.73,-30.42 2.84,-3.83 -0.07,-8.76 -0.37,-12.89 -9.85,-39.98 -19.37,-80.01 -29.29,-119.95 -8.96,43.41 -20,86.55 -27.44,130.23 7.04,12.36 18.12,21.79 27.04,32.76 -114.72,-2.54 -229.68,-4.89 -344.14,5.36 -37.59,5.26 -75.65,7.34 -112.87,15.17 -0.2,-56.5 -0.14,-113 0,-169.51 -0.17,-6.48 -0.1,-13.09 -2.05,-19.34 -2.68,-7.27 -10.35,-10.87 -17.33,-12.76 -16.27,-4.3 -33.26,-3.17 -49.89,-3.4 0,55.94 0.16,111.88 -0.13,167.79 -3.34,20.26 17.52,30.68 28.1,44.53 -44.96,6.81 -89.53,16.33 -133.27,28.73 10.05,-17.32 30.18,-31.41 28.3,-53.36 -0.17,-55.35 -0.13,-110.66 -0.03,-166 -8.53,-9.79 -17.2,-19.48 -25.79,-29.17 8.2,-10.24 17.78,-19.5 24.6,-30.81 1.88,-8.23 1.02,-16.8 1.19,-25.16 -0.53,-46.42 0.62,-92.84 -0.47,-139.19 -5.45,-17.99 -18.88,-32.44 -27.37,-49.1 35.7,7.04 71.28,14.75 106.92,22.25 4.23,15.24 10.08,29.96 16.86,44.27 -6.31,-1.16 -12.6,-2.31 -18.91,-3.47 0.03,54.32 0.03,108.68 0.03,163 18.35,-0.47 37.89,1.35 54.95,-6.65 9.72,-4.56 13.66,-15.51 13.86,-25.59 0.95,-24.03 0,-48.1 0.36,-72.17 23.37,15.44 49.23,26.68 76.24,34.08 -0.96,19.58 4.63,42.42 -8.99,58.89 -16.2,17.39 -41.26,20.99 -63.55,24.73 20.27,3.44 41.89,6.68 58.62,19.54 9.85,7.37 14.35,19.7 13.99,31.74 0.09,41.65 -0.14,83.31 0.06,124.97 4.66,4.33 9.26,8.7 13.89,13.09 5.42,-7.37 10.84,-14.71 16.33,-22.02 0.1,-44.2 -0.06,-88.4 0.07,-132.61 -8.7,-9.92 -17.53,-19.67 -26.29,-29.52 8.37,-11.18 19.18,-20.83 25.59,-33.33 1.75,-14.45 0.47,-29.03 0.63,-43.54 5.39,1.16 10.78,2.35 16.17,3.54 10.88,-33.93 31.74,-64.08 59.05,-86.89 0.69,48.47 0.03,96.97 0.36,145.47 16.5,-0.73 35.38,-1.48 47.35,-14.61 13.15,-14.71 18.91,-34.12 28,-51.31 3.01,0.06 9.09,0.23 12.13,0.29 0,51.85 0.17,103.69 -0.13,155.53 -4,-0.03 -8,-0.1 -11.97,-0.1 -10.38,-18.45 -17.42,-39.58 -32.99,-54.52 -11.34,-10.71 -27.91,-10.32 -42.42,-11.34 -0.1,52.5 0,104.97 -0.03,157.47 14.21,-0.16 28.63,0.33 42.68,-2.38 17.69,-3.53 32.1,-15.77 43.44,-29.22 18.32,-22.19 32.14,-47.61 48.7,-71.02 3.11,-5.82 10.45,-5.36 15.87,-7.41 -3.6,38.03 -9.12,75.81 -13.06,113.8 8.1,-6.38 18.22,-11.8 21.46,-22.31 22.75,-57.23 45.46,-114.46 68.5,-171.6 -4.92,-11.6 -10.05,-23.17 -15.17,-34.68 -16.96,2.88 -37.23,2.09 -48.54,-12.89 -17.88,-23.38 -16.69,-54.69 -17.22,-82.62 4.69,-0.6 9.45,-1.19 14.18,-1.76 5.19,11.64 12.07,22.52 21.36,31.38 -4.13,-11.31 -7.47,-23.24 -14.51,-33.13 -10.88,-10.15 -24.14,-17.32 -35.98,-26.25 3.61,37.36 7.64,74.72 11.35,112.11 -4.4,0.04 -8.8,0.1 -13.2,0.17 -13.39,-20.34 -26.18,-41.03 -39.74,-61.3 -8.96,-12.86 -18.55,-26.28 -32.63,-33.92 -12.1,-6.78 -26.42,-6.31 -39.84,-7.21 12.8,-7.47 25.03,-16.89 39.64,-20.46 35.05,-1.06 70.06,4.86 105.14,2.61 -0.6,-15.77 0.07,-31.61 3.31,-47.08 -66.46,12.86 -133.51,37.23 -182.74,85.4 -20.96,20.69 -38.12,45.59 -47.41,73.69 -47.08,-9.72 -93.73,-30.41 -125.44,-67.64 -30.32,-35.01 -44.7,-81.7 -44.6,-127.59 -32.96,-6.21 -65.83,-12.93 -98.52,-20.46 -30.22,-79.58 -30.62,-167.73 -12.27,-250.09 22.02,-100.77 68.37,-194.14 121.01,-282.12 -25.72,38.29 -47.84,78.89 -68.01,120.35 -46.09,96.44 -79.78,202.11 -75.52,310.12 0.67,32.93 8.17,65.07 15.51,96.98 -56.24,-13.92 -112.28,-29.36 -166.5,-49.9 0.23,-12.13 0.76,-24.23 2.58,-36.23 11.01,-77.7 40.63,-151.82 80.21,-219.24 65.73,-111.25 155.36,-206.5 252.46,-290.91zm6.18 82.19c5.92,22.45 12.73,44.73 23.08,65.56 39.18,80.61 108.74,143.1 186.37,185.88 -33.95,-1.49 -69.07,0.2 -100.84,13.32 -22.94,9.36 -43.28,26.12 -54.45,48.47 -16.37,31.44 -15.84,68.71 -8.37,102.56 -26.61,8.46 -52.83,20.93 -72.14,41.59 -19.6,20.7 -29.59,49.7 -28.23,78.03 15.17,22.38 35.18,41.79 58.38,55.74 13.56,7.44 29.07,14.42 44.77,12.73 21.09,-12.36 42.29,-24.79 65.7,-32.4 77.06,-27.01 160.84,-27.74 241.05,-17.49 20.37,-18.68 50.59,-17.16 75.05,-8.6 7.28,2.02 8.07,14.16 -0.59,14.62 -18.39,-3.04 -38.72,-10.71 -56.21,-0.27 -16.93,10.91 -19.11,33.23 -18.84,51.55 6.48,-7.71 12.36,-16.8 21.85,-21.06 19.28,-7.41 46.25,3.27 49.56,25.16 1.56,15.8 -1.98,31.77 -5.98,47.01 -5.43,18.19 -15.64,38.22 -35.45,43.55 -16.26,4.89 -32.3,-2.98 -44.83,-12.87 3.08,15.41 4.66,33.26 17.46,44.11 10.05,8.03 23.87,5.06 34.91,0.86 20.83,-8.5 39.08,-22.22 55.58,-37.33 2.41,-41.86 20.96,-80.31 37,-118.3 -22.02,-24.2 -44.8,-47.64 -66.95,-71.67 -119.72,-4.43 -239.47,-9.16 -359.19,-13.46 -10.38,-0.3 -20.73,-1.29 -31.05,-2.48 25.06,-2.74 49.5,-9.09 74.16,-13.99 -1.95,-24.36 0.37,-49.29 8.3,-72.47 10.35,-31.24 32.7,-57.72 60.77,-74.59 60.5,-37.69 134.86,-44.96 204.39,-37.55 -5.92,-20.57 -15.84,-40.08 -31.18,-55.22 11.34,-9.35 21,-20.53 29.59,-32.43 -15.77,-6.48 -31.74,-12.57 -47.41,-19.38 -4.89,-1.72 -10.12,-4.89 -15.37,-2.58 -17.23,5.76 -34.22,12.2 -51.12,18.88 15.54,2.68 31.31,3.74 47.05,4.17 5.72,0.96 14.12,-0.96 16.63,6.02 5.65,12.39 -4.2,26.38 -15.9,30.71 -18.52,6.78 -39.11,2.68 -56.9,-4.49 -29.83,-12.01 -58.95,-25.93 -86.36,-42.69 -74.89,-45.43 -137.84,-114.59 -164.29,-199.2zm-27.64 2.91c-13.92,50.95 -23.37,103.29 -25.59,156.15 -4.23,87.25 11.44,176.72 53.33,253.99 8.14,-4.6 16.6,-8.6 25.33,-11.97 -11.71,-17.79 -21.76,-36.64 -30.02,-56.27 -37.96,-89.34 -45.66,-189.32 -32.44,-284.83 2.35,-19.18 6.91,-37.96 9.39,-57.07zm451.56 102.26c0.73,7.41 1.43,14.81 1.72,22.22 1,1.19 2.98,3.54 3.97,4.73 18.19,49.33 51.32,94.39 95.68,123.48 -9.85,19.05 -2.77,40.44 5.62,58.52 -46.94,-11.4 -91.97,15.68 -123.88,47.85 11.84,-33.17 40.6,-55.98 69.13,-74.49 -24.69,-27.08 -61.16,-39.68 -96.24,-46.26l-1.92 2.62c5.85,11.57 13.26,22.41 17.26,34.88 14.25,39.74 9.59,83.87 -4.89,122.82 19.8,-23.37 42.71,-44.76 69.96,-59.21 23.4,-12.83 51.08,-17.59 77.2,-11.28 -15.77,18.52 -28.14,41.13 -28.83,65.96 -0.76,38.85 25.12,78.46 63.31,89.14 27.81,8.43 59.25,10.35 82.36,29.75 23.44,21.39 25.99,55.81 25.49,85.6 31.21,-13.49 50.75,-43.58 62.55,-74.22 -20.2,-2.15 -40.8,-6.65 -57.72,-18.49 -21.79,-14.48 -36.27,-38.88 -39.51,-64.76 -1.42,-21.46 -13.72,-40.77 -28.6,-55.58 -20.14,-16 -42.39,-36.4 -41.69,-64.37 13.59,23.74 31.84,47.87 59.54,55.34 37.1,7.77 75.55,-6.11 112.48,4.14 25.92,7.63 46.92,26.05 65.59,44.83 0.1,-36.77 7.97,-74.09 27.51,-105.64 -17.92,5.53 -35.21,15.48 -43.64,33 -6.25,-10.58 -14.35,-20.8 -26.52,-24.66 -39.14,-13.92 -81.59,-10.32 -122.13,-6.32 9.99,-10.15 20.04,-20.3 29.89,-30.58 -23.7,-2.88 -47.61,-5.56 -70.72,-11.77 -35.47,-11.47 -66.65,-33.39 -93.93,-58.36 -36.37,-34.02 -65.49,-75.15 -89.04,-118.89zm-147.88 66.75c-24.2,-14.74 -48.3,-29.65 -72.47,-44.43 -7.38,17.09 -14.12,34.42 -20.8,51.78 14.71,7.37 29.99,13.48 45.53,18.84 29.09,-10.55 58.12,-21.23 87.15,-31.91 21.82,9.59 43.74,19.02 65.66,28.37 2.45,-5.35 4.83,-10.74 7.24,-16.13 -23.97,-21.92 -47.94,-43.84 -72.07,-65.6 -13.43,19.71 -26.75,39.45 -40.24,59.08zm150.6 -34.94c-0.66,38.28 -13.19,78.02 -43.35,103.28 33.33,-5.02 67.61,-0.49 98.86,11.94 -31.58,-29.19 -46.42,-72.47 -52.17,-114.1 -0.83,-0.26 -2.52,-0.82 -3.34,-1.12zm89.76 66.98c26.19,27.64 58.85,48.54 93.23,64.44 -27.2,-37.79 -52.17,-79.35 -58.85,-126.23 -4,23.74 -15.14,46.75 -34.38,61.79zm-166.17 118.37c1.19,24.46 3.27,49.89 15.9,71.54 3.54,-1.09 7.08,-2.18 10.62,-3.27 0.82,-5.03 1.58,-10.05 2.34,-15.08 -12.92,-15.77 -22.05,-34.09 -28.86,-53.19zm-34.75 98.59c8.5,-5.36 17.23,-10.39 26.32,-14.68 -28.53,-18.65 -45.46,-49.23 -60.67,-78.69 6.58,32.63 17.06,64.73 34.35,93.37zm-101.37 -71.85c7.51,39.78 24.54,78.79 53.89,107.32 7.28,-8.69 15.97,-16 25.59,-21.95 -36.96,-16.33 -59.67,-51.88 -79.48,-85.37zm233.62 21.29c-4.3,3.57 -8.6,7.11 -12.83,10.75 9.06,0.2 18.12,0.23 27.21,0.3 -4.79,-3.71 -9.59,-7.38 -14.38,-11.05zm242.45 26.85c2.51,3.9 5.05,7.8 7.6,11.67 4.63,-3.87 9.29,-7.73 13.95,-11.57 3.64,6.31 7.27,12.63 10.88,18.94 7.04,-3.53 14.12,-7.07 21.16,-10.61 10.18,7.94 12.43,20.37 10.51,32.57 7.51,-4.5 13.06,-11.24 17.52,-18.68 3.71,6.38 8.44,12.89 8.01,20.66 -0.07,11.04 -8.3,19.34 -14.35,27.71 13.82,-4.53 28.96,-10.81 35.27,-25.06 -5.88,-13.36 -17.25,-23.51 -28.96,-31.78 -23.47,-16.56 -54.06,-18.84 -81.59,-13.85zm-534.62 -1.62c5.79,36.47 30.62,65.53 54.45,92.11 9.16,0.2 18.35,1.19 27.51,0.86 4.99,-3.54 8.9,-8.3 13.29,-12.5 -43.41,-8.59 -72.24,-45.62 -95.25,-80.47zm256.89 11.27c-4.1,0.9 -8.66,1.53 -11.47,4.96 -18.38,18.78 -33.29,40.57 -47.05,62.82 6.05,-18.58 12.53,-37.06 17.29,-56.04 -40.66,15.28 -76.34,41.26 -107.71,70.92 53.86,2.64 107.75,4.3 161.61,6.35 21.32,23.04 42.91,45.85 64.4,68.73 4.56,4.93 9.16,9.82 13.79,14.68 -5.85,12.8 -11.61,25.63 -16.86,38.65 26.35,-2.08 52.63,-4.56 78.98,-6.81 33.56,-2.35 66.42,-9.92 99.55,-15.37 -0.4,-18.29 -2.28,-36.77 -9.42,-53.79 -5.33,-7.91 -11.18,-15.97 -19.87,-20.44 -31.21,-17.09 -70.33,-13.92 -99.32,-35.94 -17.26,-11.83 -26.22,-31.14 -38.75,-47.11 -7.57,-10.02 -12.23,-21.79 -16.63,-33.46 -22.75,-3.24 -45.99,-2.41 -68.54,1.85zm248.4 33.4c0.4,22.71 15.08,42.02 31.37,56.57 -5.32,-12 -4.99,-25.06 0.37,-36.97 -6.68,3.41 -12.9,7.57 -18.65,12.3 -2.84,-4.89 -6.94,-9.39 -7.7,-15.17 0.63,-6.25 4.2,-11.64 6.71,-17.23 -4.07,0.03 -8.1,-0.03 -12.1,0.5zm297 88.21c-38.46,13.75 -80.18,18.38 -120.61,12.36 -14.29,-2.78 -27.71,-8.59 -41.43,-13.22 5.45,12.36 11.87,27.7 26.61,30.94 20.8,4.66 42.55,4.43 62.85,11.54 26.59,7.21 47.32,27.05 63.35,48.57 8.7,11.11 15.54,24.23 27.57,32.24 10.19,7.04 22.75,8.69 34.62,10.97 -21.72,-23.67 -46.05,-51.54 -43.31,-85.96 0.89,-22.41 18.08,-38.85 34.65,-51.71 -14.91,-2.71 -30.19,-1.12 -44.3,4.27zm-133.77 46.28c0.76,8.27 1.52,16.57 2.18,24.87 10.41,-0.9 20.86,-0.53 31.24,0.56 -6.08,-8.13 -12.76,-15.77 -19.54,-23.31 -4.66,-0.69 -9.25,-1.42 -13.88,-2.12zm-598.56 5.23c-4.23,1.78 -6.41,8.4 -3.64,12.26 6.55,3.34 9.92,-10.77 3.64,-12.26zm-51.78 42.75c3.71,-3.51 7.41,-6.98 11.15,-10.45 -2.65,-10.25 -4.37,-20.66 -5.56,-31.11 -4.4,13.39 -7.47,27.37 -5.59,41.56zm-43.6 42.78c3.14,-5.52 6.28,-11.04 9.45,-16.53 -7.8,-15.97 -12.2,-33.26 -14.65,-50.79 -6.38,22.35 -3.5,46.03 5.2,67.32zm236.13 -43.18c15.53,-0.73 31.11,-0.3 46.68,-0.83 -3.34,-7.77 -7.94,-16.43 -17.29,-17.55 -13.52,-4.4 -22.91,8.79 -29.39,18.38zm463.76 -7.94c20.6,11.01 23.37,35.22 32.96,54.06 6.18,12.43 20.6,15.9 32.5,20.27 -6.98,-8.99 -14.45,-18.05 -17.69,-29.13 -4.89,-13.92 -6.71,-30.81 -20.07,-39.64 -7.7,-6.74 -18.18,-6.38 -27.7,-5.56zm-277.79 51.68c-15.9,41.53 -32.17,82.89 -48.4,124.31 22.91,59.25 45.66,118.6 68.3,177.98 4.93,14.88 18.98,23.57 29,34.81 5.25,-5.85 10.51,-11.7 15.7,-17.62 -0.2,-46.88 -0.06,-93.8 -0.06,-140.68 -8.63,-9.72 -17.33,-19.37 -26.06,-28.99 9.23,-14.62 29.07,-25.43 26.16,-44.97 -0.2,-41.66 -0.17,-83.32 -0.04,-124.97 -6.81,-9 -13.72,-17.89 -20.59,-26.78 -14.88,15.3 -37.5,25.09 -44.01,46.91zm139.85 -44.27c0.2,59.02 0,118.07 0.17,177.12 16.89,0.33 36.17,-1 48.24,-14.52 12.53,-14.71 18.58,-33.49 27.07,-50.55 4.04,-0.2 8.1,-0.4 12.2,-0.56 0,51.97 0.24,103.98 -0.13,155.98 -4,-0.19 -7.97,-0.36 -11.93,-0.53 -10.35,-18.11 -17.23,-38.91 -32.41,-53.75 -11.34,-11.35 -28.3,-10.32 -43.01,-11.54 -0.1,57 -0.07,114 -0.03,170.99 14.91,-0.42 29.75,1.1 44.57,2.52 12.79,1.82 23.21,-7.31 32.03,-15.21 25.86,-25.59 41.83,-58.72 59.45,-90.06 2.05,-6.62 9.95,-4.76 15.21,-6.25 -4.93,58.65 -10.35,117.27 -15.21,175.96 9.35,-9.82 18.45,-19.84 27.41,-30.03 -0.23,-115.25 0.1,-230.54 -0.17,-345.79 -12.13,-15.64 -14.18,-36.2 -25.29,-52.37 0.99,19.74 3.73,39.31 5.22,59.01 -3.2,0.04 -9.65,0.1 -12.86,0.1 -12.56,-18.74 -23.93,-38.25 -36.96,-56.7 -8.66,-12.5 -24.24,-18.12 -39.02,-17.52 -18.21,0.86 -36.36,2.71 -54.55,3.7zm-592.44 86.89c0.89,-8.7 8.53,-18.91 1.62,-26.58 -12.73,-16.67 -21.32,-36.11 -25.06,-56.71 -3.6,29.6 5.13,59.85 23.44,83.29zm380.88 -76.18c-8.24,24.3 -18.81,48.94 -17.06,75.19 -7.97,7.14 -16.14,14.05 -24.4,20.86 5.06,15.04 10.35,30.02 15.21,45.13 14.02,-39.94 27.44,-80.04 41.29,-120.02 -5.02,-7.07 -10.02,-14.15 -15.04,-21.16zm436.19 -253.58c21.72,-27.48 59.67,-44.8 94.42,-34.29 29.89,8.73 51.48,33.36 66.16,59.71 -22.02,-5.45 -46.72,-14.84 -68.24,-2.64 -21.86,13.29 -31.15,38.61 -45.46,58.62 -10.85,16 -24.93,30.58 -43.15,37.98 -28.1,11.84 -59.58,9.46 -88.9,4.2 -18.05,-3.83 -35.34,-10.44 -52.57,-16.93 30.98,-5.88 64.01,-11.77 88.47,-33.32 23.41,-19.21 32.7,-49.07 49.27,-73.33zm5.95 18.98c-11.24,20.2 -20.93,41.82 -37.4,58.55 -13.32,14.28 -30.94,23.31 -48.33,31.64 29.72,4.76 63.38,7.31 89.5,-10.58 30.45,-21.43 38.84,-61.66 67.87,-84.38 13,-10.54 30.25,-12.16 46.29,-13.32 -14.48,-12.83 -32.24,-24.2 -52.4,-23.21 -26.82,1.49 -52.74,17.56 -65.53,41.3zm-1352.34 82.25c59.44,25.79 118.62,52.21 177.84,78.43 25.03,11.57 52.53,24.99 65,51.18 6.55,14.11 7.83,29.95 7.87,45.32 -0.13,112.45 0.1,224.89 -0.1,337.34 0.16,24.83 -14.02,47.67 -33.33,62.42 -28.89,22.91 -64.17,35.34 -98.79,46.78 -39.64,14.45 -78.88,30.02 -118.49,44.54 8.99,-11.64 18.28,-23.01 27.34,-34.62 0,-86.03 -0.17,-172.05 0.1,-258.08 2.18,-17.89 -17.03,-26.82 -26.05,-39.68 8.13,-9.12 16.56,-17.98 24.89,-26.91 -0.3,-78.16 0.96,-156.25 1.13,-234.38 -0.1,-8.23 0.79,-17.02 -3.54,-24.43 -7.87,-16.04 -16.23,-31.77 -23.87,-47.91zm109.27 95.85c0.33,158.8 -0.2,317.63 0.26,476.46 18.09,-5.59 37.4,-10.88 51.22,-24.6 14.71,-14.22 18.81,-35.74 18.68,-55.45 -0.04,-108.01 -0.07,-216.02 0,-324 0.26,-13.72 -5.62,-26.75 -13.72,-37.56 -13.06,-19.08 -35.22,-28.14 -56.44,-34.85zm455.66 488.76c8.5,-2.61 17.19,-4.66 26.12,-4.9 17.56,-0.46 35.57,-3.96 52.77,1.29 0.56,23.28 0.23,46.59 0.26,69.86 2.81,0.07 8.47,0.2 11.31,0.27 0.06,1.78 0.23,5.36 0.3,7.14 -13,0.36 -25.99,0.99 -38.92,1.98 -0.1,-13.12 -0.2,-26.21 -0.13,-39.34 -8.5,0.33 -16.96,0.79 -25.42,1.36 0,13.12 -0.07,26.21 -0.1,39.34 -12.73,0.43 -25.46,1.06 -38.19,1.95l0.3 -7.67c2.81,0.03 8.46,0.13 11.27,0.2 0.26,-23.84 -0.3,-47.68 0.43,-71.48zm26.35 2.64c-0.06,9.19 -0.06,18.35 0,27.54 8.46,-0.49 16.89,-0.92 25.36,-1.29 -0.03,-9.29 -0.03,-18.54 -0.03,-27.8 -8.44,0.56 -16.9,0.99 -25.33,1.55zm268.53 -2.31c-0.69,-4.63 5.13,-6.35 8.63,-6.61 13.42,-0.6 26.75,1.91 40.1,2.97 10.06,1.26 20.87,1.65 29.66,7.24 2.32,24.57 0.6,49.4 0.73,74.06 -16.66,3.27 -33.53,0.07 -50.16,-1.52 -9.88,-0.93 -19.57,-3.17 -28.86,-6.65 -0.26,-23.17 -0.73,-46.35 -0.1,-69.49zm26.52 68.47c8.73,0.86 17.49,1.79 26.25,2.74 -0.07,-22.28 -0.2,-44.53 0,-66.81 -8.73,-1 -17.49,-1.96 -26.19,-2.95 -0.13,22.35 -0.03,44.67 -0.06,67.02zm-484.66 -53.1c29.95,-1.85 59.91,-9.59 89.96,-5.95 0.37,10.28 0.4,20.6 0.43,30.91 -1.72,1.06 -5.16,3.24 -6.88,4.3 2.25,1.62 4.5,3.24 6.75,4.86 0.1,10.22 0.1,20.4 0.03,30.62 3.31,-0.13 9.92,-0.43 13.23,-0.6 -0.83,1.62 -2.48,4.83 -3.28,6.45 -12.16,2.91 -24.83,2.98 -37.22,4.43 -0.14,-13.13 -0.17,-26.22 -0.2,-39.31 -8.17,0.99 -16.33,1.88 -24.5,2.74 0.03,13.1 -0.04,26.19 -0.13,39.25 -13.62,1.45 -27.21,3.24 -40.94,3.73 1.79,-6.58 8.07,-7.63 13.66,-9.15 -0.17,-21.89 -0.1,-43.78 -0.07,-65.67 -4.06,0.2 -8.1,0.43 -12.13,0.67 0.33,-1.82 0.96,-5.46 1.29,-7.28zm39.54 3.64c-2.61,8.7 -0.83,18.28 -1.22,27.31 8.13,-0.83 16.3,-1.66 24.46,-2.51 0.07,-9.2 0.07,-18.39 0.14,-27.58 -7.81,0.83 -15.68,1.23 -23.38,2.78zm-148.35 27.94c0.07,22.18 -0.03,44.37 -0.03,66.55 8.2,-2.08 16.43,-4.1 24.66,-6.18 -0.16,-22.09 -0.13,-44.17 -0.13,-66.26 -8.17,1.95 -16.3,3.97 -24.5,5.89z"/>
   <path class="fil3" d="M1615.04 577.68c12.79,-23.74 38.71,-39.81 65.53,-41.3 20.16,-0.99 37.92,10.38 52.4,23.21 -16.04,1.16 -33.29,2.78 -46.29,13.32 -29.03,22.72 -37.42,62.95 -67.87,84.38 -26.12,17.89 -59.78,15.34 -89.5,10.58 17.39,-8.33 35.01,-17.36 48.33,-31.64 16.47,-16.73 26.16,-38.35 37.4,-58.55zm-92.64 216.48c9.52,-0.82 20,-1.18 27.7,5.56 13.36,8.83 15.18,25.72 20.07,39.64 3.24,11.08 10.71,20.14 17.69,29.13 -11.9,-4.37 -26.32,-7.84 -32.5,-20.27 -9.59,-18.84 -12.36,-43.05 -32.96,-54.06zm127.82 -85.92c14.11,-5.39 29.39,-6.98 44.3,-4.27 -16.57,12.86 -33.76,29.3 -34.65,51.71 -2.74,34.42 21.59,62.29 43.31,85.96 -11.87,-2.28 -24.43,-3.93 -34.62,-10.97 -12.03,-8.01 -18.87,-21.13 -27.57,-32.24 -16.03,-21.52 -36.76,-41.36 -63.35,-48.57 -20.3,-7.11 -42.05,-6.88 -62.85,-11.54 -14.74,-3.24 -21.16,-18.58 -26.61,-30.94 13.72,4.63 27.14,10.44 41.43,13.22 40.43,6.02 82.15,1.39 120.61,-12.36z"/>
  </g>
 </g>
</svg>
