<?xml version="1.0" encoding="UTF-8"?>
<!DOCTYPE svg PUBLIC "-//W3C//DTD SVG 1.1//EN" "http://www.w3.org/Graphics/SVG/1.1/DTD/svg11.dtd">
<!-- Creator: CorelDRAW -->
<svg xmlns="http://www.w3.org/2000/svg" xml:space="preserve" width="2000px" height="1600px" version="1.1" style="shape-rendering:geometricPrecision; text-rendering:geometricPrecision; image-rendering:optimizeQuality; fill-rule:evenodd; clip-rule:evenodd"
viewBox="0 0 2000 1600"
 xmlns:xlink="http://www.w3.org/1999/xlink">
 <defs>
  <style type="text/css">
   <![CDATA[
    .fil0 {fill:#0E0344;fill-rule:nonzero}
    .fil2 {fill:#C4152C;fill-rule:nonzero}
    .fil1 {fill:#FBFDFB;fill-rule:nonzero}
   ]]>
  </style>
 </defs>
 <g id="Capa_x0020_1">
  <metadata id="CorelCorpID_0Corel-Layer"/>
  <g id="Duquesne_x0020_Dukes.cdr">
   <path class="fil0" d="M1279.94 281.85c75.71,-53.85 170.03,-74.55 261.73,-75.48 81.7,-0.26 163.53,12.12 241.53,36.5 -57.03,90.67 -96.91,194.89 -99.26,302.96 61.67,19.17 126.21,31.49 191.02,27.78 -24.9,28.78 -64.41,40.11 -101.43,39.38 -28.52,0.73 -56.64,-5.2 -83.96,-12.75 8.91,24.27 17.82,48.52 26.76,72.79 -7.75,5.27 -15.07,11.16 -23.25,15.7 -10.1,0.2 -20.13,-1.66 -30.23,-1.1 -0.96,4.08 -1.89,8.19 -2.79,12.29 5.17,2.52 10.27,5.2 15.21,8.18 -8.88,9.54 -15.8,20.63 -21.6,32.29 5.8,4.94 11.69,9.84 17.59,14.67 -9.84,20.8 -19.51,41.66 -28.95,62.63 -19.04,-0.6 -38.05,-0.24 -57.06,-0.3 20.24,22.92 41.1,45.37 59.91,69.55 42.69,1.72 85.48,0.43 128.23,0.82 36.47,-0.59 72.89,1.5 109.36,0.83 0.76,52.69 -0.96,105.35 -0.73,158.04 -0.37,8.84 1.26,18.18 -2.42,26.53 -18.45,44.17 -37.06,88.32 -55.47,132.53 25.3,0 50.6,0 75.87,0 -17.48,49.41 -45.07,96.77 -86.34,129.99 -27.32,20.43 -56.33,40.1 -89.75,48.85 -25.86,7.32 -52.85,8.48 -79.54,9.1 -82.7,-2.31 -165.46,0.67 -248.15,-1.75 -58.52,0.1 -117.07,0 -175.59,0.06 -77.4,-1.98 -154.83,0.1 -232.22,-1.19 -77.2,-1.49 -154.46,0.8 -231.63,-1.29 -55.24,0.03 -110.44,0 -165.65,0.03 -37.92,-0.56 -77.86,-2.58 -111.31,-22.45 -24.14,-15.13 -46.06,-34.24 -62.42,-57.69 -95.05,-61.53 -226.26,-52.33 -317.4,12.49 3.44,-36.3 6.79,-73.16 18.84,-107.8 9.94,-28.15 25.73,-54.78 48.45,-74.48 9.84,-6.76 9.94,-19.64 13.58,-29.91 -13.38,0.03 -26.76,0.23 -40.1,-0.83 9.67,-27.22 16.49,-55.7 30.43,-81.2 10.73,-19.84 26.66,-36.86 46,-48.52 1.46,-3.41 2.88,-6.85 4.34,-10.23 -25.77,-17.39 -43.45,-45.41 -47.99,-76.14 -6.32,-32.52 2.82,-65.04 3.28,-97.63 25.47,11.43 52.26,21.03 80.21,23.65 16.3,0.39 32.59,1.12 48.88,1.22 -47.26,-49.57 -73.25,-118.66 -70.67,-187.11 1.23,-41.66 16.13,-84.48 47.76,-112.83 11.85,35.8 35.93,69.41 71.23,84.91 31.86,15 69.22,10.4 100.81,-2.91 149.26,-61.27 308.59,-102.27 470.57,-104.65 98.72,-1.49 198.04,11.88 291.96,42.75 5.23,-6.03 10.5,-11.96 15.8,-17.88 -48.29,-22.62 -100.74,-34.74 -153.37,-41.86 59.38,-48.72 138.14,-67.83 213.81,-67.07 -2.88,-43.98 -8.12,-87.76 -13.88,-131.47z"/>
   <path class="fil1" d="M585.9 1267.62c19.37,0.56 38.78,-0.63 58.15,0.6 10.27,0.99 22.75,3.51 27.52,13.91 5.57,16.46 -8.47,31.92 -23.31,36.72 -25.63,8.25 -52.92,2.45 -79.25,5 9.8,-16.99 14.84,-36.85 16.89,-56.23zm1044.19 16.4c9.48,-10.11 24.31,-12.26 37.46,-13.05 16.13,-1.06 31.66,3.9 47.39,6.49 -4.9,4.4 -9.8,8.77 -14.6,13.28 -15.14,-11.3 -40.67,-15.24 -54.98,-0.9 18.81,4.57 39.87,-0.29 57.26,9.57 7.82,5.14 3.08,16.7 -4.21,19.88 -25.26,14.4 -55.76,8.9 -82.72,2.94 4.34,-4.24 8.64,-8.51 12.91,-12.81 17.69,10.83 41.9,11.72 59.88,1.12 -17.29,-9.34 -38.28,-1.65 -55.9,-9.77 -6.89,-2.68 -7.35,-12.02 -2.49,-16.75zm-252.15 -14.05c28.15,-0.26 56.66,3.91 84.55,-1.32 -1.66,5.16 -3.32,10.36 -4.91,15.63 -19.34,-5.96 -39.84,-2.15 -59.74,-3.21 -1.23,3.81 -2.48,7.65 -3.68,11.49 14.01,0.13 28.19,0.66 42.03,-2.22 -1.36,4.74 -2.68,9.47 -3.97,14.27 -13.48,-2.88 -27.36,-2.02 -41,-1.92 -1.26,4.34 -2.45,8.68 -3.65,13.05 20.8,-0.56 41.9,1.76 62.5,-2.15 -1.59,5 -3.08,10.07 -4.54,15.13 -28.51,-4.44 -57.62,-0.99 -86.37,-2.18 2.18,-1.69 4.4,-3.35 6.66,-5 3.84,-17.22 12.78,-33.62 12.12,-51.57zm-259.91 -0.59c9.6,0.06 19.21,0.1 28.81,-0.6 -5.93,6.59 -8.28,15.17 -10.66,23.48 13.58,-5.96 27.09,-12.02 40.73,-17.78 -0.59,-1.36 -1.75,-4.04 -2.35,-5.4 13.22,0.56 26.4,1.19 39.61,1.62 -17.02,6.92 -33.78,14.51 -50.64,21.86 11.73,11.03 22.79,22.85 35.8,32.39 -12.35,-0.07 -24.7,-0.04 -37.02,-0.04 1.32,-1.22 3.94,-3.7 5.23,-4.96 -7.09,-6.63 -14.11,-13.32 -21.36,-19.77 -5.03,2.25 -10,4.53 -15.04,6.79 -0.99,5.92 -1.68,11.92 -1.39,17.94 -8.74,-0.03 -17.48,0 -26.19,0.3 10.56,-14.57 11.72,-33.45 17.88,-49.97 -0.86,-1.46 -2.55,-4.41 -3.41,-5.86zm-268.88 -0.8c9.34,0 18.71,0.03 28.08,0.03 -1.55,1.3 -4.7,3.88 -6.26,5.17 -2.45,12.39 -9.7,24.57 -8.08,37.36 9.74,5.63 21.69,4.2 32.39,3.18 7.75,-0.9 14.18,-6.66 15.93,-14.24 3.25,-10.17 7.12,-20.6 6,-31.47 8.94,0.04 17.88,-0.03 26.82,-0.23 -14.31,14.87 -7.32,43.78 -29.21,52.2 -22.72,6.85 -48.48,6.69 -70.94,-1.33 -7.05,-17.22 7.95,-33.15 5.27,-50.67zm-561.87 -303.98c17.15,-12.12 39.01,-13.48 59.28,-13.81 -9.21,36.86 -19.81,73.38 -29.64,110.11 -4.8,16.36 -7.15,34.15 -18.08,47.96 -18.22,25.07 -50.34,33.91 -79.68,37.25 7.61,-27.35 15.69,-54.57 23.51,-81.86 -11.99,0 -23.95,-0.8 -35.9,-1.26 5.13,-10.96 9.74,-22.49 17.82,-31.69 8.61,-9.11 20.27,-14.41 31.42,-19.64 6.76,-17.69 15.34,-35.87 31.27,-47.06zm1423.69 -27.95c44.08,-0.14 88.16,-0.04 132.23,-0.07 -0.59,22.06 -0.76,44.11 -2.05,66.13 -4.87,-3.24 -9.77,-6.49 -14.6,-9.73 -18.91,0.46 -37.76,-0.73 -56.63,-1 -3.32,11.6 -6.63,23.22 -9.94,34.84 17.16,0.04 34.31,0 51.5,0.04 -5.8,21.29 -11.86,42.52 -17.49,63.85 -3.41,-2.65 -6.56,-5.66 -10.23,-7.88 -13.15,-1.1 -26.36,-0.2 -39.51,-0.47 -2.78,10.23 -6.59,20.3 -7.82,30.9 -0.29,5.8 4.84,10.96 10.7,10.66 14.24,1.13 28.58,0.87 42.85,0.3 8.95,-2.28 16.93,-7.22 25.31,-10.93 -12.59,22.62 -24.41,45.64 -37.19,68.16 -22.46,0.79 -45.01,0.07 -67.5,0.3 -10.43,0.13 -21.72,-1.92 -29.31,-9.67 -12.35,-11.49 -13.74,-30.14 -11.03,-45.84 3.12,-17.75 9.31,-34.77 13.98,-52.16 -4.54,-6.29 -8.94,-12.65 -13.41,-18.97 9.6,-9.74 25.03,-16.07 27.55,-30.87 5.47,-20.37 11.96,-40.44 16.79,-60.93 -0.63,-9.01 -2.75,-17.79 -4.2,-26.66zm-204.64 -0.96c23.52,0.16 47.06,0.09 70.58,0 7.45,36.62 14.73,73.25 22.42,109.81 8.08,-27.02 15.59,-54.24 23.35,-81.37 2.98,-9.24 1.09,-19.01 0.82,-28.48 23.42,1.72 46.9,0.6 70.34,1 -5.29,8.97 -11.65,17.55 -14.47,27.71 -20.66,72.47 -41.06,144.99 -61.86,217.42 -18.25,-0.06 -36.53,-0.06 -54.78,0 -6.49,-42.16 -13.44,-84.25 -20.07,-126.41 -9.6,32.26 -18.94,64.61 -28.54,96.87 -3.35,9.21 -1.39,19.08 -1.23,28.61 -24.9,0.04 -49.77,-0.03 -74.68,0.04 5.37,-9.21 11.99,-17.92 14.84,-28.32 17.81,-63.05 35.76,-126.11 53.78,-189.1 2.72,-9.11 0.03,-18.58 -0.5,-27.78zm-162.64 35.56c13.88,-18.87 33.95,-36.86 58.85,-36.33 21.03,0.5 42.06,1.23 63.12,0.83 -0.96,21.83 -0.49,43.68 -1.98,65.51 -6.69,-3.84 -12.75,-10.6 -21.1,-9.97 -12.91,0.13 -25.96,-0.8 -38.81,0.63 -12.72,5.93 -15.27,21.13 -18.75,33.22 13.91,3.47 28.09,6.09 41.7,10.66 13.94,4.9 23.28,19.47 22.22,34.18 -2.15,29.44 -9.87,60.01 -29.67,82.72 -13.18,15.3 -31.99,28.15 -52.96,27.43 -23.81,-0.11 -47.59,-0.07 -71.37,-0.11 0.1,-22.81 0.7,-45.63 1.59,-68.45 6.4,3.71 12.39,8.25 19.31,10.93 14.71,0.89 29.44,0.33 44.15,0.4 19.67,2.05 26.92,-27.62 15.13,-39.35 -16.62,-6.62 -34.84,-8.81 -52.09,-13.61 -13.85,-33.81 0.56,-70.74 20.66,-98.69zm-169.16 -37.12c51.46,-0.56 102.93,0.79 154.39,0.79 -13.31,21.93 -26.59,43.85 -40.04,65.68 -3.34,-3.35 -6.65,-6.69 -9.96,-10.01 -15.4,-0.23 -30.84,-0.16 -46.24,-0.16 -3.34,11.56 -6.52,23.18 -9.77,34.74 15.47,0 30.94,0.06 46.4,-0.07 -5.86,21.3 -11.79,42.59 -17.58,63.92 -12.59,-11 -29.31,-8.35 -44.71,-8.31 -2.62,9.67 -6.1,19.17 -7.29,29.14 -0.89,5.99 4.01,12.65 10.4,12.05 13.38,0.44 26.79,0.07 40.2,0.2 11.89,1.06 21.86,-6.55 32.3,-10.96 -12.52,22.89 -24.98,45.84 -37.3,68.82 -25.96,0.73 -51.89,-0.83 -77.86,-0.73 -12.65,0.37 -25.03,-7.02 -30.76,-18.25 -14.24,-30.33 4.2,-62.29 10.4,-92.26 -3.88,-5.57 -7.75,-11.13 -11.66,-16.63 7.19,-6.32 15.1,-11.95 21.43,-19.17 7.91,-22.65 13.21,-46.17 20.23,-69.12 3.94,-9.83 -0.86,-19.93 -2.58,-29.67zm-200.93 -0.83c25.7,-0.07 51.37,0.03 77.07,-0.07 -5.83,9.97 -12.85,19.58 -15.57,31 -12.51,44.58 -25.4,89.02 -37.85,133.6 -2.88,8.84 0.2,22.95 11.43,23.38 15.6,2.95 29.57,-9.41 33.48,-23.78 12.91,-44.81 25.4,-89.75 38.31,-134.56 3.55,-9.6 -0.96,-19.34 -2.74,-28.74 25.7,-0.03 51.43,-0.03 77.13,0 -5.53,9.5 -12.45,18.48 -15.27,29.31 -14.21,50.44 -28.55,100.87 -42.99,151.25 -2.22,5.63 -0.19,11.45 0.93,17.08 -17.52,15.67 -34.74,31.7 -52.19,47.43 -25.7,-0.23 -51.4,0.53 -77.07,-0.37 -10.86,0 -22.02,-4.53 -28.34,-13.64 -11,-15.14 -11.03,-35.34 -6.17,-52.69 14.48,-50.44 28.68,-100.94 43.16,-151.38 3.08,-9.31 -1.96,-18.68 -3.32,-27.82zm-398.33 -1.95c25.53,1.72 51.1,0.92 76.66,1.12 -6.02,9.87 -12.75,19.57 -15.43,31 -12.28,44.28 -25.27,88.36 -37.52,132.64 -3.18,8.87 0.3,23.71 11.82,23.51 15.57,2.88 29.25,-9.64 33.09,-23.91 12.85,-44.88 25.43,-89.82 38.31,-134.69 3.61,-9.47 -1.29,-19.18 -2.68,-28.55 25.57,0.17 51.14,-0.49 76.7,0.43 -5.2,9.18 -11.85,17.72 -14.64,28.09 -14.27,50.2 -28.51,100.44 -42.82,150.65 -1.82,6.46 -2.41,13.21 -2.94,19.9 -16.5,15.8 -33.09,31.46 -49.81,47 -25.93,-2.12 -51.96,-0.2 -77.93,-1.23 -10.53,-0.5 -20.99,-5.43 -26.96,-14.34 -10.66,-15.1 -10.39,-35.1 -5.63,-52.29 14.44,-50.01 28.48,-100.15 42.86,-150.19 3.51,-9.7 -1.59,-19.51 -3.08,-29.14zm897.18 -251.99c22.36,7.74 44.18,16.99 65.41,27.45 -5.16,7.82 -10.37,15.6 -15.3,23.55 -15.83,-17.82 -32.59,-34.81 -50.11,-51zm-989.15 -5.04c162.05,-66.7 336.08,-109.55 512.1,-107.07 121.01,1.66 242.75,25.17 352.8,76.44 36.1,17.45 72.06,36.29 103.03,62.06 -107.64,-44.54 -221.06,-78.16 -337.84,-85.71 -117.7,-8.54 -236.22,10.57 -347.93,47.53 -84.94,27.48 -166.48,64.51 -246.09,104.68 -45.24,22.32 -100.68,23.94 -146.55,2.62 -27.72,-12.52 -51.3,-34.91 -63.45,-62.96 -9.64,-21.79 -11.56,-46.17 -9.41,-69.65 14.77,20.34 35.07,37.33 59.58,44.32 40.93,12.48 84.95,3.17 123.76,-12.26zm1083.34 -431.68c25.37,-0.47 50.64,2.74 75.51,7.61 -18.28,57.33 -28.52,116.81 -36.33,176.32 -15.4,-5.07 -30.73,-10.33 -46.3,-14.97 3.38,-56.27 5.93,-112.6 7.12,-168.96zm-54.31 291.66c4.2,-5.1 8.44,-10.2 12.88,-15.13 36.7,17.42 73.22,35.17 110.12,52.19 -3.95,2.15 -7.89,4.34 -11.79,6.52 -26.1,-13.57 -52.16,-27.22 -78.23,-40.83 -14.5,13.64 -28.74,27.55 -42.79,41.66 13.12,1.03 26.23,1.36 39.35,2.45 9.9,0.8 18.51,6.39 27.49,10.2 -10.97,1.53 -21.93,2.75 -32.86,4.24 8.71,4.44 17.59,8.51 26.37,12.85 -6.06,8.81 -12.09,17.62 -18.09,26.49 18.95,-7.98 37.69,-16.42 56.63,-24.5 7.52,3.54 15.11,7.05 22.69,10.6 10.83,-8.71 21.59,-17.56 32.39,-26.37 8.38,23.45 16.76,46.93 25.33,70.28 -16.72,-1.85 -33.41,-3.81 -50.1,-5.7 0.1,-8.28 0.49,-16.56 1.12,-24.8 -28.21,3.28 -59.51,14.27 -72.13,41.99 15.93,-8.64 33.85,-12.65 52,-11.62 1.29,4.34 2.61,8.67 3.94,13.01 5.43,0.76 10.86,1.53 16.32,2.35 -0.33,3.18 -1.02,9.51 -1.35,12.69 -19.34,-0.27 -39.35,4.53 -53.59,18.34 19.54,1.76 39.18,2.95 58.59,6.03 -3.41,4.77 -6.83,9.54 -10.17,14.31 -9.07,-2.02 -18.08,-4.01 -27.12,-5.93 12.91,11.46 25.96,22.82 38.88,34.31 -4.81,10.66 -9.67,21.33 -14.91,31.83 -2.12,-9.97 -4.07,-19.97 -6.06,-29.98 -4.6,8.15 -9.34,16.2 -13.97,24.31 -14.81,-3.61 -29.94,-6.52 -44.21,-11.95 -6.86,-6.49 -11.93,-14.57 -17.89,-21.79 10.63,-19.68 21.4,-39.41 35.17,-57.1 -39.74,-22.62 -83.55,-36.79 -127.33,-49.21 -12.29,-3.81 -25.83,-5.07 -36.46,-12.85 -16.7,-11.16 -34.12,-21.16 -51.77,-30.67 4.44,-12.35 10.77,-25.1 22.56,-31.92 15,-9.74 33.87,-8.35 50.66,-5.07 0.24,22.09 0.9,44.21 1.63,66.3 17.48,-2.32 34.97,-4.8 52.52,-6.65 -2.78,-11.13 -3.18,-22.66 -2.45,-34.08 -6.75,-5.1 -13.48,-10.27 -20.2,-15.37 8.61,-1.36 17.22,-2.65 25.86,-3.94 2.85,-6.52 5.8,-13.01 9.01,-19.41 -5.73,-6.89 -11.39,-13.84 -17.05,-20.76 9.67,0.89 19.34,1.79 29.01,2.68zm-135.09 72.16l0 0c7.35,-1.02 14.71,-2.15 22.09,-3.24 6.23,7.45 12.58,14.8 18.94,22.12 -0.86,-16.03 -1.09,-32.06 -1.95,-48.09 -17.29,2.26 -32.19,13.18 -39.08,29.21zm-1160.44 247.95c16.76,3.58 32.92,10.2 50.01,11.79 63.95,-0.06 127.9,-0.16 191.82,1.13 31.23,3.18 61.4,23.28 72.72,53.15 7.12,17.92 6.53,37.96 1.83,56.44 -12.19,48.68 -23.75,97.56 -35.97,146.24 -4.64,17.29 1.09,35.04 1.85,52.49 -19.6,6.5 -38.97,14.84 -55.17,27.89 -16.59,13.88 -29.9,31.16 -42.26,48.78 -33.55,-16.59 -71.23,-21.99 -108.12,-25.04 -47.79,-3.7 -98.07,0.7 -140.52,24.71 6.89,-31.99 22.88,-64.21 51.46,-81.97 31.3,-19.07 69.58,-20.4 105.18,-18.24 18.98,-70.38 38.12,-140.69 57.16,-211.06 -29.11,0.53 -58.18,-0.7 -87.29,-0.89 -15.93,-0.6 -32.13,-6.66 -42.53,-19.18 -16.79,-17.55 -20.56,-42.92 -20.17,-66.24zm167.31 86.34l0 0c-5.66,21.36 -11.79,42.59 -17.45,63.99 27.49,5.53 56.7,4.3 82.73,-6.69 3.84,-15.9 11.13,-34.35 1.13,-49.48 -20.31,-10.24 -44.35,-6.99 -66.41,-7.82zm-21.29 78.56l0 0c-5.5,20.4 -10.43,40.93 -15.63,61.4 26.62,-6.26 54.58,-5.5 80.77,2.31 5.37,-22.32 11.33,-44.47 16.86,-66.73 -26.46,8.48 -54.98,9.41 -82,3.02zm-20.14 79.51l0 0c-6.22,17.79 -10.26,36.23 -15.73,54.25 17.65,2.25 35.27,5.2 52.43,9.93 9.93,-14.04 24.11,-24.44 39.87,-31.06 1.69,-11.43 3.35,-22.85 4.87,-34.28 -26.43,-7.38 -55.47,-8.54 -81.44,1.16zm431.95 -119.69c18.15,-15.89 36.83,-31.29 55.81,-46.23 24.04,0.57 48.15,0.17 72.19,0.53 14.91,0.23 27.82,11.43 31.86,25.5 8.81,25.8 -4.17,51.63 -10.3,76.44 3.41,5.53 6.79,11.09 10.2,16.69 -6.55,5.1 -13.11,10.2 -19.73,15.23 -7.69,25.11 -13.98,50.74 -22.66,75.51 -11.82,12.12 -26.36,21.46 -39.14,32.62 38.88,7.49 77.49,16.16 116.44,23.15 31.93,4.9 65.64,9.8 96.87,-1.16 15.73,-4.87 30.47,-12.55 43.65,-22.42 -11.3,25.83 -32.85,48.49 -61.5,53.75 -28.05,6.63 -57.2,4.41 -85.54,1.19 -56.64,-7.05 -112.93,-17.15 -169.57,-23.91 -25.99,5.9 -51.36,14.54 -77.19,21.33 18.25,-15.53 36.46,-31.06 54.94,-46.3 -15.53,-2.15 -29.87,-12.22 -34.54,-27.58 -10.14,-29.05 5.83,-57.66 11.92,-85.68 -3.94,-5.4 -7.82,-10.8 -11.69,-16.19 7.19,-6.46 15.43,-11.96 21.59,-19.44 6.53,-17.32 9.08,-36.04 16.39,-53.03zm72.9 6.4l0 0c-10,3.01 -18.45,11.29 -21.2,21.46 -8.74,30 -17.15,60.1 -25.73,90.14 -2.52,7.88 -2.95,18.55 5.33,23.19 15.87,7.45 37.66,-1 42.56,-18.35 8.97,-29.71 16.95,-59.75 25.66,-89.52 1.89,-7.15 4.54,-16.13 -1.12,-22.29 -6.36,-6.89 -17.09,-6.22 -25.5,-4.63zm-242.19 292.29l0 0c-3.45,11.79 -6.89,23.61 -10.4,35.41 15.96,-0.47 33.75,2.78 48.09,-6.13 7.94,-5 14.4,-18.91 4.7,-25.34 -13.02,-6.65 -28.32,-3.24 -42.39,-3.94z"/>
   <path class="fil2" d="M505.89 1223.05c3.54,-1.13 7.18,-4.21 11.06,-3.12 8.34,7.22 14.8,16.79 24.9,21.86 16.2,8.38 35.01,7.48 52.69,7.65 98.26,-0.66 196.46,1.36 294.68,0.86 33.22,0.07 66.44,-0.33 99.62,1.03 199.73,-0.3 399.46,1.52 599.19,1.42 76.67,1.76 153.34,0.47 230.04,0.93 -19.81,35.27 -49.45,66.37 -87.83,80.94 -29.37,11.66 -61.53,9.9 -92.53,10.1 -71.8,-1.52 -143.6,-0.56 -215.4,-0.8 -71.66,-1.42 -143.36,-0.49 -215.06,-0.72 -71.73,-1.96 -143.5,-0.67 -215.26,-1 -71.77,-1.72 -143.6,-0.59 -215.37,-0.86 -60.64,-1.36 -121.31,-0.43 -181.95,-0.73 -25.1,-0.33 -51.23,2.09 -75.11,-7.35 -14.77,-6.06 -29.01,-13.91 -41.16,-24.31 -12.75,-10.99 -20.9,-26.03 -28.45,-40.8 14.54,-19.44 34.05,-34.77 55.94,-45.1zm99.45 54.77c14.07,0.7 29.37,-2.71 42.39,3.94 9.7,6.43 3.24,20.34 -4.7,25.34 -14.34,8.91 -32.13,5.66 -48.09,6.13 3.51,-11.8 6.95,-23.62 10.4,-35.41zm562.2 -523.45c96.61,-8.81 195,-0.3 288.09,27.38 20,6.33 40.01,12.89 58.95,21.93 -71.07,-10.6 -143.03,-20.27 -215.03,-14.67 -39.87,3.91 -82.13,11.29 -114.13,37.22 -18.57,14.51 -29.1,36.8 -33.41,59.55 -64.38,-1.92 -128.8,0.79 -193.14,-1.43 -50.74,-0.43 -101.47,0.33 -152.18,-0.33 107.5,-71.27 232.22,-117.37 360.85,-129.65zm-308.06 -48.52c144.4,-37.95 297.86,-44.11 443.91,-11.72 56.43,13.04 112.63,29.93 164,57.16 -102.57,-20.67 -207.25,-34.58 -312.1,-29.94 0.39,-1.03 1.19,-3.01 1.62,-4.04 -1.85,1.59 -5.53,4.77 -7.38,6.36l0.62 -6.63 -3.04 5.7c-0.93,-1.56 -2.82,-4.67 -3.74,-6.23 -3.05,1.53 -5.93,3.31 -8.88,5 -70.51,5.3 -141.11,15.67 -208.44,37.89 -77.07,24.71 -150.82,62.2 -212.52,114.98 -4.93,3.61 -9.5,9.28 -16.19,9.08 -44.28,1.03 -88.56,-1.09 -132.84,-0.66 -9.07,-12.85 -20.06,-24.18 -32.35,-33.98 101.47,-63.02 211.72,-112.57 327.33,-142.97zm457.09 -304.35c74.55,0.86 149.26,8.74 221.92,25.86 44.38,11.46 89.25,25.37 127.77,50.91 -11.99,1.42 -23.98,2.45 -35.97,3.51 9.21,7.25 18.42,14.47 27.59,21.79 -12.79,0.59 -25.57,0.86 -38.32,0.83 10.86,10.2 21.76,20.43 32.16,31.13 -40.74,-14.48 -79.72,-33.42 -117.83,-53.72 -67.13,-34.84 -140.12,-59.61 -215.73,-66.43 -0.5,-4.64 -1.06,-9.28 -1.59,-13.88zm-730.67 866.12l0 0c-2.05,19.38 -7.09,39.24 -16.89,56.23 26.33,-2.55 53.62,3.25 79.25,-5 14.84,-4.8 28.88,-20.26 23.31,-36.72 -4.77,-10.4 -17.25,-12.92 -27.52,-13.91 -19.37,-1.23 -38.78,-0.04 -58.15,-0.6zm263.25 0.96l0 0c2.68,17.52 -12.32,33.45 -5.27,50.67 22.46,8.02 48.22,8.18 70.94,1.33 21.89,-8.42 14.9,-37.33 29.21,-52.2 -8.94,0.2 -17.88,0.27 -26.82,0.23 1.12,10.87 -2.75,21.3 -6,31.47 -1.75,7.58 -8.18,13.34 -15.93,14.24 -10.7,1.02 -22.65,2.45 -32.39,-3.18 -1.62,-12.79 5.63,-24.97 8.08,-37.36 1.56,-1.29 4.71,-3.87 6.26,-5.17 -9.37,0 -18.74,-0.03 -28.08,-0.03zm268.88 0.8l0 0c0.86,1.45 2.55,4.4 3.41,5.86 -6.16,16.52 -7.32,35.4 -17.88,49.97 8.71,-0.3 17.45,-0.33 26.19,-0.3 -0.29,-6.02 0.4,-12.02 1.39,-17.94 5.04,-2.26 10.01,-4.54 15.04,-6.79 7.25,6.45 14.27,13.14 21.36,19.77 -1.29,1.26 -3.91,3.74 -5.23,4.96 12.32,0 24.67,-0.03 37.02,0.04 -13.01,-9.54 -24.07,-21.36 -35.8,-32.39 16.86,-7.35 33.62,-14.94 50.64,-21.86 -13.21,-0.43 -26.39,-1.06 -39.61,-1.62 0.6,1.36 1.76,4.04 2.35,5.4 -13.64,5.76 -27.15,11.82 -40.73,17.78 2.38,-8.31 4.73,-16.89 10.66,-23.48 -9.6,0.7 -19.21,0.66 -28.81,0.6zm259.91 0.59l0 0c0.66,17.95 -8.28,34.35 -12.12,51.57 -2.26,1.65 -4.48,3.31 -6.66,5 28.75,1.19 57.86,-2.26 86.37,2.18 1.46,-5.06 2.95,-10.13 4.54,-15.13 -20.6,3.91 -41.7,1.59 -62.5,2.15 1.2,-4.37 2.39,-8.71 3.65,-13.05 13.64,-0.1 27.52,-0.96 41,1.92 1.29,-4.8 2.61,-9.53 3.97,-14.27 -13.84,2.88 -28.02,2.35 -42.03,2.22 1.2,-3.84 2.45,-7.68 3.68,-11.49 19.9,1.06 40.4,-2.75 59.74,3.21 1.59,-5.27 3.25,-10.47 4.91,-15.63 -27.89,5.23 -56.4,1.06 -84.55,1.32zm252.15 14.05l0 0c-4.86,4.73 -4.4,14.07 2.49,16.75 17.62,8.12 38.61,0.43 55.9,9.77 -17.98,10.6 -42.19,9.71 -59.88,-1.12 -4.27,4.3 -8.57,8.57 -12.91,12.81 26.96,5.96 57.46,11.46 82.72,-2.94 7.29,-3.18 12.03,-14.74 4.21,-19.88 -17.39,-9.86 -38.45,-5 -57.26,-9.57 14.31,-14.34 39.84,-10.4 54.98,0.9 4.8,-4.51 9.7,-8.88 14.6,-13.28 -15.73,-2.59 -31.26,-7.55 -47.39,-6.49 -13.15,0.79 -27.98,2.94 -37.46,13.05z"/>
  </g>
 </g>
</svg>
