<?xml version="1.0" encoding="UTF-8"?>
<!DOCTYPE svg PUBLIC "-//W3C//DTD SVG 1.1//EN" "http://www.w3.org/Graphics/SVG/1.1/DTD/svg11.dtd">
<!-- Creator: CorelDRAW -->
<svg xmlns="http://www.w3.org/2000/svg" xml:space="preserve" width="2000px" height="1600px" version="1.1" style="shape-rendering:geometricPrecision; text-rendering:geometricPrecision; image-rendering:optimizeQuality; fill-rule:evenodd; clip-rule:evenodd"
viewBox="0 0 2000 1600"
 xmlns:xlink="http://www.w3.org/1999/xlink">
 <defs>
  <style type="text/css">
   <![CDATA[
    .fil0 {fill:#B8BBBD}
    .fil1 {fill:#850038;fill-rule:nonzero}
    .fil2 {fill:#FEFEFE;fill-rule:nonzero}
   ]]>
  </style>
 </defs>
 <g id="Capa_x0020_1">
  <metadata id="CorelCorpID_0Corel-Layer"/>
  <g id="Eastern_x0020_Kentucky_x0020_Colonels.cdr">
   <path class="fil0" d="M292.19 979.32c-10.26,-16.74 -18.35,-35.65 -24.05,-54.32 -5.59,-18.25 -9.49,-38.28 -9.54,-57.6 -25.66,4.96 -52.66,3.11 -77.31,-5.67l-13.53 -4.81 13.64 -4.51c5.37,-1.78 11.03,-3.32 16.6,-5.13 -25.93,-1.34 -51.56,-7 -76.39,-14.51l-21.61 -6.54 22.37 -3.06c15.69,-2.15 31.26,-5.32 46.52,-9.56 -7.59,-0.55 -15.14,-1.53 -22.62,-3l-16.53 -3.24 15.67 -6.18c17.78,-7.02 36.59,-12.92 53.22,-22.57 -17.7,-8.32 -34.01,-20.2 -43.7,-37.56 -9.97,-17.85 -9.45,-40.49 0.54,-58.22 12.01,-21.31 32.97,-35.9 55.2,-45.05 39.58,-16.28 83.35,-18.65 125.58,-15.44 14.49,1.11 28.91,3.03 43.24,5.45 10.47,-18.1 20.75,-36.36 33.63,-52.9 8.77,-11.27 18.81,-21.88 32.05,-27.85 19.12,-8.63 39.57,-13.66 60.01,-18.05l0.1 -0.02c18.75,-3.63 37.76,-6.86 56.93,-6.33 27.64,0.75 65.9,25.81 84.14,45.81 7.55,8.28 14.29,17.72 15.79,29.13 1.97,14.97 -1.54,29.14 -2.72,43.78 34.35,-5.03 74.77,-6.51 107.46,4.74 20.45,7.04 41.8,21.04 45.17,44.17 1.83,12.56 -2.35,24.7 -9.47,34.95 -9.06,13.04 -22.72,23.16 -36.56,30.63 -37.4,20.19 -80.08,27.28 -122.11,29.75 3.67,18.14 -6.87,35.41 -18.02,49.53 5.53,10.64 13.33,22.49 25.92,24.22l9.35 1.28 -6.39 6.94c-11.2,12.17 -28.46,14.3 -44.01,11.46 -7.28,10.36 -15.98,21.48 -17.38,34.2l-0.02 0.13c-3.16,22.85 -12.28,45.39 -28.58,62.03 -7.64,7.81 -16.88,13.82 -26.72,18.47l-4.1 1.94 -2.27 -3.92c-2.43,-4.18 -4.66,-8.68 -7.25,-12.89 -5.13,13.23 -13.17,25.25 -22.83,35.65l-0.62 0.67c4.74,7.71 8.51,16.02 11.07,24.8l0.61 2.1 -1.15 1.87c-4.1,6.63 -8.41,13.16 -13.5,19.08l-2.43 2.82 -3.38 -1.56c-2.59,-1.2 -4.38,-3.29 -5.26,-5.97 -3.1,-6.96 -6.67,-13.69 -10.64,-20.18 -17.63,13.17 -36.57,25.02 -57.72,31.56l-8.98 2.77 2.82 -8.96c3.93,-12.52 6.71,-25.36 8.95,-38.28 -25.09,24.41 -58.1,41.65 -90.79,51.41l-2.1 0.63 -1.88 -1.14c-14.18,-8.65 -27.81,-18.17 -41.63,-27.38l-11.57 -7.72 13.84 -1.29c34.74,-3.26 87.35,-9.2 115.49,-35.92 -27.84,12.14 -58.4,17.46 -88.66,19.26 -19.33,1.15 -38.97,1.15 -57.95,-3.14l-1.71 -0.39 -1.08 -1.38c-9.5,-12.12 -17.73,-25.14 -26.6,-37.71l-6.41 -9.08 11.03 1.34c20.29,2.47 40.51,4.88 60.83,6.46zm686.69 -193.22c-9,11.87 -18.87,23.03 -28.1,34.72l-2.43 3.08 -3.55 -1.69c-22.92,-10.86 -49.45,-11.38 -74,-6.71 -15.59,2.96 -31.14,8.03 -44.25,17.19 -21.77,15.21 -40.35,34.88 -54.87,57.08 -12.58,19.22 -21.85,42.07 -20.2,65.42 0.74,10.59 5.17,22.8 15.46,27.54l0.11 0.05c19.71,9.68 42.48,11.44 63.94,12.82 49.59,1.95 99.24,1.92 148.86,2.57 48.53,0.63 97.06,1.33 145.59,1.54l4.44 0.02 0.89 8.84 -4.35 0.9c-12.7,2.62 -25.76,4.3 -38.64,5.68 -16.21,1.73 -32.51,2.93 -48.78,3.9 -38.14,2.27 -76.44,3.28 -114.63,3.92 -35.08,0.59 -70.16,0.8 -105.23,0.93 -28.04,0.11 -56.1,0.1 -84.14,0.49 -21.33,0.3 -43.45,-2.63 -62.17,-13.5 -31.66,-18.38 -28.56,-53.38 -16.53,-83.01 19.5,-48.01 54.28,-90.61 100.43,-115.04 47.4,-25.09 101.54,-31.81 154.38,-34.06 21.27,-0.91 42.56,-0.59 63.85,-0.59l9.92 0 -6 7.91zm-126.35 151.24c-0.53,1.13 -2.5,4.98 -1.68,6l0.19 0.23 0.16 0.25c1.35,2.14 6.56,1.76 8.69,1.7 4.59,-0.12 8.81,-3.22 10.63,-7.39l0.04 -0.08 0.04 -0.09c9.32,-19.24 18.64,-38.47 27.98,-57.7 0.93,-1.93 2.59,-6.09 0.85,-8.06 -2.4,-2.71 -8.64,-1.5 -11.51,-0.37 -3.4,1.34 -5.81,4.6 -7.35,7.79 -9.29,19.27 -18.61,38.52 -28.04,57.72zm337.6 -56.1c-9.21,19.71 -19.06,39.11 -28.4,58.76l-0.12 0.26 -0.16 0.25c-0.34,0.54 -0.91,1.58 -0.65,2.26 0.31,0.81 1.55,1.52 2.29,1.85 1.82,0.83 4.03,1.13 6.01,1.07 4.56,-0.14 9.04,-2.13 11.13,-6.37 9.64,-19.57 18.87,-39.33 28.64,-58.83 1.14,-2.27 2.58,-6.24 0.54,-8.45 -1.95,-2.1 -5.77,-1.91 -8.26,-1.16 -5.07,1.52 -8.83,5.68 -11.02,10.36zm-266.41 67.26c-3.39,7.98 -10.57,13.49 -18.53,16.28 -11.13,4.12 -22.86,4.99 -34.58,5.94l-0.12 0.01c-21.95,1.25 -44.06,1.73 -65.92,-1.06l-0.14 -0.02 -0.14 -0.03c-6.41,-1.2 -12.72,-2.12 -17.32,-7.33l-0.98 -1.1 -0.21 -1.46c-0.54,-3.76 0.74,-6.76 2.2,-10.09l0.04 -0.09 0.04 -0.08c13.65,-27.99 27.32,-55.97 40.79,-84.04 5.92,-12.32 19.36,-15.17 31.48,-17.61l0.14 -0.03 0.14 -0.02c23.62,-3.37 47.58,-3.36 71.36,-2.16l0.09 0 0.08 0.01c11.36,0.96 22.74,1.36 32.61,7.89l3.54 2.33 -1.79 3.85c-13.82,29.81 -28.64,59.15 -42.78,88.81zm797.55 -143.77c-3.38,0 -6.75,0 -10.13,-0.02 -1.44,2.15 -2.85,4.32 -4.26,6.49 3.58,0.05 7.16,0.1 10.74,0.12l2.11 -3.64 1.54 -2.95zm19.49 4.18l-3.33 5.53c-1.57,2.61 -3.1,5.18 -5.19,7.42 -3.86,4.13 -8.59,5.97 -14.17,6.38 -4.86,0.36 -9.81,0.52 -14.69,0.57 -4.09,0.04 -8.28,0 -12.36,-0.33 -3.13,-0.25 -7.62,-0.64 -9.8,-3.15 -2.92,-3.35 -0.58,-8.3 1.11,-11.64 2,-3.94 4.51,-7.83 7.13,-11.38 3.72,-5.05 10.65,-13.56 17.38,-14.02 9.3,-0.63 18.6,-0.13 27.9,-0.29l0.35 0 0.34 0.04c1.08,0.13 2.28,0.13 3.38,0.21 3.29,0.24 6.98,0.98 8.5,4.35 0.9,1.98 0.61,4.14 -0.47,5.98l-6.01 10.33 -0.07 0zm53.52 14.07l1.47 -2.3c2.39,-3.72 4.81,-7.42 7.23,-11.13 -1.63,-2.79 -3.25,-5.58 -4.88,-8.37 -6.54,2.62 -13.14,5.11 -19.67,7.76 4.04,3.53 8.05,7.09 12.05,10.65l3.8 3.39zm-19.71 -29.89c1.26,-0.52 2.53,-1.05 3.79,-1.58 2.7,-1.39 5.57,-2.32 8.55,-2.89 8.82,-1.68 17.25,0.06 25.97,-0.59l3.21 -0.23 1.51 2.84c1.05,1.99 2.11,3.99 3.16,5.99 4.99,-2.61 9.8,-5.58 15.01,-7.8l0.46 -0.2 0.48 -0.1c5.1,-1.05 9.91,-0.4 15.02,-0.32l18.55 0.27 -16.23 8.97c-10.18,5.63 -20.71,10.63 -30.8,16.42 -3.3,3.21 -5.6,8.33 -8.16,12.13l-1.43 2.14 -2.57 0.04c-3.73,0.07 -7.46,0.09 -11.19,0.09l-9.01 0 0.05 -0.08 -3.72 0.01c-5.69,0.02 -11.32,0.39 -17,-0.18l-1.19 -0.11 -1 -0.65c-3.83,-2.49 -6.88,-5.63 -10.07,-8.68 -1.56,2.39 -3.11,4.8 -4.6,7.23l-1.4 2.3 -2.69 0.06c-3.76,0.08 -7.53,0.12 -11.29,0.17l-9.18 0.13 4.96 -7.72c6.49,-10.11 13.33,-19.99 19.62,-30.23l1.39 -2.26 2.65 -0.08c3.8,-0.12 7.6,-0.16 11.39,-0.16l8.98 0 -3.22 5.07zm52.01 95.76c10.05,4.64 21.12,6.56 31.15,11.56l0.11 0.05 0.11 0.07c8.41,4.74 9.12,15.81 4.42,23.4 -5.31,9.64 -9.68,19.74 -15.51,29.11l-0.23 0.36 -0.28 0.31c-10.62,11.9 -26.62,15.23 -41.7,17.42l-0.1 0.02 -0.11 0.01c-23.51,2.39 -47.29,0.54 -70.44,-3.97l-6.01 -1.18 2.43 -5.62c3.48,-8.03 7.75,-15.67 11.78,-23.43l2.09 -4.03 4.19 1.76c12.12,5.08 25.91,4.99 38.79,3.89 5,-0.79 13.07,-1.73 15.52,-6.81l0.09 -0.2 0.12 -0.18c0.72,-1.21 1.43,-2.45 2.03,-3.73 0.52,-1.13 1.3,-3.05 1.08,-4.33 -0.09,-0.51 -0.38,-0.88 -0.75,-1.21 -1.63,-1.04 -3.36,-1.94 -5.13,-2.72 -9.38,-4.14 -19.8,-5.42 -29.27,-9.77l-0.06 -0.03 -0.06 -0.03c-5.33,-2.64 -7.97,-8.91 -7.03,-14.64 1.11,-8.88 5.95,-15.73 10.49,-23.16 3.75,-6.14 6.57,-12.21 12.98,-15.93 26.19,-16.19 76.77,-12.65 106.39,-8.15l6.33 0.97 -2.56 5.87c-2.87,6.61 -5.72,13.23 -8.71,19.79l-1.88 4.13 -4.27 -1.54c-15.68,-5.62 -33.27,-4.98 -49.4,-1.75l-0.2 0.04 -0.2 0.02c-4.44,0.51 -6.66,6.98 -8.08,10.51l-0.11 0.25 -0.13 0.24c-0.41,0.77 1.48,2.28 2.12,2.63zm-814.65 50.28c15.89,-0.31 31.81,-0.05 47.66,-1.22 7.87,-1.06 15.46,-4.16 22.84,-6.98l12.75 -4.87 -6.69 11.89c-5.56,9.88 -10.82,19.92 -16.71,29.6l-1.39 2.28 -2.68 0.08c-41.3,1.26 -82.61,0.12 -123.92,0.09l-7.91 -0.01 3.49 -7.09c17.18,-35 34.86,-69.75 52.19,-104.67 1.03,-2.06 1.13,-5.07 1.35,-7.33l0.42 -4.51 4.53 0.05c16.27,0.17 32.53,0.7 48.8,0.7l7.49 0 -2.96 6.88c-12.36,28.7 -26.07,56.79 -39.26,85.11zm371.16 -35.87c5.09,-10.65 10.15,-21.32 15.2,-32 3.24,-6.86 7.33,-13.92 8.81,-21.43l0.77 -3.9 3.98 -0.07c16.35,-0.3 32.71,-0.07 49.06,0.39l7.61 0.22 -3.31 6.85c-18.36,38.04 -37.5,75.69 -55.87,113.72l-0.59 1.24 -3.27 2.13 -63.06 -0.05 -21.01 -71.15c-10.45,22.18 -20.65,44.48 -31.15,66.64l-1.34 2.82 -3.13 0c-10.82,-0.04 -21.64,0.51 -32.45,0.9l-8.39 0.3 3.82 -7.47c16.99,-33.29 32.67,-67.24 49.3,-100.71l0.04 -0.09 0.05 -0.09c1.79,-3.27 2.74,-6.91 2.98,-10.62l0.31 -4.74 4.75 0.14c18.51,0.53 37.04,0.39 55.53,1.34l3.4 0.17 1.04 3.23c5.65,17.41 11.15,34.86 16.92,52.23zm158.07 -30.03c-3.03,6.32 -6.14,12.6 -9.19,18.9 10.14,0.22 20.27,0.4 30.41,0.3l8.42 -0.09 -4.04 7.38c-3.49,6.38 -7.04,12.72 -10.64,19.03l-1.43 2.52 -2.9 -0.03c-11.23,-0.11 -22.45,0.07 -33.68,-0.1 -3.17,6.4 -6.26,12.84 -9.29,19.31 13.04,-0.36 26.09,0.21 39.14,-0.27 10.4,-0.38 20.65,-2.97 30.74,-5.35l11.34 -2.68 -5.98 10.01c-5.28,8.85 -11.06,17.38 -16.67,26.02l-1.45 2.25 -2.68 0c-40.43,0.03 -80.86,-0.22 -121.28,0.12l-9.35 0.08 5.21 -7.76c3.64,-5.41 6.47,-11.35 9.19,-17.26l0.04 -0.1c14.03,-28.74 27.94,-57.53 41.99,-86.26 1.38,-2.83 1.81,-6.41 2.36,-9.5l0.73 -4.09 4.16 0.03c40.74,0.24 81.48,-0.06 122.22,0.13l7.55 0.04 -3.07 6.9c-3.85,8.64 -7.75,17.27 -11.77,25.84l-2.23 4.76 -4.61 -2.54c-19.01,-10.46 -42.21,-7.92 -63.24,-7.59zm114.18 65.92c15.56,-0.34 31.14,-0.12 46.67,-1.11 8.18,-0.94 16.06,-4.09 23.69,-7.02l12.46 -4.79 -6.36 11.74c-5.46,10.07 -11.13,20.03 -16.77,29.99l-1.42 2.51 -2.89 -0.01c-41.22,-0.12 -82.45,0.12 -123.67,-0.6l-7.79 -0.13 3.46 -6.99c15.26,-30.74 30.67,-61.4 45.95,-92.01 2.83,-5.97 7.57,-12.85 7.71,-19.62l0.11 -4.98 4.98 0.16c16.24,0.51 32.49,0.77 48.75,0.85l7.53 0.04 -3.05 6.89c-12.65,28.57 -26.24,56.72 -39.36,85.08zm-516.23 -73.45c5.26,-11.95 18.07,-15.06 29.63,-17.51l0.12 -0.03 0.12 -0.02c23.48,-3.75 47.36,-3.66 71.05,-2.66l0.09 0.01 0.1 0.01c12.11,0.98 24.28,1.02 34.84,8.03l3.51 2.33 -1.76 3.83c-13.79,30.04 -28.79,59.5 -42.93,89.24 -5.2,11.65 -17.45,16.58 -29.18,18.91 -6.55,1.29 -13.46,1.99 -20.12,2.53 -8.39,0.68 -16.83,1.07 -25.24,1.25 -8.5,0.18 -17.05,0.15 -25.55,-0.22 -6.71,-0.3 -13.82,-0.76 -20.43,-2l-0.09 -0.01 -0.09 -0.02c-5.92,-1.34 -11.62,-2.03 -15.78,-7.09l-0.88 -1.08 -0.2 -1.37c-0.58,-4.13 0.8,-7.78 2.58,-11.41 13.49,-27.53 26.76,-55.17 40.21,-82.72zm375.54 -54.17c1.49,-2.27 2.98,-4.54 4.47,-6.81l-1.95 0.01c-3.31,0.02 -6.63,0.01 -9.95,0l-1.28 2.02c-1.02,1.6 -2.02,3.2 -3.03,4.8 1.23,0 2.46,0 3.68,0l8.06 -0.02zm-56.15 6.4c4.03,-6.13 8.07,-12.26 12.09,-18.4 -7.24,3.57 -14.8,6.39 -22.31,9.36 3.4,3.02 6.8,6.03 10.22,9.04zm11.75 10.33l0.21 0.18 -13.26 -0.12c-5.69,-0.05 -11.38,-0.05 -17.06,-0.05l-2 0 -1.43 -1.39c-2.91,-2.81 -5.88,-5.57 -8.89,-8.28 -1.58,2.44 -3.14,4.88 -4.7,7.33l-1.43 2.25 -2.66 0.04c-3.7,0.05 -7.4,0.05 -11.1,0.09l-9.15 0.08 4.96 -7.69c6.61,-10.24 13.26,-20.47 20.11,-30.55l1.48 -2.18 2.62 0.02c3.63,0.01 7.25,0.03 10.88,0.05l9.14 0.04 -3.25 4.89c3.37,-1.39 6.75,-2.77 10.18,-4.02l0.24 -0.08 0.24 -0.07c5.81,-1.46 11.8,-1.16 17.73,-1.01l6.71 0.17 1.03 0.01c13.62,0.1 27.24,0.02 40.86,0.05l8.32 0.02 0 0 2.65 -0.02c2.39,-0.02 4.78,-0.02 7.17,-0.03l2.11 -0.02 1.46 1.51c4.48,4.61 8.87,9.31 13.23,14.04 2.85,-4.3 5.65,-8.64 8.39,-13.01l1.38 -2.21 2.6 -0.1c3.44,-0.14 6.89,-0.11 10.33,-0.16l9.11 -0.13 -0.07 0.11 0.43 0c15.29,0 30.59,0 45.88,0l6.68 0 0.03 -0.06 2.67 0.03c3.65,0.03 7.29,0.05 10.94,0.08l9.2 0.09 -5.17 7.61c-3.54,5.22 -6.98,10.51 -10.44,15.79 3.72,0 7.44,0 11.16,0.02 4.72,-7.12 9.34,-14.3 14.1,-21.39l1.48 -2.2 2.64 0.01c3.62,0.02 7.24,0.02 10.87,0.02l9.07 0 -4.94 7.61c-5.19,8.01 -10.36,16.04 -15.59,23.9 -3.16,4.99 -8.54,8.47 -14.52,8.65 -9.1,0.28 -18.2,-0.01 -27.31,0.14l-0.16 0.01 -0.16 -0.01c-0.79,-0.04 -1.59,-0.03 -2.38,-0.04 -3.44,-0.06 -6.53,-0.68 -9.07,-3.2l-1.18 -1.18 -0.23 -1.64c-0.66,-4.76 1.66,-7.49 3.8,-11.25l0.09 -0.16 0.1 -0.16c1.34,-1.98 2.66,-3.97 3.97,-5.96l-0.2 0c-4.91,0 -9.82,0 -14.73,-0.01 -4.76,7.09 -9.34,14.3 -14.1,21.39l-1.48 2.19 -2.64 -0.01c-3.6,-0.02 -7.19,-0.02 -10.79,0l-9.04 0.04 4.86 -7.62c3.42,-5.37 6.97,-10.65 10.45,-15.98 -2.76,0 -5.51,0 -8.26,0l-6.69 0c-4.63,7.12 -9.35,14.19 -13.99,21.31l-1.46 2.23 -2.67 0c-2.5,0 -5,-0.02 -7.5,-0.02l-2.22 0 -1.47 -1.65c-4.15,-4.68 -8.42,-9.27 -12.61,-13.92 -2.87,4.46 -5.61,9 -8.93,13.18l-0.86 1.09 -1.31 0.48c-0.4,0.14 -0.81,0.27 -1.22,0.38 -2.21,0.58 -4.41,0.6 -6.67,0.53 -1.22,-0.04 -2.5,-0.12 -3.71,-0.03l-10.05 0.77 0.65 -0.99 -1.09 0.03c-10.79,0.24 -21.58,0.2 -32.37,0.14zm-205.62 -23.43l-2.04 -0.03c-3.36,-0.05 -6.72,-0.07 -10.08,-0.07l-1.06 1.83c-0.98,1.67 -1.97,3.34 -2.96,5.01 1.24,0.01 2.49,0.02 3.73,0.03l7.91 0.06c1.5,-2.28 3,-4.55 4.5,-6.83zm10.77 -16.72l0 -0.01 2.72 -0.01c11.96,-0.05 23.92,-0.22 35.88,0.02 1.21,0.02 2.48,0.25 3.63,0.62 4.25,1.39 7.01,5.23 5.26,9.68 -1.65,4.74 -4.56,8.53 -7.51,12.5 -2.28,3.07 -5.15,4.65 -8.32,5.53 1.09,1.17 2.17,2.34 3.25,3.51 6.57,-9.87 12.93,-19.89 19.53,-29.74l1.46 -2.19 2.64 0c2.43,0 4.87,-0.02 7.31,-0.02l2.16 0 1.47 1.6c4.28,4.67 8.62,9.29 12.99,13.88 2.84,-4.34 5.74,-8.65 8.45,-13.08l1.43 -2.35 2.75 -0.01c3.39,-0.02 6.78,-0.02 10.18,-0.02l9.02 0 -4.88 7.6c-6.52,10.15 -13.24,20.19 -19.77,30.34l-1.44 2.22 -2.64 0.04c-2.45,0.03 -4.9,0.05 -7.35,0.1l-2.16 0.05 -1.5 -1.57c-4.42,-4.61 -8.6,-9.44 -12.95,-14.12 -2.93,4.53 -5.86,9.06 -8.91,13.5l-1.48 2.17 -2.63 -0.03c-1.99,-0.02 -3.98,-0.03 -5.97,-0.04l0.02 0.01 -11.34 -0.04c-5.18,-0.01 -10.32,0.28 -15.49,-0.15l-1.78 -0.15 -1.28 -1.25c-2.79,-2.75 -4.81,-5.87 -6.95,-9.03 -0.78,-0.02 -1.56,-0.03 -2.33,-0.04 -1.85,2.85 -3.73,5.67 -5.63,8.49l-1.48 2.21 -2.66 -0.02c-3.57,-0.04 -7.14,-0.04 -10.72,-0.07l-7.64 -0.08 -0.04 0.06 -2.72 0.02c-13.82,0.08 -27.64,0 -41.46,0.05l-9.04 0.03 4.87 -7.62c3.42,-5.35 6.91,-10.65 10.4,-15.95l-0.01 0c-4.97,-0.02 -9.93,-0.01 -14.89,-0.05 -4.73,7.08 -9.38,14.21 -14,21.35l-1.47 2.27 -2.7 -0.01c-3.64,-0.02 -7.28,-0.04 -10.93,-0.04l-9.16 0 5.05 -7.65c3.49,-5.29 6.96,-10.59 10.44,-15.89 -2.76,-0.01 -5.51,-0.01 -8.26,-0.02l-6.68 -0.02c-0.94,0.68 -2,1.17 -3.14,1.5 0.3,2.24 -0.23,4.7 -1.59,6.79 -4.07,7.26 -8.77,14.78 -18.07,15.15 -9.72,0.39 -19.44,0.07 -29.17,0.16 -1.26,0.06 -2.58,-0.02 -3.83,-0.24 -2.75,-0.49 -5.11,-1.79 -6.5,-3.68l0.3 3.9 -5.32 0c-3.84,0 -7.67,0.02 -11.5,0.04l-4.47 0.02 -0.46 -4.45c-0.07,-0.67 -0.14,-1.34 -0.21,-2.01 -5.43,-0.03 -10.87,-0.24 -16.28,0.12 -2.65,1.52 -5.04,3.77 -7.8,5.3l-0.69 0.39 -0.79 0.15c-4.29,0.81 -8.34,0.37 -12.64,0.44l-15.4 0.27 0.36 -0.27c-10.24,0.04 -20.49,0.06 -30.74,-0.08l-9.04 -0.13 5 -7.53c6.7,-10.1 13.22,-20.32 20.02,-30.36l1.47 -2.17 2.63 0c13.58,0.04 27.17,0 40.76,0.04l9.15 0.02 -5.05 7.63c-1.5,2.27 -2.98,4.56 -4.47,6.84l-1.45 2.21 -2.63 0.02c-3.35,0.03 -6.7,0 -10.04,-0.03l-1.23 1.97c-1.01,1.63 -2.05,3.24 -3.07,4.86 1.22,0 2.45,0 3.68,0l7.75 0c9.54,-6.86 19.16,-13.61 28.67,-20.52 1.33,-1.13 2.86,-1.94 4.54,-2.45 4.02,-1.2 7.08,-0.31 10.97,-0.48l4.85 -0.21 0.29 4.85c0.48,8.09 1.45,16.15 2.22,24.23 0.52,-2.26 1.69,-4.25 3.6,-5.69 1.17,-0.88 2.37,-1.43 3.59,-1.77l1.44 -2.85c4.11,-8.08 8.19,-17.07 18.45,-18.34l0.15 -0.02 0.16 -0.01c9.9,-0.58 19.8,-0.28 29.7,-0.21 4.64,-0.34 8.97,2.71 9.8,6.81 1.01,-1.55 2.02,-3.1 3.03,-4.65l1.46 -2.24 2.68 0.01c15.27,0.04 30.54,-0.05 45.81,0.04l6.56 0.03 0.05 -0.08 2.69 0.01c13.65,0.04 27.29,-0.05 40.94,0.04l8.07 0.05z"/>
   <path class="fil1" d="M506.21 533.82c18.39,-3.56 37.05,-6.81 55.87,-6.25 26.46,0.68 63.6,25.65 80.62,44.21 6.77,7.52 13.2,16.15 14.56,26.45 2.15,16.39 -2.64,32.58 -3.1,48.93 156.85,-25.31 193.42,58.86 109.52,104.36 -38.64,20.63 -82.99,27.41 -126.25,29.5 7.65,19.53 -5.48,38.9 -17.38,53.52 6.46,12.94 15.39,27.55 31.09,29.7 -10.73,11.66 -28.02,12.67 -42.58,9.32 -8.21,12.07 -18.42,24.07 -20.08,39.14 -3.01,21.77 -11.64,43.4 -27.22,59.25 -7.21,7.42 -15.99,13.07 -25.31,17.47 -4.16,-7.18 -7.62,-14.83 -13.18,-21.08 -4.38,16.18 -13.42,30.73 -24.78,42.96 -3.01,-4.13 -6.12,-8.17 -9.31,-12.18 8.49,-11.66 16.3,-24.1 20.67,-37.95 -9.08,-3.24 -17.84,-7.38 -25.55,-13.24 -9.98,6.95 -20.25,13.48 -30.25,20.41 -2,-3.66 -3.73,-7.76 -7.24,-10.25 -5.23,-3.7 -11.71,-4.63 -17.84,-5.72 -18.12,-18.82 -40.82,-32.23 -63.51,-44.74 -2.51,-1.34 -5,-2.91 -6.38,-5.5 -10.1,-16.06 -18.73,-33.25 -23.48,-51.67 -5.12,-16.85 1.75,-33.98 4.61,-50.59 -5.89,-1.15 -11.83,-3.31 -14.91,-8.85 -8.51,14.69 -16.97,29.39 -25.46,44.08 -4.61,7.33 -1.63,16.44 1.64,23.66 9.91,20.07 26.11,36.11 42.65,50.82 -2.69,4.04 -5.38,8.08 -8.03,12.16 -21.13,-21.13 -39.46,-44.96 -54.8,-70.58 -6.69,43.59 13.36,90.61 37.01,126.79l1.59 2.46c-7.1,-0.08 -14.19,-0.56 -21.28,-0.91 -20.41,-32.02 -36.13,-79.83 -34.46,-118.23 -26.57,6.33 -54.98,4.98 -80.71,-4.18 12.69,-4.2 26.25,-7.01 37.41,-14.71 -33.03,1.73 -65.85,-4.81 -97.32,-14.33 25.99,-3.56 51.66,-9.86 76.17,-19.19 -17.37,0.99 -34.87,0.27 -51.99,-3.09 21.04,-8.3 43.12,-14.99 61.92,-27.97 -19.81,-7.93 -39.36,-19.93 -49.9,-39.14 -9.28,-16.3 -8.7,-37.22 0.53,-53.4 11.36,-20.37 31.65,-34.11 52.78,-42.91 38.87,-15.88 81.89,-18.23 123.33,-15.08 15.47,1.18 30.86,3.3 46.15,5.97 10.96,-18.86 21.61,-38.02 34.98,-55.31 8.29,-10.53 17.71,-20.84 30.19,-26.39 18.74,-8.54 38.93,-13.4 59.01,-17.72zm679.46 345.34c-9.35,19.62 -19.06,39.08 -28.39,58.72 -8.15,12.92 19.83,19.1 27.38,3.61 9.69,-19.5 19.02,-39.22 28.62,-58.79 9.97,-19.46 -17.79,-24.95 -27.61,-3.54zm-299.56 -11.92c-4.6,1.85 -7.92,5.84 -9.98,10.24 -9.35,19.24 -18.63,38.54 -28.06,57.75 -1.54,3.44 -3.85,7.75 -1.04,11.21 2.72,4.33 8.51,4.15 12.99,4.01 6.51,-0.16 12.43,-4.42 15.02,-10.34 9.31,-19.23 18.69,-38.44 27.97,-57.7 7.24,-14.77 -5.37,-19.66 -16.9,-15.17zm-24.8 -14.59c23.28,-3.32 46.96,-3.3 70.42,-2.12 10.3,0.87 21.36,1.18 30.3,7.09 -13.83,29.82 -28.66,59.19 -42.8,88.86 -2.83,6.72 -9.01,11.31 -15.75,13.68 -10.64,3.93 -22.06,4.74 -33.27,5.65 -21.64,1.23 -43.46,1.73 -65.01,-1.03 -5.09,-0.96 -10.92,-1.66 -14.54,-5.75 -0.37,-2.62 0.81,-5.07 1.84,-7.4 13.64,-27.99 27.2,-56.04 40.8,-84.06 4.93,-10.57 17.7,-12.85 28.01,-14.92zm423.49 -53.23c-1.32,2.13 -2.62,4.27 -3.91,6.39 6.3,-0.1 12.62,0.15 18.92,-0.07 3.77,0.39 5.07,-3.75 7.06,-6.08 -7.37,-0.44 -14.73,-0.29 -22.07,-0.24zm-6.66 -6.4c11.91,-0.05 23.85,-0.22 35.76,0.02 1.84,0.03 5.47,1.02 4.37,3.64 -1.44,4.2 -4.25,7.76 -6.85,11.29 -3.36,4.5 -9.45,4.46 -14.5,4.86 3.32,3.44 6.54,6.98 9.79,10.49 -5.03,-0.01 -10.08,0.28 -15.1,-0.13 -3.1,-3.05 -5.29,-6.87 -7.79,-10.39 -2.55,-0.07 -5.1,-0.11 -7.62,-0.13 -2.31,3.6 -4.67,7.16 -7.05,10.71 -3.58,-0.04 -7.16,-0.04 -10.72,-0.07 6.51,-10.14 13.3,-20.09 19.71,-30.29zm-210.49 17c4.28,0.03 8.58,0.05 12.88,0.07 -0.16,-3.15 -0.28,-6.28 -0.35,-9.42 -4.19,3.1 -8.37,6.22 -12.53,9.35zm9.78 -15.12c3.49,-3.11 8.4,-1.67 12.65,-1.86 0.6,10.12 1.97,20.18 2.74,30.3 -3.85,0 -7.69,0.02 -11.52,0.04 -0.23,-2.16 -0.45,-4.3 -0.66,-6.46 -7.37,0.16 -14.79,-0.36 -22.15,0.22 -3.15,1.6 -5.7,4.13 -8.78,5.84 -3.89,0.74 -7.9,0.29 -11.82,0.36 13.05,-9.65 26.4,-18.9 39.54,-28.44zm-166.11 -11.19c21.19,-0.95 42.42,-0.59 63.64,-0.59 -8.98,11.83 -18.84,22.98 -28.05,34.64 -23.9,-11.33 -51.43,-11.92 -77.03,-7.11 -16.28,3.15 -32.49,8.36 -46.15,18 -22.33,15.51 -41.27,35.73 -56.18,58.42 -13.15,20.2 -22.65,44 -20.99,68.46 0.94,12.47 6.28,26.13 18.32,31.68 20.39,10.01 43.59,11.88 65.92,13.32 49.65,1.95 99.32,1.56 148.98,2.57 48.56,0.27 97.1,1.33 145.64,1.54 -81.13,16.78 -297.32,13.34 -390.49,14.82 -20.4,0.12 -41.7,-2.39 -59.63,-12.84 -29.31,-16.98 -25.32,-49.6 -14.43,-76.89 19.21,-46.81 52.9,-88.82 98.17,-112.54 46.59,-24.91 100.25,-31.31 152.28,-33.48zm100.94 9.22c13.6,0.04 27.17,0 40.77,0.04 -1.51,2.28 -3,4.59 -4.49,6.86 -9.86,0.09 -19.72,-0.34 -29.55,0.16 -0.85,0.99 -2.6,2.96 -3.46,3.94 5.86,0.2 11.73,0.13 17.6,0.17 -1.44,2.31 -2.91,4.59 -4.36,6.9 -5.91,-0.11 -11.83,-0.14 -17.74,0.1 -1.11,1.81 -2.19,3.61 -3.29,5.41 10.05,-0.05 20.12,-0.02 30.19,-0.02 -1.46,2.26 -2.9,4.54 -4.33,6.82 -13.79,0.03 -27.55,0.13 -41.33,-0.05 6.69,-10.09 13.2,-20.29 19.99,-30.33zm97.99 15.98c3.2,-6.3 6.64,-14.69 14.65,-15.68 9.85,-0.59 19.74,-0.28 29.61,-0.21 2.68,-0.29 6.06,1.93 4.31,4.93 -1.06,5.46 -8.71,4.09 -12.36,2.05 -7.06,-0.37 -14.11,-0.15 -21.16,-0.23 -0.69,1.43 -1.37,2.89 -2.02,4.33 8.69,0.24 17.48,-0.65 26.14,0.48 3.37,0.07 3.25,3.7 1.78,5.82 -3.1,5.55 -6.86,12.5 -14.06,12.8 -9.7,0.36 -19.43,0.07 -29.12,0.16 -2.69,0.15 -8.01,-0.64 -6.13,-4.54 0.77,-6.18 7.74,-4.74 12.19,-5.05l-0.79 2.88c8.02,-0.26 16.03,-0.16 24.06,-0.14 1.1,-1.71 2.21,-3.42 3.32,-5.15 -8.03,-0.09 -16.04,0.15 -24.05,-0.04 -2.45,0.26 -4.47,-1.16 -6.37,-2.41zm61.02 -15.96c15.27,0.04 30.52,-0.05 45.8,0.04 -1.44,2.27 -2.88,4.55 -4.32,6.83 -5.84,-0.02 -11.68,0 -17.51,-0.07 -5.26,7.82 -10.41,15.72 -15.53,23.63 -3.67,-0.02 -7.33,-0.04 -10.96,-0.04 5.15,-7.81 10.27,-15.65 15.41,-23.47 -5.79,-0.09 -11.56,-0.07 -17.33,-0.09 1.46,-2.27 2.95,-4.55 4.44,-6.83zm55.11 0c13.63,0.04 27.27,-0.05 40.92,0.04 -1.56,2.29 -3.08,4.6 -4.64,6.88 -9.91,-0.14 -19.81,-0.04 -29.71,-0.09 -0.71,1.08 -2.14,3.24 -2.85,4.3 5.68,-0.02 11.38,-0.02 17.08,0 -1.35,2.33 -2.72,4.62 -4.09,6.93 -5.74,-0.08 -11.47,-0.06 -17.21,-0.17 -1.33,1.87 -2.65,3.74 -3.95,5.62 10.08,0.08 20.17,-0.02 30.25,0.07 -1.44,2.26 -2.82,4.52 -4.23,6.78 -13.81,0.08 -27.63,0 -41.45,0.05 6.52,-10.21 13.31,-20.24 19.88,-30.41zm107.56 0c2.41,0 4.84,-0.02 7.31,-0.02 5.71,6.24 11.52,12.37 17.37,18.48 3.89,-6.18 8.09,-12.19 11.9,-18.44 3.38,-0.02 6.77,-0.02 10.16,-0.02 -6.53,10.15 -13.24,20.19 -19.78,30.34 -2.48,0.03 -4.93,0.05 -7.38,0.1 -5.85,-6.11 -11.3,-12.6 -17.26,-18.61 -4.07,6.22 -8.03,12.5 -12.22,18.61 -3.36,-0.03 -6.71,-0.05 -10.05,-0.07 6.73,-10.08 13.2,-20.3 19.95,-30.37zm73.94 30.43c6.59,-10.23 13.22,-20.41 20.05,-30.46 3.61,0.01 7.24,0.03 10.87,0.05 -2.31,3.47 -4.62,6.93 -6.9,10.43 8.34,-3.02 16.37,-6.78 24.69,-9.82 5.22,-1.31 11.07,-1 16.39,-0.86 -10.59,5.91 -22.72,9.85 -33.89,14.58 6.03,5.39 12.07,10.75 18.15,16.09 -5.72,-0.05 -11.42,-0.05 -17.1,-0.05 -4.33,-4.19 -8.8,-8.27 -13.32,-12.22 -2.66,4.04 -5.28,8.09 -7.86,12.17 -3.72,0.05 -7.4,0.05 -11.08,0.09zm53.01 -0.11c6.64,-10.12 13.32,-20.22 19.93,-30.37 13.63,0.1 27.25,0.02 40.88,0.05 -1.52,2.28 -3.04,4.57 -4.55,6.85 -10.07,0.05 -20.15,-0.14 -30.22,0.14 -0.75,1.4 -1.51,2.81 -2.23,4.19 5.69,-0.07 11.37,-0.08 17.07,-0.02 -1.45,2.3 -2.89,4.59 -4.34,6.89 -5.76,-0.09 -11.53,-0.07 -17.26,-0.11 -1.3,1.87 -2.57,3.74 -3.82,5.6 10.08,0 20.17,0 30.25,-0.01 -1.38,2.24 -2.74,4.46 -4.09,6.71 -13.87,0.31 -27.75,0.15 -41.62,0.08zm71.82 -30.32c2.38,-0.02 4.76,-0.02 7.18,-0.03 5.9,6.08 11.64,12.31 17.37,18.54 4.1,-6.04 8.08,-12.16 11.95,-18.34 3.41,-0.13 6.77,-0.1 10.22,-0.15 -6.48,10.24 -13.19,20.22 -19.82,30.37 -2.52,0 -5.02,-0.02 -7.5,-0.02 -5.57,-6.26 -11.33,-12.36 -16.83,-18.67 -4.25,5.94 -7.72,12.43 -12.26,18.14 -3.2,1.17 -6.93,0.35 -10.29,0.6 6.7,-10.12 13.34,-20.29 19.98,-30.44zm51.71 6.85c1.44,-2.29 2.92,-4.57 4.4,-6.85 15.29,0 30.58,0 45.88,0 -1.52,2.28 -3.04,4.57 -4.55,6.85 -5.79,0 -11.58,0 -17.35,-0.02 -5.29,7.79 -10.32,15.75 -15.58,23.58 -3.63,-0.02 -7.24,-0.02 -10.83,0 5.03,-7.89 10.34,-15.62 15.3,-23.56 -5.77,0 -11.52,0 -17.27,0zm59.61 -6.88c3.63,0.03 7.28,0.05 10.94,0.08 -5.27,7.78 -10.32,15.69 -15.53,23.49 7.66,0 15.31,-0.01 22.96,0.04 5.24,-7.84 10.31,-15.77 15.57,-23.6 3.61,0.02 7.24,0.02 10.89,0.02 -5.19,8 -10.34,16.01 -15.62,23.94 -2.29,3.61 -6.18,6.25 -10.51,6.37 -9.09,0.29 -18.17,-0.02 -27.24,0.13 -2.81,-0.13 -6.04,0.35 -8.22,-1.81 -0.43,-3.08 1.78,-5.63 3.2,-8.13 4.59,-6.82 9.01,-13.72 13.56,-20.53zm63.15 0.29c9.19,-0.62 18.42,-0.12 27.65,-0.28 2.63,0.33 9.68,-0.14 7.75,3.17l-4.61 7.92c-3.69,0.05 -7.11,-0.01 -10.79,0.04 0.77,-1.47 1.98,-2.84 2.82,-4.28 -7.18,0.02 -14.31,0.04 -21.47,-0.01 -3.65,5.36 -7.12,10.85 -10.67,16.28 7.18,0.01 15.41,0.21 22.6,0.21l2.6 -4.49c3.63,0.02 6.47,0.07 10.15,0.12 -3.42,5.69 -6.29,10.75 -15.5,11.43 -9.22,0.69 -30.68,1.18 -32.77,-1.23 -2.1,-2.41 14.03,-28.31 22.24,-28.88zm50.4 -0.11c3.72,-0.11 7.47,-0.15 11.23,-0.15 -2.24,3.53 -4.52,7.04 -6.78,10.55 6.15,-2.47 12.3,-4.95 18.42,-7.52 10.12,-5.32 21.87,-2.22 32.79,-3.03 1.8,3.39 3.6,6.8 5.38,10.22 6.52,-2.96 12.5,-7 19.09,-9.81 4.55,-0.94 9.29,-0.29 13.95,-0.22 -10.37,5.73 -21.11,10.82 -31.36,16.74 -4.05,3.69 -6.29,8.89 -9.3,13.38 -3.72,0.06 -7.41,0.08 -11.1,0.08 2.93,-4.57 5.91,-9.09 8.87,-13.64 -2.86,-4.9 -5.72,-9.8 -8.56,-14.69 -10.3,4.24 -20.82,8.01 -31.02,12.48 6.08,5.17 12.05,10.47 18.01,15.78 -5.5,0.02 -11.02,0.4 -16.49,-0.15 -5.1,-3.31 -9,-8.17 -13.69,-12.02 -2.69,4.01 -5.35,8.03 -7.86,12.14 -3.77,0.08 -7.52,0.12 -11.25,0.17 6.51,-10.14 13.37,-20.05 19.67,-30.31zm32.29 66.93c25.06,-15.49 75.38,-11.67 103.05,-7.46 -2.86,6.57 -5.7,13.16 -8.68,19.7 -16.55,-5.94 -34.99,-5.36 -52.03,-1.95 -6.98,0.81 -9.79,7.88 -12.08,13.56 -2.01,3.72 0.99,7.74 4.27,9.4 10.06,4.66 21.2,6.59 31.13,11.54 5.93,3.34 5.87,11.4 2.59,16.61 -5.29,9.59 -9.66,19.7 -15.45,29 -9.69,10.86 -24.96,13.82 -38.72,15.82 -23.03,2.35 -46.33,0.51 -69,-3.9 3.42,-7.91 7.65,-15.46 11.62,-23.12 13,5.45 27.5,5.43 41.3,4.25 7.07,-1.13 15.89,-2.36 19.36,-9.57 2.79,-4.69 6.49,-11.42 1.05,-15.77 -10.6,-6.92 -23.87,-7.76 -35.26,-12.99 -3.42,-1.7 -4.96,-5.88 -4.33,-9.51 0.96,-7.97 5.77,-14.62 9.81,-21.3 3.2,-5.16 5.89,-11.12 11.37,-14.31zm-792.06 -8.66c16.29,0.17 32.57,0.7 48.85,0.7 -13.37,31.06 -28.37,61.47 -42.55,92.2 18.67,-0.65 37.38,-0.07 55.99,-1.46 8.35,-1.09 16.25,-4.28 24.09,-7.27 -5.53,9.82 -10.77,19.82 -16.63,29.44 -41.17,1.25 -82.52,0.12 -123.77,0.09 17.18,-34.98 34.86,-69.72 52.19,-104.64 1.41,-2.81 1.54,-6 1.83,-9.06zm308.25 -0.15c18.48,0.53 36.97,0.39 55.42,1.33 6.9,21.28 13.6,42.63 20.81,63.79 6.88,-14.29 13.59,-28.67 20.45,-42.97 3.4,-7.38 7.61,-14.5 9.2,-22.58 16.28,-0.29 32.56,-0.07 48.83,0.39 -18.35,38.03 -37.5,75.69 -55.87,113.72l-0.89 0.58 -57.9 -0.05 -23.63 -79.99c-12.41,26.01 -24.33,52.25 -36.67,78.29 -10.89,-0.03 -21.78,0.52 -32.65,0.91 17,-33.3 32.68,-67.27 49.32,-100.76 2.14,-3.9 3.29,-8.23 3.58,-12.66zm187.43 10.2c1.61,-3.39 2.14,-7.14 2.79,-10.8 40.73,0.24 81.48,-0.06 122.23,0.13 -3.84,8.61 -7.73,17.21 -11.73,25.75 -21.11,-11.62 -45.72,-8.25 -68.74,-8.16 -4.54,9.55 -9.3,19 -13.82,28.55 12.74,0.28 25.46,0.6 38.21,0.47 -3.47,6.35 -7.02,12.67 -10.59,18.95 -12.26,-0.12 -24.5,0.1 -36.75,-0.16 -4.91,9.78 -9.58,19.68 -14.17,29.59 15.71,-1.01 31.48,-0.05 47.22,-0.63 10.77,-0.4 21.25,-3.02 31.69,-5.48 -5.26,8.8 -10.99,17.27 -16.57,25.87 -40.44,0.03 -80.88,-0.22 -121.32,0.12 3.78,-5.63 6.72,-11.78 9.57,-17.95 14.02,-28.72 27.89,-57.54 41.98,-86.25zm147.82 -10.2c16.28,0.51 32.58,0.77 48.88,0.85 -13.71,30.97 -28.54,61.47 -42.66,92.25 18.3,-0.7 36.64,-0.19 54.92,-1.37 8.7,-0.98 16.9,-4.21 25.02,-7.33 -5.45,10.05 -11.1,19.96 -16.73,29.91 -41.21,-0.12 -82.41,0.12 -123.6,-0.6 15.25,-30.73 30.66,-61.39 45.99,-92.09 3.3,-6.97 8.01,-13.61 8.18,-21.62zm-471.55 1.79c23.11,-3.7 46.71,-3.59 70.06,-2.6 11.01,0.89 22.94,0.87 32.51,7.23 -13.78,30.01 -28.78,59.46 -42.95,89.28 -4.47,10.02 -15.64,14.08 -25.63,16.08 -20.25,3.98 -69.38,5.33 -89.48,1.56 -4.54,-1.03 -9.91,-1.58 -13.06,-5.41 -0.43,-3.05 0.85,-5.89 2.12,-8.56 13.54,-27.55 26.79,-55.24 40.25,-82.82 4.42,-10.15 16.42,-12.69 26.18,-14.76zm-737.9 160.75c3.57,-4.16 6.62,-8.76 10.63,-12.53 -1.39,12.82 -3.91,25.49 -5.55,38.3 10.56,-4.26 20.46,-10.03 29.42,-17.1 2.58,3.78 5.06,7.65 7.44,11.57 -17.27,12.94 -35.9,24.71 -56.67,31.13 4.4,-14.01 7.38,-28.37 9.78,-42.84 0.25,-3.49 2.87,-5.98 4.95,-8.53zm-80.22 -107.71c25.67,14.45 52.46,28.32 73.01,49.89 5.32,3.52 12.77,2.11 18.08,6.01 4.74,2.78 5.41,8.65 6.18,13.55 27.24,12.89 49.89,36.76 58.42,66 -3.96,6.4 -8.14,12.74 -13.05,18.46 -1.37,-0.64 -2.26,-1.72 -2.71,-3.24 -11.23,-25.32 -28.55,-47.7 -48.57,-66.7 -23.79,41.16 -69.3,68.74 -113.82,82.04 -14.13,-8.61 -27.7,-18.1 -41.47,-27.27 42.94,-4.02 109.54,-11.98 131.89,-54.95 -31.95,18.87 -69.19,26.15 -105.81,28.46 -18.85,0.99 -38.1,1.15 -56.57,-3.03 -9.42,-12.02 -17.63,-25.02 -26.45,-37.51 44.82,5.46 138.38,17.65 180.28,-4.33 -20.4,-21.46 -48.31,-33.43 -76.31,-41.45 5.5,-8.74 11.06,-17.43 16.9,-25.93zm65.16 -158.78c-8.65,15.07 -7.16,33.35 -5.57,49.99 -20.05,-6.38 -41.71,-19.14 -46.45,-41.31 -9.72,-0.92 -11.93,9.9 -13.49,17.12 -3.53,-1.18 -7.86,-2.31 -9.11,-6.35 -2.5,-5.91 2.26,-11.3 5.12,-16.02 -5.49,0.1 -11.79,1.06 -14.94,6.16 -6.79,10.85 0.53,27.29 13.42,28.93 5.97,1.7 11.26,-2.07 15.99,-5.13 -4.88,15.56 -8.65,31.6 -9.81,47.92 -1.49,15.39 7.5,29.16 16.35,40.9 23.27,28.92 59.36,44.81 95.42,50.35 -6.34,-21.04 -6.22,-44.08 0.75,-64.95 4.81,4.6 10.31,8.44 16.4,11.14 2.77,-5.56 5.63,-11.07 8.75,-16.45 -14.47,-0.6 -29.35,-2.69 -42.12,-9.95 -8.87,-4.79 -15.89,-13.03 -18.03,-22.99 15.41,2.02 31.15,2.5 46.5,-0.17 13.43,-2.47 26.75,-5.52 40.17,-7.89 11.33,-5.6 23.95,-6.99 36.33,-8.46 -1.56,3.06 -4.21,6.01 -3.82,9.69 2.5,4.77 8.46,5.1 13.12,6.16 7.29,0.86 14.57,3.34 21.96,2.47 5.79,-1.78 5.42,-8.92 5.43,-13.77 -0.6,-12.12 -0.67,-24.53 3.58,-36.09 -6.15,-4.13 -13.46,-5.58 -20.77,-5.24 0.43,0.98 1.3,2.91 1.75,3.89 -10.31,2.57 -20.74,4.6 -31.33,5.42 0.75,-2.65 1.55,-5.3 2.31,-7.96 -4.64,4.28 -10.24,8.34 -16.93,7.09 -6.84,0.12 -13.08,-3.17 -17.96,-7.72 -5.36,-5.05 -10.14,-10.97 -16.83,-14.31 -6.06,-3.19 -13.03,-3.34 -19.68,-4.15 6.56,-3.46 13.39,-6.33 20.22,-9.17 -10.9,-3.75 -22.15,-6.49 -33.28,-9.51 -15.73,2.37 -34.29,5.76 -43.45,20.36z"/>
   <path class="fil2" d="M458.29 566.27c28.51,-7.66 57.27,-14.8 86.58,-18.58 37.72,-3.94 75.71,19.19 90.86,53.68 1.77,8.42 0.02,17.15 -0.29,25.66 -2.6,29.83 -5.54,59.68 -10.03,89.27 -19.26,4.14 -40.68,5.39 -58.98,-3.08 -30.55,-18.25 -62.1,-34.93 -94.78,-49.07 -21.8,-9.37 -44.09,-18.03 -67.38,-22.84 11.82,-20.75 22.36,-42.43 37.04,-61.38 4.62,-5.58 9.48,-11.98 16.98,-13.66zm-15.2 431.47c9.72,6.06 16.31,15.82 23.27,24.69 -8.96,7.07 -18.86,12.84 -29.42,17.1 1.64,-12.81 4.16,-25.48 5.55,-38.3 0.17,-1.18 0.37,-2.35 0.6,-3.49zm10.46 -29.4c10,-6.93 20.27,-13.46 30.25,-20.41 7.71,5.86 16.47,10 25.55,13.24 -4.37,13.85 -12.18,26.29 -20.67,37.95 -10.24,-11.45 -22.96,-20.13 -35.85,-28.28 0.17,-0.63 0.53,-1.88 0.72,-2.5zm33.93 -89.88c4.69,-10.11 8.94,-20.69 16.51,-29.04 -0.29,8.46 -2.04,20.56 7.55,24.74 15.44,5.25 32.36,-2.57 47.83,3.28 -9.62,1.94 -19.63,2.61 -28.62,6.96 9.71,0.1 21.88,0.44 27.56,9.74 4.57,9.33 0.36,19.91 -3.39,28.78 -1.23,1.78 -1.38,5.27 -4.09,5.31 -5.14,-10.52 -13.1,-19.51 -23.1,-25.65 4.08,7.69 8.43,15.37 10.26,23.95 2.86,11.28 1.64,23.03 -0.17,34.36 -14.19,-22.24 -45.3,-22.94 -60.44,-44.14 -9.42,-13.11 -8.66,-30.3 -6.15,-45.49 4.88,3.51 10.47,5.72 16.25,7.2zm-186.77 69.63c-14.69,-29.8 -25.05,-63.44 -19.91,-96.93 15.34,25.62 33.67,49.45 54.8,70.58 -2.93,4.41 -5.8,8.85 -8.58,13.35 26.66,7.82 54.53,17.05 74.67,37.12 -26.32,8.99 -54.65,9.02 -82.15,8.29 -0.43,-0.64 -1.3,-1.92 -1.73,-2.55 -6.33,-9.58 -11.97,-19.61 -17.1,-29.86zm220.24 -100.18c21.37,-2.52 43.41,-0.72 63.73,6.54 -1.37,2.98 -2.77,5.94 -4.18,8.92 -11.32,-0.46 -22.68,-0.46 -33.95,0.92 -8.61,0.5 -18.1,1.67 -25.99,-2.53 -5.15,-3.37 -1.69,-9.69 0.39,-13.85zm-13.62 -28.54c9.51,-1.66 19.24,-1.17 28.86,-1.11 7.19,0.42 14.61,0.58 21.39,3.3 -4.98,0.58 -24.22,0.76 -25.99,5.67 9.55,-4.1 34.57,2.79 43.28,8.44 -8.94,-0.52 -17.59,-3.39 -26.57,-3.37 -26.28,-0.96 -52.45,7.8 -78.64,2.48 -8.85,-2.07 -18.27,-4.3 -25.25,-10.5 21.11,3.24 42.15,-1.64 62.92,-4.91zm5.47 -66.89c5.45,-1.18 10.11,2.6 14.81,4.67 -0.68,0.86 -2.05,2.57 -2.73,3.43 3.44,1.5 6.88,3.04 10.25,4.7 -3.77,0.65 -7.58,0.76 -11.37,1.05 1.1,1.45 3.31,4.36 4.4,5.82 -6.83,0.12 -13.08,-3.17 -17.96,-7.72 0.26,-4.01 -1.2,-9.16 2.6,-11.95zm-19.57 -9.69c13.15,-4.16 28.43,-8.91 41.37,-1.6 9.84,6.1 18.05,14.45 27.65,20.91 -14.24,-3.39 -26.91,-10.86 -40.35,-16.28 -9.13,-3.6 -19.06,-3.19 -28.67,-3.03zm-158.81 -27.11c36.93,-14.19 78.36,-13.93 116.25,-3.8 -14.14,3.14 -28.95,2.23 -43.01,6.08 -6.42,1.66 -13.32,3.65 -17.63,9.06 12.74,-2.74 25.8,-7.25 38.93,-4.2 -8.87,1.73 -18.18,5.19 -23.28,13.19 -8.53,12.77 -6.99,29.07 -4.3,43.43 -13.94,-3.51 -21.33,-17.31 -28.88,-28.3 -5.57,-9.53 -17.09,-14.84 -27.96,-13.08 -18.15,2.43 -33.9,12.94 -48.1,23.87 8.22,-2.86 16.63,-5.16 24.9,-7.84 -2.64,8.83 -2.59,18.06 -2.11,27.17 -9.05,18.85 -22,35.92 -37.44,50.03 -13.78,12.37 -31.49,21.64 -50.42,21.26 18.95,-7.29 35.87,-19.74 48.59,-35.56 -29.33,12.26 -62.07,11.59 -93.19,9.59 15.15,-3.38 30.33,-7.07 44.56,-13.46 10.34,-4.66 20.55,-10.46 27.94,-19.28 -19.92,6.29 -41.87,9.86 -62.32,4.11 24.33,-7.74 49.62,-16.44 68.13,-34.87 19.95,-19.81 42.75,-37.53 69.34,-47.4zm316.64 -49.77c17.33,-3.99 35.18,-4.36 52.87,-4.83 20.17,0.3 40.8,1.63 59.85,8.74 9.95,3.88 20.84,10.75 22.71,22.13 1.64,11.56 -5.69,21.9 -13.44,29.64 -17.35,16.42 -40.03,26.09 -63.04,31.47 -40.26,9.19 -85.22,3.44 -119.13,-21.11 15.94,2.21 33.14,2.89 47.97,-4.37 3.6,-2.27 8.66,-5.03 8.46,-9.93 0.46,-17.29 2.1,-34.53 3.75,-51.74zm-436.49 -4.93c31.66,-15.56 67.85,-17.21 102.51,-16.55 69.52,-0.91 138.03,21.41 196.6,58.22 33.06,21.3 67.18,41.18 103.17,57.14 -45.7,-10.26 -88.89,-29.01 -131.88,-47.15 -41.57,-16.71 -87.72,-24.98 -132.18,-16.49 -45.05,8.13 -86.29,33.3 -115.57,68.31 -17.65,-3.08 -36.28,-7.46 -49.92,-19.86 -10.36,-9.23 -14.68,-24.11 -11.73,-37.58 4,-20.82 20.41,-37.12 39,-46.04zm287.96 -84.53l0 0c-1.73,13.98 -8.94,27.72 -21.55,34.71 -15.53,9.3 -34.23,8.01 -51.59,8.06 16.52,6.37 35.13,7.31 52.22,2.67 10.2,-2.96 20.9,-8.68 25.08,-19.03 3.48,-8.91 0.07,-18.43 -4.16,-26.41z"/>
  </g>
 </g>
</svg>
