<?xml version="1.0" encoding="UTF-8"?>
<!DOCTYPE svg PUBLIC "-//W3C//DTD SVG 1.1//EN" "http://www.w3.org/Graphics/SVG/1.1/DTD/svg11.dtd">
<!-- Creator: CorelDRAW -->
<svg xmlns="http://www.w3.org/2000/svg" xml:space="preserve" width="2000px" height="1600px" version="1.1" style="shape-rendering:geometricPrecision; text-rendering:geometricPrecision; image-rendering:optimizeQuality; fill-rule:evenodd; clip-rule:evenodd"
viewBox="0 0 2000 1600"
 xmlns:xlink="http://www.w3.org/1999/xlink">
 <defs>
  <style type="text/css">
   <![CDATA[
    .fil2 {fill:#133594;fill-rule:nonzero}
    .fil3 {fill:#3A7BC9;fill-rule:nonzero}
    .fil0 {fill:#BBBBBB;fill-rule:nonzero}
    .fil1 {fill:#FEFEFE;fill-rule:nonzero}
   ]]>
  </style>
 </defs>
 <g id="Capa_x0020_1">
  <metadata id="CorelCorpID_0Corel-Layer"/>
  <g id="Eastern_x0020_Illinois_x0020_Panthers.cdr">
   <path class="fil0" d="M859.11 282.44l19.21 0c25.88,3.59 47.95,19.92 64.63,39.29 41.48,-3.86 83.24,-3.35 124.79,-0.7 5.65,0.73 9.99,-3.5 14.76,-5.78 25.45,-12.66 58.42,-7.79 79,11.88 3.82,3.47 7.08,8.34 12.7,8.82 50.48,10.05 100.06,24.41 148.39,42.12 56.25,20.86 111.21,45.82 162.18,77.62 -3.09,39.96 -10.21,79.54 -20.77,118.22 -17.5,64.85 -42.45,127.77 -75.13,186.48 -6.22,8.88 1.75,19.25 -0.32,28.96 -2.42,13.3 -10.28,25.09 -19.4,34.82 -3.51,3.17 -3.13,8.18 -3.88,12.47 -2.13,19.42 -9.03,38.26 -19.83,54.55 -9.18,13.73 -21.47,26.09 -37.08,32.21 -5.3,1.33 -6.44,7.08 -8.18,11.45 -5.23,15.26 -11.1,30.29 -16.47,45.5 -1.36,3.15 -2.23,7.13 -5.73,8.59 -32.26,16.65 -70.54,29.25 -106.55,17.55 -49.79,35.27 -104.21,63.66 -160.84,86.21 -54.76,-21.27 -107.25,-48.59 -155.47,-82.21 -50.13,-34.77 -95.59,-76.19 -135.29,-122.49 -73.56,-85.87 -126.76,-188.4 -158.38,-296.75 -13.04,-44.23 -22.22,-89.66 -25.6,-135.71 81.32,-49.96 171.33,-84.44 263.29,-109.09 1.42,-9.84 3.77,-19.69 8.82,-28.34 10.79,-18.65 30.14,-31.44 51.15,-35.67z"/>
   <path class="fil1" d="M957.75 384.76c50.94,-1.99 103.03,8.75 147.37,34.41 28.05,17.66 55.44,36.55 80.39,58.43 27.75,23.92 57.18,45.78 84.96,69.67 10.51,9.12 21.54,18.97 26.11,32.58 -2.81,11.81 -15.2,17.31 -26.14,18.91 -19.69,2.73 -40.3,0.76 -58.69,-7.07 -32.46,-12.77 -62.91,-29.95 -92.78,-47.82 -11.66,-7.24 -22.23,-16.03 -33.13,-24.33 6.92,13.66 16.99,28.51 13.09,44.5 14.51,6.36 22.96,21.45 25.33,36.58 2.83,15.6 3.89,31.87 10.86,46.35 5.62,12.33 14.2,23.18 24.53,31.89 2.72,-5.16 6.03,-9.96 9.89,-14.33 28.79,15.19 55.08,35.98 74.15,62.55 13.8,18.98 22.73,41.21 26.62,64.33 10.96,11.1 24.05,20.08 38.06,26.93 -3.3,17.34 -9.16,34.93 -20.95,48.43 -4.02,4.98 -10.58,6.49 -16.48,7.95 -30.54,5.81 -62.65,8.73 -92.88,-0.27 -18.39,-5.39 -36.14,-14.67 -49.14,-28.97 23.23,10.46 50.05,14.89 74.75,6.97 -22.62,-7.1 -48.2,-12.4 -64.51,-31.04 18.73,5.41 39.45,9.64 58.16,1.75 -26.09,-6.33 -52.82,-13.88 -74.41,-30.56 -14.73,-11.01 -26.02,-27.19 -29.28,-45.49 -2.67,-13.11 -0.52,-26.61 3.29,-39.27 0.14,-0.47 0.41,-1.41 0.54,-1.87 -0.54,-0.18 -1.61,-0.52 -2.16,-0.7 -27.41,-8.62 -54.3,-20.95 -75.41,-40.87 -43.93,-40.57 -58.46,-107.99 -39.45,-164.04 9.13,-4.6 18.94,-7.57 28.9,-9.72 -29.93,-16.31 -65.55,-20.55 -98.96,-15.03 24.8,-13.88 53.88,-21.15 82.28,-17.63 12.31,1.51 24.07,5.71 35.22,11.01 -24.39,-27.21 -49.04,-54.33 -70.13,-84.23zm250.46 528.02c15.33,-2.54 30.71,-4.87 46.11,-7.04 -6.47,3.43 -12.89,6.97 -19.36,10.42 -1.55,15.31 -5.23,32.1 -16.97,42.97 -14.14,3.34 -29.08,1.62 -42.87,-2.54 -6.7,-16.47 -14.65,-32.43 -23.45,-47.87 7.71,3.51 15.47,7.85 24.17,8.13 10.92,0.2 21.64,-2.31 32.37,-4.07zm62.65 -271.18c0.24,-8.04 10.53,-13.84 17.33,-9.05 8.52,6.06 12.84,16.08 17.43,25.15 6.99,14.07 11.2,29.27 17.66,43.57 3.77,10.39 6.1,21.26 8.73,31.96 3.26,14.21 6.46,28.53 6.92,43.17 -12.86,4.21 -26.87,4.8 -40.02,1.56 -4.11,-0.88 -7.56,-3.36 -10.81,-5.87 1.67,-0.48 5.03,-1.42 6.72,-1.88 -0.41,-2.88 -0.8,-5.75 -1.06,-8.63 -2.98,-32.88 -12.24,-64.74 -19.78,-96.77 -1.59,-7.65 -3.59,-15.35 -3.12,-23.21zm-112.97 -43.09c5.37,3.16 10.76,6.31 16.15,9.48 -2.42,2.97 -5.92,4.32 -9.55,5.01 1.07,4.07 2.1,8.77 6.12,11.01 5.15,3.79 11.99,2.26 16.88,-1.17 -4.7,8.94 -14.14,14.63 -24.33,13.83 -5.2,-12 -7.97,-25.14 -5.27,-38.16zm-415.63 -157.8c22.92,-8.2 46.49,-15.93 71.05,-16.63 18.91,-0.55 37.3,5.53 54.12,13.71 -19.58,3.6 -37.9,14.57 -48.91,31.33 -9.25,13.67 -15.31,29.63 -16.95,46.08 -1.83,14.9 -3.09,29.88 -3.89,44.87 -0.95,14.82 -7.47,28.83 -17.13,39.98 -22.59,-11.52 -38.22,-33.17 -47.29,-56.34 -2.79,-7.15 -4.75,-14.59 -7.37,-21.79 -10.13,32.92 -6.04,68.69 4.97,100.85 7.52,22.65 18.74,43.86 31.44,64.01 -20.27,-10.44 -37.01,-26.65 -50.83,-44.59 -36.03,-47.45 -52.36,-106.61 -60.38,-164.82 29.81,-13.61 60.18,-25.99 91.17,-36.66z"/>
   <path class="fil2" d="M1605.5 1184.97c8.93,-11.54 23.66,-18.71 38.33,-17.71 10.65,0.28 21.32,-0.32 31.98,0.25 14.51,2.34 28.35,11.59 34.43,25.25 3.15,6.72 3.95,14.25 3.83,21.61 -0.18,20.77 0.05,41.55 -0.11,62.32 0.03,19.67 -15.56,36.32 -34.13,40.87l-48.77 0c-17.86,-4.55 -33.04,-20.18 -33.81,-39.11 -0.36,-21.91 0.02,-43.82 -0.16,-65.73 -0.23,-9.84 2.35,-19.89 8.41,-27.75zm203.63 -6.08c9.98,-9.34 24.37,-11.08 37.44,-11.51 16.59,-0.18 33.19,0 49.78,-0.07 0,10.19 0,20.4 -0.02,30.59 -21.2,-0.02 -42.38,0 -63.58,0 0.92,8.43 -3.43,21.63 6.83,25.63 16.18,5.91 34.36,6.81 49.12,16.38 7.46,4.86 10.66,13.8 10.91,22.36 0.6,13.41 1.56,28.22 -6.23,39.91 -6.3,9.69 -17.95,13.6 -28.79,15.38l-62.5 0c0,-9.92 -0.02,-19.83 0.01,-29.73 21.19,0.01 42.39,0 63.57,0 -0.07,-6.64 0.45,-13.33 -0.43,-19.92 -0.41,-4.66 -5.06,-7.06 -8.96,-8.43 -15.44,-5.32 -32.9,-5.68 -46.67,-15.23 -8.86,-6.26 -10.46,-17.91 -10.97,-27.94 -0.66,-13 0.57,-27.85 10.49,-37.42zm-69.29 -11.58c11.4,0 22.8,0 34.22,0.02 0,50.07 0,100.15 0,150.23l-34.22 0c0,-50.08 0,-100.16 0,-150.25zm-292.54 0c14,0 27.99,0 42.01,0 16.33,34.36 32.69,68.71 49.14,103 -0.05,-34.33 0,-68.66 -0.02,-102.98 10.96,-0.02 21.91,-0.02 32.87,0 0,50.07 0,100.15 0,150.23l-42.76 0c-15.93,-32.42 -32.3,-64.65 -48.3,-97.04 -0.16,32.34 -0.04,64.69 -0.07,97.04l-32.85 0c-0.02,-50.08 0,-100.16 -0.02,-150.25zm-64.44 150.25c-0.03,-50.08 -0.02,-100.18 0,-150.27 11.37,0.04 22.75,0.02 34.13,0.02 0,50.09 -0.02,100.17 0,150.25l-34.13 0zm-109.01 -150.25c11.4,0 22.8,0 34.22,0.02 0,40.16 0,80.34 0,120.5 12.86,-0.02 25.72,0.05 38.6,-0.04 7.16,9.78 13.78,19.97 20.97,29.77l-93.79 0c0,-50.08 0,-100.16 0,-150.25zm-108.92 0.02c11.4,-0.02 22.81,-0.02 34.22,-0.02 0,40.18 -0.01,80.36 0,120.52 12.92,0 25.83,0.01 38.76,-0.02 7.01,9.89 13.66,20.04 20.91,29.75l-93.89 0c0,-50.08 0,-100.16 0,-150.23zm-64.45 -0.02c11.38,0 22.75,0.02 34.13,-0.02 0.03,50.09 0,100.19 0.02,150.27l-34.13 0c-0.02,-50.08 0,-100.16 -0.02,-150.25zm-214.78 0.02c14,-0.04 28.01,0.02 42.03,-0.06 16.45,34.21 32.78,68.46 49.01,102.75 0.22,-34.24 0.02,-68.47 0.09,-102.71 10.96,0 21.91,0 32.87,0 0,50.09 -0.02,100.17 0,150.25l-42.45 0c-16.67,-32.24 -32.18,-65.07 -48.68,-97.41 -0.02,32.48 0,64.94 0,97.41l-32.87 0c0,-50.08 0,-100.16 0,-150.23zm-263.23 0c31.71,-0.02 63.41,-0.02 95.12,0 0,10.19 0,20.38 0,30.57 -20.29,-0.02 -40.61,0 -60.9,0 0,9.96 -0.02,19.92 0.02,29.9 18.66,-0.02 37.31,0 55.97,-0.02 0,10.05 0,20.1 0,30.17 -18.68,0 -37.33,-0.02 -55.99,0 0,9.96 0,19.92 0,29.88 20.31,0 40.61,0 60.9,0 0,9.9 0,19.81 0,29.73l-95.12 0c0,-50.08 0,-100.16 0,-150.23zm-132.47 30.57c0.02,-10.21 0,-20.4 0.02,-30.61 38.36,0.06 76.73,0 115.09,0.02 0,10.19 0,20.4 -0.02,30.59 -13.48,-0.02 -26.98,0 -40.46,0 0,39.88 0,79.77 0,119.66l-34.22 0c0,-39.89 0,-79.78 0,-119.66 -13.48,0 -26.94,-0.02 -40.41,0zm-105.68 -17.52c9.52,-10.26 24.33,-12.43 37.64,-12.96 17,-0.27 34.02,-0.02 51.06,-0.11 -0.04,10.19 -0.04,20.4 -0.02,30.61 -21.16,-0.04 -42.35,-0.02 -63.51,-0.02 0.9,8.45 -3.56,21.74 6.81,25.7 16.26,5.91 34.61,6.72 49.34,16.58 7.96,5.1 10.45,14.99 10.72,23.9 0.5,12.67 1.1,26.54 -6.08,37.64 -6.28,10.13 -18.44,14.3 -29.67,15.84l-61.8 0c0,-9.9 0,-19.83 0,-29.73 21.2,0 42.4,0 63.6,0.01 -0.98,-8.85 3.45,-21.93 -6.3,-27.05 -16.11,-6.81 -35.02,-6.22 -49.74,-16.47 -7.87,-5.48 -10.32,-15.58 -10.89,-24.61 -0.89,-13.45 -0.57,-28.67 8.84,-39.33zm-263.4 -13.05c31.71,-0.02 63.4,-0.02 95.11,0 0,10.17 0,20.36 0,30.57 -20.29,0 -40.58,-0.02 -60.9,0 0,9.96 -0.01,19.92 0.02,29.9 18.66,-0.02 37.32,0 55.97,-0.02 0,10.05 0,20.1 0,30.17 -18.65,-0.02 -37.31,0 -55.97,-0.02 -0.03,9.96 -0.02,19.94 -0.02,29.9 20.32,0 40.61,0 60.9,0 0,9.9 0,19.81 0,29.73l-95.11 0c0.01,-17.18 -0.08,-34.36 0.07,-51.54 -0.16,-3.49 0.48,-7.38 -1.89,-10.28 -6.24,-9.25 -12.95,-18.18 -19.1,-27.5l0 -0.46c6.97,0 13.94,0 20.92,0 0,-20.15 0,-40.3 0,-60.45zm708.7 -841.74c11.19,-15.94 32.01,-24.67 51.17,-19.94 21.95,5.3 39.16,21.77 52.02,39.61 43.35,-5.21 87.15,-4.88 130.66,-2.16 -2.39,9.34 -8.13,17.18 -15.03,23.71 10.99,0.04 22.05,-5.71 27.72,-15.22 3.94,-6.01 8.04,-12.4 14.66,-15.76 14.09,-7.17 31.59,-7.08 45.55,0.43 8.38,4.19 14.73,11.33 19.97,18.92 70.31,12.9 138.96,34.27 204.8,62.04 34.35,14.6 68.07,30.82 99.98,50.22 -2.95,37.16 -11.15,73.65 -21.02,109.51 -19.09,67.37 -46.25,132.68 -82.41,192.71 7.62,2.27 9.4,10.94 8.49,17.87 -3.68,11.12 -11.01,21.13 -20.86,27.53 -1.71,17.63 -3.44,35.77 -11.6,51.81 -8.06,16.15 -20.17,32.46 -38.36,37.51 -0.68,-4.71 -1.04,-9.44 -1.12,-14.19 -11.03,25.58 -20.35,51.81 -29.87,77.96 -1.14,4.74 -6.56,5.56 -10.24,7.57 -22.96,9.82 -49.2,17.79 -73.95,10 -10.44,-3.13 -21.33,-4.23 -32.18,-4.56 -4.85,-6.06 -10.19,-11.7 -15.51,-17.34 4.96,10.91 9.71,21.95 12.86,33.55 -42.26,28.49 -87.7,52.11 -134.89,71.25 -60.73,-24.21 -118.31,-56.54 -170.06,-96.54 -97.41,-74.85 -173.16,-176.28 -221.97,-288.72 -23.97,-55.22 -42.33,-113.03 -53.23,-172.29 -2.74,-14.4 -4.41,-28.99 -5.78,-43.57 48.22,-29.03 100.13,-51.4 152.89,-70.77 29.82,-10.9 60.31,-19.96 90.95,-28.3 6.99,7.88 9.16,18.55 9.71,28.76 8.58,-7.95 7.6,-20.54 7.9,-31.21 -0.36,-13.81 0.36,-28.8 8.75,-40.39zm31.3 -1.32c18.77,7.66 31.29,24.99 38.39,43.38 -5.47,-1.46 -11.09,-2.3 -16.74,-2.33 13.44,10.65 21.59,26.16 27.71,41.85 8.23,20.65 30.66,33.28 52.48,32.49 -28.13,-17.11 -43.04,-48.27 -54.88,-77.7 -8.06,-19.16 -25.2,-36.54 -46.96,-37.69zm96.83 60.49c21.09,29.9 45.74,57.02 70.13,84.23 -11.15,-5.3 -22.91,-9.5 -35.22,-11.01 -28.4,-3.52 -57.48,3.75 -82.28,17.63 33.41,-5.52 69.03,-1.28 98.96,15.03 -9.96,2.15 -19.77,5.12 -28.9,9.72 -10.4,5.59 -18.9,14.5 -23.47,25.46 -9.4,22.39 -9.93,47.89 -3.83,71.21 7.88,30.22 22.57,59.78 47.13,79.88 26.31,21.48 61.44,30.73 95.03,28.36 0.55,0.18 1.62,0.52 2.16,0.7 -0.13,0.46 -0.4,1.4 -0.54,1.87 -11.17,8.92 -17.75,22.88 -19.69,36.88 -2.61,20.55 5.96,40.5 17.06,57.29 -19.09,-3.66 -34.04,-17.98 -43.35,-34.42 3.17,21.33 14.82,41.2 31.7,54.57 7.86,6.64 17.09,11.19 26.22,15.76 -8.42,1.32 -16.94,0.39 -25.38,0.12 26.53,28.16 63.86,43.13 101.21,50.39 29.24,3.42 59.43,-1.62 86.25,-13.71 5.9,-1.46 12.46,-2.97 16.48,-7.95 11.79,-13.5 17.65,-31.09 20.95,-48.43 -14.01,-6.85 -27.1,-15.83 -38.06,-26.93 -1.97,-20.63 -6.68,-41.07 -14.83,-60.13 -9.52,-23.11 -25.45,-43.69 -46.72,-57.06 7.56,-0.05 15.1,0.64 22.51,2.1 -7.31,-10.74 -15.17,-21.27 -25.02,-29.85 -13.43,3.08 -26.36,8.84 -36.71,18.06 -3.86,4.37 -7.17,9.17 -9.89,14.33 -10.33,-8.71 -18.91,-19.56 -24.53,-31.89 -6.97,-14.48 -8.03,-30.75 -10.86,-46.35 -2.37,-15.13 -10.82,-30.22 -25.33,-36.58 3.9,-15.99 -6.17,-30.84 -13.09,-44.5 10.9,8.3 21.47,17.09 33.13,24.33 17.52,13.68 35.75,26.66 55.28,37.37 27.52,14.87 56.63,29.18 88.47,30.82 -4.77,6.4 -6.05,14.62 -5.78,22.41 0.73,14.1 4.96,27.75 10.01,40.85 10.8,28.14 19.83,56.93 26.81,86.26 0.26,2.88 0.65,5.75 1.06,8.63 -1.69,0.46 -5.05,1.4 -6.72,1.88 3.25,2.51 6.7,4.99 10.81,5.87 13.15,3.24 27.16,2.65 40.02,-1.56 -0.46,-14.64 -3.66,-28.96 -6.92,-43.17 -2.63,-10.7 -4.96,-21.57 -8.73,-31.96 -0.23,-1.49 -0.68,-4.52 -0.91,-6.01 -8.23,-31 -19.44,-61.13 -32.15,-90.55 4.5,-7.43 7.68,-16.06 6.36,-24.86 -4.57,-13.61 -15.6,-23.46 -26.11,-32.58 -27.78,-23.89 -57.21,-45.75 -84.96,-69.67 -24.95,-21.88 -52.34,-40.77 -80.39,-58.43 -44.34,-25.66 -96.43,-36.4 -147.37,-34.41zm-215.49 55.95c-30.99,10.67 -61.36,23.05 -91.17,36.66 -12.33,5.64 -24.64,11.38 -36.5,17.98 11.21,47.58 25.31,94.65 45.37,139.3 24.07,53.8 64.55,99.88 114.12,131.61 42.75,27.53 93.12,44.13 144.22,43.65 -12.09,-13.5 -19.1,-30.97 -21.15,-48.86 -2.9,-21.47 2.33,-43.33 11.99,-62.5 -12.18,5.18 -23.67,12.88 -31.18,23.99 -12.79,18.16 -14.99,41.64 -11.63,63.09 -23.32,-14.89 -43.75,-35.77 -53.48,-62.07 -9.14,-22.54 -6.05,-47.79 -14.23,-70.56 -6.26,-16.84 -21.91,-27.25 -35.45,-37.9 6.39,-4.29 12.28,-9.28 17.38,-15.05 9.66,-11.15 16.18,-25.16 17.13,-39.98 0.8,-14.99 2.06,-29.97 3.89,-44.87 1.64,-16.45 7.7,-32.41 16.95,-46.08 11.01,-16.76 29.33,-27.73 48.91,-31.33 -16.82,-8.18 -35.21,-14.26 -54.12,-13.71 -24.56,0.7 -48.13,8.43 -71.05,16.63zm407.02 152.76c0.7,15.14 3.86,31.32 13.88,43.2 10.19,0.8 19.63,-4.89 24.33,-13.83 -4.89,3.43 -11.73,4.96 -16.88,1.17 -4.02,-2.24 -5.05,-6.94 -6.12,-11.01 3.63,-0.69 7.13,-2.04 9.55,-5.01 -5.39,-3.17 -10.78,-6.32 -16.15,-9.48 -2.86,-1.71 -5.73,-3.4 -8.61,-5.04zm-83.13 275.27c30.43,22.66 62.09,44.36 87.74,72.62 5.97,6.42 12.96,12.06 21.23,15.23 13.79,4.16 28.73,5.88 42.87,2.54 11.74,-10.87 15.42,-27.66 16.97,-42.97 6.47,-3.45 12.89,-6.99 19.36,-10.42 -15.4,2.17 -30.78,4.5 -46.11,7.04 -10.73,1.76 -21.45,4.27 -32.37,4.07 -8.7,-0.28 -16.46,-4.62 -24.17,-8.13 -27.38,-15.54 -56.46,-27.94 -85.52,-39.98zm-791.64 298.55c15.21,0.07 30.42,-0.05 45.62,0.09 15.28,50.07 30.54,100.17 46.01,150.18l-35.66 0c-2.98,-9.41 -5.31,-18.97 -8.04,-28.45 -7.66,0 -15.33,0 -23.01,0 -6.44,-9.38 -13,-18.66 -19.48,-28.02 -5.21,18.82 -10.17,37.71 -15.58,56.47l-35.73 0c15.49,-50.03 30.58,-100.18 45.87,-150.27zm22.8 30.98c-5.69,20.64 -11.4,41.28 -17.07,61.94 11.29,0.03 22.57,-0.02 33.86,0.05 -5.49,-20.71 -11.34,-41.3 -16.79,-61.99zm446.1 -30.94c21.52,0.02 43.04,-0.09 64.55,0.03 12.66,0.48 26.5,1.84 36.62,10.3 9.53,8.06 12.16,21.29 11.77,33.21 -0.55,13.55 2.07,28.04 -4.51,40.58 -3.39,7.24 -10.09,11.97 -16.99,15.55 12.15,16.74 23.74,33.86 35.94,50.56l-40.85 0c-17.68,-24.68 -34.79,-49.8 -52.24,-74.66 -0.16,24.88 -0.03,49.78 -0.07,74.66l-34.22 0c0,-50.08 0,-100.16 0,-150.23zm34.22 30.57c0,14.69 0,29.4 0,44.11 11.24,-0.32 22.59,0.8 33.76,-0.84 4.87,-0.55 9.41,-4.14 10.16,-9.16 0.99,-7.59 0.67,-15.33 0.32,-22.97 -0.24,-6.39 -6.27,-10.68 -12.28,-10.85 -10.63,-0.73 -21.3,-0.09 -31.96,-0.29zm866.56 -0.78c-7.65,1.87 -13.31,9.16 -12.83,17.11 0.02,19.67 -0.17,39.36 0.11,59.03 0.04,7.22 5.58,13.55 12.43,15.35 8.22,2.2 17.25,2.2 25.33,-0.68 6.74,-2.5 10.87,-9.6 10.6,-16.66 0.07,-18.96 0.07,-37.9 0,-56.86 0.09,-6.12 -2.72,-12.49 -8.34,-15.35 -8.31,-4.32 -18.43,-4.22 -27.3,-1.94z"/>
   <path class="fil3" d="M1191.01 439.86c-6.58,-8.79 -12.44,-18.3 -16.37,-28.58 80.22,18.26 158.39,46.19 231.4,84.16 -12.05,63.85 -31.29,126.63 -59.48,185.27 -6.87,-17.91 -12.91,-36.16 -17.31,-54.83 -2.36,-10.49 -4.71,-21.47 -1.93,-32.12 3.32,-13.72 -0.47,-28.26 -8.63,-39.56 -16.15,-22.87 -39.71,-38.79 -61.82,-55.35 -23.52,-17.77 -47.1,-36.07 -65.86,-58.99zm-286.21 442.03c27.62,-12.31 56.88,-20.46 86.55,-26.06 28.49,18.25 55.97,38.04 82.91,58.5 15.67,12.2 31.43,24.34 45.82,38.06 -34.56,23.58 -71.41,43.82 -109.81,60.45 -24.56,-10.53 -48.29,-22.89 -71.45,-36.19 -5.94,-3.11 -7.96,-9.98 -11.15,-15.41 -12.64,-24.59 -21.84,-51.52 -22.87,-79.35z"/>
  </g>
 </g>
</svg>
