<?xml version="1.0" encoding="UTF-8"?>
<!DOCTYPE svg PUBLIC "-//W3C//DTD SVG 1.1//EN" "http://www.w3.org/Graphics/SVG/1.1/DTD/svg11.dtd">
<!-- Creator: CorelDRAW -->
<svg xmlns="http://www.w3.org/2000/svg" xml:space="preserve" width="2000px" height="1600px" version="1.1" style="shape-rendering:geometricPrecision; text-rendering:geometricPrecision; image-rendering:optimizeQuality; fill-rule:evenodd; clip-rule:evenodd"
viewBox="0 0 2000 1600"
 xmlns:xlink="http://www.w3.org/1999/xlink">
 <defs>
  <style type="text/css">
   <![CDATA[
    .fil1 {fill:black;fill-rule:nonzero}
    .fil2 {fill:#C4122F;fill-rule:nonzero}
    .fil0 {fill:#FEFEFE;fill-rule:nonzero}
   ]]>
  </style>
 </defs>
 <g id="Capa_x0020_1">
  <metadata id="CorelCorpID_0Corel-Layer"/>
  <g id="Eastern_x0020_Washington_x0020_Eagles.cdr">
   <path class="fil0" d="M458.78 1069.73c13.81,-7.03 29.53,-9.26 44.88,-8.8 -11.26,10.42 -22.43,20.95 -33.71,31.35 -3.32,3.23 -7.73,4.73 -11.94,6.37 -12.92,4.89 -25.71,10.08 -38.63,14.92 7.12,-18.81 21.2,-35.08 39.4,-43.84z"/>
   <path class="fil1" d="M545.27 1016.91c69.61,-16.7 143.57,-9.12 210.41,15.38 86.62,31.67 162.92,86.88 228.3,151.21 9.4,9.78 18.86,19.54 27.76,29.8 -39.34,25.59 -89.02,34.53 -134.86,24.59 -9.8,-40.08 -21.81,-80.87 -46,-114.9 -11.8,-16.08 -28.32,-31.85 -49.32,-32.97 -18.6,0.94 -33.64,13.93 -45.81,26.9 -21.63,23.74 -37.42,52.07 -51.53,80.75 -17.29,-1.5 -34.73,-1.25 -51.96,-3.41 -18.74,-25.89 -49.29,-41.68 -80.66,-45.63 -43.25,-5.85 -86.86,5.3 -126.67,21.63 1.93,20.88 5.51,41.59 7.69,62.45 -42.97,-21.77 -66.29,-70.94 -64.92,-117.89 1.95,-3.78 6.07,-5.89 9.07,-8.8 48.64,-41.56 105.78,-74.62 168.5,-89.11zm-138.54 380.61c17.06,-11.55 38.65,-14.76 58.79,-11.85 29.84,4.03 57.6,17.27 83.07,32.83 7.44,4.27 13.93,10.21 21.75,13.85 16.49,6.19 30.23,17.52 44.75,27.18 -0.52,16.98 -3.53,35.79 -17.02,47.55 -7.48,8.48 -19.17,10.15 -29.71,11.92 -0.68,-0.8 -2.07,-2.39 -2.75,-3.19 8.1,-4.61 18.54,-10.03 19.11,-20.61 -1,-10.73 -9.99,-18.19 -17.88,-24.43 -8.83,-7.28 -20.61,-10.46 -27.94,-19.56 -13.19,-14.2 -30.09,-28.57 -50.64,-27.98 -16.42,0.29 -29.09,12.96 -37.14,26.16 -15.68,-2.55 -35.33,-3.69 -46.59,9.76 -11.67,16.49 -4.55,37.78 1.41,55.07 -11.58,-2.7 -23.16,-8.53 -29.14,-19.29 -7.83,-14.26 -9.26,-31.69 -5.83,-47.41 6.96,-19.47 18.4,-38.17 35.76,-50zm296.26 -165.7c30.89,-3.19 61.74,4.73 91.18,13.44 -2.81,37.09 25.94,62.5 56.48,77.8 -5.3,16.93 -13.31,34.01 -27.43,45.34 -12.49,10.29 -31.12,12.65 -45.7,5.6 8.03,-6.83 16.33,-13.42 23.54,-21.13 1.82,-13.84 -9.51,-25.14 -19.45,-33.17 -16.95,-12.22 -36.74,-20.27 -56.89,-25.44 -11.56,0.48 -23.87,5.85 -29.94,16.16 -11.79,20.49 2.05,50.83 11.21,69.52 -17.29,-6.96 -34.78,-16.4 -45.47,-32.19 -9.51,-14.45 -7.71,-33.76 0.82,-48.21 4.8,-9.55 12.65,-16.99 19.2,-25.18 0.18,-16.74 9.14,-32.71 22.45,-42.54zm-171.91 145.09c43.52,-45.91 76.43,-100.94 101.98,-158.56 14.47,1.8 28.96,3.62 43.45,5.44 -20.86,33.34 -64.63,110.07 -33.1,147.98 8.31,10.24 20.98,15.2 33.37,18.45 -19.9,13.53 -39.76,27.14 -59.69,40.65 -22.29,-25.55 -50.41,-51.73 -86.01,-53.96zm232.74 -259.45c21.29,-6.8 44.34,4.6 56.44,22.41 21.84,31.03 28.69,69.56 33.49,106.44 -44.75,-34.42 -104.56,-44.54 -159.45,-35.42 14.26,-23.84 28.85,-47.57 45.82,-69.61 7,-8.69 13.96,-18.02 23.7,-23.82zm739.79 -298.3c17.42,30.27 67.53,29.36 97.44,26.84 -1.1,14.19 -12.33,25.64 -25.76,29.23 -24.5,7.01 -50.48,1.66 -74.5,-4.82 1.46,-17.06 2.12,-34.17 2.82,-51.25zm8.37 -91.16c53.81,29.69 118.48,30.51 177.83,21.36 -21.06,15.9 -42.7,31.33 -61.53,49.89 -5.76,6.57 -16.2,13.58 -12.88,23.57 -19.65,-0.76 -107.51,-0.8 -106.3,-33.15 1.04,-20.56 1.54,-41.13 2.88,-61.67zm163.87 -89.88c31.55,-11.69 60.42,-30.37 83.42,-54.98 -0.05,25.98 -13.45,49.77 -29.87,69.06 -19.77,23.16 -44.84,41.11 -70.87,56.58 -8.82,5.87 -19.67,6.5 -29.73,8.69 -29.26,5.57 -83.82,9.19 -109.29,-10.81 1.71,-15.08 1.85,-30.28 3.08,-45.38 51.84,1.25 104.55,-4.64 153.26,-23.16zm83.3 -174.37c3.14,-5.05 5.14,-10.96 9.76,-14.95l0 3.12c-2.64,2.82 -4.78,6.07 -6.14,9.69 -8.1,19.66 -16.45,39.31 -21.91,59.9 -3.18,12.72 -7.01,26.75 -0.79,39.2 -10.31,23.47 -33.33,37.85 -55.7,48.34 -48.18,21.59 -101.39,27.68 -153.53,31.41 -0.5,-18.1 -0.13,-36.24 -0.2,-54.37 78.01,-12.5 185.91,-49.95 228.51,-122.34zm-1149.93 -82.9c10.12,-16.19 24.11,-31.46 43.11,-36.74 -5.46,3.55 -11.54,6.9 -14.33,13.13 -8.53,16.88 -9.67,36.26 -10.97,54.78 -0.25,18.93 -0.48,37.88 1.23,56.74 -16.33,-3.28 -32.51,-7.19 -48.8,-10.58 6.15,-26.98 15.25,-53.65 29.76,-77.33zm-61.65 -36.58c16.27,-24.63 38.97,-44.86 65.02,-58.71 -28.22,41.2 -71.12,116.76 -43.23,167.16 -17.19,-0.73 -34.37,-2.07 -51.57,-2.51 -1.07,-37.21 9.44,-74.73 29.78,-105.94zm1192.06 -136.51c14.77,10.64 22.93,29.18 21.3,47.27 -1.87,24.25 -16.11,45.18 -31.19,63.4 17.49,28.16 29.12,62.4 21.9,95.68 -4.27,20.27 -17.74,36.9 -33.23,49.98 -42.66,54.21 -107.69,91.43 -176.99,95.93 0.07,-27.07 -0.11,-54.14 0.09,-81.21 33.13,-16.13 63.59,-37.42 91.25,-61.67 61.95,-54.77 103.15,-125.79 106.87,-209.38zm-1281.53 69.72c18.13,-39.83 51.73,-72.52 92.75,-88.19 -15.82,25.07 -53.16,83.9 -46.23,115.33 6.51,2.69 12.95,5.46 19.31,8.42 -11.07,26.93 -20.47,54.64 -27,83.03 -3.46,15.9 -6.12,32.51 -2.82,48.66 -18.88,-0.95 -37.76,-2.07 -56.67,-2.52 -6.94,-55.28 -2.8,-113.57 20.66,-164.73zm1090.81 -149.59c28.11,-1.89 57.57,-0.53 83.58,11.35 14.26,6.62 26.95,18.36 31.39,33.83 5.62,17.83 1.7,36.89 -3.89,54.21 17.9,15.81 26.98,40.78 23.45,64.4 -3.57,25.91 -18.33,48.73 -35.51,67.79 -6.41,6.57 -7.57,16.22 -12.76,23.61 -17.52,30.33 -51.46,48.03 -85.69,51.01 -0.28,-20.71 0.06,-41.38 -0.19,-62.06 29.08,-27.17 51.51,-63.09 57.08,-102.96 4.48,-31.67 -3.5,-64.18 -19.41,-91.66 -10.16,-18.29 -23.77,-34.35 -38.05,-49.52zm-1297.01 79.82c23.48,-42.2 63.54,-72.43 106.13,-93.61 -13.56,24.34 -27.64,50.21 -51.14,66.36 -6.55,33.74 -9.53,68.18 -11.33,102.51 -0.71,35.28 -1.05,71.4 9.6,105.46 3.59,11.94 9.78,22.95 17.9,32.42 -18.17,-1.53 -36.42,-1.78 -54.6,-3.12 -20.81,-34.26 -34.28,-73.23 -37.37,-113.29l0 -27.71c2.32,-24.07 8.92,-47.86 20.81,-69.02zm208.91 -127.71l1.61 0c-19.13,33.37 -35.74,68.84 -44.09,106.58 -4.36,20.84 -5.61,45.09 8.83,62.47 -11.24,28.91 -20.31,58.71 -25.93,89.24 -5.6,32.58 -8.65,68.27 7.32,98.55 -20.77,-1.28 -41.56,-1.91 -62.35,-2.89 -10.81,-47.32 -15.15,-96.27 -11.49,-144.73 6.79,-89.73 43.5,-168.02 126.1,-209.22zm-2.03 989.73c-18.2,8.76 -32.28,25.03 -39.4,43.84 12.92,-4.84 25.71,-10.03 38.63,-14.92 4.21,-1.64 8.62,-3.14 11.94,-6.37 11.28,-10.4 22.45,-20.93 33.71,-31.35 -15.35,-0.46 -31.07,1.77 -44.88,8.8z"/>
   <path class="fil2" d="M1377.29 532.38c48.43,-33.23 91.93,-72.91 134.99,-112.65 -16.04,118.5 -31.76,237.07 -42.52,356.18 -3.39,40.17 -6.84,80.44 -6.23,120.8 0.11,9.21 1.16,18.42 3.23,27.43 -23.29,15.83 -45.04,34.1 -63.33,55.58 -8.47,9.69 -14.47,21.36 -23.91,30.25 -18.31,18.38 -37.65,38.15 -63.24,45.66 -23.13,-57.99 -78.08,-110.75 -127.92,-146.98 5.78,47.89 12.4,95.75 23.14,142.82 3.98,16.19 7.82,32.85 16.83,47.11 -36.88,26.91 -74.66,52.8 -114.84,74.57 -19.99,10.19 -40.38,21.09 -62.87,24.41 -29.92,-34.21 -63.47,-65.2 -98.78,-93.79 -42.54,-33.49 -89.06,-64.59 -142.23,-77.9 51.83,-48.66 104.01,-96.97 156.04,-145.43 14.66,44.4 41.52,112.69 76.21,145.3 9.46,8.96 22.09,15.24 35.42,13.76 0.07,-16.83 -3.3,-33.46 -6.37,-49.93 -11.67,-56.6 -32.4,-111.24 -60.26,-161.84 51.9,-90.52 139.15,-200.11 230.9,-252.26 2.27,46.69 8.02,180.49 25.59,222.46 2.3,5.12 4.66,11.22 10.35,13.47 7.89,0.25 10.67,-8.65 11.81,-14.97 17.58,-76.53 20.33,-156.54 7.98,-234.09 7.46,3.44 15.9,2.5 23.52,0 20.45,-6.48 38.77,-18.1 56.49,-29.96zm-818.14 986.51c1.14,-2.85 3.3,-3.87 6.46,-3.08 0.68,0.8 2.07,2.39 2.75,3.19l-0.47 1 -7.51 0 -1.23 -1.11zm607.17 -354.02c28.36,22.54 62.15,36.76 95.36,50.55 69.27,27.34 141.22,47.18 213.52,64.63 -33.12,26.43 -68.97,49.25 -105.05,71.38 -102.35,61.47 -212.23,110.9 -327.16,143.64 -29.07,-84.45 -88.27,-176.6 -166.15,-222.42 34.17,-6 68.88,-9.57 102.69,-17.81 13.03,-3.37 26.93,-5.96 37.69,-14.65 26.64,38.14 87.11,114.16 136.27,123.91 12.33,2.21 27.09,-0.11 35.44,-10.19 -0.59,-10.1 -6.55,-18.68 -11.79,-26.96 -28.66,-40.76 -64.38,-75.95 -99.82,-110.74 32.17,-11.58 66.41,-24.36 89,-51.34zm-917.08 -720.78c122.8,13.95 245.53,28.69 368.31,42.84 39.31,50.12 78.59,100.26 118.11,150.21 -35.43,-11.87 -122.87,-44.68 -157.97,-22.11 -11.31,7.01 -15.61,24.34 -6.73,34.9 10.64,12.39 27.39,16.56 42.67,20.04 44.66,8.67 90.43,7.01 135.59,4.84 20.86,45 42.97,89.43 64.1,134.31 -19.18,-3.14 -141.91,-22.52 -148.68,10.47 -1.66,9.96 4.77,19.11 12.01,25.25 32.17,26.96 111.48,23.28 149.96,19.99 7.36,27.15 23,82.15 22.02,110.09 -87.04,-0.44 -174.1,-1.55 -261.14,-2.6 -29.07,-79.98 -65.6,-157.19 -107.37,-231.31 -62.1,-109.28 -136.93,-212.74 -230.88,-296.92z"/>
  </g>
 </g>
</svg>
