<?xml version="1.0" encoding="UTF-8"?>
<!DOCTYPE svg PUBLIC "-//W3C//DTD SVG 1.1//EN" "http://www.w3.org/Graphics/SVG/1.1/DTD/svg11.dtd">
<!-- Creator: CorelDRAW -->
<svg xmlns="http://www.w3.org/2000/svg" xml:space="preserve" width="2000px" height="1600px" version="1.1" style="shape-rendering:geometricPrecision; text-rendering:geometricPrecision; image-rendering:optimizeQuality; fill-rule:evenodd; clip-rule:evenodd"
viewBox="0 0 2000 1600"
 xmlns:xlink="http://www.w3.org/1999/xlink">
 <defs>
  <style type="text/css">
   <![CDATA[
    .fil0 {fill:#FFC422}
    .fil1 {fill:#002C61;fill-rule:nonzero}
   ]]>
  </style>
 </defs>
 <g id="Capa_x0020_1">
  <metadata id="CorelCorpID_0Corel-Layer"/>
  <g id="ETSU_x0020_Buccaneers.cdr">
   <path class="fil0" d="M910.15 656.34c131.67,0 263.34,0 395.01,0.01l70.38 0 -20.77 67.25c-3.39,10.99 -7.32,21.82 -10.6,32.84l-7.1 23.83 -23.02 9.41c-49.68,20.3 -96.45,48.91 -135.14,86.27 -13.47,13 -26.11,27.15 -36.48,42.77l-15.37 23.16 -27.8 0.05c-63.03,0.11 -126.06,0.17 -189.09,0.19 0.01,84.52 -0.01,169.03 0,253.54 108.73,0.07 217.47,0.28 326.2,0 48.29,-0.12 96.76,-14.49 136.89,-41.45 47.42,-31.86 82.83,-79.65 107.94,-130.39l14.28 -28.87 32.22 -0.02c42.57,-0.03 85.13,-0.05 127.7,0.01l72.15 0.11 -23.01 68.38c-45.07,133.9 -90.3,267.75 -135.35,401.66l-18.47 54.91 -52.57 -24.36c-52.54,-24.34 -111.05,-34.75 -168.74,-34.67 -309.63,0.39 -619.25,0.04 -928.87,-0.04l-35.9 -0.01 -12.67 -33.59c-14.19,-37.59 -28.22,-75.24 -42.42,-112.84l-24.04 -63.65 67.74 -6.39c24.9,-2.35 49.06,-11.5 70.21,-24.69 16.04,-10 44.87,-33.52 44.72,-54.78 -0.44,-62.38 0.27,-124.78 -0.43,-187.17 -0.13,-11.91 -0.01,-23.82 0,-35.73 -38.71,0.01 -77.42,0.02 -116.14,0.06l-79.16 0.06 31.48 -72.64c21.98,-50.71 44.01,-101.39 66.14,-152.04l13.6 -31.15 34 0.01c16.73,0.01 33.45,0.01 50.17,0.01l0.09 -30.04 0.36 0c-0.34,-73.24 -0.02,-146.48 -0.15,-219.72 -0.48,-7.89 -4.66,-15.75 -9.76,-21.6 -24.96,-28.59 -78.04,-44.55 -113.77,-53.06l-57.04 -13.58 20.38 -54.98c14.45,-39 29.01,-77.96 43.52,-116.93l12.59 -33.81 36.08 0.01c287.33,0.05 574.66,0.14 862,0.01 36.87,-0.01 73.74,0.32 110.61,-0.23 30.52,-0.46 66,-4.56 91.63,-22.56l56.81 -39.9 22.23 65.76c45.27,133.94 90.34,267.95 135.59,401.9l22.94 67.92 -71.69 0.62c-42.77,0.37 -85.53,0.08 -128.3,0.14l-32.48 0.05 -14.25 -29.18c-37.03,-75.82 -78.46,-161.01 -170.13,-177.25 -23.78,-4.22 -50.33,-2.46 -74.49,-2.74 -34.6,0.29 -69.2,-0.47 -103.8,-0.41 -65.55,0.12 -131.1,0.05 -196.64,0.03 -0.02,83.16 0.02,166.33 -0.02,249.5z"/>
   <path class="fil1" d="M1373.53 194.38c41.86,-0.62 85.69,-7.4 120.7,-31.99 45.27,133.94 90.34,267.93 135.58,401.89 -42.63,0.36 -85.28,0.07 -127.92,0.14 -45.83,-93.84 -95.75,-186.01 -207.73,-205.59 -27.53,-5.15 -55.61,-3.17 -83.45,-3.54 -34.68,0.3 -69.33,-0.61 -103.99,-0.4 -82.83,0 -165.65,0 -248.47,0.01 -0.04,100.83 0.02,201.67 -0.03,302.51 -112.66,0.03 -225.33,-0.13 -338,0.08 -0.35,-74.02 -0.01,-148.04 -0.16,-222.05 -0.71,-20.17 -9.31,-39.52 -22.57,-54.56 -33.49,-38.52 -92.83,-57.99 -140.85,-69.43 14.44,-38.96 28.99,-77.9 43.49,-116.85 287.35,0.05 574.69,0 862.03,0.02 37.12,-0.16 74.27,0.32 111.37,-0.24zm-853.85 746.7c112.86,-0.05 225.7,-0.02 338.56,-0.02 0.01,102.17 -0.02,204.34 0.01,306.51 126.09,0 252.17,-0.02 378.25,0.02 58.5,-0.5 117.17,-17.33 165.72,-50.28 55.26,-36.8 96.33,-91.48 125.52,-150.46 42.53,-0.03 85.05,-0.05 127.58,0.02 -45.06,133.9 -90.29,267.74 -135.34,401.66 -59.43,-27.53 -125.33,-39.99 -190.64,-39.49 -309.6,-0.02 -619.19,0.05 -928.79,-0.03 -14.18,-37.6 -28.22,-75.26 -42.42,-112.86 32.95,-3.11 64.76,-14.91 92.81,-32.33 33.41,-20.9 69.65,-56.76 69.17,-99.2 -0.26,-62.46 0.4,-124.95 -0.43,-187.39 0,-12.05 0,-24.1 0,-36.15zm0.01 -232.81c261.81,0 523.64,-0.01 785.47,0 -3.45,11.16 -7.42,22.15 -10.76,33.34 -55.8,22.81 -108,55.13 -151.56,96.98 -16.09,15.74 -31.2,32.63 -43.67,51.41 -249.2,0.45 -498.4,0.02 -747.6,0.21 21.96,-50.66 43.98,-101.31 66.08,-151.9 34.01,0.01 68.02,0.01 102.03,0 0,-10.02 -0.02,-20.02 0.01,-30.04z"/>
  </g>
 </g>
</svg>
