<?xml version="1.0" encoding="UTF-8"?>
<!DOCTYPE svg PUBLIC "-//W3C//DTD SVG 1.1//EN" "http://www.w3.org/Graphics/SVG/1.1/DTD/svg11.dtd">
<!-- Creator: CorelDRAW -->
<svg xmlns="http://www.w3.org/2000/svg" xml:space="preserve" width="2000px" height="1600px" version="1.1" style="shape-rendering:geometricPrecision; text-rendering:geometricPrecision; image-rendering:optimizeQuality; fill-rule:evenodd; clip-rule:evenodd"
viewBox="0 0 2000 1600"
 xmlns:xlink="http://www.w3.org/1999/xlink">
 <defs>
  <style type="text/css">
   <![CDATA[
    .fil1 {fill:#005A9C}
    .fil2 {fill:#A80532}
    .fil0 {fill:#FEFEFE}
   ]]>
  </style>
 </defs>
 <g id="Capa_x0020_1">
  <metadata id="CorelCorpID_0Corel-Layer"/>
  <g id="Fairleigh_x0020_Dickinson_x0020_Knights.cdr">
   <path class="fil0" d="M1320.62 258.56c0,0 -9.22,-36.29 -31.11,-61.06 -21.31,-24.76 -36.29,-38.01 -67.97,-46.65 -31.68,-8.07 -58.17,-16.71 -58.17,-16.71 0,0 -29.95,-36.28 -46.08,-44.93 -13.25,9.8 -31.68,47.81 -39.75,73.16 -8.06,-16.71 -1.72,-44.93 3.46,-54.72 -16.7,-1.73 -89.86,14.97 -123.84,32.83 -29.38,15.55 -51.84,50.11 -48.38,76.61 3.45,26.49 18.43,52.99 31.68,58.17 -5.19,8.07 -18.44,39.75 -18.44,39.75l-101.37 38.01 -43.2 -24.77 -81.22 78.34 36.29 49.54c0,0 -11.52,20.16 -6.91,34.56 5.18,14.97 23.04,24.77 31.68,31.68 8.06,6.33 11.52,27.65 20.74,35.71 16.7,13.82 43.77,16.13 60.48,7.49 16.7,-8.06 39.74,-19.59 39.74,-19.59l84.67 1.73 3.46 18.44c0,0 -67.97,36.28 -102.53,73.15 -35.14,36.29 -113.47,119.23 -151.49,277.06 -20.16,11.52 -24.77,31.67 -24.77,54.71 0,14.98 6.92,27.65 13.25,36.29 8.07,11.52 -23.61,33.99 -39.17,43.2 -17.85,10.37 -31.68,36.87 -31.68,67.97 0,18.43 7.49,46.08 27.65,57.6l683.14 0c0,0 32.26,-26.5 30.53,-62.79 -1.15,-23.04 -8.64,-41.47 -26.5,-59.9 -17.85,-17.86 -43.2,-33.41 -36.29,-48.38 9.79,-5.19 16.13,-31.11 16.13,-44.93 0,-23.04 -20.16,-43.21 -36.29,-47.81 18.43,-5.18 79.49,-54.15 96.19,-110.02 -9.79,3.46 -18.43,6.34 -36.29,3.46 -16.12,-2.88 -33.98,-5.76 -39.74,-11.52 32.26,-5.76 54.14,-16.7 76.03,-47.81 19.01,-24.19 31.11,-54.72 35.14,-82.94 -13.83,4.61 -20.16,5.76 -36.29,4.03 -17.28,-2.3 -32.26,-3.46 -41.47,-14.98 32.26,-0.57 45.5,-10.94 59.9,-32.25 13.83,-20.74 15.56,-58.18 18.44,-80.64 -36.29,0.57 -62.79,-4.04 -79.49,-26.5 18.43,0 28.8,-16.13 40.32,-39.17 9.79,-19.01 14.4,-47.23 9.79,-69.12 -8.06,2.88 -14.4,5.19 -20.74,5.19 -6.33,0 -32.83,-0.58 -40.32,-8.64 11.52,0 22.47,-1.73 29.95,-2.31 6.92,-1.73 12.1,-6.33 15.56,-12.09 -13.25,-9.8 -32.83,-31.68 -42.63,-69.7 -9.79,-38.02 -22.46,-50.69 -32.25,-58.75l20.16 0z"/>
   <g>
    <path class="fil1" d="M1389.74 752.77c19.01,-24.2 32.26,-55.88 36.29,-86.4l2.3 -16.13 -12.67 4.03c-13.25,4.61 -17.86,5.18 -32.83,4.03l-5.19 -0.57c-4.03,-0.58 -6.91,-1.16 -10.37,-1.73 18.44,-5.19 29.38,-16.13 39.75,-32.26 13.24,-20.16 16.12,-51.84 18.43,-75.45l1.73 -17.86 -9.22 0c-31.1,0.58 -50.11,-3.45 -63.36,-13.82 14.4,-6.91 23.62,-23.04 32.26,-39.75 11.17,-21.6 16.88,-51.03 10.37,-74.88l-1.73 -9.21 -9.21 3.46c-6.34,2.3 -10.95,3.45 -15.56,4.03 4.03,-2.88 7.49,-6.34 9.79,-10.95l3.46 -6.33 -5.76 -4.61c-8.64,-6.34 -29.38,-25.35 -39.74,-65.09 -5.76,-22.46 -12.67,-36.86 -20.16,-47.23l13.25 1.15 -2.88 -10.94c-0.58,-1.73 -10.37,-38.59 -32.84,-64.51 -23.04,-27.08 -39.16,-40.32 -72,-48.97 0,0 -44.92,-12.67 -55.29,-16.12 -6.91,-8.07 -31.68,-36.87 -47.23,-44.93l-4.62 -1.73 -4.03 2.88c-9.21,6.91 -19.58,24.19 -28.22,42.62 1.15,-5.76 2.88,-10.94 4.61,-13.82l5.18 -10.94 -12.1 -1.16c-19,-1.72 -94.46,15.56 -129.02,33.99 -16.3,8.75 -30.18,22 -39.98,37.67 -7.94,12.67 -16.3,31.62 -12.44,47 2.88,24.77 14.98,48.96 28.8,59.91 -4.61,9.79 -10.94,23.61 -13.82,30.52 -5.76,2.31 -87.55,32.83 -93.89,35.71 -5.76,-3.45 -44.93,-25.91 -44.93,-25.91l-91.58 86.97c0,0 32.83,44.93 38.02,51.84 -5.48,10.94 -8.59,24.94 -4.61,36.86 4.61,14.4 18.43,24.2 28.22,31.11l5.76 4.03c2.31,1.73 5.19,8.64 7.49,13.82 3.46,8.07 6.91,16.71 13.25,21.89 18.43,14.98 48.96,19.01 69.12,8.64 0,0 30.53,-14.97 38.02,-19.01 3.45,0 64.51,1.16 75.45,1.73 0.58,2.88 0.58,3.46 1.15,5.76 -16.7,9.22 -69.69,39.75 -99.64,71.43 -33.99,35.71 -113.48,119.23 -152.65,277.63 -15.03,10.14 -22.81,26.61 -25,44.29 -2.64,20.8 1.85,39.06 13.48,56.51 0,4.03 -12.67,17.28 -36.29,31.68 -24.36,14.52 -35.25,45.97 -35.71,72.98 -0.4,24.59 9.28,54.03 31.68,66.99l1.73 1.15 688.32 0 2.31 -1.73c19.23,-19.24 33.4,-40.89 33.4,-69.12 -1.15,-25.92 -9.79,-46.08 -28.8,-65.09l-14.97 -13.82c-9.22,-8.07 -20.16,-17.86 -20.16,-23.62 11.98,-10.37 16.01,-30.47 17.11,-45.5 1.49,-20.51 -9.97,-40.03 -26.33,-51.84 27.65,-17.28 72,-59.91 85.83,-107.71l4.61 -15.56 -15.56 5.76c-8.06,2.88 -15.55,5.76 -32.25,2.88 -3.46,-0.57 -8.07,-1.15 -13.25,-2.3 19.58,-7.49 37.44,-19.58 54.72,-44.35zm-84.1 32.83l-15.55 2.88 11.52 11.52c7.31,7.31 19.59,9.27 29.26,11.17 13.14,2.54 25.86,4.44 39.29,3.23 -21.32,48.39 -72,86.98 -84.68,90.43l-27.65 7.49 27.65 8.07c14.46,4.61 27.07,18.95 29.9,33.75 1.67,8.81 -0.06,18.32 -2.48,26.84 -1.33,4.73 -3.46,14.63 -8.41,17.17l-2.88 1.15 -1.15 2.88c-7.49,18.67 11.86,33.7 24.19,44.35l14.4 13.25c16.13,16.13 23.04,32.83 24.2,54.15 0,20.79 -10.08,40.26 -25.35,54.14l-677.38 0c-17.11,-11.01 -23.33,-35.49 -22.35,-54.67 1.1,-20.22 9.22,-44.81 27.54,-55.93 12.09,-7.49 40.89,-25.92 44.35,-42.62 0,-5.01 0.46,-8.12 -2.31,-12.67 -10.37,-15.21 -13.36,-31.11 -10.19,-49.14 2.19,-12.44 8.12,-23.44 19.41,-29.78l2.88 -1.72 0.58 -3.46c37.43,-157.25 115.77,-239.04 149.18,-273.6 33.41,-35.14 100.22,-70.85 100.8,-71.42l5.18 -2.88 -5.76 -31.11 -93.31 -1.73 -41.47 20.74c-13.25,6.34 -36.29,5.76 -51.27,-6.33 -3.45,-2.89 -6.33,-9.22 -8.64,-15.56 -3.45,-8.06 -6.91,-15.55 -12.67,-20.16l-6.33 -4.61c-8.07,-5.76 -19.01,-13.24 -22.47,-23.03 -2.94,-8.82 1.96,-20.63 6.34,-28.23l2.88 -4.61 -3.46 -4.61c0,0 -25.35,-34.56 -32.26,-43.77 8.64,-8.07 63.94,-61.63 71.43,-68.55 8.06,4.61 40.89,23.62 40.89,23.62l108.29 -40.32 1.15 -3.46c3.46,-8.64 13.83,-32.25 17.86,-38.59l5.18 -8.64 -9.21 -3.46c-8.64,-3.45 -23.04,-24.76 -25.92,-51.26 0,-28.92 19.47,-54.95 44.35,-68.54 27.65,-14.98 82.37,-28.23 108.29,-31.68 -4.61,15.03 -6.05,35.07 1.15,49.53l8.64 17.86 6.34 -18.44c7.48,-23.03 22.46,-52.99 32.83,-65.08 12.67,9.21 31.68,31.1 39.17,39.74l1.72 1.73 60.48 17.28c28.8,7.49 42.63,19.01 63.94,43.78 13.25,14.97 21.31,34.55 25.34,46.65 -5.18,-0.58 -35.71,-2.88 -35.71,-2.88l20.16 16.71c9.22,8.06 20.16,19.58 29.38,54.71 9.79,36.87 27.65,58.18 39.17,68.55 -1.73,1.73 -3.46,2.3 -5.76,2.88 -1.15,0 -4.03,0.57 -4.03,0.57l-40.9 3.46 10.37 12.67c10.94,12.1 42.62,12.1 46.66,11.52 4.6,0 8.64,-1.15 13.82,-2.3 0,9.73 0.46,18.72 -1.38,28.4 -1.67,8.87 -4.38,17.62 -8.41,25.75 -10.95,21.88 -20.16,34.56 -33.41,34.56l-16.13 0 9.8 13.24c18.43,24.77 47.23,29.95 77.18,29.95 -2.3,21.32 -5.18,50.69 -16.13,67.4 -12.67,19 -23.04,27.64 -52.99,28.8l-16.71 0.57 10.37 13.25c10.37,13.25 25.35,14.97 41.48,17.28l5.18 0.58c11.52,1.15 19.01,1.15 26.5,-0.58 -5.19,23.62 -15.56,47.23 -30.53,66.24 -21.89,31.11 -42.05,39.75 -71.43,44.93zm-78.33 -357.12c-20.16,-39.74 -24.77,-71.42 -26.5,-101.38 -1.15,-29.95 -6.34,-71.42 -6.34,-71.42l-26.49 44.93c6.91,-38.02 3.46,-142.85 -51.27,-179.14 -16.7,14.98 -23.03,88.13 -14.97,122.69 -5.18,-12.09 -16.13,-26.49 -27.65,-33.41 -31.1,-20.16 -37.44,-50.68 -17.28,-76.03 -13.25,-2.3 -59.33,10.95 -90.43,31.11 -57.6,35.71 -29.96,91 -5.19,97.34 24.77,6.91 45.51,3.46 45.51,3.46l50.68 -9.79 5.19 14.97 -111.17 23.04 -18.43 36.29 -116.35 44.92 -38.02 -19.58 -57.02 58.18 44.93 39.74 65.08 -13.82 13.25 33.4 -56.45 16.71 -13.24 -13.25 35.71 -16.13c0,0 -35.14,1.73 -44.93,5.19 -9.79,3.45 -17.86,16.7 -9.79,28.22 8.06,11.52 23.04,18.43 23.04,29.95 0,11.52 23.03,28.23 41.47,26.5 18.43,-1.73 35.13,-16.71 46.65,-26.5 8.64,1.15 114.63,6.34 114.63,6.34l6.33 43.2c0,0 -41.47,28.22 -66.24,44.93 -24.77,16.7 -111.17,118.08 -132.48,165.89 -21.31,47.8 -44.35,97.91 -49.53,122.68l271.87 0c0,0 -41.47,-29.95 -34.56,-81.21 6.34,-51.27 24.77,-92.74 46.08,-117.51 0,36.29 32.26,76.04 68.55,77.76 36.28,1.73 67.97,-27.65 96.76,-72 26.5,-40.89 48.97,-91.58 55.3,-143.42 6.34,-51.84 3.46,-103.11 -16.7,-142.85zm-274.76 -96.19l62.21 -17.86c0,0 13.25,-3.46 -5.76,23.04 -19.01,26.5 -47.23,14.4 -56.45,-5.18zm17.86 391.1l116.35 -209.66c0,0.57 -35.13,10.37 -58.17,8.64 33.4,-9.79 86.4,-26.5 88.12,-56.45 11.52,29.95 -146.3,257.47 -146.3,257.47zm35.14 276.48l277.05 0c0,0 14.98,-13.25 14.98,-33.41 0,-20.16 -14.98,-33.4 -14.98,-33.4l-277.05 0 -277.06 0c0,0 -14.98,13.24 -14.98,33.4 0,19.59 14.98,33.41 14.98,33.41l277.06 0zm0 149.19l324.86 0c0,0 14.98,-13.25 14.98,-33.41 0,-20.16 -14.98,-33.41 -14.98,-33.41l-324.86 0 -335.24 0c0,0 -14.97,13.25 -14.97,33.41 0,20.16 14.97,33.41 14.97,33.41l335.24 0 0 0zm4.03 -84.67l317.38 0c-40.9,-23.04 -43.21,-44.36 -43.21,-44.36l-274.17 0 -281.09 0c0,0 -3.46,26.5 -46.08,44.36l327.17 0zm164.16 -893.38c42.62,-3.46 99.65,21.89 110.59,68.54 -24.19,-8.64 -33.41,-20.16 -59.91,-10.94 15.56,4.61 57.03,8.06 75.46,74.88 17.86,66.24 46.08,77.76 46.08,77.76 0,0 -38.02,11.52 -59.33,-0.58 -17.28,-9.79 -35.13,-29.95 -35.13,-29.95 0,0 -3.46,11.52 16.7,33.98 35.14,38.02 87.55,41.48 102.53,41.48 -5.19,20.15 -6.34,56.44 -34.56,62.78 -28.23,6.34 -40.9,-8.64 -49.54,-15.55 13.25,40.32 53,86.4 112.32,83.52 -4.61,42.05 -29.95,76.61 -56.44,74.88 -26.5,-2.3 -35.14,-13.25 -51.27,-31.68 0,24.77 20.16,92.73 99.65,84.67 -13.82,33.41 -64.51,138.82 -161.86,56.45 8.64,33.41 48.96,82.94 116.93,81.21 -19.58,26.5 -70.27,80.07 -127.87,80.07l-183.74 0c0,0 -73.16,-42.05 -15.56,-152.64 17.86,63.93 65.09,59.9 97.92,55.87 33.41,-4.61 56.45,-36.29 78.34,-65.09 21.89,-28.8 51.26,-78.91 57.6,-123.26 6.33,-44.35 21.88,-75.46 13.24,-137.09 -8.64,-61.63 -40.32,-103.68 -43.77,-132.48 -4.03,-31.11 -1.73,-65.09 -13.25,-100.8 -10.94,-33.98 -23.04,-59.9 -35.13,-76.03l0 0zm347.15 1129.82c-7.77,-37.27 -24.19,-72.34 -49.36,-101.09 0,-6.1 3.51,-13.42 5.07,-19.29 1.78,-6.63 3.51,-13.31 5.18,-19.99 3.46,-13.77 6.97,-27.59 10.48,-41.36 0,-4.84 2.48,-9.62 3.81,-14.22 1.72,-6.17 3.22,-12.44 4.83,-18.61 -3.34,-6.04 -5.41,-15.2 -10.36,-20.16 -8.3,-16.64 -18.03,-32.37 -27.65,-48.38 0,0 -6.34,17.86 -10.37,27.65 -10.83,-8.99 -23.96,-14.52 -38.19,-13.48 -15.04,1.1 -29.61,7.89 -41.19,17.39 -21.54,17.74 -33.06,45.05 -37.03,72.12l-8.64 -2.3 -1.73 -0.01c0,-17.91 2.14,-35.36 5.19,-52.99 0,0 -18.43,-5.18 -19.59,-5.18 -9.73,-4.84 -20.68,-6.91 -31.1,-9.79 -4.03,16.18 -7.89,32.66 -16.88,46.94 -3.68,5.88 -8,11.69 -13.53,15.9 -6.69,5.07 -14.69,6.05 -22.58,8.01 -15.9,-23.79 -45.16,-29.03 -70.28,-17.28l0 -14.98c2.88,-1.15 9.22,-4.03 9.22,-4.03l0 -62.79c-25.52,10.78 -51.09,21.54 -76.61,32.26 -3.57,0 -9.1,3.69 -12.33,4.9 -5.29,2.01 -10.59,4.03 -15.9,6.04l0 3.46c-20.85,-2.48 -41.29,1.38 -48.96,23.62 -33.29,-4.15 -67.22,6.45 -84.09,37.44l0 -33.41c4.32,-15.21 0.75,-33.35 -12.33,-43.14 -12.09,-9.05 -29.49,-10.49 -43.31,-5.01 -25.35,10.02 -41.82,42.79 -25.58,67.16 -7.49,3.45 -14.4,5.76 -14.4,5.76l0 7.49c-13.48,-29.67 -50.92,-37.1 -77.18,-19.59l0 -21.31c-18.72,10.14 -37.56,20.1 -56.45,29.95 -0.58,0 -13.25,7.49 -14.4,8.06 -0.58,0.58 -25.35,12.68 -25.35,12.68 2.82,26.84 1.15,54.25 1.15,81.21 0,0 5.19,-4.61 9.22,-8.06l0 76.03c-0.58,0.58 -1.15,0.58 -1.15,0.58 -2.88,-8.07 -5.76,-16.13 -5.76,-16.13 0,0.58 -13.25,-37.44 -13.25,-37.44 0,-4.67 -3.17,-9.33 -4.67,-13.59 -2.36,-6.74 -4.55,-13.6 -6.79,-20.34 -4.32,-12.96 -8.35,-26.03 -12.1,-39.22 5.24,-9.45 9.74,-19.3 14.98,-28.8 0,-3.8 3.46,-7.55 5.3,-10.6 2.82,-4.67 4.95,-9.62 7.95,-14.17l19.59 0 0 -71.43c-27.3,0 -54.55,1.16 -81.79,1.16l0 -0.58c-39.92,1.15 -79.9,1.67 -119.81,2.88l0 84.67 12.09 0 0 281.67c-2.3,4.6 -8.58,8.92 -12.09,12.67l0 100.22c30.18,-29.55 59.73,-59.39 92.74,-85.82 8.06,-8.07 18.6,-14.35 27.64,-21.32l0 -4.03c0,0.58 0.58,2.3 0.58,2.3 21.66,-13.88 43.09,-28.22 65.72,-40.49 10.72,-5.81 21.66,-11.29 32.6,-16.64 5.82,-2.82 11.64,-5.7 17.51,-8.41 3.57,-1.67 9.28,-5.88 13.25,-5.88 48.04,-20.56 99.13,-35.48 150.33,-45.5 5.65,0 11.24,-1.62 16.77,-2.42 5.18,-0.75 10.48,-1.1 15.49,-2.77 1.15,0 32.83,-3.45 32.83,-3.45l0 -6.91c1.15,1.15 2.88,3.45 4.61,4.6 -3.11,15.56 1.67,32.2 13.48,43.03 12.96,11.86 31.79,15.03 48.78,15.15 33.24,0.29 72.58,-14.29 75.4,-52.42 21.49,3.29 43.38,5.65 64.51,10.95l0 0.57c0,0 29.96,6.92 31.11,6.92 1.15,0.57 31.1,9.21 32.26,9.21 1.15,0.58 42.05,16.13 42.05,16.13l0 -12.67c7.25,15.2 20.73,26.55 35.99,33.29 17.92,7.89 37.16,5.07 53.86,-4.49 14.34,32.54 26.21,67.22 46.72,96.65 8.87,12.67 19.98,24.48 34.27,30.87 15.03,6.74 32.66,7.03 47.98,1.1 28.22,-10.89 45.85,-39.23 53.45,-67.34 9.34,-34.84 6.05,-74.36 -1.21,-109.38zm-677.78 -60.76l-2.88 0 0 -60.48c1.16,-0.58 1.73,-1.16 2.88,-1.73l0 62.21zm85.83 -12.1l0 -14.98c2.88,4.03 5.76,8.07 9.21,11.52 -2.88,1.16 -6.33,2.31 -9.21,3.46zm141.69 4.03l-9.79 0 0 11.52c-2.88,-2.88 -5.76,-5.18 -9.79,-7.49 7.49,-4.6 14.4,-10.94 19.58,-18.43l0 14.4zm273.6 52.99l-2.3 -5.76c0,0 -10.37,5.19 -16.13,8.07 0,-32.26 0,-64.52 0,-96.77 3.46,0.57 10.37,2.3 14.4,2.88 4.61,19.01 11.53,36.29 19.59,52.41 -4.44,13.31 -10.66,26.04 -15.56,39.17z"/>
   </g>
   <g>
    <path class="fil0" d="M1461.16 1202.63c1.16,-3.46 8.64,-33.41 8.64,-33.41l6.34 -25.35 6.91 -27.07 1.73 -6.91 5.76 -23.04 -1.73 -2.88 -3.46 -7.49c-0.57,-0.58 -4.03,-7.49 -4.03,-7.49l-3.46 -6.91 0 -0.58 -13.82 -23.04 -6.91 18.44c0,0 -1.73,4.6 -1.73,5.18 -9.79,-11.52 -21.89,-21.89 -35.71,-21.89 -36.86,0 -76.61,32.83 -76.61,104.83 0,39.17 11.52,72 25.92,100.23 -2.88,6.91 -12.1,30.53 -12.1,30.53l-1.15 2.88 -6.91 17.28c0,0 -4.03,8.64 -4.61,10.37 0,0.57 -1.73,2.88 -3.46,5.18 -0.57,-1.15 -0.57,-2.3 -0.57,-2.3l-4.61 -16.13 -10.37 5.18c-2.3,1.16 -3.46,0.58 -4.03,0.58 -0.58,-0.58 -5.19,-2.88 -5.19,-12.09l0 -107.72c1.16,0.58 2.88,0.58 2.88,0.58l15.56 3.46 1.73 -19.59c0,0 0.57,-6.91 0.57,-7.49l0 -0.57 1.15 -8.07 0 1.73 2.88 -16.12 -15.55 -4.04 -6.33 -0.58c0,0 -1.73,-0.58 -2.88,-0.58l0 -8.06c0,-11.52 1.15,-29.38 2.3,-38.02l1.73 -8.64c0,0 -10.94,-2.88 -12.09,-2.88 -0.58,-0.57 -8.07,-3.45 -8.07,-3.45l-13.82 -3.46 -2.31 9.21c-7.49,27.65 -24.76,51.27 -40.89,55.3l-6.91 1.73 0 35.71 10.37 1.73c0,0 1.15,0 2.3,0.58l0 104.25c0,38.59 12.1,61.06 38.59,73.16 21.89,10.94 41.47,0 54.15,-9.22l1.15 -0.58 13.24 29.95c14.98,36.29 30.53,73.73 50.69,91.59 15.56,15.55 37.44,20.73 57.6,12.1 25.35,-10.38 52.42,-42.63 52.42,-101.96 1.15,-86.97 -26.5,-133.05 -55.3,-164.15l0 0zm-21.31 184.31c-21.31,-19 -41.47,-76.03 -55.3,-116.35 6.92,10.37 13.83,20.74 20.16,29.95 19.59,28.23 36.29,52.42 36.29,76.03 -0.57,5.19 -0.57,8.07 -1.15,10.37l0 0zm-608.83 -223.48c0,-20.16 -5.19,-35.14 -15.56,-44.93 -8.06,-7.49 -19.58,-10.95 -32.83,-9.8 -14.4,1.16 -25.34,9.22 -35.13,19.59l0 -24.77 -13.83 7.49 -14.4 7.49 -14.4 7.49 -14.98 8.06 -14.4 6.91 -5.18 2.31 0.58 5.76 0 50.11c0,0 4.61,-4.03 9.21,-8.06l0 111.74 -0.57 0 0 -9.22c0,0 -14.4,8.07 -15.55,8.64 -4.03,-10.37 -9.8,-26.49 -9.8,-26.49l-13.24 -37.44 -13.25 -39.75c0,0 -8.64,-27.64 -11.52,-37.44 2.3,-4.61 7.49,-14.97 7.49,-14.97l9.21 -17.28 9.22 -17.28c0,0 4.03,-6.92 6.91,-11.53 0.58,0 0.58,0 1.15,0l14.4 0.01 0 -52.42 -9.21 0 -14.98 0c-0.58,0 -14.98,0.58 -14.98,0.58l-14.39 0c-0.58,0 -24.2,1.15 -24.2,1.15l0 58.17c0,0 2.31,-0.57 4.03,-1.15 -1.15,2.88 -3.45,6.34 -3.45,6.34 0,0.57 -12.1,25.34 -12.1,25.34 0,0 -2.88,6.91 -6.33,13.83l0 -44.36c0.57,0 1.15,0 1.73,0l12.67 0.01 0 -58.76 -51.27 1.15 -20.73 0 -29.95 0.58 -0.01 66.24 12.1 0 0 295.49c-0.58,0.58 -2.88,2.88 -2.88,2.88l-2.88 2.3 -0.58 0.58 -5.76 5.76 0 74.3 36.29 -35.71c-0.57,0 20.16,-18.43 20.16,-18.43 -0.58,0 20.74,-16.71 20.74,-16.71l20.73 -15.55 3.46 -2.88 0 -61.06c0,0 -13.25,8.07 -13.82,8.07l0 -59.91c0.57,1.73 1.15,3.46 1.15,3.46l5.76 21.89c0,0.58 9.79,32.83 9.79,32.83l13.25 43.78 26.49 -17.29 16.71 -10.36c0,0 15.55,-9.22 16.13,-9.22 0,0 8.06,-4.03 13.82,-7.49l29.38 -14.4 16.7 -7.49 16.7 -6.91 23.04 -8.64c3.46,-1.15 25.35,-8.64 25.35,-8.64l33.41 -9.79 24.19 -5.76 0 -39.17c0,0 -6.33,1.15 -9.21,1.73l0 -91.01 -0.58 0.01zm603.07 12.67c-19.01,-17.28 -32.26,-29.38 -32.26,-47.23 0,-6.34 2.31,-10.37 4.04,-12.1 10.94,4.61 25.91,40.9 35.13,65.09 -2.3,-1.73 -4.61,-4.03 -6.91,-5.76zm-202.18 97.92c-0.57,-1.15 -0.57,-1.15 -1.15,-1.15l0 -103.68c0,-28.23 -11.52,-59.33 -44.35,-62.21 -16.13,-1.15 -27.65,4.61 -39.17,13.25l0 -38.02 0.58 0 9.21 -4.03 0 -42.05 -13.24 5.18 -50.69 21.32 -16.7 6.33 -5.76 2.3 0 7.49 -19.59 -2.3 -0.58 0c-17.85,0 -27.07,6.34 -31.1,23.04l-0.58 2.88c-5.76,-1.15 -12.67,-2.3 -22.46,-2.3 -32.83,0 -68.55,23.04 -68.55,74.3 0,25.92 13.25,43.78 29.96,53.57 -9.22,3.46 -18.44,6.91 -27.65,9.79l-4.03 1.15c-1.73,0.58 -4.61,1.15 -6.34,1.15l0 -142.85 -1.15 0.58c1.73,-4.03 2.88,-8.64 2.88,-14.4 0,-8.64 -3.46,-28.8 -32.26,-28.8 -17.28,0 -37.44,16.7 -37.44,37.44 0,12.1 4.61,19.01 8.07,22.47 1.73,1.72 3.45,2.3 5.18,3.45 -9.79,4.03 -21.31,9.22 -21.31,9.22l0 40.32c0,0 5.18,-2.88 9.21,-4.61l0 86.98 -9.79 0 0 40.89 27.65 -5.76 16.13 -2.88 16.7 -2.88c-0.57,0 16.13,-1.73 16.13,-1.73l8.64 -0.57 0 -21.89 1.73 1.73 4.61 4.61 4.03 4.61c0,0.57 8.64,9.21 8.64,9.21l5.18 -1.15c1.73,-0.58 3.46,-0.58 4.61,-0.58 -3.45,5.19 -6.33,11.52 -6.33,18.44 0,18.43 9.79,39.74 56.45,39.74 29.37,0 63.93,-12.67 63.93,-47.81 0,-16.12 -8.06,-35.71 -40.89,-47.23 23.04,-9.21 44.93,-25.92 44.93,-64.51 0,-19.59 -6.34,-32.26 -12.68,-40.9 1.16,-5.18 2.31,-10.36 2.31,-10.36l1.73 -8.07 1.15 -7.49 1.73 -8.06c0,0 1.72,-8.06 2.3,-13.25l0 28.8c0,0 5.76,-2.88 9.79,-4.61l0 134.21 -9.79 0 0 36.86 24.76 3.46 16.71 2.88 16.7 3.46c0,0 20.74,4.03 24.19,4.61l0 0.57 24.2 5.19 16.12 4.6 16.71 4.61 16.7 6.34 12.68 4.61 -0.01 -41.48 -8.64 -4.03zm-225.21 -72.58c-12.1,0 -17.28,-33.4 -17.28,-45.5 -0.58,-10.94 2.3,-14.98 8.06,-14.98 12.1,0 17.28,33.41 17.28,45.51 0,10.94 -2.3,14.97 -8.06,14.97zm156.67 53.57c-1.15,0 -3.46,-0.58 -5.76,-1.15l0 -0.58c0,0 -9.79,-1.73 -10.37,-1.73l0 -81.79c2.88,-4.03 5.76,-6.33 8.06,-5.76 4.61,0.58 8.07,1.15 8.07,16.13l0 74.88zm-408.96 20.74c-2.88,0.57 -5.76,1.15 -7.49,1.73l0 -91.59c4.61,-6.33 9.22,-11.52 13.83,-12.67 0,0 1.15,0 1.72,0.58 0.58,0.57 1.15,1.72 1.15,4.03l0 93.31 -1.15 0.58c0,0 -7.49,3.45 -8.06,4.03z"/>
   </g>
   <path class="fil2" d="M659.37 1316.1c-19.7,-50.86 -37.04,-102.18 -52.99,-154.37 11.69,-23.39 23.9,-46.42 36.86,-69.12 3.86,0 7.6,-0.58 11.52,-0.58 0,-11.52 0,-23.04 0,-34.56 -19.41,0 -38.82,0.41 -58.18,1.16 0,12.49 0,24.93 0,37.44 3.46,-1.22 8.42,-1.16 12.1,-1.16 -18.03,32.78 -33.7,66.65 -48.96,100.8 0,-32.43 0,-64.91 0,-97.34 4.49,-0.75 9.27,-1.15 13.82,-1.15 0,-13.25 0,-26.5 0,-39.75 -27.64,0.75 -55.29,0.98 -82.94,1.73 0,15.96 0,31.85 0,47.81 3.97,0.29 8.18,-1.1 12.1,-1.73 0,81.1 0,162.2 0,243.3 0,22.58 0,45.16 0,67.74 -4.1,3.4 -8.18,7.37 -11.53,11.52 0,16.13 0,32.26 0,48.39 26.38,-25.64 54.49,-48.68 82.37,-72.58 0,-13.25 0,-26.5 0,-39.74 -4.72,3.16 -9.1,6.68 -13.82,9.79 0,-35.89 0,-71.83 0,-107.72 1.61,-5.58 4.03,-10.77 6.33,-16.12 12.56,44.23 24.42,88.53 38.02,132.48 21.48,-13.77 43.03,-26.84 65.66,-38.59 0,-11.12 0,-22.3 0,-33.41 -3.39,2.01 -6.85,4.03 -10.36,5.76zm807.55 -255.75l-1.73 5.19 -1.73 6.33 -1.72 5.76 -1.73 5.76c-11.52,-19.01 -25.92,-33.98 -39.75,-33.98 -33.4,0 -67.39,31.68 -67.39,95.04 0,112.89 96.77,168.19 96.77,231.55 0,23.04 -6.91,26.5 -14.4,19.01 -24.77,-19.58 -47.23,-85.25 -62.78,-131.33 -1.73,5.76 -4.61,12.1 -6.92,17.28l-6.91 16.71 -5.18 11.52 -5.76 9.21c20.73,43.2 40.32,106.56 66.24,129.6 33.98,35.14 94.46,2.31 94.46,-82.94 0,-175.1 -115.77,-177.99 -115.77,-237.31 0,-12.68 7.48,-22.47 12.67,-21.89 19.01,2.88 36.29,50.69 49.53,85.25l6.92 -25.35 6.33 -24.77 6.91 -27.07c2.31,-8.06 5.19,-17.28 6.91,-25.92l-3.45 -7.49 -4.03 -6.91 -3.46 -7.49 -4.03 -5.76zm-136.51 246.53c-8.06,4.61 -16.47,0.29 -20.33,-7.37 -2.77,-5.53 -2.71,-11.64 -2.71,-17.69 0,-9.1 0,-18.14 0,-27.24 0,-19.18 0,-38.42 0,-57.6 0,-9.85 0,-19.7 0,-29.49 6.45,0.8 12.67,2.65 19.01,4.03 0.69,-10.66 1.84,-21.14 3.45,-31.68 -7.49,-2.08 -15.32,-3.17 -23.04,-4.03 0,-18.84 -1.21,-38.54 2.88,-57.03 -5.47,-1.55 -10.71,-3.63 -16.12,-5.18 -8.07,29.95 -27.07,56.45 -47.81,62.21 0,6.74 0,13.42 0,20.16 4.49,0.92 8.99,0.86 13.25,2.3 0,28.45 0,56.91 0,85.36 0,9.16 0,18.32 0,27.53 0,18.95 2.76,40.04 17.05,53.86 6.91,6.68 16.64,12.21 26.15,13.77 12.84,2.07 24.88,-4.09 35.13,-11.23 -2.3,-6.86 -4.32,-13.82 -6.91,-20.68zm-108.86 -27.07c0,-22.75 0,-45.51 0,-68.26 0,-12.15 0,-24.3 0,-36.46 0,-16.87 -1.33,-35.77 -13.6,-48.67 -8.75,-9.16 -21.83,-11.92 -33.98,-9.39 -14.57,3.05 -25.75,13.77 -35.89,23.96 0,-21.48 0,-43.02 0,-64.51 3,-1.5 6.34,-2.42 9.22,-4.03 0,-7.08 0,-14.23 0,-21.31 -22.24,9.21 -44.35,18.55 -66.82,27.07 0,6.33 0,12.67 0,19.01l9.22 -3.46 0 158.4 -9.22 -1.15c0,0 0,12.67 0,19 22.81,3.17 45.28,7.61 67.97,11.52 0,-6.5 0,-13.07 0,-19.58 -3.46,-0.69 -6.91,-1.44 -10.37,-2.3 0,-31.11 0,-62.21 0,-93.32 4.55,-6.79 10.95,-13.47 19.82,-11.86 6.1,1.1 10.94,4.49 13.24,10.31 3.75,9.5 2.14,21.89 2.14,31.91 0,15.32 0,69.87 0,69.87l-9.8 -2.3c0,0 0,13.07 0,19.58 22.93,5.53 45.22,12.04 67.39,20.16 0,-7.08 0,-21.31 0,-21.31l-9.32 -2.88zm-179.6 -27.65c-14,-8.47 -30.76,-11.69 -46.77,-13.82l0 -0.58c13.42,-3.92 27.18,-7.08 39.74,-13.48 11,-5.58 20.34,-13.82 25.46,-25.23 6.34,-14.11 6.8,-31.91 2.36,-46.6 -3.28,-10.77 -9.67,-19.12 -17.39,-27.01 -1.61,-1.61 -4.15,-3.57 -4.61,-5.99 -0.75,-3.98 2.3,-7.66 6.16,-6.97 3.46,0.63 5.71,3.34 7.61,6.05 1.67,-7.84 2.94,-15.79 4.61,-23.62l0.57 -8.06c-8.35,-0.98 -19.35,-3.17 -26.2,3.22 -5.76,5.36 -6.92,15.84 -8.36,23.27 -14.57,-2.24 -28.34,-5.87 -43.14,-2.47 -26.9,6.22 -42.91,29.72 -44.75,56.5 -2.08,29.5 15.2,54.95 45.27,59.45l0 0.57c-16.7,6.91 -33.41,14.4 -50.69,19.01 6.05,6.05 12.16,12.04 17.86,18.43 10.94,-2.88 20.73,-1.73 35.71,0l0 0.58c-23.44,2.48 -34.91,33.98 -14.98,48.61 13.37,9.8 34.05,9.68 49.83,7.43 15.38,-2.18 32.66,-8.69 38.82,-24.3 7.02,-17.74 -1.56,-35.54 -17.11,-44.99zm-62.32 -103.1c0.57,-14.4 4.6,-20.16 14.4,-20.16 19.58,0 27.64,46.08 27.64,62.78 0,14.4 -4.03,20.74 -13.82,20.74 -19.58,0 -28.22,-46.08 -28.22,-63.36zm28.22 158.97c-7.49,0 -10.95,-8.64 -10.95,-16.12 0,-6.92 1.16,-14.98 5.19,-20.74 9.21,6.34 16.12,11.52 16.12,25.35 0.01,7.48 -3.45,11.51 -10.36,11.51zm-147.46 -216c0,13.83 7.49,20.16 17.86,19.59 13.25,-0.58 33.41,-8.07 33.41,-28.23 0,-16.12 -11.52,-19.58 -23.04,-19.58 -10.95,0 -28.23,12.67 -28.23,28.22zm49.54 158.98c0,-46.83 0,-93.72 0,-140.54 -19.47,7.02 -38.65,14.68 -57.6,23.04 0,6.33 0,12.67 0,19 3.17,-1.67 6.33,-2.59 9.79,-3.45 0,36.28 0,72.57 0,108.86 -3.34,-0.29 -6.45,1.5 -9.79,1.15 0,6.74 0,13.42 0,20.16 21.83,-4.66 44.01,-8.06 66.24,-10.37 0,-6.33 0,-12.67 0,-19.01 -2.71,0.58 -6.11,0.01 -8.64,1.16zm-86.98 16.13c0,-22.93 0,-45.85 0,-68.78 0,-11.23 0.06,-22.52 0,-33.75 -0.05,-14.46 -2.3,-32.08 -15.43,-40.84 -10.14,-6.74 -24.54,-6.28 -35.14,-1.04 -13.65,6.8 -23.45,19.99 -32.95,31.45 0,-11.11 0,-22.29 0,-33.41 -19.24,10.03 -38.36,21.14 -58.17,29.96 0,9.39 0,18.83 0,28.22 1.21,-1.38 6.33,-3.34 6.33,-5.18l2.3 -1.16c0,34.91 0,69.82 0,104.72 0,11.18 0,22.35 0,33.52 -2.99,0.58 -6.22,2.25 -8.64,4.04 0,8.06 0,16.12 0,24.19 22.01,-10.66 44.53,-19.93 66.82,-29.95 0,-7.09 0,-14.23 0,-21.31 -3.23,0.63 -6.97,1.84 -9.79,3.45 0,-27.01 0,-54.03 0,-81.04 0,-8.53 0,-17.05 0,-25.52 5.24,-7.14 11.86,-16.87 21.31,-18.43 7.72,-1.27 13.08,4.78 13.77,12.04 0.8,8.64 0.05,17.68 0.05,26.38 0,16.3 0,32.6 0,48.9 0,8.7 0,17.4 0,26.15 -2.99,0.58 -6.56,1.96 -9.21,3.46 0,6.91 0,13.82 0,20.74 22.29,-6.92 44.81,-13.02 67.39,-19.01 0,-6.51 0,-13.08 0,-19.59 -2.82,1.1 -5.76,0.75 -8.64,1.79z"/>
  </g>
 </g>
</svg>
