<?xml version="1.0" encoding="UTF-8"?>
<!DOCTYPE svg PUBLIC "-//W3C//DTD SVG 1.1//EN" "http://www.w3.org/Graphics/SVG/1.1/DTD/svg11.dtd">
<!-- Creator: CorelDRAW -->
<svg xmlns="http://www.w3.org/2000/svg" xml:space="preserve" width="2000px" height="1600px" version="1.1" style="shape-rendering:geometricPrecision; text-rendering:geometricPrecision; image-rendering:optimizeQuality; fill-rule:evenodd; clip-rule:evenodd"
viewBox="0 0 2000 1600"
 xmlns:xlink="http://www.w3.org/1999/xlink">
 <defs>
  <style type="text/css">
   <![CDATA[
    .fil1 {fill:black}
    .fil0 {fill:#97A2AC}
    .fil2 {fill:#B62147;fill-rule:nonzero}
    .fil3 {fill:#FEFEFE;fill-rule:nonzero}
   ]]>
  </style>
 </defs>
 <g id="Capa_x0020_1">
  <metadata id="CorelCorpID_0Corel-Layer"/>
  <g id="Fairfield_x0020_Stags.cdr">
   <path class="fil0" d="M144.92 1228.65l-40.61 -35.88 -4.31 18.89 40.61 35.88 4.31 -18.89zm225.79 -3.5l-11.99 -32.38 -2.45 18.89 11.23 27.55 3.21 -14.06zm828.79 -909.01c5.02,-1.67 10.05,-3.28 15.12,-4.82 33.76,-10.28 68.82,-17.44 104.27,-16.34 24.75,0.77 49.7,5.94 71.56,17.89l32.56 17.79 -37.01 2.72c-40.6,2.98 -80.82,11.16 -119.49,23.83 -31.92,10.45 -64.28,24.68 -88.39,48.73 -1.85,1.98 -7.32,7.53 -7.24,9.03l0.04 0.62 -0.04 0.62c-1.63,28.22 3.58,56.39 11.97,83.32 23.63,-19.51 51.06,-34.67 81.73,-39.17 9.54,-1.41 19.19,-1.85 28.83,-1.64 35.52,0.76 72.01,10.91 107.31,6.72l0.2 -0.02 0.2 -0.02c16.92,-1.39 33.35,-6.7 49.14,-12.69l37.31 -14.13 -24.88 31.19c-18.31,22.95 -43.26,41.26 -72.14,48.04 -6.77,1.59 -13.66,2.61 -20.59,3.2 -12.56,1.09 -25.16,0.8 -37.75,0.47 -19.86,-0.52 -40.48,-1.26 -59.76,4.41 -26.25,7.72 -47.36,26.98 -63.51,48.59 9.87,15.18 20.35,30.01 31.78,44.06 18.04,-26.75 45.44,-46.93 76.02,-57.13 29.23,-9.74 61.27,-9.92 90.95,-2.04l42.66 11.33 -43.01 9.91c-29.22,6.73 -61.46,14.37 -83.97,35.56 -14.59,13.73 -21.52,33.77 -22.21,53.52 9.46,7.16 19.11,15.1 29.87,19.69 28.91,12.31 61.68,13.56 92.67,14.6 18.51,-0.22 36.99,-1.22 55.5,-1.15l41.83 0.14 -36.54 20.36c-19.29,10.74 -38.82,21.06 -60.88,24.62 -41.15,7.51 -83.78,3.86 -123.63,-8.53 6,9.06 11.7,18.31 16.63,28.07 1.73,3.23 2.74,6.69 3.12,10.33 0.49,4.6 -0.07,8.95 -0.7,13.49 -0.31,2.17 -0.7,4.65 -0.63,6.89 1.74,8.69 7.94,18.06 11.15,26.48 9.86,25.89 16.68,53.11 28.31,78.28 7.1,15.35 16.86,28.89 22.72,44.98 3.99,10.98 3.99,23.84 -4.15,32.98 -5.68,6.37 -12.18,11.7 -18.39,17.5l-0.09 0.08 -0.08 0.08c-17.39,15.57 -37.11,31.29 -61.98,28.54 -6.12,-0.67 -11.9,-2.52 -17.36,-5.33 -13.56,-6.99 -22.16,-17.96 -33.38,-27.62 -21.77,-18.75 -45.2,-39 -72.61,-49.14 -6.02,23.25 -13.83,46.03 -25.67,67.05 -25.31,44.88 -66.52,78.75 -112.18,101.55l-29.23 14.6 11.22 -22.58c-7.37,4.77 -14.98,9.18 -22.96,13.03l-16.37 7.88c-15.53,18.64 -30.09,38.1 -44.42,57.65l-23.05 31.41 3.32 -38.81c1.84,-21.52 2.84,-43.33 0.07,-64.81l-0.02 -0.23c-2.17,-20.1 -7.97,-39.64 -15.1,-58.52 -46.37,-9.42 -93.12,-16.9 -139.42,-26.66l-58.28 -12.28 58.84 -9.24c35.55,-5.58 71.19,-10.56 106.77,-15.95 -16.82,-21.3 -36.54,-40.29 -58.22,-56.62l-26.87 -20.24 13.81 0.23c-70.19,-8.12 -140.39,-16.13 -210.56,-24.48 -27.65,-3.29 -55.39,-5.82 -82.9,-10.16l-9.66 -1.52 0.86 -19.53 9.75 -0.67c56.78,-3.9 113.59,-7.15 170.36,-11.03 -27.77,-12.61 -55.87,-24.52 -83.61,-37.17l-0.2 -0.09 -0.19 -0.1c-2.58,-1.3 -5.09,-2.72 -7.56,-4.2l-39.22 -23.53 45.62 3.24c68.35,4.84 137.93,8.56 205.8,-3.38 21.47,-3.78 42.82,-9.04 63.42,-16.33 -50.61,-7.69 -101.26,-15.1 -151.84,-23.01l-9.59 -1.5 0.69 -19.41 9.68 -0.8c90.27,-7.53 180.69,-12.97 271.02,-19.76 0.99,-0.63 2.61,-2.1 3.64,-2.95 10.56,-9.34 21.6,-18.12 31.99,-27.65 7.44,-6.83 15.45,-13.04 24.27,-17.85 -19.01,-29.26 -27.17,-64.37 -28.81,-99.06 -0.86,-18.2 -0.62,-36.44 0.3,-54.63l1.29 -25.45 9.98 10.49c0.6,-8.14 1.62,-16.24 3.27,-24.26l4.25 -20.74 14.46 15.47c6.37,6.82 11.93,14.38 18.42,21.05 18.87,19.41 40.96,35.26 63.78,49.86 -4.6,-12.2 -8.71,-24.57 -11.8,-37.29 -0.45,-1.67 -0.85,-4.01 -1.35,-5.41 -9.56,-9.41 -18.04,-19.95 -25.15,-31.31 -15.98,-25.51 -25.12,-55.44 -23.56,-85.68 1.82,-35.26 20.81,-68.27 48.17,-90.07l38.68 -30.82 -22.07 44.26c-7.66,15.37 -12.17,32.09 -13.88,49.14 10.27,-30.09 26.86,-58.02 48.64,-81.29 27.84,-29.75 63.6,-53.19 103.71,-62.05l0.18 -0.04 0.19 -0.04c47.52,-8.78 96.75,-3.45 142.82,10.18l48.93 14.47 -50.56 6.86c-12.69,1.72 -25.18,0.33 -37.8,1.31l-0.22 0.02 -0.22 0.01c-38.96,1.46 -79.71,7.98 -113.09,29.37 -23.57,15.1 -41.79,36.96 -55.61,61.18zm583.34 929.33l-4.35 19.07 34.98 0 4.35 -19.07 -34.98 0zm-430.95 0l-4.35 19.07 106.83 0 -28.09 -19.07 -74.39 0zm-330.24 19.07l76.75 0 34.66 19.3 3.76 -16.47 -46.14 -21.9 -64.73 0 -4.3 19.07zm-11.65 50.75l-4.16 18.23 77.29 0 4.2 -18.42 -77.33 0.19zm-194.71 9.03l-35.62 0 -4.13 16.78 35.62 0 4.13 -16.78zm-17.63 -78.85l-4.35 19.07 35.62 0 4.35 -19.07 -35.62 0zm-331.69 69.75l-35.76 0.07 -4.15 18.23 35.79 0 4.12 -18.3zm-19.83 -69.76l-4.35 19.08 35.94 0 4.34 -19.13 -35.93 0.05zm-151.51 19.08l34.48 19.37 3.45 -16.54 -46.13 -21.9 -64.74 0 -4.29 19.07 77.23 0zm-11.58 50.56l-77.31 0.19 -4.16 18.23 77.32 0 4.15 -18.42zm318.23 -90.11l-11.09 -32.24 -2.09 18.91 10.16 26.59 3.02 -13.26zm120.17 0.85l-16.44 -33.07 -4.3 18.89 17.3 29.25 3.44 -15.07zm214.97 -32.98l-4.29 18.8 14.24 29.25 3.54 -15.52 -13.49 -32.53zm232.62 32.22l-11.61 -32.31 -2.16 18.89 10.16 29.25 3.61 -15.83zm106.92 0.05l-11.91 -32.36 -2.79 18.89 11.41 27.91 3.29 -14.44zm342.39 -32.36l-39.21 37.79 -4.31 18.89 39.21 -37.79 4.31 -18.89zm-118.61 32.3l-11.54 -32.3 -4.3 18.89 12.22 29.25 3.62 -15.84zm188.83 -13.41l14.76 29.35 3.55 -15.57 -13.8 -32.67 -4.51 18.89zm186.97 135.17c-9.87,43 -76.58,47.1 -111.07,47.1l-96.02 0 -4.02 17.62 96.02 0 37.78 0c40.22,0 68.61,-26.56 77.31,-64.72zm-414.33 47.1l-4.02 17.62 196.49 0 4.02 -17.62 -196.49 0zm-223.75 0l-4.02 17.62 196.31 0 4.02 -17.62 -196.31 0zm-106.94 0l-4.02 17.62 80.29 0 4.01 -17.62 -80.28 0zm-219.09 0l-4.02 17.62 80.63 0 4.02 -17.62 -80.63 0zm-112.01 0l-4.03 17.62 78.42 0 4.02 -17.62 -78.41 0zm-116.31 0l-4.02 17.62 80.69 0 4.02 -17.62 -80.69 0zm-120.36 0l-4.03 17.62 80.12 0 4.02 -17.62 -80.11 0zm-111.78 -12.02l-6.77 29.64 80.43 0 6.8 -29.81 -2.79 12.19 -80.38 0 2.71 -12.02zm-118.76 12.02l-4.02 17.62 80.07 0 4.02 -17.62 -80.07 0zm-144.41 0l-80.62 0 -4.02 17.62 17.81 0 62.81 0 4.02 -17.62z"/>
   <path class="fil1" d="M1706.88 1225.44l-13.93 -32.98 120.89 0.31c25.74,0.07 75.37,4.81 84.77,34.61 1.7,5.39 1.79,11.03 0.53,16.52l-23.6 102.93c-9.87,43 -76.58,47.1 -111.07,47.1l-96.02 0 38.43 -168.49zm-439.64 -1021.94c45.82,-8.47 93.3,-3.24 137.73,9.91 -12.33,1.67 -24.81,0.28 -37.18,1.24 -41.02,1.55 -83.52,8.43 -118.58,31.1 -33.03,20.95 -56.04,54.31 -71.6,89.61 45.18,-16.39 92.35,-30.92 140.94,-29.44 22.99,0.75 46.32,5.44 66.65,16.55 -41.47,3.04 -82.51,11.64 -122.1,24.34 -33.62,11.28 -67.39,26.07 -92.83,51.5 -4.33,5.07 -10.72,9.89 -10.31,17.27 -2.04,35.16 5.94,70.12 17.78,103.05 24.57,-23.11 54.4,-42.65 88.43,-47.45 45.41,-6.88 90.36,10.53 135.84,5.12 18.01,-1.48 35.32,-6.99 52.13,-13.35 -16.75,20.99 -39.58,38.1 -66.09,44.21 -39,9.29 -80,-3.39 -118.69,8.24 -31.22,8.94 -55.56,32.67 -73.65,58.73 14.04,22.09 29.24,43.55 46.59,63.19 15.91,-31.03 44.97,-54.57 77.91,-65.53 27.19,-9.09 57.06,-9.18 84.67,-1.84 -31.45,7.24 -64.88,15.26 -89.01,38.25 -18.33,16.99 -26.2,42.46 -25.69,66.97 11.86,8.56 22.86,18.61 36.57,24.27 30.4,13.13 64.2,14.39 96.83,15.49 18.53,-0.22 37.03,-1.23 55.58,-1.16 -18.05,10.05 -36.75,20.09 -57.4,23.39 -50.69,9.29 -103.7,0.82 -150.43,-20.3 12.29,18.24 25.63,35.96 35.58,55.68 4.61,8.52 -0.02,17.99 0.6,26.96 1.84,10.44 8.15,19.28 11.82,29.07 10.01,26.14 16.79,53.53 28.6,78.98 6.88,15.01 16.66,28.56 22.37,44.13 2.53,7.06 3.3,15.96 -2.04,21.96 -5.43,6.07 -11.75,11.23 -17.69,16.79 -14.75,13.21 -32.29,28.09 -53.48,25.82 -19.15,-2.19 -31.14,-18.79 -44.8,-30.37 -26.01,-22.58 -53.56,-45.93 -87.59,-54.78 -6.13,26.13 -13.85,52.21 -27.36,75.61 -24,43.12 -63.9,75.35 -107.54,97.13 5.81,-11.68 12.61,-22.86 18.44,-34.54 -18.94,14.32 -37.76,29.16 -59.27,39.52 0.62,-4.74 1.26,-9.46 1.84,-14.18 -24.23,26.04 -45.69,54.45 -66.71,83.1 1.91,-22.33 2.9,-44.84 0.03,-67.14 -2.49,-23.08 -9.46,-45.35 -17.93,-66.86 -48.25,-9.99 -96.99,-17.69 -145.22,-27.86 41.13,-6.45 82.41,-12.11 123.54,-18.52 0.11,-0.3 0.3,-0.93 0.41,-1.23 -19.45,-27.7 -43.49,-52.02 -70.51,-72.37 12.93,0.22 25.88,0.37 38.81,1.42 -11.28,-7.38 -23.67,-12.74 -35.51,-19.09 -2.85,-1.61 -5.96,-2.74 -9.22,-3.02 -74.32,-8.62 -148.64,-17.31 -222.99,-25.93 -27.46,-3.49 -55.13,-5.79 -82.49,-10.1 70.66,-4.84 141.4,-8.7 212.01,-14 -39.82,-19.75 -81.03,-36.62 -121.47,-55.07 -2.34,-1.17 -4.61,-2.46 -6.87,-3.81 69.35,4.91 139.62,8.36 208.47,-3.52 34.85,-6.37 69.48,-16.1 101.2,-32.08 -63.24,-9.84 -126.61,-18.95 -189.82,-28.84 90.3,-7.52 180.79,-12.97 271.15,-19.77 3.99,-0.11 6.78,-3.28 9.71,-5.53 10.64,-9.42 21.79,-18.27 32.28,-27.9 9.82,-9.01 20.84,-17.05 33.6,-21.38 -23.42,-29.4 -32.9,-67.16 -34.61,-104.11 -0.88,-17.84 -0.6,-35.72 0.3,-53.56 3.41,3.58 6.93,7.05 10.57,10.42 -0.15,-16.06 0.52,-32.21 3.75,-47.99 6.42,6.86 11.99,14.5 18.57,21.21 27.36,28.2 61.03,48.93 94.37,69.15 -9.24,-21.83 -18.35,-43.85 -23.95,-66.97 -1.05,-3.1 -1.18,-6.73 -3.19,-9.41 -29.23,-28.22 -48.81,-68.45 -46.53,-109.66 1.52,-32.14 19.17,-62.25 44.06,-82.09 -15.5,31.1 -19.13,67.27 -13.08,101.28 1.31,7.79 4.08,15.23 7.98,22.09 0.51,-52.75 21.66,-104.67 57.64,-143.16 26.33,-28.09 60.15,-50.45 98.08,-58.84zm-176.56 1041.97l-64.73 0 -5.91 26.21 76.74 0 -9.45 43.42 -77.33 0.19 -17.94 78.64 -80.63 0 38.48 -168.54 -13.49 -32.53 217.51 -0.1 -17.11 74.61 -46.14 -21.9zm488.46 -14.91l-25.38 111.35 64.58 0 57.08 -26.35 -17.69 78.37 -196.51 0 38.52 -168.86 -11.54 -32.3 130.15 0 -39.21 37.79zm-152.86 14.91l-74.39 0 -5.98 26.21 76.87 0 -9.33 43.49 -77.38 0.13 -6.13 26.61 59.68 0 61.69 -25.09 -17.53 77.11 -196.32 0 38.5 -168.8 -11.91 -32.36 215.8 0 -17.41 77.25 -36.16 -24.55zm-257.24 -20.39l-11.61 -32.31 99.26 0 -45.89 201.16 -80.28 0 38.52 -168.85zm-567.76 -0.09l-11.09 -32.24 98.53 0.13 -45.86 201.05 -80.12 0 38.54 -168.94zm-314.85 20.48l-64.74 0 -5.9 26.21 76.73 0 -9.44 43.42 -77.34 0.19 -17.94 78.64 -80.62 0 37.74 -165.28 -40.61 -35.88 245.36 0 -17.11 74.6 -46.13 -21.9zm179.54 69.75l-35.76 0.07 -17.93 78.64 -80.07 0 38.5 -168.78 -11.99 -32.38 117.18 0c19.2,0 41.11,2.11 58.98,9.62 13.3,5.59 26.42,15.38 28.58,30.65 0.52,3.66 0.33,7.35 -0.49,10.95l-34.33 149.94 -80.38 0 17.71 -78.71zm395.49 -18.27c8.54,8.05 17.09,16.1 25.63,24.14l0.14 0.13 0.13 0.13c4.14,4.15 4.78,9.84 3.55,15.24l-13.08 57.34 -78.41 0 15.87 -69.61 -35.62 0 -15.87 69.61 -80.69 0 38.34 -168.09 -16.44 -33.07 122.53 0c19.97,0 43.24,2.34 61.77,10.27 12.99,5.55 28.24,16.75 24.54,32.98l-8.05 35.32c-1.54,6.73 -8.08,13.88 -14.65,16l-29.69 9.61zm921.38 -51.48l-21.98 96.33 34.99 0 21.97 -96.33 -34.98 0zm-1336.7 -0.01l-5.98 26.22 35.95 0 5.96 -26.27 -35.93 0.05zm351.52 0.01l-5.98 26.21 35.62 0 5.98 -26.21 -35.62 0z"/>
   <path class="fil2" d="M1711.3 1204.66l102.51 0.27c43.92,0.08 78.74,12.66 73.48,36.26l-23.6 102.93c-4.98,21.79 -33.99,37.65 -99.22,37.65l-80.78 0 35.91 -157.45 -8.3 -19.66zm-657.31 -698.72c6.3,6.84 12.3,14 19.6,19.86 16.4,14 35.98,23.45 53.2,36.36 16.38,12.03 31.41,26.55 41.3,44.5 13.27,23.61 17.86,50.84 20.5,77.45 7.46,-6.54 17.84,-12.01 27.72,-9.73 13.94,17.73 26.87,36.3 39.91,54.72 9.8,14.69 20.28,29.05 28.2,44.88 5.53,9.91 -0.48,21.68 3.86,31.82 6.41,15.85 14.66,31.57 16.66,48.72 -0.26,17.56 1.71,35.06 3.58,52.5 -7.59,0.3 -16,1 -21.51,6.9 -15.55,15.25 -13.92,43.49 2.7,57.42 -23.18,-1.28 -39.07,-19.7 -56.26,-32.82 -16.75,-12.66 -35.06,-23.21 -54.28,-31.61 -10.05,-4.36 -21.03,-6.61 -30.36,-12.53 -31.39,-20.9 -53.24,-58.77 -48.08,-97.13 1.87,-19.28 12.01,-36.24 23.31,-51.47 -20.91,5.81 -36.32,24.34 -40.91,45.18 -5.06,16.3 -2.19,33.63 -5.66,50.12 -8.95,27.96 -21.02,54.96 -35.96,80.22 -12.59,21.03 -28.12,40.85 -48.87,54.33 6.09,2.32 12.24,4.55 18.35,6.84 -17.6,13.56 -39.97,19.43 -56.78,34.14 -8.43,7.19 -14.86,16.32 -21.06,25.41 -1.93,-5.02 -3.79,-10.06 -5.53,-15.12 -24.06,-4.18 -48.42,-6.39 -72.5,-10.37 20.89,-3.97 42.22,-5.52 63.28,-8.62 -11.52,-23.51 -28.07,-43.94 -44.37,-64.21 15.25,0.54 30.37,2.66 45.33,5.62 -21.46,-19.13 -43.2,-38.12 -66.96,-54.4 -5.51,-3.95 -11.73,-7.01 -18.57,-7.61 -44.9,-6.73 -90.28,-9.65 -135.25,-15.89 33.58,-4.14 67.51,-5.02 101.28,-7.08 -16.32,-9.54 -34.01,-16.57 -51.16,-24.46 -16.54,-7.72 -34.12,-12.93 -50.61,-20.76 3.11,-0.13 6.24,-0.17 9.35,-0.13 44.05,1.99 88.52,-1.35 131.32,-12.24 47.07,-12.16 91.99,-32.94 131.77,-60.88 -29.61,-4.23 -59.42,-6.84 -89.03,-11.02l0.19 -0.95c35.53,-0.17 71.04,-2.59 106.57,-3.41 6.8,0.58 11.37,-5.21 16.39,-8.79 22.4,-18.03 44.92,-38.57 73.89,-44.79 7.33,-2.1 13.79,3.19 20.03,6.13 17.94,9.48 36.66,20.86 57.72,19.77 -8.13,-4.33 -17,-6.99 -25.11,-11.3 -28.99,-14.6 -52.64,-38.94 -67.48,-67.7 -13.23,-24.61 -20.78,-51.91 -25.02,-79.44 5.23,3.28 10.31,6.81 15.26,10.52 -0.64,-16.29 -1.41,-32.65 0.05,-48.95zm21.63 50.46l0 0c1.5,24.03 4.14,49.96 19.32,69.69 -0.53,-9.95 -1.48,-20.25 2.38,-29.7 13.66,11.28 25.26,24.87 35.86,39.02 13.05,17.22 20.28,37.92 32.89,55.41 -2.96,-27.23 -8.94,-54.83 -22.32,-78.97 -14.99,-26.55 -44.78,-37.96 -68.13,-55.45zm116.95 154.58l0 0c0.91,4.46 2.06,8.88 2.84,13.38 4.58,22.8 -4.47,46.36 2.05,68.92 10.15,25.97 41.54,36.07 67.34,33.15 12.37,23.61 23.6,47.99 38.61,70.08 -7.8,-27.26 -17.09,-54.3 -29.97,-79.62 -3.54,-7.36 -0.63,-15.76 -1.33,-23.57 0.08,-24.85 -12.01,-48.85 -30.84,-64.78 7.98,13.51 15.25,27.86 17.44,43.6 -4.14,-5.88 -8.13,-12.36 -14.76,-15.72 -6.35,-4.12 -14.39,-3.71 -21.01,-6.86 -6.97,-8.97 -12.8,-18.98 -21.7,-26.25 -2.1,-4.63 -5.34,-8.58 -8.67,-12.33zm-264.76 158.29l0 0c35.81,7.1 71.37,15.42 107.13,22.65 7.25,-10.83 14.67,-21.55 22.09,-32.25 -43.06,3.13 -86.29,5.02 -129.22,9.6zm26.81 335.74l184.05 -0.08 -10.32 44.96 -34.93 -16.57 -77.2 0 -11.38 50.52 76.85 0 -4.16 19.13 -77.24 0.19 -17.93 78.61 -55.68 0 35.95 -157.45 -8.01 -19.31zm550.83 -0.08l82.76 0 -20.12 19.39 -29.57 129.75 82.49 0 37.12 -17.14 -10.12 44.84 -171.55 0 35.92 -157.45 -6.93 -19.39zm-223.97 0l183.17 0 -10.15 45.01 -24.48 -16.62 -87.83 0 -11.52 50.52 77.07 0 -4.12 19.19 -77.23 0.13 -11.72 50.91 77.33 0 42.28 -17.2 -10.2 44.9 -171.38 0 35.92 -157.45 -7.14 -19.39zm-106.77 0l66.74 0 -40.34 176.84 -55.35 0 35.92 -157.45 -6.97 -19.39zm-567.47 0l66.24 0.08 -40.32 176.76 -55.17 0 35.91 -157.45 -6.66 -19.39zm-470.81 0l197.98 0 -10.31 44.96 -34.94 -16.57 -77.19 0 -11.39 50.52 76.86 0 -4.16 19.13 -77.24 0.19 -17.93 78.61 -55.69 0 35.95 -157.45 -21.94 -19.39zm239.75 0l99.72 0c52.29,0.08 79.58,16.73 75.22,36.34l-32.17 140.5 -55.49 0 17.71 -78.74 -60.66 0.13 -17.93 78.61 -55.13 0 35.91 -157.45 -7.18 -19.39zm60.26 28.39l-11.52 50.52 60.9 0 11.48 -50.61 -60.86 0.09zm288.19 -28.39l102.91 0c49.7,0.06 77.44,15.3 74.46,28.39l-8.06 35.31c-0.59,2.6 -4.13,6.37 -6.53,7.15l-49.25 15.93c13.53,12.74 27.07,25.49 40.6,38.23 0.94,0.94 0.46,3.25 0.3,3.95l-10.92 47.88 -53.48 0 15.87 -69.61 -60.55 0 -15.88 69.61 -55.75 0 35.91 -157.45 -9.63 -19.39zm63.33 28.39l-11.52 50.52 60.56 0 11.52 -50.52 -60.56 0zm985.18 0l-27.52 120.64 59.92 0 27.52 -120.64 -59.92 0z"/>
   <path class="fil3" d="M1192.57 710.98c3.33,3.75 6.57,7.7 8.67,12.33 10.4,22.82 3.36,50.13 16.66,71.98 8.17,13.62 25.07,17.78 39.93,18.1 2.33,4.34 4.67,8.67 6.97,13.04 -25.8,2.92 -57.19,-7.18 -67.34,-33.15 -6.52,-22.56 2.53,-46.12 -2.05,-68.92 -0.78,-4.5 -1.93,-8.92 -2.84,-13.38zm76.02 266.71c14.6,7.01 30.66,9.24 46.45,12.1 -7.7,4.67 -17.41,8.06 -26.27,4.91 -8.09,-3.76 -14.5,-10.3 -20.18,-17.01zm-175.73 -113.82c7.98,24.94 28.89,42.16 49.19,57.13 -5.79,33.55 -16.96,67.5 -39.41,93.75 -8.34,9.69 -18.61,17.73 -30.15,23.31 4.89,-11.69 8.49,-23.91 10.87,-36.35 -9.69,12.39 -18.39,25.71 -30,36.5 -13.44,12.52 -29.76,21.27 -45.91,29.69 3.07,-9.35 6.52,-18.59 9.07,-28.11 -15.67,7.01 -27.59,19.9 -38.61,32.66 -11.16,12.84 -20.53,27.04 -30.84,40.53 -0.66,-24.92 7.01,-50.48 23.48,-69.48 15.93,-19.02 37.96,-31.16 58.52,-44.39 12.16,-7.8 24.55,-16.85 30.45,-30.57 -8.45,0.77 -16.94,1.33 -25.35,2.33 17.11,-13.06 28.29,-31.95 38.13,-50.73 8.77,-17.95 16.66,-36.58 20.56,-56.27zm215.66 43.15c-1.87,-17.44 -3.84,-34.94 -3.58,-52.5 9.35,25.99 19.25,51.87 31.48,76.66 -5.41,-0.99 -11.88,-0.41 -13.92,5.66 -3.6,10.74 1.26,21.9 4.52,32.08 1.36,-4.8 2.53,-9.65 3.78,-14.47 4.07,0.85 9.07,4.86 8.19,9.26 -5.34,4.83 -10.01,12.7 -18.25,11.77 -10.46,0.39 -21.14,-0.55 -31.03,-4.14 -16.62,-13.93 -18.25,-42.17 -2.7,-57.42 5.51,-5.9 13.92,-6.6 21.51,-6.9zm-84.27 -145.95c2.57,0.52 5.14,1.05 7.74,1.57 -0.35,1.82 -1.01,5.44 -1.35,7.24 6.28,3.89 12.73,7.85 16.79,14.24 -5.82,-2.55 -11.69,-4.99 -17.76,-6.84 0.45,11.22 8.51,19.84 18.21,24.43 -8.28,0.32 -17.18,-3.43 -21,-11.11 -4.82,-9.05 -4.03,-19.73 -2.63,-29.53z"/>
  </g>
 </g>
</svg>
