<?xml version="1.0" encoding="UTF-8"?>
<!DOCTYPE svg PUBLIC "-//W3C//DTD SVG 1.1//EN" "http://www.w3.org/Graphics/SVG/1.1/DTD/svg11.dtd">
<!-- Creator: CorelDRAW -->
<svg xmlns="http://www.w3.org/2000/svg" xml:space="preserve" width="2000px" height="1600px" version="1.1" style="shape-rendering:geometricPrecision; text-rendering:geometricPrecision; image-rendering:optimizeQuality; fill-rule:evenodd; clip-rule:evenodd"
viewBox="0 0 2000 1600"
 xmlns:xlink="http://www.w3.org/1999/xlink">
 <defs>
  <style type="text/css">
   <![CDATA[
    .fil3 {fill:#FEFEFE}
    .fil2 {fill:#0E6B38;fill-rule:nonzero}
    .fil0 {fill:#233A81;fill-rule:nonzero}
    .fil1 {fill:#EE4822;fill-rule:nonzero}
   ]]>
  </style>
 </defs>
 <g id="Capa_x0020_1">
  <metadata id="CorelCorpID_0Corel-Layer"/>
  <g id="Florida_x0020_Gators.cdr">
   <path class="fil0" d="M633.87 452.18c13.28,-12.56 30.17,-24.22 49.3,-22.95 14.78,0.75 27.04,10.42 36.77,20.77 15.2,16.09 27.98,34.62 45.54,48.35 19.59,15.2 42.62,28.42 68.09,28.7 10.77,0.73 21.29,-2.1 31.98,-2.65 4.04,-0.41 9.42,2.34 8.77,7.05 0.07,4.34 -4.17,6.89 -7.67,8.34 -8.93,3.39 -18.63,3.65 -27.75,6.29 -3.03,0.62 -4.84,3.32 -6.79,5.44 -23.99,29.47 -56.62,52.57 -93.57,62.32 -23.42,6.31 -48.22,7.46 -72.13,3.45 -3.84,-1.06 -11.35,-2.14 -9.87,-7.74 5.64,-3.79 12.8,-2.89 19.21,-3.28 20.02,-0.37 41.6,-3.77 57.04,-17.63 -14.07,-1.41 -28.66,-3.52 -40.76,-11.44 -15.91,-9.8 -25.86,-27.16 -29.34,-45.26 -5.01,-24.94 -0.83,-50.6 5.94,-74.78 -12.23,-0.43 -22.96,5.83 -33.88,10.34 -3.08,0.98 -7.72,3.07 -9.92,-0.4 -0.35,-6.35 5.07,-10.76 9.04,-14.92zm-286.1 117.93c50.76,-41.44 108.56,-73.48 168.41,-99.77 0.41,3.61 0.69,7.23 1.05,10.86 -30.57,7.67 -60.51,18.98 -87.35,35.63 -22.29,13.71 -34.71,40.2 -34.04,66 -0.03,13.91 4.62,27.25 9.89,39.96 -18.75,3.49 -37.6,7.79 -54.8,16.24 -20.33,10.21 -35.46,30.57 -37.89,53.35 -2.81,25.76 7.06,50.52 14.78,74.6 -17.81,11.03 -34.66,23.65 -50.04,37.86 -19.4,17.45 -33.18,43.73 -29,70.34 2.25,17.93 13.04,33.06 23.57,47.15 17.39,22.55 37.22,43.76 61.16,59.48 3.67,1.73 3.86,6.07 5.12,9.44 14.86,48.57 47.43,90.08 86.43,121.88 47.77,38.89 104.84,65.49 164.19,81.22 39.74,10.26 81.03,16.04 122.1,13.13 5.93,-0.6 10.52,4.08 15.78,6.1 29.61,13.43 62.19,18.44 94.3,21.72 41.09,3.81 82.5,3.14 123.53,-0.94 35.13,-3.67 70.15,-9.71 103.93,-20.16 11.5,-3.4 21.3,-11.57 26.26,-22.56 42.44,3.44 85.23,1.19 127.27,-5.37 22.13,-3.72 44.35,-8.24 65.17,-16.83 8.54,-3.13 15.77,-8.91 21.35,-16.02 46.65,2.79 93.96,1.74 139.72,-8.39 27.66,-6.45 55.44,-16.29 77.52,-34.7 3.92,-3.03 6.8,-7.37 11.07,-9.85 12.39,-1.43 24.86,-0.42 37.3,-0.25 8.7,0.31 17.52,0.59 25.99,2.86 -38.75,27.82 -80.6,51.15 -123.99,70.91 -124.06,56.11 -259.43,84.46 -394.92,93.03 -155.17,9.15 -312.74,-6.41 -461.04,-54.09 -64.78,-20.98 -127.75,-48.23 -185.84,-83.91 -55.07,-33.92 -106.21,-75.64 -145.27,-127.54 -32.75,-43.41 -56.03,-94.91 -61.34,-149.38 -5.44,-51.43 5.65,-103.97 29.02,-149.91 26.1,-51.83 65.84,-95.68 110.61,-132.09zm1214.79 -117.45c13.34,-1.07 30.44,-1.9 39.17,10.36 9.34,13.08 23.27,22.31 38.52,27.06 8.81,3.22 18.31,3.77 27.22,6.66 2.39,1.08 6.27,2.41 5.38,5.77 -3.45,3.81 -9.03,3.53 -13.71,3.71 -23.95,-0.2 -47.79,-8.61 -66.58,-23.46 -4.01,-2.87 -8.08,-6.17 -13.13,-6.77 -3.81,0.27 -6.58,3.17 -9.31,5.48 -11.78,11 -24.82,21.03 -39.72,27.42 -7.83,3.25 -18,5.09 -25.12,-0.65 -5.41,-4.57 -4.34,-12.9 -0.96,-18.36 5.16,-8.24 13.22,-14.05 21,-19.63 11.46,-7.49 23.3,-15.8 37.24,-17.59zm-528.23 -69.07c108.51,3.83 216.5,22.24 320.15,54.56 -15.19,2.83 -30.73,3.26 -46.12,3.38 -67.81,1.03 -134.87,-10.61 -201.65,-20.82 -9.06,-1.68 -18.84,-1.15 -27.02,-5.97 -16.16,-8.72 -31.47,-19.15 -45.36,-31.15zm-250.61 -102.57c41.09,-31.29 94.23,-45.69 145.54,-41.05 31.72,2.67 62.76,12.91 89.78,29.76 10.26,6.19 20.14,12.92 29.66,20.19 2.9,2.09 5.83,4.76 9.64,4.71 140.36,7.72 280.23,35.72 410.6,88.93 -6.61,3.72 -12.95,7.86 -19.14,12.22l-0.71 -0.28c-122.3,-47.66 -252.62,-73.25 -383.45,-81.13 -7.67,-0.91 -16.66,1.01 -22.95,-4.56 -24.16,-18.67 -50.33,-35.95 -80.08,-44.11 -57.73,-16.15 -123.11,-3.97 -170.27,33.29 -2.84,2.28 -6.49,4.16 -10.16,2.64 -7.63,-2.71 -14.44,-7.27 -21.93,-10.28 -49.08,-20.85 -104.8,-26.74 -156.9,-14.85 -59.94,13.73 -111.42,57.52 -136.44,113.43 -4.38,8.7 -6.61,18.25 -10.58,27.1 -3.67,3.47 -8.86,4.87 -13.29,7.19 -75.37,36.02 -146.63,82.28 -205.56,141.87 -44.97,45.92 -82.45,100.46 -102.34,161.98 -18.18,55.24 -20.77,115.54 -7.04,172.07 12.71,53.58 39.28,103.16 73.3,146.18 40.47,51.29 91.11,93.8 145.7,129.34 57.48,37.3 119.7,66.92 183.98,90.49 148,54.04 306.37,76.7 463.58,75.44 148.96,-1.97 298.46,-25.6 438.4,-77.62 102.53,-38.52 201.1,-92.4 280.05,-169.23 6.86,-5.19 15.31,-7.67 22.86,-11.67 10.7,-4.93 20.25,-11.84 29.66,-18.84 -13.38,18.45 -29.93,34.29 -46.14,50.2 -73,68.78 -161.41,119.42 -253.95,157.03 -69.12,28.03 -141.09,48.66 -214.2,63.24 -144.38,28.44 -293.18,33.33 -439.3,16.55 -81.59,-9.57 -162.48,-26.08 -240.84,-50.89 -69.81,-22.2 -137.74,-50.9 -201.1,-87.77 -51.79,-30.16 -100.57,-65.88 -143.06,-108.24 -32.81,-32.94 -61.78,-69.99 -83.72,-111.08 -31.93,-59.05 -48.1,-127.2 -42.08,-194.31 4.71,-57.36 25,-112.74 55.14,-161.52 34.68,-56.24 82,-103.78 134.36,-143.66 45.64,-34.78 95.39,-64 147.2,-88.59 3.65,-1.26 3.93,-5.56 5.35,-8.59 23.85,-66.52 81.54,-120.11 150.21,-137.51 63.26,-15.97 132.13,-7.45 190.22,21.93zm101.39 49.29c17.15,-3.4 34.88,-2.6 52.04,0.39 14.97,2.57 28.08,10.9 40.15,19.72 26.22,19.72 50.33,42.22 77.76,60.4 11.55,7.29 22.87,16.78 37.1,17.76 45.32,7.23 90.65,14.76 136.34,19.17 37.94,3.28 76.19,6.34 114.21,2.48 21.28,-2.18 42.62,-5.56 62.8,-12.9 12.61,-4.66 25.08,-10.7 34.69,-20.34 11.53,-11.66 23.86,-22.84 38.52,-30.46 29.27,-14.7 60.93,-25.51 93.71,-28.49 20.3,-2.43 41.6,-0.6 60.1,8.65 22.07,-15.31 47.06,-28.14 74.29,-30.16 22.01,-2.09 45.27,4.57 61.3,20.18 16.96,16.75 25.91,39.69 42.37,56.86 7.56,7.76 17.1,13.8 27.78,16.12 21.28,4.91 41.67,17.37 52.59,36.75 13.66,23.83 11.36,54.68 -2.55,77.89 -3.02,5.62 -7.41,10.35 -10.4,15.95 -1.46,5.24 -1.39,10.77 -2.27,16.12 -5.85,39.69 -23.67,77.23 -49.47,107.83 25.34,54.87 35.98,116.52 29.75,176.67 -5.16,52.36 -23,103.22 -50.8,147.84 -5.39,10.1 -14.23,17.56 -22.34,25.37 -37.05,33.63 -83.88,58.22 -134.2,62.81 -19.49,1.95 -39.44,2.13 -58.63,-2.35 -24.84,-6.67 -50.83,-4.59 -76.28,-5.04 -13.14,14.74 -29.69,26.16 -48.01,33.45 -33.52,13.74 -69.93,18.09 -105.81,20.52 -25.18,1.58 -50.45,1.17 -75.61,-0.76 -3.82,5.76 -8.31,11.36 -14.53,14.67 -13.18,7.37 -28.2,10.31 -42.75,13.8 -52.02,11.1 -105.72,14.13 -158.68,9.5 -1.31,4.78 -2.43,9.94 -5.92,13.7 -5.05,5.56 -12.21,8.5 -19.06,11.16 -15.77,5.53 -32.31,8.26 -48.66,11.3 -29.2,5.12 -58.66,8.86 -88.29,10.19 -39.74,1.01 -79.78,0.73 -119.01,-6.43 -24.04,-4.25 -47.82,-11.29 -69.01,-23.58 -26.69,1.22 -53.56,0.95 -80,-3.37 -71.49,-11.15 -141.59,-37.6 -198.92,-82.37 -43.8,-33.93 -80.12,-80.09 -93.91,-134.48 -22.46,-15.36 -42.93,-33.77 -60.22,-54.8 -11.16,-14.02 -21.35,-29.52 -25.41,-47.19 -2.9,-15.25 1.61,-31.14 9.52,-44.22 6.55,-11.02 16.58,-19.19 26.11,-27.5 14.18,-11.92 28.94,-23.35 45.34,-32.03 -6.38,-17.46 -12.45,-35.12 -15.91,-53.42 -2.53,-14.89 -2.11,-30.98 5.23,-44.53 7.79,-14.67 22.17,-24.82 37.58,-30.28 17.35,-6.17 35.47,-9.89 53.69,-12.44 -10.07,-19.38 -16.73,-41.53 -13.29,-63.52 3.27,-16.71 12.91,-32.53 27.53,-41.64 28.28,-18.1 60.63,-28.72 93.09,-36.55 -4.73,-35.65 3.12,-73.76 25.14,-102.66 16.82,-22.85 43.11,-37.45 70.61,-43.21 47.47,-9.27 98.34,1.9 138.1,29.25 18.42,-1.06 36.85,-0.39 55.28,-0.02 15.92,-21.91 40.64,-36.9 67.22,-41.76zm-29.93 49.03l0 0c27,6.04 53.79,14.16 78.1,27.67 7.16,3.69 13.91,9.63 22.51,8.86 25.56,-0.3 50.86,3.74 76.29,5.48 -14.07,-7.87 -27.02,-17.56 -39.92,-27.22 -10.88,-8.02 -20.48,-17.77 -32.18,-24.68 -16.08,-9.62 -35.13,-15.09 -53.93,-12.95 -18.74,2.2 -36.59,10.58 -50.87,22.84zm804.1 8.04l0 0c21.28,18.48 33.45,46.57 58.93,60.35 15.01,8.28 31.68,-5.97 46.89,0.69 4.44,4.27 -2.33,11.52 1.82,15.98 2.25,3.35 7.72,7.6 3.7,11.75 -8.08,2.75 -16.67,0.16 -24.71,-1.49 -31.99,-7.72 -61.15,-25.25 -84.89,-47.8 -10.22,-9.21 -19.1,-20.06 -30.85,-27.43 -11.89,-7.56 -26.06,-10.72 -39.99,-11.23 -22.75,-0.71 -45.32,4.75 -66.35,13.09 -26.1,10.56 -51.39,23.97 -72.84,42.4 -13.08,11.07 -23.48,24.86 -36.27,36.23 -13.34,12.32 -28.76,22.36 -45.48,29.45 -7.07,2.98 -15.51,6.01 -22.61,1.49 6.17,-6.96 14.74,-10.86 21.99,-16.51 11.19,-8.65 23.35,-16.78 31.16,-28.87 -13.2,3.14 -26.41,6.54 -40,7.52 -46.19,3.77 -92.83,4.75 -138.91,-0.89 -30.02,-3.81 -59.61,-10.33 -89.55,-14.6 -38.84,-5.95 -77.87,-10.79 -117.07,-13.46 -22.99,-1.63 -46.08,-1.03 -69.06,-2.56 -18.43,-1.24 -32.83,-14.19 -49.77,-20.02 -31.95,-11.55 -65.84,-19.12 -99.95,-18.25 8.38,16.13 22.43,28.23 36.59,39.18 14.28,10.79 28.79,21.37 44.47,30.1 4.26,2.6 10.7,6.47 7.73,12.42 -7.76,3.58 -16.09,-0.76 -23.18,-3.97 -39.51,-18.44 -70.29,-50.12 -103.42,-77.6 -23.03,-19.14 -51.52,-32.67 -81.73,-34.3 -28.76,-1.67 -58.97,4.25 -82.76,21.15 -16.27,11.46 -26.58,29.84 -30.64,49.08 -5.49,25.28 -2.66,52.2 6.88,76.17 3.1,8.31 9.28,15.13 11.9,23.6 1.3,2.89 -1.77,6.57 -4.78,5.12 -10.28,-3.38 -17.15,-12.42 -25.73,-18.55 -11.14,19.86 -21.97,40.98 -23.33,64.14 -1.37,18.73 4.92,37.7 16.55,52.36 3.52,4.82 7.74,9.58 8.96,15.62 0.76,2.91 -1.7,5.76 -4.78,4.75 -13.29,-3.28 -20.77,-15.86 -31.13,-23.62 -2.34,-2.14 -4.88,0.23 -7.11,1.28 -26.36,15.87 -49.89,36.43 -69.1,60.47 -37.54,46.67 -59.55,104.59 -67.52,163.63 -5.64,39.86 -6.75,81.73 7.37,120.04 15.91,43.97 47.54,80.67 84.55,108.52 50.11,37.62 110.17,60.53 171.62,71.26 39.44,6.81 79.96,4.96 119.1,-2.85 35.19,-6.68 69.52,-17.27 102.85,-30.33 26.15,-10.4 51.7,-22.7 75.25,-38.19 8.36,-5.33 15.38,-13.04 25.05,-16.05 8.63,-2.67 17.81,-2.23 26.74,-2.12 91.6,3.63 183.4,-0.07 274.67,-8.49 18.34,-1.47 36.48,-5.28 54.96,-4.91 18.35,-0.34 36.44,3.33 54.69,4.66 26,2.07 52.09,2.2 78.14,2.53 42.52,-0.49 85.15,-2.51 127.59,1.58 28.22,1.67 57.09,6.59 85.01,-0.28 33.52,-7.69 64.58,-24.79 90.15,-47.65 14.51,-13.12 27.45,-29.64 30.76,-49.43 0.81,-4.41 0.99,-10.01 -2.69,-13.22 -5.78,-2.46 -11.95,0.59 -17.17,3.01 -21.37,11.22 -44.69,18.06 -68.09,23.61 -34.63,7.99 -69.99,12.4 -105.43,14.79 -74.54,4.71 -150.14,3.95 -223.48,-11.5 -35.06,-8.38 -67.86,-23.76 -100.78,-38.07 -27.46,-12.32 -54.5,-25.77 -82.83,-36.01 -36.75,-12.06 -77,-11.39 -114.05,-0.97 -29.82,8.68 -56.02,25.86 -82.83,41.01 -31.59,18.22 -62.99,36.84 -95.5,53.42 -10.74,5.32 -21.85,10.12 -33.61,12.64 -24.05,5.21 -49.76,1.49 -71.62,-9.68 -28.4,-14.14 -50.28,-38.83 -79.82,-50.99 -32.26,-13.61 -68.64,-13.87 -102.59,-7.16 -19.31,4.02 -38.68,10.83 -53.88,23.8 -14.53,12.05 -26.29,28.06 -44.03,35.79 -7.4,3.45 -17.34,4.04 -23.35,-2.43 -6.57,-6.06 -6.45,-15.5 -7.21,-23.72 -0.94,-11.47 -8.01,-20.96 -12.42,-31.26 -13.48,-29.2 -20.38,-63.43 -9.89,-94.68 8.15,-23.05 21.76,-43.75 36.22,-63.29 6.54,-8.05 12.61,-16.76 20.89,-23.13 2.78,-2.16 9.09,-3.77 9.64,1.23 -1.05,8.43 -5.89,15.73 -10.05,22.94 -10.84,16.89 -19.68,34.93 -28.44,52.94 -7.35,14.98 -8.25,32.38 -4.6,48.5 5.26,24.45 17.36,46.6 28.2,68.9 10.92,-9.08 21.51,-18.53 32.85,-27.09 3.05,-2.48 7.75,-5.35 5.56,-9.99 -11.32,-46.38 -9.77,-98.56 15.92,-140.1 19.57,-32.4 52.74,-55.92 89.51,-64.61 30.65,-7.27 62.77,-4.15 93.18,2.88 27.43,5.85 54.11,14.55 80.42,24.15 30.26,11.08 62.99,13.38 94.97,11.59 20.06,-1.22 40.4,-3.21 59.37,-10.2 26.44,-9.7 50.34,-24.85 74.29,-39.37 31.01,-18.87 61.1,-39.18 91.52,-58.97 22.94,-14.81 48.49,-27.44 76.24,-29 33.66,-2.64 66.3,7.76 98.1,17.36 38.31,11.32 77.57,23.6 118.04,21.01 28.86,-1.59 55.96,-12.97 81.49,-25.78 36.09,-18.6 71.86,-37.82 107.9,-56.55 23.44,-11.91 47.82,-24.17 74.54,-25.8 26.63,-1.51 53.38,-0.21 79.84,3.19 10.97,1.58 22.43,2.92 33.17,-0.78 22.85,-7.48 41.74,-25.25 52.57,-46.51 6.23,-11.75 6.55,-26.79 -0.98,-38.02 -10.63,-16.29 -28.35,-25.92 -45.44,-34.08 -15.61,-7.54 -31.1,-16.81 -41.63,-30.93 -7.35,-9.53 -10.91,-21.53 -19.11,-30.44 -8.47,-9.43 -21,-14.65 -33.6,-14.83 -22.39,-0.6 -43.49,9.27 -61.87,21.24zm-1212.16 163.4l0 0c-10.21,7.67 -14.97,21.08 -13.17,33.56 2.89,21.17 14.66,39.67 26.31,57.09 11.27,-8.69 21.07,-19.09 32.37,-27.73 0.82,-13.29 0.71,-26.72 3.57,-39.8 4.43,-19.06 11.87,-37.28 20.48,-54.82 -24.58,6.84 -49.17,15.97 -69.56,31.7zm1384.31 39.58l0 0c-8.18,6.65 -19.28,7.6 -29.39,6.79 -3.55,30.37 -19.4,57.33 -34.69,83.17 -4.59,8.73 -13.17,16.21 -13.06,26.71 7.72,2.5 15.41,-0.93 21.79,-5.19 21.86,-14.24 36.92,-36.25 50.6,-57.95 12.72,-20.4 25.18,-42.4 26.21,-67.01 -8.38,2.3 -14.9,8.1 -21.46,13.48zm-112.24 -0.78l0 0c1.96,15.82 1.01,31.86 -2.48,47.4 -7.39,33.15 -19.94,65.04 -36.15,94.84 -1.81,3.87 -5.24,10.31 -0.05,13.03 7.58,0.46 13.85,-5.13 19.51,-9.52 16.97,-15.29 30.51,-34 42.38,-53.4 16.71,-27.66 31.06,-57.09 39,-88.52 -20.06,-6.04 -41.57,-6.98 -62.21,-3.83zm-54.45 7.57l0 0c-29.78,10.59 -53.05,34.16 -83.51,43.34 4.26,22.44 4.59,45.37 3.62,68.14 -1.14,20.8 -3.03,41.71 -8.24,61.94 -1.01,4.5 -1.58,9.94 2.02,13.49 3.53,3.29 8.95,2.17 13.09,0.76 13.65,-5.25 24.33,-15.72 34.32,-26.05 12.41,-13.25 24.21,-27.23 33.26,-43.05 8.98,-15.79 16.76,-32.29 23.41,-49.21 8.98,-23.92 16.42,-49.91 11.74,-75.58 -10.24,-0.18 -20.16,2.82 -29.71,6.22zm-1282.47 69.58l0 0c-9.43,2.96 -18.94,7.47 -24.97,15.62 -6.07,7.83 -7.7,18.34 -5.97,27.96 3.21,19.09 9.71,37.46 16.98,55.35 13.3,-30.77 29.99,-60.31 52.04,-85.72 6.83,-8.15 14.56,-15.48 21.54,-23.53 -20.27,0.2 -40.38,4.15 -59.62,10.32zm819.46 -6.29l0 0c-23.88,5.77 -46.7,17.15 -64.56,34.18 13.3,11.78 24.02,27.69 25.6,45.78 0.99,7.09 -1.35,14.21 -0.16,21.26 1.86,6.22 9.78,5.76 14.51,3.38 12.23,-5.81 22.04,-15.71 30,-26.5 14.56,-20.57 24.18,-45.24 24.64,-70.63 -0.3,-2.73 0.75,-6.91 -2.73,-7.92 -8.84,-2.76 -18.41,-1.41 -27.3,0.45zm286.48 28.04l0 0c-16.77,5.75 -34.09,10.37 -51.86,11.38 9.11,19.86 9.93,42.36 8.15,63.8 -0.46,7.8 -3.95,15.31 -2.88,23.18 0.46,4.27 3.98,8.15 8.45,8.2 8.61,-0.57 15.77,-6.08 22.25,-11.27 35.61,-29.45 55.65,-74.17 62.6,-119.15 -13.13,12.01 -30.09,18.35 -46.71,23.86zm-196.49 -18.87l0 0c5.78,17.67 5.81,36.5 4.86,54.88 -0.57,8.91 -1.14,17.87 -3.32,26.56 -0.97,4.64 -2.57,9.44 -1.33,14.19 3.05,5.88 10.88,5.95 16.59,4.96 11.55,-2.55 21.61,-9.36 31,-16.28 19.83,-14.71 38.77,-33.42 44.88,-58.15 -31.69,-5.55 -62.2,-16.06 -92.68,-26.16zm457.6 63.54l0 0c-3.82,10.22 -10.36,21 -7.05,32.21 9.41,38.24 9.43,78.58 1.08,117.01 15.86,15.38 19.56,38.88 17.63,60 11.87,-3.74 26,-8.01 37.55,-1.08 8.8,6.29 7.35,18.49 6.73,27.96 13.4,-27.54 23.09,-56.9 28.58,-87.02 11.64,-61.3 2.84,-125.53 -21.44,-182.76 -17.73,15.84 -37.45,34.96 -63.08,33.68zm-733.72 28.95l0 0c8.33,13.73 13.59,29.59 13.27,45.77 -0.19,5.4 -2.25,10.58 -2.23,16 0.23,4 4.93,6.73 8.68,5.86 6.98,-1.7 12.17,-7.12 17.14,-12.01 24.29,-25.3 40.59,-61.23 34.51,-96.78 -21.26,17.62 -46.47,29.61 -71.37,41.16zm-386.8 -6.13l0 0c2.96,21.87 10.95,43.89 26.77,59.78 6.59,6.51 14.37,12.58 23.64,14.5 4.67,1.31 9.92,-1.72 10.73,-6.58 1.07,-6.52 0.06,-13.16 0.87,-19.7 2.34,-20.11 10.76,-38.8 20.08,-56.56 -6.58,-2.92 -13.61,-4.8 -20.84,-5.03 -21.03,-0.92 -43.32,1.7 -61.25,13.59zm477.36 -0.12l0 0c-4.59,21.08 -15.04,40.43 -27.64,57.78 -9.18,12.49 -20.34,24.29 -34.8,30.51 -9.89,4.04 -23.3,3.45 -30.21,-5.65 -5.58,-7.3 -4.09,-16.96 -2.73,-25.38 2.06,-11.64 -0.55,-24.29 -8.29,-33.4 -5.67,2.91 -14.47,3.32 -16.62,10.41 -2.59,6.89 -3.88,14.29 -7.44,20.81 -10.84,21.07 -27.69,38.84 -47.49,51.72 -10.04,6.42 -21.31,12.23 -33.55,11.71 -7.5,0.16 -16.11,-2.83 -19.02,-10.38 -3.34,-6.87 0.08,-14.31 2.86,-20.73 4.07,-8.86 6.36,-18.48 7.05,-28.2 0.39,-7.36 1.74,-15.07 -1.35,-22.05 -7.53,3.69 -12.44,10.54 -18.21,16.3 -18.98,17.47 -41.3,31.19 -65.2,40.83 -10.19,4.13 -21.51,6.73 -32.43,4.32 -7.69,-1.74 -14.39,-8.45 -14.7,-16.55 -0.52,-8.49 4.5,-15.82 7.81,-23.26 5.55,-12.16 10.15,-25.16 10.52,-38.65 -1.82,-3.01 -5.4,-4.23 -8.43,-5.65 -12.63,-4.92 -26.1,-7.03 -39.12,-10.58 -8.91,14.89 -16.83,30.83 -19.6,48.11 -1.43,8.17 0.11,16.58 -1.86,24.68 -2.03,7.8 -10.08,12.3 -17.65,13.09 -13.67,1.63 -27.23,-3.97 -38.09,-11.96 -18.87,-14.21 -31.7,-35.18 -39.21,-57.33 -19.75,10.06 -34.35,28.4 -41.44,49.22 -11.71,33.88 -10.15,70.76 -3.7,105.55 5.63,-1.09 11.26,-2.2 16.88,-3.35 2.32,-22.84 12.94,-44.26 26.86,-62.23 8.93,-11.78 22.84,-21.58 38.2,-20.3 8.54,0.58 14.96,7.72 16.78,15.75 5.05,18.69 6.38,40.09 21.3,54.27 2.92,-12.67 7.12,-25.09 13.5,-36.47 6.11,-10.89 14.6,-21.59 26.82,-25.76 9.15,-3.33 20.79,-0.65 26.28,7.73 4.52,6.89 3.07,15.52 3.31,23.3 -0.56,23.7 12.39,44.72 24.29,64.24 1.79,2.32 3.73,7.14 7.45,5.12 13.68,-5.76 22.36,-19.66 25.58,-33.7 2.64,-10.86 -1.24,-23.37 5.69,-33.01 4.45,-6.3 13.13,-6.78 20,-5.12 11.84,3.25 22.04,11.2 29.38,20.91 15.61,21.3 18.71,48.39 23.09,73.69 11.65,-4.94 21.88,-12.9 29.55,-22.98 14.51,-19.24 21.49,-43.09 24.86,-66.67 1.63,-9.82 0.65,-20.26 4.71,-29.56 2.68,-6.25 9.61,-9.55 16.18,-9.33 9.18,0.31 17.5,4.83 25.1,9.63 15.76,10.03 29.29,23.07 41.96,36.7 9.29,-4.77 18.98,-8.58 28.97,-11.52 19.58,-6.18 31.09,-25.76 36.18,-44.52 3.49,-10.92 0.73,-22.56 3.37,-33.58 1.64,-7.05 7.76,-12.54 14.83,-13.85 8.54,-1.62 16.97,1.86 24.31,5.93 14.06,8.29 26.04,19.65 36.85,31.79 17.98,20.85 32.76,44.66 41.83,70.75 21.62,-5.89 38.75,-22.44 50.09,-41.2 4.52,-7.1 6.36,-15.38 9.16,-23.21 2.8,-7.85 9.91,-14.99 18.69,-14.88 10.32,-0.23 19.37,6.16 26.08,13.46 9.22,10.51 13.52,24.2 17.35,37.39 6.95,24.38 12.35,49.57 11.27,75.09 20.69,-4.59 40.17,-13.66 57.9,-25.16 22.11,-13.79 41,-32.67 54.49,-55 -28.94,-10.6 -56.56,-24.31 -84.38,-37.46 -30.03,-14.49 -60.9,-27.19 -91.95,-39.28 -24.53,-9.17 -49.63,-17.33 -75.61,-21.13 -8.57,-1.53 -14.26,6.8 -21.38,10.04 -10.55,6.13 -24.01,11.48 -35.83,5.67 -8.93,-4.46 -11.98,-14.69 -13.68,-23.76 -11.96,-0.99 -23.9,-2.07 -35.77,-3.7zm-309.69 11.37l0 0c0.28,16.55 -6.35,32.11 -13.79,46.53 -3.17,6.43 -8.82,11.68 -10.33,18.87 -0.97,4.66 4.13,6.84 7.94,6.63 9.8,-0.75 19.06,-4.49 28.1,-8.1 22.27,-9.73 43.52,-24.79 55.12,-46.69 -23.03,-2.34 -45.96,-7.53 -67.04,-17.24zm109.42 19.95l0 0c1.81,15.86 0.16,31.97 -3.76,47.4 -1.61,6.7 -5.47,12.6 -7.13,19.26 -0.57,5.17 5.88,6.24 9.65,5.03 11.66,-3.1 21.39,-10.88 30,-19.05 17.03,-16.74 31.89,-37.52 34.73,-61.87 -20.42,6.66 -41.96,10.71 -63.49,9.23zm-592.95 36.95l0 0c-11.5,9.32 -23.25,20.64 -26.03,35.82 -1.93,13.04 5.32,25.11 12.85,35.1 11.6,14.8 24.29,29.09 39.68,40.04 -0.47,-47.92 5.07,-96.05 19.07,-141.99 -16.8,7.73 -31.17,19.65 -45.57,31.03zm806.35 -12.27l0 0c-0.92,5.78 1.54,11.54 1.13,17.39 -1.01,20.37 -10.22,40.36 -25.21,54.23 19.47,-4.27 39.6,-2.6 59.21,-0.23 16.06,2.02 32,6.42 45.89,14.9 -9.53,-23.49 -25.58,-43.62 -41.81,-62.81 -8.31,-9.28 -16.75,-19.1 -27.98,-24.89 -3.44,-1.69 -9.57,-3.42 -11.23,1.41zm171.39 49l0 0c-10.44,21.91 -27.18,43.03 -51.17,50.51 16.81,6.24 33.52,12.81 49.89,20.15 13.57,5.88 26.95,12.47 38.82,21.4 3.28,-18.2 0.37,-36.7 -3.24,-54.59 -3.39,-16.55 -6.06,-33.66 -14.21,-48.67 -2.2,-3.7 -4.64,-8.26 -9.41,-8.83 -7.28,3.97 -7.19,13.38 -10.68,20.03zm-653.38 2.41l0 0c-8.08,3.15 -13.2,10.66 -17.89,17.54 -9.69,14.84 -16.62,31.69 -18.2,49.45 23.07,-6.26 47.86,-9.98 71.3,-3.46 -10.15,-10.86 -15.86,-25 -19.85,-39.1 -1.96,-6.34 -1.59,-13.15 -3.45,-19.49 -1.51,-4.87 -7.44,-6.72 -11.91,-4.94zm326.18 6.32l0 0c-0.16,8.36 1.01,16.82 -0.55,25.12 -3.1,17.67 -7.29,35.49 -16.04,51.32 22.01,-16.76 48.35,-25.98 73.37,-37.12 -8.15,-14.67 -21.42,-25.39 -34.42,-35.56 -4.84,-3.58 -9.77,-7.57 -15.77,-8.86 -3.28,-1.28 -6.88,1.72 -6.59,5.1zm-236.29 -0.14l0 0c-8.92,5.95 -13.13,16.3 -17.38,25.69 -5.44,12.1 -8.85,25.11 -9.32,38.4 13.87,4.82 26.63,12.2 39.35,19.41 11.18,6.91 22.82,13.5 32.05,23.04 -1.67,-13.17 -8.75,-24.67 -16.14,-35.35 -10.7,-17.43 -19.33,-37.58 -17.42,-58.47 0.05,-4.29 0.89,-9.23 -1.75,-12.93 -2.22,-3.35 -6.65,-1.32 -9.39,0.21zm746.74 22.73l0 0c-6.98,14.02 -18.35,25.27 -30.56,34.82 -20.7,16.05 -43.94,29.29 -69.22,36.53 20.92,7.48 43.3,8.75 65.25,10.26 17.05,0.85 34.14,1.56 51.21,0.82 6.96,-28.55 5.28,-58.19 4.35,-87.28 -0.12,-4.96 -3.4,-11.87 -9.37,-10.24 -5.92,3.06 -8.68,9.51 -11.66,15.09zm130.41 0.87l0 0c-5.95,12.69 -15.19,23.46 -24.95,33.36 -18.87,18.55 -38.61,37.64 -63.57,47.63 31.57,4.18 63.8,4.18 95.32,-0.46 4.59,-1.45 12.65,-0.52 13.15,-7 3.93,-24.31 5.99,-49.26 2.71,-73.78 -0.76,-5.76 -3.38,-13.46 -10.12,-14.08 -6.62,1.86 -9.58,8.78 -12.54,14.33zm-88.03 -10.3l0 0c4.08,21.23 4.38,42.99 2.8,64.5 22.24,-11.61 40.63,-29.25 56.35,-48.57 -19.88,-4.69 -39.62,-9.94 -59.15,-15.93zm132.94 40.35l0 0c-0.24,14.72 -1.68,29.38 -3.75,43.94 10.98,-0.39 22.09,-1.2 32.74,-4.04 2.2,-2.13 2.76,-5.31 3.7,-8.1 3.97,-14.74 6.49,-30.7 1.56,-45.55 -1.38,-5.72 -5.15,-10.35 -10.26,-13.15 -12.38,3.72 -18.05,16.61 -23.99,26.9zm75.39 -19.67l0 0c-4.02,9.5 -10.89,17.26 -17.62,24.9 -2.93,2.76 -2.86,6.96 -3.66,10.61 -1.22,6.94 -3.33,13.68 -5.35,20.43 13.12,0.19 27.31,-0.69 38.4,-8.44 8.08,-6.68 7.97,-18.46 7.71,-28.02 -0.98,-9.06 -1.56,-20.01 -9.3,-26.09 -4.93,-3.43 -8.58,2.71 -10.18,6.61zm-890.99 -3.59l0 0c-3.56,2.48 -3.84,7.05 -3.04,10.96 2.51,13.5 -3.67,26.63 -10.33,37.99 -8.12,13.75 -26.95,18.53 -31.68,34.6 2.39,5.3 8.36,7.85 13.18,10.58 18.36,9 39.67,5.62 58.49,-0.07 4.57,-1.61 9.78,-3.08 12.74,-7.23 1.06,-8.56 -0.3,-17.22 -1.49,-25.71 -3.72,-19.95 -10.21,-40.18 -23.53,-55.92 -3.37,-4 -9,-7.84 -14.34,-5.2zm477.19 185.27l0 0c-11.41,2.04 -22.91,3.62 -34.46,4.63 -8.15,1.06 -21.58,-0.05 -23.55,10.49 1.54,6.55 8.5,9.12 14.05,11.46 27.64,11.23 57.9,14.39 87.53,13.54 31.48,-1.58 63.36,-4.77 93.32,-15.13 12.12,-4.65 24.56,-9.93 33.8,-19.32 -49.36,0.04 -99.02,2.94 -148.08,-4.12 -7.46,-1.21 -15.05,-2.98 -22.61,-1.55zm-99.51 10.83l0 0c-77.96,5.39 -156.22,9.27 -234.34,6.4 -3.5,0.86 -5.01,5.01 -5.29,8.27 -0.69,7.67 4.83,13.94 10.31,18.55 10.52,8.51 23.12,14 35.82,18.41 37.5,12.6 77.59,15.06 116.85,13.2 35.85,-1.93 71.99,-5.39 106.49,-15.8 6.96,-2.24 14.33,-3.97 20.36,-8.31 2.9,-1.92 4.29,-6.15 1.35,-8.72 -13.36,-15.29 -30.48,-30.21 -51.55,-32zm-301.08 47.5l0 0c-8.98,1.76 -17.1,6.19 -25.51,9.59 -21.53,8.79 -43.54,16.37 -65.9,22.75 -20.44,6.2 -41.49,10.03 -62.12,15.46 41.91,15.93 87.53,16.66 131.77,15.4 41.71,-1.22 83.35,-6.18 123.99,-15.73 9.45,-2.3 19.39,-3.21 28.28,-7.39 2.31,-1.45 6.2,-3.21 4.89,-6.56 -5.56,-4.71 -12.95,-6.16 -19.61,-8.68 -28.14,-10.06 -56.59,-20.11 -86.31,-24.36 -9.74,-1.31 -19.72,-2.27 -29.48,-0.48zm-218.16 -666.98l0 0c-7.83,18.92 -12.85,40.63 -6.17,60.65 4.93,15.45 18.5,27.48 34.32,30.87 16.67,3.38 34.62,4.76 50.78,-1.65 11.09,-4.31 20.01,-12.78 26.61,-22.5 -11.96,-5.07 -24.15,-9.89 -34.9,-17.3 -10.15,12.62 -25.69,22.82 -42.44,21.62 -4.39,0.37 -6.53,-4.59 -3.73,-7.73 5.56,-6.96 12.38,-13.21 15.5,-21.82 1.63,-4.54 4.3,-10.97 -0.46,-14.52 -11.78,-10.93 -24.59,-21.31 -39.51,-27.62z"/>
   <path class="fil1" d="M792.34 298.99c47.16,-37.26 112.54,-49.44 170.27,-33.29 29.75,8.16 55.92,25.44 80.08,44.11 6.29,5.57 15.28,3.65 22.95,4.56 130.83,7.88 261.15,33.47 383.45,81.13 -12.42,8.86 -22.04,21.74 -36.71,27.18 -18.27,8.36 -38.09,12.74 -57.9,15.47 -103.65,-32.32 -211.64,-50.73 -320.15,-54.56 -13.84,-11.44 -27.73,-22.84 -41.67,-34.14 -11.79,-9.18 -23.55,-18.96 -37.74,-24.17 -27.24,-9.94 -57.62,-10.08 -85.3,-1.81 -22.29,6.68 -43.18,19.42 -57.49,37.99 -12.9,0.13 -25.8,-1.13 -38.68,-0.23 -3.67,-0.02 -7.74,0.87 -10.9,-1.47 -33.1,-22.15 -73.7,-31.66 -113.25,-30.28 -28.88,0.96 -58.35,8.89 -81.4,26.88 -34.67,26.45 -52.89,70.91 -51.72,113.98 -59.85,26.29 -117.65,58.33 -168.41,99.77 -44.77,36.41 -84.51,80.26 -110.61,132.09 -23.37,45.94 -34.46,98.48 -29.02,149.91 5.31,54.47 28.59,105.97 61.34,149.38 39.06,51.9 90.2,93.62 145.27,127.54 58.09,35.68 121.06,62.93 185.84,83.91 148.3,47.68 305.87,63.24 461.04,54.09 135.49,-8.57 270.86,-36.92 394.92,-93.03 43.39,-19.76 85.24,-43.09 123.99,-70.91 43.41,13.29 90.76,8.17 132.57,-8.35 -78.95,76.83 -177.52,130.71 -280.05,169.23 -139.94,52.02 -289.44,75.65 -438.4,77.62 -157.21,1.26 -315.58,-21.4 -463.58,-75.44 -64.28,-23.57 -126.5,-53.19 -183.98,-90.49 -54.59,-35.54 -105.23,-78.05 -145.7,-129.34 -34.02,-43.02 -60.59,-92.6 -73.3,-146.18 -13.73,-56.53 -11.14,-116.83 7.04,-172.07 19.89,-61.52 57.37,-116.06 102.34,-161.98 58.93,-59.59 130.19,-105.85 205.56,-141.87 4.43,-2.32 9.62,-3.72 13.29,-7.19 3.97,-8.85 6.2,-18.4 10.58,-27.1 25.02,-55.91 76.5,-99.7 136.44,-113.43 52.1,-11.89 107.82,-6 156.9,14.85 7.49,3.01 14.3,7.57 21.93,10.28 3.67,1.52 7.32,-0.36 10.16,-2.64zm723.97 583.75c19.53,5.99 39.27,11.24 59.15,15.93 -15.72,19.32 -34.11,36.96 -56.35,48.57 1.58,-21.51 1.28,-43.27 -2.8,-64.5zm-410.15 -126.89c11.87,1.63 23.81,2.71 35.77,3.7 1.7,9.07 4.75,19.3 13.68,23.76 11.82,5.81 25.28,0.46 35.83,-5.67 7.12,-3.24 12.81,-11.57 21.38,-10.04 25.98,3.8 51.08,11.96 75.61,21.13 31.05,12.09 61.92,24.79 91.95,39.28 27.82,13.15 55.44,26.86 84.38,37.46 -13.49,22.33 -32.38,41.21 -54.49,55 -17.73,11.5 -37.21,20.57 -57.9,25.16 1.08,-25.52 -4.32,-50.71 -11.27,-75.09 -3.83,-13.19 -8.13,-26.88 -17.35,-37.39 -6.71,-7.3 -15.76,-13.69 -26.08,-13.46 -8.78,-0.11 -15.89,7.03 -18.69,14.88 -2.8,7.83 -4.64,16.11 -9.16,23.21 -11.34,18.76 -28.47,35.31 -50.09,41.2 -9.07,-26.09 -23.85,-49.9 -41.83,-70.75 -10.81,-12.14 -22.79,-23.5 -36.85,-31.79 -7.34,-4.07 -15.77,-7.55 -24.31,-5.93 -7.07,1.31 -13.19,6.8 -14.83,13.85 -2.64,11.02 0.12,22.66 -3.37,33.58 -5.09,18.76 -16.6,38.34 -36.18,44.52 -9.99,2.94 -19.68,6.75 -28.97,11.52 -12.67,-13.63 -26.2,-26.67 -41.96,-36.7 -7.6,-4.8 -15.92,-9.32 -25.1,-9.63 -6.57,-0.22 -13.5,3.08 -16.18,9.33 -4.06,9.3 -3.08,19.74 -4.71,29.56 -3.37,23.58 -10.35,47.43 -24.86,66.67 -7.67,10.08 -17.9,18.04 -29.55,22.98 -4.38,-25.3 -7.48,-52.39 -23.09,-73.69 -7.34,-9.71 -17.54,-17.66 -29.38,-20.91 -6.87,-1.66 -15.55,-1.18 -20,5.12 -6.93,9.64 -3.05,22.15 -5.69,33.01 -3.22,14.04 -11.9,27.94 -25.58,33.7 -3.72,2.02 -5.66,-2.8 -7.45,-5.12 -11.9,-19.52 -24.85,-40.54 -24.29,-64.24 -0.24,-7.78 1.21,-16.41 -3.31,-23.3 -5.49,-8.38 -17.13,-11.06 -26.28,-7.73 -12.22,4.17 -20.71,14.87 -26.82,25.76 -6.38,11.38 -10.58,23.8 -13.5,36.47 -14.92,-14.18 -16.25,-35.58 -21.3,-54.27 -1.82,-8.03 -8.24,-15.17 -16.78,-15.75 -15.36,-1.28 -29.27,8.52 -38.2,20.3 -13.92,17.97 -24.54,39.39 -26.86,62.23 -5.62,1.15 -11.25,2.26 -16.88,3.35 -6.45,-34.79 -8.01,-71.67 3.7,-105.55 7.09,-20.82 21.69,-39.16 41.44,-49.22 7.51,22.15 20.34,43.12 39.21,57.33 10.86,7.99 24.42,13.59 38.09,11.96 7.57,-0.79 15.62,-5.29 17.65,-13.09 1.97,-8.1 0.43,-16.51 1.86,-24.68 2.77,-17.28 10.69,-33.22 19.6,-48.11 13.02,3.55 26.49,5.66 39.12,10.58 3.03,1.42 6.61,2.64 8.43,5.65 -0.37,13.49 -4.97,26.49 -10.52,38.65 -3.31,7.44 -8.33,14.77 -7.81,23.26 0.31,8.1 7.01,14.81 14.7,16.55 10.92,2.41 22.24,-0.19 32.43,-4.32 23.9,-9.64 46.22,-23.36 65.2,-40.83 5.77,-5.76 10.68,-12.61 18.21,-16.3 3.09,6.98 1.74,14.69 1.35,22.05 -0.69,9.72 -2.98,19.34 -7.05,28.2 -2.78,6.42 -6.2,13.86 -2.86,20.73 2.91,7.55 11.52,10.54 19.02,10.38 12.24,0.52 23.51,-5.29 33.55,-11.71 19.8,-12.88 36.65,-30.65 47.49,-51.72 3.56,-6.52 4.85,-13.92 7.44,-20.81 2.15,-7.09 10.95,-7.5 16.62,-10.41 7.74,9.11 10.35,21.76 8.29,33.4 -1.36,8.42 -2.85,18.08 2.73,25.38 6.91,9.1 20.32,9.69 30.21,5.65 14.46,-6.22 25.62,-18.02 34.8,-30.51 12.6,-17.35 23.05,-36.7 27.64,-57.78zm643.16 -22.7c25.63,1.28 45.35,-17.84 63.08,-33.68 24.28,57.23 33.08,121.46 21.44,182.76 -5.49,30.12 -15.18,59.48 -28.58,87.02 0.62,-9.47 2.07,-21.67 -6.73,-27.96 -11.55,-6.93 -25.68,-2.66 -37.55,1.08 1.93,-21.12 -1.77,-44.62 -17.63,-60 8.35,-38.43 8.33,-78.77 -1.08,-117.01 -3.31,-11.21 3.23,-21.99 7.05,-32.21z"/>
   <path class="fil2" d="M1659.28 387.38c18.38,-11.97 39.48,-21.84 61.87,-21.24 12.6,0.18 25.13,5.4 33.6,14.83 8.2,8.91 11.76,20.91 19.11,30.44 10.53,14.12 26.02,23.39 41.63,30.93 17.09,8.16 34.81,17.79 45.44,34.08 7.53,11.23 7.21,26.27 0.98,38.02 -10.83,21.26 -29.72,39.03 -52.57,46.51 -10.74,3.7 -22.2,2.36 -33.17,0.78 -26.46,-3.4 -53.21,-4.7 -79.84,-3.19 -26.72,1.63 -51.1,13.89 -74.54,25.8 -36.04,18.73 -71.81,37.95 -107.9,56.55 -25.53,12.81 -52.63,24.19 -81.49,25.78 -40.47,2.59 -79.73,-9.69 -118.04,-21.01 -31.8,-9.6 -64.44,-20 -98.1,-17.36 -27.75,1.56 -53.3,14.19 -76.24,29 -30.42,19.79 -60.51,40.1 -91.52,58.97 -23.95,14.52 -47.85,29.67 -74.29,39.37 -18.97,6.99 -39.31,8.98 -59.37,10.2 -31.98,1.79 -64.71,-0.51 -94.97,-11.59 -26.31,-9.6 -52.99,-18.3 -80.42,-24.15 -30.41,-7.03 -62.53,-10.15 -93.18,-2.88 -36.77,8.69 -69.94,32.21 -89.51,64.61 -25.69,41.54 -27.24,93.72 -15.92,140.1 2.19,4.64 -2.51,7.51 -5.56,9.99 -11.34,8.56 -21.93,18.01 -32.85,27.09 -10.84,-22.3 -22.94,-44.45 -28.2,-68.9 -3.65,-16.12 -2.75,-33.52 4.6,-48.5 8.76,-18.01 17.6,-36.05 28.44,-52.94 4.16,-7.21 9,-14.51 10.05,-22.94 -0.55,-5 -6.86,-3.39 -9.64,-1.23 -8.28,6.37 -14.35,15.08 -20.89,23.13 -14.46,19.54 -28.07,40.24 -36.22,63.29 -10.49,31.25 -3.59,65.48 9.89,94.68 4.41,10.3 11.48,19.79 12.42,31.26 0.76,8.22 0.64,17.66 7.21,23.72 6.01,6.47 15.95,5.88 23.35,2.43 17.74,-7.73 29.5,-23.74 44.03,-35.79 15.2,-12.97 34.57,-19.78 53.88,-23.8 33.95,-6.71 70.33,-6.45 102.59,7.16 29.54,12.16 51.42,36.85 79.82,50.99 21.86,11.17 47.57,14.89 71.62,9.68 11.76,-2.52 22.87,-7.32 33.61,-12.64 32.51,-16.58 63.91,-35.2 95.5,-53.42 26.81,-15.15 53.01,-32.33 82.83,-41.01 37.05,-10.42 77.3,-11.09 114.05,0.97 28.33,10.24 55.37,23.69 82.83,36.01 32.92,14.31 65.72,29.69 100.78,38.07 73.34,15.45 148.94,16.21 223.48,11.5 35.44,-2.39 70.8,-6.8 105.43,-14.79 23.4,-5.55 46.72,-12.39 68.09,-23.61 5.22,-2.42 11.39,-5.47 17.17,-3.01 3.68,3.21 3.5,8.81 2.69,13.22 -3.31,19.79 -16.25,36.31 -30.76,49.43 -25.57,22.86 -56.63,39.96 -90.15,47.65 -27.92,6.87 -56.79,1.95 -85.01,0.28 -42.44,-4.09 -85.07,-2.07 -127.59,-1.58 -26.05,-0.33 -52.14,-0.46 -78.14,-2.53 -18.25,-1.33 -36.34,-5 -54.69,-4.66 -18.48,-0.37 -36.62,3.44 -54.96,4.91 -91.27,8.42 -183.07,12.12 -274.67,8.49 -8.93,-0.11 -18.11,-0.55 -26.74,2.12 -9.67,3.01 -16.69,10.72 -25.05,16.05 -23.55,15.49 -49.1,27.79 -75.25,38.19 -33.33,13.06 -67.66,23.65 -102.85,30.33 -39.14,7.81 -79.66,9.66 -119.1,2.85 -61.45,-10.73 -121.51,-33.64 -171.62,-71.26 -37.01,-27.85 -68.64,-64.55 -84.55,-108.52 -14.12,-38.31 -13.01,-80.18 -7.37,-120.04 7.97,-59.04 29.98,-116.96 67.52,-163.63 19.21,-24.04 42.74,-44.6 69.1,-60.47 2.23,-1.05 4.77,-3.42 7.11,-1.28 10.36,7.76 17.84,20.34 31.13,23.62 3.08,1.01 5.54,-1.84 4.78,-4.75 -1.22,-6.04 -5.44,-10.8 -8.96,-15.62 -11.63,-14.66 -17.92,-33.63 -16.55,-52.36 1.36,-23.16 12.19,-44.28 23.33,-64.14 8.58,6.13 15.45,15.17 25.73,18.55 3.01,1.45 6.08,-2.23 4.78,-5.12 -2.62,-8.47 -8.8,-15.29 -11.9,-23.6 -9.54,-23.97 -12.37,-50.89 -6.88,-76.17 4.06,-19.24 14.37,-37.62 30.64,-49.08 23.79,-16.9 54,-22.82 82.76,-21.15 30.21,1.63 58.7,15.16 81.73,34.3 33.13,27.48 63.91,59.16 103.42,77.6 7.09,3.21 15.42,7.55 23.18,3.97 2.97,-5.95 -3.47,-9.82 -7.73,-12.42 -15.68,-8.73 -30.19,-19.31 -44.47,-30.1 -14.16,-10.95 -28.21,-23.05 -36.59,-39.18 34.11,-0.87 68,6.7 99.95,18.25 16.94,5.83 31.34,18.78 49.77,20.02 22.98,1.53 46.07,0.93 69.06,2.56 39.2,2.67 78.23,7.51 117.07,13.46 29.94,4.27 59.53,10.79 89.55,14.6 46.08,5.64 92.72,4.66 138.91,0.89 13.59,-0.98 26.8,-4.38 40,-7.52 -7.81,12.09 -19.97,20.22 -31.16,28.87 -7.25,5.65 -15.82,9.55 -21.99,16.51 7.1,4.52 15.54,1.49 22.61,-1.49 16.72,-7.09 32.14,-17.13 45.48,-29.45 12.79,-11.37 23.19,-25.16 36.27,-36.23 21.45,-18.43 46.74,-31.84 72.84,-42.4 21.03,-8.34 43.6,-13.8 66.35,-13.09 13.93,0.51 28.1,3.67 39.99,11.23 11.75,7.37 20.63,18.22 30.85,27.43 23.74,22.55 52.9,40.08 84.89,47.8 8.04,1.65 16.63,4.24 24.71,1.49 4.02,-4.15 -1.45,-8.4 -3.7,-11.75 -4.15,-4.46 2.62,-11.71 -1.82,-15.98 -15.21,-6.66 -31.88,7.59 -46.89,-0.69 -25.48,-13.78 -37.65,-41.87 -58.93,-60.35zm-749.03 756.05c9.76,-1.79 19.74,-0.83 29.48,0.48 29.72,4.25 58.17,14.3 86.31,24.36 6.66,2.52 14.05,3.97 19.61,8.68 1.31,3.35 -2.58,5.11 -4.89,6.56 -8.89,4.18 -18.83,5.09 -28.28,7.39 -40.64,9.55 -82.28,14.51 -123.99,15.73 -44.24,1.26 -89.86,0.53 -131.77,-15.4 20.63,-5.43 41.68,-9.26 62.12,-15.46 22.36,-6.38 44.37,-13.96 65.9,-22.75 8.41,-3.4 16.53,-7.83 25.51,-9.59zm301.08 -47.5c21.07,1.79 38.19,16.71 51.55,32 2.94,2.57 1.55,6.8 -1.35,8.72 -6.03,4.34 -13.4,6.07 -20.36,8.31 -34.5,10.41 -70.64,13.87 -106.49,15.8 -39.26,1.86 -79.35,-0.6 -116.85,-13.2 -12.7,-4.41 -25.3,-9.9 -35.82,-18.41 -5.48,-4.61 -11,-10.88 -10.31,-18.55 0.28,-3.26 1.79,-7.41 5.29,-8.27 78.12,2.87 156.38,-1.01 234.34,-6.4zm99.51 -10.83c7.56,-1.43 15.15,0.34 22.61,1.55 49.06,7.06 98.72,4.16 148.08,4.12 -9.24,9.39 -21.68,14.67 -33.8,19.32 -29.96,10.36 -61.84,13.55 -93.32,15.13 -29.63,0.85 -59.89,-2.31 -87.53,-13.54 -5.55,-2.34 -12.51,-4.91 -14.05,-11.46 1.97,-10.54 15.4,-9.43 23.55,-10.49 11.55,-1.01 23.05,-2.59 34.46,-4.63zm-997.9 -260.98c14.4,-11.38 28.77,-23.3 45.57,-31.03 -14,45.94 -19.54,94.07 -19.07,141.99 -15.39,-10.95 -28.08,-25.24 -39.68,-40.04 -7.53,-9.99 -14.78,-22.06 -12.85,-35.1 2.78,-15.18 14.53,-26.5 26.03,-35.82zm69.33 -157.39c19.24,-6.17 39.35,-10.12 59.62,-10.32 -6.98,8.05 -14.71,15.38 -21.54,23.53 -22.05,25.41 -38.74,54.95 -52.04,85.72 -7.27,-17.89 -13.77,-36.26 -16.98,-55.35 -1.73,-9.62 -0.1,-20.13 5.97,-27.96 6.03,-8.15 15.54,-12.66 24.97,-15.62zm64.85 -115.95c20.39,-15.73 44.98,-24.86 69.56,-31.7 -8.61,17.54 -16.05,35.76 -20.48,54.82 -2.86,13.08 -2.75,26.51 -3.57,39.8 -11.3,8.64 -21.1,19.04 -32.37,27.73 -11.65,-17.42 -23.42,-35.92 -26.31,-57.09 -1.8,-12.48 2.96,-25.89 13.17,-33.56zm408.06 -171.44c14.28,-12.26 32.13,-20.64 50.87,-22.84 18.8,-2.14 37.85,3.33 53.93,12.95 11.7,6.91 21.3,16.66 32.18,24.68 12.9,9.66 25.85,19.35 39.92,27.22 -25.43,-1.74 -50.73,-5.78 -76.29,-5.48 -8.6,0.77 -15.35,-5.17 -22.51,-8.86 -24.31,-13.51 -51.1,-21.63 -78.1,-27.67zm-221.31 72.84l0 0c-3.97,4.16 -9.39,8.57 -9.04,14.92 2.2,3.47 6.84,1.38 9.92,0.4 10.92,-4.51 21.65,-10.77 33.88,-10.34 -6.77,24.18 -10.95,49.84 -5.94,74.78 3.48,18.1 13.43,35.46 29.34,45.26 12.1,7.92 26.69,10.03 40.76,11.44 -15.44,13.86 -37.02,17.26 -57.04,17.63 -6.41,0.39 -13.57,-0.51 -19.21,3.28 -1.48,5.6 6.03,6.68 9.87,7.74 23.91,4.01 48.71,2.86 72.13,-3.45 36.95,-9.75 69.58,-32.85 93.57,-62.32 1.95,-2.12 3.76,-4.82 6.79,-5.44 9.12,-2.64 18.82,-2.9 27.75,-6.29 3.5,-1.45 7.74,-4 7.67,-8.34 0.65,-4.71 -4.73,-7.46 -8.77,-7.05 -10.69,0.55 -21.21,3.38 -31.98,2.65 -25.47,-0.28 -48.5,-13.5 -68.09,-28.7 -17.56,-13.73 -30.34,-32.26 -45.54,-48.35 -9.73,-10.35 -21.99,-20.02 -36.77,-20.77 -19.13,-1.27 -36.02,10.39 -49.3,22.95zm928.69 0.48l0 0c-13.94,1.79 -25.78,10.1 -37.24,17.59 -7.78,5.58 -15.84,11.39 -21,19.63 -3.38,5.46 -4.45,13.79 0.96,18.36 7.12,5.74 17.29,3.9 25.12,0.65 14.9,-6.39 27.94,-16.42 39.72,-27.42 2.73,-2.31 5.5,-5.21 9.31,-5.48 5.05,0.6 9.12,3.9 13.13,6.77 18.79,14.85 42.63,23.26 66.58,23.46 4.68,-0.18 10.26,0.1 13.71,-3.71 0.89,-3.36 -2.99,-4.69 -5.38,-5.77 -8.91,-2.89 -18.41,-3.44 -27.22,-6.66 -15.25,-4.75 -29.18,-13.98 -38.52,-27.06 -8.73,-12.26 -25.83,-11.43 -39.17,-10.36z"/>
   <path class="fil3" d="M1765.63 1064.23c11.94,-14.77 22.8,-29.94 32.5,-45.45 -4.68,5.49 -10.17,10.34 -15.35,15.33 -37.05,33.63 -83.88,58.22 -134.2,62.81 -19.49,1.95 -39.44,2.13 -58.63,-2.35 -24.84,-6.67 -50.83,-4.59 -76.28,-5.04 -13.14,14.74 -29.69,26.16 -48.01,33.45 -33.52,13.74 -69.93,18.09 -105.81,20.52 -25.18,1.58 -50.45,1.17 -75.61,-0.76 -3.82,5.76 -8.31,11.36 -14.53,14.67 -13.18,7.37 -28.2,10.31 -42.75,13.8 -52.02,11.1 -105.72,14.13 -158.68,9.5 -1.31,4.78 -2.43,9.94 -5.92,13.7 -5.05,5.56 -12.21,8.5 -19.06,11.16 -15.77,5.53 -32.31,8.26 -48.66,11.3 -29.2,5.12 -58.66,8.86 -88.29,10.19 -39.74,1.01 -79.78,0.73 -119.01,-6.43 -24.04,-4.25 -47.82,-11.29 -69.01,-23.58 -26.69,1.22 -53.56,0.95 -80,-3.37 -71.49,-11.15 -141.59,-37.6 -198.92,-82.37 -43.8,-33.93 -80.12,-80.09 -93.91,-134.48 -22.46,-15.36 -42.93,-33.77 -60.22,-54.8 -11.16,-14.02 -21.35,-29.52 -25.41,-47.19 -2.9,-15.25 1.61,-31.14 9.52,-44.22 6.55,-11.02 16.58,-19.19 26.11,-27.5 14.18,-11.92 28.94,-23.35 45.34,-32.03 -6.38,-17.46 -12.45,-35.12 -15.91,-53.42 -2.53,-14.89 -2.11,-30.98 5.23,-44.53 7.79,-14.67 22.17,-24.82 37.58,-30.28 17.35,-6.17 35.47,-9.89 53.69,-12.44 -10.07,-19.38 -16.73,-41.53 -13.29,-63.52 3.27,-16.71 12.91,-32.53 27.53,-41.64 28.28,-18.1 60.63,-28.72 93.09,-36.55 -4.73,-35.65 3.12,-73.76 25.14,-102.66 16.82,-22.85 43.11,-37.45 70.61,-43.21 47.47,-9.27 98.34,1.9 138.1,29.25 18.42,-1.06 36.85,-0.39 55.28,-0.02 15.92,-21.91 40.64,-36.9 67.22,-41.76 17.15,-3.4 34.88,-2.6 52.04,0.39 14.97,2.57 28.08,10.9 40.15,19.72 26.22,19.72 50.33,42.22 77.76,60.4 11.55,7.29 22.87,16.78 37.1,17.76 45.32,7.23 90.65,14.76 136.34,19.17 37.94,3.28 76.19,6.34 114.21,2.48 21.28,-2.18 42.62,-5.56 62.8,-12.9 12.61,-4.66 25.08,-10.7 34.69,-20.34 10.43,-10.54 21.51,-20.69 34.37,-28.18 -2.85,-1.19 -5.72,-2.37 -8.6,-3.55 -5.55,3.27 -10.91,6.82 -16.17,10.52l-0.71 -0.28c-12.42,8.86 -22.04,21.74 -36.71,27.18 -18.27,8.36 -38.09,12.74 -57.9,15.47 -15.19,2.83 -30.73,3.26 -46.12,3.38 -67.81,1.03 -134.87,-10.61 -201.65,-20.82 -9.06,-1.68 -18.84,-1.15 -27.02,-5.97 -16.16,-8.72 -31.47,-19.15 -45.36,-31.15 -13.84,-11.44 -27.73,-22.84 -41.67,-34.14 -11.79,-9.18 -23.55,-18.96 -37.74,-24.17 -27.24,-9.94 -57.62,-10.08 -85.3,-1.81 -22.29,6.68 -43.18,19.42 -57.49,37.99 -12.9,0.13 -25.8,-1.13 -38.68,-0.23 -3.67,-0.02 -7.74,0.87 -10.9,-1.47 -27.39,-18.33 -59.93,-28.01 -92.75,-30.01 -36.27,8.35 -71.4,18.13 -105.19,29.21 -32.53,26.71 -49.56,69.69 -48.43,111.38 0.41,3.61 0.69,7.23 1.05,10.86 -30.57,7.67 -60.51,18.98 -87.35,35.63 -22.29,13.71 -34.71,40.2 -34.04,66 -0.03,13.91 4.62,27.25 9.89,39.96 -18.75,3.49 -37.6,7.79 -54.8,16.24 -20.33,10.21 -35.46,30.57 -37.89,53.35 -2.81,25.76 7.06,50.52 14.78,74.6 -17.81,11.03 -34.66,23.65 -50.04,37.86 -19.4,17.45 -33.18,43.73 -29,70.34 2.25,17.93 13.04,33.06 23.57,47.15 17.39,22.55 37.22,43.76 61.16,59.48 3.67,1.73 3.86,6.07 5.12,9.44 14.86,48.57 47.43,90.08 86.43,121.88 47.77,38.89 104.84,65.49 164.19,81.22 39.74,10.26 81.03,16.04 122.1,13.13 5.93,-0.6 10.52,4.08 15.78,6.1 29.61,13.43 62.19,18.44 94.3,21.72 41.09,3.81 82.5,3.14 123.53,-0.94 35.13,-3.67 70.15,-9.71 103.93,-20.16 11.5,-3.4 21.3,-11.57 26.26,-22.56 42.44,3.44 85.23,1.19 127.27,-5.37 22.13,-3.72 44.35,-8.24 65.17,-16.83 8.54,-3.13 15.77,-8.91 21.35,-16.02 46.65,2.79 93.96,1.74 139.72,-8.39 27.66,-6.45 55.44,-16.29 77.52,-34.7 3.92,-3.03 6.8,-7.37 11.07,-9.85 12.39,-1.43 24.86,-0.42 37.3,-0.25 8.7,0.31 17.52,0.59 25.99,2.86 43.41,13.29 90.76,8.17 132.57,-8.35 6.86,-5.19 15.31,-7.67 22.86,-11.67 10.7,-4.93 20.25,-11.84 29.66,-18.84zm-931.98 -164.4c5.34,-2.64 10.97,1.2 14.34,5.2 13.32,15.74 19.81,35.97 23.53,55.92 1.19,8.49 2.55,17.15 1.49,25.71 -2.96,4.15 -8.17,5.62 -12.74,7.23 -18.82,5.69 -40.13,9.07 -58.49,0.07 -4.82,-2.73 -10.79,-5.28 -13.18,-10.58 4.73,-16.07 23.56,-20.85 31.68,-34.6 6.66,-11.36 12.84,-24.49 10.33,-37.99 -0.8,-3.91 -0.52,-8.48 3.04,-10.96zm890.99 3.59c1.6,-3.9 5.25,-10.04 10.18,-6.61 7.74,6.08 8.32,17.03 9.3,26.09 0.26,9.56 0.37,21.34 -7.71,28.02 -11.09,7.75 -25.28,8.63 -38.4,8.44 2.02,-6.75 4.13,-13.49 5.35,-20.43 0.8,-3.65 0.73,-7.85 3.66,-10.61 6.73,-7.64 13.6,-15.4 17.62,-24.9zm-75.39 19.67c5.94,-10.29 11.61,-23.18 23.99,-26.9 5.11,2.8 8.88,7.43 10.26,13.15 4.93,14.85 2.41,30.81 -1.56,45.55 -0.94,2.79 -1.5,5.97 -3.7,8.1 -10.65,2.84 -21.76,3.65 -32.74,4.04 2.07,-14.56 3.51,-29.22 3.75,-43.94zm-44.91 -30.05c2.96,-5.55 5.92,-12.47 12.54,-14.33 6.74,0.62 9.36,8.32 10.12,14.08 3.28,24.52 1.22,49.47 -2.71,73.78 -0.5,6.48 -8.56,5.55 -13.15,7 -31.52,4.64 -63.75,4.64 -95.32,0.46 24.96,-9.99 44.7,-29.08 63.57,-47.63 9.76,-9.9 19,-20.67 24.95,-33.36zm-130.41 -0.87c2.98,-5.58 5.74,-12.03 11.66,-15.09 5.97,-1.63 9.25,5.28 9.37,10.24 0.93,29.09 2.61,58.73 -4.35,87.28 -17.07,0.74 -34.16,0.03 -51.21,-0.82 -21.95,-1.51 -44.33,-2.78 -65.25,-10.26 25.28,-7.24 48.52,-20.48 69.22,-36.53 12.21,-9.55 23.58,-20.8 30.56,-34.82zm-746.74 -22.73c2.74,-1.53 7.17,-3.56 9.39,-0.21 2.64,3.7 1.8,8.64 1.75,12.93 -1.91,20.89 6.72,41.04 17.42,58.47 7.39,10.68 14.47,22.18 16.14,35.35 -9.23,-9.54 -20.87,-16.13 -32.05,-23.04 -12.72,-7.21 -25.48,-14.59 -39.35,-19.41 0.47,-13.29 3.88,-26.3 9.32,-38.4 4.25,-9.39 8.46,-19.74 17.38,-25.69zm236.29 0.14c-0.29,-3.38 3.31,-6.38 6.59,-5.1 6,1.29 10.93,5.28 15.77,8.86 13,10.17 26.27,20.89 34.42,35.56 -25.02,11.14 -51.36,20.36 -73.37,37.12 8.75,-15.83 12.94,-33.65 16.04,-51.32 1.56,-8.3 0.39,-16.76 0.55,-25.12zm-326.18 -6.32c4.47,-1.78 10.4,0.07 11.91,4.94 1.86,6.34 1.49,13.15 3.45,19.49 3.99,14.1 9.7,28.24 19.85,39.1 -23.44,-6.52 -48.23,-2.8 -71.3,3.46 1.58,-17.76 8.51,-34.61 18.2,-49.45 4.69,-6.88 9.81,-14.39 17.89,-17.54zm653.38 -2.41c3.49,-6.65 3.4,-16.06 10.68,-20.03 4.77,0.57 7.21,5.13 9.41,8.83 8.15,15.01 10.82,32.12 14.21,48.67 3.61,17.89 6.52,36.39 3.24,54.59 -11.87,-8.93 -25.25,-15.52 -38.82,-21.4 -16.37,-7.34 -33.08,-13.91 -49.89,-20.15 23.99,-7.48 40.73,-28.6 51.17,-50.51zm-171.39 -49c1.66,-4.83 7.79,-3.1 11.23,-1.41 11.23,5.79 19.67,15.61 27.98,24.89 16.23,19.19 32.28,39.32 41.81,62.81 -13.89,-8.48 -29.83,-12.88 -45.89,-14.9 -19.61,-2.37 -39.74,-4.04 -59.21,0.23 14.99,-13.87 24.2,-33.86 25.21,-54.23 0.41,-5.85 -2.05,-11.61 -1.13,-17.39zm-213.4 -24.68c21.53,1.48 43.07,-2.57 63.49,-9.23 -2.84,24.35 -17.7,45.13 -34.73,61.87 -8.61,8.17 -18.34,15.95 -30,19.05 -3.77,1.21 -10.22,0.14 -9.65,-5.03 1.66,-6.66 5.52,-12.56 7.13,-19.26 3.92,-15.43 5.57,-31.54 3.76,-47.4zm-109.42 -19.95c21.08,9.71 44.01,14.9 67.04,17.24 -11.6,21.9 -32.85,36.96 -55.12,46.69 -9.04,3.61 -18.3,7.35 -28.1,8.1 -3.81,0.21 -8.91,-1.97 -7.94,-6.63 1.51,-7.19 7.16,-12.44 10.33,-18.87 7.44,-14.42 14.07,-29.98 13.79,-46.53zm-167.67 -11.25c17.93,-11.89 40.22,-14.51 61.25,-13.59 7.23,0.23 14.26,2.11 20.84,5.03 -9.32,17.76 -17.74,36.45 -20.08,56.56 -0.81,6.54 0.2,13.18 -0.87,19.7 -0.81,4.86 -6.06,7.89 -10.73,6.58 -9.27,-1.92 -17.05,-7.99 -23.64,-14.5 -15.82,-15.89 -23.81,-37.91 -26.77,-59.78zm386.8 6.13c24.9,-11.55 50.11,-23.54 71.37,-41.16 6.08,35.55 -10.22,71.48 -34.51,96.78 -4.97,4.89 -10.16,10.31 -17.14,12.01 -3.75,0.87 -8.45,-1.86 -8.68,-5.86 -0.02,-5.42 2.04,-10.6 2.23,-16 0.32,-16.18 -4.94,-32.04 -13.27,-45.77zm276.12 -92.49c30.48,10.1 60.99,20.61 92.68,26.16 -6.11,24.73 -25.05,43.44 -44.88,58.15 -9.39,6.92 -19.45,13.73 -31,16.28 -5.71,0.99 -13.54,0.92 -16.59,-4.96 -1.24,-4.75 0.36,-9.55 1.33,-14.19 2.18,-8.69 2.75,-17.65 3.32,-26.56 0.95,-18.38 0.92,-37.21 -4.86,-54.88zm196.49 18.87c16.62,-5.51 33.58,-11.85 46.71,-23.86 -6.95,44.98 -26.99,89.7 -62.6,119.15 -6.48,5.19 -13.64,10.7 -22.25,11.27 -4.47,-0.05 -7.99,-3.93 -8.45,-8.2 -1.07,-7.87 2.42,-15.38 2.88,-23.18 1.78,-21.44 0.96,-43.94 -8.15,-63.8 17.77,-1.01 35.09,-5.63 51.86,-11.38zm-286.48 -28.04c8.89,-1.86 18.46,-3.21 27.3,-0.45 3.48,1.01 2.43,5.19 2.73,7.92 -0.46,25.39 -10.08,50.06 -24.64,70.63 -7.96,10.79 -17.77,20.69 -30,26.5 -4.73,2.38 -12.65,2.84 -14.51,-3.38 -1.19,-7.05 1.15,-14.17 0.16,-21.26 -1.58,-18.09 -12.3,-34 -25.6,-45.78 17.86,-17.03 40.68,-28.41 64.56,-34.18zm463.01 -63.29c9.55,-3.4 19.47,-6.4 29.71,-6.22 4.68,25.67 -2.76,51.66 -11.74,75.58 -6.65,16.92 -14.43,33.42 -23.41,49.21 -9.05,15.82 -20.85,29.8 -33.26,43.05 -9.99,10.33 -20.67,20.8 -34.32,26.05 -4.14,1.41 -9.56,2.53 -13.09,-0.76 -3.6,-3.55 -3.03,-8.99 -2.02,-13.49 5.21,-20.23 7.1,-41.14 8.24,-61.94 0.97,-22.77 0.64,-45.7 -3.62,-68.14 30.46,-9.18 53.73,-32.75 83.51,-43.34zm54.45 -7.57c20.64,-3.15 42.15,-2.21 62.21,3.83 -7.94,31.43 -22.29,60.86 -39,88.52 -11.87,19.4 -25.41,38.11 -42.38,53.4 -5.66,4.39 -11.93,9.98 -19.51,9.52 -5.19,-2.72 -1.76,-9.16 0.05,-13.03 16.21,-29.8 28.76,-61.69 36.15,-94.84 3.49,-15.54 4.44,-31.58 2.48,-47.4zm112.24 0.78c6.56,-5.38 13.08,-11.18 21.46,-13.48 -1.03,24.61 -13.49,46.61 -26.21,67.01 -13.68,21.7 -28.74,43.71 -50.6,57.95 -6.38,4.26 -14.07,7.69 -21.79,5.19 -0.11,-10.5 8.47,-17.98 13.06,-26.71 15.29,-25.84 31.14,-52.8 34.69,-83.17 10.11,0.81 21.21,-0.14 29.39,-6.79zm-1139.34 -113.91c14.92,6.31 27.73,16.69 39.51,27.62 4.76,3.55 2.09,9.98 0.46,14.52 -3.12,8.61 -9.94,14.86 -15.5,21.82 -2.8,3.14 -0.66,8.1 3.73,7.73 16.75,1.2 32.29,-9 42.44,-21.62 10.75,7.41 22.94,12.23 34.9,17.3 -6.6,9.72 -15.52,18.19 -26.61,22.5 -16.16,6.41 -34.11,5.03 -50.78,1.65 -15.82,-3.39 -29.39,-15.42 -34.32,-30.87 -6.68,-20.02 -1.66,-41.73 6.17,-60.65z"/>
  </g>
 </g>
</svg>
