<?xml version="1.0" encoding="UTF-8"?>
<!DOCTYPE svg PUBLIC "-//W3C//DTD SVG 1.1//EN" "http://www.w3.org/Graphics/SVG/1.1/DTD/svg11.dtd">
<!-- Creator: CorelDRAW -->
<svg xmlns="http://www.w3.org/2000/svg" xml:space="preserve" width="2000px" height="1600px" version="1.1" style="shape-rendering:geometricPrecision; text-rendering:geometricPrecision; image-rendering:optimizeQuality; fill-rule:evenodd; clip-rule:evenodd"
viewBox="0 0 2000 1600"
 xmlns:xlink="http://www.w3.org/1999/xlink">
 <defs>
  <style type="text/css">
   <![CDATA[
    .fil0 {fill:black;fill-rule:nonzero}
    .fil3 {fill:#00783E;fill-rule:nonzero}
    .fil2 {fill:#E98310;fill-rule:nonzero}
    .fil1 {fill:#FEFEFE;fill-rule:nonzero}
   ]]>
  </style>
 </defs>
 <g id="Capa_x0020_1">
  <metadata id="CorelCorpID_0Corel-Layer"/>
  <g id="Florida_x0020_A_x0026_M_x0020_Rattlers.cdr">
   <path class="fil0" d="M1176.87 123.53c128.4,0 215.5,32.56 236.8,31.46 98.34,-5.06 209.99,26.98 248.63,16.79 66.9,-17.62 160.78,-21.41 194.91,50.59 15.51,32.85 23.01,68.8 37.84,101.95 5.08,38.96 -51.87,32.77 -48.03,72.26 1.35,22.05 13.15,42.18 13.31,64.41 -0.58,25.63 -8.83,50.43 -9.15,76.08 0.32,71.96 9.96,103.17 -36.52,189.28 -15.41,28.55 -36.14,66.56 -67.82,75.73 14.6,-63.12 23.29,-241.95 7.42,-276.17 -3.03,-6.74 -9.29,-11.22 -16.14,-13.5 -35.76,32.47 -26.52,247.33 -165.81,311.09 -4.81,2.2 -10.25,1.28 -15.33,1.19 27.94,-102.46 65.06,-198.59 58.99,-305.65 -0.54,-9.48 -25.38,-14.95 -22.91,-65.01 -130.7,53.14 -281.03,110.77 -369.87,225.65 42.5,84.83 218.16,212.43 246.76,211.88 31.93,-0.61 146.28,-37.13 231.59,-31.35 57.75,3.91 136.31,24.43 198.46,-8.88 0,20.46 -80.05,34.69 -100.69,35.51 -46.3,2.44 -92.67,-0.1 -138.91,-2.41 40.28,32.66 187.02,54.95 222.81,202.76 -94.04,-123.7 -201.29,-207.54 -365.04,-171.86 -9.18,2 -48.4,-15.32 -35.76,10.75 10.68,22.04 95.84,87.76 102.49,161.72 1.35,15.02 42.49,45.55 13.98,114.36 -24.7,59.6 -101.33,90.73 -158.96,76.89 -107.62,-25.86 -226.93,-86.37 -314.83,-150.67 -19.2,-14.05 -42.94,-29.12 -56.79,-42.55 -60.13,-58.81 -133.86,-100.48 -202.44,-148.23 -66.62,68.24 -83.76,132.08 -72.26,222.94 13.4,105.87 83.62,133.15 79.97,205.37 -4.84,95.38 -155.4,101.26 -225.84,100.88 -49.61,-0.28 -75.11,-15.07 -134.01,1.77 -69.18,19.77 -65.49,-3.96 -100.99,-2.14 -23.91,0.68 -46.72,12.09 -70.9,8.87 -37.92,-4.79 8.79,-18.84 -107.81,-22.76 -113.47,-3.82 -108.77,-18.42 -125.14,-122.19 -41.9,-265.51 69.32,-494.33 231.74,-698.36 78.26,-98.5 163.17,-192.39 229.67,-299.64 90.14,-150.26 274.49,-167.44 431.64,-145.85 50.77,-44.52 109.74,-54.66 174.94,-62.96z"/>
   <path class="fil1" d="M1274.83 260.88c5.3,-5.49 13.62,-3.16 20.1,-1.5 0.59,54.3 -9.12,52.79 -9.43,62.51 -0.65,20.63 5,45.74 -3.8,59.42 -28.73,-8.59 -18.28,-75.01 -14.74,-95.96 1.55,-8.37 2.41,-17.55 7.87,-24.47zm558.09 251.74c5.76,98.89 4.26,187.35 -67.33,265.49 8.26,-71.54 19.43,-185.61 4.69,-256.27 34.44,0 41.3,-9.19 62.64,-9.22zm-203.01 -0.1c31.4,-7.99 63.55,-8.19 92.08,8.27 -16.35,23.61 -13.53,28.93 -16.4,39.61 -10.71,48.07 -21.28,96.6 -40.84,142.01 -19.42,44.6 -47.76,82.86 -93.25,103.16 40.83,-88.8 64.15,-194.96 58.41,-293.05z"/>
   <path class="fil2" d="M927.82 633.6c29.47,-21.89 43.56,-5.09 27.68,5.97 -31.34,21.84 -126.48,36.03 -95.45,123.22 19.89,55.89 119.55,111.35 172.34,150.46 39.63,29.36 3.91,31.23 165.09,129.41 13.07,7.99 26.4,16.89 34.39,30.35 23.59,7.45 45.08,20.08 65.81,33.32 62.73,40.21 131.87,106.28 212.05,102.2 35.45,-1.77 49.01,-30.61 74.38,-36.1 -28,89.75 -149.08,85.9 -220.53,61.21 -89.26,-30.85 -226.26,-134.91 -304.74,-186.19 -9.11,-5.95 -35.71,-34.76 -52.56,-38.28 -23.14,-38.73 -242.13,-141.65 -293.95,-180.72 9.49,-8.83 25.79,-12.72 36.46,-3.76 9.8,-15.72 3.69,-33.26 27.22,-32.15 -3.27,-13.98 -20.37,-8.85 -18.72,-26.85 14.13,-3.24 27.36,4.13 41.27,4.81 -3.54,-29.24 -104.31,-53.61 -38.38,-63.97 8.97,-1.29 20.93,-0.34 24.62,9.55 1.11,0.05 3.32,0.15 4.43,0.2 8.9,10.72 16.23,22.91 27.15,31.79 -1.39,-11.61 -1.52,-26.43 -13.27,-32.79 1.02,-14.69 -22.23,-16.65 -14.62,-30.8 28.11,6.66 71.09,6.4 73.25,-31.54 0.96,-0.02 2.88,-0.07 3.82,-0.1 7.51,-17.56 44.76,-3.67 62.26,-19.24zm-581.61 786.88c4.83,-11.44 20.81,-13.36 23.16,-26.47 11.72,8.78 8.75,18.22 26.96,32.03 -1.32,8.14 -12.67,5.21 -14.82,12.77 -19.04,1.68 -24.3,-5.1 -35.3,-18.33zm-149.14 -428.66c12.17,14.71 13.38,35.57 26.6,49.63 -9.62,20.19 -24.71,61.39 -53.5,58.64 9.59,-35.93 14.8,-73 26.9,-108.27zm300.85 -63.54c8.36,-5.44 18.26,-11.08 20.33,-21.78 19.18,22.36 50.19,18.58 76.1,26.2 -17.93,38.83 -40.72,59.93 -40.61,105.64 0.05,24.28 16.45,9.12 -16.33,33.43 -17.04,12.64 -0.88,40.06 -2.52,55.75 -0.87,8.43 -44.17,22.58 -34.11,52.87 5.54,16.67 20.3,20.49 2.01,35.61 -4.24,3.35 -4.08,9.07 -3.79,13.93 -7.4,6.71 -7.14,22.87 0.46,29.23 -1.05,16.81 23.51,16.36 15.57,35.12 -21.53,50.85 -6.2,31.65 15.99,67.51 -22.03,29.08 21.33,59.59 -41.12,74.36 -13.14,3.04 -27.21,2.74 -39.9,-2.12 1.93,-15.76 21.57,-20.71 23.12,-36.57 -20.58,-7.44 -34.32,40.19 -64.58,8.96 -19.39,-20.01 -11.72,-55.52 1.18,-76.62 -13.7,0.83 -49.29,59.62 -63.18,-16.79 -1.19,-6.52 2.95,-16.08 -4.86,-19.57 -16.03,24.51 -11.38,69.25 17.8,82.63 -3.28,11.79 -13.63,19 -22.52,26.43 -30.64,-3.03 -34.08,-33.68 -31.28,-58.86 -32.43,1.09 -5.77,64.29 -40.89,70.69 -14.72,2.74 -29.97,-7.11 -35.96,-20.41 40.82,-54.76 90.24,-102.24 139.78,-148.97 9.51,31.04 20.55,56.64 58.2,49.79 -18.48,43.66 41.58,107.48 73.64,58.13 -64.07,11.73 -56.47,-66.45 -36.46,-104.46 -23.19,3.76 -22.72,40.41 -52.17,22.32 -26.3,-16.16 -8.28,-40.53 2.22,-62.04 33.85,13.43 39.26,53.68 77.33,17.02 -9.36,-16.46 -28.52,4.06 -40.05,-7.66 -32.13,-32.65 34,-54.78 49.38,-68.71 -9.35,-11.22 -26.4,1.17 -36.72,-8.09 5.15,-43 -50.05,-63.51 -22.91,-108.82 9.56,10.92 15.81,20.34 31,22.75 -22.52,43.02 30.02,63.55 48.4,46.12 -18.11,-14.51 -56.74,-3.17 -20.32,-60.26 16.54,0.94 30.14,25 41.23,5.01 -11.39,-1.8 -15.3,-6.52 -23.24,-14.4 6.64,-37.5 34.41,-49.72 50,-76.88 -17.62,-4.36 -67.96,47.09 -81.02,-4.21 -2.53,-8.91 3.51,-17.7 10.8,-22.28zm101.52 -13.88c11.99,-21.2 36.28,-29.46 54.16,-44.43 -2.12,24.24 -32.66,41.02 -54.16,44.43zm94.76 -35.98c31.24,-23.74 88.47,18.18 118.94,32.64 9.79,4.78 20.57,7.3 29.74,13.35 -5.54,15.51 -14.2,24.18 -30.7,26.35 -12.53,-18.34 -37.5,-26.05 -59.92,-22.73 13.13,23.55 62.32,14.65 64,45.35 -24.09,26.18 -70.03,-11.31 -100.01,-9.23 9.22,22.78 39.25,25.44 58.11,36.8 19.47,11.64 7.64,29.63 -7.28,30.24 -26.28,1.08 -52.02,-15.72 -73.46,-3.98 7.47,22.72 109.18,17.78 77.91,42.24 -28.93,22.64 -66.56,8.57 -100.33,12.01 9.34,34.29 81.13,4.7 93.58,31.68 15.54,33.68 -64.42,21.42 -74.72,22.4 -22.62,-22.77 -65.07,18.89 -6.14,23.21 19,1.39 85.87,-13.52 85.05,20.22 -0.85,34.62 -100.88,9.2 -120.83,24.76 6.75,31.09 109.4,5.53 136.43,19.27 -5.78,52.78 -76.69,18.59 -95.62,48.67 30.31,35.13 87.95,-13.36 127.01,-0.05 -2.55,50.6 -72.11,44.38 -104.36,63.32 40.06,29.19 83.38,-23.35 127.06,-17.9 35.97,53.71 -16.24,102.86 -67.63,112.34 -170.1,31.39 -243.92,-35.14 -193.06,-49.36 30.53,-8.45 71.39,-1.37 89.64,-22.65 -34.4,-6 -118.37,8.44 -122.63,-44.59 20.58,-23.93 57.08,7.39 82.02,-4.78 -12.9,-36.25 -94.61,-7.41 -100.11,-67.38 4.1,-2.1 7.99,-4.83 9.72,-9.3 20.61,-2.31 49.17,-5.57 67.63,-14.72 8.17,-3.57 5.51,-18.26 -3.87,-17.83 -13.54,-14.72 -44.12,7.97 -61.46,-22.05 -19.24,-33.33 56.72,-15.2 83.56,-35.97 -6.8,-34 -68.43,11.76 -68.14,-49.97 38.84,-33.16 52.06,8.97 81.29,-7.98 0.15,-33.45 -41.37,-20.81 -53.73,-41.53 -16.44,-27.57 71.06,-16.7 71.84,-32.63 1,-20.19 -59.9,-15.25 -48.3,-34.29 16.55,-27.17 65.31,12.51 75.78,-23.85 -7.34,-5.22 -66.66,-14.54 -22.02,-28.49 24.82,-7.13 51.12,-5.47 76.1,-11.74 -12.15,-21.63 -38.71,-6.2 -41.09,-31.85zm-118.43 -42.66c12.57,-12.52 23.56,-28.12 41.17,-33.91 4.95,22.65 15.52,43.49 27.3,63.27 -10.47,7 -23.59,3.31 -35.34,4.04 -4.53,-12.09 -14.59,-12.47 -14.32,-27.28 -29.25,7.33 -1.6,34.46 4.51,49.79 -46.71,15.93 -66.69,24.24 -53.87,-40.04 11.64,-1.68 22.21,-7.71 30.55,-15.87zm322.39 -61.4c20.88,-16.34 96.6,86.97 161.49,99.88 -7.09,42.22 65.42,33.05 68.42,76.67 13.53,-4.35 23.22,8.49 35.95,9.46 20.75,43.21 75.93,52.75 99.5,94.51 17.98,4.14 35,12.39 53.63,13.67 -1.02,31.09 26.44,30.89 50.53,39.05 35.95,12.18 71.18,71.62 133.68,52.97 22.85,-6.63 41.26,-23.64 64.67,-28.77 -44.39,170.81 -426.65,-159.21 -489.82,-199.41 -25.87,-16.46 -44.94,-41.36 -65.77,-63.28 -23.81,-25.04 -112.45,-53.59 -112.28,-94.75zm-605.83 -5.21c4.77,-10.61 12.24,-20.35 22.48,-26.13 36.37,20.93 23.67,90.69 -18.8,94.83 -1.31,13.51 17.5,24.45 28.18,15.86 4.7,-5.19 9.1,-12.61 17.34,-11.33 3.88,23.79 15.63,94.01 -22.8,94.87 -1.55,15.48 21.49,25.59 31.9,14.19 5.52,-6.66 8.25,-16.74 17.86,-18.76 10.03,28.08 18.38,81.46 -13.78,99.7 15.2,20.96 26.71,-7.62 40.96,-13.74 11.91,29.5 13.79,72.99 -13.76,94.9 14.64,15.07 27.54,-15.55 36.46,-22.63 38.89,11.61 32.28,94.35 -15.6,89.49 -5.23,-0.24 -9.78,-4.88 -15.07,-3.12 -0.86,7.04 7.53,10.01 12.26,13.43 -12.8,20.28 -39.71,23.83 -45.31,49.54 -2.23,0.3 -4.47,0.67 -6.69,1.06 -2.82,-5.06 1.68,-14.9 -6.38,-15.66 -11.44,14.8 -16.62,51.53 -41.21,50.62 -8.5,-0.12 -14.62,-6.93 -22.2,-9.8 9.11,33.31 -4.9,54.96 -40.48,54.79 -1.8,27.81 -20.39,49.52 -49.23,49.71 0.5,-20.14 -19.43,-43.34 -2.23,-52.82 13.17,-7.69 15.3,-25.31 28.09,-33.38 8.95,-6.12 21.14,-1.49 29.86,-8.29 13.38,-9.96 14.14,-28.68 25.01,-40.68 16.76,-2.51 32.7,-9.92 45.31,-21.29 25.41,-22.58 38.53,-55.41 63.56,-78.32 -23.32,-37.56 -18.73,-89.37 -45.03,-122.4 2.84,-10.49 3.93,-21.54 8.76,-31.4 -29.41,-27.01 -42.09,-65.41 -31.57,-103.95 -32.99,-22.32 -32.2,-76.81 -17.89,-109.29zm76.51 -30.74c41.04,21.4 14.73,68.66 -17.95,44.71 -2.55,-18.65 3.78,-33.02 17.95,-44.71zm27.06 -26.37c13.59,-2.07 27.33,0.25 41,-0.43 10.24,15.02 8.61,35.53 21.42,49.28 -33.02,15.51 -38.91,65.5 5.44,77.47 0,3.69 -0.23,7.41 -1.27,11 -27.34,12.29 -17.71,72.44 9.71,83.57 -5.22,13.1 -9.99,55.57 8.75,63.18 10.65,0.08 21.32,-0.02 31.99,0.06 -10.69,21.98 -16.56,36.75 -44.83,35.97 -10.99,-14.99 -0.08,-24.93 0.37,-41.26 -20.59,4.2 -19.16,34.58 -40.96,36.66 -22.86,-34.25 8.99,-106.41 0.33,-106.42 -11.37,-0.02 -12.6,24.62 -27.13,25.46 -13.5,-26.08 28.66,-26.83 36.52,-50.42 -15.65,-8.84 -28.25,14.78 -45.47,14.16 -23.49,-31.89 1.4,-79.52 41.09,-72.47 -4.1,-13.75 -24.13,-9.3 -28.15,-22.93 -11.21,5.82 -48.2,64.89 -44.7,0.53 38.43,-7.6 50.9,-44.85 86.23,-54.59 -15.76,-8.81 -42.9,-2.3 -50.45,-22.35 -13.87,-2.27 -11.67,-23.27 0.11,-26.47zm-17.65 -59.63c6.77,1.83 8.13,12.3 16.61,9.97 -16.11,24.29 -8.49,60.28 -44.28,66.78 -23.72,-29.33 13.51,-53.32 27.67,-76.75zm618.59 -27.33c5.29,-13.87 20.73,-16.59 22.93,0 -7.65,0.13 -15.29,0.15 -22.93,0zm-483.87 -15.78c21.15,-11.5 21.1,21.04 40.39,25.69 2.22,8.33 9.21,8.28 9.67,17.85 -14.65,-1.02 -72.95,-21.79 -50.06,-43.54zm-84.51 1.49c17.77,-29.24 33.68,2.79 52.85,0.11 -21.45,30.79 21.14,60.65 48.93,53.65 8.23,-1.9 14.68,-7.58 22.14,-11.15 4,14.56 -18.6,16.17 1.64,33.73 18,15.62 -10.66,28.24 4.03,46.85 13.13,-0.25 10.92,11.67 23.13,14.34 -3.83,20.7 -4.07,33.47 13.23,49.1 -9.01,23.81 -36.43,29.16 -59.15,26.31 -1.92,-5.06 -2.95,-11.19 -8.24,-13.87 1.08,-32.82 28.12,-39.58 40.81,-54.96 -1.49,-1.11 -2.93,-2.26 -4.32,-3.49 -18.95,13.28 -66.32,14.35 -56.94,-19.52 5.53,-18.69 24.2,-29.61 29.9,-48.22 -38.07,11.96 -71.47,80.18 -19.23,95.63 -12.51,21.89 -12.99,63.04 18.45,67.97 -17.33,61.56 -95.48,85.58 -53.52,-18.66 -11.25,-12.49 -26.64,-9.95 -27.49,-28.48 0.33,-18.48 9.06,-36.16 22.93,-48.24 -2.7,-14.22 -17.75,-22.64 -18.41,-37.58 -1.22,-15.8 21.54,-19.88 14.37,-35.3 -18.73,15.27 -39.7,25.83 -64.13,18.59 -2.4,-36.76 80.92,-39.05 62.49,-54.08 -7.06,-5.76 -18.26,6.51 -22.35,-4.71 -13.11,-1.75 -30.97,-12.47 -21.12,-28.02zm421 -4.93c13.87,-2.3 26.3,-9.27 38.41,-16 -12.81,26.84 -36.33,63.17 -71.41,53.53 0,-7.72 0.07,-15.43 -0.05,-23.14 -13.98,1.55 -22.84,19.7 -15.48,31.59 6.74,10.44 22.02,0.25 37.81,9.43 -7.91,28.08 -40.31,0.1 -58.8,5.25 -26.78,7.45 -78.62,52.43 -37.61,73.73 4.93,2.51 9.88,5.01 14.55,8 -4.39,7.15 -19.82,15.23 -17.61,23.34 2.95,10.81 22.05,13.59 8.42,25.89 -19.84,17.92 -49.47,-2.08 -62.49,-18.59 -13.78,17.09 -41.86,11.63 -54.26,-4.39 2.99,-5.92 6.33,-11.66 9.26,-17.6 21.79,8.74 51.12,21.04 72.66,3.92 -22.84,-8.59 -69.82,-0.22 -68.6,-36.24 -61.68,26.24 -46.5,-10.36 -44.55,-26.4 31.11,10.22 97.29,29.6 117.58,-9.73 -28.11,0.71 -60.68,12.04 -86.3,-4.35 16.58,-64.33 87.09,19 96.57,-6.6 3.84,-8.4 -20.23,-12.93 -28.96,-24.55 6.94,-11.62 8.57,-14.51 22.66,-13.98 4.7,-7.92 16.04,-10.96 23.16,-4.25 3.21,-9.13 -7.69,-11.13 -9.99,-18.23 26.06,0.95 65.42,9.52 81.88,-17.52 9.79,6.14 21.69,9.09 33.15,6.89zm243.18 -13.98c7.51,-5.68 17.28,-7.02 26.45,-6.77 2.51,21.49 -21.73,18.48 -36.08,21.64 1.82,-5.69 4.61,-11.35 9.63,-14.87zm-187.98 5.11c11.7,-7.26 25.76,-8.82 38.91,-11.96 16.48,21.72 -37.06,60.2 -50.16,40.43 -2.13,-10.57 1.81,-22.63 11.25,-28.47zm-350.06 -2.52c9.57,-7.22 23.35,-5.69 32.14,-14.39 13.8,6.65 12.11,13.15 36.32,13.53 48.79,0.78 51.68,-14.19 93.29,22.87 -19.12,15.62 -88.59,51.4 -76.58,-3.38 1.97,-8.99 -23.15,-1.56 -22.64,8.26 1.19,9.34 7.39,17.05 9.36,26.22 -14.28,0.37 -32.08,13.65 -23.18,28.6 -15.32,13.82 -38.76,-13.83 -22.11,-28.52 8.05,-7.11 21.53,-10.37 22.91,-22.88 -14.05,-1.03 -28.41,4.38 -42.15,-0.2 -11.95,-3.57 -16.78,-21.64 -7.36,-30.11zm617.64 -27.87c13.1,-1.27 19.21,-15.13 32.75,-9.1 -0.7,22.88 -24.2,15.9 -38.51,25.1 -9.6,6.16 -12.3,10.61 -24.9,11.26 1.33,-13.71 17.43,-25.75 30.66,-27.26zm-631.33 -45.24c22.53,-4.28 32.9,13.22 53.39,13.98 -4.57,11.92 -9.86,23.59 -13.52,35.84 -18.1,0.93 -28.6,-7.25 -44.66,-13.93 -1.74,-12.19 1.19,-24.31 4.79,-35.89zm723.15 -4.07c23.49,21.22 -18.63,39.4 -36.62,40.28 3.85,-22.95 27.01,-22.41 36.62,-40.28zm65.94 -24.07c3.11,-2.28 7,-2.8 10.7,-3.44 16.65,32.17 -32.9,29.41 -46.2,44.84 -7.29,-12.91 15.32,-17.81 22.2,-24.98 4.68,-5.27 7.3,-12.37 13.3,-16.42zm41.44 -4.85c8.59,-11.4 25.86,-12.06 32.75,-25.27 20.28,18.94 -23.3,32.6 -36.77,35.58 1.04,-3.51 1.72,-7.31 4.02,-10.31zm124.23 -77.71c32.46,-16.8 -31.37,88.8 -74.21,37.35 7.6,-7.74 20.42,0.71 27.83,-7.2 18.28,-5.03 30.8,-20.34 46.38,-30.15zm25.69 -10.71c12.72,2.94 24.59,-8.13 36.03,-0.69 -3.66,16.4 -16.24,22.83 -31.11,27.03 -1.01,-7.3 -12.41,-8.42 -9.86,-16.94 4.25,-1.28 4.23,-5.84 4.94,-9.4zm-473.34 -56.6c59.32,-14.44 58.48,56.36 16.99,69.51 -3.4,-26.39 -13.01,-45.1 -40.76,-49.93 3.72,-10.24 13.37,-17.25 23.77,-19.58zm327.95 21.96c15.22,-22.2 24.22,-47.9 32.06,-73.46 16.79,162.19 -268.9,169.83 -252.77,9.15 25.12,60.79 61.41,107.78 131.14,107.47 36.87,-0.16 67.5,-10.98 89.57,-43.16zm333.4 -169.51c11.84,-4.45 24.38,1.36 33.16,9.37 0.09,35.94 -18.24,50.04 -45.55,67.72 50.01,35.49 53.59,-75.14 88.75,-67.52 27.51,5.95 36.84,34.3 29.16,58.47 -17.26,-1.26 -14.85,-21.29 -31.88,-23.07 -9.11,36.11 1.41,77.28 -31.91,104.71 16.04,11.17 36.48,1.05 50.52,-8.88 -11.39,-27.1 8.98,-50.13 27.3,-68.22 19.99,2.28 14.05,26.91 29.28,32.75 35.7,14.35 -14.12,58.51 -21.18,2.78 -0.56,-5.05 -5.44,-7.96 -9.94,-9.02 -17.37,30.81 -7.11,8.52 5.28,35.12 1.6,3.28 0.91,6.98 0.61,10.47 -71.02,28.08 -147.04,38.38 -221.3,54.13 3.69,-10.6 19.07,-13.09 18.53,-25.87 29.12,16.3 55.23,-20.35 76.44,-0.76 13.76,-6.65 29.79,-12.79 36.7,-27.61 -10.6,-10.13 -26.36,7.69 -36.34,-4.07 -7.46,-13.62 3.34,-27.73 4.09,-41.59 -28.1,-3.62 -17.2,57.13 -41.13,63.71 -12.45,2.23 -26.81,0.34 -35.98,-9.15 -31.61,9.62 -28.06,51.77 -71.62,45.56 17.91,-28 37.47,-67.85 17.4,-99.9 -7.78,25.06 -6.91,68.84 -34.86,82.03 -36.3,17.14 -24.73,-14.31 -37.5,-32.24 -21.4,33.24 -25.71,83.31 -76.06,81.63 3.39,-12.68 6.1,-22.82 -4.76,-32.09 -18.86,32.61 -34.27,66.95 -68.09,86.42 -15.03,-14.16 18.38,-30.84 -4.5,-41.11 -26.83,14.22 -35.28,68.39 -72.71,63.08 -5.64,-7.79 -3.78,-17.92 -4.13,-26.9 -33.81,15.7 -29.13,64.4 -73.63,63.89 -12.77,-0.15 -1.3,-24.79 -2.85,-32.24 -40.5,6.66 -25.15,66.26 -78.32,64.08 -10.43,-0.43 -2.56,-26.33 -3.18,-32.54 -32.83,19.81 -38.64,68.45 -90.22,68.11 -6.33,-10.17 -10.49,-14.89 -9.38,-27.23 -19.75,0 -14.62,27.87 -31.7,32.14 -6.45,13.96 -16.71,4.48 -27.01,-0.5 -2.01,-20.95 1.68,-28.31 13.38,-44.46 25.5,5.67 40.64,-2.9 63.99,-10.31 47.31,-14.21 96.37,-25.39 139.6,-50.22 4.88,-2.05 6.61,-7.94 11.64,-9.69 14.84,-5.16 31.79,1.11 47.43,-5.73 15.73,-6.35 24.9,-22.13 40.15,-29.26 9.89,-4.88 21.3,-5.05 32.02,-3.46 44.26,-26.4 87.25,-58.79 113.3,-104.25 13.73,-23.44 22.3,-49.64 26.74,-76.38 16.95,3 23.99,-9.51 35.99,-18.32 61.22,14.31 2.64,96.55 -17,79.38 -3.21,-2.81 -6.16,-6.02 -10.11,-7.77 -5.81,20.08 -18.81,36.79 -27.84,55.4 58.75,-44.16 160.57,-80.76 141.19,-171.91 9.42,-5.25 27.88,-23.83 38.08,-8.97 27.72,40.43 -20.34,43.95 -25.51,63.18 54.44,12.27 33.47,-95.29 86.12,-63.59 -1.05,45.76 -16.69,29.6 -20.41,45.79 -1.75,7.61 8.83,2.55 10.86,0.69 16.28,16.73 -1.24,100.94 -50.43,57.62 -3.43,-3.12 -8.01,-4.32 -12.43,-5.19 -2.15,48.37 75.59,46.32 77.22,3.41 -0.34,-17.74 7.93,-34.73 4.83,-52.58 -15.75,-9.69 -14.1,-7.36 -4.86,-18.01 5.87,-17.12 16.64,-34.74 34.56,-41.03zm-176.61 -8.61c10.34,-1.05 21.36,1.43 28.97,8.88 -3.76,4.02 -4.39,9.54 -6.82,14.23 -7.52,11.71 -27.47,5.88 -29.84,21.9 63.35,-5.97 25.62,52.52 9.81,54.02 -9.83,-25.95 -24.15,-45.43 -54.31,-45.62 2.48,-30.65 19.33,-50.24 52.19,-53.41zm-197.1 -10.21c1.63,-0.31 89.84,-22.15 73.56,-3.43 -12.68,14.59 -107.48,29.68 -114.16,4.88 13.54,1.11 27.22,1.13 40.6,-1.45zm-285.47 -1.72c16.49,-9.51 36.89,-12.34 55.08,-6.21 -3.24,27.07 -36.65,49.58 -59.07,26.65 -11.03,7.21 0.61,15.71 5.36,23.41 77.28,-1.42 62.43,-81.14 111.5,-36.97 16.64,14.98 17.85,35.03 -5.58,40.4 -35.37,8.1 -94.91,-3.21 -115.84,46.33 26.46,0.15 72.5,-48.23 123.62,-30.72 50.85,17.43 83.46,-25.45 130.3,-19.27 45.91,6.06 89.82,32.74 134.31,45.08 -38.12,9.93 -93.87,-19.53 -145.43,-21.61 -43.54,-1.75 -58.88,20.56 -62.46,21.23 -54.86,4.19 -132.58,-28.8 -174.9,22.69 -36.15,43.98 -100.25,97.39 -144.85,132.99 -48.75,38.99 -99.47,61.65 -162.66,56.82 -0.02,-2.91 -0.02,-5.8 0,-8.7 14.43,-8.25 22.8,-23.09 31.63,-36.56 -10.82,-0.07 -21.64,-0.01 -32.46,0.02 -10.3,1.14 -16.26,-10.77 -26.73,-9.37 -2.68,-8.8 8.94,-10.12 9.91,-17.7 -14.45,0.4 -18.55,9.64 -19.35,22.54 10.58,11.52 26.63,14.59 41.05,18.64 -5.6,7.91 -28.85,18.63 -22.71,31.73 14.58,14.07 33.62,24.23 54.19,24.78 89.79,2.61 179.67,-130.4 231.76,-124.25 54.13,6.39 46.69,72.5 -1.06,75.96 -0.93,-11.83 30.41,-40.08 5.71,-48.01 -11.4,-3.5 -23.65,1.08 -33.15,7.5 2.28,16.38 20.67,27.39 -4.7,36.79 -13.76,5.06 -31.56,4.5 -40.71,17.83 17.09,18.1 37.89,-11.61 54.92,-0.33 -9.89,30.86 -61.76,45.37 -86.27,22.36 -12.27,19.92 5.76,56.26 -45.5,54.36 -7.03,-0.15 -13.68,-3.55 -17.82,-9.24 -3.54,0.29 -58.61,41.76 -58.26,-13.34 -14.82,22.45 -89.93,46.49 -58.15,-18.34 -84.79,57.75 73.51,61.57 103.28,55.31 -6.55,19.8 -30.61,10.61 -45.07,11.34 -18.3,0.92 -8.12,22.4 -40.44,10.98 -8.92,0.35 -15.12,-7.23 -18.86,-14.41 -9.58,1.13 -20.98,16.85 -29.61,6.87 -3.22,-3.73 -16.72,-4.37 -5.41,-11.43 -2.33,-7.89 -11.48,-3.19 -18.48,-3.94 -0.11,-1.19 -0.35,-3.56 -0.46,-4.73 -14.96,-6.06 -21.46,-14.88 -22.58,-30.99 14.59,-9 34.36,-9.01 45.82,-22.91 -0.3,-0.73 -0.91,-2.18 -1.21,-2.91 -17.19,-6.96 -40.88,5.94 -44.76,-19.8 18.13,-18.36 64.81,4.95 73.17,-23.29 -1.93,-0.87 -85.12,5.49 -51.62,-25.28 10.26,-9.2 23.03,-14.94 33.72,-23.6 -7.92,-11.55 -70.39,-13.99 -38.55,-37.42 7.1,-5.35 16.55,-8.51 20.4,-17.21 -17.65,-9.55 -45.38,2.28 -58.26,-13.99 2.22,-4.02 3.65,-8.4 4,-13.02 -37.18,8.47 -8.24,31.66 16.89,31.96 -7.71,10.62 -7.59,24.38 -13.03,36.03 -11.57,2.31 -22.32,-3.71 -31.53,-9.89 -4.12,-9.53 7.01,-14.26 9.66,-22.04 -26.81,0.36 -34.03,34.41 -9.25,39.85 31.26,6.87 73.81,-10.78 28.55,30.01 -9.34,8.42 10.56,20.5 11.83,29.41 -43.4,20.43 -0.21,49.12 -0.02,53.86 -10.16,6.63 -17.29,26.2 -10.17,36.63 3.92,5.75 50.22,26.62 25.19,34.34 -25.62,7.91 -51.2,-12.36 -51.29,-38.36 1.22,0.03 3.65,0.08 4.88,0.12 4.79,-7.63 5.83,-17.66 13.48,-23.33 -22.03,-16.84 -54.43,-4.62 -36.21,-49.64 -19.97,2.54 -19.82,21.59 -27.43,36.47 -20.53,-0.11 -29.31,-18.38 -27.3,-36.99 -10.16,5.97 -18.44,18.77 -9.46,28.82 -1.14,6.4 5.88,7.45 9.25,11.12 -2.37,24.08 -30.7,66.18 13.75,74.36 0.01,0.9 0.03,2.71 0.05,3.62 -15.22,1.48 -7.1,17.04 -28.54,2.23 -22.62,-15.62 -16.58,-17.11 -11.45,-42.55 -22.46,-1.68 -48.03,0.17 -68.07,11.42 114.59,-149.63 180.99,-346.89 397.91,-360.03 81.73,-4.95 103.87,6.25 180.38,19.09 3.95,-19.07 18.69,-34.16 35.17,-43.57zm-234.8 42.94c5.67,2.88 11.46,6.35 18.11,5.53 8.52,6.68 35.53,9.86 37.62,-5.43 -25.3,1.04 -52.19,-17.36 -55.73,-0.1zm100.47 0.2c-1.72,4.52 -5.55,7.35 -9.76,9.36 2.14,13.39 9.06,18.2 22.29,18.28 0.06,1.01 0.21,3.01 0.28,4.02 14.55,3.9 39.85,2.97 52.45,-5.79 -9.35,-13.46 -18.92,13.88 -65.26,-25.87zm-161.09 9.43c-1.19,4.5 0.67,8.95 1.86,13.23 5.8,2.75 11.69,6.22 18.41,5.31 0.06,1.11 0.18,3.31 0.25,4.4 9.2,1.6 38.59,3.36 43.34,-7.99 -8.19,-2.54 -16.81,-1.38 -25.2,-2.05 -4.38,-1.21 -33.65,-22.66 -38.66,-12.9zm95.45 22.17c-16.36,17.22 28.58,26.71 37.16,27.32 6.8,0.5 40.77,-5.69 43.74,-12.6 -17.76,-2.7 -35.72,-0.86 -53.55,-0.73 -11.02,-0.71 -13.37,-29.48 -27.35,-13.99zm-146.38 5.64c-28.01,18.72 44.09,41.7 58.79,17.27 -28.85,-0.77 -48.04,11.2 -40.92,-22.9 -6.07,1.34 -12.51,2.24 -17.87,5.63zm94.66 13.74c-2.98,3.28 -5.31,7.45 -9.98,8.52 -1.65,31.6 51.86,20.48 67.72,17.29 14.49,42.93 71.57,22.48 104.22,22.7 18.06,0.11 28.36,-6.04 41.61,-18.33 -18.66,-1.23 -33.67,18.45 -51,4.33 2.36,-4.53 6.83,-7.19 10.62,-10.39 -12.28,-12.37 -60.87,31.8 -96.69,-12.29 -15.36,0.88 -64.25,18.79 -57.84,-13.43 -2.91,0.15 -6.5,-0.91 -8.66,1.6zm-143.44 21.76c-10.18,7 -10.64,25.72 19.12,27.13 12.8,0.48 25.61,-0.23 38.43,0.11 2.12,-19.53 -34.58,-3.89 -44.77,-14.42 3.74,-5.49 8.89,-10.64 8.8,-17.8 -7.32,0.61 -15.26,0.74 -21.58,4.98zm110.8 12.7c-37.19,8.72 -20.07,58.59 49.66,41.89 1.37,30.91 39.27,24.79 60.03,34.77 21.04,10.25 37.36,12.85 57.58,-4.58 6.44,-5.56 11.93,-13.63 10.01,-22.57 -2.43,9.9 -13.65,11.32 -19.32,18.5 -15.46,0 -39,13.11 -44.48,-8.42 10.24,-12.03 31.28,-10.89 36.72,-27.51 -28.19,0.91 -60.75,32.25 -86.45,9.23 7.92,-10.11 19.6,-6.64 18.51,-22.9 -27.43,1.07 -46.83,13.76 -77.65,9.09 -10.85,-16.36 9.15,-20.66 9.98,-36.41 -6.3,-0.25 -12.24,2.89 -14.59,8.91zm-40.04 28.22c-0.29,0.98 -0.87,2.92 -1.17,3.89 -49.81,11.33 -20.67,72.62 31.84,55.07 -1.67,36.01 46.31,18.96 50.51,49.33 20.89,-4.68 30.47,16.51 58.69,-11.1 4.55,-4.42 7.1,-10.89 5.11,-17.11 -2.8,8.1 -12.88,6.89 -14.9,14.2 -16.36,3.51 -40.16,9.12 -44.29,-12.99 16.48,-6.14 33.37,-7.41 36.65,-27.92 -23.66,4.66 -35.08,18.77 -67.37,18.48 -2.1,-8.32 -10.63,-8.16 -9.92,-17.84 13.21,-2.46 18.15,-4.45 18.58,-18.46 -29.99,0.06 -80.56,19.6 -65.92,-14.16 2.94,-7.23 9.44,-13.68 8.53,-21.97 -2.12,0.2 -4.23,0.39 -6.34,0.58zm-163.57 76.25c-25.26,30.19 23.12,61.64 51.12,45.26 -6.15,-2.82 -55.83,-17.24 -38.53,-32.54 9.27,-8.2 24.09,-1.07 24.65,-17.55 -12.97,-3.36 -24.45,5.41 -37.24,4.83zm280.46 383.71c3.43,12.21 27.61,45.66 14.25,58.53 -11.52,4.6 -25.78,8.57 -36.98,0.94 3.05,25.85 93.01,51.3 51.88,-32.45 -5.97,-12.18 -16.28,-22.38 -29.15,-27.02zm-71.74 9.13c-1.03,7.65 -0.1,15.46 -0.41,23.16 17.1,11.65 20.3,15.75 41.75,13.77 -1.58,-7.4 -38.83,-25.03 -15.7,-29.42 14.23,-2.7 29.51,9.39 38.13,-7.09 -18.33,-5.21 -47.64,-15.92 -63.77,-0.42zm131.06 40.45c7.14,15.64 19.96,31.07 17.82,49.63 -0.67,2.51 -25.42,17.09 -40.88,5.06 2.44,28.9 45.37,24.7 64.17,18.54 -0.62,-22.84 -9.28,-73.63 -41.11,-73.23zm67.35 45.34c-1.39,28.52 39.01,65.81 -22.45,59.22 1.54,21.05 60.56,24.33 54.31,-7.37 -3.46,-20.43 -13.62,-40.91 -31.86,-51.85zm54.19 49.68c2.02,14.89 13.35,26.91 13.7,42.13 -3.91,12.91 -21.84,16.16 -31.71,8.08 -0.92,23.94 36.81,20.5 50.48,13.96 -0.72,-26 -4.61,-53.98 -32.47,-64.17zm67.81 49.63c-2.07,15 11.51,26.73 9.03,41.65 -7.84,9.63 -24.95,-2.85 -31.94,8.67 13.73,11.58 33.76,17.6 50.73,9.59 1.08,-22.94 -8.63,-46.61 -27.82,-59.91zm73.15 64.89c4.59,36.75 1.57,13.79 -19.32,35.27 10.91,7.18 26.35,6.98 37.5,0.36 0.15,-13.27 -4.59,-31.89 -18.18,-35.63zm49.09 25.58c-3.6,23.84 31.51,42.44 -18.26,41.07 0.78,19.63 28.53,13.27 41.47,14.01 5.58,-20.87 -6,-43.27 -23.21,-55.08zm58.12 50.83c1.01,26.75 18.99,22.4 -22.15,26.02 -0.27,20.03 29.85,16.09 41.44,10.08 0.01,-15.19 -7.35,-28.75 -14.1,-41.87 -2.08,1.5 -5.77,2.45 -5.19,5.77zm50.14 21.36c4.15,1.59 27.87,42.56 -4.86,41.63 3.34,4.13 7.64,4.3 10.07,9.17 7.77,1.04 15.86,-0.1 22.55,-4.39 -0.12,-12.84 -6.13,-54.74 -27.76,-46.41zm58.58 77.99c15.97,1.62 38.97,-9.5 28.07,-28.1 -12.31,5.92 -19.97,17.67 -28.07,28.1zm82.09 -14.75c-0.61,17.25 -13.98,16.99 -23.52,28.05 11.1,2.75 21.69,-2.1 32.31,-4.46 -0.41,-10.6 5.27,-23.29 -8.79,-23.59z"/>
   <path class="fil3" d="M1694.49 402.55c46.7,-13.3 94.89,-20.08 142.39,-29.86 -13.22,42.52 45.28,102.52 -24.59,129.59 -23.52,9.12 -89.17,11.41 -84.78,-23.01 1.64,-10.17 3.34,-20.53 1.71,-30.83 -15.99,6.61 -7.8,45.93 -22.52,45.36 -9.67,-2.85 -19.73,-4.7 -29.84,-3.71 -78.94,5.71 -58.17,16.64 -65.06,-47.31 -1.23,-11.43 68.92,-36.26 82.69,-40.23zm-317.62 521.36c97.13,-17.55 137.14,63.28 170.71,134.89 -36.23,-13.27 -42.59,-60.81 -84.46,-67.54 11.18,-35.79 -17.41,-34.53 -46.72,-54.48 -2.86,15.2 25.79,27.14 36.59,32.34 -8.79,56.86 59.79,29.9 54.73,84.39 -26.23,-8.72 -20.42,4.84 -40.55,10.11 -36.24,-45.52 -73.71,-80.57 -90.3,-139.71zm-182.27 -319.77c26.01,-16.75 55.87,-26.74 86.1,-32.49 -69.13,72.5 -157.7,78.25 -12.53,205.12 34.69,30.32 96.97,76.82 125.77,106.07 -31.7,5.73 -77.53,-5.85 -107.76,-18.28 -38.4,68.02 20.53,144.37 77.32,177.04 -4.73,-38.97 -68.98,-65.85 -40.31,-92.23 5.55,-4.56 10.09,-10.19 13.59,-16.44 42.94,18.42 43.41,62.55 70.47,95.28 17.18,20.79 36.96,24.38 41.58,58.55 17.05,-0.88 24.11,-20.66 40.61,-22.78 2.71,20.45 -0.75,42.38 -13.87,58.84 27.73,17.09 68.17,-22.57 50.49,-26.1 -22.73,-4.55 -17.22,5.85 -18.15,-32.06 23.38,12.1 26.39,0.4 44.63,3.42 -20.7,166.12 -125.17,42.09 -202.36,13.53 2.58,-8.52 -5.72,-14.26 -5.51,-22.41 -24.53,-3.83 -30.6,-17.3 -62.33,-18.53 1.33,-30.94 -44.79,-35.76 -72.72,-49.35 -1.37,-34.63 -32.25,-40.6 -58.8,-49.62 -0.68,-13.58 1.91,-16.58 -3.43,-20.76 -38.05,-29.8 -186.09,-112.12 -212.54,-168.04 -2.78,-9.66 -2.1,-21.19 -9.71,-28.85 37.72,-97.71 276.19,22.86 328.68,86.22 -4.94,0.26 -11.28,-0.89 -13.71,4.68 33.6,24.82 54.25,19.25 91.43,54.42 -11.94,-36.95 -110.59,-111.13 -138.69,-131.61 -51.96,-37.86 -54.66,-96.52 1.75,-133.62zm624.59 -187.3c6.68,47.77 -11.53,51.64 -36.52,68.67 46.39,6.72 60.08,-47.16 36.52,-68.67z"/>
  </g>
 </g>
</svg>
