<?xml version="1.0" encoding="UTF-8"?>
<!DOCTYPE svg PUBLIC "-//W3C//DTD SVG 1.1//EN" "http://www.w3.org/Graphics/SVG/1.1/DTD/svg11.dtd">
<!-- Creator: CorelDRAW -->
<svg xmlns="http://www.w3.org/2000/svg" xml:space="preserve" width="2000px" height="1600px" version="1.1" style="shape-rendering:geometricPrecision; text-rendering:geometricPrecision; image-rendering:optimizeQuality; fill-rule:evenodd; clip-rule:evenodd"
viewBox="0 0 2000 1600"
 xmlns:xlink="http://www.w3.org/1999/xlink">
 <defs>
  <style type="text/css">
   <![CDATA[
    .fil0 {fill:black}
    .fil2 {fill:#79112C;fill-rule:nonzero}
    .fil1 {fill:#BBC0C2;fill-rule:nonzero}
    .fil3 {fill:#FEFEFE;fill-rule:nonzero}
   ]]>
  </style>
 </defs>
 <g id="Capa_x0020_1">
  <metadata id="CorelCorpID_0Corel-Layer"/>
  <g id="Fordham_x0020_Rams.cdr">
   <path class="fil0" d="M1551.21 743.08c0.08,75.31 -0.08,150.62 0.07,225.93l0.06 33.8 -33.8 0.12c-59.81,0.22 -119.62,-0.06 -179.43,0.08 0.02,34.61 -0.07,69.22 -0.01,103.83 24.22,-0.02 48.44,0.03 72.67,0l33.9 -0.05 0 33.91c0,115.14 0,230.29 0,345.44l0 33.86 -33.86 0c-196.14,0 -392.29,0 -588.43,0l-33.86 0 0 -33.86 0 -286.06c-8.75,-0.05 -16.78,-3.35 -22.82,-9.03 -24.94,-3.21 -48.58,-9.47 -69.61,-26.43 -9.53,-7.68 -13.98,-19.27 -12.36,-30.83 -13.37,-23.23 -22.69,-48.76 -27.37,-75.19 -0.28,-1.34 -0.49,-2.73 -0.62,-4.17 -0.09,-0.9 -0.15,-1.81 -0.17,-2.7 -0.27,-7.15 0.15,-18.49 -1.74,-24.44 -0.08,-0.24 -0.14,-0.44 -0.21,-0.68 -6.81,-23.09 -22.68,-44.51 -36.92,-63.6 -22.39,-30.03 -46.59,-57.41 -64.15,-90.85 -0.13,-0.25 -0.23,-0.46 -0.36,-0.71 -1,-2.01 -1.96,-4.04 -2.89,-6.09 -12.56,12.67 -26.44,23.99 -41.84,33.33 -6.41,3.89 -13.01,5.44 -20.48,4.79 -5.76,-0.5 -11.47,-1.24 -17.12,-2.21 -4.9,11.44 -15.79,19.4 -28.83,20.27 -59.25,3.96 -119.16,-14.28 -166.58,-49.93 -54.47,-40.94 -93.91,-99.57 -116.96,-163.28 -6.89,-19.04 -12.01,-38.72 -14.88,-58.77 -0.8,-5.56 -0.32,-10.91 1.37,-15.84 -3.06,-4.53 -5.03,-9.87 -5.62,-15.7 -5.62,-55.35 -0.21,-111.08 10.62,-165.47 1.3,-6.52 4.23,-12.2 8.47,-16.69 -1.71,-5.76 -1.81,-12 -0.17,-18.26 11.6,-44.21 29.4,-86.6 51.08,-126.79 3.81,-7.38 8.49,-13.9 14.82,-19.29 0.68,-5.01 2.51,-9.93 5.52,-14.44 33.55,-50.35 77.41,-93.96 128.83,-125.97 11.75,-7.31 26.15,-6.78 37.09,0.83 14.99,-13.21 31.6,-24.49 48.87,-34.7 7.23,-4.42 15.15,-7.55 23.48,-9.13 43.12,-8.88 87.78,-10.89 131.32,-3.91 12.45,2 22.3,10.35 26.42,21.62 3.44,-0.52 6.89,-1.01 10.34,-1.48 0.94,-0.13 1.74,-0.21 2.69,-0.26 1.55,-0.08 3.3,-0.41 4.85,-0.62 5.07,-0.67 9.94,-0.95 14.71,-0.65 1.34,-0.94 2.77,-1.79 4.27,-2.56 16.07,-8.21 33.8,-12.09 51.76,-12.69 36.43,-1.21 71.44,5.91 106.86,13.29 8.9,1.86 17.97,4.17 27.07,6.08 14.18,-9.96 34.67,-8.67 48.14,9.04 0.93,1.22 1.65,2.31 2.41,3.64 8.51,14.83 19.74,28.04 32.94,38.9 0.1,0.07 0.19,0.13 0.29,0.2 6.2,4.18 11.31,6.49 16.5,9.85 5.14,-2.48 10.15,-5.37 15.03,-8.13 5.53,-3.14 11.57,-4.59 17.5,-4.47 2.84,-4.01 5.54,-8.08 8.01,-12.26 1.78,-3.01 3.92,-5.64 6.34,-7.88 1.94,-7.4 6.44,-13.92 13.1,-18.68 23.54,-16.84 46.1,-10.76 70.87,-2.87 0.54,0.17 0.99,0.32 1.51,0.52 25.43,9.43 48.54,21.06 58.65,48.38 0.09,0.26 0.18,0.49 0.27,0.75 2.05,5.99 3.11,12.16 3.2,18.41 229.34,0.02 458.67,-0.01 688.01,-0.01l33.86 0 0 33.86c0,164.33 0,328.65 0,492.97l0 33.82 -33.82 0.04c-92.95,0.11 -185.9,-0.12 -278.86,0.07z"/>
   <path class="fil1" d="M1124.33 216.18c235.24,0.03 470.47,0 705.7,0 0,164.32 0,328.66 0,492.97 -104.24,0.12 -208.49,-0.18 -312.73,0.17 0.19,86.58 -0.05,173.17 0.12,259.75 -71.08,0.26 -142.16,-0.18 -213.24,0.21 0.21,57.15 -0.12,114.32 0.16,171.49 35.48,-0.15 70.97,-0.03 106.47,-0.07 0,115.15 0,230.29 0,345.44 -196.14,0 -392.29,0 -588.43,0 0,-99.42 0,-198.81 0,-298.23 35.1,-7.64 69.72,-23.66 93.21,-51.57 10.82,-12.84 18.97,-27.94 23.4,-44.15 1.31,-6.44 6.72,-10.54 10.49,-15.5 8.99,-10.75 14.66,-23.73 19.67,-36.7 0.47,50.26 0.05,100.52 0.28,150.75 -31.94,0.73 -63.91,0.12 -95.88,0.31 -0.3,81.59 -0.44,163.19 0.07,244.76 137.41,-0.07 274.84,-0.02 412.27,-0.02 24.71,-0.23 49.44,0.49 74.15,-0.44 -0.64,-81.46 0.42,-162.94 -0.54,-244.4 -35.39,0.19 -70.76,0.12 -106.12,0.07 -0.12,-90.91 -0.09,-181.83 -0.02,-272.75 71.1,-0.16 142.23,-0.07 213.35,-0.04 0.61,-79.8 0.19,-159.59 0.22,-239.38 -71.11,-0.17 -142.24,-0.26 -213.34,0.05 -0.63,-56.66 -0.14,-113.31 -0.23,-169.96 81.17,0.02 162.34,-0.05 243.52,0.02 0.02,49.95 -0.05,99.91 0.02,149.86 94.27,-0.04 188.54,0.12 282.8,-0.09 -0.07,-117.05 0,-234.11 -0.05,-351.14 0.08,-13.75 0.19,-27.47 -0.39,-41.19 -222.17,0.39 -444.33,-0.05 -666.5,0.21 2.42,-17.1 6.19,-34.01 11.57,-50.43zm-447.35 -85.79c11.6,-5.92 24.53,-8.59 37.48,-8.99 33.39,-1.15 66.32,5.74 98.83,12.6 17.19,3.49 34.19,8.39 51.74,9.93 0.46,-2.6 -0.89,-13.14 3.41,-7.47 10.66,18.57 24.74,35.08 41.32,48.62 7.54,5.88 17.14,8.71 23.93,15.64 8.48,8.32 15.93,19.61 14.99,31.97 -0.18,19.58 8.46,37.64 13.26,56.26 10.72,36.32 13.84,74.94 8.08,112.42 -2.62,16.18 -3.37,33.35 2.74,48.87 4.57,12.02 14.92,22.11 27.73,24.74 15.97,3.49 32.27,-1.88 46.65,-8.67 13.77,-7.05 27.64,-15.97 35.2,-29.98 3.19,36.84 -9.65,73.14 -5.06,110.01 1.99,16.53 7.75,32.65 17.31,46.35 4.78,5.24 2.9,12.64 1.12,18.76 -4.52,13.27 -15.2,22.99 -25.29,32.17 -16.09,-4.07 -33.42,-3.16 -48.78,3.28 -11.88,4.31 -21.76,12.7 -33.75,16.7 -0.82,-7.14 -1.45,-14.45 0.4,-21.47 8.17,-29.84 19.81,-58.79 25.52,-89.28 -10.23,18.48 -18.69,37.89 -27.56,57.05 -6.3,15.53 -15.27,31.38 -12.48,48.76 4.59,39.58 -0.26,79.49 -6.84,118.55 -8.76,48.11 -19.98,95.72 -29.3,143.71 -1.15,6.09 -2.32,12.18 -4.05,18.15 -1.71,-9.84 -2.39,-19.88 -0.52,-29.74 5.97,-34.85 8.74,-70.15 14.29,-105.04 8.73,-46.21 16.98,-93.36 12.41,-140.52 -0.94,-9 0.19,-18.41 -2.86,-27.03 -5.2,-7.96 -15.59,-9.72 -24.35,-10.54 -24.08,-1.38 -48.09,4.68 -70.05,14.22 -7.62,3.49 -15.74,7.16 -20.78,14.17 -4.96,6.81 -8.73,14.49 -14.4,20.82 -7.59,8.73 -17.64,14.66 -27.29,20.79 17.1,30.59 26.96,65.53 25.65,100.71 -1.29,31.24 -2.41,63.28 -13.42,92.91 -2.06,4.49 -3.68,9.9 -7.96,12.81 -9.35,3.98 -19.61,5.08 -29.09,8.66 -22.34,7.94 -44.03,20.97 -57.15,41.22 -9.2,14.06 -15.73,31.6 -10.7,48.39 -8.52,-9.56 -18.53,-17.94 -30.59,-22.65 11.5,16.49 23.26,33.61 28.01,53.45 4.22,16.53 10.68,32.53 20.64,46.49 -16.4,-1.39 -26.75,-14.99 -35.98,-26.98 -0.7,-11.43 0.17,-23.12 -3.34,-34.17 -8.15,-27.66 -25.21,-51.46 -42.26,-74.27 -21.05,-28.29 -44.82,-54.94 -61.31,-86.35 -7.82,-15.78 -14.26,-33.98 -10.14,-51.69 5.95,-11.4 13.02,-22.22 18.64,-33.84 4.94,12.37 14.03,22.37 24.48,30.4 -11.03,-35.06 -21.97,-70.17 -35.04,-104.55 -6.02,-22.29 3.21,-44.89 12.46,-64.89 4.96,3.51 11.13,2.99 16.89,3.25 -6.84,-16.91 -9.82,-35.29 -9.35,-53.52 0.14,-8.54 4.76,-16.11 9.04,-23.21 9.7,-15.76 22.46,-29.25 34.85,-42.88 -24.05,10.57 -46.37,29.07 -55.18,54.52 -3.18,8.18 -3.16,17.06 -2.29,25.67 -10.17,-32.36 -27.8,-63.37 -55.11,-84.22 -28.97,-22.9 -66.35,-32.25 -102.72,-33.13 -4.31,-20.17 -14.15,-38.84 -27.24,-54.62 -21.29,-25.88 -48.92,-45.46 -76.61,-63.92 -16.81,-11.24 -34.35,-21.52 -49.81,-34.63 -8.08,-6.79 -13.26,-16.52 -15.34,-26.8 1.33,-0.16 4.03,-0.49 5.36,-0.65 7.57,6.53 16.25,11.92 26.28,13.54 31.38,6.08 63.42,0.95 95.04,0.3 40.63,-0.23 82.02,3.89 120.31,18.2 -13.77,2.55 -28.27,4.17 -39.96,12.6 37.62,0.75 73.19,19.6 97.48,47.87 -5.08,6.39 -12.84,9.93 -17.99,16.25 -12.39,14.38 -17.42,33.89 -16.93,52.6 4.54,-8.73 7,-18.43 12.34,-26.74 7.54,-13.02 19.09,-23.45 32.48,-30.14 3.59,-13 11.93,-24.88 24.22,-30.87 9.91,-5.29 21.31,-6.4 32.37,-6.65 10.04,-11.62 26.02,-17.99 41.24,-14.67 14.71,2.16 26.56,11.48 38.57,19.4 16.05,5.62 33.89,12.5 42.18,28.5 4.48,7.4 2.06,16.02 2.67,24.08 2.58,10.79 12.7,17.54 22.46,21.24 12.58,4.73 26.82,1.15 37.5,-6.4 15.57,-10.37 26.53,-25.9 36.3,-41.52 6.25,-7.54 16.96,-4.45 23.89,0.33 -1.41,-5.97 -1.01,-14.01 -7.26,-17.36 -5.43,-3.58 -11.88,-0.46 -17.52,0.66 -18.48,-72.58 -51.92,-142.91 -104.41,-197.15 -20.44,-20.52 -43.82,-38.27 -69.7,-51.39zm312.36 568.06c10.56,4.43 22.18,4.59 33.19,1.62 1.31,6.53 1.99,13.46 -0.99,19.69 -7.19,17.43 -13.95,35.04 -19.79,52.96 -6.16,19.74 -12.83,41.05 -30.33,53.84 8.67,-42.25 16.91,-84.88 17.92,-128.11zm-661.53 -89.93c14.34,12.83 34.55,14.59 52.91,14.03 0.35,11.47 1.47,22.92 3.75,34.19 -7.48,9.46 -16.09,17.89 -25.32,25.62 -1.55,-1.33 -3.07,-2.69 -4.59,-4.03 -15.76,-19.93 -23.84,-44.8 -26.75,-69.81zm83.22 -57.55c23.25,13.54 42.76,35.93 47.73,62.96 2.59,16.49 1.54,33.86 -4.55,49.51 -4.47,11.61 -14.52,21.92 -27.4,23.21 -10.26,2.34 -17.85,-7.12 -22.34,-14.99 -10.8,-21.22 -9.91,-45.79 -9.28,-68.9 1.34,-18.04 3.87,-37.4 15.84,-51.79zm-83.62 40.4c0.36,-20.86 3.96,-41.54 9.56,-61.64 20.66,3.63 41.41,7.57 60.99,15.3 -10.38,15.03 -14.34,33.3 -16.14,51.19 -17.31,8.78 -39.23,7.85 -54.41,-4.85zm56.59 -167.05c14.4,15.27 25.48,33.75 31.08,54.03 -21.48,1.73 -42.98,4.28 -63.71,10.4 9.82,-21.06 18.72,-42.65 30.85,-62.49l1.78 -1.94zm568.97 -221.23c9.18,-3.54 17.75,-8.36 26.3,-13.21 -6.72,8.53 -13.3,17.17 -19.04,26.37 -2.37,-4.42 -4.83,-8.78 -7.26,-13.16zm-218 -66.16l0 0c13.73,5.67 28.18,9.37 41.97,14.82 35.34,13.4 69.02,33.99 91.86,64.67 9.57,11.59 15.06,25.71 23.16,38.27 3.35,-10.4 2.46,-21.34 1.75,-32.02 10.03,6.63 16.14,17.38 20.4,28.34 10.73,27.61 13,57.59 13.19,86.96 0.21,34.8 -5.15,69.28 -8.74,103.8 9,-7.8 14.5,-18.44 19.96,-28.79 2.5,24.2 2.04,48.69 -1.76,72.7 -1.75,11.38 -5.2,22.41 -6.6,33.84 9.34,-11.99 14.75,-26.46 19.06,-40.91 8.76,-31.81 8.88,-66.85 -3.98,-97.57 -4.31,-9.25 -1.19,-19.47 -0.98,-29.14 1.42,-32.32 -0.21,-65.15 -8.74,-96.51 -4.85,-16.65 -12.36,-33.07 -24.57,-45.65 -7.4,-7.98 -18.2,-11.31 -26.32,-18.34 -30.92,-27.89 -70.78,-44.42 -111.41,-51.92 -12.63,-1.85 -25.48,-5.13 -38.25,-2.55zm-374.6 191.27l0 0c39.72,28.18 83.87,51.24 117.71,86.96 8.9,10.38 19.48,22.74 17.26,37.4 -4.17,10.85 -17.68,9.02 -25.7,3.82 4.01,7.78 9.91,18.1 20.19,16.84 13.63,-1.76 21.83,-16.84 19.53,-29.67 -2.99,-18.76 -16.62,-33.42 -29.97,-45.96 -27.8,-24.63 -60.82,-42.36 -94.03,-58.57 -8.18,-3.96 -16.28,-8.15 -24.99,-10.82zm264.69 58.39l0 0c-12.41,4.71 -24.75,11.99 -30.82,24.36 9.7,-3.31 18.81,-8.44 28.92,-10.47 7.31,-1.43 15.46,1.28 22.09,-3.1 7.47,-4.37 16,-7.91 24.87,-6.39 10.4,0.94 18.76,7.82 25.58,15.22 5.78,6.82 15.85,6.77 22.18,12.93 9.27,7.92 12.71,20 19.18,29.91 5.1,7.85 14.21,11.29 22.85,13.58 -7.56,-11.26 -18.75,-21.43 -19.57,-35.83 -0.78,-10.28 -4.43,-20.63 -12.51,-27.4 -6.63,-6.96 -17.94,-3.42 -24.76,-10 -12.74,-11.27 -29.32,-20.71 -46.93,-18.04 -11.97,1.29 -20.19,11.13 -31.08,15.23zm429.83 131.83l0 0c-5.62,23.91 -0.58,48.43 1.55,72.46 0.19,6.84 1.36,15.84 -5.48,20.05 -10.19,6.67 -19.86,14.24 -26.96,24.29 12.65,-5.27 25.74,-9.79 39.63,-9.96 7.49,0.21 11.76,-7.28 14.05,-13.42 3.33,-7.42 -1.22,-14.89 -3.56,-21.82 -11.64,-30.73 -11.15,-64.57 -5.31,-96.5 -7.41,6.42 -11.74,15.49 -13.92,24.9zm-86.65 82.6l0 0c-13.42,-4.54 -29.3,-2.99 -38.97,8.27 15.34,1.22 32.36,0.49 44.4,11.83 13.42,-26.44 24.41,-54.13 32.7,-82.6 3.35,-12.14 6.93,-24.31 7.8,-36.94 -14.69,33.42 -28.13,67.52 -45.93,99.44zm-181.72 -92.23l0 0c20.12,24.9 39.91,50.08 59.7,75.21 -4.92,-16.56 -13.09,-31.95 -21.45,-46.98 -7.05,-11.46 -14.24,-23.94 -26.12,-30.97 -4.24,-2.85 -8.43,0.94 -12.13,2.74zm11.13 43.92l0 0c2.97,14.75 7.16,31.38 -0.82,45.34 -3.61,5.9 -11.01,13.77 -18.3,8.67 -28,-13.64 -58.15,-24.99 -89.72,-25.14 -20.72,0.03 -42.6,6.54 -56.3,22.91 11.03,-2.44 21.85,-5.85 33.14,-7 27.14,-3.52 54.73,6.25 76.16,22.72 10.47,7.3 19.21,17.04 30.61,22.99 9.44,4.22 19.42,-1.92 26.28,-8.19 10.05,-9.58 18.85,-20.59 25.93,-32.53 3.53,-5.25 0.09,-11.43 -2.04,-16.49 -6.35,-12.39 -14.76,-23.8 -24.94,-33.28zm-162.68 69.86l0 0c1.85,-0.19 5.53,-0.59 7.38,-0.77 -0.14,12.64 2.76,25.48 9.79,36.11 9.97,15.95 28.03,25.72 46.51,27.61 20.3,1.97 42.93,-1.36 57.87,-16.48 6,2.83 12.11,6.08 18.92,6.23 12.65,1.35 22.86,-7.69 31.88,-15.25 15.48,-14.31 29.93,-30.61 38.31,-50.19 -16.09,15.11 -31.73,30.87 -49.72,43.75 -5.5,3.67 -11.36,7.61 -18.13,8.15 -11.1,-0.47 -19.74,-8.34 -28.08,-14.76 -20.56,-17 -43.25,-33.51 -70.05,-38.5 -16.15,-3.09 -33.58,1.64 -44.68,14.1zm1.96 47.78l0 0c1.15,26.95 24.64,45.64 46.59,57.42 -6.07,13.4 -12.39,26.8 -16.3,41.03 -5.83,22.21 -8.36,47.15 2.32,68.35 0.7,-9.28 0.09,-18.95 3.91,-27.64 6.93,-16.96 18.45,-31.36 27.63,-47.05 12.42,-19.49 22.23,-40.47 32.23,-61.27 -14.08,0.52 -28.34,0.75 -42.11,-2.53 -20.35,-4.24 -38.57,-14.99 -54.27,-28.31zm133.2 9.46l0 0c3.98,12.6 8.71,24.94 13.11,37.4 12.32,33.59 21.88,68.13 29.46,103.05 2.14,-9.28 2.72,-18.88 1.36,-28.29 -3.46,-27.54 -13.04,-53.94 -24.52,-79.07 -5.43,-11.57 -11.22,-23.19 -19.41,-33.09zm-37.57 48.45l0 0c-9.91,22.42 -22.51,43.45 -34.78,64.6 32.3,-22.79 50.47,-62.77 51.43,-101.74 -6.6,11.9 -10.84,24.87 -16.65,37.14zm-353.97 -204.73c22.9,-2.58 45.43,8.15 63.12,21.99 26.95,23.25 46.53,56.46 48.99,92.44 2.18,31.82 -6.91,64.38 -24.76,90.77 -20.35,26 -48.24,47.2 -80.51,55.58 -30.68,7.75 -64.53,2.32 -91.23,-14.64 12.96,-0.02 25.74,2.93 38.7,2.06 12.24,-0.61 24.05,-4.1 35.92,-6.81 23.31,0.58 45.86,-10.38 61.71,-27.12 19.21,-19.63 29.58,-45.91 36.87,-71.93 6.77,-24.82 9.44,-52.53 -1.99,-76.42 -9.32,-18.33 -22.72,-35.08 -40.43,-45.9 -14.14,-9.41 -30.37,-14.82 -46.39,-20.02zm100.14 -257.65c18.81,-5.5 37.83,-12.32 57.8,-10.63 32.58,1 61.44,22.18 77.76,49.53 -4.38,5.67 -9.02,11.15 -14.15,16.16 -39.95,-25.92 -87.07,-39.23 -134.45,-41.69 4.31,-4.49 8.71,-8.9 13.04,-13.37z"/>
   <path class="fil2" d="M1104.64 403.68c4.14,-32.08 2.01,-64.49 4.28,-96.7 210.11,-0.09 420.23,-0.02 630.36,-0.04 -0.03,103.84 0.07,207.69 -0.05,311.55 -67.33,-0.14 -134.64,-0.02 -201.95,-0.07 -0.02,-49.95 0,-99.91 0,-149.88 -107.94,0 -215.87,0 -323.78,0 0,83.53 0,167.05 0,250.59 71.03,-0.02 142.09,0 213.12,0 0,53.1 0,106.19 0,159.28 -71.03,-0.02 -142.09,-0.02 -213.12,-0.02 0,117.69 0,235.37 0,353.06 35.34,0.05 70.68,-0.1 106.02,0.07 -0.1,54.61 -0.03,109.23 -0.03,163.85 -135.25,0.09 -270.5,-0.03 -405.73,0.07 -0.09,-54.69 -0.04,-109.35 -0.02,-164.01 31.99,0.04 63.98,0 96,0.02 0,-114.74 0,-229.45 0,-344.19 24.03,-7.04 47.45,-17 68.06,-31.35 21.03,-15.81 37.8,-36.68 51.64,-58.88 35.6,-57.31 49.6,-128.04 36.49,-194.41 -8.32,-41.32 -23.16,-83.75 -54.5,-113.38 -6.93,-5.44 -3.61,-14.92 -3.79,-22.39 1.68,-21.13 -0.45,-42.25 -3,-63.17z"/>
   <path class="fil3" d="M862.5 640.42c21.96,-9.54 45.97,-15.6 70.05,-14.22 8.76,0.82 19.15,2.58 24.35,10.54 3.05,8.62 1.92,18.03 2.86,27.03 4.57,47.16 -3.68,94.31 -12.41,140.52 -5.55,34.89 -8.32,70.19 -14.29,105.04 -1.87,9.86 -1.19,19.9 0.52,29.74 -0.31,8.17 -2.13,16.25 -3.26,24.36 -0.47,5.03 -6.04,6.72 -9.51,9.34 -13.96,8.2 -23.46,21.74 -32.06,35.09 13.07,-9.89 27.89,-16.96 42.02,-25.11 5.57,-3.04 9.79,-7.87 13.35,-13.05 5.52,16.66 4.16,34.74 1.24,51.76 -3.82,20.89 -13.45,42.09 -31.6,54.24 -13.7,9.18 -30.79,10.87 -46.84,9.35 3.98,-6.61 2.18,-14.03 -1.05,-20.52 -15.74,20.05 -42.13,28.55 -66.94,27.64 -22.11,-0.28 -47.63,-3.28 -62.15,-22.09 -16.96,-19.69 -17.05,-47.24 -29.42,-69.18 -5.03,-16.79 1.5,-34.33 10.7,-48.39 13.12,-20.25 34.81,-33.28 57.15,-41.22 9.48,-3.58 19.74,-4.68 29.09,-8.66 4.28,-2.91 5.9,-8.32 7.96,-12.81 11.01,-29.63 12.13,-61.67 13.42,-92.91 1.31,-35.18 -8.55,-70.12 -25.65,-100.71 9.65,-6.13 19.7,-12.06 27.29,-20.79 5.67,-6.33 9.44,-14.01 14.4,-20.82 5.04,-7.01 13.16,-10.68 20.78,-14.17zm-173.06 410.79c9.23,11.99 19.58,25.59 35.98,26.98 14.17,15.24 33.98,24.49 54.54,26.98 24.52,3.44 49.14,-2.67 72.14,-10.82 19.06,8.55 41.29,6.39 59.91,-2.32 -10.92,27.94 -34.83,49.27 -62.25,60.45 -19.3,8.08 -40.03,12.55 -60.9,13.74 2.79,-2.1 5.65,-4.14 8.5,-6.16 -27.42,-2.13 -57.68,-3.79 -80.02,-21.8 2.74,0.3 8.19,0.91 10.91,1.24 -19.95,-25.64 -33.4,-56.25 -38.81,-88.29zm-52.5 -380.86c15.69,13.32 33.91,24.07 54.26,28.31 13.77,3.28 28.04,3.05 42.11,2.53 -10,20.8 -19.81,41.78 -32.23,61.27 -9.18,15.69 -20.7,30.09 -27.63,47.05 -3.82,8.69 -3.21,18.36 -3.91,27.64 -10.68,-21.2 -8.15,-46.14 -2.32,-68.34 3.91,-14.24 10.23,-27.64 16.3,-41.04 -21.95,-11.78 -45.44,-30.47 -46.58,-57.42zm377.44 4.87c-2.21,-4.83 -4.55,-11.41 2.76,-12.58 5.32,4.01 1.8,10 -2.76,12.58zm42.13 -17.47c2.97,12.39 0.3,25.22 -3.09,37.26 -6.37,21.29 -15.9,41.48 -25.95,61.24 -23.38,47.31 -51.9,92.11 -71.03,141.46 4.84,-23.75 9.78,-47.47 14.98,-71.15 17.5,-12.79 24.17,-34.1 30.33,-53.84 5.84,-17.92 12.6,-35.53 19.79,-52.96 2.98,-6.23 2.3,-13.16 0.99,-19.69 18.22,-6.72 29.53,-24.08 33.98,-42.32zm-29.51 1.07c5.08,-1.54 10.21,-2.83 15.41,-3.91 -2.74,12.6 -9.06,26.3 -21.92,31.25 -10.94,4.24 -26.44,3.02 -32.86,-8.04 10.96,1.81 23.84,4.5 33.26,-3.21 5.15,-3.7 5.71,-10.28 6.11,-16.09zm-337.91 -33.14c3.75,1.01 7.47,2.14 11.17,3.33 0.05,6.11 2.04,14.22 -4.16,18.17 -11.15,0.22 -12.04,-14.3 -7.01,-21.5zm-33.3 -5.69c8.24,0.26 16.44,1.06 24.61,2.23 -2.01,6.13 -4.7,12.86 -1.96,19.23 4.82,14.73 21.92,20.47 36.09,20.4 8.57,0.7 17,-1.64 24.28,-6.12 2.21,1.78 4.43,3.56 6.66,5.37 -17.34,12.81 -41.46,14.24 -61.25,6.74 -18.9,-7.59 -28.62,-28.31 -28.43,-47.85zm141.86 -67.28c10.18,9.48 18.59,20.89 24.94,33.28 2.13,5.06 5.57,11.24 2.04,16.48 -7.08,11.95 -15.88,22.96 -25.93,32.54 -6.86,6.27 -16.84,12.41 -26.28,8.19 -11.4,-5.95 -20.14,-15.69 -30.61,-23 -21.43,-16.46 -49.02,-26.23 -76.16,-22.71 -11.29,1.15 -22.11,4.56 -33.14,7 13.7,-16.37 35.58,-22.88 56.3,-22.91 31.57,0.15 61.71,11.5 89.72,25.14 7.29,5.1 14.69,-2.77 18.3,-8.67 7.98,-13.96 3.79,-30.59 0.82,-45.34zm293.12 -42.72c4.62,1.97 10.45,2.58 13.61,6.93 13.72,16.77 22.65,36.84 29.13,57.36 17.41,52.88 17.05,111.59 -2.41,163.87 -13.49,36 -34.21,70.24 -63.82,95.18 -24.61,18.06 -53.77,29.81 -83.82,34.89 6.68,-16.04 14.22,-31.68 22.16,-47.14 21.12,-0.05 48.97,-1.87 59.06,-23.94 -16.11,3.61 -32.53,6.3 -49.09,5.74 17.5,-28.27 35.58,-56.56 46.56,-88.15 17.5,-0.91 38.86,-6.04 45.44,-24.55 -13.12,3.24 -26.37,6.37 -39.96,6.33 3.02,-11.92 4.22,-24.24 3.49,-36.54 15.53,-11.64 30.94,-25.43 37.9,-44.05 3.14,-7.89 2.9,-16.51 1,-24.64 6.73,0.66 13.4,1.71 20.08,2.81 -6.47,-10.16 -17.9,-15.18 -29.37,-17.1 -10.33,-20.68 -11.01,-44.38 -9.96,-67zm-122.53 91.03c17.8,-31.92 31.24,-66.02 45.92,-99.44 -0.86,12.62 -4.44,24.8 -7.79,36.93 -8.29,28.48 -19.28,56.17 -32.7,82.61 -12.04,-11.34 -29.06,-10.61 -44.4,-11.83 9.67,-11.26 25.55,-12.81 38.97,-8.27zm86.65 -82.6c2.18,-9.41 6.51,-18.48 13.92,-24.9 -5.84,31.93 -6.33,65.77 5.31,96.5 2.34,6.93 6.89,14.4 3.56,21.82 -2.29,6.14 -6.56,13.63 -14.05,13.42 -13.89,0.17 -26.98,4.69 -39.63,9.96 7.1,-10.05 16.77,-17.62 26.96,-24.29 6.84,-4.21 5.67,-13.21 5.48,-20.05 -2.13,-24.03 -7.17,-48.55 -1.55,-72.46zm-429.83 -131.83c10.89,-4.1 19.11,-13.94 31.08,-15.23 17.61,-2.66 34.19,6.77 46.93,18.04 6.82,6.58 18.13,3.04 24.76,10 8.08,6.77 11.73,17.12 12.51,27.4 0.82,14.4 12.01,24.57 19.58,35.83 -8.65,-2.29 -17.76,-5.73 -22.86,-13.58 -6.47,-9.91 -9.91,-21.99 -19.18,-29.91 -6.33,-6.16 -16.4,-6.11 -22.18,-12.93 -6.82,-7.4 -15.18,-14.28 -25.58,-15.22 -8.87,-1.52 -17.4,2.02 -24.87,6.39 -6.63,4.38 -14.78,1.67 -22.09,3.1 -10.11,2.03 -19.22,7.16 -28.92,10.46 6.07,-12.36 18.41,-19.64 30.82,-24.35zm-386.74 -80.01c1.83,-3.58 4.01,-7.02 7.17,-9.58 2.76,9.7 5.01,19.94 11.83,27.76 16.13,19.51 38.81,31.69 59.48,45.64 24.06,15.74 47.38,32.98 67.2,53.92l-1.78 1.94c-22.53,16.37 -37.8,40.85 -47.31,66.68 -2.32,7.28 -10.03,11.19 -12.23,18.57 -1.24,3.84 0.82,7.59 1.83,11.22 -10.61,34.36 -15.11,72.2 -4.17,107.03 6,19.25 18.13,36.44 34.22,48.57 1.52,1.34 3.04,2.7 4.59,4.03 -23.37,18.57 -51.76,29.86 -81.08,34.66 41.62,13.4 87.28,-3.37 118.06,-32.46 7.07,8.81 16.84,15.48 28.24,16.91 -11.66,25.81 -28.38,52.09 -55.55,63.45 -11.87,2.71 -23.68,6.2 -35.93,6.81 -12.95,0.87 -25.73,-2.08 -38.69,-2.06l-0.14 0c-27.05,-12.34 -47.35,-34.43 -67.96,-55.13 15.15,36.37 46.89,64.78 83.98,77.52 23.75,7.97 49.61,12.86 74.41,6.96 30.63,-6.49 57.38,-24.87 79,-46.98 36.79,-35.93 50.65,-93.26 35.1,-142.16 -6.27,-20.54 -17.09,-39.44 -30.21,-56.38 -18.36,-26.11 -52.32,-39.34 -83.56,-33.21 -15.25,4.92 -30.61,-2.27 -45.81,-4.09 -0.17,-5.63 3.63,-9.23 8.71,-10.71 47.59,-17.82 101.85,-18.17 149.26,0.56 -6.47,3.7 -13.31,7.52 -17.22,14.15 -4.8,7.21 -5.55,16.04 -6.3,24.43 9.28,-8.01 19.91,-15.53 32.46,-16.7 13.07,-1.24 28.29,1.43 36.68,12.51 19.23,23.04 30.35,51.85 36.44,80.98 1.41,3.89 0.12,7.68 -1.31,11.34 -15.34,-2.7 -32.72,-4.48 -46.58,4.19 -7.5,4.43 -11.57,12.46 -14.55,20.33 16.82,-4.71 34.52,-2.41 51.22,1.73 -3.53,13.54 -4.7,28.06 -0.35,41.55 5.34,16.84 12.86,32.91 17.45,50 -4.12,8.62 -8.13,17.31 -12.53,25.79 -18.6,-14.43 -39.7,-28.53 -63.94,-29.79 -12.48,-0.94 -23.91,5.43 -32.43,14.03 30.49,5.43 56.41,23.84 81.45,41 -17.89,26.68 -39.88,51.36 -67.57,68.16 -43.7,-3.8 -84.12,-24.38 -118.24,-51.08 -2.6,14.21 2.9,28.97 12.9,39.11 14.45,15.41 34.61,23.37 54.22,29.98 -51.18,3.42 -103.08,-12.37 -143.99,-43.21 -49.23,-36.91 -84.62,-90.29 -105.46,-147.74 -6.04,-16.88 -10.66,-34.29 -13.21,-52.06 25.15,6.02 52.95,9.09 77.1,-2.3 15.97,-7.05 27.78,-21.07 34.66,-36.86 -9.06,6.07 -19.23,10.45 -30.05,12.16 -28.43,4.77 -57.61,2.17 -85.78,-3.14 -5.27,-51.95 -0.03,-104.41 10.14,-155.44 21.26,18.38 46.79,34.59 75.69,35.74 15.9,0.98 31.2,-4.83 44.69,-12.79 -12.44,1.83 -25.23,0.33 -36.94,-4.24 -28.97,-10.82 -53.07,-31.06 -75.6,-51.69 10.94,-41.71 27.82,-81.71 48.29,-119.61zm91.98 -7.51c60.4,-2.81 121.71,-13.07 181.62,0.04 39.44,7.97 75.95,27.03 107.01,52.32 -22.98,2.67 -46.52,15.98 -54.36,38.79 -24.29,-28.27 -59.86,-47.12 -97.48,-47.87 11.69,-8.43 26.19,-10.05 39.96,-12.6 -38.29,-14.31 -79.68,-18.43 -120.31,-18.2 -31.62,0.66 -63.66,5.78 -95.04,-0.3 -10.03,-1.62 -18.71,-7.01 -26.28,-13.54 21.62,0.56 43.24,2.5 64.88,1.36zm782.46 -32.46c222.17,-0.26 444.33,0.18 666.5,-0.21 0.58,13.72 0.47,27.44 0.4,41.19 0.04,117.03 -0.03,234.09 0.04,351.14 -94.26,0.21 -188.53,0.05 -282.8,0.09 -0.07,-49.95 0,-99.91 -0.02,-149.86 -81.18,-0.07 -162.35,0 -243.52,-0.02 0.09,56.65 -0.4,113.3 0.23,169.96 71.1,-0.31 142.23,-0.22 213.34,-0.05 -0.03,79.79 0.39,159.58 -0.22,239.38 -71.12,-0.03 -142.25,-0.12 -213.35,0.04 -0.07,90.92 -0.1,181.84 0.02,272.76 35.36,0.04 70.73,0.11 106.12,-0.08 0.96,81.46 -0.1,162.94 0.54,244.4 -24.71,0.93 -49.44,0.21 -74.15,0.44 -137.43,0 -274.86,-0.05 -412.27,0.02 -0.51,-81.57 -0.37,-163.17 -0.07,-244.76 31.97,-0.19 63.94,0.42 95.88,-0.31 -0.23,-50.23 0.19,-100.49 -0.28,-150.75 3.42,-15.22 6.09,-30.82 4.59,-46.49 -0.4,-12.58 -5.52,-24.71 -3.79,-37.38 2.25,-22.04 9.13,-43.33 17,-63.94 7.68,-1.28 15.27,-2.95 22.79,-4.92 0,114.74 0,229.45 0,344.19 -32.02,-0.02 -64.01,0.02 -96,-0.02 -0.02,54.66 -0.07,109.32 0.02,164.01 135.23,-0.1 270.48,0.02 405.73,-0.07 0,-54.62 -0.07,-109.24 0.03,-163.85 -35.34,-0.17 -70.68,-0.02 -106.02,-0.07 0,-117.69 0,-235.37 0,-353.06 71.03,0 142.09,0 213.12,0.02 0,-53.09 0,-106.18 0,-159.28 -71.03,0 -142.09,-0.02 -213.12,0 0,-83.54 0,-167.06 0,-250.59 107.91,0 215.84,0 323.78,0 0,49.97 -0.02,99.93 0,149.88 67.31,0.05 134.62,-0.07 201.95,0.07 0.12,-103.86 0.02,-207.71 0.05,-311.55 -210.13,0.02 -420.25,-0.05 -630.36,0.04 0.73,-13.51 2.06,-26.95 3.84,-40.37zm-85.55 -121.93c12.41,-8.88 27.96,-2.27 40.92,1.85 14.89,5.53 32.67,12.18 38.66,28.39 5.13,14.94 -5.41,28.33 -9.69,41.96 -19.44,57.43 -12.88,118.86 -18.95,178.23 -2.46,17.12 -5.08,36.98 -19.37,48.58 -14.73,9.53 -31.27,18.38 -49.25,18.45 -11.59,0.42 -22.44,-8.01 -25.34,-19.16 -4.03,-14.94 -0.96,-30.49 0.18,-45.6 3.47,-32.25 3.59,-65.34 -5.12,-96.81 -0.78,-4.34 -3.49,-8.93 -1.22,-13.24 6.79,-15.55 19.3,-28.97 35.43,-34.82 16.84,-6.33 35.32,-4.5 52.7,-1.69 -18.39,-15.01 -43.66,-16.23 -66.16,-12.9 -12.67,1.61 -24.81,5.73 -36.56,10.63 -0.59,-10.56 5.06,-19.84 10.58,-28.32 13.66,-20.3 30.68,-38.17 43.19,-59.27 23.09,2.27 48.2,5.95 65.65,22.79 -8.25,-23.59 -34.43,-31.46 -55.65,-39.07zm-292.24 -7.75c12.77,-2.58 25.63,0.7 38.25,2.55 40.63,7.5 80.49,24.03 111.41,51.92 8.12,7.03 18.92,10.36 26.32,18.34 12.2,12.58 19.72,29 24.57,45.65 8.53,31.36 10.16,64.19 8.74,96.51 -0.21,9.67 -3.33,19.89 0.98,29.14 12.86,30.72 12.74,65.76 3.98,97.57 -4.31,14.45 -9.72,28.92 -19.06,40.91 1.4,-11.43 4.85,-22.46 6.6,-33.84 3.8,-24.01 4.26,-48.5 1.76,-72.7 -5.46,10.35 -10.96,20.99 -19.96,28.79 3.59,-34.53 8.95,-69 8.74,-103.8 -0.19,-29.37 -2.46,-59.35 -13.19,-86.96 -4.26,-10.96 -10.37,-21.71 -20.4,-28.34 0.71,10.68 1.6,21.62 -1.75,32.01 -8.1,-12.55 -13.59,-26.67 -23.16,-38.26 -22.84,-30.68 -56.52,-51.27 -91.86,-64.67 -13.79,-5.45 -28.24,-9.15 -41.97,-14.82zm-261.46 -15.6c39.18,-8.1 79.84,-10.05 119.42,-3.7 -24.9,7.45 -51.24,16.82 -68.22,37.64 -13.56,16.09 -16.87,39.44 -9.04,58.9 -0.78,-20.35 12.55,-38.01 29.39,-48.04 28.45,-17.33 61.95,-23.81 94.55,-28.24 7.21,-0.4 15.03,-3.09 21.87,0.4 50.87,23.3 91.67,64.38 121.36,111.22 -28.76,-13.47 -59.51,-25.18 -91.69,-25.18 -21.14,0.05 -43.89,7.71 -56.23,25.84 20.82,-12.11 46.33,-11.06 68.86,-4.9 34.64,9.49 66.18,27.61 95.79,47.52 4.33,3.23 9.81,5.83 11.89,11.17 11.95,27.59 21.6,56.28 27.76,85.74 -9.4,14.94 -20.07,30.45 -36.33,38.53 -11.12,5.85 -27.1,3.23 -33.26,-8.53 3.31,-19.04 -6.81,-38.22 -22.48,-48.73 -9.32,-7.24 -20.82,-10.35 -31.48,-14.92 -13.04,-8.9 -26.74,-18.04 -42.78,-20.17 -14.17,-2.74 -28.79,1.45 -40.69,9.18 -6.9,-5.8 -14.05,-11.35 -21.33,-16.65 1.52,-7.82 1.4,-16.34 5.78,-23.3 -2.08,-19.81 -9.81,-39.56 -24.1,-53.77 -19.53,-19.09 -50.56,-24.52 -75.83,-14.81 -15.34,5.7 -27.59,17.05 -37.99,29.35 -4.33,4.47 -8.73,8.88 -13.04,13.37 -56.8,-2.92 -113.26,7.52 -170.06,5.09 -11.22,-0.57 -22.53,-0.24 -33.72,-1.36 -1.83,-2.25 -3.4,-4.73 -5.04,-7.12 30.87,-46.33 71.22,-86.54 118.56,-116 -9.98,15.08 -18.48,33.18 -14.62,51.69 2.81,17.33 14.52,31.28 27.45,42.36 -6.23,-10.58 -10.61,-22.74 -9.44,-35.2 1.43,-17.07 10.73,-32.25 21.69,-44.92 17.12,-19.32 38.34,-34.5 60.45,-47.54 3.86,-2.39 8.08,-4.1 12.55,-4.92zm335.12 821.14l0 0c-1.22,7.23 -3.02,15.24 0.63,22.15 5.46,10.82 16.72,16.72 26.96,22.3 14.19,6.93 28.24,14.14 41.9,22.13 -1.9,-5.04 -3.7,-10.38 -7.83,-14.05 -10.93,-10.49 -24.68,-17.36 -36.25,-27.08 -9.58,-7.3 -17.42,-16.51 -25.41,-25.45z"/>
  </g>
 </g>
</svg>
