<?xml version="1.0" encoding="UTF-8"?>
<!DOCTYPE svg PUBLIC "-//W3C//DTD SVG 1.1//EN" "http://www.w3.org/Graphics/SVG/1.1/DTD/svg11.dtd">
<!-- Creator: CorelDRAW -->
<svg xmlns="http://www.w3.org/2000/svg" xml:space="preserve" width="2000px" height="1600px" version="1.1" style="shape-rendering:geometricPrecision; text-rendering:geometricPrecision; image-rendering:optimizeQuality; fill-rule:evenodd; clip-rule:evenodd"
viewBox="0 0 2000 1600"
 xmlns:xlink="http://www.w3.org/1999/xlink">
 <defs>
  <style type="text/css">
   <![CDATA[
    .fil0 {fill:black;fill-rule:nonzero}
    .fil4 {fill:#025496;fill-rule:nonzero}
    .fil3 {fill:#8B8D91;fill-rule:nonzero}
    .fil1 {fill:#BBBCBE;fill-rule:nonzero}
    .fil2 {fill:#D1D2D3;fill-rule:nonzero}
    .fil5 {fill:#FEFEFE;fill-rule:nonzero}
   ]]>
  </style>
 </defs>
 <g id="Capa_x0020_1">
  <metadata id="CorelCorpID_0Corel-Layer"/>
  <g id="Fort_x0020_Wayne_x0020_Mastodons.cdr">
   <path class="fil0" d="M851.59 88.42c116.59,-13.16 234.95,-10.97 350.9,7.09 103.31,16.25 205.35,44.81 299.23,91.45 55.47,27.81 108.26,62.11 152.29,106.14 0.22,40.55 0.28,81.1 -0.05,121.67 38.13,1.54 76.37,-0.18 114.55,0.82 -16.04,25 -32.96,49.53 -51.24,72.94 -86.34,124.2 -172.79,248.33 -259.21,372.49 -7.01,11.61 -7.14,25.82 -11.19,38.5 -1.94,5.48 -4.5,10.82 -4.75,16.74 -4.63,52.05 -13.86,103.84 -29.83,153.64 24.01,-6.27 49.13,-11.25 70.1,-25.25 33.06,-21.22 57.51,-53.11 77.99,-86.1 16.94,-29.28 31.66,-59.95 43.03,-91.84 2.86,-8.16 5.18,-16.86 11.1,-23.43 5.89,-7.21 16.02,-12.14 25.22,-8.56 11.42,4.16 17.56,16.27 20.3,27.39 9.68,57.54 -0.37,117.11 -22.74,170.57 -15.67,36.72 -36.17,71.65 -62.41,101.82 -36.04,34.65 -76.07,65.77 -120.8,88.48 -39.9,19.85 -84.95,32.59 -129.77,26.99 -10.13,-0.89 -19.85,-3.8 -29.8,-5.52 -6.42,2.22 -11.62,6.79 -17.17,10.6 -41.57,30.42 -87.39,56.42 -137.69,69.1 -5.05,0.72 -7.48,5.58 -10.24,9.23 -29.73,43.24 -60.11,85.97 -89.76,129.26 -13.53,19.15 -26.32,38.88 -40.74,57.36 -78.24,-111.57 -155.4,-223.93 -233.86,-335.33 -21.35,21.1 -45.17,40.48 -73.16,51.99 -35.4,15.63 -75.65,18.19 -113.31,10.18 -50.18,-10.9 -95.18,-37.59 -135.72,-68.28 -17.96,-14.23 -35.73,-28.84 -51.89,-45.08 -24.51,-28.31 -43.61,-60.92 -59.03,-94.93 -24.33,-55 -35.2,-116.89 -25.23,-176.59 2.81,-10.52 8.13,-21.99 18.63,-26.67 8.93,-4.42 19.73,0.05 25.9,7.14 7.91,7.54 9.72,18.64 13.63,28.34 17.12,45.99 39.5,90.54 70.38,128.93 22.46,28.16 51.96,52.44 87.36,61.76 37.91,10.95 78.28,18.79 117.59,11.18 12.93,-2.47 25.3,-7.44 36.19,-14.83 -4.45,-8.61 -10.72,-16.07 -16.09,-24.11 -24.26,-34.7 -47.89,-69.9 -72.74,-104.15 -14.58,-12.24 -29.18,-24.6 -44.16,-36.39 -1.54,10.32 0.48,20.64 1.55,30.89 -14.08,-8.36 -27.94,-19.68 -32.76,-35.99 -10.33,-31.75 -19.36,-64.21 -22.47,-97.54 -2.04,-6.62 -7.11,-11.74 -10.74,-17.49 -3.91,2.19 -7.82,4.43 -11.77,6.57 0.87,-8.21 5.5,-17.86 -0.94,-24.9 -61.55,-88.54 -123.31,-176.92 -184.68,-265.55 -16.6,-24.58 -34.95,-48.09 -50.1,-73.59 38.18,-0.49 76.39,-0.17 114.6,-0.14 0.47,-40.23 -0.3,-80.5 0.32,-120.73 5.55,-7.81 13.34,-13.65 20.2,-20.25 58.93,-52.21 129.36,-89.95 202.34,-118.55 90.57,-35.25 186.2,-56.55 282.64,-67.47z"/>
   <path class="fil1" d="M826.99 392.53c2.14,-1.32 4.3,-2.61 6.44,-3.91 -0.67,2.24 -1.37,4.48 -2.04,6.72 2.66,-0.8 5.32,-1.62 7.99,-2.41 14.5,11.46 28.28,23.88 41.71,36.56 24.26,24.71 44.93,53.84 55.95,86.9 1.89,4.87 3.53,10.25 7.71,13.68 12.86,1.84 25.75,-1.59 38.01,-5.15 34.3,-10.13 63.21,-35.97 78.33,-68.21 5.63,-11.99 15.75,-20.77 24.16,-30.72 11.94,-14.11 27.24,-24.78 42.29,-35.28 2.93,2.12 5.87,4.26 8.83,6.4 -7.19,10.82 -18.26,17.76 -29.65,23.41 -0.1,1.16 -0.25,3.45 -0.35,4.62 3.81,1.59 7.64,3.11 11.47,4.68 -1.55,16.67 -14.43,29.5 -27.14,39.05 -9.75,7.94 -21.62,12.32 -32.94,17.42 2.49,3.83 5.37,7.36 8.46,10.77 -9.11,4.9 -19.01,7.93 -28.48,11.94 12.78,15.12 34.4,16.29 52.48,12.44 -25.12,26.04 -62.58,33.16 -97.26,34.9 26.84,9.95 57.76,9.15 84.18,-1.92 30.55,-14.3 52.61,-41.97 67.29,-71.67 6.04,-13.58 15.5,-25.97 27.91,-34.3 10.75,39.01 13.33,82.76 -4.28,120.2 -6.02,11.57 -12.84,23.31 -23.43,31.25 -10.62,8.15 -22.94,13.73 -34.7,19.97 -36.82,20.57 -84.33,13.41 -117.82,-10.52 -4.08,-2.12 -8.58,-8.29 -13.11,-3.59 -21.51,16.1 -47.88,26.65 -75,26.18 -22.88,0 -45,-7.64 -64.75,-18.81 -23.43,-11.3 -42.43,-32.14 -50.12,-57.14 -11.62,-35.32 -6.27,-73.93 5.15,-108.61 10.2,8.81 19.92,18.83 25.15,31.47 16.17,34.35 42.31,66.94 79.4,79.4 23.71,7.09 50.13,6.87 73.36,-1.84 -33.71,-2.63 -71.87,-7.96 -95.38,-34.97 18.11,4.22 38.79,1.96 52.09,-12.22 -9.92,-4.18 -20.39,-7.14 -29.85,-12.41 3.39,-3.33 6.52,-6.92 9.28,-10.82 -20.87,-7.37 -40.67,-19.48 -53.58,-37.84 -4,-5.47 -5.82,-12.09 -6.64,-18.73 4.13,-1.82 8.21,-3.76 12.21,-5.82 -3.26,-5.62 -9.57,-7.66 -14.72,-11.02 -7.72,-5 -14.71,-11.59 -18.61,-20.05z"/>
   <path class="fil2" d="M965.05 304.92c5.37,6.71 11.34,12.98 18.23,18.18 3.81,-4.25 7.74,-8.46 12.17,-12.09 -0.7,10.95 -1.99,23.86 6.76,32.22 13.84,13.8 34.96,11.86 52.81,14.47 29.46,5.95 57.47,18.06 82.99,33.83 -0.4,1.4 -1.24,4.18 -1.64,5.58 -2.96,-2.14 -5.9,-4.28 -8.83,-6.4 -15.05,10.5 -30.35,21.17 -42.29,35.28 -8.41,9.95 -18.53,18.73 -24.16,30.72 -15.12,32.24 -44.03,58.08 -78.33,68.21 -12.26,3.56 -25.15,6.99 -38.01,5.15 -4.18,-3.43 -5.82,-8.81 -7.71,-13.68 -11.02,-33.06 -31.69,-62.19 -55.95,-86.9 -13.43,-12.68 -27.21,-25.1 -41.71,-36.56 -2.67,0.79 -5.33,1.61 -7.99,2.41 0.67,-2.24 1.37,-4.48 2.04,-6.72 34.73,-21.39 74.06,-41.52 116.12,-37.11 -0.64,-10.95 -3.66,-21.62 -9.35,-31 6.54,3.66 12.91,7.69 19.53,11.27 2.16,-8.88 4.38,-17.76 5.32,-26.86zm215.65 133.7c7.34,1.12 12.49,7.47 15.97,13.56 10.67,28.68 17.09,58.71 26.94,87.66 8.55,26.32 19.03,51.94 28.48,77.96 -9.82,-1.21 -19.68,-3.8 -29.63,-2.41 -8.28,1 -15.77,5.15 -22.43,9.95 -17.52,12.51 -31.47,29.23 -48.59,42.22 1.37,-11.15 2.24,-22.44 4.93,-33.36 5.7,-9.78 16.24,-15.85 21.79,-25.87 16.97,-31.72 23.31,-68.51 20.35,-104.23 -2.91,-22.57 -10.67,-44.03 -17.81,-65.48zm-414.81 23.76c1.9,-5.92 4.68,-11.54 8.56,-16.39 -5.97,18.83 -13.21,37.56 -14.28,57.54 -2.91,37.76 9.01,75.57 29.5,107.04 4.68,6.79 12.84,11.61 14.28,20.27 2.22,10.52 4.53,21.04 5.58,31.77 -16.6,-14.88 -31.77,-31.92 -51.27,-43.09 -13.39,-7.64 -29.03,-3.56 -43.34,-1.64 10.18,-30.13 22.96,-59.33 31.92,-89.88 7.14,-21.64 11.91,-43.98 19.05,-65.62zm768.64 0.1c13.43,-5.5 28.14,-10.5 42.81,-7.56 11.5,2.34 20.1,11.42 25.45,21.42 -21.99,11.19 -34.75,34.32 -38.83,57.98 -0.27,6.82 -6.99,9.43 -11.59,13.09 -15.15,11.41 -26.82,26.76 -36.32,43.01 -27.14,46.91 -43.56,99 -58.36,150.84 -14.05,52.04 -25.85,104.76 -34.53,157.96 -4.85,58.39 -14.13,116.8 -33.33,172.32 -14.63,41.64 -34.55,81.99 -63.09,115.92 -12.88,14.5 -26.66,28.63 -43.45,38.66 -11.74,7.09 -22.24,16.04 -33.79,23.48 -43.23,29.25 -91.46,53.53 -143.83,60.2 -41.14,5.89 -83.93,-2.02 -120.37,-21.94 -47.71,-25.92 -84.21,-68.66 -110.65,-115.4 -12.63,-21.12 -19.35,-44.93 -26.54,-68.26 -4.41,-13.53 3.33,-27.46 12.91,-36.69 17.31,-17.09 42.41,-22.11 65.65,-25.37 -11.17,-6.89 -24.43,-11 -37.61,-8.86 -18.79,3.06 -34.26,15.12 -47.54,28.04 10.67,-59.43 58.9,-112.37 119.67,-121.47 -36.99,-4.51 -75.77,7.16 -103.43,32.29 -11.09,9.77 -20.3,21.44 -28.18,33.9 0.64,-31.27 13.55,-61.57 35.1,-84.15 23.58,-25.45 54.7,-42.49 86.91,-54.53 -31.49,-4.93 -64.67,4.58 -89.03,25.05 -14.28,10.27 -23.68,25.32 -33.95,39.23 0.47,-14.23 -5.45,-28.01 -2.79,-42.19 3.06,-20.38 1.84,-41.74 9.85,-61.1 5.6,-15.52 6.79,-32.06 8.38,-48.33 5.48,-9.28 13.64,-16.77 22.12,-23.28 23.98,-18.54 54.2,-25.23 82.31,-34.86 12.27,-3.85 23.31,-10.54 35.08,-15.52 32.01,18.81 69.75,23.44 102.39,40.82 13.68,7.12 24.8,18.19 34.8,29.78 4.57,4.68 3.43,11.74 4.75,17.66 2.14,22.04 12.61,42.27 14.38,64.36 3.23,32.48 -0.3,65.2 -5.9,97.23 0.8,-34.22 0.92,-69.37 -9.73,-102.28 -0.57,1.34 -1.66,3.98 -2.21,5.29 -10.52,-17.56 -24.87,-33.73 -43.95,-42.06 -11.55,-5.6 -24.58,-6.44 -37.19,-6.74 24.97,7.06 49.23,19.7 65.72,40.22 11.86,14.61 20.07,32.66 21.44,51.57 -12.64,-14.58 -27.46,-28.43 -46.39,-34.03 -11.62,-3.93 -24.06,-3.81 -36.1,-2.49 6.97,6.12 17.46,5.87 25.33,10.75 28.73,12.39 50,38.86 57.06,69.2 -16.44,-13.55 -35.02,-27.56 -57.26,-28.21 -6.97,-0.64 -13.66,1.77 -19.93,4.53 34.68,5.3 67.99,30.6 75.05,66.12 -14.3,-9.77 -29.78,-19.8 -47.69,-20.32 -8.18,-0.6 -15.52,3.4 -22.23,7.56 22.68,7.26 46.74,16.89 61.09,36.99 4.03,3.98 1.64,9.75 1.37,14.63 -11.42,-4.83 -22.39,-12.19 -35.22,-12.12 -7,-0.64 -13.64,1.92 -20.03,4.38 10.87,7.32 23.58,11.82 33.28,20.95 9.91,8.78 19.68,19.95 19.61,34 -16.17,-12.21 -38.34,-23.71 -58.11,-12.46 29.13,1.42 56.32,19.48 68.43,46.07 -9.1,-1.24 -18.86,-3.26 -27.59,0.8 -11.81,4.6 -19.72,15.64 -23.58,27.33 17.49,-11.94 37.59,-24.77 59.85,-20.64 13.31,1.66 24.01,10.19 33.61,18.88 7.39,-10.95 2.31,-23.78 -0.55,-35.25 15.52,-10.15 34.9,-18.63 53.54,-12.32 10.71,3.29 17.98,12.07 25.86,19.46 0.5,-9.58 -2.11,-19.58 -8.75,-26.72 -6.77,-8.13 -17.11,-11.47 -26.47,-15.57 7.94,-6.57 15.5,-14.08 25.3,-17.84 18.03,-7.01 38.23,-6.22 56.52,-0.59 -8.83,-12.69 -23.41,-22.27 -39.41,-20.18 9.13,-12.26 19.01,-24.03 26.82,-37.21 9.8,-16.15 31.07,-18.59 48.23,-17.27 -7.98,-7.83 -18.23,-12.53 -28.43,-16.74 5.28,-10.82 10.8,-21.49 15.6,-32.54 5.12,-12.16 16.69,-21.81 29.97,-23.28 5.85,0.05 11.52,1.89 17.29,2.94 -9.13,-7.84 -19.77,-14.23 -32.19,-14.31 10,-27.88 20.25,-55.7 28.41,-84.2 3.46,-10.9 16.67,-12.96 26.57,-11.99 -3.63,-7.64 -11.82,-10.38 -19.55,-11.89 10.94,-47.19 26.96,-93.06 44.67,-138.09 19.98,-49.2 43.84,-97.44 77.02,-139.18 13.18,-14.95 27.06,-30.35 45.47,-38.88zm-829.04 180.45c9.73,4.73 19.86,9.23 28.19,16.24 7.61,26.32 -3.68,56.07 10.4,81.12 11.29,21.55 36.34,27.84 57.14,36.35 -9.98,48.8 -28.29,95.57 -50.25,140.15 -0.9,-17.04 -5.4,-34.16 -15.42,-48.19 -11.65,-18.68 -30.08,-32.63 -38.83,-53.16 -10.18,-22.04 -10.75,-46.79 -10.33,-70.59 1.05,-34.71 7.26,-69.26 19.1,-101.92zm525.86 18.41c8.75,-7.81 19.45,-13.41 30.09,-18.36 8.46,25.42 15.08,51.57 17.27,78.33 1.71,21.77 3.7,44.06 -1.47,65.52 -4.82,19.58 -12.14,39.06 -25.27,54.66 -15.87,21.12 -39.16,37.81 -46.15,64.53 -11.59,-24.18 -21.72,-49.06 -30.57,-74.36 -5.92,-18.36 -12.56,-36.69 -14.97,-55.92 23.25,-5.82 49.22,-14 62.31,-35.79 12.54,-24.38 4.45,-52.62 8.76,-78.61zm-901.38 208.68c0.7,-4.06 2.06,-7.94 3.38,-11.82 8.21,64.53 31.12,127.24 67.07,181.47 20.89,27.62 44.58,53.86 73.83,72.84 44.35,30.62 97.76,45.8 151.1,49.85 33.21,1.34 65.79,-12.01 91.07,-33.06 26.99,-24.6 48.03,-56.07 59.28,-90.9 16.34,9.46 26.66,26.92 31.51,44.68 -6.36,17.27 -17.01,32.64 -26.44,48.36 -17.46,25.77 -38.46,49.58 -63.73,67.99 -5.13,3.26 -10.03,7.51 -16.07,8.85 -13.01,0.97 -24.63,7.39 -37.07,10.65 -28.45,7.61 -58.73,7.09 -87.16,-0.22 -33.11,-9.21 -65.35,-22.94 -92.86,-43.79 -12.04,-6.61 -23.49,-14.2 -33.46,-23.7 -32.19,-25.1 -57.51,-57.69 -79.98,-91.45 -16.64,-29.7 -30.94,-61.22 -36.89,-94.95 -7.41,-31.04 -7.34,-63.28 -3.58,-94.8zm1196.7 218.81c64.63,-59.21 98.33,-145.25 110.18,-230.63 6.41,13.41 5.77,28.86 6.26,43.41 1.62,45.18 -9.32,90.2 -27.98,131.17 -14.4,31.92 -32.94,62.14 -55.77,88.73 -33.86,31.75 -70.72,60.88 -112.09,82.24 -2.34,1.07 -4.7,2.39 -7.34,2.42 -5.05,0.12 -10.2,0.42 -14.85,2.56 -20.18,8.75 -41.84,14.03 -63.76,15.97 -13.85,1.44 -27.71,-1.92 -41.57,-0.47 20.3,-19.13 38.01,-41.15 51.89,-65.38l1.22 -0.07c14.33,-0.4 28.31,-3.83 42.12,-7.49 41.29,-11.94 80.62,-32.46 111.69,-62.46zm-634.23 -281.47l0 0zm0 0c-19.66,5.1 -39.48,13.9 -52.62,29.95 -7.61,8.95 -8.38,21.17 -10.12,32.26 -1.57,13.71 -5.65,27.57 -2.54,41.4 5.5,-12.54 8.21,-26.35 16.32,-37.67 24.65,-38.53 68.04,-59.4 110.43,-72.36 -20.63,-0.08 -41.5,0.9 -61.47,6.42zm503.93 174l0 0zm0 0c-5.64,18.29 -13.33,35.85 -20.79,53.46 -17.22,36.42 -36.62,72.54 -64.36,102.14 -26.72,31.02 -61.32,55.15 -99.88,69.01 -31.34,11.69 -65.39,13.23 -98.45,10.89 -15.9,-1.32 -31.17,-6.02 -46.62,-9.52 -10.07,14.52 -23.81,29.42 -42.84,29.85 -25.49,0.37 -45.84,-17.47 -62.93,-34.28 -10.2,0.35 -21.1,4.23 -30.58,-1.52 -26.34,-14.48 -43.15,-40.65 -58.23,-65.72 6.79,23.86 19.7,45.55 32.44,66.67 19.68,28.78 43.93,55.54 75.07,72.11 30.53,17.56 66.25,25.87 101.37,23.11 44.21,-3.43 88.48,-13.36 127.99,-33.96 29.58,-14.37 55.87,-34.92 78.53,-58.6 37.14,-35.8 63.49,-81.15 83.83,-128.16 17.59,-41.77 31.17,-85.52 37.52,-130.45 -5.53,11.09 -8.26,23.23 -12.07,34.97z"/>
   <path class="fil3" d="M704.6 363.55c14.2,-4.63 29.43,-7.86 44.38,-5.45 14.18,2.31 23.88,14.31 31.12,25.75 8.01,13.53 15.99,27.34 20.55,42.49 -8.96,-3.04 -18.44,-8.29 -28.07,-4.86 -11.09,3.46 -15.99,15.05 -20.14,24.86 -9.8,26.32 -15.03,54 -24.01,80.57 -16.29,53.91 -42.51,104.65 -53.68,160.12 -5.2,27.99 -7.26,56.57 -5.85,85.01 1.12,17.71 4.28,35.54 11.94,51.69 12.79,28.78 43.24,46.99 50.35,78.73 6.79,31.54 -8.61,61.24 -16.69,90.87 -16.97,-3.98 -35.45,-10.9 -44.28,-27.11 -9.75,-15.3 -10.27,-35.6 -23.28,-48.81 -14.88,-12.49 -35.27,0.37 -51.79,-5.75 -15.82,-11.07 -29.81,-24.55 -44.58,-36.91 -6.89,-6.3 -16.2,-1.94 -22.66,2.58 -7.62,-21.91 -13.59,-44.4 -17.71,-67.21 -4.91,-25.67 0.57,-51.77 -1.65,-77.59 -5.79,3.09 -11.49,6.29 -17.26,9.41 1.74,-30.13 17.74,-56.37 30.97,-82.64 6.44,-13.06 15.37,-24.6 23.85,-36.37 -9.42,-4.08 -19.75,-4.58 -29.77,-2.91 4.3,-15.6 13.06,-29.31 20.12,-43.68 4.78,-9.63 10,-19.48 18.68,-26.2 18.94,-14.8 41.1,-26.52 55.53,-46.34 8.41,-11.42 8.88,-26.22 7.71,-39.8 -9.73,2.51 -18.88,6.69 -28.41,9.77 12.22,-18.38 28.44,-33.78 40.45,-52.36 17.44,-26.72 43.46,-48.38 74.18,-57.86zm484.38 16.72c7.79,-12.44 20.47,-23.29 35.95,-22.91 30.67,0.12 60.69,12.56 83.78,32.53 19.53,15.8 31.14,38.56 47.04,57.54 7.21,9.3 16.42,17.17 21.59,27.94 -9.5,-4.68 -19.13,-9.33 -29.58,-11.45 -0.84,14.41 0.1,29.98 9.48,41.74 11.32,13.56 25.52,24.48 40.13,34.26 9.82,6.74 21.94,13.88 25.77,25.6 -9.28,21.76 -20.5,42.76 -29.08,64.9 -14.35,35.67 -26.84,72.06 -37.84,108.9 -17.91,71.72 -40.22,143.06 -74.97,208.59 -8.96,15.37 -16.79,31.74 -28.86,44.97 -8.78,-28.75 -22.44,-58.01 -17.49,-88.78 4.53,-21.94 20.92,-38.21 34.53,-54.95 14.87,-17.74 24.75,-39.73 27.04,-62.86 4.88,-49.7 -1.34,-100.35 -17.66,-147.54 -11.99,-34.83 -26.57,-68.73 -38.16,-103.71 -6.87,-22.36 -13.33,-44.85 -19.5,-67.41 -4.61,-15.35 -8.49,-32.56 -21.2,-43.43 -10.17,-7.27 -22.68,-2.44 -32.98,1.81 3.33,-16.86 13.13,-31.37 22.01,-45.74zm-223.26 284.45c8.33,-7.36 13.14,-17.59 18.96,-26.84 7.33,24.55 30.89,39.98 54.43,46.74 31.81,10.4 65.79,-0.87 93.55,-17.09 -3.88,8.08 -8.58,16.07 -9.6,25.18 -2.16,16.39 -0.4,32.96 -0.77,49.42 -23.91,-22.71 -52.19,-40.74 -82.89,-52.83 -12.26,-4.73 -25.42,-6.57 -38.53,-5.82 -7.02,1.24 -11.64,-4.8 -17.24,-7.72 -5.05,2.34 -8.66,8.19 -14.72,7.67 -10.6,-0.05 -21.4,-0.43 -31.65,2.78 -24.1,7.54 -45.99,20.68 -66.71,34.9 -8.59,5.82 -15.58,13.66 -24.28,19.33 -1.62,-16.72 1.46,-33.65 -2.02,-50.22 -1.34,-8.14 -5.59,-15.33 -9.23,-22.61 18.29,10.19 37.91,18.95 59.08,20.54 25.65,2.22 52.34,-6.26 71.62,-23.43zm-171.87 206.22c12.77,-28.53 20.35,-59.03 27.82,-89.23 1.99,26.24 -12.07,49.75 -13.99,75.53 -1.86,23.03 -4.92,46.04 -4.08,69.2 0.33,19.28 -1.19,38.71 1.95,57.84 0.24,20.84 5.29,41.11 7.78,61.71 -8.63,-9.38 -16.66,-19.9 -28.26,-25.84 -16.27,-9.16 -35.2,-11.35 -53.55,-11.1 0.22,-24.15 12.08,-46.02 26.12,-64.95 16.49,-21.96 25.74,-48.06 36.21,-73.16zm351.8 -88.96c6.84,26.5 12.96,53.26 19.05,79.98 6.72,19.08 15.18,37.59 23.98,55.82 7.34,15.25 18.83,27.94 27.12,42.64 5.8,10.07 13.85,19.13 16.76,30.65 2.34,7.98 2.94,16.34 2.87,24.65 -22.12,5.79 -43.02,15.52 -62.27,27.76 -10.45,5.6 -18.63,14.38 -28.68,20.52 1.64,-13.56 3.93,-27.06 4.5,-40.72 1.02,-17.46 4.58,-34.7 4.9,-52.21 1.12,-21.72 8.09,-42.79 7.54,-64.63 0.25,-14.06 0.22,-28.09 0.05,-42.14 -0.32,-28.26 -14.83,-54.13 -15.82,-82.32zm250.72 199.38c3.81,-11.74 6.54,-23.88 12.07,-34.97 -6.35,44.93 -19.93,88.68 -37.52,130.45 -20.34,47.01 -46.69,92.36 -83.83,128.16 -22.66,23.68 -48.95,44.23 -78.53,58.6 -39.51,20.6 -83.78,30.53 -127.99,33.96 -35.12,2.76 -70.84,-5.55 -101.37,-23.11 -31.14,-16.57 -55.39,-43.33 -75.07,-72.11 -12.74,-21.12 -25.65,-42.81 -32.44,-66.67 15.08,25.07 31.89,51.24 58.23,65.72 9.48,5.75 20.38,1.87 30.58,1.52 17.09,16.81 37.44,34.65 62.93,34.28 19.03,-0.43 32.77,-15.33 42.84,-29.85 15.45,3.5 30.72,8.2 46.62,9.52 33.06,2.34 67.11,0.8 98.45,-10.89 38.56,-13.86 73.16,-37.99 99.88,-69.01 27.74,-29.6 47.14,-65.72 64.36,-102.14 7.46,-17.61 15.15,-35.17 20.79,-53.46z"/>
   <path class="fil4" d="M634.03 181.38c108.03,-34.82 221.44,-51.49 334.75,-54.42 109.33,-2.57 219.13,8.01 325.52,33.58 108.94,27.39 216.23,69.8 305.01,139.97 3.41,3.06 8.16,6.1 7.29,11.37 0.02,34.51 0.27,69.01 -0.2,103.51 -12.91,1.27 -25.9,1.12 -38.78,-0.1 -0.85,-4.45 -0.25,-9.4 -2.39,-13.48 -7.66,-6.6 -17.44,-10 -26.22,-14.83 -0.42,5.08 -0.87,10.13 -1.34,15.2 -8.91,-3.38 -17.47,-7.59 -26.02,-11.74 -0.97,-9.78 -1.02,-19.65 -0.23,-29.45 10.82,4.25 21.15,9.65 31.4,15.12 0.05,-7.94 0,-15.85 -0.08,-23.78 -10.3,-5.67 -21.07,-10.45 -31.54,-15.77 -0.55,-8.18 -0.45,-16.42 0.37,-24.58 9.08,3.56 17.71,8.11 26.22,12.89 0.45,5.39 0.85,10.82 1.34,16.24 8.81,4.93 17.67,9.88 27.07,13.63 0.57,-12.61 0.32,-25.25 0.2,-37.86 -33.38,-19.4 -68.51,-35.62 -103.88,-51.07 -15.72,-6.52 -31.27,-13.53 -47.54,-18.63 -0.08,7.19 -0.1,14.38 -0.13,21.54 3.83,2.69 10.98,3.06 11.32,8.78 1.27,12.52 0.45,25.15 -0.1,37.72 -14.5,-25.05 -26.49,-51.47 -40.77,-76.65 -1.54,-3.65 -5.64,-4.42 -8.95,-5.72 -27.09,-8.81 -54.21,-17.78 -82.07,-23.81 -0.12,5.95 -0.5,11.92 0.15,17.87 1.22,3.73 4.97,5.79 7.26,8.88 -3.75,9.55 -9.9,17.96 -14.72,26.99 -4.75,-12.32 -10.13,-24.36 -15.27,-36.5 2.73,0.15 5.49,0.33 8.28,0.48 0.1,-7.22 0.07,-14.43 -0.03,-21.64 -20.07,-4.9 -40.15,-10.01 -60.65,-12.72 -0.07,6.64 -0.07,13.26 -0.07,19.88 5.22,3.03 10.72,6.32 13.21,12.11 8.81,17.02 17.84,33.91 26.76,50.85 4.88,8.48 3.14,18.53 3.39,27.86 -3.34,-0.4 -6.64,-0.77 -9.95,-1.12 -0.13,7.34 -0.15,14.7 -0.08,22.07 18.86,3.95 37.32,9.62 56.3,13.08 0.2,-7.09 0.22,-14.18 -0.05,-21.24 -2.89,-1.6 -5.8,-3.11 -8.43,-5.03 -2.37,-8.85 -2.37,-19.4 3.45,-26.99 9.31,-13.33 17.49,-27.41 27.07,-40.55 4.3,-1.01 8.7,0.83 12.98,1.4 0.3,26.32 -0.05,52.63 0.35,78.95 -3.51,-0.05 -6.99,-0.07 -10.47,-0.07 -0.05,6.96 -0.05,13.93 -0.05,20.89 17.71,6.17 35.65,11.62 53.51,17.34 0.02,-7.31 -0.1,-14.62 -0.4,-21.91 -4.28,-2.07 -8.58,-4.03 -12.84,-6.07 -0.37,-14.16 -0.74,-28.34 0.43,-42.47 15.32,24.66 27.11,51.27 41.02,76.72 1.56,3.19 4.18,5.67 7.51,6.99 10.4,4.65 21.04,8.86 32.09,11.72 0.22,-33.36 -0.6,-66.75 0.32,-100.1 7.02,2.48 13.88,5.47 20.7,8.48 0.72,25.45 0.25,50.9 0.32,76.34 -3.58,-0.27 -7.16,-0.52 -10.72,-0.77 0.89,7.14 -2.19,16.07 1.84,22.09 14.4,8.01 30.2,13.39 44.53,21.69 -21,2.44 -42.14,1.4 -63.18,1.3 -28.27,0.02 -56.5,-0.13 -84.76,0.25 -3.93,-0.4 -8.75,0.59 -11.59,-2.86 -7.79,-8.06 -13.16,-18.14 -21.34,-25.85 -24.13,-23.53 -54.93,-41.87 -88.88,-45.75 -18.83,-3.43 -39.83,-0.5 -54.26,13.01 -7.44,7.71 -18.76,6.02 -28.21,8.91 -4.75,0.94 -4.6,6.76 -6.37,10.27 -8.18,0.25 -14.85,-4.97 -21.86,-8.43 -30.28,-17.16 -64.41,-28.09 -99.23,-30.03 -7.02,-0.59 -16.44,-3.2 -17.81,-11.16 -0.92,-14.28 9.85,-24.06 18.46,-33.78 0.15,1.51 0.44,4.52 0.62,6.01 14.4,1.47 28.88,2.04 43.38,2.44 6.94,-26.34 14.11,-52.61 21.12,-78.93 1.79,-6.22 2.84,-12.81 6.14,-18.46 3.06,-1.69 6.32,-2.98 9.56,-4.38 -0.05,-6.71 -0.08,-13.45 -0.18,-20.19 -16.99,-1.89 -34.05,-3.14 -51.12,-4.06 -0.22,6.59 -0.54,13.21 0,19.8 2.71,2.31 6.2,3.36 9.41,4.83 -5,19.92 -8.09,40.25 -12.44,60.3 -3.19,-28.63 -9.85,-56.75 -17.12,-84.56 -11.66,-3.75 -24.75,-0.99 -36.99,-2.04 -7.51,27.74 -12.56,56.1 -18.73,84.16 -4.48,-19.7 -7.81,-39.7 -10.75,-59.7 3.24,-0.62 6.5,-1.22 9.76,-1.79 0.12,-7.39 0.2,-14.78 0.27,-22.17 -19.9,-0.62 -39.75,0.47 -59.58,1.77 -0.32,7.09 -0.35,14.18 -0.12,21.27 3.66,1.61 9.77,0.52 10.69,5.57 6.05,19.1 8.07,39.35 15.18,58.18 -1.1,14.01 -7.41,27.86 -6.52,42.39 -14.75,-3.18 -31.32,-7.46 -45.6,-0.52 0.43,11.57 10.78,19.53 16.35,28.86 -0.4,0.77 -1.2,2.28 -1.57,3.03 -21.99,5.67 -44.15,11.99 -63.88,23.53 -12.09,6.42 -23.68,13.71 -35.65,20.35 -2.81,-4.6 -5.72,-9.15 -8.78,-13.61 -6.69,-0.77 -13.55,-0.97 -20.07,-2.88 -9.51,-4.98 -16.94,-13.66 -27.59,-16.54 -20.47,-5.78 -42.56,-2.22 -62.09,5.29 -12.14,6.12 -25.8,9.46 -36.57,18.04 -7.01,5.42 -13.9,11.04 -20.57,16.91 -10.75,9.23 -16.49,23.04 -28.01,31.47 -10.03,2.59 -20.62,0.73 -30.87,1.1 -29.78,-0.67 -59.63,1.09 -89.36,-0.75 6.15,-7.71 4.03,-17.88 4.31,-26.99 -5.7,1.84 -11.32,3.86 -16.99,5.77 -0.1,-7.31 -0.13,-14.63 0.07,-21.94 10.48,-5.4 21.17,-10.39 31.72,-15.67 0.05,-7.54 0.05,-15.08 -0.12,-22.59 -10.83,3.91 -21.1,9.11 -31.55,13.86 -0.42,-10.23 -0.3,-20.45 -0.25,-30.65 8.21,-4.3 16.5,-8.43 24.98,-12.11 0.37,4.9 0.7,9.82 1.04,14.75 9.43,-3.71 18.64,-7.89 28.09,-11.54 2.09,-13.14 1.47,-26.5 0.79,-39.71 -34.15,13.01 -66.14,31.02 -98.8,47.29 -0.48,7.84 -0.55,15.72 -0.43,23.59 3.26,-1.35 6.5,-2.69 9.75,-4.06 0.55,23.03 0.11,46.07 0.23,69.11 0.52,4.55 -1.44,8.48 -4.58,11.61 -15.25,0.1 -30.5,0.35 -45.74,-0.34 -0.03,-33.74 -0.08,-67.47 0,-101.18 -0.95,-7.06 5.47,-10.99 10.12,-14.92 68.16,-53.81 147.89,-91.15 230.08,-118.04zm527.16 33.31c3.61,1.64 3.94,5.85 4.98,9.2 2.26,9.43 6.14,18.49 7.32,28.19 -7.59,-0.77 -15.15,-1.82 -22.72,-2.99 3.26,-11.54 6.87,-22.95 10.42,-34.4zm-452.73 15.97c7.29,-1.17 16.46,-5.44 22.63,0.72 4.93,7.86 2.54,19.03 -5,24.33 -5.27,3.51 -11.69,4.43 -17.66,6.05 -0.1,-10.35 -0.2,-20.73 0.03,-31.1zm309.28 1.35c4.42,15.44 7.14,31.34 11.61,46.76 1.12,0.23 3.31,0.65 4.43,0.85 -8.78,4.13 -18.56,4.08 -28.01,4.72 3.68,-17.51 9.01,-34.65 11.97,-52.33zm-425.8 36.66c5.47,-3.58 13.8,-4 17.31,2.52 7.14,12.71 6.29,28.3 4.8,42.36 -2.26,11.52 -5.79,26.82 -18.98,30.05 -9.5,1.57 -14.68,-9.28 -15.89,-17.09 -2.62,-19.58 -1.72,-42.81 12.76,-57.84zm-255.25 201.92c77.73,-0.55 155.47,0.1 233.23,-0.03 -6.74,16.12 -10.57,33.17 -12.66,50.45 -0.2,7.69 -8.11,11.12 -12.96,15.82 -17.29,13.21 -23.86,34.68 -34.25,52.89 -8.06,20.27 -18.86,40.97 -17.09,63.43 6.61,-1.84 12.53,-5.42 17.83,-9.7 -7.39,13.91 -12.56,29.06 -22.14,41.77 -23.85,-32.59 -46.74,-65.85 -70.45,-98.54 -26.76,-38.97 -55.32,-76.74 -81.51,-116.09zm1060.3 0.35c30.5,-0.17 61,-0.32 91.5,0.17 -10.53,15.77 -24.03,29.33 -34.53,45.13 -7.26,9.4 -11.34,20.97 -19.68,29.53 -17.16,-12.87 -34.33,-25.75 -51.96,-38.04 -5.2,-3.14 -8.64,-8.16 -10.4,-13.88 14.72,0.97 20.67,16.39 32.16,23.16 1.1,-0.25 3.31,-0.75 4.43,-1 0.2,-15.84 -7.81,-30.02 -11.52,-45.07zm226.4 0.17c12.73,-0.45 25.52,-0.52 38.26,0.1 -28.88,43.36 -60.35,84.98 -89.98,127.84 -26.22,35.89 -51.14,72.71 -77.69,108.36 -1.02,-0.75 -3.03,-2.27 -4.05,-3.01 12.31,-43.61 30.12,-86.25 56.47,-123.31 7.54,-11.57 19.1,-19.21 30.4,-26.64 6.29,-3.86 6.04,-11.94 7.38,-18.34 1.69,-13.53 8.36,-26.42 18.09,-35.92 7.14,-5.27 16.12,-7.19 23.78,-11.64 -0.75,-5.85 -1.59,-11.67 -2.66,-17.44zm-820.65 663.99c6.86,-12.54 11.61,-27.37 22.61,-36.89 8.6,24.75 13.9,50.87 26.84,73.9 15.65,30.92 36.49,59.06 59.95,84.48 17.74,15.7 35.17,32.19 55.99,43.76 17.17,9.62 35.1,18.08 54.08,23.43 12.64,4.36 26.27,4.03 38.96,8.21 -20.37,30.02 -40.05,60.6 -61.69,89.75 -65.72,-95.45 -130.8,-191.34 -196.74,-286.64zm-25.2 -942.5l0 0zm0 0c-0.33,15.28 -0.18,30.55 -0.15,45.82 8.8,-0.84 17.51,-2.58 26.14,-4.45 -0.15,-7.41 -0.12,-14.8 -0.27,-22.21 5.12,-1.65 10.47,-2.39 15.87,-2.57 0.1,25.83 0.5,51.65 -0.13,77.47 -4.67,0.99 -9.35,1.94 -14,2.88 -0.25,7.64 -0.27,15.25 0,22.89 22.11,-2.46 44,-6.67 66.19,-8.56 0,-7.91 0.03,-15.82 -0.12,-23.73 -4.83,0.55 -9.65,1.12 -14.48,1.69 -0.25,-26.19 -0.89,-52.44 0.25,-78.61 4.98,-0.47 9.95,-1.02 14.93,-1.54 0.12,7.59 0.17,15.18 0.14,22.74 8.56,-0.6 17.12,-1.44 25.65,-2.39 0.97,-15.27 0.37,-30.62 0.3,-45.92 -40.4,2.54 -80.62,8.71 -120.32,16.49zm348.56 -14.63l0 0zm0 0c-0.03,7.62 0.07,15.2 0.32,22.82 1.62,0.47 4.87,1.44 6.49,1.91 -7.64,25.3 -15.15,50.7 -24.13,75.58 -3.83,-0.3 -7.66,-0.58 -11.47,-0.83 -0.52,7.64 -0.54,15.28 -0.12,22.91 18.78,2.24 37.64,3.84 56.37,6.37 0.65,-7.48 0.57,-15 0.37,-22.51 -4.5,-1.14 -8.98,-2.24 -13.46,-3.33 0.95,-3.61 1.92,-7.22 2.91,-10.82 12.89,0.84 25.67,2.66 38.31,5.32 0.9,3.93 1.82,7.84 2.79,11.74 -5.6,-0.4 -11.17,-0.89 -16.74,-1.27 0.12,7.64 0.2,15.28 0.4,22.91 23.83,3.16 47.46,7.64 70.99,12.49 0.55,-7.81 0.65,-15.62 0.3,-23.43 -4.18,-0.9 -8.33,-1.74 -12.51,-2.62 -8.73,-30.29 -18.14,-60.42 -26.57,-90.82 -1.84,-5.49 -2.79,-11.44 -5.97,-16.34 -22.31,-5.55 -45.47,-7.24 -68.28,-10.08zm-405.95 26.97l0 0zm0 0c-19.26,4.73 -38.39,9.98 -57.39,15.6 -0.6,7.68 -0.62,15.4 -0.25,23.11 3.16,-0.48 6.34,-0.92 9.53,-1.34 0.07,25.52 -0.03,51.04 -0.03,76.54 -3.06,2.01 -7.68,2.44 -9.45,5.94 -0.65,6.92 -0.07,13.86 0.1,20.8 18.28,-4.31 36.24,-9.9 54.43,-14.55 4.43,-5.92 0.97,-15.25 1.74,-22.49 -3.53,0.02 -7.07,0.05 -10.57,0.1 0.17,-9.2 -0.1,-18.46 0.62,-27.64 4.92,-0.2 9.85,-0.22 14.77,-0.1 5.13,12.66 -0.77,29.28 10.78,39.11 11.96,8.01 28.95,4.97 40.29,-2.86 11.8,-8.14 12.62,-23.74 12.52,-36.7 -3.96,0.43 -7.89,0.92 -11.79,1.52 -0.53,3.98 -1.05,7.94 -1.62,11.92 -1.47,0.02 -4.45,0.07 -5.92,0.1 -1.34,-7.49 -1.07,-15.6 -4.9,-22.42 -3.31,-5.77 -10.23,-7.36 -15.82,-9.95 7.73,-6.19 17.51,-11.69 20.25,-21.96 3.58,-12.49 1.11,-29.11 -11.72,-35.3 -11.49,-4.06 -23.96,-1.79 -35.57,0.57zm-111.37 30.62l0 0zm0 0c-40.85,8.24 -71.17,47.67 -72.64,88.66 -0.7,14.43 0.72,30.4 10.23,42.02 7.78,9.65 21.44,11.04 32.96,9.5 20.47,-3.39 40.07,-13.01 54.85,-27.69 16.47,-16.57 24.85,-40.25 24.28,-63.43 0.04,-14.23 -2.57,-29.68 -12.37,-40.6 -9.5,-9.87 -24.52,-11.39 -37.31,-8.46z"/>
   <path class="fil5" d="M809.55 117.43c166.52,-24.46 338.21,-17.49 501.45,24.28 63.7,16.59 126.07,38.88 184.95,68.48 46.82,23.91 91.67,52.54 130.1,88.63 3.13,2.64 5.55,6.25 4.88,10.57 -0.4,35.35 0.77,70.78 -0.65,106.1 -7.96,-0.12 -15.92,-0.15 -23.88,-0.1 0.47,-34.5 0.22,-69 0.2,-103.51 0.87,-5.27 -3.88,-8.31 -7.29,-11.37 -88.78,-70.17 -196.07,-112.58 -305.01,-139.97 -106.39,-25.57 -216.19,-36.15 -325.52,-33.58 -113.31,2.93 -226.72,19.6 -334.75,54.42 -82.19,26.89 -161.92,64.23 -230.08,118.04 -4.65,3.93 -11.07,7.86 -10.12,14.92 -0.08,33.71 -0.03,67.44 0,101.18 -7.99,-0.13 -16,-0.2 -24.01,-0.03 -0.15,-37.51 -0.42,-75.02 0.18,-112.51 49.05,-46.87 108.11,-81.84 169.72,-109.53 85.72,-38.04 177.24,-62.04 269.83,-76.02zm370.72 583.17c3.81,0.97 5.79,-2.26 8.08,-4.58 -1.26,3.55 -0.76,6.93 2.79,8.7 -0.96,0.67 -2.91,2 -3.87,2.66 -0.63,1.65 -1.21,3.34 -1.83,5 -1.48,-2.97 -3.7,-3.65 -6.71,-2.04 1.66,-3.06 3.19,-6.28 1.54,-9.74zm-400.88 -4.58c2.11,2.24 4.27,4.68 7.73,3.65 -1.6,3.47 -0.4,6.73 1.51,9.82 -3.07,-1.79 -5.3,-0.17 -7.25,2.04 -0.28,-1.24 -0.83,-3.7 -1.09,-4.93 -1.08,-0.7 -3.21,-2.13 -4.27,-2.83 0.86,-0.63 2.57,-1.87 3.44,-2.5 -0.02,-1.32 -0.05,-3.94 -0.07,-5.25zm146.95 -522.57c19.83,-1.3 39.68,-2.39 59.58,-1.77 -0.07,7.39 -0.15,14.78 -0.27,22.17 -3.26,0.57 -6.52,1.17 -9.76,1.79 2.94,20 6.27,40 10.75,59.7 6.17,-28.06 11.22,-56.42 18.73,-84.16 12.24,1.05 25.33,-1.71 36.99,2.04 7.27,27.81 13.93,55.93 17.12,84.56 4.35,-20.05 7.44,-40.38 12.44,-60.3 -3.21,-1.47 -6.7,-2.52 -9.41,-4.83 -0.54,-6.59 -0.22,-13.21 0,-19.8 17.07,0.92 34.13,2.17 51.12,4.06 0.1,6.74 0.13,13.48 0.18,20.19 -3.24,1.4 -6.5,2.69 -9.56,4.38 -3.3,5.65 -4.35,12.24 -6.14,18.46 -7.01,26.32 -14.18,52.59 -21.12,78.93 -14.5,-0.4 -28.98,-0.97 -43.38,-2.44 -0.18,-1.49 -0.47,-4.5 -0.62,-6.01 2.9,-3.79 5.82,-7.59 8.6,-11.5 -1.96,0.18 -5.87,0.52 -7.81,0.7 -1.12,-0.2 -3.31,-0.62 -4.43,-0.85 -4.47,-15.42 -7.19,-31.32 -11.61,-46.76 -2.96,17.68 -8.29,34.82 -11.97,52.33 -7.41,3.21 -15.07,5.85 -22.46,9.11 -6.52,-17.19 -13.01,-34.73 -25.57,-48.61 -1.74,4.6 -3.56,9.18 -5.65,13.63 -7.11,-18.83 -9.13,-39.08 -15.18,-58.18 -0.92,-5.05 -7.03,-3.96 -10.69,-5.57 -0.23,-7.09 -0.2,-14.18 0.12,-21.27zm-148.8 19.15c39.7,-7.78 79.92,-13.95 120.32,-16.49 0.07,15.3 0.67,30.65 -0.3,45.92 -8.53,0.95 -17.09,1.79 -25.65,2.39 0.03,-7.56 -0.02,-15.15 -0.14,-22.74 -4.98,0.52 -9.95,1.07 -14.93,1.54 -1.14,26.17 -0.5,52.42 -0.25,78.61 4.83,-0.57 9.65,-1.14 14.48,-1.69 0.15,7.91 0.12,15.82 0.12,23.73 -22.19,1.89 -44.08,6.1 -66.19,8.56 -0.27,-7.64 -0.25,-15.25 0,-22.89 4.65,-0.94 9.33,-1.89 14,-2.88 0.63,-25.82 0.23,-51.64 0.13,-77.47 -5.4,0.18 -10.75,0.92 -15.87,2.57 0.15,7.41 0.12,14.8 0.27,22.21 -8.63,1.87 -17.34,3.61 -26.14,4.45 -0.03,-15.27 -0.18,-30.54 0.15,-45.82zm348.56 -14.63c22.81,2.84 45.97,4.53 68.28,10.08 3.18,4.9 4.13,10.85 5.97,16.34 8.43,30.4 17.84,60.53 26.57,90.82 4.18,0.88 8.33,1.72 12.51,2.62 0.35,7.81 0.25,15.62 -0.3,23.43 -23.53,-4.85 -47.16,-9.33 -70.99,-12.49 -0.2,-7.63 -0.28,-15.27 -0.4,-22.91 5.57,0.38 11.14,0.87 16.74,1.27 -0.97,-3.9 -1.89,-7.81 -2.79,-11.74 -12.64,-2.66 -25.42,-4.48 -38.31,-5.32 -0.99,3.6 -1.96,7.21 -2.91,10.82 4.48,1.09 8.96,2.19 13.46,3.33 0.2,7.51 0.28,15.03 -0.37,22.51 -18.73,-2.53 -37.59,-4.13 -56.37,-6.37 -0.42,-7.63 -0.4,-15.27 0.12,-22.91 3.81,0.25 7.64,0.53 11.47,0.83 8.98,-24.88 16.49,-50.28 24.13,-75.58 -1.62,-0.47 -4.87,-1.44 -6.49,-1.91 -0.25,-7.62 -0.35,-15.2 -0.32,-22.82zm93.2 14.43c20.5,2.71 40.58,7.82 60.65,12.72 0.1,7.21 0.13,14.42 0.03,21.64 -2.79,-0.15 -5.55,-0.33 -8.28,-0.48 5.14,12.14 10.52,24.18 15.27,36.5 4.82,-9.03 10.97,-17.44 14.72,-26.99 -2.29,-3.09 -6.04,-5.15 -7.26,-8.88 -0.65,-5.95 -0.27,-11.92 -0.15,-17.87 27.86,6.03 54.98,15 82.07,23.81 3.31,1.3 7.41,2.07 8.95,5.72 14.28,25.18 26.27,51.6 40.77,76.65 0.55,-12.57 1.37,-25.2 0.1,-37.72 -0.34,-5.72 -7.49,-6.09 -11.32,-8.78 0.03,-7.16 0.05,-14.35 0.13,-21.54 16.27,5.1 31.82,12.11 47.54,18.63 35.37,15.45 70.5,31.67 103.88,51.07 0.12,12.61 0.37,25.25 -0.2,37.86 -9.4,-3.75 -18.26,-8.7 -27.07,-13.63 -0.49,-5.42 -0.89,-10.85 -1.34,-16.24 -8.51,-4.78 -17.14,-9.33 -26.22,-12.89 -0.82,8.16 -0.92,16.4 -0.37,24.58 10.47,5.32 21.24,10.1 31.54,15.77 0.08,7.93 0.13,15.84 0.08,23.78 -10.25,-5.47 -20.58,-10.87 -31.4,-15.12 -0.79,9.8 -0.74,19.67 0.23,29.45 8.55,4.15 17.11,8.36 26.02,11.74 0.47,-5.07 0.92,-10.12 1.34,-15.2 8.78,4.83 18.56,8.23 26.22,14.83 2.14,4.08 1.54,9.03 2.39,13.48 -18.54,-0.3 -37.22,0.99 -55.6,-0.75 -14.33,-8.3 -30.13,-13.68 -44.53,-21.69 -4.03,-6.02 -0.95,-14.95 -1.84,-22.09 3.56,0.25 7.14,0.5 10.72,0.77 -0.07,-25.44 0.4,-50.89 -0.32,-76.34 -6.82,-3.01 -13.68,-6 -20.7,-8.48 -0.92,33.35 -0.1,66.74 -0.32,100.1 -11.05,-2.86 -21.69,-7.07 -32.09,-11.72 -3.33,-1.32 -5.95,-3.8 -7.51,-6.99 -13.91,-25.45 -25.7,-52.06 -41.02,-76.72 -1.17,14.13 -0.8,28.31 -0.43,42.47 4.26,2.04 8.56,4 12.84,6.07 0.3,7.29 0.42,14.6 0.4,21.91 -17.86,-5.72 -35.8,-11.17 -53.51,-17.34 0,-6.96 0,-13.93 0.05,-20.89 3.48,0 6.96,0.02 10.47,0.07 -0.4,-26.32 -0.05,-52.63 -0.35,-78.95 -4.28,-0.57 -8.68,-2.41 -12.98,-1.4 -9.58,13.14 -17.76,27.22 -27.07,40.55 -5.82,7.59 -5.82,18.14 -3.45,26.99 2.63,1.92 5.54,3.43 8.43,5.03 0.27,7.06 0.25,14.15 0.05,21.24 -18.98,-3.46 -37.44,-9.13 -56.3,-13.08 -0.07,-7.37 -0.05,-14.73 0.08,-22.07 3.31,0.35 6.61,0.72 9.95,1.12 -0.25,-9.33 1.49,-19.38 -3.39,-27.86 -8.92,-16.94 -17.95,-33.83 -26.76,-50.85 -2.49,-5.79 -7.99,-9.08 -13.21,-12.11 0,-6.62 0,-13.24 0.07,-19.88zm-499.15 12.54c11.61,-2.36 24.08,-4.63 35.57,-0.57 12.83,6.19 15.3,22.81 11.72,35.3 -2.74,10.27 -12.52,15.77 -20.25,21.96 5.59,2.59 12.51,4.18 15.82,9.95 3.83,6.82 3.56,14.93 4.9,22.42 1.47,-0.03 4.45,-0.08 5.92,-0.1 0.57,-3.98 1.09,-7.94 1.62,-11.92 3.9,-0.6 7.83,-1.09 11.79,-1.52 0.1,12.96 -0.72,28.56 -12.52,36.7 -11.34,7.83 -28.33,10.87 -40.29,2.86 -11.55,-9.83 -5.65,-26.45 -10.78,-39.11 -4.92,-0.12 -9.85,-0.1 -14.77,0.1 -0.72,9.18 -0.45,18.44 -0.62,27.64 3.5,-0.05 7.04,-0.08 10.57,-0.1 -0.77,7.24 2.69,16.57 -1.74,22.49 -18.19,4.65 -36.15,10.24 -54.43,14.55 -0.17,-6.94 -0.75,-13.88 -0.1,-20.8 1.77,-3.5 6.39,-3.93 9.45,-5.94 0,-25.5 0.1,-51.02 0.03,-76.54 -3.19,0.42 -6.37,0.86 -9.53,1.34 -0.37,-7.71 -0.35,-15.43 0.25,-23.11 19,-5.62 38.13,-10.87 57.39,-15.6zm-111.37 30.62c12.79,-2.93 27.81,-1.41 37.31,8.46 9.8,10.92 12.41,26.37 12.37,40.6 0.57,23.18 -7.81,46.86 -24.28,63.43 -14.78,14.68 -34.38,24.3 -54.85,27.69 -11.52,1.54 -25.18,0.15 -32.96,-9.5 -9.51,-11.62 -10.93,-27.59 -10.23,-42.02 1.47,-40.99 31.79,-80.42 72.64,-88.66zm-174.18 80.05c32.66,-16.27 64.65,-34.28 98.8,-47.29 0.68,13.21 1.3,26.57 -0.79,39.71 -9.45,3.65 -18.66,7.83 -28.09,11.54 -0.34,-4.93 -0.67,-9.85 -1.04,-14.75 -8.48,3.68 -16.77,7.81 -24.98,12.11 -0.05,10.2 -0.17,20.42 0.25,30.65 10.45,-4.75 20.72,-9.95 31.55,-13.86 0.17,7.51 0.17,15.05 0.12,22.59 -10.55,5.28 -21.24,10.27 -31.72,15.67 -0.2,7.31 -0.17,14.63 -0.07,21.94 5.67,-1.91 11.29,-3.93 16.99,-5.77 -0.28,9.11 1.84,19.28 -4.31,26.99 -17.23,0.6 -34.52,-0.5 -51.74,0.72 3.14,-3.13 5.1,-7.06 4.58,-11.61 -0.12,-23.04 0.32,-46.08 -0.23,-69.11 -3.25,1.37 -6.49,2.71 -9.75,4.06 -0.12,-7.87 -0.05,-15.75 0.43,-23.59zm-150.25 128.06c102.04,-0.39 204.08,-0.49 306.1,0.06 -7.39,8.53 -14.46,17.33 -20.53,26.83 -77.76,0.13 -155.5,-0.52 -233.23,0.03 26.19,39.35 54.75,77.12 81.51,116.09 23.71,32.69 46.6,65.95 70.45,98.54 -4.53,11.37 -9.22,22.73 -12.09,34.7 -64.35,-91.87 -128.38,-184.01 -192.21,-276.25zm1092.09 -0.02c49.19,-0.27 98.39,-0.67 147.54,0.17 -12.73,7.89 -24.43,17.22 -35.49,27.29 -30.5,-0.49 -61,-0.34 -91.5,-0.17 -5.87,-9.8 -13.6,-18.26 -20.55,-27.29zm226.18 0.08c36.94,-0.48 73.9,-0.65 110.82,0.07 -6.37,11.12 -14.21,21.27 -21.52,31.76 -52.81,76.5 -106.24,152.54 -159.05,229.01 -23.46,32.41 -45.18,66.07 -69.06,98.14 3.16,-19.81 10.45,-38.64 14.68,-58.19 1.31,-8.63 7.26,-15.69 8.11,-24.43 0.44,-5.14 4.57,-8.68 7.38,-12.68 26.55,-35.65 51.47,-72.47 77.69,-108.36 29.63,-42.86 61.1,-84.48 89.98,-127.84 -12.74,-0.62 -25.53,-0.55 -38.26,-0.1 -5.55,-10.12 -12.19,-19.62 -20.77,-27.38zm-404.41 267.01c4.55,-12.66 8.43,-25.57 13.31,-38.13 -0.6,15.37 0.77,31.12 -3.18,46.12 -11.8,18.28 -33.34,34.55 -56.27,29.35 -1.7,-11.12 -5.1,-22.76 1.61,-32.96 6.42,5.2 12.84,11.77 21.72,11.89 10.67,1.74 19.48,-6.92 22.81,-16.27zm-440.23 -33.23c4.56,11.94 7.54,24.45 12.81,36.12 3.51,8.13 11.87,14.75 21.12,13.45 8.31,-0.22 14.63,-5.99 21.62,-9.65 5.3,9.16 1.69,19.6 0.5,29.33 -18.09,3.71 -34.73,-6.96 -46.44,-19.7 -13.16,-12.84 -8.56,-33.06 -9.61,-49.55zm-425.47 177.26c5.49,0.15 6.69,6.57 8.56,10.6 18.3,52.81 43.35,103.83 78.33,147.69 24.7,30.25 56.52,56.66 94.75,67.24 39.63,12.31 81.79,19.77 123.26,13.9 27.94,-4.33 56.09,-17.39 71.99,-41.67 4.63,-6.39 6.97,-14.15 11.62,-20.47 18.26,-4.3 38.01,-2.51 54.68,6.34 -11.25,34.83 -32.29,66.3 -59.28,90.9 -25.28,21.05 -57.86,34.4 -91.07,33.06 -53.34,-4.05 -106.75,-19.23 -151.1,-49.85 -29.25,-18.98 -52.94,-45.22 -73.83,-72.84 -35.95,-54.23 -58.86,-116.94 -67.07,-181.47 -1.32,3.88 -2.68,7.76 -3.38,11.82 -3.76,31.52 -3.83,63.76 3.58,94.8 5.95,33.73 20.25,65.25 36.89,94.95 22.47,33.76 47.79,66.35 79.98,91.45 9.97,9.5 21.42,17.09 33.46,23.7 27.51,20.85 59.75,34.58 92.86,43.79 28.43,7.31 58.71,7.83 87.16,0.22 12.44,-3.26 24.06,-9.68 37.07,-10.65 -26.27,17.64 -59.23,23.46 -90.45,22.27 -59.88,-4.48 -113.51,-35.98 -159.9,-72.12 -20.85,-17.06 -42.84,-33.68 -58.24,-56.17 -43.9,-60.55 -72.81,-134.9 -68.36,-210.57 1.5,-12.44 0.35,-26.47 8.49,-36.92zm1294.78 6.1c1.17,-4.76 5.72,-5.58 9.9,-6.15 -0.07,0.87 -0.24,2.61 -0.34,3.48 -11.85,85.38 -45.55,171.42 -110.18,230.63 -31.07,30 -70.4,50.52 -111.69,62.46 -13.81,3.66 -27.79,7.09 -42.12,7.49 11.7,-21.79 22.59,-43.98 31.82,-66.94 22.86,-3.71 45.35,-9.88 66.97,-18.19 38.38,-16.99 68.58,-48.23 91.84,-82.51 27.81,-39.8 48.03,-84.48 63.8,-130.27zm-1004.38 68.11c5.1,0.67 12.29,-0.97 14.67,5.07 6.3,13.78 9.85,28.73 17.29,42.09 -11.09,-15.4 -22.31,-30.85 -31.96,-47.16zm37.29 54.95c10.1,10.54 22.53,18.55 36.49,22.93 -0.25,9.18 2.78,18.29 0.89,27.44 -2.46,-1.17 -4.45,-2.81 -5.97,-4.95 -10.57,-15.08 -21.09,-30.17 -31.41,-45.42zm142.54 151.17c65.94,95.3 131.02,191.19 196.74,286.64 21.64,-29.15 41.32,-59.73 61.69,-89.75 11.59,0.12 23.18,0.05 34.78,0.05 -32.09,46.49 -64.26,92.93 -96.72,139.18 -71.74,-102.94 -143.64,-205.77 -214.95,-309.01 5.74,-9.33 12.36,-18.03 18.46,-27.11zm622.34 73.63c4.65,-2.14 9.8,-2.44 14.85,-2.56 -37.12,20.12 -81.27,29.2 -123.19,22.09 0.75,-1 2.27,-3.01 3.01,-4.03 13.86,-1.45 27.72,1.91 41.57,0.47 21.92,-1.94 43.58,-7.22 63.76,-15.97zm-833.14 -940.06l0 0c-14.48,15.03 -15.38,38.26 -12.76,57.84 1.21,7.81 6.39,18.66 15.89,17.09 13.19,-3.23 16.72,-18.53 18.98,-30.05 1.49,-14.06 2.34,-29.65 -4.8,-42.36 -3.51,-6.52 -11.84,-6.1 -17.31,-2.52zm116.52 -38.01l0 0c-0.23,10.37 -0.13,20.75 -0.03,31.1 5.97,-1.62 12.39,-2.54 17.66,-6.05 7.54,-5.3 9.93,-16.47 5,-24.33 -6.17,-6.16 -15.34,-1.89 -22.63,-0.72zm452.73 -15.97l0 0c-3.55,11.45 -7.16,22.86 -10.42,34.4 7.57,1.17 15.13,2.22 22.72,2.99 -1.18,-9.7 -5.06,-18.76 -7.32,-28.19 -1.04,-3.35 -1.37,-7.56 -4.98,-9.2z"/>
  </g>
 </g>
</svg>
