<?xml version="1.0" encoding="UTF-8"?>
<!DOCTYPE svg PUBLIC "-//W3C//DTD SVG 1.1//EN" "http://www.w3.org/Graphics/SVG/1.1/DTD/svg11.dtd">
<!-- Creator: CorelDRAW -->
<svg xmlns="http://www.w3.org/2000/svg" xml:space="preserve" width="2000px" height="1600px" version="1.1" style="shape-rendering:geometricPrecision; text-rendering:geometricPrecision; image-rendering:optimizeQuality; fill-rule:evenodd; clip-rule:evenodd"
viewBox="0 0 2000 1600"
 xmlns:xlink="http://www.w3.org/1999/xlink">
 <defs>
  <style type="text/css">
   <![CDATA[
    .fil1 {fill:#FEFEFE}
    .fil0 {fill:#5A2C84;fill-rule:nonzero}
   ]]>
  </style>
 </defs>
 <g id="Capa_x0020_1">
  <metadata id="CorelCorpID_0Corel-Layer"/>
  <g id="Furman_x0020_Paladins.cdr">
   <path class="fil0" d="M998.35 80l0.4 0c17.16,85.36 43.23,169.33 82.15,247.38 50.35,102.86 123.18,194.64 212.23,266.66 96.2,78.33 209.32,133.81 326.93,171.96 37.78,12.24 76.08,22.89 114.75,31.93l0 0.57c-119.05,31.14 -235.91,74.13 -341.7,137.68 -95.66,57.13 -181.42,131.94 -246.72,222.54 -69.16,95.15 -114.69,206.12 -139.49,320.76 -3.05,13.45 -5.39,27.03 -8.22,40.52l-0.29 0c-23.5,-119.08 -65.9,-235.43 -132.66,-337.25 -61.62,-94.78 -144.24,-175.34 -239.14,-236.54 -109.94,-71.25 -234.3,-117.79 -361.4,-147.62l0 -0.4c58.35,-15.42 116.18,-33.11 172.45,-55.02 99.42,-38.54 194.74,-89.59 277.4,-157.36 75.94,-61.93 140.12,-138.32 187.2,-224.29 48.12,-87.34 78.97,-183.49 96.11,-281.52zm-91.12 377.16c-48.56,73.01 -108.67,138.29 -177.34,192.83 -78.58,62.85 -167.9,111.37 -261.29,148.3 64.06,23.14 125.75,53.09 182.9,90.2 51.51,33.33 99.24,72.46 142.27,116.19 88.33,89.95 155.72,198.9 205.01,314.56 1.53,-3.6 3.03,-7.22 4.48,-10.84 46.7,-115.93 116.63,-222.97 207.19,-309.38 91.59,-88.18 202.69,-154.59 320.8,-200.67 -55.46,-20.19 -109.32,-44.91 -160.06,-75.12 -56.33,-33.38 -108.86,-73.2 -155.98,-118.68 -94.51,-90.67 -165.89,-203.42 -216.56,-323.71 -24.29,61.7 -54.56,121.14 -91.42,176.32zm91.29 -77.77c30.43,58.9 65.07,115.79 105.95,168.07 70.67,91.46 159.65,168.97 261.11,224.56 16.85,9.42 34.21,17.86 51.53,26.38 -108.09,55.1 -208.71,127.07 -289.12,218.44 -52.27,59.06 -95.65,125.9 -128.8,197.44 -27.99,-54.31 -59.74,-106.81 -96.65,-155.56 -38.53,-51.28 -82.52,-98.51 -131.41,-140.03 -56.91,-48.45 -120.53,-88.9 -188.19,-120.57 69.44,-36.05 135.76,-78.58 195.32,-129.45 59.97,-50.97 113.11,-110.06 156.63,-175.66 24.15,-36.12 45.23,-74.26 63.63,-113.62zm-139.23 261.39c0.03,19.01 -0.1,38 0.07,56.99 6.4,0.76 13.23,1.41 18.58,5.38 5.26,3.93 9.36,10.22 8.95,17.02 -0.07,57.61 -0.02,115.25 -0.02,172.86 0.04,7.49 -1.49,15.26 -6.05,21.36 -5.14,7.15 -13.2,11.44 -21.46,13.89 0,13.75 -0.76,27.47 -0.46,41.23 47.44,0 94.89,0 142.33,-0.02 0,-13.49 -0.01,-27 0,-40.51 -7.96,-1.57 -16.29,-3.53 -22.56,-9.02 -7.42,-6.11 -10.45,-16.02 -10.37,-25.35 -0.03,-17.8 0.09,-35.59 -0.03,-53.4 11.95,-0.08 23.91,-0.15 35.88,-0.03 6.25,-0.15 12.26,3.01 15.86,8.09 6.21,8.59 7.28,19.52 8.13,29.76 12.92,0.75 25.89,0.2 38.82,0.38 1.16,-41.36 0.13,-82.77 0.56,-124.16 -13.29,-0.18 -26.59,-0.1 -39.89,-0.05 -1.43,8.55 -3.47,17.25 -8.29,24.61 -3.77,5.61 -9.85,10.37 -16.91,10.28 -11.33,0.18 -22.67,-0.1 -34.01,0.1 -0.23,-30.87 -0.03,-61.76 -0.1,-92.64 26.74,-0.01 53.48,0.02 80.23,-0.01 7.3,0.1 14.97,-0.86 21.84,2.35 21.14,9.15 36.17,31.01 37.27,54.03 13.6,0.02 27.19,-0.05 40.78,0.03 0.18,-37.7 -0.01,-75.4 0.12,-113.11 -96.42,-0.13 -192.85,-0.01 -289.27,-0.06z"/>
   <path class="fil1" d="M886.89 720.17c-0.07,57.61 -0.02,115.25 -0.02,172.86 0.04,7.49 -1.49,15.26 -6.05,21.36 -5.14,7.15 -13.2,11.44 -21.46,13.89 0,13.75 -0.76,27.47 -0.46,41.23 47.44,0 94.89,0 142.33,-0.02 0,-13.49 -0.01,-27 0,-40.51 -7.96,-1.57 -16.29,-3.53 -22.56,-9.02 -7.42,-6.11 -10.45,-16.02 -10.37,-25.35 -0.03,-17.8 0.09,-35.59 -0.03,-53.4 11.95,-0.08 23.91,-0.15 35.88,-0.03 6.25,-0.15 12.26,3.01 15.86,8.09 6.21,8.59 7.28,19.52 8.13,29.76 12.92,0.75 25.89,0.2 38.82,0.38 1.16,-41.36 0.13,-82.77 0.56,-124.16 -13.29,-0.18 -26.59,-0.1 -39.89,-0.05 -1.43,8.55 -3.47,17.25 -8.29,24.61 -3.77,5.61 -9.85,10.37 -16.91,10.28 -11.33,0.18 -22.67,-0.1 -34.01,0.1 -0.23,-30.87 -0.03,-61.76 -0.1,-92.64 26.74,-0.01 53.48,0.02 80.23,-0.01 7.3,0.1 14.97,-0.86 21.84,2.35 21.14,9.15 36.17,31.01 37.27,54.03 13.6,0.02 27.19,-0.05 40.78,0.03 0.18,-37.7 -0.01,-75.4 0.12,-113.11 -96.42,-0.13 -192.85,-0.01 -289.27,-0.06 0.03,19.01 -0.1,38 0.07,56.99 6.4,0.76 13.23,1.41 18.58,5.38 5.26,3.93 9.36,10.22 8.95,17.02zm-157 -70.18c-78.58,62.85 -167.9,111.37 -261.29,148.3 64.06,23.14 125.75,53.09 182.9,90.2 51.51,33.33 99.24,72.46 142.27,116.19 88.33,89.95 155.72,198.9 205.01,314.56 1.53,-3.6 3.03,-7.22 4.48,-10.84 46.7,-115.93 116.63,-222.97 207.19,-309.38 91.59,-88.18 202.69,-154.59 320.8,-200.67 -55.46,-20.19 -109.32,-44.91 -160.06,-75.12 -56.33,-33.38 -108.86,-73.2 -155.98,-118.68 -94.51,-90.67 -165.89,-203.42 -216.56,-323.71 -24.29,61.7 -54.56,121.14 -91.42,176.32 -48.56,73.01 -108.67,138.29 -177.34,192.83zm-146.95 148.13c69.44,-36.05 135.76,-78.58 195.32,-129.45 59.97,-50.97 113.11,-110.06 156.63,-175.66 24.15,-36.12 45.23,-74.26 63.63,-113.62 30.43,58.9 65.07,115.79 105.95,168.07 70.67,91.46 159.65,168.97 261.11,224.56 16.85,9.42 34.21,17.86 51.53,26.38 -108.09,55.1 -208.71,127.07 -289.12,218.44 -52.27,59.06 -95.65,125.9 -128.8,197.44 -27.99,-54.31 -59.74,-106.81 -96.65,-155.56 -38.53,-51.28 -82.52,-98.51 -131.41,-140.03 -56.91,-48.45 -120.53,-88.9 -188.19,-120.57z"/>
  </g>
 </g>
</svg>
