<?xml version="1.0" encoding="UTF-8"?>
<!DOCTYPE svg PUBLIC "-//W3C//DTD SVG 1.1//EN" "http://www.w3.org/Graphics/SVG/1.1/DTD/svg11.dtd">
<!-- Creator: CorelDRAW -->
<svg xmlns="http://www.w3.org/2000/svg" xml:space="preserve" width="2000px" height="1600px" version="1.1" style="shape-rendering:geometricPrecision; text-rendering:geometricPrecision; image-rendering:optimizeQuality; fill-rule:evenodd; clip-rule:evenodd"
viewBox="0 0 2000 1600"
 xmlns:xlink="http://www.w3.org/1999/xlink">
 <defs>
  <style type="text/css">
   <![CDATA[
    .fil1 {fill:#001F5B;fill-rule:nonzero}
    .fil3 {fill:#8D7349;fill-rule:nonzero}
    .fil0 {fill:#A3A9AC;fill-rule:nonzero}
    .fil2 {fill:#FEFEFE;fill-rule:nonzero}
   ]]>
  </style>
 </defs>
 <g id="Capa_x0020_1">
  <metadata id="CorelCorpID_0Corel-Layer"/>
  <g id="Georgia_x0020_Southern_x0020_Eagles.cdr">
   <path class="fil0" d="M109.67 270.37l865.68 0c36.8,0.94 73.64,0.16 110.47,0.41 28.52,0.28 57.1,-0.77 85.61,0.98 75.98,3.72 152,10.01 226.95,23.38 38.45,7 76.7,15.91 113.52,29.2 26.71,9.79 52.91,21.84 75.76,38.98 18.96,14.26 35.59,32.67 44.12,55.1 5.56,13.8 7.44,28.82 6.74,43.63 37.77,2 75.67,5.83 112.27,15.72 27.53,7.47 54.33,18.82 77.38,35.82 22.43,16.46 40.87,38.03 54.65,62.13 10.72,18.41 15.38,39.62 17.18,60.65l0 32.52c-5.28,47.95 -19.2,94.44 -36.55,139.29 -18.67,48.58 -40.76,95.74 -62.65,142.94 -3.98,8.89 -6.66,18.32 -10.6,27.25 -33.03,78.34 -66.14,156.65 -99.19,235 -9.41,21.79 -20.65,43.3 -37.13,60.63 -12.7,13.44 -29.16,23.37 -47.16,27.79 -23.47,5.84 -47.86,4.77 -71.85,4.87 -366.27,0 -732.54,0 -1098.84,0 -17.81,-0.36 -36.08,1.64 -53.36,-3.88 -19.37,-5.5 -36.29,-19.32 -44.8,-37.66 -9.51,-20.01 -9.17,-44.19 0.23,-64.16 20.47,-42.23 41.38,-84.26 61.64,-126.59 -55.51,28.27 -107.21,63.76 -155.26,103.32 -53.68,44.93 -103.39,95.13 -144.48,151.94l0 -10.78c2.43,-7.92 2.98,-16.24 4.34,-24.36 8.74,-54.23 22.15,-107.64 39.2,-159.83 33.69,-101.98 82.6,-199.63 149.57,-283.9 3.64,-4.47 7.36,-8.88 10.6,-13.66 -26.37,10.2 -51.88,22.52 -78.16,32.96 14.39,-47.26 33.89,-92.86 55.91,-137.02 27.67,-54.6 60.53,-106.85 100.66,-153.19 35.26,-40.64 76.58,-76.71 124.25,-102.08 7.54,-4.22 15.57,-7.46 23.09,-11.68 -12.79,-8.93 -26.05,-17.14 -39.39,-25.23 -70.05,-41.78 -144.21,-76.22 -219.21,-108.09 -53.11,-22.35 -106.8,-43.4 -161.19,-62.4z"/>
   <path class="fil1" d="M280.87 301.04c4.32,3.43 9.86,4.58 14.81,6.81 60.59,24.75 119.68,53.26 176.44,85.86 41.38,24.09 81.96,50.03 118.78,80.75 -41.07,12.85 -79.34,33.84 -113.07,60.46 -49.73,38.98 -90.57,88.13 -125.35,140.61 -28.44,43.8 -53.68,89.88 -73.03,138.42 33.96,-14.34 67.83,-28.93 102.12,-42.49 17.59,-6.77 35.07,-13.99 53.16,-19.41 -3.33,3.28 -7.47,5.49 -11.25,8.16 -28.06,19.42 -53.5,42.48 -76.31,67.8 -38.1,42.17 -69.5,90 -96.37,139.96 -27.05,50.67 -49.73,103.64 -68.5,157.92 -10.13,29.31 -19.42,58.95 -26.67,89.12 30.31,-35.16 64.56,-66.84 101.16,-95.35 65.38,-50.88 138.29,-92.23 215.84,-121.4 -35.28,72.63 -70.92,145.1 -106.21,217.73 -6.53,14.04 -4.7,32.06 5.98,43.59 9.09,9.98 23.02,13.79 36.12,14.09 384.58,-0.01 769.18,-0.01 1153.77,0 17.28,-0.39 35.36,-1.16 51.07,-9.22 13.66,-6.89 23.94,-18.82 31.93,-31.63 12.11,-19.4 19.89,-41.04 28.96,-61.93 29.17,-69.14 58.4,-138.28 87.55,-207.43 5.4,-13.8 11.24,-28.2 10.33,-43.3 -1.4,-17.22 -15.75,-30.38 -31.32,-35.83 -19.23,-7.37 -40.09,-5.03 -60.2,-5.39 -143.9,-0.07 -287.78,0.14 -431.68,-0.1 37.75,-34.94 87.04,-55.22 137.01,-65.21 32.62,-6.84 66.1,-5.3 99.2,-6.65 66.91,-0.89 133.85,-3 200.76,-0.69 24.4,1.43 50.52,3.83 71.06,18.4 19.49,14.31 25.94,39.27 28.73,62.07 14.52,-24.5 27.55,-49.9 39.58,-75.74 18.57,-40.57 34.12,-83.16 39.55,-127.69 3.79,-32.13 1.44,-66 -13.01,-95.4 -10.97,-22.65 -29.04,-41.32 -50.19,-54.72 -25.96,-16.51 -55.7,-26.06 -85.68,-32.18 -37.89,-7.53 -76.65,-9.84 -115.22,-9.52 8.01,-19.42 10.7,-41.98 2.88,-61.9 -8.57,-22.08 -27.14,-38.52 -46.71,-50.93 -34.56,-21.22 -73.74,-33.39 -112.87,-43.06 -76.25,-18.19 -154.53,-26.04 -232.61,-31.25 -30.47,-1.72 -60.93,-3.93 -91.44,-3.57 -213.16,0 -426.3,0 -639.43,0 -66.57,0.15 -133.14,-0.32 -199.67,0.24zm331.14 81.07c2.81,0.19 5.63,0.22 8.45,0.62 97.97,19.47 195.92,39.05 293.77,59.07 23.13,4.42 46.02,10.23 69.26,13.9 110.45,26.06 220.39,54.88 327.93,91.27 1.88,21.19 12.12,41.8 29.11,54.86 16.83,13.42 40.04,18.32 60.85,12.79 12.04,-3.02 22.94,-9.53 32.13,-17.8 9,4.77 17.85,9.83 26.48,15.23 -7.93,9.12 -19.32,14.14 -29.64,19.99 -22.5,11 -45.2,23.48 -70.52,26.33 -26.73,2.89 -53.62,1.02 -80.44,1.16 -34.97,-0.99 -69.96,-0.82 -104.94,-0.96 45.78,20.08 92.05,41.02 131.31,72.55 9.45,7.89 18.74,16.25 25.68,26.5 -55.17,8.33 -108.82,31.51 -149.57,70.13 -12.74,12.02 -24.33,25.41 -33.41,40.43 -145.53,0.12 -291.05,0.01 -436.58,0.05 -41.5,-0.27 -83.06,3.75 -123.57,12.79 -56.7,12.51 -111.32,33.87 -162.2,61.78 -40.7,22.47 -79.32,48.86 -114.28,79.54 -1.06,0.65 -3.2,1.96 -4.26,2.63 3.34,-6.24 8.38,-11.25 12.9,-16.61 65.25,-75.81 149.28,-134.58 241.43,-173.06 93.19,-39.22 193.75,-59.28 294.49,-64.73 51.91,-2.61 104.13,-1.91 155.78,4.32 5.18,0.7 9.07,-3.62 13.41,-5.75 42.94,-24.51 91.88,-38.62 141.34,-40.13 -3.24,-2.04 -6.63,-3.84 -10.18,-5.24 -64.39,-26.51 -132.31,-44.39 -201.29,-53.73 -63.67,-8.64 -128.53,-9.15 -192.19,-0.29 -14.51,-3.38 -29.4,-4.49 -44.18,-5.88 -68.93,-5.13 -138.75,0.58 -205.84,17.28 -16.78,3.87 -32.89,10.08 -49.42,14.81 18.62,-20.84 42.24,-36.6 66.62,-49.97 51.87,-27.72 108.98,-43.97 166.23,-56.21 105.4,-21.72 213.21,-29.01 320.61,-30.84 49.17,-0.84 98.31,0.6 147.45,2.29 -90.23,-26.27 -182.9,-45.51 -276.88,-50.82 -50.38,-27.31 -101.66,-53.01 -153.62,-77.2 -35.38,-16.33 -71.16,-31.88 -107.76,-45.29 -4.88,-1.8 -10.01,-3.05 -14.46,-5.81z"/>
   <path class="fil2" d="M763.26 669.75c63.66,-8.86 128.52,-8.35 192.19,0.29 68.98,9.34 136.9,27.22 201.29,53.73 3.55,1.4 6.94,3.2 10.18,5.24 -49.46,1.51 -98.4,15.62 -141.34,40.13 -4.34,2.13 -8.23,6.45 -13.41,5.75 -51.65,-6.23 -103.87,-6.93 -155.78,-4.32 -100.74,5.45 -201.3,25.51 -294.49,64.73 -92.15,38.48 -176.18,97.25 -241.43,173.06 -4.52,5.36 -9.56,10.37 -12.9,16.61 -2.27,3.42 -5.56,5.98 -8.53,8.76 45.04,-89.8 104.56,-173.63 181.96,-238.41 48.74,-40.89 104.38,-73.63 164.13,-95.62 38.15,-14.18 77.89,-23.85 118.13,-29.95zm-197.66 277.13c10.04,-17.54 31.58,-23.4 50.4,-24.98 37.78,-0.24 75.58,-0.05 113.38,-0.08 -5.36,9.89 -10.11,20.11 -15.53,29.98 -16.44,0.02 -32.9,-0.02 -49.35,0 1.66,-3.43 3.32,-6.84 5.02,-10.25 -15.38,0.07 -30.75,-0.33 -46.11,0.21 -13.5,27.27 -28.03,54.01 -41.49,81.3 -3.09,5.42 -2.76,13.8 3.77,16.44 9.03,3.48 19.01,1.22 28.46,1.91 5.26,-9.6 10.25,-19.36 15.07,-29.2 -5.34,0.09 -10.67,0.09 -15.98,-0.25 3.62,-6.42 6.89,-12.98 10.1,-19.6 22.88,-0.63 45.78,-0.1 68.69,-0.27 -11.45,23.1 -23.69,45.8 -35.2,68.88 -37.04,0.25 -74.09,0.08 -111.13,0.08 -8.95,-0.46 -19.17,-0.32 -26.33,-6.56 -5.71,-6.36 -1.91,-15.71 1.23,-22.39 14.47,-28.68 28.58,-57.6 45,-85.22zm959.26 147.31c12.02,-0.48 24.02,0.31 36.05,0.36 4.07,25.94 7.51,51.99 11.83,77.9 11.47,-25.92 22.73,-51.95 34.15,-77.92 13.44,-0.02 26.88,-0.03 40.32,0.02 -12,28.34 -24.15,56.62 -36.22,84.94 -7.32,17.56 -14.54,37.03 -31.36,47.78 -9.13,6.36 -20.65,5.96 -31.26,5.62 -3.02,-25.46 -6.36,-50.88 -9.38,-76.33 -0.26,-1.84 -0.79,-3.59 -1.34,-5.34 -12.7,27.31 -25.71,54.5 -38.59,81.74 -14.12,-0.05 -28.25,0 -42.36,-0.03 22.8,-46.2 45.42,-92.51 68.16,-138.74zm-151.92 -2.06c28.82,-0.43 57.65,-0.03 86.49,-0.2 7.88,0.1 16.71,0.54 23.11,5.74 4.35,3.91 1.23,10.15 -0.98,14.35 -6.15,10.95 -11.52,22.4 -18.19,33.03 -12.72,6.04 -26.24,10.31 -38.86,16.56 6.98,5.62 14.21,10.94 21.43,16.25 -9.38,18.54 -19.2,36.86 -29.06,55.15 -14.31,-0.15 -28.63,-0.01 -42.93,-0.08 7.57,-14.57 15.28,-29.06 22.91,-43.61 -7.17,-6.12 -14.04,-12.57 -21.4,-18.47 -11.09,20.69 -21.82,41.57 -33.07,62.2 -14.74,-0.21 -29.48,-0.12 -44.21,-0.05 24.36,-47.23 50.2,-93.74 74.76,-140.87zm10.22 64.56l0 0c13.36,-5.16 26.45,-11.02 39.82,-16.16 3.19,-5.97 7,-11.68 9.24,-18.09 1.41,-4.23 -1.44,-8.69 -5.59,-9.79 -6.24,-1.46 -12.7,-0.84 -19.04,-1.13 -8.49,14.86 -16.34,30.09 -24.43,45.17zm-153.12 -32.26c10.03,-17.74 28.41,-32.01 49.42,-32.42 21.07,-0.07 42.14,-0.2 63.21,0.09 -3.64,6.46 -7.08,13.04 -10.63,19.57 -11.83,0.14 -23.67,-0.39 -35.47,0.28 -9.25,0.36 -17.86,5.72 -22.49,13.7 -4.15,7.27 -8.02,14.67 -11.88,22.11 14.43,-0.17 28.87,-0.14 43.29,-0.03 -3.48,6.54 -7.05,13.04 -10.5,19.63 -14.53,0.12 -29.09,-0.19 -43.61,0.15 -7.81,14.88 -15.87,29.62 -23.81,44.42 12.17,0.1 24.35,-0.12 36.52,0.08 3.44,0.26 7.59,0.38 9.94,3.34 1.37,6.35 -3.28,11.73 -5.25,17.4 -32.16,0.4 -64.33,0.12 -96.49,0.16 19.16,-36.21 38.5,-72.33 57.75,-108.48zm-138.22 -32.38c14.65,-0.23 29.31,-0.07 43.99,-0.09 -9.69,19.22 -20.35,37.92 -30.38,56.95 10.46,-0.04 20.93,0.26 31.4,-0.17 9.72,-19.08 20.32,-37.72 30.24,-56.69 14.7,-0.23 29.4,-0.04 44.1,-0.11 -24.96,47.11 -50.13,94.12 -75.33,141.09 -14.64,-0.22 -29.26,0 -43.9,-0.12 10.64,-20.49 21.58,-40.8 32.28,-61.25 -10.37,0.43 -21.04,-0.88 -31.2,0.6 -11.2,20.07 -21.23,40.82 -32.54,60.82 -14.57,-0.38 -29.13,0.05 -43.68,-0.22 24.87,-47.01 50.25,-93.74 75.02,-140.81zm-155.11 20.86c8.26,-12.53 22.51,-20.76 37.61,-20.9 24.53,-0.15 49.04,-0.02 73.58,-0.07 5.5,0.19 11.98,0.12 16.18,4.31 3.24,5.16 0.07,11.19 -1.11,16.51 -13.2,0.42 -26.42,0.06 -39.61,0.18 -21.01,39.96 -42.23,79.8 -63.06,119.85 -14.97,0.29 -29.95,0.15 -44.92,0.08 17.95,-33.94 35.81,-67.9 53.71,-101.86 2.9,-6.05 6.93,-11.62 8.8,-18.12 -13.74,0.09 -27.45,0.05 -41.18,0.02zm-126.69 -20.98c14.88,0.05 29.76,0.01 44.64,0.01 -18.53,34.46 -37.56,68.64 -56.31,102.98 -2.74,4.99 -7.03,12.76 -1.41,17.33 6.59,4.08 14.88,1.67 22.2,2.21 22.25,-40.85 44.87,-81.48 66.96,-122.41 14.93,-0.12 29.9,-0.29 44.83,0.1 -19.9,36.32 -39.8,72.67 -59.74,108.99 -3.5,6.42 -6.67,13.39 -12.6,17.97 -10.82,8.64 -25.03,12.09 -38.68,12.15 -20.5,-0.12 -41.02,0.07 -61.52,-0.1 -5.9,-0.6 -13.36,-0.67 -17.18,-5.95 -1.88,-5.31 1.54,-10.42 3.93,-14.91 21.7,-39.43 43.27,-78.91 64.88,-118.37zm-128.57 0.24c19.32,-0.54 38.66,-0.05 58,-0.24 8.55,0.1 17.81,0.34 25.28,5.04 3.88,2.21 2.76,7.26 0.93,10.49 -18.59,33.97 -37.22,67.94 -55.82,101.9 -8.38,14.86 -26.4,20.7 -42.48,21.8 -21.74,0.16 -43.48,0.05 -65.2,0.04 -6.08,-0.45 -13.26,-0.71 -17.63,-5.54 -1.86,-4.2 0.13,-8.78 2.17,-12.5 16.84,-30.62 33.59,-61.29 50.4,-91.9 2.87,-5.06 5.16,-10.63 9.5,-14.64 9.38,-8.85 22.06,-13.72 34.85,-14.45zm7.03 16.62l0 0c-15.84,29.83 -32.49,59.25 -48.46,89.01 -3.11,5.04 -2.85,13.06 3.32,15.58 6,2.13 12.57,0.79 18.81,1.15 16.04,-28.93 31.83,-58.03 47.76,-87.03 2.76,-4.82 4.39,-12.17 -0.65,-16.12 -5.97,-4.37 -13.91,-2.36 -20.78,-2.59zm-164.67 -16.73c30.85,-0.27 61.71,-0.01 92.55,-0.12 -5.21,10.07 -10.42,20.13 -15.94,30.04 -14.23,-0.07 -28.46,-0.05 -42.69,0 2.09,-4.32 4.32,-8.57 6.65,-12.76 -10.99,-0.19 -21.97,-0.32 -32.95,0.07 -4.01,8.49 -9.65,16.22 -12.6,25.17 -1.71,4.42 0.74,9.5 5.01,11.33 14.64,5.86 31.42,1.49 45.94,7.61 7.36,2.85 8.08,12.16 4.65,18.33 -7.15,13.9 -14.54,27.7 -22.03,41.45 -8.54,12.84 -25.13,16.28 -39.46,17.86 -21.6,0.46 -43.22,0 -64.82,0.22 -6.46,-0.05 -13.56,-0.2 -19.01,-4.13 -3.89,-2.72 -3.67,-8.35 -1.65,-12.15 4,-7.75 8.49,-15.26 12.43,-23.02 13.54,0.18 27.31,-1.26 40.72,0.92 5.29,1.51 1.42,6.79 0.51,10.12 -1.9,4.02 -0.24,9.3 4.3,10.5 6.55,1.77 13.46,0.83 20.16,0.95 4.87,-9.5 10.7,-18.54 15.04,-28.29 2.31,-4.95 -0.67,-10.9 -5.78,-12.46 -8.31,-2.59 -17.21,-1.78 -25.8,-2.45 -8.76,-0.38 -19.06,-1 -25.01,-8.37 -5.56,-6.74 -1.53,-15.87 1.56,-22.77 6.53,-11.72 12.65,-23.75 20.38,-34.74 9.39,-10.53 24.55,-12.41 37.84,-13.31zm1081.25 -170.26c23.45,0 46.92,-0.02 70.39,0 8.93,0.27 18.15,0.84 26.5,4.34 4.76,2.05 9.41,5.86 10.18,11.29 1.25,8.82 -2.95,17.03 -6.51,24.79 -14.64,32.94 -29.15,65.94 -43.84,98.85 -17.89,0 -35.77,0.05 -53.67,-0.02 3.94,-9.05 8.28,-17.91 12.14,-27 -14.92,-0.02 -29.82,0.17 -44.71,-0.1 -6.31,8.86 -11.71,18.34 -17.99,27.21 -18.49,-0.28 -36.99,0.18 -55.47,-0.24 34.3,-46.39 68.61,-92.78 102.98,-139.12zm30.34 25.06l0 0c-14.28,22.43 -28.3,45.02 -42.46,67.51 12.49,-0.07 24.99,0.14 37.49,-0.12 7.28,-16.63 15.15,-33 22.71,-49.51 1.63,-4.21 3.83,-9.15 1.48,-13.51 -2.16,-4.38 -7.49,-5.62 -11.93,-6.03 -2.44,-0.07 -5.97,-1.16 -7.29,1.66zm-146.57 -25.08c18.2,0.07 36.43,-0.07 54.65,0.07 -24.7,46.39 -49.39,92.76 -74.06,139.15 -18.22,0.1 -36.46,0.21 -54.68,-0.05 24.7,-46.37 49.32,-92.81 74.09,-139.17zm-186.22 11.21c10.9,-8.48 25.09,-10.98 38.58,-11.19 37.32,-0.02 74.64,0 111.98,0 -4.75,10.03 -10.39,19.59 -14.83,29.76 -16.66,0.53 -33.34,0.14 -50,0.21 1.68,-3.41 3.36,-6.83 5.04,-10.24 -15.24,-0.07 -30.5,0.02 -45.74,-0.05 -12.29,23.91 -24.6,47.81 -36.91,71.73 -2.88,5.77 -6.84,11.52 -6.86,18.22 0.28,5.3 5.13,8.85 10.07,9.43 8.17,1.01 16.44,0.44 24.67,0.36 4.54,-9.83 9.78,-19.29 14.64,-28.96 -5.3,-0.05 -10.58,-0.05 -15.86,-0.01 3.22,-6.88 6.74,-13.62 10.4,-20.25 22.72,0.22 45.45,-0.02 68.18,0.12 -11.64,23.06 -23.55,46 -35.43,68.95 -37.12,0 -74.21,0.1 -111.31,-0.05 -9.19,-0.59 -20.33,-0.23 -26.97,-7.75 -4.09,-6.43 -0.8,-14.44 2.09,-20.66 10.91,-21.07 21.93,-42.08 32.88,-63.14 6.95,-13.02 13.2,-27.37 25.38,-36.48zm-182.32 -11c36.46,-0.45 72.93,-0.05 109.39,-0.21 9.05,0.31 18.75,1.07 26.62,6.02 4.37,2.42 4.19,8.32 1.87,12.14 -7.15,13.37 -14.48,26.65 -21.79,39.96 -15.61,5.42 -31.2,10.95 -46.81,16.35 9.42,5.98 19.33,11.16 28.98,16.8 -8.31,15.88 -16.81,31.66 -25.23,47.49l-1.06 0.6c-17.95,-0.14 -35.9,0.02 -53.83,-0.09 6.58,-12.53 13.34,-24.98 19.83,-37.54 -8.96,-5.74 -17.77,-11.73 -26.74,-17.44 -9.99,18.36 -19.25,37.17 -29.78,55.22 -18.67,-0.5 -37.35,-0.03 -56.02,-0.25 24.76,-46.39 50.02,-92.54 74.57,-139.05zm43 24.84l0 0c-7.48,14.78 -15.9,29.06 -23.25,43.89 14.59,-5.11 29.28,-10.02 43.75,-15.43 3.72,-5.03 6.43,-10.8 9.02,-16.5 2.05,-4.64 -1.27,-10.04 -6.06,-11.02 -7.71,-1.61 -15.66,-1.16 -23.46,-0.94zm-201.84 -23.9c19.62,-2.83 39.53,-1.06 59.29,-1.56 16.25,0.48 33.38,-1.83 48.83,4.53 4.28,1.32 7.79,5.98 4.86,10.3 -17.91,33.96 -36.05,67.8 -54.05,101.73 -4.95,10.08 -15.39,15.9 -25.76,19.01 -18.21,5.78 -37.55,3.79 -56.34,4.15 -15.47,-0.24 -31.01,0.53 -46.47,-0.52 -6.07,-0.75 -13.34,-1.47 -17.33,-6.7 -3.22,-5.4 -0.31,-11.83 2.31,-16.85 16.97,-31.66 33.74,-63.45 50.75,-95.09 7.51,-11.16 21.15,-16.5 33.91,-19zm-23.4 101.28l0 0c-3.23,5.16 -5.4,13.32 0.7,17.32 7.13,4.32 15.96,1.68 23.84,2.52 15.57,-28.61 30.66,-57.48 46.02,-86.2 2.58,-4.68 4.42,-11.23 0.13,-15.51 -6.55,-6.36 -16.47,-2.9 -24.58,-4 -15.98,28.27 -30.6,57.33 -46.11,85.87zm-174.37 -80c12.74,-14.49 32.03,-22.02 51.11,-22.36 28.2,-0.12 56.38,-0.03 84.56,-0.03 -3.39,6.58 -6.97,13.06 -10.37,19.64 -15.5,0.19 -31.01,-0.13 -46.52,0.14 -10.32,0.17 -21.36,4.05 -27.11,13.13 -4.37,7.24 -8.07,14.86 -11.96,22.36 19.18,0.07 38.38,-0.16 57.56,0.12 -3.6,6.58 -7.16,13.18 -10.5,19.92 -19.27,0.22 -38.54,0.08 -57.81,0.07 -8.11,14.57 -15.55,29.52 -23.69,44.07 17.57,0.31 35.16,-0.07 52.73,0.17 4.01,-0.02 8.38,1.77 10.06,5.66 1.39,5.19 -2.84,9.51 -4.76,13.97 -42.45,0 -84.88,0.05 -127.32,-0.02 16.35,-30.75 32.71,-61.51 49.08,-92.23 4.66,-8.38 8.31,-17.52 14.94,-24.61zm898.9 -339.24c26.64,3.08 54.09,10.37 74.99,27.97 13.68,11.39 22.66,28.12 24.12,45.91 4.06,-11.14 2.74,-23.6 -0.31,-34.83 -5.71,-19.65 -22.05,-34.37 -40.24,-42.62 -28.28,-12.87 -59.98,-15.7 -90.72,-15.58 3.11,3.97 6.36,8.38 6.45,13.66 0.2,6.64 -4.44,12.31 -9.58,15.96 -10.94,7.63 -24.09,10.95 -36.81,14.26 14.95,1.77 30.43,1.39 44.98,-2.82 11.68,-3.01 22.27,-10.63 27.12,-21.91zm-324.32 -72.26c11.81,2.35 23.52,5.13 35.32,7.46 0.89,5.62 -1.05,12.51 -6.89,14.64 -4.12,1.95 -8.11,-0.64 -11.18,-3.18 3.62,11.94 13.88,22.38 26.93,22.63 14.71,1.08 27.57,-10.85 30.53,-24.78 5.59,1.25 11.18,2.62 16.77,3.9 -3.84,13.07 -12.79,24.86 -25.22,30.79 -15.58,8.08 -35.88,5.8 -49.23,-5.64 -13.34,-10.9 -19.27,-28.95 -17.03,-45.82zm-627.68 -10.87c58.21,-12.02 118.03,-14.33 177.27,-11.43 93.98,5.31 186.65,24.55 276.88,50.82 -49.14,-1.69 -98.28,-3.13 -147.45,-2.29 -107.4,1.83 -215.21,9.12 -320.61,30.84 -57.25,12.24 -114.36,28.49 -166.23,56.21 -24.38,13.37 -48,29.13 -66.62,49.97l-2.04 1.89c13.2,-37.89 39.86,-69.67 70.13,-95.32 50.92,-42.43 114.23,-67.56 178.67,-80.69zm-96.23 -145.92c170.71,-5.83 341.58,-9.26 512.3,-3.03 90.27,3.85 181.01,9.32 269.56,28.4 32.79,7.39 66.08,15.5 95.69,31.94 13.93,8 28.78,20.21 29.17,37.68 -0.36,16.51 -11.7,29.84 -22.2,41.5 -74.28,-20.76 -150.44,-34.28 -227.17,-41.88 -95.76,-9.6 -192.04,-12.94 -288.21,-14.83 -23.24,-3.67 -46.13,-9.48 -69.26,-13.9 -97.85,-20.02 -195.8,-39.6 -293.77,-59.07 -2.82,-0.4 -5.64,-0.43 -8.45,-0.62 -6.28,-1.56 -12.45,-3.55 -18.78,-4.89 6.98,-1.25 14.08,-0.92 21.12,-1.3z"/>
   <path class="fil3" d="M1515.41 602.96c12.48,-21.48 31.22,-38.38 50.06,-54.22 39.91,2.23 79.76,5.24 119.67,7.59 32.42,1.68 66.91,8.11 92.23,29.88 19.84,16.7 29.66,42.64 30.74,68.09 1.75,40.12 -10.73,79.38 -27.38,115.41 -4.23,-3.86 -6.75,-9.12 -10.64,-13.27 -15.54,-17.64 -36.59,-29.5 -58.39,-37.66 -23.62,-8.56 -48.48,-14.23 -73.65,-15 -42.51,-1.87 -85.18,-2.4 -127.66,0.44 -25.46,2.16 -51.43,4.51 -75.45,13.8 4.58,6.9 9.43,13.62 14.04,20.49 75.47,-9.88 153.16,-6.34 226.58,14.37 4.3,1.55 9.31,1.93 12.99,4.9 -39.34,-2.88 -78.82,-2.09 -118.23,-2.26 -54.31,0.3 -108.6,1.16 -162.89,2.09 -14.06,-15.6 -25.73,-33.26 -36.24,-51.38 22.16,-15.6 48.55,-23.49 74.35,-30.77 32.14,-8.88 65.11,-14.16 97.85,-20.06 -11.9,-2.76 -24.96,-7.16 -31.72,-18.12 -6.25,-10.9 -2.02,-24.17 3.74,-34.32zm-591.02 518.05c-15.35,28.02 -30.71,56.03 -46.07,84.04 -4.18,7.63 -7.66,14.89 -14.69,20.45 -12.32,9.72 -28.21,13.92 -43.73,13.9 -20.53,-0.03 -41.05,0.07 -61.58,-0.1l-0.38 -0.01 -0.38 -0.04c-8.71,-0.88 -17.25,-1.41 -22.94,-9.27l-0.68 -0.95 -0.4 -1.1c-2.9,-8.17 0.67,-14.63 4.46,-21.54 21.64,-39.46 43.27,-78.91 64.89,-118.37l2.32 -4.24 4.84 0.01c14.87,0.05 29.74,0.02 44.61,0.02l13.61 0 -6.44 11.99c-18.54,34.47 -37.57,68.68 -56.34,103.02 -0.66,1.21 -2.83,5.11 -3.14,7.06 0.27,0.1 0.53,0.18 0.81,0.25 2.29,0.59 5.18,0.43 7.53,0.32 1.22,-0.05 2.43,-0.12 3.64,-0.16 21.49,-39.4 43.3,-78.62 64.61,-118.11l2.29 -4.23 4.81 -0.04c15.03,-0.12 30.07,-0.29 45.11,0.11l13.32 0.35 -6.4 11.69c-1.13,2.05 -2.25,4.1 -3.38,6.15 9.98,-11.22 24.39,-18.22 39.57,-18.33 24.54,-0.18 49.08,-0.02 73.62,-0.07l0.15 0 0.14 0c7.98,0.28 15.58,0.63 21.65,6.67l0.66 0.66 0.49 0.78c1.4,2.24 2.25,4.71 2.54,7.34 0.65,5.8 -1.24,9.54 -2.47,14.66 4.54,-8.54 9.07,-17.1 13.58,-25.66l2.25 -4.27 4.82 -0.08c14.7,-0.22 29.41,-0.07 44.11,-0.08l13.22 -0.02 -5.95 11.81c-7.69,15.26 -15.99,30.18 -24.1,45.21 4.27,0.02 8.55,0.02 12.82,-0.07 9.12,-17.62 18.88,-34.9 28.08,-52.48l2.24 -4.29 4.84 -0.08c14.73,-0.22 29.45,-0.03 44.18,-0.1l13.59 -0.07 -6.37 12.01c-24.96,47.12 -50.13,94.13 -75.34,141.12l-2.34 4.37 -4.95 -0.08c-14.62,-0.22 -29.23,0 -43.85,-0.12l-13.27 -0.1 6.12 -11.78c8.59,-16.54 17.38,-32.98 26.08,-49.46 -4.27,-0.1 -8.54,-0.15 -12.7,0.18 -10.4,18.95 -19.9,38.38 -30.54,57.21l-2.41 4.25 -4.88 -0.13c-14.54,-0.37 -29.08,0.06 -43.62,-0.22l-13.23 -0.25 6.19 -11.69c19.14,-36.17 38.58,-72.18 57.8,-108.3l-4.18 0.13c-11.65,0.38 -23.29,0.15 -34.94,0.17 -20.26,38.5 -40.7,76.9 -60.78,115.49l-2.23 4.29 -4.82 0.09c-15.04,0.3 -30.08,0.16 -45.11,0.09l-13.44 -0.06 6.28 -11.88c17.92,-33.88 35.76,-67.81 53.64,-101.72 0.99,-2.05 2.19,-4.15 3.38,-6.27 -9.5,0.01 -19.01,-0.01 -28.52,-0.04l-12.3 -0.03zm-267.9 -171.35c-9.32,-0.05 -18.65,-0.13 -27.97,0.09 -12.87,25.75 -26.57,51.09 -39.3,76.91l-0.11 0.22 -0.12 0.21c-0.47,0.83 -1.48,4.39 -0.32,4.84 1.24,0.49 2.53,0.82 3.85,1.04 5.26,0.88 11.15,0.31 16.84,0.21 2.3,-4.28 4.55,-8.6 6.76,-12.93 -1.14,-0.05 -2.27,-0.1 -3.4,-0.18l-12.93 -0.83 6.36 -11.28c3.53,-6.26 6.74,-12.69 9.87,-19.15l2.15 -4.44 4.94 -0.14c22.95,-0.64 45.9,-0.11 68.86,-0.28l13.22 -0.1 -5.87 11.85c-11.45,23.11 -23.7,45.81 -35.21,68.9l-2.23 4.47 -4.99 0.03c-37.06,0.26 -74.13,0.09 -111.19,0.09l-0.21 0 -0.21 -0.01c-11.22,-0.58 -22.24,-0.7 -31.26,-8.56l-0.37 -0.33 -0.34 -0.37c-8.38,-9.34 -4.78,-21.26 -0.07,-31.28l0.05 -0.1 0.05 -0.11c14.54,-28.83 28.9,-57.79 45.24,-85.66 11.68,-19.93 35.03,-27.15 56.74,-28.97l0.31 -0.03 0.32 0c37.81,-0.24 75.62,-0.05 113.42,-0.09l13.69 -0.01 -6.53 12.03c-5.37,9.9 -10.12,20.13 -15.55,30.01l-2.31 4.22 -4.81 0.01c-16.45,0.01 -32.9,-0.02 -49.35,0l-13.01 0.01 4.99 -10.29zm919.98 194.1c7.67,-17.5 15.29,-35.01 22.97,-52.5l2.14 -4.86 5.3 0c13.46,-0.02 26.91,-0.04 40.36,0.01l12.23 0.05 -4.77 11.26c-12,28.34 -24.24,56.59 -36.22,84.94 -8.2,19.41 -15.78,39.45 -34.33,51.38 -10.89,7.5 -23.41,7.39 -36.05,6.98l-6.99 -0.22 -0.82 -6.95c-2.16,-18.24 -4.49,-36.46 -6.75,-54.68 -9,19.1 -18.1,38.17 -27.12,57.27l-2.21 4.67 -5.18 -0.01c-14.11,-0.06 -28.23,0 -42.35,-0.04l-13.05 -0.03 5.78 -11.7c22.8,-46.21 45.41,-92.5 68.15,-138.73l2.14 -4.35 4.84 -0.19c12.15,-0.48 24.26,0.3 36.41,0.35l6.93 0.03 1.07 6.85c2.63,16.81 5,33.65 7.52,50.47zm-189.81 47.47c-2.91,-2.56 -5.81,-5.15 -8.74,-7.7 -9.45,17.81 -18.73,35.71 -28.38,53.41l-2.35 4.31 -4.91 -0.07c-14.69,-0.21 -29.37,-0.12 -44.06,-0.05l-13.42 0.06 6.15 -11.92c24.38,-47.26 50.2,-93.75 74.78,-140.9l2.24 -4.3 4.85 -0.07c28.85,-0.43 57.71,-0.04 86.56,-0.21l0.16 0c9.98,0.13 20.04,1 28.13,7.57l0.15 0.12 0.15 0.14c7.76,6.96 4.94,16.31 0.79,24.19l-0.05 0.1 -0.06 0.09c-6.22,11.08 -11.62,22.59 -18.39,33.38l-1.26 2 -2.14 1.02c-8.7,4.13 -17.77,7.42 -26.66,11.09 3.51,2.63 7.03,5.23 10.56,7.82l5.54 4.09 -3.1 6.14c-9.42,18.6 -19.27,36.98 -29.16,55.33l-2.33 4.33 -4.92 -0.05c-14.29,-0.16 -28.58,-0.02 -42.87,-0.09l-13.32 -0.06 6.13 -11.82c6.58,-12.68 13.28,-25.3 19.93,-37.95zm-110.96 -51.71c9.95,-0.04 19.9,0 29.84,0.07l13.43 0.1 -6.3 11.85c-3.47,6.54 -7.04,13.03 -10.47,19.59l-2.26 4.32 -4.88 0.04c-12.91,0.11 -25.81,-0.13 -38.72,0.06 -5,9.45 -10.08,18.85 -15.16,28.26 7.68,-0.02 15.36,-0.06 23.04,0.07l0.24 0 0.23 0.02c6.09,0.45 11.61,1.23 15.72,6.4l1.17 1.49 0.4 1.85c0.53,2.46 0.56,4.96 0.15,7.44 -0.58,3.44 -1.94,6.48 -3.48,9.58 -0.76,1.53 -1.62,3.15 -2.18,4.76l-1.88 5.4 -5.71 0.07c-32.19,0.39 -64.39,0.12 -96.59,0.15l-13.52 0.02 6.33 -11.96c19.17,-36.21 38.5,-72.33 57.76,-108.49l0.05 -0.09 0.05 -0.09c11.47,-20.29 32.43,-36.28 56.41,-36.55 21.14,-0.24 42.28,-0.21 63.41,0.08l13.69 0.19 -6.71 11.94c-3.62,6.43 -7.05,12.98 -10.57,19.47l-2.28 4.19 -4.78 0.06c-11.69,0.13 -23.42,-0.4 -35.1,0.26l-0.14 0.01c-6.45,0.25 -12.55,4.05 -15.76,9.63 -1.87,3.24 -3.67,6.51 -5.43,9.81zm-506.77 -49.52c7.9,4.64 7.82,14.15 3.86,21.37 -18.64,33.96 -37.09,68.02 -55.83,101.92 -9.7,17.55 -30.08,24.69 -49.05,25.99l-0.24 0.01 -0.25 0.01c-21.76,0.15 -43.51,0.05 -65.26,0.03l-0.3 0 -0.29 -0.02c-8.56,-0.63 -16.9,-1.36 -23.08,-8.2l-0.88 -0.97 -0.53 -1.2c-3,-6.8 -0.89,-13.54 2.49,-19.7 16.84,-30.62 33.53,-61.32 50.41,-91.91 3.35,-6.08 5.87,-11.79 11.06,-16.65 10.79,-10.12 25.24,-15.79 39.94,-16.64l0.12 0 0.13 -0.01c19.37,-0.53 38.76,-0.05 58.14,-0.24l0.17 0c10.26,0.13 20.41,0.62 29.39,6.21zm-241.92 48.3c1.79,0.7 3.64,1.22 5.52,1.61 4.57,0.95 9.34,1.18 13.99,1.43 9.09,0.47 17.81,0.96 26.32,4.52 11.97,4.72 14.48,19.26 8.77,29.69 -7.17,13.94 -14.57,27.76 -22.07,41.52l-0.17 0.31 -0.2 0.3c-10.09,15.18 -28.33,19.57 -45.34,21.45l-0.36 0.04 -0.36 0c-21.63,0.47 -43.27,0 -64.91,0.23l-0.15 0c-8.39,-0.07 -16.56,-0.59 -23.66,-5.64 -7.27,-5.18 -8.04,-15.06 -4.14,-22.54 4.01,-7.71 8.45,-15.2 12.39,-22.95l2.29 -4.52 5.07 0.07c14.06,0.2 27.9,-1.24 41.91,1.03l0.47 0.08 0.45 0.13c3.61,1.02 6.58,3.35 7.92,6.92 1.39,3.67 0.59,7.23 -0.81,10.72 -0.3,0.75 -0.76,1.69 -0.98,2.44l-0.18 0.69 -0.05 0.1c3.64,0.72 7.9,0.58 11.92,0.46 4.25,-7.81 8.93,-15.43 12.53,-23.53l0.07 -0.14c0.19,-0.4 -0.41,-1.13 -0.81,-1.25 -7.22,-2.23 -16.3,-1.53 -23.89,-2.1 -11.4,-0.5 -23.07,-1.84 -30.83,-11.35 -7.95,-9.75 -4.09,-21.1 0.44,-31.23l0.15 -0.32 0.17 -0.31c6.68,-12 12.92,-24.22 20.84,-35.47l0.27 -0.39 0.31 -0.35c11.08,-12.42 27.64,-14.95 43.36,-16l0.24 -0.02 0.23 0c30.87,-0.27 61.74,-0.02 92.6,-0.12l13.43 -0.04 -6.18 11.91c-5.25,10.14 -10.5,20.28 -16.06,30.26l-2.34 4.2 -4.8 -0.03c-14.21,-0.07 -28.41,-0.05 -42.62,0l-13.03 0.05 5.68 -11.73c0.2,-0.41 0.4,-0.83 0.61,-1.24 -4.85,-0.04 -9.7,-0.02 -14.54,0.09 -3.52,6.48 -7.69,12.95 -9.92,19.72l-0.07 0.2 -0.07 0.2c-0.06,0.27 0.33,0.75 0.59,0.9zm1080.71 -96.09c-9.32,0.03 -18.65,0.06 -27.97,-0.06 -5.3,7.82 -10.09,15.99 -15.56,23.7l-2.47 3.5 -4.29 -0.06c-18.51,-0.28 -37.03,0.19 -55.54,-0.24l-15.67 -0.37 9.32 -12.6c34.31,-46.39 68.61,-92.79 102.98,-139.13l2.44 -3.28 4.1 0c23.46,0 46.93,-0.02 70.39,0l0.12 0 0.13 0c10.06,0.31 20.03,1 29.42,4.98 7.49,3.17 13.88,9.28 15.07,17.64 1.53,10.85 -2.88,19.72 -7.15,29.25 -14.72,32.9 -29.14,65.93 -43.83,98.85l-2.15 4.81 -5.28 0c-17.9,0 -35.8,0.06 -53.7,-0.01l-12.37 -0.05 4.94 -11.34c2.28,-5.23 4.69,-10.4 7.07,-15.59zm-57.06 -116.53c-24.7,46.37 -49.39,92.75 -74.06,139.14l-2.27 4.29 -4.86 0.03c-18.28,0.1 -36.57,0.2 -54.85,-0.06l-13.33 -0.19 6.27 -11.76c24.71,-46.39 49.32,-92.83 74.09,-139.18l2.31 -4.32 4.9 0.02c18.23,0.07 36.45,-0.07 54.68,0.07l13.44 0.1 -6.32 11.86zm-170.34 23.96c-9.24,0 -18.48,0.02 -27.73,-0.01 -11.53,22.43 -23.13,44.83 -34.62,67.28 -2,3.91 -5.77,9.71 -5.95,14.22 0.21,0.91 2.19,1.57 2.9,1.65 6.08,0.74 12.32,0.56 18.5,0.4 2.09,-4.31 4.3,-8.56 6.51,-12.81 -0.83,0 -1.66,0.01 -2.49,0.01l-12.89 0.08 5.47 -11.67c3.3,-7.03 6.9,-13.93 10.66,-20.73l2.34 -4.24 4.85 0.05c22.72,0.22 45.44,-0.02 68.15,0.12l13.13 0.08 -5.92 11.72c-11.65,23.09 -23.58,46.04 -35.47,69.02l-2.27 4.39 -4.95 0c-37.12,0 -74.23,0.11 -111.35,-0.05l-0.24 0 -0.24 -0.01c-11.88,-0.76 -23.91,-0.7 -32.55,-10.49l-0.42 -0.48 -0.34 -0.53c-5.88,-9.23 -2.64,-19.4 1.58,-28.46l0.07 -0.16 0.08 -0.15c10.91,-21.09 21.86,-42.16 32.9,-63.18 7.58,-14.43 14.18,-29.06 27.64,-39.16 12.37,-9.6 28.13,-12.8 43.49,-12.86 37.34,-0.17 74.67,0 112.01,0l12.85 0 -5.5 11.61c-4.7,9.94 -10.32,19.46 -14.72,29.54l-2.06 4.71 -5.14 0.16c-16.74,0.54 -33.48,0.14 -50.23,0.21l-13.13 0.05 5.08 -10.31zm-119.85 -28.83c8.24,4.74 9.32,15.42 4.79,23.13 -7.14,13.35 -14.46,26.6 -21.75,39.87l-1.5 2.75 -2.96 1.02c-10.09,3.5 -20.17,7.05 -30.25,10.59 4.63,2.61 9.27,5.18 13.86,7.86l6.7 3.92 -3.6 6.88c-8.32,15.89 -16.83,31.69 -25.26,47.53l-1.11 2.09 -5.02 2.84 -2.17 -0.02c-17.94,-0.13 -35.88,0.02 -53.82,-0.08l-13.37 -0.08 6.22 -11.84c5.43,-10.34 10.97,-20.62 16.4,-30.96 -4.38,-2.86 -8.74,-5.76 -13.12,-8.62 -8.49,15.95 -16.63,32.08 -25.74,47.7l-2.43 4.16 -4.81 -0.13c-18.63,-0.49 -37.27,-0.03 -55.91,-0.25l-13.38 -0.16 6.3 -11.8c24.76,-46.39 50.01,-92.52 74.56,-139.02l2.26 -4.28 4.83 -0.05c36.48,-0.45 72.97,-0.06 109.46,-0.21l0.15 0 0.16 0c10.62,0.37 21.26,1.41 30.51,7.16zm-188.11 -2.56c9.13,3.06 14.56,13.41 9.1,22.07 -17.85,33.83 -35.91,67.53 -53.84,101.32 -6.02,12.14 -18.06,19.17 -30.59,23.07 -19.34,6.01 -38.72,4.13 -58.59,4.51l-0.14 0 -0.14 0c-15.64,-0.24 -31.27,0.53 -46.9,-0.53l-0.23 -0.02 -0.22 -0.03c-8.63,-1.07 -17.11,-2.4 -22.79,-9.83l-0.29 -0.37 -0.23 -0.4c-4.94,-8.27 -2.04,-17.06 2.12,-24.85 16.93,-31.7 33.74,-63.46 50.75,-95.11l0.19 -0.36 0.23 -0.33c8.81,-13.1 24.11,-19.5 39.09,-22.44l0.2 -0.04 0.21 -0.03c20.07,-2.89 40.09,-1.13 60.25,-1.64l0.22 -0.01 0.22 0.01c17.62,0.52 34.47,-1.84 51.38,5.01zm-250.09 40.77c-1.96,3.25 -3.78,6.58 -5.55,9.94 14.78,-0.02 29.57,-0.1 44.35,0.11l13.5 0.2 -6.48 11.84c-3.55,6.49 -7.07,13 -10.36,19.63l-2.21 4.46 -4.98 0.06c-17.7,0.21 -35.4,0.11 -53.1,0.08 -5.05,9.25 -9.89,18.62 -14.86,27.92 13.06,0.03 26.1,-0.13 39.07,0.05 7.31,-0.04 14.56,3.62 17.56,10.56l0.24 0.55 0.15 0.58c0.62,2.29 0.71,4.65 0.31,6.99 -0.54,3.18 -1.88,5.9 -3.47,8.66 -0.67,1.16 -1.46,2.41 -1.99,3.64l-2.12 4.91 -5.35 0c-42.45,0 -84.89,0.06 -127.34,-0.01l-13.51 -0.02 6.34 -11.94c16.36,-30.75 32.71,-61.5 49.09,-92.23l0.07 -0.13c5.09,-9.16 8.76,-18.31 16.03,-26.13 14.26,-16.16 35.68,-24.81 57.05,-25.02 28.21,-0.28 56.43,-0.04 84.64,-0.04l13.35 0 -6.12 11.87c-3.39,6.58 -6.97,13.06 -10.37,19.64l-2.24 4.35 -4.89 0.06c-15.49,0.19 -30.99,-0.13 -46.48,0.13 -7.45,0.13 -16.11,2.68 -20.33,9.29zm578.61 181.68c3.74,-7.02 7.52,-14.03 11.41,-20.98 4.06,-0.01 8.25,-0.05 12,0.74 -1.7,4.66 -4.49,9.15 -6.99,13.55 -5.51,2.16 -10.96,4.42 -16.42,6.69zm-707.44 -23.92c3.37,-0.17 7.01,-0.32 9.27,0.34 0.57,0.16 1.1,0.39 1.59,0.72 0.59,1.18 -0.88,4.61 -1.45,5.61l-0.07 0.13c-15.16,27.62 -30.19,55.3 -45.45,82.86 -3.86,0.13 -8.08,0.28 -10.96,-0.62 -0.51,-0.86 0.1,-2.98 0.57,-3.75l0.13 -0.21 0.11 -0.21c15.24,-28.39 31.09,-56.45 46.26,-84.87zm914.21 -110.54c11.1,-17.69 22.15,-35.41 33.35,-53.03 0.35,0.04 0.7,0.08 1.03,0.1 0.99,0.1 4.86,0.64 5.29,1.52l0.07 0.13 0.07 0.14c0.44,0.82 -1.28,5.13 -1.81,6.46 -6.82,14.89 -13.89,29.68 -20.56,44.64 -5.81,0.07 -11.62,0.06 -17.44,0.04zm-450.89 -29.93c3.88,-7.16 7.82,-14.28 11.57,-21.5 5.61,-0.16 11.37,-0.19 16.77,0.93 0.03,0.01 0.07,0.05 0.11,0.1 -1.94,4.31 -4.01,8.74 -6.63,12.71 -7.24,2.67 -14.52,5.23 -21.82,7.76zm-198.91 59.43c-1.39,0.02 -2.78,0.08 -4.18,0.13 -2.62,0.1 -5.76,0.26 -8.32,-0.35 -0.79,-0.19 -1.54,-0.46 -2.24,-0.86 -0.01,-0.01 -0.02,-0.03 -0.04,-0.04 -0.55,-1.35 1.19,-5.01 1.88,-6.1l0.13 -0.21 0.11 -0.21c14.7,-27.05 28.58,-54.53 43.6,-81.4 1.52,-0.01 3.04,-0.08 4.56,-0.14 2.32,-0.09 5.66,-0.27 7.87,0.48 0.71,0.24 1.29,0.58 1.82,1.1 0.02,0.02 0.05,0.05 0.06,0.07 0.56,1.09 -1.15,4.85 -1.66,5.79 -14.62,27.2 -28.89,54.59 -43.59,81.74zm618.49 -449.06l0 0c-9.72,2.41 -19.17,9.53 -21.59,19.61 -1.02,4.37 2.59,8.93 7.05,9.08 8.25,0.76 16.12,-3.84 21.58,-9.74 3.38,-3.78 6.55,-8.88 5.15,-14.17 -1.63,-4.87 -7.8,-5.92 -12.19,-4.78zm54.08 -0.86l0 0c3.11,3.97 6.36,8.38 6.45,13.66 0.2,6.64 -4.44,12.31 -9.58,15.96 -10.94,7.63 -24.09,10.95 -36.81,14.26 14.95,1.77 30.43,1.39 44.98,-2.82 11.68,-3.01 22.27,-10.63 27.12,-21.91 26.64,3.08 54.09,10.37 74.99,27.97 13.68,11.39 22.66,28.12 24.12,45.91 4.06,-11.14 2.74,-23.6 -0.31,-34.83 -5.71,-19.65 -22.05,-34.37 -40.24,-42.62 -28.28,-12.87 -59.98,-15.7 -90.72,-15.58zm-1064.82 361.06c-16.42,27.62 -30.53,56.54 -45,85.22 -3.14,6.68 -6.94,16.03 -1.23,22.39 7.16,6.24 17.38,6.1 26.33,6.56 37.04,0 74.09,0.17 111.13,-0.08 11.51,-23.08 23.75,-45.78 35.2,-68.88 -22.91,0.17 -45.81,-0.36 -68.69,0.27 -3.21,6.62 -6.48,13.18 -10.1,19.6 5.31,0.34 10.64,0.34 15.98,0.25 -4.82,9.84 -9.81,19.6 -15.07,29.2 -9.45,-0.69 -19.43,1.57 -28.46,-1.91 -6.53,-2.64 -6.86,-11.02 -3.77,-16.44 13.46,-27.29 27.99,-54.03 41.49,-81.3 15.36,-0.54 30.73,-0.14 46.11,-0.21 -1.7,3.41 -3.36,6.82 -5.02,10.25 16.45,-0.02 32.91,0.02 49.35,0 5.42,-9.87 10.17,-20.09 15.53,-29.98 -37.8,0.03 -75.6,-0.16 -113.38,0.08 -18.82,1.58 -40.36,7.44 -50.4,24.98zm959.26 147.31c-22.74,46.23 -45.36,92.54 -68.16,138.74 14.11,0.03 28.24,-0.02 42.36,0.03 12.88,-27.24 25.89,-54.43 38.59,-81.74 0.55,1.75 1.08,3.5 1.34,5.34 3.02,25.45 6.36,50.87 9.38,76.33 10.61,0.34 22.13,0.74 31.26,-5.62 16.82,-10.75 24.04,-30.22 31.36,-47.78 12.07,-28.32 24.22,-56.6 36.22,-84.94 -13.44,-0.05 -26.88,-0.04 -40.32,-0.02 -11.42,25.97 -22.68,52 -34.15,77.92 -4.32,-25.91 -7.76,-51.96 -11.83,-77.9 -12.03,-0.05 -24.03,-0.84 -36.05,-0.36zm-151.92 -2.06c-24.56,47.13 -50.4,93.64 -74.76,140.87 14.73,-0.07 29.47,-0.16 44.21,0.05 11.25,-20.63 21.98,-41.51 33.07,-62.2 7.36,5.9 14.23,12.35 21.4,18.47 -7.63,14.55 -15.34,29.04 -22.91,43.61 14.3,0.07 28.62,-0.07 42.93,0.08 9.86,-18.29 19.68,-36.61 29.06,-55.15 -7.22,-5.31 -14.45,-10.63 -21.43,-16.25 12.62,-6.25 26.14,-10.52 38.86,-16.56 6.67,-10.63 12.04,-22.08 18.19,-33.03 2.21,-4.2 5.33,-10.44 0.98,-14.35 -6.4,-5.2 -15.23,-5.64 -23.11,-5.74 -28.84,0.17 -57.67,-0.23 -86.49,0.2zm10.22 64.56l0 0c13.36,-5.16 26.45,-11.02 39.82,-16.16 3.19,-5.97 7,-11.68 9.24,-18.09 1.41,-4.23 -1.44,-8.69 -5.59,-9.79 -6.24,-1.46 -12.7,-0.84 -19.04,-1.13 -8.49,14.86 -16.34,30.09 -24.43,45.17zm-153.12 -32.26c-19.25,36.15 -38.59,72.27 -57.75,108.48 32.16,-0.04 64.33,0.24 96.49,-0.16 1.97,-5.67 6.62,-11.05 5.25,-17.4 -2.35,-2.96 -6.5,-3.08 -9.94,-3.34 -12.17,-0.2 -24.35,0.02 -36.52,-0.08 7.94,-14.8 16,-29.54 23.81,-44.42 14.52,-0.34 29.08,-0.03 43.61,-0.15 3.45,-6.59 7.02,-13.09 10.5,-19.63 -14.42,-0.11 -28.86,-0.14 -43.29,0.03 3.86,-7.44 7.73,-14.84 11.88,-22.11 4.63,-7.98 13.24,-13.34 22.49,-13.7 11.8,-0.67 23.64,-0.14 35.47,-0.28 3.55,-6.53 6.99,-13.11 10.63,-19.57 -21.07,-0.29 -42.14,-0.16 -63.21,-0.09 -21.01,0.41 -39.39,14.68 -49.42,32.42zm-138.22 -32.38c-24.77,47.07 -50.15,93.8 -75.02,140.81 14.55,0.27 29.11,-0.16 43.68,0.22 11.31,-20 21.34,-40.75 32.54,-60.82 10.16,-1.48 20.83,-0.17 31.2,-0.6 -10.7,20.45 -21.64,40.76 -32.28,61.25 14.64,0.12 29.26,-0.1 43.9,0.12 25.2,-46.97 50.37,-93.98 75.33,-141.09 -14.7,0.07 -29.4,-0.12 -44.1,0.11 -9.92,18.97 -20.52,37.61 -30.24,56.69 -10.47,0.43 -20.94,0.13 -31.4,0.17 10.03,-19.03 20.69,-37.73 30.38,-56.95 -14.68,0.02 -29.34,-0.14 -43.99,0.09zm-155.11 20.86c13.73,0.03 27.44,0.07 41.18,-0.02 -1.87,6.5 -5.9,12.07 -8.8,18.12 -17.9,33.96 -35.76,67.92 -53.71,101.86 14.97,0.07 29.95,0.21 44.92,-0.08 20.83,-40.05 42.05,-79.89 63.06,-119.85 13.19,-0.12 26.41,0.24 39.61,-0.18 1.18,-5.32 4.35,-11.35 1.11,-16.51 -4.2,-4.19 -10.68,-4.12 -16.18,-4.31 -24.54,0.05 -49.05,-0.08 -73.58,0.07 -15.1,0.14 -29.35,8.37 -37.61,20.9zm-126.69 -20.98c-21.61,39.46 -43.18,78.94 -64.88,118.37 -2.39,4.49 -5.81,9.6 -3.93,14.91 3.82,5.28 11.28,5.35 17.18,5.95 20.5,0.17 41.02,-0.02 61.52,0.1 13.65,-0.06 27.86,-3.51 38.68,-12.15 5.93,-4.58 9.1,-11.55 12.6,-17.97 19.94,-36.32 39.84,-72.67 59.74,-108.99 -14.93,-0.39 -29.9,-0.22 -44.83,-0.1 -22.09,40.93 -44.71,81.56 -66.96,122.41 -7.32,-0.54 -15.61,1.87 -22.2,-2.21 -5.62,-4.57 -1.33,-12.34 1.41,-17.33 18.75,-34.34 37.78,-68.52 56.31,-102.98 -14.88,0 -29.76,0.04 -44.64,-0.01zm-128.57 0.24c-12.79,0.73 -25.47,5.6 -34.85,14.45 -4.34,4.01 -6.63,9.58 -9.5,14.64 -16.81,30.61 -33.56,61.28 -50.4,91.9 -2.04,3.72 -4.03,8.3 -2.17,12.5 4.37,4.83 11.55,5.09 17.63,5.54 21.72,0.01 43.46,0.12 65.2,-0.04 16.08,-1.1 34.1,-6.94 42.48,-21.8 18.6,-33.96 37.23,-67.93 55.82,-101.9 1.83,-3.23 2.95,-8.28 -0.93,-10.49 -7.47,-4.7 -16.73,-4.94 -25.28,-5.04 -19.34,0.19 -38.68,-0.3 -58,0.24zm7.03 16.62l0 0c-15.84,29.83 -32.49,59.25 -48.46,89.01 -3.11,5.04 -2.85,13.06 3.32,15.58 6,2.13 12.57,0.79 18.81,1.15 16.04,-28.93 31.83,-58.03 47.76,-87.03 2.76,-4.82 4.39,-12.17 -0.65,-16.12 -5.97,-4.37 -13.91,-2.36 -20.78,-2.59zm-164.67 -16.73c-13.29,0.9 -28.45,2.78 -37.84,13.31 -7.73,10.99 -13.85,23.02 -20.38,34.74 -3.09,6.9 -7.12,16.03 -1.56,22.77 5.95,7.37 16.25,7.99 25.01,8.37 8.59,0.67 17.49,-0.14 25.8,2.45 5.11,1.56 8.09,7.51 5.78,12.46 -4.34,9.75 -10.17,18.79 -15.04,28.29 -6.7,-0.12 -13.61,0.82 -20.16,-0.95 -4.54,-1.2 -6.2,-6.48 -4.3,-10.5 0.91,-3.33 4.78,-8.61 -0.51,-10.12 -13.41,-2.18 -27.18,-0.74 -40.72,-0.92 -3.94,7.76 -8.43,15.27 -12.43,23.02 -2.02,3.8 -2.24,9.43 1.65,12.15 5.45,3.93 12.55,4.08 19.01,4.13 21.6,-0.22 43.22,0.24 64.82,-0.22 14.33,-1.58 30.92,-5.02 39.46,-17.86 7.49,-13.75 14.88,-27.55 22.03,-41.45 3.43,-6.17 2.71,-15.48 -4.65,-18.33 -14.52,-6.12 -31.3,-1.75 -45.94,-7.61 -4.27,-1.83 -6.72,-6.91 -5.01,-11.33 2.95,-8.95 8.59,-16.68 12.6,-25.17 10.98,-0.39 21.96,-0.26 32.95,-0.07 -2.33,4.19 -4.56,8.44 -6.65,12.76 14.23,-0.05 28.46,-0.07 42.69,0 5.52,-9.91 10.73,-19.97 15.94,-30.04 -30.84,0.11 -61.7,-0.15 -92.55,0.12zm1081.25 -170.26c-34.37,46.34 -68.68,92.73 -102.98,139.12 18.48,0.42 36.98,-0.04 55.47,0.24 6.28,-8.87 11.68,-18.35 17.99,-27.21 14.89,0.27 29.79,0.08 44.71,0.1 -3.86,9.09 -8.2,17.95 -12.14,27 17.9,0.07 35.78,0.02 53.67,0.02 14.69,-32.91 29.2,-65.91 43.84,-98.85 3.56,-7.76 7.76,-15.97 6.51,-24.79 -0.77,-5.43 -5.42,-9.24 -10.18,-11.29 -8.35,-3.5 -17.57,-4.07 -26.5,-4.34 -23.47,-0.02 -46.94,0 -70.39,0zm30.34 25.06l0 0c-14.28,22.43 -28.3,45.02 -42.46,67.51 12.49,-0.07 24.99,0.14 37.49,-0.12 7.28,-16.63 15.15,-33 22.71,-49.51 1.63,-4.21 3.83,-9.15 1.48,-13.51 -2.16,-4.38 -7.49,-5.62 -11.93,-6.03 -2.44,-0.07 -5.97,-1.16 -7.29,1.66zm-146.57 -25.08c-24.77,46.36 -49.39,92.8 -74.09,139.17 18.22,0.26 36.46,0.15 54.68,0.05 24.67,-46.39 49.36,-92.76 74.06,-139.15 -18.22,-0.14 -36.45,0 -54.65,-0.07zm-186.22 11.21c-12.18,9.11 -18.43,23.46 -25.38,36.48 -10.95,21.06 -21.97,42.07 -32.88,63.14 -2.89,6.22 -6.18,14.23 -2.09,20.66 6.64,7.52 17.78,7.16 26.97,7.75 37.1,0.15 74.19,0.05 111.31,0.05 11.88,-22.95 23.79,-45.89 35.43,-68.95 -22.73,-0.14 -45.46,0.1 -68.18,-0.12 -3.66,6.63 -7.18,13.37 -10.4,20.25 5.28,-0.04 10.56,-0.04 15.86,0.01 -4.86,9.67 -10.1,19.13 -14.64,28.96 -8.23,0.08 -16.5,0.65 -24.67,-0.36 -4.94,-0.58 -9.79,-4.13 -10.07,-9.43 0.02,-6.7 3.98,-12.45 6.86,-18.22 12.31,-23.92 24.62,-47.82 36.91,-71.73 15.24,0.07 30.5,-0.02 45.74,0.05 -1.68,3.41 -3.36,6.83 -5.04,10.24 16.66,-0.07 33.34,0.32 50,-0.21 4.44,-10.17 10.08,-19.73 14.83,-29.76 -37.34,0 -74.66,-0.02 -111.98,0 -13.49,0.21 -27.68,2.71 -38.58,11.19zm-182.32 -11c-24.55,46.51 -49.81,92.66 -74.57,139.05 18.67,0.22 37.35,-0.25 56.02,0.25 10.53,-18.05 19.79,-36.86 29.78,-55.22 8.97,5.71 17.78,11.7 26.74,17.44 -6.49,12.56 -13.25,25.01 -19.83,37.54 17.93,0.11 35.88,-0.05 53.83,0.09l1.06 -0.6c8.42,-15.83 16.92,-31.61 25.23,-47.49 -9.65,-5.64 -19.56,-10.82 -28.98,-16.8 15.61,-5.4 31.2,-10.93 46.81,-16.35 7.31,-13.31 14.64,-26.59 21.79,-39.96 2.32,-3.82 2.5,-9.72 -1.87,-12.14 -7.87,-4.95 -17.57,-5.71 -26.62,-6.02 -36.46,0.16 -72.93,-0.24 -109.39,0.21zm43 24.84l0 0c-7.48,14.78 -15.9,29.06 -23.25,43.89 14.59,-5.11 29.28,-10.02 43.75,-15.43 3.72,-5.03 6.43,-10.8 9.02,-16.5 2.05,-4.64 -1.27,-10.04 -6.06,-11.02 -7.71,-1.61 -15.66,-1.16 -23.46,-0.94zm-201.84 -23.9c-12.76,2.5 -26.4,7.84 -33.91,19 -17.01,31.64 -33.78,63.43 -50.75,95.09 -2.62,5.02 -5.53,11.45 -2.31,16.85 3.99,5.23 11.26,5.95 17.33,6.7 15.46,1.05 31,0.28 46.47,0.52 18.79,-0.36 38.13,1.63 56.34,-4.15 10.37,-3.11 20.81,-8.93 25.76,-19.01 18,-33.93 36.14,-67.77 54.05,-101.73 2.93,-4.32 -0.58,-8.98 -4.86,-10.3 -15.45,-6.36 -32.58,-4.05 -48.83,-4.53 -19.76,0.5 -39.67,-1.27 -59.29,1.56zm-23.4 101.28l0 0c-3.23,5.16 -5.4,13.32 0.7,17.32 7.13,4.32 15.96,1.68 23.84,2.52 15.57,-28.61 30.66,-57.48 46.02,-86.2 2.58,-4.68 4.42,-11.23 0.13,-15.51 -6.55,-6.36 -16.47,-2.9 -24.58,-4 -15.98,28.27 -30.6,57.33 -46.11,85.87zm-174.37 -80c-6.63,7.09 -10.28,16.23 -14.94,24.61 -16.37,30.72 -32.73,61.48 -49.08,92.23 42.44,0.07 84.87,0.02 127.32,0.02 1.92,-4.46 6.15,-8.78 4.76,-13.97 -1.68,-3.89 -6.05,-5.68 -10.06,-5.66 -17.57,-0.24 -35.16,0.14 -52.73,-0.17 8.14,-14.55 15.58,-29.5 23.69,-44.07 19.27,0.01 38.54,0.15 57.81,-0.07 3.34,-6.74 6.9,-13.34 10.5,-19.92 -19.18,-0.28 -38.38,-0.05 -57.56,-0.12 3.89,-7.5 7.59,-15.12 11.96,-22.36 5.75,-9.08 16.79,-12.96 27.11,-13.13 15.51,-0.27 31.02,0.05 46.52,-0.14 3.4,-6.58 6.98,-13.06 10.37,-19.64 -28.18,0 -56.36,-0.09 -84.56,0.03 -19.08,0.34 -38.37,7.87 -51.11,22.36z"/>
  </g>
 </g>
</svg>
