<?xml version="1.0" encoding="UTF-8"?>
<!DOCTYPE svg PUBLIC "-//W3C//DTD SVG 1.1//EN" "http://www.w3.org/Graphics/SVG/1.1/DTD/svg11.dtd">
<!-- Creator: CorelDRAW -->
<svg xmlns="http://www.w3.org/2000/svg" xml:space="preserve" width="2000px" height="1600px" version="1.1" style="shape-rendering:geometricPrecision; text-rendering:geometricPrecision; image-rendering:optimizeQuality; fill-rule:evenodd; clip-rule:evenodd"
viewBox="0 0 2000 1600"
 xmlns:xlink="http://www.w3.org/1999/xlink">
 <defs>
  <style type="text/css">
   <![CDATA[
    .fil2 {fill:black;fill-rule:nonzero}
    .fil0 {fill:#ED2D23;fill-rule:nonzero}
    .fil1 {fill:#FEFEFE;fill-rule:nonzero}
   ]]>
  </style>
 </defs>
 <g id="Capa_x0020_1">
  <metadata id="CorelCorpID_0Corel-Layer"/>
  <g id="Georgia_x0020_Bulldogs.cdr">
   <path class="fil0" d="M969.26 231.45l67.79 0c147.52,4.02 295.27,29.39 433.19,82.75 103.36,40.16 201.79,96.3 282.22,173.31 39.29,37.82 73.94,80.86 99.89,128.97 27.38,50.22 44.36,106.29 47.65,163.5l0 39.87c-4.09,73.19 -31.19,143.89 -72.4,204.1 -43.13,63.25 -100.15,116.05 -162.75,159.66 -76.24,52.88 -161.18,92.42 -249.16,121.41 -120.09,39.29 -246.13,59.29 -372.31,62.88 -7.83,0.42 -15.68,-0.06 -23.49,0.65l-33.58 0c-139.53,-2.23 -279.3,-23.42 -411.57,-68.61 -64.63,-22.12 -127.41,-50.01 -186.36,-84.62 -49.46,-29.05 -96.28,-62.87 -137.94,-102.36 -58.89,-55.58 -107.91,-123.61 -132.89,-201.24 -10.02,-30.84 -15.73,-62.98 -17.55,-95.34l0 -32.83c1.65,-30.22 6.63,-60.27 15.49,-89.23 20.51,-67.96 60,-128.94 108.1,-180.63 53.14,-56.93 116.97,-103.08 184.86,-140.81 66.11,-36.66 136.52,-65.27 208.87,-87 114.1,-34.26 232.97,-51.24 351.94,-54.43z"/>
   <path class="fil1" d="M973.57 267.13c138.87,-2.79 278.61,14.53 411.54,55.39 68.95,21.32 135.97,49.29 198.76,84.97 46.16,26.27 89.98,56.87 129.52,92.4 35.55,32.08 67.62,68.32 93.19,108.89 23.72,37.67 41.77,79.16 50.99,122.79 10.69,49.75 9.44,101.91 -3.19,151.17 -10.95,43.74 -30.69,84.97 -55.85,122.29 -43.53,64.02 -102.26,116.45 -166.54,159 -78.97,51.93 -166.59,89.76 -257,116.69 -124.02,36.76 -253.73,53.05 -382.94,52.2 -140.99,-1.4 -282.35,-23.31 -415.6,-70.06 -62.87,-22.21 -123.85,-50.11 -180.89,-84.69 -59.57,-36.27 -115.11,-80.03 -160.71,-133.02 -24.91,-28.98 -46.74,-60.79 -63.44,-95.22 -27.9,-56.14 -40.95,-120.02 -34.36,-182.54 5.79,-57.92 27.79,-113.48 59.56,-161.98 37.22,-57.21 87.01,-105.33 141.8,-145.64 60.33,-44.33 127.08,-79.45 196.5,-107.3 139.25,-55.4 289.1,-81.93 438.66,-85.34z"/>
   <path class="fil2" d="M573.93 378.17c121.14,-45.62 250.09,-68.66 379.2,-74.32 136.19,-6.5 273.74,8.98 404.3,48.77 69.63,21.26 137.34,49.29 200.59,85.46 52.14,29.97 101.48,65.49 143.6,108.62 24.76,25.61 47.03,53.93 63.76,85.49 -133.16,0 -266.32,-0.02 -399.47,0 -44.82,-43.95 -97.35,-79.85 -153.77,-107.23 -66.89,-32.4 -141.08,-50.91 -215.61,-49.24 -96.22,2.47 -191.98,31.49 -272.43,84.55 -36.75,24.53 -70.33,54.52 -96.07,90.62 -27.79,38.54 -45.42,85.56 -43.75,133.5 1.95,73.15 36.1,143.06 87.01,194.73 49.21,50.94 113.63,85.91 181.79,104.09 53.15,14.49 108.7,18.02 163.53,15.13 77.28,-3.61 155.83,-17.8 224.54,-54.82 49.19,-26.3 91.5,-65.54 120.45,-113.28 6.21,-10.13 11.84,-20.62 17.02,-31.32 -179.37,0.03 -358.73,0.05 -538.1,0 0.03,-51.06 0,-102.13 0.02,-153.19 324.73,0 649.45,0 974.19,0 8.09,52.94 2.97,107.8 -15.13,158.23 -25.7,72.58 -75.68,134.22 -133.97,183.47 -77.42,64.99 -169.39,110.61 -264.64,143.22 -131.06,44.33 -269.66,64.37 -407.77,65.69 -141.59,1.37 -284.48,-19.19 -417.1,-69.95 -67.28,-25.81 -131.75,-59.48 -189.86,-102.22 -54.98,-40.58 -104.52,-89.45 -141.69,-147.02 -31.8,-49.38 -54.29,-105.68 -59.11,-164.53 -3.34,-37.85 1.73,-76.27 14.01,-112.19 17.28,-50.82 47.45,-96.44 83.38,-135.98 33.03,-36.29 71.15,-67.73 111.79,-95.11 55.79,-37.51 116.47,-67.39 179.29,-91.17z"/>
  </g>
 </g>
</svg>
