<?xml version="1.0" encoding="UTF-8"?>
<!DOCTYPE svg PUBLIC "-//W3C//DTD SVG 1.1//EN" "http://www.w3.org/Graphics/SVG/1.1/DTD/svg11.dtd">
<!-- Creator: CorelDRAW -->
<svg xmlns="http://www.w3.org/2000/svg" xml:space="preserve" width="2000px" height="1600px" version="1.1" style="shape-rendering:geometricPrecision; text-rendering:geometricPrecision; image-rendering:optimizeQuality; fill-rule:evenodd; clip-rule:evenodd"
viewBox="0 0 2000 1600"
 xmlns:xlink="http://www.w3.org/1999/xlink">
 <defs>
  <style type="text/css">
   <![CDATA[
    .fil0 {fill:black}
    .fil1 {fill:#EAB72C;fill-rule:nonzero}
    .fil2 {fill:#FEFEFE;fill-rule:nonzero}
   ]]>
  </style>
 </defs>
 <g id="Capa_x0020_1">
  <metadata id="CorelCorpID_0Corel-Layer"/>
  <g id="Georgia_x0020_Tech_x0020_Yellow_x0020_Jackets.cdr">
   <path class="fil0" d="M712.55 912.67c11.13,-30.68 39.18,-53.74 71.5,-58.62l6.59 -1 16.76 -10.15c4.19,-2.54 8.47,-4.95 12.82,-7.22 -23.69,4.96 -47.88,7.2 -72.15,5.3l-0.31 -0.02 -0.32 -0.04c-11.91,-1.31 -23.22,-2.67 -34.42,-7.3l-7.82 -3.24c-2.79,2.06 -5.59,4.12 -8.38,6.17l-0.82 0.6 -0.87 0.51c-32.67,19.29 -109.78,63.27 -138.93,32.56 -61.83,-65.13 -83.59,-96.67 -63.19,-194.97 8.86,-42.74 28.79,-81.68 54.47,-116.54 16.65,-98.16 99.16,-188.42 198.37,-213.74 -38.36,-30.69 -156.27,-85.89 -244.08,-113.32 -70.45,-22.01 -134.79,-25.47 -140.11,-45.32 -7.36,-27.48 114.38,-20.6 224.9,21.69 82.22,31.46 166.32,97.11 188.09,127.19 17.59,5.79 83.65,-38.01 136.52,-41.3 -60.28,-57.36 -137.06,-113.41 -195.13,-139.27 -65.61,-29.2 -102.53,-26.61 -109.52,-55.16 -7.94,-32.4 61.29,-25.11 137.23,27.34 93.7,64.71 197.7,169.77 203.13,170.07 11.67,0.63 22.65,6.97 34.08,11.64l23.67 1.38c57.51,3.36 113.52,23.05 161.83,54.17 3.56,2.2 7.03,4.53 10.43,6.98 20.58,-56.4 43.13,-112.31 75.36,-163.21l0.14 -0.22 0.14 -0.2c13.78,-20.62 27.97,-40.46 50.59,-52.17 11.79,-6.42 23.39,-4.96 35.79,-1.78l7.95 2.03 4.25 7.02c11.66,19.27 14.82,40.76 16.58,62.79 2.96,37 0.67,73.96 -2.48,110.84 3.15,-2.59 6.32,-5.15 9.51,-7.69 84.29,-67.24 182.64,-121.12 290.82,-135.28 17.8,-3.45 36.14,2.72 49.85,14.22l0.6 0.5 0.57 0.55c14.88,14.62 15.1,36.27 8.23,54.75l-0.08 0.21 -0.08 0.2c-10.37,26.12 -27.61,48.23 -46.4,68.8 -34.23,37.5 -72.79,70.37 -112.63,101.66 8.81,-2.67 17.81,-4.81 27.1,-6.17 14.31,-2.11 29.04,0.73 36.79,13.97 10.07,14.41 9,32.86 1.75,48.32 -9.64,20.56 -25.45,34.71 -42.14,49.23 2.6,1.96 5.17,3.96 7.71,6.01l11.94 9.61c33.78,1.9 67.88,6.79 96.02,27.25 17.53,12.39 24.99,33.51 23.94,54.36 1.15,32.97 0.61,65.96 -14.64,96.08l-0.1 0.19 -0.11 0.2c-8.68,16.25 -22.62,29.99 -41.09,34.01l-1.2 0.26 -1.23 0.11c-19.81,1.83 -38.64,-9.52 -48.33,-26.51 -0.21,-0.35 -0.4,-0.71 -0.6,-1.06 -18.86,8.89 -38.94,14.66 -60.3,12.63 -5.09,-0.48 -9.93,-1.97 -14.46,-4.32 -4.99,-2.58 -9.02,-5.9 -13.24,-9.54 -1.51,-1.3 -3.29,-2.94 -5,-3.97 -15.2,-9.23 -21.55,-28.85 -14.36,-45.1 3.04,-7.5 7.1,-14.24 11.88,-20.4 -28.91,3.88 -58.62,-7.99 -81.32,-26.63l-5.33 -4.38 -1.52 -6.72c-1.69,-7.51 -3.2,-15.09 -4.4,-22.71l-7.37 -3.21c0.19,13.94 -2.63,27.72 -10.45,40.82l-0.3 0.5 -0.32 0.47c-0.71,1.04 -1.43,2.05 -2.18,3.03l0.29 0.62c2.49,5.26 10.57,10.33 13.51,15.34l36.95 30.15c28.53,23.26 47.49,57.37 52.82,93.72l10.22 10.28c6.52,6.57 12.85,13.32 18.77,20.44 23.91,28.79 40.07,62.08 30.62,100.16 -3.73,15.01 -8.07,29.43 -14.92,43.05l12.02 23.69c14.37,28.34 14,63.14 -0.79,91.26 -20.32,38.65 -57.94,64.56 -97.62,80.4 -25.2,47.99 -96.59,99.24 -150.2,107.37l-18.23 22.94c-7.24,9.11 -19.8,19.01 -29.11,26.24 -37.47,29.13 -76.82,55.94 -118.18,79.24l-87.16 49.09 61.46 -78.92c28.33,-36.37 55.84,-75.78 69.5,-120.31l7.82 -25.49c-1.03,-3.51 -2.04,-7.02 -2.96,-10.56 -7.06,-27.16 -9.27,-53.25 -3.13,-80.83l2.19 -9.83c-18.61,-20.59 -30.08,-48 -28.52,-75.98l0.03 -0.43 0.04 -0.42c2.63,-26.65 14.74,-52.41 34.14,-70.95l17.2 -16.45c-15.04,-13.39 -21.92,-38.91 -17.61,-73.5 0.8,-6.36 -5.86,-11.18 -12.28,-11.23 -7.11,-0.06 -14.24,0.44 -21.34,0.81 -11.1,0.58 -22.19,1.14 -33.29,1.55 -28.88,1.05 -57.85,1.19 -86.69,-0.88 -33.21,-2.39 -79.98,-8.66 -107.38,-28.48 -1.51,-1.09 -3.2,-1.86 -5,-2.21 2.89,17.6 1.35,35.85 -3.74,52.99l-4.02 13.53c-0.68,5.01 -0.87,11.16 -4.54,15.3 -7.91,8.91 -16.71,24.17 -28.78,26.08 -2.59,8.34 -8.23,15.3 -15.7,19.82 -0.1,0.06 -0.2,0.12 -0.3,0.17 3.37,5.79 5.65,12.14 6.35,19.53l0.05 0.53 0.02 0.53c0.85,21.11 -14.05,36.97 -31.85,45.79 -20.06,9.93 -43.02,10 -64.05,3.63 -16.63,0 -28.85,-1.57 -37.76,-3.95 -45.67,-19.04 -67.13,-76.34 -49.04,-121.57zm185.01 -101.94l-1.11 0.47 1.27 -0.18 -0.16 -0.29zm-277.57 515.81c-7.83,0 -15.67,0 -23.51,-0.04l-19.61 -0.12 -0.35 -19.6c-0.56,-31.9 0.08,-63.79 -0.32,-95.68l-0.26 -20.28 20.28 -0.06c145.63,-0.37 291.27,-0.05 436.9,-0.16l19.84 -0.01 0.25 19.84c0.41,32.24 -0.56,64.48 -1.21,96.72l-0.42 20.41 -20.4 -0.75c-13.61,-0.51 -27.25,-0.18 -40.87,-0.29l-20.16 -0.15 0.24 -20.16c0.08,-6.9 0.02,-13.8 0.02,-20.7 -32.59,-0.24 -65.17,-0.04 -97.76,-0.02 -0.08,46.54 0.15,93.09 -0.07,139.63 11.1,-0.01 22.19,-0.17 33.28,0.2l19.73 0.67 -0.33 19.73c-0.29,17.95 -0.08,35.9 -0.13,53.85l-0.06 19.76 -19.76 0.26c-56.68,0.73 -113.36,0.27 -170.05,0.24l-19.71 -0.01 -0.35 -19.71c-0.33,-18.31 -0.14,-36.62 -0.11,-54.94l0.03 -19.99 19.99 -0.06c11.73,-0.03 23.47,-0.03 35.2,-0.03 0.03,-46.55 0.25,-93.1 -0.05,-139.65 -5.21,-0.03 -10.43,-0.08 -15.64,-0.07 0.41,39.45 -0.1,78.91 0.08,118.36l0.1 19.47 -19.46 0.69c-17.57,0.63 -35.14,0.01 -52.7,0.42l-19.95 0.46 -0.49 -16.88c-49.18,31.08 -109.19,41.8 -166.63,36.44 -55.53,-5.18 -110.48,-25.02 -153.71,-60.8 -40.1,-33.19 -68.9,-81.74 -70.89,-134.52 -1.77,-46.78 17.42,-92.9 49.03,-126.99 40.78,-43.99 97.83,-70.35 156.66,-79.3 55.95,-8.5 115.28,-2.59 165.89,23.88 8.03,4.01 15.52,8.69 22.69,13.78 -0.04,-6.74 -0.06,-13.47 0.04,-20.2l0.28 -19.55 19.55 -0.24c17.65,-0.21 35.3,0.09 52.95,-0.21l20.18 -0.34 0.24 20.18c0.43,36.06 0.08,72.13 0.19,108.2l0.06 20.26 -20.26 -0.12c-18.15,-0.11 -36.29,0.46 -54.43,-0.2l-6.85 -0.25 -5.28 -4.38c-52.43,-43.67 -128.06,-61.84 -193.46,-39.53 -31.71,10.82 -63.52,31.94 -76.91,63.86l-0.11 0.25 -0.11 0.25c-10.5,23.23 -7.89,51.81 5.68,73.26l0.13 0.2 0.12 0.21c12,20.01 31.5,34.97 52.31,44.93 40.01,19.16 87.15,22.43 129.84,10.98 10.4,-2.79 20.75,-6.57 30.59,-11.4zm41.92 -31.94c0.15,-3.05 0.19,-6.12 0.17,-9.2 -1.46,-0.01 -2.92,-0.02 -4.37,-0.02 0,4.66 -0.03,9.31 -0.03,13.97 1.46,-1.54 2.87,-3.12 4.23,-4.75z"/>
   <path class="fil1" d="M1576.59 617.93c1.91,-16.93 13.15,-31.11 24.21,-43.18 31.61,1.45 65.9,4.63 92.28,23.88 12.08,8.46 16.44,23.64 15.53,37.81 1.05,29.38 1.16,60.35 -12.45,87.22 -5.83,10.89 -15.15,21.14 -27.66,23.86 -11.99,1.1 -23.23,-6.31 -29.05,-16.47 -3.43,-6.04 -5.91,-12.51 -8.68,-18.81 -20.41,11.91 -43.56,22.74 -67.76,20.35 -10.16,-0.87 -16.04,-10.14 -24.18,-15.02 -6.6,-4.07 -9.62,-12.93 -6.31,-20.05 6.77,-17.01 21.13,-29.6 35.39,-40.38 3.26,-12.99 5.69,-26.17 8.68,-39.21zm-1096.91 444.64c51.8,-7.71 106.87,-2.66 153.74,21.92 19.19,9.54 35.39,23.77 51.53,37.6 0.86,-20.54 0.11,-41.08 0.41,-61.62 17.68,-0.21 35.36,0.08 53.04,-0.21 0.43,36.01 0.08,72.02 0.19,108.02 -17.95,-0.1 -35.9,0.46 -53.83,-0.18 -57.81,-48.14 -140.75,-67.74 -212.79,-43.1 -37.39,12.69 -73.26,37.71 -88.95,75.09 -13.29,29.41 -10.16,65.12 7.01,92.26 14.07,23.48 36.58,40.81 60.86,52.72 44.45,21 96.33,24.72 143.71,12.26 33.4,-9.21 65.8,-27 86.87,-55.09 1.24,-12.29 0.38,-24.71 0.25,-37.06 -14.83,0.51 -29.65,-0.3 -44.48,0.57 0.68,13.55 0.25,27.17 0.41,40.75 -13.69,-0.08 -27.36,0 -41.05,-0.08 -0.57,-31.86 0.08,-63.72 -0.32,-95.58 145.6,-0.37 291.23,-0.05 436.85,-0.16 0.41,32.05 -0.56,64.04 -1.21,96.06 -13.83,-0.51 -27.65,-0.19 -41.45,-0.29 0.16,-13.61 -0.25,-27.23 0.35,-40.81 -46.04,-0.62 -92.13,-0.14 -138.19,-0.24 -0.24,59.83 0.21,119.67 -0.24,179.51 17.6,0.64 35.2,-0.11 52.8,0.48 -0.3,18.03 -0.08,36.06 -0.14,54.12 -56.57,0.73 -113.17,0.27 -169.78,0.24 -0.32,-18.19 -0.13,-36.38 -0.1,-54.55 18.4,-0.05 36.81,-0.03 55.22,-0.03 -0.05,-59.97 0.38,-119.94 -0.21,-179.91 -18.65,0.46 -37.31,-0.46 -55.93,0.51 0.89,46.01 0.16,92.05 0.38,138.06 -17.47,0.62 -34.96,0 -52.45,0.4 -0.36,-11.99 -0.09,-23.99 -0.3,-35.95 -10.11,7.38 -19.35,15.95 -30.11,22.45 -45.5,28.87 -101.18,38.51 -154.33,33.61 -51.48,-4.85 -102.69,-23.07 -142.77,-56.28 -35.64,-29.46 -62.24,-72.75 -63.64,-119.81 -1.94,-41.53 15.47,-82.55 43.69,-112.58 37.49,-40.86 90.73,-64.69 144.96,-73.1zm718.46 -18.97c2.16,-21.86 12.1,-43.18 28.03,-58.41 27.87,41.29 73.75,68.14 122.02,78.09 46.98,9.51 97.17,4.52 140.67,-15.88 25.44,-11.78 47.81,-29.41 66.25,-50.46 11.43,22.54 11.19,50.49 -0.65,72.83 -12.56,24.04 -33.77,42.56 -56.79,56.36 -50.56,29.08 -111.31,38.41 -168.75,30.13 -37.71,-5.93 -75.79,-19.73 -103.37,-47.06 -17.54,-16.87 -28.78,-41.02 -27.41,-65.6zm-297.51 -115.2c-1.88,-6.74 15.27,-20.59 17.76,-28.3 1.07,10.21 -9.9,28.92 -17.76,28.3zm-84.47 -50.35c29.97,-4.96 59.78,5.34 89.86,3.86 -0.51,7.19 -1.05,15.14 -6.12,20.8 -5.47,7.17 -14.93,8.41 -22.93,11.11 4.77,9.22 12.69,19.62 7.92,30.46 -6.22,11.88 -21.4,9.51 -32.5,12.18 8.7,10.03 21.45,18.79 22.8,33.12 0.51,12.67 -10.3,21.89 -20.7,26.98 -19.46,9.71 -42.78,6.61 -61.83,-2.42 -6.34,-2.83 -10.87,-8.57 -12,-15.45 10.94,-5.49 19.84,-15.36 22.24,-27.62 5.74,-22.24 -5.69,-43.53 -10.3,-64.74 -2.99,-14.53 10.08,-26.58 23.56,-28.28zm1.64 -17.98c31.32,-18.97 67.93,-29.86 104.58,-30.99 6.71,18.76 6.18,39.51 0.54,58.49 -1.24,-7.07 -2.4,-14.1 -4.45,-20.95 -16.28,-1.69 -32.74,-0.16 -48.94,-3.01 -17.09,-2.94 -34.48,-2.57 -51.73,-3.54zm633 -148c26.04,21.24 43.07,53.1 46.33,86.55 3.94,36.79 -8.62,74.82 -32.91,102.67 -28.65,34.04 -74.68,53.17 -119.05,47.89 -42.21,-4.47 -81.48,-31.32 -100,-69.65 68.44,-3.69 101.21,-4.34 158.65,-54.93 28.44,-30.08 50.81,-69.83 46.98,-112.53zm-76.25 -209.83c25.47,-16.63 58.25,-18.62 87.14,-10.94 -6.36,7.36 -13.8,13.96 -18.27,22.75 -12.48,21.62 -13.62,47.36 -12.7,71.69 -12.99,-5.66 -23.91,-14.79 -34.15,-24.39 7.92,23.72 15.5,51.7 1.73,74.77 -13.21,19.49 -38.28,24.66 -60.33,25.28 -8.89,17.04 -20.18,34.13 -37.19,43.91 -11.35,6.55 -25.1,1.43 -33.24,-7.68 -19.46,-17.44 -22.8,-44.88 -25.41,-69.38 -1.21,-19.97 2.45,-43.77 20.29,-55.87 19.55,-13.16 44.94,-12.46 67.01,-7.07 9.62,-24.17 22.72,-48.43 45.12,-63.07zm-371.09 -172.28c54.12,3.15 106.87,21.8 152.28,51.1 32.86,20.24 58.17,53.34 67.04,91.08 6.71,28.92 1.45,59.43 -10.41,86.27 -2.94,6.39 -5.74,13.16 -10.99,18.04 -56.23,52.2 -116.15,100.5 -179.86,143.23 -46.82,30.64 -95.55,58.89 -147.9,79.02 -39.37,14.99 -81.56,25.58 -123.98,22.26 -9.79,-1.07 -19.76,-2.1 -28.95,-5.9 31.16,-24.61 63.67,-47.46 95.42,-71.29 10.21,-6.76 18.81,-16.49 30.67,-20.37 23.37,-6.64 46.36,-14.61 70,-20.14 65.71,-15.47 123.6,-53.34 174.01,-97.08 13.45,-12.59 27.25,-24.91 39.32,-38.84 8.46,-13.99 9.6,-31.46 6.12,-47.2 -3.34,-16.23 -5.2,-34.2 -16.5,-47.19 -12.61,12.66 -26.46,24.04 -39.35,36.41 -60.86,50.51 -121.93,100.72 -182.79,151.18 -14.02,11.24 -27.39,23.23 -42.05,33.64 -56.95,41.96 -113.64,84.31 -170.62,126.19 -28.57,16.87 -93.84,49.35 -127.19,34.13 -22.63,-161.01 11.45,-272.52 121.45,-387.86 -109.46,71.55 -152.33,232.08 -141.53,355.54 -25.63,-42.21 -35.2,-94.37 -24.98,-142.85 11.69,-57.14 45.55,-106.87 84.74,-148.92 39.16,-40.94 83.47,-76.98 131.39,-107.14 -7.33,20.97 -13.85,42.53 -13.58,65.01 -0.19,27.6 8.71,55.96 28.17,76.04 20.59,22.23 51.48,32.99 81.37,33.12 50.59,0.3 99.37,-22.77 135.98,-56.82 39.81,-36.6 68.7,-88.86 66.9,-144.03 -0.49,-24.23 -9.57,-47.47 -24.18,-66.63zm218.43 921.1c19.86,15.04 43.71,24.23 68.57,26.28 -7.2,9.05 -17.04,15.41 -25.72,22.88 -36.68,28.52 -75.22,54.8 -115.71,77.6 29.97,-38.49 58.41,-79.68 72.86,-126.76z"/>
   <path class="fil2" d="M731.31 919.83c8.54,-23.91 30.57,-42.13 55.74,-45.93 -5.85,7.79 -11.27,16.68 -10.81,26.85 -0.86,24.04 18.84,46.38 9.44,70.43 -3.05,11.37 -18.49,12.56 -21.27,24.04 -1.51,7.22 2.42,13.96 4.91,20.48 -35.77,-14.9 -52.32,-60.59 -38.01,-95.87zm581.25 -746.85c6.68,-3.72 14.42,-1.83 21.37,-0.05 9.84,16.25 12.16,35.44 13.75,53.99 3.12,40.45 -0.08,81.04 -3.7,121.37 -39.02,33.1 -74.52,70.1 -108.59,108.19 -8.17,-26.07 -23.75,-49.38 -43.39,-68.19 21.1,-58.47 43.85,-117.01 77.22,-169.7 11.64,-17.41 24.23,-35.8 43.34,-45.61zm-423.01 517.29c28.01,-23.32 56.07,-46.52 84.23,-69.65 3.78,12.62 7.25,25.28 11.16,37.84 -29.76,15.56 -61.83,28.12 -95.39,31.81zm98.09 -81.16c20.16,-16.39 39.81,-33.42 60.26,-49.4 4.42,16.03 7.82,32.4 12.94,48.24 -19.05,15.91 -39.67,29.95 -61.1,42.48 -4.39,-13.66 -8.17,-27.52 -12.1,-41.32zm467.28 -69.94c4.02,-16.06 15.02,-30.21 30.17,-37.2 34.5,16.96 69.05,34.91 99.13,59.11 -18.65,25.1 -36.95,51.91 -43.37,83.05 -28.25,13.42 -60.75,1.64 -83.5,-17.04 -6.47,-28.65 -10.32,-59.16 -2.43,-87.92zm-360.52 -18.36c7.36,-6.14 13.02,-14.09 20.78,-19.78 3.07,21.35 4.66,45.23 -7.36,64.26 -10.32,10.89 -21.24,21.4 -33.04,30.7 -3.75,-16.26 -8.36,-32.29 -12.51,-48.44 10.67,-8.95 21.48,-17.76 32.13,-26.74zm-190.08 -197.56c17.68,-7.55 39.49,8.35 36.45,27.65 -0.73,21.81 -31.65,32.05 -45.8,15.9 -13.88,-12.39 -8.06,-37.62 9.35,-43.55zm482.92 20.91c81.67,-64.79 176.87,-117.62 281.58,-131.15 11.97,-2.54 24.51,2.1 33.67,9.78 8.89,8.74 7.47,22.7 3.48,33.42 -9.41,23.7 -25.72,43.83 -42.56,62.67 -46.6,50.65 -101.18,93.1 -155.93,134.5 4.26,6.68 8.36,13.47 12.27,20.4 24.44,-10.78 49.21,-22.1 75.87,-26.01 5.77,-0.86 13.8,-1.21 16.9,4.91 6.41,8.41 4.85,20.02 0.54,29 -8.6,18.57 -24.74,31.83 -39.84,44.96 -15.25,-7.66 -29.21,-17.71 -44.58,-25.23 -22.05,-16.15 -48.95,-24.45 -75.63,-29.14 -32.1,-5.42 -67.52,-0.67 -93.61,20 -18.43,13.56 -31.26,33.18 -40.48,53.83 -11.94,-1.81 -24.02,-1.22 -35.96,0.19 -15.79,-3.02 -32.02,-2.05 -48,-1.3 5.01,-18.46 8.6,-37.73 6.33,-56.9 43.56,-52.77 92.64,-101.04 145.95,-143.93z"/>
  </g>
 </g>
</svg>
