<?xml version="1.0" encoding="UTF-8"?>
<!DOCTYPE svg PUBLIC "-//W3C//DTD SVG 1.1//EN" "http://www.w3.org/Graphics/SVG/1.1/DTD/svg11.dtd">
<!-- Creator: CorelDRAW -->
<svg xmlns="http://www.w3.org/2000/svg" xml:space="preserve" width="2000px" height="1600px" version="1.1" style="shape-rendering:geometricPrecision; text-rendering:geometricPrecision; image-rendering:optimizeQuality; fill-rule:evenodd; clip-rule:evenodd"
viewBox="0 0 2000 1600"
 xmlns:xlink="http://www.w3.org/1999/xlink">
 <defs>
  <style type="text/css">
   <![CDATA[
    .fil0 {fill:#F9AC2A}
    .fil4 {fill:#045E3B;fill-rule:nonzero}
    .fil3 {fill:#2C221C;fill-rule:nonzero}
    .fil2 {fill:#F9AC2A;fill-rule:nonzero}
    .fil1 {fill:#FBFDFB;fill-rule:nonzero}
   ]]>
  </style>
 </defs>
 <g id="Capa_x0020_1">
  <metadata id="CorelCorpID_0Corel-Layer"/>
  <g id="George_x0020_Mason_x0020_Patriots.cdr">
   <path class="fil0" d="M1636.05 80c8.92,80.58 18.63,161.06 27.79,241.61 -0.66,7.22 7.12,8.78 12.34,10.75 48.64,15.42 97.01,31.73 145.57,47.39 13.56,4.19 26.73,9.89 40.76,12.38l0 1.35c-59.8,31.01 -119.3,62.64 -179.07,93.72 7.5,78.61 15.21,157.19 22.99,235.76 48.92,4.63 97.9,8.09 146.82,12.69 -0.55,234.66 0.21,469.35 -0.45,704.01 -50.89,-27.1 -101.08,-55.66 -153.8,-79.16 -31.53,-14.66 -63.68,-27.8 -95.97,-40.62 -18.11,14.83 -36.43,29.41 -54.17,44.76 18.74,51.69 37.79,103.26 55.97,155.12 -54.79,-18.88 -108.93,-39.79 -164.79,-55.45 -186.51,-54.14 -382.86,-74.81 -576.49,-58.6 -136.1,10.82 -270.37,41.21 -398.83,87.22 -26.44,8.82 -52.06,20.16 -79.13,27.07 17.84,-51.65 36.96,-102.88 55.66,-154.21 -17.84,-15.39 -36.27,-30.08 -54.45,-45.01 -86.25,33.35 -169.15,74.77 -249.31,120.71l0 -706.36c59.97,-4.11 119.85,-9.58 179.72,-15 74.19,-90.02 160.48,-169.95 255.54,-237.46 -17.7,-14.66 -36.05,-28.52 -53.86,-43.04 82.1,-62.4 169.6,-118.2 263.53,-161.13 242.33,-113.46 519.17,-148.31 782.83,-105.13 23.37,-31.01 45.94,-62.6 69.62,-93.37l1.18 0z"/>
   <path class="fil1" d="M522.52 1289.73c27.1,-6.01 53.79,-13.69 80.93,-19.53 12.96,-3.08 28.35,0.62 36.26,11.96 7.71,11.41 8.64,28.45 -1.31,38.89 -6.95,8.16 -17.56,11.51 -27.66,13.9 -15.27,3.49 -30.45,7.4 -45.66,11.17 2.45,9.88 4.91,19.77 7.43,29.62 -9.16,2.18 -18.36,4.25 -27.52,6.36 -7.15,-30.87 -15.21,-61.5 -22.47,-92.37zm832.3 -9.4c8.96,-11.1 24.51,-11.93 37.65,-11.06 26.51,2.49 52.96,12.37 72.49,30.97 -5.77,4.77 -11.51,9.54 -17.28,14.28 -18.12,-12.86 -39.45,-22.99 -62.09,-22.68 -4.98,0.38 -7.61,3.04 -7.92,7.99 23.89,14.34 56.46,14 75.16,36.71 10.96,16.39 -5.46,36.75 -22.96,37.99 -35.95,3.94 -72.77,-11.27 -97.9,-36.88 5.98,-4.71 12.03,-9.34 18.08,-13.9 17.94,17.04 42.07,27.31 66.79,28.52 4.94,0.97 7.92,-3.42 11.06,-6.29 -21.46,-14.83 -50.33,-14.42 -70.1,-32.08 -10.13,-7.92 -11.45,-23.99 -2.98,-33.57zm-124.69 -39.69c38.61,6.5 77.26,12.93 115.91,19.57 -1.31,7.22 -2.52,14.48 -3.73,21.74 -14.76,-2.31 -29.45,-4.87 -44.22,-7.22 -4.01,23.92 -7.88,47.88 -11.99,71.77 -9.2,-1.49 -18.39,-3.01 -27.52,-4.53 3.77,-24.1 8.26,-48.05 11.68,-72.18 -14.72,-2.08 -29.38,-4.64 -44,-7.13 1.31,-7.33 2.56,-14.69 3.87,-22.02zm-474.61 1.04c39.03,-4.08 78.03,-8.19 117.09,-11.96 0.62,7.33 1.31,14.66 2.11,22.02 -14.87,1.52 -29.73,2.66 -44.49,4.87 2.56,24.07 4.84,48.13 7.53,72.15 -9.33,1.04 -18.66,1.83 -28,2.53 -2.14,-24.03 -5.15,-47.99 -7.09,-72.01 -14.93,1.21 -29.83,3 -44.76,4.28 -0.73,-7.33 -1.56,-14.59 -2.39,-21.88zm281.81 -15c9.27,0.17 18.53,0.72 27.83,1.21 -0.93,31.66 -1.41,63.4 -3.11,95.06 -9.23,-0.76 -18.46,-1.14 -27.69,-1.24 1.25,-31.67 2.21,-63.37 2.97,-95.03zm581.09 -1083.76c7.64,64.16 15.03,128.35 22.36,192.58 1.32,3.95 -0.45,11.07 4.84,12.48 50.82,17.05 102.12,32.74 152.77,50.34 -46.05,26.68 -94.31,49.43 -140.94,75.08 7.43,78.23 15.62,156.43 22.67,234.7 -52.65,-54.04 -104.26,-109.07 -156.42,-163.59 -99.84,46.64 -198.85,95.07 -298.96,141.01 24.68,-36.16 50.4,-71.66 75.77,-107.34 -75.81,-14.13 -152.93,-19.29 -229.92,-20.56 25.41,27.58 51.61,54.44 76.75,82.27 -24.45,-0.07 -48.89,0.42 -73.29,-0.73 -133.55,0.21 -267.05,21.06 -394.1,62.23 -15.31,5.19 -30.94,9.61 -45.56,16.56 114.18,-7.78 228.57,-14.21 343.04,-14.11 284.71,-2.41 567.91,31.5 851.31,54.04 0,105.95 -0.04,211.88 0.03,317.83 -1.66,107.48 -0.41,214.99 -0.86,322.47 -73.88,-40.59 -150.38,-76.37 -229.16,-106.37 -26.41,21.29 -52.45,43.07 -78.79,64.47 14.76,41.1 29.7,82.17 44.6,123.24 -256.54,-95.52 -537.11,-127.22 -808.03,-86.08 -112.94,16.73 -223.39,47.67 -330.39,87.22 13.62,-41.55 29.84,-82.21 44.01,-123.59 -26.27,-20.98 -52.2,-42.48 -78.06,-63.98 -79.65,29.03 -156.39,65.78 -230.41,107.02 0.18,-213.98 -0.13,-428 0.18,-642.02 56.07,-4.46 112.17,-9.06 168.18,-14.7 80.41,-100.32 176.68,-187.75 283.19,-259.58 -17.35,-15.14 -36.09,-28.66 -53.72,-43.49 141.67,-106.34 305.18,-183.5 477.51,-224.5 146.58,-34.98 299.17,-44.24 448.96,-28.17 30.18,3.46 60.25,7.64 90.33,11.86 14.31,-18.67 28.11,-37.68 42.11,-56.59zm-112.67 172.43l0 0c-75.53,-25.41 -151.52,-49.4 -227.12,-74.57 49.75,59.12 100.94,117.06 151.28,175.72 -56.14,79.37 -112.53,158.61 -168.53,238.08 20.4,-7.98 39.65,-18.53 59.56,-27.55 68.38,-32.43 136.83,-64.71 205.14,-97.35 46.64,47.81 91.89,96.97 138.69,144.61 -6.53,-69.59 -14.24,-139.08 -19.94,-208.7 41,-21.19 82.48,-41.66 122.37,-64.75 -45.32,-15.21 -90.84,-29.87 -136.3,-44.7 -7.06,-60.22 -13.69,-120.47 -21.09,-180.62 -34.99,46.39 -69.21,93.33 -104.06,139.83zm-926.08 125.73l0 0c18.35,14.11 36.19,28.83 54.55,42.94 -108.52,71.11 -206.52,158.46 -288.45,259.13 15.9,-1.31 31.73,-3.08 47.63,-3.94 110.18,-101.29 237.39,-183.98 375.33,-242.16 -19.43,-18.08 -38.58,-36.51 -57.8,-54.79 190.93,-92.37 404.84,-135.62 616.65,-127.12 -27.76,-32.53 -56.04,-64.61 -83.76,-97.17 86.15,27.62 171.98,56.21 258.06,84.11 22.75,-30.25 45.08,-60.78 67.66,-91.13 -74.68,-11.17 -150.04,-19.19 -225.64,-18.63 -272.45,-0.87 -544.92,86.77 -764.23,248.76zm287.69 30.32l0 0c20.84,22.92 45.14,42.55 64.47,66.82 -167.49,32.95 -328.66,98.87 -470.15,194.52 35.92,-2.79 71.77,-6.18 107.68,-8.78 7.4,-0.69 15.04,-0.72 22.03,-3.63 166.97,-66.99 348.08,-99.11 527.91,-92.26 -24.68,-27.52 -50.44,-54.07 -75.71,-81.03 26.41,-2.6 52.89,-0.56 79.34,-0.14 62.57,2.35 125,9.06 186.57,20.43 27.76,-39.31 55.73,-78.47 83.45,-117.85 -174.33,-28.21 -354.23,-20.74 -525.59,21.92zm-460.37 266.05l0 0c13.66,-1.25 27.59,-1.04 41.03,-4.19 8.54,-5.18 15.59,-12.37 23.37,-18.53 91.16,-74.15 193.25,-134.99 302.42,-178.62 10.54,-4.15 21.26,-7.85 31.42,-12.82 -146.4,41.1 -281.88,116.81 -398.24,214.16zm407.89 -17.88l0 0c-19.29,0.14 -38.62,0.49 -57.84,2.39 -194.9,9.85 -389.01,30.7 -583.4,47.36 0.38,203.37 -0.03,406.75 0.21,610.09 153.73,-83.97 320.39,-144.37 492.41,-177.69 243.37,-47.57 497.01,-41.69 737.93,17.08 143.32,34.95 282.09,88.6 411.65,159.12 0.07,-203.06 -0.13,-406.13 0.11,-609.22 -249.25,-20.4 -498.15,-49.33 -748.47,-52.58 -84.21,0.62 -168.53,-2.15 -252.6,3.45zm-411.17 567.6l0 0c27.13,21.75 53.61,44.25 80.79,65.96 -12.21,36.06 -25.93,71.6 -38.52,107.51 75.13,-27.24 152.18,-49.15 230.45,-65.3 287.86,-58.97 591.14,-34.57 867.59,63.92 -12.68,-35.71 -25.79,-71.28 -38.61,-106.96 26.93,-21.85 53.75,-43.87 80.44,-66.03 -181.28,-66.89 -374.04,-102.18 -567.22,-104.88 -209.11,-2.76 -418.71,33.36 -614.92,105.78zm505.68 -498.21c2.49,-22.51 26.65,-35.09 47.22,-36.48 43.91,-0.27 87.85,-0.13 131.78,-0.07 21.02,0.25 44.49,13.35 47.43,35.79 1.7,23.71 0.25,47.56 0.73,71.31 -31.67,0 -63.37,0.04 -95.03,0 -0.04,-9.19 -0.04,-18.39 -0.07,-27.58 -12.14,-0.14 -24.24,-0.11 -36.33,0.1 0.03,8.71 0.07,17.42 0.07,26.17 38.19,38.79 75.32,78.68 113.21,117.81 9.78,10.03 18.84,22.51 18.08,37.27 -0.07,25.58 0.55,51.16 -0.31,76.74 -2.42,28.25 -31.08,48.3 -58.36,47.05 -40.41,-1.55 -80.89,-1.31 -121.3,-2.87 -20.26,-0.83 -43.32,-13 -46.98,-34.57 -0.9,-23.54 -0.03,-47.11 -0.31,-70.69 31.7,-0.11 63.4,0.07 95.1,-0.07 0.03,8.88 0.03,17.8 0.03,26.76 11.79,0.03 23.62,0.03 35.4,0 0,-8.13 0,-16.29 -0.03,-24.41 -36.61,-38.37 -73.18,-76.78 -109.86,-115.08 -10.1,-10.17 -21.99,-22.02 -20.71,-37.61 0.24,-29.87 -0.28,-59.74 0.24,-89.57zm11.89 6.32l0 0c0.11,27.73 -0.17,55.49 0.14,83.21 -0.69,9.51 5.78,17.08 11.83,23.54 36.88,38.03 73.07,76.71 109.86,114.81 15.31,12.48 6.84,34.12 8.23,51.09 -19.67,-0.27 -39.35,-0.17 -59.02,-0.27 -0.06,-8.89 -0.1,-17.81 -0.17,-26.69 -23.61,-0.07 -47.22,-0.24 -70.83,0.14 0.52,19.56 -1.21,39.27 0.93,58.8 4.95,15.56 22.96,22.02 37.96,22.26 40.27,1.35 80.58,1.7 120.89,1.97 21.02,1.07 43.76,-16.18 42.49,-38.47 0,-25.31 0.13,-50.61 -0.07,-75.92 0.07,-10.13 -7.23,-17.97 -13.59,-24.96 -36.37,-37.44 -71.9,-75.74 -108.58,-112.9 -2.66,-3.39 -7.3,-5.91 -7.88,-10.48 -1.08,-13.86 -0.11,-27.79 -0.39,-41.65 20.16,0 40.35,-0.04 60.5,0 0,9.23 0,18.46 0.04,27.65 23.26,0 46.56,0 69.86,0 -0.59,-20.67 1.59,-41.55 -0.93,-62.12 -5.5,-15.14 -23.09,-21.09 -37.96,-20.88 -41.52,-0.07 -83.07,-0.24 -124.59,0.07 -17.21,0.21 -39.93,10.65 -38.72,30.8zm-260.89 -31.6c41.45,-2.66 82.93,-5.15 124.45,-7.22 32.84,127.18 64.75,254.61 97.31,381.86 -33.43,2.14 -66.79,5.15 -100.01,9.54 -6.88,-25.86 -10.68,-52.51 -18.29,-78.16 -27.41,-0.56 -54.86,0.03 -82.31,-0.21 -8.33,32.81 -16.66,65.61 -25.16,98.35 -34.06,6.71 -67.83,14.55 -101.43,23.09 31.25,-129.32 63.54,-258.44 95.1,-387.73 3.18,-13.24 6.29,-26.48 10.34,-39.52zm9.61 12.28l0 0c-3.56,8.36 -4.81,17.49 -7.09,26.3 -30.49,123.94 -61.05,247.87 -91.33,371.87 24.82,-5.67 49.57,-11.79 74.6,-16.63 9.12,-33.22 16.94,-66.82 25.99,-100.11 34.02,0.24 68.04,-0.03 102.05,0.14 5.92,25.58 11.69,51.16 17.05,76.81 25.06,-2.97 50.23,-5.12 75.36,-7.33 -30.15,-119.09 -60.84,-238.05 -90.61,-357.24 -35.36,1.31 -70.8,3.01 -106.02,6.19zm565.18 -15.94c9.64,-2.42 19.67,-1.59 29.45,-0.76 51.13,4.04 102.4,6.67 153.46,11.27 19.35,2.52 44.49,12.69 45.04,35.5 0.21,112.91 0.07,225.85 0.1,338.72 -0.69,27.58 -33.08,41.96 -57.28,38.02 -47.98,-10.26 -96.17,-19.91 -144.6,-28 -20.12,-3.21 -42.8,-6.53 -56.84,-22.88 -6.53,-6.75 -6.98,-16.42 -6.67,-25.2 0.28,-102.5 -0.1,-205.04 0.17,-307.54 -0.51,-20.81 18.57,-35.12 37.17,-39.13zm-0.56 12.79l0 0c-13.51,3.35 -25.92,14.62 -24.54,29.56 -0.24,100.28 0,200.54 -0.21,300.82 0.24,7.37 -0.9,16.11 4.95,21.85 9.05,9.96 22.91,12.86 35.53,15.49 52.27,8.47 104.23,18.81 156.05,29.73 18.56,3.53 45.84,-6.4 44.77,-28.76 0.07,-109.55 -0.11,-219.14 0.07,-328.69 -0.31,-5.6 0.2,-12.07 -4.08,-16.39 -10.75,-12.75 -28.9,-13.62 -44.22,-15.17 -47.36,-3.43 -94.72,-6.5 -142.04,-10.06 -8.78,-0.66 -17.77,-0.83 -26.28,1.62zm-807.96 10.03c32.63,-3.25 65.34,-5.98 98.01,-8.65 -0.04,141.64 0.03,283.27 -0.04,424.94 -31.01,8.67 -61.74,18.25 -92.3,28.44 -0.83,-41.86 0.79,-83.79 -0.86,-125.65 -17.05,46.97 -31.46,94.92 -46.78,142.49 -11.92,4.63 -23.89,9.13 -35.74,13.97 -15.35,-49.4 -29.46,-99.18 -45.53,-148.34 -1.94,55.79 -0.21,111.69 -0.9,167.52 -31.46,13.49 -62.6,27.87 -93.16,43.35 -0.28,-172.98 -0.04,-345.97 -0.11,-518.96 33.43,-2.76 66.82,-6.12 100.29,-8.53 18.29,61.36 36.78,122.68 55.93,183.77 21.06,-64.58 40.93,-129.53 61.19,-194.35zm9.47 11.3l0 0c-23.85,75.12 -46.74,150.55 -71.14,225.53 -20.81,-71.25 -43.35,-141.94 -64.3,-213.12 -26.59,1.66 -53.1,4.18 -79.62,6.81 0.42,162.55 0.04,325.13 0.25,487.71 22.85,-10.27 45.32,-21.4 68.31,-31.39 -0.14,-75.05 0.13,-150.06 -0.07,-225.12 0.03,-7.01 0.48,-14 1.07,-20.98 21.19,73.01 44.28,145.47 65.96,218.34 5.91,-2.07 11.75,-4.15 17.66,-6.22 23.65,-70.87 45.46,-142.39 69.87,-213.02 0.38,62.68 -0.11,125.35 0.31,188.03 22.68,-7.4 45.67,-13.9 68.34,-21.37 -0.76,-133.99 0.45,-268.02 -0.58,-402.01 -25.34,2.35 -50.72,4.6 -76.06,6.81zm1091.06 -15.07c33.18,3.49 66.51,6.01 99.77,9.13 21.19,65.23 41.06,130.91 63.15,195.83 1.01,-63.4 -0.13,-126.83 0.56,-190.27 29.9,2.94 59.84,5.19 89.74,8.06 -0.07,172.6 0.1,345.21 -0.1,517.85 -31.12,-15.8 -62.89,-30.32 -94.9,-44.18 -22.26,-71.59 -45.49,-142.88 -67.58,-214.47 -1.73,62.26 -0.28,124.59 -0.76,186.92 -29.77,-10.93 -59.56,-21.71 -89.88,-31.01 0,-145.96 0,-291.91 0,-437.86zm11.99 13.76l0 0c0.35,138.41 -0.17,276.83 0.24,415.25 21.99,7.05 43.77,14.76 65.58,22.3 -0.13,-82.8 0.07,-165.59 -0.07,-248.39 31.64,94.27 59.46,189.93 91.13,284.17 23.65,11.99 48.47,21.71 72.04,33.98 0.7,-162.31 -0.03,-324.61 0.38,-486.92 -21.88,-2.42 -43.83,-4.21 -65.78,-5.74 -0.63,84.94 0.79,169.91 -0.73,254.85 -28.48,-87.39 -56.04,-175.06 -84.21,-262.55 -26.2,-2.46 -52.37,-5.02 -78.58,-6.95zm-259.13 35.5c33.39,2.83 66.82,5.32 100.22,8.19 -0.04,90.3 0.13,180.56 -0.11,270.86 -33.32,-5.88 -66.48,-12.59 -99.77,-18.6 -0.83,-86.81 -0.24,-173.64 -0.34,-260.45zm12.86 250.42l0 0c24.99,5.08 50.19,9.2 75.26,14 0,-81.68 0,-163.37 0,-245.06 -25.1,-1.73 -50.13,-4.01 -75.19,-6.02 -0.07,79.03 0.07,158.06 -0.07,237.08zm-568.5 -235.11c13.48,52.41 24.41,105.51 35.81,158.44 -24.85,-0.45 -49.67,0.59 -74.49,-0.62 12.96,-52.59 25.82,-105.2 38.68,-157.82zm-0.45 53l0 0c-7.33,31.18 -15.11,62.26 -22.75,93.37 14.76,-0.07 29.49,0.11 44.22,-0.31 -7.57,-30.94 -13.28,-62.29 -21.47,-93.06zm167.01 332.04c27.58,-1.04 55.2,-1.69 82.79,-2.28 18.15,-1.21 37.34,13.21 35.88,32.5 1.18,12.82 -7.88,22.98 -18.25,29.03 8.54,10.51 16.53,21.44 24.75,32.19 -10.68,0.17 -21.33,0.86 -31.97,1.11 -7.51,-9.96 -15.21,-19.74 -22.75,-29.63 -13.59,-0.04 -27.17,0 -40.72,1.04 0.72,9.99 0.76,20.01 0.55,30.04 -9.13,0.1 -18.25,0.58 -27.38,1.1 -1.21,-31.7 -1.42,-63.4 -2.9,-95.1zm28.38 21.47l0 0c0.27,6.67 0.65,13.34 1.21,20.02 16.73,-0.38 33.46,-0.7 50.19,-1.39 8.06,0.49 9.75,-7.91 12.48,-13.55 -3.7,-2.66 -7.05,-7.05 -12.06,-6.7 -17.29,0.34 -34.57,0.65 -51.82,1.62zm204.79 -16.73c29.9,-7.78 66.89,-1.83 86.67,23.85 14.62,19.5 8.88,50.99 -12.66,63.06 -29.49,17.8 -71.25,14.31 -97.17,-8.4 -15.77,-12.66 -18.88,-36.37 -10.03,-53.9 6.57,-12.76 19.84,-20.53 33.19,-24.61zm10.54 21.05l0 0c-14.52,3.56 -25.37,20.4 -18.39,34.71 8.68,18.6 33.05,22.26 51.23,18.67 16.77,-2.53 28.87,-22.47 19.64,-37.82 -10.54,-17.18 -34.43,-20.09 -52.48,-15.56zm-448.75 -0.48c10.03,-3.08 20.57,-3.91 30.87,-5.46 22.3,28.48 45.15,56.52 67.66,84.83 -9.61,1.59 -19.22,3.18 -28.8,4.84 -4.7,-5.77 -9.33,-11.58 -13.97,-17.39 -18.77,2.83 -37.4,6.5 -56.17,9.37 -2.49,6.91 -4.98,13.9 -7.33,20.91 -9.51,1.87 -19.08,3.43 -28.69,4.77 12.2,-33.94 23.26,-68.34 36.43,-101.87zm19.12 21.22l0 0c-3.87,10.2 -7.4,20.54 -10.79,30.94 10.13,-1.76 20.33,-3.04 30.39,-5.22 -5.39,-9.4 -12.96,-17.25 -19.6,-25.72zm-150.07 29.63l0 0c1.63,6.46 3.22,12.96 4.84,19.5 18.88,-4.84 38.34,-8.06 56.52,-15.28 1.42,-6.99 1.73,-17.84 -8.64,-16.63 -17.77,3.14 -35.12,8.37 -52.72,12.41z"/>
   <path class="fil2" d="M1234.62 772.81c8.51,-2.45 17.5,-2.28 26.28,-1.62 47.32,3.56 94.68,6.63 142.04,10.06 15.32,1.55 33.47,2.42 44.22,15.17 4.28,4.32 3.77,10.79 4.08,16.39 -0.18,109.55 0,219.14 -0.07,328.69 1.07,22.36 -26.21,32.29 -44.77,28.76 -51.82,-10.92 -103.78,-21.26 -156.05,-29.73 -12.62,-2.63 -26.48,-5.53 -35.53,-15.49 -5.85,-5.74 -4.71,-14.48 -4.95,-21.85 0.21,-100.28 -0.03,-200.54 0.21,-300.82 -1.38,-14.94 11.03,-26.21 24.54,-29.56zm304.56 20.02c26.21,1.93 52.38,4.49 78.58,6.95 28.17,87.49 55.73,175.16 84.21,262.55 1.52,-84.94 0.1,-169.91 0.73,-254.85 21.95,1.53 43.9,3.32 65.78,5.74 -0.41,162.31 0.32,324.61 -0.38,486.92 -23.57,-12.27 -48.39,-21.99 -72.04,-33.98 -31.67,-94.24 -59.49,-189.9 -91.13,-284.17 0.14,82.8 -0.06,165.59 0.07,248.39 -21.81,-7.54 -43.59,-15.25 -65.58,-22.3 -0.41,-138.42 0.11,-276.84 -0.24,-415.25zm-1103.05 1.31c25.34,-2.21 50.72,-4.46 76.06,-6.81 1.03,133.99 -0.18,268.02 0.58,402.01 -22.67,7.47 -45.66,13.97 -68.34,21.37 -0.42,-62.68 0.07,-125.35 -0.31,-188.03 -24.41,70.63 -46.22,142.15 -69.87,213.02 -5.91,2.07 -11.75,4.15 -17.66,6.22 -21.68,-72.87 -44.77,-145.33 -65.96,-218.34 -0.59,6.98 -1.04,13.97 -1.07,20.98 0.2,75.06 -0.07,150.07 0.07,225.12 -22.99,9.99 -45.46,21.12 -68.31,31.39 -0.21,-162.58 0.17,-325.16 -0.25,-487.71 26.52,-2.63 53.03,-5.15 79.62,-6.81 20.95,71.18 43.49,141.87 64.3,213.12 24.4,-74.98 47.29,-150.41 71.14,-225.53zm485.15 1.14c-1.21,-20.15 21.51,-30.59 38.72,-30.8 41.52,-0.31 83.07,-0.14 124.59,-0.07 14.87,-0.21 32.46,5.74 37.96,20.88 2.52,20.57 0.34,41.45 0.93,62.12 -23.3,0 -46.6,0 -69.86,0 -0.04,-9.19 -0.04,-18.42 -0.04,-27.65 -20.15,-0.04 -40.34,0 -60.5,0 0.28,13.86 -0.69,27.79 0.39,41.65 0.58,4.57 5.22,7.09 7.88,10.48 36.68,37.16 72.21,75.46 108.58,112.9 6.36,6.99 13.66,14.83 13.59,24.96 0.2,25.31 0.07,50.61 0.07,75.92 1.27,22.29 -21.47,39.54 -42.49,38.47 -40.31,-0.27 -80.62,-0.62 -120.89,-1.97 -15,-0.24 -33.01,-6.7 -37.96,-22.26 -2.14,-19.53 -0.41,-39.24 -0.93,-58.8 23.61,-0.38 47.22,-0.21 70.83,-0.14 0.07,8.88 0.11,17.8 0.17,26.69 19.67,0.1 39.35,0 59.02,0.27 -1.39,-16.97 7.08,-38.61 -8.23,-51.09 -36.79,-38.1 -72.98,-76.78 -109.86,-114.81 -6.05,-6.46 -12.52,-14.03 -11.83,-23.54 -0.31,-27.72 -0.03,-55.48 -0.14,-83.21zm-514.29 -57.83c116.36,-97.35 251.84,-173.06 398.24,-214.16 -10.16,4.97 -20.88,8.67 -31.42,12.82 -109.17,43.63 -211.26,104.47 -302.42,178.62 -7.78,6.16 -14.83,13.35 -23.37,18.53 -13.44,3.15 -27.37,2.94 -41.03,4.19zm263.01 38.51c35.22,-3.18 70.66,-4.88 106.02,-6.19 29.77,119.19 60.46,238.15 90.61,357.24 -25.13,2.21 -50.3,4.36 -75.36,7.33 -5.36,-25.65 -11.13,-51.23 -17.05,-76.81 -34.01,-0.17 -68.03,0.1 -102.05,-0.14 -9.05,33.29 -16.87,66.89 -25.99,100.11 -25.03,4.84 -49.78,10.96 -74.6,16.63 30.28,-124 60.84,-247.93 91.33,-371.87 2.28,-8.81 3.53,-17.94 7.09,-26.3zm54.41 67.68c-12.86,52.62 -25.72,105.23 -38.68,157.82 24.82,1.21 49.64,0.17 74.49,0.62 -11.4,-52.93 -22.33,-106.03 -35.81,-158.44zm555.64 -15.31c0.1,86.81 -0.49,173.64 0.34,260.45 33.29,6.01 66.45,12.72 99.77,18.6 0.24,-90.3 0.07,-180.56 0.11,-270.86 -33.4,-2.87 -66.83,-5.36 -100.22,-8.19z"/>
   <path class="fil3" d="M403.71 1287.17c196.21,-72.42 405.81,-108.54 614.92,-105.78 193.18,2.7 385.94,37.99 567.22,104.88 -26.69,22.16 -53.51,44.18 -80.44,66.03 12.82,35.68 25.93,71.25 38.61,106.96 -276.45,-98.49 -579.73,-122.89 -867.59,-63.92 -78.27,16.15 -155.32,38.06 -230.45,65.3 12.59,-35.91 26.31,-71.45 38.52,-107.51 -27.18,-21.71 -53.66,-44.21 -80.79,-65.96zm151.27 17.67c17.6,-4.04 34.95,-9.27 52.72,-12.41 10.37,-1.21 10.06,9.64 8.64,16.63 -18.18,7.22 -37.64,10.44 -56.52,15.28 -1.62,-6.54 -3.21,-13.04 -4.84,-19.5zm150.07 -29.63c6.64,8.47 14.21,16.32 19.6,25.72 -10.06,2.18 -20.26,3.46 -30.39,5.22 3.39,-10.4 6.92,-20.74 10.79,-30.94zm429.63 -20.74c18.05,-4.53 41.94,-1.62 52.48,15.56 9.23,15.35 -2.87,35.29 -19.64,37.82 -18.18,3.59 -42.55,-0.07 -51.23,-18.67 -6.98,-14.31 3.87,-31.15 18.39,-34.71zm-215.33 -4.32c17.25,-0.97 34.53,-1.28 51.82,-1.62 5.01,-0.35 8.36,4.04 12.06,6.7 -2.73,5.64 -4.42,14.04 -12.48,13.55 -16.73,0.69 -33.46,1.01 -50.19,1.39 -0.56,-6.68 -0.94,-13.35 -1.21,-20.02zm586.4 -934.8c34.85,-46.5 69.07,-93.44 104.06,-139.83 7.4,60.15 14.03,120.4 21.09,180.62 45.46,14.83 90.98,29.49 136.3,44.7 -39.89,23.09 -81.37,43.56 -122.37,64.75 5.7,69.62 13.41,139.11 19.94,208.7 -46.8,-47.64 -92.05,-96.8 -138.69,-144.61 -68.31,32.64 -136.76,64.92 -205.14,97.35 -19.91,9.02 -39.16,19.57 -59.56,27.55 56,-79.47 112.39,-158.71 168.53,-238.08 -50.34,-58.66 -101.53,-116.6 -151.28,-175.72 75.6,25.17 151.59,49.16 227.12,74.57zm6.68 17.77l0 0c-61.68,-19.39 -122.73,-40.79 -184.61,-59.56 69.39,43.73 140.81,84.31 210.57,127.49 -29.21,5.11 -58.67,8.85 -87.95,13.58 -47.25,67.24 -95.65,133.76 -142.01,201.62 77.68,-70.15 153.66,-142.22 231.2,-212.57 21.23,-61.71 40.38,-124.21 59.88,-186.51 -30.67,37.3 -57.91,77.4 -87.08,115.95zm35.29 65.09l0 0c-7.22,2.32 5.43,6.74 6.78,4.15 58.07,-0.34 116.29,3.35 174.33,1.45 -37.3,-11.16 -73.87,-24.85 -111.28,-35.6 -23.99,7.88 -46.67,19.84 -69.83,30zm-4.87 10.69l0 0c27.48,57.59 53.06,116.08 79.82,174.02 7.67,15.8 13.69,32.46 22.71,47.57 -5.81,-57.94 -10.4,-116.12 -17.42,-173.89 -25.89,-18.8 -55.14,-32.98 -80.2,-52.96 -1.66,1.73 -3.32,3.46 -4.91,5.26zm-505.52 817.78l0 0c-0.76,31.66 -1.72,63.36 -2.97,95.03 9.23,0.1 18.46,0.48 27.69,1.24 1.7,-31.66 2.18,-63.4 3.11,-95.06 -9.3,-0.49 -18.56,-1.04 -27.83,-1.21zm-146.36 2l0 0c1.48,31.7 1.69,63.4 2.9,95.1 9.13,-0.52 18.25,-1 27.38,-1.1 0.21,-10.03 0.17,-20.05 -0.55,-30.04 13.55,-1.04 27.13,-1.08 40.72,-1.04 7.54,9.89 15.24,19.67 22.75,29.63 10.64,-0.25 21.29,-0.94 31.97,-1.11 -8.22,-10.75 -16.21,-21.68 -24.75,-32.19 10.37,-6.05 19.43,-16.21 18.25,-29.03 1.46,-19.29 -17.73,-33.71 -35.88,-32.5 -27.59,0.59 -55.21,1.24 -82.79,2.28zm-135.45 13l0 0c0.83,7.29 1.66,14.55 2.39,21.88 14.93,-1.28 29.83,-3.07 44.76,-4.28 1.94,24.02 4.95,47.98 7.09,72.01 9.34,-0.7 18.67,-1.49 28,-2.53 -2.69,-24.02 -4.97,-48.08 -7.53,-72.15 14.76,-2.21 29.62,-3.35 44.49,-4.87 -0.8,-7.36 -1.49,-14.69 -2.11,-22.02 -39.06,3.77 -78.06,7.88 -117.09,11.96zm368.62 -8.26l0 0c-13.35,4.08 -26.62,11.85 -33.19,24.61 -8.85,17.53 -5.74,41.24 10.03,53.9 25.92,22.71 67.68,26.2 97.17,8.4 21.54,-12.07 27.28,-43.56 12.66,-63.06 -19.78,-25.68 -56.77,-31.63 -86.67,-23.85zm105.99 7.22l0 0c-1.31,7.33 -2.56,14.69 -3.87,22.02 14.62,2.49 29.28,5.05 44,7.13 -3.42,24.13 -7.91,48.08 -11.68,72.18 9.13,1.52 18.32,3.04 27.52,4.53 4.11,-23.89 7.98,-47.85 11.99,-71.77 14.77,2.35 29.46,4.91 44.22,7.22 1.21,-7.26 2.42,-14.52 3.73,-21.74 -38.65,-6.64 -77.3,-13.07 -115.91,-19.57zm-544.2 13.35l0 0c-13.17,33.53 -24.23,67.93 -36.43,101.87 9.61,-1.34 19.18,-2.9 28.69,-4.77 2.35,-7.01 4.84,-14 7.33,-20.91 18.77,-2.87 37.4,-6.54 56.17,-9.37 4.64,5.81 9.27,11.62 13.97,17.39 9.58,-1.66 19.19,-3.25 28.8,-4.84 -22.51,-28.31 -45.36,-56.35 -67.66,-84.83 -10.3,1.55 -20.84,2.38 -30.87,5.46zm-163.41 35.74l0 0c7.26,30.87 15.32,61.5 22.47,92.37 9.16,-2.11 18.36,-4.18 27.52,-6.36 -2.52,-9.85 -4.98,-19.74 -7.43,-29.62 15.21,-3.77 30.39,-7.68 45.66,-11.17 10.1,-2.39 20.71,-5.74 27.66,-13.9 9.95,-10.44 9.02,-27.48 1.31,-38.89 -7.91,-11.34 -23.3,-15.04 -36.26,-11.96 -27.14,5.84 -53.83,13.52 -80.93,19.53zm832.3 -9.4l0 0c-8.47,9.58 -7.15,25.65 2.98,33.57 19.77,17.66 48.64,17.25 70.1,32.08 -3.14,2.87 -6.12,7.26 -11.06,6.29 -24.72,-1.21 -48.85,-11.48 -66.79,-28.52 -6.05,4.56 -12.1,9.19 -18.08,13.9 25.13,25.61 61.95,40.82 97.9,36.88 17.5,-1.24 33.92,-21.6 22.96,-37.99 -18.7,-22.71 -51.27,-22.37 -75.16,-36.71 0.31,-4.95 2.94,-7.61 7.92,-7.99 22.64,-0.31 43.97,9.82 62.09,22.68 5.77,-4.74 11.51,-9.51 17.28,-14.28 -19.53,-18.6 -45.98,-28.48 -72.49,-30.97 -13.14,-0.87 -28.69,-0.04 -37.65,11.06z"/>
   <path class="fil4" d="M814.88 719.57c84.07,-5.6 168.39,-2.83 252.6,-3.45 250.32,3.25 499.22,32.18 748.47,52.58 -0.24,203.09 -0.04,406.16 -0.11,609.22 -129.56,-70.52 -268.33,-124.17 -411.65,-159.12 -240.92,-58.77 -494.56,-64.65 -737.93,-17.08 -172.02,33.32 -338.68,93.72 -492.41,177.69 -0.24,-203.34 0.17,-406.72 -0.21,-610.09 194.39,-16.66 388.5,-37.51 583.4,-47.36 19.22,-1.9 38.55,-2.25 57.84,-2.39zm-90.92 177.07c8.19,30.77 13.9,62.12 21.47,93.06 -14.73,0.42 -29.46,0.24 -44.22,0.31 7.64,-31.11 15.42,-62.19 22.75,-93.37zm568.95 182.11c0.14,-79.02 0,-158.05 0.07,-237.08 25.06,2.01 50.09,4.29 75.19,6.02 0,81.69 0,163.38 0,245.06 -25.07,-4.8 -50.27,-8.92 -75.26,-14zm-425.55 -607.35c171.36,-42.66 351.26,-50.13 525.59,-21.92 -27.72,39.38 -55.69,78.54 -83.45,117.85 -61.57,-11.37 -124,-18.08 -186.57,-20.43 -26.45,-0.42 -52.93,-2.46 -79.34,0.14 25.27,26.96 51.03,53.51 75.71,81.03 -179.83,-6.85 -360.94,25.27 -527.91,92.26 -6.99,2.91 -14.63,2.94 -22.03,3.63 -35.91,2.6 -71.76,5.99 -107.68,8.78 141.49,-95.65 302.66,-161.57 470.15,-194.52 -19.33,-24.27 -43.63,-43.9 -64.47,-66.82zm-287.69 -30.32c219.31,-161.99 491.78,-249.63 764.23,-248.76 75.6,-0.56 150.96,7.46 225.64,18.63 -22.58,30.35 -44.91,60.88 -67.66,91.13 -86.08,-27.9 -171.91,-56.49 -258.06,-84.11 27.72,32.56 56,64.64 83.76,97.17 -211.81,-8.5 -425.72,34.75 -616.65,127.12 19.22,18.28 38.37,36.71 57.8,54.79 -137.94,58.18 -265.15,140.87 -375.33,242.16 -15.9,0.86 -31.73,2.63 -47.63,3.94 81.93,-100.67 179.93,-188.02 288.45,-259.13 -18.36,-14.11 -36.2,-28.83 -54.55,-42.94zm329.72 347.88l0 0c-0.52,29.83 0,59.7 -0.24,89.57 -1.28,15.59 10.61,27.44 20.71,37.61 36.68,38.3 73.25,76.71 109.86,115.08 0.03,8.12 0.03,16.28 0.03,24.41 -11.78,0.03 -23.61,0.03 -35.4,0 0,-8.96 0,-17.88 -0.03,-26.76 -31.7,0.14 -63.4,-0.04 -95.1,0.07 0.28,23.58 -0.59,47.15 0.31,70.69 3.66,21.57 26.72,33.74 46.98,34.57 40.41,1.56 80.89,1.32 121.3,2.87 27.28,1.25 55.94,-18.8 58.36,-47.05 0.86,-25.58 0.24,-51.16 0.31,-76.74 0.76,-14.76 -8.3,-27.24 -18.08,-37.27 -37.89,-39.13 -75.02,-79.02 -113.21,-117.81 0,-8.75 -0.04,-17.46 -0.07,-26.17 12.09,-0.21 24.19,-0.24 36.33,-0.1 0.03,9.19 0.03,18.39 0.07,27.58 31.66,0.04 63.36,0 95.03,0 -0.48,-23.75 0.97,-47.6 -0.73,-71.31 -2.94,-22.44 -26.41,-35.54 -47.43,-35.79 -43.93,-0.06 -87.87,-0.2 -131.78,0.07 -20.57,1.39 -44.73,13.97 -47.22,36.48zm-249 -25.28l0 0c-4.05,13.04 -7.16,26.28 -10.34,39.52 -31.56,129.29 -63.85,258.41 -95.1,387.73 33.6,-8.54 67.37,-16.38 101.43,-23.09 8.5,-32.74 16.83,-65.54 25.16,-98.35 27.45,0.24 54.9,-0.35 82.31,0.21 7.61,25.65 11.41,52.3 18.29,78.16 33.22,-4.39 66.58,-7.4 100.01,-9.54 -32.56,-127.25 -64.47,-254.68 -97.31,-381.86 -41.52,2.07 -83,4.56 -124.45,7.22zm574.79 -3.66l0 0c-18.6,4.01 -37.68,18.32 -37.17,39.13 -0.27,102.5 0.11,205.04 -0.17,307.54 -0.31,8.78 0.14,18.45 6.67,25.2 14.04,16.35 36.72,19.67 56.84,22.88 48.43,8.09 96.62,17.74 144.6,28 24.2,3.94 56.59,-10.44 57.28,-38.02 -0.03,-112.87 0.11,-225.81 -0.1,-338.72 -0.55,-22.81 -25.69,-32.98 -45.04,-35.5 -51.06,-4.6 -102.33,-7.23 -153.46,-11.27 -9.78,-0.83 -19.81,-1.66 -29.45,0.76zm-808.52 22.82l0 0c-20.26,64.82 -40.13,129.77 -61.19,194.35 -19.15,-61.09 -37.64,-122.41 -55.93,-183.77 -33.47,2.41 -66.86,5.77 -100.29,8.53 0.07,172.99 -0.17,345.98 0.11,518.96 30.56,-15.48 61.7,-29.86 93.16,-43.35 0.69,-55.83 -1.04,-111.73 0.9,-167.52 16.07,49.16 30.18,98.94 45.53,148.34 11.85,-4.84 23.82,-9.34 35.74,-13.97 15.32,-47.57 29.73,-95.52 46.78,-142.49 1.65,41.86 0.03,83.79 0.86,125.65 30.56,-10.19 61.29,-19.77 92.3,-28.44 0.07,-141.67 0,-283.3 0.04,-424.94 -32.67,2.67 -65.38,5.4 -98.01,8.65zm1100.53 -3.77l0 0c0,145.95 0,291.9 0,437.86 30.32,9.3 60.11,20.08 89.88,31.01 0.48,-62.33 -0.97,-124.66 0.76,-186.92 22.09,71.59 45.32,142.88 67.58,214.47 32.01,13.86 63.78,28.38 94.9,44.18 0.2,-172.64 0.03,-345.25 0.1,-517.85 -29.9,-2.87 -59.84,-5.12 -89.74,-8.06 -0.69,63.44 0.45,126.87 -0.56,190.27 -22.09,-64.92 -41.96,-130.6 -63.15,-195.83 -33.26,-3.12 -66.59,-5.64 -99.77,-9.13z"/>
  </g>
 </g>
</svg>
