<?xml version="1.0" encoding="UTF-8"?>
<!DOCTYPE svg PUBLIC "-//W3C//DTD SVG 1.1//EN" "http://www.w3.org/Graphics/SVG/1.1/DTD/svg11.dtd">
<!-- Creator: CorelDRAW -->
<svg xmlns="http://www.w3.org/2000/svg" xml:space="preserve" width="2000px" height="1600px" version="1.1" style="shape-rendering:geometricPrecision; text-rendering:geometricPrecision; image-rendering:optimizeQuality; fill-rule:evenodd; clip-rule:evenodd"
viewBox="0 0 2000 1600"
 xmlns:xlink="http://www.w3.org/1999/xlink">
 <defs>
  <style type="text/css">
   <![CDATA[
    .fil0 {fill:#06133E;fill-rule:nonzero}
    .fil2 {fill:#DED09F;fill-rule:nonzero}
    .fil1 {fill:#FEFEFE;fill-rule:nonzero}
   ]]>
  </style>
 </defs>
 <g id="Capa_x0020_1">
  <metadata id="CorelCorpID_0Corel-Layer"/>
  <g id="George_x0020_Washington_x0020_Colonials.cdr">
   <path class="fil0" d="M916.06 300.78c85.1,-37.97 170.1,-76.13 255.29,-113.87 -83.16,157.39 -166.43,314.71 -249.71,472.02 34.23,-0.1 68.43,0 102.66,-0.06 -29.27,20.99 -58.59,41.88 -87.88,62.81 79.06,-0.04 158.14,-0.02 237.22,-0.02 -12.22,28.22 -24.09,56.6 -36.36,84.8 25.21,-28.32 50.48,-56.58 75.77,-84.82 228.97,0.08 457.97,-0.07 686.95,0.08 -209.92,230.5 -420.01,460.84 -629.91,691.37 -71.63,-71.1 -142.79,-142.71 -214.24,-214.02 -118.38,61.63 -236.61,123.51 -355.03,185.02 40.05,-179.31 80.26,-358.58 120.33,-537.88 0.75,-3.52 1.37,-7.05 1.87,-10.61 -29.23,86.31 -90.71,160.23 -167.52,208.59 -73.67,46.32 -161,71.41 -248.14,69.14 -64.25,-1.57 -128.93,-20.21 -181.49,-57.81 -51.2,-35.87 -87.92,-89.84 -108.22,-148.49 -21.48,-61.99 -22.66,-130.02 -7.31,-193.53 9.6,-40.91 26.03,-79.86 44.77,-117.36 57.56,-112.82 144.67,-210 248.96,-281.64 75.54,-51.46 161.29,-90.65 252.48,-102.76 61.34,-8.06 126.12,-1.91 181.74,26.63 29.82,15.23 56.4,36.66 77.77,62.41zm-134.5 151.18c-35.31,-12.09 -74.07,-5.8 -107.96,7.86 -57.65,23.78 -105.21,67.2 -142.15,116.74 -40.59,54.55 -77.47,113.46 -96.87,179.18 -9.86,35.29 -14.88,74.14 -1.91,109.33 6.99,17.55 18.96,36.27 38.75,40.47 27.9,5.89 56.78,-5.84 77.95,-23.74 24.55,-20.35 38.77,-52.08 38.2,-83.88 -2.11,-6 -5.4,-11.49 -8.27,-17.13 -23.52,-42.5 -51.74,-82.17 -79.62,-121.88 126.68,-0.06 253.38,0 380.08,-0.02 -3.47,-24.63 -7.03,-49.21 -10.52,-73.82 -3.66,-26.03 -10.41,-51.94 -22.9,-75.22 -13.76,-26.15 -36.42,-48.39 -64.78,-57.89z"/>
   <path class="fil1" d="M632.71 284.17c37.54,-12.76 77.45,-19.95 117.16,-16.91 -18.26,3.47 -36.6,6.94 -54.09,13.43 -52.31,18.84 -98.93,50.44 -141.85,85.25 -56.22,45.99 -106.33,98.98 -152.61,154.84 -66,79.98 -123.77,166.69 -172.94,257.96 7.55,-33.48 18.4,-66.22 31.03,-98.1 16.21,-38.97 33.73,-77.49 55.3,-113.85 38.24,-65.66 86.25,-125.75 142.91,-176.47 51.26,-45.51 109.97,-83.82 175.09,-106.15zm662.41 557.78l-0.67 34.41 -2.77 16.59 -166.89 309.78 -28.22 -28.48 198.55 -332.3zm194.37 -74.58l135.13 0.2 -80.72 27.8 23.72 23.2 -283.01 279.67 19.1 -52.04 209.46 -214.43 -23.68 -64.4zm-255.66 0.08l196.18 -0.36 -179.83 27.94 -289.57 317.27 25.37 -64.03 247.85 -280.82zm-407.03 -0.06l177.96 -0.56 -100.55 21.71 22.11 21.13 -112.64 466.88 -47.08 23.5 111.94 -500.04 -51.74 -32.62zm-237.88 -62.81c58.31,0.14 116.62,-0.24 174.93,0.18 -33.51,7.98 -67.05,15.91 -100.57,23.85 -1.91,45.37 -10.35,91.25 -30.21,132.38 -14.54,29.45 -37.52,57.16 -69.52,67.99 23.56,-16.17 43.43,-38.02 55.36,-64.11 13.7,-29.39 17.27,-62.91 12.43,-94.81 -0.74,-5.32 -4.74,-9.3 -7.47,-13.7 -11.67,-17.25 -23.42,-34.44 -34.95,-51.78z"/>
   <path class="fil2" d="M695.78 280.69c17.49,-6.49 35.83,-9.96 54.09,-13.43 35.49,2 70.6,13.91 99.52,34.74 27.76,19.55 49.31,46.66 66.06,75.95 3.34,-10.11 4.93,-20.87 9.32,-30.53 47.75,-21.88 95.95,-42.87 143.82,-64.48 -51.52,97.32 -102.94,194.69 -154.52,291.97 -6.99,-48.03 -24.55,-96.78 -60.1,-131.14 -30.11,-29.93 -73.03,-44.93 -115.15,-44.01 -56.5,1.04 -110.15,25.31 -154.92,58.55 -47.08,34.55 -84.2,80.5 -116.4,128.77 -36.25,54.05 -67.65,112.78 -81.85,176.78 -8.56,39.73 -9.78,82.55 5.52,120.85 11.15,27.36 31.28,53.25 60.22,62.79 37.68,12.88 79.38,2.07 112.16,-18.52 32,-10.83 54.98,-38.54 69.52,-67.99 19.86,-41.13 28.3,-87.01 30.21,-132.38 33.52,-7.94 67.06,-15.87 100.57,-23.85 39.1,-0.42 78.21,-0.1 117.32,-0.14 -28.97,20.79 -58.15,41.3 -87.05,62.19 -10.61,63.15 -40.03,122.74 -82.8,170.31 -72.09,80.08 -178.22,128.08 -285.82,130.51 -62.81,1.17 -127.5,-14.9 -178.12,-53.22 -48.99,-36.58 -81.35,-92.9 -93.52,-152.39 -13.03,-62.77 -3.73,-128.27 16.91,-188.33 27.32,-78.31 73.08,-149.56 129.52,-210.04 49.39,-51.84 107.54,-97.94 175.95,-121.44 -47.57,37.97 -89.62,82.68 -125.58,131.73 -44.53,61.28 -79.86,131.18 -91.25,206.7 -12.63,31.88 -23.48,64.62 -31.03,98.1 49.17,-91.27 106.94,-177.98 172.94,-257.96 46.28,-55.86 96.39,-108.85 152.61,-154.84 42.92,-34.81 89.54,-66.41 141.85,-85.25zm308.98 486.14l-75.14 210.5 100.02 -210 78.94 0.02 -122.6 280.92 -25.37 64.03 289.57 -317.27 179.83 -27.94 -126.3 279.11 -19.1 52.04 283.01 -279.67 -23.72 -23.2 80.72 -27.8 41.38 -0.24 -200.78 210.48 233.62 -210.46 97.38 0.02c-176,193.01 -351.71,386.25 -527.88,579.08l-143.55 -143.72 166.89 -309.78 2.77 -16.59 0.67 -34.41 -45.52 24.99 -231.79 306.48 -9.34 6.53 -194.79 96.6 112.64 -466.88 -22.11 -21.13 100.55 -21.71z"/>
  </g>
 </g>
</svg>
