<?xml version="1.0" encoding="UTF-8"?>
<!DOCTYPE svg PUBLIC "-//W3C//DTD SVG 1.1//EN" "http://www.w3.org/Graphics/SVG/1.1/DTD/svg11.dtd">
<!-- Creator: CorelDRAW -->
<svg xmlns="http://www.w3.org/2000/svg" xml:space="preserve" width="2000px" height="1600px" version="1.1" style="shape-rendering:geometricPrecision; text-rendering:geometricPrecision; image-rendering:optimizeQuality; fill-rule:evenodd; clip-rule:evenodd"
viewBox="0 0 2000 1600"
 xmlns:xlink="http://www.w3.org/1999/xlink">
 <defs>
  <style type="text/css">
   <![CDATA[
    .fil1 {fill:#06133E;fill-rule:nonzero}
    .fil0 {fill:#8D817A;fill-rule:nonzero}
   ]]>
  </style>
 </defs>
 <g id="Capa_x0020_1">
  <metadata id="CorelCorpID_0Corel-Layer"/>
  <g id="Georgetown_x0020_Hoyas.cdr">
   <path class="fil0" d="M504.89 226.21c135.72,-93.83 300.53,-140.97 464.67,-145.62 131.72,-4.9 265.23,20.65 383.79,78.89 104.81,51.01 198.17,126.17 268.74,219.08 14.18,18.4 25.76,38.58 37.78,58.42 -55.05,64.67 -110.15,129.27 -165.2,193.9 99.54,0.04 199.1,-0.02 298.66,0.04 -26.29,27.84 -53.07,55.22 -79.52,82.89 -20.32,25.23 -29.2,58.55 -28.04,90.62 -0.09,231.93 0.18,463.83 -0.12,695.76 -47.81,-21.29 -95.44,-43.42 -145.34,-59.49 -30.96,-9.36 -64.16,-19.63 -96.51,-10.93 -43.35,10.56 -85.01,26.89 -127.7,39.79 -99.21,31.35 -202.82,50.43 -307.07,50.36 -106.54,1.41 -213.57,-14.8 -314.33,-49.71 -90.82,-31.52 -176.56,-78.71 -249.67,-141.35 -71.63,-61.06 -130.5,-137.18 -170.84,-222.28 -56.81,-118.78 -77,-253.69 -63.47,-384.26 9.53,-92.34 37.11,-183 82.29,-264.18 51.1,-92.58 124.9,-172.02 211.88,-231.93zm529.6 220.51c-78.22,-8.79 -158.99,12.99 -223.03,58.54 -63.42,44.65 -110.75,111.14 -133.62,185.16 -17.36,55.39 -20.9,114.88 -11.38,172.09 12.14,71.7 46.22,139.65 97.16,191.65 33.83,34.54 74.87,62.2 120.09,79.49 46.89,18.17 98.01,25.02 148.05,20.16 86.63,-8 168.41,-53.04 223.42,-120.14 -0.16,-27.72 0.12,-55.44 -0.14,-83.14 -55.07,0.07 -110.13,0 -165.2,0.02 -16.81,0.12 -33.78,-0.78 -50.38,2.52 -19.36,3.75 -38.06,10.96 -54.87,21.21 -25.69,17.13 -51.31,34.33 -76.88,51.58 0.02,-31.45 0.05,-62.91 -0.02,-94.36 0.14,-4.09 -0.6,-8.44 1.25,-12.23 40.53,-96.09 81.34,-192.04 121.66,-288.21 94.31,-0.37 188.67,-0.04 282.98,-0.16 -57.78,-100.02 -163.74,-171.93 -279.09,-184.18z"/>
   <path class="fil1" d="M804.89 149.38c75.26,-16.54 152.65,-23.17 229.62,-20.12 124.55,4.49 248.35,39.7 354.87,104.79 76.34,46.63 144.69,107.07 198.03,179.05 4.51,6.17 8.81,12.51 12.95,18.93 -70.04,82.57 -140.56,164.74 -210.52,247.38 96.55,0.09 193.11,0 289.64,0.05 -27.03,31.09 -40.83,72.37 -42.24,113.22 -0.03,191.14 -0.03,382.29 -0.03,573.43 -0.39,19.7 0.81,39.54 -0.58,59.17 -46.1,-20.42 -94.17,-37.76 -144.13,-45.64 -24.07,-4.19 -48.54,-0.44 -71.84,5.94 -39.98,10.8 -78.75,25.5 -118.38,37.48 -56.58,17.76 -114.43,31.79 -173.23,39.86 -86.84,11.96 -175.33,11.77 -262.12,-0.62 -101.6,-14.71 -201.09,-47.1 -289.88,-99.01 -84.57,-49.15 -159.05,-116.44 -213.85,-197.69 -41.06,-60.53 -70.89,-128.55 -88.41,-199.53 -17.2,-70.15 -22.82,-143.03 -17.94,-215.03 5.99,-91.14 30.56,-181.32 74.05,-261.78 46.57,-87.01 114.69,-161.92 195.19,-218.75 83.31,-59.03 179.26,-99.14 278.8,-121.13zm14.34 293.82l0 0c-61.99,34.15 -114.01,85.74 -149.74,146.75 -38.4,65.16 -58.03,141.14 -56.57,216.72 0.85,77.85 24.3,155.4 67.05,220.51 29.62,45.43 68.58,84.81 113.96,114.54 81.44,54.36 184.76,74.59 280.67,54.59 90.55,-18.06 172.79,-71.42 228.49,-144.76 -0.05,-49.85 0.11,-99.7 -0.07,-149.55 -78.82,0.07 -157.64,-0.12 -236.46,0.09 -39.31,-0.09 -77.95,12.39 -111.22,32.97 35.01,-85.48 71.91,-170.22 107.42,-255.51 108.63,-0.21 217.23,-0.02 325.85,-0.09 -20.27,-60.65 -55.28,-116.1 -100.62,-161.09 -77.2,-77.2 -185.41,-124.19 -295.08,-121.92 -60.55,1.2 -120.74,17.36 -173.68,46.75z"/>
  </g>
 </g>
</svg>
