<?xml version="1.0" encoding="UTF-8"?>
<!DOCTYPE svg PUBLIC "-//W3C//DTD SVG 1.1//EN" "http://www.w3.org/Graphics/SVG/1.1/DTD/svg11.dtd">
<!-- Creator: CorelDRAW -->
<svg xmlns="http://www.w3.org/2000/svg" xml:space="preserve" width="2000px" height="1600px" version="1.1" style="shape-rendering:geometricPrecision; text-rendering:geometricPrecision; image-rendering:optimizeQuality; fill-rule:evenodd; clip-rule:evenodd"
viewBox="0 0 2000 1600"
 xmlns:xlink="http://www.w3.org/1999/xlink">
 <defs>
  <style type="text/css">
   <![CDATA[
    .fil1 {fill:#00529D;fill-rule:nonzero}
    .fil0 {fill:#FEFEFE;fill-rule:nonzero}
   ]]>
  </style>
 </defs>
 <g id="Capa_x0020_1">
  <metadata id="CorelCorpID_0Corel-Layer"/>
  <g id="Hampton_x0020_Pirates.cdr">
   <path class="fil0" d="M890.83 219.41c-21.79,-22.9 -31.32,-56.47 -24.81,-87.43 5.96,28.13 23.87,53.32 48.81,67.71 31.9,19.14 73.53,20.16 106.43,2.83 27.43,-13.97 47.43,-40.55 53.92,-70.58 4.54,23.61 0.83,48.88 -11.6,69.56 -15.14,26.08 -42.25,44.44 -71.8,49.85 -36.13,7.25 -75.82,-4.72 -100.95,-31.94zm432.84 1174.78c6.79,1.73 13.48,3.87 20.2,5.94 0.58,2.92 1.15,5.89 1.75,8.86 0.49,-1.93 1.45,-5.8 1.91,-7.76 1.5,0.37 4.51,1.06 6.01,1.43 0.14,6.12 0.16,12.27 0.14,18.43 -1.18,-0.43 -3.52,-1.31 -4.7,-1.75 0.14,-3.45 0.33,-6.85 0.55,-10.26 -1.38,3.7 -2.8,7.37 -4.32,11.05 -1.96,-4.28 -3.27,-8.77 -4.33,-13.33 0.03,2.7 0.07,8.08 0.09,10.75 -6.92,-2 -2.94,-10.77 -4.09,-16.02l-3.87 -0.16c-0.04,4.51 -0.09,9.02 -0.16,13.56 -1.13,-0.42 -3.34,-1.22 -4.44,-1.61 -0.02,-4.38 -0.02,-8.73 -0.09,-13.05 -2.53,-1.29 -4.1,-3.32 -4.65,-6.08zm-73.5 -51.22c7.57,-12.57 24.57,-12.15 37.21,-9.6 12.88,2.42 22.46,11.9 34.01,17.24 -5.8,5.59 -11.83,10.93 -17.97,16.15 -5.07,-8.31 -15.42,-12.1 -24.65,-13.46 -0.25,0.8 -0.73,2.39 -0.99,3.2 10.4,5.98 23.77,8.58 30.68,19.3 5.5,10.15 -1.34,23.8 -11.74,27.69 -12.91,5.15 -27.02,0.51 -39.3,-4.28 -9.28,-3.2 -15.79,-10.89 -24.33,-15.37 6.54,-5.69 12.8,-11.69 19.17,-17.54 -4.6,-6.9 -6.97,-15.83 -2.09,-23.33zm3.45 26.46l0 0c-0.14,0.65 -0.37,1.91 -0.51,2.55 6.08,5.09 13.47,8.5 21.01,10.77 2.49,1.13 8.47,0.53 5.32,-3.26 -7.57,-3.87 -15.65,-6.63 -23.15,-10.68 -0.67,0.16 -2,0.46 -2.67,0.62zm-632.75 -27.15c19.68,-3.87 38.89,-11.76 59.14,-11.26 17.51,0.16 25.06,24.17 14.68,36.57 -7.61,9.62 -20.66,10.93 -31.85,13.39 2.31,6.17 0.67,16.18 8.82,18.02 -11.37,4.19 -23.31,6.67 -35.26,8.54 0.76,-1.29 2.28,-3.87 3.04,-5.16 -3.68,-19.19 -8.74,-38.13 -12.91,-57.23 -1.4,-0.71 -4.23,-2.16 -5.66,-2.87zm35.42 10.4l0 0c0.71,3.22 1.42,6.46 2.14,9.73 5.33,-1.01 10.51,-2.69 15.35,-5.15 -0.42,-1.52 -1.22,-4.54 -1.64,-6.03 -5.11,-2.65 -10.68,0.69 -15.85,1.45zm73.34 -31.92c11.64,-3.38 23.79,-4.51 35.73,-6.38 -0.76,1.36 -2.3,4.08 -3.06,5.44 2.26,19.4 5.99,38.63 8.89,57.96 1.88,0.9 3.79,1.82 5.7,2.77 -12.12,2.41 -24.23,5.01 -36.59,5.86 3.13,-2.85 4.19,-6.56 2.95,-10.54 -3.11,-17.44 -5.09,-35.11 -8.68,-52.44 -1.24,-0.67 -3.7,-2 -4.94,-2.67zm417.23 -11.46c19.68,3.01 39.4,5.98 59.19,8.26 1.13,-0.97 3.41,-2.85 4.54,-3.82 -0.39,8.93 -1.96,17.72 -3.5,26.51 -7.18,-9.34 -20.87,-5.75 -31.16,-8.45 -0.41,2.44 -0.81,4.91 -1.2,7.37 8.06,1.13 16.11,2.21 24.14,3.43 0.99,-1.13 2.95,-3.34 3.91,-4.44 0.07,8.76 -1.77,17.37 -2.64,26.07 -5.94,-9.16 -18.46,-6.03 -27.64,-8.33 -0.25,1.84 -0.76,5.5 -1.01,7.34 10.77,0.18 22.69,6.54 32.56,0.55 -1.22,8.79 -2.48,17.61 -3.82,26.4 -1.89,-2.67 -3.5,-6.03 -7.2,-6.12 -18.44,-3.43 -37.35,-3.87 -55.67,-7.97 3.08,-1.61 5.87,-3.79 5.82,-7.57 2.28,-17.85 5.36,-35.62 7.27,-53.5 -0.89,-1.43 -2.69,-4.3 -3.59,-5.73zm-337.89 -0.37c18.34,-2.25 36.8,-3.75 55.23,-4.97 11.14,-1.13 22.39,7.71 23.34,18.96 1.82,9.78 -4.88,18.21 -12.73,23.04 6.79,7.82 12.36,17.03 21.27,22.73 -12.98,0.81 -25.82,3.43 -38.85,2.97 1.08,-0.96 3.25,-2.9 4.35,-3.84 -4.99,-5.2 -7.64,-16.36 -16.62,-13.92 0.95,6.53 -0.32,14.43 5.78,18.82 -11.9,0.85 -23.75,2.81 -35.71,2.72 1.05,-1.06 3.17,-3.16 4.23,-4.21 -1.75,-19.7 -3.43,-39.4 -5.18,-59.08 -1.29,-0.8 -3.82,-2.41 -5.11,-3.22zm33.76 15.24l0 0c0.23,4.27 0.51,8.58 0.79,12.91 5.86,-0.95 15.09,0.25 16.96,-7.25 -1.22,-8.43 -11.86,-5.07 -17.75,-5.66zm105.88 -24.24c14.09,0 28.17,-0.02 42.25,0.03 -0.8,1.03 -2.44,3.08 -3.24,4.12 6.79,18.11 13.58,36.22 20.66,54.21 1.11,3.68 3.92,6.33 6.66,8.89 -12.2,0.39 -24.58,1.74 -36.69,-0.44 1.22,-0.9 3.64,-2.69 4.84,-3.57 -0.6,-1.38 -1.85,-4.1 -2.44,-5.45 -7.97,-0.69 -15.95,-0.16 -23.89,-0.12 -1.31,3.75 -0.58,7.07 2.74,9.53 -12.06,0.6 -24.17,1.27 -36.2,0.14 2.42,-2.67 5.13,-5.23 6.33,-8.72 7.43,-18.16 15.39,-36.13 22.13,-54.57 -0.78,-1.01 -2.36,-3.03 -3.15,-4.05zm20.42 18.69l0 0c-1.98,6.63 -4.03,13.25 -6.01,19.9 4,-0.04 8.01,-0.06 12.01,-0.06 -2,-6.61 -4.03,-13.21 -6,-19.84zm70.83 -21.26c2.62,1.49 4.81,4.28 8.14,4.05 19.45,1.61 38.94,2.57 58.39,4.23 1.01,-1.01 3.06,-3.01 4.09,-4.03 -0.3,10.31 -1.31,20.62 -2.25,30.91 -4.12,-7.66 -13.7,-4.67 -20.71,-5.69 -1.2,13.51 -1.91,27.07 -3.02,40.6 1.13,1.08 3.38,3.22 4.49,4.3 -12.2,-0.39 -24.42,-0.85 -36.55,-2.41 1.11,-0.99 3.32,-2.95 4.42,-3.94 1.77,-13.42 2.1,-27.02 3.02,-40.52 -7.27,0.16 -15.77,-3.57 -21.84,1.93 0.21,-9.85 1.38,-19.63 1.82,-29.43zm319.25 -281.61c19.51,-0.04 39.05,0 58.59,-0.02 13.9,56.72 27.22,113.64 41.4,170.29 -0.26,-56.75 -0.05,-113.52 -0.12,-170.29 19.7,-0.02 39.38,0.05 59.05,-0.02 -5.31,9 -13.12,16.84 -16.89,26.55 -0.37,100.41 -0.11,200.85 -0.11,301.28 -15.05,-6.03 -30.1,-12.01 -45.13,-18.06 -12.98,-37.9 -25.82,-75.83 -38.92,-113.66 -0.04,33.09 0.05,66.18 -0.04,99.27 -19.91,-6.14 -39.86,-12.22 -59.65,-18.8 5.78,-8.37 11.37,-16.86 17.17,-25.2 -0.23,-74.92 0.27,-149.87 -0.26,-224.8 -3.75,-9.44 -10.31,-17.58 -15.09,-26.54zm-273.6 63.36c0.23,-21.13 0,-42.25 0.12,-63.38 41.21,0.02 82.45,0 123.67,0 0,20 0,40 0,59.99 -11.9,-4.99 -23.82,-9.96 -35.7,-14.95 0.05,56.03 0,112.07 0.03,168.12 6.23,9.12 12.65,18.16 18.82,27.34 -29.96,-2.83 -59.92,-5.96 -89.88,-8.9 6,-7.99 13.3,-15.08 18.48,-23.61 0.55,-54.24 0.11,-108.55 0.2,-162.82 -12.03,5.87 -23.75,12.32 -35.74,18.21zm-150.82 -63.33c24.79,-0.12 49.59,0.02 74.38,-0.07 16.52,0.23 34.52,0.41 48.78,9.92 11.26,7.86 13.35,22.57 13.53,35.3 0.56,24.32 2.77,48.97 -1.33,73.11 -1.45,9.57 -9.02,17 -17.79,20.36 -15.9,6.45 -33.37,4.19 -50.07,4.58 0.23,16.41 -0.44,32.86 0.27,49.27 6.93,11.53 15.86,21.75 23.27,33 -25.09,-1.29 -50.22,-0.25 -75.3,-0.57 -0.02,-60.8 -0.02,-121.6 0,-182.38 -0.09,-5.93 0.41,-11.92 -0.46,-17.81 -4.46,-8.6 -10.38,-16.36 -15.28,-24.71zm67.5 30.81l0 0c-0.03,26.92 0.02,53.83 0,80.75 8.67,0.64 20.02,1.52 24.96,-7.36 4.35,-9.97 2.14,-21.22 2.65,-31.76 -0.62,-10.82 1.77,-22.21 -2.14,-32.56 -4.6,-9.44 -16.68,-8.38 -25.47,-9.07zm-269.64 -30.86c28.81,-0.02 57.6,0.05 86.41,-0.02 7.04,44.85 12.82,89.88 19.29,134.83 5.01,-36.02 9.25,-72.12 13.89,-108.18 -5.75,-8.84 -11.41,-17.75 -17.07,-26.63 30.38,0.02 60.78,0 91.17,0 0,75.14 0,150.27 0,225.41 -14.77,0.69 -29.52,1.26 -44.27,1.93 -0.09,-50.31 0.09,-100.61 -0.09,-150.92 -9.58,51.16 -19.03,102.36 -28.49,153.54 -10.24,0.83 -20.51,1.54 -30.72,2.33 -15.1,-47.04 -29.76,-94.19 -45.02,-141.16 5.07,48.26 10.31,96.49 15.31,144.72 -14.82,2.07 -29.67,4.22 -44.53,6.06 0,-71.69 0.21,-143.42 -0.07,-215.1 -3.52,-9.71 -11,-17.65 -15.81,-26.81zm-131.7 0.02c33.05,-0.04 66.11,0 99.16,-0.02 11.14,81.23 22.3,162.44 33.44,243.68 -17.13,3.11 -34.25,6.35 -51.32,9.71 -1.73,-23.87 -3.22,-47.73 -4.95,-71.59 -9.78,0 -19.54,0 -29.29,-0.05 -2.03,26.97 -3.29,53.99 -5.3,80.96 -17.46,4.12 -34.81,8.77 -52.23,13.16 8.99,-83.69 17.92,-167.39 26.99,-251.06 -5.52,-8.26 -11.02,-16.53 -16.5,-24.79zm62.68 45.2l0 0c-6.02,34.54 -13.57,68.85 -17.14,103.76 9.94,0.02 19.88,0.02 29.82,0 -3.93,-34.61 -8.44,-69.17 -12.68,-103.76zm-235.6 -45.2c23.61,-0.04 47.23,-0.02 70.86,0 0,37.37 0,74.77 0,112.17 8.81,0 17.65,0 26.46,0 0,-37.4 0,-74.8 0,-112.17 17.26,-0.04 34.52,-0.02 51.78,0 0,93.53 -0.02,187.05 0.02,280.59 -17.23,5.76 -34.54,11.21 -51.77,16.92 -0.03,-47.41 -0.03,-94.79 0,-142.17 -8.84,-0.05 -17.68,-0.05 -26.51,0 0.02,50.58 0,101.16 0.02,151.76 -17.4,6.45 -34.59,13.49 -51.73,20.58 -0.12,-98.13 0,-196.25 -0.05,-294.38 0.37,-4.23 -2.55,-7.59 -4.58,-10.98 -4.9,-7.41 -9.66,-14.88 -14.5,-22.32zm835.1 -2.18c22.25,-5.36 47.68,-3.96 67.06,9.2 14.24,9.92 21.42,27.43 21.42,44.46 1.64,52.24 1.43,104.57 0.21,156.83 -0.11,15.17 -3.29,31.5 -14.89,42.28 -15.76,15.37 -39.65,16.36 -60.24,13.6 -19.5,-2.72 -38.9,-13.28 -47.89,-31.42 -5.43,-9.48 -6.56,-20.57 -6.95,-31.27 -1.43,-39.24 -0.95,-78.5 -0.83,-117.73 1.29,-17.56 -1.15,-35.76 4.39,-52.77 5.55,-16.87 20.85,-28.93 37.72,-33.18zm18.3 29.38l0 0c-7.64,3.27 -7.64,12.84 -8.13,19.86 -0.16,53 0.05,106 -0.09,158.97 0.07,6.61 0.02,13.35 1.7,19.79 2.49,9.37 17.15,11.69 22.23,3.36 3,-5.68 2.88,-12.38 3.16,-18.64 0.02,-53.73 -0.05,-107.47 0.02,-161.22 -0.12,-5.73 -0.28,-11.69 -2.51,-17.05 -2.69,-5.96 -10.79,-8.06 -16.38,-5.07zm-932.7 -69.17c416.55,-0.12 833.12,0.02 1249.69,-0.07 -18.2,29.06 -37.21,57.69 -55,86.99 -0.8,114.9 -0.11,229.87 -0.34,344.79 -31.69,-15.9 -63.95,-30.74 -97.02,-43.52 -6.03,-2.46 -12.73,-0.46 -18.57,1.57 -18.85,7.57 -37.81,14.84 -56.64,22.44 6.88,28.35 13.49,56.77 20.37,85.12 -99.83,-36.31 -204.77,-57.97 -310.65,-65.91 -116.26,-8.74 -233.8,-3.45 -348.38,18.43 -58.52,11.1 -115.91,27.44 -172,47.34 6.77,-28.21 13.42,-56.45 20.21,-84.64 -20.18,-7.59 -40.41,-15 -60.59,-22.57 -5.25,-1.78 -11.12,-4.17 -16.57,-1.87 -33.74,12.8 -66.39,28.19 -98.7,44.14 0.02,-69.11 0,-138.21 0,-207.32 -0.35,-45.82 0.67,-91.73 -0.48,-137.48 -17.93,-29.43 -36.96,-58.24 -55.33,-87.44zm27.73 14.98l0 0c13.7,21.68 27.5,43.29 41.31,64.92 1.96,2.64 2.51,5.87 2.35,9.13 -0.07,106.23 -0.05,212.45 -0.02,318.68 75.34,-36.71 155.14,-63.79 236.68,-82.87 109.31,-25.5 221.79,-36.84 334,-35.53 92.74,0.92 185.48,10.68 276.24,29.94 90,19.17 178.21,47.86 261.08,88.09 0.07,-108.43 0,-216.87 0.02,-325.3 14.15,-22.37 28.51,-44.62 42.57,-67.04 -398.07,-0.16 -796.16,-0.11 -1194.23,-0.02zm444.1 295.13l0 0c-99.9,10.8 -198.97,31.97 -293.48,66.3 22.8,9.67 45.75,19.06 68.62,28.61 -6.12,23.49 -12.56,46.87 -18.73,70.35 152.34,-52.61 315.41,-69.62 475.85,-61.13 109.22,5.99 217.97,25.41 321.48,61.08 -6.19,-23.43 -12.42,-46.83 -18.82,-70.21 21.59,-9.9 43.47,-19.12 64.94,-29.23 -85.15,-30.74 -173.95,-50.9 -263.7,-62.43 -111.42,-14.11 -224.46,-15.21 -336.16,-3.34zm371.65 -400.8c45.26,21.79 90.37,43.9 135.59,65.77 4.3,2.3 10.44,3.59 9.94,9.78 -75.9,0.3 -151.77,0.07 -227.66,0.11 27.43,-25.15 54.95,-50.23 82.13,-75.66zm-235.24 -40.37c18.62,-4.6 39.88,0.23 53.39,14.2 9.81,9.76 13.9,24.76 10.29,38.13 -3.77,14.34 -15.79,25.41 -29.5,30.26 -26.4,10.47 -63.19,-2.09 -70.14,-31.55 -6.22,-23.68 13.41,-46.5 35.96,-51.04zm-18.82 -296.58c32.36,2.51 66.37,-8.65 88.64,-32.75 6.93,21.73 26.15,36.68 46.44,45.24 -6.69,15.28 -13.39,30.54 -20.16,45.75 -5.93,0 -11.85,-0.02 -17.76,0.03 0.44,-8.5 -1.8,-18.07 -9.92,-22.35 -23.98,-12.95 -56.08,-3.5 -70.97,18.92 -7.57,-3.09 -16.48,-5.34 -21.4,-12.43 -4.21,-8.58 7.55,-12.68 9.85,-19.84 3.75,-7.82 -0.85,-15.85 -4.72,-22.57zm-87.86 -46.05c7.98,2.16 16.2,5.2 21.68,11.71 9.62,11.9 11.41,30.4 1.81,42.88 -14.98,21.44 -51.29,23.26 -66.69,1.33 -12.7,-16.77 -5.56,-42.43 12.39,-52.4 -4.65,11.37 -8.5,25.25 -0.35,36.06 9.53,15.42 35.25,11.74 41.65,-4.65 6.05,-12.45 0.16,-27.11 -10.49,-34.93zm32.24 -68.02c9.32,-1.98 18.64,-4.1 27.91,-6.33 0.44,15.58 6.35,33.3 21.84,39.83 17.38,6.72 40.41,3.32 51.9,-12.45 5.77,-7.64 7.18,-17.39 8.14,-26.67 4.33,1.01 8.68,2.03 13.03,3.09 -8.06,19.39 -16.09,38.82 -24.21,58.19 -22.33,4.05 -43.8,14.57 -59.17,31.46 -6.49,-7.25 -13.07,-14.4 -19.58,-21.63 3.96,-5.55 8.03,-11.02 12.26,-16.39 -8.99,0 -17.97,0.26 -26.94,0.79 -3.2,-4.74 -6.47,-9.48 -9.71,-14.2 6.12,-5.11 12.21,-10.24 18.27,-15.44 -9.3,-1.15 -18.6,-2.4 -27.92,-3.55 4.65,-5.64 9.35,-11.23 14.18,-16.7zm129.7 -27c21.86,-4.02 43.7,-8.01 65.56,-11.96 2.07,7.52 4.19,15.02 6.26,22.55 -10.77,0.02 -21.54,0.02 -32.31,0.02 3.36,13.33 6.97,26.56 10.29,39.9 11.87,1.04 23.49,-4.34 30.35,-14.1 3.93,15.28 8.1,30.49 12.13,45.77 -3.75,8.47 -7.69,16.87 -11.49,25.31 -11.36,-8.19 -23.68,-15.16 -37.12,-19.3 1.62,-5.32 3.23,-10.61 4.84,-15.91 -7.78,-1.86 -15.58,-3.56 -23.38,-5.27 -8.33,3.25 -16.64,6.49 -24.93,9.79 5.92,-23.36 12.11,-46.65 18.02,-70.03 -6.07,-2.26 -12.17,-4.44 -18.22,-6.77zm-39.54 -48.12c4.74,-1.33 9.69,-3.77 14.66,-2.02 24.21,6.67 48.44,13.3 72.63,20.04 -52.59,11.14 -105.19,22.07 -157.84,32.84 9.11,-8.28 18.75,-15.99 28.21,-23.91 -7.73,-2 -15.44,-4.03 -23.15,-6.05 21.75,-7.25 43.72,-13.76 65.49,-20.9zm0.99 -70.57c2.92,-1.36 6.21,-1.43 9.21,-0.21 26.3,8.37 52.53,16.98 78.93,25.08 5.59,15.14 10.91,30.38 16.09,45.66 -32.04,-9.12 -64,-18.53 -95.97,-27.89 -46.32,15 -92.71,29.75 -139.02,44.83 -13.67,33.98 -27.54,67.9 -41.12,101.94 -2.69,9.18 -13.14,11.67 -20.06,16.87 10.79,-49.09 21.97,-98.1 32.72,-147.21 53.04,-19.79 106.18,-39.31 159.22,-59.07zm291.32 539.91c130.8,-218.29 261.58,-436.61 392.45,-654.88 -3.27,42.15 -12.77,83.6 -22.81,124.61 -25.17,98.67 -66.85,192.17 -113.56,282.34 -39.93,76.93 -80.89,153.35 -122.77,229.25 -12.02,21.6 -24.07,43.21 -36.89,64.36 21.1,10.36 42.18,20.74 63.42,30.79 -9.34,17.86 -18.87,35.63 -28.21,53.48 -75.74,-36.26 -151.63,-72.23 -227.39,-108.45 10.1,-17.45 20.21,-34.91 30.35,-52.33 21.82,10.21 43.61,20.55 65.41,30.83zm33.66 17.77l0 0c9.87,4.65 19.72,9.39 29.55,14.17 16.55,-26.32 31.34,-53.71 46.53,-80.82 27.48,-49.61 54.33,-99.57 80.89,-149.67 39.97,-75.85 81.6,-151.56 108.87,-233.14 -89.08,149.56 -177.24,299.65 -265.84,449.46z"/>
   <path class="fil1" d="M644.09 175.48c80.43,-50.77 172.66,-80.64 266.23,-95.48 -7.71,10.01 -13.67,21.95 -13.51,34.89 -0.94,23.1 14.84,44.07 34.91,54.17 34.38,18.66 83.58,9.43 104.66,-24.79 12.73,-19.58 9.32,-46.07 -4.99,-63.88 92.19,15.26 183.04,44.71 262.41,94.77 86.04,53.68 156.64,132.41 198.41,225.01 0.72,1.31 2.79,7.13 4.24,2.62 60.98,-101.48 121.71,-203.13 182.83,-304.52 -1.06,49.48 -3.27,99.23 -13.14,147.88 -17.44,94.46 -51.32,185.16 -92.97,271.48 -28.17,58.54 -58.98,115.73 -89.5,173.05 17.24,0.02 34.5,-0.07 51.74,0.07 2.83,90.78 -13.81,181.47 -42.35,267.45 44.37,0 88.76,0 133.15,0 -21.7,34.72 -43.97,69.1 -65.84,103.74 -1.49,2.39 -2.14,5.02 -1.88,7.89 0.07,120.03 0,240.07 0.04,360.1 -38.66,-18.57 -76.93,-38.22 -117.2,-53.11 -3.11,-1.18 -6.33,0.32 -9.25,1.29 -14.43,5.73 -28.83,11.53 -43.33,17.09 7.82,33.12 15.78,66.21 23.65,99.35 -42.15,-14.34 -84.08,-29.62 -127.37,-40.34 -49.82,-12.98 -100.56,-22.28 -151.65,-28.45 -50.6,35.14 -103.65,66.83 -158.81,94.24 -55.07,-27.43 -108.07,-58.96 -158.55,-94.1 -58,7.25 -115.55,18.32 -171.79,34.18 -35.67,9.82 -70.42,22.55 -105.4,34.52 7.6,-32.96 15.67,-65.82 23.43,-98.73 -16.57,-6.05 -33.07,-12.31 -49.62,-18.36 -4.85,-2.46 -9.71,1.1 -14.27,2.6 -37.16,14.75 -72.92,32.7 -108.84,50.23 -0.14,-120.19 0,-240.38 -0.05,-360.58 0.32,-3.1 -1.5,-5.7 -3.01,-8.21 -21.98,-34.41 -43.98,-68.83 -65.75,-103.37 44.41,0.09 88.83,-0.05 133.24,0.04 -23.4,-69.5 -38.8,-141.89 -43.17,-215.19 -0.81,-17.44 -1.61,-34.91 -0.48,-52.35 48.16,0 96.3,-0.02 144.44,0 12.52,49.61 27.37,98.72 45.69,146.52 11.39,28.9 23.84,57.69 41.33,83.49 10.81,-10.47 20.8,-21.79 31.73,-32.15 10.81,23.4 21.56,46.85 32.45,70.26 57.8,-0.07 115.61,0.04 173.42,-0.07 -25.48,-48.7 -48.86,-98.47 -71.11,-148.73 -10.82,10.58 -21.08,21.68 -31.73,32.45 -30.17,-46.42 -47.76,-99.49 -64.76,-151.77 31.02,-0.02 62.04,0 93.06,-0.02 0.02,-17.45 0.02,-34.89 0.02,-52.33 17.06,-0.03 34.13,0.02 51.21,-0.03 10.79,24.35 21.67,48.67 32.42,73.05 -26.28,20.61 -52.67,41.07 -78.72,61.99 31.59,0.41 63.19,0.07 94.78,0.18 -13.57,29.74 -27.17,59.45 -40.61,89.22 35.37,-19.83 70.69,-39.74 106.02,-59.65 37.18,19.7 74.14,39.82 111.37,59.42 -13.13,-29.77 -26.9,-59.28 -40.36,-88.92 31.69,-0.23 63.4,0.14 95.09,-0.2 -26.37,-20.67 -52.65,-41.45 -79.07,-62.07 10.86,-24.32 21.65,-48.65 32.45,-72.97 17.14,-0.05 34.26,-0.05 51.41,-0.02 0,17.44 0,34.88 0,52.33 60.93,0.02 121.87,0.02 182.78,0 34.87,-58.11 69.66,-116.26 104.64,-174.3 -15.19,0.02 -30.38,-0.05 -45.56,0.05 -3.43,-61.65 -26.91,-121.35 -64,-170.46 -21.79,-28.76 -47.22,-55.13 -76.82,-75.91 6.33,8.44 13.67,16.06 19.89,24.62 47.45,63.12 70.44,143.11 68.64,221.68 -63.42,0.18 -126.84,-0.37 -190.24,0.6 -5.41,4.74 -10.89,9.38 -16.29,14.15 22.18,19.72 51.68,28.88 80.91,30.79 -31.07,11.97 -65.43,13.76 -97.97,7.57 0.51,16.68 -0.99,33.34 -0.46,50.03 -11.53,6.65 -22.69,13.94 -34.65,19.77 -14.2,7.18 -27.23,16.52 -41.52,23.49 -41.51,0.78 -83.1,0.1 -124.63,0.32 -18.34,-21.19 -37.81,-41.33 -55.85,-62.82 -23.22,10.1 -50.08,14.22 -74.59,6.37 -9.62,-2.89 -18.18,-8.3 -26.3,-14.1 11.25,-7.2 21.49,-16.98 26.09,-29.85 -22.98,-3.4 -46.76,-11.85 -61.81,-30.49 7.97,-4.9 16.39,-8.98 24.28,-13.97 1.89,-0.78 1.31,-2.69 0.97,-4.23l-1.11 3.08c-41.12,-1.15 -82.27,-0.53 -123.39,-0.69 -2.3,-89.38 28.24,-180.53 89.27,-246.67 -38.5,26.67 -70.33,62.48 -95.16,102.04 -27.06,43.42 -43.42,93.52 -46.51,144.65 -50.49,-0.04 -100.98,0.03 -151.47,-0.04 7.9,-50.33 25.85,-98.75 49.55,-143.69 42.57,-80.61 107.38,-148.87 184.56,-197.17zm609.53 1193.95c0.67,-0.16 2,-0.46 2.67,-0.62 7.5,4.05 15.58,6.81 23.15,10.68 3.15,3.79 -2.83,4.39 -5.32,3.26 -7.54,-2.27 -14.93,-5.68 -21.01,-10.77 0.14,-0.64 0.37,-1.9 0.51,-2.55zm-597.33 -16.75c5.17,-0.76 10.74,-4.1 15.85,-1.45 0.42,1.49 1.22,4.51 1.64,6.03 -4.84,2.46 -10.02,4.14 -15.35,5.15 -0.72,-3.27 -1.43,-6.51 -2.14,-9.73zm186.44 -28.51c5.89,0.59 16.53,-2.77 17.75,5.66 -1.87,7.5 -11.1,6.3 -16.96,7.25 -0.28,-4.33 -0.56,-8.64 -0.79,-12.91zm126.3 -5.55c1.97,6.63 4,13.23 6,19.84 -4,0 -8.01,0.02 -12.01,0.06 1.98,-6.65 4.03,-13.27 6.01,-19.9zm-148.57 -34.73c111.7,-11.87 224.74,-10.77 336.16,3.34 89.75,11.53 178.55,31.69 263.7,62.43 -21.47,10.11 -43.35,19.33 -64.94,29.23 6.4,23.38 12.63,46.78 18.82,70.21 -103.51,-35.67 -212.26,-55.09 -321.48,-61.08 -160.44,-8.49 -323.51,8.52 -475.85,61.13 6.17,-23.48 12.61,-46.86 18.73,-70.35 -22.87,-9.55 -45.82,-18.94 -68.62,-28.61 94.51,-34.33 193.58,-55.5 293.48,-66.3zm219.4 13.47l0 0c-0.44,9.8 -1.61,19.58 -1.82,29.43 6.07,-5.5 14.57,-1.77 21.84,-1.93 -0.92,13.5 -1.25,27.1 -3.02,40.52 -1.1,0.99 -3.31,2.95 -4.42,3.94 12.13,1.56 24.35,2.02 36.55,2.41 -1.11,-1.08 -3.36,-3.22 -4.49,-4.3 1.11,-13.53 1.82,-27.09 3.02,-40.6 7.01,1.02 16.59,-1.97 20.71,5.69 0.94,-10.29 1.95,-20.6 2.25,-30.91 -1.03,1.02 -3.08,3.02 -4.09,4.03 -19.45,-1.66 -38.94,-2.62 -58.39,-4.23 -3.33,0.23 -5.52,-2.56 -8.14,-4.05zm-91.25 2.57l0 0c0.79,1.02 2.37,3.04 3.15,4.05 -6.74,18.44 -14.7,36.41 -22.13,54.57 -1.2,3.49 -3.91,6.05 -6.33,8.72 12.03,1.13 24.14,0.46 36.2,-0.14 -3.32,-2.46 -4.05,-5.78 -2.74,-9.53 7.94,-0.04 15.92,-0.57 23.89,0.12 0.59,1.35 1.84,4.07 2.44,5.45 -1.2,0.88 -3.62,2.67 -4.84,3.57 12.11,2.18 24.49,0.83 36.69,0.44 -2.74,-2.56 -5.55,-5.21 -6.66,-8.89 -7.08,-17.99 -13.87,-36.1 -20.66,-54.21 0.8,-1.04 2.44,-3.09 3.24,-4.12 -14.08,-0.05 -28.16,-0.03 -42.25,-0.03zm-139.64 9l0 0c1.29,0.81 3.82,2.42 5.11,3.22 1.75,19.68 3.43,39.38 5.18,59.08 -1.06,1.05 -3.18,3.15 -4.23,4.21 11.96,0.09 23.81,-1.87 35.71,-2.72 -6.1,-4.39 -4.83,-12.29 -5.78,-18.82 8.98,-2.44 11.63,8.72 16.62,13.92 -1.1,0.94 -3.27,2.88 -4.35,3.84 13.03,0.46 25.87,-2.16 38.85,-2.97 -8.91,-5.7 -14.48,-14.91 -21.27,-22.73 7.85,-4.83 14.55,-13.26 12.73,-23.04 -0.95,-11.25 -12.2,-20.09 -23.34,-18.96 -18.43,1.22 -36.89,2.72 -55.23,4.97zm337.89 0.37l0 0c0.9,1.43 2.7,4.3 3.59,5.73 -1.91,17.88 -4.99,35.65 -7.27,53.5 0.05,3.78 -2.74,5.96 -5.82,7.57 18.32,4.1 37.23,4.54 55.67,7.97 3.7,0.09 5.31,3.45 7.2,6.12 1.34,-8.79 2.6,-17.61 3.82,-26.4 -9.87,5.99 -21.79,-0.37 -32.56,-0.55 0.25,-1.84 0.76,-5.5 1.01,-7.34 9.18,2.3 21.7,-0.83 27.64,8.33 0.87,-8.7 2.71,-17.31 2.64,-26.07 -0.96,1.1 -2.92,3.31 -3.91,4.44 -8.03,-1.22 -16.08,-2.3 -24.14,-3.43 0.39,-2.46 0.79,-4.93 1.2,-7.37 10.29,2.7 23.98,-0.89 31.16,8.45 1.54,-8.79 3.11,-17.58 3.5,-26.51 -1.13,0.97 -3.41,2.85 -4.54,3.82 -19.79,-2.28 -39.51,-5.25 -59.19,-8.26zm-417.23 11.46l0 0c1.24,0.67 3.7,2 4.94,2.67 3.59,17.33 5.57,35 8.68,52.44 1.24,3.98 0.18,7.69 -2.95,10.54 12.36,-0.85 24.47,-3.45 36.59,-5.86 -1.91,-0.95 -3.82,-1.87 -5.7,-2.77 -2.9,-19.33 -6.63,-38.56 -8.89,-57.96 0.76,-1.36 2.3,-4.08 3.06,-5.44 -11.94,1.87 -24.09,3 -35.73,6.38zm-108.76 21.52l0 0c1.43,0.71 4.26,2.16 5.66,2.87 4.17,19.1 9.23,38.04 12.91,57.23 -0.76,1.29 -2.28,3.87 -3.04,5.16 11.95,-1.87 23.89,-4.35 35.26,-8.54 -8.15,-1.84 -6.51,-11.85 -8.82,-18.02 11.19,-2.46 24.24,-3.77 31.85,-13.39 10.38,-12.4 2.83,-36.41 -14.68,-36.57 -20.25,-0.5 -39.46,7.39 -59.14,11.26zm629.3 0.69l0 0c-4.88,7.5 -2.51,16.43 2.09,23.33 -6.37,5.85 -12.63,11.85 -19.17,17.54 8.54,4.48 15.05,12.17 24.33,15.37 12.28,4.79 26.39,9.43 39.3,4.28 10.4,-3.89 17.24,-17.54 11.74,-27.69 -6.91,-10.72 -20.28,-13.32 -30.68,-19.3 0.26,-0.81 0.74,-2.4 0.99,-3.2 9.23,1.36 19.58,5.15 24.65,13.46 6.14,-5.22 12.17,-10.56 17.97,-16.15 -11.55,-5.34 -21.13,-14.82 -34.01,-17.24 -12.64,-2.55 -29.64,-2.97 -37.21,9.6zm73.5 51.22l0 0c0.55,2.76 2.12,4.79 4.65,6.08 0.07,4.32 0.07,8.67 0.09,13.05 1.1,0.39 3.31,1.19 4.44,1.61 0.07,-4.54 0.12,-9.05 0.16,-13.56l3.87 0.16c1.15,5.25 -2.83,14.02 4.09,16.02 -0.02,-2.67 -0.06,-8.05 -0.09,-10.75 1.06,4.56 2.37,9.05 4.33,13.33 1.52,-3.68 2.94,-7.35 4.32,-11.05 -0.22,3.41 -0.41,6.81 -0.55,10.26 1.18,0.44 3.52,1.32 4.7,1.75 0.02,-6.16 0,-12.31 -0.14,-18.43 -1.5,-0.37 -4.51,-1.06 -6.01,-1.43 -0.46,1.96 -1.42,5.83 -1.91,7.76 -0.6,-2.97 -1.17,-5.94 -1.75,-8.86 -6.72,-2.07 -13.41,-4.21 -20.2,-5.94zm-660.14 -333.24c4.24,34.59 8.75,69.15 12.68,103.76 -9.94,0.02 -19.88,0.02 -29.82,0 3.57,-34.91 11.12,-69.22 17.14,-103.76zm338.66 -14.36c8.79,0.69 20.87,-0.37 25.47,9.07 3.91,10.35 1.52,21.74 2.14,32.56 -0.51,10.54 1.7,21.79 -2.65,31.76 -4.94,8.88 -16.29,8 -24.96,7.36 0.02,-26.92 -0.03,-53.83 0,-80.75zm279.14 -3.64c5.59,-2.99 13.69,-0.89 16.38,5.07 2.23,5.36 2.39,11.32 2.51,17.05 -0.07,53.75 0,107.49 -0.02,161.22 -0.28,6.26 -0.16,12.96 -3.16,18.64 -5.08,8.33 -19.74,6.01 -22.23,-3.36 -1.68,-6.44 -1.63,-13.18 -1.7,-19.79 0.14,-52.97 -0.07,-105.97 0.09,-158.97 0.49,-7.02 0.49,-16.59 8.13,-19.86zm-904.97 -54.19c398.07,-0.09 796.16,-0.14 1194.23,0.02 -14.06,22.42 -28.42,44.67 -42.57,67.04 -0.02,108.43 0.05,216.87 -0.02,325.3 -82.87,-40.23 -171.08,-68.92 -261.08,-88.09 -90.76,-19.26 -183.5,-29.02 -276.24,-29.94 -112.21,-1.31 -224.69,10.03 -334,35.53 -81.54,19.08 -161.34,46.16 -236.68,82.87 -0.03,-106.23 -0.05,-212.45 0.02,-318.68 0.16,-3.26 -0.39,-6.49 -2.35,-9.13 -13.81,-21.63 -27.61,-43.24 -41.31,-64.92zm886.67 24.81l0 0c-16.87,4.25 -32.17,16.31 -37.72,33.18 -5.54,17.01 -3.1,35.21 -4.39,52.77 -0.12,39.23 -0.6,78.49 0.83,117.73 0.39,10.7 1.52,21.79 6.95,31.27 8.99,18.14 28.39,28.7 47.89,31.42 20.59,2.76 44.48,1.77 60.24,-13.6 11.6,-10.78 14.78,-27.11 14.89,-42.28 1.22,-52.26 1.43,-104.59 -0.21,-156.83 0,-17.03 -7.18,-34.54 -21.42,-44.46 -19.38,-13.16 -44.81,-14.56 -67.06,-9.2zm-835.1 2.18l0 0c4.84,7.44 9.6,14.91 14.5,22.32 2.03,3.39 4.95,6.75 4.58,10.98 0.05,98.13 -0.07,196.25 0.05,294.38 17.14,-7.09 34.33,-14.13 51.73,-20.58 -0.02,-50.6 0,-101.18 -0.02,-151.76 8.83,-0.05 17.67,-0.05 26.51,0 -0.03,47.38 -0.03,94.76 0,142.17 17.23,-5.71 34.54,-11.16 51.77,-16.92 -0.04,-93.54 -0.02,-187.06 -0.02,-280.59 -17.26,-0.02 -34.52,-0.04 -51.78,0 0,37.37 0,74.77 0,112.17 -8.81,0 -17.65,0 -26.46,0 0,-37.4 0,-74.8 0,-112.17 -23.63,-0.02 -47.25,-0.04 -70.86,0zm172.92 0l0 0c5.48,8.26 10.98,16.53 16.5,24.79 -9.07,83.67 -18,167.37 -26.99,251.06 17.42,-4.39 34.77,-9.04 52.23,-13.16 2.01,-26.97 3.27,-53.99 5.3,-80.96 9.75,0.05 19.51,0.05 29.29,0.05 1.73,23.86 3.22,47.72 4.95,71.59 17.07,-3.36 34.19,-6.6 51.32,-9.71 -11.14,-81.24 -22.3,-162.45 -33.44,-243.68 -33.05,0.02 -66.11,-0.02 -99.16,0.02zm131.7 -0.02l0 0c4.81,9.16 12.29,17.1 15.81,26.81 0.28,71.68 0.07,143.41 0.07,215.1 14.86,-1.84 29.71,-3.99 44.53,-6.06 -5,-48.23 -10.24,-96.46 -15.31,-144.72 15.26,46.97 29.92,94.12 45.02,141.16 10.21,-0.79 20.48,-1.5 30.72,-2.33 9.46,-51.18 18.91,-102.38 28.49,-153.54 0.18,50.31 0,100.61 0.09,150.92 14.75,-0.67 29.5,-1.24 44.27,-1.93 0,-75.14 0,-150.27 0,-225.41 -30.39,0 -60.79,0.02 -91.17,0 5.66,8.88 11.32,17.79 17.07,26.63 -4.64,36.06 -8.88,72.16 -13.89,108.18 -6.47,-44.95 -12.25,-89.98 -19.29,-134.83 -28.81,0.07 -57.6,0 -86.41,0.02zm202.14 0.05l0 0c4.9,8.35 10.82,16.11 15.28,24.71 0.87,5.89 0.37,11.88 0.46,17.81 -0.02,60.78 -0.02,121.58 0,182.38 25.08,0.32 50.21,-0.72 75.3,0.57 -7.41,-11.25 -16.34,-21.47 -23.27,-33 -0.71,-16.41 -0.04,-32.86 -0.27,-49.27 16.7,-0.39 34.17,1.87 50.07,-4.58 8.77,-3.36 16.34,-10.79 17.79,-20.36 4.1,-24.14 1.89,-48.79 1.33,-73.11 -0.18,-12.73 -2.27,-27.44 -13.53,-35.3 -14.26,-9.51 -32.26,-9.69 -48.78,-9.92 -24.79,0.09 -49.59,-0.05 -74.38,0.07zm150.82 63.33l0 0c11.99,-5.89 23.71,-12.34 35.74,-18.21 -0.09,54.27 0.35,108.58 -0.2,162.82 -5.18,8.53 -12.48,15.62 -18.48,23.61 29.96,2.94 59.92,6.07 89.88,8.9 -6.17,-9.18 -12.59,-18.22 -18.82,-27.34 -0.03,-56.05 0.02,-112.09 -0.03,-168.12 11.88,4.99 23.8,9.96 35.7,14.95 0,-19.99 0,-39.99 0,-59.99 -41.22,0 -82.46,0.02 -123.67,0 -0.12,21.13 0.11,42.25 -0.12,63.38zm273.6 -63.36l0 0c4.78,8.96 11.34,17.1 15.09,26.54 0.53,74.93 0.03,149.88 0.26,224.8 -5.8,8.34 -11.39,16.83 -17.17,25.2 19.79,6.58 39.74,12.66 59.65,18.8 0.09,-33.09 0,-66.18 0.04,-99.27 13.1,37.83 25.94,75.76 38.92,113.66 15.03,6.05 30.08,12.03 45.13,18.06 0,-100.43 -0.26,-200.87 0.11,-301.28 3.77,-9.71 11.58,-17.55 16.89,-26.55 -19.67,0.07 -39.35,0 -59.05,0.02 0.07,56.77 -0.14,113.54 0.12,170.29 -14.18,-56.65 -27.5,-113.57 -41.4,-170.29 -19.54,0.02 -39.08,-0.02 -58.59,0.02zm-716.22 -325.65c16.96,0 33.9,0 50.86,0 3.94,42.14 7.92,84.28 11.44,126.43 -20.9,-42.06 -41.43,-84.34 -62.3,-126.43zm-68.57 0.05c17.9,-0.09 35.83,-0.02 53.75,-0.05 3.91,44.81 8.36,89.57 12.06,134.37 -21.81,-44.82 -44.23,-89.4 -65.81,-134.32zm335.01 78.04c20.07,-30.33 40.11,-60.67 60.25,-90.95 22.18,30.28 44.43,60.52 66.53,90.88 -20.99,-4.79 -41.86,-10.06 -62.81,-15.03 -3.42,-1.13 -6.92,-0.07 -10.24,0.8 -17.88,4.91 -35.8,9.62 -53.73,14.3zm389.23 75.87c88.6,-149.81 176.76,-299.9 265.84,-449.46 -27.27,81.58 -68.9,157.29 -108.87,233.14 -26.56,50.1 -53.41,100.06 -80.89,149.67 -15.19,27.11 -29.98,54.5 -46.53,80.82 -9.83,-4.78 -19.68,-9.52 -29.55,-14.17zm-407.73 -624.65l0 0c25.13,27.22 64.82,39.19 100.95,31.94 29.55,-5.41 56.66,-23.77 71.8,-49.85 12.43,-20.68 16.14,-45.95 11.6,-69.56 -6.49,30.03 -26.49,56.61 -53.92,70.58 -32.9,17.33 -74.53,16.31 -106.43,-2.83 -24.94,-14.39 -42.85,-39.58 -48.81,-67.71 -6.51,30.96 3.02,64.53 24.81,87.43zm374.07 606.88l0 0c-21.8,-10.28 -43.59,-20.62 -65.41,-30.83 -10.14,17.42 -20.25,34.88 -30.35,52.33 75.76,36.22 151.65,72.19 227.39,108.45 9.34,-17.85 18.87,-35.62 28.21,-53.48 -21.24,-10.05 -42.32,-20.43 -63.42,-30.79 12.82,-21.15 24.87,-42.76 36.89,-64.36 41.88,-75.9 82.84,-152.32 122.77,-229.25 46.71,-90.17 88.39,-183.67 113.56,-282.34 10.04,-41.01 19.54,-82.46 22.81,-124.61 -130.87,218.27 -261.65,436.59 -392.45,654.88zm-291.32 -539.91l0 0c-53.04,19.76 -106.18,39.28 -159.22,59.07 -10.75,49.11 -21.93,98.12 -32.72,147.21 6.92,-5.2 17.37,-7.69 20.06,-16.87 13.58,-34.04 27.45,-67.96 41.12,-101.94 46.31,-15.08 92.7,-29.83 139.02,-44.83 31.97,9.36 63.93,18.77 95.97,27.89 -5.18,-15.28 -10.5,-30.52 -16.09,-45.66 -26.4,-8.1 -52.63,-16.71 -78.93,-25.08 -3,-1.22 -6.29,-1.15 -9.21,0.21zm-0.99 70.57l0 0c-21.77,7.14 -43.74,13.65 -65.49,20.9 7.71,2.02 15.42,4.05 23.15,6.05 -9.46,7.92 -19.1,15.63 -28.21,23.91 52.65,-10.77 105.25,-21.7 157.84,-32.84 -24.19,-6.74 -48.42,-13.37 -72.63,-20.04 -4.97,-1.75 -9.92,0.69 -14.66,2.02zm39.54 48.12l0 0c6.05,2.33 12.15,4.51 18.22,6.77 -5.91,23.38 -12.1,46.67 -18.02,70.03 8.29,-3.3 16.6,-6.54 24.93,-9.79 7.8,1.71 15.6,3.41 23.38,5.27 -1.61,5.3 -3.22,10.59 -4.84,15.91 13.44,4.14 25.76,11.11 37.12,19.3 3.8,-8.44 7.74,-16.84 11.49,-25.31 -4.03,-15.28 -8.2,-30.49 -12.13,-45.77 -6.86,9.76 -18.48,15.14 -30.35,14.1 -3.32,-13.34 -6.93,-26.57 -10.29,-39.9 10.77,0 21.54,0 32.31,-0.02 -2.07,-7.53 -4.19,-15.03 -6.26,-22.55 -21.86,3.95 -43.7,7.94 -65.56,11.96zm-129.7 27l0 0c-4.83,5.47 -9.53,11.06 -14.18,16.7 9.32,1.15 18.62,2.4 27.92,3.55 -6.06,5.2 -12.15,10.33 -18.27,15.44 3.24,4.72 6.51,9.46 9.71,14.2 8.97,-0.53 17.95,-0.79 26.94,-0.79 -4.23,5.37 -8.3,10.84 -12.26,16.39 6.51,7.23 13.09,14.38 19.58,21.63 15.37,-16.89 36.84,-27.41 59.17,-31.46 8.12,-19.37 16.15,-38.8 24.21,-58.19 -4.35,-1.06 -8.7,-2.08 -13.03,-3.09 -0.96,9.28 -2.37,19.03 -8.14,26.67 -11.49,15.77 -34.52,19.17 -51.9,12.45 -15.49,-6.53 -21.4,-24.25 -21.84,-39.83 -9.27,2.23 -18.59,4.35 -27.91,6.33zm-32.24 68.02l0 0c10.65,7.82 16.54,22.48 10.49,34.93 -6.4,16.39 -32.12,20.07 -41.65,4.65 -8.15,-10.81 -4.3,-24.69 0.35,-36.06 -17.95,9.97 -25.09,35.63 -12.39,52.4 15.4,21.93 51.71,20.11 66.69,-1.33 9.6,-12.48 7.81,-30.98 -1.81,-42.88 -5.48,-6.51 -13.7,-9.55 -21.68,-11.71zm87.86 46.05l0 0c3.87,6.72 8.47,14.75 4.72,22.57 -2.3,7.16 -14.06,11.26 -9.85,19.84 4.92,7.09 13.83,9.34 21.4,12.43 14.89,-22.42 46.99,-31.87 70.97,-18.92 8.12,4.28 10.36,13.85 9.92,22.35 5.91,-0.05 11.83,-0.03 17.76,-0.03 6.77,-15.21 13.47,-30.47 20.16,-45.75 -20.29,-8.56 -39.51,-23.51 -46.44,-45.24 -22.27,24.1 -56.28,35.26 -88.64,32.75zm18.82 296.58l0 0c-22.55,4.54 -42.18,27.36 -35.96,51.04 6.95,29.46 43.74,42.02 70.14,31.55 13.71,-4.85 25.73,-15.92 29.5,-30.26 3.61,-13.37 -0.48,-28.37 -10.29,-38.13 -13.51,-13.97 -34.77,-18.8 -53.39,-14.2zm235.24 40.37l0 0c-27.18,25.43 -54.7,50.51 -82.13,75.66 75.89,-0.04 151.76,0.19 227.66,-0.11 0.5,-6.19 -5.64,-7.48 -9.94,-9.78 -45.22,-21.87 -90.33,-43.98 -135.59,-65.77zm-843.48 90.69l0 0c18.37,29.2 37.4,58.01 55.33,87.44 1.15,45.75 0.13,91.66 0.48,137.48 0,69.11 0.02,138.21 0,207.32 32.31,-15.95 64.96,-31.34 98.7,-44.14 5.45,-2.3 11.32,0.09 16.57,1.87 20.18,7.57 40.41,14.98 60.59,22.57 -6.79,28.19 -13.44,56.43 -20.21,84.64 56.09,-19.9 113.48,-36.24 172,-47.34 114.58,-21.88 232.12,-27.17 348.38,-18.43 105.88,7.94 210.82,29.6 310.65,65.91 -6.88,-28.35 -13.49,-56.77 -20.37,-85.12 18.83,-7.6 37.79,-14.87 56.64,-22.44 5.84,-2.03 12.54,-4.03 18.57,-1.57 33.07,12.78 65.33,27.62 97.02,43.52 0.23,-114.92 -0.46,-229.89 0.34,-344.79 17.79,-29.3 36.8,-57.93 55,-86.99 -416.57,0.09 -833.14,-0.05 -1249.69,0.07z"/>
  </g>
 </g>
</svg>
