<?xml version="1.0" encoding="UTF-8"?>
<!DOCTYPE svg PUBLIC "-//W3C//DTD SVG 1.1//EN" "http://www.w3.org/Graphics/SVG/1.1/DTD/svg11.dtd">
<!-- Creator: CorelDRAW -->
<svg xmlns="http://www.w3.org/2000/svg" xml:space="preserve" width="2000px" height="1600px" version="1.1" style="shape-rendering:geometricPrecision; text-rendering:geometricPrecision; image-rendering:optimizeQuality; fill-rule:evenodd; clip-rule:evenodd"
viewBox="0 0 2000 1600"
 xmlns:xlink="http://www.w3.org/1999/xlink">
 <defs>
  <style type="text/css">
   <![CDATA[
    .fil0 {fill:black}
    .fil1 {fill:#D11F2F;fill-rule:nonzero}
    .fil2 {fill:#FEFEFE;fill-rule:nonzero}
   ]]>
  </style>
 </defs>
 <g id="Capa_x0020_1">
  <metadata id="CorelCorpID_0Corel-Layer"/>
  <g id="Hartford_x0020_Hawks.cdr">
   <path class="fil0" d="M663.77 80l380.1 0c14.97,2.59 29.11,11.75 35.46,25.86 6.2,11.64 5.23,25.51 1.69,37.79 -32.75,139.62 -65.87,279.13 -98.62,418.75 64.25,0.06 128.49,0.04 192.74,0 3,-0.19 6.04,0.37 8.45,2.37 8.99,6.21 17.55,13.02 26.62,19.13 9.61,-43.39 20.32,-86.51 30.53,-129.75 26.64,-113.9 53.56,-227.74 80.45,-341.59 4.77,-17.5 20.84,-30.21 38.59,-32.56l379.24 0c16.35,2.49 31.41,13.25 37.23,29.03 6.61,14.52 1.48,30.5 -2.22,45.05 -101.68,431.24 -203.27,862.48 -305.01,1293.7 -3.81,14.23 -5.78,28.96 -10.59,42.93 -5.87,16.08 -21.65,26.68 -38.17,29.29l-378.55 0c-12.78,-3.08 -25.35,-9.5 -32.59,-20.88 -7.83,-11.58 -9.4,-26.52 -5.53,-39.8 30.61,-128.6 60.5,-257.35 91.15,-385.95 2.82,-11.56 5.43,-23.16 7.9,-34.8l0.89 -1.63c4.69,-23.76 11.23,-47.11 16.12,-70.83 -77.08,-0.18 -154.14,0.03 -231.22,-0.1 -21.91,87.64 -41.64,175.83 -63.11,263.56 -11.6,49.91 -23.39,99.77 -35.43,149.56 -8.72,35.87 -16.47,71.98 -25.61,107.75 -4.79,18.1 -21.76,30.69 -39.89,33.12l-377.32 0c-17.65,-3.04 -34.37,-15.3 -39.02,-33.16 -5.84,-15.84 2.3,-31.6 4.44,-47.25l0.82 -1.79c31.66,-135.96 63.43,-271.88 95.25,-407.79 12.45,-51.88 23.49,-104.09 36.86,-155.73 1.96,-5.8 3.64,-11.7 5.21,-17.63 -16.38,-1.42 -32.75,-2.24 -49.17,-2.96 1.07,-0.78 3.19,-2.34 4.26,-3.13 15.37,-0.82 30.84,-0.04 46.16,-1.83 4.98,-19.46 9.38,-39.06 14.01,-58.58 1.15,-5.21 2.49,-10.35 3.89,-15.49 -21.35,-2.21 -42.83,-1.65 -64.18,-3.89 -20.22,-0.74 -40.67,-0.37 -60.69,-3.58 4.3,-1.75 8.85,-2.82 13.52,-2.65 38.03,0.16 75.95,-2.74 113.98,-2.33 5.43,-21.19 10.31,-42.5 15.21,-63.81 1.6,-6.75 3.12,-13.52 4.36,-20.33 -14.32,-1.25 -28.74,-0.1 -43.06,-1.33 -17.57,-2.02 -35.32,-0.7 -52.93,-2.04 -17.3,-2 -34.76,-0.16 -52.07,-2.24 -15.05,-1.75 -30.28,-0.13 -45.33,-1.83 -16.38,-2 -32.92,-0.37 -49.31,-2.1 -9.51,-1.36 -19.16,-0.95 -28.72,-1.09l0 -3.79c31.49,-0.22 63.05,0.11 94.5,-1.97 30.88,-0.27 61.78,-0.04 92.62,-1.89 29.64,-0.29 59.3,0.04 88.95,-1.03 9.79,-39.93 19.38,-79.92 28.55,-120.02 33.57,-141.2 66.38,-282.59 100.12,-423.75 3.66,-18.55 20.16,-32.15 38.47,-34.99z"/>
   <path class="fil1" d="M678.09 136.3c115.57,0.13 231.16,-0.04 346.73,0.09 -33.59,141.82 -66.78,283.72 -100.45,425.52 -33.45,15.26 -67.6,29.04 -100.68,45.09 46.45,-1.96 92.96,-0.31 139.46,-1.36 61.09,0.25 122.21,-0.51 183.31,-0.43 8.68,-0.66 15.04,6.03 21.74,10.41 69.53,48.48 139.41,96.46 208.91,145.01 2.88,16.02 6.5,31.92 9.36,47.97 -7.86,3.89 -15.33,8.5 -22.41,13.66 -4.38,-12.65 -8.94,-25.24 -13.27,-37.89 -1.91,-5.13 -3.68,-10.97 -8.94,-13.56 -62.29,-36.8 -124.65,-73.54 -186.92,-110.41 1.71,43.63 12.51,90.76 45.73,121.54 -22.79,-8.19 -45.19,-17.4 -67.86,-25.86 -0.02,13.54 1.4,27.13 5.18,40.18 7.82,28.04 28.27,51.32 53.74,64.94 -29.85,0.14 -59.7,-0.88 -89.57,-0.49 34.39,20.77 68.89,41.34 103.35,61.96 -20.37,1.73 -40.77,-0.39 -61.16,0.64 -132.89,0.22 -265.82,-1.26 -398.74,-0.27 27.28,15.3 55.46,28.96 83.23,43.4 -27.7,118.58 -55.76,237.07 -83.64,355.6 -10.53,47.11 -22.75,93.83 -32.91,141.02 -115.66,0.23 -231.31,0.08 -346.98,0.08 44.64,-194.54 89.01,-389.17 133.84,-583.65 -17.9,-1.75 -35.82,-3.44 -53.72,-5.21 1.96,-5.8 3.64,-11.7 5.21,-17.63 43.4,2.14 86.77,5.11 130.18,7.12 67.78,3.13 135.58,5.91 203.34,9.65 23.97,1.65 47.98,2.41 71.98,3.15 50.88,-0.85 101.81,-2.8 152.4,-8.62 16.17,-2.2 32.75,-2.88 48.17,-8.68 -50.7,-8.21 -101.91,-12.9 -153.11,-16.67 -24.68,-0.98 -49.37,-2.55 -74.08,-2.14 -32.21,0.4 -64.38,1.79 -96.6,2.06 -26.78,-0.29 -53.49,1.91 -80.25,1.65 -47.6,-0.02 -95.12,2.49 -142.72,2.61 4.23,-17.88 8.1,-35.86 12.44,-53.73 -18.84,-0.91 -37.64,-2.33 -56.49,-2.9 1.15,-5.21 2.49,-10.35 3.89,-15.49 56.72,3.45 113.56,4.42 170.29,7.55 62.5,1.5 124.91,5.24 187.39,8 89.44,2.14 178.8,-4.67 267.84,-12.74 -59.93,-10.59 -120.57,-16.68 -181.3,-19.97 -65.29,-4.4 -130.77,-1.83 -196.11,-0.1 -62.21,0.57 -124.37,2.07 -186.58,2.92 4.05,-19.83 8.95,-39.5 12.59,-59.41 -18.8,-0.19 -37.56,-1.11 -56.28,-2.51 1.6,-6.75 3.12,-13.52 4.36,-20.33 16.48,1.96 33.08,1.11 49.59,2 29.46,2.01 59,1.34 88.46,3.06 30.65,0.68 61.26,2.33 91.92,3.44 76.52,4.3 153.25,4.22 229.8,0.2 51.92,-2.9 103.93,-4.99 155.64,-10.49 -19.15,-3.56 -38.61,-5.2 -57.91,-7.94 -71.05,-7.55 -142.41,-12.36 -213.84,-13.84 -43.9,-2.06 -87.79,0.78 -131.69,0.88 -48.65,1.46 -97.33,1.55 -146,2.29 1.28,-6.73 2.59,-13.46 4.15,-20.1 22,-95.31 43.64,-190.7 65.71,-285.99 15.98,-71.93 33.7,-143.46 50.28,-215.28zm690.64 751.99c2.62,-18.68 11.63,-38.9 29.95,-46.76 11.5,22.51 23.04,44.99 34.57,67.5 -18.31,31.64 -36.42,63.4 -54.62,95.1 -12.24,-26.93 -26.17,-55.38 -51.66,-72.14 -13.76,-9.49 -31.08,-9.28 -47.07,-8.91 -7.69,0.7 -13.76,-4.67 -20.03,-8.17 -9.48,-6.11 -19.91,-10.84 -28.41,-18.37 42.34,0.97 84.73,0.82 127.07,1.73 11.99,6.71 21.21,17.53 32.77,25.04 -7.1,-11.94 -14.83,-23.48 -22.57,-35.02zm4.75 -751.94c115.55,0.02 231.08,-0.07 346.63,0.04 -104.03,442.28 -208.49,884.46 -312.66,1326.71 -115.55,0.14 -231.1,0.04 -346.65,0.04 21.21,-90.33 42.54,-180.64 63.85,-270.94 17.82,-74.82 34.89,-149.91 53.24,-224.56 7.02,-2.27 14.73,-0.95 22.03,-1.3 30.82,1.24 61.64,0.23 92.45,-0.14 5.17,0 10.8,0.51 14.79,4.23 14.14,12 21.99,29.38 29.67,45.84 13.86,30.36 19.89,63.36 28.28,95.45 4.08,-4.57 7.2,-9.85 10.04,-15.24 34.83,-61.06 70.03,-121.93 104.79,-183.03 2.41,-3.17 0.06,-6.77 -1.33,-9.77 -15.15,-29.36 -30.06,-58.81 -45.14,-88.19 -2.18,-4.17 -4.24,-8.52 -4.94,-13.23 -3.18,-18.7 -7.42,-37.19 -10.63,-55.87 -1.36,-5.04 -1.17,-11.52 -6.17,-14.56 -50.71,-37.09 -101.19,-74.51 -151.98,-111.48 37.35,-161.45 75.99,-322.62 113.73,-484z"/>
   <path class="fil2" d="M1270.42 802.04c14.2,11.15 28.39,22.32 42.38,33.71 -13.76,2.51 -30.12,5.78 -42.42,-2.77 -9.34,-8.29 -4.24,-21.44 0.04,-30.94z"/>
  </g>
 </g>
</svg>
