<?xml version="1.0" encoding="UTF-8"?>
<!DOCTYPE svg PUBLIC "-//W3C//DTD SVG 1.1//EN" "http://www.w3.org/Graphics/SVG/1.1/DTD/svg11.dtd">
<!-- Creator: CorelDRAW -->
<svg xmlns="http://www.w3.org/2000/svg" xml:space="preserve" width="2000px" height="1600px" version="1.1" style="shape-rendering:geometricPrecision; text-rendering:geometricPrecision; image-rendering:optimizeQuality; fill-rule:evenodd; clip-rule:evenodd"
viewBox="0 0 2000 1600"
 xmlns:xlink="http://www.w3.org/1999/xlink">
 <defs>
  <style type="text/css">
   <![CDATA[
    .fil0 {fill:black;fill-rule:nonzero}
    .fil2 {fill:#C3151C;fill-rule:nonzero}
    .fil1 {fill:#FBFDFB;fill-rule:nonzero}
   ]]>
  </style>
 </defs>
 <g id="Capa_x0020_1">
  <metadata id="CorelCorpID_0Corel-Layer"/>
  <g id="Harvard_x0020_Crimson.cdr">
   <path class="fil0" d="M389.81 80l1220.24 0c0.03,107.88 0,215.74 0,323.62 -0.75,77.99 2.4,156.14 -3.96,233.98 -5.82,82.48 -15.92,165.34 -40.97,244.44 -31.29,99.66 -83.39,191.7 -145.34,275.4 -64.82,87.33 -139.62,167.63 -224.8,235.4 -60.58,48.9 -127.3,89.56 -195.3,127.16 -51.43,-28.42 -102.02,-58.54 -149.89,-92.68 -103.11,-73.77 -192.53,-165.68 -268.28,-267.12 -60.33,-81.36 -111.82,-170.27 -143.59,-266.78 -33.66,-99.26 -42.09,-204.61 -48.11,-308.56l0 -504.86z"/>
   <path class="fil1" d="M401.44 91.63c398.65,-0.36 797.33,-0.08 1196.01,-0.11 0.14,130.06 0.03,260.14 0.05,390.23 -0.67,48.14 1.9,96.44 -2.62,144.44 -5.74,90.99 -16.73,182.69 -46.72,269.27 -35.56,104.67 -94.19,200.01 -162.16,286.64 -69.92,88.39 -150.47,168.82 -242.15,234.59 -45.13,32.44 -92.85,61.03 -141.35,88.08 -3.49,2.88 -7.11,-1.14 -10.27,-2.42 -50.34,-28.43 -99.99,-58.38 -146.51,-92.77 -54.86,-40.22 -105.65,-85.85 -152.56,-135.08 -58.35,-61.72 -111.18,-128.77 -156.22,-200.82 -50.35,-80.82 -89.59,-169.3 -109.25,-262.73 -16.57,-78.01 -22.43,-157.78 -26.36,-237.27 0.05,-160.69 -0.14,-321.37 0.11,-482.05zm311.27 165.45c60.19,-0.03 120.38,-0.08 180.57,0 0,32.3 0.08,64.57 -0.06,96.87 -13.92,0.14 -27.81,0.03 -41.7,0.05 -0.14,81.11 -0.05,162.22 -0.02,243.3 98.7,0.06 197.41,-0.06 296.12,0.08 0.33,-81.1 0.11,-162.21 0.11,-243.32 -13.92,-0.11 -27.84,0.03 -41.76,-0.11 -0.05,-32.3 -0.05,-64.6 0,-96.87 60.19,-0.03 120.36,-0.08 180.55,0.03 0.05,32.27 0.11,64.54 -0.03,96.84 -14,0.28 -27.98,-0.34 -41.95,0.39 0.44,194.4 0.03,388.83 0.22,583.23 13.92,0.09 27.87,-0.08 41.78,0.11 -0.02,32.25 0.11,64.46 -0.05,96.7 -60.16,0.23 -120.33,0.03 -180.49,0.12 -0.11,-32.27 -0.03,-64.57 -0.05,-96.84 13.89,-0.11 27.75,-0.11 41.64,0 0.42,-81.11 0.11,-162.22 0.17,-243.35 -98.77,-0.06 -197.5,0 -296.24,-0.03 -0.11,81.11 -0.05,162.21 -0.02,243.29 13.91,0.09 27.83,-0.08 41.78,0.11 0,32.28 0.11,64.55 -0.06,96.82 -60.19,-0.12 -120.35,0.14 -180.51,-0.14 -0.06,-32.22 -0.03,-64.46 -0.03,-96.68 13.97,-0.3 27.95,0.26 41.95,-0.36 -0.28,-194.43 0,-388.86 -0.14,-583.29 -13.92,-0.08 -27.86,0.06 -41.78,-0.05 -0.09,-32.3 -0.06,-64.6 0,-96.9zm-299.19 -153.37l0 0c0.03,154.77 -0.06,309.54 0.03,464.28 2.53,67.27 7.64,134.6 18.54,201.07 14.76,93.01 48.09,182.57 94.86,264.15 48,83.85 107.27,160.94 173.4,231.25 46.61,49.4 97.48,94.83 152.18,135.11 46.8,34.47 96.53,64.7 147.23,92.99 43.99,-24.8 87.39,-50.79 128.75,-79.83 89.2,-62.75 168.16,-139.4 236.71,-224.08 73.19,-90.64 136.28,-191.19 173.24,-302.26 27.8,-82.75 38.21,-170.05 44.09,-256.76 4.61,-52.91 2.76,-106.02 3.13,-159.07 0.03,-122.27 -0.06,-244.58 0.05,-366.85 -390.75,0 -781.48,-0.03 -1172.21,0z"/>
   <path class="fil2" d="M438.12 128.22c374.36,-0.64 748.71,-0.05 1123.07,-0.27 0,116.05 -0.03,232.08 0,348.14 -0.17,38.51 0.56,77.03 -1.23,115.52 -4.35,77.4 -10.62,155.19 -29.03,230.72 -27.39,112.96 -84.15,216.85 -153.49,309.42 -70.09,94.08 -152.7,179.34 -247.39,248.82 -39.53,29.23 -81.59,54.81 -124.04,79.55 -2.9,1.28 -6.55,4.46 -9.65,1.76 -43.68,-25.22 -86.71,-51.74 -127.49,-81.5 -56.84,-41.84 -109.44,-89.34 -157.5,-141.02 -63.73,-68.89 -120.94,-144.2 -166.88,-226.12 -40.52,-72.51 -70.34,-151.31 -85.2,-233.14 -11.16,-59.8 -15.96,-120.55 -19.69,-181.21 -1.48,-20.47 -0.2,-41.03 -1.73,-61.53 0.14,-136.39 -0.37,-272.78 0.25,-409.14zm250.82 105.18l0 0c0.03,48.11 -0.08,96.2 0.06,144.31 13.89,0.14 27.78,-0.11 41.7,0.11 0.16,178.68 0.05,357.32 0.05,535.96 -13.94,0.17 -27.89,-0.19 -41.83,0.23 0.11,48.08 -0.06,96.17 0.08,144.25 76.17,0.08 152.34,0 228.51,0.03 0.09,-48.14 0.31,-96.28 0,-144.42 -14.08,-0.09 -28.19,-0.03 -42.28,0 -0.03,-65.3 -0.17,-130.56 0.06,-195.83 82.89,0 165.75,-0.11 248.65,0.06 0.22,65.23 0.05,130.47 0.08,195.68 -13.94,0.14 -27.86,-0.11 -41.81,0.17 0,48.08 -0.05,96.2 0.03,144.28 75.97,0.17 151.92,0 227.9,0.09 0.28,-48.14 0.17,-96.31 0.08,-144.45 -13.91,-0.12 -27.81,-0.03 -41.72,0 -0.11,-178.7 0,-357.4 -0.09,-536.1 13.92,-0.09 27.84,0 41.73,0 0.28,-48.14 0.17,-96.31 0.08,-144.45 -76,0 -152.01,-0.2 -228.01,0.08 0.03,48.11 -0.05,96.2 0.06,144.28 13.89,0.17 27.78,-0.08 41.7,0.17 0.16,65.24 0.05,130.45 0.05,195.69 -82.92,0.08 -165.87,-0.06 -248.79,0.05 -0.11,-65.26 0,-130.53 -0.06,-195.82 14.12,-0.09 28.23,0.02 42.37,-0.03 0.09,-48.14 0.25,-96.28 -0.03,-144.45 -76.2,0.06 -152.37,-0.17 -228.57,0.11z"/>
  </g>
 </g>
</svg>
