<?xml version="1.0" encoding="UTF-8"?>
<!DOCTYPE svg PUBLIC "-//W3C//DTD SVG 1.1//EN" "http://www.w3.org/Graphics/SVG/1.1/DTD/svg11.dtd">
<!-- Creator: CorelDRAW -->
<svg xmlns="http://www.w3.org/2000/svg" xml:space="preserve" width="2000px" height="1600px" version="1.1" style="shape-rendering:geometricPrecision; text-rendering:geometricPrecision; image-rendering:optimizeQuality; fill-rule:evenodd; clip-rule:evenodd"
viewBox="0 0 2000 1600"
 xmlns:xlink="http://www.w3.org/1999/xlink">
 <defs>
  <style type="text/css">
   <![CDATA[
    .fil1 {fill:black}
    .fil0 {fill:#C2C5CA}
    .fil2 {fill:#FEFEFE}
    .fil3 {fill:#017543;fill-rule:nonzero}
   ]]>
  </style>
 </defs>
 <g id="Capa_x0020_1">
  <metadata id="CorelCorpID_0Corel-Layer"/>
  <g id="Hawaii_x0020_Warriors.cdr">
   <path class="fil0" d="M390.53 1113.6c-0.08,-192.93 -0.15,-385.87 0.04,-578.81 -28.17,-29.24 -56.7,-58.13 -84.13,-88.07l-136.98 -149.49 199.21 -37.75c124.05,-23.5 248.02,-47.43 372.06,-70.97l190.08 -36.06 0 390.39c44.79,-2.57 89.7,-2.88 134.47,-0.58l0 -394.87 189.21 35.45c123.93,23.1 247.65,47.37 371.53,70.76l201.04 37.96 -139.27 149.87c-27.47,29.57 -55.44,58.66 -83.57,87.59 -0.07,192.84 0.09,385.67 -0.05,578.51 28.82,32.98 57.67,65.93 86.55,98.86l209.28 238.65 -312.98 -52.85c-124.35,-20.99 -248.46,-43.35 -372.71,-64.93l-93.74 -16.28 0.14 -95.14c0.12,-83.34 0.01,-166.69 0.04,-250.03 -50.73,-5.63 -102.09,-6.53 -152.99,-4.77 -31.1,1.08 -62.15,3.45 -93.1,6.8 -0.1,84.95 0.38,169.9 -0.12,254.85l-0.55 94.62 -93.26 16.02c-124.06,21.3 -248.01,43.24 -371.98,65.03l-308.75 54.26 203.23 -238.69c28.74,-33.76 58,-67.06 87.3,-100.33z"/>
   <path class="fil1" d="M818.34 917.91c-0.47,101.48 0.33,202.97 -0.26,304.45l-0.28 47.31 -46.63 8.01c-124.13,21.31 -248.15,43.27 -372.19,65.06l-154.37 27.13 101.61 -119.33c33.15,-38.93 66.99,-77.26 100.79,-115.63 -0.09,-207.59 -0.18,-415.18 0.05,-622.77 -32.91,-34.6 -66.72,-68.35 -98.99,-103.56l-68.49 -74.74 99.6 -18.88c124.06,-23.51 248.03,-47.43 372.08,-70.97l126.44 -24.06 0 383.75c39.82,-4.02 79.83,-6.27 119.81,-6.49 39.99,0.22 79.99,2.47 119.82,6.49l0 -383.75 126.44 24.06c124.04,23.54 248.02,47.46 372.07,70.97l99.6 18.88 -68.49 74.74c-32.27,35.21 -66.08,68.96 -98.98,103.56 0.22,207.59 0.14,415.18 0.05,622.77 33.79,38.37 67.64,76.7 100.78,115.63l101.61 119.33 -154.37 -27.13c-124.04,-21.79 -248.06,-43.75 -372.19,-65.06l-46.63 -8.01 -0.27 -47.31c-0.59,-101.48 0.2,-202.97 -0.27,-304.45 -48.91,-6.77 -98.11,-11.59 -147.46,-13.3 -10.56,-0.37 -21.13,-0.62 -31.71,-0.75 -10.58,0.13 -21.15,0.38 -31.7,0.75 -49.36,1.71 -98.56,6.53 -147.47,13.3z"/>
   <path class="fil2" d="M792.11 899.26c-0.73,109.57 0.24,219.16 -0.4,328.74l-0.13 23.65 -23.32 4c-124.16,21.32 -248.22,43.29 -372.3,65.09l-77.18 13.56 50.8 -59.66c35.35,-41.52 71.5,-82.34 107.53,-123.28 -0.1,-214.88 -0.19,-429.77 0.06,-644.65 -35.23,-37.37 -71.72,-73.53 -106.42,-111.41l-34.25 -37.37 49.8 -9.43c124.06,-23.51 248.04,-47.44 372.09,-70.98l33.49 -6.35 0 34.09c0,114.82 0.05,229.65 -0.01,344.48 137.17,-22.96 278.71,-26.67 415.32,0.67 0.49,-116.95 -0.2,-233.91 0.24,-350.87l0.13 -33.84 33.27 6.2c123.88,23.09 247.53,47.34 371.34,70.73l50.26 9.49 -34.82 37.46c-34.82,37.48 -70.46,74.18 -106.2,110.77 -0.12,213.31 0.1,426.62 -0.09,639.94 0.03,1.57 -0.04,3.14 -0.1,4.68 35.84,41.07 71.75,82.08 107.69,123.06l52.32 59.66 -78.25 -13.21c-124.21,-20.97 -248.2,-43.31 -372.31,-64.87l-23.43 -4.07 0.03 -23.78c0.15,-107.5 -0.07,-215 0.12,-322.51 -78.95,-16.26 -160.3,-19.84 -240.69,-17.05 -58.49,2.02 -116.74,8.32 -174.59,17.06z"/>
   <path class="fil3" d="M1236.28 303.36c123.86,23.08 247.49,47.33 371.28,70.71 -37.27,40.1 -75.48,79.32 -113.75,118.48 -0.13,217.26 0.1,434.52 -0.1,651.81 0.36,6.62 -1.86,14.51 3.91,19.5 36.84,42.22 73.75,84.37 110.69,126.49 -124.15,-20.96 -248.11,-43.29 -372.19,-64.84 0.16,-115.06 -0.1,-230.14 0.16,-345.19 -88.19,-20.97 -179.6,-25.76 -269.94,-22.63 -67.62,2.35 -134.91,10.27 -201.65,21.09 -1.07,117.57 0.1,235.2 -0.58,352.76 -124.18,21.32 -248.3,43.29 -372.42,65.1 37.56,-44.11 76.03,-87.43 114.27,-130.92 -0.09,-222.16 -0.19,-444.31 0.07,-666.46 -37.49,-40.2 -76.71,-78.8 -113.85,-119.32 124.05,-23.51 248.04,-47.44 372.09,-70.98 0,126.08 0.07,252.15 -0.03,378.22 155.15,-29.6 317.25,-35.18 471.62,2.02 0.82,-128.61 -0.06,-257.23 0.42,-385.84zm-678.12 798.62l94.63 -94.63 -94.63 -94.64 0 189.27zm0 -378.54l0 189.27 94.63 -94.63 -94.63 -94.64zm0 0l94.63 -94.63 -94.63 -94.63 0 189.26zm889.94 0l0 -189.26 -94.63 94.63 94.63 94.63zm0 0l-94.63 94.64c31.54,31.54 63.09,63.09 94.63,94.63l0 -189.27zm0 378.54l0 -189.27 -94.63 94.64 94.63 94.63z"/>
  </g>
 </g>
</svg>
