<?xml version="1.0" encoding="UTF-8"?>
<!DOCTYPE svg PUBLIC "-//W3C//DTD SVG 1.1//EN" "http://www.w3.org/Graphics/SVG/1.1/DTD/svg11.dtd">
<!-- Creator: CorelDRAW -->
<svg xmlns="http://www.w3.org/2000/svg" xml:space="preserve" width="2000px" height="1600px" version="1.1" style="shape-rendering:geometricPrecision; text-rendering:geometricPrecision; image-rendering:optimizeQuality; fill-rule:evenodd; clip-rule:evenodd"
viewBox="0 0 2000 1600"
 xmlns:xlink="http://www.w3.org/1999/xlink">
 <defs>
  <style type="text/css">
   <![CDATA[
    .fil0 {fill:black}
    .fil1 {fill:#662C91;fill-rule:nonzero}
    .fil3 {fill:#ADB1B5;fill-rule:nonzero}
    .fil2 {fill:#FEFEFE;fill-rule:nonzero}
   ]]>
  </style>
 </defs>
 <g id="Capa_x0020_1">
  <metadata id="CorelCorpID_0Corel-Layer"/>
  <g id="Holy_x0020_Cross_x0020_Crusaders.cdr">
   <path class="fil0" d="M889.6 571.09c-0.51,-0.84 -0.98,-1.69 -1.43,-2.55 -0.95,22.33 -3.18,44.57 -4.79,66.85 0.73,-0.63 1.48,-1.26 2.23,-1.89 0.68,-17.02 5.99,-34.23 16.99,-47.26 -5.24,-4.18 -9.66,-9.36 -13,-15.15zm204.34 478.66c-7.71,15.37 -16.89,30.01 -27.02,43.85 -23.56,32.19 -56.26,57.71 -93.61,71.86 -6.53,2.87 -12.41,1.93 -18.91,-0.39 -0.2,-0.07 -0.37,-0.14 -0.57,-0.22 -28.31,-11.31 -54.15,-28.73 -75,-51.01 -14.36,-15.34 -26.46,-32.56 -36.7,-50.86l-3.36 0.06c-11.12,0.17 -22.23,-0.28 -33.35,-0.59 -8.75,-0.24 -17.48,-1.74 -25.23,-6.01 -12.89,-7.11 -23.35,-17.41 -33.3,-28.09 -13.82,-14.83 -26.38,-30.86 -40.76,-45.16 -4.06,-4.04 -8.75,-7.46 -13.17,-11.17l-4.69 0c-25.67,-0.04 -51.35,0.08 -77.02,-0.07l-7.53 -0.05 0.04 -7.53c0.02,-2.74 0.06,-5.47 0.08,-8.21l0.04 -7.3 7.29 -0.18c3.99,-0.1 10.98,0.41 14.43,-1.95 1.86,-1.7 2.15,-6.61 2.33,-9.03 0.17,-9.25 0.03,-18.5 0.09,-27.75l0 -0.28 0.02 -0.28c0.08,-0.99 -0.58,-2.33 -1.03,-3.16 -11.15,-20.54 -22.06,-41.21 -33.2,-61.76 -2.12,-3.9 -4.88,-9.21 -8.81,-11.57 -3.08,-1.46 -8.72,-1.44 -12.11,-1.87l-6.75 -0.87 0.19 -6.8c0.07,-2.6 0.16,-5.19 0.25,-7.78l0.25 -7.3 7.31 0.03c3.29,0.02 6.59,0.03 9.89,0.04l1.78 -3.32c6.52,-12.12 16.83,-21.51 28.17,-29.06l0.18 -0.12 0.2 -0.12c0.22,-0.13 0.4,-0.31 0.56,-0.51 0.82,-1 1.48,-2.71 1.96,-3.9 0.79,-1.92 1.55,-3.8 2.57,-5.6 17.03,-33.92 38.99,-67.04 72.28,-86.85 15.26,-9.07 32.77,-14.49 50.52,-15.15 5.62,-8.86 12.67,-16.75 22.32,-21.38 8.91,-4.27 18.76,-5.12 28.46,-4.22 -0.96,-20.6 -1.92,-41.19 -2.81,-61.79 -0.34,-4.26 0.8,-7.75 2.12,-11.72 11.7,-40.1 22.07,-80.57 34.06,-120.58 2.58,-15.23 25.65,-14.87 28.47,0.17 8.82,32.65 18.21,65.14 27.71,97.59 0.15,-2.11 0.44,-4.22 0.89,-6.32 3.84,-20.24 18.24,-36.58 35.16,-47.49 19.14,-12.33 41.94,-15.32 64.18,-16.85 35.42,-2.42 70.18,7.59 101.98,22.09 16.03,6.93 31.18,17.42 47.98,22.24 8.83,2.53 19.48,1.08 26.45,-5.21l0.08 -0.07 0.09 -0.08c2.19,-1.87 2.39,-6.14 2.36,-8.81l-0.08 -5.46 5.17 -1.77c6.91,-2.36 14.37,-3.13 19.35,3.63 6.99,9.5 9.33,21.61 8.42,33.25 14.3,-0.17 28.23,5.28 39.89,13.35 10.98,7.58 21.1,17.3 23.88,30.87 3.36,14.36 -1.12,29.39 -10.17,40.74 3.85,6.22 2.97,15.33 -2.38,21.23 -17.66,20.87 -43.3,31.03 -69.39,36.77 0.12,0.23 0.24,0.46 0.36,0.69 24.8,-0.85 50.15,4.18 71.4,17.35 16.45,10.19 29.69,24.95 39.09,41.78 32.46,1.74 64.92,9.43 93.37,25.44 20.94,11.78 39.44,28.5 50.87,49.84l4.74 8.85c0.55,0.34 1.1,0.69 1.65,1.05 11.47,7.56 19.08,20.91 18.53,34.77 0.41,12.24 -5.37,24.17 -14.48,32.2 -5.85,5.15 -12.71,8.79 -20,11.29 10.21,13.09 19.67,26.73 29.81,39.87 3.66,4.74 9.26,12.55 16.07,11.85l8.36 -0.87 -0.05 8.4c-0.02,2.66 -0.02,5.32 0.01,7.98l0.1 7.62 -7.61 0.01c-12.96,0.01 -25.91,-0.06 -38.86,0.03l-2.89 0.02 -2.16 -1.92c-4.47,-3.96 -8.55,-8.32 -12.36,-12.92 -13.19,-15.93 -22.81,-34.76 -36.68,-50.02l-0.11 -0.12c-1.91,-2.2 -5.65,-2.81 -9.35,-2.92 0.01,11.9 0.02,23.8 -0.02,35.69 -0.01,1.9 0.28,5.59 1.93,6.95 3.48,2.14 9.61,1.82 13.54,1.89l7.39 0.13 0 7.39c0,2.69 0.02,5.37 0.07,8.06l0.14 7.62 -7.62 0.05c-25.09,0.15 -50.17,0.01 -75.26,0.07l-7.5 0.01 -0.04 -7.49c-0.02,-2.17 -0.02,-4.33 -0.01,-6.5l-2.05 1.13c-22,12.16 -47.87,15.9 -72.71,15.5 -1.15,-0.02 -2.29,-0.06 -3.44,-0.11l-12.27 5.17c-12.66,5.33 -24.93,11.6 -36.61,18.82 -1.42,0.96 -2.94,1.74 -4.53,2.39 -3.14,1.28 -7.17,1.97 -10.04,3.48 -1.56,0.91 -3.05,1.92 -4.49,3.01 -4.74,3.59 -8.93,7.98 -13.01,12.29 -9.15,9.66 -17.8,18.86 -30.67,23.45 -3.07,1.21 -5.99,2.86 -9.07,4.12l-6.04 2.46zm-576.79 -216.71c-2.19,1.55 -2.47,6.03 -2.47,8.4 -0.06,31.63 0,63.25 0,94.88l0 0.09 0 0.1c-0.1,3.68 1.31,8.82 5.14,10.21 8.62,3.12 18.52,2.19 27.17,-0.33 11.01,-3.19 18.14,-14.29 23,-23.97l2.09 -4.15 4.64 0c4.65,0 9.31,0 13.96,0l9.68 0 -2.38 9.38c-3.28,12.92 -6.38,25.87 -9.78,38.76l-1.48 5.61 -5.8 0c-41.73,0 -83.47,0 -125.2,0l-7.53 0 0 -7.53c0,-2.74 0,-5.49 0,-8.23l0 -7.24 7.24 -0.28c3.03,-0.12 9.84,0.21 12.19,-2.09 2.02,-2.26 2.03,-7.58 2.13,-10.48 -0.02,-30.96 -0.02,-61.93 0,-92.89 -0.08,-2.65 -0.15,-8.31 -2.36,-10.16 -2.85,-1.89 -8.71,-1.66 -11.99,-1.79l-7.21 -0.31 0 -7.21c0,-2.64 0,-5.28 0,-7.92l0 -7.52 7.52 0c25.02,-0.02 50.03,0.05 75.05,-0.04l7.35 -0.02 0.2 7.34c0.07,2.58 0.12,5.16 0.21,7.74l0.25 7.3 -7.29 0.47c-3.94,0.25 -10.87,-0.15 -14.33,1.88zm-348.35 1.84c-2.3,13.14 -1.4,26.86 -1.35,40.3 18.25,0.02 36.51,0.01 54.76,0.01 -0.02,-11.3 -0.04,-22.61 0.02,-33.91 0.02,-2.34 -0.27,-6.67 -2.4,-8.2 -3.03,-1.92 -8.74,-1.66 -12.21,-1.73l-7.39 -0.14 0 -7.39c0,-2.64 0,-5.28 0,-7.93l0 -7.51 7.52 -0.01c25.01,-0.04 50.01,0.07 75.01,-0.06l7.31 -0.03 0.25 7.3c0.09,2.6 0.18,5.19 0.26,7.78l0.25 7.2 -7.19 0.56c-3.79,0.29 -11.02,-0.04 -14.32,2.27 -1.81,2.26 -1.98,7.2 -2.14,9.95 -0.05,30.95 0.02,61.9 -0.03,92.85 0.09,2.82 0.14,8.22 2.21,10.35 3.04,2.57 9.95,2.1 13.66,2.14l7.45 0.08 0 7.45c0,2.71 0,5.43 0.03,8.15l0.1 7.6 -7.6 0.02c-25.08,0.07 -50.16,0.02 -75.23,0.04l-7.54 0 0 -7.53c0,-2.75 0,-5.5 0,-8.25l0 -7.11 7.11 -0.4c3.43,-0.2 10.09,0.17 12.83,-1.73 1.71,-1.24 2.01,-5.24 2.06,-7.17 0.02,-12.71 -0.05,-25.42 0,-38.13 -18.28,-0.08 -36.56,-0.01 -54.84,-0.02 -0.01,11.44 -0.11,22.88 0.05,34.32 0.18,2.55 0.23,8.56 1.99,10.17l0.08 0.08 0.08 0.07c2.63,2.55 10.17,2.23 13.64,2.46l7.06 0.48 -0.04 7.08c-0.02,2.72 -0.02,5.43 -0.02,8.15l0 7.53 -7.53 0c-25.06,0 -50.11,0 -75.17,0l-7.53 0 0 -7.53c0,-2.76 0,-5.51 0,-8.27l0 -7.33 7.33 -0.19c3.63,-0.1 10.19,0.25 13.3,-1.98 2.14,-1.99 2.13,-7.85 2.23,-10.58 0.02,-30.4 -0.02,-60.8 0.02,-91.19 -0.09,-3.23 -0.02,-8.69 -2.06,-11.49 -3.15,-2.32 -10.04,-1.95 -13.65,-2.12l-7.17 -0.33 0 -7.19c0,-2.64 0,-5.28 0,-7.93l0 -7.51 7.52 -0.01c25,-0.04 50,0.07 75.01,-0.06l7.31 -0.03 0.25 7.3c0.08,2.59 0.17,5.18 0.26,7.76l0.25 7.39 -7.38 0.38c-2.45,0.13 -4.91,0.18 -7.35,0.44 -2.32,0.25 -6.33,0.59 -7.07,3.33zm1645.53 12.52c2.27,4.46 7.14,7.64 11.43,9.94 18.34,9.84 37.56,17.3 53.83,30.68l0.12 0.1c8.35,7.16 16.06,15.21 18.84,26.19 4.79,17.61 -2.63,37.2 -17.38,47.78 -14.55,10.45 -32.78,13.05 -50.28,12.6 -18.67,0.15 -37.36,-3.68 -54.41,-11.27l-4.11 -1.83 -0.34 -4.49c-0.88,-11.72 -1.69,-23.46 -2.42,-35.2l-0.48 -7.93 7.94 -0.06c4.95,-0.03 9.91,-0.03 14.86,-0.05l5.77 -0.02 1.51 5.58c2.69,9.9 6.78,21.15 15.51,27.3 9.55,6.19 22.84,6.55 32.92,1.41 8.86,-4.87 8.41,-19.78 0.48,-25.35l-0.07 -0.05 -0.08 -0.06c-2.19,-1.61 -4.47,-3.11 -6.8,-4.52 -6.38,-3.85 -13.16,-7.02 -19.9,-10.17 -13.03,-6.07 -25.79,-12.03 -36.61,-21.71 -10.23,-9.16 -16.06,-23.13 -14.2,-36.86 1.33,-13.36 8.64,-25.98 19.87,-33.21 15.68,-10.52 34.95,-11.85 53.26,-10.56 14.31,1.02 27.81,5.98 40.61,12.23l3.98 1.94 0.23 4.43c0.57,10.72 1.13,21.43 1.76,32.15l0.48 8.09 -8.11 -0.12c-4.59,-0.07 -9.18,-0.07 -13.76,-0.11l-6 -0.04 -1.29 -5.85c-1.91,-8.6 -5.15,-18.12 -12.14,-23.92 -8.31,-6.89 -21.77,-8.1 -30.71,-1.77 -4.4,3.12 -6.56,9.74 -4.31,14.73zm-129.31 101.11c9.55,4.28 21.77,4.49 30.88,-1.04 7.88,-5.35 7.01,-19.05 -0.33,-24.54 -2.04,-1.53 -4.16,-2.95 -6.34,-4.28 -6.35,-3.9 -13.15,-7.09 -19.91,-10.23 -13.48,-6.27 -26.7,-12.35 -37.72,-22.6 -10.68,-9.4 -16.08,-24.28 -13.57,-38.33 2.18,-18.23 16.57,-32.97 33.79,-38.2 26.32,-8 55.26,-3.93 79.59,8.38l3.72 1.89 0.37 4.15c0.97,10.81 1.15,21.65 2.03,32.46l0.67 8.17 -8.2 -0.03c-4.6,-0.02 -9.19,-0.02 -13.79,0.01l-6.15 0.05 -1.27 -6.01c-2.1,-9.9 -6.44,-21.24 -15.79,-26.4 -8.56,-4.71 -21.22,-5.05 -28.65,2.03 -4.29,4.09 -4.95,12.55 -0.41,16.71l0.12 0.11 0.12 0.11c6.7,6.69 17.01,10.5 25.37,14.7 17.75,8.92 35.6,18.04 48.54,33.62 10.88,13.11 11.77,32.53 3.94,47.36 -7.01,13.28 -20.57,21.65 -34.83,25.23l-0.12 0.03 -0.12 0.02c-27.63,5.94 -57.16,2.86 -83.09,-8.32l-4.17 -1.8 -0.35 -4.54c-0.9,-11.76 -1.69,-23.53 -2.5,-35.3l-0.56 -8.04 8.07 0c4.94,0 9.88,0 14.81,-0.02l5.77 -0.02 1.52 5.56c2.95,10.76 7.81,23.87 18.56,29.11zm-1404.39 -56.04c-0.48,-18.89 5.81,-37.85 17.39,-52.61 12.93,-17.13 32.58,-28.61 53.54,-32.74 21.77,-4.3 45.18,-1.45 64.63,9.51 16.81,9.48 30.1,25.09 36.2,43.45 9.28,27.9 2.88,59.87 -15.35,82.76 -29.68,37.24 -89.59,42.52 -126.41,13.05 -18.94,-15.15 -30.35,-39.16 -30,-63.42zm1249.18 -85.22c23.09,-4.72 48.1,-1.32 68.31,11.12 17.74,10.92 30.89,28.95 35.49,49.31 6.32,28.03 -2.02,58.7 -21.52,79.78 -33.78,36.52 -98.53,36.85 -131.75,-0.42 -27.61,-29.78 -27.48,-79.37 -1.25,-109.78 12.8,-15.47 31.1,-26 50.72,-30.01zm-163.55 24.5c-0.03,16.4 -0.05,32.81 0.01,49.21 10.78,0.08 22.39,0.11 31.76,-4.54 14.86,-7.38 12.59,-33.21 -1.44,-40.37l-0.16 -0.08 -0.16 -0.09c-8.35,-4.79 -19.76,-4.32 -30.01,-4.13zm-1036.67 57.03c0.55,17.73 4.23,37.07 16.24,50.81l0.1 0.12c7.3,8.69 19.46,13.78 30.74,11.26l0.18 -0.04 0.19 -0.03c10.29,-1.76 18.49,-10.05 22.91,-19.14 7.89,-16.21 8.38,-35.15 6.66,-52.75 -2.03,-15.36 -6.63,-32.37 -18.63,-43.06l-0.12 -0.11c-7.48,-6.96 -18.82,-8.66 -28.5,-6.2 -8.5,2.16 -15.55,8.43 -19.99,15.83 -7.72,12.88 -9.83,28.52 -9.78,43.31zm1208.3 -59c-8.82,2.5 -16.01,9.18 -20.38,17.08 -7.55,13.65 -9.43,29.88 -8.76,45.24 0.74,16.97 5.04,35.02 16.52,48.05 7.91,8.97 21.03,13.85 32.72,10.3l0.13 -0.04 0.14 -0.04c11.24,-2.97 19.13,-13.44 22.99,-23.9 5.97,-16.16 6.2,-34.06 3.92,-50.8 -2.17,-13.86 -6.67,-28.71 -17.02,-38.74l-0.1 -0.09c-7.68,-7.71 -19.88,-9.96 -30.16,-7.06z"/>
   <path class="fil1" d="M963.25 805.28c1.6,-0.53 3.2,-0.28 4.78,0.7 44.78,20.77 94.74,27.17 143.64,28.23 0.51,56.29 -1.3,113.39 -16.12,168.02 -8.52,29.55 -23.32,57.09 -41.33,81.88 -21.89,29.72 -52.12,53.44 -86.75,66.44 -2.37,1.16 -4.9,0.12 -7.17,-0.69 -26.1,-10.43 -49.94,-26.48 -69.16,-47.02 -21.32,-22.76 -37.32,-50.05 -49.52,-78.63 -12.79,-32.48 -17.78,-67.38 -20.95,-101.94 -2.67,-29.29 -2.95,-58.73 -2.69,-88.13 49.5,-0.92 100.08,-7.58 145.27,-28.86zm-98.99 -51.77c0.32,-6.39 0.06,-12.86 1.53,-19.12 2.87,-0.31 5.47,1.48 8.06,2.5 9.99,5.05 19.8,10.46 29.37,16.28 18.02,10.78 33.39,25.34 48.09,40.19 -2.55,0.88 -5.06,1.77 -7.6,2.63 -18.72,-18.16 -38.47,-36.19 -62.05,-47.83 19.92,15.78 40.13,31.36 57.97,49.52 -1.75,0.65 -3.53,1.3 -5.27,1.97 -21.45,-17.95 -43.7,-36 -70.1,-46.14zm1.85 -23.6c0.35,-2.2 0.72,-4.38 1.25,-6.54 8.23,4.92 17.39,9.42 23.27,17.25 -8.62,-2.55 -16.13,-7.63 -24.52,-10.71zm3.99 -29.74c12.17,8.71 22.56,19.61 33.57,29.68 -1.63,0.85 -3.48,3.66 -5.41,1.85 -6.95,-4.75 -12,-12.03 -19.96,-15.31 5.82,6.22 12.94,11.14 18.27,17.83 0.31,4.13 -4.73,1.68 -6.33,0.31 -7.67,-5.22 -15.13,-10.74 -22.74,-16 0.83,-6.12 1.69,-12.24 2.6,-18.36zm261.13 3.71c11.48,-4.06 23,-8.97 35.34,-9.53 20.89,-1.05 42.03,2.09 61.6,9.53 -19.73,-2.04 -39.81,-4.85 -59.49,-0.63 -8.46,2.13 -17.69,3.09 -24.9,8.44 22.39,-6.07 45.99,-8.74 68.97,-4.47 20.3,2.69 39.01,13.53 52.83,28.42 -16.66,-6.89 -33.26,-14.67 -51.32,-17 -14.84,-1.94 -30.1,-4.24 -44.98,-1.74 1.06,1.54 2.48,2.3 4.27,2.28 19.86,0.53 39.71,2.85 59.06,7.35 14.35,3.82 29.4,8.57 40.16,19.35 11.34,11.27 21.31,24.4 27.26,39.35 -4.52,-4.82 -8.72,-9.95 -13.6,-14.44 -10.85,-10.16 -23.89,-17.49 -36.54,-25.16 -19.45,-11.52 -42.03,-15.78 -64.04,-19.38 -16.22,-2.6 -32.8,-2.13 -48.96,0.6 -3.89,0.77 -8.12,0.84 -11.55,3.04l-2.03 1.37 0.39 -2.23c-26.41,6.45 -51.91,16.93 -74.79,31.7 -18.32,11.26 -35.56,24.38 -50.4,39.99 -1.46,-0.72 -2.92,-1.42 -4.36,-2.14 17.34,-18.03 37.49,-32.99 58.31,-46.69 -19.27,9.58 -37.23,22.16 -52.42,37.46 -3.75,3.34 -6.44,9.14 -12.31,8.63 8.81,-13.73 21.3,-24.97 34.71,-34.17 34.19,-23.35 69.38,-46.37 108.79,-59.93zm-425.9 -10.53c14.28,-10.08 32.81,-10.59 49.59,-9.18 18.53,2.14 37.1,7.65 51.98,19.31 0.28,9.95 0.49,19.9 0.95,29.86 -17.25,-7.85 -35.54,-14.3 -54.62,-15.28 -40.22,-2.11 -81.38,14.7 -107.78,45.28 -4.96,5.55 -8.63,12.11 -13.8,17.48 2.69,-9.01 8.7,-16.5 14.63,-23.6 9.9,-11.2 20.4,-22.41 33.81,-29.41 9.55,-5.48 20.14,-8.81 29.76,-14.13 -21.49,4.23 -41.45,15.47 -55.98,31.86 -2.63,3.13 -5.48,6.05 -8.61,8.67 3.39,-8.19 9.32,-14.81 15.7,-20.8 11.71,-13.58 28.82,-20.3 44.83,-27.33 10.67,-4.84 22.51,-5.28 33.99,-6.23 -8.32,-2.46 -17.15,-1.37 -25.43,0.62 -15.98,4.15 -30.25,12.73 -44.76,20.35 5.33,-8.39 14.37,-13.1 22.69,-17.96 18.94,-11.13 42.06,-13.57 63.41,-9.64 -15.45,-9.17 -34.03,-3.05 -50.36,0.13zm382.83 -14.7c14.88,-8.04 31.97,-15.5 49.2,-12.28 -9.9,2.6 -20.15,4.4 -29.24,9.36 -9.43,5.06 -19.2,10.25 -26.43,18.3 3.36,-1.3 6.61,-2.91 9.53,-5.04 13.75,-10.25 30.33,-16.6 47.32,-18.75 6.61,-0.86 12.08,3.64 15.92,8.48 -19.65,-1.16 -39.43,5.13 -55.13,16.9 6.73,-0.14 12.25,-4.26 18.27,-6.7 11.96,-5.26 25.46,-8.55 38.42,-5.49 3.73,0.67 4.77,4.96 6.95,7.47 -20.75,2.61 -41.54,6.23 -61.06,14 -20.15,7.63 -38.69,18.98 -55.87,31.88 -4.23,3.13 -8.19,7 -13.47,8.25 8.62,-11.57 21.81,-18.57 31.2,-29.35 -7.95,3.22 -14.42,9 -21.17,14.12 -5.33,4.06 -9.62,9.62 -15.99,12.19 6.75,-13.4 22.14,-19.19 31.06,-30.93 -2.17,0.72 -4.45,1.3 -6.19,2.85 -9.45,7.5 -18.66,15.33 -27.88,23.12 -0.79,-0.58 -2.37,-1.72 -3.18,-2.29 5.31,-9.83 14.46,-16.47 22.49,-23.88 13.84,-12.34 28.51,-24.04 45.25,-32.21zm-312.72 -19.22c10.36,-3.56 23.99,-3.66 31.11,6.01 0.1,10.71 0.32,21.42 0.93,32.11 -15.26,-10.52 -33.78,-14.23 -51.66,-17.48 -2.62,-2.65 2.14,-6.19 4.53,-7.31 8.2,-1.43 16.55,1.42 24.16,4.29 4.84,1.6 9.2,6.03 14.62,4.74 -4.75,-2.37 -9.45,-4.85 -14.23,-7.17 -7.03,-3.38 -14.89,-4.08 -22.45,-5.5 2.63,-4.01 6.84,-7.62 12.02,-6.53 10.36,1.73 19.42,7.44 28.84,11.75 -5.73,-9.76 -18.65,-10.08 -27.87,-14.91zm155.72 -155.34c21.24,-13.48 47.57,-13.96 71.84,-12.06 20.64,1.67 41.04,6.51 59.94,15.02 22.39,8.99 42.59,23.69 66.63,28.24 15.94,3.18 34.77,-0.3 45.2,-13.71 2.34,22.52 -17.97,40.9 -38.69,44.87 5.73,5.44 12.91,8.99 18.94,14.09 10.64,8.42 23.6,16.6 37.84,13.93 10.87,-0.72 21.3,-9.01 22.49,-20.16 1.01,-8.51 -3.67,-16.02 -7.33,-23.31 9.22,0.91 16.39,7.47 22.72,13.64 7.62,7.48 12.05,18.84 8.69,29.35 -6.7,20.17 -28.16,33.82 -49.19,32.94 2.47,3.89 7.27,4.38 11.36,5.24 7.51,1.6 15.23,1.34 22.85,0.93 -14.13,14.74 -34.17,22.46 -54.2,24.51 -17.2,1.59 -34.66,0.3 -51.44,-3.85 -16.07,-4.15 -29.93,-13.87 -42.68,-24.18 -11.55,-9.54 -23.44,-18.72 -33.85,-29.56 -13.89,-13.1 -33.18,-24.67 -52.91,-19.85 -1.52,3.46 -0.85,7.58 -2.64,10.92 -11.63,15.09 -41.85,8.86 -44,-10.96 -12.73,0.87 -25.9,-3.64 -35.05,-12.62 -6.84,-6.61 -8.91,-16.95 -7.47,-26.08 4.57,-16.07 16.48,-29.33 30.95,-37.34zm0.4 16.13l0 0c-8.67,8.04 -15.81,19.93 -13.57,32.13 2.76,11.18 14.68,16.72 25.14,18.31 7.78,0.91 17.03,2.42 23.41,-3.29 -5.47,-3.15 -12.54,-5.19 -15.12,-11.59 -3.17,-6.6 0.33,-14.9 7.01,-17.66 15.53,-7.1 33.49,-6.75 49.79,-2.62 26.99,6.12 51.87,19.05 78.81,25.38 16.08,3.62 33.1,0.86 47.8,-6.3 5.4,-2.67 11.36,-5.04 14.93,-10.18 -7.35,0.35 -14.52,2.6 -21.91,2.2 -18.87,-0.34 -36.24,-8.53 -53.34,-15.65 -29.42,-12.66 -59.98,-24.81 -92.34,-26.47 -17.95,-0.89 -37.15,3.1 -50.61,15.74zm49.88 35.89l0 0c-5.14,4.4 -10.86,11.98 -6.04,18.57 -2.55,2.83 -4.97,6.56 -9.14,6.93 -5.45,0.88 -9.92,-2.85 -14.46,-5.12 -2.37,1.85 -4.27,5.21 -2.83,8.22 4.75,9.79 19.17,14.29 27.84,6.86 6.33,-4.23 7.42,-12.24 7.14,-19.24 15.26,-5.63 32.2,-2.03 46.69,4.18 23.95,10.78 42.43,29.98 61.41,47.52 19.11,15.03 43.34,28.03 68.44,22.91 7.28,-2.18 15.88,-4.78 19.61,-12.06 -11.91,1.37 -24.1,0.74 -35.32,-3.68 22.88,0.51 44.32,-10.41 62.12,-23.98 5.73,-4.38 11.71,-9.89 12.25,-17.59 -3.83,1.94 -6.85,4.94 -9.74,8.02 -7.86,8.26 -19.29,12.15 -30.46,12.89 -22.17,1.56 -45.14,-4.22 -63.23,-17.32 -11.52,-8.34 -23.27,-16.37 -35.32,-23.92 -19.99,-12.52 -43.11,-20.66 -66.77,-21.45 -11.02,0.33 -23.19,1.18 -32.19,8.26zm-57.09 277.04l0 0c0,18.2 0.02,36.4 0,54.62 -25.83,-2.92 -51.43,-7.79 -76.47,-14.79 -0.06,20.7 0.05,41.41 -0.06,62.13 23.9,11.5 50.21,16.9 76.45,19.54 0.19,52.54 0.07,105.09 0.07,157.63 26.67,0.07 53.37,0.05 80.04,0 -0.01,-52.54 -0.1,-105.09 0.06,-157.61 26.23,-2.69 52.58,-8.04 76.48,-19.58 -0.15,-20.71 0,-41.43 -0.08,-62.14 -25.04,7.01 -50.64,11.9 -76.47,14.82 -0.02,-18.22 0,-36.42 0,-54.62 -26.68,0 -53.34,0.02 -80.02,0z"/>
   <path class="fil2" d="M1306.83 816.01c30.02,-0.02 60.04,0.03 90.08,-0.02 12.9,-0.28 26.34,2.13 37.29,9.3 9.36,6.23 15.71,17.09 15.14,28.47 0.44,10.11 -4.39,19.98 -11.92,26.57 -7.86,6.97 -17.99,10.71 -28.17,12.61 13.08,15.69 24.48,32.68 37,48.8 5.57,7.33 12.45,15.81 22.81,14.74 -0.02,2.69 -0.02,5.4 0.02,8.12 -12.98,0.02 -25.94,-0.05 -38.9,0.04 -19.91,-17.68 -30.72,-42.86 -48.47,-62.38 -5.66,-6.51 -14.86,-5.4 -22.56,-5.38 0,14.35 -0.02,28.72 -0.02,43.07 -0.07,4.74 1.09,10.2 5.16,13.15 5.22,3.43 11.72,3.13 17.7,3.24 0,2.72 0.02,5.45 0.07,8.19 -25.07,0.16 -50.15,0.02 -75.23,0.07 -0.01,-2.74 -0.01,-5.49 0,-8.23 6.09,-0.3 13.19,0.26 18.05,-4.17 3.71,-4.27 4.13,-10.25 4.37,-15.65 0.02,-31.09 -0.01,-62.18 0.02,-93.25 -0.19,-5.42 -0.47,-11.73 -5.01,-15.42 -4.89,-3.94 -11.54,-3.52 -17.43,-3.93 -0.01,-2.65 -0.01,-5.29 0,-7.94zm-113.3 154.2c4.2,-0.3 8.25,1.87 12.38,2.69 -13.06,5.51 -25.73,11.98 -37.79,19.45 -4.27,2.94 -9.64,3.18 -14.14,5.61 -17.69,10.25 -27.29,31.25 -47.13,38.27 -3.16,1.23 -6.13,2.92 -9.28,4.2 2.32,-3.04 5.61,-5.03 8.6,-7.35 13.63,-11.19 23.17,-26.66 37.58,-37.02 4.57,-3.5 10.34,-4.25 15.75,-5.59 11.31,-6.81 22.2,-14.37 34.03,-20.26zm-498.61 -6.75c6.77,0.45 12.08,5.06 16.97,9.3 22.72,20.66 40.73,46.07 64.34,65.82 6.23,4.94 13.07,10.01 21.23,10.83 5.12,0 9.56,-3.48 11.76,-7.93 4.17,-8.09 5.05,-17.33 5.88,-26.25 2.32,0.53 4.66,1.09 7,1.63 4.48,13.4 10.46,26.22 16.98,38.76 -11.02,0.18 -22.01,-0.35 -33.02,-0.58 -7.49,-0.28 -15.18,-1.35 -21.81,-5.08 -12.15,-6.63 -22.07,-16.58 -31.42,-26.62 -13.9,-14.92 -26.49,-31.01 -40.96,-45.37 -5.27,-5.28 -11.52,-9.43 -16.95,-14.51zm229.43 -130.31c26.68,0.02 53.34,0 80.02,0 0,18.2 -0.02,36.4 0,54.62 25.83,-2.92 51.43,-7.81 76.47,-14.82 0.08,20.71 -0.07,41.43 0.08,62.14 -23.9,11.54 -50.25,16.89 -76.48,19.58 -0.16,52.52 -0.07,105.07 -0.06,157.61 -26.67,0.05 -53.37,0.07 -80.04,0 0,-52.54 0.12,-105.09 -0.07,-157.63 -26.24,-2.64 -52.55,-8.04 -76.45,-19.54 0.11,-20.72 0,-41.43 0.06,-62.13 25.04,7 50.64,11.87 76.47,14.79 0.02,-18.22 0,-36.42 0,-54.62zm-350.07 -9.48c0.07,-2.58 0.16,-5.15 0.25,-7.72 24.58,0.13 49.15,0.02 73.73,0.06 -0.01,2.72 -0.01,5.45 0,8.19 -5.29,0.28 -11.41,-0.21 -15.63,3.66 -3.34,4.78 -0.42,10.46 1.72,15.05 8.85,16.97 18.22,33.66 27.1,50.63 8.41,-14.33 17.03,-28.52 25.27,-42.93 2.89,-5.85 6.55,-13.15 3.19,-19.53 -2.96,-5.49 -9.64,-6.49 -15.23,-7.02 -0.04,-2.67 -0.07,-5.35 -0.09,-8.02 17.16,-0.09 34.33,-0.02 51.49,-0.03 -0.02,2.67 0,5.36 0,8.05 -4.89,0.37 -10.18,0.86 -14.02,4.27 -6.22,5.19 -9.88,12.63 -14.05,19.43 -10.67,18.64 -21.94,36.95 -32.34,55.73 -0.21,14.18 -1.16,28.58 0.94,42.66 2.11,9.96 13.92,10.38 22.1,10.2 0,2.75 -0.02,5.49 0,8.25 -25.67,-0.03 -51.33,0.09 -76.99,-0.07 0.02,-2.74 0.05,-5.49 0.07,-8.21 6.35,-0.16 13.46,0.46 18.87,-3.54 4.31,-3.5 4.82,-9.47 5.22,-14.61 0.18,-9.36 0.04,-18.71 0.09,-28.06 0.21,-2.64 -0.67,-5.1 -1.91,-7.36 -11.14,-20.55 -22.14,-41.18 -33.21,-61.76 -3.06,-5.46 -6.24,-11.39 -11.85,-14.61 -4.53,-2.3 -9.79,-2.07 -14.72,-2.71zm-118.14 -7.66c25.03,-0.02 50.05,0.05 75.08,-0.04 0.07,2.59 0.12,5.19 0.21,7.79 -6,0.39 -12.58,-0.23 -17.9,3.04 -4.84,3.19 -5.88,9.38 -5.95,14.74 0,31.64 0,63.25 0,94.89 -0.17,7.07 3.04,14.88 10.11,17.48 10.19,3.64 21.56,2.71 31.83,-0.18 13.28,-3.95 21.7,-16.02 27.63,-27.82 4.64,0 9.3,0 13.96,0 -3.27,12.89 -6.36,25.82 -9.76,38.69 -41.73,0 -83.47,0 -125.21,0 0,-2.76 0,-5.5 0,-8.23 5.91,-0.23 12.88,0.19 17.36,-4.41 3.87,-4.15 4.01,-10.22 4.2,-15.55 -0.01,-31.04 -0.01,-62.07 0,-93.13 -0.17,-5.65 -0.52,-12.38 -5.41,-16.11 -4.68,-3.3 -10.69,-3.02 -16.15,-3.25 0,-2.66 0,-5.28 0,-7.91zm-348.18 0c25,-0.04 50.01,0.07 75.03,-0.06 0.09,2.59 0.18,5.17 0.27,7.76 -7.78,0.4 -19.21,0.09 -21.41,9.74 -2.88,16.27 -1.07,32.92 -1.58,49.36 23.3,0.04 46.6,0.02 69.9,0.02 -0.01,-13.8 0,-27.59 0.02,-41.4 0.09,-5.27 -1.09,-11.3 -5.73,-14.49 -4.79,-3.13 -10.78,-2.9 -16.27,-3 0,-2.66 0,-5.3 0,-7.93 25.01,-0.04 50.03,0.07 75.04,-0.06 0.09,2.59 0.17,5.17 0.26,7.78 -6.38,0.49 -13.63,-0.13 -18.88,4.23 -3.89,3.99 -4.21,10.01 -4.52,15.27 -0.06,31.07 0.01,62.14 -0.04,93.2 0.19,5.43 0.42,11.71 4.61,15.74 5.08,4.55 12.36,4.08 18.71,4.15 0,2.74 0,5.49 0.03,8.25 -25.07,0.07 -50.15,0.01 -75.21,0.03 0,-2.76 0,-5.5 0,-8.25 5.65,-0.31 11.94,0.25 16.83,-3.14 4.1,-2.98 5.05,-8.41 5.17,-13.16 0.02,-15.24 -0.09,-30.49 0.04,-45.72 -23.32,-0.16 -46.64,-0.04 -69.96,-0.07 0.07,14.07 -0.12,28.12 0.07,42.19 0.46,5.26 0.2,11.5 4.43,15.38 4.84,4.7 12.16,4.15 18.38,4.58 -0.02,2.72 -0.02,5.45 -0.02,8.19 -25.06,0 -50.12,0 -75.17,0 0,-2.76 0,-5.52 0,-8.26 6.01,-0.16 12.8,0.22 17.83,-3.64 4.71,-3.96 4.8,-10.68 5.03,-16.31 0.01,-30.49 -0.02,-60.96 0.01,-91.44 -0.17,-5.73 -0.21,-12.13 -4.22,-16.7 -5.08,-4.54 -12.32,-4.01 -18.65,-4.31 0,-2.66 0,-5.3 0,-7.93zm1686.99 6.56c14.15,-9.5 32.04,-10.49 48.53,-9.31 13.32,0.93 25.96,5.68 37.85,11.49 0.56,10.72 1.12,21.45 1.76,32.19 -4.63,-0.07 -9.24,-0.07 -13.83,-0.1 -2.3,-10.39 -6.27,-21.09 -14.68,-28.08 -10.94,-9.04 -28.17,-10.49 -39.87,-2.12 -7.43,5.19 -10.58,15.85 -6.73,24.13 3.02,6.07 8.79,10.18 14.65,13.31 17.74,9.53 36.91,16.96 52.61,29.86 7.05,6.05 14.12,13.09 16.46,22.39 3.99,14.58 -2.2,31.07 -14.49,39.76 -13.12,9.55 -30.03,11.61 -45.82,11.18 -17.64,0.16 -35.3,-3.44 -51.42,-10.62 -0.88,-11.69 -1.69,-23.4 -2.41,-35.1 4.92,-0.03 9.86,-0.03 14.82,-0.05 3.22,11.85 8.09,24.27 18.55,31.57 11.86,7.75 28.12,8.26 40.66,1.82 13.88,-7.5 13.79,-29.38 1.28,-38.16 -19.48,-14.4 -44.57,-19.55 -62.76,-35.96 -8.49,-7.47 -13.33,-19.06 -11.75,-30.37 1.08,-11.13 7.14,-21.75 16.59,-27.83zm-120.51 -5.97c24.48,-7.52 51.38,-3.55 74,7.9 0.96,10.78 1.14,21.61 2.02,32.39 -4.65,-0.02 -9.27,-0.02 -13.88,0.02 -2.58,-12.21 -8,-25.18 -19.52,-31.43 -11.46,-6.41 -27.61,-6.13 -37.47,3.17 -7.39,7.14 -8.09,20.59 -0.3,27.71 7.58,7.57 17.92,11.29 27.31,16.09 16.67,8.3 34.06,17.04 46.13,31.71 9.03,10.75 9.54,26.91 3.07,39.04 -5.94,11.38 -17.86,18.39 -30,21.44 -26.08,5.61 -54.02,2.69 -78.52,-7.88 -0.89,-11.73 -1.68,-23.5 -2.49,-35.24 4.94,0 9.88,0 14.84,-0.02 3.62,13.21 9.53,27.63 22.63,33.94 11.91,5.38 26.84,5.42 38.13,-1.51 12.34,-8.2 11.69,-28.33 0.12,-36.91 -19.63,-14.76 -45.28,-19.74 -63.43,-36.67 -8.85,-7.74 -13.33,-20.03 -11.17,-31.64 1.73,-15.33 14.07,-27.8 28.53,-32.11zm-506.81 25.91c15.74,-19.47 41.08,-29.78 65.84,-29.63 18.71,-0.29 37.01,4.76 54.25,11.72 2.02,11.31 3.64,22.71 5.4,34.07 -4.45,-0.02 -8.88,-0.04 -13.32,0 -3.83,-10.91 -10.12,-21.16 -19.48,-28.19 -14.74,-11.33 -36.77,-12.66 -52.37,-2.31 -13.47,10.03 -19.29,27.01 -21.61,43.05 -2.74,20.79 -1.97,43.14 8.09,62.04 6.01,11.8 16.92,21.33 29.93,24.48 17.09,4.47 37.07,-1.16 47.87,-15.51 5.32,-6.66 7.89,-15.02 9.05,-23.35 4.89,0 9.76,-0.02 14.67,0.02 -0.9,11.25 -1.16,22.58 -2.34,33.8 -20.75,11.46 -45.41,15.01 -68.95,14.56 -18.78,-0.23 -38.23,-6.05 -52.05,-19.22 -11.93,-11.12 -18.98,-26.82 -20.95,-42.88 -2.99,-21.82 1.81,-45.38 15.97,-62.65zm-287.33 -158.9c1.02,0.17 3.08,0.54 4.1,0.72 3.89,4.97 9.92,9.02 9.99,15.98 -4.7,-3.55 -9.2,-7.35 -13.88,-10.9 -0.08,-1.94 -0.16,-3.87 -0.21,-5.8zm161 -66.55c9.98,7.53 17.55,17.62 27.22,25.48 7.79,6.53 16.93,11.15 24.86,17.48 -17.53,5.05 -33.36,14.62 -46.95,26.65 2.55,-3.86 6.37,-6.63 8.99,-10.42 1.14,-6.4 1.72,-12.9 2.27,-19.37 -3.8,-4.35 -7.85,-8.48 -11.93,-12.56 0.27,-9.3 -1.7,-18.45 -4.46,-27.26zm-234.8 -43.68c3.02,3.03 5.76,6.63 5.54,11.17 1.83,56.39 7.35,112.58 9.46,168.96 1.61,21.8 0.58,43.7 0.82,65.54 -0.95,-0.18 -2.86,-0.57 -3.81,-0.76 -3.94,-67.81 -6.39,-135.7 -10.48,-203.51 -0.37,-13.81 -2.24,-27.59 -1.53,-41.4zm378.33 -17.43c4.74,2.96 10.76,4.14 14.63,8.36 4.2,5.1 -1.09,11.71 -6.61,12.45 -7.87,1.05 -14.97,-3.33 -21.56,-6.98 4.71,-4.42 9.42,-8.83 13.54,-13.83zm-350.64 -110.17c0.92,-7.49 12.63,-7.03 13.75,0.16 9.52,35.26 19.72,70.34 29.99,105.39 1.21,4.66 2.88,9.27 3.27,14.1 -1.04,27.63 -4.17,55.15 -5.77,82.74 0.56,15.16 -0.58,30.3 -0.35,45.48 9.5,7.82 18.87,15.77 28.54,23.4 -2.16,-8.28 -3.64,-16.7 -5.08,-25.11 -5.38,-5.12 -9.27,-12.89 -17.25,-14.1 0,-9.94 -0.09,-19.86 0.07,-29.77 3.83,-3.82 7.86,-7.46 12.13,-10.78 0.02,-19.21 6.4,-39.43 21.37,-52.21 -17.04,-8.73 -27.63,-29.07 -23.58,-48.01 3.42,-18.2 16.77,-32.8 31.86,-42.65 17.95,-11.44 39.76,-14.43 60.62,-15.66 34.11,-2.54 67.73,7.47 98.47,21.48 16.48,7.13 31.46,17.7 48.89,22.57 11.34,3.37 24.67,1.17 33.57,-6.86 4.24,-3.61 5.08,-9.39 5.01,-14.65 3.5,-1.2 8.2,-2.67 10.85,0.97 6.86,9.28 8.25,21.77 6.4,32.92 -2.11,15.01 -14.42,25.48 -25.81,34.08 6.52,4.87 13.12,10.25 21.21,12.24 7.28,2 15.79,-0.32 20.62,-6.23 4.98,-6.24 0.9,-16.25 -6.17,-18.96 -4.2,-2.49 -11.08,-2.85 -11.78,-8.84 0.32,-4.22 3.2,-9.11 8,-8.83 13.49,-0.77 26.64,4.47 37.63,11.94 9.18,6.47 18.49,14.75 20.81,26.29 3.48,14.69 -3.01,30.25 -14.02,40.06 7.44,1.28 7.46,10.71 3.17,15.33 -19.12,22.67 -48.87,31.78 -77.1,36.69 4.1,3.67 7.06,8.35 8.9,13.52 24.9,-1.69 50.86,2.57 72.26,15.97 16.6,10.14 29.58,25.5 38.44,42.71 32.67,1.22 65.63,8.53 94.29,24.67 19.68,11.07 37.18,26.77 47.92,46.83 -3.07,-1.33 -7.45,-0.87 -9.28,-4.22 -12.79,-18.34 -30.67,-32.9 -50.84,-42.41 -26.11,-12.82 -55.38,-17.5 -84.2,-18.64 -2.51,0.31 -2.94,-2.82 -4.1,-4.29 -10.79,-20.56 -27.9,-38.46 -49.78,-46.99 -18.54,-7.7 -38.93,-8.16 -58.68,-7.47 -2.06,-9.36 -9.53,-15.74 -16.34,-21.83 25.04,-5.52 51.14,-10.48 72.57,-25.46 6.56,-4.13 12.84,-9.94 14.04,-17.99 -8.2,2.23 -16.29,5.31 -24.92,5.1 12.61,-6.6 25.27,-15.35 31.04,-28.91 5.68,-13 1.63,-29.05 -9.15,-38.14 -12.24,-10.64 -28.59,-19.05 -45.19,-16.39 -0.27,1.19 -0.81,3.57 -1.09,4.74 8.33,3.19 18.62,7.3 19.94,17.47 2.8,11.9 -9.23,20.96 -20.03,21.38 -14.38,0.74 -25.59,-9.81 -36.22,-17.95 13.54,-9.08 29.2,-20.83 29.73,-38.71 -0.19,-9.53 -0.97,-20.38 -7.6,-27.82 -1.7,5.43 -2.3,11.66 -6.5,15.9 -6.37,6.77 -15.67,10.74 -24.95,10.72 -13.18,0.41 -25.45,-5.34 -37.08,-10.88 -32.67,-16.48 -66.64,-33.24 -103.73,-35.94 -23.74,-1.2 -48.69,0.4 -70.04,11.88 -17.13,8.92 -32.94,23.6 -37.18,43.1 -4.68,19.93 9.37,40.89 28.54,46.61 -18.97,11.6 -26.69,34.67 -26.53,55.95 -3.61,4.19 -9.53,6.72 -12.3,11.78 0.04,7.37 0.18,14.76 0.57,22.13 6.35,3.86 10.18,10.46 16.03,14.91 1.41,11.34 4.35,22.4 7.92,33.25 -0.97,0.76 -2.92,2.27 -3.89,3.03 -11.09,-10.68 -22.81,-20.82 -35.85,-29.07 0.47,-43.56 5.2,-86.96 6.15,-130.48 -3.71,-19.12 -10.95,-37.36 -15.54,-56.28 -6.37,-21.1 -11.89,-42.48 -18.13,-63.6 -0.85,-0.04 -2.5,-0.11 -3.33,-0.14 -2.44,6.12 -4.04,12.53 -5.98,18.85 -9.16,33.53 -18.62,66.98 -27.96,100.46 -1.07,4.36 -3.27,8.58 -2.83,13.19 1.35,25.29 2.2,50.61 3.61,75.9 -10.68,-4.06 -22.92,-4.93 -33.61,-0.53 -10.59,4.61 -17.16,14.65 -23.11,24.04 -7.75,-0.14 -15.65,-0.53 -23.23,1.5 -18.99,5.15 -36.59,15.21 -50.77,28.85 -22.52,21.02 -36.45,48.91 -51.35,75.36 -8.96,7.31 -18.46,14.19 -25.37,23.63 -1.48,0.11 -4.43,0.35 -5.91,0.46 5.91,-10.99 15.44,-19.52 25.71,-26.36 4.64,-2.71 5.4,-8.62 7.93,-12.95 16.36,-32.6 37.51,-64.87 69.5,-83.95 15.33,-9.07 33.09,-14.28 50.96,-14.15 5.15,-8.94 11.78,-17.47 21.28,-22.06 10.29,-4.88 22.21,-4.39 33.15,-2.25 -1.09,-23.67 -2.22,-47.35 -3.24,-71.02 -0.28,-3.13 0.83,-6.09 1.79,-9.01 11.77,-40.28 22.18,-80.98 34.24,-121.18zm178.83 141.95c29.93,12.28 48.18,41.13 75.42,57.54 15.34,8.86 32.32,15.74 50.3,15.98 -27.07,0.64 -53.32,10.33 -75.29,25.93 -18.09,12.5 -33.55,28.36 -47.14,45.56 8.03,-12.64 12.27,-27.15 14.93,-41.77 1.07,-0.14 3.22,-0.44 4.31,-0.59 1.14,-7.06 4.71,-13.1 10.88,-16.85 0.72,-4.91 1.28,-9.83 1.93,-14.75 -4.18,-3.91 -8.49,-7.67 -12.66,-11.59 -1,-21.28 -3.94,-45.99 -22.68,-59.46zm16.42 14.77l0 0c5.84,13.97 11.86,28.58 10.64,44.05 3.96,4.15 8.11,8.11 11.68,12.61 -0.09,4.94 -0.72,9.92 -1.83,14.74 -2.83,4.43 -8.7,7 -9.23,12.7 -0.93,7.08 -5.26,12.87 -9.15,18.58 1.59,1.06 3.19,2.1 4.8,3.15 15.27,-23.76 41.05,-40.08 68.71,-45.09 -0.21,-1.7 -0.4,-3.41 -0.58,-5.12 -7.76,-1.09 -13.08,-7.28 -19.59,-11 -9.04,-5.31 -17,-12.21 -24.16,-19.86 -9.13,-9.76 -19.58,-18.29 -31.29,-24.76zm-675.99 212.12c19.99,-3.92 41.6,-1.43 59.47,8.68 15.19,8.53 27.31,22.65 32.76,39.27 8.53,25.43 2.76,54.92 -14.1,75.69 -26.94,34.22 -82.27,38.77 -115.82,11.87 -17.21,-13.72 -27.54,-35.58 -27.17,-57.59 -0.47,-17.2 5.24,-34.49 15.86,-48.03 11.82,-15.65 29.86,-26.1 49,-29.89zm4.48 7.84l0 0c-10.43,2.65 -19.15,10.09 -24.58,19.25 -8.53,14.14 -10.92,31.06 -10.85,47.31 0.59,19.63 4.83,40.46 18.09,55.64 9.11,10.85 24.11,16.9 38.14,13.77 12.75,-2.18 22.92,-11.96 28.42,-23.27 8.57,-17.58 9.25,-37.79 7.37,-56.9 -2.29,-17.38 -7.6,-35.79 -21.1,-47.82 -9.37,-8.72 -23.3,-11.08 -35.49,-7.98zm1173.82 -7.72c21.21,-4.34 44.3,-1.34 62.85,10.15 16.04,9.81 28.03,26.15 32.09,44.56 5.88,25.6 -1.79,53.81 -19.69,73.01 -30.72,33.36 -90.37,33.61 -120.71,-0.42 -24.99,-26.96 -24.81,-72.22 -0.97,-99.87 11.7,-14.14 28.47,-23.77 46.43,-27.43zm4.52 7.91l0 0c-10.78,3.01 -19.57,11.01 -24.92,20.68 -8.25,14.92 -10.29,32.41 -9.69,49.21 0.95,18.72 5.65,38.35 18.4,52.7 9.81,11.25 26.04,16.93 40.55,12.52 13.71,-3.62 23.39,-15.74 28.13,-28.58 6.4,-17.35 6.77,-36.41 4.29,-54.56 -2.44,-15.6 -7.59,-31.73 -19.22,-42.98 -9.62,-9.66 -24.63,-12.68 -37.54,-8.99zm-177.08 1.67l0 0c-0.06,21.42 -0.09,42.84 0.01,64.28 14.26,-0.23 29.42,1.3 42.61,-5.33 20.49,-10.09 18.13,-43.86 -1.37,-53.81 -12.57,-7.21 -27.49,-4.63 -41.25,-5.14z"/>
   <path class="fil3" d="M785.1 966.27c-1.52,-8.58 2.07,-16.83 8.19,-22.74 4.47,0.57 8.97,0.87 13.47,0.97 1,7.79 2.22,15.56 3.34,23.34 -8.33,1.07 -16.99,1.42 -25,-1.57zm15.21 33.55c-0.64,-4.85 5.18,-4.23 8.28,-4.92 0.39,2.88 1.99,6.3 -0.14,8.9 -2.6,3.81 -9.66,0.65 -8.14,-3.98zm-16.92 -10.19c1.83,0.14 5.52,0.42 7.35,0.56 0.83,6.17 2.94,12.03 5.77,17.55 -2.66,-0.44 -5.29,-0.9 -7.92,-1.36 -2.86,-5.17 -4.64,-10.86 -5.2,-16.75zm10.9 2.1c5.89,-0.94 11.8,-2.67 17.83,-1.75 0.16,1.07 0.48,3.18 0.64,4.25 -5.63,-5.01 -15.02,-1.77 -16.87,5.37 -0.52,-2.62 -1.07,-5.24 -1.6,-7.87zm-17.76 -4.78c7.58,2.68 4.54,12.4 7.44,18.45 -3.78,-1.76 -9.58,-2.34 -10.16,-7.48 -1.31,-3.99 0.8,-7.64 2.72,-10.97zm21.28 -11.2c1.86,-2.81 6.05,-0.51 7.4,1.76 2.68,2.95 -1.09,7.51 -4.62,6.49 -4.21,0.3 -5.65,-5.74 -2.78,-8.25zm4.82 -4.89c2.69,-0.05 5.4,-0.09 8.12,-0.12 1.04,5.36 2.09,10.71 3.12,16.09 -3.84,0.28 -7.67,0.54 -11.51,0.81 2.29,-2.15 5.75,-3.73 6.34,-7.11 1.31,-4.55 -3.68,-6.77 -6.07,-9.67zm-16.06 0.04c3.77,0.4 7.55,0.7 11.36,0.86 -1.79,3.25 -4.59,6.43 -4.2,10.43 1.2,2.18 3.41,3.53 5.17,5.25 -3.5,0.25 -6.98,0.37 -10.46,0.48 -1.94,-5.47 -2.54,-11.27 -1.87,-17.02zm-10.44 -6.49c2.76,1.39 5.52,2.79 8.28,4.24 -2.29,5.98 -1.11,12.27 -0.33,18.41 -9.41,-2.22 -11.07,-14.98 -7.95,-22.65zm-2.71 17.69c-7.16,-2.8 -8.49,-15.55 -1.2,-19.33 0.09,6.46 0.62,12.89 1.2,19.33zm20.82 -29.67c4.68,-4.46 10.6,2.41 9.78,7.48 -5.05,4.29 -13.97,-1.11 -9.78,-7.48zm-20.07 8.62c-0.38,-8.88 4.05,-16.88 10.98,-22.18 1.95,1.08 3.92,2.17 5.91,3.26 -4.8,6.59 -9.16,13.73 -10.04,22.03 -2.29,-1.05 -4.58,-2.09 -6.85,-3.11zm-6.45 -15.49c4.05,-7.51 10.64,-13.65 18.45,-17.11 1.05,0.84 2.13,1.7 3.18,2.58 -4.06,4.54 -8.62,8.6 -12.73,13.1 -3.48,3.8 -4.15,9.25 -7.28,13.26 -3.98,-2.16 -3.17,-8.26 -1.62,-11.83zm21.6 -15.65c0.36,-0.67 1.14,-2.03 1.53,-2.7 4.64,-0.15 9.28,-0.4 13.92,-0.49 0.48,4.54 0.97,9.06 1.46,13.6 -4.89,-0.11 -10.41,1.05 -14.66,-2.03 -0.74,-2.85 1.63,-7.03 -2.25,-8.38zm-69.92 1.63c-0.44,-7.47 8.37,-11.25 14.63,-9.16 3.74,2.04 2.74,6.79 3.29,10.3 -2.96,0.14 -5.89,0.41 -8.81,0.34 -2.26,-2.02 -1.16,-5.35 -1.68,-7.97 -3.56,1.64 -6.64,5.65 -3.65,9.39 2.23,4.28 7.28,3.48 11.29,3.36 -5.26,4.78 -15.79,1.55 -15.07,-6.26zm29.19 -4.75c17.86,-5.85 36.4,-9.67 55.13,-11.25 0.16,1.35 0.46,4.08 0.61,5.45 -13.03,1.07 -25.95,2.95 -38.83,5.17 -8.03,1.3 -15.77,4.24 -23.95,4.62 2.1,-1.72 4.42,-3.21 7.04,-3.99zm-9.23 -2.88c18.43,-13.16 41.69,-15.86 63.41,-19.73 0.19,1.3 0.58,3.9 0.77,5.2 -21.82,2.89 -43.06,8.6 -64.18,14.53zm34.45 -129.2c11.48,-0.72 22.68,-3.45 34.02,-5.28 0.04,9.73 0,19.47 0.02,29.2 -1.39,0.01 -4.15,0.03 -5.52,0.03 -0.37,10.94 -0.79,21.88 -0.67,32.83 -10.48,-1.86 -16.27,-11.67 -20.19,-20.61 -5.01,-11.38 -7.07,-23.81 -7.66,-36.17zm-7.73 -21.98c13.41,4.54 27.53,5.78 41.47,7.49 0.25,2.25 0.49,4.52 0.76,6.79 -17.54,2.76 -35.77,8.6 -53.28,2.53 3.12,-5.94 6.62,-11.73 11.05,-16.81zm98.18 -19.22c26.4,10.14 48.65,28.19 70.1,46.14 -24.39,8.02 -49.64,13.26 -75.13,16.25 1.75,-20.79 3.63,-41.57 5.03,-62.39zm-101.74 10.76c12.46,-12.24 27.97,-20.91 44.4,-26.64 0.67,13.29 0.53,26.61 1,39.9 -15.83,-1.09 -32.41,-3.38 -45.4,-13.26zm286.39 -3.54c22.88,-14.77 48.38,-25.25 74.79,-31.7l-0.39 2.23 2.03 -1.37c15.82,8.69 32.74,16.95 44.91,30.65 -9.88,8.46 -23.04,11.48 -35.63,13.1 -3.8,0.76 -8.62,0.32 -10.83,4.17 13.35,-1.46 26.8,-3.16 39.71,-7.03 3.3,4.66 6.22,9.6 8.7,14.77 -15.39,5.75 -31.39,0.77 -46.81,-1.66 -0.41,0.55 -1.2,1.66 -1.6,2.22 12.48,2.29 24.79,5.72 37.49,6.74 4.73,34.2 -8.41,70.18 -33.76,93.55 0.31,-22.58 0.8,-45.16 -0.11,-67.74 -43.52,0.69 -87.31,-4.83 -128.9,-17.94 14.84,-15.61 32.08,-28.73 50.4,-39.99zm-208.14 -283.31c-0.03,-3.29 0.26,-6.56 0.86,-9.78 8.81,29.76 17.36,59.62 25.03,89.69 1.05,4.34 2.39,8.74 2.05,13.26 -2.88,56.29 -6.43,112.54 -9.79,168.8 -1.65,25.94 -2.09,52.07 -6.97,77.67 -6.33,-7.86 -6.59,-18.57 -8.19,-28.12 -1.62,-14.05 -3.66,-28.13 -3.39,-42.31 0.24,-62.71 -0.46,-125.45 0.47,-188.16 -0.07,-27.01 0.07,-54.04 -0.07,-81.05zm69.39 126.89c6.77,-9.39 16.08,-18.07 27.93,-19.99 7.54,16.76 31.09,23.99 46.26,13.28 4.75,-2.98 6.93,-8.29 8.37,-13.44 10.08,2.76 20.4,7.26 26.44,16.27 9.6,14.01 10.34,31.63 11.69,47.99 4.78,3.41 9.37,7.12 13.59,11.22 -0.84,4.24 -1.65,8.49 -2.56,12.71 -6.12,2.27 -8.53,8.04 -9.27,14.09 -2.31,-0.09 -4.61,-0.16 -6.9,-0.25 -1.3,21.1 -10.04,42.89 -27.66,55.48 -1.88,1.41 -3.71,2.87 -5.36,4.52 2.85,2.04 6.08,0.23 8.65,-1.39 4.49,-3.09 8.16,-7.14 12.07,-10.88 5.78,5.99 12.36,11.23 19.94,14.82 -20.09,13.14 -41.06,25.27 -58.56,41.91 -2.43,-1.22 -4.86,-2.41 -7.27,-3.63 -0.42,-4.16 -0.47,-8.38 -1.65,-12.43 -0.74,0.04 -2.18,0.07 -2.92,0.11 -0.86,4.01 -0.82,8.14 -0.88,12.24 -2.69,1.39 -5.4,2.76 -8.1,4.11 -9.39,-8.44 -18.98,-16.67 -28.05,-25.44 -8.71,-8.66 -19.64,-14.44 -29.93,-20.93 6.01,-4.17 12.19,-8.13 18.16,-12.38 4.4,5.78 8,13.15 15.09,16.02 1.44,-1.41 2.76,-2.94 4.12,-4.45 -6.18,-4.78 -12.89,-9.28 -16.9,-16.18 -7.81,-12.24 -8.81,-27.06 -11.03,-41.01 -0.35,-3.32 -4.76,-2.78 -7.07,-4.08 -1.51,-4.43 -4.01,-8.49 -8.1,-10.93 -0.46,-5.03 -0.69,-10.06 -0.76,-15.11 3.85,-3.34 7.44,-6.98 10.66,-10.96 -0.73,-14.29 1.53,-29.36 10,-41.29zm-1.65 12.47l0 0c-4.03,8.39 -5.79,18.82 -1.02,27.28 12.13,-5.07 24.35,-10.66 37.63,-11.89 25.17,-3.89 50.93,1.62 74.04,11.68 2.03,0.49 4.13,0.77 6.26,0.82 0.89,-16.84 -1.38,-36.73 -16.29,-47.28 -0.21,0.52 -0.6,1.56 -0.81,2.09 11.12,9.49 15.23,25.13 12.42,39.21 -17.76,-8 -36.6,-14.84 -56.36,-14.35 -8.6,0.04 -20.65,-0.49 -23.53,-10.51 -2.53,-5.86 1.09,-11.06 3.97,-15.85 -2.49,-3.27 -5.24,-6.31 -7.77,-9.53 -11.73,6.76 -22.53,16 -28.54,28.33zm-5.56 63.03l0 0c8.93,-4.71 17.92,-9.55 27.8,-12.01 9.57,-2.82 19.65,-2.8 29.53,-2.55 0.14,-2.17 0.28,-4.31 0.44,-6.47 -12.91,-1.23 -25.89,-2.18 -38.62,-4.66 -3.48,-0.15 -4.46,-3.68 -6.1,-6.09 -8.42,7.83 -17.76,19.7 -13.05,31.78zm107.18 -25.31l0 0c-12.94,2.8 -26.25,3.26 -39.33,5 -0.11,2.14 0.01,4.3 0.08,6.45 20.14,-2.23 40.08,4.19 57.19,14.47 6.58,-12.18 -4.15,-24.07 -12.73,-31.79 -1.64,1.97 -2.29,5.4 -5.21,5.87zm-101.32 32.13l0 0c1.88,3.24 3.76,6.58 4.01,10.39 2.13,15.6 9.14,30.74 20.55,41.7 8.73,8.12 19.84,15.05 32.22,14.37 -0.07,-7.67 -0.11,-15.34 -0.6,-22.99 -5.61,-1.53 -11.71,-0.05 -17.34,-1.78 -16.53,-4.81 -29.12,-20.31 -30.74,-37.43 17.41,3.36 32.99,12.48 47.87,21.71 9.97,-9.72 22.77,-16.1 36.35,-19.01 7.12,-1.97 14.91,-1.51 21.56,-5.06 -2.62,-1.74 -5.68,-3.08 -8.86,-2.5 -17.31,1.2 -33.33,8.3 -49.51,13.9 -17.7,-7.11 -36.15,-13.65 -55.51,-13.3zm-112.53 261.39l0 0c-4.92,1.9 -8.32,7.65 -5.77,12.71 2.9,4.38 9.81,5.88 13.95,2.15 7.54,-4.82 -0.27,-18.4 -8.18,-14.86z"/>
  </g>
 </g>
</svg>
