<?xml version="1.0" encoding="UTF-8"?>
<!DOCTYPE svg PUBLIC "-//W3C//DTD SVG 1.1//EN" "http://www.w3.org/Graphics/SVG/1.1/DTD/svg11.dtd">
<!-- Creator: CorelDRAW -->
<svg xmlns="http://www.w3.org/2000/svg" xml:space="preserve" width="2000px" height="1600px" version="1.1" style="shape-rendering:geometricPrecision; text-rendering:geometricPrecision; image-rendering:optimizeQuality; fill-rule:evenodd; clip-rule:evenodd"
viewBox="0 0 2000 1600"
 xmlns:xlink="http://www.w3.org/1999/xlink">
 <defs>
  <style type="text/css">
   <![CDATA[
    .fil2 {fill:#8B0B04;fill-rule:nonzero}
    .fil0 {fill:#E41837;fill-rule:nonzero}
    .fil1 {fill:#FEFEFE;fill-rule:nonzero}
   ]]>
  </style>
 </defs>
 <g id="Capa_x0020_1">
  <metadata id="CorelCorpID_0Corel-Layer"/>
  <g id="Houston_x0020_Cougars.cdr">
   <path class="fil0" d="M242.84 80l529.55 0c0,93.92 0,187.88 0,281.81 -26.85,0 -53.67,0 -80.52,0 0,68.13 0,136.25 0,204.38 97.02,0 194.07,0 291.1,0 0,-68.13 0,-136.25 0,-204.38 -25.8,0 -51.63,0 -77.42,0 0,-93.93 0,-187.89 0,-281.81l526.45 0c0,93.92 0,187.88 0,281.81 -27.87,0 -55.74,0 -83.61,0 0,68.13 0,136.25 0,204.38 136.25,0 272.51,0 408.77,0 0,93.93 0,187.89 0,281.81 -27.87,0 -55.74,0 -83.61,0 0,131.09 0,262.21 0,393.29 27.87,0 55.74,0 83.61,0 0,92.9 0,185.81 0,278.71l-526.45 0c0,-92.9 0,-185.81 0,-278.71 25.79,0 51.59,0 77.42,0 0,-17.56 0,-35.08 0,-52.64 -94.98,0 -189.93,0 -284.9,0 0,17.52 0,35.08 0,52.64 26.84,0 53.66,0 80.51,0 0,92.9 0,185.81 0,278.71l-529.55 0c0,-92.9 0,-185.81 0,-278.71 27.87,0 55.74,0 83.61,0 0,-75.34 0,-150.72 0,-226.06 -55.33,0.09 -110.67,-0.19 -166.01,0.15 -40.97,-34.78 -81.51,-70.17 -122.54,-104.95 -12.79,-12.51 -27.66,-22.7 -39.73,-35.98 0.06,-170.88 0,-341.76 0.03,-512.64 -28.9,0 -57.82,0 -86.71,0l0 -281.81zm1065.78 1238.22c26.14,-0.56 52.25,-0.25 78.38,-0.19 19.98,20.93 41.22,40.6 60.92,61.81 -25.71,0.06 -51.41,-0.06 -77.11,0.06 -20.94,-20.37 -41.38,-41.22 -62.19,-61.68zm-655.8 -0.04c27.96,-0.52 55.93,-0.21 83.86,-0.15 20.01,20.93 41.22,40.66 60.98,61.81 -27.81,0.03 -55.62,-0.03 -83.46,0.03 -20.66,-20.37 -41.31,-40.72 -61.38,-61.69zm570.46 -383.47c40.94,-36.2 81.69,-72.62 122.72,-108.7 0.16,36.24 0.03,72.47 0.06,108.7 -40.93,0 -81.87,0 -122.78,0zm-570.49 -289.24c123.96,-0.71 247.99,-0.12 371.98,-0.31 -0.12,41.84 0.28,83.65 -0.21,125.48 -19.67,-17.93 -37.82,-37.41 -56.74,-56.05 -5.38,-6.56 -14.46,-5.05 -21.95,-5.39 -21.15,0.41 -42.3,-0.09 -63.46,0.47 19.85,22.08 41.59,42.36 62.56,63.36 0.15,67.57 0.03,135.14 0.06,202.68 147.35,0.06 294.66,-0.06 442,0.06 21.34,22.42 44.26,43.33 65.07,66.24 -191.82,0.93 -383.66,-0.46 -575.48,0.68 22.3,23.11 44.78,46.05 68.22,67.98 0.53,69.12 -0.15,138.24 0.35,207.36 26.5,-0.22 53.01,-0.03 79.52,-0.12 0.19,41.8 -0.06,83.58 0.13,125.38 -20.88,-21.4 -42,-42.58 -63.4,-63.48 -40.01,0.03 -80.05,0.06 -120.06,0.03 -0.21,-223.96 0.13,-447.95 -0.18,-671.91 -42.21,-0.31 -84.39,0.13 -126.6,-0.21 -20.63,-20.75 -41.62,-41.13 -61.81,-62.25zm654.63 -0.37c124.36,0.19 248.73,-0.06 373.13,0.12 -0.25,41.44 0.37,82.9 -0.31,124.34 -21,-20.38 -41.31,-41.44 -62.37,-61.75 -28.55,0.28 -57.14,-0.5 -85.72,0.46 20.13,21.96 41.4,42.83 63.05,63.27 0.5,182.15 -0.19,364.34 0.34,546.49 28.3,-0.19 56.64,-0.06 84.98,-0.09 -0.16,41.43 0.31,82.87 -0.25,124.3 -21.21,-20.35 -41.71,-41.43 -62.53,-62.21 -42.02,-0.5 -84.04,0.03 -126.1,-0.25 -0.06,-223.93 0.1,-447.86 -0.06,-671.79 -40.32,-0.37 -80.64,0 -120.96,-0.18 -21.27,-20.72 -41.84,-42.15 -63.2,-62.71zm-325.78 -487.74c124.58,0.12 249.13,0.03 373.72,0.06 0.18,41.96 -0.38,83.92 0.3,125.88 -15.33,-16.6 -31.95,-31.92 -47.56,-48.28 -6.44,-5.6 -11.71,-15.11 -21.31,-14.83 -26.94,-0.4 -53.85,0.03 -80.79,0.03 21.02,21.49 41.93,43.17 64.01,63.58 0.49,184.91 -0.06,369.82 0.28,554.72 -37.07,33.48 -74.88,66.18 -111.86,99.78 -20.19,-18.83 -41.84,-36.04 -62.31,-54.59 -5.88,-4.93 -11.83,-11.52 -20.25,-10.93 -31.21,-0.22 -62.46,0.18 -93.68,-0.04 0.07,-21.43 -0.15,-42.89 0.16,-64.32 26.48,0.25 52.98,-0.12 79.46,0.22 18.7,16.75 37.72,33.17 57.01,49.21 15.76,-13.66 31.53,-27.32 47.45,-40.79 0.34,-199 0.46,-397.96 -0.07,-596.96 -40.41,-0.09 -80.79,0.28 -121.2,-0.16 -20.94,-20.62 -41.04,-42.08 -62.68,-61.96l-0.68 -0.62zm-659.84 0.28c124.15,-0.5 248.3,-0.13 372.45,-0.16 -0.03,42.15 -0.21,84.3 0.1,126.47l-0.41 -0.43c-16.53,-17.9 -34.46,-34.44 -51.22,-52.12 -5.29,-5.11 -10.56,-12.11 -18.82,-11.24 -24.31,-0.31 -48.62,-0.09 -72.9,0.22 20.22,21.95 41.53,42.95 63.23,63.42 0.5,174.91 0.07,349.81 0.22,524.72 28.37,-0.03 56.7,0.06 85.07,-0.07 0.18,21.4 0.06,42.83 0.09,64.26 -38.74,0.03 -77.45,0.22 -116.19,0.03 -7.52,0.56 -13.07,-4.98 -18.39,-9.41 -17.78,-15.79 -35.83,-31.28 -54.01,-46.55 -0.59,-198.87 -0.19,-397.71 -0.22,-596.56 -39.76,-0.37 -79.55,0.13 -119.32,-0.12 -7.83,0.68 -13.13,-5.79 -18.27,-10.62 -16.88,-17.53 -34.31,-34.53 -51.41,-51.84zm-39.48 -38.16l0 0c0,67.36 0,134.71 0,202.07 28.65,0 57.29,0 85.94,0 -0.07,178.28 0.15,356.53 -0.13,534.81 44.75,38.8 89.81,77.2 134.53,116.04 3.22,3.75 8.02,4.46 12.69,4.18 61.17,-0.09 122.36,-0.09 183.52,0 -0.06,101.14 0,202.28 -0.03,303.42 -28.65,0.03 -57.29,-0.03 -85.94,0.03 0,67.08 0,134.15 0,201.26 149.95,-0.03 299.93,0.09 449.87,-0.09 -0.28,-67.11 0.22,-134.22 -0.25,-201.32 -26.54,0.18 -53.08,0.18 -79.62,0 0.16,-43.82 0.04,-87.67 0.07,-131.49 122.07,0 244.12,0 366.19,0 0,43.88 0,87.73 0,131.61 -26.6,0.03 -53.17,-0.03 -79.74,0.03 0.03,67.08 -0.03,134.15 0,201.26 149.67,0 299.36,0 449.03,0 0,-67.11 0,-134.18 0,-201.26 -28.4,-0.06 -56.76,0 -85.16,-0.03 -0.03,-156.88 0.09,-313.73 -0.06,-470.62 28.4,-0.21 56.79,-0.03 85.22,-0.09 0.13,-67.29 -0.22,-134.55 0.16,-201.82 -136.82,-0.55 -273.67,-0.09 -410.48,-0.24 0,-95.23 0,-190.46 0,-285.68 28.4,0 56.76,0 85.16,0 0,-67.36 0,-134.71 0,-202.07 -149.7,0 -299.33,0 -449,0 -0.06,67.36 -0.03,134.71 -0.03,202.07 26.57,0 53.17,0 79.74,0 0,95.22 0,190.45 0,285.68 -123.78,0.09 -247.59,-0.19 -371.37,0.15 -0.62,-95.26 -0.03,-190.54 -0.27,-285.8 26.57,-0.09 53.17,0 79.77,-0.03 0,-67.36 0,-134.71 0,-202.07 -149.95,0 -299.86,0 -449.81,0z"/>
   <path class="fil1" d="M282.32 119.48c149.95,0 299.86,0 449.81,0 0,67.36 0,134.71 0,202.07 -26.6,0.03 -53.2,-0.06 -79.77,0.03 0.24,95.26 -0.35,190.54 0.27,285.8 123.78,-0.34 247.59,-0.06 371.37,-0.15 0,-95.23 0,-190.46 0,-285.68 -26.57,0 -53.17,0 -79.74,0 0,-67.36 -0.03,-134.71 0.03,-202.07 149.67,0 299.3,0 449,0 0,67.36 0,134.71 0,202.07 -28.4,0 -56.76,0 -85.16,0 0,95.22 0,190.45 0,285.68 136.81,0.15 273.66,-0.31 410.48,0.24 -0.38,67.27 -0.03,134.53 -0.16,201.82 -28.43,0.06 -56.82,-0.12 -85.22,0.09 0.15,156.89 0.03,313.74 0.06,470.62 28.4,0.03 56.76,-0.03 85.16,0.03 0,67.08 0,134.15 0,201.26 -149.67,0 -299.36,0 -449.03,0 -0.03,-67.11 0.03,-134.18 0,-201.26 26.57,-0.06 53.14,0 79.74,-0.03 0,-43.88 0,-87.73 0,-131.61 -122.07,0 -244.12,0 -366.19,0 -0.03,43.82 0.09,87.67 -0.07,131.49 26.54,0.18 53.08,0.18 79.62,0 0.47,67.1 -0.03,134.21 0.25,201.32 -149.94,0.18 -299.92,0.06 -449.87,0.09 0,-67.11 0,-134.18 0,-201.26 28.65,-0.06 57.29,0 85.94,-0.03 0.03,-101.14 -0.03,-202.28 0.03,-303.42 -61.16,-0.09 -122.35,-0.09 -183.52,0 -4.67,0.28 -9.47,-0.43 -12.69,-4.18 -44.72,-38.84 -89.78,-77.24 -134.53,-116.04 0.28,-178.28 0.06,-356.53 0.13,-534.81 -28.65,0 -57.29,0 -85.94,0 0,-67.36 0,-134.71 0,-202.07zm38.06 36.73l0 0c-0.25,42.49 -0.09,84.98 -0.09,127.43 28.64,-0.03 57.29,-0.03 85.93,0 -0.09,185.19 0.03,370.35 -0.06,555.54 38.62,33.01 77.02,66.3 115.57,99.4 59.31,0.03 118.58,0 177.88,0 0.03,-21.96 0,-43.91 0,-65.87 -0.03,-21.43 0.09,-42.86 -0.09,-64.26 -28.37,0.13 -56.7,0.04 -85.07,0.07 -0.15,-174.91 0.28,-349.81 -0.22,-524.72 26.57,-0.47 53.14,0.06 79.71,-0.28l0.41 0.43c-0.31,-42.17 -0.13,-84.32 -0.1,-126.47 -124.15,0.03 -248.3,-0.34 -372.45,0.16l-1.42 -1.43zm661.26 1.15l0 0 0.68 0.62c-0.34,41.83 0.06,83.64 -0.22,125.45 26.6,0.4 53.2,0.09 79.83,0.18 -0.06,175.03 0.13,350.03 -0.12,525.03 -26.48,-0.34 -52.98,0.03 -79.46,-0.22 -0.31,21.43 -0.09,42.89 -0.16,64.32 0,21.96 0,43.88 0,65.84 58.75,-0.18 117.49,0.37 176.24,-0.28 36.98,-33.6 74.79,-66.3 111.86,-99.78 -0.34,-184.9 0.21,-369.81 -0.28,-554.72 28.55,-0.59 57.1,0.31 85.65,-0.5 -0.68,-41.96 -0.12,-83.92 -0.3,-125.88 -124.59,-0.03 -249.14,0.06 -373.72,-0.06zm325.78 487.74l0 0c-0.16,42.08 -0.04,84.17 -0.07,126.25 26.54,-0.03 53.08,0.13 79.62,-0.09 0.22,68.19 0.13,136.35 0.06,204.51 -147.34,-0.12 -294.65,0 -442,-0.06 -0.03,-67.54 0.09,-135.11 -0.06,-202.68 27.28,-0.37 54.53,0.21 81.82,-0.34l-2.23 -2.05c0.49,-41.83 0.09,-83.64 0.21,-125.48 -123.99,0.19 -248.02,-0.4 -371.98,0.31l-1.12 -1.17c-0.15,42.36 -0.03,84.69 -0.06,127.05 28.37,-0.03 56.73,0.07 85.1,-0.03 0.06,182.22 0.12,364.46 -0.03,546.71 -27.93,-0.06 -55.9,-0.37 -83.86,0.15l-1.12 -1.17c-0.21,42.11 -0.03,84.23 -0.09,126.35 124.4,-0.04 248.83,0.09 373.23,-0.07 -0.19,-41.8 0.06,-83.58 -0.13,-125.38 -26.51,0.09 -53.02,-0.1 -79.52,0.12 -0.5,-69.12 0.18,-138.24 -0.35,-207.36 147.41,-0.46 294.82,-0.06 442.23,-0.22 -0.04,69.18 0.12,138.4 -0.07,207.58 -26.13,-0.06 -52.24,-0.37 -78.38,0.19l-1.14 -1.18c-0.28,42.11 -0.06,84.2 -0.13,126.32 124.65,-0.07 249.33,0.15 373.97,-0.13l-1.05 -0.99c0.56,-41.43 0.09,-82.87 0.25,-124.3 -28.34,0.03 -56.68,-0.1 -84.98,0.09 -0.53,-182.15 0.16,-364.34 -0.34,-546.49 28.86,-0.56 57.76,0.22 86.62,-0.43l-1.58 -1.55c0.68,-41.44 0.06,-82.9 0.31,-124.34 -124.4,-0.18 -248.77,0.07 -373.13,-0.12zm-84.14 289.61l0 0c40.91,0 81.85,0 122.78,0 -0.03,-36.23 0.1,-72.46 -0.06,-108.7 -41.03,36.08 -81.78,72.5 -122.72,108.7z"/>
   <path class="fil2" d="M320.38 156.21l1.42 1.43c17.1,17.31 34.53,34.31 51.41,51.84 5.14,4.83 10.44,11.3 18.27,10.62 39.77,0.25 79.56,-0.25 119.32,0.12 0.03,198.85 -0.37,397.69 0.22,596.56 18.18,15.27 36.23,30.76 54.01,46.55 5.32,4.43 10.87,9.97 18.39,9.41 38.74,0.19 77.45,0 116.19,-0.03 0,21.96 0.03,43.91 0,65.87 -59.3,0 -118.57,0.03 -177.88,0 -38.55,-33.1 -76.95,-66.39 -115.57,-99.4 0.09,-185.19 -0.03,-370.35 0.06,-555.54 -28.64,-0.03 -57.29,-0.03 -85.93,0 0,-42.45 -0.16,-84.94 0.09,-127.43zm661.81 716.53c31.22,0.22 62.47,-0.18 93.68,0.04 8.42,-0.59 14.37,6 20.25,10.93 20.47,18.55 42.12,35.76 62.31,54.59 -58.75,0.65 -117.49,0.1 -176.24,0.28 0,-21.96 0,-43.88 0,-65.84zm549.96 -164.47c28.58,-0.96 57.17,-0.18 85.72,-0.46 21.06,20.31 41.37,41.37 62.37,61.75l1.58 1.55c-28.86,0.65 -57.76,-0.13 -86.62,0.43 -21.65,-20.44 -42.92,-41.31 -63.05,-63.27zm-649.74 1.4c21.16,-0.56 42.31,-0.06 63.46,-0.47 7.49,0.34 16.57,-1.17 21.95,5.39 18.92,18.64 37.07,38.12 56.74,56.05l2.23 2.05c-27.29,0.55 -54.54,-0.03 -81.82,0.34 -20.97,-21 -42.71,-41.28 -62.56,-63.36zm425.01 -64.57c21.36,20.56 41.93,41.99 63.2,62.71 40.32,0.18 80.64,-0.19 120.96,0.18 0.16,223.93 0,447.86 0.06,671.79 42.06,0.28 84.08,-0.25 126.1,0.25 20.82,20.78 41.32,41.86 62.53,62.21l1.05 0.99c-124.64,0.28 -249.32,0.06 -373.97,0.13 0.07,-42.12 -0.15,-84.21 0.13,-126.32l1.14 1.18c20.81,20.46 41.25,41.31 62.19,61.68 25.7,-0.12 51.4,0 77.11,-0.06 -19.7,-21.21 -40.94,-40.88 -60.92,-61.81 0.19,-69.18 0.03,-138.4 0.07,-207.58 -147.41,0.16 -294.82,-0.24 -442.23,0.22 -23.44,-21.93 -45.92,-44.87 -68.22,-67.98 191.82,-1.14 383.66,0.25 575.48,-0.68 -20.81,-22.91 -43.73,-43.82 -65.07,-66.24 0.07,-68.16 0.16,-136.32 -0.06,-204.51 -26.54,0.22 -53.08,0.06 -79.62,0.09 0.03,-42.08 -0.09,-84.17 0.07,-126.25zm-655.75 -0.8l1.12 1.17c20.19,21.12 41.18,41.5 61.81,62.25 42.21,0.34 84.39,-0.1 126.6,0.21 0.31,223.96 -0.03,447.95 0.18,671.91 40.01,0.03 80.05,0 120.06,-0.03 21.4,20.9 42.52,42.08 63.4,63.48 -124.4,0.16 -248.83,0.03 -373.23,0.07 0.06,-42.12 -0.12,-84.24 0.09,-126.35l1.12 1.17c20.07,20.97 40.72,41.32 61.38,61.69 27.84,-0.06 55.65,0 83.46,-0.03 -19.76,-21.15 -40.97,-40.88 -60.98,-61.81 0.15,-182.25 0.09,-364.49 0.03,-546.71 -28.37,0.1 -56.73,0 -85.1,0.03 0.03,-42.36 -0.09,-84.69 0.06,-127.05zm554.33 -424.08c26.94,0 53.85,-0.43 80.79,-0.03 9.6,-0.28 14.87,9.23 21.31,14.83 15.61,16.36 32.23,31.68 47.56,48.28 -28.55,0.81 -57.1,-0.09 -85.65,0.5 -22.08,-20.41 -42.99,-42.09 -64.01,-63.58zm-655 0.16c24.28,-0.31 48.59,-0.53 72.9,-0.22 8.26,-0.87 13.53,6.13 18.82,11.24 16.76,17.68 34.69,34.22 51.22,52.12 -26.57,0.34 -53.14,-0.19 -79.71,0.28 -21.7,-20.47 -43.01,-41.47 -63.23,-63.42zm431.32 -62.4c21.64,19.88 41.74,41.34 62.68,61.96 40.41,0.44 80.79,0.07 121.2,0.16 0.53,199 0.41,397.96 0.07,596.96 -15.92,13.47 -31.69,27.13 -47.45,40.79 -19.29,-16.04 -38.31,-32.46 -57.01,-49.21 0.25,-175 0.06,-350 0.12,-525.03 -26.63,-0.09 -53.23,0.22 -79.83,-0.18 0.28,-41.81 -0.12,-83.62 0.22,-125.45z"/>
  </g>
 </g>
</svg>
