<?xml version="1.0" encoding="UTF-8"?>
<!DOCTYPE svg PUBLIC "-//W3C//DTD SVG 1.1//EN" "http://www.w3.org/Graphics/SVG/1.1/DTD/svg11.dtd">
<!-- Creator: CorelDRAW -->
<svg xmlns="http://www.w3.org/2000/svg" xml:space="preserve" width="2000px" height="1600px" version="1.1" style="shape-rendering:geometricPrecision; text-rendering:geometricPrecision; image-rendering:optimizeQuality; fill-rule:evenodd; clip-rule:evenodd"
viewBox="0 0 2000 1600"
 xmlns:xlink="http://www.w3.org/1999/xlink">
 <defs>
  <style type="text/css">
   <![CDATA[
    .fil0 {fill:black;fill-rule:nonzero}
    .fil2 {fill:#E41837;fill-rule:nonzero}
    .fil1 {fill:#FEFEFE;fill-rule:nonzero}
    .fil3 {fill:#FFE715;fill-rule:nonzero}
   ]]>
  </style>
 </defs>
 <g id="Capa_x0020_1">
  <metadata id="CorelCorpID_0Corel-Layer"/>
  <g id="Illinois_x0020_State_x0020_Redbirds.cdr">
   <path class="fil0" d="M1077.12 266.35l0.76 0c7.54,5.19 14.91,10.64 22.32,16 1.29,-4.09 2.59,-8.2 3.94,-12.29 21.51,19.64 46.89,34.37 72.61,47.75 61.55,32.31 126.01,58.72 191.57,81.68 76.96,27.18 154.93,51.96 229.46,85.51 53.79,24.44 108.71,49.33 153.38,88.89 26.77,23.74 49.72,53.61 58.53,88.85 5.48,20.4 4.54,41.74 3.36,62.61 3.76,-1.91 7.53,-3.81 11.31,-5.74 -0.35,14.08 -1.36,29 -10.18,40.68 17.22,20.25 36.17,39.14 51.16,61.21 20.19,29.05 32.36,63.51 34.66,98.84l0 39.22c-1.41,26.99 -5.36,54.67 -18.66,78.62 -8.08,15.58 -20.26,28.34 -32.28,40.87 0.07,-13.28 -4.17,-26.56 -13.56,-36.19 -3.11,-2.77 -6.42,-7.74 -11.17,-6.09 -26.76,6.77 -53.58,13.39 -80.83,17.88 -43.41,8.07 -87.79,4.98 -131.52,1.81 -1.01,14.6 -0.36,29.38 -2.96,43.87 -4.58,27.41 -14.2,53.7 -25.33,79.06 -25.06,55.81 -58.23,107.93 -98.19,154.26 -17.15,-48.73 -34.14,-97.56 -54.33,-145.1 -197.15,0 -394.3,0 -591.45,0 -64.98,0.33 -129.93,-0.5 -194.9,-0.43 -28.08,-0.6 -56.96,3.44 -82.29,16.17 -8.84,4.25 -17.27,9.33 -25.59,14.53 1.69,-13.78 2.86,-28.32 10.38,-40.4 2.8,-4.54 4.21,-9.71 5.69,-14.78 -14.03,5.92 -27.87,12.27 -41.92,18.17 0.44,-16.17 6.06,-32.03 16.21,-44.65 -43.02,0.11 -86.03,-0.02 -129.05,0.05 15.6,-72.38 31.09,-144.78 47.88,-216.9 6.35,-22.77 13.38,-45.78 25.93,-66.01 -124.01,0.05 -248.05,0 -372.06,0.01l0 -1.81c22.46,-90.55 44.53,-181.2 66.93,-271.77 1.33,-5.15 3.02,-10.53 1.45,-15.84 -1.62,-5.8 -2.02,-12.9 -7.4,-16.66 -12.99,-10.66 -26.03,-21.28 -38.91,-32.05 73.95,-0.04 147.88,-0.02 221.83,-0.02 -4.43,18 -8.89,35.97 -13.24,53.98 23.48,-0.19 46.98,0.39 70.45,-0.45 209.54,-0.02 419.08,0 628.62,0 -2.77,-7.01 -5.52,-14.05 -8.11,-21.13 10.36,0.9 20.65,2.59 31.04,3.06 -15.74,-20.56 -31.72,-43.99 -31.42,-70.95 10.98,4.03 22.17,7.45 33.6,10.04 -12.52,-25.83 -19.26,-53.95 -25.42,-81.85 11.8,5.57 23.57,11.17 35.41,16.69 -13.02,-27.97 -20.39,-58.86 -19.57,-89.79 12.1,6.08 24.27,12.03 36.3,18.24 -8.9,-28.3 -7.37,-58.52 -4.44,-87.65z"/>
   <path class="fil1" d="M1061.47 1105.46c5.34,-0.05 10.7,-0.05 16.05,-0.02 -5.28,17.99 -10.69,35.95 -15.9,53.95 -5.36,0 -10.72,0 -16.06,0 5.32,-17.98 10.69,-35.93 15.91,-53.93zm-289.46 -0.03c11.45,0 22.9,0 34.36,0 -1.24,4.04 -2.44,8.09 -3.64,12.17 -6.13,0.01 -12.24,0.01 -18.37,0.01 -0.85,2.89 -1.7,5.8 -2.54,8.71 5.78,0 11.56,0 17.34,0 -1.15,4.05 -2.31,8.09 -3.48,12.15 -5.87,0.03 -11.73,0.01 -17.58,0.1 -0.8,2.86 -1.59,5.75 -2.37,8.62 6.06,0.02 12.13,0.02 18.23,0.02 -1.19,4.04 -2.35,8.09 -3.52,12.16 -11.45,0.04 -22.91,0 -34.38,0.02 5.26,-18.02 10.62,-35.98 15.95,-53.96zm563.03 5.9c9.94,-9.28 25.53,-8.95 37.01,-2.8 -3.14,3.74 -6.32,7.43 -9.53,11.1 -5.38,-4.28 -15.52,-5.27 -17.96,2.65 5.48,4.12 13.11,3.83 18.28,8.48 5.15,6.26 0.99,15.25 -3.48,20.69 -10.81,11.81 -30.43,12.43 -43.33,3.64 3.27,-4.04 6.72,-7.92 10.15,-11.84 4.7,3.82 11.12,7.51 17.21,4.41 2.34,-1.11 6.24,-4.88 3.03,-7.16 -5.55,-4.12 -14.69,-2.89 -18.4,-9.5 -2.12,-7.14 1.85,-14.81 7.02,-19.67zm-875.15 -60.9c3.63,4.57 6.34,9.74 9.32,14.73 -6.74,12.47 -13.7,24.81 -20.7,37.15 3.55,-17.34 7.49,-34.61 11.38,-51.88zm1091.53 1.62c9.91,-2.26 19.97,-3.98 29.65,-7.19 -0.16,20.89 -0.47,41.92 -4.77,62.45 -11.65,59.39 -42.97,112.82 -79.54,160.26 -7.89,-22.83 -15.81,-45.65 -24.27,-68.28 13.58,-11.71 25.97,-25 35.46,-40.28 5.42,-8.46 9.09,-17.83 13.37,-26.88 10.48,-26.49 24.01,-52.03 30.1,-80.08zm-984.71 -41.04c6.04,6.54 11.7,14.17 12.71,23.29 1.91,15.18 -8.11,29.59 -20.54,37.32 -16.68,8.13 -36.12,1.76 -51.64,-6.18 15.17,2.56 32.49,2.73 45.13,-7.33 13.75,-11.09 17.7,-30.39 14.34,-47.1zm386.22 52.31c-2.68,-50.07 -5.75,-100.12 -7.91,-150.2 7.89,46.13 15.39,92.33 23.18,138.48 -5.07,3.94 -10.15,7.83 -15.27,11.72zm-196.38 -178.73c7.8,-2.3 15.58,-4.67 23.39,-6.97 -23.36,62.29 -46.3,124.73 -70.12,186.83 15.11,-60.06 31.23,-119.89 46.73,-179.86zm345.88 -0.04c7.83,-2.24 15.6,-4.66 23.41,-6.93 -23.5,62.29 -46.34,124.82 -70.24,186.93 15.18,-60.09 31.21,-120.01 46.83,-180zm157.16 -31.94c12.08,-0.04 24.16,-0.09 36.23,0.02 -25.37,70.13 -51.25,140.1 -76.37,210.32 0.52,-5.2 1.77,-10.3 3.18,-15.34 15.53,-59.88 30.75,-119.85 46.36,-179.72 -3.12,-5.12 -6.25,-10.2 -9.4,-15.28zm-199.98 -1.8c6.28,0.41 12.58,0.51 18.9,0.6 -9.43,12.58 -18.9,25.13 -28.71,37.41 3.03,-12.73 6.53,-25.35 9.81,-38.01zm-129.68 0.91c11.25,-0.03 22.51,0.02 33.76,-0.05 -45.96,69.93 -92.54,139.44 -138.24,209.54 -0.45,-0.12 -1.38,-0.35 -1.83,-0.45 3.39,-2.49 4.77,-6.63 6.88,-10.12 34.34,-60.79 68.51,-121.68 102.93,-182.42 4.44,-5.39 -1.98,-11.17 -3.5,-16.5zm-216.14 -0.94c6.27,0.45 12.55,0.54 18.84,0.54 -9.3,12.81 -19.06,25.28 -28.78,37.76 3.14,-12.81 6.64,-25.54 9.94,-38.3zm-162.82 2.14c19.03,-1.72 38.2,-2.05 57.29,-1.25 10.92,0.47 21.94,0.15 32.71,2.19 -15.05,-0.17 -30.08,1.29 -45,3.14 -18.33,2.54 -36.88,5.71 -53.82,13.47 -11.82,5.41 -20.63,15.49 -28.2,25.76 -17.2,24.22 -24.29,54.66 -22.89,84.1 -10.1,-21.15 -7.07,-45.4 -0.56,-67.11 5.57,-18.54 13.86,-37.28 28.79,-50.18 8.62,-7.73 20.72,-8.73 31.68,-10.12zm962.4 -0.49c4.59,-12.11 17.8,-17.32 29.59,-19.49 9.49,-0.89 19.5,-0.42 28.31,3.51 -12.56,5.52 -25.32,10.55 -37.9,15.97 1.48,0.95 3.06,1.81 4.7,2.56 14.36,-1.01 25.59,-13.25 40.21,-12.87 8.43,1.83 15.04,7.99 21.29,13.56 -11.31,3.31 -22.89,5.66 -34.05,9.4 2.49,2.32 5.92,2.91 9.11,1.64 9.59,-2.51 19.02,-5.55 28.53,-8.34 5.64,5.78 11.26,11.66 17.84,16.43 -5.27,2.91 -10.86,5.33 -15.56,9.14 6.12,2.28 11.12,-3.76 16.64,-5.59 9.57,8.93 19.65,17.52 27.87,27.77 -44.55,-20.38 -92.89,-31.35 -136.58,-53.69zm-232.98 -76.61c3.47,4.35 6.86,8.76 10.13,13.27 -7.2,11.54 -13.83,23.43 -21.2,34.88 3.52,-16.08 7.37,-32.1 11.07,-48.15zm-700.64 3.55c7.42,-4.56 12.92,-11.44 19.32,-17.2 -6.59,12.29 -14.41,23.87 -21.51,35.86 -21.47,-2.9 -43.11,-4.75 -64.41,-8.58 11.36,0.96 22.78,0.18 34.13,-0.82 11.16,-1.37 22.9,-2.87 32.47,-9.26zm-147.66 -17.04c-5.55,12.9 -11.97,25.4 -18.07,38.05 -22.68,-3.53 -45.4,-6.87 -68.06,-10.55 18.76,0.56 38.11,1.92 56.26,-3.82 12.54,-4.08 20.75,-14.87 29.87,-23.68zm941.91 -15.35c4.5,4.71 8.89,10.02 10.06,16.66 2.7,12.53 -5.56,24.59 -15.27,31.68 -14.06,8.81 -31.98,4.77 -46.29,-1.34 13.39,2.05 28.8,2.24 39.69,-7.1 11.42,-9.65 14.24,-25.77 11.81,-39.9zm-556.82 -39.1c15.09,33.79 29.7,67.78 44.6,101.66 -4.72,2.79 -9.45,5.55 -14.21,8.29 -10.07,-36.66 -20.75,-73.19 -30.39,-109.95zm834.18 -22.79c6.63,3.17 12.38,7.82 18.63,11.63 6.58,4.3 13.91,7.66 19.41,13.42 3.2,3.41 6.09,7.12 9.26,10.58 -7.45,6.27 -14.28,13.3 -19.86,21.29 6.98,4.27 13.89,8.69 20.35,13.76 1.94,1.51 3.84,3.08 5.77,4.66 -2.66,0.16 -5.29,0.26 -7.9,0.33 -7.97,0.02 -15.91,-0.5 -23.85,-0.52 -1.82,14.48 3.26,29.32 13.49,39.69 8.2,10.64 22.95,12.33 35.29,9.78 4.46,-0.45 8.93,0.07 13.4,0.32 -7.19,9.9 -16.2,20.04 -28.7,22.73 -4.98,1.41 -9.02,-2.61 -13.08,-4.77 -5.32,-10.91 -13.76,-19.82 -21.13,-29.35 -12.38,-12.04 -27.56,-24.19 -30.58,-42.23 -4.51,-24.02 -0.98,-49.26 9.5,-71.32zm-542.37 -35.15c4.51,36.37 1.39,73.74 -7.99,109.15 -4.54,15.01 -9.03,31.01 -20.09,42.67 -7.92,7.87 -19.23,12.57 -30.43,11.58 -8.96,-1.03 -15.73,-7.7 -21.06,-14.44 8.67,4.76 19.39,7.42 28.65,2.69 18.14,-7.75 26.06,-27.46 31.41,-45.06 9.94,-34.78 15.42,-70.69 19.51,-106.59zm555.53 -8.07c6.13,-2.25 12.27,1.32 17.44,4.36 13.62,8.85 22.04,23.24 34.09,33.83 13,14.34 23.5,30.9 37.6,44.28 10.24,10.71 22.94,19.52 37.62,22.67 -6.35,6.04 -15.29,7.83 -23.68,8.97 -17.16,-1.97 -29.75,-15.46 -40.56,-27.75 -16.29,-19.67 -35.6,-36.59 -55.7,-52.26 -9.18,-6.11 -18.7,-14.68 -30.52,-13.44 -8.23,0.52 -16.48,0.82 -24.7,1.18 -9.65,0.25 -18.47,4.51 -27.49,7.42 7.24,-8.15 17.13,-13.39 27.31,-16.94 15.81,-5.54 32.51,-7.78 48.59,-12.32zm-450.96 -34.73c12.12,-0.04 24.25,-0.04 36.39,0 -25.12,67.77 -49.53,135.83 -75.03,203.45 15.65,-62.85 32.22,-125.48 47.99,-188.31 -3.15,-5.03 -6.28,-10.08 -9.35,-15.14zm-296.91 -0.04c7.42,0.02 14.83,0 22.26,0.05 -17.33,41.56 -34.6,83.13 -51.96,124.66 9.23,-41.71 19.83,-83.14 29.7,-124.71zm-144.14 0.07c12.08,-0.1 24.16,-0.05 36.24,-0.03 -25.43,70.03 -50.78,140.08 -76.38,210.03 8.27,-35.74 18.07,-71.13 26.93,-106.73 7.57,-29.27 14.85,-58.6 22.58,-87.83 -3.12,-5.15 -6.31,-10.27 -9.37,-15.44zm-110.79 -0.03c12.14,-0.02 24.25,-0.04 36.39,0 -25.09,67.68 -49.51,135.62 -74.91,203.18 15.51,-62.79 32.14,-125.32 47.87,-188.06 -3.18,-4.99 -6.28,-10.04 -9.35,-15.12zm-165.44 0c12.08,-0.02 24.14,-0.06 36.22,0.03 -23.97,64.08 -48.22,128.04 -72.29,192.08 -1.93,5.31 -3.83,10.64 -6.29,15.76 17.12,-64.26 34.51,-128.46 51.71,-192.68 -3.21,-5.01 -6.32,-10.08 -9.35,-15.19zm-167.42 0.05c12,-0.14 23.97,-0.05 35.97,-0.05 -26.1,68.85 -52.02,137.75 -78.11,206.58 0.56,-3.08 1.22,-6.13 2.05,-9.14 17.38,-61.8 34.52,-123.65 51.9,-185.45 -3.94,-3.97 -7.91,-7.94 -11.81,-11.94zm1009.78 6.56c10.29,-5.69 22.37,-6.58 33.86,-7.36 21.64,-0.51 43.45,-0.06 64.84,3.58 -21.01,0.35 -42.12,2.13 -62.63,6.81 -11.32,2.94 -23.45,6.25 -31.63,15.15 -22.27,22.38 -32.78,54.13 -33.88,85.24 -4.59,-10.15 -7.08,-21.57 -5.15,-32.67 2.26,-13.67 6.08,-27.11 11.51,-39.87 5.12,-11.84 12.03,-23.67 23.08,-30.88zm-331.12 15.13c20.84,-21.8 52.59,-26.34 81.3,-27.54 25.6,-2.4 51.12,5.29 73.46,17.44 -21.33,-4.51 -43.02,-7.78 -64.85,-7.76 -14.52,0.35 -29.38,1.72 -42.77,7.73 -13.47,6.06 -27.3,12.44 -37.86,23.06 -11.04,10.76 -17.83,24.86 -24.2,38.68 -10.71,24.2 -21.11,48.9 -25.47,75.17 -2.78,16.8 -3.39,34.51 2.41,50.78 -11.39,-9.26 -15.13,-24.61 -15.29,-38.66 -0.77,-23.08 6.58,-45.28 13.56,-66.94 8.92,-25.93 18.96,-53 39.71,-71.96zm-808.45 -83.14c13.94,0.07 27.89,-0.07 41.85,0.08 -30.94,90.7 -61.3,181.59 -92.39,272.22 10.45,-46.41 22.53,-92.48 33.57,-138.77 9.12,-37.13 18.17,-74.26 27.29,-111.39 -3.36,-7.42 -6.98,-14.71 -10.32,-22.14zm474.61 559.91c9.02,-0.28 18.06,-0.52 27.06,0.06 5.81,0.27 12.91,3.48 13.21,10.11 0.73,10.65 -7.83,19.85 -17.91,22.02 3.95,7.21 7.99,14.36 11.97,21.55 -6.65,0 -13.28,0 -19.91,0 -2.79,-6.75 -5.61,-13.49 -8.25,-20.28 -1.85,6.79 -3.97,13.49 -5.89,20.28 -5.34,0 -10.7,0 -16.05,0 5.28,-17.91 10.73,-35.77 15.77,-53.74zm8.99 24.15c5.78,0.03 13.24,-1.64 14.18,-8.48 -0.41,-5.01 -6.65,-4.37 -10.27,-4.79 -1.28,4.43 -2.62,8.85 -3.91,13.27zm177.11 -24.27c9.89,0.14 19.93,-0.96 29.73,0.85 9.24,1.78 16.7,10.57 16.02,20.15 -0.8,13.1 -10.88,23.83 -22.34,29.17 -12.24,6.06 -26.23,2.91 -39.32,3.71 5.32,-17.95 10.7,-35.9 15.91,-53.88zm12.43 11.98c-2.79,9.97 -5.85,19.88 -8.69,29.85 7.56,0.32 15.89,-1.56 20.73,-7.87 3.5,-4.61 6.18,-11.54 2.88,-16.9 -3.26,-4.92 -9.74,-4.75 -14.92,-5.08zm91.42 -12.08c8.74,0.17 17.5,-0.4 26.22,0.33 4.32,0.24 9.42,2.19 10.48,6.89 1.04,7.21 -3.1,14.17 -9.07,17.98 3.59,1.19 7.64,3.47 7.49,7.84 0.75,10.98 -9.14,19.42 -19.4,20.56 -10.53,0.85 -21.11,0.15 -31.66,0.33 5.33,-17.99 10.67,-35.95 15.94,-53.93zm9.73 21.65c5.26,-0.31 10.94,-2 12.14,-7.9 -2.6,-2.14 -5.92,-2.47 -9.09,-2.79 -1.06,3.55 -2.09,7.11 -3.05,10.69zm-3.02 9.96c-1.17,3.86 -2.32,7.75 -3.43,11.65 5.97,0.1 15.84,-0.23 15.79,-8.45 -2.93,-3.72 -8.27,-2.59 -12.36,-3.2zm161.2 -31.58c9.62,0.18 19.32,-0.63 28.91,0.52 5.12,0.56 11.07,3.99 11.07,9.77 1.03,10.76 -7.78,19.97 -17.86,22.14 4.14,7.09 7.99,14.33 12.01,21.48 -6.63,0.02 -13.25,0.02 -19.84,0.02 -2.75,-6.58 -5.38,-13.21 -8.29,-19.72 -2.02,6.54 -4,13.12 -5.83,19.72 -5.38,0 -10.72,0 -16.08,0 5.32,-17.96 10.68,-35.93 15.91,-53.93zm8.87 24.25c5.24,-0.1 12.55,-0.9 13.81,-7.19 1.51,-5.78 -6.13,-5.88 -9.94,-5.99 -1.27,4.41 -2.58,8.79 -3.87,13.18zm89.31 -24.28c10.16,0.41 20.56,-1.08 30.57,1.22 8.09,1.98 14.88,9.27 15.05,17.82 0.41,13.56 -9.81,25.21 -21.51,30.78 -12.33,6.67 -26.72,3.36 -40.08,4.14 5.31,-18 10.61,-36 15.97,-53.96zm12.44 11.99c-2.97,9.96 -5.88,19.93 -8.84,29.91 4.95,-0.11 10.18,-0.16 14.59,-2.73 7,-3.66 11.99,-12.21 10.08,-20.08 -2.25,-6.49 -10.12,-6.75 -15.83,-7.1z"/>
   <path class="fil2" d="M1122.03 351.13c-9.07,-16.99 -14.48,-36.4 -11.85,-55.74 20.1,22.72 43.9,42.56 71.4,55.69 93.96,43.75 191.56,78.96 289.31,113.13 63.38,22.79 128.21,43.46 186.55,77.78 29.05,16.98 57.09,36.11 81.57,59.31 18.05,17.39 34.64,37.47 42.84,61.51 5.45,15.75 4.37,32.71 3.5,49.07 -0.21,6.25 -1.98,12.38 -5.64,17.5 -21.41,-22.25 -38.07,-48.49 -58.72,-71.41 -11.92,-13.02 -24.86,-25.7 -40.24,-34.54 -17.97,-0.94 -36.02,-0.04 -53.74,3.05 -95.99,-42.13 -191.44,-85.67 -287.29,-128.18 10.58,13.46 24.01,24.25 35.74,36.63 11.47,12.65 24.49,23.76 36.83,35.56 -89.84,0.19 -179.68,-0.05 -269.53,0.11 -7.1,0.31 -13.17,-3.94 -19.7,-6.03 -13.42,-4.61 -27.21,-9.85 -37.66,-19.79 -9.33,-9.07 -9.52,-23.1 -10.25,-35.23 28.81,11.15 59.05,18.08 89.15,24.77 -26.5,-12.71 -51.18,-29.58 -71.88,-50.49 -10.72,-11.52 -22.27,-25.66 -20.07,-42.49 32.92,14.36 65.61,29.3 98.91,42.77 -22.96,-17.67 -47.16,-34.53 -65.38,-57.36 -12.4,-15.47 -20.74,-35.25 -18.3,-55.37 32.26,20.7 65.21,40.31 98.46,59.39 -23.54,-24.59 -48.13,-49.12 -64.01,-79.64zm117.07 490.46c63.54,0.26 127.08,-0.02 190.62,0.14 -5.76,23.57 -11.84,47.07 -17.65,70.64 -4.04,-11.02 -7.89,-25.21 -20.54,-29.02 -18.8,-4.12 -38.18,-0.89 -57.22,-1.69 -4.34,15.62 -8.13,31.37 -12.14,47.07 24.48,0.02 48.95,-0.01 73.43,0.02 -3.62,14.35 -7.16,28.71 -10.79,43.05 -24.48,0.02 -48.94,0.02 -73.4,0 -5.03,19.99 -9.94,40.02 -14.78,60.06 17.13,-0.51 34.44,1.36 51.43,-1.43 18.26,-3.17 33.07,-16.05 43,-31.16 -5.92,24.55 -12.29,49.01 -18.44,73.5 -57.22,0.02 -114.42,0.03 -171.64,0 15.59,-63.23 31.21,-126.44 46.81,-189.66 2.33,-10.1 4.98,-21.29 0.42,-31.16 -1.76,-4.41 -5.54,-7.45 -9.11,-10.36zm20.49 11.02l0 0c3.15,5.08 6.28,10.16 9.4,15.28 -15.61,59.87 -30.83,119.84 -46.36,179.72 -1.41,5.04 -2.66,10.14 -3.18,15.34 25.12,-70.22 51,-140.19 76.37,-210.32 -12.07,-0.11 -24.15,-0.06 -36.23,-0.02zm-223.28 58.98c5.47,-23.21 11.51,-46.29 17.24,-69.44 61.81,-0.02 123.63,-0.04 185.46,0 -5.83,22.96 -11.56,45.95 -17.56,68.88 -3.22,-8.46 -6.36,-18.03 -14.59,-22.94 -9.14,-5.45 -20.14,-3.47 -30.2,-3.19 -11.09,42.77 -22.02,85.6 -33.04,128.4 -3.03,13.25 -7.82,26.22 -8.71,39.87 -0.61,7.71 3.03,15.04 9.05,19.72 -33.31,-0.26 -66.65,-0.03 -99.99,-0.1 15.67,-62.69 31.3,-125.36 47.02,-188.01 -10.72,-0.18 -22.02,-0.3 -31.8,4.73 -9.8,4.7 -16.75,13.39 -22.88,22.08zm23.3 -60.78l0 0c-3.28,12.66 -6.78,25.28 -9.81,38.01 9.81,-12.28 19.28,-24.83 28.71,-37.41 -6.32,-0.09 -12.62,-0.19 -18.9,-0.6zm42.82 33.74l0 0c-15.62,59.99 -31.65,119.91 -46.83,180 23.9,-62.11 46.74,-124.64 70.24,-186.93 -7.81,2.27 -15.58,4.69 -23.41,6.93zm-191.23 -42.53c36.96,0.23 73.92,0.09 110.89,0.07 3.26,76.9 6.39,153.79 9.31,230.68 -30.34,0.03 -60.66,-0.02 -91.01,0.02 -0.01,-14.94 -0.99,-29.88 -0.9,-44.81 -21.41,0.03 -42.82,-0.16 -64.22,0.09 -5.1,8.7 -10.22,18.26 -9.71,28.63 0.4,7.28 6.38,12.2 11.82,16.17 -24.03,-0.22 -48.05,-0.01 -72.06,-0.1 35.69,-64.13 71.33,-128.3 107.03,-192.43 3.55,-7 7.38,-14.17 8.3,-22.07 0.63,-6.92 -4.44,-12.33 -9.45,-16.25zm18.73 9.7l0 0c1.52,5.33 7.94,11.11 3.5,16.5 -34.42,60.74 -68.59,121.63 -102.93,182.42 -2.11,3.49 -3.49,7.63 -6.88,10.12 0.45,0.1 1.38,0.33 1.83,0.45 45.7,-70.1 92.28,-139.61 138.24,-209.54 -11.25,0.07 -22.51,0.02 -33.76,0.05zm23 211.6l0 0c5.12,-3.89 10.2,-7.78 15.27,-11.72 -7.79,-46.15 -15.29,-92.35 -23.18,-138.48 2.16,50.08 5.23,100.13 7.91,150.2zm-54.84 -76.9l0 0c13.41,0.37 26.85,0.25 40.27,0.07 -0.8,-22.97 -1.2,-45.95 -1.99,-68.93 -12.74,22.96 -25.33,46.01 -38.28,68.86zm-190.01 -144.17c61.87,-0.26 123.74,-0.07 185.63,-0.1 -5.82,23.31 -12.07,46.51 -17.57,69.89 -2.92,-9.09 -6.3,-19.5 -15.27,-24.34 -9.05,-4.99 -19.68,-3.01 -29.5,-2.85 -13.37,51.6 -26.62,103.23 -39.83,154.86 -2.93,11.28 -3.71,25.92 7.27,33.23 -33.37,-0.4 -66.76,-0.01 -100.14,-0.19 15.58,-62.67 31.35,-125.28 46.93,-187.95 -12.59,-0.39 -26.24,0.03 -36.86,7.71 -7.55,4.84 -12.81,12.24 -17.91,19.42 5.57,-23.27 11.68,-46.4 17.25,-69.68zm5.71 8.53l0 0c-3.3,12.76 -6.8,25.49 -9.94,38.3 9.72,-12.48 19.48,-24.95 28.78,-37.76 -6.29,0 -12.57,-0.09 -18.84,-0.54zm42.76 33.81l0 0c-15.5,59.97 -31.62,119.8 -46.73,179.86 23.82,-62.1 46.76,-124.54 70.12,-186.83 -7.81,2.3 -15.59,4.67 -23.39,6.97zm-244.92 -27.33c12.47,-11.23 29.82,-14.78 46.13,-15.13 46.87,0.02 93.75,0 140.61,0 -7.16,29.45 -14.08,58.96 -21.34,88.38 -3.03,-12.45 -8.34,-25.42 -19.52,-32.66 -14.39,-9.47 -32.71,-9.66 -49.28,-7.97 -9.71,0.78 -18,7.8 -21.13,16.92 -3.49,9.43 -7.8,20.94 -1.92,30.33 5.36,7.62 15.41,9.12 23.99,10.32 12.85,1.96 26.67,-1.24 38.7,4.91 11.4,5.1 18.5,16.8 20.59,28.79 3.66,19.29 -2.42,38.44 -7.61,56.8 -5.93,20.34 -12.13,42.24 -28.34,56.98 -12.48,11.75 -30.15,15.54 -46.79,15.69 -49.07,0.08 -98.13,0.01 -147.2,0.03 7.15,-31.34 14.25,-62.69 21.3,-94.04 2.51,11.79 5.23,24.62 14.38,33.23 9.79,9.09 23.92,10.33 36.65,10.31 11.33,-0.42 23.67,0 33.53,-6.53 10.32,-7.15 14.36,-20.12 15.94,-32.01 0.94,-6.55 -1.37,-14.42 -8.2,-16.75 -17.25,-6.21 -36.62,0.4 -53.61,-7.19 -11.62,-4.73 -19.36,-16.05 -21.73,-28.1 -4.51,-20.97 1.24,-42.32 8.11,-62.09 6.06,-17.93 12.21,-37.2 26.74,-50.22zm39.34 -4.34l0 0c-10.96,1.39 -23.06,2.39 -31.68,10.12 -14.93,12.9 -23.22,31.64 -28.79,50.18 -6.51,21.71 -9.54,45.96 0.56,67.11 -1.4,-29.44 5.69,-59.88 22.89,-84.1 7.57,-10.27 16.38,-20.35 28.2,-25.76 16.94,-7.76 35.49,-10.93 53.82,-13.47 14.92,-1.85 29.95,-3.31 45,-3.14 -10.77,-2.04 -21.79,-1.72 -32.71,-2.19 -19.09,-0.8 -38.26,-0.47 -57.29,1.25zm15.74 158.09l0 0c3.36,16.71 -0.59,36.01 -14.34,47.1 -12.64,10.06 -29.96,9.89 -45.13,7.33 15.52,7.94 34.96,14.31 51.64,6.18 12.43,-7.73 22.45,-22.14 20.54,-37.32 -1.01,-9.12 -6.67,-16.75 -12.71,-23.29zm-106.82 39.42l0 0c-3.89,17.27 -7.83,34.54 -11.38,51.88 7,-12.34 13.96,-24.68 20.7,-37.15 -2.98,-4.99 -5.69,-10.16 -9.32,-14.73zm1213.28 -290.19c7.94,0.02 15.88,0.54 23.85,0.52 -2.82,9.11 -3.6,19.06 -1.16,28.34 3.84,11.46 15.96,16.18 26.09,20.61 -12.34,2.55 -27.09,0.86 -35.29,-9.78 -10.23,-10.37 -15.31,-25.21 -13.49,-39.69zm25.49 -39.52c5.62,4.81 10.91,9.96 16.41,14.91 -6.7,5.5 -12.13,12.36 -15.92,20.14 -6.46,-5.07 -13.37,-9.49 -20.35,-13.76 5.58,-7.99 12.41,-15.02 19.86,-21.29zm-373.56 -113.71c13.68,-9.74 31.23,-10.72 47.47,-10.34 36.59,0.04 73.18,-0.03 109.79,0.04 -6,25.48 -12.36,50.88 -18.24,76.39 -2.75,-11.7 -8.31,-23.68 -19.24,-29.81 -12.71,-6.8 -27.96,-7.13 -41.92,-5.05 -7.9,1.03 -13.89,7.4 -16.47,14.64 -2.73,7.39 -5.72,15.85 -2.62,23.56 3.58,7.38 12.34,9.59 19.81,10.65 11.92,2.11 24.87,-1.13 36.02,4.79 11.31,5.5 17.16,18.28 17.65,30.39 1.35,17.62 -5.02,34.42 -9.65,51.11 -5.08,16.58 -11.75,34.33 -26.61,44.6 -14.11,9.86 -32.07,10.03 -48.59,9.79 -37.86,-0.02 -75.73,0.01 -113.59,-0.02 6.01,-27.1 12.36,-54.12 18.28,-81.23 2.28,10.62 4.7,22.46 13.51,29.75 9.15,7.63 21.72,8.08 33.07,7.96 10.08,-0.37 21.49,-0.68 29.25,-8.1 6.68,-6.82 9.63,-16.5 10.65,-25.79 0.84,-5.96 -2.35,-12.75 -8.54,-14.19 -14.96,-4.3 -31.51,0.89 -45.89,-6.15 -10.39,-4.66 -16.54,-15.58 -18.04,-26.51 -2.94,-17.95 2.46,-35.77 8.18,-52.59 5.44,-16.07 11.55,-33.39 25.72,-43.89zm13.54 6.74l0 0c-11.05,7.21 -17.96,19.04 -23.08,30.88 -5.43,12.76 -9.25,26.2 -11.51,39.87 -1.93,11.1 0.56,22.52 5.15,32.67 1.1,-31.11 11.61,-62.86 33.88,-85.24 8.18,-8.9 20.31,-12.21 31.63,-15.15 20.51,-4.68 41.62,-6.46 62.63,-6.81 -21.39,-3.64 -43.2,-4.09 -64.84,-3.58 -11.49,0.78 -23.57,1.67 -33.86,7.36zm35.36 133.23l0 0c2.43,14.13 -0.39,30.25 -11.81,39.9 -10.89,9.34 -26.3,9.15 -39.69,7.1 14.31,6.11 32.23,10.15 46.29,1.34 9.71,-7.09 17.97,-19.15 15.27,-31.68 -1.17,-6.64 -5.56,-11.95 -10.06,-16.66zm-93.61 28.84l0 0c-3.7,16.05 -7.55,32.07 -11.07,48.15 7.37,-11.45 14,-23.34 21.2,-34.88 -3.27,-4.51 -6.66,-8.92 -10.13,-13.27zm-92.16 -179.2c36.73,0.12 73.47,0.02 110.2,0.05 -19.27,77.03 -38.46,154.08 -57.81,231.08 -28.47,0.02 -56.91,0.03 -85.37,0 16.53,-63.68 33.05,-127.36 49.47,-191.07 4.39,-15.32 -3.15,-31.88 -16.49,-40.06zm25.33 10.52l0 0c3.07,5.06 6.2,10.11 9.35,15.14 -15.77,62.83 -32.34,125.46 -47.99,188.31 25.5,-67.62 49.91,-135.68 75.03,-203.45 -12.14,-0.04 -24.27,-0.04 -36.39,0zm-464.66 -10.5c35.05,0.09 70.11,0.03 105.15,0.02 8.67,33.26 17.27,66.53 25.97,99.8 8.43,-33.22 16.65,-66.5 24.98,-99.73 20.3,-0.11 40.62,-0.02 60.93,-0.06 -19.08,77.07 -38.4,154.08 -57.67,231.1 -23.92,0 -47.84,0 -71.76,0 -10.06,-38.98 -20.21,-77.92 -30.36,-116.86 -5.52,21.86 -11.24,43.67 -16.74,65.56 -2.86,11.15 -7,23.03 -3.47,34.53 1.73,6.48 5.97,11.77 10.2,16.8 -26.72,-0.1 -53.42,0.02 -80.13,-0.07 14.57,-59.38 29.46,-118.69 44.19,-178.03 2.78,-10.31 5.91,-21.24 3.22,-31.89 -2.02,-8.62 -8.2,-15.36 -14.51,-21.17zm23.61 10.53l0 0c3.06,5.17 6.25,10.29 9.37,15.44 -7.73,29.23 -15.01,58.56 -22.58,87.83 -8.86,35.6 -18.66,70.99 -26.93,106.73 25.6,-69.95 50.95,-140 76.38,-210.03 -12.08,-0.02 -24.16,-0.07 -36.24,0.03zm144.14 -0.07l0 0c-9.87,41.57 -20.47,83 -29.7,124.71 17.36,-41.53 34.63,-83.1 51.96,-124.66 -7.43,-0.05 -14.84,-0.03 -22.26,-0.05zm-99.47 100.78l0 0c9.64,36.76 20.32,73.29 30.39,109.95 4.76,-2.74 9.49,-5.5 14.21,-8.29 -14.9,-33.88 -29.51,-67.87 -44.6,-101.66zm-176.54 -111.26c34.84,0.14 69.67,-0.02 104.51,0.09 -19.21,77.03 -38.48,154.04 -57.77,231.06 -28.41,0 -56.82,0.01 -85.24,-0.02 14.48,-58.93 29.36,-117.75 44.04,-176.64 2.7,-11.51 7.07,-23.33 4.33,-35.25 -1.28,-7.26 -5.27,-13.62 -9.87,-19.24zm21.08 10.52l0 0c3.07,5.08 6.17,10.13 9.35,15.12 -15.73,62.74 -32.36,125.27 -47.87,188.06 25.4,-67.56 49.82,-135.5 74.91,-203.18 -12.14,-0.04 -24.25,-0.02 -36.39,0zm-186.99 -10.4c34.55,-0.14 69.12,-0.03 103.68,-0.05 -15.51,60.91 -30.81,121.86 -46.18,182.8 6.79,-0.1 13.57,0.09 20.38,-0.03 8.29,0.07 15.86,-4 22.56,-8.5 16.28,-11.24 29.44,-26.65 39.05,-43.9 -8.17,33.63 -16.64,67.18 -25.19,100.71 -51.25,-0.04 -102.48,0.07 -153.73,-0.06 16.55,-65.82 33.39,-131.58 50.11,-197.37 1.35,-6.49 2.74,-13.66 -0.36,-19.86 -2.72,-5.08 -6.79,-9.25 -10.32,-13.74zm21.55 10.4l0 0c3.03,5.11 6.14,10.18 9.35,15.19 -17.2,64.22 -34.59,128.42 -51.71,192.68 2.46,-5.12 4.36,-10.45 6.29,-15.76 24.07,-64.04 48.32,-128 72.29,-192.08 -12.08,-0.09 -24.14,-0.05 -36.22,-0.03zm83.47 172.23l0 0c-9.57,6.39 -21.31,7.89 -32.47,9.26 -11.35,1 -22.77,1.78 -34.13,0.82 21.3,3.83 42.94,5.68 64.41,8.58 7.1,-11.99 14.92,-23.57 21.51,-35.86 -6.4,5.76 -11.9,12.64 -19.32,17.2zm-271.72 -182.63c34.55,-0.14 69.11,-0.03 103.64,-0.05 -15.33,60.88 -30.72,121.75 -46.11,182.63 12.06,-0.24 25.19,2.32 36.1,-4.25 19.71,-11 35.03,-28.72 46,-48.24 -8.32,33.67 -16.73,67.3 -25.23,100.94 -51.26,-0.02 -102.55,0.03 -153.82,-0.04 16.58,-65.82 33.39,-131.59 50.12,-197.37 1.46,-6.57 2.7,-13.82 -0.43,-20.13 -2.72,-4.97 -6.77,-9.06 -10.27,-13.49zm20.83 10.45l0 0c3.9,4 7.87,7.97 11.81,11.94 -17.38,61.8 -34.52,123.65 -51.9,185.45 -0.83,3.01 -1.49,6.06 -2.05,9.14 26.09,-68.83 52.01,-137.73 78.11,-206.58 -12,0 -23.97,-0.09 -35.97,0.05zm103.23 155.14l0 0c-9.12,8.81 -17.33,19.6 -29.87,23.68 -18.15,5.74 -37.5,4.38 -56.26,3.82 22.66,3.68 45.38,7.02 68.06,10.55 6.1,-12.65 12.52,-25.15 18.07,-38.05zm631.47 -170.84c8.4,-0.87 16.88,-1.15 25.34,-0.77 19.57,0.77 39.47,2.33 58.02,9.07 10.35,3.69 20.02,9.92 26.48,18.92 5.92,8.36 8.53,18.66 8.92,28.78 1.07,23.66 -4.91,46.83 -10.71,69.56 -7.19,26.53 -16.31,53.5 -33.96,75.07 -14.3,17.89 -34.92,30.09 -56.95,35.82 -24.58,6.51 -50.38,7.03 -75.58,4.77 -17.41,-1.86 -35.57,-5.99 -49.32,-17.44 -11.35,-9.56 -16.66,-24.46 -17.44,-38.96 -1.38,-23.52 4.09,-46.76 10.06,-69.34 8.69,-31.42 21.95,-63.09 46.24,-85.72 18.59,-17.63 43.59,-27.45 68.9,-29.76zm-56.04 37.39l0 0c-20.75,18.96 -30.79,46.03 -39.71,71.96 -6.98,21.66 -14.33,43.86 -13.56,66.94 0.16,14.05 3.9,29.4 15.29,38.66 -5.8,-16.27 -5.19,-33.98 -2.41,-50.78 4.36,-26.27 14.76,-50.97 25.47,-75.17 6.37,-13.82 13.16,-27.92 24.2,-38.68 10.56,-10.62 24.39,-17 37.86,-23.06 13.39,-6.01 28.25,-7.38 42.77,-7.73 21.83,-0.02 43.52,3.25 64.85,7.76 -22.34,-12.15 -47.86,-19.84 -73.46,-17.44 -28.71,1.2 -60.46,5.74 -81.3,27.54zm66.45 4.26l0 0c-6.04,1.83 -11.11,5.96 -14.99,10.83 -11.16,14.43 -15.69,32.59 -19.97,50 -5.08,23.32 -12.97,46.25 -14.2,70.27 -0.16,8.27 -0.58,17.5 4.59,24.51 4.42,5.85 12.88,5.66 19.05,3.03 9.1,-3.7 14.83,-12.34 19.27,-20.68 7.29,-14.86 11.19,-31.09 14.78,-47.15 4.66,-21.3 11.66,-42.25 12.88,-64.14 0.19,-7.85 0.47,-16.55 -4.28,-23.25 -3.8,-5.45 -11.48,-5.4 -17.13,-3.42zm35.02 16.8l0 0c-4.09,35.9 -9.57,71.81 -19.51,106.59 -5.35,17.6 -13.27,37.31 -31.41,45.06 -9.26,4.73 -19.98,2.07 -28.65,-2.69 5.33,6.74 12.1,13.41 21.06,14.44 11.2,0.99 22.51,-3.71 30.43,-11.58 11.06,-11.66 15.55,-27.66 20.09,-42.67 9.38,-35.41 12.5,-72.78 7.99,-109.15zm-934.85 -114.14c45.4,-0.11 90.78,-0.04 136.18,-0.04 -24.37,97.33 -48.7,194.68 -73.01,292.01 -35.89,0.01 -71.8,-0.04 -107.7,0.03 19.27,-78.63 38.77,-157.19 58.16,-235.77 2.79,-11.89 7.78,-24.24 4.21,-36.51 -2.57,-8.98 -10.22,-15.04 -17.84,-19.72zm24.93 9.94l0 0c3.34,7.43 6.96,14.72 10.32,22.14 -9.12,37.13 -18.17,74.26 -27.29,111.39 -11.04,46.29 -23.12,92.36 -33.57,138.77 31.09,-90.63 61.45,-181.52 92.39,-272.22 -13.96,-0.15 -27.91,-0.01 -41.85,-0.08zm936.1 -206.95l0 0c8.88,16.35 21.38,30.32 33.45,44.34 6.45,8.04 16.29,11.98 24.99,16.97 40.86,20.39 86.52,30.66 132.04,32.07 -39.97,-13.01 -80.67,-25.51 -117.05,-47.07 -25.17,-14.33 -48.76,-31.2 -73.43,-46.31zm-17.49 70.97l0 0c10.44,17.34 23.26,33.55 39.43,45.87 21.78,17.01 49.37,23.52 76.11,27.77 20.47,1.93 41.17,1.24 61.59,-1.06 -20.32,-6.5 -41.5,-9.51 -62.01,-15.25 -41.71,-11.65 -78.02,-35.9 -115.12,-57.33z"/>
   <path class="fil3" d="M1528.37 769.05c24.58,-4.74 50.45,-5.97 74.73,1.03 20.46,5.78 39.42,18.19 51.24,36.08 4.78,6.67 7.48,14.47 11.16,21.75 6.87,8.75 14.93,17.2 25.08,22.14 11.35,5.22 24.72,2.11 34.57,-4.91 9.94,-7.19 20.46,-14.27 27.54,-24.51 11.09,-15.77 17.71,-34.1 23.43,-52.35 0.18,-0.12 0.51,-0.35 0.68,-0.47 18.06,14.12 33.13,31.55 48.61,48.36 41.88,42.11 62.54,104.96 51.79,163.6 -3.8,19.01 -10.64,37.29 -18.8,54.82 -12.7,-17.32 -25.65,-36.71 -46.45,-44.91 -44.69,-21.69 -85,-51.13 -124.31,-81.23 -24.56,-18.85 -48.48,-38.52 -72.94,-57.51 -11.77,-8.88 -23.4,-18.14 -36.66,-24.72 6.89,-1.53 13.71,-3.47 20.7,-4.55 10.04,-1.68 20.24,-0.64 30.35,-0.4 -21.82,-12.39 -47.15,-17.79 -72.12,-17.79 -21.11,0.58 -44.02,5.61 -59.01,21.59 -14.42,15.35 -16.35,38.63 -10.67,58.12 1.01,0.14 3.06,0.42 4.09,0.56 -0.77,-9.33 -1.29,-19.08 2.8,-27.78 61.84,27.43 123.36,55.64 184.77,83.99 42.09,19.67 84.24,39.29 125.36,60.97 4.58,2.43 9.07,5.04 13.47,7.83 -16.71,6.28 -34.24,10.01 -51.58,14.03 -17.3,3.52 -34.73,7.82 -52.5,7.36 -32.68,-0.05 -65.86,0.11 -97.75,-7.95 -33.35,-8.76 -64.86,-24.49 -91.84,-45.96 -21.36,-17.08 -40.16,-38.07 -51.81,-62.98 -9.44,-19.67 -13.63,-42.18 -10.06,-63.84 2.94,-19.53 11.9,-37.77 23.95,-53.3 9.96,-14.03 25.38,-23.62 42.18,-27.07zm229.16 59.59l0 0c-3.01,5.11 -7.83,12.41 -2.36,17.61 3.84,5.92 12.04,4.39 17.23,1.26 6.93,-5.1 9.61,-13.76 12.27,-21.54 -4.75,4.55 -8.82,10.69 -15.42,12.64 -2.94,0.93 -5.36,-2.23 -5.1,-4.89 0.76,-6.51 6.37,-10.67 10.11,-15.54 -7.43,-1.52 -12.91,5.06 -16.73,10.46zm78.74 27.31l0 0c3.46,20.7 11.61,40.34 14.36,61.19 1.52,10.46 1.08,21.08 0.98,31.61 -0.75,13.98 -1.68,28.19 -6.31,41.52 4.2,6.01 8.41,12 12.68,17.97 3.81,-11.96 6.35,-24.3 8.23,-36.68 2.67,-40.54 -9.9,-80.72 -29.94,-115.61z"/>
  </g>
 </g>
</svg>
