<?xml version="1.0" encoding="UTF-8"?>
<!DOCTYPE svg PUBLIC "-//W3C//DTD SVG 1.1//EN" "http://www.w3.org/Graphics/SVG/1.1/DTD/svg11.dtd">
<!-- Creator: CorelDRAW -->
<svg xmlns="http://www.w3.org/2000/svg" xml:space="preserve" width="2000px" height="1600px" version="1.1" style="shape-rendering:geometricPrecision; text-rendering:geometricPrecision; image-rendering:optimizeQuality; fill-rule:evenodd; clip-rule:evenodd"
viewBox="0 0 2000 1600"
 xmlns:xlink="http://www.w3.org/1999/xlink">
 <defs>
  <style type="text/css">
   <![CDATA[
    .fil3 {fill:#123C6F;fill-rule:nonzero}
    .fil0 {fill:#CC1F44;fill-rule:nonzero}
    .fil2 {fill:#FBD322;fill-rule:nonzero}
    .fil1 {fill:#FEFEFE;fill-rule:nonzero}
   ]]>
  </style>
 </defs>
 <g id="Capa_x0020_1">
  <metadata id="CorelCorpID_0Corel-Layer"/>
  <g id="Illinois_x0020_Chicago_x0020_Flames.cdr">
   <path class="fil0" d="M899.58 1338.14c11.83,-5.98 23.76,-11.72 35.4,-18.04 6.4,20.81 12.56,41.7 18.84,62.56 -7.24,3.74 -14.4,7.59 -21.69,11.28 -1.07,-3.55 -2.14,-7.12 -3.21,-10.62 -7.19,3.52 -14.38,7.04 -21.45,10.78 -0.96,4.5 -1.99,9.03 -3.11,13.53 -7.79,3.55 -15.51,7.31 -23.19,11.11 5.92,-26.91 12.32,-53.72 18.41,-80.6zm-260.46 -248.38c84.15,-40.88 168.44,-81.51 253.18,-121.21 0.21,60.12 0.02,120.23 0.09,180.35 -0.28,33.79 1.01,67.65 -1.86,101.35 -1.78,18.97 -5.56,38.74 -17.39,54.23 -12.72,16.76 -31.74,26.82 -49.92,36.5 -20.51,10.11 -41.33,19.58 -62.24,28.83 -23.26,9.56 -48.49,18.5 -74.02,14.42 -19.51,-3.06 -36.52,-17.46 -42.64,-36.27 -8.75,-26.63 -3.76,-55.03 -4.55,-82.47 -1.14,-58.55 -0.3,-117.15 -0.65,-175.73zm286.53 -136.12c49.08,-23.13 97.9,-46.72 147,-69.8 0.35,113.44 -0.28,226.88 -0.56,340.32 -48.82,22.26 -97.48,44.85 -146.35,67.02 -0.23,-112.5 -0.05,-225.03 -0.09,-337.54zm364.45 -169.87c18.18,-3.97 38.79,-0.42 51.99,13.47 15.34,15.79 17.04,39.18 17.9,60.02 0.77,50.57 1.19,101.16 0.8,151.73 -1.05,20.61 0.7,42.85 -10.5,61.19 -12.91,24.06 -36.9,39.05 -60.54,50.99 -23.38,11.44 -47.35,21.68 -71.57,31.23 -20.19,7.58 -41.57,14.56 -63.43,12.46 -20.07,-1.91 -38.51,-15.24 -46.37,-33.81 -9.39,-21.5 -8.8,-45.51 -8.87,-68.48 0.11,-38.06 -0.24,-76.12 0.16,-114.18 0.75,-30.55 6.81,-63.36 28.54,-86.33 22.99,-24.03 55.47,-34.53 84.83,-48.35 25.21,-11.08 49.97,-24.04 77.06,-29.94zm-354.53 -634.97c29.38,-31.88 69.19,-51.44 108.23,-68.8 -14.54,14.12 -23.45,32.88 -29.73,51.88 -7.14,22.52 -10.92,45.99 -12.3,69.54 -1.35,34.87 13.72,69.31 38.62,93.47 -8.84,-29.43 -11.08,-60.61 -8,-91.11 2.87,-33.26 16.22,-67.09 42.47,-88.73 -10.61,37.41 -10.24,78.09 3.32,114.7 10.85,30.69 30.17,57.23 48.54,83.73 27.16,39.49 60.39,74.29 92.39,109.8 17.15,18.7 35.1,36.83 49.61,57.74 26.14,37.04 47.14,78.88 54.61,123.92 5.6,49.22 -1.23,98.95 -10.29,147.35 -33.77,14.33 -67.63,28.42 -101.21,43.19 21,-47.56 35.26,-100.67 25.81,-152.81 -8.73,-49.75 -30.27,-96.49 -57.29,-138.85 7.11,37.11 12.76,75.12 8.96,112.97 -1.78,20.8 -9.66,40.42 -18.67,59.05 -16.31,32.32 -39.02,61.65 -67.07,84.59 9.82,-33.21 18.67,-67.07 20.35,-101.82 4.34,-67.23 -10.27,-136.73 -46.89,-193.79 -19.3,-30.38 -43.24,-57.54 -68.91,-82.65 -9.85,-10.41 -21.49,-19.14 -29.82,-30.88 -14.03,-19.25 -22.87,-41.59 -30.58,-63.97 0.54,31.35 4.23,63.18 16.34,92.33 20.07,52.53 38.69,108.42 31.83,165.43 -3.76,38.34 -21.75,73.25 -40.95,105.97 -25.86,41.12 -58.3,77.69 -92.09,112.42 -2.29,-32.72 -4.18,-66.09 -15.31,-97.27 -7.49,-22.1 -16.08,-43.8 -24.71,-65.48 -5.49,28.93 -15.71,56.84 -29.25,82.96 -11.06,20.44 -25.92,38.69 -35.42,60.02 -9.76,21.77 -15.26,45.46 -16.24,69.31 -0.33,28.24 5.76,56.15 14.21,82.96 10.43,32.63 24.67,63.97 41.3,93.86 -24.08,11.3 -47.91,23.15 -72.15,34.05 -16.08,-35.1 -32.53,-70.5 -41.08,-108.37 -11.34,-47.17 -17.71,-97.48 -4.34,-144.95 8.57,-29.61 22.34,-57.41 37.32,-84.25 19.35,-33.37 40.21,-66.27 53.14,-102.84 10.43,-29.78 18.9,-60.79 19.32,-92.56 -0.02,-34.44 -6.18,-68.61 -15.24,-101.74 35.8,27.79 68.99,60.18 92.37,99.3 17.39,32.15 29.12,66.92 42.56,100.83 12.12,-27.07 17.18,-57.76 10.76,-86.97 -12.81,-62.66 -29.12,-124.92 -33.86,-188.94 -1.61,-36.92 -3.03,-75.82 12.3,-110.36 9.17,-20.05 23.31,-37.2 37.04,-54.23zm375.37 993.77c6.39,-2.94 13.04,-6.93 20.33,-6.3 7.7,2.1 6.41,11.58 5.74,17.72 -6.65,3.08 -13.16,6.39 -19.7,9.7 -0.14,-1.63 -0.47,-4.9 -0.63,-6.53 -8.42,2.78 -18.88,7.65 -17.18,18.44 10.67,-2.18 20.26,-10.09 31.58,-8.36 4.43,3.22 3.83,9.5 3.83,14.35 -0.42,10.65 -0.84,23.95 -11.76,29.43 -12.37,6.61 -24.79,14.59 -38.86,16.78 -9.29,-0.26 -9.45,-11.39 -9.36,-18.23 7.17,-3.22 14.24,-6.6 21.33,-9.96 0.42,1.8 1.22,5.34 1.63,7.14 8.99,-3.29 20.75,-8.33 18.16,-20.28 -10.59,3.17 -20.21,9.85 -31.43,10.6 -5.49,-0.05 -7.01,-6.05 -7.17,-10.44 -0.4,-10.19 1.12,-21.49 8.36,-29.26 6.81,-7.24 16.49,-10.39 25.13,-14.8zm-150.92 73.19c15.31,-8.03 30.64,-16.03 46.21,-23.55 0.04,5.53 0.04,11.06 -0.03,16.59 -7.46,3.62 -14.84,7.45 -22.4,10.93 -0.14,4.2 -0.3,8.37 -0.4,12.6 7.1,-3.46 14.12,-7 21.17,-10.53 -0.05,4.81 -0.07,9.62 -0.09,14.45 -6.89,3.29 -13.7,6.7 -20.45,10.2 0.05,4.31 0.07,8.61 0.1,12.95 7.6,-3.76 15.17,-7.56 22.75,-11.37 0,5.56 -0.05,11.11 -0.16,16.69 -15.66,7.91 -31.32,15.8 -47.07,23.5 0.98,-24.13 0.51,-48.31 0.37,-72.46zm-96.22 44.41c11.25,-4.95 22.2,-10.5 33.35,-15.64 0.12,24.81 -0.05,49.62 0.07,74.42 -7.3,3.67 -14.72,7.14 -22.17,10.53 -0.14,-18.37 0,-36.76 -0.07,-55.12 -5.23,20.25 -9.22,40.84 -14.59,61.05 -4.15,3.19 -9.24,4.83 -13.9,7.07 -5.28,-15.64 -9.92,-31.51 -15.22,-47.14 -0.54,18.27 -0.77,36.57 -0.58,54.86 -7.7,3.76 -15.55,7.24 -23.29,10.92 -0.17,-24.66 -0.07,-49.35 -0.05,-74.02 11.51,-5.18 22.8,-10.81 34.28,-16.03 3.85,13.23 7.52,26.53 11.46,39.76 3.94,-16.82 6.89,-33.84 10.71,-50.66zm-285.76 135.68c8.31,-4.11 16.73,-7.98 25.09,-12.04 0.02,17.99 0,35.98 0.02,53.98 6.21,-2.99 12.42,-5.98 18.72,-8.8 -0.05,5.76 -0.07,11.52 -0.14,17.31 -14.66,6.84 -28.99,14.33 -43.69,21.08 0,-23.85 0,-47.68 0,-71.53zm-111.99 52.53c16.08,-7.89 32.3,-15.5 48.38,-23.41 0.02,5.37 0.04,10.74 0.07,16.15 -8.08,4.09 -16.2,8.1 -24.06,12.6 0.04,4.16 0.09,8.34 0.14,12.51 7.16,-3.57 14.32,-7.16 21.46,-10.71 0.08,5.46 0.08,10.95 0.03,16.45 -7.31,3.48 -14.56,7.03 -21.66,10.95 0.31,9.05 0.19,18.11 -0.6,27.16 -7.96,3.25 -15.87,6.58 -23.78,9.92 0.02,-23.87 -0.03,-47.75 0.02,-71.62zm245.2 -68.59c4.74,-2.35 9.47,-4.69 14.19,-7.07 -2.45,-8.35 -4.72,-16.75 -7.07,-25.13 -2.31,10.73 -4.81,21.45 -7.12,32.2z"/>
   <path class="fil1" d="M776.29 1053.15c29.69,-14.24 59.49,-28.19 89.24,-42.24 0.03,52.97 0.03,105.97 0.03,158.97 -0.22,26.6 0.74,53.23 -1.52,79.76 -1.22,12.86 -3.78,26.07 -11.09,36.97 -7.3,10.69 -18.43,17.92 -29.56,24.13 -20.12,10.76 -41.05,19.84 -61.73,29.4 -17.11,7.54 -34.59,15.01 -53.21,17.72 -10.83,1.42 -23.45,0.81 -31.57,-7.5 -8.99,-8.47 -10.25,-21.67 -10.78,-33.32 -0.54,-24.9 1.56,-49.8 0,-74.7 -0.17,-45.74 -0.05,-91.5 -0.05,-137.27 30.9,-15 61.84,-29.87 92.76,-44.81 -0.07,68.45 -0.02,136.92 -0.02,205.37 -0.14,9.05 -1.05,18.15 0.26,27.21 7.11,-2.87 17.59,-6.02 17.06,-15.61 0.44,-74.68 0.07,-149.41 0.18,-224.08zm43.41 -73.86c-15.66,-38.56 -32.21,-76.99 -43.13,-117.23 -6.79,-34.81 -12.44,-72.99 3.01,-106.36 9.78,-19.26 19.84,-38.44 31.9,-56.36 5.49,-8.26 9.2,-17.48 12.72,-26.7 6.77,27.54 14.28,55.73 11.72,84.34 -1.82,26.14 -4.16,52.23 -6.54,78.32 30.76,-27.19 60.45,-55.68 88.17,-86 20.89,-23.08 41.4,-47.05 55.82,-74.84 13.98,-26.3 28.82,-52.37 38.62,-80.61 8.52,-24.73 12.33,-51.38 8.64,-77.43 -5.28,-39.09 -16.34,-77.1 -28.01,-114.67 40.31,38.55 74.36,86.18 87.91,140.97 5.14,26.23 8.92,52.72 13.1,79.12 2.63,17.03 3.31,34.42 0.3,51.45 -8.4,51.79 -24.06,102.17 -43.87,150.67 24.5,-13.73 47.23,-30.53 68.49,-48.85 46.37,-39.74 79.86,-95.19 90.45,-155.56 5.28,18.06 7.61,36.92 7.8,55.73 -0.32,48.64 -21.22,95.51 -43.71,137.73l-353.39 166.28zm466.6 -166.96c10.1,-2.87 21.77,-5.6 31.52,-0.18 9.15,4.83 12.19,15.73 13.8,25.22 2.63,20.28 1.72,40.77 1.77,61.17 -32.32,14.31 -64.43,29.05 -96.78,43.29 -0.61,-17.43 1.33,-34.82 0.31,-52.2 -0.59,-2.67 0.65,-6.8 -2.99,-7.5 -3.36,1.64 -6.79,3.41 -9.41,6.16 -3.29,6.14 -2.52,13.4 -3.01,20.12 1.05,38.11 0.26,76.22 0.52,114.35 0.28,18.79 -1.05,37.74 1.98,56.41 3.73,-1.64 7.7,-2.97 11.04,-5.39 2.85,-2.92 2.4,-7.4 2.73,-11.13 0.05,-22.6 -0.03,-45.19 0,-67.77 31.95,-15.55 64.17,-30.53 96.19,-45.98 -0.16,29.36 0.91,58.76 -1.26,88.05 -0.91,17.57 -12.46,32.67 -26.11,42.85 -19.28,14.09 -41.38,23.57 -63.15,33.02 -20.44,8.77 -40.93,17.83 -62.59,23.22 -11.67,2.64 -24.76,4.2 -35.64,-1.91 -9.49,-5.35 -14.04,-16.13 -16.1,-26.33 -3.17,-16.45 -2.8,-33.28 -2.78,-49.96 -0.02,-32.6 0.03,-65.23 -0.02,-97.85 0.21,-25.67 1.47,-53.68 17.71,-74.91 15.01,-19.14 38.49,-28.27 59.98,-38.04 27.4,-11.65 53.89,-25.58 82.29,-34.71zm-13.33 12.79l0 0c-25.11,10.04 -49.43,21.92 -74.23,32.63 -18.74,8.79 -39.19,17.57 -51.11,35.4 -12.07,18.25 -13,40.91 -13.65,62.05 -0.12,31.11 -0.03,62.22 -0.05,93.33 0.07,18.62 -0.61,37.38 2.26,55.84 1.52,8.85 4.88,18.44 13.05,23.22 9.45,5.11 20.67,2.99 30.66,0.79 20.61,-5.2 40.07,-13.93 59.61,-22.16 20.7,-9.01 41.63,-18 60.23,-30.95 10.03,-6.98 18.95,-16.34 23.19,-28 3.27,-10.13 2.74,-20.94 3.06,-31.44 0.86,-18.2 0.33,-36.4 0.45,-54.63 -27.19,12.51 -54.05,25.65 -81.12,38.41 0.07,21.73 0.04,43.46 0.04,65.21 -0.25,5.55 -0.28,12.81 -6.11,15.61 -6.14,2.87 -12.77,8.31 -19.84,5.86 -5.18,-7.54 -4.1,-17.25 -4.88,-25.91 -0.23,-42.87 0.03,-85.71 -0.11,-128.59 -0.49,-13.9 -1.5,-28.02 1.09,-41.79 2.01,-9.27 11.67,-13.93 20.08,-16.01 5.69,-0.02 7.56,6.35 8.26,10.94 1.84,14.94 0.77,30.06 0.28,45.07 27.32,-11.97 54.51,-24.29 81.72,-36.57 -0.02,-19.18 0.56,-38.51 -2.29,-57.55 -1.23,-7.63 -4.83,-16.55 -13.16,-18.53 -13,-2.12 -25.5,3.39 -37.43,7.77zm-320.53 145.58c31.08,-14.91 62.26,-29.66 93.37,-44.51 0.05,69.5 0.02,139.02 0,208.52 -1,24.01 -0.47,48.05 -0.49,72.09 -30.88,14.33 -61.89,28.35 -92.81,42.61 -0.07,-92.9 0.07,-185.81 -0.07,-278.71zm7.61 4.92l0 0c0.04,87.26 0,174.49 0.02,261.75 25.95,-11.62 51.69,-23.66 77.57,-35.43 -0.23,-87.88 1.05,-175.72 0.59,-263.59 -26.12,12.3 -52.21,24.65 -78.18,37.27zm-176.31 82.5l0 0c0.35,71.46 0,142.89 0.18,214.35 -0.28,6.06 0,13.13 -4.29,18.01 -5.79,4.76 -12.84,8.1 -20.19,9.66 -7.68,-0.58 -8.4,-9.84 -8.68,-15.75 0.93,-70.64 0.26,-141.35 0.4,-212.01 -25.86,12.44 -51.6,25.11 -77.55,37.38 -0.7,67.52 1.7,135.01 -0.02,202.5 0.44,10.33 0.42,21.63 6.55,30.47 5.84,7.61 16.46,8.87 25.37,7.73 18.83,-2.45 36.48,-10.06 53.7,-17.69 19.16,-8.85 38.57,-17.22 57.31,-26.93 11.21,-5.91 22.31,-12.93 29.85,-23.34 7.26,-10.29 9.15,-23.15 10.32,-35.4 1.82,-24.15 1.19,-48.4 1.28,-72.6 -0.05,-50.5 0.12,-101 -0.07,-151.5 -24.78,11.59 -49.59,23.15 -74.16,35.12z"/>
   <path class="fil2" d="M947.72 287.32c7.71,22.38 16.55,44.72 30.58,63.97 8.33,11.74 19.97,20.47 29.82,30.88 25.67,25.11 49.61,52.27 68.91,82.65 36.62,57.06 51.23,126.56 46.89,193.79 -1.68,34.75 -10.53,68.61 -20.35,101.82 28.05,-22.94 50.76,-52.27 67.07,-84.59 9.01,-18.63 16.89,-38.25 18.67,-59.05 3.8,-37.85 -1.85,-75.86 -8.96,-112.97 27.02,42.36 48.56,89.1 57.29,138.85 9.45,52.14 -4.81,105.25 -25.81,152.81 -12.84,6.02 -25.79,11.74 -38.74,17.53 22.75,-42.57 43.38,-88.61 43.71,-137.73 -0.19,-18.81 -2.52,-37.67 -7.8,-55.73 -10.59,60.37 -44.08,115.82 -90.45,155.56 -21.26,18.32 -43.99,35.12 -68.49,48.85 19.81,-48.5 35.47,-98.88 43.87,-150.67 3.01,-17.03 2.33,-34.42 -0.3,-51.45 -4.18,-26.4 -7.96,-52.89 -13.1,-79.12 -13.55,-54.79 -47.6,-102.42 -87.91,-140.97 11.67,37.57 22.73,75.58 28.01,114.67 3.69,26.05 -0.12,52.7 -8.64,77.43 -9.8,28.24 -24.64,54.31 -38.62,80.61 -14.42,27.79 -34.93,51.76 -55.82,74.84 -27.72,30.32 -57.41,58.81 -88.17,86 2.38,-26.09 4.72,-52.18 6.54,-78.32 2.56,-28.61 -4.95,-56.8 -11.72,-84.34 -3.52,9.22 -7.23,18.44 -12.72,26.7 -12.06,17.92 -22.12,37.1 -31.9,56.36 -15.45,33.37 -9.8,71.55 -3.01,106.36 10.92,40.24 27.47,78.67 43.13,117.23 -7.45,3.5 -14.84,7.04 -22.27,10.54 -16.63,-29.89 -30.87,-61.23 -41.3,-93.86 -8.45,-26.81 -14.54,-54.72 -14.21,-82.96 0.98,-23.85 6.48,-47.54 16.24,-69.31 9.5,-21.33 24.36,-39.58 35.42,-60.02 13.54,-26.12 23.76,-54.03 29.25,-82.96 8.63,21.68 17.22,43.38 24.71,65.48 11.13,31.18 13.02,64.55 15.31,97.27 33.79,-34.73 66.23,-71.3 92.09,-112.42 19.2,-32.72 37.19,-67.63 40.95,-105.97 6.86,-57.01 -11.76,-112.9 -31.83,-165.43 -12.11,-29.15 -15.8,-60.98 -16.34,-92.33z"/>
   <path class="fil3" d="M643.85 378.73c0.96,-34.56 31.84,-64.61 66.3,-65.22 58.7,-0.21 117.39,0.04 176.08,-0.12 4.74,64.02 21.05,126.28 33.86,188.94 6.42,29.21 1.36,59.9 -10.76,86.97 -13.44,-33.91 -25.17,-68.68 -42.56,-100.83 -23.38,-39.12 -56.57,-71.51 -92.37,-99.3 9.06,33.13 15.22,67.3 15.24,101.74 -0.42,31.77 -8.89,62.78 -19.32,92.56 -12.93,36.57 -33.79,69.47 -53.14,102.84 -14.98,26.84 -28.75,54.64 -37.32,84.25 -13.37,47.47 -7,97.78 4.34,144.95 8.55,37.87 25,73.27 41.08,108.37l0.23 0.49c-27.44,12.32 -54.35,25.86 -81.66,38.51 0,-228.05 0,-456.1 0,-684.15zm139.89 679.39c24.57,-11.97 49.38,-23.53 74.16,-35.12 0.19,50.5 0.02,101 0.07,151.5 -0.09,24.2 0.54,48.45 -1.28,72.6 -1.17,12.25 -3.06,25.11 -10.32,35.4 -7.54,10.41 -18.64,17.43 -29.85,23.34 -18.74,9.71 -38.15,18.08 -57.31,26.93 -17.22,7.63 -34.87,15.24 -53.7,17.69 -8.91,1.14 -19.53,-0.12 -25.37,-7.73 -6.13,-8.84 -6.11,-20.14 -6.55,-30.47 1.72,-67.49 -0.68,-134.98 0.02,-202.5 25.95,-12.27 51.69,-24.94 77.55,-37.38 -0.14,70.66 0.53,141.37 -0.4,212.01 0.28,5.91 1,15.17 8.68,15.75 7.35,-1.56 14.4,-4.9 20.19,-9.66 4.29,-4.88 4.01,-11.95 4.29,-18.01 -0.18,-71.46 0.17,-142.89 -0.18,-214.35zm176.31 -82.5c25.97,-12.62 52.06,-24.97 78.18,-37.27 0.46,87.87 -0.82,175.71 -0.59,263.59 -25.88,11.77 -51.62,23.81 -77.57,35.43 -0.02,-87.26 0.02,-174.49 -0.02,-261.75zm312.92 -150.5c11.93,-4.38 24.43,-9.89 37.43,-7.77 8.33,1.98 11.93,10.9 13.16,18.53 2.85,19.04 2.27,38.37 2.29,57.55 -27.21,12.28 -54.4,24.6 -81.72,36.57 0.49,-15.01 1.56,-30.13 -0.28,-45.07 -0.7,-4.59 -2.57,-10.96 -8.26,-10.94 -8.41,2.08 -18.07,6.74 -20.08,16.01 -2.59,13.77 -1.58,27.89 -1.09,41.79 0.14,42.88 -0.12,85.72 0.11,128.59 0.78,8.66 -0.3,18.37 4.88,25.91 7.07,2.45 13.7,-2.99 19.84,-5.86 5.83,-2.8 5.86,-10.06 6.11,-15.61 0,-21.75 0.03,-43.48 -0.04,-65.21 27.07,-12.76 53.93,-25.9 81.12,-38.41 -0.12,18.23 0.41,36.43 -0.45,54.63 -0.32,10.5 0.21,21.31 -3.06,31.44 -4.24,11.66 -13.16,21.02 -23.19,28 -18.6,12.95 -39.53,21.94 -60.23,30.95 -19.54,8.23 -39,16.96 -59.61,22.16 -9.99,2.2 -21.21,4.32 -30.66,-0.79 -8.17,-4.78 -11.53,-14.37 -13.05,-23.22 -2.87,-18.46 -2.19,-37.22 -2.26,-55.84 0.02,-31.11 -0.07,-62.22 0.05,-93.33 0.65,-21.14 1.58,-43.8 13.65,-62.05 11.92,-17.83 32.37,-26.61 51.11,-35.4 24.8,-10.71 49.12,-22.59 74.23,-32.63zm-146.25 -511.64c13.72,0.24 27.75,-1.3 41.16,2.34 23.32,6.14 42.64,25.3 48.76,48.63 4.66,19.23 1.58,39.26 2.47,58.83 -32,-35.51 -65.23,-70.31 -92.39,-109.8z"/>
  </g>
 </g>
</svg>
