<?xml version="1.0" encoding="UTF-8"?>
<!DOCTYPE svg PUBLIC "-//W3C//DTD SVG 1.1//EN" "http://www.w3.org/Graphics/SVG/1.1/DTD/svg11.dtd">
<!-- Creator: CorelDRAW -->
<svg xmlns="http://www.w3.org/2000/svg" xml:space="preserve" width="2000px" height="1600px" version="1.1" style="shape-rendering:geometricPrecision; text-rendering:geometricPrecision; image-rendering:optimizeQuality; fill-rule:evenodd; clip-rule:evenodd"
viewBox="0 0 2000 1600"
 xmlns:xlink="http://www.w3.org/1999/xlink">
 <defs>
  <style type="text/css">
   <![CDATA[
    .fil0 {fill:#11284A;fill-rule:nonzero}
    .fil1 {fill:#E84B39;fill-rule:nonzero}
   ]]>
  </style>
 </defs>
 <g id="Capa_x0020_1">
  <metadata id="CorelCorpID_0Corel-Layer"/>
  <g id="Illinois_x0020_Fighting_x0020_Illini.cdr">
   <path class="fil0" d="M501.56 80l996.87 0c-0.13,129.24 -0.17,258.48 0.01,387.7 -73.82,0.36 -147.66,0.06 -221.5,0.16 -0.07,161.16 -0.01,322.33 -0.03,483.51 0.12,60.14 -0.21,120.31 0.16,180.45 70.06,-0.14 140.11,0.02 210.16,-0.07 3.73,-0.06 7.48,0 11.21,0.32 -0.33,129.31 0.15,258.62 -0.23,387.93l-996.65 0 0 -388.13c73.78,-0.16 147.56,-0.12 221.34,-0.03 0.19,-221.33 0.05,-442.65 0.07,-663.98 -73.81,0 -147.6,0 -221.41,0l0 -387.86z"/>
   <path class="fil1" d="M556.83 135.26c259.39,0.34 518.79,0.02 778.18,0.17 35.82,-0.17 71.63,0.17 107.45,-0.16 0.61,3.72 0.45,7.48 0.44,11.23 -0.02,82.03 0.01,164.05 -0.03,246.07 -0.2,6.66 0.55,13.38 -0.42,19.99 -56.02,-0.25 -112.05,-0.03 -168.07,-0.1 -24.51,0.52 -46.85,19.68 -51.75,43.58 -1.74,7.22 -1.07,14.66 -1.16,21.99 0,218.55 0,437.1 -0.01,655.64 0.18,10.97 4.05,21.7 10.53,30.53 10.1,14.48 27.76,23.05 45.33,22.94 55.13,0.01 110.25,0 165.39,0 0.45,53.54 0.03,107.11 0.2,160.67 -0.19,38.71 0.23,77.44 -0.17,116.15 -87.01,0.53 -174.03,0.06 -261.05,0.23 -125.44,-0.01 -250.88,0 -376.33,0 -82.95,-0.14 -165.91,0.28 -248.85,-0.21 0.07,-92.28 0.07,-184.57 0,-276.84 54.57,0.01 109.15,-0.03 163.71,0.01 21.69,0.97 43.32,-11.68 52.52,-31.43 4.23,-8.69 5.66,-18.44 5.66,-28.01 -0.04,-219.01 0.01,-438.02 -0.03,-657.04 0.1,-12.28 -2.92,-24.75 -10.26,-34.74 -10.07,-14.51 -27.5,-23.83 -45.24,-23.5 -55.36,0.14 -110.73,-0.13 -166.09,0.1 -0.53,-64.02 -0.07,-128.08 -0.23,-192.12 0.22,-28.38 -0.39,-56.79 0.28,-85.15z"/>
  </g>
 </g>
</svg>
