<?xml version="1.0" encoding="UTF-8"?>
<!DOCTYPE svg PUBLIC "-//W3C//DTD SVG 1.1//EN" "http://www.w3.org/Graphics/SVG/1.1/DTD/svg11.dtd">
<!-- Creator: CorelDRAW -->
<svg xmlns="http://www.w3.org/2000/svg" xml:space="preserve" width="2000px" height="1600px" version="1.1" style="shape-rendering:geometricPrecision; text-rendering:geometricPrecision; image-rendering:optimizeQuality; fill-rule:evenodd; clip-rule:evenodd"
viewBox="0 0 2000 1600"
 xmlns:xlink="http://www.w3.org/1999/xlink">
 <defs>
  <style type="text/css">
   <![CDATA[
    .fil2 {fill:#97002D;fill-rule:nonzero}
    .fil1 {fill:#C4122F;fill-rule:nonzero}
    .fil0 {fill:#FFC424;fill-rule:nonzero}
    .fil3 {fill:#FFDE6C;fill-rule:nonzero}
   ]]>
  </style>
 </defs>
 <g id="Capa_x0020_1">
  <metadata id="CorelCorpID_0Corel-Layer"/>
  <g id="Iowa_x0020_State_x0020_Cyclones.cdr">
   <path class="fil0" d="M630.84 180.47l731.75 0c-15.81,99.59 -31.88,199.12 -47.82,298.67 -41.61,0 -83.2,0.02 -124.81,0 -0.05,27.34 0,54.68 -0.02,82.01 -15.23,-1.2 -30.46,-2.37 -45.73,-3.17 0.04,-41.35 0,-82.71 0.04,-124.07 43.9,-0.1 87.82,0.04 131.73,-0.07 11.11,-69.37 22.21,-138.74 33.41,-208.1l-1.47 0.09c-207.89,-0.16 -415.78,-0.14 -623.67,0 11.15,69.07 22.03,138.19 33.34,207.23l0.09 0.85c44.11,-0.05 88.24,-0.07 132.37,0 -0.1,41.43 -0.03,82.85 -0.05,124.28 -15.21,1.12 -30.44,2.13 -45.66,3.39 -0.14,-27.48 0,-54.94 -0.07,-82.42 -41.8,-0.02 -83.61,0 -125.41,-0.02 -16.07,-99.55 -31.83,-199.13 -48.02,-298.67zm-434.34 820.89c0.46,-0.4 1.36,-1.18 1.82,-1.57 -0.85,15.38 -1.72,30.77 -3.1,46.09 -4.78,7.59 -10.88,14.25 -16.3,21.41 -6.48,7.93 -12.18,16.52 -19.45,23.78 -0.18,-12.44 1.13,-24.82 1.38,-37.24 0.41,-4.24 -0.32,-9.18 2.88,-12.52 10.86,-13.38 22.52,-26.11 32.77,-39.95zm947.78 -5.77c15.24,0.9 30.45,2.04 45.66,3.23 0.04,40.54 -0.07,81.07 0.05,121.61 41.08,-0.03 82.16,-0.02 123.24,-0.02 16.1,99.7 31.84,199.44 48.05,299.12l-727.24 0 -0.77 -1.01c1.33,-12.7 4,-25.21 5.81,-37.85 13.91,-86.75 27.76,-173.52 41.73,-260.27 41.17,0 82.33,0.07 123.5,-0.04 -0.04,-40.35 -0.06,-80.72 0.02,-121.06 15.19,-1.26 30.42,-2.44 45.65,-3.31 -0.14,56.74 0.36,113.51 -0.23,170.24 -43.4,-0.25 -86.8,-0.05 -130.21,-0.11 -11,68.86 -22.31,137.67 -32.96,206.58l-0.36 1.58c207.22,-0.04 414.43,-0.02 621.64,0 -10.98,-68.95 -22.08,-137.86 -33.12,-206.79 -0.02,-0.35 -0.05,-1.06 -0.05,-1.42 -43.48,0.13 -86.95,-0.02 -130.42,0.07 -0.06,-56.86 -0.08,-113.7 0.01,-170.55zm456.95 -113.52c10.7,-8.06 21.76,-15.64 32.71,-23.38 9.57,2.39 19.07,5.14 28.53,8.02 -10.07,8.75 -21.87,15.16 -32.52,23.17 -9.61,-2.47 -19.19,-5.03 -28.72,-7.81zm-456.98 -169.58c15.23,0.83 30.46,1.98 45.69,3.19 0,26.84 0,53.68 0,80.52 -13.77,-1.1 -27.55,-2.11 -41.33,-2.98 -1.98,-7.07 -4.57,-14.15 -4.42,-21.59 0.08,-19.72 0.02,-39.42 0.06,-59.14zm-339.94 3.67c15.37,-1.05 30.73,-3.05 46.15,-2.88 -0.92,23.38 -0.5,46.83 -0.19,70.23 0.07,8.16 -2.63,15.98 -4.58,23.8 -6.86,26.77 -13.58,53.58 -20.42,80.35 -7.01,0.46 -14,1.01 -21,1.6 0.06,-57.7 -0.03,-115.41 0.04,-173.1zm861.5 -11.68c58.66,17.2 116.59,36.94 173.73,58.69 3.64,1.88 7.14,-0.91 10.37,-2.4 8.91,-5.06 18.55,-8.84 26.96,-14.79l0.87 -0.57c-0.51,35.97 -3.66,71.93 -4.97,107.92 -22.92,-9.36 -46.21,-17.72 -69.25,-26.72 11.86,-7.35 23.84,-14.54 35.81,-21.73 1.4,-13.08 2.07,-26.23 2.59,-39.37 -12.39,5.24 -24,12.09 -36.18,17.79 -34.06,-12.63 -68.54,-24.15 -103.19,-35.06 -0.09,32.89 -0.02,65.78 -0.03,98.68 0.6,10.63 -1.25,21.55 0.88,31.99 10.23,4.01 20.97,6.56 31.32,10.26 9.01,2.69 17.69,6.56 26.91,8.66 12.26,-4.95 22.7,-13.72 34.7,-19.4 -4.93,19.77 -10.13,39.48 -15.07,59.27 -26.08,-9.21 -52.31,-18 -78.73,-26.18 0,33.23 -0.1,66.47 0.06,99.71 -0.45,2.11 0.62,5.27 -2.03,6.21 -10.47,5.29 -21.62,9.12 -32.07,14.43 7.79,4.14 16.52,5.79 24.83,8.61 49.86,15.87 99.73,31.9 148.51,50.91 -0.23,-14.84 -1.78,-29.63 -2.2,-44.45 10.74,-6.8 21.69,-13.24 32.68,-19.61l0.48 -0.29c1.4,37.12 3.71,74.2 5.07,111.32 -91.77,-36.6 -185.68,-67.99 -281.29,-92.96 -5.25,-1.35 -10.5,-2.68 -15.65,-4.33 9.3,-6.43 18.71,-12.7 28.03,-19.11 3.1,-1.91 6.49,-4.7 10.4,-3.26 15.59,3.74 30.89,8.61 46.22,13.28 0.34,-109.16 -0.14,-218.33 0.24,-327.5zm-31.64 -9.07c9.5,2.54 18.96,5.2 28.33,8.13 -10.42,8.5 -21.9,15.62 -33.07,23.13 -9.26,-2.74 -18.65,-5.02 -27.9,-7.78 10.7,-8.07 21.64,-15.85 32.64,-23.48zm-1267.15 -2.81c11.23,-12.62 21.69,-25.97 33.58,-38 -1.04,36.33 -3.6,72.67 -5.3,109.01 -2.17,1.83 -5.29,1.94 -7.89,2.86 -20.53,5.16 -40.67,11.84 -61.2,16.93 10.19,-15.09 23.5,-27.81 34.08,-42.58 2.41,-14.12 2.63,-28.64 3.11,-42.96 -12.64,13.05 -23.35,27.83 -35.88,40.97 -36.41,11.22 -72.8,22.65 -108.67,35.5 -15.31,5.72 -25.94,21.75 -25.64,38.02 0.09,15.36 -0.28,30.73 0.2,46.09 -0.02,5.59 2.96,10.44 6.37,14.64 -8.54,10.69 -17.73,20.84 -25.81,31.88 12.05,5.31 25.81,4.05 38.04,0.04 36.44,-11.98 73.14,-23.31 110.13,-33.46 12.29,-3.55 25.94,-3.59 37.21,3.05 9.51,-9.89 18.57,-20.2 27.87,-30.3 14.84,9.69 23.45,27.09 23.79,44.61 0.23,26.01 -0.02,52.01 0.1,78 1.9,43.93 -31.26,85.28 -73.12,96.6 -68.66,20.12 -136.4,43.41 -202.91,69.77 -4.05,1.33 -7.94,4.24 -12.39,3.58l0.97 -1.08c9.34,-9.6 16.72,-20.82 25.19,-31.15 3.89,-4.53 6.78,-10.12 11.68,-13.64 50.03,-18.96 100.65,-36.46 151.85,-52.06 31.45,-9.82 58.56,-38.26 60.85,-72 0.34,-19.56 0.09,-39.14 0.12,-58.71 0.22,-12.17 -4.93,-24.09 -13.95,-32.27 -9.37,10.3 -18.67,20.68 -27.57,31.39 -5.34,-4.09 -12.26,-6.22 -18.88,-4.16 -38.12,10.56 -75.89,22.44 -113.38,35.06 -17.29,7.08 -37.81,10.63 -55.09,1.58 9.32,-11.7 19.12,-23.04 27.91,-35.11 -2.84,-4.6 -7.77,-7.74 -9.92,-12.87 -5.61,-12.02 -4.05,-25.71 -4.35,-38.57 0.48,-18.27 -1.81,-37.12 3.97,-54.79 8.03,-25.81 28.69,-47.43 54.36,-56.11 44.86,-15.78 90.14,-30.41 135.9,-43.33 5.05,-1.63 11.03,-2.11 14.67,-6.43zm135.55 -31.15c47.98,-10.42 96.32,-19.47 144.92,-26.52 -10.81,13.03 -22.33,25.51 -33.92,37.85 -24.57,3.95 -49.03,8.5 -73.41,13.4 0.91,13.74 1.5,27.49 2.29,41.25 1.21,3.43 -2.98,3.13 -4.97,3.8 -22.42,4.3 -44.69,9.37 -66.97,14.31l0.67 -0.91c9.94,-13.03 19.64,-26.25 29.54,-39.3 1.58,-2.31 3.59,-4.69 3.39,-7.65 -0.21,-12.09 -1.75,-24.12 -1.54,-36.23zm840.53 -27.98c49.9,7.25 99.57,16.17 148.83,26.9 12.27,-7.74 24.46,-15.62 36.37,-23.93l0.78 -0.55c-1.51,36.1 -4.01,72.18 -5.52,108.3 -23.86,-5.31 -47.78,-10.23 -71.68,-15.32 11.4,-9.05 23.42,-17.29 34.97,-26.15 3.09,-1.91 2.4,-5.98 2.93,-9.07 0.57,-10.88 1.4,-21.73 1.94,-32.59 -12.73,7.53 -24.68,16.31 -37.26,24.07 -24.59,-4.88 -49.26,-9.23 -73.97,-13.44 -0.34,87.75 -0.15,175.51 -0.09,263.26 -8.88,9.55 -19.09,17.73 -28.07,27.16 10.97,2.02 21.96,4.12 33.05,5.3 12.22,-7.22 22.23,-17.75 33.88,-25.91 3.76,22.11 7.04,44.31 10.49,66.48 -43.32,-7.96 -86.81,-14.91 -130.5,-20.45 -12.6,-1.87 -25.33,-2.65 -37.86,-4.94 11.93,-8.95 22.76,-19.52 35.34,-27.48 15.5,0.7 30.75,4.3 46.23,5.65 0.23,-109.1 -0.09,-218.2 0.14,-327.29zm-149.79 -17.3c48.84,4.29 97.65,9.3 146.08,16.93 -10.69,9.82 -22.38,18.45 -33.55,27.68 -24.71,-3.32 -49.47,-6.09 -74.25,-8.58 0.85,14.88 1.59,29.75 2.43,44.63 -24.25,-2.33 -48.53,-4.31 -72.82,-6.16l0.43 -0.45c11.22,-11.39 22.22,-23 33.57,-34.29 -0.48,-13.26 -1.69,-26.49 -1.89,-39.76zm-356.82 -33.91c0.46,-0.32 1.37,-0.94 1.83,-1.26 -1.62,36.73 -4.01,73.42 -5.68,110.15 -24.46,1.76 -48.87,3.97 -73.28,6.35l0.94 -0.95c10.58,-10.55 20.74,-21.52 31.44,-31.92 2.71,-2.93 6.25,-5.86 6.23,-10.23 0.89,-12.05 1.85,-24.12 2.06,-36.21 -13.08,10.83 -24.69,23.31 -37.39,34.58 -24.79,2.56 -49.61,5.16 -74.27,8.91 0.25,87.66 -0.05,175.3 0.16,262.95 -8.94,12.16 -19.1,23.36 -28.03,35.54 8.24,-0.94 16.51,-1.7 24.68,-3.18 3.55,-0.37 5.96,-3.14 8.25,-5.57 9.29,-10.37 18.57,-20.73 28.16,-30.82l0.44 -0.48c3.67,21.09 6.9,42.27 10.58,63.38 -56.13,6.73 -112.1,14.89 -167.63,25.49 8.4,-10.9 18.21,-20.59 27.16,-31.03 3.16,-3.25 6,-7.62 10.81,-8.38 15.8,-2.89 31.72,-5.01 47.54,-7.76 0.71,-109.19 -0.27,-218.39 0.48,-327.58 44.25,-6.64 88.72,-11.99 133.28,-16.1 5.45,-0.57 11.02,-0.47 16.35,-1.87 3.21,-1.93 5.73,-4.77 8.47,-7.31 9.05,-9 18.99,-17.08 27.42,-26.7zm203.06 23.04c9.11,-9.32 17.73,-19.12 27.39,-27.87 21.53,79.3 42.84,158.68 63.76,238.14 -11.09,9.58 -22.79,18.6 -32.84,29.34 15.09,1.12 30.27,2.47 45.38,2.22 12.07,-8.64 21.94,-20.11 34.03,-28.83 -2.79,21.18 -6.16,42.29 -9.22,63.43 -6.88,-0.37 -13.77,-0.87 -20.64,-1.32 2.15,9.54 3.66,19.19 6.03,28.66 -10.74,9.95 -22.04,19.29 -32.48,29.59 11.73,1.31 23.54,1.43 35.29,2.52 4.31,0.26 9.32,1.19 12.62,-2.4 9.96,-8.84 20.41,-17.11 30,-26.36l1.08 -1.03c-2.59,21.66 -6.28,43.17 -9.35,64.78 -35.1,-3.04 -70.28,-4.85 -105.46,-6.32l0.6 -0.52c11.96,-10.58 23.63,-21.5 35.5,-32.18 -5.41,-19.51 -9.62,-39.32 -14.87,-58.87 -14.35,-0.92 -28.71,-1.15 -43.07,-1.68 -35.63,-0.85 -71.32,-1.17 -106.95,-0.25l0.44 -0.71c6.85,-10.56 13.09,-21.52 20.01,-32.06 40.17,-0.44 80.34,0.04 120.48,1.69 -19.71,-78.61 -40.64,-156.91 -60.85,-235.39 -10.94,9.68 -20.15,21.11 -30.98,30.91 -4.85,-0.11 -9.67,-0.15 -14.5,-0.16 -14.1,57.12 -28.02,114.28 -41.97,171.42 -2.57,10.51 -5.15,21 -7.7,31.51 -10.24,42.11 -20.65,84.2 -30.73,126.34 -35.01,1.62 -70.01,3.67 -104.95,6.37 11.08,-11.84 22.21,-23.78 34.35,-34.49 13.37,-2.38 27.16,-1.24 40.62,-3.34 27.37,-109.97 55.01,-219.88 82.84,-329.75 23.47,-0.96 46.99,-0.14 70.48,-0.37 2.36,0.23 4.08,-1.53 5.66,-3.02z"/>
   <path class="fil1" d="M684.25 225.83c207.89,-0.14 415.78,-0.16 623.67,0 -10.97,12.64 -23.93,23.29 -35.74,35.11 -22.36,22.01 -45.16,43.56 -67.68,65.42 -4.65,5.09 -12.13,2.85 -18.18,3.3 -63.16,0 -126.32,-0.34 -189.46,0.17 -0.18,74.54 0.39,149.1 -0.25,223.64 -28.88,0.37 -57.8,0.12 -86.66,1.86 -17.31,67.44 -34.51,134.89 -51.66,202.37 -2.43,8.68 -3.55,17.84 -8.02,25.81 -0.31,-23.4 -0.73,-46.85 0.19,-70.23 2.11,-2.61 3.41,-5.73 3.3,-9.12 2.12,-48.92 5.67,-97.81 7.4,-146.75 -3.72,0.25 -7.45,0.5 -11.16,0.78 0.02,-41.43 -0.05,-82.85 0.05,-124.28 36.64,-34.45 72.85,-69.37 109.26,-104.08 -54.94,-0.51 -109.91,-0.32 -164.86,-0.05 -25.81,34.28 -50.91,69.11 -76.86,103.28 -11.31,-69.04 -22.19,-138.16 -33.34,-207.23zm460.02 940.31c43.47,-0.09 86.94,0.06 130.42,-0.07 0,0.36 0.03,1.07 0.05,1.42 -2.89,2.91 -5.93,5.74 -8.27,9.13 -20.45,29.14 -41.51,57.87 -62.08,86.92 -1.92,3.22 -5.13,5.28 -8.98,4.71 -50.97,-0.18 -101.95,0.12 -152.91,-0.14 33.87,-34.03 68,-67.83 101.77,-101.97zm-194.26 -266.89c15.5,-0.37 31.05,-1.19 46.56,-0.2 0.71,92.4 0.06,184.83 0.31,277.23 -0.27,30.64 0.47,61.29 -0.38,91.92 -65.75,0.03 -131.5,0.01 -197.23,-0.02 -2.99,-0.09 -5.97,0.58 -7.99,2.91 -21.64,21 -43.03,42.28 -64.56,63.41 -13.8,12.28 -26.03,26.23 -40.14,38.2 10.65,-68.91 21.96,-137.72 32.96,-206.58 43.41,0.06 86.81,-0.14 130.21,0.11 0.59,-56.73 0.09,-113.5 0.23,-170.24 26.2,-2.14 52.55,-2.14 78.73,-4.24 7.42,-30.76 13.33,-61.88 21.3,-92.5zm27.27 -110.66c5.66,-23.06 11.96,-46 18.76,-68.75 1.67,10.7 0.53,21.54 0.84,32.32 -0.25,12.14 0.62,24.34 -0.61,36.44 -6.34,0 -12.66,0.02 -18.99,-0.01z"/>
   <path class="fil2" d="M990.95 640.63c4.83,0.01 9.65,0.05 14.5,0.16 14.01,57.02 28.1,114 42.18,171 -32.9,-0.45 -65.79,-0.86 -98.65,0.26 13.95,-57.14 27.87,-114.3 41.97,-171.42zm-196.5 -310.85c54.95,-0.27 109.92,-0.46 164.86,0.05 -36.41,34.71 -72.62,69.63 -109.26,104.08 -44.13,-0.07 -88.26,-0.05 -132.37,0l-0.09 -0.85c25.95,-34.17 51.05,-69 76.86,-103.28zm513.47 -103.95l1.47 -0.09c-11.2,69.36 -22.3,138.73 -33.41,208.1 -43.91,0.11 -87.83,-0.03 -131.73,0.07 -0.04,41.36 0,82.72 -0.04,124.07 15.27,0.8 30.5,1.97 45.73,3.17 121.85,9.84 242.91,29.29 361.78,57.91 -2.52,50.87 -5.4,101.73 -8.08,152.61 -38.01,-8.89 -76.19,-16.99 -114.55,-24.21 0.82,-14.7 1.93,-29.4 2.22,-44.13 -9.32,-1.55 -18.59,-3.32 -27.89,-4.9 -0.02,72.51 -0.02,145.03 -0.02,217.52 11.84,2.01 23.65,4.25 35.45,6.43 6.07,37.83 11.91,75.67 17.81,113.54 -73.51,-14.42 -147.66,-25.63 -222.22,-32.98 5.76,-36.13 11.92,-72.2 17.83,-108.29 10.11,1.17 20.27,2.22 30.4,3.5 0.04,-72.5 0,-145 0.02,-217.49 -9.34,-1.23 -18.69,-2.29 -28.03,-3.3 0.66,14.91 1.49,29.8 2.33,44.69 -22.33,-2.36 -44.66,-4.58 -67.05,-6.37 -15.23,-1.21 -30.46,-2.36 -45.69,-3.19 -0.04,19.72 0.02,39.42 -0.06,59.14 -0.15,7.44 2.44,14.52 4.42,21.59 13.78,0.87 27.56,1.88 41.33,2.98 4.76,0.37 9.52,0.8 14.27,1.24 -4.1,30.52 -8.27,61.03 -12.42,91.55 11.71,0.83 23.39,2.02 35.11,3.05 -5.49,36.16 -10.7,72.36 -16.12,108.53 -6.96,-0.55 -13.9,-1.19 -20.84,-1.75 -15.21,-1.19 -30.42,-2.33 -45.66,-3.23 -0.09,56.85 -0.07,113.69 -0.01,170.55 -33.77,34.14 -67.9,67.94 -101.77,101.97 50.96,0.26 101.94,-0.04 152.91,0.14 3.85,0.57 7.06,-1.49 8.98,-4.71 20.57,-29.05 41.63,-57.78 62.08,-86.92 2.34,-3.39 5.38,-6.22 8.27,-9.13 11.04,68.93 22.14,137.84 33.12,206.79 -207.21,-0.02 -414.42,-0.04 -621.64,0l0.36 -1.58c14.11,-11.97 26.34,-25.92 40.14,-38.2 21.53,-21.13 42.92,-42.41 64.56,-63.41 2.02,-2.33 5,-3 7.99,-2.91 65.73,0.03 131.48,0.05 197.23,0.02 0.85,-30.63 0.11,-61.28 0.38,-91.92 -0.25,-92.4 0.4,-184.83 -0.31,-277.23 -15.51,-0.99 -31.06,-0.17 -46.56,0.2 -7.97,30.62 -13.88,61.74 -21.3,92.5 -26.18,2.1 -52.53,2.1 -78.73,4.24 -15.23,0.87 -30.46,2.05 -45.65,3.31 -6.32,0.51 -12.64,1.06 -18.95,1.7 -5.3,-36.18 -10.61,-72.36 -16.11,-108.51 11.64,-1.26 23.32,-2.26 35,-3.23 7,-0.59 13.99,-1.14 21,-1.6 6.84,-26.77 13.56,-53.58 20.42,-80.35 1.95,-7.82 4.65,-15.64 4.58,-23.8 4.47,-7.97 5.59,-17.13 8.02,-25.81 17.15,-67.48 34.35,-134.93 51.66,-202.37 28.86,-1.74 57.78,-1.49 86.66,-1.86 0.64,-74.54 0.07,-149.1 0.25,-223.64 63.14,-0.51 126.3,-0.17 189.46,-0.17 6.05,-0.45 13.53,1.79 18.18,-3.3 22.52,-21.86 45.32,-43.41 67.68,-65.42 11.81,-11.82 24.77,-22.47 35.74,-35.11zm-379.6 351.41l0 0c-28.54,110.57 -56.95,221.18 -85.15,331.84 -15.66,1.12 -31.32,2.22 -46.96,3.64 2.98,21.21 6.18,42.39 9.39,63.55 34.94,-2.7 69.94,-4.75 104.95,-6.37 10.08,-42.14 20.49,-84.23 30.73,-126.34 5.09,10.74 10.24,21.45 15.51,32.08l-0.44 0.71c35.63,-0.92 71.32,-0.6 106.95,0.25 7.56,30.89 14.82,61.84 22.44,92.73l-0.6 0.52c35.18,1.47 70.36,3.28 105.46,6.32 3.07,-21.61 6.76,-43.12 9.35,-64.78l-1.08 1.03c-15.11,-1.42 -30.27,-2.72 -45.43,-3.35 -2.37,-9.47 -3.88,-19.12 -6.03,-28.66 6.87,0.45 13.76,0.95 20.64,1.32 3.06,-21.14 6.43,-42.25 9.22,-63.43l0.57 -0.44c-15.7,-0.39 -31.64,-3.02 -47.14,-2.29 -20.92,-79.46 -42.23,-158.84 -63.76,-238.14l0.2 -0.18c-46.26,-1.49 -92.56,-1.11 -138.82,-0.01zm227.4 4.31l0 0c1.95,36.23 3.65,72.46 5.91,108.67l-0.43 0.45c24.29,1.85 48.57,3.83 72.82,6.16 -0.84,-14.88 -1.58,-29.75 -2.43,-44.63 24.78,2.49 49.54,5.26 74.25,8.58 -0.21,87.69 0.11,175.4 -0.18,263.09 -11.25,-1.46 -22.47,-3.11 -33.78,-4.05 -3.33,20.95 -6.81,41.88 -10.49,62.77 12.53,2.29 25.26,3.07 37.86,4.94 43.69,5.54 87.18,12.49 130.5,20.45 -3.45,-22.17 -6.73,-44.37 -10.49,-66.48 -12.96,-2.26 -25.89,-4.64 -38.86,-6.55 -0.06,-87.75 -0.25,-175.51 0.09,-263.26 24.71,4.21 49.38,8.56 73.97,13.44 -1.17,14.56 -1.53,29.17 -2.58,43.74 23.9,5.09 47.82,10.01 71.68,15.32 1.51,-36.12 4.01,-72.2 5.52,-108.3l-0.78 0.55c-122.43,-28.35 -247.19,-46.81 -372.58,-54.89zm-305.72 -23.36c3.71,-0.28 7.44,-0.53 11.16,-0.78 -1.73,48.94 -5.28,97.83 -7.4,146.75 0.11,3.39 -1.19,6.51 -3.3,9.12 -15.42,-0.17 -30.78,1.83 -46.15,2.88 -22.41,1.88 -44.79,4.01 -67.14,6.57 0.64,-14.93 1.49,-29.84 2.38,-44.77 -9.36,1.06 -18.69,2.16 -28.03,3.3 0.04,72.52 0.07,145.03 -0.02,217.56 10.12,-1.22 20.24,-2.39 30.38,-3.49 5.85,36.03 11.87,72.07 17.87,108.08 -74.43,7.69 -148.49,18.96 -221.88,33.52 5.9,-37.83 11.81,-75.66 17.7,-113.49 11.76,-2.29 23.51,-4.47 35.29,-6.53 -0.1,-72.5 0,-144.99 -0.05,-217.49 -9.27,1.58 -18.53,3.3 -27.78,5.04 0.71,14.68 1.63,29.35 2.27,44.04 -38.31,7.21 -76.44,15.41 -114.35,24.48 -2.68,-50.89 -5.58,-101.78 -8.06,-152.7 118.74,-28.82 239.68,-48.55 361.45,-58.7 15.22,-1.26 30.45,-2.27 45.66,-3.39zm-13.51 24.07l0 0c-42.71,2.22 -85.28,6.99 -127.74,12.05 -81.78,10.23 -163.05,24.7 -243.3,43.46 1.83,35.63 3.71,71.25 5.73,106.86l-0.67 0.91c22.28,-4.94 44.55,-10.01 66.97,-14.31 1.99,-0.67 6.18,-0.37 4.97,-3.8 -0.79,-13.76 -1.38,-27.51 -2.29,-41.25 24.38,-4.9 48.84,-9.45 73.41,-13.4 -0.18,87.6 -0.14,175.22 -0.02,262.82 -12.76,2.52 -25.6,4.53 -38.4,6.87 -3.35,22.17 -7.22,44.29 -10.17,66.52 55.53,-10.6 111.5,-18.76 167.63,-25.49 -3.68,-21.11 -6.91,-42.29 -10.58,-63.38l-0.44 0.48c-11.08,0.86 -22.07,2.54 -33.06,4.03 -0.21,-87.65 0.09,-175.29 -0.16,-262.95 24.66,-3.75 49.48,-6.35 74.27,-8.91 -1.11,14.57 -1.86,29.17 -2.34,43.78l-0.94 0.95c24.41,-2.38 48.82,-4.59 73.28,-6.35 1.67,-36.73 4.06,-73.42 5.68,-110.15 -0.46,0.32 -1.37,0.94 -1.83,1.26zm728.29 39.99c114.27,28.34 226.46,65.15 335.22,110.22l0 2.99c-2.86,49.4 -5.2,98.84 -7.81,148.26 -36.67,-14.52 -73.42,-28.92 -110.64,-41.99 0.9,-14.55 1.29,-29.13 2.18,-43.68 -19.42,-6.91 -39,-13.37 -58.56,-19.87 -0.02,17.72 -0.04,35.44 0,53.15 33.35,10.85 66.46,22.37 99.32,34.63 -8.61,33.56 -17.19,67.11 -25.76,100.67 -24.44,-8.61 -48.85,-17.34 -73.56,-25.11 -0.02,18.03 -0.02,36.07 -0.02,54.1 19.56,6.5 39.11,13.05 58.56,19.83 -0.85,-15.07 -1.33,-30.12 -2.11,-45.18 37.21,13.12 74.11,27.16 110.63,42.14 2.37,52.58 5.23,105.13 7.4,157.73 -111.98,-46.25 -227.43,-84.13 -345.2,-112.58 5.81,-35.28 11.77,-70.49 17.59,-105.75 11.58,2.75 23.1,5.8 34.6,8.86 0.07,-18.09 0.02,-36.16 0.02,-54.25 -7.7,-2.02 -15.41,-3.98 -23.06,-6.18 -7.03,-38.52 -14.56,-76.95 -21.69,-115.45 14.94,3.73 29.86,7.58 44.75,11.54 0.02,-17.7 0,-35.4 0.02,-53.08 -8.04,-2.26 -16.12,-4.33 -24.22,-6.34 -6.03,-38.2 -11.75,-76.44 -17.66,-114.66zm26.59 29.68l0 0c3.39,22.32 6.98,44.62 10.16,66.96 9.25,2.76 18.64,5.04 27.9,7.78 -0.3,32.77 -0.1,65.56 -0.1,98.34 -12.84,-3.02 -25.48,-6.85 -38.29,-10.01 3.39,22.35 6.9,44.7 10.19,67.07 9.53,2.78 19.11,5.34 28.72,7.81l-0.66 0.48c0,33.08 0.02,66.17 -0.02,99.28 -12.6,-3.52 -25.22,-6.94 -37.9,-10.17 -3.6,20.5 -6.71,41.11 -10.45,61.6 5.15,1.65 10.4,2.98 15.65,4.33 95.61,24.97 189.52,56.36 281.29,92.96 -1.36,-37.12 -3.67,-74.2 -5.07,-111.32l-0.48 0.29c-22.65,-9.38 -45.64,-17.95 -68.68,-26.31 0.65,15.05 1.56,30.09 1.95,45.16 -34.05,-12.5 -68.43,-24 -102.99,-34.95 -0.16,-33.24 -0.06,-66.48 -0.06,-99.71 26.42,8.18 52.65,16.97 78.73,26.18 4.94,-19.79 10.14,-39.5 15.07,-59.27 -31.06,-11.12 -62.31,-21.7 -93.81,-31.51 0.01,-32.9 -0.06,-65.79 0.03,-98.68 34.65,10.91 69.13,22.43 103.19,35.06 -0.85,14.43 -1.17,28.9 -2.22,43.31 23.04,9 46.33,17.36 69.25,26.72 1.31,-35.99 4.46,-71.95 4.97,-107.92l-0.87 0.57c-92.95,-37.6 -188.41,-69.03 -285.5,-94.05zm-1379.78 37.69c69.58,-24.78 140.36,-46.22 211.97,-64.33 -2.74,52.17 -5.44,104.34 -8.14,156.53 -37.8,9.68 -75.33,20.38 -112.63,31.88 0.92,-15.01 1.69,-30.05 2.34,-45.1 -27.92,8.47 -55.59,17.77 -83.16,27.32 -3.43,0.94 -7.03,3.35 -6.52,7.42 -0.07,15.48 -0.28,30.97 0.13,46.44 -0.41,4.1 4.4,2.07 6.5,1.49 37.95,-12.48 76.26,-23.83 114.8,-34.3 24.3,-7.76 53.34,-5.08 72.81,12.55 15.89,13.74 23.98,34.94 24.04,55.71 0.01,27.78 0,55.56 0,83.36 -0.18,23.93 -7.33,47.94 -21.31,67.47 -16.52,23.52 -41.71,40.19 -69.03,48.57 -82.01,23.94 -162.73,52.24 -241.69,84.85 2.47,-52.54 5.44,-105.09 7.67,-157.63 36.36,-14.95 73.14,-28.85 110.2,-41.93 -0.58,15.09 -1.58,30.17 -2.16,45.26 30.94,-11.06 62.23,-21.12 93.58,-30.92 4.89,-0.91 4.17,-6.57 4.3,-10.28 -0.29,-16.04 0.37,-32.11 -0.41,-48.16 -33.76,8.35 -66.8,19.51 -99.96,30.04 -16.22,4.9 -31.97,12.81 -49.26,12.85 -16.51,0.69 -33.44,-5.17 -45.16,-16.99 -12.57,-11.93 -18.83,-29.06 -20.5,-46.03l0 -89.06c2.95,-43.2 27.92,-83.84 64.58,-106.7 14.39,-9.43 30.94,-14.52 47.01,-20.31zm-21.08 30.37l0 0c-15.4,5.63 -28.84,15.7 -39.74,27.82 -17.45,19.62 -29.66,45.21 -29.04,71.88 0.07,25.98 -0.02,51.95 0.03,77.94 -0.02,16.64 7.94,33.75 22.72,42.18 17.28,9.05 37.8,5.5 55.09,-1.58 37.49,-12.62 75.26,-24.5 113.38,-35.06 6.62,-2.06 13.54,0.07 18.88,4.16 2.97,3.81 5.65,8.21 5.56,13.24 0.05,18.37 0.12,36.78 -0.04,55.15 -1.63,14.97 -13.49,28.21 -28.02,31.94 -38.37,11.71 -76.41,24.53 -114.11,38.22 1.38,-15.32 2.25,-30.71 3.1,-46.09 -0.46,0.39 -1.36,1.17 -1.82,1.57 -22.87,7.31 -44.99,16.73 -67.44,25.18 -1.81,36.41 -3.77,72.82 -5.4,109.23l-0.97 1.08c4.45,0.66 8.34,-2.25 12.39,-3.58 66.51,-26.36 134.25,-49.65 202.91,-69.77 41.86,-11.32 75.02,-52.67 73.12,-96.6 -0.12,-25.99 0.13,-51.99 -0.1,-78 -0.34,-17.52 -8.95,-34.92 -23.79,-44.61 -13.39,-8.17 -29.98,-9.87 -45.04,-5.95 -41.7,11.13 -83.07,23.52 -124.08,36.98 -6.14,2.17 -12.8,0.96 -18.32,-2.24 -3.41,-4.2 -6.39,-9.05 -6.37,-14.64 -0.48,-15.36 -0.11,-30.73 -0.2,-46.09 -0.3,-16.27 10.33,-32.3 25.64,-38.02 35.87,-12.85 72.26,-24.28 108.67,-35.5 -0.6,15.19 -1.83,30.35 -2.02,45.57 0.17,-0.25 0.53,-0.75 0.71,-1 20.53,-5.09 40.67,-11.77 61.2,-16.93 2.6,-0.92 5.72,-1.03 7.89,-2.86 1.7,-36.34 4.26,-72.68 5.3,-109.01l0.59 -0.61c-71.29,18.39 -141.53,40.78 -210.68,66zm786.77 68.6l0 0c6.33,0.03 12.65,0.01 18.99,0.01 1.23,-12.1 0.36,-24.3 0.61,-36.44 -0.31,-10.78 0.83,-21.62 -0.84,-32.32 -6.8,22.75 -13.1,45.69 -18.76,68.75z"/>
   <path class="fil3" d="M928.32 577.24c46.26,-1.1 92.56,-1.48 138.82,0.01l-0.2 0.18c-9.66,8.75 -18.28,18.55 -27.39,27.87 -1.58,1.49 -3.3,3.25 -5.66,3.02 -23.49,0.23 -47.01,-0.59 -70.48,0.37 -27.83,109.87 -55.47,219.78 -82.84,329.75 -13.46,2.1 -27.25,0.96 -40.62,3.34 -12.14,10.71 -23.27,22.65 -34.35,34.49 -3.21,-21.16 -6.41,-42.34 -9.39,-63.55 15.64,-1.42 31.3,-2.52 46.96,-3.64 28.2,-110.66 56.61,-221.27 85.15,-331.84zm875.31 423.78c23.04,8.36 46.03,16.93 68.68,26.31 -10.99,6.37 -21.94,12.81 -32.68,19.61 0.42,14.82 1.97,29.61 2.2,44.45 -48.78,-19.01 -98.65,-35.04 -148.51,-50.91 -8.31,-2.82 -17.04,-4.47 -24.83,-8.61 10.45,-5.31 21.6,-9.14 32.07,-14.43 2.65,-0.94 1.58,-4.1 2.03,-6.21 34.56,10.95 68.94,22.45 102.99,34.95 -0.39,-15.07 -1.3,-30.11 -1.95,-45.16zm-423.23 -66.07c12.97,1.91 25.9,4.29 38.86,6.55 -11.65,8.16 -21.66,18.69 -33.88,25.91 -11.09,-1.18 -22.08,-3.28 -33.05,-5.3 8.98,-9.43 19.19,-17.61 28.07,-27.16zm-691.87 -10.32c10.99,-1.49 21.98,-3.17 33.06,-4.03 -9.59,10.09 -18.87,20.45 -28.16,30.82 -2.29,2.43 -4.7,5.2 -8.25,5.57 -8.17,1.48 -16.44,2.24 -24.68,3.18 8.93,-12.18 19.09,-23.38 28.03,-35.54zm432.43 14.03c10.44,-10.3 21.74,-19.64 32.48,-29.59 15.16,0.63 30.32,1.93 45.43,3.35 -9.59,9.25 -20.04,17.52 -30,26.36 -3.3,3.59 -8.31,2.66 -12.62,2.4 -11.75,-1.09 -23.56,-1.21 -35.29,-2.52zm-57.66 -62.06c14.36,0.53 28.72,0.76 43.07,1.68 5.25,19.55 9.46,39.36 14.87,58.87 -11.87,10.68 -23.54,21.6 -35.5,32.18 -7.62,-30.89 -14.88,-61.84 -22.44,-92.73zm-731.47 30.73c8.9,-10.71 18.2,-21.09 27.57,-31.39 9.02,8.18 14.17,20.1 13.95,32.27 -0.03,19.57 0.22,39.15 -0.12,58.71 -2.29,33.74 -29.4,62.18 -60.85,72 -51.2,15.6 -101.82,33.1 -151.85,52.06 -4.9,3.52 -7.79,9.11 -11.68,13.64 -8.47,10.33 -15.85,21.55 -25.19,31.15 1.63,-36.41 3.59,-72.82 5.4,-109.23 22.45,-8.45 44.57,-17.87 67.44,-25.18 -10.25,13.84 -21.91,26.57 -32.77,39.95 -3.2,3.34 -2.47,8.28 -2.88,12.52 -0.25,12.42 -1.56,24.8 -1.38,37.24 7.27,-7.26 12.97,-15.85 19.45,-23.78 5.42,-7.16 11.52,-13.82 16.3,-21.41 37.7,-13.69 75.74,-26.51 114.11,-38.22 14.53,-3.73 26.39,-16.97 28.02,-31.94 0.16,-18.37 0.09,-36.78 0.04,-55.15 0.09,-5.03 -2.59,-9.43 -5.56,-13.24zm1370.69 -60.41c31.5,9.81 62.75,20.39 93.81,31.51 -12,5.68 -22.44,14.45 -34.7,19.4 -9.22,-2.1 -17.9,-5.97 -26.91,-8.66 -10.35,-3.7 -21.09,-6.25 -31.32,-10.26 -2.13,-10.44 -0.28,-21.36 -0.88,-31.99zm-1360.34 -8.58c15.06,-3.92 31.65,-2.22 45.04,5.95 -9.3,10.1 -18.36,20.41 -27.87,30.3 -11.27,-6.64 -24.92,-6.6 -37.21,-3.05 -36.99,10.15 -73.69,21.48 -110.13,33.46 -12.23,4.01 -25.99,5.27 -38.04,-0.04 8.08,-11.04 17.27,-21.19 25.81,-31.88 5.52,3.2 12.18,4.41 18.32,2.24 41.01,-13.46 82.38,-25.85 124.08,-36.98zm788.52 -22.77c15.5,-0.73 31.44,1.9 47.14,2.29l-0.57 0.44c-12.09,8.72 -21.96,20.19 -34.03,28.83 -15.11,0.25 -30.29,-1.1 -45.38,-2.22 10.05,-10.74 21.75,-19.76 32.84,-29.34zm675.04 -32.27c12.18,-5.7 23.79,-12.55 36.18,-17.79 -0.52,13.14 -1.19,26.29 -2.59,39.37 -11.97,7.19 -23.95,14.38 -35.81,21.73 1.05,-14.41 1.37,-28.88 2.22,-43.31zm-1478.22 -44.47c12.53,-13.14 23.24,-27.92 35.88,-40.97 -0.48,14.32 -0.7,28.84 -3.11,42.96 -10.58,14.77 -23.89,27.49 -34.08,42.58 -0.18,0.25 -0.54,0.75 -0.71,1 0.19,-15.22 1.42,-30.38 2.02,-45.57zm1126.94 -53.7c12.58,-7.76 24.53,-16.54 37.26,-24.07 -0.54,10.86 -1.37,21.71 -1.94,32.59 -0.53,3.09 0.16,7.16 -2.93,9.07 -11.55,8.86 -23.57,17.1 -34.97,26.15 1.05,-14.57 1.41,-29.18 2.58,-43.74zm-1263.95 34.86c69.15,-25.22 139.39,-47.61 210.68,-66l-0.59 0.61c-11.89,12.03 -22.35,25.38 -33.58,38 -3.64,4.32 -9.62,4.8 -14.67,6.43 -45.76,12.92 -91.04,27.55 -135.9,43.33 -25.67,8.68 -46.33,30.3 -54.36,56.11 -5.78,17.67 -3.49,36.52 -3.97,54.79 0.3,12.86 -1.26,26.55 4.35,38.57 2.15,5.13 7.08,8.27 9.92,12.87 -8.79,12.07 -18.59,23.41 -27.91,35.11 -14.78,-8.43 -22.74,-25.54 -22.72,-42.18 -0.05,-25.99 0.04,-51.96 -0.03,-77.94 -0.62,-26.67 11.59,-52.26 29.04,-71.88 10.9,-12.12 24.34,-22.19 39.74,-27.82zm1400.86 -68.06c97.09,25.02 192.55,56.45 285.5,94.05 -8.41,5.95 -18.05,9.73 -26.96,14.79 -3.23,1.49 -6.73,4.28 -10.37,2.4 -57.14,-21.75 -115.07,-41.49 -173.73,-58.69 -0.38,109.17 0.1,218.34 -0.24,327.5 -15.33,-4.67 -30.63,-9.54 -46.22,-13.28 -3.91,-1.44 -7.3,1.35 -10.4,3.26 -9.32,6.41 -18.73,12.68 -28.03,19.11 3.74,-20.49 6.85,-41.1 10.45,-61.6 12.68,3.23 25.3,6.65 37.9,10.17 0.04,-33.11 0.02,-66.2 0.02,-99.28l0.66 -0.48c10.65,-8.01 22.45,-14.42 32.52,-23.17 -9.46,-2.88 -18.96,-5.63 -28.53,-8.02 -10.95,7.74 -22.01,15.32 -32.71,23.38 -3.29,-22.37 -6.8,-44.72 -10.19,-67.07 12.81,3.16 25.45,6.99 38.29,10.01 0,-32.78 -0.2,-65.57 0.1,-98.34 11.17,-7.51 22.65,-14.63 33.07,-23.13 -9.37,-2.93 -18.83,-5.59 -28.33,-8.13 -11,7.63 -21.94,15.41 -32.64,23.48 -3.18,-22.34 -6.77,-44.64 -10.16,-66.96zm-828.73 0.84c12.7,-11.27 24.31,-23.75 37.39,-34.58 -0.21,12.09 -1.17,24.16 -2.06,36.21 0.02,4.37 -3.52,7.3 -6.23,10.23 -10.7,10.4 -20.86,21.37 -31.44,31.92 0.48,-14.61 1.23,-29.21 2.34,-43.78zm242.81 -11.98c10.83,-9.8 20.04,-21.23 30.98,-30.91 20.21,78.48 41.14,156.78 60.85,235.39 -40.14,-1.65 -80.31,-2.13 -120.48,-1.69 -6.92,10.54 -13.16,21.5 -20.01,32.06 -5.27,-10.63 -10.42,-21.34 -15.51,-32.08 2.55,-10.51 5.13,-21 7.7,-31.51 32.86,-1.12 65.75,-0.71 98.65,-0.26 -14.08,-57 -28.17,-113.98 -42.18,-171zm-296.7 -46.48c42.46,-5.06 85.03,-9.83 127.74,-12.05 -8.43,9.62 -18.37,17.7 -27.42,26.7 -2.74,2.54 -5.26,5.38 -8.47,7.31 -5.33,1.4 -10.9,1.3 -16.35,1.87 -44.56,4.11 -89.03,9.46 -133.28,16.1 -0.75,109.19 0.23,218.39 -0.48,327.58 -15.82,2.75 -31.74,4.87 -47.54,7.76 -4.81,0.76 -7.65,5.13 -10.81,8.38 -8.95,10.44 -18.76,20.13 -27.16,31.03 2.95,-22.23 6.82,-44.35 10.17,-66.52 12.8,-2.34 25.64,-4.35 38.4,-6.87 -0.12,-87.6 -0.16,-175.22 0.02,-262.82 11.59,-12.34 23.11,-24.82 33.92,-37.85 -48.6,7.05 -96.94,16.1 -144.92,26.52 -0.21,12.11 1.33,24.14 1.54,36.23 0.2,2.96 -1.81,5.34 -3.39,7.65 -9.9,13.05 -19.6,26.27 -29.54,39.3 -2.02,-35.61 -3.9,-71.23 -5.73,-106.86 80.25,-18.76 161.52,-33.23 243.3,-43.46zm446.97 -12.76c125.39,8.08 250.15,26.54 372.58,54.89 -11.91,8.31 -24.1,16.19 -36.37,23.93 -49.26,-10.73 -98.93,-19.65 -148.83,-26.9 -0.23,109.09 0.09,218.19 -0.14,327.29 -15.48,-1.35 -30.73,-4.95 -46.23,-5.65 -12.58,7.96 -23.41,18.53 -35.34,27.48 3.68,-20.89 7.16,-41.82 10.49,-62.77 11.31,0.94 22.53,2.59 33.78,4.05 0.29,-87.69 -0.03,-175.4 0.18,-263.09 11.17,-9.23 22.86,-17.86 33.55,-27.68 -48.43,-7.63 -97.24,-12.64 -146.08,-16.93 0.2,13.27 1.41,26.5 1.89,39.76 -11.35,11.29 -22.35,22.9 -33.57,34.29 -2.26,-36.21 -3.96,-72.44 -5.91,-108.67z"/>
  </g>
 </g>
</svg>
