<?xml version="1.0" encoding="UTF-8"?>
<!DOCTYPE svg PUBLIC "-//W3C//DTD SVG 1.1//EN" "http://www.w3.org/Graphics/SVG/1.1/DTD/svg11.dtd">
<!-- Creator: CorelDRAW -->
<svg xmlns="http://www.w3.org/2000/svg" xml:space="preserve" width="2000px" height="1600px" version="1.1" style="shape-rendering:geometricPrecision; text-rendering:geometricPrecision; image-rendering:optimizeQuality; fill-rule:evenodd; clip-rule:evenodd"
viewBox="0 0 2000 1600"
 xmlns:xlink="http://www.w3.org/1999/xlink">
 <defs>
  <style type="text/css">
   <![CDATA[
    .fil1 {fill:#37226A;fill-rule:nonzero}
    .fil0 {fill:#B59F67;fill-rule:nonzero}
    .fil2 {fill:#FEFEFE;fill-rule:nonzero}
   ]]>
  </style>
 </defs>
 <g id="Capa_x0020_1">
  <metadata id="CorelCorpID_0Corel-Layer"/>
  <g id="James_x0020_Madison_x0020_Dukes.cdr">
   <path class="fil0" d="M424.74 506.42l1475.26 0c-5.16,25.22 -12.26,50.01 -18.13,75.09 -28.79,116.19 -57.51,232.39 -86.33,348.57 -4.01,15.66 -7.11,31.63 -13.39,46.61 -22.83,56.89 -75.24,100.88 -135.36,113.11 -24.08,5.47 -48.91,3.24 -73.37,3.71 -437.07,0 -874.13,-0.02 -1311.21,0 -14.54,-0.09 -29.22,0.65 -43.59,-2.23 -29.54,-5.02 -57.28,-19.71 -78.06,-41.26 -23.54,-23.94 -37.35,-56.3 -40.56,-89.55l0 -24.2c3.63,-23.94 10.69,-47.17 16.16,-70.72 12.23,-48.57 23.82,-97.3 36.32,-145.77 73.2,0.01 146.42,0.12 219.61,-0.06 17.27,-71.17 35.16,-142.19 52.65,-213.3z"/>
   <path class="fil1" d="M393.33 740.39c17.09,-69.45 34.28,-138.85 51.56,-208.25 474.2,-0.08 948.42,-0.01 1422.64,-0.03 -34.14,138.79 -68.63,277.5 -102.98,416.24 -16.37,64.32 -76.32,114.72 -142.66,119.02 -35.27,1.8 -70.62,0.05 -105.89,0.6 -132.57,-0.3 -265.12,0.19 -397.73,-0.11 -15.66,1.06 -31.31,-0.91 -46.97,0.14 -110.5,-0.19 -220.94,0.16 -331.45,-0.16 -16.85,-0.68 -33.69,0.86 -50.53,-0.17 -28.48,1.32 -57,-0.61 -85.48,0.49 -39.46,-0.82 -78.93,0.1 -118.39,-0.35 -25.61,-0.68 -51.23,1.15 -76.84,-0.09 -54.65,0.37 -109.29,0.59 -163.92,-0.07 -28.23,0.56 -56.5,-9.71 -77.87,-28.16 -22.83,-19.51 -37.79,-48.04 -40.51,-77.97 -1.69,-15.45 -0.03,-31.15 3.96,-46.11 14,-56.56 28.07,-113.11 41.97,-169.71 72.45,-0.34 144.9,0.11 217.34,-0.22 3.13,0.63 2.99,-3.19 3.75,-5.09zm73.6 -60.39c-19,76.86 -38.06,153.72 -57.12,230.57 -22.68,-0.09 -45.37,0 -68.05,-0.06 -10.1,-0.08 -20.2,0.07 -30.29,-0.24 9.1,-35.67 17.91,-71.42 26.61,-107.2 -40.42,-0.02 -80.84,-0.05 -121.26,0.02 -10.67,42.82 -21.18,85.68 -31.84,128.51 -4.23,16.73 -1.18,34.8 7.64,49.57 10.93,-1.55 21.97,-0.53 32.97,-0.79 81.94,-0.03 163.89,0.07 245.84,-0.05 32.26,-0.05 62.14,-24.5 69.36,-55.8 27.64,-111.64 55.47,-223.24 82.86,-334.93 -44.6,-0.25 -89.22,0.29 -133.84,-0.28 -8.39,30.02 -15.15,60.48 -22.88,90.68zm930.34 -90.14c-27.2,109.95 -54.43,219.91 -81.65,329.84 -2.65,10.2 -5.51,20.58 -4.71,31.21 0.3,10.36 4.08,20.14 8.63,29.31l0.56 0.02c95.48,0.35 190.96,0.02 286.44,0.18 8.83,0.14 17.76,-0.63 26.18,-3.49 24.15,-7.59 43.4,-28.6 49.05,-53.27 27.48,-111.37 55.3,-222.63 82.58,-334.05 -44.68,-0.21 -89.33,0.16 -134,-0.19 -27.12,106.89 -53.08,214.09 -79.83,321.09 -22.68,0.02 -45.37,0.09 -68.05,-0.05 -10.12,-0.07 -20.25,0.25 -30.34,-0.24 7.81,-29.23 14.61,-58.71 22.04,-88.04 19.09,-77.49 38.52,-154.89 57.4,-232.41 -44.76,0.05 -89.54,-0.12 -134.3,0.09zm-675.36 0.54c-10.68,45.89 -22.58,91.51 -33.74,137.28 -20.75,84.23 -41.76,168.4 -62.5,252.62 14.27,0.9 28.55,0.01 42.81,0.17 30.58,0.07 61.17,0.14 91.75,-0.1 24.45,-99.34 49,-198.66 73.79,-297.91 2.79,30.48 5.39,61.01 7.47,91.54 6.34,68.76 11.31,137.63 17.36,206.4 33.58,0.37 67.15,-0.02 100.73,0.14 2.71,-0.38 6.65,0.71 7.88,-2.55 58.75,-101.36 117.21,-202.89 176.04,-304.19 -8.23,33.11 -15.83,66.41 -24.93,99.3 -6.45,30.09 -14.65,59.8 -21.8,89.74 -9.71,39.2 -19.42,78.38 -29.06,117.58 44.79,0.07 89.58,0.49 134.38,-0.04 32.2,-130.21 64.51,-260.39 96.7,-390.63 -75.18,0.16 -150.35,-0.22 -225.54,0.19 -28.56,52.18 -57.77,104 -86.55,156.04 -10.15,17.51 -19.08,35.73 -29.96,52.8 -6.99,-67.84 -13.62,-135.74 -20.23,-203.62 -0.64,-1.71 0.35,-6.02 -2.79,-5.3 -67.49,-0.25 -135.01,0.05 -202.5,-0.16 -3.12,0.02 -6.23,0.35 -9.31,0.7z"/>
   <path class="fil2" d="M1764.35 589.61c10.11,0.04 20.24,-0.1 30.37,0.11 -28.77,115.06 -57,230.28 -85.68,345.36 -10.26,39.36 -46.26,70.43 -86.73,74.61 -6.45,0.53 -12.94,0.4 -19.39,0.42 -76.71,-0.17 -153.43,0.24 -230.11,-0.03 -21.24,0.4 -41.88,-11.72 -52.71,-29.84 95.48,0.35 190.96,0.02 286.44,0.18 8.83,0.14 17.76,-0.63 26.18,-3.49 24.15,-7.59 43.4,-28.6 49.05,-53.27 27.48,-111.37 55.3,-222.63 82.58,-334.05zm-1140.7 -0.01c10.08,0.01 20.18,0.05 30.25,-0.02 -28.4,114.98 -56.93,229.93 -85.4,344.91 -10.5,41.17 -49.21,73.63 -91.84,75.5 -45.89,0.26 -91.75,0.19 -137.64,0.09 -11.06,-0.25 -22.09,1.08 -33.13,0.14 -21.54,-0.41 -43.07,0.12 -64.59,-0.25 -19.73,-0.84 -37.87,-12.57 -48.68,-28.8 10.93,-1.55 21.97,-0.53 32.97,-0.79 81.94,-0.03 163.89,0.07 245.84,-0.05 32.26,-0.05 62.14,-24.5 69.36,-55.8 27.64,-111.64 55.47,-223.24 82.86,-334.93zm136.58 390.77c24.45,-99.34 49,-198.66 73.79,-297.91 2.79,30.48 5.39,61.01 7.47,91.54 -20.08,78.83 -38.84,158 -59.08,236.77 -54.7,-0.19 -109.41,-0.14 -164.11,-0.01 2.16,-10.24 4.93,-20.3 7.37,-30.46 14.27,0.9 28.55,0.01 42.81,0.17 30.58,0.07 61.17,0.14 91.75,-0.1zm207.23 -2.38c58.75,-101.36 117.21,-202.89 176.04,-304.19 -8.23,33.11 -15.83,66.41 -24.93,99.3 -46.05,79.12 -91.37,158.67 -137.61,237.67 -39.93,-0.57 -79.91,0.63 -119.81,-0.61 -0.54,-9.94 -1.76,-19.82 -2.3,-29.76 33.58,0.37 67.15,-0.02 100.73,0.14 2.71,-0.38 6.65,0.71 7.88,-2.55zm-629.38 -174.92c10.02,-0.09 20.07,0.09 30.09,-0.16 -8.35,35.98 -17.68,71.72 -26.41,107.6 -10.1,-0.08 -20.2,0.07 -30.29,-0.24 9.1,-35.67 17.91,-71.42 26.61,-107.2zm960.71 -213.32c10.06,0 20.12,0.06 30.18,-0.03 -34.56,140.33 -69.55,280.55 -104.11,420.88 -54.75,0.16 -109.5,0.02 -164.25,0.07 1.74,-10.22 4.79,-20.16 7.1,-30.25 44.79,0.07 89.58,0.49 134.38,-0.04 32.2,-130.21 64.51,-260.39 96.7,-390.63zm232.78 0.02c10.13,-0.03 20.24,0.04 30.37,-0.03 -26.52,106.9 -52.94,213.82 -79.47,320.72 -10.12,-0.07 -20.25,0.25 -30.34,-0.24 7.81,-29.23 14.61,-58.71 22.04,-88.04 19.09,-77.49 38.52,-154.89 57.4,-232.41z"/>
  </g>
 </g>
</svg>
