<?xml version="1.0" encoding="UTF-8"?>
<!DOCTYPE svg PUBLIC "-//W3C//DTD SVG 1.1//EN" "http://www.w3.org/Graphics/SVG/1.1/DTD/svg11.dtd">
<!-- Creator: CorelDRAW -->
<svg xmlns="http://www.w3.org/2000/svg" xml:space="preserve" width="2000px" height="1600px" version="1.1" style="shape-rendering:geometricPrecision; text-rendering:geometricPrecision; image-rendering:optimizeQuality; fill-rule:evenodd; clip-rule:evenodd"
viewBox="0 0 2000 1600"
 xmlns:xlink="http://www.w3.org/1999/xlink">
 <defs>
  <style type="text/css">
   <![CDATA[
    .fil0 {fill:#00319F;fill-rule:nonzero}
    .fil1 {fill:#FEFEFE;fill-rule:nonzero}
   ]]>
  </style>
 </defs>
 <g id="Capa_x0020_1">
  <metadata id="CorelCorpID_0Corel-Layer"/>
  <g id="Kentucky_x0020_Wildcats.cdr">
   <path class="fil0" d="M119.56 80l576.37 0c0,85.48 0.02,170.94 -0.02,256.42 -31.89,0 -63.81,0.02 -95.72,0 -0.04,74.58 -0.04,149.16 0,223.73 127.82,-0.01 255.63,0 383.44,0 0.02,-74.57 0.02,-149.15 0,-223.73 -32.06,0 -64.12,0.02 -96.17,0 -0.04,-85.48 -0.02,-170.94 -0.02,-256.42l576.83 0c0,85.48 0.01,170.94 -0.02,256.42 -31.91,0.02 -63.83,-0.02 -95.74,0.02 0,74.56 0,149.14 0.02,223.71 170.63,0.02 341.26,-0.01 511.88,0.02 0.04,85.46 0.02,170.92 0.02,256.38 -53.36,0.08 -106.73,-0.07 -160.09,0.08 -71.84,72.05 -143.89,143.87 -215.76,215.87 77.17,77.19 154.35,154.4 231.56,231.54 48.09,0 96.19,-0.02 144.29,0.02 0.02,85.32 0,170.63 0,255.94l-608.59 0c0,-69.13 0,-138.25 0,-207.4 -37.38,-37.36 -74.73,-74.76 -112.15,-112.09 -58.52,0.02 -117.04,-0.02 -175.56,0.02 -0.02,21.16 -0.02,42.33 0,63.51 32.06,0.02 64.14,-0.04 96.22,0.02 -0.02,85.32 0,170.63 -0.02,255.94l-576.83 0c-0.02,-85.31 0.02,-170.61 -0.02,-255.92 32.08,-0.11 64.16,0.02 96.23,-0.06 0,-95.73 -0.02,-191.49 0,-287.22 -74.65,-0.06 -149.28,0 -223.93,-0.02 -53.5,-53.48 -106.99,-106.97 -160.47,-160.46 -0.01,-159.97 0.04,-319.94 -0.01,-479.92 -31.92,0.04 -63.83,0.02 -95.74,0.02l0 -256.42z"/>
   <path class="fil1" d="M151.8 112.24c170.63,-0.02 341.26,-0.02 511.88,0 0.02,63.83 0,127.65 0.02,191.48 -31.98,-0.08 -63.97,0.22 -95.95,-0.17 -0.63,96.25 -0.08,192.54 -0.26,288.81 149.61,0.04 299.23,0.02 448.85,0.02 -0.09,-96.25 0.2,-192.5 -0.15,-288.74 -32.02,0.2 -64.04,0.06 -96.05,0.08 -0.02,-63.83 -0.02,-127.65 0,-191.48 170.67,0.11 341.37,-0.27 512.03,0.19 -0.28,63.73 -0.11,127.48 -0.09,191.21 -32.08,0.2 -64.16,0.02 -96.25,0.09 0.02,96.22 -0.08,192.45 0.05,288.67 170.78,-0.04 341.55,-0.02 512.33,0 0,63.82 -0.02,127.65 0,191.45 -48.07,0.15 -96.11,-0.16 -144.17,0.17 -82.61,82.9 -165.42,165.6 -248.24,248.3 87.87,88.35 176.17,176.31 264.28,264.44 42.72,0.02 85.46,-0.18 128.18,0.1 -0.15,63.78 -0.02,127.57 -0.05,191.38 -181.22,0 -362.44,-0.02 -543.65,0 -0.09,-63.94 0.04,-127.89 -0.07,-191.83 -42.8,-42.64 -85.45,-85.44 -128.21,-128.12 -74.79,0 -149.59,0 -224.39,0 0,42.81 -0.02,85.64 0.02,128.46 31.91,-0.02 63.82,-0.02 95.73,0 0,63.82 0.02,127.66 -0.02,191.49 -170.62,0 -341.25,-0.02 -511.88,0 -0.04,-63.83 -0.02,-127.67 0,-191.49 32.06,-0.02 64.12,-0.02 96.18,-0.02 -0.05,-117.56 0.18,-235.14 -0.11,-352.71 -79.95,0.16 -159.91,0 -239.88,0.09 -48.03,-47.93 -96.02,-95.92 -143.95,-143.96 0.06,-165.45 0,-330.93 0.04,-496.38 -32.08,-0.11 -64.16,0.02 -96.24,-0.07 0.02,-63.81 -0.01,-127.63 0.02,-191.46zm31.75 31.75l0 0c-0.02,42.81 0,85.61 0,128.42 31.91,0.08 63.84,-0.04 95.75,0.06 0.08,170.79 -0.18,341.58 0.15,512.39 42.8,42.49 85.35,85.23 127.96,127.87 74.84,0.13 149.67,0.04 224.53,0.06 -0.06,-43 0.13,-85.98 -0.09,-128.96 -31.9,0.09 -63.77,0.04 -95.67,0.04 -0.01,-170.46 0.06,-340.91 -0.03,-511.37 31.93,-0.18 63.86,0.04 95.81,-0.11 -0.04,-42.79 0,-85.59 -0.02,-128.4 -149.47,0 -298.92,-0.02 -448.39,0zm768.34 0l0 0c0.09,42.85 -0.19,85.7 0.14,128.53 31.86,-0.2 63.74,-0.03 95.61,-0.07 0,170.48 0,340.94 0,511.42 -31.91,0.02 -63.82,0.02 -95.73,0 -0.04,42.98 -0.02,85.94 0,128.92 72.36,0.04 144.75,-0.06 217.14,0.04 2.7,-0.39 6.3,0.99 8.3,-1.55 41.12,-41.08 82.17,-82.24 123.34,-123.29 1.62,-1.78 4.15,-3.49 3.39,-6.33 0,-169.76 -0.09,-339.51 0.06,-509.27 32.04,0.1 64.08,0.02 96.14,0.04 0,-42.81 0.03,-85.63 -0.02,-128.44 -149.45,0 -298.92,-0.02 -448.37,0zm-384.38 480.15l0 0c-0.08,42.78 0.03,85.57 -0.06,128.37 32.06,0.18 64.14,0.04 96.22,0.05 0.07,191.97 0.01,383.96 0.01,575.93 -32.05,0.02 -64.13,-0.02 -96.21,0.02 0.02,42.81 0,85.61 0.02,128.42 149.61,0.02 299.21,-0.02 448.83,0.02 0.04,-42.81 0.02,-85.65 0.02,-128.46 -32.08,-0.02 -64.14,0.02 -96.2,-0.02 -0.02,-63.97 -0.02,-127.96 0,-191.93 90.43,-0.04 180.87,0.02 271.32,-0.02 64.02,63.94 128,127.95 191.97,191.95 -15.88,0.04 -31.73,0 -47.6,0.02 -0.08,42.78 0.09,85.54 -0.08,128.31 160.24,0.22 320.52,0.24 480.78,0 -0.2,-42.77 -0.03,-85.53 -0.09,-128.31 -37.21,0 -74.41,-0.02 -111.61,0 -98.79,-98.7 -197.49,-197.49 -296.27,-296.21 91.49,-91.52 183.02,-182.97 274.47,-274.5 2.26,-1.83 3.9,-5.42 7.25,-5.18 42.04,-0.02 84.07,-0.04 126.09,0 0.16,-42.81 0.03,-85.63 0.07,-128.46 -160.2,-0.02 -320.41,-0.02 -480.61,0 0.02,42.82 -0.06,85.65 0.03,128.46 15.84,-0.04 31.68,0.02 47.53,-0.04 -63.84,63.94 -127.65,127.89 -191.69,191.61 -90.51,-0.21 -181.03,-0.02 -271.56,-0.1 -0.02,-63.82 -0.04,-127.66 0,-191.49 32.06,0 64.12,0.02 96.2,0 -0.06,-42.83 0.11,-85.66 -0.09,-128.49 -149.58,0.11 -299.16,0.02 -448.74,0.05z"/>
  </g>
 </g>
</svg>
