<?xml version="1.0" encoding="UTF-8"?>
<!DOCTYPE svg PUBLIC "-//W3C//DTD SVG 1.1//EN" "http://www.w3.org/Graphics/SVG/1.1/DTD/svg11.dtd">
<!-- Creator: CorelDRAW -->
<svg xmlns="http://www.w3.org/2000/svg" xml:space="preserve" width="2000px" height="1600px" version="1.1" style="shape-rendering:geometricPrecision; text-rendering:geometricPrecision; image-rendering:optimizeQuality; fill-rule:evenodd; clip-rule:evenodd"
viewBox="0 0 2000 1600"
 xmlns:xlink="http://www.w3.org/1999/xlink">
 <defs>
  <style type="text/css">
   <![CDATA[
    .fil1 {fill:#050707;fill-rule:nonzero}
    .fil5 {fill:#90172B;fill-rule:nonzero}
    .fil3 {fill:#AD8679;fill-rule:nonzero}
    .fil2 {fill:#C7BEAC;fill-rule:nonzero}
    .fil4 {fill:#D6D0C2;fill-rule:nonzero}
    .fil0 {fill:#FEFEFE;fill-rule:nonzero}
   ]]>
  </style>
 </defs>
 <g id="Capa_x0020_1">
  <metadata id="CorelCorpID_0Corel-Layer"/>
  <g id="Lafayette_x0020_Leopards.cdr">
   <path class="fil0" d="M440.47 428.33c139.24,0.05 278.49,-0.04 417.71,0.03 -21.62,82.48 -43.91,164.84 -66.07,247.2 -20.64,-0.07 -41.29,0.17 -61.91,-0.16 -33.91,123.96 -66.62,248.25 -100.11,372.31 -13.69,51.74 -27.91,103.31 -41.38,155.07 47.02,-0.16 94.05,0.26 141.07,-0.2 7.62,-28.51 15.31,-57 23.33,-85.38 85.65,0.22 171.31,-0.31 256.96,0.27 -29.96,110.82 -59.65,221.69 -89.58,332.51 -251.25,0.07 -502.51,0.04 -753.78,0.02 22.09,-82.4 43.96,-164.87 66.29,-247.2 20.78,-0.07 41.53,-0.02 62.29,0 47.15,-175.71 94.18,-351.44 141.24,-527.18 -20.73,-0.15 -41.46,0 -62.2,-0.06 21.85,-82.47 44.03,-164.85 66.14,-247.23zm724.69 645.29c8.77,4.76 18.37,7.65 28.17,9.42 -11.24,2.61 -22.97,4.63 -34.22,0.72 1.47,-2.25 2.87,-4.54 4.18,-6.87 0.47,-0.82 1.4,-2.47 1.87,-3.27zm147.89 -80.73c4.68,-6.02 1.77,-15.69 8.79,-19.82 7.76,3.44 7.45,12.44 8.14,19.58 -28.31,10.57 -59.47,10.71 -89.09,6.66 1.33,-7.73 2.95,-17.49 10.24,-21.84 5,4.49 4.49,11.86 7.6,17.49 3.45,-5.27 1.2,-13.27 6.56,-17.43 8.04,-0.6 9.51,9.72 11.82,15.31 1.85,-5.44 2.89,-11.13 5.31,-16.35 9.18,-1.29 9.71,9.98 13.36,15.78 2.58,-5.54 1.02,-15.58 8.58,-16.91 6.11,3.49 6.06,11.71 8.69,17.53zm-89.47 -49.2c8.51,18.62 9.18,41.71 -1.2,59.78 -3.45,5.82 -7.91,13.02 -15.85,11.57 -13.18,1.67 -27.35,-6.48 -29.4,-20.24 20.76,-11 37.43,-29.47 46.45,-51.11zm142.15 -6.96c5.14,10.34 8.94,22 6.87,33.65 -1.6,11.55 -8.24,21.91 -17.02,29.4 -3.71,-7.49 -8.4,-14.45 -14.05,-20.6 13.58,-10.11 19.4,-26.89 24.2,-42.45zm64.36 -96.75c8.44,-5.4 19.33,-0.49 27.24,3.93 -4.82,18.47 -13.33,36.45 -27.22,49.8 -8,-6.91 -7.18,-18.42 -6.51,-27.95 1.27,-8.76 2.82,-17.69 6.49,-25.78zm-403.67 -6.47c6.76,-2.46 13.51,-5.02 20.29,-7.51 2.6,6.51 5.71,12.82 9.51,18.73 0.09,1.69 0.27,5.07 0.36,6.76l2.64 -0.56c-0.13,1.83 -0.4,5.47 -0.55,7.29l2.71 -1.11c-0.07,2.16 0.6,4.11 2.02,5.85 2.78,8.68 5.64,17.37 9.42,25.69 -1.93,2.95 -4.24,6.17 -3.49,9.93 0.65,5.71 6.11,9.11 10.76,11.58l0.64 0.35 0.09 0.51c1.2,17 14.56,33.4 6.76,50.45 2.64,1.33 5.33,2.62 8.02,3.97 3.85,13.47 7.29,27.18 13.73,39.72 -0.33,4.89 4.29,8.28 2.6,13.17l3.58 -0.69c-0.51,1.27 -1.55,3.81 -2.07,5.07l3.74 -1.2 -1.05 2.87c0.76,0.29 2.31,0.86 3.09,1.15l-1.09 3.36c0.91,0.15 2.74,0.44 3.65,0.6l-1.63 4.18 3.03 -0.85c-0.38,3.63 3.87,4.67 5.62,7.14 3.71,9.71 12.62,15.82 20,22.6 -3.87,5.55 -6.18,11.95 -6.89,18.68 -7.6,-5.75 -16.58,-9.73 -22.98,-16.97 -14.51,-15.4 -20.93,-35.89 -30.2,-54.43 9.69,-4.59 13.14,-17.46 6.74,-26.15 -4.07,-5.76 -11.74,-3.78 -17.51,-2.71 -9.23,-28.02 -18.2,-56.16 -25.67,-84.71 -6.4,-21.76 -15.51,-42.63 -25.87,-62.76zm210.54 -17.69c14.24,4.36 29.55,3.78 44.06,0.96 -11.86,16.15 -23.38,35.53 -19.84,56.4 -14.94,-15.22 -22.56,-36.36 -24.22,-57.36zm-243.34 -17.82c12,-2.73 23.78,-8.98 36.09,-8.8 4.67,6.6 1.33,15.38 2.71,22.91 -5.4,2.38 -10.93,4.45 -16.46,6.47l1.35 -3.45 -3.64 0.23c0.37,-1.09 1.15,-3.27 1.55,-4.36 -4.18,0.93 -5.89,-0.67 -5.13,-4.78 -0.98,-0.13 -2.91,-0.42 -3.87,-0.55 -3.35,-3.82 -7.75,-6.27 -12.6,-7.67zm317.18 15.36c34.65,-4.47 68.47,-14.49 100.31,-28.76 18.4,-1.47 37.02,3.49 52.82,12.85 3.92,8.02 2.6,17.35 1.47,25.86 -10.78,-4.98 -22.4,-8.02 -34.27,-8.53 -19.57,-1.71 -38.15,6.04 -57.49,7.18 -17.04,1.31 -34.46,1.73 -51.22,-2.05 -4.27,-1.26 -9.26,-2.4 -11.62,-6.55zm-79.35 -222.94l0.57 -0.89c0.98,0.63 2.98,1.91 3.98,2.56 28.29,4.42 56.22,14.27 79.73,30.89 1.76,22.91 14.78,45.26 35.07,56.55 3.51,2.09 7.51,4.29 8.2,8.78 5.29,17.73 12.69,35.05 23.49,50.16 4.15,6.11 10.75,9.66 17.09,13.13 -4.73,3.62 -9.91,6.67 -15.58,8.53 -30.4,10.67 -62.13,17.09 -94,21.38 -28.35,4.62 -57.07,2.78 -85.64,3.16 -20.61,0.17 -40.63,-5.65 -60.14,-11.62 12.02,-0.12 23.78,2.91 35.83,2.53 48.88,1.71 98.44,-6.62 143.42,-26.18 3.55,-1.33 6.53,-3.73 9.17,-6.42 -17.66,-1.56 -35.46,0.62 -53.04,-1.87 -16.89,-1.6 -33.75,-3.73 -50.22,-7.87 -8.69,-2.26 -17.8,-3.99 -25.33,-9.17 36.93,8.84 77.08,6.91 111.62,-9.76 -0.43,-1.18 -1.29,-3.58 -1.74,-4.78 -8.46,-0.73 -16.75,-2.6 -24.88,-4.88 -28.38,-7.52 -57.21,-16.49 -81.18,-33.98 -2.65,-1.69 -4.42,-4.29 -5.94,-6.94 11.91,2.87 23.4,7.54 35.65,9 22.13,1.98 45.35,1.6 65.75,-8.26 0.25,-0.71 0.74,-2.14 0.98,-2.85 -20.93,-12.06 -41.13,-25.42 -60.8,-39.46 -8.16,-5.69 -15.11,-12.94 -23.44,-18.36 4.13,-4.13 8.51,-8.18 11.38,-13.38zm272.99 -106.78c2.83,-1.35 5.78,-2.4 8.8,-3.37 0.27,3.98 0.76,7.95 0.56,11.95 -1.64,5.07 -5.69,8.71 -9.95,11.58 0.84,-6.6 5.22,-14.07 0.59,-20.16zm-409.35 0.18c0.84,-8.71 4.18,-16.89 8.87,-24.22 7.11,3.76 14.15,7.71 21.22,11.6 -5.14,6.89 -8.76,14.93 -9.47,23.56 -0.18,12.62 2.76,24.86 5.56,37.06 -15,-10.89 -26.69,-29.02 -26.18,-48zm-638.56 -33.55l0 0c-17.77,67.95 -36.26,135.73 -54.33,203.62 20.75,0.02 41.49,0 62.24,0 -50.71,190.18 -101.93,380.22 -152.64,570.4 -20.82,0.38 -41.67,0 -62.49,0.18 -18.16,68.11 -36.6,136.15 -54.67,204.29 236.43,0.35 472.85,-0.03 709.27,0.17 26.2,-96.62 52.07,-193.35 78.22,-290 -70.97,-0.09 -141.95,-0.02 -212.93,-0.04 -7.73,28.51 -15.6,56.98 -23.22,85.51 -61.82,0.11 -123.65,-0.04 -185.47,0.07 51.05,-190.18 101.96,-380.4 153.02,-570.58 20.71,0.02 41.43,-0.02 62.16,0.02 18.38,-67.93 36.46,-135.95 54.75,-203.91 -124.64,0.18 -249.29,-0.36 -373.91,0.27z"/>
   <path class="fil1" d="M1078.62 98.89l14.14 0c25.15,3.13 48.8,13.44 70.91,25.44 68.8,38.25 124.69,96.6 168,161.71 36.33,7.25 71.97,20.67 101.82,42.98 18.09,-3.13 36.53,-5.82 54.93,-4.2 30.71,16.22 52.69,46.42 61.78,79.65 13.4,49.62 6.16,102.51 -9.27,150.8 28.71,35.78 51.78,77.64 58.16,123.6 91.76,-9.29 185.53,-1.27 273.93,25.31 9.09,2.8 18.11,5.84 26.98,9.31l0 0.87c-47.75,-12.63 -97.18,-17.8 -146.44,-19.76 -51,-1.95 -102.14,-0.02 -152.94,4.84 0.18,10.65 -0.62,21.29 -1.97,31.85 86.8,12.42 171.53,40.44 247.93,83.62 12.31,7.36 25.06,14.2 36.2,23.34 -76.2,-40.49 -160.31,-63.4 -244.69,-79.45 -14.62,-2.71 -29.29,-5.2 -44,-7.29 -3.38,11.47 -7.62,22.67 -12.8,33.45 80.76,32.8 155.44,80.64 218.84,140.49 12.23,12.37 25.29,24.15 35.63,38.24 -58.14,-53.93 -126.83,-95.02 -197.56,-130.16 -22.09,-10.75 -44.38,-21.11 -67.13,-30.4 -5.56,8.56 -11.51,16.85 -17.96,24.74 62.11,58.26 113.85,127.69 151.49,204.11 8.6,18.31 17.22,36.69 23.22,56.04 -32.66,-65.89 -77.17,-125.15 -126.06,-179.82 -20.16,-22.42 -40.98,-44.31 -62.87,-65.07 -20.89,20.6 -45.18,38.25 -72.47,49.29 -4.4,1.74 -7.97,4.87 -11.77,7.56 -16.54,11.84 -35.52,20.62 -55.65,23.95 4.67,-8.71 9.05,-17.57 12.38,-26.86 -12.4,-5.2 -24.05,-12.16 -33.98,-21.27 8.36,25.33 13.67,51.67 16.22,78.16 16.94,29.09 28.71,62.13 28.11,96.15 0.56,40.13 -17.17,79.11 -44.82,107.74 -38.33,40.04 -90.4,63.82 -142.91,79.11 8.13,-12.92 16.33,-25.78 23.4,-39.29 -41.38,9.71 -83.31,19.02 -126,19.46 15.56,-10.35 31.04,-21.17 43.76,-35 -17.96,-1.11 -36.09,-2.28 -53.43,-7.48 -19.17,-5.47 -37.04,-14.72 -53.46,-25.92 -6.56,6.91 -14.31,13.09 -19.05,21.45 -30,110.22 -59.24,220.71 -89.29,330.93l-859.93 0 0 -1.42c31.24,-115.98 62.15,-232.04 93.38,-348.02 20.75,-0.02 41.53,0 62.29,0 37.95,-141.47 75.77,-282.96 113.73,-424.43 -20.78,-0.02 -41.58,0 -62.38,-0.02 31.29,-116.66 62.6,-233.31 93.8,-350.02 25.91,0 51.8,0.07 77.71,-0.02 -6.84,-35.07 -7.26,-72.22 3.96,-106.45 4.62,-12.77 10.51,-26.26 21.86,-34.44 6.05,-4.6 15,-3.29 19.49,2.8 19.32,22.2 42.54,41.53 69.96,52.73 44.09,17.8 92.82,18.49 137.18,35.54 50.73,-36.72 109.31,-61.03 168.93,-79.16 59.22,-17.33 120.78,-28.82 182.69,-27.09 3.27,-30.42 -3.62,-60.89 -13.29,-89.55 -2.38,-7.67 -7.27,-15.43 -4.95,-23.72 2.06,-5.93 8.73,-7.8 14.26,-8.95zm-157.69 1087.71c9.56,-7.49 19.05,-15.02 28.76,-22.31 -20.87,79.16 -42.29,158.2 -63.29,237.31 -219.18,0.09 -438.38,0.18 -657.56,-0.04l1.56 -2.45c8.58,-6.69 17.09,-13.47 25.62,-20.22 204.45,0 408.91,-0.02 613.36,0.02 17.44,-64.04 34.35,-128.22 51.55,-192.31zm220.98 -105.36c4.96,1.56 9.96,3.07 14.93,4.6 -2.88,1.98 -5.75,5.18 -9.62,4.05 -2.73,-2.22 -3.89,-5.6 -5.31,-8.65zm7.47 -19.35c1.06,-1.02 3.17,-3.05 4.24,-4.07 4.63,3.14 7.65,7.96 9.27,13.25 -4.8,-2.6 -9.29,-5.71 -13.51,-9.18zm-324.16 -135.42c4.56,-6.16 17.49,-5.71 17.58,3.53 -1.58,12.85 -14.11,25.45 -27.11,24.85 3.47,-9.36 3.49,-20.12 9.53,-28.38zm191.18 -35.38c9.62,-4.33 24.04,1.24 26.49,11.84 -4.58,8.4 -13.38,15.18 -22.98,16.6 -7.87,-0.51 -15.44,-6.35 -17.24,-14.17 0.64,-7.29 7.46,-11.89 13.73,-14.27zm-238.82 -22.84c6.49,0.22 13.64,-1.05 19.18,3.26 0.97,0.96 1.95,1.96 2.91,3 3.44,7.14 4.62,16.74 -1.05,23.07 -6.46,2.38 -13.73,-1.11 -18.44,-5.58 -6.4,-6.22 -3.58,-15.98 -2.6,-23.75zm47.73 -46.05c2.53,-2.09 6.16,-1.13 7.67,1.71 4.22,6.47 6.86,13.98 8.24,21.56 -2.53,7.66 -11.89,9.82 -18.91,11.26 -8.4,1.16 -12.22,-8.88 -11.24,-15.73 0.15,-8.62 8.13,-14.02 14.24,-18.8zm-67 -33.58c3.02,-4.93 9.44,-7.09 14.91,-5.4 4.87,2.07 4.76,8.27 3.18,12.49 -3.51,9.53 -11.58,17.42 -21.27,20.51 -1.09,-0.33 -3.22,-1.02 -4.29,-1.35 0.8,-9.09 2.36,-18.51 7.47,-26.25zm102.71 12.65c0.05,-11.2 9.2,-23.8 21.18,-23.45 8.18,0.27 11.31,9.34 10.91,16.25 -3.44,8.15 -11.71,12.64 -18.78,17.29 -6.55,2.06 -13.57,-3.25 -13.31,-10.09zm-65.82 -63.6c4.04,-7.47 16.55,-13.34 22.42,-4.91 0.89,11.28 -8.15,20.42 -16.51,26.71 -2.02,0.75 -6.02,2.24 -8.04,2.97 -4.05,-0.4 -5,-4.75 -4.32,-8.11 0.78,-5.97 3.52,-11.46 6.45,-16.66zm-289.49 515.51c57.6,-215.34 115.47,-430.58 172.91,-645.96 5.38,7.83 11.18,15.36 16.69,23.09 -56.38,211.31 -113.13,422.53 -169.64,633.82 -9.29,7.4 -18.78,14.56 -28.14,21.89 1.8,-11.17 5.43,-21.91 8.18,-32.84zm-70.96 -623.73c9.89,-7.49 19.83,-14.94 29.54,-22.67 19.31,-0.18 38.64,-0.27 57.98,0.06 -8.83,8.36 -18.85,15.23 -28.14,23.03 -19.78,-0.03 -39.62,0.75 -59.38,-0.42zm508.23 -49.83c4.8,0.85 9.6,1.31 14.46,1.54 -1.64,1.2 -3.26,2.4 -4.88,3.6 -4.78,-0.69 -9.58,-1.09 -14.38,-1.23 1.6,-1.31 3.2,-2.62 4.8,-3.91zm-25.45 -1.58c7.36,-0.88 14.69,1.12 22.07,0.85 -1.62,1.18 -3.24,2.35 -4.87,3.53 -5.84,-1.02 -13.09,1.2 -17.2,-4.38zm-0.44 -26.66c1.2,-8.25 7.87,-15.07 16.15,-16.18 6.85,-1.62 12.69,2.96 18.18,6.27 -0.11,1.49 -0.31,4.44 -0.42,5.93 -3.82,6.71 -9.73,13.07 -17.69,14.42 -6.98,1.36 -15.09,-3.04 -16.22,-10.44zm508.4 -45.07c9.47,-3.62 15.93,6.38 17.69,14.29 -7.38,-2.22 -11.94,-9.51 -17.69,-14.29zm-656.18 -9.22c9.38,-7.33 18.78,-14.65 28.13,-22.02 -0.44,5.93 -2.35,11.58 -3.89,17.31 -11.4,43.29 -22.99,86.51 -34.35,129.82 -0.64,2.33 -1.6,4.53 -2.89,6.6 -5.13,-7.6 -11.09,-14.62 -16.56,-21.96 9.45,-36.68 19.89,-73.13 29.56,-109.75zm439.56 -44.38c10,-6.67 25,-4.78 31.71,5.67 5,7.69 6.95,21.18 -2.47,26.4 -9.53,-0.69 -15.04,-9.29 -20.78,-15.8 -4,-4.74 -7.09,-10.2 -8.46,-16.27zm-275.78 -18.4c5.27,-5.4 12.69,-11.09 20.71,-8.49 6.75,4.49 4,13 0.62,18.8 -6.44,9.56 -14.71,18.71 -25.55,23.18 -4.69,2.6 -8.45,-2.38 -8.31,-6.69 -0.34,-10.29 5.73,-19.55 12.53,-26.8zm355.51 -15.71c5.45,-4.89 12.93,-1.93 17.45,2.64l0.22 0.25c-4.23,10.64 -10.74,20.11 -18.65,28.31 -7.64,-8.31 -7.42,-23.49 0.98,-31.2zm-129.29 0.4c0.73,-4.84 7.02,-5.31 10.76,-4.02 7.42,2.71 14,7.26 21.11,10.66 0.4,0.56 1.22,1.67 1.64,2.23 5.38,9 5.74,22.71 -5.4,27.42 -6.35,-4.18 -12.77,-8.22 -18.69,-12.98 -5.24,-6.51 -10.57,-14.58 -9.42,-23.31zm229.71 -16.47c9.65,1.87 19.76,7.23 24.16,16.4 3.38,6.56 -4.76,13.76 -11.09,10.91 -11.62,-2.91 -15.67,-16.75 -13.07,-27.31zm57.69 14.14c-6.31,-3.76 -5.29,-14.78 2.14,-16.6 7.04,-0.76 14.11,1.82 19.71,6 -1.45,3.97 -0.54,9.66 -4.58,12.13 -5.65,1.25 -12.09,1.29 -17.27,-1.53zm-334.02 -1c-5.33,-7.83 -8.51,-19.36 -1.62,-27.25 2.06,0.76 4.15,1.54 6.24,2.29 8.51,6.29 16.36,13.87 21.05,23.49 -2.03,4.2 -4.18,8.36 -6.49,12.4 -7.8,-0.67 -14.14,-5.27 -19.18,-10.93zm116.87 -29.49c4.24,-3.47 8.97,1.75 12.42,4.09 7.84,7.55 16.09,16.6 17.49,27.8 -0.49,0.62 -1.49,1.86 -2,2.49 -8,1.82 -16.07,3.71 -24.27,4.46 -5.93,0.29 -13.16,-2.24 -14.73,-8.62 -1.27,-10.96 2.73,-22.91 11.09,-30.22zm-190 9.22c6.77,-9.13 18.8,-11.49 29.48,-12.02 5.05,-0.14 11.51,0.46 13.49,6.07 2.8,4.02 1.4,9.66 -3.11,11.71 -11.71,3.62 -24.44,6.04 -36.58,3.37 -4.42,-0.93 -5.26,-5.64 -3.28,-9.13zm265.57 -0.73c-6.53,-3.11 -14.66,-10.91 -8.44,-18.18 4.98,5.55 9.04,11.93 11.22,19.13l-2.78 -0.95zm170.87 -21.14c8.29,6.58 14.67,15.07 20.8,23.63l0.11 3.44c-12.4,-1.71 -20.93,-15.2 -20.91,-27.07zm-310.64 -7.11c7.26,-4.6 14.82,2.47 19.06,8 4.36,5.98 7.71,13.89 5.45,21.34 -4.02,6.17 -12.87,3.29 -18.89,2.66 -0.85,-0.33 -2.54,-1.02 -3.38,-1.38 -5.38,-3.84 -10.76,-7.68 -16.09,-11.6 3.73,-6.86 7.71,-13.97 13.85,-19.02zm-169.47 -20.26c3.18,-1.25 7.18,-2.09 10.04,0.4 3.78,3.37 2.56,8.97 1.51,13.33 -1.66,7.02 -8.6,10.6 -13.55,15.13 -3.62,2.49 -9.02,6.71 -13.09,2.74 -4.98,-4.65 -6.53,-12.89 -2.82,-18.78 4.09,-6.38 10.95,-10.25 17.91,-12.82zm111.69 -12.8c11.49,-1.63 23.75,0.51 33.95,6.11 0.18,0.82 0.54,2.42 0.71,3.24 -6.73,5.91 -15.77,8.09 -23.04,13.22 -5.96,4.49 -14.11,4.63 -20.93,2.34 -4.23,-1.56 -7.83,-5.91 -6.43,-10.63 0.78,-7.93 8.38,-13.08 15.74,-14.28zm-71.69 5.95c8.27,-6.15 18.91,-8.24 29.04,-8.2 3.65,9.05 1.74,20.33 -5.89,26.73 -0.77,0.36 -2.35,1.07 -3.13,1.43 -8.58,1.53 -18.95,-0.51 -24.22,-8.03 -3.4,-4.31 0.75,-9.24 4.2,-11.93zm-156.71 -16.49c7.69,-4.98 19.31,-7.69 25.98,0.34 -2.69,15.17 -17.36,25.42 -31.58,28.73 -5.4,1.82 -12.49,-2.47 -11.43,-8.65 1.49,-9.24 9.47,-15.8 17.03,-20.42zm224.4 -190.86l0 0c11.55,29.33 18.29,60.86 17.31,92.48 13.11,0.58 26.13,2.52 39.18,3.96 -3.27,-14.47 -9.34,-28.18 -17.29,-40.69 18.11,11.69 32.11,28.47 46.2,44.36 20.26,3.82 41.22,4.86 60.58,12.55 -21.67,-30.24 -48.89,-56.4 -78.58,-78.73 -20.4,-14.78 -42.45,-28.69 -67.4,-33.93zm-98.89 121.15l0 0c-9.29,1.18 -18.56,2.53 -27.78,4.09l-0.29 0.58c-16.44,1.86 -32.44,6.4 -48.53,10.13 -6.45,1.87 -12.91,3.73 -19.38,5.51l-0.29 0.96c-15.42,3.31 -30.02,9.6 -44.84,14.93 -8.4,3.2 -16.67,6.69 -24.91,10.25l-0.05 0.37c-15.22,6.18 -29.89,13.65 -44.69,20.78 -11.73,6.45 -23.82,12.22 -35.22,19.25 7.09,3.53 14,7.37 20.89,11.28 7.35,4.23 14.42,8.92 21.38,13.76 3.24,-15.04 19.31,-19.67 32.51,-21.93 5.42,-1.05 12.13,-0.05 15.13,5.17 2.4,5.07 -2,9.8 -3.91,14.16 5.33,0.24 10.76,0.16 16,1.42 -12.4,3.6 -24.56,8.14 -36.15,13.76 14.75,0.44 29.53,0.02 44.33,0.24 2.8,-0.2 6.07,0.58 8.47,-1.4 17.15,-11.71 36.71,-19.62 56.84,-24.51 -3.02,-2.6 -6.62,-6.29 -4.89,-10.67 2.78,-8.26 10.62,-13.4 18.16,-16.95 5.64,-2.33 12.29,-4.71 18.22,-1.89 4.29,2.02 8.89,7.36 5.18,12.02 -5.14,7.74 -12.38,14.31 -21.4,17.07 -5.85,0.93 -10.31,5.22 -15.29,8.09 -8,5.8 -17.09,10.6 -23.47,18.26 4.78,0.09 9.56,0.07 14.36,0.14 -2.18,4.42 -3,9.31 -4.38,13.98 7.91,-5.27 16.69,-9.67 26.27,-10.76 3.73,-0.24 9,2.11 8.28,6.67 -1.44,7.53 -7.91,12.8 -13.91,16.89 -7.22,5.11 -17.04,9.42 -24.82,2.84 -5.02,19.27 -10.31,38.49 -15.38,57.76 3.2,-0.16 8.09,-0.23 7.67,4.4 0.87,6.44 -1.6,12.66 -3.45,18.71l-0.57 -0.03c-2.8,5.09 -8.78,5.74 -13.42,8.27 2.51,4.71 8.28,5.38 13,6.53 8.44,1.94 17.11,1 25.64,-0.04 -3,-4.73 -4.78,-11.31 1.16,-14.64 0.93,-0.16 2.77,-0.47 3.71,-0.63 7.91,0.56 15.29,3.52 22.46,6.67 8.2,-4.27 16.42,-8.6 23.71,-14.36 -1.97,-4.66 -0.86,-9.75 2.07,-13.68 7.91,-10.85 19.67,-18.31 31.96,-23.36 1.22,-2.73 2.44,-5.49 3.62,-8.22 -17.98,-2.62 -36.98,-5.14 -54.49,1.24 5.56,-6.09 13.04,-9.69 19.78,-14.22 -3.25,-1.44 -6.09,-3.47 -8.82,-5.64 0.77,-2.23 1.57,-4.43 2.37,-6.63 10.8,-8.51 22.07,-18.04 36.09,-20.2 3.4,-0.15 4.47,3.6 6.2,5.76 -0.47,6.44 -3.4,12.24 -6.84,17.58 13.33,-1.49 26.91,-1.65 40.13,0.91 30.69,5.31 57.58,21.8 84.56,36.38 40.91,22.37 81.04,46.2 121.68,69.04 3.63,-2.89 7.43,-5.53 11.32,-8.04 -7.03,-3.36 -13.51,-7.94 -16.71,-15.27 0.49,-7.96 5.15,-19.38 14.99,-17.45 9.94,3.16 17.05,12.45 19.7,22.29 23.24,-10.55 50.64,-16.82 75.15,-6.55 -0.75,-2.22 -2.24,-6.71 -2.98,-8.94 2.74,-1.66 5.62,-3.06 8.69,-4.13 3.6,1.36 7.16,2.91 10.91,3.91 4.69,3.98 10.63,6.18 15.05,10.58 0.93,5.31 1.64,10.73 0.17,16 7.34,5.11 13.96,11.09 20.87,16.73 -1.26,-4.93 -1.29,-10.06 1.74,-14.42 2.59,2.62 4.99,5.42 7.46,8.2 5.85,-0.04 11.69,0.33 17.49,1.2 -0.2,3.11 -0.31,6.25 -0.31,9.38 -1.6,2.29 -2.8,4.8 -4.07,7.29 21.56,7.8 41,25.53 44.89,48.93 -19.8,-13.2 -44.89,-18.82 -68.11,-12.58 7.67,-6.46 16.16,-11.68 24.98,-16.44 -10.87,-5.6 -22.98,-8.16 -35.13,-8.47 -19.87,-22.26 -45.56,-42.84 -76.29,-45.75 -26.78,-2.76 -52.36,11.86 -68.52,32.42 -41.26,-2.29 -82.71,7.27 -120.48,23.49 -0.32,8.66 -2.03,20.29 -11.34,23.73 -8.13,1.69 -16.66,0.56 -24.09,-3.11 -7.8,6.27 -15,13.27 -21.35,20.98 7.64,-0.47 15.8,-0.71 22.69,3.2 3.53,3.49 0.15,7.71 -0.91,11.46 4.33,1.8 8.71,3.54 13.17,5.12 14.05,-20.25 32.69,-37.27 54.34,-49.12 7.13,-6.22 14.26,-12.71 23.02,-16.62 22.93,-11.77 50.73,-9.11 73.6,1.47 11.89,-17.78 30.11,-34.98 52.93,-34.33 17.91,1.06 37.16,6.84 49.14,20.93 -17.58,15.51 -33.49,35.75 -36.18,59.75 -26.2,-16.97 -54.78,-31.75 -85.94,-36.53 -18.71,-3.02 -39.13,-0.89 -55.08,10 1.22,2.6 2.44,5.18 3.69,7.78 10.24,-8.47 25.33,-14.22 37.75,-6.85 -0.35,3.63 -2.02,6.85 -3.58,10.09l-0.57 0.89c-7.87,-1.82 -16.05,-2.02 -24.07,-1.75 3.15,5.22 6.37,10.78 11.53,14.33 -2.26,1.76 -4.55,3.51 -6.84,5.27 19.4,24.17 47,41.29 76.98,48.91 -23.72,2.13 -48,-2.02 -69.72,-11.76 -1.31,8.74 -10.44,12.69 -17.08,16.98 -2.85,-1.67 -5.94,-2.75 -9.16,-3.22 1.98,1.86 4.29,3.26 6.91,4.15 -3.2,1.8 -6.42,3.58 -9.71,5.2 23.11,23.36 54.98,34.6 86.02,42.98 -25.36,4.4 -51.86,0.45 -75.51,-9.42 -18.58,-7.47 -34.07,-20.47 -48.33,-34.18 -1.74,14.65 2.91,29.25 10.88,41.42 1.63,-3.29 1.76,-8.17 5.61,-9.77 6.17,-0.47 12.39,1.26 18.22,3.24 8.49,3.2 13.2,11.71 16.27,19.76 -4.25,-0.98 -8.4,-2.18 -12.63,-3.14 3.91,2.63 8.16,4.98 12.91,5.67 0.96,4.78 -2.4,8.13 -5.84,10.76 29.8,11.75 62.07,15.84 93.93,15.57 -11.82,2.94 -24.07,3.58 -36.13,4.96 -41.4,3.42 -84.64,4 -123.93,-11.4 -5.52,16.58 -3.12,35.02 4.93,50.35 64.91,6.56 131.06,7.83 195.49,-3.82 36.8,-7.51 76.24,-19.47 100.98,-49.6 -29.18,-12.8 -48.03,-43.04 -50.65,-74.29 -13.98,-5.29 -28.42,-13.71 -34.27,-28.22 -5.4,-13.29 0.18,-28.36 9.16,-38.67 13.58,-15.84 35.82,-22.15 56.11,-19.6 20.89,2.07 40.07,11.45 57.91,21.94 20.4,-5.63 42.45,-9.87 63.2,-3.45 -10.22,-18.91 -25.75,-33.89 -39.64,-50.02l-1 -0.31c-19.54,-22.78 -42.73,-42.45 -67.22,-59.76 -7.89,1.25 -17.18,-2.46 -17.25,-11.57 -9.91,-6.16 -20,-12.07 -30.6,-16.92 -1.98,2.83 -4.02,5.6 -6.11,8.34 -5.82,-1.96 -13.76,-3.98 -16.11,-10.25 1.73,-2.31 3.58,-4.55 5.42,-6.8 -0.64,-15.24 2.71,-30.8 10.98,-43.75 0.44,10.58 1.44,21.33 5.09,31.35 22.78,3.76 41.62,18.58 58.91,32.94 2.58,-6.43 5.69,-12.62 9.13,-18.65 -11.04,-3.22 -21.95,-12.31 -21.82,-24.66 -0.2,-3.16 4.02,-4.43 6.38,-3.25 9.33,3.56 18.35,8.65 25.02,16.22 12.87,-11.73 32.67,-17.02 48.98,-10 -15.2,4.65 -28.31,14.38 -38.47,26.47 7.56,-3.69 18.87,-0.82 17.94,9.24 4.55,-1.64 9.13,-3.26 13.66,-5.02 1.36,-9.18 8.91,-19.02 19.25,-14.73 0.55,2.33 1.09,4.69 1.66,7.04 2.07,-10.93 3.25,-22.11 1.78,-33.2 -0.76,-7.77 -1.89,-15.55 -4.22,-23.04 -3.33,-7.6 -6.27,-16.09 -11.76,-22.27 -0.4,-0.42 -1.22,-1.26 -1.62,-1.69l0.82 -0.22c-6.95,-7.2 -14.4,-14.46 -23.75,-18.38 -5.14,-0.31 -10.22,0.49 -15.29,0.83 -0.09,1.51 -0.29,4.53 -0.38,6.04 0.36,8.07 -1.02,16.84 -6.67,23.02 -5.17,-7.95 -9.84,-16.22 -15.06,-24.13 -7.76,2.55 -15.36,5.6 -22.56,9.44 8.14,4.49 14.49,11.89 17.78,20.58 -12.07,5.27 -26.89,0.62 -34.96,-9.53 -5.49,4.86 -10.71,10 -15.33,15.71 -0.49,-12.8 4.42,-25.13 12.18,-35.16 3.91,-4.11 8.02,-8.04 11.73,-12.35 -2.44,-2.02 -4.89,-4.05 -7.35,-5.98 -7.56,-5.49 -15.94,-9.67 -24.52,-13.29 -8.62,-3.53 -17.55,-6.31 -26.66,-8.22 6.04,6.62 10.91,14.22 14.6,22.33 0.29,2.98 0.6,5.98 0.93,8.96 3.73,1.44 7.38,3.2 10.6,5.67 -1.02,3.93 -2.02,7.88 -3.2,11.77 -7.31,0.71 -17.71,2.67 -21.95,-5.09 -3.14,-5.84 1.42,-12.91 7.73,-13.64 -9.67,-8.53 -19.36,-17.04 -29.22,-25.31 -4.82,-0.07 -9.8,0.33 -14.42,-1.27 -5.29,-2.42 -7.1,-9 -4.56,-14.07 -2.96,-2.26 -5.96,-4.48 -8.98,-6.64 -6.98,1.51 -15.62,3.62 -21.64,-1.47 -3.78,-3.57 -2.83,-9.11 -1.4,-13.55 -5.09,-3.4 -10.49,-6.27 -15.85,-9.16 -2.24,6.98 -8.17,11.54 -13,16.67 29.07,9.62 57.16,24.33 78.36,46.78 13.95,14.22 24.87,32.82 25.71,53.11 0.18,19.31 -9.93,37.31 -23.58,50.42 5.49,1.58 10.05,4.89 12.73,10.02 -4.15,7.25 -12.42,10.38 -18.64,15.49 7.27,-0.44 14.58,-0.4 21.82,0.49 -0.55,5.16 -2.17,11.58 -8.8,10.91 -12.62,-1.98 -21.84,-13.07 -26.2,-24.44 -19.62,8.97 -41.4,12.06 -62.82,11.15 14.56,-4.44 28.73,-10.38 41.36,-18.98 8.46,-6.31 16.31,-13.42 22.57,-21.95 5.42,-8.58 9.34,-18.11 10.54,-28.25 1.93,-11.73 -2.05,-23.42 -8.72,-32.97 -8.04,-10.25 -18.55,-18.23 -29.48,-25.14 -16.07,-9.84 -33.38,-17.31 -50.83,-24.29 -19.62,-7.02 -39.42,-13.86 -59.86,-17.95 18.33,9.18 33.44,23.35 46.84,38.67 8.96,12.64 17.45,26.11 20.96,41.4 -1.94,-1.65 -3.56,-3.76 -5.82,-4.96 -15.71,-14.96 -33.8,-27.47 -52.2,-38.89 -11,-0.38 -22.76,0.38 -32.58,-5.55 -5.6,-2.89 -12.23,-9.45 -7.18,-15.92 -9.02,-4.84 -18.71,-8.73 -28.78,-10.64 -1.55,5.98 -4.82,11.73 -11.62,12.49 -9.33,0.15 -18.8,0.78 -27.91,-1.85 -4.4,-2.33 -7.67,-5.97 -9.49,-10.62 -19.91,5.09 -39.96,11.91 -56.78,23.98 -0.84,0.49 -2.51,1.44 -3.33,1.91 5.33,-8.24 11.95,-15.51 18.51,-22.8 -10.13,3.51 -21.11,6.13 -31.84,4.11 -3.27,-0.53 -7.16,-3.02 -6.32,-6.86 1.8,-9.09 9.76,-15.23 16.6,-20.72 7.56,-5.22 17.32,-11.73 26.71,-7.22 7.47,3.07 9.98,12.25 7.81,19.51 13.53,-10.31 29.26,-18 46.08,-21.04 24.43,-4.56 50.03,0.33 72.11,11.33 21.27,-2.04 42.76,-1.49 63.87,2 5.4,-9.49 15.33,-15.29 25.62,-18.18 -3.15,-1.22 -6.08,-3.82 -9.53,-3.77 -10.18,-4.74 -21.2,-7.29 -32.02,-9.98l-1.05 0.44c-13.31,-4.31 -27.42,-5.86 -41.26,-7.62 -13.98,-1.71 -28.07,-2.26 -42.09,-3.11l-0.85 0.4c-14.11,-0.44 -28.22,-1.4 -42.33,-0.67 -8.87,0.67 -17.78,-0.24 -26.62,0.78 -15.91,-0.02 -31.76,1.76 -47.6,3.2zm-494.6 14.33l0 0c-12.4,35.83 -5.14,75.47 8.29,109.98 8.38,0.69 16.78,0.22 25.18,0.34 -7.34,-13.85 -13.2,-28.56 -16.43,-43.94 10.54,13.8 22.47,26.65 36.96,36.38 4.98,3 9.53,8.24 15.86,7.62 12.6,-0.11 25.2,0 37.83,-0.11 -10.94,-4.93 -22.11,-9.82 -31.38,-17.62 8.71,-0.38 18.04,-0.07 26.04,-4.07 -34.35,-14.18 -61.24,-41.26 -85.4,-68.69 -6.02,-6.31 -10.55,-13.95 -16.95,-19.89zm160.91 74.12l0 0c18.53,5.73 38.31,12.75 51.58,27.44 -10,-0.93 -20.05,-0.78 -30.05,-0.51 7.03,3.09 14.2,5.73 21.18,8.96 13.96,0.73 27.98,0.19 41.98,0.22 -13.2,-10.78 -27.6,-20.07 -43,-27.36 -12.98,-5.91 -27.25,-10.67 -41.69,-8.75zm-324.67 355.6l0 0c20.76,0.15 41.49,-0.07 62.25,0.11 -43.47,161.49 -86.34,323.13 -130.11,484.53 -20.72,-0.24 -41.43,-0.09 -62.14,-0.09 -25.84,96.6 -51.66,193.22 -77.64,289.78 266.06,0.33 532.18,0.07 798.24,0.13 33.49,-125.2 67.4,-250.29 100.96,-375.46 -100.51,0 -201.02,-0.12 -301.51,0.04 -7.6,28.53 -15.58,56.96 -23.2,85.47 -32.27,0.02 -64.51,0.06 -96.78,-0.02 42.98,-160.74 86.18,-321.41 129.15,-482.14 0.38,-0.55 1.09,-1.64 1.45,-2.2 20.51,-0.29 41.04,-0.02 61.55,-0.11 24.45,-91.33 48.96,-182.64 73.41,-274 1.24,-5.36 3.53,-10.56 3.71,-16.11 -153.87,0.36 -307.74,0.07 -461.6,0.13 -26.18,96.58 -51.96,193.25 -77.74,289.94zm732.29 -223.05l0 0 -0.51 -0.31c-6.49,23.73 0.4,51.51 19.09,67.96 7.96,6.42 19.93,12.24 29.69,6.35 15.89,-7.95 32.86,-13.42 49.87,-18.44 12.82,-3.25 25.82,-5.85 38.93,-7.69 -10.27,-5.56 -19.98,-12.38 -30.89,-16.58 -4.82,11.2 -17.31,18.11 -29.38,15.93 -9.46,-1.26 -16.75,-8.31 -21.26,-16.31 -3.6,-8.95 -2.36,-19.22 3.44,-26.95 -4.2,-2.2 -8.36,-4.49 -12.42,-6.87 -7.07,-3.89 -14.11,-7.84 -21.22,-11.6 -3.54,-1.87 -7.12,-3.67 -10.74,-5.38 -6.69,5.02 -12.13,11.8 -14.6,19.89zm-64.24 8.94l0 0c-2.74,21.99 -1.38,47.42 14.78,64.33 12.95,13.78 32.73,18.22 51.02,16.46 -1.91,-2.82 -4.91,-4.57 -7.51,-6.64 -27.6,-20.73 -45.63,-53.27 -49.47,-87.49 -4.27,3.31 -8.8,7.51 -8.82,13.34zm498.86 -2.78l0 0c-3.02,0.97 -5.97,2.02 -8.8,3.37 -0.97,0.14 -2.95,0.38 -3.93,0.49 0.02,3.72 1.27,8.25 -2.11,10.96 -4.98,6.69 -16.4,3.53 -17.71,-4.6 -2.22,1.71 -4.91,2.51 -7.56,3.13 11,2.96 18.29,12.31 27.45,18.45 14.64,1.4 25.53,-17.91 18.42,-30.34 -0.75,-3 -3.73,-1.57 -5.76,-1.46zm-357.84 25.62l0 0c7.22,3.2 15.91,-4.42 13.58,-12.04 -3.33,3.35 -5.89,8.06 -10.98,8.93 1.07,-3.51 4.65,-6.62 4.02,-10.56 -2.27,-2.84 -6.15,-3.78 -9.11,-5.73 -6.95,4.58 -6.29,17.47 2.49,19.4zm331.27 -16.51l0 0c0.93,2.04 1.95,4.31 4.51,4.69 3.27,-0.67 4.2,-3.98 4.27,-6.89 -3.05,0.33 -5.98,1.06 -8.78,2.2zm-598.25 37.22l0 0c-2.62,5.04 -5.89,9.76 -8.11,15 -2.38,11.44 -5.93,22.6 -8.78,33.93 15.51,-0.31 31,0.87 46.49,1.67 -1.82,0.76 -5.47,2.27 -7.31,3.02 5.18,-4.69 7.67,1.67 5.56,4.71 -15.09,-2.84 -30.34,-4.89 -45.6,-6.33 -2.14,8.38 -4.45,16.71 -6.6,25.09 3.35,-2.02 6.93,-5.71 11.22,-3.8 8.75,2.64 11.22,13.04 11.47,21.09 0.15,6.15 -1.92,14.53 -9.05,15.8 -8.58,1.69 -15.69,-6.09 -18.78,-13.33 -5.24,18.39 -10.15,36.86 -15.04,55.35l5.55 -1.11c-1.57,1.02 -4.73,3.04 -6.31,4.07 -3.55,11.62 -5.82,23.62 -9.62,35.15 4.8,-6.33 10.67,-11.78 17.18,-16.33 5.89,-3.78 12.71,-8.65 20.07,-6.65 1.86,8.4 0.04,17.4 -4.38,24.74 -3.6,5.75 -11.07,6.17 -17.16,6.2 -5.64,-1.05 -11.4,-2.22 -16,-5.89 -0.82,2.51 -1.62,5.04 -2.4,7.58 -20.64,-0.14 -41.29,0.29 -61.91,-0.23 -10.09,36.58 -19.6,73.31 -29.62,109.94 -0.74,3.06 -1.89,6.15 -1.45,9.4 3.11,33.31 17.85,65.49 41.47,89.26 -23.4,-5.86 -42.13,-22.84 -54.84,-42.77 -2.58,9.44 -5.32,18.86 -7.63,28.4 2.25,3.73 4.43,7.53 5.83,11.71 1.42,9.2 -5,16.13 -11.92,21.04 6.89,1.56 13.72,3.36 20.49,5.29 2.6,-5.31 5.65,-10.38 9.16,-15.15 3.33,-0.12 4.91,3.24 7.29,4.93 2.42,4.98 4.38,10.18 1.75,15.55 9.16,2.71 17.94,6.67 27.31,8.54 -0.08,-4.89 -0.19,-9.82 1.2,-14.56 7.52,0.27 15.87,-0.22 21.41,5.91 2.95,5.82 3.51,12.34 3.08,18.78 12.05,4.13 23.51,9.78 35.43,14.27 7.93,-2.6 14.31,-8.89 22.84,-10.14 4.29,-0.33 9.45,0.98 9.93,6.07l-0.75 -0.78c-4.09,5.29 -13.56,6.16 -14.82,13.07 8.37,3.89 16.51,8.31 24.84,12.35 1.6,-4.93 3.93,-9.6 7.53,-13.39 6.52,-2.81 15.23,-0.54 15.25,7.77 -1.87,5.14 -4.56,9.89 -7.18,14.67 12,4.95 21.29,16.29 34.67,17.44 5.33,-18.24 32.73,-16.8 40.22,-0.88 8.62,-2.25 17.11,-5.03 25.02,-9.16 -2.62,-3.18 -5.6,-6.33 -6.46,-10.49 -0.07,-5.64 4.48,-9.42 8.28,-12.87 -8,-6.35 -15.88,-12.86 -24.11,-18.93 -6.69,4.11 -14.82,4.05 -21.4,-0.2l-0.91 -1.42 -1.8 -0.74c-1.22,-2.75 -2.44,-5.53 -3.69,-8.26 0.69,-1.87 2.07,-5.58 2.76,-7.45 -9.85,-6.93 -20.13,-13.17 -30.45,-19.33 0.29,5.36 0.94,10.69 1.94,15.98 0.24,3.27 -0.07,6.38 -0.96,9.38 -5.24,0.64 -10.02,-2.45 -14.47,-4.8 -9.15,-5.56 -18.71,-14.85 -16.73,-26.63 1.13,-2.66 2.25,-5.31 3.36,-7.95 -12.47,-5.11 -25.07,-10.67 -38.6,-12.05 -1.31,-0.04 -3.94,-0.17 -5.25,-0.24l2 -3.47 2.16 2.83c0.29,-3.49 -0.29,-9.83 5.11,-9.03 7.11,-6.29 14.76,-11.95 22.11,-17.95 -1.82,-0.31 -5.44,-0.96 -7.27,-1.29 5.83,-7.62 9.49,-17 16.8,-23.4 5.6,-5.31 16.16,-2.56 17.89,5.13 10.27,-7.29 21.03,-13.78 31.63,-20.51 -4.8,-1 -9,-3.53 -13.52,-5.29 1.69,-6.13 6.94,-10.09 11.69,-13.84 7.74,-5.65 16.49,-11.4 26.51,-10.67 1.78,5.18 0.58,10.6 -0.31,15.85 9.34,-5.09 18.74,-10.09 28.43,-14.49 -2.47,-1.52 -4.38,-3.51 -5.78,-6 4.44,-9.2 12.58,-16.07 21.84,-20.09 0.96,0.13 2.89,0.42 3.87,0.55 -0.76,4.11 0.95,5.71 5.13,4.78 -0.4,1.09 -1.18,3.27 -1.55,4.36l3.64 -0.23 -1.35 3.45c5.53,-2.02 11.06,-4.09 16.46,-6.47 2.4,-1.6 5,-2.71 7.8,-3.31 -2.33,-3.02 -3.22,-6.95 -5.98,-9.62 1.72,-6.62 6.52,-12.36 13.23,-14.25 -3.56,-5.37 -6.43,-11.2 -10.63,-16.13 -46.82,10.8 -93.84,25.56 -133.84,52.96 -22.8,15.88 -44.07,37.95 -49.13,66.24 -0.47,0.4 -1.38,1.2 -1.83,1.6 0.12,-5.53 0.36,-11.04 0.4,-16.55 2.76,-9.29 4.74,-18.94 9.56,-27.47 13.84,-26.09 38.33,-44.69 64.04,-58.18 33.85,-17.73 70.94,-28.47 108.32,-35.76 -0.16,-1.68 -0.49,-5.06 -0.65,-6.75 -23.82,1.2 -47.6,3.62 -71.2,7 -10.02,1.58 -20.47,1.91 -29.89,6 -4.73,2.07 -9.93,-0.04 -14.82,1.07 -33.98,6.09 -67.47,14.75 -100.13,25.93 31.42,-15.47 64.77,-26.69 98.37,-36.36 2.43,-11.48 13.8,-22.35 26.09,-19.75 5.34,0.93 8.09,5.91 9.25,10.73 12.44,-2.27 24.75,-5.18 37.29,-7.04 -1.63,-3.2 -4.43,-6.58 -3.14,-10.4 3.65,-12.62 20.49,-21.71 32.16,-13.63 5.04,5.92 3.42,13.72 -0.58,19.69 5.25,-0.46 10.49,-0.97 15.73,-1.57 0.07,-1.11 0.18,-3.34 0.25,-4.45 -7.05,-4.42 -9.51,-12.55 -11.76,-20.07 -1.09,-8.6 -1.11,-18.42 5.96,-24.62 -29.09,-1.95 -58.25,-3.42 -87.42,-2.95 -3.85,7.29 -8.76,15.42 -17.56,17.09 -6.75,1.66 -16.6,4.37 -21.29,-2.63 -2.13,-5.28 2.96,-9.6 5.53,-13.64 -4.06,0.18 -8.11,0.49 -12.13,1.13 -0.66,-1.04 -2,-3.15 -2.69,-4.2 0.36,1.07 1.03,3.22 1.38,4.29 -15.11,0.2 -30.09,2.36 -45.07,4.16l1.6 -2.98c14.67,-4 29.69,-6.4 44.63,-9.18 2.17,1.91 4.66,3.62 7.77,3.22 13.05,-0.97 26.07,-2.6 39.18,-2.57l1.27 -2.49c-11.96,0.62 -23.87,1.95 -35.71,3.58 -3.89,0.51 -8.69,1.31 -11.65,-1.98 9.91,-1.23 19.8,-2.62 29.71,-3.91 12.63,-3.03 25.74,-1.8 38.6,-3.29 -3.84,-5.36 -0.8,-12.54 5.49,-13.85 12.94,-2.91 27.23,2.45 36.18,12.02 6.51,0.14 13.02,0.34 19.53,0.87 -7.51,-9.6 -10.91,-22.62 -8.26,-34.58 1.64,-6.95 7.91,-11.55 14.8,-12.57 -23.89,-7.36 -48.02,-13.94 -72.36,-19.65 1.87,9.07 2.4,18.91 -1.4,27.56 -1.31,3.2 -4.69,6.13 -8.35,5.15 -10.56,-2.24 -18,-10.75 -25.27,-18.04 2.24,-7.07 5.36,-13.87 9.51,-20.02 -5.07,-1.14 -10.24,-1.94 -15.38,-2.6 2.63,-1.29 5.18,-3.72 8.38,-2.58 22.78,2.78 45.29,7.58 67.56,13.15 50.46,13.14 99.91,30.31 147.58,51.45 0.3,-3.02 4.33,-8.09 -0.58,-9.25 -56.85,-23.57 -116.34,-41.13 -177.03,-51.4 -3.55,1 -6.89,-1.89 -4.68,-5.06 7.39,1.26 14.84,2.42 22.28,3.51 -3.73,-4.98 -7.04,-11.02 -5.71,-17.49 2.07,-11.38 5.2,-22.51 7.98,-33.71l0.4 -0.16c2.62,-9.06 5.98,-17.95 10.89,-26.02 -31.04,19.8 -70.6,32.49 -106.58,18.8zm122.51 27.73l0 0c1.58,9.76 5.43,18.96 7.18,28.71 -0.42,3.07 -1.24,6.09 -2.4,8.98 9.07,1.96 18.07,4.18 27.09,6.4l-0.31 0.25c6.33,0.8 12.49,4.62 18.78,4.22 4.95,-7.71 10.31,-15.13 16.31,-22.07 -24,-2.44 -49.18,-8.78 -66.65,-26.49zm163.67 53l0 0c-4.42,14.98 -2.6,31.36 4.53,45.2 5.74,-9.37 15.63,-17.17 27.36,-14.53 -13.05,-7.4 -22.91,-18.91 -31.89,-30.67zm197.87 24.67l0 0c5.93,-0.56 8.02,-7.16 12.95,-9.71 3.38,-3.25 8.54,-1.78 12.27,-4.27 21.18,1.02 41.64,7.11 62.27,11.6l-0.63 -1.84c-14.15,-6.94 -28.42,-13.78 -43.57,-18.25 -3.74,-0.71 -7.98,-0.09 -11.2,-2.35 -1.74,0 -5.16,-0.02 -6.89,-0.02 -11.87,3.22 -26.38,10.08 -25.2,24.84zm106.75 -2.62l0 0c-0.95,0.71 -2.89,2.13 -3.84,2.84 3,0.85 6.09,1.05 9.24,0.58 10.16,-3.49 21.71,-1.53 32.05,0.93 6.29,1.51 10.11,7.65 9.2,14.03 5.46,-2.52 6.93,-8.45 6.69,-13.94 -6.87,-6.69 -16.23,-10.58 -25.87,-9.33 -9.62,-1.18 -18.2,3.69 -27.47,4.89zm-412.31 5.8l0 0c-1.58,8.8 -3.49,17.58 -3.8,26.55 12.13,1.36 24.29,2.23 36.38,3.94 2.13,-8.87 5.38,-17.4 9.15,-25.67 -7.02,-3.07 -14.13,-6 -21.51,-8.04 -6.93,0.04 -13.31,4.91 -20.22,3.22zm492.22 10.75l0 0c-3.22,9.98 -8.55,19.74 -17.44,25.72 -4.11,3.33 -10.07,4.68 -12.42,9.82 -5.14,9.46 -8.8,19.95 -16.31,27.95 -13.89,15.18 -31.56,26.16 -48.96,36.82 0.51,9.72 -1.42,19.47 -6.13,28.03 12.38,3.77 24.31,12.46 27.42,25.66 4.58,18.96 -2.2,38.4 -10.49,55.32 9.24,-4.01 17.8,-9.47 25.58,-15.89 27.91,-23.16 49.44,-54.12 60.75,-88.63 10.91,-33.82 10.89,-71.55 -2,-104.8zm-615.8 20.63l0 0 -1.13 2.28c52.87,-1.26 105.76,2.69 158.07,10.45 9.89,1.24 19.64,3.58 29.66,4.02 -0.02,-1.82 -0.06,-5.47 -0.06,-7.29 -61.56,-10.31 -124.29,-13.11 -186.54,-9.46zm644.05 19.97l0 0c-0.02,2.63 0,5.27 0,7.92 79.6,-9.18 160.55,-11.34 239.84,1.73 -35.17,-8.09 -71.24,-11.47 -107.22,-13.56 -44.22,-1.66 -88.62,-1.24 -132.62,3.91zm-502.45 -3.37l0 0c0.8,10.06 -1.69,26.86 -15.51,24.75 1.49,5.31 3.34,10.56 5.87,15.49 7.07,-0.62 14.15,-0.47 21.24,-0.51 -1.6,-12.65 -1.73,-25.44 -0.6,-38.13 -3.64,-0.74 -7.33,-1.27 -11,-1.6zm-104.86 56l0 0c-31.38,5.42 -62.96,11.4 -93.07,21.95 75.18,-19.47 153.18,-25.71 230.64,-25.09 -0.08,-2.51 -0.15,-5 -0.22,-7.49 -46,-0.91 -91.95,3.47 -137.35,10.63zm604.82 -2.32l0 0c-0.38,1.74 -1.16,5.16 -1.53,6.87 79.4,10.11 158.57,27.42 232.29,59.34 -18.85,-10.12 -38.89,-17.78 -58.89,-25.25 -50.72,-18.22 -103.2,-31.56 -156.47,-39.78 -5.09,-0.86 -10.27,-1.15 -15.4,-1.18zm-500.05 5.43l0 0c7.29,12.44 15.56,24.57 26.09,34.51 -4,-11.58 -8.15,-23.09 -10.84,-35.05 -5.09,0.25 -10.18,0.43 -15.25,0.54zm-29.53 21.11l0 0c5.18,11.33 10.96,22.4 16.29,33.69 5.89,-1.89 11.78,-3.83 17.67,-5.74 -1.14,-2.22 -2.98,-3.88 -4.98,-5.22 -10.09,-7.02 -19.51,-14.93 -28.98,-22.73zm255.49 49.98l0 0c2.36,4.15 7.35,5.29 11.62,6.55 16.76,3.78 34.18,3.36 51.22,2.05 19.34,-1.14 37.92,-8.89 57.49,-7.18 11.87,0.51 23.49,3.55 34.27,8.53 1.13,-8.51 2.45,-17.84 -1.47,-25.86 -15.8,-9.36 -34.42,-14.32 -52.82,-12.85 -31.84,14.27 -65.66,24.29 -100.31,28.76zm-390.62 61.42l0 0c-2.11,1.22 -3.98,2.73 -5.58,4.6 66.47,-38.6 139.22,-65.29 213.29,-85.09 -1.07,-2.51 -2.11,-5 -3.13,-7.49 -71.72,19.91 -141,49.22 -204.58,87.98zm649.6 -79.29l0 0c50.24,20.69 99.53,44.02 145.91,72.4 19.44,11.4 37.4,25.16 56,37.73 -20.78,-18.49 -43.98,-33.98 -67.24,-49.11 -41.32,-26.22 -84.85,-48.87 -129.98,-67.73 -1.58,2.22 -3.16,4.46 -4.69,6.71zm-490.18 19.2l0 0c16.18,37.56 31.67,75.58 42.22,115.15 6.56,25.03 13.51,50.18 24.85,73.54 7.44,15.15 17.15,30.18 31.86,39.11 15.78,9.91 36.14,8.58 52.87,1.82 18.42,-7.62 37.82,-13.07 57.67,-15.29 19.84,-2.44 39.88,-0.53 59.82,-1.46 9.2,-0.69 19.04,-2.85 25.98,-9.38 3.64,-3.25 3.86,-10.62 -1.51,-12.16 -8.85,-3.33 -16.94,3.43 -25.29,5.29 -9.2,2.78 -18.76,1.18 -27.98,-0.31 -27.58,6.85 -56.29,8.42 -84.49,5.2 -4.49,6.56 -10.53,12.24 -17.98,15.2 -15.84,1.33 -33.66,0.6 -46.09,-10.64 -9.29,-9.6 -12.62,-23.47 -13.49,-36.43 2.91,-1.2 5.83,-2.42 8.76,-3.66 -14.53,-19.58 -28.24,-40.07 -37.16,-62.89 -14.15,-34.29 -18.46,-73.42 -7.88,-109.31 -3,-1.38 -6.03,-2.76 -9.03,-4.11 -11.11,3.17 -22.15,6.64 -33.13,10.33zm58.8 -0.89l0 0c-14.93,52.8 4.84,109.36 38.11,150.96 2.34,4.53 7.05,0.29 10.16,-0.89 21.17,-11.2 32.69,-33.96 38.4,-56.29 12.68,15.2 17.11,35.15 22.11,53.87 34.11,2.53 68.86,-5.52 99.62,-20.21 1.71,-14.95 0.51,-30.31 -4.4,-44.57 -8.27,-24.67 -25.98,-45.31 -46.96,-60.27 -20.71,16.64 -27.11,44.78 -29.64,70 -31.22,-17.84 -47.87,-54.18 -49.31,-89.18 -8.2,0.23 -16.42,0.42 -24.6,0.74 -5.6,0.06 -4.93,7.4 -6.47,11.26 -5.46,35.31 4.6,70.56 13.47,104.47 -10.62,-8.47 -18.09,-20.33 -23.02,-32.84 -10.07,-26.14 -10.2,-54.89 -6.82,-82.34 -10.34,-0.73 -20.81,-1.27 -30.65,-4.71zm98.56 2.02l0 0c1.66,21 9.28,42.14 24.22,57.36 -3.54,-20.87 7.98,-40.25 19.84,-56.4 -14.51,2.82 -29.82,3.4 -44.06,-0.96zm-190.25 10.18l0 0c-6.78,2.49 -13.53,5.05 -20.29,7.51 -25.02,9.36 -49.62,19.8 -73.78,31.2 3.23,2.11 6.49,4.25 9.74,6.33 6.53,-2.15 15.66,-3.46 20.13,3.09 3.82,4.07 0.47,9.29 -0.55,13.76 20.46,18.73 37.22,41.22 52.62,64.2 1.95,-8.04 4.02,-19.98 14.33,-20.8 5.58,-1.38 11.31,4.29 9.22,9.91 -1.71,9.51 -9.44,16.13 -17.2,21.07 7.09,10.93 13.71,22.15 19.71,33.73 3.65,-6.35 9.83,-10.44 15.92,-14.2 5.62,8.27 7.17,18.56 11.86,27.38 -6.2,2.09 -12.73,2.64 -19.24,2.64 4.58,9.78 9.58,19.36 13.86,29.29 -4.17,9.74 -8.82,19.45 -15.91,27.45 24.4,27 60.09,42 96.12,44.02 -8.96,12.46 -21.89,21.8 -36.69,26.02 1.93,1.53 4.11,2.64 6.51,3.42 29.73,10.85 62.35,12.11 93.31,6.4 -5,11.58 -12.29,22.54 -23.38,29.05 39.78,-4.74 80.22,-15.47 113.31,-38.87 -1.31,11.71 -3.87,23.38 -9.22,33.98 44.87,-21.82 78.89,-66.16 84.4,-116.25 -10.73,2.14 -22.42,3.54 -32.47,-1.97 4.65,12.86 2.71,28.04 -7.11,38 0.31,-13.67 -9.26,-24.71 -20.66,-30.94 6.39,11.38 4.33,24.74 0.79,36.65 -13.33,-4.94 -20.51,-18.18 -24.15,-31.11 -2.67,17.11 -14.44,30.91 -27.45,41.53 5.27,-12 5.94,-25.65 1.83,-38.11 -7.78,17.18 -25.89,26.09 -42.89,31.66 5.09,-9.26 10.09,-19.04 10.31,-29.86 -10.42,10.86 -24.6,16.66 -38.31,22.18 5.62,-8.34 8.33,-18.34 7.49,-28.36 -31.07,4.24 -61.4,-13.27 -79.05,-38.11 0.16,4.62 0.18,9.29 0.09,13.93 -3.82,0.14 -7.49,-0.93 -11.11,-1.86 -1.75,-2.47 -6,-3.51 -5.62,-7.14l-3.03 0.85 1.63 -4.18c-0.91,-0.16 -2.74,-0.45 -3.65,-0.6l1.09 -3.36c-0.78,-0.29 -2.33,-0.86 -3.09,-1.15l1.05 -2.87 -3.74 1.2c0.52,-1.26 1.56,-3.8 2.07,-5.07l-3.58 0.69c1.69,-4.89 -2.93,-8.28 -2.6,-13.17 3.67,-5.03 8.07,-9.58 13.96,-11.89 -4.71,-12.58 -8.05,-25.65 -12.82,-38.18 -4.05,2.69 -8.45,4.82 -13.03,6.44 -1.31,-0.44 -3.93,-1.37 -5.26,-1.82 0.13,-10.07 5.78,-18.93 12.55,-25.95 -2.55,-8.6 -5.17,-17.16 -7.49,-25.83 -5.08,2.56 -10.69,4.43 -16.42,3.09l-0.09 -0.51 -0.64 -0.35c-1.98,-7.4 -5,-14.49 -6.6,-21.98 4.53,-3.27 9.75,-5.42 15.22,-6.58 -2.35,-7.24 -4.75,-14.47 -7.29,-21.64 -5.4,3.57 -11.75,5.64 -18.02,3 -1.42,-1.74 -2.09,-3.69 -2.02,-5.85l-2.71 1.11c0.15,-1.82 0.42,-5.46 0.55,-7.29l-2.64 0.56c-0.09,-1.69 -0.27,-5.07 -0.36,-6.76 2.71,-6.46 7.82,-14.62 15.74,-8.97 -2.27,-5.43 -4.56,-10.83 -7.01,-16.14 -6.15,1.96 -12.22,4.11 -18.24,6.38zm493.45 9.89l0 0c44.02,41.47 85.35,86.07 120.73,135.22 11.02,14.65 20.07,30.71 30.33,45.8 -18.57,-36.24 -42.51,-69.49 -67.55,-101.51 -23.96,-29.69 -49.14,-58.6 -77.25,-84.42 -2.13,1.6 -4.17,3.27 -6.26,4.91zm-110.07 4.09l0 0c-3.67,8.09 -5.22,17.02 -6.49,25.78 -0.67,9.53 -1.49,21.04 6.51,27.95 13.89,-13.35 22.4,-31.33 27.22,-49.8 -7.91,-4.42 -18.8,-9.33 -27.24,-3.93zm-560.49 70.4l0 0c-6.38,4.31 -13.47,8.02 -18.29,14.2 18.13,-3.18 36.85,-2.29 54.69,2.2 37.24,9.11 70.15,29.89 100.73,52.33 -7.46,-26.38 -17.95,-51.86 -30.91,-76.02 -2.73,3.47 -4.89,7.91 -9.29,9.58 -3.04,0.84 -5.91,-1.38 -7.42,-3.78 -6.69,-10.07 -6.87,-23.82 -0.82,-34.25 -2.2,-3.31 -4.62,-6.42 -7.13,-9.44 -27.89,13.73 -55.54,28.11 -81.56,45.18zm39.89 -28.91l0 0c1.22,1.33 1.22,1.33 0,0zm456.24 55.26l0 0c-4.8,15.56 -10.62,32.34 -24.2,42.45 5.65,6.15 10.34,13.11 14.05,20.6 8.78,-7.49 15.42,-17.85 17.02,-29.4 2.07,-11.65 -1.73,-23.31 -6.87,-33.65zm-142.15 6.96l0 0c-9.02,21.64 -25.69,40.11 -46.45,51.11 2.05,13.76 16.22,21.91 29.4,20.24 7.94,1.45 12.4,-5.75 15.85,-11.57 10.38,-18.07 9.71,-41.16 1.2,-59.78zm89.47 49.2l0 0c-2.63,-5.82 -2.58,-14.04 -8.69,-17.53 -7.56,1.33 -6,11.37 -8.58,16.91 -3.65,-5.8 -4.18,-17.07 -13.36,-15.78 -2.42,5.22 -3.46,10.91 -5.31,16.35 -2.31,-5.59 -3.78,-15.91 -11.82,-15.31 -5.36,4.16 -3.11,12.16 -6.56,17.43 -3.11,-5.63 -2.6,-13 -7.6,-17.49 -7.29,4.35 -8.91,14.11 -10.24,21.84 29.62,4.05 60.78,3.91 89.09,-6.66 -0.69,-7.14 -0.38,-16.14 -8.14,-19.58 -7.02,4.13 -4.11,13.8 -8.79,19.82z"/>
   <path class="fil2" d="M951 547.4c11.4,-3.27 21.62,-9.42 32.71,-13.42 -2.78,11.2 -5.91,22.33 -7.98,33.71 -1.33,6.47 1.98,12.51 5.71,17.49 -7.44,-1.09 -14.89,-2.25 -22.28,-3.51 -2.21,3.17 1.13,6.06 4.68,5.06 60.69,10.27 120.18,27.83 177.03,51.4 4.91,1.16 0.88,6.23 0.58,9.25 -47.67,-21.14 -97.12,-38.31 -147.58,-51.45 -22.27,-5.57 -44.78,-10.37 -67.56,-13.15 -3.2,-1.14 -5.75,1.29 -8.38,2.58 5.14,0.66 10.31,1.46 15.38,2.6 -4.15,6.15 -7.27,12.95 -9.51,20.02 7.27,7.29 14.71,15.8 25.27,18.04 3.66,0.98 7.04,-1.95 8.35,-5.15 3.8,-8.65 3.27,-18.49 1.4,-27.56 24.34,5.71 48.47,12.29 72.36,19.65 -6.89,1.02 -13.16,5.62 -14.8,12.57 -2.65,11.96 0.75,24.98 8.26,34.58 -6.51,-0.53 -13.02,-0.73 -19.53,-0.87 -8.95,-9.57 -23.24,-14.93 -36.18,-12.02 -6.29,1.31 -9.33,8.49 -5.49,13.85 -12.86,1.49 -25.97,0.26 -38.6,3.29 -9.91,1.29 -19.8,2.68 -29.71,3.91 2.96,3.29 7.76,2.49 11.65,1.98 11.84,-1.63 23.75,-2.96 35.71,-3.58l-1.27 2.49c-13.11,-0.03 -26.13,1.6 -39.18,2.57 -3.11,0.4 -5.6,-1.31 -7.77,-3.22 -14.94,2.78 -29.96,5.18 -44.63,9.18l-1.6 2.98c14.98,-1.8 29.96,-3.96 45.07,-4.16 -0.35,-1.07 -1.02,-3.22 -1.38,-4.29 0.69,1.05 2.03,3.16 2.69,4.2 4.02,-0.64 8.07,-0.95 12.13,-1.13 -2.57,4.04 -7.66,8.36 -5.53,13.64 4.69,7 14.54,4.29 21.29,2.63 8.8,-1.67 13.71,-9.8 17.56,-17.09 29.17,-0.47 58.33,1 87.42,2.95 -7.07,6.2 -7.05,16.02 -5.96,24.62 -0.91,1.6 -2.73,4.8 -3.64,6.4 -11.67,-8.08 -28.51,1.01 -32.16,13.63 -1.29,3.82 1.51,7.2 3.14,10.4 -12.54,1.86 -24.85,4.77 -37.29,7.04 -1.16,-4.82 -3.91,-9.8 -9.25,-10.73 -12.29,-2.6 -23.66,8.27 -26.09,19.75 -33.6,9.67 -66.95,20.89 -98.37,36.36 32.66,-11.18 66.15,-19.84 100.13,-25.93 4.89,-1.11 10.09,1 14.82,-1.07 9.42,-4.09 19.87,-4.42 29.89,-6 1.49,0.27 4.45,0.82 5.91,1.09 -20.13,9.44 -41.09,17.67 -59.55,30.33 -5.16,3.71 -10.4,7.33 -15.76,10.76 0.4,-6.91 -2.73,-15.98 -10.91,-16.25 -11.98,-0.35 -21.13,12.25 -21.18,23.45 -0.26,6.84 6.76,12.15 13.31,10.09 -3.35,9.09 -10.64,15.93 -14.31,24.86 -4.84,11.63 -9.2,24.02 -7.58,36.83 -0.04,5.51 -0.28,11.02 -0.4,16.55 0.45,-0.4 1.36,-1.2 1.83,-1.6 10.15,-5.78 16.51,-16.24 26.89,-21.76 12.77,-8.22 28,-11.73 43.08,-11.33 4.52,1.76 8.72,4.29 13.52,5.29 -10.6,6.73 -21.36,13.22 -31.63,20.51 -1.73,-7.69 -12.29,-10.44 -17.89,-5.13 -7.31,6.4 -10.97,15.78 -16.8,23.4 1.83,0.33 5.45,0.98 7.27,1.29 -7.35,6 -15,11.66 -22.11,17.95 -5.4,-0.8 -4.82,5.54 -5.11,9.03l-2.16 -2.83 -2 3.47c1.31,0.07 3.94,0.2 5.25,0.24 10.64,8.36 23.33,13.67 35.24,20 -1.98,11.78 7.58,21.07 16.73,26.63 4.45,2.35 9.23,5.44 14.47,4.8 0.89,-3 1.2,-6.11 0.96,-9.38 10.58,5.2 18.46,14.69 29.44,19.06l1.8 0.74 0.91 1.42c8.2,11.18 21.58,17.29 30.51,27.91 -0.2,0.8 -0.55,2.4 -0.73,3.2 -15.47,7.71 -33.53,7.18 -50.29,5.51 -10.13,-4.17 -18.78,-11.22 -28.53,-16.2 -0.02,-8.31 -8.73,-10.58 -15.25,-7.77 -5.64,-3.69 -12.06,-6.34 -16.8,-11.25 -0.48,-5.09 -5.64,-6.4 -9.93,-6.07 -9.02,0.43 -16.73,-4.95 -24.84,-8.06 -11.94,-5.56 -24.63,-9.27 -36.51,-14.85 -5.54,-6.13 -13.89,-5.64 -21.41,-5.91 -8.93,-5.89 -19.71,-8.53 -30.26,-9.53 -2.38,-1.69 -3.96,-5.05 -7.29,-4.93 -5.16,-0.56 -10.25,-1.47 -15.2,-2.96 -0.84,-2.78 -1.62,-5.51 -2.53,-8.22 -1.4,-4.18 -3.58,-7.98 -5.83,-11.71 2.31,-9.54 5.05,-18.96 7.63,-28.4 12.71,19.93 31.44,36.91 54.84,42.77 -23.62,-23.77 -38.36,-55.95 -41.47,-89.26 -0.44,-3.25 0.71,-6.34 1.45,-9.4 10.02,-36.63 19.53,-73.36 29.62,-109.94 0.93,0.54 2.8,1.65 3.73,2.2 -1.24,5.76 -3.64,11.18 -5.57,16.74 9.37,-2.2 18.17,-9.98 28.13,-7.6 -2.93,5.2 -5.67,10.69 -6.45,16.66 -0.68,3.36 0.27,7.71 4.32,8.11 2.02,-0.73 6.02,-2.22 8.04,-2.97 0.82,8.31 -3.78,15.75 -5.35,23.69 -5.27,18.13 -3.89,37.22 -3.43,55.86 0.34,10.98 6,21.45 4.43,32.49 -5.54,-4.31 -12.69,-3.04 -19.18,-3.26 -0.98,7.77 -3.8,17.53 2.6,23.75 4.71,4.47 11.98,7.96 18.44,5.58 5.67,-6.33 4.49,-15.93 1.05,-23.07 -3.07,-33.04 1.46,-67.35 16.2,-97.29 7.84,-19.37 20.95,-35.8 33.35,-52.35 6.09,-0.03 13.56,-0.45 17.16,-6.2 4.42,-7.34 6.24,-16.34 4.38,-24.74 -7.36,-2 -14.18,2.87 -20.07,6.65 -6.51,4.55 -12.38,10 -17.18,16.33 3.8,-11.53 6.07,-23.53 9.62,-35.15 1.58,-1.03 4.74,-3.05 6.31,-4.07l-5.55 1.11c4.89,-18.49 9.8,-36.96 15.04,-55.35 3.09,7.24 10.2,15.02 18.78,13.33 7.13,-1.27 9.2,-9.65 9.05,-15.8 -0.25,-8.05 -2.72,-18.45 -11.47,-21.09 -4.29,-1.91 -7.87,1.78 -11.22,3.8 2.15,-8.38 4.46,-16.71 6.6,-25.09 15.26,1.44 30.51,3.49 45.6,6.33 2.11,-3.04 -0.38,-9.4 -5.56,-4.71 1.84,-0.75 5.49,-2.26 7.31,-3.02 -15.49,-0.8 -30.98,-1.98 -46.49,-1.67 2.85,-11.33 6.4,-22.49 8.78,-33.93 12.09,3.87 24.51,6.53 36.78,9.78 1.13,7.4 9.24,11.8 16.22,10.44 7.96,-1.35 13.87,-7.71 17.69,-14.42zm-81.4 362.98c26.02,-17.07 53.67,-31.45 81.56,-45.18 2.51,3.02 4.93,6.13 7.13,9.44 -6.05,10.43 -5.87,24.18 0.82,34.25 1.51,2.4 4.38,4.62 7.42,3.78 4.4,-1.67 6.56,-6.11 9.29,-9.58 12.96,24.16 23.45,49.64 30.91,76.02 -30.58,-22.44 -63.49,-43.22 -100.73,-52.33 -17.84,-4.49 -36.56,-5.38 -54.69,-2.2 4.82,-6.18 11.91,-9.89 18.29,-14.2zm670.56 -74.49c2.09,-1.64 4.13,-3.31 6.26,-4.91 28.11,25.82 53.29,54.73 77.25,84.42 25.04,32.02 48.98,65.27 67.55,101.51 -10.26,-15.09 -19.31,-31.15 -30.33,-45.8 -35.38,-49.15 -76.71,-93.75 -120.73,-135.22zm29.62 -40.4c1.53,-2.25 3.11,-4.49 4.69,-6.71 45.13,18.86 88.66,41.51 129.98,67.73 23.26,15.13 46.46,30.62 67.24,49.11 -18.6,-12.57 -36.56,-26.33 -56,-37.73 -46.38,-28.38 -95.67,-51.71 -145.91,-72.4zm-649.6 79.29c63.58,-38.76 132.86,-68.07 204.58,-87.98 1.02,2.49 2.06,4.98 3.13,7.49 -74.07,19.8 -146.82,46.49 -213.29,85.09 1.6,-1.87 3.47,-3.38 5.58,-4.6zm664.71 -137.94c5.13,0.03 10.31,0.32 15.4,1.18 53.27,8.22 105.75,21.56 156.47,39.78 20,7.47 40.04,15.13 58.89,25.25 -73.72,-31.92 -152.89,-49.23 -232.29,-59.34 0.37,-1.71 1.15,-5.13 1.53,-6.87zm-604.82 2.32c45.4,-7.16 91.35,-11.54 137.35,-10.63 0.07,2.49 0.14,4.98 0.22,7.49 -77.46,-0.62 -155.46,5.62 -230.64,25.09 30.11,-10.55 61.69,-16.53 93.07,-21.95zm607.31 -52.63c44,-5.15 88.4,-5.57 132.62,-3.91 35.98,2.09 72.05,5.47 107.22,13.56 -79.29,-13.07 -160.24,-10.91 -239.84,-1.73 0,-2.65 -0.02,-5.29 0,-7.92zm-644.05 -19.97c62.25,-3.65 124.98,-0.85 186.54,9.46 0,1.82 0.04,5.47 0.06,7.29 -10.02,-0.44 -19.77,-2.78 -29.66,-4.02 -52.31,-7.76 -105.2,-11.71 -158.07,-10.45l1.13 -2.28zm74.78 -83.52c9.2,6 20.49,6.47 30.13,11.03 -1.35,1.09 -4.08,3.26 -5.44,4.35 -9.02,-2.22 -18.02,-4.44 -27.09,-6.4 1.16,-2.89 1.98,-5.91 2.4,-8.98zm166.69 -77.64c10.91,4.2 20.62,11.02 30.89,16.58 -13.11,1.84 -26.11,4.44 -38.93,7.69 -6.25,-4.71 -13.58,-7.51 -21.34,-8.34 12.07,2.18 24.56,-4.73 29.38,-15.93zm210.67 -9.8c7.66,5.67 15.51,11.16 22.31,17.87l0.47 0.44c-3.03,4.36 -3,9.49 -1.74,14.42 -6.91,-5.64 -13.53,-11.62 -20.87,-16.73 1.47,-5.27 0.76,-10.69 -0.17,-16zm-270.29 -24.4c4.06,2.38 8.22,4.67 12.42,6.87 -5.8,7.73 -7.04,18 -3.44,26.95 -6.47,-2.82 -12.69,-6.18 -18.45,-10.26 0.71,-8.63 4.33,-16.67 9.47,-23.56zm253.73 -10.16c10.6,4.85 20.69,10.76 30.6,16.92 0.07,9.11 9.36,12.82 17.25,11.57 24.49,17.31 47.68,36.98 67.22,59.76 -8.22,-1.87 -14.74,-7.58 -22.49,-10.53 -8.91,-3.52 -18.33,-5.34 -27.62,-7.49 0.06,-3.58 -0.16,-7.16 -0.69,-10.67 -1.76,-7.91 -8.22,-17.91 -17.69,-14.29 -0.36,0.25 -1.07,0.76 -1.42,1.02 -7.54,-8.8 -17.47,-14.93 -26.94,-21.4 -8.26,-5.44 -16.33,-11.42 -25.77,-14.64 0.35,-0.49 1.08,-1.44 1.44,-1.91 2.09,-2.74 4.13,-5.51 6.11,-8.34zm-300.29 13.07c2.47,-8.09 7.91,-14.87 14.6,-19.89 3.62,1.71 7.2,3.51 10.74,5.38 -4.69,7.33 -8.03,15.51 -8.87,24.22 -5.53,-3.17 -11.05,-6.4 -16.47,-9.71zm38.69 -83.4c20.87,3.8 37.36,19.78 58.16,24.27 6.57,1.15 12.4,4.75 15.71,10.66 -7.11,-3.4 -13.69,-7.95 -21.11,-10.66 -3.74,-1.29 -10.03,-0.82 -10.76,4.02 -1.15,8.73 4.18,16.8 9.42,23.31 -2.84,0.11 -5.8,0.29 -8.31,-1.26 -9.6,-4.69 -18.84,-10.03 -28.55,-14.45 2.31,-4.04 4.46,-8.2 6.49,-12.4 -4.69,-9.62 -12.54,-17.2 -21.05,-23.49zm-446.31 -49.15c14.44,-1.92 28.71,2.84 41.69,8.75 15.4,7.29 29.8,16.58 43,27.36 -14,-0.03 -28.02,0.51 -41.98,-0.22 -6.98,-3.23 -14.15,-5.87 -21.18,-8.96 10,-0.27 20.05,-0.42 30.05,0.51 -13.27,-14.69 -33.05,-21.71 -51.58,-27.44zm-160.91 -74.12c6.4,5.94 10.93,13.58 16.95,19.89 24.16,27.43 51.05,54.51 85.4,68.69 -8,4 -17.33,3.69 -26.04,4.07 9.27,7.8 20.44,12.69 31.38,17.62 -12.63,0.11 -25.23,0 -37.83,0.11 -6.33,0.62 -10.88,-4.62 -15.86,-7.62 -14.49,-9.73 -26.42,-22.58 -36.96,-36.38 3.23,15.38 9.09,30.09 16.43,43.94 -8.4,-0.12 -16.8,0.35 -25.18,-0.34 -13.43,-34.51 -20.69,-74.15 -8.29,-109.98zm593.49 -135.48c24.95,5.24 47,19.15 67.4,33.93 29.69,22.33 56.91,48.49 78.58,78.73 -19.36,-7.69 -40.32,-8.73 -60.58,-12.55 -14.09,-15.89 -28.09,-32.67 -46.2,-44.36 7.95,12.51 14.02,26.22 17.29,40.69 -13.05,-1.44 -26.07,-3.38 -39.18,-3.96 0.98,-31.62 -5.76,-63.15 -17.31,-92.48zm-10.71 130.33c2.24,-0.36 4.53,-0.42 6.8,-0.27 3.73,1.05 7.51,2.34 11.46,2.29 18.67,0.2 37.4,-1.11 56.03,0.91 3.17,0.47 6.31,-0.38 9.39,-1.09 5.41,-0.4 10.85,-0.35 16.27,-0.46 -0.26,0.95 -0.8,2.84 -1.06,3.77 15.64,-0.26 31.15,4.76 46.75,2.23 3.45,-0.05 6.38,2.55 9.53,3.77 -10.29,2.89 -20.22,8.69 -25.62,18.18 -21.11,-3.49 -42.6,-4.04 -63.87,-2 -22.08,-11 -47.68,-15.89 -72.11,-11.33 -16.82,3.04 -32.55,10.73 -46.08,21.04 2.17,-7.26 -0.34,-16.44 -7.81,-19.51 -9.39,-4.51 -19.15,2 -26.71,7.22 -6.84,5.49 -14.8,11.63 -16.6,20.72 -0.84,3.84 3.05,6.33 6.32,6.86 10.73,2.02 21.71,-0.6 31.84,-4.11 -6.56,7.29 -13.18,14.56 -18.51,22.8 0.82,-0.47 2.49,-1.42 3.33,-1.91 13.8,-2.73 27.25,-6.98 41.14,-9.31 8.33,-1.62 16.93,-1.65 25.13,-4.05 9.11,2.63 18.58,2 27.91,1.85 5.05,0.87 9.89,2.6 14.6,4.6 23.87,10.67 47.31,22.31 71.11,33.18 15.42,7.15 30.27,15.86 46.65,20.73 2.26,1.2 3.88,3.31 5.82,4.96 -3.51,-15.29 -12,-28.76 -20.96,-41.4 9.31,-0.23 17.76,6.8 26.94,4.73 0.66,0.15 2,0.49 2.66,0.67l-3.06 1c7.77,4.6 16.51,7.17 24.37,11.64 8.23,4.33 15.09,10.76 22.92,15.73l-0.76 0.76c-6.22,7.27 1.91,15.07 8.44,18.18 1.65,1 3.32,1.95 5.05,2.86 -2.65,7.65 -1.82,15.98 -4.13,23.71 -4.52,-4.57 -12,-7.53 -17.45,-2.64 -8.4,7.71 -8.62,22.89 -0.98,31.2 1.25,1.02 3.71,3.04 4.94,4.04 -12.63,8.6 -26.8,14.54 -41.36,18.98 21.42,0.91 43.2,-2.18 62.82,-11.15 4.36,11.37 13.58,22.46 26.2,24.44 6.63,0.67 8.25,-5.75 8.8,-10.91 6.98,1.36 13.82,3.38 20.49,5.91 -3.07,1.07 -5.95,2.47 -8.69,4.13 0.74,2.23 2.23,6.72 2.98,8.94 -24.51,-10.27 -51.91,-4 -75.15,6.55 -2.65,-9.84 -9.76,-19.13 -19.7,-22.29 -9.84,-1.93 -14.5,9.49 -14.99,17.45 -5.54,-3.33 -11.05,-6.76 -15.85,-11.11 9.42,-5.22 7.47,-18.71 2.47,-26.4 -6.71,-10.45 -21.71,-12.34 -31.71,-5.67 1.37,6.07 4.46,11.53 8.46,16.27 -0.91,0.42 -2.71,1.24 -3.62,1.66 -8.98,-4.71 -17.58,-10.17 -26.29,-15.35 11.14,-4.71 10.78,-18.42 5.4,-27.42 7.49,3.09 14.36,7.55 22.13,10 -11.44,-16.25 -29.5,-26.14 -43.97,-39.45 6.02,0.63 14.87,3.51 18.89,-2.66 2.26,-7.45 -1.09,-15.36 -5.45,-21.34 -4.24,-5.53 -11.8,-12.6 -19.06,-8 -6.14,5.05 -10.12,12.16 -13.85,19.02 5.33,3.92 10.71,7.76 16.09,11.6 -11.78,-0.66 -16.29,-12.93 -25.96,-17.6 -17.06,-9.75 -35.22,-18.22 -54.68,-21.77 -9.23,-1.78 -18.65,-0.14 -27.92,0.17 7.63,-6.4 9.54,-17.68 5.89,-26.73 -10.13,-0.04 -20.77,2.05 -29.04,8.2 -3.45,2.69 -7.6,7.62 -4.2,11.93 5.27,7.52 15.64,9.56 24.22,8.03 -1.76,2.11 -3.38,4.33 -5,6.53 9.2,3.2 18.98,4.45 28.16,7.76 11.24,3.93 22.29,8.46 33.31,12.95 -0.31,0.49 -0.98,1.42 -1.31,1.91 -6.89,7.89 -3.71,19.42 1.62,27.25 -12.16,0.06 -22.67,-7.94 -34.47,-10.36 0.31,-1.04 0.89,-3.11 1.2,-4.15 4.51,-2.05 5.91,-7.69 3.11,-11.71 -1.98,-5.61 -8.44,-6.21 -13.49,-6.07 -10.68,0.53 -22.71,2.89 -29.48,12.02 -6.58,0.16 -13.18,0.11 -19.74,-0.11 -1.73,-2.16 -2.8,-5.91 -6.2,-5.76 -14.02,2.16 -25.29,11.69 -36.09,20.2 -8.29,4.8 -16.11,10.31 -23.73,16.09 -8.02,-2.6 -15.44,3.09 -20.71,8.49 -6.8,7.25 -12.87,16.51 -12.53,26.8 -0.14,4.31 3.62,9.29 8.31,6.69 10.84,-4.47 19.11,-13.62 25.55,-23.18 12.18,0.8 26.05,-3.2 36.56,4.85 -15.07,17.2 -34.25,31.29 -56.11,38.46 -0.94,0.16 -2.78,0.47 -3.71,0.63 -8.58,0.71 -17.23,0.31 -25.81,-0.09 1.85,-6.05 4.32,-12.27 3.45,-18.71 0.42,-4.63 -4.47,-4.56 -7.67,-4.4 5.07,-19.27 10.36,-38.49 15.38,-57.76 7.78,6.58 17.6,2.27 24.82,-2.84 6,-4.09 12.47,-9.36 13.91,-16.89 0.72,-4.56 -4.55,-6.91 -8.28,-6.67 -9.58,1.09 -18.36,5.49 -26.27,10.76 1.38,-4.67 2.2,-9.56 4.38,-13.98 7.86,-9.07 16.26,-17.67 24.4,-26.49 9.02,-2.76 16.26,-9.33 21.4,-17.07 3.71,-4.66 -0.89,-10 -5.18,-12.02 -5.93,-2.82 -12.58,-0.44 -18.22,1.89 -7.54,3.55 -15.38,8.69 -18.16,16.95 -1.73,4.38 1.87,8.07 4.89,10.67 -20.13,4.89 -39.69,12.8 -56.84,24.51 -2.4,1.98 -5.67,1.2 -8.47,1.4 -14.8,-0.22 -29.58,0.2 -44.33,-0.24 11.59,-5.62 23.75,-10.16 36.15,-13.76 -5.24,-1.26 -10.67,-1.18 -16,-1.42 1.91,-4.36 6.31,-9.09 3.91,-14.16 -3,-5.22 -9.71,-6.22 -15.13,-5.17 -13.2,2.26 -29.27,6.89 -32.51,21.93 -6.96,-4.84 -14.03,-9.53 -21.38,-13.76 11.75,-7.13 23.93,-13.51 35.87,-20.35l-2.31 -1.07c3.31,-1.66 6.64,-3.31 9.95,-5.02 3.4,1 6.69,-0.4 9.76,-1.78 13.37,-6.09 26.91,-11.95 40.86,-16.64 4,-1.25 7.6,-3.47 11.14,-5.71 2.42,-1.03 4.88,-1.96 7.37,-2.8 9.47,0.57 18,-4.34 27.05,-6.27 6.09,-2.02 13.58,-2.09 17.82,-7.62 6.33,-1.05 12.76,-2 18.82,-4.25 4.14,1.87 8.6,0.87 12.83,-0.04 28.91,-6.53 58.44,-9.51 87.86,-12.76 12.09,-1.51 24.78,0.4 36.25,-4.64zm-213.69 60.53l0 0c-7.56,4.62 -15.54,11.18 -17.03,20.42 -1.06,6.18 6.03,10.47 11.43,8.65 14.22,-3.31 28.89,-13.56 31.58,-28.73 -6.67,-8.03 -18.29,-5.32 -25.98,-0.34zm228.4 10.54l0 0c-7.36,1.2 -14.96,6.35 -15.74,14.28 -1.4,4.72 2.2,9.07 6.43,10.63 6.82,2.29 14.97,2.15 20.93,-2.34 7.27,-5.13 16.31,-7.31 23.04,-13.22 -0.17,-0.82 -0.53,-2.42 -0.71,-3.24 -10.2,-5.6 -22.46,-7.74 -33.95,-6.11zm-111.69 12.8l0 0c-6.96,2.57 -13.82,6.44 -17.91,12.82 -3.71,5.89 -2.16,14.13 2.82,18.78 4.07,3.97 9.47,-0.25 13.09,-2.74 4.95,-4.53 11.89,-8.11 13.55,-15.13 1.05,-4.36 2.27,-9.96 -1.51,-13.33 -2.86,-2.49 -6.86,-1.65 -10.04,-0.4zm233.67 40.02l0 0c-8.36,7.31 -12.36,19.26 -11.09,30.22 1.57,6.38 8.8,8.91 14.73,8.62 8.2,-0.75 16.27,-2.64 24.27,-4.46 0.51,-0.63 1.51,-1.87 2,-2.49 -1.4,-11.2 -9.65,-20.25 -17.49,-27.8 -3.45,-2.34 -8.18,-7.56 -12.42,-4.09zm36.06 -103.96c5.36,2.89 10.76,5.76 15.85,9.16 -1.43,4.44 -2.38,9.98 1.4,13.55 6.02,5.09 14.66,2.98 21.64,1.47 3.02,2.16 6.02,4.38 8.98,6.64 -2.54,5.07 -0.73,11.65 4.56,14.07 4.62,1.6 9.6,1.2 14.42,1.27 9.86,8.27 19.55,16.78 29.22,25.31 -6.31,0.73 -10.87,7.8 -7.73,13.64 4.24,7.76 14.64,5.8 21.95,5.09 1.18,-3.89 2.18,-7.84 3.2,-11.77 -3.22,-2.47 -6.87,-4.23 -10.6,-5.67 -0.33,-2.98 -0.64,-5.98 -0.93,-8.96 11.38,4.58 22.18,10.45 32.2,17.51 -7.76,10.03 -12.67,22.36 -12.18,35.16 4.62,-5.71 9.84,-10.85 15.33,-15.71 8.07,10.15 22.89,14.8 34.96,9.53 -3.29,-8.69 -9.64,-16.09 -17.78,-20.58 7.2,-3.84 14.8,-6.89 22.56,-9.44 5.22,7.91 9.89,16.18 15.06,24.13 5.65,-6.18 7.03,-14.95 6.67,-23.02 3.76,3.09 7.6,6.07 11.49,9.02l0.11 0.91c-0.02,11.87 8.51,25.36 20.91,27.07l-0.11 -3.44c0.49,0.69 1.47,2.06 1.98,2.75 8.09,15.33 14.58,31.62 18.38,48.58 -10.34,-4.29 -17.89,5.55 -19.25,14.73 -4.53,1.76 -9.11,3.38 -13.66,5.02 0.93,-10.06 -10.38,-12.93 -17.94,-9.24 10.16,-12.09 23.27,-21.82 38.47,-26.47 -16.31,-7.02 -36.11,-1.73 -48.98,10 -6.67,-7.57 -15.69,-12.66 -25.02,-16.22 -2.36,-1.18 -6.58,0.09 -6.38,3.25 -0.13,12.35 10.78,21.44 21.82,24.66 -3.44,6.03 -6.55,12.22 -9.13,18.65 -17.29,-14.36 -36.13,-29.18 -58.91,-32.94 -3.65,-10.02 -4.65,-20.77 -5.09,-31.35 -8.27,12.95 -11.62,28.51 -10.98,43.75 -1.84,2.25 -3.69,4.49 -5.42,6.8 -0.33,0.47 -0.98,1.4 -1.31,1.87 -3.05,-0.56 -6.09,-1.07 -9.07,-1.67l-0.47 -0.11c-2.68,-5.13 -7.24,-8.44 -12.73,-10.02 13.65,-13.11 23.76,-31.11 23.58,-50.42 -0.84,-20.29 -11.76,-38.89 -25.71,-53.11 -21.2,-22.45 -49.29,-37.16 -78.36,-46.78 4.83,-5.13 10.76,-9.69 13,-16.67zm181.09 134.45l0 0c5.18,2.82 11.62,2.78 17.27,1.53 4.04,-2.47 3.13,-8.16 4.58,-12.13 -5.6,-4.18 -12.67,-6.76 -19.71,-6 -7.43,1.82 -8.45,12.84 -2.14,16.6zm-57.69 -14.14l0 0c-2.6,10.56 1.45,24.4 13.07,27.31 6.33,2.85 14.47,-4.35 11.09,-10.91 -4.4,-9.17 -14.51,-14.53 -24.16,-16.4zm-471.49 175.51l0 0c4.11,5.58 11.36,3.36 17.2,4.38 1.63,-1.18 3.25,-2.35 4.87,-3.53 -7.38,0.27 -14.71,-1.73 -22.07,-0.85zm25.45 1.58l0 0c-1.6,1.29 -3.2,2.6 -4.8,3.91 4.8,0.14 9.6,0.54 14.38,1.23 1.62,-1.2 3.24,-2.4 4.88,-3.6 -4.86,-0.23 -9.66,-0.69 -14.46,-1.54zm-184.67 209l0 0c-5.11,7.74 -6.67,17.16 -7.47,26.25 1.07,0.33 3.2,1.02 4.29,1.35 9.69,-3.09 17.76,-10.98 21.27,-20.51 1.58,-4.22 1.69,-10.42 -3.18,-12.49 -5.47,-1.69 -11.89,0.47 -14.91,5.4zm67 33.58l0 0c-6.11,4.78 -14.09,10.18 -14.24,18.8 -0.98,6.85 2.84,16.89 11.24,15.73 7.02,-1.44 16.38,-3.6 18.91,-11.26 -1.38,-7.58 -4.02,-15.09 -8.24,-21.56 -1.51,-2.84 -5.14,-3.8 -7.67,-1.71zm-0.09 104.27l0 0c-6.04,8.26 -6.06,19.02 -9.53,28.38 13,0.6 25.53,-12 27.11,-24.85 -0.09,-9.24 -13.02,-9.69 -17.58,-3.53z"/>
   <path class="fil3" d="M346.33 697.16c25.78,-96.69 51.56,-193.36 77.74,-289.94 153.86,-0.06 307.73,0.23 461.6,-0.13 -0.18,5.55 -2.47,10.75 -3.71,16.11 -24.45,91.36 -48.96,182.67 -73.41,274 -20.51,0.09 -41.04,-0.18 -61.55,0.11 -0.36,0.56 -1.07,1.65 -1.45,2.2 -42.97,160.73 -86.17,321.4 -129.15,482.14 32.27,0.08 64.51,0.04 96.78,0.02 7.62,-28.51 15.6,-56.94 23.2,-85.47 100.49,-0.16 201,-0.04 301.51,-0.04 -33.56,125.17 -67.47,250.26 -100.96,375.46 -266.06,-0.06 -532.18,0.2 -798.24,-0.13 25.98,-96.56 51.8,-193.18 77.64,-289.78 20.71,0 41.42,-0.15 62.14,0.09 43.77,-161.4 86.64,-323.04 130.11,-484.53 -20.76,-0.18 -41.49,0.04 -62.25,-0.11zm441.36 466.57c6.18,-1.49 12.58,-0.77 18.87,-0.86 45.26,-0.03 90.53,0.04 135.77,-0.05 2.56,-0.09 5.02,0.4 7.36,1.47 -9.71,7.29 -19.2,14.82 -28.76,22.31 -38.2,-0.18 -76.38,-0.13 -114.57,-0.02 -8.8,33.62 -18.18,67.11 -26.83,100.78 -94.11,0.22 -188.22,0.04 -282.31,0.09l0.31 -1.43c9.36,-7.33 18.85,-14.49 28.14,-21.89 78.31,0.14 156.64,-0.24 234.95,0.2 9.62,-33.35 18.27,-67.02 27.07,-100.6zm361.11 -101.17l0.58 -0.67c4.22,3.47 8.71,6.58 13.51,9.18 0.11,1.46 0.31,4.38 0.4,5.82 -1.31,2.33 -2.71,4.62 -4.18,6.87 -0.56,0.53 -1.69,1.57 -2.27,2.08 -4.97,-1.53 -9.97,-3.04 -14.93,-4.6 0.71,-6.73 3.02,-13.13 6.89,-18.68zm-197.07 -71.16c6.58,4.25 14.71,4.31 21.4,0.2 8.23,6.07 16.11,12.58 24.11,18.93 -3.8,3.45 -8.35,7.23 -8.28,12.87 0.86,4.16 3.84,7.31 6.46,10.49 -7.91,4.13 -16.4,6.91 -25.02,9.16 -7.49,-15.92 -34.89,-17.36 -40.22,0.88 -13.38,-1.15 -22.67,-12.49 -34.67,-17.44 2.62,-4.78 5.31,-9.53 7.18,-14.67 9.75,4.98 18.4,12.03 28.53,16.2 16.76,1.67 34.82,2.2 50.29,-5.51 0.18,-0.8 0.53,-2.4 0.73,-3.2 -8.93,-10.62 -22.31,-16.73 -30.51,-27.91zm-81.84 0.62l0.75 0.78c4.74,4.91 11.16,7.56 16.8,11.25 -3.6,3.79 -5.93,8.46 -7.53,13.39 -8.33,-4.04 -16.47,-8.46 -24.84,-12.35 1.26,-6.91 10.73,-7.78 14.82,-13.07zm206.67 -10.22c0.35,-0.2 1.04,-0.62 1.4,-0.82 5.77,-1.07 13.44,-3.05 17.51,2.71 6.4,8.69 2.95,21.56 -6.74,26.15l-0.31 -0.66c-4.69,-8.82 -6.24,-19.11 -11.86,-27.38zm-277.2 -17.98c11.88,5.58 24.57,9.29 36.51,14.85 8.11,3.11 15.82,8.49 24.84,8.06 -8.53,1.25 -14.91,7.54 -22.84,10.14 -11.92,-4.49 -23.38,-10.14 -35.43,-14.27 0.43,-6.44 -0.13,-12.96 -3.08,-18.78zm118.28 -9.62c10.32,6.16 20.6,12.4 30.45,19.33 -0.69,1.87 -2.07,5.58 -2.76,7.45 1.25,2.73 2.47,5.51 3.69,8.26 -10.98,-4.37 -18.86,-13.86 -29.44,-19.06 -1,-5.29 -1.65,-10.62 -1.94,-15.98zm-169.95 -5.82c10.55,1 21.33,3.64 30.26,9.53 -1.39,4.74 -1.28,9.67 -1.2,14.56 -9.37,-1.87 -18.15,-5.83 -27.31,-8.54 2.63,-5.37 0.67,-10.57 -1.75,-15.55zm-25.02 -16.11c0.91,2.71 1.69,5.44 2.53,8.22 4.95,1.49 10.04,2.4 15.2,2.96 -3.51,4.77 -6.56,9.84 -9.16,15.15 -6.77,-1.93 -13.6,-3.73 -20.49,-5.29 6.92,-4.91 13.34,-11.84 11.92,-21.04zm129.51 -4.14c13.53,1.38 26.13,6.94 38.6,12.05 -1.11,2.64 -2.23,5.29 -3.36,7.95 -11.91,-6.33 -24.6,-11.64 -35.24,-20zm220.64 -39.48l0.67 -0.47c1.6,7.49 4.62,14.58 6.6,21.98 -4.65,-2.47 -10.11,-5.87 -10.76,-11.58 -0.75,-3.76 1.56,-6.98 3.49,-9.93zm-110.31 -136.76c23.6,-3.38 47.38,-5.8 71.2,-7 0.16,1.69 0.49,5.07 0.65,6.75 -37.38,7.29 -74.47,18.03 -108.32,35.76 -25.71,13.49 -50.2,32.09 -64.04,58.18 -4.82,8.53 -6.8,18.18 -9.56,27.47 -1.62,-12.81 2.74,-25.2 7.58,-36.83 3.67,-8.93 10.96,-15.77 14.31,-24.86 7.07,-4.65 15.34,-9.14 18.78,-17.29 5.36,-3.43 10.6,-7.05 15.76,-10.76 18.46,-12.66 39.42,-20.89 59.55,-30.33 -1.46,-0.27 -4.42,-0.82 -5.91,-1.09zm122.33 -9.62c5.07,-0.11 10.16,-0.29 15.25,-0.54 2.69,11.96 6.84,23.47 10.84,35.05 -10.53,-9.94 -18.8,-22.07 -26.09,-34.51zm-251.62 -23.29c4.6,3.67 10.36,4.84 16,5.89 -12.4,16.55 -25.51,32.98 -33.35,52.35 -14.74,29.94 -19.27,64.25 -16.2,97.29 -0.96,-1.04 -1.94,-2.04 -2.91,-3 1.57,-11.04 -4.09,-21.51 -4.43,-32.49 -0.46,-18.64 -1.84,-37.73 3.43,-55.86 1.57,-7.94 6.17,-15.38 5.35,-23.69 8.36,-6.29 17.4,-15.43 16.51,-26.71 -5.87,-8.43 -18.38,-2.56 -22.42,4.91 -9.96,-2.38 -18.76,5.4 -28.13,7.6 1.93,-5.56 4.33,-10.98 5.57,-16.74 -0.93,-0.55 -2.8,-1.66 -3.73,-2.2 20.62,0.52 41.27,0.09 61.91,0.23 0.78,-2.54 1.58,-5.07 2.4,-7.58zm184.47 -10.54c0.91,-1.6 2.73,-4.8 3.64,-6.4 2.25,7.52 4.71,15.65 11.76,20.07 -0.07,1.11 -0.18,3.34 -0.25,4.45 -5.24,0.6 -10.48,1.11 -15.73,1.57 4,-5.97 5.62,-13.77 0.58,-19.69zm67.24 -25.28c3.67,0.33 7.36,0.86 11,1.6 -1.13,12.69 -1,25.48 0.6,38.13 -7.09,0.04 -14.17,-0.11 -21.24,0.51 -2.53,-4.93 -4.38,-10.18 -5.87,-15.49 13.82,2.11 16.31,-14.69 15.51,-24.75zm-18.02 -47.98c6.91,1.69 13.29,-3.18 20.22,-3.22 7.38,2.04 14.49,4.97 21.51,8.04 -3.77,8.27 -7.02,16.8 -9.15,25.67 -12.09,-1.71 -24.25,-2.58 -36.38,-3.94 0.31,-8.97 2.22,-17.75 3.8,-26.55zm412.31 -5.8c9.27,-1.2 17.85,-6.07 27.47,-4.89 9.64,-1.25 19,2.64 25.87,9.33 0.24,5.49 -1.23,11.42 -6.69,13.94 0.91,-6.38 -2.91,-12.52 -9.2,-14.03 -10.34,-2.46 -21.89,-4.42 -32.05,-0.93 -3.15,0.47 -6.24,0.27 -9.24,-0.58 0.95,-0.71 2.89,-2.13 3.84,-2.84zm-106.75 2.62c-1.18,-14.76 13.33,-21.62 25.2,-24.84 1.73,0 5.15,0.02 6.89,0.02 3.22,2.26 7.46,1.64 11.2,2.35 15.15,4.47 29.42,11.31 43.57,18.25l0.63 1.84c-20.63,-4.49 -41.09,-10.58 -62.27,-11.6 -3.73,2.49 -8.89,1.02 -12.27,4.27 -4.93,2.55 -7.02,9.15 -12.95,9.71zm-693.85 -24.78c20.36,-0.91 40.76,-0.15 61.13,-0.38 5.47,7.34 11.43,14.36 16.56,21.96l0.36 1.69c-20.45,-0.13 -40.92,0.2 -61.36,-0.18 -5.51,-7.73 -11.31,-15.26 -16.69,-23.09zm-156.35 -0.38c0.44,0.03 1.33,0.05 1.8,0.05 -59.56,221.6 -119.09,443.2 -178.23,664.91 -20.44,0.16 -40.91,0.31 -61.37,-0.36 -9.38,35.85 -19.29,71.56 -28.45,107.45 -8.53,6.75 -17.04,13.53 -25.62,20.22 -0.98,0.62 -2.96,1.85 -3.96,2.45 13.07,-51.27 27.71,-102.14 41,-153.36 20.43,-0.31 40.87,0.09 61.29,-0.2 54.83,-206.11 110.36,-412.07 165.4,-618.13 9.29,-7.8 19.31,-14.67 28.14,-23.03zm685.11 -18.17c8.02,-0.27 16.2,-0.07 24.07,1.75 -2.87,5.2 -7.25,9.25 -11.38,13.38l-1.16 -0.8c-5.16,-3.55 -8.38,-9.11 -11.53,-14.33zm-196.45 -34.34c17.47,17.71 42.65,24.05 66.65,26.49 -6,6.94 -11.36,14.36 -16.31,22.07 -6.29,0.4 -12.45,-3.42 -18.78,-4.22l0.31 -0.25c1.36,-1.09 4.09,-3.26 5.44,-4.35 -9.64,-4.56 -20.93,-5.03 -30.13,-11.03 -1.75,-9.75 -5.6,-18.95 -7.18,-28.71zm129.23 7.25c37.77,-16.22 79.22,-25.78 120.48,-23.49 2.87,6.87 5.76,13.73 8.65,20.6 -22.87,-10.58 -50.67,-13.24 -73.6,-1.47 -8.76,3.91 -15.89,10.4 -23.02,16.62 -21.65,11.85 -40.29,28.87 -54.34,49.12 -4.46,-1.58 -8.84,-3.32 -13.17,-5.12 1.06,-3.75 4.44,-7.97 0.91,-11.46 -6.89,-3.91 -15.05,-3.67 -22.69,-3.2 6.35,-7.71 13.55,-14.71 21.35,-20.98 7.43,3.67 15.96,4.8 24.09,3.11 9.31,-3.44 11.02,-15.07 11.34,-23.73zm-251.74 -34.98c35.98,13.69 75.54,1 106.58,-18.8 -4.91,8.07 -8.27,16.96 -10.89,26.02l-0.4 0.16c-11.09,4 -21.31,10.15 -32.71,13.42 0.11,-1.49 0.31,-4.44 0.42,-5.93 -5.49,-3.31 -11.33,-7.89 -18.18,-6.27 -8.28,1.11 -14.95,7.93 -16.15,16.18 -12.27,-3.25 -24.69,-5.91 -36.78,-9.78 2.22,-5.24 5.49,-9.96 8.11,-15zm535.65 -19.27c0.35,-0.26 1.06,-0.77 1.42,-1.02 5.75,4.78 10.31,12.07 17.69,14.29 0.53,3.51 0.75,7.09 0.69,10.67l-0.98 1.42c0,-3.13 0.11,-6.27 0.31,-9.38 -5.8,-0.87 -11.64,-1.24 -17.49,-1.2 -2.47,-2.78 -4.87,-5.58 -7.46,-8.2l-0.47 -0.44c2.07,-2.07 4.15,-4.11 6.29,-6.14zm-519.29 -18.89l0.57 0.03c8.58,0.4 17.23,0.8 25.81,0.09 -5.94,3.33 -4.16,9.91 -1.16,14.64 -8.53,1.04 -17.2,1.98 -25.64,0.04 -4.72,-1.15 -10.49,-1.82 -13,-6.53 4.64,-2.53 10.62,-3.18 13.42,-8.27zm-429.71 -14.8c108.17,-0.44 216.35,0.16 324.53,-0.31 -0.53,0.45 -1.62,1.29 -2.16,1.74 -9.35,7.37 -18.75,14.69 -28.13,22.02 -91.98,0.13 -183.96,-0.02 -275.91,0.07 -9.76,36.53 -19.69,73.02 -29.11,109.62 -9.71,7.73 -19.65,15.18 -29.54,22.67l-1.39 1.02c13.42,-52.4 27.93,-104.54 41.71,-156.83zm539.31 9.41c0.02,-5.83 4.55,-10.03 8.82,-13.34 3.84,34.22 21.87,66.76 49.47,87.49 2.6,2.07 5.6,3.82 7.51,6.64 -18.29,1.76 -38.07,-2.68 -51.02,-16.46 -16.16,-16.91 -17.52,-42.34 -14.78,-64.33zm341 -22.05c0.33,-0.47 0.98,-1.4 1.31,-1.87 2.35,6.27 10.29,8.29 16.11,10.25 -0.36,0.47 -1.09,1.42 -1.44,1.91 -3.65,0.82 -7.6,2.91 -11.18,0.75 -4.14,-1.95 -4.14,-7.17 -4.8,-11.04zm-9.54 -1.78l0.47 0.11c1.65,5.14 2.25,10.52 2.71,15.87 -7.24,-0.89 -14.55,-0.93 -21.82,-0.49 6.22,-5.11 14.49,-8.24 18.64,-15.49zm-58.22 -9.42c7.91,-8.2 14.42,-17.67 18.65,-28.31 2.95,3.47 5.84,6.98 8.86,10.4 -6.26,8.53 -14.11,15.64 -22.57,21.95 -1.23,-1 -3.69,-3.02 -4.94,-4.04zm-333.82 -23.98c7.62,-5.78 15.44,-11.29 23.73,-16.09 -0.8,2.2 -1.6,4.4 -2.37,6.63 2.73,2.17 5.57,4.2 8.82,5.64 -6.74,4.53 -14.22,8.13 -19.78,14.22 17.51,-6.38 36.51,-3.86 54.49,-1.24 -1.18,2.73 -2.4,5.49 -3.62,8.22 -12.29,5.05 -24.05,12.51 -31.96,23.36 -2.93,3.93 -4.04,9.02 -2.07,13.68 -7.29,5.76 -15.51,10.09 -23.71,14.36 -7.17,-3.15 -14.55,-6.11 -22.46,-6.67 21.86,-7.17 41.04,-21.26 56.11,-38.46 -10.51,-8.05 -24.38,-4.05 -36.56,-4.85 3.38,-5.8 6.13,-14.31 -0.62,-18.8zm562.58 -26.53c2.33,7.49 3.46,15.27 4.22,23.04 -4.42,-3.95 -8.87,-8.24 -10.27,-14.24 1.87,-1.67 3.71,-3.36 5.58,-5.07 0.11,-0.93 0.33,-2.8 0.47,-3.73zm-496.56 -4c6.56,0.22 13.16,0.27 19.74,0.11 -1.98,3.49 -1.14,8.2 3.28,9.13 12.14,2.67 24.87,0.25 36.58,-3.37 -0.31,1.04 -0.89,3.11 -1.2,4.15 11.8,2.42 22.31,10.42 34.47,10.36 5.04,5.66 11.38,10.26 19.18,10.93 9.71,4.42 18.95,9.76 28.55,14.45 2.51,1.55 5.47,1.37 8.31,1.26 5.92,4.76 12.34,8.8 18.69,12.98 8.71,5.18 17.31,10.64 26.29,15.35 0.91,-0.42 2.71,-1.24 3.62,-1.66 5.74,6.51 11.25,15.11 20.78,15.8 4.8,4.35 10.31,7.78 15.85,11.11 3.2,7.33 9.68,11.91 16.71,15.27 -3.89,2.51 -7.69,5.15 -11.32,8.04 -40.64,-22.84 -80.77,-46.67 -121.68,-69.04 -26.98,-14.58 -53.87,-31.07 -84.56,-36.38 -13.22,-2.56 -26.8,-2.4 -40.13,-0.91 3.44,-5.34 6.37,-11.14 6.84,-17.58zm297.13 -24.62c6.67,9.55 10.65,21.24 8.72,32.97 -5.22,-1.86 -10.45,-3.8 -15.49,-6.11 -1.73,-0.91 -3.4,-1.86 -5.05,-2.86l2.78 0.95c-2.18,-7.2 -6.24,-13.58 -11.22,-19.13l0.76 -0.76c5.31,-4.86 12.55,-3.15 18.99,-2.64l0.51 -2.42zm158.94 1.95c7.38,-8.33 18.67,-3.35 25.4,3.14 0.42,-0.12 1.27,-0.34 1.71,-0.43 0.4,0.43 1.22,1.27 1.62,1.69 0.34,4.29 0.98,8.56 1.14,12.87 -1.43,3.89 -4.52,6.8 -6.98,10.02 -0.51,-0.69 -1.49,-2.06 -1.98,-2.75 -6.13,-8.56 -12.51,-17.05 -20.8,-23.63l-0.11 -0.91zm-541.71 -13.04c4.98,-2.87 9.44,-7.16 15.29,-8.09 -8.14,8.82 -16.54,17.42 -24.4,26.49 -4.8,-0.07 -9.58,-0.05 -14.36,-0.14 6.38,-7.66 15.47,-12.46 23.47,-18.26zm445.46 -27.67c8.58,3.62 16.96,7.8 24.52,13.29 -6.69,2.38 -14.87,3.4 -21.25,-0.22 -4.51,-2.87 -3.51,-8.58 -3.27,-13.07zm-143 -10.67c17.45,6.98 34.76,14.45 50.83,24.29 -10.36,6.76 -22.96,4.16 -34.25,1.83 -0.66,-0.18 -2,-0.52 -2.66,-0.67 -9.14,-4.27 -21.12,-14.62 -13.92,-25.45zm-118.62 -13.84c10.07,1.91 19.76,5.8 28.78,10.64 -5.05,6.47 1.58,13.03 7.18,15.92 9.82,5.93 21.58,5.17 32.58,5.55 18.4,11.42 36.49,23.93 52.2,38.89 -16.38,-4.87 -31.23,-13.58 -46.65,-20.73 -23.8,-10.87 -47.24,-22.51 -71.11,-33.18 -4.71,-2 -9.55,-3.73 -14.6,-4.6 6.8,-0.76 10.07,-6.51 11.62,-12.49zm-105.8 24c16.82,-12.07 36.87,-18.89 56.78,-23.98 1.82,4.65 5.09,8.29 9.49,10.62 -8.2,2.4 -16.8,2.43 -25.13,4.05 -13.89,2.33 -27.34,6.58 -41.14,9.31zm-218.29 -10.69c14.8,-7.13 29.47,-14.6 44.69,-20.78 0.6,10.89 -6.93,19.34 -15.51,24.87 -3.31,1.71 -6.64,3.36 -9.95,5.02 -4.07,-0.58 -10.07,1.94 -12.34,-2.75 -1.27,-2.27 -2.44,-4.58 -3.53,-6.91 -0.85,0.13 -2.51,0.42 -3.36,0.55zm69.65 -31.4c14.82,-5.33 29.42,-11.62 44.84,-14.93 -2.11,9.62 -8.02,18 -16.18,23.49 -2.49,0.84 -4.95,1.77 -7.37,2.8 -5.34,0.31 -11.16,1.29 -16.05,-1.45 -3.95,-1.64 -4.04,-6.44 -5.24,-9.91zm64.51 -21.4c16.09,-3.73 32.09,-8.27 48.53,-10.13 -3.93,9.6 -11.51,17.29 -20.69,21.95 -6.06,2.25 -12.49,3.2 -18.82,4.25 -8.71,-0.51 -8.87,-9.49 -9.02,-16.07zm236.09 -15.4c13.84,1.76 27.95,3.31 41.26,7.62 -3.95,1.96 -8.22,3.25 -12.62,3.54 -5.42,0.11 -10.86,0.06 -16.27,0.46 -1.33,-0.73 -4.02,-2.15 -5.37,-2.86 -0.51,-2.49 -1,-4.96 -1.49,-7.42 -1.38,-0.34 -4.13,-1.01 -5.51,-1.34zm-85.27 -3.38c14.11,-0.73 28.22,0.23 42.33,0.67 -7.44,3.6 -15.02,7.11 -21.57,12.22 -2.27,-0.15 -4.56,-0.09 -6.8,0.27 -5.56,-3.33 -11.12,-7.07 -13.96,-13.16zm-74.22 3.98c15.84,-1.44 31.69,-3.22 47.6,-3.2 0.44,8.6 -8.05,12.07 -14.78,14.47 -10.15,3.51 -21.69,5.18 -32.11,2.31 -6.24,-2.56 -3,-9.33 -0.71,-13.58zm-564.22 175.22l0 0c-22.11,82.38 -44.29,164.76 -66.14,247.23 20.74,0.06 41.47,-0.09 62.2,0.06 -47.06,175.74 -94.09,351.47 -141.24,527.18 -20.76,-0.02 -41.51,-0.07 -62.29,0 -22.33,82.33 -44.2,164.8 -66.29,247.2 251.27,0.02 502.53,0.05 753.78,-0.02 29.93,-110.82 59.62,-221.69 89.58,-332.51 -85.65,-0.58 -171.31,-0.05 -256.96,-0.27 -8.02,28.38 -15.71,56.87 -23.33,85.38 -47.02,0.46 -94.05,0.04 -141.07,0.2 13.47,-51.76 27.69,-103.33 41.38,-155.07 33.49,-124.06 66.2,-248.35 100.11,-372.31 20.62,0.33 41.27,0.09 61.91,0.16 22.16,-82.36 44.45,-164.72 66.07,-247.2 -139.22,-0.07 -278.47,0.02 -417.71,-0.03z"/>
   <path class="fil4" d="M1069.18 1011.82c6.51,0 13.04,-0.55 19.24,-2.64l0.31 0.66c9.27,18.54 15.69,39.03 30.2,54.43 6.4,7.24 15.38,11.22 22.98,16.97 1.42,3.05 2.58,6.43 5.31,8.65 3.87,1.13 6.74,-2.07 9.62,-4.05 0.58,-0.51 1.71,-1.55 2.27,-2.08 11.25,3.91 22.98,1.89 34.22,-0.72 -9.8,-1.77 -19.4,-4.66 -28.17,-9.42 -0.47,0.8 -1.4,2.45 -1.87,3.27 -0.09,-1.44 -0.29,-4.36 -0.4,-5.82 -1.62,-5.29 -4.64,-10.11 -9.27,-13.25 -1.07,1.02 -3.18,3.05 -4.24,4.07l-0.58 0.67c-7.38,-6.78 -16.29,-12.89 -20,-22.6 3.62,0.93 7.29,2 11.11,1.86 0.09,-4.64 0.07,-9.31 -0.09,-13.93 17.65,24.84 47.98,42.35 79.05,38.11 0.84,10.02 -1.87,20.02 -7.49,28.36 13.71,-5.52 27.89,-11.32 38.31,-22.18 -0.22,10.82 -5.22,20.6 -10.31,29.86 17,-5.57 35.11,-14.48 42.89,-31.66 4.11,12.46 3.44,26.11 -1.83,38.11 13.01,-10.62 24.78,-24.42 27.45,-41.53 3.64,12.93 10.82,26.17 24.15,31.11 3.54,-11.91 5.6,-25.27 -0.79,-36.65 11.4,6.23 20.97,17.27 20.66,30.94 9.82,-9.96 11.76,-25.14 7.11,-38 10.05,5.51 21.74,4.11 32.47,1.97 -5.51,50.09 -39.53,94.43 -84.4,116.25 5.35,-10.6 7.91,-22.27 9.22,-33.98 -33.09,23.4 -73.53,34.13 -113.31,38.87 11.09,-6.51 18.38,-17.47 23.38,-29.05 -30.96,5.71 -63.58,4.45 -93.31,-6.4 -2.4,-0.78 -4.58,-1.89 -6.51,-3.42 14.8,-4.22 27.73,-13.56 36.69,-26.02 -36.03,-2.02 -71.72,-17.02 -96.12,-44.02 7.09,-8 11.74,-17.71 15.91,-27.45 -4.28,-9.93 -9.28,-19.51 -13.86,-29.29zm-118.02 -146.62c24.15,-11.4 50.24,-22.33 75.26,-31.69 10.36,20.13 19.47,41 25.87,62.76 7.47,28.55 16.44,56.69 25.67,84.71 -0.36,0.2 -1.05,0.62 -1.4,0.82 -6.09,3.76 -12.27,7.85 -15.92,14.2 -6,-11.58 -12.62,-22.8 -19.71,-33.73 7.76,-4.94 15.49,-11.56 17.2,-21.07 2.09,-5.62 -3.64,-11.29 -9.22,-9.91 -10.31,0.82 -12.38,12.76 -14.33,20.8 -15.4,-22.98 -32.16,-45.47 -52.62,-64.2 1.02,-4.47 4.37,-9.69 0.55,-13.76 -4.47,-6.55 -17.69,-1.64 -24.22,0.51 -0.94,-1.41 -6.03,-8.72 -7.13,-9.44zm129.66 45.82c5.73,1.34 11.34,-0.53 16.42,-3.09 2.32,8.67 4.94,17.23 7.49,25.83 -6.77,7.02 -12.42,15.88 -12.55,25.95 1.33,0.45 3.95,1.38 5.26,1.82 4.58,-1.62 8.98,-3.75 13.03,-6.44 4.77,12.53 8.11,25.6 12.82,38.18 -5.89,2.31 -10.29,6.86 -13.96,11.89 -6.44,-12.54 -9.88,-26.25 -13.73,-39.72 -2.69,-1.35 -5.38,-2.64 -8.02,-3.97 7.8,-17.05 -5.56,-33.45 -6.76,-50.45zm-17.42 -48.06c6.27,2.64 12.62,0.57 18.02,-3 2.54,7.17 4.94,14.4 7.29,21.64 -5.47,1.16 -10.69,3.31 -15.22,6.58l-0.67 0.47c-3.78,-8.32 -6.64,-17.01 -9.42,-25.69zm-16.69 -36.96c6.02,-2.27 12.09,-4.42 18.24,-6.38 2.45,5.31 4.74,10.71 7.01,16.14 -7.92,-5.65 -13.03,2.51 -15.74,8.97 -3.8,-5.91 -6.91,-12.22 -9.51,-18.73zm-143.71 -4.24c40,-27.4 87.02,-42.16 133.84,-52.96 4.2,4.93 7.07,10.76 10.63,16.13 -6.71,1.89 -11.51,7.63 -13.23,14.25 2.76,2.67 3.65,6.6 5.98,9.62 -2.8,0.6 -5.4,1.71 -7.8,3.31 -1.38,-7.53 1.96,-16.31 -2.71,-22.91 -12.31,-0.18 -24.09,6.07 -36.09,8.8 4.85,1.4 9.25,3.85 12.6,7.67 -9.26,4.02 -17.4,10.89 -21.84,20.09 1.4,2.49 3.31,4.48 5.78,6 -9.69,4.4 -19.09,9.4 -28.43,14.49 0.89,-5.25 2.09,-10.67 0.31,-15.85 -10.02,-0.73 -18.77,5.02 -26.51,10.67 -4.75,3.75 -10,7.71 -11.69,13.84 -15.08,-0.4 -30.31,3.11 -43.08,11.33 -10.38,5.52 -16.74,15.98 -26.89,21.76 5.06,-28.29 26.33,-50.36 49.13,-66.24zm656.13 -175.83c12.89,33.25 12.91,70.98 2,104.8 -11.31,34.51 -32.84,65.47 -60.75,88.63 -7.78,6.42 -16.34,11.88 -25.58,15.89 8.29,-16.92 15.07,-36.36 10.49,-55.32 -3.11,-13.2 -15.04,-21.89 -27.42,-25.66 4.71,-8.56 6.64,-18.31 6.13,-28.03 17.4,-10.66 35.07,-21.64 48.96,-36.82 7.51,-8 11.17,-18.49 16.31,-27.95 2.35,-5.14 8.31,-6.49 12.42,-9.82 8.89,-5.98 14.22,-15.74 17.44,-25.72zm-384.53 -38.6c8.98,11.76 18.84,23.27 31.89,30.67 -11.73,-2.64 -21.62,5.16 -27.36,14.53 -7.13,-13.84 -8.95,-30.22 -4.53,-45.2zm86.04 -69.24c16.16,-20.56 41.74,-35.18 68.52,-32.42 30.73,2.91 56.42,23.49 76.29,45.75 12.15,0.31 24.26,2.87 35.13,8.47 -8.82,4.76 -17.31,9.98 -24.98,16.44 23.22,-6.24 48.31,-0.62 68.11,12.58 -3.89,-23.4 -23.33,-41.13 -44.89,-48.93 1.27,-2.49 2.47,-5 4.07,-7.29l0.98 -1.42c9.29,2.15 18.71,3.97 27.62,7.49 7.75,2.95 14.27,8.66 22.49,10.53l1 0.31c13.89,16.13 29.42,31.11 39.64,50.02 -20.75,-6.42 -42.8,-2.18 -63.2,3.45 -17.84,-10.49 -37.02,-19.87 -57.91,-21.94 -20.29,-2.55 -42.53,3.76 -56.11,19.6 -8.98,10.31 -14.56,25.38 -9.16,38.67 5.85,14.51 20.29,22.93 34.27,28.22 2.62,31.25 21.47,61.49 50.65,74.29 -24.74,30.13 -64.18,42.09 -100.98,49.6 -64.43,11.65 -130.58,10.38 -195.49,3.82 -8.05,-15.33 -10.45,-33.77 -4.93,-50.35 39.29,15.4 82.53,14.82 123.93,11.4 12.06,-1.38 24.31,-2.02 36.13,-4.96 -31.86,0.27 -64.13,-3.82 -93.93,-15.57 3.44,-2.63 6.8,-5.98 5.84,-10.76 -4.75,-0.69 -9,-3.04 -12.91,-5.67 4.23,0.96 8.38,2.16 12.63,3.14 -3.07,-8.05 -7.78,-16.56 -16.27,-19.76 -5.83,-1.98 -12.05,-3.71 -18.22,-3.24 -3.85,1.6 -3.98,6.48 -5.61,9.77 -7.97,-12.17 -12.62,-26.77 -10.88,-41.42 14.26,13.71 29.75,26.71 48.33,34.18 23.65,9.87 50.15,13.82 75.51,9.42 -31.04,-8.38 -62.91,-19.62 -86.02,-42.98 3.29,-1.62 6.51,-3.4 9.71,-5.2 -2.62,-0.89 -4.93,-2.29 -6.91,-4.15 3.22,0.47 6.31,1.55 9.16,3.22 6.64,-4.29 15.77,-8.24 17.08,-16.98 21.72,9.74 46,13.89 69.72,11.76 -29.98,-7.62 -57.58,-24.74 -76.98,-48.91 2.29,-1.76 4.58,-3.51 6.84,-5.27l1.16 0.8c8.33,5.42 15.28,12.67 23.44,18.36 19.67,14.04 39.87,27.4 60.8,39.46 -0.24,0.71 -0.73,2.14 -0.98,2.85 -20.4,9.86 -43.62,10.24 -65.75,8.26 -12.25,-1.46 -23.74,-6.13 -35.65,-9 1.52,2.65 3.29,5.25 5.94,6.94 23.97,17.49 52.8,26.46 81.18,33.98 8.13,2.28 16.42,4.15 24.88,4.88 0.45,1.2 1.31,3.6 1.74,4.78 -34.54,16.67 -74.69,18.6 -111.62,9.76 7.53,5.18 16.64,6.91 25.33,9.17 16.47,4.14 33.33,6.27 50.22,7.87 17.58,2.49 35.38,0.31 53.04,1.87 -2.64,2.69 -5.62,5.09 -9.17,6.42 -44.98,19.56 -94.54,27.89 -143.42,26.18 -12.05,0.38 -23.81,-2.65 -35.83,-2.53 19.51,5.97 39.53,11.79 60.14,11.62 28.57,-0.38 57.29,1.46 85.64,-3.16 31.87,-4.29 63.6,-10.71 94,-21.38 5.67,-1.86 10.85,-4.91 15.58,-8.53 -6.34,-3.47 -12.94,-7.02 -17.09,-13.13 -10.8,-15.11 -18.2,-32.43 -23.49,-50.16 -0.69,-4.49 -4.69,-6.69 -8.2,-8.78 -20.29,-11.29 -33.31,-33.64 -35.07,-56.55 -23.51,-16.62 -51.44,-26.47 -79.73,-30.89 -1,-0.65 -3,-1.93 -3.98,-2.56 1.56,-3.24 3.23,-6.46 3.58,-10.09 -12.42,-7.37 -27.51,-1.62 -37.75,6.85 -1.25,-2.6 -2.47,-5.18 -3.69,-7.78 15.95,-10.89 36.37,-13.02 55.08,-10 31.16,4.78 59.74,19.56 85.94,36.53 2.69,-24 18.6,-44.24 36.18,-59.75 -11.98,-14.09 -31.23,-19.87 -49.14,-20.93 -22.82,-0.65 -41.04,16.55 -52.93,34.33 -2.89,-6.87 -5.78,-13.73 -8.65,-20.6zm252.6 -57.82c2.03,-0.11 5.01,-1.54 5.76,1.46 7.11,12.43 -3.78,31.74 -18.42,30.34 -9.16,-6.14 -16.45,-15.49 -27.45,-18.45 2.65,-0.62 5.34,-1.42 7.56,-3.13 1.31,8.13 12.73,11.29 17.71,4.6 3.38,-2.71 2.13,-7.24 2.11,-10.96 0.98,-0.11 2.96,-0.35 3.93,-0.49 4.63,6.09 0.25,13.56 -0.59,20.16 4.26,-2.87 8.31,-6.51 9.95,-11.58 0.2,-4 -0.29,-7.97 -0.56,-11.95zm-435.13 -6.47l0.51 0.31c5.42,3.31 10.94,6.54 16.47,9.71 -0.51,18.98 11.18,37.11 26.18,48 -2.8,-12.2 -5.74,-24.44 -5.56,-37.06 5.76,4.08 11.98,7.44 18.45,10.26 4.51,8 11.8,15.05 21.26,16.31 7.76,0.83 15.09,3.63 21.34,8.34 -17.01,5.02 -33.98,10.49 -49.87,18.44 -9.76,5.89 -21.73,0.07 -29.69,-6.35 -18.69,-16.45 -25.58,-44.23 -19.09,-67.96zm268.2 -14.47c2.98,0.6 6.02,1.11 9.07,1.67 0.66,3.87 0.66,9.09 4.8,11.04 3.58,2.16 7.53,0.07 11.18,-0.75 9.44,3.22 17.51,9.2 25.77,14.64 9.47,6.47 19.4,12.6 26.94,21.4 -2.14,2.03 -4.22,4.07 -6.29,6.14 -6.8,-6.71 -14.65,-12.2 -22.31,-17.87 -4.42,-4.4 -10.36,-6.6 -15.05,-10.58 -3.75,-1 -7.31,-2.55 -10.91,-3.91 -6.67,-2.53 -13.51,-4.55 -20.49,-5.91 -0.46,-5.35 -1.06,-10.73 -2.71,-15.87zm-40.26 -38.09c2.31,-7.73 1.48,-16.06 4.13,-23.71 5.04,2.31 10.27,4.25 15.49,6.11 -1.2,10.14 -5.12,19.67 -10.54,28.25 -3.02,-3.42 -5.91,-6.93 -8.86,-10.4l-0.22 -0.25zm198.57 -44.22c5.49,6.18 8.43,14.67 11.76,22.27 -0.14,0.93 -0.36,2.8 -0.47,3.73 -1.87,1.71 -3.71,3.4 -5.58,5.07 1.4,6 5.85,10.29 10.27,14.24 1.47,11.09 0.29,22.27 -1.78,33.2 -0.57,-2.35 -1.11,-4.71 -1.66,-7.04 -3.8,-16.96 -10.29,-33.25 -18.38,-48.58 2.46,-3.22 5.55,-6.13 6.98,-10.02 -0.16,-4.31 -0.8,-8.58 -1.14,-12.87zm-39.84 -19.46c5.07,-0.34 10.15,-1.14 15.29,-0.83 9.35,3.92 16.8,11.18 23.75,18.38l-0.82 0.22c-0.44,0.09 -1.29,0.31 -1.71,0.43 -6.73,-6.49 -18.02,-11.47 -25.4,-3.14 -3.89,-2.95 -7.73,-5.93 -11.49,-9.02 0.09,-1.51 0.29,-4.53 0.38,-6.04zm-405.74 0.28c9.27,-0.31 18.69,-1.95 27.92,-0.17 19.46,3.55 37.62,12.02 54.68,21.77 9.67,4.67 14.18,16.94 25.96,17.6 0.84,0.36 2.53,1.05 3.38,1.38 14.47,13.31 32.53,23.2 43.97,39.45 -7.77,-2.45 -14.64,-6.91 -22.13,-10 -0.42,-0.56 -1.24,-1.67 -1.64,-2.23 -3.31,-5.91 -9.14,-9.51 -15.71,-10.66 -20.8,-4.49 -37.29,-20.47 -58.16,-24.27 -2.09,-0.75 -4.18,-1.53 -6.24,-2.29 0.33,-0.49 1,-1.42 1.31,-1.91 -11.02,-4.49 -22.07,-9.02 -33.31,-12.95 -9.18,-3.31 -18.96,-4.56 -28.16,-7.76 1.62,-2.2 3.24,-4.42 5,-6.53 0.78,-0.36 2.36,-1.07 3.13,-1.43zm194.18 -10.48c11.29,2.33 23.89,4.93 34.25,-1.83 10.93,6.91 21.44,14.89 29.48,25.14l-0.51 2.42c-6.44,-0.51 -13.68,-2.22 -18.99,2.64 -7.83,-4.97 -14.69,-11.4 -22.92,-15.73 -7.86,-4.47 -16.6,-7.04 -24.37,-11.64l3.06 -1zm99.76 -23.67c9.11,1.91 18.04,4.69 26.66,8.22 -0.24,4.49 -1.24,10.2 3.27,13.07 6.38,3.62 14.56,2.6 21.25,0.22 2.46,1.93 4.91,3.96 7.35,5.98 -3.71,4.31 -7.82,8.24 -11.73,12.35 -10.02,-7.06 -20.82,-12.93 -32.2,-17.51 -3.69,-8.11 -8.56,-15.71 -14.6,-22.33zm-594.27 16.27c11.4,-7.03 23.49,-12.8 35.22,-19.25 0.85,-0.13 2.51,-0.42 3.36,-0.55 1.09,2.33 2.26,4.64 3.53,6.91 2.27,4.69 8.27,2.17 12.34,2.75l2.31 1.07c-11.94,6.84 -24.12,13.22 -35.87,20.35 -6.89,-3.91 -13.8,-7.75 -20.89,-11.28zm418.07 -36.67c20.44,4.09 40.24,10.93 59.86,17.95 -7.2,10.83 4.78,21.18 13.92,25.45 -9.18,2.07 -17.63,-4.96 -26.94,-4.73 -13.4,-15.32 -28.51,-29.49 -46.84,-38.67zm-338.11 -3.73c8.24,-3.56 16.51,-7.05 24.91,-10.25 1.2,3.47 1.29,8.27 5.24,9.91 4.89,2.74 10.71,1.76 16.05,1.45 -3.54,2.24 -7.14,4.46 -11.14,5.71 -13.95,4.69 -27.49,10.55 -40.86,16.64 -3.07,1.38 -6.36,2.78 -9.76,1.78 8.58,-5.53 16.11,-13.98 15.51,-24.87l0.05 -0.37zm70.04 -26.14c6.47,-1.78 12.93,-3.64 19.38,-5.51 0.15,6.58 0.31,15.56 9.02,16.07 -4.24,5.53 -11.73,5.6 -17.82,7.62 -9.05,1.93 -17.58,6.84 -27.05,6.27 8.16,-5.49 14.07,-13.87 16.18,-23.49l0.29 -0.96zm284.11 -9.75c4.4,-0.29 8.67,-1.58 12.62,-3.54l1.05 -0.44c10.82,2.69 21.84,5.24 32.02,9.98 -15.6,2.53 -31.11,-2.49 -46.75,-2.23 0.26,-0.93 0.8,-2.82 1.06,-3.77zm-71.58 -13.87l0.85 -0.4c14.02,0.85 28.11,1.4 42.09,3.11 1.38,0.33 4.13,1 5.51,1.34 0.49,2.46 0.98,4.93 1.49,7.42 1.35,0.71 4.04,2.13 5.37,2.86 -3.08,0.71 -6.22,1.56 -9.39,1.09 -18.63,-2.02 -37.36,-0.71 -56.03,-0.91 -3.95,0.05 -7.73,-1.24 -11.46,-2.29 6.55,-5.11 14.13,-8.62 21.57,-12.22zm-68.95 0.11c8.84,-1.02 17.75,-0.11 26.62,-0.78 2.84,6.09 8.4,9.83 13.96,13.16 -11.47,5.04 -24.16,3.13 -36.25,4.64 -29.42,3.25 -58.95,6.23 -87.86,12.76 -4.23,0.91 -8.69,1.91 -12.83,0.04 9.18,-4.66 16.76,-12.35 20.69,-21.95l0.29 -0.58c9.22,-1.56 18.49,-2.91 27.78,-4.09 -2.29,4.25 -5.53,11.02 0.71,13.58 10.42,2.87 21.96,1.2 32.11,-2.31 6.73,-2.4 15.22,-5.87 14.78,-14.47z"/>
   <path class="fil5" d="M456.53 450.27c124.62,-0.63 249.27,-0.09 373.91,-0.27 -18.29,67.96 -36.37,135.98 -54.75,203.91 -20.73,-0.04 -41.45,0 -62.16,-0.02 -51.06,190.18 -101.97,380.4 -153.02,570.58 61.82,-0.11 123.65,0.04 185.47,-0.07 7.62,-28.53 15.49,-57 23.22,-85.51 70.98,0.02 141.96,-0.05 212.93,0.04 -26.15,96.65 -52.02,193.38 -78.22,290 -236.42,-0.2 -472.84,0.18 -709.27,-0.17 18.07,-68.14 36.51,-136.18 54.67,-204.29 20.82,-0.18 41.67,0.2 62.49,-0.18 50.71,-190.18 101.93,-380.22 152.64,-570.4 -20.75,0 -41.49,0.02 -62.24,0 18.07,-67.89 36.56,-135.67 54.33,-203.62zm452.96 431.2c1.22,1.33 1.22,1.33 0,0zm228.91 -67.67c9.84,3.44 20.31,3.98 30.65,4.71 -3.38,27.45 -3.25,56.2 6.82,82.34 4.93,12.51 12.4,24.37 23.02,32.84 -8.87,-33.91 -18.93,-69.16 -13.47,-104.47 1.54,-3.86 0.87,-11.2 6.47,-11.26 8.18,-0.32 16.4,-0.51 24.6,-0.74 1.44,35 18.09,71.34 49.31,89.18 2.53,-25.22 8.93,-53.36 29.64,-70 20.98,14.96 38.69,35.6 46.96,60.27 4.91,14.26 6.11,29.62 4.4,44.57 -30.76,14.69 -65.51,22.74 -99.62,20.21 -5,-18.72 -9.43,-38.67 -22.11,-53.87 -5.71,22.33 -17.23,45.09 -38.4,56.29 -3.11,1.18 -7.82,5.42 -10.16,0.89 -33.27,-41.6 -53.04,-98.16 -38.11,-150.96zm-58.8 0.89c10.98,-3.69 22.02,-7.16 33.13,-10.33 3,1.35 6.03,2.73 9.03,4.11 -10.58,35.89 -6.27,75.02 7.88,109.31 8.92,22.82 22.63,43.31 37.16,62.89 -2.93,1.24 -5.85,2.46 -8.76,3.66 0.87,12.96 4.2,26.83 13.49,36.43 12.43,11.24 30.25,11.97 46.09,10.64 7.45,-2.96 13.49,-8.64 17.98,-15.2 28.2,3.22 56.91,1.65 84.49,-5.2 9.22,1.49 18.78,3.09 27.98,0.31 8.35,-1.86 16.44,-8.62 25.29,-5.29 5.37,1.54 5.15,8.91 1.51,12.16 -6.94,6.53 -16.78,8.69 -25.98,9.38 -19.94,0.93 -39.98,-0.98 -59.82,1.46 -19.85,2.22 -39.25,7.67 -57.67,15.29 -16.73,6.76 -37.09,8.09 -52.87,-1.82 -14.71,-8.93 -24.42,-23.96 -31.86,-39.11 -11.34,-23.36 -18.29,-48.51 -24.85,-73.54 -10.55,-39.57 -26.04,-77.59 -42.22,-115.15zm-24.29 -51.31c9.47,7.8 18.89,15.71 28.98,22.73 2,1.34 3.84,3 4.98,5.22 -5.89,1.91 -11.78,3.85 -17.67,5.74 -5.33,-11.29 -11.11,-22.36 -16.29,-33.69zm-561.91 -266.22c91.95,-0.09 183.93,0.06 275.91,-0.07 -9.67,36.62 -20.11,73.07 -29.56,109.75 -20.37,0.23 -40.77,-0.53 -61.13,0.38 -57.44,215.38 -115.31,430.62 -172.91,645.96 -2.75,10.93 -6.38,21.67 -8.18,32.84l-0.31 1.43c94.09,-0.05 188.2,0.13 282.31,-0.09 8.65,-33.67 18.03,-67.16 26.83,-100.78 38.19,-0.11 76.37,-0.16 114.57,0.02 -17.2,64.09 -34.11,128.27 -51.55,192.31 -204.45,-0.04 -408.91,-0.02 -613.36,-0.02 9.16,-35.89 19.07,-71.6 28.45,-107.45 20.46,0.67 40.93,0.52 61.37,0.36 59.14,-221.71 118.67,-443.31 178.23,-664.91 -0.47,0 -1.36,-0.02 -1.8,-0.05 -19.34,-0.33 -38.67,-0.24 -57.98,-0.06 9.42,-36.6 19.35,-73.09 29.11,-109.62zm993.27 -7.78c2.8,-1.14 5.73,-1.87 8.78,-2.2 -0.07,2.91 -1,6.22 -4.27,6.89 -2.56,-0.38 -3.58,-2.65 -4.51,-4.69zm-331.27 16.51c-8.78,-1.93 -9.44,-14.82 -2.49,-19.4 2.96,1.95 6.84,2.89 9.11,5.73 0.63,3.94 -2.95,7.05 -4.02,10.56 5.09,-0.87 7.65,-5.58 10.98,-8.93 2.33,7.62 -6.36,15.24 -13.58,12.04zm-680.33 -32.25l0 0c-13.78,52.29 -28.29,104.43 -41.71,156.83l1.39 -1.02c19.76,1.17 39.6,0.39 59.38,0.42 -55.04,206.06 -110.57,412.02 -165.4,618.13 -20.42,0.29 -40.86,-0.11 -61.29,0.2 -13.29,51.22 -27.93,102.09 -41,153.36 1,-0.6 2.98,-1.83 3.96,-2.45l-1.56 2.45c219.18,0.22 438.38,0.13 657.56,0.04 21,-79.11 42.42,-158.15 63.29,-237.31 -2.34,-1.07 -4.8,-1.56 -7.36,-1.47 -45.24,0.09 -90.51,0.02 -135.77,0.05 -6.29,0.09 -12.69,-0.63 -18.87,0.86 -8.8,33.58 -17.45,67.25 -27.07,100.6 -78.31,-0.44 -156.64,-0.06 -234.95,-0.2 56.51,-211.29 113.26,-422.51 169.64,-633.82 20.44,0.38 40.91,0.05 61.36,0.18l-0.36 -1.69c1.29,-2.07 2.25,-4.27 2.89,-6.6 11.36,-43.31 22.95,-86.53 34.35,-129.82 1.54,-5.73 3.45,-11.38 3.89,-17.31 0.54,-0.45 1.63,-1.29 2.16,-1.74 -108.18,0.47 -216.36,-0.13 -324.53,0.31z"/>
  </g>
 </g>
</svg>
