<?xml version="1.0" encoding="UTF-8"?>
<!DOCTYPE svg PUBLIC "-//W3C//DTD SVG 1.1//EN" "http://www.w3.org/Graphics/SVG/1.1/DTD/svg11.dtd">
<!-- Creator: CorelDRAW -->
<svg xmlns="http://www.w3.org/2000/svg" xml:space="preserve" width="2000px" height="1600px" version="1.1" style="shape-rendering:geometricPrecision; text-rendering:geometricPrecision; image-rendering:optimizeQuality; fill-rule:evenodd; clip-rule:evenodd"
viewBox="0 0 2000 1600"
 xmlns:xlink="http://www.w3.org/1999/xlink">
 <defs>
  <style type="text/css">
   <![CDATA[
    .fil3 {fill:#006F3B;fill-rule:nonzero}
    .fil0 {fill:#643600;fill-rule:nonzero}
    .fil2 {fill:#994607;fill-rule:nonzero}
    .fil1 {fill:#CFAB79;fill-rule:nonzero}
    .fil4 {fill:#FEFEFE;fill-rule:nonzero}
   ]]>
  </style>
 </defs>
 <g id="Capa_x0020_1">
  <metadata id="CorelCorpID_0Corel-Layer"/>
  <g id="Lehigh_x0020_Mountain_x0020_Hawks.cdr">
   <path class="fil0" d="M646.68 80.01c228.36,0 456.72,-0.03 685.08,0.02 -19.55,75.8 -39.35,151.56 -58.66,227.41 -37.45,0.51 -74.93,-0.44 -112.35,0.46 -17.31,2.16 -21.17,22.28 -24.62,36.25 115.8,9.84 231.51,33.7 338.16,80.92 36.08,16.35 71.54,34.88 103.02,59.13 -5.17,15.35 -10.68,32.49 -4.27,48.36 5.65,13.94 19.81,21.47 33.1,26.72 26.43,10.1 54.91,15.06 79.79,29.09 19.36,10.38 35.18,27.75 42.12,48.75 9.08,28.56 10.2,59.85 1.37,88.61 -11.25,38.15 -35.5,70.92 -62.46,99.55 -31.2,32.86 -67.47,60.28 -103.78,87.2 3.63,-42.78 -3.45,-89.5 -32.22,-123.03 -24.34,-28.58 -62.67,-40.6 -99.19,-41.69 -50.47,-1.48 -100.19,12.74 -145.77,33.54 39.25,14.33 77.86,30.75 114.27,51.32 57.9,32.59 112.12,75.57 146.7,133.19 23.53,39.28 37.4,85.88 31.89,131.88 -64.27,-39.24 -133.71,-71.45 -207.73,-86.9 -80.11,-17.37 -165.2,-13.15 -242.35,15.17 -78.18,28.26 -147.55,78.4 -202.51,140.42 -5.42,5.4 -6.02,13.36 -8.01,20.36 -9.03,35.25 -18.23,70.45 -27.26,105.68 35.87,0.04 71.77,-0.02 107.65,0.04 27.49,0.12 55.33,-3.68 80.9,-14.17 32.28,-12.88 59.7,-36.22 79.64,-64.48 27.19,-38.26 42.2,-83.49 53.32,-128.65 69.73,0.02 139.47,-0.07 209.23,0.04 -45.67,144.99 -91.72,289.85 -137.64,434.77 -336.47,0.02 -672.95,0.07 -1009.44,-0.03 19.5,-75.87 39.12,-151.7 58.8,-227.5 22.54,-0.07 45.07,0.12 67.58,-0.07 16.75,-0.18 33.56,-5.76 46.42,-16.65 14.87,-12.53 25.41,-29.97 30.32,-48.73 46.8,-180.9 93.45,-361.85 140.3,-542.76 -58.73,-46.2 -124.9,-82.7 -194.73,-109.2 -51.23,-19.15 -104.45,-33.77 -158.83,-40.37l0 -1.73c113.83,-48.22 231.81,-89.29 354.44,-107.84 -19.06,-12.2 -38.35,-24.06 -57.37,-36.36 45.23,-7.43 90.95,-11.39 136.65,-14.77 5.72,-22.15 11.39,-44.29 17.18,-66.38 -42.5,-0.05 -85,-0.03 -127.5,-0.03 19.57,-75.84 39.28,-151.67 58.76,-227.54z"/>
   <path class="fil1" d="M672.71 240.39c8.02,-31.08 16.05,-62.16 24.09,-93.22 183.38,0.05 366.74,-0.05 550.12,0.05 -7.94,31.05 -16.02,62.09 -24.04,93.15 -16.11,0.18 -32.23,-0.26 -48.33,0.16 -28.02,2.59 -54.94,16.07 -73.72,37.08 -15.93,17.42 -25.68,39.63 -31.13,62.42 -49.7,-1.86 -99.47,-1.19 -149.17,1.34 20.4,13.06 41.29,25.36 61.86,38.19 -71.71,-7.92 -143.9,-10.24 -215.99,-8.55 6.25,-26.91 17.32,-54.19 12.11,-82.26 -2.96,-18.14 -15.31,-34.26 -32.22,-41.55 -23.02,-11 -49.05,-5.49 -73.58,-6.81zm0.4 491.71c99.61,95.59 167.7,221.11 203.2,353.87 -0.25,5.39 -2.26,10.49 -3.47,15.72 -22.23,85.95 -44.4,171.95 -66.65,257.89 61.86,0.07 123.72,0.05 185.56,0.03 52.11,-0.77 104.22,-16.05 147.18,-45.81 56.16,-38.82 97.06,-97.46 119.83,-161.39 24.71,-0.16 49.47,-0.09 74.2,-0.04 -31.59,100.19 -63.41,200.29 -95.07,300.43 -292.86,0.03 -585.72,0.03 -878.56,0 8.11,-31.01 16.03,-62.07 24.11,-93.08 35.88,-0.18 72.93,-8.06 102.49,-29.34 23.32,-16.61 41.76,-40.67 50.14,-68.16 45.72,-176.69 91.3,-353.43 137.04,-530.12zm736.4 -157.48c22.86,-15.59 49.84,-26.64 77.89,-26.2 11.67,0.19 23.2,2.62 34.41,5.77 -36.47,12.09 -69.64,32.63 -99.05,57.11 -18.32,15.36 -35.3,32.36 -49.87,51.32 18.81,-1.83 37.73,-3.08 56.63,-2.06 42.15,-16.72 85.3,-31.94 130.18,-39.55 26.73,-4.13 55.36,-7.18 81.13,3.1 15.75,6.04 26.82,21.21 28.65,37.87 4.4,34.09 -8.08,67.9 -24.8,97.08 -11.67,19.8 -26.29,38.12 -44.19,52.67 -9.45,-30.46 -21.8,-62.93 -48.59,-82.31 -13.62,-10.82 -31.52,-11.77 -47.94,-14.85 -91.3,-13.34 -184.24,1.85 -271.95,27.89 -77.8,23.32 -152.74,55.37 -225.16,91.94 49.49,21.36 102.55,32.57 155.05,43.71 59.9,12.34 120.23,22.88 179.19,39.3 40.51,11.42 80.63,25.52 117.12,46.8 23.93,14.16 46.46,31.32 64.23,52.86 -56.95,-31.38 -116.91,-58.23 -180.37,-73.35 -29.12,-7.46 -58.99,-10.84 -88.54,-15.94 -103.92,-17.53 -205.71,-47.54 -302.52,-89.12 -0.17,-0.39 -0.49,-1.2 -0.63,-1.62 49.96,-45.97 116.61,-66.03 180.12,-85.51 10.98,-3.91 22.88,-5.67 33.07,-11.51 7.11,-2.01 14.25,-4.07 21.15,-6.85 3.54,-0.88 7.18,-1.53 10.65,-2.76 43.96,-16.07 87.13,-37.31 121.22,-69.99 30.02,-29.57 57.74,-62.07 92.92,-85.8z"/>
   <path class="fil2" d="M1072 395.24c46.76,0.05 93.54,3.8 139.93,9.56 46.95,6.26 93.64,15.54 138.64,30.55 28.99,9.98 57.6,22.12 82.98,39.58 3.2,1.99 5.77,4.75 8.13,7.69 -53.04,15.47 -96.9,53.29 -127.85,98.16 -50.65,-38.82 -106.74,-72.73 -169.27,-88.01 -54.22,-13.74 -113.14,-11.28 -164.67,11.25 -22.07,10.01 -43.94,22.17 -60.8,39.84 28.28,-10.86 59.25,-12.86 89.12,-9.47 -6.81,7.25 -14.24,14.17 -18.76,23.2 -11.81,21.35 -13.08,46.46 -12.6,70.34 0.86,30.48 9.36,61.28 27.38,86.2 4.79,6.58 10.51,12.44 15.59,18.83 -43.68,23.95 -88.73,49.47 -119.19,90.09 -11.55,15.96 -21.4,33.91 -24.87,53.53 67.81,7.99 133.96,26.96 197.72,50.95 21.14,8.92 43.38,16.33 62.44,29.37 -58.02,12.87 -113.76,38.05 -159.44,76.45 -16.23,13.02 -29.71,28.95 -43.89,44 -14.19,-69.38 -37.38,-136.83 -67.95,-200.68 -32.63,-67.7 -74.36,-131.46 -126.66,-185.63 -55.07,-57.55 -122.56,-103.41 -197.16,-131.62 -28.33,-11.05 -57.79,-18.67 -87.34,-25.52 45.21,-20.87 92.32,-37.5 139.68,-52.88 44.05,-13.85 88.91,-25.54 134.61,-32.49 63.66,-9.94 127.84,-16.91 192.23,-19.87 64.38,-2.76 129.53,-2.29 192.8,11.16 -12.99,-15.4 -27.79,-29.18 -40.8,-44.58zm100.28 429.94c8.34,-10.37 23.74,-11.2 35.25,-6.16 26.7,11.88 53.38,23.88 80.11,35.76 7.76,3.48 15.8,6.44 22.86,11.26 -13.85,-0.35 -27.28,-4.03 -40.74,-7.02 -33.42,-8.24 -66.05,-19.75 -97.48,-33.84z"/>
   <path class="fil3" d="M1059.61 591.22c7.31,-16.54 20.17,-30.11 35.57,-39.4 18.62,6.05 36.89,13.14 54.73,21.29 -12.7,-1.81 -26.17,-1 -37.59,5.33 -16.91,8.89 -28.7,27.21 -28.63,46.43 -0.86,17.77 7.88,35.53 22.4,45.74 17.3,12.58 42.29,13.41 60.31,1.88 12.09,-7.06 19.98,-19.48 24.04,-32.61 9.03,6.35 17.76,13.13 26.35,20.1 -7.06,15.68 -18.27,29.6 -32.95,38.73 -23.02,14.96 -53.41,17.51 -78.7,6.99 -20.82,-8.47 -38.01,-25.59 -46.51,-46.39 -9.03,-21.56 -8.61,-46.78 0.98,-68.09zm114.71 -5.67c16.88,9.21 33.02,19.71 48.59,30.98 0.23,5.47 0.44,10.96 0.55,16.47 -10.51,-2.75 -21.03,-5.53 -31.59,-8.01 -0.14,-15.06 -7.52,-28.65 -17.55,-39.44z"/>
   <path class="fil4" d="M1021.21 627.12c-0.79,-31.94 13.52,-62.97 36.06,-85.21 12.87,2.32 25.36,6.3 37.91,9.91 -15.4,9.29 -28.26,22.86 -35.57,39.4 -9.59,21.31 -10.01,46.53 -0.98,68.09 8.5,20.8 25.69,37.92 46.51,46.39 25.29,10.52 55.68,7.97 78.7,-6.99 14.68,-9.13 25.89,-23.05 32.95,-38.73 -8.59,-6.97 -17.32,-13.75 -26.35,-20.1 -13.09,-9.1 -26.8,-17.44 -41.53,-23.55 14.38,2.52 28.7,5.44 42.96,8.66 10.56,2.48 21.08,5.26 31.59,8.01 -0.11,-5.51 -0.32,-11 -0.55,-16.47 10.44,8.06 20.68,16.38 30.48,25.23 -5.19,39.62 -31.94,75.55 -68.67,91.41 -6.9,2.78 -14.04,4.84 -21.15,6.85 -33.77,8.2 -70.96,-0.39 -98.01,-22.09 -27.49,-21.45 -44.63,-55.84 -44.35,-90.81z"/>
  </g>
 </g>
</svg>
