<?xml version="1.0" encoding="UTF-8"?>
<!DOCTYPE svg PUBLIC "-//W3C//DTD SVG 1.1//EN" "http://www.w3.org/Graphics/SVG/1.1/DTD/svg11.dtd">
<!-- Creator: CorelDRAW -->
<svg xmlns="http://www.w3.org/2000/svg" xml:space="preserve" width="2000px" height="1600px" version="1.1" style="shape-rendering:geometricPrecision; text-rendering:geometricPrecision; image-rendering:optimizeQuality; fill-rule:evenodd; clip-rule:evenodd"
viewBox="0 0 2000 1600"
 xmlns:xlink="http://www.w3.org/1999/xlink">
 <defs>
  <style type="text/css">
   <![CDATA[
    .fil1 {fill:#6D2539;fill-rule:nonzero}
    .fil0 {fill:#A7A9AC;fill-rule:nonzero}
    .fil2 {fill:#FEFEFE;fill-rule:nonzero}
   ]]>
  </style>
 </defs>
 <g id="Capa_x0020_1">
  <metadata id="CorelCorpID_0Corel-Layer"/>
  <g id="Little_x0020_Rock_x0020_Trojans.cdr">
   <path class="fil0" d="M606.34 313.53l38.25 0c20.8,1.5 41.63,3.42 62.1,7.58 62.3,12.55 121.11,40.05 172.66,76.96 49.44,35.25 90.1,81.98 120.61,134.31 5,9.11 8.35,18.96 12.94,28.25 295.71,-0.34 591.4,-0.05 887.1,-0.15l0 1.61c-31.48,123.44 -62.17,247.09 -93.4,370.6 -29.58,117.94 -59.37,235.82 -88.91,353.78l-1578.4 0c0.08,-1.06 0.26,-3.17 0.35,-4.24 15.31,-72.66 31.13,-145.26 46.24,-217.98 -25.06,-17.77 -49.98,-35.73 -75,-53.53 -3.71,-2.61 -7.48,-5.17 -10.88,-8.19l0 -0.19c8.09,-4.17 15.79,-9.04 23.69,-13.53 33.76,-19.73 67.64,-39.27 101.32,-59.14 -23.92,-53.02 -37.84,-110.59 -40.11,-168.76 -2.02,-68.58 13.34,-137.37 42.52,-199.37 18.28,-38.99 43.12,-74.71 72.18,-106.41 21.95,-23.95 45.98,-46.22 72.98,-64.41 36,-24.35 75.4,-43.81 116.81,-57.09 37.82,-12.05 77.36,-18.01 116.95,-20.1z"/>
   <path class="fil1" d="M448.51 396.03c67.52,-33.43 144.75,-45.8 219.46,-37.76 64.76,7.05 126.55,33.03 179.93,69.86 44.72,30.62 81.98,71.45 110.24,117.58 5.59,8.3 9.2,17.67 13.11,26.82 4.08,9.83 5.96,20.34 8.75,30.56 288.47,-0.03 576.94,-0.04 865.41,0 -47.8,190.52 -95.81,380.99 -143.66,571.5 -6.05,23.27 -11.42,46.75 -17.86,69.89 -497.49,-0.16 -994.97,0 -1492.47,-0.07 13.92,-66.25 28.19,-132.43 42.21,-198.67 -18.49,-13.03 -36.96,-26.13 -55.21,-39.51 34.49,-19.64 68.57,-40.02 103.04,-59.72 -2.79,-6.45 -6.76,-12.3 -9.79,-18.63 -39.57,-77.76 -54.54,-168.84 -36.59,-254.63 11.2,-54.76 33.15,-107.69 66.28,-152.89 19.69,-26.97 42.52,-51.67 67.85,-73.43 24,-20.44 51.06,-37.02 79.3,-50.9z"/>
   <path class="fil2" d="M865.45 1074.65c16.68,-56.55 32.85,-113.24 49.7,-169.72 24.31,0.08 48.61,0.01 72.9,0.03 16.47,0.21 33.02,-0.71 49.39,1.43 11.29,1.99 23.74,5.39 30.76,15.21 4.9,6.24 4.71,14.73 3.93,22.22 -2.17,14.73 -10.65,28.58 -23.23,36.68 -9.7,6.2 -21.14,9.16 -32.54,10.01 10.09,1.98 22.76,2.19 28.96,11.87 6.43,11.77 1.09,25.18 -2.34,36.99 -2.08,8.61 -5.99,17.09 -5.48,26.1 0.31,4.23 6.19,5.08 6.19,9.13 -23.08,0.2 -46.17,-0.11 -69.24,0.17 -1.64,-3.27 -1.71,-6.95 -1.46,-10.52 1.21,-13.58 6.35,-26.37 9.45,-39.54 1.2,-5.76 1.94,-14.03 -4.87,-16.53 -9.05,-2.35 -18.56,-0.94 -27.79,-1.2 -6.46,22.59 -13.08,45.14 -19.73,67.67 -21.54,0.02 -43.08,0.04 -64.6,0zm627.49 0c16.67,-56.54 33,-113.16 49.64,-169.69 21.52,0.02 43.06,-0.03 64.59,0.02 -6.47,21.94 -12.8,43.92 -19.27,65.86 22.33,-21.97 45.09,-43.51 67.21,-65.67 23.07,-0.43 46.18,-0.19 69.27,-0.13 -28.04,24.66 -55.96,49.46 -84.03,74.07 13.81,31.92 28.13,63.63 41.98,95.54 -24.46,0.1 -48.9,-0.1 -73.35,0.1 -7.15,-19.55 -13.83,-39.29 -20.54,-58.99 -5.5,3.97 -10.61,8.43 -15.92,12.6 -2.52,1.59 -2.72,4.71 -3.56,7.27 -3.74,13.03 -7.49,26.06 -11.44,39.03 -21.53,0 -43.05,0.03 -64.58,-0.01zm-143.11 -154.34c20,-15.01 45.83,-18.03 70.08,-18.75 17.88,0.07 36.65,0.78 52.99,8.88 9.98,4.74 17.7,14.91 17.56,26.24 0.85,10.11 -2.77,19.7 -5.41,29.27 -20.85,0.21 -41.69,0.06 -62.52,0.09 1.89,-7.88 5.14,-15.54 5.41,-23.72 0.34,-4.29 -2.38,-8.78 -6.72,-9.73 -8.74,-2.45 -19.36,-0.26 -25.19,7.06 -5,6.36 -8.12,13.94 -10.84,21.5 -5.65,16.22 -10.43,32.72 -14.84,49.31 -2.22,9.25 -4.91,18.64 -3.86,28.26 0.19,4.27 3.79,8.15 8.08,8.66 7.89,1.31 17.24,0.66 22.69,-5.99 8.05,-9.95 11.26,-22.73 15,-34.72 20.86,-0.09 41.73,0.03 62.61,-0.06 -3.13,10.3 -5.52,21.02 -11.05,30.39 -10.46,18.61 -29.7,31.15 -50.2,36.07 -21.09,5.05 -43.04,4.76 -64.54,3.36 -12.26,-1.51 -25.31,-3.31 -35.45,-10.96 -7.83,-5.88 -12.03,-15.64 -12.3,-25.28 -0.99,-18.99 4.42,-37.49 9.58,-55.56 7.74,-23.9 17.98,-48.98 38.92,-64.32zm303.78 -259.44c39.27,-0.28 78.54,-0.05 117.8,-0.11 -4.01,13.76 -7.62,27.67 -12.25,41.24 -5.47,-0.26 -10.91,-1.06 -16.36,-0.44 -4.26,-0.34 -8.51,-0.37 -12.74,0 -12.2,-0.11 -24.52,-0.95 -36.63,0.44 -2.94,10.69 -6.1,21.31 -9.26,31.94 20.61,0.04 41.2,-0.02 61.8,0.02 -3.66,13.02 -7.81,25.88 -11.23,38.95 -20.63,0.07 -41.28,-0.01 -61.91,0.04 -3.76,12.66 -7.3,25.39 -11.18,38.03 22.86,0.01 45.72,0 68.58,0 -4.14,13.42 -7.79,26.99 -11.91,40.41 -40,-0.02 -80.01,0.09 -120,-0.05 17.94,-63.62 37.05,-126.92 55.29,-190.47zm-149.65 -0.1c17.28,0 34.55,-0.1 51.84,0.06 -14.4,50.09 -29.18,100.07 -43.71,150.12 21.17,0.1 42.34,-0.03 63.51,0.07 -3.51,13.51 -7.9,26.78 -11.47,40.28 -38.62,0.14 -77.24,0.22 -115.86,-0.05 18.85,-63.4 37.25,-126.95 55.69,-190.48zm-290.13 -0.04c85.91,0.06 171.82,-0.01 257.72,0.04 -3.79,14 -8.36,27.79 -11.9,41.85 -11.36,0.3 -22.72,0.1 -34.08,0.12 -1.88,0.22 -5.07,-0.57 -5.75,1.82 -14.09,48.97 -28.58,97.83 -42.71,146.79 -17.32,0.1 -34.64,0.03 -51.95,0.04 13.3,-45.55 26.58,-91.11 39.9,-136.66 1.07,-3.84 2.09,-7.69 3.58,-11.39 -4.58,-0.9 -9.23,-0.53 -13.85,-0.56 -20.91,-0.03 -41.81,0.03 -62.7,-0.03 -7.52,24.27 -14.29,48.8 -21.57,73.16 -7.06,25.11 -14.99,49.99 -21.62,75.22 -17.39,0.55 -34.83,0.25 -52.23,0.15 14.42,-49.49 28.95,-98.98 43.31,-148.49 -12.72,-0.08 -25.44,0.07 -38.16,-0.08 3.7,-14.08 8.15,-27.94 12.01,-41.98zm-82.76 0.04c17.31,0.12 34.63,-0.32 51.93,0.22 -18.92,63.37 -37.2,126.95 -55.74,190.43 -17.28,-0.07 -34.54,0.02 -51.82,-0.04 18.41,-63.57 36.98,-127.1 55.63,-190.61zm-147.92 -0.03c17.32,0.08 34.64,-0.08 51.96,0.08 -14.48,50.07 -29.3,100.04 -43.72,150.13 21.19,0.08 42.37,-0.02 63.56,0.05 -3.67,13.52 -8.04,26.81 -11.59,40.35 -38.59,0.04 -77.19,0.13 -115.79,-0.03 18.63,-63.5 37.29,-126.99 55.58,-190.58zm-549.56 -281.18c56.48,-29.09 119.91,-44.1 183.37,-44.57 7.53,-1.06 15.08,0.22 22.63,0.14 67.61,1.12 133.7,22.9 191.7,56.99 43.93,25.66 83.54,59.01 114.91,99.16 21.14,27.31 41.72,56.35 50.5,90.27 292.04,0.13 584.07,-0.03 876.11,0.07 -55.54,222.02 -111.61,443.91 -167.31,665.89 -1.86,5.89 -2.4,12.42 -5.1,17.93 -168.56,0.24 -337.14,0.03 -505.7,0.1 -343.27,-0.02 -686.54,0.04 -1029.8,-0.03 15.02,-70.06 29.91,-140.13 44.78,-210.22 -23.38,-17.11 -47.21,-33.6 -70.59,-50.72 37.82,-22.23 75.83,-44.14 113.68,-66.35 -34.8,-68.83 -51.81,-147.1 -45.25,-224.14 7.15,-76.55 34.68,-151.69 81.43,-212.98 15.78,-20.82 33.47,-40.18 52.48,-58.07 27.15,-25.83 58.73,-46.68 92.16,-63.47zm14.92 16.47l0 0c-28.24,13.88 -55.3,30.46 -79.3,50.9 -25.33,21.76 -48.16,46.46 -67.85,73.43 -33.13,45.2 -55.08,98.13 -66.28,152.89 -17.95,85.79 -2.98,176.87 36.59,254.63 3.03,6.33 7,12.18 9.79,18.63 -34.47,19.7 -68.55,40.08 -103.04,59.72 18.25,13.38 36.72,26.48 55.21,39.51 -14.02,66.24 -28.29,132.42 -42.21,198.67 497.5,0.07 994.98,-0.09 1492.47,0.07 6.44,-23.14 11.81,-46.62 17.86,-69.89 47.85,-190.51 95.86,-380.98 143.66,-571.5 -288.47,-0.04 -576.94,-0.03 -865.41,0 -2.79,-10.22 -4.67,-20.73 -8.75,-30.56 -3.91,-9.15 -7.52,-18.52 -13.11,-26.82 -28.26,-46.13 -65.52,-86.96 -110.24,-117.58 -53.38,-36.83 -115.17,-62.81 -179.93,-69.86 -74.71,-8.04 -151.94,4.33 -219.46,37.76zm107.24 27.66c39.34,-7.43 79.96,-8.81 119.58,-2.72 36.73,5.83 72.09,19 104.66,36.8 24.06,13.23 46.75,29.05 67.03,47.57 24.12,22.14 44.5,48.18 61.32,76.22 4.68,7.98 9.45,15.95 13.05,24.49 -36.4,17.73 -73.21,34.66 -109.53,52.53 -4.01,-4.65 -7.35,-9.8 -11.33,-14.45 -8.95,-11.28 -19.75,-20.9 -30.3,-30.63 -1.92,-2.14 -4.73,-2.39 -7.42,-2.27 -6.75,7.01 -13.51,14.02 -20.45,20.84 -0.99,4.95 2.38,8.78 5.81,11.81 20.99,19 36.71,43.14 49.09,68.43 11.55,23.51 18.9,48.79 24.91,74.21 6.65,29.67 11.58,59.72 14.73,89.96 -10.34,1.48 -20.77,2.13 -31.16,3.07 2.85,35.55 1.56,71.35 -3.74,106.6 -0.76,8.42 -2.47,17.39 -8.31,23.89 -4.21,4.59 -10.82,5.51 -16.74,5.34 -16.73,-0.34 -33.43,-2.34 -49.81,-5.74 -3.7,-0.75 -7.32,-2.04 -11.13,-1.99 -2.54,8.93 -6.79,17.29 -11.54,25.22 11,2.05 22.09,3.82 32.88,6.87 18.13,4.68 35.4,12.09 52.33,19.98 9.23,4.53 18.72,8.7 27.42,14.23 -4.85,1.32 -9.76,2.28 -14.7,3.02 -19.35,3.57 -38.21,11.48 -53.13,24.5 -1.85,2.15 -4.56,0.91 -6.65,-0.07 -13.98,-6.59 -28.67,-11.6 -43.59,-15.54 -11.18,-3.18 -22.32,-6.63 -33.78,-8.68 -5.47,-1.08 -11.27,-0.35 -16.48,-2.56 -9.52,-3.66 -18.49,-10.67 -21.73,-20.66 -10.42,-28.64 -18.35,-58.08 -27.33,-87.19 -1.72,-5.05 -2.3,-11.07 -6.8,-14.6 -4.94,-4.69 -12.26,-4.26 -18.55,-3.75 -22.99,2.68 -45.46,16.87 -54.7,38.56 -3.13,6.96 -6.01,14.29 -5.86,22.05 22.26,13.77 40.24,33.26 56.79,53.3 12.65,14.87 21.23,32.81 26.92,51.37 -23,-16.13 -47.4,-30.26 -72.65,-42.55 -15.45,-7.81 -31.42,-14.58 -47.92,-19.8 -12.03,-3.81 -23.95,-8.09 -36.37,-10.38 -23.07,-4.67 -46.69,-3.2 -70.07,-4.21 -27.14,-1.02 -53.64,-9.53 -76.96,-23.31 -1.01,-0.47 -3.57,-2.14 -1.05,-2.82 18.06,-10.25 35.75,-21.18 53.96,-31.11 14.4,7.34 30.53,11.47 46.77,10.03 -30.7,-29.66 -56.35,-64.81 -74.02,-103.73 -24.22,-54.38 -35.69,-115.18 -28.37,-174.52 4.41,-35.8 14.49,-70.88 29.66,-103.61 21.41,-46.19 54.78,-86.23 93.74,-118.69 41.31,-32.2 90.11,-55.06 141.52,-65.31zm67.55 138.64l0 0c1.19,10.19 -1.27,21.16 2.92,30.79 9.93,2.05 20.31,1.43 30.31,3.53 4.76,0.71 10.92,3.72 14.6,-0.92 2.82,-5.13 4.43,-10.84 6.9,-16.13 1.61,-4.11 4.43,-8.77 1.84,-13.09 -3.46,-3.68 -8.78,-4.45 -13.5,-5.34 -11.16,-2.42 -22.55,-3.81 -33.95,-4.29 -3.99,-0.57 -6.88,2.65 -9.12,5.45zm-30.26 -3.68l0 0c-12.08,1.35 -23.98,4.21 -35.55,7.93 -3.71,0.95 -7.59,4.83 -5.96,8.89 3.82,9.42 8.16,18.64 12.18,27.99 1.53,3.44 6.1,2.8 8.88,1.4 10.34,-4.44 21.24,-7.33 32.02,-10.46 5.03,-2.89 4.88,-9.61 4.59,-14.68 -0.47,-6.34 0.97,-13.12 -1.66,-19.1 -3.34,-4.77 -9.74,-2.22 -14.5,-1.97zm106.26 13.09l0 0c-2.11,0.92 -2.92,3.41 -3.83,5.36 -2.39,6.69 -5.25,13.2 -7.7,19.87 -1.25,3.36 -0.2,7.65 3.24,9.25 8.23,4.58 17.22,7.79 25.07,13.09 3.23,1.99 6.3,4.51 10.08,5.36 6.66,0.02 9.99,-6.72 14.53,-10.49 3.46,-4.06 9.51,-7.08 9.14,-13.21 0.08,-2.16 -0.44,-4.63 -2.35,-5.89 -13.16,-9.8 -27.93,-17.23 -43.09,-23.4 -1.69,-0.6 -3.39,-0.58 -5.09,0.06zm-171.01 7.46l0 0c-12.28,7.04 -23.47,15.83 -34.22,24.98 -3.48,2.68 -2.5,7.55 -0.07,10.58 5.3,6.54 11.61,12.15 17.97,17.63 2.06,1.93 5.19,3.76 7.91,1.9 7.63,-5.06 14.71,-10.96 22.84,-15.27 3.14,-1.79 7.61,-3.72 7.48,-8.04 -1.97,-6.59 -5.06,-12.79 -7.55,-19.18 -2.24,-4.8 -3.23,-10.5 -7.61,-13.96 -2.29,0.21 -4.75,0.01 -6.75,1.36zm70.23 33.13l0 0c-22.39,5.16 -43.69,14.91 -62.4,28.22 -26.4,19.54 -44.38,48.48 -55.44,79.02 -9.14,24.85 -13.17,51.8 -10.14,78.15 3.11,32.06 17.15,62.24 35.77,88.17 -16.61,20.74 -34.54,40.44 -51.01,61.3 14.63,-2 29.51,-0.95 44.07,-3.61 22.25,-3.12 43.11,-14.24 58.63,-30.41 10.37,-11.22 18.35,-25.15 20.72,-40.39 1.8,-10.17 -4.04,-20.04 -11.29,-26.67 -6.94,-3.04 -13.08,-8.42 -15.57,-15.76 -1.21,-6.16 -0.78,-12.99 2.49,-18.5 4.17,-6.92 12.01,-11.64 20.11,-11.88 5.76,1.25 11.79,3.1 16.31,7.07 5.2,5.81 7.69,14.16 6.18,21.82 4.02,39.33 15.42,79.62 41.56,110.18 12.04,14.17 27.15,26.69 45.41,31.6 18.8,5.25 39.83,2.69 56.63,-7.35 -12.55,-3.21 -24.43,-9.77 -32.9,-19.67 -6.67,-7.95 -12.06,-16.97 -15.87,-26.61 -9.38,-26.43 -7.18,-56.68 5.48,-81.66 7.96,-13.37 10.63,-29.22 11.03,-44.57 -0.38,-23.79 -7.92,-47.4 -20.96,-67.27 -14.15,-20.42 -35.6,-36.28 -59.91,-42.1 -10.94,-2.18 -22.26,-1.84 -33.28,-0.44 -6.14,0.74 -12.16,3.95 -18.41,2.19 -7.11,-1.21 -12.49,-8.41 -12.06,-15.52 -0.39,-6.94 4.78,-12.82 10.56,-15.92 13.2,-4.94 27.28,-7.15 41.3,-7.91 22.01,-0.27 44.03,4.53 64.18,13.32 31.45,14.53 57.71,38.74 77.79,66.72 2.71,3.47 4.68,8.43 9.48,9.4 7.77,1.63 14.87,-7.22 11.54,-14.5 -6.01,-13.73 -13.6,-26.75 -22.09,-39.08 -19.32,-28.14 -47.01,-51.04 -79.41,-62.32 -25.12,-8.49 -52.5,-10.39 -78.5,-5.02zm-126.21 14.04l0 0c-11.29,11.66 -19,26.1 -27.61,39.71 0.54,2.3 1.75,4.32 3.11,6.22 10.04,3.73 19.7,9.35 30.53,10.34 5.76,-8.58 10.9,-17.62 17.77,-25.42 2.17,-2.96 5.97,-5.44 5.72,-9.55 0.2,-4.09 -3.34,-6.65 -5.97,-9.19 -4.7,-4.26 -8.98,-8.96 -13.82,-13.06 -2.78,-2.63 -7.45,-1.99 -9.73,0.95zm-33.34 60.09l0 0c-3.64,2.57 -4.89,7.06 -6.05,11.11 -3.04,11 -6.23,22.22 -5.89,33.73 0.31,3.97 2.27,8.54 6.5,9.56 5.69,1.66 11.74,1.6 17.62,1.29 3.6,0.06 6.84,-2.62 7.49,-6.16 2.56,-11.35 6.73,-22.24 10.92,-33.07 1.39,-3.4 -0.81,-7.46 -4.15,-8.7 -5.89,-2.64 -12.07,-4.61 -18.02,-7.16 -2.64,-0.99 -5.84,-2.72 -8.42,-0.6zm-9.76 77.23l0 0c3,17.45 8.61,34.41 15.71,50.61 4.4,1.49 9.54,0.17 11.13,-4.58 -3.07,-15.1 -2.62,-30.66 -2.4,-45.99 0.47,-2.82 -1.86,-4.7 -3.96,-5.97 -5.79,-0.56 -11.63,0.14 -17.42,-0.22 -1.56,1.76 -3.77,3.46 -3.06,6.15zm332.24 17.67l0 0c-13.83,0.87 -27.56,2.77 -41.36,3.84 20.38,11.64 40.7,23.41 61.19,34.84 -5.08,-13.21 -9.46,-26.75 -15.28,-39.67 -1.5,0.47 -3.02,0.8 -4.55,0.99zm435.45 120.95c15.81,-1.57 31.82,-0.74 47.48,1.85 12.99,2.5 26.85,7.99 33.69,20.07 7.49,13.2 5.82,29.09 3.5,43.45 -4.56,23.03 -11.74,45.83 -23.65,66.17 -9.9,16.66 -25.36,30.16 -43.86,36.36 -19.83,6.77 -41.08,7.55 -61.85,6.9 -15.29,-0.62 -31.51,-2.27 -44.66,-10.78 -10.94,-7.18 -15.74,-20.72 -15.67,-33.35 0.02,-15.14 3.63,-30.01 7.81,-44.47 7.08,-23.21 16.59,-47.09 35.2,-63.53 16.89,-15.17 39.83,-21.23 62.01,-22.67zm-1.7 30.84l0 0c-9.17,3.12 -13.74,12.54 -17.34,20.79 -6.6,16.69 -11.33,34.05 -16.27,51.28 -2.34,10.53 -6.1,21.02 -5.5,31.95 0.02,4.95 3.71,9.92 8.88,10.28 6.93,0.8 14.85,0.95 20.61,-3.63 6.74,-5.19 10.01,-13.37 13.28,-20.94 6.01,-16.28 10.77,-32.99 15.37,-49.73 2.2,-8.8 4.76,-17.59 5.33,-26.68 0.26,-4.62 -0.63,-10.09 -4.83,-12.77 -6.11,-2.86 -13.23,-2.54 -19.53,-0.55zm-236.5 43.76l0 0c10.89,-0.07 22.53,0.95 32.48,-4.4 9.37,-4.8 15.43,-15.59 13.99,-26.13 -0.67,-4.36 -4.94,-7.01 -8.88,-8.03 -8.53,-1.93 -17.32,-0.99 -25.97,-1.26 -4.01,13.23 -7.85,26.53 -11.62,39.82z"/>
  </g>
 </g>
</svg>
