<?xml version="1.0" encoding="UTF-8"?>
<!DOCTYPE svg PUBLIC "-//W3C//DTD SVG 1.1//EN" "http://www.w3.org/Graphics/SVG/1.1/DTD/svg11.dtd">
<!-- Creator: CorelDRAW -->
<svg xmlns="http://www.w3.org/2000/svg" xml:space="preserve" width="2000px" height="1600px" version="1.1" style="shape-rendering:geometricPrecision; text-rendering:geometricPrecision; image-rendering:optimizeQuality; fill-rule:evenodd; clip-rule:evenodd"
viewBox="0 0 2000 1600"
 xmlns:xlink="http://www.w3.org/1999/xlink">
 <defs>
  <style type="text/css">
   <![CDATA[
    .fil0 {fill:black;fill-rule:nonzero}
   ]]>
  </style>
 </defs>
 <g id="Capa_x0020_1">
  <metadata id="CorelCorpID_0Corel-Layer"/>
  <path id="Long_x0020_Beach_x0020_State_x0020_49ers.cdr" class="fil0" d="M650.25 104.07c38.5,-19.93 82.66,-25.26 125.5,-23.86 3.4,0.42 6.78,1.01 10.11,1.82 -1.48,2.29 -2.91,4.78 -5.43,6.06 -44.79,25.32 -75.1,69.97 -94.1,116.76 -21.27,54.67 -29.61,113.75 -28.93,172.19 2.18,57.6 6.86,115.46 20.32,171.72 8.5,34.23 22.23,68.83 47.78,93.99 4.84,5.51 13.88,7.88 15.55,15.62 -11.1,6.24 -21.24,14.43 -28.18,25.24 -28.34,40.79 -36.42,91.24 -41.67,139.54 -3.67,46.97 -5.67,94.38 -0.94,141.33 3.43,38.81 19.65,76.92 47.86,104.18 31.37,32.78 76.19,49.63 120.79,53.32 -0.15,-26.62 -6.86,-52.77 -15.77,-77.7 -15.99,-48.01 -42.9,-91.55 -73.15,-131.79 50.69,-67.32 81.18,-149.88 84.66,-234.18 3.67,-23.26 -0.05,-46.61 -0.99,-69.9 -11.56,-105.3 -59.11,-204.44 -125.6,-286.04 -4.19,-4.16 -4.89,-10.06 -4.03,-15.65 15.91,-0.41 28.7,10.06 42.34,16.67 46.4,23.78 86.17,58.54 120.98,97.01 4.08,4.83 7.64,10.21 12.61,14.22 5.9,3.06 12.27,-0.97 17.8,-3.05 18.93,-8.52 39.41,-12.5 59.48,-17.33 43.54,-9.78 88.09,-16.09 132.8,-15.29 76.37,-0.83 153.13,20.46 217.34,62.1 38.58,23.08 74.66,52.82 97.24,92.31 11.78,22.35 19.27,46.89 33.38,68.02 6.97,11.05 16.53,20.04 25.58,29.33 -13.44,14.11 -28.1,27.94 -35.01,46.73 -9.91,28.41 -17.55,58.05 -33.17,84.07 -19.34,37.35 -53.14,64.44 -87.66,87.13 65.54,26.25 130.91,59.63 178.56,113.02 30.72,37.12 49.88,82.4 63.58,128.26 3.72,12.32 9.51,24.41 19.11,33.3 6.1,5.48 12.5,10.73 18.37,16.53 -3.97,7.41 -12.32,10.47 -18.01,16.27 -10.71,9.36 -17.81,22.12 -22.25,35.48 -14.61,49.18 -37.46,97.06 -72.99,134.63 -12.74,14.16 -28.15,25.5 -42.82,37.56 -40.13,31.48 -86.82,53.6 -134.62,70.73 -39.22,12.47 -79.33,24.04 -120.66,25.99 -28.7,0.7 -57.5,1.12 -86.02,-2.55 -57.73,-6.29 -114.16,-21.13 -169.77,-37.48 -19.13,-5.61 -37.53,-13.18 -55.96,-20.67 -17.39,15.6 -34.16,31.95 -52.61,46.3 -21.27,16.72 -44.01,31.51 -67.9,44.16 -8.68,4.24 -17.03,11.34 -27.32,9.54 0,-7.14 5.22,-12.37 9.1,-17.8 51.52,-70.06 93,-149.52 108.08,-235.82 0.42,-12.24 0.31,-24.51 0,-36.76 -0.93,-0.72 -2.83,-2.18 -3.77,-2.88 -28.83,-5.59 -57.81,-10.68 -85.94,-19.16 -44.99,-13.52 -86.48,-36.26 -126.82,-59.92 -34.86,33.54 -81.1,55.76 -129.76,57.92 -19.14,2.31 -38.55,3.3 -57.82,1.71 5.7,-6.65 14.8,-8.18 22.15,-12.34 34,-16.33 60.54,-45.67 76.22,-79.7 17.93,-38.16 27.14,-79.93 30.54,-121.78 2.37,-70.03 0.88,-140.66 -13.52,-209.44 -7.59,-35.04 -18.66,-70.29 -40.11,-99.5 -7.22,-10.14 -17.96,-16.72 -27.84,-23.94 6.89,-7.02 15.97,-11.31 22.93,-18.25 14.9,-14.25 23.47,-33.69 29.09,-53.21 13.67,-45.98 18.56,-93.97 21.57,-141.64 1.25,-65.98 3.46,-133.33 -14.89,-197.4 -18.56,-66.08 -60.31,-128.8 -123.01,-159.89 0.08,-1.17 0.26,-3.54 0.34,-4.71 41.46,-0.13 84.41,-0.96 123.76,14.01 24.36,8.81 45.05,24.75 64.78,41.1 14.79,-13.88 30.39,-27.27 48.74,-36.24zm284.48 425.35l0 0c-0.39,11.54 5.74,21.78 8.68,32.67 22.36,66.81 30.15,138.18 24.38,208.29 -1.51,22.72 -6.11,45.05 -9.54,67.51 34.16,4.99 68.73,6.31 103.23,5.53 69.97,-2.13 142.18,-18.97 198.62,-62.3 14.35,-10.17 27.71,-23.09 33.48,-40.14 1.9,-10.27 1.97,-21 0.18,-31.3 -9.18,-27.29 -36.47,-42.88 -62.52,-50.89 -0.05,-0.83 -0.15,-2.5 -0.2,-3.33 20.04,-10.21 38.1,-26.8 44.34,-49.1 8.14,-23.32 -2.39,-50.85 -23.03,-63.97 -43.36,-28.36 -95.74,-38.63 -146.68,-41.83 -58.08,-2.21 -117.58,4.66 -170.94,28.86zm24.98 461.08l0 0c-4.5,1.2 -7.59,5.64 -5.75,10.27 4.16,20.45 8.48,40.91 11,61.68 2.39,18.17 6.94,36.13 6.94,54.54 47.57,-3.54 96.96,-6.68 140.21,-28.93 30.91,-15.34 58.1,-43.1 62.78,-78.53 1.69,0.15 5.02,0.41 6.68,0.57 3.66,43.1 0.96,88.69 -20.8,127.16 -3.69,7.07 -9.22,13.05 -12.71,20.25 -1.69,9.54 8.68,14.43 12.92,21.66 25.16,35.89 25.68,81.75 23.34,123.78 -1.3,0.21 -3.92,0.62 -5.22,0.83 -10.03,-10.27 -13.65,-25.06 -24.23,-34.93 -29.66,-29.17 -70.88,-43.68 -111.62,-48.07 -25.73,-1.43 -51.54,-1.12 -77.33,-0.41 -5.72,24.14 -10.63,48.61 -19.26,71.95 -3.25,9.07 -8.55,17.49 -9.88,27.19 63.22,20.07 127.87,39.95 194.88,39.66 70.78,2.4 142.4,-13.49 204.81,-47.23 28.28,-14.87 58.02,-32.02 74.06,-60.82 11.15,-17.52 12.76,-41.8 0.7,-59.27 -11.26,-18.2 -31.09,-28.62 -50.82,-35.17 11.62,-9.41 26.93,-13.67 36.7,-25.53 12.48,-11.28 14.17,-29.58 9.72,-44.97 -7.87,-30.62 -31.14,-55.31 -57.91,-70.96 -54.74,-29.89 -116.17,-46.84 -178.19,-51.99 -14.84,0.47 -29.5,-2.36 -44.29,-1.92 -17.03,2.7 -34.4,0.57 -51.37,3.61 -39.2,4.5 -77.9,13.18 -115.36,25.58z"/>
 </g>
</svg>
