<?xml version="1.0" encoding="UTF-8"?>
<!DOCTYPE svg PUBLIC "-//W3C//DTD SVG 1.1//EN" "http://www.w3.org/Graphics/SVG/1.1/DTD/svg11.dtd">
<!-- Creator: CorelDRAW -->
<svg xmlns="http://www.w3.org/2000/svg" xml:space="preserve" width="2000px" height="1600px" version="1.1" style="shape-rendering:geometricPrecision; text-rendering:geometricPrecision; image-rendering:optimizeQuality; fill-rule:evenodd; clip-rule:evenodd"
viewBox="0 0 2000 1600"
 xmlns:xlink="http://www.w3.org/1999/xlink">
 <defs>
  <style type="text/css">
   <![CDATA[
    .fil2 {fill:#081F40;fill-rule:nonzero}
    .fil1 {fill:#B6B8B9;fill-rule:nonzero}
    .fil0 {fill:#FEFEFE;fill-rule:nonzero}
   ]]>
  </style>
 </defs>
 <g id="Capa_x0020_1">
  <metadata id="CorelCorpID_0Corel-Layer"/>
  <g id="Longwood_x0020_Lancers.cdr">
   <path class="fil0" d="M1145.4 306.98c62.99,7.7 125.43,23.35 183.21,49.88 9.46,8.45 13.41,21.62 22.05,30.77 28.92,19.48 57.6,39.35 85.93,59.7 10.35,7.8 18.75,18.64 22.42,31.17 2.39,7.94 2.04,17.09 -2.91,24.02l-1.1 -0.57c-2.84,-15.37 -11.04,-29.74 -23.68,-39.17 -26.64,-19.99 -54.57,-38.25 -82.91,-55.72 -4.44,-2.92 -9.51,-5.01 -13.37,-8.73 -6.74,-8.97 -11.47,-19.32 -18.4,-28.14 -23.11,-11.31 -47.97,-18.84 -72.9,-25.13 -29.85,-7.11 -60.3,-12.07 -90.97,-13.72 -0.57,-2.21 -1.15,-4.4 -1.61,-6.63 -1.06,-6.16 -3.19,-12.05 -5.76,-17.73zm-512.14 1038.61c3.36,-9.19 5.88,-18.72 10.1,-27.57 3.65,9.05 6.62,18.35 9.81,27.57 -6.64,0.02 -13.28,0.02 -19.91,0zm867.33 -654.39c15.41,-2.28 30.74,-5.78 46.26,-7.17 37.99,7.89 76.04,15.66 113.93,24.04 -86.72,0.31 -173.46,0.22 -260.18,0.05 33.19,-6.34 66.68,-11.18 99.99,-16.92zm-253.61 -313.1c0.29,-4.17 3.86,-6.76 6.83,-9.17 11.21,4.45 21.14,11.54 32.24,16.28 -8.58,6.67 -20.76,7.65 -30.68,3.62 -4.31,-1.8 -8.85,-5.59 -8.39,-10.73zm-273.58 -13.05c29.81,-16.15 61.17,-29.85 94.11,-38.23 9.03,9.36 19.96,16.7 31.92,21.76 -56.42,9.94 -109.19,34.34 -158.35,63.09 -41.68,24.69 -81.21,52.98 -118.3,84.15 -3.96,3.13 -7.29,7.37 -12.19,9.1 44.22,-56.85 99.6,-105.22 162.81,-139.87z"/>
   <path class="fil1" d="M1048.65 213.61l22.73 0c62.12,3.87 124.22,23.63 173.84,61.89 5.17,3.86 9.72,9 16.13,10.82 31.82,9.11 62.61,21.66 91.97,36.9 4.42,2.43 9.2,4.39 13.11,7.64 7.55,8.8 10.34,21.06 19.12,28.86 29.49,21.96 58.93,44.01 88.35,66.06 4.13,3.19 9.68,1.95 14.55,2.33 12.33,17.71 24.67,35.39 36.9,53.15 -2.54,8.62 -5.23,17.2 -7.94,25.77 3.86,7.3 8.16,14.37 12.21,21.58 -19.91,26.49 -39.95,52.9 -59.8,79.44 -2.99,5.07 -9.35,4.95 -14.46,5.81 -42.48,4.97 -85.26,-10.05 -119.38,-34.89 -13.03,-9.74 -27.34,-17.61 -42.11,-24.36 -17.5,18.58 -42.65,27.94 -67.5,31.27 -25.51,3.44 -51.93,0.63 -75.91,-8.8 -20.87,24.52 -35.8,55.91 -34.35,88.69 68.76,0.04 137.49,0 206.24,0.02 8.18,-0.02 16.43,0.41 24.55,-0.75 44.15,-7.41 88.3,-14.8 132.46,-22.03 21.75,-3.16 43.35,-8.18 65.19,-10.21 106.37,21.93 212.63,44.65 318.97,66.87 12.13,2.71 24.46,4.75 36.48,8.04 -44.8,10.18 -89.84,19.29 -134.73,29.06 -98.49,21.11 -197.02,42.02 -295.51,63.23 -6.32,1.55 -12.63,-0.82 -18.8,-1.97 -46.76,-9.77 -93.56,-19.3 -140.3,-29.13 -8.54,-1.66 -17.28,-1.01 -25.91,-1.06 -23.45,-0.05 -46.91,0.08 -70.34,-0.1 -3.79,-0.06 -7.77,0.12 -10.96,2.4 -47.75,30 -95.68,59.68 -143.47,89.61 -7.47,4.72 -14.79,9.88 -23.14,12.96 -17.58,6.83 -37.53,7.03 -55.28,0.72 -11.62,-3.9 -22.05,-10.57 -31.77,-17.91 -39.21,-29.03 -79.04,-57.18 -118.99,-85.14 -5.52,-4.17 -12.85,-2.18 -19.23,-2.58 -237.2,0.07 -474.39,0 -711.57,0.04l0 -1.03c21.28,-33.54 41.92,-67.47 63.16,-101.02 102.79,-0.05 205.57,0.12 308.34,-0.08 -36.37,-18.25 -73.5,-34.91 -110.85,-51.08 -72.18,-31.12 -145.44,-59.63 -219.18,-86.82 14.34,-3.22 28.84,-5.5 43.31,-8.06 56.05,-9.26 112.46,-16.6 169.12,-20.86 -10.63,-31.07 -24.47,-60.94 -36.85,-91.34 65.55,13.44 130.29,30.9 193.76,52.02 2.47,1.13 4.87,0.29 6.81,-1.39 21.91,-16.22 44.71,-31.22 68.11,-45.17 2.34,-1.19 4.82,-3.18 7.58,-1.98 10.79,3.14 21.19,7.5 31.82,11.17 52.23,-29.36 106.64,-54.94 163.12,-75.03 -37.29,-7.54 -75.13,-11.69 -112.73,-17.23 40.16,-15.95 81.9,-27.62 123.99,-37.24 58.55,-13.24 118.27,-21.14 178.23,-23.88 -0.69,-11.39 -0.89,-22.81 -0.05,-34.21 30.39,-4.01 61.19,-1.56 91.34,3.28 -5.81,-8.87 -12.44,-17.23 -20.38,-24.28zm289.71 1080.8c8.15,-2.69 16.88,-1.8 25.31,-1.97 11.97,0.16 23.95,-0.34 35.92,0.33 6,0.42 12.86,1.39 16.73,6.58 5.04,6.84 4.6,15.83 5.28,23.9 -10.63,0.15 -21.24,0.07 -31.85,0.07 -1.12,-2.9 0.26,-8.59 -4.03,-8.98 -9.12,-0.93 -18.36,-0.6 -27.48,0.17 0.24,3.48 -1.41,7.87 1.26,10.71 14.94,2.63 30.21,2.83 45.23,4.96 6.24,0.8 12.66,3.96 15.42,9.92 2.93,6.36 2.89,13.62 2.69,20.51 -0.45,7.71 -2.33,16.32 -8.75,21.33 -5.55,4.34 -12.97,4.35 -19.68,4.44 -15.98,-0.16 -31.97,0.08 -47.95,-0.1 -6.66,-0.26 -14.63,-1.07 -18.64,-7.15 -4.49,-7.29 -4.05,-16.27 -4.17,-24.5 10.5,-0.06 21.01,-0.09 31.5,0.01 0.5,3.21 1.01,6.4 1.51,9.62 10.87,0.98 21.86,1.06 32.73,-0.1 0.2,-3.47 0.91,-7.05 -0.16,-10.44 -1.99,-1.46 -4.54,-1.61 -6.85,-1.96 -12.64,-1.33 -25.31,-2.28 -37.93,-3.73 -6.15,-0.73 -12.72,-3.16 -15.98,-8.75 -4.08,-6.96 -3.7,-15.38 -3.43,-23.14 0.45,-8.71 4.48,-18.62 13.32,-21.73zm-159.89 -1.99c25.68,0.24 51.4,-0.37 77.08,0.35 8.53,-0.11 18.4,3.05 21.59,11.81 2.85,9.38 3.02,19.97 -0.41,29.23 -2.33,6.4 -9.23,8.66 -15.14,10.39 6.48,1.53 14.21,4.43 15.52,11.92 1.57,9.98 1.32,20.14 2.57,30.19 -11.83,0 -23.68,0.12 -35.51,-0.09 -1.39,-8.52 -1.2,-17.17 -2.35,-25.7 -0.08,-3.2 -2.85,-5.45 -5.83,-5.77 -7.56,-1.05 -15.22,-0.45 -22.82,-0.54 -0.07,10.7 0.02,21.4 -0.05,32.1 -11.56,0.03 -23.13,0.02 -34.68,0 0,-31.29 -0.09,-62.58 0.03,-93.89zm34.67 21.95l0 0c0,6.38 0,12.77 0.01,19.17 8.39,-0.12 16.82,0.51 25.19,-0.23 3.94,-0.68 4.13,-5.67 4.39,-8.83 -0.17,-3.49 -0.05,-8.76 -4.27,-9.82 -8.42,-0.86 -16.89,-0.17 -25.32,-0.29zm-171.83 -21.93c30.47,-0.05 60.95,0.14 91.42,-0.1 0.44,7.46 0.29,14.91 0.22,22.39 -18.98,0.09 -37.96,-0.02 -56.94,0.05 -0.03,4.49 -0.05,9 -0.05,13.53 13.84,0.31 27.67,0.08 41.51,0.12 0.14,6.86 0.14,13.73 0.05,20.61 -13.84,0.05 -27.67,-0.02 -41.51,0.01 -0.03,5.08 -0.05,10.14 -0.07,15.21 18.95,0.4 37.89,0.19 56.82,0.1 0.36,7.31 0.28,14.63 0.19,21.95 -30.55,0.02 -61.12,0.02 -91.67,0 -0.02,-31.29 -0.07,-62.58 0.03,-93.87zm-134.74 5.47c6.45,-5.3 15.31,-5.04 23.2,-5.42 13.73,0.02 27.48,-0.32 41.21,0.24 7.39,0.31 15.74,1.87 20.22,8.4 5.46,8.58 5.29,19.24 5.57,29.03 -10.8,0.03 -21.61,0.1 -32.41,-0.05 -0.46,-4.63 -0.27,-9.47 -2.19,-13.79 -5.62,-3.01 -12.48,-1.08 -18.59,-1.62 -3.65,0.46 -8.38,-1 -11.16,2.02 -2.86,7.4 -1.97,15.57 -2.21,23.35 0.21,7.61 -0.62,15.62 2.42,22.82 3.34,1.68 7.23,1.01 10.85,1.22 6.05,-0.26 12.26,0.6 18.21,-0.84 2.66,-4.39 2.09,-9.78 2.62,-14.66 10.82,0 21.64,-0.04 32.46,0.02 -0.26,9.41 -0.11,19.47 -4.73,27.98 -3.88,6.7 -11.95,9.15 -19.24,9.48 -12.62,0.6 -25.24,0.03 -37.86,0.25 -8.6,-0.1 -17.81,0.6 -25.71,-3.46 -7.51,-4.18 -11.05,-12.72 -12.86,-20.69 -2.61,-13.53 -2.68,-27.52 -0.77,-41.13 1.3,-8.51 4.04,-17.53 10.97,-23.15zm-163.19 -5.45c11.58,0.29 23.23,-0.76 34.75,0.67 5.22,0.58 8.54,4.95 11.34,8.93 9.14,12.76 17.91,25.79 27.43,38.27 0.41,-15.95 0.03,-31.91 0.21,-47.87 10.81,-0.04 21.63,0 32.47,-0.02 0.2,31.29 0.07,62.58 0.07,93.87 -9.35,-0.15 -18.72,0.41 -28.05,-0.24 -4.31,-0.26 -8.03,-2.91 -10.5,-6.29 -11.84,-15.59 -23.14,-31.58 -35.13,-47.05 -0.06,17.85 0.04,35.71 -0.05,53.58 -10.85,0.02 -21.72,0.07 -32.59,-0.03 0.07,-31.28 -0.02,-62.55 0.05,-93.82zm-118.14 0.32c9.43,-1.49 19.06,-0.51 28.58,-0.77 5.29,0.14 12.62,-0.55 14.74,5.71 11.99,29.46 23.8,59 35.42,88.59 -12.26,0.03 -24.5,0 -36.76,0.02 -2.36,-6.71 -4.68,-13.45 -7.09,-20.13 -11.25,-0.02 -22.48,0 -33.73,0 -2.43,6.65 -4.73,13.37 -6.99,20.11 -11.64,0.02 -23.27,0.05 -34.89,-0.03 11.14,-28.38 22.68,-56.62 33.86,-84.97 1.56,-3.26 2.65,-7.87 6.86,-8.53zm8.02 52.81l0 0c6.63,0.02 13.27,0.02 19.91,0 -3.19,-9.22 -6.16,-18.52 -9.81,-27.57 -4.22,8.85 -6.74,18.38 -10.1,27.57zm-167.64 -53.11c11.57,-0.06 23.14,-0.07 34.73,0.01 0.02,23.99 -0.07,47.96 0.04,71.94 17.38,0.05 34.78,0.04 52.17,0 0.08,7.29 0.08,14.58 0.05,21.88 -29.01,0.02 -58,0.07 -87.01,-0.02 0.03,-31.27 -0.02,-62.54 0.02,-93.81zm630.14 -1054.63l0 0c9.47,12.19 17.77,25.26 25.09,38.84 -38.6,-16.72 -81.05,-25.38 -123.14,-22.82 0.04,12.8 4.24,25.06 9.64,36.53 -19.03,-1.22 -38.1,0.07 -57.11,0.96 -61.45,4.1 -122.47,14.56 -181.89,30.66 33.31,5.05 65.97,14.02 97.5,25.87 -19.55,3.75 -38.78,8.97 -57.75,14.98 -59.45,18.95 -116.27,45.52 -170.5,76.25 -3.67,1.85 -6.95,4.76 -10.98,5.76 -11.45,-3.91 -22.49,-8.99 -34.11,-12.47 -25.82,16.05 -50.84,33.39 -75.18,51.58 -54.71,-18.33 -110.07,-34.91 -166.35,-47.74 11.29,27.56 22.79,55.02 34.38,82.46 -55.76,2.09 -111.41,7.25 -166.63,15.15 97.45,37 193.65,77.7 286.49,125.26 6.21,3.36 15.02,4.49 20.32,-1.11 6.19,-7.2 4.87,-17.87 1.44,-26.03 -7.05,-15.15 -14.78,-29.98 -21.69,-45.21 -3.82,-9.05 -4.08,-22.08 5.13,-27.98 6.36,-4.25 14.19,-0.77 20.14,2.52 72.22,39.23 142.73,81.51 212.15,125.5 -185.78,-0.01 -371.56,0.05 -557.33,-0.05 -8.86,14.11 -17.59,28.31 -26.35,42.47 215.22,0.03 430.42,0.02 645.65,0.02 2.52,-0.31 4.71,0.94 6.73,2.31 53.55,35.68 106.15,72.82 157.53,111.54 18.07,12.86 43.64,20.24 64.11,8.58 53.47,-33.2 106.79,-66.61 160.22,-99.87 -20.29,3.55 -40.26,-5.2 -57.05,-15.84 -147.34,-102.31 -300.6,-197.34 -464.16,-271.63 47.03,8.6 92.75,23.78 136.4,43.17 0.54,-0.65 1.6,-1.96 2.13,-2.59 4.9,-1.73 8.23,-5.97 12.19,-9.1 37.09,-31.17 76.62,-59.46 118.3,-84.15 49.16,-28.75 101.93,-53.15 158.35,-63.09 -11.96,-5.06 -22.89,-12.4 -31.92,-21.76 -9.98,-11.56 -18.54,-24.71 -22.27,-39.67 35.52,14.46 70.84,29.47 106.35,43.99 -0.12,-1.61 -0.33,-4.82 -0.43,-6.43 0.46,2.23 1.04,4.42 1.61,6.63 30.67,1.65 61.12,6.61 90.97,13.72 24.93,6.29 49.79,13.82 72.9,25.13 6.93,8.82 11.66,19.17 18.4,28.14 3.86,3.72 8.93,5.81 13.37,8.73 28.34,17.47 56.27,35.73 82.91,55.72 12.64,9.43 20.84,23.8 23.68,39.17l1.1 0.57c-6.36,6 -15.5,8.86 -24.11,7.01 -20.73,-3.92 -37.96,-20.02 -45.57,-39.4 -32.09,-9.26 -64.5,-17.43 -96.85,-25.7 -36.33,32.82 -92.91,38.87 -136.34,17.22 -20.83,-10.19 -38.54,-27.32 -47.61,-48.83 -19.01,9.43 -36.45,21.81 -52.41,35.76 -41.49,36.91 -73.78,83.36 -98.21,133 46.98,26.45 92.65,55.13 138.41,83.63 0.38,-14.83 2.28,-29.7 7.1,-43.77 8.75,-26.85 25.75,-50.32 46.02,-69.7 25.79,13.87 56.53,17.8 85.09,11.66 22.19,-4.56 43.33,-15.72 58.17,-33.02 15.69,5.95 30.73,13.55 44.99,22.39 11.61,7.01 21.93,16.05 34,22.36 24.45,13.65 52.79,20.81 80.8,18.31 2.3,-0.43 5.32,-0.12 6.74,-2.45 16.22,-21.3 32.15,-42.81 48.49,-64.02 -3.26,-6.1 -6.91,-11.99 -10.22,-18.04 2.78,-7.99 5.47,-16.01 7.97,-24.09 -8.47,-12.05 -16.8,-24.17 -25.37,-36.14 -3.36,-0.56 -7.17,-0.14 -9.88,-2.54 -33.05,-24.77 -66.31,-49.25 -99.3,-74.11 -6.28,-7.7 -10.08,-17.15 -15.91,-25.19 -1.42,-1.54 -3.33,-2.49 -5.08,-3.55 -30.48,-16.49 -62.97,-29.2 -96.39,-38.33 -1.93,-0.42 -3.66,-1.2 -5.19,-2.39 -41.8,-36.07 -94.83,-58.82 -149.68,-64.74zm97.87 127.15l0 0c8.71,0.69 17.3,2.33 25.58,5.14 -1.56,5.15 -3.26,10.86 -0.62,15.98 4.51,9.83 15.34,14.51 25.29,16.8 18.04,3.81 39.04,-0.18 51.76,-14.35 8.18,0.16 16.75,-0.37 23.9,-4.85 -21.72,-11.4 -44.1,-21.67 -67.33,-29.61 -5.62,-1.81 -11.28,-4.25 -17.32,-3.82 -14.79,0.58 -29.78,5.09 -41.26,14.71zm168.09 318.83l0 0c-7.32,1.06 -14.58,2.98 -22.02,3 -70.74,-0.03 -141.5,-0.02 -212.24,-0.02 15.54,10.48 30.71,21.47 46.42,31.67 9.32,5.14 19.06,11.81 30.22,10.82 36.02,-0.14 72.03,0.03 108.05,-0.11 6.91,-0.2 13.61,1.74 20.33,3.09 44.6,9.22 89.19,18.41 133.77,27.71 3.96,0.73 7.94,2.11 12.04,1.61 107.17,-17.88 214.32,-35.77 321.5,-53.68 -82.54,-17.7 -165.23,-34.72 -247.8,-52.28 -4.44,-0.92 -8.98,-2.23 -13.51,-1.16 -58.93,9.73 -117.82,19.66 -176.76,29.35z"/>
   <path class="fil2" d="M1095.76 237.85c54.85,5.92 107.88,28.67 149.68,64.74 1.53,1.19 3.26,1.97 5.19,2.39 33.42,9.13 65.91,21.84 96.39,38.33 1.75,1.06 3.66,2.01 5.08,3.55 5.83,8.04 9.63,17.49 15.91,25.19 32.99,24.86 66.25,49.34 99.3,74.11 2.71,2.4 6.52,1.98 9.88,2.54 8.57,11.97 16.9,24.09 25.37,36.14 -2.5,8.08 -5.19,16.1 -7.97,24.09 3.31,6.05 6.96,11.94 10.22,18.04 -16.34,21.21 -32.27,42.72 -48.49,64.02 -1.42,2.33 -4.44,2.02 -6.74,2.45 -28.01,2.5 -56.35,-4.66 -80.8,-18.31 -12.07,-6.31 -22.39,-15.35 -34,-22.36 -14.26,-8.84 -29.3,-16.44 -44.99,-22.39 -14.84,17.3 -35.98,28.46 -58.17,33.02 -28.56,6.14 -59.3,2.21 -85.09,-11.66 -20.27,19.38 -37.27,42.85 -46.02,69.7 -4.82,14.07 -6.72,28.94 -7.1,43.77 -45.76,-28.5 -91.43,-57.18 -138.41,-83.63 24.43,-49.64 56.72,-96.09 98.21,-133 15.96,-13.95 33.4,-26.33 52.41,-35.76 9.07,21.51 26.78,38.64 47.61,48.83 43.43,21.65 100.01,15.6 136.34,-17.22 32.35,8.27 64.76,16.44 96.85,25.7 7.61,19.38 24.84,35.48 45.57,39.4 8.61,1.85 17.75,-1.01 24.11,-7.01 4.95,-6.93 5.3,-16.08 2.91,-24.02 -3.67,-12.53 -12.07,-23.37 -22.42,-31.17 -28.33,-20.35 -57.01,-40.22 -85.93,-59.7 -8.64,-9.15 -12.59,-22.32 -22.05,-30.77 -57.78,-26.53 -120.22,-42.18 -183.21,-49.88 2.57,5.68 4.7,11.57 5.76,17.73 0.1,1.61 0.31,4.82 0.43,6.43 -35.51,-14.52 -70.83,-29.53 -106.35,-43.99 3.73,14.96 12.29,28.11 22.27,39.67 -32.94,8.38 -64.3,22.08 -94.11,38.23 -63.21,34.65 -118.59,83.02 -162.81,139.87 -0.53,0.63 -1.59,1.94 -2.13,2.59 -43.65,-19.39 -89.37,-34.57 -136.4,-43.17 163.56,74.29 316.82,169.32 464.16,271.63 16.79,10.64 36.76,19.39 57.05,15.84 -53.43,33.26 -106.75,66.67 -160.22,99.87 -20.47,11.66 -46.04,4.28 -64.11,-8.58 -51.38,-38.72 -103.98,-75.86 -157.53,-111.54 -2.02,-1.37 -4.21,-2.62 -6.73,-2.31 -215.23,0 -430.43,0.01 -645.65,-0.02 8.76,-14.16 17.49,-28.36 26.35,-42.47 185.77,0.1 371.55,0.04 557.33,0.05 -69.42,-43.99 -139.93,-86.27 -212.15,-125.5 -5.95,-3.29 -13.78,-6.77 -20.14,-2.52 -9.21,5.9 -8.95,18.93 -5.13,27.98 6.91,15.23 14.64,30.06 21.69,45.21 3.43,8.16 4.75,18.83 -1.44,26.03 -5.3,5.6 -14.11,4.47 -20.32,1.11 -92.84,-47.56 -189.04,-88.26 -286.49,-125.26 55.22,-7.9 110.87,-13.06 166.63,-15.15 -11.59,-27.44 -23.09,-54.9 -34.38,-82.46 56.28,12.83 111.64,29.41 166.35,47.74 24.34,-18.19 49.36,-35.53 75.18,-51.58 11.62,3.48 22.66,8.56 34.11,12.47 4.03,-1 7.31,-3.91 10.98,-5.76 54.23,-30.73 111.05,-57.3 170.5,-76.25 18.97,-6.01 38.2,-11.23 57.75,-14.98 -31.53,-11.85 -64.19,-20.82 -97.5,-25.87 59.42,-16.1 120.44,-26.56 181.89,-30.66 19.01,-0.89 38.08,-2.18 57.11,-0.96 -5.4,-11.47 -9.6,-23.73 -9.64,-36.53 42.09,-2.56 84.54,6.1 123.14,22.82 -7.32,-13.58 -15.62,-26.65 -25.09,-38.84zm326.91 710.75c5.26,-1.61 10.81,-2.18 16.34,-2.08 19.95,0.16 39.93,-0.13 59.88,0.14 21.97,0.82 41.25,20.03 42.11,42.01 0.1,59.99 -0.02,119.99 0.05,179.98 0.02,16.91 -10.83,33.04 -26.19,39.92 -8.08,3.87 -17.22,4.35 -26.03,4.18 -18.55,-0.19 -37.14,0.27 -55.67,-0.22 -22.56,-0.94 -41.97,-21.11 -42.06,-43.69 -0.2,-55.51 -0.01,-111.05 -0.08,-166.56 -0.07,-8.69 -0.38,-17.66 2.69,-25.92 4.65,-13.12 15.65,-23.7 28.96,-27.76zm26.21 44.68l0 0c0,57.57 0,115.14 0,172.72 11.71,0.01 23.42,0.01 35.15,0 -0.02,-57.58 0,-115.15 0,-172.72 -11.73,0 -23.44,0 -35.15,0zm-214.79 -44.92c7.49,-2.26 15.38,-1.8 23.11,-1.8 17.71,0.13 35.44,-0.24 53.15,0.17 22.15,1.25 41.32,21.24 41.23,43.5 0,56.59 -0.01,113.17 0.02,169.77 0.21,8.55 0.19,17.43 -3.51,25.35 -6.67,16.24 -23.56,27.26 -41.03,27.32 -21.06,0.03 -42.13,0.29 -63.16,-0.12 -22.81,-0.84 -42.39,-21.44 -42.28,-44.2 -0.09,-59.26 -0.11,-118.49 0,-177.73 0.2,-19.18 13.92,-37.26 32.47,-42.26zm25.32 44.97l0 0c0.05,57.56 0.02,115.11 0.02,172.67 11.69,0.03 23.4,0 35.13,0.03 0.05,-57.59 0,-115.16 0.02,-172.75 -11.73,0.01 -23.46,-0.05 -35.17,0.05zm-892.75 -44.66c5.79,-1.89 11.93,-2.23 17.98,-2.15 20.54,0.19 41.08,-0.22 61.6,0.19 22.36,1.12 41.49,21.18 41.63,43.55 0.1,54.86 0,109.73 0.03,164.59 0.04,10.32 0.76,21.14 -3.75,30.76 -6.62,15.77 -22.92,26.66 -40,27.04 -21.55,0.17 -43.12,0.14 -64.67,0.02 -17.76,-0.23 -34.74,-11.84 -41.05,-28.47 -2.94,-7.11 -3.39,-14.89 -3.13,-22.49 0.07,-57.16 -0.04,-114.32 0.05,-171.48 0.15,-18.67 13.47,-36.18 31.31,-41.56zm27.8 44.61l0 0c0,57.57 0,115.14 0,172.72 11.71,0.01 23.44,0.01 35.15,0 0,-57.58 0,-115.15 0,-172.72 -11.73,0 -23.44,0 -35.15,0zm-235.45 -45.74c26.61,-0.28 53.22,-0.04 79.83,-0.13 0.58,1.36 1.16,2.73 1.75,4.12 -11.42,12.81 -13.51,30.76 -12.86,47.23 0.02,54.61 -0.02,109.22 0,163.82 9.43,0 18.86,0 28.29,0 -0.65,-19.2 2.3,-39.15 -4.46,-57.6 -1.39,-4.48 -5.49,-8.45 -3.82,-13.41 19.34,-0.31 38.66,-0.07 58,-0.14 -0.04,38.9 0.05,77.82 -0.04,116.73 0.69,3.05 -2.34,5.16 -5.12,4.59 -47.15,-0.05 -94.3,0.02 -141.43,-0.03 -0.34,-1.13 -1.01,-3.4 -1.35,-4.53 10.73,-11.47 13.16,-28 12.51,-43.08 -0.02,-58.85 -0.03,-117.69 0,-176.53 -0.03,-13.1 -3.65,-26.69 -12.51,-36.64 0.3,-1.1 0.9,-3.31 1.21,-4.4zm1412.05 -1.03c39.77,0.18 79.55,-0.11 119.33,0.13 21.92,0.76 41.52,19.79 42.24,41.82 0.02,56.61 0,113.24 0,169.86 0,8.45 0.67,17.23 -2.64,25.22 -6.12,16.82 -23.06,28.78 -40.94,29.09 -39.35,0.26 -78.7,0.04 -118.04,0.1 -0.52,-1.44 -1.03,-2.88 -1.51,-4.3 10.87,-12.19 13.37,-29.2 12.7,-44.95 -0.03,-51.46 -0.02,-102.92 -0.02,-154.39 0.09,-19.67 1.97,-42.39 -12.6,-57.9 0.45,-1.58 0.96,-3.14 1.48,-4.68zm68.13 46.77l0 0c0,57.57 0,115.14 0,172.72 11.85,0.01 23.71,0.01 35.58,0 0,-57.58 0,-115.15 0,-172.72 -11.87,0 -23.72,0 -35.58,0zm-734.51 -41.75c0.67,-1.89 -0.13,-5.57 3,-4.92 20.54,-0.17 41.08,0.05 61.62,-0.1 2.61,-0.16 5.2,0.29 7.56,1.45 5.18,68.75 10.29,137.51 15.54,206.24 6.41,-57.52 12.1,-115.14 18.31,-172.7 1.42,-10.87 -0.69,-22.91 -9.3,-30.42 0.09,-1.14 0.28,-3.42 0.36,-4.57 28.52,0.12 57.03,0 85.56,0.07 2.02,5.33 -3.6,7.81 -5.71,11.86 -3.77,7 -3.93,15.24 -3.31,23.01 4.44,41.88 8.81,83.79 13.2,125.67 1.92,15.55 2.68,31.27 5.37,46.72 5.31,-67.74 11.35,-135.43 16.94,-203.15 -0.23,-2.49 2,-4.68 4.56,-4.1 21.72,-0.03 43.44,-0.12 65.15,0.05 0.86,2.9 0.34,5.49 -2.35,7.07 -10.75,8.84 -16.91,22.54 -17.78,36.31 -6.26,59.42 -12.17,118.9 -18.77,178.31 -0.72,14.25 3.72,28.61 12.08,40.15 -0.39,1.07 -1.2,3.17 -1.61,4.22 -30.52,0.09 -61.05,0 -91.57,0.05 -2.21,0.09 -4.3,-0.53 -6.33,-1.23 -3.85,-42.4 -7.93,-84.77 -11.83,-127.17 -0.29,-3.15 -0.87,-6.26 -1.44,-9.36 -0.89,23.78 -4.18,47.44 -6.07,71.17 -2,21.76 -4.13,43.5 -6.06,65.27 -2.46,0.93 -5.03,1.49 -7.63,1.36 -30.16,-0.12 -60.32,0.01 -90.46,-0.09 -0.43,-1.05 -1.29,-3.15 -1.7,-4.22 10.39,-14.01 14.52,-32.33 11.16,-49.46 -6.29,-57.88 -12.1,-115.83 -18.27,-173.71 -2.06,-13.21 -8.92,-26.27 -20.22,-33.78zm-176.28 38.61c0,-24.38 22.78,-45.16 46.99,-43.6 20.54,0.07 41.1,-0.05 61.66,0.05 16.39,0.22 32.06,10.25 39.22,24.98 3.4,6.88 4.77,14.59 4.7,22.22 -0.03,13.68 -0.02,27.38 -0.02,41.06 -19.44,-0.01 -38.86,0.02 -58.31,-0.01 0.02,-13.86 0.02,-27.71 0.02,-41.56 -11.73,0 -23.44,0 -35.15,0 0,57.57 0,115.16 0,172.73 11.71,0 23.42,0 35.15,0 0,-21.41 -0.02,-42.81 0.02,-64.2 -0.09,-13.62 -3.26,-28.09 -12.83,-38.29 0.53,-1.42 1.08,-2.83 1.63,-4.23 26.88,0 53.79,0 80.67,0 0.34,1.01 1.01,3.01 1.35,4.03 -8.71,10.08 -12.48,23.52 -12.56,36.65 -0.02,22.87 0.08,45.76 -0.04,68.63 -0.24,15.98 -9.63,31.52 -23.92,38.8 -8.62,4.8 -18.72,5.62 -28.4,5.35 -18.83,-0.12 -37.67,0.16 -56.5,-0.12 -15.08,-0.36 -29.73,-8.81 -37.36,-21.86 -4.69,-7.63 -6.68,-16.72 -6.39,-25.61 0.1,-58.33 -0.04,-116.67 0.07,-175.02zm-210.51 -43.58c21.26,-0.04 42.54,0.05 63.8,-0.04 16.63,43.19 33.36,86.35 49.56,129.69 0.55,-27.48 0.07,-55 0.26,-82.5 0.64,-14.99 -2.06,-31.28 -12.53,-42.7 0.34,-1.11 1.06,-3.32 1.4,-4.43 25.12,-0.04 50.24,-0.02 75.36,0 0.36,1.11 1.08,3.34 1.42,4.45 -11.9,12.72 -13.24,31.22 -12.52,47.77 -0.01,56.61 0.04,113.24 -0.03,169.85 -0.43,14.05 2.95,28.86 12.51,39.56 -0.32,1.13 -0.99,3.38 -1.33,4.51 -21.33,0.07 -42.66,-0.05 -63.99,0.07 -16.68,-44.15 -33.5,-88.25 -49.92,-132.5 -0.24,28.89 -0.02,57.8 -0.12,86.68 -0.21,14.66 2.79,30.25 12.84,41.51 -0.4,1.05 -1.22,3.17 -1.61,4.24 -25.02,0.05 -50.03,0 -75.05,0.03 -0.56,-1.44 -1.11,-2.84 -1.66,-4.25 9.94,-11.37 13.1,-26.93 12.79,-41.66 -0.05,-59.41 0,-118.82 -0.03,-178.24 -0.16,-13.48 -3.57,-27.52 -12.76,-37.77 0.39,-1.08 1.2,-3.21 1.61,-4.27zm843.83 -262.73c58.94,-9.69 117.83,-19.62 176.76,-29.35 4.53,-1.07 9.07,0.24 13.51,1.16 82.57,17.56 165.26,34.58 247.8,52.28 -107.18,17.91 -214.33,35.8 -321.5,53.68 -4.1,0.5 -8.08,-0.88 -12.04,-1.61 -44.58,-9.3 -89.17,-18.49 -133.77,-27.71 -6.72,-1.35 -13.42,-3.29 -20.33,-3.09 -36.02,0.14 -72.03,-0.03 -108.05,0.11 -11.16,0.99 -20.9,-5.68 -30.22,-10.82 -15.71,-10.2 -30.88,-21.19 -46.42,-31.67 70.74,0 141.5,-0.01 212.24,0.02 7.44,-0.02 14.7,-1.94 22.02,-3zm138.87 7.37l0 0c-33.31,5.74 -66.8,10.58 -99.99,16.92 86.72,0.17 173.46,0.26 260.18,-0.05 -37.89,-8.38 -75.94,-16.15 -113.93,-24.04 -15.52,1.39 -30.85,4.89 -46.26,7.17zm-306.96 -326.2c11.48,-9.62 26.47,-14.13 41.26,-14.71 6.04,-0.43 11.7,2.01 17.32,3.82 23.23,7.94 45.61,18.21 67.33,29.61 -7.15,4.48 -15.72,5.01 -23.9,4.85 -12.72,14.17 -33.72,18.16 -51.76,14.35 -9.95,-2.29 -20.78,-6.97 -25.29,-16.8 -2.64,-5.12 -0.94,-10.83 0.62,-15.98 -8.28,-2.81 -16.87,-4.45 -25.58,-5.14zm53.35 13.1l0 0c-0.46,5.14 4.08,8.93 8.39,10.73 9.92,4.03 22.1,3.05 30.68,-3.62 -11.1,-4.74 -21.03,-11.83 -32.24,-16.28 -2.97,2.41 -6.54,5 -6.83,9.17z"/>
  </g>
 </g>
</svg>
