<?xml version="1.0" encoding="UTF-8"?>
<!DOCTYPE svg PUBLIC "-//W3C//DTD SVG 1.1//EN" "http://www.w3.org/Graphics/SVG/1.1/DTD/svg11.dtd">
<!-- Creator: CorelDRAW -->
<svg xmlns="http://www.w3.org/2000/svg" xml:space="preserve" width="2000px" height="1600px" version="1.1" style="shape-rendering:geometricPrecision; text-rendering:geometricPrecision; image-rendering:optimizeQuality; fill-rule:evenodd; clip-rule:evenodd"
viewBox="0 0 2000 1600"
 xmlns:xlink="http://www.w3.org/1999/xlink">
 <defs>
  <style type="text/css">
   <![CDATA[
    .fil0 {fill:#050707;fill-rule:nonzero}
    .fil2 {fill:#A49F9F;fill-rule:nonzero}
    .fil3 {fill:#D63E51;fill-rule:nonzero}
    .fil4 {fill:#EDB81D;fill-rule:nonzero}
    .fil1 {fill:#FEFEFE;fill-rule:nonzero}
   ]]>
  </style>
 </defs>
 <g id="Capa_x0020_1">
  <metadata id="CorelCorpID_0Corel-Layer"/>
  <g id="Louisiana_x0020_Tech_x0020_Bulldogs.cdr">
   <path class="fil0" d="M971.43 80l57.12 0c92.62,4.07 184.59,25.14 268.96,63.73 158.15,71.33 288.43,201.92 359.79,360 36.32,79.72 57.26,166.24 62.7,253.64l0 87.18c-6.03,91.29 -28.73,181.58 -68.25,264.16 -70.54,149.12 -194.17,272.07 -343.27,342.49 -87.31,41.69 -183.22,64.62 -279.82,68.8l-57.23 0c-92.57,-4.02 -184.5,-25.14 -268.85,-63.68 -158.31,-71.31 -288.75,-202.08 -359.65,-360.59 -38.13,-83.96 -58.93,-175.39 -62.93,-267.43l0 -56.76c2.03,-37.3 5.8,-74.58 13.23,-111.24 26.43,-136.05 93.69,-263.77 190.63,-362.75 57.65,-59.4 125.65,-108.77 200.09,-145 89.33,-44.12 188.07,-68.18 287.48,-72.55z"/>
   <path class="fil1" d="M938.35 205.74c10.7,-0.57 22.06,1.8 32.03,-3.23 1.78,16.8 4.16,33.54 5.6,50.36 -9.15,-8.94 -17.92,-19.93 -31.07,-22.79 -7.01,-1.49 -16.66,-0.02 -19.24,7.77 -1.72,6.65 4.25,11.86 9.99,13.72 15.04,5.71 33.21,6.78 44.43,19.7 13.6,16.96 10.9,45.28 -6.9,58.38 -14.4,11.26 -33.67,11.84 -51.13,10.6 -6.7,-0.8 -13.35,0.34 -19.66,2.58 -1.76,-17.32 -4.12,-34.58 -5.83,-51.9 9.74,12.38 22.86,24.36 39.5,24.75 8.13,0.85 17.62,-5.19 16.62,-14.22 0.43,-5.85 -5.31,-9.12 -9.86,-11.2 -13.76,-5.98 -29.37,-8.41 -41.21,-18.21 -14.49,-11.34 -15.52,-34.4 -5.09,-48.76 9.69,-12.73 26.49,-17.26 41.82,-17.55zm15.5 1017.42c34.45,2.97 69.19,2.99 103.5,-1.51 11.93,-1.92 24.32,3.47 31.24,13.32 9.28,11.91 6.98,27.89 8.67,41.97 -14.11,1.1 -28.23,1.89 -42.33,3.08 -0.48,-6.74 -0.94,-13.48 -1.22,-20.2 -8.2,0.75 -17.12,-0.44 -24.66,3.43 -4.66,4.25 -3.13,11.33 -3.27,16.93 1.53,22.08 3.09,44.19 4.6,66.27 0.52,5.07 0.89,11.93 6.47,14.1 7.77,1.97 15.86,0 23.74,-0.18 -0.27,-9.01 -2.46,-18.15 -1.12,-27.07 14.47,-1.78 29.08,-2.24 43.62,-3.24 0.06,15.97 5.09,33 -1.99,48.18 -4.67,11.06 -15.66,19.02 -27.71,19.63 -17.53,1.31 -35.06,2.98 -52.61,3.87 -13.28,0.94 -25.53,-7.98 -31,-19.68 -7.79,-15.59 -3.22,-33.74 -7.56,-50.11 -2.08,-6.87 -9.28,-10.26 -13.28,-15.4 2.72,-4.14 7.97,-6.81 9.8,-11.75 3,-7.11 1.37,-14.92 1.03,-22.31 -1.46,-15.88 -2.44,-32.78 -10.95,-46.74 -3.31,-5.87 -9.12,-9.58 -14.97,-12.59zm213.72 -31.64c8.41,-3.75 17.76,-6.38 27.01,-4.62 13.92,2.04 25.17,12.03 32.83,23.32 25.76,36.75 51.86,73.28 77.41,110.19 -13.94,7.32 -27.75,14.91 -41.76,22.08 -4.27,-6.44 -8.5,-12.89 -12.52,-19.47 -11.87,5.35 -24.64,9.39 -35.64,16.3 1.35,7.45 3.57,14.72 5.03,22.17 -14.67,5.21 -29.3,10.65 -44.25,15.04 -4.59,-18.47 -8.55,-37.08 -13.26,-55.5 -2.03,-8.98 -9.76,-14.95 -18.05,-17.88 5.82,-10.65 8.29,-23.08 5.44,-35.01 -3.57,-15.36 -3.73,-32.96 -15.07,-45.17 -6.19,-7.43 -15.79,-10.35 -25.05,-11.47 19.68,-5.46 39.15,-11.8 57.88,-19.98zm18.08 33.01l0 0c6.51,25.89 13.02,51.81 19.58,77.71 8.28,-3.45 16.51,-7.02 24.67,-10.7 -14.91,-22.24 -28.69,-45.25 -44.25,-67.01zm-268.76 -39.11c3.48,-4.85 11.77,-4.25 15.06,0.57 3.55,4.55 4.71,10.38 6.34,15.79 4.64,3.18 8.5,7.41 8.95,13.28 0.9,4.37 1.65,8.78 2.09,13.24 -0.76,15.45 -9.08,29.94 -21.26,39.27 -14.11,10.9 -31.93,15.61 -49.37,17.44 -6.97,0.5 -16.14,-1.97 -17.99,-9.69 -1.44,-6.86 4.64,-11.98 9.94,-15 9.1,-5.23 18.88,-12.25 20.71,-23.36 1.37,-11.31 5.12,-22.15 10.72,-32.04 2.99,-5.33 9.23,-6.95 14.72,-8.35 -0.07,-3.63 -1.92,-7.77 0.09,-11.15zm6.65 2.58l0 0c0.14,5.37 0.28,10.84 -0.64,16.18 -7.72,-1 -17.23,1.7 -17.57,11 -7.96,10.99 -4.46,26.22 -13.15,36.78 -5.8,8.36 -15.54,12.25 -23.22,18.44 -3.04,4.92 3.45,7.8 7.57,7.29 19.01,-0.8 39.1,-6.42 52.68,-20.46 8.89,-9.85 16,-23.77 11.7,-37.23 0.12,-6.08 -4.36,-10.24 -8.77,-13.6 -1.85,-6.49 -1.67,-14.88 -8.6,-18.4zm-184.18 -52.32c11.5,8.5 23.13,16.82 35.25,24.44 6.44,4.11 13.48,7.93 17.92,14.4 4.13,6.14 4.02,13.87 4.52,21 0.34,22.52 -0.18,45.03 0.23,67.54 12.21,-23.81 23.45,-48.11 35.02,-72.25 10.67,4.19 23.08,6.68 30.95,15.68 7.61,9.85 2.58,22.97 -1.99,32.98 -20.76,42.73 -41.12,85.63 -61.99,128.28 -14.29,-5.05 -28.23,-10.99 -42.17,-16.89 0.66,-32.23 1.03,-64.48 1.41,-96.71 -12.89,26.17 -25.39,52.53 -38.01,78.81 -18.17,-9.55 -35.91,-20.02 -52.8,-31.7 7.25,-3.52 14.81,-7.02 20.32,-13.1 7.04,-7.43 10.43,-17.23 15,-26.17 3.15,-6.74 7.15,-13.42 7.68,-21.01 0.02,-5.12 -1.74,-9.98 -3.02,-14.88 8.87,-2.51 17.05,-8.11 20.66,-16.84 6.97,-15.57 17.1,-30.59 18.01,-48.09 0.74,-9.1 -3.04,-17.58 -6.99,-25.49zm539.52 -13.42c5.99,-4.93 13.69,-10.49 21.9,-7.65 9.19,3.81 14.24,13 20.29,20.34 22.98,28.73 46.27,57.21 69.26,85.94 8.55,10.7 7.75,26.91 -0.39,37.63 -5.99,7.77 -14.56,12.93 -22.01,19.13 -6.95,5.19 -13.64,12.16 -22.86,12.61 -14.24,0.6 -26.33,-8.8 -35.49,-18.74 9.39,-7.4 19.24,-14.22 28.57,-21.71 3.7,-2.93 7.04,-8.03 4.23,-12.71 -7.18,-13.21 -18.24,-26.63 -34.52,-27.32 1.49,-8.98 -0.11,-18.58 -6.49,-25.41 -10.26,-11.68 -18.35,-26.61 -33.32,-32.92 -7.36,-3.59 -15.71,-2.99 -23.62,-2.6 12,-8.16 23.43,-17.15 34.45,-26.59zm-591.66 -35.04c8.02,8.92 16.46,17.42 25.37,25.42 6.45,6.29 14.11,13.58 13.72,23.36 -1.88,10.95 -11.45,17.97 -18.38,25.85 -30.9,33.6 -61.58,67.45 -92.36,101.15 -15.91,-13.54 -31.5,-27.5 -46.06,-42.5 10.53,-0.84 21.6,-2.67 30.05,-9.53 9.81,-8.36 17.83,-18.63 26.61,-28.02 6.36,-6.51 7.91,-15.73 7.66,-24.46 7.84,-0.45 16.23,-1.94 21.76,-8.07 8.18,-8.61 16.55,-17.16 23.81,-26.58 7.87,-10.42 10.11,-23.93 7.82,-36.62zm676.16 -63.58c7.39,-9.99 10.75,-26.77 25.42,-28.01 11.82,-0.18 22.29,6.41 31.77,12.74 26.49,18.37 53.05,36.61 79.68,54.81 11.36,7.4 20.85,19.75 20.37,33.87 0.16,12.62 -8.8,22.36 -15.25,32.3 -6.56,9.42 -12.59,19.2 -19.43,28.43 -10.9,13.97 -33.19,19.25 -48.02,8.51 -9.17,-5.85 -17.58,-12.85 -27.06,-18.17 -8.25,-4.8 -18.13,-3.09 -27.02,-1.63 -0.59,-9.76 -3.18,-20.62 -12.32,-25.83 -14.99,-9.57 -28.73,-22.79 -46.81,-25.94 -6.47,-1.51 -12.85,0.8 -19.02,2.45 7.93,-8.23 15.66,-16.64 22.93,-25.49 5.25,-6.4 12.27,-12.5 20.98,-12.84 12.02,-0.42 22.49,6.67 32.3,12.75 23.65,16.02 47.13,32.34 70.69,48.52 3.2,1.93 6.63,4.67 10.66,3.82 6.4,-5.28 9.99,-13.1 14.24,-20.07 -7.57,-7.79 -17.03,-13.25 -25.86,-19.45 -29.39,-20.29 -58.83,-40.52 -88.25,-60.77zm-759.65 -67.96c0.36,0.18 1.07,0.6 1.44,0.78 10.97,28.71 25.76,55.77 42.9,81.23 8.13,12 16.36,26.68 11.84,41.62 -4.34,13.61 -18.17,20.07 -29.33,27.18 -7.06,-11.4 -14.54,-22.53 -21.57,-33.94 3.33,-3.18 10.71,-5.78 8.31,-11.61 -4.04,-8.85 -10.33,-16.46 -15.26,-24.8 -24.78,16.02 -49.69,31.86 -74.47,47.86 -4.19,2.51 -8.85,7.82 -5.3,12.75 4.13,6.5 7.29,16.37 15.86,17.72 8.3,-1.94 14.76,-8.09 21.94,-12.34 -2.06,-3.23 -4.11,-6.43 -6.17,-9.63 9.35,-6.1 18.79,-12.06 28.18,-18.08 9.95,15.64 20.23,31.04 29.83,46.88 -13.51,8.32 -26.77,17.01 -40.14,25.53 -9.69,6.29 -19.56,13.35 -31.36,14.86 -11.74,2.06 -24.41,-3.01 -30.97,-13.09 -9.67,-14.66 -18.72,-29.72 -28.3,-44.44 -3.99,-6.49 -8.86,-12.98 -9.55,-20.82 -0.91,-10.38 4.69,-20.32 12.69,-26.58 10.97,-8.39 23.49,-14.52 34.51,-22.84 6.49,-5.3 7.57,-14.19 8.41,-21.96 6.13,3.08 13.26,5.85 20.03,3.04 7.86,-3.18 14.51,-8.62 21.69,-13.01 10.35,-6.88 21.34,-13.53 29.12,-23.48 4.8,-6.44 7.75,-14.81 5.67,-22.83zm408.63 -65.33c3.46,0.03 6.93,0.05 10.43,0.12 11.29,37.03 20.91,74.74 35.4,110.7 -5.32,16.02 -12.73,31.27 -21.16,45.85 -6.38,10.56 -13.21,21.44 -23.77,28.27 9.83,-22.6 22.79,-44.66 25.85,-69.51 -9.4,-38.31 -20.55,-76.39 -26.75,-115.43zm-471.93 -21.41c17.15,-0.51 33.86,-12.78 36.03,-30.45 2.56,21.28 5.57,42.56 11.01,63.34 2.77,10.35 2.31,21.85 -2.9,31.4 -5.44,10.36 -15.36,17.44 -25.67,22.45 -40.55,19.48 -81,39.09 -121.53,58.63 -4.89,-15 -9.9,-29.99 -14.95,-44.94 7.09,-3.15 14.22,-6.26 21.35,-9.32 -3.45,-12.6 -5.37,-25.7 -10.06,-37.88 -7.24,0.07 -14.4,1.42 -21.64,1.46 -2.43,-1.96 -1.67,-6.14 -2.68,-8.96 -2.01,-12.41 -4.27,-24.75 -6.24,-37.16 19.5,-1.49 39.09,-2.26 58.54,-4.18 8.73,-0.99 14.97,-7.75 19.13,-14.93 16.16,15.27 39.5,11.02 59.61,10.54zm-68.98 49.99l0 0c2.08,8.68 4.32,17.32 6.79,25.94 24.75,-10.77 49.44,-21.74 74.22,-32.48 -27.04,1.53 -54.02,4.3 -81.01,6.54zm957.58 -78.34c7.06,-9.18 20.18,-8.02 30.31,-6.12 47.01,10.28 93.92,21.16 141,31.24 -1.48,15.18 -3.65,30.31 -6.72,45.26 -31.33,6.72 -62.58,13.83 -93.94,20.44 28.23,7.22 56.89,12.68 85.26,19.43 -5.58,19.84 -11.22,39.72 -18.95,58.85 -6.33,-9 -14.42,-17.46 -25.24,-20.75 -10.88,-3.16 -22.01,-5.33 -33.07,-7.68 -8.59,-2.26 -16.73,2.19 -24.11,6.01 -4.42,-7.34 -10.79,-14.15 -19.59,-15.75 -17.31,-3.47 -34.84,-9.99 -52.71,-6.74 -8.99,1.39 -16.48,6.92 -22.9,13.03 5.57,-13.42 11.31,-26.79 15.93,-40.6 2.63,-7.04 4.43,-14.74 9.57,-20.48 5.4,-5.53 13.17,-7.45 20.39,-9.44 21.51,-5.12 43.09,-10.03 64.6,-15.24 -25.69,-7.16 -52,-12.03 -78.01,-17.86 2.05,-11.24 1.25,-23.9 8.18,-33.6zm-472.57 -7.72c37.28,-2.81 75.68,-5.35 112.07,4.96 -35.04,-0.75 -70.13,-0.92 -105.08,2.22 -15.57,0 -30.83,2.51 -46.06,5.25 10.97,-9.12 25.31,-11.27 39.07,-12.43zm-546.31 -154.65c15.91,15.13 39.08,14.17 59.43,16.18 10.53,1.35 19.52,-5.19 27.27,-11.4 4.63,7.49 11.33,14.76 20.59,15.81 17.39,1.72 35.54,5.99 52.59,0.07 7.98,-2.47 14.4,-7.98 20.46,-13.48 -7.73,28.41 -12.91,57.57 -14.58,86.99 -1.05,11.98 0.23,25.19 -6.95,35.61 -6.31,10.29 -18.88,15.96 -30.79,14.06 -12.89,-1.53 -26.03,-1.46 -38.7,-4.41 -10.33,-2.95 -15.88,-13.03 -19.47,-22.38 -4.75,8.16 -11.06,17.58 -21.46,18.28 -20.05,1.42 -40.16,1.97 -60.23,3.14 0.14,-10.15 -0.37,-20.32 0.11,-30.45 0.05,-7.45 6.91,-13.17 13.97,-13.81 12.23,-1.59 24.59,-1.23 36.84,-2.65 5.42,-0.77 11.5,-3.49 13.26,-9.14 1.83,-6.47 1.69,-13.3 2.47,-19.95 -21.12,-2.02 -42.22,-4.07 -63.34,-5.97 2.24,-18.93 4.62,-37.85 8.53,-56.5zm91.84 91.98l0 0c2.47,4.95 8.94,3.97 13.48,4.91 6.45,0.09 13.81,2.56 19.73,-0.76 3.75,-8.52 2.88,-18.17 4.02,-27.22 -11.86,-0.93 -23.7,-2.22 -35.56,-3.18 -0.62,8.74 -2.36,17.47 -1.67,26.25zm1008.68 -87.89c13.56,-7.66 29.51,-8.21 44.64,-9.65 16.99,-1.09 36.78,8.62 40,26.68 2.22,13.6 3.48,27.33 5.49,40.96 1.72,12.5 4.16,27.61 -5.71,37.53 -11.96,11.63 -30.06,9.1 -45.19,11.84 -1.58,-14.54 -3.11,-29.07 -5.05,-43.57 5.6,-0.75 11.22,-1.41 16.84,-2.08 -1.71,-7.7 0.64,-18.33 -6.86,-23.4 -8,-2.15 -16.82,-0.53 -24.59,1.94 -7.15,4.05 -3.93,13.42 -3.66,20.05 3.43,19.06 -3.77,40.84 -20.93,51.06 -14.52,9.28 -32.55,6.42 -48.39,11.61 -12.19,3.25 -23.48,10.04 -30.79,20.48 1.26,-31.38 0.41,-62.93 -4.64,-93.96 -2.56,-12.21 0.98,-25.99 11.08,-33.83 10.36,-8.46 24.39,-8.28 37.01,-9.6 1.3,13.21 2.88,26.4 4.37,39.59 -5.01,0.54 -10.04,1.11 -15.02,1.69 1.37,8.04 -0.07,17.55 5,24.41 7.91,3.95 22.63,1.69 23.84,-8.94 0.14,-9.9 -3.04,-19.75 -1.28,-29.62 1.97,-14.11 11.34,-26.59 23.84,-33.19zm-370.44 10.92c36.43,-33.02 99.7,-31.63 132.62,5.81 -8.71,-5.28 -17.06,-11.31 -26.61,-15.02 -23.86,-9.48 -51.29,-7.93 -74.81,1.83 -16.44,7.48 -29.74,20.21 -41.99,33.19 -26.29,28.96 -46.93,62.95 -61.14,99.36 -2.86,-0.59 -5.67,-1.12 -8.51,-1.67 14.68,-47.5 43.07,-90.76 80.44,-123.5zm-397.58 -13.46c19.96,-14.4 46.22,-17.69 69.92,-12.5 29.12,6.28 54.58,26.38 68.66,52.5 -12.52,-15.08 -27.4,-28.82 -45.94,-35.97 -22.92,-9.35 -49.69,-10.02 -72.34,0.45 -29.85,13.76 -50.52,44.32 -54.31,76.71 -2.24,22.79 1.55,45.9 9.97,67.13 -15.07,-18.65 -18.04,-43.77 -18.47,-66.92 0.5,-31.62 16.66,-63.04 42.51,-81.4zm247.02 -194.38c2.4,-5.16 5.23,-10.14 8.36,-14.92 -19.17,56.27 -36.39,113.42 -46.37,172.11 -2.77,18.01 -6.43,36.07 -6.65,54.31 21.37,34.61 32.38,74.63 37.92,114.68 -2.18,0.11 -6.47,0.36 -8.64,0.48 -7.98,-40.99 -24.19,-80.37 -47.23,-115.16 9.49,-73.19 30.72,-144.91 62.61,-211.5zm-480.23 -20.61c5.19,8.48 11.43,16.57 20.05,21.83 15.58,9.69 31.9,18.12 47.68,27.47 5.53,3.02 11.47,7.27 18.12,5.62 5.69,-2.26 9.12,-8.48 8.78,-14.49 -0.02,-13.6 -8.14,-25.16 -13.94,-36.91 17.87,11.72 35.33,24.09 53.18,35.91 -3.72,2.44 -7.68,4.91 -10.1,8.8 -13.85,21.3 -27.43,42.79 -41.53,63.93 -5.05,-8.83 -11.64,-16.89 -20.43,-22.2 -20.03,-12.71 -40.07,-25.32 -60.23,-37.78 -8.39,-5.44 -18.24,-7.61 -28.03,-8.78 7.91,-15.01 17.97,-28.73 26.45,-43.4zm919.95 7.95c5.67,-20.82 32.78,-31.11 51.36,-20.89 13.81,7.38 22.4,21.26 28.92,34.97 3.04,6.68 6.47,13.26 11.86,18.36 -14.1,9.19 -28.04,18.6 -42.24,27.58 4.09,-11.86 9.49,-24.34 6.93,-37.16 -1.49,-6.7 -6.11,-13.78 -13.28,-15.06 -6.93,-0.44 -11.52,6.9 -10.63,13.25 1.3,16.89 9.28,34.31 2.42,51.02 -9.87,21.35 -40.14,30.51 -59.77,17.01 -14.83,-9.24 -22.72,-25.58 -29.19,-41.15 -1.94,-5.37 -5.67,-9.73 -9.85,-13.48 14.86,-9.76 29.76,-19.5 44.57,-29.33 -5.51,11.25 -10.31,23.75 -8.25,36.51 1.23,7.7 4.41,16.31 11.91,19.88 7.31,3.7 17.39,-2.22 17.07,-10.63 0.03,-16.94 -6.19,-34.01 -1.83,-50.88zm20.35 -77.94c11.56,-5.44 23.93,7.66 20.89,19.18 -3.02,11.52 -16.53,17.28 -27.59,15.56 -7.86,-0.66 -14.01,-5.96 -20.02,-10.49 5.8,-0.16 13.6,2.17 17.53,-3.54 2.1,-7.11 0.57,-17.63 9.19,-20.71zm-74.22 -37.62c4.69,-2.84 7.52,-7.57 10.77,-11.8 14.03,12.23 27.24,25.42 41.09,37.88 -4.23,2.83 -8.43,5.94 -10.83,10.56 -14.52,24.91 -29.05,49.82 -43.5,74.78 -5.53,9.22 -9.05,19.43 -11.66,29.83 -11.74,-10.85 -23.63,-21.57 -34.99,-32.82 8.73,-2.72 16.71,-8.37 20.41,-16.94 -7.29,-8.55 -16.3,-15.4 -24.25,-23.33 -7.5,5.64 -14.13,12.98 -15.22,22.69 -10.63,-9.46 -20.96,-19.22 -31.29,-29 9.02,-3.02 18.01,-6.45 25.96,-11.8 24.6,-16.55 48.94,-33.46 73.51,-50.05zm-32.37 54.31l0 0c5.49,5.27 11.14,10.39 16.96,15.31 9.19,-16.07 19.41,-31.54 28.48,-47.68 -15.17,10.74 -30.37,21.46 -45.44,32.37zm-721.53 -64.92c21.14,-4.85 40.73,8.34 54.86,22.72 14.22,14.51 28.87,32.16 28.78,53.6 0.18,19.59 -14.22,35.38 -29.12,46.29 -13.01,9.87 -31.16,12.98 -46.22,6.08 -19.5,-8.83 -34.63,-25.17 -46.54,-42.59 -10.33,-14.88 -14.31,-35.56 -4.59,-51.77 9.67,-15.75 24.57,-29.67 42.83,-34.33zm-5.37 31.09l0 0c-4.09,1.73 -7.45,5.09 -9.62,8.91 -3.45,7.06 1.09,14.54 4.96,20.34 8.16,11.45 17.8,21.83 28.34,31.11 5.69,4.53 12.05,9.92 19.82,9.42 7.2,-1.26 13.71,-8 13.46,-15.54 -1.26,-8.62 -6.97,-15.62 -12.23,-22.22 -8.39,-9.81 -17.12,-19.5 -27.54,-27.18 -4.87,-3.52 -11.02,-6.83 -17.19,-4.84zm626.9 -124.39c14.2,7.63 28.14,15.7 42.27,23.49 -3.41,10.27 -3.52,21.15 -4.67,31.8 -1.18,14.56 -3.17,29.03 -3.61,43.63 9.76,-21.3 27.59,-40.45 26.4,-65.32 12.41,7.15 25.05,13.89 37.42,21.16 -6.93,3.68 -13.78,8.14 -17.58,15.25 -11.72,20.41 -23.04,41.07 -34.6,61.58 -5.79,10.76 -12.48,21.07 -17.24,32.36 -11.04,-6.15 -21.99,-12.46 -33.14,-18.38 1.21,-4.06 2.49,-8.13 2.9,-12.38 2.15,-23.84 4.39,-47.68 6.72,-71.52 -8.91,14.65 -16.93,29.8 -25.37,44.73 -5.1,8.3 -5.14,18.21 -4.48,27.61 -12.57,-7.29 -25.6,-13.76 -37.87,-21.53 19.4,-12.21 27.13,-34.63 38.53,-53.33 9.7,-18.95 24.51,-36.75 24.32,-59.15zm-518.65 19.93c13.12,-7.66 26.61,-14.7 39.84,-22.13 -0.52,7.64 -0.25,15.61 3.57,22.47 10.47,20.32 22.15,40.02 32.75,60.28 5.79,10.94 7.71,24.54 2.31,36.02 -5.92,12.53 -17.74,21.12 -29.9,27.06 -10.31,4.85 -22.33,8.71 -33.62,4.98 -10.15,-3.15 -17.44,-11.68 -22.54,-20.61 -10.46,-18.52 -20.29,-37.4 -30.85,-55.84 -4.78,-8.46 -12.16,-14.97 -20.25,-20.14 14.97,-8.27 29.85,-16.66 45,-24.59 0.44,9.41 1.76,18.94 6.31,27.33 8.78,16.94 18.4,33.44 27.36,50.29 3.54,6.19 7.54,13.87 15.43,14.92 8.68,-0.73 18.22,-7.15 18.42,-16.64 -0.75,-6.53 -4.46,-12.2 -7.45,-17.92 -9.05,-16.02 -17.62,-32.29 -26.7,-48.29 -4.25,-7.98 -11.77,-13.28 -19.68,-17.19zm70.86 -32.44c16.23,-4.82 32.27,-10.17 48.36,-15.38 -1.14,10.01 -1.71,20.39 1.61,30.11 6.97,22.35 14.17,44.66 21.46,66.92 3.06,10.13 9.44,18.72 16.64,26.31 -16.37,4.73 -32.53,10.17 -48.76,15.43 2.04,-10.75 1.6,-21.85 -1.92,-32.21 -7.15,-21.99 -14.01,-44.04 -21.28,-65.99 -3.04,-9.69 -9.44,-17.73 -16.11,-25.19zm333.9 -22.92c17.8,5.16 35.84,9.53 53.67,14.67 -2.38,5.24 -4.53,10.72 -4.46,16.6 -1.08,28.27 -2.2,56.55 -3.41,84.8 -0.55,10.58 1.47,21.05 3.82,31.29 -15.41,-4.32 -30.88,-8.46 -46.38,-12.44 6.56,-6.97 10.86,-15.74 10.56,-25.5 -10.83,-2.63 -21.6,-5.58 -32.32,-8.67 -4.91,8.32 -6.21,18.01 -3.54,27.32 -13.62,-3.77 -27.29,-7.36 -40.94,-11.04 7.48,-7.64 14.22,-16.07 19.13,-25.58 11.34,-21.53 22.7,-43.06 34.04,-64.57 4.5,-8.46 9.94,-16.92 9.83,-26.88zm-7.25 79.06l0 0c7.38,1.9 14.79,3.82 22.17,5.78 1.12,-18.69 2.06,-37.44 3.43,-56.13 -8.91,16.59 -17.07,33.57 -25.6,50.35zm-106.51 -92.39c17.09,1.24 34.21,2.15 51.31,3.48 -5.62,8.96 -9.49,19.01 -9.99,29.67 -1.64,22.92 -3.08,45.85 -4.61,68.77 -0.9,10.47 1.89,20.76 6.01,30.29 -17.08,-0.94 -34.13,-2.4 -51.23,-3.2 5.6,-8.85 9.42,-18.81 10.06,-29.33 1.65,-22.9 3.13,-45.8 4.62,-68.71 0.94,-10.72 -1.67,-21.32 -6.17,-30.97z"/>
   <path class="fil2" d="M935.09 100.09c98.12,-8.98 198.26,2.42 291.54,34.4 173.53,58.24 321.44,187.84 402.56,351.86 88.41,175.02 97.58,387.52 25.6,569.81 -54.79,140.89 -156.69,262.7 -285.33,341.99 -73.21,45.32 -154.83,77.1 -239.52,92.78 -112.75,21.05 -230.7,14.35 -340.18,-19.98 -156.71,-48.57 -294.52,-154.49 -382.49,-292.89 -41.42,-64.78 -72.09,-136.39 -90.24,-211.09 -23.77,-97.78 -26.24,-200.64 -7.45,-299.5 23.36,-123.49 81.03,-240.16 164.59,-333.98 60.96,-68.74 135.48,-125.44 218.1,-165.63 75.91,-37.12 158.66,-60.16 242.82,-67.77zm36.11 789.19c7.18,0.23 14.35,0.57 21.53,1.05 -14.51,32.83 -30.35,65.05 -45.9,97.42 8.96,33.96 27.46,65.39 53.08,89.44 0.04,-62.26 0.11,-124.53 0.71,-186.77 9.87,-0.36 19.72,-1.14 29.6,-1.41 13.8,30.74 23.68,64.66 48.39,88.93 -7.66,27.77 -17.97,55.11 -33.51,79.5 -11.02,17.14 -24.85,32.96 -42.56,43.41 -41.81,-29.03 -63.32,-78.06 -77.01,-125.44 19.98,-25.85 34.36,-55.62 45.67,-86.13zm41.16 1.07l0 0c6.2,39.04 17.35,77.12 26.75,115.43 -3.06,24.85 -16.02,46.91 -25.85,69.51 10.56,-6.83 17.39,-17.71 23.77,-28.27 8.43,-14.58 15.84,-29.83 21.16,-45.85 -14.49,-35.96 -24.11,-73.67 -35.4,-110.7 -3.5,-0.07 -6.97,-0.09 -10.43,-0.12zm177.47 -22.62c10.56,9.21 19.82,20.84 22.42,34.99 4.12,21.1 3.34,45.08 -9.99,62.95 -23.15,29.51 -70.19,35.02 -100.48,13.39 -30.74,-21.48 -48,-56.68 -60.23,-91.13 12.48,-1.51 24.8,-3.93 37.03,-6.88 2.75,20.64 7.43,42.63 22.15,58.31 12.94,14.29 33.85,19.27 52.39,16.14 25.35,-6.04 47.18,-30.49 45.19,-57.35 -0.32,-7.59 -2.65,-15 -6.7,-21.42 -3.84,17.78 -19.52,34.17 -38.65,32.99 -8.27,-0.83 -19.36,-3.59 -21.83,-12.69 8.3,3.7 16.96,8.39 26.38,6.81 17.58,-2.65 30.56,-18.9 32.32,-36.11zm-396.05 21.12c4.12,-8.37 10.91,-14.93 17.67,-21.15 1.42,18.31 16.48,35.46 35.29,36.37 8.87,0.62 16.62,-4.12 24.05,-8.23 -0.14,3.36 -2.22,6.13 -4.94,7.86 -11.52,8.39 -28.32,7.93 -39.54,-0.77 -9.42,-6.38 -14.4,-17.08 -17.03,-27.8 -4.73,10.84 -8.21,22.77 -5.83,34.68 4.55,24.02 26.22,43.95 50.49,46.58 19.13,-0.18 37.51,-9.51 50.52,-23.27 13.35,-13.78 20.73,-32.11 25.23,-50.49 9.69,2.31 19.5,3.95 29.37,5.21 -5.76,15.38 -9.07,31.77 -17.26,46.19 -14.37,27.89 -41.14,49.06 -71.83,55.94 -20.17,5.34 -42.04,-0.44 -58.82,-12.23 -14.62,-10.24 -23.06,-27.77 -24.07,-45.4 -0.84,-14.67 -0.04,-30.14 6.7,-43.49zm150.4 -62.79c32.05,-4.87 64.71,-4.73 96.96,-1.95 12.51,1.19 25.95,2.75 36.12,10.79 3.81,2.79 5.48,7.8 4.13,12.35 -6.05,7.95 -16.82,9.18 -25.96,10.74 -31.89,5.67 -64.39,3.52 -96.57,3.15 -11.5,-0.09 -23.45,0.46 -34.31,-3.97 -6.31,-2.5 -12.64,-4.92 -19.18,-6.7 10.1,14.92 27.98,20.25 44.57,24.25 -12.18,-1.14 -24.36,-3.34 -35.84,-7.68 -6.15,-2.47 -12.59,-6.1 -15.33,-12.48 -2.24,-6.33 1.98,-12.71 7.2,-16.02 11.4,-7.34 25.02,-10.17 38.21,-12.48zm12.28 6.81l0 0c-13.76,1.16 -28.1,3.31 -39.07,12.43 15.23,-2.74 30.49,-5.25 46.06,-5.25 34.95,-3.14 70.04,-2.97 105.08,-2.22 -36.39,-10.31 -74.79,-7.77 -112.07,-4.96zm178.47 -149.44c27.33,-21.46 64.36,-30.51 98.4,-22.95 30.81,6.84 57.69,29.46 69,59.02 7.22,19.7 8.64,41.21 6.68,61.99 -3.2,29.62 -22.34,55.49 -46.68,71.7 15.68,-22.29 22.2,-50.56 17.53,-77.46 -6.28,-44.12 -56.93,-74.79 -99.11,-61.74 -28.43,8.23 -51.17,28.96 -68.38,52.37 -14.63,15.86 -20.85,36.91 -31.94,55.03 -4.04,-1.02 -8.09,-2.01 -12.13,-2.99 14.21,-36.41 34.85,-70.4 61.14,-99.36 12.25,-12.98 25.55,-25.71 41.99,-33.19 23.52,-9.76 50.95,-11.31 74.81,-1.83 9.55,3.71 17.9,9.74 26.61,15.02 -32.92,-37.44 -96.19,-38.83 -132.62,-5.81 -37.37,32.74 -65.76,76 -80.44,123.5 -2.88,-0.57 -5.76,-1.14 -8.61,-1.71 9.76,-52.48 41.71,-99.38 83.75,-131.59zm-437.9 41.26c11.11,-34.31 43.29,-59.91 78.67,-65.24 27.09,-4 55.75,1.42 78.97,16.14 16.99,10.74 31.55,24.84 44.89,39.77 24.76,28.73 44.1,62.56 53.86,99.34 -11.32,1.69 -22.52,4.09 -33.6,6.97 -6.38,-12.98 -9.81,-27.45 -18.77,-39.04 -18.9,-27.89 -42.24,-55.29 -74.97,-66.81 -42.29,-17.03 -96.09,12.39 -104.25,57.28 -5.6,27.68 0.66,57.42 17.39,80.2 -23.33,-15.22 -41.83,-39.33 -46.26,-67.29 -3.13,-20.36 -1.71,-41.53 4.07,-61.32zm45.62 -44.92l0 0c-25.85,18.36 -42.01,49.78 -42.51,81.4 0.43,23.15 3.4,48.27 18.47,66.92 -8.42,-21.23 -12.21,-44.34 -9.97,-67.13 3.79,-32.39 24.46,-62.95 54.31,-76.71 22.65,-10.47 49.42,-9.8 72.34,-0.45 18.54,7.15 33.42,20.89 45.94,35.97 -14.08,-26.12 -39.54,-46.22 -68.66,-52.5 -23.7,-5.19 -49.96,-1.9 -69.92,12.5zm205.9 -139.06c12.98,-33.44 28.98,-66.2 51.52,-94.33 20.96,27.79 36.43,59.29 49.46,91.43 19.8,49.69 32.44,102.03 40,154.94 0.18,3.52 1.69,7.64 -0.71,10.79 -22.58,33.53 -39.43,71.04 -49.48,110.22 -5.05,-0.55 -10.13,-1.1 -15.18,-1.58 8.5,-40.57 24.3,-79.29 43.82,-115.72 3.59,-5.26 1.66,-11.7 1.25,-17.51 -6.69,-53.69 -24.48,-105.24 -44.48,-155.25 -7.61,-18.05 -14.83,-36.36 -24.06,-53.67 -1.1,58.95 -0.58,117.95 -0.69,176.9 -0.6,54.76 -0.78,109.53 -0.48,164.29 -12.39,0.83 -24.8,1.49 -37.19,2.22 -7.75,-40.87 -27.84,-78.08 -51.54,-111.79 6.33,-54.84 17.83,-109.35 37.76,-160.94zm41.12 -55.32l0 0c-31.89,66.59 -53.12,138.31 -62.61,211.5 23.04,34.79 39.25,74.17 47.23,115.16 2.17,-0.12 6.46,-0.37 8.64,-0.48 -5.54,-40.05 -16.55,-80.07 -37.92,-114.68 0.22,-18.24 3.88,-36.3 6.65,-54.31 9.98,-58.69 27.2,-115.84 46.37,-172.11 -3.13,4.78 -5.96,9.76 -8.36,14.92zm-40.92 -369.16l0 0c-45.25,3.38 -90.21,11.13 -133.92,23.38 -115.93,32.25 -222.78,96.05 -306.51,182.42 -75.02,76.99 -131.61,171.84 -163.32,274.57 -31.08,99.99 -38.51,207.15 -22.33,310.58 19.75,127.72 77.1,249.16 162.65,345.99 55.8,63.45 123.48,116.36 198.38,155.43 84.3,43.93 177.88,69.87 272.76,75.67 107.29,6.91 216.18,-11.65 314.92,-54.33 140.35,-60.2 259.09,-168.86 331.66,-303.22 45.51,-83.68 73.12,-177.05 80.43,-272.02 8.1,-100.96 -6.26,-203.73 -42.33,-298.4 -30.01,-79.18 -75.08,-152.55 -131.75,-215.41 -74.6,-82.86 -169.66,-147.22 -274.49,-185.3 -91.13,-33.3 -189.41,-46.54 -286.15,-39.36z"/>
   <path class="fil3" d="M946.35 136.66c143.98,-11.91 291.57,24.46 412.96,102.97 72.46,46.59 135.84,107.27 185.33,177.79 53.17,75.29 90.19,161.87 108.11,252.27 20.16,102.72 16.32,210.27 -12.11,311.07 -40.14,144.22 -131.18,273.34 -252.96,360.32 -66.4,47.68 -141.62,83.06 -220.82,103.35 -107.5,27.78 -221.95,28.12 -329.6,1.03 -148.67,-36.8 -282.86,-127.56 -373.37,-250.99 -85.1,-114.99 -131.57,-258.22 -129.06,-401.33 0.37,-115.31 32.44,-230.21 90.81,-329.57 57.81,-98.75 141.54,-182.11 240.55,-239.46 85.26,-49.66 181.79,-79.77 280.16,-87.45zm165.6 1095.84c6.06,3.27 11.43,8.42 12.67,15.5 2.1,11.38 5.67,22.77 5.46,34.42 -2.22,10.52 -11.38,17.56 -17.35,25.99 -21.3,1.44 -42.56,3.06 -63.86,4.39 -0.25,-3.88 -0.51,-7.75 -0.76,-11.59 23.78,-1.48 47.5,-3.33 71.27,-4.82 -2.26,-21.3 -0.73,-43.25 -7.43,-63.89zm73.7 -7.97c15.56,21.76 29.34,44.77 44.25,67.01 -8.16,3.68 -16.39,7.25 -24.67,10.7 -6.56,-25.9 -13.07,-51.82 -19.58,-77.71zm16.09 36.84c2.56,10.56 5.46,21.05 8.09,31.61 3.36,-1.41 6.74,-2.81 10.12,-4.2 -5.87,-9.26 -11.54,-18.68 -18.21,-27.41zm-158.43 -45.26c10.54,-0.91 21.63,-3.7 31.89,0.3 14.33,4.92 24.82,18.49 26.9,33.37 1.53,11.2 1.76,22.54 2.49,33.83 -18.76,1.24 -37.53,2.65 -56.32,3.82 -0.38,-6.79 -0.84,-13.55 -1.37,-20.32 -4.77,0.5 -9.55,1.03 -14.33,1.65 1.17,28.52 3.13,57.09 5.92,85.5 4.8,-0.11 9.62,-0.27 14.47,-0.41 -0.64,-9.12 -1.26,-18.24 -1.71,-27.36 19.45,-1.41 38.92,-2.72 58.37,-4.09 0.57,13.28 2.24,26.52 2.31,39.82 -0.16,19.56 -14.22,39.61 -34.4,42.22 -18.24,1.89 -36.55,2.92 -54.83,4.43 -16.53,1.53 -32.28,-8.94 -39.23,-23.63 -8.16,-15.85 -4.29,-34.24 -7.9,-51.07 -4.48,-10.1 -16.39,-12.59 -24.64,-18.65 6.17,-2.86 13.09,-4.57 18.33,-9.05 5.14,-5.1 4.13,-12.82 3.77,-19.34 -1.35,-15.61 -1.92,-32.02 -9.26,-46.21 -2.97,-5.99 -8.75,-9.63 -14.44,-12.62 -0.44,-4.46 -1.19,-8.87 -2.09,-13.24 31.89,3.55 64.14,4.6 96.07,1.05zm-89.46 7.05c5.85,3.01 11.66,6.72 14.97,12.59 8.51,13.96 9.49,30.86 10.95,46.74 0.34,7.39 1.97,15.2 -1.03,22.31 -1.83,4.94 -7.08,7.61 -9.8,11.75 4,5.14 11.2,8.53 13.28,15.4 4.34,16.37 -0.23,34.52 7.56,50.11 5.47,11.7 17.72,20.62 31,19.68 17.55,-0.89 35.08,-2.56 52.61,-3.87 12.05,-0.61 23.04,-8.57 27.71,-19.63 7.08,-15.18 2.05,-32.21 1.99,-48.18 -14.54,1 -29.15,1.46 -43.62,3.24 -1.34,8.92 0.85,18.06 1.12,27.07 -7.88,0.18 -15.97,2.15 -23.74,0.18 -5.58,-2.17 -5.95,-9.03 -6.47,-14.1 -1.51,-22.08 -3.07,-44.19 -4.6,-66.27 0.14,-5.6 -1.39,-12.68 3.27,-16.93 7.54,-3.87 16.46,-2.68 24.66,-3.43 0.28,6.72 0.74,13.46 1.22,20.2 14.1,-1.19 28.22,-1.98 42.33,-3.08 -1.69,-14.08 0.61,-30.06 -8.67,-41.97 -6.92,-9.85 -19.31,-15.24 -31.24,-13.32 -34.31,4.5 -69.05,4.48 -103.5,1.51zm-47.31 2.03c2.69,-5.6 6.92,-10.17 12.77,-12.48 0.76,6.06 1.44,12.14 2.22,18.19 3.64,-4.93 7.04,-10.05 10.33,-15.24 2.81,4.71 5.65,9.41 8.5,14.1 0.23,-3.27 0.39,-6.51 0.55,-9.76 4.3,13.46 -2.81,27.38 -11.7,37.23 -13.58,14.04 -33.67,19.66 -52.68,20.46 -4.12,0.51 -10.61,-2.37 -7.57,-7.29 7.68,-6.19 17.42,-10.08 23.22,-18.44 8.69,-10.56 5.19,-25.79 13.15,-36.78 0.34,3.31 0.8,6.67 1.21,10.01zm11.13 29.58c-10.65,8.73 -24.05,12.66 -36.78,17.23 16.85,-1.48 34.68,-5.9 46.97,-18.28 6.29,-5.42 9.12,-13.58 8.12,-21.76 -5.54,8 -10.27,16.93 -18.31,22.81zm231.04 -63.29c13.46,-4.69 26.4,-12.78 41.19,-12.07 17.6,0.2 32.91,11.68 42.53,25.73 27.57,39.09 55.16,78.17 82.61,117.33 -17.74,10.4 -35.86,20.2 -54.54,28.87 -4.27,-6.61 -8.71,-13.12 -13.14,-19.61 -8.23,3.75 -16.53,7.33 -24.73,11.15 2.19,7.52 4.11,15.11 5.87,22.77 -19.13,7.22 -38.37,14.26 -58.15,19.63 -4.25,-18.95 -8.96,-37.8 -13.23,-56.73 -1.35,-4.98 -2.38,-10.54 -6.49,-14.01 -5.42,-4.83 -13.08,-4.85 -19.73,-6.54 5.95,-7.47 12.64,-15.4 13.01,-25.44 0.41,-11.82 -3.36,-23.25 -5.26,-34.81 -2.35,-13.3 -12.02,-26.74 -26.19,-28.46 -10.63,-1.35 -21.33,-3.36 -30.88,-8.43 22.67,-5.37 45.39,-10.88 67.13,-19.38zm18.86 0.04c-18.73,8.18 -38.2,14.52 -57.88,19.98 9.26,1.12 18.86,4.04 25.05,11.47 11.34,12.21 11.5,29.81 15.07,45.17 2.85,11.93 0.38,24.36 -5.44,35.01 8.29,2.93 16.02,8.9 18.05,17.88 4.71,18.42 8.67,37.03 13.26,55.5 14.95,-4.39 29.58,-9.83 44.25,-15.04 -1.46,-7.45 -3.68,-14.72 -5.03,-22.17 11,-6.91 23.77,-10.95 35.64,-16.3 4.02,6.58 8.25,13.03 12.52,19.47 14.01,-7.17 27.82,-14.76 41.76,-22.08 -25.55,-36.91 -51.65,-73.44 -77.41,-110.19 -7.66,-11.29 -18.91,-21.28 -32.83,-23.32 -9.25,-1.76 -18.6,0.87 -27.01,4.62zm-472.99 15.54c7.5,-9.69 16.25,-18.33 24.32,-27.54 -3.45,8.41 -6.42,17.26 -12.02,24.53 -3.89,1.73 -8.16,2.24 -12.3,3.01zm524.96 -33.39c11.48,-0.37 22.65,-3.31 34.04,-4.43 12.93,1 19.29,13.76 26.99,22.42 2.49,3.98 8.07,7.47 6.42,12.77 -2.42,9.74 -6.08,19.11 -8.82,28.78 10.13,-0.43 20.25,-1.78 30.4,-1.74 4.39,-0.38 8.09,3.41 9.08,7.43 -9.06,7.98 -19.32,14.5 -28.55,22.27 -15.82,-21.15 -30.5,-43.13 -45.88,-64.6 -6.33,-9.07 -14.65,-16.57 -23.68,-22.9zm120.35 -49.03c7.51,4.73 15.49,9.1 21.85,15.43 1.39,4.16 0.98,8.66 1.37,13 -8.34,-8.96 -15.96,-18.58 -23.22,-28.43zm-712.58 12.09c10.36,-7.93 21.49,-14.76 32.76,-21.32 -5.69,6.72 -11.45,13.44 -17.72,19.65 -3.75,4.67 -10.08,1.63 -15.04,1.67zm50.43 -70.26c30.05,34.49 64.34,65.55 103.45,89.49 9.55,5.66 19.59,13.14 21.46,24.91 2.77,17.17 0.64,34.67 1.44,51.98 8.73,-16.78 16.59,-33.99 24.91,-50.98 14.95,6.73 34.5,9.38 42.84,25.26 6.81,16.07 -2.88,32.71 -9.76,47 -19.77,40.68 -39.5,81.39 -59.04,122.19 -17.99,-5.85 -35.43,-13.21 -52.73,-20.8 -0.66,-23.06 1.07,-46.15 0.02,-69.19 -8.59,19 -18.06,37.58 -26.88,56.46 -24.8,-13.21 -49.07,-27.52 -71.98,-43.77 13.03,-4.57 28.05,-8.62 35.59,-21.3 5.49,-9.86 10.24,-20.1 14.84,-30.36 4.39,-9.16 -1.12,-18.61 -5.49,-26.54 8.92,-1.57 19.73,-3.15 24.25,-12.18 5.42,-10.63 10.88,-21.3 15.34,-32.37 4.94,-11.7 4.48,-25.32 -2.35,-36.15 -3.32,6.14 -6.89,12.22 -11.75,17.3 -35.64,38.05 -70.24,77.07 -105.83,115.18 -22.22,-18.38 -43.45,-37.97 -62.95,-59.21 11.45,-0.59 23.4,0.85 34.31,-3.47 9.78,-3.91 16.04,-12.8 23.04,-20.18 4.84,-5.6 10.6,-10.59 14.15,-17.17 3.97,-7.24 0.96,-15.61 -0.44,-23.11 9.3,1.47 21.01,3.48 27.66,-5.09 11.43,-13.63 28.23,-25.72 29.37,-44.99 -1.37,-10.94 -4.71,-21.71 -3.47,-32.91zm9.48 20.75c2.29,12.69 0.05,26.2 -7.82,36.62 -7.26,9.42 -15.63,17.97 -23.81,26.58 -5.53,6.13 -13.92,7.62 -21.76,8.07 0.25,8.73 -1.3,17.95 -7.66,24.46 -8.78,9.39 -16.8,19.66 -26.61,28.02 -8.45,6.86 -19.52,8.69 -30.05,9.53 14.56,15 30.15,28.96 46.06,42.5 30.78,-33.7 61.46,-67.55 92.36,-101.15 6.93,-7.88 16.5,-14.9 18.38,-25.85 0.39,-9.78 -7.27,-17.07 -13.72,-23.36 -8.91,-8 -17.35,-16.5 -25.37,-25.42zm52.14 48.46c3.95,7.91 7.73,16.39 6.99,25.49 -0.91,17.5 -11.04,32.52 -18.01,48.09 -3.61,8.73 -11.79,14.33 -20.66,16.84 1.28,4.9 3.04,9.76 3.02,14.88 -0.53,7.59 -4.53,14.27 -7.68,21.01 -4.57,8.94 -7.96,18.74 -15,26.17 -5.51,6.08 -13.07,9.58 -20.32,13.1 16.89,11.68 34.63,22.15 52.8,31.7 12.62,-26.28 25.12,-52.64 38.01,-78.81 -0.38,32.23 -0.75,64.48 -1.41,96.71 13.94,5.9 27.88,11.84 42.17,16.89 20.87,-42.65 41.23,-85.55 61.99,-128.28 4.57,-10.01 9.6,-23.13 1.99,-32.98 -7.87,-9 -20.28,-11.49 -30.95,-15.68 -11.57,24.14 -22.81,48.44 -35.02,72.25 -0.41,-22.51 0.11,-45.02 -0.23,-67.54 -0.5,-7.13 -0.39,-14.86 -4.52,-21 -4.44,-6.47 -11.48,-10.29 -17.92,-14.4 -12.12,-7.62 -23.75,-15.94 -35.25,-24.44zm683.79 -151.11c12.21,1.42 24.23,4.23 36.1,7.34 3.68,0.64 5.07,4.43 6.56,7.36 3.04,6.79 5.76,13.71 8.68,20.57 -17.44,-11.25 -34.56,-23.04 -51.34,-35.27zm-888.68 5.79c14.51,-6.63 28.89,-13.63 43.04,-21.01 -10.74,10.74 -24.55,17.58 -36.92,26.19 -2.03,-1.73 -4.09,-3.47 -6.12,-5.18zm62.37 -25.86c0.32,-12.61 -1.94,-26.15 4.65,-37.69 12.41,36.23 28.7,71.2 50.03,103.11 9.76,14.45 19.98,31.36 15.68,49.56 -4.92,18.65 -23.89,27.33 -38.97,36.59 -9.47,-15.47 -19.64,-30.54 -29.19,-45.97 3.86,-2.47 7.73,-4.93 11.59,-7.4 -3.52,-5.6 -7.06,-11.18 -10.65,-16.71 -24.12,15.5 -48.48,30.63 -72.28,46.63 3.27,5.21 6.63,10.35 10.08,15.43 4.14,-2.56 8.55,-4.83 12,-8.3 -1.6,-3.29 -3.49,-6.42 -5.35,-9.58 13.28,-8.5 26.5,-17.05 39.82,-25.46 11.84,18.65 24.09,37.07 35.68,55.86 2.9,2.9 -2.19,4.78 -3.89,6.4 -16.82,10.63 -33.53,21.42 -50.3,32.14 -10.68,6.81 -23.43,11.43 -36.23,9.74 -10.61,-1.26 -20.25,-7.62 -26.04,-16.53 -8.8,-13.35 -17.12,-27.02 -25.78,-40.46 -5.12,-8.23 -11.54,-16.25 -12.85,-26.17 -1.94,-12.36 4.05,-24.71 13.08,-32.87 11.47,-9.55 25.35,-15.68 36.96,-24.98 7.56,-8.59 4.25,-20.87 4.57,-31.22 6.77,4.52 12.69,11.54 21.14,12.66 10.59,-1.87 18.47,-10.08 27.55,-15.24 11.1,-7.82 25.16,-15.34 28.7,-29.54zm6.89 -8.82c2.08,8.02 -0.87,16.39 -5.67,22.83 -7.78,9.95 -18.77,16.6 -29.12,23.48 -7.18,4.39 -13.83,9.83 -21.69,13.01 -6.77,2.81 -13.9,0.04 -20.03,-3.04 -0.84,7.77 -1.92,16.66 -8.41,21.96 -11.02,8.32 -23.54,14.45 -34.51,22.84 -8,6.26 -13.6,16.2 -12.69,26.58 0.69,7.84 5.56,14.33 9.55,20.82 9.58,14.72 18.63,29.78 28.3,44.44 6.56,10.08 19.23,15.15 30.97,13.09 11.8,-1.51 21.67,-8.57 31.36,-14.86 13.37,-8.52 26.63,-17.21 40.14,-25.53 -9.6,-15.84 -19.88,-31.24 -29.83,-46.88 -9.39,6.02 -18.83,11.98 -28.18,18.08 2.06,3.2 4.11,6.4 6.17,9.63 -7.18,4.25 -13.64,10.4 -21.94,12.34 -8.57,-1.35 -11.73,-11.22 -15.86,-17.72 -3.55,-4.93 1.11,-10.24 5.3,-12.75 24.78,-16 49.69,-31.84 74.47,-47.86 4.93,8.34 11.22,15.95 15.26,24.8 2.4,5.83 -4.98,8.43 -8.31,11.61 7.03,11.41 14.51,22.54 21.57,33.94 11.16,-7.11 24.99,-13.57 29.33,-27.18 4.52,-14.94 -3.71,-29.62 -11.84,-41.62 -17.14,-25.46 -31.93,-52.52 -42.9,-81.23 -0.37,-0.18 -1.08,-0.6 -1.44,-0.78zm-132.28 -36.75c26.99,-2.24 53.97,-5.01 81.01,-6.54 -24.78,10.74 -49.47,21.71 -74.22,32.48 -2.47,-8.62 -4.71,-17.26 -6.79,-25.94zm8.43 5.85c0.83,3.5 1.67,6.99 2.5,10.51 10.53,-3.72 20.71,-8.43 30.74,-13.3 -11.09,0.87 -22.15,1.92 -33.24,2.79zm9.92 -88.05c19.96,5.08 40.74,5.3 61.17,6.68 -6.49,6.05 -15.84,4.93 -24,5.25 -8.27,-0.23 -16.87,1.58 -24.89,-1.23 -5.3,-1.87 -8.62,-6.7 -12.28,-10.7zm91.18 -24.52c1.4,4.87 1.92,9.94 2.17,15.01 1.33,24.26 5.26,48.35 11.07,71.91 3.49,14.01 2.62,29.94 -6.13,41.94 -9.1,13.74 -24.78,20.37 -39.11,27.2 -38.28,18.52 -76.57,37.01 -114.83,55.59 -7.82,-19.13 -14.47,-38.76 -19.77,-58.74 7.2,-2.95 14.28,-6.1 21.34,-9.33 -2.21,-8.73 -4.43,-17.48 -6.76,-26.19 -7.82,0.69 -15.64,1.28 -23.45,1.87 -4.41,-19.97 -7.59,-40.2 -10.17,-60.47 18.72,-1.08 37.44,-2.63 56.16,-3.73 5.85,-0.6 12.43,-0.48 17.16,-4.55 5.4,-4.36 6.49,-11.73 9.05,-17.78 6.08,5.28 11.14,12.25 18.97,15.06 11.82,4.66 24.74,1.87 37.06,2.22 13.98,0.23 29.89,-6.38 34.56,-20.57 3.08,-10.29 6.88,-20.39 12.68,-29.44zm-40.55 56.73c-20.11,0.48 -43.45,4.73 -59.61,-10.54 -4.16,7.18 -10.4,13.94 -19.13,14.93 -19.45,1.92 -39.04,2.69 -58.54,4.18 1.97,12.41 4.23,24.75 6.24,37.16 1.01,2.82 0.25,7 2.68,8.96 7.24,-0.04 14.4,-1.39 21.64,-1.46 4.69,12.18 6.61,25.28 10.06,37.88 -7.13,3.06 -14.26,6.17 -21.35,9.32 5.05,14.95 10.06,29.94 14.95,44.94 40.53,-19.54 80.98,-39.15 121.53,-58.63 10.31,-5.01 20.23,-12.09 25.67,-22.45 5.21,-9.55 5.67,-21.05 2.9,-31.4 -5.44,-20.78 -8.45,-42.06 -11.01,-63.34 -2.17,17.67 -18.88,29.94 -36.03,30.45zm-38.44 -98.74c-0.69,-8.78 1.05,-17.51 1.67,-26.25 11.86,0.96 23.7,2.25 35.56,3.18 -1.14,9.05 -0.27,18.7 -4.02,27.22 -5.92,3.32 -13.28,0.85 -19.73,0.76 -4.54,-0.94 -11.01,0.04 -13.48,-4.91zm7.68 -19.02c-0.53,5.51 -1.03,11.01 -1.56,16.52 7.45,0.62 14.91,1.33 22.38,1.92 0.53,-5.41 1.03,-10.85 1.58,-16.25 -7.45,-0.87 -14.93,-1.6 -22.4,-2.19zm994.58 -73.08c15.02,-10.08 33.65,-11.08 51.13,-12.41 20.05,-1.35 42.75,10.74 46.72,31.71 2.82,18.1 4.89,36.34 7.2,54.51 2.2,14.31 -4.02,30.26 -17.32,36.98 -14.97,7.27 -32.23,6.08 -48.35,8.37 -1.94,-19.27 -4.5,-38.47 -6.33,-57.74 5.47,-0.52 10.93,-1.07 16.41,-1.6 -0.34,-3.7 -0.68,-7.38 -1,-11.06 -6.84,0.07 -13.65,0.71 -20.34,1.92 1.34,14.6 4.11,29.89 -1.47,44 -6.31,19.02 -24.45,32.75 -44.25,34.69 -18.72,1.92 -39.56,4.67 -52.73,19.66 10.13,-1.05 20.41,-1.32 30.4,1.12 47.86,10.68 95.68,21.69 143.68,31.86 -1.53,18.88 -4.64,37.61 -7.93,56.26 -21.92,5.89 -44.44,9.32 -66.29,15.4 19.75,5.24 39.87,8.98 59.75,13.67 -6.79,27.34 -15.38,54.17 -25.78,80.34 -6.15,-8.38 -10.45,-18.47 -19.06,-24.73 -8.53,-6.65 -19.68,-7.65 -29.81,-10.19 -7.2,-1.44 -14.65,-4.12 -21.99,-2.17 -6.15,2.19 -10.92,6.88 -16.04,10.76 -3.27,-8.32 -7.34,-18.1 -16.9,-20.57 -13.62,-3.2 -27.24,-7.02 -41.23,-8.07 -12.82,-0.68 -26.38,5.47 -32.37,17.21 10.54,1.44 20.62,5.33 29.38,11.41 27.33,18.4 54.28,37.37 81.57,55.86 8.09,5.35 15.89,11.66 20.67,20.3 7.97,13.28 7.42,31.08 -1.42,43.82 -9.08,13.62 -18.22,27.2 -27.54,40.68 -10.95,16.05 -33.33,23.2 -51.48,16.28 -12.43,-6.01 -22.51,-15.84 -34.63,-22.36 -9.76,-4.73 -20.59,-0.48 -30.12,2.68 -0.35,-8.48 0.59,-17.7 -3.93,-25.31 -3.78,-4.75 -9.38,-7.52 -14.18,-11.06 -11.36,-7.5 -22.33,-17.21 -36.41,-18.79 -6.74,-1.14 -12.75,2.72 -18.56,5.44 13.76,9.12 22.2,23.55 32.73,35.84 17.33,21.37 34.59,42.77 51.84,64.21 5.49,6.88 12.1,13.6 13.97,22.56 3.89,14.83 -2.13,31.27 -13.87,40.91 -8.55,6.88 -17.22,13.63 -25.95,20.32 -8,6.26 -18.97,7.93 -28.66,5.19 -14.15,-4.02 -25.51,-14.17 -34.38,-25.53 9.9,-7.61 19.82,-15.15 29.85,-22.56 2.54,-2.1 5.51,-3.98 7.04,-6.99 -3.17,-7 -8.36,-12.92 -13.76,-18.29 -6.67,-6.58 -16.68,-4.87 -25.14,-4.59 2.38,-7.87 6.4,-17.08 1.58,-24.83 -5.03,-7.7 -11.43,-14.38 -16.96,-21.69 -7.93,-10.58 -21.46,-18.13 -34.9,-15.54 -10.63,1.92 -21.28,3.91 -32.1,4.2 34.88,-22.49 68.39,-47.77 95.94,-79.04 10.46,-10.58 18.56,-25.85 34.4,-28.91 17.8,-3.09 33.16,8.8 47.15,18.01 22.72,15.57 45.44,31.11 68.05,46.84 2.88,-4.05 5.66,-8.16 8.38,-12.35 -38.42,-26.17 -76.59,-52.71 -114.9,-78.99 17.53,-28.69 32.96,-58.81 43.61,-90.79 3.77,-11.5 8.39,-24.73 20.6,-29.72 16.16,-6.49 33.6,-8.93 50.44,-13.12 -18.47,-4.54 -37.07,-8.47 -55.65,-12.48 7.24,-45.18 10.08,-91.45 3.29,-136.89 -2.93,-15.17 -4.39,-33 7.06,-45.19 12.69,-15.31 34.17,-15.65 52.37,-16.5 2.1,10.54 2.65,21.33 3.72,32 3.84,-14.1 11.91,-27.43 24.8,-34.95zm-17.42 37.4c-1.76,9.87 1.42,19.72 1.28,29.62 -1.21,10.63 -15.93,12.89 -23.84,8.94 -5.07,-6.86 -3.63,-16.37 -5,-24.41 4.98,-0.58 10.01,-1.15 15.02,-1.69 -1.49,-13.19 -3.07,-26.38 -4.37,-39.59 -12.62,1.32 -26.65,1.14 -37.01,9.6 -10.1,7.84 -13.64,21.62 -11.08,33.83 5.05,31.03 5.9,62.58 4.64,93.96 7.31,-10.44 18.6,-17.23 30.79,-20.48 15.84,-5.19 33.87,-2.33 48.39,-11.61 17.16,-10.22 24.36,-32 20.93,-51.06 -0.27,-6.63 -3.49,-16 3.66,-20.05 7.77,-2.47 16.59,-4.09 24.59,-1.94 7.5,5.07 5.15,15.7 6.86,23.4 -5.62,0.67 -11.24,1.33 -16.84,2.08 1.94,14.5 3.47,29.03 5.05,43.57 15.13,-2.74 33.23,-0.21 45.19,-11.84 9.87,-9.92 7.43,-25.03 5.71,-37.53 -2.01,-13.63 -3.27,-27.36 -5.49,-40.96 -3.22,-18.06 -23.01,-27.77 -40,-26.68 -28.66,2.73 -63.5,7.13 -68.48,42.84zm-20.52 20.09c0.71,4.69 1.44,9.37 2.17,14.06 4.21,-1.28 10.63,0.04 13.05,-4.55 0.05,-3.77 -0.48,-7.5 -0.91,-11.23 -4.78,0.58 -9.56,1.15 -14.31,1.72zm-37.28 105c-6.93,9.7 -6.13,22.36 -8.18,33.6 26.01,5.83 52.32,10.7 78.01,17.86 -21.51,5.21 -43.09,10.12 -64.6,15.24 -7.22,1.99 -14.99,3.91 -20.39,9.44 -5.14,5.74 -6.94,13.44 -9.57,20.48 -4.62,13.81 -10.36,27.18 -15.93,40.6 6.42,-6.11 13.91,-11.64 22.9,-13.03 17.87,-3.25 35.4,3.27 52.71,6.74 8.8,1.6 15.17,8.41 19.59,15.75 7.38,-3.82 15.52,-8.27 24.11,-6.01 11.06,2.35 22.19,4.52 33.07,7.68 10.82,3.29 18.91,11.75 25.24,20.75 7.73,-19.13 13.37,-39.01 18.95,-58.85 -28.37,-6.75 -57.03,-12.21 -85.26,-19.43 31.36,-6.61 62.61,-13.72 93.94,-20.44 3.07,-14.95 5.24,-30.08 6.72,-45.26 -47.08,-10.08 -93.99,-20.96 -141,-31.24 -10.13,-1.9 -23.25,-3.06 -30.31,6.12zm-65.65 183.05c29.42,20.25 58.86,40.48 88.25,60.77 8.83,6.2 18.29,11.66 25.86,19.45 -4.25,6.97 -7.84,14.79 -14.24,20.07 -4.03,0.85 -7.46,-1.89 -10.66,-3.82 -23.56,-16.18 -47.04,-32.5 -70.69,-48.52 -9.81,-6.08 -20.28,-13.17 -32.3,-12.75 -8.71,0.34 -15.73,6.44 -20.98,12.84 -7.27,8.85 -15,17.26 -22.93,25.49 6.17,-1.65 12.55,-3.96 19.02,-2.45 18.08,3.15 31.82,16.37 46.81,25.94 9.14,5.21 11.73,16.07 12.32,25.83 8.89,-1.46 18.77,-3.17 27.02,1.63 9.48,5.32 17.89,12.32 27.06,18.17 14.83,10.74 37.12,5.46 48.02,-8.51 6.84,-9.23 12.87,-19.01 19.43,-28.43 6.45,-9.94 15.41,-19.68 15.25,-32.3 0.48,-14.12 -9.01,-26.47 -20.37,-33.87 -26.63,-18.2 -53.19,-36.44 -79.68,-54.81 -9.48,-6.33 -19.95,-12.92 -31.77,-12.74 -14.67,1.24 -18.03,18.02 -25.42,28.01zm-84.5 98.62c-11.02,9.44 -22.45,18.43 -34.45,26.59 7.91,-0.39 16.26,-0.99 23.62,2.6 14.97,6.31 23.06,21.24 33.32,32.92 6.38,6.83 7.98,16.43 6.49,25.41 16.28,0.69 27.34,14.11 34.52,27.32 2.81,4.68 -0.53,9.78 -4.23,12.71 -9.33,7.49 -19.18,14.31 -28.57,21.71 9.16,9.94 21.25,19.34 35.49,18.74 9.22,-0.45 15.91,-7.42 22.86,-12.61 7.45,-6.2 16.02,-11.36 22.01,-19.13 8.14,-10.72 8.94,-26.93 0.39,-37.63 -22.99,-28.73 -46.28,-57.21 -69.26,-85.94 -6.05,-7.34 -11.1,-16.53 -20.29,-20.34 -8.21,-2.84 -15.91,2.72 -21.9,7.65zm-872.02 -460.36c6.17,6.51 10.58,15.52 19.52,18.69 14.53,5.67 30.51,5.49 45.85,6.75 11.86,0.39 19.08,-10.2 26.31,-17.9 5.23,8.16 7.75,20.64 19.29,22.24 18.03,1.81 37.48,6.79 54.67,-1.39 13.12,-5.53 16.71,-23.25 31.52,-26.04 -12.39,38.75 -20.66,78.95 -21.69,119.73 0.3,15.98 -6.65,32.78 -21.1,40.8 -10.99,6.79 -24.32,4.2 -36.43,3.13 -9.58,-1.14 -19.47,-0.85 -28.69,-4 -7.26,-2.45 -12.43,-8.37 -17.25,-13.99 -5.72,5.37 -12.44,10.54 -20.64,10.83 -22.27,1.15 -44.53,2.27 -66.82,3.3 0.19,-12.62 -0.2,-25.22 0.07,-37.81 -0.2,-9.51 7.25,-18.19 16.41,-20.11 14.5,-3.02 29.63,-1.08 44.07,-4.28 5.99,-2.33 4.25,-9.83 5.42,-14.83 -20.98,-2.26 -42.1,-3.41 -62.99,-6.31 1.71,-26.54 6.01,-53.01 12.48,-78.81zm3.29 16.32c-3.91,18.65 -6.29,37.57 -8.53,56.5 21.12,1.9 42.22,3.95 63.34,5.97 -0.78,6.65 -0.64,13.48 -2.47,19.95 -1.76,5.65 -7.84,8.37 -13.26,9.14 -12.25,1.42 -24.61,1.06 -36.84,2.65 -7.06,0.64 -13.92,6.36 -13.97,13.81 -0.48,10.13 0.03,20.3 -0.11,30.45 20.07,-1.17 40.18,-1.72 60.23,-3.14 10.4,-0.7 16.71,-10.12 21.46,-18.28 3.59,9.35 9.14,19.43 19.47,22.38 12.67,2.95 25.81,2.88 38.7,4.41 11.91,1.9 24.48,-3.77 30.79,-14.06 7.18,-10.42 5.9,-23.63 6.95,-35.61 1.67,-29.42 6.85,-58.58 14.58,-86.99 -6.06,5.5 -12.48,11.01 -20.46,13.48 -17.05,5.92 -35.2,1.65 -52.59,-0.07 -9.26,-1.05 -15.96,-8.32 -20.59,-15.81 -7.75,6.21 -16.74,12.75 -27.27,11.4 -20.35,-2.01 -43.52,-1.05 -59.43,-16.18zm94.99 -217.72c3.29,-4.09 9.17,-1.64 11.02,2.52 4.69,8.16 11.06,15.31 19.36,19.93 16.87,9.81 33.87,19.4 50.88,28.96 3.63,2.54 9.44,2.6 10.67,-2.56 2.95,-14.22 -7.38,-26.29 -12.87,-38.49 -1.98,-2.91 0.32,-6.63 2.82,-8.3 4.77,-1.65 8.86,1.71 12.57,4.21 15.27,10.74 30.92,20.91 46.21,31.61 3.41,1.78 5.67,6.69 2.89,9.96 -4.1,3.3 -9.12,5.74 -11.78,10.52 -12.16,19.11 -24.61,38.06 -36.8,57.16 -2.37,3.18 -4.52,8.03 -9.3,7.45 -4.27,-0.91 -5.76,-5.5 -8.11,-8.57 -6.5,-11.06 -18.36,-16.91 -28.74,-23.63 -16.54,-10.04 -32.59,-20.89 -49.34,-30.61 -8.16,-5.05 -18.08,-4.59 -26.97,-7.47 -4.23,-5.76 1.55,-11.38 4.22,-16.34 8.03,-11.94 14.91,-24.67 23.27,-36.35zm4.3 4.28c-8.48,14.67 -18.54,28.39 -26.45,43.4 9.79,1.17 19.64,3.34 28.03,8.78 20.16,12.46 40.2,25.07 60.23,37.78 8.79,5.31 15.38,13.37 20.43,22.2 14.1,-21.14 27.68,-42.63 41.53,-63.93 2.42,-3.89 6.38,-6.36 10.1,-8.8 -17.85,-11.82 -35.31,-24.19 -53.18,-35.91 5.8,11.75 13.92,23.31 13.94,36.91 0.34,6.01 -3.09,12.23 -8.78,14.49 -6.65,1.65 -12.59,-2.6 -18.12,-5.62 -15.78,-9.35 -32.1,-17.78 -47.68,-27.47 -8.62,-5.26 -14.86,-13.35 -20.05,-21.83zm937.01 -75.52c13.66,-7.13 30.72,4.96 30.76,19.75 1.35,13.82 -11.72,24.7 -24.36,26.65 -12.16,2.05 -25.12,-2.68 -33.22,-11.93 -3.33,-3.11 -2.53,-9.97 2.27,-11.04 4.32,-0.71 8.68,0.09 13.05,0.25 0.64,-8.92 2.06,-19.82 11.5,-23.68zm3.29 5.53c-8.62,3.08 -7.09,13.6 -9.19,20.71 -3.93,5.71 -11.73,3.38 -17.53,3.54 6.01,4.53 12.16,9.83 20.02,10.49 11.06,1.72 24.57,-4.04 27.59,-15.56 3.04,-11.52 -9.33,-24.62 -20.89,-19.18zm-106.59 16.69c15.07,-10.91 30.27,-21.63 45.44,-32.37 -9.07,16.14 -19.29,31.61 -28.48,47.68 -5.82,-4.92 -11.47,-10.04 -16.96,-15.31zm9.49 1.43c1.55,0.67 4.66,1.97 6.22,2.61 3.36,-4.04 5.87,-8.69 8.61,-13.14 -5.21,3.13 -10.17,6.63 -14.83,10.53zm-736.39 -35.26c6.17,-1.99 12.32,1.32 17.19,4.84 10.42,7.68 19.15,17.37 27.54,27.18 5.26,6.6 10.97,13.6 12.23,22.22 0.25,7.54 -6.26,14.28 -13.46,15.54 -7.77,0.5 -14.13,-4.89 -19.82,-9.42 -10.54,-9.28 -20.18,-19.66 -28.34,-31.11 -3.87,-5.8 -8.41,-13.28 -4.96,-20.34 2.17,-3.82 5.53,-7.18 9.62,-8.91zm0.41 6.99c-3.7,2.06 -6.03,6.56 -4.16,10.67 4.14,10.02 11.98,17.9 19.16,25.79 7.17,7.15 14.08,15.24 23.56,19.36 5.26,2.58 11.64,-3.09 11.68,-8.39 -1.76,-7.38 -6.74,-13.37 -11.43,-19.11 -8.45,-9.74 -17.09,-19.61 -27.9,-26.77 -3.25,-1.85 -7.46,-4.5 -10.91,-1.55zm-1.96 -42.76c14.21,-4.9 30.28,-2.68 43.2,4.82 15.43,8.96 28.16,21.96 38.81,36.16 9.9,13.41 17.39,30.12 14.47,47.15 -2.11,15.13 -12.09,27.66 -23.11,37.62 -10.36,9.51 -23.38,17.28 -37.81,17.61 -17.23,1.07 -33.19,-7.91 -45.71,-18.95 -14.15,-12.9 -27.48,-27.64 -34.36,-45.76 -5.76,-14.88 -4.09,-32.39 4.83,-45.67 9.53,-14.52 23.27,-26.86 39.68,-32.98zm6.92 4.68c-18.26,4.66 -33.16,18.58 -42.83,34.33 -9.72,16.21 -5.74,36.89 4.59,51.77 11.91,17.42 27.04,33.76 46.54,42.59 15.06,6.9 33.21,3.79 46.22,-6.08 14.9,-10.91 29.3,-26.7 29.12,-46.29 0.09,-21.44 -14.56,-39.09 -28.78,-53.6 -14.13,-14.38 -33.72,-27.57 -54.86,-22.72zm500.39 -49.67c8.53,-16.78 16.69,-33.76 25.6,-50.35 -1.37,18.69 -2.31,37.44 -3.43,56.13 -7.38,-1.96 -14.79,-3.88 -22.17,-5.78zm9.19 -4.39c2.38,0.67 4.73,1.35 7.11,2.04 0.32,-6.11 0.57,-12.21 0.68,-18.29 -2.58,5.42 -5.14,10.86 -7.79,16.25zm-370.2 -46.69c3.02,-1.86 7.16,-1.01 9.28,1.8 0.85,8.05 -0.61,16.71 3.71,24 10.51,19.86 21.8,39.29 32.27,59.18 6.38,11.95 8.6,26.67 3.34,39.45 -6.49,16.71 -22.31,27.45 -38.15,34.33 -12.89,5.69 -28.66,7.7 -41.26,0.16 -14.26,-8.36 -20.82,-24.27 -28.59,-38.03 -7.7,-13.56 -14.58,-27.61 -22.86,-40.87 -4.34,-7.11 -11.66,-11.36 -17.76,-16.73 -3.27,-3.13 -0.93,-8.37 2.77,-9.9 12.61,-7.27 25.6,-13.97 38.24,-21.21 4.18,-2.72 9.3,-2.81 13.87,-4.5 3.82,-3.87 7.68,-7.82 12.71,-10.13 10.95,-5.6 21.4,-12.11 32.43,-17.55zm-36.5 27.38c7.91,3.91 15.43,9.21 19.68,17.19 9.08,16 17.65,32.27 26.7,48.29 2.99,5.72 6.7,11.39 7.45,17.92 -0.2,9.49 -9.74,15.91 -18.42,16.64 -7.89,-1.05 -11.89,-8.73 -15.43,-14.92 -8.96,-16.85 -18.58,-33.35 -27.36,-50.29 -4.55,-8.39 -5.87,-17.92 -6.31,-27.33 -15.15,7.93 -30.03,16.32 -45,24.59 8.09,5.17 15.47,11.68 20.25,20.14 10.56,18.44 20.39,37.32 30.85,55.84 5.1,8.93 12.39,17.46 22.54,20.61 11.29,3.73 23.31,-0.13 33.62,-4.98 12.16,-5.94 23.98,-14.53 29.9,-27.06 5.4,-11.48 3.48,-25.08 -2.31,-36.02 -10.6,-20.26 -22.28,-39.96 -32.75,-60.28 -3.82,-6.86 -4.09,-14.83 -3.57,-22.47 -13.23,7.43 -26.72,14.47 -39.84,22.13zm-1.87 31.56c8.71,16.99 18.35,33.49 27.34,50.34 2.65,4.43 5,9.78 10.1,11.9 4.14,-0.93 8.32,-2.92 10.88,-6.46 2.54,-4.16 -0.57,-8.76 -2.27,-12.6 -9.82,-17.71 -19.47,-35.52 -29.3,-53.21 -3.91,-7.68 -11.45,-12.23 -18.1,-17.19 -7.59,7.29 -2.08,19 1.35,27.22zm117.57 -84.84c3.3,-1.46 6.95,-0.73 9.56,1.74 0.87,10.05 -2.36,20.38 1.14,30.26 6.95,22.74 14.43,45.35 21.72,67.98 2.72,9.14 8.34,16.91 14.92,23.65 3.61,2.77 2.77,9.44 -1.87,10.63 -15.04,5.46 -30.54,9.74 -45.69,14.93 -4.14,1.64 -10.24,1.89 -11.75,-3.36 0.84,-9.6 2.63,-19.43 -0.71,-28.83 -7.43,-23.68 -14.83,-47.38 -22.83,-70.9 -2.84,-9.51 -10.72,-15.91 -16.28,-23.72 -0.3,-7.23 7.54,-8.07 12.66,-9.92 13.12,-3.94 26.06,-8.46 39.13,-12.46zm-44.84 20.84c6.67,7.46 13.07,15.5 16.11,25.19 7.27,21.95 14.13,44 21.28,65.99 3.52,10.36 3.96,21.46 1.92,32.21 16.23,-5.26 32.39,-10.7 48.76,-15.43 -7.2,-7.59 -13.58,-16.18 -16.64,-26.31 -7.29,-22.26 -14.49,-44.57 -21.46,-66.92 -3.32,-9.72 -2.75,-20.1 -1.61,-30.11 -16.09,5.21 -32.13,10.56 -48.36,15.38zm216.46 -41.71c6.69,-1.58 13.64,-0.09 20.43,0.16 12.12,1.17 24.34,1.07 36.39,2.81 4.3,0.76 5.87,6.38 3.38,9.76 -4.23,7.45 -8.11,15.27 -8.61,23.98 -1.9,23.56 -3.18,47.18 -4.83,70.76 -0.68,7.89 1.14,15.68 3.36,23.18 7.7,-7.11 13.97,-15.61 18.7,-24.94 13.1,-25.07 26.47,-49.98 39.45,-75.13 3.91,-5.57 -0.98,-16.71 7.93,-18.15 19.77,4.58 39.48,9.95 58.93,15.8 7.93,4.89 -2.45,12.98 -1.83,19.63 -1.53,27.39 -2.15,54.81 -3.5,82.22 -0.59,8.85 0,17.74 1.56,26.49 12.66,-10.74 18.44,-26.79 26.9,-40.62 7.25,-13.28 15.18,-26.21 21.97,-39.74 4.34,-8.05 3.4,-17.47 5.53,-26.08 3.95,-5.06 10.35,-0.6 14.65,1.62 12.48,7.47 25.64,13.85 37.87,21.71 4.57,3.16 0.48,8.8 -0.13,12.92 -2.52,12.23 -2.98,24.8 -3.64,37.23 4.55,-8.68 10.01,-17.58 10.04,-27.72 0.66,-5.06 -0.96,-12.53 5.43,-14.43 5.58,0.28 10.18,4.03 15,6.47 9.01,5.51 18.63,9.97 27.45,15.7 3.7,1.97 4.48,7.78 0.87,10.18 -6.42,4.09 -13.67,7.74 -17.07,14.99 -15.11,27.38 -31.2,54.24 -45.42,82.08 7.17,-2.83 14.01,-6.49 20.34,-10.95 23.48,-16.18 47.18,-32.04 70.58,-48.34 5.54,-3.18 6.52,-14.97 14.63,-11.73 9.56,7.02 17.44,16.05 26.4,23.8 6.31,6.4 14.06,11.56 19.09,19.08 1.85,7.98 -8.98,8.87 -11.52,15.09 -10.24,17.3 -20.21,34.74 -30.36,52.09 -8.86,15.79 -19.84,30.93 -23.58,49.01 13.16,-8.14 25.66,-17.35 38.99,-25.24 4.43,-3.04 11.66,1.88 9.07,7.22 -3.36,8.99 -8.41,17.65 -8.16,27.57 0.12,7.79 1.72,18.13 9.99,21.39 4.62,1.17 7.66,-3.72 6.84,-7.84 -1.1,-16.57 -5.9,-33.37 -1.67,-49.89 4.48,-17.83 22.92,-29.63 40.78,-29.58 14.69,-0.43 28.25,8.14 37.23,19.29 7.98,9.49 12.85,20.98 18.56,31.87 1.97,4.11 6.97,5.78 8.75,9.94 1.4,5.73 -4.61,8.07 -8.22,10.9 -12.07,7.7 -23.89,15.82 -35.98,23.47 -3.25,2.61 -7.32,1.29 -10.93,0.53 -4.87,29.71 -43.2,46.49 -68.77,31.34 -17.63,-9.28 -27.36,-27.68 -34.61,-45.4 -2.26,-7.33 -11,-10.6 -11.31,-18.72 -10.93,-10.31 -21.95,-20.5 -32.99,-30.65 -2.81,-2.83 -6.65,-5.55 -6.4,-10.03 1.1,-4.71 6.47,-4.99 10.11,-6.86 4.25,-1.19 6.88,-4.8 9.57,-8.02 -5.73,-4.76 -10.49,-10.77 -16.8,-14.77 -5.89,2.95 -7.04,9.92 -9.12,15.5 -0.5,4.46 -6.47,5.62 -9.48,3.06 -11.13,-8.68 -20.23,-19.7 -31.5,-28.23 -12.82,-7.79 -26.58,-14.08 -39.13,-22.31 -4.92,-3.74 0.46,-9.32 1.3,-13.8 2.17,-14.56 2.81,-29.33 4.48,-43.98 -6.83,11.34 -16.2,22.93 -14.28,37.05 0.77,5.08 -0.19,12.87 -7.16,11.71 -10.54,-4.32 -19.98,-10.93 -30.01,-16.26 -17.67,-11.31 -39.45,-12 -58.63,-19.56 -3.27,-1.6 -4.3,-6.65 -1.44,-9.17 4.43,-4.64 8.44,-9.8 9.05,-16.45 -7.4,-1.76 -14.63,-4.51 -22.26,-5.22 -4.11,6.29 -0.53,13.79 -0.14,20.58 -0.87,2.56 -3.36,5.55 -6.44,4.54 -14.59,-2.37 -28.48,-7.84 -42.97,-10.74 -9.12,2.88 -18.7,0.89 -28,0.46 -10.31,-0.94 -20.76,-0.76 -31,-2.36 -3.98,-0.61 -6.38,-5.5 -4,-8.93 4.16,-7.55 8.39,-15.34 8.92,-24.16 1.96,-24.34 3.42,-48.76 4.96,-73.15 0.82,-8.91 -2.2,-17.37 -5.38,-25.53 -1.73,-3.04 -0.48,-6.19 1.79,-8.5zm3.68 5.46c4.5,9.65 7.11,20.25 6.17,30.97 -1.49,22.91 -2.97,45.81 -4.62,68.71 -0.64,10.52 -4.46,20.48 -10.06,29.33 17.1,0.8 34.15,2.26 51.23,3.2 -4.12,-9.53 -6.91,-19.82 -6.01,-30.29 1.53,-22.92 2.97,-45.85 4.61,-68.77 0.5,-10.66 4.37,-20.71 9.99,-29.67 -17.1,-1.33 -34.22,-2.24 -51.31,-3.48zm113.76 13.33c0.11,9.96 -5.33,18.42 -9.83,26.88 -11.34,21.51 -22.7,43.04 -34.04,64.57 -4.91,9.51 -11.65,17.94 -19.13,25.58 13.65,3.68 27.32,7.27 40.94,11.04 -2.67,-9.31 -1.37,-19 3.54,-27.32 10.72,3.09 21.49,6.04 32.32,8.67 0.3,9.76 -4,18.53 -10.56,25.5 15.5,3.98 30.97,8.12 46.38,12.44 -2.35,-10.24 -4.37,-20.71 -3.82,-31.29 1.21,-28.25 2.33,-56.53 3.41,-84.8 -0.07,-5.88 2.08,-11.36 4.46,-16.6 -17.83,-5.14 -35.87,-9.51 -53.67,-14.67zm113.89 35.43c0.19,22.4 -14.62,40.2 -24.32,59.15 -11.4,18.7 -19.13,41.12 -38.53,53.33 12.27,7.77 25.3,14.24 37.87,21.53 -0.66,-9.4 -0.62,-19.31 4.48,-27.61 8.44,-14.93 16.46,-30.08 25.37,-44.73 -2.33,23.84 -4.57,47.68 -6.72,71.52 -0.41,4.25 -1.69,8.32 -2.9,12.38 11.15,5.92 22.1,12.23 33.14,18.38 4.76,-11.29 11.45,-21.6 17.24,-32.36 11.56,-20.51 22.88,-41.17 34.6,-61.58 3.8,-7.11 10.65,-11.57 17.58,-15.25 -12.37,-7.27 -25.01,-14.01 -37.42,-21.16 1.19,24.87 -16.64,44.02 -26.4,65.32 0.44,-14.6 2.43,-29.07 3.61,-43.63 1.15,-10.65 1.26,-21.53 4.67,-31.8 -14.13,-7.79 -28.07,-15.86 -42.27,-23.49zm132.37 103.91c-24.57,16.59 -48.91,33.5 -73.51,50.05 -7.95,5.35 -16.94,8.78 -25.96,11.8 10.33,9.78 20.66,19.54 31.29,29 1.09,-9.71 7.72,-17.05 15.22,-22.69 7.95,7.93 16.96,14.78 24.25,23.33 -3.7,8.57 -11.68,14.22 -20.41,16.94 11.36,11.25 23.25,21.97 34.99,32.82 2.61,-10.4 6.13,-20.61 11.66,-29.83 14.45,-24.96 28.98,-49.87 43.5,-74.78 2.4,-4.62 6.6,-7.73 10.83,-10.56 -13.85,-12.46 -27.06,-25.65 -41.09,-37.88 -3.25,4.23 -6.08,8.96 -10.77,11.8zm53.87 115.56c-4.36,16.87 1.86,33.94 1.83,50.88 0.32,8.41 -9.76,14.33 -17.07,10.63 -7.5,-3.57 -10.68,-12.18 -11.91,-19.88 -2.06,-12.76 2.74,-25.26 8.25,-36.51 -14.81,9.83 -29.71,19.57 -44.57,29.33 4.18,3.75 7.91,8.11 9.85,13.48 6.47,15.57 14.36,31.91 29.19,41.15 19.63,13.5 49.9,4.34 59.77,-17.01 6.86,-16.71 -1.12,-34.13 -2.42,-51.02 -0.89,-6.35 3.7,-13.69 10.63,-13.25 7.17,1.28 11.79,8.36 13.28,15.06 2.56,12.82 -2.84,25.3 -6.93,37.16 14.2,-8.98 28.14,-18.39 42.24,-27.58 -5.39,-5.1 -8.82,-11.68 -11.86,-18.36 -6.52,-13.71 -15.11,-27.59 -28.92,-34.97 -18.58,-10.22 -45.69,0.07 -51.36,20.89zm41.38 12.83c-5.03,13.94 3.04,28.36 3.63,42.53 3.29,-10.67 8.59,-22.12 4.96,-33.42 -1.23,-4.29 -5.26,-6.62 -8.59,-9.11zm-537.24 -285.97c11.57,-1.49 23.75,1.37 34.79,-3.36 3.52,-2.11 8.09,0.87 8.11,4.8 2.2,16.8 4.28,33.62 5.81,50.49 1.12,3.93 -2.03,6.19 -4.59,8.46 23.26,17.39 23.01,56.87 -0.03,74.26 -16.11,12.98 -37.99,13.9 -57.73,12.37 -6.29,-0.92 -12.07,1.89 -18.11,3.01 -5.69,-0.16 -5.64,-6.99 -6.28,-11.08 -1.31,-16.21 -4.46,-32.25 -5.1,-48.51 -0.57,-6.4 9.23,-8.41 11.91,-2.83 8.57,12.21 22.19,24 38.17,21.69 5.67,-0.36 8.69,-9.32 2.47,-11.36 -15.91,-7.98 -35.13,-10.06 -48.25,-23.08 -13.85,-13.56 -14.72,-36.99 -4.69,-52.94 9.55,-14.24 27.02,-20.73 43.52,-21.92zm4.82 6.15c-15.33,0.29 -32.13,4.82 -41.82,17.55 -10.43,14.36 -9.4,37.42 5.09,48.76 11.84,9.8 27.45,12.23 41.21,18.21 4.55,2.08 10.29,5.35 9.86,11.2 1,9.03 -8.49,15.07 -16.62,14.22 -16.64,-0.39 -29.76,-12.37 -39.5,-24.75 1.71,17.32 4.07,34.58 5.83,51.9 6.31,-2.24 12.96,-3.38 19.66,-2.58 17.46,1.24 36.73,0.66 51.13,-10.6 17.8,-13.1 20.5,-41.42 6.9,-58.38 -11.22,-12.92 -29.39,-13.99 -44.43,-19.7 -5.74,-1.86 -11.71,-7.07 -9.99,-13.72 2.58,-7.79 12.23,-9.26 19.24,-7.77 13.15,2.86 21.92,13.85 31.07,22.79 -1.44,-16.82 -3.82,-33.56 -5.6,-50.36 -9.97,5.03 -21.33,2.66 -32.03,3.23zm-4 38.17c11.32,5.39 24.05,7.02 35.62,11.91 -9.19,-9.01 -19.57,-22.22 -34.04,-19.41 -4.02,0.25 -5.64,5.85 -1.58,7.5zm15.32 -61.03c-19.18,-0.43 -39.32,2.06 -55.68,12.8 -12.78,7.73 -21.15,20.89 -25.33,34.97 -1.37,-9.78 -4.39,-21.16 -14.35,-25.48 -13.14,-6.31 -26.61,2.85 -39.39,5.87 -13.64,5.51 -31.08,5.92 -39.84,19.43 -6.4,-1.33 -13.39,-3.2 -19.54,0.02 -10.74,5.17 -20.84,11.52 -31.43,16.96 -22.97,13.99 -47.54,25.14 -70.6,39.04 -10.77,6.72 -12.85,23.11 -5.05,32.82 4.09,4.51 9.34,7.66 14.05,11.41 -10.51,-3.86 -21.37,-7.72 -32.77,-7.36 -18.91,0 -36.53,9.26 -50.29,21.71 -16.34,14.38 -28.94,34.82 -28.64,57.17 -0.04,19.57 9.83,37.28 21.17,52.59 -1.95,4.39 -4.37,8.78 -4.44,13.72 0.8,5.74 2.65,11.27 3.61,16.98 -14.85,-9.67 -33.48,-16.39 -42.14,-32.93 -6.59,-11.8 -24.49,-13.83 -34.15,-4.83 -5.19,5.01 -8.35,11.64 -12.23,17.6 -6.54,11 -14.01,21.42 -20.18,32.62 -6.27,11.22 -0.23,26.86 11.74,31.24 8.14,2.2 17.19,1.47 24.51,6.27 20.18,12.48 40.22,25.16 60.25,37.85 6.99,3.91 10.72,11.13 15.2,17.39 7.33,10.13 23.2,11.13 32.89,3.93 5.8,-5.96 8.89,-13.96 12.98,-21.09 9.42,-18.74 21.65,-35.89 34.56,-52.34 34.81,-43.91 77.69,-81.51 126.24,-109.56 75.32,-43.93 164.07,-64.32 251,-57.78 74.05,5.25 146.56,29.96 208.5,70.88 50.35,33.07 93.74,76.64 127.04,126.81 6.12,8.98 10.74,19.38 19.57,26.17 12.06,9.49 27.72,14.08 43.01,13.58 22.86,-1.33 44.94,-14.97 55.25,-35.61 15.66,-8.09 29.64,-18.93 44.64,-28.1 8.91,-4.89 17.05,-13.69 15.38,-24.68 0.39,-11.13 -11.36,-15.82 -14.97,-25.19 -8.55,-19.31 -22.06,-37.39 -41.62,-46.49 8.25,-14.63 6.92,-34.04 -4.62,-46.56 -8.64,-10.65 -22.99,-14.54 -36.23,-12.48 -14.17,-14.56 -29.53,-27.89 -44.18,-41.94 -7.04,-7.41 -18.81,-10.04 -27.91,-5.01 -7.18,3.45 -9.28,12.18 -15.93,16.27 -10.45,6.86 -20.48,14.36 -31.27,20.69 4.18,-8.46 8.73,-16.73 13.49,-24.87 3.81,-7.75 13.89,-8.8 18.35,-16.04 7.52,-10.75 3.43,-27.13 -8.37,-32.99 -15.58,-8.09 -30.03,-18.83 -46.88,-24.18 -4.68,-4.71 -10.26,-8.32 -16.13,-11.31 -11.93,-6.34 -23.41,-13.53 -35.45,-19.64 -9.76,-5.12 -22.91,-1.55 -28.87,7.66 -5.69,8.11 -2.15,18.88 -6.52,27.52 -5.55,11.54 -12.36,22.42 -18.53,33.62 0.7,-16.16 1.3,-32.32 1.98,-48.48 -0.23,-8 6.56,-14.47 5.38,-22.58 -0.67,-8.94 -7.04,-17.1 -15.75,-19.5 -17.99,-5.16 -36.12,-9.8 -54.15,-14.74 -9.24,-3.16 -20.3,-0.14 -26.08,7.84 -5.4,6.4 -2.68,15.68 -6.84,22.65 -8.75,16.43 -17.78,32.73 -25.89,49.51 -0.48,-13.88 0.98,-27.75 2.31,-41.56 0.93,-9.89 10.19,-17 9.78,-27.24 0.02,-11.64 -9.85,-22.06 -21.53,-22.36 -17.6,-1.18 -35.18,-2.78 -52.8,-3.31 -10.95,-0.52 -19.64,8.32 -22.27,18.38 -2.05,-8.07 -5.99,-16.57 -14.35,-19.66 -9.85,-4.85 -19.61,2.88 -29.69,1.92zm17.39 222.88c-24.64,16.18 -42.81,41.58 -52.32,69.3 -9.37,33.47 -20.87,67.09 -41,95.77 -7.59,10.13 -16.37,21.15 -29.24,24.32 -9.03,-2.81 -16.36,-13.25 -12.29,-22.69 5.89,-13.74 19.47,-21.47 30.94,-30.01 -10.3,-1.86 -20.91,-3.59 -31.36,-1.83 -9.44,2.08 -17.44,7.93 -24.89,13.8 -14.56,11.91 -20.36,30.97 -33.76,43.91 -4,3.98 -9.87,6.42 -15.45,4.64 -11.11,-3.65 -19.93,-14.97 -18.83,-26.95 1.48,-13.53 9.12,-25.39 17.25,-35.95 17.86,-22.24 40.1,-40.41 63.02,-57.19 -29.76,7.27 -58.86,18.58 -84.21,35.96 -18.28,12.57 -34.85,29.3 -42.51,50.53 -4.62,12.25 -5.05,25.56 -3.82,38.47 1.79,16.98 -5.85,33.05 -14.1,47.38 -12.8,22.04 -27.02,43.94 -32.85,69.08 -7.29,28.91 -3.45,59.47 5.95,87.45 6.56,19.27 13.9,39.13 28.18,54.15 22.45,23.27 51.2,40.87 68.37,68.91 6.74,10.88 10.92,25.92 2.69,37.17 -2.88,5.19 -9.6,3.93 -14.31,2.56 -20.43,-6.54 -37.18,-20.41 -55.35,-31.27 14.65,37.62 43.29,72.41 82.94,84.66 31.27,11.16 66.02,4.57 96.74,17.69 16.2,6.63 34.17,14.31 43.24,30.22 7.16,11.13 -5.28,29.6 -18.42,22.88 -25.67,-11.59 -47.8,-33.87 -77.56,-34.28 4.8,3.68 9.95,6.94 15.09,10.14 13.71,8.67 25.44,20.23 35.13,33.21 11.57,14.98 21.44,32.19 38.01,42.29 22.45,13.99 49.76,16.64 75.61,17.39 32.51,0.83 64.14,-13.3 87.11,-35.95 17.51,-16.09 30.74,-36.05 46.93,-53.33 7.36,-7.56 17.03,-15.65 28.39,-13.37 7.27,0.64 11.13,7.78 12.55,14.15 3.38,16.05 1.78,34.22 -8.49,47.59 -11.74,16.55 -30.99,24.64 -48,34.47 16.23,-0.94 31.78,-6.63 46.18,-13.85 19.79,-10.22 37.6,-25.56 47.93,-45.56 5.8,-10.94 4.62,-24.09 10.4,-35.08 8.23,-16.89 24.59,-27.29 37.07,-40.71 10.77,-11.29 18.27,-25.51 21.83,-40.66 5.76,-21.06 1.46,-43.87 10.13,-64.3 3.27,-7.91 9.35,-16.55 18.74,-16.94 9.35,-0.32 16.69,7.41 20.09,15.43 4.05,8.57 2.01,18.2 0.8,27.15 31.84,-22.62 49.94,-59.79 57.88,-97.21 11.4,-55.52 4.06,-115.1 -21.7,-165.71 -14.46,-28.8 -38.05,-54.38 -68.84,-65.67 -22.4,-8.69 -46.77,-9.99 -70.56,-9.3 -10.54,-0.25 -21.6,1 -31.66,-2.77 -6.99,-2.54 -6.19,-11.61 -3.45,-17.05 6.03,-10.95 19.25,-14.7 30.81,-16.27 27.41,-2.91 55.7,2.28 80.3,14.74 -13.49,-29.58 -40.57,-53.78 -72.69,-60.78 -19.31,-4.09 -38.56,2.45 -57.8,3.41 -14.27,1 -30.4,-0.62 -41.08,-11.16 -6.74,-6.76 -12.87,-17.09 -8.55,-26.74 4.96,-10.86 16.67,-16.66 27.66,-19.63 21.94,-6.11 45.44,-1.65 65.05,9.37 -8.29,-16.41 -20.5,-30.72 -33.92,-43.18 -20.43,-11.91 -45.3,-16.18 -68.55,-11.41 -22.6,4.44 -42.65,-9.69 -59.93,-22.24 -16.07,-12.45 -39.34,-10.23 -55.52,0.85zm-565.55 221.94c-12.14,40.99 -19.07,83.23 -22.81,125.74 6.12,0.53 12.23,1.07 18.35,1.53 -9.96,6.54 -19.04,16.44 -19.22,29.03 -0.3,18.15 -0.21,36.34 0.07,54.51 29.73,-1.87 59.63,-2.05 89.25,-5.12 -2.28,6.15 -3.9,12.62 -7.01,18.45 -2.61,1.42 -5.7,1.28 -8.55,1.65 -24.3,1.48 -48.57,3.22 -72.87,4.87 4.98,29.32 9.94,58.67 15.2,87.95 8.69,-0.85 17.37,-1.69 26.1,-1.9 -4.34,8.41 -15.79,8.83 -23.33,13.46 9.41,28.35 19.06,56.62 28.25,85.06 27.22,-12.14 53.82,-25.63 80.68,-38.59 0.23,4.57 0.3,9.15 0.14,13.74 -11.73,7.5 -23.86,14.42 -35.02,22.81 -17.35,13.65 -25.53,39.04 -15.82,59.55 6.5,12.84 15.18,24.45 22.61,36.77 9.19,13.42 15.93,29.69 30.47,38.36 15.86,9.98 36.48,9.14 53.14,1.53 17.31,-8.39 32.48,-20.46 49.17,-29.95 1.21,6.11 3.01,12.19 3.11,18.47 -3.57,6.7 -9.67,11.55 -14.47,17.31 -6.17,6.58 -12.07,15.11 -21.76,16.29 -17.65,1.81 -35.45,0.19 -53.17,0.9 27.61,33.43 59.5,62.94 92.83,90.56 22.21,-22.5 42.58,-46.68 64.5,-69.4 3.04,7.98 11.86,16.37 6.03,25.1 -6.81,11.63 -9.55,27.93 -23.52,33.37 -13.44,5.53 -27.45,9.53 -41.03,14.72 33.88,25.07 68.85,49.01 107.2,66.74 2.13,-4.41 4.25,-8.8 6.4,-13.16 0.12,5.53 0.16,11.08 0.19,16.64 24.16,10.65 48.68,20.43 73.67,28.98 15.4,-33.94 32.29,-67.2 48.22,-100.91 18.34,8.13 38.84,2.23 56.74,-4.21 16.59,-6.01 29.48,-18.49 39.95,-32.3 3.11,13.21 3.7,26.79 4.69,40.25 -14.04,6.68 -28.67,12 -42.61,18.88 14.9,7.71 30.9,13.6 44.87,22.93 2.76,13.99 0.82,28.62 4.89,42.42 5.17,18.1 18.95,34.33 37.35,39.75 12.07,3.84 24.8,1.56 37.12,0.71 12.73,-1.17 25.55,-1.6 38.24,-3.18 19.54,-2.58 36.02,-17.71 42.22,-36.13 7.26,-19.66 1.55,-40.76 1.34,-61.01 6.06,1.03 12.16,1.83 18.04,3.7 7.63,25.81 12.46,52.46 19.27,78.52 28.41,-8.85 56.8,-17.85 84.29,-29.31 -2.14,-8.52 -5.07,-16.96 -5.02,-25.85 6.92,5.69 10.33,14.2 15.95,20.96 27.18,-12.57 53.78,-26.58 79.18,-42.51 -4.96,-6.47 -9.65,-13.1 -14.17,-19.84 16.38,6.38 36.38,6.56 50.46,-5.21 11.87,-9.99 25.88,-17.92 35.32,-30.47 12.87,-17.33 14.38,-42.93 1.62,-60.71 -10.01,-13.3 -21.14,-25.71 -31.02,-39.11 7.41,-2.06 14.88,-6.33 22.77,-4.96 13.35,6.77 23.95,18.22 38.03,23.68 23.87,8.32 52.51,-1.3 66.61,-22.26 9.49,-14.08 19.2,-28 28.46,-42.2 12.82,-19.74 10.12,-47.13 -4.96,-64.89 -14.01,-16.27 -34.43,-25 -50.77,-38.58 5.9,-6.54 12.92,-11.95 19.66,-17.58 4.78,-4.73 11.72,-1.16 17.35,-0.36 9.99,2.76 21.94,2.9 29.39,11.13 10.56,12.62 15.89,28.52 24.37,42.42 0.45,0.14 1.39,0.41 1.85,0.53 16.14,-40.19 31.24,-81.01 40.16,-123.52 -4.37,-0.85 -8.71,-1.72 -13.03,-2.59 4.85,-1.5 9.74,-2.9 14.63,-4.27 5.1,-25.56 9.21,-51.38 10.97,-77.37l-0.85 -1.1c-42.74,-9.35 -85.53,-18.56 -128.13,-28.52 14.03,-3.02 26.81,-10.13 37.07,-20.12 0.44,4.05 0.92,8.12 1.37,12.18 16.16,-1.96 32.37,-3.54 48.51,-5.64 16.38,-2.17 31.84,-12.44 38.67,-27.71 8.48,-18.05 2.49,-38.1 0.57,-56.86 -2.06,-12.48 -1.87,-25.56 -6.72,-37.42 -8.91,-20.53 -31.34,-33.03 -53.28,-33.1 -24.68,0.37 -51.02,3.86 -70.6,20.28 -0.16,-1.76 -0.51,-5.31 -0.67,-7.09 -22.28,3.77 -47.52,0.96 -66.49,15.38 -15.95,11.36 -23.98,32.03 -20.68,51.23 6.97,42.08 7.38,85.28 1.14,127.47 -1.49,10.42 -3.96,20.69 -4.98,31.18 4.09,0.8 8.2,1.6 12.34,2.42 -8.69,7.15 -17.78,14.93 -20.94,26.22 -11.95,39.43 -30.76,76.43 -53.44,110.72 3.64,2.56 7.29,5.12 10.97,7.63 -6.72,1.9 -13.64,3.71 -19.54,7.61 -7.82,4.92 -12.89,12.83 -18.88,19.61 -28.94,33.22 -62.95,62.08 -101.03,84.32 -74.22,44.19 -162.86,63.27 -248.71,54.06 -10.83,-9.74 -11.65,-27.68 -25.89,-33.78 -12.39,-5.58 -27.94,2.95 -29.76,16.46 -7.62,4.73 -13.6,11.65 -16.07,20.41 -4.46,-10.04 -11.04,-20 -21.63,-24.23 -14.28,-5.53 -28.66,-10.97 -42.3,-17.99 -2.2,4.3 -4.37,8.62 -6.5,12.96 -3.75,-11.34 -10.81,-21.67 -21.21,-27.82 -27.97,-16.77 -54.4,-36.45 -77.44,-59.63 -18.4,-19.86 -37.51,-39.36 -52.3,-62.2 -37.25,-54.53 -60.75,-118.35 -67.79,-184.04 -7.86,-71.41 3.91,-144.57 32.96,-210.24 -16.3,7.66 -31.79,17.12 -45.76,28.48 -8.36,6.58 -14.47,17.12 -25.83,18.76 -13.19,1.97 -26.95,-0.11 -39.88,-2.65 -7.64,-10.42 -9.7,-24.07 -15.77,-35.49 -7.85,9.5 -15.43,19.29 -24.03,28.13 -5.39,5.92 -13.89,2.59 -20.8,2.54 -10.58,-1.49 -22.95,-0.64 -31.54,-8.02 -9.72,-11.38 -16.66,-24.78 -25.37,-36.92z"/>
   <path class="fil4" d="M967.06 405.76c16.18,-11.08 39.45,-13.3 55.52,-0.85 17.28,12.55 37.33,26.68 59.93,22.24 23.25,-4.77 48.12,-0.5 68.55,11.41 13.42,12.46 25.63,26.77 33.92,43.18 -19.61,-11.02 -43.11,-15.48 -65.05,-9.37 -10.99,2.97 -22.7,8.77 -27.66,19.63 -4.32,9.65 1.81,19.98 8.55,26.74 10.68,10.54 26.81,12.16 41.08,11.16 19.24,-0.96 38.49,-7.5 57.8,-3.41 32.12,7 59.2,31.2 72.69,60.78 -24.6,-12.46 -52.89,-17.65 -80.3,-14.74 -11.56,1.57 -24.78,5.32 -30.81,16.27 -2.74,5.44 -3.54,14.51 3.45,17.05 10.06,3.77 21.12,2.52 31.66,2.77 23.79,-0.69 48.16,0.61 70.56,9.3 30.79,11.29 54.38,36.87 68.84,65.67 25.76,50.61 33.1,110.19 21.7,165.71 -7.94,37.42 -26.04,74.59 -57.88,97.21 1.21,-8.95 3.25,-18.58 -0.8,-27.15 -3.4,-8.02 -10.74,-15.75 -20.09,-15.43 -9.39,0.39 -15.47,9.03 -18.74,16.94 -8.67,20.43 -4.37,43.24 -10.13,64.3 -3.56,15.15 -11.06,29.37 -21.83,40.66 -12.48,13.42 -28.84,23.82 -37.07,40.71 -5.78,10.99 -4.6,24.14 -10.4,35.08 -10.33,20 -28.14,35.34 -47.93,45.56 -14.4,7.22 -29.95,12.91 -46.18,13.85 17.01,-9.83 36.26,-17.92 48,-34.47 10.27,-13.37 11.87,-31.54 8.49,-47.59 -1.42,-6.37 -5.28,-13.51 -12.55,-14.15 -11.36,-2.28 -21.03,5.81 -28.39,13.37 -16.19,17.28 -29.42,37.24 -46.93,53.33 -22.97,22.65 -54.6,36.78 -87.11,35.95 -25.85,-0.75 -53.16,-3.4 -75.61,-17.39 -16.57,-10.1 -26.44,-27.31 -38.01,-42.29 -9.69,-12.98 -21.42,-24.54 -35.13,-33.21 -5.14,-3.2 -10.29,-6.46 -15.09,-10.14 29.76,0.41 51.89,22.69 77.56,34.28 13.14,6.72 25.58,-11.75 18.42,-22.88 -9.07,-15.91 -27.04,-23.59 -43.24,-30.22 -30.72,-13.12 -65.47,-6.53 -96.74,-17.69 -39.65,-12.25 -68.29,-47.04 -82.94,-84.66 18.17,10.86 34.92,24.73 55.35,31.27 4.71,1.37 11.43,2.63 14.31,-2.56 8.23,-11.25 4.05,-26.29 -2.69,-37.17 -17.17,-28.04 -45.92,-45.64 -68.37,-68.91 -14.28,-15.02 -21.62,-34.88 -28.18,-54.15 -9.4,-27.98 -13.24,-58.54 -5.95,-87.45 5.83,-25.14 20.05,-47.04 32.85,-69.08 8.25,-14.33 15.89,-30.4 14.1,-47.38 -1.23,-12.91 -0.8,-26.22 3.82,-38.47 7.66,-21.23 24.23,-37.96 42.51,-50.53 25.35,-17.38 54.45,-28.69 84.21,-35.96 -22.92,16.78 -45.16,34.95 -63.02,57.19 -8.13,10.56 -15.77,22.42 -17.25,35.95 -1.1,11.98 7.72,23.3 18.83,26.95 5.58,1.78 11.45,-0.66 15.45,-4.64 13.4,-12.94 19.2,-32 33.76,-43.91 7.45,-5.87 15.45,-11.72 24.89,-13.8 10.45,-1.76 21.06,-0.03 31.36,1.83 -11.47,8.54 -25.05,16.27 -30.94,30.01 -4.07,9.44 3.26,19.88 12.29,22.69 12.87,-3.17 21.65,-14.19 29.24,-24.32 20.13,-28.68 31.63,-62.3 41,-95.77 9.51,-27.72 27.68,-53.12 52.32,-69.3zm-43.52 782.24c6.93,3.52 6.75,11.91 8.6,18.4 4.41,3.36 8.89,7.52 8.77,13.6 -0.16,3.25 -0.32,6.49 -0.55,9.76 -2.85,-4.69 -5.69,-9.39 -8.5,-14.1 -3.29,5.19 -6.69,10.31 -10.33,15.24 -0.78,-6.05 -1.46,-12.13 -2.22,-18.19 -5.85,2.31 -10.08,6.88 -12.77,12.48 -0.41,-3.34 -0.87,-6.7 -1.21,-10.01 0.34,-9.3 9.85,-12 17.57,-11 0.92,-5.34 0.78,-10.81 0.64,-16.18zm47.87 -734.06l0 0c-45.51,65.95 -68.87,144.74 -79.78,223.45 -35.17,-29.6 -84,-44.73 -129.34,-33.71 -29.22,6.74 -54.56,26.68 -69.08,52.78 -18.01,32.2 -26.38,72.84 -11.2,107.77 14.54,33.35 45.01,56.3 76.21,73.05 -3.94,-18.24 -6.08,-37.44 -1.22,-55.73 5.15,-19.63 22.04,-35.24 41.7,-39.72 19.36,-4.82 39.4,-0.37 57.8,6.13 19.68,5.71 32.89,24.09 38.04,43.17 -6.54,4.82 -14.81,10.15 -15.2,19.16 -0.53,8.36 6.83,13.8 12.36,18.81 -9,13.03 -24.13,22.79 -40.36,21.85 -22.06,0.84 -36.3,-27.09 -27.34,-45.83 -23.7,10.26 -43.31,30.95 -48.73,56.62 -4.69,23.79 -2.38,50.19 10.95,70.97 12.16,18.81 34.05,29.17 55.77,31.98 23.08,3.49 47.08,-2.2 66.72,-14.65 10.44,34.37 25.05,67.97 47.2,96.5 12.87,16.91 28.43,31.45 44.45,45.3 49.56,-31.5 76.78,-87.29 91.91,-142.24 27.84,16.39 63.94,22.15 93.86,7.96 19.01,-8.55 33.37,-26.11 38.44,-46.29 5.67,-22.49 5.3,-47.57 -5.64,-68.46 -8.85,-17.14 -24.46,-30.12 -42.08,-37.6 6.65,14.88 -0.28,33.81 -13.74,42.4 -8.94,5.72 -18.93,-0.25 -28.14,-1.71 -10.22,-1.94 -19.22,-8.62 -23.45,-18.2 5.07,-4.54 11.13,-9.94 10.31,-17.51 0.18,-7.15 -6.06,-11.7 -10.58,-16.25 2.1,-13.14 7.81,-26.15 18.28,-34.74 10.77,-9.3 25.24,-11.56 38.24,-16.23 28.09,-8.73 60.48,5.37 74.58,30.79 10.04,19.89 6.18,43.18 0.58,63.77 20.73,-8.48 40.06,-21.07 54.53,-38.35 19.55,-22.65 30.86,-52.5 30.06,-82.52 -0.27,-35.81 -17.99,-69.89 -43.84,-94.05 -19.06,-17.44 -45.49,-24.76 -70.9,-24.14 -38.63,1.16 -76.21,16.98 -105.31,42.19 -11.49,-79.95 -35.88,-159.4 -80.75,-227.17 -8.23,-11.62 -16.21,-23.68 -26.7,-33.4 -11.15,9.78 -19.91,21.94 -28.61,33.85z"/>
  </g>
 </g>
</svg>
