<?xml version="1.0" encoding="UTF-8"?>
<!DOCTYPE svg PUBLIC "-//W3C//DTD SVG 1.1//EN" "http://www.w3.org/Graphics/SVG/1.1/DTD/svg11.dtd">
<!-- Creator: CorelDRAW -->
<svg xmlns="http://www.w3.org/2000/svg" xml:space="preserve" width="2000px" height="1600px" version="1.1" style="shape-rendering:geometricPrecision; text-rendering:geometricPrecision; image-rendering:optimizeQuality; fill-rule:evenodd; clip-rule:evenodd"
viewBox="0 0 2000 1600"
 xmlns:xlink="http://www.w3.org/1999/xlink">
 <defs>
  <style type="text/css">
   <![CDATA[
    .fil2 {fill:black;fill-rule:nonzero}
    .fil3 {fill:#6E002A;fill-rule:nonzero}
    .fil1 {fill:#B08445;fill-rule:nonzero}
    .fil0 {fill:#FEFEFE;fill-rule:nonzero}
   ]]>
  </style>
 </defs>
 <g id="Capa_x0020_1">
  <metadata id="CorelCorpID_0Corel-Layer"/>
  <g id="Louisville_x0020_Cardinals.cdr">
   <path class="fil0" d="M1008.03 256.65c78.41,-7.48 157.77,-8.46 236.01,1.62 31.25,4.57 63.15,9.97 91.55,24.48 -33.65,13.11 -70.61,11.68 -106.08,10.94 -78.02,-4.66 -156.45,-4.67 -234.25,3.33 -75.22,7.66 -149.86,22.61 -221.48,47.03 -52.02,17.53 -102.34,40.06 -150.3,66.77 -51.72,28.58 -100.46,62.17 -148.25,96.82 -40.48,28.63 -74.15,65.73 -103.83,105.18 -44.42,59.49 -80.13,124.98 -111.39,192.19 3.03,-28.83 8.5,-57.43 17.13,-85.13 14.61,-47.6 37.84,-92.37 67.1,-132.6 36.97,-50.9 83.13,-94.61 133.52,-132.02 90.9,-67.06 194.73,-114.92 301.9,-149.56 74.31,-23.58 150.63,-41.77 228.37,-49.05zm280.37 688.28c50.65,0.02 101.3,-0.01 151.95,0.02 7.14,0.28 14.59,0.49 21.23,3.41 5.8,2.58 8.06,9.13 8.59,15.03 4.11,41.01 8.24,82.03 12.3,123.04 25.59,-34.61 51.22,-69.21 76.84,-103.81 -2.69,-12.57 -5.33,-25.13 -7.91,-37.7 51.53,0.03 103.06,0.03 154.6,0 8.12,0.14 16.56,0.33 24.16,3.58 5.15,2.2 8,7.77 8.3,13.18 0.34,7.57 -0.58,15.13 -0.85,22.71 -3.65,72.2 -7.92,144.41 -11.21,216.61 7.81,14.02 17.18,27.28 25.56,41.05 -45.76,-0.02 -91.51,0.03 -137.27,-0.03 -7.5,-0.49 -15.67,-0.43 -22.13,-4.81 -6.49,-4.64 -6.54,-13.57 -5.88,-20.72 6.46,-49.95 13.16,-99.87 19.54,-149.83 -38.23,58.3 -75.85,117.02 -113.97,175.39 -39.84,0 -79.66,-0.02 -119.48,0 -4.37,-53.7 -8.94,-107.4 -13.39,-161.1 -22.36,41.48 -43.97,83.36 -66.17,124.93 3.51,12.07 7.23,24.08 10.8,36.15 -36.34,0.03 -72.69,0 -109.04,0.02 -11.6,-0.22 -23.37,0.82 -34.78,-1.7 -4.19,-0.9 -9.01,-3.4 -9.26,-8.22 1.08,-7.06 5.33,-13 8.89,-18.99 45.92,-76.31 91.8,-152.65 137.73,-228.94 1.3,-1.6 0.24,-3.66 -0.03,-5.39 -3.11,-11.27 -6.02,-22.61 -9.12,-33.88zm-396.23 0c45.9,0 91.82,0.02 137.74,0 8.91,-0.09 18.03,-0.04 26.63,2.63 4.2,1.29 8.62,3.74 10.13,8.16 0.81,3.97 -0.1,8.05 -1.39,11.82 -23.91,65.14 -47.65,130.37 -71.56,195.51 23.38,-0.01 46.76,0.02 70.15,-0.01 36.34,-27.97 72.67,-55.94 109.08,-83.82 -16.99,45.7 -33.99,91.39 -50.92,137.11 -2.92,8.05 -6.49,17.04 -14.73,20.97 -9.38,4.39 -20.03,4.2 -30.15,4.72 -72.86,0.06 -145.73,0 -218.58,0.03 -9.46,0.03 -19.05,0.11 -28.32,-1.98 -4.69,-1.1 -9.84,-3.18 -11.97,-7.83 -1.63,-4.95 0.05,-10.2 1.75,-14.87 29.07,-78.37 58.01,-156.77 87.14,-235.1 -4.83,-12.51 -10.03,-24.89 -15,-37.34zm-455.37 0c48.92,0.02 97.86,-0.03 146.78,0.02 8.42,0.5 17.64,0.91 24.68,6.1 5.16,4.05 3.55,11.29 1.62,16.61 -17.94,48.06 -35.81,96.13 -53.76,144.19 -3.64,10.27 -8.05,20.28 -10.68,30.86 -1.54,6.04 -0.25,13.41 5.33,16.95 9.62,6.24 21.66,6.22 32.71,6.18 13.05,0.03 27.07,-1.18 38.05,-8.93 8.44,-6.09 13.38,-15.68 16.82,-25.25 18.52,-49.88 37.07,-99.75 55.47,-149.66 -4.98,-12.35 -10.02,-24.68 -14.96,-37.05 46.28,-0.05 92.58,0.02 138.87,-0.03 8.52,-0.11 17.19,0.16 25.44,2.5 4.6,1.38 9.76,4.26 10.47,9.52 0.63,7.2 -2.77,13.87 -5.13,20.49 -22.13,59.33 -44.26,118.67 -66.42,178.01 -6.49,16.56 -13.53,33.54 -25.97,46.61 -8.61,9.22 -19.65,15.74 -31.12,20.74 -27.58,12.29 -57.63,17.62 -87.5,20.69 -37.81,3.68 -75.87,3.82 -113.82,2.83 -31.92,-1.37 -64.21,-3.79 -94.95,-13.1 -15.62,-5.07 -31.81,-12.32 -41.47,-26.27 -5.47,-8.14 -7.32,-18.4 -5.67,-28.01 1.99,-11.41 5.47,-22.53 9.59,-33.34 20.24,-54.5 40.4,-109.04 60.68,-163.53 -5.1,-12.35 -10.03,-24.75 -15.06,-37.13zm591.93 -532.46c21.85,-0.96 43.75,-0.2 65.62,-0.49 2.95,0.13 6.51,-0.67 8.72,1.89 9.7,8.69 19.51,17.26 29.26,25.91 8.93,-8.27 17.87,-16.53 26.79,-24.81 1.73,-1.46 3.38,-3.63 5.94,-3.32 10.86,-0.11 21.72,0 32.59,-0.01 -28.14,23.48 -56.49,46.7 -84.69,70.09 -28.11,-23.06 -56.1,-46.21 -84.23,-69.26z"/>
   <path class="fil1" d="M861.48 151.45c79.47,-14.43 160.07,-22.68 240.82,-24.71 63.59,-1.32 127.53,0.91 190.42,11 32.76,5.44 65.43,13.22 95.68,27.21 26.09,11.95 50.35,28.28 70.06,49.24 15.57,16.17 27.64,35.42 36.74,55.87 60.75,6.4 121.19,16 180.71,29.76 44.12,9.98 87.81,27.21 122.29,57.22 29.64,25.39 50.41,61.37 55.72,100.22 6.61,45.35 -5.84,91.62 -27.63,131.29 -19.79,35.77 -45.01,68.67 -75.49,95.96 -26.36,23.88 -56.56,43.04 -87.69,60.04 -20.12,10.97 -40.23,21.96 -60.25,33.09 -11.56,-22.94 -23.04,-45.92 -34.46,-68.92 -53.25,15.26 -106.73,29.87 -159.27,47.47 -58.6,19.51 -116.37,41.71 -172.29,68.01 -49.46,23.31 -97.55,49.82 -142.35,81.23 3.14,2.48 6.33,4.93 9.16,7.8 17.58,19.66 36.1,38.46 53.82,57.99 9.43,10.58 13.3,24.46 16.53,37.93 20.24,-17.37 40.42,-34.82 60.67,-52.16 -6.01,-22.35 -11.98,-44.71 -17.94,-67.08 155.18,-0.01 310.35,0 465.53,0 15.81,0.16 31.86,-1.02 47.39,2.8 19.48,4.09 37.17,14.75 50.83,29.08 14.73,15.66 30.39,30.44 44.82,46.36 6.79,11.86 12.09,24.65 16.06,37.75 1.97,6.58 3.32,13.45 2.9,20.37 -3.79,70.76 -7.58,141.5 -11.37,212.24 -0.41,4.29 3.1,7.45 5,10.97 21.82,33.38 41.96,67.81 62.11,102.22 -331.27,0 -662.53,0 -993.79,0 13.53,41.34 32.41,80.94 55.95,117.52 -25.16,5.49 -51.14,4.61 -76.7,3.74 -61.78,-3.09 -123.05,-13 -183.4,-26.31 -117.65,-26.54 -232.42,-67.46 -338.52,-125.09 -53.64,-29.44 -105.04,-64.25 -147.46,-108.71 -37.96,-39.31 -67.59,-86.65 -86.22,-138.05 -25.17,-68.59 -31.54,-142.54 -29.51,-215.1 1.51,-61.33 9.62,-122.81 27.9,-181.51 17.17,-55.52 43.71,-108.06 77.71,-155.18 34.47,-48.02 76.2,-90.47 121.44,-128.37 45.1,-37.66 93.71,-70.99 143.98,-101.36 26.77,-16.07 53.84,-31.71 81.94,-45.37 97.26,-47.11 202.07,-77.08 308.16,-96.46zm519.4 230.27c68.25,0.88 136.74,5.11 203.87,17.98 29.55,5.93 59.07,13.43 86.54,26.08 17.63,8.32 35.07,19.09 46.17,35.55 7.21,10.72 9.87,24.05 8.38,36.8 -2.19,20.25 -11.23,39.03 -21.81,56.17 -12.29,19.73 -27.34,37.6 -43.53,54.23 -7.48,-18.7 -24.13,-31.67 -41.11,-41.4 -25.28,-14.12 -53.54,-21.89 -81.84,-27.28 -37.27,-6.84 -75.24,-9.16 -113.09,-9.31 -75.22,0.04 -150.63,5.27 -224.75,18.51 -33.69,5.96 -66.99,14.15 -99.55,24.65 53.96,-27.97 107.77,-56.33 159.94,-87.52 10.4,-6.27 20.77,-12.62 30.74,-19.59 5.77,-4.59 13.5,-4.46 20.39,-6.05 33.21,-6.41 67.11,-7.1 100.78,-8.33 63.45,-1.96 127.07,-0.83 190.25,5.41 25.18,2.56 50.29,6 75.06,11.21 -19,-15.71 -42.44,-24.76 -65.58,-32.48 -64.5,-20.75 -132.68,-24.76 -199.9,-28 -17.01,-0.83 -34.02,-1.76 -51.05,-2.34 6.73,-8.07 13.84,-15.83 20.09,-24.29zm-469.06 -198.77c-100,15.33 -199.07,39.78 -292.7,78.51 -54.42,22.13 -105.67,51.25 -155.09,82.85 -42.81,27.49 -84.08,57.52 -122.14,91.35 -47.17,41.72 -89.44,89.49 -121.89,143.62 -27.46,45.45 -47.43,95.31 -59.8,146.94 -13.65,56.97 -18.54,115.76 -18.08,174.26 -0.16,39.31 5.66,78.69 17.39,116.23 16.47,52.81 45.24,101.34 81.65,142.82 35.87,40.73 78.17,75.63 124.08,104.5 -16.12,-16.95 -32.62,-35.61 -37.07,-59.36 -6.4,-31.45 5.9,-62.34 16.68,-91.31 10.94,-29.43 21.85,-58.87 32.78,-88.3 4.95,-14.18 10.98,-28.04 15.29,-42.4 -7.28,-19.4 -15.53,-38.47 -23.17,-57.75 -4.64,-11.54 -9.4,-23.02 -13.93,-34.6 14.34,-0.02 28.68,0.03 43.01,-0.02 34.76,0.05 69.52,-0.02 104.29,0.03 32.28,-0.05 64.57,0.03 96.85,-0.03 42.89,0.03 85.79,0.05 128.69,-0.02 101.46,0.1 202.92,-0.03 304.38,0.07 3.9,-0.29 8.42,1.03 11.73,-1.73 67.31,-49.65 142.25,-88.01 219.17,-120.39 58.21,-24.43 117.86,-45.37 178.17,-63.92 48.83,-14.63 97.86,-28.51 146.93,-42.36 10.14,20.53 20.45,40.98 30.7,61.48 29.46,-16.13 59.39,-31.87 85.97,-52.59 31.81,-24.27 58.45,-54.94 79.08,-89.16 19.73,-31.93 33.48,-69.05 31.42,-107.06 -1.24,-25.29 -10.61,-50.07 -26.47,-69.81 -18.55,-23.3 -44.47,-39.6 -71.75,-50.84 -24.96,-10.44 -51.51,-16.13 -77.89,-21.73 -57.84,-11.88 -116.43,-20.04 -175.27,-24.82 -3.46,-20.28 -13.13,-39.08 -25.61,-55.27 -15.88,-20.52 -37.13,-36.39 -60.19,-48 -24.16,-12.23 -50.46,-19.58 -76.95,-24.76 -57.49,-11.02 -116.22,-13.64 -174.64,-13.72 -72.16,0.71 -144.27,6.48 -215.62,17.29zm-519.54 732.1c9.12,22.46 18.14,44.97 27.32,67.41 -17.87,48.37 -35.84,96.69 -53.78,145.05 -7.7,20.99 -16.22,42.81 -14.43,65.6 1.19,17.81 10.36,34.54 23.96,45.95 18.36,18.94 36.14,38.44 54.36,57.51 5.56,5.07 12.43,8.44 19.13,11.79 26.22,12.24 55.16,16.99 83.74,20.06 38.34,3.74 76.94,3.81 115.42,2.59 37.54,-1.54 75.43,-4.78 111.61,-15.5 23.25,-7.17 46.47,-16.79 64.65,-33.39 9.54,10.99 18.39,22.57 28.01,33.5 4.76,0.86 8.54,4.16 13,5.85 13.38,5.22 27.97,5.17 42.1,5.48 71.24,-0.04 142.49,0.05 213.73,-0.04 20.72,-0.48 43.79,-0.46 60.62,-14.43 15.9,15.62 39.87,14.68 60.51,14.06 54.5,0.29 108.99,-0.59 163.49,-0.39 42.45,-0.82 84.92,0.13 127.38,-0.8 37.2,0.16 74.39,-0.02 111.59,-0.38 27.26,-0.14 54.51,0.35 81.77,-0.41 43.57,0.3 87.11,-0.34 130.66,-0.39 -16.4,-25.48 -33.46,-50.56 -49.6,-76.18 3.39,-74.97 8.11,-149.94 11.83,-224.91 -1.77,-14.29 -8.11,-27.76 -14.83,-40.32 -14.33,-15.58 -29.57,-30.3 -44.15,-45.62 -14.18,-14.42 -34.3,-22.09 -54.41,-22.08 -63.73,0.05 -127.47,-0.09 -191.2,0.07 2.31,15.51 4.63,31.03 6.91,46.55 -10.91,-10.38 -21.82,-20.76 -32.73,-31.13 -6.39,-6.27 -15.15,-9.29 -23.64,-11.55 -11.8,-2.85 -23.99,-4.14 -36.12,-3.95 -59.93,0.11 -119.84,-0.13 -179.77,0.11 5.6,20.91 11.12,41.83 16.76,62.72 -7.31,12.34 -14.78,24.61 -22.16,36.91 -5.52,-4.6 -10.96,-9.27 -16.45,-13.88 -33.15,24.64 -65.94,49.76 -99,74.53 5.12,-14.4 10.51,-28.72 15.72,-43.09 4.08,-11.42 5.03,-24.58 -0.21,-35.81 -3.3,-7.54 -9.52,-13.12 -14.98,-19.07 -14.67,-15.73 -29.55,-31.28 -44.02,-47.2 -11.9,-11.89 -29.55,-14.83 -45.7,-15.21 -134.89,0 -269.8,0.02 -404.7,-0.01 3.36,10.23 7.28,20.25 10.7,30.47 -7.27,-6.87 -14.68,-13.6 -22.55,-19.77 -10.32,-8.88 -24.64,-9.93 -37.62,-10.65 -64.31,-0.08 -128.63,0 -192.92,-0.05zm347.1 430.86c-35.73,7.23 -72.25,9.58 -108.62,10.24 -26.46,1.02 -52.92,-0.46 -79.36,-1.12 98.41,35.64 200.65,60.9 304.45,74.47 -11.47,-30.42 -15.39,-63.07 -17.38,-95.32 -5.99,-6.14 -12.11,-12.15 -18.14,-18.23 -24.89,14.81 -52.68,24.15 -80.95,29.96z"/>
   <path class="fil2" d="M911.82 182.95c71.35,-10.81 143.46,-16.58 215.62,-17.29 58.42,0.08 117.15,2.7 174.64,13.72 26.49,5.18 52.79,12.53 76.95,24.76 23.06,11.61 44.31,27.48 60.19,48 12.48,16.19 22.15,34.99 25.61,55.27 58.84,4.78 117.43,12.94 175.27,24.82 26.38,5.6 52.93,11.29 77.89,21.73 27.28,11.24 53.2,27.54 71.75,50.84 15.86,19.74 25.23,44.52 26.47,69.81 2.06,38.01 -11.69,75.13 -31.42,107.06 -20.63,34.22 -47.27,64.89 -79.08,89.16 -26.58,20.72 -56.51,36.46 -85.97,52.59 -10.25,-20.5 -20.56,-40.95 -30.7,-61.48 -49.07,13.85 -98.1,27.73 -146.93,42.36 -60.31,18.55 -119.96,39.49 -178.17,63.92 -76.92,32.38 -151.86,70.74 -219.17,120.39 -3.31,2.76 -7.83,1.44 -11.73,1.73 -101.46,-0.1 -202.92,0.03 -304.38,-0.07 79.08,-75.39 174.34,-133.04 276.3,-171.84 67.95,-25.71 139,-43.65 211.32,-51.15 -35.5,-9.09 -71.28,-17.34 -107.56,-22.53 -28.69,-4.32 -57.74,-4.84 -86.67,-5.97 -38.75,-1.21 -77.61,-1.23 -116.27,2.11 -17.1,1.49 -34.13,4.05 -50.71,8.49 67.19,-43.11 135.01,-85.24 202.16,-128.39 -25.06,1.07 -50.51,-6.7 -70.13,-22.47 -11.03,-8.36 -18.7,-20.23 -29.69,-28.64 -23.2,-19.37 -53.28,-28.42 -82.99,-30.95 -42.08,-3.48 -84.13,2.34 -125.86,7.23 -21.06,2.31 -41.67,7.58 -61.92,13.66 -27.68,8.38 -54.77,18.66 -81.46,29.79 13.47,-16.92 31.11,-29.9 49.12,-41.58 39.62,-24.96 83.56,-42.23 128.24,-55.73 66.7,-20.09 135.79,-30.76 204.85,-38.78 40.19,-4.43 80.64,-7.74 121.12,-6.53 29.34,0.73 58.44,5.33 86.89,12.39 33.92,8.51 69.83,11.64 104.22,4.04 17.44,-4.04 35.05,-11.22 47.35,-24.66 8.64,-9.37 12.53,-23.18 8.54,-35.48 -2.92,-9.58 -11.18,-16.34 -19.92,-20.53 -28.4,-14.51 -60.3,-19.91 -91.55,-24.48 -78.24,-10.08 -157.6,-9.1 -236.01,-1.62 -77.74,7.28 -154.06,25.47 -228.37,49.05 -107.17,34.64 -211,82.5 -301.9,149.56 -50.39,37.41 -96.55,81.12 -133.52,132.02 -29.26,40.23 -52.49,85 -67.1,132.6 -8.63,27.7 -14.1,56.3 -17.13,85.13 -4.89,43.34 -2.02,87.35 5.31,130.27 13.68,-22.26 27.78,-44.47 45.51,-63.78 30.67,-34.05 68.31,-61.21 108.11,-83.61 62.74,-34.98 131.08,-59.03 200.69,-76.11 17.43,-4 34.85,-8.3 52.59,-10.69 -52.63,21.87 -102.66,49.74 -149.62,81.97 -45.02,31.03 -87.06,66.64 -123.77,107.23 -14.33,0.05 -28.67,0 -43.01,0.02 4.53,11.58 9.29,23.06 13.93,34.6 -28.94,37.22 -54.63,78.53 -65.95,124.72 10.63,22.94 25.42,43.89 41.05,63.73 -10.78,28.97 -23.08,59.86 -16.68,91.31 4.45,23.75 20.95,42.41 37.07,59.36 -45.91,-28.87 -88.21,-63.77 -124.08,-104.5 -36.41,-41.48 -65.18,-90.01 -81.65,-142.82 -11.73,-37.54 -17.55,-76.92 -17.39,-116.23 -0.46,-58.5 4.43,-117.29 18.08,-174.26 12.37,-51.63 32.34,-101.49 59.8,-146.94 32.45,-54.13 74.72,-101.9 121.89,-143.62 38.06,-33.83 79.33,-63.86 122.14,-91.35 49.42,-31.6 100.67,-60.72 155.09,-82.85 93.63,-38.73 192.7,-63.18 292.7,-78.51zm-172.44 1162.96c28.27,-5.81 56.06,-15.15 80.95,-29.96 6.03,6.08 12.15,12.09 18.14,18.23 1.99,32.25 5.91,64.9 17.38,95.32 -103.8,-13.57 -206.04,-38.83 -304.45,-74.47 26.44,0.66 52.9,2.14 79.36,1.12 36.37,-0.66 72.89,-3.01 108.62,-10.24zm-347.1 -430.86c64.29,0.05 128.61,-0.03 192.92,0.05 12.98,0.72 27.3,1.77 37.62,10.65 7.87,6.17 15.28,12.9 22.55,19.77 -3.42,-10.22 -7.34,-20.24 -10.7,-30.47 134.9,0.03 269.81,0.01 404.7,0.01 16.15,0.38 33.8,3.32 45.7,15.21 14.47,15.92 29.35,31.47 44.02,47.2 5.46,5.95 11.68,11.53 14.98,19.07 5.24,11.23 4.29,24.39 0.21,35.81 -5.21,14.37 -10.6,28.69 -15.72,43.09 33.06,-24.77 65.85,-49.89 99,-74.53 5.49,4.61 10.93,9.28 16.45,13.88 7.38,-12.3 14.85,-24.57 22.16,-36.91 -5.64,-20.89 -11.16,-41.81 -16.76,-62.72 59.93,-0.24 119.84,0 179.77,-0.11 12.13,-0.19 24.32,1.1 36.12,3.95 8.49,2.26 17.25,5.28 23.64,11.55 10.91,10.37 21.82,20.75 32.73,31.13 -2.28,-15.52 -4.6,-31.04 -6.91,-46.55 63.73,-0.16 127.47,-0.02 191.2,-0.07 20.11,-0.01 40.23,7.66 54.41,22.08 14.58,15.32 29.82,30.04 44.15,45.62 6.72,12.56 13.06,26.03 14.83,40.32 -3.72,74.97 -8.44,149.94 -11.83,224.91 16.14,25.62 33.2,50.7 49.6,76.18 -43.55,0.05 -87.09,0.69 -130.66,0.39 -27.26,0.76 -54.51,0.27 -81.77,0.41 -37.2,0.36 -74.39,0.54 -111.59,0.38 -42.46,0.93 -84.93,-0.02 -127.38,0.8 -54.5,-0.2 -108.99,0.68 -163.49,0.39 -20.64,0.62 -44.61,1.56 -60.51,-14.06 -16.83,13.97 -39.9,13.95 -60.62,14.43 -71.24,0.09 -142.49,0 -213.73,0.04 -14.13,-0.31 -28.72,-0.26 -42.1,-5.48 -4.46,-1.69 -8.24,-4.99 -13,-5.85 -9.62,-10.93 -18.47,-22.51 -28.01,-33.5 -18.18,16.6 -41.4,26.22 -64.65,33.39 -36.18,10.72 -74.07,13.96 -111.61,15.5 -38.48,1.22 -77.08,1.15 -115.42,-2.59 -28.58,-3.07 -57.52,-7.82 -83.74,-20.06 -6.7,-3.35 -13.57,-6.72 -19.13,-11.79 -18.22,-19.07 -36,-38.57 -54.36,-57.51 -13.6,-11.41 -22.77,-28.14 -23.96,-45.95 -1.79,-22.79 6.73,-44.61 14.43,-65.6 17.94,-48.36 35.91,-96.68 53.78,-145.05 -9.18,-22.44 -18.2,-44.95 -27.32,-67.41zm44.52 29.88c5.03,12.38 9.96,24.78 15.06,37.13 -20.28,54.49 -40.44,109.03 -60.68,163.53 -4.12,10.81 -7.6,21.93 -9.59,33.34 -1.65,9.61 0.2,19.87 5.67,28.01 9.66,13.95 25.85,21.2 41.47,26.27 30.74,9.31 63.03,11.73 94.95,13.1 37.95,0.99 76.01,0.85 113.82,-2.83 29.87,-3.07 59.92,-8.4 87.5,-20.69 11.47,-5 22.51,-11.52 31.12,-20.74 12.44,-13.07 19.48,-30.05 25.97,-46.61 22.16,-59.34 44.29,-118.68 66.42,-178.01 2.36,-6.62 5.76,-13.29 5.13,-20.49 -0.71,-5.26 -5.87,-8.14 -10.47,-9.52 -8.25,-2.34 -16.92,-2.61 -25.44,-2.5 -46.29,0.05 -92.59,-0.02 -138.87,0.03 4.94,12.37 9.98,24.7 14.96,37.05 -18.4,49.91 -36.95,99.78 -55.47,149.66 -3.44,9.57 -8.38,19.16 -16.82,25.25 -10.98,7.75 -25,8.96 -38.05,8.93 -11.05,0.04 -23.09,0.06 -32.71,-6.18 -5.58,-3.54 -6.87,-10.91 -5.33,-16.95 2.63,-10.58 7.04,-20.59 10.68,-30.86 17.95,-48.06 35.82,-96.13 53.76,-144.19 1.93,-5.32 3.54,-12.56 -1.62,-16.61 -7.04,-5.19 -16.26,-5.6 -24.68,-6.1 -48.92,-0.05 -97.86,0 -146.78,-0.02zm455.37 0c4.97,12.45 10.17,24.83 15,37.34 -29.13,78.33 -58.07,156.73 -87.14,235.1 -1.7,4.67 -3.38,9.92 -1.75,14.87 2.13,4.65 7.28,6.73 11.97,7.83 9.27,2.09 18.86,2.01 28.32,1.98 72.85,-0.03 145.72,0.03 218.58,-0.03 10.12,-0.52 20.77,-0.33 30.15,-4.72 8.24,-3.93 11.81,-12.92 14.73,-20.97 16.93,-45.72 33.93,-91.41 50.92,-137.11 -36.41,27.88 -72.74,55.85 -109.08,83.82 -23.39,0.03 -46.77,0 -70.15,0.01 23.91,-65.14 47.65,-130.37 71.56,-195.51 1.29,-3.77 2.2,-7.85 1.39,-11.82 -1.51,-4.42 -5.93,-6.87 -10.13,-8.16 -8.6,-2.67 -17.72,-2.72 -26.63,-2.63 -45.92,0.02 -91.84,0 -137.74,0zm396.23 0c3.1,11.27 6.01,22.61 9.12,33.88 0.27,1.73 1.33,3.79 0.03,5.39 -45.93,76.29 -91.81,152.63 -137.73,228.94 -3.56,5.99 -7.81,11.93 -8.89,18.99 0.25,4.82 5.07,7.32 9.26,8.22 11.41,2.52 23.18,1.48 34.78,1.7 36.35,-0.02 72.7,0.01 109.04,-0.02 -3.57,-12.07 -7.29,-24.08 -10.8,-36.15 22.2,-41.57 43.81,-83.45 66.17,-124.93 4.45,53.7 9.02,107.4 13.39,161.1 39.82,-0.02 79.64,0 119.48,0 38.12,-58.37 75.74,-117.09 113.97,-175.39 -6.38,49.96 -13.08,99.88 -19.54,149.83 -0.66,7.15 -0.61,16.08 5.88,20.72 6.46,4.38 14.63,4.32 22.13,4.81 45.76,0.06 91.51,0.01 137.27,0.03 -8.38,-13.77 -17.75,-27.03 -25.56,-41.05 3.29,-72.2 7.56,-144.41 11.21,-216.61 0.27,-7.58 1.19,-15.14 0.85,-22.71 -0.3,-5.41 -3.15,-10.98 -8.3,-13.18 -7.6,-3.25 -16.04,-3.44 -24.16,-3.58 -51.54,0.03 -103.07,0.03 -154.6,0 2.58,12.57 5.22,25.13 7.91,37.7 -25.62,34.6 -51.25,69.2 -76.84,103.81 -4.06,-41.01 -8.19,-82.03 -12.3,-123.04 -0.53,-5.9 -2.79,-12.45 -8.59,-15.03 -6.64,-2.92 -14.09,-3.13 -21.23,-3.41 -50.65,-0.03 -101.3,0 -151.95,-0.02zm-550.7 -193.7c26.46,-9.11 53.34,-17.36 80.95,-22.15 -80.95,41.42 -155.37,95.88 -218.68,161.21 -32.28,0.06 -64.57,-0.02 -96.85,0.03 67.77,-61.54 148.29,-108.74 234.58,-139.09zm643.18 -369.51c-6.25,8.46 -13.36,16.22 -20.09,24.29 17.03,0.58 34.04,1.51 51.05,2.34 67.22,3.24 135.4,7.25 199.9,28 23.14,7.72 46.58,16.77 65.58,32.48 -24.77,-5.21 -49.88,-8.65 -75.06,-11.21 -63.18,-6.24 -126.8,-7.37 -190.25,-5.41 -33.67,1.23 -67.57,1.92 -100.78,8.33 -6.89,1.59 -14.62,1.46 -20.39,6.05 -9.97,6.97 -20.34,13.32 -30.74,19.59 -52.17,31.19 -105.98,59.55 -159.94,87.52 32.56,-10.5 65.86,-18.69 99.55,-24.65 74.12,-13.24 149.53,-18.47 224.75,-18.51 37.85,0.15 75.82,2.47 113.09,9.31 28.3,5.39 56.56,13.16 81.84,27.28 16.98,9.73 33.63,22.7 41.11,41.4 16.19,-16.63 31.24,-34.5 43.53,-54.23 10.58,-17.14 19.62,-35.92 21.81,-56.17 1.49,-12.75 -1.17,-26.08 -8.38,-36.8 -11.1,-16.46 -28.54,-27.23 -46.17,-35.55 -27.47,-12.65 -56.99,-20.15 -86.54,-26.08 -67.13,-12.87 -135.62,-17.1 -203.87,-17.98zm-352.15 30.75c28.13,23.05 56.12,46.2 84.23,69.26 28.2,-23.39 56.55,-46.61 84.69,-70.09 -10.87,0.01 -21.73,-0.1 -32.59,0.01 -2.56,-0.31 -4.21,1.86 -5.94,3.32 -8.92,8.28 -17.86,16.54 -26.79,24.81 -9.75,-8.65 -19.56,-17.22 -29.26,-25.91 -2.21,-2.56 -5.77,-1.76 -8.72,-1.89 -21.87,0.29 -43.77,-0.47 -65.62,0.49z"/>
   <path class="fil3" d="M1335.59 282.75c8.74,4.19 17,10.95 19.92,20.53 3.99,12.3 0.1,26.11 -8.54,35.48 -12.3,13.44 -29.91,20.62 -47.35,24.66 -34.39,7.6 -70.3,4.47 -104.22,-4.04 -28.45,-7.06 -57.55,-11.66 -86.89,-12.39 -40.48,-1.21 -80.93,2.1 -121.12,6.53 -69.06,8.02 -138.15,18.69 -204.85,38.78 -44.68,13.5 -88.62,30.77 -128.24,55.73 -18.01,11.68 -35.65,24.66 -49.12,41.58 26.69,-11.13 53.78,-21.41 81.46,-29.79 20.25,-6.08 40.86,-11.35 61.92,-13.66 41.73,-4.89 83.78,-10.71 125.86,-7.23 29.71,2.53 59.79,11.58 82.99,30.95 10.99,8.41 18.66,20.28 29.69,28.64 19.62,15.77 45.07,23.54 70.13,22.47 -67.15,43.15 -134.97,85.28 -202.16,128.39 16.58,-4.44 33.61,-7 50.71,-8.49 38.66,-3.34 77.52,-3.32 116.27,-2.11 28.93,1.13 57.98,1.65 86.67,5.97 36.28,5.19 72.06,13.44 107.56,22.53 -72.32,7.5 -143.37,25.44 -211.32,51.15 -101.96,38.8 -197.22,96.45 -276.3,171.84 -42.9,0.07 -85.8,0.05 -128.69,0.02 63.31,-65.33 137.73,-119.79 218.68,-161.21 -27.61,4.79 -54.49,13.04 -80.95,22.15 -86.29,30.35 -166.81,77.55 -234.58,139.09 -34.77,-0.05 -69.53,0.02 -104.29,-0.03 36.71,-40.59 78.75,-76.2 123.77,-107.23 46.96,-32.23 96.99,-60.1 149.62,-81.97 -17.74,2.39 -35.16,6.69 -52.59,10.69 -69.61,17.08 -137.95,41.13 -200.69,76.11 -39.8,22.4 -77.44,49.56 -108.11,83.61 -17.73,19.31 -31.83,41.52 -45.51,63.78 -7.33,-42.92 -10.2,-86.93 -5.31,-130.27 31.26,-67.21 66.97,-132.7 111.39,-192.19 29.68,-39.45 63.35,-76.55 103.83,-105.18 47.79,-34.65 96.53,-68.24 148.25,-96.82 47.96,-26.71 98.28,-49.24 150.3,-66.77 71.62,-24.42 146.26,-39.37 221.48,-47.03 77.8,-8 156.23,-7.99 234.25,-3.33 35.47,0.74 72.43,2.17 106.08,-10.94zm-1031.79 766.88c11.32,-46.19 37.01,-87.5 65.95,-124.72 7.64,19.28 15.89,38.35 23.17,57.75 -4.31,14.36 -10.34,28.22 -15.29,42.4 -10.93,29.43 -21.84,58.87 -32.78,88.3 -15.63,-19.84 -30.42,-40.79 -41.05,-63.73z"/>
  </g>
 </g>
</svg>
