<?xml version="1.0" encoding="UTF-8"?>
<!DOCTYPE svg PUBLIC "-//W3C//DTD SVG 1.1//EN" "http://www.w3.org/Graphics/SVG/1.1/DTD/svg11.dtd">
<!-- Creator: CorelDRAW -->
<svg xmlns="http://www.w3.org/2000/svg" xml:space="preserve" width="2000px" height="1600px" version="1.1" style="shape-rendering:geometricPrecision; text-rendering:geometricPrecision; image-rendering:optimizeQuality; fill-rule:evenodd; clip-rule:evenodd"
viewBox="0 0 2000 1600"
 xmlns:xlink="http://www.w3.org/1999/xlink">
 <defs>
  <style type="text/css">
   <![CDATA[
    .fil0 {fill:#5F5F61}
    .fil2 {fill:#251A06;fill-rule:nonzero}
    .fil3 {fill:#3497D2;fill-rule:nonzero}
    .fil5 {fill:#A9213B;fill-rule:nonzero}
    .fil4 {fill:#ACAEB1;fill-rule:nonzero}
    .fil1 {fill:#FBFDFB;fill-rule:nonzero}
   ]]>
  </style>
 </defs>
 <g id="Capa_x0020_1">
  <metadata id="CorelCorpID_0Corel-Layer"/>
  <g id="Maine_x0020_Black_x0020_Bears.cdr">
   <path class="fil0" d="M1110.85 1479.07c-7.75,5.66 -15.22,9.65 -25.32,8.99 -2.24,-0.15 -4.13,-0.59 -6.2,-1.44 -4.32,-1.79 -7.94,-4.07 -11.59,-6.33 -0.42,0.32 -0.8,0.62 -1.1,0.84 -6.99,5.23 -13.5,9.22 -22.46,10.17 -1.22,0.13 -2.28,0.15 -3.5,0.06 -4.13,-0.31 -8.11,-1.32 -11.92,-2.94 -4.55,-1.93 -8.39,-4.54 -12.36,-7.42 -0.36,-0.26 -0.89,-0.66 -1.48,-1.08 -0.43,0.3 -0.85,0.6 -1.25,0.88 -4.23,2.94 -8.31,5.55 -13.16,7.38 -0.61,0.23 -1.15,0.41 -1.78,0.58 -5.01,1.36 -10.26,1.26 -15.19,-0.37 -5.15,-1.71 -9.02,-4.62 -12.43,-8.27 -1.7,1.4 -3.37,2.82 -4.99,4.14 -5.09,4.09 -11.29,5.36 -17.58,3.59 -6.29,-1.77 -10.91,-6.09 -13.11,-12.24 -14.93,-41.71 -30.46,-83.2 -45.8,-124.77l-14.49 -14.26c-5.16,-2.96 -9.76,-6.68 -13.87,-11.03 -10.1,-10.71 -14.58,-22.61 -23,-33.73 -0.06,-0.09 -0.12,-0.16 -0.18,-0.25 -1.7,-1.32 -10.17,-4.26 -12.09,-5.08 -5.67,-2.45 -9.54,-6.93 -11.14,-12.9 -1.83,-6.82 -2.84,-13.76 -4.12,-20.69 -0.97,-5.28 -2.41,-13.61 -6.32,-18.35 -0.42,0.17 -0.81,0.34 -1.14,0.47 -4.82,1.94 -9.38,3.51 -14.62,3.93 -6.77,0.55 -12.84,-2.13 -17.01,-7.49 -8.47,-10.9 -14.73,-22.89 -21.15,-35.04 -11.5,-21.8 -12.94,-43.57 -18.81,-66.75 -0.17,-0.54 -0.38,-1.17 -0.6,-1.82 -2.11,0.97 -4.34,2.09 -5.99,2.7 -5.46,2.02 -10.95,1.63 -16.08,-1.14 -5.12,-2.77 -8.45,-7.14 -9.76,-12.82 -5.55,-24.08 -17.9,-47.05 -26.42,-70.25 -1.07,-2.89 -1.98,-5.83 -2.77,-8.8 -3.62,-13.61 -4.33,-31.49 -9.85,-44.15 -2.66,-1.44 -7.86,-3.17 -10.24,-4.35 -7.07,-3.5 -11.17,-10.4 -10.87,-18.28 0.26,-6.87 1.19,-13.64 2.19,-20.43 0.98,-6.67 2.2,-13.97 2.11,-20.91 -2.67,-1.24 -6.81,-2.62 -8.64,-3.39 -8.28,-3.51 -13,-11.86 -11.74,-20.77 3.76,-26.43 10.63,-57.59 1.61,-83.49 -0.92,-2.52 -3.78,-11.08 -5.42,-12.73 -0.08,-0.04 -0.16,-0.08 -0.24,-0.13 -21.36,-11.17 -43.96,-19.78 -65.34,-30.99 -10.66,-5.59 -26.28,-17.6 -38.15,-18.77 -0.75,-0.08 -1.39,-0.17 -2.12,-0.33 -2.27,-0.48 -4.8,-0.66 -7.11,-0.97 -12.75,-1.67 -23.67,-6.15 -30.21,-17.8 -3.13,-4.92 -5.59,-10.12 -8.09,-15.38 -2.12,-4.45 -5.85,-13.66 -11.22,-15.08 -7.34,-1.95 -12.61,-7.51 -14.15,-14.95 -0.96,-4.66 -1.56,-9.38 -1.89,-14.12 -0.56,-7.91 -0.35,-15.81 -0.06,-23.72 0.44,-11.8 1.34,-25.39 -2.36,-36.8 -0.06,-0.19 -0.12,-0.36 -0.17,-0.54 -0.52,-0.79 -1.44,-1.77 -2,-2.4 -4.91,-5.53 -9.06,-10.22 -11.36,-17.52 -2.28,-7.2 -1.78,-14.58 1.08,-21.49 11.16,-32 20.59,-63.47 45.21,-88.21 13.18,-13.24 23.28,-28.04 38.03,-40.1 17.35,-14.19 36.21,-15.67 57.03,-19.87 4.28,-0.86 8.58,-2.43 12.68,-3.9 13.59,-4.88 25.88,-8.91 40.59,-6.86 4.59,0.64 8.35,2.59 11.53,5.96 9.4,9.98 22.24,17.05 34.36,23.18 18.58,8.18 44.29,6.27 64.37,7.57 0.19,0.01 0.35,0.03 0.54,0.04 5.98,0.56 12.09,-0.85 16.96,-4.45 0.16,-0.13 0.31,-0.23 0.48,-0.35 17.22,-11.95 36.18,-19.74 53.95,-30.46 0.45,-0.27 0.84,-0.49 1.12,-0.61 0.05,-0.04 0.09,-0.08 0.13,-0.12 1.35,-1.37 2.87,-4.31 3.81,-5.99 6.73,-12.17 13.52,-21.79 27.84,-25.65 0.75,-0.2 1.4,-0.34 2.18,-0.46 32.22,-4.85 64.44,-9.83 96.92,-12.7 8.25,-0.73 16.64,-2.89 24.68,-4.85 18.32,-4.47 35.56,-8.1 53.54,-4.5 17.94,-0.6 35.31,2.13 53.11,3.54 0.15,0.01 0.28,0.02 0.44,0.04 48.39,4.94 96.86,9.19 145.22,14.51 6.63,0.73 12,4.37 15.13,10.25 1.72,3.23 4.21,5.81 7.53,7.39 0.17,0.08 0.32,0.15 0.49,0.24 3.84,1.95 7.55,4.13 11.17,6.45 11.6,7.45 23.47,17.93 36.04,23.47 5.53,2.04 10.06,5.12 14.06,8.94 9.81,-0.49 19.59,-0.38 29.38,0.99 0.34,0.05 0.64,0.1 0.98,0.17 8.46,1.62 20.53,-3.03 28.54,-5.68 0.96,-0.32 1.9,-0.76 2.78,-1.24 2.5,-1.35 4.91,-3.1 7.22,-4.73 6.7,-4.74 12.9,-8.92 20.77,-11.52 1.41,-0.47 2.67,-0.74 4.15,-0.89 15.2,-1.57 30.01,1.41 44.7,0.14 0.5,-0.04 0.93,-0.07 1.44,-0.07 20.33,-0.25 39.98,-3.43 60.46,-1.62 1.35,0.12 2.5,0.34 3.81,0.73 30.17,8.89 58.88,25.06 78.27,50.33 10.29,13.41 16.11,28.11 23.98,42.8 5.57,10.38 9.52,21.27 9.64,33.2 0.33,32.35 0.9,64.08 -12.01,94.47 -15.17,35.7 -23.33,71.63 -52.22,100.05 -0.11,0.12 -0.21,0.21 -0.33,0.32 -21.95,20.6 -47.91,33.99 -73.18,49.78 -0.2,0.12 -0.37,0.23 -0.58,0.35 -15.42,8.91 -29.7,19.8 -43.67,30.88 3.36,24.62 6.79,49.23 9.54,73.93 1,9.02 -4.08,17.3 -12.58,20.48 -1.74,0.66 -5.86,1.97 -8.52,3.19 0.44,13 3.48,26.35 4.14,39.45 0.44,8.54 -4.41,16.06 -12.37,19.19 -1.98,0.78 -3.45,1.77 -4.61,3.56 -3.14,4.88 -3.67,14.56 -3.91,20.21 -0.35,8.56 -0.21,17.18 -1.29,25.71 -1.02,8.09 -6.57,14.41 -14.46,16.47 -5.53,1.44 -9.13,6.38 -10.66,11.66 -0.16,0.54 -0.32,1 -0.52,1.53 -5.54,14.45 -7.28,30.76 -9.29,46.04 -1.01,7.67 -6.03,13.69 -13.39,16.07 -1.87,0.6 -7.97,2.28 -10.45,3.59 -4.51,14.67 -5.57,31.13 -8.52,46.22 -1.57,8 -7.52,13.93 -15.53,15.45 -1.26,0.24 -2.53,0.36 -3.77,0.48 -10.16,14.25 -16.47,32.31 -23.04,48.28 -2.11,5.1 -5.78,8.73 -10.91,10.75 -4.88,1.93 -9.77,1.9 -14.55,-0.07 -5.55,11.25 -6.44,26.7 -7.3,37.65 -0.46,5.83 -3.13,10.67 -7.82,14.16 -4.69,3.5 -10.09,4.67 -15.81,3.44 -2.27,-0.49 -4.66,-1.42 -6.93,-2.21 -1.62,1.99 -3.14,4.07 -4.57,6.19 -11.36,16.83 -18.26,35.8 -29.78,52.91 -2.93,17.7 -12.25,29.71 -19.98,45.98 -0.23,0.49 -0.45,0.89 -0.71,1.36 -12.62,21.95 -19.07,48.01 -29.08,71.32 -2.26,5.29 -6.23,8.96 -11.68,10.81 -5.43,1.85 -10.83,1.36 -15.84,-1.44 -1.34,-0.75 -2.69,-1.53 -4.06,-2.3z"/>
   <path class="fil1" d="M834.38 198.76c8.66,32.44 16.28,65.15 24.25,97.76 -21.46,0.14 -42.96,0.14 -64.42,0.03 12.7,-32.88 26.91,-65.15 40.17,-97.79zm223.85 1172.77c2.14,-7.8 8.04,-13.77 12.67,-20.15 3.07,3.86 6.17,7.76 9.24,11.7l0.97 1.31c4.07,13.01 0.28,26.67 -4.24,39.03 -6.42,0.07 -12.84,0.1 -19.26,0.13 0.14,-10.66 -0.76,-21.39 0.62,-32.02zm-24.43 -16.05c0.28,-0.58 0.83,-1.75 1.11,-2.34l1.07 -2.38c4.27,8.07 10.31,15.53 12.59,24.5 0.97,9.39 0.35,18.84 0.41,28.26 -8.62,-0.03 -17.25,0 -25.88,0 -0.03,-8.35 -0.41,-16.67 0.21,-24.98 2.21,-8.18 7.28,-15.26 10.49,-23.06zm-43.55 8.22c3.07,-3.94 6.21,-7.87 9.35,-11.77 3.8,4.76 7.59,9.56 11.29,14.43 6.24,11.31 2.79,24.81 3.59,37.16 -7.32,-0.03 -14.6,-0.03 -21.88,0 -0.93,-13.18 -8.22,-26.98 -2.35,-39.82zm-31.89 -93.35c8.22,41.48 14.33,83.38 21.57,125.03 -7.8,5.48 -17.98,4.38 -26.91,2.96 -11.81,-6.45 -10.94,-22.05 -11.12,-33.61 -1.03,-32.16 3.01,-64.87 16.46,-94.38zm153.57 -0.07c11.28,24.06 16.32,50.63 16.66,77.13 0.35,14.74 2.66,30.78 -4.27,44.41 -6.18,11.22 -20.78,6.32 -31.1,7.63 -1.51,-4.76 -2.1,-9.7 -0.82,-14.56 6.52,-38.21 12.73,-76.48 19.53,-114.61zm-214.96 -253.98c-3.24,-25.19 26.61,-47.59 49.46,-35.65 -0.35,12.56 1.2,25.5 -2.9,37.62 -3.08,10.38 -8.08,20.84 -6.53,31.95 2.21,18.43 5.18,36.79 7.46,55.25 -24.85,-23.33 -48.62,-53.21 -47.49,-89.17zm221.31 -35.16c5.45,-7.98 16.49,-5.94 24.36,-3.32 17.32,5.35 28.26,23.88 25.33,41.69 -1.04,32.85 -22.22,59.84 -44.62,81.92 -0.79,0.11 -2.35,0.35 -3.14,0.45 2.9,-17.08 5.14,-34.27 7.52,-51.42 1.8,-10.66 -2.72,-20.8 -5.76,-30.78 -4.07,-12.35 -4.73,-25.64 -3.69,-38.54zm-160.88 -7.98c8.66,-4.21 18.19,-5.1 27.67,-4.72 -1.07,14.66 3.9,31.19 -5.31,44.06 -3.87,5.97 -7.97,11.81 -11.84,17.78 -6.76,-18.36 -12.45,-37.31 -10.52,-57.12zm123.54 -7.48c9.52,-1.52 18.88,0.72 27.61,4.55 -0.94,14.25 2.69,29.51 -3.7,42.89 -2.17,4.91 -4.52,9.7 -6.73,14.6 -6.21,-9.21 -14.56,-17.77 -16.87,-28.95 -0.93,-11.01 -0.31,-22.09 -0.31,-33.09zm-35.48 -1.25l0.14 -0.13c8.97,-4.08 23.81,-1.32 24.81,10.35 2.73,16.05 -9.21,28.67 -15.52,42.17 -7.91,-15.46 -25.89,-36.41 -9.43,-52.39zm-46.2 3.73c8.8,-6.9 25.02,-5.25 27.91,7.11 2.77,16.01 -8.93,29.02 -15.59,42.41 -4.63,-6.32 -10.11,-12.11 -13.7,-19.12 -2.45,-9.04 -1.28,-18.56 -1.76,-27.81l1.45 -1.21 1.69 -1.38zm-32.2 -221.65c22.36,-6.52 43.86,-18.7 67.88,-16.94 19.95,-0.97 37.61,9.18 54.8,17.84 -2.66,4.14 -5.28,8.28 -7.9,12.42 -32.82,0.17 -65.67,0.24 -98.53,0.04 -7.93,0.2 -11.35,-8.63 -16.25,-13.36zm298.4 -66.25c6,-2.46 12.07,-4.8 18.08,-7.22 -3.69,23.71 -13.08,50.45 -36.61,60.98 -15.74,7.45 -33.65,2.55 -47.14,-7.18 -4.56,-3.83 -9.08,-7.69 -13.63,-11.49 3.83,-2.35 7.69,-4.69 11.63,-6.9 5.62,4.76 10.83,10.52 17.87,13.18 10.39,3.28 21.29,0.38 31.47,-2.38 -3.38,-3.83 -6.69,-7.66 -10,-11.49 6.76,2.79 13.52,5.62 20.32,8.42 5.66,-11.15 7.11,-23.64 8.01,-35.92zm-494.68 -7.42c5.17,1.83 10.45,3.55 15.66,5.34 0.97,0.8 2.83,2.35 3.8,3.15 0.86,10.24 -0.86,22.77 8.28,29.98 11.29,9.08 26.71,7.04 40,5.01 -3.11,-3.9 -6.28,-7.8 -9.42,-11.67 6.21,2.01 12.28,4.83 18.77,5.9 3.62,-2.2 6.8,-5.03 10.14,-7.59 4.63,2.38 9.05,5.07 13.53,7.7 -2.73,3.03 -5.49,6.07 -8.21,9.11 -20.33,15.42 -51.66,18.11 -72.4,2.24 -14.8,-11.87 -16.32,-31.99 -20.15,-49.17zm505.37 -237.87c1.87,-0.62 5.63,-1.9 7.53,-2.52 0.79,2.21 2.41,6.66 3.24,8.87 -4.38,-0.9 -7.97,-3 -10.77,-6.35zm-532.57 -25.99c5.46,-24.43 15.74,-47.62 24.75,-70.95 38.3,0.21 76.61,-0.03 114.94,0.14 4.56,16.57 9.11,33.16 13.6,49.8 -4.28,0.17 -8.56,0.31 -12.84,0.38 -0.34,-0.35 -1,-1.11 -1.34,-1.49 -3.52,-11.56 -6.35,-23.29 -9.56,-34.95 -32.09,0 -64.22,-0.04 -96.31,0.03 -5.28,14.94 -10.22,29.99 -16.15,44.69 -3.08,8.18 -6.6,17.94 -1.49,26.09 5.59,9.07 17.81,8.04 26.99,9.45 -6.63,4.14 -13.25,8.29 -19.85,12.5 -13.32,-6.87 -26.19,-19.12 -22.74,-35.69zm-295.42 111.43c31.36,-99.25 64.91,-197.8 96.76,-296.88 8.73,0 17.46,-0.03 26.22,-0.1 -2.03,70.3 -5.38,140.55 -7.86,210.81 -2.94,1.04 -5.9,2.04 -8.84,3.01 -1.31,-0.18 -3.86,-0.56 -5.17,-0.73 2.89,-67.22 6.69,-134.51 7.35,-201.8 -6.32,13.87 -10.36,28.57 -15.08,42.99 -24.68,74.61 -48.76,149.39 -73.61,223.93 -6.66,6.14 -13.8,11.87 -19.77,18.77zm793.45 -323.1c6.7,0.17 13.43,0.38 20.12,0.58 36.92,76.06 74.3,151.88 111.63,227.73 -4.14,1.83 -8.21,3.83 -12.25,5.86 -35.71,-72.26 -70.67,-144.93 -106.8,-217.02 -2.59,56.7 -4.35,113.43 -6.76,170.13 -0.38,10.9 -1.56,21.94 0.62,32.74 -4.94,-3.55 -9.63,-7.45 -14.01,-11.62 0.93,-69.5 4.69,-138.97 7.45,-208.4zm293.94 -74.95c116.95,0.03 233.94,0 350.89,0.03 -1.66,49.17 -2.21,98.38 -4.21,147.56 -18.05,-0.04 -36.1,0.45 -54.08,-0.76 0.73,-24.64 4.63,-54.32 -13.97,-73.75 -25.99,-20.63 -61.53,-12.69 -92.18,-14.45 -18.42,-2.14 -40.47,8.1 -42.82,28.22 -2.48,28.47 -2.31,57.15 -4,85.69 14.8,-0.9 34.02,4.42 44.41,-9.56 13.11,-17.39 12.59,-40.48 13.77,-61.22 16.8,0.04 33.58,0.07 50.38,-0.07 -2.76,66.74 -6.14,133.45 -8.63,200.19 -18.25,0.24 -36.51,0.1 -54.76,0.13 -1.14,-20.46 0.52,-43.2 -11.56,-60.9 -8.15,-11.8 -23.81,-8.6 -36.03,-9.15 -1.83,43.41 -2.45,86.93 -4.9,130.31 6.8,9.52 18.15,15.97 29.99,15.59 18.19,0 36.44,0.52 54.59,-0.55 18.74,-1.52 39.96,-6.59 50.66,-23.64 15.46,-24.36 19.7,-53.76 22.81,-81.92 19.05,0.07 38.1,0 57.15,0.03 -2.21,55.22 -4.18,110.47 -6.04,165.71 -88.79,-0.06 -177.58,-0.06 -266.41,0 0.14,-4.62 0.17,-9.24 0.17,-13.87 84.38,0.04 168.72,0 253.09,0.04 1.76,-46.04 3.66,-92.04 4.9,-138.07 -10.18,-0.14 -20.33,-0.21 -30.47,-0.24 -5.42,30.47 -10.66,64.25 -33.75,86.96 -21.46,19.01 -52.11,19.01 -79.13,19.36 -18.46,-0.49 -39.2,2.69 -55.14,-8.8 -7.91,-5.56 -16.81,-13.18 -16.08,-23.85 3.24,-46.83 3.58,-93.86 5.34,-140.79 18.47,0.79 40.38,-3.94 55.39,9.76 16.25,15.39 16.88,39.45 18.77,60.25 9.46,-0.03 18.95,-0.1 28.44,-0.17 2.24,-57.45 5.21,-114.88 7.42,-172.37 -7.7,-0.1 -15.32,-0.17 -22.98,-0.24 -2.49,22.54 -5.32,48.83 -24.82,63.6 -17.63,11.94 -40.3,5.87 -60.21,7.07 1.1,-32.74 1.86,-65.53 3.86,-98.21 1.24,-21.15 19.19,-39.2 40.03,-41.68 20.33,-1.42 40.76,-0.18 61.15,-0.59 21.81,-0.45 45.45,4.87 60.77,21.43 15.12,18.6 15.08,44.03 15.63,66.77 8.73,-0.07 17.46,-0.1 26.23,-0.17 1.21,-40.27 2.55,-80.54 3.07,-120.85 -107.67,-0.07 -215.33,-0.24 -323,0.07 0,9.28 0.03,18.53 0.07,27.81 12.01,2.83 25.92,4.49 34.06,14.91 12.22,14.12 9.97,34.06 9.76,51.35 -2.76,77.99 -6.24,155.95 -8.79,233.9 -4.15,-3.83 -8.46,-7.49 -12.77,-11.04 1.9,-80.06 6.31,-160.09 8.55,-240.15 -0.13,-9.87 -1.65,-21.12 -9.52,-28.02 -10.21,-7.04 -23.29,-6.38 -35.06,-8.42 -0.07,-17.73 -0.07,-35.51 -0.04,-53.24zm-389.98 -0.83c54.25,0 108.5,0 162.75,-0.04 31.71,67.47 64.29,134.52 95.62,202.12 1.66,-40.62 2.93,-81.27 4.07,-121.88 -0.2,-9.32 1.07,-20.92 -7.35,-27.27 -8.73,-6.14 -19.98,-5.86 -30.06,-7.83 0.18,-14.74 0.11,-29.51 0.11,-44.24 49.38,0.17 98.76,-0.48 148.11,0.34 3.17,18.23 2.55,36.83 0.62,55.11 -9.7,0.69 -20.39,0.49 -28.33,7.05 -9.7,6.76 -13.7,18.77 -13.7,30.15 -2.52,67.16 -4.73,134.31 -7.45,201.47 -3.25,0.03 -9.81,0.13 -13.05,0.2 1.62,-65.98 4.8,-131.89 6.8,-197.84 0.07,-13.63 2.66,-28.08 12.39,-38.33 7.59,-9.42 19.67,-12.74 30.78,-16.19 0.21,-9.63 0.34,-19.29 0.55,-28.92 -40.99,-0.58 -82.03,-0.41 -123.02,-0.1 0.07,6.28 0.17,12.56 0.31,18.84 16.08,3.14 34.37,11.87 35.99,30.37 1.69,31.02 -1.03,62.18 -1.66,93.24 -0.79,16.19 -0.03,32.47 -2.03,48.59 -0.62,9.73 -10.01,14.94 -16.26,21.02 -33.78,-70.68 -67.11,-141.56 -100.93,-212.2 -47.14,-0.1 -94.31,-0.24 -141.45,0.07 0.13,6.52 0.31,13.08 0.51,19.6 10.56,4.32 22.23,8.56 28.85,18.57 7.73,9.9 9.22,22.88 8.84,35.06 -2,59.63 -3.38,119.29 -6.52,178.89 -4.53,-0.86 -9.05,-1.59 -13.6,-2.24 3.45,-56.53 4.52,-113.16 6.38,-169.75 0.11,-11.66 1.69,-24.88 -6.31,-34.54 -6.87,-10.11 -19.64,-12.08 -30.92,-12.53 -0.04,-15.6 0,-31.2 -0.04,-46.79zm-173.61 45c-1.66,-14.88 -0.34,-30.03 -0.59,-45 52.35,0 104.67,-0.04 157.02,0 -1,14.94 -1.04,29.92 -0.69,44.86 -11.63,1.9 -24.78,2.59 -33.68,11.32 -6.56,6.11 -6.14,15.7 -6.77,23.88 -1.76,52.73 -4.21,105.42 -5.9,158.15 -0.38,5.62 -0.89,11.25 -1.31,16.87 -3.21,-0.27 -9.63,-0.82 -12.8,-1.1 2.69,-62.36 4,-124.82 7.63,-187.11 1.44,-19.98 21.32,-29.85 38.54,-33.85 0.42,-6.38 0.83,-12.77 1.24,-19.15 -42.99,-0.59 -86.03,-0.17 -129.06,-0.28 -0.31,5.77 -0.59,11.5 -0.83,17.26 11.36,3.28 24.4,6 31.37,16.56 5.94,7.25 6.04,16.98 5.9,25.85 -2.17,59.59 -4.35,119.16 -6.69,178.72 -4.49,-0.04 -8.97,0.03 -13.43,0.14 2.11,-59.6 4.7,-119.16 6.6,-178.76 -0.11,-6.86 0.65,-14.91 -4.87,-20.08 -8.08,-8.87 -21.02,-6.66 -31.68,-8.28zm-842.73 -44.04c71.5,-0.2 143,-0.24 214.5,0 21.81,91.24 44.38,182.31 66.54,273.48 27.05,-82.92 54,-165.91 80.95,-248.87 2.73,-8.18 4.66,-16.7 8.77,-24.37 70.22,-0.89 140.55,-0.06 210.81,-0.37 0.03,17.22 0.03,34.4 0,51.62 -16.36,2.93 -34.65,6.14 -46.1,19.39 -7.11,7.84 -6.77,19.02 -7.32,28.89 -2.31,69.46 -5.83,138.89 -7.59,208.4 18.12,-12.36 25.16,-33.86 33.44,-53.01 34.47,-85.55 71.67,-169.96 104.87,-256.02 33.09,-0.24 66.22,-0.03 99.35,-0.14 7.97,20.29 14.22,41.17 20.71,61.98 19.91,65.39 40.51,130.58 62.52,195.32 -4.48,1.07 -8.97,2.17 -13.45,3.24 -27.3,-81.82 -52.22,-164.4 -78.58,-246.53 -27.19,-0.72 -54.39,-0.41 -81.54,-0.24 -31.86,82.61 -67.78,163.54 -100.73,245.74 -9.56,23.19 -19.12,49.17 -42.66,61.73 -5.86,-3.69 -11.63,-7.49 -17.6,-10.97 2.11,-69.71 5.39,-139.35 7.77,-209.05 0.58,-12.7 0.83,-26.64 9.45,-36.89 10.53,-13.7 27.75,-18.98 43.66,-23.5 0,-9.01 0,-18.02 0.03,-26.99 -62.49,-0.55 -124.95,0.07 -187.45,-0.34 -31.95,96.45 -63.12,193.21 -94.38,289.87 -3.83,0.1 -7.63,0.17 -11.46,0.27 -24.32,-96.55 -46.82,-193.56 -71.26,-290.04 -62.8,0.52 -125.68,-0.86 -188.41,0.62 -1.38,8.8 -1.18,17.74 -1.28,26.64 17.77,4.38 37.89,13.39 42.93,32.78 3,22.71 0.48,45.76 1.24,68.61 1.24,66.98 -4.9,133.75 -8.46,200.6 -0.55,11.66 -2.48,23.98 -10.17,33.23 -9.05,12.49 -23.92,18.29 -37.96,23.15 -0.11,8.7 -0.14,17.39 -0.21,26.09 54.83,0.03 109.63,-0.03 164.47,0.03 0.1,-8.69 0.13,-17.39 0.1,-26.05 -12.77,-2.59 -26.98,-4.73 -36.1,-15.01 -13.83,-13.49 -13.11,-34.23 -12.8,-52.07 3.14,-78.23 6.04,-156.5 9.46,-234.73 9.07,0 18.11,0 27.19,0 26.74,109.29 53.21,218.65 80.23,327.86 25.09,-0.03 50.18,0 75.27,-0.03 2.38,-5.35 4.72,-10.66 7,-16.05 -2.59,10.39 -7.94,19.71 -12.77,29.16 -26.78,-0.2 -53.52,-0.07 -80.3,-0.1 -25.64,-104.39 -51.14,-208.78 -76.57,-313.2 -1.38,-5.55 -3.14,-11.01 -5.04,-16.43 -1.31,5.39 -2.45,10.84 -2.8,16.43 -2.69,66.74 -5.24,133.48 -8.07,200.22 -0.45,15.22 -2.52,31.92 5.52,45.62 8.76,14.32 27.3,13.04 41.58,17.01 1.73,16.39 3.35,33.44 -1.03,49.59 -63.22,1.73 -126.61,0.38 -189.9,0.62 1.1,-16.7 1.03,-33.47 0.41,-50.21 19.91,-2.76 44.86,-11.76 47.93,-34.68 5.7,-79.3 10.91,-158.77 10.22,-238.35 -0.55,-13.6 1.9,-27.78 -2.56,-40.89 -7.55,-15.7 -26.5,-19.53 -42.34,-19.33 0.07,-17.91 0.07,-35.82 -0.03,-53.73zm684.65 161.3l0 0c9.35,-0.07 18.67,-0.11 28.02,-0.07 -3.52,-13.91 -6.84,-27.88 -10.6,-41.72 -6.17,13.77 -11.8,27.78 -17.42,41.79z"/>
   <path class="fil2" d="M989.11 683.67c18.05,-7.04 37.72,-4.1 56.6,-4.66 14.18,-0.79 27.15,5.49 40.2,10.05 4.21,6.31 8.45,12.59 12.66,18.91 -12.21,-2.77 -24.43,-5.6 -36.51,-8.77 13.77,9.01 29.02,16.25 40.07,28.85 -21.4,2.76 -40.07,-14.84 -61.15,-8.7 13.08,5.11 27.23,7.32 39.96,13.32 9.28,4.39 15.53,15.36 26.67,15.02 23.19,0.58 46.42,-0.56 69.64,0.37 -6.21,11.81 -13.28,26.82 -28.5,28.03 -16.36,-0.38 -33.92,-8.29 -49.35,0.72 -17.56,8.32 -18.53,30.75 -16.91,47.59 -14.94,13.35 -30.61,25.88 -44.75,40.1 0,12.8 0,25.6 0.03,38.41 24.36,-0.11 49.55,0.58 72.26,10.49 35.82,15.25 62.46,44.79 89.41,71.77 -2,-15.87 0.45,-34.02 -9.66,-47.58 -8.97,-9.6 -20.46,-16.5 -28.78,-26.78 13.11,6.17 25.36,13.9 38.3,20.43 -8.66,-16.78 -22.81,-29.34 -36.2,-42.17 15.29,1.14 28.47,8.93 40.76,17.42 -11.15,-21.08 -31.3,-34.16 -51.04,-46.2 16.12,0.41 31.37,5.72 46.41,11.01 -13.42,-13.67 -30.91,-21.71 -47.89,-29.89 17.25,-7.8 35.82,-3.28 52.48,3.62 18.81,9.7 37.69,27.16 36.76,50.08 0.03,39.3 0.07,78.61 -0.31,117.91 14.07,0.48 28.15,0.35 42.27,0.21 -7.66,12.01 -20.98,17.29 -32.61,24.36 -16.05,10.56 -16.22,31.68 -21.47,48.25 -9.07,28.81 -18.25,57.63 -25.64,86.96 -8.49,33.92 -22.84,66.25 -28.02,100.97 -3.69,28.09 -38.34,39.65 -39.41,68.74 7.63,-8.21 14.7,-16.91 21.43,-25.88 -1.27,11.35 -2.72,22.67 -4.69,33.92 7.32,-10.04 14.46,-20.22 21.88,-30.19l0.31 7.14c-0.28,6.18 -0.59,12.35 -0.93,18.56 -1.31,16.6 -11.91,30.27 -18.84,44.87 -13.26,23.05 -19.67,49.07 -30.09,73.36 -4.39,-2.45 -8.67,-5 -13.29,-6.94 -9.25,0.73 -14.87,11.81 -24.36,11.18 -6.18,-2.55 -11.43,-6.79 -17.36,-9.8 -10.7,0.07 -16.91,12.01 -27.33,13.12 -10.77,-0.8 -17.15,-11.94 -27.57,-13.43 -7.94,1.8 -13.46,8.63 -20.95,11.46 -10.66,2.9 -13.22,-19.39 -23.85,-12.8 -5.76,3.31 -10.76,7.8 -15.91,11.94 -15.59,-43.59 -31.85,-86.93 -47.86,-130.38 -2.31,-6.52 -4.11,-13.21 -5.62,-19.94 9.07,6.11 15.49,14.98 22.05,23.53 4.62,-17.7 -10.08,-29.54 -21.16,-40.41 -15.32,-14.28 -14.15,-36.68 -20.25,-55.24 -16.36,-51.21 -29.72,-103.36 -45.76,-154.67 -4.52,-13.49 -4.04,-28.47 -10.73,-41.21 -9.7,-17.73 -35.44,-16.84 -43.79,-35.85 13.8,-0.1 27.64,0.41 41.4,-0.72 -0.34,-38.52 0.07,-76.99 -0.27,-115.47 0.34,-6.62 -0.66,-14.08 3.8,-19.64 12.97,-17.87 26.26,-36.4 45.03,-48.69l-2.73 5.52 -2.24 2.63c6.94,-1.83 13.87,-4.59 21.19,-4.52 6.8,1.34 12.25,6.04 18.18,9.38 -17.94,8.18 -35.64,17.43 -49.79,31.47 15.42,-7.83 31.92,-14.32 49.62,-13.35 -19.94,11.97 -40.51,24.85 -51.73,46.1 12.53,-8.52 25.64,-17.04 41.31,-18.01 -13.84,14.04 -28.12,27.92 -38.34,44.96 13.42,-7.31 26.09,-15.94 39.79,-22.74 -8.39,14.43 -25.92,20.26 -33.68,35.03 -5.01,12.56 -3.73,26.54 -5.01,39.79 27.34,-26.88 53.94,-56.91 90.18,-71.85 22.43,-9.66 47.27,-10.46 71.32,-9.97 -0.37,-13.18 1.59,-26.71 -1.51,-39.65 -11.18,-16.7 -29.09,-27.44 -41.41,-43.28 3.72,-16.11 0.72,-36.2 -15.19,-44.68 -14.11,-9.63 -30.81,-1.87 -46,-0.66 -16.11,-0.59 -24.19,-16.32 -31.09,-28.57 23.33,-0.59 46.66,0.38 69.98,-0.49 -13.04,-12.87 -26.88,-24.84 -40.1,-37.51 25.23,-8.8 50.49,-17.42 75.68,-26.26zm-17.53 411.28c18.08,4.24 35.72,10.04 53.52,15.25 6.11,1.9 12.67,2.83 18.95,1.03 19.74,-5.17 39.17,-11.49 58.91,-16.7 -9.46,10.25 -20.71,18.46 -32.3,26.02 -6.01,3.07 -7.18,10.15 -7.73,16.22 -2.52,37.68 -8.63,75.95 -24.95,110.36 -12.53,-9.91 -14.32,-26.4 -16.47,-41.1 -2.76,-21.98 -9.59,-43.34 -10.48,-65.6 -1.01,-6.8 -0.21,-15.77 -6.84,-19.98 -11.39,-7.84 -23.05,-15.39 -32.61,-25.5zm360.96 -461.45c14.7,-2.21 29.51,-3.32 44.35,-4.01 -4.18,3.11 -8.29,6.21 -12.46,9.29 -27.57,9.87 -53.73,23.22 -80.89,34.26 -6.01,2.42 -12.08,4.76 -18.08,7.22 -22.47,9.62 -45.35,18.22 -67.67,28.19 -3.94,2.21 -7.8,4.55 -11.63,6.9 4.55,3.8 9.07,7.66 13.63,11.49 -10.87,-3.03 -21.43,-7.07 -31.44,-12.32 8.56,-10 19.19,-17.87 30.13,-25.12 15.59,-10.56 26.43,-27.12 43.44,-35.75 15.98,-8.11 34.37,-6.83 51.63,-9.87 13.35,-1.86 26.08,-6.59 38.99,-10.28zm-161.74 -148.87c17.94,13.76 25.71,35.68 40.34,52.24 13.11,14.98 33.89,18.02 49.8,28.92 14.14,9.66 28.91,18.43 44.55,25.5 -19.12,5.04 -38.58,8.63 -58.08,11.87 -11.53,1.87 -23.64,0.45 -34.75,4.49 -12.87,5.8 -19.81,18.81 -29.71,28.16 -8.97,8.56 -18.12,16.98 -25.92,26.67 -4.86,-3 -9.73,-5.97 -14.63,-8.86 11.7,-12.53 20.5,-27.37 31.92,-40.1 8.59,-8.7 6.21,-21.74 5,-32.62 -1.89,-11.42 0.97,-22.81 0.45,-34.19 -2.14,-15.81 -11.52,-29.37 -15.29,-44.69 1.28,-6.04 4.08,-11.67 6.32,-17.39zm-393.98 -132.69c32.09,-0.07 64.22,-0.03 96.31,-0.03 3.21,11.66 6.04,23.39 9.56,34.95 -4.35,1.45 -8.7,2.87 -13.05,4.25 -2.38,-8.8 -4.66,-17.6 -7.04,-26.37 -25.43,0.04 -50.86,0 -76.29,0 -3.94,12.46 -8.39,24.75 -13.15,36.89 -1.42,4.77 -4.8,10.29 -1.11,14.91 11.43,2.62 23.26,2.52 34.93,3.11 -7.04,4.03 -13.88,8.38 -20.81,12.52 -9.18,-1.41 -21.4,-0.38 -26.99,-9.45 -5.11,-8.15 -1.59,-17.91 1.49,-26.09 5.93,-14.7 10.87,-29.75 16.15,-44.69zm37.06 -68.15c5.62,-14.01 11.25,-28.02 17.42,-41.79 3.76,13.84 7.08,27.81 10.6,41.72 -9.35,-0.04 -18.67,0 -28.02,0.07zm-272.34 -6.08c4.72,-14.42 8.76,-29.12 15.08,-42.99 -0.66,67.29 -4.46,134.58 -7.35,201.8 1.31,0.17 3.86,0.55 5.17,0.73 -0.48,0.76 -1.45,2.2 -1.93,2.96 -6.25,1.11 -12.46,2.25 -18.6,3.8 1.14,-39.27 4.24,-78.51 3.97,-117.81 -16.5,49.79 -32.3,99.8 -49.21,149.42 -5.76,9.52 -12.25,18.7 -20.74,26.02 24.85,-74.54 48.93,-149.32 73.61,-223.93zm712.77 -63.25c36.13,72.09 71.09,144.76 106.8,217.02 -3.93,2 -7.83,4.01 -11.73,5.9 -27.67,-56.62 -55.32,-113.25 -83.41,-169.64 -1.51,48.45 -4.45,96.87 -4.9,145.35 10.87,5.8 23.3,6.28 35.34,6.59 1.59,8.7 2.59,17.5 3.21,26.33 -4.28,-1.55 -8.49,-3.1 -12.7,-4.69 -0.83,-2.21 -2.45,-6.66 -3.24,-8.87 -12.32,-3.8 -24.88,-7.59 -35.51,-15.12 -2.18,-10.8 -1,-21.84 -0.62,-32.74 2.41,-56.7 4.17,-113.43 6.76,-170.13zm-296.77 -105.87l359.47 0c26.02,52.76 50.7,106.21 76.06,159.32 -0.38,-27.57 3.8,-55.38 0.45,-82.75 -11.29,-4.62 -23.74,-4.52 -35.65,-6.25 -0.03,-23.43 0,-46.86 -0.03,-70.32l542.16 0c-1,58.07 -3.04,116.12 -4.31,174.2 -27.44,-0.04 -54.91,0.31 -82.34,-0.28 1.83,-22.95 5.66,-47.14 -2.83,-69.29 -3.62,-9.73 -14.36,-13.95 -23.61,-16.4 -19.15,-3.55 -38.71,-1.41 -58.04,-2.07 -9.9,0.49 -21.32,-1.86 -29.61,4.94 -4.93,3.69 -7.14,9.8 -7.31,15.77 -1.11,22.46 -1.73,44.97 -2.87,67.46 7.84,-1.1 17.85,-0.76 21.92,-9.11 10.49,-18.94 7.9,-41.65 8.35,-62.53 26.19,-0.03 52.42,0 78.61,0 -3.56,75.3 -7.01,150.6 -9.91,225.93 -27.22,0.04 -54.42,0 -81.64,0 -0.38,-20.77 2.03,-42.72 -6.25,-62.35 -1.97,-6.05 -9.11,-6.05 -14.04,-8.08 -2.39,35.96 -1.76,72.09 -4.42,108.05 -1.38,10.18 11.87,12.11 19.36,11.69 24.46,-0.93 49.76,2.94 73.47,-4.76 10.69,-3.14 18.11,-12.25 22.5,-22.08 11.21,-24.57 14.63,-51.77 15.91,-78.48 28.05,0.04 56.11,0 84.16,0 -2.72,64.12 -4.83,128.27 -7.14,192.42 -93.28,-0.07 -186.52,-0.03 -279.8,-0.03 0.14,-4.59 0.31,-9.18 0.45,-13.74 88.83,-0.06 177.62,-0.06 266.41,0 1.86,-55.24 3.83,-110.49 6.04,-165.71 -19.05,-0.03 -38.1,0.04 -57.15,-0.03 -3.11,28.16 -7.35,57.56 -22.81,81.92 -10.7,17.05 -31.92,22.12 -50.66,23.64 -18.15,1.07 -36.4,0.55 -54.59,0.55 -11.84,0.38 -23.19,-6.07 -29.99,-15.59 2.45,-43.38 3.07,-86.9 4.9,-130.31 12.22,0.55 27.88,-2.65 36.03,9.15 12.08,17.7 10.42,40.44 11.56,60.9 18.25,-0.03 36.51,0.11 54.76,-0.13 2.49,-66.74 5.87,-133.45 8.63,-200.19 -16.8,0.14 -33.58,0.11 -50.38,0.07 -1.18,20.74 -0.66,43.83 -13.77,61.22 -10.39,13.98 -29.61,8.66 -44.41,9.56 1.69,-28.54 1.52,-57.22 4,-85.69 2.35,-20.12 24.4,-30.36 42.82,-28.22 30.65,1.76 66.19,-6.18 92.18,14.45 18.6,19.43 14.7,49.11 13.97,73.75 17.98,1.21 36.03,0.72 54.08,0.76 2,-49.18 2.55,-98.39 4.21,-147.56 -116.95,-0.03 -233.94,0 -350.89,-0.03 -0.03,17.73 -0.03,35.51 0.04,53.24 11.77,2.04 24.85,1.38 35.06,8.42 7.87,6.9 9.39,18.15 9.52,28.02 -2.24,80.06 -6.65,160.09 -8.55,240.15 -4.45,-2.49 -9.11,-4.63 -13.7,-6.7 2.96,-76.71 6.07,-153.39 8.76,-230.1 -0.27,-7.32 0.93,-16.77 -5.97,-21.57 -16.84,-6.07 -35.23,-4.04 -52.73,-2.69 -11.52,1.21 -16.18,13.91 -15.84,24.02 -2.52,67.08 -5.59,134.13 -7.73,201.22 -4.83,0 -9.66,0.07 -14.45,0.14 2.72,-67.16 4.93,-134.31 7.45,-201.47 0,-11.38 4,-23.39 13.7,-30.15 7.94,-6.56 18.63,-6.36 28.33,-7.05 1.93,-18.28 2.55,-36.88 -0.62,-55.11 -49.35,-0.82 -98.73,-0.17 -148.11,-0.34 0,14.73 0.07,29.5 -0.11,44.24 10.08,1.97 21.33,1.69 30.06,7.83 8.42,6.35 7.15,17.95 7.35,27.27 -1.14,40.61 -2.41,81.26 -4.07,121.88 -31.33,-67.6 -63.91,-134.65 -95.62,-202.12 -54.25,0.04 -108.5,0.04 -162.75,0.04 0.04,15.59 0,31.19 0.04,46.79 11.28,0.45 24.05,2.42 30.92,12.53 8,9.66 6.42,22.88 6.31,34.54 -1.86,56.59 -2.93,113.22 -6.38,169.75 -2.69,-0.35 -8.07,-1.07 -10.77,-1.42 -0.55,-4.69 -1.03,-9.38 -1.45,-14.11 3.01,-52.49 3.83,-105.05 5.66,-157.6 -0.03,-9.35 1.31,-21.15 -7.87,-26.95 -8.24,-4.52 -18.29,-2.8 -27.29,-4.01 -11.18,-0.31 -24.88,-1.27 -33.1,7.73 -1.58,5.32 -1.72,10.87 -1.89,16.36 -1.73,58.18 -4.94,116.33 -6.15,174.55 -2.79,-0.45 -8.35,-1.32 -11.14,-1.76 -0.45,-6.08 -0.9,-12.15 -1.11,-18.19 1.69,-52.73 4.14,-105.42 5.9,-158.15 0.63,-8.18 0.21,-17.77 6.77,-23.88 8.9,-8.73 22.05,-9.42 33.68,-11.32 -0.35,-14.94 -0.31,-29.92 0.69,-44.86 -52.35,-0.04 -104.67,0 -157.02,0 0.25,14.97 -1.07,30.12 0.59,45 10.66,1.62 23.6,-0.59 31.68,8.28 5.52,5.17 4.76,13.22 4.87,20.08 -1.9,59.6 -4.49,119.16 -6.6,178.76 -3.2,0.1 -9.59,0.31 -12.8,0.41 -0.34,-5.97 -0.72,-11.9 -0.83,-17.87 1.8,-57.15 5.04,-114.3 5.84,-171.44 -10.29,-7.87 -24.57,-3.49 -36.58,-4.63 0,-23.84 0.03,-47.69 0,-71.53zm-843.74 0l238.08 0c19.87,79.26 38.92,158.77 58.32,238.17 26.15,-79.3 51.45,-158.91 77.74,-238.17l234.9 0c0,25.77 0.04,51.59 0,77.36 -16.46,2.56 -34.75,3.01 -48.07,14.29 -6.38,5.63 -5.03,14.87 -5.79,22.47 -1.97,56.38 -4.49,112.74 -6.42,169.12 38.61,-94.48 79.4,-188.03 116.22,-283.24l117.4 0c7.9,16.56 13.01,34.26 18.81,51.66 22.15,71.95 44.58,143.83 68.67,215.16 -4.31,1.24 -8.66,2.27 -12.98,3.38 -22.01,-64.74 -42.61,-129.93 -62.52,-195.32 -6.49,-20.81 -12.74,-41.69 -20.71,-61.98 -33.13,0.11 -66.26,-0.1 -99.35,0.14 -33.2,86.06 -70.4,170.47 -104.87,256.02 -8.28,19.15 -15.32,40.65 -33.44,53.01 1.76,-69.51 5.28,-138.94 7.59,-208.4 0.55,-9.87 0.21,-21.05 7.32,-28.89 11.45,-13.25 29.74,-16.46 46.1,-19.39 0.03,-17.22 0.03,-34.4 0,-51.62 -70.26,0.31 -140.59,-0.52 -210.81,0.37 -4.11,7.67 -6.04,16.19 -8.77,24.37 -26.95,82.96 -53.9,165.95 -80.95,248.87 -22.16,-91.17 -44.73,-182.24 -66.54,-273.48 -71.5,-0.24 -143,-0.2 -214.5,0 0.1,17.91 0.1,35.82 0.03,53.73 15.84,-0.2 34.79,3.63 42.34,19.33 4.46,13.11 2.01,27.29 2.56,40.89 0.69,79.58 -4.52,159.05 -10.22,238.35 -3.07,22.92 -28.02,31.92 -47.93,34.68 0.62,16.74 0.69,33.51 -0.41,50.21 63.29,-0.24 126.68,1.11 189.9,-0.62 4.38,-16.15 2.76,-33.2 1.03,-49.59 -14.28,-3.97 -32.82,-2.69 -41.58,-17.01 -8.04,-13.7 -5.97,-30.4 -5.52,-45.62 2.83,-66.74 5.38,-133.48 8.07,-200.22 0.35,-5.59 1.49,-11.04 2.8,-16.43 1.9,5.42 3.66,10.88 5.04,16.43 25.43,104.42 50.93,208.81 76.57,313.2 26.78,0.03 53.52,-0.1 80.3,0.1 -1.93,4.45 -3.72,9.01 -5.24,13.63 -29.23,0.04 -58.43,0 -87.65,0.04 -20.33,-86.41 -42.9,-172.27 -62.43,-258.82 -2.76,43.97 -3.69,88.04 -5.8,132.07 0.42,13.49 -3.52,29.61 5.56,40.96 10.25,6.83 23.67,5.04 34.78,9.7 10.11,11.63 8.53,28.16 8.6,42.44 0.24,11.87 -3.35,23.23 -8.67,33.68 -70.46,-0.62 -140.96,1.07 -211.36,-0.89l0 -12.12c3.97,-19.18 4.07,-39.03 0,-58.21l0 -4.87c17.36,-2.83 43.79,-3.41 48.62,-24.74 6.52,-90.1 12.74,-180.65 9.15,-271 -8.42,-15.32 -29.23,-11.66 -43.97,-12.25 0.04,-26.98 0.04,-53.97 0,-80.95zm821.48 285.97c26.88,-2.18 53.94,-17.29 80.78,-7.35 47.52,22.22 97.66,38.16 145.56,59.46 -49.14,12.08 -98.73,22.36 -148.14,33.37 33.61,8.97 67.29,18.18 99.97,30.26 -32.96,12.67 -65.98,25.19 -98.9,37.96 38.47,-0.86 76.95,-2.59 115.43,-1.55 -41.21,17.32 -86.72,21.63 -127.38,40.58 40.45,15.91 81.58,29.92 121.65,46.76 -5.94,8.56 -11.84,17.15 -17.77,25.71 -61.57,-30.61 -135.24,-17.05 -193.91,13.77 -14.46,-13.7 -30.95,-24.88 -46.38,-37.38 -9.8,-7.76 -16.91,-18.36 -26.81,-25.95 -19.98,-4.45 -40.62,-1.9 -60.77,-0.03 -17.05,0.52 -34.47,2.72 -51.31,-0.69 -9.67,-5.97 -15.22,-16.95 -25.37,-22.4 -6.42,-4.76 -16.84,-7.18 -18.11,-16.36 3.31,-10.9 8.73,-21.01 12.73,-31.67 5.45,-16.08 26.26,-11.98 39.48,-14.57 -3.42,-6.62 -5.42,-14.42 -11.32,-19.32 -14.08,-1.73 -31.47,-1.28 -40.38,11.7 -11.83,16.87 -15.28,37.78 -22.22,56.87 18.98,17.94 35.75,38.13 55.28,55.52 1.62,0.35 4.9,0.97 6.52,1.31 17.4,4.04 34.27,10.36 52.15,12.32 13.87,2.32 28.95,0.56 41.61,7.73 27.99,14.6 47.69,40.07 72.68,58.74 -9.53,5.72 -19.22,11.38 -29.96,14.52l2.94 -4.1c2.72,-3.04 5.48,-6.08 8.21,-9.11 -4.48,-2.63 -8.9,-5.32 -13.53,-7.7 -23.6,-9.01 -47.65,-16.7 -71.57,-24.78 -5.21,-1.79 -10.49,-3.51 -15.66,-5.34 -18.74,-6.84 -36.79,-15.5 -54.15,-25.3 -7,9.11 -11.97,19.43 -16.53,29.92 -3.93,9.32 -11.28,16.67 -15.32,25.92 -3.11,38.82 19.22,83.13 59.39,92.44 0.28,-7.17 3.73,-15.66 -1.76,-21.74 -10.53,-10.59 -28.43,-11.83 -36.34,-25.46 -6.52,-12.94 -6.59,-28.33 -4.45,-42.31 5.11,-11.15 11.46,-21.71 16.46,-32.89 12.77,-0.86 24.78,7.46 36.2,12.56 3.21,23.33 6.63,47 9.35,70.61 6.46,7.83 17.46,6.21 26.44,7.04 15.53,0.2 29.54,8.63 45.06,8.94 13.05,-0.76 24.47,-10.77 37.93,-8.08 8.49,2.17 11.84,11.25 16.46,17.7 -20.29,15.84 -41.24,31.58 -55.87,53.18 -11.66,17.84 -31.44,33.27 -30.44,56.63 -0.13,37.27 0.21,74.54 -0.17,111.81 -15.08,0.52 -30.12,2.17 -44.96,4.93 7.45,25.88 43.96,23.88 51.35,49.59 7.35,35.75 21.84,69.47 30.71,104.8 12.11,44.18 19.57,89.93 38.03,132.14 3.69,8.14 6.8,16.6 8.69,25.4 -16.66,-8.22 -22.46,-26.75 -32.99,-40.66 -4.72,-6.62 -13.08,-8.45 -20.12,-11.49 -4.69,-17.49 -3.79,-40.1 -19.91,-51.76 -8.66,-7.28 -17.7,1.97 -26.74,2.69 -7.7,-9.9 -13.39,-21.19 -19.29,-32.16 -10.25,-19.64 -11.91,-41.96 -17.32,-63.08 -2.08,-6.11 -4.32,-13.53 -10.87,-16.19 -7.32,-3.76 -14.57,1.7 -21.3,4.18 -5.83,-25.33 -18.32,-48.31 -27.12,-72.61 -6.76,-18.04 -5.56,-38.27 -13.84,-55.76 -3.31,-7.49 -12.08,-9.04 -18.7,-12.32 0.62,-16.19 5.66,-32.2 3.97,-48.42 -2.11,-9.45 -12.56,-11.83 -20.23,-15.08 4.35,-30.64 11.25,-62.6 0.66,-92.83 -3.24,-8.66 -6,-19.15 -15.01,-23.6 -21.36,-11.18 -43.96,-19.77 -65.33,-30.99 -14.7,-7.69 -28.22,-19.22 -45.31,-20.91 -8.48,-1.8 -19.77,-0.59 -24.53,-9.63 -9.18,-14.08 -12.49,-34.44 -31.13,-39.37 -5.24,-25.37 3.25,-51.73 -4.86,-76.72 -2.66,-10.73 -18.43,-16.21 -12.81,-28.84 10.01,-28.65 18.81,-59.32 40.83,-81.48 12.52,-12.56 22.74,-27.47 36.54,-38.75 13.67,-11.18 31.89,-12.43 48.52,-15.84 15.7,-3.11 30.13,-12.87 46.69,-10.56 11.25,11.94 25.71,20.12 40.2,27.43 22.4,10.08 47.59,7.87 71.51,9.42 10.8,1 21.63,-1.72 30.4,-8.21 16.7,-11.59 35.58,-19.32 52.9,-29.78 13.01,-6.56 12.91,-26.19 27.88,-30.23 31.82,-4.8 63.67,-9.52 95.73,-12.56zm-380.01 79.2l0 0c-19.88,2.52 -23.78,25.39 -33.65,39.13 -14.56,19.98 -27.95,40.86 -43.89,59.77 -2.69,3.62 -5.76,7.49 -5.76,12.25 -2.59,25.71 8.76,50.24 7.17,75.85 -0.69,9.14 0.59,20.05 8.77,25.74 9.18,5.01 19.6,7.42 28.57,12.94 31.68,18.64 65.67,32.82 97.73,50.76 7.52,3.8 14.56,10.46 23.67,8.98 -18.22,-22.16 -40.48,-40.62 -58.73,-62.77 18.88,7 35.41,21.39 55.97,22.98 -18.91,-24.3 -42.37,-44.62 -62.39,-67.98 19.02,2.21 37.75,10.45 57.15,4.9 -43.1,-24.47 -88.34,-44.93 -132.17,-68.05 17.29,-28.41 37.48,-55.11 51.94,-85.1 11.8,-17.53 35.75,-15.32 54.21,-14.39 18.74,-0.86 36.16,7.52 54.8,7.56 -7.28,-11.15 -15.53,-25.61 -30.71,-25.68 -24.23,-1.76 -48.59,0.59 -72.68,3.11zm804.74 -19.16c11.39,-3.76 19.43,-13.73 30.78,-17.49 14.74,-1.52 29.58,1.45 44.38,0.17 19.46,-0.24 39.03,-3.42 58.49,-1.69 26.09,7.7 51.56,21.5 68.29,43.48 9.46,12.15 15.05,26.67 22.26,40.13 4.01,7.46 7.32,15.53 7.32,24.16 0.38,29.06 1.21,59.32 -10.46,86.62 -13.63,32.23 -22.19,68.43 -47.93,93.76 -20.71,19.42 -46.24,32.5 -70.16,47.45 -19.53,11.28 -37.16,25.39 -54.76,39.44 -0.45,-6.18 -1.31,-12.39 -0.21,-18.5 3,-5.93 8.22,-10.25 12.91,-14.77 16.36,-14.7 31.06,-31.12 45.96,-47.27 -19.84,2 -39.65,4 -59.49,5.83 14.77,-10.35 29.92,-20.22 43.9,-31.68 -17.5,-0.62 -35.03,-0.38 -52.56,-0.45 10.18,-20.33 20.67,-40.48 30.33,-61.08 -13.53,4.11 -26.85,8.77 -40.44,12.6 7.97,-17.64 16.77,-34.89 24.26,-52.73 -13.29,2.41 -26.54,4.86 -39.89,6.69 5.69,-13.56 14.77,-26.43 15.08,-41.62 -0.66,-15.18 -10.36,-27.67 -14.15,-42.03 -3.28,-9.42 -4.45,-21.46 -14.36,-26.57 -16.22,-9.73 -33.51,-17.49 -50.55,-25.64 -7.6,-3.86 -16.88,-5.59 -22.3,-12.7 11.6,-0.96 23.33,-1.41 34.93,0.21 13.11,2.52 26.05,-2.24 38.37,-6.32zm151.63 34.03l0 0c-25.19,17.91 -52.56,32.61 -78.23,49.83 -17.36,11.56 -29.78,29.44 -35.34,49.48 16.08,-8.69 31.3,-18.87 47.28,-27.77 0.07,10.31 -0.21,20.6 0.72,30.88 13.12,-9.97 21.78,-24.4 34.31,-35.06 -1.87,13.53 -6.22,26.5 -10.67,39.34 14.26,-10.21 28.51,-20.5 43.1,-30.26 -8.11,16.01 -16.94,31.64 -24.88,47.75 10.6,-6.72 21.09,-13.63 31.85,-20.18 -16.73,28.61 -34.61,56.56 -50.96,85.41 13.52,-8.18 27.26,-16.22 42.41,-21.19 -10.7,27.99 -22.81,55.45 -33.1,83.61 18.15,-8.73 28.64,-26.26 40.55,-41.58 11.25,-14.98 30.09,-23.22 38.17,-40.75 8.55,-16.19 8.04,-34.82 9.73,-52.53 1.62,-21.12 12.25,-40.75 11.21,-62.22 -0.75,-17.56 -13.14,-31.26 -18.8,-47.31 -3.97,-9.25 -8.04,-22.08 -20.12,-22.67 -11.56,-1.1 -18.81,9.21 -27.23,15.22zm-544.58 257.88l0 0c4.9,4.73 8.32,13.56 16.25,13.36 32.86,0.2 65.71,0.13 98.53,-0.04 2.62,-4.14 5.24,-8.28 7.9,-12.42 -17.19,-8.66 -34.85,-18.81 -54.8,-17.84 -24.02,-1.76 -45.52,10.42 -67.88,16.94zm8.7 216.75l0 0c7.14,2.45 14.42,4.49 21.81,6.28l-1.45 1.21c0.48,9.25 -0.69,18.77 1.76,27.81 3.59,7.01 9.07,12.8 13.7,19.12 6.66,-13.39 18.36,-26.4 15.59,-42.41 -2.89,-12.36 -19.11,-14.01 -27.91,-7.11 4.66,-4.59 11.83,-9.94 18.53,-6.18 8.56,4.21 19.15,10.39 27.67,2.45 -16.46,15.98 1.52,36.93 9.43,52.39 6.31,-13.5 18.25,-26.12 15.52,-42.17 -1,-11.67 -15.84,-14.43 -24.81,-10.35l3.94 -3.63c12.59,-2.31 25.22,12.6 35.71,0.52 -18.74,-4.97 -37.09,-13.84 -56.9,-12.56 -18.46,0.83 -35.23,9.25 -52.59,14.63zm105.18 2.42l0 0c0,11 -0.62,22.08 0.31,33.09 2.31,11.18 10.66,19.74 16.87,28.95 2.21,-4.9 4.56,-9.69 6.73,-14.6 6.39,-13.38 2.76,-28.64 3.7,-42.89 -8.73,-3.83 -18.09,-6.07 -27.61,-4.55zm-123.54 7.48l0 0c-1.93,19.81 3.76,38.76 10.52,57.12 3.87,-5.97 7.97,-11.81 11.84,-17.78 9.21,-12.87 4.24,-29.4 5.31,-44.06 -9.48,-0.38 -19.01,0.51 -27.67,4.72zm160.88 7.98l0 0c-1.04,12.9 -0.38,26.19 3.69,38.54 3.04,9.98 7.56,20.12 5.76,30.78 -2.38,17.15 -4.62,34.34 -7.52,51.42 0.79,-0.1 2.35,-0.34 3.14,-0.45 22.4,-22.08 43.58,-49.07 44.62,-81.92 2.93,-17.81 -8.01,-36.34 -25.33,-41.69 -7.87,-2.62 -18.91,-4.66 -24.36,3.32zm-221.31 35.16l0 0c-1.13,35.96 22.64,65.84 47.49,89.17 -2.28,-18.46 -5.25,-36.82 -7.46,-55.25 -1.55,-11.11 3.45,-21.57 6.53,-31.95 4.1,-12.12 2.55,-25.06 2.9,-37.62 -22.85,-11.94 -52.7,10.46 -49.46,35.65zm136.48 -20.05l0 0c-4.24,10.87 -5.41,23.57 -13.11,32.78 -4.45,5.63 -13.56,4.21 -16.63,-2.07 -3.62,-7.38 -6.63,-15.08 -10.77,-22.22 -7,14.67 -14.25,29.26 -23.46,42.72 -11.98,-7.73 -11.56,-23.08 -15.88,-35.16 -5.28,12.18 -9.94,24.95 -10.04,38.4 -0.41,24.85 10.15,48.42 8.9,73.37 -12.94,-11.73 -24.74,-24.67 -35.23,-38.58 -9.42,-12.11 -15.11,-26.95 -26.81,-37.27 -2.49,6.7 -4.87,13.42 -7.28,20.15 -4.87,-8.35 -9.67,-16.7 -14.88,-24.81 -2.86,27.47 9.91,53.39 15.88,79.65 6.49,21.36 2.48,45.1 13.01,65.36 11.87,23.88 24.63,47.45 33.02,72.88 5.01,13.08 6.52,27.4 13.22,39.86 4.93,-12.46 5.31,-30.1 18.53,-36.96 9.52,15.84 8.32,34.89 11.94,52.45 3.55,18.12 7.28,36.24 9.97,54.52 1.62,-1.89 4.83,-5.72 6.42,-7.62 -5.87,12.84 1.42,26.64 2.35,39.82 7.28,-0.03 14.56,-0.03 21.88,0 -0.8,-12.35 2.65,-25.85 -3.59,-37.16 3.07,3.96 6.21,7.86 9.32,11.83 2.89,-8.45 6.65,-16.77 13.59,-22.71 -3.21,7.8 -8.28,14.88 -10.49,23.06 -0.62,8.31 -0.24,16.63 -0.21,24.98 8.63,0 17.26,-0.03 25.88,0 -0.06,-9.42 0.56,-18.87 -0.41,-28.26 -2.28,-8.97 -8.32,-16.43 -12.59,-24.5l-1.07 2.38c0.31,-1.62 0.93,-4.83 1.24,-6.42 6.04,9.28 12.63,18.22 17.91,28.02 4.41,-9.87 10.07,-19.12 17.04,-27.4 3.04,5.21 5.97,10.49 9.04,15.74 -3.07,-3.94 -6.17,-7.84 -9.24,-11.7 -4.63,6.38 -10.53,12.35 -12.67,20.15 -1.38,10.63 -0.48,21.36 -0.62,32.02 6.42,-0.03 12.84,-0.06 19.26,-0.13 4.52,-12.36 8.31,-26.02 4.24,-39.03 2.11,1.07 6.35,3.14 8.49,4.17 1.31,-29.5 11.87,-57.45 14.7,-86.72 0.1,-6.9 3.8,-12.66 7.56,-18.08 6.59,7.04 10.56,15.81 15.11,24.16 0.73,0.1 2.21,0.27 2.97,0.34 33.61,-82.4 66.36,-167.19 73.61,-256.64 -6.32,8.73 -11.29,18.36 -17.57,27.16 -2.65,-6.56 -5.21,-13.11 -7.76,-19.7 -16.57,30.98 -35.89,61.35 -63.46,83.75 -2.9,-36.27 18.77,-75.23 -1.73,-109.26 -4.31,10.22 -1.24,31.06 -17.36,30.3 -6.38,-14.46 -14.11,-28.19 -21.42,-42.17 -5.04,10.8 -7.35,34.58 -24.61,27.78 -7.32,-9.97 -9.42,-22.81 -16.19,-33.23zm78.48 274.03l0 0c-6.8,38.13 -13.01,76.4 -19.53,114.61 -1.28,4.86 -0.69,9.8 0.82,14.56 10.32,-1.31 24.92,3.59 31.1,-7.63 6.93,-13.63 4.62,-29.67 4.27,-44.41 -0.34,-26.5 -5.38,-53.07 -16.66,-77.13zm-153.57 0.07l0 0c-13.45,29.51 -17.49,62.22 -16.46,94.38 0.18,11.56 -0.69,27.16 11.12,33.61 8.93,1.42 19.11,2.52 26.91,-2.96 -7.24,-41.65 -13.35,-83.55 -21.57,-125.03z"/>
   <path class="fil3" d="M696.38 381c32.95,-82.2 68.87,-163.13 100.73,-245.74 27.15,-0.17 54.35,-0.48 81.54,0.24 26.36,82.13 51.28,164.71 78.58,246.53 -19.64,5.59 -40.14,5.18 -60.36,5.94 -4.49,-16.64 -9.04,-33.23 -13.6,-49.8 -38.33,-0.17 -76.64,0.07 -114.94,-0.14 -9.01,23.33 -19.29,46.52 -24.75,70.95 -3.45,16.57 9.42,28.82 22.74,35.69 -10.83,6.41 -21.22,16.11 -34.71,15.25 -26.68,0.17 -55.42,-0.9 -77.89,-17.19 23.54,-12.56 33.1,-38.54 42.66,-61.73zm501.41 327.45c22.32,-9.97 45.2,-18.57 67.67,-28.19 -0.9,12.28 -2.35,24.77 -8.01,35.92 -6.8,-2.8 -13.56,-5.63 -20.32,-8.42 3.31,3.83 6.62,7.66 10,11.49 -10.18,2.76 -21.08,5.66 -31.47,2.38 -7.04,-2.66 -12.25,-8.42 -17.87,-13.18zm-411.35 -30.27c23.92,8.08 47.97,15.77 71.57,24.78 -3.34,2.56 -6.52,5.39 -10.14,7.59 -6.49,-1.07 -12.56,-3.89 -18.77,-5.9 3.14,3.87 6.31,7.77 9.42,11.67 -13.29,2.03 -28.71,4.07 -40,-5.01 -9.14,-7.21 -7.42,-19.74 -8.28,-29.98 -0.97,-0.8 -2.83,-2.35 -3.8,-3.15zm762.85 -542.92c107.67,-0.31 215.33,-0.14 323,-0.07 -0.52,40.31 -1.86,80.58 -3.07,120.85 -8.77,0.07 -17.5,0.1 -26.23,0.17 -0.55,-22.74 -0.51,-48.17 -15.63,-66.77 -15.32,-16.56 -38.96,-21.88 -60.77,-21.43 -20.39,0.41 -40.82,-0.83 -61.15,0.59 -20.84,2.48 -38.79,20.53 -40.03,41.68 -2,32.68 -2.76,65.47 -3.86,98.21 19.91,-1.2 42.58,4.87 60.21,-7.07 19.5,-14.77 22.33,-41.06 24.82,-63.6 7.66,0.07 15.28,0.14 22.98,0.24 -2.21,57.49 -5.18,114.92 -7.42,172.37 -9.49,0.07 -18.98,0.14 -28.44,0.17 -1.89,-20.8 -2.52,-44.86 -18.77,-60.25 -15.01,-13.7 -36.92,-8.97 -55.39,-9.76 -1.76,46.93 -2.1,93.96 -5.34,140.79 -0.73,10.67 8.17,18.29 16.08,23.85 15.94,11.49 36.68,8.31 55.14,8.8 27.02,-0.35 57.67,-0.35 79.13,-19.36 23.09,-22.71 28.33,-56.49 33.75,-86.96 10.14,0.03 20.29,0.1 30.47,0.24 -1.24,46.03 -3.14,92.03 -4.9,138.07 -84.37,-0.04 -168.71,0 -253.09,-0.04 -0.17,-12.8 -4.38,-25.05 -10.25,-36.3 -7.69,-14.6 -12.11,-30.54 -16.14,-46.45 2.55,-77.95 6.03,-155.91 8.79,-233.9 0.21,-17.29 2.46,-37.23 -9.76,-51.35 -8.14,-10.42 -22.05,-12.08 -34.06,-14.91 -0.04,-9.28 -0.07,-18.53 -0.07,-27.81zm-390.91 0c47.14,-0.31 94.31,-0.17 141.45,-0.07 33.82,70.64 67.15,141.52 100.93,212.2 6.25,-6.08 15.64,-11.29 16.26,-21.02 2,-16.12 1.24,-32.4 2.03,-48.59 0.63,-31.06 3.35,-62.22 1.66,-93.24 -1.62,-18.5 -19.91,-27.23 -35.99,-30.37 -0.14,-6.28 -0.24,-12.56 -0.31,-18.84 40.99,-0.31 82.03,-0.48 123.02,0.1 -0.21,9.63 -0.34,19.29 -0.55,28.92 -11.11,3.45 -23.19,6.77 -30.78,16.19 -9.73,10.25 -12.32,24.7 -12.39,38.33 -2,65.95 -5.18,131.86 -6.8,197.84 -27.88,2.04 -56.59,0.66 -83.55,8.91 -37.33,-75.85 -74.71,-151.67 -111.63,-227.73 -6.69,-0.2 -13.42,-0.41 -20.12,-0.58 -2.76,69.43 -6.52,138.9 -7.45,208.4 -1.42,-4.22 -2.62,-8.46 -3.87,-12.67 -13.59,-0.24 -27.02,-2.59 -40.23,-5.66 3.14,-59.6 4.52,-119.26 6.52,-178.89 0.38,-12.18 -1.11,-25.16 -8.84,-35.06 -6.62,-10.01 -18.29,-14.25 -28.85,-18.57 -0.2,-6.52 -0.38,-13.08 -0.51,-19.6zm-173.62 17.12c0.24,-5.76 0.52,-11.49 0.83,-17.26 43.03,0.11 86.07,-0.31 129.06,0.28 -0.41,6.38 -0.82,12.77 -1.24,19.15 -17.22,4 -37.1,13.87 -38.54,33.85 -3.63,62.29 -4.94,124.75 -7.63,187.11 -17.29,-1.28 -34.61,-1.69 -51.9,-2 2.34,-59.56 4.52,-119.13 6.69,-178.72 0.14,-8.87 0.04,-18.6 -5.9,-25.85 -6.97,-10.56 -20.01,-13.28 -31.37,-16.56zm-841.97 9.97c0.1,-8.9 -0.1,-17.84 1.28,-26.64 62.73,-1.48 125.61,-0.1 188.41,-0.62 24.44,96.48 46.94,193.49 71.26,290.04 3.83,-0.1 7.63,-0.17 11.46,-0.27 31.26,-96.66 62.43,-193.42 94.38,-289.87 62.5,0.41 124.96,-0.21 187.45,0.34 -0.03,8.97 -0.03,17.98 -0.03,26.99 -15.91,4.52 -33.13,9.8 -43.66,23.5 -8.62,10.25 -8.87,24.19 -9.45,36.89 -2.38,69.7 -5.66,139.34 -7.77,209.05 -22.84,-13.25 -50.1,-7.8 -72.84,2.48 2.48,-70.26 5.83,-140.51 7.86,-210.81 -8.76,0.07 -17.49,0.1 -26.22,0.1 -31.85,99.08 -65.4,197.63 -96.76,296.88 -1.07,3.42 -2.08,6.9 -3.18,10.35 -2.28,5.39 -4.62,10.7 -7,16.05 -25.09,0.03 -50.18,0 -75.27,0.03 -27.02,-109.21 -53.49,-218.57 -80.23,-327.86 -9.08,0 -18.12,0 -27.19,0 -3.42,78.23 -6.32,156.5 -9.46,234.73 -0.31,17.84 -1.03,38.58 12.8,52.07 9.12,10.28 23.33,12.42 36.1,15.01 0.03,8.66 0,17.36 -0.1,26.05 -54.84,-0.06 -109.64,0 -164.47,-0.03 0.07,-8.7 0.1,-17.39 0.21,-26.09 14.04,-4.86 28.91,-10.66 37.96,-23.15 7.69,-9.25 9.62,-21.57 10.17,-33.23 3.56,-66.85 9.7,-133.62 8.46,-200.6 -0.76,-22.85 1.76,-45.9 -1.24,-68.61 -5.04,-19.39 -25.16,-28.4 -42.93,-32.78zm691.59 36.41l0 0c-13.26,32.64 -27.47,64.91 -40.17,97.79 21.46,0.11 42.96,0.11 64.42,-0.03 -7.97,-32.61 -15.59,-65.32 -24.25,-97.76z"/>
   <path class="fil4" d="M1012.3 385.28c17.08,-0.59 34.06,2.14 51.04,3.48 48.35,4.94 96.76,9.18 145.07,14.49 3.7,6.94 9.29,12.5 16.43,15.88 17.25,8.76 31.02,23.02 48.86,30.68 5.63,1.93 9.53,6.31 13.01,10.9 5.42,7.11 14.7,8.84 22.3,12.7 17.04,8.15 34.33,15.91 50.55,25.64 9.91,5.11 11.08,17.15 14.36,26.57 3.79,14.36 13.49,26.85 14.15,42.03 -0.31,15.19 -9.39,28.06 -15.08,41.62 13.35,-1.83 26.6,-4.28 39.89,-6.69 -7.49,17.84 -16.29,35.09 -24.26,52.73 13.59,-3.83 26.91,-8.49 40.44,-12.6 -9.66,20.6 -20.15,40.75 -30.33,61.08 17.53,0.07 35.06,-0.17 52.56,0.45 -13.98,11.46 -29.13,21.33 -43.9,31.68 19.84,-1.83 39.65,-3.83 59.49,-5.83 -14.9,16.15 -29.6,32.57 -45.96,47.27 -4.69,4.52 -9.91,8.84 -12.91,14.77 -1.1,6.11 -0.24,12.32 0.21,18.5 3.79,28.12 7.83,56.25 10.97,84.48 -8.56,3.21 -20.46,6.28 -21.26,17.32 -0.17,14.94 3.46,29.68 4.22,44.62 -26.06,10.25 -19.26,43.13 -22.06,65.22 -12.28,3.21 -21.01,13.15 -24.5,25.12 -6.17,16.12 -8.18,33.44 -10.42,50.49 -8.56,2.76 -19.53,5.11 -22.64,14.87 -5.28,16.12 -6.28,33.23 -9.52,49.8 -4.52,0.86 -10.25,0.07 -13.15,4.48 -13.01,16.53 -20.15,36.76 -28.09,56.04 -4.38,-2 -8.76,-4 -13.11,-6 -17.29,14.7 -19.4,39.13 -21.05,60.25 -7.04,-1.52 -15.67,-7.42 -21.64,-0.65 -18.98,19.87 -26.4,47.52 -42.58,69.39 0.34,-6.21 0.65,-12.38 0.93,-18.56 10.87,-46.69 24.19,-92.73 36.75,-138.97 11.46,-40.82 22.23,-81.89 36.51,-121.81 3.25,-12.05 13.87,-19.02 23.6,-25.57 12.57,-8.25 22.4,-19.85 30.86,-32.17 -14.36,-4.07 -29.27,-5.62 -44.17,-5.31 -0.21,-33.75 -0.18,-67.53 0.06,-101.28 0.11,-10.29 -1,-20.88 -6.07,-30.03 -19.29,-35.47 -48.1,-65.22 -81.72,-87.41 5.6,-7.72 9.73,-18.49 19.88,-21.12 13.32,-0.34 25.09,8.63 38.41,8.39 15.18,-1.9 29.54,-8.28 45,-8.73 8.18,-1.38 20.6,0.48 24.22,-9.18 5.32,-22.12 5.11,-45.14 9.29,-67.43 6.07,-13.6 22.98,-13.97 35.75,-14.77 13.11,21.05 17.18,48.14 6.35,71.05 -6.39,16.74 -20.36,28.27 -32.75,40.41 -8.46,4.97 1.03,17.57 8.63,12.32 23.12,-13.59 43.27,-35.51 48.89,-62.46 3.7,-17.32 5.25,-36.58 -3.21,-52.8 -5.59,-10.69 -13.25,-20.11 -20.39,-29.78 4.69,-4.03 9.39,-8.14 14.22,-12.07 4.17,-3.08 8.28,-6.18 12.46,-9.29 -14.84,0.69 -29.65,1.8 -44.35,4.01 -32.26,3.65 -65.46,-2.59 -97.14,5.86 -36.41,11.67 -55.28,47.73 -82.2,72.09 -22.43,-7.45 -44.65,-15.56 -67.29,-22.39 -13.05,-4.56 -26.02,-10.84 -40.2,-10.05 -18.88,0.56 -38.55,-2.38 -56.6,4.66 -25.19,8.84 -50.45,17.46 -75.68,26.26 -30.54,-26.88 -61.25,-53.49 -91.86,-80.26 -32.54,0.31 -65.11,-0.8 -97.66,0.89 -1.62,-0.34 -4.9,-0.96 -6.52,-1.31 -19.53,-17.39 -36.3,-37.58 -55.28,-55.52 6.94,-19.09 10.39,-40 22.22,-56.87 8.91,-12.98 26.3,-13.43 40.38,-11.7 5.9,4.9 7.9,12.7 11.32,19.32 -13.22,2.59 -34.03,-1.51 -39.48,14.57 -4,10.66 -9.42,20.77 -12.73,31.67 1.27,9.18 11.69,11.6 18.11,16.36 10.15,5.45 15.7,16.43 25.37,22.4 16.84,3.41 34.26,1.21 51.31,0.69 20.26,-0.07 40.51,-0.83 60.77,0.03 9.9,7.59 17.01,18.19 26.81,25.95 15.43,12.5 31.92,23.68 46.38,37.38 58.67,-30.82 132.34,-44.38 193.91,-13.77 5.93,-8.56 11.83,-17.15 17.77,-25.71 -40.07,-16.84 -81.2,-30.85 -121.65,-46.76 40.66,-18.95 86.17,-23.26 127.38,-40.58 -38.48,-1.04 -76.96,0.69 -115.43,1.55 32.92,-12.77 65.94,-25.29 98.9,-37.96 -32.68,-12.08 -66.36,-21.29 -99.97,-30.26 49.41,-11.01 99,-21.29 148.14,-33.37 -47.9,-21.3 -98.04,-37.24 -145.56,-59.46l-3.76 -1.93zm-144.35 450.57c20.64,-19.01 37.96,-46.1 67.23,-51.9 22.77,-2 28.15,24.54 40.65,37.89 12.32,15.84 30.23,26.58 41.41,43.28 3.1,12.94 1.14,26.47 1.51,39.65 -24.05,-0.49 -48.89,0.31 -71.32,9.97 -36.24,14.94 -62.84,44.97 -90.18,71.85 1.28,-13.25 0,-27.23 5.01,-39.79 7.76,-14.77 25.29,-20.6 33.68,-35.03 -13.7,6.8 -26.37,15.43 -39.79,22.74 10.22,-17.04 24.5,-30.92 38.34,-44.96 -15.67,0.97 -28.78,9.49 -41.31,18.01 11.22,-21.25 31.79,-34.13 51.73,-46.1 -17.7,-0.97 -34.2,5.52 -49.62,13.35 14.15,-14.04 31.85,-23.29 49.79,-31.47 -5.93,-3.34 -11.38,-8.04 -18.18,-9.38 -7.32,-0.07 -14.25,2.69 -21.19,4.52l2.24 -2.63zm236.66 -46.93c6.46,-8.14 18.29,-7.83 26.95,-3.76 21.36,9.53 39.38,24.99 56.8,40.27 6.46,5.42 11.22,12.39 15.46,19.6 -16.66,-6.9 -35.23,-11.42 -52.48,-3.62 16.98,8.18 34.47,16.22 47.89,29.89 -15.04,-5.29 -30.29,-10.6 -46.41,-11.01 19.74,12.04 39.89,25.12 51.04,46.2 -12.29,-8.49 -25.47,-16.28 -40.76,-17.42 13.39,12.83 27.54,25.39 36.2,42.17 -12.94,-6.53 -25.19,-14.26 -38.3,-20.43 8.32,10.28 19.81,17.18 28.78,26.78 10.11,13.56 7.66,31.71 9.66,47.58 -26.95,-26.98 -53.59,-56.52 -89.41,-71.77 -22.71,-9.91 -47.9,-10.6 -72.26,-10.49 -0.03,-12.81 -0.03,-25.61 -0.03,-38.41 14.14,-14.22 29.81,-26.75 44.75,-40.1 10.73,-9.56 13.63,-24.33 22.12,-35.48zm407.03 -300.29c8.42,-6.01 15.67,-16.32 27.23,-15.22 12.08,0.59 16.15,13.42 20.12,22.67 5.66,16.05 18.05,29.75 18.8,47.31 1.04,21.47 -9.59,41.1 -11.21,62.22 -1.69,17.71 -1.18,36.34 -9.73,52.53 -8.08,17.53 -26.92,25.77 -38.17,40.75 -11.91,15.32 -22.4,32.85 -40.55,41.58 10.29,-28.16 22.4,-55.62 33.1,-83.61 -15.15,4.97 -28.89,13.01 -42.41,21.19 16.35,-28.85 34.23,-56.8 50.96,-85.41 -10.76,6.55 -21.25,13.46 -31.85,20.18 7.94,-16.11 16.77,-31.74 24.88,-47.75 -14.59,9.76 -28.84,20.05 -43.1,30.26 4.45,-12.84 8.8,-25.81 10.67,-39.34 -12.53,10.66 -21.19,25.09 -34.31,35.06 -0.93,-10.28 -0.65,-20.57 -0.72,-30.88 -15.98,8.9 -31.2,19.08 -47.28,27.77 5.56,-20.04 17.98,-37.92 35.34,-49.48 25.67,-17.22 53.04,-31.92 78.23,-49.83zm-956.37 -14.87c24.09,-2.52 48.45,-4.87 72.68,-3.11 15.18,0.07 23.43,14.53 30.71,25.68 -18.64,-0.04 -36.06,-8.42 -54.8,-7.56 -18.46,-0.93 -42.41,-3.14 -54.21,14.39 -14.46,29.99 -34.65,56.69 -51.94,85.1 43.83,23.12 89.07,43.58 132.17,68.05 -19.4,5.55 -38.13,-2.69 -57.15,-4.9 20.02,23.36 43.48,43.68 62.39,67.98 -20.56,-1.59 -37.09,-15.98 -55.97,-22.98 18.25,22.15 40.51,40.61 58.73,62.77 -9.11,1.48 -16.15,-5.18 -23.67,-8.98 -32.06,-17.94 -66.05,-32.12 -97.73,-50.76 -8.97,-5.52 -19.39,-7.93 -28.57,-12.94 -8.18,-5.69 -9.46,-16.6 -8.77,-25.74 1.59,-25.61 -9.76,-50.14 -7.17,-75.85 0,-4.76 3.07,-8.63 5.76,-12.25 15.94,-18.91 29.33,-39.79 43.89,-59.77 9.87,-13.74 13.77,-36.61 33.65,-39.13zm615.53 10.87l0 0c-2.24,5.72 -5.04,11.35 -6.32,17.39 3.77,15.32 13.15,28.88 15.29,44.69 0.52,11.38 -2.34,22.77 -0.45,34.19 1.21,10.88 3.59,23.92 -5,32.62 -11.42,12.73 -20.22,27.57 -31.92,40.1 4.9,2.89 9.77,5.86 14.63,8.86 7.8,-9.69 16.95,-18.11 25.92,-26.67 9.9,-9.35 16.84,-22.36 29.71,-28.16 11.11,-4.04 23.22,-2.62 34.75,-4.49 19.5,-3.24 38.96,-6.83 58.08,-11.87 -15.64,-7.07 -30.41,-15.84 -44.55,-25.5 -15.91,-10.9 -36.69,-13.94 -49.8,-28.92 -14.63,-16.56 -22.4,-38.48 -40.34,-52.24z"/>
   <path class="fil5" d="M1033.45 996.25c6.77,10.42 8.87,23.26 16.19,33.23 17.26,6.8 19.57,-16.98 24.61,-27.78 7.31,13.98 15.04,27.71 21.42,42.17 16.12,0.76 13.05,-20.08 17.36,-30.3 20.5,34.03 -1.17,72.99 1.73,109.26 27.57,-22.4 46.89,-52.77 63.46,-83.75 2.55,6.59 5.11,13.14 7.76,19.7 6.28,-8.8 11.25,-18.43 17.57,-27.16 -7.25,89.45 -40,174.24 -73.61,256.64 -0.76,-0.07 -2.24,-0.24 -2.97,-0.34 -4.55,-8.35 -8.52,-17.12 -15.11,-24.16 -3.76,5.42 -7.46,11.18 -7.56,18.08 -2.83,29.27 -13.39,57.22 -14.7,86.72 -2.14,-1.03 -6.38,-3.1 -8.49,-4.17l-0.97 -1.31c-3.07,-5.25 -6,-10.53 -9.04,-15.74 -6.97,8.28 -12.63,17.53 -17.04,27.4 -5.28,-9.8 -11.87,-18.74 -17.91,-28.02 -0.31,1.59 -0.93,4.8 -1.24,6.42 -0.28,0.59 -0.83,1.76 -1.11,2.34 -6.94,5.94 -10.7,14.26 -13.59,22.71 -3.11,-3.97 -6.25,-7.87 -9.32,-11.83 -3.7,-4.87 -7.49,-9.67 -11.29,-14.43 -3.14,3.9 -6.28,7.83 -9.35,11.77 -1.59,1.9 -4.8,5.73 -6.42,7.62 -2.69,-18.28 -6.42,-36.4 -9.97,-54.52 -3.62,-17.56 -2.42,-36.61 -11.94,-52.45 -13.22,6.86 -13.6,24.5 -18.53,36.96 -6.7,-12.46 -8.21,-26.78 -13.22,-39.86 -8.39,-25.43 -21.15,-49 -33.02,-72.88 -10.53,-20.26 -6.52,-44 -13.01,-65.36 -5.97,-26.26 -18.74,-52.18 -15.88,-79.65 5.21,8.11 10.01,16.46 14.88,24.81 2.41,-6.73 4.79,-13.45 7.28,-20.15 11.7,10.32 17.39,25.16 26.81,37.27 10.49,13.91 22.29,26.85 35.23,38.58 1.25,-24.95 -9.31,-48.52 -8.9,-73.37 0.1,-13.45 4.76,-26.22 10.04,-38.4 4.32,12.08 3.9,27.43 15.88,35.16 9.21,-13.46 16.46,-28.05 23.46,-42.72 4.14,7.14 7.15,14.84 10.77,22.22 3.07,6.28 12.18,7.7 16.63,2.07 7.7,-9.21 8.87,-21.91 13.11,-32.78zm-57.69 -32.99c17.36,-5.38 34.13,-13.8 52.59,-14.63 19.81,-1.28 38.16,7.59 56.9,12.56 -10.49,12.08 -23.12,-2.83 -35.71,-0.52l-3.94 3.63 -0.14 0.13c-8.52,7.94 -19.11,1.76 -27.67,-2.45 -6.7,-3.76 -13.87,1.59 -18.53,6.18l-1.69 1.38c-7.39,-1.79 -14.67,-3.83 -21.81,-6.28zm-4.18 131.69l0 0c9.56,10.11 21.22,17.66 32.61,25.5 6.63,4.21 5.83,13.18 6.84,19.98 0.89,22.26 7.72,43.62 10.48,65.6 2.15,14.7 3.94,31.19 16.47,41.1 16.32,-34.41 22.43,-72.68 24.95,-110.36 0.55,-6.07 1.72,-13.15 7.73,-16.22 11.59,-7.56 22.84,-15.77 32.3,-26.02 -19.74,5.21 -39.17,11.53 -58.91,16.7 -6.28,1.8 -12.84,0.87 -18.95,-1.03 -17.8,-5.21 -35.44,-11.01 -53.52,-15.25z"/>
  </g>
 </g>
</svg>
