<?xml version="1.0" encoding="UTF-8"?>
<!DOCTYPE svg PUBLIC "-//W3C//DTD SVG 1.1//EN" "http://www.w3.org/Graphics/SVG/1.1/DTD/svg11.dtd">
<!-- Creator: CorelDRAW -->
<svg xmlns="http://www.w3.org/2000/svg" xml:space="preserve" width="2000px" height="1600px" version="1.1" style="shape-rendering:geometricPrecision; text-rendering:geometricPrecision; image-rendering:optimizeQuality; fill-rule:evenodd; clip-rule:evenodd"
viewBox="0 0 2000 1600"
 xmlns:xlink="http://www.w3.org/1999/xlink">
 <defs>
  <style type="text/css">
   <![CDATA[
    .fil2 {fill:#003571;fill-rule:nonzero}
    .fil1 {fill:#F8C730;fill-rule:nonzero}
    .fil0 {fill:#FEFEFE;fill-rule:nonzero}
   ]]>
  </style>
 </defs>
 <g id="Capa_x0020_1">
  <metadata id="CorelCorpID_0Corel-Layer"/>
  <g id="Marquette_x0020_Golden_x0020_Eagles.cdr">
   <path class="fil0" d="M498.53 235.53c85.22,0.71 170.47,0.26 255.72,0.39l-0.52 1.04c-3.92,7.76 -7.83,15.55 -11.69,23.36 42.86,44.54 85.53,89.26 128.41,133.76 -0.02,-11.41 0.18,-22.82 -0.21,-34.21 36.65,-41.5 74.05,-82.32 111.09,-123.45 89.5,0.45 179.04,-0.84 268.5,1.12 -0.8,0.32 -2.42,1.01 -3.24,1.34 -15.36,7.31 -31.32,13.74 -46.1,22.13 -6.49,10.78 -14.64,21.22 -18.76,33.09 -0.18,122.5 -0.2,245.02 0.02,367.53 -48.19,-1.99 -96.4,-5.05 -144.66,-5.07 -0.39,-84.71 0.67,-169.42 0.58,-254.13 8.65,-23.95 17.61,-47.8 25.97,-71.86 -63.74,68.39 -126.73,137.48 -190.4,205.92 -0.22,14.76 -0.02,29.51 -0.11,44.29l0 1.49c-55.5,-59.6 -110.75,-119.44 -166.16,-179.13 -8.74,-23.15 -17.13,-46.42 -25.56,-69.7 -0.52,113.55 -0.13,227.08 -0.2,340.61 -47.54,6.21 -95.15,12.38 -142.39,20.73 0.09,-130.7 -0.28,-261.4 0.19,-392.08 9.26,-3.47 18.38,-7.29 27.51,-11.08 -5.5,-9.36 -11,-18.75 -16.63,-28.02 -1.47,-2.81 -4.25,-4.36 -6.95,-5.74 -14.78,-7.51 -30.05,-14.02 -44.41,-22.33zm35.95 736.16c48.65,-9.49 97.48,-18.27 146.75,-23.79 0.95,11.41 -3.28,24.46 4.27,34.36 5.09,8.15 9.99,16.46 14.91,24.74 -50.69,0.43 -101.43,-0.41 -152.1,0.41 -17.19,8.85 -33.48,19.59 -50.35,29.12l-1.38 0.82c12.19,-22.15 25.29,-43.77 37.9,-65.66zm257.56 -35.55c48.73,-3.75 97.55,-6.32 146.41,-7.01 -0.18,75.95 0.08,151.88 -0.13,227.83 -0.37,10.92 7.53,19.57 11.45,29.23 4.1,7.19 5.83,16.4 13.27,21.1 9.98,7.29 19.84,14.78 29.74,22.2 4.53,-7.25 8.89,-14.63 13.27,-21.98 76.28,0.53 152.53,-0.09 228.81,0.3 8.97,-7.36 18.22,-14.48 26.68,-22.42 4.74,-8.69 10.37,-17.21 13.83,-26.46 0.19,-72.16 0.06,-144.31 0.06,-216.45 46.94,5.27 93.92,11.22 140.32,20.19 -0.21,85.64 0.02,171.3 -0.11,256.94 -0.34,4.4 2.42,8.02 4.6,11.58 4.03,6.23 8,12.53 12.08,18.77 -27.03,25.62 -54.77,50.52 -81.93,76.01 -2.37,2.53 -5.54,4.1 -9.08,3.65 -151.56,-0.17 -303.14,0.13 -454.7,-0.15 -28.28,-26.38 -57.01,-52.31 -85.08,-78.91 -11.88,1.45 -23.7,3.45 -35.5,5.44l-1.19 0.19c7.94,-13.18 16.63,-25.91 24.46,-39.13 0.72,-93.29 -0.1,-186.65 0.41,-279.95 0.59,-0.24 1.75,-0.73 2.33,-0.97zm245.07 -7.25c48.21,0.18 96.49,1.81 144.55,5.63 0.19,13.72 -0.58,27.48 0.26,41.16 5.18,11.54 13.07,21.68 18.85,32.94 -49.59,0.17 -99.18,0.04 -148.77,0.06 -3.37,-0.21 -6.45,1.19 -9.3,2.81 -15.27,8.52 -30.52,17.13 -45.9,25.45 12.64,-23.01 27.24,-44.97 40.03,-67.9 0.67,-13.36 0.05,-26.77 0.28,-40.15zm213.13 -326.15c74.85,-0.15 149.68,-0.22 224.51,0.02l-1.69 0.97c-13.86,8.2 -28.53,15.12 -42.06,23.88 -4.81,7.83 -7.61,16.69 -11.84,24.85 -5.93,10.61 -2.83,23.1 -3.41,34.64 -36.71,-4.87 -73.34,-10.42 -110.21,-14.1l-0.21 -0.7c-4.85,-16.35 -9.34,-32.81 -14.37,-49.09 -13.5,-6.97 -27.63,-12.73 -40.72,-20.47zm-491.8 0.06c78.71,-0.26 157.44,-0.34 236.16,0.04l-1.45 0.85c-10.57,6.3 -21.66,11.67 -32.36,17.75 -3.45,1.62 -4.59,5.5 -6.25,8.61 -3.95,8.75 -8.13,17.4 -12.04,26.18 -3.66,0.76 -7.4,0.95 -11.11,0.89 -38.48,0.52 -76.9,3.04 -115.32,4.77 -4.01,-8.96 -7.87,-18 -12.1,-26.84 -1.36,-3.47 -4.61,-5.46 -7.57,-7.42 -12.1,-7.7 -24.01,-15.73 -36.04,-23.56 -0.5,-0.32 -1.45,-0.94 -1.92,-1.27z"/>
   <path class="fil1" d="M675.06 1133.62c11.37,-5.09 25,7.14 20.99,18.97 -2.59,11.13 -18.38,15.61 -26.14,7.05 -8.48,-7.27 -5.29,-22.41 5.15,-26.02zm1.28 7.53c2.69,0.5 6.71,-0.41 7.91,2.92 -0.6,3.77 -5.32,2.07 -7.91,2.93 -0.03,-1.97 -0.03,-3.91 0,-5.85zm739.41 -178.48c9.04,2.16 18.25,3.5 27.38,5.27 0.23,83.11 -0.26,166.27 0.23,249.4 7.44,13.2 16.27,25.65 24.12,38.66 -36.82,34.12 -73.75,68.14 -110.62,102.2 -160.27,-0.17 -320.54,0.13 -480.82,-0.15 -36.45,-34.26 -73.69,-67.67 -110.01,-102.05 11.8,-1.99 23.62,-3.99 35.5,-5.44 28.07,26.6 56.8,52.53 85.08,78.91 151.56,0.28 303.14,-0.02 454.7,0.15 3.54,0.45 6.71,-1.12 9.08,-3.65 27.16,-25.49 54.9,-50.39 81.93,-76.01 -4.08,-6.24 -8.05,-12.54 -12.08,-18.77 -2.18,-3.56 -4.94,-7.18 -4.6,-11.58 0.13,-85.64 -0.1,-171.3 0.11,-256.94zm-734.52 -14.77c8.29,-0.56 16.5,-1.84 24.77,-2.74 0.43,6.71 -1.08,13.76 0.73,20.3 13.16,23.83 26.73,47.45 39.99,71.25 -82.92,-0.05 -165.84,0.28 -248.76,-0.18 16.87,-9.53 33.16,-20.27 50.35,-29.12 50.67,-0.82 101.41,0.02 152.1,-0.41 -4.92,-8.28 -9.82,-16.59 -14.91,-24.74 -7.55,-9.9 -3.32,-22.95 -4.27,-34.36zm500.43 -13.38c9.13,1.25 18.34,1.36 27.48,2.33 0.07,10.14 -0.23,20.28 0.07,30.42 0.04,2.93 2.13,5.33 3.36,7.89 11.65,20.5 23.15,41.07 34.71,61.59 -83.5,0.11 -167,-0.24 -250.48,0.19 15.38,-8.32 30.63,-16.93 45.9,-25.45 2.85,-1.62 5.93,-3.02 9.3,-2.81 49.59,-0.02 99.18,0.11 148.77,-0.06 -5.78,-11.26 -13.67,-21.4 -18.85,-32.94 -0.84,-13.68 -0.07,-27.44 -0.26,-41.16zm-243.21 -5.39c9.14,0.58 18.31,0.19 27.46,0.32 0.43,75.2 -0.63,150.42 -0.39,225.59 4.08,10.57 9.75,20.61 14.95,30.7 7.98,7.83 17.13,14.43 25.58,21.77 -4.38,7.35 -8.74,14.73 -13.27,21.98 -9.9,-7.42 -19.76,-14.91 -29.74,-22.2 -7.44,-4.7 -9.17,-13.91 -13.27,-21.1 -3.92,-9.66 -11.82,-18.31 -11.45,-29.23 0.21,-75.95 -0.05,-151.88 0.13,-227.83zm-398.06 -123.19c0.37,-0.09 1.1,-0.24 1.47,-0.33 8.89,10.77 17.52,21.79 26.3,32.64 -13.59,2.74 -27.2,5.39 -40.82,7.92 4.53,-13.36 8.37,-26.94 13.05,-40.23zm135.3 -24.38c19.18,-2.13 38.27,-5.3 57.53,-6.6 5.26,5.05 4.23,13.03 5.07,19.67 0.97,5.37 -5.33,6.76 -9.3,7.21 -16.67,2.05 -33.37,4.14 -50.06,6.1 -1.08,-8.8 -2.1,-17.6 -3.24,-26.38zm171.12 -15.85c24.72,-1.34 49.49,-2.33 74.19,-4.04 1.46,20.45 2.15,40.95 3.43,61.42 -6.69,0.28 -13.38,0.6 -20.04,1.23 -5.22,-9.04 -9.93,-18.36 -15.1,-27.4 -5.61,2.61 -11.22,5.22 -16.83,7.79 3.49,6.81 6.9,13.65 10.31,20.51 -10.89,0.67 -21.81,1.08 -32.7,1.84 -1.01,-20.45 -2.01,-40.9 -3.26,-61.35zm584.19 -138.1c13.53,-8.76 28.2,-15.68 42.06,-23.88 -8.93,20.15 -18.14,40.19 -27.33,60.23 -4.66,8.3 -1.83,18.16 -2.56,27.2 -9.15,-1.43 -18.23,-3.22 -27.42,-4.06 0.58,-11.54 -2.52,-24.03 3.41,-34.64 4.23,-8.16 7.03,-17.02 11.84,-24.85zm-470.21 -6.17c10.7,-6.08 21.79,-11.45 32.36,-17.75 -6.92,17.58 -14.75,34.75 -21.87,52.24 -9.6,0.26 -19.2,-0.17 -28.78,0.3 3.91,-8.78 8.09,-17.43 12.04,-26.18 1.66,-3.11 2.8,-6.99 6.25,-8.61zm-200.43 -17.37c12.03,7.83 23.94,15.86 36.04,23.56 2.96,1.96 6.21,3.95 7.57,7.42 4.23,8.84 8.09,17.88 12.1,26.84 -9.62,0.1 -19.19,1.25 -28.79,1.7 -8.91,-19.87 -18.25,-39.54 -26.92,-59.52zm489.57 -1.53l0.31 0.2c13.09,7.74 27.22,13.5 40.72,20.47 5.03,16.28 9.52,32.74 14.37,49.09 -9.73,-1.07 -19.46,-2.2 -29.23,-2.97 -8.82,-22.22 -16.83,-44.78 -26.17,-66.79zm-568.52 -269.1c8.43,23.28 16.82,46.55 25.56,69.7 0.54,89.26 -1,178.5 -0.39,267.76 -8.46,1.15 -16.98,1.64 -25.37,3.15 0.07,-113.53 -0.32,-227.06 0.2,-340.61zm191.83 203.05c63.67,-68.44 126.66,-137.53 190.4,-205.92 -8.36,24.06 -17.32,47.91 -25.97,71.86 -54.89,59.41 -109.75,118.83 -164.54,178.35 0.09,-14.78 -0.11,-29.53 0.11,-44.29zm327.25 -275.48c14.78,-8.39 30.74,-14.82 46.1,-22.13 -11.09,22.02 -25.52,42.28 -37.23,63.95 -0.54,120.13 -0.09,240.28 -0.24,360.41 -9.15,-0.32 -18.25,-1.31 -27.37,-1.61 -0.22,-122.51 -0.2,-245.03 -0.02,-367.53 4.12,-11.87 12.27,-22.31 18.76,-33.09zm-458.45 -0.69c3.86,-7.81 7.77,-15.6 11.69,-23.36 38.83,40.96 77.59,82.01 116.51,122.91 0.39,11.39 0.19,22.8 0.21,34.21 -42.88,-44.5 -85.55,-89.22 -128.41,-133.76zm-243.51 -24.79c14.36,8.31 29.63,14.82 44.41,22.33 2.7,1.38 5.48,2.93 6.95,5.74 5.63,9.27 11.13,18.66 16.63,28.02 -9.13,3.79 -18.25,7.61 -27.51,11.08 -13.37,-22.45 -26.25,-45.25 -40.48,-67.17zm-196.88 -103.71c103.49,0.02 206.99,0.02 310.49,0 63.18,1.12 126.38,0.32 189.57,0.56 22.54,23.17 44.33,47.07 66.91,70.17 21.21,-23.12 41.85,-46.74 63.2,-69.74 50.2,0.58 100.35,-0.86 150.55,-0.43 53.24,0.41 106.43,-0.65 159.65,-0.54 68.36,0.45 136.67,-0.93 205.03,-0.47 -41.61,69.61 -83.33,139.15 -124.98,208.74 -1.99,3.02 -1.17,6.82 -1.38,10.2 0.06,47.91 0.17,95.8 -0.05,143.69 107.62,0.54 215.24,0.06 322.88,0.24 -27.63,62.72 -55.42,125.39 -82.98,188.16 86.73,18.72 172.89,41.29 256.07,72.46 28,10.98 55.46,23.31 83.39,34.55 -46.18,117.57 -93.19,234.83 -139.78,352.22 -32.85,-26.21 -65.64,-52.49 -98.45,-78.74 -4.55,-3.51 -8.69,-7.85 -14.28,-9.66 -30.11,-10.94 -60.87,-20.02 -91.7,-28.67 -0.86,52.55 -0.47,105.2 -0.22,157.77 18.49,30.8 38.4,60.81 57.43,91.33 -70.24,65.08 -140.71,129.93 -211.01,194.96 -190.04,0.15 -380.08,0.13 -570.15,0 -70.08,-65.18 -140.77,-129.72 -210.75,-195.02 18.49,-29.51 37.23,-58.85 55.81,-88.31 -18.14,-0.69 -33.68,-16.35 -33.68,-34.6 -113.8,-0.39 -227.61,0.02 -341.4,-0.2 20.12,-33.5 40.1,-67.04 60.14,-100.58 -5.93,2.2 -12.38,3.68 -17.34,7.85 -34.91,28 -69.85,56 -104.86,83.87 -46.47,-117.35 -93.23,-234.57 -139.76,-351.87 18.18,-8 36.63,-15.42 54.92,-23.23 41.33,-17.91 84.3,-31.67 127.42,-44.59 47.97,-14.15 96.51,-26.3 145.35,-37.02 0.08,-111.54 -0.07,-223.06 0.08,-334.59 -0.23,-3.4 0.52,-7.2 -1.46,-10.22 -41.55,-69.44 -83.16,-138.83 -124.66,-208.29zm61.02 34.6l0 0c32.51,54.4 65.12,108.76 97.67,163.14 2.96,4.16 1.62,9.47 1.92,14.22 -0.1,121.59 0,243.21 -0.06,364.81 -84.69,17.49 -168.69,39.08 -250.25,67.99 -24.76,8.58 -48.6,19.52 -72.84,29.4 37.68,95.58 76.04,190.91 113.63,286.51 25.95,-20.58 51.75,-41.31 77.6,-62.04 2.43,-2.03 5.37,-3.28 8.3,-4.36 31.52,-11.56 63.64,-21.38 96.01,-30.13 -23.77,40.1 -48.01,79.9 -71.74,120.02 116.7,0.13 233.4,-0.02 350.1,0.06 -0.02,23.75 -0.09,47.5 0.04,71.25 -0.26,2.91 0.52,6.24 -1.23,8.85 -15.29,24.39 -30.98,48.58 -46.14,73.08 59.97,55.31 119.85,110.72 179.82,166.03 180.94,0.07 361.85,-0.04 542.77,0.07 60.12,-55.31 120.13,-110.73 180.01,-166.27 -15.14,-23.86 -30.18,-47.8 -45.39,-71.62 -1.81,-2.31 -2.35,-5.18 -2.11,-8.02 0.17,-68.25 -0.13,-136.5 0.15,-204.76 46.98,11.35 93.66,24.29 139.09,40.95 3.6,1.29 7.27,2.74 10.27,5.24 25.58,20.53 51.21,41.05 76.88,61.5 38.09,-95.37 75.87,-190.86 113.85,-286.27 -25.13,-10.49 -50.04,-21.62 -75.8,-30.5 -86.15,-30.27 -174.94,-52.49 -264.42,-70.41 0.41,-7.38 -1.42,-15.3 2.09,-22.14 22.65,-51.03 45.09,-102.18 67.69,-153.21 -101.44,0.04 -202.87,0.02 -304.32,0.02 -0.07,-64.2 0.04,-128.37 -0.07,-192.57 -0.3,-2.8 0.31,-5.37 1.84,-7.7 32.59,-54.4 65.25,-108.76 97.69,-163.25 -55.11,0.09 -110.22,0.04 -165.34,0.02 -33.07,1.12 -66.16,0.33 -99.23,0.56 -58,-0.41 -115.98,1.02 -173.97,0.46 -26.25,28.64 -51.96,57.76 -78.24,86.39 -27.17,-29.14 -54.66,-58.03 -82.18,-86.83 -78.37,-0.3 -156.71,0.57 -235.06,-0.56 -63.01,0.05 -126.02,-0.08 -189.03,0.07zm310.41 963.06l0 0c-15.9,5.24 -16.8,30.5 -1.53,37.08 12.81,7.23 30.39,-3.62 29.61,-18.31 0.65,-13.98 -15.44,-24.61 -28.08,-18.77zm-194.62 -374.93c155.36,-31.29 313.65,-47.32 472.04,-50.23 209.46,-3.48 419.71,15.51 624.19,61.71 75.84,17.52 151.25,38.01 223.88,66.22 -24.09,60.49 -48.1,121.02 -72.13,181.53 -12.3,-9.26 -23.62,-19.94 -36.46,-28.39 -38.91,-15.53 -79.25,-27.25 -119.67,-38.16 -192.74,-50.18 -392.75,-68.04 -591.52,-66.33 -174.99,0.77 -350.54,17.94 -520.84,59.19 -49.83,12.38 -99.42,26.29 -147.29,45.02 -13.09,8.45 -24.54,19.28 -36.95,28.73 -24.09,-60.57 -48.23,-121.12 -72.18,-181.74 89.68,-34.36 183.01,-58.17 276.93,-77.55zm529.1 -11.26l0 0c-1.21,23.5 -1.64,47.03 -2.65,70.52 -0.24,6.97 -0.89,14.54 2.69,20.84 3.95,6.19 11.95,6.97 18.6,7.4 18.7,0.84 37.42,1.25 56.13,2.03 7.57,0.04 15.42,1.01 22.78,-1.21 7.72,-2.51 9.94,-11.24 10.18,-18.45 1.08,-25.73 1.7,-51.46 2.82,-77.2 -7.72,-0.67 -15.49,-0.58 -23.21,-1.1 -1.18,26.43 -1.83,52.87 -2.91,79.32 -21.4,-0.78 -42.78,-1.32 -64.15,-2.33 0.95,-26.43 2.18,-52.85 2.59,-79.28 -7.64,0.05 -15.26,-0.54 -22.87,-0.54zm-160.53 4.43l0 0c-6.6,0.45 -14.2,0.86 -19.05,5.99 -4.36,4.55 -3.95,11.33 -3.97,17.17 0.5,16.57 1.73,33.09 2.44,49.66 0.39,6.3 0.52,13.05 3.84,18.66 4.1,6.32 12.38,6.9 19.2,6.69 14.21,-0.59 28.43,-1.49 42.64,-2.12 3.89,8.11 8.07,16.09 11.98,24.23 7.76,-0.02 15.51,-0.5 23.27,-0.84 -3.82,-8.48 -8.8,-16.33 -13.22,-24.51 9.3,-1.01 19.63,0.3 27.78,-5.18 5.52,-4.53 5.83,-12.49 5.57,-19.09 -1.02,-17.25 -1.9,-34.51 -2.74,-51.79 -0.61,-6.34 -0.8,-13.61 -5.57,-18.44 -5.63,-4.94 -13.67,-4.36 -20.64,-4.19 -23.84,1.32 -47.67,2.53 -71.53,3.76zm336.74 0.41l0 0c-3.36,32.61 -7.09,65.23 -10.15,97.86 33.6,3.3 67.15,7.04 100.73,10.47 0.69,-6.28 1.36,-12.54 1.9,-18.83 -25.84,-2.7 -51.68,-5.44 -77.55,-8.14 0.74,-7.87 1.6,-15.74 2.4,-23.6 14.95,1.73 29.94,3.26 44.93,4.75 0.5,-5.72 1.06,-11.41 1.47,-17.13 -14.84,-1.59 -29.71,-3.02 -44.53,-4.76 0.63,-7.02 1.38,-13.98 2.12,-20.97 25.54,2.72 51.1,5.22 76.62,8.17 0.8,-5.73 1.4,-11.47 2.03,-17.23 -33.31,-3.58 -66.66,-6.97 -99.97,-10.59zm-532.93 18.87l0 0c3.92,32.49 7.94,64.97 11.97,97.46 7.59,-0.82 15.19,-1.79 22.8,-2.63 -1.55,-12.28 -3.13,-24.53 -4.55,-36.82 7.05,-0.5 14.07,-2.2 21.16,-2.05 14.63,10.16 28.82,21.01 43.27,31.45 11.13,-1.49 22.31,-2.65 33.46,-4.17 -16.48,-10.41 -32.92,-20.86 -49.4,-31.23 9.23,-1.32 19.87,-0.65 27.44,-6.99 5.7,-4.85 4.79,-12.99 3.97,-19.61 -1.36,-8.8 -1.51,-17.84 -4.03,-26.4 -2.81,-7.94 -12.17,-10.66 -19.81,-9.51 -28.77,3.32 -57.5,7.07 -86.28,10.5zm672.8 -4.74l0 0c-1.1,5.93 -2.03,11.86 -2.85,17.81 14.72,2.31 29.43,4.68 44.16,6.97 -3.97,26.43 -8.33,52.81 -12.47,79.21 7.66,1.36 15.36,2.46 23.02,3.8 4.25,-26.43 8.33,-52.87 12.62,-79.3 14.84,2.25 29.64,4.79 44.5,6.99 0.95,-5.98 2,-11.95 2.37,-17.99 -37.16,-5.54 -74.25,-11.69 -111.35,-17.49zm-796.9 24.42l0 0c-11.86,35.63 -24.05,71.18 -35.66,106.92 7.66,-1.42 15.32,-2.87 22.96,-4.48 2.28,-7.71 4.72,-15.34 6.94,-23.04 20.15,-3.91 40.27,-7.94 60.44,-11.69 5.16,6.23 10.38,12.4 15.51,18.66 8.67,-1.69 17.35,-3.31 26,-5.05 -24.79,-28.52 -49.45,-57.17 -74.19,-85.73 -7.33,1.49 -14.69,2.83 -22,4.41zm933.71 -1.73l0 0c-1.02,5.8 -2.25,11.54 -3.58,17.28 14.53,3.64 29.31,6.32 43.94,9.62 -5.59,26.16 -11.18,52.33 -16.7,78.52 7.64,1.51 15.23,3.23 22.87,4.72 5.5,-26.12 11.13,-52.22 16.61,-78.35 14.62,3 29.29,6 43.85,9.39 1.55,-5.89 2.78,-11.87 3.99,-17.82 -37.04,-7.59 -73.92,-15.94 -110.98,-23.36zm-1050.88 26.88l0 0c-9.47,22.73 -18.75,45.55 -28.11,68.33 -19.63,-14.99 -39.5,-29.64 -59,-44.78 -6.32,1.32 -12.51,3.02 -18.72,4.7 8.54,31.65 16.89,63.34 25.5,94.98 6.12,-1.64 12.25,-3.28 18.35,-4.92 -6.12,-21.96 -11.47,-44.15 -18.01,-66 14.76,13.22 30.98,24.67 46.34,37.18 4.05,2.89 7.93,8.25 13.56,5.64 8.05,-22.16 18.47,-43.43 25.5,-65.93 4.6,22.42 11.41,44.33 17.24,66.46 6.94,-1.89 13.89,-3.77 20.86,-5.6 -8.72,-31.63 -16.72,-63.47 -25.72,-95 -5.91,1.68 -11.86,3.3 -17.79,4.94zm1201.74 7.8l0 0c-8.84,31.54 -18.07,62.95 -27,94.46 32.57,9.15 65.03,18.75 97.63,27.9 1.75,-6.09 3.49,-12.17 5.2,-18.28 -25.07,-7.16 -50.13,-14.3 -75.18,-21.57 2.29,-7.5 4.32,-15.12 6.71,-22.6 14.39,4.16 28.73,8.48 43.21,12.38 1.51,-5.57 3.08,-11.13 4.7,-16.65 -14.47,-4.06 -28.93,-8.22 -43.36,-12.39 1.99,-6.73 3.99,-13.48 5.93,-20.23 24.75,7.05 49.47,14.22 74.23,21.25 1.55,-5.59 3.11,-11.13 4.68,-16.7 -32.29,-9.06 -64.43,-18.61 -96.75,-27.57zm-939.83 317.92l0 0c-0.04,7.2 -0.04,14.41 0,21.61 1.19,0 3.58,0 4.79,0 0.04,-3.12 0.11,-6.23 0.2,-9.31 4.2,1.42 6.14,5.26 7.76,9.06 1.62,0.08 4.86,0.21 6.49,0.3 -1.79,-3.04 -3.58,-6.04 -5.41,-9.02 2.37,-2.09 4.83,-4.57 3.97,-8.05 -2.68,-7.33 -11.99,-3.71 -17.8,-4.59z"/>
   <path class="fil2" d="M671.48 1137.55c5.81,0.88 15.12,-2.74 17.8,4.59 0.86,3.48 -1.6,5.96 -3.97,8.05 1.83,2.98 3.62,5.98 5.41,9.02 -1.63,-0.09 -4.87,-0.22 -6.49,-0.3 -1.62,-3.8 -3.56,-7.64 -7.76,-9.06 -0.09,3.08 -0.16,6.19 -0.2,9.31 -1.21,0 -3.6,0 -4.79,0 -0.04,-7.2 -0.04,-14.41 0,-21.61zm939.83 -317.92c32.32,8.96 64.46,18.51 96.75,27.57 -1.57,5.57 -3.13,11.11 -4.68,16.7 -24.76,-7.03 -49.48,-14.2 -74.23,-21.25 -1.94,6.75 -3.94,13.5 -5.93,20.23 14.43,4.17 28.89,8.33 43.36,12.39 -1.62,5.52 -3.19,11.08 -4.7,16.65 -14.48,-3.9 -28.82,-8.22 -43.21,-12.38 -2.39,7.48 -4.42,15.1 -6.71,22.6 25.05,7.27 50.11,14.41 75.18,21.57 -1.71,6.11 -3.45,12.19 -5.2,18.28 -32.6,-9.15 -65.06,-18.75 -97.63,-27.9 8.93,-31.51 18.16,-62.92 27,-94.46zm-1201.74 -7.8c5.93,-1.64 11.88,-3.26 17.79,-4.94 9,31.53 17,63.37 25.72,95 -6.97,1.83 -13.92,3.71 -20.86,5.6 -5.83,-22.13 -12.64,-44.04 -17.24,-66.46 -7.03,22.5 -17.45,43.77 -25.5,65.93 -5.63,2.61 -9.51,-2.75 -13.56,-5.64 -15.36,-12.51 -31.58,-23.96 -46.34,-37.18 6.54,21.85 11.89,44.04 18.01,66 -6.1,1.64 -12.23,3.28 -18.35,4.92 -8.61,-31.64 -16.96,-63.33 -25.5,-94.98 6.21,-1.68 12.4,-3.38 18.72,-4.7 19.5,15.14 39.37,29.79 59,44.78 9.36,-22.78 18.64,-45.6 28.11,-68.33zm1050.88 -26.88c37.06,7.42 73.94,15.77 110.98,23.36 -1.21,5.95 -2.44,11.93 -3.99,17.82 -14.56,-3.39 -29.23,-6.39 -43.85,-9.39 -5.48,26.13 -11.11,52.23 -16.61,78.35 -7.64,-1.49 -15.23,-3.21 -22.87,-4.72 5.52,-26.19 11.11,-52.36 16.7,-78.52 -14.63,-3.3 -29.41,-5.98 -43.94,-9.62 1.33,-5.74 2.56,-11.48 3.58,-17.28zm-136.81 -22.69c37.1,5.8 74.19,11.95 111.35,17.49 -0.37,6.04 -1.42,12.01 -2.37,17.99 -14.86,-2.2 -29.66,-4.74 -44.5,-6.99 -4.29,26.43 -8.37,52.87 -12.62,79.3 -7.66,-1.34 -15.36,-2.44 -23.02,-3.8 4.14,-26.4 8.5,-52.78 12.47,-79.21 -14.73,-2.29 -29.44,-4.66 -44.16,-6.97 0.82,-5.95 1.75,-11.88 2.85,-17.81zm-139.87 -14.13c33.31,3.62 66.66,7.01 99.97,10.59 -0.63,5.76 -1.23,11.5 -2.03,17.23 -25.52,-2.95 -51.08,-5.45 -76.62,-8.17 -0.74,6.99 -1.49,13.95 -2.12,20.97 14.82,1.74 29.69,3.17 44.53,4.76 -0.41,5.72 -0.97,11.41 -1.47,17.13 -14.99,-1.49 -29.98,-3.02 -44.93,-4.75 -0.8,7.86 -1.66,15.73 -2.4,23.6 25.87,2.7 51.71,5.44 77.55,8.14 -0.54,6.29 -1.21,12.55 -1.9,18.83 -33.58,-3.43 -67.13,-7.17 -100.73,-10.47 3.06,-32.63 6.79,-65.25 10.15,-97.86zm-176.21 -4.84c7.61,0 15.23,0.59 22.87,0.54 -0.41,26.43 -1.64,52.85 -2.59,79.28 21.37,1.01 42.75,1.55 64.15,2.33 1.08,-26.45 1.73,-52.89 2.91,-79.32 7.72,0.52 15.49,0.43 23.21,1.1 -1.12,25.74 -1.74,51.47 -2.82,77.2 -0.24,7.21 -2.46,15.94 -10.18,18.45 -7.36,2.22 -15.21,1.25 -22.78,1.21 -18.71,-0.78 -37.43,-1.19 -56.13,-2.03 -6.65,-0.43 -14.65,-1.21 -18.6,-7.4 -3.58,-6.3 -2.93,-13.87 -2.69,-20.84 1.01,-23.49 1.44,-47.02 2.65,-70.52zm-644.89 -576.87c63.01,-0.15 126.02,-0.02 189.03,-0.07 78.35,1.13 156.69,0.26 235.06,0.56 27.52,28.8 55.01,57.69 82.18,86.83 26.28,-28.63 51.99,-57.75 78.24,-86.39 57.99,0.56 115.97,-0.87 173.97,-0.46 33.07,-0.23 66.16,0.56 99.23,-0.56 55.12,0.02 110.23,0.07 165.34,-0.02 -32.44,54.49 -65.1,108.85 -97.69,163.25 -1.53,2.33 -2.14,4.9 -1.84,7.7 0.11,64.2 0,128.37 0.07,192.57 101.45,0 202.88,0.02 304.32,-0.02 -22.6,51.03 -45.04,102.18 -67.69,153.21 -3.51,6.84 -1.68,14.76 -2.09,22.14 89.48,17.92 178.27,40.14 264.42,70.41 25.76,8.88 50.67,20.01 75.8,30.5 -37.98,95.41 -75.76,190.9 -113.85,286.27 -25.67,-20.45 -51.3,-40.97 -76.88,-61.5 -3,-2.5 -6.67,-3.95 -10.27,-5.24 -45.43,-16.66 -92.11,-29.6 -139.09,-40.95 -0.28,68.26 0.02,136.51 -0.15,204.76 -0.24,2.84 0.3,5.71 2.11,8.02 15.21,23.82 30.25,47.76 45.39,71.62 -59.88,55.54 -119.89,110.96 -180.01,166.27 -180.92,-0.11 -361.83,0 -542.77,-0.07 -59.97,-55.31 -119.85,-110.72 -179.82,-166.03 15.16,-24.5 30.85,-48.69 46.14,-73.08 1.75,-2.61 0.97,-5.94 1.23,-8.85 -0.13,-23.75 -0.06,-47.5 -0.04,-71.25 -116.7,-0.08 -233.4,0.07 -350.1,-0.06 23.73,-40.12 47.97,-79.92 71.74,-120.02 -32.37,8.75 -64.49,18.57 -96.01,30.13 -2.93,1.08 -5.87,2.33 -8.3,4.36 -25.85,20.73 -51.65,41.46 -77.6,62.04 -37.59,-95.6 -75.95,-190.93 -113.63,-286.51 24.24,-9.88 48.08,-20.82 72.84,-29.4 81.56,-28.91 165.56,-50.5 250.25,-67.99 0.06,-121.6 -0.04,-243.22 0.06,-364.81 -0.3,-4.75 1.04,-10.06 -1.92,-14.22 -32.55,-54.38 -65.16,-108.74 -97.67,-163.14zm135.86 69.11l0 0c14.23,21.92 27.11,44.72 40.48,67.17 -0.47,130.68 -0.1,261.38 -0.19,392.08 47.24,-8.35 94.85,-14.52 142.39,-20.73 8.39,-1.51 16.91,-2 25.37,-3.15 -0.61,-89.26 0.93,-178.5 0.39,-267.76 55.41,59.69 110.66,119.53 166.16,179.13l0 -1.49c54.79,-59.52 109.65,-118.94 164.54,-178.35 0.09,84.71 -0.97,169.42 -0.58,254.13 48.26,0.02 96.47,3.08 144.66,5.07 9.12,0.3 18.22,1.29 27.37,1.61 0.15,-120.13 -0.3,-240.28 0.24,-360.41 11.71,-21.67 26.14,-41.93 37.23,-63.95 0.82,-0.33 2.44,-1.02 3.24,-1.34 -89.46,-1.96 -179,-0.67 -268.5,-1.12 -37.04,41.13 -74.44,81.95 -111.09,123.45 -38.92,-40.9 -77.68,-81.95 -116.51,-122.91l0.52 -1.04c-85.25,-0.13 -170.5,0.32 -255.72,-0.39zm259.91 367.27l0 0c0.47,0.33 1.42,0.95 1.92,1.27 8.67,19.98 18.01,39.65 26.92,59.52 9.6,-0.45 19.17,-1.6 28.79,-1.7 38.42,-1.73 76.84,-4.25 115.32,-4.77 3.71,0.06 7.45,-0.13 11.11,-0.89 9.58,-0.47 19.18,-0.04 28.78,-0.3 7.12,-17.49 14.95,-34.66 21.87,-52.24l1.45 -0.85c-78.72,-0.38 -157.45,-0.3 -236.16,-0.04zm491.49 -0.26l0 0c9.34,22.01 17.35,44.57 26.17,66.79 9.77,0.77 19.5,1.9 29.23,2.97l0.21 0.7c36.87,3.68 73.5,9.23 110.21,14.1 9.19,0.84 18.27,2.63 27.42,4.06 0.73,-9.04 -2.1,-18.9 2.56,-27.2 9.19,-20.04 18.4,-40.08 27.33,-60.23l1.69 -0.97c-74.83,-0.24 -149.66,-0.17 -224.51,-0.02l-0.31 -0.2zm-771.47 152.01l0 0c-93.92,19.38 -187.25,43.19 -276.93,77.55 23.95,60.62 48.09,121.17 72.18,181.74 12.41,-9.45 23.86,-20.28 36.95,-28.73 47.87,-18.73 97.46,-32.64 147.29,-45.02 170.3,-41.25 345.85,-58.42 520.84,-59.19 198.77,-1.71 398.78,16.15 591.52,66.33 40.42,10.91 80.76,22.63 119.67,38.16 12.84,8.45 24.16,19.13 36.46,28.39 24.03,-60.51 48.04,-121.04 72.13,-181.53 -72.63,-28.21 -148.04,-48.7 -223.88,-66.22 -204.48,-46.2 -414.73,-65.19 -624.19,-61.71 -158.39,2.91 -316.68,18.94 -472.04,50.23zm558.65 174.34l0 0c-0.23,13.38 0.39,26.79 -0.28,40.15 -12.79,22.93 -27.39,44.89 -40.03,67.9 83.48,-0.43 166.98,-0.08 250.48,-0.19 -11.56,-20.52 -23.06,-41.09 -34.71,-61.59 -1.23,-2.56 -3.32,-4.96 -3.36,-7.89 -0.3,-10.14 0,-20.28 -0.07,-30.42 -9.14,-0.97 -18.35,-1.08 -27.48,-2.33 -48.06,-3.82 -96.34,-5.45 -144.55,-5.63zm-245.07 7.25l0 0c-0.58,0.24 -1.74,0.73 -2.33,0.97 -0.51,93.3 0.31,186.66 -0.41,279.95 -7.83,13.22 -16.52,25.95 -24.46,39.13l1.19 -0.19c36.32,34.38 73.56,67.79 110.01,102.05 160.28,0.28 320.55,-0.02 480.82,0.15 36.87,-34.06 73.8,-68.08 110.62,-102.2 -7.85,-13.01 -16.68,-25.46 -24.12,-38.66 -0.49,-83.13 0,-166.29 -0.23,-249.4 -9.13,-1.77 -18.34,-3.11 -27.38,-5.27 -46.4,-8.97 -93.38,-14.92 -140.32,-20.19 0,72.14 0.13,144.29 -0.06,216.45 -3.46,9.25 -9.09,17.77 -13.83,26.46 -8.46,7.94 -17.71,15.06 -26.68,22.42 -76.28,-0.39 -152.53,0.23 -228.81,-0.3 -8.45,-7.34 -17.6,-13.94 -25.58,-21.77 -5.2,-10.09 -10.87,-20.13 -14.95,-30.7 -0.24,-75.17 0.82,-150.39 0.39,-225.59 -9.15,-0.13 -18.32,0.26 -27.46,-0.32 -48.86,0.69 -97.68,3.26 -146.41,7.01zm-110.81 11.76l0 0c-49.27,5.52 -98.1,14.3 -146.75,23.79 -12.61,21.89 -25.71,43.51 -37.9,65.66l1.38 -0.82c82.92,0.46 165.84,0.13 248.76,0.18 -13.26,-23.8 -26.83,-47.42 -39.99,-71.25 -1.81,-6.54 -0.3,-13.59 -0.73,-20.3 -8.27,0.9 -16.48,2.18 -24.77,2.74zm165.8 -200.18c23.86,-1.23 47.69,-2.44 71.53,-3.76 6.97,-0.17 15.01,-0.75 20.64,4.19 4.77,4.83 4.96,12.1 5.57,18.44 0.84,17.28 1.72,34.54 2.74,51.79 0.26,6.6 -0.05,14.56 -5.57,19.09 -8.15,5.48 -18.48,4.17 -27.78,5.18 4.42,8.18 9.4,16.03 13.22,24.51 -7.76,0.34 -15.51,0.82 -23.27,0.84 -3.91,-8.14 -8.09,-16.12 -11.98,-24.23 -14.21,0.63 -28.43,1.53 -42.64,2.12 -6.82,0.21 -15.1,-0.37 -19.2,-6.69 -3.32,-5.61 -3.45,-12.36 -3.84,-18.66 -0.71,-16.57 -1.94,-33.09 -2.44,-49.66 0.02,-5.84 -0.39,-12.62 3.97,-17.17 4.85,-5.13 12.45,-5.54 19.05,-5.99zm-0.22 17.99l0 0c1.25,20.45 2.25,40.9 3.26,61.35 10.89,-0.76 21.81,-1.17 32.7,-1.84 -3.41,-6.86 -6.82,-13.7 -10.31,-20.51 5.61,-2.57 11.22,-5.18 16.83,-7.79 5.17,9.04 9.88,18.36 15.1,27.4 6.66,-0.63 13.35,-0.95 20.04,-1.23 -1.28,-20.47 -1.97,-40.97 -3.43,-61.42 -24.7,1.71 -49.47,2.7 -74.19,4.04zm-195.97 1.29c28.78,-3.43 57.51,-7.18 86.28,-10.5 7.64,-1.15 17,1.57 19.81,9.51 2.52,8.56 2.67,17.6 4.03,26.4 0.82,6.62 1.73,14.76 -3.97,19.61 -7.57,6.34 -18.21,5.67 -27.44,6.99 16.48,10.37 32.92,20.82 49.4,31.23 -11.15,1.52 -22.33,2.68 -33.46,4.17 -14.45,-10.44 -28.64,-21.29 -43.27,-31.45 -7.09,-0.15 -14.11,1.55 -21.16,2.05 1.42,12.29 3,24.54 4.55,36.82 -7.61,0.84 -15.21,1.81 -22.8,2.63 -4.03,-32.49 -8.05,-64.97 -11.97,-97.46zm24.85 14.56l0 0c1.14,8.78 2.16,17.58 3.24,26.38 16.69,-1.96 33.39,-4.05 50.06,-6.1 3.97,-0.45 10.27,-1.84 9.3,-7.21 -0.84,-6.64 0.19,-14.62 -5.07,-19.67 -19.26,1.3 -38.35,4.47 -57.53,6.6zm-148.95 5.12c7.31,-1.58 14.67,-2.92 22,-4.41 24.74,28.56 49.4,57.21 74.19,85.73 -8.65,1.74 -17.33,3.36 -26,5.05 -5.13,-6.26 -10.35,-12.43 -15.51,-18.66 -20.17,3.75 -40.29,7.78 -60.44,11.69 -2.22,7.7 -4.66,15.33 -6.94,23.04 -7.64,1.61 -15.3,3.06 -22.96,4.48 11.61,-35.74 23.8,-71.29 35.66,-106.92zm13.65 19.26l0 0c-4.68,13.29 -8.52,26.87 -13.05,40.23 13.62,-2.53 27.23,-5.18 40.82,-7.92 -8.78,-10.85 -17.41,-21.87 -26.3,-32.64 -0.37,0.09 -1.1,0.24 -1.47,0.33zm132.69 323.54c12.64,-5.84 28.73,4.79 28.08,18.77 0.78,14.69 -16.8,25.54 -29.61,18.31 -15.27,-6.58 -14.37,-31.84 1.53,-37.08zm1.98 4.14l0 0c-10.44,3.61 -13.63,18.75 -5.15,26.02 7.76,8.56 23.55,4.08 26.14,-7.05 4.01,-11.83 -9.62,-24.06 -20.99,-18.97zm1.28 7.53l0 0c-0.03,1.94 -0.03,3.88 0,5.85 2.59,-0.86 7.31,0.84 7.91,-2.93 -1.2,-3.33 -5.22,-2.42 -7.91,-2.92z"/>
  </g>
 </g>
</svg>
