<?xml version="1.0" encoding="UTF-8"?>
<!DOCTYPE svg PUBLIC "-//W3C//DTD SVG 1.1//EN" "http://www.w3.org/Graphics/SVG/1.1/DTD/svg11.dtd">
<!-- Creator: CorelDRAW -->
<svg xmlns="http://www.w3.org/2000/svg" xml:space="preserve" width="2000px" height="1600px" version="1.1" style="shape-rendering:geometricPrecision; text-rendering:geometricPrecision; image-rendering:optimizeQuality; fill-rule:evenodd; clip-rule:evenodd"
viewBox="0 0 2000 1600"
 xmlns:xlink="http://www.w3.org/1999/xlink">
 <defs>
  <style type="text/css">
   <![CDATA[
    .fil1 {fill:#211F1F;fill-rule:nonzero}
    .fil4 {fill:#551B1E;fill-rule:nonzero}
    .fil2 {fill:#882428;fill-rule:nonzero}
    .fil3 {fill:#B6B8B9;fill-rule:nonzero}
    .fil0 {fill:#FCFCFC;fill-rule:nonzero}
   ]]>
  </style>
 </defs>
 <g id="Capa_x0020_1">
  <metadata id="CorelCorpID_0Corel-Layer"/>
  <g id="Massachusetts_x0020_Minutemen.cdr">
   <path class="fil0" d="M634.85 187.71c143.22,-0.03 286.44,-0.03 429.66,0 -64.79,41.23 -129.96,81.91 -194.85,122.98 -3.89,2.36 -3.61,7.51 -4.72,11.4 -11.79,55.49 -23.81,110.92 -35.74,166.38 -44.29,-0.47 -88.6,0.04 -132.91,-0.26 -18.63,23.23 -36.26,47.26 -54.94,70.46 8.93,-39.51 17.03,-79.2 25.69,-118.77 -28.43,-0.02 -56.86,0.06 -85.29,-0.05 17.75,-84.03 35.35,-168.11 53.1,-252.14zm-88.15 812.13c10.3,-15.27 22.68,-29.24 33.57,-44.18 -3.78,21.92 -9.14,43.54 -13.52,65.36 -5.82,27.29 -11.55,54.61 -17.46,81.89 49.32,-0.06 98.62,0.14 147.94,-0.11 -4.95,21.96 -9.47,43.98 -14.31,65.95 -4.44,18.81 -5.16,38.84 0.02,57.58 1.69,6.69 5.31,12.73 6.65,19.54 1.75,0.07 3.51,0.13 5.28,0.21 55.23,-29.51 111.18,-57.69 166.37,-87.3 4.11,-0.64 8.29,-0.72 12.45,-0.68 45.73,0.25 91.45,-0.26 137.18,0.3 12.9,-0.34 25.81,-0.49 38.71,0.09 4.15,-18.54 7.96,-37.16 11.82,-55.77 56.49,-0.08 112.97,-0.03 169.46,-0.02 -3.38,14.21 -6.22,28.54 -9.36,42.82 -2.88,12.85 -4.91,25.99 -9.71,38.31 -9.14,23.82 -23.6,45.49 -41.54,63.59 -15.88,15.61 -34.96,28.75 -56.74,34.38 -11.66,3.11 -23.81,2.85 -35.77,2.76 -100.44,0 -200.86,0 -301.3,0 -11.16,-0.02 -22.45,0.46 -33.45,-1.71 -13.51,-2.45 -26.33,-8.69 -36.52,-17.89 -6.13,-5.37 -10.34,-12.52 -16.23,-18.11 -3.23,2.4 -6.62,4.64 -10.23,6.44 -52.29,26.83 -104.06,54.71 -156.51,81.22 -16.29,-29.97 -23.67,-64.4 -22.64,-98.41 -0.19,-28.62 7.74,-56.32 13.38,-84.13 10.76,-50.72 21.99,-101.34 32.46,-152.13zm498.07 -267.54c0.63,0.05 1.92,0.13 2.56,0.16 -1.85,52.92 -5.4,105.78 -7.44,158.7 -17.16,0.56 -34.32,-0.22 -51.46,0.38 12.42,-35.78 25.18,-71.46 37.7,-107.21 6.31,-17.3 11.89,-34.91 18.64,-52.03zm-808.25 -67.64c10.77,-51.42 21.23,-102.91 32.1,-154.32 68.85,0.18 137.7,-0.08 206.55,0.13 24.86,67.3 49.61,134.66 74.85,201.8 13.57,-16.45 26.18,-33.72 39.4,-50.5 39,-50.45 78,-100.9 117.01,-151.35 69.07,-0.01 138.16,-0.08 207.23,0.03 -10.71,51.36 -21.41,102.74 -31.93,154.15 -11.4,0.06 -22.8,0.08 -34.21,0 -18.48,87.58 -36.89,175.17 -55.18,262.8 11.88,0.05 23.76,-0.01 35.64,0.03 -2.06,8.98 -3.99,17.99 -5.95,27 3.06,0.01 6.14,0.03 9.22,0.11 41.21,-104.28 81.68,-208.85 122.5,-313.27 72.54,-0.08 145.09,-0.02 217.64,-0.05 -1.82,103.96 -3.26,207.94 -4.98,311.92 3.49,-0.03 7.02,-0.03 10.53,-0.05 2.61,-12.8 5.37,-25.56 8.05,-38.35 21.71,-0.27 43.43,0.26 65.13,-0.27 -18.22,-5.69 -34.41,-18.06 -43.27,-35.14 -10.46,-19.07 -12.5,-41.94 -8.25,-63.06 6.75,-32.26 13.46,-64.53 20.25,-96.79 4.5,-20.14 16.79,-38.03 32.74,-50.88 21.45,-17.48 48.98,-27.2 76.62,-27.38 74.38,0.03 148.78,-0.02 223.16,0.02 -2.31,11.4 -4.75,22.75 -7.17,34.12 22.27,-21.38 52.79,-33.85 83.69,-34.14 74.59,0.02 149.19,-0.02 223.79,0.02 -11.37,53.59 -22.7,107.19 -33.82,160.83 -16.08,0.2 -32.19,-0.11 -48.28,0.15 16.2,6.71 29.84,19.39 36.87,35.54 8.9,19.32 9.09,41.65 4.02,62.03 -5.51,26.11 -11.01,52.22 -16.49,78.33 -3,13.48 -4.86,27.41 -11.05,39.93 -16.68,35.37 -53.13,62.38 -92.91,62.84 -79.97,0.05 -159.95,-0.03 -239.91,0.05 1.86,-9.01 3.98,-17.96 5.59,-27 -18.27,16.3 -42.14,27.11 -66.87,26.97 -129.63,-0.04 -259.27,0.06 -388.9,-0.05 3.36,-32.21 6.34,-64.47 9.9,-96.65 -9.46,-0.09 -18.91,0.08 -28.37,-0.12 -11.59,32.17 -22.48,64.61 -33.9,96.85 -123.76,-0.07 -247.51,-0.05 -371.28,0 15.15,-71.23 30.44,-142.42 45.35,-213.7 -42.51,54.18 -84.38,108.89 -126.92,163.04 -14.88,-33.98 -30.07,-67.81 -45.02,-101.76 -10.77,-23.95 -20.84,-48.24 -31.92,-72.04 -15.88,74.81 -32.22,149.5 -47.98,224.33 -73.73,0.22 -147.46,0.03 -221.19,0.1 11.28,-51.11 22.44,-102.23 33.79,-153.32 11.48,0.1 22.95,0.08 34.43,0.02 18.41,-87.7 37.52,-175.27 55.96,-262.97 -12.08,0 -24.17,-0.01 -36.26,0.02zm49.98 -132.11l0 0c-7.58,36.63 -15.14,73.26 -22.81,109.85 12.22,0.05 24.42,-0.1 36.63,0.08 -21.97,102.21 -43.91,204.45 -65.47,306.75 -11.53,0.99 -23.1,0.27 -34.65,0.42 -7.81,35.9 -16.34,71.7 -23.37,107.77l-1.3 0.94c58.87,0.46 117.77,0.21 176.66,0.13 19.09,-91.62 39.4,-182.99 58.58,-274.58 4.83,9.84 8.68,20.11 13.14,30.12 24.68,58.09 50.52,115.67 75.87,173.45 0.4,-0.25 1.21,-0.79 1.61,-1.07l-0.03 -0.54c54,-69.1 107.74,-138.43 161.44,-207.78 -1.05,9.65 -3.78,19.01 -5.58,28.54 -12.49,58.81 -25,117.62 -37.49,176.42 -5.05,24.84 -11.03,49.53 -15.46,74.5l-1.36 0.75c57.93,0.67 115.89,0.11 173.83,0.27 7.61,-36.49 16.2,-72.78 23.54,-109.31 -11.64,-0.03 -23.3,-0.14 -34.94,0.15 21.29,-102.35 43.26,-204.58 64.88,-306.87 11.18,0.05 22.34,-0.08 33.52,-0.01 7.43,-35.31 14.62,-70.66 22.05,-105.96 0.26,-1.66 0.21,-3.3 -0.12,-4.96l-1.09 1.17c-55.74,-0.51 -111.5,-0.07 -167.26,-0.23 -58.2,74.95 -115.91,150.27 -174.27,225.07 -27.68,-75.36 -55.55,-150.65 -83.66,-225.85l-0.91 0.99c-57.32,-0.46 -114.66,-0.06 -171.98,-0.21zm560.24 443.77l0 0c-9.99,0.03 -19.99,-0.03 -29.99,0.03 -5.39,26.98 -11.82,53.8 -16.49,80.91l-1.19 1.16c44.37,0.34 88.76,0.13 133.14,0.11 10.89,-32.09 22.29,-64.02 33.29,-96.08 22.87,0.05 45.72,0.06 68.58,0 -2.82,31.68 -6.89,63.29 -9.17,95l-1.3 0.83c43.34,0.76 86.72,0 130.09,0.4 6.16,-27.95 12.15,-55.94 17.88,-83.98 -9.15,0 -18.31,-0.02 -27.46,0.03 -0.14,-16.44 0.37,-32.87 0.94,-49.27 -0.27,-31.34 1.31,-62.64 1.04,-93.97 1.48,-26.02 0.4,-52.12 1.46,-78.16 0.12,-30.28 1.49,-60.53 1.17,-90.79l-1.2 1.08c-59.52,-0.48 -119.08,-0.01 -178.62,-0.24 -40.77,104.3 -81.49,208.61 -122.17,312.94zm432.95 -300.26l0 0c-18.66,10.2 -34.65,27.35 -39.31,48.54 -6.73,31.81 -13.31,63.65 -19.98,95.48 -3.6,16.9 -1.8,35.19 6.65,50.41 8.52,14.87 25.05,24.32 42.14,24.45 36.41,0.14 72.81,0.03 109.21,0.05 -0.21,0.75 -0.62,2.23 -0.83,2.96 -5.79,25.72 -11.22,51.54 -17.06,77.24 -19.99,-0.03 -39.99,-0.02 -59.98,0 2.8,-12.92 5.97,-25.75 8.43,-38.73 -35.25,-0.06 -70.51,0.08 -105.75,-0.06 -3.01,12.27 -5.31,24.74 -8.02,37.1 -5.63,28 -12.31,55.81 -17.31,83.92l-1.17 0.97c67.45,0.46 134.9,0.07 202.35,0.19 8.64,-0.19 17.49,0.83 25.94,-1.58 24.71,-6.13 45.81,-24.2 57.16,-46.81 5.21,-10.03 6.83,-21.29 9.17,-32.21 6.15,-29.1 12.23,-58.23 18.4,-87.33 3.51,-15.84 2.46,-33.09 -5.28,-47.57 -5.16,-8.19 -12.13,-15.56 -21.25,-19.23 -11.85,-5.45 -25.13,-3.74 -37.75,-4 -31.23,0.16 -62.48,-0.32 -93.67,0.24 5.32,-24.86 10.47,-49.75 15.78,-74.6 20.65,-0.63 41.33,-0.21 62.01,-0.23 -1.89,11.69 -4.81,23.2 -7.08,34.83 32.42,-0.08 64.82,-0.05 97.24,-0.02 7.3,-34.31 14.43,-68.68 21.7,-103.01 0.94,-4.83 2.57,-9.59 2.22,-14.57l-1.42 1.15c-64.14,-0.5 -128.3,-0.05 -192.43,-0.24 -17.44,-0.34 -34.89,4.21 -50.11,12.66zm268.77 29.63l0 0c-7.04,10.85 -8.57,23.93 -11.28,36.3 -5.53,26.71 -11.24,53.37 -16.68,80.09 -3.36,16.49 -0.89,34.11 7.26,48.88 8.69,14.86 25.49,24.04 42.64,24.01 36.1,-0.06 72.23,0.27 108.31,-0.16 -6.22,26.79 -11.24,53.89 -18.13,80.51 -19.82,-0.31 -39.64,-0.08 -59.46,-0.11 2.6,-12.98 5.76,-25.84 8.45,-38.78 -35.38,0.12 -70.76,-0.18 -106.14,0.16 -8.21,39.97 -17.19,79.82 -24.99,119.87 -0.29,0.51 -0.84,1.53 -1.13,2.04 73.03,0.15 146.07,0.15 219.1,0 27.98,-3.04 52.65,-22.38 65.54,-46.97 5.96,-10.86 7.58,-23.27 10.2,-35.19 6.12,-29.15 12.28,-58.3 18.4,-87.45 2.89,-15.51 1.95,-32.4 -6.01,-46.35 -7.91,-13.58 -22.82,-22.45 -38.57,-22.66 -37.73,-0.03 -75.47,-0.08 -113.2,0.04 0.02,-0.61 0.02,-1.84 0.04,-2.44 5.23,-24.08 10.01,-48.27 15.41,-72.3 20.65,0.02 41.3,0 61.95,0 -2.15,11.67 -4.85,23.22 -7.21,34.84 32.44,0.02 64.88,0.07 97.32,-0.01 7.95,-39.15 16.72,-78.14 24.41,-117.34l-1.33 0.94c-65.66,-0.43 -131.32,-0.04 -196.98,-0.19 -30.5,0.81 -61.64,15.86 -77.92,42.27zm-294.06 -518.03c141.88,0.08 283.75,-0.05 425.62,0.06 -93.1,41.78 -186.46,82.98 -279.68,124.5 -16.45,75.78 -32.54,151.63 -48.85,227.41 -5.63,26.73 -11.69,53.36 -17,80.14 -29.85,-1.69 -59.92,7 -84.97,23.11 -22.74,14.65 -41.19,36.62 -49.4,62.58 -3.89,11.18 -4.48,23.22 -8.5,34.33 0.56,-40.07 1.29,-80.12 1.9,-120.18 -10.08,0.16 -20.17,-0.03 -30.25,0.13 30.44,-144.02 60.77,-288.05 91.13,-432.08z"/>
   <path class="fil1" d="M461.61 488.13c28.76,-136.03 57.1,-272.15 86.07,-408.13 421.62,0.16 843.22,0.05 1264.84,0.06 -31.6,155.88 -63.2,311.78 -94.92,467.66 -27.47,-0.29 -54.96,-0.4 -82.43,0.08 -4.76,23.9 -10.58,47.61 -14.95,71.58 86.22,-0.45 172.47,-0.07 258.7,-0.21 -14.5,68.31 -28.78,136.65 -43.18,204.97 -3.78,0 -7.54,-0.01 -11.29,0 11.42,22.26 14.14,48.46 9.17,72.87 -7.16,34.41 -14.51,68.8 -21.7,103.23 -9.41,47.47 -48.08,87.43 -94.85,99.32 -16.59,4.56 -33.89,3.16 -50.89,3.35 -49.86,0.02 -99.74,-0.02 -149.62,0.02 -5.18,23.83 -10.23,47.7 -15.33,71.57 -3.64,16.55 -6.73,33.27 -11.71,49.5 -18.02,60 -49.94,115.44 -90.57,162.97 -40.43,46.93 -90.34,86.63 -147.76,110.58 -37.05,15.5 -77.3,23.71 -117.51,22.29 -155.74,0.02 -311.48,0 -467.21,0 -28.13,0.69 -56.35,-2.88 -83.43,-10.58 -49.43,-13.99 -94.38,-43.38 -126.81,-83.24 -37.55,-45.6 -58.55,-103.71 -62.31,-162.42 -2.44,-33.16 0.43,-66.66 7.56,-99.13 13.68,-63.6 27.25,-127.24 40.98,-190.83 0.54,-2.5 0.97,-5.16 -0.37,-7.48 -5.69,-12.61 -11.11,-25.36 -16.89,-37.95 -12.85,58.24 -25.14,116.6 -37.66,174.89 -88.81,0.05 -177.63,0.06 -266.46,0 14.56,-65.82 28.83,-131.69 43.58,-197.46 11.37,-0.19 22.75,-0.26 34.12,-0.16 15.63,-72.93 31.24,-145.87 46.74,-218.82 -12.06,-0.11 -24.11,-0.03 -36.17,-0.04 13.94,-66.15 27.3,-132.41 41.35,-198.54 70.3,0.07 140.6,-0.01 210.91,0.05zm1185.4 85.23c0.27,-1.92 0.59,-3.83 0.94,-5.73 8.93,0.07 17.86,0 26.81,0.04 -0.51,1.89 -1.01,3.81 -1.47,5.72 -3.35,-0.03 -6.66,-0.02 -9.98,0 -1.99,8.58 -3.51,17.27 -5.76,25.8 -1.56,-0.07 -4.67,-0.18 -6.22,-0.23 1.93,-8.49 3.77,-17.02 5.46,-25.57 -3.27,-0.02 -6.52,-0.03 -9.78,-0.03zm32.66 -5.77c3,0.08 6.04,0.08 9.07,0.15 0.8,7.24 2.07,14.4 2.95,21.63 4.54,-7.04 8.48,-14.45 12.69,-21.69 3.02,-0.01 6.03,-0.05 9.09,-0.05 -2.41,10.46 -4.38,21 -6.85,31.45 -1.47,-0.02 -4.41,-0.04 -5.87,-0.04 1.54,-7.81 3.62,-15.51 4.86,-23.37 -4.81,7.57 -8.61,15.75 -13.31,23.39 -1.65,0 -3.26,0.02 -4.85,0.05 -1.44,-7.69 -1.75,-15.55 -3.41,-23.19 -2.22,7.56 -3.48,15.36 -5.09,23.06 -1.5,0.02 -4.48,0.06 -5.98,0.08 2.12,-10.51 4.43,-20.98 6.7,-31.47zm-1088.77 -433.81l0 0c-24.98,119.97 -50.51,239.83 -75.59,359.79 28.35,0.72 56.75,-0.53 85.07,0.6 -10.19,44.83 -19.35,89.87 -29.15,134.79 -1.72,9.13 -4.4,18.11 -5.46,27.38 11.47,-13.29 21.58,-27.73 32.55,-41.45 14.22,-18.83 29.26,-37.08 43.03,-56.22 18.68,-23.2 36.31,-47.23 54.94,-70.46 44.31,0.3 88.62,-0.21 132.91,0.26 36.92,0.79 73.88,0.2 110.82,0.3 -13.33,65.77 -27.18,131.45 -40.75,197.19 -11.34,-0.09 -22.69,0.08 -34.03,-0.11 -8.39,37.87 -15.98,75.9 -24.08,113.82 -7.28,35.44 -15.24,70.76 -22.03,106.3 2.68,-0.03 5.39,-0.05 8.08,-0.06 37.5,-95.27 74.42,-190.75 111.87,-286.04 11.77,0.09 23.54,0.13 35.3,-0.02 18.18,-0.04 36.36,-0.04 54.55,0.02 3.88,-15.71 6.79,-31.64 10.24,-47.44 30.9,-146.26 61.66,-292.54 92.56,-438.81 -180.27,0.07 -360.55,-0.25 -540.83,0.16zm619.82 -0.19l0 0c-34.31,161.99 -68.51,324.02 -102.48,486.1 18.34,0.26 36.69,0.15 55.03,0.05 10.08,-0.16 20.17,0.03 30.25,-0.13 -0.61,40.06 -1.34,80.11 -1.9,120.18 4.02,-11.11 4.61,-23.15 8.5,-34.33 8.21,-25.96 26.66,-47.93 49.4,-62.58 25.05,-16.11 55.12,-24.8 84.97,-23.11 58.52,0.34 117.04,0.13 175.57,0.1 18.18,-0.06 36.35,-0.13 54.53,0.05 3.06,-10.06 4.47,-20.51 6.95,-30.71 6.76,-31.81 13.65,-63.58 20.35,-95.39 27.36,-0.3 54.76,0.23 82.12,-0.25 24.2,-120.02 48.55,-239.99 73.04,-359.95 -178.78,-0.08 -357.55,0.02 -536.33,-0.03zm-974.2 531.07l0 0c12.09,-0.03 24.18,-0.02 36.26,-0.02 -18.44,87.7 -37.55,175.27 -55.96,262.97 -11.48,0.06 -22.95,0.08 -34.43,-0.02 -11.35,51.09 -22.51,102.21 -33.79,153.32 73.73,-0.07 147.46,0.12 221.19,-0.1 15.76,-74.83 32.1,-149.52 47.98,-224.33 11.08,23.8 21.15,48.09 31.92,72.04 14.95,33.95 30.14,67.78 45.02,101.76 42.54,-54.15 84.41,-108.86 126.92,-163.04 -14.91,71.28 -30.2,142.47 -45.35,213.7 123.77,-0.05 247.52,-0.07 371.28,0 11.42,-32.24 22.31,-64.68 33.9,-96.85 9.46,0.2 18.91,0.03 28.37,0.12 -3.56,32.18 -6.54,64.44 -9.9,96.65 129.63,0.11 259.27,0.01 388.9,0.05 24.73,0.14 48.6,-10.67 66.87,-26.97 -1.61,9.04 -3.73,17.99 -5.59,27 79.96,-0.08 159.94,0 239.91,-0.05 39.78,-0.46 76.23,-27.47 92.91,-62.84 6.19,-12.52 8.05,-26.45 11.05,-39.93 5.48,-26.11 10.98,-52.22 16.49,-78.33 5.07,-20.38 4.88,-42.71 -4.02,-62.03 -7.03,-16.15 -20.67,-28.83 -36.87,-35.54 16.09,-0.26 32.2,0.05 48.28,-0.15 11.12,-53.64 22.45,-107.24 33.82,-160.83 -74.6,-0.04 -149.2,0 -223.79,-0.02 -30.9,0.29 -61.42,12.76 -83.69,34.14 2.42,-11.37 4.86,-22.72 7.17,-34.12 -74.38,-0.04 -148.78,0.01 -223.16,-0.02 -27.64,0.18 -55.17,9.9 -76.62,27.38 -15.95,12.85 -28.24,30.74 -32.74,50.88 -6.79,32.26 -13.5,64.53 -20.25,96.79 -4.25,21.12 -2.21,43.99 8.25,63.06 8.86,17.08 25.05,29.45 43.27,35.14 -21.7,0.53 -43.42,0 -65.13,0.27 -2.68,12.79 -5.44,25.55 -8.05,38.35 -3.51,0.02 -7.04,0.02 -10.53,0.05 1.72,-103.98 3.16,-207.96 4.98,-311.92 -72.55,0.03 -145.1,-0.03 -217.64,0.05 -40.82,104.42 -81.29,208.99 -122.5,313.27 -3.08,-0.08 -6.16,-0.1 -9.22,-0.11 1.96,-9.01 3.89,-18.02 5.95,-27 -11.88,-0.04 -23.76,0.02 -35.64,-0.03 18.29,-87.63 36.7,-175.22 55.18,-262.8 11.41,0.08 22.81,0.06 34.21,0 10.52,-51.41 21.22,-102.79 31.93,-154.15 -69.07,-0.11 -138.16,-0.04 -207.23,-0.03 -39.01,50.45 -78.01,100.9 -117.01,151.35 -13.22,16.78 -25.83,34.05 -39.4,50.5 -25.24,-67.14 -49.99,-134.5 -74.85,-201.8 -68.85,-0.21 -137.7,0.05 -206.55,-0.13 -10.87,51.41 -21.33,102.9 -32.1,154.32zm310.18 335.18l0 0c-1.41,1.4 -2.8,2.82 -4.09,4.35 -17.85,22.41 -34.83,45.53 -53,67.63 -3.16,-6.36 -5.17,-13.3 -9.21,-19.19 -6.39,28.87 -12.4,57.82 -18.67,86.71 -5.51,26.92 -12.79,53.66 -14.33,81.21 -2.68,38.35 2.18,77.48 16.36,113.34 15.85,40.77 44.36,76.79 81.46,100.2 29.6,18.69 64.02,29.31 98.89,31.62 13.27,1.15 26.6,0.52 39.91,0.67 140.34,0 280.67,0 421,0 24.22,-0.3 48.63,1.32 72.63,-2.94 46.61,-7.89 89.74,-30.31 126.54,-59.49 37.63,-29.97 69.57,-66.95 94.56,-108.01 21.84,-35.94 38.49,-75.32 46.62,-116.69 5.22,-25.59 11.39,-51 16.04,-76.69 -12.45,0.21 -24.9,0.13 -37.36,0.08 0.02,-1.36 0.03,-4.1 0.03,-5.45 -5.64,1.49 -11.32,2.9 -17.06,4.01 -15.53,2.17 -31.22,1.34 -46.84,1.49 -43.12,0.01 -86.22,-0.04 -129.32,0.01 -56.49,-0.01 -112.97,-0.06 -169.46,0.02 -63,-0.08 -125.99,-0.05 -188.99,0 -58.39,0.01 -116.79,-0.19 -175.18,0.08 -49.32,0.25 -98.62,0.05 -147.94,0.11 5.91,-27.28 11.64,-54.6 17.46,-81.89 4.38,-21.82 9.74,-43.44 13.52,-65.36 -10.89,14.94 -23.27,28.91 -33.57,44.18z"/>
   <path class="fil2" d="M590.9 133.78c180.28,-0.41 360.56,-0.09 540.83,-0.16 -30.9,146.27 -61.66,292.55 -92.56,438.81 -3.45,15.8 -6.36,31.73 -10.24,47.44 -18.19,-0.06 -36.37,-0.06 -54.55,-0.02 30.09,-144.14 60.72,-288.19 91.03,-432.3l-0.9 0.16c-143.22,-0.03 -286.44,-0.03 -429.66,0 -17.75,84.03 -35.35,168.11 -53.1,252.14 28.43,0.11 56.86,0.03 85.29,0.05 -8.66,39.57 -16.76,79.26 -25.69,118.77 -13.77,19.14 -28.81,37.39 -43.03,56.22 -10.97,13.72 -21.08,28.16 -32.55,41.45 1.06,-9.27 3.74,-18.25 5.46,-27.38 9.8,-44.92 18.96,-89.96 29.15,-134.79 -28.32,-1.13 -56.72,0.12 -85.07,-0.6 25.08,-119.96 50.61,-239.82 75.59,-359.79zm281.51 968.94c63,-0.05 125.99,-0.08 188.99,0 -3.86,18.61 -7.67,37.23 -11.82,55.77 -12.9,-0.58 -25.81,-0.43 -38.71,-0.09 -45.73,-0.56 -91.45,-0.05 -137.18,-0.3 -4.16,-0.04 -8.34,0.04 -12.45,0.68 2.61,-18.88 7.64,-37.34 11.17,-56.06zm-329.8 -98.53c1.29,-1.53 2.68,-2.95 4.09,-4.35 -10.47,50.79 -21.7,101.41 -32.46,152.13 -5.64,27.81 -13.57,55.51 -13.38,84.13 -1.03,34.01 6.35,68.44 22.64,98.41 14.79,27.27 38.35,49.77 66.48,62.92 23.25,11.13 49.19,15.26 74.8,15.37 147.81,0.03 295.64,0 443.45,0.02 24.39,-0.13 49.2,1.19 73.09,-4.91 43.63,-10.51 81.99,-36.4 113.9,-67.29 33.35,-32.96 60.68,-72.1 79.48,-115.09 8.07,-18.39 14.18,-37.62 18.07,-57.31 4.72,-22.35 9.61,-44.66 14.25,-67.02 5.74,-1.11 11.42,-2.52 17.06,-4.01 0,1.35 -0.01,4.09 -0.03,5.45 12.46,0.05 24.91,0.13 37.36,-0.08 -4.65,25.69 -10.82,51.1 -16.04,76.69 -8.13,41.37 -24.78,80.75 -46.62,116.69 -24.99,41.06 -56.93,78.04 -94.56,108.01 -36.8,29.18 -79.93,51.6 -126.54,59.49 -24,4.26 -48.41,2.64 -72.63,2.94 -140.33,0 -280.66,0 -421,0 -13.31,-0.15 -26.64,0.48 -39.91,-0.67 -34.87,-2.31 -69.29,-12.93 -98.89,-31.62 -37.1,-23.41 -65.61,-59.43 -81.46,-100.2 -14.18,-35.86 -19.04,-74.99 -16.36,-113.34 1.54,-27.55 8.82,-54.29 14.33,-81.21 6.27,-28.89 12.28,-57.84 18.67,-86.71 4.04,5.89 6.05,12.83 9.21,19.19 18.17,-22.1 35.15,-45.22 53,-67.63zm491.47 -41.74c18.34,-11.35 36.58,-22.85 55.14,-33.82 -0.99,29.66 -2.84,59.3 -4.08,88.96 -9.23,6.76 -18.96,12.75 -28.38,19.21 -10.64,6.87 -20.81,14.45 -31.85,20.65 2.28,-31.71 6.35,-63.32 9.17,-95zm644.63 -67.64c17.43,-7.76 34.25,-16.82 51.54,-24.92 3.92,8.45 3.3,18 1.3,26.87 -4.43,20.15 -8.8,40.34 -13.12,60.52 -3.52,14.31 -4.61,29.85 -13.08,42.4 -7.33,11.4 -21.07,16.93 -34.31,16.79 -42.56,0.11 -85.13,0.08 -127.7,-0.01 -3.89,-0.34 -7.38,1.45 -10.37,3.73 -10.17,7.43 -20.77,14.22 -31.01,21.54 -7.69,5.16 -14.94,11.06 -23.52,14.73 7.8,-40.05 16.78,-79.9 24.99,-119.87 35.38,-0.34 70.76,-0.04 106.14,-0.16 -2.69,12.94 -5.85,25.8 -8.45,38.78 19.82,0.03 39.64,-0.2 59.46,0.11 6.89,-26.62 11.91,-53.72 18.13,-80.51zm-249.14 -24.94c4.02,7.8 3.83,16.84 1.85,25.18 -5.31,23.93 -10.33,47.95 -15.56,71.91 -2.63,13.24 -5.3,27.44 -14.86,37.65 -8.22,9.23 -21.15,11.93 -33,11.91 -37.16,0.11 -74.35,-0.1 -111.52,0.03 -6.23,0.13 -12.59,-0.75 -18.71,0.61 -5.22,2.23 -9.43,6.18 -14.12,9.26 -15.32,10.25 -30.07,21.34 -45.77,31 5,-28.11 11.68,-55.92 17.31,-83.92 2.71,-12.36 5.01,-24.83 8.02,-37.1 35.24,0.14 70.5,0 105.75,0.06 -2.46,12.98 -5.63,25.81 -8.43,38.73 19.99,-0.02 39.99,-0.03 59.98,0 5.84,-25.7 11.27,-51.52 17.06,-77.24 2.92,-5.24 8.95,-7.05 14,-9.57 12.77,-5.94 25.5,-12 38,-18.51zm-136.89 -30.79c13.2,-5.99 26.02,-12.74 39.1,-18.99 31.19,-0.56 62.44,-0.08 93.67,-0.24 12.62,0.26 25.9,-1.45 37.75,4 9.12,3.67 16.09,11.04 21.25,19.23 -18.32,7.99 -35.79,17.78 -54.13,25.76 -4.66,-6.89 -12.12,-11.8 -20.63,-11.72 -31.38,-0.98 -62.8,-0.31 -94.18,-0.5 -8.65,-0.24 -17.84,1.15 -25.95,-2.57 -3.93,-1.67 -6.42,-5.26 -9.01,-8.41 3.92,-2.41 7.94,-4.68 12.13,-6.56zm322.65 -10.75c6.04,-3.18 13.14,-5.21 17.48,-10.85 -0.02,0.6 -0.02,1.83 -0.04,2.44 37.73,-0.12 75.47,-0.07 113.2,-0.04 15.75,0.21 30.66,9.08 38.57,22.66 -6.27,3.65 -12.85,6.67 -19.37,9.76 -11.36,5.23 -22.18,11.63 -33.82,16.15 -4.15,-2.71 -6.7,-7.49 -11.42,-9.32 -6.41,-2.62 -13.47,-2.21 -20.23,-2.35 -31.37,-0.25 -62.72,-0.16 -94.07,-0.13 -5.1,-0.09 -10.41,-0.14 -15.09,-2.39 -4.05,-1.77 -6.77,-5.4 -9.6,-8.61 11.13,-6.39 22.94,-11.51 34.39,-17.32zm-562.59 -98.58c15.13,-7.69 29.85,-16.33 45.47,-22.95 -2.29,59.62 -5.02,119.19 -7.27,178.81 -1.34,13.63 -0.19,27.44 -2.15,41.03 -54.76,-0.05 -109.51,0.12 -164.27,-0.11 2.73,-2.01 5.55,-3.9 8.63,-5.36 18.48,-9.78 36.85,-19.77 55.28,-29.63 17.14,-0.6 34.3,0.18 51.46,-0.38 2.04,-52.92 5.59,-105.78 7.44,-158.7 -0.64,-0.03 -1.93,-0.11 -2.56,-0.16 2.67,-0.77 5.39,-1.47 7.97,-2.55zm495.72 -24.06c16.28,-26.41 47.42,-41.46 77.92,-42.27 65.66,0.15 131.32,-0.24 196.98,0.19 -16,11.7 -32.97,22.02 -49.19,33.45 -4.22,2.74 -8.41,6.6 -13.8,6.28 -40.44,-0.09 -80.88,-0.05 -121.3,-0.06 -19.55,-0.27 -40.8,12.02 -44.9,32.19 -5.82,28.29 -11.72,56.56 -17.6,84.83 -2.04,8.53 0.04,17.19 3.09,25.19 -17.19,8.74 -34.9,16.39 -51.9,25.47 -8.15,-14.77 -10.62,-32.39 -7.26,-48.88 5.44,-26.72 11.15,-53.38 16.68,-80.09 2.71,-12.37 4.24,-25.45 11.28,-36.3zm-268.77 -29.63c15.22,-8.45 32.67,-13 50.11,-12.66 64.13,0.19 128.29,-0.26 192.43,0.24 -16.94,13.17 -35.56,23.98 -53.04,36.39 -2.9,2.26 -6.39,3.66 -10.11,3.38 -40.42,-0.23 -80.82,-0.1 -121.23,-0.12 -19.02,0 -39.7,11.88 -43.91,31.46 -5.98,28.58 -12.02,57.12 -17.87,85.71 -2.11,8.47 0.27,17.01 2.9,25.06 -17.06,8.82 -34.59,16.71 -51.92,24.97 -8.45,-15.22 -10.25,-33.51 -6.65,-50.41 6.67,-31.83 13.25,-63.67 19.98,-95.48 4.66,-21.19 20.65,-38.34 39.31,-48.54zm-432.95 300.26c40.68,-104.33 81.4,-208.64 122.17,-312.94 59.54,0.23 119.1,-0.24 178.62,0.24 -12.71,11.83 -26.74,22.1 -39.83,33.49 -2.93,2.37 -5.69,5.18 -9.23,6.65 -6.28,1.1 -12.71,0.39 -19.05,0.51 -25.39,0 -50.77,-0.1 -76.16,0.06 -38.84,104.25 -76.98,208.77 -115.84,313.02 -12.01,0.24 -24.03,-0.34 -36.04,0.08 -4.75,0 -7.94,4.05 -11.4,6.73 -13.2,11.08 -25.99,22.67 -39.72,33.1 4.67,-27.11 11.1,-53.93 16.49,-80.91 10,-0.06 20,0 29.99,-0.03zm-91 -360.13c4.28,-7.27 7.94,-14.93 13.11,-21.63 -0.76,9.95 -3.59,19.55 -5.52,29.3 -26.16,124.72 -52.52,249.39 -78.72,374.1 -0.84,4.86 -5.72,7.05 -9.23,9.77 -23.92,16.32 -46.89,33.98 -71.11,49.82 4.43,-24.97 10.41,-49.66 15.46,-74.5 12.49,-58.8 25,-117.61 37.49,-176.42 1.8,-9.53 4.53,-18.89 5.58,-28.54 31.24,-53.81 61.92,-107.96 92.94,-161.9zm-350.31 -24.21c8.15,18.21 14.94,36.99 22.55,55.44 30.37,75.36 60.6,150.78 90.98,226.14 1.39,3.55 0.54,7.39 -0.05,11.03 -6.09,31.36 -11.41,62.87 -17.6,94.22 -0.35,2.33 -0.08,4.7 0.05,7.06l0.03 0.54c-0.4,0.28 -1.21,0.82 -1.61,1.07 -25.35,-57.78 -51.19,-115.36 -75.87,-173.45 -4.46,-10.01 -8.31,-20.28 -13.14,-30.12 -0.91,-47.96 -3.12,-95.88 -4.08,-143.82 -1.04,-16.03 -1.39,-32.07 -1.26,-48.11zm137.62 165.64c58.36,-74.8 116.07,-150.12 174.27,-225.07 55.76,0.16 111.52,-0.28 167.26,0.23 -6.12,7.25 -13.84,12.85 -20.85,19.18 -12.2,10.68 -24.58,21.14 -36.68,31.91 -2.47,2.32 -5.47,4.22 -9.01,3.92 -22.89,0 -45.81,0.01 -68.71,-0.08 -2.9,0.09 -6.42,-0.29 -8.11,2.64 -55.62,71.97 -111.33,143.85 -167.07,215.71 -17.06,21.76 -33.55,44.01 -51.03,65.44 6.01,-38.06 13.97,-75.82 19.93,-113.88zm-256.55 -225.07c57.32,0.15 114.66,-0.25 171.98,0.21 -13.27,14.77 -27.82,28.32 -41.68,42.53 -4.02,4.03 -7.29,8.94 -12.07,12.15 -7.42,1.61 -15.09,-0.39 -22.52,1.08 -1.62,4.18 -2.36,8.66 -3.28,13.04 -28.65,134.39 -57.78,268.66 -86.31,403.06 -15.15,0.02 -30.28,0.05 -45.43,-0.11 -3.35,0.18 -7.17,-0.3 -9.88,2.09 -20.3,16.78 -39.87,34.44 -60.48,50.82 7.03,-36.07 15.56,-71.87 23.37,-107.77 11.55,-0.15 23.12,0.57 34.65,-0.42 21.56,-102.3 43.5,-204.54 65.47,-306.75 -12.21,-0.18 -24.41,-0.03 -36.63,-0.08 7.67,-36.59 15.23,-73.22 22.81,-109.85zm924.22 -398.96c178.78,0.05 357.55,-0.05 536.33,0.03 -24.49,119.96 -48.84,239.93 -73.04,359.95 -27.36,0.48 -54.76,-0.05 -82.12,0.25 -6.7,31.81 -13.59,63.58 -20.35,95.39 -2.48,10.2 -3.89,20.65 -6.95,30.71 -18.18,-0.18 -36.35,-0.11 -54.53,-0.05 12.76,-60.02 25.54,-120.05 38.52,-180.04 27.13,0.16 54.25,0 81.37,0.08 17.09,-84.16 34.09,-168.33 51.28,-252.47l-1.21 0.28c-141.87,-0.11 -283.74,0.02 -425.62,-0.06 -30.36,144.03 -60.69,288.06 -91.13,432.08 -18.34,0.1 -36.69,0.21 -55.03,-0.05 33.97,-162.08 68.17,-324.11 102.48,-486.1z"/>
   <path class="fil3" d="M1064.51 187.71l0.9 -0.16c-30.31,144.11 -60.94,288.16 -91.03,432.3 -11.76,0.15 -23.53,0.11 -35.3,0.02 -37.45,95.29 -74.37,190.77 -111.87,286.04 -2.69,0.01 -5.4,0.03 -8.08,0.06 6.79,-35.54 14.75,-70.86 22.03,-106.3 8.1,-37.92 15.69,-75.95 24.08,-113.82 11.34,0.19 22.69,0.02 34.03,0.11 13.57,-65.74 27.42,-131.42 40.75,-197.19 -36.94,-0.1 -73.9,0.49 -110.82,-0.3 11.93,-55.46 23.95,-110.89 35.74,-166.38 1.11,-3.89 0.83,-9.04 4.72,-11.4 64.89,-41.07 130.06,-81.75 194.85,-122.98zm166.35 914.99c43.1,-0.05 86.2,0 129.32,-0.01 15.62,-0.15 31.31,0.68 46.84,-1.49 -4.64,22.36 -9.53,44.67 -14.25,67.02 -3.89,19.69 -10,38.92 -18.07,57.31 -18.8,42.99 -46.13,82.13 -79.48,115.09 -31.91,30.89 -70.27,56.78 -113.9,67.29 -23.89,6.1 -48.7,4.78 -73.09,4.91 -147.81,-0.02 -295.64,0.01 -443.45,-0.02 -25.61,-0.11 -51.55,-4.24 -74.8,-15.37 -28.13,-13.15 -51.69,-35.65 -66.48,-62.92 52.45,-26.51 104.22,-54.39 156.51,-81.22 3.61,-1.8 7,-4.04 10.23,-6.44 5.89,5.59 10.1,12.74 16.23,18.11 10.19,9.2 23.01,15.44 36.52,17.89 11,2.17 22.29,1.69 33.45,1.71 100.44,0 200.86,0 301.3,0 11.96,0.09 24.11,0.35 35.77,-2.76 21.78,-5.63 40.86,-18.77 56.74,-34.38 17.94,-18.1 32.4,-39.77 41.54,-63.59 4.8,-12.32 6.83,-25.46 9.71,-38.31 3.14,-14.28 5.98,-28.61 9.36,-42.82zm-533.63 0.1c58.39,-0.27 116.79,-0.07 175.18,-0.08 -3.53,18.72 -8.56,37.18 -11.17,56.06 -55.19,29.61 -111.14,57.79 -166.37,87.3 -1.77,-0.08 -3.53,-0.14 -5.28,-0.21 -1.34,-6.81 -4.96,-12.85 -6.65,-19.54 -5.18,-18.74 -4.46,-38.77 -0.02,-57.58 4.84,-21.97 9.36,-43.99 14.31,-65.95zm982.79 -915.08l1.21 -0.28c-17.19,84.14 -34.19,168.31 -51.28,252.47 -27.12,-0.08 -54.24,0.08 -81.37,-0.08 -12.98,59.99 -25.76,120.02 -38.52,180.04 -58.53,0.03 -117.05,0.24 -175.57,-0.1 5.31,-26.78 11.37,-53.41 17,-80.14 16.31,-75.78 32.4,-151.63 48.85,-227.41 93.22,-41.52 186.58,-82.72 279.68,-124.5z"/>
   <path class="fil4" d="M1147.53 663.62l1.2 -1.08c0.32,30.26 -1.05,60.51 -1.17,90.79 -1.06,26.04 0.02,52.14 -1.46,78.16 0.27,31.33 -1.31,62.63 -1.04,93.97 -0.57,16.4 -1.08,32.83 -0.94,49.27 9.15,-0.05 18.31,-0.03 27.46,-0.03 -5.73,28.04 -11.72,56.03 -17.88,83.98 -43.37,-0.4 -86.75,0.36 -130.09,-0.4l1.3 -0.83c11.04,-6.2 21.21,-13.78 31.85,-20.65 9.42,-6.46 19.15,-12.45 28.38,-19.21 1.24,-29.66 3.09,-59.3 4.08,-88.96 -18.56,10.97 -36.8,22.47 -55.14,33.82 -22.86,0.06 -45.71,0.05 -68.58,0 -11,32.06 -22.4,63.99 -33.29,96.08 -44.38,0.02 -88.77,0.23 -133.14,-0.11l1.19 -1.16c13.73,-10.43 26.52,-22.02 39.72,-33.1 3.46,-2.68 6.65,-6.73 11.4,-6.73 12.01,-0.42 24.03,0.16 36.04,-0.08 38.86,-104.25 77,-208.77 115.84,-313.02 25.39,-0.16 50.77,-0.06 76.16,-0.06 6.34,-0.12 12.77,0.59 19.05,-0.51 3.54,-1.47 6.3,-4.28 9.23,-6.65 13.09,-11.39 27.12,-21.66 39.83,-33.49zm675.83 -0.01l1.33 -0.94c-7.69,39.2 -16.46,78.19 -24.41,117.34 -32.44,0.08 -64.88,0.03 -97.32,0.01 2.36,-11.62 5.06,-23.17 7.21,-34.84 -20.65,0 -41.3,0.02 -61.95,0 -5.4,24.03 -10.18,48.22 -15.41,72.3 -4.34,5.64 -11.44,7.67 -17.48,10.85 -11.45,5.81 -23.26,10.93 -34.39,17.32 2.83,3.21 5.55,6.84 9.6,8.61 4.68,2.25 9.99,2.3 15.09,2.39 31.35,-0.03 62.7,-0.12 94.07,0.13 6.76,0.14 13.82,-0.27 20.23,2.35 4.72,1.83 7.27,6.61 11.42,9.32 11.64,-4.52 22.46,-10.92 33.82,-16.15 6.52,-3.09 13.1,-6.11 19.37,-9.76 7.96,13.95 8.9,30.84 6.01,46.35 -6.12,29.15 -12.28,58.3 -18.4,87.45 -2.62,11.92 -4.24,24.33 -10.2,35.19 -12.89,24.59 -37.56,43.93 -65.54,46.97 -73.03,0.15 -146.07,0.15 -219.1,0 0.29,-0.51 0.84,-1.53 1.13,-2.04 8.58,-3.67 15.83,-9.57 23.52,-14.73 10.24,-7.32 20.84,-14.11 31.01,-21.54 2.99,-2.28 6.48,-4.07 10.37,-3.73 42.57,0.09 85.14,0.12 127.7,0.01 13.24,0.14 26.98,-5.39 34.31,-16.79 8.47,-12.55 9.56,-28.09 13.08,-42.4 4.32,-20.18 8.69,-40.37 13.12,-60.52 2,-8.87 2.62,-18.42 -1.3,-26.87 -17.29,8.1 -34.11,17.16 -51.54,24.92 -36.08,0.43 -72.21,0.1 -108.31,0.16 -17.15,0.03 -33.95,-9.15 -42.64,-24.01 17,-9.08 34.71,-16.73 51.9,-25.47 -3.05,-8 -5.13,-16.66 -3.09,-25.19 5.88,-28.27 11.78,-56.54 17.6,-84.83 4.1,-20.17 25.35,-32.46 44.9,-32.19 40.42,0.01 80.86,-0.03 121.3,0.06 5.39,0.32 9.58,-3.54 13.8,-6.28 16.22,-11.43 33.19,-21.75 49.19,-33.45zm-301.13 0.03l1.42 -1.15c0.35,4.98 -1.28,9.74 -2.22,14.57 -7.27,34.33 -14.4,68.7 -21.7,103.01 -32.42,-0.03 -64.82,-0.06 -97.24,0.02 2.27,-11.63 5.19,-23.14 7.08,-34.83 -20.68,0.02 -41.36,-0.4 -62.01,0.23 -5.31,24.85 -10.46,49.74 -15.78,74.6 -13.08,6.25 -25.9,13 -39.1,18.99 -4.19,1.88 -8.21,4.15 -12.13,6.56 2.59,3.15 5.08,6.74 9.01,8.41 8.11,3.72 17.3,2.33 25.95,2.57 31.38,0.19 62.8,-0.48 94.18,0.5 8.51,-0.08 15.97,4.83 20.63,11.72 18.34,-7.98 35.81,-17.77 54.13,-25.76 7.74,14.48 8.79,31.73 5.28,47.57 -6.17,29.1 -12.25,58.23 -18.4,87.33 -2.34,10.92 -3.96,22.18 -9.17,32.21 -11.35,22.61 -32.45,40.68 -57.16,46.81 -8.45,2.41 -17.3,1.39 -25.94,1.58 -67.45,-0.12 -134.9,0.27 -202.35,-0.19l1.17 -0.97c15.7,-9.66 30.45,-20.75 45.77,-31 4.69,-3.08 8.9,-7.03 14.12,-9.26 6.12,-1.36 12.48,-0.48 18.71,-0.61 37.17,-0.13 74.36,0.08 111.52,-0.03 11.85,0.02 24.78,-2.68 33,-11.91 9.56,-10.21 12.23,-24.41 14.86,-37.65 5.23,-23.96 10.25,-47.98 15.56,-71.91 1.98,-8.34 2.17,-17.38 -1.85,-25.18 -12.5,6.51 -25.23,12.57 -38,18.51 -5.05,2.52 -11.08,4.33 -14,9.57 0.21,-0.73 0.62,-2.21 0.83,-2.96 -36.4,-0.02 -72.8,0.09 -109.21,-0.05 -17.09,-0.13 -33.62,-9.58 -42.14,-24.45 17.33,-8.26 34.86,-16.15 51.92,-24.97 -2.63,-8.05 -5.01,-16.59 -2.9,-25.06 5.85,-28.59 11.89,-57.13 17.87,-85.71 4.21,-19.58 24.89,-31.46 43.91,-31.46 40.41,0.02 80.81,-0.11 121.23,0.12 3.72,0.28 7.21,-1.12 10.11,-3.38 17.48,-12.41 36.1,-23.22 53.04,-36.39zm-1063.75 -130.88l0.91 -0.99c28.11,75.2 55.98,150.49 83.66,225.85 -5.96,38.06 -13.92,75.82 -19.93,113.88 17.48,-21.43 33.97,-43.68 51.03,-65.44 55.74,-71.86 111.45,-143.74 167.07,-215.71 1.69,-2.93 5.21,-2.55 8.11,-2.64 22.9,0.09 45.82,0.08 68.71,0.08 3.54,0.3 6.54,-1.6 9.01,-3.92 12.1,-10.77 24.48,-21.23 36.68,-31.91 7.01,-6.33 14.73,-11.93 20.85,-19.18l1.09 -1.17c0.33,1.66 0.38,3.3 0.12,4.96 -7.43,35.3 -14.62,70.65 -22.05,105.96 -11.18,-0.07 -22.34,0.06 -33.52,0.01 -21.62,102.29 -43.59,204.52 -64.88,306.87 11.64,-0.29 23.3,-0.18 34.94,-0.15 -7.34,36.53 -15.93,72.82 -23.54,109.31 -57.94,-0.16 -115.9,0.4 -173.83,-0.27l1.36 -0.75c24.22,-15.84 47.19,-33.5 71.11,-49.82 3.51,-2.72 8.39,-4.91 9.23,-9.77 26.2,-124.71 52.56,-249.38 78.72,-374.1 1.93,-9.75 4.76,-19.35 5.52,-29.3 -5.17,6.7 -8.83,14.36 -13.11,21.63 -31.02,53.94 -61.7,108.09 -92.94,161.9 -53.7,69.35 -107.44,138.68 -161.44,207.78 -0.13,-2.36 -0.4,-4.73 -0.05,-7.06 6.19,-31.35 11.51,-62.86 17.6,-94.22 0.59,-3.64 1.44,-7.48 0.05,-11.03 -30.38,-75.36 -60.61,-150.78 -90.98,-226.14 -7.61,-18.45 -14.4,-37.23 -22.55,-55.44 -0.13,16.04 0.22,32.08 1.26,48.11 0.96,47.94 3.17,95.86 4.08,143.82 -19.18,91.59 -39.49,182.96 -58.58,274.58 -58.89,0.08 -117.79,0.33 -176.66,-0.13l1.3 -0.94c20.61,-16.38 40.18,-34.04 60.48,-50.82 2.71,-2.39 6.53,-1.91 9.88,-2.09 15.15,0.16 30.28,0.13 45.43,0.11 28.53,-134.4 57.66,-268.67 86.31,-403.06 0.92,-4.38 1.66,-8.86 3.28,-13.04 7.43,-1.47 15.1,0.53 22.52,-1.08 4.78,-3.21 8.05,-8.12 12.07,-12.15 13.86,-14.21 28.41,-27.76 41.68,-42.53zm594.26 196.99l0 0c-2.58,1.08 -5.3,1.78 -7.97,2.55 -6.75,17.12 -12.33,34.73 -18.64,52.03 -12.52,35.75 -25.28,71.43 -37.7,107.21 -18.43,9.86 -36.8,19.85 -55.28,29.63 -3.08,1.46 -5.9,3.35 -8.63,5.36 54.76,0.23 109.51,0.06 164.27,0.11 1.96,-13.59 0.81,-27.4 2.15,-41.03 2.25,-59.62 4.98,-119.19 7.27,-178.81 -15.62,6.62 -30.34,15.26 -45.47,22.95z"/>
  </g>
 </g>
</svg>
