<?xml version="1.0" encoding="UTF-8"?>
<!DOCTYPE svg PUBLIC "-//W3C//DTD SVG 1.1//EN" "http://www.w3.org/Graphics/SVG/1.1/DTD/svg11.dtd">
<!-- Creator: CorelDRAW -->
<svg xmlns="http://www.w3.org/2000/svg" xml:space="preserve" width="2000px" height="1600px" version="1.1" style="shape-rendering:geometricPrecision; text-rendering:geometricPrecision; image-rendering:optimizeQuality; fill-rule:evenodd; clip-rule:evenodd"
viewBox="0 0 2000 1600"
 xmlns:xlink="http://www.w3.org/1999/xlink">
 <defs>
  <style type="text/css">
   <![CDATA[
    .fil1 {fill:#012E64;fill-rule:nonzero}
    .fil2 {fill:#016856;fill-rule:nonzero}
    .fil0 {fill:#FEFEFE;fill-rule:nonzero}
   ]]>
  </style>
 </defs>
 <g id="Capa_x0020_1">
  <metadata id="CorelCorpID_0Corel-Layer"/>
  <g id="McNeese_x0020_State_x0020_Cowboys.cdr">
   <path class="fil0" d="M1435.26 637.23c17.03,-1.86 34.22,-1.88 51.27,-3.65 -1.86,17.68 -6.75,34.9 -9.91,52.38 -17.36,0.68 -34.64,2.54 -51.99,2.97 3.65,-17.21 7.15,-34.45 10.63,-51.7zm-614.08 121.3c7.9,-19.95 16.61,-39.59 25.18,-59.27 1.08,19.26 1.49,38.55 1.78,57.85 -9,0.33 -17.96,1.21 -26.96,1.42zm30.48 -377.4c23.99,-1.81 48.11,-2.77 72.14,-4.66 -2.39,19.54 -7.53,38.67 -11.2,58.01 -4.11,0.3 -8.19,0.77 -12.24,1.38 -0.05,0.81 -0.17,2.46 -0.22,3.27 20.23,-0.31 40.38,-2.45 60.61,-3.3 39.8,-2.41 79.6,-4.79 119.41,-7.22 1.86,0.15 4.18,-0.51 5.74,0.9 6.17,4.9 11.91,10.33 18.18,15.13 8.74,-6.32 17.31,-12.93 26.36,-18.8 18.64,-1.75 37.43,-2.43 56.14,-3.56 6.12,3.11 10.73,8.54 16.32,12.5 1.14,-4.48 2.12,-8.98 3.07,-13.5 46.6,-3.44 93.29,-5.63 139.93,-8.75 85.27,-4.99 170.52,-10.33 255.79,-15.35 10.61,-0.6 21.35,-1.95 31.94,-1.08 6.69,4.59 12.32,10.54 18.92,15.29 7.39,-5.07 14.65,-10.36 21.91,-15.63 2.46,-1.78 5.14,-3.7 8.36,-3.6 17.02,-0.55 33.99,-2.3 51.01,-2.9 5.98,2.95 10.35,8.63 16.03,12.27 0.94,-4.56 1.94,-9.11 3.14,-13.62 40.36,-2.23 80.69,-4.74 121.02,-7.27 -3.81,18.94 -7.51,37.91 -11.66,56.78 -9.7,0.77 -19.39,1.45 -29.11,1.67 -2.2,0.39 -6.09,-0.29 -6.51,2.74 -3.38,15.39 -6.26,30.91 -9.55,46.33 2.58,-0.06 5.16,-0.15 7.78,-0.19 -3.03,15.39 -6.13,30.78 -9.4,46.13 -22.02,1.41 -44.06,2.69 -66.11,3.97 2.39,-15.49 6.16,-30.74 9.04,-46.15 2.62,-0.22 5.23,-0.41 7.88,-0.57 3.46,-16.11 6.82,-32.25 9.89,-48.44 -15.86,0.3 -31.68,1.69 -47.48,2.87 5.92,5.2 11.89,10.39 18.1,15.25 -3.01,18.26 -7.29,36.29 -10.76,54.47 -0.78,2.8 -0.73,6.42 -3.65,7.97 -8.25,5.5 -15.91,11.97 -24.51,16.91 -14.48,1.37 -29.18,1.76 -43.73,3.01 -3.72,0.17 -7.49,0.83 -11.18,0.27 -5.49,-3.65 -10.25,-8.28 -15.46,-12.3 -1.1,4.55 -2.05,9.11 -2.83,13.71 -13.93,0.74 -27.86,1.55 -41.77,2.66 -2,0.04 -4.27,0.64 -5.87,-0.92 -1.25,-3.64 -1.87,-7.44 -2.9,-11.13 -1.27,4.12 -2.31,8.3 -3.21,12.52 -21.97,1.52 -43.98,2.6 -65.94,4.19 0.5,-5.41 1.82,-10.69 2.73,-16.03 -7.73,4.87 -15,10.42 -22.48,15.66 -2.71,2.27 -6.44,1.76 -9.71,2.1 -16.31,0.72 -32.59,2.15 -48.92,2.79 -2.15,0.35 -3.66,-1.54 -5.25,-2.59 -5.99,-5.17 -12.19,-10.13 -18.27,-15.19 -1.78,6.41 -2.96,12.98 -4.34,19.48 -41.78,2.45 -83.54,5.5 -125.35,7.29 2.88,-15.39 6.42,-30.63 9.24,-46.02 2.65,-0.13 5.31,-0.23 8,-0.36 3.9,-19.72 8.15,-39.38 12,-59.12 -3.38,0.3 -6.9,-0.05 -10.13,1.11 -10.09,16.06 -19.69,32.45 -29.66,48.6 -2.27,3.29 -2.89,7.28 -3.76,11.09 2.59,-0.02 5.16,-0.05 7.77,-0.03 -3.02,15.26 -6.31,30.47 -9.29,45.74 -7.36,1.2 -14.81,1.13 -22.21,1.51 -14.77,0.99 -29.52,2.03 -44.28,2.71 2.85,-15.33 6.25,-30.55 9.26,-45.84 2.67,-0.44 5.37,-0.84 8.09,-1.21 1.12,-6.09 2.98,-12.36 1.45,-18.57 -2.79,-12.95 -5.26,-25.95 -8.22,-38.87 -1.87,0.1 -3.72,0.19 -5.55,0.27 -0.74,3.44 -1.58,6.85 -2.31,10.29 -16.76,1.21 -33.56,1.96 -50.33,3.01 0.61,-3.41 1.21,-6.82 1.68,-10.24 -2.15,0.01 -4.28,0.04 -6.41,0.05 -4.04,19.84 -8.67,39.61 -11.84,59.6 2.09,-0.34 4.21,-0.71 6.34,-1.05 0.78,-3.41 1.59,-6.8 2.46,-10.19 16.77,-0.99 33.52,-1.94 50.29,-2.87 -3.01,13.16 -4.66,26.73 -8.61,39.62 -8.81,6.14 -17.41,12.68 -26.59,18.21 -11.23,1.35 -22.57,1.7 -33.87,2.23 -7.73,0.48 -15.56,1.63 -23.27,0.91 -5.11,-3.58 -9.57,-7.99 -14.41,-11.9 -1.41,4.44 -2.38,8.99 -3.19,13.56 -15.8,1.02 -31.59,1.85 -47.39,2.77 -1.01,-3.99 -1.98,-8.01 -3.33,-11.92 -1.05,4.08 -1.84,8.21 -2.75,12.32 -47.18,3.01 -94.36,5.68 -141.54,8.57 -4.93,-0.13 -9.57,1.39 -14.24,2.59 -27.94,1.97 -55.91,3.41 -83.85,5.15 2.66,-16.98 7.11,-33.66 9.87,-50.63 -5.58,6.92 -10.58,14.28 -15.76,21.5 -3.24,-8.41 -5.94,-17.02 -8.99,-25.51 -4.17,18.72 -7.78,37.55 -11.65,56.32 -29.36,1.42 -58.66,3.94 -88.05,4.97 4.02,-19.24 7.89,-38.51 11.81,-57.76 4.19,-0.37 8.38,-0.69 12.58,-1.01 6.51,-33.16 13.6,-66.2 20.18,-99.35 -3.97,0.11 -7.95,0.2 -11.91,0.31 3.98,-19.14 7.96,-38.28 11.71,-57.47 11.04,-1.45 22.21,-1.2 33.29,-2.24 12.4,-0.61 24.76,-1.84 37.16,-2.06 6.1,17.18 11.7,34.54 18.1,51.63 13.61,-18.26 26.47,-37.11 40.28,-55.19zm12.89 9.88l0 0c-3.14,0.46 -7.16,-0.21 -9.02,3.01 -15.82,21.82 -31.58,43.69 -47.41,65.5 -1.86,-3.95 -3.37,-8.06 -4.73,-12.19 -5.74,-17.08 -12.01,-33.98 -17.54,-51.13 -17.89,0.17 -35.69,2.26 -53.56,2.93 -2.81,11.79 -5.44,23.67 -7.25,35.66 3.73,-0.02 7.45,-0.15 11.19,-0.25 -0.58,5.54 -1.79,10.97 -2.97,16.4 -6.84,33.35 -13.67,66.7 -20.42,100.07 -0.66,1.72 -0.44,4.24 -2.33,5.19 -3.66,0.48 -7.35,0.37 -11.02,0.44 -2.56,11.98 -5.09,23.97 -7.3,36.01 21.67,-0.84 43.26,-2.87 64.93,-3.61 2.81,-11.99 5.6,-24.06 7.26,-36.27 -3.6,0.15 -7.16,0.47 -10.73,0.79 4.43,-23.71 9.29,-47.34 14.52,-70.87 2.42,4.66 4.07,9.66 5.73,14.62 5.42,15.83 10.89,31.65 16.53,47.39 16.81,-21.95 32.37,-44.83 48.98,-66.93 -4.33,23.93 -9.43,47.75 -14.52,71.55 -3.78,0.14 -7.55,0.36 -11.31,0.57 -2.08,11.99 -4.86,23.86 -7.18,35.81 21.8,-0.97 43.56,-2.57 65.33,-3.81 2.37,-11.89 4.97,-23.74 7.29,-35.65 -4.01,0.04 -7.99,0.21 -11.98,0.42 8.07,-40.65 16.26,-81.3 24.97,-121.81 3.82,-0.09 7.67,-0.26 11.51,-0.41 2.57,-11.9 4.84,-23.87 7.3,-35.8 -15.46,0.17 -30.82,1.87 -46.27,2.37zm953.13 3.97l0 0c-18.65,1.52 -37.35,1.91 -55.97,3.7 -2.23,11.45 -5.07,22.79 -6.72,34.32 9.2,-0.28 18.36,-1.37 27.57,-1.59 0.67,-3.35 1.39,-6.7 2.03,-10.07 2.43,-0.36 4.88,-0.68 7.35,-0.94 -5.04,27.06 -10.96,53.96 -16.34,80.95 -2.64,0.36 -5.29,0.72 -7.9,1.1 -1.79,7.85 -3.37,15.72 -4.98,23.61 14.61,-0.32 29.15,-1.65 43.74,-2.18 1.82,-7.91 3.24,-15.93 5.06,-23.84 -2.6,-0.13 -5.2,-0.23 -7.76,-0.34 5.25,-26.96 11.03,-53.82 16.38,-80.75 2.35,-0.13 4.74,-0.24 7.14,-0.36 -0.39,3.37 -0.95,6.73 -1.53,10.07 9.25,-0.27 18.46,-1.24 27.72,-1.48 2.11,-11.47 4.78,-22.82 6.83,-34.31 -14.24,0.17 -28.41,1.59 -42.62,2.11zm-134.52 8.45l0 0c-5.08,2.66 -9.4,6.51 -14.17,9.64 -2.89,2.23 -6.97,4.02 -7.29,8.14 -3.21,15.45 -6.35,30.91 -9.41,46.38 3.52,2.92 7.02,5.84 10.52,8.82 2.07,1.57 4.05,4 6.99,3.46 11.65,-0.57 23.29,-1.6 34.99,-1.69 -1.62,9.48 -3.8,18.86 -5.65,28.29 -9.18,0.3 -18.33,1.28 -27.51,1.17 0.6,-3.23 1.25,-6.42 1.89,-9.63 -9.21,0.21 -18.43,0.44 -27.6,1.29 -1.79,6.96 -3.11,14.04 -4.37,21.13 5.26,3.89 9.72,9 15.53,12.08 8.06,0.45 16.07,-1.01 24.13,-1.25 7.77,-0.57 15.66,-0.47 23.38,-1.81 6.21,-3.48 11.68,-8.1 17.58,-12.08 3.26,-1.74 3.51,-5.71 4.24,-8.93 2.78,-14.29 5.9,-28.5 8.6,-42.78 -5.14,-4.11 -9.52,-9.52 -15.45,-12.4 -12.27,0.12 -24.51,1.76 -36.8,1.53 1.16,-9.54 3.74,-18.82 5.5,-28.24 9.02,-0.32 18.03,-1.09 27.06,-1.23 -0.42,3.48 -0.84,6.95 -1.14,10.44 8.98,-1.31 18.08,-1.22 27.14,-1.72 1.78,-7.07 3.31,-14.22 4.51,-21.44 -5.11,-3.88 -9.7,-8.39 -14.87,-12.15 -15.94,0.47 -31.89,1.87 -47.8,2.98zm-128.23 7.42l0 0c-1.99,7.83 -3.44,15.77 -4.74,23.75 2.4,0.07 4.81,0.14 7.26,0.19 -4.89,27.02 -10.95,53.84 -16.3,80.78 -2.75,0.43 -5.46,0.85 -8.16,1.31 -1.51,7.73 -3.11,15.44 -4.49,23.19 14.59,0.01 29.12,-1.54 43.68,-2.16 1.57,-7.97 3.24,-15.93 4.85,-23.9 -2.63,-0.07 -5.22,-0.12 -7.8,-0.16 1.97,-9.44 3.74,-18.9 5.94,-28.28 2.58,-0.07 5.19,-0.14 7.81,-0.23 4.42,17.04 8.36,34.21 12.86,51.23 9.87,-0.76 19.76,-1.35 29.65,-1.75 1.83,-7.97 3.34,-16.01 4.99,-24.01 -3.58,0.06 -7.14,0.14 -10.69,0.21 -2.22,-7.98 -4.25,-16.01 -6.11,-24.07 -0.11,-1.56 -1.11,-3.84 0.53,-4.93 5.89,-5.13 12.5,-9.35 18.71,-14.08 2.37,-1.5 2.05,-4.67 2.84,-7.04 2.6,-14.03 6.1,-27.88 8.27,-41.98 -4.37,-3.84 -8.65,-7.83 -13.37,-11.25 -3.08,-2.24 -7.06,-0.52 -10.51,-0.59 -21.76,0.94 -43.46,2.76 -65.22,3.77zm-57.05 3.64l0 0c-1.7,7.98 -3.5,15.94 -4.81,23.99 2.56,0.01 5.13,-0.02 7.73,0 -5.43,26.85 -10.98,53.68 -16.38,80.54 -10.19,0.86 -20.4,1.68 -30.6,2.13 5.15,-27.02 10.89,-53.94 16.37,-80.91 2.69,-0.41 5.37,-0.85 8.09,-1.27 1.53,-7.78 3.1,-15.54 4.7,-23.32 -14.54,0.12 -29,1.61 -43.53,2.09 -1.86,8 -3.41,16.06 -5.14,24.09 2.6,-0.03 5.2,-0.07 7.84,-0.09 -6.05,30.54 -12.43,61.01 -18.57,91.54 4.7,4.33 9.54,8.57 14.81,12.2 11.32,0.57 22.61,-1.46 33.95,-1.55 5.84,-0.46 11.95,0.18 17.58,-1.67 5.92,-4 11.81,-8.07 17.62,-12.24 1.77,-1.08 2.81,-2.84 3.14,-4.9 6.2,-29.57 12.05,-59.25 18.29,-88.82 2.58,-0.17 5.19,-0.31 7.81,-0.47 1.61,-8.04 3.53,-16.03 4.81,-24.14 -14.58,0.82 -29.15,1.8 -43.71,2.8zm-115.67 7.05l0 0c-1.39,7.87 -3.05,15.7 -4.66,23.53 2.6,0.14 5.22,0.27 7.86,0.38 -2.22,9.24 -3.79,18.62 -5.86,27.89 -10.21,1.43 -20.59,0.71 -30.79,2.16 1.44,-9.17 3.44,-18.24 5.4,-27.29 2.13,-2 5.57,-1.58 8.29,-2.43 1.62,-7.7 3.29,-15.39 4.57,-23.16 -14.47,0.05 -28.86,1.52 -43.31,2.14 -1.99,7.92 -3.84,15.9 -4.82,24.02 2.36,0.01 4.72,0.03 7.1,0.07 -4.84,27.07 -10.74,53.97 -16.38,80.9 -2.59,0.19 -5.16,0.36 -7.72,0.56 -1.72,7.98 -3.36,15.97 -4.79,24.01 8.12,-0.32 16.22,-0.78 24.32,-1.42 6.51,-0.51 13.1,-0.1 19.52,-1.55 1.45,-7.76 3.1,-15.49 4.76,-23.22 -2.62,-0.03 -5.25,-0.07 -7.85,-0.1 1.82,-9.43 3.62,-18.88 5.81,-28.26 10.15,-0.9 20.32,-1.58 30.52,-1.59 -1.06,9.37 -3.82,18.46 -5.27,27.78 -2.74,0.4 -5.46,0.74 -8.18,1.06 -1.57,7.98 -3.29,15.91 -4.65,23.92 14.55,-0.94 29.12,-1.69 43.67,-2.84 1.69,-7.86 3.68,-15.68 4.48,-23.69 -2.44,-0.04 -4.85,-0.09 -7.24,-0.13 4.46,-24.71 10.11,-49.18 14.84,-73.84 0.65,-2.39 0.65,-5.2 2.39,-7.13 2.33,-0.3 4.67,-0.34 7.04,-0.47 1.77,-7.97 3.31,-15.99 5.01,-23.97 -14.71,0.52 -29.39,1.49 -44.06,2.67zm-114.34 6.43l0 0c-1.63,7.46 -3.91,14.87 -4.32,22.53 0.77,1.25 1.65,2.44 2.62,3.58 -4.12,7.3 -8.03,14.76 -12.77,21.7 -1.47,-7.11 -2.99,-14.21 -4.05,-21.39 1.57,-1.01 3.59,-1.49 4.78,-3.03 1.96,-7.4 3.21,-14.97 4.56,-22.5 -14.61,1.03 -29.27,1.32 -43.84,2.82 -1.24,8 -3.31,15.83 -4.76,23.81 3.58,0 7.16,-0.02 10.76,0.07 2.91,14.92 6.07,29.8 9.22,44.66 1,4.9 2.52,9.96 1.34,14.99 -1.3,6.4 -2.75,12.77 -3.88,19.19 -2.66,0.41 -5.3,0.78 -7.95,1.14 -1.82,7.91 -3.24,15.91 -4.9,23.86 14.61,-0.63 29.18,-1.94 43.78,-2.68 1.75,-7.94 3.34,-15.93 4.89,-23.91 -2.4,-0.03 -4.79,-0.05 -7.16,-0.07 1.85,-10.07 2.27,-20.98 8.27,-29.66 10.82,-17.5 21.19,-35.24 32.13,-52.67 2.89,-0.45 6.31,0.34 8.83,-1.38 2.02,-7.64 3.29,-15.47 4.84,-23.23 -14.15,0.47 -28.23,2.03 -42.39,2.17zm-132.98 8.37l0 0c-5.45,2.75 -9.94,7 -15.08,10.22 -2.55,1.99 -6.25,3.5 -6.51,7.18 -6.21,29.87 -12.19,59.78 -18.37,89.67 -0.59,3.42 -1.95,6.91 -1.33,10.42 4.47,4.1 9.08,8.2 14.1,11.62 11.16,0.47 22.28,-1.44 33.45,-1.55 5.45,-0.37 11.06,0.14 16.35,-1.49 5.45,-2.87 10.23,-6.87 15.33,-10.29 2.1,-1.7 5.1,-2.98 5.73,-5.91 1.59,-6.23 2.84,-12.54 3.76,-18.9 -8.82,0.84 -17.7,0.76 -26.53,1.46 -2.83,2.43 -2.16,7.25 -3.31,10.69 -9.81,-0.07 -19.5,1.35 -29.28,1.59 5.18,-27.1 10.95,-54.09 16.49,-81.12 9.66,-1.09 19.38,-1.33 29.1,-1.54 -0.54,3.34 -1.12,6.66 -1.59,10 9.07,-0.43 18.14,-1.19 27.22,-1.28 2.14,-6.93 3.31,-14.11 4.7,-21.22 -3.68,-3.04 -7.38,-6.05 -11.01,-9.12 -2.08,-1.56 -4.14,-3.82 -6.98,-3.3 -15.42,1.06 -30.87,1.62 -46.24,2.87zm562.22 0.8l0 0c-0.41,2.05 -0.81,4.08 -1.19,6.12 1.59,-0.02 3.2,-0.05 4.82,-0.07 0.54,-2.06 1.09,-4.12 1.66,-6.18 -1.78,0.04 -3.54,0.09 -5.29,0.13zm-660.9 4.97l0 0c-10.01,1.14 -20.14,0.73 -30.12,2.26 -1.48,7.8 -3.08,15.59 -4.79,23.37 2.59,0.15 5.2,0.29 7.82,0.44 -5.41,26.76 -11.11,53.46 -16.29,80.26 -2.77,0.48 -5.52,0.92 -8.27,1.34 -1.55,7.95 -3.21,15.9 -4.76,23.86 14.63,-1.25 29.32,-1.38 43.94,-2.8 1.44,-7.95 3.2,-15.83 4.68,-23.76 -2.6,-0.03 -5.17,-0.02 -7.75,-0.06 1.42,-7.58 3.21,-15.07 4.62,-22.64 0.49,-1.95 0.47,-4.33 2.22,-5.68 2.37,-0.25 4.77,-0.26 7.19,-0.3 3.74,17.14 8.4,34.09 12.59,51.13 9.11,-0.49 18.19,-1.42 27.33,-1.56 2.47,0.42 2.87,-2.73 3.37,-4.42 1.37,-6.54 2.74,-13.11 3.63,-19.74 -3.49,0.08 -6.97,0.18 -10.46,0.28 -2.23,-9.36 -5.07,-18.59 -6.75,-28.07 6.91,-5.82 14.9,-10.37 21.42,-16.65 2.71,-9.29 3.79,-19.01 6.04,-28.44 0.91,-6.41 3.54,-12.69 3.25,-19.21 -3.07,-3.21 -6.7,-5.75 -10.03,-8.68 -1.87,-1.51 -3.79,-3.51 -6.41,-3.2 -14.18,0.3 -28.31,1.81 -42.47,2.27zm-130.22 8.16l0 0 -0.7 0.68c-1.74,7.63 -3.39,15.34 -4.16,23.15 2.35,0.04 4.71,0.09 7.08,0.14 -4.78,25.02 -10.23,49.91 -15.12,74.91 -0.56,2 -0.64,4.29 -2.03,5.94 -2.34,0.28 -4.68,0.34 -7,0.45 -2.04,7.92 -3.35,16.01 -4.98,24.01 10.91,-0.22 21.78,-1.32 32.68,-1.84 18.28,-1.43 36.62,-1.77 54.87,-3.51 2.43,-11.44 4.97,-22.86 6.93,-34.39 -9.22,0.27 -18.37,1.59 -27.59,1.48 -1.28,3.48 -0.69,8.39 -3.78,10.73 -7.35,0.81 -14.77,0.57 -22.14,1 1.53,-9.47 3.72,-18.82 5.68,-28.2 12.51,-0.69 25.01,-1.48 37.53,-2.19 1.95,-7.97 3.57,-16.01 4.83,-24.13 -12.4,0.36 -24.77,1.65 -37.17,1.85 1.43,-9.59 3.38,-19.13 5.89,-28.49 7.82,-0.16 15.61,-0.81 23.42,-0.87 -0.73,3.41 -1.43,6.84 -1.89,10.3 9.23,-0.85 18.49,-1.28 27.73,-1.99 2.51,-11.44 4.75,-22.92 7.05,-34.4 -29.06,1.59 -58.11,3.22 -87.13,5.37zm631.87 -3.15l0 0c-3.63,19.59 -8.72,38.96 -11.44,58.7 1.89,-0.14 3.83,-0.25 5.75,-0.38 3.69,-19.86 8.29,-39.54 11.89,-59.42 -2.09,0.36 -4.15,0.73 -6.2,1.1zm-58.53 3.17l0 0c-3.98,19.79 -8.33,39.53 -12.04,59.4 2.72,-0.42 5.45,-0.86 8.19,-1.25 3.78,-19.53 7.81,-39.03 11.92,-58.5 -2.7,0.1 -5.38,0.22 -8.07,0.35zm-57.09 3.83l0 0c-3.92,19.57 -7.94,39.11 -12,58.65 1.52,-0.03 4.56,-0.06 6.08,-0.08 3.11,-12.41 5.16,-25.07 7.94,-37.56 1.3,-7.32 3.41,-14.51 4.02,-21.95 -2.03,0.3 -4.03,0.62 -6.04,0.94zm-58.86 3.11l0 0c-0.41,2.08 -0.82,4.14 -1.18,6.21 2.77,-0.11 5.59,-0.22 8.4,-0.35 0.3,-2.12 0.63,-4.22 0.97,-6.34 -2.74,0.17 -5.47,0.34 -8.19,0.48zm261.67 30.36l0 0c1.02,4.13 2.07,8.25 3.32,12.32 2.11,-0.33 4.24,-0.64 6.38,-0.95 0.53,-3.4 1.24,-6.74 1.97,-10.09 7.31,-0.53 14.65,-0.8 21.97,-1.41 -5.02,-4.75 -10.52,-8.91 -15.75,-13.4 -6.03,4.43 -12.05,8.87 -17.89,13.53zm-734.21 -1.81l0 0c-4.3,16.23 -6.78,32.92 -10.48,49.32 1.12,-0.16 3.36,-0.47 4.48,-0.63 3.39,-16.3 6.78,-32.6 9.9,-48.96 -0.97,0.07 -2.92,0.2 -3.9,0.27zm795.44 4.25l0 0c-0.22,2.16 -0.44,4.32 -0.59,6.48 1.57,-0.28 3.18,-0.58 4.8,-0.86 0.11,-2.04 0.24,-4.07 0.4,-6.09 -1.57,0.16 -3.1,0.32 -4.61,0.47zm-705.13 0.5l0 0c-2.3,12.75 -5.53,25.32 -7.56,38.13 4,-0.12 8.02,-0.26 12.03,-0.39 2.61,-12.77 5.41,-25.5 7.74,-38.34 -4.08,0.15 -8.14,0.36 -12.21,0.6zm371.32 19.43l0 0c-0.3,2.01 -0.6,4.05 -0.87,6.06 2.73,-0.04 5.47,-0.1 8.23,-0.17 0.36,-2.04 0.73,-4.09 1.11,-6.14 -2.83,0.06 -5.66,0.15 -8.47,0.25zm-275.99 10.56l0 0c1.01,4.06 2.05,8.12 3.13,12.17 2.11,-0.07 4.24,-0.15 6.39,-0.22 1.45,-7.34 3.14,-14.61 4.38,-21.97 -4.76,3.17 -9.32,6.59 -13.9,10.02zm-305.35 2.48l0 0c-1.81,6.08 -2.87,12.32 -3.89,18.56 3.39,-0.13 6.79,-0.25 10.19,-0.42 -1.91,-6.12 -4.07,-12.14 -6.3,-18.14zm37.33 16.23l0 0c2.52,-0.11 5.05,-0.27 7.59,-0.41 0.88,-4.39 1.91,-8.74 2.6,-13.17 -3.86,4.14 -7.06,8.86 -10.19,13.58zm125.48 -2.39l0 0c-0.98,1.4 -1.02,2.77 -0.11,4.14 2.72,0.98 3.04,-6.37 0.11,-4.14zm651.82 -103.78c9.4,-0.81 18.82,-1.52 28.29,-1.63 -1.81,9.43 -3.78,18.83 -5.67,28.23 -9.34,0.5 -18.65,1.41 -27.98,1.77 0.92,-9.6 3.81,-18.86 5.36,-28.37zm9.15 10.05l0 0c-0.46,2.1 -0.9,4.2 -1.31,6.32 2,-0.13 4.03,-0.25 6.07,-0.4 0.1,-2 0.22,-3.99 0.37,-5.99 -1.74,0.03 -3.44,0.04 -5.13,0.07zm-557.7 22.91c9.44,-0.4 18.85,-1.4 28.3,-1.59 -1.92,9.46 -3.5,19.01 -5.81,28.4 -9.34,0.43 -18.63,1.45 -27.99,1.49 1.33,-9.53 3.7,-18.87 5.5,-28.3zm8.72 10.71l0 0c-0.27,2.03 -0.52,4.07 -0.74,6.08 1.82,-0.08 3.65,-0.18 5.51,-0.27 0.44,-2.16 0.88,-4.32 1.32,-6.48 -2.04,0.22 -4.08,0.43 -6.09,0.67zm-417.62 40.53c15.59,-0.34 31.11,-2.19 46.7,-2.33 -0.59,5.16 -1.81,10.2 -2.82,15.29 -5.13,23.92 -9.59,47.98 -14.8,71.88 -7.18,0.17 -14.34,0.6 -21.46,1.46 -10.35,50.21 -20.59,100.45 -30.84,150.67 -3.14,16.16 -6.96,32.2 -9.58,48.46 11.29,0 22.5,-1.67 33.78,-1.76 2.3,-9.34 4.28,-18.78 5.8,-28.27 7.1,-1.12 14.31,-1.29 21.5,-1.51 25.64,-1.57 51.24,-3.56 76.92,-4.52 -2.55,16.29 -6.62,32.29 -9.56,48.49 3.44,-0.07 6.88,-0.2 10.3,-0.6 28.13,-64.85 55.7,-129.95 83.89,-194.78 29.61,-1.1 59.16,-3.71 88.77,-4.92 1.71,50.52 2.68,101.05 4.37,151.57 0.23,12.51 0.71,25 0.78,37.5 5.61,-0.24 11.18,-0.86 16.8,-1.15 -4.1,22.19 -8.98,44.21 -13.46,66.33 -34.09,1.32 -68.11,4.09 -102.18,5.84 4.27,-20.75 8.54,-41.51 12.68,-62.29 -1.25,-0.01 -3.77,-0.03 -5.02,-0.04 -4.38,20.87 -8.44,41.79 -12.84,62.65 -31.03,1.98 -62.05,3.7 -93.06,5.7 -5.2,0.9 -10.37,1.93 -15.66,2 -80.54,4.74 -161.08,9.73 -241.63,14.57 3.23,-20.38 8.25,-40.43 12.03,-60.71 1.82,-8.96 3.52,-17.96 5.75,-26.83 7.11,-0.24 14.2,-0.51 21.26,-1.25 13.53,-66.46 27.37,-132.87 40.62,-199.38 -7.11,0.22 -14.17,0.83 -21.25,1.31 5.76,-29.17 11.8,-58.29 17.74,-87.42 31.47,-2.32 63.01,-3.59 94.47,-5.96zm-55.49 14.44l0 0c-10.02,1.26 -20.18,0.45 -30.16,2.13 -3.72,21.59 -9.36,42.85 -12.45,64.53 6.97,0.04 13.93,-0.52 20.89,-0.75 -15.09,73.84 -30.37,147.65 -45.19,221.53 -7.26,0.57 -14.55,0.77 -21.8,1.52 -4.23,21.62 -8.89,43.16 -13.04,64.79 8.41,-0.41 16.87,-0.34 25.25,-1.31 68.25,-3.89 136.47,-8.45 204.72,-12.18 6.37,-31.19 12.91,-62.35 19.09,-93.57 -7.46,-0.16 -14.9,0.56 -22.31,1.26 -17.77,0.54 -35.49,2.19 -53.24,3.04 -2.26,9.44 -3.86,19.02 -6.12,28.45 -18.92,0.87 -37.78,2.83 -56.72,3.1 14.81,-73.77 30.2,-147.41 45.06,-221.18 7.15,-1.55 15.14,0.57 21.79,-2.47 4.62,-21.29 8.72,-42.7 13.2,-64.04 -29.67,1.37 -59.3,3.47 -88.97,5.15zm252.34 98.99l0 0c-27.7,64.93 -55.72,129.72 -83.57,194.59 -4.35,0.37 -9.14,-0.59 -13.16,1.15 -3.32,14.24 -6.09,28.62 -8.89,42.99 26.46,-0.87 52.85,-3.38 79.32,-4.4 2.94,-14.57 6.72,-29.02 8.45,-43.8 -4.6,0.13 -9.19,0.23 -13.78,0.25 2.8,-6.15 5.44,-12.39 8.08,-18.61 15.99,-0.24 31.88,-2.49 47.88,-2.29 0.1,5.91 0.04,11.85 0.2,17.78 -4.69,0.42 -9.35,0.96 -14.04,1.28 -2.6,14.48 -6.34,28.76 -8.43,43.32 26.39,-1.34 52.78,-2.77 79.13,-4.74 3.14,-14.37 6.09,-28.76 8.85,-43.19 -4.53,0.04 -9.07,0.11 -13.59,0.33 -1.32,-42.85 -2.09,-85.72 -3.7,-128.57 -0.33,-20.15 -0.74,-40.29 -1.6,-60.39 -23.74,0.99 -47.45,2.74 -71.15,4.3zm784.23 -58.28c30.62,-2.14 61.29,-3.8 91.91,-5.68 2.05,-0.36 3.58,1.36 5.16,2.4 10.76,8.92 21.36,18.03 32.19,26.89 -3.08,17.78 -7.12,35.35 -10.53,53.06 -24.44,1.18 -48.84,3.04 -73.29,4.25 1.26,-6.18 2.68,-12.35 3.6,-18.6 -9.25,-0.07 -18.45,0.74 -27.65,1.41 -2.12,9.97 -4,19.99 -6.17,29.95 19.71,-0.95 39.43,-3.05 59.17,-3.05 12.31,9.01 23.58,19.58 35.42,29.27 -6.54,32.29 -13.15,64.55 -19.77,96.81 -0.54,1.97 -0.54,4.49 -2.63,5.54 -11.44,7.94 -22.74,16.1 -34.04,24.24 -3.49,2.42 -6.85,5.76 -11.42,5.57 -27.94,1.61 -55.89,3.21 -83.83,5.06 -3,-0.13 -6.62,1.08 -8.9,-1.45 -11.18,-9.22 -22.38,-18.43 -33.56,-27.64 3.12,-17.76 7.04,-35.38 10.7,-53.05 24.33,-1.21 48.64,-3.07 72.97,-4.29 -0.91,6.32 -2.47,12.53 -3.58,18.83 9.29,-0.38 18.61,-0.74 27.88,-1.75 1.85,-9.92 4.34,-19.72 5.74,-29.73 -18.52,1.1 -37.03,2.26 -55.56,3.19 -3.54,0.59 -5.99,-2.31 -8.46,-4.25 -9.19,-7.92 -18.71,-15.44 -27.94,-23.31 -2.95,-1.86 -1.32,-5.67 -1.01,-8.43 6.87,-31.27 12.35,-62.89 19.61,-94.06 8.53,-7.22 18.21,-13.04 27.15,-19.78 5.7,-3.64 10.73,-8.5 16.84,-11.4zm13.73 9.91l0 0c-4.65,0.34 -9.82,-0.17 -13.73,2.84 -10.23,7.29 -20.37,14.7 -30.68,21.83 -1.52,1.23 -3.67,2.2 -4.04,4.33 -6.12,29.5 -12.01,59.08 -18.1,88.61 9.36,7.53 18.04,16.06 28.03,22.72 22.67,-1.14 45.32,-2.6 67.99,-4.03 -3.43,17.5 -7.12,34.94 -10.63,52.42 -16.73,0.42 -33.4,1.86 -50.09,2.86 0.58,-6.3 2.16,-12.44 3.32,-18.65 -16.9,0.04 -33.69,1.79 -50.55,2.7 -2.54,12.71 -5.13,25.4 -7.64,38.1 9.19,7.47 18.1,15.42 27.68,22.37 28.04,-0.91 56.01,-3.61 84.03,-4.68 5.64,-0.99 9.75,-5.61 14.44,-8.58 8.28,-6.42 17.52,-11.67 25.32,-18.65 4.11,-15.94 6.57,-32.3 10.29,-48.35 2.49,-14.09 6.34,-27.96 8.02,-42.17 -7.96,-6.41 -15.64,-13.16 -23.54,-19.64 -1.55,-0.99 -2.91,-2.77 -4.89,-2.68 -22.45,1.42 -44.92,3.05 -67.4,4 3.95,-17.21 6.96,-34.63 10.93,-51.84 16.72,-1.23 33.47,-2.57 50.26,-2.7 -1.19,6.23 -2.7,12.39 -3.45,18.69 16.8,-1.38 33.65,-2.13 50.48,-3.34 2,-12.69 5.81,-25.12 7.1,-37.89 -6.18,-6.68 -13.9,-11.71 -20.6,-17.83 -2.73,-1.93 -5.09,-5.53 -8.86,-4.83 -24.55,1.56 -49.11,3.05 -73.69,4.39zm-253.09 4.4c48.39,-2.91 96.77,-5.84 145.15,-8.78 4.07,-0.78 6.73,3.07 9.68,5.19 8.9,7.69 18.02,15.12 26.97,22.75 2.43,1.72 0.97,4.93 0.84,7.35 -6.36,30.38 -12.18,60.89 -18.84,91.19 -11.98,9.85 -24.88,18.63 -37.18,28.12 2.53,10.59 5.25,21.15 7.88,31.72 0.46,1.62 0.83,4.59 3.33,3.78 7.44,-0.87 14.94,-1.08 22.44,-1.15 -4.17,21.88 -9.02,43.66 -13.28,65.54 -23.95,1.55 -47.89,2.98 -71.85,4.32 -4.52,-18.37 -8.94,-36.78 -13.87,-55.04 -4.17,18.79 -7.72,37.69 -11.67,56.52 -34.05,2.36 -68.11,4.28 -102.18,6.12 4.37,-21.98 8.56,-44.02 13.63,-65.85 4.71,-0.1 9.41,-0.31 14.11,-0.71 8.63,-41.98 17.18,-83.97 25.78,-125.97 -4.77,0.18 -9.55,0.47 -14.31,0.66 4.35,-21.94 8.85,-43.84 13.37,-65.76zm9 10.36l0 0c-2.79,14.56 -6,29.04 -8.73,43.6 4.71,-0.14 9.44,-0.38 14.16,-0.49 -9.52,47.09 -19.23,94.16 -28.81,141.25 -0.68,2.26 -0.67,5.05 -2.58,6.69 -4.45,0.49 -8.91,0.63 -13.35,1.18 -2.88,14.44 -5.77,28.87 -8.82,43.26 26.57,-1.16 53.1,-3.14 79.68,-4.53 2.85,-14.61 6.09,-29.15 8.74,-43.8 -4.66,0.3 -9.31,0.5 -13.97,0.46 3.11,-17.37 6.96,-34.61 10.5,-51.9 4.9,-0.12 9.81,-0.22 14.72,-0.23 7.68,30.94 15.39,61.86 23.11,92.78 17.96,-0.77 35.88,-2.71 53.87,-3.01 3.58,-14.49 6.31,-29.19 9.11,-43.84 -6.42,-0.04 -12.82,0.37 -19.17,1.29 -4.73,-17.12 -9.15,-34.36 -13.19,-51.67 12.32,-9.35 24.82,-18.46 37.18,-27.77 3.04,-1.74 3.34,-5.4 4.02,-8.47 5.06,-26.74 11.27,-53.27 16.1,-80.05 -8.84,-7.71 -17.62,-15.59 -26.94,-22.65 -45.22,2.16 -90.41,5.43 -135.63,7.9zm44.49 153.99l0 0c-2.04,7.29 -3.34,14.77 -4.83,22.19 3.53,-0.15 7.05,-0.33 10.59,-0.56 -1.79,-7.25 -3.34,-14.57 -5.76,-21.63zm-236.86 -153.32c60.65,-3.62 121.32,-7.25 181.97,-11.03 -5.76,28.35 -11.22,56.79 -17.51,85.03 -24.32,1.52 -48.63,2.88 -72.95,4.36 1.17,-6.25 2.52,-12.48 3.7,-18.73 -7.05,0.31 -14.16,0.07 -21.12,1.31 -1.93,9.79 -4.22,19.51 -5.85,29.36 22.81,-0.63 45.54,-2.82 68.34,-3.7 -3.91,22.06 -8.79,43.93 -13.23,65.88 -22.9,1.5 -45.8,2.76 -68.7,4.13 -2.14,9.96 -4.36,19.92 -6.18,29.97 7.08,-0.34 14.18,-0.52 21.25,-1.45 1.02,-6.3 2.41,-12.51 3.7,-18.75 24.38,-1.48 48.73,-3.17 73.12,-4.3 -5.47,28.38 -11.53,56.63 -17.2,84.96 -60.63,3.19 -121.23,7.32 -181.85,10.75 3.98,-22.04 8.69,-43.96 13.41,-65.86 4.69,-0.21 9.37,-0.58 14.06,-0.84 8.98,-41.89 17.23,-83.95 25.9,-125.92 -4.79,0.2 -9.56,0.47 -14.32,0.7 4.28,-22 8.91,-43.93 13.46,-65.87zm137.9 2.72l0 0c-42.92,2.4 -85.82,5.32 -128.75,7.54 -3.19,14.52 -6.17,29.11 -8.88,43.73 4.6,-0.13 9.23,-0.29 13.85,-0.26 -2.3,14.54 -5.88,28.82 -8.58,43.29 -7.25,34.74 -14.08,69.58 -21.35,104.31 -4.79,0.49 -9.59,0.78 -14.39,1.01 -2.97,14.52 -6.01,29.03 -8.87,43.58 35.1,-1.66 70.16,-4.22 105.26,-6.22 17.98,-1.13 36,-1.91 53.96,-3.46 4.73,-20.74 8.55,-41.71 12.89,-62.54 -16.78,0.77 -33.51,2.32 -50.29,3 -1.68,6.39 -2.87,12.9 -4.32,19.34 -14.51,0.2 -28.94,1.83 -43.45,2.13 3.24,-17.22 7.09,-34.33 10.35,-51.55 3.88,-0.45 7.76,-1.01 11.67,-1.16 19.12,-0.69 38.19,-2.6 57.34,-3.21 3.02,-14.62 6.02,-29.26 8.92,-43.91 -22.93,1.14 -45.89,2.7 -68.82,4.06 3.58,-17.39 7.09,-34.81 10.71,-52.19 14.55,-0.83 29.08,-1.98 43.67,-2.18 -1.29,6.17 -2.77,12.31 -3.44,18.59 16.7,-0.79 33.33,-2.5 50.05,-2.83 4.35,-20.83 9.03,-41.62 12.57,-62.61 -10.04,0.31 -20.1,0.48 -30.1,1.54zm-247.58 4.03c36.05,-2.33 72.13,-4.55 108.2,-6.55 -4.19,21.96 -9.04,43.77 -13.22,65.73 -6.19,0.65 -12.43,0.69 -18.61,1.39 -4.85,3.48 -8.83,8.03 -13.28,12.01 -15.44,14.61 -30.88,29.24 -46.32,43.87 9.32,23.53 19.31,46.79 28.93,70.2 7.9,-0.02 15.73,-1.38 23.66,-1.21 -4.9,21.76 -9.39,43.63 -13.49,65.55 -36.09,2.53 -72.24,4.44 -108.35,6.7 3.62,-21.8 9.15,-43.25 12.79,-65.03 1.56,-0.6 3.14,-1.18 4.71,-1.75 -2.3,-6.08 -4.74,-12.11 -7.39,-18.05 -4.8,4.31 -9.65,8.59 -14.14,13.2 -1.96,1.72 -1.9,4.51 -2.47,6.84 4.75,-0.2 9.51,-0.47 14.27,-0.7 -4.38,21.96 -8.9,43.9 -13.4,65.84 -16.53,0.93 -33.03,2.23 -49.56,2.87 -17.46,1.07 -34.93,2.7 -52.42,2.85 4.36,-21.53 8.81,-43.08 13.12,-64.61 4.19,-2.26 9.66,-0.88 14.39,-1.43 9.14,-41.97 17.34,-84.16 25.98,-126.24 -4.67,0.24 -9.35,0.54 -14.01,0.63 3.94,-22 8.8,-43.84 13.22,-65.76 33.99,-2.01 67.97,-4.1 101.96,-6.16 -4.09,20.65 -8.53,41.22 -12.49,61.88 2.61,-2.87 6.53,-5.13 7.06,-9.3 3.72,-17.57 7.08,-35.22 10.86,-52.77zm8.96 10.45l0 0c-2.81,14.25 -5.92,28.45 -8.67,42.7 1.68,0.53 3.39,1.05 5.09,1.59 -19.34,18.79 -39.25,36.98 -58.72,55.62 3.81,-17.92 7.19,-35.94 11.2,-53.83 4.75,-0.23 9.49,-0.51 14.24,-0.74 2.64,-13.95 6.1,-27.78 8.14,-41.85 0.67,-0.17 1.34,-0.34 2.02,-0.51 -2.29,-0.81 -4.67,-1.51 -7.12,-1.18 -24.51,1.84 -49.1,2.6 -73.6,4.71 -2.81,14.49 -6.01,28.89 -8.79,43.38 4.63,-0.11 9.26,-0.33 13.9,-0.44 -3.29,20.18 -8.12,40.09 -11.94,60.18 -6.01,29.28 -11.94,58.57 -17.98,87.83 -4.82,0.24 -9.62,0.45 -14.42,0.64 -2.73,14.59 -6.04,29.06 -8.76,43.65 26.39,-1.01 52.74,-3.27 79.12,-4.4 3.31,-14.48 6.06,-29.08 9.03,-43.63 -4.66,0.04 -9.32,0.18 -13.98,0.2 1.08,-6.81 2.32,-13.6 3.95,-20.31 0.51,-2.8 2.86,-4.6 4.75,-6.51 8.28,-7.81 16.82,-15.37 24.8,-23.52 4.4,8.2 7.47,17.03 11.11,25.57 2.81,7.4 6.56,14.47 8.37,22.22 -3.64,0.18 -7.28,0.32 -10.9,0.47 -3.07,14.37 -5.74,28.82 -9.03,43.13 28.58,-0.65 57.09,-3.09 85.63,-4.77 3.21,-14.31 6.11,-28.68 8.92,-43.06 -5.59,0.06 -11.16,0.28 -16.71,0.47 -11.12,-26.53 -21.96,-53.18 -33.14,-79.68 -0.39,-1.71 -2.52,-4.08 -0.56,-5.52 8.87,-8.76 17.87,-17.42 27.13,-25.77 12.85,-12.32 25.58,-24.76 38.84,-36.63 4.79,-1.83 10.03,-1.27 15.06,-1.6 2.28,-14.65 6.56,-28.98 8.16,-43.73 -28.38,1.89 -56.79,3.23 -85.14,5.32zm-42.29 56.6l0 0c-0.72,3.61 -1.38,7.25 -1.97,10.88 4.29,-3.55 8.48,-7.24 12,-11.59 -3.36,0.17 -6.69,0.42 -10.03,0.71zm400.72 -24.13l0 0c-1.95,9.99 -4.21,19.94 -6.02,29.95 9.69,-0.55 19.38,-1.3 29.1,-1.89 2.34,-9.81 4.12,-19.75 6.18,-29.62 -9.76,0.31 -19.54,0.55 -29.26,1.56z"/>
   <path class="fil1" d="M914.53 355.81c12.12,-0.78 24.23,-2.17 36.4,-2.33 -3.41,21.3 -7.69,42.45 -11.17,63.74 35.57,-2.55 71.14,-5.35 106.71,-8.05 14.97,-0.93 29.95,-2.7 44.93,-3 5.03,3.68 9.54,8.03 14.44,11.9 6.39,-4.29 11.3,-11.01 18.46,-13.99 166.66,-9.86 333.36,-19.72 500.04,-29.55 5.71,-0.27 11.41,-1.11 17.14,-0.8 4.84,3.31 8.65,7.89 13.04,11.77 5.56,-4.25 10.87,-8.8 16.34,-13.15 1.41,-1.08 2.87,-2.37 4.79,-2.37 74.78,-3.85 149.56,-7.86 224.35,-11.77 -6.49,33.81 -13.39,67.53 -20.11,101.28 -11.65,0.33 -23.3,0.07 -34.96,0.19 -0.44,2.05 -0.85,4.09 -1.25,6.14 2.99,0.08 5.99,0.14 9.01,0.22 -5.98,29.41 -11.91,58.82 -18.26,88.14 -35.01,2.16 -70.07,3.85 -105.1,5.83 11.08,9.66 22.37,19.14 33.93,28.25 -5.5,27.03 -11.46,53.97 -17.36,80.92 -6.09,-0.03 -12.18,-0.08 -18.25,0.18 4.99,5.14 10.3,9.98 15.78,14.62 -8.12,39.61 -16.56,79.14 -24.68,118.75 -0.15,2.17 -1.91,3.55 -3.56,4.69 -16.81,11.51 -33.47,23.28 -50.12,35 -2.19,1.63 -4.89,2.26 -7.54,2.39 -33.8,1.62 -67.57,4.57 -101.36,6.11 -6.85,-4.15 -12.14,-10.38 -18.69,-14.97 -0.95,5.6 -1.88,11.2 -3,16.76 -170.13,10.86 -340.33,20.95 -510.5,31.65 -197.55,11.96 -395.09,24.52 -592.65,36.32 8.97,-43.37 17.6,-86.8 26.75,-130.13 7.52,-0.65 15.08,-0.47 22.61,-0.77 10.22,-52.79 21.34,-105.38 31.25,-158.23 -7.19,0.14 -14.36,0.83 -21.55,0.98 8.63,-43.42 18.48,-86.59 27.69,-129.88 58.39,-3.78 116.84,-6.86 175.22,-10.91 1.53,-7.09 3.17,-14.18 4.2,-21.38 -4.08,-0.08 -8.14,-0.09 -12.2,-0.21 6.16,-34.03 13.23,-67.93 19.72,-101.9 27.07,-0.87 54.06,-3.17 81.13,-3.94 -3.84,-0.37 -7.7,-0.65 -11.54,-1.02 11.38,1.2 22.8,0.18 34.18,-0.29 3.65,9.39 6.52,19.09 10.63,28.3 7.67,-10.11 14.86,-20.57 22.59,-30.63 24.19,-1.5 48.34,-3.44 72.52,-4.86zm508.99 395.26c2.42,7.06 3.97,14.38 5.76,21.63 -3.54,0.23 -7.06,0.41 -10.59,0.56 1.49,-7.42 2.79,-14.9 4.83,-22.19zm-379.87 -79.52c3.34,-0.29 6.67,-0.54 10.03,-0.71 -3.52,4.35 -7.71,8.04 -12,11.59 0.59,-3.63 1.25,-7.27 1.97,-10.88zm400.72 -24.13c9.72,-1.01 19.5,-1.25 29.26,-1.56 -2.06,9.87 -3.84,19.81 -6.18,29.62 -9.72,0.59 -19.41,1.34 -29.1,1.89 1.81,-10.01 4.07,-19.96 6.02,-29.95zm-635.91 -108.19c3.13,-4.72 6.33,-9.44 10.19,-13.58 -0.69,4.43 -1.72,8.78 -2.6,13.17 -2.54,0.14 -5.07,0.3 -7.59,0.41zm-37.33 -16.23c2.23,6 4.39,12.02 6.3,18.14 -3.4,0.17 -6.8,0.29 -10.19,0.42 1.02,-6.24 2.08,-12.48 3.89,-18.56zm305.35 -2.48c4.58,-3.43 9.14,-6.85 13.9,-10.02 -1.24,7.36 -2.93,14.63 -4.38,21.97 -2.15,0.07 -4.28,0.15 -6.39,0.22 -1.08,-4.05 -2.12,-8.11 -3.13,-12.17zm275.99 -10.56c2.81,-0.1 5.64,-0.19 8.47,-0.25 -0.38,2.05 -0.75,4.1 -1.11,6.14 -2.76,0.07 -5.5,0.13 -8.23,0.17 0.27,-2.01 0.57,-4.05 0.87,-6.06zm-371.32 -19.43c4.07,-0.24 8.13,-0.45 12.21,-0.6 -2.33,12.84 -5.13,25.57 -7.74,38.34 -4.01,0.13 -8.03,0.27 -12.03,0.39 2.03,-12.81 5.26,-25.38 7.56,-38.13zm705.13 -0.5c1.51,-0.15 3.04,-0.31 4.61,-0.47 -0.16,2.02 -0.29,4.05 -0.4,6.09 -1.62,0.28 -3.23,0.58 -4.8,0.86 0.15,-2.16 0.37,-4.32 0.59,-6.48zm-795.44 -4.25c0.98,-0.07 2.93,-0.2 3.9,-0.27 -3.12,16.36 -6.51,32.66 -9.9,48.96 -1.12,0.16 -3.36,0.47 -4.48,0.63 3.7,-16.4 6.18,-33.09 10.48,-49.32zm155.09 -9.05c2.01,-0.24 4.05,-0.45 6.09,-0.67 -0.44,2.16 -0.88,4.32 -1.32,6.48 -1.86,0.09 -3.69,0.19 -5.51,0.27 0.22,-2.01 0.47,-4.05 0.74,-6.08zm579.12 10.86c5.84,-4.66 11.86,-9.1 17.89,-13.53 5.23,4.49 10.73,8.65 15.75,13.4 -7.32,0.61 -14.66,0.88 -21.97,1.41 -0.73,3.35 -1.44,6.69 -1.97,10.09 -2.14,0.31 -4.27,0.62 -6.38,0.95 -1.25,-4.07 -2.3,-8.19 -3.32,-12.32zm-261.67 -30.36c2.72,-0.14 5.45,-0.31 8.19,-0.48 -0.34,2.12 -0.67,4.22 -0.97,6.34 -2.81,0.13 -5.63,0.24 -8.4,0.35 0.36,-2.07 0.77,-4.13 1.18,-6.21zm58.86 -3.11c2.01,-0.32 4.01,-0.64 6.04,-0.94 -0.61,7.44 -2.72,14.63 -4.02,21.95 -2.78,12.49 -4.83,25.15 -7.94,37.56 -1.52,0.02 -4.56,0.05 -6.08,0.08 4.06,-19.54 8.08,-39.08 12,-58.65zm57.09 -3.83c2.69,-0.13 5.37,-0.25 8.07,-0.35 -4.11,19.47 -8.14,38.97 -11.92,58.5 -2.74,0.39 -5.47,0.83 -8.19,1.25 3.71,-19.87 8.06,-39.61 12.04,-59.4zm58.53 -3.17c2.05,-0.37 4.11,-0.74 6.2,-1.1 -3.6,19.88 -8.2,39.56 -11.89,59.42 -1.92,0.13 -3.86,0.24 -5.75,0.38 2.72,-19.74 7.81,-39.11 11.44,-58.7zm57.05 -4.01c1.69,-0.03 3.39,-0.04 5.13,-0.07 -0.15,2 -0.27,3.99 -0.37,5.99 -2.04,0.15 -4.07,0.27 -6.07,0.4 0.41,-2.12 0.85,-4.22 1.31,-6.32zm102.2 -5.97c1.75,-0.04 3.51,-0.09 5.29,-0.13 -0.57,2.06 -1.12,4.12 -1.66,6.18 -1.62,0.02 -3.23,0.05 -4.82,0.07 0.38,-2.04 0.78,-4.07 1.19,-6.12zm-845.45 -56.01l0 0c-13.81,18.08 -26.67,36.93 -40.28,55.19 -6.4,-17.09 -12,-34.45 -18.1,-51.63 -12.4,0.22 -24.76,1.45 -37.16,2.06 -11.08,1.04 -22.25,0.79 -33.29,2.24 -3.75,19.19 -7.73,38.33 -11.71,57.47 3.96,-0.11 7.94,-0.2 11.91,-0.31 -6.58,33.15 -13.67,66.19 -20.18,99.35 -4.2,0.32 -8.39,0.64 -12.58,1.01 -3.92,19.25 -7.79,38.52 -11.81,57.76 29.39,-1.03 58.69,-3.55 88.05,-4.97 3.87,-18.77 7.48,-37.6 11.65,-56.32 3.05,8.49 5.75,17.1 8.99,25.51 5.18,-7.22 10.18,-14.58 15.76,-21.5 -2.76,16.97 -7.21,33.65 -9.87,50.63 27.94,-1.74 55.91,-3.18 83.85,-5.15 4.67,-1.2 9.31,-2.72 14.24,-2.59 47.18,-2.89 94.36,-5.56 141.54,-8.57 0.91,-4.11 1.7,-8.24 2.75,-12.32 1.35,3.91 2.32,7.93 3.33,11.92 15.8,-0.92 31.59,-1.75 47.39,-2.77 0.81,-4.57 1.78,-9.12 3.19,-13.56 4.84,3.91 9.3,8.32 14.41,11.9 7.71,0.72 15.54,-0.43 23.27,-0.91 11.3,-0.53 22.64,-0.88 33.87,-2.23 9.18,-5.53 17.78,-12.07 26.59,-18.21 3.95,-12.89 5.6,-26.46 8.61,-39.62 -16.77,0.93 -33.52,1.88 -50.29,2.87 -0.87,3.39 -1.68,6.78 -2.46,10.19 -2.13,0.34 -4.25,0.71 -6.34,1.05 3.17,-19.99 7.8,-39.76 11.84,-59.6 2.13,-0.01 4.26,-0.04 6.41,-0.05 -0.47,3.42 -1.07,6.83 -1.68,10.24 16.77,-1.05 33.57,-1.8 50.33,-3.01 0.73,-3.44 1.57,-6.85 2.31,-10.29 1.83,-0.08 3.68,-0.17 5.55,-0.27 2.96,12.92 5.43,25.92 8.22,38.87 1.53,6.21 -0.33,12.48 -1.45,18.57 -2.72,0.37 -5.42,0.77 -8.09,1.21 -3.01,15.29 -6.41,30.51 -9.26,45.84 14.76,-0.68 29.51,-1.72 44.28,-2.71 7.4,-0.38 14.85,-0.31 22.21,-1.51 2.98,-15.27 6.27,-30.48 9.29,-45.74 -2.61,-0.02 -5.18,0.01 -7.77,0.03 0.87,-3.81 1.49,-7.8 3.76,-11.09 9.97,-16.15 19.57,-32.54 29.66,-48.6 3.23,-1.16 6.75,-0.81 10.13,-1.11 -3.85,19.74 -8.1,39.4 -12,59.12 -2.69,0.13 -5.35,0.23 -8,0.36 -2.82,15.39 -6.36,30.63 -9.24,46.02 41.81,-1.79 83.57,-4.84 125.35,-7.29 1.38,-6.5 2.56,-13.07 4.34,-19.48 6.08,5.06 12.28,10.02 18.27,15.19 1.59,1.05 3.1,2.94 5.25,2.59 16.33,-0.64 32.61,-2.07 48.92,-2.79 3.27,-0.34 7,0.17 9.71,-2.1 7.48,-5.24 14.75,-10.79 22.48,-15.66 -0.91,5.34 -2.23,10.62 -2.73,16.03 21.96,-1.59 43.97,-2.67 65.94,-4.19 0.9,-4.22 1.94,-8.4 3.21,-12.52 1.03,3.69 1.65,7.49 2.9,11.13 1.6,1.56 3.87,0.96 5.87,0.92 13.91,-1.11 27.84,-1.92 41.77,-2.66 0.78,-4.6 1.73,-9.16 2.83,-13.71 5.21,4.02 9.97,8.65 15.46,12.3 3.69,0.56 7.46,-0.1 11.18,-0.27 14.55,-1.25 29.25,-1.64 43.73,-3.01 8.6,-4.94 16.26,-11.41 24.51,-16.91 2.92,-1.55 2.87,-5.17 3.65,-7.97 3.47,-18.18 7.75,-36.21 10.76,-54.47 -6.21,-4.86 -12.18,-10.05 -18.1,-15.25 15.8,-1.18 31.62,-2.57 47.48,-2.87 -3.07,16.19 -6.43,32.33 -9.89,48.44 -2.65,0.16 -5.26,0.35 -7.88,0.57 -2.88,15.41 -6.65,30.66 -9.04,46.15 22.05,-1.28 44.09,-2.56 66.11,-3.97 3.27,-15.35 6.37,-30.74 9.4,-46.13 -2.62,0.04 -5.2,0.13 -7.78,0.19 3.29,-15.42 6.17,-30.94 9.55,-46.33 0.42,-3.03 4.31,-2.35 6.51,-2.74 9.72,-0.22 19.41,-0.9 29.11,-1.67 4.15,-18.87 7.85,-37.84 11.66,-56.78 -40.33,2.53 -80.66,5.04 -121.02,7.27 -1.2,4.51 -2.2,9.06 -3.14,13.62 -5.68,-3.64 -10.05,-9.32 -16.03,-12.27 -17.02,0.6 -33.99,2.35 -51.01,2.9 -3.22,-0.1 -5.9,1.82 -8.36,3.6 -7.26,5.27 -14.52,10.56 -21.91,15.63 -6.6,-4.75 -12.23,-10.7 -18.92,-15.29 -10.59,-0.87 -21.33,0.48 -31.94,1.08 -85.27,5.02 -170.52,10.36 -255.79,15.35 -46.64,3.12 -93.33,5.31 -139.93,8.75 -0.95,4.52 -1.93,9.02 -3.07,13.5 -5.59,-3.96 -10.2,-9.39 -16.32,-12.5 -18.71,1.13 -37.5,1.81 -56.14,3.56 -9.05,5.87 -17.62,12.48 -26.36,18.8 -6.27,-4.8 -12.01,-10.23 -18.18,-15.13 -1.56,-1.41 -3.88,-0.75 -5.74,-0.9 -39.81,2.43 -79.61,4.81 -119.41,7.22 -20.23,0.85 -40.38,2.99 -60.61,3.3 0.05,-0.81 0.17,-2.46 0.22,-3.27 4.05,-0.61 8.13,-1.08 12.24,-1.38 3.67,-19.34 8.81,-38.47 11.2,-58.01 -24.03,1.89 -48.15,2.85 -72.14,4.66zm-223.35 136.13l0 0c-31.46,2.37 -63,3.64 -94.47,5.96 -5.94,29.13 -11.98,58.25 -17.74,87.42 7.08,-0.48 14.14,-1.09 21.25,-1.31 -13.25,66.51 -27.09,132.92 -40.62,199.38 -7.06,0.74 -14.15,1.01 -21.26,1.25 -2.23,8.87 -3.93,17.87 -5.75,26.83 -3.78,20.28 -8.8,40.33 -12.03,60.71 80.55,-4.84 161.09,-9.83 241.63,-14.57 5.29,-0.07 10.46,-1.1 15.66,-2 31.01,-2 62.03,-3.72 93.06,-5.7 4.4,-20.86 8.46,-41.78 12.84,-62.65 1.25,0.01 3.77,0.03 5.02,0.04 -4.14,20.78 -8.41,41.54 -12.68,62.29 34.07,-1.75 68.09,-4.52 102.18,-5.84 4.48,-22.12 9.36,-44.14 13.46,-66.33 -5.62,0.29 -11.19,0.91 -16.8,1.15 -0.07,-12.5 -0.55,-24.99 -0.78,-37.5 -1.69,-50.52 -2.66,-101.05 -4.37,-151.57 -29.61,1.21 -59.16,3.82 -88.77,4.92 -28.19,64.83 -55.76,129.93 -83.89,194.78 -3.42,0.4 -6.86,0.53 -10.3,0.6 2.94,-16.2 7.01,-32.2 9.56,-48.49 -25.68,0.96 -51.28,2.95 -76.92,4.52 -7.19,0.22 -14.4,0.39 -21.5,1.51 -1.52,9.49 -3.5,18.93 -5.8,28.27 -11.28,0.09 -22.49,1.76 -33.78,1.76 2.62,-16.26 6.44,-32.3 9.58,-48.46 10.25,-50.22 20.49,-100.46 30.84,-150.67 7.12,-0.86 14.28,-1.29 21.46,-1.46 5.21,-23.9 9.67,-47.96 14.8,-71.88 1.01,-5.09 2.23,-10.13 2.82,-15.29 -15.59,0.14 -31.11,1.99 -46.7,2.33zm981.08 55.15l0 0c-6.11,2.9 -11.14,7.76 -16.84,11.4 -8.94,6.74 -18.62,12.56 -27.15,19.78 -7.26,31.17 -12.74,62.79 -19.61,94.06 -0.31,2.76 -1.94,6.57 1.01,8.43 9.23,7.87 18.75,15.39 27.94,23.31 2.47,1.94 4.92,4.84 8.46,4.25 18.53,-0.93 37.04,-2.09 55.56,-3.19 -1.4,10.01 -3.89,19.81 -5.74,29.73 -9.27,1.01 -18.59,1.37 -27.88,1.75 1.11,-6.3 2.67,-12.51 3.58,-18.83 -24.33,1.22 -48.64,3.08 -72.97,4.29 -3.66,17.67 -7.58,35.29 -10.7,53.05 11.18,9.21 22.38,18.42 33.56,27.64 2.28,2.53 5.9,1.32 8.9,1.45 27.94,-1.85 55.89,-3.45 83.83,-5.06 4.57,0.19 7.93,-3.15 11.42,-5.57 11.3,-8.14 22.6,-16.3 34.04,-24.24 2.09,-1.05 2.09,-3.57 2.63,-5.54 6.62,-32.26 13.23,-64.52 19.77,-96.81 -11.84,-9.69 -23.11,-20.26 -35.42,-29.27 -19.74,0 -39.46,2.1 -59.17,3.05 2.17,-9.96 4.05,-19.98 6.17,-29.95 9.2,-0.67 18.4,-1.48 27.65,-1.41 -0.92,6.25 -2.34,12.42 -3.6,18.6 24.45,-1.21 48.85,-3.07 73.29,-4.25 3.41,-17.71 7.45,-35.28 10.53,-53.06 -10.83,-8.86 -21.43,-17.97 -32.19,-26.89 -1.58,-1.04 -3.11,-2.76 -5.16,-2.4 -30.62,1.88 -61.29,3.54 -91.91,5.68zm-239.36 14.31l0 0c-4.52,21.92 -9.02,43.82 -13.37,65.76 4.76,-0.19 9.54,-0.48 14.31,-0.66 -8.6,42 -17.15,83.99 -25.78,125.97 -4.7,0.4 -9.4,0.61 -14.11,0.71 -5.07,21.83 -9.26,43.87 -13.63,65.85 34.07,-1.84 68.13,-3.76 102.18,-6.12 3.95,-18.83 7.5,-37.73 11.67,-56.52 4.93,18.26 9.35,36.67 13.87,55.04 23.96,-1.34 47.9,-2.77 71.85,-4.32 4.26,-21.88 9.11,-43.66 13.28,-65.54 -7.5,0.07 -15,0.28 -22.44,1.15 -2.5,0.81 -2.87,-2.16 -3.33,-3.78 -2.63,-10.57 -5.35,-21.13 -7.88,-31.72 12.3,-9.49 25.2,-18.27 37.18,-28.12 6.66,-30.3 12.48,-60.81 18.84,-91.19 0.13,-2.42 1.59,-5.63 -0.84,-7.35 -8.95,-7.63 -18.07,-15.06 -26.97,-22.75 -2.95,-2.12 -5.61,-5.97 -9.68,-5.19 -48.38,2.94 -96.76,5.87 -145.15,8.78zm-183.37 11.03l0 0c-4.55,21.94 -9.18,43.87 -13.46,65.87 4.76,-0.23 9.53,-0.5 14.32,-0.7 -8.67,41.97 -16.92,84.03 -25.9,125.92 -4.69,0.26 -9.37,0.63 -14.06,0.84 -4.72,21.9 -9.43,43.82 -13.41,65.86 60.62,-3.43 121.22,-7.56 181.85,-10.75 5.67,-28.33 11.73,-56.58 17.2,-84.96 -24.39,1.13 -48.74,2.82 -73.12,4.3 -1.29,6.24 -2.68,12.45 -3.7,18.75 -7.07,0.93 -14.17,1.11 -21.25,1.45 1.82,-10.05 4.04,-20.01 6.18,-29.97 22.9,-1.37 45.8,-2.63 68.7,-4.13 4.44,-21.95 9.32,-43.82 13.23,-65.88 -22.8,0.88 -45.53,3.07 -68.34,3.7 1.63,-9.85 3.92,-19.57 5.85,-29.36 6.96,-1.24 14.07,-1 21.12,-1.31 -1.18,6.25 -2.53,12.48 -3.7,18.73 24.32,-1.48 48.63,-2.84 72.95,-4.36 6.29,-28.24 11.75,-56.68 17.51,-85.03 -60.65,3.78 -121.32,7.41 -181.97,11.03zm-109.68 6.75l0 0c-3.78,17.55 -7.14,35.2 -10.86,52.77 -0.53,4.17 -4.45,6.43 -7.06,9.3 3.96,-20.66 8.4,-41.23 12.49,-61.88 -33.99,2.06 -67.97,4.15 -101.96,6.16 -4.42,21.92 -9.28,43.76 -13.22,65.76 4.66,-0.09 9.34,-0.39 14.01,-0.63 -8.64,42.08 -16.84,84.27 -25.98,126.24 -4.73,0.55 -10.2,-0.83 -14.39,1.43 -4.31,21.53 -8.76,43.08 -13.12,64.61 17.49,-0.15 34.96,-1.78 52.42,-2.85 16.53,-0.64 33.03,-1.94 49.56,-2.87 4.5,-21.94 9.02,-43.88 13.4,-65.84 -4.76,0.23 -9.52,0.5 -14.27,0.7 0.57,-2.33 0.51,-5.12 2.47,-6.84 4.49,-4.61 9.34,-8.89 14.14,-13.2 2.65,5.94 5.09,11.97 7.39,18.05 -1.57,0.57 -3.15,1.15 -4.71,1.75 -3.64,21.78 -9.17,43.23 -12.79,65.03 36.11,-2.26 72.26,-4.17 108.35,-6.7 4.1,-21.92 8.59,-43.79 13.49,-65.55 -7.93,-0.17 -15.76,1.19 -23.66,1.21 -9.62,-23.41 -19.61,-46.67 -28.93,-70.2 15.44,-14.63 30.88,-29.26 46.32,-43.87 4.45,-3.98 8.43,-8.53 13.28,-12.01 6.18,-0.7 12.42,-0.74 18.61,-1.39 4.18,-21.96 9.03,-43.77 13.22,-65.73 -36.07,2 -72.15,4.22 -108.2,6.55z"/>
   <path class="fil2" d="M825.16 630.69c23.7,-1.56 47.41,-3.31 71.15,-4.3 0.86,20.1 1.27,40.24 1.6,60.39 1.61,42.85 2.38,85.72 3.7,128.57 4.52,-0.22 9.06,-0.29 13.59,-0.33 -2.76,14.43 -5.71,28.82 -8.85,43.19 -26.35,1.97 -52.74,3.4 -79.13,4.74 2.09,-14.56 5.83,-28.84 8.43,-43.32 4.69,-0.32 9.35,-0.86 14.04,-1.28 -0.16,-5.93 -0.1,-11.87 -0.2,-17.78 -16,-0.2 -31.89,2.05 -47.88,2.29 -2.64,6.22 -5.28,12.46 -8.08,18.61 4.59,-0.02 9.18,-0.12 13.78,-0.25 -1.73,14.78 -5.51,29.23 -8.45,43.8 -26.47,1.02 -52.86,3.53 -79.32,4.4 2.8,-14.37 5.57,-28.75 8.89,-42.99 4.02,-1.74 8.81,-0.78 13.16,-1.15 27.85,-64.87 55.87,-129.66 83.57,-194.59zm-70.43 293.53c334.21,-20.62 668.38,-41.71 1002.61,-62.2 -0.36,12.77 0.17,25.61 -0.95,38.35 -433.32,52.65 -866.66,105.26 -1299.96,158.1 4.06,-19.63 0.4,-41.91 -13.77,-56.77 -9.44,-9.82 -13.44,-24.22 -10.8,-37.53 1.42,-6.49 0.62,-13.12 -0.56,-19.57 107.77,-7.29 215.63,-13.39 323.43,-20.38zm-525.62 -63.85c16.25,-20.65 48.46,-27.46 70.93,-13.12 12.38,7.97 20.96,21.28 23.43,35.77 3.38,19.09 -0.91,38.47 -6.21,56.79 7.9,-9.03 15.65,-18.65 26.44,-24.42 15.04,-9.08 35.24,-9.18 50.16,0.24 17.12,10.29 26.81,30.13 27.74,49.71 0.38,6.21 -1.76,12.23 -1.51,18.44 -0.17,6.18 1.54,12.27 4.11,17.86 2.91,6.24 8.14,10.88 12.16,16.37 16.7,24.36 13.7,60.91 -8.38,81.03 -12.45,12.42 -31.35,16.09 -48.26,13.17 -33.37,-5.01 -62.29,-23.88 -89.98,-41.97 7.63,22.48 17.9,44.01 29.01,64.95 13.8,25.34 30.67,49.53 53.21,67.86 -10.87,4.43 -21.63,10.89 -27.56,21.39 -4.27,6.59 -5.66,14.44 -6.72,22.08 -26.61,-51.12 -52.19,-103.4 -67.1,-159.3 -7.18,27.1 -15.22,54.54 -30.54,78.31 -7.7,12.25 -18.1,23.45 -31.66,29.15 -14.92,5.98 -32.98,4.45 -46.17,-4.96 -13.4,-8.7 -21.79,-23.56 -24.97,-38.95 -1.42,-7.26 -0.23,-14.75 -1.72,-22 -1.22,-5.78 -3.47,-11.41 -7.01,-16.17 -5.07,-6.7 -12.3,-11.37 -17.21,-18.21 -11.32,-16.51 -14.43,-38.38 -7.98,-57.35 4.72,-14.34 15.23,-26.9 29.12,-33.1 15.95,-7.45 34.2,-6.07 51.11,-3.37 -17.26,-10.27 -34.7,-22.81 -43.45,-41.51 -9.31,-18.97 -6.26,-42.61 6.01,-59.54 11.21,-15.08 29.46,-26.25 48.71,-24.86 12.82,0.93 26.15,-4.17 34.29,-14.29zm856.83 -245.42c28.35,-2.09 56.76,-3.43 85.14,-5.32 -1.6,14.75 -5.88,29.08 -8.16,43.73 -5.03,0.33 -10.27,-0.23 -15.06,1.6 -13.26,11.87 -25.99,24.31 -38.84,36.63 -9.26,8.35 -18.26,17.01 -27.13,25.77 -1.96,1.44 0.17,3.81 0.56,5.52 11.18,26.5 22.02,53.15 33.14,79.68 5.55,-0.19 11.12,-0.41 16.71,-0.47 -2.81,14.38 -5.71,28.75 -8.92,43.06 -28.54,1.68 -57.05,4.12 -85.63,4.77 3.29,-14.31 5.96,-28.76 9.03,-43.13 3.62,-0.15 7.26,-0.29 10.9,-0.47 -1.81,-7.75 -5.56,-14.82 -8.37,-22.22 -3.64,-8.54 -6.71,-17.37 -11.11,-25.57 -7.98,8.15 -16.52,15.71 -24.8,23.52 -1.89,1.91 -4.24,3.71 -4.75,6.51 -1.63,6.71 -2.87,13.5 -3.95,20.31 4.66,-0.02 9.32,-0.16 13.98,-0.2 -2.97,14.55 -5.72,29.15 -9.03,43.63 -26.38,1.13 -52.73,3.39 -79.12,4.4 2.72,-14.59 6.03,-29.06 8.76,-43.65 4.8,-0.19 9.6,-0.4 14.42,-0.64 6.04,-29.26 11.97,-58.55 17.98,-87.83 3.82,-20.09 8.65,-40 11.94,-60.18 -4.64,0.11 -9.27,0.33 -13.9,0.44 2.78,-14.49 5.98,-28.89 8.79,-43.38 24.5,-2.11 49.09,-2.87 73.6,-4.71 2.45,-0.33 4.83,0.37 7.12,1.18 -0.68,0.17 -1.35,0.34 -2.02,0.51 -2.04,14.07 -5.5,27.9 -8.14,41.85 -4.75,0.23 -9.49,0.51 -14.24,0.74 -4.01,17.89 -7.39,35.91 -11.2,53.83 19.47,-18.64 39.38,-36.83 58.72,-55.62 -1.7,-0.54 -3.41,-1.06 -5.09,-1.59 2.75,-14.25 5.86,-28.45 8.67,-42.7zm238.62 -14.48c10,-1.06 20.06,-1.23 30.1,-1.54 -3.54,20.99 -8.22,41.78 -12.57,62.61 -16.72,0.33 -33.35,2.04 -50.05,2.83 0.67,-6.28 2.15,-12.42 3.44,-18.59 -14.59,0.2 -29.12,1.35 -43.67,2.18 -3.62,17.38 -7.13,34.8 -10.71,52.19 22.93,-1.36 45.89,-2.92 68.82,-4.06 -2.9,14.65 -5.9,29.29 -8.92,43.91 -19.15,0.61 -38.22,2.52 -57.34,3.21 -3.91,0.15 -7.79,0.71 -11.67,1.16 -3.26,17.22 -7.11,34.33 -10.35,51.55 14.51,-0.3 28.94,-1.93 43.45,-2.13 1.45,-6.44 2.64,-12.95 4.32,-19.34 16.78,-0.68 33.51,-2.23 50.29,-3 -4.34,20.83 -8.16,41.8 -12.89,62.54 -17.96,1.55 -35.98,2.33 -53.96,3.46 -35.1,2 -70.16,4.56 -105.26,6.22 2.86,-14.55 5.9,-29.06 8.87,-43.58 4.8,-0.23 9.6,-0.52 14.39,-1.01 7.27,-34.73 14.1,-69.57 21.35,-104.31 2.7,-14.47 6.28,-28.75 8.58,-43.29 -4.62,-0.03 -9.25,0.13 -13.85,0.26 2.71,-14.62 5.69,-29.21 8.88,-43.73 42.93,-2.22 85.83,-5.14 128.75,-7.54zm298.56 -18.15c24.58,-1.34 49.14,-2.83 73.69,-4.39 3.77,-0.7 6.13,2.9 8.86,4.83 6.7,6.12 14.42,11.15 20.6,17.83 -1.29,12.77 -5.1,25.2 -7.1,37.89 -16.83,1.21 -33.68,1.96 -50.48,3.34 0.75,-6.3 2.26,-12.46 3.45,-18.69 -16.79,0.13 -33.54,1.47 -50.26,2.7 -3.97,17.21 -6.98,34.63 -10.93,51.84 22.48,-0.95 44.95,-2.58 67.4,-4 1.98,-0.09 3.34,1.69 4.89,2.68 7.9,6.48 15.58,13.23 23.54,19.64 -1.68,14.21 -5.53,28.08 -8.02,42.17 -3.72,16.05 -6.18,32.41 -10.29,48.35 -7.8,6.98 -17.04,12.23 -25.32,18.65 -4.69,2.97 -8.8,7.59 -14.44,8.58 -28.02,1.07 -55.99,3.77 -84.03,4.68 -9.58,-6.95 -18.49,-14.9 -27.68,-22.37 2.51,-12.7 5.1,-25.39 7.64,-38.1 16.86,-0.91 33.65,-2.66 50.55,-2.7 -1.16,6.21 -2.74,12.35 -3.32,18.65 16.69,-1 33.36,-2.44 50.09,-2.86 3.51,-17.48 7.2,-34.92 10.63,-52.42 -22.67,1.43 -45.32,2.89 -67.99,4.03 -9.99,-6.66 -18.67,-15.19 -28.03,-22.72 6.09,-29.53 11.98,-59.11 18.1,-88.61 0.37,-2.13 2.52,-3.1 4.04,-4.33 10.31,-7.13 20.45,-14.54 30.68,-21.83 3.91,-3.01 9.08,-2.5 13.73,-2.84zm-689.18 -45.48c2.93,-2.23 2.61,5.12 -0.11,4.14 -0.91,-1.37 -0.87,-2.74 0.11,-4.14zm-361.12 -5.14c29.67,-1.68 59.3,-3.78 88.97,-5.15 -4.48,21.34 -8.58,42.75 -13.2,64.04 -6.65,3.04 -14.64,0.92 -21.79,2.47 -14.86,73.77 -30.25,147.41 -45.06,221.18 18.94,-0.27 37.8,-2.23 56.72,-3.1 2.26,-9.43 3.86,-19.01 6.12,-28.45 17.75,-0.85 35.47,-2.5 53.24,-3.04 7.41,-0.7 14.85,-1.42 22.31,-1.26 -6.18,31.22 -12.72,62.38 -19.09,93.57 -68.25,3.73 -136.47,8.29 -204.72,12.18 -8.38,0.97 -16.84,0.9 -25.25,1.31 4.15,-21.63 8.81,-43.17 13.04,-64.79 7.25,-0.75 14.54,-0.95 21.8,-1.52 14.82,-73.88 30.1,-147.69 45.19,-221.53 -6.96,0.23 -13.92,0.79 -20.89,0.75 3.09,-21.68 8.73,-42.94 12.45,-64.53 9.98,-1.68 20.14,-0.87 30.16,-2.13zm333.17 -81.43c29.02,-2.15 58.07,-3.78 87.13,-5.37 -2.3,11.48 -4.54,22.96 -7.05,34.4 -9.24,0.71 -18.5,1.14 -27.73,1.99 0.46,-3.46 1.16,-6.89 1.89,-10.3 -7.81,0.06 -15.6,0.71 -23.42,0.87 -2.51,9.36 -4.46,18.9 -5.89,28.49 12.4,-0.2 24.77,-1.49 37.17,-1.85 -1.26,8.12 -2.88,16.16 -4.83,24.13 -12.52,0.71 -25.02,1.5 -37.53,2.19 -1.96,9.38 -4.15,18.73 -5.68,28.2 7.37,-0.43 14.79,-0.19 22.14,-1 3.09,-2.34 2.5,-7.25 3.78,-10.73 9.22,0.11 18.37,-1.21 27.59,-1.48 -1.96,11.53 -4.5,22.95 -6.93,34.39 -18.25,1.74 -36.59,2.08 -54.87,3.51 -10.9,0.52 -21.77,1.62 -32.68,1.84 1.63,-8 2.94,-16.09 4.98,-24.01 2.32,-0.11 4.66,-0.17 7,-0.45 1.39,-1.65 1.47,-3.94 2.03,-5.94 4.89,-25 10.34,-49.89 15.12,-74.91 -2.37,-0.05 -4.73,-0.1 -7.08,-0.14 0.77,-7.81 2.42,-15.52 4.16,-23.15l0.7 -0.68zm228.9 -13.93c15.37,-1.25 30.82,-1.81 46.24,-2.87 2.84,-0.52 4.9,1.74 6.98,3.3 3.63,3.07 7.33,6.08 11.01,9.12 -1.39,7.11 -2.56,14.29 -4.7,21.22 -9.08,0.09 -18.15,0.85 -27.22,1.28 0.47,-3.34 1.05,-6.66 1.59,-10 -9.72,0.21 -19.44,0.45 -29.1,1.54 -5.54,27.03 -11.31,54.02 -16.49,81.12 9.78,-0.24 19.47,-1.66 29.28,-1.59 1.15,-3.44 0.48,-8.26 3.31,-10.69 8.83,-0.7 17.71,-0.62 26.53,-1.46 -0.92,6.36 -2.17,12.67 -3.76,18.9 -0.63,2.93 -3.63,4.21 -5.73,5.91 -5.1,3.42 -9.88,7.42 -15.33,10.29 -5.29,1.63 -10.9,1.12 -16.35,1.49 -11.17,0.11 -22.29,2.02 -33.45,1.55 -5.02,-3.42 -9.63,-7.52 -14.1,-11.62 -0.62,-3.51 0.74,-7 1.33,-10.42 6.18,-29.89 12.16,-59.8 18.37,-89.67 0.26,-3.68 3.96,-5.19 6.51,-7.18 5.14,-3.22 9.63,-7.47 15.08,-10.22zm132.98 -8.37c14.16,-0.14 28.24,-1.7 42.39,-2.17 -1.55,7.76 -2.82,15.59 -4.84,23.23 -2.52,1.72 -5.94,0.93 -8.83,1.38 -10.94,17.43 -21.31,35.17 -32.13,52.67 -6,8.68 -6.42,19.59 -8.27,29.66 2.37,0.02 4.76,0.04 7.16,0.07 -1.55,7.98 -3.14,15.97 -4.89,23.91 -14.6,0.74 -29.17,2.05 -43.78,2.68 1.66,-7.95 3.08,-15.95 4.9,-23.86 2.65,-0.36 5.29,-0.73 7.95,-1.14 1.13,-6.42 2.58,-12.79 3.88,-19.19 1.18,-5.03 -0.34,-10.09 -1.34,-14.99 -3.15,-14.86 -6.31,-29.74 -9.22,-44.66 -3.6,-0.09 -7.18,-0.07 -10.76,-0.07 1.45,-7.98 3.52,-15.81 4.76,-23.81 14.57,-1.5 29.23,-1.79 43.84,-2.82 -1.35,7.53 -2.6,15.1 -4.56,22.5 -1.19,1.54 -3.21,2.02 -4.78,3.03 1.06,7.18 2.58,14.28 4.05,21.39 4.74,-6.94 8.65,-14.4 12.77,-21.7 -0.97,-1.14 -1.85,-2.33 -2.62,-3.58 0.41,-7.66 2.69,-15.07 4.32,-22.53zm114.34 -6.43c14.67,-1.18 29.35,-2.15 44.06,-2.67 -1.7,7.98 -3.24,16 -5.01,23.97 -2.37,0.13 -4.71,0.17 -7.04,0.47 -1.74,1.93 -1.74,4.74 -2.39,7.13 -4.73,24.66 -10.38,49.13 -14.84,73.84 2.39,0.04 4.8,0.09 7.24,0.13 -0.8,8.01 -2.79,15.83 -4.48,23.69 -14.55,1.15 -29.12,1.9 -43.67,2.84 1.36,-8.01 3.08,-15.94 4.65,-23.92 2.72,-0.32 5.44,-0.66 8.18,-1.06 1.45,-9.32 4.21,-18.41 5.27,-27.78 -10.2,0.01 -20.37,0.69 -30.52,1.59 -2.19,9.38 -3.99,18.83 -5.81,28.26 2.6,0.03 5.23,0.07 7.85,0.1 -1.66,7.73 -3.31,15.46 -4.76,23.22 -6.42,1.45 -13.01,1.04 -19.52,1.55 -8.1,0.64 -16.2,1.1 -24.32,1.42 1.43,-8.04 3.07,-16.03 4.79,-24.01 2.56,-0.2 5.13,-0.37 7.72,-0.56 5.64,-26.93 11.54,-53.83 16.38,-80.9 -2.38,-0.04 -4.74,-0.06 -7.1,-0.07 0.98,-8.12 2.83,-16.1 4.82,-24.02 14.45,-0.62 28.84,-2.09 43.31,-2.14 -1.28,7.77 -2.95,15.46 -4.57,23.16 -2.72,0.85 -6.16,0.43 -8.29,2.43 -1.96,9.05 -3.96,18.12 -5.4,27.29 10.2,-1.45 20.58,-0.73 30.79,-2.16 2.07,-9.27 3.64,-18.65 5.86,-27.89 -2.64,-0.11 -5.26,-0.24 -7.86,-0.38 1.61,-7.83 3.27,-15.66 4.66,-23.53zm115.67 -7.05c14.56,-1 29.13,-1.98 43.71,-2.8 -1.28,8.11 -3.2,16.1 -4.81,24.14 -2.62,0.16 -5.23,0.3 -7.81,0.47 -6.24,29.57 -12.09,59.25 -18.29,88.82 -0.33,2.06 -1.37,3.82 -3.14,4.9 -5.81,4.17 -11.7,8.24 -17.62,12.24 -5.63,1.85 -11.74,1.21 -17.58,1.67 -11.34,0.09 -22.63,2.12 -33.95,1.55 -5.27,-3.63 -10.11,-7.87 -14.81,-12.2 6.14,-30.53 12.52,-61 18.57,-91.54 -2.64,0.02 -5.24,0.06 -7.84,0.09 1.73,-8.03 3.28,-16.09 5.14,-24.09 14.53,-0.48 28.99,-1.97 43.53,-2.09 -1.6,7.78 -3.17,15.54 -4.7,23.32 -2.72,0.42 -5.4,0.86 -8.09,1.27 -5.48,26.97 -11.22,53.89 -16.37,80.91 10.2,-0.45 20.41,-1.27 30.6,-2.13 5.4,-26.86 10.95,-53.69 16.38,-80.54 -2.6,-0.02 -5.17,0.01 -7.73,0 1.31,-8.05 3.11,-16.01 4.81,-23.99zm185.28 -11.06c15.91,-1.11 31.86,-2.51 47.8,-2.98 5.17,3.76 9.76,8.27 14.87,12.15 -1.2,7.22 -2.73,14.37 -4.51,21.44 -9.06,0.5 -18.16,0.41 -27.14,1.72 0.3,-3.49 0.72,-6.96 1.14,-10.44 -9.03,0.14 -18.04,0.91 -27.06,1.23 -1.76,9.42 -4.34,18.7 -5.5,28.24 12.29,0.23 24.53,-1.41 36.8,-1.53 5.93,2.88 10.31,8.29 15.45,12.4 -2.7,14.28 -5.82,28.49 -8.6,42.78 -0.73,3.22 -0.98,7.19 -4.24,8.93 -5.9,3.98 -11.37,8.6 -17.58,12.08 -7.72,1.34 -15.61,1.24 -23.38,1.81 -8.06,0.24 -16.07,1.7 -24.13,1.25 -5.81,-3.08 -10.27,-8.19 -15.53,-12.08 1.26,-7.09 2.58,-14.17 4.37,-21.13 9.17,-0.85 18.39,-1.08 27.6,-1.29 -0.64,3.21 -1.29,6.4 -1.89,9.63 9.18,0.11 18.33,-0.87 27.51,-1.17 1.85,-9.43 4.03,-18.81 5.65,-28.29 -11.7,0.09 -23.34,1.12 -34.99,1.69 -2.94,0.54 -4.92,-1.89 -6.99,-3.46 -3.5,-2.98 -7,-5.9 -10.52,-8.82 3.06,-15.47 6.2,-30.93 9.41,-46.38 0.32,-4.12 4.4,-5.91 7.29,-8.14 4.77,-3.13 9.09,-6.98 14.17,-9.64zm134.52 -8.45c14.21,-0.52 28.38,-1.94 42.62,-2.11 -2.05,11.49 -4.72,22.84 -6.83,34.31 -9.26,0.24 -18.47,1.21 -27.72,1.48 0.58,-3.34 1.14,-6.7 1.53,-10.07 -2.4,0.12 -4.79,0.23 -7.14,0.36 -5.35,26.93 -11.13,53.79 -16.38,80.75 2.56,0.11 5.16,0.21 7.76,0.34 -1.82,7.91 -3.24,15.93 -5.06,23.84 -14.59,0.53 -29.13,1.86 -43.74,2.18 1.61,-7.89 3.19,-15.76 4.98,-23.61 2.61,-0.38 5.26,-0.74 7.9,-1.1 5.38,-26.99 11.3,-53.89 16.34,-80.95 -2.47,0.26 -4.92,0.58 -7.35,0.94 -0.64,3.37 -1.36,6.72 -2.03,10.07 -9.21,0.22 -18.37,1.31 -27.57,1.59 1.65,-11.53 4.49,-22.87 6.72,-34.32 18.62,-1.79 37.32,-2.18 55.97,-3.7zm-953.13 -3.97c15.45,-0.5 30.81,-2.2 46.27,-2.37 -2.46,11.93 -4.73,23.9 -7.3,35.8 -3.84,0.15 -7.69,0.32 -11.51,0.41 -8.71,40.51 -16.9,81.16 -24.97,121.81 3.99,-0.21 7.97,-0.38 11.98,-0.42 -2.32,11.91 -4.92,23.76 -7.29,35.65 -21.77,1.24 -43.53,2.84 -65.33,3.81 2.32,-11.95 5.1,-23.82 7.18,-35.81 3.76,-0.21 7.53,-0.43 11.31,-0.57 5.09,-23.8 10.19,-47.62 14.52,-71.55 -16.61,22.1 -32.17,44.98 -48.98,66.93 -5.64,-15.74 -11.11,-31.56 -16.53,-47.39 -1.66,-4.96 -3.31,-9.96 -5.73,-14.62 -5.23,23.53 -10.09,47.16 -14.52,70.87 3.57,-0.32 7.13,-0.64 10.73,-0.79 -1.66,12.21 -4.45,24.28 -7.26,36.27 -21.67,0.74 -43.26,2.77 -64.93,3.61 2.21,-12.04 4.74,-24.03 7.3,-36.01 3.67,-0.07 7.36,0.04 11.02,-0.44 1.89,-0.95 1.67,-3.47 2.33,-5.19 6.75,-33.37 13.58,-66.72 20.42,-100.07 1.18,-5.43 2.39,-10.86 2.97,-16.4 -3.74,0.1 -7.46,0.23 -11.19,0.25 1.81,-11.99 4.44,-23.87 7.25,-35.66 17.87,-0.67 35.67,-2.76 53.56,-2.93 5.53,17.15 11.8,34.05 17.54,51.13 1.36,4.13 2.87,8.24 4.73,12.19 15.83,-21.81 31.59,-43.68 47.41,-65.5 1.86,-3.22 5.88,-2.55 9.02,-3.01zm690.38 19.84c21.76,-1.01 43.46,-2.83 65.22,-3.77 3.45,0.07 7.43,-1.65 10.51,0.59 4.72,3.42 9,7.41 13.37,11.25 -2.17,14.1 -5.67,27.95 -8.27,41.98 -0.79,2.37 -0.47,5.54 -2.84,7.04 -6.21,4.73 -12.82,8.95 -18.71,14.08 -1.64,1.09 -0.64,3.37 -0.53,4.93 1.86,8.06 3.89,16.09 6.11,24.07 3.55,-0.07 7.11,-0.15 10.69,-0.21 -1.65,8 -3.16,16.04 -4.99,24.01 -9.89,0.4 -19.78,0.99 -29.65,1.75 -4.5,-17.02 -8.44,-34.19 -12.86,-51.23 -2.62,0.09 -5.23,0.16 -7.81,0.23 -2.2,9.38 -3.97,18.84 -5.94,28.28 2.58,0.04 5.17,0.09 7.8,0.16 -1.61,7.97 -3.28,15.93 -4.85,23.9 -14.56,0.62 -29.09,2.17 -43.68,2.16 1.38,-7.75 2.98,-15.46 4.49,-23.19 2.7,-0.46 5.41,-0.88 8.16,-1.31 5.35,-26.94 11.41,-53.76 16.3,-80.78 -2.45,-0.05 -4.86,-0.12 -7.26,-0.19 1.3,-7.98 2.75,-15.92 4.74,-23.75zm30.83 22.21l0 0c-1.55,9.51 -4.44,18.77 -5.36,28.37 9.33,-0.36 18.64,-1.27 27.98,-1.77 1.89,-9.4 3.86,-18.8 5.67,-28.23 -9.47,0.11 -18.89,0.82 -28.29,1.63zm-549.55 9.05c14.16,-0.46 28.29,-1.97 42.47,-2.27 2.62,-0.31 4.54,1.69 6.41,3.2 3.33,2.93 6.96,5.47 10.03,8.68 0.29,6.52 -2.34,12.8 -3.25,19.21 -2.25,9.43 -3.33,19.15 -6.04,28.44 -6.52,6.28 -14.51,10.83 -21.42,16.65 1.68,9.48 4.52,18.71 6.75,28.07 3.49,-0.1 6.97,-0.2 10.46,-0.28 -0.89,6.63 -2.26,13.2 -3.63,19.74 -0.5,1.69 -0.9,4.84 -3.37,4.42 -9.14,0.14 -18.22,1.07 -27.33,1.56 -4.19,-17.04 -8.85,-33.99 -12.59,-51.13 -2.42,0.04 -4.82,0.05 -7.19,0.3 -1.75,1.35 -1.73,3.73 -2.22,5.68 -1.41,7.57 -3.2,15.06 -4.62,22.64 2.58,0.04 5.15,0.03 7.75,0.06 -1.48,7.93 -3.24,15.81 -4.68,23.76 -14.62,1.42 -29.31,1.55 -43.94,2.8 1.55,-7.96 3.21,-15.91 4.76,-23.86 2.75,-0.42 5.5,-0.86 8.27,-1.34 5.18,-26.8 10.88,-53.5 16.29,-80.26 -2.62,-0.15 -5.23,-0.29 -7.82,-0.44 1.71,-7.78 3.31,-15.57 4.79,-23.37 9.98,-1.53 20.11,-1.12 30.12,-2.26zm1 23.91l0 0c-1.8,9.43 -4.17,18.77 -5.5,28.3 9.36,-0.04 18.65,-1.06 27.99,-1.49 2.31,-9.39 3.89,-18.94 5.81,-28.4 -9.45,0.19 -18.86,1.19 -28.3,1.59zm341.82 131.06c45.22,-2.47 90.41,-5.74 135.63,-7.9 9.32,7.06 18.1,14.94 26.94,22.65 -4.83,26.78 -11.04,53.31 -16.1,80.05 -0.68,3.07 -0.98,6.73 -4.02,8.47 -12.36,9.31 -24.86,18.42 -37.18,27.77 4.04,17.31 8.46,34.55 13.19,51.67 6.35,-0.92 12.75,-1.33 19.17,-1.29 -2.8,14.65 -5.53,29.35 -9.11,43.84 -17.99,0.3 -35.91,2.24 -53.87,3.01 -7.72,-30.92 -15.43,-61.84 -23.11,-92.78 -4.91,0.01 -9.82,0.11 -14.72,0.23 -3.54,17.29 -7.39,34.53 -10.5,51.9 4.66,0.04 9.31,-0.16 13.97,-0.46 -2.65,14.65 -5.89,29.19 -8.74,43.8 -26.58,1.39 -53.11,3.37 -79.68,4.53 3.05,-14.39 5.94,-28.82 8.82,-43.26 4.44,-0.55 8.9,-0.69 13.35,-1.18 1.91,-1.64 1.9,-4.43 2.58,-6.69 9.58,-47.09 19.29,-94.16 28.81,-141.25 -4.72,0.11 -9.45,0.35 -14.16,0.49 2.73,-14.56 5.94,-29.04 8.73,-43.6zm56.23 40.15l0 0c-3.48,17.25 -6.98,34.49 -10.63,51.7 17.35,-0.43 34.63,-2.29 51.99,-2.97 3.16,-17.48 8.05,-34.7 9.91,-52.38 -17.05,1.77 -34.24,1.79 -51.27,3.65zm-614.08 121.3l0 0c9,-0.21 17.96,-1.09 26.96,-1.42 -0.29,-19.3 -0.7,-38.59 -1.78,-57.85 -8.57,19.68 -17.28,39.32 -25.18,59.27z"/>
  </g>
 </g>
</svg>
