<?xml version="1.0" encoding="UTF-8"?>
<!DOCTYPE svg PUBLIC "-//W3C//DTD SVG 1.1//EN" "http://www.w3.org/Graphics/SVG/1.1/DTD/svg11.dtd">
<!-- Creator: CorelDRAW -->
<svg xmlns="http://www.w3.org/2000/svg" xml:space="preserve" width="2000px" height="1600px" version="1.1" style="shape-rendering:geometricPrecision; text-rendering:geometricPrecision; image-rendering:optimizeQuality; fill-rule:evenodd; clip-rule:evenodd"
viewBox="0 0 2000 1600"
 xmlns:xlink="http://www.w3.org/1999/xlink">
 <defs>
  <style type="text/css">
   <![CDATA[
    .fil0 {fill:black;fill-rule:nonzero}
    .fil1 {fill:#E21737;fill-rule:nonzero}
   ]]>
  </style>
 </defs>
 <g id="Capa_x0020_1">
  <metadata id="CorelCorpID_0Corel-Layer"/>
  <g id="Miami_x0020__x0028_Ohio_x0029__x0020_Redhawks.cdr">
   <path class="fil0" d="M100 119.93l600.97 0c99.67,169.77 199.16,339.69 298.83,509.46 99.65,-169.8 199.21,-339.67 298.88,-509.46l601.32 0c-68.77,113.77 -137.29,227.66 -206.06,341.42 -11.92,-0.02 -23.87,-0.03 -35.8,0 0.02,225.93 -0.01,451.85 0.02,677.77 12.07,0.1 24.15,-0.2 36.24,0.17 68.28,113.71 136.94,227.21 205.47,340.78l-886.47 0c68.81,-113.53 137.2,-227.33 205.84,-340.96 12.02,0.03 24.04,0.01 36.05,0 0,-71.58 0,-143.14 0,-214.71 -84.94,145.35 -170.22,290.49 -255.14,435.86 -86.02,-145.61 -171.63,-291.45 -257.41,-437.21 0.02,72.03 -0.02,144.06 0.02,216.07 12,-0.03 24,0.06 36.01,-0.05 68.65,113.64 137.24,227.31 205.79,341l-882.67 0 -1.87 -0.02c68.17,-113.84 136.99,-227.29 205.53,-340.93 11.89,0 23.76,-0.03 35.65,0.04 0.11,-225.94 0.02,-451.88 0.04,-677.81 -11.89,-0.03 -23.78,0.02 -35.67,-0.03 -68.41,-113.68 -137.09,-227.2 -205.57,-340.84l0 -0.55z"/>
   <path class="fil1" d="M267.44 214.62c126.34,-0.04 252.67,0.07 379.02,-0.06 117.98,200.54 235.41,401.43 353.21,602.07 118.17,-200.42 235.45,-401.44 353.38,-602.03 126.35,0.03 252.71,0 379.07,0.02 -30.48,50.72 -61.08,101.4 -91.71,152.03 -25.66,0.04 -51.31,-0.07 -76.95,0.04 0.02,289.05 -0.05,578.08 0.04,867.12 25.69,0.01 51.38,0 77.07,0.01 30.58,50.62 61.2,101.22 91.57,151.97 -183.66,0.09 -367.31,0.07 -550.97,0 30.52,-50.69 61,-101.44 91.73,-151.98 25.69,0 51.38,0.03 77.08,-0.02 -0.04,-219.21 0.09,-438.41 -0.06,-657.62 -33.56,55.79 -65.95,112.33 -99.05,168.39 -83.65,142.71 -167.22,285.44 -250.89,428.14 -14.27,-22.63 -27.26,-46.12 -41.04,-69.06 -103.62,-176.06 -207.08,-352.2 -310.81,-528.16 -0.14,219.44 -0.07,438.9 -0.04,658.34 25.62,-0.11 51.24,0.17 76.86,-0.14 31.14,50.38 61.31,101.4 92,152.05 -183.17,0.24 -366.36,0.06 -549.53,0.09 30.39,-50.71 61.09,-101.23 91.51,-151.9 25.82,-0.26 51.64,-0.02 77.46,-0.11 0.05,-289.04 -0.05,-578.05 0.04,-867.09 -25.71,-0.18 -51.42,-0.01 -77.13,-0.07 -30.75,-50.6 -61.14,-101.42 -91.86,-152.03z"/>
  </g>
 </g>
</svg>
