<?xml version="1.0" encoding="UTF-8"?>
<!DOCTYPE svg PUBLIC "-//W3C//DTD SVG 1.1//EN" "http://www.w3.org/Graphics/SVG/1.1/DTD/svg11.dtd">
<!-- Creator: CorelDRAW -->
<svg xmlns="http://www.w3.org/2000/svg" xml:space="preserve" width="2000px" height="1600px" version="1.1" style="shape-rendering:geometricPrecision; text-rendering:geometricPrecision; image-rendering:optimizeQuality; fill-rule:evenodd; clip-rule:evenodd"
viewBox="0 0 2000 1600"
 xmlns:xlink="http://www.w3.org/1999/xlink">
 <defs>
  <style type="text/css">
   <![CDATA[
    .fil1 {fill:#00502F;fill-rule:nonzero}
    .fil0 {fill:#F47320;fill-rule:nonzero}
   ]]>
  </style>
 </defs>
 <g id="Capa_x0020_1">
  <metadata id="CorelCorpID_0Corel-Layer"/>
  <g id="Miami_x0020_Hurricanes.cdr">
   <path class="fil0" d="M100 259.91l444.71 0c0,212.1 0,424.23 0,636.33 0.19,35.23 -0.38,70.46 0.29,105.69 0.5,40.24 11.48,81.03 35.29,113.85 19.36,27.29 46.27,48.49 75.56,64.31 35.85,19.36 75.18,31.34 114.92,39.7 63.66,13.16 128.85,16.77 193.72,17.27 0.04,34.33 0.02,68.66 0.02,102.99 -79.26,0.17 -158.55,-2.24 -237.66,-7.07 -94.94,-6 -189.79,-15.53 -283.54,-31.88 -72,-12.94 -143.92,-29.1 -211.91,-56.63 -36.19,-15.06 -72.07,-33.37 -100.14,-61.28 -16.4,-16.67 -28.94,-38.03 -31.26,-61.65l0 -861.63z"/>
   <path class="fil1" d="M1454.75 259.91l445.19 0c0,281.82 -0.02,563.64 0,845.46 0.17,10.2 0.17,20.55 -2.72,30.44 -6.81,25.26 -24.77,45.85 -44.82,61.91 -27.56,21.78 -59.57,37.15 -92.1,50.03 -57.3,22.35 -117.34,36.81 -177.6,48.56 -91.46,17.4 -184.14,27.69 -276.95,34.48 -89.94,6.4 -180.13,9.37 -270.3,9.3 -0.04,-34.35 -0.02,-68.7 -0.02,-103.05 74.05,-0.58 148.73,-5.08 220.71,-23.54 32.2,-8.38 63.83,-19.73 92.87,-36.13 26.13,-14.88 50.22,-34.07 68.24,-58.35 24.56,-32.38 36.63,-73.1 37.5,-113.46 -0.02,-248.55 0,-497.11 0,-745.65z"/>
  </g>
 </g>
</svg>
