<?xml version="1.0" encoding="UTF-8"?>
<!DOCTYPE svg PUBLIC "-//W3C//DTD SVG 1.1//EN" "http://www.w3.org/Graphics/SVG/1.1/DTD/svg11.dtd">
<!-- Creator: CorelDRAW -->
<svg xmlns="http://www.w3.org/2000/svg" xml:space="preserve" width="2000px" height="1600px" version="1.1" style="shape-rendering:geometricPrecision; text-rendering:geometricPrecision; image-rendering:optimizeQuality; fill-rule:evenodd; clip-rule:evenodd"
viewBox="0 0 2000 1600"
 xmlns:xlink="http://www.w3.org/1999/xlink">
 <defs>
  <style type="text/css">
   <![CDATA[
    .fil0 {fill:black;fill-rule:nonzero}
    .fil1 {fill:#FFCE06;fill-rule:nonzero}
   ]]>
  </style>
 </defs>
 <g id="Capa_x0020_1">
  <metadata id="CorelCorpID_0Corel-Layer"/>
  <g id="Michigan_x0020_Tech_x0020_Huskies.cdr">
   <path class="fil0" d="M967.6 220.08c13.18,10.62 24.71,23.24 35.83,36 14.15,16.83 27.19,35.03 35.45,55.56 16.68,-19.9 38.09,-37.59 63.96,-43.28 8.13,17.34 16.85,34.39 25.4,51.54 78.73,10.47 156.72,30.36 228.88,63.98 51.94,24.48 101.55,56.26 139.79,99.59 21.56,24.68 39.09,53.42 47.88,85.18 8.61,30.98 8.43,64.38 -0.72,95.22 -9.4,32.2 -27.7,61.26 -50.1,86.02 -37.39,41.2 -85.08,71.72 -135.04,95.48 -69.59,32.72 -144.73,52.55 -220.7,63.43 -66.6,9.24 -134.18,11.99 -201.27,7.38 8.58,-33.15 25.38,-64.2 48.81,-89.2 18.66,-20.04 42.09,-35.34 67.57,-45.23 -39.45,3.98 -78.86,11.74 -115.65,26.84 -2.11,-11.27 -4.52,-22.47 -7.55,-33.51 -7.31,-33.56 -8.35,-69.19 1.47,-102.37 5.11,-17.57 13.51,-34.08 24.21,-48.91 0.43,-0.02 1.31,-0.07 1.75,-0.08 -2.65,13.77 -1.46,28.01 -1.58,41.97 1.85,34.27 6.91,71.15 29.4,98.57 41.6,-6.91 83.5,-12.46 125.68,-13.75 28.89,0.17 57.85,-0.84 86.66,1.95 39.22,2.96 77.75,11.25 116.7,16.21 4.48,0.25 9.59,1.64 13.62,-1.07 24.84,-20.85 48.46,-43.09 71.75,-65.62 -6.75,-10.42 -12.37,-22.08 -13.44,-34.58 1.87,-4.61 4.25,-9.01 6.33,-13.54 -33.96,-12.23 -67.08,-26.67 -99.97,-41.54 -26.4,-11 -53.22,-20.97 -79.48,-32.31 8.88,-0.76 17.74,-1.86 26.68,-2.13 -12.21,-20.7 -18.39,-44.25 -22.24,-67.8 -30.84,-23.14 -64.11,-43.17 -99.6,-58.3 -21.72,-9.12 -44.11,-17.31 -67.51,-20.69 -5.27,-26.77 -7.51,-54.28 -16.98,-80.07 -8.53,-30.57 -30.03,-55.27 -52.22,-77.04 -19.59,22.27 -32.11,51.27 -32.28,81.14 0.13,14.88 3.17,29.76 9.01,43.47 27.34,1.95 54.66,11.94 75.08,30.55 -20.24,-1.12 -41.02,-1.35 -60.63,4.45 -14.45,20.93 -15.59,48.08 -9.3,72.07 -10.14,1.25 -20.76,1.32 -30.41,4.8 9,3.15 17.4,7.77 25.88,12.11 -17.39,5.19 -35.05,10.3 -51.27,18.54 12.42,0.6 24.81,1.77 37.09,3.72 -21.46,12.65 -41.97,27.67 -57.46,47.43 -16.35,20.17 -26.97,44.79 -30.78,70.46 -9.8,-9.5 -17.81,-20.72 -25.95,-31.64 -10.25,-15.96 -18.7,-33.02 -26.96,-50.06 -50.42,15.28 -98.35,39.93 -137.89,75 -26.47,23.38 -49.51,50.66 -67.57,81.01 38.71,-3.35 78.21,-3.16 116.19,5.83 12.61,3.06 24.99,7.21 36.54,13.13 1.72,1.02 4.07,1.58 4.91,3.63 25.56,49.36 50.82,98.88 76.58,148.13 -35.07,-6.26 -69.02,-17.61 -102.85,-28.56 -41.87,-13.13 -82.73,-29.79 -121.11,-51.15 -42.82,-24 -83.1,-54.01 -113.67,-92.76 -26.6,-33.66 -44.85,-75.33 -44.77,-118.74 -0.81,-43.41 16.7,-85.47 42.99,-119.4 34.29,-44.53 81.28,-77.51 130.7,-103.32 60.23,-30.93 125.39,-51.42 191.67,-64.52 28.96,-5.51 58.01,-11.26 87.48,-13.16 8.97,-16.02 20.27,-30.52 30.8,-45.5 10.4,-14.71 20.85,-29.4 31,-44.28 1.36,-1.94 2.21,-4.16 3.21,-6.28zm-315.64 1134.02c-0.31,-16.59 -0.32,-33.22 0.03,-49.81 6.01,0.15 12.02,0.17 18.04,0.12 0.08,15.62 -0.17,31.26 0.08,46.89 0.19,7.06 6.31,13.4 13.57,12.83 7.16,0.35 13.34,-5.82 13.34,-12.92 0.39,-15.59 0.02,-31.19 0.15,-46.79 6.11,-0.05 12.2,-0.01 18.31,0.09 -0.27,16.51 0.22,33.03 -0.22,49.54 -0.5,13.03 -11.18,23.43 -23.6,25.87l-16.12 0c-12.55,-2.09 -23.07,-12.93 -23.58,-25.82zm-183.1 23.9c0.33,-24.55 -0.04,-49.08 0.18,-73.63 6.08,0.07 12.13,0.04 18.21,0.07 -0.06,9.28 0.05,18.58 -0.09,27.89 9.5,0.19 18.98,0.04 28.48,0.09 0,-9.35 0,-18.68 0,-28.01 5.98,0 11.95,0.15 17.9,-0.21 0.82,24.67 0.07,49.41 0.39,74.11 -6.07,0.88 -12.19,0.63 -18.29,0.15 0,-10.26 0,-20.53 0,-30.77 -9.5,0.03 -18.98,-0.11 -28.48,0.08 0.15,10.25 0.03,20.49 0.07,30.74 -6.13,0.39 -12.34,0.83 -18.37,-0.51zm1020.64 -71.05c13.02,-7.07 31.72,-5.73 42.15,5.11 -3.39,4.12 -7.41,7.68 -10.74,11.86 -4.68,-3.34 -9.95,-7.16 -16.03,-6.11 -3.85,0.36 -8.46,3.31 -7.77,7.69 -0.13,2.51 2.33,4.1 4.29,5.17 8.11,3.73 17.77,4.8 24.43,11.28 7.27,6.92 6.91,18.93 1.87,27.03 -3.7,6.04 -10.47,9.18 -17.05,10.94l-15.61 0c-7.51,-1.54 -14.59,-4.92 -20.29,-10.06 4.11,-4.12 8.06,-8.4 12.18,-12.52 5.09,5.8 13.3,9.72 21.02,7.19 5.06,-1.56 6.77,-9.06 2.14,-12.09 -7.84,-5.25 -18.32,-5.26 -25.43,-11.85 -9.94,-9.09 -7.11,-27.55 4.84,-33.64zm-175.65 -2.53c16.61,-0.08 33.22,0.17 49.83,-0.13 0.34,5.16 0.31,10.33 0.04,15.52 -10.69,-0.24 -21.36,-0.07 -32.05,-0.12 -0.02,4.52 -0.02,9.03 0,13.56 10.11,-0.03 20.24,0.13 30.35,-0.1 0.2,4.97 0.24,9.97 0.17,14.96 -10.15,-0.03 -20.29,0.07 -30.44,-0.07 -0.1,4.97 -0.12,9.94 -0.08,14.92 11.31,0 22.61,0 33.93,0 -0.02,5.17 -0.02,10.36 0,15.55 -12.44,0.65 -24.89,0.05 -37.32,0.26 -4.87,0.01 -9.83,0.47 -14.58,-0.78 0.34,-24.52 0.05,-49.05 0.15,-73.57zm-137.04 0.12c6.09,-0.22 12.18,-0.1 18.29,-0.13 0.08,24.55 -0.14,49.1 0.1,73.64 -6.04,1.28 -12.23,0.66 -18.34,0.41 -0.05,-24.63 0.07,-49.28 -0.05,-73.92zm-178.15 0.04c5.99,-0.26 11.98,-0.29 17.98,0.01 -0.2,9.9 -0.07,19.79 -0.1,29.68 8.91,-9.81 17.54,-19.84 26.26,-29.79 7.55,-0.14 15.1,0.03 22.65,-0.16 -9.74,12.1 -21.24,22.74 -31.47,34.44 11.3,12.74 21.85,26.13 33.22,38.8 -6.31,2.61 -13.74,0.66 -20.5,1.17 -3.18,0.54 -4.73,-2.52 -6.43,-4.53 -7.87,-9.75 -15.64,-19.61 -23.73,-29.18 -0.02,11.15 0.02,22.29 0,33.46 -5.94,0.46 -11.91,0.58 -17.83,-0.02 -0.02,-24.63 0.09,-49.25 -0.05,-73.88zm-158.17 3.09c13.37,-8.2 32,-6.28 43.77,4.02 -3.8,4.24 -7.7,8.38 -11.86,12.28 -4.74,-4.96 -12.36,-8.23 -19.03,-5.16 -4.62,1.65 -5.68,8.91 -1,11.15 8.53,4.58 19.44,5.1 26.24,12.69 5.67,5.36 5.59,14.03 3.84,21.08 -2.61,8.83 -11.11,14.29 -19.72,16.19l-15.76 0c-7.44,-1.65 -14.5,-4.92 -20.08,-10.18 3.9,-4.05 7.89,-8.04 11.79,-12.08 5.53,4.31 12.16,9.08 19.59,7.33 4.23,-0.27 7.62,-4.55 6.76,-8.7 -0.84,-3.4 -4.18,-5.11 -7.13,-6.31 -7.07,-2.89 -15.22,-4.04 -20.99,-9.44 -9.63,-8.72 -7.43,-26.22 3.58,-32.87zm927.69 -271.72c15.58,-0.01 31.15,-0.01 46.72,0.02 -4.8,25.87 -8.73,51.91 -14.16,77.65 12.76,-1.32 25.68,0.51 38.41,-1.38 2.98,-4.05 3.02,-9.34 4.05,-14.08 3.85,-20.81 7.31,-41.71 11.38,-62.5 15.14,-0.3 30.27,-0.06 45.42,-0.13l0 6.43c-11.28,63.02 -22.53,126.06 -33.84,189.09 -15.53,0 -31.03,0.02 -46.52,-0.02 4.56,-27.17 9.62,-54.27 14.33,-81.41 -11.33,0.24 -22.7,-0.48 -34,0.34 -4.83,0.12 -6.34,5.24 -7.02,9.14 -4.38,22.7 -8.11,45.54 -12.32,68.27 -0.37,3.82 -4.73,4.22 -7.73,4.02 -13.18,-0.68 -26.4,-0.2 -39.6,-0.34 11.61,-65.03 23.24,-130.05 34.88,-195.1zm-119.25 5.01c11,-5.75 23.7,-5.01 35.73,-5.45 22.09,0.1 44.2,-0.13 66.3,0.14 -7.72,11.58 -14.03,24.22 -22.63,35.15 -16.37,2.03 -33.15,-0.19 -49.61,1.1 -4.34,0.41 -6.8,4.48 -7.31,8.43 -6.34,36 -12.96,71.95 -19.3,107.93 -0.94,3.33 1.66,6.69 5.14,6.62 20.95,0.32 41.92,-0.03 62.89,0.17 -6.35,10.57 -12.88,21.04 -19.39,31.5 -1.41,2.04 -2.96,5.01 -5.94,4.5 -21.53,-0.08 -43.08,0.49 -64.56,-1.2 -7.93,-0.53 -16.3,-3.46 -21.18,-10.05 -4.96,-6.56 -5.4,-15.32 -4.2,-23.15 4.89,-32.87 11.24,-65.49 16.82,-98.25 1.81,-10.35 3.48,-20.76 6.36,-30.89 3.22,-11.05 10.25,-21.51 20.88,-26.55zm-133.83 1.73c10.61,-6.58 23.44,-7.01 35.55,-7.16 21.82,0.02 43.66,-0.04 65.47,0.02 -6.72,11.16 -13.43,22.34 -20.63,33.2 -2.27,3.88 -7.36,2.52 -11.04,2.9 -11.86,0.69 -23.72,0.15 -35.58,0.42 -3.85,-0.03 -6.99,2.87 -7.55,6.63 -2.39,11.27 -4.24,22.65 -6.27,34 20.42,-0.03 40.87,0.15 61.29,-0.1 -4,9.7 -10.74,18.1 -15.95,27.23 -2.68,3.38 -4.08,9.33 -9.29,9.18 -11.91,0.49 -23.86,0.01 -35.78,0.18 -3.24,-0.22 -7.38,1.48 -7.69,5.16 -2.19,10.69 -3.73,21.5 -5.68,32.23 -1.05,3.38 1.02,7.64 4.97,7.44 20.77,0.34 41.55,-0.02 62.33,0.17 -6.79,11.01 -13.47,22.07 -20.36,32.99 -1.34,2.34 -3.56,4.36 -6.48,3.87 -21,-0.22 -42.05,1.32 -62.99,-1.03 -8.89,-1.04 -18.31,-4.91 -22.8,-13.08 -4.46,-8.32 -3.72,-18.22 -2.16,-27.2 6.62,-39.02 13.58,-77.97 21.04,-116.82 2.26,-12.08 8.72,-23.92 19.6,-30.23zm-174.83 -6.77c49.84,0.02 99.67,0.1 149.5,-0.05 -6.72,11.89 -13.86,23.53 -21.02,35.17 -12.59,2.27 -25.6,0.32 -38.34,1.08 -9.44,52.86 -18.85,105.73 -28.45,158.56 -15.65,-0.14 -31.27,-0.02 -46.91,-0.05 9.41,-52.87 18.83,-105.71 28.31,-158.56 -16.47,-0.13 -32.95,-0.07 -49.4,-0.03 2,-12.07 4.19,-24.08 6.31,-36.12zm-510.8 6.26c10.68,-6.42 23.51,-6.43 35.57,-6.67 24.69,0.05 49.39,-0.05 74.09,0.05 -6.55,11.25 -13.37,22.34 -20.55,33.19 -2.74,4.32 -8.63,2.39 -12.86,2.83 -14.6,0.81 -29.23,0.13 -43.83,0.56 -4.53,0.07 -6.98,4.41 -7.52,8.4 -5.9,31.84 -11.48,63.77 -17.29,95.65 -1.05,6.2 -2.05,13.77 2.7,18.76 7.94,6.6 22.16,4.6 26.82,-5.01 3.89,-8.48 5.11,-17.83 7.59,-26.75 -6.43,-0.02 -12.86,0 -19.28,0.02 6.38,-11.66 13.75,-22.75 20.75,-34.04 1.31,-3.27 5.21,-2.76 8.08,-2.91 14.49,0.05 28.96,0.01 43.44,0.03 -4.29,22.07 -7.12,44.48 -13.5,66.1 -3.95,13.11 -13.13,24.41 -25.07,31.06 -17.41,9.7 -38.12,12.2 -57.68,9.86 -13.56,-1.97 -28.17,-6.91 -36,-18.92 -6.45,-9.09 -7.16,-20.85 -5.48,-31.52 6.07,-36.25 12.43,-72.44 19.27,-108.54 2.29,-12.86 9.04,-25.6 20.75,-32.15zm-84.24 -6.26c15.65,0.02 31.29,0.12 46.95,-0.05 -11.71,65.06 -23.09,130.19 -35.07,195.22 -15.63,-0.07 -31.27,-0.02 -46.89,-0.04 11.69,-65.04 23.16,-130.12 35.01,-195.13zm-157.77 0c15.56,0.13 31.11,-0.14 46.67,0.13 -4.8,25.52 -9.09,51.14 -13.74,76.69 13.13,-0.05 26.24,-0.02 39.37,-0.02 4.52,-25.62 9.18,-51.22 13.8,-76.8 15.67,0.15 31.36,-0.17 47.04,0.17 -11.91,64.8 -22.97,129.8 -35.07,194.57 -15.54,0.95 -31.26,0.09 -46.87,0.41 4.75,-27.18 9.7,-54.32 14.44,-81.5 -12.74,0.45 -25.57,-0.7 -38.28,0.64 -3.19,6.58 -3.39,14.05 -4.95,21.09 -3.84,19.73 -6.53,39.7 -10.96,59.29 -15.37,1.07 -31.05,0.17 -46.55,0.44 11.82,-65.01 23.1,-130.14 35.1,-195.11zm-130.82 11.67c9.08,-9.33 22.72,-11.84 35.22,-11.77 25.26,-0.65 50.54,-0.16 75.82,-0.26 -6.92,11.91 -14,23.8 -21.94,35.05 -0.76,0.21 -2.29,0.63 -3.05,0.83 -15.14,0.44 -30.3,-0.15 -45.43,0.26 -4.52,-0.04 -8.22,3.59 -8.69,7.99 -6.45,36.24 -13.08,72.42 -19.48,108.66 -0.88,3.56 2.22,6.92 5.8,6.62 20.75,0.1 41.5,-0.02 62.25,0.05 -6.53,10.87 -13.23,21.64 -19.92,32.43 -1.19,1.5 -2.31,4.01 -4.66,3.55 -22.24,0.02 -44.54,0.56 -66.71,-1.29 -8.43,-0.83 -17.46,-4.66 -21.43,-12.59 -3.69,-6.7 -3.37,-14.71 -2.32,-22.03 5.56,-36.29 12.5,-72.33 18.68,-108.5 2.63,-13.77 5.14,-28.94 15.86,-39zm-77.06 -7.09c0.24,-2.6 2.36,-5.41 5.26,-4.97 14.2,-0.04 28.42,0.02 42.64,0 -10.83,62.82 -22.58,125.47 -33.48,188.28 -0.47,2.24 -0.81,4.63 -2.23,6.51 -4.26,2.09 -9.03,0.68 -13.53,0.77 -10.87,-0.11 -21.73,0 -32.59,-0.04 10.95,-63.58 22.79,-127 33.93,-190.55zm739.21 6.14c26.92,-6.55 54.15,-15.18 82.16,-13.42 14.64,1.6 31.88,4.58 40.33,18.14 7.8,13.04 4.36,28.89 1.76,42.92 -7.77,43.9 -15.91,87.72 -23.82,131.6 -0.78,1.63 0.09,4.75 -2.29,5.17 -15.35,0.05 -30.69,-0.05 -46.02,0.04 7.19,-40.96 14.88,-81.83 22.24,-122.75 1.42,-8.34 3.42,-16.66 3.63,-25.16 0.1,-7.05 -6.21,-12.28 -12.86,-12.82 -11.89,-2.17 -23.79,7.31 -24.68,19.3 -9.37,47 -17.24,94.3 -26.08,141.39 -15.81,-0.02 -31.62,0.05 -47.42,-0.03 11.01,-61.47 22.5,-122.83 33.05,-184.38zm-126.61 -6.28c12.76,-5.92 27.09,-6.9 40.97,-6.95 15.13,0.62 31.74,2.15 43.65,12.6 10.99,9.42 14.51,25.01 12.08,38.85 -6.97,42.5 -14.93,84.81 -22.56,127.17 -1.33,6.37 -1.9,12.91 -3.91,19.12 -15.48,-0.23 -30.97,-0.03 -46.46,-0.1 3.27,-17.37 5.9,-34.85 9.4,-52.17 -13.05,-0.98 -26.2,-0.17 -39.3,-0.4 -3.22,17.49 -6.51,34.96 -9.5,52.47 -15.59,0.1 -31.18,0.29 -46.75,-0.09 7.84,-43.61 15.28,-87.28 23.31,-130.86 1.35,-7.35 2.41,-14.83 5.02,-21.87 5.6,-16.49 18,-30.76 34.05,-37.77zm11.2 44.43l0 0c-4.36,18.75 -7.35,37.8 -10.96,56.72 13.11,0.08 26.22,0.08 39.34,-0.02 3.17,-17.76 6.6,-35.49 9.79,-53.25 1.08,-5.35 0.66,-11.67 -3.9,-15.32 -11.3,-8.87 -31.17,-2.5 -34.27,11.87zm-821.9 -49.35c20.8,-4 43.31,-3.95 62.77,5.31 22.79,-4.93 46.34,-10.84 69.7,-6.1 12.11,2.03 25.46,7 31.11,18.81 6.62,13.47 2.73,28.86 0.27,42.87 -8.02,44.92 -16.17,89.83 -24.5,134.69 -15.76,0.08 -31.52,-0.02 -47.28,0.07 7.23,-40.98 14.86,-81.84 22.28,-122.78 1.35,-7.81 3.08,-15.59 3.53,-23.52 0.39,-4.66 -1.73,-9.56 -5.79,-12.02 -10.25,-6.15 -25.45,-1.26 -29.72,10.02 -2.85,8.25 -4.09,16.92 -5.69,25.47 -7.48,40.92 -14.98,81.82 -22.27,122.76 -17,0.08 -34,-0.02 -51,0.07 7.25,-40.87 14.83,-81.66 22.24,-122.49 1.36,-7.94 3.16,-15.85 3.58,-23.91 0.34,-4.54 -1.66,-9.41 -5.65,-11.81 -10.01,-6.12 -24.83,-1.67 -29.55,9.13 -2.31,5.86 -3.32,12.1 -4.55,18.24 -7.92,43.58 -15.96,87.15 -23.71,130.75 -15.75,0.1 -31.51,0.02 -47.25,0.05l0 -1.61c10.94,-60.91 22.38,-121.73 32.74,-182.73 16.1,-4.36 32.3,-8.4 48.74,-11.27zm906.18 -516.69c10.48,-2.27 20.92,1.84 30.16,6.48 21.55,11.27 40.14,27.27 58.01,43.57 -15.95,0.1 -31.91,-0.97 -47.83,-1.98 -7.96,-0.99 -17.98,-1.75 -21.9,-9.98 -4.9,-7.67 -3.65,-17.47 1.51,-24.63 -5.23,-6.37 -12.45,-10.39 -19.95,-13.46zm-300.54 -151.02l0 0c-68.76,18.29 -136.23,45.92 -192.77,89.81 -34.83,27.5 -66.07,62.28 -80.57,104.9 4.36,-3.07 8.09,-6.89 12.21,-10.27 80.57,-68.48 179.41,-112.93 281.57,-138.13 -5.98,-4.68 -13.26,-7.17 -20.1,-10.29 27.76,-10.35 56.83,-16.9 86.32,-19.38 4.63,-12.08 8.68,-24.49 13.69,-36.47 -33.66,5.41 -67.23,11.7 -100.35,19.83z"/>
   <path class="fil1" d="M787.12 367.73c33.12,-8.13 66.69,-14.42 100.35,-19.83 -5.01,11.98 -9.06,24.39 -13.69,36.47 -29.49,2.48 -58.56,9.03 -86.32,19.38 6.84,3.12 14.12,5.61 20.1,10.29 -102.16,25.2 -201,69.65 -281.57,138.13 -4.12,3.38 -7.85,7.2 -12.21,10.27 14.5,-42.62 45.74,-77.4 80.57,-104.9 56.54,-43.89 124.01,-71.52 192.77,-89.81zm355.13 -15.22c70.2,11.83 139.56,31.98 202.67,65.39 50.88,27.26 99.26,63.8 128.59,114.51 18.09,31.28 26.59,68.57 20.92,104.49 -4.95,34.54 -22.07,66.31 -44.46,92.66 -35.75,41.86 -83.24,71.93 -132.82,94.8 -84.27,38.09 -176.44,56.72 -268.49,61.5 0.54,-27.4 8.11,-55.42 25.6,-76.97 10.24,-12.71 23.27,-23.51 38.39,-29.89 19.08,-3.24 38.56,-2.53 57.85,-2.63 46.45,0.58 92.53,7.39 138.91,9.16 8.13,0.47 16.46,0.31 24.24,-2.36 7.81,-1.93 13.25,-8.29 19.48,-12.93 17.73,-15.59 35.18,-31.45 52.54,-47.43 7.6,-7.75 16.58,-14.08 23.57,-22.45 7.09,-8.26 15.64,-16.47 17.62,-27.65 1.46,-8.04 -3.65,-16.03 -10.67,-19.61 -12.28,-5.33 -25.62,-7.89 -37.56,-14.01 -30.59,-14.36 -61.5,-28.06 -91.39,-43.79 -12.91,-8.13 -27.79,-15.12 -35.58,-28.96 -13.81,-23.12 -20.58,-49.62 -25.85,-75.8 -30.12,-22.51 -59.6,-45.82 -89.68,-68.39 -2,-23.63 -6.45,-47.09 -13.88,-69.64z"/>
  </g>
 </g>
</svg>
