<?xml version="1.0" encoding="UTF-8"?>
<!DOCTYPE svg PUBLIC "-//W3C//DTD SVG 1.1//EN" "http://www.w3.org/Graphics/SVG/1.1/DTD/svg11.dtd">
<!-- Creator: CorelDRAW -->
<svg xmlns="http://www.w3.org/2000/svg" xml:space="preserve" width="2000px" height="1600px" version="1.1" style="shape-rendering:geometricPrecision; text-rendering:geometricPrecision; image-rendering:optimizeQuality; fill-rule:evenodd; clip-rule:evenodd"
viewBox="0 0 2000 1600"
 xmlns:xlink="http://www.w3.org/1999/xlink">
 <defs>
  <style type="text/css">
   <![CDATA[
    .fil0 {fill:black;fill-rule:nonzero}
    .fil2 {fill:#762022;fill-rule:nonzero}
    .fil1 {fill:#FEFEFE;fill-rule:nonzero}
   ]]>
  </style>
 </defs>
 <g id="Capa_x0020_1">
  <metadata id="CorelCorpID_0Corel-Layer"/>
  <g id="Missouri_x0020_State_x0020_Bears.cdr">
   <path class="fil0" d="M875.63 80l49.54 0c15.84,1.44 31.81,2.13 47.47,5.1 9.67,3.95 18.03,10.56 27.36,15.29 11.63,-5.42 21.46,-15.66 34.79,-16.62 13.78,-1.69 27.61,-2.85 41.46,-3.77l47.96 0c37.07,1.97 73.99,6.03 110.83,10.58 19.82,2.65 40.23,3.27 59.09,10.52 29.37,10.95 54.14,31.13 75.95,53.19 12.57,-14.45 25.62,-28.69 41.05,-40.16 24.6,-17.28 54.84,-26.43 84.89,-25.56 26.08,0.78 51.52,7.2 76.76,13.26 34.44,9.48 64.96,29.21 93.23,50.51 33.9,25.9 64.66,55.66 93.19,87.32 3.29,3.22 4.18,7.84 5.26,12.13 11.68,51.27 23.72,102.61 30.28,154.86 2.97,26.49 5.28,54.45 -4.89,79.8 -8.68,21.5 -22.56,40.48 -37.69,57.92 14.35,16.64 30.88,31.22 45.74,47.36 9.3,13.34 20.3,26.15 24.96,42.03l0 9.92c-2.72,7.16 -8.5,12.53 -15.48,15.47 -13.48,5.97 -28.02,9.06 -41.89,13.95 9.23,63.27 15.56,126.95 21.12,190.63 2.99,37.39 6.53,74.76 7.2,112.27 0.13,9.58 -0.62,20.12 -7,27.82 -6.56,8.02 -17.8,10.17 -27.63,9.16 -15.45,-1.51 -29.26,-8.98 -43.04,-15.47 -34.52,79.73 -71.07,158.56 -108.09,237.14 -12.14,25.03 -23.8,50.33 -36.92,74.88 -8.48,15.73 -19.75,31.07 -36.04,39.32 -10.66,5.35 -24.55,7.33 -34.84,0.13 -13.96,-9.48 -25.39,-22.15 -36.5,-34.72 -79.25,28.8 -157.85,59.71 -238.68,83.89 -19.72,14.63 -36.09,33.81 -55.81,48.41 -30.22,0.8 -60.51,-0.09 -90.75,0.44 -26.01,24.57 -52.41,48.75 -78.74,73 -25.87,-24.37 -51.93,-48.64 -78.31,-72.43 -30.44,-2.22 -61.37,0.77 -91.77,-1.42 -18.83,-15.22 -35.45,-33.28 -54.67,-47.95 -80.87,-24.21 -159.5,-55.16 -238.81,-83.91 -11.16,12.5 -22.45,25.23 -36.42,34.67 -11.86,8.18 -27.91,4.64 -39.36,-2.54 -19.11,-11.97 -29.73,-32.68 -39.59,-52.18 -48.02,-97.85 -93.28,-197.07 -137.07,-296.89 -17.87,8.89 -37.87,19.68 -58.42,14.29 -12.67,-3.16 -19.2,-16.64 -19.04,-28.87 -0.3,-38.86 3.86,-77.58 6.81,-116.3 5.55,-64.62 12.02,-129.19 21.37,-193.39 -11.31,-3.71 -22.74,-6.98 -34.06,-10.73 -9.6,-3.31 -20.32,-8.5 -23.29,-19.15l0 -9.48c4.96,-16.21 16.02,-29.54 25.83,-43.02 14.77,-15.61 30.74,-30.08 44.87,-46.33 -15.52,-17.88 -29.78,-37.37 -38.33,-59.62 -9.28,-24.11 -7.18,-50.56 -4.53,-75.7 6.45,-53.05 18.68,-105.16 30.54,-157.19 1.03,-4.29 1.87,-8.91 5.14,-12.16 9.42,-10.47 19.16,-20.61 28.92,-30.76 37.07,-36.09 76.77,-70.72 123.36,-93.99 25.44,-13.1 53.89,-18.04 81.71,-23.41 31.43,-5.8 64.96,-3.54 93.88,10.84 24.91,11.22 43.74,31.7 61.39,51.91 27.93,-28.35 61.9,-54.27 102.42,-59.82 47.66,-5.69 95.32,-11.96 143.29,-14.47z"/>
   <path class="fil1" d="M734.65 140.75c68.98,-7.61 138.33,-18.99 207.91,-12.89 5.03,0.71 10.7,0.19 15.11,3.13 14.12,9.19 28.16,18.52 42.33,27.64 14.1,-9.12 28.07,-18.4 42.15,-27.52 3.65,-2.63 8.34,-2.47 12.62,-3.02 63.29,-5.97 126.6,2.81 189.39,10.22 12.41,1.64 25.1,2.12 37.1,5.96 21.48,6.38 40.18,19.43 57.21,33.63 10.76,8.59 18.88,19.91 29.51,28.66 16.91,-17.24 36.07,-32.09 55.95,-45.71 13.97,-9.28 28.25,-18.86 44.76,-22.88 20.86,-5.49 42.69,-2.38 63.45,2.05 17.23,3.91 34.88,7.02 50.92,14.79 29.47,13.88 55.43,34.01 80.05,55.13 19.06,16.71 37.42,34.24 54.44,53.01 2.77,2.63 3.18,6.56 4.19,10.03 10.24,45.05 20.61,90.15 26.63,135.98 2.37,21.46 5.48,44.23 -3.02,64.8 -9.35,25.85 -28.23,49.62 -55.09,58.38 24.57,25.94 49.28,51.86 72.3,79.2 4.07,3.5 2.79,10.19 -2.26,12.02 -11.96,5.49 -24.64,9.23 -36.87,14.04 7.24,60.82 11.73,121.91 15.91,183.01 2.51,40.41 5.19,80.82 6.44,121.3 -0.52,5.28 1.74,12.51 -3.75,15.87 -5.07,2.24 -11.26,1.76 -16.25,-0.53 -9.21,-4.11 -18.01,-9.05 -26.79,-13.99 -34.14,82.4 -74.87,161.88 -115.72,241.1 -19.91,37.83 -39.61,75.79 -60.98,112.8 -2.93,7.02 -12.96,6.93 -17.76,2.01 -9.17,-8.09 -18.11,-16.5 -26.49,-25.39 -90.61,26.31 -179.57,58.15 -271.11,81.21 -6.22,0.89 -10.38,5.81 -14.82,9.74 -13.25,12.09 -26.72,23.95 -39.97,36.06 -32.55,-0.06 -65.08,0.03 -97.6,-0.04 -18.11,19.25 -36.28,38.4 -54.54,57.48 -18.29,-19.03 -36.46,-38.21 -54.52,-57.46 -32.54,0 -65.07,-0.02 -97.62,0 -16.82,-14.6 -32.68,-30.56 -50.15,-44.32 -52.66,-13.87 -104.89,-29.37 -156.8,-45.9 -39.72,-12.36 -79.17,-25.66 -119.24,-36.8 -8.02,9.19 -17.19,17.26 -26.22,25.42 -5.39,5.53 -16.02,4.57 -18.56,-3.36 -48.64,-86.81 -94.06,-175.45 -137.05,-265.19 -13.69,-28.77 -26.88,-57.8 -38.9,-87.33 -9.95,5.44 -19.71,11.38 -30.36,15.31 -5.55,1.12 -14.03,1.4 -16.07,-5.26 -0.93,-17.48 0.69,-34.99 1.35,-52.45 4.89,-87.91 10.49,-175.82 20.69,-263.29 -11.64,-4.42 -23.5,-8.33 -35,-13.1 -3.52,-1.47 -8.09,-4.8 -6.51,-9.19 2.42,-4.76 6.35,-8.53 9.74,-12.59 21.16,-23.91 42.81,-47.39 64.96,-70.38 -26.45,-8.64 -45.28,-31.8 -54.77,-57.19 -8.66,-20.12 -5.99,-42.54 -3.68,-63.64 5.87,-46.26 16.37,-91.74 26.65,-137.18 0.94,-4.46 1.92,-9.22 5.51,-12.39 23.82,-25.81 49.65,-49.79 77.3,-71.43 26.38,-20.07 55,-39.36 88.05,-45.97 26.19,-5.96 53.53,-13.14 80.39,-6.9 16.89,3.63 31.54,13.23 45.74,22.63 20.29,13.85 39.81,28.98 57.09,46.49 8.87,-7.34 16.02,-16.46 24.41,-24.27 22.33,-19.55 48.12,-37.51 78.22,-41.54z"/>
   <path class="fil2" d="M744.23 161.58c66.74,-7.43 133.76,-21.01 201.16,-13.97 6.88,-0.02 10.81,6.54 15.62,10.45 6.17,6.47 13.96,11.54 19.26,18.72 5.83,71.13 10.72,142.38 16.44,213.51 2.17,0 4.39,0.02 6.58,0.02 5.76,-71.18 10.74,-142.45 16.44,-213.63 9.37,-10.01 19.86,-19.29 30.33,-28.2 18.1,-3.41 36.75,-2.7 55.13,-2.77 44.36,1.17 88.25,8.3 132.25,13.6 15.36,2.08 31.57,2.47 45.39,10.38 35.8,18.24 58.38,52.76 81.99,83.82 12.05,-16.21 23.11,-33.33 37.26,-47.84 16.39,-14.33 34.26,-26.95 52.8,-38.31 14.81,-9 32.76,-12.53 49.9,-9.99 18.65,2.52 37.05,6.93 55.17,11.89 32.46,11.75 60.05,33.51 86.18,55.52 18.08,15.95 36.09,32.25 51.81,50.58 10.61,42.49 19.61,85.53 26.01,128.91 2.31,20.94 6.79,43.57 -2.81,63.41 -7.65,17.71 -20.91,35.98 -41.18,39.52 -56.05,-43.66 -112.12,-87.43 -170.54,-127.86 -0.55,-5.05 0.71,-10.08 1.19,-15.09 9.3,4.41 18.4,9.99 28.86,11.04 4.58,-26.67 -4.48,-55.93 -25.44,-73.58 18.45,-4.22 35.78,5.4 51.73,13.31 15.77,9.99 30.29,24 36.89,41.78 3.89,10.99 -4.34,21.21 -13.89,25.55 10.85,7.07 21.8,14.02 32.54,21.26 6.72,-14.24 11.39,-29.42 12.73,-45.14 -22.97,-28.14 -49.48,-53.37 -78.33,-75.43 -17.3,-13.01 -35.56,-24.91 -55.31,-33.87 -8.89,11.86 -10.56,27.08 -13.56,41.16 -5.09,30.54 -8.43,61.51 -8.45,92.5 38.37,25.06 74.44,53.54 109.09,83.5 46.5,40.99 91.89,83.73 130.89,132.02 1.64,3.18 7.93,8.05 3.56,11.11 -8.8,3.61 -18.08,5.83 -27.18,8.51 8.23,61.96 14.2,124.22 18.43,186.6 2.17,39.59 5.6,79.41 2.19,119 -11.02,-1.42 -20.18,-8.51 -30.31,-12.58 -33.87,87.41 -75.47,171.57 -118.31,254.89 -12.98,24.93 -26.17,49.78 -40,74.23 -4.36,7.46 -8.36,15.23 -14.35,21.54 -7.38,-7.34 -13.74,-15.59 -20.39,-23.55 -42.88,16.85 -86.74,31.09 -130.63,45.06 -56.16,17.73 -112.75,34.12 -169.8,48.82 20.11,-48.21 39.88,-96.57 60.18,-144.71 56.07,-14.31 112.18,-28.57 168.11,-43.38 16.12,-20.85 28.8,-44.25 42.43,-66.81 42.6,-74.38 82.88,-150.11 120.43,-227.16 8.78,1.9 17.85,5.67 26.93,3.43 -5.86,-89.92 -35.96,-175.59 -55.5,-262.95 9.55,-1.49 19.27,-1.69 28.75,-3.63 0.96,-2.7 0.42,-4.99 -1.66,-6.88 -22.08,-25.99 -47.98,-48.35 -73.86,-70.38 -34.21,-28.48 -69.78,-55.34 -106.47,-80.57 -35.58,-24.41 -72.11,-47.66 -110.97,-66.58 -32.96,12.34 -64.23,28.79 -96.16,43.56 -64.82,30.95 -129.21,62.79 -193.76,94.31 -84,-40.92 -167.63,-82.56 -252.34,-122.03 -12.32,-5.49 -24.39,-11.64 -37.21,-15.87 -35.52,17.14 -69.03,38.06 -101.72,60.02 -40.11,27.18 -78.94,56.21 -116.18,87.18 -25.07,21.28 -50.03,42.97 -71.73,67.8 -2.14,2.74 -5.59,5.5 -3.81,9.39 9.48,2.01 19.24,2.19 28.82,3.66 -18.95,84.18 -47.34,166.72 -54.86,253.1 0.32,3.52 -1.85,8.04 1.17,10.81 8.55,0.09 16.84,-2.34 25.1,-4.35 34.49,71.09 71.59,140.92 110.44,209.72 16.71,28.48 32.53,57.74 52.37,84.13 55.93,14.98 112.11,29.12 168.23,43.5 20.2,48.16 40.04,96.46 60,144.71 -101.47,-26.72 -202.24,-56.71 -300.39,-93.87 -6.54,8.02 -13.08,16.09 -20.32,23.49 -8.09,-8.8 -13.08,-19.81 -19.22,-29.96 -23.69,-42.47 -45.81,-85.78 -67.48,-129.3 -30.72,-62.79 -60.87,-125.99 -85.83,-191.34 -10.1,4.16 -19.38,10.65 -30.22,12.8 -2.81,-19.09 -1.48,-38.42 -1.25,-57.6 3.33,-83.04 10.85,-165.9 21.6,-248.3 -9.97,-2.9 -20.12,-5.32 -29.63,-9.58 6.06,-11.7 15.36,-21.23 23.8,-31.2 43.08,-48.36 90.63,-92.64 140.5,-133.89 26.29,-21.44 53.3,-42.04 81.81,-60.44 -0.39,-33.69 -3.73,-67.4 -10.01,-100.5 -2.61,-11.45 -4.64,-23.61 -12.05,-33.14 -34.92,16.18 -65.58,40.22 -93.58,66.35 -14.01,13.67 -27.9,27.52 -40.04,42.9 1.35,15.71 5.87,30.97 12.78,45.1 10.65,-7.25 21.57,-14.08 32.34,-21.14 -9.56,-4.5 -17.88,-14.75 -13.69,-25.85 6.58,-17.35 20.68,-31.09 36.02,-41.05 16.09,-8.26 33.76,-17.93 52.5,-13.74 -21.14,17.46 -29.94,46.97 -25.42,73.55 10.4,-1.19 19.55,-6.63 28.85,-11.02 0.21,5.06 2.17,10.31 0.91,15.25 -58.35,40.39 -114.26,84.18 -170.33,127.66 -20.84,-3.75 -34.12,-22.81 -41.8,-41.1 -7.22,-14.97 -5.26,-32.05 -3.87,-48.05 5.35,-46.24 15.89,-91.68 26.08,-137.02 0.83,-7.62 7.46,-12.23 12.28,-17.42 29.6,-30.2 61.71,-58.4 98.01,-80.34 14.65,-8.94 30.72,-15.52 47.61,-18.7 25.76,-5.83 54.17,-13.67 79.25,-1.1 21.25,11.2 40.68,25.67 59.11,41.03 14.83,14.61 26.05,32.34 38.47,48.96 21.89,-28.32 42.19,-59.63 73.32,-78.77 10.77,-6.97 22.93,-12.04 35.82,-13.09zm-99.57 267.15c13.28,-8.73 26.63,-18.56 42.36,-22.26 12.8,-0.28 25.39,3.06 37.66,6.42 33.65,10.08 65.86,24.39 97.61,39.32 45.82,22.01 90.78,45.78 134.9,71.06 -7.16,14.6 -14.22,29.28 -21.17,44 -51.11,-19.2 -102.31,-38.13 -153.46,-57.24 -5.99,-1.96 -11.77,-5.41 -18.17,-5.57 -38.42,3.7 -76.92,6.74 -115.48,8.77 -35.52,50.68 -71.29,101.22 -104.73,153.28 -2.17,3.48 -7.95,12.37 -0.07,12.32 22.86,-27.06 45.28,-54.53 67.87,-81.85 7.17,-9.53 16.87,-16.66 25.78,-24.43 23.34,-19.52 49.46,-37.76 80.11,-42.88 26.43,-3.57 54.88,-2.36 79.04,9.96 -19.63,3.59 -38.12,12.26 -53.41,25.06 -0.05,2.74 -0.07,5.5 -0.1,8.27 15.25,9.51 32.37,16.37 50.41,17.72 -31.8,19.47 -60.9,42.97 -89.9,66.28 -21.58,17.92 -43.23,35.93 -62.49,56.37 -3.09,4.27 -9.83,9.16 -6.84,14.99 5.24,1.55 10.7,2.17 16.07,3.11 2.06,29.46 9.55,58.19 17.14,86.63 9.28,33.89 20.37,67.31 34.02,99.72 23.72,9.92 49.14,15.2 73.09,24.35 15.57,42.76 28.25,86.53 42.22,129.85 17.28,55.06 34.35,110.15 51.95,165.09 6.91,21.26 13.51,42.66 21.54,63.53 25.07,3.2 50.26,5.64 75.42,8.02 3.91,-0.07 6.66,2.99 9.4,5.35 8.11,7.63 16.36,15.17 24.57,22.74 10.47,-9.01 19.75,-19.61 30.99,-27.57 26.08,-3.04 52.32,-5.05 78.38,-8.54 15.25,-41.4 27.7,-83.73 41.21,-125.7 23.68,-74.67 46.29,-149.66 71.09,-223.95 1.71,-3.31 1.55,-8.55 5.6,-9.94 23.52,-7.96 47.77,-13.81 70.81,-23.23 17.71,-41.67 31.02,-85.07 41.6,-129.05 4.37,-18.88 8.37,-37.92 9.67,-57.3 5.16,-2.36 16.52,0.69 17.03,-6.9 -4.44,-9.6 -13.1,-16.23 -20.18,-23.78 -26.98,-25.73 -56.1,-49.09 -85.54,-71.93 -17.73,-13.37 -35.45,-26.88 -54.54,-38.26 18.13,-1.19 35.55,-8 50.61,-17.96 -0.02,-1.9 -0.11,-5.67 -0.16,-7.57 -15.11,-13.21 -33.9,-21.69 -53.55,-25.44 24.25,-12.18 52.66,-13.53 79.15,-9.9 39.38,6.9 70.7,34.04 99.45,59.96 25.38,29.94 49.97,60.54 75.32,90.51 6.12,-4.14 0.55,-10.42 -1.92,-14.9 -33.21,-51.64 -68.69,-101.79 -103.89,-152.07 -39.34,-1.83 -78.56,-5.42 -117.78,-8.78 -56.66,20.39 -112.94,41.97 -169.44,62.84 -6.68,-14.84 -14.24,-29.21 -21.08,-43.98 60.9,-34.63 122.91,-67.68 187.71,-94.45 24.5,-9.64 49.44,-19.33 75.79,-22.26 9.03,-1.39 17.37,3.31 25.17,7.2 24.71,13.92 47.13,31.59 68.61,50.01 35.59,30.72 68.44,64.78 96.53,102.52 20.69,27.88 38.31,58.47 48.37,91.88 16.11,51.77 16.11,107.29 7.4,160.44 -4.36,17.76 -12.41,34.33 -19.2,51.24 -35.56,82.13 -74.31,162.84 -112.78,243.64 -51.49,16.93 -103.04,33.78 -154.58,50.58 -14.01,5.3 -29.07,8.39 -42.51,14.72 -26.65,65.3 -52.28,131.11 -81.15,195.52 -27.61,-0.05 -55.22,0 -82.85,-0.05 -6.11,-1.05 -10.18,4.12 -14.63,7.25 -14.9,11.27 -29.74,22.63 -44.76,33.78 -17.96,-13.37 -35.61,-27.17 -53.66,-40.41 -29.4,-1.39 -59.09,-0.18 -88.6,-0.57 -28.71,-64.78 -54.74,-130.67 -81.21,-196.37 -65.65,-21.44 -131.29,-42.9 -196.91,-64.43 -34.47,-72 -68.81,-144.09 -101.26,-217.03 -10.75,-25.1 -22.65,-49.85 -30.4,-76.09 -9.85,-57.37 -9.05,-117.81 10.65,-173.12 14.99,-42.68 41.94,-79.89 71.22,-113.88 34.2,-39.04 72.5,-74.67 114.88,-104.66zm186.2 174.65c29.94,-10.76 62.37,-16.55 94.12,-11.79 -28.98,52.27 -58.1,104.48 -87.27,156.64 10.04,31.11 28.46,58.38 45.97,85.65 4.09,-2.15 8.18,-4.23 12.32,-6.25 -14.06,-28.18 -22.7,-58.72 -28.66,-89.55 -0.99,-6.83 5.6,-11.11 9.85,-15.29 31.27,-27.77 68.55,-52.18 111.06,-56.71 40.37,-4.11 79.02,14.04 110.79,37.35 10.38,7.77 20.43,16.04 29.74,25.07 3.29,2.95 4.77,7.43 3.54,11.75 -6.1,30.06 -14.56,59.91 -28.37,87.43 4.21,2.1 8.42,4.18 12.62,6.31 17.03,-27.59 35.77,-54.63 45.69,-85.83 -29.37,-52.07 -58.21,-104.43 -87.4,-156.59 49.8,-6.93 99.84,9.78 142.56,34.46 36.96,22.68 69.94,53.08 92.25,90.47 2.31,30.91 -1.85,62.01 -4.92,92.8 -3.31,28.23 -7.1,56.39 -11.81,84.41 -41.88,12.44 -83.62,25.44 -125.88,36.58 -12.2,118.72 -37.05,235.95 -71.15,350.28 -63.93,0 -127.89,0.02 -191.82,0 -34.1,-114.33 -58.99,-231.54 -71.15,-350.28 -42.27,-11.14 -84,-24.1 -125.88,-36.62 -7.97,-51.5 -15.61,-103.22 -17.37,-155.36 0.85,-8.69 -2.49,-18.65 3.2,-26.17 32.37,-50.08 81.81,-88.83 137.97,-108.76zm90.12 163.5l0 0c-2.58,2.84 -6.88,6.01 -5.16,10.42 2.97,13.58 9.44,26.06 16.2,38.06 8.76,-1.37 17.47,-2.97 26.22,-4.34 -5.55,-11.5 -11.59,-23.27 -12.62,-36.23 2.15,-7.45 7.2,-13.69 10.38,-20.73 -12.71,-0.07 -25.42,4.5 -35.02,12.82zm123.02 -12.82l0 0c3.31,6.63 6.95,13.07 10.77,19.43 -1.24,13.41 -7.14,25.64 -12.99,37.55 8.69,1.33 17.37,2.86 26.04,4.46 7.36,-12.71 14.33,-26.17 16.61,-40.85 -7.17,-14.33 -25.23,-20.25 -40.43,-20.59zm-142.81 196.32l0 0c7.5,30.9 16,61.94 30.03,90.58 3.7,-0.57 3.45,-4.89 4.21,-7.59 4.11,-25.85 5.37,-52 8.5,-77.96 7.38,10.49 14.49,21.19 21.35,32.02 2.01,-1.12 4,-2.45 4.66,-4.8 4.6,-9.76 7.75,-20.23 13.49,-29.44 4.89,9.83 9.32,19.89 14.47,29.6 1.03,0 3.13,-0.02 4.18,-0.05 5.23,-9.73 9.46,-20 14.72,-29.73 6.86,11.11 9.23,24.54 17.23,34.99 7.46,-10.79 14.4,-21.92 22.04,-32.59 3.15,26.76 4.39,53.76 8.84,80.36 0.44,2.38 1.6,4.39 3.5,6.04 14.17,-28.94 22.84,-60.21 30.4,-91.43 -13.42,-7.84 -27.52,-14.47 -42.26,-19.43 -24.73,-8.5 -51.22,-9.21 -77.1,-7.54 -27.79,2.53 -54.35,12.89 -78.26,26.97zm129.05 251.63l0 0c-4,-9.07 -7.89,-18.19 -12.09,-27.15 -6.4,7.72 -12.05,16 -18.15,23.93 -6.15,-7.91 -11.77,-16.21 -18.13,-23.93 -4.22,8.96 -8.16,18.08 -12.25,27.11 -11.24,-14.88 -22.28,-30.59 -37.62,-41.58 2.9,22.29 8.59,44.11 13.39,66.03 17.69,-5.34 36.03,-8.91 54.54,-9.28 18.56,0.35 36.94,3.94 54.68,9.28 4.77,-21.89 10.6,-43.68 13.39,-65.94 -15.48,10.83 -26.4,26.72 -37.76,41.53z"/>
  </g>
 </g>
</svg>
