<?xml version="1.0" encoding="UTF-8"?>
<!DOCTYPE svg PUBLIC "-//W3C//DTD SVG 1.1//EN" "http://www.w3.org/Graphics/SVG/1.1/DTD/svg11.dtd">
<!-- Creator: CorelDRAW -->
<svg xmlns="http://www.w3.org/2000/svg" xml:space="preserve" width="2000px" height="1600px" version="1.1" style="shape-rendering:geometricPrecision; text-rendering:geometricPrecision; image-rendering:optimizeQuality; fill-rule:evenodd; clip-rule:evenodd"
viewBox="0 0 2000 1600"
 xmlns:xlink="http://www.w3.org/1999/xlink">
 <defs>
  <style type="text/css">
   <![CDATA[
    .fil0 {fill:black;fill-rule:nonzero}
    .fil2 {fill:#E9AE10;fill-rule:nonzero}
    .fil1 {fill:#FEFEFE;fill-rule:nonzero}
   ]]>
  </style>
 </defs>
 <g id="Capa_x0020_1">
  <metadata id="CorelCorpID_0Corel-Layer"/>
  <g id="Missouri_x0020_Tigers.cdr">
   <path class="fil0" d="M977.98 289.86c178.24,-2.04 358.26,23.49 525.38,87.01 76.82,29.51 150.95,67.34 216.85,116.94 53.66,40.61 102.19,89.49 135.89,148.13 19.6,34.19 33.87,71.64 40.09,110.61 7.64,46.74 3.7,95.25 -10.98,140.27 -22.13,68.26 -66.67,127.14 -119.12,175.22 -57.52,52.58 -124.75,93.59 -195.17,126.5 -79.75,36.99 -164.03,63.68 -249.86,82.31 -161.82,34.69 -329.21,41.75 -493.61,24.01 -92.91,-10.25 -185,-28.93 -273.97,-57.72 -88.09,-28.75 -173.6,-67.21 -250.04,-119.98 -47.52,-32.89 -91.47,-71.55 -127.13,-117.2 -39.95,-50.94 -68.68,-112.12 -74.82,-177.06 -6.26,-60.04 7.5,-121.24 35.59,-174.4 38.49,-73.13 99.82,-131.68 167.2,-178.3 82.62,-56.76 175.58,-97.09 271.21,-126.3 130.34,-39.4 266.49,-58.04 402.49,-60.04z"/>
   <path class="fil1" d="M1064.25 356.36c10.02,-7.84 23.75,-3.06 34.87,-0.42 36.08,11.42 71.27,25.73 107.94,35.33 2.48,0.56 4.32,2.06 5.5,4.48 -37.31,-7.3 -74.44,-15.52 -111.66,-23.24 -11.34,-2.55 -24.5,-3.21 -34.35,3.96 -7,4.82 -10.3,13.16 -11.76,21.22 -1.02,-0.02 -3.06,-0.06 -4.08,-0.06 1.74,-14.22 2.52,-30.71 13.54,-41.27zm491.63 255.05c25.48,9.86 51.53,20.32 72.5,38.35 7.76,8.52 10.6,20.21 12.92,31.21 2.64,15.54 4.71,31.19 6.45,46.87 -13.45,9.59 -29.33,14.95 -44.48,21.21 0.48,0.9 1.46,2.7 1.94,3.6 13.69,-0.74 27.43,-1.96 40.88,-4.74 -0.12,13.61 -2.26,27.13 -4.9,40.45 -12.69,3.47 -25.6,5.97 -38.42,8.97 0.56,1.16 1.68,3.5 2.24,4.66 11.23,0.02 22.47,-0.04 33.73,0.04 -1.02,10.84 -4.42,21.37 -9.28,31.07 -1.08,3.24 -4.54,4.1 -7.34,5.26 -9.85,3.74 -20.47,4.74 -30.87,5.88 0.26,0.86 0.76,2.58 1,3.46 10.14,1.61 20.44,1.82 30.67,2.45 -6.1,16.22 -18.27,29.57 -32.13,39.69 -13.11,-5.38 -21.33,-18.13 -25.43,-31.19 -4.76,-14.07 -3.04,-29.15 -3.28,-43.72 1.5,-24.04 2.94,-48.37 9.16,-71.72 7.5,-17.97 23.27,-30.89 39.45,-40.89 4.09,-12.15 10.53,-23.39 18.17,-33.66 -0.78,-1.78 -1.54,-3.56 -2.3,-5.32 -2.54,0.82 -5.08,1.76 -7.68,2.28l-1.06 -0.68c-14.99,-23.48 -40.56,-36.77 -61.94,-53.53zm-388.53 -50.54c6.3,1.52 12.56,3.2 18.74,5.16 0.08,3.78 0.3,7.54 0.64,11.32 8.02,1.14 16.11,1.86 24.13,3.28 -5.54,5.13 -12.22,8.71 -18.43,12.93 3.15,7.36 6.11,16.88 14.89,19.05 15.6,-2.02 29.03,-11.91 39.75,-22.93 7.85,2.3 15.79,4.4 23.63,6.84 -2.34,4.84 -5.1,9.48 -8.6,13.56 20.4,1.45 40.77,-1.06 61.18,-1.04 8.6,0.46 13,-8.74 18.18,-14.16 20.53,3.06 42.54,2.22 61.08,12.94 -3.88,3.63 -8.08,6.97 -12.36,10.13 21.07,-1 43.35,1.14 62.08,11.58 -4.56,3.42 -9.12,6.86 -13.66,10.27 30.01,-0.4 56.78,15.86 78.36,35.31 -16.82,-2.28 -33.83,-2.2 -50.77,-2.06 0.02,0.96 0.04,2.88 0.04,3.84 12.22,4.96 20,16.4 25.26,27.99 10.85,2.08 21.59,5.06 31.8,9.36 17.36,9.32 29.81,27.35 32.09,46.96 2.14,23.12 -1.57,47.57 -15.21,66.86 -16.75,23.85 -41.13,43.73 -69.96,50.37 -36.15,9.03 -74.99,12.75 -111.12,1.63 -26.13,-8.19 -52.42,-17.15 -79.97,-18.73 -31.91,-1.16 -65.74,4.34 -92.25,23.23 -19,13.28 -30.97,34.53 -36.53,56.68 -4.96,20.1 -6.24,41.31 -2.48,61.72 20.23,-12.91 45.51,-19.07 69.24,-14.09 9.77,2.56 19.09,6.68 28.17,11.07 -2.84,-8.49 -10.16,-14.29 -16.64,-20.01 27.23,-2.22 52.63,12.68 71.94,30.61 0.6,-25.99 8.54,-53.76 28.67,-71.42 20.87,-19.99 48.04,-32.04 75.75,-39.14 27.53,-7.1 55.77,-10.74 83.86,-14.72 16.05,-2.22 32.03,-6.03 46.76,-12.93 12.7,7.87 26.33,14.35 40.47,19.21 1.74,23.55 -11.1,45.35 -26.97,61.7 -11.9,12.74 -27.11,21.99 -43.33,28.13 12.16,-17.55 24.43,-36.51 25.71,-58.46 -0.6,-6.42 -1.5,-15.55 -8.71,-17.85 -18.72,-5.92 -38.89,-4.66 -57.79,-0.16 -8.73,35.81 -35.6,64.61 -67.23,82.17 6.5,-22.93 12.67,-46.49 11.31,-70.54 -21.53,1.24 -40.42,14.34 -53.76,30.59 -13.09,15.7 -24.59,34.77 -23.71,55.92 0.88,13.14 5.02,27.75 16.69,35.31 -10.97,13.88 -25.41,25.23 -42.02,31.49 -8.96,3.48 -19.52,2.82 -27.67,-2.38 -14.36,-8.66 -23.34,-24.21 -38.69,-31.45 -26.09,-10.71 -57.08,-14.21 -83.13,-1.54 2.18,14.02 6.54,27.63 12.05,40.69 1.16,3.08 3.24,5.66 5.3,8.2 9.52,-6.02 21.19,-8.18 32.25,-6.02 14.9,2.5 28.29,9.85 41.57,16.63 20.61,6.48 43.18,1.42 61.72,-8.81 25.05,-13.94 45.58,-34.53 65.13,-55.17 6.34,12.22 4.44,27.12 -1.02,39.29 -6.21,14.7 -17.49,26.35 -26.85,38.89 20.88,8.42 45.11,3.12 63.94,-8.04 23.24,-13.39 45.11,-29.59 63.5,-49.16 5,21.13 -2.68,43.18 -14.37,60.76 -0.66,1.88 -4.18,3.8 -2.18,5.84 10.13,1 20.33,1.3 30.47,2.5 -6.98,29.7 -22.46,56.86 -41.61,80.37 -8.42,10.73 -18.91,19.49 -29.69,27.73 1.1,-7.24 1.3,-14.56 1.18,-21.83 -13.61,11.31 -28.85,20.43 -44.13,29.31 -24.53,13.89 -49.94,26.77 -77.13,34.6 4.16,-10.25 8.04,-20.65 11.02,-31.31 -29.63,15.54 -61.4,26.76 -93.77,34.99 5.1,-9.37 9.51,-19.11 13.81,-28.87 -22.81,8.24 -46.48,13.76 -70.25,18.36 5.91,-12.58 10.97,-25.65 13.63,-39.35 -16.59,2.72 -33.39,3.94 -50.12,5.26 -4.36,-17.72 -10.56,-35.79 -23.19,-49.41 -20.46,-20.89 -47.23,-34.26 -74.54,-43.88 -21.87,-8.1 -45.22,-11.14 -68.37,-12.8 -8.76,-0.84 -17.52,-0.1 -26.26,0.56 37.11,9.98 75.5,18.68 108.55,39.17 -38.87,2.68 -77.1,11.06 -114.34,22.23 -42.25,12.52 -83.44,28.31 -123.96,45.51 -11.18,-0.7 -22.19,-2.9 -33.27,-4.48 -42.73,-6.94 -85.43,-14.76 -127.2,-26.23 10.58,-3.46 21.09,-7.22 31.79,-10.34 22.59,-6.54 44.08,-16.19 65.66,-25.41 -16.52,-4.36 -32.91,-9.98 -47.61,-18.83 38.21,-7.9 76.38,-18.94 110.09,-39.11 -55.82,-15.82 -110.61,-35.81 -162.73,-61.32 38.45,-6.08 76.5,-14.6 113.96,-25.17 -88.31,-27.59 -174.16,-62.88 -257.47,-103.03 49.8,13.14 100.69,21.86 151.71,28.73 -11.92,-11.99 -23.69,-24.41 -32.13,-39.18 42.77,25.71 90.13,42.44 137.21,58.3 49.01,16.31 98.83,30.13 148.89,42.8 -22.71,-21.43 -40.84,-47.08 -58.86,-72.43 -27.81,-40.41 -54,-82 -78.07,-124.74 26.55,40.3 64.8,70.99 103.39,99.15 -1.26,-16.46 -2.88,-33.43 1.7,-49.53 3.73,6.1 5.97,12.94 8.85,19.45 22.81,53.15 52.48,103.59 89.95,147.76 23.79,27.75 50.5,53.46 81.47,73.09 -14.17,-48.34 -23.13,-98.03 -32.86,-147.41 6.95,14.22 17.09,26.69 29.41,36.63 -9.34,-25.59 -11.48,-53.14 -11.84,-80.16 19.15,37.27 49.3,68.74 85.11,90.35l-1.4 -0.56c0.44,0.36 1.32,1.07 1.76,1.42 -0.32,-23.93 0.7,-48.28 8.2,-71.25 7.64,-23.81 20.19,-46.81 39.35,-63.3 23.55,-20.15 54.34,-29.69 84.71,-33.07 23.95,-2.46 48.2,-1.84 72.03,1.56 30.65,5.32 61.2,11.52 91.31,19.37l3.52 -0.26c-10.48,-6.57 -22.19,-10.75 -33.65,-15.23 -48.54,-17.52 -98.92,-29.31 -149.37,-39.87 -5.24,-1.28 -10.71,-1.56 -15.71,-3.64 25.75,-4.49 51.94,-2.18 77.91,-2.08 57.4,3 115.82,4.38 171.22,21.28 0.72,-0.66 2.16,-2 2.86,-2.66 -37.96,-15.06 -77.67,-25.27 -117.62,-33.51 -60.14,-12.8 -121.24,-20.59 -182.46,-25.91 30.31,-6 61.46,-6.92 92.29,-8.02 55.92,-2.28 111.94,-0.18 167.67,5.06 13.37,0.8 26.67,3.1 40.08,2.96 -4.84,-3.06 -10.69,-3.52 -16.07,-5.06 -17.94,-4.16 -35.93,-8.12 -54.02,-11.5 -97.39,-14.61 -195.7,-23.85 -294.2,-25.41 24.75,-8.74 50.92,-12.35 76.85,-15.67 61.1,-7.12 122.66,-8.56 184.1,-8.72 9.93,-8.74 21.87,-14.46 33.81,-19.89 -46.37,-13.32 -94.77,-15.38 -142.54,-19.38 -25.29,-2.84 -50.84,-3.22 -75.89,-7.91 -25.49,-4.46 -50.56,-11.34 -74.74,-20.56 -2.88,-0.8 -4.67,-3.26 -6.61,-5.3 -13.5,-14.73 -27.59,-29.11 -38.97,-45.58 5.5,-0.84 10.58,1.92 15.77,3.28 10.28,3.46 21.2,5.28 30.91,10.32 20.78,10.23 41.75,21.31 64.86,25.15 -4.24,-14.42 -8.29,-29.79 -4.88,-44.79zm-167.16 -65.2c42.6,15.46 87.83,22.34 132.94,24.86 35.12,0.73 69.79,9.89 101.52,24.83 9.84,4.61 18.78,10.87 28.45,15.83 20.1,10.92 41.07,20.09 61.7,29.91 -9.3,0.54 -18.07,-2.74 -26.79,-5.32 -24.89,-7.41 -49.24,-16.51 -73.34,-26.21 -11.63,-4.56 -22.87,-10.47 -35.3,-12.61 -34.37,-6.32 -70.18,2.64 -104.07,-7.44 -23.69,-7.1 -48.62,-9.56 -71.79,-18.43 -6.68,-7.04 -11.14,-16 -13.32,-25.42zm-246.48 -80.63c9.42,-5.74 21.09,-2.96 31.17,-0.6 -8.22,-0.8 -20.11,0.88 -22.05,10.6 0.02,10.07 5.72,19.03 11.89,26.59 12,14.31 27.4,25.39 43.71,34.31 33.69,19.49 71.14,31.37 108.76,40.66 8.46,10.54 17.38,20.72 25.92,31.19 -38.59,-7.64 -77.18,-17.15 -113.23,-33.25 -36.74,-16.21 -69.99,-43.4 -87.55,-80.11 -3.66,-9.06 -7.21,-22.03 1.38,-29.39z"/>
   <path class="fil2" d="M544.56 386.19c134.66,-45.82 276.79,-67.46 418.74,-71.04 168.71,-3.46 339.05,18.04 498.92,73.34 82.77,29.01 162.92,67.32 233.82,119.3 51.78,38.33 98.92,84.45 131.99,140.17 19.18,32.43 33.27,68.08 39.59,105.31 8.48,49.26 3.1,100.7 -14.77,147.35 -25.06,66.06 -71.82,121.64 -125.34,166.74 -79.52,66.52 -174.15,112.62 -271.65,146.31 12.07,-15.37 22.71,-31.99 30.15,-50.1 1.1,-2 1.42,-5 4.02,-5.66 68.11,-26.89 133.97,-60.82 192.15,-105.58 50.11,-38.69 95.01,-86.21 122.28,-143.9 19.14,-40.08 28.19,-85.19 24.15,-129.55 -3.82,-44.63 -20.67,-87.47 -45.08,-124.78 -34.55,-52.92 -82.79,-95.49 -134.88,-130.62 -66.53,-44.32 -140.21,-77.05 -215.98,-102.04 -81.62,-26.79 -166.13,-43.93 -251.26,-54.66 -30.23,-13.12 -59.44,-29.65 -91.83,-37.03 -12.94,-2.98 -27.69,-3.2 -38.91,4.9 -8.47,6 -15.71,13.63 -21.83,22.01 -113.72,-2.14 -227.88,7.92 -339.19,31.83 -85.75,18.61 -170,45.52 -248.99,83.99 -50.31,24.69 -98.53,54.1 -141.46,90.23 -36.18,30.37 -68.43,65.94 -92.27,106.89 61.56,51.8 125.46,100.9 192.3,145.75 34.33,22.37 69.02,44.58 106.19,61.96 -30.15,-32.65 -57.31,-68.24 -79.1,-107.05 -21.55,-38.49 -39.25,-79.85 -47,-123.46 5.48,2.62 7.45,8.92 11.19,13.32 33.33,45.44 75.68,83.37 119.58,118.32 63.18,50.02 131.74,92.81 202.46,131.28 42.18,22.49 84.35,46.06 130.09,60.58 -30.39,-34.15 -58.74,-70.08 -85.91,-106.83 -22.43,-30.77 -43.98,-62.3 -61.94,-95.93 -32.03,-54.98 -59.4,-112.76 -80.77,-172.72 23.67,16.81 44.88,37.23 69.6,52.56 -0.34,-2.26 -0.94,-4.48 -1.76,-6.59 -16.24,-37.93 -31.33,-76.4 -44.19,-115.61 -7.46,-23.43 -14.55,-47.12 -18.15,-71.49 37.48,-7.44 75.17,-14.32 113.3,-17.56 10.1,60.84 41.62,121.6 95.79,154.07 1.66,43.65 5.76,87.41 15.71,130 5.26,20.67 11.54,41.62 23.65,59.44 -4.45,-40.71 2.74,-82.97 23.34,-118.6 6.27,-11.14 13.51,-21.73 21.71,-31.55 4.86,4.6 -0.02,11.21 -0.26,16.71 -12,63.48 -15.48,129.32 -4.08,193.16 5.4,32.83 18.93,63.46 32.45,93.59 13.85,29.73 28.91,59.12 48.32,85.67 8.52,11.41 17.82,22.53 29.53,30.83 -7.61,-27.45 -17.71,-54.24 -23.47,-82.21 -17.73,-77 -13.79,-161.17 22.37,-232.41 4.7,48.69 17.92,96.27 35.55,141.8 16.54,43.08 38.59,83.79 62.84,122.97 -35.81,-21.61 -65.96,-53.08 -85.11,-90.35 0.36,27.02 2.5,54.57 11.84,80.16 -12.32,-9.94 -22.46,-22.41 -29.41,-36.63 9.73,49.38 18.69,99.07 32.86,147.41 -30.97,-19.63 -57.68,-45.34 -81.47,-73.09 -37.47,-44.17 -67.14,-94.61 -89.95,-147.76 -2.88,-6.51 -5.12,-13.35 -8.85,-19.45 -4.58,16.1 -2.96,33.07 -1.7,49.53 -38.59,-28.16 -76.84,-58.85 -103.39,-99.15 24.07,42.74 50.26,84.33 78.07,124.74 18.02,25.35 36.15,51 58.86,72.43 -50.06,-12.67 -99.88,-26.49 -148.89,-42.8 -47.08,-15.86 -94.44,-32.59 -137.21,-58.3 8.44,14.77 20.21,27.19 32.13,39.18 -51.02,-6.87 -101.91,-15.59 -151.71,-28.73 83.31,40.15 169.16,75.44 257.47,103.03 -37.46,10.57 -75.51,19.09 -113.96,25.17 52.12,25.51 106.91,45.5 162.73,61.32 -33.71,20.17 -71.88,31.21 -110.09,39.11 14.7,8.85 31.09,14.47 47.61,18.83 -21.58,9.22 -43.07,18.87 -65.66,25.41 -10.7,3.12 -21.21,6.88 -31.79,10.34 41.77,11.47 84.47,19.29 127.2,26.23 11.08,1.58 22.09,3.78 33.27,4.48 99.56,12.65 200.29,16.27 300.44,9.65 4.24,-1.51 3.23,4.18 4.3,6.44 16.71,0.38 33.42,-0.8 50.12,-2.02 -4.16,11.66 -8.92,23.36 -14.94,34.09 -69.07,6.44 -138.63,7.76 -207.93,4.78 -99.64,-4.34 -198.99,-18.07 -295.64,-42.79 -80.41,-20.73 -159.15,-48.98 -232.8,-87.51 -61.8,-32.43 -120.32,-72.25 -169.28,-122.26 -44.15,-45.34 -80.52,-100.16 -96.13,-162.1 -15.06,-57.34 -10.38,-119.28 11.73,-174.18 24.76,-62.48 68.94,-115.4 119.52,-158.81 80.42,-68.42 176.76,-115.6 276.05,-149.81zm476.44 19.47c9.9,-1.76 19.98,-1.96 30.01,-2.38 49.79,-0.88 99.27,5.9 148.53,12.42 32.35,4.38 64.68,9.12 96.89,14.56 18.27,3.05 36.85,6.03 53.86,13.75 25.49,10.16 47.01,27.49 69.7,42.47 17.47,12.15 35.45,23.89 50.9,38.62 13.38,11.32 11.7,31.07 10.02,46.79 -2.24,-0.66 -4.48,-1.32 -6.68,-2 -3.52,-7.22 -6.2,-16.08 -14.03,-19.79 -8.88,-4.42 -19.18,-4.98 -28.87,-3.88 -0.08,13.21 10.87,22.73 20.97,29.49 14.39,10.09 31.99,13.55 48.62,18.23 18.54,5.06 36.69,11.62 54.96,17.47 21.38,16.76 46.95,30.05 61.94,53.53l-0.2 1.42c-8.45,2.94 -15.73,8.23 -21.63,14.95 -2.76,-5.18 -5.72,-10.24 -8.7,-15.27 -16.53,0.08 -33.03,0.64 -49.54,1.16 -3.18,5.45 -7.56,10.05 -12.78,13.57 -2.49,-2.16 -5.23,-3.92 -8.01,-5.66 -21.58,-19.45 -48.35,-35.71 -78.36,-35.31 4.54,-3.41 9.1,-6.85 13.66,-10.27 -18.73,-10.44 -41.01,-12.58 -62.08,-11.58 4.28,-3.16 8.48,-6.5 12.36,-10.13 -18.54,-10.72 -40.55,-9.88 -61.08,-12.94 -5.7,-0.38 -11.4,-1.56 -16.66,-3.78 -20.63,-9.82 -41.6,-18.99 -61.7,-29.91 -9.67,-4.96 -18.61,-11.22 -28.45,-15.83 -31.73,-14.94 -66.4,-24.1 -101.52,-24.83 -45.11,-2.52 -90.34,-9.4 -132.94,-24.86 2.18,9.42 6.64,18.38 13.32,25.42 8.29,9.35 16.09,19.15 24.19,28.69 -24.44,-7.26 -48.85,-15.34 -74.28,-18.22 -12.09,-1.48 -24.43,-1.7 -36.23,-4.96 -37.62,-9.29 -75.07,-21.17 -108.76,-40.66 -16.31,-8.92 -31.71,-20 -43.71,-34.31 -6.17,-7.56 -11.87,-16.52 -11.89,-26.59 1.94,-9.72 13.83,-11.4 22.05,-10.6 70.8,17.21 143.81,22.35 216.41,25.57 45.6,1.04 91.79,-0.18 136.55,10.24 -16.97,2.1 -34.26,1.24 -51.1,4.46 0.94,2 2.44,3.38 4.52,4.18 50.28,2.95 100.57,8.53 150.03,18.09 -6.58,2.04 -13.56,2.16 -20.31,3.14 1.16,1.22 2.36,2.44 3.55,3.68 44.99,7.97 88.76,21.55 132.74,33.69 8.2,1.71 16.42,7.07 24.85,3.49 -27.69,-19.55 -55.18,-39.54 -84.21,-57.06 -7.84,4 -15.18,11.9 -24.57,10.7 -26.85,-12.33 -52.98,-26.35 -80.14,-38.11 -9.41,3.4 -19.87,9.04 -29.9,4.92 -26.24,-9.26 -52.41,-18.71 -78.74,-27.63 -46.24,5.9 -92.71,11.34 -139.37,12.16 -4.18,0.86 -9.84,-2.64 -12.82,1.54 -1.2,-2.9 2.62,-3.2 4.56,-3.78 27.81,-6.98 55.8,-13.22 84.07,-18.06zm-848.49 363.12l0 0c-6.48,48.21 2.84,97.81 23.91,141.43 29.39,60.84 78.05,110.23 131.93,149.99 82.26,60.18 177.33,100.57 274.63,129.36 5.44,1.86 10.84,-1.26 16.14,-2.3 23.11,-6.66 46.78,-12.11 68.87,-21.75 -30.43,-7.12 -60.78,-14.7 -90.55,-24.27 -7.63,-2.66 -15.49,-4.94 -22.55,-8.96 35.45,-2.82 70.8,-7.02 106.01,-12.02 19.01,-2.99 38.18,-5.59 56.68,-11.01 -50.81,-14.22 -100.81,-31.45 -150.07,-50.43 -31.25,-12.57 -62.98,-24.59 -92.25,-41.4 20.01,0.46 39.99,2 60.02,2.58 42.22,1.28 84.79,3.58 126.78,-2.3 -10.32,-4.2 -21.36,-6.22 -31.89,-9.76 -35.21,-11.45 -69.46,-25.61 -103.55,-39.96 -60.46,-25.84 -120.06,-53.73 -178.64,-83.56 -66.14,-34.21 -131.73,-70.11 -192.22,-113.74 -0.81,-0.48 -2.43,-1.42 -3.25,-1.9z"/>
  </g>
 </g>
</svg>
