<?xml version="1.0" encoding="UTF-8"?>
<!DOCTYPE svg PUBLIC "-//W3C//DTD SVG 1.1//EN" "http://www.w3.org/Graphics/SVG/1.1/DTD/svg11.dtd">
<!-- Creator: CorelDRAW -->
<svg xmlns="http://www.w3.org/2000/svg" xml:space="preserve" width="2000px" height="1600px" version="1.1" style="shape-rendering:geometricPrecision; text-rendering:geometricPrecision; image-rendering:optimizeQuality; fill-rule:evenodd; clip-rule:evenodd"
viewBox="0 0 2000 1600"
 xmlns:xlink="http://www.w3.org/1999/xlink">
 <defs>
  <style type="text/css">
   <![CDATA[
    .fil0 {fill:#1B417B;fill-rule:nonzero}
    .fil1 {fill:#E61C39;fill-rule:nonzero}
   ]]>
  </style>
 </defs>
 <g id="Capa_x0020_1">
  <metadata id="CorelCorpID_0Corel-Layer"/>
  <g id="Mississippi_x0020_Rebels.cdr">
   <path class="fil0" d="M391.59 594.74c9.08,-8.12 18.14,-18.22 31.11,-19.22 1.76,4.13 4.33,8.21 3.94,12.89 -0.91,43.12 -13.12,84.78 -22.48,126.58 -4.57,23.13 -10.65,45.92 -16.46,68.77 -22.05,85.91 -48.78,171.72 -93.57,248.81 -4.51,8.75 -12.79,14.64 -20.94,19.69 -9.82,5.67 -22.4,9.55 -33.11,3.93 -9.85,-5.47 -18.17,-15.08 -19.89,-26.48 -9.6,-43.92 -2.07,-88.96 5.02,-132.63 2.13,-11.81 3.37,-23.77 5.62,-35.56 15.49,-64.63 32.63,-129.36 60.55,-189.91 1.57,-3.56 4.59,-7.18 8.88,-7.07 6.18,0.9 11.54,4.7 17.79,5.37 6.51,-1.33 12.13,-5.34 17.43,-9.18 23.09,-18.06 33.92,-47.03 56.11,-65.99zm1070.48 400.27c17.76,-30.93 37.54,-60.77 52.93,-93.01 -0.78,26.29 2.43,52.91 -3.02,78.9 -2.58,11.84 -7.12,23.75 -15.4,32.82 -5.05,4.97 -12.02,0.59 -16.79,-2.49 -5.95,-4.31 -12.88,-7.25 -20.4,-6.51 -1.47,-3.58 1.08,-6.72 2.68,-9.71zm250.12 -62.01c6.42,-11.57 7.94,-26.46 19.13,-34.88 13.47,39.95 1.52,83.59 -18.28,119.27 -1.77,3.97 -6.81,5.07 -10.67,4.08 -6.33,-1.67 -11.52,-6.04 -17.8,-7.82 -3.61,-0.69 -7.25,-0.83 -10.86,-1.25 8.75,-28.33 27.08,-52.24 38.48,-79.4zm-982.31 -99.31c3.63,-2.66 8.86,-5.02 13.08,-2.23 5.57,5.88 1.22,13.75 -0.66,20.22 -13.32,41.73 -37.94,81.66 -75.57,105.47 -0.57,-29.85 10.45,-58.89 27.01,-83.37 10.16,-14.87 21.45,-29.42 36.14,-40.09zm-152.61 -106.58c14.58,-33.66 28.98,-67.78 49.02,-98.64 0.85,2.5 2.18,5.03 1.51,7.76 -11.47,71.77 -37.74,140.78 -74.27,203.45 -4.15,6.33 -6.93,13.74 -12.56,18.97 1.73,-46.02 19.65,-89.25 36.3,-131.54zm442.45 -301.79l18.9 0c21.75,1.54 42.91,12.2 55.72,30.06 9.52,11.9 14.63,26.71 15.35,41.87 12.29,-14.78 25,-29.3 39.32,-42.15 15.44,-13.63 36.33,-21.73 57.06,-19.32 15.47,1.4 28.94,10.17 40.37,20.12 13.37,11.41 25.05,25.59 30.31,42.61 12.87,-14.5 26.01,-28.89 40.77,-41.51 6.59,-5.48 13.54,-10.89 21.79,-13.65 13.34,-4.58 28.11,-7.34 41.93,-3.14 9.98,2.78 18.33,9.41 25.23,16.95 12.92,14.02 23.45,30.68 28.45,49.2 4.37,16.27 3.31,34.19 -4.33,49.35 -12.81,26.78 -26.36,53.24 -39.67,79.8 13.21,-7.38 28.73,-10.67 43.76,-8.33 18.42,2.53 35.45,13.36 45.7,28.85 12.55,18.45 14.64,43.37 5.62,63.72 -6.86,15.99 -20.37,28.72 -36.36,35.4 5.07,16.25 4.38,34.87 -4.32,49.77 -19.32,33.48 -37.77,67.46 -55.62,101.74 -10.94,21.24 -21.89,42.47 -31.46,64.36 50.58,-68.5 87.12,-145.77 126.75,-220.74 3.12,-5.61 1.43,-12.27 2.76,-18.31 3.34,-18.72 17.14,-33.95 33.1,-43.4 16.02,-9.12 34.88,-15.06 53.42,-12.05 25.06,3.62 44.67,28.82 42.75,53.87 -0.33,10.24 -9,17.4 -10.83,27.19 -2.92,13.65 -2.46,27.72 -1.43,41.55 2.82,37.4 10.42,74.26 13.1,111.68 27.86,-57.14 53.49,-115.55 86.02,-170.27 8.12,-13.41 16.91,-26.58 27.75,-37.98 14.34,-15.05 35.33,-22.28 55.79,-22.92 16.2,-0.81 31.63,7.34 42.82,18.61 10.69,10.74 14.44,27.51 9.45,41.83 -7.2,22.48 -18.6,45.75 -12.84,69.91 6.42,27.48 12.48,55.18 13.97,83.45 0.71,19.94 0.46,40.01 -3.03,59.72 10.3,-6.47 23.29,-10.14 35.11,-5.67 15.25,5.12 24.16,20.75 26.11,36.03 3.14,16.47 -1.77,32.93 -6.79,48.5 -9.75,28.3 -22.36,55.95 -40.11,80.2 -14.25,19.5 -35.38,32.56 -57.36,41.71 -27.49,11.04 -57.16,17.55 -86.87,16.61 -36.23,-2.32 -67.05,-24.36 -93.87,-47.03 -28.52,15.96 -58.78,29.32 -90.74,36.64 -20.82,4.84 -42.78,1.35 -62.49,-6.29 -22.46,-8.76 -42.99,-22.3 -60.22,-39.12 -13.88,12.2 -27.88,24.53 -44.5,32.93 -21.95,11.54 -47.06,19.41 -72.07,16.05 -18.7,-2.57 -35.12,-13.83 -46.83,-28.26 -19.87,12.59 -41.02,24.85 -64.75,27.83 -28.28,4.02 -58.75,-8.46 -74.65,-32.46 -13.11,-19.74 -16.59,-44.2 -15.82,-67.44 0,-14.57 2.46,-28.98 5.42,-43.2 -9.75,21.86 -19.27,43.8 -28.77,65.75 -10.15,22.68 -19.23,47.73 -39.28,63.72 -14.9,12.34 -38.35,9.64 -51.51,-3.94 -5.61,-6.56 -9.23,-14.5 -13.13,-22.12 -11.45,-24.19 -18.95,-50.46 -20.53,-77.26 -10.35,27.44 -20.4,55.16 -34.54,80.91 -7.46,13.03 -17.9,27.16 -33.98,29.06 -13.38,2.3 -26.84,-5.07 -33.56,-16.56 -15.45,-24.67 -28.66,-51.44 -33.97,-80.28 -8.94,18.1 -20.21,34.97 -32.39,51.02 -13.24,17.33 -30.33,32.43 -51.19,39.65 -20.35,7.42 -43.55,5.78 -62.87,-3.88 -14.07,-6.81 -26.2,-16.93 -37.36,-27.76 -17.34,16.06 -35.29,31.87 -56.12,43.28 -14.85,8.1 -31.62,13.46 -48.69,12.85 -15.02,-0.62 -29.74,-5.74 -42.12,-14.21 -13.93,-10.05 -23.39,-25.03 -30.31,-40.52 -12.78,-29.05 -17.93,-60.73 -21.29,-92.08 -4.55,8.29 -8.22,17.03 -12.44,25.48 -10.37,21.03 -22.85,41.18 -38.48,58.73 -25.75,29.39 -62.07,49.81 -101.03,54.57 -33.08,4.19 -68.24,-1.72 -96.48,-20.04 -21.84,-15.34 -39.42,-36.73 -50.36,-61.08 -10.97,-24 -15.29,-50.41 -16.96,-76.58l0 -34.72c3.83,-67.44 19,-133.49 33.09,-199.34 17.6,-86.11 56.21,-167.39 109.26,-237.27 18.19,-23.5 37.75,-46.12 60.19,-65.7 21.84,-19.2 48.16,-33.27 76.26,-40.74 20.31,-5.28 42.13,-7.16 62.53,-1.29 18.53,5.35 36.53,12.94 52.72,23.49 10.37,7.07 20.91,16.13 23.73,28.96 3.1,12.67 -1.38,25.47 -6.03,37.15 8.37,6.61 17.62,13.67 20.51,24.5 4.81,18.04 5.73,36.97 5.18,55.55 10.17,-21.08 21.39,-41.66 32.72,-62.13 13.54,-23.82 27.22,-47.66 43.78,-69.53 16.86,-24.34 47.22,-37.01 76.27,-36.84 15.53,-0.32 31.98,6.19 40.36,19.82 10.97,17.6 12.66,39.31 11.06,59.52 -8.42,78.68 -25.11,156.58 -51.3,231.3 7.04,-4.99 13.53,-10.94 21.51,-14.41 11.89,-5.25 23.84,-10.94 36.78,-12.98 17.26,-3.07 34.42,3.23 49.66,10.8 9.57,4.59 16.91,12.81 22.12,21.9 15.26,27.11 16.43,59.68 12.55,89.85 -5.92,44.97 -27.44,86.11 -53.53,122.57 13.51,3.26 25.6,12.37 30.75,25.51 18.47,-57.24 40.28,-113.37 63.39,-168.89 31.23,-77.01 60.89,-154.67 88.89,-232.9 -24.71,22.56 -50.04,45 -79.18,61.73 -13.17,7.34 -28.78,14.57 -43.99,9.2 -15.12,-4.48 -22.87,-19.3 -30.45,-31.85 -15.97,-27.58 -18.19,-61.83 -8.53,-91.92 6.51,-17.77 19.52,-32.33 33.98,-44.14 25.54,-21.07 55.55,-35.54 83.65,-52.75 7.58,-4.87 17.08,-6.1 25.82,-4.25 7.27,1.57 13.28,6.24 18.86,10.9 18.35,-7.18 37.45,-12.68 57.11,-14.68zm-70.28 50.18l0 0c-2.27,1.49 -5.64,0.6 -6.06,-2.32 -0.27,-4.15 0.6,-8.3 0.18,-12.44 -2.2,-3.5 -7.18,-7.13 -11.15,-4.08 -23.47,14.29 -48.11,26.71 -70.5,42.73 -11.52,8.41 -22.74,17.77 -30.61,29.8 -7.46,11.08 -9.13,24.85 -9.5,37.88 -0.39,18.18 6.15,35.91 16.43,50.73 3.12,4.25 5.83,10.21 11.76,10.9 6.04,0.23 11.75,-2.48 16.91,-5.37 23.98,-14.32 42.38,-35.91 65.19,-51.81 20.13,-15.35 40.54,-31.55 65,-39.37 2.96,-1.51 4.98,1.63 6.52,3.69 3.12,4.8 1.38,10.67 -0.59,15.56 -34.49,96.81 -70.58,193.1 -109.56,288.21 -14.21,33.63 -27.19,67.75 -39.61,102.06 -10.09,28.49 -20.53,56.94 -27.99,86.25 -3.31,11.63 -2.11,23.91 0.99,35.43 5.84,21.59 15.92,41.85 27.73,60.78 1.75,3.07 5.07,7.2 8.96,4.47 9.49,-6.97 14.01,-18.41 19.31,-28.52 23,-49.63 38.41,-102.34 60.33,-152.43 28.9,-59.08 54.44,-119.9 87.14,-177.06 16.01,-28.02 33.27,-55.62 55.05,-79.55 3.25,1.68 1.03,5.05 0.66,7.55 -7.87,24.85 -18.47,48.71 -28.7,72.66 -28.91,67.08 -59.71,133.63 -81.44,203.51 -8.01,27.66 -15.97,56.19 -14.11,85.26 0.41,13.37 8.24,24.57 12.46,36.84 3.47,8.77 6.02,18 10.83,26.19 2.36,4.13 6.54,8.28 11.7,7.62 6.77,-1.8 11.39,-7.62 15.31,-13.04 9.02,-13.1 15.12,-27.88 21.38,-42.42 29.53,-69.12 60.62,-137.65 95.43,-204.3 26.59,-50.66 55.09,-100.52 88.89,-146.76 2,-3.4 5.85,-4.7 9.27,-6.22 -0.25,2.5 -0.19,5.07 -0.95,7.48 -33.9,83.68 -69.82,166.68 -98.24,252.46 -9.69,30.59 -19.73,61.95 -18.86,94.44 0.53,16.91 3.99,34.84 15.28,48.07 12.99,14.73 34.83,19.44 53.37,14.05 23.82,-6.52 43.64,-21.92 64.42,-34.63 2.58,1.06 5.21,2.16 7.83,3.26 6.91,17.14 21.89,32.47 41.09,34.08 20.33,1.19 39.91,-6.84 57.34,-16.62 16.16,-9.71 30.91,-22.1 42.59,-36.96 3.83,-4.77 12.43,-7.48 16.66,-1.81 8.53,10.87 18.76,20.3 29.98,28.35 17.58,12.4 37.7,22.21 59.29,24.69 12.09,1.68 23.98,-2.04 35.48,-5.28 30.08,-9.13 58.41,-23.35 85.1,-39.8 20.76,18.9 42.47,38.04 68.97,48.37 21.62,8.83 45.64,5.06 67.75,0.23 25.66,-6.43 51.86,-16.43 70.58,-35.84 17.74,-20.54 29,-45.74 38.71,-70.86 4.75,-14.32 11.2,-29.16 8.51,-44.58 -0.94,-5.32 -2.91,-11.56 -8.32,-13.82 -6.7,-1.35 -12.23,3.93 -16.27,8.54 -10.9,13.43 -17.21,29.79 -26.27,44.44 -7.21,12.46 -17.95,22.42 -29.01,31.44 -7.24,5.85 -17.2,7.98 -25.85,4.09 9.22,-19.16 18.85,-38.14 27.6,-57.55 13.6,-29.67 20.58,-62.37 20.23,-95.02 0.19,-31.8 -6.83,-62.98 -13.99,-93.79 -5.92,-25.66 1.95,-51.74 10.94,-75.68 2.46,-6.65 5.9,-14.96 0.58,-21.19 -6.7,-7.78 -17.3,-13.31 -27.76,-11.41 -12.07,1.45 -24.42,5.76 -32.82,14.91 -12.09,12.71 -20.95,28.02 -29.87,43.02 -34.97,61.82 -62.92,127.23 -94.74,190.66 -12.96,26.2 -27.12,52.06 -45.62,74.82 -9.63,11.49 -22.02,22.23 -37.51,23.97 7.66,-13.4 15.99,-26.43 23.17,-40.12 14.62,-27.93 25.98,-58.93 24.67,-90.93 -1.67,-49.32 -14.98,-97.66 -14.18,-147.15 0.37,-15.53 2.44,-31.82 11.11,-45.13 4.52,-6.63 -0.65,-14.64 -4.87,-20.03 -7.89,-9.87 -22.26,-9.32 -33.17,-5.67 -14.48,4.75 -29.63,13.76 -34.72,28.98 -2.39,5.71 0.9,11.84 -0.41,17.5 -22.06,41.85 -43.18,84.23 -65.86,125.76 -30.81,56.31 -65.37,111.06 -108.68,158.69 -3.68,3.85 -7.26,9.68 -13.45,8.63 -8.37,-0.33 -10.01,-10.35 -10.95,-16.89 -1.05,-16.41 2.67,-32.9 8.79,-48.07 11.27,-28.5 25.22,-55.85 39.21,-83.1 18.73,-36.33 38.6,-72.07 58.68,-107.66 4.31,-9.85 5.32,-24.83 -5.21,-31.14 -8.77,-5.04 -19.87,-8.6 -29.58,-4.04 -16.02,7.07 -29.07,19.46 -39.67,33.2 -20.99,26.83 -37.47,56.82 -52.91,87.08 -23.8,48.66 -44.45,99.12 -57.71,151.71 -2.24,7.99 -9.73,13.56 -17.28,16.15 -6.12,0.97 -14.33,0.35 -17.91,-5.46 -1.73,-19.06 2.4,-38.01 7.57,-56.21 9.2,-31.32 20.97,-61.81 31.54,-92.67 18.77,-47.73 41.56,-93.74 63.65,-139.99 32.56,-67.19 66.24,-133.84 99.29,-200.79 4.54,-8.49 7.23,-18.36 5.27,-27.99 -3.21,-17.79 -13.65,-33.55 -26.24,-46.17 -4.52,-4.86 -11,-7.92 -17.7,-7.61 -10.82,0.8 -21.77,4.21 -29.75,11.84 -23.59,20.73 -43.72,44.99 -64.18,68.74 -23.34,27.6 -46.07,55.75 -68.56,84.06 -2.55,2.76 -6.31,6.75 -10.39,4.96 0.09,-2.73 1.53,-5.14 2.52,-7.61 16.48,-35.61 34.28,-70.58 51.81,-105.67 2.25,-4.61 4.77,-9.73 3.16,-14.98 -3.3,-12.64 -13.1,-22.1 -22.44,-30.65 -9.36,-8.29 -21.4,-15.61 -34.44,-13.1 -19.38,2.79 -32.88,18.23 -45.38,31.84 -25.42,28.32 -48.43,58.77 -75.1,85.95 1.49,-22.37 6.59,-44.28 8.77,-66.56 1.46,-13.26 1.21,-27.88 -7,-39.08 -9.71,-15.34 -27.95,-23.42 -45.78,-23.08 -28.1,0.56 -54.35,12.14 -79.52,23.5zm-615.47 6.38l0 0c-18.59,13.68 -34.56,30.58 -49.77,47.86 -61.84,71.61 -105.73,158.96 -124.63,251.77 -12.72,59.86 -26.27,119.82 -31.19,180.94 -2.75,39.33 -1.78,80.88 16.16,116.88 12.77,24.39 33.2,46.61 60.11,54.98 28.68,9.52 60.71,8.06 88.54,-3.6 26.48,-10.81 48.24,-30.66 65.14,-53.41 18.54,-24.83 32.77,-52.51 45.76,-80.56 16.52,-36.01 31.02,-72.92 46.14,-109.54 2.3,-5.32 3.83,-11.11 7.66,-15.6 -0.2,10.18 -2.75,20.09 -4.01,30.15 -5.03,34.23 -10.86,68.51 -11.8,103.17 0.37,31.56 1.52,63.89 12.37,93.89 6.65,18.02 18.31,35.61 36.46,43.55 14.66,6.98 31.94,4.92 46.46,-1.39 27.49,-11.91 49.13,-33.35 70.97,-53.26 2.85,-2.7 6.82,-3.42 10.4,-4.66 12.8,13.95 25.79,28.45 42.7,37.47 12.94,7.11 28.81,9.41 42.84,4.2 19.77,-6.47 34.07,-22.55 45.75,-39 13.51,-19.51 27.12,-39.77 32.71,-63.17 1.95,-8.03 3.58,-16.38 2.44,-24.65 -0.69,-6.03 -5.95,-10.71 -11.64,-12 -2.8,0.76 -4.88,2.92 -6.76,4.99 -19.65,23.45 -38.99,47.33 -60.99,68.69 -3.77,3.94 -9.41,7.55 -14.96,4.75 -9.48,-5.09 -15.67,-15.37 -17.26,-25.84 -0.39,-3.92 -1.03,-9.24 3.19,-11.35 10.63,-6.93 20.22,-15.33 29.35,-24.12 34.56,-33.91 64.68,-73.12 84.73,-117.38 14,-32.75 21.5,-69.78 13.8,-105.09 -2.78,-10.53 -6.22,-22.14 -15.13,-29.12 -14.09,-7.43 -31.04,-10.35 -46.51,-5.82 -20.25,6 -36.84,19.59 -54.14,31.11 -16.57,10.76 -30.52,25.21 -41.97,41.25 -18.2,25.5 -30.68,54.68 -39.67,84.58 -10.21,34.41 -15.93,70.11 -17.46,105.95 -0.25,5.97 -0.02,11.98 -0.8,17.92 -2.76,4.59 -6.93,8.15 -10.38,12.23 -6.26,6.55 -12.55,13.95 -21.43,16.92 -10.21,3.25 -20.46,-4.05 -25.37,-12.62 -7.57,-13.61 -7.51,-29.85 -6.71,-44.96 0.53,-4.51 -0.29,-9.74 3.06,-13.33 20.83,-26.89 40.01,-55.06 57.52,-84.22 70.58,-116.75 112.59,-249.67 127.96,-384.95 2.3,-14.46 1.88,-29.55 -2.89,-43.48 -2.06,-6.12 -6.65,-11.86 -13.31,-13.07 -14.77,-2.94 -29.99,1.65 -43.02,8.51 -14.15,7.39 -22.07,21.89 -31.23,34.27 -35.84,53.24 -65.44,110.44 -91.8,168.86 -26.06,58.14 -47.91,118.12 -66.1,179.17 8.38,-41.71 18.95,-82.99 27.35,-124.71 8.21,-40.49 15.9,-81.29 17.6,-122.66 0.43,-17.09 0.11,-34.5 -4.23,-51.12 -3.35,-11.72 -14.38,-18.83 -25.16,-22.96 1.14,-10.52 6.37,-19.9 9.47,-29.88 1.52,-4.84 2.11,-10.88 -2.04,-14.64 -8.86,-9.01 -20.6,-14.41 -31.92,-19.64 -14.61,-6.05 -30.05,-11.81 -46.12,-10.57 -27.48,1.74 -53.76,12.79 -76.24,28.31zm1081.87 172.93l0 0c-17.95,3.93 -31.39,21.8 -30.29,40.13 0.59,15.06 10.74,29.12 24.71,34.67 12.04,4.94 26.53,3.37 37.12,-4.27 9.94,-6.83 16.27,-18.47 16.92,-30.49 0.41,-11.1 -3.97,-22.37 -12.16,-29.96 -9.25,-9.39 -23.55,-13.24 -36.3,-10.08zm-57.52 46.6l0 0c-12.39,25.42 -25.13,50.67 -37.06,76.32 13.01,-18.45 29.16,-35.2 49.33,-45.75 -6.5,-9.07 -10.07,-19.73 -12.27,-30.57zm-805.83 308.68l0 0c0.51,5.51 8.03,12.23 12.58,6.38 5.99,-7.87 1.19,-18.2 0.41,-26.94 -6.81,4.63 -14.57,11.36 -12.99,20.56zm-156.76 -379.25l0 0c-11.85,15.67 -22.11,32.83 -36.86,46.05 -8.56,7.8 -18.43,14.2 -29.26,18.35 -6.13,2.29 -12.81,1.2 -19.07,0.07 -21.8,48.67 -36.64,100.11 -48.5,152.01 -9.64,41.3 -19.02,83.04 -20.1,125.62 -0.37,19.32 1.72,38.69 6.47,57.45 5.46,2.18 12.27,2.5 16.5,-2.27 12.85,-14.09 18.69,-32.72 25.81,-50.02 28.93,-75.03 55.78,-150.97 77.23,-228.5 7.43,-28.22 14.21,-56.58 20.9,-84.97 2.5,-11.22 5.37,-22.39 6.88,-33.79z"/>
   <path class="fil1" d="M333.97 481.88c22.48,-15.52 48.76,-26.57 76.24,-28.31 16.07,-1.24 31.51,4.52 46.12,10.57 11.32,5.23 23.06,10.63 31.92,19.64 4.15,3.76 3.56,9.8 2.04,14.64 -3.1,9.98 -8.33,19.36 -9.47,29.88 10.78,4.13 21.81,11.24 25.16,22.96 4.34,16.62 4.66,34.03 4.23,51.12 -1.7,41.37 -9.39,82.17 -17.6,122.66 -8.4,41.72 -18.97,83 -27.35,124.71 18.19,-61.05 40.04,-121.03 66.1,-179.17 26.36,-58.42 55.96,-115.62 91.8,-168.86 9.16,-12.38 17.08,-26.88 31.23,-34.27 13.03,-6.86 28.25,-11.45 43.02,-8.51 6.66,1.21 11.25,6.95 13.31,13.07 4.77,13.93 5.19,29.02 2.89,43.48 -15.37,135.28 -57.38,268.2 -127.96,384.95 -17.51,29.16 -36.69,57.33 -57.52,84.22 -3.35,3.59 -2.53,8.82 -3.06,13.33 -0.8,15.11 -0.86,31.35 6.71,44.96 4.91,8.57 15.16,15.87 25.37,12.62 8.88,-2.97 15.17,-10.37 21.43,-16.92 3.45,-4.08 7.62,-7.64 10.38,-12.23 0.78,-5.94 0.55,-11.95 0.8,-17.92 1.53,-35.84 7.25,-71.54 17.46,-105.95 8.99,-29.9 21.47,-59.08 39.67,-84.58 11.45,-16.04 25.4,-30.49 41.97,-41.25 17.3,-11.52 33.89,-25.11 54.14,-31.11 15.47,-4.53 32.42,-1.61 46.51,5.82 8.91,6.98 12.35,18.59 15.13,29.12 7.7,35.31 0.2,72.34 -13.8,105.09 -20.05,44.26 -50.17,83.47 -84.73,117.38 -9.13,8.79 -18.72,17.19 -29.35,24.12 -4.22,2.11 -3.58,7.43 -3.19,11.35 1.59,10.47 7.78,20.75 17.26,25.84 5.55,2.8 11.19,-0.81 14.96,-4.75 22,-21.36 41.34,-45.24 60.99,-68.69 1.88,-2.07 3.96,-4.23 6.76,-4.99 5.69,1.29 10.95,5.97 11.64,12 1.14,8.27 -0.49,16.62 -2.44,24.65 -5.59,23.4 -19.2,43.66 -32.71,63.17 -11.68,16.45 -25.98,32.53 -45.75,39 -14.03,5.21 -29.9,2.91 -42.84,-4.2 -16.91,-9.02 -29.9,-23.52 -42.7,-37.47 -3.58,1.24 -7.55,1.96 -10.4,4.66 -21.84,19.91 -43.48,41.35 -70.97,53.26 -14.52,6.31 -31.8,8.37 -46.46,1.39 -18.15,-7.94 -29.81,-25.53 -36.46,-43.55 -10.85,-30 -12,-62.33 -12.37,-93.89 0.94,-34.66 6.77,-68.94 11.8,-103.17 1.26,-10.06 3.81,-19.97 4.01,-30.15 -3.83,4.49 -5.36,10.28 -7.66,15.6 -15.12,36.62 -29.62,73.53 -46.14,109.54 -12.99,28.05 -27.22,55.73 -45.76,80.56 -16.9,22.75 -38.66,42.6 -65.14,53.41 -27.83,11.66 -59.86,13.12 -88.54,3.6 -26.91,-8.37 -47.34,-30.59 -60.11,-54.98 -17.94,-36 -18.91,-77.55 -16.16,-116.88 4.92,-61.12 18.47,-121.08 31.19,-180.94 18.9,-92.81 62.79,-180.16 124.63,-251.77 15.21,-17.28 31.18,-34.18 49.77,-47.86zm1081.87 172.93c12.75,-3.16 27.05,0.69 36.3,10.08 8.19,7.59 12.57,18.86 12.16,29.96 -0.65,12.02 -6.98,23.66 -16.92,30.49 -10.59,7.64 -25.08,9.21 -37.12,4.27 -13.97,-5.55 -24.12,-19.61 -24.71,-34.67 -1.1,-18.33 12.34,-36.2 30.29,-40.13zm-466.4 -179.31c25.17,-11.36 51.42,-22.94 79.52,-23.5 17.83,-0.34 36.07,7.74 45.78,23.08 8.21,11.2 8.46,25.82 7,39.08 -2.18,22.28 -7.28,44.19 -8.77,66.56 26.67,-27.18 49.68,-57.63 75.1,-85.95 12.5,-13.61 26,-29.05 45.38,-31.84 13.04,-2.51 25.08,4.81 34.44,13.1 9.34,8.55 19.14,18.01 22.44,30.65 1.61,5.25 -0.91,10.37 -3.16,14.98 -17.53,35.09 -35.33,70.06 -51.81,105.67 -0.99,2.47 -2.43,4.88 -2.52,7.61 4.08,1.79 7.84,-2.2 10.39,-4.96 22.49,-28.31 45.22,-56.46 68.56,-84.06 20.46,-23.75 40.59,-48.01 64.18,-68.74 7.98,-7.63 18.93,-11.04 29.75,-11.84 6.7,-0.31 13.18,2.75 17.7,7.61 12.59,12.62 23.03,28.38 26.24,46.17 1.96,9.63 -0.73,19.5 -5.27,27.99 -33.05,66.95 -66.73,133.6 -99.29,200.79 -22.09,46.25 -44.88,92.26 -63.65,139.99 -10.57,30.86 -22.34,61.35 -31.54,92.67 -5.17,18.2 -9.3,37.15 -7.57,56.21 3.58,5.81 11.79,6.43 17.91,5.46 7.55,-2.59 15.04,-8.16 17.28,-16.15 13.26,-52.59 33.91,-103.05 57.71,-151.71 15.44,-30.26 31.92,-60.25 52.91,-87.08 10.6,-13.74 23.65,-26.13 39.67,-33.2 9.71,-4.56 20.81,-1 29.58,4.04 10.53,6.31 9.52,21.29 5.21,31.14 -20.08,35.59 -39.95,71.33 -58.68,107.66 -13.99,27.25 -27.94,54.6 -39.21,83.1 -6.12,15.17 -9.84,31.66 -8.79,48.07 0.94,6.54 2.58,16.56 10.95,16.89 6.19,1.05 9.77,-4.78 13.45,-8.63 43.31,-47.63 77.87,-102.38 108.68,-158.69 22.68,-41.53 43.8,-83.91 65.86,-125.76 1.31,-5.66 -1.98,-11.79 0.41,-17.5 5.09,-15.22 20.24,-24.23 34.72,-28.98 10.91,-3.65 25.28,-4.2 33.17,5.67 4.22,5.39 9.39,13.4 4.87,20.03 -8.67,13.31 -10.74,29.6 -11.11,45.13 -0.8,49.49 12.51,97.83 14.18,147.15 1.31,32 -10.05,63 -24.67,90.93 -7.18,13.69 -15.51,26.72 -23.17,40.12 15.49,-1.74 27.88,-12.48 37.51,-23.97 18.5,-22.76 32.66,-48.62 45.62,-74.82 31.82,-63.43 59.77,-128.84 94.74,-190.66 8.92,-15 17.78,-30.31 29.87,-43.02 8.4,-9.15 20.75,-13.46 32.82,-14.91 10.46,-1.9 21.06,3.63 27.76,11.41 5.32,6.23 1.88,14.54 -0.58,21.19 -8.99,23.94 -16.86,50.02 -10.94,75.68 7.16,30.81 14.18,61.99 13.99,93.79 0.35,32.65 -6.63,65.35 -20.23,95.02 -8.75,19.41 -18.38,38.39 -27.6,57.55 8.65,3.89 18.61,1.76 25.85,-4.09 11.06,-9.02 21.8,-18.98 29.01,-31.44 9.06,-14.65 15.37,-31.01 26.27,-44.44 4.04,-4.61 9.57,-9.89 16.27,-8.54 5.41,2.26 7.38,8.5 8.32,13.82 2.69,15.42 -3.76,30.26 -8.51,44.58 -9.71,25.12 -20.97,50.32 -38.71,70.86 -18.72,19.41 -44.92,29.41 -70.58,35.84 -22.11,4.83 -46.13,8.6 -67.75,-0.23 -26.5,-10.33 -48.21,-29.47 -68.97,-48.37 -26.69,16.45 -55.02,30.67 -85.1,39.8 -11.5,3.24 -23.39,6.96 -35.48,5.28 -21.59,-2.48 -41.71,-12.29 -59.29,-24.69 -11.22,-8.05 -21.45,-17.48 -29.98,-28.35 -4.23,-5.67 -12.83,-2.96 -16.66,1.81 -11.68,14.86 -26.43,27.25 -42.59,36.96 -17.43,9.78 -37.01,17.81 -57.34,16.62 -19.2,-1.61 -34.18,-16.94 -41.09,-34.08 -2.62,-1.1 -5.25,-2.2 -7.83,-3.26 -20.78,12.71 -40.6,28.11 -64.42,34.63 -18.54,5.39 -40.38,0.68 -53.37,-14.05 -11.29,-13.23 -14.75,-31.16 -15.28,-48.07 -0.87,-32.49 9.17,-63.85 18.86,-94.44 28.42,-85.78 64.34,-168.78 98.24,-252.46 0.76,-2.41 0.7,-4.98 0.95,-7.48 -3.42,1.52 -7.27,2.82 -9.27,6.22 -33.8,46.24 -62.3,96.1 -88.89,146.76 -34.81,66.65 -65.9,135.18 -95.43,204.3 -6.26,14.54 -12.36,29.32 -21.38,42.42 -3.92,5.42 -8.54,11.24 -15.31,13.04 -5.16,0.66 -9.34,-3.49 -11.7,-7.62 -4.81,-8.19 -7.36,-17.42 -10.83,-26.19 -4.22,-12.27 -12.05,-23.47 -12.46,-36.84 -1.86,-29.07 6.1,-57.6 14.11,-85.26 21.73,-69.88 52.53,-136.43 81.44,-203.51 10.23,-23.95 20.83,-47.81 28.7,-72.66 0.37,-2.5 2.59,-5.87 -0.66,-7.55 -21.78,23.93 -39.04,51.53 -55.05,79.55 -32.7,57.16 -58.24,117.98 -87.14,177.06 -21.92,50.09 -37.33,102.8 -60.33,152.43 -5.3,10.11 -9.82,21.55 -19.31,28.52 -3.89,2.73 -7.21,-1.4 -8.96,-4.47 -11.81,-18.93 -21.89,-39.19 -27.73,-60.78 -3.1,-11.52 -4.3,-23.8 -0.99,-35.43 7.46,-29.31 17.9,-57.76 27.99,-86.25 12.42,-34.31 25.4,-68.43 39.61,-102.06 38.98,-95.11 75.07,-191.4 109.56,-288.21 1.97,-4.89 3.71,-10.76 0.59,-15.56 -1.54,-2.06 -3.56,-5.2 -6.52,-3.69 -24.46,7.82 -44.87,24.02 -65,39.37 -22.81,15.9 -41.21,37.49 -65.19,51.81 -5.16,2.89 -10.87,5.6 -16.91,5.37 -5.93,-0.69 -8.64,-6.65 -11.76,-10.9 -10.28,-14.82 -16.82,-32.55 -16.43,-50.73 0.37,-13.03 2.04,-26.8 9.5,-37.88 7.87,-12.03 19.09,-21.39 30.61,-29.8 22.39,-16.02 47.03,-28.44 70.5,-42.73 3.97,-3.05 8.95,0.58 11.15,4.08 0.42,4.14 -0.45,8.29 -0.18,12.44 0.42,2.92 3.79,3.81 6.06,2.32zm762.75 457.5l0 0c-11.4,27.16 -29.73,51.07 -38.48,79.4 3.61,0.42 7.25,0.56 10.86,1.25 6.28,1.78 11.47,6.15 17.8,7.82 3.86,0.99 8.9,-0.11 10.67,-4.08 19.8,-35.68 31.75,-79.32 18.28,-119.27 -11.19,8.42 -12.71,23.31 -19.13,34.88zm-250.12 62.01l0 0c-1.6,2.99 -4.15,6.13 -2.68,9.71 7.52,-0.74 14.45,2.2 20.4,6.51 4.77,3.08 11.74,7.46 16.79,2.49 8.28,-9.07 12.82,-20.98 15.4,-32.82 5.45,-25.99 2.24,-52.61 3.02,-78.9 -15.39,32.24 -35.17,62.08 -52.93,93.01zm-1070.48 -400.27l0 0c-22.19,18.96 -33.02,47.93 -56.11,65.99 -5.3,3.84 -10.92,7.85 -17.43,9.18 -6.25,-0.67 -11.61,-4.47 -17.79,-5.37 -4.29,-0.11 -7.31,3.51 -8.88,7.07 -27.92,60.55 -45.06,125.28 -60.55,189.91 -2.25,11.79 -3.49,23.75 -5.62,35.56 -7.09,43.67 -14.62,88.71 -5.02,132.63 1.72,11.4 10.04,21.01 19.89,26.48 10.71,5.62 23.29,1.74 33.11,-3.93 8.15,-5.05 16.43,-10.94 20.94,-19.69 44.79,-77.09 71.52,-162.9 93.57,-248.81 5.81,-22.85 11.89,-45.64 16.46,-68.77 9.36,-41.8 21.57,-83.46 22.48,-126.58 0.39,-4.68 -2.18,-8.76 -3.94,-12.89 -12.97,1 -22.03,11.1 -31.11,19.22zm185.68 132.37l0 0c-16.65,42.29 -34.57,85.52 -36.3,131.54 5.63,-5.23 8.41,-12.64 12.56,-18.97 36.53,-62.67 62.8,-131.68 74.27,-203.45 0.67,-2.73 -0.66,-5.26 -1.51,-7.76 -20.04,30.86 -34.44,64.98 -49.02,98.64zm152.61 106.58l0 0c-14.69,10.67 -25.98,25.22 -36.14,40.09 -16.56,24.48 -27.58,53.52 -27.01,83.37 37.63,-23.81 62.25,-63.74 75.57,-105.47 1.88,-6.47 6.23,-14.34 0.66,-20.22 -4.22,-2.79 -9.45,-0.43 -13.08,2.23z"/>
  </g>
 </g>
</svg>
