<?xml version="1.0" encoding="UTF-8"?>
<!DOCTYPE svg PUBLIC "-//W3C//DTD SVG 1.1//EN" "http://www.w3.org/Graphics/SVG/1.1/DTD/svg11.dtd">
<!-- Creator: CorelDRAW -->
<svg xmlns="http://www.w3.org/2000/svg" xml:space="preserve" width="2000px" height="1600px" version="1.1" style="shape-rendering:geometricPrecision; text-rendering:geometricPrecision; image-rendering:optimizeQuality; fill-rule:evenodd; clip-rule:evenodd"
viewBox="0 0 2000 1600"
 xmlns:xlink="http://www.w3.org/1999/xlink">
 <defs>
  <style type="text/css">
   <![CDATA[
    .fil0 {fill:#FCBD50}
    .fil1 {fill:#004684;fill-rule:nonzero}
    .fil3 {fill:#E3BD8B;fill-rule:nonzero}
    .fil4 {fill:#F47937;fill-rule:nonzero}
    .fil2 {fill:#FEFEFE;fill-rule:nonzero}
   ]]>
  </style>
 </defs>
 <g id="Capa_x0020_1">
  <metadata id="CorelCorpID_0Corel-Layer"/>
  <g id="Morgan_x0020_State_x0020_Bears.cdr">
   <path class="fil0" d="M1319.38 318.98c17,-1.15 34.35,1.9 49.47,9.91 25.54,13.53 42.35,42.02 40.68,71.03 -1.16,20.17 -10.41,39.11 -24.34,53.52 2.54,40.16 -4.33,81.62 -24.91,116.5 15.12,-5.3 30.09,-11.03 44.89,-17.19 6.73,-3.08 12.44,-2.91 19.64,-2.6 33.78,1.48 69.44,0.22 101.08,-12.88 16.56,-8.97 33.7,-16.85 51.9,-21.92 26.74,-7.46 53.93,-5.55 81.19,-2.66l44.63 4.73 -14.54 11.48c10.11,1.7 20.04,4.22 29.98,6.85l58.97 15.59 -29.32 9.86c1.54,0.71 3.06,1.47 4.57,2.27l11.09 5.85 8.75 -3.16 -2.59 6.41 17.23 9.08 -25.09 10.38 -4.89 12.11c-2.86,7.08 -6.12,13.99 -9.82,20.65l17.6 -3.39 -17.1 33.4c-10.07,19.65 -21.51,38.46 -39.01,52.4 -8.61,6.85 -17.97,11.26 -27.75,15.56 -5.37,10.02 -12.3,18.89 -22.12,25.14 -5.88,4.17 -12.28,7.33 -19.08,9.71 -9.81,3.45 -19.89,5.08 -30.12,6.72 -10.07,1.62 -21.92,3.36 -30.74,8.87 -4.38,2.73 -7.62,7.06 -9.62,11.76l-4.35 10.18c10.83,9.06 19.86,19.49 30.43,29.08l0.23 0.2 0.21 0.21c16,15.51 34.7,30.04 56.35,36.47l0.56 0.16 0.54 0.2c8.14,3 17.84,3.76 26.39,6.24l3.81 1.11 3.01 2.58c18.34,15.74 29.59,39.46 29.69,63.43 53.79,-0.04 107.57,-0.05 161.36,0.02l21.76 0.02 -3.76 21.44c-12.65,71.99 -25.42,143.97 -37.92,215.98 -3,17.24 -10.13,33.87 -25.49,43.55 -14.85,9.36 -29.67,8.59 -46.3,8.61 -36.64,0.04 -73.28,-0.1 -109.92,0.06 -6.01,5.22 -12.04,10.41 -18.08,15.59 7.05,5.61 14.08,11.24 21,17.02l19.95 16.65 -22.41 13.16c-11.55,6.79 -23.12,13.57 -34.67,20.36 8.36,11.18 16.69,22.38 25.05,33.57l21.85 29.24 -36.51 0c-391.32,0.04 -782.64,0.11 -1173.96,-0.03l-36.35 -0.01 21.67 -29.19c8.32,-11.22 16.71,-22.38 25.09,-33.55 -11.52,-6.8 -23.03,-13.62 -34.64,-20.26l-23.2 -13.26 20.76 -16.83c6.96,-5.65 13.97,-11.24 20.97,-16.83 -5.91,-5.07 -11.79,-10.17 -17.7,-15.24 -47.13,0.01 -94.27,0.09 -141.4,-0.02 -19.74,-0.05 -39.7,-9.46 -48.7,-27.67 -7.8,-15.15 -6.32,-31.79 -1.88,-47.7 15.22,-54.61 30.48,-109.21 45.79,-163.79 -47.17,-23.69 -94.39,-47.29 -141.41,-71.25l-67.83 -34.57 76.13 -0.03c52.67,-0.02 105.34,-0.5 158.01,0.38 41.36,-0.03 82.72,-0.02 124.08,-0.02 0.98,-1.99 1.97,-3.99 2.97,-5.98l-12.27 -1.46 11.36 -23.16c6.52,-13.31 13.22,-26.54 20.57,-39.38l-11.38 -1.46 13.42 -23.7c28.18,-49.8 64.59,-94.77 106.09,-134.07 30.84,-29.22 65.99,-53.07 102.59,-74.4l-21.92 -16.31 36.7 -9.7c25.3,-6.69 49.44,-17.82 73.98,-26.84 21.14,-7.78 40.42,-20.08 58.09,-33.92l6.23 -4.87 7.82 1.2c15.66,2.4 32.3,0.37 46.51,-6.81 8.85,-4.46 15.65,-13.03 17.93,-22.68l2.5 -10.61 10.52 -2.85c6.51,-1.77 12.9,-4.7 18.42,-8.73l2.09 -11.8c7.24,-40.8 29.71,-76.94 58.08,-106.56 -1.5,-22.44 5.02,-45.52 20.43,-62.28 19.17,-20.85 50.18,-28.76 77.24,-21.16 14.84,4.16 28.14,12.36 39.2,22.96 31.43,1.41 63.09,9.07 88.16,28.74 31.78,1.1 60.99,15.4 85.83,34.59z"/>
   <path class="fil1" d="M1042.41 266.23c14.6,-15.68 38.34,-21.83 58.84,-15.93 14.14,3.83 26.47,12.61 36.19,23.42 30.57,0.42 62.86,6.73 86.93,26.78 1.7,1.56 3.85,2.3 6.19,2.12 31.14,0.31 59.81,15.94 83.27,35.35 15.69,-2.33 32.35,-0.51 46.46,7.09 19.34,10.12 32.24,31.88 30.98,53.8 -1.07,18.42 -11.03,35.57 -25.03,47.26 4.01,40.45 -1.98,83.43 -24,118.25 -2.88,-1.84 -5.77,-3.68 -8.64,-5.5 -7.7,16.23 -15.79,32.42 -26.7,46.78 35.94,-9.74 71.27,-21.83 105.66,-36.16 3.57,-1.71 7.59,-1.21 11.45,-1.06 36.99,1.64 75.22,-0.07 109.79,-14.63 15.57,-8.48 31.72,-16.15 48.9,-20.83 24.17,-6.85 49.69,-4.71 74.35,-2.09 -6.01,4.75 -10.86,10.7 -15.17,16.98 12.03,-1.77 24.26,-3.43 36.44,-2 12.24,1.33 24.18,4.43 36.05,7.57 -8.69,2.93 -16.99,7.08 -23.96,13.09 18.62,1.37 37.6,4.31 54.33,13.13 -13.91,5.76 -28.2,12.09 -38.22,23.76 11.7,-0.23 23.26,-2.13 34.28,-6.11 -7.72,19.12 -18.72,36.93 -33.63,51.29 8.39,0.45 16.75,-0.54 24.99,-2.13 -8.77,17.12 -18.87,34.28 -34.12,46.42 -8.87,7.08 -19.5,11.28 -29.78,15.79 -4.28,9.37 -9.93,18.48 -18.9,24.04 -23.41,16.92 -55.24,9.79 -79.42,24.97 -7.63,4.67 -13.28,11.94 -16.76,20.1 -16.98,-8.39 -36.99,-4.17 -52.95,4.47 16.47,5.29 32.78,11.85 47.05,21.8 13.59,9.63 24.25,22.59 36.52,33.72 18.24,17.68 39.2,33.54 63.87,40.86 8.93,3.29 18.53,4.01 27.6,6.64 18.97,16.28 28.66,43.65 20.39,67.86 60.86,-0.05 121.7,-0.07 182.56,0 -12.65,72.01 -25.3,144.02 -37.93,216.03 -1.93,11.85 -6.51,24.55 -17.21,31.19 -10.86,6.95 -24.29,5.79 -36.57,5.79 -38.94,0.06 -77.86,-0.11 -116.79,0.09 -13.21,11.55 -26.56,22.93 -39.88,34.36 12.63,10.23 25.5,20.15 37.96,30.56 -17.44,10.25 -34.89,20.46 -52.3,30.74 12.48,16.59 24.86,33.28 37.29,49.91 -391.32,0.04 -782.63,0.11 -1173.96,-0.04 12.38,-16.67 24.9,-33.25 37.35,-49.87 -17.53,-10.17 -34.89,-20.65 -52.5,-30.72 12.68,-10.29 25.51,-20.39 38.21,-30.64 -13.37,-11.15 -26.47,-22.62 -39.69,-33.94 -49.38,0 -98.77,0.02 -148.13,-0.02 -12.7,-0.1 -26.58,-5.64 -32.4,-17.6 -5.6,-10.74 -3.67,-23.39 -0.6,-34.56 16.62,-59.43 33.18,-118.86 49.85,-178.27 -51.62,-25.97 -103.31,-51.75 -154.79,-77.98 52.62,-0.02 105.25,-0.51 157.86,0.37 45.2,-0.03 90.39,-0.01 135.59,-0.01 6.49,-13.14 12.95,-26.31 19.83,-39.25 -4.24,-0.56 -8.46,-1.1 -12.7,-1.6 10.42,-21.27 21.3,-42.42 34.8,-61.94 -4.24,-0.56 -8.46,-1.1 -12.7,-1.64 27.28,-48.21 62.57,-91.77 102.75,-129.8 36.48,-34.59 79.44,-61.4 123.34,-85.49 -4.62,-3.52 -9.22,-7.05 -13.87,-10.52 25.94,-6.85 50.53,-17.95 75.61,-27.35 23.04,-8.3 43.86,-21.65 63.06,-36.68 19.43,2.98 39.89,0.32 57.52,-8.55 13.66,-6.91 23.98,-19.9 27.5,-34.82 17.55,-4.77 33.76,-15.77 42.45,-32.07 -2.9,-0.99 -5.81,-1.96 -8.71,-2.92 7.09,-39.96 30.69,-75.13 59.25,-103.15 -3.39,-19.7 1.03,-41.44 14.7,-56.51z"/>
   <path class="fil2" d="M1233.94 1226.44c15.8,0.07 31.62,-0.16 47.45,0.13 12.99,0.39 27.02,1.4 37.83,9.45 7.96,5.9 10.21,17.43 6.57,26.38 -3.65,7.13 -12.09,9.2 -19.11,11.37 11.6,8.15 20.14,19.86 30.17,29.8 -15.46,0 -30.91,0.02 -46.35,-0.02 -5.77,-8.19 -11.55,-16.36 -17.3,-24.53 -0.06,8.17 -0.04,16.36 -0.04,24.55 -13.08,0 -26.16,0.02 -39.24,-0.02 0,-25.71 -0.02,-51.4 0.02,-77.11zm-409.57 0c24.48,0 48.97,-0.02 73.47,0.02 0.03,7.2 0.03,14.4 0.03,21.61 -11.15,0.04 -22.28,0 -33.43,0.02 0.06,2.26 0.11,4.53 0.16,6.82 10.18,-0.09 20.37,-0.05 30.57,-0.05 0,6.76 0,13.53 -0.02,20.31 -10.23,-0.03 -20.44,-0.02 -30.65,-0.02 0,2.4 0,4.8 0.01,7.24 11.57,-0.02 23.13,-0.04 34.72,0 0,7.05 0,14.11 0,21.16 -24.97,0.02 -49.93,0.02 -74.88,0 0,-25.69 0,-51.4 0.02,-77.11zm643.04 0.81c17.41,-3.59 35.88,-1.87 52.34,4.87 -3.63,6.72 -7.26,13.45 -10.99,20.1 -9.26,-3.57 -19.83,-8.22 -29.68,-4.42 -4.26,2.11 -0.42,4.86 2.53,5.34 11.94,2.4 25.2,2.62 35.18,10.56 7.76,6.03 8.37,18.49 2.24,25.89 -6.5,8.23 -16.95,11.91 -26.89,13.89 -19.63,3.43 -39.98,0.63 -58.78,-5.55 4.08,-7.4 8.23,-14.75 12.38,-22.09 9.78,5.05 20.84,9.85 32.08,7.49 2.34,-0.36 6.84,-3 3.77,-5.59 -3.85,-2.31 -8.57,-2.08 -12.85,-2.8 -9.58,-1.05 -19.83,-3.12 -27.03,-10 -6.46,-6.22 -5.32,-17.05 -0.09,-23.65 6.28,-7.92 16.22,-11.78 25.79,-14.04zm181.63 -301.47c2,-7.83 12.2,-9.49 18.67,-6.44 7.11,2.97 8.54,11.83 7.49,18.65 -0.7,9.78 -6.85,17.97 -13.91,24.31 -0.27,-5.42 0.11,-11.59 -4,-15.75 -5.04,-5.6 -11.08,-12.65 -8.25,-20.77zm-39.57 1.48c1.21,-8.68 11.98,-11.33 19,-7.98 7.29,2.98 8.54,12.16 7.54,19.04 -0.83,9.6 -6.8,17.77 -13.87,23.9 -0.51,-5.07 0.31,-10.93 -3.47,-15.01 -4.69,-5.64 -11.15,-11.81 -9.2,-19.95zm-37.99 -1.36c3.22,-11.13 21.45,-10.3 25.13,0.15 4.46,13.39 -2.45,27.77 -12.88,36.32 -0.33,-5.49 0.21,-11.78 -4.05,-15.97 -4.94,-5.54 -11.04,-12.48 -8.2,-20.5zm-40.85 1.3c1.02,-7.3 9.51,-10.73 16.07,-8.87 7.6,1.1 11.39,9.36 10.7,16.36 0.27,11.06 -6.24,20.72 -14.16,27.82 -0.15,-5.36 0.29,-11.42 -3.68,-15.64 -4.73,-5.48 -10.81,-11.69 -8.93,-19.67zm-39.91 0.13c1.39,-10.7 16.72,-12.27 23.02,-5.03 4.83,5.57 4.19,13.73 2.65,20.46 -1.77,7.9 -7.36,14 -12.94,19.52 -0.41,-5.16 0.02,-11.03 -3.66,-15.16 -4.74,-5.59 -10.95,-11.69 -9.07,-19.79zm178.69 -265.41c9.92,2.82 20.23,2.55 30.31,0.56 -7.52,11.53 -18.28,21.49 -31.77,25.28 -3.1,-8.37 -2.53,-17.86 1.46,-25.84zm1.75 -13.98c-4.83,-8.46 -4.94,-18.44 -2.96,-27.77 11.49,3.11 23.35,2.3 35,0.74 -6.44,13.17 -19.25,21 -32.04,27.03zm-19.3 -55.88c14.34,-7.52 31.19,-7.56 46.65,-3.91 -4.96,3.12 -10.06,5.99 -14.94,9.24 -6.64,4.25 -11,11.02 -16.2,16.78 -7.45,-5.45 -13.42,-12.98 -15.51,-22.11zm-14.13 -26.66c8.73,-2.13 17.79,-1.74 26.66,-1 -7.56,6.73 -13.78,14.8 -18.62,23.68 -7.66,-5.99 -15.64,-11.75 -24.88,-15.03 5.47,-2.84 10.85,-6.03 16.84,-7.65zm-541.41 17.05c-0.48,-9.96 5.38,-19.18 11.3,-26.81 0.11,9.97 -1.86,19.97 -0.11,29.93 1.82,-1.66 3.66,-3.3 5.5,-4.96 4.24,7.75 13.84,12.34 22.12,7.99 0.31,2.36 0.64,4.74 0.98,7.11 8.08,-5.99 12.63,-15.21 19.23,-22.57 0.11,9.63 -2.62,19.03 -7.31,27.4 -18.17,9.2 -43.64,0.83 -51.71,-18.09zm503.18 -33.02c6.54,-2.02 13.51,-1.79 20.31,-1.99 -5.34,5.62 -8.17,12.92 -9.51,20.43 -9,-5.14 -19.25,-6.86 -29.44,-7.47 5.81,-4.28 11.73,-8.64 18.64,-10.97zm-478.64 -36.84c-1.22,-12.27 -2.02,-24.8 0.99,-36.88 26.65,0.9 53.48,10.14 74.12,27.17 -5.41,11.01 -13.42,20.53 -22.84,28.33 3.3,-11.35 7.04,-22.96 5.56,-34.94 -2.69,2.15 -5.31,4.35 -7.89,6.59 -6.98,-8.91 -18.83,-13.39 -29.95,-11.04 -0.52,-3.38 -1.04,-6.71 -1.58,-10.07 -8.94,8.35 -13.77,19.78 -18.41,30.84zm-501.29 713.87c19.14,0.14 38.28,-0.51 57.41,0.59 8.62,0.67 17.77,1.99 24.99,7.17 6.89,4.74 9.13,15.15 4.31,22.13 -2.49,4.16 -7.29,5.85 -11.48,7.73 5.67,1.73 11.82,3.71 15.63,8.57 4.93,5.93 4.6,15.6 -1.14,20.89 -8.01,7.76 -19.86,9.4 -30.53,10.01 -19.75,0.04 -39.49,0.06 -59.23,-0.03 0.09,-25.69 0.02,-51.39 0.04,-77.06zm36.98 19.3l0 0c-0.01,3.54 0,7.08 0,10.65 4.12,-0.31 8.39,-0.07 12.35,-1.39 3.21,-0.87 4.69,-5.31 1.91,-7.52 -4.21,-2.69 -9.56,-1.36 -14.26,-1.74zm0 27.1l0 0c-0.01,4.1 0,8.21 0,12.33 5.72,-0.27 11.79,0.34 17.18,-1.95 3.41,-1.57 4.06,-6.62 0.58,-8.48 -5.49,-2.69 -11.86,-1.68 -17.76,-1.9zm349.83 30.69c12.67,-25.72 25.3,-51.47 38.13,-77.11 14.65,0 29.3,-0.02 43.95,0.02 12.9,25.74 26.18,51.31 38.97,77.11 -14.15,0 -28.29,0 -42.42,0 -1.19,-3.12 -2.34,-6.22 -3.48,-9.33 -9.82,-0.27 -19.63,-0.12 -29.43,-0.14 -1.08,3.14 -2.16,6.3 -3.23,9.47 -14.16,-0.02 -28.32,0.02 -42.49,-0.02zm52.81 -27.94l0 0c5.04,0 10.09,0 15.14,-0.02 -2.71,-7.85 -5.32,-15.73 -7.54,-23.73 -2.85,7.82 -5.13,15.81 -7.6,23.75zm213.97 -27.74l0 0c-0.02,4.37 -0.02,8.74 0.04,13.12 4.31,-0.56 9.02,-0.21 12.99,-2.36 3.64,-2.33 2.32,-8.27 -1.57,-9.55 -3.74,-1.08 -7.65,-0.95 -11.46,-1.21z"/>
   <path class="fil3" d="M1065.87 280.77c12.95,-9.68 31.84,-7.36 44.22,2.24 6.82,4.59 10.68,12.02 15.79,18.21 20.82,-1.79 42.22,-0.04 61.97,7.11 11.64,4.25 22.86,11.6 28.46,23.05 13.37,-5.48 28.31,-2.56 41.28,2.67 18.37,7.46 34.71,19.26 48.57,33.33 12.63,-4.2 26.94,-6.08 39.39,-0.15 10.08,4.3 17.03,13.93 19.27,24.52 -12.24,-11.02 -31.45,-17.53 -46.5,-8.24 4.22,6.53 8.25,13.24 10.77,20.64 -5.66,8.17 -14.76,12.76 -24.1,15.37 2.96,2.13 5.88,4.3 8.8,6.48 -10.63,5.32 -22.64,6.12 -34.3,5.68 2.75,2.98 5.45,5.99 8.12,9.06 -12.27,4.33 -26.11,0.69 -35.16,-8.46 3.32,-3.9 6.78,-8.37 6.33,-13.84 -0.78,-5.97 -5.36,-12.11 -11.76,-12.43 -3.61,-0.69 -7.47,-0.36 -10.81,-1.95 -4.12,-2.33 -4.51,-7.52 -5.72,-11.57 -2.55,4.14 -5.16,8.21 -7.83,12.26 10.57,8.73 19.75,21.12 18.53,35.56 -1.25,19.66 -11.55,38.28 -25.59,51.85 -15.64,-13.86 -35.07,-22.55 -54.76,-29.03 -15.24,-5.34 -31.32,-8.44 -47.5,-8.15 -2.17,-16.69 2.09,-33.38 8.62,-48.65 -13.13,9.26 -23.16,23.24 -26.27,39.14 -2.14,9.81 -1.73,19.97 -0.32,29.88 2.69,-0.2 5.39,-0.36 8.13,-0.51 1.38,17.25 0.24,34.64 -3.03,51.62 -3.14,15.08 -13.76,27.21 -17.21,42.17 -2.27,9.27 -0.31,19.23 4.38,27.46 4.1,7.03 11.34,12.01 13.95,19.92 1.37,3.82 0.26,7.86 -0.56,11.69 -15.33,-5.13 -28.76,-15.56 -37.04,-29.48 -3.53,-5.76 -6.2,-11.98 -8.89,-18.16 -2.1,4.5 -4.19,8.99 -6.28,13.5 -11.21,-9.65 -24.22,-16.96 -38.23,-21.65 5.53,9.83 11.13,19.65 16.58,29.53 -22.25,-1.56 -44.1,-6.42 -65.52,-12.52 17.96,21.26 43.6,34.19 69.25,43.76 37.96,13.62 78.4,18.87 118.54,20.31 38.29,1.18 76.54,-3.32 114.12,-10.44 53.68,-10.4 106.18,-26.45 157.13,-46.16 24.58,0.08 49.33,0.62 73.73,-3.15 18.74,-3.11 35.39,-13.28 54.03,-16.82 18.15,-3.68 37.12,-0.61 54.22,6.06 14.87,5.88 28.17,16.8 34.53,31.74 -21.2,-13.93 -47.72,-18.15 -72.56,-14.4 -10.23,1.61 -19.58,6.24 -28.8,10.74 -18.02,8.93 -38.57,9.29 -58.17,11.51 1.23,7.29 1.37,14.72 0.13,22.01 -6.05,-7.07 -11.22,-15.08 -18.82,-20.66 -5.65,-4.4 -12.29,-7.2 -19.04,-9.44 8.11,24.89 8.45,52.04 2.51,77.43 -6.76,27.57 -22.89,52.75 -45.12,70.4 -6.15,-15.45 -18.86,-28.8 -35.35,-32.86 -4.72,20.93 -15.26,39.97 -27.55,57.38 -1.69,-6.82 -3.3,-13.64 -4.94,-20.44 -21.08,20.64 -45.85,37.13 -71.67,51.22 -62.28,33.63 -131.8,52 -201.75,60.69 2.65,-6.31 5.2,-12.68 7.74,-19.05 -14.22,3.45 -28.36,7.2 -42.62,10.48 -14.03,3.27 -28.45,4.37 -42.79,5.47 5.86,-9.83 12.52,-19.34 21.11,-26.97 7.95,-7.06 16.61,-13.25 25.28,-19.38 -32.03,2.31 -64.09,7.56 -94.39,18.44 -21.38,7.72 -44.7,13.21 -67.38,8.37 7.23,-6.26 14.84,-12.11 21.88,-18.58 -29.82,-11.28 -62.84,-16.1 -94.31,-9.4 -21.31,4.33 -41.03,15.86 -63.18,15.89 -27.9,0.2 -55.46,-5.23 -82.49,-11.62 9.61,16.76 23.87,30.3 38.82,42.29 15.58,11.44 34.56,16.55 52.71,22.36 -29.45,4.49 -58.21,13.12 -85.56,24.9 -21.92,9.31 -43.01,21.05 -61.24,36.53 -8.32,7.53 -17.48,14.17 -24.66,22.86 0.22,-12.28 -0.74,-24.55 -0.42,-36.84 0.24,-13.96 -3.32,-30.02 -15.8,-38.12 -13.82,-9.1 -31.14,-5.83 -46.71,-6.48 10.3,-20.06 20.96,-39.93 32.2,-59.47 -5.34,-0.63 -10.68,-1.32 -16,-2.04 10.9,-16.22 20.2,-33.5 32.24,-48.93 3.75,-4.89 7.69,-9.67 11.22,-14.74 -4.78,-0.69 -9.56,-1.35 -14.34,-2 34.69,-49.42 77.13,-93.88 127.02,-128.14 34.15,-23.49 70.67,-43.56 108.92,-59.52 -4.55,-2.82 -9.09,-5.62 -13.62,-8.43 33.49,-9.58 67.61,-21.34 94.61,-44.15 37.88,8.53 81.21,-13.64 92.82,-51.48 13.85,-5.81 26.63,-14.65 36.01,-26.48 9.99,-12.43 15.52,-27.7 19.92,-42.82 -3.57,-0.92 -7.13,-1.82 -10.68,-2.72 17.84,-47.65 56.4,-88.43 105.8,-103.19 -10.11,-8.21 -24.29,-8.3 -35.76,-3.08 2.29,-4.19 5.25,-7.94 8.57,-11.35 -10.59,0.05 -20.3,4.98 -27.81,12.18 1.97,-8.28 5.54,-16.67 12.69,-21.82zm331.82 591.15c18.02,-25.4 37.37,-50.72 63.62,-68.18 12.34,5.48 21,16.26 28.61,27.03 6.44,9.31 9.39,20.67 9.42,31.93 24.38,-4.47 50.45,-2.25 72.95,8.52 12.9,6.08 24.07,16.09 30.4,28.99 -7.4,-3.03 -15.39,-6.64 -23.56,-4.69 -6.18,1.12 -11.3,4.89 -16.21,8.54 -7.32,-5.11 -16.47,-7.74 -25.35,-6.07 -5.82,1 -10.57,4.73 -15.06,8.3 -7.69,-3.71 -16.13,-7 -24.83,-5.63 -10.61,1.34 -21.38,8.56 -23.38,19.63 -1.48,9.01 -3.74,18.62 -10.68,25.08 -7.35,6.41 -17.4,7.89 -26.78,8.23 2.67,-18.22 5.67,-36.39 8.48,-54.6 -35.02,-0.1 -70.04,0.06 -105.06,-0.09 15.01,-17.17 32.86,-31.52 51.06,-45.14 2.15,6.03 4.24,12.09 6.37,18.15zm-274.57 -491.33l0 0c-1.41,6.51 2.41,12.28 5.72,17.52 4.8,-3.76 9.56,-7.87 15.5,-9.73 6.42,-2.24 13.29,-2.31 20,-2.99 1.11,-5.6 1.54,-11.3 2.49,-16.91 -3.48,2.9 -6.94,7.05 -11.92,6.84 -6.59,-1.27 -10.9,-8.68 -18.15,-7.67 -6.93,0.36 -12.92,6.03 -13.64,12.94zm35.31 18.07l0 0c-5.83,1.34 -8.86,7.35 -9.58,12.82 -1.63,12.19 3.93,23.61 6.69,35.2 11.29,1.98 22.25,5.82 32.12,11.72 10.75,-7.43 24.61,-12.88 29.93,-25.78 4.54,-11.2 -5.74,-20.95 -14.56,-26.02 -13.7,-6.4 -29.39,-12.59 -44.6,-7.94z"/>
   <path class="fil4" d="M498.01 1204.43c378.56,-0.2 757.12,-0.06 1135.68,-0.07 -14.17,12.41 -28.51,24.61 -42.8,36.88 10.99,8.98 22.23,17.64 33.16,26.72 -15.05,8.86 -30.06,17.77 -45.16,26.54 7.87,10.75 16,21.32 23.93,32.04 -358.02,0.09 -716.02,0 -1074.04,0.05 7.99,-10.71 16.09,-21.32 23.99,-32.07 -15.15,-8.77 -30.16,-17.76 -45.28,-26.55 11.06,-8.94 22.19,-17.79 33.29,-26.68 -14.24,-12.31 -28.62,-24.43 -42.77,-36.86zm158.54 68.43c5.9,0.22 12.27,-0.79 17.76,1.9 3.48,1.86 2.83,6.91 -0.58,8.48 -5.39,2.29 -11.46,1.68 -17.18,1.95 0,-4.12 -0.01,-8.23 0,-12.33zm402.64 2.75c2.47,-7.94 4.75,-15.93 7.6,-23.75 2.22,8 4.83,15.88 7.54,23.73 -5.05,0.02 -10.1,0.02 -15.14,0.02zm213.97 -27.74c3.81,0.26 7.72,0.13 11.46,1.21 3.89,1.28 5.21,7.22 1.57,9.55 -3.97,2.15 -8.68,1.8 -12.99,2.36 -0.06,-4.38 -0.06,-8.75 -0.04,-13.12zm-616.61 -2.11c4.7,0.38 10.05,-0.95 14.26,1.74 2.78,2.21 1.3,6.65 -1.91,7.52 -3.96,1.32 -8.23,1.08 -12.35,1.39 0,-3.57 -0.01,-7.11 0,-10.65zm1064.59 -89.56c10.23,-58.96 20.31,-117.96 30.54,-176.92 32.28,-0.06 64.58,0 96.86,-0.04 -1.86,9.81 -2.94,19.79 -5.42,29.46 -1.04,4.66 -4.63,9.08 -9.76,9.06 -13.19,0.74 -26.43,0.07 -39.64,0.27 -1.94,11.28 -3.84,22.55 -5.63,33.85 15,0 30.01,-0.02 45,0.02 -2.09,10.82 -3.39,21.83 -6.11,32.53 -1.01,4.6 -5.34,7.81 -10.02,7.79 -11.96,0.63 -23.96,0.11 -35.92,0.2 -2.83,15.32 -5.38,30.69 -7.94,46.04 11.01,-0.32 22.14,0.83 33.09,-0.68 5.88,-0.72 7.87,-6.86 9.73,-11.57 2.11,0.06 4.24,0.13 6.4,0.2 -2.72,15.23 -4.85,30.58 -8.12,45.7 -0.99,5.45 -5.83,9.33 -11.35,9.06 -23.52,0.4 -47.07,0.02 -70.6,0.2 -4.49,-0.09 -10.57,-0.2 -12.56,-5.11 -1.38,-6.69 0.37,-13.46 1.45,-20.06zm-850.28 -171.78c8.34,-5.02 18.37,-5.36 27.83,-5.2 23.31,0.07 46.6,0.04 69.91,0.02 -2.22,11.13 -3.17,22.55 -6.19,33.52 -1.01,4.35 -5.19,7 -9.54,6.93 -14.6,0.67 -29.25,-0.41 -43.85,0.43 -8.6,0.69 -12.23,9.69 -14.18,16.87 -6.01,23.19 -9.94,46.88 -13.28,70.57 -0.86,8.22 -2.52,17.3 1.55,24.95 3.7,6.24 12.33,7.09 18.68,5.05 5.47,-2.05 7.92,-7.9 8.95,-13.24 2.25,-11.42 3.9,-22.93 6.1,-34.35 -5.78,-0.26 -14.98,0.27 -16.12,-7.29 -0.54,-10.09 2.57,-19.92 3.92,-29.85 15.43,-0.05 30.89,-0.12 46.33,-0.01 3.88,0.23 8.99,0.28 11.08,4.25 1.88,4.62 0.69,9.8 0.06,14.58 -5.2,29.58 -10.25,59.16 -15.45,88.75 -1.35,6.3 -2.92,13.3 -8.05,17.7 -6.8,4.91 -15.58,5.18 -23.63,5.71 -20.44,0.48 -41.19,1.8 -61.31,-2.67 -7.27,-1.56 -13.68,-6.32 -17.39,-12.74 -5.53,-9.6 -6.68,-20.93 -6.79,-31.79 0.2,-21.35 3.88,-42.46 7.33,-63.46 3.62,-20.32 7.14,-40.83 14.07,-60.33 4.08,-10.88 9.56,-22.3 19.97,-28.4zm866.07 -15.18c2.27,0.09 4.58,0.18 6.89,0.31 -2.47,12.97 -4.59,26.02 -7.02,39.01 -0.94,4 -1.9,9.11 -6.32,10.64 -8.42,1.39 -17.01,0.4 -25.49,0.6 -8.14,46.82 -16.24,93.66 -24.18,140.51 -1.57,5.72 1.19,11.41 6.75,13.52 -0.47,2.47 -0.88,4.98 -1.3,7.49 -14.12,0.01 -28.23,0.01 -42.34,0.05 -4.14,-0.13 -9.13,-0.09 -11.95,-3.64 -2.42,-4.33 -1.3,-9.44 -0.61,-14.06 8.3,-47.96 16.53,-95.93 24.83,-143.89 -6.84,0.15 -13.72,-0.02 -20.48,0.92 -4.48,0.74 -5.54,5.9 -7.2,9.35 -2.26,0.07 -4.5,0.16 -6.7,0.27 2.51,-13.88 4.42,-27.84 7.4,-41.61 0.69,-4.76 3.97,-9.78 9.4,-9.33 27.66,-0.32 55.34,-0.03 83,-0.1 3.77,-0.19 8.13,-0.06 11.13,-2.82 1.75,-2.18 2.87,-4.78 4.19,-7.22zm-219.17 0.15c2.33,-0.04 4.68,-0.07 7.04,-0.09 -2.58,13.71 -4.67,27.53 -7.49,41.19 -0.9,3.61 -2.29,8.5 -6.69,8.93 -9.08,0.99 -18.23,0.2 -27.32,0.43 -7.38,42.29 -14.58,84.62 -21.92,126.93 -0.99,6.77 -3.14,13.61 -2.09,20.52 0.77,3.33 4.15,4.81 6.6,6.8 -0.47,2.4 -0.9,4.82 -1.32,7.23 -14.83,-0.05 -29.66,0.09 -44.49,-0.01 -3.99,0.05 -8.79,-1 -10.5,-5.04 -1.35,-4.09 -0.45,-8.44 0.09,-12.59 8.34,-47.94 16.49,-95.92 24.84,-143.84 -6.89,0.09 -13.82,-0.11 -20.64,0.87 -4.51,0.83 -5.37,6.06 -7.23,9.49 -2.18,0 -4.33,0 -6.48,0.04 2.13,-12.58 4.19,-25.16 6.5,-37.7 1.08,-4.47 1.71,-10.42 6.51,-12.54 7.04,-1.47 14.31,-0.54 21.47,-0.75 24.3,-0.2 48.64,0.38 72.93,-0.26 5.72,0.17 8.21,-5.21 10.19,-9.61zm-286.01 -45.85c61.63,-0.5 123.29,-0.07 184.92,-0.21 -2.24,12.5 -3.66,25.15 -6.55,37.52 -1.24,4.95 -3.68,11.15 -9.6,11.66 -13.75,1.35 -27.66,-0.6 -41.41,1.06 -14.74,1.75 -19.64,22.97 -11.45,33.49 14.58,12.27 33.5,18.78 46.91,32.62 11.44,13.25 10.1,32.14 8.32,48.37 -2.6,19.9 -6.68,39.75 -13.86,58.53 -5.74,14.01 -14.96,28.87 -30.62,32.82 -16.35,3.94 -33.34,1.84 -49.98,2.38 -13.2,-0.36 -26.48,0.84 -39.6,-0.83 -8.05,-0.99 -12.99,-9.43 -11.91,-17.08 1.91,-18.33 6.08,-36.36 8.79,-54.58 2.79,-0.07 5.61,-0.13 8.44,-0.16 0.34,5.27 0.96,12.43 7.11,14.13 10.61,2.68 21.67,1.4 32.5,1.71 6.8,-0.2 13.83,0.11 20.36,-2.11 10.02,-4.69 13.01,-17.47 11.1,-27.5 -1.71,-8.98 -10.81,-13.06 -17.79,-17.41 -12.68,-7.98 -27.06,-14.76 -35.72,-27.51 -4.73,-6.95 -7.15,-15.36 -6.9,-23.77 0.15,-24.5 6.79,-48.26 11.77,-72.08 -21.6,-10.35 -43.48,-20.15 -64.83,-31.05zm-952.47 0.02c44.7,-0.56 89.39,-0.07 134.08,-0.25 5.12,0.38 11.11,-0.35 15.32,3.26 2.5,3.45 2.85,7.85 3.26,11.97 1.84,36.22 3.29,72.47 5.29,108.68 8.43,-26.79 17.68,-53.35 26.45,-80.03 2.51,-8.36 6.53,-16.49 6.64,-25.35 0.29,-4.78 -4.17,-6.99 -7.74,-8.84 0.5,-3.23 1.01,-6.48 1.53,-9.69 19.8,0.05 39.59,-0.04 59.38,0.02 4.13,0.3 8.77,0.08 12.31,2.63 4.02,3.43 3.95,9.24 4.34,14.09 0.35,55.37 1.18,110.75 1.52,166.12 1.33,19.05 -1.46,38.41 2.18,57.27 0.85,5.21 6.1,7.03 10.41,8.6 -0.54,3.25 -1.08,6.48 -1.6,9.74 -18.79,-0.14 -37.57,0.29 -56.33,-0.18 -5.13,0.24 -9.82,-3.42 -10.27,-8.6 -2.29,-16.84 0.18,-33.83 -0.45,-50.74 -0.56,-29.1 1.17,-58.2 0.11,-87.29 -7.85,21.8 -13.57,44.32 -20.59,66.42 -8.08,26.79 -16.13,53.6 -24.23,80.39 -16.2,0 -32.38,0 -48.59,0 -2.2,-49.45 -3.57,-98.94 -5.95,-148.38 -10,39.08 -18.8,78.47 -28.49,117.64 -1.07,5.03 -2.72,10.43 -1.05,15.52 1.01,3.19 4.73,3.86 7.27,5.34 -0.52,3.28 -1.06,6.56 -1.58,9.85 -15.48,0.03 -30.96,0.07 -46.45,0.03 -3.89,-0.25 -8.4,-0.07 -11.42,-2.99 -3.21,-4.82 -1.1,-10.81 -0.03,-15.95 18.55,-66.74 37.31,-133.42 55.88,-200.16 -27.05,-13.07 -54.37,-25.59 -81.2,-39.12zm344.26 53.77c17.52,-1.93 36.28,-2.64 52.7,4.72 11.85,5.22 18.44,17.7 20.15,30.04 3,19.85 -0.09,39.97 -2.92,59.65 -4.02,23.26 -8.25,46.7 -16.47,68.91 -5.22,13.71 -13.08,27.46 -26.22,34.91 -14.97,8.53 -32.89,9.06 -49.69,8.62 -13.78,-0.56 -29.44,-2.97 -38.5,-14.54 -10.66,-13.29 -10.34,-31.32 -9.58,-47.45 1.84,-28.89 6.93,-57.56 14.68,-85.43 4.57,-15.57 9.64,-31.99 21.44,-43.74 9.04,-9.31 21.78,-13.98 34.41,-15.69zm6.89 42.74l0 0c-4.57,1.71 -7.56,5.9 -9.55,10.16 -4.11,8.68 -6.06,18.15 -8.37,27.42 -4.63,20.16 -8.84,40.49 -10.43,61.15 -0.29,6.66 -0.41,14.49 4.66,19.56 5.03,4.65 13.67,3.46 17.9,-1.74 5.91,-7.14 8.15,-16.41 10.71,-25.13 5.52,-21.27 9.51,-42.96 11.88,-64.81 0.36,-7.74 1.6,-16.54 -3.18,-23.26 -2.96,-4.34 -9,-4.99 -13.62,-3.35zm80.36 -40.81c30.24,-0.02 60.46,0.05 90.68,-0.04 9.26,-0.16 20.41,0.04 26.56,8.16 5.72,8.21 6.57,18.71 6.6,28.43 -0.84,20.19 -4.69,40.76 -14.25,58.75 -4.62,8.86 -12.79,15.35 -22.28,18.26 4.47,13.76 7.58,28.04 12.92,41.51 2.04,5.22 8.59,3.83 12.97,4.35 -2.51,11.89 -3.72,24.07 -6.95,35.8 -0.9,3.86 -4.51,6.42 -8.37,6.58 -7.85,0.63 -15.75,0.16 -23.6,0.31 -3.64,-0.27 -8.42,0.52 -10.77,-3.01 -2.62,-4.46 -3.35,-9.69 -4.64,-14.64 -5.12,-22.31 -10.41,-44.6 -15.55,-66.9 -0.18,-2.85 -1.86,-4.65 -4.65,-5.03 -4.08,23.36 -8.27,46.73 -12.04,70.15 -1.44,5.39 1.99,10.01 6.95,11.82 -0.44,2.5 -0.85,5.01 -1.27,7.56 -14.28,0.01 -28.58,0.03 -42.88,0.03 -4.04,-0.09 -8.84,-0.29 -11.59,-3.73 -2.27,-3.68 -1.3,-8.16 -0.77,-12.15 9.47,-55.26 19.18,-110.51 28.45,-165.82 1.81,-5.8 -1.53,-10.9 -6.85,-13 0.43,-2.47 0.88,-4.94 1.33,-7.39zm51.19 38.77l0 0c-2.29,13.51 -4.64,27.05 -6.97,40.56 6.5,-0.18 13.25,0.9 19.58,-0.94 9.09,-3.8 11.37,-14.88 12.27,-23.69 0.14,-5.12 1.01,-12.75 -5.05,-14.85 -6.43,-1.87 -13.25,-0.85 -19.83,-1.08zm246.35 -31.52c0.49,-2.45 0.97,-4.87 1.48,-7.29 20.14,0.09 40.25,0.04 60.39,0 3.35,0.14 7.52,-0.14 9.83,2.87 1.68,2.44 1.73,5.54 2.02,8.41 1.99,55.95 4.06,111.9 6.12,167.83 -0.15,5.54 1.41,11.15 6.08,14.6 8.35,-46.25 15.98,-92.6 24.07,-138.9 1.8,-12.77 5.16,-25.36 6.01,-38.25 0.66,-4.67 -3.54,-7.23 -7.02,-9.16 0.41,-2.47 0.88,-4.93 1.35,-7.36 16.89,0.21 33.81,-0.42 50.7,0.27 4.1,-0.09 5.41,4.09 6.33,7.3 7.42,26.69 14.78,53.39 22.25,80.08 3.95,-23.1 8.21,-46.15 11.82,-69.29 1.15,-5.19 -2.71,-9.05 -7.02,-11.02 0.36,-2.47 0.72,-4.92 1.12,-7.36 12.54,0.09 25.08,-0.09 37.62,0.04 4.06,-0.2 9.14,1.38 10.12,5.89 1.06,6.07 -0.67,12.18 -1.59,18.16 -10.25,59.32 -20.41,118.66 -30.62,177.99 -11.78,-0.26 -23.63,0.61 -35.38,-0.42 -3.84,-0.29 -5.41,-4.37 -6.48,-7.47 -8.86,-30.49 -16.85,-61.24 -25.94,-91.66 -4.12,18.66 -6.68,37.62 -10.12,56.42 -1.28,9.17 -3.9,18.21 -4.1,27.52 -0.22,4.13 3.92,6.06 6.78,8.08 -0.3,2.49 -0.59,5 -0.88,7.51 -29.19,0.11 -58.39,-0.04 -87.58,0.07 -3.98,-0.2 -8.44,0.31 -11.87,-2.13 -2.63,-2.65 -2.56,-6.69 -2.87,-10.14 -0.18,-11.71 -0.72,-23.42 -0.56,-35.13 -13.01,0 -26,0 -39.01,0 -3.06,10.02 -7.12,19.72 -9.52,29.92 -1.36,4.71 2.65,8.13 6.44,9.94 -0.38,2.47 -0.74,4.98 -1.1,7.49 -12.34,0.03 -24.68,0 -37.01,0.07 -3.82,-0.18 -8.6,0.23 -11.15,-3.21 -2.2,-4.39 -0.59,-9.4 0.94,-13.72 20.53,-52.79 41.08,-105.58 61.54,-158.41 1.47,-4.46 3.65,-9 3.29,-13.8 -0.58,-3.27 -4.1,-4.19 -6.48,-5.74zm29.82 39.69l0 0c-8.37,24.02 -16.45,48.11 -24.68,72.16 8.7,-0.04 17.4,-0.02 26.09,-0.02 -0.5,-24.03 -1.33,-48.09 -1.41,-72.14zm499.5 -46.89c21.59,0.02 43.19,-0.31 64.79,0.13 5.26,-0.35 7.56,5.09 7.58,9.54 2.27,57.52 4.04,115.08 6.44,172.58 -0.1,5.7 3.62,10.21 8.67,12.43 -0.47,2.44 -0.92,4.89 -1.35,7.36 -14.96,-0.13 -29.9,0.15 -44.84,-0.09 -4.07,0.09 -9,-1.69 -9.25,-6.4 -1.62,-13.57 -0.52,-27.3 -1.59,-40.92 -12.83,0.05 -25.64,0.05 -38.45,0.01 -3.26,10.45 -8.14,20.55 -9.78,31.43 -0.75,4.39 3.58,6.52 6.52,8.65 -0.42,2.43 -0.83,4.89 -1.23,7.34 -13.89,-0.22 -27.79,0.25 -41.66,-0.18 -3.68,0.11 -7.33,-2.69 -7.36,-6.5 -0.42,-7.07 3.41,-13.35 5.66,-19.81 19.76,-51.15 39.95,-102.14 59.42,-153.39 2.74,-5.65 2.4,-13.01 -4.62,-15.02 0.32,-2.4 0.69,-4.79 1.05,-7.16zm3.95 119.01l0 0c8.73,0.02 17.46,0.04 26.2,0 -1.05,-23.58 -1.02,-47.18 -1.76,-70.76 -8.73,23.36 -16.29,47.18 -24.44,70.76zm-74.19 128.93l0 0c-9.57,2.26 -19.51,6.12 -25.79,14.04 -5.23,6.6 -6.37,17.43 0.09,23.65 7.2,6.88 17.45,8.95 27.03,10 4.28,0.72 9,0.49 12.85,2.8 3.07,2.59 -1.43,5.23 -3.77,5.59 -11.24,2.36 -22.3,-2.44 -32.08,-7.49 -4.15,7.34 -8.3,14.69 -12.38,22.09 18.8,6.18 39.15,8.98 58.78,5.55 9.94,-1.98 20.39,-5.66 26.89,-13.89 6.13,-7.4 5.52,-19.86 -2.24,-25.89 -9.98,-7.94 -23.24,-8.16 -35.18,-10.56 -2.95,-0.48 -6.79,-3.23 -2.53,-5.34 9.85,-3.8 20.42,0.85 29.68,4.42 3.73,-6.65 7.36,-13.38 10.99,-20.1 -16.46,-6.74 -34.93,-8.46 -52.34,-4.87zm-847.84 -0.79l0 0c-0.02,25.67 0.05,51.37 -0.04,77.06 19.74,0.09 39.48,0.07 59.23,0.03 10.67,-0.61 22.52,-2.25 30.53,-10.01 5.74,-5.29 6.07,-14.96 1.14,-20.89 -3.81,-4.86 -9.96,-6.84 -15.63,-8.57 4.19,-1.88 8.99,-3.57 11.48,-7.73 4.82,-6.98 2.58,-17.39 -4.31,-22.13 -7.22,-5.18 -16.37,-6.5 -24.99,-7.17 -19.13,-1.1 -38.27,-0.45 -57.41,-0.59zm204.8 -0.02l0 0c-0.02,25.71 -0.02,51.42 -0.02,77.11 24.95,0.02 49.91,0.02 74.88,0 0,-7.05 0,-14.11 0,-21.16 -11.59,-0.04 -23.15,-0.02 -34.72,0 -0.01,-2.44 -0.01,-4.84 -0.01,-7.24 10.21,0 20.42,-0.01 30.65,0.02 0.02,-6.78 0.02,-13.55 0.02,-20.31 -10.2,0 -20.39,-0.04 -30.57,0.05 -0.05,-2.29 -0.1,-4.56 -0.16,-6.82 11.15,-0.02 22.28,0.02 33.43,-0.02 0,-7.21 0,-14.41 -0.03,-21.61 -24.5,-0.04 -48.99,-0.02 -73.47,-0.02zm182.01 77.11l0 0c14.17,0.04 28.33,0 42.49,0.02 1.07,-3.17 2.15,-6.33 3.23,-9.47 9.8,0.02 19.61,-0.13 29.43,0.14 1.14,3.11 2.29,6.21 3.48,9.33 14.13,0 28.27,0 42.42,0 -12.79,-25.8 -26.07,-51.37 -38.97,-77.11 -14.65,-0.04 -29.3,-0.02 -43.95,-0.02 -12.83,25.64 -25.46,51.39 -38.13,77.11zm227.56 -77.11l0 0c-0.04,25.71 -0.02,51.4 -0.02,77.11 13.08,0.04 26.16,0.02 39.24,0.02 0,-8.19 -0.02,-16.38 0.04,-24.55 5.75,8.17 11.53,16.34 17.3,24.53 15.44,0.04 30.89,0.02 46.35,0.02 -10.03,-9.94 -18.57,-21.65 -30.17,-29.8 7.02,-2.17 15.46,-4.24 19.11,-11.37 3.64,-8.95 1.39,-20.48 -6.57,-26.38 -10.81,-8.05 -24.84,-9.06 -37.83,-9.45 -15.83,-0.29 -31.65,-0.06 -47.45,-0.13z"/>
  </g>
 </g>
</svg>
