<?xml version="1.0" encoding="UTF-8"?>
<!DOCTYPE svg PUBLIC "-//W3C//DTD SVG 1.1//EN" "http://www.w3.org/Graphics/SVG/1.1/DTD/svg11.dtd">
<!-- Creator: CorelDRAW -->
<svg xmlns="http://www.w3.org/2000/svg" xml:space="preserve" width="2000px" height="1600px" version="1.1" style="shape-rendering:geometricPrecision; text-rendering:geometricPrecision; image-rendering:optimizeQuality; fill-rule:evenodd; clip-rule:evenodd"
viewBox="0 0 2000 1600"
 xmlns:xlink="http://www.w3.org/1999/xlink">
 <defs>
  <style type="text/css">
   <![CDATA[
    .fil1 {fill:#005495;fill-rule:nonzero}
    .fil2 {fill:#A29160;fill-rule:nonzero}
    .fil0 {fill:#FEFEFE;fill-rule:nonzero}
   ]]>
  </style>
 </defs>
 <g id="Capa_x0020_1">
  <metadata id="CorelCorpID_0Corel-Layer"/>
  <g id="Mount_x0020_St.cdr">
   <path class="fil0" d="M1124.97 626.57c17.4,-3.79 35.13,-0.02 52.6,1.25 17.42,1.19 36.08,4.16 49.62,16.16 12.72,10.81 17.26,28.15 17.19,44.27 -0.02,67.17 -0.02,134.33 -0.02,201.51 -0.14,11.91 -2.38,24.97 -11.27,33.66 -9.87,9.36 -24.37,10.96 -37.36,10.34 -16.17,-1.01 -32.24,-3.05 -48.36,-4.49 -15.74,-1.67 -32.64,-6.69 -42.77,-19.7 -8.6,-10.63 -10.67,-24.83 -10.48,-38.1 0.1,-61.7 0.03,-123.38 0.05,-185.08 0,-13.36 -1.03,-27.42 4.84,-39.84 4.67,-10.47 14.91,-17.61 25.96,-19.98zm-1024.97 319.08c0.64,-0.33 1.92,-0.97 2.56,-1.3 9.41,9.53 19.28,18.56 28.94,27.85 6.76,-3.06 13.49,-6.21 20.25,-9.25 0.02,37.25 0.02,74.51 0,111.78 -5,2.13 -9.97,4.27 -14.99,6.34 -0.2,51.93 -0.15,103.87 -0.04,155.82 8.05,9.64 18.11,17.32 26.39,26.73l-63.11 0 0 -317.97zm1588.91 -247.22c53.18,19.49 105.04,42.36 156.59,65.76 -0.02,27.29 0.03,54.56 -0.04,81.84 -9.05,-17.9 -16.11,-36.77 -25.23,-54.6 -7.65,-6.16 -17.89,-8.47 -26.57,-13.07 0.12,105.59 -0.02,211.2 0.07,316.8 1.94,16.51 9.9,31.65 13.16,47.92 -26.81,-10.94 -53.27,-22.76 -80.14,-33.55 3.67,-9.71 7.83,-19.26 11.89,-28.81 3.03,-6.43 2.35,-13.65 2.39,-20.52 -0.24,-101.36 0.18,-202.73 -0.21,-304.11 -8.55,-3.37 -16.98,-7.09 -25.8,-9.74 -8.57,17.44 -17.28,34.81 -26,52.18 -0.48,-33.37 -0.26,-66.73 -0.11,-100.1zm-1534.87 65.78c51.86,-22.94 104.07,-45.19 156.94,-65.73 0.25,27.54 0.64,55.12 -0.21,82.66 -9.6,-10.94 -17.66,-23.14 -26.27,-34.83 -8.78,2.84 -17.23,6.49 -25.79,9.86 -0.38,104.39 -0.03,208.81 -0.18,313.21 0.11,6.67 -0.55,13.41 0.51,20.03 3.7,8.45 9.53,15.76 13.73,23.97 -26.48,11.19 -52.8,22.83 -79.55,33.33 3.33,-13.78 10.3,-26.59 12.51,-40.61 0.26,-109.2 -0.1,-218.41 0.17,-327.63 -8.5,4.1 -17.61,7.07 -25.73,11.95 -9.82,17.94 -16.44,37.58 -26.13,55.65 -0.04,-27.29 -0.02,-54.57 0,-81.86zm1339.84 -79.24c16.51,4.79 33.05,9.48 49.42,14.74 15.58,39.36 31.72,78.5 47.48,117.79 11.12,26.59 21,53.71 32.93,79.94 0.04,-46.48 0.16,-92.95 -0.04,-139.42 -2.8,-13.03 -10.63,-24.41 -15.24,-36.85 16.56,5.71 32.87,12.13 49.49,17.66 -3.33,9.42 -10.11,17.14 -13.52,26.48 -1.08,7.24 -0.35,14.59 -0.48,21.86 0.06,72.72 -0.13,145.43 0.08,218.13 2.25,12.97 9.45,24.52 13.37,37.05 -14.18,-4.6 -28.05,-10.1 -42.11,-14.99 -5.53,-1.15 -6.52,-7.26 -8.41,-11.62 -17.02,-43.96 -34.32,-87.83 -51.44,-131.74 -9.38,-23.25 -17.65,-46.96 -27.85,-69.85 -1.25,47.79 -0.08,95.64 -0.59,143.45 -1.46,16.2 9.26,29.61 13.56,44.56 -16.12,-3.85 -31.81,-9.29 -47.79,-13.7 3.74,-7.61 8.03,-14.92 11.91,-22.47 3.06,-5.33 2.16,-11.69 2.31,-17.56 -0.22,-75.77 0.11,-151.54 -0.17,-227.3 -2.18,-12.66 -9.6,-23.75 -12.91,-36.16zm-1049.5 20.31c26.68,-7.42 53.05,-16 79.9,-22.76 -3.01,7.44 -6.85,14.49 -10.43,21.68 -3.74,6.91 -2.2,14.99 -2.45,22.5 0.03,76.98 0.11,153.97 -0.04,230.93 -0.62,11.13 9.38,18.51 14.09,27.67 -26.68,7.72 -53.25,15.76 -80.06,22.95 3.46,-12.26 13.58,-22.62 12.52,-35.96 -0.3,-33.7 0.18,-67.4 -0.26,-101.08 -17.5,5.45 -34.98,10.98 -52.37,16.73 -0.33,31.16 0.01,62.31 -0.19,93.48 0.24,5.29 -0.8,10.96 1.12,16.01 3.92,6.84 9.2,12.81 13.01,19.74 -26.81,8.63 -53.2,18.51 -79.73,27.93 3.19,-8.25 7.15,-16.13 10.68,-24.21 2.51,-5.48 1.71,-11.65 1.84,-17.48 -0.26,-82.45 0.16,-164.87 -0.22,-247.3 -5.76,-4.05 -11.2,-8.5 -16.55,-13.06 27.25,-10.14 54.79,-19.52 82.31,-28.87 -4.12,10.3 -13.72,18.97 -12.49,30.83 0.31,35.44 -0.2,70.88 0.27,106.3 17.54,-5.26 34.87,-11.2 52.32,-16.73 0.42,-34.12 -0.04,-68.26 0.26,-102.4 -0.04,-3.56 0.09,-7.17 -0.5,-10.68 -3.61,-5.96 -8.72,-10.8 -13.03,-16.22zm839.2 -63.92c28.42,3.5 56.42,9.73 84.57,14.88 -4.29,8.05 -9.24,15.71 -13.89,23.53 -1.95,3.04 -2.84,6.58 -2.7,10.17 0.08,67.86 0.04,135.73 0.02,203.59 -0.03,7.53 1.1,15.49 5.83,21.63 6.76,9.2 18.18,13.35 29.04,15.24 7.5,0.99 16.22,1.74 22.51,-3.39 5.62,-4.43 6.89,-12.06 6.82,-18.8 -0.1,-69.1 0.01,-138.21 -0.06,-207.31 -1.56,-13.03 -9.86,-24.1 -13.3,-36.67 21.29,4.11 42.29,9.66 63.27,15.21 -4.84,7.37 -10.17,14.38 -15.3,21.53 -2.03,2.64 -3.26,5.79 -3.04,9.16 0.02,72.1 0.02,144.19 0,216.28 -0.24,12.18 -1.61,26.31 -11.69,34.61 -10.7,8.43 -25.44,7.28 -38.1,5.46 -16.71,-3.33 -33.39,-6.74 -49.99,-10.46 -17.01,-3.92 -34.07,-13.01 -42.59,-28.86 -8.54,-15.27 -7.4,-33.34 -7.4,-50.19 0,-60.48 0,-120.95 0,-181.42 -0.31,-8.07 1.01,-16.35 -0.94,-24.25 -3.95,-10.15 -9.09,-19.8 -13.06,-29.94zm-725.25 31.85c53.1,-13.49 106.92,-24.21 161.04,-32.67 -0.11,28.97 0.33,57.94 -0.22,86.89 -9.42,-13.87 -17.96,-28.33 -26.57,-42.71 -21.04,3.26 -41.78,8.04 -62.79,11.47 -0.43,31.39 -0.12,62.8 -0.16,94.19 7.66,-2 16.02,-2.11 23.18,-5.61 7.15,-11.93 11.2,-25.51 18.82,-37.18 1.28,21.09 0.26,42.28 0.59,63.41 -0.19,14.22 0.45,28.44 -0.48,42.64 -7.04,-10.12 -12.84,-21 -19.75,-31.19 -7.54,1.34 -15.01,2.99 -22.49,4.62 0.29,31.39 -0.13,62.76 0.22,94.13 21.08,-3.94 42.17,-7.84 63.17,-12.15 8.54,-17.68 17.3,-35.27 26.18,-52.77 0.66,29.41 0.24,58.84 0.22,88.27 -52.85,7.93 -105.14,19.15 -157.15,31.44 3.72,-9.49 7.88,-18.8 11.76,-28.23 3.19,-7.3 1.91,-15.43 2.11,-23.15 -0.05,-75.15 -0.04,-150.3 -0.02,-225.45 -0.09,-2.42 -0.11,-5.04 -1.87,-6.91 -5.02,-6.56 -10.77,-12.5 -15.79,-19.04zm428.18 -54.7c22.91,-0.17 45.81,0.81 68.72,0.99 -3.7,11.12 -14.55,19.64 -13.87,32 0.14,77 0.03,153.98 0.05,230.96 0.19,7.21 -0.68,14.5 0.61,21.63 3.53,6.8 8.83,12.53 12.46,19.31 -24.94,0.09 -49.88,-0.47 -74.8,-1.06 4.98,-8.65 14.44,-16.05 13.3,-26.99 -0.17,-54.37 -0.04,-108.76 -0.07,-163.15 -0.35,-18.66 0.77,-37.37 -0.65,-55.99 -1.54,3.89 -2.67,7.92 -3.55,12.01 -16.49,78.23 -33.94,156.27 -50.23,234.56 -6.49,0.44 -12.96,0.7 -19.44,0.82 -18.79,-82.75 -36.56,-165.77 -55.84,-248.39 0.04,76.36 -0.05,152.72 0.04,229.08 1.57,8.56 9.56,14.27 13.85,21.62 -15.54,0.99 -31.02,2.79 -46.6,3.08 3.63,-6.65 8.41,-12.61 11.93,-19.33 1.28,-6.53 0.48,-13.25 0.64,-19.87 -0.02,-78.21 -0.05,-156.42 0.02,-234.63 -0.07,-2.79 -0.15,-5.74 -1.85,-8.06 -4.55,-7.15 -9.91,-13.75 -14.37,-20.93 28.42,-2.58 56.92,-4.64 85.43,-6.16 11.44,59.39 22.82,118.8 33.72,178.3 14.15,-59.77 26.59,-119.97 40.5,-179.8zm-596.26 46.84c208.7,-103.79 417.28,-207.83 626,-311.56 72.73,36.28 145.21,73.08 217.92,109.41 27.4,14.19 55.27,27.42 82.5,41.84 -59.26,-25.87 -117.96,-53.16 -177,-79.57 -39.58,-17.88 -79.16,-35.79 -118.75,-53.65 -3.71,-2.62 -7.53,0.77 -10.95,2.2 -21.63,11.3 -43.63,21.91 -65.08,33.57 66.36,29.35 133.37,57.3 199.8,86.51 -22.59,-5.33 -44.58,-12.88 -66.94,-19.06 -56.2,-16.47 -112.4,-32.96 -168.63,-49.42 -3.62,-1.61 -7.01,0.82 -10.13,2.38 -29.91,16.33 -60.22,31.91 -89.96,48.49 33.1,14.95 66.36,29.54 99.31,44.82 -45.51,-8.76 -90.7,-19.15 -136.12,-28.34 -1.84,-0.3 -3.54,0.01 -5.15,0.97 -95.46,48.74 -191,97.36 -286.5,146.05 -7.25,3.95 -15.39,5.66 -23.23,8.04 -21.5,6.32 -42.86,13.07 -64.16,20.07 -4.45,1.45 -8.94,2.91 -13.56,3.7 3.19,-2.69 6.91,-4.6 10.63,-6.45zm769.63 -3.7l0 0c-7.67,0.66 -12.4,8.13 -11.67,15.41 -0.11,64.8 0.09,129.61 -0.09,194.41 0.15,5.44 -0.48,11.31 2.14,16.31 2.92,5.33 9.06,7.71 14.7,8.92 6.84,1.27 14.68,1.78 20.65,-2.45 4.18,-3.08 4.68,-8.71 4.75,-13.49 0,-64.17 -0.09,-128.35 0.05,-192.52 -0.31,-6.66 0.96,-14.55 -4.01,-19.85 -6.89,-6.63 -17.41,-7.95 -26.52,-6.74z"/>
   <path class="fil1" d="M1016.12 336.38l3.12 0c63.77,33.86 128.2,66.55 192.23,99.96 142.11,73.7 284.29,147.21 426.35,221 6.47,-7.35 13.14,-14.55 19.57,-21.93 83.12,27.65 163.55,62.72 242.59,100.36 -0.09,69.71 0.35,139.44 -0.63,209.13 -17.37,-7.09 -33.93,-15.96 -51.34,-22.96 -0.5,12.86 -0.3,25.72 -0.2,38.61 -0.08,36.79 -0.1,73.59 0.02,110.39 4.81,2.1 9.85,3.85 14.36,6.69 1.85,2.19 0.81,5.46 1.21,8.11 -0.22,49.44 0.07,98.87 -0.15,148.31 -50.43,-22.6 -100.56,-45.91 -151.93,-66.34 -13.38,-5.44 -26.88,-10.5 -40.17,-16.14 -0.07,-12.08 0.85,-24.19 -0.2,-36.23 0.13,-4.09 -4.43,-4.78 -7.2,-6.34 -70.59,-28.96 -143.65,-51.59 -217.67,-69.91 -172.01,-42.3 -350.1,-59.43 -527.02,-51.79 -189.12,8.3 -377.08,45.76 -554.37,112.28 -12.06,4.47 -24.12,8.98 -36.07,13.72 -0.03,14.01 -0.11,27.99 -0.02,41.99 -42.38,17.06 -84.91,33.86 -126.48,52.92 -21.84,9.44 -43.17,20.14 -65.4,28.68 -0.11,-51.95 -0.16,-103.89 0.04,-155.82 5.02,-2.07 9.99,-4.21 14.99,-6.34 0.02,-37.27 0.02,-74.53 0,-111.78 0.04,-13.67 0.27,-27.32 -0.24,-40.98 -16.55,6.93 -32.73,14.7 -48.95,22.38 -0.64,0.33 -1.92,0.97 -2.56,1.3l0 -209.79c78.5,-38.52 159.61,-71.43 241.63,-101.65 7.11,6.97 14.54,13.64 21.92,20.31 201.96,-98.54 404.12,-196.63 606.12,-295.05 15.48,-7.7 31.34,-14.68 46.45,-23.09zm-625.87 328.97l0 0c-3.72,1.85 -7.44,3.76 -10.63,6.45 4.62,-0.79 9.11,-2.25 13.56,-3.7 21.3,-7 42.66,-13.75 64.16,-20.07 7.84,-2.38 15.98,-4.09 23.23,-8.04 95.5,-48.69 191.04,-97.31 286.5,-146.05 1.61,-0.96 3.31,-1.27 5.15,-0.97 45.42,9.19 90.61,19.58 136.12,28.34 -32.95,-15.28 -66.21,-29.87 -99.31,-44.82 29.74,-16.58 60.05,-32.16 89.96,-48.49 3.12,-1.56 6.51,-3.99 10.13,-2.38 56.23,16.46 112.43,32.95 168.63,49.42 22.36,6.18 44.35,13.73 66.94,19.06 -66.43,-29.21 -133.44,-57.16 -199.8,-86.51 21.45,-11.66 43.45,-22.27 65.08,-33.57 3.42,-1.43 7.24,-4.82 10.95,-2.2 39.59,17.86 79.17,35.77 118.75,53.65 59.04,26.41 117.74,53.7 177,79.57 -27.23,-14.42 -55.1,-27.65 -82.5,-41.84 -72.71,-36.33 -145.19,-73.13 -217.92,-109.41 -208.72,103.73 -417.3,207.77 -626,311.56zm634.54 -243.12l0 0c56.17,27.82 112.43,55.51 168.7,83.1 19.17,9.95 39.2,18.31 57.8,29.31 -18.69,-2.99 -36.65,-9.33 -55.07,-13.62 -89.92,-23.75 -179.89,-47.33 -269.8,-71.17 -3.42,-1.07 -7.16,-1.31 -10.3,0.71 -17.46,9.37 -35.14,18.34 -52.42,28.06 26.86,13.98 54.29,26.92 81.12,40.99 17.61,9.16 35.75,17.33 53.09,27.03 -66.21,-7.42 -132.38,-15.06 -198.59,-22.58 -6.14,-0.49 -12.35,-2.27 -18.51,-1.34 -6.38,2.24 -12,6.12 -17.99,9.19 -37.53,19.82 -75.01,39.8 -112.54,59.64 -8.41,4.64 -17.24,8.56 -25.1,14.17 13.3,-1.38 26.31,-4.71 39.49,-6.91 189.46,-34.07 384.18,-39.05 575.15,-14.7 84.6,11.09 168.51,27.55 251.05,49.19 29.14,7.46 57.6,17.3 86.48,25.6 -8.85,-5.68 -18.7,-9.51 -27.95,-14.41 -158.14,-77.69 -316.36,-155.25 -474.51,-232.96 -6.65,-3.17 -13.05,-6.97 -20.08,-9.16 -10.81,5.18 -20.25,12.95 -30.02,19.86zm-43.08 191l0 0c-8.78,40.57 -17.98,81.05 -26.9,121.59 -2.68,11.12 -4.44,22.5 -8.08,33.39 -2.02,-6.75 -3.38,-13.66 -4.47,-20.58 -8.43,-44.35 -16.85,-88.71 -25.18,-133.08 -16.53,0.07 -32.99,1.74 -49.46,2.71 -16.94,1.47 -33.96,2.13 -50.8,4.42 5.75,8.94 12.31,17.33 18.31,26.11 3.85,5.35 2.29,12.3 2.6,18.44 -0.15,78.81 -0.06,157.61 -0.04,236.41 0.33,5.22 -3.02,9.47 -5.73,13.58 -4.42,6.27 -8.63,12.66 -12.43,19.33 22.45,-1.08 44.81,-3.35 67.22,-4.67 -4.33,-9.59 -12.64,-16.49 -17.59,-25.64 -1.05,-5.7 -0.46,-11.54 -0.53,-17.28 0.12,-53.82 -0.08,-107.64 0.09,-161.46 5.7,19.92 9.29,40.37 14.07,60.51 10.02,44.88 20.18,89.74 30,134.67 0.9,2.33 0.57,5.61 2.97,7.07 8.98,1.12 18.03,-0.22 27.05,-0.49 12.9,-60.35 25.96,-120.65 38.94,-180.98 1.21,-6.65 2.6,-13.29 5,-19.63 0.37,3.94 0.64,7.88 0.71,11.84 -0.03,51.35 -0.11,102.69 0.04,154.02 0.07,4.22 -0.37,8.63 -3.01,12.12 -4.96,7.29 -10.35,14.27 -14.73,21.93 31.74,0.77 63.53,1.89 95.29,1.21 -4.51,-8.03 -10.32,-15.17 -15.46,-22.76 -3.87,-5.22 -2.51,-12.04 -2.75,-18.07 0.16,-78.81 0.05,-157.63 0.05,-236.44 -0.38,-6.55 3.67,-11.97 6.85,-17.29 4.05,-6.23 7.67,-12.71 10.85,-19.44 -27.58,-1.63 -55.27,-1.83 -82.88,-1.54zm141.49 8.06l0 0c-9.68,2.11 -18.66,7.54 -24.67,15.45 -7.15,9.44 -9.71,21.55 -9.84,33.19 0.02,68.39 0.04,136.78 0,205.17 -0.02,14.84 3.94,30.43 14.53,41.34 12.52,13.06 31.1,17.41 48.53,18.91 17.17,1.25 34.25,4.14 51.49,3.99 12.55,-0.03 25.82,-3.62 34.65,-12.99 9.28,-9.67 11.88,-23.64 11.95,-36.59 -0.04,-67.77 0,-135.55 -0.02,-203.32 -0.11,-17 -5.6,-34.91 -18.78,-46.33 -13.01,-11.83 -30.88,-16.01 -47.96,-17.35 -19.88,-1.41 -40.07,-5.7 -59.88,-1.47zm-441.56 19.87l0 0c-44.7,8.13 -89.3,17.11 -133.21,28.77 6.25,8.47 13.67,15.98 20.12,24.26 1.71,1.85 1.84,4.4 1.93,6.78 0,78.25 -0.08,156.5 0.03,234.73 0.08,4.45 -1.11,8.79 -2.89,12.84 -4.95,11.68 -10.06,23.29 -14.64,35.11 56.84,-13.21 113.87,-26.16 171.72,-34.21 0.22,-39.53 0.48,-79.05 -0.15,-118.56 -12,24.24 -23.64,48.71 -35.33,73.12 -17.92,3.99 -36.01,7.22 -54.09,10.4 -0.02,-27.7 -0.17,-55.41 0.09,-83.12 4.8,-0.75 9.58,-1.61 14.35,-2.53 9.43,14.46 17.32,29.95 27.65,43.8 1.06,-15.61 0.28,-31.26 0.51,-46.89 -0.36,-34.01 0.74,-68.06 -0.57,-102.04 -10.9,18.25 -18.47,38.28 -28.31,57.12 -4.58,0.86 -9.14,1.82 -13.69,2.86 -0.09,-27.51 -0.18,-55.01 0.04,-82.5 15.34,-3.21 30.77,-5.84 46.12,-8.96 3.41,-0.39 8.42,-2.4 10.18,1.91 11.23,17.57 21.71,35.62 33.07,53.12 0.72,-37.62 0.11,-75.28 0.31,-112.92 -14.53,1.56 -28.86,4.42 -43.24,6.91zm592.79 -6.84l0 0c4.64,11.38 9.84,22.53 14.92,33.72 1.89,4 2.93,8.34 2.82,12.76 -0.14,70.88 0,141.76 -0.07,212.64 -0.15,16.03 3.26,33.04 14.05,45.47 10.72,12.86 26.85,19.6 42.87,23.16 15,3.22 30.05,6.34 45.11,9.45 15.14,2.51 32.86,3.91 45.45,-6.63 10.98,-9.38 13.14,-24.85 13.28,-38.48 0.04,-71.49 0.02,-142.97 0,-214.44 -0.4,-5.79 3.85,-10.15 6.88,-14.59 5.29,-6.93 10.52,-13.93 15.04,-21.4 -27.14,-6.89 -54.17,-14.43 -81.71,-19.48 4.65,13.58 11.36,26.31 16.24,39.78 2.14,11.82 0.4,23.97 0.93,35.92 0.02,58.68 -0.04,117.35 0.04,176.03 -0.17,4.87 -0.37,10.52 -4.25,14.04 -4.95,4.01 -11.82,3.51 -17.74,2.8 -10.08,-1.56 -20.93,-5.15 -26.94,-13.95 -4.38,-6.17 -4.22,-14.09 -4.31,-21.31 0.24,-67.2 -0.2,-134.41 0.2,-201.61 4,-12.83 13.69,-23.22 19.5,-35.33 -33.81,-7.61 -67.93,-14.09 -102.31,-18.55zm-839.39 67.86l0 0c4.21,6.38 9.49,11.89 14.45,17.67 3.74,3.75 2.72,9.36 2.94,14.16 -0.37,32.27 0.29,64.52 -0.35,96.8 -13.82,3.88 -27.25,9.01 -41.18,12.55 -0.57,-30.95 0.04,-61.89 -0.31,-92.84 0.05,-5.59 -0.55,-11.61 2.47,-16.62 5.39,-9.97 11.6,-19.48 16.63,-29.63 -14.85,4.44 -29.31,10.08 -44,14.97 -20.55,7.53 -41.51,13.91 -61.87,21.99 6.91,6.62 15.43,11.29 22.14,18.05 1.28,6.76 0.46,13.71 0.6,20.56 -0.02,72.08 -0.03,144.15 0,216.22 -0.2,8.58 1.34,17.74 -2.75,25.69 -5.04,11 -10.4,21.85 -14.9,33.1 33.05,-11.97 66.03,-24.14 99.46,-35 -4.84,-7.41 -10.36,-14.33 -15.23,-21.7 -3.19,-4.31 -2.42,-9.88 -2.57,-14.9 0.42,-30.47 -0.35,-60.97 0.41,-91.42 13.78,-4.16 27.35,-8.98 41.13,-13.12 0.55,29.34 -0.01,58.69 0.32,88.03 -0.06,5.72 0.42,11.73 -2.15,17.04 -5.16,11.33 -10.99,22.38 -15.57,33.98 33.09,-10.21 66.44,-19.5 99.68,-29.16 -4.49,-7.03 -9.27,-13.89 -14.07,-20.7 -2.2,-3.01 -3.77,-6.49 -3.54,-10.29 0.06,-76.36 0.08,-152.72 0,-229.08 0.24,-7.51 -1.26,-15.57 2.42,-22.5 5.21,-10.83 11.38,-21.2 15.6,-32.47 -33.43,8.96 -66.43,19.33 -99.76,28.62zm1049.64 -25.27l0 0c3.51,11.02 8.23,21.59 12.64,32.25 2.07,4.97 4.16,10.1 4.09,15.58 -0.04,72.73 -0.08,145.46 0,218.2 -0.26,7.11 1.21,14.77 -2.22,21.34 -4.62,9.24 -10.04,18.07 -14.18,27.55 21.66,6.39 43.21,13.27 65.09,18.95 -4.58,-12.98 -10.39,-25.48 -15.56,-38.21 -2.99,-7.06 -1.92,-14.86 -2.05,-22.3 0.46,-35.59 -0.72,-71.21 0.58,-106.78 7.64,16.27 13.23,33.4 20.14,49.97 16.71,43.08 33.76,86.02 50.38,129.14 1.48,3.71 2.95,8.19 7.46,9.05 18.63,6.52 36.98,13.96 55.83,19.9 -4.41,-13.14 -10.24,-25.71 -15.21,-38.63 -1.43,-3.59 -2.27,-7.42 -2.25,-11.31 0.04,-76.38 0.07,-152.77 -0.02,-229.17 -0.42,-6.18 3.04,-11.51 6.03,-16.6 3.88,-6.42 7.51,-12.98 11.09,-19.56 -22.69,-8 -45.1,-16.78 -67.92,-24.37 3.76,10.19 8.49,19.99 12.98,29.89 3.06,6.84 7.2,13.67 6.8,21.46 -0.17,35.53 0,71.05 -0.09,106.56 -24.49,-58.07 -47.14,-116.93 -71.4,-175.12 -20.82,-5.66 -41.23,-12.79 -62.21,-17.79zm-1316.97 75.24l0 0c-6.23,2.94 -12.81,5.28 -18.65,8.98 -1.1,5.54 -0.55,11.25 -0.63,16.88 0.15,31.23 0,62.45 0.08,93.7 9.49,-18.22 16.98,-37.37 25.76,-55.91 3.52,-6.97 5.61,-14.74 10.19,-21.1 4.69,-3.55 10.5,-5.14 15.81,-7.51 0.08,105.1 -0.03,210.19 0.06,315.27 0,4.08 -0.73,8.15 -2.09,12.02 -4.82,14.13 -10.35,28.03 -14.37,42.44 32.37,-13.62 64.95,-26.83 96.96,-41.22 -4.32,-7.76 -9.33,-15.11 -13.83,-22.77 -2.42,-3.72 -2.66,-8.23 -2.66,-12.5 0.27,-106.89 -0.13,-213.78 0.22,-320.65 5.95,-2.44 11.96,-4.77 18.03,-6.93 10.94,15.41 22.01,30.77 33.7,45.61 0.88,-36.1 0.4,-72.24 0.26,-108.34 -50,19.76 -99.66,40.36 -148.84,62.03zm1515.26 -62.04l0 0c-0.05,43.46 -0.77,86.97 0.35,130.42 12.26,-22.12 22.23,-45.47 34.76,-67.46 5.94,2.2 11.82,4.6 17.65,7.11 -0.33,97.56 -0.07,195.14 -0.13,292.71 -0.29,8.74 1.38,17.97 -2.31,26.24 -4.61,11.19 -9.78,22.17 -13.69,33.66 20.68,8.12 41.18,16.66 61.59,25.4 11.53,4.73 22.6,10.55 34.44,14.53 -2.7,-11.87 -6.95,-23.31 -10.38,-34.98 -2.34,-8.05 -6.01,-15.93 -6.06,-24.45 0.09,-102.03 -0.04,-204.06 0.07,-306.1 6.55,3.28 15.78,4.25 18.77,11.93 11.14,24.19 21.24,48.89 33.22,72.7 0.15,-37.04 0.37,-74.09 -0.13,-111.13 -55.25,-25.36 -111.07,-49.64 -168.15,-70.58z"/>
   <path class="fil1" d="M1159.96 667.31c6.89,-1.47 14.49,-0.39 20.56,3.26 4.76,2.86 4.1,9.11 4.38,13.89 -0.13,57.45 -0.02,114.9 -0.06,172.35 -0.24,9.67 0.64,19.4 -0.44,29.03 -0.62,4.94 -6.34,6.24 -10.5,6.21 -6.69,-0.15 -15.02,-0.84 -18.93,-7.13 -1.96,-6.1 -1.19,-12.65 -1.33,-18.95 0.11,-62.36 0.03,-124.7 0.03,-187.04 -0.2,-4.6 0.77,-10.76 6.29,-11.62z"/>
   <path class="fil2" d="M1682.97 690.11c57.08,20.94 112.9,45.22 168.15,70.58 0.5,37.04 0.28,74.09 0.13,111.13 -11.98,-23.81 -22.08,-48.51 -33.22,-72.7 -2.99,-7.68 -12.22,-8.65 -18.77,-11.93 -0.11,102.04 0.02,204.07 -0.07,306.1 0.05,8.52 3.72,16.4 6.06,24.45 3.43,11.67 7.68,23.11 10.38,34.98 -11.84,-3.98 -22.91,-9.8 -34.44,-14.53 -20.41,-8.74 -40.91,-17.28 -61.59,-25.4 3.91,-11.49 9.08,-22.47 13.69,-33.66 3.69,-8.27 2.02,-17.5 2.31,-26.24 0.06,-97.57 -0.2,-195.15 0.13,-292.71 -5.83,-2.51 -11.71,-4.91 -17.65,-7.11 -12.53,21.99 -22.5,45.34 -34.76,67.46 -1.12,-43.45 -0.4,-86.96 -0.35,-130.42zm-763.91 297.19c176.92,-7.64 355.01,9.49 527.02,51.79 74.02,18.32 147.08,40.95 217.67,69.91 2.77,1.56 7.33,2.25 7.2,6.34 1.05,12.04 0.13,24.15 0.2,36.23 13.29,5.64 26.79,10.7 40.17,16.14 51.37,20.43 101.5,43.74 151.93,66.34 -8.86,9.2 -17.35,18.73 -26.15,27.98 -60.91,-28.44 -121.64,-57.47 -184.36,-81.75 -0.21,-13.21 -0.32,-26.44 0.27,-39.63 -14.99,-6.95 -30.29,-13.13 -45.65,-19.15 -69.1,-26.65 -140.31,-47.72 -212.48,-64.34 -170.55,-39.15 -347,-52.19 -521.49,-39.31 -179.16,13.14 -356.09,54.85 -522.41,122.74 0.18,14.04 0.16,28.06 -0.4,42.09 -62.25,24.69 -123.39,52.08 -183.79,80.94l-3.68 0c-8.28,-9.41 -18.34,-17.09 -26.39,-26.73 22.23,-8.54 43.56,-19.24 65.4,-28.68 41.57,-19.06 84.1,-35.86 126.48,-52.92 -0.09,-14 -0.01,-27.98 0.02,-41.99 11.95,-4.74 24.01,-9.25 36.07,-13.72 177.29,-66.52 365.25,-103.98 554.37,-112.28zm928.95 -65.36c17.41,7 33.97,15.87 51.34,22.96 -7.42,9.87 -15.83,18.93 -23.8,28.35 -9.22,-4.31 -18.32,-8.85 -27.74,-12.7 -0.1,-12.89 -0.3,-25.75 0.2,-38.61zm-1745.45 22.41c16.22,-7.68 32.4,-15.45 48.95,-22.38 0.51,13.66 0.28,27.31 0.24,40.98 -6.76,3.04 -13.49,6.19 -20.25,9.25 -9.66,-9.29 -19.53,-18.32 -28.94,-27.85zm922.23 -522.12c9.77,-6.91 19.21,-14.68 30.02,-19.86 7.03,2.19 13.43,5.99 20.08,9.16 158.15,77.71 316.37,155.27 474.51,232.96 9.25,4.9 19.1,8.73 27.95,14.41 -28.88,-8.3 -57.34,-18.14 -86.48,-25.6 -82.54,-21.64 -166.45,-38.1 -251.05,-49.19 -190.97,-24.35 -385.69,-19.37 -575.15,14.7 -13.18,2.2 -26.19,5.53 -39.49,6.91 7.86,-5.61 16.69,-9.53 25.1,-14.17 37.53,-19.84 75.01,-39.82 112.54,-59.64 5.99,-3.07 11.61,-6.95 17.99,-9.19 6.16,-0.93 12.37,0.85 18.51,1.34 66.21,7.52 132.38,15.16 198.59,22.58 -17.34,-9.7 -35.48,-17.87 -53.09,-27.03 -26.83,-14.07 -54.26,-27.01 -81.12,-40.99 17.28,-9.72 34.96,-18.69 52.42,-28.06 3.14,-2.02 6.88,-1.78 10.3,-0.71 89.91,23.84 179.88,47.42 269.8,71.17 18.42,4.29 36.38,10.63 55.07,13.62 -18.6,-11 -38.63,-19.36 -57.8,-29.31 -56.27,-27.59 -112.53,-55.28 -168.7,-83.1zm-43.08 191c27.61,-0.29 55.3,-0.09 82.88,1.54 -3.18,6.73 -6.8,13.21 -10.85,19.44 -3.18,5.32 -7.23,10.74 -6.85,17.29 0,78.81 0.11,157.63 -0.05,236.44 0.24,6.03 -1.12,12.85 2.75,18.07 5.14,7.59 10.95,14.73 15.46,22.76 -31.76,0.68 -63.55,-0.44 -95.29,-1.21 4.38,-7.66 9.77,-14.64 14.73,-21.93 2.64,-3.49 3.08,-7.9 3.01,-12.12 -0.15,-51.33 -0.07,-102.67 -0.04,-154.02 -0.07,-3.96 -0.34,-7.9 -0.71,-11.84 -2.4,6.34 -3.79,12.98 -5,19.63 -12.98,60.33 -26.04,120.63 -38.94,180.98 -9.02,0.27 -18.07,1.61 -27.05,0.49 -2.4,-1.46 -2.07,-4.74 -2.97,-7.07 -9.82,-44.93 -19.98,-89.79 -30,-134.67 -4.78,-20.14 -8.37,-40.59 -14.07,-60.51 -0.17,53.82 0.03,107.64 -0.09,161.46 0.07,5.74 -0.52,11.58 0.53,17.28 4.95,9.15 13.26,16.05 17.59,25.64 -22.41,1.32 -44.77,3.59 -67.22,4.67 3.8,-6.67 8.01,-13.06 12.43,-19.33 2.71,-4.11 6.06,-8.36 5.73,-13.58 -0.02,-78.8 -0.11,-157.6 0.04,-236.41 -0.31,-6.14 1.25,-13.09 -2.6,-18.44 -6,-8.78 -12.56,-17.17 -18.31,-26.11 16.84,-2.29 33.86,-2.95 50.8,-4.42 16.47,-0.97 32.93,-2.64 49.46,-2.71 8.33,44.37 16.75,88.73 25.18,133.08 1.09,6.92 2.45,13.83 4.47,20.58 3.64,-10.89 5.4,-22.27 8.08,-33.39 8.92,-40.54 18.12,-81.02 26.9,-121.59zm4.8 5.28l0 0c-13.91,59.83 -26.35,120.03 -40.5,179.8 -10.9,-59.5 -22.28,-118.91 -33.72,-178.3 -28.51,1.52 -57.01,3.58 -85.43,6.16 4.46,7.18 9.82,13.78 14.37,20.93 1.7,2.32 1.78,5.27 1.85,8.06 -0.07,78.21 -0.04,156.42 -0.02,234.63 -0.16,6.62 0.64,13.34 -0.64,19.87 -3.52,6.72 -8.3,12.68 -11.93,19.33 15.58,-0.29 31.06,-2.09 46.6,-3.08 -4.29,-7.35 -12.28,-13.06 -13.85,-21.62 -0.09,-76.36 0,-152.72 -0.04,-229.08 19.28,82.62 37.05,165.64 55.84,248.39 6.48,-0.12 12.95,-0.38 19.44,-0.82 16.29,-78.29 33.74,-156.33 50.23,-234.56 0.88,-4.09 2.01,-8.12 3.55,-12.01 1.42,18.62 0.3,37.33 0.65,55.99 0.03,54.39 -0.1,108.78 0.07,163.15 1.14,10.94 -8.32,18.34 -13.3,26.99 24.92,0.59 49.86,1.15 74.8,1.06 -3.63,-6.78 -8.93,-12.51 -12.46,-19.31 -1.29,-7.13 -0.42,-14.42 -0.61,-21.63 -0.02,-76.98 0.09,-153.96 -0.05,-230.96 -0.68,-12.36 10.17,-20.88 13.87,-32 -22.91,-0.18 -45.81,-1.16 -68.72,-0.99zm136.69 2.78c19.81,-4.23 40,0.06 59.88,1.47 17.08,1.34 34.95,5.52 47.96,17.35 13.18,11.42 18.67,29.33 18.78,46.33 0.02,67.77 -0.02,135.55 0.02,203.32 -0.07,12.95 -2.67,26.92 -11.95,36.59 -8.83,9.37 -22.1,12.96 -34.65,12.99 -17.24,0.15 -34.32,-2.74 -51.49,-3.99 -17.43,-1.5 -36.01,-5.85 -48.53,-18.91 -10.59,-10.91 -14.55,-26.5 -14.53,-41.34 0.04,-68.39 0.02,-136.78 0,-205.17 0.13,-11.64 2.69,-23.75 9.84,-33.19 6.01,-7.91 14.99,-13.34 24.67,-15.45zm1.77 5.28l0 0c-11.05,2.37 -21.29,9.51 -25.96,19.98 -5.87,12.42 -4.84,26.48 -4.84,39.84 -0.02,61.7 0.05,123.38 -0.05,185.08 -0.19,13.27 1.88,27.47 10.48,38.1 10.13,13.01 27.03,18.03 42.77,19.7 16.12,1.44 32.19,3.48 48.36,4.49 12.99,0.62 27.49,-0.98 37.36,-10.34 8.89,-8.69 11.13,-21.75 11.27,-33.66 0,-67.18 0,-134.34 0.02,-201.51 0.07,-16.12 -4.47,-33.46 -17.19,-44.27 -13.54,-12 -32.2,-14.97 -49.62,-16.16 -17.47,-1.27 -35.2,-5.04 -52.6,-1.25zm-443.33 14.59c14.38,-2.49 28.71,-5.35 43.24,-6.91 -0.2,37.64 0.41,75.3 -0.31,112.92 -11.36,-17.5 -21.84,-35.55 -33.07,-53.12 -1.76,-4.31 -6.77,-2.3 -10.18,-1.91 -15.35,3.12 -30.78,5.75 -46.12,8.96 -0.22,27.49 -0.13,54.99 -0.04,82.5 4.55,-1.04 9.11,-2 13.69,-2.86 9.84,-18.84 17.41,-38.87 28.31,-57.12 1.31,33.98 0.21,68.03 0.57,102.04 -0.23,15.63 0.55,31.28 -0.51,46.89 -10.33,-13.85 -18.22,-29.34 -27.65,-43.8 -4.77,0.92 -9.55,1.78 -14.35,2.53 -0.26,27.71 -0.11,55.42 -0.09,83.12 18.08,-3.18 36.17,-6.41 54.09,-10.4 11.69,-24.41 23.33,-48.88 35.33,-73.12 0.63,39.51 0.37,79.03 0.15,118.56 -57.85,8.05 -114.88,21 -171.72,34.21 4.58,-11.82 9.69,-23.43 14.64,-35.11 1.78,-4.05 2.97,-8.39 2.89,-12.84 -0.11,-78.23 -0.03,-156.48 -0.03,-234.73 -0.09,-2.38 -0.22,-4.93 -1.93,-6.78 -6.45,-8.28 -13.87,-15.79 -20.12,-24.26 43.91,-11.66 88.51,-20.64 133.21,-28.77zm-123.31 32.05l0 0c5.02,6.54 10.77,12.48 15.79,19.04 1.76,1.87 1.78,4.49 1.87,6.91 -0.02,75.15 -0.03,150.3 0.02,225.45 -0.2,7.72 1.08,15.85 -2.11,23.15 -3.88,9.43 -8.04,18.74 -11.76,28.23 52.01,-12.29 104.3,-23.51 157.15,-31.44 0.02,-29.43 0.44,-58.86 -0.22,-88.27 -8.88,17.5 -17.64,35.09 -26.18,52.77 -21,4.31 -42.09,8.21 -63.17,12.15 -0.35,-31.37 0.07,-62.74 -0.22,-94.13 7.48,-1.63 14.95,-3.28 22.49,-4.62 6.91,10.19 12.71,21.07 19.75,31.19 0.93,-14.2 0.29,-28.42 0.48,-42.64 -0.33,-21.13 0.69,-42.32 -0.59,-63.41 -7.62,11.67 -11.67,25.25 -18.82,37.18 -7.16,3.5 -15.52,3.61 -23.18,5.61 0.04,-31.39 -0.27,-62.8 0.16,-94.19 21.01,-3.43 41.75,-8.21 62.79,-11.47 8.61,14.38 17.15,28.84 26.57,42.71 0.55,-28.95 0.11,-57.92 0.22,-86.89 -54.12,8.46 -107.94,19.18 -161.04,32.67zm716.1 -38.89c34.38,4.46 68.5,10.94 102.31,18.55 -5.81,12.11 -15.5,22.5 -19.5,35.33 -0.4,67.2 0.04,134.41 -0.2,201.61 0.09,7.22 -0.07,15.14 4.31,21.31 6.01,8.8 16.86,12.39 26.94,13.95 5.92,0.71 12.79,1.21 17.74,-2.8 3.88,-3.52 4.08,-9.17 4.25,-14.04 -0.08,-58.68 -0.02,-117.35 -0.04,-176.03 -0.53,-11.95 1.21,-24.1 -0.93,-35.92 -4.88,-13.47 -11.59,-26.2 -16.24,-39.78 27.54,5.05 54.57,12.59 81.71,19.48 -4.52,7.47 -9.75,14.47 -15.04,21.4 -3.03,4.44 -7.28,8.8 -6.88,14.59 0.02,71.47 0.04,142.95 0,214.44 -0.14,13.63 -2.3,29.1 -13.28,38.48 -12.59,10.54 -30.31,9.14 -45.45,6.63 -15.06,-3.11 -30.11,-6.23 -45.11,-9.45 -16.02,-3.56 -32.15,-10.3 -42.87,-23.16 -10.79,-12.43 -14.2,-29.44 -14.05,-45.47 0.07,-70.88 -0.07,-141.76 0.07,-212.64 0.11,-4.42 -0.93,-8.76 -2.82,-12.76 -5.08,-11.19 -10.28,-22.34 -14.92,-33.72zm9.15 7.04l0 0c3.97,10.14 9.11,19.79 13.06,29.94 1.95,7.9 0.63,16.18 0.94,24.25 0,60.47 0,120.94 0,181.42 0,16.85 -1.14,34.92 7.4,50.19 8.52,15.85 25.58,24.94 42.59,28.86 16.6,3.72 33.28,7.13 49.99,10.46 12.66,1.82 27.4,2.97 38.1,-5.46 10.08,-8.3 11.45,-22.43 11.69,-34.61 0.02,-72.09 0.02,-144.18 0,-216.28 -0.22,-3.37 1.01,-6.52 3.04,-9.16 5.13,-7.15 10.46,-14.16 15.3,-21.53 -20.98,-5.55 -41.98,-11.1 -63.27,-15.21 3.44,12.57 11.74,23.64 13.3,36.67 0.07,69.1 -0.04,138.21 0.06,207.31 0.07,6.74 -1.2,14.37 -6.82,18.8 -6.29,5.13 -15.01,4.38 -22.51,3.39 -10.86,-1.89 -22.28,-6.04 -29.04,-15.24 -4.73,-6.14 -5.86,-14.1 -5.83,-21.63 0.02,-67.86 0.06,-135.73 -0.02,-203.59 -0.14,-3.59 0.75,-7.13 2.7,-10.17 4.65,-7.82 9.6,-15.48 13.89,-23.53 -28.15,-5.15 -56.15,-11.38 -84.57,-14.88zm-123.7 20.29c9.11,-1.21 19.63,0.11 26.52,6.74 4.97,5.3 3.7,13.19 4.01,19.85 -0.14,64.17 -0.05,128.35 -0.05,192.52 -0.07,4.78 -0.57,10.41 -4.75,13.49 -5.97,4.23 -13.81,3.72 -20.65,2.45 -5.64,-1.21 -11.78,-3.59 -14.7,-8.92 -2.62,-5 -1.99,-10.87 -2.14,-16.31 0.18,-64.8 -0.02,-129.61 0.09,-194.41 -0.73,-7.28 4,-14.75 11.67,-15.41zm0.08 5.66l0 0c-5.52,0.86 -6.49,7.02 -6.29,11.62 0,62.34 0.08,124.68 -0.03,187.04 0.14,6.3 -0.63,12.85 1.33,18.95 3.91,6.29 12.24,6.98 18.93,7.13 4.16,0.03 9.88,-1.27 10.5,-6.21 1.08,-9.63 0.2,-19.36 0.44,-29.03 0.04,-57.45 -0.07,-114.9 0.06,-172.35 -0.28,-4.78 0.38,-11.03 -4.38,-13.89 -6.07,-3.65 -13.67,-4.73 -20.56,-3.26zm-724.92 34.87c33.33,-9.29 66.33,-19.66 99.76,-28.62 -4.22,11.27 -10.39,21.64 -15.6,32.47 -3.68,6.93 -2.18,14.99 -2.42,22.5 0.08,76.36 0.06,152.72 0,229.08 -0.23,3.8 1.34,7.28 3.54,10.29 4.8,6.81 9.58,13.67 14.07,20.7 -33.24,9.66 -66.59,18.95 -99.68,29.16 4.58,-11.6 10.41,-22.65 15.57,-33.98 2.57,-5.31 2.09,-11.32 2.15,-17.04 -0.33,-29.34 0.23,-58.69 -0.32,-88.03 -13.78,4.14 -27.35,8.96 -41.13,13.12 -0.76,30.45 0.01,60.95 -0.41,91.42 0.15,5.02 -0.62,10.59 2.57,14.9 4.87,7.37 10.39,14.29 15.23,21.7 -33.43,10.86 -66.41,23.03 -99.46,35 4.5,-11.25 9.86,-22.1 14.9,-33.1 4.09,-7.95 2.55,-17.11 2.75,-25.69 -0.03,-72.07 -0.02,-144.14 0,-216.22 -0.14,-6.85 0.68,-13.8 -0.6,-20.56 -6.71,-6.76 -15.23,-11.43 -22.14,-18.05 20.36,-8.08 41.32,-14.46 61.87,-21.99 14.69,-4.89 29.15,-10.53 44,-14.97 -5.03,10.15 -11.24,19.66 -16.63,29.63 -3.02,5.01 -2.42,11.03 -2.47,16.62 0.35,30.95 -0.26,61.89 0.31,92.84 13.93,-3.54 27.36,-8.67 41.18,-12.55 0.64,-32.28 -0.02,-64.53 0.35,-96.8 -0.22,-4.8 0.8,-10.41 -2.94,-14.16 -4.96,-5.78 -10.24,-11.29 -14.45,-17.67zm9.34 3.1l0 0c4.31,5.42 9.42,10.26 13.03,16.22 0.59,3.51 0.46,7.12 0.5,10.68 -0.3,34.14 0.16,68.28 -0.26,102.4 -17.45,5.53 -34.78,11.47 -52.32,16.73 -0.47,-35.42 0.04,-70.86 -0.27,-106.3 -1.23,-11.86 8.37,-20.53 12.49,-30.83 -27.52,9.35 -55.06,18.73 -82.31,28.87 5.35,4.56 10.79,9.01 16.55,13.06 0.38,82.43 -0.04,164.85 0.22,247.3 -0.13,5.83 0.67,12 -1.84,17.48 -3.53,8.08 -7.49,15.96 -10.68,24.21 26.53,-9.42 52.92,-19.3 79.73,-27.93 -3.81,-6.93 -9.09,-12.9 -13.01,-19.74 -1.92,-5.05 -0.88,-10.72 -1.12,-16.01 0.2,-31.17 -0.14,-62.32 0.19,-93.48 17.39,-5.75 34.87,-11.28 52.37,-16.73 0.44,33.68 -0.04,67.38 0.26,101.08 1.06,13.34 -9.06,23.7 -12.52,35.96 26.81,-7.19 53.38,-15.23 80.06,-22.95 -4.71,-9.16 -14.71,-16.54 -14.09,-27.67 0.15,-76.96 0.07,-153.95 0.04,-230.93 0.25,-7.51 -1.29,-15.59 2.45,-22.5 3.58,-7.19 7.42,-14.24 10.43,-21.68 -26.85,6.76 -53.22,15.34 -79.9,22.76zm1040.3 -28.37c20.98,5 41.39,12.13 62.21,17.79 24.26,58.19 46.91,117.05 71.4,175.12 0.09,-35.51 -0.08,-71.03 0.09,-106.56 0.4,-7.79 -3.74,-14.62 -6.8,-21.46 -4.49,-9.9 -9.22,-19.7 -12.98,-29.89 22.82,7.59 45.23,16.37 67.92,24.37 -3.58,6.58 -7.21,13.14 -11.09,19.56 -2.99,5.09 -6.45,10.42 -6.03,16.6 0.09,76.4 0.06,152.79 0.02,229.17 -0.02,3.89 0.82,7.72 2.25,11.31 4.97,12.92 10.8,25.49 15.21,38.63 -18.85,-5.94 -37.2,-13.38 -55.83,-19.9 -4.51,-0.86 -5.98,-5.34 -7.46,-9.05 -16.62,-43.12 -33.67,-86.06 -50.38,-129.14 -6.91,-16.57 -12.5,-33.7 -20.14,-49.97 -1.3,35.57 -0.12,71.19 -0.58,106.78 0.13,7.44 -0.94,15.24 2.05,22.3 5.17,12.73 10.98,25.23 15.56,38.21 -21.88,-5.68 -43.43,-12.56 -65.09,-18.95 4.14,-9.48 9.56,-18.31 14.18,-27.55 3.43,-6.57 1.96,-14.23 2.22,-21.34 -0.08,-72.74 -0.04,-145.47 0,-218.2 0.07,-5.48 -2.02,-10.61 -4.09,-15.58 -4.41,-10.66 -9.13,-21.23 -12.64,-32.25zm9.2 8.06l0 0c3.31,12.41 10.73,23.5 12.91,36.16 0.28,75.76 -0.05,151.53 0.17,227.3 -0.15,5.87 0.75,12.23 -2.31,17.56 -3.88,7.55 -8.17,14.86 -11.91,22.47 15.98,4.41 31.67,9.85 47.79,13.7 -4.3,-14.95 -15.02,-28.36 -13.56,-44.56 0.51,-47.81 -0.66,-95.66 0.59,-143.45 10.2,22.89 18.47,46.6 27.85,69.85 17.12,43.91 34.42,87.78 51.44,131.74 1.89,4.36 2.88,10.47 8.41,11.62 14.06,4.89 27.93,10.39 42.11,14.99 -3.92,-12.53 -11.12,-24.08 -13.37,-37.05 -0.21,-72.7 -0.02,-145.41 -0.08,-218.13 0.13,-7.27 -0.6,-14.62 0.48,-21.86 3.41,-9.34 10.19,-17.06 13.52,-26.48 -16.62,-5.53 -32.93,-11.95 -49.49,-17.66 4.61,12.44 12.44,23.82 15.24,36.85 0.2,46.47 0.08,92.94 0.04,139.42 -11.93,-26.23 -21.81,-53.35 -32.93,-79.94 -15.76,-39.29 -31.9,-78.43 -47.48,-117.79 -16.37,-5.26 -32.91,-9.95 -49.42,-14.74zm-1326.17 67.18c49.18,-21.67 98.84,-42.27 148.84,-62.03 0.14,36.1 0.62,72.24 -0.26,108.34 -11.69,-14.84 -22.76,-30.2 -33.7,-45.61 -6.07,2.16 -12.08,4.49 -18.03,6.93 -0.35,106.87 0.05,213.76 -0.22,320.65 0,4.27 0.24,8.78 2.66,12.5 4.5,7.66 9.51,15.01 13.83,22.77 -32.01,14.39 -64.59,27.6 -96.96,41.22 4.02,-14.41 9.55,-28.31 14.37,-42.44 1.36,-3.87 2.09,-7.94 2.09,-12.02 -0.09,-105.08 0.02,-210.17 -0.06,-315.27 -5.31,2.37 -11.12,3.96 -15.81,7.51 -4.58,6.36 -6.67,14.13 -10.19,21.1 -8.78,18.54 -16.27,37.69 -25.76,55.91 -0.08,-31.25 0.07,-62.47 -0.08,-93.7 0.08,-5.63 -0.47,-11.34 0.63,-16.88 5.84,-3.7 12.42,-6.04 18.65,-8.98zm-13.67 12.06l0 0c-0.02,27.29 -0.04,54.57 0,81.86 9.69,-18.07 16.31,-37.71 26.13,-55.65 8.12,-4.88 17.23,-7.85 25.73,-11.95 -0.27,109.22 0.09,218.43 -0.17,327.63 -2.21,14.02 -9.18,26.83 -12.51,40.61 26.75,-10.5 53.07,-22.14 79.55,-33.33 -4.2,-8.21 -10.03,-15.52 -13.73,-23.97 -1.06,-6.62 -0.4,-13.36 -0.51,-20.03 0.15,-104.4 -0.2,-208.82 0.18,-313.21 8.56,-3.37 17.01,-7.02 25.79,-9.86 8.61,11.69 16.67,23.89 26.27,34.83 0.85,-27.54 0.46,-55.12 0.21,-82.66 -52.87,20.54 -105.08,42.79 -156.94,65.73zm1534.87 -65.78l0 0c-0.15,33.37 -0.37,66.73 0.11,100.1 8.72,-17.37 17.43,-34.74 26,-52.18 8.82,2.65 17.25,6.37 25.8,9.74 0.39,101.38 -0.03,202.75 0.21,304.11 -0.04,6.87 0.64,14.09 -2.39,20.52 -4.06,9.55 -8.22,19.1 -11.89,28.81 26.87,10.79 53.33,22.61 80.14,33.55 -3.26,-16.27 -11.22,-31.41 -13.16,-47.92 -0.09,-105.6 0.05,-211.21 -0.07,-316.8 8.68,4.6 18.92,6.91 26.57,13.07 9.12,17.83 16.18,36.7 25.23,54.6 0.07,-27.28 0.02,-54.55 0.04,-81.84 -51.55,-23.4 -103.41,-46.27 -156.59,-65.76z"/>
  </g>
 </g>
</svg>
