<?xml version="1.0" encoding="UTF-8"?>
<!DOCTYPE svg PUBLIC "-//W3C//DTD SVG 1.1//EN" "http://www.w3.org/Graphics/SVG/1.1/DTD/svg11.dtd">
<!-- Creator: CorelDRAW -->
<svg xmlns="http://www.w3.org/2000/svg" xml:space="preserve" width="2000px" height="1600px" version="1.1" style="shape-rendering:geometricPrecision; text-rendering:geometricPrecision; image-rendering:optimizeQuality; fill-rule:evenodd; clip-rule:evenodd"
viewBox="0 0 2000 1600"
 xmlns:xlink="http://www.w3.org/1999/xlink">
 <defs>
  <style type="text/css">
   <![CDATA[
    .fil1 {fill:black;fill-rule:nonzero}
    .fil2 {fill:#006F3C;fill-rule:nonzero}
    .fil3 {fill:#ED2D23;fill-rule:nonzero}
    .fil0 {fill:#FEFEFE;fill-rule:nonzero}
   ]]>
  </style>
 </defs>
 <g id="Capa_x0020_1">
  <metadata id="CorelCorpID_0Corel-Layer"/>
  <g id="MVSU_x0020_Delta_x0020_Devils.cdr">
   <path class="fil0" d="M1133.51 1297.39c6.36,-4.2 12.37,-8.87 18.42,-13.48 2.4,1.87 4.8,3.77 7.2,5.66 -3.49,6.59 -6.97,13.19 -9.99,20 -5.27,-3.97 -10.46,-8.06 -15.63,-12.18zm114.75 -1091.9c59.81,-31.57 118.4,-66.11 171.52,-108.16 -2.06,48.13 -14.84,95.08 -30.61,140.34 -19.79,55.34 -44.39,108.94 -72.48,160.51 25.05,-64.03 50.47,-127.98 71.61,-193.45 5.54,-17.8 11.27,-35.63 14.27,-54.08 0.68,-5.35 1.8,-11.31 -1.4,-16.07 -14.1,0.03 -26.31,8.16 -38.42,14.38 -36.66,20.87 -73.15,42.77 -113.37,56.14l-1.12 0.39zm-419.1 17.96c25.81,-44.73 68.16,-80.57 117.9,-95.36 -36.43,18.86 -69.83,44.71 -93.78,78.31 -29.85,41.24 -43.93,92.67 -42.54,143.34l-0.02 0.78c-6.47,3.59 -11.39,9.16 -16,14.81 -2.31,-49.21 9.83,-99.18 34.44,-141.88zm241.08 -79.13c27.27,19.5 46.7,50.49 48.99,84.28 0.36,13.3 0.98,26.9 -2.36,39.91 -1.92,7.11 -6.58,14.14 -13.94,16.34 -8.23,2.22 -17.21,3.11 -25.35,0.11 -12.18,-4.61 -21.65,-16.2 -23.23,-29.18 1.24,-10.36 5.81,-19.87 8.92,-29.74 7.38,-21.6 12.48,-44.71 9.33,-67.62 5.85,-1.67 5.46,6.22 6.88,9.88 7.47,34.99 0.7,71.59 -11.18,104.82 7.88,9.56 21.51,11.8 32.82,7.8 8.64,-33.12 11.09,-70.45 -4.89,-101.81 -4.62,-10.06 -13.01,-17.39 -19.98,-25.71 -1.44,1.16 -2.83,2.35 -4.18,3.56 -0.48,-4.25 -1.1,-8.43 -1.83,-12.64zm55.61 3.68c7.64,2.38 15.13,5.24 22.13,9.14 9.97,7.68 17.74,17.83 25.26,27.82 3.77,5.62 8.45,10.95 10.47,17.56 1.14,7.38 2.03,14.79 2.74,22.21 -30.06,-15.06 -53.99,-43.4 -60.6,-76.73zm-547 103.5c29.12,14.83 58.9,28.37 89.12,40.8 -17.35,-2.56 -34.51,-6.29 -51.84,-9.1 45.46,62.31 92.64,123.37 140.71,183.69 -3.4,2.67 -5.48,6.51 -8.09,9.89 -60.07,-72.39 -118.65,-146.28 -169.9,-225.28zm141.78 4.8c16.85,23.34 42.75,39.66 71.05,44.92 -0.69,4.22 -1.33,8.47 -2.01,12.73 -26.43,-4.73 -47.91,-23.59 -63.43,-44.58 -0.78,0.55 -2.34,1.63 -3.11,2.18 -0.85,-5.1 -1.65,-10.18 -2.5,-15.25zm3.91 17.53c2.86,1.19 2.79,5.01 4.16,7.45 8.99,22.11 27.41,41.44 51.07,47.25 2.76,1.05 6.35,0.64 8.64,2.65 0.3,9.35 -0.05,18.74 1.37,28.05 -32.46,-17.35 -58.52,-48.9 -65.24,-85.4zm340.9 83.07c12.18,-3.57 25.12,-0.76 37.01,2.76 -1.37,2.88 -2.72,5.76 -4.07,8.66 -6.1,-3.47 -12.12,-8.43 -19.57,-7.86 -11.54,-0.52 -21.1,7.5 -27.95,15.91 -1.01,-0.82 -3.02,-2.45 -4.02,-3.27 -3.78,8.96 -7.23,18.06 -10.98,27.04 3.34,-0.75 6.68,-1.55 10.04,-2.35 1.74,2.95 3.54,5.83 5.44,8.68 -6.9,5.58 -13.99,10.91 -21.01,16.37 -7.68,5.44 -20.59,-2.22 -17.6,-11.91 3.06,-10.01 9.88,-18.33 16.44,-26.26 10.19,-11.34 21.67,-22.52 36.27,-27.77zm-17.1 22.9c3.91,3.31 7.71,6.74 11.59,10.1 -5.83,1.51 -11.65,3.11 -17.44,4.8 1.97,-4.96 3.93,-9.92 5.85,-14.9zm25.92 12.3c-5.41,-11.25 12.3,-15.14 18.61,-8.44 -6.06,3.13 -12.3,5.88 -18.61,8.44zm-209.19 86.33c-8.23,-4.25 -4.34,-16.94 3.41,-19.25 5.99,-1.18 12.16,-0.91 18.24,-0.84 4.27,9.05 12.25,15.29 20.62,20.36 -13.74,2.63 -29.08,5.92 -42.27,-0.27zm44.23 -19.13c4.62,0.84 9.12,2.24 13.51,3.91 0,10.69 -10.83,0.43 -13.51,-3.91zm-149.92 10.74c23.7,29.83 47.73,59.43 72.25,88.6 0.62,4.07 -0.57,8.2 -0.84,12.27 -11.27,-11.84 -21.79,-24.39 -32.65,-36.57 -5.21,-5.65 -6.97,-13.83 -13.21,-18.61 -11.4,-7.4 -18.69,-19.24 -27.63,-29.19 2.33,-5.21 3.06,-10.88 2.08,-16.5zm-29.03 34.04c6.79,-3.89 14.67,-5.63 21.07,-10.36 2.34,2.95 4.74,5.88 7.16,8.76 -11.04,1.94 -20.44,8 -28.96,14.97 -0.39,-4.39 -2.56,-9.56 0.73,-13.37zm343.62 10.97c5.76,-4.53 12.77,-7.48 20.25,-6.18 -4.37,4.49 -8.96,8.69 -13.49,12.99 -2.31,-2.24 -4.55,-4.5 -6.76,-6.81zm10.6 10.42c4.39,-4.57 8.89,-9.07 13.95,-12.94 1.82,7.64 -1.99,14.45 -6.56,20.21 -2.47,-2.42 -4.94,-4.87 -7.39,-7.27zm-14.1 -5.94c2.1,1.99 4.36,3.86 6.13,6.19 -1.95,2.52 -4.14,4.92 -6.82,6.65 -1.71,-1.21 -3.31,-2.53 -4.82,-4 1.83,-2.95 3.66,-5.89 5.51,-8.84zm-306.63 4.93c6.49,6.38 9.16,15.39 10.26,24.21 -8.02,-4.73 -14.65,-14.88 -10.26,-24.21zm309.1 11.62c2.6,-2.31 5.21,-4.64 7.86,-6.93 2.42,2.29 4.92,4.6 7.34,6.95 -3.32,2.1 -6.61,4.23 -9.9,6.4 -1.76,-2.17 -3.56,-4.27 -5.3,-6.42zm-10.63 -2.95c1.07,1.12 2.15,2.26 3.24,3.4 -2.46,2.43 -4.89,4.92 -7.35,7.34 1.28,-3.63 2.72,-7.18 4.11,-10.74zm-4.5 17.96c3.52,-3.84 7.45,-7.24 11.36,-10.69 1.53,1.5 3.06,3.04 4.61,4.57 -5.23,2.28 -10.46,4.64 -15.97,6.12zm83.11 15.07c-0.92,-9.53 10.63,-13.01 15.68,-19.62l-0.23 1.74c-3.93,28.99 -8.41,57.88 -12.46,86.81 -1.03,8.58 -1.94,17.22 -4.59,25.47 1.44,-7.57 1.76,-15.27 1.37,-22.97 -0.8,-23.82 1.14,-47.62 0.23,-71.43zm-342.14 -15.14c13.22,10.59 10.15,30.06 4.14,43.78 -0.52,5.51 -10.44,1.73 -5.14,-2.88 3.95,-8.05 3.66,-17.51 0.16,-25.67 0.43,-5.08 0.82,-10.13 0.84,-15.23zm513.02 75.14c32.57,-19.73 65.35,-39.16 97.97,-58.81 13.21,9.62 26.74,18.85 39.7,28.84 -13.3,-6.28 -26.63,-12.5 -39.75,-19.13 -32.96,15.73 -64.91,33.44 -97.92,49.1zm-547.51 -55.02c1.26,0.62 3.77,1.83 5.03,2.45 -4.3,8.82 -12.66,16.82 -11.02,27.45 1.83,12.39 9.95,22.67 12.62,34.86l-5.39 -3.34c1.71,7.11 5.62,14.19 4.68,21.67 -5,1.73 -8.71,-4.1 -11.79,-7.2 -8.46,-12.07 -13.94,-26.66 -26.52,-35.36 2.38,8.68 5.15,17.32 6.45,26.28 -6.81,-3.52 -12.53,-10.35 -11.73,-18.44 1.97,-9.19 8.35,-17.17 7.82,-26.93 11.66,-4.18 23.57,-10.22 29.85,-21.44zm519.17 9.35c12.09,4.71 23.86,10.38 35.42,16.25 -10.53,-2.19 -21.21,-3.66 -31.84,-5.33 -23.63,19.41 -47.06,39.09 -71.2,57.83 22.56,-22.9 45.22,-45.69 67.62,-68.75zm-432.95 12.96c1.74,-2.06 3.48,-4.09 5.28,-6.08 6.74,8.2 13.58,16.36 20.87,24.11 -1.26,1.97 -1.39,7.07 -4.87,5.12 -7.33,-7.49 -13.99,-15.61 -21.28,-23.15zm-157.76 9.51c4.52,-1.17 9.14,-2.08 13.83,-2.15 0.75,5.8 0.34,11.66 0.11,17.48 -6.56,-3.06 -12.2,-8 -13.94,-15.33zm151.66 0.91c2.99,3 5.9,6.08 8.8,9.19 -3.15,1.92 -6.38,3.73 -9.6,5.49 -0.21,-4.92 0.2,-9.81 0.8,-14.68zm555.53 37.99c57.78,-16.05 116.89,-27.63 176.64,-33.17 8.78,40.37 19.16,80.37 27.84,120.76 -11.84,-35.82 -23.31,-71.82 -36.18,-107.27 -52.67,5.76 -105.19,13.01 -157.81,19.18 -3.5,0.25 -6.99,0.43 -10.49,0.5zm-574.85 -22.4c11.09,3.7 21.1,12.85 21.58,25.21 2.26,15.39 -16.8,23.39 -15.34,38.65 -0.54,9.35 11.73,13.72 18.86,9.28 5.83,-2.37 6.93,-8.98 8.21,-14.35 2.15,2.93 4.02,6.1 3.86,9.9 0.37,10.35 5.99,20.46 2.63,30.83 -4.8,15.66 -14.79,29.14 -19.64,44.83 -5.09,13.39 -5.64,28.18 -1.96,42.01 -9.9,-0.32 -19.8,0.23 -29.67,-0.25 -4.48,-1.44 -7.75,-5.17 -11.41,-7.98 -7.84,-7.16 -16.43,-14.68 -19.52,-25.21 -1.94,-16.62 2.88,-34.61 -5.32,-50.11 -3.8,-8.34 -13.99,-14.79 -10.24,-25.09 5.51,6.53 11.65,15.31 21.39,14.35 5.78,1.14 10.06,-4.37 9.67,-9.76 -0.87,-9.26 -6.86,-16.73 -10.22,-25.07 -0.75,-8.8 7.07,-14.63 11.18,-21.49 6.72,-9.19 8.23,-22.1 1.05,-31.5 2.95,1.35 6.81,1.74 8.69,4.76 4.46,15.01 -10.84,28.98 -5.49,43.7 8.16,7.75 24.07,1.92 25.81,-9.33 2.35,-14.47 1.92,-29.8 -4.12,-43.38zm72.85 17.08c27.48,31.38 55.57,62.24 84.12,92.64 -3.89,1 -6.15,-2.24 -8.55,-4.39 -24.6,-25.67 -49.35,-51.23 -73.4,-77.42 -2.92,-2.79 -1.46,-7.31 -2.17,-10.83zm34.1 61.21c12.64,12.32 25.28,24.66 37.38,37.53 -9.74,-1.94 -20.35,-5.53 -29.88,-0.96 -7.56,3.38 -13.62,9.21 -20.52,13.67 6.92,-15.96 11.52,-32.89 13.02,-50.24zm147.98 69.05c9.1,-4.34 17.47,-10.01 26.36,-14.77 -18.29,15.84 -38.65,30.34 -61.94,37.67 -14.84,4.67 -33.74,3.55 -43.59,-10.05 26.76,8.64 55.01,-0.94 79.17,-12.85zm-180.91 22.13l0.64 0.04c-0.78,13.78 3.7,28.57 -2.65,41.51 -2.82,-13.78 -2.08,-28.11 2.01,-41.55zm94.33 90.17c34.45,-32.34 71.38,-62.27 110.81,-88.37 -37.62,35.29 -74.08,71.87 -108.5,110.31 -0.41,-7.36 -1.12,-14.67 -2.31,-21.94zm-232.85 -67.57c0.94,-5.64 2.63,-11.18 4.75,-16.48 10.86,8.51 21.26,17.67 32.94,25.14 -10.08,-0.52 -20.23,0.44 -30.26,-0.73 -4.07,-0.27 -8.32,-3.43 -7.43,-7.93zm613.66 116.1c9.69,1.21 19.88,4.64 25.94,12.73 9.26,12.34 10.01,29.85 4.32,43.84 -3.59,9.67 -16.5,14.4 -14.56,26.12 5.74,-5.14 11.43,-10.6 18.81,-13.32 2.52,2.28 4.5,4.98 3.84,8.64 0.07,23.59 -1.49,48.36 -12.57,69.69 -7.5,14.65 -22.74,23.25 -30.36,37.78 -6.37,11.84 -7.63,25.6 -7.45,38.84 -5.64,5.14 -11.52,10.06 -17.14,15.25 9.67,2.83 19.36,5.62 29.01,8.54 36.57,-75.27 73.05,-150.6 109.67,-225.85l1.55 -0.64c46.43,6.56 92.64,14.63 139.09,21 -54.72,86.45 -109.28,173.04 -163.96,259.53 2.58,2.35 5.17,4.73 7.75,7.15 36.55,-23.31 72.71,-47.22 109.19,-70.65 3.7,-2.51 8.32,-4.59 9.71,-9.26 8.07,-18.42 16.65,-36.66 24.6,-55.15 51.27,-15.52 106.08,-21.01 159.16,-12.64 -32.05,32.3 -64.94,63.73 -97.56,95.45 13.74,23.02 20.64,50.59 15.54,77.21 -4.13,23.48 -16.25,44.83 -31.72,62.68 37.46,-12.46 74.99,-24.76 112.41,-37.4 -27.45,29.67 -56.37,57.97 -84.3,87.18 -5.19,5.67 -10.56,11.52 -17.92,14.33 -43.77,19.5 -92.46,27.82 -140.23,24.64 -32.04,-2.33 -65.46,-12.36 -88.05,-36.34 -13.21,-13.96 -21.48,-32.14 -24.27,-51.11 -21.26,30.7 -41.3,62.24 -61.99,93.33 -10.9,15.54 -20.21,32.23 -32,47.11 0.98,-43.98 3.84,-87.93 5.48,-131.91 -42.35,22.42 -84.8,44.68 -126.9,67.59 -19.66,-17.33 -38.56,-35.55 -57.55,-53.63 15.61,-30.37 31.56,-60.59 47.24,-90.92 3.41,-4.92 -4.25,-7.43 -6.74,-10.49 -69.08,51.88 -138.49,103.31 -207.64,155.08 -5.9,4.46 -11.77,8.94 -18.01,12.92 -9.35,-16.89 -19.57,-33.28 -29.17,-50.01 3.39,-15.78 6.79,-31.55 10.06,-47.36 -70.49,29.02 -140.73,58.67 -211,88.29 -21.46,-12.2 -42.54,-25.12 -63.93,-37.44 27.34,-60.87 55.61,-121.35 82.86,-182.26 -152.19,94.79 -313.22,174.93 -478.57,244.07 -13.64,5.46 -27.06,11.59 -41.01,16.34 26.24,-19.65 53.97,-37.35 80.67,-56.41 2.56,-1.55 3.2,-4.69 4.34,-7.22 39.91,-109.79 80.46,-219.34 120.19,-329.22 -43.34,0.02 -86.68,-0.05 -130.02,0.05 -5.87,-23.62 -11.66,-47.23 -17.07,-70.93 206.22,0 412.53,6.31 618.23,21.78 6.42,19.13 13.39,38.11 19.15,57.47 -29.3,22.95 -58.93,45.48 -89.51,66.69 -10.45,7.59 -21.51,14.31 -31.68,22.27 24.82,-1.47 49.69,-2.38 74.54,-3.25 22.33,16.69 44.89,33.05 67.45,49.46 8.98,5.26 10.35,16.62 16.82,24.17 11.78,-27.23 23.75,-54.36 35.71,-81.49 29.05,7.75 58.31,14.77 87.29,22.74 -32,46.36 -56.5,98.06 -71.86,152.26 55.31,-56.35 109.69,-113.67 164.66,-170.36 25.65,8.69 51.48,16.8 77.19,25.28 4.66,-7.22 9.12,-14.56 13.81,-21.78 15.45,3.7 30.81,7.97 46.44,10.99 -16.48,-13.28 -30.47,-31.45 -32.93,-53.05 -3.39,-23.18 13.62,-43.11 13.25,-65.99 -0.2,-8.37 -5.67,-15.45 -13.03,-18.95 8.58,-14.33 27.34,-11.98 40.55,-6.4 -0.59,-14.49 2.13,-30.24 12.46,-41.12 5.94,-6.77 15.34,-12.41 15,-22.61 -0.1,-9.6 -9.9,-13.78 -15.53,-19.97 5.1,-0.67 10.29,-0.94 15.37,0.29 -1.54,0.83 -4.55,2.45 -6.08,3.27 5.34,3.04 13.21,6.47 12.45,13.97 -2.72,13.64 -14.21,22.58 -22.63,32.77 -8.54,11.8 -3.84,27.02 -5.94,40.39 -0.27,3.04 -3.38,4.58 -6.15,3.98 -7.84,-2.06 -12.36,-10.72 -20.66,-11.5 -3.45,1.01 -6.24,3.36 -9.19,5.26 6.51,5.14 15.13,11.22 13.51,20.82 -2.79,16.96 -11.77,32.53 -12.46,49.97 -2.35,17.4 4.85,35.77 19.2,46.08 13.05,10.04 29.1,15.36 45.21,17.92 2.36,-15.18 -2.03,-32.3 7.32,-45.67 8.87,-14.42 21.51,-25.87 33.33,-37.78 8.77,-8.69 10.74,-21.53 12.43,-33.21 0.85,-10.54 2.72,-21.35 0.41,-31.8 -0.59,-0.61 -1.74,-1.85 -2.31,-2.47 -7.4,1.65 -4.41,13.44 -11.56,15.96 -6.17,3.2 -15.89,4.48 -20.05,-2.38 -3.09,-8.48 6.51,-12.84 11.86,-17.1 9.74,-6.08 16.69,-16.48 17.22,-28.09 0.47,-10.63 -0.14,-22.88 -7.91,-31.02 -4.53,-5.14 -11.82,-4.86 -18.04,-5.5 5.74,14.03 1.62,29.34 -3.27,42.95 -2.6,7.58 -7.95,15.22 -16.32,16.77 -4.5,1.24 -8.68,-2.99 -8.5,-7.36 -0.91,-8.5 6.33,-14.24 10.33,-20.8 4.8,-7.02 4.85,-15.93 4,-24.04 8.6,0.52 11.52,-7.98 10.68,-15.04zm111.24 59.79l0 0c-26.24,45.83 -47.04,94.54 -65.71,143.87 -35.45,94.6 -62.97,192 -86.18,290.26 -1.41,5.42 -2.4,10.97 -2.78,16.58 42.24,-81.24 85.87,-161.79 130.67,-241.68 42.47,-74.74 84.85,-149.8 134.45,-220.16 -31.5,-4.48 -62.83,-10.08 -94.38,-14.24 -6.35,7.77 -10.86,16.82 -16.07,25.37zm-1006.76 0.39l0 0c0.07,1.49 0.21,4.41 0.3,5.87 -60.3,-1.69 -120.59,-2.92 -180.89,-4.02 2.6,17.94 5.6,35.8 8.23,53.74 52.04,-0.92 104.09,-2.97 156.14,-4.44 -39.71,112.44 -79.89,224.69 -119.64,337.11 -0.76,2.72 -2.38,5.14 -5.05,6.33 -20.83,11.91 -41.69,23.79 -62.54,35.72 -5.94,3.46 -12.28,6.41 -17.55,10.91 16.04,-5.63 30.76,-14.42 46.24,-21.37 131.38,-64.35 261.12,-132.33 387.22,-206.54 74.27,-44.14 147.62,-90.15 216.37,-142.52 -4.55,-14.38 -8.73,-28.85 -13.64,-43.09 -127,-12.07 -254.57,-16.55 -382.02,-20.91 -11.18,-1.6 -22.04,-4.94 -33.17,-6.79zm1150.01 114.97l0 0c-5.32,15.02 -11.22,29.81 -16.68,44.78 -3.09,9.76 -11.04,16.71 -17.99,23.79 -32.58,30.68 -70.11,55.43 -107.59,79.59 -24.14,15.66 -49.31,29.67 -73.86,44.67 21.99,-6.56 43.25,-15.41 64.42,-24.23 47.63,-20.25 93.71,-44.12 137.78,-71.29 6.86,25.99 1.62,53.92 -10.19,77.64 -15.18,31.14 -40.07,56.23 -66.7,77.79 -32.48,-5.92 -65.4,-16 -91.48,-37.01 10.91,25.99 29.9,49.03 54.59,62.93 25.69,14.56 57.07,16.82 85.35,9.26 40.84,-10.63 77.99,-31.82 113.26,-54.45 17.62,-12.07 35.95,-23.52 51.72,-37.97 -43.86,25.72 -92.27,43.2 -141.81,54.24 25.79,-24.64 47.91,-55.29 54.52,-90.99 5.69,-28.6 0.16,-58.86 -13.99,-84.23 35.43,-24.78 70.58,-50.61 101.05,-81.35 -40.75,-4.44 -82.63,-3.82 -122.4,6.83zm-832.17 52.67l0 0c-25.3,36.73 -49.85,74.01 -72.62,112.39 -18.31,31.47 -36.55,63.17 -50.38,96.91 17.97,8.57 35.18,18.79 53.47,26.59 12.48,-2.91 24.41,-7.87 36.48,-12.07 47.68,-17.99 93.99,-39.55 139.02,-63.39l-0.55 -1.09c-62.4,19.04 -126.95,30.19 -191.37,39.88 8.32,-11.86 18.59,-22.22 27.73,-33.46 11.06,-12.46 21.14,-25.85 32.73,-37.78 58.59,-23.14 114.91,-51.55 170.75,-80.6 -20.94,-15.89 -42.29,-31.16 -63.32,-46.9 -3.93,-3.78 -9.62,-2.75 -14.54,-2.79 -22.44,1.03 -44.93,1.19 -67.4,2.31zm213.49 -1.54l0 0c-29.79,57.67 -51.55,119.66 -63.14,183.6 -0.68,5.09 -2.65,10.56 -0.06,15.47 4.43,11 8.96,21.94 13.44,32.94 61.03,-39.64 120.29,-82.01 177.37,-127.13 33.9,-27.18 67.22,-55.39 96.44,-87.69 -15.89,-4.93 -31.34,-11.81 -47.46,-15.63 -30.05,37.9 -65.12,71.41 -101.16,103.54 -28.46,25.03 -57.22,49.83 -87.53,72.6 8.94,-59.02 37.58,-113.31 72.3,-161.15 -20.04,-5.6 -40.16,-10.9 -60.2,-16.55zm260.8 7l0 0c-29.67,66.24 -68.94,128.23 -116.41,183.11 11.79,14.63 26.31,27.25 39.2,41.05l1.67 0.53c16.75,-6.38 32.55,-14.97 48.52,-23.06 31.5,-17.51 62.59,-36.83 88.58,-62.04 -37.72,21.03 -78.27,37.37 -120.83,45.37 25.12,-24.57 47.02,-52.16 67.71,-80.5 22.1,-30.63 43.13,-62.08 62.56,-94.5 -21.47,-4.7 -42.86,-9.6 -64.28,-14.37 -3.84,-2.45 -5.69,1.69 -6.72,4.41zm-1013.13 268.12l0 0c-6.38,-4.09 -0.85,7.61 0,0zm825.65 -406.64c49.93,-13.62 89.86,-50.88 117.95,-93.14 -3.34,19.22 -14.7,36 -28.39,49.46 -21.1,19.96 -47,34.29 -73.97,44.69 -5.07,2.26 -10.44,-0.32 -15.59,-1.01zm125.95 -48.5c5.76,-11.11 13.94,-21.6 25.62,-26.86 -11.11,11.86 -18.37,26.61 -24.64,41.44 -8.36,20.16 -14.54,41.15 -19.95,62.24 -2.38,-1.19 -4.76,-2.37 -7.13,-3.54 7.86,-24.69 14.01,-50.19 26.1,-73.28zm257.81 68.39c12.41,-25.01 25.94,-49.69 43.57,-71.48 21.6,2.7 43.17,5.56 64.73,8.51 -19.75,3.59 -39.66,6.4 -59.55,9.21 -19.68,29.6 -34.33,62.15 -49.6,94.15 -32.04,69.28 -61.3,139.82 -89.74,210.65 11.16,-41.53 24.62,-82.42 38.59,-123.08 15.27,-43.46 31.86,-86.52 52,-127.96zm-134.38 -29.56c-1.6,-13.16 -1.05,-29.41 11.2,-37.53 -2.93,7.48 -6.47,15.18 -5.62,23.43 0.45,9.67 4.8,19.96 0.18,29.24 -4.3,8.43 -13.35,12.64 -22.04,15.01 1.19,6.45 2.77,13.4 -0.36,19.62 -4.85,9.73 -14.93,16.75 -16.32,28.13 -1.74,11.16 5.55,21.08 12.62,28.89 8.54,9.54 18.76,17.28 28.87,25.08 -17.19,-7.43 -35.32,-17.19 -44.03,-34.61 -7.54,-15.82 -1.51,-33.87 6.72,-48.14 6.52,-10.81 5.12,-23.9 2.01,-35.54 5.37,1.26 10.02,4.12 13.42,8.48 9.28,-2.63 15.34,-12.62 13.35,-22.06zm-1027.1 -16.64c58.88,0.67 117.76,2.22 176.62,3.25 1,-0.89 3.01,-2.72 4.02,-3.64 6.74,1.24 13.26,3.37 19.98,4.69 10.24,1.76 20.68,1.12 31.04,1.55 98.28,2.91 196.76,6.89 294.68,15.02 2.24,0.6 4.5,1.24 6.76,1.88 -6.03,-0.94 -12.04,-2.68 -18.21,-2.38 -12.87,0.64 -25.72,-0.89 -38.57,-1.14 -156.48,-6.54 -313.03,-9.74 -469.6,-11.18 0.34,8.14 0.84,16.3 -0.14,24.43 -1.69,-10.92 -4.14,-21.71 -6.58,-32.48zm46.49 378.07c63.63,-111.89 127.93,-223.44 191.86,-335.16 93.49,4.3 187.03,7.98 280.51,12.59 -26.72,28.35 -58.28,51.45 -89.42,74.63 -79.08,57.47 -161.32,110.4 -243.93,162.63 -46.13,28.78 -92.07,57.9 -139.02,85.31zm1284.68 -265.4c18.79,-6.2 38.95,-6.81 58.54,-8.8l0.16 0.94c-16.52,3.56 -32.66,8.64 -48.85,13.44 -6.53,12.45 -12.61,25.14 -18.67,37.85 -3.36,7.61 -9.9,13.03 -15.95,18.47 -21.79,18.83 -45.31,35.54 -68.87,52.07 15.4,-13.49 32.18,-25.33 47.52,-38.91 9.14,-8.27 19.15,-16.02 26.21,-26.26 7.43,-15.91 12.6,-32.85 19.91,-48.8zm-689.7 27.29c10.58,3.61 20.37,9.08 30.52,13.71 -0.81,1.95 -1.56,3.94 -2.31,5.93 -9.51,-6.38 -18.91,-12.96 -28.21,-19.64zm-26.7 13.71c15.18,9.08 29.49,19.48 44.35,29.01 -1.08,2.58 -2.06,5.21 -3,7.86 -13.94,-12.09 -27.66,-24.48 -41.35,-36.87zm-119.93 10.24c23.36,-0.52 46.72,-1.57 70.08,-2.26 12.8,10.56 26.42,20.07 39.02,30.86 -11.98,-6.9 -23.29,-14.88 -34.97,-22.24 -3.66,-2.97 -8.51,-2.35 -12.87,-2.4 -18.29,0.21 -36.58,-0.09 -54.86,0.09 -3.15,-0.48 -4.39,3.09 -6.13,4.98 -16.82,23.98 -33.76,47.91 -50.81,71.75 16.25,-27.29 33.65,-53.87 50.54,-80.78zm212.78 0.96c12.16,2.79 24.11,6.5 35.93,10.54 -10.33,1.05 -21.42,-2.03 -31.22,0.53 -21.01,33.94 -35.2,71.54 -47.86,109.23 -4.14,13.19 -8.71,26.29 -11.68,39.82 0.66,-9.32 3.65,-18.22 5.78,-27.24 11.77,-45.77 26.19,-91.3 49.05,-132.88zm175.75 2.43c8.44,2.67 16.96,5.07 25.12,8.55 -8.34,0.04 -16.71,0.09 -25,0.98 -25.31,31.73 -55.78,58.9 -86.34,85.42 -10.83,8.78 -20.93,18.53 -32.68,26.1 41.07,-38.86 82.67,-77.51 118.9,-121.05zm65.12 47.4c8.53,-15.33 15.39,-31.61 23.23,-47.2 13.32,2.88 26.65,5.95 39.7,9.83 -10.79,0.73 -21.6,0.05 -32.39,0.41 -26.03,54.7 -61.81,104.44 -102.65,149.01 26.06,-36 51.02,-72.89 72.11,-112.05zm-463.3 42.13c19.39,-22.99 39.07,-45.76 58.79,-68.48 10.04,2.97 20.19,5.6 30.34,8.21 -5.67,7.56 -14.13,12.34 -21.45,18.14 -21.71,15.3 -44.06,29.9 -67.68,42.13zm276.44 -45.39c1.85,-3.04 3.77,-6.04 5.65,-9.06 7.36,4.12 14.81,8.12 22.28,12.05 -2.58,2.72 -5.12,5.51 -7.61,8.32 -6.81,-3.73 -13.57,-7.5 -20.32,-11.31zm-19.84 40.16c2.24,-5.44 4.92,-10.66 7.54,-15.89 3.91,2.72 7.8,5.46 11.71,8.25 -3.91,4.12 -7.91,8.16 -11.66,12.41 -1.69,-1.05 -5.1,-3.17 -6.79,-4.23 -0.2,-0.13 -0.61,-0.41 -0.8,-0.54z"/>
   <path class="fil1" d="M1037.97 368.28c13.62,-11.98 28,-23.91 45.32,-30.06 -4.02,3.86 -8.09,7.7 -11.38,12.23 12.96,-0.25 26.45,1.28 37.85,7.95 -4.87,7.78 -9.55,15.68 -12.57,24.39 7.84,-1.6 15.93,-2.3 23.77,-0.2 -8.16,4.8 -18.38,4.78 -26.17,10.56 -34.7,21.92 -55.68,59.56 -69.92,96.98 -2.42,-17.39 -2.9,-36 -12.16,-51.5 3.27,-2.9 6.35,-6.01 9.17,-9.34 -3.98,-1.42 -7.85,-3.04 -11.55,-5.03 -1.16,12.39 -3.02,24.68 -3.98,37.1 -2.65,-14.41 -1,-29.29 -2.37,-43.87 5.09,-2.4 3.43,-9.05 5.78,-13.39 6.61,-13.83 16.98,-25.54 28.21,-35.82zm-440.06 526.11c16.83,-0.23 33.67,0 50.49,-0.14 0.49,1.35 1.47,4.03 1.95,5.37 0.46,8.26 3.4,16.05 5.62,23.96 4.02,14.38 8.12,28.75 11.98,43.18 -12.03,0.15 -23.85,0.05 -35.89,0.66 -0.82,-4.7 -1.36,-8.95 -1.73,-13.69 -4.78,0.02 -9.56,0.04 -14.34,0.09 -0.57,4.27 -1.12,8.57 -1.67,12.87 -10.3,0.27 -20.64,-0.09 -30.94,0.52 -1.42,0.07 -4.28,0.21 -5.72,0.3 6.45,-24.46 13.76,-48.68 20.25,-73.12zm-96.23 0.3c27,-0.89 54.06,-0.19 81.08,-0.37 -0.44,4.05 -0.88,8.11 -1.3,12.16 -7.23,0.05 -14.47,-0.43 -21.63,0.67l-0.39 59.26 -34.79 0.37c0.44,-18.24 -0.13,-36.48 0.32,-54.7 0.07,-1.89 0.14,-3.77 0.23,-5.64 -8.66,0 -14.52,-0.32 -23.08,1.3 -0.14,-4.37 -0.28,-8.73 -0.44,-13.05zm-50.22 -0.05c12.28,-0.68 24.58,-0.3 36.87,-0.27 -0.91,20.16 -0.62,40.04 -0.5,60.2 1.26,-0.13 3.77,-0.38 5.03,-0.5 5.49,-0.52 11.02,-0.39 16.53,-0.34 -0.03,0.96 -0.07,2.9 -0.1,3.88 -0.09,2.93 -0.16,5.88 -0.2,8.83 -17.51,1.14 -35.06,-0.28 -52.55,0.82 -1.21,0.07 -3.64,0.21 -4.85,0.28 -0.2,-24.3 0.25,-48.62 -0.23,-72.9zm-75.79 -0.34c21.28,-0.07 42.58,0.09 63.89,-0.09 0.16,5.31 -0.1,7.91 -0.76,13.19 -8.84,-0.03 -17.71,0.04 -26.56,0.2 0,5.17 -0.02,10.33 -0.04,15.52 6.92,-0.27 13.82,-0.3 20.75,-0.18 -0.3,4.11 -0.62,8.23 -0.89,12.34 -6.63,0.12 -13.26,0.21 -19.89,0.25 0.07,6.4 0.12,12.83 0.21,19.27 1.07,-0.18 3.2,-0.57 4.27,-0.75 7.66,-0.8 15.39,-0.23 23.09,-0.23 -0.32,4.35 -0.61,8.7 -0.89,13.05 -19.09,0.28 -38.2,-0.57 -57.24,0.48 -1.51,0.02 -4.48,0.09 -5.96,0.12 0.04,-24.39 0,-48.78 0.02,-73.17zm-101.08 -0.07c19.8,0.16 39.59,0 59.36,0.05 7.8,-0.21 15.46,2.99 20.71,8.75 6.36,12.75 4.48,27.43 4.25,41.19 0.14,12.02 -10.72,21.9 -22.42,22.31 -20.59,1.25 -41.17,-0.34 -61.96,0.98 0.04,-24.43 -0.1,-48.85 0.06,-73.28zm36.58 14.7c0.02,14.91 -0.53,29.83 0.36,44.73 1.28,-0.71 3.82,-2.17 5.08,-2.9l0.5 2.56c1.51,-1.15 4.52,-3.41 6.03,-4.55 1.37,-11.73 0.03,-23.64 0.6,-35.43 -2.27,-5.19 -8.09,-3.96 -12.57,-4.41zm311.77 -4.44c-1.94,12.48 -3.63,24.99 -5.07,37.54 1.37,-0.3 4.11,-0.9 5.48,-1.19 1.22,0.13 3.66,0.41 4.87,0.55 -1.56,-11.38 -2.08,-26.73 -5.28,-36.9zm754.87 496.24c11.02,-16.02 21.08,-32.69 32.53,-48.39 5.74,11.41 12.43,22.38 20.62,32.23 -30.43,44.91 -59.05,91.11 -90.29,135.43 0.25,-21.87 1.92,-43.72 2.56,-65.6 10.4,-18.58 23.27,-35.64 34.58,-53.67zm-167.93 7.86c34.26,-19.52 69.58,-37.21 104.27,-55.93 -0.11,10.49 -0.48,20.98 -1.57,31.43 -27.55,14.33 -54.84,29.12 -82.31,43.59 -6.72,-6.45 -13.49,-12.85 -20.39,-19.09zm-412.21 -21.35c41.55,-16.96 82.49,-35.42 124.36,-51.52 -1.51,9.83 -3.49,19.61 -6.63,29.1 -52.34,21.44 -104.39,43.64 -156.62,65.4 -8.61,-5.1 -17.21,-10.22 -25.85,-15.29 21.17,-10.18 43.23,-18.31 64.74,-27.69zm218.42 -3.01c39.25,-28.8 77.63,-58.82 117.42,-86.84 5.17,4.12 10.36,8.21 15.63,12.18 -3.38,7.94 -7.29,15.68 -12.25,22.77 -50.21,36.78 -99.84,74.38 -149.83,111.48 -5.16,-8.53 -10.1,-17.19 -15.27,-25.72 14.06,-12.2 29.63,-22.47 44.3,-33.87zm750.19 -76.67c21.71,-6.47 43.08,-14.08 64.59,-21.21l0 1.46c-37.6,38.22 -74.93,76.69 -112.34,115.11 -4.19,3.98 -9.65,6.15 -14.79,8.58 -28.41,12.59 -58.91,20.09 -89.74,23.45 -39.52,3.84 -81.31,2.65 -117.69,-14.95 59.13,10.17 121.19,2.35 175.98,-22.08 10.3,-4.09 17.32,-12.96 25,-20.53 17.08,-17.96 34.54,-35.59 51.89,-53.28 5.39,-5.8 10.83,-11.63 17.1,-16.55zm-728.77 -36.5c2.19,-8.18 4.78,-16.53 10.74,-22.84 1.69,1.06 5.1,3.18 6.79,4.23 -5.46,6.56 -11.09,13.01 -17.53,18.61zm-738.69 157.03c144.9,-62.17 286.38,-132.57 421.45,-214.01 -5.81,15.31 -12.78,30.24 -20.39,44.73 -138.77,78.9 -282.86,148.41 -430.89,208.14 -22.15,8.48 -45,14.99 -67.54,22.4 19.73,-15.36 40.57,-29.24 60.25,-44.66 11.8,-6.77 24.76,-11.04 37.12,-16.6zm763.12 -210.75c1.6,-3.38 3.41,-6.65 5.35,-9.82 6.75,3.81 13.51,7.58 20.32,11.31 -2.37,2.63 -4.8,5.21 -7.31,7.73 -5.97,-3.39 -12.12,-6.4 -18.36,-9.22zm22.2 -37.73c3.77,-7.02 8.52,-13.44 13.83,-19.36 10.83,5.5 22.31,9.64 34.15,12.45 -4.78,5.76 -9.97,11.18 -15.61,16.12 -10.89,-2.74 -21.7,-5.76 -32.37,-9.21zm658.55 -47.5c12.25,-11.64 23.65,-24.18 36.73,-34.93 12.64,1.37 25.37,2.72 37.64,6.2 -1.23,3.79 -4.77,6.19 -7.33,9.07 -29.51,28.62 -58.75,57.51 -88.39,86.01 14.56,27.43 18.21,60.14 9.78,90.09 -14.74,5.8 -29.85,10.67 -45.1,15.06 6.2,-14.2 12.44,-28.62 14.27,-44.14 4.18,-25.03 -2.31,-50.47 -13.26,-72.96 18.42,-18.26 37.19,-36.21 55.66,-54.4zm-358.04 -21.83c5.66,-6.22 11.31,-12.55 17.83,-17.87 -9.65,19.22 -18.25,39.04 -28.69,57.87 -1.33,-13.94 1.67,-29.07 10.86,-40zm-1062.44 -45.97c31.2,-1 62.42,-0.11 93.64,-0.48 -1.67,4.32 -3.36,8.62 -5.16,12.87 -28.55,-0.32 -57.1,0.05 -85.67,-0.18 -0.94,-4.07 -1.85,-8.14 -2.81,-12.21zm640.53 -51.04c5.56,0.03 11.11,-0.09 16.67,-0.25 -2.66,7.8 -12.44,7.22 -18.06,11.98 0.46,-3.91 0.91,-7.82 1.39,-11.73zm-0.34 -7.38c-1.08,-5.14 1.14,-9.69 6.31,-11.22 6.03,4.41 -2.06,9.62 -6.31,11.22zm531.62 190.91c46.49,-72.83 91.82,-146.48 138.88,-218.93 12.6,2.05 25.21,3.93 37.78,6.03 -38.49,60.76 -77.09,121.44 -115.17,182.45 -7.75,8.09 -18.15,12.73 -27.23,19.09 -14.47,9.02 -28.13,19.4 -43.36,27.17 2.74,-5.41 5.78,-10.72 9.1,-15.81zm-575.76 -213.11c-6.97,-6.33 -5.26,-17.18 -0.27,-24.18 1.73,5.12 1.94,11.84 7.27,14.81 4.27,2.75 9.5,0.03 14.08,-0.48 1.41,4.92 1.64,10.7 5.32,14.61 3.29,1.53 7.02,2.24 10.1,4.27 0.74,7.13 -3.79,13.26 -7.63,18.82 -1.3,-9.51 -5.74,-18.06 -8.48,-27.11 -6.7,0.27 -14.58,4.23 -20.39,-0.74zm-108.18 -47.77c-0.03,-0.66 -0.09,-2.01 -0.14,-2.67 18.9,15.72 38.9,30.08 58.77,44.53 6.44,4.91 13.8,8.7 19.17,14.9 -7.93,-0.3 -16.64,0.96 -23.93,-2.68 -20.73,-14.99 -37.96,-34.19 -53.87,-54.08zm105.16 -10.54c4.14,5.03 9.95,11.11 7.43,18.22 -4,4.21 -10.6,2.91 -14.95,-0.04 4.6,-5.05 6.59,-11.55 7.52,-18.18zm-190.92 -58.88c11.4,1.33 23.06,6.13 30.1,15.57 5.74,8.28 8.39,18.47 15.5,25.85 6.92,7.82 16.27,12.73 25.41,17.46 -13.67,-2.26 -27.08,-7.72 -37.94,-16.41 -8,-6.12 -9.97,-16.48 -13.9,-25.16 -3.75,-8.19 -12.27,-12.23 -19.17,-17.31zm220 -98.31c2.22,-2.53 4.18,-6.37 8.07,-6.28 1.96,1.48 3.72,3.2 5.55,4.87 -1.39,0.73 -4.16,2.17 -5.55,2.9 -1.31,9.81 -9.12,16.78 -11.64,26.1 -0.77,6.7 1.15,13.33 2.04,19.96 2.85,-0.6 5.74,-1.14 8.61,-1.72 2.11,14.95 -14.92,20.85 -19.63,33.19 -5.6,10.15 -0.87,21.28 1.9,31.43 3.31,17.26 1,34.97 -1.03,52.25 -3.54,-2.85 -6.93,-5.87 -10.81,-8.23 -7.64,-4.61 -17.56,-2.03 -24.99,-7.08 -6.49,-4.09 -9.71,-11.68 -16.09,-15.84 -5.07,-3.09 -10.65,0.71 -15.75,1.64 -4.61,1.58 -9.41,0.3 -13.92,-0.86 7.45,-8.3 17.4,-13.83 26.04,-20.78 3.7,4.96 6.9,10.38 11.38,14.72 4.5,2.58 10.38,2.28 14.33,6.01 4.16,2.99 8.07,8.23 13.9,6.74 5.51,-0.82 8.71,-6.19 9.44,-11.29 3.06,-10.44 -7.47,-17.8 -9.51,-27.36 -2.17,-5.19 0.76,-10.4 3.54,-14.67 5.42,-8.28 12.53,-16.09 14.38,-26.13 1.37,-12.37 -4.75,-24.27 -3.04,-36.64 0.96,-9.1 7.7,-15.84 12.78,-22.93zm37.12 -234.58c8.27,-1.99 18.56,-1.4 24.91,4.91 4.87,4.62 1.15,13.15 -5.3,13.56 -6.81,2.76 -7.75,-7.36 -13.53,-8.32 -4.11,-1.56 -10.74,-2.95 -9.19,-8.87 0.78,-0.32 2.33,-0.96 3.11,-1.28zm25.46 -19.59c8.23,-1.46 20.3,1.42 21.03,11.4 2.33,11.52 -6.12,22.29 -16.96,25.22 4.73,-6.56 10.68,-13.72 9.56,-22.38 -0.74,-7.43 -8.48,-10.29 -13.63,-14.24zm131.34 -75.04c11.2,-14.04 22.52,-28.07 34.49,-41.47 -6.88,15.46 -16.71,29.44 -24,44.69 -4.2,20.05 -4.57,40.8 -9.44,60.73 0.58,-21.32 -2.44,-42.72 -1.05,-63.95zm-75.15 -137.01c15.7,-9.65 34.83,-13.01 52.73,-8.25 -2.47,3.79 -6.45,6.08 -10.04,8.71 3.55,1.46 7.09,3.06 10.41,4.98 -4.53,1.9 -9.17,3.72 -12.99,6.86 4.53,3.43 9.51,6.53 12.55,11.49 -20.41,0.92 -43.45,-4.29 -60.91,9.26 -31.59,23.57 -43.39,63.18 -66.57,93.6 -5.6,7.11 -13.87,14.49 -23.61,12.92 -8.39,-2.04 -10.31,-11.55 -11.56,-18.81 6.1,2.97 13.16,7.58 20.02,3.88 7.36,-4.16 10.99,-12.39 14.45,-19.72 10.51,-24.87 18.01,-51.3 32.86,-74.11 10.5,-16.73 25.33,-31.04 43.55,-39.04 -0.23,2.06 -0.66,6.17 -0.89,8.23zm109.96 -4.87c8.07,-20.27 17.38,-40.07 27.11,-59.59 4.55,1.76 2.86,7.13 3.61,10.84 0.03,19.24 2.63,39.13 -4.09,57.64 -3.15,11.73 -10.26,22.27 -12,34.31 0.39,4.82 5.33,14.81 -1.76,16.23 -0.73,-4.94 0.23,-10.49 -3.13,-14.65 -2.72,-4.83 -8.46,-8.23 -8.59,-14.24 3.77,2.03 6.81,5.07 9.67,8.2 5.02,-13.66 11.58,-26.85 14.76,-41.14 3.38,-15.22 1.46,-30.83 0.98,-46.24 -8.59,16.41 -16.06,33.42 -22.97,50.58 -2.97,5.81 1.01,11.57 3.27,16.8 10.54,-8.32 9.69,-22.67 9.92,-34.72 0.94,0.51 2.86,1.53 3.8,2.04 0.7,13.89 -0.74,30.69 -14.47,38.06 -4.78,-6.84 -10.33,-15.66 -6.11,-24.12zm252.6 -217.1l0.78 0c-0.73,15.93 -1.81,31.84 -2.47,47.8 11.52,-13.88 22.61,-28.12 34.29,-41.88 1.67,50.9 -9.92,101.1 -24.12,149.65 -31.47,103.43 -81.85,200.05 -138.79,291.55 -5.62,14.49 -8.11,30.03 -12.5,44.93 16.34,5.92 32.73,11.73 49.05,17.69 25.46,-10.92 50.93,-21.89 76.37,-32.86 16.75,10.88 33.28,22.12 49.94,33.16 3.52,2.2 7.09,5.03 11.5,4.87 38.24,1.78 76.48,3.57 114.72,5.3 2.4,8.28 5.17,16.44 7.93,24.6 8.07,-0.48 16.12,-1.08 24.21,-1.56 13.99,58.43 27.66,116.9 41.76,175.28 -35.34,50.15 -71.43,99.79 -106.84,149.92 -17.85,-2.04 -35.61,-5.03 -53.28,-8.3 38.13,-52.34 77.08,-104.14 115.39,-156.37 3.4,-3.86 1.71,-8.96 0.8,-13.39 -3.32,-13.65 -6.38,-27.36 -9.97,-40.94 -8.68,-40.39 -19.06,-80.39 -27.84,-120.76 -59.75,5.54 -118.86,17.12 -176.64,33.17 -42.97,11.98 -85.17,26.86 -126.13,44.53 -12.14,5.53 -24.59,10.44 -36.05,17.35 17.97,-0.92 35.73,-4.12 53.7,-4.76 41.94,-0.82 83.75,-4.62 125.67,-6.44 35.24,-4.64 72.02,-1.9 105.23,11.42 27.32,12.3 52.62,30.91 69.67,55.82 8.69,11.59 4.37,26.91 0,39.32 -2.12,4.93 -5.69,12.78 -12.36,10.44 -0.09,-12.91 5.02,-25.87 1.55,-38.67 -3.82,-11.38 -14.47,-18.24 -24.57,-23.5 6.74,25.53 4.82,53.01 -5.17,77.44 -14.08,36.12 -38.15,67.52 -65.23,94.86 -4.44,3.75 -4.09,9.92 -6.01,14.95 -17.08,28.73 -29.03,60.21 -45.15,89.49 -3.7,-2.7 -7.4,-5.4 -11.13,-8.05 -0.04,-5.94 -0.23,-11.91 0.76,-17.78 9.98,-20.44 12.32,-43.57 11.13,-66.04 -5.31,6.17 -11.77,11.16 -19.25,14.43 -3.82,-7.75 -9.03,-14.7 -15.04,-20.85 0.6,-4.39 1.19,-8.78 1.81,-13.14 -4.6,2.42 -9.19,4.86 -13.76,7.31 -3.59,-1.07 -7.25,-1.96 -10.88,-2.72 21.94,-15.38 48.27,-25.26 65.78,-46.38 8.23,-9.67 13.55,-21.85 14.1,-34.6 1.03,-47.32 -13.85,-96.48 -47.24,-130.98 -5.31,-6.85 -14.61,-2.67 -21.79,-2.69 -42.58,3.38 -84.68,14.6 -127.63,11.29 -23.55,-0.07 -48.05,0.52 -70.18,9.39 -42.35,24.07 -81.67,53.21 -124.52,76.41 -18.24,9.54 -37.97,18.84 -59.07,17.49 -11.36,-0.18 -22.22,-3.82 -32.41,-8.48 -2.42,17.65 6.54,33.39 12.66,49.21 37.83,-29 77.12,-57.92 122.95,-72.94 -2.37,1.92 -4.75,3.82 -7.13,5.74 -39.43,26.1 -76.36,56.03 -110.81,88.37 1.19,7.27 1.9,14.58 2.31,21.94 2.06,20.8 -2.88,42.08 -14.74,59.39 1.21,0.84 3.63,2.51 4.86,3.36 0.74,2.49 1.49,4.98 2.24,7.47 3.78,-1.39 7.55,-2.81 11.32,-4.23 1.19,3.61 0.55,8.76 4.64,10.65 5.48,2.61 11.77,1.01 17.62,0.94 -1.96,9.83 -4.52,19.52 -7.56,29.07 23.06,5.01 46.12,9.95 69.25,14.7 5.15,0.69 10.52,3.27 15.59,1.01 26.97,-10.4 52.87,-24.73 73.97,-44.69 13.69,-13.46 25.05,-30.24 28.39,-49.46 7.09,-14.13 20.14,-24 32.64,-33.08 -17.24,-21.19 -33.07,-44.41 -40.8,-70.9 -4.23,-14.49 -5.26,-30.65 1.44,-44.6 2.79,29.38 7.31,61.35 28.05,83.98 -4.37,-22.69 -7.39,-46.26 -2.38,-69.12 2.86,-12.94 8.23,-25.92 18.24,-34.95 -7.89,24.55 -14.01,52.46 -2.65,76.96 1.69,-37.8 16.59,-77.53 49.09,-99.24 -14.9,26.33 -29.8,53.44 -35.45,83.52 -1.96,10.83 -2.35,22.1 0.25,32.89 4.64,-6.54 6.95,-14.38 11.09,-21.23 13.85,-24.42 34.01,-46.84 60.92,-56.78 -26.13,25.87 -54.86,55.13 -58.38,93.69 28.11,-24.09 55.56,-49.51 87.54,-68.46 -25.12,23.7 -51.91,46.04 -73.19,73.49 -6.51,8.98 -13.96,18.19 -15.61,29.51 29.78,17.3 43.02,51.68 48.8,84 -0.46,3.91 -0.94,7.79 -1.39,11.73 -1.69,-0.37 -3.36,-0.67 -5.03,-0.94 -3.64,-16.76 -10.74,-33.6 -23.98,-45.03 -12.14,-10.83 -30.58,-13.92 -45.58,-7.66 -11.68,5.26 -19.86,15.75 -25.62,26.86 -12.09,23.09 -18.24,48.59 -26.1,73.28 2.37,1.17 4.75,2.35 7.13,3.54 37.39,19.3 65.85,52.46 86.42,88.58l-3.47 -0.53c-4.46,-0.73 -8.89,-1.42 -13.31,-2.15 -0.84,1.12 -2.49,3.36 -3.31,4.5 -21.26,-27.31 -46.04,-52 -74.01,-72.43 -13.72,-9.62 -27.84,-19.54 -44.32,-23.73 -41.9,-11.43 -83.91,-22.42 -126.02,-33.09 -6.47,16.18 -15.59,31.04 -25.25,45.46 42.85,18.95 83.11,45.44 114.72,80.25 -9.85,-6.15 -19.71,-12.52 -30.7,-16.45 -6.93,-2.75 -14.88,-4.01 -20.21,-9.67 -21.05,-20.23 -48.29,-33.17 -76.55,-39.82 -2.3,3.52 -7.68,6.1 -7.08,10.83 22.1,10.7 46.74,15.71 67.82,28.71 18.74,10.47 31.04,28.92 48.98,40.53 -22.86,-5.03 -45.74,-10.42 -68,-17.6 -8.44,-9.92 -19.73,-19.77 -33.72,-18.33 1.99,3.74 4.07,7.42 6.15,11.15 -0.73,1.39 -2.21,4.18 -2.95,5.6 -15.47,-9.67 -31.17,-18.95 -46.56,-28.73 -6.67,4.23 -13.3,8.52 -20,12.68 9.35,6.56 18.59,13.31 28.14,19.57 9.3,6.68 18.7,13.26 28.21,19.64 -1.28,3.22 -2.72,6.37 -4.19,9.55 -19.95,-14.68 -40.2,-28.94 -59.84,-44.02 -5,2.28 -9.96,4.68 -14.88,7.2 7.91,7.2 15.89,14.35 24,21.34 13.69,12.39 27.41,24.78 41.35,36.87 -1.03,2.98 -2.03,5.95 -3.01,8.96 -26.75,-17.53 -51.64,-37.82 -77.88,-56.11 -9.01,-4.48 -19.68,-0.85 -29.35,-1.21 0.89,-3.93 1.17,-8.07 2.93,-11.71 6.14,-6.35 14.01,-10.72 21.16,-15.81 0.21,5.39 0.41,10.83 0.64,16.27 55.98,-28 104.51,-74.61 127.46,-133.53 -6.13,0.41 -12.28,0.93 -18.38,1.46 -0.69,-3.86 -1.35,-7.7 -2.04,-11.54 -6.28,1.83 -12.52,3.81 -18.69,6.03 1.44,-3.47 2.88,-6.95 4.32,-10.42 -2.68,-4.09 -5.31,-8.18 -7.91,-12.3 10.24,-13.58 20.3,-28.34 22.33,-45.69 2.08,-19.45 -1.6,-39.27 -9.17,-57.21 -8.43,-19.98 -11.95,-41.99 -10.3,-63.59 0.61,-12.67 17.66,-15.16 19.08,-27.55 2.06,-8.16 -3.09,-15.95 -9.26,-20.77 -8.04,-6.31 -18.72,-10.82 -29,-8.07 -8.6,2.51 -14.24,9.94 -20.23,16.07 -5.83,6.44 -13.46,12.64 -14.26,21.94 -1.9,18.7 3.56,37.88 -1.58,56.32 -2.54,8.78 -9.92,15.93 -19,17.56 -12.93,2.3 -26.1,-0.62 -38.53,-4.12 -14.45,-3.95 -27.11,-12.59 -41.72,-16.07 -14.28,-4.16 -29.51,-1.76 -43.79,-5.92 -17.6,-4.82 -34.45,-11.91 -51.09,-19.29 -8.46,-3.79 -17.44,-8.57 -21.6,-17.3 -8.3,-18.01 -14.9,-37.15 -27,-53.08 -3.93,-4.89 -9.73,-10.69 -16.64,-8.5 -6.1,1.21 -8.64,7.93 -9.09,13.46 -1.44,17.01 4.7,33.4 10.76,48.99 5.01,11.7 10.08,23.84 18.95,33.23 9.97,10.1 22.29,17.37 33.83,25.49 -9.05,-2.97 -17.87,-6.54 -26.86,-9.69 -6.26,-2.24 -12.8,-4.71 -17.23,-9.9 -8.37,-9.17 -11.29,-21.51 -15.16,-32.94 -1.55,-2.08 -1.05,-7.98 -4.75,-6.86 -3.75,10.2 -3.41,21.35 -3.61,32.07 -0.48,7.04 4.27,12.78 8.8,17.6 10.74,11 23.68,19.5 36.66,27.64 20.53,13.28 43.82,21.99 62.84,37.62 11.86,8.73 19.04,22.08 30.26,31.48 5.85,4.95 12.59,8.75 18.97,12.98 -18.67,-2.01 -39.86,-8.18 -49.96,-25.42 -7.43,-12.11 -17.38,-22.99 -30.4,-29.07 -22.93,-11.23 -44.87,-24.55 -64.42,-41.03 2.01,6.56 4.76,13.05 9.83,17.87 17.12,17.26 29.69,38.56 47.75,54.97 10.4,9.44 25.78,9.47 36.69,18.15 13.32,10.54 24.45,23.66 34.17,37.54 -6.47,0.02 -12.92,-0.37 -19.32,-1.35 -9.66,-10.43 -20.41,-20 -32.48,-27.55 -9.46,-6.03 -21.53,-6.03 -30.63,-12.71 -7.47,-5.64 -11.9,-14.1 -17.18,-21.6 -10.45,-14.6 -24.46,-26.19 -34.82,-40.84 -4.11,-5.81 -7.54,-12.67 -6.63,-19.98 -0.41,-4.89 2.06,-10.93 -2.05,-14.72 -6.4,-6.63 -13.24,-14.29 -13.15,-24.11 -1.92,-16.21 15,-29.06 9.95,-45.42 -5.31,-13.24 -6.06,-28.53 -0.3,-41.74 3.04,-6.7 8.64,-13.08 16.34,-14.04 9.97,-1.39 20.37,1.38 28.48,7.34 8.46,-5.23 16.83,-10.99 26.45,-13.94 6.77,-2.13 14.45,1.07 18.9,6.31 5.24,6.56 3.25,15.63 0.51,22.81 8.89,-4.12 18.65,-6.2 28.43,-4.82 2.17,-10.15 4.57,-20.39 4.39,-30.82 -1.17,-23.65 -14.88,-44.61 -15.34,-68.38 -9.14,-0.17 -19.59,0.84 -27.15,-5.33 -4.57,-3.7 -4.78,-9.92 -5.28,-15.27 -11.82,0.32 -30.31,1.1 -33.17,-14.01 -3.98,-8.3 -0.66,-16.98 -0.11,-25.58 -7.45,0.48 -14.43,3.18 -21.6,4.96 -5.99,1.46 -14.68,-1.48 -14.49,-8.84 -0.71,-10.79 9.41,-17.33 16.52,-23.64 -1.35,5.97 -2.49,12 -2.67,18.15 4.48,-2.97 8.09,-6.93 12.02,-10.54 7.84,-7.29 20.73,-8.2 29.78,-2.63 6.59,4.21 7.59,12.55 8.26,19.66 11.47,-5.05 26.6,-2.86 32.68,9.17 3.02,-6.11 7.02,-12.19 7.02,-19.25 1.48,-9.07 -9.81,-9.92 -13.78,-16.09 -5.06,-7.8 -14.91,-8.41 -22.54,-12.32 -7.96,-3.31 -15.61,-10.17 -15.8,-19.38 -0.73,-14.36 9.97,-26.54 22.22,-32.55 9.1,-5.05 19.82,-4.03 29.76,-5.67 -64.41,-81.12 -127.75,-163.25 -186.38,-248.67 55.66,27.27 112.67,52.98 173.05,67.86 -6.6,-16.29 -11.72,-33.6 -11.74,-51.31 -0.12,-2.97 2.92,-6.4 4.61,-2.26 7.75,11.01 16.23,21.6 26.95,29.92 -1.12,-8.69 -1.96,-17.44 -1.89,-26.22 10.6,15.34 21.35,31.11 36.61,42.24 3.16,2.36 7.16,2.93 10.84,4.09 15.52,-74.74 67.72,-141.44 137.94,-172.11 47.09,-20.6 100.67,-25.58 150.93,-15.25 57.01,11.82 108.41,48.07 138.61,97.88 33.65,-15.85 66.51,-33.33 98.7,-51.94 37.55,-22.1 74.6,-45.69 106.9,-75.13zm-177.39 125.49l0 0 1.12 -0.39c-11.69,5.01 -22.75,11.34 -34.25,16.71 -0.22,19.04 1.72,38.03 1.9,57.07 0.02,13.28 4.76,25.9 7.61,38.72 4.64,19.87 10.54,39.48 14.5,59.5 -2.61,16.35 -9.35,31.73 -13.54,47.71 -3.9,15.42 -10.42,30.21 -12.84,45.94 -0.57,30.29 4.43,60.32 5.48,90.56 13.49,-17.07 24.14,-36.21 36.12,-54.38 21.76,-35.66 43.45,-71.47 62.33,-108.75 28.09,-51.57 52.69,-105.17 72.48,-160.51 15.77,-45.26 28.55,-92.21 30.61,-140.34 -53.12,42.05 -111.71,76.59 -171.52,108.16zm-301.2 -77.4l0 0c-49.74,14.79 -92.09,50.63 -117.9,95.36 -24.61,42.7 -36.75,92.67 -34.44,141.88 4.61,-5.65 9.53,-11.22 16,-14.81l0.02 -0.78c6.33,-1.62 12.87,-2.33 19.11,-4.34 0.14,-11.64 -0.6,-23.36 1.37,-34.93 9.51,-61.23 43.31,-119.43 94.52,-155.04 37.71,-26.26 84.73,-37.49 130.35,-34.83 23.04,1.76 47.13,8.82 63.91,25.46 -17.37,-6.77 -35.47,-13.12 -54.42,-11.98 5.9,6.56 14.15,10.33 20.32,16.62 23.06,20.89 37.92,51.08 38.54,82.35 0.41,7.3 -1.26,15.46 3.72,21.6 11.64,17.86 6.52,40.67 -2.17,58.59 0.69,0.82 2.08,2.49 2.77,3.31 6.35,-3.88 12.25,-8.48 18.35,-12.75 2.45,-1.97 5.6,-3.77 6.13,-7.16 7.24,-27.38 25.83,-49.53 41.14,-72.64 -1.65,-7.91 -5.87,-15.08 -10.67,-21.48 -2.02,-6.61 -6.7,-11.94 -10.47,-17.56 -7.52,-9.99 -15.29,-20.14 -25.26,-27.82 -33.24,-33.21 -82.54,-46.74 -128.67,-42.72 -24.45,1.49 -49.3,4.83 -72.25,13.67zm-15.13 76.92l0 0c-34.1,45.69 -50.45,103.77 -47.8,160.53 0.58,4.98 -0.27,11.17 4.28,14.6 16.32,14.72 30.83,31.5 48.05,45.21 -1.12,-50.9 6.17,-104.82 35.63,-147.68 18.81,-28.09 50.84,-46.38 84.62,-48.18 9.05,-24.96 15.15,-52.19 9.65,-78.65 -1.63,-5.38 -1.76,-12.14 -5.74,-16.26 -51.09,0.48 -98.81,29.97 -128.69,70.43zm138.31 -60.69l0 0c0.73,4.21 1.35,8.39 1.83,12.64 1.35,-1.21 2.74,-2.4 4.18,-3.56 6.97,8.32 15.36,15.65 19.98,25.71 15.98,31.36 13.53,68.69 4.89,101.81 -11.31,4 -24.94,1.76 -32.82,-7.8 11.88,-33.23 18.65,-69.83 11.18,-104.82 -1.42,-3.66 -1.03,-11.55 -6.88,-9.88 3.15,22.91 -1.95,46.02 -9.33,67.62 -3.11,9.87 -7.68,19.38 -8.92,29.74 1.58,12.98 11.05,24.57 23.23,29.18 8.14,3 17.12,2.11 25.35,-0.11 7.36,-2.2 12.02,-9.23 13.94,-16.34 3.34,-13.01 2.72,-26.61 2.36,-39.91 -2.29,-33.79 -21.72,-64.78 -48.99,-84.28zm107.02 120.76l0 0c-7.02,12.16 -15.38,24.52 -16.69,38.86 -0.22,24.59 9.56,47.81 11.98,72.09 -17,2.97 -29.81,16.02 -37.97,30.49 6.61,-31.52 1.38,-66.52 -18.81,-92.28 12.19,-10.67 11.91,-28.61 6.06,-42.53 -2.95,5.18 -5.37,11.17 -10.61,14.49 -8.75,5.76 -19.77,5.87 -29.82,4.75 -13.97,-2.03 -25.22,-13.12 -30.13,-25.99 -3.5,-8.59 -0.62,-17.85 1.69,-26.33 -34.77,3.38 -63.22,28.64 -79.52,58.27 -24.94,45.14 -30.88,98.26 -28.25,149.07 -31.34,-26.17 -56.64,-59.27 -90.24,-82.88 -9.72,-6.24 -21.28,-12.71 -33.24,-9.74 -10.4,3.27 -20.25,10.93 -23.95,21.42 0.96,11.77 5.28,22.9 8.57,34.15 1.83,4.96 2.76,10.56 6.03,14.83 35.98,10.59 74.61,12.48 108.74,29.08 13.57,6.74 26.62,16.94 31.7,31.75 6.58,17.21 -2.17,36.73 6.26,53.51 4.12,8.41 12.96,12.66 21.42,15.52 1.01,4.46 1.14,9.03 0.55,13.55 -7.23,-8.39 -18.45,-5.99 -28,-4.39 -7.36,-2.74 -14.29,-10.4 -11.55,-18.74 5.61,-15.66 8.96,-32.64 5.67,-49.19 -1.76,-9.07 -8.02,-17.42 -16.93,-20.41 -21.01,11.09 -47.41,17.81 -69.99,7.41 -8.87,-3.59 -5.76,-14.38 -1.9,-20.65 -9.01,-0.59 -18.06,-1 -26.95,-2.62 20.27,-6.13 41.76,-4.8 62.65,-4.32 -15.13,-9.08 -33.44,-12.16 -50.86,-10.4 -6.1,0.77 -13.07,2.05 -16.89,7.4 -2.49,5.12 2.75,9.4 6.43,12.05 9.14,5.78 19.42,11.22 24.52,21.3 5.81,10.36 1.81,23.91 9.88,33.3 12.75,16.58 35.93,17.9 50.79,31.71 13.76,13.48 17.46,34.26 32.45,46.76 -4.45,-7.84 -9.19,-18.05 -3.13,-26.37 9.69,-6.91 20.69,1.85 31.04,1.66 14.97,0.53 26.68,-9.96 40,-14.85 10.61,-3.09 22.06,-5.12 30.72,-12.51 11.59,-8.64 13.06,-24.68 23.5,-34.28 7.09,-6.97 19.2,-8.48 27.64,-3.25 6.56,4.3 6.42,13.9 2.51,19.96 -5.17,8.39 -14.17,13.14 -21.03,19.93 -12.41,10.9 -16.66,28.57 -30.67,38.01 -8.37,6.77 -19.66,2.61 -29.35,5.03 -1.37,13.39 2.85,28.11 13.92,36.53 12.18,12.61 36.23,4.98 40.87,-11.32 4.2,-14.51 -1.4,-30.74 6.05,-44.48 7.66,-13.99 24.48,-21.42 29.06,-37.37 2.74,-11.11 1.21,-26.72 -11.07,-31.41 -12.02,-3.65 -27.38,-2.35 -35.79,7.98 -8.05,9.81 -11.13,22.99 -20.55,31.77 -4,3.96 -9.21,6.33 -14.42,8.25 5.53,-8.11 12.09,-15.56 16.55,-24.39 5.55,-10.56 11.01,-22.26 21.89,-28.34 11.59,-6.12 26.27,-6.56 38.11,-0.91 12.11,6.35 14.83,21.87 13.41,34.31 -1.02,13.89 -9.03,26.12 -18.85,35.54 -5.28,5.69 -12.99,10.77 -13.19,19.36 -1.26,12.34 -2.63,24.85 -0.99,37.23 18.36,-22.37 26.54,-51.15 44.53,-73.8 15.04,-18.7 31.7,-36.25 44.23,-56.85 7.34,-11.09 2.65,-24.98 4.43,-37.35 4.14,5.42 8.23,11.41 8.74,18.42 1.12,9.88 -3.32,19.46 -9.63,26.79 -15.4,17.42 -30.31,35.46 -42.58,55.23 22.45,-16.14 44.69,-32.64 68.18,-47.29 0.28,-14.43 1.47,-28.9 -0.77,-43.21 -3.52,2.34 -7,4.69 -10.52,7.05 1.08,-20.69 0.78,-41.49 -1.8,-62.06 -1.76,-12.37 -4.21,-25.51 -12.85,-35.11 7.18,-3.7 15.66,-8.05 17.56,-16.69 1.09,-8 0.95,-16.2 3.19,-24.02 3.75,-13.63 10.47,-26.7 10.38,-41.14 -0.27,-23.73 -3.88,-47.25 -6.26,-70.82 -8.66,14.52 -16.98,29.26 -26.15,43.48zm-598.41 -13.58l0 0c51.25,79 109.83,152.89 169.9,225.28 2.61,-3.38 4.69,-7.22 8.09,-9.89 0.64,0.77 1.9,2.35 2.54,3.15 0.98,5.62 0.25,11.29 -2.08,16.5 8.94,9.95 16.23,21.79 27.63,29.19 6.24,4.78 8,12.96 13.21,18.61 10.86,12.18 21.38,24.73 32.65,36.57 0.27,-4.07 1.46,-8.2 0.84,-12.27 0.66,-22.31 -11.61,-41.9 -24.07,-59.36 16.32,0.61 32.41,6.94 44.73,17.66 13.31,11.78 19.89,30.25 18.18,47.8 -1.08,9.39 -8.39,16.25 -14.68,22.63 -1.8,1.99 -3.54,4.02 -5.28,6.08 7.29,7.54 13.95,15.66 21.28,23.15 3.48,1.95 3.61,-3.15 4.87,-5.12 3.13,-7.86 2.86,-16.36 3.68,-24.64 1.05,-0.09 3.13,-0.27 4.16,-0.39 8.23,15.39 11.45,32.94 13.44,50.09 0.71,3.52 -0.75,8.04 2.17,10.83 24.05,26.19 48.8,51.75 73.4,77.42 2.4,2.15 4.66,5.39 8.55,4.39 12.57,1.5 24,8.96 30.51,19.81 -6.88,-0.27 -13.69,-1.25 -20.52,-1.94 3.79,7.04 6.85,14.97 5.21,23.11 -1.1,10.97 -9.24,19.06 -16.42,26.65 3.5,2.49 7.55,4 11.8,4.66 15.22,2.54 31.11,2.11 46.01,-2.24 31.34,-8.54 59.16,-26.33 84.89,-45.66 27.48,-20.67 58.38,-36.14 89.97,-49.4 42.72,-18.08 83.84,-39.66 125.44,-60.14 18.79,-9.78 39.78,-13.71 59.62,-20.8 18.63,-6.58 37.83,-12.43 54.9,-22.6 -0.46,-2.27 -1.78,-3.75 -4,-4.44 -12.96,-9.99 -26.49,-19.22 -39.7,-28.84 -32.62,19.65 -65.4,39.08 -97.97,58.81 -45.19,26.44 -89.58,54.4 -135.02,80.41 4.89,-6.1 11.29,-10.65 17.26,-15.57 32.59,-26.79 65.07,-53.71 97.58,-80.59 5,-4.39 12.8,-0.62 18.05,-4.57 4.03,-2.61 7.75,-5.63 11.5,-8.6 -0.57,-0.11 -1.71,-0.36 -2.29,-0.5 -11.56,-5.87 -23.33,-11.54 -35.42,-16.25 -22.4,23.06 -45.06,45.85 -67.62,68.75 -20.61,20.55 -40.5,41.99 -61.96,61.7 25.42,-37.86 52.41,-74.7 78.37,-112.21 3.75,-6.7 12.81,-2.84 19.02,-4.02 0.25,-7.25 -6.51,-11.18 -9.67,-16.9 -3.61,-5.94 -3.74,-13.12 -3.88,-19.86 -32.32,52.73 -66.38,105.12 -109.56,149.76 -16.91,16.89 -35.47,33.31 -58.12,41.85 -17.7,6.59 -37.97,2.43 -52.85,-8.75 -10.01,-7.68 -20.25,-17.19 -22.74,-30.12 5.44,4.43 9.71,10.07 14.58,15.1 11.31,11.09 25.94,20.48 42.38,20.07 20.2,-0.57 37.48,-13.76 49.78,-28.84 -15.63,-21.17 -31.59,-42.11 -47.27,-63.23 -2.58,-4 -7.36,-0.29 -10.9,0.03 -0.78,17.98 -7.11,35.26 -16.23,50.62 -3.18,5.08 -5.94,10.95 -11.64,13.67 -0.02,-4.16 -0.32,-8.45 1.54,-12.29 6.9,-16.21 14.17,-32.55 16.61,-50.15 -12.75,3.06 -27.59,6.6 -39.31,-1.35 -13.15,-8.85 -13.6,-26.86 -24.8,-37.35 -8.76,-9.21 -21.95,-12.5 -30.26,-22.17 -8.6,-9.53 -13.17,-21.76 -20.51,-32.14 -13.85,-18.04 -40.25,-19.13 -53.94,-37.21 -6.95,-8.71 -7.98,-20.09 -10.81,-30.45 -1.65,-6.67 -7.11,-11.31 -12.05,-15.66 -17.58,-14.65 -37.42,-26.28 -55.16,-40.73 0.39,-0.91 1.19,-2.72 1.58,-3.63 -5.05,-4.48 -9.96,-9.12 -15.06,-13.53 4.64,0.13 9.12,-1.01 13.44,-2.7 5.48,-0.3 10.88,1.19 16.27,1.87 -6.28,-18.53 -11.72,-37.37 -14.81,-56.73 -22.58,-12.11 -42.33,-30.01 -54.81,-52.55 -21.44,-7.2 -43.64,-11.89 -65.1,-19.04 -30.22,-12.43 -60,-25.97 -89.12,-40.8zm141.78 4.8l0 0c0.85,5.07 1.65,10.15 2.5,15.25 0.77,-0.55 2.33,-1.63 3.11,-2.18 15.52,20.99 37,39.85 63.43,44.58 0.68,-4.26 1.32,-8.51 2.01,-12.73 -28.3,-5.26 -54.2,-21.58 -71.05,-44.92zm3.91 17.53l0 0c6.72,36.5 32.78,68.05 65.24,85.4 -1.42,-9.31 -1.07,-18.7 -1.37,-28.05 -2.29,-2.01 -5.88,-1.6 -8.64,-2.65 -23.66,-5.81 -42.08,-25.14 -51.07,-47.25 -1.37,-2.44 -1.3,-6.26 -4.16,-7.45zm488.22 44.07l0 0c-3.55,11.09 -6.95,22.36 -7.16,34.1 -0.27,9.58 -5.19,18.04 -10.81,25.47 9.17,21.78 8.92,45.78 10.33,68.94 1.65,-3.89 3.09,-7.89 3.96,-12.03 4.61,-20 10.88,-39.61 14.92,-59.7 -3.06,-19 -5.71,-38.29 -11.24,-56.78zm-347.69 160.53l0 0c13.19,6.19 28.53,2.9 42.27,0.27 -8.37,-5.07 -16.35,-11.31 -20.62,-20.36 -6.08,-0.07 -12.25,-0.34 -18.24,0.84 -7.75,2.31 -11.64,15 -3.41,19.25zm27.75 -19.75l0 0c4.92,8.73 13.78,15.29 23.8,16.62 -2.98,-6.75 -11.04,-9.81 -13.67,-17.15 -3.39,0.14 -6.75,0.32 -10.13,0.53zm16.48 0.62l0 0c2.68,4.34 13.51,14.6 13.51,3.91 -4.39,-1.67 -8.89,-3.07 -13.51,-3.91zm-180.12 27.65l0 0c-17.02,0.23 -35.52,13.77 -35.54,31.82 0.32,9.79 10.04,14.54 17.99,17.44 11.68,4.57 25.92,8.03 32.02,20.21 4.67,9.48 0.51,19.59 -2.79,28.71 6.38,-4.05 13.49,-7.8 17.49,-14.49 5.49,-8.41 4.59,-20.78 -2.97,-27.68 -8.48,-8.94 -23.41,-9.97 -28.92,-21.92 -4.71,-7.3 -4.73,-20.07 4.99,-23.14 9.39,-3.31 19.56,-7.86 23.22,-17.96 -8.11,3.54 -16.43,7.2 -25.49,7.01zm1.17 17.13l0 0c-3.29,3.81 -1.12,8.98 -0.73,13.37 8.52,-6.97 17.92,-13.03 28.96,-14.97 -2.42,-2.88 -4.82,-5.81 -7.16,-8.76 -6.4,4.73 -14.28,6.47 -21.07,10.36zm88 1.02l0 0c8.62,13.88 16.57,28.83 17.99,45.38 1.62,15.13 -1.17,31.63 -11.5,43.33 -7.47,8.3 -21.05,12.3 -31.06,6.36 -7.25,-6.88 -4.11,-17.78 -2.72,-26.45 3.95,-16.36 4.11,-35.06 -5.42,-49.58 -5.53,-8.59 -15.81,-12.34 -25.69,-12.38 5.35,5.89 11.2,11.61 14.58,18.97 5.19,10.15 5.15,22.03 3.52,33.05 -1.69,10.29 -8.22,18.65 -13.07,27.57 -3.91,6.46 -0.85,14.08 1.92,20.34 5.05,11.11 11.02,22.7 9.6,35.31 -0.32,5.24 -1.6,13.15 -8.37,13.1 -13.03,-3.54 -18.03,-17.37 -24.84,-27.5 0.91,10.06 1.28,20.32 4.57,29.99 5.71,17.9 13.21,36.21 10.9,55.41 -1.14,14.65 -6.88,28.52 -7.43,43.25 -0.75,8.66 5.05,15.84 10.27,22.1 12.06,13.35 26.83,23.93 41.51,34.24 7.17,5.78 16.86,5.44 25.12,8.78 10.81,4.93 22.53,0.09 33.71,-0.6 -4.23,-14.99 -7.11,-30.79 -4.37,-46.33 2.63,-18.15 12.74,-33.78 20.76,-49.87 11.02,-22.04 16.07,-46.82 15.45,-71.41 -0.3,-19.22 -1.58,-39.27 -9.3,-57.05 -1.92,10.17 -5.17,20.84 -13.24,27.86 -5.64,5.39 -13.53,6.86 -21.07,6.26 0.89,6.04 2.79,12.32 0.91,18.36 -2.99,10.99 -14.67,18.01 -15.08,29.89 0.73,6.47 9.44,7.57 13.48,3.48 4.37,-3.38 2.54,-9.46 2.91,-14.15 3.4,0.66 7.49,0.21 10.26,2.79 4.27,3.54 4.41,9.46 5.05,14.54 0.78,7.72 3.7,15.22 3.18,23.08 -0.55,10.77 -6.24,20.23 -10.91,29.67 -6.44,12.94 -12.82,26.42 -14.1,41.01 -0.89,8.98 1.67,17.78 4.53,26.22 -13.63,-0.23 -27.59,1.34 -41.03,-0.71 -12.41,-8.64 -24.85,-19.07 -30.86,-33.33 -4.14,-16.02 2.17,-33.51 -4.57,-49.1 -3.06,-7.47 -9.46,-13 -12.41,-20.5 -0.16,-6.81 0.98,-13.62 2.4,-20.28 0.89,0 2.65,-0.02 3.54,-0.02 5.55,9.42 12.11,23.64 25.6,20.34 2.22,-14.26 -15.29,-24.7 -8.62,-38.76 5.38,-10.7 17.05,-19.57 15.43,-32.76 -0.98,-7.06 -8.66,-9.14 -13.94,-12.23 6.49,-1.64 13.28,-3.86 20.02,-2.35 4.92,1.1 8.46,5.65 8.78,10.61 0.94,12.77 -6.72,24.04 -7.91,36.52 3,6.49 13.33,2.88 15.93,-2.44 4.35,-9.99 2.95,-21.47 1.53,-31.93 -1.21,-7.94 -7.26,-13.56 -12.09,-19.43 9.15,0.23 18.61,1.69 26.15,7.26 -0.3,-8.54 0.14,-17.53 4.5,-25.14 4.71,-9.3 13.74,-15.27 19.55,-23.77 5.76,-9.12 3.04,-20.64 0.36,-30.36 -6.05,-19.72 -25.19,-32.04 -44.41,-36.64zm255.62 9.95l0 0c2.21,2.31 4.45,4.57 6.76,6.81 4.53,-4.3 9.12,-8.5 13.49,-12.99 -7.48,-1.3 -14.49,1.65 -20.25,6.18zm10.6 10.42l0 0c2.45,2.4 4.92,4.85 7.39,7.27 4.57,-5.76 8.38,-12.57 6.56,-20.21 -5.06,3.87 -9.56,8.37 -13.95,12.94zm105.83 5.03l0 0c-1.99,29.17 -4.61,58.31 -6.24,87.52 9.65,-12.64 17.95,-26.33 26.43,-39.75 -0.51,-20.98 -9.92,-40.73 -9.54,-61.92 -4.73,3.54 -11.01,7.34 -10.65,14.15zm-119.93 -10.97l0 0c-1.85,2.95 -3.68,5.89 -5.51,8.84 1.51,1.47 3.11,2.79 4.82,4 2.68,-1.73 4.87,-4.13 6.82,-6.65 -1.77,-2.33 -4.03,-4.2 -6.13,-6.19zm-306.63 4.93l0 0c-4.39,9.33 2.24,19.48 10.26,24.21 -1.1,-8.82 -3.77,-17.83 -10.26,-24.21zm309.1 11.62l0 0c1.74,2.15 3.54,4.25 5.3,6.42 3.29,-2.17 6.58,-4.3 9.9,-6.4 -2.42,-2.35 -4.92,-4.66 -7.34,-6.95 -2.65,2.29 -5.26,4.62 -7.86,6.93zm-10.63 -2.95l0 0c-1.39,3.56 -2.83,7.11 -4.11,10.74 2.46,-2.42 4.89,-4.91 7.35,-7.34 -1.09,-1.14 -2.17,-2.28 -3.24,-3.4zm-4.5 17.96l0 0c5.51,-1.48 10.74,-3.84 15.97,-6.12 -1.55,-1.53 -3.08,-3.07 -4.61,-4.57 -3.91,3.45 -7.84,6.85 -11.36,10.69zm83.11 15.07l0 0c-1.53,3.79 -2.68,7.77 -3.39,11.81 -7.36,42.02 -17.21,83.64 -24.16,125.72 15.93,-13.65 30.15,-29.3 41.81,-46.77 3.29,-4.98 1.67,-11.31 2.06,-16.93 -0.62,-30.54 1.07,-61.22 -0.87,-91.71l0.23 -1.74c-5.05,6.61 -16.6,10.09 -15.68,19.62zm-342.14 -15.14l0 0c-0.02,5.1 -0.41,10.15 -0.84,15.23 3.5,8.16 3.79,17.62 -0.16,25.67 -5.3,4.61 4.62,8.39 5.14,2.88 6.01,-13.72 9.08,-33.19 -4.14,-43.78zm222.96 9.56l0 0c-8.44,2.95 -14.84,9.69 -23.07,13.1 -7.17,2.76 -15.68,0.61 -22.33,4.91 -3.29,1.26 -4.29,5.62 -2.17,8.34 7.7,-0.38 14.84,-3.88 22.54,-4.45 12.91,-0.85 22.97,-9.86 33.64,-16.19 4.53,-2.51 7.87,-6.53 10.45,-10.94 -6.4,1.57 -12.82,3.13 -19.06,5.23zm19.79 5.42l0 0c-6.12,3.7 -11.2,9 -17.85,11.84 -8.32,3.56 -17.1,5.89 -25.78,8.39 -8.76,2.28 -17.53,6.62 -26.77,4.04 1.97,3.93 4.12,9.49 9.46,9.21 12.76,-2.85 23.73,-10.76 36.42,-14.01 8.41,-3.06 17.57,-1.9 26.19,-4.02 12.41,-3.82 19.09,-16.23 23.32,-27.59 -8.64,3.36 -17.03,7.36 -24.99,12.14zm-387.91 8.29l0 0c-4.67,-0.06 -6.88,-3.77 -8.12,-7.7 -2.76,3.5 -3.45,7.8 -3.52,12.16 11.25,5.46 22.59,-7.88 33.42,-1.44 7.41,8.85 -1.67,22.2 4.71,31.7 2.81,3.66 7.75,4.19 11.77,5.76 -1.83,-5.16 -4.66,-10.37 -3.93,-16.04 0.71,-10.26 10.1,-19 6.81,-29.67 -1.71,-8 -10.74,-11.54 -18.17,-10.17 -10.22,0.62 -14.24,11.93 -22.97,15.4zm110.67 -3.15l0 0c-6.28,11.22 -18.19,17.26 -29.85,21.44 0.53,9.76 -5.85,17.74 -7.82,26.93 -0.8,8.09 4.92,14.92 11.73,18.44 -1.3,-8.96 -4.07,-17.6 -6.45,-26.28 12.58,8.7 18.06,23.29 26.52,35.36 3.08,3.1 6.79,8.93 11.79,7.2 0.94,-7.48 -2.97,-14.56 -4.68,-21.67l5.39 3.34c-2.67,-12.19 -10.79,-22.47 -12.62,-34.86 -1.64,-10.63 6.72,-18.63 11.02,-27.45 -1.26,-0.62 -3.77,-1.83 -5.03,-2.45zm359.62 2.74l0 0c-9.83,17.97 -15.91,38.27 -29.83,53.76 -5.62,6.75 -13.37,11.07 -19.93,16.73 19.91,-4.45 33.19,-22.21 39.86,-40.45 3.32,-10.01 8.55,-19.5 9.9,-30.04zm-173.6 4.12l0 0c-0.37,4 2.24,7.43 4.27,10.63 5.37,7.38 11.04,14.83 18.79,19.93 8.3,5.48 13.99,14.06 17.56,23.22 2.21,4.91 4.16,11.41 10.24,12.66 7.95,2.31 20.18,0.71 21.62,-9.23 -1.58,-12.32 -5.12,-25.69 -14.13,-34.79 -10.12,-7.22 -19.56,7.59 -30.33,3.93 -13.03,-3.88 -14.06,-21.03 -25.17,-26.86l-2.85 0.51zm-257.56 24.96l0 0c1.74,7.33 7.38,12.27 13.94,15.33 0.23,-5.82 0.64,-11.68 -0.11,-17.48 -4.69,0.07 -9.31,0.98 -13.83,2.15zm151.66 0.91l0 0c-0.6,4.87 -1.01,9.76 -0.8,14.68 3.22,-1.76 6.45,-3.57 9.6,-5.49 -2.9,-3.11 -5.81,-6.19 -8.8,-9.19zm-19.32 15.59l0 0c6.04,13.58 6.47,28.91 4.12,43.38 -1.74,11.25 -17.65,17.08 -25.81,9.33 -5.35,-14.72 9.95,-28.69 5.49,-43.7 -1.88,-3.02 -5.74,-3.41 -8.69,-4.76 7.18,9.4 5.67,22.31 -1.05,31.5 -4.11,6.86 -11.93,12.69 -11.18,21.49 3.36,8.34 9.35,15.81 10.22,25.07 0.39,5.39 -3.89,10.9 -9.67,9.76 -9.74,0.96 -15.88,-7.82 -21.39,-14.35 -3.75,10.3 6.44,16.75 10.24,25.09 8.2,15.5 3.38,33.49 5.32,50.11 3.09,10.53 11.68,18.05 19.52,25.21 3.66,2.81 6.93,6.54 11.41,7.98 9.87,0.48 19.77,-0.07 29.67,0.25 -3.68,-13.83 -3.13,-28.62 1.96,-42.01 4.85,-15.69 14.84,-29.17 19.64,-44.83 3.36,-10.37 -2.26,-20.48 -2.63,-30.83 0.16,-3.8 -1.71,-6.97 -3.86,-9.9 -1.28,5.37 -2.38,11.98 -8.21,14.35 -7.13,4.44 -19.4,0.07 -18.86,-9.28 -1.46,-15.26 17.6,-23.26 15.34,-38.65 -0.48,-12.36 -10.49,-21.51 -21.58,-25.21zm106.95 78.29l0 0c-1.5,17.35 -6.1,34.28 -13.02,50.24 6.9,-4.46 12.96,-10.29 20.52,-13.67 9.53,-4.57 20.14,-0.98 29.88,0.96 -12.1,-12.87 -24.74,-25.21 -37.38,-37.53zm521.48 6.31l0 0c25.78,35.24 35.79,80.27 31.42,123.38 4.65,-4.11 6.34,-10.35 8.71,-15.86 8.92,-24.05 11.82,-49.97 11.94,-75.5 -4.19,-9.4 -10.82,-17.74 -16.48,-26.36 -10.68,-5.89 -23.71,-5.28 -35.59,-5.66zm-774.85 37.05l0 0c4.91,10.67 10.61,20.98 15.88,31.5 5.49,10.19 10.95,21.16 20.94,27.72 3.06,-9.71 4.25,-19.84 3.86,-30.01 -7.29,-2.88 -13.37,3.15 -20.06,4.98 0.45,-9.62 4.91,-18.26 8.16,-27.15 2.12,-6.36 5.25,-14.79 0.52,-20.64 -11.77,-3.02 -20.39,7.88 -29.3,13.6zm853.41 10.19l0 0c-0.05,15.45 0.41,31.04 -2.74,46.29 -3.62,21.92 -12.14,42.67 -22.93,61.97 16.25,-8.69 26.24,-25.54 32.94,-42.13 8.48,-21.35 8.36,-48.05 -7.27,-66.13zm-632.97 37.63l0 0c-4.09,13.44 -4.83,27.77 -2.01,41.55 6.35,-12.94 1.87,-27.73 2.65,-41.51l-0.64 -0.04zm-138.52 22.6l0 0c-0.89,4.5 3.36,7.66 7.43,7.93 10.03,1.17 20.18,0.21 30.26,0.73 -11.68,-7.47 -22.08,-16.63 -32.94,-25.14 -2.12,5.3 -3.81,10.84 -4.75,16.48zm696.45 113.99l0 0c-3.34,16.96 -8.14,33.53 -12.16,50.31 4.91,-8.57 10.14,-16.98 15.61,-25.23 -1.26,-8.35 -2.43,-16.71 -3.45,-25.08zm-265.11 37.79l0 0c-20.11,27.72 -45.64,53.64 -79.01,64.39 12.13,3.61 24.82,4.84 37.07,8.09 9.74,2.31 19.09,5.94 28.64,8.93 10.58,-35.81 20.53,-73.37 44.66,-102.86 3.5,-3.86 1.28,-9.3 1.19,-13.87 -13.55,8.96 -22.83,22.61 -32.55,35.32zm-126.49 -606.41l0 0c-14.6,5.25 -26.08,16.43 -36.27,27.77 -6.56,7.93 -13.38,16.25 -16.44,26.26 -2.99,9.69 9.92,17.35 17.6,11.91 7.02,-5.46 14.11,-10.79 21.01,-16.37 -1.9,-2.85 -3.7,-5.73 -5.44,-8.68 -3.36,0.8 -6.7,1.6 -10.04,2.35 3.75,-8.98 7.2,-18.08 10.98,-27.04 1,0.82 3.01,2.45 4.02,3.27 6.85,-8.41 16.41,-16.43 27.95,-15.91 7.45,-0.57 13.47,4.39 19.57,7.86 1.35,-2.9 2.7,-5.78 4.07,-8.66 -11.89,-3.52 -24.83,-6.33 -37.01,-2.76zm-11.54 22.35l0 0c4.66,4.02 9.21,8.16 13.69,12.41 -5.92,1.58 -11.82,3.25 -17.6,5.26 1.48,2.47 2.97,4.96 4.48,7.43 5.53,-3.18 10.97,-6.56 16.34,-10.06 -1.48,-3.79 -3.31,-8.37 -0.25,-11.95 5.4,-6.77 15.18,-6.52 22.72,-4.1 0.66,-1.46 1.97,-4.41 2.63,-5.87 -4.98,-3.93 -10.35,-8.46 -17.07,-8.41 -10.43,-0.05 -19.02,7.38 -24.94,15.29zm-5.56 0.55l0 0c-1.92,4.98 -3.88,9.94 -5.85,14.9 5.79,-1.69 11.61,-3.29 17.44,-4.8 -3.88,-3.36 -7.68,-6.79 -11.59,-10.1zm25.92 12.3l0 0c6.31,-2.56 12.55,-5.31 18.61,-8.44 -6.31,-6.7 -24.02,-2.81 -18.61,8.44z"/>
   <path class="fil2" d="M678.67 741.11c8.91,-5.72 17.53,-16.62 29.3,-13.6 4.73,5.85 1.6,14.28 -0.52,20.64 -3.25,8.89 -7.71,17.53 -8.16,27.15 6.69,-1.83 12.77,-7.86 20.06,-4.98 0.39,10.17 -0.8,20.3 -3.86,30.01 -9.99,-6.56 -15.45,-17.53 -20.94,-27.72 -5.27,-10.52 -10.97,-20.83 -15.88,-31.5zm445.24 -167.23c-1.35,10.54 -6.58,20.03 -9.9,30.04 -6.67,18.24 -19.95,36 -39.86,40.45 6.56,-5.66 14.31,-9.98 19.93,-16.73 13.92,-15.49 20,-35.79 29.83,-53.76zm20 61.21c4.05,-28.93 8.53,-57.82 12.46,-86.81 1.94,30.49 0.25,61.17 0.87,91.71 -0.39,5.62 1.23,11.95 -2.06,16.93 -11.66,17.47 -25.88,33.12 -41.81,46.77 6.95,-42.08 16.8,-83.7 24.16,-125.72 0.71,-4.04 1.86,-8.02 3.39,-11.81 0.91,23.81 -1.03,47.61 -0.23,71.43 0.39,7.7 0.07,15.4 -1.37,22.97 2.65,-8.25 3.56,-16.89 4.59,-25.47zm46.49 -104.59c-0.36,-6.81 5.92,-10.61 10.65,-14.15 -0.38,21.19 9.03,40.94 9.54,61.92 -8.48,13.42 -16.78,27.11 -26.43,39.75 1.63,-29.21 4.25,-58.35 6.24,-87.52zm22.36 -212.6c5.53,18.49 8.18,37.78 11.24,56.78 -4.04,20.09 -10.31,39.7 -14.92,59.7 -0.87,4.14 -2.31,8.14 -3.96,12.03 -1.41,-23.16 -1.16,-47.16 -10.33,-68.94 5.62,-7.43 10.54,-15.89 10.81,-25.47 0.21,-11.74 3.61,-23.01 7.16,-34.1zm149.99 -168.94c12.11,-6.22 24.32,-14.35 38.42,-14.38 3.2,4.76 2.08,10.72 1.4,16.07 -3,18.45 -8.73,36.28 -14.27,54.08 -21.14,65.47 -46.56,129.42 -71.61,193.45 -18.88,37.28 -40.57,73.09 -62.33,108.75 -11.98,18.17 -22.63,37.31 -36.12,54.38 -1.05,-30.24 -6.05,-60.27 -5.48,-90.56 2.42,-15.73 8.94,-30.52 12.84,-45.94 4.19,-15.98 10.93,-31.36 13.54,-47.71 -3.96,-20.02 -9.86,-39.63 -14.5,-59.5 -2.85,-12.82 -7.59,-25.44 -7.61,-38.72 -0.18,-19.04 -2.12,-38.03 -1.9,-57.07 11.5,-5.37 22.56,-11.7 34.25,-16.71 40.22,-13.37 76.71,-35.27 113.37,-56.14zm-430.82 56.05c29.88,-40.46 77.6,-69.95 128.69,-70.43 3.98,4.12 4.11,10.88 5.74,16.26 5.5,26.46 -0.6,53.69 -9.65,78.65 -33.78,1.8 -65.81,20.09 -84.62,48.18 -29.46,42.86 -36.75,96.78 -35.63,147.68 -17.22,-13.71 -31.73,-30.49 -48.05,-45.21 -4.55,-3.43 -3.7,-9.62 -4.28,-14.6 -2.65,-56.76 13.7,-114.84 47.8,-160.53zm15.13 -76.92c22.95,-8.84 47.8,-12.18 72.25,-13.67 46.13,-4.02 95.43,9.51 128.67,42.72 -7,-3.9 -14.49,-6.76 -22.13,-9.14 6.61,33.33 30.54,61.67 60.6,76.73 -0.71,-7.42 -1.6,-14.83 -2.74,-22.21 4.8,6.4 9.02,13.57 10.67,21.48 -15.31,23.11 -33.9,45.26 -41.14,72.64 -0.53,3.39 -3.68,5.19 -6.13,7.16 -6.1,4.27 -12,8.87 -18.35,12.75 -0.69,-0.82 -2.08,-2.49 -2.77,-3.31 8.69,-17.92 13.81,-40.73 2.17,-58.59 -4.98,-6.14 -3.31,-14.3 -3.72,-21.6 -0.62,-31.27 -15.48,-61.46 -38.54,-82.35 -6.17,-6.29 -14.42,-10.06 -20.32,-16.62 18.95,-1.14 37.05,5.21 54.42,11.98 -16.78,-16.64 -40.87,-23.7 -63.91,-25.46 -45.62,-2.66 -92.64,8.57 -130.35,34.83 -51.21,35.61 -85.01,93.81 -94.52,155.04 -1.97,11.57 -1.23,23.29 -1.37,34.93 -6.24,2.01 -12.78,2.72 -19.11,4.34 -1.39,-50.67 12.69,-102.1 42.54,-143.34 23.95,-33.6 57.35,-59.45 93.78,-78.31zm-330.93 155.11c17.33,2.81 34.49,6.54 51.84,9.1 21.46,7.15 43.66,11.84 65.1,19.04 12.48,22.54 32.23,40.44 54.81,52.55 3.09,19.36 8.53,38.2 14.81,56.73 -5.39,-0.68 -10.79,-2.17 -16.27,-1.87 -4.32,1.69 -8.8,2.83 -13.44,2.7 5.1,4.41 10.01,9.05 15.06,13.53 -0.39,0.91 -1.19,2.72 -1.58,3.63 17.74,14.45 37.58,26.08 55.16,40.73 4.94,4.35 10.4,8.99 12.05,15.66 2.83,10.36 3.86,21.74 10.81,30.45 13.69,18.08 40.09,19.17 53.94,37.21 7.34,10.38 11.91,22.61 20.51,32.14 8.31,9.67 21.5,12.96 30.26,22.17 11.2,10.49 11.65,28.5 24.8,37.35 11.72,7.95 26.56,4.41 39.31,1.35 -2.44,17.6 -9.71,33.94 -16.61,50.15 -1.86,3.84 -1.56,8.13 -1.54,12.29 5.7,-2.72 8.46,-8.59 11.64,-13.67 9.12,-15.36 15.45,-32.64 16.23,-50.62 3.54,-0.32 8.32,-4.03 10.9,-0.03 15.68,21.12 31.64,42.06 47.27,63.23 -12.3,15.08 -29.58,28.27 -49.78,28.84 -16.44,0.41 -31.07,-8.98 -42.38,-20.07 -4.87,-5.03 -9.14,-10.67 -14.58,-15.1 2.49,12.93 12.73,22.44 22.74,30.12 14.88,11.18 35.15,15.34 52.85,8.75 22.65,-8.54 41.21,-24.96 58.12,-41.85 43.18,-44.64 77.24,-97.03 109.56,-149.76 0.14,6.74 0.27,13.92 3.88,19.86 3.16,5.72 9.92,9.65 9.67,16.9 -6.21,1.18 -15.27,-2.68 -19.02,4.02 -25.96,37.51 -52.95,74.35 -78.37,112.21 21.46,-19.71 41.35,-41.15 61.96,-61.7 24.14,-18.74 47.57,-38.42 71.2,-57.83 10.63,1.67 21.31,3.14 31.84,5.33 0.58,0.14 1.72,0.39 2.29,0.5 -3.75,2.97 -7.47,5.99 -11.5,8.6 -5.25,3.95 -13.05,0.18 -18.05,4.57 -32.51,26.88 -64.99,53.8 -97.58,80.59 -5.97,4.92 -12.37,9.47 -17.26,15.57 45.44,-26.01 89.83,-53.97 135.02,-80.41 33.01,-15.66 64.96,-33.37 97.92,-49.1 13.12,6.63 26.45,12.85 39.75,19.13 2.22,0.69 3.54,2.17 4,4.44 -17.07,10.17 -36.27,16.02 -54.9,22.6 -19.84,7.09 -40.83,11.02 -59.62,20.8 -41.6,20.48 -82.72,42.06 -125.44,60.14 -31.59,13.26 -62.49,28.73 -89.97,49.4 -25.73,19.33 -53.55,37.12 -84.89,45.66 -14.9,4.35 -30.79,4.78 -46.01,2.24 -4.25,-0.66 -8.3,-2.17 -11.8,-4.66 7.18,-7.59 15.32,-15.68 16.42,-26.65 1.64,-8.14 -1.42,-16.07 -5.21,-23.11 6.83,0.69 13.64,1.67 20.52,1.94 -6.51,-10.85 -17.94,-18.31 -30.51,-19.81 -28.55,-30.4 -56.64,-61.26 -84.12,-92.64 -1.99,-17.15 -5.21,-34.7 -13.44,-50.09 -1.03,0.12 -3.11,0.3 -4.16,0.39 -0.82,8.28 -0.55,16.78 -3.68,24.64 -7.29,-7.75 -14.13,-15.91 -20.87,-24.11 6.29,-6.38 13.6,-13.24 14.68,-22.63 1.71,-17.55 -4.87,-36.02 -18.18,-47.8 -12.32,-10.72 -28.41,-17.05 -44.73,-17.66 12.46,17.46 24.73,37.05 24.07,59.36 -24.52,-29.17 -48.55,-58.77 -72.25,-88.6 -0.64,-0.8 -1.9,-2.38 -2.54,-3.15 -48.07,-60.32 -95.25,-121.38 -140.71,-183.69zm463.89 483.6l0 0c-24.16,11.91 -52.41,21.49 -79.17,12.85 9.85,13.6 28.75,14.72 43.59,10.05 23.29,-7.33 43.65,-21.83 61.94,-37.67 -8.89,4.76 -17.26,10.43 -26.36,14.77zm330.41 -125.44c52.62,-6.17 105.14,-13.42 157.81,-19.18 12.87,35.45 24.34,71.45 36.18,107.27 3.59,13.58 6.65,27.29 9.97,40.94 0.91,4.43 2.6,9.53 -0.8,13.39 -38.31,52.23 -77.26,104.03 -115.39,156.37 17.67,3.27 35.43,6.26 53.28,8.3 30.63,4.07 61.12,9.21 91.66,13.94 -3.31,5.24 -6.6,10.47 -10.24,15.48 -47.06,72.45 -92.39,146.1 -138.88,218.93 -3.32,5.09 -6.36,10.4 -9.1,15.81 15.23,-7.77 28.89,-18.15 43.36,-27.17 9.08,-6.36 19.48,-11 27.23,-19.09 8.36,-5.6 19.97,-9.08 23.43,-19.54 7.79,-18.11 16.22,-35.91 24.02,-54.02 15.86,-5.19 32.14,-8.96 48.55,-12 46.63,-8.23 95.38,-10.08 141.42,2.61 -4.28,4.82 -8.67,9.53 -13.51,13.78 -13.08,10.75 -24.48,23.29 -36.73,34.93 -18.47,18.19 -37.24,36.14 -55.66,54.4 10.95,22.49 17.44,47.93 13.26,72.96 -1.83,15.52 -8.07,29.94 -14.27,44.14 15.25,-4.39 30.36,-9.26 45.1,-15.06 26.24,-9.4 52.87,-17.65 79.34,-26.4 -14.54,15.33 -29.37,30.37 -44.18,45.41 -6.27,4.92 -11.71,10.75 -17.1,16.55 -17.35,17.69 -34.81,35.32 -51.89,53.28 -7.68,7.57 -14.7,16.44 -25,20.53 -54.79,24.43 -116.85,32.25 -175.98,22.08 -24.28,-5.87 -48.44,-16.55 -65.35,-35.43 -8.19,-9.85 -14.88,-20.82 -20.62,-32.23 -11.45,15.7 -21.51,32.37 -32.53,48.39 -11.31,18.03 -24.18,35.09 -34.58,53.67 -11.91,18.26 -23.54,36.75 -36.28,54.47 1.58,-41.6 3.34,-83.2 5.63,-124.78 1.09,-10.45 1.46,-20.94 1.57,-31.43 -34.69,18.72 -70.01,36.41 -104.27,55.93 -4.19,2.52 -8.46,4.87 -12.71,7.3 -23.59,-21.33 -46.56,-43.34 -69.79,-65.08 3.16,-6.17 6.13,-12.43 9.51,-18.47 4.96,-7.09 8.87,-14.83 12.25,-22.77 3.02,-6.81 6.5,-13.41 9.99,-20 2.98,-5.66 5.9,-11.33 8.71,-17.09 -5.46,3.61 -10.74,7.45 -15.91,11.43 -6.05,4.61 -12.06,9.28 -18.42,13.48 -39.79,28.02 -78.17,58.04 -117.42,86.84 -14.67,11.4 -30.24,21.67 -44.3,33.87 -5.92,4.92 -12.2,9.35 -18.35,13.95 -11.02,-18.43 -21.69,-37.08 -32.82,-55.43 -2.27,-3.68 -4.3,-7.57 -5.22,-11.8 3.14,-9.49 5.12,-19.27 6.63,-29.1 -41.87,16.1 -82.81,34.56 -124.36,51.52 -21.51,9.38 -43.57,17.51 -64.74,27.69 -2.6,1.21 -5.23,2.37 -7.84,3.58 -25.62,-15.63 -51.77,-30.4 -77.42,-45.99 17.6,-37.82 34.43,-76 52.21,-113.71 7.61,-14.49 14.58,-29.42 20.39,-44.73 -135.07,81.44 -276.55,151.84 -421.45,214.01 -12.36,5.56 -25.32,9.83 -37.12,16.6 -30.17,12.54 -61.07,23.29 -92.57,31.95l0 -0.75c41.35,-29.12 81.74,-59.59 122.86,-89.03 3.02,-2.34 6.72,-4.39 7.91,-8.3 37.16,-100.51 73.32,-201.45 110.79,-301.86 1.8,-4.25 3.49,-8.55 5.16,-12.87 -31.22,0.37 -62.44,-0.52 -93.64,0.48 -10.22,0.48 -20.46,0.28 -30.7,0.21 -7.43,-30.84 -15.06,-61.63 -22.2,-92.53 162.95,-0.52 325.93,3.64 488.67,12.28 6.4,0.98 12.85,1.37 19.32,1.35 -9.72,-13.88 -20.85,-27 -34.17,-37.54 -10.91,-8.68 -26.29,-8.71 -36.69,-18.15 -18.06,-16.41 -30.63,-37.71 -47.75,-54.97 -5.07,-4.82 -7.82,-11.31 -9.83,-17.87 19.55,16.48 41.49,29.8 64.42,41.03 13.02,6.08 22.97,16.96 30.4,29.07 10.1,17.24 31.29,23.41 49.96,25.42 -6.38,-4.23 -13.12,-8.03 -18.97,-12.98 -11.22,-9.4 -18.4,-22.75 -30.26,-31.48 -19.02,-15.63 -42.31,-24.34 -62.84,-37.62 -12.98,-8.14 -25.92,-16.64 -36.66,-27.64 -4.53,-4.82 -9.28,-10.56 -8.8,-17.6 0.2,-10.72 -0.14,-21.87 3.61,-32.07 3.7,-1.12 3.2,4.78 4.75,6.86 3.87,11.43 6.79,23.77 15.16,32.94 4.43,5.19 10.97,7.66 17.23,9.9 8.99,3.15 17.81,6.72 26.86,9.69 -11.54,-8.12 -23.86,-15.39 -33.83,-25.49 -8.87,-9.39 -13.94,-21.53 -18.95,-33.23 -6.06,-15.59 -12.2,-31.98 -10.76,-48.99 0.45,-5.53 2.99,-12.25 9.09,-13.46 6.91,-2.19 12.71,3.61 16.64,8.5 12.1,15.93 18.7,35.07 27,53.08 4.16,8.73 13.14,13.51 21.6,17.3 16.64,7.38 33.49,14.47 51.09,19.29 14.28,4.16 29.51,1.76 43.79,5.92 14.61,3.48 27.27,12.12 41.72,16.07 12.43,3.5 25.6,6.42 38.53,4.12 9.08,-1.63 16.46,-8.78 19,-17.56 5.14,-18.44 -0.32,-37.62 1.58,-56.32 0.8,-9.3 8.43,-15.5 14.26,-21.94 5.99,-6.13 11.63,-13.56 20.23,-16.07 10.28,-2.75 20.96,1.76 29,8.07 6.17,4.82 11.32,12.61 9.26,20.77 -1.42,12.39 -18.47,14.88 -19.08,27.55 -1.65,21.6 1.87,43.61 10.3,63.59 7.57,17.94 11.25,37.76 9.17,57.21 -2.03,17.35 -12.09,32.11 -22.33,45.69 2.6,4.12 5.23,8.21 7.91,12.3 -1.44,3.47 -2.88,6.95 -4.32,10.42 6.17,-2.22 12.41,-4.2 18.69,-6.03 0.69,3.84 1.35,7.68 2.04,11.54 6.1,-0.53 12.25,-1.05 18.38,-1.46 -22.95,58.92 -71.48,105.53 -127.46,133.53 -0.23,-5.44 -0.43,-10.88 -0.64,-16.27 -7.15,5.09 -15.02,9.46 -21.16,15.81 -1.76,3.64 -2.04,7.78 -2.93,11.71 9.67,0.36 20.34,-3.27 29.35,1.21 26.24,18.29 51.13,38.58 77.88,56.11 0.98,-3.01 1.98,-5.98 3.01,-8.96 0.94,-2.65 1.92,-5.28 3,-7.86 1.96,-4.59 4.2,-9.05 6.37,-13.53 1.47,-3.18 2.91,-6.33 4.19,-9.55 0.75,-1.99 1.5,-3.98 2.31,-5.93 2.35,-5.87 4.98,-11.63 7.9,-17.23 0.74,-1.42 2.22,-4.21 2.95,-5.6 9.17,2.49 18.4,4.71 27.57,7.18 22.26,7.18 45.14,12.57 68,17.6 5.1,1.16 10.26,2.24 15.25,3.93 -0.39,1.55 -0.83,3.09 -1.35,4.62 -5.31,5.92 -10.06,12.34 -13.83,19.36 -3.64,6.33 -7.41,12.61 -11.2,18.85 -1.88,3.02 -3.8,6.02 -5.65,9.06 -1.94,3.17 -3.75,6.44 -5.35,9.82 -2.28,4.83 -4.55,9.67 -6.95,14.45 -2.62,5.23 -5.3,10.45 -7.54,15.89 0.19,0.13 0.6,0.41 0.8,0.54 -5.96,6.31 -8.55,14.66 -10.74,22.84 6.44,-5.6 12.07,-12.05 17.53,-18.61 3.75,-4.25 7.75,-8.29 11.66,-12.41 4.39,-4.64 8.98,-9.07 13.6,-13.48 2.51,-2.52 4.94,-5.1 7.31,-7.73 2.49,-2.81 5.03,-5.6 7.61,-8.32 7.07,-7.27 13.86,-14.81 21.29,-21.69 5.64,-4.94 10.83,-10.36 15.61,-16.12 12.5,-14.05 25.92,-27.26 38.95,-40.84 25.32,7.93 50.37,16.64 75.75,24.43 3.13,-5.16 6.33,-10.28 9.87,-15.18 0.82,-1.14 2.47,-3.38 3.31,-4.5 4.42,0.73 8.85,1.42 13.31,2.15 1.96,0.34 3.95,0.71 5.96,1.12 -9.71,-16.07 -14.72,-35.57 -10.53,-54.17 3.04,-15.48 12.13,-29.63 11.88,-45.69 0,-9.06 -10.76,-9.06 -17.07,-11.39 3.22,-7.81 6.31,-16.27 13.23,-21.64 7.52,-6.63 18.01,-8.46 27.73,-7.27 1.67,0.27 3.34,0.57 5.03,0.94 0.45,-3.94 0.93,-7.82 1.39,-11.73 3.09,-9.12 7.5,-18.04 14.56,-24.73 3.86,-4.21 9.12,-7.66 10.65,-13.51 -6.54,-8.8 -17.53,-12.18 -26.9,-17.01 8.89,-6.67 18.35,-14.81 30.19,-14.38 6.72,-0.32 13.1,2.11 19.3,4.42 -0.26,-1.65 -0.74,-4.99 -0.99,-6.63 6.97,0.02 13.99,-0.14 20.99,0.18 3.63,0.76 7.29,1.65 10.88,2.72 4.16,1.51 8.18,3.43 11.95,5.83 6.01,6.15 11.22,13.1 15.04,20.85 4.5,13.23 3.59,27.79 -0.43,41.05 2.9,3.45 5.76,6.97 8.55,10.56 -0.99,5.87 -0.8,11.84 -0.76,17.78 0.34,12.62 -1.62,25.15 -3.75,37.53 5.1,-9.76 9.49,-19.86 14.88,-29.48 16.12,-29.28 28.07,-60.76 45.15,-89.49 1.92,-5.03 1.57,-11.2 6.01,-14.95 27.08,-27.34 51.15,-58.74 65.23,-94.86 9.99,-24.43 11.91,-51.91 5.17,-77.44 10.1,5.26 20.75,12.12 24.57,23.5 3.47,12.8 -1.64,25.76 -1.55,38.67 6.67,2.34 10.24,-5.51 12.36,-10.44 4.37,-12.41 8.69,-27.73 0,-39.32 -17.05,-24.91 -42.35,-43.52 -69.67,-55.82 -33.21,-13.32 -69.99,-16.06 -105.23,-11.42 -41.92,1.82 -83.73,5.62 -125.67,6.44 -17.97,0.64 -35.73,3.84 -53.7,4.76 11.46,-6.91 23.91,-11.82 36.05,-17.35 40.96,-17.67 83.16,-32.55 126.13,-44.53 3.5,-0.07 6.99,-0.25 10.49,-0.5zm-466.11 126.83l0 0c-5.08,7.09 -11.82,13.83 -12.78,22.93 -1.71,12.37 4.41,24.27 3.04,36.64 -1.85,10.04 -8.96,17.85 -14.38,26.13 -2.78,4.27 -5.71,9.48 -3.54,14.67 2.04,9.56 12.57,16.92 9.51,27.36 -0.73,5.1 -3.93,10.47 -9.44,11.29 -5.83,1.49 -9.74,-3.75 -13.9,-6.74 -3.95,-3.73 -9.83,-3.43 -14.33,-6.01 -4.48,-4.34 -7.68,-9.76 -11.38,-14.72 -8.64,6.95 -18.59,12.48 -26.04,20.78 4.51,1.16 9.31,2.44 13.92,0.86 5.1,-0.93 10.68,-4.73 15.75,-1.64 6.38,4.16 9.6,11.75 16.09,15.84 7.43,5.05 17.35,2.47 24.99,7.08 3.88,2.36 7.27,5.38 10.81,8.23 2.03,-17.28 4.34,-34.99 1.03,-52.25 -2.77,-10.15 -7.5,-21.28 -1.9,-31.43 4.71,-12.34 21.74,-18.24 19.63,-33.19 -2.87,0.58 -5.76,1.12 -8.61,1.72 -0.89,-6.63 -2.81,-13.26 -2.04,-19.96 2.52,-9.32 10.33,-16.29 11.64,-26.1 1.39,-0.73 4.16,-2.17 5.55,-2.9 -1.83,-1.67 -3.59,-3.39 -5.55,-4.87 -3.89,-0.09 -5.85,3.75 -8.07,6.28zm-220 98.31l0 0c6.9,5.08 15.42,9.12 19.17,17.31 3.93,8.68 5.9,19.04 13.9,25.16 10.86,8.69 24.27,14.15 37.94,16.41 -9.14,-4.73 -18.49,-9.64 -25.41,-17.46 -7.11,-7.38 -9.76,-17.57 -15.5,-25.85 -7.04,-9.44 -18.7,-14.24 -30.1,-15.57zm190.92 58.88l0 0c-0.93,6.63 -2.92,13.13 -7.52,18.18 4.35,2.95 10.95,4.25 14.95,0.04 2.52,-7.11 -3.29,-13.19 -7.43,-18.22zm459.01 2.25l0 0c0.84,7.06 -2.08,15.56 -10.68,15.04 -1.1,-3.82 -2.17,-7.96 -5.12,-10.77 -3.13,-2.67 -7.54,-1.33 -11.08,-0.62 -5.08,-1.23 -10.27,-0.96 -15.37,-0.29 5.63,6.19 15.43,10.37 15.53,19.97 0.34,10.2 -9.06,15.84 -15,22.61 -10.33,10.88 -13.05,26.63 -12.46,41.12 -13.21,-5.58 -31.97,-7.93 -40.55,6.4 7.36,3.5 12.83,10.58 13.03,18.95 0.37,22.88 -16.64,42.81 -13.25,65.99 2.46,21.6 16.45,39.77 32.93,53.05 -15.63,-3.02 -30.99,-7.29 -46.44,-10.99 -4.69,7.22 -9.15,14.56 -13.81,21.78 -25.71,-8.48 -51.54,-16.59 -77.19,-25.28 -54.97,56.69 -109.35,114.01 -164.66,170.36 15.36,-54.2 39.86,-105.9 71.86,-152.26 -28.98,-7.97 -58.24,-14.99 -87.29,-22.74 -11.96,27.13 -23.93,54.26 -35.71,81.49 -6.47,-7.55 -7.84,-18.91 -16.82,-24.17 -22.56,-16.41 -45.12,-32.77 -67.45,-49.46 -24.85,0.87 -49.72,1.78 -74.54,3.25 10.17,-7.96 21.23,-14.68 31.68,-22.27 30.58,-21.21 60.21,-43.74 89.51,-66.69 -5.76,-19.36 -12.73,-38.34 -19.15,-57.47 -205.7,-15.47 -412.01,-21.78 -618.23,-21.78 5.41,23.7 11.2,47.31 17.07,70.93 43.34,-0.1 86.68,-0.03 130.02,-0.05 -39.73,109.88 -80.28,219.43 -120.19,329.22 -1.14,2.53 -1.78,5.67 -4.34,7.22 -26.7,19.06 -54.43,36.76 -80.67,56.41 13.95,-4.75 27.37,-10.88 41.01,-16.34 165.35,-69.14 326.38,-149.28 478.57,-244.07 -27.25,60.91 -55.52,121.39 -82.86,182.26 21.39,12.32 42.47,25.24 63.93,37.44 70.27,-29.62 140.51,-59.27 211,-88.29 -3.27,15.81 -6.67,31.58 -10.06,47.36 9.6,16.73 19.82,33.12 29.17,50.01 6.24,-3.98 12.11,-8.46 18.01,-12.92 69.15,-51.77 138.56,-103.2 207.64,-155.08 2.49,3.06 10.15,5.57 6.74,10.49 -15.68,30.33 -31.63,60.55 -47.24,90.92 18.99,18.08 37.89,36.3 57.55,53.63 42.1,-22.91 84.55,-45.17 126.9,-67.59 -1.64,43.98 -4.5,87.93 -5.48,131.91 11.79,-14.88 21.1,-31.57 32,-47.11 20.69,-31.09 40.73,-62.63 61.99,-93.33 2.79,18.97 11.06,37.15 24.27,51.11 22.59,23.98 56.01,34.01 88.05,36.34 47.77,3.18 96.46,-5.14 140.23,-24.64 7.36,-2.81 12.73,-8.66 17.92,-14.33 27.93,-29.21 56.85,-57.51 84.3,-87.18 -37.42,12.64 -74.95,24.94 -112.41,37.4 15.47,-17.85 27.59,-39.2 31.72,-62.68 5.1,-26.62 -1.8,-54.19 -15.54,-77.21 32.62,-31.72 65.51,-63.15 97.56,-95.45 -53.08,-8.37 -107.89,-2.88 -159.16,12.64 -7.95,18.49 -16.53,36.73 -24.6,55.15 -1.39,4.67 -6.01,6.75 -9.71,9.26 -36.48,23.43 -72.64,47.34 -109.19,70.65 -2.58,-2.42 -5.17,-4.8 -7.75,-7.15 54.68,-86.49 109.24,-173.08 163.96,-259.53 -46.45,-6.37 -92.66,-14.44 -139.09,-21l-1.55 0.64c-36.62,75.25 -73.1,150.58 -109.67,225.85 -9.65,-2.92 -19.34,-5.71 -29.01,-8.54 5.62,-5.19 11.5,-10.11 17.14,-15.25 -0.18,-13.24 1.08,-27 7.45,-38.84 7.62,-14.53 22.86,-23.13 30.36,-37.78 11.08,-21.33 12.64,-46.1 12.57,-69.69 0.66,-3.66 -1.32,-6.36 -3.84,-8.64 -7.38,2.72 -13.07,8.18 -18.81,13.32 -1.94,-11.72 10.97,-16.45 14.56,-26.12 5.69,-13.99 4.94,-31.5 -4.32,-43.84 -6.06,-8.09 -16.25,-11.52 -25.94,-12.73zm-564.17 8.29l0 0c15.91,19.89 33.14,39.09 53.87,54.08 7.29,3.64 16,2.38 23.93,2.68 -5.37,-6.2 -12.73,-9.99 -19.17,-14.9 -19.87,-14.45 -39.87,-28.81 -58.77,-44.53 0.05,0.66 0.11,2.01 0.14,2.67zm108.18 47.77l0 0c5.81,4.97 13.69,1.01 20.39,0.74 2.74,9.05 7.18,17.6 8.48,27.11 3.84,-5.56 8.37,-11.69 7.63,-18.82 -3.08,-2.03 -6.81,-2.74 -10.1,-4.27 -3.68,-3.91 -3.91,-9.69 -5.32,-14.61 -4.58,0.51 -9.81,3.23 -14.08,0.48 -5.33,-2.97 -5.54,-9.69 -7.27,-14.81 -4.99,7 -6.7,17.85 0.27,24.18zm44.14 22.2l0 0c4.25,-1.6 12.34,-6.81 6.31,-11.22 -5.17,1.53 -7.39,6.08 -6.31,11.22zm0.34 7.38l0 0c-0.48,3.91 -0.93,7.82 -1.39,11.73 5.62,-4.76 15.4,-4.18 18.06,-11.98 -5.56,0.16 -11.11,0.28 -16.67,0.25zm421.91 97.01l0 0c-9.19,10.93 -12.19,26.06 -10.86,40 10.44,-18.83 19.04,-38.65 28.69,-57.87 -6.52,5.32 -12.17,11.65 -17.83,17.87z"/>
   <path class="fil3" d="M1270.86 1160.91c1.03,-2.72 2.88,-6.86 6.72,-4.41 21.42,4.77 42.81,9.67 64.28,14.37 -19.43,32.42 -40.46,63.87 -62.56,94.5 -20.69,28.34 -42.59,55.93 -67.71,80.5 42.56,-8 83.11,-24.34 120.83,-45.37 -25.99,25.21 -57.08,44.53 -88.58,62.04 -15.97,8.09 -31.77,16.68 -48.52,23.06l-1.67 -0.53c-12.89,-13.8 -27.41,-26.42 -39.2,-41.05 47.47,-54.88 86.74,-116.87 116.41,-183.11zm-1013.13 268.12l80.09 -46.63c2.67,-1.19 4.29,-3.61 5.05,-6.33 39.75,-112.42 79.93,-224.67 119.64,-337.11l-156.14 4.44 -8.23 -53.74c195.14,3.55 403.24,7.56 595.78,25.85 4.91,14.24 9.09,28.71 13.64,43.09 -68.75,52.37 -142.1,98.38 -216.37,142.52 -113.09,66.56 -317.26,182.49 -433.46,227.91zm894.2 -145.12c5.17,-3.98 10.45,-7.82 15.91,-11.43 -2.81,5.76 -5.73,11.43 -8.71,17.09 -2.4,-1.89 -4.8,-3.79 -7.2,-5.66zm-96.94 -52.12c2.4,-4.78 4.67,-9.62 6.95,-14.45 6.24,2.82 12.39,5.83 18.36,9.22 -4.62,4.41 -9.21,8.84 -13.6,13.48 -3.91,-2.79 -7.8,-5.53 -11.71,-8.25zm29.15 -52.18c10.67,3.45 21.48,6.47 32.37,9.21 -7.43,6.88 -14.22,14.42 -21.29,21.69 -7.47,-3.93 -14.92,-7.93 -22.28,-12.05 3.79,-6.24 7.56,-12.52 11.2,-18.85zm-187.71 -51.2c4.92,-2.52 9.88,-4.92 14.88,-7.2 19.64,15.08 39.89,29.34 59.84,44.02 -2.17,4.48 -4.41,8.94 -6.37,13.53 -14.86,-9.53 -29.17,-19.93 -44.35,-29.01 -8.11,-6.99 -16.09,-14.14 -24,-21.34zm85.92 -12.64c13.99,-1.44 25.28,8.41 33.72,18.33 -9.17,-2.47 -18.4,-4.69 -27.57,-7.18 -2.08,-3.73 -4.16,-7.41 -6.15,-11.15zm-63.36 0.7c6.7,-4.16 13.33,-8.45 20,-12.68 15.39,9.78 31.09,19.06 46.56,28.73 -2.92,5.6 -5.55,11.36 -7.9,17.23 -10.15,-4.63 -19.94,-10.1 -30.52,-13.71 -9.55,-6.26 -18.79,-13.01 -28.14,-19.57zm504.97 -100.41c3.73,2.65 7.43,5.35 11.13,8.05 -5.39,9.62 -9.78,19.72 -14.88,29.48 2.13,-12.38 4.09,-24.91 3.75,-37.53zm-436.87 41.26c9.66,-14.42 18.78,-29.28 25.25,-45.46 42.11,10.67 84.12,21.66 126.02,33.09 16.48,4.19 30.6,14.11 44.32,23.73 27.97,20.43 52.75,45.12 74.01,72.43 -3.54,4.9 -6.74,10.02 -9.87,15.18 -25.38,-7.79 -50.43,-16.5 -75.75,-24.43 -13.03,13.58 -26.45,26.79 -38.95,40.84 -11.84,-2.81 -23.32,-6.95 -34.15,-12.45 0.52,-1.53 0.96,-3.07 1.35,-4.62 -4.99,-1.69 -10.15,-2.77 -15.25,-3.93 -17.94,-11.61 -30.24,-30.06 -48.98,-40.53 -21.08,-13 -45.72,-18.01 -67.82,-28.71 -0.6,-4.73 4.78,-7.31 7.08,-10.83 28.26,6.65 55.5,19.59 76.55,39.82 5.33,5.66 13.28,6.92 20.21,9.67 10.99,3.93 20.85,10.3 30.7,16.45 -31.61,-34.81 -71.87,-61.3 -114.72,-80.25zm247.86 -110.29c15,-6.26 33.44,-3.17 45.58,7.66 13.24,11.43 20.34,28.27 23.98,45.03 -9.72,-1.19 -20.21,0.64 -27.73,7.27 -6.92,5.37 -10.01,13.83 -13.23,21.64 6.31,2.33 17.07,2.33 17.07,11.39 0.25,16.06 -8.84,30.21 -11.88,45.69 -4.19,18.6 0.82,38.1 10.53,54.17 -2.01,-0.41 -4,-0.78 -5.96,-1.12l3.47 0.53c-20.57,-36.12 -49.03,-69.28 -86.42,-88.58 5.41,-21.09 11.59,-42.08 19.95,-62.24 6.27,-14.83 13.53,-29.58 24.64,-41.44zm181.65 -0.36c7.48,-3.27 13.94,-8.26 19.25,-14.43 1.19,22.47 -1.15,45.6 -11.13,66.04 -2.79,-3.59 -5.65,-7.11 -8.55,-10.56 4.02,-13.26 4.93,-27.82 0.43,-41.05zm-224.67 16.64c9.72,-12.71 19,-26.36 32.55,-35.32 0.09,4.57 2.31,10.01 -1.19,13.87 -24.13,29.49 -34.08,67.05 -44.66,102.86 -9.55,-2.99 -18.9,-6.62 -28.64,-8.93 -12.25,-3.25 -24.94,-4.48 -37.07,-8.09 33.37,-10.75 58.9,-36.67 79.01,-64.39zm265.11 -37.79c1.02,8.37 2.19,16.73 3.45,25.08 -5.47,8.25 -10.7,16.66 -15.61,25.23 4.02,-16.78 8.82,-33.35 12.16,-50.31zm-67.43 -5.53c4.57,-2.45 9.16,-4.89 13.76,-7.31 -0.62,4.36 -1.21,8.75 -1.81,13.14 -3.77,-2.4 -7.79,-4.32 -11.95,-5.83zm142.47 -168.69c15.63,18.08 15.75,44.78 7.27,66.13 -6.7,16.59 -16.69,33.44 -32.94,42.13 10.79,-19.3 19.31,-40.05 22.93,-61.97 3.15,-15.25 2.69,-30.84 2.74,-46.29zm-78.56 -47.24c11.88,0.38 24.91,-0.23 35.59,5.66 5.66,8.62 12.29,16.96 16.48,26.36 -0.12,25.53 -3.02,51.45 -11.94,75.5 -2.37,5.51 -4.06,11.75 -8.71,15.86 4.37,-43.11 -5.64,-88.14 -31.42,-123.38zm-191.57 9.85c42.95,3.31 85.05,-7.91 127.63,-11.29 7.18,0.02 16.48,-4.16 21.79,2.69 33.39,34.5 48.27,83.66 47.24,130.98 -0.55,12.75 -5.87,24.93 -14.1,34.6 -17.51,21.12 -43.84,31 -65.78,46.38 -7,-0.32 -14.02,-0.16 -20.99,-0.18 0.25,1.64 0.73,4.98 0.99,6.63 -6.2,-2.31 -12.58,-4.74 -19.3,-4.42 -11.84,-0.43 -21.3,7.71 -30.19,14.38 9.37,4.83 20.36,8.21 26.9,17.01 -1.53,5.85 -6.79,9.3 -10.65,13.51 -7.06,6.69 -11.47,15.61 -14.56,24.73 -5.78,-32.32 -19.02,-66.7 -48.8,-84 1.65,-11.32 9.1,-20.53 15.61,-29.51 21.28,-27.45 48.07,-49.79 73.19,-73.49 -31.98,18.95 -59.43,44.37 -87.54,68.46 3.52,-38.56 32.25,-67.82 58.38,-93.69 -26.91,9.94 -47.07,32.36 -60.92,56.78 -4.14,6.85 -6.45,14.69 -11.09,21.23 -2.6,-10.79 -2.21,-22.06 -0.25,-32.89 5.65,-30.08 20.55,-57.19 35.45,-83.52 -32.5,21.71 -47.4,61.44 -49.09,99.24 -11.36,-24.5 -5.24,-52.41 2.65,-76.96 -10.01,9.03 -15.38,22.01 -18.24,34.95 -5.01,22.86 -1.99,46.43 2.38,69.12 -20.74,-22.63 -25.26,-54.6 -28.05,-83.98 -6.7,13.95 -5.67,30.11 -1.44,44.6 7.73,26.49 23.56,49.71 40.8,70.9 -12.5,9.08 -25.55,18.95 -32.64,33.08 -28.09,42.26 -68.02,79.52 -117.95,93.14 -23.13,-4.75 -46.19,-9.69 -69.25,-14.7 3.04,-9.55 5.6,-19.24 7.56,-29.07 -5.85,0.07 -12.14,1.67 -17.62,-0.94 -4.09,-1.89 -3.45,-7.04 -4.64,-10.65 -3.77,1.42 -7.54,2.84 -11.32,4.23 -0.75,-2.49 -1.5,-4.98 -2.24,-7.47 -1.23,-0.85 -3.65,-2.52 -4.86,-3.36 11.86,-17.31 16.8,-38.59 14.74,-59.39 34.42,-38.44 70.88,-75.02 108.5,-110.31 2.38,-1.92 4.76,-3.82 7.13,-5.74 -45.83,15.02 -85.12,43.94 -122.95,72.94 -6.12,-15.82 -15.08,-31.56 -12.66,-49.21 10.19,4.66 21.05,8.3 32.41,8.48 21.1,1.35 40.83,-7.95 59.07,-17.49 42.85,-23.2 82.17,-52.34 124.52,-76.41 22.13,-8.87 46.63,-9.46 70.18,-9.39zm-311.64 -135.91l2.85 -0.51c11.11,5.83 12.14,22.98 25.17,26.86 10.77,3.66 20.21,-11.15 30.33,-3.93 9.01,9.1 12.55,22.47 14.13,34.79 -1.44,9.94 -13.67,11.54 -21.62,9.23 -6.08,-1.25 -8.03,-7.75 -10.24,-12.66 -3.57,-9.16 -9.26,-17.74 -17.56,-23.22 -7.75,-5.1 -13.42,-12.55 -18.79,-19.93 -2.03,-3.2 -4.64,-6.63 -4.27,-10.63zm-296.69 -3.71c8.73,-3.47 12.75,-14.78 22.97,-15.4 7.43,-1.37 16.46,2.17 18.17,10.17 3.29,10.67 -6.1,19.41 -6.81,29.67 -0.73,5.67 2.1,10.88 3.93,16.04 -4.02,-1.57 -8.96,-2.1 -11.77,-5.76 -6.38,-9.5 2.7,-22.85 -4.71,-31.7 -10.83,-6.44 -22.17,6.9 -33.42,1.44 0.07,-4.36 0.76,-8.66 3.52,-12.16 1.24,3.93 3.45,7.64 8.12,7.7zm387.91 -8.29c7.96,-4.78 16.35,-8.78 24.99,-12.14 -4.23,11.36 -10.91,23.77 -23.32,27.59 -8.62,2.12 -17.78,0.96 -26.19,4.02 -12.69,3.25 -23.66,11.16 -36.42,14.01 -5.34,0.28 -7.49,-5.28 -9.46,-9.21 9.24,2.58 18.01,-1.76 26.77,-4.04 8.68,-2.5 17.46,-4.83 25.78,-8.39 6.65,-2.84 11.73,-8.14 17.85,-11.84zm-19.79 -5.42c6.24,-2.1 12.66,-3.66 19.06,-5.23 -2.58,4.41 -5.92,8.43 -10.45,10.94 -10.67,6.33 -20.73,15.34 -33.64,16.19 -7.7,0.57 -14.84,4.07 -22.54,4.45 -2.12,-2.72 -1.12,-7.08 2.17,-8.34 6.65,-4.3 15.16,-2.15 22.33,-4.91 8.23,-3.41 14.63,-10.15 23.07,-13.1zm-203.39 -55.48c19.22,4.6 38.36,16.92 44.41,36.64 2.68,9.72 5.4,21.24 -0.36,30.36 -5.81,8.5 -14.84,14.47 -19.55,23.77 -4.36,7.61 -4.8,16.6 -4.5,25.14 -7.54,-5.57 -17,-7.03 -26.15,-7.26 4.83,5.87 10.88,11.49 12.09,19.43 1.42,10.46 2.82,21.94 -1.53,31.93 -2.6,5.32 -12.93,8.93 -15.93,2.44 1.19,-12.48 8.85,-23.75 7.91,-36.52 -0.32,-4.96 -3.86,-9.51 -8.78,-10.61 -6.74,-1.51 -13.53,0.71 -20.02,2.35 5.28,3.09 12.96,5.17 13.94,12.23 1.62,13.19 -10.05,22.06 -15.43,32.76 -6.67,14.06 10.84,24.5 8.62,38.76 -13.49,3.3 -20.05,-10.92 -25.6,-20.34 -0.89,0 -2.65,0.02 -3.54,0.02 -1.42,6.66 -2.56,13.47 -2.4,20.28 2.95,7.5 9.35,13.03 12.41,20.5 6.74,15.59 0.43,33.08 4.57,49.1 6.01,14.26 18.45,24.69 30.86,33.33 13.44,2.05 27.4,0.48 41.03,0.71 -2.86,-8.44 -5.42,-17.24 -4.53,-26.22 1.28,-14.59 7.66,-28.07 14.1,-41.01 4.67,-9.44 10.36,-18.9 10.91,-29.67 0.52,-7.86 -2.4,-15.36 -3.18,-23.08 -0.64,-5.08 -0.78,-11 -5.05,-14.54 -2.77,-2.58 -6.86,-2.13 -10.26,-2.79 -0.37,4.69 1.46,10.77 -2.91,14.15 -4.04,4.09 -12.75,2.99 -13.48,-3.48 0.41,-11.88 12.09,-18.9 15.08,-29.89 1.88,-6.04 -0.02,-12.32 -0.91,-18.36 7.54,0.6 15.43,-0.87 21.07,-6.26 8.07,-7.02 11.32,-17.69 13.24,-27.86 7.72,17.78 9,37.83 9.3,57.05 0.62,24.59 -4.43,49.37 -15.45,71.41 -8.02,16.09 -18.13,31.72 -20.76,49.87 -2.74,15.54 0.14,31.34 4.37,46.33 -11.18,0.69 -22.9,5.53 -33.71,0.6 -8.26,-3.34 -17.95,-3 -25.12,-8.78 -14.68,-10.31 -29.45,-20.89 -41.51,-34.24 -5.22,-6.26 -11.02,-13.44 -10.27,-22.1 0.55,-14.73 6.29,-28.6 7.43,-43.25 2.31,-19.2 -5.19,-37.51 -10.9,-55.41 -3.29,-9.67 -3.66,-19.93 -4.57,-29.99 6.81,10.13 11.81,23.96 24.84,27.5 6.77,0.05 8.05,-7.86 8.37,-13.1 1.42,-12.61 -4.55,-24.2 -9.6,-35.31 -2.77,-6.26 -5.83,-13.88 -1.92,-20.34 4.85,-8.92 11.38,-17.28 13.07,-27.57 1.63,-11.02 1.67,-22.9 -3.52,-33.05 -3.38,-7.36 -9.23,-13.08 -14.58,-18.97 9.88,0.04 20.16,3.79 25.69,12.38 9.53,14.52 9.37,33.22 5.42,49.58 -1.39,8.67 -4.53,19.57 2.72,26.45 10.01,5.94 23.59,1.94 31.06,-6.36 10.33,-11.7 13.12,-28.2 11.5,-43.33 -1.42,-16.55 -9.37,-31.5 -17.99,-45.38zm-89.17 -18.15c9.06,0.19 17.38,-3.47 25.49,-7.01 -3.66,10.1 -13.83,14.65 -23.22,17.96 -9.72,3.07 -9.7,15.84 -4.99,23.14 5.51,11.95 20.44,12.98 28.92,21.92 7.56,6.9 8.46,19.27 2.97,27.68 -4,6.69 -11.11,10.44 -17.49,14.49 3.3,-9.12 7.46,-19.23 2.79,-28.71 -6.1,-12.18 -20.34,-15.64 -32.02,-20.21 -7.95,-2.9 -17.67,-7.65 -17.99,-17.44 0.02,-18.05 18.52,-31.59 35.54,-31.82zm163.64 -28.27c3.38,-0.21 6.74,-0.39 10.13,-0.53 2.63,7.34 10.69,10.4 13.67,17.15 -10.02,-1.33 -18.88,-7.89 -23.8,-16.62zm161.08 -79.43c5.92,-7.91 14.51,-15.34 24.94,-15.29 6.72,-0.05 12.09,4.48 17.07,8.41 -0.66,1.46 -1.97,4.41 -2.63,5.87 -7.54,-2.42 -17.32,-2.67 -22.72,4.1 -3.06,3.58 -1.23,8.16 0.25,11.95 -5.37,3.5 -10.81,6.88 -16.34,10.06 -1.51,-2.47 -3,-4.96 -4.48,-7.43 5.78,-2.01 11.68,-3.68 17.6,-5.26 -4.48,-4.25 -9.03,-8.39 -13.69,-12.41zm123.36 -114.17c9.17,-14.22 17.49,-28.96 26.15,-43.48 2.38,23.57 5.99,47.09 6.26,70.82 0.09,14.44 -6.63,27.51 -10.38,41.14 -2.24,7.82 -2.1,16.02 -3.19,24.02 -1.9,8.64 -10.38,12.99 -17.56,16.69 8.64,9.6 11.09,22.74 12.85,35.11 2.58,20.57 2.88,41.37 1.8,62.06 3.52,-2.36 7,-4.71 10.52,-7.05 2.24,14.31 1.05,28.78 0.77,43.21 -23.49,14.65 -45.73,31.15 -68.18,47.29 12.27,-19.77 27.18,-37.81 42.58,-55.23 6.31,-7.33 10.75,-16.91 9.63,-26.79 -0.51,-7.01 -4.6,-13 -8.74,-18.42 -1.78,12.37 2.91,26.26 -4.43,37.35 -12.53,20.6 -29.19,38.15 -44.23,56.85 -17.99,22.65 -26.17,51.43 -44.53,73.8 -1.64,-12.38 -0.27,-24.89 0.99,-37.23 0.2,-8.59 7.91,-13.67 13.19,-19.36 9.82,-9.42 17.83,-21.65 18.85,-35.54 1.42,-12.44 -1.3,-27.96 -13.41,-34.31 -11.84,-5.65 -26.52,-5.21 -38.11,0.91 -10.88,6.08 -16.34,17.78 -21.89,28.34 -4.46,8.83 -11.02,16.28 -16.55,24.39 5.21,-1.92 10.42,-4.29 14.42,-8.25 9.42,-8.78 12.5,-21.96 20.55,-31.77 8.41,-10.33 23.77,-11.63 35.79,-7.98 12.28,4.69 13.81,20.3 11.07,31.41 -4.58,15.95 -21.4,23.38 -29.06,37.37 -7.45,13.74 -1.85,29.97 -6.05,44.48 -4.64,16.3 -28.69,23.93 -40.87,11.32 -11.07,-8.42 -15.29,-23.14 -13.92,-36.53 9.69,-2.42 20.98,1.74 29.35,-5.03 14.01,-9.44 18.26,-27.11 30.67,-38.01 6.86,-6.79 15.86,-11.54 21.03,-19.93 3.91,-6.06 4.05,-15.66 -2.51,-19.96 -8.44,-5.23 -20.55,-3.72 -27.64,3.25 -10.44,9.6 -11.91,25.64 -23.5,34.28 -8.66,7.39 -20.11,9.42 -30.72,12.51 -13.32,4.89 -25.03,15.38 -40,14.85 -10.35,0.19 -21.35,-8.57 -31.04,-1.66 -6.06,8.32 -1.32,18.53 3.13,26.37 -14.99,-12.5 -18.69,-33.28 -32.45,-46.76 -14.86,-13.81 -38.04,-15.13 -50.79,-31.71 -8.07,-9.39 -4.07,-22.94 -9.88,-33.3 -5.1,-10.08 -15.38,-15.52 -24.52,-21.3 -3.68,-2.65 -8.92,-6.93 -6.43,-12.05 3.82,-5.35 10.79,-6.63 16.89,-7.4 17.42,-1.76 35.73,1.32 50.86,10.4 -20.89,-0.48 -42.38,-1.81 -62.65,4.32 8.89,1.62 17.94,2.03 26.95,2.62 -3.86,6.27 -6.97,17.06 1.9,20.65 22.58,10.4 48.98,3.68 69.99,-7.41 8.91,2.99 15.17,11.34 16.93,20.41 3.29,16.55 -0.06,33.53 -5.67,49.19 -2.74,8.34 4.19,16 11.55,18.74 9.55,-1.6 20.77,-4 28,4.39 0.59,-4.52 0.46,-9.09 -0.55,-13.55 -8.46,-2.86 -17.3,-7.11 -21.42,-15.52 -8.43,-16.78 0.32,-36.3 -6.26,-53.51 -5.08,-14.81 -18.13,-25.01 -31.7,-31.75 -34.13,-16.6 -72.76,-18.49 -108.74,-29.08 -3.27,-4.27 -4.2,-9.87 -6.03,-14.83 -3.29,-11.25 -7.61,-22.38 -8.57,-34.15 3.7,-10.49 13.55,-18.15 23.95,-21.42 11.96,-2.97 23.52,3.5 33.24,9.74 33.6,23.61 58.9,56.71 90.24,82.88 -2.63,-50.81 3.31,-103.93 28.25,-149.07 16.3,-29.63 44.75,-54.89 79.52,-58.27 -2.31,8.48 -5.19,17.74 -1.69,26.33 4.91,12.87 16.16,23.96 30.13,25.99 10.05,1.12 21.07,1.01 29.82,-4.75 5.24,-3.32 7.66,-9.31 10.61,-14.49 5.85,13.92 6.13,31.86 -6.06,42.53 20.19,25.76 25.42,60.76 18.81,92.28 8.16,-14.47 20.97,-27.52 37.97,-30.49 -2.42,-24.28 -12.2,-47.5 -11.98,-72.09 1.31,-14.34 9.67,-26.7 16.69,-38.86zm-4.21 32.02l0 0c-4.22,8.46 1.33,17.28 6.11,24.12 13.73,-7.37 15.17,-24.17 14.47,-38.06 -0.94,-0.51 -2.86,-1.53 -3.8,-2.04 -0.23,12.05 0.62,26.4 -9.92,34.72 -2.26,-5.23 -6.24,-10.99 -3.27,-16.8 6.91,-17.16 14.38,-34.17 22.97,-50.58 0.48,15.41 2.4,31.02 -0.98,46.24 -3.18,14.29 -9.74,27.48 -14.76,41.14 -2.86,-3.13 -5.9,-6.17 -9.67,-8.2 0.13,6.01 5.87,9.41 8.59,14.24 3.36,4.16 2.4,9.71 3.13,14.65 7.09,-1.42 2.15,-11.41 1.76,-16.23 1.74,-12.04 8.85,-22.58 12,-34.31 6.72,-18.51 4.12,-38.4 4.09,-57.64 -0.75,-3.71 0.94,-9.08 -3.61,-10.84 -9.73,19.52 -19.04,39.32 -27.11,59.59zm-109.96 4.87l0 0c0.23,-2.06 0.66,-6.17 0.89,-8.23 -18.22,8 -33.05,22.31 -43.55,39.04 -14.85,22.81 -22.35,49.24 -32.86,74.11 -3.46,7.33 -7.09,15.56 -14.45,19.72 -6.86,3.7 -13.92,-0.91 -20.02,-3.88 1.25,7.26 3.17,16.77 11.56,18.81 9.74,1.57 18.01,-5.81 23.61,-12.92 23.18,-30.42 34.98,-70.03 66.57,-93.6 17.46,-13.55 40.5,-8.34 60.91,-9.26 -3.04,-4.96 -8.02,-8.06 -12.55,-11.49 3.82,-3.14 8.46,-4.96 12.99,-6.86 -3.32,-1.92 -6.86,-3.52 -10.41,-4.98 3.59,-2.63 7.57,-4.92 10.04,-8.71 -17.9,-4.76 -37.03,-1.4 -52.73,8.25zm-25.12 66.31l0 0c-11.23,10.28 -21.6,21.99 -28.21,35.82 -2.35,4.34 -0.69,10.99 -5.78,13.39 1.37,14.58 -0.28,29.46 2.37,43.87 0.96,-12.42 2.82,-24.71 3.98,-37.1 3.7,1.99 7.57,3.61 11.55,5.03 -2.82,3.33 -5.9,6.44 -9.17,9.34 9.26,15.5 9.74,34.11 12.16,51.5 14.24,-37.42 35.22,-75.06 69.92,-96.98 7.79,-5.78 18.01,-5.76 26.17,-10.56 -7.84,-2.1 -15.93,-1.4 -23.77,0.2 3.02,-8.71 7.7,-16.61 12.57,-24.39 -11.4,-6.67 -24.89,-8.2 -37.85,-7.95 3.29,-4.53 7.36,-8.37 11.38,-12.23 -17.32,6.15 -31.7,18.08 -45.32,30.06zm100.27 70.7l0 0c-1.39,21.23 1.63,42.63 1.05,63.95 4.87,-19.93 5.24,-40.68 9.44,-60.73 7.29,-15.25 17.12,-29.23 24,-44.69 -11.97,13.4 -23.29,27.43 -34.49,41.47zm-131.34 75.04l0 0c5.15,3.95 12.89,6.81 13.63,14.24 1.12,8.66 -4.83,15.82 -9.56,22.38 10.84,-2.93 19.29,-13.7 16.96,-25.22 -0.73,-9.98 -12.8,-12.86 -21.03,-11.4zm-25.46 19.59l0 0c-0.78,0.32 -2.33,0.96 -3.11,1.28 -1.55,5.92 5.08,7.31 9.19,8.87 5.78,0.96 6.72,11.08 13.53,8.32 6.45,-0.41 10.17,-8.94 5.3,-13.56 -6.35,-6.31 -16.64,-6.9 -24.91,-4.91zm365.93 397.67c3.54,-0.71 7.95,-2.05 11.08,0.62 2.95,2.81 4.02,6.95 5.12,10.77 0.85,8.11 0.8,17.02 -4,24.04 -4,6.56 -11.24,12.3 -10.33,20.8 -0.18,4.37 4,8.6 8.5,7.36 8.37,-1.55 13.72,-9.19 16.32,-16.77 4.89,-13.61 9.01,-28.92 3.27,-42.95 6.22,0.64 13.51,0.36 18.04,5.5 7.77,8.14 8.38,20.39 7.91,31.02 -0.53,11.61 -7.48,22.01 -17.22,28.09 -5.35,4.26 -14.95,8.62 -11.86,17.1 4.16,6.86 13.88,5.58 20.05,2.38 7.15,-2.52 4.16,-14.31 11.56,-15.96 0.57,0.62 1.72,1.86 2.31,2.47 2.31,10.45 0.44,21.26 -0.41,31.8 -1.69,11.68 -3.66,24.52 -12.43,33.21 -11.82,11.91 -24.46,23.36 -33.33,37.78 -9.35,13.37 -4.96,30.49 -7.32,45.67 -16.11,-2.56 -32.16,-7.88 -45.21,-17.92 -14.35,-10.31 -21.55,-28.68 -19.2,-46.08 0.69,-17.44 9.67,-33.01 12.46,-49.97 1.62,-9.6 -7,-15.68 -13.51,-20.82 2.95,-1.9 5.74,-4.25 9.19,-5.26 8.3,0.78 12.82,9.44 20.66,11.5 2.77,0.6 5.88,-0.94 6.15,-3.98 2.1,-13.37 -2.6,-28.59 5.94,-40.39 8.42,-10.19 19.91,-19.13 22.63,-32.77 0.76,-7.5 -7.11,-10.93 -12.45,-13.97 1.53,-0.82 4.54,-2.44 6.08,-3.27zm-14.61 81.44l0 0c1.99,9.44 -4.07,19.43 -13.35,22.06 -3.4,-4.36 -8.05,-7.22 -13.42,-8.48 3.11,11.64 4.51,24.73 -2.01,35.54 -8.23,14.27 -14.26,32.32 -6.72,48.14 8.71,17.42 26.84,27.18 44.03,34.61 -10.11,-7.8 -20.33,-15.54 -28.87,-25.08 -7.07,-7.81 -14.36,-17.73 -12.62,-28.89 1.39,-11.38 11.47,-18.4 16.32,-28.13 3.13,-6.22 1.55,-13.17 0.36,-19.62 8.69,-2.37 17.74,-6.58 22.04,-15.01 4.62,-9.28 0.27,-19.57 -0.18,-29.24 -0.85,-8.25 2.69,-15.95 5.62,-23.43 -12.25,8.12 -12.8,24.37 -11.2,37.53zm152.73 -25.3c5.21,-8.55 9.72,-17.6 16.07,-25.37 31.55,4.16 62.88,9.76 94.38,14.24 -49.6,70.36 -91.98,145.42 -134.45,220.16 -44.8,79.89 -88.43,160.44 -130.67,241.68 0.38,-5.61 1.37,-11.16 2.78,-16.58 23.21,-98.26 50.73,-195.66 86.18,-290.26 18.67,-49.33 39.47,-98.04 65.71,-143.87zm-18.35 54.86l0 0c-20.14,41.44 -36.73,84.5 -52,127.96 -13.97,40.66 -27.43,81.55 -38.59,123.08 28.44,-70.83 57.7,-141.37 89.74,-210.65 15.27,-32 29.92,-64.55 49.6,-94.15 19.89,-2.81 39.8,-5.62 59.55,-9.21 -21.56,-2.95 -43.13,-5.81 -64.73,-8.51 -17.63,21.79 -31.16,46.47 -43.57,71.48zm-1161.48 -46.2l6.58 32.48 0.14 -24.43c173.73,1.6 346.07,7.11 519.62,12.82l-526.34 -20.87zm46.49 378.07c46.95,-27.41 92.89,-56.53 139.02,-85.31 82.61,-52.23 164.85,-105.16 243.93,-162.63 31.14,-23.18 62.7,-46.28 89.42,-74.63 -93.48,-4.61 -187.02,-8.29 -280.51,-12.59l-191.86 335.16zm1276.59 -271.37c39.77,-10.65 81.65,-11.27 122.4,-6.83 -30.47,30.74 -65.62,56.57 -101.05,81.35 14.15,25.37 19.68,55.63 13.99,84.23 -6.61,35.7 -28.73,66.35 -54.52,90.99 49.54,-11.04 97.95,-28.52 141.81,-54.24 -15.77,14.45 -34.1,25.9 -51.72,37.97 -35.27,22.63 -72.42,43.82 -113.26,54.45 -28.28,7.56 -59.66,5.3 -85.35,-9.26 -24.69,-13.9 -43.68,-36.94 -54.59,-62.93 26.08,21.01 59,31.09 91.48,37.01 26.63,-21.56 51.52,-46.65 66.7,-77.79 11.81,-23.72 17.05,-51.65 10.19,-77.64 -44.07,27.17 -90.15,51.04 -137.78,71.29 -21.17,8.82 -42.43,17.67 -64.42,24.23 24.55,-15 49.72,-29.01 73.86,-44.67 37.48,-24.16 75.01,-48.91 107.59,-79.59 6.95,-7.08 14.9,-14.03 17.99,-23.79 5.46,-14.97 11.36,-29.76 16.68,-44.78zm8.09 5.97l0 0c-7.31,15.95 -12.48,32.89 -19.91,48.8 -7.06,10.24 -17.07,17.99 -26.21,26.26 -15.34,13.58 -32.12,25.42 -47.52,38.91 23.56,-16.53 47.08,-33.24 68.87,-52.07 6.05,-5.44 12.59,-10.86 15.95,-18.47 6.06,-12.71 12.14,-25.4 18.67,-37.85 16.19,-4.8 32.33,-9.88 48.85,-13.44l-0.16 -0.94c-19.59,1.99 -39.75,2.6 -58.54,8.8zm-840.26 46.7c22.47,-1.12 44.96,-1.28 67.4,-2.31 4.92,0.04 10.61,-0.99 14.54,2.79 21.03,15.74 42.38,31.01 63.32,46.9 -55.84,29.05 -112.16,57.46 -170.75,80.6 -11.59,11.93 -21.67,25.32 -32.73,37.78 -9.14,11.24 -19.41,21.6 -27.73,33.46 64.42,-9.69 128.97,-20.84 191.37,-39.88l0.55 1.09c-45.03,23.84 -91.34,45.4 -139.02,63.39 -12.07,4.2 -24,9.16 -36.48,12.07 -18.29,-7.8 -35.5,-18.02 -53.47,-26.59 13.83,-33.74 32.07,-65.44 50.38,-96.91 22.77,-38.38 47.32,-75.66 72.62,-112.39zm3.93 4.54c-16.89,26.91 -34.29,53.49 -50.54,80.78 17.05,-23.84 33.99,-47.77 50.81,-71.75 1.74,-1.89 2.98,-5.46 6.13,-4.98 18.28,-0.18 36.57,0.12 54.86,-0.09 4.36,0.05 9.21,-0.57 12.87,2.4 11.68,7.36 22.99,15.34 34.97,22.24 -12.6,-10.79 -26.22,-20.3 -39.02,-30.86l-70.08 2.26zm-9.65 92.92l0 0c23.62,-12.23 45.97,-26.83 67.68,-42.13 7.32,-5.8 15.78,-10.58 21.45,-18.14 -10.15,-2.61 -20.3,-5.24 -30.34,-8.21 -19.72,22.72 -39.4,45.49 -58.79,68.48zm219.21 -99c20.04,5.65 40.16,10.95 60.2,16.55 -34.72,47.84 -63.36,102.13 -72.3,161.15 30.31,-22.77 59.07,-47.57 87.53,-72.6 36.04,-32.13 71.11,-65.64 101.16,-103.54 16.12,3.82 31.57,10.7 47.46,15.63 -29.22,32.3 -62.54,60.51 -96.44,87.69 -57.08,45.12 -116.34,87.49 -177.37,127.13 -4.48,-11 -9.01,-21.94 -13.44,-32.94 -2.59,-4.91 -0.62,-10.38 0.06,-15.47 11.59,-63.94 33.35,-125.93 63.14,-183.6zm3.22 7.04l0 0c-22.86,41.58 -37.28,87.11 -49.05,132.88 -2.13,9.02 -5.12,17.92 -5.78,27.24 2.97,-13.53 7.54,-26.63 11.68,-39.82 12.66,-37.69 26.85,-75.29 47.86,-109.23 9.8,-2.56 20.89,0.52 31.22,-0.53 -11.82,-4.04 -23.77,-7.75 -35.93,-10.54zm175.75 2.43l0 0c-36.23,43.54 -77.83,82.19 -118.9,121.05 11.75,-7.57 21.85,-17.32 32.68,-26.1 30.56,-26.52 61.03,-53.69 86.34,-85.42 8.29,-0.89 16.66,-0.94 25,-0.98 -8.16,-3.48 -16.68,-5.88 -25.12,-8.55zm65.12 47.4l0 0c-21.09,39.16 -46.05,76.05 -72.11,112.05 40.84,-44.57 76.62,-94.31 102.65,-149.01 10.79,-0.36 21.6,0.32 32.39,-0.41 -13.05,-3.88 -26.38,-6.95 -39.7,-9.83 -7.84,15.59 -14.7,31.87 -23.23,47.2z"/>
   <path class="fil2" d="M593.09 889.82c16.82,-0.23 33.67,0 50.49,-0.14 0.48,1.35 1.47,4.02 1.94,5.37 0.46,8.26 3.41,16.05 5.63,23.96 4.02,14.38 8.11,28.75 11.98,43.18 -12.04,0.15 -23.85,0.05 -35.89,0.66 -0.82,-4.7 -1.36,-8.96 -1.74,-13.69 -4.77,0.02 -9.55,0.04 -14.33,0.09 -0.57,4.27 -1.12,8.57 -1.67,12.87 -10.31,0.27 -20.64,-0.09 -30.95,0.52 -1.41,0.07 -4.27,0.21 -5.71,0.3 6.44,-24.46 13.76,-48.69 20.25,-73.12zm-96.23 0.3c26.99,-0.89 54.06,-0.19 81.08,-0.37 -0.45,4.05 -0.89,8.11 -1.31,12.16 -7.22,0.05 -14.47,-0.43 -21.62,0.66l-0.39 59.27 -34.79 0.37c0.44,-18.24 -0.14,-36.48 0.32,-54.7 0.07,-1.9 0.14,-3.77 0.23,-5.65 -8.66,0 -14.52,-0.31 -23.09,1.31 -0.13,-4.37 -0.27,-8.73 -0.43,-13.05zm-50.22 -0.05c12.28,-0.69 24.57,-0.3 36.87,-0.27 -0.91,20.16 -0.62,40.04 -0.5,60.2 1.26,-0.13 3.77,-0.39 5.03,-0.5 5.48,-0.53 11.01,-0.39 16.52,-0.34 -0.02,0.96 -0.07,2.9 -0.09,3.88 -0.09,2.93 -0.16,5.88 -0.2,8.83 -17.51,1.14 -35.07,-0.28 -52.55,0.82 -1.22,0.07 -3.64,0.2 -4.85,0.27 -0.21,-24.29 0.25,-48.61 -0.23,-72.89zm-75.79 -0.34c21.28,-0.07 42.58,0.09 63.88,-0.09 0.17,5.31 -0.09,7.91 -0.75,13.18 -8.85,-0.02 -17.72,0.05 -26.56,0.21 0,5.17 -0.02,10.33 -0.05,15.52 6.93,-0.27 13.82,-0.3 20.76,-0.18 -0.3,4.11 -0.62,8.23 -0.89,12.34 -6.63,0.12 -13.26,0.21 -19.89,0.25 0.07,6.4 0.11,12.83 0.21,19.27 1.07,-0.18 3.2,-0.57 4.27,-0.75 7.66,-0.8 15.38,-0.23 23.09,-0.23 -0.33,4.35 -0.61,8.7 -0.9,13.05 -19.08,0.27 -38.19,-0.57 -57.23,0.48 -1.51,0.02 -4.48,0.09 -5.97,0.11 0.05,-24.38 0,-48.77 0.03,-73.16zm-101.08 -0.07c19.8,0.16 39.59,0 59.36,0.05 7.8,-0.21 15.45,2.99 20.71,8.75 6.35,12.75 4.48,27.43 4.25,41.19 0.14,12.02 -10.72,21.9 -22.42,22.31 -20.59,1.25 -41.17,-0.34 -61.97,0.98 0.05,-24.43 -0.09,-48.85 0.07,-73.28zm36.57 14.7c0.03,14.91 -0.52,29.83 0.37,44.73 1.28,-0.71 3.82,-2.17 5.07,-2.9l0.5 2.56c1.51,-1.15 4.53,-3.41 6.04,-4.55 1.37,-11.73 0.02,-23.64 0.59,-35.43 -2.26,-5.19 -8.09,-3.96 -12.57,-4.41zm311.78 -4.44c-1.94,12.48 -3.64,24.99 -5.08,37.53 1.38,-0.29 4.12,-0.89 5.49,-1.18 1.21,0.13 3.66,0.41 4.87,0.54 -1.56,-11.37 -2.08,-26.73 -5.28,-36.89z"/>
  </g>
 </g>
</svg>
