<?xml version="1.0" encoding="UTF-8"?>
<!DOCTYPE svg PUBLIC "-//W3C//DTD SVG 1.1//EN" "http://www.w3.org/Graphics/SVG/1.1/DTD/svg11.dtd">
<!-- Creator: CorelDRAW -->
<svg xmlns="http://www.w3.org/2000/svg" xml:space="preserve" width="2000px" height="1600px" version="1.1" style="shape-rendering:geometricPrecision; text-rendering:geometricPrecision; image-rendering:optimizeQuality; fill-rule:evenodd; clip-rule:evenodd"
viewBox="0 0 2000 1600"
 xmlns:xlink="http://www.w3.org/1999/xlink">
 <defs>
  <style type="text/css">
   <![CDATA[
    .fil0 {fill:#1B2858}
   ]]>
  </style>
 </defs>
 <g id="Capa_x0020_1">
  <metadata id="CorelCorpID_0Corel-Layer"/>
  <path id="Navy_x0020_Midshipmen.cdr" class="fil0" d="M1527.59 80l40.89 124.37 131.08 0.07 -105.74 77.55 40.67 125.44 -106.76 -77.47 -106.48 77.42 40.58 -125.19 -106.38 -77.71 131.66 -0.2 40.48 -124.28zm-1227.15 440.44l0 0 405.04 0.02 329.17 536.62 0 -356.62 -95.56 -0.09 0.02 -179.89 405.71 -0.04 0.09 179.93 -73.78 0.09 -0.07 815.56 -281.53 -0.43 -371.29 -612.96 0.05 437.33 87.45 0.06 0.04 179.98 -405.34 0 0 -180 81.3 -0.04 0.04 -639.44 -81.34 -0.07 0 -180.01z"/>
 </g>
</svg>
