<?xml version="1.0" encoding="UTF-8"?>
<!DOCTYPE svg PUBLIC "-//W3C//DTD SVG 1.1//EN" "http://www.w3.org/Graphics/SVG/1.1/DTD/svg11.dtd">
<!-- Creator: CorelDRAW -->
<svg xmlns="http://www.w3.org/2000/svg" xml:space="preserve" width="2000px" height="1600px" version="1.1" style="shape-rendering:geometricPrecision; text-rendering:geometricPrecision; image-rendering:optimizeQuality; fill-rule:evenodd; clip-rule:evenodd"
viewBox="0 0 2000 1600"
 xmlns:xlink="http://www.w3.org/1999/xlink">
 <defs>
  <style type="text/css">
   <![CDATA[
    .fil2 {fill:#1F3B73}
    .fil0 {fill:#BDBFC2}
    .fil1 {fill:#FEFEFE}
    .fil3 {fill:#FFD104}
   ]]>
  </style>
 </defs>
 <g id="Capa_x0020_1">
  <metadata id="CorelCorpID_0Corel-Layer"/>
  <g id="NC_x0020_Greensboro_x0020_Spartans.cdr">
   <path class="fil0" d="M1057.95 80l36.19 0c23.67,2.42 47.37,5.56 70.26,12.31 47.96,13.5 92.34,38.58 129.69,71.43 56.28,49.31 96.48,114.57 124.28,183.5 18.63,-3.38 37.27,-6.7 55.91,-10.02 25.5,-5.04 51.4,-7.86 77.35,-9.1 25.12,-0.87 50.56,-0.26 75.14,5.5 20.09,4.79 39.45,15.63 51.2,33.02 5.79,8.18 9.58,17.53 14.51,26.19 10.58,20.71 12.14,44.63 11.75,67.48 -0.79,30.46 -6.37,60.48 -10.65,90.58 -1.35,10.97 -4.51,22.03 -2.22,33.11 6.42,35.77 21.1,69.38 36.79,101.94l0 0.76c-25.32,26.9 -48.09,56.86 -63.58,90.56 -7.13,14.55 -7.93,30.9 -10.44,46.62 -5.37,37.24 -10.82,74.46 -16.16,111.7 -3.55,23.02 -6.88,46.25 -5.82,69.62 2.09,56.88 17.62,112.02 31.01,167 -71.18,-0.79 -142.37,-1.92 -213.55,-2.89 -40.19,-0.33 -80.35,-1.42 -120.52,-1.42 -48.62,85.52 -109.7,164.69 -184.6,228.84 -37.62,31.95 -78.44,60.49 -122.85,82.22 -52.9,26.04 -111.59,39.39 -170.42,41.05l-22.85 0c-18.98,-1.81 -38.04,-3.56 -56.61,-8.1 -41.23,-9.38 -79.8,-28.5 -114.07,-53.02 -37.43,-26.83 -69.6,-60.71 -95.53,-98.71 -22.23,-32.56 -39.56,-68.21 -54.22,-104.74 -14.11,-35.17 -25.25,-71.44 -35.25,-107.97 -30.27,-0.11 -60.69,-0.9 -90.64,-5.6 -19.9,-4.42 -38.76,-13.66 -54.67,-26.4 -17.03,-13.66 -27.36,-34.31 -31.58,-55.45 -3.43,-17.21 -3.09,-34.96 -0.64,-52.28 11.89,-83.55 24.19,-167.03 35.84,-250.6 3.04,-27.23 2.41,-55.53 -6.74,-81.59 -6.74,-15.68 -17.32,-29.32 -27.78,-42.66 -7.19,-9.32 -15.86,-17.32 -24.63,-25.09l0 -0.36c85.94,-19.23 171.78,-38.9 257.72,-58.15 35.98,-83.65 81.94,-163.21 138.6,-234.59 53.2,-67.13 116.49,-127.15 190.34,-171.09 60.43,-35.98 128.82,-60.22 199.44,-63.6z"/>
   <path class="fil1" d="M1475.44 440.05c21.62,-2.82 43.67,-4.63 65.33,-1.27 11.84,1.98 24.24,5.73 32.69,14.72 5.75,5.64 5.11,14.43 5.6,21.82 -0.08,30.11 -4.79,59.94 -9.25,89.63 -2.11,15.41 -0.89,31.32 4.19,46.06 -31.92,3.49 -63.87,6.74 -95.84,9.82 4,-27.61 7.93,-55.22 11.88,-82.84 1.77,-11.89 1.35,-24.5 -3.58,-35.61 -3.52,-7.85 -10.44,-14.53 -19.11,-16.1 -13.52,-2.43 -27.17,4.19 -36.31,13.9 -13.4,14.18 -19.96,33.53 -22.19,52.62 -18.23,126.76 -36.5,253.52 -54.75,380.29 -1.79,12.65 -4.36,25.54 -1.78,38.27 1.73,10.73 7.52,21.98 18.21,26.04 13.43,4.81 29.3,1.01 39.64,-8.68 13.39,-12.62 19.17,-31.09 21.99,-48.78 6.14,-43.34 12.65,-86.62 18.59,-129.97 -11.18,1.17 -22.36,4.71 -31.13,11.97 4.2,-28.91 8.29,-57.83 12.51,-86.74 41.82,-3.5 83.63,-6.94 125.44,-10.69 -6.91,12.14 -12.03,25.27 -14.84,38.96 -2.85,14.32 -4.36,28.87 -6.59,43.31 -8.45,59.32 -16.97,118.65 -25.44,177.99 -2.26,18.62 -0.87,37.89 5.4,55.66 -42.97,0.85 -85.92,1.95 -128.89,2.98 -19.93,0.25 -40.02,1.92 -59.79,-1.33 -12.97,-2.16 -26,-7.14 -35.15,-16.91 -9.5,-10.15 -13.86,-24.03 -15.1,-37.64 -1.78,-16.88 0.56,-33.8 3.07,-50.47 17.92,-124.44 35.84,-248.89 53.77,-373.33 3.53,-25.82 10.49,-52.1 26.22,-73.33 11.6,-16.02 28.6,-27.44 46.85,-34.59 21.84,-8.73 45.26,-12.22 68.36,-15.76zm-931.38 186.96l0 0c29.01,-5.19 57.97,-10.65 86.96,-15.95 -6.74,10.03 -12.04,21 -15.66,32.54 -6.05,18.54 -8.07,38.04 -10.91,57.24 -13.57,94.66 -27.21,189.31 -40.76,283.98 -2.39,16.24 -4.85,32.77 -11.67,47.84 -4.17,9.22 -10.65,17.51 -19.23,22.98 -10.22,6.59 -22.2,9.67 -34.06,11.7 -22.42,3.61 -45.18,3.72 -67.83,4.36 -14.16,-0.02 -29.03,0.56 -42.22,-5.42 -11.58,-5.59 -21.09,-16.21 -24.02,-28.87 -2.69,-10.96 -2.12,-22.44 -0.61,-33.53 13.94,-96.59 27.93,-193.18 41.85,-289.76 2.49,-19.81 3.75,-40.85 -4.18,-59.67 22.65,-3.9 45.09,-8.88 67.39,-14.37 -16.95,117.6 -34.01,235.18 -51.02,352.78 -1.82,9.42 -2.07,19.5 2.09,28.37 3.83,9.39 12.85,16.29 22.96,17.4 14.96,2.47 30.4,-5.28 38.28,-18.02 6.56,-9.83 9.21,-21.56 10.49,-33.14 17.43,-120.14 34.61,-240.33 52.15,-360.46zm322.44 -63.75l0 0c31.46,-6.88 62.89,-13.91 94.33,-20.84 -13.97,15.17 -18.08,36.07 -21.04,55.79 -17.45,123.81 -34.87,247.64 -52.31,371.47 -4.26,29.18 -8.94,59.48 -1.08,88.49 -27.53,0.95 -55.06,1.98 -82.58,2.65 -6.74,-69.42 -13.86,-138.8 -20.7,-208.21 -1.97,-18.38 -3.39,-36.81 -5.72,-55.14 -5.46,0.41 -10.93,0.71 -16.39,0.97 -9.82,64.78 -19.49,129.6 -29.07,194.42 -1.52,11.27 -3.91,22.53 -3.3,33.97 0.31,12.63 4.46,24.72 9.14,36.32 -33.51,0.67 -67,2.12 -100.51,2.82 5.39,-6.39 10.8,-12.87 14.62,-20.35 5.8,-10.86 8.5,-23.05 10.14,-35.15 16.74,-117.62 33.49,-235.25 50.28,-352.85 2.96,-20.5 7.85,-42.46 -0.76,-62.28 27.86,-5.48 55.66,-11.28 83.49,-16.87 9.76,83.02 19.47,166.04 29.42,249.03 4.49,0.05 8.99,0.04 13.49,-0.03 10.55,-69.77 21.03,-139.56 31.31,-209.39 1.7,-13.09 4.52,-26.3 3.01,-39.54 -0.55,-5.52 -3.04,-10.56 -5.77,-15.28zm289.79 -65.25l0 0c18.44,-3.14 37.21,-6.06 55.93,-4.06 10.75,1.3 22.54,5.36 28.11,15.37 6.37,11.51 5.65,25.3 4.32,37.95 -2.83,21.31 -6.19,42.56 -9.12,63.86 -1.76,13.5 -1.04,27.48 3.67,40.35 -27.4,3.98 -54.79,8.04 -82.19,12.1 3.01,-21.98 6.17,-43.95 9.19,-65.93 2.03,-13.59 4.15,-27.9 -0.08,-41.28 -2.46,-8.13 -9.31,-15.3 -18.07,-16.03 -11.37,-0.97 -22.68,3.84 -31.14,11.25 -14.34,12.55 -22.02,31.28 -24.32,49.92 -16.83,119.63 -33.73,239.24 -50.5,358.87 -0.83,12.64 0.17,25.99 5.76,37.55 3.72,7.62 11.53,12.8 19.98,13.45 11.84,1.67 23.68,-4.18 31.09,-13.23 9.8,-11.85 14.54,-27.02 16.8,-42.01 4.64,-32.31 9.06,-64.66 13.8,-96.96 27.17,-2.45 54.34,-4.83 81.52,-7.21 -13.08,20.08 -15.68,44.52 -18.95,67.69 -2.87,20.33 -5.43,40.7 -8.46,61.01 -3.06,18.81 -10.16,38.45 -26.01,50.23 -18.77,13.82 -42.67,17.42 -65.3,19.66 -18.49,1.49 -37.06,2.31 -55.6,2.01 -16.38,-0.61 -33.75,-2.63 -47.53,-12.27 -10.02,-6.86 -16.39,-18.02 -19.02,-29.72 -3.21,-13.98 -2.54,-28.52 -0.85,-42.64 16.12,-114.42 32.21,-228.81 48.33,-343.22 2.59,-20.9 6.6,-42.09 16.68,-60.81 10.42,-20.41 28.23,-36.56 49,-46.01 22.96,-10.83 48.25,-15.04 72.96,-19.89z"/>
   <path class="fil2" d="M933.37 154.77c58.15,-21.98 122.23,-30.21 183.59,-18.45 51.59,9.48 100.13,33.31 140.21,66.96 58.39,48.84 99.12,115.77 125.73,186.46 31.41,-6.74 62.85,-13.32 94.26,-20.02 24.02,-5.35 48.51,-8.36 73.07,-9.68 20.25,-0.63 41.72,-0.9 60.17,8.77 18.08,9.09 29.91,27.2 35.77,46.11 7.48,24.92 6.92,51.44 3.66,77 -2.58,18.07 -5.32,36.12 -7.98,54.19 -1.02,7.19 -2.52,14.4 -1.93,21.71 1.25,18.99 6.52,37.41 12.54,55.39 5.35,15.4 11.31,30.64 18.32,45.38 -22.44,27.21 -43.05,56.58 -56.16,89.53 -6.94,16.72 -8.24,34.91 -11.07,52.61 -5.92,39.81 -11.86,79.62 -17.65,119.45 -4.49,29.71 -7.78,59.82 -5.42,89.9 2.53,33.32 9.13,66.13 15.64,98.85 -22.06,0.71 -44.17,0.1 -66.24,0.34 -15.41,0.68 -30.82,0.21 -46.23,0.34 -17.21,-0.23 -34.4,0.63 -51.6,0.37 -26.7,-0.27 -53.38,0.61 -80.09,0.37 -15.29,-0.18 -30.55,0.24 -45.84,0.25 -32.22,59.79 -70.74,116.37 -116.19,166.94 -42.68,47.38 -91.45,89.74 -146.5,122.23 -58.35,34.41 -124.7,57.67 -192.92,58.62 -47.23,1.09 -94.66,-9.29 -137.18,-29.86 -31.76,-15.27 -60.76,-36.07 -85.96,-60.64 -33.48,-32.51 -60.35,-71.38 -81.45,-112.88 -22.64,-44.8 -38.78,-92.72 -49.62,-141.67 -30.47,-0.09 -60.94,0.08 -91.42,-0.09 -13.58,0.11 -27.02,-2.86 -39.6,-7.86 -13.92,-5.71 -27.42,-13.67 -36.7,-25.79 -13,-16.99 -18.11,-38.85 -17.74,-59.96 -0.25,-13.22 2.2,-26.23 3.99,-39.26 11.71,-81.52 23.53,-163.05 35.17,-244.58 3.93,-29.3 2.03,-60.09 -9.78,-87.48 -6.83,-15.92 -17.44,-30.09 -30.62,-41.31 82.69,-17.71 165.46,-35.02 248.17,-52.64 41.91,-99.54 99.52,-193.16 174.39,-271.35 56.81,-58.87 124.21,-109.22 201.21,-138.25zm513.51 269.09l0 0c-25.87,5.16 -51.8,13.76 -72.71,30.35 -19.89,15.3 -33.88,37.15 -42.78,60.4 -7.51,19.53 -11.25,40.24 -13.86,60.94 -17.68,122.41 -35.29,244.84 -52.79,367.28 -4.13,25.8 -6.06,53.23 3.23,78.17 5.87,16.14 18.37,29.93 34.54,36.15 23.43,9.26 49.15,6.79 73.78,6.63 54.46,-1.1 108.92,-1.84 163.38,-3 -10.4,-30.8 -16.75,-64.02 -11.24,-96.44 9.17,-63.83 18.16,-127.69 27.41,-191.51 5.64,-26.69 19.59,-50.71 34.21,-73.43 -56.57,5.25 -113.14,10.55 -169.72,15.56 -7.14,47.74 -13.75,95.55 -20.76,143.32 9.12,-10.15 19.85,-19.37 32.89,-23.96 -4.78,35.03 -10.08,70 -14.83,105.03 -2.14,13.62 -8.14,27.83 -20.34,35.27 -7.55,4.52 -18.75,4.67 -24.67,-2.55 -5.9,-7.72 -6.57,-18.1 -5.39,-27.4 19.18,-133.03 38.32,-266.05 57.47,-399.07 1.62,-10.34 4.88,-20.94 12.08,-28.79 5.86,-6.54 14.94,-10.43 23.74,-8.99 6.39,1.14 11.41,6.48 13.35,12.52 3.08,9.12 1.23,18.87 -0.14,28.12 -4.43,31.21 -8.95,62.41 -13.41,93.61 46.62,-3.99 93.21,-8.08 139.83,-11.98 -8.38,-16.86 -13.06,-35.52 -14.08,-54.31 -1.1,-14.21 2.63,-28.13 4.26,-42.17 2.96,-23.86 9.06,-47.83 5.72,-72.01 -1.68,-12.67 -6.63,-25.87 -17.28,-33.66 -14.37,-10.68 -32.94,-12.65 -50.29,-13.34 -27.47,-0.4 -54.72,4.09 -81.6,9.26zm-802.85 122.23l0 0c7.71,-1.59 15.42,-3.18 23.1,-4.88 1.72,-0.14 2.16,-1.99 3,-3.17 4.36,-8.07 8.93,-16.01 13.8,-23.79 4.22,4.65 8.36,9.34 12.53,14.01 -1.55,2.54 -3.07,5.11 -4.58,7.68 8.76,-1.74 17.48,-3.67 26.23,-5.48 2.38,-3.68 4.76,-7.35 7.13,-11.03 -12.58,-15.76 -25.18,-31.49 -37.77,-47.25 -16.47,23.4 -30.33,48.51 -43.44,73.91zm485.18 -61.98l0 0c-22.43,5.14 -44.81,12.39 -64.03,25.35 -18.42,12.08 -33.28,29.25 -43.26,48.82 -10.26,19.84 -15.77,41.78 -18.57,63.83 -15.4,109.67 -30.86,219.32 -46.31,328.99 -3.89,25.37 -7.39,52.08 1.13,76.92 5.15,15.75 17,29.18 32.27,35.77 23.01,10.18 48.83,9.08 73.42,8.41 28.27,-1.09 57.6,-2.59 83.66,-14.73 18.32,-8.3 32.78,-23.92 40.69,-42.31 10.78,-23.64 11.81,-49.97 15.74,-75.25 2.95,-18.85 4.02,-38.14 9.92,-56.42 6.29,-20.21 16.96,-38.95 30.67,-55.04 -42.38,3.72 -84.73,7.92 -127.1,11.86 -5.38,38.59 -10.95,77.15 -16.33,115.74 -1.64,10.5 -4.25,21.76 -11.98,29.57 -6.75,7.03 -18.99,8.1 -26.56,1.82 -6.75,-6.06 -7.25,-16.11 -6.21,-24.5 16.97,-120.92 34.09,-241.81 51.03,-362.73 1.52,-14.77 9.09,-29.69 22.24,-37.27 6.54,-3.53 16.73,-3.32 20.89,3.74 3.65,6.53 2.93,14.41 2.34,21.59 -4.5,32.6 -9.13,65.18 -13.63,97.77 42.63,-6.04 85.27,-12.01 127.92,-18.02 -7.34,-8.16 -10.9,-18.84 -13.57,-29.27 -2.58,-11.26 -4.31,-22.99 -2.48,-34.5 1.7,-11.7 3.4,-23.4 5.13,-35.1 2.68,-19.79 7,-39.98 3,-59.91 -2.22,-12.09 -8.87,-24 -20.1,-29.8 -14.57,-7.58 -31.68,-7.53 -47.65,-6.14 -21.02,1.86 -41.71,6.22 -62.27,10.81zm-292.19 68.36l0 0c7.12,7.42 13.18,16.11 16.03,26.1 4.61,14.94 2.95,30.78 0.74,45.98 -7.04,52.68 -13.86,105.39 -21.02,158.05 -7.82,-74.8 -15.61,-149.61 -23.31,-224.42 -43.07,8.87 -86.08,18.04 -129.17,26.84 7.22,5.99 13.29,13.56 16.21,22.59 6.34,18.65 3.33,38.72 0.13,57.68 -15.2,106.44 -30.34,212.89 -45.56,319.33 -2.21,14.25 -3.1,28.91 -8.25,42.53 -8.04,22.15 -22.78,41.34 -40.37,56.8 54,-1.33 108,-2.52 162,-3.88 -16.84,-23 -23.34,-53 -18.83,-81.02 7.69,-55.63 14.74,-111.36 22.83,-166.94 6.58,82.48 14.42,164.87 21.15,247.35 40.7,-0.96 81.4,-2.26 122.1,-3.02 -14.89,-28.84 -16.09,-62.76 -11.34,-94.29 17.23,-122.24 34.42,-244.48 51.64,-366.7 2.42,-16.51 3.96,-33.39 10.02,-49.07 7.32,-19.22 21.77,-34.36 34.58,-50.03 -53.21,11.97 -106.39,24.07 -159.58,36.12zm-305.7 61.19l0 0c-18.03,124.54 -36.01,249.09 -54,373.63 -1.26,9.45 -2.42,19.58 -8.59,27.3 -6.16,8.32 -18.49,10.65 -27.63,6.22 -7.84,-4.08 -10.62,-14.03 -9.21,-22.27 18.29,-125.63 36.27,-251.29 54.64,-376.91 -35.54,7.32 -71.02,14.96 -106.74,21.34 11.43,20.41 12.32,44.62 11.43,67.42 -1.13,14.46 -3.79,28.75 -5.74,43.11 -12.17,84.84 -24.51,169.65 -36.67,254.49 -2,17.18 -1.59,35.86 7.66,51.06 8.05,12.4 20.46,22.44 35.07,25.73 17.77,3.99 36.13,2.77 54.18,2.49 18.84,-0.41 37.78,-1 56.38,-4.32 18.11,-3.17 36.54,-9.99 49.05,-24.04 16.13,-18.1 22.08,-42.56 25.94,-65.87 13.8,-95.6 27.47,-191.21 41.16,-286.82 2.73,-17.28 4.29,-34.8 8.91,-51.73 6.58,-25.46 18.87,-50.7 40.33,-66.82 -45.38,8.67 -90.8,17.25 -136.17,25.99z"/>
   <path class="fil3" d="M930.2 200.27c57.64,-22.51 121.88,-30.91 182.68,-17.16 48.69,10.68 93.73,35.67 130.02,69.68 43.27,40.18 74.76,91.63 96.78,146.09 -7.18,1.44 -14.31,3 -21.45,4.55 -5.95,-13.98 -12.64,-27.63 -19.78,-41.03 -14.59,18.02 -28.92,36.25 -43.41,54.34 -10.96,2.35 -21.92,4.65 -32.89,7 21.17,-27.61 42.61,-54.99 63.77,-82.6 -25.28,-40.34 -58.16,-76.47 -98.38,-102.29 -15.83,-10.12 -32.7,-18.67 -50.32,-25.19 -9.58,29.59 -18.83,59.29 -28.46,88.86 35.27,13.95 67.9,35.32 93.48,63.44 4.48,-7.31 8.87,-14.66 13.42,-21.92 -15.26,-17.05 -33.13,-31.63 -52.34,-44.02 3.84,-8.71 7.59,-17.48 11.56,-26.14 26.91,17.46 51.36,39.1 70.64,64.83 -14.56,22.36 -29.33,44.59 -43.89,66.95 -30.26,-38.72 -72.34,-69.34 -120.27,-81.66 11.93,-38.96 23.84,-77.92 35.77,-116.89 -63.44,-17.86 -132.02,-9.11 -192.23,16.1 1.21,29.14 2.63,58.27 4.11,87.39 36.77,-13.66 76.02,-22.75 115.47,-20.3 1.95,-8.71 3.64,-17.49 5.47,-26.24 -22.7,-1.63 -45.47,0.9 -67.75,5.15 0.45,-9.24 1.29,-18.45 1.88,-27.67 30.7,-5.97 62.58,-8.42 93.53,-2.88 -6.45,27.17 -12.81,54.36 -19.36,81.51 -50.78,-7.8 -103.07,4.02 -148.81,26.35 -2.02,-37.67 -4.56,-75.3 -6.78,-112.96 -56.03,27.17 -105.08,67.15 -147.76,112.16 -13.49,14.26 -26.31,29.17 -38.58,44.5 11.51,19.81 23.26,39.47 34.76,59.28 13.09,-15.49 26.75,-30.47 41.03,-44.85 20.62,-19.83 41.91,-39.24 65.9,-54.98 -1.28,-7.78 -2.83,-15.54 -4.2,-23.31 -23.38,15.77 -44.94,34.11 -65.19,53.7 -2.81,-7.36 -5.57,-14.75 -8.34,-22.13 23.62,-22.62 48.83,-43.71 76.29,-61.56 4.94,-3.18 9.88,-6.44 15.26,-8.89 3.5,24.73 7.24,49.42 10.73,74.15 -29.18,17.52 -55.97,38.89 -80.17,62.8 -20.78,20.41 -40.17,42.29 -57.2,65.93 -15.71,-25.44 -31.32,-50.94 -47.13,-76.31 -31.58,43.24 -58.89,89.58 -81.86,137.94 -7.27,1.58 -14.56,3.06 -21.82,4.7 38.83,-84.71 90.19,-164.21 155.09,-231.32 51.36,-52.76 111.76,-98.16 180.73,-125.1zm-352.08 923.05l0 0c7.99,-0.03 15.99,0.06 23.99,-0.05 0.49,1.14 0.99,2.28 1.5,3.45 -6.12,5.74 -11.97,11.75 -18.14,17.43 -2.7,-6.85 -5.04,-13.83 -7.35,-20.83zm652.24 -2.32l0 0c-12,19.4 -24.67,38.38 -38.22,56.71 -11.49,-18.81 -22.99,-37.61 -34.56,-56.37 -9.29,-0.02 -18.57,0.07 -27.85,-0.06 -34.85,41.93 -75.04,80.13 -122.1,108.09 3.59,24.8 7.05,49.62 10.71,74.43 33.62,-19.04 63.62,-43.87 91.49,-70.45 -2.69,-7.38 -5.44,-14.73 -8.26,-22.05 -20.35,19.36 -41.7,37.84 -65.19,53.32 -1.44,-7.68 -2.89,-15.35 -4.22,-23.06 40.51,-27.55 75.45,-62.49 107.07,-99.7 11.44,19.93 23.19,39.67 34.71,59.56 -11.52,14.44 -23.65,28.39 -36.28,41.88 -42.85,45.36 -92.04,85.71 -148.34,113.17 -2.31,-37.63 -4.74,-75.25 -7.06,-112.87 -45.67,22.73 -98.07,34.34 -148.96,26.94 -6.07,27.25 -12.77,54.35 -19.03,81.56 31,5.18 62.84,2.89 93.53,-3.27 0.77,-9.22 1.32,-18.45 1.9,-27.67 -22.29,4.18 -45.09,7.16 -67.77,5.28 1.75,-8.69 3.57,-17.37 5.24,-26.08 39.57,2.21 79.04,-6.89 115.85,-20.92 1.18,29.1 2.75,58.17 4.21,87.25 -60.53,25.68 -129.71,34.52 -193.55,16.35 11.94,-38.95 23.78,-77.91 35.82,-116.83 -47.87,-12.34 -90.01,-42.96 -120.12,-81.77 -14.85,22.18 -29.34,44.6 -44.08,66.85 19.32,25.76 43.74,47.48 70.67,65.03 3.76,-8.79 7.81,-17.45 11.46,-26.28 -19.21,-12.3 -36.92,-26.98 -52.25,-43.91 4.42,-7.34 9,-14.59 13.36,-21.95 25.7,27.95 58.16,49.5 93.44,63.44 -9.38,29.63 -19,59.19 -28.32,88.83 -21.41,-7.91 -41.65,-18.88 -60.29,-32.03 -35.32,-25 -64.39,-58.04 -87.46,-94.49 22.3,-29.15 44.94,-58.06 67.1,-87.34 -8.57,-12.37 -15.4,-25.81 -22.05,-39.27 -8.42,0.02 -16.84,-0.03 -25.27,0.02 5.67,13.88 12.07,27.44 19.12,40.67 -17.1,21.6 -34.17,43.23 -51.41,64.72 -18.17,-33.29 -32.23,-68.77 -42.34,-105.3 -7.2,-0.2 -14.42,-0.09 -21.62,-0.11 16.25,62.61 42.66,123.32 82.64,174.53 25.76,32.68 57.15,61.33 93.67,81.56 41.83,23.56 90.05,35.25 138.01,34.36 43.25,-0.48 86.1,-10.6 125.95,-27.19 59.75,-24.9 112.95,-63.63 159.17,-108.64 47.79,-46.48 88.15,-100.17 122.59,-157.15 -7.04,0.34 -14.09,0.11 -21.11,0.21zm-586.33 -574.91l0 0c7.71,-1.59 15.42,-3.18 23.1,-4.88 1.72,-0.14 2.16,-1.99 3,-3.17 4.36,-8.07 8.93,-16.01 13.8,-23.79 4.22,4.65 8.36,9.34 12.53,14.01 -1.55,2.54 -3.07,5.11 -4.58,7.68 8.76,-1.74 17.48,-3.67 26.23,-5.48 2.38,-3.68 4.76,-7.35 7.13,-11.03 -12.58,-15.76 -25.18,-31.49 -37.77,-47.25 -16.47,23.4 -30.33,48.51 -43.44,73.91z"/>
  </g>
 </g>
</svg>
