<?xml version="1.0" encoding="UTF-8"?>
<!DOCTYPE svg PUBLIC "-//W3C//DTD SVG 1.1//EN" "http://www.w3.org/Graphics/SVG/1.1/DTD/svg11.dtd">
<!-- Creator: CorelDRAW -->
<svg xmlns="http://www.w3.org/2000/svg" xml:space="preserve" width="2000px" height="1600px" version="1.1" style="shape-rendering:geometricPrecision; text-rendering:geometricPrecision; image-rendering:optimizeQuality; fill-rule:evenodd; clip-rule:evenodd"
viewBox="0 0 2000 1600"
 xmlns:xlink="http://www.w3.org/1999/xlink">
 <defs>
  <style type="text/css">
   <![CDATA[
    .fil1 {fill:black}
    .fil2 {fill:#97002D}
    .fil0 {fill:#9EA0A2}
    .fil3 {fill:#FEFEFE}
   ]]>
  </style>
 </defs>
 <g id="Capa_x0020_1">
  <metadata id="CorelCorpID_0Corel-Layer"/>
  <g id="NCCU_x0020_Eagles.cdr">
   <path class="fil0" d="M674.45 1349.02l0 46.81 22.64 0 0 46.65 -131.18 0 0 -41.56 9.77 0 0 -57 -9.77 0 0 -41.55 131.18 0 0 46.65 -22.64 0zm-111.33 108.52l0 0 873.76 0 0 62.46 -873.76 0 0 -62.46zm162.27 -1218.09l0 0c3.68,-13.85 8.3,-27.45 13.68,-40.71l0.05 -0.13c6.61,-15.4 13.52,-30.75 23.61,-44.25l11.37 -15.23 0.79 18.99c1.47,35.79 5.25,71.61 13.71,106.47 26.68,109.83 93.02,208.03 180.19,279.14l0.15 0.12 0.14 0.14c1.41,1.28 2.93,2.46 4.38,3.69 4.48,3.81 8.13,7.94 9.12,13.76 3.96,20.01 7.26,40.15 11.25,60.15 4.47,-7.8 8.55,-15.86 13.21,-23.5 25.56,-41.99 52.79,-83.43 87.43,-118.42 34.12,-35.8 63.84,-76.89 80.65,-123.76 19.31,-53.84 22.94,-111.68 25.67,-168.34l0.99 -20.37 11.36 16.94c10.81,16.1 18.3,34.09 24.56,52.37 12.4,36.19 15.31,74.35 15.9,112.36 38.87,-53.59 59.69,-119.31 64.88,-184.99 0.88,-18.59 1.89,-37.22 1.14,-55.83l-1.04 -25.81 13.54 22c2.42,3.93 4.73,7.92 6.67,12.11l0.07 0.16c6.7,15.51 12.59,31.38 17.5,47.54 12.49,41.16 18.59,84.24 14.94,127.22 -1.96,23 -6.67,45.59 -13.29,67.64 5.83,-8.42 11.81,-16.73 18.56,-24.47l12.61 -14.44 -0.78 19.16c-0.42,10.48 -1.87,20.87 -3.43,31.24 -5.9,39.13 -14.2,78.44 -29.44,114.99 11.74,-12.15 22.95,-24.82 33.77,-37.79 5.31,-6.38 10.67,-12.71 16.52,-18.6l19.09 -19.25 -7.84 25.96c-12.4,41.06 -27.17,81.83 -48.45,119.16 4.48,-1.94 8.99,-3.83 13.58,-5.51l10.96 -4.01 -1.99 11.5c-5.36,31.12 -25.89,55.63 -49.06,75.92 0.62,0.07 1.23,0.14 1.85,0.21l20.41 2.31 -17.8 10.25c-13.03,7.5 -26.61,13.95 -39.73,21.26 -38.8,21.61 -75.29,47.16 -109.94,74.9 16.86,8.16 33.31,17.14 45.33,32.08 1.83,2.27 3.18,4.82 4.13,7.58 1.24,3.61 1.72,7.31 2.15,11.08 0.24,2.07 0.46,4.22 0.89,6.27 10.25,12.48 26.74,28.39 24.53,46.3 -2.5,20.22 -23.05,24.18 -35.46,21.01l13.48 -19.98 -1.43 -9.75 -18.03 -10.63 -19.17 -6.87 -15.45 1.29 -30.71 3.22 0.64 8.81 16.75 13.1 11.17 7.73 23.4 15.56 -13.71 1.81c0,0 -7.48,0.39 -12.02,-1.93 -7.41,-3.67 -14.58,-7.78 -21.18,-12.88l-0.12 -0.09 -0.12 -0.11c-17.55,-14.91 -46.84,-11.11 -62.12,5.36 -0.59,2.52 -0.71,5.27 -0.87,7.85 -0.36,5.53 -0.89,10.62 -3.54,15.62 -21.09,39.77 -22.33,87.57 -12.51,130.74 0.78,2.95 1.18,5.97 1.3,9.02 0.18,4.32 -0.2,8.61 -0.56,12.92 -0.38,4.41 -0.78,9.07 -0.14,13.49 2.23,5.61 6.24,10.93 11.84,13.43 1.74,0.68 3.3,1.55 4.74,2.59l0.56 0c2.42,-3.55 5.62,-6.34 10.67,-7.43l1.13 -0.25 1.15 0.15c7.41,0.94 14.89,3.47 21.21,7.53l56.23 0 53.13 33.72 0 -33.72 292.52 0 0 77.63 -17.91 0 0 105.59 -58.93 37.74 -138.8 0 -59.38 -37.69 0 -105.64 -11.25 0 0 29.09 -116.26 0 0 -29.09 -25.42 0 0 65.97 25.42 0 0 -28.03 116.26 0 0 67.7 -59.38 37.69 -138.76 0 -56.05 -35.57 -56.05 35.57 -138.75 0 -49.8 -31.6 0 31.6 -121.87 0 -35.65 -37.47 0 37.47 -150.84 0 0 -77.36 17.5 0 0 -65.97 -17.5 0 0 -77.63 120.21 0 37.3 39.37 0 -39.37 150.85 0 0 31.61 49.8 -31.61 93.49 0c0.14,-0.95 0.28,-1.9 0.42,-2.86 0.32,-2.18 0.66,-4.45 0.69,-6.68 -1.03,-2.05 -2.32,-3.94 -3.78,-5.71 -3.59,-4.36 -8.17,-8.06 -12.52,-11.64 -6.41,-5.28 -12.66,-10.56 -17.19,-17.62l-0.38 -0.59 -0.25 -0.65c-2.7,-7.08 -6,-14.09 -11.04,-19.83l-3.85 -4.38c-15.52,-1.81 -30.61,-5.9 -45.67,-9.95l-0.12 -0.03c-43.44,-12.57 -85.85,-28.31 -128.33,-43.74 -9.06,-3.01 -16.65,-8.41 -25.25,-11.77 -41.98,-15.45 -83.34,-32.56 -124.58,-49.89 -8.74,-3.67 -17.46,-7.42 -25.78,-11.98l-19.74 -10.82 22.43 -1.83c95.11,-7.79 190.63,-18 283.22,-41.93 -7.29,-20.55 -13.41,-41.5 -19.37,-62.47 -8.7,-14.28 -18.11,-29.02 -31.25,-39.62l-0.13 -0.11c-36.38,-30.87 -73.79,-60.63 -113.32,-87.39 -3.74,-2.53 -7.28,-5.32 -10.8,-8.14l-14.39 -11.55 18.45 -0.46c3.29,-0.09 6.55,-0.01 9.8,0.18 -2.6,-1.73 -5.15,-3.52 -7.63,-5.41 -3.05,-2.21 -6.05,-4.51 -8.97,-6.89 -17.32,-14.09 -32.26,-31.06 -44.24,-49.9 -26.19,-41.17 -38.23,-91.23 -30.16,-139.63l2.31 -13.91 3.47 3.9c-0.87,-35.52 2.78,-71.19 11.75,-105.59 2.21,-8.46 5.1,-16.73 8.94,-24.59l9.04 -18.53 3.67 20.28c0.35,1.92 0.66,3.88 0.95,5.85 9.44,-47.43 23.49,-94.05 44.67,-137.58l13.32 -27.36 -0.49 30.42c-0.66,40.87 -0.86,82.03 3.04,122.78 2.86,-10.13 6.53,-20 11.25,-29.43 18.31,-39.16 46.71,-72.53 77.8,-102.15l0.07 -0.06 0.07 -0.07c13.23,-11.9 26.01,-24.29 41.15,-33.82l20.95 -13.17 -11.36 21.99c-11.34,21.96 -24.95,42.95 -34.28,65.89l-0.06 0.14c-9.74,22.55 -17.97,46.76 -22.08,71.43zm339.77 826.87l0 0c-0.49,-1.02 -1.03,-2 -1.51,-2.83 -3.93,-2.55 -8.34,-4.55 -12.56,-6.51 -9.73,-4.54 -18.88,-9.06 -25.27,-18.08l-0.29 -0.41 -0.23 -0.46c-6.49,-12.9 -13.48,-19.49 -15.94,-27.89 -5.37,-19.04 -24.87,-36.63 -45.59,-31.95 -8.3,4.89 -13.34,14.73 -17.16,23.21 -4.9,12.07 -9.96,25.68 -8.04,38.93l0.02 0.15 0.01 0.14c0.26,2.59 0.76,5.16 1.21,7.72 0.79,4.51 1.39,8.86 1.09,13.21 7.02,1.47 14.73,2.5 20.44,-1.52l3.32 -2.33 3.61 1.82c12.49,6.31 25.98,13.65 26.95,29.46l0.01 0.14 0 0.14c0.04,1.89 -0.17,3.64 -0.59,5.27l11.61 7.36 56.05 -35.57 2.86 0zm-62.25 115.57l0 0 0 -8.85 -109.59 0 0 -29.09 -25.41 0 0 65.97 25.41 0 0 -28.03 109.59 0zm-250.85 -37.94l0 0 -7.91 0 0 65.97 7.91 0 0 -65.97zm635.47 0l0 0 0 65.97 25.42 0 0 -65.97 -25.42 0zm-736.75 199.97l0 0 -20.44 0 0 2.63 20.44 0 0 -2.63zm0 54.37l0 0 -20.44 0 0 2.63 20.44 0 0 -2.63zm763.97 -37.34l0 0 19.34 14.89 0 43.07 -30.6 23.57 -74.28 0 -30.6 -23.57 0 -34.13 19.5 0 -19.5 -14.85 0 -43.89 30.88 -23.52 73.52 0 31.08 23.93 0 34.5 -19.34 0zm-35.32 -15.63l0 0 -1.63 -1.26 -23.46 0 -1.3 0.99 0 5.87 1.3 0.99 25.09 0 0 -6.59zm-26.39 48.31l0 0 0 6.32 1.3 0.99 23.7 0 1.39 -1.08 0 -4.96 -1.62 -1.27 -24.77 0zm-184.17 -49.54l0 0 -9.8 0 0 -41.53 131.48 0 0 46.61 -22.71 0 0 46.69 22.71 0 0 46.62 -131.48 0 0 -41.53 9.8 0 0 -56.86zm75.31 2.58l0 0 0 -2.58 -20.57 0 0 2.58 20.57 0zm0 51.7l0 0 -20.57 0 0 2.58 20.57 0 0 -2.58zm-215.61 -54.45l0 0 -9.78 0 0 -41.55 74.45 0 0 41.55 -10.01 0 0 57 21.15 0 0 -7.64 46.31 0 0 49.2 -131.9 0 0 -41.56 9.78 0 0 -57zm-17.25 14.9l0 0 0 60.16 -31.01 23.5 -73.53 0 -31.01 -23.5 0 -93.12 30.77 -23.32 73.77 0 31.01 23.5 0 32.78zm-54.8 -13.73l0 0 -1.34 -1.01 -23.51 0 -1.33 1.01 0 54.84 1.33 1.01 23.51 0 1.34 -1.01 0 -1.93 -12.22 0 0 -39.18 12.22 0 0 -13.73zm-214.32 -1.19l0 0 -3.41 0 0 -41.56 97.33 0 0 41.56 -4.6 0 24.75 57.02 11.8 0 0 41.56 -72.54 0 0 -34.38 -17.57 0 0 34.38 -72.31 0 0 -41.56 11.8 0 24.75 -57.02z"/>
   <path class="fil1" d="M478.64 1217.78l0 -81.69 -17.5 0 0 -61.91 108.99 0 48.52 51.22 0 -51.22 135.14 0 0 61.91 -17.5 0 0 81.69 17.5 0 0 61.64 -110.64 0 -46.87 -49.26 0 49.26 -135.14 0 0 -61.64 17.5 0zm631.47 286.79l0 0 0 -7.08 1.89 0 0 -17.39 -1.89 0 0 -7.13 12.46 0 0 7.13 -1.9 0 0 17.39 5.69 0 0 -1.9 7.14 0 0 8.98 -23.39 0zm278.41 -24.47l0 0 0 -7.13 14.99 0 0 7.13 -0.27 0 2.85 2.8 2.84 -2.8 -0.36 0 0 -7.13 14.59 0 0 7.13 -2.58 0 -10.2 10.2 0 7.19 1.89 0 0 7.08 -12.41 0 0 -7.08 1.85 0 0 -7.19 -10.21 -10.2 -2.98 0zm-126.16 24.47l0 0 0 -7.08 1.9 0 0 -17.39 -1.9 0 0 -7.13 23.21 0 0 8.39 -7.09 0 0 -1.26 -5.55 0 0 5.1 1.26 0 0 -1.22 7.14 0 0 9.58 -7.14 0 0 -1.22 -1.26 0 0 5.15 5.55 0 0 -1.31 7.09 0 0 8.39 -23.21 0zm-112.61 -24.47l0 0 0 -7.13 12.47 0 0 7.13 -1.9 0 0 16.39 0.99 1 4.65 0 1 -1 0 -16.39 -1.9 0 0 -7.13 12.51 0 0 7.13 -1.95 0 0 19.42 -5.01 5.05 -13.9 0 -5.06 -5.05 0 -19.42 -1.9 0zm30.66 24.47l0 0 0 -7.08 1.9 0 0 -17.39 -1.9 0 0 -7.13 10.25 0 8.71 14.49 0 -7.36 -1.89 0 0 -7.13 12.46 0 0 7.13 -1.9 0 0 17.39 1.9 0 0 7.08 -10.43 0 -8.53 -14.13 0 7.05 1.89 0 0 7.08 -12.46 0zm32.74 0l0 0 0 -7.08 1.89 0 0 -17.39 -1.89 0 0 -7.13 12.46 0 0 7.13 -1.9 0 0 17.39 1.9 0 0 7.08 -12.46 0zm15.35 -24.47l0 0 0 -7.13 12.73 0 0 7.13 -1.08 0 3.52 10.52 3.52 -10.52 -1.04 0 0 -7.13 13.05 0 0 7.13 -2.8 0 -5.78 17.39 1.63 0 0 7.08 -16.84 0 0 -7.08 1.4 0 -5.78 -17.39 -2.53 0zm59.92 24.47l0 0 0 -7.08 1.89 0 0 -17.39 -1.89 0 0 -7.13 19.55 0 5.06 5.05 0 8.13 -2.08 2.03 2.08 2.08 0 7.23 1.89 0 0 7.08 -10.56 0 0 -11.87 -1 -0.95 -4.38 0 0 5.74 1.9 0 0 7.08 -12.46 0zm9.8 -19.14l0 0 5.28 0 1.62 -1.58 0 -2.89 -1.62 -1.63 -5.28 0 0 6.1zm19.55 14.09l0 0 0 -6.05 8.67 0 0 2.98 1.08 1.04 4.52 0 1.03 -1 0 -3.11 -0.99 -0.95 -9.26 0 -5.05 -5.06 0 -9.35 5.05 -5.05 13.91 0 5.06 5.05 0 6.24 -8.72 0 0 -3.17 -0.99 -0.99 -4.7 0 -0.94 0.99 0 3.21 0.99 0.99 9.3 0 5.06 5.06 0 9.17 -5.06 5.05 -13.91 0 -5.05 -5.05zm26.55 5.05l0 0 0 -7.08 1.89 0 0 -17.39 -1.89 0 0 -7.13 12.46 0 0 7.13 -1.9 0 0 17.39 1.9 0 0 7.08 -12.46 0zm15.3 -22.62l0 0 0 -8.98 26.69 0 0 8.98 -7.13 0 0 -1.85 -1.86 0 0 17.39 1.86 0 0 7.08 -12.47 0 0 -7.08 1.9 0 0 -17.39 -1.9 0 0 1.85 -7.09 0zm-498.13 -1.85l0 0 -0.13 0 -1.76 0 0 -7.13 10.25 0 8.71 14.49 0 -7.36 -0.18 0 -1.72 0 0 -7.13 12.47 0 0 7.13 -1.72 0 -0.18 0 0 17.39 1.9 0 0 7.08 -0.77 0 -0.95 0 -7.54 0 -0.81 0 -0.36 0 -8.54 -14.13 0 7.05 1.9 0 0 7.08 -0.77 0 -0.95 0 -8.98 0 -1 0 -0.76 0 0 -7.08 1.89 0 0 -17.39zm-225.72 24.47l0 0 0 -7.08 1.9 0 0 -17.39 -1.9 0 0 -7.13 19.55 0 5.06 5.05 0 8.13 -2.08 2.03 2.08 2.08 0 7.23 1.9 0 0 7.08 -10.57 0 0 -11.87 -0.99 -0.95 -4.38 0 0 5.74 1.89 0 0 7.08 -12.46 0zm9.8 -19.14l0 0 5.28 0 1.63 -1.58 0 -2.89 -1.63 -1.63 -5.28 0 0 6.1zm-68.73 19.14l0 0 0 -7.08 1.9 0 0 -17.39 -0.13 0 -1.77 0 0 -7.13 10.25 0 8.72 14.49 0 -7.36 -0.18 0 -1.72 0 0 -7.13 12.46 0 0 7.13 -1.71 0 -0.18 0 0 17.39 1.89 0 0 7.08 -0.76 0 -0.95 0 -7.54 0 -0.81 0 -0.36 0 -8.54 -14.13 0 7.05 1.9 0 0 7.08 -0.77 0 -0.95 0 -8.98 0 -1 0 -0.77 0zm40.6 -7.9l0 0 1.58 1.58 5.05 0 1.59 -1.58 0 -15.8 -1.59 -1.58 -5.05 0 -1.58 1.58 0 15.8zm-7.9 2.85l0 0 0 -21.5 5.05 -5.05 13.91 0 5.06 5.05 0 21.5 -5.06 5.05 -13.91 0 -5.05 -5.05zm54.95 -17.57l0 0 0 -8.98 26.68 0 0 8.98 -0.76 0 0 0.05 -0.95 0 -3.66 0 -0.95 0 0 -0.05 -0.81 0 0 -1.85 -1.85 0 0 17.39 1.85 0 0 7.08 -0.72 0 -1 0 -8.98 0 -1 0 -0.76 0 0 -7.08 1.89 0 0 -17.39 -1.89 0 0 1.85 -0.77 0 0 0.05 -0.99 0 -3.57 0 -0.99 0 0 -0.05 -0.77 0zm136.18 14.72l0 0 1.58 1.58 5.06 0 1.58 -1.58 0 -15.8 -1.58 -1.58 -5.06 0 -1.58 1.58 0 15.8zm-7.9 2.85l0 0 0 -21.5 5.06 -5.05 13.9 0 5.06 5.05 0 21.5 -5.06 5.05 -13.9 0 -5.06 -5.05zm-28.09 5.05l0 0 0 -7.08 1.9 0 0 -17.39 -1.9 0 0 -7.13 19.55 0 5.06 5.05 0 8.13 -2.08 2.03 2.08 2.08 0 7.23 1.9 0 0 7.08 -10.57 0 0 -11.87 -0.99 -0.95 -4.38 0 0 5.74 1.89 0 0 7.08 -12.46 0zm9.8 -19.14l0 0 5.28 0 1.63 -1.58 0 -2.89 -1.63 -1.63 -5.28 0 0 6.1zm-40.86 19.14l0 0 0 -7.08 1.89 0 5.78 -17.39 -1.4 0 0 -7.13 16.8 0 0 7.13 -1.58 0 5.78 17.39 1.85 0 0 7.08 -12.1 0 0 -7.08 1.09 0 -0.5 -1.5 -6.05 0 -0.54 1.5 1.08 0 0 7.08 -12.1 0zm17.97 -12.91l0 0 -3.39 -10.3 -3.47 10.3 6.86 0zm139.79 12.91l0 0 0 -7.08 1.9 0 5.78 -17.39 -1.4 0 0 -7.13 16.8 0 0 7.13 -1.58 0 5.78 17.39 1.85 0 0 7.08 -12.1 0 0 -7.08 1.08 0 -0.5 -1.5 -6.05 0 -0.54 1.5 1.09 0 0 7.08 -12.11 0zm17.98 -12.91l0 0 -3.39 -10.3 -3.48 10.3 6.87 0zm-201.98 7.86l0 0 0 -21.5 5.06 -5.05 13.91 0 5.06 5.05 0 7.05 -0.77 0 0 0.09 -7.18 0 0 -0.09 -0.77 0 0 -3.98 -0.99 -0.99 -4.65 0 -1 0.99 0 15.36 1.04 1.04 4.61 0 0.99 -1 0 -3.79 8.72 0 0 6.82 -5.06 5.05 -0.18 0 -0.54 0 -12.33 0 -0.54 0 -0.32 0 -5.06 -5.05zm111.94 5.05l0 0 0 -7.08 1.9 0 0 -17.39 -0.14 0 -0.99 0 -0.77 0 0 -7.13 12.46 0 0 7.13 -0.77 0 -0.94 0 -0.19 0 0 17.39 5.7 0 0 -1.9 7.13 0 0 8.98 -0.77 0 -0.99 0 -19.87 0 -0.95 0 -0.81 0zm25.28 0l0 0 0 -7.08 1.9 0 0 -17.39 -0.13 0 -1 0 -0.77 0 0 -7.13 12.47 0 0 7.13 -0.77 0 -0.95 0 -0.18 0 0 17.39 1.9 0 0 7.08 -0.77 0 -0.95 0 -8.98 0 -1 0 -0.77 0zm205.09 0l0 0 0 -7.08 1.9 0 0 -17.39 -1.9 0 0 -7.13 19.55 0 5.06 5.05 0 8.13 -2.08 2.03 2.08 2.08 0 7.23 1.9 0 0 7.08 -10.57 0 0 -11.87 -0.99 -0.95 -4.38 0 0 5.74 1.89 0 0 7.08 -12.46 0zm9.8 -19.14l0 0 5.28 0 1.63 -1.58 0 -2.89 -1.63 -1.63 -5.28 0 0 6.1zm19.24 19.14l0 0 12.1 0 0 -7.08 -1.09 0 0.54 -1.5 6.05 0 0.5 1.5 -1.08 0 0 7.08 12.1 0 0 -7.08 -1.85 0 -5.78 -17.39 1.58 0 0 -7.13 -16.8 0 0 7.13 1.4 0 -5.78 17.39 -1.89 0 0 7.08zm17.97 -12.91l0 0 -6.87 0 3.48 -10.3 3.39 10.3zm-160.57 7.86l0 0 0 -21.5 5.06 -5.05 13.91 0 5.05 5.05 0 7.05 -8.71 0 0 -3.98 -1 -0.99 -4.65 0 -0.99 0.99 0 15.36 1.04 1.04 4.6 0 1 -1 0 -3.79 8.71 0 0 6.82 -5.05 5.05 -13.91 0 -5.06 -5.05zm28.45 5.05l0 0 0 -7.08 1.89 0 0 -17.39 -1.89 0 0 -7.13 23.21 0 0 8.39 -7.09 0 0 -1.26 -5.56 0 0 5.1 1.27 0 0 -1.22 7.13 0 0 9.58 -7.13 0 0 -1.22 -1.27 0 0 5.15 5.56 0 0 -1.31 7.09 0 0 8.39 -23.21 0zm24.47 0l0 0 0 -7.08 1.9 0 0 -17.39 -1.9 0 0 -7.13 10.25 0 8.71 14.49 0 -7.36 -1.89 0 0 -7.13 12.46 0 0 7.13 -1.9 0 0 17.39 1.9 0 0 7.08 -10.43 0 -8.53 -14.13 0 7.05 1.89 0 0 7.08 -12.46 0zm31.43 -22.62l0 0 0 -8.98 26.68 0 0 8.98 -7.13 0 0 -1.85 -1.85 0 0 17.39 1.85 0 0 7.08 -12.46 0 0 -7.08 1.89 0 0 -17.39 -1.89 0 0 1.85 -7.09 0zm-362.95 -144.78l0 0 -33.94 0 0 21.23 11.53 0 0 -5.09 32.58 0 0 38.23 -32.58 0 0 -5.09 -11.53 0 0 21.22 33.94 0 0 -5.09 32.81 0 0 33.15 -117.68 0 0 -28.06 9.78 0 0 -70.5 -9.78 0 0 -28.05 117.68 0 0 33.14 -32.81 0 0 -5.09zm728.65 4.86l0 0 -6.06 -4.72 -28.06 0 -5.77 4.4 0 12.55 5.77 4.4 48.66 0 26.62 20.5 0 36.43 -26.15 20.14 -69.68 0 -26.14 -20.14 0 -24.06 40.92 0 0 11.76 5.77 4.4 28.3 0 5.82 -4.53 0 -11.56 -6.06 -4.72 -48.11 0 -26.64 -20.3 0 -37.19 26.4 -20.12 68.95 0 26.62 20.5 0 24.42 -41.16 0 0 -12.16zm-210.55 -4.69l0 0 -9.81 0 0 -28.03 117.98 0 0 33.11 -32.87 0 0 -5.08 -34.07 0 0 21.17 11.6 0 0 -5.09 32.63 0 0 38.2 -32.63 0 0 -5.09 -11.6 0 0 21.17 34.07 0 0 -5.08 32.87 0 0 33.11 -117.98 0 0 -28.03 9.81 0 0 -70.36zm-140.31 -0.17l0 0 -9.78 0 0 -28.05 60.95 0 0 28.05 -10.01 0 0 70.5 34.65 0 0 -7.64 32.81 0 0 35.7 -118.4 0 0 -28.06 9.78 0 0 -70.5zm-72.05 4.56l0 0 -5.82 -4.41 -28.05 0 -5.82 4.41 0 61.56 5.82 4.41 28.05 0 5.82 -4.41 0 -12.05 -12.22 0 0 -25.66 53.52 0 0 50.04 -26.53 20.11 -68.99 0 -26.52 -20.11 0 -86.41 26.28 -19.92 69.23 0 26.53 20.11 0 28.08 -41.3 0 0 -15.75zm-210.78 -4.58l0 0 -6.95 0 0 -28.06 83.83 0 0 28.06 -8.14 0 30.61 70.52 9.48 0 0 28.06 -59.04 0 0 -28.06 5.53 0 -2.74 -6.32 -36.66 0 -2.73 6.32 5.52 0 0 28.06 -58.79 0 0 -28.06 9.47 0 30.61 -70.52zm34.29 22.3l0 0 -7.9 17.85 15.6 0 -7.7 -17.85zm-158 -223.36l0 0 7.38 7.79 0 -7.79 -7.38 0zm-44.28 81.69l0 0 -5.72 -6.02 0 6.02 5.72 0zm795.18 -81.69l0 0 0 80.4 2.03 1.29 37.07 0 2.03 -1.29 0 -80.4 -17.51 0 0 -61.91 135.56 0 0 61.91 -17.92 0 0 109.16 -53.37 34.17 -134.22 0 -53.81 -34.15 0 -109.18 -17.5 0 0 -61.91 135.14 0 0 61.91 -17.5 0zm-227.65 1.29l0 0 -2.03 -1.29 -37.07 0 -2.03 1.29 0 78.85 2.45 1.55 36.65 0 2.03 -1.29 0 -26.74 100.55 0 0 55.52 -53.81 34.15 -134.19 0 -53.81 -34.15 0 -136.94 53.81 -34.15 134.19 0 53.81 34.15 0 56.85 -100.55 0 0 -27.8zm-250.85 0l0 0 -2.03 -1.29 -37.07 0 -2.03 1.29 0 78.85 2.44 1.55 36.66 0 2.03 -1.29 0 -26.74 100.55 0 0 55.52 -53.81 34.15 -134.19 0 -53.81 -34.15 0 -136.94 53.81 -34.15 134.19 0 53.81 34.15 0 56.85 -100.55 0 0 -27.8z"/>
   <path class="fil1" d="M1190.27 768.25l0.8 1.13c6.83,9.13 11.93,19.37 18.21,28.88 -1.1,0.11 -3.32,0.32 -4.42,0.41 -13.81,2.13 -29.09,-0.48 -39.24,-10.72 7.47,3.18 15.17,5.98 23.41,6.23 -3.73,-5.45 -4.58,-11.73 -4.05,-18.14 -15.26,-12.32 -33.54,-19.7 -51.13,-27.9 17.34,5.09 47.61,7.78 56.42,20.11zm5.72 21.83l0 0c-2.01,2.02 1.22,5.42 3.28,3.37 2.05,-2.06 -1.26,-5.39 -3.28,-3.37zm-7.67 -10.74l0 0c-0.5,5.06 1.19,9.55 5.02,12.92 1.03,-5.41 1.05,-10.88 -5.02,-12.92z"/>
   <path class="fil2" d="M1075.56 577.3c-17.91,40.13 -23.06,85.41 -15.99,128.7 17.76,4.07 35.6,7.97 52.98,13.51 7.17,2.04 14.39,5.04 21.99,4.35 11.43,-1.07 22.86,-2.56 34.17,-4.76 -19.35,-3.16 -39.05,-4.08 -58.13,-8.91 4.68,-4.01 11.09,-4.19 16.84,-5.45 31.31,-6.12 62.53,-12.74 94.02,-17.77 -11.34,-2.66 -23.06,-1.88 -34.61,-2.25 -27.55,-1.03 -55.13,-1.51 -82.68,-1.92 14.47,-3.76 29.43,-4.84 44.18,-7.08 41.02,-5.36 82.02,-10.97 123.18,-15.19 9.94,-0.8 18.62,-6.25 26.07,-12.5 -5.8,-0.78 -11.62,-1.4 -17.41,-2.06 10.58,-5.46 22.03,-9.03 32.48,-14.78 21.87,-12.28 43.47,-29.52 51.42,-54.24 -16.91,6.17 -33.51,13.33 -51.01,17.8 25.74,-29.39 49.31,-61.77 61.7,-99.2 -3.11,2.48 -6.16,5.02 -9.04,7.77 -21.83,21.64 -45.86,43.54 -75.96,52.52 6.83,-11.32 15.49,-21.42 22.48,-32.67 25.72,-40.08 43.93,-85.73 49.03,-133.23 -7.78,8.08 -13.74,17.61 -20.59,26.45 -18.57,23.37 -37.06,48.06 -62.39,64.46 4.31,-8.71 9.83,-16.77 14.8,-25.11 28.49,-47.84 48.58,-100.87 57.17,-155.98 5.01,-31.17 5.31,-63.26 -0.76,-94.32 -2.86,-13.65 -6.41,-27.34 -13.24,-39.6 -3.5,40.04 -10.4,80.19 -25.54,117.62 -13.86,35.5 -34.35,68.04 -57.81,97.94 -7.99,9.87 -15.55,20.24 -25.17,28.65 1.58,-16.38 5.52,-32.46 6.53,-48.93 3.64,-35.2 0.11,-71.3 -11.55,-104.81 -1.07,-2.97 -2.88,-5.58 -4.65,-8.17 -1.81,39.23 -11.1,77.83 -25.19,114.38 -16.01,42.31 -39.21,82.23 -70.18,115.35 -44.78,46.52 -85.25,97.89 -114.04,155.93 -4.58,9.99 -10.61,19.45 -13.56,30.08 -0.3,9.23 2.04,18.27 3.46,27.35 4.74,-9.12 7.14,-19.15 11.2,-28.54 15.59,-37.59 38.64,-71.58 64.06,-103.17 7.58,-9.3 14.89,-18.94 23.91,-26.93 -6.85,15.16 -15.85,29.27 -22.17,44.71zm-496.15 738.57l0 0 0 14.55 9.78 0 0 84.01 -9.78 0 0 14.54 104.18 0 0 -19.64 -19.31 0 0 5.1 -47.44 0 0 -34.73 25.03 0 0 5.09 19.07 0 0 -24.73 -19.07 0 0 5.09 -25.03 0 0 -34.73 47.44 0 0 5.09 19.31 0 0 -19.64 -104.18 0zm732.71 16.86l0 0 0 30.51 22.17 16.89 48.15 0 10.49 8.17 0 18.16 -10.25 7.99 -32.9 0 -10.25 -7.81 0 -8.35 -27.41 0 0 13.98 21.69 16.7 65.08 0 21.7 -16.7 0 -29.78 -22.17 -17.07 -48.64 0 -10.25 -7.81 0 -19.25 10.25 -7.81 32.66 0 10.49 8.18 0 8.71 27.66 0 0 -14.34 -22.17 -17.07 -64.37 0 -21.93 16.7zm-129.74 -2.14l0 0 0 83.86 -9.8 0 0 14.52 104.46 0 0 -19.6 -19.36 0 0 5.08 -47.57 0 0 -34.67 25.1 0 0 5.08 19.12 0 0 -24.69 -19.12 0 0 5.09 -25.1 0 0 -34.67 47.57 0 0 5.08 19.36 0 0 -19.61 -104.46 0 0 14.53 9.8 0zm-140.31 -0.17l0 0 0 84.01 -9.77 0 0 14.54 104.89 0 0 -22.18 -19.31 0 0 7.64 -48.16 0 0 -84.01 10.02 0 0 -14.55 -47.44 0 0 14.55 9.77 0zm-152.79 2.15l0 0 0 79.7 22.04 16.7 64.45 0 22.05 -16.7 0 -39.94 -40.02 0 0 12.16 12.22 0 0 22.15 -10.3 7.81 -32.59 0 -10.3 -7.81 0 -68.26 10.3 -7.81 32.59 0 10.3 7.81 0 12.34 27.8 0 0 -17.97 -22.05 -16.7 -64.69 0 -21.8 16.52zm-126.5 -2.17l0 0 -36.47 84.02 -7.15 0 0 14.55 45.29 0 0 -14.55 -9.06 0 8.59 -19.82 45.53 0 8.58 19.82 -9.06 0 0 14.55 45.53 0 0 -14.55 -7.15 0 -36.47 -84.02 11.68 0 0 -14.55 -70.32 0 0 14.55 10.48 0zm24.08 12.18l0 0 17.88 41.47 -36.24 0 18.36 -41.47zm401.46 -563.24l0 0c6.07,2.04 6.05,7.51 5.02,12.92 -3.83,-3.37 -5.52,-7.86 -5.02,-12.92zm-6.76 48.65l0 0c6.62,0.43 11.73,4.53 15.12,10.01 -5.63,-2.36 -10.83,-5.66 -15.12,-10.01zm47.74 -28.93l0 0c-5.52,6.14 -10.97,13.21 -19.2,15.71 -11.22,3.44 -23.11,3.12 -34.61,4.83 -10.21,1.2 -20.08,4.15 -29.86,7.2 10.4,4.12 21.14,7.94 30.23,14.65 10.4,7.24 19.08,18.51 32.71,19.22 -4.88,-4.05 -9.62,-8.29 -14.11,-12.78 -7.9,-7.56 -15.26,-15.67 -23.5,-22.86 14.5,-2.7 29.5,-3.04 43.86,0.73 9.37,2.59 20.41,3.44 27.12,11.39 6.12,6.53 3.64,16.1 3.67,24.14 7.55,-4.9 17.22,-11.04 15.69,-21.53 -2.62,-18.07 -18.4,-30.26 -32,-40.7zm-1.65 6.23l0 0c12.32,3.09 20.8,13.9 25.86,24.94 -7.56,-9.43 -18.74,-15.18 -25.86,-24.94zm-756.45 464.07l0 0 0 -41.52 17.51 0 0 -101.81 -17.51 0 0 -41.79 94.6 0 80.42 84.89 0 -43.1 -17.5 0 0 -41.79 115.01 0 0 41.79 -17.5 0 0 101.81 17.5 0 0 41.52 -96.26 0 -78.76 -82.77 0 41.25 17.5 0 0 41.52 -115.01 0zm800.91 -143.33l0 0 0 -41.79 115 0 0 41.79 -17.49 0 0 95.99 9.16 5.82 42.92 0 9.17 -5.82 0 -95.99 -17.5 0 0 -41.79 115.43 0 0 41.79 -17.92 0 0 113.71 -46.26 29.62 -128.34 0 -46.67 -29.62 0 -113.71 -17.5 0zm-251.28 113.71l0 0 0 -125.88 46.67 -29.62 128.35 0 46.67 29.62 0 41.26 -80.42 0 0 -23.28 -9.17 -5.81 -42.92 0 -9.17 5.81 0 89.92 9.59 6.08 42.5 0 9.17 -5.82 0 -22.21 80.42 0 0 39.93 -46.67 29.62 -128.35 0 -46.67 -29.62zm-250.85 0l0 0 0 -125.88 46.67 -29.62 128.35 0 46.67 29.62 0 41.26 -80.43 0 0 -23.28 -9.17 -5.81 -42.92 0 -9.16 5.81 0 89.92 9.58 6.08 42.5 0 9.17 -5.82 0 -22.21 80.43 0 0 39.93 -46.67 29.62 -128.35 0 -46.67 -29.62zm211.63 -480.14l0 0c-25.79,5.61 -51.42,15.02 -72.81,30.69 32.7,-12.87 70.75,-20.2 104.21,-5.87 1.65,-3.34 4.6,-6.62 3.53,-10.58 -4.56,-22.35 -9.92,-44.62 -13.04,-67.22 26.41,5.72 53.44,18.37 68.92,41.43 9.4,13.22 10.68,30.58 6.97,45.97 -5.75,20.61 -21.35,37.04 -39.12,48.19 -7.68,4.74 -15.95,8.41 -23.64,13.12 22.28,4.29 44.87,0.17 66.06,-6.96 -4.29,11.48 -14.71,18.49 -22.47,27.39 7,-2.26 13.95,-4.8 20.98,-7.05 -4.22,21.78 -16.04,40.95 -27.35,59.69 3.94,-3.18 7.9,-6.32 11.95,-9.34 -3.82,28.24 -5.15,57.33 2.36,85.11 2.27,7.9 5.13,15.64 7.49,23.52 -7.33,1.76 -15.46,4.42 -22.7,1.03 -9.8,-16.81 -16.9,-35.11 -26.66,-51.97 -3.29,3.78 -5.17,9.76 -10.37,11.29 -6.09,-11.79 -12.14,-23.61 -18.44,-35.31 10.31,-12.81 17.22,-28.43 18.03,-44.99 -8.02,7.67 -14.78,17.04 -24.79,22.31 -6.59,3.82 -14.29,4.83 -21.73,5.54 5.45,-11.17 13.65,-20.79 18.44,-32.34 -5.66,3.58 -10.75,8.11 -16.84,10.95 -5.06,2.4 -11.68,2.86 -14.56,8.43 -12.88,19.28 -23.19,40.56 -28.57,63.19 -2.06,8.11 -2.4,16.61 -5.06,24.58 -3.48,3.62 -8.52,5.06 -12.92,7.21 -11.22,-19.17 -15,-41.66 -15.6,-63.58 -2.97,0.6 -5.91,1.21 -8.86,1.83 0.34,-10.74 0.8,-21.5 0.16,-32.22 -3.44,3.46 -6.73,7.07 -10.08,10.65 -26.45,-17.43 -46.91,-46.27 -47.78,-78.73 7.08,2.75 13.91,6.3 21.33,8.13 9.71,2.11 19.76,0.56 29.32,-1.64 -8.71,-7.4 -19.06,-12.49 -27.9,-19.7 18.57,1.76 37.49,3.57 56,-0.02 -33.17,-26.53 -66.49,-53.37 -94.46,-85.53 -2.95,-3.55 -5.59,-7.37 -8.13,-11.22 36.79,4.69 73.82,8.06 110.93,8.91 -29.83,-11.04 -60.13,-20.71 -90.34,-30.63 -10.6,-3.64 -21.78,-5.65 -31.79,-10.83 12.37,1.28 24.76,2.15 37.2,1.86 17.08,-0.44 34.31,0.73 51.21,-2.27 -2.86,-1.72 -5.75,-3.39 -8.89,-4.51 -29.38,-10.13 -58.49,-21.03 -87.72,-31.57 -12.48,-4.76 -25.38,-8.49 -37.38,-14.45 46.75,7.76 93.5,16.1 140.59,21.51 -4.93,-2.22 -9.97,-4.1 -15.1,-5.75 -48.46,-15.37 -96.17,-33.03 -143.79,-50.83 -32.39,-12.66 -65.3,-25.42 -93.7,-45.85 -25.88,-20.09 -49.61,-44.78 -62.26,-75.45 -5.56,-13.31 -8.47,-27.67 -8.36,-42.1 15.51,20.27 30.95,42.65 54.84,53.74 -7.56,-9.49 -16.77,-17.62 -23.23,-27.97 -24.28,-36.9 -31.47,-82.78 -27.42,-126.16 1.24,-10.83 1.93,-21.89 5.87,-32.15 8.34,38.66 22.38,77.73 49.01,107.69 -5.33,-12.21 -11.98,-23.89 -15.85,-36.69 -20.91,-63.49 -14.47,-134.11 10.95,-195.31 0.46,45.28 5.27,91.16 21.05,133.88 5.2,12.99 10.56,26.32 20,36.9 -2.68,-18.39 -6.44,-36.74 -5.55,-55.48 -0.52,-61.91 29.57,-121.6 74.31,-163.35 -12.97,30.97 -24.28,63.22 -26.11,97.02 -4.7,54.84 16.3,111.55 56.87,148.95 -7.31,-16.54 -15.07,-33.07 -18.28,-51.03 -7.17,-37.13 -4.47,-75.98 6,-112.23 3.46,-11.84 6.76,-23.96 13.4,-34.5 4.1,43.02 13.12,85.69 28.95,125.98 21.64,56.27 54.49,107.85 94.02,153.23 8.66,10.42 18.69,19.63 27.1,30.28 -61.36,-12.6 -122.4,-26.78 -183.53,-40.38 12.43,6.41 25.9,10.42 38.89,15.5 50.46,19.04 100.96,37.96 151.49,56.78 12.09,4.52 24.48,8.27 36.14,13.86 -36.26,-7.33 -72.29,-15.96 -108.45,-23.82 -13.58,-2.79 -26.98,-6.83 -40.89,-7.9 4.61,2.7 9.37,5.11 14.25,7.24 42.47,18.32 84.63,37.31 126.94,56 6.73,3.04 13.85,5.49 20.02,9.71 1.85,4.51 1.83,9.51 2.42,14.27 4.36,47.34 10.52,94.53 14.32,141.92z"/>
   <path class="fil1" d="M735.59 132.01c12.9,-11.61 25.47,-23.84 40.22,-33.12 -11.45,22.17 -25.1,43.25 -34.54,66.45 -19.97,46.22 -33.39,98.76 -20.15,148.67 1.67,-11.02 1.69,-22.17 3.09,-33.21 3.27,-27.33 10.79,-54.06 21.12,-79.53 6.39,-14.88 13.07,-29.84 22.81,-42.87 1.49,36.23 4.9,72.56 13.9,107.79 26.62,111.4 94.21,210.76 182.48,282.78 4.35,3.98 10.35,7.46 11.43,13.78 5.04,25.43 9,51.08 14.68,76.39 8.59,-11.77 14.45,-25.22 22.17,-37.54 25.13,-41.62 52.23,-82.59 86.56,-117.27 34.77,-36.49 65.32,-78.22 82.11,-126.14 19.93,-54.46 23.3,-112.92 26.07,-170.29 10.46,15.6 17.59,33.14 23.77,50.8 14.14,41.64 15.67,86.12 15.67,129.71 47.41,-57.17 72.45,-130.6 78.24,-204.1 0.89,-18.83 1.9,-37.68 1.15,-56.53 2.26,3.69 4.46,7.44 6.3,11.41 23.2,53.75 37.28,112.71 31.9,171.5 -2.84,37.93 -14.09,74.63 -28.61,109.6 16.82,-19.26 28.89,-42.14 45.7,-61.4 -0.42,10.23 -1.81,20.4 -3.37,30.5 -7.7,51.24 -19.58,102.98 -46.24,147.99 22.53,-20.09 43.13,-42.28 62.43,-65.46 5.18,-6.21 10.43,-12.41 16.13,-18.16 -14.25,47.18 -31.68,94.11 -58.73,135.61 10.97,-4.33 21.56,-9.62 32.64,-13.67 -5.98,34.65 -32.43,60.93 -58.84,81.97 5.82,0.74 11.66,1.36 17.52,2.02 -13.01,7.49 -26.57,13.9 -39.65,21.21 -42.25,23.52 -81.79,51.7 -119.21,82.27 18.96,9.05 39.21,18.01 52.63,34.84 5.52,6.71 4.1,15.9 6.23,23.77 10.1,12.56 24.51,24.81 24.03,42.4 -1.74,14.06 -16.84,19.45 -28.82,21.85 0.32,-1.28 1.01,-3.87 1.33,-5.15 2.25,-6.78 2.68,-15.37 -3.43,-20.3 -11.75,-10.58 -28.59,-11.4 -43.57,-12.62 7.79,8 15.53,16.77 17.36,28.22 -5.88,-5.24 -11.47,-10.92 -18.23,-15.07 0.67,1.7 1.95,5.09 2.59,6.78 -7.9,-7.56 -15.26,-15.67 -23.5,-22.86 14.5,-2.7 29.5,-3.04 43.86,0.73 9.37,2.59 20.41,3.44 27.12,11.39 6.12,6.53 3.64,16.1 3.67,24.14 7.55,-4.9 17.22,-11.04 15.69,-21.53 -2.62,-18.07 -18.4,-30.26 -32,-40.7 -5.52,6.14 -10.97,13.21 -19.2,15.71 -11.22,3.44 -23.11,3.12 -34.61,4.83 -10.21,1.2 -20.08,4.15 -29.86,7.2 10.4,4.12 21.14,7.94 30.23,14.65 10.4,7.24 19.08,18.51 32.71,19.22 5.54,2.29 11.08,4.56 16.77,6.55 -1.92,4.97 -15.04,3.34 -19.93,3.09 1.05,-0.48 3.16,-1.44 4.21,-1.9 -11.61,-5.08 -23.2,-10.46 -33.28,-18.25 -20.75,-17.64 -55.15,-13.03 -72.56,7.17 -2.47,7.6 -0.34,16.33 -4.31,23.63 -21.8,41.3 -23.31,90.71 -13.1,135.53 3.16,11.73 -1.39,23.75 0.6,35.57 2.84,7.58 8.22,14.59 15.82,17.91 4.11,1.56 6.95,4.86 9.24,8.5 2.29,-5.15 4.51,-11.63 10.74,-12.99 13.63,1.74 28.52,9.78 31.24,24.37 1.4,6.92 -4.28,11.96 -8.27,16.7 -10.44,-1.9 -20.93,1.79 -31.26,0.21 -7.31,-2.71 -4.1,-10.81 -0.64,-15.32 -7.17,-1.7 -14.48,-3.67 -20.25,-8.48 -3.03,3.96 -6.51,7.63 -9,12 -0.74,3.6 -0.23,7.29 -0.21,10.95 -5.34,-3.27 -11.8,-5.73 -15.16,-11.29 -3.42,-6.32 1,-12.87 3.04,-18.81 2.87,-5.74 -0.64,-12.09 -3.57,-17.06 -12.02,-8.41 -28.47,-11.2 -37.36,-23.75 -3.52,-7.01 -8.4,-13.13 -14.01,-18.55 4,-0.23 8.01,-0.46 12.04,-0.67 -2.26,-3.78 -4.55,-7.53 -6.87,-11.27 -2.22,1.26 -4.42,2.54 -6.62,3.83 -6.46,-22.93 -29.95,-42.77 -54.6,-36.49 -10.31,5.59 -16.22,16.56 -20.87,26.89 -5.45,13.42 -10.65,27.85 -8.52,42.56 0.85,8.42 4.08,17.06 1.15,25.47 10.7,2.13 22.35,5.72 32.2,-1.22 9.94,5.02 22.47,11.11 23.25,23.85 0.18,9.2 -8.93,13.85 -16.42,16.4 -3.6,-1.1 -7.13,-5.43 -11.04,-3.44 -5.13,1.76 -10.63,5.86 -16.04,2.59 -2.2,-6.44 -1.81,-13.36 -2.88,-20 -6,0.03 -14.09,-3.46 -17.84,3.12 -6.21,6.59 -6.33,16.26 0.36,22.54 -5.61,-0.92 -11.52,-0.99 -16.7,-3.51 -6.8,-3.55 -9.57,-12.34 -7.62,-19.47 1.37,-5.29 7.26,-6.23 11.56,-8.08 -2.26,-8.11 1.29,-16.2 0.92,-24.35 -7.12,-15.94 -25.35,-22.72 -34.54,-37.04 -3,-7.88 -6.66,-15.48 -12.28,-21.87 3.94,-0.14 7.88,-0.3 11.82,-0.5 -3.57,-5.52 -10.53,-4.91 -16.24,-5.75 -16.47,-1.49 -32.5,-5.87 -48.42,-10.15 -43.31,-12.53 -85.61,-28.24 -127.99,-43.63 -8.84,-2.91 -16.51,-8.36 -25.12,-11.73 -41.9,-15.41 -83.17,-32.48 -124.31,-49.77 -8.54,-3.58 -17.04,-7.24 -25.14,-11.68 97.96,-8.02 196.33,-18.62 291.52,-44 -8.47,-22.91 -15.32,-46.38 -21.98,-69.86 -9.28,-15.26 -19.18,-30.78 -33.26,-42.14 -36.58,-31.04 -74.14,-61 -113.91,-87.84 -3.55,-2.48 -6.98,-5.11 -10.35,-7.81 12.8,-0.32 25.4,1.9 38.07,3.34 -10.58,-7.1 -21.97,-13.03 -32.11,-20.8 -58.57,-42.33 -92.65,-117.96 -80.67,-189.83 2.26,2.54 4.51,5.13 6.78,7.7 -2.89,-41.12 0.18,-82.78 10.62,-122.7 2.06,-8.04 4.84,-15.88 8.48,-23.34 2.36,13.01 2.86,26.57 8.4,38.8 9.05,-58.07 24.15,-115.79 49.94,-168.79 -0.9,55.41 -0.92,111.3 8.79,166.02 2.43,-24.01 7.49,-47.97 18.37,-69.7 17.93,-38.37 45.88,-71.1 76.34,-100.12zm492.06 673.28l0 0c7.12,9.76 18.3,15.51 25.86,24.94 -5.06,-11.04 -13.54,-21.85 -25.86,-24.94zm-573.9 -483.22l0 0c-0.89,18.74 2.87,37.09 5.55,55.48 -9.44,-10.58 -14.8,-23.91 -20,-36.9 -15.78,-42.72 -20.59,-88.6 -21.05,-133.88 -25.42,61.2 -31.86,131.82 -10.95,195.31 3.87,12.8 10.52,24.48 15.85,36.69 -26.63,-29.96 -40.67,-69.03 -49.01,-107.69 -3.94,10.26 -4.63,21.32 -5.87,32.15 -4.05,43.38 3.14,89.26 27.42,126.16 6.46,10.35 15.67,18.48 23.23,27.97 -23.89,-11.09 -39.33,-33.47 -54.84,-53.74 -0.11,14.43 2.8,28.79 8.36,42.1 12.65,30.67 36.38,55.36 62.26,75.45 28.4,20.43 61.31,33.19 93.7,45.85 47.62,17.8 95.33,35.46 143.79,50.83 5.13,1.65 10.17,3.53 15.1,5.75 -47.09,-5.41 -93.84,-13.75 -140.59,-21.51 12,5.96 24.9,9.69 37.38,14.45 29.23,10.54 58.34,21.44 87.72,31.57 3.14,1.12 6.03,2.79 8.89,4.51 -16.9,3 -34.13,1.83 -51.21,2.27 -12.44,0.29 -24.83,-0.58 -37.2,-1.86 10.01,5.18 21.19,7.19 31.79,10.83 30.21,9.92 60.51,19.59 90.34,30.63 -37.11,-0.85 -74.14,-4.22 -110.93,-8.91 2.54,3.85 5.18,7.67 8.13,11.22 27.97,32.16 61.29,59 94.46,85.53 -18.51,3.59 -37.43,1.78 -56,0.02 8.84,7.21 19.19,12.3 27.9,19.7 -9.56,2.2 -19.61,3.75 -29.32,1.64 -7.42,-1.83 -14.25,-5.38 -21.33,-8.13 0.87,32.46 21.33,61.3 47.78,78.73 3.35,-3.58 6.64,-7.19 10.08,-10.65 0.64,10.72 0.18,21.48 -0.16,32.22 2.95,-0.62 5.89,-1.23 8.86,-1.83 0.6,21.92 4.38,44.41 15.6,63.58 4.4,-2.15 9.44,-3.59 12.92,-7.21 2.66,-7.97 3,-16.47 5.06,-24.58 5.38,-22.63 15.69,-43.91 28.57,-63.19 2.88,-5.57 9.5,-6.03 14.56,-8.43 6.09,-2.84 11.18,-7.37 16.84,-10.95 -4.79,11.55 -12.99,21.17 -18.44,32.34 7.44,-0.71 15.14,-1.72 21.73,-5.54 10.01,-5.27 16.77,-14.64 24.79,-22.31 -0.81,16.56 -7.72,32.18 -18.03,44.99 6.3,11.7 12.35,23.52 18.44,35.31 5.2,-1.53 7.08,-7.51 10.37,-11.29 9.76,16.86 16.86,35.16 26.66,51.97 7.24,3.39 15.37,0.73 22.7,-1.03 -2.36,-7.88 -5.22,-15.62 -7.49,-23.52 -7.51,-27.78 -6.18,-56.87 -2.36,-85.11 -4.05,3.02 -8.01,6.16 -11.95,9.34 11.31,-18.74 23.13,-37.91 27.35,-59.69 -7.03,2.25 -13.98,4.79 -20.98,7.05 7.76,-8.9 18.18,-15.91 22.47,-27.39 -21.19,7.13 -43.78,11.25 -66.06,6.96 7.69,-4.71 15.96,-8.38 23.64,-13.12 17.77,-11.15 33.37,-27.58 39.12,-48.19 3.71,-15.39 2.43,-32.75 -6.97,-45.97 -15.48,-23.06 -42.51,-35.71 -68.92,-41.43 3.12,22.6 8.48,44.87 13.04,67.22 1.07,3.96 -1.88,7.24 -3.53,10.58 -33.46,-14.33 -71.51,-7 -104.21,5.87 21.39,-15.67 47.02,-25.08 72.81,-30.69 -3.8,-47.39 -9.96,-94.58 -14.32,-141.92 -0.59,-4.76 -0.57,-9.76 -2.42,-14.27 -6.17,-4.22 -13.29,-6.67 -20.02,-9.71 -42.31,-18.69 -84.47,-37.68 -126.94,-56 -4.88,-2.13 -9.64,-4.54 -14.25,-7.24 13.91,1.07 27.31,5.11 40.89,7.9 36.16,7.86 72.19,16.49 108.45,23.82 -11.66,-5.59 -24.05,-9.34 -36.14,-13.86 -50.53,-18.82 -101.03,-37.74 -151.49,-56.78 -12.99,-5.08 -26.46,-9.09 -38.89,-15.5 61.13,13.6 122.17,27.78 183.53,40.38 -8.41,-10.65 -18.44,-19.86 -27.1,-30.28 -39.53,-45.38 -72.38,-96.96 -94.02,-153.23 -15.83,-40.29 -24.85,-82.96 -28.95,-125.98 -6.64,10.54 -9.94,22.66 -13.4,34.5 -10.47,36.25 -13.17,75.1 -6,112.23 3.21,17.96 10.97,34.49 18.28,51.03 -40.57,-37.4 -61.57,-94.11 -56.87,-148.95 1.83,-33.8 13.14,-66.05 26.11,-97.02 -44.74,41.75 -74.83,101.44 -74.31,163.35zm682.51 -156.23l0 0c-3.5,40.04 -10.4,80.19 -25.54,117.62 -13.86,35.5 -34.35,68.04 -57.81,97.94 -7.99,9.87 -15.55,20.24 -25.17,28.65 1.58,-16.38 5.52,-32.46 6.53,-48.93 3.64,-35.2 0.11,-71.3 -11.55,-104.81 -1.07,-2.97 -2.88,-5.58 -4.65,-8.17 -1.81,39.23 -11.1,77.83 -25.19,114.38 -16.01,42.31 -39.21,82.23 -70.18,115.35 -44.78,46.52 -85.25,97.89 -114.04,155.93 -4.58,9.99 -10.61,19.45 -13.56,30.08 -0.3,9.23 2.04,18.27 3.46,27.35 4.74,-9.12 7.14,-19.15 11.2,-28.54 15.59,-37.59 38.64,-71.58 64.06,-103.17 7.58,-9.3 14.89,-18.94 23.91,-26.93 -6.85,15.16 -15.85,29.27 -22.17,44.71 -17.91,40.13 -23.06,85.41 -15.99,128.7 17.76,4.07 35.6,7.97 52.98,13.51 7.17,2.04 14.39,5.04 21.99,4.35 11.43,-1.07 22.86,-2.56 34.17,-4.76 -19.35,-3.16 -39.05,-4.08 -58.13,-8.91 4.68,-4.01 11.09,-4.19 16.84,-5.45 31.31,-6.12 62.53,-12.74 94.02,-17.77 -11.34,-2.66 -23.06,-1.88 -34.61,-2.25 -27.55,-1.03 -55.13,-1.51 -82.68,-1.92 14.47,-3.76 29.43,-4.84 44.18,-7.08 41.02,-5.36 82.02,-10.97 123.18,-15.19 9.94,-0.8 18.62,-6.25 26.07,-12.5 -5.8,-0.78 -11.62,-1.4 -17.41,-2.06 10.58,-5.46 22.03,-9.03 32.48,-14.78 21.87,-12.28 43.47,-29.52 51.42,-54.24 -16.91,6.17 -33.51,13.33 -51.01,17.8 25.74,-29.39 49.31,-61.77 61.7,-99.2 -3.11,2.48 -6.16,5.02 -9.04,7.77 -21.83,21.64 -45.86,43.54 -75.96,52.52 6.83,-11.32 15.49,-21.42 22.48,-32.67 25.72,-40.08 43.93,-85.73 49.03,-133.23 -7.78,8.08 -13.74,17.61 -20.59,26.45 -18.57,23.37 -37.06,48.06 -62.39,64.46 4.31,-8.71 9.83,-16.77 14.8,-25.11 28.49,-47.84 48.58,-100.87 57.17,-155.98 5.01,-31.17 5.31,-63.26 -0.76,-94.32 -2.86,-13.65 -6.41,-27.34 -13.24,-39.6zm-257.54 551.06l0 0c21.24,18.46 39.93,42.33 44.3,70.85 -7.99,-13.15 -17.31,-25.87 -30.26,-34.57 16.22,20.87 22.63,49.75 12.49,74.74 8.72,-2.06 17.66,-3.07 26.61,-2.77 6.76,0.75 12.23,-3.81 18.35,-5.75 14.56,-5.16 30.21,-5.66 45.46,-6.71 8.64,-1.15 18.72,-3.74 22.82,-12.3 3.55,-9.19 -1.68,-18.97 -8.36,-25.22 -13.7,-12.94 -30.22,-22.61 -47.28,-30.39 2.66,3.29 5.66,6.32 8.02,9.87 -29.5,-15.28 -59.62,-30.03 -92.15,-37.75zm116.98 40.52l0 0c7.9,6.62 16.44,12.57 23.13,20.5 5.2,5.61 8.08,13.81 15.71,16.74 -3.09,-19.53 -22.93,-29.27 -38.84,-37.24zm-14.14 70.57l0 0c4.29,4.35 9.49,7.65 15.12,10.01 -3.39,-5.48 -8.5,-9.58 -15.12,-10.01zm-606.71 47.59l0 0c6.85,2.84 13.79,5.61 20.98,7.49 18.62,10.15 39.16,16.08 58.79,23.94 12.1,3.64 24.03,11.15 37.11,8.15 30.71,-4.6 61.77,-6.89 92.33,-12.57 3.89,-0.09 7.81,-0.32 11.75,-0.28 -26.75,10.33 -54.2,18.69 -81.2,28.27 5.18,2.08 10.42,4.19 15.96,5.13 19.13,10.1 40.68,14.52 60.82,22.21 6.14,1.54 12.8,6.19 19.05,2.64 14.64,-6.39 29.32,-12.69 44.03,-18.92 -1.35,-1.58 -2.68,-3.14 -4.04,-4.7l-1.21 0.37c-30.26,-22.68 -55.27,-53.21 -67.5,-89.3 -67.36,18.34 -137.47,23.52 -206.87,27.57zm282.43 67.14l0 0c-8.15,9 -17.47,17.06 -24.02,27.37 5.7,1.19 11.4,2.35 17.08,3.68 6.26,-8.26 12.03,-16.9 16.93,-26.06 -3.34,-1.67 -6.66,-3.32 -9.99,-4.99zm103.9 131.15l0 0c0.14,4.95 1.1,9.85 1.74,14.77 4.01,-3.25 8.4,-8.68 4.99,-13.95 -0.78,-3.27 -5.82,-4.79 -6.73,-0.82zm162 -2.29l0 0c-6.18,3.78 -0.16,12.25 0.41,17.79 10.01,1.22 9.3,-19.81 -0.41,-17.79zm-48.08 22.95l0 0c4.42,-4.84 15.03,-9.19 11.14,-16.86 -9.95,-4.95 -14.23,9.66 -11.14,16.86zm63.45 -16.75l0 0c-4.03,5.27 -0.51,10.13 3.12,14.34 -0.53,3.25 -1.13,6.51 -1.61,9.8 3.62,-2.67 8.96,-5.06 9,-10.28 0.53,-6.71 -5.86,-10.44 -10.51,-13.86zm-166.1 4.61l0 0c0.91,2.98 1.83,5.95 2.68,8.95 -1.88,2.55 -3.78,5.09 -5.62,7.7 4.38,-1.49 9.49,-2.27 12.65,-5.98 1.58,-5.18 -1.15,-9.98 -3.55,-14.31 -2.06,1.19 -4.12,2.4 -6.16,3.64zm-66.24 3.78l0 0c-0.71,6.8 -0.12,14.22 6.53,17.86 1.12,-5.75 2.44,-11.45 3.66,-17.15 -3.37,-0.71 -6.78,-0.9 -10.19,-0.71zm44.06 0.11l0 0c0.14,5.02 0.14,10.06 -0.11,15.1 2.86,-1.88 5.7,-3.78 8.57,-5.66 -2.18,-3.71 -5.18,-6.76 -8.46,-9.44zm164.8 13.65l0 0c5.5,3.53 12.69,2.29 15.42,-4.12 -5.61,-1.15 -10.63,1.72 -15.42,4.12z"/>
   <path class="fil3" d="M1078.72 716.9c32.53,7.72 62.65,22.47 92.15,37.75 -2.36,-3.55 -5.36,-6.58 -8.02,-9.87 17.06,7.78 33.58,17.45 47.28,30.39 6.68,6.25 11.91,16.03 8.36,25.22 -4.1,8.56 -14.18,11.15 -22.82,12.3 -15.25,1.05 -30.9,1.55 -45.46,6.71 -6.12,1.94 -11.59,6.5 -18.35,5.75 -8.95,-0.3 -17.89,0.71 -26.61,2.77 10.14,-24.99 3.73,-53.87 -12.49,-74.74 12.95,8.7 22.27,21.42 30.26,34.57 -4.37,-28.52 -23.06,-52.39 -44.3,-70.85zm117.27 73.18l0 0c-2.01,2.02 1.22,5.42 3.28,3.37 2.05,-2.06 -1.26,-5.39 -3.28,-3.37zm-5.72 -21.83l0 0c-15.07,-10.12 -39.08,-15.02 -56.42,-20.11 17.6,8.2 35.88,15.59 51.13,27.9 -0.53,6.41 0.32,12.69 4.05,18.14 -8.24,-0.25 -15.94,-3.05 -23.41,-6.23 10.15,10.24 25.43,12.85 39.24,10.72 2.43,0.62 4.85,1.21 7.33,1.83 -1.81,-12.48 -8.3,-28.9 -21.92,-32.25zm5.43 -10.83l0 0c7.9,6.62 16.44,12.57 23.13,20.5 5.2,5.61 8.08,13.81 15.71,16.74 -3.09,-19.53 -22.93,-29.27 -38.84,-37.24zm-620.85 118.16l0 0c69.4,-4.05 139.51,-9.23 206.87,-27.57 12.23,36.09 37.24,66.62 67.5,89.3 -17.34,6.23 -36.03,5.27 -54.12,5.2 -21.69,-0.12 -43.06,-4.24 -64.53,-6.8 -5.54,-0.94 -10.78,-3.05 -15.96,-5.13 27,-9.58 54.45,-17.94 81.2,-28.27 -3.94,-0.04 -7.86,0.19 -11.75,0.28 -52.11,0.32 -104.45,-2.57 -155.57,-13.06 -10.86,-2.36 -21.76,-4.4 -32.66,-6.46 -7.19,-1.88 -14.13,-4.65 -20.98,-7.49zm407.31 217.48l0 0c1.58,-5.18 -1.15,-9.98 -3.55,-14.31 -2.06,1.19 -4.12,2.4 -6.16,3.64 0.91,2.98 1.83,5.95 2.68,8.95 -1.88,2.55 -3.78,5.09 -5.62,7.7 4.38,-1.49 9.49,-2.27 12.65,-5.98zm148.33 2.75l0 0c-5.61,-1.15 -10.63,1.72 -15.42,4.12 5.5,3.53 12.69,2.29 15.42,-4.12zm8.06 -18.03l0 0c-4.03,5.27 -0.51,10.13 3.12,14.34 -0.53,3.25 -1.13,6.51 -1.61,9.8 3.62,-2.67 8.96,-5.06 9,-10.28 0.53,-6.71 -5.86,-10.44 -10.51,-13.86zm-15.37 -6.2l0 0c-6.18,3.78 -0.16,12.25 0.41,17.79 10.01,1.22 9.3,-19.81 -0.41,-17.79zm-36.94 6.09l0 0c-9.95,-4.95 -14.23,9.66 -11.14,16.86 4.42,-4.84 15.03,-9.19 11.14,-16.86zm-173.5 26.36l0 0c1.12,-5.75 2.44,-11.45 3.66,-17.15 -3.37,-0.71 -6.78,-0.9 -10.19,-0.71 -0.71,6.8 -0.12,14.22 6.53,17.86zm45.99 -8.31l0 0c-2.18,-3.71 -5.18,-6.76 -8.46,-9.44 0.14,5.02 0.14,10.06 -0.11,15.1 2.86,-1.88 5.7,-3.78 8.57,-5.66zm4.19 -7.08l0 0c-0.64,-4.92 -1.6,-9.82 -1.74,-14.77 0.91,-3.97 5.95,-2.45 6.73,0.82 3.41,5.27 -0.98,10.7 -4.99,13.95zm140.68 -354.38l0 0c6.69,12.6 15.71,24.07 20.11,37.82 4.07,10.81 4.78,22.56 3.25,33.96 -4.63,-8.45 -7.95,-17.77 -14.66,-24.89 2.45,13.24 4.35,27 -0.11,40.06 10.1,-0.85 20.84,1.53 30.32,-3 8.54,-3.85 17.68,-6.03 26.87,-7.77 -7.44,-6.02 -14.96,-12.64 -18.49,-21.8 -5.52,-13.19 -9.36,-28.34 -21.76,-37.04 2.55,7.38 5.55,14.59 7.47,22.15 -9.53,-14.25 -17.31,-30.83 -33,-39.49z"/>
  </g>
 </g>
</svg>
