<?xml version="1.0" encoding="UTF-8"?>
<!DOCTYPE svg PUBLIC "-//W3C//DTD SVG 1.1//EN" "http://www.w3.org/Graphics/SVG/1.1/DTD/svg11.dtd">
<!-- Creator: CorelDRAW -->
<svg xmlns="http://www.w3.org/2000/svg" xml:space="preserve" width="2000px" height="1600px" version="1.1" style="shape-rendering:geometricPrecision; text-rendering:geometricPrecision; image-rendering:optimizeQuality; fill-rule:evenodd; clip-rule:evenodd"
viewBox="0 0 2000 1600"
 xmlns:xlink="http://www.w3.org/1999/xlink">
 <defs>
  <style type="text/css">
   <![CDATA[
    .fil2 {fill:black}
    .fil0 {fill:#8F8F8F}
    .fil1 {fill:#E31737}
    .fil3 {fill:#FEFEFE}
   ]]>
  </style>
 </defs>
 <g id="Capa_x0020_1">
  <metadata id="CorelCorpID_0Corel-Layer"/>
  <g id="Nebraska_x0020_Omaha_x0020_Mavericks.cdr">
   <path class="fil0" d="M1204.11 80l54.18 0c60.77,2.08 121.61,9.42 180.26,25.78 55.75,15.41 109.7,38.83 156.9,72.53 43.22,30.84 80.67,70.52 105.88,117.47 21.82,40.2 33.79,85.44 35.9,131.09l0 26.21c-1.23,26.65 -6.04,52.94 -12.51,78.77 -36.76,159.8 -73.59,319.58 -110.34,479.38 -4.83,19.87 -8.6,40 -14.48,59.59 -22.89,76.47 -70.85,143.25 -128.2,197.82 -58.33,55.44 -126.62,99.57 -198.54,135.22 -78.52,38.55 -161.8,67.08 -247.04,86.49 -57.63,13.13 -116.22,22.06 -175.16,26.51 -56.28,4.13 -112.93,4.55 -169.13,-0.93 -60.75,-5.99 -121.12,-18.7 -178.02,-41.13 -49.87,-19.77 -97.16,-47.17 -136.69,-83.67 -35.53,-32.53 -64.63,-72.48 -82.63,-117.29 -12.81,-31.44 -19.79,-65.08 -21.72,-98.93l0 -30.93c1.4,-20.01 3.9,-39.98 8.57,-59.51 40.18,-173.92 80.4,-347.83 120.6,-521.75 3.57,-15.94 7.45,-31.83 12.88,-47.25 23.39,-68.33 66.63,-128.38 117.86,-178.65 40.01,-38.99 85.04,-72.62 132.73,-101.63 93.98,-56.93 197.75,-96.68 304.38,-122.44 80.02,-19.32 162.05,-30.22 244.32,-32.75zm-35.62 15.26l0 0c-83.84,4.99 -167.12,19.16 -247.99,41.81 -112.29,31.66 -221.04,79.37 -315.58,148.31 -44.99,33.01 -86.57,71.07 -120.96,115.13 -34.92,44.67 -62.35,95.92 -75.48,151.31 -37.79,163.51 -75.6,327.01 -113.36,490.52 -6.32,29.04 -14.81,57.75 -17.46,87.47 -3.4,36.13 -0.81,72.96 9.05,107.94 14.74,53.97 46.09,102.63 86.88,140.62 40.59,38.32 89.91,66.49 141.89,86.26 58.92,22.34 121.39,34.29 184.09,39.19 59.18,4.52 118.72,2.88 177.76,-2.91 95.7,-9.64 190.26,-30.8 280.82,-63.25 75.9,-27.33 149.13,-62.8 215.93,-108.19 61.83,-42.28 118.56,-93.48 160.91,-155.66 26.78,-39.36 47.42,-83.27 57.83,-129.86 40.87,-177.49 81.73,-354.99 122.6,-532.48 8.13,-35.06 10.51,-71.53 6.16,-107.28 -6.16,-52.05 -27.13,-102.09 -59.3,-143.39 -35.79,-46.32 -83.78,-82.26 -136.23,-107.7 -55.02,-26.85 -114.8,-42.91 -175.26,-51.6 -60.34,-8.68 -121.52,-9.75 -182.3,-6.24z"/>
   <path class="fil0" d="M1041.18 414.9c35.85,-2.59 72.14,-2.68 107.75,2.66 25.78,4.19 52.28,11.76 72.42,29.17 15.42,13.01 25.05,32.16 27.29,52.14 2.3,17.88 -0.2,35.99 -4.46,53.39 -38.95,170.54 -77.91,341.08 -116.83,511.62 -4.5,22.67 -15.03,44.09 -30.24,61.51 -16.28,18.71 -37.6,32.62 -60.53,41.86 -30.77,12.46 -64.05,17.53 -97.08,18.9 -37.36,1.27 -75.35,0.64 -111.73,-8.85 -22.41,-6.02 -44.78,-16.48 -59.59,-34.94 -13.51,-16.6 -18.57,-38.66 -17.67,-59.73 0.37,-17.45 5.2,-34.32 8.92,-51.25 38.23,-167.61 76.44,-335.2 114.68,-502.81 8.14,-32.53 29.52,-61.04 57.43,-79.34 32.42,-21.54 71.32,-30.8 109.64,-34.33zm4.28 13.3l0 0c-32.14,2.69 -64.52,9.46 -93.18,24.73 -26.13,13.66 -48.3,35.73 -59.62,63.18 -5.06,11.39 -6.98,23.76 -9.9,35.79 -36.19,158.84 -72.42,317.66 -108.64,476.5 -5.31,24.46 -13.45,49.42 -8.68,74.7 2.9,18.68 14.28,35.6 30.22,45.72 23.42,15.2 51.73,20.01 79.03,22.65 32.36,2.48 65.03,2.36 97.26,-1.73 33.03,-4.51 66.26,-14.2 93.48,-34.05 22.74,-16.37 40.03,-40.51 46.97,-67.75 38.79,-169.84 77.57,-339.66 116.36,-509.5 2.95,-12.89 6.28,-25.77 6.97,-39.04 1.28,-19.76 -3.23,-41.03 -17,-55.92 -16.23,-18 -40.24,-26.17 -63.37,-30.82 -36.16,-6.88 -73.29,-6.8 -109.9,-4.46z"/>
   <path class="fil1" d="M1176.33 151.13c77.29,-4.07 155.62,0.5 230.73,20.08 57.3,15.04 113.08,39.04 159.78,75.98 39.36,30.96 71.63,72.09 87.88,119.78 10.97,31.29 14.59,64.93 11.97,97.91 -2.12,28.91 -10.61,56.79 -16.6,85.02 -33.89,147.49 -67.74,294.98 -101.64,442.49 -4.35,18.66 -8.41,37.39 -12.97,56 -11.89,44.56 -34.65,85.7 -62.99,121.87 -29.75,37.99 -66.35,70.57 -107.43,95.85 -3,1.66 -5.99,4.32 -9.66,3.48 -3.55,-0.59 -2.04,-4.67 -1.61,-6.93 57.29,-248.87 114.4,-497.77 171.64,-746.66 4.39,-20.45 10.74,-40.8 10.43,-61.94 0.64,-24.99 -6.11,-50.05 -18.92,-71.49 -10.74,-18.09 -25.44,-33.65 -42.12,-46.37 -27.22,-20.89 -59.13,-34.89 -91.84,-44.78 -55.65,-16.61 -114.07,-21.57 -171.93,-21.68 -70.37,1.38 -141.11,7.79 -209.42,25.51 -42.51,11.4 -84.6,27.6 -119.93,54.4 -31.32,23.42 -55.42,57.13 -64.27,95.5 -46.87,205.25 -93.6,410.53 -140.44,615.79 -3.03,13.31 -6.46,26.59 -7.27,40.26 -2.03,25.46 4.6,52 20.47,72.27 16.08,21.14 39.52,35.29 63.76,45.24 28.1,11.35 57.99,17.62 87.97,21.42 45.17,5.56 90.85,5.6 136.2,2.45 3.32,-0.73 8.81,1.2 7.4,5.48 -2.2,3.12 -6.38,3.48 -9.72,4.64 -36.19,9.65 -73.5,14.39 -110.78,17.2 -64.65,4.33 -130.19,2.76 -193.78,-10.57 -31.38,-6.92 -62.61,-16.89 -89.89,-34.21 -19.73,-12.56 -37,-30.22 -45.37,-52.38 -7.56,-19.87 -7.31,-41.95 -2.48,-62.42 51.54,-226 103.1,-451.99 154.6,-678 13.1,-53.04 40,-102.84 78.55,-141.69 36.05,-37.06 81.08,-64.38 128.57,-84.23 88.97,-36.79 185.58,-50.12 281.11,-55.27z"/>
   <path class="fil2" d="M1139.16 329.66c36.25,-2.33 72.66,-2.5 108.92,-0.07 41.1,2.93 82.27,9.01 121.45,22.16 25.19,8.71 49.97,20.5 69.55,38.94 14.43,13.5 25.28,31.18 29.02,50.72 3.18,15.99 2.13,32.61 -1.57,48.43 -50.25,220.34 -100.6,440.67 -150.84,661.03 -9.05,45.29 -27.26,88.98 -54.85,126.15 -28.39,38.71 -66.31,69.75 -108.02,93.14 -42.95,24.13 -89.81,40.62 -137.49,52.49 -63.43,15.52 -128.57,23 -193.71,26.23 -68.63,3.52 -137.97,0.1 -205.26,-14.59 -64.44,-14.11 -127.64,-38.77 -180.22,-79.26 -42.84,-32.86 -77.56,-77.73 -93.29,-129.78 -13.35,-43.09 -13.15,-89.68 -2.43,-133.3 40.54,-175.61 81.02,-351.22 121.55,-526.84 7.88,-37 23.55,-72.06 43.87,-103.88 33.84,-52.88 80.17,-97.73 134.18,-129.75 2.6,-1.97 8.78,-1.54 7.51,2.98 -58,252.05 -116.31,504.04 -174.41,756.08 -3.18,14.28 -7.21,28.44 -8.41,43.07 -2.71,27.94 2.89,56.78 16.9,81.21 14.02,24.8 35.36,44.8 59.31,59.95 29.53,18.81 62.86,30.97 96.71,39.41 69.67,16.76 142.07,18.45 213.27,13.35 61.49,-4.63 123.23,-13.29 181.79,-33.28 33.41,-11.61 65.94,-27.25 93.21,-50.09 29.2,-24.01 50.52,-57.73 57.91,-94.95 47.41,-207.88 94.8,-415.76 142.24,-623.65 5.25,-21.77 6.68,-45.01 0.29,-66.7 -6.63,-23.44 -22.71,-43.37 -42.47,-57.23 -27.56,-19.54 -60.42,-29.88 -93.22,-36.61 -56.55,-11.1 -114.62,-11.42 -171.93,-7.7 -6.2,-0.09 -5.19,-8.05 0.15,-8.6 39.1,-11.31 79.78,-16.09 120.29,-19.06z"/>
   <path class="fil3" d="M688.1 432.32c13.1,-53.04 40,-102.84 78.55,-141.69 36.05,-37.06 81.08,-64.38 128.57,-84.23 88.97,-36.79 185.58,-50.12 281.11,-55.27 77.29,-4.07 155.62,0.5 230.73,20.08 57.3,15.04 113.08,39.04 159.78,75.98 39.36,30.96 71.63,72.09 87.88,119.78 10.97,31.29 14.59,64.93 11.97,97.91 -2.12,28.91 -10.61,56.79 -16.6,85.02 -33.89,147.49 -67.74,294.98 -101.64,442.49 -4.35,18.66 -8.41,37.39 -12.97,56 -11.89,44.56 -34.65,85.7 -62.99,121.87 -29.75,37.99 -66.35,70.57 -107.43,95.85 -3,1.66 -5.99,4.32 -9.66,3.48 -3.55,-0.59 -2.04,-4.67 -1.61,-6.93 57.29,-248.87 114.4,-497.77 171.64,-746.66 4.39,-20.45 10.74,-40.8 10.43,-61.94 0.64,-24.99 -6.11,-50.05 -18.92,-71.49 -10.74,-18.09 -25.44,-33.65 -42.12,-46.37 -27.22,-20.89 -59.13,-34.89 -91.84,-44.78 -55.65,-16.61 -114.07,-21.57 -171.93,-21.68 -70.37,1.38 -141.11,7.79 -209.42,25.51 -42.51,11.4 -84.6,27.6 -119.93,54.4 -31.32,23.42 -55.42,57.13 -64.27,95.5 -46.87,205.25 -93.6,410.53 -140.44,615.79 -3.03,13.31 -6.46,26.59 -7.27,40.26 -2.03,25.46 4.6,52 20.47,72.27 16.08,21.14 39.52,35.29 63.76,45.24 28.1,11.35 57.99,17.62 87.97,21.42 45.17,5.56 90.85,5.6 136.2,2.45 3.32,-0.73 8.81,1.2 7.4,5.48 -2.2,3.12 -6.38,3.48 -9.72,4.64 -36.19,9.65 -73.5,14.39 -110.78,17.2 -64.65,4.33 -130.19,2.76 -193.78,-10.57 -31.38,-6.92 -62.61,-16.89 -89.89,-34.21 -19.73,-12.56 -37,-30.22 -45.37,-52.38 -7.56,-19.87 -7.31,-41.95 -2.48,-62.42 51.54,-226 103.1,-451.99 154.6,-678zm451.06 -102.66l0 0c-40.51,2.97 -81.19,7.75 -120.29,19.06 -5.34,0.55 -6.35,8.51 -0.15,8.6 57.31,-3.72 115.38,-3.4 171.93,7.7 32.8,6.73 65.66,17.07 93.22,36.61 19.76,13.86 35.84,33.79 42.47,57.23 6.39,21.69 4.96,44.93 -0.29,66.7 -47.44,207.89 -94.83,415.77 -142.24,623.65 -7.39,37.22 -28.71,70.94 -57.91,94.95 -27.27,22.84 -59.8,38.48 -93.21,50.09 -58.56,19.99 -120.3,28.65 -181.79,33.28 -71.2,5.1 -143.6,3.41 -213.27,-13.35 -33.85,-8.44 -67.18,-20.6 -96.71,-39.41 -23.95,-15.15 -45.29,-35.15 -59.31,-59.95 -14.01,-24.43 -19.61,-53.27 -16.9,-81.21 1.2,-14.63 5.23,-28.79 8.41,-43.07 58.1,-252.04 116.41,-504.03 174.41,-756.08 1.27,-4.52 -4.91,-4.95 -7.51,-2.98 -54.01,32.02 -100.34,76.87 -134.18,129.75 -20.32,31.82 -35.99,66.88 -43.87,103.88 -40.53,175.62 -81.01,351.23 -121.55,526.84 -10.72,43.62 -10.92,90.21 2.43,133.3 15.73,52.05 50.45,96.92 93.29,129.78 52.58,40.49 115.78,65.15 180.22,79.26 67.29,14.69 136.63,18.11 205.26,14.59 65.14,-3.23 130.28,-10.71 193.71,-26.23 47.68,-11.87 94.54,-28.36 137.49,-52.49 41.71,-23.39 79.63,-54.43 108.02,-93.14 27.59,-37.17 45.8,-80.86 54.85,-126.15 50.24,-220.36 100.59,-440.69 150.84,-661.03 3.7,-15.82 4.75,-32.44 1.57,-48.43 -3.74,-19.54 -14.59,-37.22 -29.02,-50.72 -19.58,-18.44 -44.36,-30.23 -69.55,-38.94 -39.18,-13.15 -80.35,-19.23 -121.45,-22.16 -36.26,-2.43 -72.67,-2.26 -108.92,0.07zm211.63 -228.16l0 0c-60.34,-8.68 -121.52,-9.75 -182.3,-6.24 -83.84,4.99 -167.12,19.16 -247.99,41.81 -112.29,31.66 -221.04,79.37 -315.58,148.31 -44.99,33.01 -86.57,71.07 -120.96,115.13 -34.92,44.67 -62.35,95.92 -75.48,151.31 -37.79,163.51 -75.6,327.01 -113.36,490.52 -6.32,29.04 -14.81,57.75 -17.46,87.47 -3.4,36.13 -0.81,72.96 9.05,107.94 14.74,53.97 46.09,102.63 86.88,140.62 40.59,38.32 89.91,66.49 141.89,86.26 58.92,22.34 121.39,34.29 184.09,39.19 59.18,4.52 118.72,2.88 177.76,-2.91 95.7,-9.64 190.26,-30.8 280.82,-63.25 75.9,-27.33 149.13,-62.8 215.93,-108.19 61.83,-42.28 118.56,-93.48 160.91,-155.66 26.78,-39.36 47.42,-83.27 57.83,-129.86 40.87,-177.49 81.73,-354.99 122.6,-532.48 8.13,-35.06 10.51,-71.53 6.16,-107.28 -6.16,-52.05 -27.13,-102.09 -59.3,-143.39 -35.79,-46.32 -83.78,-82.26 -136.23,-107.7 -55.02,-26.85 -114.8,-42.91 -175.26,-51.6zm-309.61 313.4l0 0c-38.32,3.53 -77.22,12.79 -109.64,34.33 -27.91,18.3 -49.29,46.81 -57.43,79.34 -38.24,167.61 -76.45,335.2 -114.68,502.81 -3.72,16.93 -8.55,33.8 -8.92,51.25 -0.9,21.07 4.16,43.13 17.67,59.73 14.81,18.46 37.18,28.92 59.59,34.94 36.38,9.49 74.37,10.12 111.73,8.85 33.03,-1.37 66.31,-6.44 97.08,-18.9 22.93,-9.24 44.25,-23.15 60.53,-41.86 15.21,-17.42 25.74,-38.84 30.24,-61.51 38.92,-170.54 77.88,-341.08 116.83,-511.62 4.26,-17.4 6.76,-35.51 4.46,-53.39 -2.24,-19.98 -11.87,-39.13 -27.29,-52.14 -20.14,-17.41 -46.64,-24.98 -72.42,-29.17 -35.61,-5.34 -71.9,-5.25 -107.75,-2.66z"/>
  </g>
 </g>
</svg>
