<?xml version="1.0" encoding="UTF-8"?>
<!DOCTYPE svg PUBLIC "-//W3C//DTD SVG 1.1//EN" "http://www.w3.org/Graphics/SVG/1.1/DTD/svg11.dtd">
<!-- Creator: CorelDRAW -->
<svg xmlns="http://www.w3.org/2000/svg" xml:space="preserve" width="2000px" height="1600px" version="1.1" style="shape-rendering:geometricPrecision; text-rendering:geometricPrecision; image-rendering:optimizeQuality; fill-rule:evenodd; clip-rule:evenodd"
viewBox="0 0 2000 1600"
 xmlns:xlink="http://www.w3.org/1999/xlink">
 <defs>
  <style type="text/css">
   <![CDATA[
    .fil0 {fill:#D01F2E}
    .fil1 {fill:#FEFEFE}
   ]]>
  </style>
 </defs>
 <g id="Capa_x0020_1">
  <metadata id="CorelCorpID_0Corel-Layer"/>
  <g id="Nebraska_x0020_Cornhuskers.cdr">
   <path class="fil0" d="M214.92 80l576.81 0 447.61 663.04 0.01 -245.59 -99.29 0 -0.02 -417.45 645.03 0 -0.06 417.48 -101.88 -0.03 -0.03 605.47 101.84 -0.11 0.13 417.19 -576.88 0 -450.55 -648.62 -0.07 231.51 98.98 0.06 -0.02 417.05 -641.61 0 0 -417.08 100.47 0 -0.02 -605.46 -100.45 0 0 -417.46z"/>
   <path class="fil1" d="M232.44 97.52l550.01 0.06 474.79 703.52 0.13 -321.32 -99.44 -0.22 0.01 -382.04 609.25 0 -0.17 382.16 -101.83 -0.06 0.04 641.2 101.97 0.03 -0.01 382.03 -549.53 -0.11 -477.87 -687.79 -0.07 305.82 99.29 0.02 0 382.06 -606.67 -0.16 0.1 -381.9 100.45 -0.03 0 -641.21 -100.45 -0.02 0 -382.04zm27.79 27.78l0 0 -0.05 326.8 100.54 0.17 -0.05 695.93 -100.46 0.02 -0.02 326.85 551.04 0.03 -0.21 -327.02 -98.7 0.12 0.01 -421.43 519.9 748.34 507.54 -0.01 0.02 -326.88 -101.97 -0.02 -0.05 -695.93 102.06 -0.15 -0.04 -326.82 -554.07 0 -0.03 326.83 99.05 0.2 -0.1 438.85 -516.91 -765.89 -507.5 0.01z"/>
  </g>
 </g>
</svg>
