<?xml version="1.0" encoding="UTF-8"?>
<!DOCTYPE svg PUBLIC "-//W3C//DTD SVG 1.1//EN" "http://www.w3.org/Graphics/SVG/1.1/DTD/svg11.dtd">
<!-- Creator: CorelDRAW -->
<svg xmlns="http://www.w3.org/2000/svg" xml:space="preserve" width="2000px" height="1600px" version="1.1" style="shape-rendering:geometricPrecision; text-rendering:geometricPrecision; image-rendering:optimizeQuality; fill-rule:evenodd; clip-rule:evenodd"
viewBox="0 0 2000 1600"
 xmlns:xlink="http://www.w3.org/1999/xlink">
 <defs>
  <style type="text/css">
   <![CDATA[
    .fil1 {fill:#005CA6}
    .fil3 {fill:#093153}
    .fil2 {fill:#A2AAAB}
    .fil0 {fill:#FEFEFE}
   ]]>
  </style>
 </defs>
 <g id="Capa_x0020_1">
  <metadata id="CorelCorpID_0Corel-Layer"/>
  <g id="New_x0020_Orleans_x0020_Privateers.cdr">
   <path class="fil0" d="M915.7 407.91c0.66,-3.28 4.51,-2.57 6.94,-2.94 15.11,-0.57 30.21,-1.39 45.34,-1.64 10.68,25 21.53,49.9 32.25,74.88 -12.09,0.02 -24.18,0.94 -36.3,0.74 -2.31,-5.16 -4.67,-10.29 -6.98,-15.42 -10.63,0.85 -21.32,0.39 -31.91,1.77 -2.93,4.97 -4.92,10.42 -7.19,15.71 -11.17,0.36 -22.33,1.51 -33.5,1.9 10.4,-25.03 20.77,-50.07 31.35,-75zm336.44 564.76l0 0c38.84,-12.96 81.32,-18.02 121.54,-8.61 24.13,5.68 48.13,18.02 61.85,39.39 11.55,18.09 11.84,41.47 3.9,61.01 -17.11,-24.09 -43.19,-41.84 -72.39,-47.22 -21.85,-4.13 -44.66,-3.71 -66.3,1.28 -11.87,-19.26 -29.5,-34.1 -48.6,-45.85zm-628.66 -7.08l0 0c41.84,-11.45 86.68,-6.52 127.42,7.03 -18.91,11.89 -36.52,26.69 -48.52,45.76 -27.55,-5.79 -57.05,-5.79 -83.78,3.8 -22.14,7.97 -41.45,23.11 -54.91,42.37 -6.99,-18.09 -7.86,-39.32 1.49,-56.75 11.58,-22.24 34.92,-35.47 58.3,-42.21zm520.61 -46.76l0 0c1.49,8.25 -2.1,16.12 -5.56,23.4 -7.45,15.05 -20.2,26.87 -34.67,35.11 -21.9,-5.33 -45.46,-15.32 -56.46,-36.32 17.87,6.96 37.38,13.19 56.71,8.79 17.29,-3.41 31.58,-15.82 39.98,-30.98zm-313.1 31.72l0 0c-1.01,-15.76 10.31,-29.57 24.71,-34.65 7.47,15.14 20.45,27.89 36.89,32.68 20.41,6.34 41.98,0.36 60.99,-7.67 1.72,8.95 4.49,17.68 8.79,25.74 7.26,-18.83 20.75,-35.04 38.06,-45.42 12.76,28.88 16.93,62.07 8.18,92.68 -2.45,7.7 -4.17,16.11 -9.85,22.2 -16.23,-3.78 -33.25,-8.87 -45.09,-21.28 4.76,-6.94 11.47,-12.18 19.44,-15 -15.55,-1.76 -32.29,0.28 -44.75,10.49 -4.37,-4.99 -8.47,-10.19 -12.32,-15.57 -5.06,6.36 -8.79,13.6 -10.74,21.52 -0.36,3.21 -4.23,3.07 -6.5,4.17 -10.47,3.09 -20.91,6.35 -31.37,9.44 -16.95,-23.55 -35.73,-49.19 -36.44,-79.33zm126.14 -217.38l0 0c15.07,-0.09 30.14,-0.05 45.21,-0.02 -0.19,21.14 0.06,42.27 -0.14,63.41 -11.96,-11.11 -19.81,-25.95 -24.99,-41.24 -13.46,7.78 -30.98,7.03 -43.76,-1.84 9.89,-3.98 18.04,-11.31 23.68,-20.31zm-30.94 -27.34l0 0c1.1,-6.55 8.7,-9.78 14.77,-9.37 20.45,0.02 40.9,0.02 61.38,0.05 -0.07,7.6 -0.07,15.23 -0.03,22.85 -21.27,-0.04 -42.57,0.14 -63.85,-0.04 -6.93,0.2 -14.08,-6.19 -12.27,-13.49zm62.34 -143.34l0 0c3.78,-7.01 8.15,-13.88 14.24,-19.12l-0.07 2.04c-0.94,45.75 -0.23,91.55 -0.36,137.31 -16.49,0.02 -32.96,0.05 -49.45,0 -12.89,-15.8 -36.5,-20.31 -54.11,-9.8 3.78,-19.88 18.75,-39.07 39.59,-42.12 13.17,-2.22 25.31,4.22 36,11.06 -2.54,-27.02 1.47,-55.14 14.16,-79.37zm475.49 -70.58l0 0c7.47,-1.54 14.8,-3.87 22.38,-4.88 14.31,4.24 27.89,10.72 41.84,16.08 11.15,2.7 11.68,15.94 16.26,24.5 -13.56,-4.83 -26.34,-11.79 -40.17,-15.71 -1.15,0.18 -3.46,0.55 -4.61,0.73 -2.26,7.31 8.85,9.35 13.61,12.67 13.05,4.99 22.88,14.88 32.24,24.87 0.05,8.61 0.07,17.2 0.07,25.81 -7.6,1.37 -15.09,3.52 -22.85,3.87 -17.13,-6.41 -33.85,-14.02 -51.05,-20.29 -3.69,-7.4 -7.1,-14.93 -10.24,-22.56 13.13,4.4 25.84,9.92 38.73,14.93 3.2,0.92 7.56,3.21 10.3,-0.04 2.96,-10.2 -9.11,-13.75 -15.93,-17.55 -11.94,-4.51 -21.85,-12.66 -30.26,-22.1 -1.37,-6.68 -0.43,-13.55 -0.32,-20.33zm-989.05 11.54l0 0c22.9,-10.08 46.4,-18.85 70.12,-26.75 8.31,-0.43 16.22,3.66 24.32,5.29 0.02,8.75 0.05,17.5 0.09,26.27 -8.45,7.49 -16.03,16.08 -24.93,22.94 -11.71,4.81 -23.85,8.59 -35.66,13.11 -0.14,8.06 -0.25,16.12 -0.14,24.18 -11.31,4.51 -22.51,9.34 -33.71,14.15 -0.16,-26.4 0.02,-52.79 -0.09,-79.19zm33.89 4.14l0 0c-0.11,6.32 -0.14,12.67 -0.04,18.99 8.61,-3.37 19.05,-5.11 24.66,-13.21 2.68,-3.65 2.93,-10.65 -2.29,-12.14 -7.92,-0.37 -15.02,3.89 -22.33,6.36zm832.43 -65.52l0 0c23.27,5.55 46.33,11.94 69.26,18.76 6.48,1.74 10.62,7.51 15.57,11.66 3.64,3.66 8.24,6.57 11.04,10.99 0.64,7.53 0.11,15.09 0.27,22.63 -5.06,1.46 -10.12,2.88 -15.18,4.3 5.82,12.62 11.75,25.19 17.86,37.67 -11.61,-3.84 -23.33,-7.3 -34.83,-11.35 -3.07,-0.81 -3.85,-4.15 -5.13,-6.56 -3.43,-7.94 -6.94,-15.84 -10.72,-23.63 -4.6,-1.28 -9.23,-2.56 -13.81,-3.85 -0.09,8.32 -0.09,16.63 0.03,24.94 -11.52,-2.17 -22.67,-5.91 -34.15,-8.33 -0.57,-25.74 -0.16,-51.49 -0.21,-77.23zm34.24 26.43l0 0c-0.04,5.5 0.09,11.02 0.35,16.51 7.39,1.72 14.65,5.39 22.42,4.72 4.69,-0.78 5.56,-6.82 2.65,-9.98 -6.16,-7.56 -16.69,-8.55 -25.42,-11.25zm-782.57 -7.65l0 0c23.56,-6.87 47.22,-13.58 71.15,-18.98 8.91,0.04 16.92,5.43 25.42,7.74 0.16,8.31 0.2,16.65 0.18,24.96 -5.27,4.44 -10.49,8.96 -15.78,13.38 5.71,8.22 13.56,14.95 17.91,24.06 -12.23,2.59 -24.3,5.84 -36.43,8.82 -5.02,-6.09 -8.73,-13.37 -14.71,-18.55 -4.69,0.37 -9.09,2.22 -13.53,3.64 0.18,7.54 0.14,15.09 -0.05,22.63 -11.47,3.02 -22.83,6.43 -34.14,9.94 -0.09,-25.88 -0.05,-51.76 -0.02,-77.64zm34.25 8.43l0 0c0.03,6.16 0.1,12.32 0.1,18.48 7.9,-2.27 16.62,-3.36 23.29,-8.56 3.66,-2.55 3.52,-7.24 3.94,-11.18 -1.08,-0.91 -3.26,-2.75 -4.33,-3.69 -7.93,0.3 -15.58,2.39 -23,4.95zm89.41 -38.93l0 0c11.77,-2.34 23.57,-4.56 35.41,-6.57 0.09,25.37 0.11,50.77 0,76.17 -11.84,2.17 -23.64,4.41 -35.39,6.98 -0.09,-25.53 -0.04,-51.05 -0.02,-76.58zm515.89 66.3l0 0c-0.09,-25.38 -0.11,-50.75 0.03,-76.13 23.97,3.83 47.84,8.27 71.56,13.36 3.25,6.48 6.48,12.98 9.64,19.51 -15.48,-2.96 -30.82,-6.46 -46.33,-9.23 -0.04,3.34 -0.06,6.68 -0.06,10.03 9,1.83 18.02,3.59 27,5.68 -0.07,5.77 -0.12,11.54 -0.14,17.33 -8.93,-1.74 -17.86,-3.55 -26.77,-5.31 -0.05,4.03 -0.07,8.06 -0.09,12.09 16.46,3.28 32.88,6.78 49.33,10.17 -2.89,5.82 -6.35,11.29 -10.01,16.63 -24.62,-5.22 -49.33,-10.03 -74.16,-14.13zm-110.54 -88.9l0 0c24.18,2.06 48.62,3.59 72.46,8.06 3.85,5.77 6.5,12.25 9.8,18.34 -15.57,-1.97 -31.15,-3.87 -46.74,-5.68 -0.02,3.21 -0.02,6.41 -0.02,9.62 8.95,0.92 17.93,1.92 26.86,3.21 0,5.86 0,11.7 0,17.56 -8.95,-1.12 -17.91,-2.2 -26.89,-3.16 0,4.03 0,8.09 0,12.11 16.79,2 33.6,3.88 50.29,6.44 -3.41,5.68 -6.84,11.36 -10.3,17.04 -25.1,-3.07 -50.22,-6.21 -75.46,-8.09 -0.05,-25.14 -0.05,-50.29 0,-75.45zm-272.06 2.7l0 0c11.4,-1.01 22.8,-2.09 34.23,-2.75 -13.69,26.24 -26.93,52.72 -40.44,79.08 -11.11,1.37 -22.17,2.86 -33.28,4.17 -12.64,-23.52 -25.51,-46.95 -37.81,-70.65 12.19,-1.72 24.33,-3.76 36.58,-4.93 6.3,13.76 12.98,27.35 19.72,40.93 7.07,-15.26 13.94,-30.6 21,-45.85zm148.69 10.65l0 0c11.2,-0.03 22.4,-0.32 33.55,0.73 -0.16,19.01 -0.07,38.01 -0.07,57.05 11.96,-0.12 23.87,0.64 35.82,0.78 0.53,-18.99 0.02,-37.95 0.25,-56.91 11,0.48 21.99,1.19 32.98,1.42 -3.39,-6.03 -6.69,-12.07 -9.85,-18.21 -27.2,-2.7 -54.62,-2.04 -81.89,-3.37 -3.69,6.12 -7.35,12.23 -10.79,18.51zm-57.94 0.84l0 0c-3.23,8.73 -6.57,17.41 -9.78,26.14 6.62,-0.28 13.24,-0.53 19.88,-0.81 -3.16,-8.52 -6.39,-17.04 -10.1,-25.33z"/>
   <path class="fil1" d="M915.63 82.25c44.2,-2.36 88.49,-2.68 132.74,-1.81 7.07,11.02 16.14,20.61 26.29,28.83 -3.23,5.87 -4.7,12.49 -4.77,19.13 -0.29,20.65 0.28,41.31 -0.2,61.97 -0.28,14.27 -11.06,26.24 -24.12,30.8 10.42,10.08 15.14,24.34 18.03,38.18 5.38,24.64 13.55,49.1 27.55,70.28 -20.34,-1.12 -40.72,-1.88 -61.08,-1.83 -7.83,-14.48 -13.56,-30.07 -16.88,-46.19 -3.14,-15.3 -6.32,-31.47 -16.19,-44.07 -3.39,-4.51 -8.4,-7.23 -13.49,-9.41 -0.25,17.98 -0.04,35.93 -0.14,53.89 -0.13,16.23 4.58,32.49 14,45.78 -27.46,-0.23 -54.94,0.66 -82.33,2.38 9.59,-13.17 13.53,-29.68 13.42,-45.78 -0.07,-53.47 0,-106.97 -0.03,-160.45 -0.07,-14.81 -4.76,-29.31 -12.8,-41.7zm-51.91 1169.47l0 0c-3.3,-45.3 6.02,-94.28 37.23,-128.89 -0.91,29.07 14.02,55.7 31.58,77.78 4.4,-8.89 5.73,-19.17 11.02,-27.53 23.11,-14.2 51.73,-13.47 77.86,-11.43 18,2.7 39.09,6.41 49.15,23.57 20.65,35.49 20.31,78.94 13.44,118.26 -2.43,9.73 -2.82,20.27 -7.95,29.11 -4.03,-20.73 -9.64,-41.71 -21.78,-59.32 1.06,25.06 -0.36,50.66 -9.59,74.25 -9.05,24.89 -25.49,46.19 -43.26,65.47 -15.71,-17.98 -31.26,-36.73 -40.38,-59.06 -11.01,-24.87 -13.46,-52.47 -12.52,-79.38 -14.15,19.77 -19.58,44.45 -22.24,68.25 -22.86,-45.14 -28.17,-98.27 -17.72,-147.55 -18.81,15.5 -31.77,36.3 -44.84,56.47zm60.04 -203.8l0 0c5.96,-2.49 11.13,2.55 16.31,4.72 24.78,12.21 53.24,22.35 81.02,14.98 18.69,-3.62 35.36,-13.24 52.63,-20.52 38.77,11.68 80.08,15.98 120.23,9.41 -5.52,12.85 -16.83,22.49 -29.15,28.65 -20.04,9.6 -43.04,11.11 -64.84,8.61 -15.8,-1.6 -30.82,-7.69 -46.76,-8.29 -17.64,-1.46 -35.22,0.92 -52.56,3.85 -24.69,-4.44 -50.4,-6.55 -75.02,-0.39 -28.03,7.56 -59.02,9.09 -86.18,-2.47 -13.86,-5.71 -25.12,-16.45 -32.5,-29.36 7.35,-0.07 14.61,1.28 21.94,1.92 31.95,2.04 64.31,-1.53 94.88,-11.11zm-63.07 -218.24l0 0c47.16,6.32 94.65,11.1 142.29,10.53 45.11,0.66 90.09,-3.76 134.84,-9.16 -10.77,9.96 -22.83,18.32 -34.33,27.34 30.71,4.03 61.76,4.72 92.5,8.59 -43.79,10.22 -88.58,15.76 -133.4,18.73 -84.74,5.39 -170.25,-0.71 -253.24,-18.77 29.36,-4.17 59.11,-4.88 88.58,-8.23 -12.34,-9.78 -24.76,-19.46 -37.24,-29.03zm372.31 -150.46l0 0c52.12,52.1 123.55,82.46 196.51,89.08 -29.73,22.08 -63.21,38.59 -96.89,53.75 -28.04,11.93 -56.5,23.31 -86.09,30.78 26.38,-19.97 54.3,-38.13 78.41,-60.99 -40.26,-27.91 -75.25,-65.93 -91.94,-112.62zm-368.76 -93.9l0 0c-33.39,28.38 -62.77,61.03 -92.04,93.53 -50.54,54.69 -124.56,86.93 -199.03,86.5 10.56,10.87 23.45,19.03 36.37,26.79 37.26,21.66 77.65,37.26 118.39,50.96 11.07,3.38 21.97,7.51 33.35,9.77 -19.54,-15.29 -39.64,-30.02 -57.02,-47.86 -5.32,-5.81 -11.82,-10.85 -15.33,-18.07 62.23,-22.83 114.42,-69 148.56,-125.4 24.44,-39.19 46.88,-80.71 81.42,-112.17 -20.13,8.7 -37.84,22.07 -54.67,35.95zm839.35 -328.77l0 0c9.6,-3.23 17.84,-9.23 24.76,-16.53 28.83,13.3 57.39,27.29 85.37,42.34 5.87,13.93 14.25,26.54 22.52,39.09 -4.04,13.86 -3.37,28.31 -3.19,42.62 -16.69,-8.95 -33.41,-17.93 -50.43,-26.29 0.07,-9.78 1.74,-22.44 -7.81,-28.65 -4.37,-2.56 -12.73,-8.36 -15.07,-0.62 -1.35,10.22 -0.27,20.64 -0.57,30.92 -0.43,7.05 3.42,14.15 9.94,17.06 12.05,6.12 24.21,12.03 36.16,18.32 17.57,8.16 27.6,27.94 27.78,46.77 -0.05,25.21 0.02,50.4 -0.05,75.59 -0.27,8.62 1.65,17.04 3.74,25.36 -9.05,2.52 -17.02,7.64 -23.59,14.29 -27.64,-15.58 -56.18,-29.57 -84.34,-44.13 -8.13,-13.06 -15.05,-27.35 -25.29,-39.19 7.51,-14.01 3.76,-30.59 4.7,-45.78 16.65,7.74 33.48,15.09 49.88,23.41 0.55,10.12 -2.5,21.71 4.16,30.41 4.4,5.15 11.25,7.08 17.18,9.89 1.86,-2.52 4.26,-5.06 3.76,-8.49 0.06,-10.77 0.09,-21.53 -0.03,-32.29 0.16,-6.87 -3.96,-13.56 -10.23,-16.4 -12.16,-6.25 -24.53,-12.07 -36.9,-17.82 -17.72,-7.39 -27.94,-27.02 -27.8,-45.69 -0.09,-17.56 0,-35.15 -0.02,-52.71 -0.03,-13.9 0.84,-28.36 -4.63,-41.48zm-1458.18 -3.91l0 0c19.71,-9.3 39.41,-18.67 59.49,-27.19 0.14,84.55 -0.02,169.1 0.07,253.66 -11.06,4.55 -23.24,9.32 -35.33,6.18 -10.93,-2.63 -18.58,-12.12 -22.65,-22.12 -9.6,-24.28 -15.6,-49.84 -25.29,-74.09 -0.75,26.93 -0.11,53.86 -0.36,80.8 0.16,14.91 1.37,31.58 12.48,42.8 -24.07,11.31 -47.18,24.53 -70.56,37.19 8.29,-16.24 12.37,-34.47 12.32,-52.65 -0.04,-54.94 -0.02,-109.88 -0.02,-164.8 -0.23,-13.23 -2.15,-27.82 -12.09,-37.53 18.13,-9.85 36.41,-19.42 54.75,-28.88 13.61,34.37 26.29,69.09 39.76,103.51 0,-26.15 0.09,-52.28 -0.02,-78.43 -0.55,-13.54 -2.18,-28.58 -12.55,-38.45zm77.01 -34.79l0 0c37.74,-16.08 76.13,-30.62 114.9,-44.04 3.46,20.29 6.78,40.63 10.42,60.89 -5.93,-3.45 -12.28,-6.84 -19.33,-7.07 -14.57,-1.06 -27.57,6.87 -41.04,11.13 0.07,16.23 0,32.45 0.05,48.69 12.55,-4.72 25.12,-9.32 37.78,-13.72 -0.04,16.88 0,33.78 -0.02,50.68 -12.66,4.37 -25.19,9.04 -37.74,13.72 -0.11,19.65 0,39.32 -0.05,58.99 12.81,-5.4 26.82,-8.57 38.09,-17.06 8.84,-6.21 16.03,-14.41 22.4,-23.09 -3.83,22.72 -6.81,45.55 -10.79,68.23 -38.91,13.32 -77.11,28.74 -114.85,45.09 9.21,-17.02 12.99,-36.37 12.99,-55.58 0.15,-49.58 0.04,-99.17 0.04,-148.75 -0.16,-16.62 -0.85,-35.19 -12.85,-48.11zm1209.6 -54.69l0 0c19.35,6.55 38.77,12.87 57.96,19.95 13.81,45.82 26.98,91.81 40.83,137.61 0.21,-24.39 0.09,-48.8 0.09,-73.21 -0.11,-18.74 -3.46,-37.86 -13.14,-54.17 20.17,7.75 40.26,15.74 60.14,24.21 -0.03,84.25 -0.03,168.51 0,252.79 -26.61,-10.59 -46.79,-33.58 -56.09,-60.4 -11.04,-32.88 -17.59,-67.12 -28.37,-100.07 -0.67,25.83 -0.1,51.68 -0.32,77.52 -0.3,18.39 3.61,37.1 12.98,53.08 -24.46,-9.3 -49.03,-18.32 -73.95,-26.24 10.51,-11.57 12.9,-27.81 12.9,-42.87 -0.03,-52.7 0,-105.4 0,-158.09 -0.05,-17.47 -4.19,-34.97 -13.03,-50.11zm-139.47 -38.34l0 0c30.87,7.24 61.58,15.17 92.01,24 7.86,61.86 15.53,123.74 23.39,185.6 3,26.86 5.08,55.26 21.52,77.93 -21.46,-6.85 -43,-13.42 -64.67,-19.58 -1.81,-17.68 -3.32,-35.36 -5.27,-53.02 -10.9,-3.02 -21.87,-5.75 -32.75,-8.79 -2.65,16.65 -3.29,33.55 -5.61,50.24 -19.9,-5.24 -39.96,-9.84 -60.07,-14.2 8.96,-9.29 13.47,-21.84 14.98,-34.46 7.56,-53.48 14.89,-106.97 22.44,-160.42 2.36,-15.92 1.86,-32.87 -5.97,-47.3zm51.2 51.99l0 0c-4.6,35.66 -8.15,71.45 -12.48,107.13 7.86,2.13 15.71,4.19 23.59,6.25 -3.43,-37.81 -7.88,-75.55 -11.11,-113.38zm-798.74 -60.05l0 0c18.87,-4.03 37.85,-7.46 56.84,-10.97 -9.55,13.33 -14.98,29.22 -16.81,45.44 -6.05,54.18 -11.72,108.41 -17.59,162.62 -1.65,15.6 -0.68,32.8 9.12,45.78 -27.6,5.22 -55.01,11.4 -82.26,18.18 -6.21,-59.68 -13.47,-119.31 -18.94,-179.06 -1.42,-0.14 -2.82,-0.12 -4.22,0.02l3.12 1.28c-6.8,62.62 -12.99,125.32 -19.33,187.98 -27.67,8.22 -55.49,15.8 -82.93,24.73 8.57,-15.16 11.11,-33.14 9.14,-50.29 -5.66,-51.25 -10.88,-102.53 -16.49,-153.78 -1.51,-14.13 -5.72,-28.97 -16.71,-38.75 20.72,-6.09 40.99,-13.83 62.03,-18.78 4.24,54.48 9.03,108.94 12.92,163.45 7.19,-57.53 12.02,-115.33 18.69,-172.93 23.33,-6.18 46.67,-12.48 70.28,-17.45 6.44,54.39 11.98,108.89 19.12,163.19 4.54,-56.88 9.21,-113.77 14.02,-170.66zm577.77 -22.44l0 0c40.7,5.34 81.21,12.05 121.47,20.02 3.5,22.21 6.94,44.45 10.65,66.62 -6.67,-6.78 -13.1,-14.07 -21.62,-18.6 -12.98,-7.74 -28.54,-8.06 -42.99,-11.13 -0.04,16.26 -0.02,32.5 -0.02,48.73 16.42,2.93 32.84,5.91 49.22,9.07 0.02,15.96 0.02,31.95 0.02,47.91 -16.33,-3.32 -32.73,-6.2 -49.12,-9.07 -0.26,19.79 -0.07,39.58 -0.1,59.36 11.09,1.65 22.04,4.38 33.23,5.43 11.36,0.69 22.17,-3.98 31.19,-10.56 -3.45,20.48 -6.98,40.93 -10.55,61.35 -40.19,-8.19 -80.71,-14.88 -121.42,-20.01 8.4,-11.89 13.05,-26.31 13.14,-40.88 0.02,-54.18 -0.05,-108.35 0.02,-162.53 0.07,-16.1 -4.97,-31.92 -13.12,-45.71zm-440 -0.46l0 0c30.62,-3.71 61.33,-6.96 92.13,-8.98 7.15,10.06 15.85,18.97 26.18,25.79 -3.09,6.3 -4.88,13.19 -4.72,20.25 0,51.13 0,102.27 0,153.43 -0.18,6.81 1.65,13.45 4.74,19.49 -10.46,7.95 -19.07,18.05 -26.33,28.95 -32.98,2.31 -65.91,5.27 -98.73,9.37 -7.05,-9.65 -15.8,-18 -26.04,-24.19 4.28,-9.04 4.99,-19.14 4.95,-28.99 -0.03,-45.85 0.02,-91.7 -0.03,-137.54 0.07,-8.78 -1,-17.68 -4.85,-25.68 9.6,-8.22 17.5,-18.16 24.43,-28.69 1.52,-3.09 5.46,-2.5 8.27,-3.21zm35.73 43.03l0 0c-6.69,2.66 -11.11,9.74 -10.83,16.91 -0.12,40.46 0.02,80.93 -0.05,121.37 -0.11,4.92 1.19,10.37 5.36,13.44 4.49,3.87 10.76,2.39 16.12,1.88 8.52,-0.71 14.57,-9.34 14.02,-17.56 0,-40.49 -0.05,-81 0.02,-121.49 0.16,-4.52 -0.69,-9.37 -4.17,-12.53 -5.33,-5.57 -13.85,-3.34 -20.47,-2.02zm277.08 -54.27l0 0c27.48,1.72 54.96,3.75 82.35,6.55 -8.7,12.94 -13.85,28.32 -13.65,43.99 0.07,52.03 0,104.06 0.02,156.09 11.73,0.97 23.62,3.92 35.36,1.72 8.04,-1.62 14.82,-6.66 20.16,-12.75 -3.51,20.91 -6.99,41.84 -10.47,62.75 -37.76,-5.07 -75.71,-9.03 -113.75,-11 10.03,-13.85 13.76,-31.12 13.72,-47.98 0.04,-49.64 0.02,-99.29 0,-148.94 0.09,-17.68 -3.73,-35.64 -13.74,-50.43zm-112.22 44.29l0 0c0.07,20.91 0.03,41.82 0,62.72 7.91,-0.61 15.85,-0.11 23.75,-0.66 6.14,-1.99 10.31,-8.31 10.51,-14.66 0.3,-9.89 0.09,-19.81 0.12,-29.7 0.3,-7.21 -3.57,-15.57 -11.15,-17.31 -7.7,-1.08 -15.51,-0.32 -23.23,-0.39z"/>
   <path class="fil2" d="M407.46 486c173.63,-81.19 365.73,-117.71 556.63,-122.45 137.64,-3.03 275.94,10.62 409.59,44.08 79.76,20.04 157.86,47.2 231.89,83.11 0.37,19.08 0.12,38.15 0.14,57.23 35.38,1.9 70.63,12.02 100.19,31.92 31.86,20.98 56.69,51.32 74.52,84.76 -51.13,-14.86 -107.17,-18.57 -158.17,-1.12 -39.05,14.31 -81.3,19.26 -122.66,15.96 -47.64,-3.85 -96.94,-20.01 -129.92,-56.11 46.81,-0.8 93.69,0.71 140.5,-0.78 -100.36,-39.09 -205.75,-65.08 -312.58,-78.43 20.73,17.84 41.89,35.2 61.7,54.07 26.17,25.05 55.55,46.85 87.71,63.59 51.82,26.8 110.93,42.1 169.44,36.99 0.92,46.6 -15.13,92.8 -42.13,130.51 -19.47,27.69 -45.3,50.11 -73.04,69.19 33.69,5.86 66.51,21.71 88.24,48.68 28.97,34.91 37.49,82.84 32.18,126.97 -6.64,55.58 -34.93,105.98 -69.39,149.11 2.26,-14.61 1.71,-30.21 -5.38,-43.49 -9.26,-18.32 -28.04,-30.19 -47.71,-34.42 -29.72,-6.64 -60.8,0.27 -88.01,12.8 -28.81,13.65 -54.41,37.24 -64.44,68.13 -6.25,18.96 -6.41,41.73 6.21,58.22 10.73,14.77 28.6,22.07 46.19,24.59 -38.82,35.34 -93.51,49.61 -145.15,45.23 -26.11,68.06 -76.77,126.48 -141.28,160.68 -4.62,1.76 -9.43,7.26 -14.49,3.93 -68.16,-33.41 -122,-93.73 -149.02,-164.52 -51.71,4.19 -106.35,-10.03 -145.31,-45.32 17.61,-2.56 35.66,-9.82 46.4,-24.66 11.08,-14.75 12.46,-34.7 7.81,-52.1 -7.86,-31.9 -32.89,-57.03 -61.42,-71.78 -26.18,-13.28 -56.23,-20.79 -85.58,-16.53 -19.56,2.79 -39.07,12.16 -50.59,28.69 -10.4,14.48 -13.03,33.33 -9.55,50.57 -34.58,-42.89 -62.64,-93.3 -69.46,-148.72 -5.54,-45.87 3.78,-96.12 35.52,-131.22 22.28,-25.52 54.62,-40.19 87.69,-45.37 -28.15,-19.56 -54.44,-42.53 -73.86,-71.02 -25.92,-36.84 -40.38,-81.52 -40.74,-126.59 11.4,-0.51 22.81,0.68 34.21,-0.14 68.23,-3.71 134.23,-30.41 188.23,-71.84 19.58,-14.57 36.71,-31.99 54.92,-48.16 14.19,-12.76 28.9,-24.94 43.64,-37.06 -109.35,13.42 -217.44,39.16 -319.99,79.63 47.52,0.92 95.06,0.09 142.6,0.44 -27,29.95 -66,46.26 -105.09,53.06 -49.29,8.38 -100.86,4.23 -147.9,-12.87 -50.88,-17.41 -106.79,-13.61 -157.81,1.23 22.24,-42.02 56.22,-79.14 100.01,-98.95 26.38,-12.16 55.49,-17.73 84.46,-17.66 0.05,-20.68 -0.02,-41.38 0.05,-62.06zm528.49 635.83l0 0c-5.82,2.22 -5.25,9.48 -3.81,14.38 1.56,5.33 7.08,7.78 11.32,10.67 16.97,-12.55 38.93,-15.05 59.43,-15.32 19.21,0.59 39.73,2.91 55.74,14.54 7.83,-2.68 13.12,-10.69 11.58,-18.98 -2.77,-6.67 -10.83,-7.7 -17.03,-9.16 -24.12,-3.76 -48.67,-3.03 -73.01,-2.78 -14.8,1.08 -30.46,0.28 -44.22,6.65zm364.79 -103.31l0 0c-21.78,10.49 -43.15,22.28 -61.77,37.85 -26.27,21.85 -49.19,48.76 -62.77,80.34 27.53,-21.71 56.29,-42.16 87.83,-57.66 38.68,-19.2 82.12,-32.55 125.7,-27.76 17.86,1.51 34.86,7.47 51.02,14.98l-1.32 -1.81c-17.11,-24.09 -43.19,-41.84 -72.39,-47.22 -21.85,-4.13 -44.66,-3.71 -66.3,1.28zm-682.14 3.66l0 0c-22.14,7.97 -41.45,23.11 -54.91,42.37l-1.29 1.72c35.98,-18.35 78.53,-19.95 117.14,-9.67 54.99,13.74 103.38,45.26 147.4,79.95 -23.87,-53.98 -71.71,-93.99 -124.56,-118.17 -27.55,-5.79 -57.05,-5.79 -83.78,3.8zm525.38 -104.77l0 0 0.11 1.42c1.49,8.25 -2.1,16.12 -5.56,23.4 -7.45,15.05 -20.2,26.87 -34.67,35.11 -21.9,-5.33 -45.46,-15.32 -56.46,-36.32 -1.09,8.98 -4.42,17.45 -8.22,25.63 -7.65,-18.76 -20.95,-35.41 -38.75,-45.42 12.76,28.88 16.93,62.07 8.18,92.68 -2.45,7.7 -4.17,16.11 -9.85,22.2 0.37,0.18 1.1,0.52 1.47,0.71 16.92,-4.17 34.92,-8.94 47.56,-21.83 -4.28,-7.05 -11.19,-11.52 -18.27,-15.3 15.14,-1.51 31.33,0.65 43.35,10.7 4.49,-4.97 8.61,-10.26 12.44,-15.76 6.52,6.48 10.42,15 11.56,24.12 26.8,-22.56 52.42,-48.85 64.79,-82.29 -4.74,-7.32 -10.1,-14.49 -17.68,-19.05zm-79.83 -2.08l0 0c4.12,6.89 10.9,12.04 19.03,13.03 15.25,3.55 33.98,-9.12 30.34,-26 -16.28,4.95 -32.73,9.39 -49.37,12.97zm-174.83 -13.06l0 0c0.16,5.57 0.09,11.64 3.85,16.22 10.97,15 37.07,13.28 45.91,-3.14 -16.78,-3.55 -33.34,-8.11 -49.76,-13.08zm113.02 -169.12l0 0c-0.19,21.14 0.06,42.27 -0.14,63.41 10.78,-11.93 19.14,-25.9 24.18,-41.17 13.33,7.55 31.03,7.25 43.42,-2.09 -9.89,-3.89 -17.79,-11.29 -23.54,-20.11 -14.63,-0.13 -29.29,-0.04 -43.92,-0.04zm0 -36.64l0 0c-0.07,7.6 -0.07,15.23 -0.03,22.85 20.86,-0.04 41.73,0.18 62.59,-0.04 6.09,-0.05 12.85,-4.84 12.48,-11.46 0.14,-7.51 -8.01,-12 -14.77,-11.4 -20.11,0 -40.19,0.02 -60.27,0.05zm0.36 -151.1l0 0c-0.94,45.75 -0.23,91.55 -0.36,137.31 16.09,0 32.19,0.09 48.29,-0.05 12.92,-15.73 36.48,-20.17 54.1,-9.82 -3.6,-18.39 -16.36,-35.68 -34.77,-41.11 -14.49,-4.05 -29.59,1.72 -40.88,10.83 2.89,-33.78 -3,-71.2 -26.38,-97.16zm-493.84 -37.82l0 0c-0.11,6.32 -0.14,12.67 -0.04,18.99 8.61,-3.37 19.05,-5.11 24.66,-13.21 2.68,-3.65 2.93,-10.65 -2.29,-12.14 -7.92,-0.37 -15.02,3.89 -22.33,6.36zm866.67 -39.09l0 0c-0.04,5.5 0.09,11.02 0.35,16.51 7.39,1.72 14.65,5.39 22.42,4.72 4.69,-0.78 5.56,-6.82 2.65,-9.98 -6.16,-7.56 -16.69,-8.55 -25.42,-11.25zm-748.32 0.78l0 0c0.03,6.16 0.1,12.32 0.1,18.48 7.9,-2.27 16.62,-3.36 23.29,-8.56 3.66,-2.55 3.52,-7.24 3.94,-11.18 -1.08,-0.91 -3.26,-2.75 -4.33,-3.69 -7.93,0.3 -15.58,2.39 -23,4.95zm313.45 -47.34l0 0c-3.23,8.73 -6.57,17.41 -9.78,26.14 6.62,-0.28 13.24,-0.53 19.88,-0.81 -3.16,-8.52 -6.39,-17.04 -10.1,-25.33zm-24.96 -14.03l0 0c-10.58,24.93 -20.95,49.97 -31.35,75 11.17,-0.39 22.33,-1.54 33.5,-1.9 2.27,-5.29 4.26,-10.74 7.19,-15.71 10.59,-1.38 21.28,-0.92 31.91,-1.77 2.31,5.13 4.67,10.26 6.98,15.42 12.12,0.2 24.21,-0.72 36.3,-0.74 -10.72,-24.98 -21.57,-49.88 -32.25,-74.88 -15.13,0.25 -30.23,1.07 -45.34,1.64 -2.43,0.37 -6.28,-0.34 -6.94,2.94zm82.9 13.19l0 0c11.2,-0.03 22.4,-0.32 33.55,0.73 -0.16,19.01 -0.07,38.01 -0.07,57.05 11.96,-0.12 23.87,0.64 35.82,0.78 0.53,-18.99 0.02,-37.95 0.25,-56.91 11,0.48 21.99,1.19 32.98,1.42 -3.39,-6.03 -6.69,-12.07 -9.85,-18.21 -27.2,-2.7 -54.62,-2.04 -81.89,-3.37 -3.69,6.12 -7.35,12.23 -10.79,18.51zm-148.69 -10.65l0 0c-7.06,15.25 -13.93,30.59 -21,45.85 -6.74,-13.58 -13.42,-27.17 -19.72,-40.93 -12.25,1.17 -24.39,3.21 -36.58,4.93 12.3,23.7 25.17,47.13 37.81,70.65 11.11,-1.31 22.17,-2.8 33.28,-4.17 13.51,-26.36 26.75,-52.84 40.44,-79.08 -11.43,0.66 -22.83,1.74 -34.23,2.75zm272.06 -2.7l0 0c-0.05,25.16 -0.05,50.31 0,75.45 25.24,1.88 50.36,5.02 75.46,8.09 3.46,-5.68 6.89,-11.36 10.3,-17.04 -16.69,-2.56 -33.5,-4.44 -50.29,-6.44 0,-4.02 0,-8.08 0,-12.11 8.98,0.96 17.94,2.04 26.89,3.16 0,-5.86 0,-11.7 0,-17.56 -8.93,-1.29 -17.91,-2.29 -26.86,-3.21 0,-3.21 0,-6.41 0.02,-9.62 15.59,1.81 31.17,3.71 46.74,5.68 -3.3,-6.09 -5.95,-12.57 -9.8,-18.34 -23.84,-4.47 -48.28,-6 -72.46,-8.06zm110.54 88.9l0 0c24.83,4.1 49.54,8.91 74.16,14.13 3.66,-5.34 7.12,-10.81 10.01,-16.63 -16.45,-3.39 -32.87,-6.89 -49.33,-10.17 0.02,-4.03 0.04,-8.06 0.09,-12.09 8.91,1.76 17.84,3.57 26.77,5.31 0.02,-5.79 0.07,-11.56 0.14,-17.33 -8.98,-2.09 -18,-3.85 -27,-5.68 0,-3.35 0.02,-6.69 0.06,-10.03 15.51,2.77 30.85,6.27 46.33,9.23 -3.16,-6.53 -6.39,-13.03 -9.64,-19.51 -23.72,-5.09 -47.59,-9.53 -71.56,-13.36 -0.14,25.38 -0.12,50.75 -0.03,76.13zm-515.89 -66.3l0 0c-0.02,25.53 -0.07,51.05 0.02,76.58 11.75,-2.57 23.55,-4.81 35.39,-6.98 0.11,-25.4 0.09,-50.8 0,-76.17 -11.84,2.01 -23.64,4.23 -35.41,6.57zm-123.66 30.5l0 0c-0.03,25.88 -0.07,51.76 0.02,77.64 11.31,-3.51 22.67,-6.92 34.14,-9.94 0.19,-7.54 0.23,-15.09 0.05,-22.63 4.44,-1.42 8.84,-3.27 13.53,-3.64 5.98,5.18 9.69,12.46 14.71,18.55 12.13,-2.98 24.2,-6.23 36.43,-8.82 -4.35,-9.11 -12.2,-15.84 -17.91,-24.06 5.29,-4.42 10.51,-8.94 15.78,-13.38 0.02,-8.31 -0.02,-16.65 -0.18,-24.96 -8.5,-2.31 -16.51,-7.7 -25.42,-7.74 -23.93,5.4 -47.59,12.11 -71.15,18.98zm748.33 -18.78l0 0c0.05,25.74 -0.36,51.49 0.21,77.23 11.48,2.42 22.63,6.16 34.15,8.33 -0.12,-8.31 -0.12,-16.62 -0.03,-24.94 4.58,1.29 9.21,2.57 13.81,3.85 3.78,7.79 7.29,15.69 10.72,23.63 1.28,2.41 2.06,5.75 5.13,6.56 11.5,4.05 23.22,7.51 34.83,11.35 -6.11,-12.48 -12.04,-25.05 -17.86,-37.67 5.06,-1.42 10.12,-2.84 15.18,-4.3 -0.16,-7.54 0.37,-15.1 -0.27,-22.63 -2.8,-4.42 -7.4,-7.33 -11.04,-10.99 -4.95,-4.15 -9.09,-9.92 -15.57,-11.66 -22.93,-6.82 -45.99,-13.21 -69.26,-18.76zm-866.32 61.38l0 0c0.11,26.4 -0.07,52.79 0.09,79.19 11.2,-4.81 22.4,-9.64 33.71,-14.15 -0.11,-8.06 0,-16.12 0.14,-24.18 11.81,-4.52 23.95,-8.3 35.66,-13.11 8.9,-6.86 16.48,-15.45 24.93,-22.94 -0.04,-8.77 -0.07,-17.52 -0.09,-26.27 -8.1,-1.63 -16.01,-5.72 -24.32,-5.29 -23.72,7.9 -47.22,16.67 -70.12,26.75zm989.05 -11.54l0 0c-0.11,6.78 -1.05,13.65 0.32,20.33 8.41,9.44 18.32,17.59 30.26,22.1 6.82,3.8 18.89,7.35 15.93,17.55 -2.74,3.25 -7.1,0.96 -10.3,0.04 -12.89,-5.01 -25.6,-10.53 -38.73,-14.93 3.14,7.63 6.55,15.16 10.24,22.56 17.2,6.27 33.92,13.88 51.05,20.29 7.76,-0.35 15.25,-2.5 22.85,-3.87 0,-8.61 -0.02,-17.2 -0.07,-25.81 -9.36,-9.99 -19.19,-19.88 -32.24,-24.87 -4.76,-3.32 -15.87,-5.36 -13.61,-12.67 1.15,-0.18 3.46,-0.55 4.61,-0.73 13.83,3.92 26.61,10.88 40.17,15.71 -4.58,-8.56 -5.11,-21.8 -16.26,-24.5 -13.95,-5.36 -27.53,-11.84 -41.84,-16.08 -7.58,1.01 -14.91,3.34 -22.38,4.88zm-582.58 32.79l0 0c-48.34,25.65 -88.31,63.9 -128.25,100.72 -63.25,60.85 -149.56,98.13 -237.62,99.09 4.12,36.53 21.74,70.24 44.89,98.27 40.72,48.76 96.64,82.35 154.51,106.93 -21.57,-1.7 -43.21,-4.74 -64.9,-3 -35.77,1.9 -72.46,12.32 -99.85,36.3 -23.01,19.71 -36.69,49.26 -37.92,79.44 -2,41.38 14.03,81.53 36.39,115.65 4.83,-18.53 18.64,-33.94 36.25,-41.34 28.58,-12.18 61.19,-9.09 90.25,-0.2 41.57,13.26 79.56,39.78 103.79,76.35 15.55,24.09 25.26,55.06 15.3,83.13 -5.57,16.31 -19.17,28.17 -34.28,35.59 35.47,16.76 77.26,20.36 114.59,7.67 9.76,36.99 27.26,72.05 52.01,101.32 20.8,25.23 46.74,45.71 74.59,62.63 62.09,-34.76 110.06,-94.72 127.35,-164.04 37.29,12.85 79.13,9.18 114.58,-7.63 -15.09,-7.46 -28.81,-19.37 -34.26,-35.74 -9.85,-28.13 -0.19,-59.11 15.5,-83.16 26.93,-40.21 70.15,-68.63 117.07,-79.74 27.8,-6.39 58.97,-6.85 84.39,7.79 14.09,7.85 24.07,21.52 28.63,36.87 25.4,-37.7 42.37,-84.32 34.67,-130.2 -5.45,-33.61 -27.73,-63.25 -57.46,-79.46 -41.68,-23.38 -91.51,-24.62 -137.79,-18.55 57.78,-25.33 112.58,-60.78 152.36,-110.43 21.89,-27.87 39.59,-60.21 45.18,-95.57 -90.89,1.49 -180.41,-37.58 -245.02,-100.85 -38.54,-35.96 -78.02,-71.73 -123.87,-98.23 -73.97,-39.5 -166.86,-37.4 -241.08,0.39z"/>
   <path class="fil3" d="M881.44 524.7c74.22,-37.79 167.11,-39.89 241.08,-0.39 45.85,26.5 85.33,62.27 123.87,98.23 64.61,63.27 154.13,102.34 245.02,100.85 -5.59,35.36 -23.29,67.7 -45.18,95.57 -39.78,49.65 -94.58,85.1 -152.36,110.43 46.28,-6.07 96.11,-4.83 137.79,18.55 29.73,16.21 52.01,45.85 57.46,79.46 7.7,45.88 -9.27,92.5 -34.67,130.2 -4.56,-15.35 -14.54,-29.02 -28.63,-36.87 -25.42,-14.64 -56.59,-14.18 -84.39,-7.79 -46.92,11.11 -90.14,39.53 -117.07,79.74 -15.69,24.05 -25.35,55.03 -15.5,83.16 5.45,16.37 19.17,28.28 34.26,35.74 -35.45,16.81 -77.29,20.48 -114.58,7.63 -17.29,69.32 -65.26,129.28 -127.35,164.04 -27.85,-16.92 -53.79,-37.4 -74.59,-62.63 -24.75,-29.27 -42.25,-64.33 -52.01,-101.32 -37.33,12.69 -79.12,9.09 -114.59,-7.67 15.11,-7.42 28.71,-19.28 34.28,-35.59 9.96,-28.07 0.25,-59.04 -15.3,-83.13 -24.23,-36.57 -62.22,-63.09 -103.79,-76.35 -29.06,-8.89 -61.67,-11.98 -90.25,0.2 -17.61,7.4 -31.42,22.81 -36.25,41.34 -22.36,-34.12 -38.39,-74.27 -36.39,-115.65 1.23,-30.18 14.91,-59.73 37.92,-79.44 27.39,-23.98 64.08,-34.4 99.85,-36.3 21.69,-1.74 43.33,1.3 64.9,3 -57.87,-24.58 -113.79,-58.17 -154.51,-106.93 -23.15,-28.03 -40.77,-61.74 -44.89,-98.27 88.06,-0.96 174.37,-38.24 237.62,-99.09 39.94,-36.82 79.91,-75.07 128.25,-100.72zm107.09 37.79l0 0c-12.69,24.23 -16.7,52.35 -14.16,79.37 -10.69,-6.84 -22.83,-13.28 -36,-11.06 -20.84,3.05 -35.81,22.24 -39.59,42.12 17.61,-10.51 41.22,-6 54.11,9.8 16.49,0.05 32.96,0.02 49.45,0 16.09,0 32.19,0.09 48.29,-0.05 12.92,-15.73 36.48,-20.17 54.1,-9.82 -3.6,-18.39 -16.36,-35.68 -34.77,-41.11 -14.49,-4.05 -29.59,1.72 -40.88,10.83 2.89,-33.78 -3,-71.2 -26.38,-97.16l0.07 -2.04c-6.09,5.24 -10.46,12.11 -14.24,19.12zm-124.29 22.83l0 0c-33.39,28.38 -62.77,61.03 -92.04,93.53 -50.54,54.69 -124.56,86.93 -199.03,86.5 10.56,10.87 23.45,19.03 36.37,26.79 37.26,21.66 77.65,37.26 118.39,50.96 11.07,3.38 21.97,7.51 33.35,9.77 -19.54,-15.29 -39.64,-30.02 -57.02,-47.86 -5.32,-5.81 -11.82,-10.85 -15.33,-18.07 62.23,-22.83 114.42,-69 148.56,-125.4 24.44,-39.19 46.88,-80.71 81.42,-112.17 -20.13,8.7 -37.84,22.07 -54.67,35.95zm368.76 93.9l0 0c16.69,46.69 51.68,84.71 91.94,112.62 -24.11,22.86 -52.03,41.02 -78.41,60.99 29.59,-7.47 58.05,-18.85 86.09,-30.78 33.68,-15.16 67.16,-31.67 96.89,-53.75 -72.96,-6.62 -144.39,-36.98 -196.51,-89.08zm-306.81 26.61l0 0c-1.81,7.3 5.34,13.69 12.27,13.49 21.28,0.18 42.58,0 63.85,0.04 20.86,-0.04 41.73,0.18 62.59,-0.04 6.09,-0.05 12.85,-4.84 12.48,-11.46 0.14,-7.51 -8.01,-12 -14.77,-11.4 -20.11,0 -40.19,0.02 -60.27,0.05 -20.48,-0.03 -40.93,-0.03 -61.38,-0.05 -6.07,-0.41 -13.67,2.82 -14.77,9.37zm30.94 27.34l0 0c-5.64,9 -13.79,16.33 -23.68,20.31 12.78,8.87 30.3,9.62 43.76,1.84 5.18,15.29 13.03,30.13 24.99,41.24 10.78,-11.93 19.14,-25.9 24.18,-41.17 13.33,7.55 31.03,7.25 43.42,-2.09 -9.89,-3.89 -17.79,-11.29 -23.54,-20.11 -14.63,-0.13 -29.29,-0.04 -43.92,-0.04 -15.07,-0.03 -30.14,-0.07 -45.21,0.02zm-96.44 96.51l0 0c12.48,9.57 24.9,19.25 37.24,29.03 -29.47,3.35 -59.22,4.06 -88.58,8.23 82.99,18.06 168.5,24.16 253.24,18.77 44.82,-2.97 89.61,-8.51 133.4,-18.73 -30.74,-3.87 -61.79,-4.56 -92.5,-8.59 11.5,-9.02 23.56,-17.38 34.33,-27.34 -44.75,5.4 -89.73,9.82 -134.84,9.16 -47.64,0.57 -95.13,-4.21 -142.29,-10.53zm28.63 72.59l0 0c0.16,5.57 0.09,11.64 3.85,16.22 10.97,15 37.07,13.28 45.91,-3.14 -16.78,-3.55 -33.34,-8.11 -49.76,-13.08zm174.83 13.06l0 0c4.12,6.89 10.9,12.04 19.03,13.03 15.25,3.55 33.98,-9.12 30.34,-26 -16.28,4.95 -32.73,9.39 -49.37,12.97zm-233.16 35.22l0 0c0.71,30.14 19.49,55.78 36.44,79.33 10.46,-3.09 20.9,-6.35 31.37,-9.44 2.27,-1.1 6.14,-0.96 6.5,-4.17 1.95,-7.92 5.68,-15.16 10.74,-21.52 3.85,5.38 7.95,10.58 12.32,15.57 12.46,-10.21 29.2,-12.25 44.75,-10.49 -7.97,2.82 -14.68,8.06 -19.44,15 11.84,12.41 28.86,17.5 45.09,21.28 0.37,0.18 1.1,0.52 1.47,0.71 16.92,-4.17 34.92,-8.94 47.56,-21.83 -4.28,-7.05 -11.19,-11.52 -18.27,-15.3 15.14,-1.51 31.33,0.65 43.35,10.7 4.49,-4.97 8.61,-10.26 12.44,-15.76 6.52,6.48 10.42,15 11.56,24.12 26.8,-22.56 52.42,-48.85 64.79,-82.29 -4.74,-7.32 -10.1,-14.49 -17.68,-19.05l0.11 1.42c-8.4,15.16 -22.69,27.57 -39.98,30.98 -19.33,4.4 -38.84,-1.83 -56.71,-8.79 -1.09,8.98 -4.42,17.45 -8.22,25.63 -7.65,-18.76 -20.95,-35.41 -38.75,-45.42 -17.31,10.38 -30.8,26.59 -38.06,45.42 -4.3,-8.06 -7.07,-16.79 -8.79,-25.74 -19.01,8.03 -40.58,14.01 -60.99,7.67 -16.44,-4.79 -29.42,-17.54 -36.89,-32.68 -14.4,5.08 -25.72,18.89 -24.71,34.65zm-207.51 15.04l0 0c-23.38,6.74 -46.72,19.97 -58.3,42.21 -9.35,17.43 -8.48,38.66 -1.49,56.75l-1.29 1.72c35.98,-18.35 78.53,-19.95 117.14,-9.67 54.99,13.74 103.38,45.26 147.4,79.95 -23.87,-53.98 -71.71,-93.99 -124.56,-118.17 12,-19.07 29.61,-33.87 48.52,-45.76 -40.74,-13.55 -85.58,-18.48 -127.42,-7.03zm628.66 7.08l0 0c19.1,11.75 36.73,26.59 48.6,45.85 -21.78,10.49 -43.15,22.28 -61.77,37.85 -26.27,21.85 -49.19,48.76 -62.77,80.34 27.53,-21.71 56.29,-42.16 87.83,-57.66 38.68,-19.2 82.12,-32.55 125.7,-27.76 17.86,1.51 34.86,7.47 51.02,14.98l-1.32 -1.81c7.94,-19.54 7.65,-42.92 -3.9,-61.01 -13.72,-21.37 -37.72,-33.71 -61.85,-39.39 -40.22,-9.41 -82.7,-4.35 -121.54,8.61zm-328.38 75.25l0 0c-30.57,9.58 -62.93,13.15 -94.88,11.11 -7.33,-0.64 -14.59,-1.99 -21.94,-1.92 7.38,12.91 18.64,23.65 32.5,29.36 27.16,11.56 58.15,10.03 86.18,2.47 24.62,-6.16 50.33,-4.05 75.02,0.39 17.34,-2.93 34.92,-5.31 52.56,-3.85 15.94,0.6 30.96,6.69 46.76,8.29 21.8,2.5 44.8,0.99 64.84,-8.61 12.32,-6.16 23.63,-15.8 29.15,-28.65 -40.15,6.57 -81.46,2.27 -120.23,-9.41 -17.27,7.28 -33.94,16.9 -52.63,20.52 -27.78,7.37 -56.24,-2.77 -81.02,-14.98 -5.18,-2.17 -10.35,-7.21 -16.31,-4.72zm12.19 73.91l0 0c-5.82,2.22 -5.25,9.48 -3.81,14.38 1.56,5.33 7.08,7.78 11.32,10.67 16.97,-12.55 38.93,-15.05 59.43,-15.32 19.21,0.59 39.73,2.91 55.74,14.54 7.83,-2.68 13.12,-10.69 11.58,-18.98 -2.77,-6.67 -10.83,-7.7 -17.03,-9.16 -24.12,-3.76 -48.67,-3.03 -73.01,-2.78 -14.8,1.08 -30.46,0.28 -44.22,6.65zm-72.23 129.89l0 0c13.07,-20.17 26.03,-40.97 44.84,-56.47 -10.45,49.28 -5.14,102.41 17.72,147.55 2.66,-23.8 8.09,-48.48 22.24,-68.25 -0.94,26.91 1.51,54.51 12.52,79.38 9.12,22.33 24.67,41.08 40.38,59.06 17.77,-19.28 34.21,-40.58 43.26,-65.47 9.23,-23.59 10.65,-49.19 9.59,-74.25 12.14,17.61 17.75,38.59 21.78,59.32 5.13,-8.84 5.52,-19.38 7.95,-29.11 6.87,-39.32 7.21,-82.77 -13.44,-118.26 -10.06,-17.16 -31.15,-20.87 -49.15,-23.57 -26.13,-2.04 -54.75,-2.77 -77.86,11.43 -5.29,8.36 -6.62,18.64 -11.02,27.53 -17.56,-22.08 -32.49,-48.71 -31.58,-77.78 -31.21,34.61 -40.53,83.59 -37.23,128.89z"/>
  </g>
 </g>
</svg>
