<?xml version="1.0" encoding="UTF-8"?>
<!DOCTYPE svg PUBLIC "-//W3C//DTD SVG 1.1//EN" "http://www.w3.org/Graphics/SVG/1.1/DTD/svg11.dtd">
<!-- Creator: CorelDRAW -->
<svg xmlns="http://www.w3.org/2000/svg" xml:space="preserve" width="2000px" height="1600px" version="1.1" style="shape-rendering:geometricPrecision; text-rendering:geometricPrecision; image-rendering:optimizeQuality; fill-rule:evenodd; clip-rule:evenodd"
viewBox="0 0 2000 1600"
 xmlns:xlink="http://www.w3.org/1999/xlink">
 <defs>
  <style type="text/css">
   <![CDATA[
    .fil1 {fill:#002B61}
    .fil0 {fill:#C2C3C4}
    .fil2 {fill:#FEFEFE}
   ]]>
  </style>
 </defs>
 <g id="Capa_x0020_1">
  <metadata id="CorelCorpID_0Corel-Layer"/>
  <g id="New_x0020_Hampshire_x0020_Wildcats.cdr">
   <path class="fil0" d="M1287.54 80c25.76,9.3 51.26,19.4 76.98,28.86 26.41,10.01 52.9,19.84 78.78,31.18 6.64,2.69 12.5,7.37 19.64,8.73 41.93,5.47 84.43,12.75 122.93,31.02 28.09,13.16 53.82,30.88 77.65,50.64 8.86,7.14 16.83,15.6 27.17,20.72 6.46,-3.06 13.24,-6.52 20.63,-5.95 8.9,0.66 17.14,4.66 24.92,8.8 20.4,11.16 35.95,30.01 44.84,51.35 2.24,4.81 3.42,10.96 8.86,13.27 23.42,12.73 43.22,32.64 54.23,57.07 2.99,6.99 4.9,14.56 9.66,20.65 13.63,18.71 21.36,41.81 20.89,65.01 0.12,28.2 -11.28,56.48 -31.63,76.1 -5.11,5.03 -11.8,8.36 -16.07,14.24 -24.4,34.61 -56.95,63.28 -93.88,83.92 -0.05,3.64 -0.09,7.31 -0.1,10.97 5.28,0.02 10.58,0.05 15.9,0.09 -2.63,17.35 -5.42,34.7 -8.17,52.04 24.4,2.9 49.71,1.16 73.21,9.45 20.82,7.08 39.43,21.31 50.31,40.58 14.25,24.65 16.1,54.79 10.21,82.19 -14.37,65.94 -28.74,131.88 -43.14,197.8 -1.72,9.08 -2.96,19.52 2.46,27.62 5.9,7.08 16.06,6.32 24.39,6.82 -10.29,56.6 -20.62,113.18 -30.9,169.78 -5.51,30.97 -11.69,61.82 -16.47,92.91 -5,25.31 -14.53,51.12 -33.77,69.12 -14.55,13.46 -33.63,20.99 -52.88,24.69 -15.35,3.06 -31.09,2.53 -46.61,3.88 -421.57,29.26 -843.12,58.46 -1264.69,87.7 -39.82,3.04 -79.75,4.93 -119.52,8.75l-23 0c-11.29,-4.04 -23.21,-5.79 -34.81,-8.66 -26.8,-6.27 -53.75,-11.8 -80.43,-18.49 -9.23,-82.21 -18.76,-164.38 -28.09,-246.58 -1.46,-11.53 -2.08,-23.18 -4.68,-34.54l0 -11.55c4.41,-11.7 7.31,-23.89 10.86,-35.86 31,-107.9 61.88,-215.81 92.93,-323.68 2.87,-10.89 1.84,-24.16 -7.11,-32.01 -6.56,-6.23 -15.89,-7.74 -24.6,-7.89 17.7,-57.22 35.66,-114.34 53.58,-171.48 21.71,-4.9 43.61,-8.97 65.24,-14.19 30.77,-9.38 60.3,-22.3 89.61,-35.4 58.81,-26.82 116.29,-56.4 173.46,-86.52 103.87,-54.76 206.21,-112.31 309.32,-168.42 29.52,-16.26 59.32,-31.99 88.62,-48.64 -6.72,-16.41 -11.79,-33.55 -14.37,-51.11 -2.77,-19 -8.36,-37.47 -15.91,-55.08 -7.63,-19.84 -16.02,-39.4 -23.35,-59.36 15.45,3.47 30.78,7.4 46.21,10.98 18.8,4.64 37.89,8.43 56.13,15.11 39.88,14.03 76.32,35.92 112.29,57.78 26.98,-12.31 55.75,-19.85 84.42,-27.1 37.15,-9.23 74.94,-15.97 113.07,-19.69 -8.45,-26.25 -26.24,-48.13 -45.22,-67.62z"/>
   <path class="fil1" d="M1350.38 136.18c28.56,11.34 57.01,23.77 82.4,41.25 5,2.99 8.75,8.95 15.15,8.78 30.71,2.9 61.18,8.64 90.82,17.17 44.6,13.32 82.64,41.59 117.15,71.93 10.84,7.58 22.8,16.87 36.85,15.4 6.5,-0.34 12.63,-2.75 18.45,-5.47 24.11,9.78 36.65,35.26 42,59.28 23.96,8.46 46.33,24.96 56.23,49.04 3.09,5.74 2.27,13.27 7.31,17.95 14.97,16.31 21.95,39.73 17.86,61.56 -2.68,15.74 -10.96,30.75 -23.69,40.56 -3.77,3 -8.56,4.91 -11.36,8.98 -20.69,31.61 -49.27,57.87 -81.9,76.8 14.69,-27.61 25.82,-57.28 31.51,-88.08 -2.02,-1.32 -4.07,-2.62 -6.06,-3.9 -19.74,20.48 -49.08,29.6 -77.11,27.73 -12.35,22.89 -32.47,40.23 -52.77,55.92 -11.38,8.46 -23.08,16.53 -35.34,23.66 13.91,-23.32 25.98,-48.62 29.29,-75.85 0.6,-16.43 -0.01,-33.87 -7.58,-48.83 -7.43,-11.27 -19.67,-19.96 -33.33,-21.24 -13.98,-1.22 -28.97,2.48 -39.32,12.35 -6.02,5.32 -10.46,12.11 -13.9,19.29 6.16,7.02 10.81,15.63 11.5,25.09 1.43,15.33 -3.58,30.49 -10.96,43.75 -7.13,12.7 -17.44,23.1 -26.63,34.27 -5.66,6.81 -7.6,16.27 -5.45,24.83 2.75,11.23 10.36,21.1 20.36,26.86 12.83,7.67 27.36,12.14 42.03,14.67 30.31,-14.37 60.06,-34.05 77.74,-63.32 1.92,24.15 1.21,48.87 -5.83,72.21 13.51,-5.93 27.09,-12.04 39.39,-20.28 13.97,-9.75 25.11,-22.81 36.33,-35.5 6.07,20.7 0.3,42.67 -7.82,61.97 6.53,0 13.1,0 19.67,0.07 -2.62,16.68 -5.3,33.33 -7.83,50.03 27.82,1.71 55.63,3.8 83.47,5.71 15.15,0.94 30.72,5.42 42.1,15.89 12,11.14 17.34,27.91 17.27,43.98 0.56,14.02 -3.49,27.56 -6.28,41.15 -18.35,84.19 -36.72,168.4 -55.08,252.59 11.64,1.7 23.37,2.41 35.09,3.48 -11.31,62.18 -22.63,124.35 -33.92,186.53 -3.4,15.43 -4.44,31.32 -8.8,46.55 -4.36,15.16 -11.16,31.07 -24.92,39.97 -15.84,9.89 -35.02,12.17 -53.31,12.49 -465.58,32.25 -931.15,64.54 -1396.73,96.8 -6.07,0.29 -12.24,1.49 -18.26,0.19 -28.4,-6.45 -56.81,-12.92 -85.22,-19.28 -9.56,-83.42 -19,-166.83 -28.61,-250.23 -0.96,-5.77 1.51,-11.26 2.99,-16.7 36.44,-126.6 72.59,-253.31 109.13,-379.88 4.48,-11.02 3.88,-24.33 -3.43,-34 -5.84,-8.12 -16.07,-11.13 -25.58,-11.97 10.99,-35.21 22.02,-70.4 32.98,-105.62 15.23,-3.45 30.61,-6.22 45.76,-10.03 28.64,-8.78 56.28,-20.45 83.65,-32.49 51.53,-22.98 101.93,-48.39 152.03,-74.33 157.22,-81.7 310.79,-170.17 467.04,-253.68 -14.45,-21.68 -24.38,-46.45 -28.21,-72.27 -2.65,-18.44 -7.5,-36.54 -14,-54 53.98,13.12 100.81,44.31 147.8,72.57 18.03,-8.15 36.08,-16.53 55.18,-21.96 63.15,-18.78 128.56,-31.63 194.62,-32.64 -5.64,-18.73 -19.57,-33.18 -31.92,-47.75z"/>
   <path class="fil2" d="M978.98 1207.2c43.16,-0.84 86.3,-2.4 129.44,-3.39 11.46,0.22 24.01,-1.3 34.26,4.98 7.6,4.51 11.84,13.05 12.68,21.66 1.62,16.75 -1.72,33.45 -5.42,49.73 -4.17,16.92 -9.24,33.64 -15.21,50.02 -5.68,14.8 -13.34,29.85 -26.77,39.07 -12.05,8.81 -27.2,11.5 -41.79,12.39 -35.96,2.26 -71.93,4.39 -107.89,6.59 -4.65,-0.02 -10.22,0.05 -13.49,-3.82 -1.59,-2.45 -0.81,-5.34 -0.14,-7.89 13.97,-49.67 27.88,-99.38 41.81,-149.07 0.67,-3.33 2.02,-7.49 -0.69,-10.24 -2.22,-2.6 -5.9,-2.78 -8.89,-3.81 0.7,-2.1 1.39,-4.16 2.1,-6.22zm-398.63 10.98l0 0c22.95,-0.27 45.9,-1.35 68.84,-1.71 4.61,0.22 11.69,0.49 12.43,6.39 -1.22,5.53 -4.86,10.04 -7.7,14.82 -36.05,58.57 -72.23,117.08 -108.21,175.71 -21.79,1.28 -43.55,2.68 -65.34,3.95 -4.45,-0.08 -10.28,0.17 -12.81,-4.31 -2.09,-3.98 -1.52,-8.62 -1.62,-12.95 -0.1,-27.2 1,-54.39 0.88,-81.6 -20.76,34.46 -41.17,69.11 -61.96,103.54 -21.59,1.16 -43.17,2.65 -64.77,3.85 -5.45,-0.04 -12.29,0.45 -15.94,-4.45 -2.36,-3.9 -2.28,-8.66 -2.65,-13.05 -2.63,-52.86 -5.25,-105.75 -7.88,-158.62 -0.31,-4.45 -0.93,-9.49 -4.58,-12.51 -3.83,-2.97 -8.86,-3.29 -13.44,-4.12 0.76,-2.35 1.54,-4.66 2.31,-6.97 23.64,-0.88 47.28,-1.34 70.92,-2.06 7.04,0.08 14.35,-1.05 21.16,1.26 4.36,1.63 5.61,6.66 5.79,10.83 0.29,31.35 0.64,62.73 0.61,94.1 22.86,-36.07 45.37,-72.35 67.96,-108.57 23.44,-1.29 46.94,-1.17 70.38,-2.3 0.61,34.87 1.69,69.74 2.26,104.6 15.94,-25.96 31.48,-52.17 47.25,-78.22 2.8,-4.82 6.14,-10.2 4.76,-16.03 -1.83,-4.22 -7.23,-3.92 -11.03,-4.76 0.8,-2.28 1.59,-4.56 2.38,-6.82zm102.77 -2.53l0 0c-0.59,2.12 -1.17,4.27 -1.76,6.43 3.7,0.98 8.49,1.26 10.69,4.93 1.94,2.97 0.67,6.55 -0.14,9.69 -15.29,51.6 -30.53,103.24 -45.81,154.85 -0.93,3.89 -2.78,9.44 1.19,12.28 5.06,3.14 11.36,2.67 17.07,2.36 23.42,-1.65 46.9,-2.61 70.31,-4.5 0.62,-2.11 1.26,-4.19 1.92,-6.27 -3.34,-0.99 -7.33,-1.06 -9.91,-3.66 -2.68,-2.7 -1.37,-6.89 -0.71,-10.12 15.04,-51.72 30.19,-103.42 45.2,-155.15 1.07,-3.48 1.34,-8.14 -2.02,-10.44 -5.04,-3.17 -11.3,-2.45 -16.97,-2.53 -23.02,0.88 -46.07,1.06 -69.06,2.13zm124.93 -3.82l0 0c23.06,-0.15 46.11,-1.23 69.16,-1.72 4.78,0.17 10.52,-0.04 14.02,3.83 2.66,3.43 0.94,7.78 0.06,11.53 -12.56,43.58 -24.87,87.23 -37.33,130.83 13.36,-0.58 26.71,-1.37 40.07,-2.11 5.72,-0.47 11.67,-0.63 17.07,-2.86 4.05,-1.7 6.28,-5.67 8.32,-9.32 2.94,-0.2 5.86,-0.43 8.82,-0.64 -3.43,12.01 -6.82,24.01 -10.17,36.05 -1.3,4.21 -2.93,8.92 -7.02,11.21 -5.56,3.2 -12.19,3.08 -18.39,3.63 -35.59,2.15 -71.17,4.31 -106.75,6.51 -4.34,0.03 -9.27,0.15 -12.8,-2.76 -3.12,-2.51 -1.94,-6.92 -1.2,-10.25 14.9,-52.12 30.28,-104.13 44.99,-156.29 2.31,-7.12 -5.32,-10.41 -10.96,-11.09 0.71,-2.19 1.4,-4.37 2.11,-6.55zm401.68 -0.98l0 0c12.65,-9.2 28.84,-10.69 43.97,-11.06 24.62,-0.54 49.24,-1.57 73.86,-1.89 -2.67,9.02 -4.07,18.47 -7.69,27.2 -2.6,5.96 -9.88,6.38 -15.48,6.6 -12.88,0.81 -25.92,-0.03 -38.67,2.11 -8.71,1.59 -13.35,9.87 -16.11,17.48 -7.19,19.01 -12.42,38.75 -16.65,58.62 -1.23,6.74 -2.8,14.97 2.28,20.57 5.58,6.13 14.64,3.85 21.95,4.15 12.04,-1.03 24.35,-0.23 36.14,-3.08 4.83,-1.02 7.43,-5.29 9.44,-9.38 2.4,-0.22 4.81,-0.42 7.22,-0.6 -2.97,10.9 -5.3,22.03 -8.88,32.79 -2.23,6.94 -8.17,12.26 -15.28,13.84 -12.7,2.94 -25.82,3.23 -38.75,4.26 -16.85,0.94 -33.79,2.43 -50.66,1.2 -10.75,-0.8 -22.35,-5.04 -28.07,-14.78 -6.54,-10.96 -4.92,-24.45 -3.23,-36.5 4.2,-23.47 10.03,-46.71 17.78,-69.25 5.79,-15.67 12.88,-32.17 26.83,-42.28zm481.03 -22.78l0 0c24.12,-1.47 48.34,-1.25 72.5,-2.4 -2.16,7.89 -3.04,16.16 -6.13,23.76 -1.11,3.06 -4.1,5 -7.23,5.35 -12.95,1.57 -26.17,0.07 -38.98,2.59 -9.34,1.79 -13.92,17.59 -4.12,21.76 12.58,6.13 26.74,9.1 38.38,17.14 9.44,7.23 8.15,20.52 6.02,30.85 -3.68,15.99 -8.37,32.98 -20.48,44.76 -8.1,7.96 -19.74,10.37 -30.66,11.16 -18.78,1.17 -37.52,2.33 -56.28,3.45 -5.66,0.07 -12.71,0.88 -16.5,-4.32 -2.31,-2.84 -0.89,-6.54 -0.38,-9.7 2.09,-9.69 4.76,-19.24 7.05,-28.87 2.06,-0.22 4.16,-0.4 6.25,-0.57 1.06,2.44 1.03,5.96 3.82,7.31 6.35,2.39 13.24,1.21 19.84,0.99 8.56,-0.6 17.19,-0.57 25.7,-1.79 5.45,-0.76 11.16,-3.71 13.2,-9.1 2.08,-5.01 1.77,-12.12 -3.65,-14.84 -13.18,-6.82 -28.68,-9.12 -40.54,-18.49 -5.86,-4.41 -8.71,-11.95 -7.63,-19.15 1.62,-13.32 4.8,-26.71 10.94,-38.71 5.49,-11.12 16.08,-20.4 28.88,-21.18zm-57.03 1.17l0 0c-34.44,1.21 -68.92,1.85 -103.37,3 -4.79,0.05 -10.45,1.51 -11.92,6.74 -4.05,11.04 -5.87,22.76 -9.18,34.02 2.28,-0.06 4.57,-0.13 6.9,-0.18 1.81,-3.18 3.67,-7.11 7.67,-7.82 8.63,-1.54 17.47,-0.9 26.19,-1.81 -10.03,40.46 -20.6,80.82 -30.28,121.36 -1.84,5.64 4.06,9.4 9.1,8.73 18.34,-0.53 36.63,-2.25 54.96,-3.06 0.51,-1.77 1.03,-3.55 1.59,-5.28 -5.28,-0.78 -9.76,-5.04 -7.8,-10.69 8.87,-37.62 18.66,-75.04 27.73,-112.61 10.6,-1.08 21.34,-0.3 31.89,-1.74 4.7,-0.52 6.64,-5.4 7.7,-9.35 2.6,-9.66 4.83,-19.42 7.45,-29.1 -2.3,0 -4.58,0.02 -6.84,0.07 -2.36,4.46 -6.47,7.94 -11.79,7.72zm23.39 -404.42l0 0c1.06,-4.46 2.09,-8.9 3.16,-13.34 40.17,2.52 80.32,4.91 120.49,7.38 9.1,0.57 18.76,2.11 25.87,8.32l-0.22 0.29c-6.33,7.6 -10.55,16.62 -15.94,24.87 -3.12,4.75 -5.34,10.05 -6.4,15.62 -19.96,92.18 -41.1,184.08 -60.31,276.41 -18.24,0.32 -36.48,0.9 -54.71,0.59 -6.28,0 -13.07,-0.44 -18.51,3.3 -14.03,8.57 -28.45,16.53 -42.36,25.29l-1.02 -0.37c-2.28,-5.29 -0.52,-11.21 0.38,-16.62 10.89,-47.11 21.66,-94.25 32.65,-141.34 16.9,-10.23 33.77,-20.55 50.25,-31.41 -48.85,-2.5 -97.8,-3.33 -146.7,-5.22 9.14,-9.93 18.59,-19.58 27.95,-29.31 3.26,-3.95 8.78,-2.9 13.3,-3.19 23.36,0.64 46.71,1.47 70.04,2.23 6.25,-27.98 12.75,-55.91 19.15,-83.85 1.44,-8.6 4.66,-17.57 2.18,-26.24 -2.7,-8.26 -11.67,-11.36 -19.25,-13.41zm-221.03 -27.05l0 0c-1.16,4.66 -2.33,9.32 -3.51,13.98 7.65,2.05 16.36,4.43 20.75,11.64 4.53,8.22 0.75,17.54 -1.04,25.96 -24.35,102.72 -48.65,205.45 -73,308.16 -1.92,7.63 -3.24,15.97 0.47,23.32 15,-10.2 29.99,-20.4 44.99,-30.6 4.45,-3.28 10.19,-2.75 15.43,-2.97 21.46,-0.17 42.92,-0.02 64.38,-0.79 5.76,-30.3 13.7,-60.15 20.37,-90.25 14.65,-63.02 28.8,-126.15 43.75,-189.1 1.95,-7.13 2.46,-14.78 5.85,-21.41 7.3,-10.23 16.57,-18.96 23.31,-29.64 -7.37,-7.58 -18.26,-9.4 -28.32,-10.09 -44.48,-2.79 -88.95,-5.42 -133.43,-8.21zm-154.67 11.74l0 0c16.37,-6.89 32.93,-13.61 50.17,-17.94 18.15,0.73 36.3,2.13 54.47,3.2 11.23,1.11 24.69,3.03 30.94,13.79 -7.35,8.29 -15,16.31 -22.58,24.38 -5.2,5.15 -5.39,12.94 -7.24,19.61 -23.71,98.65 -47.3,197.35 -71.11,295.99 -17.41,0.69 -34.85,-0.07 -52.26,0.68 -9.06,-0.29 -18.28,0.96 -27.23,-0.61 -12.36,-22.93 -23.22,-46.69 -35.41,-69.74 -23.77,-47.8 -47.9,-95.43 -71.73,-143.22 19.84,-28.75 43.48,-55.04 70.83,-76.84 17.4,35.93 34.82,71.85 52.52,107.61 10.96,-45.96 22.56,-91.79 33.53,-137.75 1.86,-6.8 -0.3,-13.98 -4.9,-19.16zm-312.08 -40.26l0 0c-1.44,5.12 -2.84,10.23 -4.12,15.38 8.25,1.88 17.12,4.24 23.11,10.64 5,5.52 4.73,13.61 2.97,20.4 -29.88,115.26 -59.75,230.53 -89.69,345.77 -2.24,8.46 -5.86,17.72 -1.38,26.11 16.9,-10.05 34.02,-19.76 50.92,-29.84 4.26,-2.48 8.54,-5.6 13.7,-5.6 19.73,-0.77 39.52,0.13 59.26,-0.83 3.9,-19.66 9.54,-38.89 14.3,-58.34 19.1,-74.68 37.94,-149.43 57.24,-224.07 5.17,9.07 9.12,18.8 14.78,27.61 10.47,-39.33 23.33,-78.08 40.07,-115.21 -8.8,-1.6 -17.72,-1.97 -26.6,-2.63 -25.63,25.14 -50.3,51.25 -74.39,77.86 -3.84,-27.27 -3.04,-55.28 3.05,-82.17 -27.74,-1.68 -55.48,-3.36 -83.22,-5.08zm-562.82 -17.15l0 0c1.74,-5.73 3.39,-11.47 5.39,-17.11 59.94,4.07 119.93,7.43 179.91,11.18 17.81,1.3 37.35,1.03 52.51,11.95 -9.71,9.46 -18.54,19.76 -27.99,29.47 -3.37,3.51 -7.1,7.06 -8.33,11.95 -20.09,72.15 -40.29,144.27 -60.45,216.39 -4.73,17.47 -10.25,34.78 -13.44,52.63 -2.79,14.72 -1.3,30 3.6,44.12 10.7,-5.39 21.24,-11.15 31.95,-16.51 7.52,13.72 24.48,16.71 38.75,17.52 18.38,0.41 38.24,0.49 54.52,-9.32 14.98,-9.1 21.66,-26.48 25.98,-42.62 21.38,-79.34 42.79,-158.67 64.2,-238.01 2.15,-9.02 5.51,-17.78 6.65,-27 0.66,-5.27 -0.87,-10.79 -4.66,-14.59 -6.56,-6.79 -16.14,-9.13 -25.02,-11.24 1.54,-5.36 3.09,-10.69 4.64,-16.03 57.57,3.6 115.14,7.03 172.72,10.59 12.94,1.01 26.99,2.65 37.08,11.65 -8.56,11.84 -19.94,21.28 -29.33,32.42 -3.75,5.15 -4.32,11.74 -6.08,17.68 -20.06,75.53 -40.18,151.04 -60.26,226.55 -4.1,15.09 -8.24,30.31 -14.69,44.61 -4.61,10.3 -11.38,19.92 -20.94,26.17 -19.79,13.05 -42.56,20.8 -65.53,26.05 -39.51,8.82 -80.1,10.71 -120.41,12.53 -49.66,0.36 -99.82,0.1 -148.69,-9.89 -8.02,-1.42 -15.67,-4.41 -23.69,-5.78 -3.05,0.69 -5.76,2.38 -8.47,3.88 -17.73,10.41 -35.83,20.17 -53.51,30.65 -15.82,-9.07 -30.45,-21.68 -37.69,-38.8 -5.12,-11.73 -6.38,-24.84 -4.81,-37.49 3.61,-30.93 14.18,-60.39 22.28,-90.31 20.93,-72.93 41.93,-145.86 62.77,-218.83 1.79,-9.63 6.35,-20.57 0.57,-29.69 -6.58,-9.62 -18.89,-12.26 -29.53,-14.77zm1229.36 -26.6l0 0c17.24,-9.67 34.87,-20.48 46.23,-37.13 -2.41,12.99 -6.33,25.85 -13.46,37.08 -10.92,0 -21.85,-0.05 -32.77,0.05zm-75.7 -5.03l0 0c18.04,-9.69 34.55,-22.27 48.23,-37.57 -0.81,14.22 -4.61,28.25 -11.28,40.85 -12.36,-0.78 -24.66,-2.11 -36.95,-3.28zm205.73 -163.8l0 0c6.42,2.02 13.04,3.26 19.67,4.34 -8.05,17.41 -22.67,30.49 -36.87,42.89 8.2,-14.73 13.22,-30.94 17.2,-47.23zm-142.1 -5.49l0 0c6.46,7.99 14.94,14.03 23.6,19.43 -5.3,20.37 -22.2,34.6 -37.43,47.87 10.7,-20.65 14.21,-44.25 13.83,-67.3zm132.33 -51.87l0 0c8.23,-16.01 18.92,-32.45 35.99,-40 12.25,15.53 23.46,34.9 20.23,55.42 -8.27,10.95 -23.18,14.75 -36.28,12.73 -8.33,-1.51 -16.89,-3.41 -23.9,-8.41 1.17,-6.61 0.44,-13.75 3.96,-19.74zm-465.92 -1.93l0 0c-19.48,16.55 -36.03,36.15 -52.17,55.89 -38.13,47.03 -71.21,97.97 -100.93,150.65 -5.62,10.74 -12.51,20.86 -16.95,32.15 16.7,-17.76 33.82,-35.34 53.81,-49.45 26.28,-18.83 57.06,-33.57 89.9,-34.4 4.48,-0.27 8.97,-0.59 13.49,-0.69 -1.25,0.72 -3.71,2.18 -4.94,2.9 -13.29,12.35 -25.06,26.28 -36.16,40.61 -38.14,50.35 -65.49,108.3 -84.24,168.48 3.06,-3.38 6.08,-6.79 9.27,-10.03 0.14,-0.32 0.39,-0.94 0.53,-1.25 3.61,-9.3 11.07,-16.24 16.8,-24.21 16.73,-20.72 34.29,-41.56 57.04,-55.94 29.61,-19.32 62.77,-33.3 97.41,-40.56 28.77,-6.4 58.57,-5.83 87.7,-2.26 67.15,7.6 133.27,24.33 201.07,25.78 18.37,0.17 37.03,2.42 55.13,-1.89 0.62,-4.42 1.26,-8.85 2.01,-13.24 -48.95,1.39 -98.09,-1.3 -146.43,-9.25 -34.33,-5.86 -68.54,-14.5 -99.89,-29.94 -22.68,-11.46 -44.34,-27.23 -57.03,-49.76 -12,-20.6 -13.99,-45.66 -10.09,-68.81 4.52,-26.37 18.57,-51.04 39.41,-67.91 23.28,-18.84 51.26,-33.19 81.47,-35.88 18.83,-2.08 37.72,0.88 56.19,4.51 -4.57,-5.47 -10.69,-9.51 -17.42,-11.77 -15.39,-5.5 -32,-4.22 -47.91,-2.45 9.34,-5.03 19.81,-7.24 30.09,-9.44 27.22,-7.24 56.82,2.01 78.65,18.86 22.53,19.12 47.06,35.72 72.51,50.69 11.73,6.94 25.55,10.69 39.22,9.34 13.46,-1.11 25.82,-7.04 37.27,-13.85l0.52 -0.28c3.73,-9.66 4.9,-20.45 1.72,-30.45 -6.14,-21.04 -23.25,-36.67 -41.18,-48.1 -8.14,-5.54 -18.05,-6.94 -27.32,-9.53 -15.23,-4.08 -30.86,-6.56 -46.62,-7.17 7.01,8.22 14.24,16.48 18.93,26.31 4.04,8.22 6.42,17.1 8,26.08 -36.17,-28.57 -79.12,-50.15 -125.27,-55.79 -83.16,-7.8 -170.27,16.64 -233.59,72.05zm415.06 -96.17l0 0c13.79,2.83 27.5,7.09 39.85,13.98 12.14,8.22 20.7,20.78 27.08,33.77 -0.3,0.81 -0.93,2.43 -1.23,3.24 -3.77,0.13 -7.5,0.37 -11.23,0.61 -5.46,-10.93 -11.99,-21.41 -20.33,-30.36 -9.69,-9.54 -23,-13.81 -34.14,-21.24zm-151.14 -4.38l0 0c5.96,-2.55 12.63,-5.23 15.25,-11.72 2.76,1.1 5.55,2.22 8.35,3.31 -5.37,7.35 -14.82,10.49 -23.6,8.41zm-746.18 113.03l0 0c78.49,-38.43 155.05,-80.73 229.51,-126.45 8.47,4.91 17.26,9.27 26.41,12.8 -40.16,25.9 -80.98,50.7 -122.05,75.1 -6.6,3.72 -13.15,7.52 -19.11,12.19 -2.64,1.42 -5.61,2.06 -8.45,2.91 -42.09,11.33 -84.07,23.13 -126.18,34.36 5.78,-5.03 13.12,-7.51 19.87,-10.91zm661.06 -171.13l0 0c12.41,0.34 25.67,2.82 35.44,11.03 7.04,5.87 9.19,15.16 12.5,23.3 4.77,11.6 12.63,22.37 23.74,28.58 9.64,5.31 21.17,7.32 32.01,5.24 6.86,-1.54 12.38,-6.38 16.04,-12.23 2.3,0.7 4.58,1.39 6.93,2.1 -7,15.46 -23.63,26.24 -40.83,23.76 -12.41,-2.18 -24.4,-7.65 -33.25,-16.72 -11.87,-11.91 -17.16,-28.23 -21.8,-43.94 -4.37,-13.2 -19.25,-16.76 -30.78,-21.12zm-272.54 -44.83l0 0c62.27,-20.84 128.1,-31.1 193.77,-30.11 70.14,1.83 140.23,18.37 202.96,50.03 -12.01,-3.52 -23.62,-8.22 -35.63,-11.73 -61.78,-18.81 -126.62,-28.94 -191.27,-25.92 -39.38,2.57 -78.08,11.45 -115.85,22.51 -10.05,3.27 -20.5,5.62 -29.87,10.64l-0.31 0.16c-12.19,-3.2 -24.35,-6.55 -36.27,-10.62 4.07,-1.8 8.21,-3.54 12.47,-4.96zm-166.26 -36.3l0 0c1.02,11.78 3.6,23.35 6.76,34.71l0.35 0.07c28.88,4.8 53.17,22.51 80.21,32.49 34.56,10.69 71.4,9.34 107.05,6.79 15.09,-1.42 30.22,-2.87 45.03,-6.13 -29.46,-1.59 -59,-2.4 -88.36,-5.64 -16.17,-1.88 -32.54,-3.63 -48.12,-8.53 -18.13,-6.57 -34.28,-17.32 -50.55,-27.44 -16.6,-10.35 -34.1,-19.28 -52.37,-26.32zm361.94 978.22l0 0c-0.58,1.86 -1.12,3.75 -1.66,5.64 3.14,1.08 8.61,1.56 8.04,6.18 -0.78,5.41 -4.29,9.96 -6.7,14.76 -25.35,43.85 -50.76,87.67 -76.12,131.54 -1.51,2.65 -2.89,5.79 -1.76,8.89 2.42,3.45 6.96,3.18 10.69,3.09 16.85,-0.98 33.72,-2.14 50.59,-3.05 0.35,-1.39 1.1,-4.17 1.45,-5.57 -3.87,-0.95 -9.54,-2.61 -8.2,-7.86 2.75,-9.2 8.27,-17.34 12.2,-26.08 16.47,-1 32.95,-1.86 49.43,-2.64 -0.04,8.97 0.37,17.93 0.69,26.92 0.27,3.54 0.12,8.12 3.75,10.14 3.15,1.25 6.65,1 10.01,0.88 17.24,-1.08 34.48,-2.23 51.74,-3.09 0.47,-1.38 1.4,-4.12 1.87,-5.49 -3.53,-1.18 -7.92,-1.97 -9.61,-5.72 -1.52,-4.27 -1.23,-8.93 -1.55,-13.37 -2.31,-42.81 -4.66,-85.61 -7.01,-128.41 0.56,-4.9 -3.75,-8.85 -8.51,-8.45 -26.46,-0.11 -52.88,1.54 -79.34,1.69zm3.12 98.29l0 0c10.79,-20.75 20.91,-41.84 31.8,-62.53 0.86,20.27 1.26,40.56 2.12,60.84 -11.31,0.71 -22.62,0.96 -33.92,1.69zm-343.68 -53.96l0 0c-9.78,35.76 -19.77,71.47 -29.62,107.22 9.09,-0.73 18.29,-0.56 27.29,-2.22 6.5,-1.06 10.91,-6.65 14.03,-12.02 5.46,-9.98 8.68,-20.99 11.97,-31.81 4.24,-15.31 8.99,-30.63 10.37,-46.52 0.51,-5.38 -1.25,-12.26 -7.26,-13.64 -8.75,-2.11 -17.88,-0.61 -26.78,-1.01z"/>
   <path class="fil0" d="M1038.41 1052.94c19.1,-74.68 37.94,-149.43 57.24,-224.07 5.17,9.07 9.12,18.8 14.78,27.61l0.27 0.47c-7.7,28.59 -12.33,57.9 -16.41,87.18 -14.07,55.84 -28.25,111.65 -42.35,167.45 -1.77,6.62 -2.42,14.61 2.36,20.16 5.42,6.47 14.29,7.74 22.09,9.22 -1.05,5.07 -2.15,10.13 -3.38,15.17 -44.44,1.07 -88.9,1.75 -133.34,2.56 -13.59,-0.2 -29.6,-0.15 -39.44,-11.14 16.9,-10.05 34.02,-19.76 50.92,-29.84 4.26,-2.48 8.54,-5.6 13.7,-5.6 19.73,-0.77 39.52,0.13 59.26,-0.83 3.9,-19.66 9.54,-38.89 14.3,-58.34zm752.07 -240.6l0 0c5.39,-8.25 9.61,-17.27 15.94,-24.87 5.07,6.27 4.29,14.56 2.53,21.87 -20.7,94.45 -41.45,188.89 -62.15,283.33 -1.72,8.65 -5.14,17.63 -2.67,26.46 2.7,7.63 11.31,9.74 18.37,11.24 -0.74,4.4 -1.52,8.79 -2.33,13.16 -34.29,0.88 -68.59,1.26 -102.9,2.04 -12.92,-0.3 -26.2,1.99 -38.8,-1.96 -4.44,-1.5 -9.46,-4.17 -10.7,-9.01l0.42 -1.05c13.91,-8.76 28.33,-16.72 42.36,-25.29 5.44,-3.74 12.23,-3.3 18.51,-3.3 18.23,0.31 36.47,-0.27 54.71,-0.59 19.21,-92.33 40.35,-184.23 60.31,-276.41 1.06,-5.57 3.28,-10.87 6.4,-15.62zm-192.64 -36.27l0 0c-6.74,10.68 -16.01,19.41 -23.31,29.64 -3.39,6.63 -3.9,14.28 -5.85,21.41 -14.95,62.95 -29.1,126.08 -43.75,189.1 -6.67,30.1 -14.61,59.95 -20.37,90.25 -21.46,0.77 -42.92,0.62 -64.38,0.79 -5.24,0.22 -10.98,-0.31 -15.43,2.97 -15,10.2 -29.99,20.4 -44.99,30.6 10.12,10.47 25.91,9.23 39.23,9 42.2,-0.51 84.37,-1.71 126.55,-2.1 1.19,-4.66 2.32,-9.32 3.45,-13.99 -6.42,-1.36 -13.48,-2.55 -18.19,-7.52 -4.81,-4.96 -3.97,-12.6 -2.87,-18.83 10.3,-44.52 20.42,-89.1 30.67,-133.64 27.21,0.15 54.42,0.71 81.6,1.47 16.9,-10.23 33.77,-20.55 50.25,-31.41 -48.85,-2.5 -97.8,-3.33 -146.7,-5.22 9.14,-9.93 18.59,-19.58 27.95,-29.31 3.26,-3.95 8.78,-2.9 13.3,-3.19 -3.41,-0.29 -6.87,-0.52 -10.26,-0.74 8.15,-36.58 16.63,-73.08 24.78,-109.65 1.81,-6.57 1.24,-13.48 -1.68,-19.63zm-180.84 -7.51l0 0c-7.35,8.29 -15,16.31 -22.58,24.38 -5.2,5.15 -5.39,12.94 -7.24,19.61 -23.71,98.65 -47.3,197.35 -71.11,295.99 -17.41,0.69 -34.85,-0.07 -52.26,0.68 -9.06,-0.29 -18.28,0.96 -27.23,-0.61 -12.36,-22.93 -23.22,-46.69 -35.41,-69.74 -23.77,-47.8 -47.9,-95.43 -71.73,-143.22 -11.87,17.58 -22.49,36.05 -30.98,55.51 30.41,60.12 60.87,120.22 91.28,180.35 3.44,6.33 6.62,13.34 12.78,17.51 7.14,4.51 15.96,4.13 24.08,4.35 34.43,-0.57 68.86,-1.01 103.28,-1.97 29,-121.05 57.67,-242.17 86.61,-363.24 1.6,-6.41 2.26,-13.15 0.51,-19.6zm-472.47 -31.44l0 0c-8.56,11.84 -19.94,21.28 -29.33,32.42 -3.75,5.15 -4.32,11.74 -6.08,17.68 -20.06,75.53 -40.18,151.04 -60.26,226.55 -4.1,15.09 -8.24,30.31 -14.69,44.61 -4.61,10.3 -11.38,19.92 -20.94,26.17 -19.79,13.05 -42.56,20.8 -65.53,26.05 -39.51,8.82 -80.1,10.71 -120.41,12.53 -49.66,0.36 -99.82,0.1 -148.69,-9.89 -8.02,-1.42 -15.67,-4.41 -23.69,-5.78 -3.05,0.69 -5.76,2.38 -8.47,3.88 -17.73,10.41 -35.83,20.17 -53.51,30.65 21.68,12.01 46.03,18.26 70.27,22.65 36.86,6.31 74.36,8.27 111.72,7.95 37.73,0.28 75.51,-1.37 113.03,-5.49 38.56,-4.58 77.55,-11.92 112.55,-29.43 19.59,-9.46 38.21,-22.53 49.88,-41.28 16.41,-26.13 22.97,-56.77 30.95,-86.17 21.41,-81.07 42.72,-162.17 64.2,-243.2 2.58,-9.72 5.16,-20.93 -1,-29.9zm-300.2 -19l0 0c7.16,7.03 6.45,17.79 3.92,26.68 -25.13,90.68 -50.29,181.33 -75.34,272.04 -3.13,12.75 -8.02,26.31 -3.24,39.33 -10.71,5.36 -21.25,11.12 -31.95,16.51 -4.9,-14.12 -6.39,-29.4 -3.6,-44.12 3.19,-17.85 8.71,-35.16 13.44,-52.63 20.16,-72.12 40.36,-144.24 60.45,-216.39 1.23,-4.89 4.96,-8.44 8.33,-11.95 9.45,-9.71 18.28,-20.01 27.99,-29.47zm688.75 -26.59l0 0c-34.64,7.26 -67.8,21.24 -97.41,40.56 -22.75,14.38 -40.31,35.22 -57.04,55.94 -5.73,7.97 -13.19,14.91 -16.8,24.21 4.91,-2.95 8.47,-7.56 12.8,-11.24 44.29,-40.34 97.05,-72.19 154.88,-88.65 32.12,-8.39 65.77,-7.38 98.61,-4.85 49.02,3.96 97.38,13.5 146.35,17.99 33.48,2.72 67.57,4.79 100.8,-1.46 0.56,-3.63 1.13,-7.26 1.71,-10.87 -18.1,4.31 -36.76,2.06 -55.13,1.89 -67.8,-1.45 -133.92,-18.18 -201.07,-25.78 -29.13,-3.57 -58.93,-4.14 -87.7,2.26zm88.51 -199.31l0 0c3.7,-3.58 9.44,-1.37 13.59,0.3 10.6,4.81 14.59,17.12 15.38,27.91 1.19,19.57 -4.29,38.7 -9.59,57.33 12.01,-13.34 23.25,-28.22 28.34,-45.66 2.55,-8.36 2.09,-17.49 -1.84,-25.34 9.7,-6.03 22.91,-6.29 32.08,0.94 7.88,5.22 10.53,15.33 9.81,24.32 -1.39,18.43 -11.03,35.15 -23.51,48.37 -7.93,8.95 -18.44,16.15 -23.06,27.58 -5.4,11.92 -5.24,27.23 3.75,37.4 12.15,14.13 29.56,22.61 47.24,27.64 -10.97,-0.46 -21.43,-4.21 -31.52,-8.23 -17.09,-6.97 -33.38,-15.7 -49.38,-24.83 -11.17,-6.35 -20.87,-15.34 -27.65,-26.26 -14.17,-22.85 -15.87,-51.64 -9.12,-77.2 4.46,-16.55 12.21,-32.98 25.48,-44.27zm354.49 -4.76l0 0c13.1,2.02 28.01,-1.78 36.28,-12.73 -3.1,12.59 -13.47,24.29 -26.88,25.61 -12.98,1.45 -25.61,-3.29 -37.11,-8.8 1.58,-4.08 2.92,-8.31 3.54,-12.66l0.27 0.17c7.01,5 15.57,6.9 23.9,8.41zm-268.7 -68.24l0 0c11.72,-0.32 23.59,-0.2 34.94,3.13 22.83,6.31 41.59,22.23 55.8,40.71 15.64,18.77 33.74,36.15 55.54,47.56 15.36,8.02 34.36,11.97 50.71,4.48 13.28,-6.28 24.8,-17.24 30.66,-30.84 -11.45,6.81 -23.81,12.74 -37.27,13.85 -13.67,1.35 -27.49,-2.4 -39.22,-9.34 -25.45,-14.97 -49.98,-31.57 -72.51,-50.69 -21.83,-16.85 -51.43,-26.1 -78.65,-18.86zm200.14 -59.87l0 0c12.02,-2.69 24.28,0.98 35.66,4.76 19.95,7.04 36.66,24.1 40.66,45.22 -4.28,1.04 -8.56,2.02 -12.86,2.87 0.3,-0.81 0.93,-2.43 1.23,-3.24 -6.38,-12.99 -14.94,-25.55 -27.08,-33.77 -12.35,-6.89 -26.06,-11.15 -39.85,-13.98 11.14,7.43 24.45,11.7 34.14,21.24 8.34,8.95 14.87,19.43 20.33,30.36 -10.71,-0.02 -21.38,-1.03 -31.95,-2.65 -6.21,-0.71 -10.75,-5.48 -15.97,-8.4 -29.03,-17.69 -60.59,-31.5 -93.6,-39.71 29.7,2.82 59.84,2.65 89.29,-2.7zm-709.55 -17.11l0 0c4.65,-2.51 8.89,-5.96 13.97,-7.56 9.06,0.83 17.37,4.93 25.53,8.73 -74.46,45.72 -151.02,88.02 -229.51,126.45 -6.75,3.4 -14.09,5.88 -19.87,10.91l-0.54 0.42c-24.94,6.47 -49.73,13.51 -74.6,20.25 -6.8,1.75 -13.49,4.1 -20.46,5.08 39.37,-15.45 76.91,-35.14 114.21,-55.01 64.65,-34.84 128.01,-72 191.27,-109.27zm255.85 -123.31l0 0c70.63,-16.48 143.96,-18.1 215.91,-10.96 29.63,3.4 58.84,11.25 85.81,24.08 25.21,11.72 47.85,28.11 69.45,45.44 9.54,7.75 19.85,14.45 30.76,20.13 -32.72,1.33 -63.87,-10.71 -95.11,-18.51 29.51,14.42 60.35,27.42 93.1,32.12 17.41,2.29 36.29,2.53 52.08,-6.3 6.6,3.64 12.34,8.62 16.88,14.65 -29.61,12.06 -62.27,17.18 -94.03,12.3 -31.12,-4.43 -60.7,-16.7 -87.33,-33.17 -19.15,-10.6 -41.3,-18.59 -63.47,-15.21 -11.32,1.64 -20.87,8.36 -29.37,15.58 6.81,0.09 13.78,-1.78 20.52,-0.35 11.53,4.36 26.41,7.92 30.78,21.12 4.64,15.71 9.93,32.03 21.8,43.94 8.85,9.07 20.84,14.54 33.25,16.72 21.91,5.8 44.73,7.19 67.3,8.22 7.01,8.22 14.24,16.48 18.93,26.31 4.04,8.22 6.42,17.1 8,26.08 -36.17,-28.57 -79.12,-50.15 -125.27,-55.79 -83.16,-7.8 -170.27,16.64 -233.59,72.05 -19.48,16.55 -36.03,36.15 -52.17,55.89 -38.13,47.03 -71.21,97.97 -100.93,150.65 -5.62,10.74 -12.51,20.86 -16.95,32.15 16.7,-17.76 33.82,-35.34 53.81,-49.45 26.28,-18.83 57.06,-33.57 89.9,-34.4 4.48,-0.27 8.97,-0.59 13.49,-0.69 -1.25,0.72 -3.71,2.18 -4.94,2.9 -0.66,-0.44 -1.96,-1.3 -2.62,-1.74 -24.65,5.49 -46.91,18.15 -68.52,30.77 -29.84,17.81 -58.26,37.92 -85.81,59.06 15.73,-65.11 44.56,-126.79 83.09,-181.51 49.76,-70.36 113.79,-130.7 187.09,-176.05 -27.8,9.29 -53.09,24.67 -77.05,41.3 -47.89,33.98 -90.83,74.43 -130.99,117.12 -18.04,19.42 -35.7,39.24 -51.61,60.45 -4.17,-30.63 -8.39,-61.26 -12.56,-91.89 -62.66,20.14 -125.2,40.67 -187.88,60.73 23.42,-36.25 46.97,-72.4 70.48,-108.58 -24.52,6.18 -48.65,13.99 -73.33,19.41 5.96,-4.67 12.51,-8.47 19.11,-12.19 41.07,-24.4 81.89,-49.2 122.05,-75.1 7.81,2.88 15.78,5.3 23.84,7.48 -10.67,8.17 -23.15,13.35 -35.68,17.93 37.52,5.98 75.85,2.48 113.05,-4.04 33.06,-6.07 65.75,-14.47 97.46,-25.64 -9.27,0.97 -18.24,3.66 -27.49,4.74 -55.93,8.38 -115.21,2.48 -166.15,-23.08 9.62,-0.17 19.25,-1.25 28.45,-4.14 -29.99,-15.52 -51.16,-44.86 -60.03,-77.08 28.88,4.8 53.17,22.51 80.21,32.49 34.56,10.69 71.4,9.34 107.05,6.79 15.09,-1.42 30.22,-2.87 45.03,-6.13 3.94,-0.51 7.92,-0.27 11.91,-0.39 -20.33,-5.22 -40.93,-9.49 -60.94,-15.82 9.37,-5.02 19.82,-7.37 29.87,-10.64 37.77,-11.06 76.47,-19.94 115.85,-22.51 64.65,-3.02 129.49,7.11 191.27,25.92 12.01,3.51 23.62,8.21 35.63,11.73 -62.73,-31.66 -132.82,-48.2 -202.96,-50.03 -65.67,-0.99 -131.5,9.27 -193.77,30.11 -4.26,1.42 -8.4,3.16 -12.47,4.96l-0.33 0.16c-8.36,-3.2 -17.51,-4.71 -25.16,-9.46 30.59,-13.46 62.83,-22.93 95.3,-30.63z"/>
  </g>
 </g>
</svg>
