<?xml version="1.0" encoding="UTF-8"?>
<!DOCTYPE svg PUBLIC "-//W3C//DTD SVG 1.1//EN" "http://www.w3.org/Graphics/SVG/1.1/DTD/svg11.dtd">
<!-- Creator: CorelDRAW -->
<svg xmlns="http://www.w3.org/2000/svg" xml:space="preserve" width="2000px" height="1600px" version="1.1" style="shape-rendering:geometricPrecision; text-rendering:geometricPrecision; image-rendering:optimizeQuality; fill-rule:evenodd; clip-rule:evenodd"
viewBox="0 0 2000 1600"
 xmlns:xlink="http://www.w3.org/1999/xlink">
 <defs>
  <style type="text/css">
   <![CDATA[
    .fil0 {fill:black}
    .fil2 {fill:#B0B6B9}
    .fil3 {fill:#C3122E}
    .fil1 {fill:#FEFEFE}
   ]]>
  </style>
 </defs>
 <g id="Capa_x0020_1">
  <metadata id="CorelCorpID_0Corel-Layer"/>
  <g id="Nicholls_x0020_State_x0020_Colonels.cdr">
   <path class="fil0" d="M507.75 618.15c-0.04,-76.61 -0.04,-153.23 0,-229.84 107.79,0 215.56,-0.02 323.35,0.02 96.69,122.56 193.35,245.16 290.13,367.66 7.43,-0.04 14.86,-0.02 22.29,-0.04 0.18,-45.93 -0.75,-91.85 -0.44,-137.8 -22.24,0.09 -44.49,-0.16 -66.71,0.14 -0.5,-76.63 0,-153.28 -0.25,-229.91 127.41,-0.18 254.82,-0.04 382.25,-0.07 -0.06,76.33 0.1,152.68 -0.09,229.01 -22.14,0.27 -44.26,0.74 -66.4,1.36 0,45.76 0,91.52 0.02,137.27 70.22,0.07 140.44,0.27 210.63,-1.48 78.9,-2.32 158.19,-4.98 236.09,-18.75 -44.98,35.64 -99.9,56.07 -155.02,69.95 -95.36,23.28 -193.97,27.99 -291.7,30.08 -0.64,49.86 -0.44,99.74 -0.46,149.62 22.31,0 44.61,-0.02 66.93,0 0,75.74 0.01,151.47 -0.02,227.22 -107.35,-0.05 -214.7,0.05 -322.05,-0.05 -98.68,-125.68 -197.52,-251.24 -296.24,-376.89 -5.11,0.02 -10.2,0.02 -15.29,0.03 -0.16,49.9 -0.7,99.78 -0.46,149.69 19.68,0 39.35,-0.02 59.01,0 0,75.74 0.02,151.47 0,227.2 -125.19,0.02 -250.38,0 -375.57,0.02 -0.04,-75.73 -0.02,-151.48 -0.02,-227.22 21.13,-0.03 42.27,0.04 63.42,-0.03 -0.03,-49.74 0,-99.5 -0.03,-149.23 -41.2,0 -82.41,-0.02 -123.62,0.01 -6.8,21.67 -18.04,41.97 -33.31,58.83 -9.93,10.58 -21.52,21.15 -36.28,23.9 -0.18,-17.79 -0.02,-35.58 -0.07,-53.37 -15.45,25.21 -37.68,47.77 -66.38,57 -25.98,8.94 -55.48,4.77 -78.73,-9.57 -26.99,-16.39 -46.08,-43.45 -57.31,-72.54 -5.57,3.54 -12.17,6.44 -18.94,5.14 -9.7,-1.64 -17.5,-8.84 -22.22,-17.17 -10.19,-17.88 -10.85,-40.6 -2.7,-59.37 4.58,-10.32 12.88,-20.26 24.55,-22.26 9.18,-1.94 17.74,3.32 24.2,9.3 65.82,-0.08 131.64,-0.06 197.46,0 0.19,-27.59 -0.04,-55.17 0.12,-82.75 12.43,2.26 22.65,10.38 31.53,18.92 17.64,17.68 30.61,39.87 38,63.68 41.24,0.23 82.47,0.06 123.7,0.09 0.09,-45.88 -0.13,-91.76 0.12,-137.64 -21.17,-0.35 -42.34,-0.07 -63.49,-0.16z"/>
   <path class="fil1" d="M539.45 420.01c92.22,0.02 184.46,-0.02 276.69,0.02 88.31,112 176.68,223.96 265.02,335.92 -8.19,0.02 -16.38,0.04 -24.57,-0.02 -83.13,-105.62 -166.42,-211.1 -249.75,-316.58 -82.69,0.07 -165.36,0 -248.03,0.03 -0.02,42.71 0,85.42 0,128.14 20.99,0.01 41.97,-0.02 62.94,0.01 0.02,156.16 0.02,312.31 0.02,468.46 -21.15,0.07 -42.29,-0.05 -63.44,0.05 0.07,41.83 0,83.65 0.04,125.46 91.42,0.01 182.87,0 274.29,0.01 0.02,-41.84 0.04,-83.67 0,-125.52 -19.07,0.02 -38.14,0.02 -57.2,0 0.32,-46.04 -0.65,-92.06 -0.46,-138.1 0.02,-40.54 -0.02,-81.09 0.02,-121.63 -0.9,-35.24 -0.28,-70.5 -0.46,-105.76 22.37,28.49 44.82,56.92 67.16,85.43 -8.16,0.04 -16.31,0.06 -24.45,0 -7.89,-10.11 -15.78,-20.18 -23.76,-30.2 -0.05,52.03 0,104.07 -0.02,156.1 -0.19,44.95 0.76,89.86 0.46,134.82 19.22,-0.02 38.45,-0.02 57.66,0 -0.01,54.74 0,109.48 0,164.22 -104.05,0 -208.1,-0.02 -312.16,0 -0.02,-54.74 -0.02,-109.48 -0.02,-164.24 21.14,0 42.27,0.02 63.41,0 0,-143.24 0,-286.5 0,-429.74 -21.14,-0.02 -42.27,0 -63.41,0 0,-55.62 0,-111.24 0.02,-166.88zm285.32 355.77l0 0c-0.01,6.91 -0.01,13.79 -0.01,20.7 106.11,0 212.23,0 318.32,0 0.02,-6.91 0.02,-13.79 0,-20.68 -106.09,-0.02 -212.21,-0.02 -318.31,-0.02zm-372.64 0.02l0 0c0.74,6.87 1.44,13.76 1.55,20.68 39.15,0 78.3,0 117.46,0 0,-6.91 0,-13.79 -0.02,-20.68 -39.67,-0.02 -79.33,-0.02 -118.99,0zm-301.74 18.6l0 0c-6.38,-8.37 0.3,-22.88 11.29,-21.77 3.91,-0.53 6.71,3.12 10.48,3.14 68.56,0.05 137.11,0 205.68,0.03 0,4.21 0,8.45 0,12.68 -4.44,2.26 -8.83,4.62 -13.27,6.89 -4.36,-2.2 -8.73,-4.39 -13.1,-6.59 -4.37,2.13 -8.65,4.44 -13,6.61 -4.31,-2.27 -8.68,-4.46 -13.05,-6.63 -4.24,2.17 -8.43,4.43 -12.66,6.61 -4.48,-2.18 -8.93,-4.42 -13.4,-6.61 -4.21,2.21 -8.41,4.48 -12.65,6.63 -4.44,-2.24 -8.89,-4.46 -13.32,-6.7 -4.19,2.33 -8.41,4.6 -12.73,6.68 -4.4,-2.24 -8.82,-4.44 -13.23,-6.64 -4.15,2.25 -8.33,4.49 -12.52,6.66 -4.47,-2.1 -8.89,-4.3 -13.19,-6.73 -4.24,2.32 -8.56,4.54 -12.89,6.69 -4.44,-2.11 -8.84,-4.33 -13.16,-6.69 -4.23,2.38 -8.54,4.58 -12.89,6.71 -4.3,-2.12 -8.54,-4.28 -12.74,-6.61 -0.03,2.84 -0.05,5.67 -0.08,8.51 -6.15,4.12 -15.29,3.66 -19.57,-2.87zm1241.49 -18.6l0 0c115.77,0.16 231.6,0.48 347.13,-7.73 -16.58,6.02 -34.09,8.91 -51.38,12.05 -46.81,7.73 -94.14,11.94 -141.5,14.39 -51.38,2.94 -102.82,1.72 -154.25,1.97 0,-6.91 0,-13.79 0,-20.68zm-995.04 -68.78l0 0c18.12,18.41 31.16,42.13 35.7,67.65 -7.66,-13.86 -20.29,-25.2 -35.75,-29.39 0,-12.75 -0.09,-25.5 0.05,-38.26zm711.04 -120.15l0 0c22.29,0.04 44.61,0 66.92,0.02 0.25,96.09 -0.51,192.2 0.44,288.28 -10.49,-12.93 -20.44,-26.31 -31.1,-39.12 -8.03,-0.97 -16.38,-0.08 -24.52,-0.38 24.82,31.52 49.67,63 74.52,94.47 0.06,-120.86 0.02,-241.73 0.04,-362.61 -22.32,-0.03 -44.61,-0.01 -66.91,0 -0.07,-42.85 0,-85.72 -0.04,-128.57 93.51,-0.03 187,-0.02 280.5,-0.02 0.02,42.84 0,85.67 0,128.49 -22.3,0.6 -44.61,0.95 -66.91,0.46 0.65,67.08 0.39,134.2 0.42,201.29 0.21,45.21 -0.77,90.39 -0.44,135.6 -0.3,43.73 0.64,87.5 -0.51,131.23 22.48,0 44.95,-0.02 67.44,0 -0.03,41.85 0.11,83.69 -0.07,125.54 -82.32,-0.09 -164.66,-0.07 -246.98,0 -85.46,-108.62 -170.86,-217.25 -256.26,-325.9 -8.14,0.03 -16.28,0 -24.41,0.03 90.58,115.05 180.89,230.32 271.62,345.28 91.81,-0.19 183.64,-0.05 275.46,-0.09 0.03,-54.74 0,-109.48 0.01,-164.22 -22.45,-0.03 -44.93,0 -67.38,-0.02 -0.32,-49.63 0.65,-99.24 0.46,-148.87 0,-93.47 -0.02,-186.96 0.01,-280.45 22.3,-0.05 44.6,-0.93 66.9,-0.86 0.01,-55.48 0.01,-110.96 0,-166.44 -106.38,0 -212.78,0.02 -319.18,0 -0.07,55.62 0,111.24 -0.03,166.86z"/>
   <path class="fil2" d="M481.75 362.33l362.43 0c68.78,86.78 137.05,173.98 205.93,260.66 0.19,-86.88 0.03,-173.78 0.09,-260.66l434.32 0c0.6,93.45 0.16,186.92 0.23,280.39 -22.12,0.92 -44.28,1.16 -66.4,1.43 -0.05,28.62 -0.16,57.24 0.05,85.86 101.77,-0.6 203.66,0 305.21,-7.7 59.04,-4.56 118.32,-9.21 176.39,-21.22l0 1.87c-6.06,7.98 -10.34,17.12 -16.27,25.16 -17.09,24.54 -40.81,43.74 -66.53,58.65 -46.26,26.65 -98.24,41.5 -150.25,52.15 -81.95,16.1 -165.66,21.54 -249.06,22.32 -0.03,32.55 -0.05,65.11 0,97.68 22.28,0.1 44.56,-0.05 66.86,0.07 0.11,92.89 0,185.79 0.04,278.68l-362.4 0c-44.97,-57.43 -90.16,-114.71 -135.19,-172.07 -25.82,-32.6 -51.19,-65.57 -77.29,-97.95 -0.4,90 -0.05,180.02 -0.17,270.02l-428.98 0c0.66,-5.3 0.67,-10.63 0.59,-15.95 -0.18,-87.49 0.14,-174.95 -0.16,-262.43 21.19,-0.95 42.41,0.17 63.61,-0.57 -0.23,-32.19 0.04,-64.41 -0.14,-96.6 -26.17,-0.09 -52.36,-0.02 -78.53,-0.02 -12.82,27.44 -30.05,53.98 -55.43,71.35 -17.21,12.08 -38.09,19.13 -59.21,18.53 -0.07,-6.59 -0.11,-13.16 -0.12,-19.73 -22.58,14.83 -49.78,23.06 -76.88,20.98 -31.09,-1.8 -60.45,-16.77 -82.24,-38.66 -12.68,-12.36 -22.8,-27.02 -31.49,-42.38 -12.52,-0.44 -25.01,-4.58 -34.45,-13.03 -15.43,-13.35 -23.09,-33.38 -26.31,-53.07l0 -23.56c4.33,-17.35 10.16,-35.31 23.6,-47.85 13.37,-13.6 34.56,-17.9 52.47,-12 5.11,1.68 9.51,4.88 14.49,6.87 5,0.93 10.15,0.37 15.22,0.46 48.54,-0.07 97.08,0.03 145.6,-0.05 0.09,-29.8 -0.03,-59.6 0.06,-89.41 18.74,-0.95 37.26,4.83 53.22,14.41 28.13,17.07 47.8,45.16 60.98,74.78 26.38,0.43 52.76,0.36 79.15,0.04 -0.25,-28.41 0.12,-56.82 -0.2,-85.23 -20.94,0.02 -41.86,0.07 -62.8,-0.01 -0.11,-94.07 -0.02,-188.14 -0.04,-282.21zm-287.28 473.79l0 0c11.87,16.45 27.06,30.86 45.32,39.95 21.33,10.74 46.78,13.3 69.66,6.22 25.08,-7.4 46.06,-25.08 60.97,-46.17 -58.65,-0.03 -117.3,-0.03 -175.95,0zm313.28 -217.97l0 0c21.15,0.09 42.32,-0.19 63.49,0.16 -0.25,45.88 -0.03,91.76 -0.12,137.64 -41.23,-0.03 -82.46,0.14 -123.7,-0.09 -7.39,-23.81 -20.36,-46 -38,-63.68 -8.88,-8.54 -19.1,-16.66 -31.53,-18.92 -0.16,27.58 0.07,55.16 -0.12,82.75 -65.82,-0.06 -131.64,-0.08 -197.46,0 -6.46,-5.98 -15.02,-11.24 -24.2,-9.3 -11.67,2 -19.97,11.94 -24.55,22.26 -8.15,18.77 -7.49,41.49 2.7,59.37 4.72,8.33 12.52,15.53 22.22,17.17 6.77,1.3 13.37,-1.6 18.94,-5.14 11.23,29.09 30.32,56.15 57.31,72.54 23.25,14.34 52.75,18.51 78.73,9.57 28.7,-9.23 50.93,-31.79 66.38,-57 0.05,17.79 -0.11,35.58 0.07,53.37 14.76,-2.75 26.35,-13.32 36.28,-23.9 15.27,-16.86 26.51,-37.16 33.31,-58.83 41.21,-0.03 82.42,-0.01 123.62,-0.01 0.03,49.73 0,99.49 0.03,149.23 -21.15,0.07 -42.29,0 -63.42,0.03 0,75.74 -0.02,151.49 0.02,227.22 125.19,-0.02 250.38,0 375.57,-0.02 0.02,-75.73 0,-151.46 0,-227.2 -19.66,-0.02 -39.33,0 -59.01,0 -0.24,-49.91 0.3,-99.79 0.46,-149.69 5.09,-0.01 10.18,-0.01 15.29,-0.03 98.72,125.65 197.56,251.21 296.24,376.89 107.35,0.1 214.7,0 322.05,0.05 0.03,-75.75 0.02,-151.48 0.02,-227.22 -22.32,-0.02 -44.62,0 -66.93,0 0.02,-49.88 -0.18,-99.76 0.46,-149.62 97.73,-2.09 196.34,-6.8 291.7,-30.08 55.12,-13.88 110.04,-34.31 155.02,-69.95 -77.9,13.77 -157.19,16.43 -236.09,18.75 -70.19,1.75 -140.41,1.55 -210.63,1.48 -0.02,-45.75 -0.02,-91.51 -0.02,-137.27 22.14,-0.62 44.26,-1.09 66.4,-1.36 0.19,-76.33 0.03,-152.68 0.09,-229.01 -127.43,0.03 -254.84,-0.11 -382.25,0.07 0.25,76.63 -0.25,153.28 0.25,229.91 22.22,-0.3 44.47,-0.05 66.71,-0.14 -0.31,45.95 0.62,91.87 0.44,137.8 -7.43,0.02 -14.86,0 -22.29,0.04 -96.78,-122.5 -193.44,-245.1 -290.13,-367.66 -107.79,-0.04 -215.56,-0.02 -323.35,-0.02 -0.04,76.61 -0.04,153.23 0,229.84z"/>
   <path class="fil3" d="M558.81 439.38c82.67,-0.03 165.34,0.04 248.03,-0.03 83.33,105.48 166.62,210.96 249.75,316.58 -71.63,0.06 -143.24,0.06 -214.87,0 -22.34,-28.51 -44.79,-56.94 -67.16,-85.43 0.18,35.26 -0.44,70.52 0.46,105.76 -0.04,40.54 0,81.09 -0.02,121.63 -0.19,46.04 0.78,92.06 0.46,138.1 19.06,0.02 38.13,0.02 57.2,0 0.04,41.85 0.02,83.68 0,125.52 -91.42,-0.01 -182.87,0 -274.29,-0.01 -0.04,-41.81 0.03,-83.63 -0.04,-125.46 21.15,-0.1 42.29,0.02 63.44,-0.05 0,-156.15 0,-312.3 -0.02,-468.46 -20.97,-0.03 -41.95,0 -62.94,-0.01 0,-42.72 -0.02,-85.43 0,-128.14zm568.42 -0.42l0 0c0.04,42.85 -0.03,85.72 0.04,128.57 22.3,-0.01 44.59,-0.03 66.91,0 -0.02,120.88 0.02,241.75 -0.04,362.61 -24.85,-31.47 -49.7,-62.95 -74.52,-94.47 -71.73,-0.02 -143.47,0.01 -215.2,-0.02 85.4,108.65 170.8,217.28 256.26,325.9 82.32,-0.07 164.66,-0.09 246.98,0 0.18,-41.85 0.04,-83.69 0.07,-125.54 -22.49,-0.02 -44.96,0 -67.44,0 1.15,-43.73 0.21,-87.5 0.51,-131.23 -0.33,-45.21 0.65,-90.39 0.44,-135.6 -0.03,-67.09 0.23,-134.21 -0.42,-201.29 22.3,0.49 44.61,0.14 66.91,-0.46 0,-42.82 0.02,-85.65 0,-128.49 -93.5,0 -186.99,-0.01 -280.5,0.02z"/>
  </g>
 </g>
</svg>
