<?xml version="1.0" encoding="UTF-8"?>
<!DOCTYPE svg PUBLIC "-//W3C//DTD SVG 1.1//EN" "http://www.w3.org/Graphics/SVG/1.1/DTD/svg11.dtd">
<!-- Creator: CorelDRAW -->
<svg xmlns="http://www.w3.org/2000/svg" xml:space="preserve" width="2000px" height="1600px" version="1.1" style="shape-rendering:geometricPrecision; text-rendering:geometricPrecision; image-rendering:optimizeQuality; fill-rule:evenodd; clip-rule:evenodd"
viewBox="0 0 2000 1600"
 xmlns:xlink="http://www.w3.org/1999/xlink">
 <defs>
  <style type="text/css">
   <![CDATA[
    .fil1 {fill:black}
    .fil0 {fill:#9DA2A2}
    .fil2 {fill:#B90C2E}
    .fil3 {fill:#FEFEFE}
   ]]>
  </style>
 </defs>
 <g id="Capa_x0020_1">
  <metadata id="CorelCorpID_0Corel-Layer"/>
  <g id="Northern_x0020_Illinois_x0020_Huskies.cdr">
   <path class="fil0" d="M1733.89 587.84c-0.45,-0.67 -45.39,-65.65 -62.27,-104.08l-5.48 -12.53 -249.93 -48.9 2.12 -3.58 -179.35 -225.71 -32.22 86.32c-14.12,-1.69 -29.61,-2.82 -46.69,-3.23 -9.06,-16.1 -25.25,-44.7 -42.12,-73.34 -12.95,-21.92 -26.26,-43.89 -37.15,-60.43 -5.86,-8.91 -11.08,-16.32 -15.23,-21.6 -2.22,-2.78 -4.75,-5.77 -7.42,-8.3 -7.19,-6.88 -14.34,-8.82 -18.86,-9.23 -33.68,-3.09 -78.41,20.52 -105.37,110.07 -18.54,-23.84 -42.05,-58.44 -62.16,-101.69 -26.71,-57.38 -71.55,-22.81 -88.61,-3.73 -5.19,5.81 -14.15,14.88 -24.57,28.46 -10.94,14.24 -23.26,33.09 -34.61,57.84 -21.65,47.26 -39.1,114.72 -37.6,210.66 -25.11,17.35 -83.63,61.28 -144.11,131.38 -75.94,88.08 -155.71,218.5 -174.82,389.9l-107.18 0 54.62 121.2 0 261.5 -53.29 116.61 134.43 0 -42.04 94.57 1214.37 0 -53.24 -96.35 137.77 1.78 -52.56 -122.52 0 -255.73 46.17 -121.06 -272.2 0c1.3,-25.67 6.37,-44.98 11.55,-58.45 3.24,-8.43 6.82,-15.08 9.49,-19.47l121.67 -21.14c60.88,-6.25 196.71,-47.97 221.29,-220.6l1.45 -10.18 -5.85 -8.44zm-1283.42 338.28l0 0c25.44,-24.1 49.94,-40.71 70.4,-51.96 -6.39,18.5 -10.6,36.02 -13.31,51.96l-57.09 0z"/>
   <path class="fil1" d="M1380.25 824.17l133.05 -23.12c54.72,-5.33 176.72,-42.03 198.99,-198.34 0,0 -46.62,-67.23 -64.73,-108.48l-272.88 -53.39 11.83 -19.99 -139.41 -175.45 -23.47 62.87c-21.93,-3.92 -47.92,-6.25 -79.13,-6.25 0,0 -95.29,-171.68 -107.76,-172.81 -18.1,-1.65 -66.23,11.54 -89.26,139.41 0,0 -56.88,-54.31 -99.56,-146 -11.51,-24.77 -26.82,-18.26 -45.51,2.65 -19.73,22.09 -96.76,92.87 -89.78,293.31 0,0 -294.21,192.42 -326.57,537.61l-79.43 0 38.12 84.58 0 274.56 -36.51 79.91 117.66 0 0 23.96 -26.88 70.62 1124.28 0 -38.4 -69.28 0 -25.3 122.18 0 -36.98 -86.17 0 -267.51 32.56 -85.37 -254.42 0c-5.31,-91.59 32.01,-132.01 32.01,-132.01l0 -0.01zm-716.87 93.65l0 0c-2.68,10.7 -4.67,23.86 -6.09,38.37l-59.92 0c34.69,-24.46 66.01,-38.37 66.01,-38.37zm-268.84 38.37l0 0c84.37,-99.91 177.07,-130.37 177.07,-130.37 -27.17,46.32 -38.59,93.51 -43.11,130.37l-133.96 0zm901.73 0l0 0c1.68,-14.96 2.83,-25.92 2.83,-25.92 7.17,9.08 21.23,18.87 32.57,25.92l-35.4 0z"/>
   <path class="fil2" d="M367.07 994.24l16.5 28 0 307.43 -13.84 28.27 133.15 0 -13.84 -28.27 0 -199.6 303.15 174.13 0 25.25 -11.14 28.49 127.05 0 -13.84 -28.27 0 -307.18 13.84 -28.27 -129.75 0 11.85 24.15 2.28 3.54 0 145.98 -304.53 -172.82 -120.88 -0.84 0 0.01zm566.81 0l0 0 11.81 24.14 2.28 3.54 -0.25 307.53 -11.18 28.49 127.08 0 -13.87 -28.27 0 -307.17 13.87 -28.27 -129.74 0 0 0.01zm156.87 0l0 0 13.36 27.69 -0.26 133.28 0 138.06 82.1 65.29 255.82 0 82.06 -65.29 -0.19 -271.35 13.36 -27.68 -130.16 0 13.87 28.26 0.06 223.01 -15.86 20.13 -31.62 10.01 -118.87 0 -31.62 -10.01 -15.86 -20.13 0.06 -60.69 0 -162.32 13.87 -28.27 -130.13 0 0.01 0.01z"/>
   <path class="fil0" d="M1014.9 834.27c-26.39,35.09 -43.46,68.51 -54.47,96.14 85.02,-22.44 167.36,-16.15 167.36,-16.15 -22.81,39.97 -29.38,49.32 -29.38,49.32l117.66 -2.96 48.49 -95.71 -90.99 35.56 57.72 -96.06 -88.13 9.58 52.22 -65.97c-52.88,3.56 -131.23,20.77 -180.48,86.25z"/>
   <path class="fil3" d="M807.58 215.14c0,0 -45.55,69.29 -44.11,178.01 0,0 52.17,-36.64 123.93,-56.28 0,0 -53.47,-37.93 -79.82,-121.73zm446.71 116.9l0 0 0.01 0c43.99,49.68 85.56,114.2 85.56,114.2l-18.62 26.43 244.33 52.77c-0.02,0 -68.06,56.9 1.41,95.43 0,0 -5.11,-48.96 29.8,-53.13 13.72,-1.62 26.8,20.29 31.14,33.07 1.58,4.65 14.64,-33.07 14.64,-33.07l23.94 49.62c0,0 -7.82,22.7 -23.83,51.54 -0.9,-24.95 -12.91,-44.17 -12.91,-44.17 -13.39,68.89 -84.61,103.71 -97.66,111.4l-336.36 11.49 -0.29 0.35c-52.87,3.57 -131.22,20.79 -180.48,86.29 -26.38,35.09 -43.47,68.5 -54.48,96.14 -36.39,9.58 -73.29,24.44 -104.44,47.29 0,0 23.18,-76.34 127.97,-175.98 0,0 -142.93,19.05 -254.22,121.73 0,0 1.72,-115.95 119.92,-195.55 0,0 -101.54,9.83 -143.23,33.19 0,0 46.56,-128.58 166.21,-167.87 0,0 -69.32,-24.48 -138.61,-4.28 0,0 66.11,-148.05 262.15,-87 -1.62,-4.63 -2.5,-9.54 -2.5,-14.61 0,-29.94 30.39,-54.22 67.87,-54.22 17.02,0 32.58,5.01 44.5,13.3 -4.99,-11.54 -33.43,-76.26 66.72,-89.41 34.32,-4.49 59.99,11.1 77.89,21.06l3.57 -46.01zm-115.37 66.48l0 0 15.84 53.77c-6.27,4.31 -11,9.94 -13.36,16.55 -7.03,19.66 9.41,40.67 36.7,46.91 26.26,6.01 53.03,-3.84 61.26,-22.12 41.05,13.06 71.56,54.09 71.56,54.09l-16.72 -65.68 -155.28 -83.52zm-339.08 609.13l0 0 6.01 10.31 0 155.27 14.29 8.09 0 -173.66 -20.3 0 0 -0.01zm155.53 0l0 0 6 10.31 -0.28 314.04 -4.88 12.52 85.91 0 -8.41 -14.33 -56.99 0 -0.03 -322.52 -21.32 0 0 -0.02zm157.9 0l0 0 6 10.28 -0.32 266.84 79.5 58.08 216.4 0 23.05 -15.07 -229.66 1.48 -71.8 -51.15 0.26 -270.44 -23.43 0 0 -0.02zm317.76 0l0 0 0 0.02 25.98 0 -0.07 235.37 -20.48 22.67 -14.9 4.73 15.44 -20.02 0.04 -232.46 -6.01 -10.31zm-1040.42 0.17l0 0 6.36 10.78 0 314.2 -5.75 11.72 90.16 0 -8.38 -14.32 -62.17 0 0.39 -322.25 -20.61 -0.13 0 0zm98.02 87.41l0 0 0 0.01 331.22 190.59 -0.07 44.36 58.4 0 8.41 14.33 -85.92 0 4.92 -12.53 0 -33.8 -316.96 -184.16 0 -18.8zm-25.75 303.98l0 0 4.17 7.44 0 50.22 -4.17 7.44 40.07 0 -4.17 -7.44 0 -18.61 1.67 -0.93 20.03 0 1.67 0.93 0 18.61 -4.17 7.44 40.03 0 -4.14 -7.44 0 -50.22 4.14 -7.44 -40.03 0 4.17 7.44 0 13.94 -1.67 0.93 -20.03 0 -1.67 -0.93 0 -13.94 4.17 -7.44 -40.07 0zm166.22 0l0 0 4.17 7.44 0 40.91 -1.67 4.64 21.7 12.11 49.22 0 21.71 -12.11 -1.67 -4.64 0 -40.91 4.17 -7.44 -38.37 0 4.18 7.44 0 36.73 -3.37 3.73 -6.65 1.84 -6.68 0 -6.68 -1.84 -3.34 -3.73 0 -36.73 4.18 -7.44 -40.91 0 0.01 0zm188.69 0l0 0 -21.7 12.07 0 15.36 15.02 8.37 25.88 3.25 4.18 2.32 0 3.73 -2.51 2.8 -5 1.39 -23.86 0 -17.53 -3.29 11.37 19.1 49.21 0 21.71 -12.12 0 -18.12 -15.87 -8.83 -25.88 -3.25 -3.34 -1.86 0 -1.87 2.51 -2.8 5.01 -1.39 23.69 0 14.36 2.8 -10.51 -17.67 -46.74 0 0 0.01zm127.85 0l0 0 4.18 7.44 0 50.22 -4.18 7.44 40.04 0 -4.17 -7.44 0 -17.22 1.67 -1.84 8.34 -4.67 2.51 0 13.83 22.8 1.7 8.37 41.71 0 -9.34 -8.86 -23.69 -36.25 32.55 -18.12 -3.37 -1.87 -35.86 0 -3.34 5.57 -24.21 13.49 -2.5 1.87 0 -13.49 4.17 -7.44 -40.04 0zm167.02 0l0 0 4.17 7.44 0 50.22 -4.17 7.44 40.9 0 -4.17 -7.44 0 -50.22 4.17 -7.44 -40.9 0zm114.49 0l0 0 4.18 7.44 0 50.22 -4.18 7.44 72.6 0 11.36 -19.06 -17.53 3.25 -28.03 0 -2.5 -1.42 0 -8.82 1.67 -0.93 10.82 0 12.52 2.32 0 -19.51 -12.52 2.31 -10.82 0 -1.67 -0.93 0 -6.5 1.32 -0.94 28.7 0 14.7 2.8 -10.53 -17.67 -70.09 0zm167.02 0l0 0 -21.7 12.07 0 15.36 15.02 8.37 25.88 3.25 4.14 2.32 0 3.73 -2.5 2.8 -4.98 1.39 -23.89 0 -17.53 -3.29 11.37 19.1 49.25 0 21.67 -12.11 0 -18.13 -15.86 -8.82 -25.84 -3.25 -3.34 -1.86 0 -1.87 2.5 -2.81 5.01 -1.38 23.67 0 14.38 2.8 -10.53 -17.67 -46.72 0 0 0z"/>
  </g>
 </g>
</svg>
