<?xml version="1.0" encoding="UTF-8"?>
<!DOCTYPE svg PUBLIC "-//W3C//DTD SVG 1.1//EN" "http://www.w3.org/Graphics/SVG/1.1/DTD/svg11.dtd">
<!-- Creator: CorelDRAW -->
<svg xmlns="http://www.w3.org/2000/svg" xml:space="preserve" width="2000px" height="1600px" version="1.1" style="shape-rendering:geometricPrecision; text-rendering:geometricPrecision; image-rendering:optimizeQuality; fill-rule:evenodd; clip-rule:evenodd"
viewBox="0 0 2000 1600"
 xmlns:xlink="http://www.w3.org/1999/xlink">
 <defs>
  <style type="text/css">
   <![CDATA[
    .fil1 {fill:black}
    .fil2 {fill:#FDC42B}
    .fil0 {fill:#FEFEFE}
   ]]>
  </style>
 </defs>
 <g id="Capa_x0020_1">
  <metadata id="CorelCorpID_0Corel-Layer"/>
  <g id="Northern_x0020_Kentucky_x0020_Norse.cdr">
   <path class="fil0" d="M929.16 431.25c39.12,0.03 78.26,-0.07 117.39,0.05 8.04,6.28 16.15,12.47 24.32,18.59 1.5,31.71 2.86,63.42 4.11,95.15 -10.38,3.93 -20.54,8.36 -30.85,12.42 16.81,30.12 33.94,60.04 50.85,90.1 -20.25,-6.54 -41.15,-11.21 -62.4,-12.68 -10.94,-20.31 -22.11,-40.51 -32.97,-60.87 -10.67,3.96 -21.35,7.96 -32.07,11.75 -0.32,16.38 -0.79,32.75 -1.17,49.13 -15.56,1.32 -30.91,4.28 -46.02,8.12 3.07,-70.58 5.69,-141.18 8.81,-211.76zm494.71 598.27l0 0c7.24,-1.5 14.45,-3.22 21.71,-4.77 11.25,54.66 6.08,112.46 -14.2,164.41 -14.74,38.35 -37.65,74.02 -68.8,101.06 -4.72,-6.52 -9.75,-12.79 -14.16,-19.52 19.77,-22.32 35.18,-48.26 47.3,-75.41 23.3,-51.66 33.96,-109.26 28.15,-165.77zm-872.19 109.47l0 0c-7.34,-37.6 -7.54,-76.77 0.49,-114.27 7.18,1.71 14.39,3.25 21.62,4.83 -7.08,66.94 9.45,135.18 42.1,193.67 9.46,16.96 20.56,33.03 33.35,47.65 -4.56,6.55 -9.49,12.8 -14.09,19.32 -44.63,-38.48 -71.89,-94.06 -83.47,-151.2zm882.25 -476.31l0 0c10.33,33.97 7.97,71.95 -7.63,103.98 -23.4,44.23 -62.5,79.5 -107.59,100.75 -7.86,-21.11 -18.75,-40.91 -30.17,-60.28 49.44,-17.59 96.06,-48.34 124.36,-93.39 9.96,-15.62 16.83,-33.04 21.03,-51.06zm-870.9 2.94l0 0c0.78,-1.39 1.57,-2.78 2.38,-4.15 6.91,34.62 26.49,65.74 51.97,89.78 27.2,25.83 60.67,44.56 96.02,56.72 -12.09,19.22 -22.29,39.6 -31.1,60.52 -41.87,-19.85 -78.39,-51.36 -103.17,-90.6 -20.89,-33.48 -24.86,-75.65 -14.7,-113.4l-1.4 1.13zm934.16 -71.92l0 0c8.65,31.16 16.77,62.48 25.1,93.73 -13.73,8.16 -27.46,16.33 -41.22,24.43 -5.1,-19.66 -11.05,-39.68 -23.03,-56.38 10.15,-4.78 20.79,-8.74 30.59,-14.13 3.2,-15.81 5.43,-31.81 8.56,-47.65zm-198.47 -162.49l0 0c17.87,100.99 35.64,201.98 53.68,302.94 20.82,-17.6 38.7,-39.26 49.44,-64.49 -6.38,-30.52 -12.06,-61.2 -19.12,-91.57 18.6,-0.13 37.17,-1.07 55.77,-1.27 8.64,6.48 17.01,13.34 25.87,19.55 -5.48,-21.66 -11.04,-43.3 -16.62,-64.93 -24.69,0.09 -49.38,0.02 -74.08,0.04 -4.02,-19.21 -7.77,-38.48 -11.88,-57.68 24.77,-0.18 49.53,0.01 74.3,-0.1 12.27,9.22 24.32,18.74 36.56,28 -5.72,-23.53 -11.91,-46.94 -17.77,-70.45 -52.05,-0.02 -104.09,0.05 -156.15,-0.04zm-185.25 22.05l0 0c1.72,29.3 4.01,58.6 5.89,87.9 -0.46,2.58 2.49,2.96 4.19,3.75 32.75,12.52 65.44,25.24 98.16,37.85 2.95,26.58 6.15,53.14 9.12,79.74 -22.78,-15.22 -46.61,-29.02 -71.74,-40 -3.02,-1.53 -6.81,-2.13 -8.87,-5.03 -9.14,-11.71 -17.99,-23.66 -27.31,-35.23 1.52,25.76 3.41,51.48 5.03,77.24 47.35,20.74 90.48,51.97 123.33,92.01 13.1,-24.76 26.37,-49.44 39.53,-74.19 -7.02,-44.35 -13.36,-88.87 -20.92,-133.1 -35.35,-12.67 -70.98,-24.72 -106.4,-37.22 -1.24,-11.92 -2.72,-23.8 -3.98,-35.69 24.85,-0.1 49.7,0.05 74.55,-0.08 10.05,10.57 19.86,21.35 29.89,31.94 -3.48,-23.86 -7.22,-47.68 -10.82,-71.51 -36.92,0.05 -73.83,0.02 -110.74,0.02 -9.54,7.29 -19.97,13.69 -28.91,21.6zm-370.53 -1.6l0 0c-11.62,75.31 -22.97,150.66 -34.5,226 13.03,24.63 26.3,49.13 39.26,73.82 33.6,-39.27 75.29,-72.7 123.62,-91.89 4.35,-69.61 9.5,-139.17 13.89,-208.76 -9.32,-6.3 -18.27,-13.15 -27.49,-19.6 -29.37,0.03 -58.74,0.02 -88.1,0.02 -8.75,6.97 -18.48,12.85 -26.68,20.41zm46.87 19.58l0 0c16.83,0.03 33.68,0.02 50.5,0 -5.36,52.55 -10.84,105.08 -16.11,157.63 -20.89,9.16 -39.95,21.96 -58.08,35.67 7.88,-64.44 15.77,-128.87 23.69,-193.3zm-243.3 -40.01l0 0c-23.18,85.33 -46.54,170.62 -69.82,255.93 13.76,8.39 27.75,16.39 41.59,24.64 5.4,-21.11 14.24,-41.37 26.29,-59.53 2.51,-3.6 2.92,-8.09 4.09,-12.21 8.73,-34.47 17.39,-68.94 25.89,-103.45 7.26,39.98 13.94,80.07 20.97,120.11 1.18,6.04 1.47,12.41 4.27,18.02 11.14,23.48 28.38,43.62 48.19,60.24 17.9,-101.22 35.68,-202.48 53.56,-303.7 -20.33,-0.05 -40.65,-0.07 -60.98,0.02 0.81,7.32 3.32,14.53 3.25,21.89 -6.52,32.16 -12.95,64.31 -19.6,96.44 -7.05,-39.5 -14.34,-78.95 -21.58,-118.42 -18.71,0.07 -37.41,0.04 -56.12,0.02zm423.06 42.48l0 0c-0.56,21.24 -0.86,42.49 -0.86,63.74 20.71,-7.01 41.54,-13.66 62.27,-20.62 0.13,-14.37 -0.17,-28.74 -0.45,-43.12 -20.33,0.02 -40.63,0.04 -60.96,0z"/>
   <path class="fil1" d="M712.87 252.23l574.12 0c-3.99,11.98 -8.46,23.84 -11.61,36.05 5.97,35.89 12.79,71.64 19.04,107.49 76.85,0.02 153.7,-0.01 230.56,0.02 -9.72,21 -19.65,41.91 -29.42,62.91 22.83,76.36 45.65,152.72 68.39,229.11 75.2,0.01 150.4,-0.02 225.62,0.01 36.79,-0.81 73.62,-0.31 110.43,-0.38 -57.63,51.93 -115.41,103.67 -173.09,155.52 -24.29,21.47 -47.95,43.68 -72.56,64.71 -49.29,15.15 -99.02,29.06 -148.45,43.74 -49.82,14.5 -99.57,29.24 -149.41,43.63 4.68,30.7 6.78,61.88 5.21,92.94 12,5.47 24.19,10.51 36.33,15.64 4.74,-18.53 6.65,-37.69 6.24,-56.78 -5.59,-2.69 -11.2,-5.29 -16.81,-7.9 -0.68,-5.49 -1.41,-10.99 -2.13,-16.47 25.26,-5.41 50.49,-10.93 75.74,-16.36 12.1,35.9 15.76,74.26 14.19,111.96 8.57,2.47 17,5.43 25.26,8.79 9.57,4.21 15.71,13.91 17.28,24.06 8.41,-7.81 20.99,-11.02 31.84,-6.67 9.8,3.98 21.35,5.65 28.69,13.96 4.29,4.39 6.49,10.28 7.71,16.2 7.59,-6.45 17.98,-9.58 27.77,-7.01 7.88,2.38 15.61,5.33 23.29,8.32 5.93,-5.07 10.99,-11.11 17.21,-15.83 3.6,-2.83 7.94,-0.39 11.65,0.86 10.1,3.95 20.51,7.11 30.56,11.22 3.59,1.35 3.96,5.76 3.94,9.08 -0.1,11.28 -1.42,22.53 -2.92,33.72 15.97,10.25 24.44,29.34 23.63,48.03 3.59,3.23 7.19,6.5 10.84,9.73 -2.11,6.54 -4.49,12.99 -6.67,19.51 -6.1,1.13 -14.42,-1.8 -18.13,4.71 -10.54,13.07 -27.88,20.12 -44.56,18.12 -4.68,7.82 -9.49,15.56 -14.82,22.97 -2.87,3.84 -5.5,8.53 -10.43,9.93l-1.95 0c-11.97,-4.37 -24.02,-8.63 -35.95,-13.12 -3.07,-0.89 -4.82,-3.97 -5.08,-6.99 -0.66,-5.74 -0.78,-11.52 -1.32,-17.26 -8.88,-2.52 -17.62,-5.58 -26.12,-9.12 -9.19,-4.01 -14.9,-13.22 -16.83,-22.77 -8.34,7.24 -20.44,10.06 -30.87,5.94 -9.81,-3.96 -21.3,-5.65 -28.7,-13.83 -4.67,-4.7 -6.9,-11.1 -8.14,-17.46 -7.57,7.03 -18.64,10.7 -28.77,7.68 -8.85,-2.84 -17.66,-5.86 -26.09,-9.74 -12.78,16.81 -25.92,33.58 -42.15,47.25 -8.6,7.43 -17.23,14.81 -26.27,21.69 -17.7,-22.28 -35.62,-44.4 -53.18,-66.81 4.52,-3.43 9.01,-6.9 13.47,-10.4 6.18,1.75 12.39,3.45 18.57,5.22 9.66,-11.81 17.87,-24.83 23.58,-39 -64.51,-19.31 -129,-38.71 -193.55,-57.9 -3.91,-1.01 -7.8,-2.9 -11.91,-2.38 -54.68,8.07 -109.97,12.33 -165.24,12.03 -50.7,-0.58 -101.34,-4.95 -151.58,-11.65 -24.99,6.6 -49.64,14.61 -74.46,21.85 -42.38,12.64 -84.72,25.42 -127.11,38.05 5.42,14.28 13.95,27.1 23.48,38.95 6.17,-1.62 12.33,-3.38 18.45,-5.23 4.67,3.43 9.24,7.01 13.78,10.63 -17.77,22.19 -35.48,44.44 -53.25,66.64 -26.97,-18.39 -49.12,-42.87 -68.44,-68.97 -7.85,3.84 -16.25,6.4 -24.46,9.34 -10.55,3.61 -22.59,0.36 -30.43,-7.38 -1.14,6.63 -3.55,13.25 -8.43,18.09 -7.55,7.67 -18.68,9.42 -28.28,13.38 -10.49,4.09 -22.52,1.22 -30.97,-5.94 -1.5,7.04 -4.68,13.94 -10.34,18.59 -5.08,4.55 -11.83,6.24 -18.05,8.55 -4.95,1.85 -9.93,3.61 -15.1,4.8 -0.25,6.35 -0.13,12.75 -0.92,19.09 -0.61,4.04 -5.05,5.13 -8.27,6.42 -10.94,3.81 -21.74,7.95 -32.68,11.76l-2.49 0c-5.55,-2.76 -8.55,-8.42 -12.05,-13.2 -4.49,-6.24 -8.23,-12.95 -12.46,-19.34 -18.53,1.54 -37.3,-6.98 -47.91,-22.32 -4.92,-0.36 -9.85,-0.54 -14.77,-0.87 -2.32,-6.44 -4.58,-12.91 -6.83,-19.36 3.78,-3.4 7.53,-6.81 11.22,-10.26 -1.37,-18.61 7.66,-37.45 23.3,-47.72 -1.62,-11.64 -2.84,-23.36 -3,-35.1 -0.15,-3.8 2.03,-7.56 5.85,-8.44 11.22,-4.04 22.43,-8.15 33.68,-12.07 3.6,-1.72 7.24,0.77 9.78,3.2 4.62,4.49 9.26,8.97 13.98,13.38 11.46,-3.55 22.6,-10.51 35.04,-8.83 6.04,0.56 11.37,3.81 16.01,7.51 2.06,-10.86 9.45,-20.86 20.22,-24.26 10.18,-3.11 20.13,-9.2 31.15,-7.5 6.55,0.77 12.39,4.22 17.23,8.59 1.14,-10.92 8.36,-21.21 18.81,-25.04 7.74,-2.92 15.49,-5.83 23.44,-8.09 -2.06,-37.71 2.15,-75.99 14.18,-111.91 25.29,5.33 50.55,10.89 75.81,16.37 -1.04,5.39 -0.54,11.3 -2.72,16.36 -4.99,3.15 -10.56,5.18 -15.88,7.68 -2.26,19.18 0.93,38.62 6.08,57.1 11.99,-5.15 23.95,-10.35 36,-15.38 -1.19,-31.12 0.62,-62.36 5.38,-93.15 -98.45,-28.83 -196.9,-57.6 -295.35,-86.42 -1.95,-0.5 -3.68,-1.52 -5.12,-2.91 -80.75,-72.64 -161.66,-145.12 -242.42,-217.77l0 -0.62c36.33,0.19 72.66,-0.45 108.97,0.42 75.26,-0.03 150.51,0 225.76,-0.01 22.85,-76.44 45.87,-152.82 68.67,-229.26 -9.85,-20.92 -19.66,-41.82 -29.42,-62.78 76.99,0 153.96,0 230.94,0 6.29,-35.26 12.82,-70.46 19.11,-105.72 0.66,-3.09 -0.89,-6.04 -1.65,-8.95 -3.32,-9.58 -6.16,-19.32 -9.51,-28.87zm256.7 221.48l0 0c-0.56,21.24 -0.86,42.49 -0.86,63.74 20.71,-7.01 41.54,-13.66 62.27,-20.62 0.13,-14.37 -0.17,-28.74 -0.45,-43.12 -20.33,0.02 -40.63,0.04 -60.96,0zm-179.76 -2.47l0 0c-7.92,64.43 -15.81,128.86 -23.69,193.3 18.13,-13.71 37.19,-26.51 58.08,-35.67 5.27,-52.55 10.75,-105.08 16.11,-157.63 -16.82,0.02 -33.67,0.03 -50.5,0zm-22.75 -182.68l0 0c-5.51,36.3 -11.09,72.58 -16.67,108.86 14.36,0 28.71,0 43.07,0 2.52,-19.28 5.03,-38.57 7.49,-57.88 11.2,19.27 22.6,38.45 33.7,57.77 18.29,0.18 36.58,0.2 54.88,0 2.23,-36.27 4.92,-72.5 7.05,-108.77 -16.34,0 -32.67,-0.04 -49.01,0.02 3.07,4.59 6.13,9.16 9.14,13.76 -1.13,15.59 -3.07,31.14 -3.96,46.76 -12.35,-20.19 -25.11,-40.14 -37.3,-60.42 -16.12,-0.26 -32.26,-0.1 -48.39,-0.1zm162.78 108.86l0 0c13.21,0 26.43,0 39.66,0 0,-4.9 0,-9.78 -0.03,-14.66 9.04,-8.25 18.05,-16.55 27.26,-24.61 8.46,13.17 17.07,26.24 25.73,39.27 19.46,-0.06 38.92,0.13 58.38,-0.1 -18.38,-21.82 -36.93,-43.52 -55.41,-65.27 15.78,-14.6 31.96,-28.77 47.69,-43.46 -18.63,-0.05 -37.28,-0.23 -55.9,0.07 -4,2.33 -6.54,6.57 -9.9,9.69 -12.69,12.4 -24.68,25.45 -37.39,37.81 -0.16,-15.89 0.73,-31.74 0.4,-47.63 -11.95,0 -23.88,0 -35.81,0 -1.55,36.3 -3.07,72.59 -4.68,108.89zm172.81 -108.88l0 0c2.16,36.3 4.92,72.58 7.19,108.88 46.18,0 92.36,0 138.56,0 -5.49,-36.3 -11,-72.59 -16.5,-108.89 -16.18,0 -32.37,0 -48.55,0 3.16,6.2 7.34,11.86 10.26,18.16 2.66,18.37 4.59,36.85 6.99,55.24 -18.01,0.02 -36.03,0.07 -54.05,-0.01 -1.46,-18.47 -3.82,-36.86 -4.96,-55.32 2.22,-6.27 5.75,-11.98 8.46,-18.04 -15.81,-0.06 -31.59,-0.03 -47.4,-0.02zm-173.49 142.71l0 0c-3.12,70.58 -5.74,141.18 -8.81,211.76 15.11,-3.84 30.46,-6.8 46.02,-8.12 0.38,-16.38 0.85,-32.75 1.17,-49.13 10.72,-3.79 21.4,-7.79 32.07,-11.75 10.86,20.36 22.03,40.56 32.97,60.87 21.25,1.47 42.15,6.14 62.4,12.68 -16.91,-30.06 -34.04,-59.98 -50.85,-90.1 10.31,-4.06 20.47,-8.49 30.85,-12.42 -1.25,-31.73 -2.61,-63.44 -4.11,-95.15 -8.17,-6.12 -16.28,-12.31 -24.32,-18.59 -39.13,-0.12 -78.27,-0.02 -117.39,-0.05zm-382.65 -0.02l0 0c-23.18,85.33 -46.54,170.62 -69.82,255.93 13.76,8.39 27.75,16.39 41.59,24.64 5.4,-21.11 14.24,-41.37 26.29,-59.53 2.51,-3.6 2.92,-8.09 4.09,-12.21 8.73,-34.47 17.39,-68.94 25.89,-103.45 7.26,39.98 13.94,80.07 20.97,120.11 1.18,6.04 1.47,12.41 4.27,18.02 11.14,23.48 28.38,43.62 48.19,60.24 17.9,-101.22 35.68,-202.48 53.56,-303.7 -20.33,-0.05 -40.65,-0.07 -60.98,0.02 0.81,7.32 3.32,14.53 3.25,21.89 -6.52,32.16 -12.95,64.31 -19.6,96.44 -7.05,-39.5 -14.34,-78.95 -21.58,-118.42 -18.71,0.07 -37.41,0.04 -56.12,0.02zm196.43 20.43l0 0c-11.62,75.31 -22.97,150.66 -34.5,226 13.03,24.63 26.3,49.13 39.26,73.82 33.6,-39.27 75.29,-72.7 123.62,-91.89 4.35,-69.61 9.5,-139.17 13.89,-208.76 -9.32,-6.3 -18.27,-13.15 -27.49,-19.6 -29.37,0.03 -58.74,0.02 -88.1,0.02 -8.75,6.97 -18.48,12.85 -26.68,20.41zm370.53 1.6l0 0c1.72,29.3 4.01,58.6 5.89,87.9 -0.46,2.58 2.49,2.96 4.19,3.75 32.75,12.52 65.44,25.24 98.16,37.85 2.95,26.58 6.15,53.14 9.12,79.74 -22.78,-15.22 -46.61,-29.02 -71.74,-40 -3.02,-1.53 -6.81,-2.13 -8.87,-5.03 -9.14,-11.71 -17.99,-23.66 -27.31,-35.23 1.52,25.76 3.41,51.48 5.03,77.24 47.35,20.74 90.48,51.97 123.33,92.01 13.1,-24.76 26.37,-49.44 39.53,-74.19 -7.02,-44.35 -13.36,-88.87 -20.92,-133.1 -35.35,-12.67 -70.98,-24.72 -106.4,-37.22 -1.24,-11.92 -2.72,-23.8 -3.98,-35.69 24.85,-0.1 49.7,0.05 74.55,-0.08 10.05,10.57 19.86,21.35 29.89,31.94 -3.48,-23.86 -7.22,-47.68 -10.82,-71.51 -36.92,0.05 -73.83,0.02 -110.74,0.02 -9.54,7.29 -19.97,13.69 -28.91,21.6zm185.25 -22.05l0 0c17.87,100.99 35.64,201.98 53.68,302.94 20.82,-17.6 38.7,-39.26 49.44,-64.49 -6.38,-30.52 -12.06,-61.2 -19.12,-91.57 18.6,-0.13 37.17,-1.07 55.77,-1.27 8.64,6.48 17.01,13.34 25.87,19.55 -5.48,-21.66 -11.04,-43.3 -16.62,-64.93 -24.69,0.09 -49.38,0.02 -74.08,0.04 -4.02,-19.21 -7.77,-38.48 -11.88,-57.68 24.77,-0.18 49.53,0.01 74.3,-0.1 12.27,9.22 24.32,18.74 36.56,28 -5.72,-23.53 -11.91,-46.94 -17.77,-70.45 -52.05,-0.02 -104.09,0.05 -156.15,-0.04zm198.47 162.49l0 0c-3.13,15.84 -5.36,31.84 -8.56,47.65 -9.8,5.39 -20.44,9.35 -30.59,14.13 11.98,16.7 17.93,36.72 23.03,56.38 13.76,-8.1 27.49,-16.27 41.22,-24.43 -8.33,-31.25 -16.45,-62.57 -25.1,-93.73zm-542.57 69.69l0 0c-9.24,31.21 -14.88,63.37 -19.12,95.61 -8.7,67.55 -10.53,135.8 -8.48,203.8 47.78,2.36 95.66,2.06 143.46,0.24 2.59,-70.43 0.29,-141.16 -9.11,-211.05 -4.31,-29.87 -9.46,-59.76 -18.35,-88.65 -28.53,-8.93 -59.76,-8.14 -88.4,0.05zm-391.59 2.23l0 0c-8.46,11.71 -12.21,26.25 -14.3,40.39 -4.28,36.37 6.81,72.86 24.12,104.55 22.68,38.33 59.18,66.59 98.13,87.05 3.47,-9.82 7.16,-19.57 11.32,-29.12 8.81,-20.92 19.01,-41.3 31.1,-60.52 -35.35,-12.16 -68.82,-30.89 -96.02,-56.72 -25.48,-24.04 -45.06,-55.16 -51.97,-89.78 -0.81,1.37 -1.6,2.76 -2.38,4.15zm870.46 -4.54l0 0c0.11,0.39 0.33,1.19 0.44,1.6 -4.2,18.02 -11.07,35.44 -21.03,51.06 -28.3,45.05 -74.92,75.8 -124.36,93.39 11.42,19.37 22.31,39.17 30.17,60.28 3.81,9.72 7.73,19.39 11.18,29.24 37.95,-19.86 73.26,-47.5 95.63,-84.57 13.15,-23.46 22.46,-49.38 25.29,-76.23 2.35,-25.79 -1.63,-53.49 -17.32,-74.77zm-622.13 89.72l0 0c-53.48,47.5 -88.14,115.28 -96.06,186.31 57.27,14.25 116.24,20.13 175.02,24.05 -1.76,-51.05 0.32,-102.29 6.31,-153.06 4.86,-39.99 12.12,-79.82 23.97,-118.36 -40.34,11.93 -77.96,32.91 -109.24,61.06zm265.72 -61.38l0 0c5.42,17.48 9.79,35.25 13.54,53.16 14.6,71.86 18.99,145.52 17.04,218.73 59.12,-4.07 118.45,-9.82 176.07,-24.24 -6.16,-53.68 -27.21,-105.61 -60.52,-148.19 -36.68,-47.35 -88.47,-82.97 -146.13,-99.46zm400.89 74.38l0 0c-7.18,35.71 -26.31,68.16 -51.41,94.23 131.12,-47.04 262.12,-94.38 393.16,-141.65 -49.12,-0.46 -98.26,0.43 -147.34,-0.54 -40.19,0.03 -80.37,-0.02 -120.54,0.03 -24.14,16.7 -49.35,31.81 -73.87,47.93zm-1287.54 -44.83l0 0c1.22,0.6 3.65,1.75 4.87,2.35 124.91,45.04 249.73,90.36 374.66,135.37 -23.25,-24.68 -41.36,-54.81 -48.99,-88.05 -0.71,-2.36 -0.76,-5.42 -3.43,-6.47 -19.14,-12.23 -38.23,-24.54 -57.37,-36.78 -3.86,-2.08 -7.55,-4.98 -11.96,-5.76 -31.35,0.04 -62.69,-0.76 -94.06,-0.48 -54.58,0.35 -109.14,-1.03 -163.72,-0.18zm496.05 237.7l0 0c-7.12,32.48 -12.69,65.62 -11.41,98.98 0.5,2.25 -0.67,5.94 2.28,6.85 36.93,17.85 77.23,27.22 117.38,34.63 70.15,12.38 141.54,16.37 212.7,16.37 78.88,-0.94 158.21,-6.4 235.26,-24.21 27.62,-6.84 55.54,-14.42 80.75,-27.86 2.13,-34.58 -3.38,-69.13 -10.48,-102.91 -39.5,13.86 -80.96,20.92 -122.34,26.37 -73.9,9.22 -148.51,11.91 -222.9,10.64 -60.68,-1.35 -121.42,-5.25 -181.44,-14.5 -33.84,-5.38 -67.68,-12.21 -99.8,-24.36zm-134.8 182.32l0 0c11.58,57.14 38.84,112.72 83.47,151.2 4.6,-6.52 9.53,-12.77 14.09,-19.32 -12.79,-14.62 -23.89,-30.69 -33.35,-47.65 -32.65,-58.49 -49.18,-126.73 -42.1,-193.67 -7.23,-1.58 -14.44,-3.12 -21.62,-4.83 -8.03,37.5 -7.83,76.67 -0.49,114.27zm872.19 -109.47l0 0c5.81,56.51 -4.85,114.11 -28.15,165.77 -12.12,27.15 -27.53,53.09 -47.3,75.41 4.41,6.73 9.44,13 14.16,19.52 31.15,-27.04 54.06,-62.71 68.8,-101.06 20.28,-51.95 25.45,-109.75 14.2,-164.41 -7.26,1.55 -14.47,3.27 -21.71,4.77zm-81.89 71.92l0 0c-16.81,5.71 -33.87,10.64 -51.06,15.05 1.29,1.3 2.87,2.16 4.64,2.7 30.54,10.81 60.88,22.19 91.48,32.85 3.25,-9.63 7.33,-19.58 8.01,-29.66 -15.02,-6.85 -30.41,-12.86 -45.48,-19.57 -2.42,-0.91 -4.99,-2.73 -7.59,-1.37zm-698.12 3.1l0 0c-13.6,6.05 -27.46,11.53 -41.02,17.67l-0.44 0.97c1.74,9.9 4.44,19.75 8.54,28.98 31.06,-11.6 62.52,-22.11 93.42,-34.07 -17.29,-4.64 -34.58,-9.31 -51.48,-15.23 -3.13,-1.59 -6.17,0.57 -9.02,1.68zm1017.53 67.3l0 0c-2,28.63 -10.05,56.39 -19.19,83.45 -8.43,23.86 -17.68,47.72 -31.43,69.08 8.19,2.84 16.15,6.37 24.55,8.63 16.47,-26.73 27.19,-56.46 36.75,-86.24 6.5,-21.61 12.4,-43.69 13.41,-66.34 -8.07,-2.8 -16.1,-5.64 -24.09,-8.58zm-1349.16 8.6l0 0c0.97,25.12 8.1,49.48 15.54,73.32 9.21,27.4 19.25,54.89 34.81,79.42 8.14,-2.78 16.17,-5.89 24.27,-8.76 -13.49,-20.95 -22.57,-44.31 -30.93,-67.68 -9.42,-27.48 -17.56,-55.75 -19.74,-84.85 -7.97,2.87 -15.95,5.73 -23.95,8.55zm-18.89 100.74l0 0c4.9,-7.64 11.3,-14.3 19.3,-18.71 -3.56,-10.48 -5.81,-21.32 -7.9,-32.16 -17.59,9.8 -19.52,34.22 -11.4,50.87zm1399.47 -50.93l0 0c-1.82,10.89 -4.29,21.69 -7.84,32.19 8.03,4.48 14.5,11.12 19.38,18.87 7.92,-16.81 6.19,-41.23 -11.54,-51.06z"/>
   <path class="fil2" d="M767.06 288.56c16.13,0 32.27,-0.16 48.39,0.1 12.19,20.28 24.95,40.23 37.3,60.42 0.89,-15.62 2.83,-31.17 3.96,-46.76 -3.01,-4.6 -6.07,-9.17 -9.14,-13.76 16.34,-0.06 32.67,-0.02 49.01,-0.02 -2.13,36.27 -4.82,72.5 -7.05,108.77 -18.3,0.2 -36.59,0.18 -54.88,0 -11.1,-19.32 -22.5,-38.5 -33.7,-57.77 -2.46,19.31 -4.97,38.6 -7.49,57.88 -14.36,0 -28.71,0 -43.07,0 5.58,-36.28 11.16,-72.56 16.67,-108.86zm925.75 941.69l0 0c17.73,9.83 19.46,34.25 11.54,51.06 -4.88,-7.75 -11.35,-14.39 -19.38,-18.87 3.55,-10.5 6.02,-21.3 7.84,-32.19zm-1399.47 50.93l0 0c-8.12,-16.65 -6.19,-41.07 11.4,-50.87 2.09,10.84 4.34,21.68 7.9,32.16 -8,4.41 -14.4,11.07 -19.3,18.71zm18.89 -100.74l0 0c0.97,25.12 8.1,49.48 15.54,73.32 9.21,27.4 19.25,54.89 34.81,79.42 8.14,-2.78 16.17,-5.89 24.27,-8.76 -13.49,-20.95 -22.57,-44.31 -30.93,-67.68 -9.42,-27.48 -17.56,-55.75 -19.74,-84.85 -7.97,2.87 -15.95,5.73 -23.95,8.55zm1349.16 -8.6l0 0c-2,28.63 -10.05,56.39 -19.19,83.45 -8.43,23.86 -17.68,47.72 -31.43,69.08 8.19,2.84 16.15,6.37 24.55,8.63 16.47,-26.73 27.19,-56.46 36.75,-86.24 6.5,-21.61 12.4,-43.69 13.41,-66.34 -8.07,-2.8 -16.1,-5.64 -24.09,-8.58zm-1017.53 -67.3l0 0c2.85,-1.11 5.89,-3.27 9.02,-1.68 16.9,5.92 34.19,10.59 51.48,15.23 -30.9,11.96 -62.36,22.47 -93.42,34.07 -4.1,-9.23 -6.8,-19.08 -8.54,-28.98l0.44 -0.97c13.56,-6.14 27.42,-11.62 41.02,-17.67zm698.12 -3.1l0 0c2.6,-1.36 5.17,0.46 7.59,1.37 15.07,6.71 30.46,12.72 45.48,19.57 -0.68,10.08 -4.76,20.03 -8.01,29.66 -30.6,-10.66 -60.94,-22.04 -91.48,-32.85 -1.77,-0.54 -3.35,-1.4 -4.64,-2.7 17.19,-4.41 34.25,-9.34 51.06,-15.05zm-655.5 -144.77l0 0c-7.12,32.48 -12.69,65.62 -11.41,98.98 0.5,2.25 -0.67,5.94 2.28,6.85 36.93,17.85 77.23,27.22 117.38,34.63 70.15,12.38 141.54,16.37 212.7,16.37 78.88,-0.94 158.21,-6.4 235.26,-24.21 27.62,-6.84 55.54,-14.42 80.75,-27.86 2.13,-34.58 -3.38,-69.13 -10.48,-102.91 -39.5,13.86 -80.96,20.92 -122.34,26.37 -73.9,9.22 -148.51,11.91 -222.9,10.64 -60.68,-1.35 -121.42,-5.25 -181.44,-14.5 -33.84,-5.38 -67.68,-12.21 -99.8,-24.36zm-496.05 -237.7l0 0c54.58,-0.85 109.14,0.53 163.72,0.18 31.37,-0.28 62.71,0.52 94.06,0.48 4.41,0.78 8.1,3.68 11.96,5.76 19.14,12.24 38.23,24.55 57.37,36.78 2.67,1.05 2.72,4.11 3.43,6.47 7.63,33.24 25.74,63.37 48.99,88.05 -124.93,-45.01 -249.75,-90.33 -374.66,-135.37 -1.22,-0.6 -3.65,-1.75 -4.87,-2.35zm1287.54 44.83l0 0c24.52,-16.12 49.73,-31.23 73.87,-47.93 40.17,-0.05 80.35,0 120.54,-0.03 49.08,0.97 98.22,0.08 147.34,0.54 -131.04,47.27 -262.04,94.61 -393.16,141.65 25.1,-26.07 44.23,-58.52 51.41,-94.23zm-400.89 -74.38l0 0c57.66,16.49 109.45,52.11 146.13,99.46 33.31,42.58 54.36,94.51 60.52,148.19 -57.62,14.42 -116.95,20.17 -176.07,24.24 1.95,-73.21 -2.44,-146.87 -17.04,-218.73 -3.75,-17.91 -8.12,-35.68 -13.54,-53.16zm-265.72 61.38l0 0c31.28,-28.15 68.9,-49.13 109.24,-61.06 -11.85,38.54 -19.11,78.37 -23.97,118.36 -5.99,50.77 -8.07,102.01 -6.31,153.06 -58.78,-3.92 -117.75,-9.8 -175.02,-24.05 7.92,-71.03 42.58,-138.81 96.06,-186.31zm-248.33 -85.18l0 0c-8.46,11.71 -12.21,26.25 -14.3,40.39 -4.28,36.37 6.81,72.86 24.12,104.55 22.68,38.33 59.18,66.59 98.13,87.05 3.47,-9.82 7.16,-19.57 11.32,-29.12 -41.87,-19.85 -78.39,-51.36 -103.17,-90.6 -20.89,-33.48 -24.86,-75.65 -14.7,-113.4l-1.4 1.13zm870.46 -4.54l0 0c0.11,0.39 0.33,1.19 0.44,1.6 10.33,33.97 7.97,71.95 -7.63,103.98 -23.4,44.23 -62.5,79.5 -107.59,100.75 3.81,9.72 7.73,19.39 11.18,29.24 37.95,-19.86 73.26,-47.5 95.63,-84.57 13.15,-23.46 22.46,-49.38 25.29,-76.23 2.35,-25.79 -1.63,-53.49 -17.32,-74.77zm-478.87 2.31l0 0c28.64,-8.19 59.87,-8.98 88.4,-0.05 8.89,28.89 14.04,58.78 18.35,88.65 9.4,69.89 11.7,140.62 9.11,211.05 -47.8,1.82 -95.68,2.12 -143.46,-0.24 -2.05,-68 -0.22,-136.25 8.48,-203.8 4.24,-32.24 9.88,-64.4 19.12,-95.61zm148.03 -374.85l0 0c15.81,-0.01 31.59,-0.04 47.4,0.02 -2.71,6.06 -6.24,11.77 -8.46,18.04 1.14,18.46 3.5,36.85 4.96,55.32 18.02,0.08 36.04,0.03 54.05,0.01 -2.4,-18.39 -4.33,-36.87 -6.99,-55.24 -2.92,-6.3 -7.1,-11.96 -10.26,-18.16 16.18,0 32.37,0 48.55,0 5.5,36.3 11.01,72.59 16.5,108.89 -46.2,0 -92.38,0 -138.56,0 -2.27,-36.3 -5.03,-72.58 -7.19,-108.88zm-172.81 108.88l0 0c1.61,-36.3 3.13,-72.59 4.68,-108.89 11.93,0 23.86,0 35.81,0 0.33,15.89 -0.56,31.74 -0.4,47.63 12.71,-12.36 24.7,-25.41 37.39,-37.81 3.36,-3.12 5.9,-7.36 9.9,-9.69 18.62,-0.3 37.27,-0.12 55.9,-0.07 -15.73,14.69 -31.91,28.86 -47.69,43.46 18.48,21.75 37.03,43.45 55.41,65.27 -19.46,0.23 -38.92,0.04 -58.38,0.1 -8.66,-13.03 -17.27,-26.1 -25.73,-39.27 -9.21,8.06 -18.22,16.36 -27.26,24.61 0.03,4.88 0.03,9.76 0.03,14.66 -13.23,0 -26.45,0 -39.66,0z"/>
  </g>
 </g>
</svg>
