<?xml version="1.0" encoding="UTF-8"?>
<!DOCTYPE svg PUBLIC "-//W3C//DTD SVG 1.1//EN" "http://www.w3.org/Graphics/SVG/1.1/DTD/svg11.dtd">
<!-- Creator: CorelDRAW -->
<svg xmlns="http://www.w3.org/2000/svg" xml:space="preserve" width="2000px" height="1600px" version="1.1" style="shape-rendering:geometricPrecision; text-rendering:geometricPrecision; image-rendering:optimizeQuality; fill-rule:evenodd; clip-rule:evenodd"
viewBox="0 0 2000 1600"
 xmlns:xlink="http://www.w3.org/1999/xlink">
 <defs>
  <style type="text/css">
   <![CDATA[
    .fil1 {fill:black}
    .fil2 {fill:#E21736}
    .fil0 {fill:#FEFEFE}
   ]]>
  </style>
 </defs>
 <g id="Capa_x0020_1">
  <metadata id="CorelCorpID_0Corel-Layer"/>
  <g id="North_x0020_Carolina_x0020_State_x0020_Wolfpack.cdr">
   <path class="fil0" d="M457.25 330.03c63.12,-66.12 126.28,-132.23 189.68,-198.09 235.25,0.12 470.52,0.16 705.77,-0.03 63.42,65.8 126.51,131.92 189.65,197.98 0,83.33 -0.02,166.66 0.03,249.99 -93.18,0.04 -186.36,0.02 -279.55,0 0.09,26.19 0,52.38 0.07,78.58 31.24,0 62.49,-0.12 93.74,0.05 2.99,-0.26 4.65,2.84 6.76,4.46 59.49,61.5 119.59,122.43 178.98,184.02 -0.08,143.24 0,286.48 -0.03,429.72 -63.35,63.51 -126.2,127.48 -189.24,191.28 -235.52,0.17 -471,0.1 -706.49,0.03 -61.79,-62.64 -123.48,-125.35 -185.64,-187.64 -2.09,-2.2 -4.34,-4.88 -3.73,-8.21 -0.02,-83.96 0,-167.93 0,-251.9 89.55,-0.07 179.12,-0.05 268.66,-0.03 0.03,-29.8 0,-59.62 0.03,-89.45 -26.32,0.05 -52.63,0 -78.94,0.03 -61.48,-61.93 -122.22,-124.57 -183.48,-186.68 -2.66,-3.11 -7.07,-5.89 -6.27,-10.61 0,-134.51 0,-268.99 0,-403.5z"/>
   <path class="fil1" d="M405.89 309.18c72.79,-76.64 146.08,-152.92 219.28,-229.18 249.77,0.28 499.57,0.26 749.34,0 72.93,75.66 145.35,151.8 218.12,227.61 2.61,2.87 1.09,7.33 1.61,10.87 -0.14,104.49 0,208.98 -0.05,313.48 -63.23,0.02 -126.44,0.04 -189.64,0 61.66,63.01 123.73,125.65 185.73,188.36 5.72,3.99 3.54,11.51 3.96,17.44 -0.12,144 -0.02,288 -0.05,431.99 -0.92,9.59 1.97,20.34 -1.59,29.26 -72.86,73.7 -145.61,147.51 -218.69,220.99 -249.39,-0.09 -498.8,-0.02 -748.19,-0.02 -73.39,-74.05 -146.68,-148.2 -220.07,-222.23 0,-109.9 -0.22,-219.78 0.12,-329.68 68.35,0.31 136.74,-0.5 205.09,0.4 -15.23,-16.82 -31.77,-32.48 -47.52,-48.85 -52.53,-53.53 -104.87,-107.27 -157.71,-160.51 0.16,-149.98 -0.39,-299.98 0.26,-449.93zm463.33 679.7l0 0c0.07,46.76 -0.26,93.53 0.17,140.27 83.68,-0.52 167.39,0.05 251.07,-0.29 -0.21,-16.18 -0.02,-32.36 -0.11,-48.52 33.64,0.05 67.29,-0.04 100.95,0.05 0.48,-14.83 0.1,-29.66 0.38,-44.49 -33.76,-0.23 -67.55,-0.09 -101.31,-0.07 -0.02,-15.66 0.02,-31.29 0,-46.93 -83.73,0.05 -167.44,0.07 -251.15,-0.02zm-0.28 -464.67l0 0c-0.12,44.75 -0.1,89.52 -0.03,134.27 58.18,-0.09 116.36,-0.05 174.54,0 -58.09,-44.89 -116.17,-89.78 -174.51,-134.27zm81.12 -119.27l0 0c56.42,44.98 113.7,88.9 170.24,133.77 0.16,-44.63 0.02,-89.28 0.07,-133.92 -56.75,0.17 -113.53,-0.09 -170.31,0.15zm-492.81 -74.91l0 0c0,134.51 0,268.99 0,403.5 -0.8,4.72 3.61,7.5 6.27,10.61 61.26,62.11 122,124.75 183.48,186.68 26.31,-0.03 52.62,0.02 78.94,-0.03 -0.03,29.83 0,59.65 -0.03,89.45 -89.54,-0.02 -179.11,-0.04 -268.66,0.03 0,83.97 -0.02,167.94 0,251.9 -0.61,3.33 1.64,6.01 3.73,8.21 62.16,62.29 123.85,125 185.64,187.64 235.49,0.07 470.97,0.14 706.49,-0.03 63.04,-63.8 125.89,-127.77 189.24,-191.28 0.03,-143.24 -0.05,-286.48 0.03,-429.72 -59.39,-61.59 -119.49,-122.52 -178.98,-184.02 -2.11,-1.62 -3.77,-4.72 -6.76,-4.46 -31.25,-0.17 -62.5,-0.05 -93.74,-0.05 -0.07,-26.2 0.02,-52.39 -0.07,-78.58 93.19,0.02 186.37,0.04 279.55,0 -0.05,-83.33 -0.03,-166.66 -0.03,-249.99 -63.14,-66.06 -126.23,-132.18 -189.65,-197.98 -235.25,0.19 -470.52,0.15 -705.77,0.03 -63.4,65.86 -126.56,131.97 -189.68,198.09z"/>
   <path class="fil2" d="M653.19 162.81c2.3,-2.23 4.51,-5.41 8.21,-4.63 226.9,0.02 453.8,-0.1 680.67,0.07 57.99,60.67 116.03,121.29 174.13,181.89 0.26,71.23 0.05,142.48 0.1,213.71 -84.64,0.02 -169.27,0.16 -253.9,-0.07 0.14,-71.8 0,-143.62 0.09,-215.42 -47.26,-0.07 -94.52,-0.07 -141.79,0 0.1,13.5 0.05,26.98 0.05,40.48 -68.57,-0.14 -137.16,0.07 -205.74,-0.1 -15.99,-12.97 -32.38,-25.41 -48.49,-38.22 -2.71,-2.82 -6.81,-2.09 -10.3,-2.25 -43.3,0.14 -86.63,0 -129.93,0.07 0.07,128.74 0.15,257.48 -0.04,386.22 47.55,0.12 95.09,0.41 142.66,0.43 -0.07,-13.53 -0.02,-27.03 -0.07,-40.53 69.81,0.29 139.68,-0.4 209.46,0.34 17.44,12.4 33.95,26.14 51.11,38.96 2.49,2.18 6,1.39 9.02,1.65 41.35,-0.18 82.71,0.1 124.09,-0.14 -0.12,-13.59 0,-27.16 -0.12,-40.76 28.14,-0.07 56.3,0.05 84.44,-0.05 56.59,57.45 112.8,115.27 169.39,172.73 0.26,136.1 -0.1,272.22 0.16,408.32 -57.96,59.05 -116.4,117.63 -174.58,176.5 -228.01,-0.05 -456,0.02 -683.99,-0.05 -58.18,-58.89 -116.74,-117.42 -174.56,-176.64 0.17,-63.42 0,-126.85 0.07,-190.27 0.07,-9.68 -0.47,-19.38 0.71,-28.99 80.74,0.24 161.51,0.05 242.25,0.09 0.15,53.63 -0.07,107.27 0.12,160.9 30.73,21.87 60.72,45 91.78,66.34 116.23,0.56 232.49,-0.03 348.76,0.28 3.72,-0.1 7.9,0.45 10.89,-2.3 28.3,-20.43 56.56,-40.91 84.99,-61.17 0.16,-43.14 -0.12,-86.29 0.14,-129.43 -4.96,-0.07 -9.92,-0.12 -14.88,-0.12 -1.83,-15.07 0.57,-30.15 -0.16,-45.25 4.98,-0.04 9.96,-0.02 14.97,-0.04 -0.19,-41.15 0.23,-82.31 -0.22,-123.48 -25.72,-18.08 -51.01,-36.82 -76.56,-55.16 -6.01,-3.77 -11.3,-10.47 -19.06,-9.75 -114.67,0.02 -229.31,0.26 -343.99,0 -6.71,-0.93 -11.69,4.2 -16.79,7.64 -23.57,16.8 -47.03,33.71 -70.71,50.34 -25.77,-0.11 -51.53,-0.23 -77.3,0.05 -28.71,-28.21 -56.31,-57.51 -84.73,-85.98 -29.99,-30.87 -60.53,-61.22 -90.3,-92.28 0.21,-127.5 0,-255.01 0.09,-382.52 -0.05,-6.26 6.26,-9.8 9.82,-14.16 53.39,-55.71 106.82,-111.4 160.04,-167.25zm103.47 758.45l0 0c-2.13,1.61 -5.22,3.27 -4.41,6.57 0,87.83 -0.05,175.69 0,263.55 0.19,0.84 0.57,2.52 0.76,3.35 24.15,17.68 47.88,36.16 72.56,53.03 113.67,0.5 227.39,0.07 341.09,0.21 23.47,-16.91 46.91,-33.83 70.4,-50.68 -0.12,-30.39 0.28,-60.81 -0.19,-91.23 -30.11,0.48 -60.22,0.12 -90.31,0.19 0.08,16.26 -0.14,32.51 0.15,48.76 -101.22,0.43 -202.44,0.1 -303.68,0.17 0.09,-64.11 0.05,-128.2 0.05,-192.31 101.17,0.03 202.34,-0.02 303.53,0.03 -0.07,15.63 -0.07,31.27 0,46.9 30.14,-0.07 60.29,-0.07 90.45,0 0.02,-28.28 0.02,-56.58 0,-84.87 -24.18,-17.15 -48.02,-34.78 -72.16,-52.01 -113.36,0.03 -226.73,0.12 -340.12,-0.04 -22.8,15.96 -45.32,32.38 -68.12,48.38zm-4.48 -557.3l0 0c0.09,111.92 0.07,223.84 0.02,335.78 30.32,0.17 60.6,-0.31 90.92,-0.45 0,-76.02 -0.19,-152.06 0.1,-228.08 97.8,75.45 195.79,150.69 293.62,226.14 2.32,2.2 5.53,2.56 8.61,2.42 30.39,-0.03 60.79,-0.19 91.21,0.07 0.04,-111.99 0.11,-224.01 -0.05,-336 -30.02,0.29 -60.05,0.05 -90.07,0.12 0.1,76.09 -0.07,152.16 0.1,228.25 -97.19,-75.99 -194.35,-152.01 -291.39,-228.18 -34.36,-0.14 -68.71,-0.02 -103.07,-0.07z"/>
  </g>
 </g>
</svg>
