<?xml version="1.0" encoding="UTF-8"?>
<!DOCTYPE svg PUBLIC "-//W3C//DTD SVG 1.1//EN" "http://www.w3.org/Graphics/SVG/1.1/DTD/svg11.dtd">
<!-- Creator: CorelDRAW -->
<svg xmlns="http://www.w3.org/2000/svg" xml:space="preserve" width="2000px" height="1600px" version="1.1" style="shape-rendering:geometricPrecision; text-rendering:geometricPrecision; image-rendering:optimizeQuality; fill-rule:evenodd; clip-rule:evenodd"
viewBox="0 0 2000 1600"
 xmlns:xlink="http://www.w3.org/1999/xlink">
 <defs>
  <style type="text/css">
   <![CDATA[
    .fil1 {fill:#175440}
    .fil3 {fill:#DF1F25}
    .fil2 {fill:#F9B600}
    .fil0 {fill:#FEFEFE}
   ]]>
  </style>
 </defs>
 <g id="Capa_x0020_1">
  <metadata id="CorelCorpID_0Corel-Layer"/>
  <g id="Northern_x0020_Michigan_x0020_Wildcats_x0020_.cdr">
   <path class="fil0" d="M1310.8 262.23c8.82,1.57 17.55,3.41 26.33,5.12 -3.64,28.1 9.76,58.2 34.37,72.79 -12.97,-2 -25.75,-5 -38.74,-6.82 -17.22,-19.17 -23.27,-45.89 -21.96,-71.09zm127.43 456.46l0 0c0.71,-0.65 2.12,-1.94 2.82,-2.59 7.49,22.47 -1.15,47.2 -16.34,64.38 6.91,0.32 13.8,-1.34 19.79,-4.87 10.58,2.82 21.26,5.42 32.11,7.12 0.84,3.05 0.28,9.15 4.47,9.42 3.43,-6.07 8.47,-11.02 14.65,-14.27 11.9,-6.43 22.55,-15.58 29.07,-27.57 3.68,6.08 2.65,13.87 1.82,20.64 -1.94,11.34 -7.97,21.46 -15.08,30.33 -33.77,-0.85 -68.06,-4.98 -99.52,-17.85 -12.71,-5.45 -25.42,-12.46 -33.79,-23.78 23.15,-7.7 45.92,-20.48 60,-40.96zm58.2 -182.96l0 0c18.24,6.71 37.56,10.16 56.94,11.25 -9.88,30.19 -37.19,51.88 -67.05,60.55 13.17,-21.26 15.86,-47.72 10.11,-71.8zm72.23 12.18l0 0c27.31,-0.45 54.83,-5.67 79.27,-18.23 4.16,20.27 13.61,39.54 27.96,54.5l0.05 0.9c-9,12.21 -21.61,21.74 -35.86,26.99 4.56,-19.19 4.64,-39.95 -2.58,-58.48 -1.33,6.47 -4.06,12.5 -7.49,18.11 -20.79,-5.08 -41.55,-11.1 -63.11,-11.38 0.83,-3.98 -0.61,-9.18 1.76,-12.41zm112.76 -62.31l0 0c-9.54,25.89 -3.39,56.24 15.03,76.69 26.33,-23.15 32.13,-62.78 22.29,-95.18 -11.22,8.33 -23.84,14.7 -37.32,18.49zm-543.83 -27.6l0 0c50.16,-31.37 109.68,-45.57 168.44,-46.92l0.6 1.08 -0.04 1.28c-8.3,12.92 -15.42,26.66 -20.54,41.16 -69.95,7.65 -138.95,24.61 -204.02,51.47 15.8,-18.86 34.74,-34.98 55.56,-48.07zm500.65 -74.14l0 0c29.74,6.84 58.45,21.12 78.96,44.14 -4.97,6.53 -11.32,11.83 -18.16,16.28 -11.7,-26.92 -34.3,-48.26 -60.8,-60.42zm-178.27 -19.8l0 0c21.61,6.66 42.77,14.7 63.83,22.93 -7.85,4.81 -14.55,11.3 -19.82,18.82 -29.34,-11.96 -59.27,-22.62 -89.76,-31.28 -16.09,4.32 -31.93,10.72 -46.38,19.07 43.73,5.19 87.08,13.41 129.75,24.23 -3.15,8.4 -5.02,17.25 -5.15,26.23 -51.71,-14.23 -104.55,-24.59 -157.89,-30.13 -16.74,11.06 -31.67,25.03 -44.69,40.27 67.72,-6.78 136.26,-5.75 203.73,3.13 1.5,9.37 5.19,18.28 10.26,26.28 -144.17,-23.72 -294.01,-11.1 -432.31,35.91 -33.89,47.3 -47.93,106.12 -49.17,163.61 0.08,11.03 -0.27,22.05 0.32,33.07 24.97,12.13 51.98,19.14 79.17,24.16 -27.94,6.9 -57.35,9.15 -85.74,3.83 -16.5,33.94 -32.81,67.97 -49.21,101.96l-0.38 0.74c14.66,2.92 29.03,7.05 43.38,11.16 -17.43,3.91 -35.46,6.87 -51.73,14.46 67.54,16.76 135.03,34.69 199.9,60.12 8.26,-22.33 17.42,-44.32 26.8,-66.22 -24.21,-7.53 -49.17,-12.62 -74.37,-15.31 14.76,-13.43 32.61,-22.83 50.08,-32.26 -14.49,-4.08 -29.27,-7.11 -44.26,-8.55 17.66,-15.99 39.34,-26.66 60.99,-36.14 -4.11,-28.3 -1.24,-57.32 5.84,-84.93 10.69,41.8 28.45,82.41 56.17,115.78 19.82,24 45.04,43.9 73.99,55.63 16.72,5.77 33.99,9.85 51.37,13.04 -4.52,-9.14 -9.86,-17.86 -14.98,-26.68 26.98,13.63 47.87,38.32 58.11,66.64 13.54,-8.67 24.94,-20.19 35.4,-32.3 6.83,11.98 10.74,25.42 12.68,39.02 18.24,-9.24 34.74,-23.88 42.12,-43.35 5.48,-13.92 5.02,-29.44 1.31,-43.74 -4.08,-0.12 -8.16,-0.15 -12.22,-0.12 -35.13,0.6 -70.75,-4.06 -103.63,-16.87 -29.36,-11.45 -56.03,-30.22 -75.79,-54.86 -15.58,-19.06 -27.05,-41.23 -35.1,-64.43 -11.75,-34.25 -16.21,-70.71 -15.74,-106.81 -29.32,-11.74 -61.68,-13.39 -92.82,-10.48 55.32,-61.56 137.82,-96.87 220.38,-96.62 36.52,-0.47 72.88,5.61 107.91,15.64 34.6,9.08 70.79,15.51 106.58,10.72 24.13,-3.1 48.02,-13.54 63.82,-32.54 -9.88,-42.46 -44.03,-75.57 -82.76,-93.15 8.54,-5.45 18.94,-6.33 28.45,-9.24 -48.24,-12.35 -98.97,-18.38 -148.44,-10.44zm-81.13 -56.34l0 0c7.06,10.62 18.34,17.68 30.14,22 11.22,-4.17 22.69,-7.79 34.44,-10.07 -5.11,-4.61 -9.42,-9.98 -13.84,-15.2 -5.83,5.83 -12.33,10.92 -18.97,15.76 -4.44,-10.36 -5.64,-21.79 -5.44,-32.96 -10.16,-4.19 -20.73,-7.29 -31.18,-10.67 -4.2,10.37 -1.13,22.14 4.85,31.14z"/>
   <path class="fil1" d="M1153.43 80l36.31 0c77.36,3.73 153.76,20.83 226.44,47.29 -4.59,-6.79 -9.95,-13.01 -14.7,-19.68 21.24,3.72 41.86,10.78 61.19,20.31 44.94,22.36 82.86,57.57 111.41,98.62 3.43,4.25 5.05,10.52 10.49,12.77 23.05,10.67 42.54,28.04 57.91,48.06 19.41,25.45 31.34,55.94 37.32,87.21 28.14,11.13 53.47,30.13 70.26,55.48 -1.69,3.73 -4.13,7.16 -5.39,11.05 10.53,27.86 13.44,58.86 6.4,87.93 -5.65,23.36 -18.82,45.33 -38.48,59.52 -3.84,2.88 -8.45,4.98 -11.25,9.03 -6.64,9.28 -14.35,17.89 -23.51,24.77 -17.3,13.56 -39.41,20.14 -61.18,20.52 -6.53,0.24 -7.41,-7.26 -5.6,-11.94 3.81,-12.21 8.2,-24.5 7.75,-37.53 -19.09,-5.62 -38.67,-9.53 -58.43,-11.93 -5.1,11.58 -13.09,21.94 -23.36,29.4 -9.16,7.02 -20.08,11.18 -31,14.6 -12.68,40.93 -19.81,83.99 -17.4,126.9 10.49,-5.42 20.15,-12.76 27.14,-22.39 3.56,-4.43 5.67,-9.91 9.66,-14 3.28,-1.63 6.96,0.13 8.8,3.05 18.13,28.27 17.32,66.93 -1.29,94.76 5.99,32.28 1.55,67.66 -17.82,94.85 -18.74,26.8 -49.41,42.52 -80.63,49.78 -1.04,-9.14 -2.9,-18.26 -6.91,-26.59 -10.19,9.67 -22.9,16.42 -36.49,19.8 -3.38,-12.06 -6.78,-24.18 -11.96,-35.61 -52.15,4.94 -106.24,-5.06 -151.51,-31.95 -17.04,32.86 -30.57,67.51 -40.35,103.22 -93.06,-32.88 -188.21,-60.15 -285.1,-79.23 -161.96,-32.49 -328.45,-41.51 -493.05,-28.02 51.42,-130.16 120.87,-253.81 210.3,-361.74 66.82,-80.73 144.82,-152.32 231.79,-210.86 -30.93,-0.15 -63.21,3.55 -92.66,-8.33 13.17,-7.54 26.6,-14.65 39.72,-22.28 -36.01,1.01 -73.57,-2.98 -105.94,-19.88 10.13,-4.82 20.35,-9.45 30.38,-14.47 -29.2,-27.97 -57.77,-57.71 -76.96,-93.66 20.92,-0.29 41.88,-1.02 62.57,-4.1 35.81,-4.96 70.55,-15.35 104.85,-26.45 51.83,-16.03 105.64,-27.91 160.15,-27.34 37.06,0.41 74.31,7.78 107.66,24.27 28.62,-5.82 57.6,-9.67 86.6,-13.09 -6.38,-7.19 -12.84,-14.32 -19.14,-21.61 1.26,-0.13 3.77,-0.38 5.01,-0.51zm433.44 1340.58l0 0c15.38,0.03 30.76,-0.1 46.13,0.08 -0.99,4.84 -1.8,9.71 -2.45,14.63 -4.79,0.22 -9.58,0.25 -14.35,0.18 -3,17.05 -6.11,34.07 -8.8,51.17 -5.95,0.3 -11.91,0.25 -17.84,0.2 2.96,-17.12 5.98,-34.22 8.91,-51.33 -4.72,-0.04 -9.41,-0.04 -14.1,-0.04 0.81,-4.97 1.67,-9.94 2.5,-14.89zm-139.31 0l0 0c6.43,-0.02 12.86,-0.07 19.29,0.11 4.32,22.04 8.68,44.08 13.44,66.02 -6.35,0.22 -12.69,0.22 -19.03,0.03 -0.67,-3.71 -1.39,-7.39 -2.15,-11.07 -7.7,-0.01 -15.39,0.07 -23.08,-0.08 -2.32,3.7 -4.51,7.48 -6.63,11.29 -6.3,-0.04 -12.58,-0.02 -18.86,-0.02 12.36,-22.07 24.71,-44.18 37.02,-66.28zm-4.47 41.41l0 0c4.5,0.01 9.03,0.01 13.55,0.01 -1.04,-6.76 -2.15,-13.5 -3.16,-20.25 -3.47,6.75 -6.86,13.53 -10.39,20.24zm-340.04 -41.38l0 0c10.28,0.21 20.63,-0.66 30.89,0.51 11.14,1.91 20.58,11.25 21.91,22.59 3.08,22.37 -17.65,43.88 -39.89,43.18 -8.15,-0.03 -16.29,-0.05 -24.44,-0.03 3.86,-22.09 7.69,-44.16 11.53,-66.25zm15 14.93l0 0c-2.01,12.18 -4.18,24.34 -6.3,36.5 4.64,-0.13 9.58,0.1 13.84,-2.17 9.68,-4.27 14.52,-16.8 10.77,-26.54 -3.1,-6.98 -11.53,-8.29 -18.31,-7.79zm-159.11 -14.88l0 0c5.9,-0.13 11.8,-0.13 17.7,0.02 -2.94,17.08 -5.97,34.16 -8.9,51.25 6.86,0.02 13.72,0 20.58,0.02 -1.08,4.9 -1.23,10.09 -2.95,14.83 -12.63,0.25 -25.27,-0.02 -37.91,0.08 3.84,-22.07 7.73,-44.13 11.48,-66.2zm-129.07 -0.05l0 0c5.9,-0.05 11.8,-0.05 17.7,-0.03 -3.78,22.08 -7.73,44.16 -11.47,66.26 -5.9,0.02 -11.8,0.02 -17.68,0.02 3.76,-22.09 7.75,-44.15 11.45,-66.25zm-205.33 -0.02l0 0c6.11,-0.05 12.23,-0.1 18.36,0.14 1.11,13.75 2.42,27.5 3.86,41.24 7.61,-13.31 14.27,-27.23 20.68,-41.18 4.79,-0.26 9.61,-0.28 14.43,-0.2 2.04,13.91 3.38,27.91 5.65,41.79 6.62,-13.87 13.05,-27.82 19.49,-41.75 6.17,-0.09 12.33,-0.07 18.51,-0.04 -10.78,22.07 -21.79,44.06 -32.54,66.17 -6.03,0.13 -12.07,0.12 -18.12,0.08 -2.08,-12.24 -2.5,-24.77 -5.31,-36.87 -6.42,12.27 -12.47,24.71 -19.03,36.91 -5.98,-0.02 -11.95,-0.02 -17.93,-0.07 -2.48,-22.1 -5.63,-44.11 -8.05,-66.22zm1125.36 1l0 0c10.33,-5.09 22.65,-2.49 32.51,2.52 -2.97,4.77 -6.17,9.39 -9.47,13.95 -4.78,-4.53 -14.2,-6.8 -18.27,-0.28 -2.32,2.75 1.41,5.8 3.96,6.46 7.32,2.62 17.33,4.59 19.37,13.49 1.09,8.71 -2.25,18.38 -9.02,24.14 -12.34,9.93 -30.97,8.82 -43.36,-0.45 3.23,-4.88 6.66,-9.64 10.07,-14.41 3.45,2.78 7,6.03 11.64,6.61 4.93,1.21 11.07,-1.38 12.04,-6.76 -0.33,-4.38 -5.35,-5.4 -8.7,-6.6 -5.7,-1.85 -12.94,-3.59 -15.08,-9.96 -2.58,-11.26 3.85,-23.86 14.31,-28.71zm-489.84 42.1l0 0c-2.18,-22.58 17.47,-43.76 39.84,-44.77 5.8,-0.48 11.48,1.14 16.95,2.97 -0.78,6.99 -2.24,13.88 -3.38,20.82 -5.04,-5.6 -13.07,-8.74 -20.37,-5.73 -11.93,3.73 -19.71,20.81 -10.65,30.86 8.05,7.25 20.02,3.18 27.32,-3.12 -1.49,7.03 -2.48,14.17 -3.92,21.21 -7.84,2.16 -16.16,4.26 -24.21,1.86 -11.22,-2.54 -20.93,-12.31 -21.58,-24.1zm412.17 -266.82l0 0c27.84,0 55.66,0 83.5,0 13.04,21.34 25.78,42.87 38.71,64.29 3.43,-21.47 7.35,-42.86 11,-64.29 23.03,0 46.08,0 69.12,0 -9.68,54.7 -19.26,109.42 -28.97,164.1 -23.13,-0.23 -46.26,0.2 -69.4,-0.21 -12.64,-21.1 -25.25,-42.24 -38.41,-63.02 -3.68,20.99 -7.57,41.95 -11.08,63 -22.99,0.43 -45.99,0.07 -68.97,0.18 8.2,-47.34 16.85,-94.62 24.85,-141.99 -3.67,-7.26 -6.84,-14.73 -10.35,-22.06zm-185.64 0.03l0 0c37.56,-0.05 75.13,-0.05 112.71,-0.01 10.09,54.71 20.55,109.33 30.75,164.02 -22.86,0.03 -45.73,0 -68.58,0.03 -1.48,-8.01 -2.67,-16.06 -4.16,-24.05 -18.54,0 -37.09,0 -55.61,0 -3.91,7.92 -8.09,15.71 -11.7,23.78 -22.9,0.57 -45.82,0.1 -68.72,0.24 25.07,-47.08 50.32,-94.08 75.59,-141.07 -3.36,-7.69 -6.94,-15.26 -10.28,-22.94zm33.95 103.92l0 0c10.21,0.02 20.41,0.08 30.62,-0.03 -2.43,-14.8 -4.7,-29.62 -7.31,-44.36 -8.08,14.61 -15.52,29.59 -23.31,44.39zm-264.94 -103.92l0 0c2.17,4.73 4.46,9.4 6.4,14.24 -5.67,3.41 -11.2,7.02 -16.74,10.64 -6.69,38.04 -13.48,76.06 -20.16,114.12 9.84,8.4 19.82,16.64 29.66,25.05 39.98,-0.16 79.97,0.17 119.94,-0.16 13.39,-7.51 25.87,-16.7 38.97,-24.76 4.46,-25.09 8.82,-50.21 13.18,-75.33 -31.94,-0.1 -63.87,-0.02 -95.8,-0.03 -5.09,11.88 -10.27,23.71 -15.33,35.61 11.98,0.05 23.95,-0.02 35.95,0.03 -1.68,9.51 -3.3,19.02 -5.03,28.54 -16.62,0.06 -33.24,0 -49.86,0.03 5.19,-30.77 10.82,-61.48 16.01,-92.27 16.65,-0.31 33.32,0.05 49.99,-0.18 -0.72,4.86 -1.57,9.71 -2.45,14.57 22.97,0 45.94,0.01 68.92,0 1.47,-8.29 2.8,-16.59 4.52,-24.83 -9.62,-8.8 -19.95,-16.78 -29.82,-25.3 -49.45,0.02 -98.9,-0.05 -148.35,0.03zm-118.21 -0.03l0 0c27.7,0 55.43,0 83.13,0 -9.44,54.68 -19.33,109.3 -28.78,163.98 -22.98,0.1 -45.95,0.14 -68.93,-0.01 8.07,-45.57 16.07,-91.14 24.22,-136.69 0.28,-2.19 0.83,-4.48 -0.3,-6.47 -3.03,-6.97 -6.29,-13.85 -9.34,-20.81zm-227.83 0.02l0 0c27.69,-0.04 55.39,0 83.08,-0.02 -3.66,21.41 -7.55,42.79 -11.1,64.21 16.6,0.02 33.21,-0.03 49.81,0.02 3.85,-21.39 7.46,-42.84 11.29,-64.23 22.98,0.02 45.98,-0.02 68.98,0.02 -9.44,54.7 -19.2,109.36 -28.87,164.03 -23.05,0 -46.08,0 -69.11,0 3.83,-21.39 7.65,-42.78 11.38,-64.19 -16.64,-0.04 -33.26,0 -49.88,-0.04 -3.81,21.41 -7.69,42.81 -11.35,64.23 -22.98,0 -45.96,0 -68.95,0 8.19,-45.93 16.23,-91.88 24.43,-137.8 0.56,-2.12 0.33,-4.13 -0.7,-6.02 -2.96,-6.76 -6.2,-13.4 -9.01,-20.21zm-209.06 -0.02l0 0c49.45,0 98.89,0 148.32,0 9.98,8.27 19.91,16.62 29.82,24.97 -2.07,11.55 -4.03,23.12 -6.1,34.69 -22.95,0 -45.9,0.01 -68.85,0 1.32,-7.89 2.68,-15.76 4.09,-23.62 -16.67,0.09 -33.34,-0.16 -50.01,0.13 -5.32,30.61 -10.74,61.2 -16.06,91.79 16.64,0.08 33.28,0.03 49.91,0.03 1.44,-8.28 2.95,-16.55 4.33,-24.85 23.01,-0.04 46.01,0.1 69.03,-0.07 -1.84,12.05 -4.24,24 -6.2,36.03 -13,8.3 -25.75,17.26 -39.15,24.84 -39.92,0.29 -79.87,-0.02 -119.81,0.16 -9.94,-8.25 -19.78,-16.62 -29.73,-24.87 6.61,-38.13 13.46,-76.21 20.15,-114.31 5.57,-3.58 11.06,-7.27 16.74,-10.69 -2.02,-4.82 -4.23,-9.54 -6.48,-14.23zm-117.11 0.02l0 0c27.71,-0.04 55.42,0 83.14,-0.02 -9.68,54.68 -19.27,109.38 -28.97,164.05 -22.95,-0.01 -45.9,0 -68.85,0 8.39,-46.94 16.52,-93.92 25.02,-140.85 -3.36,-7.77 -6.99,-15.41 -10.34,-23.18zm-259.26 0.01l0 0c27.67,-0.06 55.33,-0.01 83,-0.03 10.24,18.53 20.23,37.2 30.59,55.66 16.14,-18.69 32.88,-36.87 49,-55.59 23.12,-0.17 46.23,-0.04 69.36,-0.05 -9.32,54.7 -19.32,109.28 -28.73,163.96 -22.98,0.15 -45.95,0.02 -68.93,0.07 3.16,-18.11 6.31,-36.24 9.54,-54.35 -16.55,18.14 -32.81,36.55 -49.33,54.73 -10.37,-18.31 -19.95,-37.05 -30.47,-55.26 -3.28,18.28 -6.55,36.57 -9.73,54.88 -22.97,-0.01 -45.92,0.02 -68.87,-0.01 8.14,-47.05 16.74,-94.01 24.73,-141.07 -2.69,-7.92 -6.9,-15.25 -10.16,-22.94zm243.65 -198.07l0 0c55.81,-0.01 111.64,0.08 167.45,-0.03 10.01,8.1 19.59,16.74 29.68,24.74 -3.28,20.07 -6.86,40.08 -10.57,60.07 -11.93,7.37 -23.58,15.16 -35.4,22.72 -4.72,3.39 -10.92,1.32 -16.33,2.02 12.92,18.18 25.96,36.27 38.77,54.53 -24.66,0.09 -49.31,-0.05 -73.96,0.05 -12.34,-16.85 -24.14,-34.08 -36.5,-50.92 -2.87,16.95 -6.1,33.82 -8.98,50.77 -22.97,0.3 -45.95,0.02 -68.94,0.15 8.19,-46.73 16.59,-93.41 24.66,-140.15 -1.56,-8.39 -6.98,-15.84 -9.88,-23.95zm76.39 36.09l0 0c-2.25,12.43 -4.48,24.86 -6.67,37.29 16.65,-0.08 33.31,-0.02 49.96,-0.04 2.17,-12.41 4.37,-24.8 6.68,-37.18 -16.66,-0.21 -33.31,-0.07 -49.97,-0.07zm-514.68 -36.07l0 0c27.87,0 55.76,-0.02 83.63,0.02 12.71,21.34 25.62,42.57 38.41,63.86 3.66,-21.29 7.36,-42.59 11.05,-63.88 23.04,-0.05 46.07,0.05 69.1,-0.05 -9.61,54.7 -19.25,109.38 -28.91,164.08 -22.97,0.09 -45.95,-0.06 -68.92,0.09 -11.07,-17.82 -21.72,-35.9 -32.79,-53.69 -1.83,-2.92 -3.35,-6.02 -4.68,-9.17 -0.63,-0.05 -1.27,-0.06 -1.92,-0.08 -2.82,21.08 -7.32,41.89 -10.72,62.87 -22.87,0 -45.75,0 -68.62,0l0 -3.02c8.57,-45.58 16.3,-91.35 24.33,-137.05 -1.4,-8.47 -6.83,-15.96 -9.96,-23.98zm1531.57 -0.03l0 0c27.84,0.06 55.68,0 83.52,0.03 12.79,21.28 25.58,42.57 38.42,63.81 3.7,-21.22 7.46,-42.43 10.99,-63.69 23.07,-0.2 46.15,-0.24 69.22,0.01 -9.68,54.62 -19.33,109.24 -28.92,163.87 -23.03,0.12 -46.08,0.05 -69.12,0.03 -12.84,-21.31 -25.81,-42.53 -38.72,-63.79 -3.62,21.31 -7.51,42.58 -11.27,63.88 -22.95,-0.12 -45.9,-0.1 -68.84,0 8.16,-47.3 17.02,-94.51 24.71,-141.87 -2.85,-7.64 -6.81,-14.79 -9.99,-22.28zm-227.88 0.01l0 0c55.86,0.02 111.72,0.02 167.59,0 9.91,8.35 19.87,16.66 29.7,25.12 -3.78,19.87 -6.88,39.86 -10.74,59.69 -12.97,7.84 -25.35,16.67 -38.39,24.38 -4.39,0.46 -8.84,0.13 -13.23,0.18 12.58,18.44 26.04,36.27 38.61,54.72 -24.79,-0.17 -49.58,0.3 -74.35,-0.25 -11.85,-16.94 -23.75,-33.86 -36.03,-50.49 -3.11,16.93 -5.81,33.93 -9.26,50.8 -22.9,-0.18 -45.78,-0.05 -68.67,-0.06 8.22,-46.75 16.59,-93.48 24.69,-140.26 -1.74,-8.32 -6.99,-15.76 -9.92,-23.83zm76.34 36.16l0 0c-2.14,12.41 -4.41,24.79 -6.65,37.18 16.66,0.02 33.31,-0.06 49.97,0.04 2.21,-12.41 4.4,-24.84 6.71,-37.25 -16.69,-0.09 -33.36,-0.15 -50.03,0.03zm-297.3 -36.54l0 0c64.83,0.12 129.67,-0.35 194.48,0.23 -2.31,11.88 -4.39,23.8 -6.42,35.73 -37.06,0.22 -74.13,-0.13 -111.19,0.18 -1.5,8.8 -3.18,17.57 -4.65,26.38 23.45,0.04 46.88,0 70.32,0.02 -5.15,11.9 -10.17,23.83 -15.46,35.66 -20.41,-0.07 -40.83,-0.02 -61.23,-0.03 -1.75,10.09 -3.69,20.16 -5.22,30.3 37.06,-0.16 74.13,-0.01 111.18,-0.08 -2.11,12.07 -4.1,24.16 -6.51,36.16 -59.99,-0.23 -119.99,-0.03 -180,-0.08 8.17,-47.25 16.91,-94.41 24.76,-141.67 -2.87,-7.8 -6.91,-15.11 -10.06,-22.8zm-227.27 0.37l0 0c27.63,0.01 55.25,0.11 82.87,-0.07 -3.59,21.33 -7.37,42.6 -11.1,63.9 16.56,-0.07 33.11,0.13 49.66,-0.09 4.48,-21.07 7.43,-42.58 11.5,-63.78 23,0.15 46.02,0.02 69.04,0.05 -9.65,54.69 -19.26,109.39 -28.93,164.05 -23.04,-0.01 -46.09,0.14 -69.12,-0.06 3.84,-21.38 7.6,-42.76 11.38,-64.13 -16.65,0 -33.3,0 -49.96,0.01 -3.71,21.38 -7.59,42.74 -11.32,64.13 -22.93,0.2 -45.86,-0.05 -68.8,0.12 8.09,-47.16 16.64,-94.24 24.89,-141.38 -3.38,-7.58 -7.06,-15.05 -10.11,-22.75zm-201.69 -0.02l0 0c60.84,0.17 121.71,-0.13 182.57,0.15 -2.32,11.98 -4.14,24.03 -6.54,35.99 -18.53,-0.15 -37.04,0.07 -55.55,-0.12 -7.65,42.61 -15.21,85.24 -22.5,127.91 -23.08,0.44 -46.17,0.02 -69.25,0.2 7.41,-42.68 15.14,-85.34 22.43,-128.04 -11.05,0.23 -22.13,-0.45 -33.14,0.32 -8.99,4.04 -17.78,8.6 -26.74,12.74 3.01,-16.37 5.66,-32.8 8.72,-49.15zm-417.67 -0.32l0 0c49.41,-0.11 98.83,-0.03 148.24,-0.05 10.06,8.6 20.53,16.69 30.37,25.52 -7.15,37.97 -13.35,76.11 -20.43,114.09 -13.07,8.04 -25.67,16.91 -38.89,24.69 -39.87,0.42 -79.79,0.04 -119.67,0.19 -9.98,-8.52 -20.3,-16.64 -30,-25.46 7,-37.96 13.41,-76.04 20.32,-114.02 5.6,-3.48 11.07,-7.16 16.67,-10.64 -2.07,-4.84 -4.33,-9.59 -6.61,-14.32zm57.71 36l0 0c-5.5,30.78 -10.9,61.61 -16.49,92.38 16.64,0 33.28,-0.05 49.92,0.03 5.65,-30.77 11.02,-61.61 16.48,-92.41 -16.63,0 -33.27,-0.02 -49.91,0zm478.29 -630.26l0 0c-35.17,33.81 -57.85,79.86 -65.19,127.93 -6.33,40.45 -0.6,82.39 14.84,120.19 4.51,-7.31 8.87,-14.83 15.05,-20.9 19.42,47.46 53.03,91.44 99.96,114.18 -2.51,-8.24 -4.33,-16.67 -4.79,-25.29 15.82,12.43 35.01,20.03 54.66,23.86 28.39,5.32 57.8,3.07 85.74,-3.83 -27.19,-5.02 -54.2,-12.03 -79.17,-24.16 -44.33,-20.71 -81.33,-56.94 -101.85,-101.45 -9.21,-19.68 -15.82,-40.74 -18.03,-62.42 -4.7,5.67 -9.06,11.62 -13.3,17.64 -5.54,-40.97 3.76,-82.51 19,-120.46 -7.75,4.28 -14.93,9.48 -21.62,15.25 11.98,-34.9 35.46,-64.41 61.21,-90.25 -17.65,5.95 -33.04,17.07 -46.51,29.71zm-0.86 -259.4l0 0c-29.42,10.16 -59.41,18.7 -89.69,25.77 7.76,1.56 15.73,1.76 23.5,3.28 46.55,7.92 92.2,26.62 127.56,58.43 37.6,-17.99 76.19,-33.9 115.73,-47.09 -7.62,8.13 -16.3,15.19 -24.13,23.11 -11.73,10.92 -22.73,22.56 -33.98,33.96 10.69,0.08 21.38,0.28 32.03,0.98 -43.28,21.74 -85.09,46.71 -123.25,76.65 -55.71,42.99 -103.24,95.2 -150.03,147.43 -2.24,-12.16 -4.11,-24.39 -5.84,-36.62 -111.55,111.77 -198.07,246.61 -263.9,389.68 28.83,-2.69 57.68,-5.22 86.61,-6.83 45.02,-89.86 100.32,-175.1 167.9,-249.69 -9.07,17.5 -18.88,34.64 -27.43,52.42 -30.77,63.13 -56.24,128.78 -77.5,195.7 103.4,-0.28 206.69,12.13 307.57,34.6l1.03 -0.45 -0.38 0.74c14.66,2.92 29.03,7.05 43.38,11.16 -17.43,3.91 -35.46,6.87 -51.73,14.46 67.54,16.76 135.03,34.69 199.9,60.12 8.26,-22.33 17.42,-44.32 26.8,-66.22 -24.21,-7.53 -49.17,-12.62 -74.37,-15.31 14.76,-13.43 32.61,-22.83 50.08,-32.26 -14.49,-4.08 -29.27,-7.11 -44.26,-8.55 17.66,-15.99 39.34,-26.66 60.99,-36.14 -4.11,-28.3 -1.24,-57.32 5.84,-84.93 10.69,41.8 28.45,82.41 56.17,115.78 19.82,24 45.04,43.9 73.99,55.63 16.72,5.77 33.99,9.85 51.37,13.04 -4.52,-9.14 -9.86,-17.86 -14.98,-26.68 26.98,13.63 47.87,38.32 58.11,66.64 13.54,-8.67 24.94,-20.19 35.4,-32.3 6.83,11.98 10.74,25.42 12.68,39.02 18.24,-9.24 34.74,-23.88 42.12,-43.35 5.48,-13.92 5.02,-29.44 1.31,-43.74 -4.08,-0.12 -8.16,-0.15 -12.22,-0.12 -35.13,0.6 -70.75,-4.06 -103.63,-16.87 -29.36,-11.45 -56.03,-30.22 -75.79,-54.86 -15.58,-19.06 -27.05,-41.23 -35.1,-64.43 -11.75,-34.25 -16.21,-70.71 -15.74,-106.81 -29.32,-11.74 -61.68,-13.39 -92.82,-10.48 55.32,-61.56 137.82,-96.87 220.38,-96.62 36.52,-0.47 72.88,5.61 107.91,15.64 34.6,9.08 70.79,15.51 106.58,10.72 24.13,-3.1 48.02,-13.54 63.82,-32.54 -9.88,-42.46 -44.03,-75.57 -82.76,-93.15 8.54,-5.45 18.94,-6.33 28.45,-9.24 -48.24,-12.35 -98.97,-18.38 -148.44,-10.44 21.61,6.66 42.77,14.7 63.83,22.93 -7.85,4.81 -14.55,11.3 -19.82,18.82 -29.34,-11.96 -59.27,-22.62 -89.76,-31.28 -16.09,4.32 -31.93,10.72 -46.38,19.07 43.73,5.19 87.08,13.41 129.75,24.23 -3.15,8.4 -5.02,17.25 -5.15,26.23 -51.71,-14.23 -104.55,-24.59 -157.89,-30.13 -16.74,11.06 -31.67,25.03 -44.69,40.27 67.72,-6.78 136.26,-5.75 203.73,3.13 1.5,9.37 5.19,18.28 10.26,26.28 -144.17,-23.72 -294.01,-11.1 -432.31,35.91 -19.09,6.25 -37.7,13.81 -56.49,20.85 21.19,-13.51 44.14,-23.96 66.98,-34.3 65.07,-26.86 134.07,-43.82 204.02,-51.47 5.12,-14.5 12.24,-28.24 20.54,-41.16l0.04 -1.28 -0.6 -1.08 0.03 0c-102.31,-8.02 -205.87,-0.39 -305.85,22.85 -2.88,0.78 -5.78,1.41 -8.74,1.58 11.26,-5.1 23.03,-9.01 34.71,-13.01 76.44,-24.72 157.06,-35.25 237.25,-35.11 20.33,-0.38 40.66,1.37 60.93,1.8 5.48,-5.5 10.27,-11.71 16.24,-16.75 4.57,-4.64 10.2,-8.15 14.38,-13.17 -108.85,-23.85 -222.12,-27.2 -332.21,-9.91 4.24,-2.16 8.86,-3.37 13.42,-4.63 27.18,-7.67 55,-12.9 83,-16.47 70.94,-8.76 143.08,-6.48 213.57,5.06 12.99,1.82 25.77,4.82 38.74,6.82 -24.61,-14.59 -38.01,-44.69 -34.37,-72.79 -8.78,-1.71 -17.51,-3.55 -26.33,-5.12 -18.56,-3.73 -37.53,-5.34 -56.09,-8.75 24.62,-11.22 51.58,-16.64 78.51,-18.21 34.35,-1.76 68.95,2.22 102.15,11.23 -0.54,-9.81 1.77,-19.73 6.51,-28.33 11.56,24.04 28.85,44.62 46.63,64.27 16.68,17.72 37.25,31.32 58.99,42.03 31.3,17.18 65.59,28.43 100.57,35.28 -7.53,-34.19 -27.21,-65.32 -53.97,-87.76 2.05,14.38 1.57,29.61 -4.23,43.12 -4.31,-20.4 -13.72,-39.61 -26.93,-55.73 -16.57,-21.41 -38.66,-37.98 -62.52,-50.48 -27.89,-14.53 -58.2,-23.91 -88.92,-30.29 -38.31,-8.17 -77.58,-11.15 -116.69,-10.32 12.31,-7.72 26.12,-12.81 40.07,-16.67 -32.23,-6.53 -65.12,-9.36 -97.97,-9.93 -35.51,0.23 -71.29,3.65 -105.44,13.81 6.53,12.04 12.12,24.84 14.59,38.39 -38.53,-31.38 -84.95,-53.82 -134.4,-60.78 -37.14,-5.44 -75.94,-2.27 -110.93,11.71zm478.11 162.9l0 0c7.06,10.62 18.34,17.68 30.14,22 11.22,-4.17 22.69,-7.79 34.44,-10.07 -5.11,-4.61 -9.42,-9.98 -13.84,-15.2 -5.83,5.83 -12.33,10.92 -18.97,15.76 -4.44,-10.36 -5.64,-21.79 -5.44,-32.96 -10.16,-4.19 -20.73,-7.29 -31.18,-10.67 -4.2,10.37 -1.13,22.14 4.85,31.14zm259.4 76.14l0 0c26.5,12.16 49.1,33.5 60.8,60.42 6.84,-4.45 13.19,-9.75 18.16,-16.28 -20.51,-23.02 -49.22,-37.3 -78.96,-44.14zm43.18 101.74l0 0c-9.54,25.89 -3.39,56.24 15.03,76.69 26.33,-23.15 32.13,-62.78 22.29,-95.18 -11.22,8.33 -23.84,14.7 -37.32,18.49zm-112.76 62.31l0 0c-2.37,3.23 -0.93,8.43 -1.76,12.41 21.56,0.28 42.32,6.3 63.11,11.38 3.43,-5.61 6.16,-11.64 7.49,-18.11 7.22,18.53 7.14,39.29 2.58,58.48 14.25,-5.25 26.86,-14.78 35.86,-26.99l-0.05 -0.9c-14.35,-14.96 -23.8,-34.23 -27.96,-54.5 -24.44,12.56 -51.96,17.78 -79.27,18.23zm-72.23 -12.18l0 0c5.75,24.08 3.06,50.54 -10.11,71.8 29.86,-8.67 57.17,-30.36 67.05,-60.55 -19.38,-1.09 -38.7,-4.54 -56.94,-11.25zm-170.35 101.58l0 0c4.66,34.48 15.73,68.62 35.74,97.34 17.54,-4.16 33.81,-13.24 47.36,-25.04 18.41,-15.98 30.18,-40.02 29.43,-64.6 -1.29,-22.78 -11.9,-45 -28.63,-60.46 -1.24,15.82 -3.53,34 -16.79,44.61 -3.73,-11.34 -8.47,-22.46 -15.18,-32.38 -10.54,-16.28 -27.6,-28.22 -46.83,-31.51 -8.93,22.84 -7.75,48.11 -5.1,72.04zm112.15 81.38l0 0c-14.08,20.48 -36.85,33.26 -60,40.96 8.37,11.32 21.08,18.33 33.79,23.78 31.46,12.87 65.75,17 99.52,17.85 7.11,-8.87 13.14,-18.99 15.08,-30.33 0.83,-6.77 1.86,-14.56 -1.82,-20.64 -6.52,11.99 -17.17,21.14 -29.07,27.57 -6.18,3.25 -11.22,8.2 -14.65,14.27 -4.19,-0.27 -3.63,-6.37 -4.47,-9.42 -10.85,-1.7 -21.53,-4.3 -32.11,-7.12 -5.99,3.53 -12.88,5.19 -19.79,4.87 15.19,-17.18 23.83,-41.91 16.34,-64.38 -0.7,0.65 -2.11,1.94 -2.82,2.59z"/>
   <path class="fil2" d="M900.73 144.82c34.99,-13.98 73.79,-17.15 110.93,-11.71 49.45,6.96 95.87,29.4 134.4,60.78 -2.47,-13.55 -8.06,-26.35 -14.59,-38.39 34.15,-10.16 69.93,-13.58 105.44,-13.81 32.85,0.57 65.74,3.4 97.97,9.93 -13.95,3.86 -27.76,8.95 -40.07,16.67 39.11,-0.83 78.38,2.15 116.69,10.32 30.72,6.38 61.03,15.76 88.92,30.29 23.86,12.5 45.95,29.07 62.52,50.48 13.21,16.12 22.62,35.33 26.93,55.73 5.8,-13.51 6.28,-28.74 4.23,-43.12 26.76,22.44 46.44,53.57 53.97,87.76 -34.98,-6.85 -69.27,-18.1 -100.57,-35.28 -21.74,-10.71 -42.31,-24.31 -58.99,-42.03 -17.78,-19.65 -35.07,-40.23 -46.63,-64.27 -4.74,8.6 -7.05,18.52 -6.51,28.33 -33.2,-9.01 -67.8,-12.99 -102.15,-11.23 -26.93,1.57 -53.89,6.99 -78.51,18.21 18.56,3.41 37.53,5.02 56.09,8.75 -1.31,25.2 4.74,51.92 21.96,71.09 -70.49,-11.54 -142.63,-13.82 -213.57,-5.06 -28,3.57 -55.82,8.8 -83,16.47 -4.56,1.26 -9.18,2.47 -13.42,4.63 110.09,-17.29 223.36,-13.94 332.21,9.91 -4.18,5.02 -9.81,8.53 -14.38,13.17 -5.97,5.04 -10.76,11.25 -16.24,16.75 -20.27,-0.43 -40.6,-2.18 -60.93,-1.8 -80.19,-0.14 -160.81,10.39 -237.25,35.11 -11.68,4 -23.45,7.91 -34.71,13.01 2.96,-0.17 5.86,-0.8 8.74,-1.58 99.98,-23.24 203.54,-30.87 305.85,-22.85l-0.03 0c-58.76,1.35 -118.28,15.55 -168.44,46.92 -20.82,13.09 -39.76,29.21 -55.56,48.07 -22.84,10.34 -45.79,20.79 -66.98,34.3 18.79,-7.04 37.4,-14.6 56.49,-20.85 -33.89,47.3 -47.93,106.12 -49.17,163.61 0.08,11.03 -0.27,22.05 0.32,33.07 -44.33,-20.71 -81.33,-56.94 -101.85,-101.45 -9.21,-19.68 -15.82,-40.74 -18.03,-62.42 -4.7,5.67 -9.06,11.62 -13.3,17.64 -5.54,-40.97 3.76,-82.51 19,-120.46 -7.75,4.28 -14.93,9.48 -21.62,15.25 11.98,-34.9 35.46,-64.41 61.21,-90.25 -17.65,5.95 -33.04,17.07 -46.51,29.71 -35.17,33.81 -57.85,79.86 -65.19,127.93 -6.33,40.45 -0.6,82.39 14.84,120.19 4.51,-7.31 8.87,-14.83 15.05,-20.9 19.42,47.46 53.03,91.44 99.96,114.18 -2.51,-8.24 -4.33,-16.67 -4.79,-25.29 15.82,12.43 35.01,20.03 54.66,23.86 -16.5,33.94 -32.81,67.97 -49.21,101.96l-1.03 0.45c-100.88,-22.47 -204.17,-34.88 -307.57,-34.6 21.26,-66.92 46.73,-132.57 77.5,-195.7 8.55,-17.78 18.36,-34.92 27.43,-52.42 -67.58,74.59 -122.88,159.83 -167.9,249.69 -28.93,1.61 -57.78,4.14 -86.61,6.83 65.83,-143.07 152.35,-277.91 263.9,-389.68 1.73,12.23 3.6,24.46 5.84,36.62 46.79,-52.23 94.32,-104.44 150.03,-147.43 38.16,-29.94 79.97,-54.91 123.25,-76.65 -10.65,-0.7 -21.34,-0.9 -32.03,-0.98 11.25,-11.4 22.25,-23.04 33.98,-33.96 7.83,-7.92 16.51,-14.98 24.13,-23.11 -39.54,13.19 -78.13,29.1 -115.73,47.09 -35.36,-31.81 -81.01,-50.51 -127.56,-58.43 -7.77,-1.52 -15.74,-1.72 -23.5,-3.28 30.28,-7.07 60.27,-15.61 89.69,-25.77zm542.36 1317.17l0 0c3.53,-6.71 6.92,-13.49 10.39,-20.24 1.01,6.75 2.12,13.49 3.16,20.25 -4.52,0 -9.05,0 -13.55,-0.01zm-325.04 -26.45l0 0c6.78,-0.5 15.21,0.81 18.31,7.79 3.75,9.74 -1.09,22.27 -10.77,26.54 -4.26,2.27 -9.2,2.04 -13.84,2.17 2.12,-12.16 4.29,-24.32 6.3,-36.5zm-573.88 -46.45l0 0c3.75,8.49 7.81,16.84 11.5,25.37 1.34,2.42 0.81,5.19 0.38,7.82 -5.86,32.56 -11.48,65.16 -17.36,97.72l1324.04 0c7.6,-41.54 14.69,-83.2 22.15,-124.78l0 -6.13c-446.9,0 -893.81,0 -1340.71,0zm715.89 74.6l0 0c-2.18,-22.58 17.47,-43.76 39.84,-44.77 5.8,-0.48 11.48,1.14 16.95,2.97 -0.78,6.99 -2.24,13.88 -3.38,20.82 -5.04,-5.6 -13.07,-8.74 -20.37,-5.73 -11.93,3.73 -19.71,20.81 -10.65,30.86 8.05,7.25 20.02,3.18 27.32,-3.12 -1.49,7.03 -2.48,14.17 -3.92,21.21 -7.84,2.16 -16.16,4.26 -24.21,1.86 -11.22,-2.54 -20.93,-12.31 -21.58,-24.1zm489.84 -42.1l0 0c10.33,-5.09 22.65,-2.49 32.51,2.52 -2.97,4.77 -6.17,9.39 -9.47,13.95 -4.78,-4.53 -14.2,-6.8 -18.27,-0.28 -2.32,2.75 1.41,5.8 3.96,6.46 7.32,2.62 17.33,4.59 19.37,13.49 1.09,8.71 -2.25,18.38 -9.02,24.14 -12.34,9.93 -30.97,8.82 -43.36,-0.45 3.23,-4.88 6.66,-9.64 10.07,-14.41 3.45,2.78 7,6.03 11.64,6.61 4.93,1.21 11.07,-1.38 12.04,-6.76 -0.33,-4.38 -5.35,-5.4 -8.7,-6.6 -5.7,-1.85 -12.94,-3.59 -15.08,-9.96 -2.58,-11.26 3.85,-23.86 14.31,-28.71zm-1125.36 -1l0 0c6.11,-0.05 12.23,-0.1 18.36,0.14 1.11,13.75 2.42,27.5 3.86,41.24 7.61,-13.31 14.27,-27.23 20.68,-41.18 4.79,-0.26 9.61,-0.28 14.43,-0.2 2.04,13.91 3.38,27.91 5.65,41.79 6.62,-13.87 13.05,-27.82 19.49,-41.75 6.17,-0.09 12.33,-0.07 18.51,-0.04 -10.78,22.07 -21.79,44.06 -32.54,66.17 -6.03,0.13 -12.07,0.12 -18.12,0.08 -2.08,-12.24 -2.5,-24.77 -5.31,-36.87 -6.42,12.27 -12.47,24.71 -19.03,36.91 -5.98,-0.02 -11.95,-0.02 -17.93,-0.07 -2.48,-22.1 -5.63,-44.11 -8.05,-66.22zm205.33 0.02l0 0c5.9,-0.05 11.8,-0.05 17.7,-0.03 -3.78,22.08 -7.73,44.16 -11.47,66.26 -5.9,0.02 -11.8,0.02 -17.68,0.02 3.76,-22.09 7.75,-44.15 11.45,-66.25zm129.07 0.05l0 0c5.9,-0.13 11.8,-0.13 17.7,0.02 -2.94,17.08 -5.97,34.16 -8.9,51.25 6.86,0.02 13.72,0 20.58,0.02 -1.08,4.9 -1.23,10.09 -2.95,14.83 -12.63,0.25 -25.27,-0.02 -37.91,0.08 3.84,-22.07 7.73,-44.13 11.48,-66.2zm144.11 -0.05l0 0c-3.84,22.09 -7.67,44.16 -11.53,66.25 8.15,-0.02 16.29,0 24.44,0.03 22.24,0.7 42.97,-20.81 39.89,-43.18 -1.33,-11.34 -10.77,-20.68 -21.91,-22.59 -10.26,-1.17 -20.61,-0.3 -30.89,-0.51zm344.51 -0.03l0 0c-12.31,22.1 -24.66,44.21 -37.02,66.28 6.28,0 12.56,-0.02 18.86,0.02 2.12,-3.81 4.31,-7.59 6.63,-11.29 7.69,0.15 15.38,0.07 23.08,0.08 0.76,3.68 1.48,7.36 2.15,11.07 6.34,0.19 12.68,0.19 19.03,-0.03 -4.76,-21.94 -9.12,-43.98 -13.44,-66.02 -6.43,-0.18 -12.86,-0.13 -19.29,-0.11zm139.31 0l0 0c15.38,0.03 30.76,-0.1 46.13,0.08 -0.99,4.84 -1.8,9.71 -2.45,14.63 -4.79,0.22 -9.58,0.25 -14.35,0.18 -3,17.05 -6.11,34.07 -8.8,51.17 -5.95,0.3 -11.91,0.25 -17.84,0.2 2.96,-17.12 5.98,-34.22 8.91,-51.33 -4.72,-0.04 -9.41,-0.04 -14.1,-0.04 0.81,-4.97 1.67,-9.94 2.5,-14.89z"/>
   <path class="fil3" d="M1326.08 637.31c-2.65,-23.93 -3.83,-49.2 5.1,-72.04 19.23,3.29 36.29,15.23 46.83,31.51 6.71,9.92 11.45,21.04 15.18,32.38 13.26,-10.61 15.55,-28.79 16.79,-44.61 16.73,15.46 27.34,37.68 28.63,60.46 0.75,24.58 -11.02,48.62 -29.43,64.6 -13.55,11.8 -29.82,20.88 -47.36,25.04 -20.01,-28.72 -31.08,-62.86 -35.74,-97.34z"/>
  </g>
 </g>
</svg>
