<?xml version="1.0" encoding="UTF-8"?>
<!DOCTYPE svg PUBLIC "-//W3C//DTD SVG 1.1//EN" "http://www.w3.org/Graphics/SVG/1.1/DTD/svg11.dtd">
<!-- Creator: CorelDRAW -->
<svg xmlns="http://www.w3.org/2000/svg" xml:space="preserve" width="2000px" height="1600px" version="1.1" style="shape-rendering:geometricPrecision; text-rendering:geometricPrecision; image-rendering:optimizeQuality; fill-rule:evenodd; clip-rule:evenodd"
viewBox="0 0 2000 1600"
 xmlns:xlink="http://www.w3.org/1999/xlink">
 <defs>
  <style type="text/css">
   <![CDATA[
    .fil1 {fill:#00573C}
    .fil2 {fill:#FEFEFE}
    .fil0 {fill:#FFC324}
   ]]>
  </style>
 </defs>
 <g id="Capa_x0020_1">
  <metadata id="CorelCorpID_0Corel-Layer"/>
  <g id="North_x0020_Dakota_x0020_State_x0020_Bison.cdr">
   <path class="fil0" d="M962.6 357.75c63.46,-2.07 127.62,6.06 187.74,26.89 52.82,18.27 102.25,47.35 141.98,86.88 51.22,-29.5 111.1,-44.71 170.24,-41.15 -6.32,-12.62 -17.62,-21.43 -27.85,-30.68 36.79,-3.29 74.51,0.44 109.26,13.33 26.61,9.83 51.14,25.35 71.19,45.45 20.5,20.44 36.26,45.28 47.69,71.81 11.43,27.53 24.86,54.62 43.9,77.75 16.26,19.99 38.76,36.74 65.17,39.02 -16.08,14.85 -35.71,25.22 -56.08,32.83 11.48,23.76 33.62,39.96 55.76,53.09 -17.95,8.56 -37.53,13.76 -57.38,15.21 7.46,10.01 16.15,18.97 24.98,27.76 -16.62,12.54 -37.23,18.94 -57.79,20.76 -9.8,29.38 -4.25,60.55 -2.49,90.68 14.85,1.89 29.78,3.15 44.65,4.96 1.27,-15.61 8.24,-31.46 21.5,-40.42 13.91,-9.17 31.87,-12.34 47.97,-7.8 9.35,2.26 17.16,8 24.27,14.21 14.71,0.76 29.8,3.7 42.24,12.03 20.6,13.49 31.93,38.94 30.44,63.23 -0.17,3.88 -0.79,7.96 1.18,11.52 5.62,12.3 7.4,25.81 8.83,39.1 -1.28,11.51 -2.6,23.21 -7.17,33.94 -10.68,26.97 -34.43,48.3 -62.53,55.65 -7.14,10.1 -15.27,19.99 -26.35,26.02 -18.36,10.53 -41.51,11.56 -61.09,3.85 -18.36,-7.18 -32.96,-22.65 -40.13,-40.89 -12.47,-5.95 -23.59,-15.82 -28.67,-28.88 -6.01,-15.58 -4.58,-33.72 3.61,-48.23 -11.75,-7.63 -23.49,-15.26 -35.17,-22.99 -17.18,11.11 -37.25,17.06 -57.49,19.21 -10.48,20.33 -30.09,35.5 -52.36,40.7 -11.72,22.43 -32.27,39.76 -56.02,48.3 -26.65,9.69 -55.99,9.13 -83.49,3.58 8.24,-7.09 15.58,-15.21 21.96,-24.01 -8.84,-0.97 -17.6,-2.64 -26.08,-5.35 5.93,-11.45 10.43,-24.27 8.87,-37.35 -1.29,-13.55 -12.02,-24.95 -24.7,-28.98 -7.37,57.36 -40.03,109.82 -84.67,145.85 -36.38,29.75 -80.38,48.59 -125.47,60.69 12.06,-20.96 19.34,-44.62 21.21,-68.73 -21.57,23.6 -48.57,41.42 -76.6,56.44 -59.77,31.44 -125.3,50.31 -191.28,63.37 -13.15,2.15 -26.15,5.66 -39.48,6.16 17.71,-22.71 29.98,-50.42 31.48,-79.42 1.33,-25.16 -7.24,-50.27 -22.16,-70.39 -19.23,-26.16 -46.4,-45.15 -74.68,-60.39 -47.24,-24.87 -98.71,-40.59 -150.52,-52.65 -15.97,10.82 -34.72,16.6 -53.44,20.54 -39.2,8.12 -79.44,5.43 -119.18,5.94 -63.1,0 -126.2,0.02 -189.29,0 -8.79,-34.4 -17.84,-68.71 -26.61,-103.1 -0.48,-1.86 -1.27,-3.58 -2.05,-5.3 -10.31,35.95 -20.18,72.03 -30.39,108.01 -46.68,-0.08 -93.38,0.02 -140.06,-0.05 8.88,-33.82 18.45,-67.46 27.49,-101.24 7.85,0 15.68,-0.07 23.51,0.06 14.03,-49.45 27.53,-99.05 41.28,-148.58 -7.74,0 -15.51,0.02 -23.25,-0.01 9.4,-33.83 18.78,-67.68 28.67,-101.37 39.05,0.29 78.11,0 117.16,0.16 9.28,34.39 18.09,68.94 27.74,103.25 9.72,-35.7 19.7,-71.34 29.08,-107.14 -11.29,-17.18 -22.34,-34.64 -30.66,-53.51 35.94,-0.02 71.82,-4.02 107.2,-10.28 45.33,-8.42 90.37,-21.4 130.86,-43.9 8.39,-4.82 16.88,-9.62 24.44,-15.68 -19.28,-1.62 -38.62,-2.17 -57.94,-2.37 46.14,-43.07 100.74,-76.71 158.76,-101.3 87.61,-37.13 185,-49.94 279.34,-38.16 -6.31,-9.85 -13.85,-18.78 -21.08,-27.93z"/>
   <path class="fil1" d="M1549.39 656.1c10.17,0.81 19.22,6.73 25.08,14.95 7.3,10.08 11.44,22.06 14.12,34.13 4.22,-1.98 8.54,-3.75 12.98,-5.2 -4.44,26.12 -0.69,53.28 9.22,77.77 -11.63,-1.37 -21.78,-8.71 -27.92,-18.48 -0.52,-0.8 -1.59,-2.38 -2.13,-3.16 -4.79,-0.17 -9.87,0 -14.21,-2.4 -9.26,-4.44 -14.53,-15.59 -12.25,-25.58 0.98,-5.11 4.37,-9.25 7.36,-13.35 -8.19,2.33 -16.42,6.9 -19.78,15.17 -4.39,8.42 -2.11,18.33 2.53,26.11 -9.28,-6.33 -16.79,-15.59 -19.53,-26.61 -3.79,-13.42 -0.33,-29.08 9.96,-38.75 6.64,-6.74 15.9,-10.42 25.27,-10.96 -2.92,-8.15 -6.38,-16.11 -10.7,-23.64zm-1034.8 16.08l0 0c30.63,-0.34 61.28,-0.05 91.91,-0.15 21.35,-0.17 42.84,0.24 63.92,3.92 12.06,2.09 24.15,5.72 34.29,12.81 16.23,10.93 26.75,28.74 31.84,47.35 4.38,15.95 5.52,32.72 3.85,49.16 -3.37,36.74 -13.21,72.91 -29.03,106.26 -13.46,27.9 -30.74,55.56 -57.34,72.64 -30.38,19.61 -67.44,24.69 -102.92,25.01 -42.78,0.28 -85.56,0.1 -128.34,0.08 6.24,-22.48 12.79,-44.87 18.92,-67.39 8.92,-0.13 17.85,-0.05 26.79,-0.06 16.85,-60.76 33.71,-121.5 50.47,-182.27 -7.7,-0.04 -15.43,0.25 -23.11,-0.51 6.25,-22.28 12.69,-44.52 18.75,-66.85zm42.35 246.55l0 0c16.16,-0.62 33.66,-1.55 47.15,-11.61 12.35,-9.58 19.09,-24.32 25.79,-38.02 12.82,-29.22 20.49,-60.74 22.58,-92.55 0.18,-9.86 -0.37,-21.97 -9.11,-28.32 -11.03,-7.21 -24.9,-5.84 -37.44,-6.23 -16.55,58.85 -32.6,117.83 -48.97,176.73zm1116.95 16.34l0 0c1.25,-3.39 2.48,-6.78 3.74,-10.18 53.47,18.84 107.07,37.27 160.45,56.34 0.57,7.78 -1.05,15.81 -5.99,22l-1.27 0.24c-52.3,-22.83 -104.6,-45.67 -156.93,-68.4zm73.43 -67.44l0 0c-9.76,9.25 -14.94,22.6 -15.26,35.91 -16.47,-2.26 -32.93,-4.6 -49.41,-6.78 -0.34,3.78 -0.73,7.56 -1.12,11.34 42.83,10.04 85.75,19.68 128.5,30.04 0.29,-0.12 0.86,-0.37 1.15,-0.49 2.29,-7.41 3.81,-17.09 -1.88,-23.27 -21.01,-3.31 -42.14,-5.87 -63.2,-8.86 1.88,-13.45 12.59,-26.18 26.77,-26.79 12.01,-1.23 22.63,7.23 27.58,17.62 13.58,-5.16 29.83,-2.17 40.13,8.24 11.85,11.27 16,29.1 11.83,44.74 11.86,20.24 12.13,46.88 -0.68,66.75 -9.43,15.44 -26.7,25.48 -44.79,26.01 -0.32,0.57 -0.93,1.7 -1.25,2.26 -6.73,16.45 -25.31,27.98 -43.1,23.79 -16.61,-3.37 -28.94,-18.41 -31.47,-34.81 -7.77,-1.34 -15.85,-3.77 -21.05,-10.05 -8.37,-9.16 -9.97,-22.69 -5.94,-34.15 0.66,0.42 1.96,1.26 2.6,1.68 17.33,11.92 33.87,25.03 51.34,36.71 9.58,1.01 17.92,-6.36 21.58,-14.73 -38.07,-21.08 -76.36,-41.77 -114.5,-62.73 -1.83,2.19 -3.63,4.38 -5.44,6.58 12.05,8.62 23.97,17.45 36.05,26.04 -10.92,11.36 -14.53,28.77 -9.33,43.63 3.79,11.99 13.89,21.39 25.89,25.01 5.36,17.3 18.19,32.43 35.13,39.25 16.09,6.62 35.17,5.11 50.04,-3.9 10.85,-6.27 18.74,-16.45 24.49,-27.42 25.84,-2.52 48.1,-21.57 57.6,-45.26 9.28,-22.54 7.53,-49.08 -4.29,-70.35 3.46,-20.03 -2.66,-41.97 -17.78,-55.91 -11.53,-11.29 -28.41,-16.34 -44.29,-13.91 -5.94,-7.59 -13.77,-14.02 -23.17,-16.67 -14.77,-4.78 -31.81,-0.44 -42.73,10.48zm-218.42 -52.89l0 0c1.85,-8.44 9.55,-14.33 17.92,-15.39 14.36,-2.11 29.03,1.57 42.41,6.65 -16.74,1.8 -34.34,6.87 -46.19,19.52 -5.58,5.66 -8.35,13.27 -10.41,20.78 -4.44,-9.76 -5.84,-21.05 -3.73,-31.56zm-1318.76 -143.13l0 0c-6.31,22.49 -12.83,44.94 -18.92,67.52 7.69,-0.01 15.39,-0.03 23.09,0 -16.7,60.78 -33.61,121.48 -50.43,182.2 -7.83,0.07 -15.66,0.07 -23.49,0.02 -6.23,22.48 -12.51,44.96 -18.43,67.52 35.12,0.1 70.24,-0.1 105.36,0.1 12.81,-44.97 25.26,-90.03 37.97,-135.04 2.65,-9.22 4.15,-18.7 5.89,-28.12 1.74,7.27 2.46,14.75 4.24,22.02 12.2,47.01 24.43,93.99 36.57,141.03 21.87,0.5 43.74,0.43 65.63,0.53 23.44,-83.38 46.18,-166.99 69.69,-250.36 7.79,0.15 15.59,0.09 23.39,0.07 6.19,-22.4 12.6,-44.72 18.88,-67.07 -35.35,0.09 -70.69,0.03 -106.04,-0.41 -9.99,36.78 -20.01,73.55 -30.05,110.31 -4.05,15.02 -8.34,30.02 -11.23,45.35 -1.9,-14.41 -6.51,-28.25 -10.04,-42.29 -10.27,-37.81 -19.88,-75.81 -30.53,-113.5 -30.51,0.27 -61.02,0.05 -91.55,0.12zm794.94 -294.2l0 0c12.57,14.2 23.63,29.91 31.26,47.33 -38.62,-14.86 -79.68,-23.24 -121.03,-24.63 -66.54,-2.36 -132.83,12.46 -194.31,37.3 -46.01,18.7 -89.92,42.58 -130.72,70.9 25.27,-3.75 51.39,-7.24 76.63,-1.4 -30.54,27.22 -66.21,48.3 -103.69,64.45 -59.5,25.23 -123.66,39.1 -188.16,42.06 8.94,13.28 20.33,24.59 31.67,35.79 70.01,0.07 140.01,0.04 210.02,0.04 19.2,0.42 38.49,0.96 57.45,4.45 16.57,2.79 32.99,8.47 46.42,18.82 19.72,14.5 32.37,36.88 38.47,60.27 8.15,-21.55 21.8,-41.18 40.18,-55.24 30.82,-24.12 70.68,-34.08 109.31,-33.82 34.83,-0.29 70.83,7.98 98.96,29.33 1.94,-7.76 4.12,-15.46 6.01,-23.22 23.58,-0.37 47.16,-0.07 70.73,-0.17 87.78,0.84 175.59,0.23 263.38,0.42 -10.63,37.58 -21.06,75.22 -31.88,112.74 -7.56,-0.17 -15.14,-0.04 -22.7,-0.14 -14.65,51.44 -28.54,103.08 -43.05,154.56 -8.9,29.95 -29.91,55.39 -55.88,72.31 -31.41,20.51 -69.41,29.76 -106.71,28.88 -29.28,-0.2 -59.69,-6.94 -83.42,-24.88 -19.55,-14.68 -32.37,-37.38 -35.66,-61.53 -8.86,19.66 -22.15,37.45 -39.14,50.8 -26.9,21.47 -60.98,32.88 -95.12,35.02 23.14,14.53 45.45,30.95 63.26,51.86 18.19,21 31.95,46.84 34.66,74.8 2.87,25.08 -4.25,50.36 -16.61,72.06 23.77,-4.62 47.36,-10.16 70.67,-16.77 54.9,-15.92 109.15,-37.65 154.92,-72.54 25.37,-19.37 47.65,-43.42 62.13,-72.08 10.71,32.1 10.11,68.45 -4.85,99.12 47.43,-20.02 92.51,-49.52 122.39,-92.2 20.58,-28.98 32.46,-63.67 35.36,-99 12.29,-0.39 24.98,1.05 35.98,6.89 12.71,6.39 23.51,18.11 25.82,32.5 2.08,11.56 -1.3,23.22 -6.39,33.55 11.02,4.15 23.02,4.66 34.56,2.75 -2.23,7.4 -6.33,14.01 -11.36,19.82 18.42,-0.53 36.96,-4.66 53.25,-13.42 15.07,-8.05 27.54,-21.52 32.67,-37.99 8.88,-0.17 17.93,-1.87 25.64,-6.46 13.6,-7.77 22.46,-21.66 27.91,-35.98 23.26,1.97 48.12,-4.46 64.56,-21.76 13.13,-14.65 23.22,-33.28 23.54,-53.35 0.1,-15.2 -2.79,-30.26 -2.57,-45.46 -0.35,-22.62 3.63,-45.03 8.78,-66.97 14.38,2.57 29.68,1.17 42.6,-6.06 -13.07,-12.97 -23.58,-28.91 -28.04,-46.93 15.51,8.91 34.42,9.76 51.22,4.2 -23.99,-14.26 -38.47,-40.06 -46.41,-66.1 16.88,3.36 35.49,1.13 49.15,-10.04 -14.55,-4.66 -26.16,-15.19 -36.61,-25.93 -21.13,-22.55 -36.45,-49.89 -48.69,-78.09 -4.55,-10.17 -8.1,-20.77 -12.94,-30.83 -11.7,-24.37 -28.35,-46.88 -50.5,-62.7 -26.53,-19.42 -60.26,-28.86 -93.02,-25.58 11.27,8.62 21.84,18.26 30.01,29.94 -57.22,-20.52 -122.43,-18.09 -177.53,7.83 18.77,2.53 37.23,8.12 53.75,17.47 -32.01,4.01 -62.98,17.77 -85.68,40.99 -30.4,-37.52 -67.51,-69.7 -109.48,-93.67 -60.92,-34.95 -131.06,-53.09 -201.17,-54.31zm-117.63 100.88l0 0c58.92,-7.58 119.69,-4.58 176.82,12.32 -23.41,10.76 -43.95,26.96 -61.13,46.05 -35.14,-9.36 -71.59,-13.41 -107.93,-12.74 -64.45,1.27 -128.01,16.47 -188.07,39.31 -31.83,11.91 -62.39,26.86 -92.43,42.63 76.4,-66.99 171.43,-114.53 272.74,-127.57zm557.12 32.67l0 0c-21.35,12.66 -38.69,32.96 -45.55,57.03 -7.41,25.34 -3.33,53.92 11.42,75.89 1.28,-22.26 10.38,-44.52 27.37,-59.39 -7.83,26.18 2.15,56.2 23.68,72.82 9.52,6.37 23.66,4.93 31.31,-3.76 8.34,-8.34 8.79,-22.92 1.23,-31.91 -8.76,-10.42 -15.36,-23.41 -15,-37.32 -0.49,-18.04 10.24,-34.46 24.15,-45.13 20.45,-15.62 46.73,-21.85 72.13,-21.73 -37.33,-27.36 -90.91,-30.23 -130.74,-6.5zm89.26 45.4l0 0c-12.88,7.1 -21.76,21.45 -21.02,36.32 0.21,13.55 8.39,26.07 19.8,33.06 0.96,18.7 -6.95,37.62 -20.82,50.19 -16.24,15.32 -39.7,21.23 -61.55,18.82 -22.75,-1.78 -46.38,-9.37 -61.86,-26.96 4.02,10 6.37,20.53 7.73,31.18 -12.62,-1.4 -25.23,1.92 -36.67,7.07 9.01,5.75 17.15,13.3 21.96,22.97 7.96,15.19 5.24,33.26 11.79,48.92 -15.05,8.98 -26.54,23.93 -29.9,41.28 13.53,-9.05 28.6,-16.15 44.79,-18.82 20.74,-3.67 43,-0.01 61.06,10.96 -14.87,0.23 -29.99,4.08 -42.13,12.91 -12.59,8.79 -20.97,22.46 -25.45,36.94 20.61,-15.09 48.04,-22.09 72.88,-14.48 -9.47,5.3 -19.28,10.36 -26.95,18.24 -17.32,15.9 -25.44,40.98 -20.85,64 3.67,16.39 15.77,28.71 25.96,41.35 6.35,7.59 11.36,17.92 7.16,27.83 18.58,-9.99 30.19,-29.49 33.83,-49.87 2.33,4.62 4.51,9.5 8.36,13.09 7.29,7.26 19.22,9.29 28.54,5 5.99,-3.14 10.11,-9.06 11.89,-15.48 -13.95,-13.4 -27.39,-27.32 -41.16,-40.91 -9.08,0.11 -18.17,-0.2 -27.24,0.26 0.14,-10.94 4.81,-22.16 13.83,-28.71 9.23,-6.31 22.22,-8.37 32.06,-2.14 12.2,7.76 19.36,21.09 24.4,34.24 3.29,8.91 10.2,16.72 19.38,19.73 9.4,3.02 19.81,2.36 29.06,-0.9 11.88,-4.38 18.8,-18.83 14.6,-30.8 -1.55,-4.91 -6.31,-9.06 -11.66,-8.6 -5.08,-0.19 -9.35,2.87 -13.57,5.23 -8.15,-7.04 -15.92,-14.85 -21.05,-24.44 -4.08,-7.53 -6.48,-16.79 -3.09,-25.04 4.24,-11.04 14.87,-17.59 24.93,-22.69 6.62,17.74 24.57,27.48 41.4,33.62 -0.59,-5.13 -1.12,-10.29 -0.79,-15.46 1.77,-34.37 10.34,-67.99 12.69,-102.32 10.19,6.82 22.87,9.97 35.03,7.88 -8.15,-8.23 -15.73,-17.13 -21.73,-27.05 -7.18,-12.42 -14.28,-25.6 -14.91,-40.27 8.83,2.14 17.73,4.12 26.75,5.27 -10.12,-14.18 -18.32,-29.57 -26.05,-45.15 -7.82,-15.2 -20.56,-28.57 -37.08,-34.02 8.03,-16.41 3.04,-38.08 -11.9,-48.74 -14.73,-11.48 -36.34,-12.91 -52.45,-3.51zm-731.12 148.24l0 0c-20.67,21.05 -30.36,51.39 -28.64,80.55 1.3,18.72 11.16,36.34 25.77,47.93 17.96,14.5 38.33,25.62 56.73,39.51 4.87,3.83 10.61,7.55 12.54,13.81 3.93,11.93 -2.7,25.41 -13.32,31.44 -12.2,6.7 -26.94,6.56 -40.34,4.54 -6.41,-1.71 -13.9,-2.85 -19.07,-6.75 3.46,-13.89 7.58,-27.6 11.23,-41.43 -21.89,-1.15 -43.83,-0.11 -65.72,-0.56 -8.74,30.66 -16.98,61.46 -25.7,92.13 37.29,25.11 84.24,33.53 128.48,28.38 30.78,-4.15 61.28,-17.12 82.66,-40.16 21.03,-22.35 31.74,-53.87 29.15,-84.4 -2.32,-19.56 -13.49,-37.42 -28.91,-49.42 -19.41,-15.3 -41.37,-27.02 -61.11,-41.88 -4.48,-3.58 -7.78,-9.17 -7.19,-15.06 0.59,-12.69 11.39,-22.97 23.27,-25.94 13.04,-3.12 26.9,-1.74 39.47,2.74 -2.87,9.97 -5.84,19.91 -8.72,29.89 21.9,-0.07 43.81,0.13 65.72,-0.11 6.76,-24.6 13.8,-49.14 20.64,-73.73 -10.91,-10.26 -24.34,-17.52 -38.52,-22.13 -25.58,-8.4 -53.12,-8.99 -79.65,-5.9 -29.02,3.96 -58.08,15.24 -78.77,36.55zm228.26 -32.11l0 0c37.41,-0.12 74.83,0.03 112.24,-0.07 -20.31,73.61 -40.8,147.2 -61.17,220.81 -1.74,7.66 -3.5,16.27 0.27,23.63 2.58,4.98 8.39,6.82 13.58,7.54 12.81,1.56 26.62,-1.38 36.61,-9.89 8.42,-7.2 13.65,-17.5 16.57,-28.05 19.6,-71.32 39.11,-142.67 58.72,-213.99 36.7,0.3 73.41,0.46 110.12,0.49 -6.55,22.29 -12.56,44.72 -19.07,67.02 -7.7,-0.02 -15.38,-0.07 -23.04,0.05 -15.58,56.53 -31.34,113 -46.97,169.51 -7.54,27.03 -27.17,49.53 -51.07,63.67 -32.5,19.39 -71.79,25.89 -109.12,21.38 -20.98,-2.56 -42.4,-9.67 -57.77,-24.75 -14.19,-13.64 -21.35,-33.59 -20.84,-53.1 -0.26,-12.15 3.02,-23.93 6.44,-35.46 13.49,-47.08 26.82,-94.2 40.25,-141.27 -7.86,-0.08 -15.74,-0.03 -23.61,-0.05 5.91,-22.5 11.92,-44.98 17.86,-67.47z"/>
   <path class="fil2" d="M887.45 478.29c58.92,-7.58 119.69,-4.58 176.82,12.32 -23.41,10.76 -43.95,26.96 -61.13,46.05 -35.14,-9.36 -71.59,-13.41 -107.93,-12.74 -64.45,1.27 -128.01,16.47 -188.07,39.31 -31.83,11.91 -62.39,26.86 -92.43,42.63 76.4,-66.99 171.43,-114.53 272.74,-127.57zm858.65 427.23l0 0c1.88,-13.45 12.59,-26.18 26.77,-26.79 12.01,-1.23 22.63,7.23 27.58,17.62 13.58,-5.16 29.83,-2.17 40.13,8.24 11.85,11.27 16,29.1 11.83,44.74 11.86,20.24 12.13,46.88 -0.68,66.75 -9.43,15.44 -26.7,25.48 -44.79,26.01 -0.32,0.57 -0.93,1.7 -1.25,2.26 -10.39,7.62 -23.66,11.47 -36.45,8.86 -16.39,-2.79 -29.57,-16.07 -34.09,-31.8 -9.03,-0.34 -18.26,-4.02 -23.39,-11.75 -4.15,-5.38 -5.03,-12.26 -5.03,-18.85 17.33,11.92 33.87,25.03 51.34,36.71 9.58,1.01 17.92,-6.36 21.58,-14.73 -38.07,-21.08 -76.36,-41.77 -114.5,-62.73 2.09,-3.26 4.16,-6.52 6.26,-9.79 46.15,22.78 92.63,44.92 138.86,67.61 6.83,-1.47 13.65,-3.16 20.55,-4.41l1.27 -0.24c4.94,-6.19 6.56,-14.22 5.99,-22 -53.38,-19.07 -106.98,-37.5 -160.45,-56.34 0.88,-3.31 1.74,-6.61 2.59,-9.94 37.6,10.45 75.32,20.54 112.93,30.97 5.66,-2.53 11.16,-5.38 16.88,-7.78 0.29,-0.12 0.86,-0.37 1.15,-0.49 2.29,-7.41 3.81,-17.09 -1.88,-23.27 -21.01,-3.31 -42.14,-5.87 -63.2,-8.86zm-204.24 -175.57l0 0c3.36,-8.27 11.59,-12.84 19.78,-15.17 -2.99,4.1 -6.38,8.24 -7.36,13.35 -2.28,9.99 2.99,21.14 12.25,25.58 4.34,2.4 9.42,2.23 14.21,2.4 0.54,0.78 1.61,2.36 2.13,3.16 -10.4,10.7 -30.16,9.33 -38.48,-3.21 -4.64,-7.78 -6.92,-17.69 -2.53,-26.11zm-97.29 -218.99l0 0c39.83,-23.73 93.41,-20.86 130.74,6.5 -25.4,-0.12 -51.68,6.11 -72.13,21.73 -13.91,10.67 -24.64,27.09 -24.15,45.13 -0.36,13.91 6.24,26.9 15,37.32 7.56,8.99 7.11,23.57 -1.23,31.91 -7.65,8.69 -21.79,10.13 -31.31,3.76 -21.53,-16.62 -31.51,-46.64 -23.68,-72.82 -16.99,14.87 -26.09,37.13 -27.37,59.39 -14.75,-21.97 -18.83,-50.55 -11.42,-75.89 6.86,-24.07 24.2,-44.37 45.55,-57.03z"/>
  </g>
 </g>
</svg>
