<?xml version="1.0" encoding="UTF-8"?>
<!DOCTYPE svg PUBLIC "-//W3C//DTD SVG 1.1//EN" "http://www.w3.org/Graphics/SVG/1.1/DTD/svg11.dtd">
<!-- Creator: CorelDRAW -->
<svg xmlns="http://www.w3.org/2000/svg" xml:space="preserve" width="2000px" height="1600px" version="1.1" style="shape-rendering:geometricPrecision; text-rendering:geometricPrecision; image-rendering:optimizeQuality; fill-rule:evenodd; clip-rule:evenodd"
viewBox="0 0 2000 1600"
 xmlns:xlink="http://www.w3.org/1999/xlink">
 <defs>
  <style type="text/css">
   <![CDATA[
    .fil1 {fill:black}
    .fil0 {fill:#129E61}
    .fil2 {fill:#FEFEFE}
   ]]>
  </style>
 </defs>
 <g id="Capa_x0020_1">
  <metadata id="CorelCorpID_0Corel-Layer"/>
  <g id="North_x0020_Dakota_x0020_Fighting_x0020_Hawks.cdr">
   <path class="fil0" d="M459.36 365.85c50.06,72.59 233,174.14 304.98,199.64 9.54,3.38 38.41,9.92 43.63,16.64 -6.21,0.46 -193.16,-24.11 -205.25,-27.3 5.08,34.1 233.62,150.49 316.62,177.81 12.17,4.06 25.68,4.17 36.95,10.79 -11.38,0.96 -183.47,-15.56 -207.72,-18.06 3.78,11.97 96.86,74.14 115.31,85.99 70.54,45.32 150.14,78.01 232.44,92.66 -14.68,19.14 -91.95,0.49 -98.66,17.92 -14.4,37.41 -81.25,298.38 -89.75,312.22 -51.58,-62.63 -390.58,-454.36 -391.24,-454.83 -6.61,-4.66 -75,265.77 -85.16,285.57 -5.63,1.79 -206.39,0.75 -230.75,0.94 -1.54,-11.08 129.97,-460.81 139.37,-493.62 -21.53,-18.05 -241.48,-156.21 -240.12,-160.67 28.2,-2.74 317.48,-0.26 372.48,-0.5 -0.45,-5.69 -9.66,-27.88 -13.13,-45.2zm290.65 46.16l0 0c1.15,0.9 369.2,70.94 372.7,70.92 6.19,-23.88 14.35,-46.73 19.31,-70.92 -42.72,-0.14 -375.56,-2.26 -392.01,0zm472.04 0l0 0c39.82,-0.13 468.16,0 492.86,0 77.86,0 193.07,53.21 184.65,150.87 -2.07,24.05 -96.54,353.6 -105.06,368.57 -45.55,80.04 -155.94,127.07 -240.7,133.87 -107.29,0.77 -202.83,-0.25 -309.96,0.45 10.99,-0.97 189.47,-193.51 351.08,-226.48 23.87,-4.87 52.33,-19.28 107.36,-11.52 31.45,4.43 32.2,19.35 32.51,34.18 32.39,-17.25 44.47,-102.85 -37.15,-164.72 -198.66,-150.6 -278.63,-138.27 -500.63,-195.92 0.46,-8.14 22.81,-87.02 25.04,-89.3z"/>
   <path class="fil1" d="M1357.67 623.59c5.31,-4.47 11.1,-0.81 16.7,0.84 23.13,0.71 44.97,8.88 67.41,13.69 20.05,6.57 40.68,11.71 59.75,20.93 24.69,9.28 47.56,22.85 68.87,38.32 2.51,1.74 3.41,4.85 4.89,7.4 -15.64,-7.29 -33.79,-5.58 -49.74,-0.29 -19.46,5.88 -40.27,6.17 -59.92,1.11 -6.46,-3.68 -13.59,-6.73 -18.25,-12.79 -5.21,-4.77 -3.45,-12.47 -3.24,-18.72 2.65,-5.7 7.76,-9.97 11.23,-15.26 -14.62,-0.69 -29.25,-0.56 -43.89,-0.86 -7.57,-3.07 -13.5,-9.2 -20.61,-13.19 -11.4,-6.56 -21.45,-15.22 -33.2,-21.18zm237.25 216.16l0 0c-12.45,2.84 -25.06,5.71 -37.11,10.16 -26.05,10.75 -51.43,23.04 -76.35,36.17 -16.04,6.77 -29.71,17.69 -44.76,26.26 -11.9,6.79 -23.57,14.03 -34.69,22.06 -29.77,21.41 -58.69,44.05 -86.24,68.26 -17.63,12.77 -32.12,29.18 -47.67,44.3 -7.11,6.44 -15.27,20.14 -26.41,19.29l-160.76 0c151.84,-111.44 330.23,-188.46 513.99,-226.5z"/>
   <path class="fil2" d="M1081.03 1065.77c42.73,-31.36 87.56,-59.99 134.02,-85.8 0.01,0 0.01,-0.01 0.01,-0.01 118.07,-65.57 246.67,-112.89 378.05,-140.29 0.64,-0.13 1.28,-0.26 1.91,-0.39 23.87,-4.87 52.33,-19.28 107.36,-11.52 31.45,4.43 32.2,19.35 32.51,34.18 32.38,-17.25 44.46,-102.86 -37.15,-164.72 -198.66,-150.6 -278.63,-138.27 -500.63,-195.93 0.46,-8.13 22.71,-87 24.94,-89.28l-80.03 0c-4.96,24.19 -13.02,47.03 -19.21,70.91 -3.5,0.02 -371.55,-70.03 -372.7,-70.92 -54.55,2.67 -224.26,20.22 -290.65,-46.16 50.06,72.58 233,174.14 304.98,199.64 9.54,3.38 38.41,9.92 43.63,16.64 -6.21,0.45 -193.16,-24.11 -205.25,-27.3 5.07,34.09 233.61,150.49 316.62,177.81 12.17,4.06 25.68,4.16 36.95,10.79 -11.38,0.96 -183.47,-15.56 -207.72,-18.06 3.77,11.97 96.86,74.14 115.31,85.98 70.54,45.33 150.14,78.01 232.44,92.66 -14.68,19.15 -91.95,0.5 -98.66,17.92 -14.32,37.2 -80.47,295.34 -89.6,311.96 34.26,-59.14 107.25,-120.51 173.46,-168.11l-0.59 0zm444.62 -361.76l0 0c-19.46,5.87 -40.27,6.17 -59.92,1.11 -6.46,-3.68 -13.59,-6.73 -18.25,-12.8 -5.21,-4.77 -3.45,-12.46 -3.24,-18.71 2.65,-5.71 7.75,-9.97 11.23,-15.26 -14.62,-0.69 -29.25,-0.57 -43.89,-0.86 -7.57,-3.07 -13.51,-9.2 -20.61,-13.19 -11.4,-6.57 -21.45,-15.22 -33.2,-21.18 5.3,-4.47 11.1,-0.82 16.7,0.84 23.12,0.71 44.97,8.88 67.41,13.69 20.04,6.57 40.68,11.71 59.75,20.93 24.69,9.28 47.56,22.85 68.87,38.32 2.51,1.74 3.41,4.85 4.89,7.4 -15.64,-7.29 -33.79,-5.58 -49.74,-0.29z"/>
  </g>
 </g>
</svg>
