<?xml version="1.0" encoding="UTF-8"?>
<!DOCTYPE svg PUBLIC "-//W3C//DTD SVG 1.1//EN" "http://www.w3.org/Graphics/SVG/1.1/DTD/svg11.dtd">
<!-- Creator: CorelDRAW -->
<svg xmlns="http://www.w3.org/2000/svg" xml:space="preserve" width="2000px" height="1600px" version="1.1" style="shape-rendering:geometricPrecision; text-rendering:geometricPrecision; image-rendering:optimizeQuality; fill-rule:evenodd; clip-rule:evenodd"
viewBox="0 0 2000 1600"
 xmlns:xlink="http://www.w3.org/1999/xlink">
 <defs>
  <style type="text/css">
   <![CDATA[
    .fil0 {fill:#1C2D52}
    .fil1 {fill:#78B0D6}
   ]]>
  </style>
 </defs>
 <g id="Capa_x0020_1">
  <metadata id="CorelCorpID_0Corel-Layer"/>
  <g id="North_x0020_Carolina_x0020_Tar_x0020_Heels.cdr">
   <path class="fil0" d="M740.78 1127.46c34.84,-150.19 44.4,-305.95 31.09,-459.47 134.08,150.68 267.85,301.63 401.8,452.43 11.35,13.22 23.69,25.68 34.35,39.46 -85.53,10.9 -172.19,12.49 -258.07,5.26 -70.69,-6.06 -140.96,-18.1 -209.17,-37.68zm-124.08 -1031.02l0 0c-85.31,26.48 -167.66,62.6 -244.92,107.41 -10.75,5.51 -18.31,17.12 -17.43,29.39 -0.27,9.33 5.72,16.86 10.28,24.41 13.56,22.65 25.95,46 37.15,69.9 -67.54,42.8 -129.81,94.67 -180.76,156.48 -42.74,51.85 -77.42,110.87 -98.31,174.91 -13.21,39.5 -20.55,80.85 -22.71,122.42l0 37.47c3.01,64.56 19.85,128.32 48.62,186.14 27.83,57.17 66.3,108.77 110.75,154.08 42.63,43.58 91,81.28 142.37,114 -12.81,27.19 -27.07,53.73 -42.87,79.31 -9.03,13.97 -4.05,34.51 10.39,42.78 72.05,42.37 148.88,76.43 228.15,102.81 13.11,4.67 29,-0.85 36.13,-12.88 17.12,-28.9 32.72,-58.72 47.03,-89.13 98.31,28.04 199.87,44.38 301.97,49.38 135.69,6.52 272.56,-5.16 404.43,-38.32 25.45,28.83 51.11,57.5 76.58,86.33 4.28,5.07 10.21,8.46 16.58,10.23l14.26 0c83.01,-26.21 163.39,-61.05 238.83,-104.52 5.33,-3.14 11.05,-6.1 14.89,-11.1 7.98,-9.88 8.95,-24.92 2.11,-35.65 -15.94,-25.51 -30.13,-52.1 -42.91,-79.32 67.94,-43.08 130.64,-95.2 181.89,-157.43 5.78,-6.37 10.42,-14.13 10.8,-22.94l0 -3.51c-0.85,-7.29 -3.56,-14.54 -8.98,-19.66 -58.04,-57.93 -115.93,-116 -173.98,-173.89 -13.22,-12.69 -37.3,-9.45 -46.71,6.3 -14.04,22.58 -31.61,42.78 -50.82,61.11 -14,-107.74 -13.93,-217.33 -0.07,-325.09 16.5,14.94 31.12,31.94 43.88,50.16 5.22,7.29 9.01,16.27 17.34,20.66 12.18,7.34 28.9,4.8 38.61,-5.53 55.72,-55.63 111.33,-111.38 167.06,-166.99 7.21,-6.54 13.2,-15.02 13.67,-25.08l0 -3.48c-0.73,-6.55 -2.98,-12.99 -7.22,-18.12 -51.82,-64.28 -115.98,-117.83 -185.54,-162 11.88,-24.95 24.77,-49.46 39.19,-73.05 4.08,-6.39 8.27,-13.24 8.24,-21.1 0.81,-11.77 -6.04,-23.25 -16.31,-28.82 -68.26,-39.86 -140.67,-72.48 -215.41,-98.15 -7.34,-2.51 -14.74,-5.83 -22.67,-5.31 -10.33,0.22 -20.08,6.31 -25.25,15.18 -16.88,28.74 -32.33,58.32 -46.67,88.44 -124.92,-35.88 -255.2,-52.31 -385.11,-51.11 -108.15,0.6 -216.27,13.83 -321.26,39.91 -25.55,-28.96 -51.27,-57.76 -76.85,-86.68 -4.69,-5.5 -11.35,-8.89 -18.36,-10.35l-10.08 0zm-231.76 135.43l0 0c21.09,33.86 39.41,69.43 55.29,105.98 0.07,0.48 0.19,1.45 0.26,1.94 -71.29,42.65 -137.66,94.69 -191.4,158.33 -44.03,51.99 -79.46,111.91 -99.56,177.2 -19.95,64.09 -24.24,132.93 -12.39,199 7.31,41.04 20.91,80.84 39.24,118.23 29.58,59.9 71.22,113.35 119.4,159.4 43.85,42.02 93.19,77.99 145.27,109.11 -16.25,37.07 -34.77,73.16 -55.99,107.64 70.18,41.31 145.12,74.25 222.25,100.26 20.96,-35.58 39.63,-72.52 56.52,-110.2 102.79,31.74 209.62,49.99 316.99,55.59 139.9,7.19 281.17,-5.78 416.65,-41.88 30.01,33.68 59.8,67.55 89.9,101.13 82.28,-26.52 162.14,-61.03 236.66,-104.94 -20.56,-33.25 -38.49,-68.07 -54.36,-103.79 -0.5,-1.58 -2.56,-4.21 0.1,-5.04 74.55,-44.48 143.57,-99.62 198.33,-167.31 2.01,-1.94 -1.14,-3.5 -2.13,-4.9 -56.64,-56.34 -112.86,-113.14 -169.65,-169.34 -25.35,40.76 -60.52,74.56 -99.12,102.74 -25.37,-145.7 -25.46,-295.82 0.05,-441.5 38.51,28.23 73.72,61.99 99.07,102.74 57.76,-57.41 115.13,-115.19 172.84,-172.65 -18.57,-23.81 -39.55,-45.74 -61.57,-66.39 -42.42,-39.6 -89.6,-73.96 -139.5,-103.48 15.88,-37.32 34.71,-73.37 55.99,-107.88 -70.25,-41.23 -145.12,-74.41 -222.36,-100.18 -21.09,35.55 -39.52,72.61 -56.69,110.18 -138.6,-43.13 -284.57,-60.99 -429.51,-57.1 -102.52,2.88 -204.83,16.91 -303.99,43.29 -29.97,-33.73 -59.73,-67.69 -90,-101.15 -82.24,26.61 -162.02,61.17 -236.59,104.97zm515.35 208.75l0 0c145.73,163.92 291.12,328.16 437,491.94 -13.55,-153.52 -3.75,-309.29 30.98,-459.5 -68.08,-19.54 -138.23,-31.54 -208.76,-37.66 -86.28,-7.31 -173.3,-5.59 -259.22,5.22zm62.86 24.6l0 0c112.9,126.62 225.31,253.68 338,380.49 -3.06,-117.48 6.44,-235.47 30.69,-350.53 -120.13,-30.24 -245.28,-39.05 -368.69,-29.96zm-568.78 252.55l0 0c23.97,-56.75 68.35,-102.32 117.45,-138.27 25.46,145.68 25.48,295.82 0,441.5 -26.48,-19.28 -51.21,-41.14 -72.36,-66.2 -25.19,-29.6 -45.26,-64.09 -55.25,-101.84 -12.03,-44.55 -7.89,-92.84 10.16,-135.19zm74.28 -58.79l0 0c6.77,-7.24 13.31,-14.77 21,-21.05 13.95,107.81 13.9,217.35 -0.04,325.14 -26.36,-25.18 -49.98,-54 -64.9,-87.51 -14.87,-32.83 -20.42,-70.11 -13.9,-105.69 7.24,-41.89 29.74,-79.63 57.84,-110.89zm339.22 95.76l0 0c3.08,117.47 -6.27,235.49 -30.72,350.52 37.36,9.81 75.46,16.78 113.69,22.24 84.34,11.61 169.91,14.34 254.79,7.72 -112.57,-126.84 -225.21,-253.61 -337.76,-380.48z"/>
   <path class="fil1" d="M384.94 231.87c74.57,-43.8 154.35,-78.36 236.59,-104.97 30.27,33.46 60.03,67.42 90,101.15 99.16,-26.38 201.47,-40.41 303.99,-43.29 144.94,-3.89 290.91,13.97 429.51,57.1 17.17,-37.57 35.6,-74.63 56.69,-110.18 77.24,25.77 152.11,58.95 222.36,100.18 -21.28,34.51 -40.11,70.56 -55.99,107.88 49.9,29.52 97.08,63.88 139.5,103.48 22.02,20.65 43,42.58 61.57,66.39 -57.71,57.46 -115.08,115.24 -172.84,172.65 -25.35,-40.75 -60.56,-74.51 -99.07,-102.74 -25.51,145.68 -25.42,295.8 -0.05,441.5 38.6,-28.18 73.77,-61.98 99.12,-102.74 56.79,56.2 113.01,113 169.65,169.34 0.99,1.4 4.14,2.96 2.13,4.9 -54.76,67.69 -123.78,122.83 -198.33,167.31 -2.66,0.83 -0.6,3.46 -0.1,5.04 15.87,35.72 33.8,70.54 54.36,103.79 -74.52,43.91 -154.38,78.42 -236.66,104.94 -30.1,-33.58 -59.89,-67.45 -89.9,-101.13 -135.48,36.1 -276.75,49.07 -416.65,41.88 -107.37,-5.6 -214.2,-23.85 -316.99,-55.59 -16.89,37.68 -35.56,74.62 -56.52,110.2 -77.13,-26.01 -152.07,-58.95 -222.25,-100.26 21.22,-34.48 39.74,-70.57 55.99,-107.64 -52.08,-31.12 -101.42,-67.09 -145.27,-109.11 -48.18,-46.05 -89.82,-99.5 -119.4,-159.4 -18.33,-37.39 -31.93,-77.19 -39.24,-118.23 -11.85,-66.07 -7.56,-134.91 12.39,-199 20.1,-65.29 55.53,-125.21 99.56,-177.2 53.74,-63.64 120.11,-115.68 191.4,-158.33 -0.07,-0.49 -0.19,-1.46 -0.26,-1.94 -15.88,-36.55 -34.2,-72.12 -55.29,-105.98zm515.35 208.75l0 0c145.73,163.92 291.12,328.16 437,491.94 -13.55,-153.52 -3.75,-309.29 30.98,-459.5 -68.08,-19.54 -138.23,-31.54 -208.76,-37.66 -86.28,-7.31 -173.3,-5.59 -259.22,5.22zm-505.92 277.15l0 0c-18.05,42.35 -22.19,90.64 -10.16,135.19 9.99,37.75 30.06,72.24 55.25,101.84 21.15,25.06 45.88,46.92 72.36,66.2 25.48,-145.68 25.46,-295.82 0,-441.5 -49.1,35.95 -93.48,81.52 -117.45,138.27zm346.41 409.69l0 0c68.21,19.58 138.48,31.62 209.17,37.68 85.88,7.23 172.54,5.64 258.07,-5.26 -10.66,-13.78 -23,-26.24 -34.35,-39.46 -133.95,-150.8 -267.72,-301.75 -401.8,-452.43 13.31,153.52 3.75,309.28 -31.09,459.47z"/>
  </g>
 </g>
</svg>
