<?xml version="1.0" encoding="UTF-8"?>
<!DOCTYPE svg PUBLIC "-//W3C//DTD SVG 1.1//EN" "http://www.w3.org/Graphics/SVG/1.1/DTD/svg11.dtd">
<!-- Creator: CorelDRAW -->
<svg xmlns="http://www.w3.org/2000/svg" xml:space="preserve" width="2000px" height="1600px" version="1.1" style="shape-rendering:geometricPrecision; text-rendering:geometricPrecision; image-rendering:optimizeQuality; fill-rule:evenodd; clip-rule:evenodd"
viewBox="0 0 2000 1600"
 xmlns:xlink="http://www.w3.org/1999/xlink">
 <defs>
  <style type="text/css">
   <![CDATA[
    .fil2 {fill:#422978}
    .fil1 {fill:#FABF00}
    .fil0 {fill:#FEFEFE}
   ]]>
  </style>
 </defs>
 <g id="Capa_x0020_1">
  <metadata id="CorelCorpID_0Corel-Layer"/>
  <g id="North_x0020_Alabama_x0020_Lions.cdr">
   <path class="fil0" d="M1090.73 338.55c44.47,1.48 88.88,4.53 133.24,8 8.96,119.32 16.65,238.75 25.03,358.12 -69.56,-31.11 -145.17,-47.62 -221.19,-51.02 -47.42,-51.28 -95.16,-102.27 -142.47,-153.65 -2,54.05 -3.14,108.14 -4.72,162.19 0.23,2.33 -2.89,2.03 -4.34,2.63 -49.25,9.55 -97.54,25.03 -142.37,47.63 8.22,-119.32 16.23,-238.68 23.92,-358.03 44.08,-6.03 88.43,-9.92 132.82,-12.74 68.51,78.06 138.04,155.23 207.39,232.58 -1.73,-26.1 -1.7,-52.3 -2.77,-78.44 -1.43,-52.42 -3.43,-104.84 -4.54,-157.27zm214.92 88.87l0 0c8.89,-9.43 22.26,-14.29 35.12,-12.78 109.25,17.61 218.44,42.13 319.87,87.42 21.38,11.08 37.01,30.34 49.81,50.25 11.76,18.83 20.94,39.44 25.5,61.24 24.31,120.11 44.73,240.96 69.09,361.07 -42.92,-24.47 -86.53,-48.27 -133.18,-64.9 -8.77,-53.07 -17.97,-106.06 -27.02,-159.07 -0.12,-2.37 -2.85,-2.65 -4.46,-3.47 -64.29,-24.12 -130.37,-43.49 -197.48,-57.95 6.17,51.39 12.24,102.8 18.21,154.2 -17,-3.85 -34.07,-7.32 -51.14,-10.81 -26.5,-38.1 -61.77,-69.48 -100.48,-94.77 -6.72,-85.9 -13.94,-171.74 -20.95,-257.59 -1.29,-18.81 3.19,-39.3 17.11,-52.84zm14.41 33.51l0 0c-5.56,8.17 -4.91,18.52 -4.21,27.9 6.19,79.45 13.3,158.81 19.89,238.23 8.75,5.45 17.53,10.83 26.31,16.24 -6.31,-80.1 -13.34,-160.14 -18.7,-240.32 -0.88,-9.01 -0.19,-18.46 4.17,-26.58 6.24,-12.4 18.58,-20.06 30.85,-25.62 -8.98,-1.07 -17.88,-2.56 -26.85,-3.43 -11.66,-0.46 -24.7,3.47 -31.46,13.58zm105.33 54.7l0 0c-2.22,4.12 -1.1,8.99 -0.82,13.41 2.7,22.36 4.21,44.87 7.15,67.19 66.74,13.61 132.38,32.47 196.3,56 -4.17,-23.5 -7.96,-47.07 -12.06,-70.58 -1.33,-8.06 -5.54,-15.72 -12.04,-20.73 -4.05,-3.17 -9.13,-4.38 -13.85,-6.12 -50.58,-16.96 -102.39,-30 -154.51,-41.22 -3.44,-0.7 -8.03,-1.6 -10.17,2.05zm211.34 59.36l0 0c4.96,28.36 10.06,56.7 15.13,85.04 9.5,2.98 18.82,6.49 28.34,9.48 -4.95,-23.48 -9.31,-47.09 -14.48,-70.54 -2.4,-13.85 -17.16,-19.96 -28.99,-23.98zm32.79 182.23l0 0c7.17,40.83 14.27,81.69 21.44,122.53 9.34,3.71 18.66,7.46 28.04,11.13 -7.11,-40.98 -14.84,-81.84 -22.43,-122.72 -9.06,-3.53 -18,-7.37 -27.05,-10.94zm-1102.85 -316.64l0 0c43.24,-10.85 87.28,-18.07 131.27,-25.03 -8.32,105.11 -16.82,210.22 -25.2,315.32 -0.42,6.84 -1.42,13.62 -3.05,20.27 -33.74,24.39 -63.59,54.35 -86.6,89.1 -112.06,26.99 -222.26,63.38 -325.81,114.36 -14.6,6.38 -28.58,16.83 -45.27,15.87 -10.69,-0.27 -19.87,-8.56 -22.87,-18.53 -4.36,-13.9 -1.63,-28.64 1.12,-42.56 23.7,-119.74 47.59,-239.45 71.09,-359.22 38.51,-21.28 79.19,-38.33 120.13,-54.27 -18.39,110.53 -37.53,220.91 -55.91,331.44 -0.77,3.87 -0.47,9.37 4.24,10.44 5.85,-1.09 11.13,-4.05 16.62,-6.27 52.02,-22.07 106.38,-37.81 160.33,-54.37 5.59,-1.89 11.85,-2.88 16.37,-6.99 4.8,-4.09 6.84,-10.4 7.52,-16.46 12.11,-104.36 23.84,-208.76 36.02,-313.1zm24.19 26.97l0 0c-10.59,98.19 -21.35,196.36 -31.78,294.56 7.68,-3.72 15.53,-7.38 22.03,-13.02 3.35,-2.9 6.71,-6.51 7.15,-11.12 9.61,-92.34 18.89,-184.73 28.55,-277.1 -8.69,2.13 -17.33,4.4 -25.95,6.68zm-310.12 102.13l0 0c-20.09,107.41 -40.39,214.77 -60.16,322.25 -1.4,7.76 -1.63,17.74 5.61,22.78 8.43,5.09 19.23,3.56 28.2,0.74 10.76,-5.37 21.25,-11.36 31.78,-17.19 -9.71,0.64 -20.24,1.07 -28.97,-4 -5.59,-3.24 -8.64,-9.9 -7.56,-16.27 2.65,-22.87 6.96,-45.5 10.85,-68.17 15.2,-84.9 31.8,-169.54 48.24,-254.19 -9.31,4.73 -18.69,9.3 -27.99,14.05zm835.29 -204.87l0 0c2.24,78.99 4.73,157.97 6.67,236.96 9.08,8.14 18.11,16.3 27.19,24.42 -2.63,-86.79 -5.86,-173.57 -8.89,-260.34 -8.32,-0.2 -16.63,-0.93 -24.97,-1.04zm-337.66 8.33l0 0c-5.9,95.61 -12,191.18 -17.7,286.79 9.08,-3.44 18.18,-6.79 27.2,-10.34 4.4,-85.64 9.38,-171.26 14.06,-256.88 22.28,-1.77 44.54,-3.59 66.8,-5.41 -5.54,-6.89 -11.08,-13.8 -16.72,-20.6 -24.54,2.25 -49.1,4.19 -73.64,6.44z"/>
   <path class="fil1" d="M1033.09 269.82l21.14 0c67.14,1.59 134.22,5.81 200.99,12.98 7.59,0.97 15.59,0.97 22.58,4.47 9.41,4.52 16.21,14.08 17.28,24.47 1.02,9.2 1.28,18.44 2.1,27.66 133.94,18.19 267.13,48.34 391.99,100.97 21.44,10.66 40.49,25.6 57.73,42.08 24.65,24.33 44.26,54.28 53.79,87.74 3.21,11.34 5.23,22.98 7.82,34.47 28.01,131.04 56.14,262.05 84.16,393.09 2.42,12.24 5.75,24.31 7.33,36.72l0 0.63c-0.51,10.85 -6.12,21.55 -15.7,27 -35.62,21.08 -71.25,42.11 -106.9,63.16 -9.29,5.66 -21.49,6.36 -31.16,1.28 -53.51,-30.55 -111.09,-53.26 -169.29,-73.12 -29.73,-9.74 -59.65,-19.02 -90,-26.57 -11.71,57.22 -42.49,109.37 -82.92,151.06 -42.63,44.35 -95.51,77.96 -151.8,102.24 -72.35,31.28 -150.87,46.81 -229.46,50.04l-50.74 0c-66.85,-2.91 -133.56,-14.46 -196.53,-37.32 -59.82,-21.59 -116.64,-52.93 -164.07,-95.57 -47.41,-42.52 -85.06,-97.61 -100.51,-159.9 -55.44,15.41 -109.92,34.44 -162.62,57.56 -20.49,8.92 -40.35,19.23 -60.78,28.23 -17.49,7.49 -37.81,10.48 -56.03,3.91 -12.45,-3.92 -22.42,-12.6 -32.55,-20.42 -23.1,-17.77 -46.2,-35.52 -69.3,-53.29 -17.25,-13.1 -28.15,-33.73 -29.64,-55.32l0 -10.59c0.98,-11.02 3.57,-21.8 5.78,-32.61 27.57,-137.31 55.32,-274.58 82.9,-411.88 1.86,-8.73 2.63,-18.19 8.14,-25.61 3.8,-5.66 9.97,-8.94 15.67,-12.35 74.13,-44.35 154.6,-77.28 237.01,-102.75 76.21,-23.5 154.32,-40.31 233.02,-52.96 0.96,-10.9 1.33,-21.84 2.73,-32.69 2.09,-13.85 14.41,-24.96 28.28,-26.1 75.66,-9.66 151.64,-17.42 227.88,-20.15 9.73,-0.83 19.94,2.08 26.83,9.2 12.2,12.51 23.93,25.46 36.21,37.91 0.14,-9.82 -1.89,-20.3 2.68,-29.46 4.61,-10.19 14.94,-17 25.96,-18.21zm636.43 487.4l0 0c7.17,40.83 14.27,81.69 21.44,122.53 9.34,3.71 18.66,7.46 28.04,11.13 -7.11,-40.98 -14.84,-81.84 -22.43,-122.72 -9.06,-3.53 -18,-7.37 -27.05,-10.94zm-666.02 -53.06l0 0c20.67,8.65 40.98,19.32 56.83,35.48 13.79,14.49 25.1,32.42 28.64,52.32 -2.48,-2.37 -4.75,-4.91 -6.79,-7.64 -14.96,-19.42 -35.54,-34.18 -58.27,-43.17 -32.81,-13.11 -68.46,-16.78 -103.5,-17.79 -55.56,-0.53 -111.28,11.39 -161.53,35.17 -41.99,21.68 -80.99,50.53 -110.27,87.9 -24.58,31.13 -41.63,68.86 -45.08,108.61 -3.65,37.7 5.22,76.12 23.36,109.23 14.49,26.48 34.11,50.02 56.77,69.91 -3.17,-10.39 -5.89,-20.94 -7.33,-31.72 -3.98,-27.18 0.62,-54.82 8.52,-80.9 6.68,-21.54 14.58,-42.8 25.26,-62.71 33.72,-63.36 91.35,-114.82 160.07,-136.82 -3.49,3.38 -7.9,5.52 -12.02,8.01 -33.52,20.45 -60.94,50.13 -80.42,84.09 -14.68,25.49 -25.81,52.9 -34.86,80.84 -11.44,37.42 -12.2,78.45 0.53,115.66 11.06,33.4 31.46,63.02 55.73,88.21 3.33,3.15 6.24,7.22 10.85,8.62 56.61,20.68 116.77,30.92 176.95,32.15 12.1,-11.75 21.07,-26.63 25.73,-42.84 7.43,-25.68 5.79,-53.47 -2.22,-78.82 -4.02,-13.51 -12.1,-25.31 -16.79,-38.56 -19.35,-48.74 -17.29,-105.05 4.22,-152.74 -15.02,-15.49 -29.69,-31.67 -40.47,-50.5 -6.33,-11.18 -11.83,-23.5 -11.37,-36.63 -0.51,-13.93 3.82,-29.09 15.3,-37.85 8.5,-6.33 20.34,-10.57 30.55,-5.72 13.14,5.77 24.41,15.02 35.07,24.5 6.57,6.17 13.54,12.34 17.59,20.58 -8.53,-2.16 -15.49,-7.76 -23.15,-11.8 -11.04,-5.99 -22.22,-12.39 -34.68,-14.79 -6.05,-0.86 -13.24,-1.26 -17.92,3.37 -10.23,9.53 -14.11,24.92 -10.57,38.33 1.97,6.96 6.93,12.48 11.66,17.72 12.34,13.06 26.36,24.38 40.33,35.67 -1.16,22.38 -9.26,44.04 -7.68,66.61 1.7,39.86 20.7,77.7 48.57,105.76 28.99,30.08 46.36,73.18 39.05,115.08 -2.67,15.99 -12.2,30.45 -25.98,39.03 64.48,-7.23 128.23,-25.37 185.17,-56.82 49.96,-27.71 95.63,-66.58 122.52,-117.74 18.45,-34.51 26.23,-74.67 21.1,-113.52 -4.09,-32.39 -17.18,-63.24 -35.77,-89.92 -33.81,-48.56 -83.69,-83.83 -136.96,-108.29 -67.77,-30.74 -142.47,-45.45 -216.74,-45.56zm84.4 43.56l0 0c13.88,18.84 30.6,39.1 30.02,63.88 61.34,28.15 123.02,55.72 182.7,87.3 11.08,6.38 22.96,11.85 32.37,20.67 -9.11,0.21 -18.19,-0.67 -27.29,-0.42 5.03,14.83 13.03,28.86 24.12,40.01 -0.67,9.83 -0.51,20.05 -4.33,29.31 -3.8,9.53 -12.13,17.03 -21.77,20.4 -8.31,-0.25 -16.05,-4.12 -23.85,-6.61 -17.65,-6.24 -36.93,-13.13 -55.67,-7.45 -17.59,5.8 -30.95,21.87 -35.3,39.68 -2.77,9.97 -7.13,21.12 -2.36,31.18 15.33,10.8 33.88,17.76 46.18,32.51 4.01,4.7 6.34,11.41 3.93,17.41 -5.23,10.41 -15.95,17.72 -27.52,19 -10.01,1.54 -19.74,-3.65 -26.92,-10.2 -6.05,-5.33 -7.63,-13.52 -11.34,-20.3 -11.99,-21.35 -32.76,-37.26 -56.18,-44.17 -17.26,-5.66 -35.59,-5.55 -53.56,-6.25 9.77,11.79 19.63,23.59 30.5,34.4 16.23,-4.12 35.86,-2.12 47.13,11.55 8.64,8.99 9.32,22.3 16.88,31.92 8.66,12.23 21.56,22.1 36.59,24.62 15.8,2.54 31.66,-3.64 44.4,-12.65 10.06,-6.91 16.98,-17.65 20.8,-29.11 1.86,-4.51 -0.52,-8.93 -3.03,-12.55 6.31,-11.83 8.45,-25.28 10.43,-38.39 -6.03,8.78 -12.76,17.6 -22.21,22.89 -13.72,-8.55 -25.8,-19.75 -39.48,-28.5 -6.24,-3.69 -3.44,-11.41 -2.62,-17.14 2.32,-13.98 11.76,-27.62 26.22,-30.77 23.4,-5.12 46.29,4.73 68.39,11.13 -3.64,8.39 -10.46,14.63 -15.89,21.8 17.38,-5.43 34.79,-16.04 42.2,-33.41 16.56,-11.28 19.82,-32.56 25.59,-50.28 5.93,-6.17 11.25,-13.29 12.58,-22.01 1.46,-8.42 2.41,-19.55 -5.34,-25.26 -12.57,-9.48 -26.52,-16.9 -40.23,-24.54 -55.61,-30.13 -112.67,-57.45 -169.87,-84.41 -1.64,-1.43 -2.26,-3.68 -3.33,-5.48 -10.18,-20.3 -26.95,-37.11 -46.95,-47.8 -1.94,-0.86 -3.94,-1.52 -5.99,-1.96zm-269.34 18.28l0 0c-44.36,14 -87.77,34.81 -121,68.02 -29.64,29.16 -52.3,66.3 -61.4,107.09 -7.66,36.91 0.33,76.13 18.13,109.01 -2.93,-26.39 -2.56,-53.22 1.84,-79.43 7.81,-48.09 29.62,-94.71 65.44,-128.29 24.03,-23.38 54.35,-38.77 84.95,-51.67 48.5,-20.09 101.62,-31.37 154.2,-25.99 23.19,2.24 45.87,8.64 66.87,18.7 -4.14,-4.49 -9.63,-7.36 -14.81,-10.43 -19.62,-10.83 -41.61,-16.76 -63.71,-19.75 -43.75,-5.84 -88.48,-0.07 -130.51,12.74zm330.7 101.85l0 0c3.59,4.55 9.64,7.52 11.18,13.49 1.8,7.57 10.25,11.69 17.53,10.94 4.61,-0.56 8.15,-3.79 11.69,-6.47 7.06,0.72 14.19,0.67 21.24,1.56 -0.12,-0.3 -0.4,-0.89 -0.53,-1.19 -20.42,-5.94 -40.78,-12.09 -61.11,-18.33zm-322.21 78.22l0 0c-19.95,31.88 -25.12,71.3 -19.39,108.05 3.93,24.52 11.08,49.01 24.05,70.35 0.49,2.69 4.85,2.67 4.05,-0.44 -18.95,-64.39 -8.42,-137.02 29.25,-192.75 12.25,-19.34 28.34,-35.74 44.43,-51.83 -33.13,13.32 -63.38,36.05 -82.39,66.62zm299.9 17.91l0 0c9.27,-4.49 18.22,-9.73 28.09,-12.88 26.31,-9.29 54.79,-9.52 82.27,-7.12 19.95,1.77 39.26,8.15 56.63,18.04 -24.57,-19.67 -56.56,-29.5 -87.91,-28.19 -28.69,1.27 -56.86,11.96 -79.08,30.15zm40.38 15.58l0 0c15.14,-7.99 31.69,-13.58 48.86,-14.75 23.02,-2.14 46.22,3.11 66.9,13.19 -16.1,-11.95 -35.93,-18.98 -56.03,-19 -21.52,-0.36 -42.91,7.22 -59.73,20.56zm469.4 -404.57l0 0c4.96,28.36 10.06,56.7 15.13,85.04 9.5,2.98 18.82,6.49 28.34,9.48 -4.95,-23.48 -9.31,-47.09 -14.48,-70.54 -2.4,-13.85 -17.16,-19.96 -28.99,-23.98zm-1355.99 -5.31l0 0c-20.09,107.41 -40.39,214.77 -60.16,322.25 -1.4,7.76 -1.63,17.74 5.61,22.78 8.43,5.09 19.23,3.56 28.2,0.74 10.76,-5.37 21.25,-11.36 31.78,-17.19 -9.71,0.64 -20.24,1.07 -28.97,-4 -5.59,-3.24 -8.64,-9.9 -7.56,-16.27 2.65,-22.87 6.96,-45.5 10.85,-68.17 15.2,-84.9 31.8,-169.54 48.24,-254.19 -9.31,4.73 -18.69,9.3 -27.99,14.05zm310.12 -102.13l0 0c-10.59,98.19 -21.35,196.36 -31.78,294.56 7.68,-3.72 15.53,-7.38 22.03,-13.02 3.35,-2.9 6.71,-6.51 7.15,-11.12 9.61,-92.34 18.89,-184.73 28.55,-277.1 -8.69,2.13 -17.33,4.4 -25.95,6.68zm729.2 -6.62l0 0c-5.56,8.17 -4.91,18.52 -4.21,27.9 6.19,79.45 13.3,158.81 19.89,238.23 8.75,5.45 17.53,10.83 26.31,16.24 -6.31,-80.1 -13.34,-160.14 -18.7,-240.32 -0.88,-9.01 -0.19,-18.46 4.17,-26.58 6.24,-12.4 18.58,-20.06 30.85,-25.62 -8.98,-1.07 -17.88,-2.56 -26.85,-3.43 -11.66,-0.46 -24.7,3.47 -31.46,13.58zm-541.69 -87.79l0 0c-5.9,95.61 -12,191.18 -17.7,286.79 9.08,-3.44 18.18,-6.79 27.2,-10.34 4.4,-85.64 9.38,-171.26 14.06,-256.88 22.28,-1.77 44.54,-3.59 66.8,-5.41 -5.54,-6.89 -11.08,-13.8 -16.72,-20.6 -24.54,2.25 -49.1,4.19 -73.64,6.44zm337.66 -8.33l0 0c2.24,78.99 4.73,157.97 6.67,236.96 9.08,8.14 18.11,16.3 27.19,24.42 -2.63,-86.79 -5.86,-173.57 -8.89,-260.34 -8.32,-0.2 -16.63,-0.93 -24.97,-1.04zm-80.17 -63.03l0 0c1.31,32.88 1.47,65.85 3.5,98.68 -31.19,-32.57 -62.21,-65.32 -93.13,-98.15 -3.96,-0.05 -7.92,-0.07 -11.87,0.12 -72.87,2.95 -145.47,10.55 -217.8,19.69 -1.69,18.29 -2.77,36.64 -4.56,54.92 -82.31,12.05 -164.03,28.85 -243.76,52.76 -85.64,25.76 -169.36,59.64 -245.83,106.41 -29.31,146.13 -58.81,292.22 -88.23,438.32 -2.26,9.78 -3.35,20.1 -1.02,29.97 2.42,10.01 9.03,18.51 17.11,24.68 24.76,19.03 49.51,38.09 74.26,57.12 7.04,5.78 14.86,11.5 24.25,12.37 16.58,1.95 31.32,-7.29 45.89,-13.7 79.1,-39.17 163.17,-67.36 248.51,-89.35 0.77,9.27 2.44,18.44 4.19,27.57 1.33,13.18 6.42,25.55 11.1,37.84 13.53,33.04 33.96,63 58.15,89.16 41.61,44.36 94.26,77.18 150.19,100.37 76.1,31.37 158.88,45.17 241.01,44.15 77.73,-1.03 155.67,-15.49 227.46,-45.69 52.62,-22.31 102.3,-53.12 142.12,-94.44 44.19,-44.81 75.48,-104.54 78.38,-168.15 47.83,10.64 94.93,24.58 141.3,40.33 56.37,19.49 111.84,42.21 163.9,71.46 35.58,-21.45 71.6,-42.19 107.19,-63.62 -30.9,-143.41 -61.5,-286.86 -92.22,-430.3 -3.19,-15.79 -6.59,-31.71 -13.59,-46.33 -17.54,-37.75 -48.95,-68.09 -85.09,-88.09 -130.29,-55.15 -269.89,-84.77 -409.83,-102.37 -1.61,-17.26 -2.49,-34.6 -3.84,-51.9 -75.63,-8.06 -151.64,-13.81 -227.74,-13.83z"/>
   <path class="fil2" d="M1035.86 301.78c76.1,0.02 152.11,5.77 227.74,13.83 1.35,17.3 2.23,34.64 3.84,51.9 139.94,17.6 279.54,47.22 409.83,102.37 36.14,20 67.55,50.34 85.09,88.09 7,14.62 10.4,30.54 13.59,46.33 30.72,143.44 61.32,286.89 92.22,430.3 -35.59,21.43 -71.61,42.17 -107.19,63.62 -52.06,-29.25 -107.53,-51.97 -163.9,-71.46 -46.37,-15.75 -93.47,-29.69 -141.3,-40.33 -2.9,63.61 -34.19,123.34 -78.38,168.15 -39.82,41.32 -89.5,72.13 -142.12,94.44 -71.79,30.2 -149.73,44.66 -227.46,45.69 -82.13,1.02 -164.91,-12.78 -241.01,-44.15 -55.93,-23.19 -108.58,-56.01 -150.19,-100.37 -24.19,-26.16 -44.62,-56.12 -58.15,-89.16 -4.68,-12.29 -9.77,-24.66 -11.1,-37.84 -1.75,-9.13 -3.42,-18.3 -4.19,-27.57 -85.34,21.99 -169.41,50.18 -248.51,89.35 -14.57,6.41 -29.31,15.65 -45.89,13.7 -9.39,-0.87 -17.21,-6.59 -24.25,-12.37 -24.75,-19.03 -49.5,-38.09 -74.26,-57.12 -8.08,-6.17 -14.69,-14.67 -17.11,-24.68 -2.33,-9.87 -1.24,-20.19 1.02,-29.97 29.42,-146.1 58.92,-292.19 88.23,-438.32 76.47,-46.77 160.19,-80.65 245.83,-106.41 79.73,-23.91 161.45,-40.71 243.76,-52.76 1.79,-18.28 2.87,-36.63 4.56,-54.92 72.33,-9.14 144.93,-16.74 217.8,-19.69 3.95,-0.19 7.91,-0.17 11.87,-0.12 30.92,32.83 61.94,65.58 93.13,98.15 -2.03,-32.83 -2.19,-65.8 -3.5,-98.68zm131.47 677.78l0 0c15.14,-7.99 31.69,-13.58 48.86,-14.75 23.02,-2.14 46.22,3.11 66.9,13.19 -16.1,-11.95 -35.93,-18.98 -56.03,-19 -21.52,-0.36 -42.91,7.22 -59.73,20.56zm-40.38 -15.58l0 0c9.27,-4.49 18.22,-9.73 28.09,-12.88 26.31,-9.29 54.79,-9.52 82.27,-7.12 19.95,1.77 39.26,8.15 56.63,18.04 -24.57,-19.67 -56.56,-29.5 -87.91,-28.19 -28.69,1.27 -56.86,11.96 -79.08,30.15zm-299.9 -17.91l0 0c-19.95,31.88 -25.12,71.3 -19.39,108.05 3.93,24.52 11.08,49.01 24.05,70.35 0.49,2.69 4.85,2.67 4.05,-0.44 -18.95,-64.39 -8.42,-137.02 29.25,-192.75 12.25,-19.34 28.34,-35.74 44.43,-51.83 -33.13,13.32 -63.38,36.05 -82.39,66.62zm322.21 -78.22l0 0c3.59,4.55 9.64,7.52 11.18,13.49 1.8,7.57 10.25,11.69 17.53,10.94 4.61,-0.56 8.15,-3.79 11.69,-6.47 7.06,0.72 14.19,0.67 21.24,1.56 -0.12,-0.3 -0.4,-0.89 -0.53,-1.19 -20.42,-5.94 -40.78,-12.09 -61.11,-18.33zm-330.7 -101.85l0 0c-44.36,14 -87.77,34.81 -121,68.02 -29.64,29.16 -52.3,66.3 -61.4,107.09 -7.66,36.91 0.33,76.13 18.13,109.01 -2.93,-26.39 -2.56,-53.22 1.84,-79.43 7.81,-48.09 29.62,-94.71 65.44,-128.29 24.03,-23.38 54.35,-38.77 84.95,-51.67 48.5,-20.09 101.62,-31.37 154.2,-25.99 23.19,2.24 45.87,8.64 66.87,18.7 -4.14,-4.49 -9.63,-7.36 -14.81,-10.43 -19.62,-10.83 -41.61,-16.76 -63.71,-19.75 -43.75,-5.84 -88.48,-0.07 -130.51,12.74zm269.34 -18.28l0 0c13.88,18.84 30.6,39.1 30.02,63.88 61.34,28.15 123.02,55.72 182.7,87.3 11.08,6.38 22.96,11.85 32.37,20.67 -9.11,0.21 -18.19,-0.67 -27.29,-0.42 5.03,14.83 13.03,28.86 24.12,40.01 -0.67,9.83 -0.51,20.05 -4.33,29.31 -3.8,9.53 -12.13,17.03 -21.77,20.4 -8.31,-0.25 -16.05,-4.12 -23.85,-6.61 -17.65,-6.24 -36.93,-13.13 -55.67,-7.45 -17.59,5.8 -30.95,21.87 -35.3,39.68 -2.77,9.97 -7.13,21.12 -2.36,31.18 15.33,10.8 33.88,17.76 46.18,32.51 4.01,4.7 6.34,11.41 3.93,17.41 -5.23,10.41 -15.95,17.72 -27.52,19 -10.01,1.54 -19.74,-3.65 -26.92,-10.2 -6.05,-5.33 -7.63,-13.52 -11.34,-20.3 -11.99,-21.35 -32.76,-37.26 -56.18,-44.17 -17.26,-5.66 -35.59,-5.55 -53.56,-6.25 9.77,11.79 19.63,23.59 30.5,34.4 16.23,-4.12 35.86,-2.12 47.13,11.55 8.64,8.99 9.32,22.3 16.88,31.92 8.66,12.23 21.56,22.1 36.59,24.62 15.8,2.54 31.66,-3.64 44.4,-12.65 10.06,-6.91 16.98,-17.65 20.8,-29.11 1.86,-4.51 -0.52,-8.93 -3.03,-12.55 6.31,-11.83 8.45,-25.28 10.43,-38.39 -6.03,8.78 -12.76,17.6 -22.21,22.89 -13.72,-8.55 -25.8,-19.75 -39.48,-28.5 -6.24,-3.69 -3.44,-11.41 -2.62,-17.14 2.32,-13.98 11.76,-27.62 26.22,-30.77 23.4,-5.12 46.29,4.73 68.39,11.13 -3.64,8.39 -10.46,14.63 -15.89,21.8 17.38,-5.43 34.79,-16.04 42.2,-33.41 16.56,-11.28 19.82,-32.56 25.59,-50.28 5.93,-6.17 11.25,-13.29 12.58,-22.01 1.46,-8.42 2.41,-19.55 -5.34,-25.26 -12.57,-9.48 -26.52,-16.9 -40.23,-24.54 -55.61,-30.13 -112.67,-57.45 -169.87,-84.41 -1.64,-1.43 -2.26,-3.68 -3.33,-5.48 -10.18,-20.3 -26.95,-37.11 -46.95,-47.8 -1.94,-0.86 -3.94,-1.52 -5.99,-1.96zm337.49 -232.09l0 0c-2.22,4.12 -1.1,8.99 -0.82,13.41 2.7,22.36 4.21,44.87 7.15,67.19 66.74,13.61 132.38,32.47 196.3,56 -4.17,-23.5 -7.96,-47.07 -12.06,-70.58 -1.33,-8.06 -5.54,-15.72 -12.04,-20.73 -4.05,-3.17 -9.13,-4.38 -13.85,-6.12 -50.58,-16.96 -102.39,-30 -154.51,-41.22 -3.44,-0.7 -8.03,-1.6 -10.17,2.05zm-334.66 -177.08l0 0c1.11,52.43 3.11,104.85 4.54,157.27 1.07,26.14 1.04,52.34 2.77,78.44 -69.35,-77.35 -138.88,-154.52 -207.39,-232.58 -44.39,2.82 -88.74,6.71 -132.82,12.74 -7.69,119.35 -15.7,238.71 -23.92,358.03 44.83,-22.6 93.12,-38.08 142.37,-47.63 1.45,-0.6 4.57,-0.3 4.34,-2.63 1.58,-54.05 2.72,-108.14 4.72,-162.19 47.31,51.38 95.05,102.37 142.47,153.65 76.02,3.4 151.63,19.91 221.19,51.02 -8.38,-119.37 -16.07,-238.8 -25.03,-358.12 -44.36,-3.47 -88.77,-6.52 -133.24,-8zm-524.06 102.03l0 0c-12.18,104.34 -23.91,208.74 -36.02,313.1 -0.68,6.06 -2.72,12.37 -7.52,16.46 -4.52,4.11 -10.78,5.1 -16.37,6.99 -53.95,16.56 -108.31,32.3 -160.33,54.37 -5.49,2.22 -10.77,5.18 -16.62,6.27 -4.71,-1.07 -5.01,-6.57 -4.24,-10.44 18.38,-110.53 37.52,-220.91 55.91,-331.44 -40.94,15.94 -81.62,32.99 -120.13,54.27 -23.5,119.77 -47.39,239.48 -71.09,359.22 -2.75,13.92 -5.48,28.66 -1.12,42.56 3,9.97 12.18,18.26 22.87,18.53 16.69,0.96 30.67,-9.49 45.27,-15.87 103.55,-50.98 213.75,-87.37 325.81,-114.36 23.01,-34.75 52.86,-64.71 86.6,-89.1 1.63,-6.65 2.63,-13.43 3.05,-20.27 8.38,-105.1 16.88,-210.21 25.2,-315.32 -43.99,6.96 -88.03,14.18 -131.27,25.03zm738.98 -13.16l0 0c-13.92,13.54 -18.4,34.03 -17.11,52.84 7.01,85.85 14.23,171.69 20.95,257.59 38.71,25.29 73.98,56.67 100.48,94.77 17.07,3.49 34.14,6.96 51.14,10.81 -5.97,-51.4 -12.04,-102.81 -18.21,-154.2 67.11,14.46 133.19,33.83 197.48,57.95 1.61,0.82 4.34,1.1 4.46,3.47 9.05,53.01 18.25,106 27.02,159.07 46.65,16.63 90.26,40.43 133.18,64.9 -24.36,-120.11 -44.78,-240.96 -69.09,-361.07 -4.56,-21.8 -13.74,-42.41 -25.5,-61.24 -12.8,-19.91 -28.43,-39.17 -49.81,-50.25 -101.43,-45.29 -210.62,-69.81 -319.87,-87.42 -12.86,-1.51 -26.23,3.35 -35.12,12.78zm-302.15 276.74l0 0c20.67,8.65 40.98,19.32 56.83,35.48 13.79,14.49 25.1,32.42 28.64,52.32 -2.48,-2.37 -4.75,-4.91 -6.79,-7.64 -14.96,-19.42 -35.54,-34.18 -58.27,-43.17 -32.81,-13.11 -68.46,-16.78 -103.5,-17.79 -55.56,-0.53 -111.28,11.39 -161.53,35.17 -41.99,21.68 -80.99,50.53 -110.27,87.9 -24.58,31.13 -41.63,68.86 -45.08,108.61 -3.65,37.7 5.22,76.12 23.36,109.23 14.49,26.48 34.11,50.02 56.77,69.91 -3.17,-10.39 -5.89,-20.94 -7.33,-31.72 -3.98,-27.18 0.62,-54.82 8.52,-80.9 6.68,-21.54 14.58,-42.8 25.26,-62.71 33.72,-63.36 91.35,-114.82 160.07,-136.82 -3.49,3.38 -7.9,5.52 -12.02,8.01 -33.52,20.45 -60.94,50.13 -80.42,84.09 -14.68,25.49 -25.81,52.9 -34.86,80.84 -11.44,37.42 -12.2,78.45 0.53,115.66 11.06,33.4 31.46,63.02 55.73,88.21 3.33,3.15 6.24,7.22 10.85,8.62 56.61,20.68 116.77,30.92 176.95,32.15 12.1,-11.75 21.07,-26.63 25.73,-42.84 7.43,-25.68 5.79,-53.47 -2.22,-78.82 -4.02,-13.51 -12.1,-25.31 -16.79,-38.56 -19.35,-48.74 -17.29,-105.05 4.22,-152.74 -15.02,-15.49 -29.69,-31.67 -40.47,-50.5 -6.33,-11.18 -11.83,-23.5 -11.37,-36.63 -0.51,-13.93 3.82,-29.09 15.3,-37.85 8.5,-6.33 20.34,-10.57 30.55,-5.72 13.14,5.77 24.41,15.02 35.07,24.5 6.57,6.17 13.54,12.34 17.59,20.58 -8.53,-2.16 -15.49,-7.76 -23.15,-11.8 -11.04,-5.99 -22.22,-12.39 -34.68,-14.79 -6.05,-0.86 -13.24,-1.26 -17.92,3.37 -10.23,9.53 -14.11,24.92 -10.57,38.33 1.97,6.96 6.93,12.48 11.66,17.72 12.34,13.06 26.36,24.38 40.33,35.67 -1.16,22.38 -9.26,44.04 -7.68,66.61 1.7,39.86 20.7,77.7 48.57,105.76 28.99,30.08 46.36,73.18 39.05,115.08 -2.67,15.99 -12.2,30.45 -25.98,39.03 64.48,-7.23 128.23,-25.37 185.17,-56.82 49.96,-27.71 95.63,-66.58 122.52,-117.74 18.45,-34.51 26.23,-74.67 21.1,-113.52 -4.09,-32.39 -17.18,-63.24 -35.77,-89.92 -33.81,-48.56 -83.69,-83.83 -136.96,-108.29 -67.77,-30.74 -142.47,-45.45 -216.74,-45.56z"/>
  </g>
 </g>
</svg>
