<?xml version="1.0" encoding="UTF-8"?>
<!DOCTYPE svg PUBLIC "-//W3C//DTD SVG 1.1//EN" "http://www.w3.org/Graphics/SVG/1.1/DTD/svg11.dtd">
<!-- Creator: CorelDRAW -->
<svg xmlns="http://www.w3.org/2000/svg" xml:space="preserve" width="2000px" height="1600px" version="1.1" style="shape-rendering:geometricPrecision; text-rendering:geometricPrecision; image-rendering:optimizeQuality; fill-rule:evenodd; clip-rule:evenodd"
viewBox="0 0 2000 1600"
 xmlns:xlink="http://www.w3.org/1999/xlink">
 <defs>
  <style type="text/css">
   <![CDATA[
    .fil0 {fill:#5B2B82}
   ]]>
  </style>
 </defs>
 <g id="Capa_x0020_1">
  <metadata id="CorelCorpID_0Corel-Layer"/>
  <path id="Northwestern_x0020_Wildcats.cdr" class="fil0" d="M546.41 80.02c74.46,0.08 148.94,-0.16 223.4,0.13 180.37,306.71 361.1,613.21 541.61,919.85 10.91,18.35 21.52,36.86 32.59,55.12 -0.15,-141.31 0.21,-282.64 -0.18,-423.95 -69.13,-116.84 -138.86,-233.38 -208.22,-350.12 -2,-3.93 -5.8,-7.45 -5.25,-12.2 0.08,-62.95 0,-125.89 0.04,-188.83 107.72,0 215.46,0 323.19,0 0,479.99 0,959.98 0,1439.96 -74.46,-0.06 -148.91,0.13 -223.37,-0.09 -130.57,-222.08 -261.45,-443.99 -392.12,-666.02 -60.75,-102.97 -121.21,-206.1 -182.11,-308.98 0.03,129.31 0,258.61 0.02,387.92 0.45,12.31 -0.9,24.91 0.62,37.03 70.7,119.03 141.65,237.93 212.38,356.92 1.12,2.35 0.4,5.12 0.62,7.66 -0.06,61.85 -0.01,123.71 -0.03,185.56 -107.72,0 -215.46,0 -323.19,0 0,-479.98 0,-959.97 0,-1439.96z"/>
 </g>
</svg>
