<?xml version="1.0" encoding="UTF-8"?>
<!DOCTYPE svg PUBLIC "-//W3C//DTD SVG 1.1//EN" "http://www.w3.org/Graphics/SVG/1.1/DTD/svg11.dtd">
<!-- Creator: CorelDRAW -->
<svg xmlns="http://www.w3.org/2000/svg" xml:space="preserve" width="2000px" height="1600px" version="1.1" style="shape-rendering:geometricPrecision; text-rendering:geometricPrecision; image-rendering:optimizeQuality; fill-rule:evenodd; clip-rule:evenodd"
viewBox="0 0 2000 1600"
 xmlns:xlink="http://www.w3.org/1999/xlink">
 <defs>
  <style type="text/css">
   <![CDATA[
    .fil1 {fill:#002856}
    .fil0 {fill:#FEFEFE}
    .fil2 {fill:#FFB617}
   ]]>
  </style>
 </defs>
 <g id="Capa_x0020_1">
  <metadata id="CorelCorpID_0Corel-Layer"/>
  <g id="Northern_x0020_Colorado_x0020_Bears.cdr">
   <path class="fil0" d="M812.79 595.93c5.96,8.58 13.96,15.43 23.32,20.04 -3.71,5.03 -8.78,10.28 -15.7,9.26 -11.32,0.44 -18.48,-13.87 -12.6,-23.09 1.53,-2.18 3.3,-4.18 4.98,-6.21zm73.39 526.14l0 0c1.29,-2.9 4.91,-2.95 6.09,0.07 7.72,18.27 23.78,32 41.35,40.51 4.98,2.58 7.16,9.08 13.35,9.56 35.41,9.51 73.81,9.34 108.82,-1.77 4.03,-8.28 13.58,-10.13 20.35,-15.32 11.8,-8.89 22.6,-19.96 27.54,-34.19 0.98,-0.31 2.95,-0.95 3.93,-1.27 12.21,21 7.52,51.84 -13.32,65.71 -12.44,8.31 -33.74,5.71 -38.87,-10.05 -5.57,5.67 -9.06,12.88 -10.93,20.54 -29.78,6.17 -60.84,6.13 -90.65,0.04 -2.36,-7.76 -6.41,-14.83 -11.81,-20.87 -2.58,9.55 -12.11,15.39 -21.72,14.77 -10.55,0.97 -20.17,-5.24 -26.57,-13.13 -12.33,-14.99 -14.83,-36.8 -7.56,-54.6zm30.08 -243.37l0 0c27.31,-5.71 55.28,1.45 80.97,10.71 24.27,-8.78 50.36,-15.45 76.32,-11.67 17.59,2.62 34.47,12.51 43.49,28.08 -11.82,-11.21 -29.29,-14.35 -44.95,-11.81 -22.03,2.53 -42.44,11.71 -62.94,19.56 -5.71,1.95 -11.9,4.61 -17.84,1.97 -23.3,-7.95 -45.86,-19.31 -70.69,-21.78 -14.92,-2.33 -30.41,1.76 -42.51,10.69 8.86,-13.06 22.57,-22.7 38.15,-25.75zm248.25 -263.02l0 0c9.41,-4.28 17.17,-11.24 23.05,-19.69 3.84,3.91 6.63,8.6 7.96,13.94 -1.48,7.66 -6.94,15.72 -15.64,15.3 -6.96,1.02 -11.86,-4.4 -15.37,-9.55z"/>
   <path class="fil1" d="M1187.08 563.34c11.28,-3.05 23.6,-0.81 34.52,3.04 18.69,6.37 35.45,20.18 42.62,38.92 3.15,7.41 3.77,15.49 4.88,23.38 -7.13,-12.46 -20.52,-19.73 -34.35,-22.01 0,9.09 0,18.79 -5.38,26.6 -10.3,15.91 -31.53,21.06 -49.31,17.63 -6.37,-0.58 -14.45,-2.41 -19.31,3.01 -4.05,3.8 -4.47,9.64 -5.56,14.75 -12.22,-19.23 -30.37,-33.56 -44.09,-51.57 -7.46,-9.34 -9.97,-21.93 -5.61,-33.19 7.16,11.2 18.23,23.37 33.06,20.4 22.01,-4.32 35.8,-24.22 48.53,-40.96zm276.09 10.72l0 0c27.76,38.01 37.77,85.94 38.81,132.23 0.13,46.33 -8.91,92.29 -23.34,136.19 -8.45,-8.95 -17.57,-17.53 -28.87,-22.74 7.91,57.46 -12.73,115.05 -43.8,162.71 -3.48,-45.5 -12.12,-91.27 -31.83,-132.72 -9.83,-20.13 -22.08,-39.54 -39.03,-54.41 18.95,0.1 38.32,3.22 55.08,12.48 27.06,-25.94 46.38,-59.27 58.03,-94.76 14.91,-44.59 18.58,-92.29 14.95,-138.98zm-964.28 113l0 0c3.28,-39.86 13.81,-80.37 37.9,-112.92 -4.07,44.61 0,90.16 13.06,133.08 11.32,37.76 31.63,72.75 59.5,100.68 16.99,-9.13 36.37,-12.58 55.51,-12.54 -14.58,12.96 -25.98,29.09 -34.95,46.33 -22.72,43.41 -32.37,92.4 -35.82,140.89 -31.17,-47.75 -52.11,-105.65 -43.74,-163.26 -11.07,5.51 -19.77,14.29 -29.18,22.08 -16.67,-49.47 -25.79,-102.07 -22.28,-154.34zm-6.27 -604.96l0 0c-39.69,5.27 -78.11,22.03 -107.62,49.3 -34.27,31.01 -54.91,75.35 -60.16,120.97 -8.12,69.99 13.85,139.79 46.43,201.01 -14.18,21.68 -25.38,45.15 -36.03,68.72 6.88,-1.52 13.87,-2.35 20.91,-2.64 -36.65,64.82 -60.6,137.05 -68.57,211.15 4.9,-3.47 9.86,-6.81 14.91,-10.08 -13.31,75.41 -13.04,153.39 3.2,228.32 19.83,93.33 65.5,180.37 128.22,251.97 1.85,-8.99 4.34,-17.86 8.24,-26.18 24.67,36.46 60.98,62.92 97.36,86.76 69.22,43.93 145.02,76.28 221.88,104.24 2.72,-7.9 7.39,-14.81 12.23,-21.5 9.85,26.07 23.72,51.53 45.4,69.59 19.13,16.68 42.6,26.86 64.3,39.54 25.31,14.15 47.78,33.32 65.37,56.43 9.2,-13.08 13.03,-29.68 9.83,-45.4 16.86,14.25 36.13,31.8 35.97,55.7 23.13,-15.26 47.3,-33.25 56.67,-60.54 9.22,9.43 9.26,23.28 6.77,35.39 37.13,-14.33 74.7,-31.13 103.3,-59.62 26.29,-26.13 41.22,-60.64 61.66,-91.03 5.31,6.71 10.17,13.79 13.93,21.52 85.19,-31.22 169.63,-67.23 244.54,-119.04 28.49,-20.48 57.01,-42.68 76.36,-72.42 3.72,8.54 6.3,17.49 8.39,26.54 66.17,-75.67 113.31,-168.5 131.25,-267.67 13.13,-70.17 12.32,-142.51 0.09,-212.72 5.02,3.32 10.01,6.73 14.97,10.22 -8.16,-74.08 -31.92,-146.33 -68.68,-211.13 7.04,0.23 14.02,1.11 20.92,2.54 -10.53,-23.53 -21.71,-46.9 -35.95,-68.41 28.55,-54.64 49.47,-115.2 48.07,-177.52 -0.79,-46.75 -16.19,-94.12 -47.22,-129.61 -24.16,-28.25 -57.28,-48.22 -92.92,-58.32 -26.81,-7.97 -55.09,-9.11 -82.84,-7.2 -47.51,4.59 -93.02,22.84 -132.45,49.4 -21.06,-7.58 -42.91,-12.73 -64.94,-16.53 -59.88,-9.99 -121.58,-10.78 -181.2,1.21 2.76,-5.3 5.34,-10.7 7.87,-16.12 -29.22,3.93 -56.63,15.68 -82.8,28.74 -26.66,-12.5 -53.95,-25.02 -83.46,-28.74 2.53,5.38 5.21,10.72 7.85,16.05 -30.18,-6.18 -60.96,-8.3 -91.69,-9.07 -52.13,1.31 -104.9,6.87 -154.31,24.46 -54.07,-36.55 -120.61,-57.29 -186.05,-48.28zm-6.21 82.59l0 0c-34.35,13.67 -63.43,41.47 -76.16,76.47 -11.21,29.49 -9.59,62.57 0.71,92.08 0.06,-21.81 3.84,-44.15 15.26,-63.05 16.2,-28.54 47.46,-48.55 80.6,-48.7 31.59,-0.89 61.08,14.52 84.67,34.39 -28.28,-5.29 -59.04,-7.5 -85.89,4.72 -15.12,6.75 -25.57,20.85 -30.12,36.48 18.28,-18.21 49.31,-17.46 69.43,-2.76 5.81,4.2 11.01,11.63 8.1,19.05 -3.09,6.5 -9.8,10.03 -14.68,15.03 -29.1,27.81 -52.94,60.66 -73.58,95.1 -7.71,13.43 -15.62,26.93 -20.67,41.66 15.41,-4.88 31.07,-9.54 47.31,-10.6 -38.42,34.73 -63.09,81.56 -84.17,128.14 11.65,-5.86 24.09,-9.91 36.57,-13.54 -8.84,17.65 -15.49,36.28 -21.24,55.12 -20,66.99 -24.61,138.41 -14.02,207.48 11.36,70.68 37.49,139.5 78.67,198.23 7.87,-26.52 17.79,-53.41 36.38,-74.45 2.12,25.79 11.34,50.63 24.98,72.5 22.04,35.68 53.11,64.73 86.29,89.92 31.47,23.41 65.05,44.09 100.56,60.77 -9.86,-10.61 -20.1,-20.91 -29.01,-32.36 -30.45,-37.57 -52.65,-82.72 -58.86,-131 -6.66,-48.26 2.35,-98.38 24.59,-141.66 -4.17,38.55 5.36,79.42 30.68,109.41 7.56,-32.02 17.42,-63.57 30.81,-93.64 21.87,-48.14 51.99,-94.2 95.02,-125.94 -13.9,20.07 -20.5,43.97 -25.71,67.52 -10.84,53.14 -14.19,107.66 -12.42,161.8 0.45,18.67 4.32,37.94 16.01,53.02 11.86,16.13 31.01,28.14 51.48,27.62 19.17,0.21 38.19,-3.93 56.28,-10.09 14.68,-5.38 29.12,-12.17 41.12,-22.33 -22.63,-9.57 -46.64,-20 -61.91,-40.16 10.78,-4.61 9.85,-20.05 2.14,-27.08 -11.9,-12.09 -29.99,-13.21 -45.89,-14.44 -3.85,-0.16 -5.32,-4.63 -4.07,-7.76 6.08,-29.5 13.41,-60.15 32.06,-84.51 13.33,-17.53 34,-27.91 55.35,-31.83 29.92,-5.59 60.6,-5.18 90.92,-4.55 27.06,1.45 55.84,3.26 79.24,18.44 19.51,12.48 31.3,33.58 38.97,54.85 6.12,17.44 10.71,35.47 13.35,53.78 -11.07,3.37 -23.05,1.89 -33.96,6.09 -11,3.3 -23.34,11.88 -22.53,24.75 -0.64,5.57 3.55,9.56 7.81,12.32 -15.16,20.29 -39.4,30.44 -61.95,40.16 10.59,8.66 22.78,15.14 35.53,20.04 22.33,8.62 46.44,13.86 70.47,11.9 22.32,-3.42 41.24,-19.83 50.63,-39.99 9.66,-19.61 8.16,-42.08 9.03,-63.3 -0.23,-45.94 -3.53,-92.03 -12.69,-137.11 -5.23,-24.11 -11.83,-48.74 -26.23,-69.18 32.42,23.24 57.09,55.64 76.91,89.9 23.01,40.31 38.6,84.51 49.01,129.66 25.58,-29.93 34.83,-70.97 30.71,-109.55 31.76,61.16 35.64,136.11 9.25,199.88 -15.89,40 -42.31,74.91 -72.48,105.28 33.24,-15.39 64.62,-34.71 94.32,-56.1 28.45,-21.04 55.51,-44.46 77.24,-72.54 21.33,-27.27 37.77,-59.75 40.16,-94.76 18.48,21.18 28.64,48.03 36.47,74.64 16.34,-22.89 30.13,-47.52 41.51,-73.21 37.93,-83.75 51.28,-178.41 37.28,-269.31 -6.46,-40.68 -17.24,-81.06 -35.37,-118.17 12.55,3.47 24.9,7.69 36.56,13.5 -20.9,-46.6 -45.8,-93.04 -83.74,-128.07 16.05,1.01 31.57,5.65 46.79,10.55 -5.07,-15.39 -13.52,-29.35 -21.54,-43.32 -20.85,-34.73 -45.19,-67.71 -74.8,-95.49 -4.26,-4.22 -9.87,-7.44 -12.56,-12.96 -2.37,-7.46 2.05,-14.98 8.11,-19.13 20.17,-14.56 51.43,-15.66 69.49,2.99 -4.32,-15.28 -14.18,-29.22 -28.84,-36.03 -27.02,-12.96 -58.42,-10.86 -87.06,-5.23 22.28,-19.23 50.13,-33.9 80.08,-34.54 27.47,-1.02 54.87,11.23 72.89,31.92 19.84,21.81 28.39,51.96 27.31,81.03 6.48,-20.74 10.86,-42.75 7.69,-64.52 -3.33,-32.34 -20.58,-62.41 -45.55,-82.97 -27.08,-22.38 -62.49,-34.01 -97.52,-33.22 -51.71,-0.05 -100.64,24.21 -139.16,57.42 -62.56,-14.75 -128.04,-22.97 -191.85,-11.76 8.3,-7.93 17,-15.38 26.04,-22.47 -44.2,3.2 -91.61,20.4 -116.3,59.38 25.31,-3.2 50.98,-4.84 76.44,-2.56 45.36,2.56 92.38,14.29 127.37,44.72 -55.14,-15.79 -117.11,-14.4 -168.22,13.56 18.65,2.9 37.93,6.06 54.27,16.17 -18.25,2.58 -37.15,5.4 -53,15.5 28.39,1.76 58.9,4.92 81.95,23.34 -34.54,-0.15 -68.87,8.29 -99.95,23.16 -18.34,8.95 -36.2,19.43 -51.28,33.33 -41.62,-35.78 -96.36,-56.34 -151.27,-56.49 23.05,-18.55 53.58,-21.29 81.93,-23.57 -16.1,-9.45 -34.66,-12.92 -52.92,-15.22 16.14,-10.33 35.43,-13.11 53.94,-16.33 -50.84,-27.89 -112.46,-29.05 -167.39,-13.72 35.14,-30.91 82.92,-42.08 128.57,-44.53 24.88,-2.35 49.89,-0.15 74.66,2.45 -25.09,-38.77 -72.21,-56.03 -116.5,-59.21 9.07,7.02 17.79,14.46 25.98,22.51 -63.68,-11.21 -129.14,-3.11 -191.52,11.82 -32.86,-28.39 -72.83,-49.78 -116.18,-55.99 -27.91,-3.65 -56.98,-1.29 -83.19,9.45zm429.85 714.01l0 0c27.31,-5.71 55.28,1.45 80.97,10.71 24.27,-8.78 50.36,-15.45 76.32,-11.67 17.59,2.62 34.47,12.51 43.49,28.08 -11.82,-11.21 -29.29,-14.35 -44.95,-11.81 -22.03,2.53 -42.44,11.71 -62.94,19.56 -5.71,1.95 -11.9,4.61 -17.84,1.97 -23.3,-7.95 -45.86,-19.31 -70.69,-21.78 -14.92,-2.33 -30.41,1.76 -42.51,10.69 8.86,-13.06 22.57,-22.7 38.15,-25.75zm-30.08 243.37l0 0c1.29,-2.9 4.91,-2.95 6.09,0.07 7.72,18.27 23.78,32 41.35,40.51 4.98,2.58 7.16,9.08 13.35,9.56 35.41,9.51 73.81,9.34 108.82,-1.77 4.03,-8.28 13.58,-10.13 20.35,-15.32 11.8,-8.89 22.6,-19.96 27.54,-34.19 0.98,-0.31 2.95,-0.95 3.93,-1.27 12.21,21 7.52,51.84 -13.32,65.71 -12.44,8.31 -33.74,5.71 -38.87,-10.05 -5.57,5.67 -9.06,12.88 -10.93,20.54 -29.78,6.17 -60.84,6.13 -90.65,0.04 -2.36,-7.76 -6.41,-14.83 -11.81,-20.87 -2.58,9.55 -12.11,15.39 -21.72,14.77 -10.55,0.97 -20.17,-5.24 -26.57,-13.13 -12.33,-14.99 -14.83,-36.8 -7.56,-54.6zm-60.31 33.88l0 0c-3.28,-4.74 0.44,-12.63 6.61,-11.11 14.35,4.4 27.06,14.51 33.77,28.05 5.89,11.11 5.96,24.55 13.45,34.93 13.48,19.52 36.58,29.29 58.76,35.12 41.24,10.22 85.22,9.82 126.14,-1.81 20.18,-6.27 41.12,-16.11 52.89,-34.53 7.31,-10.82 7.08,-24.67 13.83,-35.76 6.75,-12.44 18.8,-21.64 32.19,-25.9 4.3,-1.99 9.43,1.16 9.56,5.92 -0.65,3.51 -2.21,6.75 -3.47,10.09 -13.98,34.56 -16.82,73.08 -35.18,105.96 -9.95,18.5 -26.29,32.44 -43.39,44.11 -13.39,9.05 -28.72,15.32 -44.81,17.36 2.2,-11.17 2.41,-23.68 -5.3,-32.9 -8.53,24.38 -28.62,43.07 -51.94,53.35 0.83,-7.37 2.06,-15.45 -1.95,-22.17 -6.17,-11.47 -17.82,-18.22 -28.78,-24.37 5.38,11.07 8.51,25.36 0.2,35.87 -4.52,-5.07 -8.88,-10.74 -15.26,-13.56 -9.64,-4.3 -20.62,-3.3 -30.42,-7.06 -16.72,-7.35 -33.52,-16.89 -43.33,-32.92 -24.83,-38.9 -25.29,-87.08 -43.57,-128.67zm-73.55 -573.98l0 0c15.72,-13.6 36.88,-21.97 57.83,-19.58 3.02,-0.21 4.53,2.64 6.17,4.65 9.08,12.77 19.54,25.15 33.31,33.02 7.33,4.34 16.45,5.71 24.65,3.28 9.45,-3.17 15.23,-11.9 20.85,-19.56 3.85,10.76 2.21,22.82 -4.75,31.96 -13.67,18.65 -32.38,33.08 -44.98,52.63 -1.33,-6.28 -2.45,-14.27 -9.2,-17.03 -8.5,-2.87 -17.37,0.45 -25.98,0.68 -14.83,-0.21 -30.78,-5.75 -39.15,-18.71 -5.34,-7.85 -5.5,-17.65 -5.4,-26.77 -13.75,2.37 -26.23,9.74 -34.41,21.14 1.41,-17.09 8.04,-34.18 21.06,-45.71zm60.47 13.96l0 0c5.96,8.58 13.96,15.43 23.32,20.04 -3.71,5.03 -8.78,10.28 -15.7,9.26 -11.32,0.44 -18.48,-13.87 -12.6,-23.09 1.53,-2.18 3.3,-4.18 4.98,-6.21zm351.72 19.75l0 0c3.51,5.15 8.41,10.57 15.37,9.55 8.7,0.42 14.16,-7.64 15.64,-15.3 -1.33,-5.34 -4.12,-10.03 -7.96,-13.94 -5.88,8.45 -13.64,15.41 -23.05,19.69z"/>
   <path class="fil2" d="M486.41 164.69c26.21,-10.74 55.28,-13.1 83.19,-9.45 43.35,6.21 83.32,27.6 116.18,55.99 62.38,-14.93 127.84,-23.03 191.52,-11.82 -8.19,-8.05 -16.91,-15.49 -25.98,-22.51 44.29,3.18 91.41,20.44 116.5,59.21 -24.77,-2.6 -49.78,-4.8 -74.66,-2.45 -45.65,2.45 -93.43,13.62 -128.57,44.53 54.93,-15.33 116.55,-14.17 167.39,13.72 -18.51,3.22 -37.8,6 -53.94,16.33 18.26,2.3 36.82,5.77 52.92,15.22 -28.35,2.28 -58.88,5.02 -81.93,23.57 54.91,0.15 109.65,20.71 151.27,56.49 15.08,-13.9 32.94,-24.38 51.28,-33.33 31.08,-14.87 65.41,-23.31 99.95,-23.16 -23.05,-18.42 -53.56,-21.58 -81.95,-23.34 15.85,-10.1 34.75,-12.92 53,-15.5 -16.34,-10.11 -35.62,-13.27 -54.27,-16.17 51.11,-27.96 113.08,-29.35 168.22,-13.56 -34.99,-30.43 -82.01,-42.16 -127.37,-44.72 -25.46,-2.28 -51.13,-0.64 -76.44,2.56 24.69,-38.98 72.1,-56.18 116.3,-59.38 -9.04,7.09 -17.74,14.54 -26.04,22.47 63.81,-11.21 129.29,-2.99 191.85,11.76 38.52,-33.21 87.45,-57.47 139.16,-57.42 35.03,-0.79 70.44,10.84 97.52,33.22 24.97,20.56 42.22,50.63 45.55,82.97 3.17,21.77 -1.21,43.78 -7.69,64.52 1.08,-29.07 -7.47,-59.22 -27.31,-81.03 -18.02,-20.69 -45.42,-32.94 -72.89,-31.92 -29.95,0.64 -57.8,15.31 -80.08,34.54 28.64,-5.63 60.04,-7.73 87.06,5.23 14.66,6.81 24.52,20.75 28.84,36.03 -18.06,-18.65 -49.32,-17.55 -69.49,-2.99 -6.06,4.15 -10.48,11.67 -8.11,19.13 2.69,5.52 8.3,8.74 12.56,12.96 29.61,27.78 53.95,60.76 74.8,95.49 8.02,13.97 16.47,27.93 21.54,43.32 -15.22,-4.9 -30.74,-9.54 -46.79,-10.55 37.94,35.03 62.84,81.47 83.74,128.07 -11.66,-5.81 -24.01,-10.03 -36.56,-13.5 18.13,37.11 28.91,77.49 35.37,118.17 14,90.9 0.65,185.56 -37.28,269.31 -11.38,25.69 -25.17,50.32 -41.51,73.21 -7.83,-26.61 -17.99,-53.46 -36.47,-74.64 -2.39,35.01 -18.83,67.49 -40.16,94.76 -21.73,28.08 -48.79,51.5 -77.24,72.54 -29.7,21.39 -61.08,40.71 -94.32,56.1 30.17,-30.37 56.59,-65.28 72.48,-105.28 26.39,-63.77 22.51,-138.72 -9.25,-199.88 4.12,38.58 -5.13,79.62 -30.71,109.55 -10.41,-45.15 -26,-89.35 -49.01,-129.66 -19.82,-34.26 -44.49,-66.66 -76.91,-89.9 14.4,20.44 21,45.07 26.23,69.18 9.16,45.08 12.46,91.17 12.69,137.11 -0.87,21.22 0.63,43.69 -9.03,63.3 -9.39,20.16 -28.31,36.57 -50.63,39.99 -24.03,1.96 -48.14,-3.28 -70.47,-11.9 -12.75,-4.9 -24.94,-11.38 -35.53,-20.04 22.55,-9.72 46.79,-19.87 61.95,-40.16 -4.26,-2.76 -8.45,-6.75 -7.81,-12.32 -0.81,-12.87 11.53,-21.45 22.53,-24.75 10.91,-4.2 22.89,-2.72 33.96,-6.09 -2.64,-18.31 -7.23,-36.34 -13.35,-53.78 -7.67,-21.27 -19.46,-42.37 -38.97,-54.85 -23.4,-15.18 -52.18,-16.99 -79.24,-18.44 -30.32,-0.63 -61,-1.04 -90.92,4.55 -21.35,3.92 -42.02,14.3 -55.35,31.83 -18.65,24.36 -25.98,55.01 -32.06,84.51 -1.25,3.13 0.22,7.6 4.07,7.76 15.9,1.23 33.99,2.35 45.89,14.44 7.71,7.03 8.64,22.47 -2.14,27.08 15.27,20.16 39.28,30.59 61.91,40.16 -12,10.16 -26.44,16.95 -41.12,22.33 -18.09,6.16 -37.11,10.3 -56.28,10.09 -20.47,0.52 -39.62,-11.49 -51.48,-27.62 -11.69,-15.08 -15.56,-34.35 -16.01,-53.02 -1.77,-54.14 1.58,-108.66 12.42,-161.8 5.21,-23.55 11.81,-47.45 25.71,-67.52 -43.03,31.74 -73.15,77.8 -95.02,125.94 -13.39,30.07 -23.25,61.62 -30.81,93.64 -25.32,-29.99 -34.85,-70.86 -30.68,-109.41 -22.24,43.28 -31.25,93.4 -24.59,141.66 6.21,48.28 28.41,93.43 58.86,131 8.91,11.45 19.15,21.75 29.01,32.36 -35.51,-16.68 -69.09,-37.36 -100.56,-60.77 -33.18,-25.19 -64.25,-54.24 -86.29,-89.92 -13.64,-21.87 -22.86,-46.71 -24.98,-72.5 -18.59,21.04 -28.51,47.93 -36.38,74.45 -41.18,-58.73 -67.31,-127.55 -78.67,-198.23 -10.59,-69.07 -5.98,-140.49 14.02,-207.48 5.75,-18.84 12.4,-37.47 21.24,-55.12 -12.48,3.63 -24.92,7.68 -36.57,13.54 21.08,-46.58 45.75,-93.41 84.17,-128.14 -16.24,1.06 -31.9,5.72 -47.31,10.6 5.05,-14.73 12.96,-28.23 20.67,-41.66 20.64,-34.44 44.48,-67.29 73.58,-95.1 4.88,-5 11.59,-8.53 14.68,-15.03 2.91,-7.42 -2.29,-14.85 -8.1,-19.05 -20.12,-14.7 -51.15,-15.45 -69.43,2.76 4.55,-15.63 15,-29.73 30.12,-36.48 26.85,-12.22 57.61,-10.01 85.89,-4.72 -23.59,-19.87 -53.08,-35.28 -84.67,-34.39 -33.14,0.15 -64.4,20.16 -80.6,48.7 -11.42,18.9 -15.2,41.24 -15.26,63.05 -10.3,-29.51 -11.92,-62.59 -0.71,-92.08 12.73,-35 41.81,-62.8 76.16,-76.47zm339.46 991.26l0 0c18.28,41.59 18.74,89.77 43.57,128.67 9.81,16.03 26.61,25.57 43.33,32.92 9.8,3.76 20.78,2.76 30.42,7.06 6.38,2.82 10.74,8.49 15.26,13.56 8.31,-10.51 5.18,-24.8 -0.2,-35.87 10.96,6.15 22.61,12.9 28.78,24.37 4.01,6.72 2.78,14.8 1.95,22.17 23.32,-10.28 43.41,-28.97 51.94,-53.35 7.71,9.22 7.5,21.73 5.3,32.9 16.09,-2.04 31.42,-8.31 44.81,-17.36 17.1,-11.67 33.44,-25.61 43.39,-44.11 18.36,-32.88 21.2,-71.4 35.18,-105.96 1.26,-3.34 2.82,-6.58 3.47,-10.09 -0.13,-4.76 -5.26,-7.91 -9.56,-5.92 -13.39,4.26 -25.44,13.46 -32.19,25.9 -6.75,11.09 -6.52,24.94 -13.83,35.76 -11.77,18.42 -32.71,28.26 -52.89,34.53 -40.92,11.63 -84.9,12.03 -126.14,1.81 -22.18,-5.83 -45.28,-15.6 -58.76,-35.12 -7.49,-10.38 -7.56,-23.82 -13.45,-34.93 -6.71,-13.54 -19.42,-23.65 -33.77,-28.05 -6.17,-1.52 -9.89,6.37 -6.61,11.11zm-73.55 -573.98l0 0c-13.02,11.53 -19.65,28.62 -21.06,45.71 8.18,-11.4 20.66,-18.77 34.41,-21.14 -0.1,9.12 0.06,18.92 5.4,26.77 8.37,12.96 24.32,18.5 39.15,18.71 8.61,-0.23 17.48,-3.55 25.98,-0.68 6.75,2.76 7.87,10.75 9.2,17.03 12.6,-19.55 31.31,-33.98 44.98,-52.63 6.96,-9.14 8.6,-21.2 4.75,-31.96 -5.62,7.66 -11.4,16.39 -20.85,19.56 -8.2,2.43 -17.32,1.06 -24.65,-3.28 -13.77,-7.87 -24.23,-20.25 -33.31,-33.02 -1.64,-2.01 -3.15,-4.86 -6.17,-4.65 -20.95,-2.39 -42.11,5.98 -57.83,19.58zm434.76 -18.63l0 0c-12.73,16.74 -26.52,36.64 -48.53,40.96 -14.83,2.97 -25.9,-9.2 -33.06,-20.4 -4.36,11.26 -1.85,23.85 5.61,33.19 13.72,18.01 31.87,32.34 44.09,51.57 1.09,-5.11 1.51,-10.95 5.56,-14.75 4.86,-5.42 12.94,-3.59 19.31,-3.01 17.78,3.43 39.01,-1.72 49.31,-17.63 5.38,-7.81 5.38,-17.51 5.38,-26.6 13.83,2.28 27.22,9.55 34.35,22.01 -1.11,-7.89 -1.73,-15.97 -4.88,-23.38 -7.17,-18.74 -23.93,-32.55 -42.62,-38.92 -10.92,-3.85 -23.24,-6.09 -34.52,-3.04zm-688.19 123.72l0 0c-3.51,52.27 5.61,104.87 22.28,154.34 9.41,-7.79 18.11,-16.57 29.18,-22.08 -8.37,57.61 12.57,115.51 43.74,163.26 3.45,-48.49 13.1,-97.48 35.82,-140.89 8.97,-17.24 20.37,-33.37 34.95,-46.33 -19.14,-0.04 -38.52,3.41 -55.51,12.54 -27.87,-27.93 -48.18,-62.92 -59.5,-100.68 -13.06,-42.92 -17.13,-88.47 -13.06,-133.08 -24.09,32.55 -34.62,73.06 -37.9,112.92zm964.28 -113l0 0c3.63,46.69 -0.04,94.39 -14.95,138.98 -11.65,35.49 -30.97,68.82 -58.03,94.76 -16.76,-9.26 -36.13,-12.38 -55.08,-12.48 16.95,14.87 29.2,34.28 39.03,54.41 19.71,41.45 28.35,87.22 31.83,132.72 31.07,-47.66 51.71,-105.25 43.8,-162.71 11.3,5.21 20.42,13.79 28.87,22.74 14.43,-43.9 23.47,-89.86 23.34,-136.19 -1.04,-46.29 -11.05,-94.22 -38.81,-132.23z"/>
  </g>
 </g>
</svg>
