<?xml version="1.0" encoding="UTF-8"?>
<!DOCTYPE svg PUBLIC "-//W3C//DTD SVG 1.1//EN" "http://www.w3.org/Graphics/SVG/1.1/DTD/svg11.dtd">
<!-- Creator: CorelDRAW -->
<svg xmlns="http://www.w3.org/2000/svg" xml:space="preserve" width="2000px" height="1600px" version="1.1" style="shape-rendering:geometricPrecision; text-rendering:geometricPrecision; image-rendering:optimizeQuality; fill-rule:evenodd; clip-rule:evenodd"
viewBox="0 0 2000 1600"
 xmlns:xlink="http://www.w3.org/1999/xlink">
 <defs>
  <style type="text/css">
   <![CDATA[
    .fil2 {fill:#003C7D}
    .fil1 {fill:#010103}
    .fil4 {fill:#FBC79A}
    .fil3 {fill:#FFCD05}
    .fil0 {fill:#FFFFFD}
   ]]>
  </style>
 </defs>
 <g id="Capa_x0020_1">
  <metadata id="CorelCorpID_0Corel-Layer"/>
  <g id="Northern_x0020_Arizona_x0020_Lumberjacks.cdr">
   <path class="fil0" d="M1049.98 96.97c38.11,-11.29 79.1,-4.74 115.62,9.13 24.47,10.27 47.62,25.83 62.92,47.88 -37.92,-32.12 -86.98,-52.99 -137.06,-52.54 -31.59,0.15 -59.58,15.68 -89.21,24.24 -18.71,6.29 -32.69,20.99 -46.59,34.33 17.01,-36.67 57.28,-53.95 94.32,-63.04zm-328.77 814.45l0 0c19.13,20.2 31.33,46.52 53.53,63.91 10.53,7.99 24.54,7.2 37.01,6.37 -15.72,5.94 -32.73,13.4 -49.82,8.25 -16.33,-3.41 -29.05,-14.88 -39.96,-26.78 2.61,-2.42 5.22,-4.81 7.91,-7.2 8.72,8.98 18.07,19.44 31.79,19.17 -17.66,-13.03 -33.26,-30.11 -38.53,-51.97 -0.79,-3.9 -1.36,-7.84 -1.93,-11.75zm76.44 -65.19l0 0c5.69,13.15 2.81,27.47 3.15,41.29 10.04,11.82 20.3,23.6 27.54,37.47 4.09,-17.88 -11.33,-30.95 -14.24,-47.58 -2.16,-11.86 -7.73,-22.81 -16.45,-31.18zm599.9 1.25l0 0c6.59,-2.01 12.42,-5.68 18.03,-9.66 12.8,6.02 25.15,14.4 39.59,15.72 10.07,1.52 17.08,-6.67 24.2,-12.27l2.62 -2.16c-1.75,10.61 -9.74,19.24 -18.83,24.39 -14.81,3.19 -28.34,-6.17 -40.65,-13.03l1.1 6.63c-8.79,-2.91 -17.54,-5.98 -26.06,-9.62zm3.6 -45.68l0 0c14.32,2.8 28.41,7.23 42.99,8.6 4.17,-2.01 8.19,-4.4 12.2,-6.75 13.94,7.81 27.81,18.49 44.51,18.22 11.78,-0.04 15.84,-12.84 22.54,-20.15l3.64 -3.41c-3.3,13.6 -11.14,29.17 -25.72,33.07 -17.01,-0.23 -31.45,-11.25 -45.95,-18.79l3.41 8.34c-20.35,-2.09 -40.35,-8.07 -57.62,-19.13zm-524.63 -1.37l0 0c5.42,10.19 9.51,21.03 14.66,31.37 6.18,12.27 16.18,22.57 20.12,35.91 2.42,10.11 0.61,20.57 0,30.8 -8.3,-24.17 -20.87,-46.45 -34.4,-68 -1.17,-9.96 -0.22,-20.08 -0.38,-30.08zm70.81 -30.45l0 0c3.63,7.91 6.44,16.17 9.47,24.35 5.07,14.74 17.27,25.84 21.44,41.03 4.32,11.55 1.55,23.86 0.03,35.64 -5.45,-25.72 -17.88,-49.13 -31.36,-71.44 1.63,-9.77 1.55,-19.74 0.42,-29.58zm595.08 5.72l0 0c20.83,-5.46 26.97,-28.3 37.01,-44.63 -3.41,14.25 -6.44,28.71 -12.8,42.01 -12.96,8.03 -28.04,14.4 -43.53,13.03 -13.56,-2.31 -25.46,-9.62 -36.33,-17.69 0.42,1.9 1.21,5.68 1.63,7.58 -31.25,0.42 -64.55,-1.14 -92.13,-17.28 -2.73,-7.23 1.06,-14.96 2.69,-22.04 0.83,7.73 2.05,17.69 11.52,19.2 25.07,7.62 52.92,16.44 78.64,6.44 16.21,8.6 34.28,19.36 53.3,13.38zm-303.32 -97.06l0 0 2.5 0.23c5.53,1.55 11.17,0.49 16.86,0.26 1.32,17.96 2.53,37.05 -4.17,54.06 -8.07,15.76 -23.75,25.46 -38.72,33.87 -1.59,0.83 -4.77,2.58 -6.36,3.45 1.36,-1.82 4.17,-5.46 5.57,-7.28 29.74,-15.45 40.68,-55.91 24.32,-84.59zm-617.24 -31.63l0 0c10,2.01 19.84,5.11 28.9,9.96 32.92,19.13 62.24,44.14 87.05,72.96 -4.89,0.5 -9.81,0.95 -14.7,1.41 -17.04,-21.14 -38.22,-38.23 -59.17,-55.24 -13.29,-10.75 -29.21,-17.76 -42.08,-29.09zm-182.03 0.3l0 0c21.9,-4.77 45.5,-0.68 65.05,9.93 12.16,9.55 24.32,22.09 25.91,38.26 -19.78,-20.49 -47.62,-28.9 -74.33,-36.03 -6.06,-3.21 -11.25,-7.91 -16.63,-12.16zm240.93 -6.74l0 0c0.11,7.05 0.38,14.09 0.68,21.14 8.87,-4.77 19.02,-9.66 23.6,-19.17 2.28,-7.99 1.94,-16.36 1.97,-24.55 -8.75,7.54 -17.38,15.19 -26.25,22.58zm740.93 -38.45l0 0c4.32,-3.52 9.05,-6.55 14.32,-8.52 -1.44,1.85 -4.4,5.57 -5.87,7.42 2.65,0.65 7.95,1.86 10.64,2.47 -12.73,6.28 -27.12,8.29 -39.43,15.26 -2.66,16.59 -0.34,34.74 -10.34,49.4 -1.48,1.82 -4.48,5.53 -5.95,7.35 -5.38,7.04 -11.14,14.89 -10.88,24.17 4.48,7.23 10.8,13.1 17.13,18.75 -10.15,-2.05 -22.32,-7.54 -24.21,-18.79 6.4,-17.96 18.83,-33.03 25.23,-50.99 2.01,-11.02 -0.11,-22.35 0.68,-33.49 8.56,-6.32 18.68,-9.77 28.68,-13.03zm-675.16 0.57l0 0c14.92,-0.38 31.02,-3.37 40.83,-15.8 -8.22,14.13 -26.25,14.28 -40.34,17.66 19.73,36.4 48.6,70.99 88.41,85.87 -36.25,-3.1 -64.93,-30 -87.77,-56.14 -8.6,-8.52 -0.87,-21.21 -1.13,-31.59zm-33.61 4.02l0 0c7.54,-15.54 14.25,-31.48 18.76,-48.19 4.54,26.1 -5.57,51.48 -17.54,74.06 -1.1,-8.56 -1.94,-17.24 -1.22,-25.87zm-225.13 -100.13l0 0c-38.71,2.09 -76.97,17.77 -104.4,45.46 -16.93,17.81 -24.28,42.5 -26.97,66.37 -0.3,35.8 -8.49,71.41 -4.09,107.28 2.69,20.42 4.01,45.57 23.9,57.24 19.7,11.1 42.05,18.22 64.51,20.42 -1.85,2.57 -12.04,4.13 -6.51,7.88 30.49,27.24 72.69,34.89 111.98,40.04 7.35,0.15 16.85,3.41 20.98,-4.96 12.54,12.99 30.57,19.54 48.53,15.41 -4.66,7.69 -12.81,11.29 -21.02,13.87 9.24,22.54 22.27,44.59 43.22,58.11 25.11,17.5 57.46,19.13 86.86,14.89 -1.7,-4.4 -3.37,-8.75 -5.11,-13.07 -29.51,0.38 -60.73,-7.05 -82.47,-28.07 -11.71,-10.95 -17.69,-26.22 -22.43,-41.18 4.21,-4.2 8.45,-8.37 12.69,-12.58 -10.23,-1.21 -20.57,-2.04 -30.61,-4.47 -11.7,-2.8 -20.98,-11.32 -32.46,-14.66 -16.63,-1.93 -33.68,0.31 -50.04,-3.98 -20,-5.15 -40.2,-11.78 -57.24,-23.75 -0.84,-4.92 2.5,-9.24 3.98,-13.67 -26.82,-2.77 -55.05,-12.54 -71.41,-35.27 -21.33,-26.67 -25.84,-62.09 -24.28,-95.16 3.97,-2.46 7.91,-4.96 11.89,-7.38 -7.2,-25.58 -5.98,-54.63 9.96,-76.79 26.41,-40.27 75.62,-53.94 118.42,-69.4 -5.94,-0.87 -11.89,-1.74 -17.88,-2.58zm964.17 7.73l0 0c1.85,-9.96 13.98,-10.91 21.51,-14.85 -16.21,18.72 -14.77,45.35 -15.76,68.57l-3.03 3.33 -3.03 -3.45c-2.35,-17.72 -6.44,-36.29 0.31,-53.6zm345.93 -52.16l0 0c6.94,7.35 14.06,14.62 21.25,21.74 -17.35,92.17 -72.5,178.61 -153.64,227.22 0.26,-4.13 0.79,-12.39 1.06,-16.52 21.74,-18.37 44.77,-35.57 62.62,-58.07 31.47,-37.69 50.98,-83.83 64.02,-130.77 3.71,-14.13 8.21,-28.94 4.69,-43.6zm-328.62 9.09l0 0c13.83,-4.24 23.71,-16.18 37.65,-20.3 -15.11,31.32 -53.07,37.46 -84.32,37.69 6.59,-5.61 12.88,-11.59 19.39,-17.31 8.98,0.68 18.38,2.8 27.28,-0.08zm107.7 -27.5l0 0c-11.33,46.4 -29.25,90.95 -49.44,134.18 -20.34,42.27 -43.6,83.83 -75.01,118.98 9.55,0.19 19.14,1.86 28.68,0.57 -4.32,-0.95 -8.64,-1.78 -12.99,-2.58 20.04,-19.39 32.61,-44.66 47.54,-67.84 32.35,-52.13 50.23,-111.37 70.31,-168.92 -2.65,-5.03 -5.87,-9.73 -9.09,-14.39zm-991.37 -9.93l0 0c5.61,0.04 11.22,0.53 16.82,0.91 -33.26,8.03 -66.1,19.13 -95,37.77 -9.97,0.91 -20.04,0.83 -30.05,1.44 32.43,-21.48 70.96,-30.99 108.23,-40.12zm761.5 -15.57l0 0c11.44,57.05 5.61,118.61 -21.55,170.58 -15.46,31.3 -36.71,60.96 -67.28,78.95 7.95,-6.78 15.07,-14.62 21.02,-23.26 22.92,-34.47 42.01,-71.9 52.62,-112.05 9.74,-37.24 14.28,-75.77 15.19,-114.22zm-172.44 0.72l0 0c2.92,-3.75 6.06,-7.31 9.47,-10.64 -3.71,25.3 -4.09,54.47 -24.32,73.11 0.27,-2.73 0.72,-8.18 0.99,-10.91 11.93,-14.51 11.4,-33.94 13.86,-51.56zm-205.92 -26.97l0 0c1.4,1.1 4.28,3.33 5.72,4.47 -1.93,19.28 -3.75,38.57 -5.57,57.89 -12.73,-19.1 -3.79,-41.9 -0.15,-62.36zm-368.33 -32.58l0 0c-29.96,18.91 -50.87,48.42 -71.33,76.68 8.34,-0.53 16.63,-1.14 24.93,-1.86 22.58,-39.89 61.33,-73.26 107.89,-79.51 35.83,-8.68 74.24,-4.4 107.96,9.96 -18.9,-10.61 -39.55,-17.92 -60.91,-21.67 -36.6,-3.41 -76.07,-3.18 -108.54,16.4zm161.8 -35.68l0 0c11.55,-0.95 20.91,-8.33 30.98,-13.34 1.86,6.82 3.83,13.6 5.38,20.54l-1.06 2.72c-14.16,3.87 -28.67,6.18 -42.73,10.31 -5.49,-2.92 -10.68,-6.37 -15.53,-10.23 7.2,-4.24 14.4,-9.05 22.96,-10zm423.32 -20.99l0 0c0.88,1.4 2.66,4.21 3.53,5.57 5.57,11.1 21.59,21.63 12.19,34.81 -7.27,15.16 -9.88,33.72 -23.71,44.74 -6.02,5.99 -14.85,10.53 -16.44,19.66 -3.9,13.03 -6.21,26.48 -7.12,40.04 3.56,-6.32 6.82,-12.84 8.98,-19.77 1.97,-21.89 26.51,-29.09 33.94,-48.11 6.06,-14.28 11.36,-28.9 15.68,-43.79 -4.13,-12.16 -7.65,-24.55 -5.95,-37.54 -7,1.51 -14.05,3.03 -21.1,4.39zm-224.97 2.24l0 0c-2.12,18.98 -2.24,38.26 0.49,57.16 1.78,13.3 12.46,22.88 22.61,30.42 0.23,9.85 -1.78,19.47 -4.43,28.94 1.14,5.95 2.84,11.75 4.59,17.54 3.44,-17.27 8.41,-34.74 7.42,-52.47 -6.63,-9.43 -17.54,-15.75 -21.93,-26.7 -3.3,-13.83 -2.2,-28.38 0.15,-42.24 1.63,-1.06 4.89,-3.11 6.51,-4.13l1.14 -0.76c6.14,-9.5 11.33,-19.54 16.21,-29.7l-0.49 -2.42c-6.67,-2.73 -13.37,-5.38 -19.85,-8.52 -1.7,11.93 -7.76,22.12 -12.42,32.88zm-122.97 -13.83l0 0c29.59,-10.57 60.8,-16.4 91.75,-21.36 1.06,1.47 3.22,4.39 4.32,5.83 -4.55,0.98 -9.05,1.97 -13.52,2.92 -0.42,4.96 -0.76,9.92 -1.07,14.88 -24.28,4.47 -48.94,8.49 -71.59,18.83 0.34,1.86 1.06,5.65 1.4,7.5 -3.79,-9.54 -7.96,-18.9 -11.29,-28.6zm621.45 -38.22l0 0c24.02,4.96 50.76,17.39 57.28,43.34 -13.87,-14.89 -31.25,-26.18 -51.71,-29.25 -1.89,-4.66 -3.75,-9.39 -5.57,-14.09zm41.86 -4.02l0 0c6.82,6.37 12.92,13.49 17.05,21.9 14.2,1.78 28.14,6.1 39.28,15.42 0.91,-5.12 1.86,-10.23 2.76,-15.35 -16.13,-14.54 -37.38,-22.27 -59.09,-21.97zm101.33 -19.54l0 0c13.68,15 22.54,33.63 34.13,50.27 6.67,11.81 17.77,22.8 17.01,37.31 0.53,60.65 -0.19,121.3 0.53,181.94 0,15.76 0.69,31.6 -1.62,47.28 -6.79,-15.46 -9.1,-32.39 -15.54,-48 -12.84,-32.95 -28.48,-65.42 -51.21,-92.8 -2.5,-3.91 -6.52,-7.51 -6.25,-12.51 -2.31,-55.3 7.8,-110.5 22.95,-163.49zm-342.45 1.25l0 0c23.11,5.41 46.41,15.19 62.51,33.26 -0.27,1.97 -0.72,5.87 -0.95,7.84 -18.22,-14.81 -41.18,-23.11 -64.74,-21.97 0.99,-6.4 2.08,-12.77 3.18,-19.13zm28.22 -14.78l0 0c5.84,3.75 11.52,7.65 17.51,11.18 15.94,0.87 32.23,-0.72 47.88,3.37 25.8,7.08 51.14,19.05 69.47,39.05 18.26,18.87 28.11,44.25 31.22,70.05 9.43,-43.79 -14.74,-89.29 -52.09,-111.98 -33.41,-22.05 -76.56,-22.96 -113.99,-11.67zm322.45 -24.39l0 0c12.01,28.22 29.32,53.71 45.8,79.47 45.69,68 98.31,131.15 154.33,190.85 -43.11,-90.04 -71.78,-186.6 -89.78,-284.6 -36.82,-8.15 -77.58,-5.38 -110.35,14.28zm43.61 2.91l0 0c-11.56,5.31 -19.4,19.59 -12.73,31.56 12.91,23.52 46.29,32.92 69.89,20.38 7.27,-4.24 12.08,-12.12 13.22,-20.46 -5.19,-30.38 -44.62,-43.45 -70.38,-31.48z"/>
   <path class="fil1" d="M1260.7 904.17c-21.93,-16.41 -54.97,-29.07 -64.15,-52.9 11.48,5.07 23.26,9.66 35.76,11.44 -5.8,-16.25 -23.79,-19.7 -38.57,-23.45 -8.52,-2.99 -17.42,1.1 -23.82,6.67 -0.57,6.25 0.03,12.58 -0.68,18.82 -3,4.97 -8.34,7.96 -13.3,10.57 -9.17,-1.81 -14.47,-10.49 -20.76,-16.55 -5.04,1.63 -10.19,3.03 -15,5.38 -6.33,9.28 -8.34,23.37 -21.06,26.33 -10.72,-0.69 -13.91,-11.14 -16.94,-19.51 -5.34,0.11 -10.64,0.22 -15.94,0.38 -8.15,10.94 -16.71,21.51 -24.89,32.39 -4.62,5.79 -4.74,14.5 -6.97,21.4 -5.76,10.95 -10.19,23.14 -19.29,31.9 -11.55,4.8 -24.77,3.33 -36.93,2.04 -14.43,-1.7 -25.64,-11.67 -38.45,-17.43 -9.77,-0.83 -19.2,3.3 -28.56,5.5 -4.21,6.06 -8.45,12.08 -12.73,18.07 -21.37,5.04 -41.37,16.44 -64.06,16.1 -25.45,32.16 -75.08,30.11 -107.77,10.57 0.42,69.4 1.1,138.91 -0.27,208.27 -0.91,-64.59 -0.37,-129.18 -0.37,-193.77 1.59,-15.07 -10.99,-25.15 -19.67,-35.53 -20.83,0 -41.89,-2.31 -61.36,-10.19 -20.73,-6.74 -35.8,-23.03 -52.47,-36.14 -19.43,0.65 -39.24,-1.78 -58.19,3.75 -1.82,-1.4 -3.63,-2.73 -5.45,-4.05 20.91,-0.57 41.86,-0.65 62.77,-0.61 -11.78,-15.68 -20.27,-33.67 -24.02,-52.96 -59.7,3 -126.49,-6.55 -170.28,-51.1 -29.28,-6.1 -59.21,-25.3 -66.18,-56.18 -9.47,-39.89 -5.53,-81.74 3.53,-121.33 -0.76,-27.96 -0.19,-57.47 14.92,-82.05 13.94,-25.84 40.04,-41.6 66.6,-51.9 21.55,-29.28 46.25,-62.39 85.12,-67.77 9.01,-43.07 39.81,-79.1 78.64,-98.72 40.61,-20.87 89.74,-29.93 134.03,-15.87 12.72,-12.5 29.77,-19.66 47.65,-19.97 48.76,-35.95 109.4,-51.89 169.03,-56.82 -7.73,-25.49 -6.74,-53.79 2.42,-78.83 5.88,-16.97 21.75,-26.71 31.71,-40.84 20.57,-26.14 52.73,-39.89 84.85,-45.08 31.56,-4.77 64.44,-6.89 95.62,1.41 36.29,11.7 71.52,32.57 93.34,64.62 8.03,16.29 17.16,32.13 23.22,49.32 55.46,-20.57 121.83,-15.75 170.39,19.51 14.74,-0.76 29.36,1.52 42.47,8.49 30.98,-2.24 64.36,-3.49 91.18,15.07 4.32,-18.86 10.64,-37.27 17.58,-55.34 2.8,-6.67 5.53,-14.28 12.46,-17.77 20.19,-12.95 44.55,-15.19 67.73,-18.26 23.94,-2.34 48.6,-3.25 71.86,3.98 13.79,60.61 26.22,121.75 45.76,180.89 15.42,47.23 32.96,93.79 53.95,138.83 2.08,4.13 2.46,8.41 1.1,12.92 -20.99,102.81 -89.18,194.98 -182.18,243.92 3.87,-51.52 -1.85,-103.53 -16.63,-153 -12.38,19.54 -26.97,37.99 -45.04,52.65 6.25,22.39 4.02,45.73 -0.87,68.11 3.14,24.1 3.18,49.74 -6.89,72.36 -6.14,13.82 -19.82,22.42 -33.95,26.36 -12.72,19.97 -25.98,46.33 -52.76,48.15 -8.34,14.74 -19.33,29.02 -36.49,33.45 -9.05,10.99 -23.9,14.36 -32.95,24.51 -15.99,0.42 -32.01,0.34 -48.04,0.04 0.61,-2.24 1.79,-6.75 2.39,-8.98 0.45,-1.56 1.4,-4.7 1.86,-6.29 0.79,-2.61 1.55,-5.23 2.31,-7.84 -8.15,-2.5 -16.1,-5.49 -23.94,-8.71 -4.02,10.64 -7.66,21.44 -11.52,32.12 -3.75,0 -7.5,0.04 -11.21,0.08 2.99,-13.23 7.99,-25.8 13.1,-38.34 -4.88,-4.62 -10.53,-8.79 -13.25,-15.08 -0.08,-9.51 3.94,-18.37 6.89,-27.2 -11.55,-20.64 8.22,-39.88 7.62,-60.61 1.28,-14.73 7.76,-28.33 14.92,-41.02 -6.71,-7.35 -15.68,-16.21 -12.39,-27.16 5.04,-16.18 17.81,-28.76 22.73,-45.01 1.4,-13.18 -5.64,-27.65 2.28,-39.85 7.42,-8.9 21.09,-7.23 28.86,-15.57 7.99,-7.84 17.2,-14.24 26.9,-19.85 -8,-20.79 -9.82,-43.22 -6.9,-65.19 -21.74,1.13 -42.69,-5.57 -61.71,-15.61 -2.08,20.42 -2.04,41.33 -8.03,61.18 -11.93,46.63 -41.71,89.51 -83.87,113.57 1.78,20.61 3.75,42.16 -5.34,61.48 -8.26,22.24 -28.94,36.97 -49.44,47.16 -5.79,1.86 -5.94,8.64 -7.99,13.41 -4.2,14.06 -11.06,27.09 -16.29,40.73 14.78,4.01 29.97,8.14 42.88,16.63 1.44,7.16 0.8,14.5 0.99,21.78 7.73,4.54 16.29,8.29 22.62,14.85 2,6.25 -0.04,12.95 -4.23,19.07zm-533.16 -97.64l0 0c5.03,8.79 16.93,18.75 25.76,8.3 -8.49,-3.07 -17.09,-5.84 -25.76,-8.3zm319.68 -5.53l0 0c4.01,5.8 11.06,-0.83 16.1,-1.63 -1.25,-5.26 0.79,-13.29 -5.87,-15.23 -10.16,-5.64 -20.01,10.76 -10.23,16.86zm-266.12 -24.85l0 0c15.53,-2.58 31.25,-2.65 46.97,-2.88 -12.31,-12.8 -34.92,-8.33 -46.97,2.88zm79.21 -39.4l0 0c15.57,-0.03 31.14,-0.75 46.71,-0.49 -13.49,-9.7 -34.17,-12.16 -46.71,0.49zm225.81 -15.26l0 0c-2.35,20.23 -3.29,40.91 -10.64,60.19 -7.2,16.33 -4.78,34.47 -5.84,51.78 10.16,-12.65 6.86,-29.85 13.26,-44.05 8.3,-20.04 10.12,-42.13 7.01,-63.49 -0.95,-1.1 -2.84,-3.33 -3.79,-4.43zm-57.43 -18.64l0 0c-1.32,17.01 -4.28,34.02 -2.99,51.14 9.89,-17.69 10.8,-39.93 7.69,-59.7 -2.92,2.19 -4.47,5.07 -4.7,8.56zm34.33 -12.73l0 0c-11.41,3.33 -5.95,22.12 5.41,18.9 13.15,-1.06 7.73,-25.3 -5.41,-18.9zm327.98 -21.97l0 0c-1.48,1.82 -4.48,5.53 -5.95,7.35 12.08,1.85 24.66,3.37 35.49,9.51 -0.3,6.66 -1.44,13.22 -2,19.88 3.78,-7.87 8.33,-15.91 8.18,-24.88 -9.09,-9.59 -23.68,-9.17 -35.72,-11.86zm-934.55 -8.68l0 0c5.12,7.58 9.06,16.98 18.04,20.8 21.47,10.8 41.7,23.9 63.41,34.28 -1.29,-6.7 -2.58,-13.71 -7.12,-19.05 -19.78,-20.49 -47.62,-28.9 -74.33,-36.03zm656.91 -0.6l0 0c3.94,7.01 8.64,14.02 16.06,17.77 16.33,9.39 38.91,16.44 54.74,2.23 -24.89,-0.8 -48.75,-8.94 -70.8,-20zm-146 42.09l0 0c10.35,1.25 20.99,4.39 31.33,1.25 12.54,-4.02 23.6,-11.98 32.35,-21.71 9.51,-10.84 20.72,-20.57 27.16,-33.75 -27.8,21.89 -58.18,40.49 -90.84,54.21zm102.47 -107.51l0 0c-12.69,7.35 4.63,25.26 12.96,14.13 8.86,-7.84 -4.92,-22.5 -12.96,-14.13zm-32.42 -15.84l0 0c3.1,21.03 0.68,42.13 0.79,63.23 9.78,-7.73 7.81,-21.44 8.94,-32.47 -0.26,-10.68 1.63,-24.85 -9.73,-30.76zm64.93 -2.88l0 0c0.45,11.22 1.81,22.35 1.66,33.57 0.23,20.23 -6.89,39.54 -7.88,59.66 19.7,-25.99 21.37,-64.78 6.22,-93.23zm-59.97 -101.56l0 0c2.69,16.63 21.21,15.72 34.02,18.15 11.63,2.5 23.07,-3.18 28.52,-13.64 -20.38,9.09 -42.99,4.43 -62.54,-4.51zm-421.32 -33.3l0 0c16.82,12.96 36.06,23.6 57.32,26.83 19.05,3.21 30.57,20.22 40.38,35.19 0.34,-13.11 -5.68,-25.57 -17.01,-32.51 -23.91,-15.75 -50.95,-32.04 -80.69,-29.51zm504.55 -57.73l0 0c3.82,6.75 9.47,12.2 16.82,15.04 -3.79,-6.85 -9.82,-11.78 -16.82,-15.04zm-109.29 9.06l0 0c9.85,-4.36 19.16,-10.12 27.01,-17.58 -10.95,2.31 -20.5,8.52 -27.01,17.58zm484.54 -73.99l0 0c11.56,12.24 30.35,12.43 41.63,25.5 -6.55,-16.71 -23.33,-28.38 -41.63,-25.5zm-371.77 25.08l0 0c-7.92,3.98 -14.36,-3.07 -18.79,-8.67 -1.17,0.72 -3.48,2.16 -4.66,2.88 2.35,8.71 6.44,16.78 11.67,24.13 6.36,-1.94 12.77,-3.83 19.21,-5.69 5.03,4.47 11.13,9.47 18.29,6.14 3.3,-4.05 5.8,-8.64 8.53,-13.11 8.03,1.29 15.98,3.07 23.67,5.8 0.99,-1.93 3.03,-5.83 4.02,-7.8 -9.47,-1.78 -19.02,-3.11 -28.57,-4.4 8.57,-4.51 16.48,-11.4 26.3,-12.77 4.5,4.48 8.4,9.48 12.49,14.32 9.4,-13.18 -6.62,-23.71 -12.19,-34.81 -21.14,9.24 -39.44,23.68 -59.97,33.98zm-133.8 -48l0 0c-5.72,6.48 -11.29,13.19 -18.18,18.45l-1.14 0.76c0.69,4.93 1.44,9.85 2.2,14.78 5.34,-5.08 10.65,-10.23 15.95,-15.38 6.48,4.65 12.95,9.35 19.39,14.09 -6.7,0.26 -13.41,0.49 -20.07,0.76 0.07,2.08 0.26,6.32 0.34,8.4 5.34,-1.21 10.64,-2.46 16.02,-3.67 3.37,6.67 7.43,16.97 17.01,14.62 2.27,-1.44 6.74,-4.35 8.98,-5.79 8.26,3.78 16.17,9.73 25.68,9.62 8.37,-4.96 10.31,-15.12 13.11,-23.6 -7.8,2.76 -16.97,12.23 -25.16,5.3 -18.22,-12.5 -35.04,-27.08 -54.13,-38.34zm658.77 -99.93l0 0c-11.56,5.31 -19.4,19.59 -12.73,31.56 12.91,23.52 46.29,32.92 69.89,20.38 7.27,-4.24 12.08,-12.12 13.22,-20.46 -5.19,-30.38 -44.62,-43.45 -70.38,-31.48zm10.91 2.92l0 0c-12.28,1.82 -21.94,16.14 -14.93,27.62 11.37,22.35 53.75,31.89 64.66,4.69 2.09,-24.92 -28.86,-37.65 -49.73,-32.31zm-614.98 -100.31l0 0c-37.04,9.09 -77.31,26.37 -94.32,63.04 -12.08,15.6 -15.76,35.57 -12.99,54.85 7.95,-13.6 13.67,-28.75 25.26,-39.89 2.47,-0.04 7.35,-0.19 9.78,-0.23 -8.26,12.54 -17.5,25.12 -20.46,40.19 -2.16,11.86 -3.33,26.52 7.5,34.63 2.5,-26.33 11.4,-58.64 39.17,-68.42 -20.76,20.76 -29.81,50.92 -23.56,79.71 5.68,2.68 11.33,5.49 17.23,7.72 6.14,-3.14 3.87,-10.68 5.08,-16.21 1.74,-21.97 9.7,-46.4 31.18,-56.33 -13.98,21.74 -25.23,47.5 -19.82,73.87 8.26,13.79 28.26,21.7 42.77,16.18 2.46,-23.11 -1.85,-53.95 21.63,-68.04 -10.68,21.36 -9.77,46.41 -6.47,69.4 7.34,11.7 22.42,14.32 35.11,15.68 11.67,1.18 26.22,-4.77 28.34,-17.58 7.01,-19.43 6.32,-40.19 6.85,-60.49 16.29,21.93 8.19,50.61 2.31,74.78 10.5,-0.38 22.16,-1.94 29.25,-10.61 18.37,-18.11 10,-45.91 10.8,-68.72 1.21,-0.26 3.71,-0.87 4.96,-1.17 12.77,20.79 9.09,45.42 4.73,68.07 22.62,-8.56 28.19,-36.44 25.04,-57.84 -2.23,-11.41 -2.46,-24.66 -10.95,-33.46 -11.62,-7.61 -20.98,6.64 -29.77,12.36 -14.21,-1.52 -27.88,2.31 -41.56,5.3 -11.44,-1.78 -22.04,-7.62 -33.82,-7.46 -10.65,-0.69 -22.7,1.93 -31.18,-6.18 -10.99,-9.47 -26.67,-6.67 -38.68,-13.71 -6.89,-3.87 -14.17,-6.93 -21.71,-9.17 -6.21,-5.95 -12.27,-12.08 -18.29,-18.22 15.23,4.89 30.42,10.23 43.98,18.83 11.48,8.18 27.61,1.51 38.6,11.1 13.11,10.41 31.1,1.59 45.72,8.37 17.62,7.88 36.94,1.51 55.08,-0.46 13.56,-9.13 27.47,-18.75 44.25,-20.45 -2.88,5.19 -9.32,9.47 -8.94,15.83 3.64,9.7 13.71,15.61 16.29,25.91 3.6,14.1 2.73,28.95 5.11,43.26 14.06,-23.82 8.83,-53.9 -4.05,-77.08 5.38,3.86 10.8,7.65 16.33,11.28 -0.19,-15.57 -8.26,-29.47 -17.24,-41.63 -15.3,-22.05 -38.45,-37.61 -62.92,-47.88 -36.52,-13.87 -77.51,-20.42 -115.62,-9.13zm560.46 94.48l0 0c12.01,28.22 29.32,53.71 45.8,79.47 45.69,68 98.31,131.15 154.33,190.85 -43.11,-90.04 -71.78,-186.6 -89.78,-284.6 -36.82,-8.15 -77.58,-5.38 -110.35,14.28zm-43.41 208.8l0 0c3.11,7.08 8.53,12.8 12.73,19.24 54.28,80.96 86.18,177.33 86.79,275.1 -0.27,4.13 -0.8,12.39 -1.06,16.52 81.14,-48.61 136.29,-135.05 153.64,-227.22 -7.19,-7.12 -14.31,-14.39 -21.25,-21.74 -72.54,-79.59 -143.57,-162.06 -196.87,-256.12 -27.08,60.57 -37.46,128.19 -33.98,194.22zm-279.04 -184.41l0 0c5.84,3.75 11.52,7.65 17.51,11.18 9.73,9.58 21.4,21.89 16.78,36.86 -16.1,-18.07 -39.4,-27.85 -62.51,-33.26 -1.1,6.36 -2.19,12.73 -3.18,19.13l-1.74 -0.08c-1.48,6.52 -5.46,13.41 -2.01,19.96 8.64,21.14 13.56,43.61 22.09,64.74 14.5,27.54 25.79,56.75 32.54,87.13 -3.11,-0.04 -9.32,-0.19 -12.43,-0.26 2.77,55.53 -0.8,112.47 -20.27,165.05 -30.83,75.99 -71.02,147.74 -113.87,217.51 -7.35,11.06 -3.48,24.82 -0.19,36.6 8.83,-4.51 18.49,-8.26 25.53,-15.46 7.88,-10.11 9.55,-23.41 13.19,-35.34 -7.24,4.47 -14.4,9.09 -22.05,12.76 10.23,-13.37 23.34,-24.54 30.84,-39.92 1.63,0.19 4.88,0.6 6.55,0.79 -1.4,1.82 -4.21,5.46 -5.57,7.28 1.59,-0.87 4.77,-2.62 6.36,-3.45 14.97,-8.41 30.65,-18.11 38.72,-33.87 6.7,-17.01 5.49,-36.1 4.17,-54.06 -5.69,0.23 -11.33,1.29 -16.86,-0.26 6.51,-1.52 11.29,-7.39 16.67,-11.1 30.57,-17.99 51.82,-47.65 67.28,-78.95 27.16,-51.97 32.99,-113.53 21.55,-170.58 -0.98,-5.87 -2.46,-11.63 -3.71,-17.46 9.77,16.14 17.61,33.34 23.6,51.22 14.54,-1.18 28.33,-6.14 42.46,-9.4 -11.59,11.4 -25.23,21.03 -41.14,25.19 1.41,14.44 19.59,13.19 29.89,18.11 17.58,-11.93 35.54,-24.28 48.42,-41.52 24.13,-30.38 30.57,-71.33 25.49,-109.02 -7.39,29.58 -17.62,61.18 -43.34,80.04 10.46,-24.51 23.72,-48.64 25.31,-75.91 9.43,-43.79 -14.74,-89.29 -52.09,-111.98 -33.41,-22.05 -76.56,-22.96 -113.99,-11.67zm212.9 33.07l0 0c6.82,6.37 12.92,13.49 17.05,21.9 0.79,9.05 0.98,18.14 0.22,27.2l-1.85 -1.74c-6.52,-25.95 -33.26,-38.38 -57.28,-43.34 1.82,4.7 3.68,9.43 5.57,14.09 3.48,12.69 6.74,25.49 7.54,38.64 0.19,19.32 10.04,37.09 9.09,56.6 2.76,40 -14.13,78.75 -39.25,109.06 -6.51,5.72 -12.8,11.7 -19.39,17.31 31.25,-0.23 69.21,-6.37 84.32,-37.69l1.37 -0.5c5.45,-11.36 8.44,-23.56 10.53,-35.91 11.21,35.19 -16.75,68.11 -45.35,84.93 -7.53,3.94 -19.66,4.89 -21.51,14.85 -6.75,17.31 -2.66,35.88 -0.31,53.6l3.03 3.45 3.03 -3.33c16.71,0.98 31.79,8.45 47.02,14.62 29.43,-47.12 43.94,-101.79 55.23,-155.66 3.86,-10.3 -8.37,-16.47 -8.07,-26.32 -2.2,-38.11 -1.14,-76.79 5.34,-114.44 0.91,-5.12 1.86,-10.23 2.76,-15.35 -16.13,-14.54 -37.38,-22.27 -59.09,-21.97zm-663.31 42.24l0 0c3.33,9.7 7.5,19.06 11.29,28.6 8.71,23.11 14.74,47.16 24.17,69.97 12.84,-31.4 29.55,-61.18 49.93,-88.34 -0.46,-2.08 -1.4,-6.25 -1.86,-8.34l-2.05 0.38c0.31,-4.96 0.65,-9.92 1.07,-14.88 4.47,-0.95 8.97,-1.94 13.52,-2.92 -1.1,-1.44 -3.26,-4.36 -4.32,-5.83 -30.95,4.96 -62.16,10.79 -91.75,21.36zm122.97 13.83l0 0c-2.12,18.98 -2.24,38.26 0.49,57.16 1.78,13.3 12.46,22.88 22.61,30.42 0.23,9.85 -1.78,19.47 -4.43,28.94 -1.74,-8.33 -2.95,-16.74 -4.77,-25.04 -1.44,-1.14 -4.32,-3.37 -5.72,-4.47 -3.64,20.46 -12.58,43.26 0.15,62.36 3.41,3.48 6.86,6.97 10.34,10.45 2.46,-4.89 4.96,-9.74 7.5,-14.58 0.95,15.75 0,34.43 12.24,46.36 2.91,-9.5 4.54,-19.54 8.94,-28.48 12.8,-16.9 31.44,-28 49.85,-37.77 -5.64,-1.37 -11.33,-2.69 -17.01,-3.94 1.93,-5.31 4.2,-10.5 7.12,-15.38 -0.04,2.42 -0.07,7.27 -0.07,9.7 10.72,0.11 18.37,7.12 24.66,15.11 5,0.23 10.07,0.42 15.11,0.61 6.03,-8.15 15.12,-10.99 24.97,-8.87 0.45,-2.19 1.4,-6.63 1.85,-8.86 0.95,4.89 1.82,9.73 3.03,14.55 -6.97,0.34 -13.98,0.45 -20.91,0.79 12.58,13.94 30,23.87 38.23,41.41 3.97,11.4 2.91,23.75 3.67,35.6 7.12,-11.7 12.2,-24.47 17.27,-37.16l5.12 -3.37c-0.27,2.73 -0.72,8.18 -0.99,10.91 20.23,-18.64 20.61,-47.81 24.32,-73.11 -3.41,3.33 -6.55,6.89 -9.47,10.64 -3.94,2.92 -7.84,5.88 -11.7,8.83 1.97,-21.89 26.51,-29.09 33.94,-48.11 6.06,-14.28 11.36,-28.9 15.68,-43.79 -4.13,-12.16 -7.65,-24.55 -5.95,-37.54 -7,1.51 -14.05,3.03 -21.1,4.39l-1.74 -2.84c-9.54,5.65 -19.96,11.14 -31.4,10.49 -8.68,-0.53 -17.35,-2 -26.03,-0.79 2.88,7.84 5.87,15.61 8.45,23.56 -12.99,-6.89 -22.27,-21.06 -37.88,-22.16 0.64,5.65 1.29,11.29 2.01,16.93 -17.16,-6.28 -22.2,-28.63 -40.95,-31.1 2.23,9.21 5.3,18.26 9.2,26.94 -13.37,-4.13 -22.65,-14.47 -27.73,-27.13 -15.04,-3.06 -27.16,-15.26 -42.99,-14.51l-3.15 0.91 -0.49 -2.42c-6.67,-2.73 -13.37,-5.38 -19.85,-8.52 -1.7,11.93 -7.76,22.12 -12.42,32.88zm-34.67 -23.6l0 0c3.11,16.17 12.85,30.34 14.21,47.01 -3.94,-6.48 -7.73,-13.03 -11.9,-19.36 0.35,16.25 0,33.45 8.72,47.88 4.24,-3.71 12.04,-6.21 9.81,-13.44 -2.05,-18.38 -2.35,-37.02 -5.76,-55.2 -1.29,-7.08 -9.66,-6.63 -15.08,-6.89zm308.02 25l0 0c-10.19,21.4 -19.59,43.11 -24.78,66.33 2.09,1.89 6.22,5.61 8.3,7.5 12.05,-11.4 12.99,-28.6 15.57,-43.94 -3.33,3.29 -9.96,9.89 -13.26,13.18 3.71,-15.15 15.12,-26.29 21.22,-40.31 -1.75,-0.71 -5.31,-2.08 -7.05,-2.76zm-471.7 17.35l0 0c-8.56,0.95 -15.76,5.76 -22.96,10 4.85,3.86 10.04,7.31 15.53,10.23 13.38,8.94 25.35,19.92 34.7,33.07 -6.51,-4.17 -12.76,-8.75 -19.62,-12.35 -18.9,-10.61 -39.55,-17.92 -60.91,-21.67 -36.6,-3.41 -76.07,-3.18 -108.54,16.4 -29.96,18.91 -50.87,48.42 -71.33,76.68 8.34,-0.53 16.63,-1.14 24.93,-1.86 10.53,-0.38 21.06,-0.76 31.59,-0.42 -37.27,9.13 -75.8,18.64 -108.23,40.12 10.01,-0.61 20.08,-0.53 30.05,-1.44 48.26,2.01 99.13,7.65 140.61,34.59 33.11,23.45 61.79,58.98 64.32,100.95l0.57 -1.32c-0.72,8.63 0.12,17.31 1.22,25.87 11.97,-22.58 22.08,-47.96 17.54,-74.06 1.17,-9.43 -3.83,-18.34 -6.45,-27.2 12.77,9.59 18.83,24.44 20.5,39.97 24.43,-12.54 38.49,-37.81 49.28,-61.98 1.29,21.03 -5.22,43.34 -20.76,58.11 -8.29,8.83 -19.85,13.22 -28.94,21.06 15.53,1.94 30.46,-2.42 43.45,-10.72 -0.34,2.28 -1.06,6.82 -1.4,9.13 -9.81,12.43 -25.91,15.42 -40.83,15.8 0.26,10.38 -7.47,23.07 1.13,31.59 22.84,26.14 51.52,53.04 87.77,56.14 4.74,0.91 9.55,1.52 14.32,2.16 -17.35,7.32 -36.82,4.93 -54.58,0.53 -25.05,-6.85 -49.63,-18.29 -67.51,-37.65 -8.49,8.45 -18.45,15.08 -28.87,20.91 19.17,15.76 40.92,29.4 57.62,48.34 31.86,-11.63 65.42,-18.53 99.29,-20.88 -1.25,-41.36 -7.54,-82.28 -9.93,-123.53 -6.43,-44.93 -10.15,-90.19 -19.28,-134.71 -6.48,-39.43 -16.93,-78.03 -27.16,-116.63l-0.76 1.97c-1.55,-6.94 -3.52,-13.72 -5.38,-20.54 -10.07,5.01 -19.43,12.39 -30.98,13.34zm106.94 109.48l0 0c17.27,-0.42 34.54,0.45 51.63,3.14 -0.3,9.78 -1.29,19.47 -2.24,29.17 10.73,-0.11 21.45,0.3 32.05,1.93 -7.23,-22.65 -0.91,-46.33 2.01,-69.13 0.76,-8.9 4.21,-18.83 -0.95,-26.97 0.27,-4.1 1.03,-8.15 1.82,-12.16 -3.14,0.9 -6.06,2.34 -8.75,4.2 -5.79,-1.48 -13.94,-1.51 -15.64,-8.79 -4.89,-13.79 -2.31,-28.86 -4.32,-43.14 -26.75,35.98 -43.94,78.67 -55.61,121.75zm377.56 -119.41l0 0c-14.09,19.36 -10.38,44.59 -20.34,65.5 -3.82,9.21 -14.36,5.99 -21.78,4.7 -16.06,18.56 -9.96,44.28 -15.57,66.41 -2.65,27.84 -15.49,53.75 -32.24,75.76 -18.94,18.83 -44.55,29.51 -69.32,38.45 -14.28,1.21 -29.13,0.49 -43.07,-2.96 -23.68,-11.78 -46.37,-26.36 -65.42,-44.85 -11.52,-10.91 -17.84,-25.61 -25.35,-39.24 -13.56,-7.69 -30.15,-4.32 -44.73,-1.82 1.13,-10.83 2.19,-21.71 3.25,-32.54 -9.24,-1.1 -18.56,-1.74 -27.88,-1.78 17.81,86.6 13.22,176 7.35,263.69 18.6,2.73 37.24,7.92 56.18,5.19 18.49,-0.83 40.88,-0.53 54.09,14.4 13.49,17.04 5.35,40.42 15.04,58.83 4.4,14.17 19.4,19.92 28.87,30.11 13.45,13.41 29.24,31.67 21.48,52.01 6.93,-0.75 13.9,-1.51 20.83,-2.31 18.72,-29.02 44.44,-53.3 59.06,-84.93 29.47,-60.53 56.07,-122.54 79.63,-185.65 20.34,-54.06 22.54,-113.16 15.87,-170.02 -4.55,1.25 -9.05,2.43 -13.56,3.75 1.48,11.93 2.27,23.94 2.42,35.95 -14.66,4.28 -28.18,11.44 -42.42,16.86 6.96,-12.99 20.03,-20.08 32.95,-25.87 -1.66,-11.29 -4.32,-22.47 -4.85,-33.87 1.63,-5.11 8.53,-5.08 12.69,-7.31 18.76,-6.89 38.95,-5.76 58.53,-5 -9.85,-32.69 -21.82,-65.38 -41.71,-93.46zm330.26 129.94l0 0c-11.33,46.4 -29.25,90.95 -49.44,134.18 -20.34,42.27 -43.6,83.83 -75.01,118.98 9.55,0.19 19.14,1.86 28.68,0.57 28.79,-37.62 55.88,-76.79 76.33,-119.59 14.85,-31.14 29.4,-62.43 42.05,-94.52 -4.39,-8.48 -8.94,-16.85 -13.52,-25.23 -2.65,-5.03 -5.87,-9.73 -9.09,-14.39zm-515.2 19.73l0 0c8.79,5.88 18.76,8.15 28.87,4.13 -4.62,-4.47 -8.98,-9.24 -13.9,-13.33 -5.23,2.69 -10.04,6.06 -14.97,9.2zm-32.35 17.89l0 0c-4.92,8.06 -7.76,17.16 -10.79,26.06 6.82,-3.03 13.6,-6.06 20.42,-9.06 5.72,7.58 11.93,14.82 19.01,21.18 7.92,-5.08 14.51,-11.89 20.38,-19.21 5.23,8.91 11.94,16.86 20.08,23.26 4.02,-6.66 7.27,-13.75 9.32,-21.25 4.62,3.53 9.28,7.05 13.94,10.57 -0.99,-17.24 -10.49,-43.15 -32.28,-38.07 -13.6,4.4 -26.55,-2.39 -39.36,-6.21 -7.38,3.29 -16.32,5.23 -20.72,12.73zm-580.8 20.41l0 0c13.26,-0.53 26.71,-0.26 39.17,4.81 -38.71,2.09 -76.97,17.77 -104.4,45.46 -16.93,17.81 -24.28,42.5 -26.97,66.37 -0.3,35.8 -8.49,71.41 -4.09,107.28 2.69,20.42 4.01,45.57 23.9,57.24 19.7,11.1 42.05,18.22 64.51,20.42 -1.85,2.57 -12.04,4.13 -6.51,7.88 30.49,27.24 72.69,34.89 111.98,40.04 7.35,0.15 16.85,3.41 20.98,-4.96 12.54,12.99 30.57,19.54 48.53,15.41 -4.66,7.69 -12.81,11.29 -21.02,13.87 9.24,22.54 22.27,44.59 43.22,58.11 25.11,17.5 57.46,19.13 86.86,14.89 -1.7,-4.4 -3.37,-8.75 -5.11,-13.07 0.87,-3.07 2.61,-9.25 3.48,-12.35 5.27,21.86 20.87,38.94 38.53,51.97 -13.72,0.27 -23.07,-10.19 -31.79,-19.17 -2.69,2.39 -5.3,4.78 -7.91,7.2 10.91,11.9 23.63,23.37 39.96,26.78 17.09,5.15 34.1,-2.31 49.82,-8.25 11.74,-4.13 17.5,-16.37 13.48,-28.15 -7.54,-22.65 -21.82,-42.39 -35.91,-61.41 0.04,-12.42 2.01,-24.96 -0.38,-37.27 -3.9,-10.5 -13.94,-16.63 -21.67,-24.1 12.35,-0.83 22.54,6.82 30.38,15.46 5.69,13.15 2.81,27.47 3.15,41.29 10.04,11.82 20.3,23.6 27.54,37.47 4.96,11.51 9.62,23.26 11.44,35.76 13.03,-1.78 26.48,-3.18 38.71,-8.22 8.6,-4.51 19.13,-10.69 19.78,-21.52 3.41,-25.87 -7.62,-50.23 -17.69,-73.34 -2.81,-5.38 -4.47,-12.31 -10.91,-14.39 -2.92,-15.91 -3.53,-32.73 -10.8,-47.51 -5.08,-7.65 -13.86,-11.51 -21.17,-16.63 7.46,-0.3 15.49,-3.41 22.72,0 9.44,2.84 11.48,13.83 16.1,21.29 0.16,10 -0.79,20.12 0.38,30.08 13.53,21.55 26.1,43.83 34.4,68 -0.38,8.22 0.42,16.55 2.12,24.62 22.28,1.21 51.33,-8.71 53.75,-34.47 -0.56,-24.66 -9.16,-48.98 -20.94,-70.5 -11.78,-15.91 -7.47,-37.88 -18.41,-54.25 -5.08,-10.26 -16.9,-12.8 -26.03,-18.03 10.12,0.04 21.03,-1.44 30.42,3.11 8.34,3.98 11.25,13.33 15.12,20.99 1.13,9.84 1.21,19.81 -0.42,29.58 13.48,22.31 25.91,45.72 31.36,71.44 -0.49,9.21 0.88,18.45 1.44,27.66 14.1,-2.43 30.35,-6.1 38.23,-19.36 12.69,-28.71 0.49,-60.65 -11.07,-87.66l-6.51 2.92c-1.86,-19.93 2.95,-44.32 -12.35,-60 -18.11,-9.97 -39.85,-7.81 -59.78,-7.2 -28.52,-4.74 -57.16,-11.82 -86.33,-9.17 -24.09,2.84 -48.75,4.47 -71.82,12.62 8.56,2.04 16.21,6.47 22.57,12.54 -30.3,-8.68 -62.2,-5.16 -92.65,0.64 6.74,-5.8 14.73,-9.77 23.1,-12.65 4.89,-0.46 9.81,-0.91 14.7,-1.41 -24.81,-28.82 -54.13,-53.83 -87.05,-72.96l-2.39 -5.83c2.99,0.76 9.02,2.27 12.01,3.03 0.72,-35.87 -17.05,-70.19 -41.06,-95.99 -12.54,-14.17 -29.36,-23.19 -43.53,-35.46 25.46,6.1 49.47,18.64 67.96,37.32 22.35,20.79 33.11,50.87 37.01,80.53 0.11,7.05 0.38,14.09 0.68,21.14 8.87,-4.77 19.02,-9.66 23.6,-19.17 2.28,-7.99 1.94,-16.36 1.97,-24.55 -4.28,-37.35 -23.41,-74.51 -56.1,-94.47 -53.41,-33.49 -118.53,-45.5 -180.81,-39.51 -10.19,0.64 -14.89,11.48 -21.48,17.76zm1172.89 30.5l0 0c-12.84,26.67 -26.32,52.99 -40.15,79.13 1.55,2.05 4.58,6.18 6.1,8.26 17.5,-20 33.87,-41.78 41.82,-67.5 -2.76,-6.6 -5.26,-13.22 -7.77,-19.89zm-185.5 61.33l0 0c-5.27,1.97 -10,5 -14.32,8.52 -10,3.26 -20.12,6.71 -28.68,13.03 -0.79,11.14 1.33,22.47 -0.68,33.49 -6.4,17.96 -18.83,33.03 -25.23,50.99 1.89,11.25 14.06,16.74 24.21,18.79 13.33,0.98 27.54,-1.52 37.73,-10.84 22.24,-18.37 26.89,-49.58 24.7,-76.78 3.75,6.13 6.36,12.88 8.75,19.7 12.54,-17.13 23.86,-35.16 34.09,-53.76 -18.03,-10.79 -42.12,-15.83 -60.57,-3.14zm80.61 103.72l0 0c11.25,0.3 22.05,3.83 32.92,6.44 -12.58,6.21 -26.63,-2.69 -39.47,3.56 8.07,7.5 16.4,14.92 22.31,24.36 -9.62,-4.47 -17.2,-12.66 -27.58,-15.5 -18.33,-7.46 -38.33,-7.84 -57.66,-10.64 -10.6,17.2 -30.64,21.21 -48.79,25.72 0.16,1.37 0.46,4.05 0.61,5.42 -1.63,7.08 -5.42,14.81 -2.69,22.04 27.58,16.14 60.88,17.7 92.13,17.28 -0.42,-1.9 -1.21,-5.68 -1.63,-7.58 10.87,8.07 22.77,15.38 36.33,17.69 15.49,1.37 30.57,-5 43.53,-13.03 6.36,-13.3 9.39,-27.76 12.8,-42.01 3.03,-10.64 4.13,-22.99 -1.29,-33.11 -6.29,-13.03 -14.7,-27.27 -7.8,-41.93 5.07,7.69 8.63,16.25 12.46,24.62 2.99,-19.55 0.64,-39.78 -6.97,-58.03 -16.78,27.01 -35.53,53.22 -59.21,74.7zm-136.75 31.63l0 0c-6.82,11.82 -10.91,25.42 -12.2,38.94 4.05,16.29 19.36,26.75 33.49,33.91 17.27,11.06 37.27,17.04 57.62,19.13l-3.41 -8.34c14.5,7.54 28.94,18.56 45.95,18.79 14.58,-3.9 22.42,-19.47 25.72,-33.07l-3.64 3.41c-11.82,-3.18 -22.96,-8.11 -34.05,-13.07 -25.35,-1.51 -50.88,-3.33 -75.65,-9.47 -9.78,-3.56 -20.73,-6.48 -27.81,-14.62 -2.2,-11.48 0.11,-23.07 2.96,-34.21 -2.24,-0.34 -6.75,-1.06 -8.98,-1.4zm-18.6 58.87l0 0c-2.2,9.13 -8.22,18.18 -6.71,27.76 10.76,14.59 27.73,22.89 43,31.9 8.52,3.64 17.27,6.71 26.06,9.62l-1.1 -6.63c12.31,6.86 25.84,16.22 40.65,13.03 9.09,-5.15 17.08,-13.78 18.83,-24.39l-2.62 2.16c-6.02,-4.47 -12.31,-9.06 -20.22,-8.34 -37.28,-1.06 -70.88,-20.68 -97.89,-45.11zm-330.25 29.32l0 0c2.38,21.25 10.75,43.37 2.23,64.36 -8.3,22.58 -34.02,31.55 -56.29,31.36 -4.43,8.03 -12.58,12.96 -17.73,20.27 12.58,14.55 34.36,21.48 52.31,13.11 12.13,-16.82 12.58,-39.1 23.94,-56.33 8,-12.77 19.44,-23.94 23.07,-38.98 -1.43,-15.65 -17.61,-23.56 -27.53,-33.79zm87.8 37.35l0 0c5.91,-0.72 11.86,-1.52 17.77,-2.39 1.93,-11.44 3.94,-22.92 5.57,-34.4 -11.59,9.36 -20.04,22.17 -23.34,36.79zm234.87 -22.65l0 0c-4.39,24.85 23.6,36.89 43.94,37.31 13.57,11.02 34.36,22.27 49.06,6.44 -6.33,-4.55 -12.61,-9.13 -18.79,-13.9 -27.16,-2.47 -51.86,-14.93 -74.21,-29.85zm-203.01 18.44l0 0c-0.91,5.99 -1.13,12.05 -0.75,18.07 3.56,-0.15 7.12,-0.3 10.68,-0.49 1.25,-2.27 3.75,-6.86 4.96,-9.17 -1.06,-2.35 -3.18,-7.08 -4.24,-9.43 -3.56,0.34 -7.12,0.68 -10.65,1.02zm-57.01 32.62l0 0c3.71,0.19 7.43,0.42 11.18,0.64 5.56,-7.53 4.77,-15.38 -2.39,-21.4 -8.14,4.62 -12.35,11.48 -8.79,20.76z"/>
   <path class="fil2" d="M1002.25 125.68c29.63,-8.56 57.62,-24.09 89.21,-24.24 50.08,-0.45 99.14,20.42 137.06,52.54 8.98,12.16 17.05,26.06 17.24,41.63 -5.53,-3.63 -10.95,-7.42 -16.33,-11.28 12.88,23.18 18.11,53.26 4.05,77.08 -2.38,-14.31 -1.51,-29.16 -5.11,-43.26 -2.58,-10.3 -12.65,-16.21 -16.29,-25.91 -0.38,-6.36 6.06,-10.64 8.94,-15.83 -16.78,1.7 -30.69,11.32 -44.25,20.45 -18.14,1.97 -37.46,8.34 -55.08,0.46 -14.62,-6.78 -32.61,2.04 -45.72,-8.37 -10.99,-9.59 -27.12,-2.92 -38.6,-11.1 -13.56,-8.6 -28.75,-13.94 -43.98,-18.83 6.02,6.14 12.08,12.27 18.29,18.22 7.54,2.24 14.82,5.3 21.71,9.17 12.01,7.04 27.69,4.24 38.68,13.71 8.48,8.11 20.53,5.49 31.18,6.18 11.78,-0.16 22.38,5.68 33.82,7.46 13.68,-2.99 27.35,-6.82 41.56,-5.3 8.79,-5.72 18.15,-19.97 29.77,-12.36 8.49,8.8 8.72,22.05 10.95,33.46 3.15,21.4 -2.42,49.28 -25.04,57.84 4.36,-22.65 8.04,-47.28 -4.73,-68.07 -1.25,0.3 -3.75,0.91 -4.96,1.17 -0.8,22.81 7.57,50.61 -10.8,68.72 -7.09,8.67 -18.75,10.23 -29.25,10.61 5.88,-24.17 13.98,-52.85 -2.31,-74.78 -0.53,20.3 0.16,41.06 -6.85,60.49 -2.12,12.81 -16.67,18.76 -28.34,17.58 -12.69,-1.36 -27.77,-3.98 -35.11,-15.68 -3.3,-22.99 -4.21,-48.04 6.47,-69.4 -23.48,14.09 -19.17,44.93 -21.63,68.04 -14.51,5.52 -34.51,-2.39 -42.77,-16.18 -5.41,-26.37 5.84,-52.13 19.82,-73.87 -21.48,9.93 -29.44,34.36 -31.18,56.33 -1.21,5.53 1.06,13.07 -5.08,16.21 -5.9,-2.23 -11.55,-5.04 -17.23,-7.72 -6.25,-28.79 2.8,-58.95 23.56,-79.71 -27.77,9.78 -36.67,42.09 -39.17,68.42 -10.83,-8.11 -9.66,-22.77 -7.5,-34.63 2.96,-15.07 12.2,-27.65 20.46,-40.19 -2.43,0.04 -7.31,0.19 -9.78,0.23 -11.59,11.14 -17.31,26.29 -25.26,39.89 -2.77,-19.28 0.91,-39.25 12.99,-54.85 13.9,-13.34 27.88,-28.04 46.59,-34.33zm-825.82 1294.88l0 0 44.87 0 0 73.76 70.24 0 0 24.04 -115.11 0 0 -97.8zm224.77 0l0 0 44.87 0 0 58.26c0,5.76 -1.36,11.22 -4.03,16.34 -2.67,5.15 -6.87,9.63 -12.58,13.48 -5.72,3.85 -11.71,6.53 -17.97,8.1 -8.73,2.17 -19.22,3.26 -31.43,3.26 -7.08,0 -14.79,-0.34 -23.15,-1 -8.36,-0.66 -15.36,-1.98 -20.98,-3.96 -5.61,-1.98 -10.76,-4.78 -15.39,-8.43 -4.67,-3.64 -7.85,-7.39 -9.58,-11.26 -2.77,-6.22 -4.16,-11.73 -4.16,-16.53l0 -58.26 44.87 0 0 59.65c0,5.32 2.2,9.49 6.56,12.47 4.4,3.01 10.49,4.51 18.27,4.51 7.68,0 13.74,-1.48 18.14,-4.44 4.36,-2.93 6.56,-7.12 6.56,-12.54l0 -59.65zm74.1 0l0 0 59.25 0 22.57 59.51 22.63 -59.51 58.98 0 0 97.8 -36.75 0 0 -74.55 -28.35 74.55 -33.3 0 -28.28 -74.55 0 74.55 -36.75 0 0 -97.8zm192.22 0l0 0 84.15 0c14.01,0 24.77,2.35 32.28,7.02 7.51,4.66 11.27,10.45 11.27,17.34 0,5.79 -2.67,10.75 -8.05,14.87 -3.56,2.77 -8.8,4.94 -15.67,6.55 10.46,1.69 18.1,4.58 23.04,8.7 4.91,4.12 7.38,9.29 7.38,15.5 0,5.08 -1.76,9.63 -5.25,13.68 -3.52,4.06 -8.32,7.24 -14.38,9.61 -3.79,1.46 -9.47,2.53 -17.08,3.19 -10.12,0.89 -16.82,1.34 -20.14,1.34l-77.55 0 0 -97.8zm45.27 38.38l0 0 19.6 0c7,0 11.91,-0.81 14.65,-2.43 2.74,-1.64 4.12,-3.98 4.12,-7.06 0,-2.84 -1.38,-5.07 -4.12,-6.67 -2.74,-1.61 -7.55,-2.41 -14.35,-2.41l-19.9 0 0 18.57zm0 38.39l0 0 22.91 0c7.75,0 13.2,-0.94 16.38,-2.78 3.18,-1.84 4.77,-4.3 4.77,-7.42 0,-2.89 -1.56,-5.22 -4.7,-6.97 -3.15,-1.75 -8.67,-2.64 -16.55,-2.64l-22.81 0 0 19.81zm112.44 -76.77l0 0 120.19 0 0 20.9 -75.12 0 0 15.57 69.63 0 0 19.94 -69.63 0 0 19.26 77.35 0 0 22.13 -122.42 0 0 -97.8zm147.22 97.8l0 0 0 -97.8 74.84 0c13.88,0 24.5,0.8 31.81,2.42 7.34,1.59 13.26,4.57 17.76,8.9 4.5,4.35 6.74,9.65 6.74,15.89 0,5.42 -1.73,10.11 -5.18,14.04 -3.42,3.97 -8.16,7.15 -14.21,9.61 -3.83,1.55 -9.1,2.85 -15.77,3.87 5.34,1.21 9.24,2.39 11.67,3.6 1.63,0.8 4.03,2.53 7.17,5.14 3.12,2.62 5.22,4.65 6.27,6.08l21.82 28.25 -50.75 0 -23.99 -29.82c-3.05,-3.87 -5.75,-6.37 -8.12,-7.54 -3.25,-1.5 -6.94,-2.25 -11.03,-2.25l-3.96 0 0 39.61 -45.07 0zm45.07 -58.05l0 0 18.98 0c2.03,0 6.02,-0.45 11.91,-1.34 2.98,-0.39 5.41,-1.41 7.27,-3.08 1.9,-1.66 2.85,-3.55 2.85,-5.69 0,-3.16 -1.49,-5.6 -4.47,-7.28 -2.98,-1.71 -8.56,-2.55 -16.78,-2.55l-19.76 0 0 19.94zm172.73 -39.75l0 0 45.07 0 0 53.12c0,11.15 -1.46,19.64 -4.4,25.47 -2.94,5.8 -8.87,10.74 -17.76,14.8 -8.9,4.02 -20.31,6.05 -34.18,6.05 -14.68,0 -26.05,-1.34 -34.11,-4.01 -8.08,-2.66 -14.31,-6.55 -18.71,-11.7 -4.4,-5.12 -7,-11.47 -7.78,-19.03l42.84 -3.91c0.06,4.28 0.64,7.46 1.69,9.53 1.05,2.1 2.84,3.76 5.38,5.06 1.72,0.84 4.16,1.25 7.34,1.25 5.04,0 8.73,-1.25 11.1,-3.76 2.34,-2.5 3.52,-6.74 3.52,-12.68l0 -60.19zm159.09 81.68l0 0 -50.88 0 -7.31 16.12 -45.85 0 54.71 -97.8 49.16 0 54.48 97.8 -47.03 0 -7.28 -16.12zm-9.5 -21.17l0 0 -15.87 -35.15 -15.94 35.15 31.81 0zm171.17 -2.73l0 0 39.39 7.99c-2.64,7.42 -6.81,13.64 -12.52,18.6 -5.69,4.99 -12.73,8.74 -21.19,11.27 -8.42,2.53 -19.15,3.8 -32.17,3.8 -15.84,0 -28.73,-1.55 -38.78,-4.62 -10.01,-3.1 -18.64,-8.54 -25.92,-16.3 -7.27,-7.76 -10.93,-17.73 -10.93,-29.84 0,-16.17 6.4,-28.6 19.19,-37.29 12.82,-8.68 30.93,-13.02 54.34,-13.02 18.31,0 32.72,2.48 43.21,7.46 10.45,4.99 18.27,12.64 23.34,22.97l-39.58 5.9c-1.39,-2.96 -2.85,-5.12 -4.37,-6.49 -2.54,-2.3 -5.62,-4.08 -9.24,-5.3 -3.65,-1.26 -7.71,-1.87 -12.21,-1.87 -10.22,0 -18.03,2.75 -23.45,8.24 -4.09,4.07 -6.16,10.49 -6.16,19.21 0,10.84 2.44,18.24 7.34,22.27 4.91,4 11.78,6.01 20.65,6.01 8.59,0 15.09,-1.62 19.49,-4.87 4.39,-3.24 7.57,-7.95 9.57,-14.12zm61.28 -57.78l0 0 44.86 0 0 36.95 47.07 -36.95 59.72 0 -53.06 36.75 55.49 61.05 -55.25 0 -30.65 -40.15 -23.32 16.34 0 23.81 -44.86 0 0 -97.8zm161.19 65.45l0 0 42.63 -1.8c0.92,4.65 2.81,8.2 5.65,10.61 4.64,3.94 11.24,5.92 19.83,5.92 6.4,0 11.34,-1 14.79,-3.03 3.48,-2.02 5.21,-4.37 5.21,-7.03 0,-2.53 -1.63,-4.8 -4.91,-6.81 -3.28,-2 -10.93,-3.87 -22.94,-5.66 -19.69,-2.96 -33.7,-6.92 -42.09,-11.87 -8.46,-4.91 -12.69,-11.2 -12.69,-18.84 0,-5.01 2.17,-9.75 6.5,-14.21 4.33,-4.48 10.83,-7.99 19.52,-10.54 8.7,-2.55 20.61,-3.82 35.73,-3.82 18.58,0 32.72,2.32 42.46,6.98 9.75,4.65 15.53,12.05 17.4,22.2l-42.23 1.68c-1.12,-4.43 -3.49,-7.67 -7.07,-9.67 -3.62,-2.03 -8.6,-3.03 -14.93,-3.03 -5.21,0 -9.16,0.75 -11.8,2.23 -2.64,1.48 -3.96,3.3 -3.96,5.44 0,1.55 1.08,2.94 3.21,4.19 2.07,1.3 7.07,2.48 14.99,3.6 19.63,2.84 33.67,5.74 42.13,8.65 8.49,2.91 14.68,6.51 18.54,10.84 3.86,4.3 5.79,9.12 5.79,14.47 0,6.26 -2.58,12.05 -7.72,17.35 -5.18,5.28 -12.35,9.31 -21.62,12.04 -9.24,2.73 -20.88,4.1 -34.95,4.1 -24.7,0 -41.82,-3.21 -51.33,-9.61 -9.51,-6.39 -14.89,-14.52 -16.14,-24.38zm-699.1 -560.87l0 0 113.43 0c63.85,147.03 164.61,276.49 234.21,418.06 -107.44,-0.42 -214.91,0.61 -322.34,-0.53 -12.01,-23.98 -26.1,-46.78 -38.9,-70.31 53.75,0.3 107.51,0.04 161.3,0.11 -46.82,-85.46 -95.39,-169.97 -142.89,-255.05 -3.64,-8.6 -8.98,0.79 -11.14,4.96 -22.54,41.52 -46.9,82.09 -69.09,123.84 -12.58,0.56 -25.16,0.6 -37.77,0.75 -36.33,65.65 -73.68,130.69 -110.2,196.19 -40.88,-0.04 -81.75,0.04 -122.59,-0.07 65.08,-115.77 130.39,-231.46 195.43,-347.26 5.5,-9.89 12.2,-19.36 14.59,-30.61 4.28,-5.99 8.52,-12.01 12.73,-18.07 9.36,-2.2 18.79,-6.33 28.56,-5.5 12.81,5.76 24.02,15.73 38.45,17.43 12.16,1.29 25.38,2.76 36.93,-2.04 9.1,-8.76 13.53,-20.95 19.29,-31.9zm255.83 -1.62l0 0c10.68,12.19 24.59,27.28 34.95,38.82 3.18,4.01 7.99,7.99 7.08,13.79 0,64.36 0,128.76 -0.04,193.16 -0.57,10.87 7.09,19.5 11.75,28.63 27.12,48.34 54.81,96.34 81.4,144.98 146.72,0.57 293.44,0.15 440.19,0.19 -0.61,-139.9 -0.38,-279.8 -0.11,-419.69 -65.99,0.34 -132.02,-0.72 -198.01,0.56 13.79,16.1 30.04,30.57 41.78,48.15 0.68,90.88 0.04,181.83 0.34,272.75 -73.9,0.07 -147.77,0.04 -221.64,0 0.26,-107.09 -0.08,-214.15 0.19,-321.24 -65.98,-0.42 -131.91,0.03 -197.88,-0.1zm-1155.75 0.03l0 0c11.71,13.18 23.6,26.25 35.49,39.28 3.03,3.83 7.7,7.58 6.67,13.15 -0.11,122.31 0.27,244.64 -0.19,366.99 52.13,0.27 104.21,0.34 156.34,-0.03 0.15,-83.46 -0.91,-166.95 0.49,-250.4 6.37,5.53 12.09,11.78 17.69,18.07 70.16,77.54 140.58,154.86 210.63,232.51 28.48,-0.18 56.97,0.57 85.46,-0.45 25.76,-47.88 53.45,-94.7 79.28,-142.51 -0.91,-64.59 -0.37,-129.18 -0.37,-193.77 1.59,-15.07 -10.99,-25.15 -19.67,-35.53 -20.83,0 -41.89,-2.31 -61.36,-10.19 -20.73,-6.74 -35.8,-23.03 -52.47,-36.14 -19.43,0.65 -39.24,-1.78 -58.19,3.75 11.67,14.55 24.74,27.92 37.05,41.94 0.23,61.14 -0.04,122.28 0.11,183.38 -68.86,-74.51 -138.11,-148.57 -207.06,-223.01 -3.29,-2.65 -5.83,-7.8 -10.79,-7.01 -73.04,-0.37 -146.07,-0.22 -219.11,-0.03zm1035.46 -77.62l0 0c6.4,-5.57 15.3,-9.66 23.82,-6.67 14.78,3.75 32.77,7.2 38.57,23.45 -12.5,-1.78 -24.28,-6.37 -35.76,-11.44 9.39,24.39 46.57,36.16 64.15,52.9 -0.27,0.11 -0.54,0.21 -0.81,0.31l-75.35 0c-23.18,-10.8 -49.32,-11.35 -74.25,-9.72 -14.23,0.91 -24.5,8.72 -35.55,9.72l-13.15 0 -9.25 0c-3.68,-0.22 -7.34,-0.5 -10.99,-0.74 8.18,-10.88 16.74,-21.45 24.89,-32.39 5.3,-0.16 10.6,-0.27 15.94,-0.38 3.03,8.37 6.22,18.82 16.94,19.51 12.72,-2.96 14.73,-17.05 21.06,-26.33 4.81,-2.35 9.96,-3.75 15,-5.38 6.29,6.06 11.59,14.74 20.76,16.55 4.96,-2.61 10.3,-5.6 13.3,-10.57 0.71,-6.24 0.11,-12.57 0.68,-18.82z"/>
   <path class="fil3" d="M798.56 330.93l0.76 -1.97c10.23,38.6 20.68,77.2 27.16,116.63 9.13,44.52 12.85,89.78 19.28,134.71 2.39,41.25 8.68,82.17 9.93,123.53 -33.87,2.35 -67.43,9.25 -99.29,20.88 -16.7,-18.94 -38.45,-32.58 -57.62,-48.34 10.42,-5.83 20.38,-12.46 28.87,-20.91 17.88,19.36 42.46,30.8 67.51,37.65 17.76,4.4 37.23,6.79 54.58,-0.53 -4.77,-0.64 -9.58,-1.25 -14.32,-2.16 -39.81,-14.88 -68.68,-49.47 -88.41,-85.87 14.09,-3.38 32.12,-3.53 40.34,-17.66 0.34,-2.31 1.06,-6.85 1.4,-9.13 -12.99,8.3 -27.92,12.66 -43.45,10.72 9.09,-7.84 20.65,-12.23 28.94,-21.06 15.54,-14.77 22.05,-37.08 20.76,-58.11 -10.79,24.17 -24.85,49.44 -49.28,61.98 -1.67,-15.53 -7.73,-30.38 -20.5,-39.97 2.62,8.86 7.62,17.77 6.45,27.2 -4.51,16.71 -11.22,32.65 -18.76,48.19l-0.57 1.32c-2.53,-41.97 -31.21,-77.5 -64.32,-100.95 -41.48,-26.94 -92.35,-32.58 -140.61,-34.59 28.9,-18.64 61.74,-29.74 95,-37.77 -5.6,-0.38 -11.21,-0.87 -16.82,-0.91 -10.53,-0.34 -21.06,0.04 -31.59,0.42 22.58,-39.89 61.33,-73.26 107.89,-79.51 35.83,-8.68 74.24,-4.4 107.96,9.96 6.86,3.6 13.11,8.18 19.62,12.35 -9.35,-13.15 -21.32,-24.13 -34.7,-33.07 14.06,-4.13 28.57,-6.44 42.73,-10.31l1.06 -2.72zm236.54 743.84l0 0c28.1,47.54 54.13,96.33 81.9,144.14 5.38,8.68 11.4,17.5 11.74,28.15 -75.31,-0.88 -150.66,-0.46 -225.96,-0.27 9.54,-23.98 25.04,-45.04 35.91,-68.45 12.46,-3.56 25.42,-2.16 38.15,-3.3 3.52,-2.38 5.22,-6.55 7.42,-10.04 16.59,-30.26 32.96,-60.68 50.84,-90.23zm337.75 -196.3l0 0c4.92,2.08 12.46,3.63 11.86,10.68 -0.46,1.59 -1.41,4.73 -1.86,6.29 -1.18,1.89 -3.6,5.68 -4.77,7.57 -3.15,0.2 -9.47,0.5 -12.62,0.69 2.01,-8.53 4.47,-16.97 7.39,-25.23zm-279.19 4.43l0 0c-3.56,-9.28 0.65,-16.14 8.79,-20.76 7.16,6.02 7.95,13.87 2.39,21.4 -3.75,-0.22 -7.47,-0.45 -11.18,-0.64zm57.01 -32.62l0 0c3.53,-0.34 7.09,-0.68 10.65,-1.02 1.06,2.35 3.18,7.08 4.24,9.43 -1.21,2.31 -3.71,6.9 -4.96,9.17 -3.56,0.19 -7.12,0.34 -10.68,0.49 -0.38,-6.02 -0.16,-12.08 0.75,-18.07zm-31.86 4.21l0 0c3.3,-14.62 11.75,-27.43 23.34,-36.79 -1.63,11.48 -3.64,22.96 -5.57,34.4 -5.91,0.87 -11.86,1.67 -17.77,2.39zm467.24 -396.36l0 0c4.58,8.38 9.13,16.75 13.52,25.23 -12.65,32.09 -27.2,63.38 -42.05,94.52 -20.45,42.8 -47.54,81.97 -76.33,119.59 -4.32,-0.95 -8.64,-1.78 -12.99,-2.58 20.04,-19.39 32.61,-44.66 47.54,-67.84 32.35,-52.13 50.23,-111.37 70.31,-168.92zm-716.91 -24.92l0 0c11.67,-43.08 28.86,-85.77 55.61,-121.75 2.01,14.28 -0.57,29.35 4.32,43.14 1.7,7.28 9.85,7.31 15.64,8.79 2.69,-1.86 5.61,-3.3 8.75,-4.2 -0.79,4.01 -1.55,8.06 -1.82,12.16 5.16,8.14 1.71,18.07 0.95,26.97 -2.92,22.8 -9.24,46.48 -2.01,69.13 -10.6,-1.63 -21.32,-2.04 -32.05,-1.93 0.95,-9.7 1.94,-19.39 2.24,-29.17 -17.09,-2.69 -34.36,-3.56 -51.63,-3.14zm49.92 -139.79l0 0c-24.28,4.47 -48.94,8.49 -71.59,18.83 0.34,1.86 1.06,5.65 1.4,7.5 8.71,23.11 14.74,47.16 24.17,69.97 12.84,-31.4 29.55,-61.18 49.93,-88.34 -0.46,-2.08 -1.4,-6.25 -1.86,-8.34l-2.05 0.38zm386.44 -66.4l0 0c9.73,9.58 21.4,21.89 16.78,36.86 -0.27,1.97 -0.72,5.87 -0.95,7.84 -18.22,-14.81 -41.18,-23.11 -64.74,-21.97l-1.74 -0.08c-1.48,6.52 -5.46,13.41 -2.01,19.96 8.64,21.14 13.56,43.61 22.09,64.74 14.5,27.54 25.79,56.75 32.54,87.13 -3.11,-0.04 -9.32,-0.19 -12.43,-0.26 2.77,55.53 -0.8,112.47 -20.27,165.05 -30.83,75.99 -71.02,147.74 -113.87,217.51 -7.35,11.06 -3.48,24.82 -0.19,36.6 8.83,-4.51 18.49,-8.26 25.53,-15.46 7.88,-10.11 9.55,-23.41 13.19,-35.34 -7.24,4.47 -14.4,9.09 -22.05,12.76 10.23,-13.37 23.34,-24.54 30.84,-39.92 1.63,0.19 4.88,0.6 6.55,0.79 29.74,-15.45 40.68,-55.91 24.32,-84.59l2.5 0.23c6.51,-1.52 11.29,-7.39 16.67,-11.1 7.95,-6.78 15.07,-14.62 21.02,-23.26 22.92,-34.47 42.01,-71.9 52.62,-112.05 9.74,-37.24 14.28,-75.77 15.19,-114.22 -0.98,-5.87 -2.46,-11.63 -3.71,-17.46 9.77,16.14 17.61,33.34 23.6,51.22 14.54,-1.18 28.33,-6.14 42.46,-9.4 -11.59,11.4 -25.23,21.03 -41.14,25.19 1.41,14.44 19.59,13.19 29.89,18.11 17.58,-11.93 35.54,-24.28 48.42,-41.52 24.13,-30.38 30.57,-71.33 25.49,-109.02 -7.39,29.58 -17.62,61.18 -43.34,80.04 10.46,-24.51 23.72,-48.64 25.31,-75.91 -3.11,-25.8 -12.96,-51.18 -31.22,-70.05 -18.33,-20 -43.67,-31.97 -69.47,-39.05 -15.65,-4.09 -31.94,-2.5 -47.88,-3.37zm359.46 -29.74l0 0c20.87,-5.34 51.82,7.39 49.73,32.31 -10.91,27.2 -53.29,17.66 -64.66,-4.69 -7.01,-11.48 2.65,-25.8 14.93,-27.62zm-97.93 202.97l0 0c3.11,7.08 8.53,12.8 12.73,19.24 54.28,80.96 86.18,177.33 86.79,275.1 21.74,-18.37 44.77,-35.57 62.62,-58.07 31.47,-37.69 50.98,-83.83 64.02,-130.77 3.71,-14.13 8.21,-28.94 4.69,-43.6 -72.54,-79.59 -143.57,-162.06 -196.87,-256.12 -27.08,60.57 -37.46,128.19 -33.98,194.22zm35.19 -170.88l0 0c-15.15,52.99 -25.26,108.19 -22.95,163.49 -0.27,5 3.75,8.6 6.25,12.51 22.73,27.38 38.37,59.85 51.21,92.8 6.44,15.61 8.75,32.54 15.54,48 2.31,-15.68 1.62,-31.52 1.62,-47.28 -0.72,-60.64 0,-121.29 -0.53,-181.94 0.76,-14.51 -10.34,-25.5 -17.01,-37.31 -11.59,-16.64 -20.45,-35.27 -34.13,-50.27zm-355.52 84.43l0 0c-14.09,19.36 -10.38,44.59 -20.34,65.5 -3.82,9.21 -14.36,5.99 -21.78,4.7 -16.06,18.56 -9.96,44.28 -15.57,66.41 -2.65,27.84 -15.49,53.75 -32.24,75.76 -18.94,18.83 -44.55,29.51 -69.32,38.45 -14.28,1.21 -29.13,0.49 -43.07,-2.96 -23.68,-11.78 -46.37,-26.36 -65.42,-44.85 -11.52,-10.91 -17.84,-25.61 -25.35,-39.24 -13.56,-7.69 -30.15,-4.32 -44.73,-1.82 1.13,-10.83 2.19,-21.71 3.25,-32.54 -9.24,-1.1 -18.56,-1.74 -27.88,-1.78 17.81,86.6 13.22,176 7.35,263.69 18.6,2.73 37.24,7.92 56.18,5.19 18.49,-0.83 40.88,-0.53 54.09,14.4 13.49,17.04 5.35,40.42 15.04,58.83 4.4,14.17 19.4,19.92 28.87,30.11 13.45,13.41 29.24,31.67 21.48,52.01 6.93,-0.75 13.9,-1.51 20.83,-2.31 18.72,-29.02 44.44,-53.3 59.06,-84.93 29.47,-60.53 56.07,-122.54 79.63,-185.65 20.34,-54.06 22.54,-113.16 15.87,-170.02 -4.55,1.25 -9.05,2.43 -13.56,3.75 1.48,11.93 2.27,23.94 2.42,35.95 -14.66,4.28 -28.18,11.44 -42.42,16.86 6.96,-12.99 20.03,-20.08 32.95,-25.87 -1.66,-11.29 -4.32,-22.47 -4.85,-33.87 1.63,-5.11 8.53,-5.08 12.69,-7.31 18.76,-6.89 38.95,-5.76 58.53,-5 -9.85,-32.69 -21.82,-65.38 -41.71,-93.46zm-144.36 260.93l0 0c15.15,28.45 13.48,67.24 -6.22,93.23 0.99,-20.12 8.11,-39.43 7.88,-59.66 0.15,-11.22 -1.21,-22.35 -1.66,-33.57zm-64.93 2.88l0 0c11.36,5.91 9.47,20.08 9.73,30.76 -1.13,11.03 0.84,24.74 -8.94,32.47 -0.11,-21.1 2.31,-42.2 -0.79,-63.23zm32.42 15.84l0 0c8.04,-8.37 21.82,6.29 12.96,14.13 -8.33,11.13 -25.65,-6.78 -12.96,-14.13zm-102.47 107.51l0 0c32.66,-13.72 63.04,-32.32 90.84,-54.21 -6.44,13.18 -17.65,22.91 -27.16,33.75 -8.75,9.73 -19.81,17.69 -32.35,21.71 -10.34,3.14 -20.98,0 -31.33,-1.25zm146 -42.09l0 0c22.05,11.06 45.91,19.2 70.8,20 -15.83,14.21 -38.41,7.16 -54.74,-2.23 -7.42,-3.75 -12.12,-10.76 -16.06,-17.77zm-50.34 31.25l0 0c13.14,-6.4 18.56,17.84 5.41,18.9 -11.36,3.22 -16.82,-15.57 -5.41,-18.9zm-34.33 12.73l0 0c0.23,-3.49 1.78,-6.37 4.7,-8.56 3.11,19.77 2.2,42.01 -7.69,59.7 -1.29,-17.12 1.67,-34.13 2.99,-51.14zm57.43 18.64l0 0c0.95,1.1 2.84,3.33 3.79,4.43 3.11,21.36 1.29,43.45 -7.01,63.49 -6.4,14.2 -3.1,31.4 -13.26,44.05 1.06,-17.31 -1.36,-35.45 5.84,-51.78 7.35,-19.28 8.29,-39.96 10.64,-60.19zm-38.9 79.51l0 0c-9.78,-6.1 0.07,-22.5 10.23,-16.86 6.66,1.94 4.62,9.97 5.87,15.23 -5.04,0.8 -12.09,7.43 -16.1,1.63zm-426.17 -361.13l0 0c16.82,12.96 36.06,23.6 57.32,26.83 19.05,3.21 30.57,20.22 40.38,35.19 0.34,-13.11 -5.68,-25.57 -17.01,-32.51 -23.91,-15.75 -50.95,-32.04 -80.69,-29.51z"/>
   <path class="fil4" d="M925.88 281.38c5.42,0.26 13.79,-0.19 15.08,6.89 3.41,18.18 3.71,36.82 5.76,55.2 2.23,7.23 -5.57,9.73 -9.81,13.44 -8.72,-14.43 -8.37,-31.63 -8.72,-47.88 4.17,6.33 7.96,12.88 11.9,19.36 -1.36,-16.67 -11.1,-30.84 -14.21,-47.01zm538.72 -14.36l0 0c20.46,3.07 37.84,14.36 51.71,29.25l1.85 1.74c0.76,-9.06 0.57,-18.15 -0.22,-27.2 14.2,1.78 28.14,6.1 39.28,15.42 -6.48,37.65 -7.54,76.33 -5.34,114.44 -0.3,9.85 11.93,16.02 8.07,26.32 -11.29,53.87 -25.8,108.54 -55.23,155.66 -15.23,-6.17 -30.31,-13.64 -47.02,-14.62 0.99,-23.22 -0.45,-49.85 15.76,-68.57 28.6,-16.82 56.56,-49.74 45.35,-84.93 -2.09,12.35 -5.08,24.55 -10.53,35.91l-1.37 0.5c-13.94,4.12 -23.82,16.06 -37.65,20.3 -8.9,2.88 -18.3,0.76 -27.28,0.08 25.12,-30.31 42.01,-69.06 39.25,-109.06 0.95,-19.51 -8.9,-37.28 -9.09,-56.6 -0.8,-13.15 -4.06,-25.95 -7.54,-38.64zm36.25 50.19l0 0c11.56,12.24 30.35,12.43 41.63,25.5 -6.55,-16.71 -23.33,-28.38 -41.63,-25.5zm-147.17 514.63l0 0c22.35,14.92 47.05,27.38 74.21,29.85 6.18,4.77 12.46,9.35 18.79,13.9 -14.7,15.83 -35.49,4.58 -49.06,-6.44 -20.34,-0.42 -48.33,-12.46 -43.94,-37.31zm267.82 -299.57l0 0c2.51,6.67 5.01,13.29 7.77,19.89 -7.95,25.72 -24.32,47.5 -41.82,67.5 -1.52,-2.08 -4.55,-6.21 -6.1,-8.26 13.83,-26.14 27.31,-52.46 40.15,-79.13zm-185.5 61.33l0 0c-1.44,1.85 -4.4,5.57 -5.87,7.42 2.65,0.65 7.95,1.86 10.64,2.47 -12.73,6.28 -27.12,8.29 -39.43,15.26 -2.66,16.59 -0.34,34.74 -10.34,49.4 12.04,2.69 26.63,2.27 35.72,11.86 0.15,8.97 -4.4,17.01 -8.18,24.88 0.56,-6.66 1.7,-13.22 2,-19.88 -10.83,-6.14 -23.41,-7.66 -35.49,-9.51 -5.38,7.04 -11.14,14.89 -10.88,24.17 4.48,7.23 10.8,13.1 17.13,18.75 13.33,0.98 27.54,-1.52 37.73,-10.84 22.24,-18.37 26.89,-49.58 24.7,-76.78 3.75,6.13 6.36,12.88 8.75,19.7 12.54,-17.13 23.86,-35.16 34.09,-53.76 -18.03,-10.79 -42.12,-15.83 -60.57,-3.14zm80.61 103.72l0 0c23.68,-21.48 42.43,-47.69 59.21,-74.7 7.61,18.25 9.96,38.48 6.97,58.03 -3.83,-8.37 -7.39,-16.93 -12.46,-24.62 -6.9,14.66 1.51,28.9 7.8,41.93 5.42,10.12 4.32,22.47 1.29,33.11 -10.04,16.33 -16.18,39.17 -37.01,44.63 -19.02,5.98 -37.09,-4.78 -53.3,-13.38 -25.72,10 -53.57,1.18 -78.64,-6.44 -9.47,-1.51 -10.69,-11.47 -11.52,-19.2 -0.15,-1.37 -0.45,-4.05 -0.61,-5.42 18.15,-4.51 38.19,-8.52 48.79,-25.72 19.33,2.8 39.33,3.18 57.66,10.64 10.38,2.84 17.96,11.03 27.58,15.5 -5.91,-9.44 -14.24,-16.86 -22.31,-24.36 12.84,-6.25 26.89,2.65 39.47,-3.56 -10.87,-2.61 -21.67,-6.14 -32.92,-6.44zm-136.75 31.63l0 0c-6.82,11.82 -10.91,25.42 -12.2,38.94 4.05,16.29 19.36,26.75 33.49,33.91 14.32,2.8 28.41,7.23 42.99,8.6 4.17,-2.01 8.19,-4.4 12.2,-6.75 13.94,7.81 27.81,18.49 44.51,18.22 11.78,-0.04 15.84,-12.84 22.54,-20.15 -11.82,-3.18 -22.96,-8.11 -34.05,-13.07 -25.35,-1.51 -50.88,-3.33 -75.65,-9.47 -9.78,-3.56 -20.73,-6.48 -27.81,-14.62 -2.2,-11.48 0.11,-23.07 2.96,-34.21 -2.24,-0.34 -6.75,-1.06 -8.98,-1.4zm-18.6 58.87l0 0c-2.2,9.13 -8.22,18.18 -6.71,27.76 10.76,14.59 27.73,22.89 43,31.9 6.59,-2.01 12.42,-5.68 18.03,-9.66 12.8,6.02 25.15,14.4 39.59,15.72 10.07,1.52 17.08,-6.67 24.2,-12.27 -6.02,-4.47 -12.31,-9.06 -20.22,-8.34 -37.28,-1.06 -70.88,-20.68 -97.89,-45.11zm-330.25 29.32l0 0c9.92,10.23 26.1,18.14 27.53,33.79 -3.63,15.04 -15.07,26.21 -23.07,38.98 -11.36,17.23 -11.81,39.51 -23.94,56.33 -17.95,8.37 -39.73,1.44 -52.31,-13.11 5.15,-7.31 13.3,-12.24 17.73,-20.27 22.27,0.19 47.99,-8.78 56.29,-31.36 8.52,-20.99 0.15,-43.11 -2.23,-64.36zm-582.4 -315.37l0 0c13.26,-0.53 26.71,-0.26 39.17,4.81 5.99,0.84 11.94,1.71 17.88,2.58 -42.8,15.46 -92.01,29.13 -118.42,69.4 -15.94,22.16 -17.16,51.21 -9.96,76.79 -3.98,2.42 -7.92,4.92 -11.89,7.38 -1.56,33.07 2.95,68.49 24.28,95.16 16.36,22.73 44.59,32.5 71.41,35.27 -1.48,4.43 -4.82,8.75 -3.98,13.67 17.04,11.97 37.24,18.6 57.24,23.75 16.36,4.29 33.41,2.05 50.04,3.98 11.48,3.34 20.76,11.86 32.46,14.66 10.04,2.43 20.38,3.26 30.61,4.47 -4.24,4.21 -8.48,8.38 -12.69,12.58 4.74,14.96 10.72,30.23 22.43,41.18 21.74,21.02 52.96,28.45 82.47,28.07 0.87,-3.07 2.61,-9.25 3.48,-12.35 -0.79,-3.9 -1.36,-7.84 -1.93,-11.75 19.13,20.2 31.33,46.52 53.53,63.91 10.53,7.99 24.54,7.2 37.01,6.37 11.74,-4.13 17.5,-16.37 13.48,-28.15 -7.54,-22.65 -21.82,-42.39 -35.91,-61.41 0.04,-12.42 2.01,-24.96 -0.38,-37.27 -3.9,-10.5 -13.94,-16.63 -21.67,-24.1 12.35,-0.83 22.54,6.82 30.38,15.46 8.72,8.37 14.29,19.32 16.45,31.18 2.91,16.63 18.33,29.7 14.24,47.58 4.96,11.51 9.62,23.26 11.44,35.76 13.03,-1.78 26.48,-3.18 38.71,-8.22 8.6,-4.51 19.13,-10.69 19.78,-21.52 3.41,-25.87 -7.62,-50.23 -17.69,-73.34 -2.81,-5.38 -4.47,-12.31 -10.91,-14.39 -2.92,-15.91 -3.53,-32.73 -10.8,-47.51 -5.08,-7.65 -13.86,-11.51 -21.17,-16.63 7.46,-0.3 15.49,-3.41 22.72,0 9.44,2.84 11.48,13.83 16.1,21.29 5.42,10.19 9.51,21.03 14.66,31.37 6.18,12.27 16.18,22.57 20.12,35.91 2.42,10.11 0.61,20.57 0,30.8 -0.38,8.22 0.42,16.55 2.12,24.62 22.28,1.21 51.33,-8.71 53.75,-34.47 -0.56,-24.66 -9.16,-48.98 -20.94,-70.5 -11.78,-15.91 -7.47,-37.88 -18.41,-54.25 -5.08,-10.26 -16.9,-12.8 -26.03,-18.03 10.12,0.04 21.03,-1.44 30.42,3.11 8.34,3.98 11.25,13.33 15.12,20.99 3.63,7.91 6.44,16.17 9.47,24.35 5.07,14.74 17.27,25.84 21.44,41.03 4.32,11.55 1.55,23.86 0.03,35.64 -0.49,9.21 0.88,18.45 1.44,27.66 14.1,-2.43 30.35,-6.1 38.23,-19.36 12.69,-28.71 0.49,-60.65 -11.07,-87.66l-6.51 2.92c-1.86,-19.93 2.95,-44.32 -12.35,-60 -18.11,-9.97 -39.85,-7.81 -59.78,-7.2 -28.52,-4.74 -57.16,-11.82 -86.33,-9.17 -24.09,2.84 -48.75,4.47 -71.82,12.62 8.56,2.04 16.21,6.47 22.57,12.54 -30.3,-8.68 -62.2,-5.16 -92.65,0.64 6.74,-5.8 14.73,-9.77 23.1,-12.65 -17.04,-21.14 -38.22,-38.23 -59.17,-55.24 -13.29,-10.75 -29.21,-17.76 -42.08,-29.09 10,2.01 19.84,5.11 28.9,9.96l-2.39 -5.83c2.99,0.76 9.02,2.27 12.01,3.03 0.72,-35.87 -17.05,-70.19 -41.06,-95.99 -12.54,-14.17 -29.36,-23.19 -43.53,-35.46 25.46,6.1 49.47,18.64 67.96,37.32 22.35,20.79 33.11,50.87 37.01,80.53 8.87,-7.39 17.5,-15.04 26.25,-22.58 -4.28,-37.35 -23.41,-74.51 -56.1,-94.47 -53.41,-33.49 -118.53,-45.5 -180.81,-39.51 -10.19,0.64 -14.89,11.48 -21.48,17.76zm580.8 -20.41l0 0c4.4,-7.5 13.34,-9.44 20.72,-12.73 12.81,3.82 25.76,10.61 39.36,6.21 21.79,-5.08 31.29,20.83 32.28,38.07 -4.66,-3.52 -9.32,-7.04 -13.94,-10.57 -2.05,7.5 -5.3,14.59 -9.32,21.25 -8.14,-6.4 -14.85,-14.35 -20.08,-23.26 -5.87,7.32 -12.46,14.13 -20.38,19.21 -7.08,-6.36 -13.29,-13.6 -19.01,-21.18 -6.82,3 -13.6,6.03 -20.42,9.06 3.03,-8.9 5.87,-18 10.79,-26.06zm12.96 -8.19l0 0c2.69,16.63 21.21,15.72 34.02,18.15 11.63,2.5 23.07,-3.18 28.52,-13.64 -20.38,9.09 -42.99,4.43 -62.54,-4.51zm-602.55 174.14l0 0c21.9,-4.77 45.5,-0.68 65.05,9.93 12.16,9.55 24.32,22.09 25.91,38.26 4.54,5.34 5.83,12.35 7.12,19.05 -21.71,-10.38 -41.94,-23.48 -63.41,-34.28 -8.98,-3.82 -12.92,-13.22 -18.04,-20.8 -6.06,-3.21 -11.25,-7.91 -16.63,-12.16zm420.49 89.44l0 0c12.54,-12.65 33.22,-10.19 46.71,-0.49 -15.57,-0.26 -31.14,0.46 -46.71,0.49zm-79.21 39.4l0 0c12.05,-11.21 34.66,-15.68 46.97,-2.88 -15.72,0.23 -31.44,0.3 -46.97,2.88zm-53.56 30.38l0 0c8.67,2.46 17.27,5.23 25.76,8.3 -8.83,10.45 -20.73,0.49 -25.76,-8.3zm334.22 -343.06l0 0c8.79,5.88 18.76,8.15 28.87,4.13 -4.62,-4.47 -8.98,-9.24 -13.9,-13.33 -5.23,2.69 -10.04,6.06 -14.97,9.2zm172.14 -157.09l0 0c1.74,0.68 5.3,2.05 7.05,2.76 -6.1,14.02 -17.51,25.16 -21.22,40.31 3.3,-3.29 9.93,-9.89 13.26,-13.18 -2.58,15.34 -3.52,32.54 -15.57,43.94 -2.08,-1.89 -6.21,-5.61 -8.3,-7.5 5.19,-23.22 14.59,-44.93 24.78,-66.33zm-240.59 -23.34l0 0 3.15 -0.91c15.83,-0.75 27.95,11.45 42.99,14.51 5.08,12.66 14.36,23 27.73,27.13 -3.9,-8.68 -6.97,-17.73 -9.2,-26.94 18.75,2.47 23.79,24.82 40.95,31.1 -0.72,-5.64 -1.37,-11.28 -2.01,-16.93 15.61,1.1 24.89,15.27 37.88,22.16 -2.58,-7.95 -5.57,-15.72 -8.45,-23.56 8.68,-1.21 17.35,0.26 26.03,0.79 11.44,0.65 21.86,-4.84 31.4,-10.49l1.74 2.84c0.88,1.4 2.66,4.21 3.53,5.57 -21.14,9.24 -39.44,23.68 -59.97,33.98 -7.92,3.98 -14.36,-3.07 -18.79,-8.67 -1.17,0.72 -3.48,2.16 -4.66,2.88 2.35,8.71 6.44,16.78 11.67,24.13 6.36,-1.94 12.77,-3.83 19.21,-5.69 5.03,4.47 11.13,9.47 18.29,6.14 3.3,-4.05 5.8,-8.64 8.53,-13.11 8.03,1.29 15.98,3.07 23.67,5.8 0.99,-1.93 3.03,-5.83 4.02,-7.8 -9.47,-1.78 -19.02,-3.11 -28.57,-4.4 8.57,-4.51 16.48,-11.4 26.3,-12.77 4.5,4.48 8.4,9.48 12.49,14.32 -7.27,15.16 -9.88,33.72 -23.71,44.74 -6.02,5.99 -14.85,10.53 -16.44,19.66 -3.9,13.03 -6.21,26.48 -7.12,40.04 3.56,-6.32 6.82,-12.84 8.98,-19.77 3.86,-2.95 7.76,-5.91 11.7,-8.83 -2.46,17.62 -1.93,37.05 -13.86,51.56l-5.12 3.37c-5.07,12.69 -10.15,25.46 -17.27,37.16 -0.76,-11.85 0.3,-24.2 -3.67,-35.6 -8.23,-17.54 -25.65,-27.47 -38.23,-41.41 6.93,-0.34 13.94,-0.45 20.91,-0.79 -1.21,-4.82 -2.08,-9.66 -3.03,-14.55 -0.45,2.23 -1.4,6.67 -1.85,8.86 -9.85,-2.12 -18.94,0.72 -24.97,8.87 -5.04,-0.19 -10.11,-0.38 -15.11,-0.61 -6.29,-7.99 -13.94,-15 -24.66,-15.11 0,-2.43 0.03,-7.28 0.07,-9.7 -2.92,4.88 -5.19,10.07 -7.12,15.38 5.68,1.25 11.37,2.57 17.01,3.94 -18.41,9.77 -37.05,20.87 -49.85,37.77 -4.4,8.94 -6.03,18.98 -8.94,28.48 -12.24,-11.93 -11.29,-30.61 -12.24,-46.36 -2.54,4.84 -5.04,9.69 -7.5,14.58 -3.48,-3.48 -6.93,-6.97 -10.34,-10.45 1.82,-19.32 3.64,-38.61 5.57,-57.89 1.82,8.3 3.03,16.71 4.77,25.04 1.14,5.95 2.84,11.75 4.59,17.54 3.44,-17.27 8.41,-34.74 7.42,-52.47 -6.63,-9.43 -17.54,-15.75 -21.93,-26.7 -3.3,-13.83 -2.2,-28.38 0.15,-42.24 1.63,-1.06 4.89,-3.11 6.51,-4.13 0.69,4.93 1.44,9.85 2.2,14.78 5.34,-5.08 10.65,-10.23 15.95,-15.38 6.48,4.65 12.95,9.35 19.39,14.09 -6.7,0.26 -13.41,0.49 -20.07,0.76 0.07,2.08 0.26,6.32 0.34,8.4 5.34,-1.21 10.64,-2.46 16.02,-3.67 3.37,6.67 7.43,16.97 17.01,14.62 2.27,-1.44 6.74,-4.35 8.98,-5.79 8.26,3.78 16.17,9.73 25.68,9.62 8.37,-4.96 10.31,-15.12 13.11,-23.6 -7.8,2.76 -16.97,12.23 -25.16,5.3 -18.22,-12.5 -35.04,-27.08 -54.13,-38.34 -5.72,6.48 -11.29,13.19 -18.18,18.45 6.14,-9.5 11.33,-19.54 16.21,-29.7zm23 108.16l0 0c9.85,-4.36 19.16,-10.12 27.01,-17.58 -10.95,2.31 -20.5,8.52 -27.01,17.58zm109.29 -9.06l0 0c3.82,6.75 9.47,12.2 16.82,15.04 -3.79,-6.85 -9.82,-11.78 -16.82,-15.04z"/>
   <path class="fil1" d="M1184.54 904.48l-109.8 0c11.05,-1 21.32,-8.81 35.55,-9.72 24.93,-1.63 51.07,-1.08 74.25,9.72z"/>
  </g>
 </g>
</svg>
