<?xml version="1.0" encoding="UTF-8"?>
<!DOCTYPE svg PUBLIC "-//W3C//DTD SVG 1.1//EN" "http://www.w3.org/Graphics/SVG/1.1/DTD/svg11.dtd">
<!-- Creator: CorelDRAW -->
<svg xmlns="http://www.w3.org/2000/svg" xml:space="preserve" width="2000px" height="1600px" version="1.1" style="shape-rendering:geometricPrecision; text-rendering:geometricPrecision; image-rendering:optimizeQuality; fill-rule:evenodd; clip-rule:evenodd"
viewBox="0 0 2000 1600"
 xmlns:xlink="http://www.w3.org/1999/xlink">
 <defs>
  <style type="text/css">
   <![CDATA[
    .fil2 {fill:black}
    .fil3 {fill:#005394}
    .fil1 {fill:#85868A}
    .fil4 {fill:#C6C7C8}
    .fil5 {fill:#E21737}
    .fil0 {fill:#FEFEFE}
   ]]>
  </style>
 </defs>
 <g id="Capa_x0020_1">
  <metadata id="CorelCorpID_0Corel-Layer"/>
  <g id="North_x0020_Carolina_x0020_Asheville_x0020_Bulldogs.cdr">
   <path class="fil0" d="M257.47 964.54c250.8,-235.79 501.66,-471.52 752.61,-707.14 69.81,0.06 139.61,0.05 209.4,0 -20.18,58.66 -40.47,117.27 -60.7,175.93 -8.32,-2.69 -16.87,-4.64 -25.58,-5.48 16.82,-48.17 33.34,-96.45 50.04,-144.67 -54.29,-0.07 -108.58,-0.04 -162.88,-0.02 -226.62,212.71 -453.01,425.69 -679.61,638.45 97.34,-18.91 194.56,-38.47 291.89,-57.43 24.5,-26.28 48.97,-52.59 73.43,-78.9 4.82,-4.82 8.95,-10.43 14.24,-14.71 36.14,-0.31 72.31,-0.05 108.45,-0.12 -61.28,123.46 -122.98,246.73 -183.92,370.37 25.85,-19.34 51.22,-39.36 77.94,-57.52 92.57,-63.73 189.98,-120.75 292.03,-167.93 9.16,4.65 19.61,4.75 29.61,3.88 2.45,2.69 4.95,5.34 7.5,7.97 -96.25,43.66 -188.5,95.83 -277.25,153.15 -29.45,19.36 -58.95,38.71 -86.81,60.35 -38.53,29 -76.92,58.21 -115.47,87.22 71.55,-143.9 143.16,-287.78 214.56,-431.74 -18.5,-0.16 -37.01,0.03 -55.51,-0.11 -24.29,25.78 -48.29,51.82 -72.45,77.71 -4.92,4.63 -8.69,10.8 -14.45,14.33 -129.01,25.51 -258.03,51.04 -387.07,76.41zm860.46 -24.86l0 0c-1.26,9.05 -1.53,18.38 0.15,27.4 0.99,4.95 3.55,10.73 9.14,11.65 4.99,-0.48 9.08,-3.63 12.78,-6.75 -1.04,-0.19 -3.11,-0.55 -4.14,-0.72 4.04,-5.3 7.86,-10.77 11.26,-16.51 -8.28,-6.14 -16.23,-12.72 -23.67,-19.89 -1.89,1.46 -5.27,1.99 -5.52,4.82zm210.73 -36.17l0 0c2.06,-3.69 5.11,-10.46 10.34,-7.15 4.51,5.16 5.98,12.27 9.19,18.26 5.91,13.66 14.91,26.41 27.7,34.42 -3.6,0.07 -7.18,0.43 -10.73,0.77 -7.06,-1.99 -14.09,-5.4 -18.6,-11.36 -7.13,-9.45 -11.91,-20.58 -13.95,-32.23 -1,-0.67 -2.97,-2.03 -3.95,-2.71zm-12.44 -14.37l0 0c-0.21,6.28 3.56,11.78 7.01,16.73 2.26,-4.57 3.72,-10.08 8.04,-13.21 3.32,-2.47 7.4,-0.84 11.06,-0.24 -0.79,-2.54 0.54,-7.15 -3.07,-7.65 -5.69,-0.51 -11.44,0.24 -17.15,0.14 -2.55,-0.12 -6.01,1.15 -5.89,4.23zm172.69 -26.88l0 0c1.19,-0.05 3.57,-0.15 4.75,-0.2 0.93,2.33 1.8,4.71 2.64,7.11 -2.64,-2.12 -5.04,-4.51 -7.39,-6.91zm-188.86 -0.46l0 0c0.1,-4.25 4.61,-6.41 8.42,-5.71 6.74,0.57 13.63,-1.25 20.24,0.38 4.29,8.23 -2.1,16.85 -2.86,25.2 -3.99,0.03 -8.02,0.44 -11.45,2.67 -8.25,-4.54 -13.35,-13.32 -14.35,-22.54zm-276.53 21.29l0 0c-1.68,4 -0.69,9.48 3.62,11.37 7.63,3.5 16.3,1.42 24.12,-0.4 -3.4,-0.32 -6.76,-0.72 -10.14,-1.11 6.54,-2.54 13.55,-4.56 19.02,-9.12 2.4,-5.52 -1.41,-11.16 -3.48,-16.17 2,0.88 4.04,1.75 6.08,2.59 -4.01,-7.22 -10.25,-13.69 -18.8,-14.88 -8.27,7.96 -16.44,16.75 -20.42,27.72zm518.62 -36.24l0 0c4.68,-2.54 7.58,3.36 9,6.88 5.08,14.62 5.42,31.4 -0.68,45.77 -7.19,-1.56 -14.81,-3.53 -22.07,-1.29 -6.47,2.4 -12.22,6.34 -18.37,9.43 0.97,-3.48 0.99,-7.59 4.11,-9.99 8.9,-8.47 16.03,-18.9 19.82,-30.64 2.71,-6.7 3.96,-14.18 8.19,-20.16zm-76.15 -5.88l0 0c2.97,-0.89 5.95,-2.18 9.14,-2 3.64,3.6 3.84,9.18 3.29,13.97 -4.45,-3.65 -8.45,-7.82 -12.43,-11.97zm-181.16 -10.16l0 0c0.53,9.77 5.36,19.49 13.68,24.92 4.1,-2.64 8.93,-2.84 13.66,-2.67 1.37,-6.52 4.24,-12.57 5.59,-19.07 0.58,-3.32 -0.02,-8.36 -4.3,-8.6 -6.76,-0.67 -13.61,0.19 -20.37,-0.82 -3.98,-0.74 -8.31,1.97 -8.26,6.24zm159.33 -13.46l0 0c3.89,-1.27 7.86,-2.28 11.87,-3.14 5.9,5.13 3.86,13.53 3.14,20.27 -5.21,-5.53 -10.23,-11.23 -15.01,-17.13zm-13.74 -29.74l0 0c2.66,0.1 5.49,-0.19 7.97,1.09 3.62,5.83 0.97,12.89 -0.41,19 -3.29,-6.38 -5.65,-13.18 -7.56,-20.09zm-158.04 1.78l0 0c6.76,-3.22 13.63,1.03 20.54,1.37 4.06,0.62 9.29,0.29 12,4.01 1.37,9.96 -6.67,17.62 -9.15,26.75 -3.83,-0.16 -7.6,0.39 -11.08,1.95 -11.24,-6.48 -17.24,-21.98 -12.31,-34.08zm-7.68 -9.94l0 0c1.85,2.52 3.81,4.99 5.87,7.37 3.36,-1.27 6.89,-1.94 10.52,-1.8 5.56,-7.48 12.77,-14.39 14.92,-23.74 -2.06,-4.26 -6.14,-7.26 -10.62,-8.58 -5.48,-1.83 -10.37,-4.98 -15.49,-7.57 -2.4,11.33 -3.93,22.82 -5.2,34.32zm-276.94 -24.43l0 0c-2.61,2.45 -5.57,6.15 -4.05,9.96 2.06,5.55 8.04,7.88 12.9,10.44 0.63,-0.79 1.9,-2.38 2.55,-3.19 5.85,1.17 11.83,3.41 17.84,2.37 6.52,-2.39 5.15,-10.63 6.5,-16.12 -0.27,6.31 -0.17,12.65 0.38,18.94 6.41,-11.34 5.38,-28.85 -6.33,-36.42 -10.4,3.41 -21.37,6.68 -29.79,14.02zm613.99 -25.37l0 0c36.75,4.68 73.58,9.29 109.94,16.5 -28.36,2.94 -56.39,8.42 -84.48,13.15 -15.12,2.82 -30.33,5.32 -45.33,8.65l-1.87 1.61c0.34,-2.06 1.82,-3.59 3.02,-5.2 6.75,-8.48 11.4,-18.43 14.66,-28.73 0.65,-2.42 2.52,-4.13 4.06,-5.98zm-52.84 -7l0 0c8.3,3.88 18.37,10.53 27.14,3.96 -4.47,12.47 -10.13,26.57 -22.87,32.63 -3.51,-11.89 -0.44,-24.71 -4.27,-36.59zm-181.83 38.04l0 0c-5.07,-15.77 -4.2,-33.43 2.67,-48.51 1.02,0.56 3.06,1.71 4.08,2.3l-0.05 0.15c-4.87,16.83 -4.3,35.72 4.03,51.39 0.82,-14.64 4.18,-32.81 19.22,-39.34 3.39,1.39 6.8,2.74 10.29,4 -6.52,4.3 -11.94,10.13 -15.69,16.95 -5.32,8.57 -7.85,18.74 -14.5,26.49 -5.68,-2.22 -8.22,-8.08 -10.05,-13.43zm-364.37 -129.39l0 0c3.79,11.55 13.06,20.12 21.48,28.47 6.87,-1.35 13.39,-5.81 16.28,-12.22 -0.8,-0.31 -2.41,-0.93 -3.24,-1.23 1.79,-4.72 5.15,-10.6 1.77,-15.3 -5.28,-4.74 -12.58,-6.12 -18.94,-8.86 8.17,1.22 17.31,1.3 23.84,7.13 0.64,0.05 1.92,0.16 2.56,0.23 -1.48,-2.27 -1.92,-5.89 -5.2,-6.11 -10.49,-2.76 -21.7,-5.96 -32.5,-3.17 -4.75,1.12 -7.84,6.4 -6.05,11.06zm547.11 -45.84l0 0c4.84,-4.84 9.5,-9.91 13.19,-15.71 2.29,6.88 4.57,13.93 4.42,21.26 -0.05,6.6 -2.49,12.84 -4.92,18.86 -4.06,0.8 -8.13,1.59 -12.16,2.42 2.95,-8.75 3.66,-18.36 -0.53,-26.83zm-227.96 -44.45l0 0c11.19,3.51 22.63,6.51 33.1,11.93 9.91,4.47 18.79,10.81 28.32,15.99 -13.01,11.54 -17.83,30.67 -11.74,46.99 -17.2,-1.46 -34.31,-4.44 -50.78,-9.63 -4.68,-10.92 -10.94,-21.04 -16.27,-31.6 -3.24,-5.88 -1.58,-13.04 2.73,-17.88 4.35,-5.72 9.44,-10.83 14.64,-15.8zm-368.35 -21.64l0 0c-47.67,51.28 -95.4,102.5 -143.06,153.78 22.15,0.01 44.32,-0.06 66.48,0.03 25.72,-51.17 51.1,-102.52 76.58,-153.81z"/>
   <path class="fil1" d="M990.66 208.57l297.56 0c-25.76,74.64 -51.72,149.21 -77.21,223.92 -6.09,-1.39 -12.34,-1.68 -18.55,-2.06 23.25,-67.97 47.08,-135.73 70.13,-203.76 -87.03,-0.05 -174.07,0 -261.1,-0.03 -2.48,-0.17 -4.87,0.6 -6.56,2.43 -278.9,262.29 -558.14,524.22 -836.94,786.61 167.9,-33.23 335.8,-66.35 503.71,-99.47 22.24,-23.59 44.01,-47.62 66.43,-71.06 -80.38,162.16 -161.12,324.16 -241.63,486.26 71.59,-53.79 142.96,-107.91 214.43,-161.9 48.77,-37.37 100.8,-70.21 153.2,-102.2 72.04,-43.44 146.26,-83.4 223.17,-117.6 5.14,3.74 10.54,7.13 15.53,11.09l0.34 1.92c-64.34,25.59 -125.57,58.3 -185.33,93.12 -52.11,30.57 -103.15,62.98 -153.07,97.03 -24.22,16.13 -46.9,34.4 -70.25,51.75 -82.53,62.25 -164.88,124.72 -247.53,186.81l-0.92 0c17.59,-33.55 33.77,-67.83 50.86,-101.64 58.85,-118.51 117.96,-236.9 176.62,-355.51 -165.51,32.68 -331.02,65.37 -496.56,98.04 -22.35,4.15 -44.53,9.31 -66.99,12.84l0 -0.38c51.92,-47.93 103.04,-96.73 154.68,-144.96 192.93,-181.33 385.94,-362.59 578.85,-543.92 52.45,-49.03 104.46,-98.54 157.13,-147.33zm426.27 525.33l0 0c12.14,3.77 24.65,7.23 37.51,6.34 -2.35,0.5 -4.71,0.93 -7.05,1.39 -2.57,14.07 -5.1,28.49 -3.03,42.82 0.98,9.47 4.08,18.53 7.85,27.21 -3.39,1.16 -6.82,2.28 -10.23,3.39 -3.59,-7.76 3.2,-15.84 0.65,-23.89 -0.46,-6.59 -8.02,-6.66 -12.93,-6.57 -4.57,-16.82 -5.96,-34.53 -12.77,-50.69zm59.13 -4.37l0 0c12.97,-6.96 26.35,-13.24 40.04,-18.67 3.98,-1.97 8.2,0.26 12.12,1.23 7.14,46.39 6.55,94.66 -7.49,139.75 -19.46,-8.83 -37.08,-23.76 -45.34,-43.87 -9.31,-22.52 -8.4,-47.62 -5.83,-71.38 -0.29,-3.98 3.74,-5.35 6.5,-7.06zm142.35 -31.15l0 0c1.39,-7.17 2.73,-14.37 3.79,-21.59l0.1 1.82c45.36,6.33 90.53,14.42 134.9,25.92 49.34,13.12 98.85,28.55 142.8,55.1l0 0.27c-21.2,1.81 -42.19,5.52 -63.24,8.63 -95.28,15.01 -189.87,34.18 -284,55.16l-1.12 -0.17c0.94,-6.22 1.83,-12.45 2.47,-18.7 93.74,-21.43 188.19,-39.67 282.99,-55.7 -14.77,-6.44 -30.3,-10.9 -45.7,-15.62 -56.57,-16.4 -114.6,-27.46 -172.99,-35.12zm-160.83 -80.21l0 0c13.09,-3.07 26.53,-4.65 39.98,-4.49 -14.11,1.18 -28.15,3.61 -41.03,9.75 0.31,4.1 4.72,5.11 7.1,7.75 2.31,2.6 4.2,5.55 6.24,8.42 -9.34,-6.76 -20.18,-11.2 -31.6,-12.84 5.8,-4.14 12.38,-7.02 19.31,-8.59zm-246.21 0.67l0 0c-20.26,13.59 -39.82,28.49 -56.93,45.95 -17.11,18.26 -29.54,40.17 -41.43,61.98 3.8,-15.95 12.36,-30.21 21.08,-43.91 -29.57,14.68 -55.49,39.95 -64.51,72.38 -4.76,18.79 -6.8,38.4 -5.16,57.75 1.8,20.34 10.96,39.91 26.13,53.68 -1.24,-21.98 -0.38,-44.9 8.43,-65.38 -6.58,23.58 -6.79,48.56 -2.96,72.63 2.94,13 5.89,26.45 13.64,37.58 14.69,21.68 35.95,37.95 57.93,51.68 22.97,13.43 49.03,23.16 75.92,22.91 13.75,0 27.81,-7.29 33.79,-20.03 7.46,-15.49 3.88,-33.58 -2.29,-48.87 -13.38,-32.09 -16.48,-67.3 -16.6,-101.74 1.2,-35.75 3.84,-72.48 18.26,-105.7 5,-13.57 11.76,-26.54 21.56,-37.27 -15.54,3.01 -29.88,10.8 -41.31,21.7 7.94,-13.29 22.22,-20.98 36.63,-25.29 -8.76,-0.2 -17.57,1.22 -25.59,4.79 -18.48,7.69 -32.42,22.66 -44.97,37.73 12.23,-18.81 28.03,-37.46 50.03,-44.66 17.83,-5.85 36.36,0.89 52.69,8.06 12.57,5.47 22.65,14.91 32.8,23.86 21.7,17.33 47.67,28.85 74.57,35.37 9.58,2.22 20.55,4.28 29.4,-1.32 14.42,-9.86 30.43,-17.01 46.39,-23.95 4.47,-1.79 9.27,-4.08 14.21,-2.73 14.76,3.57 26.83,13.6 41.04,18.58 6.62,2.42 11.66,-4.07 16.56,-7.44 13.2,-9.97 15.98,-27.27 18.02,-42.61 2.84,-15.93 -2.49,-32.27 -11.28,-45.48 -5.21,-8.35 -15.24,-11.04 -23.57,-15.14 -6.33,1.3 -12.67,2.5 -19.05,3.51 8.73,3.79 16.77,9.24 22.58,16.86 -2.08,7.95 -7.6,14.14 -13.94,19.08 -3.09,-3.79 -9.92,-13.12 -14.09,-6.24 0.86,4.4 3.72,8.5 3.41,13.09 -4.17,10.68 -13.82,17.97 -23.78,22.96 -8.53,-10.39 -20.93,-16.92 -34.01,-19.49 1.99,-5.59 6.71,-12.86 2.21,-18.26 -7.23,-4.22 -15.75,0.31 -22.92,2.62 -12.67,-7.2 -26,-13.58 -40.56,-15.79 3.84,-11.52 16.27,-15.17 26.32,-19.39 -19.25,-2.55 -36.89,7.55 -55.91,7.89 -20.04,0.48 -40.11,-1.87 -59.64,-6.27 -16.33,-3.5 -31.52,-11.28 -48.22,-13.38 -26.07,-4.3 -53.11,3.16 -74.88,17.7zm221.13 41.22l0 0c2.28,1.08 2.28,2.22 0.03,3.4 -2.31,-1.08 -2.33,-2.23 -0.03,-3.4zm159.68 2.97l0 0c2.81,-0.93 3.76,0.02 2.87,2.78 -2.85,0.91 -3.79,-0.02 -2.87,-2.78zm-189.53 7.46l0 0c2.74,-0.95 3.76,-0.02 3,2.77 -2.79,0.93 -3.79,0 -3,-2.77zm19.34 -1l0 0c2.83,-0.89 3.79,0.04 2.9,2.78 -2.85,0.88 -3.83,-0.05 -2.9,-2.78zm162.86 3.33l0 0c2.84,-0.86 3.8,0.07 2.89,2.79 -2.88,0.84 -3.85,-0.1 -2.89,-2.79zm-165.89 7.95l0 0c2.1,-1.75 5.24,1.73 2.87,3.46 -2.1,1.74 -5.33,-1.78 -2.87,-3.46zm15.34 1.05l0 0c2.79,-0.94 3.77,-0.04 2.95,2.74 -2.83,0.94 -3.81,0.02 -2.95,-2.74zm80.83 4.85l0 0c0.48,-0.29 1.44,-0.89 1.93,-1.18 1.07,2.88 2.13,5.77 3.21,8.67 0.38,-2.98 0.77,-5.93 1.22,-8.9 0.6,0.12 1.83,0.36 2.45,0.47 -1.05,6 -2.01,12.01 -3.72,17.86 -3.36,-4.99 -2.74,-11.47 -5.09,-16.92zm75.18 -1.44l0 0c-0.9,2.74 0.06,3.67 2.9,2.78 0.88,-2.76 -0.1,-3.69 -2.9,-2.78zm-199.13 1.92l0 0c2.32,-0.96 4.01,3 1.36,3.62 -2.35,0.91 -4.03,-2.99 -1.36,-3.62zm22.13 1.89l0 0c2.4,-0.88 3.78,3.13 1.17,3.68 -2.45,0.91 -3.82,-3.17 -1.17,-3.68zm24.12 15.29l0 0c2.78,-0.89 3.74,0.05 2.88,2.84 -2.79,0.88 -3.75,-0.07 -2.88,-2.84zm2.47 -137.4l0 0c8.51,0.66 16.31,4.44 24.59,6.15 10.66,2.61 21.75,2.97 32.65,1.99 9.23,-0.81 17.44,-5.4 25.94,-8.67 -6.39,14.02 -23.11,21.27 -38,19.38 -16.32,-2.05 -32.23,-8.72 -45.18,-18.85zm111.72 9.91l0 0c6.19,-8.97 14.42,-16.26 20.88,-25 -1.18,4.89 -4.2,8.95 -6.84,13.11 -0.92,1.6 -1.81,3.19 -2.65,4.8 -3.69,5.8 -8.35,10.87 -13.19,15.71 -1.15,1.2 -2.21,2.43 -3.24,3.72 -2.12,2.57 -4.21,5.19 -6.53,7.61 -0.96,0.8 -2.84,2.42 -3.8,3.22 5.16,-7.71 10.09,-15.56 15.37,-23.17zm-313.85 -43.46l0 0c18.02,5.41 36.94,0.82 55.34,2.76 -4.65,7.9 -9.91,16.09 -10.01,25.58 -0.54,5.98 0.73,12.49 5.59,16.49 8.02,7.04 15.96,14.19 23.62,21.65 -3.39,-12.47 -15.7,-22.43 -13.27,-36.21 3.02,-9.77 11.08,-16.99 18.12,-24 1.18,0.35 3.51,1.01 4.7,1.36 11.19,3.51 22.63,6.51 33.1,11.93 9.91,4.47 18.79,10.81 28.32,15.99 1.47,0.77 2.9,1.67 4.27,2.66 4.13,3.19 8.19,6.5 12.62,9.33 12.87,8.57 24.22,19.83 38.79,25.61 -13.37,-9.43 -24.84,-21.19 -35.93,-33.12 -11.62,-12.55 -25.18,-23.2 -39.67,-32.25 -8,-4.83 -16.15,-9.75 -25.25,-12.22 -15.77,-4.48 -32.44,-2.99 -48.58,-2.08 -17.27,2.11 -34.46,4.67 -51.76,6.52z"/>
   <path class="fil2" d="M994.93 229.07c1.69,-1.83 4.08,-2.6 6.56,-2.43 87.03,0.03 174.07,-0.02 261.1,0.03 -23.05,68.03 -46.88,135.79 -70.13,203.76 6.21,0.38 12.46,0.67 18.55,2.06 8.69,2.9 17.55,6.28 26.92,5.54 6.39,-2.09 12.41,-5.23 18.89,-7.08 30.6,-9.94 64.28,-8.9 94.63,1.46 10.13,-12.47 25.95,-22.03 42.53,-18.93 18.03,2.9 28.83,19.05 41.91,30.07 34.72,2.55 65.83,20.59 93.67,40.25 7.46,-1.76 15.34,-3.12 22.92,-1.15 9.05,2.01 16.53,8.11 22.41,15.05 6.36,8.49 17.7,12.43 21.51,22.98 6.98,16.25 -2.04,33.13 -8.86,47.77 2.81,10.27 4.42,21.04 2.62,31.65 5.67,3.49 11.06,7.64 14.97,13.11 13.4,18 20.16,41.23 17.07,63.58 -1.06,7.22 -2.4,14.42 -3.79,21.59 58.39,7.66 116.42,18.72 172.99,35.12 15.4,4.72 30.93,9.18 45.7,15.62 -94.8,16.03 -189.25,34.27 -282.99,55.7 -0.64,6.25 -1.53,12.48 -2.47,18.7l1.12 0.17c14.26,5.04 21.27,19.87 24.06,33.74 10.91,6.67 20.18,17.02 22.68,29.86 3.47,17.57 -2.81,35.33 -11.09,50.64 -5.98,10.68 -15.05,19.73 -26.07,25.13 -12.17,6.02 -25.68,8.75 -37.84,14.82 -9.54,4.37 -18.03,10.62 -26.76,16.38 -28.49,18.31 -59.6,33.55 -93.07,39.98 -26.28,5.08 -54.49,3.77 -78.89,-7.94 -8.48,-3.7 -15.94,-9.19 -23.33,-14.6 -8.33,-3.94 -17.18,-6.77 -25.22,-11.37 -17.89,10.77 -39.75,10.85 -59.7,7.27 -20.51,-3.6 -40.05,-11.4 -58.22,-21.39 -7.17,6.92 -15.5,13.32 -25.48,15.36 -12.15,2.7 -25.81,-2.58 -32.64,-13.08 -5.21,-7.58 -6.92,-16.8 -8.02,-25.77l-0.34 -1.92c-4.99,-3.96 -10.39,-7.35 -15.53,-11.09 -76.91,34.2 -151.13,74.16 -223.17,117.6 -52.4,31.99 -104.43,64.83 -153.2,102.2 -71.47,53.99 -142.84,108.11 -214.43,161.9 80.51,-162.1 161.25,-324.1 241.63,-486.26 -22.42,23.44 -44.19,47.47 -66.43,71.06 -167.91,33.12 -335.81,66.24 -503.71,99.47 278.8,-262.39 558.04,-524.32 836.94,-786.61zm442.5 475.26l0 0c-0.87,2.77 0.09,3.72 2.88,2.84 0.86,-2.79 -0.1,-3.73 -2.88,-2.84zm-24.12 -15.29l0 0c-2.65,0.51 -1.28,4.59 1.17,3.68 2.61,-0.55 1.23,-4.56 -1.17,-3.68zm-22.13 -1.89l0 0c-2.67,0.63 -0.99,4.53 1.36,3.62 2.65,-0.62 0.96,-4.58 -1.36,-3.62zm199.13 -1.92l0 0c-0.9,2.74 0.06,3.67 2.9,2.78 0.88,-2.76 -0.1,-3.69 -2.9,-2.78zm-75.18 1.44l0 0c2.35,5.45 1.73,11.93 5.09,16.92 1.71,-5.85 2.67,-11.86 3.72,-17.86 -0.62,-0.11 -1.85,-0.35 -2.45,-0.47 -0.45,2.97 -0.84,5.92 -1.22,8.9 -1.08,-2.9 -2.14,-5.79 -3.21,-8.67 -0.49,0.29 -1.45,0.89 -1.93,1.18zm-80.83 -4.85l0 0c-0.86,2.76 0.12,3.68 2.95,2.74 0.82,-2.78 -0.16,-3.68 -2.95,-2.74zm-15.34 -1.05l0 0c-2.46,1.68 0.77,5.2 2.87,3.46 2.37,-1.73 -0.77,-5.21 -2.87,-3.46zm165.89 -7.95l0 0c-0.96,2.69 0.01,3.63 2.89,2.79 0.91,-2.72 -0.05,-3.65 -2.89,-2.79zm-162.86 -3.33l0 0c-0.93,2.73 0.05,3.66 2.9,2.78 0.89,-2.74 -0.07,-3.67 -2.9,-2.78zm-19.34 1l0 0c-0.79,2.77 0.21,3.7 3,2.77 0.76,-2.79 -0.26,-3.72 -3,-2.77zm189.53 -7.46l0 0c-0.92,2.76 0.02,3.69 2.87,2.78 0.89,-2.76 -0.06,-3.71 -2.87,-2.78zm-159.68 -2.97l0 0c-2.3,1.17 -2.28,2.32 0.03,3.4 2.25,-1.18 2.25,-2.32 -0.03,-3.4zm-465.29 -173.93l0 0c-47.64,51.21 -95.28,102.4 -142.94,153.6 -14.04,15.48 -28.94,30.23 -42.39,46.22 34.23,0.17 68.46,-0.07 102.7,0.12 22.95,-45.09 44.98,-90.65 67.8,-135.82 16.3,-33.88 33.91,-67.12 49.88,-101.16 -12.27,11.76 -23.26,24.8 -35.05,37.04zm-13.7 33.24l0 0c-47.67,51.28 -95.4,102.5 -143.06,153.78 22.15,0.01 44.32,-0.06 66.48,0.03 25.72,-51.17 51.1,-102.52 76.58,-153.81zm427.51 -85.92l0 0c-10.07,3.98 -16.1,13.72 -21.55,22.53 -18.82,-7.82 -38.97,-13.25 -59.49,-12.62 -19.76,-0.26 -38.98,5.57 -56.74,13.77 -11.97,1.35 -24.17,-1.15 -35.37,-5.44 -12.87,-4.37 -26.72,-0.27 -37.98,6.41 -14.35,-5.46 -29.1,-11.91 -44.82,-10.81 -16.49,0.34 -32.45,10.3 -39.42,25.33 -6.79,12.81 -3.74,28.1 -9.52,41.23 -7.56,17.11 -17.12,33.89 -31.32,46.41 -6.84,6.7 -15.69,12.48 -18.8,22.01 -1.58,10.03 5.98,18.87 13.76,24.21 -2.19,3.49 -4.44,6.99 -6.75,10.4 -8.15,-1.47 -16.63,-2.55 -24.81,-0.84 -5.83,1.17 -10.71,6.45 -9.98,12.64 0.91,11.09 9.19,19.57 16.15,27.54 -10.01,27.76 -14.55,57.21 -14.91,86.66 -9,4.49 -22.12,10.75 -19.9,22.96 3.27,9.75 14.43,12.97 23.14,16.2 4.52,28.47 13.47,56.33 27.24,81.71 -5.01,7.14 -10.97,14.61 -11.18,23.76 -0.41,5.39 3.63,10.39 8.78,11.7 8.21,2.36 16.82,0.63 25.01,-0.98 16.7,20.55 36.98,38.16 60.1,51.15 0.14,8.21 0,16.74 3.16,24.48 2.07,5.03 6.85,9.59 12.7,8.76 10.34,-1.42 17.31,-10.16 23.71,-17.6 6.72,1.57 13.9,2.09 19.99,5.67 20.77,11.32 43.97,19.03 67.78,19.65 13.22,0.73 26.64,-3.98 35.81,-13.67 9.34,5.97 19.2,11.23 29.76,14.71 3.67,1.17 7.27,2.73 10.18,5.33 19.14,16.27 45.23,22.72 69.95,20.54 30.7,-2.5 59.65,-14.79 86.19,-29.84 17.56,-9.64 32.92,-23.11 51.79,-30.29 15.58,-6.62 34.87,-9.04 45.05,-24.18 7.7,-11.86 13.78,-26.12 12.09,-40.52 -1.73,-11.42 -12.31,-18.04 -21.79,-22.75 -1.34,-8.42 -2.3,-17.54 -7.8,-24.41 -2.73,-3.55 -8.5,-4.7 -11.9,-1.54 -3.68,3.75 -4.88,9.08 -6.6,13.86 -2.69,-1.09 -5.35,-2.17 -8,-3.25 13.97,-45.24 15.13,-93.57 8.12,-140.16 4.03,2.35 9.94,3.34 11.4,8.45 3.17,8.81 2.81,18.36 3.07,27.62 0.15,3.72 0.21,7.76 2.42,10.97 3.85,3.53 9.17,0.36 12.41,-2.49 9.39,-8.52 14.91,-20.49 18.14,-32.57 0.87,-4.96 5.91,-7.22 8.79,-10.89 9.79,-11 11.83,-26.17 13.85,-40.2 2.88,-17.57 -2.77,-35.77 -13.08,-50.02 -5.43,-7.49 -14.47,-10.76 -22.66,-14.25 1.9,-6.01 4.08,-12.05 4.37,-18.39 0.41,-9.5 -2.35,-18.75 -5.9,-27.45 -0.92,1.6 -1.81,3.19 -2.65,4.8 2.29,6.88 4.57,13.93 4.42,21.26 -0.05,6.6 -2.49,12.84 -4.92,18.86 -4.06,0.8 -8.13,1.59 -12.16,2.42 2.95,-8.75 3.66,-18.36 -0.53,-26.83 -1.15,1.2 -2.21,2.43 -3.24,3.72 2.92,8.26 3.21,19.51 -4.3,25.44 -0.57,-5.97 -1.1,-11.95 -2.23,-17.83 -0.96,0.8 -2.84,2.42 -3.8,3.22 5.16,-7.71 10.09,-15.56 15.37,-23.17 6.19,-8.97 14.42,-16.26 20.88,-25 4.02,-6.26 8.11,-13.46 6.88,-21.17 -0.67,-5.3 -5.97,-7.71 -9.65,-10.73 -7.27,-5.23 -11.25,-14.42 -19.8,-17.9 -7.92,-3.09 -16.02,0.91 -23.32,3.76 -9.31,-7.24 -18.98,-13.99 -29.07,-20.03 -20.93,-12.48 -44.18,-23.35 -69.05,-23.16 -8.99,-7.68 -17.34,-16.06 -26.04,-24.05 -5.61,-5.28 -14.03,-8.13 -21.43,-5.11zm-17.69 24.53l0 0c17.77,10.63 39.77,10.27 59.29,5.27 -6.36,-5.71 -12.6,-11.54 -18.75,-17.46 -5.14,-5.21 -11.86,-11.09 -19.8,-8.84 -9.84,3.22 -15.62,12.67 -20.74,21.03zm-116.71 2.49l0 0c-6.47,2.86 -13.8,0.58 -20.59,0.39 -10.63,-0.48 -19.94,-7.09 -30.65,-6.75 -7.27,0.03 -14.09,2.86 -20.47,6.07 5.84,2.84 11.93,5.19 17.64,8.31 -11.09,-2.69 -22.25,-5.28 -32.83,-9.65 -12.57,-4.82 -26.13,-9.41 -39.74,-6.86 -13.51,1.99 -25.51,11.35 -31.04,23.78 -5.64,11.88 -3.31,25.61 -8.06,37.73 -4.08,10.82 -9.99,20.85 -16.22,30.55 -7.27,11.37 -17.81,20.01 -27.49,29.18 -3.66,3.8 -8.18,8.36 -7.08,14.14 2.21,7.44 8,13.46 14.93,16.77 11,5.29 23.35,7.23 35.47,7.75 16.16,0.47 31.09,-6.52 46.23,-11.2 8.54,-3.14 17.81,-4.97 25.37,-10.23 6.1,-5.87 9.58,-13.87 12.7,-21.6 8.93,-20.92 1.08,-45.38 12.72,-65.54 -2.22,9.6 -3.99,19.32 -4.44,29.16 -0.68,8.26 0.24,16.63 -1.38,24.81 -2.17,11.12 -6.09,22.11 -12.64,31.45 -5.62,8.49 -16.3,10.63 -25.25,13.89 -18,5.42 -35.64,14.11 -54.88,13.25 -13.95,22.42 -20.7,48.38 -23.86,74.38 -3.58,28.46 -5.54,58.78 6.05,85.79 2.11,-15.23 5.66,-30.48 13.36,-43.92 13.66,-24.9 36.75,-43.63 62.31,-55.34 4.41,-1.82 6.52,-6.43 9.67,-9.7 15.94,-17.99 35.07,-32.8 54.64,-46.6 13.37,-9.58 28.13,-17.62 44.21,-21.56 23.19,-6.28 47.72,-2.61 70.08,5.21 -0.77,-1.07 -2.3,-3.21 -3.07,-4.27 -3.39,-12.47 -15.7,-22.43 -13.27,-36.21 3.02,-9.77 11.08,-16.99 18.12,-24 1.18,0.35 3.51,1.01 4.7,1.36 -5.2,4.97 -10.29,10.08 -14.64,15.8 -4.31,4.84 -5.97,12 -2.73,17.88 5.33,10.56 11.59,20.68 16.27,31.6 16.47,5.19 33.58,8.17 50.78,9.63 -6.09,-16.32 -1.27,-35.45 11.74,-46.99 1.47,0.77 2.9,1.67 4.27,2.66 -13.65,9.96 -17.85,29.21 -11.3,44.49 4.48,0.39 8.98,0.54 13.49,0.6 -3.43,-12.88 0.69,-26.73 10.43,-35.76 12.87,8.57 24.22,19.83 38.79,25.61 -13.37,-9.43 -24.84,-21.19 -35.93,-33.12 -11.62,-12.55 -25.18,-23.2 -39.67,-32.25 -8,-4.83 -16.15,-9.75 -25.25,-12.22 -15.77,-4.48 -32.44,-2.99 -48.58,-2.08 -17.27,2.11 -34.46,4.67 -51.76,6.52 -6.14,-1.77 -13.41,-1.27 -18.38,-5.85 -3.37,-3.77 -2.04,-9.38 0.45,-13.27 5.45,-8.64 12.34,-16.26 19.22,-23.79 12.77,-13.13 28.39,-24.98 46.97,-27.79 18.22,-3 36.38,3.93 51.63,13.44 27.98,17.5 51.05,41.54 72.71,66.16 8.84,9.25 18.01,18.71 29.53,24.65 12.95,10.13 28.86,16.8 45.18,18.85 14.89,1.89 31.61,-5.36 38,-19.38l1.15 -0.45c7.03,-9.57 9.91,-21.7 10.2,-33.41 -0.38,-7.01 -0.91,-15.24 -6.65,-20.13 -8.21,-6.92 -17.08,-13.06 -26.03,-18.96 -19.73,-12.53 -41.28,-23.83 -64.86,-26.26 -13.27,-1.63 -25.94,4.32 -39.19,3.69 -10.13,-0.52 -20.78,-1.02 -29.88,-5.94 -17.28,-8.89 -36.04,-15.3 -55.48,-16.99 -22.54,-2.19 -45.44,2.68 -65.72,12.52zm32.35 8.23l0 0c-20.28,6.65 -35.71,22.52 -48.83,38.69 -3.44,4.82 -8.48,9.53 -8.5,15.86 3.31,4.8 9.84,4.47 15.03,4.88 20.2,-0.07 39.93,-5.11 60.04,-6.27 17.95,-1.1 36.86,-1.2 53.42,6.84 18.85,9.2 36.1,21.7 51.15,36.31 14.97,15.8 29.91,32.33 48.84,43.49 6.94,0.8 14.06,1.51 21.03,0.43 16.26,-2.18 32.82,-1.39 48.95,1.45 15.77,-12.8 22.88,-32.7 36.68,-47.26 7.68,-8.49 16.79,-17.21 18.74,-29 0.65,-5.78 -5.26,-8.18 -8.98,-11.11 -6.5,-4.77 -10.1,-12.81 -17.4,-16.53 -5.85,-3.02 -12.28,-0.03 -17.87,2.04 2.47,3.82 5.11,7.72 5.99,12.28 4.04,19.06 -1.48,39.9 -14.25,54.59 -8.11,9.36 -20.18,15.43 -32.69,15.09 -23.31,-0.2 -44.61,-12.14 -62.57,-26.07 -16.56,-12.55 -28.85,-29.49 -43.44,-44.08 -17.59,-17.59 -36.48,-34.42 -58.61,-46.06 -14.18,-7.46 -31.25,-10.83 -46.73,-5.57zm-67.6 150.14l0 0c-20.26,13.59 -39.82,28.49 -56.93,45.95 -17.11,18.26 -29.54,40.17 -41.43,61.98 3.8,-15.95 12.36,-30.21 21.08,-43.91 -29.57,14.68 -55.49,39.95 -64.51,72.38 -4.76,18.79 -6.8,38.4 -5.16,57.75 1.8,20.34 10.96,39.91 26.13,53.68 -1.24,-21.98 -0.38,-44.9 8.43,-65.38 -6.58,23.58 -6.79,48.56 -2.96,72.63 2.94,13 5.89,26.45 13.64,37.58 14.69,21.68 35.95,37.95 57.93,51.68 22.97,13.43 49.03,23.16 75.92,22.91 13.75,0 27.81,-7.29 33.79,-20.03 7.46,-15.49 3.88,-33.58 -2.29,-48.87 -13.38,-32.09 -16.48,-67.3 -16.6,-101.74 1.2,-35.75 3.84,-72.48 18.26,-105.7 5,-13.57 11.76,-26.54 21.56,-37.27 -15.54,3.01 -29.88,10.8 -41.31,21.7 7.94,-13.29 22.22,-20.98 36.63,-25.29 -8.76,-0.2 -17.57,1.22 -25.59,4.79 -18.48,7.69 -32.42,22.66 -44.97,37.73 12.23,-18.81 28.03,-37.46 50.03,-44.66 17.83,-5.85 36.36,0.89 52.69,8.06 12.57,5.47 22.65,14.91 32.8,23.86 21.7,17.33 47.67,28.85 74.57,35.37 9.58,2.22 20.55,4.28 29.4,-1.32 14.42,-9.86 30.43,-17.01 46.39,-23.95 4.47,-1.79 9.27,-4.08 14.21,-2.73 14.76,3.57 26.83,13.6 41.04,18.58 6.62,2.42 11.66,-4.07 16.56,-7.44 13.2,-9.97 15.98,-27.27 18.02,-42.61 2.84,-15.93 -2.49,-32.27 -11.28,-45.48 -5.21,-8.35 -15.24,-11.04 -23.57,-15.14 -6.33,1.3 -12.67,2.5 -19.05,3.51 8.73,3.79 16.77,9.24 22.58,16.86 -2.08,7.95 -7.6,14.14 -13.94,19.08 -3.09,-3.79 -9.92,-13.12 -14.09,-6.24 0.86,4.4 3.72,8.5 3.41,13.09 -4.17,10.68 -13.82,17.97 -23.78,22.96 -8.53,-10.39 -20.93,-16.92 -34.01,-19.49 1.99,-5.59 6.71,-12.86 2.21,-18.26 -7.23,-4.22 -15.75,0.31 -22.92,2.62 -12.67,-7.2 -26,-13.58 -40.56,-15.79 3.84,-11.52 16.27,-15.17 26.32,-19.39 -19.25,-2.55 -36.89,7.55 -55.91,7.89 -20.04,0.48 -40.11,-1.87 -59.64,-6.27 -16.33,-3.5 -31.52,-11.28 -48.22,-13.38 -26.07,-4.3 -53.11,3.16 -74.88,17.7zm246.21 -0.67l0 0c-6.93,1.57 -13.51,4.45 -19.31,8.59 11.42,1.64 22.26,6.08 31.6,12.84 -2.04,-2.87 -3.93,-5.82 -6.24,-8.42 -2.38,-2.64 -6.79,-3.65 -7.1,-7.75 12.88,-6.14 26.92,-8.57 41.03,-9.75 -13.45,-0.16 -26.89,1.42 -39.98,4.49zm-454.87 13.13l0 0c3.79,11.55 13.06,20.12 21.48,28.47 6.87,-1.35 13.39,-5.81 16.28,-12.22l0.64 0.24c3.19,-5.59 5.69,-11.71 5.35,-18.27 -1.48,-2.27 -1.92,-5.89 -5.2,-6.11 -10.49,-2.76 -21.7,-5.96 -32.5,-3.17 -4.75,1.12 -7.84,6.4 -6.05,11.06zm285.07 64.03l0 0c-7.15,14.96 -13.31,30.51 -17.28,46.64 5.67,2.98 11.23,6.29 17.33,8.42 5.16,1.89 10.75,6.03 11.11,11.95 -2.3,9.36 -9.19,16.37 -14.75,23.9 7.32,2.28 16.26,0.44 22.43,5.62 5.11,10.68 -4.82,20.53 -8.03,30.27 6.59,0.55 14.03,-1.54 19.96,2.13 5.79,9.22 -1.46,19.54 -3.34,28.88 5.33,0.24 12.36,-2.33 16.45,2.25 4.07,8.76 -1.61,17.88 -2.81,26.67 4.77,-0.07 10.46,-1.9 14.57,1.37 3.19,4.82 -0.08,11.08 2.66,16.08 5.97,12.93 11.14,26.71 21.36,37.03 13.99,1.55 28.08,1.03 42.14,0.89 13.81,-0.85 28.04,-0.68 41.23,-5.46 16.18,-5.56 32.19,-11.73 47.6,-19.19 7.1,-3 10.61,-11.46 8.54,-18.73 -2.76,-10.92 -11.19,-19.1 -19.03,-26.64 -14.26,-12.54 -28.25,-25.43 -40.78,-39.71 -9.79,-10.75 -17.09,-23.76 -20.49,-37.93 -5.52,-18.67 -6.24,-38.76 -14.83,-56.44 -16.76,8.28 -20.45,28.01 -30.15,42.26 2.85,10.54 5.04,21.29 8.95,31.53 2.24,5.98 5.33,11.6 7.61,17.58 -11.97,-12.6 -13.89,-30.84 -19.44,-46.61 -3.65,-0.48 -7.65,-1.13 -9.76,-4.51 -6.85,-9.08 -8.89,-20.86 -9.36,-31.95 -0.39,-4.99 1.6,-10.59 -1.66,-14.93 -5.3,-8.76 -11.43,-17.08 -18.89,-24.1 -11.67,-12.21 -29.62,-16.55 -46.01,-15.57 -2.68,1.99 -3.69,5.5 -5.33,8.3zm61.78 12.29l0 0c3.94,5.28 7.83,10.61 11.73,15.94 1.3,-4.77 2.84,-9.44 4.57,-14.07 -2.72,-1.87 -5.43,-3.77 -8.09,-5.7 -2.76,1.26 -5.48,2.54 -8.21,3.83zm126.5 21.91l0 0c-2.76,1.71 -6.79,3.08 -6.5,7.06 -2.57,23.76 -3.48,48.86 5.83,71.38 8.26,20.11 25.88,35.04 45.34,43.87 14.04,-45.09 14.63,-93.36 7.49,-139.75 -3.92,-0.97 -8.14,-3.2 -12.12,-1.23 -13.69,5.43 -27.07,11.71 -40.04,18.67zm-108.98 31.16l0 0c1.83,5.35 4.37,11.21 10.05,13.43 6.65,-7.75 9.18,-17.92 14.5,-26.49 3.75,-6.82 9.17,-12.65 15.69,-16.95 -3.49,-1.26 -6.9,-2.61 -10.29,-4 -8.01,-3.5 -15.67,-7.71 -23.25,-12.05l0.05 -0.15c-1.02,-0.59 -3.06,-1.74 -4.08,-2.3 -6.87,15.08 -7.74,32.74 -2.67,48.51zm181.83 -38.04l0 0c3.83,11.88 0.76,24.7 4.27,36.59 12.74,-6.06 18.4,-20.16 22.87,-32.63 -8.77,6.57 -18.84,-0.08 -27.14,-3.96zm-131.98 11.25l0 0c6.81,16.16 8.2,33.87 12.77,50.69 4.91,-0.09 12.47,-0.02 12.93,6.57 2.55,8.05 -4.24,16.13 -0.65,23.89 3.41,-1.11 6.84,-2.23 10.23,-3.39 2.81,0.6 6.62,-0.26 8.38,2.65 4.36,7.46 1.39,16.26 1.8,24.35 4.62,-0.91 9.4,-3.59 14.17,-2.2 6,4.19 5.14,12.62 4.59,19.01 1.46,1.38 2.9,2.82 4.54,4.02 3.16,0.32 6.57,-1.05 9.55,0.39 3.72,2.86 3.45,8.09 3.77,12.33 5.62,6.48 10.58,13.69 12.64,22.16 8.89,-9.2 16.06,-20.06 19.61,-32.43 -20.27,-9.17 -41.08,-20.32 -53.3,-39.67 -16.59,-25.13 -16.3,-56.85 -12.8,-85.63 -3.52,1.37 -7.02,2.86 -10.72,3.6 -12.86,0.89 -25.37,-2.57 -37.51,-6.34zm-429.17 21.12l0 0c-2.61,2.45 -5.57,6.15 -4.05,9.96 2.06,5.55 8.04,7.88 12.9,10.44l-0.19 0.24c7.8,2.74 15.79,5.06 24.03,6.03 1.13,-1.33 2.28,-2.67 3.45,-3.99l-0.02 -0.28c6.41,-11.34 5.38,-28.85 -6.33,-36.42 -10.4,3.41 -21.37,6.68 -29.79,14.02zm276.94 24.43l0 0c1.85,2.52 3.81,4.99 5.87,7.37 3.36,-1.27 6.89,-1.94 10.52,-1.8 5.56,-7.48 12.77,-14.39 14.92,-23.74 -2.06,-4.26 -6.14,-7.26 -10.62,-8.58 -5.48,-1.83 -10.37,-4.98 -15.49,-7.57 -2.4,11.33 -3.93,22.82 -5.2,34.32zm-1.04 23.96l0 0c3.08,12.81 8.52,24.89 12.53,37.42 9.15,25.82 21.43,51.09 39.72,71.73 1.61,1.39 2.9,3.87 5.31,3.86 0.55,-2.33 1.03,-4.66 1.48,-7.01 -6.09,-5.9 -9.64,-13.96 -9.79,-22.44 -10.03,-5.49 -16.42,-16.91 -15.62,-28.32 -10.59,-6.86 -17.07,-20.11 -14.78,-32.68 -11.89,-7.54 -17.29,-23.16 -13.78,-36.58 -1.44,-1.66 -2.9,-3.33 -4.34,-4.97 -0.42,6.29 -1.74,12.68 -0.73,18.99zm8.72 -14.02l0 0c-4.93,12.1 1.07,27.6 12.31,34.08 3.48,-1.56 7.25,-2.11 11.08,-1.95 2.48,-9.13 10.52,-16.79 9.15,-26.75 -2.71,-3.72 -7.94,-3.39 -12,-4.01 -6.91,-0.34 -13.78,-4.59 -20.54,-1.37zm158.04 -1.78l0 0c1.91,6.91 4.27,13.71 7.56,20.09 1.38,-6.11 4.03,-13.17 0.41,-19 -2.48,-1.28 -5.31,-0.99 -7.97,-1.09zm13.74 29.74l0 0c4.78,5.9 9.8,11.6 15.01,17.13 0.72,-6.74 2.76,-15.14 -3.14,-20.27 -4.01,0.86 -7.98,1.87 -11.87,3.14zm-181.44 -1.61l0 0c-0.09,34.15 3.32,69.07 16.71,100.82 7.18,17.87 9.87,39.7 -1.12,56.65 8.7,5.42 17.82,10.13 27.36,13.9 -11.53,-14.16 -19.06,-33.8 -12.17,-51.73 -0.07,7.13 -1.2,14.43 0.77,21.43 3.6,12.92 11.73,24.06 20.88,33.65 18.5,17.6 45.16,24.91 70.27,22.59 32.25,-2.77 62.45,-16.34 89.97,-32.71 12.91,-7.49 24.57,-17.11 38.18,-23.38 11.48,-5.88 24.12,-8.93 35.98,-13.9 9.6,-4.05 16.85,-12.35 20.93,-21.81 3.82,-8.93 7.97,-18.7 6.19,-28.59 -1.82,-9.07 -10.3,-14.18 -17.71,-18.41 0.14,10.42 -0.79,21.46 -6.82,30.34 -8.23,-2.25 -17.57,-5.23 -25.65,-0.96 -6.22,3.22 -12.17,6.99 -18.89,9.12 -20.33,10.73 -41.9,19.25 -63.94,25.75 -23.3,3.89 -47.09,3.7 -70.65,2.96 4.46,3.38 9.02,7.34 14.73,8.33 10.33,1.39 20.84,0.45 31.18,1.91 -11.07,1.15 -22.17,2.98 -33.31,2.11 -5.67,-0.33 -11.36,-0.74 -17,-0.19 -5.8,3.41 -8.64,10.21 -14.49,13.63 -7.37,4.78 -18.81,6.6 -25.06,-0.93 -10.1,-11.88 -9.07,-28.49 -8.69,-43.08 -9.19,-8.5 -16.91,-18.48 -23.63,-29.01 -15.79,-24.05 -24.37,-51.66 -34.02,-78.49zm22.11 15.07l0 0c0.53,9.77 5.36,19.49 13.68,24.92 4.1,-2.64 8.93,-2.84 13.66,-2.67 1.37,-6.52 4.24,-12.57 5.59,-19.07 0.58,-3.32 -0.02,-8.36 -4.3,-8.6 -6.76,-0.67 -13.61,0.19 -20.37,-0.82 -3.98,-0.74 -8.31,1.97 -8.26,6.24zm181.16 10.16l0 0c3.98,4.15 7.98,8.32 12.43,11.97 0.55,-4.79 0.35,-10.37 -3.29,-13.97 -3.19,-0.18 -6.17,1.11 -9.14,2zm76.15 5.88l0 0c-4.23,5.98 -5.48,13.46 -8.19,20.16 -3.79,11.74 -10.92,22.17 -19.82,30.64 -3.12,2.4 -3.14,6.51 -4.11,9.99 6.15,-3.09 11.9,-7.03 18.37,-9.43 7.26,-2.24 14.88,-0.27 22.07,1.29 6.1,-14.37 5.76,-31.15 0.68,-45.77 -1.42,-3.52 -4.32,-9.42 -9,-6.88zm-518.62 36.24l0 0c-1.68,4 -0.69,9.48 3.62,11.37 7.63,3.5 16.3,1.42 24.12,-0.4 4.71,-0.29 9.06,-2.53 13.61,-3.75 3.6,-6.41 0.96,-13.53 -1.53,-19.8l-0.6 -0.26c-4.01,-7.22 -10.25,-13.69 -18.8,-14.88 -8.27,7.96 -16.44,16.75 -20.42,27.72zm276.53 -21.29l0 0c1,9.22 6.1,18 14.35,22.54 3.43,-2.23 7.46,-2.64 11.45,-2.67 0.76,-8.35 7.15,-16.97 2.86,-25.2 -6.61,-1.63 -13.5,0.19 -20.24,-0.38 -3.81,-0.7 -8.32,1.46 -8.42,5.71zm188.86 0.46l0 0c2.35,2.4 4.75,4.79 7.39,6.91 -0.84,-2.4 -1.71,-4.78 -2.64,-7.11 -1.18,0.05 -3.56,0.15 -4.75,0.2zm-172.69 26.88l0 0c-0.21,6.28 3.56,11.78 7.01,16.73 2.26,-4.57 3.72,-10.08 8.04,-13.21 3.32,-2.47 7.4,-0.84 11.06,-0.24 -0.79,-2.54 0.54,-7.15 -3.07,-7.65 -5.69,-0.51 -11.44,0.24 -17.15,0.14 -2.55,-0.12 -6.01,1.15 -5.89,4.23zm12.44 14.37l0 0c-5,16.05 -6.92,33.84 -1.95,50.12 2.18,6.78 7.39,15.35 15.75,13.58 10.5,-0.79 16.22,-10.46 22.7,-17.4 3.55,-0.34 7.13,-0.7 10.73,-0.77 -12.79,-8.01 -21.79,-20.76 -27.7,-34.42 -3.21,-5.99 -4.68,-13.1 -9.19,-18.26 -5.23,-3.31 -8.28,3.46 -10.34,7.15zm-210.73 36.17l0 0c-1.26,9.05 -1.53,18.38 0.15,27.4 0.99,4.95 3.55,10.73 9.14,11.65 4.99,-0.48 9.08,-3.63 12.78,-6.75 4.93,-3.76 8.37,-9.07 12.16,-13.89 -1.71,-1.13 -3.36,-2.23 -5.04,-3.34 -8.28,-6.14 -16.23,-12.72 -23.67,-19.89 -1.89,1.46 -5.27,1.99 -5.52,4.82zm-860.46 24.86l0 0c129.04,-25.37 258.06,-50.9 387.07,-76.41 5.76,-3.53 9.53,-9.7 14.45,-14.33 24.16,-25.89 48.16,-51.93 72.45,-77.71 18.5,0.14 37.01,-0.05 55.51,0.11 -71.4,143.96 -143.01,287.84 -214.56,431.74 38.55,-29.01 76.94,-58.22 115.47,-87.22 27.86,-21.64 57.36,-40.99 86.81,-60.35 88.75,-57.32 181,-109.49 277.25,-153.15 -2.55,-2.63 -5.05,-5.28 -7.5,-7.97 -10,0.87 -20.45,0.77 -29.61,-3.88 -102.05,47.18 -199.46,104.2 -292.03,167.93 -26.72,18.16 -52.09,38.18 -77.94,57.52 60.94,-123.64 122.64,-246.91 183.92,-370.37 -36.14,0.07 -72.31,-0.19 -108.45,0.12 -5.29,4.28 -9.42,9.89 -14.24,14.71 -24.46,26.31 -48.93,52.62 -73.43,78.9 -97.33,18.96 -194.55,38.52 -291.89,57.43 226.6,-212.76 452.99,-425.74 679.61,-638.45 54.3,-0.02 108.59,-0.05 162.88,0.02 -16.7,48.22 -33.22,96.5 -50.04,144.67 8.71,0.84 17.26,2.79 25.58,5.48 20.23,-58.66 40.52,-117.27 60.7,-175.93 -69.79,0.05 -139.59,0.06 -209.4,0 -250.95,235.62 -501.81,471.35 -752.61,707.14zm765.74 -665.95l0 0c-183,171.89 -365.95,343.83 -548.93,515.74 -30.1,28.51 -60.67,56.56 -90.48,85.37 79.8,-15.41 159.48,-31.49 239.26,-47.05 4.17,-0.57 6.33,-4.72 9.16,-7.36 27.25,-29.42 54.6,-58.75 81.92,-88.09 45.28,-0.12 90.55,-0.04 135.83,-0.04 -55.8,113.09 -112.46,225.77 -168.18,338.9 49.65,-35.87 100.91,-69.48 153.57,-100.77 54.72,-32.45 110.76,-62.74 168.56,-89.36 -2.45,-5.28 -5.14,-10.7 -5.19,-16.63 -0.43,-9.53 3.28,-18.64 8.13,-26.64 -9.79,-21.14 -17.35,-43.31 -21.84,-66.17 -7.03,-3.6 -13.99,-7.8 -18.93,-14.11 -7.88,-9.55 -9.08,-23.97 -2.86,-34.7 3.31,-6.2 8.69,-10.87 14.33,-14.9 2.52,-1.21 2.62,-4.08 2.74,-6.51 1.08,-22.13 5.03,-44.13 11.63,-65.28 -8.87,-11.95 -17.46,-27.09 -12.33,-42.36 3.58,-12.48 15.45,-20.38 27.84,-22.23 -2.08,-8.37 -2.38,-17.59 1.8,-25.41 7.83,-16.13 25.08,-24.43 34.7,-39.24 5.89,-9.17 11.74,-18.62 15.05,-29.08 2.38,-11.91 2.09,-24.53 7.52,-35.69 8.97,-21.63 30.45,-36.82 53.71,-38.81 14.9,-43.9 29.68,-87.84 44.52,-131.76 -45.22,0.04 -90.44,0.04 -135.65,0 -2.26,-0.24 -4.34,0.57 -5.88,2.18zm331.94 144.34l0 0c-33.93,-13.22 -73.01,-14.29 -106.61,0.52 -11.8,6.6 -25.84,2.05 -37.73,-1.96 -13.77,-4.64 -28.92,-1.87 -41.49,4.89 -12.62,-4.54 -25.39,-9.74 -39,-9.88 -25.11,-1.73 -50.21,14.9 -57.34,39.23 -4.05,11.38 -2.28,24 -7.08,35.16 -3.71,8.53 -8.35,16.64 -13.36,24.48 -5.98,9.27 -14.28,16.64 -22.4,23.96 -6.72,6.21 -13.58,13.51 -14.95,22.94 -1.18,8.01 2.74,15.51 6.91,22.05 -7.91,-0.31 -16.29,0.05 -23.3,4.11 -8.16,4.49 -12.72,14.43 -11.12,23.55 1.61,10.41 8.36,18.88 14.62,26.95 -8.23,24.82 -12.88,50.9 -13.08,77.06 -5.95,3.65 -12.04,7.47 -16.18,13.22 -4.89,6.56 -6.18,15.84 -2.39,23.23 4.39,9.05 13.8,13.92 22.61,17.72 4.56,25.3 12.91,49.78 24.11,72.89 -4.81,7.34 -9.3,15.43 -9.54,24.43 -0.1,8.97 5.66,17.43 13.89,20.93 7.89,3.69 16.78,2.51 25.18,1.97 2.13,-0.55 3.28,1.44 4.58,2.73 14.38,16.66 31.53,30.87 50.35,42.24 0.72,9.41 1.4,19.37 6.74,27.51 4.88,8.11 15.29,12.33 24.48,9.96 9.39,-2.38 16.69,-9.24 23.19,-16.06 3.87,0.82 7.8,1.63 11.33,3.53 21.7,11.76 45.84,19.75 70.65,20.74 13.88,0.95 27.7,-3.15 39.1,-11.05 8.76,5.23 18.14,9.2 27.7,12.7 7.25,3.89 13.13,9.99 20.68,13.49 25.06,13.51 55.08,14.85 82.42,8.45 35.09,-7.92 67.27,-25.32 96.7,-45.58 10.99,-7.47 23.32,-12.72 35.92,-16.8 11.33,-3.72 23.11,-7.99 31.51,-16.88 9.49,-10.15 15.08,-23.42 18.39,-36.78 2.85,-11.64 1.13,-24.85 -6.99,-34.04 -3.89,-5.25 -10.19,-7.87 -14.64,-12.41 -2.39,-9.6 -4.72,-20.23 -12.88,-26.75 -3.99,-3.63 -9.48,-4.2 -14.6,-4.35 3.8,-19.17 5.7,-38.66 6.15,-58.18 4.92,0.58 10.2,0.99 14.71,-1.6 10.73,-5.74 17.64,-16.47 22.85,-27.12 3.43,-6.43 3.38,-14.81 9.55,-19.54 12.89,-12.43 16.54,-30.82 18.72,-47.88 2.86,-16.3 -0.99,-33.19 -8.61,-47.69 -5.28,-10.46 -13.45,-19.53 -24.44,-24.07 1.3,-6.34 2.47,-12.82 1.71,-19.32 -0.46,-6.34 -2.9,-12.33 -3.68,-18.58 4.76,-10.05 10.18,-20.09 11.82,-31.22 1.08,-8.68 -3.51,-17.4 -10.85,-21.96 -9.46,-5.86 -14.33,-17.32 -25.04,-21.45 -8.45,-3.75 -17.93,-1.8 -26.28,1.19 -28.29,-20.57 -60.09,-39.86 -95.93,-41.76 -5.64,-5.16 -11.28,-10.32 -16.77,-15.64 -7.42,-7.66 -16.82,-15.01 -28.06,-14.65 -13.94,0.03 -24.83,10.57 -32.23,21.37zm246.6 286.72l0 0c-1.54,1.85 -3.41,3.56 -4.06,5.98 -3.26,10.3 -7.91,20.25 -14.66,28.73 -1.2,1.61 -2.68,3.14 -3.02,5.2l1.87 -1.61c15,-3.33 30.21,-5.83 45.33,-8.65 28.09,-4.73 56.12,-10.21 84.48,-13.15 -36.36,-7.21 -73.19,-11.82 -109.94,-16.5z"/>
   <path class="fil3" d="M1023.21 298.59c1.54,-1.61 3.62,-2.42 5.88,-2.18 45.21,0.04 90.43,0.04 135.65,0 -14.84,43.92 -29.62,87.86 -44.52,131.76 -23.26,1.99 -44.74,17.18 -53.71,38.81 -5.43,11.16 -5.14,23.78 -7.52,35.69 -3.31,10.46 -9.16,19.91 -15.05,29.08 -9.62,14.81 -26.87,23.11 -34.7,39.24 -4.18,7.82 -3.88,17.04 -1.8,25.41 -12.39,1.85 -24.26,9.75 -27.84,22.23 -5.13,15.27 3.46,30.41 12.33,42.36 -6.6,21.15 -10.55,43.15 -11.63,65.28 -0.12,2.43 -0.22,5.3 -2.74,6.51 -5.64,4.03 -11.02,8.7 -14.33,14.9 -6.22,10.73 -5.02,25.15 2.86,34.7 4.94,6.31 11.9,10.51 18.93,14.11 4.49,22.86 12.05,45.03 21.84,66.17 -4.85,8 -8.56,17.11 -8.13,26.64 0.05,5.93 2.74,11.35 5.19,16.63 -57.8,26.62 -113.84,56.91 -168.56,89.36 -52.66,31.29 -103.92,64.9 -153.57,100.77 55.72,-113.13 112.38,-225.81 168.18,-338.9 -45.28,0 -90.55,-0.08 -135.83,0.04 -27.32,29.34 -54.67,58.67 -81.92,88.09 -2.83,2.64 -4.99,6.79 -9.16,7.36 -79.78,15.56 -159.46,31.64 -239.26,47.05 29.81,-28.81 60.38,-56.86 90.48,-85.37 182.98,-171.91 365.93,-343.85 548.93,-515.74zm331.94 144.34l0 0c-33.93,-13.22 -73.01,-14.29 -106.61,0.52 -11.8,6.6 -25.84,2.05 -37.73,-1.96 -13.77,-4.64 -28.92,-1.87 -41.49,4.89 -12.62,-4.54 -25.39,-9.74 -39,-9.88 -25.11,-1.73 -50.21,14.9 -57.34,39.23 -4.05,11.38 -2.28,24 -7.08,35.16 -3.71,8.53 -8.35,16.64 -13.36,24.48 -5.98,9.27 -14.28,16.64 -22.4,23.96 -6.72,6.21 -13.58,13.51 -14.95,22.94 -1.18,8.01 2.74,15.51 6.91,22.05 -7.91,-0.31 -16.29,0.05 -23.3,4.11 -8.16,4.49 -12.72,14.43 -11.12,23.55 1.61,10.41 8.36,18.88 14.62,26.95 -8.23,24.82 -12.88,50.9 -13.08,77.06 -5.95,3.65 -12.04,7.47 -16.18,13.22 -4.89,6.56 -6.18,15.84 -2.39,23.23 4.39,9.05 13.8,13.92 22.61,17.72 4.56,25.3 12.91,49.78 24.11,72.89 -4.81,7.34 -9.3,15.43 -9.54,24.43 -0.1,8.97 5.66,17.43 13.89,20.93 7.89,3.69 16.78,2.51 25.18,1.97 2.13,-0.55 3.28,1.44 4.58,2.73 14.38,16.66 31.53,30.87 50.35,42.24 0.72,9.41 1.4,19.37 6.74,27.51 4.88,8.11 15.29,12.33 24.48,9.96 9.39,-2.38 16.69,-9.24 23.19,-16.06 3.87,0.82 7.8,1.63 11.33,3.53 21.7,11.76 45.84,19.75 70.65,20.74 13.88,0.95 27.7,-3.15 39.1,-11.05 8.76,5.23 18.14,9.2 27.7,12.7 7.25,3.89 13.13,9.99 20.68,13.49 25.06,13.51 55.08,14.85 82.42,8.45 35.09,-7.92 67.27,-25.32 96.7,-45.58 10.99,-7.47 23.32,-12.72 35.92,-16.8 11.33,-3.72 23.11,-7.99 31.51,-16.88 9.49,-10.15 15.08,-23.42 18.39,-36.78 2.85,-11.64 1.13,-24.85 -6.99,-34.04 -3.89,-5.25 -10.19,-7.87 -14.64,-12.41 -2.39,-9.6 -4.72,-20.23 -12.88,-26.75 -3.99,-3.63 -9.48,-4.2 -14.6,-4.35 3.8,-19.17 5.7,-38.66 6.15,-58.18 4.92,0.58 10.2,0.99 14.71,-1.6 10.73,-5.74 17.64,-16.47 22.85,-27.12 3.43,-6.43 3.38,-14.81 9.55,-19.54 12.89,-12.43 16.54,-30.82 18.72,-47.88 2.86,-16.3 -0.99,-33.19 -8.61,-47.69 -5.28,-10.46 -13.45,-19.53 -24.44,-24.07 1.3,-6.34 2.47,-12.82 1.71,-19.32 -0.46,-6.34 -2.9,-12.33 -3.68,-18.58 4.76,-10.05 10.18,-20.09 11.82,-31.22 1.08,-8.68 -3.51,-17.4 -10.85,-21.96 -9.46,-5.86 -14.33,-17.32 -25.04,-21.45 -8.45,-3.75 -17.93,-1.8 -26.28,1.19 -28.29,-20.57 -60.09,-39.86 -95.93,-41.76 -5.64,-5.16 -11.28,-10.32 -16.77,-15.64 -7.42,-7.66 -16.82,-15.01 -28.06,-14.65 -13.94,0.03 -24.83,10.57 -32.23,21.37zm25.87 -9.48l0 0c-10.07,3.98 -16.1,13.72 -21.55,22.53 -18.82,-7.82 -38.97,-13.25 -59.49,-12.62 -19.76,-0.26 -38.98,5.57 -56.74,13.77 -11.97,1.35 -24.17,-1.15 -35.37,-5.44 -12.87,-4.37 -26.72,-0.27 -37.98,6.41 -14.35,-5.46 -29.1,-11.91 -44.82,-10.81 -16.49,0.34 -32.45,10.3 -39.42,25.33 -6.79,12.81 -3.74,28.1 -9.52,41.23 -7.56,17.11 -17.12,33.89 -31.32,46.41 -6.84,6.7 -15.69,12.48 -18.8,22.01 -1.58,10.03 5.98,18.87 13.76,24.21 -2.19,3.49 -4.44,6.99 -6.75,10.4 -8.15,-1.47 -16.63,-2.55 -24.81,-0.84 -5.83,1.17 -10.71,6.45 -9.98,12.64 0.91,11.09 9.19,19.57 16.15,27.54 -10.01,27.76 -14.55,57.21 -14.91,86.66 -9,4.49 -22.12,10.75 -19.9,22.96 3.27,9.75 14.43,12.97 23.14,16.2 4.52,28.47 13.47,56.33 27.24,81.71 -5.01,7.14 -10.97,14.61 -11.18,23.76 -0.41,5.39 3.63,10.39 8.78,11.7 8.21,2.36 16.82,0.63 25.01,-0.98 16.7,20.55 36.98,38.16 60.1,51.15 0.14,8.21 0,16.74 3.16,24.48 2.07,5.03 6.85,9.59 12.7,8.76 10.34,-1.42 17.31,-10.16 23.71,-17.6 6.72,1.57 13.9,2.09 19.99,5.67 20.77,11.32 43.97,19.03 67.78,19.65 13.22,0.73 26.64,-3.98 35.81,-13.67 9.34,5.97 19.2,11.23 29.76,14.71 3.67,1.17 7.27,2.73 10.18,5.33 19.14,16.27 45.23,22.72 69.95,20.54 30.7,-2.5 59.65,-14.79 86.19,-29.84 17.56,-9.64 32.92,-23.11 51.79,-30.29 15.58,-6.62 34.87,-9.04 45.05,-24.18 7.7,-11.86 13.78,-26.12 12.09,-40.52 -1.73,-11.42 -12.31,-18.04 -21.79,-22.75 -1.34,-8.42 -2.3,-17.54 -7.8,-24.41 -2.73,-3.55 -8.5,-4.7 -11.9,-1.54 -3.68,3.75 -4.88,9.08 -6.6,13.86 -2.69,-1.09 -5.35,-2.17 -8,-3.25 13.97,-45.24 15.13,-93.57 8.12,-140.16 4.03,2.35 9.94,3.34 11.4,8.45 3.17,8.81 2.81,18.36 3.07,27.62 0.15,3.72 0.21,7.76 2.42,10.97 3.85,3.53 9.17,0.36 12.41,-2.49 9.39,-8.52 14.91,-20.49 18.14,-32.57 0.87,-4.96 5.91,-7.22 8.79,-10.89 9.79,-11 11.83,-26.17 13.85,-40.2 2.88,-17.57 -2.77,-35.77 -13.08,-50.02 -5.43,-7.49 -14.47,-10.76 -22.66,-14.25 1.9,-6.01 4.08,-12.05 4.37,-18.39 0.41,-9.5 -2.35,-18.75 -5.9,-27.45 2.64,-4.16 5.66,-8.22 6.84,-13.11 4.02,-6.26 8.11,-13.46 6.88,-21.17 -0.67,-5.3 -5.97,-7.71 -9.65,-10.73 -7.27,-5.23 -11.25,-14.42 -19.8,-17.9 -7.92,-3.09 -16.02,0.91 -23.32,3.76 -9.31,-7.24 -18.98,-13.99 -29.07,-20.03 -20.93,-12.48 -44.18,-23.35 -69.05,-23.16 -8.99,-7.68 -17.34,-16.06 -26.04,-24.05 -5.61,-5.28 -14.03,-8.13 -21.43,-5.11zm-413.81 52.68l0 0c-47.64,51.21 -95.28,102.4 -142.94,153.6 -14.04,15.48 -28.94,30.23 -42.39,46.22 34.23,0.17 68.46,-0.07 102.7,0.12 22.95,-45.09 44.98,-90.65 67.8,-135.82 16.3,-33.88 33.91,-67.12 49.88,-101.16 -12.27,11.76 -23.26,24.8 -35.05,37.04z"/>
   <path class="fil4" d="M1363.33 457.98c5.12,-8.36 10.9,-17.81 20.74,-21.03 7.94,-2.25 14.66,3.63 19.8,8.84 6.15,5.92 12.39,11.75 18.75,17.46 -19.52,5 -41.52,5.36 -59.29,-5.27zm-216.21 496.77l0 0c1.68,1.11 3.33,2.21 5.04,3.34 -3.79,4.82 -7.23,10.13 -12.16,13.89 -1.04,-0.19 -3.11,-0.55 -4.14,-0.72 4.04,-5.3 7.86,-10.77 11.26,-16.51zm181.54 -51.24l0 0c0.98,0.68 2.95,2.04 3.95,2.71 2.04,11.65 6.82,22.78 13.95,32.23 4.51,5.96 11.54,9.37 18.6,11.36 -6.48,6.94 -12.2,16.61 -22.7,17.4 -8.36,1.77 -13.57,-6.8 -15.75,-13.58 -4.97,-16.28 -3.05,-34.07 1.95,-50.12zm-272 -35.85l0 0c2,0.88 4.04,1.75 6.08,2.59l0.6 0.26c2.49,6.27 5.13,13.39 1.53,19.8 -4.55,1.22 -8.9,3.46 -13.61,3.75 -3.4,-0.32 -6.76,-0.72 -10.14,-1.11 6.54,-2.54 13.55,-4.56 19.02,-9.12 2.4,-5.52 -1.41,-11.16 -3.48,-16.17zm206.06 -51.92l0 0c-0.09,34.15 3.32,69.07 16.71,100.82 7.18,17.87 9.87,39.7 -1.12,56.65 8.7,5.42 17.82,10.13 27.36,13.9 -11.53,-14.16 -19.06,-33.8 -12.17,-51.73 -0.07,7.13 -1.2,14.43 0.77,21.43 3.6,12.92 11.73,24.06 20.88,33.65 18.5,17.6 45.16,24.91 70.27,22.59 32.25,-2.77 62.45,-16.34 89.97,-32.71 12.91,-7.49 24.57,-17.11 38.18,-23.38 11.48,-5.88 24.12,-8.93 35.98,-13.9 9.6,-4.05 16.85,-12.35 20.93,-21.81 3.82,-8.93 7.97,-18.7 6.19,-28.59 -1.82,-9.07 -10.3,-14.18 -17.71,-18.41 0.14,10.42 -0.79,21.46 -6.82,30.34 -8.23,-2.25 -17.57,-5.23 -25.65,-0.96 -6.22,3.22 -12.17,6.99 -18.89,9.12 -20.33,10.73 -41.9,19.25 -63.94,25.75 -23.3,3.89 -47.09,3.7 -70.65,2.96 4.46,3.38 9.02,7.34 14.73,8.33 10.33,1.39 20.84,0.45 31.18,1.91 -11.07,1.15 -22.17,2.98 -33.31,2.11 -5.67,-0.33 -11.36,-0.74 -17,-0.19 -5.8,3.41 -8.64,10.21 -14.49,13.63 -7.37,4.78 -18.81,6.6 -25.06,-0.93 -10.1,-11.88 -9.07,-28.49 -8.69,-43.08 -9.19,-8.5 -16.91,-18.48 -23.63,-29.01 -15.79,-24.05 -24.37,-51.66 -34.02,-78.49zm-245.72 -41.14l0 0c6.52,-2.39 5.15,-10.63 6.5,-16.12 -0.27,6.31 -0.17,12.65 0.38,18.94l0.02 0.28c-1.17,1.32 -2.32,2.66 -3.45,3.99 -8.24,-0.97 -16.23,-3.29 -24.03,-6.03l0.19 -0.24c0.63,-0.79 1.9,-2.38 2.55,-3.19 5.85,1.17 11.83,3.41 17.84,2.37zm437.44 -34.36l0 0c3.7,-0.74 7.2,-2.23 10.72,-3.6 -3.5,28.78 -3.79,60.5 12.8,85.63 12.22,19.35 33.03,30.5 53.3,39.67 -3.55,12.37 -10.72,23.23 -19.61,32.43 -2.06,-8.47 -7.02,-15.68 -12.64,-22.16 -0.32,-4.24 -0.05,-9.47 -3.77,-12.33 -2.98,-1.44 -6.39,-0.07 -9.55,-0.39 -1.64,-1.2 -3.08,-2.64 -4.54,-4.02 0.55,-6.39 1.41,-14.82 -4.59,-19.01 -4.77,-1.39 -9.55,1.29 -14.17,2.2 -0.41,-8.09 2.56,-16.89 -1.8,-24.35 -1.76,-2.91 -5.57,-2.05 -8.38,-2.65 -3.77,-8.68 -6.87,-17.74 -7.85,-27.21 -2.07,-14.33 0.46,-28.75 3.03,-42.82 2.34,-0.46 4.7,-0.89 7.05,-1.39zm-76.63 25.78l0 0c-8.33,-15.67 -8.9,-34.56 -4.03,-51.39 7.58,4.34 15.24,8.55 23.25,12.05 -15.04,6.53 -18.4,24.7 -19.22,39.34zm-357.75 -143.86l0 0c8.17,1.22 17.31,1.3 23.84,7.13 0.64,0.05 1.92,0.16 2.56,0.23 0.34,6.56 -2.16,12.68 -5.35,18.27l-0.64 -0.24c-0.8,-0.31 -2.41,-0.93 -3.24,-1.23 1.79,-4.72 5.15,-10.6 1.77,-15.3 -5.28,-4.74 -12.58,-6.12 -18.94,-8.86zm258.91 -153.46l0 0c-20.28,6.65 -35.71,22.52 -48.83,38.69 -3.44,4.82 -8.48,9.53 -8.5,15.86 3.31,4.8 9.84,4.47 15.03,4.88 20.2,-0.07 39.93,-5.11 60.04,-6.27 17.95,-1.1 36.86,-1.2 53.42,6.84 18.85,9.2 36.1,21.7 51.15,36.31 14.97,15.8 29.91,32.33 48.84,43.49 6.94,0.8 14.06,1.51 21.03,0.43 16.26,-2.18 32.82,-1.39 48.95,1.45 15.77,-12.8 22.88,-32.7 36.68,-47.26 7.68,-8.49 16.79,-17.21 18.74,-29 0.65,-5.78 -5.26,-8.18 -8.98,-11.11 -6.5,-4.77 -10.1,-12.81 -17.4,-16.53 -5.85,-3.02 -12.28,-0.03 -17.87,2.04 2.47,3.82 5.11,7.72 5.99,12.28 4.04,19.06 -1.48,39.9 -14.25,54.59 -8.11,9.36 -20.18,15.43 -32.69,15.09 -23.31,-0.2 -44.61,-12.14 -62.57,-26.07 -16.56,-12.55 -28.85,-29.49 -43.44,-44.08 -17.59,-17.59 -36.48,-34.42 -58.61,-46.06 -14.18,-7.46 -31.25,-10.83 -46.73,-5.57zm-32.35 -8.23l0 0c-6.47,2.86 -13.8,0.58 -20.59,0.39 -10.63,-0.48 -19.94,-7.09 -30.65,-6.75 -7.27,0.03 -14.09,2.86 -20.47,6.07 5.84,2.84 11.93,5.19 17.64,8.31 -11.09,-2.69 -22.25,-5.28 -32.83,-9.65 -12.57,-4.82 -26.13,-9.41 -39.74,-6.86 -13.51,1.99 -25.51,11.35 -31.04,23.78 -5.64,11.88 -3.31,25.61 -8.06,37.73 -4.08,10.82 -9.99,20.85 -16.22,30.55 -7.27,11.37 -17.81,20.01 -27.49,29.18 -3.66,3.8 -8.18,8.36 -7.08,14.14 2.21,7.44 8,13.46 14.93,16.77 11,5.29 23.35,7.23 35.47,7.75 16.16,0.47 31.09,-6.52 46.23,-11.2 8.54,-3.14 17.81,-4.97 25.37,-10.23 6.1,-5.87 9.58,-13.87 12.7,-21.6 8.93,-20.92 1.08,-45.38 12.72,-65.54 -2.22,9.6 -3.99,19.32 -4.44,29.16 -0.68,8.26 0.24,16.63 -1.38,24.81 -2.17,11.12 -6.09,22.11 -12.64,31.45 -5.62,8.49 -16.3,10.63 -25.25,13.89 -18,5.42 -35.64,14.11 -54.88,13.25 -13.95,22.42 -20.7,48.38 -23.86,74.38 -3.58,28.46 -5.54,58.78 6.05,85.79 2.11,-15.23 5.66,-30.48 13.36,-43.92 13.66,-24.9 36.75,-43.63 62.31,-55.34 4.41,-1.82 6.52,-6.43 9.67,-9.7 15.94,-17.99 35.07,-32.8 54.64,-46.6 13.37,-9.58 28.13,-17.62 44.21,-21.56 23.19,-6.28 47.72,-2.61 70.08,5.21 -0.77,-1.07 -2.3,-3.21 -3.07,-4.27 -7.66,-7.46 -15.6,-14.61 -23.62,-21.65 -4.86,-4 -6.13,-10.51 -5.59,-16.49 0.1,-9.49 5.36,-17.68 10.01,-25.58 -18.4,-1.94 -37.32,2.65 -55.34,-2.76 -6.14,-1.77 -13.41,-1.27 -18.38,-5.85 -3.37,-3.77 -2.04,-9.38 0.45,-13.27 5.45,-8.64 12.34,-16.26 19.22,-23.79 12.77,-13.13 28.39,-24.98 46.97,-27.79 18.22,-3 36.38,3.93 51.63,13.44 27.98,17.5 51.05,41.54 72.71,66.16 8.84,9.25 18.01,18.71 29.53,24.65 8.51,0.66 16.31,4.44 24.59,6.15 10.66,2.61 21.75,2.97 32.65,1.99 9.23,-0.81 17.44,-5.4 25.94,-8.67l1.15 -0.45c7.03,-9.57 9.91,-21.7 10.2,-33.41 -0.38,-7.01 -0.91,-15.24 -6.65,-20.13 -8.21,-6.92 -17.08,-13.06 -26.03,-18.96 -19.73,-12.53 -41.28,-23.83 -64.86,-26.26 -13.27,-1.63 -25.94,4.32 -39.19,3.69 -10.13,-0.52 -20.78,-1.02 -29.88,-5.94 -17.28,-8.89 -36.04,-15.3 -55.48,-16.99 -22.54,-2.19 -45.44,2.68 -65.72,12.52z"/>
   <path class="fil5" d="M1376.25 616.08c-6.55,-15.28 -2.35,-34.53 11.3,-44.49 4.13,3.19 8.19,6.5 12.62,9.33 -9.74,9.03 -13.86,22.88 -10.43,35.76 -4.51,-0.06 -9.01,-0.21 -13.49,-0.6zm-112.59 187.33l0 0c-1.01,-6.31 0.31,-12.7 0.73,-18.99 1.44,1.64 2.9,3.31 4.34,4.97 -3.51,13.42 1.89,29.04 13.78,36.58 -2.29,12.57 4.19,25.82 14.78,32.68 -0.8,11.41 5.59,22.83 15.62,28.32 0.15,8.48 3.7,16.54 9.79,22.44 -0.45,2.35 -0.93,4.68 -1.48,7.01 -2.41,0.01 -3.7,-2.47 -5.31,-3.86 -18.29,-20.64 -30.57,-45.91 -39.72,-71.73 -4.01,-12.53 -9.45,-24.61 -12.53,-37.42zm85.9 -95.79l0 0c2.73,-1.29 5.45,-2.57 8.21,-3.83 2.66,1.93 5.37,3.83 8.09,5.7 -1.73,4.63 -3.27,9.3 -4.57,14.07 -3.9,-5.33 -7.79,-10.66 -11.73,-15.94zm-61.78 -12.29l0 0c-7.15,14.96 -13.31,30.51 -17.28,46.64 5.67,2.98 11.23,6.29 17.33,8.42 5.16,1.89 10.75,6.03 11.11,11.95 -2.3,9.36 -9.19,16.37 -14.75,23.9 7.32,2.28 16.26,0.44 22.43,5.62 5.11,10.68 -4.82,20.53 -8.03,30.27 6.59,0.55 14.03,-1.54 19.96,2.13 5.79,9.22 -1.46,19.54 -3.34,28.88 5.33,0.24 12.36,-2.33 16.45,2.25 4.07,8.76 -1.61,17.88 -2.81,26.67 4.77,-0.07 10.46,-1.9 14.57,1.37 3.19,4.82 -0.08,11.08 2.66,16.08 5.97,12.93 11.14,26.71 21.36,37.03 13.99,1.55 28.08,1.03 42.14,0.89 13.81,-0.85 28.04,-0.68 41.23,-5.46 16.18,-5.56 32.19,-11.73 47.6,-19.19 7.1,-3 10.61,-11.46 8.54,-18.73 -2.76,-10.92 -11.19,-19.1 -19.03,-26.64 -14.26,-12.54 -28.25,-25.43 -40.78,-39.71 -9.79,-10.75 -17.09,-23.76 -20.49,-37.93 -5.52,-18.67 -6.24,-38.76 -14.83,-56.44 -16.76,8.28 -20.45,28.01 -30.15,42.26 2.85,10.54 5.04,21.29 8.95,31.53 2.24,5.98 5.33,11.6 7.61,17.58 -11.97,-12.6 -13.89,-30.84 -19.44,-46.61 -3.65,-0.48 -7.65,-1.13 -9.76,-4.51 -6.85,-9.08 -8.89,-20.86 -9.36,-31.95 -0.39,-4.99 1.6,-10.59 -1.66,-14.93 -5.3,-8.76 -11.43,-17.08 -18.89,-24.1 -11.67,-12.21 -29.62,-16.55 -46.01,-15.57 -2.68,1.99 -3.69,5.5 -5.33,8.3zm252.27 -98.54l0 0c2.32,-2.42 4.41,-5.04 6.53,-7.61 2.92,8.26 3.21,19.51 -4.3,25.44 -0.57,-5.97 -1.1,-11.95 -2.23,-17.83z"/>
  </g>
 </g>
</svg>
