<?xml version="1.0" encoding="UTF-8"?>
<!DOCTYPE svg PUBLIC "-//W3C//DTD SVG 1.1//EN" "http://www.w3.org/Graphics/SVG/1.1/DTD/svg11.dtd">
<!-- Creator: CorelDRAW -->
<svg xmlns="http://www.w3.org/2000/svg" xml:space="preserve" width="2000px" height="1600px" version="1.1" style="shape-rendering:geometricPrecision; text-rendering:geometricPrecision; image-rendering:optimizeQuality; fill-rule:evenodd; clip-rule:evenodd"
viewBox="0 0 2000 1600"
 xmlns:xlink="http://www.w3.org/1999/xlink">
 <defs>
  <style type="text/css">
   <![CDATA[
    .fil0 {fill:#032B54}
   ]]>
  </style>
 </defs>
 <g id="Capa_x0020_1">
  <metadata id="CorelCorpID_0Corel-Layer"/>
  <path id="Notre_x0020_Dame_x0020_Fighting_x0020_Irish.cdr" class="fil0" d="M426.45 101.69c-0.45,-11.22 9.51,-22.21 20.96,-21.6 88.06,0.04 176.11,0 264.16,0.02 7.78,0.12 15.77,-0.79 23.33,1.59 10.77,3.09 19.93,10.78 25.28,20.59 48.83,81.32 97.87,162.5 146.49,243.94 1.47,2.08 2.57,5.75 5.94,5 136.53,0.05 273.08,0 409.63,0.02 -0.26,-13.84 0.61,-27.7 -0.44,-41.49 -0.99,-10.63 -10.76,-19.07 -21.32,-19.09 -24.89,-0.5 -49.81,0.02 -74.71,-0.21 -11.45,0 -20.63,-11.58 -19.82,-22.68 0.07,-55.3 0,-110.6 0.03,-165.91 -0.47,-10.77 8.69,-21.66 19.75,-21.74 143.4,-0.09 286.8,0.05 430.22,-0.07 11.95,-1 22.68,9.94 22.16,21.77 0.1,55.25 -0.02,110.51 0.05,165.74 0.86,11.27 -8.27,22.65 -19.8,22.86 -24.96,0.28 -49.9,-0.3 -74.84,0.26 -11.46,0 -21.65,10 -21.55,21.5 -0.36,13.02 -0.03,26.04 -0.1,39.06 35.23,-0.02 70.45,0.03 105.7,-0.02 8.81,0.07 18,0.49 26.13,4.37 8.3,3.79 14.45,10.8 20.83,17.11 37.8,37.82 75.64,75.64 113.44,113.46 11.61,10.94 24.84,23.65 24.33,41 -0.03,181.54 -0.03,363.11 -0.03,544.66 0.17,11.57 -5.77,22.39 -13.79,30.41 -41.35,41.33 -82.67,82.65 -124,124 -6.36,6.31 -12.5,13.28 -20.8,17.06 -8.86,4.21 -18.89,4.35 -28.49,4.37 -34.39,-0.16 -68.77,0.19 -103.13,-0.16 -0.49,84.03 -0.05,168.08 -0.23,252.14 -0.05,11.66 -11.32,20.94 -22.68,20.31 -60.07,-0.02 -120.14,0.05 -180.21,-0.05 -8.32,0.24 -16.55,-4.3 -20.36,-11.75 -52.06,-86.82 -104.06,-173.65 -156.07,-260.46 -133.4,-0.1 -266.79,-0.03 -400.19,-0.05 0.14,13.63 -0.28,27.28 0.16,40.91 0.52,11.4 11.11,20.96 22.51,20.4 24.27,0.17 48.53,-0.05 72.79,0.07 11.57,-0.19 21.25,10.68 20.78,22.04 0.07,55.4 0.09,110.82 0,166.24 0.72,12.57 -10.85,23.42 -23.26,22.65 -138.72,0.02 -277.42,-0.02 -416.15,0.02 -6.83,-0.21 -14.12,0.87 -20.45,-2.26 -7.79,-3.51 -12.63,-11.97 -12.25,-20.41 0,-55.42 0.02,-110.84 -0.03,-166.26 -0.67,-11.52 9.45,-22.28 21.04,-22.02 24.17,-0.12 48.36,0.07 72.53,-0.05 11.03,0.5 21.83,-8.5 22.11,-19.77 0.17,-13.86 0,-27.72 0.03,-41.56 -123.54,-0.05 -247.04,0.12 -370.58,-0.09 -12.13,0.79 -23.86,-9.14 -23.72,-21.55 -0.24,-59.23 -0.12,-118.46 -0.05,-177.69 -0.63,-12.72 11.06,-24.03 23.77,-22.77 17.16,-0.09 34.34,0.33 51.47,-0.14 11.76,-0.84 20.24,-12.37 19.33,-23.8 0.03,-134.75 0.03,-269.52 0,-404.28 0.89,-11.4 -7.52,-23.06 -19.3,-23.84 -18.47,-0.61 -36.96,0.21 -55.42,-0.32 -11.27,-0.66 -20.22,-11.32 -19.85,-22.42 -0.16,-58.53 -0.05,-117.06 -0.07,-175.59 -0.28,-8.04 3.51,-16.38 10.61,-20.47 6.78,-4.12 15.06,-3.35 22.63,-3.48 120.4,0.07 240.8,0.07 361.22,0 -0.11,-13.77 0.1,-27.56 -0.07,-41.35 -0.56,-11.15 -11.33,-19.57 -22.18,-19.24 -24.17,-0.33 -48.34,-0.05 -72.53,-0.12 -11.9,0.56 -21.92,-11.12 -20.97,-22.74 0.05,-55.37 0,-110.72 0.03,-166.07zm55.54 495.6l0 0c-0.03,134.8 -0.03,269.59 0,404.39 -0.8,11.34 7.78,22.72 19.33,23.73 13.6,0.49 27.2,0.02 40.83,0.19 0,-150.77 0,-301.53 -0.02,-452.29 -13.63,0.16 -27.26,-0.31 -40.88,0.18 -11.57,0.94 -20.08,12.51 -19.26,23.8zm561.26 -23.96l0 0c84.59,140.78 169.27,281.52 253.77,422.35 3.72,5.09 5.94,13.23 13.18,14.11 7.27,1.43 12.72,-6.21 12.02,-12.9 0.11,-141.18 0.02,-282.38 0.02,-423.56 -92.98,-0.02 -185.99,-0.05 -278.99,0zm518.62 0l0 0c-0.02,150.74 -0.02,301.5 0,452.24 21.25,0.03 42.5,0 63.77,0.05 11.71,0.7 22.65,-9.77 22.11,-21.57 0,-136.37 0,-272.71 0,-409.05 0.61,-11.83 -10.28,-22.39 -22.04,-21.72 -21.27,0.05 -42.57,0.03 -63.84,0.05zm-774.64 36l0 0c-4,2.19 -5.03,7.03 -4.91,11.24 0,135.01 0,269.99 0,405 89.03,0.05 178.09,0 267.12,0.03 -82.42,-137.3 -164.65,-274.7 -247.02,-412.02 -2.66,-5.45 -10.1,-8.13 -15.19,-4.25z"/>
 </g>
</svg>
