<?xml version="1.0" encoding="UTF-8"?>
<!DOCTYPE svg PUBLIC "-//W3C//DTD SVG 1.1//EN" "http://www.w3.org/Graphics/SVG/1.1/DTD/svg11.dtd">
<!-- Creator: CorelDRAW -->
<svg xmlns="http://www.w3.org/2000/svg" xml:space="preserve" width="2000px" height="1600px" version="1.1" style="shape-rendering:geometricPrecision; text-rendering:geometricPrecision; image-rendering:optimizeQuality; fill-rule:evenodd; clip-rule:evenodd"
viewBox="0 0 2000 1600"
 xmlns:xlink="http://www.w3.org/1999/xlink">
 <defs>
  <style type="text/css">
   <![CDATA[
    .fil1 {fill:#006E50}
    .fil2 {fill:#080909}
    .fil3 {fill:#DFB986}
    .fil0 {fill:#FEFEFE}
   ]]>
  </style>
 </defs>
 <g id="Capa_x0020_1">
  <metadata id="CorelCorpID_0Corel-Layer"/>
  <g id="Ohio_x0020_Bobcats.cdr">
   <path class="fil0" d="M1176.08 896.65c6.23,-4.76 14.9,-6.27 22.2,-9.48 0.42,16.69 -4.84,37.28 -22.27,43.61 1.65,-11.35 1,-22.76 0.07,-34.13zm-227.78 464.3l0 0c-3.46,-26.99 1.7,-54.58 10.44,-80.1 1.88,24.87 5.67,50.93 19.81,72.1 5.32,7.98 12.66,14.44 21.12,18.9 4.02,-6.88 7.74,-13.92 11.53,-20.94 4.16,5.32 8.23,10.76 12.28,16.17 4.78,-6.92 8.2,-14.87 13.76,-21.22 5.16,5.46 9.71,11.49 14.71,17.13 5.88,-6.85 11.72,-13.78 17.83,-20.43 5.28,7.37 10.28,14.95 15.81,22.15 29.4,-15.62 39.63,-51.67 38.82,-82.84 9.55,18.18 14.92,38.82 14.36,59.39 -0.81,20.78 -9.81,41.72 -26.45,54.67 -31.34,-8.65 -65.46,-14.99 -97.23,-5.02 -12,3.79 -23.5,9.09 -34.17,15.69 -19.55,-6.16 -30.13,-26.5 -32.62,-45.65zm30.69 -143.49l0 0c41.3,-18.44 85.96,-28.46 130.56,-34.89 25.71,10.81 51,22.68 76.64,33.75 -0.77,21.15 -16.22,38.72 -34.17,48.32 2.53,-12.36 4.16,-25.47 -0.32,-37.63 -3.52,-11.34 -11.63,-20.76 -21.3,-27.38 -5.92,2.65 -11.78,5.46 -17.5,8.51 -6.76,-4.65 -13.41,-9.42 -20.06,-14.18 -5.09,6.11 -10.09,12.29 -15.2,18.38 -6.49,-4.02 -12.93,-8.06 -19.46,-12.01 -5.46,7.46 -10.85,14.97 -16.27,22.5 -6.6,-4.09 -13.06,-8.37 -19.53,-12.65 -16.15,19.09 -16.45,45.89 -17.87,69.62 -16.11,-9.93 -31.47,-25.22 -32.38,-45.24 0.18,-6.09 -0.74,-15.2 6.86,-17.1zm-106.02 -283.57l0 0c9.32,1.28 18.66,2.51 28.01,3.77 3.85,13.69 9.74,26.71 16.69,39.12 -21.48,-4.53 -39.26,-21.62 -44.7,-42.89z"/>
   <path class="fil1" d="M1383.01 157.47c22.94,-17.93 54.76,-19.09 81.82,-11.25 70.89,22.75 142.26,44.81 210.32,75.29 53,20.01 95.14,65.06 114.5,117.97 5.16,14.87 8.6,30.49 8.83,46.28 -0.02,223.94 -0.04,447.88 0,671.82 0.98,32.49 -14.03,64.92 -38.93,85.73 -19.04,16.66 -48.19,24.33 -71.29,11.62 -74.39,-40.29 -154.02,-71.22 -236.91,-88.61 6.27,-86.17 -20.32,-174.29 -73.97,-242.1 -14.55,-18.85 -31.22,-35.93 -48.79,-51.97 26.29,-20.55 48.44,-46.63 63.06,-76.73 36.33,-8.95 60,-48.03 56.74,-84.31 -0.53,-7.42 -4.44,-17.72 -13.53,-16.76 -13.1,0.93 -18.75,14.99 -30.17,19.45 -16.2,7.65 -34.59,2.63 -51.09,-1.23 -0.7,-129.1 -0.05,-258.25 -0.32,-387.35 -0.68,-25.41 9.22,-52.05 29.73,-67.85zm-261.58 -71.57l0 0c64.74,4.6 129.15,13.5 192.96,25.36 0.04,162.55 -0.07,325.1 0.04,487.65 -26.57,-7.88 -54.46,-13.55 -82.26,-10.41 -25.06,2.37 -49,11.06 -71.53,21.92 -11.76,-10.05 -25.15,-18.06 -39.23,-24.41 0.07,-166.71 0.04,-333.43 0.02,-500.11zm-231.26 -3.89l0 0c64.27,-2.97 128.73,-2.72 192.95,1.21 -0.04,123.34 0,246.65 -0.02,369.99 -0.23,40.61 0.46,81.24 -0.35,121.83 -38.19,-6.39 -77.5,0.56 -113.43,14.08 -25.46,-8.41 -52.31,-12.8 -79.15,-12.08 -0.28,-30.69 0.51,-61.39 -0.4,-92.03 -21.15,1.79 -42.42,2.26 -63.55,4.42 0.07,31.59 -0.02,63.15 0.05,94.74 -23.34,5.35 -46.17,12.86 -68.11,22.41 -39.59,-15.64 -82.4,-22.06 -124.85,-21.41 -0.04,-157.83 0.07,-315.66 -0.04,-473.5 63.76,-12.22 128.24,-20.68 192.97,-25.8 0,69.04 0.03,138.08 -0.02,207.11 21.32,-1.09 42.61,-2.85 63.95,-3.71 0,-69.09 0,-138.17 0,-207.26zm-404.84 62.95l0 0c25.81,-6.93 55.63,-5.55 77.71,10.76 20.53,14.76 30.87,40.33 31.34,65.07 0.02,123.8 0,247.6 0,371.4 -17.88,5.28 -34.99,12.76 -52.7,18.51 -20.85,6.88 -43.44,9.9 -65.16,5.62 -11.43,-4.3 -21.31,-13.97 -34.19,-13.69 -8.3,0.88 -9.13,11.18 -8.07,17.69 3.79,24.15 17.23,47.68 38.66,60.25 14.78,8.81 32.36,11.13 49.3,10.69 14.44,24.32 37.59,41.66 61.14,56.46 -52.14,47.82 -95.66,105.23 -126.29,169.06 -24.06,49.54 -38.17,103.19 -48.75,157.02 40.12,-32.8 79.59,-67.34 125.83,-91.39 -20.55,29.31 -38.89,60.18 -53.77,92.76 -62.29,21.48 -121.47,50.82 -180.89,79.11 -16.62,8.04 -32.96,17.64 -51.58,20.17 -25.64,4.93 -54.6,0 -73.94,-18.5 -15.32,-14.09 -22.83,-34.73 -24.73,-55.07l0 -720.87c2.69,-26.57 12.08,-52.2 26.08,-74.87 22.17,-36.1 55.32,-66.13 95.07,-81.52 69.69,-31.29 142.09,-55.93 214.94,-78.66zm-111.71 223.69l0 0c-20.18,6.9 -30.8,29.61 -31.45,49.76 0,161.97 0.02,323.95 -0.02,485.91 -0.05,10.63 3.78,22.88 13.83,28.06 7.36,4.23 16.55,1.44 23.03,-3.14 14.83,-11.11 22.36,-29.94 22.43,-48.14 0,-160.41 0,-320.82 0,-481.26 -0.16,-9.46 -2.28,-19.73 -9.34,-26.57 -4.65,-4.86 -12.06,-6.72 -18.48,-4.62zm1187.05 -0.84l0 0c-10.83,5.37 -14.53,18.43 -14.44,29.66 0.05,158.88 0.02,317.76 0.02,476.61 0.14,15.72 6.35,31.83 18.44,42.19 6.95,5.91 17.2,9 25.73,4.56 10.88,-5.7 14.97,-18.97 15.11,-30.48 0,-157.29 -0.02,-314.59 0.02,-471.87 0.03,-16.15 -6.44,-32.35 -17.92,-43.74 -7,-6.46 -17.69,-11.65 -26.96,-6.93z"/>
   <path class="fil2" d="M969.69 610.04c32.24,-13.24 67.62,-20.96 102.53,-16.75 32.01,3.6 63.11,17.73 85.52,41.12 26.92,-15.63 57.39,-25.78 88.61,-27.08 26.5,-0.68 52.6,6.04 77.22,15.36 24.36,8.9 50.3,18.2 76.59,13.62 12.81,-2.23 23.27,-10.62 31.61,-20.15 -4.09,19.01 -10.71,39.1 -26.43,51.74 -7.32,6.21 -16.94,8.67 -26.38,8.83 -16.57,39.27 -47.67,70.37 -81.61,95.17 39.7,30.75 73.43,69.52 96.81,114.06 19.78,37.84 33.66,79.45 36.17,122.27 -21.27,-25.76 -47.12,-49.77 -79.61,-59.97 34.47,34.05 54.04,81.75 56.06,129.96 116.95,16.78 227.94,63.74 327.55,126.31 32.26,20.74 64.34,42.1 93.91,66.6 -84.33,-55.6 -176.59,-99.28 -273.11,-129.13 -99.53,-30.26 -205.5,-45.28 -309.08,-30.19 50.48,1.63 100.39,11.3 149.37,23.22 94.26,23.76 185.38,60.14 269.78,108.34 67.43,38.85 130.87,85.34 185.56,140.82l0 0.86c-18.13,-15.41 -37.65,-29.19 -57.13,-42.84 -79.45,-54.55 -165.16,-100.23 -255.37,-134.24 -96.98,-36.35 -200.05,-58.92 -303.93,-57.97 204.74,43.03 392.63,155.28 534.59,307.93 -48.05,-43.52 -99.82,-82.83 -154.44,-117.69 -75.69,-48.54 -156.76,-88.87 -241.82,-118.23 -1.88,37.68 -7.53,75.15 -16.06,111.9 -9.72,39.96 -23.2,79.73 -46.42,114.02 -17.01,-30.89 -36.91,-60.39 -61.41,-85.87 -24.88,-25.29 -54.23,-47.95 -88.78,-57.9 5.28,29.08 4.28,60.74 -9.92,87.31 -3.6,7.2 -10.11,13.02 -11.25,21.34 -7.72,36.21 -28.11,71.13 -60.39,90.47 -31.57,19.03 -70.78,20.08 -105.86,11.78 -31.12,-7.48 -59.23,-26.17 -78.34,-51.83 -28.26,-37.24 -40.12,-84.2 -43.86,-130.13 -45.49,7.07 -85.19,34.77 -115.08,68.78 -30.38,34.24 -52.75,74.83 -70.62,116.78 -37.12,-35.77 -66.83,-79.8 -83.4,-128.8 -13.88,-40.93 -17.76,-84.96 -13.02,-127.84 -80.13,31.31 -155.49,74.8 -221.97,129.38 5.49,-6.74 11.42,-13.11 17.62,-19.2 55.58,-53.49 122.41,-94.14 192.4,-125.92 96.4,-43.47 200.07,-69.29 304.81,-82.33 34.89,-4.75 70.08,-6.3 105.09,-9.56 -55.27,-5.13 -110.76,-9.6 -166.32,-8.11 -113.29,1.79 -226.33,19.62 -334.61,53.05 -77.91,24.17 -153.76,56.02 -223.71,98.18 81.55,-59.74 174.69,-102.46 271.25,-131.56 120.08,-35.96 245.74,-51.61 370.92,-51.31 25.75,0.28 51.49,1.93 77.22,2.77 -31.96,-10.86 -64.3,-20.87 -97.68,-26.45 -79.01,-14.14 -160.11,-12.25 -239.42,-1.44 -123.06,17.29 -243.02,54.16 -356.25,105.02 71.99,-40.84 147.95,-74.8 226.27,-101.61 20.38,-47.21 47.74,-91.37 80.82,-130.73 5.55,-6.74 11.97,-12.76 17.11,-19.82 -21.02,1.72 -40.85,9.83 -59.58,19.01 -33.12,16.23 -62.99,38.12 -91.82,60.95 25.55,-109.07 90.91,-207.11 177.03,-277.94 -26.01,-13.39 -51.36,-29.38 -70.57,-51.79 -5.71,-6.58 -9.71,-14.41 -13.01,-22.41 -18.23,2.77 -38.2,2.12 -54.05,-8.37 -13.71,-8.67 -21.13,-23.91 -25.61,-38.98 4.41,5.12 9.67,9.77 16.38,11.46 17.09,4.72 35.29,4.51 52.61,1.14 26.66,-5.32 50.25,-20.06 76.75,-25.94 25.17,-6.18 51.4,-5.25 76.99,-2.65 28.08,2.88 55.65,10.09 81.68,20.99 65.09,-30.1 142.28,-43.44 211.09,-17.81zm19.69 345.45l0 0c29.1,-8.84 59.2,-14.25 89.58,-15.74 16.97,-1.25 34.01,-0.33 51,-0.84 -19.06,-14.48 -43.68,-19.8 -67.25,-19.62 -28.15,0.38 -56.78,12.88 -73.33,36.2zm28.52 -322.08l0 0c1.58,2.02 3.34,3.95 5.51,5.39 23.03,16.29 42.7,37.12 58.57,60.39 32.17,47.65 48.45,104.76 51.98,161.81 -8.97,-29.36 -18.67,-58.7 -32.71,-86.1 -21.71,-44.21 -51.83,-86.26 -94.28,-112.6 -25.08,-15.69 -54.3,-23.62 -83.54,-26.59 -37.26,-3.88 -76.48,3.65 -107.65,25.06 66.93,52.58 108.79,131.77 127.95,213.62 -9.37,-23.02 -19.95,-45.56 -32.57,-66.97 -31.48,-53.95 -73.92,-103.19 -128.73,-134.29 -50.49,-29.01 -111.09,-38.75 -168.34,-29.24 -15.95,3.25 -31.1,9.46 -46.17,15.48 45.05,5.58 89.84,23.5 121.88,56.42 -25.41,15.38 -49.17,33.56 -70.06,54.67 -40.03,41.51 -69.99,94.32 -78.53,151.81 53.1,-26.73 113.79,-35.59 172.74,-33.22 -77.66,41.47 -142.93,109.58 -171.55,193.77 107.48,-28.87 220.99,-41.65 331.38,-23.15 21.27,-21.22 45.82,-39.47 73.31,-51.81 -2.97,-8.79 -6.18,-17.48 -9.18,-26.27 -36.68,18.32 -82.05,11.02 -115.43,-11.16 -34.59,-22.8 -61.93,-55.53 -82.66,-91.12 15.48,12.6 34.26,20.34 53.28,25.87 51.34,14.42 105.34,14.32 158.2,11.88 7.44,27.36 15.25,54.63 22.92,81.94 16.74,-4.28 35.36,-2.93 50.35,6.09 15.94,9.23 26.45,25.48 32.68,42.45 36.68,-9.23 75.59,-15.48 113.09,-7.37 0.65,-13.32 -0.79,-27.11 -6.98,-39.1 -6.36,-13.23 -17.96,-23.36 -31.24,-29.31 11.39,-0.51 22.5,3.04 32.03,9.18 -9.39,-30.52 -18.36,-61.13 -27.75,-91.63 42.96,-12.09 88.12,-23.15 124.22,-50.75 -6.09,27.29 -13.41,55.19 -29.4,78.53 -12.88,18.59 -35.75,27.43 -57.74,28.12 2.76,11.88 5.43,23.76 8.11,35.66 16.94,2.39 33.75,7.28 48.51,16.11 28.75,16.73 48.19,45.86 59.04,76.73 14.3,-0.49 28.64,-0.4 42.96,-0.47 -3.53,-17.45 -8.49,-34.61 -14.34,-51.41 15.73,3.62 28.75,14.06 39.07,26.08 -4.72,-25.76 -12.99,-50.79 -23.43,-74.78 -16.53,-37.08 -39.38,-71.97 -70.15,-98.72 40.26,7.2 75.82,29.12 109.9,50.65 -12.62,-32.08 -30.24,-62.13 -50.67,-89.87 -27.29,-36.28 -61.07,-68.66 -101.75,-89.49 32.8,-36.68 76.99,-61.9 123.99,-75.57 -7.16,-3.76 -14.97,-5.99 -22.24,-9.48 -24.41,-10.67 -48.77,-24.27 -76.09,-24.83 -35.54,-0.65 -70.52,10.09 -101.6,26.83 -17.25,-15.32 -37.45,-27.9 -59.92,-33.71 -22.06,-5.76 -45.89,-4.23 -66.97,4.47zm158.18 263.24l0 0c0.93,11.37 1.58,22.78 -0.07,34.13 17.43,-6.33 22.69,-26.92 22.27,-43.61 -7.3,3.21 -15.97,4.72 -22.2,9.48zm-303.11 37.24l0 0c5.44,21.27 23.22,38.36 44.7,42.89 -6.95,-12.41 -12.84,-25.43 -16.69,-39.12 -9.35,-1.26 -18.69,-2.49 -28.01,-3.77zm306.97 65.83l0 0c6.34,12.16 10.3,25.48 12.04,39.08 0.53,4.92 1.81,10.2 -0.3,14.97 -13.21,34.98 -36.87,67.29 -70.27,85.21 0.09,10.83 0.02,21.69 0.07,32.54 34.79,12.93 69.66,25.74 104.46,38.68 7.6,-7.13 14.39,-15.08 20.71,-23.36 -19.36,-2.65 -38.63,-5.95 -58.09,-7.78 8.51,-11.11 10.62,-25.11 15.39,-37.92 6.56,-18.45 8.62,-38.05 10.51,-57.41 12.94,-3.28 26.19,-5.11 39.4,-7.02 -10.39,-35.73 -38.54,-65.32 -73.92,-76.99zm-236.68 42.84l0 0c-10.44,7.88 -21.97,14.97 -29.89,25.59 28.98,7.63 57.67,17.32 84.03,31.76 -4.84,28.12 -3.75,57.76 7.13,84.42 -38.42,-0.11 -76.84,2.05 -115.13,5.12 1.84,14.15 11.02,27.43 24.52,32.61 58.23,-29.26 122.62,-43.45 186.4,-54.72 1.31,-9.55 2.56,-19.08 3.86,-28.61 -24.03,-18.95 -44.95,-41.82 -62.06,-67.18 -2.95,-6.77 -3.63,-14.34 -6.93,-20.99 -6.53,-15.44 -19.64,-30.52 -37.52,-31.31 -20.89,-1.51 -38.21,12.11 -54.41,23.31zm35.73 174.9l0 0c-7.6,1.9 -6.68,11.01 -6.86,17.1 0.91,20.02 16.27,35.31 32.38,45.24 1.42,-23.73 1.72,-50.53 17.87,-69.62 6.47,4.28 12.93,8.56 19.53,12.65 5.42,-7.53 10.81,-15.04 16.27,-22.5 6.53,3.95 12.97,7.99 19.46,12.01 5.11,-6.09 10.11,-12.27 15.2,-18.38 6.65,4.76 13.3,9.53 20.06,14.18 5.72,-3.05 11.58,-5.86 17.5,-8.51 9.67,6.62 17.78,16.04 21.3,27.38 4.48,12.16 2.85,25.27 0.32,37.63 17.95,-9.6 33.4,-27.17 34.17,-48.32 -25.64,-11.07 -50.93,-22.94 -76.64,-33.75 -44.6,6.43 -89.26,16.45 -130.56,34.89zm-267.09 -1.98l0 0c-8.97,38.03 -2.39,81.45 24.92,110.72 3.4,-38.96 20.34,-80.73 56.72,-99.63 0.25,20.43 3.53,41.93 16.04,58.74 10.25,14.55 26.19,23.8 42.81,29.36 0.26,-14.28 2.47,-28.92 9.14,-41.68 3,42.3 9.46,85.15 26.89,124.15 12.23,27.36 30.85,52.77 56.54,68.83 27.77,17.53 62.66,23.13 94.6,15.73 32.33,-7.34 59.35,-31.79 72.85,-61.69 -6.53,-7.04 -17.36,-9.18 -26.52,-11.66 -17.57,-3.63 -35.7,-4.8 -53.56,-3.19 -13.41,1.44 -25.2,8.34 -36.21,15.62 -10.35,7.07 -24.04,8.44 -35.59,3.56 -18.57,-7.56 -33.84,-22.69 -41.7,-41.12 -12.25,-27.97 -16.74,-58.47 -21.04,-88.45 -2.21,-14.34 -2.76,-29.17 -8.32,-42.77 -8.21,-20.57 -18.41,-40.24 -28.57,-59.9 -49.97,5.3 -100.04,11.81 -149,23.38zm521.34 26.85l0 0c8.92,8.86 15.57,19.76 19.99,31.5 8.74,23.22 11.46,48.28 11.32,72.94 12.78,-10.79 21.78,-25.55 27.13,-41.28 8.76,-26.04 6.74,-54.33 -0.1,-80.55 20.51,10.53 29.29,33.38 37.89,53.35 5,-22.71 8.28,-45.75 10.37,-68.88 -20.9,-4.83 -41,-12.59 -62.09,-16.73 -7.53,21.85 -24.91,38.28 -44.51,49.65zm-607.3 -3.12l0 0c5.4,18.02 12.81,35.64 23.62,51.1 0.49,-21.34 4.67,-42.54 13.02,-62.23 -12.28,3.51 -24.53,7.11 -36.64,11.13zm322.36 121.74l0 0c2.49,19.15 13.07,39.49 32.62,45.65 10.67,-6.6 22.17,-11.9 34.17,-15.69 31.77,-9.97 65.89,-3.63 97.23,5.02 16.64,-12.95 25.64,-33.89 26.45,-54.67 0.56,-20.57 -4.81,-41.21 -14.36,-59.39 0.81,31.17 -9.42,67.22 -38.82,82.84 -5.53,-7.2 -10.53,-14.78 -15.81,-22.15 -6.11,6.65 -11.95,13.58 -17.83,20.43 -5,-5.64 -9.55,-11.67 -14.71,-17.13 -5.56,6.35 -8.98,14.3 -13.76,21.22 -4.05,-5.41 -8.12,-10.85 -12.28,-16.17 -3.79,7.02 -7.51,14.06 -11.53,20.94 -8.46,-4.46 -15.8,-10.92 -21.12,-18.9 -14.14,-21.17 -17.93,-47.23 -19.81,-72.1 -8.74,25.52 -13.9,53.11 -10.44,80.1z"/>
   <path class="fil3" d="M1017.9 633.41c21.08,-8.7 44.91,-10.23 66.97,-4.47 22.47,5.81 42.67,18.39 59.92,33.71 31.08,-16.74 66.06,-27.48 101.6,-26.83 27.32,0.56 51.68,14.16 76.09,24.83 7.27,3.49 15.08,5.72 22.24,9.48 -47,13.67 -91.19,38.89 -123.99,75.57 40.68,20.83 74.46,53.21 101.75,89.49 20.43,27.74 38.05,57.79 50.67,89.87 -34.08,-21.53 -69.64,-43.45 -109.9,-50.65 30.77,26.75 53.62,61.64 70.15,98.72 10.44,23.99 18.71,49.02 23.43,74.78 -10.32,-12.02 -23.34,-22.46 -39.07,-26.08 5.85,16.8 10.81,33.96 14.34,51.41 -14.32,0.07 -28.66,-0.02 -42.96,0.47 -10.85,-30.87 -30.29,-60 -59.04,-76.73 -14.76,-8.83 -31.57,-13.72 -48.51,-16.11 -2.68,-11.9 -5.35,-23.78 -8.11,-35.66 21.99,-0.69 44.86,-9.53 57.74,-28.12 15.99,-23.34 23.31,-51.24 29.4,-78.53 -36.1,27.6 -81.26,38.66 -124.22,50.75 9.39,30.5 18.36,61.11 27.75,91.63 -9.53,-6.14 -20.64,-9.69 -32.03,-9.18 13.28,5.95 24.88,16.08 31.24,29.31 6.19,11.99 7.63,25.78 6.98,39.1 -37.5,-8.11 -76.41,-1.86 -113.09,7.37 -6.23,-16.97 -16.74,-33.22 -32.68,-42.45 -14.99,-9.02 -33.61,-10.37 -50.35,-6.09 -7.67,-27.31 -15.48,-54.58 -22.92,-81.94 -52.86,2.44 -106.86,2.54 -158.2,-11.88 -19.02,-5.53 -37.8,-13.27 -53.28,-25.87 20.73,35.59 48.07,68.32 82.66,91.12 33.38,22.18 78.75,29.48 115.43,11.16 3,8.79 6.21,17.48 9.18,26.27 -27.49,12.34 -52.04,30.59 -73.31,51.81 -110.39,-18.5 -223.9,-5.72 -331.38,23.15 28.62,-84.19 93.89,-152.3 171.55,-193.77 -58.95,-2.37 -119.64,6.49 -172.74,33.22 8.54,-57.49 38.5,-110.3 78.53,-151.81 20.89,-21.11 44.65,-39.29 70.06,-54.67 -32.04,-32.92 -76.83,-50.84 -121.88,-56.42 15.07,-6.02 30.22,-12.23 46.17,-15.48 57.25,-9.51 117.85,0.23 168.34,29.24 54.81,31.1 97.25,80.34 128.73,134.29 12.62,21.41 23.2,43.95 32.57,66.97 -19.16,-81.85 -61.02,-161.04 -127.95,-213.62 31.17,-21.41 70.39,-28.94 107.65,-25.06 29.24,2.97 58.46,10.9 83.54,26.59 42.45,26.34 72.57,68.39 94.28,112.6 14.04,27.4 23.74,56.74 32.71,86.1 -3.53,-57.05 -19.81,-114.16 -51.98,-161.81 -15.87,-23.27 -35.54,-44.1 -58.57,-60.39 -2.17,-1.44 -3.93,-3.37 -5.51,-5.39zm-391.96 605.8l0 0c12.11,-4.02 24.36,-7.62 36.64,-11.13 -8.35,19.69 -12.53,40.89 -13.02,62.23 -10.81,-15.46 -18.22,-33.08 -23.62,-51.1zm607.3 3.12l0 0c19.6,-11.37 36.98,-27.8 44.51,-49.65 21.09,4.14 41.19,11.9 62.09,16.73 -2.09,23.13 -5.37,46.17 -10.37,68.88 -8.6,-19.97 -17.38,-42.82 -37.89,-53.35 6.84,26.22 8.86,54.51 0.1,80.55 -5.35,15.73 -14.35,30.49 -27.13,41.28 0.14,-24.66 -2.58,-49.72 -11.32,-72.94 -4.42,-11.74 -11.07,-22.64 -19.99,-31.5zm-521.34 -26.85l0 0c48.96,-11.57 99.03,-18.08 149,-23.38 10.16,19.66 20.36,39.33 28.57,59.9 5.56,13.6 6.11,28.43 8.32,42.77 4.3,29.98 8.79,60.48 21.04,88.45 7.86,18.43 23.13,33.56 41.7,41.12 11.55,4.88 25.24,3.51 35.59,-3.56 11.01,-7.28 22.8,-14.18 36.21,-15.62 17.86,-1.61 35.99,-0.44 53.56,3.19 9.16,2.48 19.99,4.62 26.52,11.66 -13.5,29.9 -40.52,54.35 -72.85,61.69 -31.94,7.4 -66.83,1.8 -94.6,-15.73 -25.69,-16.06 -44.31,-41.47 -56.54,-68.83 -17.43,-39 -23.89,-81.85 -26.89,-124.15 -6.67,12.76 -8.88,27.4 -9.14,41.68 -16.62,-5.56 -32.56,-14.81 -42.81,-29.36 -12.51,-16.81 -15.79,-38.31 -16.04,-58.74 -36.38,18.9 -53.32,60.67 -56.72,99.63 -27.31,-29.27 -33.89,-72.69 -24.92,-110.72zm231.36 -172.92l0 0c-10.44,7.88 -21.97,14.97 -29.89,25.59 28.98,7.63 57.67,17.32 84.03,31.76 -4.84,28.12 -3.75,57.76 7.13,84.42 -38.42,-0.11 -76.84,2.05 -115.13,5.12 1.84,14.15 11.02,27.43 24.52,32.61 58.23,-29.26 122.62,-43.45 186.4,-54.72 1.31,-9.55 2.56,-19.08 3.86,-28.61 -24.03,-18.95 -44.95,-41.82 -62.06,-67.18 -2.95,-6.77 -3.63,-14.34 -6.93,-20.99 -6.53,-15.44 -19.64,-30.52 -37.52,-31.31 -20.89,-1.51 -38.21,12.11 -54.41,23.31zm236.68 -42.84l0 0c6.34,12.16 10.3,25.48 12.04,39.08 0.53,4.92 1.81,10.2 -0.3,14.97 -13.21,34.98 -36.87,67.29 -70.27,85.21 0.09,10.83 0.02,21.69 0.07,32.54 34.79,12.93 69.66,25.74 104.46,38.68 7.6,-7.13 14.39,-15.08 20.71,-23.36 -19.36,-2.65 -38.63,-5.95 -58.09,-7.78 8.51,-11.11 10.62,-25.11 15.39,-37.92 6.56,-18.45 8.62,-38.05 10.51,-57.41 12.94,-3.28 26.19,-5.11 39.4,-7.02 -10.39,-35.73 -38.54,-65.32 -73.92,-76.99zm-190.56 -44.23l0 0c29.1,-8.84 59.2,-14.25 89.58,-15.74 16.97,-1.25 34.01,-0.33 51,-0.84 -19.06,-14.48 -43.68,-19.8 -67.25,-19.62 -28.15,0.38 -56.78,12.88 -73.33,36.2z"/>
  </g>
 </g>
</svg>
