<?xml version="1.0" encoding="UTF-8"?>
<!DOCTYPE svg PUBLIC "-//W3C//DTD SVG 1.1//EN" "http://www.w3.org/Graphics/SVG/1.1/DTD/svg11.dtd">
<!-- Creator: CorelDRAW -->
<svg xmlns="http://www.w3.org/2000/svg" xml:space="preserve" width="2000px" height="1600px" version="1.1" style="shape-rendering:geometricPrecision; text-rendering:geometricPrecision; image-rendering:optimizeQuality; fill-rule:evenodd; clip-rule:evenodd"
viewBox="0 0 2000 1600"
 xmlns:xlink="http://www.w3.org/1999/xlink">
 <defs>
  <style type="text/css">
   <![CDATA[
    .fil0 {fill:black}
    .fil1 {fill:#FF7300}
   ]]>
  </style>
 </defs>
 <g id="Capa_x0020_1">
  <metadata id="CorelCorpID_0Corel-Layer"/>
  <g id="Oklahoma_x0020_State_x0020_Cowboys.cdr">
   <path class="fil0" d="M1280.44 333.82c53.2,39.37 106.37,78.77 159.67,118.02 -1.74,7.9 -5.14,15.3 -7.28,23.08 155.73,0.32 311.46,-0.18 467.17,0.27l0 1.69c-58.48,166.16 -116.46,332.49 -174.87,498.69 -8.15,24.37 -20.23,47.53 -36.55,67.44 -29.07,36.4 -71.67,60.58 -116.91,70.42 -37.01,8.7 -75.25,6.21 -112.93,6.57 -71.9,-0.15 -143.83,0.27 -215.7,-0.2 -12.81,-7.51 -24.59,-16.75 -37.19,-24.63 -26.7,51.57 -65.1,97.88 -114.14,129.51 -38.99,25.3 -84.89,39.49 -131.28,41.5l-255.16 0c-56.51,-44.05 -113.1,-87.98 -169.55,-132.09 2.88,-7.7 6.18,-15.25 8.84,-23.05 -39.78,-0.78 -79.58,-0.11 -119.37,-0.33 -108.39,0 -216.79,-0.03 -325.19,0.02l0 -0.71c52.42,-164.06 105.25,-327.97 157.82,-491.96 11.33,-37.18 36.25,-69.38 67.54,-92.04 39.33,-28.32 86.91,-43.76 134.82,-48.97 19.74,-2.29 39.65,-1.73 59.48,-1.78 89.07,0 178.12,0 267.19,0 24.41,-34.84 53.89,-66.34 88.54,-91.14 40.02,-29.04 88.01,-48.31 137.73,-50.31l267.32 0z"/>
   <path class="fil1" d="M410.18 599.3c17.84,-11.07 38.65,-18.22 59.81,-17.77 81.29,-0.02 162.58,0.01 243.87,-0.04 2.19,-0.24 4.15,0.67 5.85,1.93 21.17,14.43 42.56,28.6 63.13,43.86 -2.92,10.34 -7.07,20.26 -10.65,30.38 -23.21,62.71 -45.61,125.72 -68.55,188.53 -7.6,21.65 -23.69,39.5 -42.65,51.99 -17.42,11.1 -37.26,18.16 -57.6,21.55 -20.01,2.85 -40.27,1.59 -60.41,1.59 -59.16,0.04 -118.33,-0.01 -177.49,0.04 -3.74,0.46 -6.64,-2.13 -9.58,-3.95 -21.66,-14.7 -42.86,-30.08 -64.38,-45 -1.59,-1.26 -3.53,-2.29 -4.43,-4.16 0.71,-4.51 2.36,-8.79 3.86,-13.07 21.01,-60.39 41.43,-120.99 62.73,-181.26 10.14,-30 29.27,-57.8 56.49,-74.62zm895.09 75.35l0 0c7.9,-1.61 16.06,-0.92 24.09,-1.21 33.11,0.06 66.27,-0.88 99.37,0.53 -8.96,28.48 -19.46,56.49 -29.03,84.79 -21.02,60.53 -42.12,121.04 -63.24,181.54 -1.96,6.02 -5.14,11.76 -5.43,18.22 40.38,0.33 80.75,0.18 121.13,0.13 14.33,0.07 29.13,-4.2 39.8,-14.1 13.38,-11.6 19.21,-28.97 24.96,-45.14 25.59,-75.17 51.98,-150.06 77.98,-225.08 19.24,-1.28 38.55,-0.51 57.85,-0.89 22.23,0.18 44.47,-0.27 66.7,0.84 -30.12,87.3 -60.8,174.39 -91.46,261.49 -7.73,22.53 -21.43,43.58 -41.5,56.9 -24.14,16.5 -54.24,21.19 -82.94,20.68 -75.53,-0.15 -151.1,0.26 -226.62,-0.22 -25.4,-15.83 -49.98,-33.11 -74.3,-50.62 9.8,-30.17 21.1,-59.85 31.7,-89.75 23.94,-65.94 46.62,-132.35 70.94,-198.11zm-324.83 -230.14l0 0c-32.85,12 -59.87,35.9 -81.22,63.08 -29.76,37.89 -49.92,82.27 -66.61,127.19 -13.74,38.26 -27.31,76.56 -40.7,114.94 74.31,57.78 149.15,114.88 223.19,173.01 -6.11,19.35 -13.42,38.27 -20.21,57.39 -7.75,20.4 -14.38,41.26 -22.88,61.38 -19.14,0.8 -38.32,0.68 -57.48,0.99 -27.11,-0.33 -54.28,0.75 -81.36,-0.94 9.19,-27.32 20.81,-53.82 29.63,-81.28 -205.03,-0.38 -410.07,-0.01 -615.1,-0.18 -2.87,-0.61 -5.34,0.88 -5.71,3.89 -5.26,16.4 -10.37,32.84 -15.31,49.35 116.48,0.03 232.97,0 349.45,0.02 39.96,0.2 79.96,-0.42 119.91,0.31 -10.83,30.21 -21.93,60.36 -33.15,90.45 8.35,6.83 17.27,12.92 26.02,19.23 17.93,12.62 35.1,26.38 53.42,38.42 52.95,0.61 105.97,0.08 158.95,0.26 26.8,-0.36 53.93,1.8 80.44,-3.4 25.48,-4.79 49.29,-16.72 69.54,-32.73 17.99,-14.13 32.6,-32.08 45.33,-50.98 15.29,-22.98 26.9,-48.28 35.15,-74.59 17.27,-52.62 36.45,-104.61 53.47,-157.3 -72.1,-58.78 -144.18,-117.56 -216.41,-176.19 6.9,-19.16 13.75,-38.35 20.98,-57.4 6.07,-16.04 11.38,-32.38 18.05,-48.19 0.8,-3.63 5.26,-2.39 7.95,-2.74 43.93,0.5 87.92,-0.7 131.82,0.62 -0.83,3.3 -1.69,6.61 -2.95,9.78 -7.35,18.25 -14.12,36.73 -21.22,55.08 -1.39,3.52 -2.49,7.14 -3.35,10.82 168.73,0.13 337.47,0.02 506.2,0.05 35.47,-0.25 70.94,0.5 106.4,-0.38 6.71,-17.55 14.61,-34.68 20.67,-52.48 -20.74,-0.94 -41.56,-0.06 -62.31,-0.4 -135.84,-0.29 -271.66,0.24 -407.49,-0.26 10.64,-30.24 21.51,-60.42 32.22,-90.63 -23.22,-18.42 -46.5,-36.76 -69.68,-55.23 -67.91,0.03 -135.83,0.08 -203.74,-0.02 -20.95,-0.71 -42.2,1.71 -61.91,9.06zm13.64 -80.06l0 0c-39.87,5.57 -77.05,23.66 -108.83,47.91 -33.1,24.95 -60.59,56.67 -83.05,91.36 -47.12,-0.23 -94.23,0.22 -141.35,0.14 -56.47,0 -112.94,-0.37 -169.41,-0.11 -49.82,1.18 -100.29,13.58 -142.29,41.08 -30.65,19.91 -55.61,50 -65.33,85.62 -47.82,148.91 -95.5,297.91 -143.36,446.78 -0.18,1.3 -0.55,3.87 -0.73,5.16 50.34,0.62 100.69,0.1 151.02,0.27 98.44,0.05 196.89,-0.08 295.33,0.07 -4.05,14.61 -11.29,28.1 -15.94,42.52 48.53,37.72 97.02,75.48 145.49,113.27 70.76,0.03 141.52,-0.05 212.27,0.03 12.21,0.62 24.4,0.04 36.55,-1.21 44.56,-1.99 87.99,-18.3 123.91,-44.56 41.21,-29.92 73.03,-71.43 95.52,-116.86 3.92,-7.41 6.39,-15.49 10.64,-22.74 18.11,12.08 35.9,24.65 54.06,36.66 1.71,1.3 3.77,1.79 5.93,1.64 87.46,-0.08 174.92,-0.01 262.38,-0.05 36.42,-0.53 73.39,-8.44 104.95,-27.2 26.24,-15.43 47.76,-38.41 62.28,-65.1 9.57,-17.19 15.36,-36.07 22.05,-54.48 45,-129.14 90.53,-258.09 135.58,-387.23 6.08,-17.8 12.93,-35.33 18.35,-53.35 -7.7,-0.73 -15.41,-0.3 -23.11,-0.38 -76.31,-0.02 -152.62,0 -228.94,0 -71.9,-0.22 -143.8,0.41 -215.68,-0.33 4.64,-13.51 9.45,-26.98 14.33,-40.42 -44.06,-33.23 -88.64,-65.79 -133.07,-98.56 -1.76,-1.06 -3.45,-2.8 -5.67,-2.55 -67.5,-0.07 -135.01,0 -202.51,-0.03 -23.81,0.08 -47.75,-0.67 -71.37,2.65zm-5.71 22.11l0 0c-27.41,5.35 -53.27,17.12 -76.48,32.49 -34.67,23.29 -63.97,54.13 -87.06,88.84 -3.87,5.5 -6.37,12.11 -11.13,16.92 -104.09,0.23 -208.17,0.03 -312.26,0.1 -28.6,-0.68 -57.28,3.43 -84.72,11.44 -37.66,11.42 -74.31,32.19 -96.59,65.52 -12.31,17.67 -17.3,38.85 -23.9,59.01 -22.07,68.17 -43.95,136.38 -65.77,204.63 -1.89,5.73 -3.98,11.45 -4.63,17.49 18.07,12.82 37.4,23.79 55.2,36.94 -22.61,0.22 -45.23,0.07 -67.86,0.09 -14.26,42.78 -27.62,85.88 -41.59,128.78 -1.42,4.24 -2.63,8.55 -3.63,12.91 149.74,0.15 299.48,-0.11 449.21,0.13 -6.51,19.07 -14.65,37.53 -21.74,56.38 42.32,32.78 84.46,65.78 126.77,98.57 70.74,-0.03 141.48,-0.01 212.2,-0.01 16.06,-0.08 32.25,0.56 48.14,-2.23 18.5,-2.83 36.65,-8.06 53.75,-15.67 48.21,-21.3 86.75,-60.54 113.63,-105.3 14.31,-22.84 24.53,-47.86 33.89,-73.04 25.1,16.1 49,34.09 74.34,49.82 82.85,0.54 165.77,0.06 248.65,0.23 27.59,0.31 55.57,-3.27 81.34,-13.54 28.38,-10.8 53.65,-30.29 70.19,-55.87 15.34,-23.01 22.81,-49.89 32.2,-75.61 44.88,-128.25 89.73,-256.51 134.69,-384.75 1.83,-5.22 3.99,-10.43 4.4,-16.01 -155.45,-0.1 -310.91,-0.01 -466.36,-0.05 0.23,-2.98 0.83,-5.92 1.89,-8.72 5.58,-15.21 11.25,-30.43 16.18,-45.87 -39.44,-29.05 -78.79,-58.23 -118.19,-87.33 -77.49,0.03 -154.96,0.06 -232.44,0.03 -14.17,0.12 -28.35,1.26 -42.32,3.68zm-502.49 251.34l0 0c-13.37,39.4 -26.81,78.79 -40.15,118.2 -12.19,36.44 -25.13,72.65 -36.78,109.26 55.6,0.07 111.19,0.09 166.78,-0.01 4.07,-10.44 7.68,-21.04 11.46,-31.57 22.96,-65.33 46.49,-130.46 69.6,-195.75 -56.95,-1.26 -113.96,-0.91 -170.91,-0.13z"/>
  </g>
 </g>
</svg>
