<?xml version="1.0" encoding="UTF-8"?>
<!DOCTYPE svg PUBLIC "-//W3C//DTD SVG 1.1//EN" "http://www.w3.org/Graphics/SVG/1.1/DTD/svg11.dtd">
<!-- Creator: CorelDRAW -->
<svg xmlns="http://www.w3.org/2000/svg" xml:space="preserve" width="2000px" height="1600px" version="1.1" style="shape-rendering:geometricPrecision; text-rendering:geometricPrecision; image-rendering:optimizeQuality; fill-rule:evenodd; clip-rule:evenodd"
viewBox="0 0 2000 1600"
 xmlns:xlink="http://www.w3.org/1999/xlink">
 <defs>
  <style type="text/css">
   <![CDATA[
    .fil0 {fill:black}
    .fil2 {fill:#F47820}
    .fil1 {fill:#FEFEFE}
   ]]>
  </style>
 </defs>
 <g id="Capa_x0020_1">
  <metadata id="CorelCorpID_0Corel-Layer"/>
  <g id="Pacific_x0020_Tigers.cdr">
   <path class="fil0" d="M1428 383.35c15.1,-24.8 33.1,-62.37 -32.98,-90.66 -78.44,-35.19 -190.09,-84.98 -190.09,-84.98 0,0 -79.07,-9.84 -79.07,-9.84l-135.47 -41.12 -20.12 39.16c0,0 -366.19,-70.88 -366.56,194.26 0,0 8.87,-39.48 58.6,-61.66 -22.81,64.14 -2.29,166.16 124.44,308.91 0.97,1.2 1.85,2.34 2.82,3.52 -159.64,-63.83 -262.81,-170.09 -255.04,-283.19 10.8,-157.01 231.62,-271.67 505.12,-269.49 -19.47,-2.54 -39.27,-4.54 -59.38,-5.93 -300.32,-20.71 -553.19,98.95 -564.76,267.23 -9.94,144.59 161.5,278.05 400.47,325.91 29.87,42.37 40.68,75.89 36.57,139.81 12.25,-9.66 247.96,-221.61 326.4,-26.87 11.56,-18.09 58.08,-90.81 118.69,-186.69l-14.63 -80.5c0,0 77.47,-19.31 77.47,-19.31 7.68,-12.22 14.8,-24.94 21.79,-37.84 18.22,30.48 28.11,63.06 28.11,96.96 0.01,157.39 -212.45,286.98 -485.42,303.66 19.58,1.19 39.49,1.83 59.64,1.83 301.04,0 545.09,-136.79 545.09,-305.48 0,-66.29 -37.69,-127.62 -101.69,-177.7l0 0.01z"/>
   <path class="fil1" d="M1211.45 269.78c-12.78,1.03 -22.78,9.96 -22.78,20.78 0,11.51 11.3,20.86 25.23,20.86 -22.18,-14.04 -9.75,-35 -2.45,-41.64zm26.02 12.07l0 0c-5.01,3.64 -17,7.59 -17,7.59 3.41,4.03 13.24,9.37 17.47,8.82 0.09,-0.3 4.05,-8.29 -0.47,-16.41zm65.47 63.68l0 0c-67.24,0.03 -114.63,42.53 -205.83,22.01 -101.71,-22.88 -278.76,30.9 -167.86,203.66 59.14,92.12 2.69,170.22 2.64,170.41 21.12,-19.55 73.32,-56.64 55.29,-150.67 -39.86,-207.81 149.26,-185.27 149.26,-185.27 -93.84,11.26 -146.07,192.5 -21.18,261.88 61.04,35.9 64.31,72.71 64.31,72.71 0,0 24.34,-38.14 50.6,-81.57 0,0 -117.74,-9.75 -117.83,-121.62 -0.05,-48.19 47.46,-78.05 61.71,-87.46 19.32,-12.76 36.06,-36.14 36.06,-36.14 56.55,-71.75 98.48,-38.54 109.06,-11.93 7.69,19.28 61.63,30.2 67.63,3.04 4.69,-24.7 -9.48,-42.93 -33.38,-51 -18.41,-5.81 -34.97,-8.06 -50.49,-8.06l0.01 0.01zm-22.09 41.06l0 0 0 0c5.39,0.31 15.57,2.94 21.62,18.07 -11.61,46.03 -57.28,79.44 -57.28,79.44 30.14,-51.45 19.41,-78.34 32.2,-97.4 0.4,-0.03 1.66,-0.21 3.46,-0.11zm54.75 42.54l0 0c9.95,3.16 17.38,3.38 22.56,2.56 -14,30.91 -45.12,50.89 -45.12,50.89 15.68,-23.25 19.58,-40.38 22.56,-53.45zm-103.81 124l0 0 0 -0.01c0,0 0.97,38.38 -27.21,68.57 -3.13,3.32 -6.11,5.51 -8.88,6.86 -7.24,3.44 -16.34,-1.3 -15.52,-10.73 0.2,-2.54 1.08,-4.5 2.45,-6.29 4.59,-5.94 15.1,-10.06 28.55,-26.2 6.35,-7.61 13.29,-17.79 20.61,-32.2zm27.86 21.39l0 0 0 0c0,0 5.09,29.58 -14.72,56.09 -5.62,7.49 -18.35,5.38 -19.03,-2.17 -0.82,-9.15 22.57,-19.35 33.75,-53.92z"/>
   <path class="fil2" d="M1001.42 189.98l-13.49 28.08c0,0 -94.79,-15.66 -203.07,31.01 -149.99,64.66 -70.24,216.1 -70.24,216.1 -20.82,-225.89 246.23,-225.92 411,-198.09 54.16,9.4 82.24,-9.98 84.05,-10.53l50.82 28.41c0,0 23.66,13.96 44.39,-4.12 -51.85,-22.15 -108.34,-45.89 -108.34,-45.89l-83.87 -11.85 -111.24 -33.11 -0.01 -0.01zm50.64 83.77l0 0 0 0.03c57.44,-0.49 117.52,6.67 134.29,32.88 7.08,10.85 20.15,19.3 54.61,6.62 51.29,-18.88 112.78,-22.84 138.01,-0.26 -52.83,-12.76 -122.49,14.08 -123.76,14.24 -55.98,20.56 -94.41,26.87 -165.15,9.08 -126.87,-34.41 -248.46,-22.42 -258.73,112.72 -5.17,68.37 29.72,98.78 54.61,188.58 28.26,101.84 -15.02,145.25 -15.02,145.25 20.71,-109.42 -20.95,-139.09 -71.64,-212.26 -112.06,-161.81 23.56,-269.81 162.19,-290.19 22.63,-3.33 56.13,-6.39 90.59,-6.69zm142.41 191.38l0 0 0 0c12.1,-0.76 21.54,3.56 28.08,14.92 15.7,27.22 -21.67,67.91 -11.37,105.28 -13.45,16.14 -23.96,20.27 -28.55,26.21 -3.99,-1.26 -8.07,-3.54 -11.26,-6.69 -64.43,-63.55 -12.74,-117.93 -12.74,-117.93 9.12,-3.39 43.65,-3.89 19.56,56.64 -13.97,35.15 17.98,44.56 17.98,44.56 0,0 -11.17,-23.98 -0.04,-46.26 0.2,-0.39 32.9,-52.75 -1.66,-76.73z"/>
   <path class="fil2" d="M262.16 914.86l-77.64 285.07 134.03 0 25.46 -92.84c27.65,0 105.74,0 106.41,-0.02 12.05,-0.34 28.84,-0.83 46.8,-3.94l-75.73 96.02 131.07 0 23.07 -34.25 83.11 0 3.69 34.25 118.67 0 -4.06 -19.76c34.61,22.36 80.95,26.09 107.78,26.09 51.69,0 88.39,-13.38 113.25,-28.11l-5.92 21.74 227.28 0 20.98 -76.35 129.63 0 20.05 -73.09 -129.62 0 4.47 -16.3 143.24 0 -44.85 165.74 116.01 0 15.58 -57.72c5.13,10.03 11.84,18.79 20,25.83 42.35,36.75 86.21,37.11 116.79,37.11 136.14,0 174.48,-75.47 179.28,-93.22 0,0 3.29,-9.02 2.83,-15.85l-111.41 0.2 -1.12 9.34c-2.43,9.12 -17.03,24.78 -56.36,25.79 -18.48,0 -32.88,-4.6 -41.69,-13.39 -6.78,-6.84 -10.26,-16.23 -10.26,-27.95 0,-16.44 6.57,-32.45 18.08,-43.93 13.81,-13.79 34.33,-21.04 59.13,-21.04l0 -0.03c32.02,0.84 38.73,13.56 40.97,23.07l1.25 9.65 102.92 0.02c0.59,-6.86 -0.72,-16.59 -0.92,-17.75 -1.51,-10.2 -4.8,-31.39 -22.62,-48.53 -26.31,-25.09 -68.14,-38.32 -120.88,-38.32 -66.03,0 -108.71,19.2 -135.74,40.32l8.81 -32.73 -487.12 0.02 -10.59 39.25c-2.3,-2.79 -4.86,-5.61 -7.89,-8.5 -26.3,-25.06 -68.13,-38.31 -120.94,-38.31 -87.96,0 -144.35,35.34 -170.55,79.09l-14.62 -71.85 -121.87 0 -14.71 18.64c-1.36,-4.74 -3.19,-9.29 -5.5,-13.63 -11.25,-20.53 -34.71,-49.59 -128.82,-49.59l-199.22 -0.24 0.01 0zm111.67 82.85l0 0 70.19 0c21.5,0 19.81,6.24 19.81,9.98 0,15 -18,16.06 -29.74,16.06l-67.28 0 7.02 -26.04zm542.96 26.57l0 0c32.02,0.86 38.73,13.56 40.97,23.08l2.3 9.66 69.91 -0.03 -10.46 38.29 -69.12 0.22 -2.5 9.32c-2.43,9.12 -17.1,24.78 -56.29,25.83 -19.47,0 -52.09,-5.4 -52.09,-41.36 0,-16.46 6.64,-32.46 18.15,-43.92 13.81,-13.82 34.33,-21.08 59.13,-21.09zm-269.21 32.16l0 0 5.76 41.11 -33.57 0 27.81 -41.11zm-393.52 177.94l0 0 -22.07 83.07 111.7 0 -54.17 199.22 133.65 0 54.2 -199.22 61.97 0 -52.91 195.58 116.11 0 15.6 -57.6c21.09,39.62 68.58,63.97 131.08,63.97 29.03,0 50.87,-5.11 66.53,-10.71l-1.02 4.06 469.41 0.25 20.26 -74.96 37.22 0 33.08 74.96 118.31 0 -15.12 -31.2c3.15,3.83 6.77,7.53 11.18,10.95 11.11,8.67 44.59,27.25 114.03,27.25 26.05,0 64.98,-4.1 90.17,-14.3 56.49,-22.91 60.83,-63.06 60.83,-74.76 0,-11.86 -3.42,-23.37 -9.87,-33.27 -13.21,-20.47 -35.18,-26.56 -60.63,-33.67 0,0 -4.87,-1.37 -5.33,-1.45 0,0 -4.21,-1.02 -10.32,-2.5l99.96 -0.14 0 -12.6c0,-14.56 -0.07,-53.26 -53.4,-71.24l0 -0.01c-20.06,-6.74 -42.55,-9.77 -73,-9.77 -41.04,0 -70.04,4.22 -93.85,13.62 -20.38,8.05 -35.64,20.16 -44.72,34.98 -19.99,-37.99 -74.57,-40.29 -97.85,-41.23l-438.53 -0.04 -25.77 95.29 -0.73 0 -0.06 -7.28c-0.14,-12.39 -2.96,-24.18 -8.42,-34.81 -4.87,-10.06 -34.53,-60.17 -136.14,-60.17 -55.93,0 -103.3,13.9 -136.89,39.27l8.75 -32.31 -69.18 0 10.7 -39.23 -354.76 0 0 0zm1376.46 104.43l0 0c22.69,0 30.71,2 31.63,6.71 0.92,4.67 -3.55,12.01 -3.55,12.01 -15.33,-3.68 -33.21,-7.73 -33.15,-7.68 -11.44,-2.92 -16.24,-3.14 -16.24,-6.74 0,-3.58 7.5,-4.3 21.31,-4.3zm-839.16 2.09l0 0c6.63,0.12 13.6,0.86 20.39,2.43 12.91,3.01 20.03,9.13 21.32,18.4l-0.29 7.17 -54.39 0 -9.62 0 -2.54 9.26 -11.72 42.78 -4.37 15.91 16.54 0 44.59 0c-2.16,1.28 -4.71,2.52 -7.81,3.71 -8.96,3.69 -19.52,5.42 -33.25,5.42 -20.04,0 -35.17,-4.51 -43.7,-13 -6.36,-6.36 -9.47,-15.18 -9.48,-26.93 0,-28.74 18.12,-52.87 46.63,-61.54 6.58,-2.28 16.66,-3.81 27.7,-3.61zm534.95 4.53l0 0 58.07 0c12.36,0 13.02,5.9 12.69,8.38l0 0.01c0,7.33 -8.09,10.39 -17.56,10.56 -7.43,0.12 -17.3,0.53 -58.4,0.17l5.2 -19.12zm-264.31 0.67l0 0 153.62 0 -25.38 93.18 -153.63 0 3.69 -13.99 130.74 0 18.08 -66.4 -16.5 0 0 0.01 -114.17 0.03 3.55 -12.83zm440.1 34.49l0 0c14.53,23.05 42.75,30.76 62.41,36.09l44.46 11.27 6.77 1.68c10.13,2.5 22.88,4.6 22.88,8.91 0,4.33 -8.08,8.5 -27.55,8.94 -16.11,0.31 -28.8,-1.88 -35.45,-6.1 -4.54,-3 -5.39,-5.77 -5.39,-9.57l0 -12.52 -108.12 -0.16 0 12.58c0,4.3 0,12.42 2.24,21.94l-14.73 -30.43c17.23,-6.12 35.77,-15.56 49.32,-36.96 1.12,-1.85 2.17,-3.75 3.16,-5.67z"/>
   <path class="fil0" d="M454.54 925.9c-82.78,-0.34 -134.55,25.34 -161.93,68.74 0,0 16.82,-57.2 50.66,-67.75 -20.62,0.01 -44.27,0.02 -71.48,0.02l-70.78 260.43 107.92 0 25.45 -92.83 115.24 0c20.27,-0.58 53.06,-1.41 81.93,-14.56l-84.08 106.58 98.35 0 23.09 -34.22 100.84 0 3.33 24.51c21.28,-8.36 42.14,-21.61 55.36,-42.59 0,0 -11.45,38.66 -34.36,52.3l71.56 0 -9.42 -46.23c3.76,6.28 8.23,12.2 13.55,17.47 26.62,25.74 72.44,35.13 115.05,35.13 70.37,0 112.72,-25.63 135.08,-48.02l-11.24 41.64 89.83 0 56.36 -208.38c-28.08,7.17 -60.04,21.43 -77.93,49.84 0,0 13.61,-46.15 40.97,-55.38l-51.36 0 -16.97 62.74c-1.51,-7.91 -4.6,-20.77 -19.86,-35.48 -27.69,-26.36 -70.7,-34.82 -112.26,-34.82 -114.09,0 -166.46,60.35 -174.05,112.51l-21.45 -105.26 -105.45 0 -31.59 40.05c0.65,-4.17 1.12,-8.34 1.12,-12.49 0,-10.31 -2.15,-20.25 -6.89,-29.11 -21.58,-39.41 -75.57,-42.08 -87.2,-43.09 -13.11,-1.13 -25.56,-1.71 -37.39,-1.76l0 0.01zm1216.38 39.11l0 0c-88.78,0 -140.21,36.54 -162.24,77.33l18.88 -69.75 -89.84 0 -57.87 213.93 89.83 0 26.18 -96.83 0 1.09c0,23.93 8.09,50.28 27.35,66.96 76.95,66.8 175,18.78 200.46,-21.56 0,0 -9.34,36.06 -31.04,50.59 70.04,-15.4 102.72,-66.05 106.21,-78.92l-85.3 0.19c-3.55,13.33 -21.71,33.95 -68.6,35.14 -40.44,0 -64.58,-19.98 -64.58,-53.94 0,-36.35 26.97,-77.57 90.17,-77.57 34.46,0.93 48.66,14.84 52.94,32.72l79.05 0.04c-1.45,-7.57 -2.7,-28.51 -19.4,-44.58 -27.69,-26.38 -70.63,-34.84 -112.2,-34.84zm-250.89 7.58l0 0 -13.09 48.17 0 0.02 -151.65 0 -11.38 41.48 129.62 0 -13.08 47.93 -129.63 0 -20.97 76.33 -88.07 0 58.27 -213.91 239.98 -0.02zm-1055.86 12.54l0 0 79.88 0c23.31,0 34.11,6.22 34.11,21.36 0,9.56 -5.18,29.83 -44.04,29.83l-83.75 0 13.8 -51.19zm552.97 26.55l0 0c34.46,0.93 48.67,14.89 52.94,32.75l76.42 -0.03 -17.36 63.45 -68.99 0.2c-3.55,13.34 -21.7,33.95 -68.53,35.15 -40.51,0 -64.65,-20 -64.68,-53.92 0,-36.37 27,-77.58 90.2,-77.6zm-261.23 11.1l0 0 12.3 87.82 -71.76 0 59.46 -87.82zm-392.14 224.18l0 0 -15.36 57.89 111.83 0 -54.22 199.21 107.53 0 54.2 -199.21 88.08 0 -52.9 195.59 89.96 0 25.88 -95.61c0,0.34 -0.03,0.61 -0.03,0.96 0,65.86 57.61,101.03 130.51,101.03 46.24,0 72.2,-13.34 85.35,-20.34l-3.55 13.67 63.66 0 31.64 -118.65 -147.94 0 -11.71 42.75 69.68 0c-4.25,10.03 -8.56,20.36 -28.09,27.94 -11.01,4.55 -23.46,6.38 -38.06,6.38 -39.11,0 -65.77,-15.49 -65.77,-52.52 0,-35.49 23.11,-63.7 55.11,-73.45 13.14,-4.53 35.18,-6.34 55.11,-1.49 26.7,6.35 28.47,20.33 29.92,30.67l82.8 -0.04c-0.07,-12.59 -3.55,-22.44 -7.1,-29.42 -8.88,-18.19 -41.96,-53.11 -124.83,-53.11 -87.07,0 -139.9,33.59 -163,74.88l18.39 -67.89 -69.18 0 10.69 -39.24 -8.83 0c-103.41,0 -157.86,19.09 -187.76,66.57 0,0 16.21,-55.23 48.86,-66.57l-180.87 0zm1377.78 31.95l0 0c-44.39,0 -70.04,5.14 -89.18,12.7 -28.48,11.24 -46.63,31.57 -46.63,57.97 0,6.37 1.45,13.65 5,20.66 10.98,21.83 38.01,29.14 56.89,34.28l44.45 11.23c26.64,6.68 41.57,9.1 41.57,22.17 0,13.65 -15.59,21.53 -42.29,22.14 -14.53,0.3 -31.63,-1.21 -42.68,-8.22 -9.6,-6.37 -11.05,-14.25 -11.05,-20.03l-82.87 -0.09c0,14.59 2.18,35.61 22.1,51.1 12.1,9.4 44.07,25.87 105.95,24.59 27.36,-0.58 74.18,-20.76 93.78,-51.84 0,0 -7.89,26.88 -23.8,43.77 5.39,-1.51 10.71,-3.24 15.71,-5.28 43.8,-17.91 53.01,-47.35 53.01,-63.12 0,-9.11 -2.5,-18.24 -7.83,-26.41 -11.37,-17.6 -32.35,-22.45 -58.26,-29.76l-53.01 -12.73c-13.15,-3.34 -30.98,-8.5 -30.98,-19.11 0,-8.21 11.77,-16.66 39.13,-16.66l0 -0.01c29.53,0 46.23,7.85 44.06,21.21l80.7 -0.18c0,-14.87 -0.66,-44.44 -44.79,-59.32 -21.63,-7.29 -45.11,-9.06 -68.98,-9.06zm-255.83 6.74l0 0c10.72,-0.08 17.49,0.54 17.49,0.54 28.81,1.2 94.64,3.04 94.64,61.9 0,9.1 -2.89,20.6 -9.6,31.53 -14.6,23.09 -35.58,29.76 -56.17,36.13l40.91 84.68 -90.03 0 -33.08 -74.99 -55.11 0 -20.26 74.99 -311.85 0c16.57,-16.8 24.92,-44.86 24.92,-44.86 -14.47,22.94 -44.13,40.14 -69.32,44.86l58.01 -214.24 245.37 0 -12.76 47.32 -156.52 0 -10.33 37.98 130.61 0 -11.24 41.21 -130.68 0 -10.72 39.18 179.87 0 45.11 -165.69 55.84 0c-27.43,9.21 -41.04,55.48 -41.04,55.48 26.11,-49.16 93.71,-55.78 125.94,-56.02zm-67.61 47.12l0 0 -11.97 44.29c62.35,0.63 80.11,1.39 90.63,-3.66 9.14,-4.39 14.33,-11.78 14.33,-21.22 0,-14.94 -13.48,-19.41 -27.29,-19.41l-65.7 0z"/>
  </g>
 </g>
</svg>
