<?xml version="1.0" encoding="UTF-8"?>
<!DOCTYPE svg PUBLIC "-//W3C//DTD SVG 1.1//EN" "http://www.w3.org/Graphics/SVG/1.1/DTD/svg11.dtd">
<!-- Creator: CorelDRAW -->
<svg xmlns="http://www.w3.org/2000/svg" xml:space="preserve" width="2000px" height="1600px" version="1.1" style="shape-rendering:geometricPrecision; text-rendering:geometricPrecision; image-rendering:optimizeQuality; fill-rule:evenodd; clip-rule:evenodd"
viewBox="0 0 2000 1600"
 xmlns:xlink="http://www.w3.org/1999/xlink">
 <defs>
  <style type="text/css">
   <![CDATA[
    .fil0 {fill:#00265C}
    .fil1 {fill:#FAFAFB}
   ]]>
  </style>
 </defs>
 <g id="Capa_x0020_1">
  <metadata id="CorelCorpID_0Corel-Layer"/>
  <g id="Penn_x0020_State_x0020_Nittany_x0020_Lions.cdr">
   <path class="fil0" d="M1000 190.3c497.06,0 900,272.97 900,609.7 0,336.73 -402.94,609.7 -900,609.7 -497.06,0 -900,-272.97 -900,-609.7 0,-336.73 402.94,-609.7 900,-609.7z"/>
   <path class="fil1" d="M817.55 306.66c13.98,-31.77 33.11,-65.52 67.05,-79.04 16.98,-2.17 33.67,5.64 47.74,14.55 36.43,26.04 54.69,68.42 81.52,102.84 3.76,5.48 11.25,4.47 16.97,6.03 118.12,22.92 233.38,59.1 345.16,103.32 40.9,20.63 55.89,68.37 90.96,95.73 82.99,65.55 184.83,105.47 258.92,182.55 15.11,17.14 33.48,33.72 37.97,57.23 9.24,39.58 -9.77,78.83 -31.68,110.71 -7.63,13.54 -20.97,21.97 -32.92,31.24 -38.72,28.39 -81.94,49.75 -124.76,71.13 -76.94,40.99 -157.2,75.44 -237.99,108.07 3.63,3.63 7.4,7.15 11.22,10.61 54.89,-19.74 110.44,-37.55 165.13,-57.84 36.77,-13.43 73.37,-27.31 109.88,-41.41 -13.71,41.74 -33.72,81.1 -54.35,119.77 -12.31,23.45 -29.82,45.78 -55.05,55.97 -31.22,13.9 -66.36,9.88 -98.94,3.96 -73.23,-11.69 -146.48,-23.17 -219.82,-34.28 -8.48,-1.25 -17.17,-3.82 -25.74,-1.78 -47.09,12.08 -93.85,25.4 -140.78,38.02 -74.96,19.29 -152.15,34.11 -229.87,30.68 -38.61,-0.89 -77.27,-14.29 -106.83,-39.45 -42.44,-35.23 -60.19,-93.35 -57.46,-147.06 9.02,6.03 13.4,16.52 20.94,24.09 50.19,56.45 123.31,87.77 197.01,98.63 99.16,14.18 199.77,1.59 297.48,-17.17 17.33,-2.82 33.61,-9.6 50.19,-15.13 89.87,-30.93 177.75,-67.87 261.92,-112.03 17.67,-9.94 36.85,-17.92 51.45,-32.38 26.52,-23.26 45.84,-56.73 45.78,-92.69 1.51,-37.69 -14.24,-74.26 -37.63,-103.15 -33.39,-41.43 -79.4,-70.04 -125.74,-94.89 -18.34,-9.32 -36.37,-19.62 -56.28,-25.29 -60.24,-21.22 -123.45,-36.38 -187.65,-35.45 5.89,-4.97 13.45,-7.04 20.29,-10.33 47.49,-21.72 95.14,-43.11 142.8,-64.52 15.18,5.28 21.13,22.92 21.97,37.66 1.39,11.19 -2.18,22.03 -7.21,31.88 16.78,2.71 33.11,7.62 49.72,11.25 29.71,6.12 57.6,18.54 85.46,30.1 67.16,28.72 131.32,70.18 174.03,130.56 17.98,22.7 24.96,52.57 23.48,81.1 0.25,11.78 -3.88,23 -4.94,34.64 24.09,-6.89 43.97,-24.51 56.19,-46.09 10.33,-18.45 16.42,-38.83 22.62,-58.93 -1.9,-26.32 -16.42,-49.6 -34.96,-67.64 -19.06,-18.54 -40.95,-33.78 -61.05,-51.11 -60.3,-45.26 -126.6,-81.49 -189.47,-122.87 -33.72,-23 -47.46,-66.91 -84.98,-85.2 -33.16,-12.25 -68.93,-14.26 -103.91,-15.55 -46.62,0.56 -93.07,5 -139.61,7.15 -97.76,10.38 -195.33,32.07 -284.52,74.42 -31.63,15.58 -62.68,32.64 -91.54,52.93 -2.49,1.71 -5.39,2.66 -8.15,3.69 0.58,-1.09 1.78,-3.24 2.4,-4.3 5.72,-56.64 18.23,-112.36 31.96,-167.53 12.54,-46.59 25.77,-93.32 45.62,-137.4zm-121.85 1067.27l0 0c-62.73,-22.24 -123.27,-51.8 -177.59,-91.11 -76.27,-54.43 -140.45,-129.31 -174.48,-218.68 -53.18,-140.59 -39.06,-305.93 36.6,-435.17 54.3,-93.53 135.12,-167.8 223.06,-227.3 34.72,-25.29 72.91,-45.06 108.09,-69.64 -15.52,0.09 -30.46,4.7 -45.39,8.45 -100.84,27.16 -198.88,69.32 -283.58,132.34 -80.91,59.47 -148.44,141.74 -179.73,239.68 -43.97,142.5 -20.13,304.49 59.63,429.15 4.38,5.93 8.46,12.12 12.5,18.34 1.75,1.98 3.5,3.98 5.29,5.95 104.63,94.3 248.69,167.37 415.6,207.99zm168.52 -1081.29l0 0c-12.2,18.73 -19.93,39.87 -28.47,60.41 -22.28,59.19 -38.05,121.02 -45.59,183.86 2.49,-1.59 4.5,-3.65 5.98,-6.17 23.08,-38.8 49.83,-75.65 81.2,-108.2 28.37,-29.48 61.25,-55.33 99.05,-71.55 -0.92,-9.13 -7.39,-15.91 -12.73,-22.84 -12.25,-14.91 -21.41,-32.16 -34.5,-46.34 -9.97,-10.66 -24.12,-19.71 -39.23,-18.06 -12.33,5.5 -18.98,17.92 -25.71,28.89z"/>
  </g>
 </g>
</svg>
