<?xml version="1.0" encoding="UTF-8"?>
<!DOCTYPE svg PUBLIC "-//W3C//DTD SVG 1.1//EN" "http://www.w3.org/Graphics/SVG/1.1/DTD/svg11.dtd">
<!-- Creator: CorelDRAW -->
<svg xmlns="http://www.w3.org/2000/svg" xml:space="preserve" width="2000px" height="1600px" version="1.1" style="shape-rendering:geometricPrecision; text-rendering:geometricPrecision; image-rendering:optimizeQuality; fill-rule:evenodd; clip-rule:evenodd"
viewBox="0 0 2000 1600"
 xmlns:xlink="http://www.w3.org/1999/xlink">
 <defs>
  <style type="text/css">
   <![CDATA[
    .fil1 {fill:#0A213D}
    .fil0 {fill:#B5A26A}
   ]]>
  </style>
 </defs>
 <g id="Capa_x0020_1">
  <metadata id="CorelCorpID_0Corel-Layer"/>
  <g id="Pittsburgh_x0020_Panthers.cdr">
   <path class="fil0" d="M1398.39 849.55c36.99,-16.28 77.69,-22.28 117.85,-22.93 8.07,-0.23 16.32,-1.09 24.22,1.19 9.08,41.15 5.04,83.46 3.96,125.15 -0.3,9.55 -2.49,18.9 -4.06,28.31 -6.41,34.7 -15.08,69.92 -33.99,100.15 -12.56,12.94 -29.69,23.98 -48.5,22.34 -17.81,0.21 -34.11,-11.67 -41.7,-27.38 -5.09,-10.58 -8.4,-21.92 -11.07,-33.31 -8.18,-36.72 -7.05,-74.56 -7.9,-111.94 -0.75,-27.2 1.41,-54.39 1.19,-81.58zm-761.72 -554.74l0 0c-84.36,4.85 -168.98,17.56 -248.74,46.21 -72.76,25.94 -140.55,66.84 -195.36,121.5 -24.88,24.9 -49.63,50.6 -67.67,81.1 -13.43,22.17 -21.69,47.19 -24.9,72.89l0 16.17c5.69,23.25 14.71,46.91 32.65,63.53 10.17,9.82 23.43,15.3 36.42,20.31 20.9,7.26 44.02,5.11 64.67,-1.96 8.23,-3.04 16.58,-6.36 23.53,-11.84 14.74,-11.97 27.49,-26.22 39.01,-41.27 16.4,-21.12 30.34,-44.27 49.22,-63.41 -0.87,8.59 -2.16,17.19 -1.56,25.84 8.24,124.58 13.31,249.33 19.14,374.04 2.42,47.31 3.94,94.69 7.15,141.97 0.85,30.34 0.62,62.01 13.59,90.16 7.9,16.5 19.31,32.58 36.16,40.82 32.41,17.83 68.99,28.04 105.95,29.64 38.56,1.6 78.94,-6.89 110.19,-30.46 17.18,-17.17 27.7,-40.77 29.77,-64.91 5.15,-67.39 2.73,-134.99 -0.21,-202.41 87.87,-9.71 174.18,-41.5 243.76,-96.73 0.13,7.25 0.13,14.49 0.09,21.76 0.04,36.67 4.77,73.91 -2.88,110.17 -1.88,11.02 -8.4,20.26 -13.31,30.06 -4.66,8.39 -9.02,17.37 -16.54,23.63 -3.55,3.09 -8.48,3.21 -12.76,4.63 -4.29,1.15 -8.13,3.72 -12.54,4.37 -7.56,0.22 -14.9,-2.12 -22.18,-3.8 -14.03,-3.59 -28.52,-6.32 -43.05,-5.13 -13.56,1.03 -26.85,6.85 -36.34,16.67 -9.97,10.12 -15.25,23.96 -17.42,37.81 -1.08,7.24 -2.32,14.86 0.04,22.02 2.75,9.12 5.29,18.29 7.79,27.49 2.14,8.5 8.62,14.8 13.9,21.48 31.43,37.54 76.77,61.07 123.65,73.13 16.53,3.02 33.62,2.62 50.23,0.44 32.03,-4.56 62.06,-19.06 87.24,-39.1 33.62,29.58 76.13,49.17 120.83,53.56l38.55 0c41.58,-4.85 78.49,-28.11 107.8,-57.02 33.18,29.85 77.2,47.03 121.76,48.27 29.59,1.18 59.22,-5.88 85.67,-19.02 21.78,-10.56 41.05,-25.49 58.97,-41.61 37.03,29.35 81.7,50.69 129.16,54.9 28.73,2.72 58.04,-1.91 84.54,-13.31 24.9,-8.07 47.65,-21.95 66.85,-39.65 23.92,-21.88 43.24,-48.51 57.85,-77.37 4.16,-9 9.34,-17.87 10.39,-27.91 2.22,-18.79 4.31,-38.39 -1.47,-56.78 -4.16,-13.64 -13.16,-25.68 -24.98,-33.65 -28.13,-18.52 -68.41,-17.34 -94.66,4.09 -16.67,17.29 -30.98,36.99 -49.9,52.06 -2.07,-1.67 -4.96,-2.59 -6.05,-5.18 -5.52,-10.77 -5.54,-23.18 -6.99,-34.92 -4.35,-48.57 -1.64,-97.42 0.71,-146.01 13.1,7.36 26.59,14.76 41.47,17.68 18.07,2.39 38.09,1.47 53.29,-9.77 12.83,-9.45 20.19,-24.23 26.74,-38.36 13.68,-31.59 16.23,-67.6 8.43,-101.03 -1.45,-7.6 -7.35,-13.01 -11.87,-18.88 -27.47,-33.53 -64.63,-56.84 -101.31,-79.01 0.91,-13.49 2.79,-26.95 2.34,-40.51 -0.15,-12.31 2.22,-24.45 3.06,-36.71 1.87,-20.94 -0.39,-43.27 -12.06,-61.29 -12.92,-20.71 -36.21,-32.67 -59.67,-36.94 -18.14,-4.59 -37.01,-1.77 -54.96,2.12 -39.86,8.92 -75.02,31.51 -105.75,57.68 -1.05,9.51 -3.09,18.96 -2.7,28.56 0.97,20.96 2.3,41.92 3.17,62.89 -23.3,3.58 -46.28,8.96 -69.02,15.1 -0.09,-16.03 0.88,-32.05 3.02,-47.93 2.77,-23.33 2.59,-48.26 -8.37,-69.64 -11.59,-20.99 -34.35,-33.37 -57.45,-37.19 -10.94,-1.69 -22.02,-3.56 -33.11,-2.99 -33.54,7.26 -66.39,19.44 -95.01,38.6 -18.96,12.39 -35.14,28.4 -49.87,45.49 7.92,41.9 8.62,84.65 11.36,127.09 -7.47,-4.03 -13.53,-10.06 -20.61,-14.55 -7.48,-1.94 -15.43,-1.44 -23.05,-0.82 -21.59,2.54 -40.28,15.82 -54.19,31.92 -2.97,3.7 -7.36,7.03 -7.82,12.12 -1.38,11.56 -1.93,23.2 -2.23,34.84 -16.92,-6.3 -35.09,-7.47 -52.96,-7.52 -10.37,0.02 -20.73,-1.17 -31.08,-0.3 19.04,-33.43 32.73,-70.22 37.17,-108.57 4.26,-40.24 2.69,-81.41 -7.79,-120.62 -23.14,-89.83 -87.55,-166.37 -168.78,-209.89 -60.82,-30.32 -128.32,-45.98 -196.08,-48.84l-42.03 0zm-37.36 36.16l0 0c39.39,-3.92 79.21,-4.37 118.56,0.52 50.38,6.09 99.9,20.54 145.16,43.65 58.58,32.99 107.21,84.51 134.1,146.36 16.78,38.35 24.75,80.54 22.76,122.37 -0.17,29.41 -5.91,58.78 -16.98,86.04 -19.62,48.82 -53.01,90.55 -88.97,128.34 -46.04,43.17 -102.47,74.89 -162.81,93.12 -31.46,9.69 -63.99,15.6 -96.68,19.17 -7.81,0.64 -15.66,0.09 -23.46,-0.55 2.79,74.35 7.35,148.84 2.32,223.19 -0.22,18.97 -6.28,38.76 -20.06,52.27 -22.46,15.65 -50.4,21.56 -77.42,21.79 -33.97,-0.11 -67.95,-8.53 -97.9,-24.61 -14.84,-6.73 -23.03,-22.36 -27.85,-37.16 -6.98,-23.5 -5.5,-48.28 -6.77,-72.48 -2.95,-39.45 -4.16,-79.01 -6.18,-118.52 -5.96,-131.4 -11.47,-262.82 -19.89,-394.1 0.74,-20.91 4.16,-43.7 18.76,-59.79 14.51,-14.98 33.68,-25.11 53.99,-29.61 25.07,-5.69 51.09,-5.14 76.52,-2.55 22.46,5.03 44.57,15.45 60.09,32.87 7.01,7.76 12.04,17.28 14.56,27.45 8,30.48 8.89,62.14 11.41,93.39 3.44,49.05 7.01,98.1 10.4,147.16 13.9,2.01 27.79,-0.66 41.62,-2.04 27.57,-5.24 55.26,-11.33 81.38,-21.89 14.77,-6.44 29.83,-13.58 40.82,-25.75 35.07,-34.74 47.73,-88.31 36.6,-135.82 -8.5,-38.98 -20.79,-78.91 -47.44,-109.56 -15.48,-18.29 -36.47,-30.71 -58.05,-40.5 -51.52,-23.03 -109.34,-28.09 -165.1,-24.03 -80.55,12.01 -158.91,43.91 -221.8,96.16 -37.36,32.38 -56.7,80.78 -95.68,111.56 -16.45,9.02 -36.72,13.41 -55.03,7.88 -9,-3.8 -18.72,-7.03 -25.73,-14.18 -8.6,-8.23 -13.78,-19.27 -17.54,-30.41 -1.95,-6.03 -4.22,-12.22 -3.55,-18.69 1.45,-20.92 8.46,-41.21 18.93,-59.32 17.91,-31.04 43.63,-56.43 68.78,-81.56 34.12,-32.8 73.38,-60.15 115.56,-81.55 81.37,-41.43 172.19,-60.44 262.57,-68.62zm-41.85 171.81l0 0c48.31,-3.12 98.25,0.77 143.24,19.83 17.63,7.78 35.28,17.07 48.33,31.61 24.33,27.01 34.38,63.1 42.05,97.77 8.11,35.95 -0.67,76.53 -27.11,103.05 -7.53,8.72 -18.1,13.76 -28.42,18.37 -16.93,7.32 -34.85,11.93 -52.77,16.05 -9.51,2.09 -18.98,4.65 -28.71,5.43 -2.96,-39.21 -5.58,-78.46 -8.45,-117.69 -2.47,-33.61 -3.93,-67.67 -13.11,-100.3 -6.23,-21.46 -20.23,-40.16 -37.98,-53.54 -11.19,-8.77 -24.1,-14.91 -37.07,-20.58zm978.27 81.29l0 0c-2.12,9.25 -0.53,18.73 -0.25,28.09 1.55,25.21 3.53,50.51 1.87,75.78 -39.59,3.81 -78.49,12.91 -116.45,24.6 -6.48,1.69 -12.98,4.74 -19.79,3.07 0.72,-31.96 0.35,-64.09 4.54,-95.87 1.72,-15.5 2.19,-31.9 -4.17,-46.5 -6.82,-13.22 -21.8,-19.52 -35.77,-21.77 -7.57,-1.06 -15.23,-2.59 -22.88,-2.06 -42.12,9.32 -83.32,28.53 -112.58,60.97 7.88,49.25 6.18,99.39 12.57,148.77 0.64,3.12 -0.03,6.22 -1.16,9.12 -22.47,2.49 -44.91,-5.84 -62.75,-19.16 -3.14,-2.07 -6.11,-5.67 -10.32,-4.57 -13.39,1.02 -24.83,9.54 -33.6,19.16 -2.51,2.17 -2.37,5.59 -2.62,8.61 -1.35,19.88 -1.4,40.2 4.01,59.54 3.47,14.21 11.79,27.75 25.26,34.38 24.34,12.4 52.53,7.74 78.73,10.81 2.84,0.53 7.51,0.23 7.97,4.04 5.17,44.89 4.39,90.43 -1.82,135.17 -4.48,30.95 -11.26,61.71 -22.12,91.07 -8.2,15.67 -19.02,33.1 -37.27,37.81 -24.43,3.67 -52.49,-9.49 -60.98,-33.62 -14.59,-55.56 -15.71,-113.39 -17.88,-170.44 -0.08,-30.55 4.57,-61.19 0.63,-91.65 -0.56,-14.32 -13.26,-24.99 -26.01,-29.13 -19.24,-5.66 -39.59,-3.14 -59.33,-4.41 -15.11,1.32 -30.47,2.32 -45.14,6.46 -12.32,3.4 -23.58,12.41 -27.03,25.07 -11.76,38.46 -8.52,79.2 -7.44,118.79 0.64,31.22 1.41,63.35 -8.73,93.31 -5.43,11.2 -11.39,22.18 -17.35,33.11 -8.54,14.93 -20.59,29.95 -38.06,34.21 -8.08,1.63 -15.25,6.38 -23.58,6.96 -19.91,2.14 -38.4,-7.65 -58,-8.83 -7.52,-0.55 -15.82,-0.29 -22.01,4.57 -8.66,6.7 -11.03,18.41 -11.43,28.76 0.99,6.3 3.38,12.24 4.9,18.41 1.25,4.1 1.9,8.58 4.52,12.12 24.28,32.4 60.77,53.69 99.02,65.48 16.48,6.21 34.57,5.56 51.75,3.16 31.72,-5.06 60.79,-21.73 83.59,-44.03 2.52,-2.33 4.76,-5.62 8.56,-5.71 2.68,1.81 4.76,4.31 7.02,6.62 22.84,23.36 51.07,42.02 82.6,51.2 22.78,6.41 47.01,9.14 70.49,5.41 32.8,-5.63 60.81,-25.8 84.09,-48.63 7.18,-7.78 12.44,-17.45 21.44,-23.46 28.56,40.28 77.39,64.43 126.59,64.31 27.84,0.3 55.3,-8.47 78.99,-22.8 23.48,-14.02 43.64,-33.01 61.19,-53.87 6.62,6.91 10.49,16.16 18.31,21.98 31.83,25.05 69.54,44.35 110.2,48.93 25.05,3.09 50.77,-1.14 73.74,-11.53 30.94,-9.56 56.73,-31.04 76.97,-55.78 14.46,-17.98 26.77,-37.91 35.24,-59.38 2.32,-16.35 5.74,-34.25 -1.71,-49.8 -6.29,-13.16 -21.79,-18.46 -35.49,-18.59 -11.1,0.18 -23.17,3.14 -30.82,11.72 -13.01,14.23 -24.82,29.63 -39.23,42.52 -8.12,6.97 -16.94,15.47 -28.48,14.87 -11.22,-0.77 -22.48,-5.08 -31.03,-12.43 -6.89,-7.98 -9.22,-18.74 -13.02,-28.32 -11.78,-71.61 -3.39,-144.33 -2.36,-216.39 -0.22,-5.08 0.62,-10.09 2.49,-14.8 19.02,5.26 35.04,17.19 52.05,26.67 10.44,5.53 21.37,11.66 33.57,11.41 9.12,0.48 19.59,-1.89 24.82,-10.09 19.22,-28.22 25.64,-65.26 16.8,-98.18 -29.37,-39.64 -73.98,-63.21 -115.15,-88.53 1.09,-17.31 2.87,-34.58 3.73,-51.92 -1.21,-20.14 4.14,-39.96 3.49,-60.09 -0.24,-12.37 -4.08,-25.28 -13.28,-33.98 -11.79,-11.14 -28.41,-14.88 -44.04,-16.55 -41.17,0.55 -79.13,20.64 -110.61,45.83zm-392.36 310.29l0 0c22.58,12.12 48.65,14.49 73.84,14.68 3.89,59.42 -2.58,119.77 -20.6,176.62 -2.94,10 -8.26,19.67 -16.23,26.5 -9.92,0.92 -22.14,-4.87 -23.55,-15.68 -9.58,-40.48 -12.3,-82.15 -13.97,-123.58 -0.36,-15.03 -1.69,-30.03 -1.04,-45.06 0.52,-11.15 1.1,-22.33 1.55,-33.48zm288.15 -21.43l0 0c-1.75,36.07 -1,72.18 0.02,108.27 1,25.97 3.34,52.4 12.89,76.81 1.87,4.91 5.1,9.87 10.19,11.87 10.29,2.84 20.92,-3.59 26.72,-11.77 17.32,-31.85 24,-68.09 29.58,-103.51 0.85,-31.37 3.49,-62.81 0.73,-94.14 -27.05,0.8 -54.28,4.17 -80.13,12.47z"/>
   <path class="fil1" d="M599.31 330.97c39.39,-3.92 79.21,-4.37 118.56,0.52 50.38,6.09 99.9,20.54 145.16,43.65 58.58,32.99 107.21,84.51 134.1,146.36 16.78,38.35 24.75,80.54 22.76,122.37 -0.17,29.41 -5.91,58.78 -16.98,86.04 -19.62,48.82 -53.01,90.55 -88.97,128.34 -46.04,43.17 -102.47,74.89 -162.81,93.12 -31.46,9.69 -63.99,15.6 -96.68,19.17 -7.81,0.64 -15.66,0.09 -23.46,-0.55 2.79,74.35 7.35,148.84 2.32,223.19 -0.22,18.97 -6.28,38.76 -20.06,52.27 -22.46,15.65 -50.4,21.56 -77.42,21.79 -33.97,-0.11 -67.95,-8.53 -97.9,-24.61 -14.84,-6.73 -23.03,-22.36 -27.85,-37.16 -6.98,-23.5 -5.5,-48.28 -6.77,-72.48 -2.95,-39.45 -4.16,-79.01 -6.18,-118.52 -5.96,-131.4 -11.47,-262.82 -19.89,-394.1 0.74,-20.91 4.16,-43.7 18.76,-59.79 14.51,-14.98 33.68,-25.11 53.99,-29.61 25.07,-5.69 51.09,-5.14 76.52,-2.55 22.46,5.03 44.57,15.45 60.09,32.87 7.01,7.76 12.04,17.28 14.56,27.45 8,30.48 8.89,62.14 11.41,93.39 3.44,49.05 7.01,98.1 10.4,147.16 13.9,2.01 27.79,-0.66 41.62,-2.04 27.57,-5.24 55.26,-11.33 81.38,-21.89 14.77,-6.44 29.83,-13.58 40.82,-25.75 35.07,-34.74 47.73,-88.31 36.6,-135.82 -8.5,-38.98 -20.79,-78.91 -47.44,-109.56 -15.48,-18.29 -36.47,-30.71 -58.05,-40.5 -51.52,-23.03 -109.34,-28.09 -165.1,-24.03 -80.55,12.01 -158.91,43.91 -221.8,96.16 -37.36,32.38 -56.7,80.78 -95.68,111.56 -16.45,9.02 -36.72,13.41 -55.03,7.88 -9,-3.8 -18.72,-7.03 -25.73,-14.18 -8.6,-8.23 -13.78,-19.27 -17.54,-30.41 -1.95,-6.03 -4.22,-12.22 -3.55,-18.69 1.45,-20.92 8.46,-41.21 18.93,-59.32 17.91,-31.04 43.63,-56.43 68.78,-81.56 34.12,-32.8 73.38,-60.15 115.56,-81.55 81.37,-41.43 172.19,-60.44 262.57,-68.62zm936.42 253.1l0 0c-2.12,9.25 -0.53,18.73 -0.25,28.09 1.55,25.21 3.53,50.51 1.87,75.78 -39.59,3.81 -78.49,12.91 -116.45,24.6 -6.48,1.69 -12.98,4.74 -19.79,3.07 0.72,-31.96 0.35,-64.09 4.54,-95.87 1.72,-15.5 2.19,-31.9 -4.17,-46.5 -6.82,-13.22 -21.8,-19.52 -35.77,-21.77 -7.57,-1.06 -15.23,-2.59 -22.88,-2.06 -42.12,9.32 -83.32,28.53 -112.58,60.97 7.88,49.25 6.18,99.39 12.57,148.77 0.64,3.12 -0.03,6.22 -1.16,9.12 -22.47,2.49 -44.91,-5.84 -62.75,-19.16 -3.14,-2.07 -6.11,-5.67 -10.32,-4.57 -13.39,1.02 -24.83,9.54 -33.6,19.16 -2.51,2.17 -2.37,5.59 -2.62,8.61 -1.35,19.88 -1.4,40.2 4.01,59.54 3.47,14.21 11.79,27.75 25.26,34.38 24.34,12.4 52.53,7.74 78.73,10.81 2.84,0.53 7.51,0.23 7.97,4.04 5.17,44.89 4.39,90.43 -1.82,135.17 -4.48,30.95 -11.26,61.71 -22.12,91.07 -8.2,15.67 -19.02,33.1 -37.27,37.81 -24.43,3.67 -52.49,-9.49 -60.98,-33.62 -14.59,-55.56 -15.71,-113.39 -17.88,-170.44 -0.08,-30.55 4.57,-61.19 0.63,-91.65 -0.56,-14.32 -13.26,-24.99 -26.01,-29.13 -19.24,-5.66 -39.59,-3.14 -59.33,-4.41 -15.11,1.32 -30.47,2.32 -45.14,6.46 -12.32,3.4 -23.58,12.41 -27.03,25.07 -11.76,38.46 -8.52,79.2 -7.44,118.79 0.64,31.22 1.41,63.35 -8.73,93.31 -5.43,11.2 -11.39,22.18 -17.35,33.11 -8.54,14.93 -20.59,29.95 -38.06,34.21 -8.08,1.63 -15.25,6.38 -23.58,6.96 -19.91,2.14 -38.4,-7.65 -58,-8.83 -7.52,-0.55 -15.82,-0.29 -22.01,4.57 -8.66,6.7 -11.03,18.41 -11.43,28.76 0.99,6.3 3.38,12.24 4.9,18.41 1.25,4.1 1.9,8.58 4.52,12.12 24.28,32.4 60.77,53.69 99.02,65.48 16.48,6.21 34.57,5.56 51.75,3.16 31.72,-5.06 60.79,-21.73 83.59,-44.03 2.52,-2.33 4.76,-5.62 8.56,-5.71 2.68,1.81 4.76,4.31 7.02,6.62 22.84,23.36 51.07,42.02 82.6,51.2 22.78,6.41 47.01,9.14 70.49,5.41 32.8,-5.63 60.81,-25.8 84.09,-48.63 7.18,-7.78 12.44,-17.45 21.44,-23.46 28.56,40.28 77.39,64.43 126.59,64.31 27.84,0.3 55.3,-8.47 78.99,-22.8 23.48,-14.02 43.64,-33.01 61.19,-53.87 6.62,6.91 10.49,16.16 18.31,21.98 31.83,25.05 69.54,44.35 110.2,48.93 25.05,3.09 50.77,-1.14 73.74,-11.53 30.94,-9.56 56.73,-31.04 76.97,-55.78 14.46,-17.98 26.77,-37.91 35.24,-59.38 2.32,-16.35 5.74,-34.25 -1.71,-49.8 -6.29,-13.16 -21.79,-18.46 -35.49,-18.59 -11.1,0.18 -23.17,3.14 -30.82,11.72 -13.01,14.23 -24.82,29.63 -39.23,42.52 -8.12,6.97 -16.94,15.47 -28.48,14.87 -11.22,-0.77 -22.48,-5.08 -31.03,-12.43 -6.89,-7.98 -9.22,-18.74 -13.02,-28.32 -11.78,-71.61 -3.39,-144.33 -2.36,-216.39 -0.22,-5.08 0.62,-10.09 2.49,-14.8 19.02,5.26 35.04,17.19 52.05,26.67 10.44,5.53 21.37,11.66 33.57,11.41 9.12,0.48 19.59,-1.89 24.82,-10.09 19.22,-28.22 25.64,-65.26 16.8,-98.18 -29.37,-39.64 -73.98,-63.21 -115.15,-88.53 1.09,-17.31 2.87,-34.58 3.73,-51.92 -1.21,-20.14 4.14,-39.96 3.49,-60.09 -0.24,-12.37 -4.08,-25.28 -13.28,-33.98 -11.79,-11.14 -28.41,-14.88 -44.04,-16.55 -41.17,0.55 -79.13,20.64 -110.61,45.83zm-137.34 265.48l0 0c36.99,-16.28 77.69,-22.28 117.85,-22.93 8.07,-0.23 16.32,-1.09 24.22,1.19 9.08,41.15 5.04,83.46 3.96,125.15 -0.3,9.55 -2.49,18.9 -4.06,28.31 -6.41,34.7 -15.08,69.92 -33.99,100.15 -12.56,12.94 -29.69,23.98 -48.5,22.34 -17.81,0.21 -34.11,-11.67 -41.7,-27.38 -5.09,-10.58 -8.4,-21.92 -11.07,-33.31 -8.18,-36.72 -7.05,-74.56 -7.9,-111.94 -0.75,-27.2 1.41,-54.39 1.19,-81.58z"/>
  </g>
 </g>
</svg>
