<?xml version="1.0" encoding="UTF-8"?>
<!DOCTYPE svg PUBLIC "-//W3C//DTD SVG 1.1//EN" "http://www.w3.org/Graphics/SVG/1.1/DTD/svg11.dtd">
<!-- Creator: CorelDRAW -->
<svg xmlns="http://www.w3.org/2000/svg" xml:space="preserve" width="2000px" height="1600px" version="1.1" style="shape-rendering:geometricPrecision; text-rendering:geometricPrecision; image-rendering:optimizeQuality; fill-rule:evenodd; clip-rule:evenodd"
viewBox="0 0 2000 1600"
 xmlns:xlink="http://www.w3.org/1999/xlink">
 <defs>
  <style type="text/css">
   <![CDATA[
    .fil0 {fill:#34216A}
   ]]>
  </style>
 </defs>
 <g id="Capa_x0020_1">
  <metadata id="CorelCorpID_0Corel-Layer"/>
  <path id="Portland_x0020_Pilots.cdr" class="fil0" d="M839.49 86.59c12.03,-4.33 24.82,-6.7 37.63,-6.59 166.21,0.05 332.45,-0.01 498.68,0.04 -48.62,40.63 -94.28,84.95 -134.87,133.67 -38.62,46.12 -72.42,96.28 -100.79,149.33 -31.04,57.86 -55.59,118.98 -76.51,181.14 -21.28,63.4 -39.79,127.69 -58.04,192.01 -19.19,67.27 -38.57,134.48 -57.87,201.72 -18.46,63.67 -36.09,127.58 -56.2,190.75 -21.64,68.65 -45.1,137.37 -80.76,200.21 -25.17,44.41 -57.03,85.74 -97.59,117.16 -24.3,18.92 -51.6,33.97 -80.56,44.44 -34.44,12.52 -70.05,22.24 -106.5,26.5 -32.21,4.1 -64.7,2.77 -97.08,2.98 -19.69,-0.08 -39.38,0.17 -59.07,-0.11 128.78,-449.04 257.52,-898.08 386.28,-1347.11 11.9,-39.8 44.53,-71.96 83.25,-86.14zm719.35 62.89l0 0c-38.05,6.04 -75.13,18.06 -109.51,35.44 -71.61,37.06 -138.07,85.59 -190.68,147.03 -42.47,49.16 -75.25,106.1 -100.07,165.98 -25.31,60.39 -43.13,123.5 -61.01,186.39 -20.53,71.41 -40.95,142.84 -61.44,214.26 94.15,0.08 188.31,0 282.47,0.04 45.73,0.13 88.36,-28.6 110.9,-67.5 8.89,-14.7 12.54,-31.62 17.33,-47.9 61.05,-213.05 122.17,-426.09 183.21,-639.13 -23.81,0.31 -47.68,1.47 -71.2,5.39z"/>
 </g>
</svg>
