<?xml version="1.0" encoding="UTF-8"?>
<!DOCTYPE svg PUBLIC "-//W3C//DTD SVG 1.1//EN" "http://www.w3.org/Graphics/SVG/1.1/DTD/svg11.dtd">
<!-- Creator: CorelDRAW -->
<svg xmlns="http://www.w3.org/2000/svg" xml:space="preserve" width="2000px" height="1600px" version="1.1" style="shape-rendering:geometricPrecision; text-rendering:geometricPrecision; image-rendering:optimizeQuality; fill-rule:evenodd; clip-rule:evenodd"
viewBox="0 0 2000 1600"
 xmlns:xlink="http://www.w3.org/1999/xlink">
 <defs>
  <style type="text/css">
   <![CDATA[
    .fil0 {fill:#0F4534}
    .fil1 {fill:#FEFEFE}
   ]]>
  </style>
 </defs>
 <g id="Capa_x0020_1">
  <metadata id="CorelCorpID_0Corel-Layer"/>
  <g id="Portland_x0020_State_x0020_Vikings.cdr">
   <path class="fil0" d="M445.36 80l0.85 0c40.71,27.86 81.96,54.97 122.86,82.54 140.32,93.97 280.66,187.93 420.95,281.92 3.32,2.17 6.45,4.66 10.05,6.37 4.51,-2.15 8.38,-5.37 12.55,-8.1 149,-99.72 297.92,-199.52 446.9,-299.24 31.37,-21.25 63.18,-41.87 94.29,-63.49l0.83 0 0 330.12c-22.36,14.26 -44.17,29.39 -66.34,43.94 -1.67,0.81 -2.41,2.15 -2.23,3.99 -0.03,193.31 -0.01,386.62 0,579.93 0.45,46.56 -9.37,93.21 -28.92,135.49 -18.45,40.51 -45.41,76.95 -77.49,107.72 -32.71,32.63 -69.74,60.57 -107.91,86.45 -20.25,13.65 -41.33,25.99 -62.68,37.84 -43.17,24.32 -86.56,48.23 -130.1,71.85 -26.06,14.45 -52.59,28.03 -78.51,42.67l-1.14 0c-15.37,-9.36 -31.65,-17.16 -47.35,-25.95 -49.43,-26.67 -98.68,-53.7 -147.68,-81.14 -24.17,-13.58 -48.51,-26.94 -71.54,-42.41 -41.27,-27.56 -81.2,-57.63 -116.03,-93.1 -39.05,-38.06 -69.64,-85.12 -86.74,-136.99 -10.82,-32.51 -15.86,-66.75 -16.04,-100.96 -0.01,-193.76 0.02,-387.53 0,-581.28 0.72,-3.28 -2.75,-4.38 -4.82,-5.99 -21.31,-13.94 -42.35,-28.3 -63.76,-42.09l0 -330.09zm269.99 428.25l0 0c-0.09,72.27 -0.27,144.56 0.09,216.83 40.66,-27.53 81.55,-54.71 122.3,-82.09 1.75,-1.57 5.42,-2.25 5.03,-5.23 0,-14.83 0.18,-29.66 -0.12,-44.48 -42.51,-28.2 -84.68,-56.99 -127.3,-85.03zm-201.39 -299.42l0 0c-0.02,53.95 -0.02,107.9 0,161.84 -0.45,2.17 1.81,2.98 3.16,4.02 20.43,13.58 40.77,27.35 61.26,40.86 0.18,196.6 0.03,393.2 0.08,589.8 0.11,17.86 -0.51,35.74 1.03,53.57 2.75,29.42 10.75,58.38 23.72,84.96 24.6,51.3 65.2,93.68 111.93,125.52 0.32,-126.53 -0.03,-253.07 0.17,-379.6 83.58,-55.82 166.88,-112.06 250.52,-167.78 0.02,-70.19 0.27,-140.41 -0.12,-210.58 -5.34,-4.51 -11.73,-7.86 -17.42,-11.99 -143.19,-96.01 -286.43,-191.96 -429.65,-287.95 -1.49,-1.01 -3.06,-1.87 -4.68,-2.67zm956.98 9.89l0 0c-145.15,97.18 -290.25,194.44 -435.38,291.63 -1.88,1.15 -0.72,3.93 -1.11,5.74 0.13,68.55 -0.12,137.09 0.13,205.64 10.9,8.02 22.49,15.26 33.68,22.92 72.08,48.43 144.36,96.56 216.3,145.16 0.4,50.87 0.09,101.78 0.15,152.68 -1.66,35.35 -20.84,67.83 -46.21,91.65 -19.5,18.3 -42.57,32.84 -67.29,43 0.18,-90.4 -0.03,-180.79 0.11,-271.18 -0.34,-2.12 0.92,-5.29 -1.44,-6.54 -43.74,-29.45 -87.63,-58.67 -131.37,-88.11 -1.27,-0.83 -2.64,-1.43 -4.09,-1.8 0.09,180.48 0.15,360.98 -0.03,541.47 5.87,0.76 11.76,-0.41 17.65,-0.61 33.89,-2.59 67.51,-8.61 100.16,-18 48.29,-13.92 94.16,-35.98 135.42,-64.66 35.82,-24.87 67.74,-55.82 91.69,-92.4 25.83,-39.32 41.61,-85.68 42.25,-132.9 -0.12,-75.14 0.15,-150.3 -0.13,-225.43 -10.92,-8.08 -22.55,-15.26 -33.74,-22.99 -75.16,-50.36 -150.28,-100.77 -225.45,-151.11 -1.73,-1.58 -5.29,-2.24 -4.98,-5.14 -0.06,-14.78 -0.21,-29.58 0.09,-44.37 42.62,-28.1 84.66,-57.08 127.37,-85.02 0.03,43.59 0.05,87.17 -0.01,130.76 0.22,1.93 -0.64,4.7 1.58,5.77 44.81,30.07 89.68,60.04 134.42,90.18l0.75 -0.73c0.28,-106.18 -0.12,-212.38 0.19,-318.56 21.52,-14.12 42.75,-28.64 64.29,-42.7 0.28,-54.71 -0.02,-109.43 0.16,-164.14 -5.38,2.75 -10.04,6.65 -15.16,9.79z"/>
   <path class="fil1" d="M513.96 208.83c1.62,0.8 3.19,1.66 4.68,2.67 143.22,95.99 286.46,191.94 429.65,287.95 5.69,4.13 12.08,7.48 17.42,11.99 0.39,70.17 0.14,140.39 0.12,210.58 -83.64,55.72 -166.94,111.96 -250.52,167.78 -0.2,126.53 0.15,253.07 -0.17,379.6 -46.73,-31.84 -87.33,-74.22 -111.93,-125.52 -12.97,-26.58 -20.97,-55.54 -23.72,-84.96 -1.54,-17.83 -0.92,-35.71 -1.03,-53.57 -0.05,-196.6 0.1,-393.2 -0.08,-589.8 -20.49,-13.51 -40.83,-27.28 -61.26,-40.86 -1.35,-1.04 -3.61,-1.85 -3.16,-4.02 -0.02,-53.94 -0.02,-107.89 0,-161.84zm956.98 9.89l0 0c5.12,-3.14 9.78,-7.04 15.16,-9.79 -0.18,54.71 0.12,109.43 -0.16,164.14 -21.54,14.06 -42.77,28.58 -64.29,42.7 -0.31,106.18 0.09,212.38 -0.19,318.56l-0.75 0.73c-44.74,-30.14 -89.61,-60.11 -134.42,-90.18 -2.22,-1.07 -1.36,-3.84 -1.58,-5.77 0.06,-43.59 0.04,-87.17 0.01,-130.76 -42.71,27.94 -84.75,56.92 -127.37,85.02 -0.3,14.79 -0.15,29.59 -0.09,44.37 -0.31,2.9 3.25,3.56 4.98,5.14 75.17,50.34 150.29,100.75 225.45,151.11 11.19,7.73 22.82,14.91 33.74,22.99 0.28,75.13 0.01,150.29 0.13,225.43 -0.64,47.22 -16.42,93.58 -42.25,132.9 -23.95,36.58 -55.87,67.53 -91.69,92.4 -41.26,28.68 -87.13,50.74 -135.42,64.66 -32.65,9.39 -66.27,15.41 -100.16,18 -5.89,0.2 -11.78,1.37 -17.65,0.61 0.18,-180.49 0.12,-360.99 0.03,-541.47 1.45,0.37 2.82,0.97 4.09,1.8 43.74,29.44 87.63,58.66 131.37,88.11 2.36,1.25 1.1,4.42 1.44,6.54 -0.14,90.39 0.07,180.78 -0.11,271.18 24.72,-10.16 47.79,-24.7 67.29,-43 25.37,-23.82 44.55,-56.3 46.21,-91.65 -0.06,-50.9 0.25,-101.81 -0.15,-152.68 -71.94,-48.6 -144.22,-96.73 -216.3,-145.16 -11.19,-7.66 -22.78,-14.9 -33.68,-22.92 -0.25,-68.55 0,-137.09 -0.13,-205.64 0.39,-1.81 -0.77,-4.59 1.11,-5.74 145.13,-97.19 290.23,-194.45 435.38,-291.63zm-755.59 289.53l0 0c-0.09,72.27 -0.27,144.56 0.09,216.83 40.66,-27.53 81.55,-54.71 122.3,-82.09 1.75,-1.57 5.42,-2.25 5.03,-5.23 0,-14.83 0.18,-29.66 -0.12,-44.48 -42.51,-28.2 -84.68,-56.99 -127.3,-85.03z"/>
  </g>
 </g>
</svg>
