<?xml version="1.0" encoding="UTF-8"?>
<!DOCTYPE svg PUBLIC "-//W3C//DTD SVG 1.1//EN" "http://www.w3.org/Graphics/SVG/1.1/DTD/svg11.dtd">
<!-- Creator: CorelDRAW -->
<svg xmlns="http://www.w3.org/2000/svg" xml:space="preserve" width="2000px" height="1600px" version="1.1" style="shape-rendering:geometricPrecision; text-rendering:geometricPrecision; image-rendering:optimizeQuality; fill-rule:evenodd; clip-rule:evenodd"
viewBox="0 0 2000 1600"
 xmlns:xlink="http://www.w3.org/1999/xlink">
 <defs>
  <style type="text/css">
   <![CDATA[
    .fil1 {fill:black}
    .fil0 {fill:#EB8E23}
   ]]>
  </style>
 </defs>
 <g id="Capa_x0020_1">
  <metadata id="CorelCorpID_0Corel-Layer"/>
  <g id="Princeton_x0020_Tigers.cdr">
   <path class="fil0" d="M1184.3 80c211.21,14.05 366.79,198.82 376.63,405.24 15.54,228.42 -153.98,456.35 -394.67,458.41l-238.96 1.28 0.77 286.37 135.98 -0.39 10.15 288.07 -636.12 1.02 0 -288.48 145.89 -0.51 0.19 -862.82 -146.08 -0.09 0 -288.1 746.22 0zm-131.71 575.08l0 0c88.06,3.54 188.91,-53.24 182.25,-150.84 -3.29,-66.21 -59.89,-114.81 -120.82,-130.11 -42.37,-11.02 -137.67,-6.51 -187.1,-6.13 0.39,95.48 1.43,192.01 0.09,287.33 41.78,-0.79 83.79,-0.4 125.58,-0.25z"/>
   <path class="fil1" d="M1560.93 485.24l0 0c0.24,3.54 0.44,7.08 0.59,10.62l0.01 0.15c0.15,3.48 0.25,6.97 0.31,10.45l0.01 0.32c0.06,3.41 0.08,6.83 0.06,10.24l-0.01 0.54c-0.02,3.34 -0.09,6.67 -0.19,10l-0.02 0.8c-0.11,3.25 -0.25,6.51 -0.43,9.76l-0.05 0.99c-0.18,3.14 -0.39,6.27 -0.64,9.4l-0.12 1.45c-0.24,3 -0.52,5.99 -0.82,8.97l-0.2 1.85c-0.3,2.88 -0.64,5.76 -1,8.63l-0.27 2.09c-0.37,2.76 -0.75,5.51 -1.17,8.26l-0.37 2.44c-0.4,2.55 -0.82,5.09 -1.26,7.62 -0.18,1.04 -0.36,2.08 -0.55,3.12 -0.43,2.37 -0.88,4.74 -1.35,7.1 -0.22,1.13 -0.45,2.27 -0.68,3.41 -0.46,2.22 -0.94,4.43 -1.43,6.64 -0.29,1.31 -0.58,2.62 -0.88,3.93 -0.48,2.06 -0.97,4.12 -1.48,6.18 -0.36,1.47 -0.72,2.94 -1.1,4.41 -0.49,1.89 -0.98,3.78 -1.49,5.66 -0.44,1.61 -0.88,3.21 -1.33,4.8 -0.49,1.76 -1,3.51 -1.51,5.26 -0.5,1.68 -1,3.36 -1.52,5.04 -0.51,1.68 -1.04,3.36 -1.58,5.04 -0.52,1.63 -1.05,3.27 -1.6,4.9 -19.8,-43.71 -38.71,-87.88 -61.04,-130.38 -45.31,-89.3 -108.11,-167.78 -166.73,-248.44 -37.84,-51.88 -79,-101.18 -119.67,-150.8 78.8,54.69 153.29,115.77 221.11,183.66 46.04,45.91 84.45,98.53 125.16,149.01 7.37,9.26 14.56,18.77 23.24,26.88zm-46.09 228.5l0 0 0.01 -0.03c-18.62,-28.74 -39.37,-56.04 -59.09,-84.08 -75.58,-105.5 -161.44,-203.52 -254.93,-293.53 -99.13,-95.75 -207.53,-181.99 -323.79,-256.1l-159.71 0c81.81,66.28 154.86,142.47 225.26,220.5 19.69,21.82 39.9,43.24 58.1,66.33 30.53,-0.25 62.37,0.18 87.4,2.91 3.62,0.37 7.23,0.83 10.84,1.4 5.54,0.84 10.61,1.83 15.09,2.99 6.7,1.69 13.35,3.77 19.89,6.24 20.62,7.63 39.9,18.92 56.2,33.7 25.6,23.06 43.48,55.75 45.21,90.49 0.71,10.69 -0.12,21.37 -2.3,31.78 -4.86,25.83 -17.78,47.95 -35.75,65.85 0.03,1.07 0.12,2.94 0.15,3.91 24.84,33.87 50.67,67.11 75.13,101.37 39.11,53.13 75.38,108.27 112.2,163 0.61,-0.44 1.22,-0.89 1.83,-1.34l0.02 -0.02 0.05 -0.04c1.26,-0.93 2.51,-1.87 3.75,-2.82 1.69,-1.29 3.36,-2.58 5.03,-3.89 1.05,-0.83 2.09,-1.66 3.13,-2.49 1.65,-1.32 3.27,-2.65 4.9,-4 1.08,-0.89 2.16,-1.8 3.23,-2.7 1.48,-1.26 2.96,-2.53 4.43,-3.81 1.04,-0.91 2.07,-1.82 3.1,-2.74 1.69,-1.49 3.36,-3.01 5.02,-4.53 0.85,-0.78 1.69,-1.57 2.54,-2.36 1.69,-1.58 3.37,-3.18 5.04,-4.8 0.9,-0.87 1.8,-1.74 2.69,-2.61 1.48,-1.47 2.96,-2.94 4.42,-4.43 0.97,-0.98 1.93,-1.96 2.88,-2.94 1.45,-1.51 2.89,-3.02 4.32,-4.54 0.9,-0.96 1.79,-1.92 2.68,-2.88 1.51,-1.64 3.01,-3.3 4.5,-4.97 0.84,-0.94 1.68,-1.89 2.52,-2.84 1.42,-1.62 2.83,-3.26 4.22,-4.9 0.94,-1.1 1.87,-2.2 2.79,-3.31 1.23,-1.47 2.44,-2.94 3.64,-4.43 0.94,-1.15 1.86,-2.3 2.78,-3.46 1.24,-1.56 2.47,-3.13 3.69,-4.7 0.9,-1.17 1.79,-2.34 2.68,-3.52 1.25,-1.65 2.49,-3.32 3.73,-5 0.93,-1.27 1.85,-2.54 2.77,-3.82 1.08,-1.49 2.14,-3 3.2,-4.52 0.89,-1.27 1.78,-2.55 2.65,-3.84 1.02,-1.48 2.02,-2.97 3.02,-4.47 0.92,-1.38 1.84,-2.78 2.74,-4.17 1.06,-1.62 2.1,-3.25 3.13,-4.88 0.85,-1.36 1.7,-2.71 2.54,-4.07 1,-1.63 1.99,-3.26 2.97,-4.9 0.84,-1.4 1.67,-2.8 2.5,-4.21 0.91,-1.56 1.81,-3.12 2.7,-4.69 0.78,-1.37 1.55,-2.74 2.31,-4.12 0.89,-1.6 1.78,-3.22 2.65,-4.84 0.77,-1.43 1.54,-2.87 2.29,-4.31 0.94,-1.79 1.87,-3.58 2.78,-5.38 0.75,-1.47 1.49,-2.95 2.23,-4.44zm-502.08 805.34l0 0 -178.9 0.29c-33.4,-64.44 -70.05,-127.37 -113.72,-185.45 -42.18,-55.4 -81.86,-113.48 -133.01,-161.21 -3.99,-3.32 -2.62,-8.97 -3.07,-13.47 0.35,-23.66 -0.22,-47.36 0.42,-71.05 104.28,81.39 198.31,175.01 288.8,271.27 48.21,51.6 96.45,103.42 139.43,159.55l0.05 0.07zm-371.03 0.59l0 0c-13.56,-37.23 -33.46,-71.64 -52.4,-106.28 -35.03,-62.83 -72.29,-124.71 -115.98,-181.99l-35.27 0.12 0 126.31c56.2,46.49 108.88,98.73 147.26,161.21 16.98,0.48 33.97,-0.5 50.91,0.64l5.48 -0.01zm-203.65 -1290.15l0 0 0 -149.52 101.5 0c43.27,35.41 85.25,72.54 123.79,113.09 69.23,71.36 138,143.27 202.98,218.56 20.91,23.66 40.42,48.53 61.14,72.35l0.03 1.16 0 0.62c-0.57,51.16 0.42,102.33 -0.51,153.49 -42.15,-42.31 -83.56,-85.35 -126.95,-126.34 -110.5,-106.39 -227.78,-207.86 -361.98,-283.41zm147 441.93l0 0c45.38,56.17 81.52,119.07 118.75,180.72 33.24,56.01 65.93,112.46 93.55,171.49 27.17,57.57 55.43,114.76 78.03,174.34 -14.2,-16.86 -29.88,-32.41 -43.04,-50.13 -60.09,-73.57 -121.61,-146.01 -186.43,-215.46 -19.51,-20.95 -40.07,-40.87 -60.73,-60.57 -0.7,-66.76 -0.51,-133.59 -0.13,-200.39zm357.45 -16.12l0 0c34.87,37.29 70.37,74.01 105.36,111.24 52.46,55.75 106.84,110.06 152.37,171.84 -33.88,-101.4 -87.48,-194.89 -147.19,-283.11 -36.85,-0.13 -73.69,-0.19 -110.54,0.03zm-287.17 -106.52l0 0c61.11,52.62 121.01,106.84 177.11,164.86 69.57,72.92 135.76,149.14 198.06,228.35 -34.23,0.7 -68.62,1.31 -102.85,0 -34.61,-56.71 -69.76,-113.19 -107.5,-167.88 -43.62,-62.65 -89.82,-123.38 -135.51,-184.49 -9.67,-13.66 -20.59,-26.5 -29.31,-40.84z"/>
  </g>
 </g>
</svg>
