<?xml version="1.0" encoding="UTF-8"?>
<!DOCTYPE svg PUBLIC "-//W3C//DTD SVG 1.1//EN" "http://www.w3.org/Graphics/SVG/1.1/DTD/svg11.dtd">
<!-- Creator: CorelDRAW -->
<svg xmlns="http://www.w3.org/2000/svg" xml:space="preserve" width="2000px" height="1600px" version="1.1" style="shape-rendering:geometricPrecision; text-rendering:geometricPrecision; image-rendering:optimizeQuality; fill-rule:evenodd; clip-rule:evenodd"
viewBox="0 0 2000 1600"
 xmlns:xlink="http://www.w3.org/1999/xlink">
 <defs>
  <style type="text/css">
   <![CDATA[
    .fil2 {fill:#040304}
    .fil0 {fill:#B5B6B9}
    .fil1 {fill:#FAFDFA}
   ]]>
  </style>
 </defs>
 <g id="Capa_x0020_1">
  <metadata id="CorelCorpID_0Corel-Layer"/>
  <g id="Providence_x0020_Friars.cdr">
   <path class="fil0" d="M1150.29 263.6l52.63 0c59.18,5.16 117.46,20.59 171.34,45.7 38.71,18.81 76.36,41.97 105.38,74.23 -26.86,15.1 -53.66,30.26 -80.45,45.5 5.23,15.22 10.99,30.27 16.47,45.41 0.48,2.5 2.56,5.88 0.09,7.97 -6.07,6.86 -14.01,11.95 -19.32,19.51 -0.07,3.62 1.39,7.06 2.52,10.44 8.04,21.19 14.59,42.91 22.27,64.22 4.37,11.86 5.55,26.09 -1.6,37.11 -4.9,8.06 -16.16,9.58 -19.95,18.57 -9.07,17.02 -18.24,33.99 -27.12,51.12 3.75,12.96 10.13,25.16 12.58,38.43 -19.44,31.85 -42.07,61.8 -60.91,94.03 59.85,33.58 126.33,52.06 191.71,71.45 5.42,1.63 11.09,2.25 16.77,2.28 108.03,-0.15 216.05,0 324.08,-0.07 14.4,0.09 28.84,-0.51 43.22,0.79l0 5.33c-2.81,8.23 -4.73,16.72 -6.14,25.32 -22.56,112.8 -45.27,225.57 -67.78,338.37 -5.4,25.66 -9.91,51.53 -15.82,77.09l-1066.03 0c-59.49,-1.08 -118.99,-0.17 -178.49,-0.48 -91.36,0.02 -182.73,-0.02 -274.1,0.05 -2.88,-13.03 -5.26,-26.16 -8.67,-39.07 -60.98,0.14 -121.99,0.16 -182.97,0l0 -2.4c9.34,-10.68 16.34,-23.07 24.29,-34.76 11.71,-17.8 23.54,-35.51 35.25,-53.3 5.74,-8.9 13.16,-17.21 15.19,-27.91 16.23,-78.7 32.41,-157.44 48.75,-236.14 0.77,-4.22 0.74,-8.56 -0.29,-12.74 -7.73,-30.39 -16.32,-60.6 -22.75,-91.3 57.7,-0.33 115.39,-0.05 173.09,-0.17 18.38,0.03 37.01,-0.43 55.08,3.51 7.53,1.51 14.47,5.01 21.98,6.62 5.67,-1.37 10.54,-4.8 15.72,-7.32 29.09,-14.4 58.37,-28.44 88.03,-41.59 56.45,-26.04 112.59,-55.34 158.38,-98.09 19.8,-19.12 37.2,-41.01 49.66,-65.64 18.38,-35.45 26.78,-75.45 28.15,-115.17 1.63,-41.6 -6.46,-83.72 -24.79,-121.18 -6.84,-13.63 -16.18,-25.73 -24.58,-38.38 27.17,-2.63 54.58,-3.83 81.26,-10.03 45.82,-8.83 88.49,-28.25 132.32,-43.53 63.09,-22.44 128.61,-38.98 195.55,-43.78z"/>
   <path class="fil1" d="M1214.01 510.73c45.33,-24.58 90.31,-49.83 135.77,-74.21 3.57,11.42 7.48,22.75 11.44,34.08 -7.36,6.7 -14.76,13.37 -22.12,20.09 -2.6,-6.24 -5.28,-12.43 -7.83,-18.67 -24.96,13.68 -50.21,26.83 -74.76,41.2 14.09,0.68 28.18,0.87 42.27,1.61 -2.88,8.55 -5.57,17.14 -8.21,25.78 19.32,-11.33 38.47,-22.92 57.86,-34.15 9.87,27.6 19.87,55.17 28.61,83.18 -17.62,-0.05 -35.26,0.29 -52.85,-0.12 -6.86,-2.78 -12.38,-8.06 -18.79,-11.71 1.56,12.72 4.82,25.18 6.79,37.85 9.96,0.21 19.95,0.09 29.93,0.12 -3.26,7.51 -6.31,15.09 -9.82,22.48 -17.66,2.69 -33.81,10.76 -48.86,20.05 18.26,0.16 36.5,-0.72 54.74,-0.82 -4.15,5.33 -7.7,11.18 -12.5,15.96 -8.93,6 -19.03,9.96 -28.2,15.58 8.33,0.91 16.66,1.65 24.98,2.61 4.23,8.59 8.6,17.14 13.08,25.61 -9.81,13.22 -19.32,26.71 -29.54,39.62 -41.59,-7.56 -83.69,-21.28 -116.02,-49.53 -21.55,-18.46 -31.39,-48.48 -27.84,-76.25 3.84,-10.25 8.84,-20.04 12.89,-30.22 18.19,5.55 36.02,12.27 54.24,17.76 -13.01,-31.84 -22.68,-66 -20.95,-100.7 -0.94,-4.03 2.83,-5.76 5.69,-7.2zm477.65 425.52l0 0c50.73,-0.12 101.47,0 152.23,-0.07 -5.04,26.32 -10.44,52.56 -15.48,78.86 -14.4,-8.33 -27.14,-19.29 -41.33,-27.89 -10.22,-0.96 -20.52,-0.29 -30.77,-0.31 -2.97,15.58 -6.14,31.13 -9.17,46.7 14.12,0 28.25,0.03 42.36,0.05 -2.71,14.93 -5.97,29.76 -8.68,44.69 -14.24,0.05 -28.42,0 -42.63,0.07 -3.07,17.38 -7.1,34.59 -10.01,52.01 10.56,-0.74 21.53,1.42 31.83,-1.27 17.9,-9.77 35.71,-19.82 53.33,-30.1 -3.99,27.53 -11.09,54.53 -16.08,81.89 -51.34,-0.14 -102.68,-0.17 -154.04,0.02 8.21,-12.24 17.45,-23.85 25.04,-36.43 11.76,-56.18 23.56,-112.41 34.44,-168.77 -2.86,-13.36 -7.54,-26.25 -11.04,-39.45zm-125.36 6.09l0 0c-16,8.76 -25,26.24 -28.39,43.61 -9.48,46.47 -18.33,93.05 -27.72,139.54 -2.49,13.61 -5.64,29.09 2.11,41.64 6.77,10.89 20.48,13.49 32.36,13.65 30.74,0.03 61.48,-0.02 92.23,0.03 5.83,-30.07 11.95,-60.1 17.71,-90.19 -16.66,-0.03 -33.29,0.14 -49.92,-0.05 -2.81,13.29 -4.78,26.81 -8.26,39.96 -10.34,-0.39 -20.66,-0.29 -31,-0.1 9.45,-47.88 18.91,-95.76 28.36,-143.64 10.54,-0.02 21.08,-0.09 31.64,0.03 -2.09,9.4 -4.3,18.84 -5.4,28.44 15.74,-0.29 31.53,-0.2 47.3,-0.03 4.97,-26.52 10.46,-52.94 15.53,-79.44 -26.04,0.07 -52.08,-0.02 -78.1,0.05 -12.98,0.29 -26.78,-0.07 -38.45,6.5zm-210.93 -6.16l0 0c24.05,0 48.12,0.09 72.17,0 5.61,29.3 11.01,58.65 16.6,87.96 3.2,18.55 8.31,36.76 9.48,55.63 6.27,-48.27 18.15,-95.59 26.55,-143.5 23.09,-0.12 46.17,-0.14 69.29,0.03 -9.75,16.99 -20.28,33.6 -29.33,50.95 -10.03,45.96 -19.18,92.16 -28.92,138.19 -1.25,6.48 -3.17,12.89 -3.53,19.51 4.08,11.95 9.19,23.57 13.54,35.45 -24.34,-0.41 -48.65,0.07 -72.99,-0.26 -6.93,-36.65 -14.11,-73.25 -21.6,-109.8 -2.13,-10.56 -2.37,-21.34 -3.53,-32.02 -7.77,47.38 -17.06,94.61 -26.21,141.7 -22.87,1.87 -46.48,0.14 -69.64,0.86 7.77,-13.22 18.84,-24.53 25.22,-38.45 10.73,-51.24 21.48,-102.53 31.8,-153.84 -1.34,-17.59 -6.26,-34.92 -8.9,-52.41zm-159.27 -0.05l0 0c3.15,13.53 8.33,26.57 10.92,40.22 -11.2,55.95 -22.68,111.87 -34.29,167.74 -7.66,12.67 -16.88,24.43 -25.15,36.72 51.81,0.02 103.6,-0.12 155.42,0.07 5.5,-27.29 11.16,-54.53 16.01,-81.94 -16.23,9.15 -32.64,17.96 -48.82,27.2 -11.06,7.44 -25.06,3 -37.51,4.17 2.45,-17.42 6.96,-34.46 9.57,-51.86 14.21,-0.27 28.45,-0.15 42.65,-0.07 3.24,-14.88 5.81,-29.91 9.12,-44.79 -14.2,-0.09 -28.39,-0.02 -42.57,-0.05 2.95,-15.6 6.21,-31.12 9.09,-46.72 10.44,0.28 21,-0.92 31.35,0.52 13.7,9.15 27.21,18.63 40.46,28.44 5.59,-26.44 10.44,-53.06 15.91,-79.53 -50.73,-0.17 -101.44,0.09 -152.16,-0.12zm-423.57 -0.27l0 0c25.27,-0.07 50.54,0 75.81,-0.07 -5.68,15.03 -17.4,28.37 -16.94,45.15 -1.49,32.9 -4.56,65.73 -5.64,98.69 -0.22,15.33 -2.83,30.47 -4.06,45.72 12.8,-44.38 28.78,-87.75 42.89,-131.72 1.83,-7.63 7.3,-15.31 4.42,-23.33 -3.39,-11.49 -6.55,-23.06 -10.06,-34.51 95.81,0.1 191.62,0.03 287.43,0 11.08,-0.17 23.54,0.39 31.94,8.71 10.63,9.36 10.85,24.99 8.16,37.85 -9.77,47.59 -18.84,95.33 -28.54,142.92 -3.72,16.75 -9.64,34.4 -23.3,45.7 -9.46,7.8 -22.08,9.67 -33.96,9.84 -68.47,0 -136.94,-0.1 -205.42,0.05 6.17,-12.94 14.67,-24.82 19.56,-38.28 11.43,-55.51 23.02,-111.03 34.01,-166.61 -1.32,-13.18 -3.02,-26.4 -5.45,-39.43 -31.24,81.48 -62.76,162.86 -94.22,244.24 -26.35,0.08 -52.73,-0.12 -79.08,0.12 0.29,-81.69 0.98,-163.39 2.45,-245.04zm242.06 26.72l0 0c-3.86,5.88 -9.21,11.2 -10.2,18.48 -11.11,54.6 -22.34,109.15 -33.53,163.73 4.66,11.75 9.15,23.59 14.12,35.23 7.44,-12.29 17.01,-23.28 23.9,-35.84 12.07,-55.87 22.85,-112.05 34.77,-168 -3.45,-12.98 -7,-25.94 -10.87,-38.8 -6.57,8.04 -12.04,16.87 -18.19,25.2zm83.26 24.19l0 0c-9.03,47.93 -19.76,95.59 -27.72,143.69 10.17,-1.42 21.84,2.2 31.13,-1.83 9.33,-47.25 18.67,-94.51 28,-141.77 -10.48,-0.21 -20.95,-0.16 -31.41,-0.09zm-439.87 -49.3l0 0c19.46,-2.9 39.26,-1.22 58.87,-1.58 13.97,0.45 31.34,-0.58 40.73,11.93 9.19,13.41 5.61,30.76 3.21,45.72 -8.64,43.84 -17.06,87.72 -26.11,131.49 -4.25,19.15 -11.54,40.71 -30.38,50.04 -17.74,8.69 -38.14,4.87 -57.15,5.71 -16.44,-0.43 -35.4,2.31 -49.17,-8.66 -12.15,-10.44 -10.64,-28.32 -8.04,-42.53 9.84,-48.55 19.51,-97.13 29.52,-145.63 4.03,-20.42 16.41,-42.26 38.52,-46.49zm16.7 49.3l0 0c-9.74,47.18 -18.12,94.7 -28.58,141.72 0.62,0.5 1.84,1.51 2.47,2.01 9.77,-0.48 19.58,0.37 29.33,-0.93 9.36,-47.59 18.6,-95.21 28.24,-142.73 -10.48,-0.14 -20.97,-0.12 -31.46,-0.07zm-212.06 -50.4l0 0c-13.11,66.86 -26.64,133.65 -39.82,200.5 -0.84,4.07 -1.46,8.44 -4.1,11.83 -7.52,10.65 -14.93,21.36 -22.28,32.13 25.32,-0.05 50.67,-0.14 75.99,0.05 6.31,-33.36 13.05,-66.65 19.68,-99.96 10.75,0.05 21.5,0 32.25,0.05 -4.99,24.43 -10.12,48.84 -15.12,73.29 -1.34,6.92 -2.66,14.57 1.01,21.05 4.08,4.83 11.09,5.33 16.97,5.5 18.94,-0.03 37.85,0 56.78,-0.03 -4.94,-11.95 -10.08,-23.8 -15.26,-35.64 3.6,-17.8 7.51,-35.56 11.14,-53.37 3.81,-15.19 -7.3,-30.36 -21.92,-34.1 11.6,-3.97 23,-10.54 29.19,-21.53 9.14,-15.91 10.97,-34.56 14.73,-52.18 2.21,-12.6 3.63,-27.77 -6.02,-37.78 -10.06,-11.13 -26.33,-9.84 -39.94,-10.34 -31.1,0.26 -62.2,-0.62 -93.28,0.53zm48.33 50.64l0 0c10.66,-0.65 21.36,-0.12 32.04,-0.15 -3.26,16.2 -6.43,32.45 -9.67,48.68 -10.75,-0.08 -21.5,0 -32.26,-0.17 3.29,-16.11 5.98,-32.43 9.89,-48.36zm-251.49 -102.29l0 0c46.82,0.12 93.67,-0.12 140.49,0.12 13.99,0.62 30,2.3 39.67,13.75 9.84,11.93 8.64,28.54 6.27,42.82 -7.73,38.85 -15.6,77.66 -23.52,116.49 -3.82,18.94 -9.89,39 -25.11,52.06 -11.08,9.65 -26.08,13.03 -40.44,13.32 -18.07,0.17 -36.12,-0.19 -54.16,0.19 -4.54,23.79 -9.72,47.45 -14.55,71.19 -0.67,3 -0.74,6.14 -0.02,9.17 3.33,15.62 7.29,31.12 10.51,46.8 -37.42,-0.15 -74.81,-0.1 -112.2,-0.03 9.24,-16.39 19.8,-32.02 29.4,-48.19 3.36,-5.91 3.91,-12.84 5.4,-19.37 15.72,-76.46 31.46,-152.95 47.26,-229.42 1.34,-8.25 5.2,-16.72 2.23,-25.08 -3.87,-14.56 -7.47,-29.2 -11.23,-43.82zm78.96 61.27l0 0c-7.92,39.34 -15.65,78.72 -23.6,118.06 13.2,-0.05 26.4,0.07 39.63,-0.07 7.37,-39.41 15.43,-78.68 23.42,-117.94 -13.15,-0.17 -26.3,-0.07 -39.45,-0.05zm799 -266.78l0 0c-7.12,18.74 -15.96,36.74 -23.71,55.22 32.64,10.03 64.11,23.45 94.83,38.31 3.09,-5.04 6.33,-10.01 9.57,-14.98 -18.69,-7.22 -36.74,-16.73 -52.17,-29.61 -14.57,-12.75 -22.47,-30.96 -28.52,-48.94z"/>
   <path class="fil2" d="M1033.6 299.55c72.33,-19.08 149.14,-27.93 222.96,-12.14 71.54,14.57 141.38,43.9 197.06,91.85 -24.14,14.97 -49.32,28.17 -73.96,42.29 6.43,18.26 12.91,36.52 19.63,54.71 -7.01,7.68 -16.39,14.31 -21.72,22.85 8.13,23.57 16.56,47.11 24.57,70.78 3.7,10.92 9.34,24.31 1.35,34.7 -5.95,9.72 -18.03,10.83 -28.32,10.78 -3.34,7.42 -6.48,14.9 -9.03,22.61 4.04,0.48 8.12,1.01 12.17,1.56 -8.76,14.54 -17.59,29.06 -26.09,43.8 5.26,12.07 10.35,24.21 15.51,36.36 -16.68,23.83 -33,47.88 -49.49,71.85 -21.99,-5.54 -43.44,-13 -65.35,-18.86 -3.65,5.47 -8.04,10.46 -10.8,16.46 20.16,14.26 42.24,25.78 64.1,37.32 64.8,33.94 134.79,56.4 204.84,76.59 10.08,3.5 20.86,2.13 31.32,2.32 112.8,0.05 225.63,-0.09 338.43,0.08 -27.84,138.28 -56.74,276.36 -84.58,414.64 -304.63,0.51 -609.29,0.08 -913.94,0.22 -192.7,-0.12 -385.37,0.19 -578.04,-0.17 -2.96,-12.93 -6.15,-25.85 -9.22,-38.76 -44.23,0.15 -88.46,0.03 -132.7,0.05 -11.09,-0.12 -22.2,0.53 -33.24,-0.72 17.64,-26.11 34.71,-52.61 52.32,-78.77 2.91,-4.53 6.41,-8.95 7.44,-14.37 16.88,-82.44 33.91,-164.88 51.03,-247.3 1.58,-7.42 -2.07,-14.57 -3.55,-21.72 -5.19,-21.7 -11.62,-43.13 -15.97,-65.02 56.69,0.7 113.41,-0.09 170.09,0.32 17.84,0.84 36.72,0.5 52.83,9.43 3.67,1.56 7.63,5.78 11.73,2.66 27.24,-13.75 54.56,-27.38 82.01,-40.7 58.73,-27.67 117.65,-56.81 168.31,-97.92 40.16,-32.67 73.01,-75.74 87.89,-125.79 22.66,-74.25 18.19,-159.38 -22.92,-226.48 43.39,-4.32 86.35,-13.88 127.15,-29.4 44.79,-17.07 89.79,-33.84 136.18,-46.11zm303.12 913.52l0 0 5.35 2.35c-2.81,9 -4.39,18.33 -5.71,27.64 -2.09,8.74 -4.1,17.57 -4.58,26.57 -1.95,0.89 -3.87,1.8 -5.79,2.74 10.59,0.98 21.24,0.6 31.85,0.31 -1.01,-0.77 -3,-2.33 -3.98,-3.1 1.24,-4.63 2.4,-9.28 2.9,-14.06 2.4,0 4.82,0.02 7.27,0.07 1.68,4.78 3.34,9.58 4.92,14.43 -1.2,0.62 -3.57,1.85 -4.77,2.45 11.42,0.74 22.89,0.69 34.31,0 -1.72,-1.04 -3.45,-2.05 -5.15,-3.05 -2.67,-6.7 -6.34,-12.96 -8.62,-19.8 14.83,-2.57 23.62,-23.21 12.24,-34.42 -6.94,-3.7 -14.93,-2.73 -22.46,-2.83 -12.6,0.36 -25.23,-0.6 -37.78,0.7zm24.91 14.49l0 0c-0.36,4.68 -0.74,9.36 -1.13,14.04 7.71,0.55 20.07,-1.44 17.5,-12.19 -1.15,0.09 -3.43,0.29 -4.58,0.38l-0.48 -2.25c-3.8,0 -7.54,0.02 -11.31,0.02zm-216.36 -15.36l0 0c-0.02,2.28 -0.05,4.56 -0.07,6.86 -10.92,16.06 -20.14,33.32 -30.34,49.88 -1.53,1.34 -3.14,2.64 -4.8,3.84 10.35,0.26 20.69,0.14 31.04,0.14 -3.48,-2.71 -2.74,-6.48 -0.48,-9.84 7.94,0.43 15.88,0.31 23.83,0.26 0.67,4.71 -1.47,7.76 -5.86,9.08 10.68,0.91 21.41,0.38 32.11,0.45 -1.46,-1.6 -2.9,-3.24 -4.29,-4.87 -0.34,-3.62 -0.89,-7.2 -1.73,-10.73 -1.73,-15.05 -7.49,-29.78 -5.86,-45.04 -11.18,0.33 -22.36,0.33 -33.55,-0.03zm10.42 17.64l0 0c-0.36,2.78 -1.04,5.5 -1.99,8.16 -1.35,3.41 -3.63,5.95 -6.84,7.61 1.63,0.72 4.89,2.18 6.52,2.9 3.15,0.1 6.03,-0.72 8.64,-2.44 -1.7,-5.48 -2.33,-11.17 -2.47,-16.85 -0.96,0.16 -2.9,0.48 -3.86,0.62zm-198.07 -17.74l0 0c-0.39,6.37 -1.73,12.65 -3.05,18.89 -2.38,12.82 -5.79,25.49 -6.77,38.52 -1.92,0.94 -3.82,1.92 -5.69,2.93 10.56,0.79 21.15,0.58 31.71,0.19 -1.01,-0.74 -3,-2.25 -4.01,-3.02 3.84,-17.86 7.65,-35.78 10.32,-53.86 1.34,-0.77 4.01,-2.3 5.35,-3.07 -9.29,-0.38 -18.58,-0.21 -27.86,-0.58zm-208.78 0.1l0 0c0.41,4.63 0.26,9.31 -0.41,13.94 -1.37,3.87 -2.04,7.9 -2.69,11.93 -0.96,3.89 -1.63,7.85 -2.3,11.83 -1.2,4.04 -1.78,8.21 -2.18,12.41 -1.04,4.11 -1.68,8.83 -6.53,10.16 9.74,0.62 19.49,0.33 29.23,0.64 -0.41,-5.78 -0.19,-11.57 0,-17.33 2.86,-0.09 5.74,-0.19 8.62,-0.24 1.72,5.74 4.56,11.53 2.8,17.65 10.3,-0.46 20.6,-0.25 30.89,-0.39 -1.89,-1.92 -3.79,-3.86 -5.66,-5.76 -2.55,-5.66 -5.11,-11.35 -6.87,-17.3 8.76,-3.39 17.67,-11.11 16.18,-21.48 1.37,-6.65 -3,-11.43 -7.68,-15.31 -17.78,-1.18 -35.62,-0.03 -53.4,-0.75zm22.18 15.17l0 0c-1.13,4.61 -2.19,9.24 -3,13.94 3.86,-0.09 7.75,-0.14 11.64,-0.12 5.08,-1.53 6.33,-6.07 6.55,-10.89 -2.21,-0.82 -4.39,-1.61 -6.58,-2.43 -2.16,-0.12 -6.45,-0.36 -8.61,-0.5zm772.68 3.21l0 0c0.09,2.02 0.24,6.05 0.33,8.09 3.34,9.1 14.04,10.49 22.44,11.02 2.74,0.58 5.5,1.18 8.28,1.75l0.12 4.92c-6.17,0.14 -12.29,-0.17 -18.4,-0.77 -4.42,-1.68 -9.41,-3.12 -8.79,-9.14 -3.86,7.01 -9.24,12.98 -14.95,18.5 3.09,1.71 6.16,3.41 9.26,5.16 13.83,5.09 29.71,7.18 43.73,1.49 7.18,-3.05 12.22,-9.34 15.34,-16.3 0,-3.81 0.04,-7.6 0.12,-11.4 -2.74,-2.06 -5.55,-4.03 -8.38,-5.88 -2.52,-0.74 -5.02,-1.51 -7.46,-2.32 -5.14,-1.37 -10.47,-1.68 -15.75,-1.83 -0.41,-7.05 6.63,-6.69 11.43,-6.17 5.11,1.93 10.29,3.65 15.52,5.26 4.16,-5.18 8.57,-10.15 13.2,-14.9 -8.92,-2.28 -17.11,-7.35 -26.49,-7.71 -15.41,-1.37 -33.99,4.2 -39.55,20.23zm-938.6 -18l0 0c-17.97,-0.28 -35.97,-0.11 -53.95,-0.14 0.96,0.82 2.86,2.43 3.79,3.24 -3.98,17.86 -7.68,35.83 -10.44,53.93 -1.82,0.91 -3.67,1.87 -5.47,2.83 10.32,0.75 20.69,0.41 31.06,0.48 -1.06,-1.89 -2.09,-3.77 -3.12,-5.64 1.97,-4.39 2.47,-9.19 2.78,-13.92 7.73,-0.05 15.48,-0.43 23.21,0.02 0.55,1.01 1.68,3.03 2.23,4.04 0.7,-2.45 1.44,-4.9 2.18,-7.32 0.77,-4.71 0.89,-9.8 4.06,-13.71 -9.19,0.79 -18.41,0.63 -27.6,0.7 0.1,-1.87 0.31,-5.64 0.41,-7.51 9.19,0.28 18.43,-0.36 27.6,0.33 0.67,0.96 1.97,2.88 2.62,3.84 1.05,-8.45 3.24,-16.7 4.29,-25.15 -0.91,1.01 -2.73,2.98 -3.65,3.98zm492.75 -225.81l0 0c-9.03,47.93 -19.76,95.59 -27.72,143.69 10.17,-1.42 21.84,2.2 31.13,-1.83 9.33,-47.25 18.67,-94.51 28,-141.77 -10.48,-0.21 -20.95,-0.16 -31.41,-0.09zm-423.17 0l0 0c-9.74,47.18 -18.12,94.7 -28.58,141.72 0.62,0.5 1.84,1.51 2.47,2.01 9.77,-0.48 19.58,0.37 29.33,-0.93 9.36,-47.59 18.6,-95.21 28.24,-142.73 -10.48,-0.14 -20.97,-0.12 -31.46,-0.07zm-163.73 0.24l0 0c-3.91,15.93 -6.6,32.25 -9.89,48.36 10.76,0.17 21.51,0.09 32.26,0.17 3.24,-16.23 6.41,-32.48 9.67,-48.68 -10.68,0.03 -21.38,-0.5 -32.04,0.15zm-172.53 -41.02l0 0c-7.92,39.34 -15.65,78.72 -23.6,118.06 13.2,-0.05 26.4,0.07 39.63,-0.07 7.37,-39.41 15.43,-78.68 23.42,-117.94 -13.15,-0.17 -26.3,-0.07 -39.45,-0.05zm676.17 16.59l0 0c-3.86,5.88 -9.21,11.2 -10.2,18.48 -11.11,54.6 -22.34,109.15 -33.53,163.73 4.66,11.75 9.15,23.59 14.12,35.23 7.44,-12.29 17.01,-23.28 23.9,-35.84 12.07,-55.87 22.85,-112.05 34.77,-168 -3.45,-12.98 -7,-25.94 -10.87,-38.8 -6.57,8.04 -12.04,16.87 -18.19,25.2zm147.63 -519.77l0 0c-44.6,44.16 -84.2,94.92 -107.67,153.58 -12.46,30.21 -17.76,62.78 -19.44,95.27 -13.46,-21.52 -22.66,-45.72 -26.47,-70.84 -8.04,-50 -4.42,-101 1.39,-150.99 -6.93,18.92 -11.95,38.45 -17.11,57.89 -12.96,52.27 -22.2,107.57 -9.65,160.87 -36.05,-21.79 -63.24,-54.86 -86.42,-89.45 6.89,33.25 17.97,66.39 37.34,94.59 -24.79,5.21 -49.58,11.14 -73.08,20.78 -21.84,8.71 -42.55,19.95 -63.36,30.84 20.33,-5.33 40.32,-11.95 61.01,-15.93 73.08,-15.1 149.62,-19.68 222.86,-3.07 -4.89,-23.57 -7.05,-47.91 -4.24,-71.91 6.02,-56.47 32.59,-108.29 62.88,-155.42 27.76,-42.2 60.28,-81.1 95.49,-117.24 -26.71,17.49 -50.25,39.33 -73.53,61.03zm51.79 67.92l0 0c-2.86,1.44 -6.63,3.17 -5.69,7.2 -1.73,34.7 7.94,68.86 20.95,100.7 -18.22,-5.49 -36.05,-12.21 -54.24,-17.76 -4.05,10.18 -9.05,19.97 -12.89,30.22 -3.55,27.77 6.29,57.79 27.84,76.25 32.33,28.25 74.43,41.97 116.02,49.53 10.22,-12.91 19.73,-26.4 29.54,-39.62 -4.48,-8.47 -8.85,-17.02 -13.08,-25.61 -8.32,-0.96 -16.65,-1.7 -24.98,-2.61 9.17,-5.62 19.27,-9.58 28.2,-15.58 4.8,-4.78 8.35,-10.63 12.5,-15.96 -18.24,0.1 -36.48,0.98 -54.74,0.82 15.05,-9.29 31.2,-17.36 48.86,-20.05 3.51,-7.39 6.56,-14.97 9.82,-22.48 -9.98,-0.03 -19.97,0.09 -29.93,-0.12 -1.97,-12.67 -5.23,-25.13 -6.79,-37.85 6.41,3.65 11.93,8.93 18.79,11.71 17.59,0.41 35.23,0.07 52.85,0.12 -8.74,-28.01 -18.74,-55.58 -28.61,-83.18 -19.39,11.23 -38.54,22.82 -57.86,34.15 2.64,-8.64 5.33,-17.23 8.21,-25.78 -14.09,-0.74 -28.18,-0.93 -42.27,-1.61 24.55,-14.37 49.8,-27.52 74.76,-41.2 2.55,6.24 5.23,12.43 7.83,18.67 7.36,-6.72 14.76,-13.39 22.12,-20.09 -3.96,-11.33 -7.87,-22.66 -11.44,-34.08 -45.46,24.38 -90.44,49.63 -135.77,74.21zm-76.59 168.48l0 0c-7.12,18.74 -15.96,36.74 -23.71,55.22 32.64,10.03 64.11,23.45 94.83,38.31 3.09,-5.04 6.33,-10.01 9.57,-14.98 -18.69,-7.22 -36.74,-16.73 -52.17,-29.61 -14.57,-12.75 -22.47,-30.96 -28.52,-48.94zm-332.06 93.79l0 0c-62.95,13.99 -123.86,36.1 -182.28,63.22 13.85,-2.91 27.17,-7.83 40.87,-11.36 74.5,-20.01 150.96,-34.1 228.17,-36.88 69.02,-2.93 138.74,6.67 203.74,30.38 56.01,20.04 108.28,49.99 154.7,87.14 45.58,-0.47 91.15,0.36 136.73,-0.36 -30.24,-10.96 -60.17,-23.04 -88.85,-37.65 -36.62,-18.91 -71.62,-40.85 -108.58,-59.14 -40.03,-20.44 -83.06,-35.06 -127.37,-42.84 -85.05,-15.43 -173.06,-12.24 -257.13,7.49zm-545.9 111.72l0 0c3.76,14.62 7.36,29.26 11.23,43.82 2.97,8.36 -0.89,16.83 -2.23,25.08 -15.8,76.47 -31.54,152.96 -47.26,229.42 -1.49,6.53 -2.04,13.46 -5.4,19.37 -9.6,16.17 -20.16,31.8 -29.4,48.19 37.39,-0.07 74.78,-0.12 112.2,0.03 -3.22,-15.68 -7.18,-31.18 -10.51,-46.8 -0.72,-3.03 -0.65,-6.17 0.02,-9.17 4.83,-23.74 10.01,-47.4 14.55,-71.19 18.04,-0.38 36.09,-0.02 54.16,-0.19 14.36,-0.29 29.36,-3.67 40.44,-13.32 15.22,-13.06 21.29,-33.12 25.11,-52.06 7.92,-38.83 15.79,-77.64 23.52,-116.49 2.37,-14.28 3.57,-30.89 -6.27,-42.82 -9.67,-11.45 -25.68,-13.13 -39.67,-13.75 -46.82,-0.24 -93.67,0 -140.49,-0.12zm203.16 51.65l0 0c-13.11,66.86 -26.64,133.65 -39.82,200.5 -0.84,4.07 -1.46,8.44 -4.1,11.83 -7.52,10.65 -14.93,21.36 -22.28,32.13 25.32,-0.05 50.67,-0.14 75.99,0.05 6.31,-33.36 13.05,-66.65 19.68,-99.96 10.75,0.05 21.5,0 32.25,0.05 -4.99,24.43 -10.12,48.84 -15.12,73.29 -1.34,6.92 -2.66,14.57 1.01,21.05 4.08,4.83 11.09,5.33 16.97,5.5 18.94,-0.03 37.85,0 56.78,-0.03 -4.94,-11.95 -10.08,-23.8 -15.26,-35.64 3.6,-17.8 7.51,-35.56 11.14,-53.37 3.81,-15.19 -7.3,-30.36 -21.92,-34.1 11.6,-3.97 23,-10.54 29.19,-21.53 9.14,-15.91 10.97,-34.56 14.73,-52.18 2.21,-12.6 3.63,-27.77 -6.02,-37.78 -10.06,-11.13 -26.33,-9.84 -39.94,-10.34 -31.1,0.26 -62.2,-0.62 -93.28,0.53zm195.36 1.1l0 0c-22.11,4.23 -34.49,26.07 -38.52,46.49 -10.01,48.5 -19.68,97.08 -29.52,145.63 -2.6,14.21 -4.11,32.09 8.04,42.53 13.77,10.97 32.73,8.23 49.17,8.66 19.01,-0.84 39.41,2.98 57.15,-5.71 18.84,-9.33 26.13,-30.89 30.38,-50.04 9.05,-43.77 17.47,-87.65 26.11,-131.49 2.4,-14.96 5.98,-32.31 -3.21,-45.72 -9.39,-12.51 -26.76,-11.48 -40.73,-11.93 -19.61,0.36 -39.41,-1.32 -58.87,1.58zm114.55 -1.61l0 0c-1.47,81.65 -2.16,163.35 -2.45,245.04 26.35,-0.24 52.73,-0.04 79.08,-0.12 31.46,-81.38 62.98,-162.76 94.22,-244.24 2.43,13.03 4.13,26.25 5.45,39.43 -10.99,55.58 -22.58,111.1 -34.01,166.61 -4.89,13.46 -13.39,25.34 -19.56,38.28 68.48,-0.15 136.95,-0.05 205.42,-0.05 11.88,-0.17 24.5,-2.04 33.96,-9.84 13.66,-11.3 19.58,-28.95 23.3,-45.7 9.7,-47.59 18.77,-95.33 28.54,-142.92 2.69,-12.86 2.47,-28.49 -8.16,-37.85 -8.4,-8.32 -20.86,-8.88 -31.94,-8.71 -95.81,0.03 -191.62,0.1 -287.43,0 3.51,11.45 6.67,23.02 10.06,34.51 2.88,8.02 -2.59,15.7 -4.42,23.33 -14.11,43.97 -30.09,87.34 -42.89,131.72 1.23,-15.25 3.84,-30.39 4.06,-45.72 1.08,-32.96 4.15,-65.79 5.64,-98.69 -0.46,-16.78 11.26,-30.12 16.94,-45.15 -25.27,0.07 -50.54,0 -75.81,0.07zm423.57 0.27l0 0c3.15,13.53 8.33,26.57 10.92,40.22 -11.2,55.95 -22.68,111.87 -34.29,167.74 -7.66,12.67 -16.88,24.43 -25.15,36.72 51.81,0.02 103.6,-0.12 155.42,0.07 5.5,-27.29 11.16,-54.53 16.01,-81.94 -16.23,9.15 -32.64,17.96 -48.82,27.2 -11.06,7.44 -25.06,3 -37.51,4.17 2.45,-17.42 6.96,-34.46 9.57,-51.86 14.21,-0.27 28.45,-0.15 42.65,-0.07 3.24,-14.88 5.81,-29.91 9.12,-44.79 -14.2,-0.09 -28.39,-0.02 -42.57,-0.05 2.95,-15.6 6.21,-31.12 9.09,-46.72 10.44,0.28 21,-0.92 31.35,0.52 13.7,9.15 27.21,18.63 40.46,28.44 5.59,-26.44 10.44,-53.06 15.91,-79.53 -50.73,-0.17 -101.44,0.09 -152.16,-0.12zm159.27 0.05l0 0c2.64,17.49 7.56,34.82 8.9,52.41 -10.32,51.31 -21.07,102.6 -31.8,153.84 -6.38,13.92 -17.45,25.23 -25.22,38.45 23.16,-0.72 46.77,1.01 69.64,-0.86 9.15,-47.09 18.44,-94.32 26.21,-141.7 1.16,10.68 1.4,21.46 3.53,32.02 7.49,36.55 14.67,73.15 21.6,109.8 24.34,0.33 48.65,-0.15 72.99,0.26 -4.35,-11.88 -9.46,-23.5 -13.54,-35.45 0.36,-6.62 2.28,-13.03 3.53,-19.51 9.74,-46.03 18.89,-92.23 28.92,-138.19 9.05,-17.35 19.58,-33.96 29.33,-50.95 -23.12,-0.17 -46.2,-0.15 -69.29,-0.03 -8.4,47.91 -20.28,95.23 -26.55,143.5 -1.17,-18.87 -6.28,-37.08 -9.48,-55.63 -5.59,-29.31 -10.99,-58.66 -16.6,-87.96 -24.05,0.09 -48.12,0 -72.17,0zm210.93 6.16l0 0c-16,8.76 -25,26.24 -28.39,43.61 -9.48,46.47 -18.33,93.05 -27.72,139.54 -2.49,13.61 -5.64,29.09 2.11,41.64 6.77,10.89 20.48,13.49 32.36,13.65 30.74,0.03 61.48,-0.02 92.23,0.03 5.83,-30.07 11.95,-60.1 17.71,-90.19 -16.66,-0.03 -33.29,0.14 -49.92,-0.05 -2.81,13.29 -4.78,26.81 -8.26,39.96 -10.34,-0.39 -20.66,-0.29 -31,-0.1 9.45,-47.88 18.91,-95.76 28.36,-143.64 10.54,-0.02 21.08,-0.09 31.64,0.03 -2.09,9.4 -4.3,18.84 -5.4,28.44 15.74,-0.29 31.53,-0.2 47.3,-0.03 4.97,-26.52 10.46,-52.94 15.53,-79.44 -26.04,0.07 -52.08,-0.02 -78.1,0.05 -12.98,0.29 -26.78,-0.07 -38.45,6.5zm125.36 -6.09l0 0c3.5,13.2 8.18,26.09 11.04,39.45 -10.88,56.36 -22.68,112.59 -34.44,168.77 -7.59,12.58 -16.83,24.19 -25.04,36.43 51.36,-0.19 102.7,-0.16 154.04,-0.02 4.99,-27.36 12.09,-54.36 16.08,-81.89 -17.62,10.28 -35.43,20.33 -53.33,30.1 -10.3,2.69 -21.27,0.53 -31.83,1.27 2.91,-17.42 6.94,-34.63 10.01,-52.01 14.21,-0.07 28.39,-0.02 42.63,-0.07 2.71,-14.93 5.97,-29.76 8.68,-44.69 -14.11,-0.02 -28.24,-0.05 -42.36,-0.05 3.03,-15.57 6.2,-31.12 9.17,-46.7 10.25,0.02 20.55,-0.65 30.77,0.31 14.19,8.6 26.93,19.56 41.33,27.89 5.04,-26.3 10.44,-52.54 15.48,-78.86 -50.76,0.07 -101.5,-0.05 -152.23,0.07zm-1385.38 259.49l0 0c7.34,31.46 15.26,62.78 22.97,94.15 329.18,-0.07 658.39,-0.05 987.57,-0.36 152.76,-0.19 305.55,0.38 458.28,-0.26 5.57,-31.28 12.56,-62.29 18.94,-93.39 -495.91,-0.34 -991.82,-0.07 -1487.76,-0.14z"/>
  </g>
 </g>
</svg>
