<?xml version="1.0" encoding="UTF-8"?>
<!DOCTYPE svg PUBLIC "-//W3C//DTD SVG 1.1//EN" "http://www.w3.org/Graphics/SVG/1.1/DTD/svg11.dtd">
<!-- Creator: CorelDRAW -->
<svg xmlns="http://www.w3.org/2000/svg" xml:space="preserve" width="2000px" height="1600px" version="1.1" style="shape-rendering:geometricPrecision; text-rendering:geometricPrecision; image-rendering:optimizeQuality; fill-rule:evenodd; clip-rule:evenodd"
viewBox="0 0 2000 1600"
 xmlns:xlink="http://www.w3.org/1999/xlink">
 <defs>
  <style type="text/css">
   <![CDATA[
    .fil0 {fill:#0F1112}
    .fil1 {fill:#ABAAA6}
    .fil2 {fill:#DBC894}
   ]]>
  </style>
 </defs>
 <g id="Capa_x0020_1">
  <metadata id="CorelCorpID_0Corel-Layer"/>
  <g id="Purdue_x0020_Boilermakers.cdr">
   <path class="fil0" d="M509.87 319.02l1099.77 0c55.76,2.15 112.52,8.22 164.5,29.74 27.89,11.53 54.05,27.94 74.94,49.88 19.19,20.17 33.71,44.77 42.09,71.35 14.7,46.65 9.42,97.08 -3.99,143.37 -11.48,39.42 -28.06,77.11 -44.96,114.44 -19.6,41.52 -42.57,81.75 -71.78,117.32 -29.07,35.72 -64.59,66.27 -104.73,88.9 -46.09,26.16 -97.37,42.11 -149.41,51.19 -41.41,7.23 -83.44,10.26 -125.42,10.9 -71.5,-0.1 -143.01,0.1 -214.51,-0.08 -40.8,94.86 -80.84,190.06 -121.54,284.96l-954.83 0 0 -0.27c50.33,-118 100.49,-236.1 150.84,-354.08 64.71,-0.04 129.4,0 194.09,-0.02 35.85,-84.29 71.76,-168.53 107.59,-252.83 -64.54,0 -129.1,0.02 -193.64,-0.01 50.23,-118.28 100.68,-236.5 150.99,-354.76zm521.14 388.07l0 0c89.78,0.02 179.55,0 269.33,0 18.73,-0.11 37.77,1.01 56.09,-3.71 27.32,-6.37 52.52,-23.19 66.99,-47.48 5.91,-10.54 11.45,-22.06 11.4,-34.4 -0.02,-5.34 -5.49,-7.83 -9.74,-9.52 -15.77,-5.61 -32.75,-3.58 -49.13,-3.96 -100.91,0 -201.83,0 -302.75,0 -14.11,33 -28.13,66.04 -42.19,99.07zm-572.65 -99.07l0 0c64.56,-0.02 129.12,0.01 193.66,-0.04 -54.51,128.14 -109.12,256.22 -163.6,384.37 -64.74,0.13 -129.46,0 -194.2,0.06 -31.66,74.54 -63.39,149.06 -95.16,223.57 270.7,0.1 541.4,0.02 812.1,0.04 31.69,-74.55 63.42,-149.09 95.23,-223.58 -65.63,-0.09 -131.28,0 -196.9,-0.06 8.76,-20.66 17.71,-41.24 26.29,-61.98 130.3,-0.21 260.59,-0.02 390.89,-0.08 37.88,-0.23 75.84,0.95 113.66,-2.11 60.14,-4.44 120.7,-15.81 175.37,-42.09 38.5,-18.27 73.07,-44.73 100.62,-77.22 31.53,-36.75 53.99,-80.15 73.36,-124.25 15.94,-37.08 31.97,-74.53 40.14,-114.24 5.2,-26.01 6.56,-53.46 -1.02,-79.14 -7.4,-25.51 -24.07,-47.89 -45.65,-63.21 -24.55,-17.52 -53.74,-27.2 -83.02,-33.3 -50.85,-10.48 -103.01,-10.48 -154.68,-10.38 -330.62,0.02 -661.24,0 -991.86,0.02 -31.77,74.52 -63.57,149.05 -95.23,223.62z"/>
   <path class="fil1" d="M1050.64 574c116.69,-0.25 233.39,-0.04 350.09,-0.1 18.62,0.47 38.53,3.53 53.38,15.67 11.31,9.16 16.21,24.4 14.68,38.61 -1.92,19.34 -10.47,37.44 -21.23,53.37 -16.9,24.24 -42.06,42.32 -70.08,51.44 -16.89,5.64 -34.71,8.14 -52.49,8.22 -115.11,-0.05 -230.23,0.05 -345.35,-0.05 12.58,-31.31 26.37,-62.15 39.39,-93.3 10.63,-24.58 20.86,-49.33 31.61,-73.86zm-592.28 34.02l0 0c64.56,-0.02 129.12,0.01 193.66,-0.04 -54.51,128.14 -109.12,256.22 -163.6,384.37 -64.74,0.13 -129.46,0 -194.2,0.06 -31.66,74.54 -63.39,149.06 -95.16,223.57 270.7,0.1 541.4,0.02 812.1,0.04 31.69,-74.55 63.42,-149.09 95.23,-223.58 -65.63,-0.09 -131.28,0 -196.9,-0.06 8.76,-20.66 17.71,-41.24 26.29,-61.98 130.3,-0.21 260.59,-0.02 390.89,-0.08 37.88,-0.23 75.84,0.95 113.66,-2.11 60.14,-4.44 120.7,-15.81 175.37,-42.09 38.5,-18.27 73.07,-44.73 100.62,-77.22 31.53,-36.75 53.99,-80.15 73.36,-124.25 15.94,-37.08 31.97,-74.53 40.14,-114.24 5.2,-26.01 6.56,-53.46 -1.02,-79.14 -7.4,-25.51 -24.07,-47.89 -45.65,-63.21 -24.55,-17.52 -53.74,-27.2 -83.02,-33.3 -50.85,-10.48 -103.01,-10.48 -154.68,-10.38 -330.62,0.02 -661.24,0 -991.86,0.02 -31.77,74.52 -63.57,149.05 -95.23,223.62zm116.23 -185.88l0 0c-21.31,50.59 -43.33,100.94 -64.3,151.69 64.43,0.18 128.86,-0.02 193.28,0.1 -32.57,77.44 -65.8,154.62 -98.61,231.97 -31.41,73.46 -62.42,147.08 -94.03,220.42 -64.03,0.49 -128.09,0 -192.13,0.25 -2.76,-0.29 -3.06,3.25 -4.16,5.01 -13.96,33.18 -28.17,66.27 -42.26,99.4 -6.92,17.02 -14.93,33.63 -21.23,50.9 220.98,0.08 441.95,0.01 662.92,0.03 24.84,-0.23 49.71,0.48 74.53,-0.34 20.42,-47.73 40.65,-95.53 61.02,-143.26 1.69,-3.82 3.5,-7.62 4.28,-11.74 -65.29,-0.23 -130.58,0.21 -195.87,-0.22 18.09,-43.34 36.9,-86.41 54.99,-129.76 16.22,-0.94 32.49,-0.13 48.74,-0.39 143.03,-0.02 286.06,0.03 429.09,-0.02 68.31,-1.35 138.06,-9.27 201.09,-37.23 41.95,-18.47 79.25,-47.31 107.32,-83.57 31.44,-40.12 52.22,-87.13 71.61,-133.9 11.61,-28.71 22.61,-58.05 27.25,-88.81 3.48,-23.21 2.4,-48.28 -9.52,-69.07 -11.78,-21.14 -33.14,-34.87 -55.14,-43.59 -30.59,-11.91 -63.41,-16.62 -95.95,-19.22 -39.94,-3.13 -80.03,-1.48 -120.04,-1.88 -312.47,-0.01 -624.94,0.02 -937.42,-0.01 -2.47,-0.3 -5.02,0.46 -5.46,3.24zm456.42 284.95l0 0c89.78,0.02 179.55,0 269.33,0 18.73,-0.11 37.77,1.01 56.09,-3.71 27.32,-6.37 52.52,-23.19 66.99,-47.48 5.91,-10.54 11.45,-22.06 11.4,-34.4 -0.02,-5.34 -5.49,-7.83 -9.74,-9.52 -15.77,-5.61 -32.75,-3.58 -49.13,-3.96 -100.91,0 -201.83,0 -302.75,0 -14.11,33 -28.13,66.04 -42.19,99.07z"/>
   <path class="fil2" d="M574.59 422.14c0.44,-2.78 2.99,-3.54 5.46,-3.24 312.48,0.03 624.95,0 937.42,0.01 40.01,0.4 80.1,-1.25 120.04,1.88 32.54,2.6 65.36,7.31 95.95,19.22 22,8.72 43.36,22.45 55.14,43.59 11.92,20.79 13,45.86 9.52,69.07 -4.64,30.76 -15.64,60.1 -27.25,88.81 -19.39,46.77 -40.17,93.78 -71.61,133.9 -28.07,36.26 -65.37,65.1 -107.32,83.57 -63.03,27.96 -132.78,35.88 -201.09,37.23 -143.03,0.05 -286.06,0 -429.09,0.02 -16.25,0.26 -32.52,-0.55 -48.74,0.39 -18.09,43.35 -36.9,86.42 -54.99,129.76 65.29,0.43 130.58,-0.01 195.87,0.22 -0.78,4.12 -2.59,7.92 -4.28,11.74 -20.37,47.73 -40.6,95.53 -61.02,143.26 -24.82,0.82 -49.69,0.11 -74.53,0.34 -220.97,-0.02 -441.94,0.05 -662.92,-0.03 6.3,-17.27 14.31,-33.88 21.23,-50.9 14.09,-33.13 28.3,-66.22 42.26,-99.4 1.1,-1.76 1.4,-5.3 4.16,-5.01 64.04,-0.25 128.1,0.24 192.13,-0.25 31.61,-73.34 62.62,-146.96 94.03,-220.42 32.81,-77.35 66.04,-154.53 98.61,-231.97 -64.42,-0.12 -128.85,0.08 -193.28,-0.1 20.97,-50.75 42.99,-101.1 64.3,-151.69zm476.05 151.86l0 0c-10.75,24.53 -20.98,49.28 -31.61,73.86 -13.02,31.15 -26.81,61.99 -39.39,93.3 115.12,0.1 230.24,0 345.35,0.05 17.78,-0.08 35.6,-2.58 52.49,-8.22 28.02,-9.12 53.18,-27.2 70.08,-51.44 10.76,-15.93 19.31,-34.03 21.23,-53.37 1.53,-14.21 -3.37,-29.45 -14.68,-38.61 -14.85,-12.14 -34.76,-15.2 -53.38,-15.67 -116.7,0.06 -233.4,-0.15 -350.09,0.1z"/>
  </g>
 </g>
</svg>
