<?xml version="1.0" encoding="UTF-8"?>
<!DOCTYPE svg PUBLIC "-//W3C//DTD SVG 1.1//EN" "http://www.w3.org/Graphics/SVG/1.1/DTD/svg11.dtd">
<!-- Creator: CorelDRAW -->
<svg xmlns="http://www.w3.org/2000/svg" xml:space="preserve" width="2000px" height="1600px" version="1.1" style="shape-rendering:geometricPrecision; text-rendering:geometricPrecision; image-rendering:optimizeQuality; fill-rule:evenodd; clip-rule:evenodd"
viewBox="0 0 2000 1600"
 xmlns:xlink="http://www.w3.org/1999/xlink">
 <defs>
  <style type="text/css">
   <![CDATA[
    .fil2 {fill:#133460}
    .fil3 {fill:#A71C33}
    .fil1 {fill:#C2992B}
    .fil0 {fill:#FEFEFE}
   ]]>
  </style>
 </defs>
 <g id="Capa_x0020_1">
  <metadata id="CorelCorpID_0Corel-Layer"/>
  <g id="Quinnipiac_x0020_Bobcats.cdr">
   <path class="fil0" d="M772.57 578.53c21.2,13.25 44.21,23.34 65.75,35.95 10.09,8.43 18.74,18.51 25.11,30.04 -9.74,-3.38 -19.66,-6.41 -30,-7.01 9.81,5.21 20.05,10.11 27.79,18.31 -15,2.89 -29.81,7.02 -43.52,13.84 -27.93,-21.68 -40.72,-57.11 -45.13,-91.13zm664.9 869.35l0 0c10.77,9.33 23.25,16.61 36.61,21.57 -12.24,11.64 -30.25,17.39 -46.85,13.53 -12.47,-3.1 -24.14,-8.62 -35.39,-14.7 17.13,-0.83 34.17,-7.26 45.63,-20.4zm29.91 -42.87l0 0c-0.37,10.58 -0.33,22.78 -8.64,30.63 -4.34,4.94 -11.25,5.35 -17.36,5.81 15.52,4.92 31.05,11.44 47.7,10.66 15.09,-0.14 32.59,-4.85 39.98,-19.34 5.54,-10.26 0.92,-22.07 -5.46,-30.68 -17.94,6.84 -37.67,7.39 -56.22,2.92zm3.9 -61.1l0 0c13.39,-0.04 26.11,-4.18 37.73,-10.61 9.86,3.17 20.19,8.73 24.81,18.52 3.26,9.48 -0.55,20.44 -8.04,26.87 -12.43,10.47 -29.86,15.43 -45.68,10.63 4.59,-15.8 -1.2,-31.67 -8.82,-45.41zm-109.5 -125.58l0 0c9.07,-5.49 19.82,-9.8 30.5,-6.4 16.32,4.59 25.03,21.86 26.13,37.75 -19.57,8.94 -39.09,17.99 -58.33,27.59 38.1,-6.34 76.27,-19.59 115.33,-13.14 13.35,1.72 25.86,10.15 31.79,22.32 5.72,11.72 -0.32,26.94 -11.78,32.66 -9.3,4.73 -20.1,3.93 -30.2,4.55 0.73,-7.54 2.16,-15.34 -0.19,-22.72 -3.26,-10.4 -12.84,-19.68 -24.3,-19.13 -18.21,0.37 -35.75,5.95 -53.62,8.82 -46.28,8.87 -94.21,8.73 -140.44,-0.39 34.59,-7.9 70.05,-12.95 103.37,-25.56 -7.03,-0.76 -14.08,-1.19 -21.08,-1.93 17.34,-6.48 35.82,-10.38 51.9,-19.87 4.55,-2.5 9.62,-7.57 6.96,-13.2 -4.5,-9.9 -16.67,-10.43 -26.04,-11.35zm-417.51 -97.95l0 0c18.53,24.94 45.22,42.17 71.05,58.7 34.64,21 70.67,39.85 108.04,55.42 40.72,10.18 83.12,13.14 124.96,12.15 -22.83,-2.89 -45.36,-7.97 -67.29,-14.97 -69.86,-22.49 -133.87,-60.22 -192.71,-103.56 -14.33,-3.74 -29.54,-4.41 -44.05,-7.74zm69.65 -72.89l0 0c8.13,-10.48 10.25,-23.73 11.83,-36.48 4.37,7.95 11.53,15.71 10.64,25.41 -3.59,8.88 -14.13,10.31 -22.47,11.07zm-38.23 -36.84l0 0c1.26,12.77 3.17,26 11.13,36.56 -8.91,-0.69 -20.3,-2.98 -22.91,-13.05 1.4,-8.88 7.02,-16.16 11.78,-23.51zm-32.64 -77.58l0 0c8.2,7.64 17.55,13.94 27.47,19.13 -6.39,10.56 -9.16,22.71 -10.66,34.84 -13.59,-14.45 -15.18,-35.23 -16.81,-53.97zm88.84 19.59l0 0c10.05,-5.01 19.79,-10.91 27.67,-19.04 -1.77,18.69 -3.47,39.66 -17.55,53.67 -1.6,-11.99 -3.93,-24.07 -10.12,-34.63zm-224.07 -56.89l0 0c6.55,4.29 13.14,8.57 19.62,12.98 -26.85,-0.69 -52.78,8.58 -75.36,22.59 1.18,9.31 2.6,18.61 5.45,27.59 4.84,-5.75 10.06,-11.16 16.03,-15.74 0.94,34.06 10.01,68.65 30.93,96.07 6.39,-19.22 18.86,-38.44 38.86,-45.26 14.31,-5.49 29.79,-2.41 44.15,1.24 -11.49,-14.2 -30.3,-22.92 -48.58,-18.88 -15.41,2.46 -27.6,12.63 -39.92,21.33 -3.46,-11.04 -7.69,-22.64 -7,-34.28 25.56,-13.85 59.07,-22.56 85.34,-5.75 -6.08,-7.8 -12.56,-15.27 -19.22,-22.57 8.91,5.12 17.11,11.39 24.74,18.28 41.91,37.69 67.27,90.79 78.86,145.33 12.59,1.65 25.22,3.15 37.92,3.68 12.81,-0.21 25.56,-1.77 38.33,-2.85 15.02,-63.89 49.08,-127.21 106.5,-162.1 -6.48,7.21 -13.14,14.26 -18.88,22.12 26.48,-16.13 60.19,-6.96 84.91,8.08 -0.21,11.83 -4.64,23.01 -8.07,34.17 -14.12,-12.51 -31.37,-24.45 -51.1,-23.49 -14.72,-0.11 -27.88,8.41 -37.39,18.99 14.52,-3.44 30.23,-6.47 44.54,-0.48 19.77,7.24 31.71,26.53 37.91,45.71 21.27,-26.97 31.56,-61.44 32.11,-95.52 6.32,4.52 11.42,10.38 16.47,16.21 2.52,-9 4.34,-18.16 5.74,-27.42 -22.12,-14.63 -47.84,-23.75 -74.48,-24.25 6.41,-4.37 13.02,-8.43 19.54,-12.61 -9.18,-3.22 -18.94,-5.42 -28.7,-3.95 -28.58,3.42 -54.64,16.63 -79.81,29.79 -13.44,38.49 -27.79,76.66 -43.8,114.16 -4.16,10.27 -11.71,20.37 -23.1,22.83 -14.04,2.23 -28.67,2.27 -42.54,-0.96 -14.19,-4.83 -19.56,-20.15 -24.57,-32.85 -13.46,-34.56 -26.23,-69.4 -37.51,-104.72l-0.64 -0.35c-24.76,-13.27 -50.27,-26.84 -78.48,-30.75 -9.76,-1.54 -19.63,0.14 -28.8,3.63zm243.2 -16.35l0 0c-3.91,9 -9.26,17.41 -16.38,24.23 -11.97,12.63 -29.51,22.6 -31.58,41.66 9.67,-0.55 19.68,-1.15 28.53,-5.56 17.4,-8.34 29.97,-23.45 44.99,-35.12 0.5,-5.95 1.01,-11.87 1.4,-17.8 -12.66,8.11 -24.85,16.89 -37.37,25.18 11.09,-12.59 23.43,-24.03 36.34,-34.71 -1.91,-5.23 -5.29,-9.62 -9.97,-12.63 -5.84,4.3 -11.99,8.55 -15.96,14.75zm-124.41 -3.75l0 0c12.12,10.98 24.41,21.89 34.84,34.55 -12.31,-7.74 -23.75,-16.77 -35.97,-24.63 0.69,6 -0.23,12.68 2.18,18.29 14.79,12.83 27.93,28.47 46.21,36.56 8.04,3.77 17.07,4.13 25.79,4.71 -1.88,-9.76 -6.38,-19 -13.98,-25.57 -13.42,-12.21 -27.77,-24.91 -33.63,-42.71 -4.8,-4.89 -10.15,-9.19 -15.59,-13.32 -4.25,3.17 -7.63,7.28 -9.85,12.12zm151.41 -76.7l0 0c3.68,-2.74 6.85,-10.41 12.47,-7.17 7.31,3.47 4.83,14.12 -2.45,16.12 -4.69,-1.26 -7.9,-4.73 -10.02,-8.95zm-187.79 -10.25l0 0c0.85,-3.53 4.75,-4.61 7.46,-6.29 4.89,0.8 9.58,5.26 7.97,10.57 -0.78,5.14 -6.48,6.17 -10.66,6.93 -2.11,-3.42 -6.33,-6.71 -4.77,-11.21zm247.58 -18.14l0 0c1.31,18.14 -0.92,37.89 -13.62,51.95 -27.03,-7.72 -57.3,-1.38 -78.09,17.77 6.64,-2.71 12.91,-6.33 19.73,-8.61 20.16,-6.77 41.66,-3.95 62.22,-1.08 18.99,-13.02 22.2,-38.58 18.48,-59.66 -2.91,-0.16 -5.83,-0.28 -8.72,-0.37zm-280.4 -10.29l0 0c-4.82,17.8 -5.63,38.54 5.85,54.06 2.58,3.01 5.01,8.09 9.81,7.03 18.03,-1.68 36.66,-0.96 53.84,5.28 8.1,2.97 15.08,8.16 22.64,12.24 -11.14,-11.46 -24.89,-20.83 -40.67,-24.36 -11.62,-3.01 -23.73,-2.21 -35.53,-0.92 -11.19,-15.27 -11.76,-35.09 -8.25,-53.01 -1.93,-0.09 -5.76,-0.25 -7.69,-0.32zm247.46 -36.65l0 0c8.11,7.55 16.35,15.2 21.91,24.94 -8.52,1.33 -17.45,0.37 -25.7,2.94 -6.27,2.48 -12.72,4.54 -18.6,7.92 -5.49,3.26 -10.38,7.51 -14.4,12.45 -7.28,8.52 -9.35,20.37 -17.61,28.16 -4.46,4.91 -10.69,7.5 -16.72,9.87 3.42,3.72 8.77,6.45 13.52,3.22 15.48,-8.66 23.82,-25.66 38.38,-35.53 13.27,-9.01 28.82,-15.25 44.97,-16.13 11.5,-0.62 22.44,4 31.92,10.13l1.26 0.74c-11.96,-23.5 -35.02,-39.14 -58.93,-48.71zm-263.38 34.7l0 0c23.77,-13.41 52.48,-3.42 72.32,12.4 15.09,11.09 21.75,30.16 37.05,40.97 3.93,3.08 9,1.75 12.77,-0.8 -4,-2.99 -8.18,-5.79 -11.78,-9.26 -13.09,-12.15 -14.49,-31.94 -27.79,-44 -5.86,-5.05 -12.5,-9.19 -19.64,-12.08 -8.04,-3.1 -16.63,-4.27 -25.05,-5.81 6.54,-9.03 15.43,-15.83 24.34,-22.32 -24,6.88 -48.57,19.15 -62.22,40.9zm255.53 -116.3l0 0c13.64,-14.95 28.11,-30.41 47.42,-37.87 -14.58,13.5 -29.83,28.66 -33.41,49.12 -4.78,-3.63 -9.49,-7.33 -14.01,-11.25zm-233.43 -37.9l0 0c19.22,7.65 34.17,22.78 47.38,38.24 -4.62,3.72 -9.28,7.4 -13.94,11.05 -3.4,-20.56 -18.84,-35.74 -33.44,-49.29zm304.62 14.36l0 0c-9.6,7.99 -17.66,17.66 -23.9,28.45 9.92,-3.4 20.14,-6.04 30.66,-6.48 -10.39,4.69 -20.49,10.06 -29.08,17.64l1.03 0.58c15.09,2.2 29.1,8.31 43.13,13.82 27.93,-21.29 41.51,-56.2 46.1,-90.05 -21.75,13.64 -45.98,22.83 -67.94,36.04z"/>
   <path class="fil1" d="M893.44 84.64c16.7,-1.33 33.4,-2.48 50.09,-3.4 10.82,29.01 21.52,58.06 32.09,87.13 -0.05,-29.44 0,-58.9 -0.05,-88.37 18.17,0.8 36.38,0.23 54.57,0.41 -0.02,95.13 0.11,190.23 -0.09,285.36 -17.04,0 -34.11,0.02 -51.17,-0.02 -10.43,-32.36 -20.26,-64.91 -31.08,-97.15 -0.73,32.68 -0.18,65.41 -0.27,98.09 -17.96,2.16 -35.97,3.65 -53.93,5.65 -0.29,-95.89 0,-191.79 -0.16,-287.7zm155.55 -3.22l0 0c18.24,0.92 36.38,2.76 54.62,3.82 0.09,96.04 0,192.11 0.02,288.16 -17.98,-1.8 -35.92,-4.25 -53.9,-6.07 -0.18,-71.72 -0.02,-143.44 -0.07,-215.17 -0.28,-23.59 0.62,-47.17 -0.67,-70.74zm-226.03 11.88l0 0c18.1,-2.37 36.19,-4.67 54.22,-7.44 0.58,96.32 0.03,192.64 0.28,288.96 -16.83,3.68 -33.74,7.05 -50.6,10.57 -10.91,-31.19 -19.93,-63.07 -31.62,-93.96 -1.17,34.36 -0.12,68.78 -0.55,103.16 -18.24,6.3 -36.34,13 -54.5,19.48 0,-101.19 0,-202.38 0,-303.59 16.58,-3.7 33.14,-7.56 49.74,-11.12 10.91,28.41 22.33,56.66 32.23,85.44 1.65,-30.46 0.16,-61 0.8,-91.5zm297.25 283.22l0 0c0.26,-96.48 -0.16,-192.99 0.19,-289.47 36.65,5.1 73.1,11.58 109.27,19.29 6.66,15.53 13.12,31.15 19.87,46.62 1.86,4.07 2.96,8.48 2.85,12.98 0,28.34 -0.16,56.68 0.04,85.02 -0.11,4.8 0.3,9.95 -2.11,14.33 -7.56,14.77 -15.25,29.49 -22.76,44.28 -17.59,-5.9 -35.35,-11.32 -53.28,-16.03 -0.05,31.99 -0.03,64.01 -0.03,96.02 -18.02,-4.34 -36.08,-8.49 -54.04,-13.04zm-450.64 -242.04l0 0c18.19,-6.48 36.31,-13.07 54.54,-19.43 -0.16,104.7 0.3,209.38 -0.23,314.06 -18.99,9.97 -36.08,23.02 -54.27,34.25 -0.11,-109.62 -0.02,-219.26 -0.04,-328.88zm592.51 -19.69l0 0c18.23,5.54 36.19,11.85 54.36,17.55 0.48,108.52 0.07,217.06 0.21,325.57 -17.87,-11.43 -35.95,-22.53 -54.6,-32.63 0.1,-103.49 0.03,-206.98 0.03,-310.49zm-663.11 55.17l0 0c17.54,-10.24 35.48,-19.8 53.95,-28.29 0,86.9 -0.03,173.83 0.02,260.73 -0.16,9.95 1.01,20.21 -2.14,29.86 -5.86,19.43 -11.39,38.97 -17.06,58.47 -1.54,6.3 -6.82,10.41 -11.14,14.82 -29.12,28.36 -53.88,60.77 -76.94,94.18 -8.75,-13.46 -17.87,-26.71 -26.71,-40.12 -3.81,-4.87 -2.53,-11.32 -2.78,-17.04 0.21,-101.86 0.03,-203.72 0.09,-305.57 -0.52,-3.51 1.73,-6.23 4.25,-8.31 15.92,-14.24 32.62,-27.61 49.7,-40.38 0.1,89.09 -0.07,178.17 0.1,267.28 7.18,-8.24 15.24,-15.61 22.82,-23.47 4.9,-4.64 5.54,-11.8 5.81,-18.14 0.03,-81.33 -0.04,-162.67 0.03,-244.02zm566.12 -8.22l0 0c0.02,18.81 -0.18,37.59 0.12,56.38 12.6,2.34 24.84,6.32 37.45,8.61 5.35,-1.97 4.69,-9.94 4.96,-14.83 -0.64,-13.85 2.02,-28.28 -3.26,-41.53 -13.02,-3.19 -26.16,-5.88 -39.27,-8.63zm220.98 -1.7l0 0c15.37,9.07 31.65,16.95 46.21,27.24 26.51,153 46.14,307.22 63.28,461.58 -19.09,-23.15 -37.28,-47.04 -57.7,-69.04 -2.32,-2.83 -5.51,-5.42 -5.88,-9.28 -3,-19.98 -4.66,-40.14 -7.6,-60.13 -0.69,-5.19 -5.05,-8.63 -8.08,-12.51 -11.05,-12.06 -21.75,-24.6 -34.11,-35.35 -0.48,0.05 -1.47,0.12 -1.95,0.16 -3.56,12.7 -5.44,25.82 -9.16,38.5 -14.95,-15.3 -32.75,-27.31 -49.01,-41.02 20.58,-100.21 43.06,-200.04 64,-300.15zm-1015.05 91.45l0 0c-3.4,2.6 -4.68,6.78 -5.9,10.68 -6.68,21.63 -13.46,43.22 -20.42,64.77 -1.42,4.41 -2.38,8.98 -2.43,13.64 -0.02,137.89 0.12,275.78 -0.07,413.65 11.87,7.62 23.98,14.83 35.85,22.44 29.19,-31.95 59.69,-62.63 89.8,-93.69 22.58,23.5 44.03,48.05 66.67,71.45 0.32,-33.99 -0.07,-67.95 0.21,-101.92 -11.51,-14.95 -23.52,-29.51 -35.12,-44.4 0.07,-127.44 -0.07,-254.88 0.05,-382.32 -0.02,-3.38 -0.09,-7.03 -2.6,-9.62 -9.87,-12.4 -19.63,-24.92 -29.78,-37.14 -33.37,22.37 -65.62,46.46 -96.26,72.46zm1157.15 -70.53l0 0c34.31,22.83 67.29,47.61 98.73,74.23 2.85,2.34 5.47,5.24 6,9.05 7.62,31.67 15.36,63.32 23.12,94.94 1.45,5.93 1.84,12.03 1.75,18.12 -0.28,42.7 0.23,85.41 -0.25,128.11 -20.93,-22.9 -40.95,-46.62 -62.45,-68.99 0.14,-27.4 -0.07,-54.8 0.11,-82.22 0.1,-9.42 -0.75,-19.16 -4.63,-27.84 -9.21,-9.85 -20.26,-17.82 -30.37,-26.69 -0.25,98.62 0.05,197.24 -0.16,295.86 -0.02,9.78 1.06,20.99 8.75,27.99 8.78,8.99 17.27,18.24 26.21,27.06 0.25,-30.8 0.16,-61.62 0.04,-92.44 19.2,20.69 37.53,42.14 55.79,63.66 2.82,3.84 7.35,7.42 6.91,12.73 0.07,29.05 -0.16,58.12 0.07,87.18 -0.11,5.05 0.69,10.65 -2.73,14.88 -9.88,14.63 -20.67,28.59 -31.58,42.44 -29.08,-31.03 -58.01,-62.19 -88.22,-92.09 -4.66,-5.01 -11.25,-8.87 -13.25,-15.76 -7.81,-26.92 -15.22,-53.93 -23.08,-80.82 -3.01,-9.55 -1.88,-19.63 -2.02,-29.46 0.05,-69.62 0,-139.23 0.02,-208.84 0.35,-35.94 -0.68,-71.98 0.46,-107.87 9.49,-21.41 20.44,-42.19 30.78,-63.23zm-1124.01 128.93l0 0c12.98,-11.18 25.89,-22.5 39.53,-32.88 5.42,8.79 3.42,19.31 3.68,29.07 -0.03,101.05 -0.03,202.13 0.02,303.18 -0.21,9.26 -3.22,18.93 -10.15,25.38 -13.48,13.39 -26.32,27.4 -39.23,41.36 -1.86,-2.78 -4.46,-5.49 -4.02,-9.16 -0.07,-109.55 0.07,-219.12 -0.07,-328.67 0.14,-10.06 2.04,-21.52 10.24,-28.28zm982.49 78.69l0 0c12.17,10.4 23.81,21.38 35.32,32.52 -5.31,-38.06 -10.89,-76.07 -16.97,-114.01 -7.3,26.87 -12.15,54.34 -18.35,81.49zm-675.12 113.71l0 0c-3.15,18.25 1.81,36.99 9.64,53.48 -11.18,10.22 -21.93,20.9 -32.31,31.95 -55.99,61 -92.97,139.15 -104.48,221.17 -10.91,75.81 -0.69,154.63 29.93,224.88 40.58,94.17 117.1,172.39 210.9,214.05 5.14,2.25 10.45,4.46 14.72,8.25 45.77,41.5 95.66,78.24 147.45,111.82 66.92,41.94 141.22,70.99 217.01,92.44 24.02,6.04 48.23,14.59 73.37,12.2 12.2,-0.21 24.17,-4.09 36.38,-3.26 24.14,4.59 42.33,22.25 61.44,36.33 14.31,11.69 33.67,13 51.33,14.24 13.92,1.05 27.51,-3.42 41.41,-2.53 17.54,0.99 35.6,-2.92 50.48,-12.49 15.89,-10.11 27.12,-26.35 33.34,-43.94 2.1,-9.46 12.25,-12.54 17.85,-19.4 21.17,-23.54 24.48,-58.38 16.6,-88.06 -2.5,-8.13 0.42,-16.35 1.57,-24.43 2.73,-17.85 1.17,-36.15 -3.84,-53.45 -10.24,15.85 -20.9,31.9 -36.22,43.36 -1.17,-1.28 -3.51,-3.83 -4.68,-5.12 1.61,-6.66 4.15,-13.07 5.74,-19.73 23.03,-24.2 21.89,-62.19 7.92,-90.65 -8.52,18.03 -21.82,36.29 -42.09,41.53 -8.71,-5.81 -14.22,-15.16 -21.39,-22.62 -17.22,-21.29 -43.82,-35.19 -71.4,-35.37 -12.26,0.5 -22.35,-8.45 -34.59,-8.57 -22.14,-3.03 -41.91,9.24 -59.46,21.02 -27.67,18.83 -63.41,18.53 -95.01,12.05 47.59,-33.3 88.58,-76.18 118.85,-125.81 46.44,-75.35 67.75,-165.72 59.83,-253.87 -8.54,-99.69 -54.52,-195.79 -127.28,-264.57 10.56,-19.27 18.72,-41.85 13.14,-63.99 -4.9,-20.71 -21.73,-36.05 -39.76,-45.97 4.48,24.94 -6.82,50.54 -26,66.44 -18.67,-11.35 -37.13,-23.25 -57.09,-32.32 -67.06,-32.01 -142.81,-44.71 -216.71,-37.96 -65.16,5.88 -128.73,27.77 -183.96,62.79 -17.67,-16.28 -25.2,-41.04 -21.18,-64.56 -18.72,11.69 -35.44,28.96 -41.45,50.67zm126.79 112.19l0 0c15.23,7.37 29.31,17.98 39.25,31.8 6.66,9.65 10.87,22.26 6.99,33.83 -2.26,7.17 -8.53,11.81 -13.9,16.59 13.8,0.23 28.55,-2.53 38.84,-12.45 8.04,-7.08 12.31,-17.18 15.41,-27.19 14.99,-0.62 29.99,0.29 45.01,0.55 10.43,22.37 -2.98,45.91 -3.79,68.74 -0.62,8.63 4.02,16.26 9.9,22.16 -0.32,-13.25 3.93,-26.53 14.58,-35 -1.79,14.49 3.56,28.34 12.59,39.43 8.4,-11.27 14.28,-24.6 12.72,-39 4.23,4.51 8.84,8.96 11.1,14.84 2.64,6.45 1.97,13.57 2.36,20.39 5.81,-5.28 10.68,-12.19 10.73,-20.34 0.2,-18.58 -7.74,-36.34 -6.94,-55.01 0.39,-5.26 1.38,-10.79 4.87,-14.95 14.47,-1.7 29.24,-0.94 43.77,-0.48 4.18,9.12 6.96,19.29 14.52,26.36 10.24,10.94 25.7,14.27 40.14,14.36 -7.02,-5.95 -14.92,-12.96 -15.04,-22.94 -1.49,-18.4 11.6,-33.72 25.13,-44.4 6.61,-5.33 13.78,-10.04 21.65,-13.27 -9.6,7.99 -17.66,17.66 -23.9,28.45 9.92,-3.4 20.14,-6.04 30.66,-6.48 -10.39,4.69 -20.49,10.06 -29.08,17.64l1.03 0.58c34.34,26.02 72.39,50.8 94.4,89.01 -9.79,1.84 -19.3,4.83 -28.3,9.08 22.28,10.68 34.87,33.64 41.94,56.31 4.55,13.94 7,28.43 9,42.92 -12.33,-14.4 -27.7,-26.96 -46.25,-32.15 -16.31,-5.07 -33.99,-4.06 -50.21,0.87 -28.2,8.36 -53.35,24.23 -76.96,41.39 -5.33,-10.01 -14.31,-19.59 -26.46,-19.66 -17.73,0.16 -33.3,11.19 -45.42,23.24 15.41,-5.44 32.1,-9.92 48.32,-5.03 -5.84,4.3 -11.99,8.55 -15.96,14.75 -23.73,9.28 -49.93,10.31 -74.85,6.15 -8.25,-2.02 -17.27,-3.3 -24.12,-8.7 -4.8,-4.89 -10.15,-9.19 -15.59,-13.32 16.47,-4.32 33.19,0.02 48.69,5.78 -12.06,-12.1 -27.33,-23.54 -45.09,-23.95 -12.17,-0.11 -20.99,9.42 -26.75,19.06 -29.1,-21.36 -60.84,-42.58 -97.52,-47.01 -29.21,-3.24 -56.79,12.29 -75.6,33.65 4.09,-26.35 10.36,-53.4 26.02,-75.47 6.45,-9.69 15.87,-16.81 25.95,-22.35 -8.54,-4.77 -17.94,-7.74 -27.49,-9.73 7.58,-13.92 18.63,-25.47 30.04,-36.27 20.3,-19.48 43.82,-35.05 66.51,-51.44 -7.74,-8.2 -17.98,-13.1 -27.79,-18.31 10.34,0.6 20.26,3.63 30,7.01 -6.37,-11.53 -15.02,-21.61 -25.11,-30.04zm37.65 151.76l0 0c8.31,0.83 17.59,1.65 23.88,7.81 -0.62,2.8 -1.35,5.6 -2.16,8.38 -2.71,1.68 -6.61,2.76 -7.46,6.29 -1.56,4.5 2.66,7.79 4.77,11.21 0.62,1.19 1.91,3.58 2.55,4.78 -5.87,-0.14 -11.73,-0.37 -17.59,-0.49 -6.77,-11.55 -6.08,-25.23 -3.99,-37.98zm226.95 12.79l0 0c7.23,-2.85 14.91,-4.16 22.67,-4.23 2.39,12.84 0.48,26.23 -6.39,37.46 -5.28,-0.2 -10.56,-0.36 -15.84,-0.48 1.95,-10.86 1.7,-21.95 -0.44,-32.75zm-189.38 5.15l0 0c7.85,10.47 15.73,20.96 22.48,32.19 -8.36,-3.05 -16.76,-6.06 -25.35,-8.38 2.06,-7.76 3.14,-15.78 2.87,-23.81zm148.25 34.97l0 0c5.07,-7 10.77,-13.5 16.23,-20.18 2.12,4.22 5.33,7.69 10.02,8.95 0.37,1.24 1.05,3.74 1.4,4.99 -9.3,1.7 -18.49,3.99 -27.65,6.24zm-351.09 116.28l0 0c-1.7,-41.15 0.53,-83.85 17.32,-122.04 -5.93,29.58 -9.03,59.71 -9.08,89.87 1.2,36.93 7.22,73.74 18.15,109.04 14.47,48.18 43.29,90.49 74.96,128.96 54.36,64.95 121.95,117.24 191.88,164.35 68.12,45.4 145.24,75.67 223.77,97.7 15.82,3.85 31.48,9.02 47.79,10.54 32.68,0.71 64.44,-11.26 97.22,-8.48 -13.97,-10.61 -32.13,-12.17 -49.06,-12.9 -15.32,-0.76 -30.61,1.46 -45.93,0.82 -14.15,-1.54 -27.86,-5.67 -41.62,-9.11 -76.93,-21.09 -152.4,-50.19 -219.88,-93.2 -66.83,-44.12 -131.3,-92.97 -185.38,-152.36 -26.55,-29.33 -50.37,-61.26 -69.36,-96 -23.86,-44.42 -34.29,-94.69 -38.82,-144.53 3.06,-3.17 6.14,-6.32 9.24,-9.39 2.52,36.37 3.24,73.53 13.91,108.7 5.59,-2.07 9.17,-7.19 13.44,-11.01 5.79,23.87 13.96,47.43 27.15,68.31 9.11,15.27 21.79,27.9 32.86,41.7 -0.48,-21.17 0.65,-43.93 13.19,-61.91 9.92,-14.95 30.19,-20.7 46.94,-15.28 13.5,5.1 23.42,16.38 31.44,28 15.39,22.21 24.62,47.84 33.44,73.17 18.53,24.94 45.22,42.17 71.05,58.7 34.64,21 70.67,39.85 108.04,55.42 39.64,16.33 81.07,30.98 124.29,32.64 43.02,0.09 80.02,-24.97 113.74,-48.85l0.39 0.04c9.37,0.92 21.54,1.45 26.04,11.35 2.66,5.63 -2.41,10.7 -6.96,13.2 -16.08,9.49 -34.56,13.39 -51.9,19.87 7,0.74 14.05,1.17 21.08,1.93 -33.32,12.61 -68.78,17.66 -103.37,25.56 46.23,9.12 94.16,9.26 140.44,0.39 17.87,-2.87 35.41,-8.45 53.62,-8.82 11.46,-0.55 21.04,8.73 24.3,19.13 2.35,7.38 0.92,15.18 0.19,22.72 -23.01,0.59 -51.31,2.75 -64.24,24.96 11.18,-4.75 22.51,-11.14 35.12,-10.13 11.69,1.18 23.12,4.28 34.9,4.85l0.28 0.57c7.62,13.74 13.41,29.61 8.82,45.41 -11.67,-3.84 -22.69,-10.04 -34.98,-11.62 -11.94,-0.44 -23.77,2.27 -35.05,5.99 10.8,2.39 22.83,2.46 32,9.47 7.42,5.85 16.3,9.25 25.31,11.85 -0.37,10.58 -0.33,22.78 -8.64,30.63 -4.34,4.94 -11.25,5.35 -17.36,5.81 -13.21,-4.48 -26.21,-9.96 -40.1,-12.17 12.63,4.96 26.32,8.7 36.19,18.6 -11.46,13.14 -28.5,19.57 -45.63,20.4 -11.69,-4.85 -20.14,-14.79 -30.98,-21.06 -5.4,-3.33 -11.58,-5.28 -16.58,-9.24 10.88,-3.81 22.27,-5.97 33.04,-10.15 -14.12,-1.17 -28.36,-2.48 -42.46,-0.55 -19.06,2.46 -37.96,6.27 -57.14,7.67 -17.27,1.68 -33.92,-4.29 -50.48,-8.15 -77.54,-20.99 -153.67,-50 -221.7,-93.17 -65.13,-42.81 -127.85,-90.22 -181.23,-147.27 -31.02,-33.44 -58.77,-70.3 -79.57,-110.99 -20.86,-43.64 -30.96,-91.85 -34.04,-139.94zm44.71 -79.46l0 0c14.84,-18.19 40.22,-24.94 62.89,-22 33.96,3.88 63.34,23.17 91.36,41.31 -0.62,4.57 -1.15,9.12 -1.63,13.71 -24.94,-16.26 -50.92,-32.29 -80.18,-39.29 -19.13,-4.66 -39.78,0.43 -55.44,12.03 -7.4,5.24 -13.07,12.4 -18.9,19.23 0.02,-8.32 -0.62,-16.95 1.9,-24.99zm428.49 -18.65l0 0c23.2,-3.12 48.78,3.83 64.26,22.07 3.22,8.11 1.91,17.41 2,26 -8.98,-11.92 -19.87,-22.95 -33.95,-28.62 -13.2,-5.76 -28.22,-7.26 -42.19,-3.56 -28.59,7.01 -54.5,21.94 -78.93,37.94 -0.18,-5 -0.42,-9.99 -0.69,-14.95 28.04,-16.44 56.45,-35.09 89.5,-38.88zm-430.44 72.48l0 0c15.83,-33.32 56.29,-56.66 92.81,-44 20.37,6.18 39.04,16.83 56.82,28.36 10.1,5.65 8.52,19.13 12.01,28.73 -24.76,-13.27 -50.27,-26.84 -78.48,-30.75 -9.76,-1.54 -19.63,0.14 -28.8,3.63 6.55,4.29 13.14,8.57 19.62,12.98 -26.85,-0.69 -52.78,8.58 -75.36,22.59 -0.68,-7.16 -2.29,-14.88 1.38,-21.54zm342.71 -10.91l0 0c20.32,-13.85 42.56,-25.74 66.58,-31.67 35.21,-8.82 71.38,14.77 86.51,45.93 4.14,6.96 2.32,15.14 1.45,22.65 -22.12,-14.63 -47.84,-23.75 -74.48,-24.25 6.41,-4.37 13.02,-8.43 19.54,-12.61 -9.18,-3.22 -18.94,-5.42 -28.7,-3.95 -28.58,3.42 -54.64,16.63 -79.81,29.79 3.26,-8.48 3.67,-18.45 8.91,-25.89zm-309.76 -408.93l0 0 33.88 -16.75 8.76 -14.1 0 -17.81 -3.6 -2.23 3.6 -5.8 0 -15.71 -8.76 -5.44 -33.88 16.75 0 13.79 3.29 -1.63 0 33.6 -3.29 1.62 0 13.71zm25.82 -51.25l0 0 -7.51 3.71 0 -8.81 7.51 -3.72 1.8 1.12 0 4.8 -1.8 2.9zm0 24.78l0 0 -7.51 3.71 0 -11.08 7.51 -3.71 1.8 1.12 0 7.07 -1.8 2.89zm36.71 -12.11l0 0 9.36 6.97 25.75 -7.71 9.37 -12.57 0 -41.55 -9.37 -6.97 -25.75 7.71 -9.36 12.58 0 41.54zm17.97 -9.31l0 0 8.53 -2.55 1.84 -2.47 0 -29.76 -1.84 -1.37 -8.61 2.58 -1.84 2.47 0 29.67 1.92 1.43zm44.3 1.74l0 0 0 -13.7 3.62 -0.54 0 -33.6 -3.62 0.54 0 -13.79 37.38 -5.55 9.66 8.34 0 15.71 -3.97 4.6 3.97 3.43 0 17.8 -9.66 11.21 -37.38 5.55zm28.48 -42.72l0 0 1.99 -2.3 0 -4.8 -1.99 -1.71 -8.28 1.23 0 8.82 8.28 -1.24zm0 24.79l0 0 1.99 -2.3 0 -7.07 -1.99 -1.71 -8.28 1.23 0 11.08 8.28 -1.23zm39.24 -0.09l0 0 0 -41.55 9.78 -9.63 26.87 0.4 9.78 9.92 0 13.62 -16.84 -0.25 0 -7.68 -1.92 -1.95 -8.99 -0.13 -1.92 1.89 0 29.67 2.01 2.04 8.9 0.13 1.92 -1.89 0 -7.33 16.84 0.25 0 13.18 -9.78 9.63 -26.87 -0.41 -9.78 -9.91zm65.24 11.9l0 0 0 -13.7 3.62 0.6 11.02 -31.75 -2.67 -0.45 0 -13.79 32.02 5.37 0 13.79 -3.02 -0.51 11.02 35.45 3.53 0.59 0 13.71 -23.07 -3.87 0 -13.7 2.07 0.34 -0.95 -3.04 -11.53 -1.93 -1.03 2.71 2.06 0.34 0 13.71 -23.07 -3.87zm24.1 -22.67l0 0 7.32 1.23 -3.62 -12.74 -3.7 11.51zm38.96 -9.38l0 0 13.04 4.2 0 -3.57 3.49 1.12 0 33.6 -3.49 -1.12 0 13.7 22.93 7.39 0 -13.7 -3.41 -1.1 0 -33.6 3.41 1.1 0 3.58 13.12 4.23 0 -17.36 -49.09 -15.84 0 17.37zm68.41 58.78l0 0 0 -11.69 15.02 7.42 0 5.76 1.88 2.94 7.82 3.86 1.8 -1.03 0 -6.02 -1.72 -2.69 -16.04 -7.92 -8.76 -14.1 0 -18.07 8.76 -5.44 24.1 11.9 8.76 14.11 0 12.04 -15.1 -7.46 0 -6.11 -1.72 -2.77 -8.14 -4.02 -1.64 1.11 0 6.19 1.72 2.78 16.12 7.96 8.76 14.1 0 17.72 -8.76 5.44 -24.1 -11.9 -8.76 -14.11zm-271.22 281.15l0 0c7.01,-27.29 23.63,-52.3 46.99,-68.23 -17.94,22.73 -28.04,51.26 -27.35,80.31 13.3,12.06 14.7,31.85 27.79,44 3.6,3.47 7.78,6.27 11.78,9.26 4.61,-8.45 6.27,-17.98 7.6,-27.38 1.08,12.47 4.66,26.71 -2.71,37.97 -3.86,6.08 -11.55,5.78 -17.84,6.36 0.11,4.09 0.18,8.2 0.23,12.31l-1.36 -1.27c-7.56,-4.08 -14.54,-9.27 -22.64,-12.24 -17.18,-6.24 -35.81,-6.96 -53.84,-5.28 -4.8,1.06 -7.23,-4.02 -9.81,-7.03 -11.48,-15.52 -10.67,-36.26 -5.85,-54.06 -6.34,-0.28 -12.68,-0.37 -19.02,-0.57 0.76,-0.35 2.32,-1.04 3.1,-1.38 13.65,-21.75 38.22,-34.02 62.22,-40.9 -8.91,6.49 -17.8,13.29 -24.34,22.32 8.42,1.54 17.01,2.71 25.05,5.81zm150.82 -67.84l0 0c16.97,12.33 30.32,29.39 38.91,48.5 3.12,7.33 6.57,14.77 6.91,22.88l0.02 2.41c8.25,-2.57 17.18,-1.61 25.7,-2.94 -5.56,-9.74 -13.8,-17.39 -21.91,-24.94 23.91,9.57 46.97,25.21 58.93,48.71l-1.26 -0.74c-5.35,-0.04 -10.68,-0.36 -16.01,-0.66 3.72,21.08 0.51,46.64 -18.48,59.66 -20.56,-2.87 -42.06,-5.69 -62.22,1.08 -6.82,2.28 -13.09,5.9 -19.73,8.61 -0.46,0.37 -1.4,1.08 -1.86,1.45 0.41,-4.25 0.9,-8.47 1.36,-12.7 -6.23,-0.71 -13.55,-1.51 -16.77,-7.76 -6.16,-11.88 -2.16,-25.81 1.79,-37.73 -0.78,8.91 0.14,17.91 3.13,26.36 6.03,-2.37 12.26,-4.96 16.72,-9.87 8.26,-7.79 10.33,-19.64 17.61,-28.16 4.02,-4.94 8.91,-9.19 14.4,-12.45 0.25,-14.22 -0.07,-28.71 -4.94,-42.23 -4.38,-14.68 -12.9,-27.59 -22.3,-39.48zm-268.18 57.67l0 0c5.22,-4.6 11.19,-10.71 18.54,-10.5 8.61,5.47 15.66,13 22.85,20.16 -13.32,-5.07 -27.26,-8.04 -41.39,-9.66zm390.25 7.71l0 0c7.74,-6.31 16.35,-11.46 24.96,-16.51 6.36,3.58 11.97,8.38 16.24,14.35 -13.78,-0.78 -27.58,0.03 -41.2,2.16zm-395.6 38.45l0 0c2.87,-3.15 7.6,-2.21 11.39,-2.51 21.57,-0.04 44.51,7.93 57.26,26.18 -13.32,-4.47 -26.85,-9.39 -41.11,-8.93 -14.84,-0.66 -29.08,4.23 -42.21,10.68 3.76,-9.02 7.92,-18.19 14.67,-25.42zm372.86 26.25l0 0c15.3,-20.92 43.11,-27.31 67.73,-24.58 6.5,8.39 11.97,17.57 15.59,27.61 -17.45,-8.96 -37.38,-13.9 -56.93,-10.2 -9.05,1.4 -17.66,4.59 -26.39,7.17zm-365.21 -285.02l0 0c-5.74,3.38 -11.09,7.42 -17.09,10.34 -14.49,-11.48 -26.59,-27.54 -30.43,-45.91 -0.83,-2.04 -0.57,-4.94 -2.8,-6.09 -6.45,6.2 -11.99,13.92 -13.85,22.81 -3.01,19.31 3.65,38.47 13.32,54.96 -31.33,26.29 -58.7,57.28 -80.79,91.68 -43.85,67.75 -66.17,149.01 -63.48,229.64 1.79,72.32 23.88,143.93 62.95,204.79 32.24,50.58 75.95,93.75 126.91,125.4 19.11,12.54 40.24,21.47 60.56,31.69 48,43.07 99.77,81.97 154.13,116.67 67.73,41.48 142.6,70.26 219.1,90.95 19.59,4.82 39.43,11.23 59.9,8.96 15.55,-0.39 31.46,-6.75 46.76,-1.2 25.74,7.49 44.71,27.36 66.6,41.66 18.35,9.42 40.26,10.91 60.36,7.17 13.8,-3.05 28.27,1.31 41.91,-3.28 15.04,-3.43 26.8,-14.52 34.84,-27.24 -10.77,2.75 -21.86,4.52 -32.98,3.33 1.68,-3.01 3.28,-6.11 5.37,-8.87 9.88,-2.32 20.47,-3.35 28.96,-9.48 9.35,-5.26 13.14,-16.29 22.28,-21.78 18.7,-12.42 26.8,-35.73 26.73,-57.39 -8.77,10.34 -18.32,20.63 -31.34,25.54 -2.32,-4.18 -4.67,-8.31 -7.01,-12.45 8.18,-8.84 12.01,-20.64 20.19,-29.46 13.34,-15 18.83,-35.97 16.08,-55.72 -7.81,11.35 -17.48,21.59 -30.16,27.45 -5.88,-8 -13.8,-14.24 -23.24,-17.46 6.08,-9.87 12.12,-20.26 12.79,-32.13 6.13,-5.3 12.13,-11.16 15.18,-18.83 4.92,-11 4.66,-23.27 3.98,-35.03 -11.24,11.85 -24.3,23.91 -41.18,26.12 -6.48,-2.46 -12.06,-6.64 -18.4,-9.35 -17.75,-8.22 -37.92,-10.06 -57.1,-6.84 -1.05,-5.13 -2.18,-10.22 -3.39,-15.28 13.98,-3.69 28.52,-4.02 42.85,-2.75 -15.43,-16.24 -37.76,-25.91 -60.26,-24.78 -8.13,0.87 -14.73,-4.55 -22.12,-6.76 -10.66,-3.12 -22.39,-2.66 -32.66,1.63 -17.96,7.12 -32.1,21.55 -50.73,27.24 -37.09,12.45 -77.1,4.96 -113.78,-5.12 20.12,-12.81 40.19,-25.84 58.27,-41.48 57.16,-48.09 100.59,-112.42 123.44,-183.54 30.55,-93.89 25.13,-199.03 -15.48,-289.06 -22.64,-51.1 -56.61,-96.83 -97.67,-134.61 11.85,-16.97 20.42,-37.25 18.6,-58.33 -0.96,-10.47 -7.81,-19.06 -15.27,-25.93 -2.96,23.72 -19.43,42.83 -37.73,56.93 -66.31,-48.53 -148.19,-75.46 -230.32,-75.97 -74.43,-1.52 -149.09,18.7 -212.8,57.16zm607.94 -137.4l0 0c3.72,3.19 7.42,6.43 11.1,9.71 -1.77,-12.15 -3.52,-24.3 -5.52,-36.42 -1.9,8.88 -3.81,17.79 -5.58,26.71zm-986.29 -68.58l0 0c8.57,-7.76 17.55,-15.07 26.5,-22.35 0.23,104.2 -0.04,208.42 0.14,312.62 0.05,6.89 -1.31,14.29 -6.16,19.5 -9.02,9.85 -18.3,19.48 -27.67,28.98 -0.23,-105.8 0.05,-211.61 -0.14,-317.42 0.03,-7.58 1.15,-16.21 7.33,-21.33zm1120.44 -121.54l0 0c-7.55,17.25 -17.34,33.53 -24.23,51.03 -1.28,44.3 -0.16,88.74 -0.53,133.09 -0.04,65.16 0.05,130.31 -0.07,195.47 -0.02,5.58 0.95,11.11 2.51,16.47 5.86,20.41 11.67,40.83 17.48,61.27 2.43,8.13 3.63,17.43 10.63,23.17 29.7,28.44 57.28,58.96 86.03,88.29 7.28,-10.29 15.32,-20.05 22.21,-30.64 2.94,-4 2.44,-9.14 2.57,-13.83 -0.25,-26.82 -0.02,-53.65 -0.09,-80.47 0.67,-6.34 -4.48,-10.77 -8.01,-15.3 -11.83,-13.52 -22.99,-27.67 -35.65,-40.42 0,20.12 -0.04,40.24 0.02,60.36 -0.18,9.02 1.68,19.01 -4.33,26.66 -12.98,-13.8 -25.68,-27.86 -39.19,-41.13 -8.08,-7.33 -9.6,-18.99 -10.45,-29.28 -0.07,-100.3 0.05,-200.59 -0.04,-300.89 -0.3,-5.78 2.3,-11.07 4.61,-16.19 12.52,9.85 24.58,20.28 36.64,30.66 4.01,3.61 8.68,7.33 9.64,12.98 4.3,13.43 2.99,27.63 3.1,41.47 -0.02,18.36 0.07,36.71 -0.11,55.03 0.18,4.28 -0.71,9.37 3.05,12.45 13.85,14.33 26.8,29.51 40.49,44.03 0.55,-33.37 -0.02,-66.74 0.3,-100.11 0.14,-7.12 -0.32,-14.27 -2.04,-21.18 -7.17,-29.74 -14.22,-59.48 -21.78,-89.11 -0.82,-5.14 -5.42,-8.11 -9,-11.3 -27.05,-21.95 -54.34,-43.84 -83.76,-62.58zm-1149.79 59.76l0 0c-2.92,2.46 -5.95,5.16 -7.03,9 -5.88,17.87 -11.41,35.85 -17.06,53.79 -2.51,8.13 -5.77,16.28 -5.56,24.94 0.11,135.5 0,270.98 0.07,406.48 7.97,4.99 15.96,9.95 23.9,15 30.46,-31.97 61.26,-63.62 92.06,-95.26 19.38,20.05 37.57,41.22 57.16,61.04 0.6,-21.13 0.02,-42.28 0.37,-63.41 -0.16,-4.89 0.59,-10.5 -3.15,-14.33 -9.97,-13 -20.74,-25.4 -30.57,-38.49 -2.2,-2.53 -1.88,-6.02 -2.04,-9.12 0.11,-125.58 0,-251.16 0.07,-376.74 0.11,-3.2 -0.58,-6.43 -2.78,-8.84 -7.05,-9.22 -14.4,-18.19 -21.75,-27.15 -28.89,19.66 -56.8,40.74 -83.69,63.09zm1011.12 -80.13l0 0c-20.46,93.93 -40.31,188 -60.31,282.03 11.46,8.13 22.58,16.74 33.21,25.95 3.05,-13.55 6.13,-27.1 9.12,-40.68 19.5,16.79 36.93,35.86 53.81,55.24 2.71,3.03 5.12,6.5 5.33,10.72 2.87,20.97 5.33,41.99 8.13,62.96 14.44,15.86 27.3,33.09 41.06,49.53 -15.04,-143.38 -35.16,-286.23 -59.5,-428.3 -10.25,-5.9 -20.4,-11.92 -30.85,-17.45zm-218.53 -1.22l0 0c0,12.29 -0.11,24.55 0.19,36.84 7.97,1.84 15.91,3.74 23.93,5.51 -0.12,-12.47 0.55,-24.99 -0.8,-37.41 -7.79,-1.61 -15.55,-3.29 -23.32,-4.94zm-565.06 2l0 0c-0.97,6.68 -0.46,13.46 -0.53,20.19 0.14,71.17 -0.09,142.37 0.11,213.54 0.07,10.29 -0.8,22.21 -9.04,29.49 -12.75,12.05 -24.03,25.51 -36.29,38.01 -4.34,-9.7 -2.83,-20.47 -2.97,-30.76 -0.02,-79.18 0.1,-158.37 -0.06,-237.56 -12.02,8.54 -23.73,17.8 -33.99,28.39 -2.14,5.81 -0.62,12.42 -1.01,18.55 0.04,96.42 0.09,192.85 -0.03,289.27 0.09,3.49 -0.04,7.3 2.11,10.28 5.88,9.35 12.13,18.49 18.77,27.34 21.15,-30.94 45.26,-59.86 72,-86.11 3.19,-2.98 6.06,-6.47 7,-10.86 5.06,-17.8 10.04,-35.62 15.51,-53.31 1.95,-5.85 2.61,-12.01 2.48,-18.14 -0.37,-85.64 0.29,-171.28 -0.33,-256.92 -11.32,6.06 -23.21,11.2 -33.73,18.6zm662.69 -47.73l0 0c0.14,97.43 -0.43,194.85 0.28,292.28 11.94,5.92 23.08,13.27 34.68,19.82 0.09,-100.21 0.07,-200.41 0.02,-300.61 -11.57,-4.09 -23.24,-7.9 -34.98,-11.49zm-592.41 12.98l0 0c-0.26,101.42 -0.24,202.84 -0.03,304.26 11.69,-7.35 23.22,-14.95 35,-22.19 -0.18,-98.04 -0.07,-196.08 -0.07,-294.13 -11.8,3.54 -23.33,7.88 -34.9,12.06zm450 -42.76l0 0c-0.05,90.23 0.05,180.47 -0.05,270.7 11.76,2.67 23.5,5.45 35.16,8.43 -0.02,-32.08 -0.41,-64.17 0.21,-96.23 19.5,4.98 38.84,10.59 58.02,16.72 4.43,-8.75 8.86,-17.5 13.5,-26.16 3.31,-6.5 7.49,-13.09 6.89,-20.69 -0.37,-29.15 0.5,-58.31 -0.41,-87.41 -5.24,-16.72 -13.32,-32.45 -19.96,-48.67 -30.89,-6.75 -62.06,-12.28 -93.36,-16.69zm-296.89 3.67l0 0c-0.2,45.27 0.62,90.58 -0.43,135.85 -2.07,-4.23 -3.93,-8.57 -5.52,-13 -13.57,-38.29 -27.85,-76.32 -42.67,-114.14 -11.39,2.29 -22.71,4.91 -34.01,7.57 -0.05,94.03 0.07,188.08 -0.05,282.13 11.72,-4.44 23.64,-8.32 35.28,-12.91 -0.41,-52.55 -0.16,-105.1 -0.14,-157.64 17.46,47.72 31.81,96.55 48.37,144.59 11.37,-2.69 22.83,-5.05 34.31,-7.3 -0.09,-89.94 -0.14,-179.9 0.02,-269.83 -11.75,1.26 -23.47,2.89 -35.16,4.68zm226.29 -10.13l0 0c-0.07,88.98 -0.02,177.95 -0.02,266.92 11.69,1.12 23.38,2.53 35.02,3.97 -0.23,-89.31 0.44,-178.68 -0.32,-267.97 -11.44,-2.04 -23.13,-1.98 -34.68,-2.92zm-73.49 -2.16l0 0c-0.16,44.95 0.18,89.87 -0.19,134.79 -16.09,-44.27 -31.39,-88.85 -48.04,-132.95 -11.23,0.35 -22.44,1.24 -33.65,1.91 -0.57,89.45 -0.09,178.91 -0.25,268.36 11.58,-1.38 23.2,-2.59 34.84,-3.47 0.62,-49.93 -0.25,-99.88 0.44,-149.81 17.2,48.76 31.48,98.51 47.49,147.68 11.46,-0.07 22.92,-0.19 34.38,0.27 -0.04,-88.67 -0.02,-177.37 -0.02,-266.04 -11.67,-0.32 -23.34,-0.85 -35,-0.74z"/>
   <path class="fil2" d="M1085.65 777.61c13.27,-9.01 28.82,-15.25 44.97,-16.13 11.5,-0.62 22.44,4 31.92,10.13 -5.35,-0.04 -10.68,-0.36 -16.01,-0.66 -2.91,-0.16 -5.83,-0.28 -8.72,-0.37 1.31,18.14 -0.92,37.89 -13.62,51.95 -27.03,-7.72 -57.3,-1.38 -78.09,17.77 -0.46,0.37 -1.4,1.08 -1.86,1.45 0.41,-4.25 0.9,-8.47 1.36,-12.7 -6.23,-0.71 -13.55,-1.51 -16.77,-7.76 -6.16,-11.88 -2.16,-25.81 1.79,-37.73 -0.78,8.91 0.14,17.91 3.13,26.36 3.42,3.72 8.77,6.45 13.52,3.22 15.48,-8.66 23.82,-25.66 38.38,-35.53zm68.92 30.2l0 0c8.73,-2.58 17.34,-5.77 26.39,-7.17 19.55,-3.7 39.48,1.24 56.93,10.2 -3.62,-10.04 -9.09,-19.22 -15.59,-27.61 -24.62,-2.73 -52.43,3.66 -67.73,24.58zm-372.86 -26.25l0 0c2.87,-3.15 7.6,-2.21 11.39,-2.51 21.57,-0.04 44.51,7.93 57.26,26.18 -13.32,-4.47 -26.85,-9.39 -41.11,-8.93 -14.84,-0.66 -29.08,4.23 -42.21,10.68 3.76,-9.02 7.92,-18.19 14.67,-25.42zm395.6 -38.45l0 0c7.74,-6.31 16.35,-11.46 24.96,-16.51 6.36,3.58 11.97,8.38 16.24,14.35 -13.78,-0.78 -27.58,0.03 -41.2,2.16zm-390.25 -7.71l0 0c5.22,-4.6 11.19,-10.71 18.54,-10.5 8.61,5.47 15.66,13 22.85,20.16 -13.32,-5.07 -27.26,-8.04 -41.39,-9.66zm268.18 -57.67l0 0c16.97,12.33 30.32,29.39 38.91,48.5 3.12,7.33 6.57,14.77 6.91,22.88l0.02 2.41c-6.27,2.48 -12.72,4.54 -18.6,7.92 0.25,-14.22 -0.07,-28.71 -4.94,-42.23 -4.38,-14.68 -12.9,-27.59 -22.3,-39.48zm-150.82 67.84l0 0c7.01,-27.29 23.63,-52.3 46.99,-68.23 -17.94,22.73 -28.04,51.26 -27.35,80.31 -5.86,-5.05 -12.5,-9.19 -19.64,-12.08zm627.03 -550.3l0 0c29.42,18.74 56.71,40.63 83.76,62.58 3.58,3.19 8.18,6.16 9,11.3 7.56,29.63 14.61,59.37 21.78,89.11 1.72,6.91 2.18,14.06 2.04,21.18 -0.32,33.37 0.25,66.74 -0.3,100.11 -13.69,-14.52 -26.64,-29.7 -40.49,-44.03 -3.76,-3.08 -2.87,-8.17 -3.05,-12.45 0.18,-18.32 0.09,-36.67 0.11,-55.03 -0.11,-13.84 1.2,-28.04 -3.1,-41.47 -0.96,-5.65 -5.63,-9.37 -9.64,-12.98 -12.06,-10.38 -24.12,-20.81 -36.64,-30.66 -2.31,5.12 -4.91,10.41 -4.61,16.19 0.09,100.3 -0.03,200.59 0.04,300.89 0.85,10.29 2.37,21.95 10.45,29.28 13.51,13.27 26.21,27.33 39.19,41.13 6.01,-7.65 4.15,-17.64 4.33,-26.66 -0.06,-20.12 -0.02,-40.24 -0.02,-60.36 12.66,12.75 23.82,26.9 35.65,40.42 3.53,4.53 8.68,8.96 8.01,15.3 0.07,26.82 -0.16,53.65 0.09,80.47 -0.13,4.69 0.37,9.83 -2.57,13.83 -6.89,10.59 -14.93,20.35 -22.21,30.64 -28.75,-29.33 -56.33,-59.85 -86.03,-88.29 -7,-5.74 -8.2,-15.04 -10.63,-23.17 -5.81,-20.44 -11.62,-40.86 -17.48,-61.27 -1.56,-5.36 -2.53,-10.89 -2.51,-16.47 0.12,-65.16 0.03,-130.31 0.07,-195.47 0.37,-44.35 -0.75,-88.79 0.53,-133.09 6.89,-17.5 16.68,-33.78 24.23,-51.03zm-922.26 -19.59l0 0c10.52,-7.4 22.41,-12.54 33.73,-18.6 0.62,85.64 -0.04,171.28 0.33,256.92 0.13,6.13 -0.53,12.29 -2.48,18.14 -5.47,17.69 -10.45,35.51 -15.51,53.31 -0.94,4.39 -3.81,7.88 -7,10.86 -26.74,26.25 -50.85,55.17 -72,86.11 -6.64,-8.85 -12.89,-17.99 -18.77,-27.34 -2.15,-2.98 -2.02,-6.79 -2.11,-10.28 0.12,-96.42 0.07,-192.85 0.03,-289.27 0.39,-6.13 -1.13,-12.74 1.01,-18.55 10.26,-10.59 21.97,-19.85 33.99,-28.39 0.16,79.19 0.04,158.38 0.06,237.56 0.14,10.29 -1.37,21.06 2.97,30.76 12.26,-12.5 23.54,-25.96 36.29,-38.01 8.24,-7.28 9.11,-19.2 9.04,-29.49 -0.2,-71.17 0.03,-142.37 -0.11,-213.54 0.07,-6.73 -0.44,-13.51 0.53,-20.19zm662.69 -47.73l0 0c11.74,3.59 23.41,7.4 34.98,11.49 0.05,100.2 0.07,200.4 -0.02,300.61 -11.6,-6.55 -22.74,-13.9 -34.68,-19.82 -0.71,-97.43 -0.14,-194.85 -0.28,-292.28zm-592.41 12.98l0 0c11.57,-4.18 23.1,-8.52 34.9,-12.06 0,98.05 -0.11,196.09 0.07,294.13 -11.78,7.24 -23.31,14.84 -35,22.19 -0.21,-101.42 -0.23,-202.84 0.03,-304.26zm153.11 -39.09l0 0c11.69,-1.79 23.41,-3.42 35.16,-4.68 -0.16,89.93 -0.11,179.89 -0.02,269.83 -11.48,2.25 -22.94,4.61 -34.31,7.3 -16.56,-48.04 -30.91,-96.87 -48.37,-144.59 -0.02,52.54 -0.27,105.09 0.14,157.64 -11.64,4.59 -23.56,8.47 -35.28,12.91 0.12,-94.05 0,-188.1 0.05,-282.13 11.3,-2.66 22.62,-5.28 34.01,-7.57 14.82,37.82 29.1,75.85 42.67,114.14 1.59,4.43 3.45,8.77 5.52,13 1.05,-45.27 0.23,-90.58 0.43,-135.85zm226.29 -10.13l0 0c11.55,0.94 23.24,0.88 34.68,2.92 0.76,89.29 0.09,178.66 0.32,267.97 -11.64,-1.44 -23.33,-2.85 -35.02,-3.97 0,-88.97 -0.05,-177.94 0.02,-266.92zm-73.49 -2.16l0 0c11.66,-0.11 23.33,0.42 35,0.74 0,88.67 -0.02,177.37 0.02,266.04 -11.46,-0.46 -22.92,-0.34 -34.38,-0.27 -16.01,-49.17 -30.29,-98.92 -47.49,-147.68 -0.69,49.93 0.18,99.88 -0.44,149.81 -11.64,0.88 -23.26,2.09 -34.84,3.47 0.16,-89.45 -0.32,-178.91 0.25,-268.36 11.21,-0.67 22.42,-1.56 33.65,-1.91 16.65,44.1 31.95,88.68 48.04,132.95 0.37,-44.92 0.03,-89.84 0.19,-134.79zm144.09 8.62l0 0c31.3,4.41 62.47,9.94 93.36,16.69 6.64,16.22 14.72,31.95 19.96,48.67 0.91,29.1 0.04,58.26 0.41,87.41 0.6,7.6 -3.58,14.19 -6.89,20.69 -4.64,8.66 -9.07,17.41 -13.5,26.16 -19.18,-6.13 -38.52,-11.74 -58.02,-16.72 -0.62,32.06 -0.23,64.15 -0.21,96.23 -11.66,-2.98 -23.4,-5.76 -35.16,-8.43 0.1,-90.23 0,-180.47 0.05,-270.7zm35.62 63.57l0 0c0.02,18.81 -0.18,37.59 0.12,56.38 12.6,2.34 24.84,6.32 37.45,8.61 5.35,-1.97 4.69,-9.94 4.96,-14.83 -0.64,-13.85 2.02,-28.28 -3.26,-41.53 -13.02,-3.19 -26.16,-5.88 -39.27,-8.63zm227.69 13.16l0 0c10.45,5.53 20.6,11.55 30.85,17.45 24.34,142.07 44.46,284.92 59.5,428.3 -13.76,-16.44 -26.62,-33.67 -41.06,-49.53 -2.8,-20.97 -5.26,-41.99 -8.13,-62.96 -0.21,-4.22 -2.62,-7.69 -5.33,-10.72 -16.88,-19.38 -34.31,-38.45 -53.81,-55.24 -2.99,13.58 -6.07,27.13 -9.12,40.68 -10.63,-9.21 -21.75,-17.82 -33.21,-25.95 20,-94.03 39.85,-188.1 60.31,-282.03zm-6.13 213.68l0 0c12.17,10.4 23.81,21.38 35.32,32.52 -5.31,-38.06 -10.89,-76.07 -16.97,-114.01 -7.3,26.87 -12.15,54.34 -18.35,81.49zm-1004.99 -133.55l0 0c-2.92,2.46 -5.95,5.16 -7.03,9 -5.88,17.87 -11.41,35.85 -17.06,53.79 -2.51,8.13 -5.77,16.28 -5.56,24.94 0.11,135.5 0,270.98 0.07,406.48 7.97,4.99 15.96,9.95 23.9,15 30.46,-31.97 61.26,-63.62 92.06,-95.26 19.38,20.05 37.57,41.22 57.16,61.04 0.6,-21.13 0.02,-42.28 0.37,-63.41 -0.16,-4.89 0.59,-10.5 -3.15,-14.33 -9.97,-13 -20.74,-25.4 -30.57,-38.49 -2.2,-2.53 -1.88,-6.02 -2.04,-9.12 0.11,-125.58 0,-251.16 0.07,-376.74 0.11,-3.2 -0.58,-6.43 -2.78,-8.84 -7.05,-9.22 -14.4,-18.19 -21.75,-27.15 -28.89,19.66 -56.8,40.74 -83.69,63.09zm22.5 54.86l0 0c12.98,-11.18 25.89,-22.5 39.53,-32.88 5.42,8.79 3.42,19.31 3.68,29.07 -0.03,101.05 -0.03,202.13 0.02,303.18 -0.21,9.26 -3.22,18.93 -10.15,25.38 -13.48,13.39 -26.32,27.4 -39.23,41.36 -1.86,-2.78 -4.46,-5.49 -4.02,-9.16 -0.07,-109.55 0.07,-219.12 -0.07,-328.67 0.14,-10.06 2.04,-21.52 10.24,-28.28zm385.2 212.9l0 0c-5.74,3.38 -11.09,7.42 -17.09,10.34 -14.49,-11.48 -26.59,-27.54 -30.43,-45.91 -0.83,-2.04 -0.57,-4.94 -2.8,-6.09 -6.45,6.2 -11.99,13.92 -13.85,22.81 -3.01,19.31 3.65,38.47 13.32,54.96 -31.33,26.29 -58.7,57.28 -80.79,91.68 -43.85,67.75 -66.17,149.01 -63.48,229.64 1.79,72.32 23.88,143.93 62.95,204.79 32.24,50.58 75.95,93.75 126.91,125.4 19.11,12.54 40.24,21.47 60.56,31.69 48,43.07 99.77,81.97 154.13,116.67 67.73,41.48 142.6,70.26 219.1,90.95 19.59,4.82 39.43,11.23 59.9,8.96 15.55,-0.39 31.46,-6.75 46.76,-1.2 25.74,7.49 44.71,27.36 66.6,41.66 18.35,9.42 40.26,10.91 60.36,7.17 13.8,-3.05 28.27,1.31 41.91,-3.28 15.04,-3.43 26.8,-14.52 34.84,-27.24 -10.77,2.75 -21.86,4.52 -32.98,3.33 1.68,-3.01 3.28,-6.11 5.37,-8.87 9.88,-2.32 20.47,-3.35 28.96,-9.48 9.35,-5.26 13.14,-16.29 22.28,-21.78 18.7,-12.42 26.8,-35.73 26.73,-57.39 -8.77,10.34 -18.32,20.63 -31.34,25.54 -2.32,-4.18 -4.67,-8.31 -7.01,-12.45 8.18,-8.84 12.01,-20.64 20.19,-29.46 13.34,-15 18.83,-35.97 16.08,-55.72 -7.81,11.35 -17.48,21.59 -30.16,27.45 -5.88,-8 -13.8,-14.24 -23.24,-17.46 6.08,-9.87 12.12,-20.26 12.79,-32.13 6.13,-5.3 12.13,-11.16 15.18,-18.83 4.92,-11 4.66,-23.27 3.98,-35.03 -11.24,11.85 -24.3,23.91 -41.18,26.12 -6.48,-2.46 -12.06,-6.64 -18.4,-9.35 -17.75,-8.22 -37.92,-10.06 -57.1,-6.84 -1.05,-5.13 -2.18,-10.22 -3.39,-15.28 13.98,-3.69 28.52,-4.02 42.85,-2.75 -15.43,-16.24 -37.76,-25.91 -60.26,-24.78 -8.13,0.87 -14.73,-4.55 -22.12,-6.76 -10.66,-3.12 -22.39,-2.66 -32.66,1.63 -17.96,7.12 -32.1,21.55 -50.73,27.24 -37.09,12.45 -77.1,4.96 -113.78,-5.12 20.12,-12.81 40.19,-25.84 58.27,-41.48 57.16,-48.09 100.59,-112.42 123.44,-183.54 30.55,-93.89 25.13,-199.03 -15.48,-289.06 -22.64,-51.1 -56.61,-96.83 -97.67,-134.61 11.85,-16.97 20.42,-37.25 18.6,-58.33 -0.96,-10.47 -7.81,-19.06 -15.27,-25.93 -2.96,23.72 -19.43,42.83 -37.73,56.93 -66.31,-48.53 -148.19,-75.46 -230.32,-75.97 -74.43,-1.52 -149.09,18.7 -212.8,57.16zm14.77 33.58l0 0c58.77,-36.84 128.52,-55.88 197.85,-54.57 69.91,0.67 139.78,21.91 197.67,61.21 -7.44,4.06 -15.06,7.83 -22.85,11.21 -60.08,-39.94 -132.47,-60.8 -204.56,-59.79 -46.51,0.51 -92.92,9.99 -135.85,27.89 -10.86,4.45 -21.24,10.01 -32.26,14.05zm-31.56 22.16l0 0c4.41,34.02 17.2,69.45 45.13,91.13 13.71,-6.82 28.52,-10.95 43.52,-13.84 -22.69,16.39 -46.21,31.96 -66.51,51.44 -11.41,10.8 -22.46,22.35 -30.04,36.27 9.55,1.99 18.95,4.96 27.49,9.73 -10.08,5.54 -19.5,12.66 -25.95,22.35 -15.66,22.07 -21.93,49.12 -26.02,75.47 18.81,-21.36 46.39,-36.89 75.6,-33.65 36.68,4.43 68.42,25.65 97.52,47.01 5.76,-9.64 14.58,-19.17 26.75,-19.06 17.76,0.41 33.03,11.85 45.09,23.95 -15.5,-5.76 -32.22,-10.1 -48.69,-5.78 -4.25,3.17 -7.63,7.28 -9.85,12.12 12.12,10.98 24.41,21.89 34.84,34.55 -12.31,-7.74 -23.75,-16.77 -35.97,-24.63 0.69,6 -0.23,12.68 2.18,18.29 14.79,12.83 27.93,28.47 46.21,36.56 8.04,3.77 17.07,4.13 25.79,4.71 -1.88,-9.76 -6.38,-19 -13.98,-25.57 -13.42,-12.21 -27.77,-24.91 -33.63,-42.71 6.85,5.4 15.87,6.68 24.12,8.7 24.92,4.16 51.12,3.13 74.85,-6.15 -3.91,9 -9.26,17.41 -16.38,24.23 -11.97,12.63 -29.51,22.6 -31.58,41.66 9.67,-0.55 19.68,-1.15 28.53,-5.56 17.4,-8.34 29.97,-23.45 44.99,-35.12 0.5,-5.95 1.01,-11.87 1.4,-17.8 -12.66,8.11 -24.85,16.89 -37.37,25.18 11.09,-12.59 23.43,-24.03 36.34,-34.71 -1.91,-5.23 -5.29,-9.62 -9.97,-12.63 -16.22,-4.89 -32.91,-0.41 -48.32,5.03 12.12,-12.05 27.69,-23.08 45.42,-23.24 12.15,0.07 21.13,9.65 26.46,19.66 23.61,-17.16 48.76,-33.03 76.96,-41.39 16.22,-4.93 33.9,-5.94 50.21,-0.87 18.55,5.19 33.92,17.75 46.25,32.15 -2,-14.49 -4.45,-28.98 -9,-42.92 -7.07,-22.67 -19.66,-45.63 -41.94,-56.31 9,-4.25 18.51,-7.24 28.3,-9.08 -22.01,-38.21 -60.06,-62.99 -94.4,-89.01 15.09,2.2 29.1,8.31 43.13,13.82 27.93,-21.29 41.51,-56.2 46.1,-90.05 -21.75,13.64 -45.98,22.83 -67.94,36.04 -7.87,3.23 -15.04,7.94 -21.65,13.27 -13.53,10.68 -26.62,26 -25.13,44.4 0.12,9.98 8.02,16.99 15.04,22.94 -14.44,-0.09 -29.9,-3.42 -40.14,-14.36 -7.56,-7.07 -10.34,-17.24 -14.52,-26.36 -14.53,-0.46 -29.3,-1.22 -43.77,0.48 -3.49,4.16 -4.48,9.69 -4.87,14.95 -0.8,18.67 7.14,36.43 6.94,55.01 -0.05,8.15 -4.92,15.06 -10.73,20.34 -0.39,-6.82 0.28,-13.94 -2.36,-20.39 -2.26,-5.88 -6.87,-10.33 -11.1,-14.84 1.56,14.4 -4.32,27.73 -12.72,39 -9.03,-11.09 -14.38,-24.94 -12.59,-39.43 -10.65,8.47 -14.9,21.75 -14.58,35 -5.88,-5.9 -10.52,-13.53 -9.9,-22.16 0.81,-22.83 14.22,-46.37 3.79,-68.74 -15.02,-0.26 -30.02,-1.17 -45.01,-0.55 -3.1,10.01 -7.37,20.11 -15.41,27.19 -10.29,9.92 -25.04,12.68 -38.84,12.45 5.37,-4.78 11.64,-9.42 13.9,-16.59 3.88,-11.57 -0.33,-24.18 -6.99,-33.83 -9.94,-13.82 -24.02,-24.43 -39.25,-31.8 -21.54,-12.61 -44.55,-22.7 -65.75,-35.95zm91.02 25.61l0 0c19.22,7.65 34.17,22.78 47.38,38.24 -4.62,3.72 -9.28,7.4 -13.94,11.05 -3.4,-20.56 -18.84,-35.74 -33.44,-49.29zm233.43 37.9l0 0c13.64,-14.95 28.11,-30.41 47.42,-37.87 -14.58,13.5 -29.83,28.66 -33.41,49.12 -4.78,-3.63 -9.49,-7.33 -14.01,-11.25zm156.45 -35.07l0 0c42.97,40.88 74.54,93.31 92.64,149.69 28.09,87.94 21.64,186.56 -18.51,269.79 -20.03,41.84 -48.11,79.69 -82.2,111.16 -20.32,18.37 -42.07,35.71 -66.6,48.14 57.72,-39.51 105.35,-94.4 133.09,-158.84 42.81,-96.28 40.61,-211.18 -5.78,-305.78 -15.21,-32.15 -36.06,-61.23 -59.31,-87.98 1.02,-8.91 4.99,-17.32 6.67,-26.18zm-542.77 328.46l0 0c3.08,48.09 13.18,96.3 34.04,139.94 20.8,40.69 48.55,77.55 79.57,110.99 53.38,57.05 116.1,104.46 181.23,147.27 68.03,43.17 144.16,72.18 221.7,93.17 16.56,3.86 33.21,9.83 50.48,8.15 19.18,-1.4 38.08,-5.21 57.14,-7.67 14.1,-1.93 28.34,-0.62 42.46,0.55 -10.77,4.18 -22.16,6.34 -33.04,10.15 5,3.96 11.18,5.91 16.58,9.24 10.84,6.27 19.29,16.21 30.98,21.06 11.25,6.08 22.92,11.6 35.39,14.7 16.6,3.86 34.61,-1.89 46.85,-13.53 -13.36,-4.96 -25.84,-12.24 -36.61,-21.57 -9.87,-9.9 -23.56,-13.64 -36.19,-18.6 13.89,2.21 26.89,7.69 40.1,12.17 15.52,4.92 31.05,11.44 47.7,10.66 15.09,-0.14 32.59,-4.85 39.98,-19.34 5.54,-10.26 0.92,-22.07 -5.46,-30.68 -17.94,6.84 -37.67,7.39 -56.22,2.92 -9.01,-2.6 -17.89,-6 -25.31,-11.85 -9.17,-7.01 -21.2,-7.08 -32,-9.47 11.28,-3.72 23.11,-6.43 35.05,-5.99 12.29,1.58 23.31,7.78 34.98,11.62 15.82,4.8 33.25,-0.16 45.68,-10.63 7.49,-6.43 11.3,-17.39 8.04,-26.87 -4.62,-9.79 -14.95,-15.35 -24.81,-18.52 -11.62,6.43 -24.34,10.57 -37.73,10.61l-0.28 -0.57c-11.78,-0.57 -23.21,-3.67 -34.9,-4.85 -12.61,-1.01 -23.94,5.38 -35.12,10.13 12.93,-22.21 41.23,-24.37 64.24,-24.96 10.1,-0.62 20.9,0.18 30.2,-4.55 11.46,-5.72 17.5,-20.94 11.78,-32.66 -5.93,-12.17 -18.44,-20.6 -31.79,-22.32 -39.06,-6.45 -77.23,6.8 -115.33,13.14 19.24,-9.6 38.76,-18.65 58.33,-27.59 -1.1,-15.89 -9.81,-33.16 -26.13,-37.75 -10.68,-3.4 -21.43,0.91 -30.5,6.4l-0.39 -0.04c-33.72,23.88 -70.72,48.94 -113.74,48.85 -43.22,-1.66 -84.65,-16.31 -124.29,-32.64 40.72,10.18 83.12,13.14 124.96,12.15 -22.83,-2.89 -45.36,-7.97 -67.29,-14.97 -69.86,-22.49 -133.87,-60.22 -192.71,-103.56 -14.33,-3.74 -29.54,-4.41 -44.05,-7.74 -8.82,-25.33 -18.05,-50.96 -33.44,-73.17 -8.02,-11.62 -17.94,-22.9 -31.44,-28 -16.75,-5.42 -37.02,0.33 -46.94,15.28 -12.54,17.98 -13.67,40.74 -13.19,61.91 -11.07,-13.8 -23.75,-26.43 -32.86,-41.7 -13.19,-20.88 -21.36,-44.44 -27.15,-68.31 -4.27,3.82 -7.85,8.94 -13.44,11.01 -10.67,-35.17 -11.39,-72.33 -13.91,-108.7 -3.1,3.07 -6.18,6.22 -9.24,9.39 4.53,49.84 14.96,100.11 38.82,144.53 18.99,34.74 42.81,66.67 69.36,96 54.08,59.39 118.55,108.24 185.38,152.36 67.48,43.01 142.95,72.11 219.88,93.2 13.76,3.44 27.47,7.57 41.62,9.11 15.32,0.64 30.61,-1.58 45.93,-0.82 16.93,0.73 35.09,2.29 49.06,12.9 -32.78,-2.78 -64.54,9.19 -97.22,8.48 -16.31,-1.52 -31.97,-6.69 -47.79,-10.54 -78.53,-22.03 -155.65,-52.3 -223.77,-97.7 -69.93,-47.11 -137.52,-99.4 -191.88,-164.35 -31.67,-38.47 -60.49,-80.78 -74.96,-128.96 -10.93,-35.3 -16.95,-72.11 -18.15,-109.04 0.05,-30.16 3.15,-60.29 9.08,-89.87 -16.79,38.19 -19.02,80.89 -17.32,122.04zm44.71 -79.46l0 0c14.84,-18.19 40.22,-24.94 62.89,-22 33.96,3.88 63.34,23.17 91.36,41.31 -0.62,4.57 -1.15,9.12 -1.63,13.71 -24.94,-16.26 -50.92,-32.29 -80.18,-39.29 -19.13,-4.66 -39.78,0.43 -55.44,12.03 -7.4,5.24 -13.07,12.4 -18.9,19.23 0.02,-8.32 -0.62,-16.95 1.9,-24.99zm428.49 -18.65l0 0c-33.05,3.79 -61.46,22.44 -89.5,38.88 0.27,4.96 0.51,9.95 0.69,14.95 24.43,-16 50.34,-30.93 78.93,-37.94 13.97,-3.7 28.99,-2.2 42.19,3.56 14.08,5.67 24.97,16.7 33.95,28.62 -0.09,-8.59 1.22,-17.89 -2,-26 -15.48,-18.24 -41.06,-25.19 -64.26,-22.07zm-430.44 72.48l0 0c15.83,-33.32 56.29,-56.66 92.81,-44 20.37,6.18 39.04,16.83 56.82,28.36 10.1,5.65 8.52,19.13 12.01,28.73l0.64 0.35c11.28,35.32 24.05,70.16 37.51,104.72 5.01,12.7 10.38,28.02 24.57,32.85 13.87,3.23 28.5,3.19 42.54,0.96 11.39,-2.46 18.94,-12.56 23.1,-22.83 16.01,-37.5 30.36,-75.67 43.8,-114.16 3.26,-8.48 3.67,-18.45 8.91,-25.89 20.32,-13.85 42.56,-25.74 66.58,-31.67 35.21,-8.82 71.38,14.77 86.51,45.93 4.14,6.96 2.32,15.14 1.45,22.65 -1.4,9.26 -3.22,18.42 -5.74,27.42 -5.05,-5.83 -10.15,-11.69 -16.47,-16.21 -0.55,34.08 -10.84,68.55 -32.11,95.52 -6.2,-19.18 -18.14,-38.47 -37.91,-45.71 -14.31,-5.99 -30.02,-2.96 -44.54,0.48 9.51,-10.58 22.67,-19.1 37.39,-18.99 19.73,-0.96 36.98,10.98 51.1,23.49 3.43,-11.16 7.86,-22.34 8.07,-34.17 -24.72,-15.04 -58.43,-24.21 -84.91,-8.08 5.74,-7.86 12.4,-14.91 18.88,-22.12 -57.42,34.89 -91.48,98.21 -106.5,162.1 -12.77,1.08 -25.52,2.64 -38.33,2.85 -12.7,-0.53 -25.33,-2.03 -37.92,-3.68 -11.59,-54.54 -36.95,-107.64 -78.86,-145.33 -7.63,-6.89 -15.83,-13.16 -24.74,-18.28 6.66,7.3 13.14,14.77 19.22,22.57 -26.27,-16.81 -59.78,-8.1 -85.34,5.75 -0.69,11.64 3.54,23.24 7,34.28 12.32,-8.7 24.51,-18.87 39.92,-21.33 18.28,-4.04 37.09,4.68 48.58,18.88 -14.36,-3.65 -29.84,-6.73 -44.15,-1.24 -20,6.82 -32.47,26.04 -38.86,45.26 -20.92,-27.42 -29.99,-62.01 -30.93,-96.07 -5.97,4.58 -11.19,9.99 -16.03,15.74 -2.85,-8.98 -4.27,-18.28 -5.45,-27.59 -0.68,-7.16 -2.29,-14.88 1.38,-21.54zm278.43 42.86l0 0c10.05,-5.01 19.79,-10.91 27.67,-19.04 -1.77,18.69 -3.47,39.66 -17.55,53.67 -1.6,-11.99 -3.93,-24.07 -10.12,-34.63zm-88.84 -19.59l0 0c8.2,7.64 17.55,13.94 27.47,19.13 -6.39,10.56 -9.16,22.71 -10.66,34.84 -13.59,-14.45 -15.18,-35.23 -16.81,-53.97zm33.05 35.89l0 0c5.14,-1.58 11.18,-1.47 15.87,1.5 4.11,6.36 5.99,13.82 8.68,20.83 3.58,-7.1 5.07,-15.67 10.68,-21.5 6.38,-2.2 14.74,-2.27 19.77,2.89 -1.65,12.41 -2.45,29.72 -16.28,34.78 -11.23,3.12 -25.24,3.78 -34.7,-4.14 -6.98,-7.83 -7.74,-19.18 -9.1,-29.1 -0.87,-3.33 2.71,-4.27 5.08,-5.26zm-0.41 41.69l0 0c1.26,12.77 3.17,26 11.13,36.56 -8.91,-0.69 -20.3,-2.98 -22.91,-13.05 1.4,-8.88 7.02,-16.16 11.78,-23.51zm38.23 36.84l0 0c8.13,-10.48 10.25,-23.73 11.83,-36.48 4.37,7.95 11.53,15.71 10.64,25.41 -3.59,8.88 -14.13,10.31 -22.47,11.07zm-172.43 -289.15l0 0c-0.78,0.34 -2.34,1.03 -3.1,1.38 6.34,0.2 12.68,0.29 19.02,0.57 1.93,0.07 5.76,0.23 7.69,0.32 -3.51,17.92 -2.94,37.74 8.25,53.01 11.8,-1.29 23.91,-2.09 35.53,0.92 15.78,3.53 29.53,12.9 40.67,24.36l1.36 1.27c-0.05,-4.11 -0.12,-8.22 -0.23,-12.31 6.29,-0.58 13.98,-0.28 17.84,-6.36 7.37,-11.26 3.79,-25.5 2.71,-37.97 -1.33,9.4 -2.99,18.93 -7.6,27.38 -3.77,2.55 -8.84,3.88 -12.77,0.8 -15.3,-10.81 -21.96,-29.88 -37.05,-40.97 -19.84,-15.82 -48.55,-25.81 -72.32,-12.4zm34.48 7.9l0 0c8.31,0.83 17.59,1.65 23.88,7.81 -0.62,2.8 -1.35,5.6 -2.16,8.38 4.89,0.8 9.58,5.26 7.97,10.57 -0.78,5.14 -6.48,6.17 -10.66,6.93 0.62,1.19 1.91,3.58 2.55,4.78 -5.87,-0.14 -11.73,-0.37 -17.59,-0.49 -6.77,-11.55 -6.08,-25.23 -3.99,-37.98zm37.57 17.94l0 0c7.85,10.47 15.73,20.96 22.48,32.19 -8.36,-3.05 -16.76,-6.06 -25.35,-8.38 2.06,-7.76 3.14,-15.78 2.87,-23.81zm189.38 -5.15l0 0c2.14,10.8 2.39,21.89 0.44,32.75 5.28,0.12 10.56,0.28 15.84,0.48 6.87,-11.23 8.78,-24.62 6.39,-37.46 -7.76,0.07 -15.44,1.38 -22.67,4.23zm-24.9 19.94l0 0c-5.46,6.68 -11.16,13.18 -16.23,20.18 9.16,-2.25 18.35,-4.54 27.65,-6.24 -0.35,-1.25 -1.03,-3.75 -1.4,-4.99 7.28,-2 9.76,-12.65 2.45,-16.12 -5.62,-3.24 -8.79,4.43 -12.47,7.17z"/>
   <path class="fil3" d="M804.13 556.37c58.77,-36.84 128.52,-55.88 197.85,-54.57 69.91,0.67 139.78,21.91 197.67,61.21 -7.44,4.06 -15.06,7.83 -22.85,11.21 -60.08,-39.94 -132.47,-60.8 -204.56,-59.79 -46.51,0.51 -92.92,9.99 -135.85,27.89 -10.86,4.45 -21.24,10.01 -32.26,14.05zm171.97 412.59l0 0c5.14,-1.58 11.18,-1.47 15.87,1.5 4.11,6.36 5.99,13.82 8.68,20.83 3.58,-7.1 5.07,-15.67 10.68,-21.5 6.38,-2.2 14.74,-2.27 19.77,2.89 -1.65,12.41 -2.45,29.72 -16.28,34.78 -11.23,3.12 -25.24,3.78 -34.7,-4.14 -6.98,-7.83 -7.74,-19.18 -9.1,-29.1 -0.87,-3.33 2.71,-4.27 5.08,-5.26zm277.37 -361.99l0 0c42.97,40.88 74.54,93.31 92.64,149.69 28.09,87.94 21.64,186.56 -18.51,269.79 -20.03,41.84 -48.11,79.69 -82.2,111.16 -20.32,18.37 -42.07,35.71 -66.6,48.14 57.72,-39.51 105.35,-94.4 133.09,-158.84 42.81,-96.28 40.61,-211.18 -5.78,-305.78 -15.21,-32.15 -36.06,-61.23 -59.31,-87.98 1.02,-8.91 4.99,-17.32 6.67,-26.18z"/>
  </g>
 </g>
</svg>
