<?xml version="1.0" encoding="UTF-8"?>
<!DOCTYPE svg PUBLIC "-//W3C//DTD SVG 1.1//EN" "http://www.w3.org/Graphics/SVG/1.1/DTD/svg11.dtd">
<!-- Creator: CorelDRAW -->
<svg xmlns="http://www.w3.org/2000/svg" xml:space="preserve" width="2000px" height="1600px" version="1.1" style="shape-rendering:geometricPrecision; text-rendering:geometricPrecision; image-rendering:optimizeQuality; fill-rule:evenodd; clip-rule:evenodd"
viewBox="0 0 2000 1600"
 xmlns:xlink="http://www.w3.org/1999/xlink">
 <defs>
  <style type="text/css">
   <![CDATA[
    .fil0 {fill:#1B3C71;fill-rule:nonzero}
   ]]>
  </style>
 </defs>
 <g id="Capa_x0020_1">
  <metadata id="CorelCorpID_0Corel-Layer"/>
  <path id="Rice_x0020_Owls.cdr" class="fil0" d="M1268.21 80l1.06 0c45.53,20.95 84.61,55.32 111.34,97.68 34.83,54.83 51.37,120.05 52.83,184.63 2.98,24.12 1.02,48.52 -1.88,72.56 -7.91,59.24 -25.16,117.71 -54.33,170.05 -9.73,18.07 -22.63,34.15 -35.73,49.87 -22.39,26.51 -46.72,51.36 -72.7,74.34 -12.4,10.62 -24.61,21.58 -38.03,30.88 11.44,1.01 20.59,8.71 29.44,15.32 18.21,14.83 35.64,30.94 49.67,49.89 16.35,21.94 29.54,46.08 41.03,70.87 13.99,30.16 25.48,61.41 35.73,93.02 8.02,23.77 13.52,48.28 20.02,72.49 13.88,53.01 27.51,106.08 42.07,158.91 2.86,11.46 8.24,22.03 13.05,32.76 6.49,13.91 14.51,28.1 27.9,36.42 13.48,8.21 29.52,13.82 45.46,11.22 20.72,-3.31 39.5,-13.51 57.85,-23.18l0 3.9 -0.02 -2.56c-20.11,32.31 -40.03,64.73 -59.51,97.42 -14.83,24.78 -27.96,50.5 -41.78,75.86 -10.19,18.9 -20.31,37.86 -30.48,56.77 -48.6,4.12 -96.79,-14.63 -135.08,-43.72 -18.29,-13.34 -32.52,-31.42 -44.06,-50.71 -19.68,-32.92 -32.06,-69.46 -43.53,-105.87 -8.07,5.79 -14.31,13.58 -20.83,20.94 -25.79,30.13 -50.35,61.3 -73.23,93.7 -23.35,32.18 -46.69,64.36 -70.04,96.54l-0.12 0c-44.44,-25.34 -89.44,-49.89 -136.16,-70.77 -57.28,-26.13 -121.26,-35.17 -183.81,-32.03 -38.04,2.15 -76.18,8.24 -112.05,21.47 -53.25,19.83 -103.23,47.44 -151.54,77.15 8.94,-18.65 19.22,-36.75 31.77,-53.23 15.7,-23.19 33.24,-45.09 51.94,-65.9 38.15,-42.22 81.27,-80.17 129.12,-111.1 46.17,-29.5 97.13,-53.33 151.64,-61.81 33.34,-5.95 67.45,-6.99 101.17,-4.22 31.02,3.11 61.36,10.73 91.29,19.13 33.47,9.55 66.48,20.64 99.11,32.73 13.8,5.02 27.3,10.85 41.31,15.24 4.23,1.17 8.27,3.42 12.69,3.61 7.02,-5.52 13.4,-11.84 20.41,-17.38 -9.56,-30.32 -17.64,-61.21 -21.91,-92.75 -4.27,-32.7 -10.21,-65.15 -15.52,-97.66 -6.01,-33.88 -10.73,-68.1 -20.47,-101.17 -7.79,-26.78 -16.65,-53.39 -29.03,-78.43 -4.95,-9.09 -9.72,-18.45 -16.88,-26.03 -6.41,-6.93 -13.77,-12.98 -21.67,-18.15 -8.02,-5.25 -17.71,-7.19 -27.16,-7.57 -0.69,17.86 -1.14,35.75 -1.76,53.62 -0.58,36.27 0.03,72.53 -0.31,108.8 -1.28,21.3 -7.94,42.77 -21.36,59.62 -4.67,6 -10.7,10.73 -15.96,16.16 -17.22,17.78 -37.05,32.83 -57.71,46.38 -26.67,17.33 -54.97,32.16 -84.44,44.15 -25.1,10.62 -52.25,14.48 -78.7,20.2 27.63,-18.77 50.19,-48.15 52.9,-82.36 2.09,-30.6 0.29,-61.33 1.44,-91.97 -0.29,-45.4 0.67,-90.77 0.36,-136.18 1.01,-32.64 -0.23,-65.33 0.8,-97.97 0,-114.77 -0.09,-229.54 0.04,-344.31 2.09,-30.44 5.87,-61.46 17.96,-89.74 9.59,-19.36 22.89,-37.08 39.71,-50.76 10.92,-9.1 23.06,-16.58 34.86,-24.47 49.15,-32.55 98.26,-65.13 147.41,-97.66 54.78,-34.91 109.6,-69.78 164.41,-104.64zm-563.89 320.24c39.31,-16.11 78.59,-32.32 117.94,-48.38 -11.33,27.23 -20.26,55.59 -24.81,84.79 -2.1,19.82 -2.55,39.77 -3.66,59.66 0.03,186.16 -0.04,372.34 0.03,558.5 4.6,49.3 -16.11,99.16 -51.34,133.39 -15.36,14.83 -32.52,27.67 -49.29,40.83 -41.41,31.79 -85.45,60.16 -131.91,83.97 25.46,-17.03 39.36,-47.5 39.7,-77.68 0,-109.52 0,-219.04 0,-328.57 -22.21,0.05 -44.41,-0.15 -66.6,0.1 -17.97,1.2 -37.83,4.37 -51.04,17.78 -10,9.78 -12.18,25.16 -8.57,38.25 -13.54,-6.21 -23.36,-18.07 -31.29,-30.33 -19.96,-30.22 -26.47,-67.07 -27.3,-102.71 -0.25,-30.86 2.2,-63.03 16.1,-91.13 9.04,-18.71 25.28,-34.11 45.25,-40.5 16.14,-5.67 33.42,-6.05 50.35,-6.48 24.63,0.06 49.3,-0.32 73.88,-2 0.21,-43.06 -0.69,-86.11 -0.38,-129.19 -0.63,-16.86 -0.43,-33.73 -0.33,-50.59 0.63,-23.55 11.83,-45.76 27.95,-62.53 20.75,-21.62 47.44,-36.73 75.32,-47.18zm226.1 -249.68c26.9,-13.91 49.92,-34.17 70.7,-55.96 -17.33,45.57 -37.31,90.5 -64.08,131.39 -11.33,16.77 -23.88,33.27 -40.59,45.04 -18.89,14.47 -39.03,27.57 -61.12,36.65 -39.44,16.4 -82.98,22.9 -125.52,19.25 -40.57,-3.68 -79.28,-17.36 -116.91,-32.23 -30.47,-12.6 -64.57,-19.31 -97.27,-12.57 -14.34,2.68 -26.92,10.66 -38.25,19.47 -18.87,14.88 -35.17,32.7 -50.37,51.23l0 -20.55c0.69,-8.63 1.14,-17.29 1.98,-25.92 1.21,-15.81 5.34,-31.19 9.45,-46.45 11.31,-39.25 29.16,-77.84 58.46,-106.95 26.96,-27.92 64.37,-45.23 103.01,-48.46 20.55,-2.08 41.21,0.35 61.51,3.46 16.13,2.58 32.28,5.83 47.55,11.77 50.35,18.67 101.76,36.28 155.37,42.43 28.95,3.27 59.7,1.99 86.08,-11.6zm169.39 109.63l0 0c-11.48,10.71 -22.18,22.74 -28.85,37.11 -1.27,2.89 -2.94,5.82 -2.86,9.07 -0.32,94.9 -1.62,189.78 -1.53,284.68 0.17,32.68 -0.4,65.36 0.4,98.02 -0.07,37.34 0.09,74.68 1.2,111.99 0.2,8.46 10.84,8.63 16.95,7.2 21.56,-4.83 40.36,-17.47 57.62,-30.77 26.17,-20.86 48.38,-46.46 66.42,-74.59 32.7,-50.86 51.31,-110.09 57.16,-170.09 0.87,-9.62 3.04,-19.1 3.7,-28.74 0.5,-16.45 -1,-32.87 -1.91,-49.27 -2.1,-37.63 -6.37,-75.34 -16.01,-111.85 -7.21,-27.1 -17.34,-53.76 -32.99,-77.17 -14.11,-20.95 -33.38,-39.16 -57.02,-48.74 -22.24,12.06 -43.61,26 -62.28,43.15z"/>
 </g>
</svg>
