<?xml version="1.0" encoding="UTF-8"?>
<!DOCTYPE svg PUBLIC "-//W3C//DTD SVG 1.1//EN" "http://www.w3.org/Graphics/SVG/1.1/DTD/svg11.dtd">
<!-- Creator: CorelDRAW -->
<svg xmlns="http://www.w3.org/2000/svg" xml:space="preserve" width="2000px" height="1600px" version="1.1" style="shape-rendering:geometricPrecision; text-rendering:geometricPrecision; image-rendering:optimizeQuality; fill-rule:evenodd; clip-rule:evenodd"
viewBox="0 0 2000 1600"
 xmlns:xlink="http://www.w3.org/1999/xlink">
 <defs>
  <style type="text/css">
   <![CDATA[
    .fil0 {fill:#002A5C;fill-rule:nonzero}
   ]]>
  </style>
 </defs>
 <g id="Capa_x0020_1">
  <metadata id="CorelCorpID_0Corel-Layer"/>
  <path id="Richmond_x0020_Spiders.cdr" class="fil0" d="M826.99 83.8c5.46,-3.13 12.93,-5.74 18.7,-1.83 12.27,7.79 21.05,20.18 34.14,26.87 9.59,6.09 22.02,13.63 21.6,26.56 9.35,4.54 15.52,12.55 19.61,21.88 2.27,-0.71 4.5,-1.42 6.74,-2.12 8.36,8.24 7.53,20.98 13.68,30.56 13.73,1.61 23.31,14.82 23.29,28.17 7.14,6.71 15.59,11.75 23.03,18.08 5.8,4.29 3.18,12.34 5.77,18.23 3.7,9.26 7.91,18.32 11.78,27.51 8.03,4.94 16.6,10.45 20.65,19.38 5.27,12.36 6.97,25.78 9.18,38.92 3.87,5.61 10.67,8.95 13.78,15.22 2.43,6.38 0.42,13.26 0.59,19.85 3.15,11.37 6.8,22.82 14.34,32.14 0.47,5.44 -2.35,10.6 -3.63,15.81 4.17,6.92 10.25,12.97 12.27,21 1.93,7.82 4.24,15.52 6.34,23.29 1.46,-2.96 3.01,-5.86 4.64,-8.73 2.28,13.87 0.51,27.92 1.03,41.87 1.27,15.56 3.65,31.03 7.21,46.25 -3.91,4.71 -8.69,9.2 -10.41,15.28 -0.02,5.44 1.25,10.81 1.46,16.25 -2.4,9.02 -7.63,17 -10.27,25.95 1.27,9.59 3.79,18.96 5.06,28.54 -4.21,6.88 -8.57,13.66 -12.57,20.65 6.76,-1.64 13.47,-4.52 17.57,-10.43 3.51,-5.15 8.99,-8.08 14.83,-9.86 3.54,-8.72 5.75,-18.37 11.92,-25.7 2.69,-0.19 5.35,-0.04 8.03,0.4 0.59,-9.53 6.15,-18.01 15.71,-20.39 7.53,-12.32 16.22,-24.89 17.61,-39.68 1.09,-5.39 0.03,-11.8 4.12,-16.08 4.81,-6.1 11.02,-11.07 15.19,-17.67 3.91,-8.76 -2.21,-18.41 1.11,-27.22 1.58,-4.62 6.24,-6.78 10.08,-9.21 1.46,-8.33 2.28,-16.93 5.72,-24.75 3.65,-6.92 9.92,-11.89 15.17,-17.52 0.16,-12.24 -2.5,-24.3 -2.71,-36.5 -0.33,-4.57 4.14,-6.57 7.23,-8.81 -2.33,-10.17 -4.95,-20.39 -4.66,-30.92 0.42,-29.08 -13.62,-58.82 -2.36,-87.29 -4.5,-11.03 -9.56,-21.88 -13.49,-33.14 -4.19,-11.11 5.25,-21.62 2.42,-32.9 -2.8,-14.74 -6.85,-31.51 2.36,-44.9 6.85,14.41 13.94,28.72 20.79,43.11 2.54,4.41 2.19,9.38 0.94,14.09 7.42,1.79 14.35,7.63 12.06,16.06 5.96,8.92 9.96,19.85 8.17,30.68 -1.32,14.11 2.33,28.12 2.33,42.23 -0.56,10.12 -4.54,20.48 -0.77,30.47 3.43,10.01 2.87,22.46 12.27,29.29 1.48,8.43 -2.74,15.92 -4.86,23.79 1.7,6.69 6.08,13.14 4.31,20.32 -2.89,13.38 1.16,27.27 -3.74,40.36 4.87,-2.42 9.68,-5.06 14.43,-7.72 -3.15,6.99 -6.09,14.08 -9.2,21.1 -3.72,8.9 -10.74,15.8 -15.38,24.16 -3.65,6.88 -9.68,13.17 -9.14,21.46 2.36,-1.54 4.71,-3.11 7.04,-4.69 2.26,2.75 4.41,5.65 6.43,8.64 -3.48,5.42 -6.52,11.09 -10.1,16.46 -3.34,5.09 -8.9,8.46 -11.47,14.09 -3.13,7.48 -4.45,15.66 -8.24,22.89 -3.49,4.54 -7.89,8.31 -11.68,12.62 3.48,1.43 6.97,2.92 10.48,4.4 -7.84,8.08 -14.53,17.12 -20.14,26.85 -4.71,8.22 -12.27,14.27 -20.6,18.55 -2.36,7.45 -4.29,15.71 -10.65,20.87 -9.18,8.17 -16.5,18.18 -25.81,26.21 -8.33,7.39 -20.25,9.61 -27.36,18.56 18.35,-4.29 35.39,-12.79 53.43,-18.11 4.88,1.1 9,4.28 13.83,5.65 19.4,-4.4 38.78,-11.47 58.96,-10.29 6.34,0.16 11.78,3.74 16.25,7.93 11.87,0 24.61,-0.44 35.33,5.54 4,2.02 5.25,6.45 5.77,10.59 7.65,-0.16 15.4,-1.31 23.03,-0.21 9.94,3.11 19.36,7.7 29.22,11.09 -2.64,2.6 -5.3,5.19 -7.96,7.75 8.01,3.98 16.75,6.15 24.75,10.08 2.43,3.58 2.52,8.88 6.62,11.14 5.86,3.63 11.89,6.99 17.92,10.36 6.26,3.56 14.06,4.08 19.59,9 11.68,9.96 17.83,24.42 26.85,36.52 10.5,18.18 35.37,18.46 47.95,34.55 7.39,7.91 8.99,19.03 14.01,28.28 5.86,7.56 14.72,12.48 19.36,21.08 6.83,12.01 16.34,23.45 17.19,37.82 0.28,6.69 1.48,14.69 -3.25,20.18 -3.54,2.71 -7.47,-1.11 -9.71,-3.7 -9.7,-12.08 -17.45,-25.83 -21.94,-40.71 -11.54,-0.76 -17.55,-11.71 -20.3,-21.6 -4.15,-4.4 -10.25,-6.8 -15.36,-10.05 -4.45,-3.54 -10.95,3.81 -14.67,-1.68 -4.12,-5.44 -6.57,-11.94 -10.52,-17.47 -2.29,-4.57 -7.99,-4.64 -11.97,-6.88 -9.02,-3.74 -13.82,-12.62 -19.57,-19.87 -7.79,-4.81 -17.14,-5.49 -25.9,-7.18 -4.43,-7.85 -8.88,-15.66 -13.21,-23.55 -3.11,0.47 -6.22,0.96 -9.3,1.46 -3.91,-6.24 -7.23,-12.93 -11.97,-18.58 -6.64,-4.57 -14.1,-7.8 -21.1,-11.75 -15.92,3.86 -29.58,-6.32 -44.48,-9.61 -8.03,-2.57 -16.72,1.27 -24.56,-2.43 -14.89,-3.88 -27.6,-15.82 -43.83,-13.28 -9.28,-0.47 -16.86,5.93 -25.9,6.71 -7.8,0.8 -15.83,0.05 -23.41,2.5 -8.55,2.4 -14.79,9.28 -22.94,12.6 13.35,5.44 28.21,5.58 41.28,11.89 7,2.52 13.66,8.05 21.53,6.12 8.24,11.54 24.63,7 34.78,15.69 2.59,2.16 1.44,6.09 2.14,9.06 13.19,9.05 30.15,9.85 43.4,18.68 4.78,3.6 3.18,9.7 1.44,14.46 8.17,5.98 16.41,11.86 24.56,17.89 1.89,5.42 3.39,10.98 5.77,16.2 5.65,5.87 13.14,9.92 17.99,16.68 4.41,5.58 4.03,13.07 5.26,19.73 4.12,2.33 8.43,4.74 11.21,8.76 5.74,6.48 4.87,16.06 9.88,22.99 6.86,8.71 16.44,14.86 23.46,23.45 5.54,9.23 7.96,20.02 13.78,29.16 -3.14,1.46 -6.24,2.96 -9.33,4.47 6.83,7.23 9.91,16.58 11.52,26.21 -0.64,2.05 -1.93,6.12 -2.57,8.15 1.32,0.92 3.96,2.75 5.27,3.65 3.44,14.03 7.8,27.88 16.42,39.68 -2.4,7.94 -2.9,16.2 -1.86,24.42 -1.77,8.48 -0.9,17.21 -2.57,25.72 2.55,7.67 4.34,15.56 5.68,23.54 1.62,9.59 5.77,18.59 6.97,28.26 -0.26,5.66 -6.27,7.8 -10.6,9.8 4.12,17.59 9.75,34.78 15.02,52.07 -3.72,-0.12 -7.44,-0.24 -11.16,-0.31 1.75,6.24 3.75,12.44 5.14,18.79 -0.4,3.82 -2.29,7.28 -2.95,11.07 0.87,5.61 2.99,11.12 2.4,16.89 -0.94,14.88 -1.38,29.81 -2.68,44.67 -0.73,6.92 4.76,13.33 2.47,20.23 -4.85,17.45 -8.24,35.25 -10.95,53.15 -0.94,4.5 -2.31,10.43 -7.53,11.61 -6.15,1.55 -12.04,-4.24 -12.22,-10.24 -0.1,-7.14 2.66,-13.9 3.83,-20.85 2.31,-9.34 -3.41,-18.34 -2.28,-27.67 1.41,-8.73 0.75,-18.69 7.39,-25.52 -1.5,-8.11 -3.58,-16.14 -4.66,-24.31 -0.24,-9.93 7.3,-19.26 4.12,-29.27 -3.37,-12.06 -6.47,-24.18 -9.98,-36.19 -3.06,-8.72 1.67,-17.34 2.45,-25.93 -6.34,-5.77 -16.56,-10.88 -13.62,-21.22 2.62,-9.82 -2.33,-18.86 -3.76,-28.35 -0.99,-5.96 3.69,-10.55 7.06,-14.77 -0.68,-12.36 -5.39,-23.88 -10.64,-34.9 5.63,-9.16 8.26,-20.81 1.32,-30.07 -8.53,-10.36 -4.24,-24.16 -8.93,-35.87 -4.4,-11.63 -10.46,-22.56 -15.47,-33.91 -1.53,-4.45 -5.77,-6.73 -8.88,-9.86 -3.65,-4.78 -6.19,-10.27 -9.44,-15.29 -9.4,-1.06 -10.98,-11.77 -17.48,-16.88 -7.53,-6.48 -11.98,-15.43 -14.53,-24.89 -16.06,2.05 -24.39,-14.67 -27.9,-27.7 -5.35,-2.14 -11.12,-3.62 -15.8,-7.09 -4.57,-3.34 -6.2,-9.02 -8.08,-14.06 -6.67,-2.18 -11.96,4.17 -18.65,3.58 -2.17,-5.48 -5.02,-11.06 -10.91,-13.21 -10.88,-4.49 -14.5,-16.27 -20.86,-25.1 -4.07,-2.33 -9.96,-0.87 -13.12,-4.97 -4.59,-5.63 -11.96,-7.77 -16.5,-13.4 -4.93,-6.43 -13.66,-6.24 -20.94,-6.52 0.05,7.82 0.59,15.61 0.82,23.45 0.1,9.54 6.17,18.28 4.41,27.98 -1.91,15.4 -4.64,30.83 -9.94,45.45 -5.56,10.83 -12.22,21.34 -14.11,33.61 -0.37,8.83 -11.11,10.07 -15.4,16.13 -1.76,11.96 -10.29,22.58 -21.31,27.38 -17.12,5.04 -34.9,13.4 -52.89,7.42 -6.24,-3.15 -12.55,-6.24 -19.41,-7.84 -5.69,-0.75 -7.65,-6.73 -10.47,-10.86 -4.95,1.04 -10.22,2.59 -15.17,0.64 -5.11,-1.93 -7.82,-7.07 -11.09,-11.07 -4.08,0.4 -8.13,0.78 -12.2,0.99 -5.91,-7.06 -14.34,-11.7 -18.75,-20.02 -6.24,-6.38 -14.76,-10.73 -19.33,-18.74 -3.44,-16.02 -12.39,-30.05 -20.68,-43.94 -10.69,14.22 -13.04,31.95 -15.87,49 -0.26,3.84 -4.45,5.04 -6.97,7.18 -0.61,6.67 -0.63,13.43 -2.17,19.97 -9.04,23.81 -17.28,49.39 -13.7,75.17 -1.88,1.11 -3.75,2.22 -5.61,3.35 -0.84,4.12 -0.33,8.92 -3.15,12.41 -9.89,11.04 -7,26.94 -8.48,40.53 4.55,5.18 11.09,10.73 9.3,18.51 -2.59,6.57 -8.57,11.35 -10.22,18.46 -2.26,4.17 0.92,8.4 2.1,12.39 4.87,13.25 11.23,26.56 11.21,40.97 -4.85,-0.05 -8.62,-3.11 -12.41,-5.68 3.65,9.97 7.37,19.93 10.29,30.13 3.2,11.77 -1.84,23.47 -2.52,35.22 2.75,23.67 21.41,42.77 22.63,66.58 -1.18,0.49 -3.49,1.43 -4.64,1.91 4.33,13.84 6.74,28.28 11.54,41.96 10.46,10.72 10.86,27.04 19.95,38.64 5.29,6.83 6.73,15.62 9.82,23.53 1.83,4.33 2.07,8.97 1.29,13.61 9.21,10.81 20.42,24.54 14.3,39.64 11.65,9.04 24.32,18.03 32.19,30.75 1.36,8.83 -10.46,9.77 -16.63,11.28 -9.56,-10.81 -18.91,-21.83 -29.15,-32 -8.6,-8.64 -10.95,-21.03 -15.59,-31.84 -5.07,-5.04 -11.99,-8.78 -14.08,-16.18 -4.88,-14.93 -12.3,-28.82 -17.1,-43.78 -5.42,-5.84 -11.7,-11.16 -15.14,-18.67 0.42,-3.94 0.8,-7.82 1.1,-11.73 -5.25,-4.19 -11.58,-7.86 -14.29,-14.34 -7.75,-13.92 -7.3,-30.33 -10.69,-45.5 -3.18,3.68 -6.29,7.35 -9.49,11.02 -0.07,-9.46 1.79,-18.98 0.66,-28.37 -9.28,-10.15 -13.22,-23.25 -17.15,-36.11 6.76,-7.91 2.62,-18.74 -2.94,-26.02 -5.75,-6.83 -2.52,-16.22 -4.43,-24.21 -3.93,-8.03 -14.55,-12.95 -13.54,-23.03 2.21,-17.42 3.79,-34.92 7.16,-52.16 1.41,-5.63 -1.88,-10.78 -2.87,-16.15 -2.34,-7.68 -0.26,-15.71 -0.76,-23.5 -2.33,-8.51 -7.53,-16.89 -5.27,-25.98 3.15,-10.03 9.07,-20.11 6.73,-30.97 -3.69,-17.73 7.3,-33.41 12.27,-49.69 4.97,-9.72 -6.4,-19.8 -1.18,-29.36 6.41,-12.84 10.67,-26.57 14.61,-40.32 5.25,-9.65 13.54,-17.42 17.82,-27.69 -1.69,-0.14 -5.11,-0.45 -6.8,-0.59 3.15,-14.63 17.07,-22.11 23.8,-34.6 5.04,-8.35 10.51,-16.46 15.48,-24.86 -11.33,7.51 -22.68,14.93 -33.98,22.42 -6.27,4.82 -15.12,4.05 -21.13,9.35 -12.31,9.56 -16.18,25.73 -26.7,36.8 -2.62,2.64 -6.79,0.9 -10.04,1.34 -6.52,9.02 -7.77,21.36 -16.88,28.52 -4.97,4.85 -12.34,4.78 -18.23,7.73 -8.03,9.02 -9.96,21.59 -16.55,31.55 -3.72,-2 -6.93,-4.73 -9.78,-7.84 -0.96,12.25 -2.04,24.47 -3.46,36.67 -0.47,5.41 -6.64,5.13 -10.62,5.7 -5.6,14.24 -16.43,25.26 -24.51,38.03 0.42,7.79 3.88,16.08 0,23.52 -4.9,13.26 -13.47,24.71 -18.84,37.73 -4.62,12.08 2.28,24.75 0.28,37.09 -2.14,5.77 -9,7.32 -14.15,9.44 -2.78,10.32 -6.93,20.09 -11.47,29.72 0.8,8.83 2.28,17.71 1.01,26.61 -1.15,7.26 -0.33,16.09 -6.87,21.01 -8.67,-9.59 -14.82,-22.89 -11.45,-36.01 1.53,-16.98 7.3,-33.67 5.39,-50.84 3.7,-8.64 9.07,-17.17 9.42,-26.94 -2,-6.88 -7.77,-12.46 -7.91,-19.85 -0.42,-6.97 5.42,-11.8 9.02,-17.03 -8.01,-8.12 -10.27,-23.03 -1.58,-31.37 7.44,-8.52 11.35,-19.24 16.65,-29.06 -0.92,-5.6 -2.4,-11.09 -4.26,-16.43 2.33,-3.75 4.61,-7.54 6.8,-11.35 -1.53,-5.14 -5.22,-11.92 0.1,-16.16 9.79,-9.8 21.17,-18.04 29.86,-28.92 4.54,-4.71 1.32,-11.44 1.74,-17.12 14.13,-10.85 25.95,-24.35 36.9,-38.31 9.99,-7.04 20.44,-14.04 27.6,-24.19 3.89,-6.4 6.13,-13.8 11.28,-19.38 6.95,-9.07 16.79,-15.02 25.67,-21.9 5.87,-3.58 2.87,-13.47 9.85,-15.85 15.61,-7.63 30.84,-16.04 46.67,-23.22 -12.55,-0.61 -25.15,-0.42 -37.68,0.31 -9.54,0.56 -18.96,3.65 -28.54,2.54 -5.65,-3.01 -9.54,-8.81 -15.99,-10.36 -12.25,-4.92 -25.83,-3.02 -38.32,-6.95 -5.39,-1.43 -6.42,-7.37 -8.24,-11.8 -2.71,0.33 -5.39,0.66 -8.1,1.02 -14.36,-8.03 -30.35,-13.31 -43.45,-23.48 -6.92,-4.9 -7.86,-15.9 -17.16,-17.64 -7.47,-11.26 -14.44,-23.34 -25.34,-31.7 -7.44,-5.84 -14.16,-12.5 -21.17,-18.81 4.56,-0.26 9.32,-0.52 13.04,-3.56 -12.6,-11.82 -24.49,-24.61 -34.03,-39.16 -3.43,-6.53 -4.56,-13.99 -7.79,-20.61 -11.42,-10.85 -21.81,-23.22 -28.59,-37.54 -3.65,-6.54 -0.99,-13.91 -0.68,-20.88 -5.23,-12.88 -20.68,-16.75 -26.68,-29.02 -4.38,-6.1 2.66,-13.56 -0.43,-20.11 -5.98,-16.01 -13.35,-31.55 -16.58,-48.44 -6.47,-12.86 -8.71,-27.24 -9.25,-41.47 0,-7.25 9.94,-5.53 13.63,-2.05 7.87,7.4 14.51,19.17 10.91,30.12 10.78,11.12 14.6,26.59 23.24,39.17 4.69,6.26 5.68,14.24 9.4,20.98 5.91,7.63 17,15.07 13.98,26.02 1.98,2.68 3.96,5.39 5.96,8.1 1.86,-3.16 3.82,-6.24 5.91,-9.23 5.33,15.47 13.64,30.52 13.38,47.31 -0.8,9.09 10.01,10.03 15.31,14.69 8.52,4.95 10.66,15.05 14.69,23.29 9.73,17.31 28.85,29.35 32.26,50 8.83,4.52 17.85,8.74 27.09,12.39 8.33,2.73 11.25,11.87 15.4,18.67 2.52,-3.06 5.04,-6.1 7.58,-9.14 10.48,10.34 21.48,20.14 31.88,30.55 1.21,-2.36 2.41,-4.71 3.61,-7.04 13.73,-0.5 23.9,9.98 30.52,20.81 4.52,-1.31 8.99,-3.41 13.8,-3.36 6.24,2.4 11.82,6.19 17.66,9.39 1.13,-3.15 2.26,-6.31 3.37,-9.46 11.77,3.98 23,10.57 35.75,10.8 7.74,0.74 15.49,-0.33 23.21,-0.98 -3.76,-5.68 -7.15,-11.57 -10.85,-17.29 -4.19,-7.37 -14.06,-7.51 -19.78,-13.02 -4.74,-6.31 -8.08,-13.47 -10.88,-20.8 -1.68,-4.82 -7.49,-6.47 -9.47,-11.13 -5.42,-11.97 -12.74,-23.39 -12.67,-37.02 -5.49,-8.39 -14.2,-13.9 -20.7,-21.41 -5.51,-10.17 -7.53,-21.78 -8.5,-33.18 -6.45,-6.03 -9.65,-14.37 -14.11,-21.76 -5.58,-9.02 -6.07,-19.99 -10.38,-29.51 -4.26,-7.63 -9.44,-14.69 -14.04,-22.13 3.68,1.06 7.35,2.11 11.05,3.15 -5.18,-22.09 -13.47,-44.74 -8.57,-67.68 1.74,-21.99 -10.15,-42.51 -8.53,-64.55 -2.28,-13.82 -7.65,-26.99 -11.51,-40.43 2.59,1.36 5.18,2.75 7.77,4.12 2.07,-5.23 4.4,-10.36 6.24,-15.68 -1.68,-5.33 -5.94,-10.08 -4.88,-16 0.83,-18.55 1.7,-38.07 -7.7,-54.84 2.78,-7.68 6.34,-15.07 8.88,-22.84 4.03,-15.97 3.13,-32.93 8.76,-48.52 3.3,-9.77 6.59,-19.54 9.8,-29.34 4.05,-2.73 8.31,-5.34 13.28,-5.84 1.18,10.13 -4,19.31 -6.1,28.94 -3.09,9.61 1.06,20.12 -3.75,29.32 -5.29,9.73 4.93,20.02 -0.42,29.58 -3.79,7.94 -1.51,16.84 -1.32,25.22 9.16,11.47 16.35,26.33 13.14,41.33 -1.41,4.66 -1.53,9.51 -1.1,14.37 2.59,2.23 5.15,4.49 7.74,6.78 -1.39,8.55 -2.49,17.26 -1.43,25.9 2.31,10.13 9.06,19.69 6.69,30.5 -2.71,11.58 -2.97,23.45 -1.53,35.23 -0.57,10.97 8.4,18.65 11.6,28.47 3.66,7.65 0.05,15.85 -2.35,23.27 8.03,5.93 14.95,14.03 16.96,24.06 1.81,6.93 0.28,14.02 -0.33,20.99 0.94,5.32 3.39,10.24 4.92,15.42 2.63,7.98 0.44,17.19 5.37,24.52 7.67,12.55 13.54,26.07 19.8,39.37 2.47,6.69 10.67,8.05 14.34,13.82 2.85,3.89 1.75,8.88 1.82,13.38 6.83,2.54 15.89,3.67 19.33,11.02 2.8,7.63 11.3,10.03 16.51,15.61 6.52,5.87 3.6,15.71 8.22,22.68 4.09,11.38 14.57,18.3 24.58,24.07 0.61,-8.79 -0.78,-17.92 2.19,-26.38 2.8,-8.31 6.43,-16.29 10.41,-24.06 -1.98,-10.58 -12.2,-15.48 -18.39,-23.27 -5.11,-5.7 -8.57,-12.58 -11.7,-19.5 1.2,-2.02 2.4,-4.03 3.6,-6.05 -3.02,-9.4 -6.15,-19.1 -5.77,-29.06 2.35,-8.08 8.17,-14.51 12.41,-21.62 3.91,-0.35 7.79,-0.71 11.7,-1.04 -1.01,9.87 -2.4,19.83 -1.39,29.75 2.95,7.56 4.88,15.4 6.17,23.41 7.8,7.13 17.66,11.89 24.99,19.71 2.26,-15.62 22.91,-19.67 33.77,-10.15 5.96,-10.72 15.52,-23.25 9.49,-35.89 -3.58,-7.3 1.74,-15.19 -0.71,-22.73 -0.49,-7.27 -6.57,-11.61 -10.78,-16.79 -1.46,-4.19 0.42,-8.22 3.58,-10.97 7.81,4.45 15.84,8.66 23.12,13.96 5.35,11.16 6.9,23.88 13,34.78 -1.48,7.85 -0.66,15.78 -1.11,23.67 -1.9,8.81 -6.57,16.7 -11.82,23.93 7.63,3.86 15.83,7.42 21.69,13.87 4.9,6.05 8.38,13.09 12.69,19.57 2.36,-7.33 0.9,-14.79 -0.99,-22.02 -2.44,-6.59 4.1,-11.19 5.8,-16.91 0.75,-13.21 1.34,-26.42 0.49,-39.63 -1.29,-6.48 4.5,-10.32 9.33,-13.05 5.37,-11.92 2.61,-25.22 -2.4,-36.71 -4.01,-8.41 2.8,-16.89 1.79,-25.58 0.96,-7.77 -4.13,-14.13 -5.96,-21.31 -1.53,-4.97 2.07,-9.23 3.95,-13.52 -1.53,-6.14 -2,-12.64 -4.4,-18.53 -3.41,-5.02 -8.15,-9.28 -10.06,-15.19 -3.9,-10.48 1.58,-22.42 -4.05,-32.43 -6.99,-11.98 -18.84,-22.01 -20.32,-36.54 3.23,0.58 6.48,1.27 9.7,1.95 -6.87,-17.19 -18.32,-32.24 -23.59,-50.04 -4.9,-4.88 -11.38,-8.48 -13.71,-15.43 -3.67,-9.42 -12.79,-16.55 -12.64,-27.29 -17.67,-20.3 -32.1,-43.05 -46.21,-65.89 -4.47,-1.63 -10.03,-2.43 -12.62,-6.9 -3.46,-6.15 -5.75,-12.88 -9.66,-18.79 -4.73,-6.53 -4.05,-14.91 -5.91,-22.4 -6.73,-8.05 -17.59,-12.01 -22.96,-21.36 -6.36,-9.42 -12.1,-21.24 -24.28,-23.88 -0.63,-1.55 -1.88,-4.68 -2.49,-6.24z"/>
 </g>
</svg>
