<?xml version="1.0" encoding="UTF-8"?>
<!DOCTYPE svg PUBLIC "-//W3C//DTD SVG 1.1//EN" "http://www.w3.org/Graphics/SVG/1.1/DTD/svg11.dtd">
<!-- Creator: CorelDRAW -->
<svg xmlns="http://www.w3.org/2000/svg" xml:space="preserve" width="2000px" height="1600px" version="1.1" style="shape-rendering:geometricPrecision; text-rendering:geometricPrecision; image-rendering:optimizeQuality; fill-rule:evenodd; clip-rule:evenodd"
viewBox="0 0 2000 1600"
 xmlns:xlink="http://www.w3.org/1999/xlink">
 <defs>
  <style type="text/css">
   <![CDATA[
    .fil2 {fill:#173561;fill-rule:nonzero}
    .fil1 {fill:#C3C5C8;fill-rule:nonzero}
    .fil3 {fill:#C51F36;fill-rule:nonzero}
    .fil0 {fill:#FEFEFE;fill-rule:nonzero}
   ]]>
  </style>
 </defs>
 <g id="Capa_x0020_1">
  <metadata id="CorelCorpID_0Corel-Layer"/>
  <g id="Robert_x0020_Morris_x0020_Colonials.cdr">
   <path class="fil0" d="M1131.75 1378.73c9.09,2.4 18.2,4.73 27.4,6.75 -0.45,0.98 -1.32,2.95 -1.78,3.94 7.19,19.02 13,38.6 21.4,57.14 -6.73,-1.79 -13.48,-3.46 -20.26,-5.01 0.55,-4.19 -0.09,-8.34 -1.35,-12.32 -8.74,-1.97 -17.42,-4.24 -26.12,-6.37 -1.01,4.01 -1.4,8.11 0.09,12.11 -6.32,-2.01 -12.75,-3.68 -19.18,-5.24 5.86,-8.08 8.61,-17.79 12.41,-26.9 2.97,-7.87 7.44,-15.45 7.39,-24.1zm194.85 18.33c1.85,-0.57 3.73,-1.12 5.61,-1.67 -2.38,5.59 -4.9,11.13 -7.24,16.74 -3.82,-7.01 -12.84,-6.6 -19.69,-6.32 -6.22,0.09 -11.83,3.09 -16.53,7 12.12,8.45 29.31,-2.42 41.33,7.17 7.37,8.22 2.4,21.63 -6.69,26.35 -15.45,9.68 -34.2,5.63 -51.3,5.08 2.93,-6.36 5.74,-12.75 8.65,-19.11 0.44,1.37 1.31,4.12 1.74,5.51 9.75,3.9 21.13,4.86 31,0.85 3.78,-1.4 7.07,-6.41 2.77,-9.27 -11.13,-2.7 -23.21,2.24 -34.02,-2.66 -5.4,-2.35 -8.1,-8.79 -6.39,-14.35 1.79,-8.54 10.33,-13.39 18.11,-15.55 10.67,-3.22 21.91,-1.87 32.65,0.23zm-128.62 -2.97c7.63,0.64 15.27,1.35 22.94,1.81 -1.58,2.99 -3.16,6.11 -2.86,9.63 -0.18,10.81 0.09,21.64 0,32.44 11.63,1.08 23.31,2.04 34.96,3.09 0.8,-0.77 2.42,-2.35 3.25,-3.16 0.09,6.55 0.11,13.1 0.32,19.67 -2.56,-1.19 -4.99,-2.95 -7.88,-3.18 -16.94,-1.83 -33.99,-2.59 -50.89,-4.81 1.03,-0.64 3.09,-1.97 4.12,-2.63 0.21,-16.23 0.03,-32.47 0.12,-48.7 -1.03,-1.03 -3.07,-3.13 -4.08,-4.16zm-127.26 -32.28c7.03,2.17 14.12,4.14 21.24,6.06 -4.96,8.66 -1.9,19.01 -2.68,28.46 0.76,9.32 -2.56,19.92 3.55,28.05 -7.62,-2.41 -15.34,-4.52 -22.91,-6.96 0.82,-0.62 2.49,-1.86 3.34,-2.48 -0.02,-13.85 0.04,-27.7 0.07,-41.53 0.32,-4.09 -1.1,-7.92 -2.61,-11.6zm-89.06 -23.63c7.88,2.18 15.82,4.05 23.76,5.95 -1.35,4.47 2.04,7.95 4.38,11.34 6.27,8.35 12.54,16.69 18.79,25.02 -0.94,-10.37 2.61,-21.84 -2.9,-31.34 6.29,1.81 12.68,3.32 19.07,4.8 -4.24,8.96 -1.84,19.17 -2.41,28.71 0.55,9.25 -2.06,19.37 3.09,27.75 -6.98,-2.11 -14.08,-3.8 -21.17,-5.43 0.59,-0.91 1.76,-2.77 2.35,-3.68 -9.38,-12.69 -18.79,-25.32 -28.27,-37.91 -0.14,10.37 -0.07,20.74 -0.09,31.11 0.85,1.14 2.56,3.43 3.41,4.58 -6.55,-1.51 -13.05,-3.12 -19.6,-4.67 3.37,-8.91 1.49,-18.57 1.9,-27.84 -0.48,-9.46 1.65,-19.44 -2.31,-28.39zm-289.05 1.33c7.19,-1.4 15.18,-0.05 21.34,-4.79 -3.09,7.4 -6.19,14.82 -9.23,22.23 -4.85,-6.22 -12.96,-3.71 -19.14,-1.42 -7.62,2.93 -15.06,8.38 -17.6,16.49 -1.08,3.87 -1.13,8.83 2.38,11.58 3.43,2.93 8.38,2.08 12.43,1.24 8.93,-2.43 17.85,-7.12 22.32,-15.62 3.34,4.67 6.87,9.23 10.46,13.76 -11.06,5.43 -20.4,14.27 -32.71,17.06 -9.78,3.02 -23.33,3.8 -29.58,-5.98 -5.52,-9.82 -2.66,-22.09 3,-31.18 8.1,-12.45 21.86,-20.65 36.33,-23.37zm128.64 -21.31c7.48,0.54 14.97,1.07 22.46,1.64 -1.17,1.54 -2.34,3.07 -3.48,4.63 0.16,12.45 0.06,24.91 0.06,37.38 9.96,0.46 19.88,1.47 29.81,1.99 3.14,0.53 5.95,-0.87 8.63,-2.28 -0.18,6.25 -0.09,12.5 0.12,18.77 -6.85,-3.53 -14.68,-3.28 -22.14,-3.8 -11.84,-0.73 -23.65,-1.67 -35.49,-2.43 5.7,-8.26 2.13,-18.84 3.07,-28.16 -0.82,-9.2 2.45,-19.57 -3.04,-27.74zm-381.39 -234.27c23.06,-1.15 46.32,-1.13 69.44,-1.22 17.03,41.58 34.11,83.13 51.1,124.73 17.47,-41.56 34.77,-83.15 52.15,-124.7 23.9,0.18 47.78,-1.06 71.68,-0.53 2.38,9.59 4.83,19.16 7.07,28.78 -6.57,1.07 -15.66,2.26 -16.18,10.78 -1.79,17.44 -0.32,35.07 -0.78,52.59 1.42,31.75 -0.69,63.78 4.37,95.28 2.77,0.11 5.54,0.25 8.34,0.36 0.73,5.09 1.42,10.19 2.03,15.3 -26.42,6.36 -52.17,15.68 -76.19,28.48 -2.54,-10.03 -4.87,-20.13 -7.37,-30.15 4.42,-1.95 9.34,-3.3 12.91,-6.73 3.51,-8.57 4.9,-18 5.54,-27.18 0.03,-26.83 0.03,-53.68 -0.04,-80.52 -16.05,43.94 -31.66,88.01 -48.01,131.85 -0.82,2.22 -1.83,4.39 -3,6.5 -7.35,1.99 -14.99,2.54 -22.46,3.98 -19.62,-37.22 -34.34,-76.78 -49.47,-115.98 -0.53,41.76 1.01,83.47 0.46,125.21 0.32,7.78 -0.64,16.14 2.63,23.44 3.32,5.52 10.35,2.8 15.38,2.27 -2.54,12.54 -4.62,25.18 -6.84,37.82 -24.45,8.93 -48.63,18.54 -72.66,28.52 -2.48,-12.22 -4.74,-24.52 -7.26,-36.72 5.38,-3.04 11.7,-5.72 14.63,-11.56 3.8,-7.85 3.23,-16.83 3.27,-25.32 -0.37,-57.28 0.64,-114.56 -0.78,-171.81 -0.68,-12.5 -0.39,-25.14 -2.47,-37.53 -0.89,-6.82 -9.45,-6.13 -14.54,-6.98 2.57,-12.93 4.24,-26.07 7.05,-38.96zm979.82 16.71c14.88,-13.87 35.17,-21.61 55.45,-21.96 28,-0.89 56.82,6.39 79.74,22.87 -3.78,20.1 -7.44,40.23 -11.22,60.35 -6.82,-0.62 -13.71,-0.73 -20.4,-2.22 -4.8,-11.58 -10.53,-23.42 -21.24,-30.65 -10.51,-7.33 -24.66,-10.56 -36.84,-5.8 -11.08,4.35 -17.12,17.08 -15.15,28.55 1.21,11.49 10.99,19.44 20.62,24.36 18.71,9.52 39.29,15.75 56.07,28.76 19.39,14.33 31.04,37.08 34.18,60.71 3.27,24.84 3.39,52.04 -9.71,74.29 -7.16,12.66 -20.28,21.5 -34.61,23.74 -23.86,3.02 -48.19,-1.81 -69.9,-11.84 -20.35,-9.36 -39.39,-22.5 -53.18,-40.38 4.01,-20.81 8.27,-41.55 12.41,-62.32 6.55,1.4 13.1,2.77 19.69,4.05 6,22.17 18.68,43.23 37.75,56.46 10.19,7.03 25.18,10.85 35.99,3.07 9.32,-7.85 10.32,-21.89 7.05,-32.9 -4.07,-13.42 -16.16,-22.12 -27.79,-28.73 -20.01,-10.99 -41.9,-19.55 -58.7,-35.46 -30.88,-29.54 -31.94,-85.65 -0.21,-114.95zm-1043.53 -197.62c9.34,-0.02 18.66,0 28,0.09 0.07,28.96 0.07,57.92 0,86.88 -9.34,0.12 -18.7,0.28 -28,-0.75l0 -86.22zm1005.28 -40.66c61.33,0.07 122.64,0.02 183.95,0.02 2.45,16.37 4.67,32.77 7.09,49.13 -8.26,1.58 -16.52,3.1 -24.77,4.72 -1.94,-6.46 -3.43,-14.44 -10.32,-17.44 -11.17,-4.79 -23.65,-2.82 -35.44,-3.21 -0.05,40.32 0.07,80.63 -0.07,120.97 0.14,5.75 -0.34,11.79 1.86,17.26 2.72,5.91 10.18,5.34 15.56,6.6 -2.33,8.95 -4.69,17.9 -6.96,26.87 -25.94,-0.02 -51.85,0 -77.79,0 -2.45,-8.99 -4.85,-17.99 -7.46,-26.92 4.42,-0.85 9.29,-0.78 13.23,-3.27 3.66,-2.68 3.73,-7.6 3.85,-11.68 -0.03,-43.27 -0.05,-86.54 0,-129.81 -11.38,0.3 -23.4,-1.51 -34.18,2.98 -7.15,2.93 -8.96,11.06 -10.86,17.7 -8.21,-1.67 -16.43,-3.21 -24.65,-4.7 2.27,-16.41 4.71,-32.8 6.96,-49.22zm-354.94 0.02c50.5,0.03 101,0 151.51,0 0,16.17 -0.03,32.33 0.02,48.49 -7.9,1.51 -15.8,2.91 -23.67,4.35 -1.51,-4.9 -2.25,-10.37 -5.68,-14.37 -5.27,-4.51 -12.57,-4.77 -19.12,-5.18 -11.72,-0.29 -23.42,0 -35.11,-0.11 -0.03,16.99 0,33.97 0,50.96 13.07,-0.55 26.41,1.42 39.28,-1.47 5.33,-1.21 6.18,-7.14 7.35,-11.51 7.92,1.85 15.82,3.73 23.72,5.61 0.04,15.66 0.11,31.32 -0.05,46.97 -7.9,1.74 -15.8,3.46 -23.69,5.2 -1.17,-4.46 -2.11,-10.19 -7.42,-11.44 -12.84,-2.75 -26.17,-0.69 -39.19,-1.31 -0.03,18.31 0,36.63 -0.03,54.94 15.46,-0.04 30.88,0.07 46.34,0 5.93,-0.27 12.38,-0.64 17.31,-4.32 4.96,-3.92 6.02,-10.58 8.08,-16.19 8.38,1.53 16.71,3.11 25.09,4.63 -2.22,16.55 -4.99,33.03 -7.26,49.58 -52.49,0.14 -104.99,0 -157.48,0.07 -2.43,-8.99 -4.6,-18.04 -7.17,-27.01 7.65,-0.21 17.95,-2.75 17.17,-12.55 0.37,-40.45 -0.02,-80.9 0.18,-121.36 -0.2,-4.6 0.07,-10.23 -3.98,-13.37 -3.75,-2.86 -8.84,-2.54 -13.23,-3.59 2.4,-9 4.74,-17.99 7.03,-27.02zm-594.43 -4.67c2.31,-10.66 4.58,-21.33 7.05,-31.95 33.93,0.07 67.88,-0.1 101.83,0.04 21.91,0.57 45.33,5.68 61.47,21.54 17.69,17.31 21.36,44.69 15.75,67.93 -4.26,18.52 -18.57,33.15 -35.58,40.82 6.05,2.95 12.18,6.09 16.76,11.17 11.54,12.02 15.22,28.98 17.99,44.85 1.33,6.04 1.77,13 6.44,17.6 5.4,5.91 14.05,5.09 21.31,5.82 -2.52,10.55 -4.65,21.17 -7.05,31.78 -20.97,-0.03 -41.94,-0.07 -62.91,0.02 -12.09,-14.42 -16.44,-33.2 -19.3,-51.33 -2.54,-13.07 -3.73,-27.68 -12.94,-38.09 -9.38,-9.46 -23.74,-6.3 -35.66,-6.78 0.29,17.9 -0.62,35.85 0.41,53.71 0.71,8.26 9.82,10.12 16.5,10.87 -2.38,10.46 -4.64,20.97 -6.91,31.48 -26.1,0.16 -52.2,0.09 -78.29,0.02 -2.18,-10.53 -4.54,-21.01 -6.85,-31.5 8.4,-0.23 17.84,-4.74 16.99,-14.56 0.85,-45.9 0.04,-91.82 0.39,-137.75 -0.23,-6.59 0.55,-13.73 -2.66,-19.75 -3.07,-5.18 -9.59,-5 -14.74,-5.94zm75.13 5.27l0 0c0.03,22.87 0.03,45.76 0,68.64 14.08,-0.71 29.6,2.76 42.31,-5.09 17.22,-11.1 18.13,-37.93 6.16,-53.18 -12.23,-13.62 -32.17,-9.87 -48.47,-10.37zm193.02 -0.6c24.4,-4.44 50,-4.41 74.04,2.04 21.95,5.84 41.62,20.68 51.67,41.23 11.92,24.25 13.57,52.29 11.03,78.8 -2.38,24.41 -11.77,49.59 -31.45,65.27 -21.52,17.24 -50.28,21.34 -77.06,20.9 -26.28,-0.66 -54.38,-6.98 -73.49,-26.23 -19,-18.45 -25.6,-45.77 -26.65,-71.41 -1.01,-26.78 2.52,-55.31 18.29,-77.77 12.39,-17.81 32.74,-28.5 53.62,-32.83zm18.22 36.48l0 0c-8.54,2.22 -15.79,8.21 -20.01,15.91 -7.16,12.77 -8.31,27.79 -9.13,42.12 -0.34,17.33 0,35.21 6.04,51.67 3.83,10.97 12.89,20.35 24.48,22.85 12.98,2.88 27.86,2.26 38.98,-5.73 9.96,-7.53 13.99,-20.19 16.05,-31.98 2.61,-16.85 2.54,-34.04 0.92,-50.98 -1.6,-13.1 -4.76,-27.2 -14.65,-36.65 -11.5,-10.05 -28.46,-10.83 -42.68,-7.21zm124.75 -36.48c29.78,0.03 59.57,-0.04 89.35,0.05 20.86,0.46 43.13,2.79 60.49,15.45 18.11,12.94 24.54,39.91 13.53,59.37 -4.72,8.88 -13.01,14.97 -21.48,19.98 13.49,5.93 26.77,14.93 32.63,29.03 8.6,20.9 4.23,47.96 -13.72,62.71 -16.62,13.92 -39.1,17.74 -60.16,18.29 -33.54,0.05 -67.08,0 -100.62,0.02 -2.4,-8.99 -4.65,-18.02 -7,-27.01 6.5,-0.62 16.2,-1.58 16.43,-10.14 0.71,-40.41 0,-80.84 0.35,-121.25 -0.23,-5.26 0.75,-11.51 -3.28,-15.63 -3.8,-3.03 -8.99,-2.8 -13.5,-3.83 2.54,-8.95 4.73,-17.99 6.98,-27.04zm66.39 33.2l0 0c0,16.03 0,32.05 0,48.05 12.45,-0.55 26.19,2.34 37.41,-4.51 13.94,-8.28 13.85,-32.48 -1.01,-39.72 -11.29,-5.56 -24.27,-3.45 -36.4,-3.82zm0 81.87l0 0c0,19.43 0,38.89 0,58.35 14.12,-0.48 29.33,1.95 42.45,-4.58 17.37,-9.04 18.42,-37.22 2.17,-47.91 -13.23,-8.72 -29.74,-5.2 -44.62,-5.86zm287.68 -114.4c31.59,-0.16 63.19,-0.14 94.78,-0.02 22.76,0.39 47.53,3.7 65.2,19.41 16.64,14.81 19.92,40.36 12.18,60.51 -5.63,14.35 -18.82,23.9 -32.65,29.6 12.41,4.12 22.83,13.48 27.52,25.78 4.85,10.28 4.85,22.04 9.46,32.37 4.39,8.51 15.27,7.9 23.44,8.17 -2.29,8.88 -4.49,17.79 -6.71,26.67 -20.6,-0.02 -41.21,0.09 -61.79,-0.07 -7.76,-8.92 -13.14,-19.73 -15.61,-31.29 -3.76,-13.51 -3.96,-28.64 -12.36,-40.41 -8.98,-11.19 -24.84,-8.54 -37.44,-8.93 0.44,15.2 -0.91,30.54 0.65,45.67 1.23,7.54 10.05,7.77 15.95,8.7 -2.33,8.75 -4.55,17.54 -6.73,26.33 -25.32,0.05 -50.64,-0.02 -75.98,0.05 -2.13,-8.82 -4.51,-17.56 -6.73,-26.33 6.91,-0.53 16.39,-2.34 16.41,-11.15 0.62,-42.15 0.51,-84.36 0.05,-126.51 0.36,-9.09 -9.34,-11.54 -16.53,-11.77 2.33,-8.9 4.67,-17.83 6.89,-26.78zm65.96 89.08l0 0c13.98,-0.23 29.19,2.08 42.03,-4.81 17.1,-9.52 17.26,-37.89 0.5,-47.8 -12.86,-7.33 -28.32,-4.56 -42.47,-5.08 -0.04,19.23 0.1,38.46 -0.06,57.69zm-559.66 162.54c14.42,-22 40.59,-33.13 66.09,-35.35 27.55,-2.33 57.1,-0.71 81.51,13.65 18.29,10.46 30.08,29.62 34.95,49.77 5.25,22.43 5.59,46.13 0.99,68.7 -4.74,23.38 -18.32,44.69 -37.82,58.47 -44,-0.8 -87.98,2.86 -131.48,9.05 -22.11,-14.79 -30.45,-42.49 -32.53,-67.72 -2.02,-32.79 -0.53,-68.39 18.29,-96.57zm69.55 3.78l0 0c-15.95,5.01 -24.13,21.75 -26.44,37.25 -3.04,20.46 -3.23,41.5 -0.14,61.97 2.04,13.35 8.29,28.16 21.87,33.22 13.39,4.37 28.84,2.17 40.68,-5.38 12.73,-8.59 17.85,-24.27 19.82,-38.81 2.02,-16.94 1.99,-34.15 0,-51.09 -1.55,-12.34 -5.95,-25.58 -16.71,-32.88 -11.4,-7.39 -26.28,-7.83 -39.08,-4.28zm324.68 -36.88c35.78,1.23 71.61,-2.89 107.35,0.39 19.66,2.08 40.63,6.52 55.53,20.53 16.14,15.07 19.33,39.75 14.31,60.37 -4.46,17.49 -19.62,30.06 -36.33,35.37 8.4,4.06 16.64,9.3 21.68,17.4 8.81,13.28 7.97,30.06 13.9,44.46 4.35,11.31 16.8,19.16 28.89,17.67 5.59,-1.37 4.37,-8.08 5.31,-12.43 2.98,-43.97 2.75,-88.09 3,-132.14 -0.3,-6.02 0.62,-13.39 -4.33,-17.83 -3.71,-2.57 -8.47,-2.61 -12.73,-3.55 2.77,-9.84 5.15,-19.8 7.88,-29.65 25.71,0.03 51.42,0 77.13,0 2.15,10.92 4.53,21.8 6.66,32.72 -4.62,0.98 -11.15,-0.05 -13.99,4.6 -2.72,8.77 -2.04,18.15 -2.72,27.22 -0.55,42.88 0.02,85.76 0.52,128.64 0.37,5.4 0.78,11.42 4.61,15.68 3.47,3.21 8.21,4.44 12.49,6.3 -2.97,9.93 -3.73,21.06 -8.01,30.26 -28.25,-5.88 -55.9,-15.2 -84.7,-18.15 -21.09,-4.24 -42.31,-7.99 -63.21,-13.03 -10.46,-4.97 -13.78,-17.42 -16.05,-27.81 -4.08,-17.63 -3.32,-37.71 -15,-52.59 -8.76,-11.1 -24.08,-9.8 -36.72,-10.95 -0.75,14.82 -1.16,29.72 -0.43,44.56 0.59,8.37 9.64,10.46 16.37,11.74 -2.52,8.84 -4.95,17.67 -7.54,26.49 -45.78,-6.16 -91.93,-8.54 -138.09,-10.01 -6.96,0.35 -13.67,-3.15 -16.96,-9.34 -9.92,-18.08 -3.94,-41.5 -17.13,-58.24 -9.63,-11.28 -25.75,-11.56 -39.42,-11.42 -0.02,14.65 -1.85,29.46 0,44.07 1.6,7.26 10.1,7.26 16,7.92 -2.65,8.58 -5.06,17.26 -7.53,25.89 -26.35,1.24 -52.36,-4.16 -78.64,-5.26 -1.49,-6.12 -3,-12.25 -4.49,-18.36 4.7,-1.03 9.39,-2.18 13.92,-3.76 4.31,-21.68 3.53,-43.95 4.54,-65.96 -0.53,-22 1.8,-44.06 -0.03,-66.02 -0.61,-8.2 -10.02,-9.25 -16.36,-9.96 2.54,-8.58 4.92,-17.19 7.34,-25.8 34.66,0.05 69.35,-0.07 104.01,0.05 19.92,0.93 41.18,4.28 57.26,17.03 22.34,17.28 24.35,55.2 3.36,74.33 -6.71,6.6 -15.29,10.76 -23.92,14.22 8.47,3.23 17.01,7.58 22.18,15.36 8.2,11.52 7.21,26.67 13.78,38.9 5.41,9.93 19.46,15.34 29.56,9.45 5.19,-8.51 4.53,-19.13 5.7,-28.73 1.58,-31.93 0.96,-63.94 0.34,-95.88 -0.2,-4.32 0.07,-8.95 -1.83,-12.93 -3.2,-5.01 -9.89,-4.58 -14.97,-5.79 2.49,-8.68 4.94,-17.38 7.51,-26.03zm-136.08 30.35l0 0c-0.48,18.55 -0.44,37.09 -1.31,55.64 15.25,-1.77 32.19,2.29 45.79,-6.71 15.8,-9.62 14.54,-36.38 -1.81,-44.78 -13.18,-6.73 -28.5,-3.37 -42.67,-4.15zm203.2 1.7l0 0c-0.91,19.3 -0.91,38.62 -1.12,57.92 14.17,0.55 29.4,3.98 42.79,-2.38 17.35,-8.22 18.18,-34.91 5.03,-47.21 -13.27,-10.07 -31.04,-8.03 -46.7,-8.33zm-406.13 209.89c10.83,-2.89 24.04,-2.55 32.44,5.83 9.39,9.55 8.17,25.83 0.18,35.88 -10.46,13.51 -30.42,19.21 -46.17,12.29 -11.54,-5.17 -15.8,-19.96 -11.59,-31.32 3.62,-11.33 13.85,-19.66 25.14,-22.68zm0.32 14.01l0 0c-10.16,3.96 -14.4,19.57 -5.4,26.83 11.81,7.78 30.24,-3.69 27.06,-18.04 -0.92,-10.24 -13.78,-13.28 -21.66,-8.79zm151.14 -8.86c19.14,-5.89 43.25,4.37 49.11,24.29 3.82,11.38 -0.82,25.68 -12.38,30.42 -20.11,7.76 -47.03,-4.07 -51.45,-26.05 -3.09,-11.49 3.19,-24.91 14.72,-28.66zm7.12 13.83l0 0c-9.52,6.13 -6.34,22.2 3.26,26.85 7.05,4.39 19.34,4.17 22.34,-4.99 5.52,-14.38 -12.39,-29.01 -25.6,-21.86zm218 71.56l0 0c5.81,1.47 11.63,2.88 17.46,4.33 -2.97,-8.38 -5.97,-16.74 -8.92,-25.12 -2.91,6.89 -5.73,13.85 -8.54,20.79z"/>
   <path class="fil1" d="M1071.86 425.71c31.41,-8.12 64.33,-9.15 96.48,-5.51 34.63,3.61 68.38,16.46 96.24,37.45 3.41,14.08 7.05,28.09 10.44,42.17 -28.25,-11.93 -57.99,-20.63 -88.55,-23.88 -27.36,-3.39 -54.97,-5.65 -82.53,-4.05 -6.09,-0.37 -10.47,4.15 -14.7,7.76 -10.78,9.59 -21.87,18.84 -32.74,28.32 16.19,-3 32.94,-4.1 48.99,0.23 -7.62,4.51 -15.4,8.7 -23.07,13.14 8.19,4.21 16.98,7.33 26.16,8.4 21.2,2.54 43.32,2.2 63.49,-5.54 3.04,-4.51 4.74,-11.33 10.89,-12.38 7.61,-1.93 17.04,-1.86 22.97,4 2.88,23.58 4,47.42 6.5,71.07 -8.68,-2.82 -17.63,-6.64 -26.92,-5 -12.69,2.25 -25.16,5.64 -37.66,8.75 -2.25,-3.66 -5.22,-7.14 -6,-11.47 0.91,-5.79 4.69,-10.53 7.48,-15.52 -8.08,2.15 -17.26,3.43 -23.26,9.84 -6.29,6.78 -3.98,18.52 3.42,23.51 8.01,5.82 18.58,5.2 27.17,9.8 12.66,6.73 25.59,13.01 38.09,20.03 -12.63,-1.48 -25.02,-4.55 -37.61,-6.18 -16.32,-1.26 -32.17,5.7 -44.3,16.28 13.62,-1.24 27.52,-3.18 41.05,0.09 14.01,3.3 28.23,5.68 42.49,7.58 -5.88,6.87 -14.06,12.77 -23.51,12.32 -15.16,-0.92 -30.02,-4.49 -45.17,-5.66 3.62,9.66 11.86,18.09 22.28,19.92 17.53,3.59 33.03,13.23 47.04,23.99 -14.03,-2.17 -28.27,-3.82 -42.44,-2.1 -21.98,1.48 -41.99,12.24 -63.94,13.85 -24.18,2.72 -48.56,-6.44 -66.65,-22.28 -16.6,-14.58 -29.78,-32.55 -41.94,-50.87 -13.46,35.17 -17.79,72.69 -23.63,109.61 -14.76,-5.95 -29.6,-11.63 -44.34,-17.58 13.28,-47.98 31.66,-94.32 51.44,-139.97 -9.64,2.34 -21.43,3.85 -29.21,-3.75 -13.51,-13.1 -17.1,-32.97 -17.65,-51.01 0.16,-14.08 1.17,-29.39 9.45,-41.32 10.86,-12.91 29.49,-16.35 45.43,-13.42 4.99,6.09 7.75,13.65 12.27,20.1 1.6,3.39 5.9,1.38 8.67,1.31 25.37,-4.7 45.97,-22.39 61.43,-42.2 7.05,-8.9 12.61,-18.95 15.95,-29.83zm-205.9 251.88c8.22,2.22 16.44,4.49 24.65,6.68 -3.09,9.25 -6.13,18.5 -9.27,27.73 -5.26,-2.11 -10.53,-4.21 -15.82,-6.28 -27.06,45.29 -53.93,90.69 -80.83,136.06 -32.1,-9.27 -66.94,-9.64 -99.22,-1.03 -16.37,4.49 -31.57,12.71 -44.51,23.67 -3.59,-10.69 -9.07,-20.65 -15.98,-29.53 10.85,0.11 21.98,0.8 32.49,-2.54 45.37,-12.64 90.36,-31.75 125.34,-64.06 30.24,-27.79 58.1,-58.15 83.15,-90.7zm372.57 -138c11.49,3.11 25.29,8.47 28.45,21.31 2.91,16.32 -9.98,29.28 -20.74,39.58 -2.81,-20.26 -5.29,-40.59 -7.71,-60.89zm75.29 -459.59l16.69 0c45.65,44.8 78.25,101.74 99.84,161.63 22.07,60.99 29.4,126.3 28.14,190.86 1.16,49.47 -7.35,98.49 -18.02,146.61 -1.24,6.8 -7.3,10.85 -12.25,14.97 -18.2,14.04 -36.17,28.6 -56.29,39.84 -21.75,11.95 -44.74,21.36 -67.84,30.31 -8.95,3.11 -12.47,12.59 -17.21,19.92 -7.44,12.24 -15.02,24.42 -22.48,36.65 -8.93,14.7 -22.88,25.18 -35.56,36.42 5.86,19.94 11.5,39.95 17.33,59.92 119.51,0.15 239.01,-0.12 358.52,0.13 6.43,42.97 11.51,86.15 19.16,128.92l0 1.58c-25.25,4.99 -50.6,9.56 -75.87,14.44 -0.25,10.76 -0.55,21.54 -0.85,32.33 10.19,0.04 20.4,0.07 30.59,0.11 -4.7,19.46 -10.05,38.76 -14.91,58.17 14.61,8.84 28.09,19.37 41.42,30.04 -5.66,31.2 -11.45,62.38 -17.31,93.57 -1.17,7.39 -3.78,14.81 -3.05,22.36 4.45,11.06 11.75,20.86 15.07,32.47 10.76,33.42 12.27,70.25 2.72,104.16 -7.48,26.08 -23.53,51.05 -48.3,63.58 -18.13,9.86 -39.2,11.17 -59.41,10.71 0,9.27 -0.02,18.57 -0.05,27.86 -13.71,0.02 -27.42,-0.02 -41.11,0.16 4.71,5.66 9.52,11.27 14.35,16.85 -32.42,25.02 -70.51,41.85 -109.68,53.16 -18.84,5.63 -38.35,8.38 -57.6,12.27l-75.23 0c-48.83,-5.49 -97.82,-12.73 -144.62,-28.32 -31.87,-10.71 -63.73,-21.52 -96.24,-30.15 -42.19,-11.45 -85.69,-17.6 -129.3,-20.05 4.62,15.61 9.63,31.13 14.21,46.77 -13.3,-4.35 -26.3,-9.62 -39.72,-13.58 -23.76,-6.82 -49.06,-4.12 -72.73,1.74 -15.5,3.57 -28.82,12.66 -43.41,18.57 -20.88,9.29 -43.86,12.8 -66.55,13.69 -20.65,0.89 -40.24,-6.55 -59.93,-11.58 1,-18.32 2.56,-36.75 0.25,-55.04 -2.5,-23.33 -11.7,-45.72 -25.5,-64.63 -3.35,13.55 -6,27.27 -9.25,40.84 -49.38,16.99 -97.39,37.55 -145.49,57.76 -8.45,-43.11 -17.15,-86.14 -25.46,-129.25 8.06,-3.03 16.14,-6.03 24.22,-8.98 0.39,-55.93 0.3,-111.88 0.05,-167.81 -8.86,0.23 -17.72,0.41 -26.58,0.67 4.92,-27.66 9.59,-55.36 14.7,-82.99 2.13,-10.26 -0.23,-20.58 -2.71,-30.52 -4.99,-20.79 -8.65,-41.87 -14.42,-62.45l0 -5.45c9.3,1.03 18.66,0.87 28,0.75 0.07,-28.96 0.07,-57.92 0,-86.88 -9.34,-0.09 -18.66,-0.11 -28,-0.09l0 -6.41c2.11,-7.1 4.31,-14.17 5.84,-21.43 6.64,-31.5 13.8,-62.91 20.51,-94.43 17.47,-0.39 34.91,-0.14 52.36,-0.23 -7.3,-21.34 -13.49,-43.04 -19.48,-64.79 28.25,-0.76 57.09,3 84.82,-4.01 10.64,-2.24 18.36,-10.37 26.65,-16.78 18.88,-14.81 38.02,-29.37 58.33,-42.21 27.38,-17.68 56.32,-32.7 85.18,-47.71 -15.36,-8.02 -31.29,-14.88 -46.26,-23.58 -29.81,-17.06 -56.66,-39.2 -79.4,-64.91 -14.67,-16.87 -26.51,-35.89 -38.39,-54.76 7.69,-8.45 15.77,-16.53 24.22,-24.24 77.36,-71.22 163.35,-133.04 255.13,-184.3 65.52,-36.28 134.18,-66.64 203.96,-93.67 81.04,-30.84 164.51,-56 249.99,-71.09 18,-3.32 36.22,-5.08 54.21,-8.47zm-184.72 72.39l0 0c-87.25,24.68 -171.43,59.48 -251.79,101.35 -48.97,25.04 -95.23,55.01 -140.47,86.19 -57.3,39.84 -113.07,81.85 -167.33,125.69 29.53,37.5 64.9,71.24 106.73,94.71 40.61,21.86 83.9,38.3 127.61,52.81 -27.41,2.38 -54.9,6.3 -81.04,15.11 -19.92,6.6 -37.55,18.23 -55.27,29.19 -39.51,25.03 -78,51.63 -116.48,78.23 -22.25,14.42 -49.66,7.19 -74.29,6.18 7.12,22.89 20.03,44.07 38.69,59.34 -32.07,-0.09 -64.17,-0.02 -96.27,-0.05 -6.04,27.29 -12,54.61 -17.95,81.9 7.86,-0.05 15.68,-0.05 23.54,-0.03 0.02,42.52 0.02,85.05 0,127.59 -7.81,0.02 -15.62,0.02 -23.4,-0.05 3.98,18.52 7.99,37.04 12.2,55.52 1.22,5.49 2.52,11.15 1.28,16.78 -3.86,22.11 -7.83,44.23 -11.63,66.37 7.33,-0.25 14.68,-0.6 22,-0.73 1.29,67.78 0.53,135.59 0.67,203.4 -7.14,2.68 -14.29,5.36 -21.45,7.99 5.56,29.22 11.44,58.34 17.24,87.5 37.15,-15.98 74.63,-31.2 112.72,-44.78 3.76,-21.81 7.81,-43.59 11.57,-65.4 12.04,-3 23.9,-6.78 36.14,-8.98 -3.25,9.5 -13.46,13.72 -19.98,20.7 8.17,8.26 16.16,16.85 22.16,26.88 20.33,31.13 25.98,69.52 22.98,106.04 13.44,3.82 27.2,7.76 41.35,6.68 20.6,-1.23 41.32,-4.81 60.07,-13.78 12.85,-5.38 24.61,-13.46 38.28,-16.76 19.51,-5.17 39.63,-10.09 59.96,-7.92 11.33,1.1 22.04,5.31 32.48,9.62 -4.51,-13.17 -9.36,-26.19 -13.92,-39.36 41.28,0.51 82.49,4.63 123.06,12.32 50.07,9.84 98.3,26.88 146.65,42.83 31.02,9.21 62.85,15.62 94.9,19.99 41.92,5.1 84.73,8.35 126.6,0.87 42.56,-7.42 83.9,-22.6 120.69,-45.31 -15.29,-17.92 -30.74,-35.71 -46.04,-53.64 3.39,-14.6 6.6,-29.23 9.78,-43.88 23.58,17.26 50.94,29.78 79.94,34.25 21.45,2.7 44.74,2.81 64.17,-8.04 21.91,-12.18 34.57,-35.97 39.29,-59.89 4.71,-25.43 3.59,-52.13 -3.48,-77.01 -6.14,-22.03 -19.55,-41.51 -37.13,-55.98 6.61,0.67 13.25,1.31 19.89,1.92 5.95,-32.43 11.97,-64.83 17.97,-97.25 -13.07,-10.99 -27.29,-20.69 -43.31,-26.85 4.23,-16.48 8.63,-32.94 12.75,-49.47 -8.27,0.02 -16.53,0.02 -24.79,0 1.21,-23.33 0.5,-46.71 0.71,-70.04 24.4,-4.44 48.71,-9.22 73.09,-13.73 -4.48,-31.2 -8.88,-62.43 -13.46,-93.63 -123.97,-0.05 -247.93,0.06 -371.88,-0.05 -9.23,-32.37 -18.45,-64.77 -27.91,-97.05 17.7,-6.98 33.24,-18.86 45.72,-33.08 13.49,-21.79 26.15,-44.09 39.24,-66.11 26.76,-11.18 53.5,-22.46 79.85,-34.62 19.62,-8.86 36.56,-22.59 51.99,-37.38 4.84,-3.94 5.5,-10.31 6.76,-15.98 8.74,-43.62 15.75,-87.75 16.96,-132.31 0.9,-30.4 -4.67,-60.48 -10.87,-90.1 -14.63,-65.02 -39.33,-128.83 -79.1,-182.74 -5.38,16.21 -13.21,33.86 -29.42,41.74 -15.45,7.41 -36.05,8.33 -49.54,-3.58 -8.49,-7.92 -8.08,-20.53 -7.85,-31.2 0.34,-12.29 6.64,-23.17 11.19,-34.27 -44.68,8.54 -89.07,18.84 -132.82,31.34zm295 1245.13l0 0c0,1.67 -0.02,5.04 -0.02,6.73 1.44,0.07 4.3,0.23 5.74,0.3 -0.02,6.82 -0.02,13.64 0,20.47 2.66,-0.03 5.34,-0.03 8.02,0 0,-6.85 0,-13.67 0,-20.47 1.44,-0.07 4.3,-0.23 5.74,-0.3 0,-1.67 -0.02,-5.06 -0.02,-6.73 -6.5,-0.02 -12.98,-0.02 -19.46,0zm24.84 -0.09l0 0c-1.58,9.16 -3.11,18.34 -4.6,27.54 1.88,0.02 5.61,0.09 7.49,0.11 0.66,-4.6 1.39,-9.15 2.12,-13.71 2.34,5.24 4.74,10.44 7.4,15.55 2.95,-5.18 5.49,-10.56 7.97,-15.96 0.5,4.65 1.03,9.27 1.55,13.94 1.95,0.02 5.82,0.09 7.76,0.12 -1.37,-9.14 -2.74,-18.23 -4.09,-27.36 -1.84,-0.07 -5.52,-0.21 -7.35,-0.3 -1.86,4.44 -3.73,8.88 -5.57,13.35 -1.85,-4.35 -3.66,-8.73 -5.38,-13.08 -1.83,-0.06 -5.47,-0.15 -7.3,-0.2zm-421.35 -790.47l0 0c14.44,10.4 30.76,18.16 48.6,20.26 -17.49,-24.68 -32.69,-51.62 -39.86,-81.25 -7.83,19.3 -10.69,40.27 -8.74,60.99z"/>
   <path class="fil2" d="M1129.1 152.39c43.75,-12.5 88.14,-22.8 132.82,-31.34 -4.55,11.1 -10.85,21.98 -11.19,34.27 -0.23,10.67 -0.64,23.28 7.85,31.2 13.49,11.91 34.09,10.99 49.54,3.58 16.21,-7.88 24.04,-25.53 29.42,-41.74 39.77,53.91 64.47,117.72 79.1,182.74 6.2,29.62 11.77,59.7 10.87,90.1 -1.21,44.56 -8.22,88.69 -16.96,132.31 -1.26,5.67 -1.92,12.04 -6.76,15.98 -15.43,14.79 -32.37,28.52 -51.99,37.38 -26.35,12.16 -53.09,23.44 -79.85,34.62 -13.09,22.02 -25.75,44.32 -39.24,66.11 -12.48,14.22 -28.02,26.1 -45.72,33.08 9.46,32.28 18.68,64.68 27.91,97.05 123.95,0.11 247.91,0 371.88,0.05 4.58,31.2 8.98,62.43 13.46,93.63 -24.38,4.51 -48.69,9.29 -73.09,13.73 -0.21,23.33 0.5,46.71 -0.71,70.04 8.26,0.02 16.52,0.02 24.79,0 -4.12,16.53 -8.52,32.99 -12.75,49.47 16.02,6.16 30.24,15.86 43.31,26.85 -6,32.42 -12.02,64.82 -17.97,97.25 -6.64,-0.61 -13.28,-1.25 -19.89,-1.92 17.58,14.47 30.99,33.95 37.13,55.98 7.07,24.88 8.19,51.58 3.48,77.01 -4.72,23.92 -17.38,47.71 -39.29,59.89 -19.43,10.85 -42.72,10.74 -64.17,8.04 -29,-4.47 -56.36,-16.99 -79.94,-34.25 -3.18,14.65 -6.39,29.28 -9.78,43.88 15.3,17.93 30.75,35.72 46.04,53.64 -36.79,22.71 -78.13,37.89 -120.69,45.31 -41.87,7.48 -84.68,4.23 -126.6,-0.87 -32.05,-4.37 -63.88,-10.78 -94.9,-19.99 -48.35,-15.95 -96.58,-32.99 -146.65,-42.83 -40.57,-7.69 -81.78,-11.81 -123.06,-12.32 4.56,13.17 9.41,26.19 13.92,39.36 -10.44,-4.31 -21.15,-8.52 -32.48,-9.62 -20.33,-2.17 -40.45,2.75 -59.96,7.92 -13.67,3.3 -25.43,11.38 -38.28,16.76 -18.75,8.97 -39.47,12.55 -60.07,13.78 -14.15,1.08 -27.91,-2.86 -41.35,-6.68 3,-36.52 -2.65,-74.91 -22.98,-106.04 -6,-10.03 -13.99,-18.62 -22.16,-26.88 6.52,-6.98 16.73,-11.2 19.98,-20.7 -12.24,2.2 -24.1,5.98 -36.14,8.98 -3.76,21.81 -7.81,43.59 -11.57,65.4 -38.09,13.58 -75.57,28.8 -112.72,44.78 -5.8,-29.16 -11.68,-58.28 -17.24,-87.5 7.16,-2.63 14.31,-5.31 21.45,-7.99 -0.14,-67.81 0.62,-135.62 -0.67,-203.4 -7.32,0.13 -14.67,0.48 -22,0.73 3.8,-22.14 7.77,-44.26 11.63,-66.37 1.24,-5.63 -0.06,-11.29 -1.28,-16.78 -4.21,-18.48 -8.22,-37 -12.2,-55.52 7.78,0.07 15.59,0.07 23.4,0.05 0.02,-42.54 0.02,-85.07 0,-127.59 -7.86,-0.02 -15.68,-0.02 -23.54,0.03 5.95,-27.29 11.91,-54.61 17.95,-81.9 32.1,0.03 64.2,-0.04 96.27,0.05 -18.66,-15.27 -31.57,-36.45 -38.69,-59.34 24.63,1.01 52.04,8.24 74.29,-6.18 38.48,-26.6 76.97,-53.2 116.48,-78.23 17.72,-10.96 35.35,-22.59 55.27,-29.19 26.14,-8.81 53.63,-12.73 81.04,-15.11 -43.71,-14.51 -87,-30.95 -127.61,-52.81 -41.83,-23.47 -77.2,-57.21 -106.73,-94.71 54.26,-43.84 110.03,-85.85 167.33,-125.69 45.24,-31.18 91.5,-61.15 140.47,-86.19 80.36,-41.87 164.54,-76.67 251.79,-101.35zm319.84 1245.04c1.83,0.05 5.47,0.14 7.3,0.2 1.72,4.35 3.53,8.73 5.38,13.08 1.84,-4.47 3.71,-8.91 5.57,-13.35 1.83,0.09 5.51,0.23 7.35,0.3 1.35,9.13 2.72,18.22 4.09,27.36 -1.94,-0.03 -5.81,-0.1 -7.76,-0.12 -0.52,-4.67 -1.05,-9.29 -1.55,-13.94 -2.48,5.4 -5.02,10.78 -7.97,15.96 -2.66,-5.11 -5.06,-10.31 -7.4,-15.55 -0.73,4.56 -1.46,9.11 -2.12,13.71 -1.88,-0.02 -5.61,-0.09 -7.49,-0.11 1.49,-9.2 3.02,-18.38 4.6,-27.54zm-24.84 0.09c6.48,-0.02 12.96,-0.02 19.46,0 0,1.67 0.02,5.06 0.02,6.73 -1.44,0.07 -4.3,0.23 -5.74,0.3 0,6.8 0,13.62 0,20.47 -2.68,-0.03 -5.36,-0.03 -8.02,0 -0.02,-6.83 -0.02,-13.65 0,-20.47 -1.44,-0.07 -4.3,-0.23 -5.74,-0.3 0,-1.69 0.02,-5.06 0.02,-6.73zm-651 -279.07c12.8,-3.55 27.68,-3.11 39.08,4.28 10.76,7.3 15.16,20.54 16.71,32.88 1.99,16.94 2.02,34.15 0,51.09 -1.97,14.54 -7.09,30.22 -19.82,38.81 -11.84,7.55 -27.29,9.75 -40.68,5.38 -13.58,-5.06 -19.83,-19.87 -21.87,-33.22 -3.09,-20.47 -2.9,-41.51 0.14,-61.97 2.31,-15.5 10.49,-32.24 26.44,-37.25zm391.8 -4.83c15.66,0.3 33.43,-1.74 46.7,8.33 13.15,12.3 12.32,38.99 -5.03,47.21 -13.39,6.36 -28.62,2.93 -42.79,2.38 0.21,-19.3 0.21,-38.62 1.12,-57.92zm-203.2 -1.7c14.17,0.78 29.49,-2.58 42.67,4.15 16.35,8.4 17.61,35.16 1.81,44.78 -13.6,9 -30.54,4.94 -45.79,6.71 0.87,-18.55 0.83,-37.09 1.31,-55.64zm-52.13 -134.47c14.88,0.66 31.39,-2.86 44.62,5.86 16.25,10.69 15.2,38.87 -2.17,47.91 -13.12,6.53 -28.33,4.1 -42.45,4.58 0,-19.46 0,-38.92 0,-58.35zm-191.14 -78.59c14.22,-3.62 31.18,-2.84 42.68,7.21 9.89,9.45 13.05,23.55 14.65,36.65 1.62,16.94 1.69,34.13 -0.92,50.98 -2.06,11.79 -6.09,24.45 -16.05,31.98 -11.12,7.99 -26,8.61 -38.98,5.73 -11.59,-2.5 -20.65,-11.88 -24.48,-22.85 -6.04,-16.46 -6.38,-34.34 -6.04,-51.67 0.82,-14.33 1.97,-29.35 9.13,-42.12 4.22,-7.7 11.47,-13.69 20.01,-15.91zm544.78 53.27c0.16,-19.23 0.02,-38.46 0.06,-57.69 14.15,0.52 29.61,-2.25 42.47,5.08 16.76,9.91 16.6,38.28 -0.5,47.8 -12.84,6.89 -28.05,4.58 -42.03,4.81zm-353.64 -56.55c12.13,0.37 25.11,-1.74 36.4,3.82 14.86,7.24 14.95,31.44 1.01,39.72 -11.22,6.85 -24.96,3.96 -37.41,4.51 0,-16 0,-32.02 0,-48.05zm-402.38 -32.6c16.3,0.5 36.24,-3.25 48.47,10.37 11.97,15.25 11.06,42.08 -6.16,53.18 -12.71,7.85 -28.23,4.38 -42.31,5.09 0.03,-22.88 0.03,-45.77 0,-68.64zm520.4 -256.02c-1.95,-20.72 0.91,-41.69 8.74,-60.99 7.17,29.63 22.37,56.57 39.86,81.25 -17.84,-2.1 -34.16,-9.86 -48.6,-20.26zm72.43 -414.35l0 0c-50.32,17.97 -98.95,40.3 -147.18,63.21 -37.39,18.11 -75,35.88 -111.52,55.72 -53.47,28.99 -105.08,61.5 -153.86,97.87 -23.93,18.66 -48.47,36.59 -71.57,56.28 6.09,5.74 12.25,11.44 18.52,16.98 40.85,-26.67 82.42,-52.22 124.31,-77.24 66.33,-38.83 133.31,-77.65 205.95,-103.64 76.84,-27.72 155.54,-50.16 234.98,-69.04 11.75,11.74 27.98,17.6 44.23,19.45 22.03,2.61 46.04,1.58 65.36,-10.46 13.97,-8.42 23.29,-22.82 27.29,-38.44 -15.75,11.31 -34.73,17.65 -53.91,19.58 -18.73,1.97 -39.47,-2.52 -52.31,-17.15 -11.43,-12 -14.81,-28.82 -15.52,-44.82 -38.83,8.28 -77.36,18.29 -114.77,31.7zm-28.16 233.1l0 0c-3.34,10.88 -8.9,20.93 -15.95,29.83 -15.46,19.81 -36.06,37.5 -61.43,42.2 -2.77,0.07 -7.07,2.08 -8.67,-1.31 -4.52,-6.45 -7.28,-14.01 -12.27,-20.1 -15.94,-2.93 -34.57,0.51 -45.43,13.42 -8.28,11.93 -9.29,27.24 -9.45,41.32 0.55,18.04 4.14,37.91 17.65,51.01 7.78,7.6 19.57,6.09 29.21,3.75 -19.78,45.65 -38.16,91.99 -51.44,139.97 14.74,5.95 29.58,11.63 44.34,17.58 5.84,-36.92 10.17,-74.44 23.63,-109.61 12.16,18.32 25.34,36.29 41.94,50.87 18.09,15.84 42.47,25 66.65,22.28 21.95,-1.61 41.96,-12.37 63.94,-13.85 14.17,-1.72 28.41,-0.07 42.44,2.1 -14.01,-10.76 -29.51,-20.4 -47.04,-23.99 -10.42,-1.83 -18.66,-10.26 -22.28,-19.92 15.15,1.17 30.01,4.74 45.17,5.66 9.45,0.45 17.63,-5.45 23.51,-12.32 -14.26,-1.9 -28.48,-4.28 -42.49,-7.58 -13.53,-3.27 -27.43,-1.33 -41.05,-0.09 12.13,-10.58 27.98,-17.54 44.3,-16.28 12.59,1.63 24.98,4.7 37.61,6.18 -12.5,-7.02 -25.43,-13.3 -38.09,-20.03 -8.59,-4.6 -19.16,-3.98 -27.17,-9.8 -7.4,-4.99 -9.71,-16.73 -3.42,-23.51 6,-6.41 15.18,-7.69 23.26,-9.84 -2.79,4.99 -6.57,9.73 -7.48,15.52 0.78,4.33 3.75,7.81 6,11.47 12.5,-3.11 24.97,-6.5 37.66,-8.75 9.29,-1.64 18.24,2.18 26.92,5 -2.5,-23.65 -3.62,-47.49 -6.5,-71.07 -5.93,-5.86 -15.36,-5.93 -22.97,-4 -6.15,1.05 -7.85,7.87 -10.89,12.38 -20.17,7.74 -42.29,8.08 -63.49,5.54 -9.18,-1.07 -17.97,-4.19 -26.16,-8.4 7.67,-4.44 15.45,-8.63 23.07,-13.14 -16.05,-4.33 -32.8,-3.23 -48.99,-0.23 10.87,-9.48 21.96,-18.73 32.74,-28.32 4.23,-3.61 8.61,-8.13 14.7,-7.76 27.56,-1.6 55.17,0.66 82.53,4.05 30.56,3.25 60.3,11.95 88.55,23.88 -3.39,-14.08 -7.03,-28.09 -10.44,-42.17 -27.86,-20.99 -61.61,-33.84 -96.24,-37.45 -32.15,-3.64 -65.07,-2.61 -96.48,5.51zm166.67 113.88l0 0c2.42,20.3 4.9,40.63 7.71,60.89 10.76,-10.3 23.65,-23.26 20.74,-39.58 -3.16,-12.84 -16.96,-18.2 -28.45,-21.31zm-378.41 54.16l0 0c-7.87,7.28 -7.67,19.16 -5.72,28.89 2.79,13.03 12.04,23.29 21.63,31.96 -0.23,-9.93 -0.75,-19.96 0.92,-29.8 2.01,-17.06 11.21,-32.24 23.71,-43.68 -14.1,0.89 -29.92,2.15 -40.54,12.63zm-121.27 64.49l0 0c-17.99,5.41 -33.74,15.87 -49.58,25.62 -39.47,24.98 -77.93,51.49 -116.28,78.14 -10.07,7.05 -21.93,10.71 -33.63,14.08 12,8.83 25.32,16.66 40.45,18.15 28.12,4.67 55.68,-8.7 76.37,-26.83 22,-19.9 42.27,-42.03 67.17,-58.49 37.3,-24.29 75.62,-46.96 113.19,-70.81 -32.94,4.58 -65.87,10.37 -97.69,20.14zm127.11 19.35l0 0c-25.05,32.55 -52.91,62.91 -83.15,90.7 -34.98,32.31 -79.97,51.42 -125.34,64.06 -10.51,3.34 -21.64,2.65 -32.49,2.54 6.91,8.88 12.39,18.84 15.98,29.53 12.94,-10.96 28.14,-19.18 44.51,-23.67 32.28,-8.61 67.12,-8.24 99.22,1.03 26.9,-45.37 53.77,-90.77 80.83,-136.06 5.29,2.07 10.56,4.17 15.82,6.28 3.14,-9.23 6.18,-18.48 9.27,-27.73 -8.21,-2.19 -16.43,-4.46 -24.65,-6.68zm10.99 77.56l0 0c-15.96,27.82 -32.47,55.31 -48.4,83.13 63.12,0.25 126.24,-0.21 189.37,0.23 6.12,-10.31 11.61,-20.95 17.4,-31.41 -50.04,-19.23 -100.11,-38.42 -150.18,-57.53 -4.3,-2.96 -6.22,2.81 -8.19,5.58zm-444.89 102.56l0 0c5.15,0.94 11.67,0.76 14.74,5.94 3.21,6.02 2.43,13.16 2.66,19.75 -0.35,45.93 0.46,91.85 -0.39,137.75 0.85,9.82 -8.59,14.33 -16.99,14.56 2.31,10.49 4.67,20.97 6.85,31.5 26.09,0.07 52.19,0.14 78.29,-0.02 2.27,-10.51 4.53,-21.02 6.91,-31.48 -6.68,-0.75 -15.79,-2.61 -16.5,-10.87 -1.03,-17.86 -0.12,-35.81 -0.41,-53.71 11.92,0.48 26.28,-2.68 35.66,6.78 9.21,10.41 10.4,25.02 12.94,38.09 2.86,18.13 7.21,36.91 19.3,51.33 20.97,-0.09 41.94,-0.05 62.91,-0.02 2.4,-10.61 4.53,-21.23 7.05,-31.78 -7.26,-0.73 -15.91,0.09 -21.31,-5.82 -4.67,-4.6 -5.11,-11.56 -6.44,-17.6 -2.77,-15.87 -6.45,-32.83 -17.99,-44.85 -4.58,-5.08 -10.71,-8.22 -16.76,-11.17 17.01,-7.67 31.32,-22.3 35.58,-40.82 5.61,-23.24 1.94,-50.62 -15.75,-67.93 -16.14,-15.86 -39.56,-20.97 -61.47,-21.54 -33.95,-0.14 -67.9,0.03 -101.83,-0.04 -2.47,10.62 -4.74,21.29 -7.05,31.95zm268.15 4.67l0 0c-20.88,4.33 -41.23,15.02 -53.62,32.83 -15.77,22.46 -19.3,50.99 -18.29,77.77 1.05,25.64 7.65,52.96 26.65,71.41 19.11,19.25 47.21,25.57 73.49,26.23 26.78,0.44 55.54,-3.66 77.06,-20.9 19.68,-15.68 29.07,-40.86 31.45,-65.27 2.54,-26.51 0.89,-54.55 -11.03,-78.8 -10.05,-20.55 -29.72,-35.39 -51.67,-41.23 -24.04,-6.45 -49.64,-6.48 -74.04,-2.04zm142.97 0l0 0c-2.25,9.05 -4.44,18.09 -6.98,27.04 4.51,1.03 9.7,0.8 13.5,3.83 4.03,4.12 3.05,10.37 3.28,15.63 -0.35,40.41 0.36,80.84 -0.35,121.25 -0.23,8.56 -9.93,9.52 -16.43,10.14 2.35,8.99 4.6,18.02 7,27.01 33.54,-0.02 67.08,0.03 100.62,-0.02 21.06,-0.55 43.54,-4.37 60.16,-18.29 17.95,-14.75 22.32,-41.81 13.72,-62.71 -5.86,-14.1 -19.14,-23.1 -32.63,-29.03 8.47,-5.01 16.76,-11.1 21.48,-19.98 11.01,-19.46 4.58,-46.43 -13.53,-59.37 -17.36,-12.66 -39.63,-14.99 -60.49,-15.45 -29.78,-0.09 -59.57,-0.02 -89.35,-0.05zm183.31 0l0 0c-2.29,9.03 -4.63,18.02 -7.03,27.02 4.39,1.05 9.48,0.73 13.23,3.59 4.05,3.14 3.78,8.77 3.98,13.37 -0.2,40.46 0.19,80.91 -0.18,121.36 0.78,9.8 -9.52,12.34 -17.17,12.55 2.57,8.97 4.74,18.02 7.17,27.01 52.49,-0.07 104.99,0.07 157.48,-0.07 2.27,-16.55 5.04,-33.03 7.26,-49.58 -8.38,-1.52 -16.71,-3.1 -25.09,-4.63 -2.06,5.61 -3.12,12.27 -8.08,16.19 -4.93,3.68 -11.38,4.05 -17.31,4.32 -15.46,0.07 -30.88,-0.04 -46.34,0 0.03,-18.31 0,-36.63 0.03,-54.94 13.02,0.62 26.35,-1.44 39.19,1.31 5.31,1.25 6.25,6.98 7.42,11.44 7.89,-1.74 15.79,-3.46 23.69,-5.2 0.16,-15.65 0.09,-31.31 0.05,-46.97 -7.9,-1.88 -15.8,-3.76 -23.72,-5.61 -1.17,4.37 -2.02,10.3 -7.35,11.51 -12.87,2.89 -26.21,0.92 -39.28,1.47 0,-16.99 -0.03,-33.97 0,-50.96 11.69,0.11 23.39,-0.18 35.11,0.11 6.55,0.41 13.85,0.67 19.12,5.18 3.43,4 4.17,9.47 5.68,14.37 7.87,-1.44 15.77,-2.84 23.67,-4.35 -0.05,-16.16 -0.02,-32.32 -0.02,-48.49 -50.51,0 -101.01,0.03 -151.51,0zm170.76 0.67l0 0c-2.22,8.95 -4.56,17.88 -6.89,26.78 7.19,0.23 16.89,2.68 16.53,11.77 0.46,42.15 0.57,84.36 -0.05,126.51 -0.02,8.81 -9.5,10.62 -16.41,11.15 2.22,8.77 4.6,17.51 6.73,26.33 25.34,-0.07 50.66,0 75.98,-0.05 2.18,-8.79 4.4,-17.58 6.73,-26.33 -5.9,-0.93 -14.72,-1.16 -15.95,-8.7 -1.56,-15.13 -0.21,-30.47 -0.65,-45.67 12.6,0.39 28.46,-2.26 37.44,8.93 8.4,11.77 8.6,26.9 12.36,40.41 2.47,11.56 7.85,22.37 15.61,31.29 20.58,0.16 41.19,0.05 61.79,0.07 2.22,-8.88 4.42,-17.79 6.71,-26.67 -8.17,-0.27 -19.05,0.34 -23.44,-8.17 -4.61,-10.33 -4.61,-22.09 -9.46,-32.37 -4.69,-12.3 -15.11,-21.66 -27.52,-25.78 13.83,-5.7 27.02,-15.25 32.65,-29.6 7.74,-20.15 4.46,-45.7 -12.18,-60.51 -17.67,-15.71 -42.44,-19.02 -65.2,-19.41 -31.59,-0.12 -63.19,-0.14 -94.78,0.02zm184.18 -0.69l0 0c-2.25,16.42 -4.69,32.81 -6.96,49.22 8.22,1.49 16.44,3.03 24.65,4.7 1.9,-6.64 3.71,-14.77 10.86,-17.7 10.78,-4.49 22.8,-2.68 34.18,-2.98 -0.05,43.27 -0.03,86.54 0,129.81 -0.12,4.08 -0.19,9 -3.85,11.68 -3.94,2.49 -8.81,2.42 -13.23,3.27 2.61,8.93 5.01,17.93 7.46,26.92 25.94,0 51.85,-0.02 77.79,0 2.27,-8.97 4.63,-17.92 6.96,-26.87 -5.38,-1.26 -12.84,-0.69 -15.56,-6.6 -2.2,-5.47 -1.72,-11.51 -1.86,-17.26 0.14,-40.34 0.02,-80.65 0.07,-120.97 11.79,0.39 24.27,-1.58 35.44,3.21 6.89,3 8.38,10.98 10.32,17.44 8.25,-1.62 16.51,-3.14 24.77,-4.72 -2.42,-16.36 -4.64,-32.76 -7.09,-49.13 -61.31,0 -122.62,0.05 -183.95,-0.02zm-677.88 252.31l0 0c-18.82,28.18 -20.31,63.78 -18.29,96.57 2.08,25.23 10.42,52.93 32.53,67.72 43.5,-6.19 87.48,-9.85 131.48,-9.05 19.5,-13.78 33.08,-35.09 37.82,-58.47 4.6,-22.57 4.26,-46.27 -0.99,-68.7 -4.87,-20.15 -16.66,-39.31 -34.95,-49.77 -24.41,-14.36 -53.96,-15.98 -81.51,-13.65 -25.5,2.22 -51.67,13.35 -66.09,35.35zm716.13 -14.03l0 0c-31.73,29.3 -30.67,85.41 0.21,114.95 16.8,15.91 38.69,24.47 58.7,35.46 11.63,6.61 23.72,15.31 27.79,28.73 3.27,11.01 2.27,25.05 -7.05,32.9 -10.81,7.78 -25.8,3.96 -35.99,-3.07 -19.07,-13.23 -31.75,-34.29 -37.75,-56.46 -6.59,-1.28 -13.14,-2.65 -19.69,-4.05 -4.14,20.77 -8.4,41.51 -12.41,62.32 13.79,17.88 32.83,31.02 53.18,40.38 21.71,10.03 46.04,14.86 69.9,11.84 14.33,-2.24 27.45,-11.08 34.61,-23.74 13.1,-22.25 12.98,-49.45 9.71,-74.29 -3.14,-23.63 -14.79,-46.38 -34.18,-60.71 -16.78,-13.01 -37.36,-19.24 -56.07,-28.76 -9.63,-4.92 -19.41,-12.87 -20.62,-24.36 -1.97,-11.47 4.07,-24.2 15.15,-28.55 12.18,-4.76 26.33,-1.53 36.84,5.8 10.71,7.23 16.44,19.07 21.24,30.65 6.69,1.49 13.58,1.6 20.4,2.22 3.78,-20.12 7.44,-40.25 11.22,-60.35 -22.92,-16.48 -51.74,-23.76 -79.74,-22.87 -20.28,0.35 -40.57,8.09 -55.45,21.96zm-321.9 -19.07l0 0c-2.57,8.65 -5.02,17.35 -7.51,26.03 5.08,1.21 11.77,0.78 14.97,5.79 1.9,3.98 1.63,8.61 1.83,12.93 0.62,31.94 1.24,63.95 -0.34,95.88 -1.17,9.6 -0.51,20.22 -5.7,28.73 -10.1,5.89 -24.15,0.48 -29.56,-9.45 -6.57,-12.23 -5.58,-27.38 -13.78,-38.9 -5.17,-7.78 -13.71,-12.13 -22.18,-15.36 8.63,-3.46 17.21,-7.62 23.92,-14.22 20.99,-19.13 18.98,-57.05 -3.36,-74.33 -16.08,-12.75 -37.34,-16.1 -57.26,-17.03 -34.66,-0.12 -69.35,0 -104.01,-0.05 -2.42,8.61 -4.8,17.22 -7.34,25.8 6.34,0.71 15.75,1.76 16.36,9.96 1.83,21.96 -0.5,44.02 0.03,66.02 -1.01,22.01 -0.23,44.28 -4.54,65.96 -4.53,1.58 -9.22,2.73 -13.92,3.76 1.49,6.11 3,12.24 4.49,18.36 26.28,1.1 52.29,6.5 78.64,5.26 2.47,-8.63 4.88,-17.31 7.53,-25.89 -5.9,-0.66 -14.4,-0.66 -16,-7.92 -1.85,-14.61 -0.02,-29.42 0,-44.07 13.67,-0.14 29.79,0.14 39.42,11.42 13.19,16.74 7.21,40.16 17.13,58.24 3.29,6.19 10,9.69 16.96,9.34 46.16,1.47 92.31,3.85 138.09,10.01 2.59,-8.82 5.02,-17.65 7.54,-26.49 -6.73,-1.28 -15.78,-3.37 -16.37,-11.74 -0.73,-14.84 -0.32,-29.74 0.43,-44.56 12.64,1.15 27.96,-0.15 36.72,10.95 11.68,14.88 10.92,34.96 15,52.59 2.27,10.39 5.59,22.84 16.05,27.81 20.9,5.04 42.12,8.79 63.21,13.03 28.8,2.95 56.45,12.27 84.7,18.15 4.28,-9.2 5.04,-20.33 8.01,-30.26 -4.28,-1.86 -9.02,-3.09 -12.49,-6.3 -3.83,-4.26 -4.24,-10.28 -4.61,-15.68 -0.5,-42.88 -1.07,-85.76 -0.52,-128.64 0.68,-9.07 0,-18.45 2.72,-27.22 2.84,-4.65 9.37,-3.62 13.99,-4.6 -2.13,-10.92 -4.51,-21.8 -6.66,-32.72 -25.71,0 -51.42,0.03 -77.13,0 -2.73,9.85 -5.11,19.81 -7.88,29.65 4.26,0.94 9.02,0.98 12.73,3.55 4.95,4.44 4.03,11.81 4.33,17.83 -0.25,44.05 -0.02,88.17 -3,132.14 -0.94,4.35 0.28,11.06 -5.31,12.43 -12.09,1.49 -24.54,-6.36 -28.89,-17.67 -5.93,-14.4 -5.09,-31.18 -13.9,-44.46 -5.04,-8.1 -13.28,-13.34 -21.68,-17.4 16.71,-5.31 31.87,-17.88 36.33,-35.37 5.02,-20.62 1.83,-45.3 -14.31,-60.37 -14.9,-14.01 -35.87,-18.45 -55.53,-20.53 -35.74,-3.28 -71.57,0.84 -107.35,-0.39zm-657.92 2.36l0 0c-2.81,12.89 -4.48,26.03 -7.05,38.96 5.09,0.85 13.65,0.16 14.54,6.98 2.08,12.39 1.79,25.03 2.47,37.53 1.42,57.25 0.41,114.53 0.78,171.81 -0.04,8.49 0.53,17.47 -3.27,25.32 -2.93,5.84 -9.25,8.52 -14.63,11.56 2.52,12.2 4.78,24.5 7.26,36.72 24.03,-9.98 48.21,-19.59 72.66,-28.52 2.22,-12.64 4.3,-25.28 6.84,-37.82 -5.03,0.53 -12.06,3.25 -15.38,-2.27 -3.27,-7.3 -2.31,-15.66 -2.63,-23.44 0.55,-41.74 -0.99,-83.45 -0.46,-125.21 15.13,39.2 29.85,78.76 49.47,115.98 7.47,-1.44 15.11,-1.99 22.46,-3.98 1.17,-2.11 2.18,-4.28 3,-6.5 16.35,-43.84 31.96,-87.91 48.01,-131.85 0.07,26.84 0.07,53.69 0.04,80.52 -0.64,9.18 -2.03,18.61 -5.54,27.18 -3.57,3.43 -8.49,4.78 -12.91,6.73 2.5,10.02 4.83,20.12 7.37,30.15 24.02,-12.8 49.77,-22.12 76.19,-28.48 -0.61,-5.11 -1.3,-10.21 -2.03,-15.3 -2.8,-0.11 -5.57,-0.25 -8.34,-0.36 -5.06,-31.5 -2.95,-63.53 -4.37,-95.28 0.46,-17.52 -1.01,-35.15 0.78,-52.59 0.52,-8.52 9.61,-9.71 16.18,-10.78 -2.24,-9.62 -4.69,-19.19 -7.07,-28.78 -23.9,-0.53 -47.78,0.71 -71.68,0.53 -17.38,41.55 -34.68,83.14 -52.15,124.7 -16.99,-41.6 -34.07,-83.15 -51.1,-124.73 -23.12,0.09 -46.38,0.07 -69.44,1.22zm252.4 224.17l0 0c-34.24,9.75 -69.45,21.47 -96.1,46.18 15.91,15.2 24.42,35.92 31.16,56.45 4.3,13.53 3.66,27.91 3.36,41.92 21.38,-13.39 43.54,-25.85 67.54,-33.95 49.1,-18.07 102.26,-20.04 154.03,-18.52 43.79,2.08 88,4.14 130.65,15.08 42.15,10.26 82.94,25.21 124.68,36.98 48.81,14.08 99.15,23.87 150.04,25.02 49.29,1.49 100.55,-6.69 142.67,-33.7 -10.32,-12 -21.04,-23.65 -31.34,-35.67 3.57,-18.59 7.19,-37.18 10.65,-55.79 -32.65,12.16 -66.17,24.84 -101.49,25.14 -52.43,1.53 -104.42,-8.93 -154.58,-23.47 -38.57,-11.01 -76.14,-25.18 -114.65,-36.38 -50.46,-13.23 -102.17,-22.02 -154.28,-25.02 -54.46,-2.72 -109.73,0.62 -162.34,15.73z"/>
   <path class="fil3" d="M692.26 1308.1c52.61,-15.11 107.88,-18.45 162.34,-15.73 52.11,3 103.82,11.79 154.28,25.02 38.51,11.2 76.08,25.37 114.65,36.38 50.16,14.54 102.15,25 154.58,23.47 35.32,-0.3 68.84,-12.98 101.49,-25.14 -3.46,18.61 -7.08,37.2 -10.65,55.79 10.3,12.02 21.02,23.67 31.34,35.67 -42.12,27.01 -93.38,35.19 -142.67,33.7 -50.89,-1.15 -101.23,-10.94 -150.04,-25.02 -41.74,-11.77 -82.53,-26.72 -124.68,-36.98 -42.65,-10.94 -86.86,-13 -130.65,-15.08 -51.77,-1.52 -104.93,0.45 -154.03,18.52 -24,8.1 -46.16,20.56 -67.54,33.95 0.3,-14.01 0.94,-28.39 -3.36,-41.92 -6.74,-20.53 -15.25,-41.25 -31.16,-56.45 26.65,-24.71 61.86,-36.43 96.1,-46.18zm443.09 105.95c2.81,-6.94 5.63,-13.9 8.54,-20.79 2.95,8.38 5.95,16.74 8.92,25.12 -5.83,-1.45 -11.65,-2.86 -17.46,-4.33zm-218 -71.56c13.21,-7.15 31.12,7.48 25.6,21.86 -3,9.16 -15.29,9.38 -22.34,4.99 -9.6,-4.65 -12.78,-20.72 -3.26,-26.85zm-158.26 -4.97c7.88,-4.49 20.74,-1.45 21.66,8.79 3.18,14.35 -15.25,25.82 -27.06,18.04 -9,-7.26 -4.76,-22.87 5.4,-26.83zm117.86 -582.37c1.97,-2.77 3.89,-8.54 8.19,-5.58 50.07,19.11 100.14,38.3 150.18,57.53 -5.79,10.46 -11.28,21.1 -17.4,31.41 -63.13,-0.44 -126.25,0.02 -189.37,-0.23 15.93,-27.82 32.44,-55.31 48.4,-83.13zm-138.1 -96.91c31.82,-9.77 64.75,-15.56 97.69,-20.14 -37.57,23.85 -75.89,46.52 -113.19,70.81 -24.9,16.46 -45.17,38.59 -67.17,58.49 -20.69,18.13 -48.25,31.5 -76.37,26.83 -15.13,-1.49 -28.45,-9.32 -40.45,-18.15 11.7,-3.37 23.56,-7.03 33.63,-14.08 38.35,-26.65 76.81,-53.16 116.28,-78.14 15.84,-9.75 31.59,-20.21 49.58,-25.62zm121.27 -64.49c10.62,-10.48 26.44,-11.74 40.54,-12.63 -12.5,11.44 -21.7,26.62 -23.71,43.68 -1.67,9.84 -1.15,19.87 -0.92,29.8 -9.59,-8.67 -18.84,-18.93 -21.63,-31.96 -1.95,-9.73 -2.15,-21.61 5.72,-28.89zm239.9 -401.14c37.41,-13.41 75.94,-23.42 114.77,-31.7 0.71,16 4.09,32.82 15.52,44.82 12.84,14.63 33.58,19.12 52.31,17.15 19.18,-1.93 38.16,-8.27 53.91,-19.58 -4,15.62 -13.32,30.02 -27.29,38.44 -19.32,12.04 -43.33,13.07 -65.36,10.46 -16.25,-1.85 -32.48,-7.71 -44.23,-19.45 -79.44,18.88 -158.14,41.32 -234.98,69.04 -72.64,25.99 -139.62,64.81 -205.95,103.64 -41.89,25.02 -83.46,50.57 -124.31,77.24 -6.27,-5.54 -12.43,-11.24 -18.52,-16.98 23.1,-19.69 47.64,-37.62 71.57,-56.28 48.78,-36.37 100.39,-68.88 153.86,-97.87 36.52,-19.84 74.13,-37.61 111.52,-55.72 48.23,-22.91 96.86,-45.24 147.18,-63.21zm-278.77 1125.59l0 0c5.49,8.17 2.22,18.54 3.04,27.74 -0.94,9.32 2.63,19.9 -3.07,28.16 11.84,0.76 23.65,1.7 35.49,2.43 7.46,0.52 15.29,0.27 22.14,3.8 -0.21,-6.27 -0.3,-12.52 -0.12,-18.77 -2.68,1.41 -5.49,2.81 -8.63,2.28 -9.93,-0.52 -19.85,-1.53 -29.81,-1.99 0,-12.47 0.1,-24.93 -0.06,-37.38 1.14,-1.56 2.31,-3.09 3.48,-4.63 -7.49,-0.57 -14.98,-1.1 -22.46,-1.64zm-62.48 5.31l0 0c-11.29,3.02 -21.52,11.35 -25.14,22.68 -4.21,11.36 0.05,26.15 11.59,31.32 15.75,6.92 35.71,1.22 46.17,-12.29 7.99,-10.05 9.21,-26.33 -0.18,-35.88 -8.4,-8.38 -21.61,-8.72 -32.44,-5.83zm151.46 5.15l0 0c-11.53,3.75 -17.81,17.17 -14.72,28.66 4.42,21.98 31.34,33.81 51.45,26.05 11.56,-4.74 16.2,-19.04 12.38,-30.42 -5.86,-19.92 -29.97,-30.18 -49.11,-24.29zm-217.62 10.85l0 0c-14.47,2.72 -28.23,10.92 -36.33,23.37 -5.66,9.09 -8.52,21.36 -3,31.18 6.25,9.78 19.8,9 29.58,5.98 12.31,-2.79 21.65,-11.63 32.71,-17.06 -3.59,-4.53 -7.12,-9.09 -10.46,-13.76 -4.47,8.5 -13.39,13.19 -22.32,15.62 -4.05,0.84 -9,1.69 -12.43,-1.24 -3.51,-2.75 -3.46,-7.71 -2.38,-11.58 2.54,-8.11 9.98,-13.56 17.6,-16.49 6.18,-2.29 14.29,-4.8 19.14,1.42 3.04,-7.41 6.14,-14.83 9.23,-22.23 -6.16,4.74 -14.15,3.39 -21.34,4.79zm289.05 -1.33l0 0c3.96,8.95 1.83,18.93 2.31,28.39 -0.41,9.27 1.47,18.93 -1.9,27.84 6.55,1.55 13.05,3.16 19.6,4.67 -0.85,-1.15 -2.56,-3.44 -3.41,-4.58 0.02,-10.37 -0.05,-20.74 0.09,-31.11 9.48,12.59 18.89,25.22 28.27,37.91 -0.59,0.91 -1.76,2.77 -2.35,3.68 7.09,1.63 14.19,3.32 21.17,5.43 -5.15,-8.38 -2.54,-18.5 -3.09,-27.75 0.57,-9.54 -1.83,-19.75 2.41,-28.71 -6.39,-1.48 -12.78,-2.99 -19.07,-4.8 5.51,9.5 1.96,20.97 2.9,31.34 -6.25,-8.33 -12.52,-16.67 -18.79,-25.02 -2.34,-3.39 -5.73,-6.87 -4.38,-11.34 -7.94,-1.9 -15.88,-3.77 -23.76,-5.95zm89.06 23.63l0 0c1.51,3.68 2.93,7.51 2.61,11.6 -0.03,13.83 -0.09,27.68 -0.07,41.53 -0.85,0.62 -2.52,1.86 -3.34,2.48 7.57,2.44 15.29,4.55 22.91,6.96 -6.11,-8.13 -2.79,-18.73 -3.55,-28.05 0.78,-9.45 -2.28,-19.8 2.68,-28.46 -7.12,-1.92 -14.21,-3.89 -21.24,-6.06zm61.03 16.92l0 0c0.05,8.65 -4.42,16.23 -7.39,24.1 -3.8,9.11 -6.55,18.82 -12.41,26.9 6.43,1.56 12.86,3.23 19.18,5.24 -1.49,-4 -1.1,-8.1 -0.09,-12.11 8.7,2.13 17.38,4.4 26.12,6.37 1.26,3.98 1.9,8.13 1.35,12.32 6.78,1.55 13.53,3.22 20.26,5.01 -8.4,-18.54 -14.21,-38.12 -21.4,-57.14 0.46,-0.99 1.33,-2.96 1.78,-3.94 -9.2,-2.02 -18.31,-4.35 -27.4,-6.75zm66.23 15.36l0 0c1.01,1.03 3.05,3.13 4.08,4.16 -0.09,16.23 0.09,32.47 -0.12,48.7 -1.03,0.66 -3.09,1.99 -4.12,2.63 16.9,2.22 33.95,2.98 50.89,4.81 2.89,0.23 5.32,1.99 7.88,3.18 -0.21,-6.57 -0.23,-13.12 -0.32,-19.67 -0.83,0.81 -2.45,2.39 -3.25,3.16 -11.65,-1.05 -23.33,-2.01 -34.96,-3.09 0.09,-10.8 -0.18,-21.63 0,-32.44 -0.3,-3.52 1.28,-6.64 2.86,-9.63 -7.67,-0.46 -15.31,-1.17 -22.94,-1.81zm128.62 2.97l0 0c-10.74,-2.1 -21.98,-3.45 -32.65,-0.23 -7.78,2.16 -16.32,7.01 -18.11,15.55 -1.71,5.56 0.99,12 6.39,14.35 10.81,4.9 22.89,-0.04 34.02,2.66 4.3,2.86 1.01,7.87 -2.77,9.27 -9.87,4.01 -21.25,3.05 -31,-0.85 -0.43,-1.39 -1.3,-4.14 -1.74,-5.51 -2.91,6.36 -5.72,12.75 -8.65,19.11 17.1,0.55 35.85,4.6 51.3,-5.08 9.09,-4.72 14.06,-18.13 6.69,-26.35 -12.02,-9.59 -29.21,1.28 -41.33,-7.17 4.7,-3.91 10.31,-6.91 16.53,-7 6.85,-0.28 15.87,-0.69 19.69,6.32 2.34,-5.61 4.86,-11.15 7.24,-16.74 -1.88,0.55 -3.76,1.1 -5.61,1.67z"/>
  </g>
 </g>
</svg>
