<?xml version="1.0" encoding="UTF-8"?>
<!DOCTYPE svg PUBLIC "-//W3C//DTD SVG 1.1//EN" "http://www.w3.org/Graphics/SVG/1.1/DTD/svg11.dtd">
<!-- Creator: CorelDRAW -->
<svg xmlns="http://www.w3.org/2000/svg" xml:space="preserve" width="2000px" height="1600px" version="1.1" style="shape-rendering:geometricPrecision; text-rendering:geometricPrecision; image-rendering:optimizeQuality; fill-rule:evenodd; clip-rule:evenodd"
viewBox="0 0 2000 1600"
 xmlns:xlink="http://www.w3.org/1999/xlink">
 <defs>
  <style type="text/css">
   <![CDATA[
    .fil0 {fill:black;fill-rule:nonzero}
    .fil1 {fill:#E41837;fill-rule:nonzero}
   ]]>
  </style>
 </defs>
 <g id="Capa_x0020_1">
  <metadata id="CorelCorpID_0Corel-Layer"/>
  <g id="Rutgers_x0020_Scarlet_x0020_Knights.cdr">
   <path class="fil0" d="M188.87 81.34c11.37,0.28 22.72,-0.12 34.07,-0.59 138.32,0.03 276.64,0.03 414.96,0.03 169.61,-1.29 339.3,-0.12 508.94,-0.7 105.62,-1.29 213.41,13.99 309.77,59.17 4.64,2.34 9.31,4.66 13.99,6.91 74.53,38.5 140.69,96.26 181.37,170.32 25.48,46.42 39.88,98.68 42.55,151.52 2.6,47.57 -2.81,95.91 -19.01,140.88 -15.64,43.86 -41.22,83.86 -73.41,117.41 -53.24,55.47 -121.34,94.41 -192.12,123.1 87.4,131.73 174.24,263.86 261,396.04 33.15,-0.54 66.3,-0.77 99.47,-1.05 7.72,-0.19 15.57,0.77 23.19,-0.94 4.39,-0.26 8.79,-0.31 13.2,-0.38 2.74,18.08 1.38,36.41 1.69,54.63 0.63,53.17 0.68,106.34 1.12,159.51 0.71,20.66 -1.59,41.5 1.53,61.99 -197.26,0.51 -394.52,0.07 -591.78,0.23 -57.76,0.85 -115.55,0.49 -173.34,0.57 -0.03,-62.34 0,-124.68 -0.03,-187.04 1.13,-29.47 0.4,-59.01 0.52,-88.5 41.26,-0.31 82.5,1.08 123.76,0.93 -70.85,-113.21 -142.66,-225.83 -213.36,-339.11 -56.43,-0.03 -112.89,-0.4 -169.32,0.18 0.1,3.03 0.17,6.05 0.24,9.1 0.47,16.43 -0.71,32.87 0.51,49.28 -0.51,17.19 -1.1,34.42 -0.3,51.6 -0.66,63.28 -0.05,126.6 -0.33,189.87 0.26,12.94 -0.61,25.93 0.61,38.85 37.11,-0.66 74.27,0.05 111.31,-2.09 0.59,92.14 0.14,184.27 0.24,276.41 -237.02,-0.12 -474.04,-0.05 -711.06,-0.05 0.14,-92.11 -0.26,-184.22 0.21,-276.31 35.77,1.99 71.69,1.38 107.54,2.09 0.04,-296.52 0.11,-593.02 -0.03,-889.52 -15.19,0.21 -30.4,0.36 -45.59,-0.04 -20.57,-2.26 -41.45,-0.43 -62.13,-0.96 0.02,-91.13 -0.03,-182.24 0.02,-273.34zm567.18 234.84c70.85,0.12 141.7,0 212.55,0.05 27.26,0.14 54.67,-0.92 81.77,2.86 46.33,5.79 92.65,22.55 127.4,54.57 25.22,22.02 43.88,51.86 50.63,84.83 9.57,42.85 2.07,89.97 -23.65,126.01 -25.48,37.93 -66.32,62.59 -109.16,76.38 -48.43,15.73 -99.82,19.83 -150.48,19.18 -63.02,0.04 -126.04,-0.05 -189.06,0.07 -0.07,-121.33 -0.07,-242.65 0,-363.95zm39.39 39.64l0 0c-0.02,94.91 -0.02,189.81 0,284.69 58.56,-0.08 117.13,0.04 175.67,-0.05 48.55,-1.34 98.18,-8.07 142.3,-29.42 32.17,-15.29 59.81,-41.85 72.7,-75.42 10.2,-29.57 8.72,-62.9 -3.63,-91.6 -15.29,-31.56 -43.75,-55.4 -75.49,-69.39 -6.9,-2.96 -13.93,-5.54 -20.98,-7.98 -15.36,-4.54 -31.11,-7.15 -46.92,-9.42 -14.88,-1.08 -29.79,-1.52 -44.73,-1.38 -66.3,0 -132.6,0.02 -198.92,-0.03zm-567.11 -235.52l0 0c0.33,64.99 0.09,129.98 0.11,194.97 35.8,1.54 71.67,0.86 107.52,0.84 0.21,323.18 0.05,646.35 0.07,969.53 -35.82,-1.01 -71.69,-1.41 -107.54,-1.78 -0.07,65.34 0.03,130.65 -0.05,195.99 210.7,-0.07 421.39,0 632.1,-0.05 -0.23,-65.52 0.26,-131.07 -0.26,-196.62 -37.13,1.73 -74.36,1.29 -111.54,2.27 0.16,-139.58 0,-279.19 0.09,-418.78 75.68,0.07 151.36,0.05 227.04,0 3.37,-0.68 4.5,3.26 6.18,5.32 86.91,138.11 174.05,276.1 260.89,414.26 -52.26,-0.21 -104.49,-1.85 -156.75,-2.18 -0.77,65.62 -0.75,131.26 -0.61,196.9 21.2,-0.16 42.44,0.29 63.63,-0.18 13.97,-1.55 28.02,-0.85 42.06,-0.96 192.99,0.02 385.98,-0.07 578.97,0.02 1.08,-12.24 0.21,-24.52 -0.23,-36.76 0.12,-53.03 -0.99,-106.04 -1.03,-159.05 -39.81,-0.63 -79.69,1.32 -119.54,0.97 -95.68,-146.48 -192.46,-292.21 -288.44,-438.48 -3.68,-5.49 -7.66,-10.83 -10.33,-16.95 43.25,-15.24 85.78,-33.03 125.52,-56.03 60.9,-35.05 116.65,-83.34 148.79,-146.81 37.02,-74.64 39.6,-163.82 13.79,-242.39 -25.2,-75.65 -81.66,-137.52 -147.6,-180.56 -86.63,-56.29 -190.79,-78.66 -292.75,-83.6 -34.42,-1.15 -68.83,-0.26 -103.25,-0.47 -137.5,0.16 -275.02,-0.31 -412.5,0.23 -151.45,0.66 -302.89,-0.02 -454.34,0.35z"/>
   <path class="fil1" d="M228.33 120.3c151.45,-0.37 302.89,0.31 454.34,-0.35 137.48,-0.54 275,-0.07 412.5,-0.23 34.42,0.21 68.83,-0.68 103.25,0.47 101.96,4.94 206.12,27.31 292.75,83.6 65.94,43.04 122.4,104.91 147.6,180.56 25.81,78.57 23.23,167.75 -13.79,242.39 -32.14,63.47 -87.89,111.76 -148.79,146.81 -39.74,23 -82.27,40.79 -125.52,56.03 2.67,6.12 6.65,11.46 10.33,16.95 95.98,146.27 192.76,292 288.44,438.48 39.85,0.35 79.73,-1.6 119.54,-0.97 0.04,53.01 1.15,106.02 1.03,159.05 0.44,12.24 1.31,24.52 0.23,36.76 -192.99,-0.09 -385.98,0 -578.97,-0.02 -14.04,0.11 -28.09,-0.59 -42.06,0.96 -21.19,0.47 -42.43,0.02 -63.63,0.18 -0.14,-65.64 -0.16,-131.28 0.61,-196.9 52.26,0.33 104.49,1.97 156.75,2.18 -86.84,-138.16 -173.98,-276.15 -260.89,-414.26 -1.68,-2.06 -2.81,-6 -6.18,-5.32 -75.68,0.05 -151.36,0.07 -227.04,0 -0.09,139.59 0.07,279.2 -0.09,418.78 37.18,-0.98 74.41,-0.54 111.54,-2.27 0.52,65.55 0.03,131.1 0.26,196.62 -210.71,0.05 -421.4,-0.02 -632.1,0.05 0.08,-65.34 -0.02,-130.65 0.05,-195.99 35.85,0.37 71.72,0.77 107.54,1.78 -0.02,-323.18 0.14,-646.35 -0.07,-969.53 -35.85,0.02 -71.72,0.7 -107.52,-0.84 -0.02,-64.99 0.22,-129.98 -0.11,-194.97zm527.72 195.88l0 0c-0.07,121.3 -0.07,242.62 0,363.95 63.02,-0.12 126.04,-0.03 189.06,-0.07 50.66,0.65 102.05,-3.45 150.48,-19.18 42.84,-13.79 83.68,-38.45 109.16,-76.38 25.72,-36.04 33.22,-83.16 23.65,-126.01 -6.75,-32.97 -25.41,-62.81 -50.63,-84.83 -34.75,-32.02 -81.07,-48.78 -127.4,-54.57 -27.1,-3.78 -54.51,-2.72 -81.77,-2.86 -70.85,-0.05 -141.7,0.07 -212.55,-0.05z"/>
  </g>
 </g>
</svg>
