<?xml version="1.0" encoding="UTF-8"?>
<!DOCTYPE svg PUBLIC "-//W3C//DTD SVG 1.1//EN" "http://www.w3.org/Graphics/SVG/1.1/DTD/svg11.dtd">
<!-- Creator: CorelDRAW -->
<svg xmlns="http://www.w3.org/2000/svg" xml:space="preserve" width="2000px" height="1600px" version="1.1" style="shape-rendering:geometricPrecision; text-rendering:geometricPrecision; image-rendering:optimizeQuality; fill-rule:evenodd; clip-rule:evenodd"
viewBox="0 0 2000 1600"
 xmlns:xlink="http://www.w3.org/1999/xlink">
 <defs>
  <style type="text/css">
   <![CDATA[
    .fil2 {fill:#545658;fill-rule:nonzero}
    .fil1 {fill:#9A9A9B;fill-rule:nonzero}
    .fil3 {fill:#D31D47;fill-rule:nonzero}
    .fil0 {fill:#FEFEFE;fill-rule:nonzero}
   ]]>
  </style>
 </defs>
 <g id="Capa_x0020_1">
  <metadata id="CorelCorpID_0Corel-Layer"/>
  <g id="Sacred_x0020_Heart_x0020_Pioneers.cdr">
   <path class="fil0" d="M460.51 487.52c3.5,-2.6 7.86,-2.82 12.04,-2.76 70.52,0.13 141.04,0.06 211.52,0.03 28.43,27.91 56.83,55.84 85.26,83.71 9.91,-27.81 19.26,-55.84 28.99,-83.71 312.47,0.13 624.95,-0.06 937.42,0.1 -60.94,177.2 -121.92,354.4 -182.84,531.64 -1.02,4.7 -4.43,7.92 -8.73,9.81 -54.82,29.39 -108.92,60.21 -163.95,89.16 -64.54,1.18 -129.23,0.16 -193.83,0.5 -33.67,-25.36 -66.77,-51.47 -100.34,-76.96 -8.77,25.55 -17.87,50.98 -26.17,76.68 -159.58,0.68 -319.17,0.06 -478.75,0.31 8.52,-25.24 17.62,-50.29 25.74,-75.69 -41.97,23.85 -83.77,47.94 -125.67,71.91 -3.51,1.92 -7.1,4.12 -11.25,3.75 -73.36,0.03 -146.7,-0.03 -220.03,0.03 -33.85,-31.03 -67.11,-62.68 -100.87,-93.81 16.94,-48.71 33.48,-97.55 50.42,-146.26 47.57,-0.03 95.14,0.06 142.67,-0.06 -35.42,-30.01 -70.94,-59.96 -106.25,-90.09 23.54,-68.88 47.63,-137.56 70.8,-206.56 51.25,-30.63 102.6,-61.07 153.82,-91.73zm-230.72 436.41c52.12,-1.02 104.24,-0.22 156.36,-0.4 -2.01,6.04 -4.09,12.08 -6.13,18.12 -45.9,-0.04 -91.76,0.03 -137.66,-0.04 -7.96,23.01 -15.91,46.02 -23.72,69.06 -4.49,-4.33 -9.01,-8.64 -13.56,-12.91 7.71,-24.78 17.25,-48.96 24.71,-73.83zm262.4 -68.22c5.98,0.43 11.98,0.93 17.99,1.36 -18.58,54.19 -37.13,108.36 -55.9,162.49 -27.96,-0.12 -55.93,-0.03 -83.89,-0.06 1.95,-5.85 3.96,-11.71 6.04,-17.53 21.89,0.06 43.79,0 65.68,0.06 16.66,-48.77 33.94,-97.36 50.08,-146.32zm462.08 -9.42c6.23,-0.03 12.42,-0.06 18.68,-0.06 -25.74,73.86 -50.91,147.91 -76.53,221.83 -6.03,-0.03 -12.07,-0.06 -18.08,-0.03 25.14,-73.99 51.16,-147.66 75.93,-221.74zm-493.86 -88.17c36.8,3.01 73.68,5.58 110.56,7.62 7.72,6.41 15.33,12.98 22.8,19.67 -46.55,-2.98 -92.97,-7.25 -139.55,-10.28 2.01,-5.67 4.12,-11.34 6.19,-17.01zm115.12 -142.55c5.94,0.16 11.89,0.25 17.83,0.38 -7.3,19.94 -13.71,40.19 -20.96,60.17 -6.1,-0.03 -12.17,-0.06 -18.21,-0.06 7.43,-20.07 13.38,-40.63 21.34,-60.49zm946.03 -83.27c50.2,-0.22 100.4,-0.09 150.6,-0.06 -2.07,5.85 -4.02,11.7 -5.88,17.62 -44.22,0.34 -88.42,-0.06 -132.61,0.22 -53.39,156.54 -107.74,312.81 -161.16,469.36 -28.59,0.21 -57.11,-0.09 -85.66,0.15 2.23,-5.82 4.37,-11.7 6.41,-17.59 22.3,-0.77 45.37,1.55 67.2,-1.11 53.79,-156.15 107.65,-312.32 161.1,-468.59zm-239.39 -0.65c51.91,-0.06 103.81,0.18 155.71,-0.13 -2.54,5.95 -2.97,13.48 -7.49,18.18 -45.4,0.65 -90.83,0.13 -136.23,0.25 -52.83,152.49 -105.11,305.2 -157.6,457.84 -4.93,-3.77 -9.79,-7.49 -14.68,-11.24 53.91,-154.81 106.56,-310.06 160.29,-464.9zm-219.35 0c50.14,0 100.28,0.06 150.42,-0.03 -2.05,6.19 -4.28,12.35 -6.63,18.46 -43.92,-0.19 -87.83,-0.07 -131.74,-0.1 -26.98,77.14 -53.11,154.6 -79.96,231.77 -27.97,0.16 -55.93,0.03 -83.9,0.06 1.98,-6.03 3.93,-12.11 5.85,-18.17 22.08,-0.5 44.16,-0.13 66.25,-0.22 26.54,-77.27 53.11,-154.54 79.71,-231.77zm-232.92 -0.13c49.93,0.31 99.85,0.1 149.77,0.13 -2.08,6.16 -4.12,12.32 -6.41,18.43 -43.82,-0.28 -87.64,0.06 -131.46,-0.19 -60.27,172.43 -118.86,345.49 -178.73,518.08 -6,0 -12.01,0.03 -18.05,0.09 61.6,-178.85 122.57,-357.94 184.88,-536.54zm-364.96 1.09c62.18,-1.09 124.49,0.09 186.71,-0.59 6.53,5.76 12.73,11.83 18.86,17.99 -62.9,-0.09 -125.77,0 -188.66,-0.03 -6.39,-0.25 -11.49,4.21 -16.82,7.06 -35.24,21.71 -71.57,41.81 -106.38,64.17 -18.64,49.86 -34.9,100.68 -52.46,150.97 -4.8,-3.96 -9.57,-7.99 -14.37,-11.98 17.96,-50.91 35.12,-102.14 52.93,-153.11 1.76,-6.35 8.67,-8.3 13.53,-11.68 35.77,-20.56 70.58,-42.86 106.66,-62.8zm-4 -20.29l0 0c-44.47,26.54 -88.97,53.02 -133.44,79.56 -20.16,60.3 -41.28,120.25 -61.82,180.4 31.99,26.72 63.24,54.41 95.73,80.48 35.67,3.6 71.6,4.93 107.37,7.65 -14.03,39.83 -27.23,79.93 -41.47,119.7 -12.79,-0.06 -25.61,-0.03 -38.4,-0.06 9.04,-26.36 18.21,-52.65 27.13,-79.04 -66.59,-0.09 -133.17,0.13 -199.75,-0.12 -13.07,35.92 -24.9,72.31 -37.63,108.36 29.51,26.69 58,54.5 87.58,81.14 69.9,-0.47 139.82,0.59 209.69,-0.53 47.57,-25.8 93.99,-53.88 141.31,-80.18 21.8,-60.91 41.9,-122.45 63.64,-183.43 -31.68,-27.28 -63.17,-54.78 -94.76,-82.19 -37.72,-2.26 -75.51,-4.67 -113.13,-8.05 13.04,-38.46 26.38,-76.86 39.51,-115.3 12.92,0.47 25.96,-1.2 38.81,0.75 -9.76,25.46 -17.69,51.53 -27.07,77.08 63.18,0.15 126.32,0 189.5,0.09 12.05,-35.67 24.5,-71.23 36.61,-106.87 -27.75,-27.28 -55.53,-54.54 -83.31,-81.79 -64.85,0.06 -129.7,0.09 -194.55,-0.03 -3.96,0.06 -8.14,0.03 -11.55,2.38zm353.54 -2.26l0 0c-65.96,193.62 -133.07,386.9 -199.34,580.42 64.91,-0.37 129.85,-0.03 194.76,-0.16 27.22,-79.68 54.78,-159.24 82.1,-238.86 12.91,-0.06 25.86,0 38.8,-0.09 -27.59,79.59 -55,159.27 -82.22,239.02 57.41,-0.13 114.86,-0.07 172.28,-0.03 7.49,-0.22 15.14,0.8 22.51,-0.87 66.52,-193.15 133.26,-386.24 199.25,-579.58 -61.5,0.18 -123.03,0.15 -184.54,0 -3.5,0.77 -9.78,-1.67 -11.02,3.16 -26.2,76.06 -52.34,152.12 -78.48,228.21 -12.85,0 -25.67,0.06 -38.49,-0.13 26.07,-77.14 53.26,-153.91 79.09,-231.12 -64.91,-0.03 -129.82,-0.06 -194.7,0.03zm452.67 0.03l0 0c-56.92,166.43 -114.27,332.7 -171.57,499 35.37,27.04 70.49,54.38 105.98,81.3 60.05,-0.41 120.16,0.52 180.18,-0.47 50.04,-26.13 99.28,-53.98 148.86,-81.04 56.71,-166.4 114.12,-332.58 171.48,-498.75 -64.94,-0.25 -129.89,-0.1 -194.83,-0.1 -54.19,156.64 -107.43,313.59 -162.09,470.05 -13.07,-0.03 -26.13,0 -39.2,-0.03 53.67,-156.74 107.64,-313.38 161.62,-470.02 -66.8,0.03 -133.63,-0.15 -200.43,0.06zm-659.2 213.47l0 0c27.78,24.19 55.43,48.53 83.43,72.44 7.9,-24.22 16.63,-48.13 24.68,-72.31 -36.05,-0.22 -72.06,0 -108.11,-0.13z"/>
   <path class="fil1" d="M445.95 451.41c6.57,-3.5 12.7,-9.29 20.6,-9.01 80.3,-0.03 160.6,0.18 240.9,-0.1 15.86,14.62 30.91,30.14 46.36,45.16 6.01,-14.87 10.13,-30.42 16.29,-45.22 376.64,0.34 753.26,0.19 1129.9,0.09 -9.04,26.58 -17.78,53.27 -26.94,79.84 -35.68,0.06 -71.35,-0.03 -107,0.03 -59.92,175.04 -120.62,349.83 -180.3,524.99 -64.73,36.35 -130.25,71.35 -195.23,107.27 -6.87,4.31 -15.2,3.1 -22.88,3.25 -67.79,-0.55 -135.68,0.69 -203.41,-0.59 -20.84,-13.81 -39.85,-30.31 -59.95,-45.21 -5.52,15.14 -10.5,30.47 -15.89,45.65 -188.26,0.15 -376.52,0.09 -564.78,0.03 3.63,-10.41 7.22,-20.84 10.78,-31.28 -14.93,8.39 -29.82,16.85 -44.56,25.52 -5.21,2.91 -10.57,6.35 -16.82,5.82 -82.47,-0.03 -164.94,0 -247.41,-0.03 -42.03,-38.71 -83.34,-78.2 -125.61,-116.66 22.39,-69.4 47.51,-137.9 70.45,-207.12 16.48,-0.12 32.95,0.03 49.4,-0.12 -11.27,-9.69 -22.73,-19.14 -34,-28.83 28.86,-82.1 56.61,-164.63 85.22,-246.82 1.02,-3.72 4.99,-5.21 7.84,-7.28 55.74,-32.98 111.33,-66.28 167.04,-99.38zm14.31 10.87l0 0c-55.09,32.64 -109.94,65.71 -165.16,98.17 -4.24,2.88 -9.84,5.14 -11.08,10.68 -25.86,76.34 -52.81,152.34 -78.29,228.8 19.57,16.69 39.42,33.08 58.84,50.02 -27.25,0.18 -54.51,0.06 -81.76,0.06 -21.46,61.72 -42.52,123.59 -63.86,185.35 34.72,32.7 69.77,65.06 104.52,97.73 4.09,3.35 7.74,8.58 13.69,7.99 76.49,0.28 152.99,-0.06 229.51,0.19 5.23,0.28 10.31,-1.18 14.77,-3.87 27.53,-15.89 55.13,-31.62 82.72,-47.32 -5.45,17.12 -11.43,34.06 -17.34,51.07 176.49,0.06 352.98,0.06 529.5,0 6.82,-18.71 12.82,-37.69 19.76,-56.37 19.82,15.02 39.46,30.29 59.21,45.4 7.06,5.21 13.88,12.76 23.57,11.12 66.99,-0.65 134.07,0.77 200.99,-0.71 62.12,-32.33 123.01,-67.33 184.85,-100.34 9.01,-3.28 9.97,-13.63 13.01,-21.37 63.89,-186.62 128.55,-372.99 192.25,-559.67 -243.44,-0.18 -486.92,-0.03 -730.37,-0.06 -86.21,0.37 -172.43,-0.8 -258.62,0.59 -6.22,19.54 -13.07,38.87 -19.82,58.22 -18.76,-18.36 -37.47,-36.79 -56.27,-55.09 -2.91,-3.81 -7.8,-3.69 -12.11,-3.78 -69.21,0.06 -138.43,0.12 -207.61,-0.03 -8.3,0.37 -17.5,-1.58 -24.9,3.22zm1326.77 -0.62l0 0c-0.59,1.58 -1.74,4.71 -2.33,6.25 4.21,0.16 8.46,0.31 12.7,0.44 -3.81,11.3 -7.68,22.61 -11.55,33.91 2.07,0.03 6.22,0.09 8.3,0.15 4.37,-11.24 8.02,-22.76 12.45,-34 6.01,-0.62 14.77,1.73 15.08,-7.06 -11.55,-0.03 -23.16,-0.87 -34.65,0.31zm39.48 -0.5l0 0c-5.76,13.66 -11.8,27.26 -16.85,41.22 2.08,-0.09 6.23,-0.24 8.3,-0.34 4.52,-11.58 9.23,-23.13 13.72,-34.74 -1.42,11.55 -2.1,23.16 -2.38,34.77 2.23,0 6.69,0.03 8.95,0.03 7.03,-10.09 13.66,-20.47 20.9,-30.44 -2.63,10.38 -5.42,20.72 -8.24,31.03 2.17,-0.15 6.51,-0.46 8.68,-0.62 3.56,-13.78 7.49,-27.47 11.08,-41.22 -4.67,1.06 -11.36,-1.48 -14.37,3.38 -6.56,8.24 -11.89,17.34 -17.56,26.2 0.28,-9.76 0.41,-19.48 0.34,-29.2 -4.21,-0.04 -8.39,-0.04 -12.57,-0.07z"/>
   <path class="fil2" d="M460.26 462.28c7.4,-4.8 16.6,-2.85 24.9,-3.22 69.18,0.15 138.4,0.09 207.61,0.03 4.31,0.09 9.2,-0.03 12.11,3.78 18.8,18.3 37.51,36.73 56.27,55.09 6.75,-19.35 13.6,-38.68 19.82,-58.22 86.19,-1.39 172.41,-0.22 258.62,-0.59 243.45,0.03 486.93,-0.12 730.37,0.06 -63.7,186.68 -128.36,373.05 -192.25,559.67 -3.04,7.74 -4,18.09 -13.01,21.37 -61.84,33.01 -122.73,68.01 -184.85,100.34 -66.92,1.48 -134,0.06 -200.99,0.71 -9.69,1.64 -16.51,-5.91 -23.57,-11.12 -19.75,-15.11 -39.39,-30.38 -59.21,-45.4 -6.94,18.68 -12.94,37.66 -19.76,56.37 -176.52,0.06 -353.01,0.06 -529.5,0 5.91,-17.01 11.89,-33.95 17.34,-51.07 -27.59,15.7 -55.19,31.43 -82.72,47.32 -4.46,2.69 -9.54,4.15 -14.77,3.87 -76.52,-0.25 -153.02,0.09 -229.51,-0.19 -5.95,0.59 -9.6,-4.64 -13.69,-7.99 -34.75,-32.67 -69.8,-65.03 -104.52,-97.73 21.34,-61.76 42.4,-123.63 63.86,-185.35 27.25,0 54.51,0.12 81.76,-0.06 -19.42,-16.94 -39.27,-33.33 -58.84,-50.02 25.48,-76.46 52.43,-152.46 78.29,-228.8 1.24,-5.54 6.84,-7.8 11.08,-10.68 55.22,-32.46 110.07,-65.53 165.16,-98.17zm147.69 261.28c36.05,0.13 72.06,-0.09 108.11,0.13 -8.05,24.18 -16.78,48.09 -24.68,72.31 -28,-23.91 -55.65,-48.25 -83.43,-72.44zm1218.56 -262.4c4.18,0.03 8.36,0.03 12.57,0.07 0.07,9.72 -0.06,19.44 -0.34,29.2 5.67,-8.86 11,-17.96 17.56,-26.2 3.01,-4.86 9.7,-2.32 14.37,-3.38 -3.59,13.75 -7.52,27.44 -11.08,41.22 -2.17,0.16 -6.51,0.47 -8.68,0.62 2.82,-10.31 5.61,-20.65 8.24,-31.03 -7.24,9.97 -13.87,20.35 -20.9,30.44 -2.26,0 -6.72,-0.03 -8.95,-0.03 0.28,-11.61 0.96,-23.22 2.38,-34.77 -4.49,11.61 -9.2,23.16 -13.72,34.74 -2.07,0.1 -6.22,0.25 -8.3,0.34 5.05,-13.96 11.09,-27.56 16.85,-41.22zm-39.48 0.5c11.49,-1.18 23.1,-0.34 34.65,-0.31 -0.31,8.79 -9.07,6.44 -15.08,7.06 -4.43,11.24 -8.08,22.76 -12.45,34 -2.08,-0.06 -6.23,-0.12 -8.3,-0.15 3.87,-11.3 7.74,-22.61 11.55,-33.91 -4.24,-0.13 -8.49,-0.28 -12.7,-0.44 0.59,-1.54 1.74,-4.67 2.33,-6.25zm-1326.52 25.86l0 0c-51.22,30.66 -102.57,61.1 -153.82,91.73 -23.17,69 -47.26,137.68 -70.8,206.56 35.31,30.13 70.83,60.08 106.25,90.09 -47.53,0.12 -95.1,0.03 -142.67,0.06 -16.94,48.71 -33.48,97.55 -50.42,146.26 33.76,31.13 67.02,62.78 100.87,93.81 73.33,-0.06 146.67,0 220.03,-0.03 4.15,0.37 7.74,-1.83 11.25,-3.75 41.9,-23.97 83.7,-48.06 125.67,-71.91 -8.12,25.4 -17.22,50.45 -25.74,75.69 159.58,-0.25 319.17,0.37 478.75,-0.31 8.3,-25.7 17.4,-51.13 26.17,-76.68 33.57,25.49 66.67,51.6 100.34,76.96 64.6,-0.34 129.29,0.68 193.83,-0.5 55.03,-28.95 109.13,-59.77 163.95,-89.16 4.3,-1.89 7.71,-5.11 8.73,-9.81 60.92,-177.24 121.9,-354.44 182.84,-531.64 -312.47,-0.16 -624.95,0.03 -937.42,-0.1 -9.73,27.87 -19.08,55.9 -28.99,83.71 -28.43,-27.87 -56.83,-55.8 -85.26,-83.71 -70.48,0.03 -141,0.1 -211.52,-0.03 -4.18,-0.06 -8.54,0.16 -12.04,2.76z"/>
   <path class="fil3" d="M1267.15 510.09c66.8,-0.21 133.63,-0.03 200.43,-0.06 -53.98,156.64 -107.95,313.28 -161.62,470.02 13.07,0.03 26.13,0 39.2,0.03 54.66,-156.46 107.9,-313.41 162.09,-470.05 64.94,0 129.89,-0.15 194.83,0.1 -57.36,166.17 -114.77,332.35 -171.48,498.75 -49.58,27.06 -98.82,54.91 -148.86,81.04 -60.02,0.99 -120.13,0.06 -180.18,0.47 -35.49,-26.92 -70.61,-54.26 -105.98,-81.3 57.3,-166.3 114.65,-332.57 171.57,-499zm-806.21 2.23c3.41,-2.35 7.59,-2.32 11.55,-2.38 64.85,0.12 129.7,0.09 194.55,0.03 27.78,27.25 55.56,54.51 83.31,81.79 -12.11,35.64 -24.56,71.2 -36.61,106.87 -63.18,-0.09 -126.32,0.06 -189.5,-0.09 9.38,-25.55 17.31,-51.62 27.07,-77.08 -12.85,-1.95 -25.89,-0.28 -38.81,-0.75 -13.13,38.44 -26.47,76.84 -39.51,115.3 37.62,3.38 75.41,5.79 113.13,8.05 31.59,27.41 63.08,54.91 94.76,82.19 -21.74,60.98 -41.84,122.52 -63.64,183.43 -47.32,26.3 -93.74,54.38 -141.31,80.18 -69.87,1.12 -139.79,0.06 -209.69,0.53 -29.58,-26.64 -58.07,-54.45 -87.58,-81.14 12.73,-36.05 24.56,-72.44 37.63,-108.36 66.58,0.25 133.16,0.03 199.75,0.12 -8.92,26.39 -18.09,52.68 -27.13,79.04 12.79,0.03 25.61,0 38.4,0.06 14.24,-39.77 27.44,-79.87 41.47,-119.7 -35.77,-2.72 -71.7,-4.05 -107.37,-7.65 -32.49,-26.07 -63.74,-53.76 -95.73,-80.48 20.54,-60.15 41.66,-120.1 61.82,-180.4 44.47,-26.54 88.97,-53.02 133.44,-79.56zm4 20.29l0 0c-36.08,19.94 -70.89,42.24 -106.66,62.8 -4.86,3.38 -11.77,5.33 -13.53,11.68 -17.81,50.97 -34.97,102.2 -52.93,153.11 4.8,3.99 9.57,8.02 14.37,11.98 17.56,-50.29 33.82,-101.11 52.46,-150.97 34.81,-22.36 71.14,-42.46 106.38,-64.17 5.33,-2.85 10.43,-7.31 16.82,-7.06 62.89,0.03 125.76,-0.06 188.66,0.03 -6.13,-6.16 -12.33,-12.23 -18.86,-17.99 -62.22,0.68 -124.53,-0.5 -186.71,0.59zm110.59 82.96l0 0c-7.96,19.86 -13.91,40.42 -21.34,60.49 6.04,0 12.11,0.03 18.21,0.06 7.25,-19.98 13.66,-40.23 20.96,-60.17 -5.94,-0.13 -11.89,-0.22 -17.83,-0.38zm-115.12 142.55l0 0c-2.07,5.67 -4.18,11.34 -6.19,17.01 46.58,3.03 93,7.3 139.55,10.28 -7.47,-6.69 -15.08,-13.26 -22.8,-19.67 -36.88,-2.04 -73.76,-4.61 -110.56,-7.62zm31.78 97.59l0 0c-16.14,48.96 -33.42,97.55 -50.08,146.32 -21.89,-0.06 -43.79,0 -65.68,-0.06 -2.08,5.82 -4.09,11.68 -6.04,17.53 27.96,0.03 55.93,-0.06 83.89,0.06 18.77,-54.13 37.32,-108.3 55.9,-162.49 -6.01,-0.43 -12.01,-0.93 -17.99,-1.36zm-262.4 68.22l0 0c-7.46,24.87 -17,49.05 -24.71,73.83 4.55,4.27 9.07,8.58 13.56,12.91 7.81,-23.04 15.76,-46.05 23.72,-69.06 45.9,0.07 91.76,0 137.66,0.04 2.04,-6.04 4.12,-12.08 6.13,-18.12 -52.12,0.18 -104.24,-0.62 -156.36,0.4zm584.69 -413.87c64.88,-0.09 129.79,-0.06 194.7,-0.03 -25.83,77.21 -53.02,153.98 -79.09,231.12 12.82,0.19 25.64,0.13 38.49,0.13 26.14,-76.09 52.28,-152.15 78.48,-228.21 1.24,-4.83 7.52,-2.39 11.02,-3.16 61.51,0.15 123.04,0.18 184.54,0 -65.99,193.34 -132.73,386.43 -199.25,579.58 -7.37,1.67 -15.02,0.65 -22.51,0.87 -57.42,-0.04 -114.87,-0.1 -172.28,0.03 27.22,-79.75 54.63,-159.43 82.22,-239.02 -12.94,0.09 -25.89,0.03 -38.8,0.09 -27.32,79.62 -54.88,159.18 -82.1,238.86 -64.91,0.13 -129.85,-0.21 -194.76,0.16 66.27,-193.52 133.38,-386.8 199.34,-580.42zm15.42 21.46l0 0c-62.31,178.6 -123.28,357.69 -184.88,536.54 6.04,-0.06 12.05,-0.09 18.05,-0.09 59.87,-172.59 118.46,-345.65 178.73,-518.08 43.82,0.25 87.64,-0.09 131.46,0.19 2.29,-6.11 4.33,-12.27 6.41,-18.43 -49.92,-0.03 -99.84,0.18 -149.77,-0.13zm232.92 0.13l0 0c-26.6,77.23 -53.17,154.5 -79.71,231.77 -22.09,0.09 -44.17,-0.28 -66.25,0.22 -1.92,6.06 -3.87,12.14 -5.85,18.17 27.97,-0.03 55.93,0.1 83.9,-0.06 26.85,-77.17 52.98,-154.63 79.96,-231.77 43.91,0.03 87.82,-0.09 131.74,0.1 2.35,-6.11 4.58,-12.27 6.63,-18.46 -50.14,0.09 -100.28,0.03 -150.42,0.03zm-108.55 314.64l0 0c-24.77,74.08 -50.79,147.75 -75.93,221.74 6.01,-0.03 12.05,0 18.08,0.03 25.62,-73.92 50.79,-147.97 76.53,-221.83 -6.26,0 -12.45,0.03 -18.68,0.06zm327.9 -314.64l0 0c-53.73,154.84 -106.38,310.09 -160.29,464.9 4.89,3.75 9.75,7.47 14.68,11.24 52.49,-152.64 104.77,-305.35 157.6,-457.84 45.4,-0.12 90.83,0.4 136.23,-0.25 4.52,-4.7 4.95,-12.23 7.49,-18.18 -51.9,0.31 -103.8,0.07 -155.71,0.13zm239.39 0.65l0 0c-53.45,156.27 -107.31,312.44 -161.1,468.59 -21.83,2.66 -44.9,0.34 -67.2,1.11 -2.04,5.89 -4.18,11.77 -6.41,17.59 28.55,-0.24 57.07,0.06 85.66,-0.15 53.42,-156.55 107.77,-312.82 161.16,-469.36 44.19,-0.28 88.39,0.12 132.61,-0.22 1.86,-5.92 3.81,-11.77 5.88,-17.62 -50.2,-0.03 -100.4,-0.16 -150.6,0.06z"/>
  </g>
 </g>
</svg>
