<?xml version="1.0" encoding="UTF-8"?>
<!DOCTYPE svg PUBLIC "-//W3C//DTD SVG 1.1//EN" "http://www.w3.org/Graphics/SVG/1.1/DTD/svg11.dtd">
<!-- Creator: CorelDRAW -->
<svg xmlns="http://www.w3.org/2000/svg" xml:space="preserve" width="2000px" height="1600px" version="1.1" style="shape-rendering:geometricPrecision; text-rendering:geometricPrecision; image-rendering:optimizeQuality; fill-rule:evenodd; clip-rule:evenodd"
viewBox="0 0 2000 1600"
 xmlns:xlink="http://www.w3.org/1999/xlink">
 <defs>
  <style type="text/css">
   <![CDATA[
    .fil1 {fill:black;fill-rule:nonzero}
    .fil3 {fill:#7A0002;fill-rule:nonzero}
    .fil2 {fill:#BD1F23;fill-rule:nonzero}
    .fil0 {fill:#FEFEFE;fill-rule:nonzero}
   ]]>
  </style>
 </defs>
 <g id="Capa_x0020_1">
  <metadata id="CorelCorpID_0Corel-Layer"/>
  <g id="Saint_x0020_Francis_x0020_Red_x0020_Flash.cdr">
   <path class="fil0" d="M692.78 878.77c3.29,-8.62 8.14,-17.61 16.92,-21.66 2.12,4.67 3.22,9.79 2.3,14.92 -2.92,20.77 -12.58,40.73 -27.34,55.65 0.64,-16.53 2.44,-33.27 8.12,-48.91zm729.14 -420.92c40.4,-14.85 80.46,-30.72 121.02,-45.14 -4.53,4.46 -10.46,7.06 -15.73,10.49 -18.26,11.33 -36.47,22.74 -54.24,34.81 -8.03,5.59 -16.58,11.18 -21.69,19.78 -5.98,9.68 -6.94,21.38 -6.99,32.49 13.04,-11.68 28.77,-22.56 47,-22.51 9.66,-0.1 19.18,5.15 23.37,14.02 7.52,14.83 7.84,32.01 8,48.31 0,22.82 -0.02,45.65 0.64,68.46 12.74,-12.58 16.42,-30.77 23.8,-46.45 6.28,-13.45 11.43,-27.48 18.35,-40.61 1.77,36.2 1.57,75.13 -17.57,107.25 -7.49,12.74 -17.63,24.3 -30.46,31.87 -7.27,4.39 -15.69,6.02 -23.55,8.99 -37.32,13.66 -74.73,27.09 -112.05,40.79 -0.39,-37.5 0.2,-74.98 -0.28,-112.49 -8.07,-3.24 -15.87,-7.1 -23.91,-10.37 -4.65,5.52 -1.57,12.95 0.18,19 8.92,23.41 18.19,46.97 22.53,71.76 3.38,17.25 -2.06,36.31 -15.17,48.32 -23.5,22.25 -62.73,26.83 -90.33,9.65 -10.8,14.72 -23.75,28.88 -40.65,36.54 -8.53,4.12 -19.27,3.82 -26.33,-2.99 -10.97,12.58 -23.73,25.83 -40.93,28.7 -9.06,1.68 -17.96,-2.09 -24.28,-8.46 -12.72,15.47 -27.71,29.71 -45.85,38.56 -10.51,5.1 -24.29,7.2 -34.27,-0.14 -8.94,-7.52 -10.09,-20.05 -11.06,-30.9 -1.93,-33 -0.57,-66.07 -0.8,-99.09 -17.11,14.9 -34.49,29.5 -51.83,44.15 2.92,41.67 2.07,83.89 -6.21,124.93 -6.55,30.33 -17.5,61.47 -40.33,83.5 -19.25,18.78 -48.41,29.43 -74.9,21.57 -19.98,-5.43 -35.5,-20.98 -45.34,-38.68 -10.47,11.89 -27.44,19.08 -43.09,14.35 -1.36,15.54 -3.11,31.32 -8.97,45.92 -16.15,41.99 -56.04,73.03 -100.08,80.66 -33.41,6.28 -69.33,-9.59 -88.11,-37.73 -15.18,-22.95 -23.87,-49.35 -37.21,-73.31 0.85,35.81 1.98,72.5 -8.69,107.13 -7.45,25.23 -23.25,48.82 -46.68,61.65 -13.68,8.14 -29.52,10.81 -44.68,14.83 -29.11,7.32 -58.18,14.74 -87.31,21.87 1.73,-1.72 3.5,-3.42 5.57,-4.71 28.92,-18.51 57.62,-37.34 86.46,-55.97 20.42,-11.18 24.99,-36.06 27.45,-57.12 5.22,-46.13 5.96,-92.62 5.11,-139 -16.44,-1.45 -33.85,-7.25 -44.22,-20.79 -13.91,-17.08 -17.18,-41.5 -9.66,-62.04 9.11,-27.2 30.74,-48.66 55.72,-61.9 20.48,-10.83 43.34,-17.13 66.45,-18.88 26.56,-1.49 55.21,5.36 74.46,24.72 18.12,19.43 22.6,49.07 14.65,73.97 -10.31,32.86 -36.93,56.98 -63.95,76.62 9.1,3.86 17.45,9.64 23.82,17.3 17.5,20.44 23.06,48.9 43.21,67.39 12.44,11.98 30.9,17.82 47.8,13.13 26.17,-6.55 47.21,-26.19 61.45,-48.42 6.48,-10.24 10.39,-21.76 15.19,-32.77 -2.2,-2.35 -4.39,-4.67 -6.57,-6.97 -12.14,27.69 -29.76,55 -56.73,70.16 -13.84,8.04 -32.24,10.6 -46.17,1.38 -18.05,-12.65 -27.21,-34.38 -30.54,-55.54 -5.27,-28.74 0.21,-58.38 10.81,-85.26 7.82,-19.2 21.04,-37.16 39.78,-46.77 11.77,-6.05 27.11,-7.8 38.44,0.14 12.63,8.62 16.24,25.02 16.75,39.39 -0.42,33.87 -22.15,64.93 -50.62,82 1.64,5.1 2.65,10.62 5.87,15.01 1.61,2.9 5.31,0.6 7.47,-0.3 7.18,-3.88 12.53,-10.34 17.48,-16.69 12.28,-16.63 21.7,-35.32 28.56,-54.8 4.48,-11.73 3.4,-24.53 5.03,-36.79 1.84,-26.93 10.56,-55.03 31.3,-73.45 9.22,-8.8 22.28,-12.57 34.86,-10.99 0.27,-25.47 -0.88,-51.05 1.63,-76.45 20.19,-6.88 40.24,-14.19 60.55,-20.77 -6.12,55.14 -2.6,110.72 0.89,165.91 2.39,26.74 4.21,53.71 10.88,79.81 -15.54,5.34 -31.2,10.35 -46.61,16.05 10.83,7.75 25.57,13.27 38.26,6.53 18.54,-10.04 28.86,-30.16 35.53,-49.37 7.01,-26.3 4.74,-53.87 4.6,-80.8 -0.81,-44.49 -9.68,-90.16 3.36,-133.76 -7.87,8.88 -12.12,20.24 -16.01,31.27 -6.94,21.71 -10.97,44.22 -17.2,66.11 -5.01,-33.55 -11.91,-67.74 -6.35,-101.73 3.48,-24.81 13.09,-51.04 34.52,-65.76 18.62,-12.49 39.3,-21.66 60.18,-29.71 63.39,-21.98 126.7,-44.26 190.19,-65.97 -30.89,25.5 -63.56,48.86 -94.95,73.79 12.63,-4.51 25.16,-9.36 37.71,-14.03 -6.8,68.69 -7.75,137.9 -6.05,206.89 4.33,-4.97 13.2,-8.9 11.66,-16.7 -4.23,-42.17 -3.86,-88 18.31,-125.55 9.88,-17.5 29.09,-32.86 50.36,-27.89 0.62,-3.31 -0.58,-8.63 3.95,-9.32 19.06,-7.03 38.26,-13.77 57.28,-20.94 -6.18,34.42 -6.97,69.53 -7.38,104.39 0.16,13.62 -0.41,27.37 2.23,40.79 1.38,-1.58 4.14,-4.71 5.52,-6.27 -2.95,-10.74 -0.58,-22.84 7.08,-31.07 3.38,-4.25 8.69,-6.3 12.37,-10.16 11.2,-33 5.22,-70.3 22.26,-101.55 10.42,-19.52 31.18,-30.3 51.76,-36.03 11.96,19.5 23.02,39.55 32.56,60.36 0.46,-30.21 -0.02,-60.43 0.72,-90.62 0.96,-23.06 18.23,-43.48 39.64,-50.98zm23.59 -3.91l0 0c-11.59,5.11 -23.91,8.85 -34.51,15.91 -9.39,6.72 -17.36,16.03 -20.7,27.25 -2.76,8.19 -2.07,16.97 -2.23,25.5 -1.03,63.88 -0.39,127.81 -0.76,191.71 30.65,-13.11 62.36,-23.5 93.73,-34.68 -12.79,-1.77 -26.47,2.47 -38.61,-2.76 -0.12,-34.58 -1.01,-69.14 -1.4,-103.7 -1.5,-15.09 12.19,-27.09 25.52,-30.95 1.36,5.63 2.12,11.43 2.19,17.24 0.66,30.63 -0.46,61.29 1.4,91.87 0.39,10.3 8.18,20 18.76,20.99 18.4,2.19 34.72,-10.18 45.49,-23.94 22,-27.24 29.25,-63.46 27.08,-97.77 -4.89,12.9 -10.62,25.48 -15.03,38.56 -4.4,10.99 -8.81,22.47 -17,31.25 -2.71,2.88 -8.62,7.15 -11.06,1.7 -1.4,-23.93 -0.85,-47.99 -1.03,-71.99 -0.35,-15.43 -0.28,-31.83 -7.57,-45.83 -4.53,-9.27 -15.87,-11.84 -25.25,-10.07 -18.32,2.9 -32.03,16.48 -45.43,28.17 -0.49,-19.23 -0.81,-41.65 14.57,-55.77 16.97,-13.33 36.41,-23.18 54.02,-35.64 -20.7,7.75 -41.51,15.13 -62.18,22.95zm-424.8 118.33l0 0c-20.61,7.18 -41.51,13.71 -61.15,23.36 -19.27,9.29 -40.38,19.44 -50.33,39.6 -17.82,35.04 -15.25,76.07 -10.42,113.89 5.15,-19.08 9.06,-38.67 17.34,-56.72 6.87,-15.29 18.56,-28.15 32.24,-37.67 -10.9,16.7 -16.19,36.4 -17.57,56.15 -3.06,29.99 1.42,59.97 2.28,89.94 0.59,23.77 1.67,47.62 -0.39,71.33 -1.78,22.1 -10.86,43.36 -24.91,60.43 -8.18,9.75 -19.68,17.91 -32.79,18.37 -13.27,-0.23 -25.57,-7.29 -34.61,-16.63 -1.12,1.32 -3.35,3.94 -4.46,5.25 8.93,16.58 22.88,31.73 41.49,37 25.52,7.81 53.85,-2.24 72.15,-20.81 20.61,-20.61 30.79,-49.08 36.96,-76.97 9.08,-42.17 8.87,-85.68 6.37,-128.52 20.94,-17.86 41.96,-35.62 62.84,-53.55 0.71,35.46 -0.94,70.94 0.8,106.37 1.13,11.2 0.69,25.69 11.71,32.29 12.97,5.19 26.77,-1.34 37.55,-8.51 13.98,-9.84 26.56,-21.94 36.54,-35.85 5.36,7.04 13.2,13.43 22.7,11.68 18.55,-2.48 31.15,-18.19 42.42,-31.66 3.01,3.06 5.73,7.15 10.26,8.05 9.86,2.23 19.22,-3.18 26.81,-8.9 11.33,-8.92 21.29,-19.78 28.74,-32.17 17.27,14.23 41.92,15.08 62.64,9.1 20.21,-5.75 38.7,-23.15 39.41,-45.2 0.39,-20.29 -7.68,-39.46 -13.66,-58.53 -3.93,-13.52 -12.16,-26 -12.41,-40.42 -0.33,-5.75 4.82,-11.59 10.85,-10.37 5.61,1.98 10.88,4.83 16.35,7.2 -9.61,-18.51 -19.92,-36.66 -30.06,-54.87 -18.09,5.93 -36.49,15.71 -45.34,33.44 -16.17,31.71 -9.36,69.3 -22.03,102.11 -4.88,3.45 -10.65,5.96 -14.1,11.07 -6.02,7.49 -6.18,17.79 -3.81,26.72 -3.75,5.61 -8.58,10.37 -14.03,14.3 -4.23,-8.07 -4.26,-17.43 -5.04,-26.28 -1.63,-39.95 1.38,-79.87 5.22,-119.58 -16.05,6.16 -32.35,11.59 -48.28,18.03 -0.07,3.98 -0.17,8 -0.24,12 -11.26,-4.94 -24.94,-3.72 -34.58,4.12 -17.96,14 -26.35,36.54 -31.25,58.06 -5.84,28.86 -5.72,58.82 -1.4,87.89 -5.54,9.29 -14.05,16.26 -23.25,21.73 -3.06,-69.47 -1.01,-139.17 4.44,-208.47 -17.73,6.92 -35.78,13.06 -53.4,20.23 -1.47,24.97 -2.09,50.04 -3.03,75.06 -23.48,8.53 -47.05,16.81 -70.46,25.59 -0.8,-12.12 -0.39,-24.67 3.75,-36.19 5.77,-16.4 18.58,-29.02 32.12,-39.32 42.82,-32.7 85.29,-65.86 128.38,-98.21 -43.32,14.44 -86.13,30.33 -129.36,45.04zm425.63 -1.58l0 0c0.67,34.3 0.46,68.66 1.68,102.94 9.61,1.5 19.34,0.16 29.02,0.39 -6.76,-4.87 -11.62,-12.25 -12.4,-20.65 -3.06,-34.83 -0.13,-69.9 -2.53,-104.76 -7.38,5.2 -16.6,11.89 -15.77,22.08zm-436.51 72.68l0 0c-13.22,13.09 -19.34,31.76 -18.53,50.15 19.86,-7.36 39.87,-14.32 59.78,-21.54 0.39,-21.39 1.77,-42.75 2.99,-64.09 -14.81,11.73 -30.74,22.21 -44.24,35.48zm-181.57 55.51l0 0c-0.8,26.56 -0.46,53.12 -0.83,79.7 -14.07,-5.54 -30.37,-0.44 -40.07,10.76 -20.91,21 -25.55,51.92 -26.84,80.25 0.05,18.22 -8.14,34.86 -15.66,51.01 -8.74,16.53 -18.3,33.61 -33.29,45.32 -4.95,3.26 -12.86,8.41 -17.85,2.48 -4.46,-6.25 -8,-14.76 -7.43,-22.12 26.82,-15.15 47.69,-42.95 50.13,-74.16 0.39,-13.68 -1.58,-29.73 -12.99,-38.88 -10.58,-8.3 -25.45,-5.73 -36.42,0.41 -18.01,10.37 -30.04,28.79 -36.77,48.08 -7.91,22.61 -12.58,46.96 -9.09,70.9 2.37,21.68 10.44,44.68 28.89,57.81 15.04,9.72 34.24,3.84 47.76,-5.75 24.72,-17.85 40.56,-45.28 51.23,-73.33 4.32,6.48 8.23,13.66 15.04,17.96 10.6,7.31 25.18,5.01 35.41,-1.84 9.73,-6.4 15.96,-16.56 20.85,-26.86 0.86,4.07 1.8,8.16 2.74,12.23 15.64,-5.31 31.16,-10.94 46.73,-16.49 -6.72,-26.16 -8.05,-53.32 -10.49,-80.13 -3.45,-51.6 -5.65,-103.5 -1.22,-155.12 -16.55,6.07 -33.29,11.63 -49.83,17.77zm-325.6 79.93l0 0c-25.64,11.59 -48.47,31.8 -58.57,58.59 -7.98,19.52 -6.14,43.58 7.4,60.22 9.59,12.79 26.08,17.69 41.3,19.43 -0.39,-8.59 -8.58,-13.91 -10.48,-22.12 -6.83,-19.31 4.66,-39.2 18.21,-52.4 16.12,-13.91 36.03,-24.38 57.42,-26.65 12.32,-0.97 26.88,1.63 34.33,12.55 9.26,13.32 7.63,31.18 1.56,45.49 -9.75,23.01 -28.83,40.42 -49.14,54.24 -0.53,-29.43 -0.25,-58.84 -0.32,-88.28 -14.3,6.21 -31.46,10.79 -39.64,25.35 -9.38,17.54 -7.45,38.23 -7.57,57.46 0.69,48.33 0.21,96.87 -6.05,144.89 -2.57,19.38 -8.16,40.93 -25.31,52.54 -23.32,15.34 -47.07,29.99 -70.02,45.88 27.29,-6.21 54.33,-13.52 81.47,-20.4 28.24,-7.5 50.49,-30.49 60.08,-57.69 15.41,-42.48 12.33,-88.6 10.33,-132.91 4.8,4.85 8.76,10.48 12.02,16.48 12.93,23.51 21.46,49.28 36.15,71.82 16.4,24.99 47.1,39.62 76.83,36.67 28.65,-3.22 55.81,-17.13 75.76,-37.82 22.66,-22.19 33.71,-53.65 36.61,-84.69 -1.03,-1.01 -3.12,-3.08 -4.16,-4.1 -5.52,13.04 -10.12,26.7 -18.69,38.15 -15.46,21.78 -37.62,40.52 -64.23,46.22 -19.52,4.39 -39.99,-3.93 -53.16,-18.44 -18.9,-19.27 -24.28,-47.53 -42.68,-67.12 -7.75,-8.6 -18.49,-13.75 -29.69,-16.1 26.42,-17.84 52.59,-38.93 66.69,-68.29 11.38,-23.55 11.04,-53.44 -4.42,-75.1 -11.56,-15.87 -30.79,-23.92 -49.6,-27.11 -28.03,-4.28 -56.79,1.77 -82.43,13.24zm31.57 49.26l0 0c-19.16,8.16 -37.87,21.54 -45.51,41.69 -4.21,10.2 -2.83,22.09 2.97,31.41 1.22,-14.54 2.18,-30.24 11.47,-42.22 11.09,-14.47 29.48,-19.41 45.88,-25.16 0.34,28.12 1.01,56.22 1.35,84.35 19.11,-14.49 37.12,-33.39 42.15,-57.58 2.67,-12.28 0.37,-28.1 -11.4,-34.93 -14.86,-7.13 -32.31,-3.59 -46.91,2.44zm767.84 -153.75c4.25,-18.58 5.54,-37.62 7.82,-56.5 6.32,17.62 10.78,35.85 17.57,53.33 -8.49,0.97 -16.97,1.82 -25.39,3.17zm11.24 -29.64l0 0c-1.67,7.77 -2.62,15.66 -4.13,23.46 3.61,-0.55 7.26,-1.08 10.89,-1.59 -2.57,-7.17 -4.82,-14.49 -6.76,-21.87zm-134.65 16.05c2.94,-7.15 7.06,-14.12 13.91,-18.19 6.6,6.6 5.22,16.49 4.69,24.93 -2.02,22.83 1.68,45.74 0.16,68.57 -4.35,8.67 -9.59,18.17 -18.88,22.26 -4.99,-11.98 -5.49,-25.18 -6.83,-37.92 -1.29,-20.03 -0.6,-40.79 6.95,-59.65zm-0.95 29.73l0 0c-1.37,20.19 -0.32,40.73 4.42,60.43 4.37,-6.48 11.36,-12.69 10.53,-21.24 -0.76,-22.26 -2,-44.59 -0.57,-66.85 0.23,-4.16 -0.05,-8.3 -0.58,-12.39 -9.31,11.1 -12.3,26 -13.8,40.05zm108.59 15.76c13.95,-9.16 31.59,-8.9 47.66,-9.57 2.62,7.68 1.41,16.79 -4.6,22.58 -11.68,10.21 -31.04,11.89 -43.23,1.7 -4.57,-3.65 -5.28,-11.49 0.17,-14.71zm0.87 7.06l0 0c10.21,15.98 44.68,10.96 42.93,-10.67 -14.49,1.15 -31.57,0.06 -42.93,10.67zm-468.98 95.15c6.69,-5.91 10.81,4.41 11.06,9.82 1.17,21.75 3.77,43.92 -0.44,65.51 -1.88,8.19 -6.25,19.27 -16.09,19.45 -7.04,-3.88 -8.62,-12.78 -10.17,-19.96 -3.31,-20 -1.63,-41.02 5.29,-60.1 2.4,-5.48 5.29,-11.25 10.35,-14.72zm-9.45 33.96l0 0c-2.67,18.1 -3.72,37.92 4.58,54.8 7.63,0.5 9.29,-9.71 10.69,-15.52 3.17,-22.88 2.02,-46.45 -1.63,-69.22 -9.27,6.97 -11.34,19.32 -13.64,29.94zm-116.81 68.64l0 0c8.23,-13.61 15.06,-29.02 14.92,-45.21 -10.23,12.7 -13.36,29.41 -14.92,45.21z"/>
   <path class="fil1" d="M545.82 650.18c16.14,-0.35 32.26,0.23 48.4,0.73 -0.46,1.91 -1.35,5.73 -1.79,7.64 -2,-0.21 -5.98,-0.65 -7.96,-0.85 -0.78,3.24 -1.56,6.46 -2.34,9.7 5.77,1.22 9.45,4.81 6.21,10.92 -14.81,-6.39 -29.6,-12.87 -44.11,-19.91 0.53,-2.74 1.06,-5.5 1.59,-8.23zm509.38 499.77c1.93,-0.23 5.77,-0.69 7.7,-0.92 2.23,15.15 4.74,30.28 6.62,45.5 -8.5,3.22 -17.79,3.41 -26.76,3.71 -2.6,-2.17 -1.98,-5.98 -2.53,-8.9 -0.83,-12.54 -1.91,-25.02 -2.94,-37.53 2,-0.12 6,-0.35 8,-0.46 0.94,13.31 2.57,26.53 3.84,39.83 3.75,-0.46 7.49,-0.9 11.24,-1.32 -1.77,-13.31 -3.45,-26.62 -5.17,-39.91zm51.92 -10.33c1.82,-0.53 5.43,-1.61 7.22,-2.14 4.35,15.18 9.24,30.22 13.36,45.49 -1.79,0.39 -5.38,1.17 -7.15,1.56 -6.95,-7.06 -11.82,-15.84 -18.65,-23 2.55,8.7 4.48,17.53 6.78,26.29 -2.82,0.69 -5.63,1.38 -8.41,2.09 -3.36,-15.5 -7.15,-30.88 -10.37,-46.4 1.63,-0.26 4.87,-0.74 6.51,-0.97 6.13,7.29 11.12,15.5 17.47,22.65 -1.86,-8.62 -4.78,-16.97 -6.76,-25.57zm33.02 -10.74c1.75,-0.78 5.22,-2.32 6.97,-3.1 6,14.58 11.98,29.18 17.68,43.87 -1.93,0.81 -5.77,2.42 -7.68,3.2 -5.79,-14.6 -11.13,-29.39 -16.97,-43.97zm46.8 -15.56c-3.04,-4.3 0.29,-7.52 4.34,-9.06 5.84,15.01 10.58,30.46 14.97,45.98 -2.44,1.29 -4.87,2.58 -7.29,3.91 -9.98,-12.55 -19.91,-25.17 -29.27,-38.21 1.68,-0.83 5.04,-2.51 6.69,-3.34 6.44,8.69 12.37,17.78 19.41,26.01 -2.69,-8.53 -5.93,-16.86 -8.85,-25.29zm27.43 -22.82c5.75,-3.91 11.43,-7.91 16.99,-12.07 1.08,1.38 3.27,4.16 4.35,5.54 -3.68,2.67 -7.36,5.34 -11.06,7.96 2.37,3.54 4.78,7.08 7.19,10.62 3.2,-2.34 6.35,-4.73 9.52,-7.12 1.38,1.93 2.79,3.86 4.19,5.84 -3.29,2.3 -6.51,4.69 -9.64,7.22 2.58,3.49 5.09,7.06 7.57,10.67 4,-2.86 7.98,-5.73 11.96,-8.63 1.03,1.41 3.12,4.21 4.18,5.61 -6.25,4.67 -12.65,9.16 -19.08,13.59 -8.67,-13.1 -17.34,-26.21 -26.17,-39.23zm36.63 -27.84c6,-4.88 11.22,-10.69 17.38,-15.36 7.45,2.14 11.66,10.83 17.71,15.66 -1.31,2.25 -2.62,4.48 -3.93,6.76 7.08,2.78 14.07,5.75 21.15,8.55 -1.98,2.02 -3.98,4 -5.93,6.03 -8.56,-3.75 -17.89,-6.07 -25.43,-11.75 1.31,-1.38 3.93,-4.14 5.24,-5.5 -0.35,-4.67 -6.05,-7.29 -8.65,-10.95 -2.41,2.23 -4.8,4.51 -7.19,6.79 9.01,9.89 17.79,20 26.92,29.82 -2.14,1.86 -4.27,3.73 -6.37,5.64 -10.3,-11.92 -20.51,-23.87 -30.9,-35.69zm-440.81 -50.36c17.52,11.47 35.87,21.71 55.19,29.85 -5.61,17.13 -11.32,34.24 -17.11,51.3 -22.44,-9.77 -44.31,-21 -64.59,-34.75 11.42,-13.75 21.29,-29.18 26.51,-46.4zm490.82 -1.59c5.22,-1.97 8.88,4.85 13.09,6.86 -1.5,2.13 -2.97,4.27 -4.44,6.41 -2.05,-1.68 -4.09,-3.36 -6.12,-5.04 -2.25,2.24 -4.39,4.58 -6.46,6.97 1.93,1.63 3.89,3.29 5.84,4.95 7.66,-1.11 15.25,-2.65 22.88,-4.07 4.55,3.33 9.04,6.78 13.11,10.73 -5.13,7.22 -10.12,15.07 -17.64,20.01 -3.61,-3.22 -7.2,-6.39 -10.78,-9.61 1.24,-1.36 3.7,-4.05 4.92,-5.41 2.89,0.6 4.94,3.2 7.42,4.74 2.03,-2.57 4.1,-5.13 6.17,-7.66 -2.3,-1.7 -4.6,-3.38 -6.9,-5.01 -7.27,1.8 -14.65,2.88 -22.03,3.98 -4.48,-3.63 -9.04,-7.27 -12.39,-11.98 4.46,-5.27 8.57,-10.85 13.33,-15.87zm16.56 -23.59c1.49,-2.07 3.01,-4.14 4.55,-6.19 13.02,8.58 26.24,16.86 39.37,25.25 -1.52,2.42 -3.04,4.86 -4.55,7.27 -13.09,-8.81 -26.24,-17.57 -39.37,-26.33zm27.52 -48.4c2.1,0.8 4.19,1.58 6.28,2.41 -1.17,2.85 -2.39,5.68 -3.56,8.55 11.86,5.8 23.66,11.8 35.57,17.55 -1.24,2.64 -2.48,5.29 -3.73,7.96 -11.75,-6.44 -23.7,-12.42 -35.48,-18.79 -1.49,2.67 -2.99,5.36 -4.48,8.05 -1.98,-1.22 -3.93,-2.42 -5.89,-3.61 4.03,-7.25 7.75,-14.65 11.29,-22.12zm18.28 -46.84c6.97,5.31 13.87,10.73 20.58,16.37 5.8,5.15 13.75,6.25 20.72,9.1 -1.01,2.72 -2.02,5.43 -3.01,8.17 -5.72,-2.1 -11.31,-4.72 -17.27,-6.1 -10.25,-0.25 -20.53,0.07 -30.79,-0.57 0.83,-1.86 2.51,-5.57 3.34,-7.41 6.92,0.53 13.89,0.79 20.83,0.83 -5.2,-4.9 -12.42,-8.02 -16.56,-13.73 0.55,-1.67 1.64,-5.01 2.16,-6.66zm-671.44 19.15c1.56,-15.8 4.69,-32.51 14.92,-45.21 0.14,16.19 -6.69,31.6 -14.92,45.21zm-157.7 -82.96c14.6,-6.03 32.05,-9.57 46.91,-2.44 11.77,6.83 14.07,22.65 11.4,34.93 -5.03,24.19 -23.04,43.09 -42.15,57.58 -0.34,-28.13 -1.01,-56.23 -1.35,-84.35 -16.4,5.75 -34.79,10.69 -45.88,25.16 -9.29,11.98 -10.25,27.68 -11.47,42.22 -5.8,-9.32 -7.18,-21.21 -2.97,-31.41 7.64,-20.15 26.35,-33.53 45.51,-41.69zm274.51 14.32c2.3,-10.62 4.37,-22.97 13.64,-29.94 3.65,22.77 4.8,46.34 1.63,69.22 -1.4,5.81 -3.06,16.02 -10.69,15.52 -8.3,-16.88 -7.25,-36.7 -4.58,-54.8zm493.33 -57.23c18.35,2.62 37.16,0.34 54.41,-6.53 -5.39,77.19 -35.81,152.34 -85.89,211.32 -49.85,59.42 -118.95,102.42 -194.4,120.61 -45.62,11.01 -93.38,13.52 -139.85,6.64 8.46,-16.95 16.53,-34.1 25.04,-51.02 45.32,2.8 92.21,0.09 134.68,-17.27 39.05,-15.2 76.48,-35.99 106.67,-65.38 26.49,-24.62 49.42,-53.28 65.45,-85.81 18.02,-35.02 31.73,-72.92 33.89,-112.56zm-14.9 -71.88c11.36,-10.61 28.44,-9.52 42.93,-10.67 1.75,21.63 -32.72,26.65 -42.93,10.67zm-749.12 -5.48c-1.64,-9.08 0.18,-18.55 2.92,-27.27 4.64,0.67 9.26,1.38 13.91,2.09 -0.32,2.1 -0.97,6.28 -1.27,8.37 -1.97,-0.36 -5.93,-1.1 -7.91,-1.47 -0.46,3.45 -0.89,6.92 -1.33,10.4 1.84,0.23 5.49,0.71 7.34,0.96 5.72,-5.24 11.06,-10.99 17.42,-15.5 5.39,0.9 13.5,-0.53 16.86,4.44 -0.97,7.18 -0.85,14.74 -3.45,21.52 -4.8,1.22 -9.82,-0.36 -14.67,-0.64 0.21,-2 0.62,-6 0.83,-8 2.83,0.39 5.68,0.76 8.51,1.17 0.43,-3.17 0.85,-6.32 1.28,-9.47 -2.71,-0.39 -5.42,-0.76 -8.11,-1.08 -5.66,5.22 -10.88,10.92 -16.97,15.61 -5.15,0.21 -10.26,-0.78 -15.36,-1.13zm639.66 -17.34c1.5,-14.05 4.49,-28.95 13.8,-40.05 0.53,4.09 0.81,8.23 0.58,12.39 -1.43,22.26 -0.19,44.59 0.57,66.85 0.83,8.55 -6.16,14.76 -10.53,21.24 -4.74,-19.7 -5.79,-40.24 -4.42,-60.43zm135.6 -45.78c1.94,7.38 4.19,14.7 6.76,21.87 -3.63,0.51 -7.28,1.04 -10.89,1.59 1.51,-7.8 2.46,-15.69 4.13,-23.46zm-758.41 -27.25c14.74,4.81 29.55,9.41 44.38,13.94 -0.5,2.53 -1.01,5.08 -1.52,7.61 -15.06,-4.6 -30.19,-8.95 -45.32,-13.36 0.83,-2.74 1.63,-5.45 2.46,-8.19zm454.93 25.94c13.5,-13.27 29.43,-23.75 44.24,-35.48 -1.22,21.34 -2.6,42.7 -2.99,64.09 -19.91,7.22 -39.92,14.18 -59.78,21.54 -0.81,-18.39 5.31,-37.06 18.53,-50.15zm-440.49 -65.6c14.56,5.84 28.93,12.14 43.44,18.16 -0.55,1.52 -1.63,4.6 -2.16,6.14 -9.75,0.16 -19.53,-0.25 -29.25,0.32 8.12,3.87 16.83,6.35 25.2,9.69 -0.9,2.36 -1.77,4.73 -2.62,7.1 -14.81,-5.26 -29.66,-10.42 -44.47,-15.66 0.85,-2.34 1.72,-4.64 2.57,-6.97 9.84,-0.75 19.73,-0.75 29.6,-1.21 -8.49,-3.22 -16.97,-6.44 -25.34,-9.94 1.01,-2.55 2.02,-5.1 3.03,-7.63zm877 -7.08c-0.83,-10.19 8.39,-16.88 15.77,-22.08 2.4,34.86 -0.53,69.93 2.53,104.76 0.78,8.4 5.64,15.78 12.4,20.65 -9.68,-0.23 -19.41,1.11 -29.02,-0.39 -1.22,-34.28 -1.01,-68.64 -1.68,-102.94zm-872.31 -3.66c4.05,-8.33 7.89,-16.76 12.44,-24.84 1.47,0.86 4.44,2.53 5.94,3.39 -1.43,2.73 -2.88,5.47 -4.3,8.2 11.84,6.42 24.12,11.99 35.98,18.38 -0.92,1.65 -2.73,4.99 -3.63,6.64 -12.05,-5.88 -23.96,-12.16 -36.38,-17.2 -1.13,2.78 -2.25,5.57 -3.33,8.35 -1.68,-0.74 -5.04,-2.19 -6.72,-2.92zm663.26 -56.91c2.97,-7.04 11.06,-9.18 16.81,-13.36 10.74,11.43 20.97,23.31 30.36,35.89 -17.09,7.08 -34.24,13.94 -51.26,21.2 -3.72,-4.34 -7.47,-8.67 -11.27,-12.92 5.11,-10.28 10.26,-20.53 15.36,-30.81zm-633.5 1.79c4.34,-6.42 8.58,-12.88 13.08,-19.18 1.4,1.08 4.16,3.22 5.54,4.28 -2.73,3.95 -5.49,7.89 -8.27,11.82 3.56,2.39 7.1,4.76 10.67,7.17 2.27,-3.35 4.53,-6.71 6.78,-10.07 1.91,1.4 3.84,2.83 5.79,4.26 -2.27,3.19 -4.48,6.41 -6.66,9.68 5.56,3.63 11.12,7.33 16.78,10.85 -1.26,2.25 -2.55,4.51 -3.84,6.76 -13.15,-8.74 -26.7,-16.88 -39.87,-25.57zm36.84 -48.93c7.17,2.99 13.86,9.27 18.48,15.52 -0.78,1.38 -2.32,4.16 -3.08,5.56 7.22,2.17 14.37,4.53 21.55,6.88 -1.52,2 -3.04,4 -4.55,6 -8.37,-3.91 -19.71,-2.74 -26.06,-9.89 1.68,-1.95 3.36,-3.93 5.02,-5.88 -3.71,-2.9 -7.39,-5.82 -11.07,-8.72 -2.13,2.83 -4.3,5.63 -6.46,8.44 10.56,8.1 21,16.33 31.51,24.49 -1.48,2.02 -2.97,4.07 -4.44,6.09 -12.47,-9.42 -24.88,-18.92 -37.53,-28.12 5.13,-7.08 10.07,-14.51 16.63,-20.37zm57.18 63.6c36.13,-46.68 83.77,-84.14 137.26,-109.04 -22.93,37.09 -46.27,73.93 -69.24,111 -2.48,4.16 -5.65,7.84 -9.03,11.31 -36.13,37.76 -59.72,85.95 -74.42,135.71 -7.68,32.52 -9.15,66.18 -7.93,99.48 -11.7,-21.02 -30.1,-38.75 -53.3,-46.31 4.37,-73.08 31.64,-144.48 76.66,-202.15zm419.47 -119.11c10.12,3.7 20.77,6.99 29.62,13.22 -16.07,6.07 -32.05,12.39 -48.08,18.56 6.12,-10.63 12.46,-21.09 18.46,-31.78zm-423.88 2.09c2.18,-1.84 4.39,-3.66 6.6,-5.5 9.79,12.24 19.59,24.47 29.64,36.47 -1.73,1.52 -3.45,3.04 -5.18,4.56 -8.66,-4.81 -17.38,-9.52 -26.19,-14.07 5.71,7.15 11.82,13.95 18.17,20.55 -1.91,1.82 -3.79,3.61 -5.68,5.43 -9.8,-11.04 -19.91,-21.78 -29.85,-32.65 -3.4,-2.74 2.14,-5.25 3.36,-7.32 9.04,4.24 17.94,8.76 26.81,13.34 -5.86,-6.97 -11.68,-13.98 -17.68,-20.81zm39.48 -29.29c5.73,-0.03 7.18,7.79 10.62,11.36 -1.7,1.17 -5.1,3.49 -6.8,4.64 -1.61,-2.39 -3.22,-4.81 -4.83,-7.22 -3.06,2.05 -6.03,4.25 -8.9,6.55 6.6,8.72 12.99,17.59 19.29,26.52 2.76,-1.87 5.48,-3.75 8.26,-5.61 -1.61,-2.37 -3.22,-4.74 -4.83,-7.09 2.21,-1.54 4.46,-3.03 6.71,-4.53 2.46,3.89 5.09,7.71 7.18,11.82 -4,6.79 -12.53,9.68 -18.38,14.88 -10.94,-10.62 -18.78,-24.1 -28.37,-35.96 5.24,-6.67 12.92,-10.97 20.05,-15.36zm14.14 -9.46c1.77,-1.1 5.29,-3.33 7.06,-4.46 8.26,13.46 16.21,27.07 24.1,40.75 -2.18,1.27 -4.37,2.55 -6.53,3.86 -8.09,-13.45 -16.42,-26.76 -24.63,-40.15zm21.57 -11.63c7.08,-5.06 15.06,-9.61 23.69,-11.36 1.95,4.09 3.95,8.19 6.02,12.23 -1.84,0.97 -5.5,2.88 -7.33,3.84 -1.27,-2.36 -2.49,-4.76 -3.71,-7.12 -3.1,1.44 -6.18,2.94 -9.24,4.43 1.13,2.21 2.23,4.42 3.38,6.63 7.22,1.9 14.65,3.05 21.75,5.4 3.8,4.23 6.72,10.21 7.2,15.91 -6.16,4.67 -13.54,7.64 -20.7,10.51 -2.57,-4.28 -5.01,-8.62 -7.45,-12.99 2.42,-1.18 4.83,-2.37 7.25,-3.54 1.4,2.55 2.8,5.1 4.28,7.63 2.59,-1.45 5.21,-2.9 7.86,-4.32 -1.1,-2.44 -2.25,-4.88 -3.38,-7.29 -7.47,-1.98 -15.22,-2.88 -22.54,-5.38 -2.87,-4.51 -6.53,-9.15 -7.08,-14.58zm19.27 150.64c89.52,-142.89 178.03,-286.4 266.67,-429.82 -2,11.2 -5.52,22.05 -8.28,33.07 -19.61,73.4 -39,146.86 -58.54,220.26 62.78,-23.06 125.57,-46.08 188.33,-69.23 -31.12,63.05 -62.44,126.01 -93.62,189.04 69.93,-25.83 139.77,-51.9 209.65,-77.84 -14.47,29.34 -28.35,58.98 -42.93,88.3 19.54,-6.65 39.18,-13.11 58.63,-20.08 -23.77,17.41 -47.78,34.47 -71.4,52.11 -2.94,2.21 -5.93,4.62 -7.35,8.12 -12.12,24.97 -24.61,49.78 -36.82,74.71 56.02,-21.66 112.26,-42.68 168.28,-64.32 -1.2,-32.28 20.53,-62.61 49.85,-74.89 88.14,-33.28 176.35,-66.34 264.51,-99.55 25.32,-9.98 51.3,-18.39 76.18,-29.38 1.2,-0.21 3.54,-0.6 4.71,-0.81l0 0.9c-45.04,26.07 -89.15,53.76 -133.83,80.5 -41.11,25.16 -82.8,49.42 -123.09,75.88 9.68,1.68 19.32,5.55 26.1,12.9 12.24,12.38 15.96,30.1 18.61,46.66 12.27,-27.22 24.23,-54.61 36.07,-82.02 2.69,29.09 5.18,58.22 7.59,87.33 1.01,33.71 1.36,68.83 -12.07,100.44 -12.12,29.55 -35.21,56.99 -67.03,65.52 -39.07,14.05 -78.27,27.84 -117.02,42.67 -7.31,7.94 -14.28,16.47 -23.71,22.08 -25.22,16.72 -57.85,19.36 -86.46,10.78 -17.04,19.14 -40.88,37.92 -68.18,33.16 -16.97,16.9 -41.76,29.57 -66.02,21.73 -14.64,14.31 -31.08,27.85 -50.93,34.1 -13.73,4.44 -29.09,3.36 -41.89,-3.38 -108.56,220.61 -220.59,439.5 -330.51,659.42 -0.78,0.74 -1.75,1.25 -2.64,1.82 2.64,-4.16 4.07,-8.88 5.4,-13.54 53.05,-166.69 106.51,-333.24 159.75,-499.86 -22.86,-2.83 -44.09,-14.58 -58.94,-32.1 -5.82,2.62 -11.96,4.32 -17.94,6.46 -2.64,5.36 -2.62,11.79 -4.48,17.52 -15.43,57.56 -68.92,101.29 -127.51,108.67 -40.12,4.81 -81.65,-15.1 -103.68,-48.82 -3.7,20.26 -9.31,40.45 -19.55,58.46 -15.1,27.66 -41.94,48.49 -72.54,56.17 -78.95,19.96 -157.93,39.74 -236.96,59.4 65.58,-42.59 131.23,-85.06 196.81,-127.64 6.27,-4.24 13.84,-7.8 16.99,-15.18 5.63,-12.28 6.51,-26.03 8.19,-39.28 3.15,-36.51 5.03,-73.23 3.84,-109.87 -11.68,-3.7 -23.34,-8.8 -32.22,-17.49 -19.66,-18.72 -28.95,-47.47 -24.44,-74.16 4.23,-24.72 17.45,-47.37 35.34,-64.76 27.5,-26.69 64.87,-41.5 102.58,-46.01 31.27,-3.31 64.78,3.11 89.93,22.81 16.21,12.35 26.38,31.07 31.14,50.61 10.69,-5.86 22.51,-10.27 34.86,-10.3 12.9,-0.55 25.34,4.76 35.29,12.67 9.66,-27.29 28.91,-54.47 58.16,-62.41 -0.28,-24.19 0.09,-48.44 3.47,-72.43 8.58,-2.9 17.13,-5.93 25.73,-8.78 39.76,-72.71 78.71,-145.86 117.8,-218.93 -53.11,19.98 -106.62,38.95 -159.88,58.61zm169.79 -210.36l0 0c-28.88,46.7 -57.8,93.36 -86.73,140.02 -1.86,0.99 -2.16,3.58 -3.43,5.06 48.68,-16.56 97.06,-34.11 145.44,-51.51l5.36 -1.63c-36.1,67.16 -72.02,134.42 -107.94,201.68 31.26,-21.38 67.03,-34.63 102.74,-46.42 45.12,-15.69 90.21,-31.37 135.33,-47.05 2.71,-1.06 5.52,-2.09 7.93,-3.8 16.93,-3.86 33.37,-10.25 49.12,-17.47 7.13,-13.13 14.42,-26.42 19.45,-40.52l2.42 -1.93c-9.84,1.13 -18.56,6.09 -27.85,9.08 -61.95,23.3 -124.12,45.97 -185.82,69.91 0.21,-6.93 5.04,-12.42 7.7,-18.51 28.72,-57.65 59.63,-114.22 87.91,-172.05 -3.01,0.92 -6.02,1.91 -8.97,2.99l-0.34 0.53c-52.52,19.36 -105.29,38.12 -157.51,58.27 0,-1.48 0.04,-4.44 0.06,-5.91 5.91,-27.28 15.04,-53.95 19.46,-81.47 1.49,-2.67 1.95,-5.73 2.64,-8.65 -2.73,2.81 -4.99,6.02 -6.97,9.38zm464.27 158.39l0 0c-21.41,7.5 -38.68,27.92 -39.64,50.98 -0.74,30.19 -0.26,60.41 -0.72,90.62 -9.54,-20.81 -20.6,-40.86 -32.56,-60.36 -20.58,5.73 -41.34,16.51 -51.76,36.03 -17.04,31.25 -11.06,68.55 -22.26,101.55 -3.68,3.86 -8.99,5.91 -12.37,10.16 -7.66,8.23 -10.03,20.33 -7.08,31.07 -1.38,1.56 -4.14,4.69 -5.52,6.27 -2.64,-13.42 -2.07,-27.17 -2.23,-40.79 0.41,-34.86 1.2,-69.97 7.38,-104.39 -19.02,7.17 -38.22,13.91 -57.28,20.94 -4.53,0.69 -3.33,6.01 -3.95,9.32 -21.27,-4.97 -40.48,10.39 -50.36,27.89 -22.17,37.55 -22.54,83.38 -18.31,125.55 1.54,7.8 -7.33,11.73 -11.66,16.7 -1.7,-68.99 -0.75,-138.2 6.05,-206.89 -12.55,4.67 -25.08,9.52 -37.71,14.03 31.39,-24.93 64.06,-48.29 94.95,-73.79 -63.49,21.71 -126.8,43.99 -190.19,65.97 -20.88,8.05 -41.56,17.22 -60.18,29.71 -21.43,14.72 -31.04,40.95 -34.52,65.76 -5.56,33.99 1.34,68.18 6.35,101.73 6.23,-21.89 10.26,-44.4 17.2,-66.11 3.89,-11.03 8.14,-22.39 16.01,-31.27 -13.04,43.6 -4.17,89.27 -3.36,133.76 0.14,26.93 2.41,54.5 -4.6,80.8 -6.67,19.21 -16.99,39.33 -35.53,49.37 -12.69,6.74 -27.43,1.22 -38.26,-6.53 15.41,-5.7 31.07,-10.71 46.61,-16.05 -6.67,-26.1 -8.49,-53.07 -10.88,-79.81 -3.49,-55.19 -7.01,-110.77 -0.89,-165.91 -20.31,6.58 -40.36,13.89 -60.55,20.77 -2.51,25.4 -1.36,50.98 -1.63,76.45 -12.58,-1.58 -25.64,2.19 -34.86,10.99 -20.74,18.42 -29.46,46.52 -31.3,73.45 -1.63,12.26 -0.55,25.06 -5.03,36.79 -6.86,19.48 -16.28,38.17 -28.56,54.8 -4.95,6.35 -10.3,12.81 -17.48,16.69 -2.16,0.9 -5.86,3.2 -7.47,0.3 -3.22,-4.39 -4.23,-9.91 -5.87,-15.01 28.47,-17.07 50.2,-48.13 50.62,-82 -0.51,-14.37 -4.12,-30.77 -16.75,-39.39 -11.33,-7.94 -26.67,-6.19 -38.44,-0.14 -18.74,9.61 -31.96,27.57 -39.78,46.77 -10.6,26.88 -16.08,56.52 -10.81,85.26 3.33,21.16 12.49,42.89 30.54,55.54 13.93,9.22 32.33,6.66 46.17,-1.38 26.97,-15.16 44.59,-42.47 56.73,-70.16 2.18,2.3 4.37,4.62 6.57,6.97 -4.8,11.01 -8.71,22.53 -15.19,32.77 -14.24,22.23 -35.28,41.87 -61.45,48.42 -16.9,4.69 -35.36,-1.15 -47.8,-13.13 -20.15,-18.49 -25.71,-46.95 -43.21,-67.39 -6.37,-7.66 -14.72,-13.44 -23.82,-17.3 27.02,-19.64 53.64,-43.76 63.95,-76.62 7.95,-24.9 3.47,-54.54 -14.65,-73.97 -19.25,-19.36 -47.9,-26.21 -74.46,-24.72 -23.11,1.75 -45.97,8.05 -66.45,18.88 -24.98,13.24 -46.61,34.7 -55.72,61.9 -7.52,20.54 -4.25,44.96 9.66,62.04 10.37,13.54 27.78,19.34 44.22,20.79 0.85,46.38 0.11,92.87 -5.11,139 -2.46,21.06 -7.03,45.94 -27.45,57.12 -28.84,18.63 -57.54,37.46 -86.46,55.97 -2.07,1.29 -3.84,2.99 -5.57,4.71 29.13,-7.13 58.2,-14.55 87.31,-21.87 15.16,-4.02 31,-6.69 44.68,-14.83 23.43,-12.83 39.23,-36.42 46.68,-61.65 10.67,-34.63 9.54,-71.32 8.69,-107.13 13.34,23.96 22.03,50.36 37.21,73.31 18.78,28.14 54.7,44.01 88.11,37.73 44.04,-7.63 83.93,-38.67 100.08,-80.66 5.86,-14.6 7.61,-30.38 8.97,-45.92 15.65,4.73 32.62,-2.46 43.09,-14.35 9.84,17.7 25.36,33.25 45.34,38.68 26.49,7.86 55.65,-2.79 74.9,-21.57 22.83,-22.03 33.78,-53.17 40.33,-83.5 8.28,-41.04 9.13,-83.26 6.21,-124.93 17.34,-14.65 34.72,-29.25 51.83,-44.15 0.23,33.02 -1.13,66.09 0.8,99.09 0.97,10.85 2.12,23.38 11.06,30.9 9.98,7.34 23.76,5.24 34.27,0.14 18.14,-8.85 33.13,-23.09 45.85,-38.56 6.32,6.37 15.22,10.14 24.28,8.46 17.2,-2.87 29.96,-16.12 40.93,-28.7 7.06,6.81 17.8,7.11 26.33,2.99 16.9,-7.66 29.85,-21.82 40.65,-36.54 27.6,17.18 66.83,12.6 90.33,-9.65 13.11,-12.01 18.55,-31.07 15.17,-48.32 -4.34,-24.79 -13.61,-48.35 -22.53,-71.76 -1.75,-6.05 -4.83,-13.48 -0.18,-19 8.04,3.27 15.84,7.13 23.91,10.37 0.48,37.51 -0.11,74.99 0.28,112.49 37.32,-13.7 74.73,-27.13 112.05,-40.79 7.86,-2.97 16.28,-4.6 23.55,-8.99 12.83,-7.57 22.97,-19.13 30.46,-31.87 19.14,-32.12 19.34,-71.05 17.57,-107.25 -6.92,13.13 -12.07,27.16 -18.35,40.61 -7.38,15.68 -11.06,33.87 -23.8,46.45 -0.66,-22.81 -0.64,-45.64 -0.64,-68.46 -0.16,-16.3 -0.48,-33.48 -8,-48.31 -4.19,-8.87 -13.71,-14.12 -23.37,-14.02 -18.23,-0.05 -33.96,10.83 -47,22.51 0.05,-11.11 1.01,-22.81 6.99,-32.49 5.11,-8.6 13.66,-14.19 21.69,-19.78 17.77,-12.07 35.98,-23.48 54.24,-34.81 5.27,-3.43 11.2,-6.03 15.73,-10.49 -40.56,14.42 -80.62,30.29 -121.02,45.14zm-280.38 110.37l0 0c-0.82,13.3 -2.73,26.47 -3.31,39.79 6.46,-3.68 8.74,-11.02 12.01,-17.2 7.28,-15.3 15.38,-30.17 22.26,-45.63 -10.77,7.06 -20.49,15.55 -30.96,23.04zm-120.42 193.78l0 0c0.41,11.2 0.55,22.42 0.97,33.62 -0.4,20.21 -1.38,40.43 -3.64,60.55 4.9,-9.09 9.64,-18.31 13.73,-27.78 -2.28,-14.67 -2.53,-29.53 -3.95,-44.27 1.05,-9.4 0.11,-18.88 0.43,-28.3 -2.53,2.04 -5.03,4.11 -7.54,6.18zm-82.3 234.2l0 0 -0.41 1.34c-5.91,2.87 -16.28,2.16 -17.64,10.25 -11.24,37.37 -24.24,74.28 -34.49,111.92 4.44,-6.92 8.69,-14.03 11.61,-21.73 3.82,-5.15 6.44,-11.02 9.24,-16.74 15.27,-30.72 30.52,-61.49 45.77,-92.23 -4.58,2.62 -9.23,5.15 -14.08,7.19zm-283.64 -550.33c2,-2.12 3.98,-4.21 6,-6.28 13.68,8.42 27.25,17.04 40.73,25.8 -1.89,1.84 -3.75,3.7 -5.64,5.54 -1.58,-1.19 -4.76,-3.56 -6.34,-4.73 -2.33,2.3 -4.63,4.64 -6.9,7.01 1.24,1.56 3.7,4.71 4.94,6.28 -1.24,1.45 -3.68,4.37 -4.9,5.82 -9.88,-12.72 -18.67,-26.24 -27.89,-39.44zm11.66 5.34l0 0c3.77,5.51 7.84,10.85 11.8,16.25 1.81,-1.63 3.61,-3.29 5.4,-4.92 -5.5,-4.11 -11.22,-7.98 -17.2,-11.33zm-109.59 205.68l0 0c5.84,3.22 12.12,5.52 18.28,8.03 0.6,-2.49 1.17,-4.95 1.77,-7.41 -6.69,-0.27 -13.36,-0.69 -20.05,-0.62z"/>
   <path class="fil2" d="M835.83 704.19c10.55,-4.76 21.75,-8.05 32.77,-11.59 -4.93,10.19 -16.97,17.5 -15.48,30.01 0.11,59.19 2.6,118.54 10.83,177.2 -8.71,4.32 -10.72,14.39 -16.65,21.29 -1.29,-4.07 -2.41,-8.21 -3.52,-12.3 3.09,-4.87 6.28,-9.66 9.75,-14.23 -1.63,-1.29 -3.28,-2.53 -4.92,-3.77 -10.44,16.16 -23.96,31.82 -42.33,38.97 -5.15,2.42 -10.76,0.99 -15.91,-0.48 -2.9,2.62 -5.89,5.15 -8.99,7.52 -6.92,-12.37 -9.71,-26.33 -12.67,-40.01 -11.34,27.61 -21.62,56.89 -43.1,78.59 -10.32,10.1 -24.09,18.81 -39.06,17.94 -5.09,-0.23 -8.49,-4.69 -12.38,-7.38 -3.26,3.36 -6.43,6.78 -9.51,10.3 -15.39,-18.28 -18.17,-43.67 -17.71,-66.69 2.85,-28.99 10.6,-60.04 32.22,-80.96 10.34,-10.19 26.44,-18.3 40.58,-10.83 -1.24,2.07 -2.51,4.14 -3.75,6.23 -16.55,-4.94 -30.17,9.06 -37.66,22.12 -11.8,22.84 -17.09,49.14 -15.57,74.76 2.23,15.24 4.69,32.26 16.72,43.23 3.24,-3.04 6.48,-6.1 9.68,-9.18 3.68,1.18 7.36,2.49 11.2,3.18 14.41,-1.89 24.65,-13.69 32.97,-24.59 14.46,-20.21 25.71,-42.97 32.24,-66.96 3.31,-24.6 1.84,-50.79 13.73,-73.44 6.87,-12.67 16.53,-26.17 31.36,-29.62 8.76,-2.18 16.65,2.69 23.99,6.69 0.41,-28.65 -1.55,-57.51 1.17,-86zm84.94 303.6c1.36,-8.09 12.14,-8.71 18.05,-11.59 -12.6,33.83 -28.76,67.79 -40.93,101.78 -2.92,7.7 -7.17,14.81 -11.61,21.73 10.25,-37.64 23.25,-74.55 34.49,-111.92zm-411.56 -135.69c4.02,-9.15 12.69,-15.11 21.68,-18.74 -3.74,7.57 -10.55,14.23 -10.55,23.16 1.73,58.26 4.14,116.92 -3.2,174.92 -3.91,27.18 -10.8,57.51 -34.28,74.68 -12.99,8.54 -27.62,14.58 -42.4,19.23 15.13,-11.52 34.79,-18.42 44.86,-35.48 8.6,-14.1 11.24,-30.77 13.41,-46.89 5.86,-49.6 5.84,-99.64 5.15,-149.49 0.16,-13.86 -0.44,-28.44 5.33,-41.39zm207.76 -13.96c-2.16,-3.84 0.25,-6.67 3.86,-8.02 4.21,11.56 4.23,24.3 0.25,35.96 -6.3,20.79 -19.22,39.81 -37.25,52.15 7.64,-9.29 16.74,-17.52 22.06,-28.51 7.93,-15.68 15.31,-33.78 11.08,-51.58zm-223.51 -66.38c26.93,-15.62 58.96,-23.8 90.07,-19.62 13.01,1.68 25.18,7.01 36.24,13.89 -2.58,3.8 -5.63,7.2 -8.9,10.44 10.05,12.03 16.65,27.69 13.61,43.55 -3.72,17.27 -9.45,34.59 -20.02,48.96 -11.92,16.3 -27.21,29.94 -43.95,41.16 -3.91,2.62 -7.49,5.7 -10.92,8.94 15.38,1.02 32.49,3.15 44.13,14.31 13.01,14.02 21.5,31.38 29.91,48.35 10.4,17.87 25.18,34.89 45.23,41.83 26.26,7.04 54.04,-3.56 74.09,-20.65 9.04,-6.96 15.68,-16.35 23.96,-24.1 -13.54,25.53 -37.04,45.14 -63.85,55.49 -28.33,9.25 -62.78,3.8 -83.04,-19.27 -20.21,-24.21 -28.74,-56.8 -52.75,-78.11 -8.46,-7.93 -19.52,-12.05 -30.74,-14.19 23.29,-15.98 47.53,-33.16 60.61,-59.07 10.35,-19.02 12.47,-44.04 -1.19,-62.02 3.08,-3.24 6.21,-6.44 9.4,-9.57 -8.55,-13.7 -26.03,-16.83 -40.84,-18.67 -30.65,0.46 -60.34,14.17 -82.34,35.21 -8.44,9.59 -16.74,20.03 -20.33,32.47 -2.67,8.67 -0.11,17.59 1.31,26.23 -1.84,1.96 -3.65,3.91 -5.49,5.91 -9.73,-8.21 -11.82,-22.65 -11.39,-34.74 2.95,-28.49 23.09,-52.61 47.19,-66.73zm527.66 -29.76c2.51,-2.07 5.01,-4.14 7.54,-6.18 -0.32,9.42 0.62,18.9 -0.43,28.3 -1.96,3.87 -4.19,7.61 -6.14,11.5 -0.42,-11.2 -0.56,-22.42 -0.97,-33.62zm392.41 -285.02c7.56,-5.52 16.25,-9.29 25.13,-12.16 -7.29,7.38 -16.33,13.86 -19.94,24 -2.73,9.43 -2.6,19.39 -2.85,29.14 0.07,9.56 -0.04,21.11 8.85,27.13 13.23,-11.08 25.37,-23.38 39.05,-33.89 10.37,-7.89 23.94,-13.27 36.93,-9.02 -3.63,6.69 -11.8,11.8 -10.05,20.33 1.54,32.12 2.74,64.3 4.46,96.42 0.44,7.26 3.24,14.21 7.82,19.89 3.88,-3.08 7.57,-6.42 11.11,-9.89 4.99,1.59 10.62,4.23 15.45,0.6 11.27,-7.75 16.6,-21.18 21.08,-33.6 0.56,12.67 -7.1,23.73 -14.76,33.12 -9.63,10.9 -23.11,18.23 -37.46,20.55 -7.79,0.65 -12.51,7.43 -18.44,11.64 -4.44,-9.61 -3.31,-20.31 -3.77,-30.56 -0.83,-24.58 0.18,-49.19 -0.71,-73.77 -0.09,-6.78 -1.64,-13.38 -4.03,-19.71 3.34,-3.42 6.67,-6.85 9.98,-10.3 -6.14,-8 -16.94,-3.56 -23.84,0.97 -8.79,6.44 -16.19,14.53 -24.42,21.64 -6.1,5.95 -14.81,11.68 -14.24,21.34 -0.18,35.27 -0.18,70.54 0.9,105.79 -3.61,1.55 -7.4,2.76 -10.72,4.93 -5.35,5.79 -8.69,13.2 -14.41,18.71 -0.55,-62.29 -0.6,-124.63 0.37,-186.92 -0.81,-14.37 7.19,-27.99 18.51,-36.38zm-455.88 -177.52c1.98,-3.36 4.24,-6.57 6.97,-9.38 -0.69,2.92 -1.15,5.98 -2.64,8.65 -7.25,12.21 -11.41,25.84 -16.84,38.88 -7.26,18.6 -14.99,37.05 -21.95,55.76 6.5,-2.18 12.96,-4.53 19.27,-7.26 52.22,-20.15 104.99,-38.91 157.51,-58.27 -1.73,3.19 -4.46,5.63 -7.45,7.61 -11.31,7.75 -22.42,15.82 -33.62,23.73 -4.14,2.8 -7.15,6.87 -9.29,11.36 -27.43,54.75 -56.08,108.93 -83.12,163.88 16,-5.84 31.61,-12.65 47.18,-19.54 61.7,-23.94 123.87,-46.61 185.82,-69.91 9.29,-2.99 18.01,-7.95 27.85,-9.08l-2.42 1.93c-15.45,11.15 -29.48,24.1 -44.22,36.15 -8.41,6.94 -17.04,13.68 -24.35,21.84 -2.41,1.71 -5.22,2.74 -7.93,3.8 -45.12,15.68 -90.21,31.36 -135.33,47.05 -35.71,11.79 -71.48,25.04 -102.74,46.42 35.92,-67.26 71.84,-134.52 107.94,-201.68l-5.36 1.63c1.31,-0.55 3.96,-1.68 5.29,-2.23 -7.36,-3.71 -15.29,-10.79 -23.91,-6.65 -24.49,8.62 -49.03,17.18 -73.56,25.69 -8.69,3.1 -18.1,5.22 -25.32,11.31 -8.25,5.98 -14.76,14.63 -24.51,18.33 28.93,-46.66 57.85,-93.32 86.73,-140.02zm48.52 285.3c33.05,-11.25 65.84,-23.2 98.97,-34.2 -15.96,11.2 -33.27,20.29 -49.94,30.33 -21.29,12.74 -43.55,24.47 -62.11,41.17 -11.91,10.57 -20.79,24.44 -25.06,39.82 -6.63,17.16 -4.97,35.85 -4.65,53.81 7.75,-0.83 14.83,-4.3 22.12,-6.78 25.85,-9.34 51.85,-18.19 77.54,-27.94 1.56,-25.16 1.52,-50.38 3.45,-75.52 12.14,-4.99 24.49,-9.49 36.95,-13.66 -4.09,8.3 -11.84,14.42 -15.45,22.86 -3.04,49.69 -3.89,99.55 -2.97,149.33 0.97,13.31 -1.72,28.19 6.58,39.73 3.43,-2.8 6.67,-5.81 9.77,-8.99 4.14,0.16 8.65,1.2 12.35,-1.24 8.58,-4.85 16.14,-11.61 21.87,-19.61 4.9,-6.63 0.85,-15.02 0.78,-22.42 -2.48,-33.99 -1.59,-69.88 13.68,-101.06 6.51,-12.77 16.12,-26.15 30.88,-29.53 8.31,-1.95 15.8,2.94 23.16,6 1.1,-5.63 1.77,-11.34 2.25,-17.02 10.63,-4.02 21.25,-8.11 32.08,-11.54 -4.99,8.03 -12.26,14.56 -16.4,23.09 -1.88,20.67 -2.34,41.46 -2.87,62.22 0.39,17.66 0.39,35.71 5.82,52.73 1.13,4.23 4,7.63 6.51,11.13 3.15,-3.04 6.27,-6.12 9.42,-9.2 12.72,3.91 21.3,-8.97 27.46,-18 -1.63,-7.68 -3.77,-16.74 1.7,-23.44 3.45,-5.86 11.04,-7.29 15.09,-12.32 11.06,-29.23 8,-61.44 17.08,-91.11 5.75,-18.99 21.64,-33.73 40.52,-39.29 -2,7.56 -5.36,14.97 -4.83,22.95 -3.75,4.59 -8.03,9.15 -9.15,15.17 -2.53,8.12 0.2,16.47 2.25,24.35 7.7,26.84 20.19,52.48 23.71,80.39 1.65,10.49 -2.9,20.97 -9.98,28.52 -17.78,16.81 -50.43,19.45 -68.16,1.31 6.95,-1.31 12.07,4.59 18.47,6.16 14.3,4 31.68,0.46 41.62,-11.04 7.17,-8.92 6.02,-20.95 2.43,-31.09 2.28,-2.8 4.58,-5.58 6.9,-8.37 -22.19,3.13 -46.45,0.72 -66.41,12.72 -9.01,5.13 -10.9,17.29 -4.78,25.41 -8.53,19.45 -29.13,30.86 -48.86,36.03 -4.99,2.9 -8.1,8.23 -12.37,12.05 -0.6,-1.31 -1.77,-3.96 -2.37,-5.27 3.01,-5.54 11.84,-11.47 5.91,-17.93 -10.44,9.4 -19.71,20.51 -32.49,26.88 -7.82,4.51 -16.86,5.75 -25.69,6.55 -3.06,3.7 -6.35,7.22 -9.89,10.44 -6.94,-7.75 7.71,-12.99 4.42,-21.15 -6.6,2.25 -9.87,8.94 -14.76,13.43 -16.58,16.12 -36.04,33.64 -60.57,33.91 -3.11,4.07 -6.42,8 -10.01,11.69 -5.28,-11.16 -4.59,-23.81 -5.35,-35.81 -0.39,-33.66 -0.16,-67.35 0.16,-100.99 -4.07,-1.54 -8.69,-5.43 -13.02,-2.49 -27.29,15.71 -54.47,31.65 -81.24,48.25 5.24,45.85 5.36,92.64 -3.7,138.04 -5.38,22.07 -13.08,44.58 -28.21,61.99 -11.29,11.45 -24.24,22.72 -40.29,26.47 -14.24,2.64 -30.54,1.08 -41.76,-8.86 9.61,2.07 19.57,5.8 29.43,2.81 20.58,-5.13 34.45,-23.43 43.49,-41.51 17.77,-34.53 12.32,-74.62 12.32,-111.98 -0.87,-33.02 -6.12,-66.16 -1.52,-99.13 3.34,-31.3 21.71,-59.1 44.29,-80.18 -3.61,-2.56 -6.39,-7.22 -10.99,-7.82 -23.27,6.8 -44.38,22.21 -56.2,43.64 -6.48,10.88 -9.73,23.23 -12.21,35.53 -1.36,-29.96 8.26,-64.91 36.01,-80.69 20.97,-12.55 43.62,-22.14 66.82,-29.73zm292.15 48.06l0 0c-1.38,17.75 -4.87,35.18 -9.22,52.4 15.48,-5.06 31.76,-7.29 48.04,-6.92 -11.68,-29.85 -19.66,-60.89 -28.29,-91.68 -8.25,13.8 -8.2,30.68 -10.53,46.2zm-115.87 -2.88l0 0c-12.83,5.34 -19.54,18.9 -24.14,31.23 -10.12,29.13 -10.56,61.19 -4.28,91.2 1.54,7.06 3.2,15.31 9.93,19.29 2.85,-3.11 5.75,-6.16 8.7,-9.18 4.41,1.09 9.42,3.43 13.49,0.07 8.14,-5.91 14.01,-14.71 17.89,-23.89 2.07,-23.71 -2.18,-47.55 0.12,-71.28 1.17,-9.48 0.25,-19.23 -4.42,-27.69 1.27,-1.81 2.58,-3.63 3.89,-5.42 -6.62,-2.9 -13.8,-7.48 -21.18,-4.33zm-389.99 182.47l0 0c-11.91,23.2 -12.46,50.12 -10.92,75.6 1.77,9.89 4.69,21.11 13.06,27.41 3.88,-1.97 6.51,-5.75 9.63,-8.69 6.81,3.68 15.48,4.9 21.34,-1.31 13.09,-13.57 12.05,-34.26 12.26,-51.78 -1.2,-16.77 0.99,-34.56 -6.6,-50.13 0.62,-1.36 1.88,-4.1 2.53,-5.45 -5.47,-3.5 -11.66,-7.48 -18.49,-5.96 -10.74,1.84 -17.84,11.34 -22.81,20.31z"/>
   <path class="fil3" d="M792.46 812.41c4.97,-8.97 12.07,-18.47 22.81,-20.31 6.83,-1.52 13.02,2.46 18.49,5.96 -0.65,1.35 -1.91,4.09 -2.53,5.45 7.59,15.57 5.4,33.36 6.6,50.13 -0.21,17.52 0.83,38.21 -12.26,51.78 -5.86,6.21 -14.53,4.99 -21.34,1.31 -3.12,2.94 -5.75,6.72 -9.63,8.69 -8.37,-6.3 -11.29,-17.52 -13.06,-27.41 -1.54,-25.48 -0.99,-52.4 10.92,-75.6zm146.36 183.79c4.85,-2.04 9.5,-4.57 14.08,-7.19 -15.25,30.74 -30.5,61.51 -45.77,92.23 -2.8,5.72 -5.42,11.59 -9.24,16.74 12.17,-33.99 27.92,-66.62 40.52,-100.44l0.41 -1.34zm83.27 -200.58c1.95,-3.89 4.18,-7.63 6.14,-11.5 1.42,14.74 1.67,29.6 3.95,44.27 -4.09,9.47 -8.83,18.69 -13.73,27.78 2.26,-20.12 3.24,-40.34 3.64,-60.55zm119.45 -227.4c10.47,-7.49 20.19,-15.98 30.96,-23.04 -6.88,15.46 -14.98,30.33 -22.26,45.63 -3.27,6.18 -5.55,13.52 -12.01,17.2 0.58,-13.32 2.49,-26.49 3.31,-39.79zm39.16 -94.25c14.74,-12.05 28.77,-25 44.22,-36.15 -5.03,14.1 -12.32,27.39 -19.45,40.52 -15.75,7.22 -32.19,13.61 -49.12,17.47 7.31,-8.16 15.94,-14.9 24.35,-21.84zm-186.39 -89.82c8.62,-4.14 16.55,2.94 23.91,6.65 -1.33,0.55 -3.98,1.68 -5.29,2.23 -48.38,17.4 -96.76,34.95 -145.44,51.51 1.27,-1.48 1.57,-4.07 3.43,-5.06 9.75,-3.7 16.26,-12.35 24.51,-18.33 7.22,-6.09 16.63,-8.21 25.32,-11.31 24.53,-8.51 49.07,-17.07 73.56,-25.69zm106 -56.84c2.95,-1.08 5.96,-2.07 8.97,-2.99 -28.28,57.83 -59.19,114.4 -87.91,172.05 -2.66,6.09 -7.49,11.58 -7.7,18.51 -15.57,6.89 -31.18,13.7 -47.18,19.54 27.04,-54.95 55.69,-109.13 83.12,-163.88 2.14,-4.49 5.15,-8.56 9.29,-11.36 11.2,-7.91 22.31,-15.98 33.62,-23.73 2.99,-1.98 5.72,-4.42 7.45,-7.61l0.34 -0.53zm-155.17 10.3c5.43,-13.04 9.59,-26.67 16.84,-38.88 -4.42,27.52 -13.55,54.19 -19.46,81.47 -0.02,1.47 -0.06,4.43 -0.06,5.91 -6.31,2.73 -12.77,5.08 -19.27,7.26 6.96,-18.71 14.69,-37.16 21.95,-55.76zm500.37 116.33c20.67,-7.82 41.48,-15.2 62.18,-22.95 -17.61,12.46 -37.05,22.31 -54.02,35.64 -15.38,14.12 -15.06,36.54 -14.57,55.77 13.4,-11.69 27.11,-25.27 45.43,-28.17 9.38,-1.77 20.72,0.8 25.25,10.07 7.29,14 7.22,30.4 7.57,45.83 0.18,24 -0.37,48.06 1.03,71.99 2.44,5.45 8.35,1.18 11.06,-1.7 8.19,-8.78 12.6,-20.26 17,-31.25 4.41,-13.08 10.14,-25.66 15.03,-38.56 2.17,34.31 -5.08,70.53 -27.08,97.77 -10.77,13.76 -27.09,26.13 -45.49,23.94 -10.58,-0.99 -18.37,-10.69 -18.76,-20.99 -1.86,-30.58 -0.74,-61.24 -1.4,-91.87 -0.07,-5.81 -0.83,-11.61 -2.19,-17.24 -13.33,3.86 -27.02,15.86 -25.52,30.95 0.39,34.56 1.28,69.12 1.4,103.7 12.14,5.23 25.82,0.99 38.61,2.76 -31.37,11.18 -63.08,21.57 -93.73,34.68 0.37,-63.9 -0.27,-127.83 0.76,-191.71 0.16,-8.53 -0.53,-17.31 2.23,-25.5 3.34,-11.22 11.31,-20.53 20.7,-27.25 10.6,-7.06 22.92,-10.8 34.51,-15.91zm-31.98 23.04l0 0c-11.32,8.39 -19.32,22.01 -18.51,36.38 -0.97,62.29 -0.92,124.63 -0.37,186.92 5.72,-5.51 9.06,-12.92 14.41,-18.71 3.32,-2.17 7.11,-3.38 10.72,-4.93 -1.08,-35.25 -1.08,-70.52 -0.9,-105.79 -0.57,-9.66 8.14,-15.39 14.24,-21.34 8.23,-7.11 15.63,-15.2 24.42,-21.64 6.9,-4.53 17.7,-8.97 23.84,-0.97 -3.31,3.45 -6.64,6.88 -9.98,10.3 2.39,6.33 3.94,12.93 4.03,19.71 0.89,24.58 -0.12,49.19 0.71,73.77 0.46,10.25 -0.67,20.95 3.77,30.56 5.93,-4.21 10.65,-10.99 18.44,-11.64 14.35,-2.32 27.83,-9.65 37.46,-20.55 7.66,-9.39 15.32,-20.45 14.76,-33.12 -4.48,12.42 -9.81,25.85 -21.08,33.6 -4.83,3.63 -10.46,0.99 -15.45,-0.6 -3.54,3.47 -7.23,6.81 -11.11,9.89 -4.58,-5.68 -7.38,-12.63 -7.82,-19.89 -1.72,-32.12 -2.92,-64.3 -4.46,-96.42 -1.75,-8.53 6.42,-13.64 10.05,-20.33 -12.99,-4.25 -26.56,1.13 -36.93,9.02 -13.68,10.51 -25.82,22.81 -39.05,33.89 -8.89,-6.02 -8.78,-17.57 -8.85,-27.13 0.25,-9.75 0.12,-19.71 2.85,-29.14 3.61,-10.14 12.65,-16.62 19.94,-24 -8.88,2.87 -17.57,6.64 -25.13,12.16zm-392.82 95.29c43.23,-14.71 86.04,-30.6 129.36,-45.04 -43.09,32.35 -85.56,65.51 -128.38,98.21 -13.54,10.3 -26.35,22.92 -32.12,39.32 -4.14,11.52 -4.55,24.07 -3.75,36.19 23.41,-8.78 46.98,-17.06 70.46,-25.59 0.94,-25.02 1.56,-50.09 3.03,-75.06 17.62,-7.17 35.67,-13.31 53.4,-20.23 -5.45,69.3 -7.5,139 -4.44,208.47 9.2,-5.47 17.71,-12.44 23.25,-21.73 -4.32,-29.07 -4.44,-59.03 1.4,-87.89 4.9,-21.52 13.29,-44.06 31.25,-58.06 9.64,-7.84 23.32,-9.06 34.58,-4.12 0.07,-4 0.17,-8.02 0.24,-12 15.93,-6.44 32.23,-11.87 48.28,-18.03 -3.84,39.71 -6.85,79.63 -5.22,119.58 0.78,8.85 0.81,18.21 5.04,26.28 5.45,-3.93 10.28,-8.69 14.03,-14.3 -2.37,-8.93 -2.21,-19.23 3.81,-26.72 3.45,-5.11 9.22,-7.62 14.1,-11.07 12.67,-32.81 5.86,-70.4 22.03,-102.11 8.85,-17.73 27.25,-27.51 45.34,-33.44 10.14,18.21 20.45,36.36 30.06,54.87 -5.47,-2.37 -10.74,-5.22 -16.35,-7.2 -6.03,-1.22 -11.18,4.62 -10.85,10.37 0.25,14.42 8.48,26.9 12.41,40.42 5.98,19.07 14.05,38.24 13.66,58.53 -0.71,22.05 -19.2,39.45 -39.41,45.2 -20.72,5.98 -45.37,5.13 -62.64,-9.1 -7.45,12.39 -17.41,23.25 -28.74,32.17 -7.59,5.72 -16.95,11.13 -26.81,8.9 -4.53,-0.9 -7.25,-4.99 -10.26,-8.05 -11.27,13.47 -23.87,29.18 -42.42,31.66 -9.5,1.75 -17.34,-4.64 -22.7,-11.68 -9.98,13.91 -22.56,26.01 -36.54,35.85 -10.78,7.17 -24.58,13.7 -37.55,8.51 -11.02,-6.6 -10.58,-21.09 -11.71,-32.29 -1.74,-35.43 -0.09,-70.91 -0.8,-106.37 -20.88,17.93 -41.9,35.69 -62.84,53.55 2.5,42.84 2.71,86.35 -6.37,128.52 -6.17,27.89 -16.35,56.36 -36.96,76.97 -18.3,18.57 -46.63,28.62 -72.15,20.81 -18.61,-5.27 -32.56,-20.42 -41.49,-37 1.11,-1.31 3.34,-3.93 4.46,-5.25 9.04,9.34 21.34,16.4 34.61,16.63 13.11,-0.46 24.61,-8.62 32.79,-18.37 14.05,-17.07 23.13,-38.33 24.91,-60.43 2.06,-23.71 0.98,-47.56 0.39,-71.33 -0.86,-29.97 -5.34,-59.95 -2.28,-89.94 1.38,-19.75 6.67,-39.45 17.57,-56.15 -13.68,9.52 -25.37,22.38 -32.24,37.67 -8.28,18.05 -12.19,37.64 -17.34,56.72 -4.83,-37.82 -7.4,-78.85 10.42,-113.89 9.95,-20.16 31.06,-30.31 50.33,-39.6 19.64,-9.65 40.54,-16.18 61.15,-23.36zm-14.54 12.49l0 0c-23.2,7.59 -45.85,17.18 -66.82,29.73 -27.75,15.78 -37.37,50.73 -36.01,80.69 2.48,-12.3 5.73,-24.65 12.21,-35.53 11.82,-21.43 32.93,-36.84 56.2,-43.64 4.6,0.6 7.38,5.26 10.99,7.82 -22.58,21.08 -40.95,48.88 -44.29,80.18 -4.6,32.97 0.65,66.11 1.52,99.13 0,37.36 5.45,77.45 -12.32,111.98 -9.04,18.08 -22.91,36.38 -43.49,41.51 -9.86,2.99 -19.82,-0.74 -29.43,-2.81 11.22,9.94 27.52,11.5 41.76,8.86 16.05,-3.75 29,-15.02 40.29,-26.47 15.13,-17.41 22.83,-39.92 28.21,-61.99 9.06,-45.4 8.94,-92.19 3.7,-138.04 26.77,-16.6 53.95,-32.54 81.24,-48.25 4.33,-2.94 8.95,0.95 13.02,2.49 -0.32,33.64 -0.55,67.33 -0.16,100.99 0.76,12 0.07,24.65 5.35,35.81 3.59,-3.69 6.9,-7.62 10.01,-11.69 24.53,-0.27 43.99,-17.79 60.57,-33.91 4.89,-4.49 8.16,-11.18 14.76,-13.43 3.29,8.16 -11.36,13.4 -4.42,21.15 3.54,-3.22 6.83,-6.74 9.89,-10.44 8.83,-0.8 17.87,-2.04 25.69,-6.55 12.78,-6.37 22.05,-17.48 32.49,-26.88 5.93,6.46 -2.9,12.39 -5.91,17.93 0.6,1.31 1.77,3.96 2.37,5.27 4.27,-3.82 7.38,-9.15 12.37,-12.05 19.73,-5.17 40.33,-16.58 48.86,-36.03 -6.12,-8.12 -4.23,-20.28 4.78,-25.41 19.96,-12 44.22,-9.59 66.41,-12.72 -2.32,2.79 -4.62,5.57 -6.9,8.37 3.59,10.14 4.74,22.17 -2.43,31.09 -9.94,11.5 -27.32,15.04 -41.62,11.04 -6.4,-1.57 -11.52,-7.47 -18.47,-6.16 17.73,18.14 50.38,15.5 68.16,-1.31 7.08,-7.55 11.63,-18.03 9.98,-28.52 -3.52,-27.91 -16.01,-53.55 -23.71,-80.39 -2.05,-7.88 -4.78,-16.23 -2.25,-24.35 1.12,-6.02 5.4,-10.58 9.15,-15.17 -0.53,-7.98 2.83,-15.39 4.83,-22.95 -18.88,5.56 -34.77,20.3 -40.52,39.29 -9.08,29.67 -6.02,61.88 -17.08,91.11 -4.05,5.03 -11.64,6.46 -15.09,12.32 -5.47,6.7 -3.33,15.76 -1.7,23.44 -6.16,9.03 -14.74,21.91 -27.46,18 -3.15,3.08 -6.27,6.16 -9.42,9.2 -2.51,-3.5 -5.38,-6.9 -6.51,-11.13 -5.43,-17.02 -5.43,-35.07 -5.82,-52.73 0.53,-20.76 0.99,-41.55 2.87,-62.22 4.14,-8.53 11.41,-15.06 16.4,-23.09 -10.83,3.43 -21.45,7.52 -32.08,11.54 -0.48,5.68 -1.15,11.39 -2.25,17.02 -7.36,-3.06 -14.85,-7.95 -23.16,-6 -14.76,3.38 -24.37,16.76 -30.88,29.53 -15.27,31.18 -16.16,67.07 -13.68,101.06 0.07,7.4 4.12,15.79 -0.78,22.42 -5.73,8 -13.29,14.76 -21.87,19.61 -3.7,2.44 -8.21,1.4 -12.35,1.24 -3.1,3.18 -6.34,6.19 -9.77,8.99 -8.3,-11.54 -5.61,-26.42 -6.58,-39.73 -0.92,-49.78 -0.07,-99.64 2.97,-149.33 3.61,-8.44 11.36,-14.56 15.45,-22.86 -12.46,4.17 -24.81,8.67 -36.95,13.66 -1.93,25.14 -1.89,50.36 -3.45,75.52 -25.69,9.75 -51.69,18.6 -77.54,27.94 -7.29,2.48 -14.37,5.95 -22.12,6.78 -0.32,-17.96 -1.98,-36.65 4.65,-53.81 4.27,-15.38 13.15,-29.25 25.06,-39.82 18.56,-16.7 40.82,-28.43 62.11,-41.17 16.67,-10.04 33.98,-19.13 49.94,-30.33 -33.13,11 -65.92,22.95 -98.97,34.2zm280.13 121.46l0 0c-5.45,3.22 -4.74,11.06 -0.17,14.71 12.19,10.19 31.55,8.51 43.23,-1.7 6.01,-5.79 7.22,-14.9 4.6,-22.58 -16.07,0.67 -33.71,0.41 -47.66,9.57zm12.02 -73.4c2.33,-15.52 2.28,-32.4 10.53,-46.2 8.63,30.79 16.61,61.83 28.29,91.68 -16.28,-0.37 -32.56,1.86 -48.04,6.92 4.35,-17.22 7.84,-34.65 9.22,-52.4zm3.75 41.5l0 0c8.42,-1.35 16.9,-2.2 25.39,-3.17 -6.79,-17.48 -11.25,-35.71 -17.57,-53.33 -2.28,18.88 -3.57,37.92 -7.82,56.5zm-119.62 -44.38c7.38,-3.15 14.56,1.43 21.18,4.33 -1.31,1.79 -2.62,3.61 -3.89,5.42 4.67,8.46 5.59,18.21 4.42,27.69 -2.3,23.73 1.95,47.57 -0.12,71.28 -3.88,9.18 -9.75,17.98 -17.89,23.89 -4.07,3.36 -9.08,1.02 -13.49,-0.07 -2.95,3.02 -5.85,6.07 -8.7,9.18 -6.73,-3.98 -8.39,-12.23 -9.93,-19.29 -6.28,-30.01 -5.84,-62.07 4.28,-91.2 4.6,-12.33 11.31,-25.89 24.14,-31.23zm-3.79 30.79l0 0c-7.55,18.86 -8.24,39.62 -6.95,59.65 1.34,12.74 1.84,25.94 6.83,37.92 9.29,-4.09 14.53,-13.59 18.88,-22.26 1.52,-22.83 -2.18,-45.74 -0.16,-68.57 0.53,-8.44 1.91,-18.33 -4.69,-24.93 -6.85,4.07 -10.97,11.04 -13.91,18.19zm-350.4 38.15c16.54,-6.14 33.28,-11.7 49.83,-17.77 -4.43,51.62 -2.23,103.52 1.22,155.12 2.44,26.81 3.77,53.97 10.49,80.13 -15.57,5.55 -31.09,11.18 -46.73,16.49 -0.94,-4.07 -1.88,-8.16 -2.74,-12.23 -4.89,10.3 -11.12,20.46 -20.85,26.86 -10.23,6.85 -24.81,9.15 -35.41,1.84 -6.81,-4.3 -10.72,-11.48 -15.04,-17.96 -10.67,28.05 -26.51,55.48 -51.23,73.33 -13.52,9.59 -32.72,15.47 -47.76,5.75 -18.45,-13.13 -26.52,-36.13 -28.89,-57.81 -3.49,-23.94 1.18,-48.29 9.09,-70.9 6.73,-19.29 18.76,-37.71 36.77,-48.08 10.97,-6.14 25.84,-8.71 36.42,-0.41 11.41,9.15 13.38,25.2 12.99,38.88 -2.44,31.21 -23.31,59.01 -50.13,74.16 -0.57,7.36 2.97,15.87 7.43,22.12 4.99,5.93 12.9,0.78 17.85,-2.48 14.99,-11.71 24.55,-28.79 33.29,-45.32 7.52,-16.15 15.71,-32.79 15.66,-51.01 1.29,-28.33 5.93,-59.25 26.84,-80.25 9.7,-11.2 26,-16.3 40.07,-10.76 0.37,-26.58 0.03,-53.14 0.83,-79.7zm7.57 5.31l0 0c-2.72,28.49 -0.76,57.35 -1.17,86 -7.34,-4 -15.23,-8.87 -23.99,-6.69 -14.83,3.45 -24.49,16.95 -31.36,29.62 -11.89,22.65 -10.42,48.84 -13.73,73.44 -6.53,23.99 -17.78,46.75 -32.24,66.96 -8.32,10.9 -18.56,22.7 -32.97,24.59 -3.84,-0.69 -7.52,-2 -11.2,-3.18 -3.2,3.08 -6.44,6.14 -9.68,9.18 -12.03,-10.97 -14.49,-27.99 -16.72,-43.23 -1.52,-25.62 3.77,-51.92 15.57,-74.76 7.49,-13.06 21.11,-27.06 37.66,-22.12 1.24,-2.09 2.51,-4.16 3.75,-6.23 -14.14,-7.47 -30.24,0.64 -40.58,10.83 -21.62,20.92 -29.37,51.97 -32.22,80.96 -0.46,23.02 2.32,48.41 17.71,66.69 3.08,-3.52 6.25,-6.94 9.51,-10.3 3.89,2.69 7.29,7.15 12.38,7.38 14.97,0.87 28.74,-7.84 39.06,-17.94 21.48,-21.7 31.76,-50.98 43.1,-78.59 2.96,13.68 5.75,27.64 12.67,40.01 3.1,-2.37 6.09,-4.9 8.99,-7.52 5.15,1.47 10.76,2.9 15.91,0.48 18.37,-7.15 31.89,-22.81 42.33,-38.97 1.64,1.24 3.29,2.48 4.92,3.77 -3.47,4.57 -6.66,9.36 -9.75,14.23 1.11,4.09 2.23,8.23 3.52,12.3 5.93,-6.9 7.94,-16.97 16.65,-21.29 -8.23,-58.66 -10.72,-118.01 -10.83,-177.2 -1.49,-12.51 10.55,-19.82 15.48,-30.01 -11.02,3.54 -22.22,6.83 -32.77,11.59zm-118.86 153.95l0 0c4.23,17.8 -3.15,35.9 -11.08,51.58 -5.32,10.99 -14.42,19.22 -22.06,28.51 18.03,-12.34 30.95,-31.36 37.25,-52.15 3.98,-11.66 3.96,-24.4 -0.25,-35.96 -3.61,1.35 -6.02,4.18 -3.86,8.02zm-24.19 20.63l0 0c-5.68,15.64 -7.48,32.38 -8.12,48.91 14.76,-14.92 24.42,-34.88 27.34,-55.65 0.92,-5.13 -0.18,-10.25 -2.3,-14.92 -8.78,4.05 -13.63,13.04 -16.92,21.66zm-190.12 -99.96c25.64,-11.47 54.4,-17.52 82.43,-13.24 18.81,3.19 38.04,11.24 49.6,27.11 15.46,21.66 15.8,51.55 4.42,75.1 -14.1,29.36 -40.27,50.45 -66.69,68.29 11.2,2.35 21.94,7.5 29.69,16.1 18.4,19.59 23.78,47.85 42.68,67.12 13.17,14.51 33.64,22.83 53.16,18.44 26.61,-5.7 48.77,-24.44 64.23,-46.22 8.57,-11.45 13.17,-25.11 18.69,-38.15 1.04,1.02 3.13,3.09 4.16,4.1 -2.9,31.04 -13.95,62.5 -36.61,84.69 -19.95,20.69 -47.11,34.6 -75.76,37.82 -29.73,2.95 -60.43,-11.68 -76.83,-36.67 -14.69,-22.54 -23.22,-48.31 -36.15,-71.82 -3.26,-6 -7.22,-11.63 -12.02,-16.48 2,44.31 5.08,90.43 -10.33,132.91 -9.59,27.2 -31.84,50.19 -60.08,57.69 -27.14,6.88 -54.18,14.19 -81.47,20.4 22.95,-15.89 46.7,-30.54 70.02,-45.88 17.15,-11.61 22.74,-33.16 25.31,-52.54 6.26,-48.02 6.74,-96.56 6.05,-144.89 0.12,-19.23 -1.81,-39.92 7.57,-57.46 8.18,-14.56 25.34,-19.14 39.64,-25.35 0.07,29.44 -0.21,58.85 0.32,88.28 20.31,-13.82 39.39,-31.23 49.14,-54.24 6.07,-14.31 7.7,-32.17 -1.56,-45.49 -7.45,-10.92 -22.01,-13.52 -34.33,-12.55 -21.39,2.27 -41.3,12.74 -57.42,26.65 -13.55,13.2 -25.04,33.09 -18.21,52.4 1.9,8.21 10.09,13.53 10.48,22.12 -15.22,-1.74 -31.71,-6.64 -41.3,-19.43 -13.54,-16.64 -15.38,-40.7 -7.4,-60.22 10.1,-26.79 32.93,-47 58.57,-58.59zm-9.2 12.95l0 0c-24.1,14.12 -44.24,38.24 -47.19,66.73 -0.43,12.09 1.66,26.53 11.39,34.74 1.84,-2 3.65,-3.95 5.49,-5.91 -1.42,-8.64 -3.98,-17.56 -1.31,-26.23 3.59,-12.44 11.89,-22.88 20.33,-32.47 22,-21.04 51.69,-34.75 82.34,-35.21 14.81,1.84 32.29,4.97 40.84,18.67 -3.19,3.13 -6.32,6.33 -9.4,9.57 13.66,17.98 11.54,43 1.19,62.02 -13.08,25.91 -37.32,43.09 -60.61,59.07 11.22,2.14 22.28,6.26 30.74,14.19 24.01,21.31 32.54,53.9 52.75,78.11 20.26,23.07 54.71,28.52 83.04,19.27 26.81,-10.35 50.31,-29.96 63.85,-55.49 -8.28,7.75 -14.92,17.14 -23.96,24.1 -20.05,17.09 -47.83,27.69 -74.09,20.65 -20.05,-6.94 -34.83,-23.96 -45.23,-41.83 -8.41,-16.97 -16.9,-34.33 -29.91,-48.35 -11.64,-11.16 -28.75,-13.29 -44.13,-14.31 3.43,-3.24 7.01,-6.32 10.92,-8.94 16.74,-11.22 32.03,-24.86 43.95,-41.16 10.57,-14.37 16.3,-31.69 20.02,-48.96 3.04,-15.86 -3.56,-31.52 -13.61,-43.55 3.27,-3.24 6.32,-6.64 8.9,-10.44 -11.06,-6.88 -23.23,-12.21 -36.24,-13.89 -31.11,-4.18 -63.14,4 -90.07,19.62zm15.75 80.34l0 0c-5.77,12.95 -5.17,27.53 -5.33,41.39 0.69,49.85 0.71,99.89 -5.15,149.49 -2.17,16.12 -4.81,32.79 -13.41,46.89 -10.07,17.06 -29.73,23.96 -44.86,35.48 14.78,-4.65 29.41,-10.69 42.4,-19.23 23.48,-17.17 30.37,-47.5 34.28,-74.68 7.34,-58 4.93,-116.66 3.2,-174.92 0,-8.93 6.81,-15.59 10.55,-23.16 -8.99,3.63 -17.66,9.59 -21.68,18.74zm308.98 -63.67l0 0c-5.06,3.47 -7.95,9.24 -10.35,14.72 -6.92,19.08 -8.6,40.1 -5.29,60.1 1.55,7.18 3.13,16.08 10.17,19.96 9.84,-0.18 14.21,-11.26 16.09,-19.45 4.21,-21.59 1.61,-43.76 0.44,-65.51 -0.25,-5.41 -4.37,-15.73 -11.06,-9.82z"/>
  </g>
 </g>
</svg>
