<?xml version="1.0" encoding="UTF-8"?>
<!DOCTYPE svg PUBLIC "-//W3C//DTD SVG 1.1//EN" "http://www.w3.org/Graphics/SVG/1.1/DTD/svg11.dtd">
<!-- Creator: CorelDRAW -->
<svg xmlns="http://www.w3.org/2000/svg" xml:space="preserve" width="2000px" height="1600px" version="1.1" style="shape-rendering:geometricPrecision; text-rendering:geometricPrecision; image-rendering:optimizeQuality; fill-rule:evenodd; clip-rule:evenodd"
viewBox="0 0 2000 1600"
 xmlns:xlink="http://www.w3.org/1999/xlink">
 <defs>
  <style type="text/css">
   <![CDATA[
    .fil2 {fill:#072F5B;fill-rule:nonzero}
    .fil1 {fill:#D2D2D2;fill-rule:nonzero}
    .fil3 {fill:#D90022;fill-rule:nonzero}
    .fil0 {fill:#FEFEFE;fill-rule:nonzero}
   ]]>
  </style>
 </defs>
 <g id="Capa_x0020_1">
  <metadata id="CorelCorpID_0Corel-Layer"/>
  <g id="Saint_x0020_Marys_x0020_Gaels.cdr">
   <path class="fil0" d="M973.28 979.91c5.85,-3.47 12.11,-7.2 19.17,-6.78 27.87,0.02 55.73,0.08 83.6,-0.02 -8.73,13.74 -17.43,27.48 -26.24,41.18 -3.55,-6.22 -10.19,-10.35 -17.44,-10.18 -15.85,-0.1 -31.72,-0.04 -47.59,-0.02 -6.45,-0.08 -13.85,2.04 -16.78,8.37 -4.67,11.32 -3.24,23.86 -4.06,35.79 -0.23,17.18 -0.02,34.37 -0.09,51.55 0.04,13.93 2.66,28.04 9.28,40.43 11.36,21.46 33.53,36.76 57.52,40.17 10.83,1.35 18.71,-9.91 18.78,-19.77 0.12,-22.87 0,-45.76 0.04,-68.63 -9.51,0.59 -20.51,0.93 -26.79,9.3 -7.71,-12.06 -16.93,-23.21 -23.14,-36.17 24.22,-0.38 48.43,-0.08 72.65,-0.17 5.31,-0.74 9.59,3.56 11.28,8.2 2.42,6.62 2.44,13.8 2.63,20.78 -0.02,19.69 0,39.39 0.02,59.08 0.26,6.26 -3.83,11.45 -7.14,16.36 -9.26,12.66 -20.26,24.21 -33.28,33.05 -5.59,3.87 -12.17,6.51 -19.06,6.2 -10.54,-0.2 -21.69,1.34 -31.45,-3.65 -20.02,-9.57 -36.69,-25.38 -49.17,-43.57 -10.43,-15.47 -17.7,-33.49 -18.76,-52.23 -0.27,-20.32 0.38,-40.64 -0.44,-60.95 0.34,-10.12 0.57,-21.27 7.08,-29.62 10.82,-14.98 23.71,-28.75 39.38,-38.7z"/>
   <path class="fil1" d="M650.81 205.39l286.87 0c-6.31,10.45 -12.1,21.22 -18.01,31.89 -9.63,17.81 -6.93,40.59 4.83,56.76 30.94,44.3 61.19,89.11 92.47,133.17 31.09,-44.25 61.59,-88.91 92.44,-133.32 11.68,-16.02 14.31,-38.59 4.93,-56.3 -5.86,-10.81 -12.01,-21.47 -18.02,-32.2l286.84 0c-13.21,11.13 -26.18,22.55 -39.07,34.02 -22.72,22.74 -32.48,54.92 -37.67,85.84 -2.44,15.08 -3.63,30.36 -3.88,45.64 1.02,39.2 0.11,78.43 0.59,117.63 61.51,-35.5 130.51,-58.01 201.27,-64.71 81.19,-7.69 164.72,-0.93 241.78,26.83 34.75,12.38 67.87,29.19 98.7,49.41 19.18,12.46 37.14,26.72 55.12,40.82l0 1.35c-50.76,32.51 -101.49,65.09 -152.45,97.3 0,-14.78 -1.52,-30.54 -10.6,-42.81 -6.54,-9.93 -18.01,-14.38 -28.35,-19.18 -31.45,-14.4 -65.28,-23.31 -99.62,-27 -72,-7.61 -146.46,2.13 -212.56,32.29 -32.48,14.65 -62.62,34.1 -90.67,55.96 -4.77,3.65 -2.15,10.54 -2.81,15.68 1.1,19.54 -3.2,40.39 5.7,58.72 5.49,12.1 15.55,21.21 26.11,28.9 30.77,23.63 64.64,43.56 101.25,56.68 62.41,22.3 130.68,26.21 195.83,15.4 32.5,-5.82 64.41,-16.19 93.38,-32.14 17.91,-11.19 23.06,-33.85 22.34,-53.64 50.94,32.23 101.65,64.85 152.45,97.33l0 1.31c-24.98,20 -50.63,39.37 -78.47,55.27 -61.5,35.91 -131.4,56.36 -202.2,62.43 -79.6,6.68 -161.24,-0.43 -236.65,-27.74 -60.22,-21.65 -115.8,-56.49 -160.69,-102.19 -19.54,-20.52 -32.91,-46.09 -41.65,-72.86 -22.41,20.74 -45.61,40.64 -67.91,61.51 29.42,22.72 59.45,44.78 91.32,63.96 19.1,11.45 38.81,22.24 59.91,29.6 12.13,4.44 25.1,5.12 37.79,6.76 0.35,74.19 0.02,148.38 0.15,222.56 -0.85,34.73 -12.95,68.41 -29.92,98.41 -30.66,53.58 -79.73,94.38 -133.5,123.47 -36.5,20.02 -75.73,34.37 -115.48,46.41l-14.02 0c-11.76,-4.87 -24.17,-7.86 -36.08,-12.27 -60.64,-21.29 -119.11,-52.14 -165.25,-97.52 -24.07,-23.8 -44.4,-51.6 -58.25,-82.56 -11.34,-25.61 -19.25,-53.37 -18.38,-81.59 0.17,-72.3 -0.19,-144.63 0.17,-216.93 13.15,-1.62 26.57,-2.57 39.09,-7.31 28.42,-10.18 54.41,-25.93 79.76,-42.1 24.39,-16.08 48.18,-33.13 70.95,-51.42 -22.43,-21.63 -45.76,-42.31 -68.72,-63.38 -42.64,-38.76 -85.36,-77.82 -132.85,-110.66 -51.53,-35.55 -109.6,-62.64 -171.38,-74.13 -40.95,-7.82 -83,-8.15 -124.39,-4.17 -33.09,3.43 -66.33,10.94 -95.74,26.94 -5.54,3.45 -12.18,7.35 -13.78,14.18 0.68,5.9 6.98,8.33 11.78,10.25 12.54,4.19 25.65,6.34 38.68,8.38 41.67,6.12 83.7,9.45 125.77,11.34 45.19,1.56 90.27,6.87 134.51,16.26 44.24,9.71 88.61,23.33 126.64,48.6 22.48,14.18 43.03,32.01 57.83,54.25 8.47,12.33 13.95,26.33 20.84,39.54 -26.49,45.91 -67.4,81.85 -112.13,109.41 -49.02,30.35 -104.46,49.26 -161.09,59.09 -71.62,12.35 -145.6,13.48 -216.93,-1.38 -70.86,-14.62 -139.27,-44.03 -196.16,-89.11 -15.73,-12.18 -29.3,-26.81 -43.57,-40.6l0 -1.01c51.47,-32.46 102.48,-65.67 153.95,-98.17 -1.43,7.73 -3.14,15.66 -1.67,23.52 2.49,15.38 13.05,28.33 25.89,36.61 52.71,35.07 116.22,54.02 179.57,52.67 60.52,-1.87 122.04,-15.01 174.52,-46.2 5.93,-3.94 14.25,-8.24 14.27,-16.4 -2.71,-6.62 -10.09,-9 -16.41,-10.71 -55.63,-14.26 -113.36,-16.01 -170.43,-18.97 -45.89,-2.61 -91.67,-7.81 -136.82,-16.5 -35.15,-6.91 -70.04,-15.91 -103.11,-29.78 -24.17,-10.43 -47.82,-23.31 -66.65,-41.95 -13.4,-13.06 -23.88,-29.4 -28.7,-47.57 -2,-7.23 1.24,-14.54 4.05,-21.07 10.62,-22.24 28.18,-40.11 45.96,-56.76 57.59,-51.87 130.9,-85.12 207.26,-97.3 78.7,-12.45 160.71,-9.9 237.08,13.96 39.28,12.01 76.44,29.82 112.38,49.48 0.25,-37.03 0,-74.06 0.12,-111.09 0.17,-19.92 -1.17,-39.9 -4.63,-59.53 -5.42,-29.36 -15.16,-59.71 -36.95,-81.16 -12.88,-11.55 -25.95,-22.91 -38.87,-34.4zm50.27 19.56l0 0c17.2,12.96 28.37,32.06 34.99,52.25 11.72,35.62 14.73,73.51 14.19,110.8 0.02,38.53 -0.03,77.06 0.04,115.61 32.1,20.05 63.23,41.65 93.64,64.2 0.09,-62.35 0,-124.69 0.05,-187.02 57.69,80.39 115.1,160.99 172.93,241.27 57.82,-80.28 115.19,-160.88 172.92,-241.23 -0.1,98.79 0,197.56 -0.06,296.35 0.65,37.73 10.77,75.96 32.33,107.26 11.26,16.38 26.33,29.55 41.31,42.43 56.55,47.79 126.47,78.54 199.06,91.86 69,12.48 140.35,12.27 209.23,-0.85 71.28,-13.67 138.99,-44.97 195.85,-90.06 -35.18,-22.57 -70.5,-44.87 -105.62,-67.51 -2.74,17.26 -14.65,31.89 -29.8,40.07 -32.54,17.01 -67.95,28.41 -104.23,33.95 -72.04,10.48 -147.54,4.47 -215.05,-23.86 -35.96,-14.94 -69.01,-36.21 -99.29,-60.59 -18.68,-15.28 -30,-38.97 -30.02,-63.13 -0.1,-96.37 -0.02,-192.73 -0.04,-289.1 -0.67,-39.14 1.31,-78.93 12.96,-116.57 6.6,-21.59 17.88,-42.5 36.38,-56.13 -46.22,-0.17 -92.44,0.02 -138.64,-0.07 -21.67,-0.9 -43.36,-0.25 -65.05,-0.48 11.21,18.63 13.36,42.34 5.54,62.64 -3.9,10.94 -11.14,20.15 -17.62,29.62 -33.4,48.28 -66.79,96.53 -100.15,144.82 -36.66,-53.03 -73.4,-105.98 -109.97,-159.09 -15.47,-22.81 -16.75,-54.32 -2.34,-77.97 -20.23,0.15 -40.48,-0.4 -60.7,0.46 -47.61,0.07 -95.22,-0.08 -142.84,0.07zm810.59 217.56l0 0c-74,6.38 -146.3,30.31 -209.61,69.11 0.04,35.22 -0.09,70.44 0.06,105.68 23.57,-17.47 48.25,-33.6 74.7,-46.37 42.11,-20.97 88.02,-34.02 134.73,-39.26 72.88,-7.95 149.29,-0.26 215.34,33.25 17.47,7.72 31.98,23.36 35.05,42.64 35.24,-22.47 70.46,-44.97 105.68,-67.46 -35.55,-27.95 -75.05,-50.95 -117.21,-67.3 -75.58,-29.54 -158.31,-37.18 -238.74,-30.29zm-1256.63 49.15l0 0c-32.83,18.44 -63.65,41.1 -88.77,69.3 -8.52,9.95 -16.84,20.45 -21.77,32.71 -2.87,5.76 1.13,11.64 3.14,16.97 13.29,27.59 39.73,45.82 66.52,58.83 35.36,17.2 73.76,27.12 112.17,34.75 50.14,9.57 101.06,14.53 152.03,16.47 42.13,2.38 84.31,5.47 125.96,12.54 18.97,3.47 38.17,7.35 55.83,15.42 7.86,3.9 16.84,8.94 19.27,18.05 -0.72,5.48 -4.26,10.05 -7.99,13.93 -12.69,13.3 -28.52,23.21 -45.13,30.88 -61.1,29.17 -129.62,42.19 -197.16,38.4 -57.71,-4.41 -114.49,-23.37 -162.52,-55.81 -14.61,-9.3 -29.15,-22.7 -30.92,-40.96 -35.22,22.37 -70.36,44.88 -105.54,67.3 30.42,30.57 67.39,54.03 106.17,72.57 64.83,30.69 136.62,45.34 208.18,46.22 60.34,-0.46 121.07,-7.75 178.76,-25.94 54.88,-17.3 107.34,-45.17 148.21,-86.18 13.93,-14.42 27.02,-30.08 36.15,-48.04 -4.34,-9.28 -7.89,-18.97 -13.47,-27.63 -17.56,-29.05 -46.14,-49.56 -76.22,-64.18 -37.11,-17.77 -77.33,-28.06 -117.75,-35.01 -38.93,-6.62 -78.35,-10.14 -117.81,-11.6 -44.57,-2.14 -89.19,-5.64 -133.1,-13.65 -18.17,-3.69 -36.72,-7.53 -53.24,-16.3 -6.3,-3.66 -13.57,-9.02 -13.81,-16.99 4.11,-12.13 14.82,-20.25 25.36,-26.62 33.51,-21.54 73.1,-31.34 112.32,-35.49 41.73,-4.17 84.08,-4.09 125.45,3.14 61,10.31 118.88,35.28 170.62,68.84 48.52,31.49 91.94,69.98 134.65,108.76 28.83,26.09 57.54,52.31 86.05,78.76 22.11,-18.48 44.05,-37.17 65.93,-55.91 -38.71,-35.35 -74.95,-73.33 -114.97,-107.24 -49.74,-42.47 -102.35,-81.81 -158.67,-115.15 -55.88,-33.3 -117.42,-58.19 -182.05,-67.47 -33.24,-5.14 -66.98,-5.71 -100.53,-4.57 -66.38,2.91 -133.04,18.31 -191.35,50.9zm608.11 -50.95l0 0c-0.36,47.26 -0.03,94.52 -0.17,141.77 28.28,22.85 55.96,46.48 82.35,71.5 23.24,22.61 46.72,44.97 70.33,67.17 53.37,-44.64 101.45,-95.23 154.98,-139.7 0.26,-46.82 0.13,-93.67 0.08,-140.52 -51.74,70.96 -101.92,143.05 -153.88,213.81 -51.64,-71.04 -102.31,-142.8 -153.69,-214.03zm200.71 264.13l0 0c-29.71,26.17 -59.45,52.33 -89.32,78.3 -22.34,19.75 -45.59,38.44 -69.58,56.15 -31.51,23.14 -64.05,45.14 -99.02,62.76 -17.81,8.65 -36.38,16.51 -56.19,18.98 0.15,69.65 -0.11,139.29 0.13,208.93 4.17,54.41 33.3,104.48 71.95,141.94 31.51,31.19 69.77,54.86 109.88,73.32 27.49,12.31 55.85,23.06 85.03,30.5 34.88,-9.33 68.83,-22.4 101.12,-38.59 52.11,-26.35 100.4,-63.46 131.89,-113.31 18.52,-29.85 31.74,-63.95 32.77,-99.38 0.13,-67.78 -0.08,-135.55 0.11,-203.31 -32.46,-4.7 -61.51,-21.22 -89.37,-37.58 -33.58,-20.44 -65.45,-43.55 -96.28,-67.91 -21.84,18.36 -43.59,36.84 -65.41,55.24 37.27,29.72 75.57,58.39 116.79,82.46 15.18,8.55 30.65,17.15 47.59,21.68 0.09,44.75 0,89.48 0.05,134.22 -0.3,25.45 -9.76,50.21 -24.12,71.01 -14.12,20.41 -32.5,37.56 -52.37,52.28 -31.36,22.93 -66.42,40.49 -102.88,53.72 -32.08,-11.4 -62.87,-26.54 -91.31,-45.27 -24.24,-16.34 -47,-35.66 -63.88,-59.72 -15.33,-21.53 -24.98,-47.52 -25.1,-74.1 0.06,-44.05 -0.03,-88.1 0.06,-132.14 31.49,-9.33 59.1,-28.05 86.46,-45.71 31.97,-21.48 62.53,-45 92.5,-69.16 54.19,-45.36 108.11,-91.16 159.45,-139.72 -0.67,-10.49 -3.31,-20.97 -3.41,-31.61 -0.4,-27.47 0.02,-54.95 -0.19,-82.4 -36.91,31.54 -71.72,65.47 -107.35,98.42zm-135.1 243.65l0 0c-23.4,15.24 -47.36,30.08 -73.37,40.55 0.04,38.78 -0.08,77.54 0.06,116.3 0.09,17.92 4.81,35.69 13.34,51.43 12.73,23.53 32.21,42.66 53.44,58.58 28.77,21.31 60.97,37.7 94.36,50.44 38.06,-14.82 74.93,-33.92 106.29,-60.31 22.99,-19.7 43.36,-44.45 50.88,-74.34 4.34,-15.87 3.01,-32.43 3.2,-48.68 0,-31.14 0,-62.29 0,-93.42 -29.27,-12.12 -56.12,-29.25 -82.26,-46.96 -26.83,-18.36 -52.69,-38.11 -78.05,-58.43 -28.33,22.87 -57.54,44.69 -87.89,64.84z"/>
   <path class="fil2" d="M701.08 224.95c47.62,-0.15 95.23,0 142.84,-0.07 20.22,-0.86 40.47,-0.31 60.7,-0.46 -14.41,23.65 -13.13,55.16 2.34,77.97 36.57,53.11 73.31,106.06 109.97,159.09 33.36,-48.29 66.75,-96.54 100.15,-144.82 6.48,-9.47 13.72,-18.68 17.62,-29.62 7.82,-20.3 5.67,-44.01 -5.54,-62.64 21.69,0.23 43.38,-0.42 65.05,0.48 46.2,0.09 92.42,-0.1 138.64,0.07 -18.5,13.63 -29.78,34.54 -36.38,56.13 -11.65,37.64 -13.63,77.43 -12.96,116.57 0.02,96.37 -0.06,192.73 0.04,289.1 0.02,24.16 11.34,47.85 30.02,63.13 30.28,24.38 63.33,45.65 99.29,60.59 67.51,28.33 143.01,34.34 215.05,23.86 36.28,-5.54 71.69,-16.94 104.23,-33.95 15.15,-8.18 27.06,-22.81 29.8,-40.07 35.12,22.64 70.44,44.94 105.62,67.51 -56.86,45.09 -124.57,76.39 -195.85,90.06 -68.88,13.12 -140.23,13.33 -209.23,0.85 -72.59,-13.32 -142.51,-44.07 -199.06,-91.86 -14.98,-12.88 -30.05,-26.05 -41.31,-42.43 -21.56,-31.3 -31.68,-69.53 -32.33,-107.26 0.06,-98.79 -0.04,-197.56 0.06,-296.35 -57.73,80.35 -115.1,160.95 -172.92,241.23 -57.83,-80.28 -115.24,-160.88 -172.93,-241.27 -0.05,62.33 0.04,124.67 -0.05,187.02 -30.41,-22.55 -61.54,-44.15 -93.64,-64.2 -0.07,-38.55 -0.02,-77.08 -0.04,-115.61 0.54,-37.29 -2.47,-75.18 -14.19,-110.8 -6.62,-20.19 -17.79,-39.29 -34.99,-52.25zm362.78 479.89c35.63,-32.95 70.44,-66.88 107.35,-98.42 0.21,27.45 -0.21,54.93 0.19,82.4 0.1,10.64 2.74,21.12 3.41,31.61 -51.34,48.56 -105.26,94.36 -159.45,139.72 -29.97,24.16 -60.53,47.68 -92.5,69.16 -27.36,17.66 -54.97,36.38 -86.46,45.71 -0.09,44.04 0,88.09 -0.06,132.14 0.12,26.58 9.77,52.57 25.1,74.1 16.88,24.06 39.64,43.38 63.88,59.72 28.44,18.73 59.23,33.87 91.31,45.27 36.46,-13.23 71.52,-30.79 102.88,-53.72 19.87,-14.72 38.25,-31.87 52.37,-52.28 14.36,-20.8 23.82,-45.56 24.12,-71.01 -0.05,-44.74 0.04,-89.47 -0.05,-134.22 -16.94,-4.53 -32.41,-13.13 -47.59,-21.68 -41.22,-24.07 -79.52,-52.74 -116.79,-82.46 21.82,-18.4 43.57,-36.88 65.41,-55.24 30.83,24.36 62.7,47.47 96.28,67.91 27.86,16.36 56.91,32.88 89.37,37.58 -0.19,67.76 0.02,135.53 -0.11,203.31 -1.03,35.43 -14.25,69.53 -32.77,99.38 -31.49,49.85 -79.78,86.96 -131.89,113.31 -32.29,16.19 -66.24,29.26 -101.12,38.59 -29.18,-7.44 -57.54,-18.19 -85.03,-30.5 -40.11,-18.46 -78.37,-42.13 -109.88,-73.32 -38.65,-37.46 -67.78,-87.53 -71.95,-141.94 -0.24,-69.64 0.02,-139.28 -0.13,-208.93 19.81,-2.47 38.38,-10.33 56.19,-18.98 34.97,-17.62 67.51,-39.62 99.02,-62.76 23.99,-17.71 47.24,-36.4 69.58,-56.15 29.87,-25.97 59.61,-52.13 89.32,-78.3zm-808.82 -213.18c58.31,-32.59 124.97,-47.99 191.35,-50.9 33.55,-1.14 67.29,-0.57 100.53,4.57 64.63,9.28 126.17,34.17 182.05,67.47 56.32,33.34 108.93,72.68 158.67,115.15 40.02,33.91 76.26,71.89 114.97,107.24 -21.88,18.74 -43.82,37.43 -65.93,55.91 -28.51,-26.45 -57.22,-52.67 -86.05,-78.76 -42.71,-38.78 -86.13,-77.27 -134.65,-108.76 -51.74,-33.56 -109.62,-58.53 -170.62,-68.84 -41.37,-7.23 -83.72,-7.31 -125.45,-3.14 -39.22,4.15 -78.81,13.95 -112.32,35.49 -10.54,6.37 -21.25,14.49 -25.36,26.62 0.24,7.97 7.51,13.33 13.81,16.99 16.52,8.77 35.07,12.61 53.24,16.3 43.91,8.01 88.53,11.51 133.1,13.65 39.46,1.46 78.88,4.98 117.81,11.6 40.42,6.95 80.64,17.24 117.75,35.01 30.08,14.62 58.66,35.13 76.22,64.18 5.58,8.66 9.13,18.35 13.47,27.63 -9.13,17.96 -22.22,33.62 -36.15,48.04 -40.87,41.01 -93.33,68.88 -148.21,86.18 -57.69,18.19 -118.42,25.48 -178.76,25.94 -71.56,-0.88 -143.35,-15.53 -208.18,-46.22 -38.78,-18.54 -75.75,-42 -106.17,-72.57 35.18,-22.42 70.32,-44.93 105.54,-67.3 1.77,18.26 16.31,31.66 30.92,40.96 48.03,32.44 104.81,51.4 162.52,55.81 67.54,3.79 136.06,-9.23 197.16,-38.4 16.61,-7.67 32.44,-17.58 45.13,-30.88 3.73,-3.88 7.27,-8.45 7.99,-13.93 -2.43,-9.11 -11.41,-14.15 -19.27,-18.05 -17.66,-8.07 -36.86,-11.95 -55.83,-15.42 -41.65,-7.07 -83.83,-10.16 -125.96,-12.54 -50.97,-1.94 -101.89,-6.9 -152.03,-16.47 -38.41,-7.63 -76.81,-17.55 -112.17,-34.75 -26.79,-13.01 -53.23,-31.24 -66.52,-58.83 -2.01,-5.33 -6.01,-11.21 -3.14,-16.97 4.93,-12.26 13.25,-22.76 21.77,-32.71 25.12,-28.2 55.94,-50.86 88.77,-69.3zm1256.63 -49.15c80.43,-6.89 163.16,0.75 238.74,30.29 42.16,16.35 81.66,39.35 117.21,67.3 -35.22,22.49 -70.44,44.99 -105.68,67.46 -3.07,-19.28 -17.58,-34.92 -35.05,-42.64 -66.05,-33.51 -142.46,-41.2 -215.34,-33.25 -46.71,5.24 -92.62,18.29 -134.73,39.26 -26.45,12.77 -51.13,28.9 -74.7,46.37 -0.15,-35.24 -0.02,-70.46 -0.06,-105.68 63.31,-38.8 135.61,-62.73 209.61,-69.11z"/>
   <path class="fil3" d="M928.76 948.49c30.35,-20.15 59.56,-41.97 87.89,-64.84 25.36,20.32 51.22,40.07 78.05,58.43 26.14,17.71 52.99,34.84 82.26,46.96 0,31.13 0,62.28 0,93.42 -0.19,16.25 1.14,32.81 -3.2,48.68 -7.52,29.89 -27.89,54.64 -50.88,74.34 -31.36,26.39 -68.23,45.49 -106.29,60.31 -33.39,-12.74 -65.59,-29.13 -94.36,-50.44 -21.23,-15.92 -40.71,-35.05 -53.44,-58.58 -8.53,-15.74 -13.25,-33.51 -13.34,-51.43 -0.14,-38.76 -0.02,-77.52 -0.06,-116.3 26.01,-10.47 49.97,-25.31 73.37,-40.55zm44.52 31.42l0 0c-15.67,9.95 -28.56,23.72 -39.38,38.7 -6.51,8.35 -6.74,19.5 -7.08,29.62 0.82,20.31 0.17,40.63 0.44,60.95 1.06,18.74 8.33,36.76 18.76,52.23 12.48,18.19 29.15,34 49.17,43.57 9.76,4.99 20.91,3.45 31.45,3.65 6.89,0.31 13.47,-2.33 19.06,-6.2 13.02,-8.84 24.02,-20.39 33.28,-33.05 3.31,-4.91 7.4,-10.1 7.14,-16.36 -0.02,-19.69 -0.04,-39.39 -0.02,-59.08 -0.19,-6.98 -0.21,-14.16 -2.63,-20.78 -1.69,-4.64 -5.97,-8.94 -11.28,-8.2 -24.22,0.09 -48.43,-0.21 -72.65,0.17 6.21,12.96 15.43,24.11 23.14,36.17 6.28,-8.37 17.28,-8.71 26.79,-9.3 -0.04,22.87 0.08,45.76 -0.04,68.63 -0.07,9.86 -7.95,21.12 -18.78,19.77 -23.99,-3.41 -46.16,-18.71 -57.52,-40.17 -6.62,-12.39 -9.24,-26.5 -9.28,-40.43 0.07,-17.18 -0.14,-34.37 0.09,-51.55 0.82,-11.93 -0.61,-24.47 4.06,-35.79 2.93,-6.33 10.33,-8.45 16.78,-8.37 15.87,-0.02 31.74,-0.08 47.59,0.02 7.25,-0.17 13.89,3.96 17.44,10.18 8.81,-13.7 17.51,-27.44 26.24,-41.18 -27.87,0.1 -55.73,0.04 -83.6,0.02 -7.06,-0.42 -13.32,3.31 -19.17,6.78z"/>
  </g>
 </g>
</svg>
