<?xml version="1.0" encoding="UTF-8"?>
<!DOCTYPE svg PUBLIC "-//W3C//DTD SVG 1.1//EN" "http://www.w3.org/Graphics/SVG/1.1/DTD/svg11.dtd">
<!-- Creator: CorelDRAW -->
<svg xmlns="http://www.w3.org/2000/svg" xml:space="preserve" width="2000px" height="1600px" version="1.1" style="shape-rendering:geometricPrecision; text-rendering:geometricPrecision; image-rendering:optimizeQuality; fill-rule:evenodd; clip-rule:evenodd"
viewBox="0 0 2000 1600"
 xmlns:xlink="http://www.w3.org/1999/xlink">
 <defs>
  <style type="text/css">
   <![CDATA[
    .fil2 {fill:#0054A4;fill-rule:nonzero}
    .fil1 {fill:#D9D1CD;fill-rule:nonzero}
    .fil3 {fill:#F78F1E;fill-rule:nonzero}
    .fil0 {fill:#FEFEFE;fill-rule:nonzero}
   ]]>
  </style>
 </defs>
 <g id="Capa_x0020_1">
  <metadata id="CorelCorpID_0Corel-Layer"/>
  <g id="Sam_x0020_Houston_x0020_State_x0020_Bearkats.cdr">
   <path class="fil0" d="M688.11 643.27c7.78,-14.1 15.75,-29.35 30.18,-37.69 0.22,11.29 0.16,22.92 4.29,33.62 4.44,12.48 13.58,22.35 21.44,32.73 7.66,10.7 21.37,13.51 33.26,16.98 12.96,3.87 28.14,2.29 38.81,11.96 12.98,9.23 20,24.57 32.98,33.65 3.07,7.33 7.64,14.28 8.83,22.28 0.73,13.9 -7.29,26.17 -14.75,37.21 -7.49,11.7 -20.64,17.65 -32.59,23.7 -9.1,3.98 -17.99,8.62 -27.54,11.39 -6.77,0.64 -13.31,-1.88 -19.89,-3.02 -6.15,-1.33 -12.36,-2.38 -18.54,-3.54 -7.88,-2.77 -12.34,-10.77 -18.51,-16 -14.54,-13.26 -25.9,-29.4 -37.72,-45.01 -9.94,-29.48 -8.82,-61.1 -9.3,-91.79 -0.77,-9.76 4.94,-18.13 9.05,-26.47zm195.14 284.91c-1.76,-10.47 -2.02,-21.28 0.18,-31.7 -0.32,10.56 -0.82,21.14 -0.18,31.7zm-721.83 -75.2c4.13,2.01 8.43,3.82 12.25,6.43 -0.32,2.53 -0.73,5.07 -1.24,7.61 27.2,12.98 55,24.71 82.31,37.48 8.71,-4.52 16.14,-11.52 25.4,-14.92 5.14,1.03 9.92,3.36 14.72,5.42 83.49,37.41 172.59,62.78 263.61,72.73 76.5,8.18 154.17,6.12 230.01,-6.82 3.22,33.28 12.48,66.73 32.41,94.06 8.16,12.96 21.12,21.47 33.05,30.56 10.56,8.03 24,10.58 34.97,17.92 5.54,3.66 12.12,4.98 18.36,6.95 8.18,2.36 14.03,8.87 20.23,14.29 0.25,91.27 0.5,182.53 -0.12,273.8 -11.66,3.16 -23.29,6.33 -34.83,9.74 -0.3,33.05 -1.01,66.17 0.36,99.2 3.18,0.18 6.36,0.41 9.56,0.64 -0.09,3.95 -0.19,7.93 -0.25,11.93l-740.8 0 0 -667.02zm1374.28 -164.41c85.56,0.07 171.09,-0.14 256.62,0.12 -0.09,11.77 -0.02,23.56 -0.09,35.33 -9.88,2.88 -20.5,5.17 -28.53,12.03 -6.31,5.76 -6.74,14.95 -6.9,22.9 0.07,209.51 0.05,418.99 0.02,628.5 0.46,11.34 -1.94,24.14 4.87,34.08 7.7,8.78 19.89,10.9 30.54,14.15 0.07,11.91 0.07,23.84 -0.02,35.77 -85.49,-0.07 -171,0 -256.51,-0.02 0,-11.91 0.03,-23.82 -0.02,-35.7 9.44,-2.79 19.59,-4.76 27.5,-10.97 6.44,-4.99 7.97,-13.63 7.97,-21.28 0.03,-88.55 -0.09,-177.1 0.05,-265.65 -140.59,-0.28 -281.19,-0.07 -421.81,-0.09 0,87.04 0.05,174.1 -0.02,261.14 0.23,8.46 0.48,18.15 6.72,24.62 7.91,7.2 18.81,9.23 28.78,12.16 -0.05,11.91 -0.02,23.84 -0.02,35.77 -85.33,0 -170.66,-0.02 -255.98,0 -0.02,-11.91 -0.02,-23.84 0,-35.75 14.21,-3.86 35.04,-8.96 34.67,-27.52 0.44,-90.97 -0.07,-181.96 0.23,-272.96 7.27,2.4 13.72,6.56 19.89,10.97 0.11,84.23 -0.03,168.48 0.07,252.71 0.09,12.32 -1.67,25.58 -9.79,35.38 -6.85,8.46 -17.57,11.87 -26.97,16.6 36,1.32 72.07,0.2 108.09,0.57 37.03,-0.21 74.08,0.41 111.09,-0.32 -9.4,-5.17 -20.44,-8.57 -27.06,-17.53 -7.78,-9.74 -9.45,-22.63 -9.17,-34.68 0.14,-91.61 0.07,-183.24 0.05,-274.85 3.54,-2.24 6.94,-4.8 10.92,-6.24 150.08,-0.21 300.14,-0.03 450.22,-0.09 0.07,92.93 -0.02,185.87 0.04,278.81 -0.09,12.84 -1.09,26.9 -9.66,37.23 -6.7,8.82 -17.63,12.28 -27,17.4 56.02,0.64 112.07,0.09 168.12,0.27 17.07,-0.25 34.17,0.59 51.24,-0.57 -10.95,-5.17 -23.45,-9.69 -29.94,-20.69 -7.7,-12.04 -6.58,-26.9 -6.52,-40.57 0.05,-211.75 0.03,-423.52 0.03,-635.29 0.09,-11.13 3.33,-22.74 11.27,-30.88 6.92,-6.93 16.43,-10.13 24.96,-14.61 -16.21,-1.73 -32.53,-0.45 -48.76,-0.82 -56.84,0.3 -113.69,-0.62 -170.49,0.46 9.39,5.16 20.55,8.41 27.34,17.28 8.32,10.63 9.37,24.66 9.41,37.64 -0.06,82.68 0,165.35 -0.04,248.03 -103.75,0.02 -207.5,0.02 -311.25,0 6.72,-7.04 15.07,-12.28 21.74,-19.39 89.85,-0.09 179.7,0.03 269.55,-0.04 -0.02,-78.49 -0.02,-156.96 0,-235.45 -0.04,-7.66 -1.25,-16.37 -7.58,-21.54 -7.98,-6.35 -18.31,-8.22 -27.89,-10.78 0.05,-11.89 0.02,-23.75 0.02,-35.64zm-694.83 -23.45c7.31,1.07 14.26,3.73 20.91,6.88 -0.59,8.11 -1.76,16.18 -3.56,24.14 -6.36,-3.52 -12.32,-8.21 -16.48,-14.17 -0.19,-5.63 -0.03,-11.27 -0.87,-16.85zm292.14 -19.38c14.62,-1.26 29.66,-1.44 43.49,-6.95 0.69,0.11 2.06,0.34 2.75,0.46 5.6,9.44 7.56,20.43 9.64,31.06 3.13,16.75 9.03,32.82 12.41,49.51 -5.39,-8.76 -13.09,-15.64 -19.63,-23.45 -4.48,-5.63 -12.39,-7.04 -16.44,-13.1 -6.19,-8.28 -11.95,-17.05 -19.79,-23.93 -4.55,-4.19 -10.67,-7.27 -12.43,-13.6zm-922.95 189.67c32.93,-68.05 66.58,-135.73 99.45,-203.78 10.79,4.46 21.6,8.94 32.39,13.4 0.18,10.03 -0.94,20.71 3.79,29.96 7.75,15.98 23.04,26.27 37.6,35.48 32.55,19.38 68.78,31.59 105.12,41.67 52.43,14.49 106.74,22.79 161.21,22.24 2.91,6.49 5.78,13 8.71,19.5 -13.21,-0.55 -26.44,0.25 -39.63,-0.42 -57.63,-2.76 -114.56,-14.74 -169.33,-32.64 -31.89,-10.83 -63.59,-23.7 -91.02,-43.59 -13.21,-9.53 -25.16,-21.66 -31.63,-36.84 -3.52,-7.91 -2.95,-16.96 -6.72,-24.78 -27.38,54.17 -53.23,109.1 -80.46,163.34 -1.3,2.65 -2.24,5.51 -2.35,8.5 11.08,-1.96 19.75,-12.75 31.84,-10.72 16.13,3.22 31.02,10.79 46.15,17.01 87.86,38.44 182.26,62.65 278.12,68.09 68.39,3.59 137.4,-0.71 204.32,-15.64 -1.28,7.07 -2.95,14.06 -4.84,21.01 -66.95,13.78 -135.73,18.4 -203.91,14.13 -90.33,-5.72 -179.41,-27.36 -263.02,-61.81 -17.78,-7.2 -35.11,-15.54 -53.23,-21.85 -11.71,-4.96 -20.64,6.99 -30.22,11.61 -11.25,-3.36 -21.49,-9.48 -32.34,-13.87zm610.1 -229.33c2.97,1.51 2.95,3.04 -0.09,4.6 -3,-1.51 -2.97,-3.04 0.09,-4.6zm-60.16 -6.83c7.79,1.76 15.68,3.13 23.54,4.57 4.83,5.48 10.61,10.01 16.6,14.17 1.05,3.82 2.1,7.63 3.1,11.47 -10.14,-3.93 -20.91,-5.76 -31.52,-7.84 -7.58,-4.36 -8.66,-14.83 -11.72,-22.37zm304.71 -20.03c2.76,-1.39 6.69,2.75 5.26,5.49 -2.93,1.9 -7.04,-2.7 -5.26,-5.49zm-182.74 -115.65c0.29,-0.76 0.86,-2.27 1.14,-3.02 28.18,10.95 56,24.04 79.56,43.24 23.02,18.66 41.65,42.52 54.86,68.99 -6.65,1.23 -13.32,2.42 -20,3.54 -8.75,-16.71 -20.94,-31.15 -33.3,-45.23 -1.3,-4.53 -1.49,-9.44 -3.8,-13.63 -3.01,-3.77 -7.22,-6.37 -10.33,-10.1 -3.72,-4.87 -5.89,-10.72 -9.8,-15.47 -4.6,-5.06 -11.62,-6.5 -17.99,-7.8 -8.39,-1.53 -14.72,-7.93 -22.47,-11.11 -5.81,-3.36 -13.35,-4.29 -17.87,-9.41zm-3.36 -47.87c7.79,3 15.4,6.61 22.08,11.64 -7.75,-2.29 -19.43,-2.27 -22.08,-11.64zm-10.7 -13.32c2.85,0.87 5.74,1.76 8.62,2.65 -1.22,2.26 -2.43,4.55 -3.62,6.81 -1.66,-3.15 -3.36,-6.31 -5,-9.46zm-473.51 -247.27c73.16,-31.89 154.22,-40.12 233.32,-39.13 52.44,0.59 104.97,6.14 156.05,18.21 47.27,11.32 93.46,26.77 139.06,43.52 18.13,6.61 36.07,13.95 54.75,18.93 13.35,3.79 24.91,-6.33 34.99,-13.55 10.63,5.18 21.21,10.49 31.77,15.86 -36.68,65.14 -73.37,130.28 -110.08,195.45 -10.26,-5.65 -21.62,-9.49 -30.99,-16.62 -0.41,-7.93 2.33,-16.96 -3.29,-23.68 -10.04,-13.16 -25.19,-20.91 -39,-29.46 -88.39,-51.7 -194.24,-67.29 -295.2,-57.49 -39.08,4.6 -81.14,11.98 -111.06,39.75 -13.85,12.39 -24.55,30.45 -21.92,49.65 1.21,14.67 11.84,26.67 24.32,33.51 21.42,12.09 46.42,14.15 70.29,17.64 78.85,10.65 158.6,13.37 237.37,24.78l1.14 0.78c2.17,6.26 -3.79,12.36 -5.49,18.33 -88.16,-12.18 -177.48,-14.49 -265.39,-28.85 -22.47,-3.75 -45.3,-11.2 -62.65,-26.53 -14.31,-12.64 -21.37,-32.35 -19.32,-51.23 1.76,-21.35 14.52,-40.13 30.15,-54.05 20.35,-18.08 45.99,-29.28 72.39,-35.2 43.36,-10.02 88.23,-12.55 132.59,-10.43 78.15,3.39 156.39,23.29 223.98,63.32 16.69,10.01 34.47,20.18 45.44,36.82 4.67,6.49 5.08,14.61 6.84,22.13 0.77,-0.3 2.33,-0.94 3.11,-1.26 24.98,-43.8 49.53,-87.89 74.35,-131.82 5.28,-9.62 11.45,-18.86 15.34,-29.19 -8.07,2.75 -15.27,7.5 -23.32,10.27 -7.52,2.6 -15.7,1.66 -23.2,-0.48 -23.27,-6.66 -45.64,-15.89 -68.41,-24.03 -39.24,-14.08 -78.95,-27.01 -119.47,-36.96 -55.18,-13.44 -112.09,-18.4 -168.78,-18.72 -56.94,0.53 -114.4,5.56 -169.17,21.97 -57.14,17.03 -112.52,48.09 -147.63,97.46 -30.08,41.49 -39.29,95.36 -31.86,145.42 4.45,30.35 17.37,59.27 36.66,83.08 19.75,25.1 46.51,44.14 75.82,56.53 32.84,14.7 67.81,24.53 103.49,29.19 67.55,9.62 135.68,14.1 203.57,20.73 -3.11,8.46 -13.74,9.99 -17.6,18.08 -56.62,-5.28 -113.37,-9.53 -169.78,-16.75 -30.95,-3.82 -61.9,-9.08 -91.43,-19.3 -28.55,-9.98 -57.05,-21.55 -81.42,-39.81 -38.58,-28.55 -67.13,-71.02 -76.8,-118.22 -10.03,-48.94 -4.09,-101.6 18.88,-146.19 26.83,-51.64 75.02,-89.35 127.59,-112.46zm686.01 210.01c13.26,1.65 26.45,5.97 36.69,14.86 0.98,1.09 2.03,2.15 3.13,3.13 3.75,2.88 8,5 12.32,6.88 5.67,8.5 9.6,18.08 15.91,26.15 5.71,7.38 15.65,10.24 20.48,18.47 12.02,18.44 18.85,39.58 26.42,60.09 3.5,8.64 4.57,17.92 5.3,27.15 0.03,1.03 0.09,3.11 0.12,4.16 -0.69,25.69 -11.2,51.89 -31.93,67.86 -7.98,7.09 -18.34,10.18 -28.48,12.67 -11.66,-2.61 -22.79,-7.57 -31.62,-15.73 -7.38,-7.08 -18.12,-10.26 -23.54,-19.31 -11.47,-17.6 -18.97,-37.42 -25.53,-57.26 -4.05,-12.23 -0.41,-25.26 4.14,-36.78 5.21,-15.17 15.54,-27.63 22.74,-41.78 3.79,-7.31 11.22,-11.88 15.15,-19.02 3.59,-10.49 -1.25,-21.37 -6.51,-30.33 -4.09,-7.63 -9.53,-14.38 -14.79,-21.21zm43.59 59.54l0 0c-0.34,5.81 -0.5,11.68 -1.69,17.42 -1.4,-0.21 -4.18,-0.59 -5.6,-0.8 -0.98,8.02 -2.13,16.05 -4.6,23.77 -4.16,6.38 -8.04,13.03 -10.49,20.25 -8.91,13.95 -15.56,30.97 -11.4,47.68 3.59,16.41 15.93,33.17 33.67,35.02 16.93,0.96 29.98,-13.97 33.96,-29.23 12.98,-18.15 11.77,-42.59 6.88,-63.34 -5.48,-21.39 -17.92,-44.53 -40.73,-50.77zm-298.77 -16.27c1.69,2.17 3.48,4.3 5.17,6.51 3.09,5.81 4.96,12.51 2.77,18.95 -2.84,9.78 -0.92,20.09 3.24,29.19 6.06,10.08 11.68,23.7 24.57,26.08 16.53,3.18 29.56,14.58 44.25,21.97 17.44,8.27 22.36,29.25 23.36,46.81 0.6,22.76 -5.12,47.63 -22.24,63.72 -11.54,11.04 -28.75,13.99 -44,10.79 -10.03,-7.88 -21.09,-14.33 -30.78,-22.67 -8.07,-7.71 -21.01,-6.2 -28.55,-14.63 -7.66,-6.93 -9.69,-17.69 -16.73,-25.1 -1.58,-9.99 -2.59,-20.14 -5.88,-29.76 -3.38,-9 -2.17,-18.79 -2.81,-28.18 -0.69,-28.53 10.58,-56.23 27.43,-78.86 6.19,-8.71 14.51,-15.7 20.2,-24.82zm-21.6 112.66l0 0c-1.37,14.86 0.3,30.26 6.31,44.02 6.01,13.72 17.49,24.85 31.25,30.72 13.03,5.61 28.8,10.34 41.62,1.56 -8.16,-0.44 -17.07,-2.42 -20.89,-10.56 3.91,1.14 7.75,2.58 11.43,4.39 3.11,-0.07 6.22,-0.16 9.32,-0.23 1.67,-3.68 3.34,-7.41 3.52,-11.52l-2.56 1.21c-0.13,-1.33 -0.43,-3.95 -0.59,-5.28 1.44,0.55 4.34,1.65 5.78,2.19 -0.02,-1.37 -0.02,-4.06 -0.04,-5.44 2.97,-2.44 5.67,-5.82 5.21,-9.94 -1.08,-12.73 -2.22,-27.31 -12.6,-36.32 -12.68,-12.27 -31.22,-13.21 -47.74,-14.99 -11.14,-4.67 -24.28,-11.41 -27.02,-24.35 -2.56,11.3 -4.32,22.98 -3,34.54zm487.55 -48.43c16.29,-2.31 30.81,9 41.85,19.72 9.03,7.91 13.35,20.03 23.38,26.86 8.66,6.1 14.2,15.43 19.09,24.6 11.63,23.86 17.89,49.87 22.72,75.84 2.33,12.91 5.16,26.12 2.97,39.26 -1.24,6.68 -2.9,13.26 -4.6,19.82 -4.54,15.2 -14.78,27.41 -25.69,38.51 -23.77,14.79 -52.02,23.09 -80.11,20.03 -5.76,-0.94 -10.95,-3.84 -16.21,-6.17 -9.07,-7.62 -15.81,-17.67 -20.84,-28.32 -7.82,-16.9 -12.6,-35.04 -15.18,-53.47 -1.3,-8.36 -3.2,-16.87 -1.76,-25.35 2.03,-12.45 8.32,-23.72 15.2,-34.12 9.3,-13.37 20.14,-25.83 33.17,-35.73 3.86,-3.17 6.92,-7.38 7.95,-12.36 4.02,-15.77 2.81,-32.28 1.69,-48.32 -0.62,-7.04 -1.71,-14.01 -3.63,-20.8zm33.25 43.93l0 0c-0.36,9.78 6.47,23.68 -4.25,30.1 -12.68,5.26 -23.31,14.1 -33.07,23.59 -7.34,7.45 -13.46,16.41 -16.34,26.58 -8.74,11.73 -11.57,26.52 -13.17,40.71 -1.35,15.41 -1.33,31.07 1.53,46.31 3.93,20.91 21.44,39.66 43.18,41.67 26.42,2.65 52.55,-16.16 59.95,-41.39 7.5,-10.09 10.61,-22.77 11.57,-35.09 2.03,-30.01 -6.93,-59.59 -19.48,-86.54 -8.04,-16.41 -17,-32.82 -29.92,-45.94zm-312.66 80.96c21.01,-4.69 42.79,3.95 58.49,17.78 15.25,13.33 30.33,28.41 37.19,47.93 3.7,10.65 13.97,16.76 22.79,22.81 8.53,5.01 16.14,11.32 24.02,17.24 7.2,7.82 16.32,13.6 23.13,21.78 9.92,11.75 19.18,24.02 28.58,36.16 11.74,16.34 24.59,32.67 30.33,52.3 6.26,18.33 21.51,31.24 34.67,44.62 17.3,25.14 32.3,54.6 30.29,85.96 -0.99,19 -13.01,35.86 -28.69,45.95 -17.05,10.74 -33.8,21.92 -50.47,33.25 -10.37,7.11 -20.41,15 -28.27,24.89 -9.46,10.66 -21.6,18.29 -33.08,26.52 -14.35,9.53 -28.52,19.7 -44.7,25.94 -11.25,4.14 -20.76,11.89 -32.05,15.89 -14.79,5.73 -31.04,6.24 -46.63,4.18 -28.23,-2.83 -55.79,-12.16 -80.48,-26.01 -5.51,-0.76 -10.86,-2.17 -16.09,-3.98 0.5,-1.1 1.51,-3.25 2.01,-4.34 -18.06,-5.85 -32.09,-19.8 -50.01,-25.94 -25.83,-9.29 -45.44,-31.75 -54.42,-57.31 -6.65,-17.42 -7.93,-36.18 -9.81,-54.56 -1.69,-27.38 5.99,-54.97 19.89,-78.49 10.92,-18.99 27.04,-34.13 40.2,-51.47 11.18,-14.79 23.91,-29.06 31.25,-46.24 8.18,-35.68 15.43,-71.62 23.5,-107.32 2.19,-8.62 2.4,-18.33 8.41,-25.44 15.27,-19.31 35.33,-36.73 59.95,-42.1zm24.53 23.4l0 0c-21.4,4.94 -40.85,17.67 -54.86,34.47 -8.62,9.79 -10.4,23.02 -13.67,35.16 -4.36,16.82 -8,33.83 -12.59,50.58 1.53,-8.05 1.66,-16.25 2.74,-24.34 1.46,-9.12 4.16,-18.04 5.19,-27.25 -1.35,2.31 -2.65,4.66 -3.29,7.29 -7.36,27.61 -13.63,55.5 -20.48,83.23 7.61,-10.52 11.04,-23.29 15.04,-35.46 -3.39,12.37 -3.29,26.43 -11.75,36.78 -14.95,22.26 -25.99,46.79 -38.86,70.22 -8.36,11.02 -13.92,23.68 -18.51,36.64l0.77 -4.02c-8.18,10.24 -11.68,23.4 -14.19,36.04 -3.47,24.09 -0.27,49.35 9.49,71.66 10.33,15.45 22.24,29.85 31.63,45.96 3.59,6.34 5.78,13.72 11.52,18.61 14.1,13.17 30.54,23.64 47.82,32.16 23.97,11.57 51.47,21.17 78.21,14.1 27.73,-7.4 51.94,-27.95 62.86,-54.63 8.92,-20.34 30.1,-30.19 48.18,-40.82 15.2,-9.23 32.51,-15.56 45.44,-28.14 7.71,-7.49 12.94,-17.23 15.68,-27.56 19.13,-20.98 15.98,-51.98 9.33,-77.37 -1.51,-20.73 -14.13,-37.88 -24.39,-55.18 -11.61,-18.03 -22.81,-36.5 -35.86,-53.53 -19.11,-17.4 -38.97,-33.97 -58.36,-51.06 -2.58,-2.24 -4.57,-5.06 -6.01,-8.1 -12.04,-25.39 -24.66,-50.58 -39.15,-74.69 -6.01,-11.32 -20.5,-13.49 -31.93,-10.75zm-343.66 41.47l0 0c-0.71,10.67 -2.13,21.37 -1.14,32.07 -0.83,16.11 -0.03,32.68 5.05,48.11 12.41,32 38.42,60.96 72.89,68.78 9.69,2.97 19.86,-0.37 28.73,-4.41 -5.51,0.29 -10.97,0.98 -16.43,1.71 -10.02,-4.46 -20.53,-7.93 -29.88,-13.71 -9.96,-7.5 -18.63,-16.51 -26.9,-25.76 8.64,-0.78 12.11,9.39 18.97,12.82 5.74,2.76 11.13,6.19 15.8,10.6 1.37,-1.44 2.74,-2.9 4.09,-4.34 2.08,3.7 6.1,3.77 9.83,4.07l-4.51 1.92 -1.71 -1.42c-2.24,0.6 -4.44,1.33 -6.58,2.17 6.4,-0.7 11.49,3.64 17.44,4.92 5.96,1.44 12.11,0.34 18.03,-0.87 1.78,-2.51 4.64,-3.7 7.38,-4.89 0.53,-0.89 1.6,-2.7 2.15,-3.61 3.98,-1.35 7.86,-3.04 11.75,-4.66 -0.27,-0.78 -0.8,-2.34 -1.07,-3.11l-0.46 0.22c-1.17,-1.55 -3.45,-4.66 -4.62,-6.21 5.17,-3.98 11.36,-6.04 17.74,-7 1.09,-4.48 3.31,-9.53 -1.33,-12.73 -1.51,-6.28 -4.52,-12 -7.36,-17.76 -2.54,-2.01 -5.19,-3.91 -7.34,-6.33 -7.72,-11.45 -20.41,-18.86 -33.32,-23.06 -14.67,-2.56 -29.74,-3.11 -44.57,-1.92 -14.17,2.05 -29.51,-5.15 -36.44,-17.79 -5.14,-8.34 -4.86,-18.42 -6.19,-27.81z"/>
   <path class="fil1" d="M571.98 80l97.89 0c15.34,3.41 31.13,3.25 46.63,5.55 85.17,9.86 166.58,38.43 246.43,68.37 6.3,2.29 12.75,4.27 19.17,6.26 9.1,-6.35 17.72,-13.39 26.91,-19.63 28.2,14.12 56.38,28.32 84.52,42.56 -0.46,2.72 -0.87,5.42 -1.28,8.11 4.16,2.04 8.32,4.09 12.5,6.15 -48.36,86.54 -97.5,172.62 -145.71,259.25 23.54,14.22 43.43,33.37 61.58,53.83 0.93,-14.59 4.66,-28.74 8.52,-42.72 4.09,-13.99 11.82,-26.45 18.61,-39.2 -8.69,-3.8 -17.74,-10.7 -16.83,-21.33 2.22,-12.55 9.92,-23.22 14.72,-34.88 5.81,-11.18 9.79,-24.39 20.14,-32.32 11.84,-5.14 25.49,-3.52 37.51,0.3 12.98,3.75 24.78,10.99 34.42,20.43 7.59,7.64 17.65,12.89 23.43,22.24 6.22,9.26 7.87,21.65 17.56,28.37 14.88,11.56 21.85,29.69 34.19,43.43 3.96,5.32 4.71,12.18 6.88,18.28 3.29,8.87 1.21,18.36 1.42,27.55 -0.14,11.42 4.2,22.62 2.35,34.07 -1.44,10.06 -2.79,20.12 -4.04,30.2 9.03,-8.02 19.72,-14.4 27.17,-24.07 3.57,-3.93 -1.5,-8.14 -3.36,-11.54 -5.62,-6.75 -8.09,-15.55 -7.08,-24.25 4.04,-19.77 14.7,-38.11 30.06,-51.25 4.38,-2.93 9.92,-2.54 14.97,-2.63 11.31,0.18 22.95,0.32 33.62,4.53 18.56,7.15 33.67,21.19 45.19,37.14 7.86,11.66 20.02,19.7 27.06,32.02 19.25,31.2 27.15,67.73 33.26,103.43 3.24,15.29 0.62,30.86 -1.21,46.13 -3.09,25.28 -13.05,49.87 -29.24,69.57 -7.52,7.75 -15.06,15.46 -22.51,23.25 -7.43,8.02 -20.21,3.75 -28.32,10.56 -4.48,2.77 -8.14,8.44 -14.01,7.52 -11,-0.87 -21.4,3.82 -32.32,3.8 -17.15,1.05 -34.01,-3.64 -49.44,-10.75 5.09,9.88 9.23,20.16 13.12,30.59 6.53,15.95 21.78,25.46 31.97,38.74 21.97,31.2 37.58,69.32 32.12,108.13 71.47,0.35 142.97,0.3 214.47,0.03 0.34,-58.04 -0.12,-116.07 0.23,-174.11 -0.03,-3.1 -0.21,-6.21 -0.55,-9.3 -7.36,-4.5 -16.14,-5.92 -24.12,-8.98 -0.52,-3.38 -1,-6.74 -1.48,-10.1 -2.75,-1.37 -5.53,-2.63 -8.09,-4.26 -1.92,-4.82 -1.15,-10.19 -1.33,-15.24 0.59,-27.29 -0.57,-54.61 0.59,-81.9 109.15,0.14 218.31,0 327.48,0.09 0.25,4.32 0.55,8.62 0.84,12.94 3.3,0.41 6.63,0.82 9.97,1.23 -0.07,33.01 0.11,65.99 -0.07,98.98 -11.72,3.52 -23.56,6.56 -35.24,10.19 -0.14,208.5 -0.05,417.01 -0.05,625.51 8.14,2.47 16.28,4.87 24.48,7.18 0.3,3.47 0.66,6.97 1.01,10.49 3.26,1.23 6.56,2.49 9.85,3.75 0.09,32.57 -0.05,65.14 0.04,97.71l-328.48 0c-0.04,-3.98 -0.09,-7.95 -0.09,-11.91 -3.31,-0.52 -6.65,-1.07 -9.92,-1.57 -0.55,-32.94 -0.39,-65.88 -0.07,-98.82 11.52,-3.47 23.2,-6.33 34.88,-9.25 0.53,-70.24 0.14,-140.51 0.19,-210.75 -113.01,-0.25 -226.04,-0.43 -339.02,0.1 -0.37,71.06 -0.55,142.17 0.07,213.25 7.88,2.04 16.09,3.39 23.54,6.84 1.21,3.45 1.83,7.08 2.63,10.67 2.9,0.98 5.83,2.01 8.75,3.04 0.14,32.8 0,65.6 0.07,98.4l-328.91 0c0.06,-4 0.16,-7.98 0.25,-11.93 -3.2,-0.23 -6.38,-0.46 -9.56,-0.64 -1.37,-33.03 -0.66,-66.15 -0.36,-99.2 11.54,-3.41 23.17,-6.58 34.83,-9.74 0.62,-91.27 0.37,-182.53 0.12,-273.8 -6.2,-5.42 -12.05,-11.93 -20.23,-14.29 -6.24,-1.97 -12.82,-3.29 -18.36,-6.95 -10.97,-7.34 -24.41,-9.89 -34.97,-17.92 -11.93,-9.09 -24.89,-17.6 -33.05,-30.56 -19.93,-27.33 -29.19,-60.78 -32.41,-94.06 -75.84,12.94 -153.51,15 -230.01,6.82 -91.02,-9.95 -180.12,-35.32 -263.61,-72.73 -4.8,-2.06 -9.58,-4.39 -14.72,-5.42 -9.26,3.4 -16.69,10.4 -25.4,14.92 -27.31,-12.77 -55.11,-24.5 -82.31,-37.48 0.51,-2.54 0.92,-5.08 1.24,-7.61 -3.82,-2.61 -8.12,-4.42 -12.25,-6.43l0 -1.69c3.1,-6.24 6.49,-12.34 9.53,-18.63 40.13,-82.56 80.78,-164.89 120.96,-247.45 28.5,11.57 56.96,23.29 85.26,35.34 0.59,3.06 1.16,6.12 1.78,9.19 2.97,1.83 6.44,3.15 8.82,5.8 1.74,11.07 -0.59,22.36 1.03,33.42 2.19,3.75 6.31,5.81 9.74,8.23 29.89,18.67 63.65,29.94 97.37,39.43 48.02,13.51 97.69,21.48 147.63,21.73 0.07,-27.88 2.84,-55.67 4.62,-83.49 -57.17,-4.64 -114.4,-9.49 -171.18,-17.88 -40.02,-5.76 -79.04,-17.64 -115.79,-34.42 -24.82,-10.99 -47.91,-25.9 -67.86,-44.32 -18.59,-16.75 -33.01,-37.33 -47.55,-57.53 -37.9,-55.54 -46.38,-127.29 -32.2,-192.09 11.68,-54.27 43.74,-103 86.49,-137.95 58.76,-48.96 133.96,-73.53 208.78,-83.93 20.91,-3.36 42.12,-4 63.13,-6.74zm718.81 657.26c28.09,3.06 56.34,-5.24 80.11,-20.03 -10.79,13.28 -25.78,23.59 -42.42,27.87 -2.03,1.3 -4.07,2.63 -6.08,3.95 -7.09,-6.28 -16.98,1.63 -24.98,-1.74 -2.77,-1.25 -5.37,-2.76 -8.02,-4.16 -6.25,1.67 -12.71,1.86 -19.12,2.06 1.03,-0.89 3.07,-2.67 4.1,-3.54 -2.47,-1.37 -4.96,-2.74 -7.41,-4.11 -0.94,0.91 -2.83,2.74 -3.79,3.65 -0.94,-1.28 -2.79,-3.82 -3.73,-5.1 1.9,-2.3 3.8,-4.61 5.69,-6.92 3.13,0.57 6.29,1.19 9.44,1.9 5.26,2.33 10.45,5.23 16.21,6.17zm-52.23 -87.96c2.58,18.43 7.36,36.57 15.18,53.47 -1.44,-0.03 -4.35,-0.07 -5.79,-0.1 0.3,-2.65 0.62,-5.27 0.92,-7.9 -2.88,-0.78 -5.74,-1.51 -8.6,-2.24 -0.29,-10.49 -1.44,-21.06 -6.83,-30.29 2.77,-3.84 4.94,-8.11 5.12,-12.94zm46.19 -158.31c3.34,0.8 6.72,1.6 10.06,2.43 1.12,16.04 2.33,32.55 -1.69,48.32 -1.03,4.98 -4.09,9.19 -7.95,12.36 5.87,-20.68 3.45,-42.31 -0.42,-63.11zm-454.35 -76.09c1.81,0.16 5.44,0.46 7.27,0.62 -0.37,1.28 -1.1,3.82 -1.46,5.1 3.15,5.48 6.44,11.04 8.02,17.23 -0.87,4.57 -5.33,7.45 -8.02,11.02 0.36,0.87 1.09,2.56 1.46,3.41 0.36,2.94 0.82,5.89 1.28,8.84 -0.64,0.48 -1.9,1.44 -2.54,1.92 -4.16,-9.1 -6.08,-19.41 -3.24,-29.19 2.19,-6.44 0.32,-13.14 -2.77,-18.95zm-374.22 -301.92l0 0c-69.8,16.83 -137.85,51.25 -183.33,108.14 -33.24,41.12 -50.25,94.13 -49.79,146.81 -0.41,46.36 13.1,93.24 40.78,130.7 10.22,13.37 19.73,27.36 31.7,39.27 21.01,21.85 46.65,39.06 74.45,51.08 33.69,15.16 69.3,26.15 105.83,31.73 59.54,9.28 119.68,13.42 179.61,19.27 2.51,-6.77 5.3,-13.51 9.76,-19.25 0.71,-4.3 1.46,-8.59 2.17,-12.89 3.86,-8.09 14.49,-9.62 17.6,-18.08 3.77,-6.86 10.29,-12.05 18.33,-12.48 9.62,-0.34 17.26,-9.83 27.25,-6.47 12.93,3.77 18.49,17.67 26.03,27.59 0.87,0.21 2.58,0.64 3.43,0.85 3.06,7.54 4.14,18.01 11.72,22.37 -1.09,-0.2 -3.29,-0.59 -4.38,-0.77 -2.04,3.27 -4.14,6.51 -6.29,9.73 -0.05,8.78 5.28,15.68 10.31,22.34 13.99,-5.88 31.41,-1.72 40.55,10.55 10.06,5.95 19.04,13.74 29.83,18.5 4.16,5.96 10.12,10.65 16.48,14.17l-0.19 0.91c2.56,5.78 3.27,12.09 5.01,18.13 3.5,6.79 10.72,11.13 13.3,18.47 -0.23,8.59 0.41,17.14 2.27,25.55 3.95,-5.23 -0.37,-12.41 1.55,-18.35 3.27,-9.51 10.97,-17.35 11.98,-27.66 0.5,-11.77 -0.03,-23.54 0.11,-35.32 -10.72,3.18 -20.16,-4.13 -30.47,-5.87 -6.65,-3.15 -13.6,-5.81 -20.91,-6.88 -0.21,-0.85 -0.62,-2.54 -0.8,-3.38 -5.72,-2.79 -11.7,-5.37 -16.46,-9.67 -3.13,-4.16 -4.14,-9.42 -5.9,-14.22 -4.91,-2.67 -9.55,-5.78 -14.47,-8.39 -1,-3.84 -2.05,-7.65 -3.1,-11.47 -5.99,-4.16 -11.77,-8.69 -16.6,-14.17 -1.6,-2.38 -3.13,-4.82 -5.14,-6.88 -21.1,-18.95 -26.7,-48.64 -29.08,-75.61 -6.05,-23.71 2.75,-47.75 11.11,-69.74 1.7,-5.97 7.66,-12.07 5.49,-18.33l-1.14 -0.78 1.99 -0.07c6.74,-3.45 8.09,-12.14 10.92,-18.51 -81.44,-12.71 -164.05,-15.13 -245.69,-26.08 -23.41,-3.59 -48.32,-4.8 -68.96,-17.65 -0.46,-8.36 0.96,-16.96 6.12,-23.77 13.9,-19.38 36.46,-30.47 58.98,-36.53 43.58,-10.92 88.96,-13.12 133.69,-10.74 78.15,4.02 156.41,26.31 221.39,70.72 -0.66,6.74 -1.21,13.49 -1.69,20.23 3.57,1.88 7.13,3.77 10.68,5.71 0.38,3.09 -2.08,8.14 2.3,9.31 19.02,10.58 38.75,19.79 58.11,29.67 43.47,-76.83 86.76,-153.76 130.01,-230.75 -4.66,-2.31 -9.28,-4.64 -13.88,-7.04 1.19,-2.26 2.38,-4.52 3.62,-6.76 -20.55,-10.22 -41.24,-20.19 -61.51,-30.95 -8.94,5.9 -16.99,13.12 -26.54,18.12 -22.61,-6.08 -44.21,-15.17 -66.22,-23.01 -41.37,-14.88 -83.2,-28.64 -125.94,-39.07 -58.26,-14.21 -118.38,-19.7 -178.24,-19.93 -52.96,0.46 -106.22,4.78 -157.74,17.6zm83.23 210.45l0 0c-23.07,5.48 -48.16,15.31 -60.12,37.23 10.45,4.57 21.72,6.68 32.92,8.37 84.57,12.78 170.26,15.45 254.97,27.15 6.79,0.8 13.46,2.79 20.34,2.75 13.17,-8.23 28.98,-9.15 43.57,-13.49 11.1,-2.81 25.69,-5.83 33.8,4.69 0.32,-4.1 2.31,-8.46 0.64,-12.42 -7.98,-6.26 -17.21,-10.67 -26.06,-15.54 -55.93,-29.62 -118.95,-44.43 -181.94,-47.4 -39.52,-1.4 -79.47,-0.37 -118.12,8.66zm516.5 74.81l0 0c0.57,2.54 1.14,5.07 1.71,7.61 11.13,-1 9.05,16.57 19.48,18.42 -9.33,7.94 -14.17,19.5 -20.14,29.9 -6.74,11.45 -9.17,24.64 -13.78,36.94 -4.16,19.93 -1.44,44.07 14.14,58.6 -4.09,-14.6 -8.25,-29.39 -8.47,-44.66 0,-11.54 9.48,-19.68 12.61,-30.24 4.09,-11.24 6.22,-24.04 15.09,-32.75 2.83,-5.1 5.94,-10.06 9.46,-14.72 -0.66,-11.02 -7.82,-19.55 -12.73,-28.89 -1.37,-0.76 -4.11,-2.29 -5.49,-3.07 0.8,-0.91 2.4,-2.74 3.2,-3.65 -1.05,-0.96 -3.2,-2.91 -4.27,-3.87 2.06,-4.41 4.14,-8.82 6.29,-13.21 4.04,0.85 8.11,1.58 12.18,2.29 1.74,4.48 5.19,8.27 10.01,9.39 5.26,8.96 10.1,19.84 6.51,30.33 -3.93,7.14 -11.36,11.71 -15.15,19.02 -7.2,14.15 -17.53,26.61 -22.74,41.78 -4.55,11.52 -8.19,24.55 -4.14,36.78 6.56,19.84 14.06,39.66 25.53,57.26 5.42,9.05 16.16,12.23 23.54,19.31 8.83,8.16 19.96,13.12 31.62,15.73 -5.44,1.53 -11.02,3.18 -16.74,2.65 -12.86,-0.16 -21.87,-11.59 -34.67,-12.32 6.38,4.43 13.44,8.68 15.15,16.94 4.55,2.88 14.2,2.58 14.15,9.48 3.45,1.01 6.93,2.04 10.38,3.11 1,-0.64 2.99,-1.94 4,-2.58 13.44,6.03 25.01,-6.06 38.26,-6.15 3,-2.88 6.04,-5.72 9.17,-8.48 0,1.78 0.02,5.33 0.04,7.08 2.15,-2.74 4.39,-5.46 6.13,-8.5 0.05,-4.5 -4.59,-8.62 -2.36,-13.12 2.41,-4.71 6.11,-8.59 9.29,-12.77 -0.03,-12.51 8.77,-23.02 8.02,-35.59 0,-7.55 2.81,-14.72 3.24,-22.22l-3.65 1.94c-0.03,-1.05 -0.09,-3.13 -0.12,-4.16 2.15,-13.14 -2.53,-26.95 2.65,-39.56 -0.98,1.02 -2.97,3.08 -3.95,4.11 -3.36,-6.03 -4.11,-12.75 -3.34,-19.52 -0.71,0.23 -2.15,0.66 -2.85,0.89 -2.06,-6.6 -8.62,-10.44 -10.5,-17.12 -2.6,-8.46 -8.29,-15.56 -14.46,-21.76 -4.58,-4.62 -11.64,-7.06 -14.11,-13.46 -4.2,-9.26 -7.15,-19.54 -14.6,-26.86 -3.57,-3.04 -7.64,-5.44 -11.29,-8.34 -1.63,0.46 -4.85,1.35 -6.47,1.78l-1.51 1.1c-1.1,-0.98 -2.15,-2.04 -3.13,-3.13 3.72,0.66 7.49,0.48 11.33,-0.53 -10.12,-9.99 -22.62,-18.72 -36.91,-21.03 -5.55,0.28 -11.11,0.85 -16.64,0.16 -6.54,13.12 -12.71,26.43 -18.97,39.66zm-188 4.14l0 0c1.64,3.15 3.34,6.31 5,9.46 1.19,-2.26 2.4,-4.55 3.62,-6.81 -2.88,-0.89 -5.77,-1.78 -8.62,-2.65zm-62.95 10.1l0 0c-1.37,6.7 -6.61,11.27 -11.04,16.05 -11.73,22.53 -23.13,46.19 -26.03,71.77 2.1,26.03 2.44,54.67 19.17,76.41 -0.2,-1.69 -0.57,-5.03 -0.77,-6.7 7.04,7.41 9.07,18.17 16.73,25.1 7.54,8.43 20.48,6.92 28.55,14.63 9.69,8.34 20.75,14.79 30.78,22.67 -14.78,-0.55 -23.61,-16.2 -38.65,-15.13 5.99,3.45 12.76,6.86 13.31,14.7 3.65,2.01 7.33,4.04 10.88,6.31 -1.22,4.84 3.93,6.81 6.83,9.55 4.91,-1.78 8.48,1.71 11.75,4.91 8.2,1.72 16.52,2.47 24.87,3.18 6.1,2.01 11.56,-2.65 17.16,-4.32 -0.87,1.72 -2.65,5.14 -3.52,6.86 3.32,-2.54 7.39,-4.46 9.74,-8 1.03,-3.82 -1.21,-7.8 -0.09,-11.54 3.54,-4.94 8.27,-8.85 12.41,-13.28 1.19,-11.96 10.58,-21.35 10.58,-33.51 0.3,-6.93 3.82,-13.08 5.51,-19.68l-4.04 0.18c3.79,-14.17 3.24,-28.94 4.16,-43.45 -1.08,0.09 -3.23,0.27 -4.3,0.36 -3.64,-5.91 -6.86,-12.09 -9.94,-18.3 -4.42,-0.58 -7.41,-4.05 -11.04,-6.18 -3.89,-1.48 -8.48,-1.14 -11.71,-4.06 -11.29,-8.76 -24.27,-15.39 -38.12,-18.98 -2.11,-4.66 -4.37,-9.28 -6.08,-14.1 -4.57,-9.62 4,-19.22 1.35,-29.14 -3.16,-8.6 -7.73,-16.57 -12.35,-24.44 -2.33,-3.52 -1.69,-9.12 -6.26,-10.83 -13.46,2.06 -26.47,6.35 -39.84,8.96zm73.65 3.22l0 0c2.65,9.37 14.33,9.35 22.08,11.64 -6.68,-5.03 -14.29,-8.64 -22.08,-11.64zm5.44 23.36l0 0c-0.19,7.02 -0.9,14.04 -2.38,20.94l1.44 0.55c-0.28,0.75 -0.85,2.26 -1.14,3.02 4.52,5.12 12.06,6.05 17.87,9.41 7.75,3.18 14.08,9.58 22.47,11.11 6.37,1.3 13.39,2.74 17.99,7.8 3.91,4.75 6.08,10.6 9.8,15.47 3.11,3.73 7.32,6.33 10.33,10.1 2.31,4.19 2.5,9.1 3.8,13.63 -1.9,14.1 -3.32,28.48 -1.85,42.69 0.39,6.52 -2.45,12.62 -4.19,18.75 12.32,-7.18 25.6,-12.46 39.34,-16.21 6.68,-1.12 13.35,-2.31 20,-3.54 8.8,-0.35 17.62,-0.37 26.4,0.5 -8.78,-17.12 -20.94,-32.09 -32.23,-47.52 -12.8,-16.71 -27.84,-31.77 -44.75,-44.32 -25.19,-18.4 -53.81,-31.45 -82.9,-42.38zm393.02 32.12l0 0c-4.22,5.46 -9.44,10.31 -12.73,16.41 -1.67,8.14 -4.04,16.27 -3.13,24.69 -1.35,-1.01 -4.09,-3.04 -5.44,-4.05 0.73,4.52 2.15,9.42 7.27,10.51 7.73,1.69 5.39,10.47 5.01,16.21 -0.85,5.46 1.66,11.82 -2.02,16.59 -7.58,7.93 -16,15.09 -25.64,20.39 0.36,0.96 1.09,2.86 1.46,3.82 -11.88,8.3 -21.1,19.72 -32.84,28.2 2.19,8.1 -3.27,15.55 -6.91,22.34 -0.59,9.44 1.31,18.53 3.96,27.54 0.36,19.88 7.26,38.81 12.98,57.65 5.58,18.05 15.77,35.42 31.66,46.21 13.35,9.53 30.69,13.1 46.79,10.4 8.93,-2.65 18.01,-7.47 27.56,-4.84 3.45,0.18 4.73,-4.05 7.02,-5.99 10.06,-1.67 18.38,-7.8 27.66,-11.55 5.87,-7.74 14.51,-12.98 19.61,-21.39 9.35,-14.4 16.89,-30.49 18.81,-47.72l-1.56 2.12c1.7,-6.56 3.36,-13.14 4.6,-19.82 2.19,-13.14 -0.64,-26.35 -2.97,-39.26 -4.83,-25.97 -11.09,-51.98 -22.72,-75.84 -4.89,-9.17 -10.43,-18.5 -19.09,-24.6 -10.03,-6.83 -14.35,-18.95 -23.38,-26.86 -11.04,-10.72 -25.56,-22.03 -41.85,-19.72l-0.05 -0.21c-4.73,0.3 -9.44,-0.36 -14.06,-1.23zm-212.36 108.04l0 0c-1.78,2.79 2.33,7.39 5.26,5.49 1.43,-2.74 -2.5,-6.88 -5.26,-5.49zm-60.92 16.57l0 0c-17.92,4.46 -36.96,11.5 -48.22,26.98 -5.83,7.81 -14.36,13 -20.39,20.61 -3.61,5.37 -4.8,11.91 -6.79,17.99 0.73,0.89 2.15,2.72 2.88,3.64 -10.74,26.58 -16.6,55.2 -30.79,80.34 0.66,0.96 1.99,2.9 2.65,3.86 -1.46,7.7 -0.8,17.3 -8.23,22.17 -2.67,8.3 -9.46,14.38 -12.73,22.45 -4.8,10.54 -12.73,19.04 -21.16,26.77 -18.68,23.58 -38.06,48.27 -45.31,78.08 -12.75,44.93 -8.5,95.72 16.12,135.95 7.72,13.97 19.97,24.57 32.61,33.94 13.9,9.78 31.48,11.61 45.88,20.37 8.14,4.87 18.1,7.13 24.32,14.76 5.62,6.06 15.06,1.22 21.53,5.63 15.25,9.05 33.07,11.86 48.73,19.84 12.27,0.8 24.48,2.24 36.6,4.45 26.97,-0.32 51.45,-13.41 74.81,-25.53 26.76,-14.83 53,-31.38 74.63,-53.25 2.12,-1.63 2.78,-4.12 2.9,-6.66 7.86,-9.89 17.9,-17.78 28.27,-24.89 16.67,-11.33 33.42,-22.51 50.47,-33.25 15.68,-10.09 27.7,-26.95 28.69,-45.95 2.01,-31.36 -12.99,-60.82 -30.29,-85.96 -13.16,-13.38 -28.41,-26.29 -34.67,-44.62 -5.74,-19.63 -18.59,-35.96 -30.33,-52.3 -9.4,-12.14 -18.66,-24.41 -28.58,-36.16l1.51 -0.64c-8.89,-8.02 -14.9,-19.84 -26.79,-23.93 -3.06,-3.59 -5.87,-7.34 -8.61,-11.15 -10.68,-6.4 -22.38,-13.31 -28.67,-24.41 0.62,-1.99 1.12,-3.98 1.56,-5.99 -3.84,-9.88 -10.95,-17.97 -16.44,-26.88 2.08,0.91 6.27,2.76 8.35,3.68 -6.04,-5.85 -11.04,-13.97 -19.07,-17.01 -11.47,1.58 -21.73,-5.76 -28.36,-14.47 -7.64,-1.94 -13.76,-6.95 -20.53,-10.63 -12.07,-2.65 -24.64,-0.32 -36.55,2.17zm-300.68 1.81l0 0c1.03,0.62 3.08,1.87 4.11,2.52 -5.99,7.1 -13.3,12.96 -22.1,16.18 1.76,-0.35 5.28,-1.03 7.04,-1.37 -5.07,4.61 -6.99,10.97 -8.57,17.37 -7.84,12.77 -17.42,26.38 -16.48,42.15 -1.56,28.77 -6.59,58.08 -0.53,86.65 2.24,12.48 16.12,18.9 17.37,31.7 2.45,1.99 6.36,1.74 8.05,4.71 4.16,6.03 9.85,10.9 13.46,17.35 12.8,6.92 22.43,18.53 35.55,24.98 8.25,2.9 17.32,1.78 25.76,4.11 9.94,2.59 21.21,2.61 30.26,-2.81 20.87,-11.49 47.79,-21.32 55.38,-46.42 -10.79,11.52 -24.73,19.06 -37.21,28.48 -9.17,4.87 -19.5,6.93 -29.39,9.65 -23.48,3.04 -50.18,-3.18 -65.31,-22.61 -6.24,-8.02 -15.49,-13.6 -19.68,-23.13 -1.6,-0.89 -4.75,-2.68 -6.33,-3.57 0.85,-0.73 2.56,-2.21 3.43,-2.95 -3.61,-6.08 -8.92,-11.74 -9.56,-19.06 11.82,15.61 23.18,31.75 37.72,45.01 6.17,5.23 10.63,13.23 18.51,16 4.67,5.35 12.21,5.37 18.54,3.54 6.58,1.14 13.12,3.66 19.89,3.02 9.55,-2.77 18.44,-7.41 27.54,-11.39 11.95,-6.05 25.1,-12 32.59,-23.7 7.46,-11.04 15.48,-23.31 14.75,-37.21 -1.19,-8 -5.76,-14.95 -8.83,-22.28 1.31,0.36 3.91,1.09 5.22,1.46 -6.36,-5.28 -12.46,-11.38 -12.33,-20.3 -3.58,-2.19 -6.62,-5.07 -9.37,-8.18 1.1,-5.69 -4.02,-11.61 -9.71,-11.73 -6.31,-10.56 -20.25,-9.05 -28.57,-16.89 -2.38,-1.85 -5.15,-2.79 -8.28,-2.83 0.26,-1.65 0.76,-4.99 1.01,-6.63 -7.36,0.16 -10.24,12.34 -18.01,7.54 -13.19,-3.98 -16.64,-18.54 -25.56,-27.41 -0.5,-4.57 0.39,-10.05 -4.18,-12.79 0.89,-7.09 2.79,-13.97 5.78,-20.44 -5.09,-7.22 -10.58,-14.13 -15.63,-21.37 -8.89,-0.89 -17.65,1.12 -26.33,2.65zm-403.61 8.09l0 0c-38.68,79.93 -77.83,159.64 -117.01,239.32 4.46,2.19 8.98,4.27 13.58,6.21 -0.98,2.61 -1.99,5.24 -3,7.87 20.58,9.19 41.12,18.47 61.65,27.79 6.83,-4.78 13.3,-10.06 20.39,-14.42 2.28,-2.08 5.16,-0.37 7.59,0.36 17.96,6.84 35.31,15.23 53.23,22.2 85.67,34.44 176.8,55.7 269.05,60.64 61.37,3.04 123.09,-0.3 183.61,-11 0.46,-12.57 1.74,-25.12 4.19,-37.46 1.89,-6.95 3.56,-13.94 4.84,-21.01l0.71 -0.15c2.9,-9.13 6.68,-17.95 10.95,-26.52 -14.26,4.75 -29.65,8.44 -44.59,4.73 -11.27,-3.02 -23.71,-1.09 -34.15,-6.88 -15.46,-7.59 -26.79,-21.26 -42.18,-28.98 -6.37,-2.9 -9.73,-9.19 -11.72,-15.59 -3.89,-2.81 -8.73,-5.05 -10.63,-9.78 -2.22,-3.2 -2.76,-9.14 -7.68,-9.14 -2.93,-6.5 -5.8,-13.01 -8.71,-19.5 -2.21,-6.75 -3.82,-13.67 -5.05,-20.66 -58.86,0.89 -117.28,-10.61 -173.39,-27.78 -30.72,-9.8 -61.51,-21.23 -88.07,-39.91 -3.5,-2.69 -7.52,-5.07 -9.85,-8.91 -1.1,-10.67 0.07,-21.48 -0.64,-32.18 -3.25,-1.19 -6.47,-2.38 -9.72,-3.57 -0.23,-3.36 -0.41,-6.7 -0.61,-10.01 -21.01,-8.37 -41.72,-17.46 -62.79,-25.67zm520.66 0.39l0 0c-3.06,1.56 -3.09,3.09 -0.09,4.6 3.04,-1.56 3.06,-3.09 0.09,-4.6zm312.85 39.66l0 0c1.76,6.33 7.88,9.41 12.43,13.6 7.84,6.88 13.6,15.65 19.79,23.93 4.05,6.06 11.96,7.47 16.44,13.1 6.54,7.81 14.24,14.69 19.63,23.45 -3.38,-16.69 -9.28,-32.76 -12.41,-49.51 -2.08,-10.63 -4.04,-21.62 -9.64,-31.06 -0.69,-0.12 -2.06,-0.35 -2.75,-0.46 -13.83,5.51 -28.87,5.69 -43.49,6.95zm382.92 22.15l0 0c-0.46,24.11 -0.23,48.25 -0.14,72.36 3.36,0.8 6.77,1.62 10.15,2.45 0.03,3.68 0.07,7.38 0.14,11.06 8.14,2.06 16.25,4.23 24.43,6.24 0.14,70.45 -0.04,140.91 0.1,211.36 -78.68,0.34 -157.35,-0.36 -236,0.37 -3.34,7.36 -7.94,14.03 -13.01,20.29 -6.67,7.11 -15.02,12.35 -21.74,19.39 -4.73,0.36 -8.41,3.77 -12.27,6.1 -21.44,14.38 -44.18,28.27 -60,49.12 -19.22,20.69 -42.97,36.23 -66.7,51.18 -3.98,1.44 -7.38,4 -10.92,6.24 -19.07,9.73 -38.11,20.04 -58.93,25.53 -28.8,8.36 -58.45,-0.8 -87.38,-3.41 -6.17,-4.41 -12.62,-8.57 -19.89,-10.97 -6.63,-2.83 -13.16,-5.96 -19.91,-8.5 -0.36,57.21 -0.04,114.44 -0.16,171.65 -0.45,37.13 0.94,74.31 -0.73,111.39 -11.27,4.18 -22.9,7.31 -34.54,10.33 -0.38,23.72 -0.02,47.47 -0.2,71.22 3.43,0.07 6.86,0.12 10.31,0.23 0,4.55 0.04,9.1 0.09,13.67 98.74,0.02 197.48,-0.23 296.23,0.11 0.61,-23.95 0.11,-47.9 0.27,-71.86 -3.24,-0.84 -6.47,-1.64 -9.69,-2.44 -0.02,-3.73 -0.02,-7.41 0,-11.09 -8.43,-2.17 -16.84,-4.37 -25.23,-6.72 0.16,-80.57 0.02,-161.14 0.06,-241.74 123.36,-0.13 246.72,0.16 370.06,-0.13 0.44,79.38 0.25,158.76 0.09,238.14 -11.04,4.96 -22.99,7.16 -34.63,10.27 -0.22,23.91 -0.04,47.81 -0.09,71.75 3.32,-0.1 6.65,-0.14 10.01,-0.21 0.14,4.64 0.37,9.3 0.53,13.99 98.77,-0.25 197.51,-0.07 296.27,-0.09 0.1,-23.73 0.03,-47.45 0.05,-71.18 -3.47,-1.05 -6.88,-2.06 -10.29,-3.09 -0.04,-3.59 -0.04,-7.17 -0.04,-10.74 -8.21,-2.24 -16.37,-4.62 -24.55,-6.93 0.27,-216.52 -0.43,-433.07 0.37,-649.59 11.22,-4.28 22.88,-7.23 34.44,-10.43 0.16,-23.79 0.02,-47.59 0.07,-71.38 -3.45,-0.14 -6.9,-0.28 -10.31,-0.39 -0.02,-4.5 -0.07,-9 -0.09,-13.48 -98.74,0.02 -197.51,0.15 -296.23,-0.07z"/>
   <path class="fil2" d="M456.18 112.98c51.52,-12.82 104.78,-17.14 157.74,-17.6 59.86,0.23 119.98,5.72 178.24,19.93 42.74,10.43 84.57,24.19 125.94,39.07 22.01,7.84 43.61,16.93 66.22,23.01 9.55,-5 17.6,-12.22 26.54,-18.12 20.27,10.76 40.96,20.73 61.51,30.95 -1.24,2.24 -2.43,4.5 -3.62,6.76 4.6,2.4 9.22,4.73 13.88,7.04 -43.25,76.99 -86.54,153.92 -130.01,230.75 -19.36,-9.88 -39.09,-19.09 -58.11,-29.67 -4.38,-1.17 -1.92,-6.22 -2.3,-9.31 -3.55,-1.94 -7.11,-3.83 -10.68,-5.71 0.48,-6.74 1.03,-13.49 1.69,-20.23 -64.98,-44.41 -143.24,-66.7 -221.39,-70.72 -44.73,-2.38 -90.11,-0.18 -133.69,10.74 -22.52,6.06 -45.08,17.15 -58.98,36.53 -5.16,6.81 -6.58,15.41 -6.12,23.77 20.64,12.85 45.55,14.06 68.96,17.65 81.64,10.95 164.25,13.37 245.69,26.08 -2.83,6.37 -4.18,15.06 -10.92,18.51l-1.99 0.07c-78.77,-11.41 -158.52,-14.13 -237.37,-24.78 -23.87,-3.49 -48.87,-5.55 -70.29,-17.64 -12.48,-6.84 -23.11,-18.84 -24.32,-33.51 -2.63,-19.2 8.07,-37.26 21.92,-49.65 29.92,-27.77 71.98,-35.15 111.06,-39.75 100.96,-9.8 206.81,5.79 295.2,57.49 13.81,8.55 28.96,16.3 39,29.46 5.62,6.72 2.88,15.75 3.29,23.68 9.37,7.13 20.73,10.97 30.99,16.62 36.71,-65.17 73.4,-130.31 110.08,-195.45 -10.56,-5.37 -21.14,-10.68 -31.77,-15.86 -10.08,7.22 -21.64,17.34 -34.99,13.55 -18.68,-4.98 -36.62,-12.32 -54.75,-18.93 -45.6,-16.75 -91.79,-32.2 -139.06,-43.52 -51.08,-12.07 -103.61,-17.62 -156.05,-18.21 -79.1,-0.99 -160.16,7.24 -233.32,39.13 -52.57,23.11 -100.76,60.82 -127.59,112.46 -22.97,44.59 -28.91,97.25 -18.88,146.19 9.67,47.2 38.22,89.67 76.8,118.22 24.37,18.26 52.87,29.83 81.42,39.81 29.53,10.22 60.48,15.48 91.43,19.3 56.41,7.22 113.16,11.47 169.78,16.75 -0.71,4.3 -1.46,8.59 -2.17,12.89 -4.46,5.74 -7.25,12.48 -9.76,19.25 -59.93,-5.85 -120.07,-9.99 -179.61,-19.27 -36.53,-5.58 -72.14,-16.57 -105.83,-31.73 -27.8,-12.02 -53.44,-29.23 -74.45,-51.08 -11.97,-11.91 -21.48,-25.9 -31.7,-39.27 -27.68,-37.46 -41.19,-84.34 -40.78,-130.7 -0.46,-52.68 16.55,-105.69 49.79,-146.81 45.48,-56.89 113.53,-91.31 183.33,-108.14zm415.66 807.27c2.51,-12.64 6.01,-25.8 14.19,-36.04l-0.77 4.02c-0.69,2.72 -1.33,5.46 -1.83,8.25 -2.2,10.42 -1.94,21.23 -0.18,31.7 3.86,17.28 5.98,36.39 18.21,50.18 7.2,9.07 13.21,19.01 20,28.41 6.26,8.48 8.8,19.45 16.92,26.58 15.13,13.78 32.77,24.73 51.24,33.46 17.05,7.55 35.16,14.11 54.04,14.36 29.03,-0.21 56,-17.15 72.57,-40.37 6.4,-8.89 8.94,-20.16 16.48,-28.3 11.54,-10.97 24.96,-19.72 38.63,-27.81 17.32,-10.7 36.98,-18.15 51.33,-33.1 -2.74,10.33 -7.97,20.07 -15.68,27.56 -12.93,12.58 -30.24,18.91 -45.44,28.14 -18.08,10.63 -39.26,20.48 -48.18,40.82 -10.92,26.68 -35.13,47.23 -62.86,54.63 -26.74,7.07 -54.24,-2.53 -78.21,-14.1 -17.28,-8.52 -33.72,-18.99 -47.82,-32.16 -5.74,-4.89 -7.93,-12.27 -11.52,-18.61 -9.39,-16.11 -21.3,-30.51 -31.63,-45.96 -9.76,-22.31 -12.96,-47.57 -9.49,-71.66zm-127.25 -97.71c6.18,1.16 12.39,2.21 18.54,3.54 -6.33,1.83 -13.87,1.81 -18.54,-3.54zm71.48 -39.55l0.46 -0.22c0.27,0.77 0.8,2.33 1.07,3.11 -3.89,1.62 -7.77,3.31 -11.75,4.66 -0.55,0.91 -1.62,2.72 -2.15,3.61 -2.74,1.19 -5.6,2.38 -7.38,4.89 -5.92,1.21 -12.07,2.31 -18.03,0.87 -5.95,-1.28 -11.04,-5.62 -17.44,-4.92 2.14,-0.84 4.34,-1.57 6.58,-2.17l1.71 1.42c3.68,1.21 7.59,2.63 11.55,1.67 12.41,-2.24 24.13,-7.29 35.38,-12.92zm-119.52 -40.43c-5.08,-15.43 -5.88,-32 -5.05,-48.11 1.48,12.41 2.33,25.21 7.61,36.75 6.4,13.97 14.81,27.18 25.85,37.97 8.27,9.25 16.94,18.26 26.9,25.76 9.35,5.78 19.86,9.25 29.88,13.71 5.46,-0.73 10.92,-1.42 16.43,-1.71 -8.87,4.04 -19.04,7.38 -28.73,4.41 -34.47,-7.82 -60.48,-36.78 -72.89,-68.78zm263.27 -45.74c0.64,-2.63 1.94,-4.98 3.29,-7.29 -1.03,9.21 -3.73,18.13 -5.19,27.25 -1.08,8.09 -1.21,16.29 -2.74,24.34 -0.21,0.87 -0.62,2.61 -0.8,3.47 -4,12.17 -7.43,24.94 -15.04,35.46 6.85,-27.73 13.12,-55.62 20.48,-83.23zm556.11 -28.93c98.72,0.22 197.49,0.09 296.23,0.07 0.02,4.48 0.07,8.98 0.09,13.48 3.41,0.11 6.86,0.25 10.31,0.39 -0.05,23.79 0.09,47.59 -0.07,71.38 -11.56,3.2 -23.22,6.15 -34.44,10.43 -0.8,216.52 -0.1,433.07 -0.37,649.59 8.18,2.31 16.34,4.69 24.55,6.93 0,3.57 0,7.15 0.04,10.74 3.41,1.03 6.82,2.04 10.29,3.09 -0.02,23.73 0.05,47.45 -0.05,71.18 -98.76,0.02 -197.5,-0.16 -296.27,0.09 -0.16,-4.69 -0.39,-9.35 -0.53,-13.99 -3.36,0.07 -6.69,0.11 -10.01,0.21 0.05,-23.94 -0.13,-47.84 0.09,-71.75 11.64,-3.11 23.59,-5.31 34.63,-10.27 0.16,-79.38 0.35,-158.76 -0.09,-238.14 -123.34,0.29 -246.7,0 -370.06,0.13 -0.04,80.6 0.1,161.17 -0.06,241.74 8.39,2.35 16.8,4.55 25.23,6.72 -0.02,3.68 -0.02,7.36 0,11.09 3.22,0.8 6.45,1.6 9.69,2.44 -0.16,23.96 0.34,47.91 -0.27,71.86 -98.75,-0.34 -197.49,-0.09 -296.23,-0.11 -0.05,-4.57 -0.09,-9.12 -0.09,-13.67 -3.45,-0.11 -6.88,-0.16 -10.31,-0.23 0.18,-23.75 -0.18,-47.5 0.2,-71.22 11.64,-3.02 23.27,-6.15 34.54,-10.33 1.67,-37.08 0.28,-74.26 0.73,-111.39 0.12,-57.21 -0.2,-114.44 0.16,-171.65 6.75,2.54 13.28,5.67 19.91,8.5 -0.3,91 0.21,181.99 -0.23,272.96 0.37,18.56 -20.46,23.66 -34.67,27.52 -0.02,11.91 -0.02,23.84 0,35.75 85.32,-0.02 170.65,0 255.98,0 0,-11.93 -0.03,-23.86 0.02,-35.77 -9.97,-2.93 -20.87,-4.96 -28.78,-12.16 -6.24,-6.47 -6.49,-16.16 -6.72,-24.62 0.07,-87.04 0.02,-174.1 0.02,-261.14 140.62,0.02 281.22,-0.19 421.81,0.09 -0.14,88.55 -0.02,177.1 -0.05,265.65 0,7.65 -1.53,16.29 -7.97,21.28 -7.91,6.21 -18.06,8.18 -27.5,10.97 0.05,11.88 0.02,23.79 0.02,35.7 85.51,0.02 171.02,-0.05 256.51,0.02 0.09,-11.93 0.09,-23.86 0.02,-35.77 -10.65,-3.25 -22.84,-5.37 -30.54,-14.15 -6.81,-9.94 -4.41,-22.74 -4.87,-34.08 0.03,-209.51 0.05,-418.99 -0.02,-628.5 0.16,-7.95 0.59,-17.14 6.9,-22.9 8.03,-6.86 18.65,-9.15 28.53,-12.03 0.07,-11.77 0,-23.56 0.09,-35.33 -85.53,-0.26 -171.06,-0.05 -256.62,-0.12 0,11.89 0.03,23.75 -0.02,35.64 9.58,2.56 19.91,4.43 27.89,10.78 6.33,5.17 7.54,13.88 7.58,21.54 -0.02,78.49 -0.02,156.96 0,235.45 -89.85,0.07 -179.7,-0.05 -269.55,0.04 5.07,-6.26 9.67,-12.93 13.01,-20.29 78.65,-0.73 157.32,-0.03 236,-0.37 -0.14,-70.45 0.04,-140.91 -0.1,-211.36 -8.18,-2.01 -16.29,-4.18 -24.43,-6.24 -0.07,-3.68 -0.11,-7.38 -0.14,-11.06 -3.38,-0.83 -6.79,-1.65 -10.15,-2.45 -0.09,-24.11 -0.32,-48.25 0.14,-72.36zm-748.59 -47.04c1.09,0.18 3.29,0.57 4.38,0.77 10.61,2.08 21.38,3.91 31.52,7.84 4.92,2.61 9.56,5.72 14.47,8.39 1.76,4.8 2.77,10.06 5.9,14.22 4.76,4.3 10.74,6.88 16.46,9.67 0.18,0.84 0.59,2.53 0.8,3.38 0.84,5.58 0.68,11.22 0.87,16.85 -10.79,-4.76 -19.77,-12.55 -29.83,-18.5 -9.14,-12.27 -26.56,-16.43 -40.55,-10.55 -5.03,-6.66 -10.36,-13.56 -10.31,-22.34 2.15,-3.22 4.25,-6.46 6.29,-9.73zm-467.84 -15.16c21.07,8.21 41.78,17.3 62.79,25.67 0.2,3.31 0.38,6.65 0.61,10.01 3.25,1.19 6.47,2.38 9.72,3.57 0.71,10.7 -0.46,21.51 0.64,32.18 2.33,3.84 6.35,6.22 9.85,8.91 26.56,18.68 57.35,30.11 88.07,39.91 56.11,17.17 114.53,28.67 173.39,27.78 1.23,6.99 2.84,13.91 5.05,20.66 -54.47,0.55 -108.78,-7.75 -161.21,-22.24 -36.34,-10.08 -72.57,-22.29 -105.12,-41.67 -14.56,-9.21 -29.85,-19.5 -37.6,-35.48 -4.73,-9.25 -3.61,-19.93 -3.79,-29.96 -10.79,-4.46 -21.6,-8.94 -32.39,-13.4 -32.87,68.05 -66.52,135.73 -99.45,203.78 10.85,4.39 21.09,10.51 32.34,13.87 9.58,-4.62 18.51,-16.57 30.22,-11.61 18.12,6.31 35.45,14.65 53.23,21.85 83.61,34.45 172.69,56.09 263.02,61.81 68.18,4.27 136.96,-0.35 203.91,-14.13 -2.45,12.34 -3.73,24.89 -4.19,37.46 -60.52,10.7 -122.24,14.04 -183.61,11 -92.25,-4.94 -183.38,-26.2 -269.05,-60.64 -17.92,-6.97 -35.27,-15.36 -53.23,-22.2 -2.43,-0.73 -5.31,-2.44 -7.59,-0.36 -7.09,4.36 -13.56,9.64 -20.39,14.42 -20.53,-9.32 -41.07,-18.6 -61.65,-27.79 1.01,-2.63 2.02,-5.26 3,-7.87 -4.6,-1.94 -9.12,-4.02 -13.58,-6.21 39.18,-79.68 78.33,-159.39 117.01,-239.32zm958.1 31.84c1.6,-14.19 4.43,-28.98 13.17,-40.71 -3.23,13.37 -5.65,27.02 -5.44,40.83 0.09,16.27 0.41,33.71 9.37,47.93 8.87,14.74 25.73,25.05 43.22,23.65 17.9,-0.64 33.3,-11.74 44.34,-25.11 -7.4,25.23 -33.53,44.04 -59.95,41.39 -21.74,-2.01 -39.25,-20.76 -43.18,-41.67 -2.86,-15.24 -2.88,-30.9 -1.53,-46.31zm-554.49 -39.93c8.68,-1.53 17.44,-3.54 26.33,-2.65 5.05,7.24 10.54,14.15 15.63,21.37 -2.99,6.47 -4.89,13.35 -5.78,20.44 4.57,2.74 3.68,8.22 4.18,12.79 8.92,8.87 12.37,23.43 25.56,27.41 7.77,4.8 10.65,-7.38 18.01,-7.54 -0.25,1.64 -0.75,4.98 -1.01,6.63 3.13,0.04 5.9,0.98 8.28,2.83 8.32,7.84 22.26,6.33 28.57,16.89 5.69,0.12 10.81,6.04 9.71,11.73 2.75,3.11 5.79,5.99 9.37,8.18 -0.13,8.92 5.97,15.02 12.33,20.3 -1.31,-0.37 -3.91,-1.1 -5.22,-1.46 -12.98,-9.08 -20,-24.42 -32.98,-33.65 -10.67,-9.67 -25.85,-8.09 -38.81,-11.96 -11.89,-3.47 -25.6,-6.28 -33.26,-16.98 -7.86,-10.38 -17,-20.25 -21.44,-32.73 -4.13,-10.7 -4.07,-22.33 -4.29,-33.62 -14.43,8.34 -22.4,23.59 -30.18,37.69 -4.11,8.34 -9.82,16.71 -9.05,26.47 0.48,30.69 -0.64,62.31 9.3,91.79 0.64,7.32 5.95,12.98 9.56,19.06 -0.87,0.74 -2.58,2.22 -3.43,2.95 1.58,0.89 4.73,2.68 6.33,3.57 4.19,9.53 13.44,15.11 19.68,23.13 15.13,19.43 41.83,25.65 65.31,22.61 9.89,-2.72 20.22,-4.78 29.39,-9.65 12.48,-9.42 26.42,-16.96 37.21,-28.48 -7.59,25.1 -34.51,34.93 -55.38,46.42 -9.05,5.42 -20.32,5.4 -30.26,2.81 -8.44,-2.33 -17.51,-1.21 -25.76,-4.11 -13.12,-6.45 -22.75,-18.06 -35.55,-24.98 -3.61,-6.45 -9.3,-11.32 -13.46,-17.35 -1.69,-2.97 -5.6,-2.72 -8.05,-4.71 -1.25,-12.8 -15.13,-19.22 -17.37,-31.7 -6.06,-28.57 -1.03,-57.88 0.53,-86.65 -0.94,-15.77 8.64,-29.38 16.48,-42.15 1.58,-6.4 3.5,-12.76 8.57,-17.37 -1.76,0.34 -5.28,1.02 -7.04,1.37 8.8,-3.22 16.11,-9.08 22.1,-16.18 -1.03,-0.65 -3.08,-1.9 -4.11,-2.52zm300.68 -1.81c11.91,-2.49 24.48,-4.82 36.55,-2.17 6.77,3.68 12.89,8.69 20.53,10.63 6.63,8.71 16.89,16.05 28.36,14.47 8.03,3.04 13.03,11.16 19.07,17.01 -2.08,-0.92 -6.27,-2.77 -8.35,-3.68 5.49,8.91 12.6,17 16.44,26.88 -0.44,2.01 -0.94,4 -1.56,5.99 6.29,11.1 17.99,18.01 28.67,24.41 2.74,3.81 5.55,7.56 8.61,11.15 11.89,4.09 17.9,15.91 26.79,23.93l-1.51 0.64c-6.81,-8.18 -15.93,-13.96 -23.13,-21.78 -7.88,-5.92 -15.49,-12.23 -24.02,-17.24 -8.82,-6.05 -19.09,-12.16 -22.79,-22.81 -6.86,-19.52 -21.94,-34.6 -37.19,-47.93 -15.7,-13.83 -37.48,-22.47 -58.49,-17.78 -24.62,5.37 -44.68,22.79 -59.95,42.1 -6.01,7.11 -6.22,16.82 -8.41,25.44 -8.07,35.7 -15.32,71.64 -23.5,107.32 -7.34,17.18 -20.07,31.45 -31.25,46.24 -13.16,17.34 -29.28,32.48 -40.2,51.47 -13.9,23.52 -21.58,51.11 -19.89,78.49 1.88,18.38 3.16,37.14 9.81,54.56 8.98,25.56 28.59,48.02 54.42,57.31 17.92,6.14 31.95,20.09 50.01,25.94 -0.5,1.09 -1.51,3.24 -2.01,4.34 5.23,1.81 10.58,3.22 16.09,3.98 24.69,13.85 52.25,23.18 80.48,26.01 15.59,2.06 31.84,1.55 46.63,-4.18 11.29,-4 20.8,-11.75 32.05,-15.89 16.18,-6.24 30.35,-16.41 44.7,-25.94 11.48,-8.23 23.62,-15.86 33.08,-26.52 -0.12,2.54 -0.78,5.03 -2.9,6.66 -21.63,21.87 -47.87,38.42 -74.63,53.25 -23.36,12.12 -47.84,25.21 -74.81,25.53 -12.12,-2.21 -24.33,-3.65 -36.6,-4.45 -15.66,-7.98 -33.48,-10.79 -48.73,-19.84 -6.47,-4.41 -15.91,0.43 -21.53,-5.63 -6.22,-7.63 -16.18,-9.89 -24.32,-14.76 -14.4,-8.76 -31.98,-10.59 -45.88,-20.37 -12.64,-9.37 -24.89,-19.97 -32.61,-33.94 -24.62,-40.23 -28.87,-91.02 -16.12,-135.95 7.25,-29.81 26.63,-54.5 45.31,-78.08 8.43,-7.73 16.36,-16.23 21.16,-26.77 3.27,-8.07 10.06,-14.15 12.73,-22.45 7.43,-4.87 6.77,-14.47 8.23,-22.17 -0.66,-0.96 -1.99,-2.9 -2.65,-3.86 14.19,-25.14 20.05,-53.76 30.79,-80.34 -0.73,-0.92 -2.15,-2.75 -2.88,-3.64 1.99,-6.08 3.18,-12.62 6.79,-17.99 6.03,-7.61 14.56,-12.8 20.39,-20.61 11.26,-15.48 30.3,-22.52 48.22,-26.98zm196.99 -69.78l3.65 -1.94c-0.43,7.5 -3.24,14.67 -3.24,22.22 0.75,12.57 -8.05,23.08 -8.02,35.59 -3.18,4.18 -6.88,8.06 -9.29,12.77 -2.23,4.5 2.41,8.62 2.36,13.12 -1.74,3.04 -3.98,5.76 -6.13,8.5 -0.02,-1.75 -0.04,-5.3 -0.04,-7.08 -3.13,2.76 -6.17,5.6 -9.17,8.48 -13.25,0.09 -24.82,12.18 -38.26,6.15 -1.01,0.64 -3,1.94 -4,2.58 -3.45,-1.07 -6.93,-2.1 -10.38,-3.11 0.05,-6.9 -9.6,-6.6 -14.15,-9.48 -1.71,-8.26 -8.77,-12.51 -15.15,-16.94 12.8,0.73 21.81,12.16 34.67,12.32 5.72,0.53 11.3,-1.12 16.74,-2.65 10.14,-2.49 20.5,-5.58 28.48,-12.67 20.73,-15.97 31.24,-42.17 31.93,-67.86zm-397.15 -4.96c1.88,14.77 5.7,30.04 15.71,41.51 11.45,13.81 28.98,20.73 46.31,23.43 6.42,0.5 12.29,-2.84 17.98,-5.35l2.56 -1.21c-0.18,4.11 -1.85,7.84 -3.52,11.52 -3.1,0.07 -6.21,0.16 -9.32,0.23 -3.68,-1.81 -7.52,-3.25 -11.43,-4.39 3.82,8.14 12.73,10.12 20.89,10.56 -12.82,8.78 -28.59,4.05 -41.62,-1.56 -13.76,-5.87 -25.24,-17 -31.25,-30.72 -6.01,-13.76 -7.68,-29.16 -6.31,-44.02zm286.59 11.93c-4.16,-16.71 2.49,-33.73 11.4,-47.68 -3.59,11.09 -5.89,23.16 -2.15,34.54 4.16,14.56 15.45,29.03 31.14,31.54 10.83,1.74 20.11,-5.35 27.24,-12.61 -3.98,15.26 -17.03,30.19 -33.96,29.23 -17.74,-1.85 -30.08,-18.61 -33.67,-35.02zm186.85 -61.8c4.62,0.87 9.33,1.53 14.06,1.23l0.05 0.21c1.92,6.79 3.01,13.76 3.63,20.8 -3.34,-0.83 -6.72,-1.63 -10.06,-2.43 3.87,20.8 6.29,42.43 0.42,63.11 -13.03,9.9 -23.87,22.36 -33.17,35.73 -6.88,10.4 -13.17,21.67 -15.2,34.12 -1.44,8.48 0.46,16.99 1.76,25.35 -0.18,4.83 -2.35,9.1 -5.12,12.94 5.39,9.23 6.54,19.8 6.83,30.29 2.86,0.73 5.72,1.46 8.6,2.24 -0.3,2.63 -0.62,5.25 -0.92,7.9 1.44,0.03 4.35,0.07 5.79,0.1 5.03,10.65 11.77,20.7 20.84,28.32 -3.15,-0.71 -6.31,-1.33 -9.44,-1.9 -1.89,2.31 -3.79,4.62 -5.69,6.92 0.94,1.28 2.79,3.82 3.73,5.1 0.96,-0.91 2.85,-2.74 3.79,-3.65 2.45,1.37 4.94,2.74 7.41,4.11 -1.03,0.87 -3.07,2.65 -4.1,3.54 6.41,-0.2 12.87,-0.39 19.12,-2.06 2.65,1.4 5.25,2.91 8.02,4.16 8,3.37 17.89,-4.54 24.98,1.74 2.01,-1.32 4.05,-2.65 6.08,-3.95 16.64,-4.28 31.63,-14.59 42.42,-27.87 10.91,-11.1 21.15,-23.31 25.69,-38.51l1.56 -2.12c-1.92,17.23 -9.46,33.32 -18.81,47.72 -5.1,8.41 -13.74,13.65 -19.61,21.39 -9.28,3.75 -17.6,9.88 -27.66,11.55 -2.29,1.94 -3.57,6.17 -7.02,5.99 -9.55,-2.63 -18.63,2.19 -27.56,4.84 -16.1,2.7 -33.44,-0.87 -46.79,-10.4 -15.89,-10.79 -26.08,-28.16 -31.66,-46.21 -5.72,-18.84 -12.62,-37.77 -12.98,-57.65 -2.65,-9.01 -4.55,-18.1 -3.96,-27.54 3.64,-6.79 9.1,-14.24 6.91,-22.34 11.74,-8.48 20.96,-19.9 32.84,-28.2 -0.37,-0.96 -1.1,-2.86 -1.46,-3.82 9.64,-5.3 18.06,-12.46 25.64,-20.39 3.68,-4.77 1.17,-11.13 2.02,-16.59 0.38,-5.74 2.72,-14.52 -5.01,-16.21 -5.12,-1.09 -6.54,-5.99 -7.27,-10.51 1.35,1.01 4.09,3.04 5.44,4.05 -0.91,-8.42 1.46,-16.55 3.13,-24.69 3.29,-6.1 8.51,-10.95 12.73,-16.41zm-164.96 -6.13c2.47,-7.72 3.62,-15.75 4.6,-23.77 1.42,0.21 4.2,0.59 5.6,0.8 -1.83,8.25 -5.56,15.95 -10.2,22.97zm-228.06 -25.99c29.09,10.93 57.71,23.98 82.9,42.38 16.91,12.55 31.95,27.61 44.75,44.32 11.29,15.43 23.45,30.4 32.23,47.52 -8.78,-0.87 -17.6,-0.85 -26.4,-0.5 -13.21,-26.47 -31.84,-50.33 -54.86,-68.99 -23.56,-19.2 -51.38,-32.29 -79.56,-43.24l-1.44 -0.55c1.48,-6.9 2.19,-13.92 2.38,-20.94zm-79.09 -26.58c13.37,-2.61 26.38,-6.9 39.84,-8.96 4.57,1.71 3.93,7.31 6.26,10.83 4.62,7.87 9.19,15.84 12.35,24.44 2.65,9.92 -5.92,19.52 -1.35,29.14 1.71,4.82 3.97,9.44 6.08,14.1 13.85,3.59 26.83,10.22 38.12,18.98 3.23,2.92 7.82,2.58 11.71,4.06 3.63,2.13 6.62,5.6 11.04,6.18 3.08,6.21 6.3,12.39 9.94,18.3 1.07,-0.09 3.22,-0.27 4.3,-0.36 -0.92,14.51 -0.37,29.28 -4.16,43.45l4.04 -0.18c-1.69,6.6 -5.21,12.75 -5.51,19.68 0,12.16 -9.39,21.55 -10.58,33.51 -4.14,4.43 -8.87,8.34 -12.41,13.28 -1.12,3.74 1.12,7.72 0.09,11.54 -2.35,3.54 -6.42,5.46 -9.74,8 0.87,-1.72 2.65,-5.14 3.52,-6.86 -5.6,1.67 -11.06,6.33 -17.16,4.32 -8.35,-0.71 -16.67,-1.46 -24.87,-3.18 -3.27,-3.2 -6.84,-6.69 -11.75,-4.91 -2.9,-2.74 -8.05,-4.71 -6.83,-9.55 -3.55,-2.27 -7.23,-4.3 -10.88,-6.31 -0.55,-7.84 -7.32,-11.25 -13.31,-14.7 15.04,-1.07 23.87,14.58 38.65,15.13 15.25,3.2 32.46,0.25 44,-10.79 17.12,-16.09 22.84,-40.96 22.24,-63.72 -1,-17.56 -5.92,-38.54 -23.36,-46.81 -14.69,-7.39 -27.72,-18.79 -44.25,-21.97 -12.89,-2.38 -18.51,-16 -24.57,-26.08 0.64,-0.48 1.9,-1.44 2.54,-1.92 -0.46,-2.95 -0.92,-5.9 -1.28,-8.84 -0.37,-0.85 -1.1,-2.54 -1.46,-3.41 2.69,-3.57 7.15,-6.45 8.02,-11.02 -1.58,-6.19 -4.87,-11.75 -8.02,-17.23 0.36,-1.28 1.09,-3.82 1.46,-5.1 -1.83,-0.16 -5.46,-0.46 -7.27,-0.62 -1.69,-2.21 -3.48,-4.34 -5.17,-6.51 -5.69,9.12 -14.01,16.11 -20.2,24.82 -16.85,22.63 -28.12,50.33 -27.43,78.86 0.64,9.39 -0.57,19.18 2.81,28.18 3.29,9.62 4.3,19.77 5.88,29.76 0.2,1.67 0.57,5.01 0.77,6.7 -16.73,-21.74 -17.07,-50.38 -19.17,-76.41 2.9,-25.58 14.3,-49.24 26.03,-71.77 4.43,-4.78 9.67,-9.35 11.04,-16.05zm316.78 -30.47c1.62,-0.43 4.84,-1.32 6.47,-1.78 3.65,2.9 7.72,5.3 11.29,8.34 7.45,7.32 10.4,17.6 14.6,26.86 2.47,6.4 9.53,8.84 14.11,13.46 6.17,6.2 11.86,13.3 14.46,21.76 1.88,6.68 8.44,10.52 10.5,17.12 0.7,-0.23 2.14,-0.66 2.85,-0.89 -0.77,6.77 -0.02,13.49 3.34,19.52 0.98,-1.03 2.97,-3.09 3.95,-4.11 -5.18,12.61 -0.5,26.42 -2.65,39.56 -0.73,-9.23 -1.8,-18.51 -5.3,-27.15 -7.57,-20.51 -14.4,-41.65 -26.42,-60.09 -4.83,-8.23 -14.77,-11.09 -20.48,-18.47 -6.31,-8.07 -10.24,-17.65 -15.91,-26.15 -4.32,-1.88 -8.57,-4 -12.32,-6.88l1.51 -1.1zm-65.83 16.23c6.26,-13.23 12.43,-26.54 18.97,-39.66 5.53,0.69 11.09,0.12 16.64,-0.16 14.29,2.31 26.79,11.04 36.91,21.03 -3.84,1.01 -7.61,1.19 -11.33,0.53 -10.24,-8.89 -23.43,-13.21 -36.69,-14.86 5.26,6.83 10.7,13.58 14.79,21.21 -4.82,-1.12 -8.27,-4.91 -10.01,-9.39 -4.07,-0.71 -8.14,-1.44 -12.18,-2.29 -2.15,4.39 -4.23,8.8 -6.29,13.21 1.07,0.96 3.22,2.91 4.27,3.87 -0.8,0.91 -2.4,2.74 -3.2,3.65 1.38,0.78 4.12,2.31 5.49,3.07 4.91,9.34 12.07,17.87 12.73,28.89 -3.52,4.66 -6.63,9.62 -9.46,14.72 -8.87,8.71 -11,21.51 -15.09,32.75 -3.13,10.56 -12.61,18.7 -12.61,30.24 0.22,15.27 4.38,30.06 8.47,44.66 -15.58,-14.53 -18.3,-38.67 -14.14,-58.6 4.61,-12.3 7.04,-25.49 13.78,-36.94 5.97,-10.4 10.81,-21.96 20.14,-29.9 -10.43,-1.85 -8.35,-19.42 -19.48,-18.42 -0.57,-2.54 -1.14,-5.07 -1.71,-7.61z"/>
   <path class="fil3" d="M444.91 157.35c54.77,-16.41 112.23,-21.44 169.17,-21.97 56.69,0.32 113.6,5.28 168.78,18.72 40.52,9.95 80.23,22.88 119.47,36.96 22.77,8.14 45.14,17.37 68.41,24.03 7.5,2.14 15.68,3.08 23.2,0.48 8.05,-2.77 15.25,-7.52 23.32,-10.27 -3.89,10.33 -10.06,19.57 -15.34,29.19 -24.82,43.93 -49.37,88.02 -74.35,131.82 -0.78,0.32 -2.34,0.96 -3.11,1.26 -1.76,-7.52 -2.17,-15.64 -6.84,-22.13 -10.97,-16.64 -28.75,-26.81 -45.44,-36.82 -67.59,-40.03 -145.83,-59.93 -223.98,-63.32 -44.36,-2.12 -89.23,0.41 -132.59,10.43 -26.4,5.92 -52.04,17.12 -72.39,35.2 -15.63,13.92 -28.39,32.7 -30.15,54.05 -2.05,18.88 5.01,38.59 19.32,51.23 17.35,15.33 40.18,22.78 62.65,26.53 87.91,14.36 177.23,16.67 265.39,28.85 -8.36,21.99 -17.16,46.03 -11.11,69.74 2.38,26.97 7.98,56.66 29.08,75.61 2.01,2.06 3.54,4.5 5.14,6.88 -7.86,-1.44 -15.75,-2.81 -23.54,-4.57 -0.85,-0.21 -2.56,-0.64 -3.43,-0.85 -7.54,-9.92 -13.1,-23.82 -26.03,-27.59 -9.99,-3.36 -17.63,6.13 -27.25,6.47 -8.04,0.43 -14.56,5.62 -18.33,12.48 -67.89,-6.63 -136.02,-11.11 -203.57,-20.73 -35.68,-4.66 -70.65,-14.49 -103.49,-29.19 -29.31,-12.39 -56.07,-31.43 -75.82,-56.53 -19.29,-23.81 -32.21,-52.73 -36.66,-83.08 -7.43,-50.06 1.78,-103.93 31.86,-145.42 35.11,-49.37 90.49,-80.43 147.63,-97.46zm626.13 992.23c20.82,-5.49 39.86,-15.8 58.93,-25.53 0.02,91.61 0.09,183.24 -0.05,274.85 -0.28,12.05 1.39,24.94 9.17,34.68 6.62,8.96 17.66,12.36 27.06,17.53 -37.01,0.73 -74.06,0.11 -111.09,0.32 -36.02,-0.37 -72.09,0.75 -108.09,-0.57 9.4,-4.73 20.12,-8.14 26.97,-16.6 8.12,-9.8 9.88,-23.06 9.79,-35.38 -0.1,-84.23 0.04,-168.48 -0.07,-252.71 28.93,2.61 58.58,11.77 87.38,3.41zm483.36 -441.12c56.8,-1.08 113.65,-0.16 170.49,-0.46 16.23,0.37 32.55,-0.91 48.76,0.82 -8.53,4.48 -18.04,7.68 -24.96,14.61 -7.94,8.14 -11.18,19.75 -11.27,30.88 0,211.77 0.02,423.54 -0.03,635.29 -0.06,13.67 -1.18,28.53 6.52,40.57 6.49,11 18.99,15.52 29.94,20.69 -17.07,1.16 -34.17,0.32 -51.24,0.57 -56.05,-0.18 -112.1,0.37 -168.12,-0.27 9.37,-5.12 20.3,-8.58 27,-17.4 8.57,-10.33 9.57,-24.39 9.66,-37.23 -0.06,-92.94 0.03,-185.88 -0.04,-278.81 -150.08,0.06 -300.14,-0.12 -450.22,0.09 23.73,-14.95 47.48,-30.49 66.7,-51.18 15.82,-20.85 38.56,-34.74 60,-49.12 3.86,-2.33 7.54,-5.74 12.27,-6.1 103.75,0.02 207.5,0.02 311.25,0 0.04,-82.68 -0.02,-165.35 0.04,-248.03 -0.04,-12.98 -1.09,-27.01 -9.41,-37.64 -6.79,-8.87 -17.95,-12.12 -27.34,-17.28zm-692.62 -36.46c10.31,1.74 19.75,9.05 30.47,5.87 -0.14,11.78 0.39,23.55 -0.11,35.32 -1.01,10.31 -8.71,18.15 -11.98,27.66 -1.92,5.94 2.4,13.12 -1.55,18.35 -1.86,-8.41 -2.5,-16.96 -2.27,-25.55 -2.58,-7.34 -9.8,-11.68 -13.3,-18.47 -1.74,-6.04 -2.45,-12.35 -5.01,-18.13l0.19 -0.91c1.8,-7.96 2.97,-16.03 3.56,-24.14zm-169.14 -9.62c1.33,9.39 1.05,19.47 6.19,27.81 6.93,12.64 22.27,19.84 36.44,17.79 14.83,-1.19 29.9,-0.64 44.57,1.92 12.91,4.2 25.6,11.61 33.32,23.06 2.15,2.42 4.8,4.32 7.34,6.33 2.84,5.76 5.85,11.48 7.36,17.76 4.64,3.2 2.42,8.25 1.33,12.73 -6.38,0.96 -12.57,3.02 -17.74,7 1.17,1.55 3.45,4.66 4.62,6.21 -11.25,5.63 -22.97,10.68 -35.38,12.92 -3.96,0.96 -7.87,-0.46 -11.55,-1.67l4.51 -1.92c-3.73,-0.3 -7.75,-0.37 -9.83,-4.07 -1.35,1.44 -2.72,2.9 -4.09,4.34 -4.67,-4.41 -10.06,-7.84 -15.8,-10.6 -6.86,-3.43 -10.33,-13.6 -18.97,-12.82 -11.04,-10.79 -19.45,-24 -25.85,-37.97 -5.28,-11.54 -6.13,-24.34 -7.61,-36.75 -0.99,-10.7 0.43,-21.4 1.14,-32.07zm-453.1 156.57c27.23,-54.24 53.08,-109.17 80.46,-163.34 3.77,7.82 3.2,16.87 6.72,24.78 6.47,15.18 18.42,27.31 31.63,36.84 27.43,19.89 59.13,32.76 91.02,43.59 54.77,17.9 111.7,29.88 169.33,32.64 13.19,0.67 26.42,-0.13 39.63,0.42 4.92,0 5.46,5.94 7.68,9.14 1.9,4.73 6.74,6.97 10.63,9.78 1.99,6.4 5.35,12.69 11.72,15.59 15.39,7.72 26.72,21.39 42.18,28.98 10.44,5.79 22.88,3.86 34.15,6.88 14.94,3.71 30.33,0.02 44.59,-4.73 -4.27,8.57 -8.05,17.39 -10.95,26.52l-0.71 0.15c-66.92,14.93 -135.93,19.23 -204.32,15.64 -95.86,-5.44 -190.26,-29.65 -278.12,-68.09 -15.13,-6.22 -30.02,-13.79 -46.15,-17.01 -12.09,-2.03 -20.76,8.76 -31.84,10.72 0.11,-2.99 1.05,-5.85 2.35,-8.5zm796.76 -198.04c11.43,-2.74 25.92,-0.57 31.93,10.75 14.49,24.11 27.11,49.3 39.15,74.69 1.44,3.04 3.43,5.86 6.01,8.1 19.39,17.09 39.25,33.66 58.36,51.06 13.05,17.03 24.25,35.5 35.86,53.53 10.26,17.3 22.88,34.45 24.39,55.18 6.65,25.39 9.8,56.39 -9.33,77.37 -14.35,14.95 -34.01,22.4 -51.33,33.1 -13.67,8.09 -27.09,16.84 -38.63,27.81 -7.54,8.14 -10.08,19.41 -16.48,28.3 -16.57,23.22 -43.54,40.16 -72.57,40.37 -18.88,-0.25 -36.99,-6.81 -54.04,-14.36 -18.47,-8.73 -36.11,-19.68 -51.24,-33.46 -8.12,-7.13 -10.66,-18.1 -16.92,-26.58 -6.79,-9.4 -12.8,-19.34 -20,-28.41 -12.23,-13.79 -14.35,-32.9 -18.21,-50.18 -0.64,-10.56 -0.14,-21.14 0.18,-31.7 0.5,-2.79 1.14,-5.53 1.83,-8.25 4.59,-12.96 10.15,-25.62 18.51,-36.64 12.87,-23.43 23.91,-47.96 38.86,-70.22 8.46,-10.35 8.36,-24.41 11.75,-36.78 0.18,-0.86 0.59,-2.6 0.8,-3.47 4.59,-16.75 8.23,-33.76 12.59,-50.58 3.27,-12.14 5.05,-25.37 13.67,-35.16 14.01,-16.8 33.46,-29.53 54.86,-34.47zm-72.07 -89.82c12.36,14.08 24.55,28.52 33.3,45.23 -13.74,3.75 -27.02,9.03 -39.34,16.21 1.74,-6.13 4.58,-12.23 4.19,-18.75 -1.47,-14.21 -0.05,-28.59 1.85,-42.69zm360.2 -14.54c12.92,13.12 21.88,29.53 29.92,45.94 12.55,26.95 21.51,56.53 19.48,86.54 -0.96,12.32 -4.07,25 -11.57,35.09 -11.04,13.37 -26.44,24.47 -44.34,25.11 -17.49,1.4 -34.35,-8.91 -43.22,-23.65 -8.96,-14.22 -9.28,-31.66 -9.37,-47.93 -0.21,-13.81 2.21,-27.46 5.44,-40.83 2.88,-10.17 9,-19.13 16.34,-26.58 9.76,-9.49 20.39,-18.33 33.07,-23.59 10.72,-6.42 3.89,-20.32 4.25,-30.1zm-520.8 4.5c-1.32,-11.56 0.44,-23.24 3,-34.54 2.74,12.94 15.88,19.68 27.02,24.35 16.52,1.78 35.06,2.72 47.74,14.99 10.38,9.01 11.52,23.59 12.6,36.32 0.46,4.12 -2.24,7.5 -5.21,9.94 0.02,1.38 0.02,4.07 0.04,5.44 -1.44,-0.54 -4.34,-1.64 -5.78,-2.19 0.16,1.33 0.46,3.95 0.59,5.28 -5.69,2.51 -11.56,5.85 -17.98,5.35 -17.33,-2.7 -34.86,-9.62 -46.31,-23.43 -10.01,-11.47 -13.83,-26.74 -15.71,-41.51zm320.37 -96.39c22.81,6.24 35.25,29.38 40.73,50.77 4.89,20.75 6.1,45.19 -6.88,63.34 -7.13,7.26 -16.41,14.35 -27.24,12.61 -15.69,-2.51 -26.98,-16.98 -31.14,-31.54 -3.74,-11.38 -1.44,-23.45 2.15,-34.54 2.45,-7.22 6.33,-13.87 10.49,-20.25 4.64,-7.02 8.37,-14.72 10.2,-22.97 1.19,-5.74 1.35,-11.61 1.69,-17.42z"/>
  </g>
 </g>
</svg>
