<?xml version="1.0" encoding="UTF-8"?>
<!DOCTYPE svg PUBLIC "-//W3C//DTD SVG 1.1//EN" "http://www.w3.org/Graphics/SVG/1.1/DTD/svg11.dtd">
<!-- Creator: CorelDRAW -->
<svg xmlns="http://www.w3.org/2000/svg" xml:space="preserve" width="2000px" height="1600px" version="1.1" style="shape-rendering:geometricPrecision; text-rendering:geometricPrecision; image-rendering:optimizeQuality; fill-rule:evenodd; clip-rule:evenodd"
viewBox="0 0 2000 1600"
 xmlns:xlink="http://www.w3.org/1999/xlink">
 <defs>
  <style type="text/css">
   <![CDATA[
    .fil1 {fill:#101F3D;fill-rule:nonzero}
    .fil2 {fill:#C8C9CC;fill-rule:nonzero}
    .fil0 {fill:#FEFEFE;fill-rule:nonzero}
   ]]>
  </style>
 </defs>
 <g id="Capa_x0020_1">
  <metadata id="CorelCorpID_0Corel-Layer"/>
  <g id="Samford_x0020_Bulldogs.cdr">
   <path class="fil0" d="M1672.46 1098.19c50.91,0.13 101.82,-0.02 152.72,0.05 15.22,0.19 32.45,5.35 39.48,20.17 10.95,25.4 7.58,53.96 3.14,80.46 -4.64,24.12 -9.95,48.48 -20.88,70.66 -6.69,14.21 -18.03,26.88 -32.95,32.5 -13.72,5.22 -28.44,7.51 -43.06,7.37 -43.71,-0.19 -87.43,0.14 -131.12,-0.17 2.6,-23.81 7.83,-47.23 11.58,-70.85 6.73,-41.08 13.69,-82.1 20.99,-123.07 1.2,-5.66 0.88,-11.46 0.1,-17.12zm-1003.78 0c28.39,0.04 56.76,0.05 85.15,0.05 0.63,14.38 2.57,28.64 3.83,42.97 2.76,25.03 4.41,50.2 8.29,75.08 16.54,-31.63 31.96,-63.85 48.17,-95.64 3.9,-7.3 6.56,-15.42 11.81,-21.92 4.69,-0.9 9.49,-0.65 14.26,-0.63 18.52,0.35 37.04,-0.08 55.58,0.2 3.19,23.66 3.23,47.62 5.29,71.41 2.15,31.57 3.87,63.17 6.2,94.72 0.06,14.99 3.05,29.85 1.97,44.85 -22.25,0.19 -44.48,0.02 -66.71,0.08 2.6,-11.12 0.38,-22.49 -0.78,-33.62 -2.92,-36.95 -6.32,-73.83 -9.55,-110.76 -4.51,8.64 -9.25,17.14 -13.03,26.13 -9.51,22.43 -22.14,43.36 -31.53,65.84 -7.75,16.99 -16.91,33.31 -24.67,50.32 -19.7,0.37 -39.41,0.22 -59.13,0.09 -2.99,-19.91 -4.6,-39.96 -7.01,-59.92 -2.61,-26.54 -6.58,-52.93 -8.73,-79.5 -5.79,6.48 -7.81,15.13 -11.38,22.87 -14.97,34.3 -29.73,68.7 -44.57,103.05 -1.68,4.36 -2.82,8.88 -3.98,13.41 -12.92,0.31 -25.83,0.28 -38.74,0.03 25.94,-63.48 52.94,-126.54 79.44,-189.81 2.51,-6.22 0.84,-12.95 -0.18,-19.3zm-481.33 5.08c12.23,-3.94 25.2,-4.91 37.98,-5.12 38.63,0.26 77.28,-0.11 115.91,0.21 -2.32,12.89 -4.88,25.75 -6.67,38.74 -9.83,-3.74 -20,-7.63 -30.69,-7.25 -14.39,0.17 -28.76,-0.02 -43.13,0.02 -11.96,0.31 -25.68,3.45 -32.43,14.33 -4.69,7.65 -9.59,17.83 -4.52,26.47 4.02,8.84 13.53,12.98 22.46,15.1 22.19,5.68 45.7,-1.8 67.66,5.1 7.55,1.83 11.66,9.06 14,15.9 4.28,11.8 0.93,24.43 -0.68,36.41 -2.44,18.05 -7.68,36.11 -17.62,51.51 -10.39,12.44 -28.13,13.36 -43.12,14.57 -43.69,0.23 -87.41,0.06 -131.12,0.04 0.67,-17.01 4.22,-33.69 6.41,-50.53 5.46,4.69 11.38,9.27 18.5,11.02 15.12,4.04 30.9,1.52 46.33,2.32 14.93,0.77 31.03,-1.64 42.93,-11.38 10.54,-9.29 14.41,-29.72 0.62,-37.94 -17.89,-9.61 -39.04,-6.47 -58.54,-6.75 -12.24,0.23 -25.84,-3.02 -33.77,-13.02 -4.02,-4.69 -3.55,-11.2 -3.74,-16.95 -0.33,-16.71 2.62,-33.29 7.05,-49.33 3.94,-13.86 12.41,-27.71 26.18,-33.47zm787.96 -6.99c59.68,0.28 119.33,-0.17 179.01,0.25 -2.94,13.73 -5.59,27.52 -8.34,41.28 -4.65,-3.49 -9.48,-6.93 -14.95,-8.99 -6.52,-1.38 -13.25,-0.8 -19.85,-0.84 -24.01,0.43 -48.03,-0.62 -72.03,0.56 -2.8,19.27 -6.78,38.35 -10.11,57.54 31.77,0.15 63.55,-0.26 95.32,0.15 -2.26,11.03 -4.3,22.13 -6.09,33.25 -31.65,0.43 -63.31,-0.02 -94.95,0.17 -6.39,29.1 -10.48,58.67 -16.87,87.78 -21.27,0.02 -42.52,0.17 -63.79,-0.09 5.1,-39.3 13.1,-78.18 19.34,-117.31 3.44,-20.19 6.58,-40.43 10.34,-60.57 1.74,-10.96 5.27,-22 2.97,-33.18zm-691.33 -78.9c3.32,5.36 7.19,10.56 9.14,16.65 1.12,5.34 -0.62,10.78 -2.04,15.92 -0.54,1.2 -1.63,3.61 -2.17,4.8 -3.06,-3.81 -7.61,-7.34 -7.55,-12.69 -0.54,-8.31 1.2,-16.54 2.62,-24.68zm550.28 -9.39c11.55,3.76 21.33,11.16 32.28,16.21 -0.19,4.45 -0.21,8.88 -0.11,13.32 -6.08,-4.2 -11.38,-9.28 -16.65,-14.41 -5.61,-4.57 -11.35,-9.12 -15.52,-15.12zm-14.41 -2.22c7.22,5.48 14.53,11.12 19.93,18.48 1.53,4.27 0.6,8.96 0.76,13.39 -11.19,-6.96 -15.32,-20.54 -20.69,-31.87zm-218.79 -1.83c4.91,6.02 10.91,11.79 12.69,19.66 0.99,6.34 0.24,12.78 -0.17,19.16 -10.58,-9.82 -10.2,-25.59 -12.52,-38.82zm-33.36 -0.21c5.53,6.04 11.16,12.32 13.88,20.21 1.46,6.16 0.92,12.61 1.03,18.91 -3.27,-3.23 -7.79,-5.85 -9.02,-10.56 -2.7,-9.34 -4.25,-18.99 -5.89,-28.56zm-31.75 28.67c0.67,-10.97 6.01,-20.85 10.67,-30.55 2.69,6.65 4.09,13.79 3.19,20.97 -1.53,4.63 -2.48,9.49 -4.56,13.92 -0.63,1.18 -1.9,3.49 -2.52,4.65 -2.43,-2.86 -5.16,-5.57 -6.78,-8.99zm315.56 -35.81c4.47,1.33 8.99,2.56 13.44,3.99 8.06,4.24 16.02,8.82 23.75,13.67 0.1,2.88 0.3,5.74 0.45,8.62 0.02,4.15 -0.16,8.3 -0.2,12.45 -4.67,-6.19 -10.08,-12.11 -17.16,-15.53 -6.52,-3.11 -13.36,-5.48 -19.94,-8.41 -0.06,-4.94 -0.17,-9.87 -0.34,-14.79zm-587.55 13.09c1.93,-7.09 4.5,-13.98 7.91,-20.52 -0.34,5.86 -0.6,11.75 -1.39,17.58 -2.02,14.45 -2.35,29.44 -8.13,43.06 -4.87,-1.18 -6.37,-7.19 -6.95,-11.53 0.99,-9.98 5.83,-19.03 8.56,-28.59zm173.92 -23.96c6.19,4.63 12.73,8.93 18.06,14.58 5.15,5.41 8.18,12.39 10.59,19.34 1.33,3.87 1.84,7.98 2.06,12.05 -1.63,5.91 -3.55,11.74 -5.29,17.63 -7.68,-21.53 -18.95,-41.66 -25.42,-63.6zm423.33 -146.86c6.81,-8.41 14.04,-16.45 22.11,-23.66 -6.71,31.86 -18.71,62.47 -24.11,94.64 -0.99,6.52 -3.47,12.65 -5.51,18.89 -3.85,11.46 -6.17,23.36 -10.02,34.82 -1.57,3.89 -3.21,7.74 -4.82,11.63 -2.09,0.54 -4.19,1.08 -6.26,1.62 0.65,-32.5 4.6,-64.85 5.85,-97.33 0.47,-6.67 0.15,-14.06 4.39,-19.68 5.51,-7.48 12.49,-13.74 18.37,-20.93zm-506.96 -56.65c0.84,-2.88 1.66,-5.81 3.16,-8.43 0.78,15.94 0.65,31.92 0.41,47.88 -2.54,20.82 -0.95,42.18 -6.39,62.61 -4.66,13.35 -17.65,21.12 -30.28,25.68 -11.21,4.26 -23.47,3.51 -35.21,2.62 8.3,-6.94 18.13,-11.8 25.81,-19.5 8.99,-8.61 18.95,-17.3 22.78,-29.58 9.12,-26.39 15.05,-53.79 19.72,-81.28zm224.63 20.95c18.87,-11.18 36.96,-23.64 56.29,-34.07 -3.54,16.3 -10.04,31.72 -14.82,47.64 -9.8,29.58 -19.4,59.21 -28.6,88.96 -3.57,17.18 -5.72,34.65 -7.49,52.09 0.65,-0.17 2,-0.49 2.67,-0.66 5.01,-1.1 9.98,-2.33 15.03,-3.21 -0.64,1.08 -1.89,3.29 -2.53,4.39 -9.4,9.92 -19.25,19.49 -27.73,30.26 -3.98,4.97 -9.01,8.95 -13.5,13.45 4.53,-47.58 10.13,-95.09 15.26,-142.63 1.94,-18.73 4.84,-37.38 5.42,-56.22zm107.5 -250.98c11.81,3.37 22.93,8.56 34.07,13.65 25.08,10.95 49.71,22.96 73.3,36.85 13.75,7.27 25.99,16.95 39.43,24.73 4.33,2.95 5.98,8.95 10.75,11.23 4.87,-2.97 6.87,-9.53 10.65,-13.9 11.55,-14.86 20.5,-31.55 32.14,-46.32l1.37 0.15c6.65,17.85 11.57,36.33 17.25,54.52 2.78,9.01 6.13,18.84 2.56,28.11 -13.55,28.91 -25.12,61.75 -52.65,80.51 1.72,-7.68 3.07,-15.46 4.17,-23.27 -20.43,17.42 -41.1,34.61 -63.36,49.66 -18.15,12.09 -36.27,25.14 -57.56,31.08 17.51,-22.6 36.8,-44.78 46.39,-72.2 4.65,-14.03 4.37,-29.68 -0.77,-43.54 -11.68,-32.71 -32.31,-61.28 -54.96,-87.24 -13.46,-15.44 -29.23,-28.66 -42.78,-44.02zm-130.64 13.2c13.9,-19.5 24.54,-41.18 39.51,-59.94 19.77,11.96 40.89,21.53 60.61,33.59 -10.36,-0.83 -21.37,-2.9 -31.2,1.57 -15.6,6.29 -26.54,19.79 -36.29,32.93 -23.21,31.38 -39.14,67.58 -50.2,104.84 -1.85,7.8 -4.71,15.29 -7.46,22.78 -2.09,-16.31 0.53,-32.65 2.06,-48.87 1.77,-20.11 7.16,-39.58 11.74,-59.15 2.91,-9.53 6.29,-19.06 11.23,-27.75zm90.86 -103.71c1.26,-5.08 2.6,-10.45 6.3,-14.39 3.09,7.68 3.98,16.03 7.03,23.74 4.64,12.01 10.63,23.58 18.52,33.8 5.83,7.63 14.75,11.76 22.88,16.39 23.73,12.47 47.88,24.39 73.28,33.12 3.34,1.03 6.13,3.2 8.71,5.48 -25.07,-3.67 -50,-8.49 -74.71,-14.08 -16.98,-4.54 -35,-7.64 -49.99,-17.3 -10.05,-6.56 -13.47,-18.67 -15.15,-29.87 -2.55,-12.35 0.39,-24.85 3.13,-36.89zm257.95 -63.77c5.82,-5.73 13.74,-8.93 21.5,-11.02 5.49,1.15 10.87,2.8 16.44,3.66 9.22,24.43 2.21,51.08 -6.37,74.63 -1.8,1 -3.57,2.01 -5.33,3.04 -1.23,-4.73 -0.24,-11.38 -5.59,-13.7 -4.44,-3.1 -11.34,-5.66 -10.42,-12.33 0.02,-14.95 13.04,-24.67 20.59,-36.19 2.1,-2.39 1.96,-5.75 2.71,-8.68 -5.03,-0.02 -10.09,-0.12 -15.06,0.57 -6.13,0.73 -12.34,0.64 -18.47,0.02zm-40.27 -42.12c6.88,-2.51 13.77,-5.42 20.93,-6.99 9.7,-0.11 20.11,1.38 28.3,6.97 7.55,5.89 4.71,16.28 5.15,24.5 -4.13,2.93 -8.48,5.57 -12.91,8.04 -4.32,2.31 -8.28,5.53 -10.34,10.09 -7.28,13.06 -7.23,28.37 -9.56,42.74 -5.05,-9.47 -7.69,-19.88 -10.58,-30.14 -1.82,-7.24 -6.88,-12.82 -12.02,-17.93 -4.11,2.04 -8.22,4.06 -12.32,6.08 1.76,-6.41 3.59,-12.82 5.52,-19.2 -4.28,1.48 -8.54,2.97 -12.8,4.43 4.26,-11.16 11.55,-20.87 20.63,-28.59zm40.8 -18.17c7.66,-1.14 14.03,4.58 17.68,10.73 8.01,12.97 20.37,22.82 26.67,36.89 9.21,20.2 17.73,41.62 17.81,64.14 -7.68,-8.78 -7.8,-20.87 -11.27,-31.45 -2.68,-8.47 -5.07,-17.06 -8.54,-25.25 -2.81,-7.38 -11.05,-9.98 -15.68,-15.81 -3.2,-5.25 -4.97,-11.2 -7.76,-16.65 -1.87,-6.1 -8.17,-8.06 -12.95,-11.22 -2.8,-3.3 -5.46,-6.93 -5.96,-11.38zm-124.12 4.13c1.63,-5.21 6.52,-7.94 11.01,-10.35 -0.62,4.04 -2.69,8.13 -0.77,12.11 1.09,6.18 8.13,7.81 12.66,10.86 -9.44,1.92 -20.47,-2.71 -22.9,-12.62zm28.13 -14.3c3.36,2.49 3.49,6.06 0.52,8.99 -3.34,-2.52 -3.55,-6.05 -0.52,-8.99zm24.05 4.9c7.53,-8.52 18.78,-14.61 30.41,-13.34 -11.29,7.12 -24.07,13.92 -29.59,26.87 13.48,-11.92 30.45,-23.15 49.25,-21.49 5.51,-0.24 11.06,0.34 16.18,2.54 1.54,1.53 5.22,3.08 3.24,5.63 -10.09,-0.51 -20.69,-2.27 -30.35,1.62l-1.2 0.58c-0.58,2.52 -1.03,5.07 -1.49,7.61 -11.18,5.04 -22.28,10.91 -30.84,19.87 -5.46,5.92 -11.16,11.6 -16.41,17.69 1.66,-6.74 2.3,-13.68 3.98,-20.42 -3.76,2.8 -7.59,5.47 -11.55,7.94 0.19,-0.99 0.58,-2.99 0.79,-4 3.32,-11.46 8.48,-23.04 17.58,-31.1zm-64.94 -48.35c8.43,-5.89 19.25,-5.08 29,-4.43 10.3,0.68 19.61,6.75 30.07,6.02 28.26,-0.95 55.62,9.94 79.62,24.15 1.36,4.05 -1.74,7.57 -3.12,11.14 -5.63,-0.92 -11.64,0.48 -16.93,-2 -8.4,-3.33 -16.17,-7.98 -24.36,-11.74 -5.55,-2.58 -11.9,-4.17 -15.99,-9.05 -4.06,-1.42 -7.93,-3.25 -11.67,-5.36 6.23,4.11 13.8,7.25 17.66,13.92 1.69,2.81 -0.76,5.54 -2.55,7.52 -11.31,2.03 -22.77,0.48 -34.06,-0.86 -10.65,-1.25 -21.25,0.84 -31.45,3.66 1.01,-3.79 2.04,-7.61 3.05,-11.4 -22.49,0.47 -42.34,12.52 -61.44,23.1 8.41,-19.33 25.53,-32.69 42.17,-44.67zm-68.93 -16.69c11.91,-2.88 24.28,2.28 36.26,3.69 1.75,7.75 2.86,16.48 -0.32,23.95 -6.45,16 -20.18,27.4 -33.27,37.92 1.59,-15.73 6.77,-31.11 5.46,-47.09 -10.32,7.34 -17.47,18.07 -22.02,29.77 -1.92,4.58 -4.71,8.71 -7.51,12.78 -5.72,7.68 -10.35,16.09 -14.41,24.77 -1.68,-10.79 -4.82,-22.23 -1.25,-32.92 4.36,-8.42 10.9,-15.54 15.01,-24.14 6.41,-10.24 14.71,-19.16 22.05,-28.73zm562.19 826.07c30,-2 60.85,-1.63 89.69,7.81 15.08,4.5 26.95,17.53 30.82,32.69 8.52,25.26 1.76,51.92 -2.79,77.22 -6.07,31.53 -17.47,64.76 -43.56,85.32 -21.32,14.56 -47.84,18.14 -72.98,20.31 -21.23,-0.15 -42.91,1.98 -63.66,-3.66 -14.24,-3.35 -29.04,-9.76 -37.08,-22.65 -6,-9.1 -7.04,-20.21 -8.72,-30.67 -1.87,-10.88 0.61,-21.77 1.17,-32.63 0.79,-16.02 4.96,-31.59 8.83,-47.06 4.67,-16.47 9.56,-33.42 19.88,-47.38 12,-17.23 30.09,-30.44 50.69,-35.21 9.08,-2.19 18.42,-3.07 27.71,-4.09zm11.12 20.48l0 0c-19.36,4.24 -30.74,23.23 -35.4,41.17 -9.75,36.88 -17.32,74.93 -15.66,113.26 0.08,11.49 8.36,21.38 18.02,26.71 12.24,5.1 26.97,4.52 38.69,-1.74 13.27,-7.93 20.7,-22.48 24.7,-36.93 4.88,-17.83 8,-36.09 11.33,-54.24 2.88,-19.55 6.89,-39.6 2.91,-59.28 -1.85,-9.16 -5.3,-18.73 -13.04,-24.52 -8.82,-7.08 -21.08,-6.02 -31.55,-4.43zm262.88 -15.51c9.59,-0.3 19.16,-2.51 28.79,-1.01 14.35,1.55 30.76,-0.34 42.46,9.94 9.98,8.99 12.01,23.06 11.06,35.83 -0.71,19.16 -4.95,39.81 -19.17,53.75 -8.04,9.36 -20.08,13.23 -31.36,17.08 11.36,31.06 22.95,62.09 34.07,93.26 -26.15,0.58 -52.3,0.22 -78.42,0.17 0.6,-5.7 0.41,-11.55 -2.19,-16.77 -13.01,-30.01 -25.79,-60.12 -38.74,-90.15 -2.96,21.55 -8.38,42.63 -12.02,64.06 -2.35,14.32 -5.96,28.41 -7.96,42.8 -21.74,0.28 -43.47,0.23 -65.21,0.06 3.46,-27.59 9.01,-54.85 13.21,-82.31 5.48,-33.02 11.05,-66.05 16.97,-99 2.06,-9.13 3.74,-18.39 4.3,-27.75 34.75,-0.11 69.49,-0.11 104.21,0.04zm-39.04 20.46l0 0c-4.35,25.53 -8.97,50.99 -13.51,76.48 10.62,-0.06 21.25,0.78 31.85,-0.11 8.46,-0.71 15.94,-6 20.82,-12.75 9.04,-12.3 11.88,-28.16 11.12,-43.13 -0.66,-8.81 -6.25,-18.54 -15.65,-19.91 -11.45,-1.72 -23.1,-0.45 -34.63,-0.58zm-1042.71 -20.56l83.24 0.06 35.7 209.11c-22.65,-0.22 -45.32,0.72 -67.95,-0.5 -2.71,-12.91 -4.84,-25.96 -8.47,-38.67 -32.87,0.04 -65.75,-0.19 -98.6,0.11 -8.26,11.76 -16.34,24.23 -17.8,38.92 -11.81,0.24 -23.64,0.35 -35.45,-0.08 33.8,-60.72 67.24,-122.11 102.08,-182.2 5.31,-7.92 7.79,-17.23 7.25,-26.75zm-42.12 145.56l80.92 0.2c-6.5,-35.28 -13.01,-70.56 -19.51,-105.83l-61.41 105.63zm1325.68 -123.18l0 0c-4.41,18.78 -6.84,37.93 -10.47,56.87 -6.67,37.67 -13.71,75.3 -19.88,113.07 16.61,0.09 33.58,1.47 49.86,-2.83 9.83,-2.52 16.64,-10.87 22.45,-18.65 13.42,-20.29 17.06,-44.91 21.34,-68.36 2.45,-21.16 7.98,-43.51 -0.91,-63.96 -3.33,-10.52 -14.81,-15.36 -24.99,-16.11 -12.47,-0.59 -24.93,0.13 -37.4,-0.03z"/>
   <g>
    <path class="fil1" d="M430.61 1232.75l37.23 -66.05 11.72 66.05 -48.95 0zm-156.28 -180.85c1.11,1.08 1.11,1.08 0,0l0 0zm-40.8 -7.16c2.71,-1.18 3.46,-0.43 2.27,2.28 -2.7,1.16 -3.46,0.41 -2.27,-2.28zm349.21 0.39c1.35,-3.1 1.7,-6.49 2.32,-9.76 1.12,6.23 2.71,12.43 3.05,18.79 -1.67,-3.09 -3.27,-6.23 -5.37,-9.03zm254.31 -28.59c1.1,1.1 1.1,1.1 0,0l0 0zm85.97 -618.66c4.97,-0.69 10.03,-0.59 15.06,-0.57 -0.75,2.93 -0.61,6.29 -2.71,8.68 -11.9,4.66 -19.57,15.84 -23.86,27.42 -2.98,-8.97 -4.62,-18.31 -4.17,-27.77 5.29,-2.45 10.43,-5.21 15.68,-7.76zm-116.77 6.73c1.89,-4.13 1.27,-10 5.92,-12.24 2.1,23.12 -17.57,41.71 -15.02,64.8 0.13,7.64 5.08,13.88 8.43,20.42 -9.72,-1.68 -19.63,-2.43 -28.99,-5.68 -1.05,-12.01 1.81,-24.24 8.5,-34.31 6.09,-11.66 17.44,-20.02 21.16,-32.99zm38.18 -31.08c1.08,1.12 1.08,1.12 0,0l0 0zm1.85 -3.75c1.1,1.1 1.1,1.1 0,0l0 0zm-162.56 -116.46c7.66,-0.61 15.01,1.57 22.35,3.39 11.27,1.9 22.15,5.62 33.35,7.79 19.21,0.47 38.44,-0.15 57.67,0.22 10.78,1.52 19.92,8.13 30.35,10.84 23.33,0.79 46.22,7.22 67.49,16.56 10.35,5.5 19.87,12.34 29.15,19.44 -2.15,5.61 -5.02,11.72 -3.02,17.77 9,15.51 20.05,29.72 31.58,43.44 16.02,21.21 22.69,47.64 27.57,73.33 -0.23,14.71 1.87,29.79 -2.19,44.17 -13.66,10.16 -30.28,15.43 -44.42,24.8 -12.17,8.24 -18.97,21.4 -26.43,33.56 3.4,9.89 4.52,20.34 7.42,30.37 5.46,22.84 12.33,45.44 15.29,68.8 1.32,14.82 -3.31,29.15 -4.79,43.77 -5.98,40.09 -17.47,79.41 -20.22,119.91 -2.34,19.23 -5.06,38.46 -10.05,57.22 -1.31,6.69 -4.06,12.94 -7.24,18.94 -10.48,24.14 -20.76,48.61 -26.82,74.3 0.53,7.46 4.27,14.36 6.27,21.55 7.85,9.31 18.8,15.46 28.93,22.02 5.25,21.88 12.69,43.73 11.53,66.51 92.71,-0.03 185.43,0.04 278.15,-0.03 -1.76,6.28 -2.92,12.72 -3.79,19.19 22.59,-15.53 49.78,-23.08 76.88,-24.82 16.88,0.09 33.76,0 50.63,0.04 16.47,1.64 32.93,4.15 48.82,9.1 13.14,4.86 25.23,12.15 35.66,21.53 -5.65,-7.81 -8.9,-16.99 -14.49,-24.82 68.24,-0.49 136.49,-0.04 204.72,-0.22 9.82,0.61 19.5,3.23 28.62,6.87 6.28,2.4 10.82,7.57 16.71,10.69 -3.27,-5.92 -7.09,-11.51 -10.15,-17.53 68.61,-0.03 137.23,0.02 205.84,-0.02 18.65,-0.72 38.43,3.91 52.69,16.51 13.81,13.04 20.61,32.11 22.12,50.74 -0.52,17.44 1.44,35.08 -1.98,52.29 -5.79,38.31 -11.71,78.76 -34.65,111.16 -16.33,23.07 -43.97,36.22 -71.74,38.49 -102.96,-0.1 -205.94,0.01 -308.92,-0.06 3.89,-9.89 6.39,-20.2 9.55,-30.31 1.18,-5.39 -0.15,-10.79 -2.62,-15.57 -3.21,15.25 -6.2,30.52 -8.69,45.9 -40.44,0 -80.86,0 -121.31,0.02 3.16,-9.93 3.03,-20.49 5.52,-30.52 -12.75,11.08 -26.73,21.21 -42.93,26.54 -14.28,5.55 -29.59,7.4 -44.63,9.51 -21.79,0.13 -43.59,0.09 -65.38,0.02 -24.8,-3.03 -50.35,-10.71 -68.77,-28.39 -15.44,-13.83 -21.12,-35.42 -21.2,-55.49 -0.71,-4.43 -1.77,-8.78 -2,-13.27 -24.91,0.02 -49.8,0.06 -74.72,-0.02 -6.56,30.33 -10.37,61.23 -16.61,91.62 -80.57,-0.13 -161.16,0.18 -241.73,-0.15 5.38,-11.53 11.5,-22.69 16.88,-34.22 3.77,-7.74 2.45,-16.47 2.52,-24.75l-27.96 59.12c-100.21,-0.02 -200.4,-0.02 -300.61,0 -1.29,-13.14 -4.58,-26.02 -5.97,-39.14 0.12,-2.37 -0.99,-6.03 -3.94,-5.68 -16.67,-0.17 -33.36,0 -50.03,-0.04 -2.06,4.73 -6.3,9.14 -5.74,14.58 3.87,11.57 12.82,20.13 19.2,30.26 -110.48,0.02 -220.95,0 -331.44,0 -0.07,-16.34 4.09,-32.32 5.76,-48.52 5.01,-34.31 9.79,-68.64 14.78,-102.96 2.95,-21.1 5.25,-42.44 11.92,-62.81 3.42,-16.32 14.38,-30 27.38,-39.9 9.01,-6.34 18.6,-12.88 29.96,-13.53 0.02,-18.1 4.36,-35.87 7.57,-53.61 1.76,-10.46 5.98,-20.24 8.88,-30.38 3.44,-13.98 7.01,-27.93 10.41,-41.91 4,-24.05 28.52,-36.63 36.48,-58.87 7.38,-20.48 9.21,-42.31 13.01,-63.6 2.33,-18.97 5.32,-37.8 8.82,-56.59 2.3,-15.43 6.15,-30.8 13.04,-44.87 4.47,-13.62 13.91,-24.61 21.37,-36.61 7.12,-12.22 7.47,-26.73 10.2,-40.28 1.18,-4.54 1.07,-9.27 1.14,-13.92 15.27,-7.96 32.76,-9.94 49.58,-12 7.48,-1.98 15.25,-0.47 22.86,-1.33 6.88,-1.98 13.96,-3.96 19.83,-8.28 28.74,-15.32 57.06,-31.37 85.54,-47.13 11.83,-7.21 24.39,-13.74 33.77,-24.2 9.91,-10.62 21.4,-19.85 29.96,-31.66 7.49,-8.71 17.29,-15.48 23.03,-25.63 7.47,-12.95 11.51,-27.49 16.37,-41.52 9.27,-20.09 25.69,-35.53 37.82,-53.77 3.67,-5.21 6.38,-11.05 10.32,-16.07 -5.61,-10.86 -12.67,-20.9 -20.39,-30.34 -8.07,-9.15 -13.55,-20.12 -19.12,-30.89 14.28,-6.2 29.55,-10.63 42.28,-19.9 12.56,-10.23 22.2,-23.4 31.15,-36.75zm15.55 13.98c-7.34,9.57 -15.64,18.49 -22.05,28.73 -8.84,8.33 -14.75,19.27 -23.87,27.36 -0.09,-5.42 -0.07,-10.86 -0.15,-16.3 -6.41,2.86 -13.02,5.2 -19.27,8.39 6.32,13.65 14.11,26.64 23.81,38.15 1.67,1.55 3.13,5.59 5.98,4.18 4.88,-9.73 10.11,-19.36 14.15,-29.49 2.8,-4.07 5.59,-8.2 7.51,-12.78 5.57,-6.62 10.15,-14.06 16.41,-20.07 -7.23,19.79 -15.56,39.19 -20.76,59.65 6.97,-1.45 12.26,-6.44 17.68,-10.71 -4.82,13.05 -10.05,26.08 -11.44,40.06 -0.39,10.7 -3.98,21.39 -0.93,32.05 0.39,19.13 6.56,37.64 14.31,54.98 7.03,12.73 16.21,24.13 26.24,34.59 -11.32,-5.92 -22.31,-12.89 -31.13,-22.23 -10.73,-10.3 -18.52,-23.12 -25.66,-36.04 -7.48,-13.77 -11.42,-29.02 -17.01,-43.56 -16.75,19.9 -21.51,46.42 -24.09,71.54 -0.49,11.29 1.87,22.46 4.05,33.49 -11.73,-2.6 -23.17,-6.99 -32.35,-14.93 -0.67,0.11 -2.03,0.37 -2.71,0.5 -8.46,7.44 -14.35,17.31 -20.52,26.62 -7.73,14.33 -17.08,28.16 -21.73,43.9 -4.94,8.69 -8.32,18.22 -11.23,27.75 -7.44,14.52 -10.36,30.78 -15.59,46.13 -6.11,-9.93 -11.01,-20.88 -12,-32.62 -0.26,-8.74 0.02,-17.51 -0.06,-26.27 -18.44,9.55 -37.88,17.02 -56.85,25.49 -27.12,10.48 -53.53,23.04 -81.69,30.52 -4.45,1.6 -9.04,3.06 -13.12,5.49 -5.64,4.9 -11.03,10.21 -15.75,16.02 -11.97,17.57 -23.8,35.28 -33.81,54.05 -4.94,10.86 -12.26,21.01 -13.53,33.19 -1.01,22 1.86,44.35 -3.22,66.01 -5.92,20.37 -23.96,34.91 -28.05,55.99 -2.49,16.94 -0.21,34.28 6.76,49.94 -5.4,0 -10.82,-0.24 -15.99,-1.89 -5.11,10.83 -13.09,19.93 -18.88,30.35 -5.05,9.09 -12.11,16.97 -16.67,26.32 -3.53,13.98 -5.87,28.3 -10.35,42.01 -5.41,13.14 -12.6,25.59 -16.38,39.34 9.44,2.62 19.25,2.06 28.93,1.97 0.23,2.78 0.64,5.53 1.07,8.29 3.83,-1.98 7.4,-4.5 11.4,-6.18 7.85,-1.14 15.51,1.74 23.32,1.98 0.79,-9.29 4.02,-18.15 4.9,-27.44 1.72,5.44 3.57,10.84 5.51,16.21 -1.08,-0.6 -3.25,-1.76 -4.33,-2.36 -1.42,3.78 -2.71,7.63 -4.3,11.33 2.54,2.67 4,6.82 7.77,8 1.2,-2.49 2.06,-5.11 2.9,-7.72 4.11,-0.96 8.23,-1.95 12.41,-2.53 0.54,-1.19 1.63,-3.6 2.17,-4.8 2.19,-4.28 5.87,-8.35 5.36,-13.45 -0.3,-7.42 -2.82,-14.53 -4.54,-21.7 -4.24,-4.58 -11.01,-6.08 -16.43,-9.05 4.58,-25.68 7.01,-51.73 11.7,-77.39 21.25,-1.27 43.31,-8.26 58.22,-24.09 14.06,-15.14 19.59,-36.26 20.32,-56.46 0.52,-6.08 2.52,-12.13 1.15,-18.24 -2.01,-8.13 -1.14,-16.5 -1.55,-24.77 -2.02,-17.53 -5.1,-35 -5.55,-52.66 11.87,5.91 22.15,14.45 33.64,20.97 26.65,16.74 53.21,33.83 81.75,47.21 4.07,1.73 8.41,2.78 12.75,3.66 1.85,-5.89 4.11,-11.64 6.57,-17.31 9.59,-21.41 17.29,-43.67 27.81,-64.66 0.47,43.36 0.02,86.74 0.23,130.1 0.33,7.53 -2.28,14.78 -1.95,22.29 0.25,12.41 -0.41,24.86 0.36,37.25 2.93,14.84 0.99,30.05 1.61,45.08 1.08,15.6 -6.41,29.83 -12.32,43.75 -1.89,11.42 -2.07,23.15 -4.82,34.46 10.48,0.23 20.76,2.97 31.32,2.21 2.9,-6.79 6.99,-13.1 8.54,-20.41 2.08,-4.43 3.03,-9.29 4.56,-13.92 1.96,11.38 2.19,23 4.69,34.29 7.11,-0.07 14.21,-0.11 21.29,-0.02 1.18,-2.26 2.39,-4.48 3.65,-6.67 -1.46,4.61 -0.4,8.91 3.02,12.33 1.35,-0.01 4.02,-0.05 5.37,-0.07 0.02,-1.4 0.07,-4.21 0.11,-5.61 7.12,-0.02 14.24,-0.02 21.38,-0.02 2.99,-5.3 6.88,-10.01 10.26,-15.06 -0.77,-5.94 -1.61,-11.9 -2.54,-17.83 -3.09,-7.59 -7.93,-14.39 -13.01,-20.74 -10.8,-3.54 -22.24,-2.25 -33.4,-2.41 10.04,-13.89 22.58,-26.47 28.8,-42.71 0.64,-1.1 1.89,-3.31 2.53,-4.39 -5.05,0.88 -10.02,2.11 -15.03,3.21 -0.39,-2.45 -0.62,-4.93 0.19,-7.29 3.08,-12.99 5.1,-26.2 7.47,-39.34 2.71,-16.89 9.5,-32.7 14.56,-48.96 7.59,-23.61 15.89,-46.97 25.47,-69.83 3.44,-7.28 6.66,-15.36 13.76,-19.9 28.86,-12.88 57.28,-27.04 83.99,-44.01 -2.54,12.41 -9.23,23.36 -15.16,34.37 -14.2,25.62 -30.97,49.69 -46.16,74.72 7.62,-0.57 14.82,-3.37 22.17,-5.31 26.96,-7.53 53.67,-16.71 78.45,-29.92 20.56,-9.53 39.06,-23.05 55.44,-38.62 1.21,12.36 -3.72,23.95 -7.99,35.23 13.97,-7 24.75,-18.48 35.57,-29.45 10.52,-9.74 18,-22.11 25.83,-33.98 12.65,-22.97 23.77,-47.43 27.38,-73.63 3.57,-9.27 0.22,-19.1 -2.56,-28.11 -5.68,-18.19 -10.6,-36.67 -17.25,-54.52l-1.37 -0.15c-11.64,14.77 -20.59,31.46 -32.14,46.32 -3.78,4.37 -5.78,10.93 -10.65,13.9 -4.77,-2.28 -6.42,-8.28 -10.75,-11.23 -2.62,-7.03 -9.4,-11.01 -13.76,-16.79 -5.17,-7.25 -13.14,-11.75 -19,-18.41 -14.66,-12.24 -30.45,-23.15 -47.16,-32.4 24.99,1.74 49.57,9.53 74.82,7.36 -3.09,-2.88 -6.49,-5.44 -10.3,-7.27 -8.54,-4.13 -15.77,-10.37 -23.19,-16.15 20.33,-3.36 41.28,-5.27 60.29,-13.96 14.56,-4.76 27.3,-13.32 39.92,-21.77 16.24,-11.59 31.19,-25.46 41.32,-42.85 8.58,-23.55 15.59,-50.2 6.37,-74.63 -5.57,-0.86 -10.95,-2.51 -16.44,-3.66 -7.76,2.09 -15.68,5.29 -21.5,11.02l-1.01 -0.09c0.19,5.2 0.45,10.47 -0.59,15.59 -2.1,9.12 -0.12,18.59 -2.15,27.71 -1.72,8.34 0.52,17.18 -2.77,25.23 -2.52,9.87 -8.82,18.17 -16.2,24.97 -13.44,14.3 -31.72,23.21 -50.56,27.98 -8.29,2.54 -17.12,0.43 -25.49,2.48 -12.03,2.77 -23.98,-1.47 -36.03,-1.27 -11.78,-11.26 -22.47,-23.64 -31.61,-37.13 15.98,6.5 32.24,12.78 49.46,15.21 11.77,2.6 23.88,1.25 35.82,1.59 19.4,-0.5 40.8,-5.36 53.44,-21.31 17.19,-23.23 15.68,-53.56 22.42,-80.45 0.69,-4.17 3.8,-7.1 6.47,-10.11 4.43,-2.47 8.78,-5.11 12.91,-8.04 -0.44,-8.22 2.4,-18.61 -5.15,-24.5 -8.19,-5.59 -18.6,-7.08 -28.3,-6.97 -7.16,1.57 -14.05,4.48 -20.93,6.99 -7.03,2.07 -11.63,7.83 -17.05,12.31 4.83,-11.04 17.31,-14.67 24.32,-23.79 0.56,-3.34 0.52,-6.76 0.73,-10.13 9.66,-3.89 20.26,-2.13 30.35,-1.62 1.98,-2.55 -1.7,-4.1 -3.24,-5.63 -5.12,-2.2 -10.67,-2.78 -16.18,-2.54 -18.8,-1.66 -35.77,9.57 -49.25,21.49 5.52,-12.95 18.3,-19.75 29.59,-26.87 -11.63,-1.27 -22.88,4.82 -30.41,13.34 -9.1,8.06 -14.26,19.64 -17.58,31.1 -2.06,4.5 -3.43,9.27 -4.34,14.13 -1.68,-2.8 -3.35,-5.59 -5.16,-8.28 -1.18,-0.02 -3.53,-0.02 -4.71,-0.02 -6.8,8.82 -9.32,19.87 -15.44,29.08 -0.05,-12.58 4.7,-24.59 9.85,-35.88 -8.59,-1.25 -17.1,-3.46 -24.53,-8.08 -2.81,3.91 -5.16,8.12 -7.95,12.04 2.08,-8.82 4.04,-17.94 9.16,-25.58 5.77,-9.89 15.75,-17.4 26.99,-19.85 16.82,-1.46 35.43,3.01 50.5,-6.84 1.79,-1.98 4.24,-4.71 2.55,-7.52 -3.86,-6.67 -11.43,-9.81 -17.66,-13.92 3.74,2.11 7.61,3.94 11.67,5.36 4.09,4.88 10.44,6.47 15.99,9.05 8.19,3.76 15.96,8.41 24.36,11.74 5.29,2.48 11.3,1.08 16.93,2 1.38,-3.57 4.48,-7.09 3.12,-11.14 -24,-14.21 -51.36,-25.1 -79.62,-24.15 -11.86,-3.33 -22.91,-10.88 -35.69,-9.83 -20.52,0.9 -39.47,10.75 -55.88,22.54 -0.12,-0.82 -0.38,-2.51 -0.49,-3.35 3.18,-7.47 2.07,-16.2 0.32,-23.95 -11.98,-1.41 -24.35,-6.57 -36.26,-3.69zm109.82 60.14c-3.03,2.94 -2.82,6.47 0.52,8.99 2.97,-2.93 2.84,-6.5 -0.52,-8.99zm-28.13 14.3c2.43,9.91 13.46,14.54 22.9,12.62 -4.53,-3.05 -11.57,-4.68 -12.66,-10.86 -1.92,-3.98 0.15,-8.07 0.77,-12.11 -4.49,2.41 -9.38,5.14 -11.01,10.35zm124.12 -4.13c0.5,4.45 3.16,8.08 5.96,11.38 4.78,3.16 11.08,5.12 12.95,11.22 1.1,6.63 2.24,13.34 4.62,19.68 4.63,4.28 11.17,6.03 15.66,10.57 6.09,12.68 8.22,26.73 9.79,40.56 1.24,18.88 -1.55,39.14 -13.23,54.61 8.5,-1.63 21.1,-2.82 23.01,-13.19 2.15,-7.5 3.64,-15.25 3.4,-23.07 -0.08,-22.52 -8.6,-43.94 -17.81,-64.14 -6.3,-14.07 -18.66,-23.92 -26.67,-36.89 -3.65,-6.15 -10.02,-11.87 -17.68,-10.73zm-573.97 297.57c4.9,1.63 9.57,3.83 13.68,6.97 8.21,-3.12 16.5,-5.98 24.67,-9.16 1.98,-0.71 3.59,-1.9 4.82,-3.64 -14.31,2.49 -29.19,1.25 -43.17,5.83zm530.14 188.78c-14.26,18.02 -32.07,32.78 -47.62,49.62 -2.67,3.4 -3.63,7.76 -5.05,11.76 -7.08,22.5 -15.69,44.53 -20.98,67.56 4.41,-1.53 8.82,-3.12 13.23,-4.71 -5.14,16.3 -9.94,32.78 -13.48,49.51 4.08,-1.31 8.13,-2.68 12.17,-4.08 -2.65,13.57 -5.07,27.21 -8.3,40.67 -1.19,5.49 -3.49,10.86 -3.32,16.58 2.05,3.16 6.01,2.32 9.23,2.52 11.75,0 23.66,-0.93 35.13,2.19 2.32,-4.21 4.51,-8.47 6.88,-12.64 3.85,-5.29 2.43,-12.22 4.6,-18.13 -1.63,-2.16 -3.27,-4.29 -4.82,-6.46 2.84,1.38 5.59,3.03 8.22,4.8 -2.15,7.98 -1.18,16.32 -1.33,24.48 -1.3,0.04 -3.92,0.13 -5.23,0.17 -1.29,3.61 -2.54,7.22 -3.87,10.81 2.43,0.56 4.86,1.17 7.27,1.86 -0.05,-2.86 -0.09,-5.7 -0.13,-8.54 5.57,1.24 11.29,1.78 16.82,3.31 4.37,-9.92 12.24,-21.01 7.79,-32.13 1.76,0.96 3.56,1.91 5.37,2.84 -0.41,9.05 0.09,18.1 2.18,26.92 2.4,0.65 4.79,1.34 7.18,2.11 5.55,-9.55 10.39,-21.12 5.96,-32.11 -0.15,-2.88 -0.35,-5.74 -0.45,-8.62 -7.73,-4.85 -15.69,-9.43 -23.75,-13.67 -3.77,-3.18 -8.61,-4.94 -12.05,-8.53 -5.42,-8.54 -10.47,-18.01 -9.22,-28.5 3.85,-11.46 6.17,-23.36 10.02,-34.82 2.04,-6.24 4.52,-12.37 5.51,-18.89 3.91,-9.63 7.22,-19.48 9.83,-29.53 6.56,-20.52 12.28,-41.36 15.8,-62.63 0.43,-5.06 0.2,-10.13 0.2,-15.19 -8.46,6.56 -16.65,13.45 -23.79,21.47zm-463.03 15.36c-4.72,16.21 -6.82,33.38 -15.25,48.33 -10.39,23.1 -29.99,40.39 -51.11,53.57 -10.64,6.45 -20.69,14.16 -28.07,24.24 -3.44,5.16 -3.96,11.34 -5.18,17.25 0.06,15.55 8.32,29.47 10.62,44.67 0.01,8.11 2.84,15.92 2.07,24.09 -0.62,6.99 1.05,13.75 2.3,20.55 15.34,-0.02 30.67,-0.03 46.01,0 0.21,-3.49 0.21,-7.02 1.03,-10.44 2.36,-8.99 -0.21,-18.47 2.43,-27.42 0.82,-11.53 3.27,-22.84 5.1,-34.22 2.75,-10.02 -1.14,-20.84 3.05,-30.54 1.89,-6.99 5.96,-13.1 8,-20.02 3.06,-12.03 7.19,-24.07 14.18,-34.44 7.89,-13.75 14.11,-28.82 15.14,-44.78 0.47,-11.19 -4.65,-21.51 -10.32,-30.84zm276.75 76.87c-18.01,5.24 -37.02,4.77 -55.02,10.15 -0.95,11.31 -4.16,22.3 -5.66,33.55 1.33,6.88 1.98,13.85 3.31,20.74 0.15,8.32 -0.06,16.84 3.38,24.64 4.06,8.7 7.74,17.6 10.65,26.76 1.97,5.4 0.45,11.29 1.89,16.8 1.91,7.57 0.9,15.46 1.09,23.17 46.72,0.02 93.44,0.02 140.17,0 0.09,-6.07 -0.49,-12.2 0.41,-18.22 2.41,-8.61 1.19,-17.62 1.45,-26.42 -3.85,-1.16 -7.75,-2.06 -11.69,-2.68 3.9,-17.79 6.37,-35.86 9.62,-53.76 0.34,-15.44 0.32,-30.92 0,-46.35 -2.37,-9.13 -2.13,-18.69 -0.79,-27.98 -0.28,-0.36 -0.82,-1.07 -1.08,-1.42 -32.69,6.5 -65.08,14.39 -97.73,21.02zm-206.6 43.81c-0.14,12.63 -1.16,25.64 3.1,37.77 5.32,11.96 7.16,25.08 8.86,37.94 1.96,7.25 0.07,14.91 2.15,22.13 1.1,4.63 0.72,9.46 0.86,14.18 4.31,-0.02 8.63,-0.03 12.95,-0.03 0.33,-14.34 -1.2,-28.86 1.75,-42.99 -1.42,-12.95 6.02,-24.22 8.36,-36.57 1.14,-6.9 3.96,-13.8 2.67,-20.86 -3.91,-17.31 -10.43,-33.89 -13.25,-51.45 -11.4,11.44 -25.01,22.95 -27.45,39.88zm-65.98 27.46c-6.35,6.16 -13.34,12.26 -16.61,20.74 -5.48,13.55 -10.88,27.17 -15.36,41.1 16.52,3.59 33.39,5.4 50.08,8.13 2.28,4.09 5.61,7.74 10.65,7.81 0.23,-6.49 -1.66,-12.73 -4.63,-18.41 -2.32,2.75 -3.72,6.06 -5.08,9.35 -0.28,-6.55 1.87,-12.88 4.44,-18.81 2.1,5.87 4.13,11.8 5.59,17.87 4.1,-0.02 8.17,-0.06 12.26,-0.06 1.72,-5.9 3.18,-11.88 4.97,-17.75 6.49,6.22 -2.03,12.8 -2.95,19.42 1.27,5.49 7.29,7.04 11.85,4.18 -0.93,-2.48 -1.89,-4.91 -2.8,-7.38 3.94,-0.65 9.7,1.01 10.91,-4.22 0.88,1.92 1.8,3.85 2.73,5.77 2.34,0 4.65,0 6.99,0.02 -1.55,-5.08 -2.69,-10.26 -3.85,-15.44 -1.79,3.01 -3.49,6.08 -5.49,8.98 0.63,-5.69 5.64,-11.48 2.5,-17.07 -0.22,-4.07 -0.73,-8.18 -2.06,-12.05 -0.56,-7.38 -2.71,-14.86 -7.23,-20.84 -5.92,-5.53 -12.93,-9.79 -18.87,-15.33 -0.06,-1.12 -0.17,-3.36 -0.23,-4.48 4.65,-8.88 11.66,-16.21 16.84,-24.73 3.44,-5.44 4.41,-11.85 5.79,-17.99 -18.8,18.59 -40.57,33.8 -60.44,51.19zm-110.43 68.88c2.76,1.01 5.53,2.06 8.31,3.07 0.06,-5.68 -0.48,-11.37 -3.01,-16.54 -2.31,4.26 -3.88,8.86 -5.3,13.47zm577.59 -13.81c-1.53,6.28 -3.33,12.5 -5.5,18.62 3.97,1.04 8.06,1.49 12.15,1.87 -0.97,-7.14 -2.84,-14.3 -6.65,-20.49zm-323.72 2.49c-1.87,5.01 -4.39,9.94 -4.8,15.36 2.2,1.4 4.69,2.24 7.14,3.16 0.9,-3.29 2.32,-6.5 2.41,-9.94 -1.33,-3.01 -2.97,-5.85 -4.75,-8.58zm72.85 -0.17c-2.35,4.77 -4.3,9.74 -6.69,14.5 3.25,0.77 6.54,1.37 9.87,1.91 -0.15,-5.63 -1.49,-11.08 -3.18,-16.41zm267.54 14.3c3.46,0.87 6.99,1.55 10.54,2.13 -1.21,-5.63 -2.62,-11.22 -4.73,-16.54 -2.2,4.69 -3.83,9.62 -5.81,14.41zm-107.73 14.76l2.23 34.8 18.5 -34.84 -20.73 0.04zm-401.44 1.83c-4.62,30.99 -11.18,61.71 -16.05,92.7 -1.5,7.51 -3.41,15.01 -3.59,22.73 2.65,7.7 5.06,15.6 4.45,23.88 21.02,-36.05 40.74,-72.79 61.56,-108.96 -3.05,-10.18 -6.13,-20.37 -9.83,-30.35 -12.17,0.04 -24.36,0.06 -36.54,0zm186.14 0.12c7.2,37.82 12.64,75.95 19.09,113.91 2.09,12.82 5.4,25.47 6.05,38.48 17.38,-37.9 31.72,-77.13 48.01,-115.52 -0.46,-12.77 -6.87,-24.54 -9.51,-36.97 -21.21,0.06 -42.42,-0.07 -63.64,0.1zm366.54 2.59c0.05,3.67 0.76,7.27 1.62,10.84 1.41,9.91 -0.99,20.15 1.87,29.91 1.24,8.99 -0.39,18.12 0.86,27.11 2.97,10.99 0.54,22.47 1.63,33.64 3.66,-9.71 3.98,-20.2 6.46,-30.2 1.8,-12.8 5.14,-25.36 6.49,-38.2 -6.32,-11.01 -12.04,-22.39 -18.93,-33.1zm326.13 3.65c-14.21,2.22 -28.99,3.62 -41.93,10.44 -13.6,6.68 -27.49,14.49 -36.31,27.23 -9.9,12.41 -16.78,27.03 -21.38,42.19 -7.87,22.2 -12.58,45.49 -15.1,68.87 0.5,22.2 -3.64,47.07 10.34,66.29 11.08,17.06 31.3,24.48 50.46,27.99 23.66,4.9 47.92,2.38 71.89,2.92 16.17,-1.74 32.54,-4.11 47.79,-10.06 17.78,-7.49 34.34,-19.17 44.5,-35.88 18.32,-29.44 26.22,-63.99 30.89,-97.97 0.17,-14.26 0.32,-28.54 -0.07,-42.78 -2.71,-14.78 -7.27,-30.5 -19.9,-39.92 -18.84,-14.03 -43.1,-17.45 -65.85,-20 -18.42,0.29 -36.96,-0.91 -55.33,0.68zm-1090.88 21.14c-10.18,8.87 -13.45,22.61 -17.34,34.98 -3.78,17.57 -7.36,35.4 -6.49,53.47 0.25,10.06 2.32,22 11.72,27.59 12.34,9 28.32,7.06 42.58,9.56 11.77,0.58 23.56,-0.24 35.36,0.27 5.88,0.39 11.45,3.17 14.82,8.13 1.75,6.63 -1.95,14.31 -8.45,16.72 -7.91,3.09 -16.33,5.35 -24.89,5.01 -17.46,-0.35 -35.36,1.48 -52.26,-3.96 -11.31,-4.04 -18.2,-14.39 -27.34,-21.51 -4.62,29.56 -7.91,59.32 -12.41,88.9 49.97,0.15 99.95,-0.03 149.92,0.1 13.4,0.3 27.08,-2.9 38.47,-10.13 8.2,-6.3 15.32,-14.34 18.67,-24.3 9.1,-24.84 13.99,-51.39 13.9,-77.82 0.43,-13.64 -10.02,-25.23 -21.88,-30.46 -21.83,-7.12 -45.03,-4.19 -67.55,-5.26 -8.16,-1.02 -19.68,-9.53 -13.56,-18.48 3.99,-11.62 17.6,-13.7 28.2,-14.8 17.42,0.02 35.3,-1.53 52.16,3.81 8.99,3.38 15.74,10.54 22.33,17.21 5.65,-24.87 8.54,-50.27 13.64,-75.26 -50.55,-0.03 -101.12,-0.11 -151.69,0.04 -13.65,1.96 -27.98,6 -37.91,16.19zm273.13 -16.28c1.46,4.95 3.14,9.88 3.92,15.02 -1.34,10.49 -8.73,18.65 -13.04,27.98 -25.81,45.86 -51.34,91.86 -77.21,137.68 -9.59,18.43 -20.99,35.92 -29.99,54.67 25.32,0.3 50.64,0.13 75.97,0.09 -1.97,-4.78 -4.94,-9.47 -4.38,-14.87 -0.59,-9.95 6.25,-17.8 10.34,-26.19 27.72,0 55.43,-0.02 83.15,0 3.72,13.5 4.76,27.51 7.88,41.14 51.01,-0.06 102.03,0 153.03,-0.02l-4.11 -26.46 39.21 -94.31 10.04 120.83c25.86,-0.12 51.73,-0.06 77.59,-0.04 7.37,-23.95 25.67,-51.67 34.82,-76.03 7.1,-13.25 12.73,-27.17 19.29,-40.69 4.19,15.68 0.86,32 4.06,47.77 1.04,11.82 -0.94,23.85 1.92,35.53 2.09,12.11 -3.66,23.34 -10,33.19 33.92,0.49 67.86,0.06 101.8,0.21 -0.22,-9.7 0.77,-19.51 -0.78,-29.12 -2.41,-10.99 0.28,-22.35 -2.15,-33.32 -1.78,-9.36 0.18,-19.01 -1.59,-28.35 -2.43,-10.97 0.28,-22.35 -2.15,-33.33 -1.87,-9.98 0.3,-20.25 -1.59,-30.22 -2.34,-10.46 0.06,-21.28 -1.87,-31.77 -2.41,-10.99 0.26,-22.35 -2.15,-33.32 -1.02,-5.31 -0.78,-10.73 -0.86,-16.07l-93.39 0 -42.38 88.62 -8.1 -88.62c-37.49,0.03 -74.98,0.02 -112.45,0.02 2.22,6.65 4.88,13.3 5.61,20.33 -5.07,19.59 -14.66,37.68 -21.81,56.55l-53.92 131.39 -34.48 -208.29c-36.75,0.03 -73.49,0.03 -110.23,0zm519.13 0.15c4.24,7.94 8.63,16.69 6.33,25.97 -10.13,59.42 -20.93,118.74 -31.28,178.13 -1.37,10.43 -4.77,20.62 -4.45,31.25 29.85,0.02 59.67,-0.06 89.52,0.04 4.28,-30.07 10.36,-59.87 15.64,-89.79 31.01,0.1 62.02,-0.01 93.02,0.06 5.14,-19.68 6.26,-40.18 11.44,-59.86 -31.34,0.05 -62.69,0.07 -94.01,-0.02 2.23,-11.2 4.08,-22.45 6.36,-33.62 22.95,0.11 45.92,-0.06 68.87,0.04 13.7,0.39 22.93,11.68 33.36,18.98 6.13,-23.53 10.29,-47.52 15.73,-71.22 -70.18,-0.13 -140.35,-0.21 -210.53,0.04zm454.17 0c3.58,7.64 8.76,15.81 6.84,24.63 -9.33,52.42 -18.53,104.88 -27.79,157.32 -2.77,17.8 -7.14,35.38 -8.58,53.36 29.86,0.11 59.75,-0.05 89.61,0.1 3.78,-28.58 10.34,-56.71 14.2,-85.26 3.52,5.15 5.59,11.06 7.86,16.83 5.34,13.89 11.21,27.57 16.5,41.46 3.55,9.21 -2.47,18.22 -4.96,26.89 38.32,0.02 76.63,0.08 114.94,-0.04 -12.8,-34.18 -25.12,-68.53 -37.82,-102.73 10.29,-3.59 20.41,-8.82 27.47,-17.36 12.67,-15.72 18.78,-35.74 20.95,-55.57 0.9,-14.59 -0.28,-30.55 -9.68,-42.46 -10.62,-11.96 -27.19,-15.89 -42.48,-17.29 -55.7,0.04 -111.39,-0.16 -167.06,0.12zm241.07 0.01c2.8,6.51 7.32,12.84 7.68,20.08 -10.13,58.23 -20.54,116.43 -30.76,174.67 -1.95,13.55 -5.72,26.85 -6.41,40.57 52.44,0 104.88,0.08 157.32,-0.04 18.73,-1.75 38.63,-4.95 53.66,-17.23 14.02,-8.86 21.81,-24.29 28.29,-39 9.91,-23.7 15.59,-48.91 19.29,-74.25 3.73,-19.05 3.27,-63.48 -5.89,-80.72 -5.47,-12.15 -18.42,-18.64 -30.78,-21.59 -13.73,-4.06 -28.1,-2.3 -42.2,-2.63 -50.07,0.09 -100.13,-0.19 -150.2,0.14zm-1401.73 72.13c3.27,1.55 6.31,4.26 10.13,4.31 16.8,0.15 33.6,-0.09 50.4,0.02 4.94,0 9.42,2.36 14.07,3.65 -3.55,-3.68 -7.43,-7.05 -11.82,-9.68 -14.04,-7.18 -30.13,-4.79 -45.31,-5.18 -6.5,-0.34 -13.04,2.02 -17.47,6.88zm810.49 -6.9c-0.87,3.74 -1.96,7.42 -2.84,11.16 23.46,0.2 46.91,0 70.37,0.09 -4.6,-4.41 -8.79,-10.91 -15.78,-11.18 -17.25,-0.15 -34.5,0.1 -51.75,-0.07zm557.45 100.49c1.42,-13.34 4.56,-26.39 6.8,-39.6 -16.51,14.51 -23.27,17.99 -6.8,39.6zm-1463.63 -17.64c4.35,3.38 8.73,6.8 13.61,9.38 14.65,4.92 30.33,2.58 45.52,3.16 4.77,0.56 9.33,-1.22 12.99,-4.22 0.62,-2.47 -1.4,-5.24 -4,-5.03 -16.67,-0.47 -33.34,0.28 -49.99,-0.3 -6.02,-1.18 -12.08,-2 -18.13,-2.99zm516.18 52.68l-8.71 19.65 13.17 23.34 -4.46 -42.99zm603.27 -162.83c8,-1.31 18.11,-2.43 24.12,4.35 7.03,7.59 8.49,18.65 8.81,28.57 -2.89,27.17 -10.99,99.32 -28.6,119.11 -7.72,6.69 -18.28,11.94 -28.69,9.29 -9.58,-1.85 -15.66,-11.23 -17.17,-20.33 -1.7,-18.02 1.25,-35.94 3.48,-53.77 2.35,-18.79 7.23,-37.1 11.88,-55.42 2.15,-7.68 5.93,-14.84 10.41,-21.4 3.38,-5.68 10.08,-7.77 15.76,-10.4zm3.75 18.22c-15.01,11.73 -40.17,123.24 -19.65,123.11 19.88,-0.12 33.33,-98.49 28.4,-115.99 -0.52,-4 -4.26,-8.94 -8.75,-7.12zm227.3 -15.22c50.56,-2.87 37,61.33 -9.68,57.94 1.83,-19.49 6.3,-38.67 9.68,-57.94zm7.81 14.97c-0.78,10.32 -3.92,20.34 -4.31,30.71 15.22,-8.13 23.65,-30.71 4.31,-30.71zm233.34 -13.08c11.62,0.19 24.13,-1.46 34.76,4.38 14.85,11.44 11.83,38.92 8.52,55.73 -3.1,23.08 -9.89,62.92 -26.14,80.49 -12.73,8.64 -29.03,8.58 -43.83,8.97 3.74,-24.11 8.58,-48.05 12.45,-72.16 5.16,-25.71 8.45,-51.8 14.24,-77.41zm15.06 20.56c-7.57,36.05 -12.93,72.61 -20.39,108.7 4.82,-0.32 10.92,-0.15 13.91,-4.68 12.62,-24.43 28.8,-80.83 15.53,-104 -3.05,-0.02 -6.06,-0.02 -9.05,-0.02zm-1312.54 71.04l15.7 -0.08 -2.94 -17.92 -12.76 18z"/>
   </g>
   <path class="fil2" d="M473 1138.17l19.51 105.83 -80.92 -0.2 61.41 -105.63zm413.22 -79.02c1.98,-4.79 3.61,-9.72 5.81,-14.41 2.11,5.32 3.52,10.91 4.73,16.54 -3.55,-0.58 -7.08,-1.26 -10.54,-2.13zm-267.54 -14.3c1.69,5.33 3.03,10.78 3.18,16.41 -3.33,-0.54 -6.62,-1.14 -9.87,-1.91 2.39,-4.76 4.34,-9.73 6.69,-14.5zm-72.85 0.17c1.78,2.73 3.42,5.57 4.75,8.58 -0.09,3.44 -1.51,6.65 -2.41,9.94 -2.45,-0.92 -4.94,-1.76 -7.14,-3.16 0.41,-5.42 2.93,-10.35 4.8,-15.36zm323.72 -2.49c3.81,6.19 5.68,13.35 6.65,20.49 -4.09,-0.38 -8.18,-0.83 -12.15,-1.87 2.17,-6.12 3.97,-12.34 5.5,-18.62zm-577.59 13.81c1.42,-4.61 2.99,-9.21 5.3,-13.47 2.53,5.17 3.07,10.86 3.01,16.54 -2.78,-1.01 -5.55,-2.06 -8.31,-3.07zm110.43 -68.88c19.87,-17.39 41.64,-32.6 60.44,-51.19 -1.38,6.14 -2.35,12.55 -5.79,17.99 -5.18,8.52 -12.19,15.85 -16.84,24.73 0.06,1.12 0.17,3.36 0.23,4.48 5.94,5.54 12.95,9.8 18.87,15.33 4.52,5.98 6.67,13.46 7.23,20.84 -2.41,-6.95 -5.44,-13.93 -10.59,-19.34 -5.33,-5.65 -11.87,-9.95 -18.06,-14.58 6.47,21.94 17.74,42.07 25.42,63.6 1.74,-5.89 3.66,-11.72 5.29,-17.63 3.14,5.59 -1.87,11.38 -2.5,17.07 2,-2.9 3.7,-5.97 5.49,-8.98 1.16,5.18 2.3,10.36 3.85,15.44 -2.34,-0.02 -4.65,-0.02 -6.99,-0.02 -0.93,-1.92 -1.85,-3.85 -2.73,-5.77 -1.21,5.23 -6.97,3.57 -10.91,4.22 0.91,2.47 1.87,4.9 2.8,7.38 -4.56,2.86 -10.58,1.31 -11.85,-4.18 0.92,-6.62 9.44,-13.2 2.95,-19.42 -1.79,5.87 -3.25,11.85 -4.97,17.75 -4.09,0 -8.16,0.04 -12.26,0.06 -1.46,-6.07 -3.49,-12 -5.59,-17.87 -2.57,5.93 -4.72,12.26 -4.44,18.81 1.36,-3.29 2.76,-6.6 5.08,-9.35 2.97,5.68 4.86,11.92 4.63,18.41 -5.04,-0.07 -8.37,-3.72 -10.65,-7.81 -16.69,-2.73 -33.56,-4.54 -50.08,-8.13 4.48,-13.93 9.88,-27.55 15.36,-41.1 3.27,-8.48 10.26,-14.58 16.61,-20.74zm-71.28 -352.28c13.98,-4.58 28.86,-3.34 43.17,-5.83 -1.23,1.74 -2.84,2.93 -4.82,3.64 -8.17,3.18 -16.46,6.04 -24.67,9.16 -4.11,-3.14 -8.78,-5.34 -13.68,-6.97zm592.88 -274.97c2.79,5.45 4.56,11.4 7.76,16.65 4.63,5.83 12.87,8.43 15.68,15.81 3.47,8.19 5.86,16.78 8.54,25.25 3.47,10.58 3.59,22.67 11.27,31.45 0.24,7.82 -1.25,15.57 -3.4,23.07 -1.91,10.37 -14.51,11.56 -23.01,13.19 11.68,-15.47 14.47,-35.73 13.23,-54.61 -1.57,-13.83 -3.7,-27.88 -9.79,-40.56 -4.49,-4.54 -11.03,-6.29 -15.66,-10.57 -2.38,-6.34 -3.52,-13.05 -4.62,-19.68zm-270.64 -36.82c9.12,-8.09 15.03,-19.03 23.87,-27.36 -4.11,8.6 -10.65,15.72 -15.01,24.14 -3.57,10.69 -0.43,22.13 1.25,32.92 4.06,-8.68 8.69,-17.09 14.41,-24.77 -4.04,10.13 -9.27,19.76 -14.15,29.49 -2.85,1.41 -4.31,-2.63 -5.98,-4.18 -9.7,-11.51 -17.49,-24.5 -23.81,-38.15 6.25,-3.19 12.86,-5.53 19.27,-8.39 0.08,5.44 0.06,10.88 0.15,16.3zm82.35 -25.1c16.41,-11.79 35.36,-21.64 55.88,-22.54 12.78,-1.05 23.83,6.5 35.69,9.83 -10.46,0.73 -19.77,-5.34 -30.07,-6.02 -9.75,-0.65 -20.57,-1.46 -29,4.43 -16.64,11.98 -33.76,25.34 -42.17,44.67 19.1,-10.58 38.95,-22.63 61.44,-23.1 -1.01,3.79 -2.04,7.61 -3.05,11.4 10.2,-2.82 20.8,-4.91 31.45,-3.66 11.29,1.34 22.75,2.89 34.06,0.86 -15.07,9.85 -33.68,5.38 -50.5,6.84 -11.24,2.45 -21.22,9.96 -26.99,19.85 -5.12,7.64 -7.08,16.76 -9.16,25.58 2.79,-3.92 5.14,-8.13 7.95,-12.04 7.43,4.62 15.94,6.83 24.53,8.08 -5.15,11.29 -9.9,23.3 -9.85,35.88 6.12,-9.21 8.64,-20.26 15.44,-29.08 1.18,0 3.53,0 4.71,0.02 1.81,2.69 3.48,5.48 5.16,8.28 0.91,-4.86 2.28,-9.63 4.34,-14.13 -0.21,1.01 -0.6,3.01 -0.79,4 3.96,-2.47 7.79,-5.14 11.55,-7.94 -1.68,6.74 -2.32,13.68 -3.98,20.42 5.25,-6.09 10.95,-11.77 16.41,-17.69 8.56,-8.96 19.66,-14.83 30.84,-19.87 0.46,-2.54 0.91,-5.09 1.49,-7.61l1.2 -0.58c-0.21,3.37 -0.17,6.79 -0.73,10.13 -7.01,9.12 -19.49,12.75 -24.32,23.79 5.42,-4.48 10.02,-10.24 17.05,-12.31 -9.08,7.72 -16.37,17.43 -20.63,28.59 4.26,-1.46 8.52,-2.95 12.8,-4.43 -1.93,6.38 -3.76,12.79 -5.52,19.2 4.1,-2.02 8.21,-4.04 12.32,-6.08 5.14,5.11 10.2,10.69 12.02,17.93 2.89,10.26 5.53,20.67 10.58,30.14 2.33,-14.37 2.28,-29.68 9.56,-42.74 2.06,-4.56 6.02,-7.78 10.34,-10.09 -2.67,3.01 -5.78,5.94 -6.47,10.11 -6.74,26.89 -5.23,57.22 -22.42,80.45 -12.64,15.95 -34.04,20.81 -53.44,21.31 -11.94,-0.34 -24.05,1.01 -35.82,-1.59 -17.22,-2.43 -33.48,-8.71 -49.46,-15.21 9.14,13.49 19.83,25.87 31.61,37.13 12.05,-0.2 24,4.04 36.03,1.27 8.37,-2.05 17.2,0.06 25.49,-2.48 18.84,-4.77 37.12,-13.68 50.56,-27.98 7.38,-6.8 13.68,-15.1 16.2,-24.97 3.29,-8.05 1.05,-16.89 2.77,-25.23 2.03,-9.12 0.05,-18.59 2.15,-27.71 1.04,-5.12 0.78,-10.39 0.59,-15.59l1.01 0.09c6.13,0.62 12.34,0.71 18.47,-0.02 -5.25,2.55 -10.39,5.31 -15.68,7.76 -0.45,9.46 1.19,18.8 4.17,27.77 4.29,-11.58 11.96,-22.76 23.86,-27.42 -7.55,11.52 -20.57,21.24 -20.59,36.19 -0.92,6.67 5.98,9.23 10.42,12.33 5.35,2.32 4.36,8.97 5.59,13.7 1.76,-1.03 3.53,-2.04 5.33,-3.04 -10.13,17.39 -25.08,31.26 -41.32,42.85 -12.62,8.45 -25.36,17.01 -39.92,21.77 -19.01,8.69 -39.96,10.6 -60.29,13.96 7.42,5.78 14.65,12.02 23.19,16.15 3.81,1.83 7.21,4.39 10.3,7.27 -25.25,2.17 -49.83,-5.62 -74.82,-7.36 16.71,9.25 32.5,20.16 47.16,32.4 5.86,6.66 13.83,11.16 19,18.41 4.36,5.78 11.14,9.76 13.76,16.79 -13.44,-7.78 -25.68,-17.46 -39.43,-24.73 -23.59,-13.89 -48.22,-25.9 -73.3,-36.85 -11.14,-5.09 -22.26,-10.28 -34.07,-13.65 13.55,15.36 29.32,28.58 42.78,44.02 22.65,25.96 43.28,54.53 54.96,87.24 5.14,13.86 5.42,29.51 0.77,43.54 -9.59,27.42 -28.88,49.6 -46.39,72.2 21.29,-5.94 39.41,-18.99 57.56,-31.08 22.26,-15.05 42.93,-32.24 63.36,-49.66 -1.1,7.81 -2.45,15.59 -4.17,23.27 27.53,-18.76 39.1,-51.6 52.65,-80.51 -3.61,26.2 -14.73,50.66 -27.38,73.63 -7.83,11.87 -15.31,24.24 -25.83,33.98 -10.82,10.97 -21.6,22.45 -35.57,29.45 4.27,-11.28 9.2,-22.87 7.99,-35.23 -16.38,15.57 -34.88,29.09 -55.44,38.62 -24.78,13.21 -51.49,22.39 -78.45,29.92 -7.35,1.94 -14.55,4.74 -22.17,5.31 15.19,-25.03 31.96,-49.1 46.16,-74.72 5.93,-11.01 12.62,-21.96 15.16,-34.37 -26.71,16.97 -55.13,31.13 -83.99,44.01 -7.1,4.54 -10.32,12.62 -13.76,19.9 -9.58,22.86 -17.88,46.22 -25.47,69.83 -5.06,16.26 -11.85,32.07 -14.56,48.96 -2.37,13.14 -4.39,26.35 -7.47,39.34 -0.81,2.36 -0.58,4.84 -0.19,7.29 -0.67,0.17 -2.02,0.49 -2.67,0.66 1.77,-17.44 3.92,-34.91 7.49,-52.09 9.2,-29.75 18.8,-59.38 28.6,-88.96 4.78,-15.92 11.28,-31.34 14.82,-47.64 -19.33,10.43 -37.42,22.89 -56.29,34.07 -0.58,18.84 -3.48,37.49 -5.42,56.22 -5.13,47.54 -10.73,95.05 -15.26,142.63 4.49,-4.5 9.52,-8.48 13.5,-13.45 8.48,-10.77 18.33,-20.34 27.73,-30.26 -6.22,16.24 -18.76,28.82 -28.8,42.71 11.16,0.16 22.6,-1.13 33.4,2.41 5.08,6.35 9.92,13.15 13.01,20.74 0.93,5.93 1.77,11.89 2.54,17.83 -3.38,5.05 -7.27,9.76 -10.26,15.06 -7.14,0 -14.26,0 -21.38,0.02 -0.04,1.4 -0.09,4.21 -0.11,5.61 -1.35,0.02 -4.02,0.06 -5.37,0.07 -3.42,-3.42 -4.48,-7.72 -3.02,-12.33 -1.26,2.19 -2.47,4.41 -3.65,6.67 -7.08,-0.09 -14.18,-0.05 -21.29,0.02 -2.5,-11.29 -2.73,-22.91 -4.69,-34.29 0.9,-7.18 -0.5,-14.32 -3.19,-20.97 -4.66,9.7 -10,19.58 -10.67,30.55 1.62,3.42 4.35,6.13 6.78,8.99 0.62,-1.16 1.89,-3.47 2.52,-4.65 -1.55,7.31 -5.64,13.62 -8.54,20.41 -10.56,0.76 -20.84,-1.98 -31.32,-2.21 2.75,-11.31 2.93,-23.04 4.82,-34.46 5.91,-13.92 13.4,-28.15 12.32,-43.75 -0.62,-15.03 1.32,-30.24 -1.61,-45.08 -0.77,-12.39 -0.11,-24.84 -0.36,-37.25 -0.33,-7.51 2.28,-14.76 1.95,-22.29 -0.21,-43.36 0.24,-86.74 -0.23,-130.1 -10.52,20.99 -18.22,43.25 -27.81,64.66 -2.46,5.67 -4.72,11.42 -6.57,17.31 -4.34,-0.88 -8.68,-1.93 -12.75,-3.66 -28.54,-13.38 -55.1,-30.47 -81.75,-47.21 -11.49,-6.52 -21.77,-15.06 -33.64,-20.97 0.45,17.66 3.53,35.13 5.55,52.66 0.41,8.27 -0.46,16.64 1.55,24.77 1.37,6.11 -0.63,12.16 -1.15,18.24 -0.73,20.2 -6.26,41.32 -20.32,56.46 -14.91,15.83 -36.97,22.82 -58.22,24.09 -4.69,25.66 -7.12,51.71 -11.7,77.39 5.42,2.97 12.19,4.47 16.43,9.05 1.72,7.17 4.24,14.28 4.54,21.7 0.51,5.1 -3.17,9.17 -5.36,13.45 1.42,-5.14 3.16,-10.58 2.04,-15.92 -1.95,-6.09 -5.82,-11.29 -9.14,-16.65 -1.42,8.14 -3.16,16.37 -2.62,24.68 -0.06,5.35 4.49,8.88 7.55,12.69 -4.18,0.58 -8.3,1.57 -12.41,2.53 -0.84,2.61 -1.7,5.23 -2.9,7.72 -3.77,-1.18 -5.23,-5.33 -7.77,-8 1.59,-3.7 2.88,-7.55 4.3,-11.33 1.08,0.6 3.25,1.76 4.33,2.36 -1.94,-5.37 -3.79,-10.77 -5.51,-16.21 -0.88,9.29 -4.11,18.15 -4.9,27.44 -7.81,-0.24 -15.47,-3.12 -23.32,-1.98 -4,1.68 -7.57,4.2 -11.4,6.18 -0.43,-2.76 -0.84,-5.51 -1.07,-8.29 -9.68,0.09 -19.49,0.65 -28.93,-1.97 3.78,-13.75 10.97,-26.2 16.38,-39.34 4.48,-13.71 6.82,-28.03 10.35,-42.01 4.56,-9.35 11.62,-17.23 16.67,-26.32 5.79,-10.42 13.77,-19.52 18.88,-30.35 5.17,1.65 10.59,1.89 15.99,1.89 -6.97,-15.66 -9.25,-33 -6.76,-49.94 4.09,-21.08 22.13,-35.62 28.05,-55.99 5.08,-21.66 2.21,-44.01 3.22,-66.01 1.27,-12.18 8.59,-22.33 13.53,-33.19 10.01,-18.77 21.84,-36.48 33.81,-54.05 4.72,-5.81 10.11,-11.12 15.75,-16.02 4.08,-2.43 8.67,-3.89 13.12,-5.49 28.16,-7.48 54.57,-20.04 81.69,-30.52 18.97,-8.47 38.41,-15.94 56.85,-25.49 0.08,8.76 -0.2,17.53 0.06,26.27 0.99,11.74 5.89,22.69 12,32.62 5.23,-15.35 8.15,-31.61 15.59,-46.13 -4.58,19.57 -9.97,39.04 -11.74,59.15 -1.53,16.22 -4.15,32.56 -2.06,48.87 2.75,-7.49 5.61,-14.98 7.46,-22.78 11.06,-37.26 26.99,-73.46 50.2,-104.84 9.75,-13.14 20.69,-26.64 36.29,-32.93 9.83,-4.47 20.84,-2.4 31.2,-1.57 -19.72,-12.06 -40.84,-21.63 -60.61,-33.59 -14.97,18.76 -25.61,40.44 -39.51,59.94 4.65,-15.74 14,-29.57 21.73,-43.9 6.17,-9.31 12.06,-19.18 20.52,-26.62 0.68,-0.13 2.04,-0.39 2.71,-0.5 9.18,7.94 20.62,12.33 32.35,14.93 -2.18,-11.03 -4.54,-22.2 -4.05,-33.49 2.58,-25.12 7.34,-51.64 24.09,-71.54 5.59,14.54 9.53,29.79 17.01,43.56 7.14,12.92 14.93,25.74 25.66,36.04 8.82,9.34 19.81,16.31 31.13,22.23 -10.03,-10.46 -19.21,-21.86 -26.24,-34.59 -7.75,-17.34 -13.92,-35.85 -14.31,-54.98 -3.05,-10.66 0.54,-21.35 0.93,-32.05 1.39,-13.98 6.62,-27.01 11.44,-40.06 -5.42,4.27 -10.71,9.26 -17.68,10.71 5.2,-20.46 13.53,-39.86 20.76,-59.65 -6.26,6.01 -10.84,13.45 -16.41,20.07 4.55,-11.7 11.7,-22.43 22.02,-29.77 1.31,15.98 -3.87,31.36 -5.46,47.09 13.09,-10.52 26.82,-21.92 33.27,-37.92 0.11,0.84 0.37,2.53 0.49,3.35zm110.58 71.49l0 0c1.1,1.1 1.1,1.1 0,0zm-1.85 3.75l0 0c1.08,1.12 1.08,1.12 0,0zm-38.18 31.08l0 0c-3.72,12.97 -15.07,21.33 -21.16,32.99 -6.69,10.07 -9.55,22.3 -8.5,34.31 9.36,3.25 19.27,4 28.99,5.68 -3.35,-6.54 -8.3,-12.78 -8.43,-20.42 -2.55,-23.09 17.12,-41.68 15.02,-64.8 -4.65,2.24 -4.03,8.11 -5.92,12.24zm-159.65 57.06l0 0c-2.74,12.04 -5.68,24.54 -3.13,36.89 1.68,11.2 5.1,23.31 15.15,29.87 14.99,9.66 33.01,12.76 49.99,17.3 24.71,5.59 49.64,10.41 74.71,14.08 -2.58,-2.28 -5.37,-4.45 -8.71,-5.48 -25.4,-8.73 -49.55,-20.65 -73.28,-33.12 -8.13,-4.63 -17.05,-8.76 -22.88,-16.39 -7.89,-10.22 -13.88,-21.79 -18.52,-33.8 -3.05,-7.71 -3.94,-16.06 -7.03,-23.74 -3.7,3.94 -5.04,9.31 -6.3,14.39zm-292.35 320.54l0 0c-4.67,27.49 -10.6,54.89 -19.72,81.28 -3.83,12.28 -13.79,20.97 -22.78,29.58 -7.68,7.7 -17.51,12.56 -25.81,19.5 11.74,0.89 24,1.64 35.21,-2.62 12.63,-4.56 25.62,-12.33 30.28,-25.68 5.44,-20.43 3.85,-41.79 6.39,-62.61 0.24,-15.96 0.37,-31.94 -0.41,-47.88 -1.5,2.62 -2.32,5.55 -3.16,8.43zm-90.29 227.47l0 0c-2.73,9.56 -7.57,18.61 -8.56,28.59 0.58,4.34 2.08,10.35 6.95,11.53 5.78,-13.62 6.11,-28.61 8.13,-43.06 0.79,-5.83 1.05,-11.72 1.39,-17.58 -3.41,6.54 -5.98,13.43 -7.91,20.52zm303.74 -5.95l0 0c1.64,9.57 3.19,19.22 5.89,28.56 1.23,4.71 5.75,7.33 9.02,10.56 -0.11,-6.3 0.43,-12.75 -1.03,-18.91 -2.72,-7.89 -8.35,-14.17 -13.88,-20.21zm33.36 0.21l0 0c2.32,13.23 1.94,29 12.52,38.82 0.41,-6.38 1.16,-12.82 0.17,-19.16 -1.78,-7.87 -7.78,-13.64 -12.69,-19.66zm-18.32 41.19l0 0c2.1,2.8 3.7,5.94 5.37,9.03 -0.34,-6.36 -1.93,-12.56 -3.05,-18.79 -0.62,3.27 -0.97,6.66 -2.32,9.76zm-349.21 -0.39l0 0c-1.19,2.69 -0.43,3.44 2.27,2.28 1.19,-2.71 0.44,-3.46 -2.27,-2.28zm40.8 7.16l0 0c1.11,1.08 1.11,1.08 0,0zm586.92 -227.94c7.14,-8.02 15.33,-14.91 23.79,-21.47 0,5.06 0.23,10.13 -0.2,15.19 -3.52,21.27 -9.24,42.11 -15.8,62.63 -2.61,10.05 -5.92,19.9 -9.83,29.53 5.4,-32.17 17.4,-62.78 24.11,-94.64 -8.07,7.21 -15.3,15.25 -22.11,23.66 -5.88,7.19 -12.86,13.45 -18.37,20.93 -4.24,5.62 -3.92,13.01 -4.39,19.68 -1.25,32.48 -5.2,64.83 -5.85,97.33 2.07,-0.54 4.17,-1.08 6.26,-1.62 1.61,-3.89 3.25,-7.74 4.82,-11.63 -1.25,10.49 3.8,19.96 9.22,28.5 3.44,3.59 8.28,5.35 12.05,8.53 -4.45,-1.43 -8.97,-2.66 -13.44,-3.99 0.17,4.92 0.28,9.85 0.34,14.79 6.58,2.93 13.42,5.3 19.94,8.41 7.08,3.42 12.49,9.34 17.16,15.53 0.04,-4.15 0.22,-8.3 0.2,-12.45 4.43,10.99 -0.41,22.56 -5.96,32.11 -2.39,-0.77 -4.78,-1.46 -7.18,-2.11 -2.09,-8.82 -2.59,-17.87 -2.18,-26.92 -1.81,-0.93 -3.61,-1.88 -5.37,-2.84 4.45,11.12 -3.42,22.21 -7.79,32.13 -5.53,-1.53 -11.25,-2.07 -16.82,-3.31 0.04,2.84 0.08,5.68 0.13,8.54 -2.41,-0.69 -4.84,-1.3 -7.27,-1.86 1.33,-3.59 2.58,-7.2 3.87,-10.81 1.31,-0.04 3.93,-0.13 5.23,-0.17 0.15,-8.16 -0.82,-16.5 1.33,-24.48 -2.63,-1.77 -5.38,-3.42 -8.22,-4.8 1.55,2.17 3.19,4.3 4.82,6.46 -2.17,5.91 -0.75,12.84 -4.6,18.13 -2.37,4.17 -4.56,8.43 -6.88,12.64 -11.47,-3.12 -23.38,-2.19 -35.13,-2.19 -3.22,-0.2 -7.18,0.64 -9.23,-2.52 -0.17,-5.72 2.13,-11.09 3.32,-16.58 3.23,-13.46 5.65,-27.1 8.3,-40.67 -4.04,1.4 -8.09,2.77 -12.17,4.08 3.54,-16.73 8.34,-33.21 13.48,-49.51 -4.41,1.59 -8.82,3.18 -13.23,4.71 5.29,-23.03 13.9,-45.06 20.98,-67.56 1.42,-4 2.38,-8.36 5.05,-11.76 15.55,-16.84 33.36,-31.6 47.62,-49.62zm-41.4 181.81l0 0c5.37,11.33 9.5,24.91 20.69,31.87 -0.16,-4.43 0.77,-9.12 -0.76,-13.39 -5.4,-7.36 -12.71,-13 -19.93,-18.48zm14.41 2.22l0 0c4.17,6 9.91,10.55 15.52,15.12 5.27,5.13 10.57,10.21 16.65,14.41 -0.1,-4.44 -0.08,-8.87 0.11,-13.32 -10.95,-5.05 -20.73,-12.45 -32.28,-16.21zm2.79 8.55l0 0c1.1,1.1 1.1,1.1 0,0zm418.81 65.56c18.37,-1.59 36.91,-0.39 55.33,-0.68 22.75,2.55 47.01,5.97 65.85,20 12.63,9.42 17.19,25.14 19.9,39.92 0.39,14.24 0.24,28.52 0.07,42.78 -4.67,33.98 -12.57,68.53 -30.89,97.97 -10.16,16.71 -26.72,28.39 -44.5,35.88 -15.25,5.95 -31.62,8.32 -47.79,10.06 -23.97,-0.54 -48.23,1.98 -71.89,-2.92 -19.16,-3.51 -39.38,-10.93 -50.46,-27.99 -13.98,-19.22 -9.84,-44.09 -10.34,-66.29 2.52,-23.38 7.23,-46.67 15.1,-68.87 4.6,-15.16 11.48,-29.78 21.38,-42.19 8.82,-12.74 22.71,-20.55 36.31,-27.23 12.94,-6.82 27.72,-8.22 41.93,-10.44zm5.6 11.27l0 0c-9.29,1.02 -18.63,1.9 -27.71,4.09 -20.6,4.77 -38.69,17.98 -50.69,35.21 -10.32,13.96 -15.21,30.91 -19.88,47.38 -3.87,15.47 -8.04,31.04 -8.83,47.06 -0.56,10.86 -3.04,21.75 -1.17,32.63 1.68,10.46 2.72,21.57 8.72,30.67 8.04,12.89 22.84,19.3 37.08,22.65 20.75,5.64 42.43,3.51 63.66,3.66 25.14,-2.17 51.66,-5.75 72.98,-20.31 26.09,-20.56 37.49,-53.79 43.56,-85.32 4.55,-25.3 11.31,-51.96 2.79,-77.22 -3.87,-15.16 -15.74,-28.19 -30.82,-32.69 -28.84,-9.44 -59.69,-9.81 -89.69,-7.81zm-1096.48 9.87c9.93,-10.19 24.26,-14.23 37.91,-16.19 50.57,-0.15 101.14,-0.07 151.69,-0.04 -5.1,24.99 -7.99,50.39 -13.64,75.26 -6.59,-6.67 -13.34,-13.83 -22.33,-17.21 -16.86,-5.34 -34.74,-3.79 -52.16,-3.81 -10.6,1.1 -24.21,3.18 -28.2,14.8 -6.12,8.95 5.4,17.46 13.56,18.48 22.52,1.07 45.72,-1.86 67.55,5.26 11.86,5.23 22.31,16.82 21.88,30.46 0.09,26.43 -4.8,52.98 -13.9,77.82 -3.35,9.96 -10.47,18 -18.67,24.3 -11.39,7.23 -25.07,10.43 -38.47,10.13 -49.97,-0.13 -99.95,0.05 -149.92,-0.1 4.5,-29.58 7.79,-59.34 12.41,-88.9 9.14,7.12 16.03,17.47 27.34,21.51 16.9,5.44 34.8,3.61 52.26,3.96 8.56,0.34 16.98,-1.92 24.89,-5.01 6.5,-2.41 10.2,-10.09 8.45,-16.72 -3.37,-4.96 -8.94,-7.74 -14.82,-8.13 -11.8,-0.51 -23.59,0.31 -35.36,-0.27 -14.26,-2.5 -30.24,-0.56 -42.58,-9.56 -9.4,-5.59 -11.47,-17.53 -11.72,-27.59 -0.87,-18.07 2.71,-35.9 6.49,-53.47 3.89,-12.37 7.16,-26.11 17.34,-34.98zm22.37 0.03l0 0c-13.77,5.76 -22.24,19.61 -26.18,33.47 -4.43,16.04 -7.38,32.62 -7.05,49.33 0.19,5.75 -0.28,12.26 3.74,16.95 7.93,10 21.53,13.25 33.77,13.02 19.5,0.28 40.65,-2.86 58.54,6.75 13.79,8.22 9.92,28.65 -0.62,37.94 -11.9,9.74 -28,12.15 -42.93,11.38 -15.43,-0.8 -31.21,1.72 -46.33,-2.32 -7.12,-1.75 -13.04,-6.33 -18.5,-11.02 -2.19,16.84 -5.74,33.52 -6.41,50.53 43.71,0.02 87.43,0.19 131.12,-0.04 14.99,-1.21 32.73,-2.13 43.12,-14.57 9.94,-15.4 15.18,-33.46 17.62,-51.51 1.61,-11.98 4.96,-24.61 0.68,-36.41 -2.34,-6.84 -6.45,-14.07 -14,-15.9 -21.96,-6.9 -45.47,0.58 -67.66,-5.1 -8.93,-2.12 -18.44,-6.26 -22.46,-15.1 -5.07,-8.64 -0.17,-18.82 4.52,-26.47 6.75,-10.88 20.47,-14.02 32.43,-14.33 14.37,-0.04 28.74,0.15 43.13,-0.02 10.69,-0.38 20.86,3.51 30.69,7.25 1.79,-12.99 4.35,-25.85 6.67,-38.74 -38.63,-0.32 -77.28,0.05 -115.91,-0.21 -12.78,0.21 -25.75,1.18 -37.98,5.12zm250.76 -16.31l110.23 0 34.48 208.29c17.66,-43.92 36.05,-87.56 53.92,-131.39 7.15,-18.87 16.74,-36.96 21.81,-56.55 -0.73,-7.03 -3.39,-13.68 -5.61,-20.33 37.47,0 74.96,0.01 112.45,-0.02l8.1 88.62 42.38 -88.62c31.12,0.03 62.26,0.03 93.39,0 0.08,5.34 -0.16,10.76 0.86,16.07 2.41,10.97 -0.26,22.33 2.15,33.32 1.93,10.49 -0.47,21.31 1.87,31.77 1.89,9.97 -0.28,20.24 1.59,30.22 2.43,10.98 -0.28,22.36 2.15,33.33 1.77,9.34 -0.19,18.99 1.59,28.35 2.43,10.97 -0.26,22.33 2.15,33.32 1.55,9.61 0.56,19.42 0.78,29.12 -33.94,-0.15 -67.88,0.28 -101.8,-0.21 6.34,-9.85 12.09,-21.08 10,-33.19 -2.86,-11.68 -0.88,-23.71 -1.92,-35.53 -3.2,-15.77 0.13,-32.09 -4.06,-47.77 -6.56,13.52 -12.19,27.44 -19.29,40.69l-34.82 76.03 -77.59 0.04 -10.04 -120.83c-13.57,31.21 -26.56,62.7 -39.21,94.31l4.11 26.46c-51,0.02 -102.02,-0.04 -153.03,0.02 -3.12,-13.63 -4.16,-27.64 -7.88,-41.14 -27.72,-0.02 -55.43,0 -83.15,0 -4.09,8.39 -10.93,16.24 -10.34,26.19 -0.56,5.4 2.41,10.09 4.38,14.87 -25.33,0.04 -50.65,0.21 -75.97,-0.09 9,-18.75 20.4,-36.24 29.99,-54.67 25.87,-45.82 51.4,-91.82 77.21,-137.68 4.31,-9.33 11.7,-17.49 13.04,-27.98 -0.78,-5.14 -2.46,-10.07 -3.92,-15.02zm15.6 11.28l0 0c0.54,9.52 -1.94,18.83 -7.25,26.75 -33.9,60.13 -70.23,121.2 -102.08,182.2 11.81,0.43 23.64,0.32 35.45,0.08 1.46,-14.69 9.54,-27.16 17.8,-38.92 32.85,-0.3 65.73,-0.07 98.6,-0.11 3.63,12.71 5.76,25.76 8.47,38.67 22.63,1.22 45.3,0.28 67.95,0.5l-35.7 -209.11c-27.75,-0.17 -55.5,-0.02 -83.24,-0.06zm214.97 -0.05l0 0c1.02,6.35 2.69,13.08 0.18,19.3 -26.5,63.27 -53.5,126.33 -79.44,189.81 12.91,0.25 25.82,0.28 38.74,-0.03 1.16,-4.53 2.3,-9.05 3.98,-13.41 14.84,-34.35 29.6,-68.75 44.57,-103.05 3.57,-7.74 5.59,-16.39 11.38,-22.87 2.15,26.57 6.12,52.96 8.73,79.5 2.41,19.96 4.02,40.01 7.01,59.92 19.72,0.13 39.43,0.28 59.13,-0.09 7.76,-17.01 16.92,-33.33 24.67,-50.32 9.39,-22.48 22.02,-43.41 31.53,-65.84 3.78,-8.99 8.52,-17.49 13.03,-26.13 3.23,36.93 6.63,73.81 9.55,110.76 1.16,11.13 3.38,22.5 0.78,33.62 22.23,-0.06 44.46,0.11 66.71,-0.08 1.08,-15 -1.91,-29.86 -1.97,-44.85 -2.33,-31.55 -4.05,-63.15 -6.2,-94.72 -2.06,-23.79 -2.1,-47.75 -5.29,-71.41 -18.54,-0.28 -37.06,0.15 -55.58,-0.2 -4.77,-0.02 -9.57,-0.27 -14.26,0.63 -5.25,6.5 -7.91,14.62 -11.81,21.92 -16.21,31.79 -31.63,64.01 -48.17,95.64 -3.88,-24.88 -5.53,-50.05 -8.29,-75.08 -1.26,-14.33 -3.2,-28.59 -3.83,-42.97 -28.39,0 -56.76,-0.01 -85.15,-0.05zm288.56 -11.08c70.18,-0.25 140.35,-0.17 210.53,-0.04 -5.44,23.7 -9.6,47.69 -15.73,71.22 -10.43,-7.3 -19.66,-18.59 -33.36,-18.98 -22.95,-0.1 -45.92,0.07 -68.87,-0.04 -2.28,11.17 -4.13,22.42 -6.36,33.62 31.32,0.09 62.67,0.07 94.01,0.02 -5.18,19.68 -6.3,40.18 -11.44,59.86 -31,-0.07 -62.01,0.04 -93.02,-0.06 -5.28,29.92 -11.36,59.72 -15.64,89.79 -29.85,-0.1 -59.67,-0.02 -89.52,-0.04 -0.32,-10.63 3.08,-20.82 4.45,-31.25 10.35,-59.39 21.15,-118.71 31.28,-178.13 2.3,-9.28 -2.09,-18.03 -6.33,-25.97zm18.07 9.17l0 0c2.3,11.18 -1.23,22.22 -2.97,33.18 -3.76,20.14 -6.9,40.38 -10.34,60.57 -6.24,39.13 -14.24,78.01 -19.34,117.31 21.27,0.26 42.52,0.11 63.79,0.09 6.39,-29.11 10.48,-58.68 16.87,-87.78 31.64,-0.19 63.3,0.26 94.95,-0.17 1.79,-11.12 3.83,-22.22 6.09,-33.25 -31.77,-0.41 -63.55,0 -95.32,-0.15 3.33,-19.19 7.31,-38.27 10.11,-57.54 24,-1.18 48.02,-0.13 72.03,-0.56 6.6,0.04 13.33,-0.54 19.85,0.84 5.47,2.06 10.3,5.5 14.95,8.99 2.75,-13.76 5.4,-27.55 8.34,-41.28 -59.68,-0.42 -119.33,0.03 -179.01,-0.25zm436.1 -9.17c55.67,-0.28 111.36,-0.08 167.06,-0.12 15.29,1.4 31.86,5.33 42.48,17.29 9.4,11.91 10.58,27.87 9.68,42.46 -2.17,19.83 -8.28,39.85 -20.95,55.57 -7.06,8.54 -17.18,13.77 -27.47,17.36 12.7,34.2 25.02,68.55 37.82,102.73 -38.31,0.12 -76.62,0.06 -114.94,0.04 2.49,-8.67 8.51,-17.68 4.96,-26.89 -5.29,-13.89 -11.16,-27.57 -16.5,-41.46 -2.27,-5.77 -4.34,-11.68 -7.86,-16.83 -3.86,28.55 -10.42,56.68 -14.2,85.26 -29.86,-0.15 -59.75,0.01 -89.61,-0.1 1.44,-17.98 5.81,-35.56 8.58,-53.36 9.26,-52.44 18.46,-104.9 27.79,-157.32 1.92,-8.82 -3.26,-16.99 -6.84,-24.63zm124.05 11.23l0 0c-34.72,-0.15 -69.46,-0.15 -104.21,-0.04 -0.56,9.36 -2.24,18.62 -4.3,27.75 -5.92,32.95 -11.49,65.98 -16.97,99 -4.2,27.46 -9.75,54.72 -13.21,82.31 21.74,0.17 43.47,0.22 65.21,-0.06 2,-14.39 5.61,-28.48 7.96,-42.8 3.64,-21.43 9.06,-42.51 12.02,-64.06 12.95,30.03 25.73,60.14 38.74,90.15 2.6,5.22 2.79,11.07 2.19,16.77 26.12,0.05 52.27,0.41 78.42,-0.17 -11.12,-31.17 -22.71,-62.2 -34.07,-93.26 11.28,-3.85 23.32,-7.72 31.36,-17.08 14.22,-13.94 18.46,-34.59 19.17,-53.75 0.95,-12.77 -1.08,-26.84 -11.06,-35.83 -11.7,-10.28 -28.11,-8.39 -42.46,-9.94 -9.63,-1.5 -19.2,0.71 -28.79,1.01zm117.02 -11.22c50.07,-0.33 100.13,-0.05 150.2,-0.14 14.1,0.33 28.47,-1.43 42.2,2.63 12.36,2.95 25.31,9.44 30.78,21.59 9.16,17.24 9.62,61.67 5.89,80.72 -3.7,25.34 -9.38,50.55 -19.29,74.25 -6.48,14.71 -14.27,30.14 -28.29,39 -15.03,12.28 -34.93,15.48 -53.66,17.23 -52.44,0.12 -104.88,0.04 -157.32,0.04 0.69,-13.72 4.46,-27.02 6.41,-40.57 10.22,-58.24 20.63,-116.44 30.76,-174.67 -0.36,-7.24 -4.88,-13.57 -7.68,-20.08zm19.98 11.07l0 0c0.78,5.66 1.1,11.46 -0.1,17.12 -7.3,40.97 -14.26,81.99 -20.99,123.07 -3.75,23.62 -8.98,47.04 -11.58,70.85 43.69,0.31 87.41,-0.02 131.12,0.17 14.62,0.14 29.34,-2.15 43.06,-7.37 14.92,-5.62 26.26,-18.29 32.95,-32.5 10.93,-22.18 16.24,-46.54 20.88,-70.66 4.44,-26.5 7.81,-55.06 -3.14,-80.46 -7.03,-14.82 -24.26,-19.98 -39.48,-20.17 -50.9,-0.07 -101.81,0.08 -152.72,-0.05zm-399.88 15.66c10.47,-1.59 22.73,-2.65 31.55,4.43 7.74,5.79 11.19,15.36 13.04,24.52 3.98,19.68 -0.03,39.73 -2.91,59.28 -3.33,18.15 -6.45,36.41 -11.33,54.24 -4,14.45 -11.43,29 -24.7,36.93 -11.72,6.26 -26.45,6.84 -38.69,1.74 -9.66,-5.33 -17.94,-15.22 -18.02,-26.71 -1.66,-38.33 5.91,-76.38 15.66,-113.26 4.66,-17.94 16.04,-36.93 35.4,-41.17zm1.93 11.2l0 0c-5.68,2.63 -12.38,4.72 -15.76,10.4 -16.75,24.5 -28.73,99.22 -25.77,130.59 1.51,9.1 7.59,18.48 17.17,20.33 10.41,2.65 20.97,-2.6 28.69,-9.29 17.61,-19.79 25.71,-91.94 28.6,-119.11 -0.32,-9.92 -1.78,-20.98 -8.81,-28.57 -6.01,-6.78 -16.12,-5.66 -24.12,-4.35zm221.91 -6.25c11.53,0.13 23.18,-1.14 34.63,0.58 9.4,1.37 14.99,11.1 15.65,19.91 0.76,14.97 -2.08,30.83 -11.12,43.13 -4.88,6.75 -12.36,12.04 -20.82,12.75 -10.6,0.89 -21.23,0.05 -31.85,0.11 4.54,-25.49 9.16,-50.95 13.51,-76.48zm9.14 9.25l0 0c-3.38,19.27 -7.85,38.45 -9.68,57.94 46.68,3.39 60.24,-60.81 9.68,-57.94zm231.71 -7.43c12.47,0.16 24.93,-0.56 37.4,0.03 10.18,0.75 21.66,5.59 24.99,16.11 8.89,20.45 3.36,42.8 0.91,63.96 -4.28,23.45 -7.92,48.07 -21.34,68.36 -5.81,7.78 -12.62,16.13 -22.45,18.65 -16.28,4.3 -33.25,2.92 -49.86,2.83 6.17,-37.77 13.21,-75.4 19.88,-113.07 3.63,-18.94 6.06,-38.09 10.47,-56.87zm9.44 9.32l0 0c-5.79,25.61 -9.08,51.7 -14.24,77.41 -3.87,24.11 -8.71,48.05 -12.45,72.16 14.8,-0.39 31.1,-0.33 43.83,-8.97 16.25,-17.57 23.04,-57.41 26.14,-80.49 3.31,-16.81 6.33,-44.29 -8.52,-55.73 -10.63,-5.84 -23.14,-4.19 -34.76,-4.38zm-1316.1 102.81l0 0c16.32,0 32.63,-0.02 48.95,0 -4.75,-21.85 -7.06,-44.18 -11.72,-66.05 -12.56,21.94 -24.48,44.22 -37.23,66.05z"/>
  </g>
 </g>
</svg>
