<?xml version="1.0" encoding="UTF-8"?>
<!DOCTYPE svg PUBLIC "-//W3C//DTD SVG 1.1//EN" "http://www.w3.org/Graphics/SVG/1.1/DTD/svg11.dtd">
<!-- Creator: CorelDRAW -->
<svg xmlns="http://www.w3.org/2000/svg" xml:space="preserve" width="2000px" height="1600px" version="1.1" style="shape-rendering:geometricPrecision; text-rendering:geometricPrecision; image-rendering:optimizeQuality; fill-rule:evenodd; clip-rule:evenodd"
viewBox="0 0 2000 1600"
 xmlns:xlink="http://www.w3.org/1999/xlink">
 <defs>
  <style type="text/css">
   <![CDATA[
    .fil1 {fill:#00533C;fill-rule:nonzero}
    .fil0 {fill:#FCB930;fill-rule:nonzero}
   ]]>
  </style>
 </defs>
 <g id="Capa_x0020_1">
  <metadata id="CorelCorpID_0Corel-Layer"/>
  <g id="San_x0020_Francisco_x0020_Dons.cdr">
   <path class="fil0" d="M187.25 80l270.06 0c13.25,2.43 26.83,6.73 36.66,16.39 8.99,8.57 13.47,21.05 13.6,33.33 0.02,235.26 0,470.52 0,705.77 0.69,54.85 -3.48,110.67 10.15,164.39 10.06,42.3 32.28,82.35 66.13,110.15 25.38,21.97 56.97,34.23 86.69,48.96 70.97,33.96 141.61,68.73 214.01,99.55 31.04,12.82 62.36,25.67 95.29,32.8 30.43,7.06 60.57,-4.86 89.02,-14.42 64.79,-23.96 126.96,-54.29 189.38,-83.74 37.43,-17.94 74.85,-35.86 112.22,-53.93 29.78,-14.21 56.7,-34.99 76.34,-61.67 22.7,-30.37 35.15,-67.26 40.83,-104.45 6.2,-39.21 4.59,-79.02 4.8,-118.55 0,-241.63 -0.02,-483.25 0,-724.88 0.1,-12.29 4.67,-24.72 13.58,-33.33 10.25,-9.93 24.38,-14.44 38.21,-16.37l268.53 0 0 232.35c-17.23,0 -34.46,0 -51.69,-0.02 -12.2,-0.06 -25.15,4.07 -33.01,13.83 -7.21,8.6 -8.49,20.33 -8.09,31.13 0.9,91.14 0.4,182.31 0.52,273.47 -0.67,97.53 -0.48,195.06 -0.46,292.59 -1.03,73.56 -13.77,148.15 -46.55,214.54 -26.56,54.75 -66.49,102.54 -114.01,140.35 -50.93,40.72 -109.67,70.7 -170.66,93.23 -74.16,27.73 -147.31,58.11 -219.77,90.03 -34.84,15.05 -69.4,30.89 -105.02,44.1 -17.9,6.48 -36.22,12.32 -55.23,14.4l-17.54 0c-35.19,-4.34 -67.85,-19.14 -100.34,-32.49 -68.69,-29.6 -136.94,-60.28 -206.55,-87.74 -33.3,-13.61 -67.22,-25.62 -100.59,-39.05 -64.74,-26.71 -126.45,-62.9 -176.7,-112.12 -45.56,-44.08 -80.4,-99.14 -100.52,-159.26 -18.18,-52.65 -25.39,-108.51 -26.54,-164.02 0,-81.62 -0.02,-163.26 0,-244.88 -0.94,-26.77 -0.31,-53.56 -0.48,-80.34 0.13,-75.8 -0.38,-151.63 0.48,-227.43 -0.56,-13.62 2.14,-28.21 -4.32,-40.83 -6.41,-12.78 -21.08,-19.3 -34.86,-19.47 -17.87,-0.1 -35.71,0.02 -53.57,-0.02l0 -232.35z"/>
   <path class="fil1" d="M671.94 111.78c42.64,-14.91 87.93,-20.71 132.92,-21.76 180.11,0.02 360.2,0.02 540.3,0 0.06,42.55 0.02,85.12 0.02,127.67 -86.71,-0.04 -173.41,0.08 -260.12,-0.06 0.06,-8.74 0,-17.48 0.06,-26.2 -56.11,-0.07 -112.2,0 -168.29,-0.04 -0.04,28.21 -0.02,56.4 0,84.61 100.38,0.02 200.78,0.03 301.18,0 36.75,0.21 74.27,4.43 108.33,19.02 17.5,7.83 35.11,17.66 46.53,33.53 5.41,7.78 8.57,17.23 8.2,26.75 -0.07,37.66 -0.01,75.29 -0.03,112.93 -0.04,8.22 0.82,16.92 -3.04,24.49 -6.91,14.73 -21.19,23.97 -35.1,31.29 -36.25,18.17 -77.04,25.43 -117.3,26.91 -196.95,0.02 -393.91,0 -590.86,0 -0.02,-44.79 0,-89.56 0,-134.35 94.34,0 188.69,0 283.03,0 0,10.2 -0.02,20.41 0,30.6 55.78,0 111.55,0 167.33,0 0,-28.68 0,-57.37 0,-86.05 -87.66,0 -175.31,0 -262.95,0 -20.94,-0.12 -41.92,0.63 -62.78,-1.55 -34.27,-3.22 -68.67,-11.34 -98.72,-28.59 -20.65,-11.65 -42.83,-30.01 -42.66,-55.88 0.06,-38.96 -0.04,-77.91 0.04,-116.85 -0.04,-10.28 5.35,-19.98 13.23,-26.35 11.88,-9.62 26.41,-15.13 40.68,-20.12z"/>
   <path class="fil1" d="M636.65 611.63c248.13,0 496.26,-0.02 744.39,0 0,50.2 0.02,100.4 -0.02,150.6 -80.19,-0.09 -160.39,0.21 -240.58,-0.15 0.21,-10.94 0.08,-21.9 0.1,-32.84 -53.22,0 -106.44,0 -159.66,0 0,32.69 -0.02,65.35 0.02,98.01 59.91,-0.02 119.82,0 179.74,0 0,32.19 0,64.39 0,96.57 -59.92,0 -119.83,0.02 -179.74,0 -0.08,39.49 0.05,78.97 -0.06,118.46 22.95,9.42 46.1,18.32 68.98,27.94 -0.23,43.65 -0.04,87.33 -0.1,131.01 -137.67,-55.28 -275.34,-110.57 -413.05,-165.78 -0.04,-43.62 0,-87.26 -0.02,-130.9 23.51,9.71 47.22,18.89 70.76,28.47 0,-67.92 0,-135.85 0,-203.78 -23.56,0.02 -47.12,-0.05 -70.66,0.06 -0.21,-39.22 -0.04,-78.44 -0.1,-117.67z"/>
  </g>
 </g>
</svg>
