<?xml version="1.0" encoding="UTF-8"?>
<!DOCTYPE svg PUBLIC "-//W3C//DTD SVG 1.1//EN" "http://www.w3.org/Graphics/SVG/1.1/DTD/svg11.dtd">
<!-- Creator: CorelDRAW -->
<svg xmlns="http://www.w3.org/2000/svg" xml:space="preserve" width="2000px" height="1600px" version="1.1" style="shape-rendering:geometricPrecision; text-rendering:geometricPrecision; image-rendering:optimizeQuality; fill-rule:evenodd; clip-rule:evenodd"
viewBox="0 0 2000 1600"
 xmlns:xlink="http://www.w3.org/1999/xlink">
 <defs>
  <style type="text/css">
   <![CDATA[
    .fil0 {fill:#1360AB;fill-rule:nonzero}
    .fil1 {fill:#4D90CA;fill-rule:nonzero}
    .fil2 {fill:#FBBE56;fill-rule:nonzero}
    .fil3 {fill:#FBD41B;fill-rule:nonzero}
   ]]>
  </style>
 </defs>
 <g id="Capa_x0020_1">
  <metadata id="CorelCorpID_0Corel-Layer"/>
  <g id="San_x0020_Jose_x0020_State_x0020_Spartans.cdr">
   <path class="fil0" d="M1445.41 1012.62c76.78,-6.44 153.58,-12.68 230.37,-19.1 -12.42,46.96 -28.9,92.9 -49.67,136.82 -7.55,14.99 -14.57,30.36 -23.95,44.33 -52.06,-54.19 -104.61,-107.93 -156.75,-162.05zm-454.63 -932.62l9.86 0c61.9,3.6 124.03,11.73 183.25,30.67 -40.95,63.09 -81.49,126.43 -122.93,189.18 -23.36,-73.29 -46.61,-146.63 -70.18,-219.85zm94.02 62.72l0 0c-3.17,28.69 -6.37,57.38 -9.57,86.05 -0.78,8.85 -2.54,17.61 -2.41,26.53 5.18,-5.68 8.22,-12.85 12.56,-19.14 24.25,-39.89 49.2,-79.36 73.02,-119.49 -24.8,7.89 -49.04,17.46 -73.6,26.05zm-311.58 -36.02c50.96,-13.18 103.15,-21.95 155.74,-24.91 12.56,-1.37 25.3,-2.56 37.86,-0.4 -21.08,72.15 -42.12,144.32 -63.59,216.35 -43.34,-63.68 -86.97,-127.16 -130.01,-191.04zm163.85 -7.8l0 0c-17.74,13.28 -35.68,26.28 -53.41,39.53 -2.81,1.46 -1.95,4.74 -1.61,7.23 5.6,30.28 10.93,60.59 16.37,90.9 0.75,5.33 2.01,10.54 3.37,15.74 3.15,-8.03 4.66,-16.56 7.12,-24.8 11.63,-44.33 23.91,-88.49 35.3,-132.88 -2.39,1.43 -4.91,2.63 -7.14,4.28zm-262.35 45.34c26.61,-12.03 53.86,-22.82 81.97,-30.8 1.04,75.14 2.7,150.27 3.55,225.41 -60.58,-47.38 -120.48,-95.6 -180.98,-143.09 30.37,-19.68 62.58,-36.45 95.46,-51.52zm19.63 48.3l0 0c-2.65,2.37 -0.77,5.49 0.56,8.04 15.68,29.69 31.2,59.47 46.51,89.34 1.14,1.89 2.52,3.6 3.86,5.34 0.77,-14.68 -1.31,-29.32 -1.36,-44 -1.2,-30.44 -2.62,-60.88 -3.73,-91.31 -0.67,-9.05 0.23,-18.24 -1.66,-27.18 -15.09,19.65 -29.36,39.93 -44.18,59.77zm501.97 -77.44c61.79,20.82 121.97,47.7 176.32,83.97 -44.93,39.25 -90.51,77.76 -135.68,116.72 -11.94,10.02 -23.42,20.58 -35.68,30.19 -1.49,-76.96 -3.49,-153.92 -4.96,-230.88zm72.26 87.08l0 0c-11.7,27.28 -23.09,54.68 -34.66,82.03 -3.15,7.68 -6.83,15.18 -9.01,23.23 10.66,-8.62 20.43,-18.27 30.79,-27.25 25.73,-23.37 51.6,-46.59 77.4,-69.9 4.48,-3.78 8.84,-7.73 12.69,-12.16 -25.77,0.22 -51.5,2.48 -77.21,4.05zm-714.31 10.2c3.67,-2.51 7.47,-4.81 11.36,-6.97 22.31,71.76 44.87,143.44 67.12,215.21 -71.52,-28.68 -142.88,-57.8 -214.37,-86.57 40.55,-45.43 85.68,-87.07 135.89,-121.67zm-23.55 78.72l0 0c-1.23,3.67 -3.23,7.3 -3.07,11.25 2.96,4.37 7.12,7.7 10.7,11.54 22.55,23.39 44.91,46.96 67.67,70.16 -0.68,-3.44 -1.43,-6.85 -2.55,-10.16 -16.53,-48.5 -33.02,-96.99 -49.41,-145.54 -8.72,20.55 -15.31,41.94 -23.34,62.75zm860.02 -78.49c46.2,33.28 89.16,71.28 126.88,114 5.53,6.35 10.92,12.85 16.08,19.53 -69.19,29.38 -138.27,59 -207.52,88.26 21.1,-74.05 43.23,-147.81 64.56,-221.79zm42.8 104.7l0 0c-24.64,29.22 -49.92,57.95 -74.05,87.6 24.93,-10.54 49.29,-22.38 74.05,-33.36 25.15,-11.76 50.78,-22.56 75.64,-34.94 -25.12,-6.8 -50.43,-12.88 -75.64,-19.3zm-1080.18 108.63c14.37,-22.9 29.44,-45.48 47.04,-66.02 43.28,61.49 86.83,122.78 130.26,184.16 -76.8,-5.14 -153.56,-10.99 -230.34,-16.19l0 -0.93c15.37,-34.82 33.01,-68.66 53.04,-101.02zm43.04 -39.62l0 0c-1.42,24.26 -1.95,48.58 -2.8,72.86 -0.13,2.45 -0.1,5.46 2.72,6.37 27.26,14.45 54.35,29.2 81.65,43.62 5.21,2.97 10.43,6.01 16.13,8.05 -4.41,-7.38 -10.05,-13.88 -15.04,-20.85 -25.78,-34.88 -51.83,-69.55 -77.75,-104.32 -1.58,-1.97 -3.26,-3.84 -4.91,-5.73zm1023.5 170.27c42.12,-64.49 84.74,-128.67 127.03,-193.05 35.02,46.54 65.66,96.6 89.31,149.9 2.88,6.46 5.55,13.04 7.94,19.71 -74.75,7.86 -149.51,15.78 -224.28,23.44zm134.48 -78.61l0 0c-26.03,16.45 -51.95,33.12 -77.92,49.7 -5.16,3.14 -10.35,6.26 -14.97,10.18 25.79,-2.16 51.36,-6.55 77.09,-9.49 28.09,-4 56.41,-6.69 84.4,-11.41 -7.28,-5.76 -15.59,-9.92 -23.41,-14.83 -12.48,-7.76 -25.12,-15.25 -37.65,-22.93 -2.27,-1.26 -5.1,-3.36 -7.54,-1.22zm-654.14 -60.8c85.09,-17 175.34,-7.58 254.88,27.17 100.56,43.12 183.06,126.34 225.52,227.15 26.58,61.94 37.52,130.21 33.09,197.4 -1.6,19.71 -3.25,39.66 -8.8,58.72 -6.75,-16.28 -13.38,-32.6 -20.18,-48.82 -1.93,-4.75 -4.49,-9.47 -4.4,-14.74 -0.38,-76.27 -24.89,-152.09 -68.75,-214.46 -33.44,-47.74 -77.9,-87.73 -129.01,-115.79 -61.82,-34.15 -133.34,-50.37 -203.84,-46.45 -86.67,4.43 -171.73,39.57 -235.45,98.59 10.01,-6.08 19.47,-13.05 29.71,-18.78 75.66,-44.61 167.31,-60.61 253.76,-45.43 61.44,10.56 120.01,37.03 168.73,75.91 41.56,33.04 76.02,75.01 100.21,122.27 29.41,56.98 43.68,121.7 40.88,185.76 -1.95,35.71 -8.48,71.23 -19.95,105.14 -55.09,-43.78 -116.91,-81.09 -185.36,-99.32 4.86,-8.7 14.77,-14.25 24.8,-12.75 25.54,3.86 51.04,8 76.59,11.76 6.85,-60.64 4.56,-124.32 -20.3,-180.93 -19.54,-45.28 -55.04,-83.02 -98.4,-106.33 -32.24,-17.55 -68,-28.4 -104.35,-33.03 -21.38,-3.16 -43.09,-2.62 -64.56,-1 -47.06,3.69 -93.7,16.04 -135.38,38.4 -41.44,22.03 -77.6,53.53 -105.94,90.88 -21.71,28.6 -39.56,60.33 -51.4,94.3 7.1,-4.37 14.94,-7.39 23.13,-8.94 23.44,-4.74 47.44,-5.54 71.27,-6.05 17.58,-0.71 35.16,0.49 52.75,0.61 40.56,-0.04 81.13,-0.02 121.69,-0.02 35.52,0.02 71.04,-0.03 106.56,0.03 -15.16,30.29 -37.71,56.5 -63.9,77.81 -10.51,8.54 -21.5,16.48 -32.9,23.81 -45.48,28.73 -96.09,48.46 -147.79,62.78 -27.95,7.56 -56.27,13.91 -84.99,17.73 -25.81,118.02 -51.55,236.06 -76.96,354.18 2.02,-1.09 4.03,-2.18 6.05,-3.25 139.82,-76.08 279.45,-152.5 419.25,-228.63 24.59,-11.69 51.12,-19.39 78.16,-22.57 41.26,-4.59 84.38,3.31 119.76,25.57 -16.07,-31.19 -31.27,-62.8 -47.36,-93.97 -5.16,-10.53 -10.66,-20.87 -15.52,-31.52 22.22,9.92 42.32,23.95 62.38,37.61 22.54,15.59 44.38,32.18 66.19,48.82 1.78,1.47 3.47,3.06 5.14,4.72 65.02,68.29 130.17,136.47 195.25,204.72 20.72,22 42.08,43.44 62.35,65.86 -103.67,-48.26 -207.15,-96.88 -310.72,-145.36 -19.52,-10.5 -39.73,-19.95 -61.14,-25.92 -42.01,-12.23 -87.58,-12.96 -129.6,-0.37 -10.27,3.17 -20.53,6.73 -29.79,12.29 -190.43,112.51 -381.09,224.65 -571.47,337.26l-0.91 0c55.85,-195.05 112.28,-389.94 168.16,-584.99 71.96,-5.25 144.6,-16.23 211.63,-44.05 26.81,-11.55 53.41,-25.46 74.14,-46.4 -74.83,-0.4 -149.65,0.03 -224.48,-0.21 -7.26,-0.32 -14.08,2.51 -20.57,5.38 -28.6,12.45 -52.84,33.07 -73.44,56.14 -34.9,39.46 -61.41,85.73 -82.13,133.97 -2.08,4.51 -5.76,7.97 -9.12,11.54 -23.03,23.98 -45.23,48.76 -68.59,72.41 14.36,-51.13 32.99,-101.01 53.5,-149.98 42.67,-100.48 93.68,-197.41 151.31,-290.1 16.16,-25.09 36.24,-47.36 57.6,-68.06 -23.81,-9.71 -47.79,-19.01 -71.66,-28.56 62.54,-87.33 159.21,-149.44 264.67,-169.91zm-159.62 170.42l0 0c0.84,0.77 0.84,0.77 0,0zm734.45 114.3c58.59,-50.06 117.51,-99.77 176.21,-149.71 22.72,61.23 40.03,124.99 45.73,190.21 -73.95,-13.65 -147.99,-26.91 -221.94,-40.5zm44.26 -6.6l0 0c14.8,3.64 30.03,5.02 45.04,7.64 39.02,6.04 78.01,12.4 117.07,18.18 -4.77,-6.83 -10.83,-12.58 -16.27,-18.85 -11.11,-11.79 -21.79,-23.95 -32.87,-35.76 -1.5,-1.41 -3.31,-3.68 -5.63,-2.43 -35.82,10.24 -71.6,20.74 -107.34,31.22zm-34.79 163.1c71.46,-28.08 142.74,-56.62 214.18,-84.75 0.48,21.04 -1.1,42.19 0.96,63.15 -3.13,44.06 -6.97,88.37 -17.87,131.33 -51.67,-28.58 -103.23,-57.33 -154.9,-85.91 -14.09,-8.01 -28.48,-15.48 -42.37,-23.82zm45.33 8.77l0 0c2.03,1.41 4.07,2.88 6.24,4.14 27.43,14.18 54.77,28.53 82.1,42.93 18.72,9.17 36.69,19.89 55.68,28.5 -8.77,-22.52 -19.46,-44.26 -28.67,-66.6 -1.17,-1.76 -1.44,-5.07 -4.11,-4.97 -26.15,-0.82 -52.26,-2.35 -78.42,-3.07 -10.94,-0.24 -21.87,-1.79 -32.82,-0.93zm-44.35 166.27l0 0c3.62,4.58 7.74,8.7 12.06,12.62 17.68,16.93 34.53,34.72 52.52,51.35 17.31,17.25 34.64,34.48 52.24,51.46 -0.69,-12.33 -2.77,-24.5 -4.07,-36.74 -1.87,-13.79 -2.91,-27.7 -5.29,-41.41 -35.91,-12.16 -71.41,-25.58 -107.46,-37.28z"/>
   <g>
    <path class="fil1" d="M937.07 98.9c2.23,-1.65 4.75,-2.85 7.14,-4.28 -11.39,44.39 -23.67,88.55 -35.3,132.88 -2.46,8.24 -3.97,16.77 -7.12,24.8 -1.36,-5.2 -2.62,-10.41 -3.37,-15.74 -5.44,-30.31 -10.77,-60.62 -16.37,-90.9 -0.34,-2.49 -1.2,-5.77 1.61,-7.23 17.73,-13.25 35.67,-26.25 53.41,-39.53zm548.45 934.54c36.05,11.7 71.55,25.12 107.46,37.28 2.38,13.71 3.42,27.62 5.29,41.41 1.3,12.24 3.38,24.41 4.07,36.74 -17.6,-16.98 -34.93,-34.21 -52.24,-51.46 -17.99,-16.63 -34.84,-34.42 -52.52,-51.35 -4.32,-3.92 -8.44,-8.04 -12.06,-12.62zm44.35 -166.27c10.95,-0.86 21.88,0.69 32.82,0.93 26.16,0.72 52.27,2.25 78.42,3.07 2.67,-0.1 2.94,3.21 4.11,4.97 9.21,22.34 19.9,44.08 28.67,66.6 -18.99,-8.61 -36.96,-19.33 -55.68,-28.5 -27.33,-14.4 -54.67,-28.75 -82.1,-42.93 -2.17,-1.26 -4.21,-2.73 -6.24,-4.14zm-10.54 -171.87c35.74,-10.48 71.52,-20.98 107.34,-31.22 2.32,-1.25 4.13,1.02 5.63,2.43 11.08,11.81 21.76,23.97 32.87,35.76 5.44,6.27 11.5,12.02 16.27,18.85 -39.06,-5.78 -78.05,-12.14 -117.07,-18.18 -15.01,-2.62 -30.24,-4 -45.04,-7.64zm-778.71 -107.7c0.84,0.77 0.84,0.77 0,0l0 0zm813.76 -109.62c2.44,-2.14 5.27,-0.04 7.54,1.22 12.53,7.68 25.17,15.17 37.65,22.93 7.82,4.91 16.13,9.07 23.41,14.83 -27.99,4.72 -56.31,7.41 -84.4,11.41 -25.73,2.94 -51.3,7.33 -77.09,9.49 4.62,-3.92 9.81,-7.04 14.97,-10.18 25.97,-16.58 51.89,-33.25 77.92,-49.7zm-1157.98 -91.66c1.65,1.89 3.33,3.76 4.91,5.73 25.92,34.77 51.97,69.44 77.75,104.32 4.99,6.97 10.63,13.47 15.04,20.85 -5.7,-2.04 -10.92,-5.08 -16.13,-8.05 -27.3,-14.42 -54.39,-29.17 -81.65,-43.62 -2.82,-0.91 -2.85,-3.92 -2.72,-6.37 0.85,-24.28 1.38,-48.6 2.8,-72.86zm532.51 -4.98c35.51,-4.22 71.46,-4.28 106.99,-0.38 7.94,0.91 15.88,2 23.8,3.28 35.82,5.94 70.97,16.05 104.41,30.26 4.75,2.01 9.51,4.08 14.19,6.27 33.04,15.41 64.32,34.65 92.85,57.39 5.89,4.74 11.73,9.55 17.44,14.51 27.36,24.03 51.78,51.35 72.85,81.03 4.18,5.93 8.19,11.96 12.11,18.08 19.51,30.7 35.46,63.68 47.22,98.11 4.11,11.97 7.69,24.09 10.83,36.35 8.75,34.9 13.44,70.8 13.95,106.78 0.11,13.49 -0.19,26.98 -1.21,40.44 -2.63,34.57 -8.68,69.02 -19.3,102.06 -7.31,-15.7 -13.34,-31.97 -20.11,-47.9 5.55,-19.06 7.2,-39.01 8.8,-58.72 4.43,-67.19 -6.51,-135.46 -33.09,-197.4 -42.46,-100.81 -124.96,-184.03 -225.52,-227.15 -79.54,-34.75 -169.79,-44.17 -254.88,-27.17 -105.46,20.47 -202.13,82.58 -264.67,169.91 -9.84,-4.18 -20.13,-7.33 -29.7,-12.08 20.19,-28.56 43.39,-55.03 69.41,-78.45 5.92,-5.28 11.98,-10.43 18.13,-15.47 26.89,-21.79 56.19,-40.61 87.25,-55.89 7.12,-3.44 14.27,-6.78 21.52,-9.92 32.3,-13.76 66.12,-23.95 100.68,-30.06 8.64,-1.54 17.35,-2.79 26.05,-3.88zm504.63 -64.03c25.21,6.42 50.52,12.5 75.64,19.3 -24.86,12.38 -50.49,23.18 -75.64,34.94 -24.76,10.98 -49.12,22.82 -74.05,33.36 24.13,-29.65 49.41,-58.38 74.05,-87.6zm-902.82 -26.21c8.03,-20.81 14.62,-42.2 23.34,-62.75 16.39,48.55 32.88,97.04 49.41,145.54 1.12,3.31 1.87,6.72 2.55,10.16 -22.76,-23.2 -45.12,-46.77 -67.67,-70.16 -3.58,-3.84 -7.74,-7.17 -10.7,-11.54 -0.16,-3.95 1.84,-7.58 3.07,-11.25zm737.86 -88.92c25.71,-1.57 51.44,-3.83 77.21,-4.05 -3.85,4.43 -8.21,8.38 -12.69,12.16 -25.8,23.31 -51.67,46.53 -77.4,69.9 -10.36,8.98 -20.13,18.63 -30.79,27.25 2.18,-8.05 5.86,-15.55 9.01,-23.23 11.57,-27.35 22.96,-54.75 34.66,-82.03zm-574.23 -9.64c14.82,-19.84 29.09,-40.12 44.18,-59.77 1.89,8.94 0.99,18.13 1.66,27.18 1.11,30.43 2.53,60.87 3.73,91.31 0.05,14.68 2.13,29.32 1.36,44 -1.34,-1.74 -2.72,-3.45 -3.86,-5.34 -15.31,-29.87 -30.83,-59.65 -46.51,-89.34 -1.33,-2.55 -3.21,-5.67 -0.56,-8.04zm390.45 -49.82c24.56,-8.59 48.8,-18.16 73.6,-26.05 -23.82,40.13 -48.77,79.6 -73.02,119.49 -4.34,6.29 -7.38,13.46 -12.56,19.14 -0.13,-8.92 1.63,-17.68 2.41,-26.53 3.2,-28.67 6.4,-57.36 9.57,-86.05z"/>
   </g>
   <path class="fil2" d="M984.24 247.87c17.42,44.27 34.86,88.56 51.66,133.09 -35.53,-3.9 -71.48,-3.84 -106.99,0.38 18.07,-44.64 36.82,-89 55.33,-133.47zm-201.09 714.96c51.7,-14.32 102.31,-34.05 147.79,-62.78 -2.09,10.64 -6.72,20.48 -10.49,30.56 -16.79,40.99 -38.31,79.87 -61.84,117.33 -59.75,94.01 -132.27,179.23 -209.49,259.24 -6.98,8.4 -16.43,14.66 -21.87,24.31 -2.02,1.07 -4.03,2.16 -6.05,3.25 25.41,-118.12 51.15,-236.16 76.96,-354.18 28.72,-3.82 57.04,-10.17 84.99,-17.73zm661.19 -89.37c38.94,27.74 78.32,54.94 116.84,83.23 -25.45,4.24 -51.12,7.18 -76.65,10.91 -19.86,2.43 -39.6,5.84 -59.49,7.92 10.62,-33.04 16.67,-67.49 19.3,-102.06zm-12.74 -147.22c46.61,14 93.17,28.14 139.71,42.35 -10.61,6.19 -21.79,11.31 -32.65,17.04 -31.06,15.76 -61.97,31.81 -93.11,47.39 -0.51,-35.98 -5.2,-71.88 -13.95,-106.78zm-507.7 -96.29c25.08,-19.71 55.56,-30.54 85.72,-39.73 36.35,4.63 72.11,15.48 104.35,33.03 43.36,23.31 78.86,61.05 98.4,106.33 24.86,56.61 27.15,120.29 20.3,180.93 -25.55,-3.76 -51.05,-7.9 -76.59,-11.76 -10.03,-1.5 -19.94,4.05 -24.8,12.75 68.45,18.23 130.27,55.54 185.36,99.32 -2.8,18.57 -3.71,37.39 -6.53,55.98 -21.81,-16.64 -43.65,-33.23 -66.19,-48.82 -20.06,-13.66 -40.16,-27.69 -62.38,-37.61 4.86,10.65 10.36,20.99 15.52,31.52 16.09,31.17 31.29,62.78 47.36,93.97 -35.38,-22.26 -78.5,-30.16 -119.76,-25.57 -23,-18.64 -45.46,-38.11 -64.98,-60.43 -39.07,-42.64 -69.79,-92.18 -95.84,-143.62 26.19,-21.31 48.74,-47.52 63.9,-77.81 -35.52,-0.06 -71.04,-0.01 -106.56,-0.03 -19.88,-29.17 -36.76,-63.04 -35.13,-99.23 0.86,-27.44 16.37,-52.8 37.85,-69.22zm449.65 -38.17c49.22,-1.6 98.42,-3.43 147.65,-4.47 -33.62,34.07 -66.97,68.37 -100.43,102.58 -11.76,-34.43 -27.71,-67.41 -47.22,-98.11zm-825.01 -141.62c42.4,15.01 84.48,30.94 126.74,46.4 -26.02,23.42 -49.22,49.89 -69.41,78.45 -19.1,-41.62 -38.83,-82.96 -57.33,-124.85zm740.05 42.51c46.61,-15.71 93.38,-30.97 140.13,-46.27 -5.86,12.72 -12.99,24.78 -19.34,37.25 -16.05,29.98 -31.64,60.21 -47.94,90.05 -21.07,-29.68 -45.49,-57 -72.85,-81.03zm-619.39 -148.45c9.44,6.04 18.19,13.06 27.34,19.52 27.99,20.55 56.23,40.76 84.12,61.46 -31.06,15.28 -60.36,34.1 -87.25,55.89 -5.97,-30.59 -10.91,-61.36 -16.55,-92 -2.46,-14.98 -5.68,-29.83 -7.66,-44.87zm509.1 76.55c40.2,-28.11 80.23,-56.47 120.69,-84.16 -8.81,47.26 -18.78,94.32 -27.84,141.55 -28.53,-22.74 -59.81,-41.98 -92.85,-57.39zm-361.76 -145.91c8.92,10.08 16.69,21.11 25.14,31.59 20.34,26.3 41.09,52.29 61.18,78.77 -34.56,6.11 -68.38,16.3 -100.68,30.06 4.43,-46.85 9.48,-93.63 14.36,-140.42zm284.42 58.71c17.23,-20.71 33.84,-41.94 51.52,-62.26 4.22,47.7 7.89,95.44 11.63,143.19 -33.44,-14.21 -68.59,-24.32 -104.41,-30.26 13.39,-17.18 27.56,-33.74 41.26,-50.67z"/>
   <path class="fil3" d="M809.68 627.62c41.68,-22.36 88.32,-34.71 135.38,-38.4 21.47,-1.62 43.18,-2.16 64.56,1 -30.16,9.19 -60.64,20.02 -85.72,39.73 -21.48,16.42 -36.99,41.78 -37.85,69.22 -1.63,36.19 15.25,70.06 35.13,99.23 -40.56,0 -81.13,-0.02 -121.69,0.02 -17.59,-0.12 -35.17,-1.32 -52.75,-0.61 -23.83,0.51 -47.83,1.31 -71.27,6.05 -8.19,1.55 -16.03,4.57 -23.13,8.94 11.84,-33.97 29.69,-65.7 51.4,-94.3 28.34,-37.35 64.5,-68.85 105.94,-90.88zm121.26 272.43c11.4,-7.33 22.39,-15.27 32.9,-23.81 26.05,51.44 56.77,100.98 95.84,143.62 19.52,22.32 41.98,41.79 64.98,60.43 -27.04,3.18 -53.57,10.88 -78.16,22.57 -139.8,76.13 -279.43,152.55 -419.25,228.63 5.44,-9.65 14.89,-15.91 21.87,-24.31 77.22,-80.01 149.74,-165.23 209.49,-259.24 23.53,-37.46 45.05,-76.34 61.84,-117.33 3.77,-10.08 8.4,-19.92 10.49,-30.56z"/>
  </g>
 </g>
</svg>
