<?xml version="1.0" encoding="UTF-8"?>
<!DOCTYPE svg PUBLIC "-//W3C//DTD SVG 1.1//EN" "http://www.w3.org/Graphics/SVG/1.1/DTD/svg11.dtd">
<!-- Creator: CorelDRAW -->
<svg xmlns="http://www.w3.org/2000/svg" xml:space="preserve" width="2000px" height="1600px" version="1.1" style="shape-rendering:geometricPrecision; text-rendering:geometricPrecision; image-rendering:optimizeQuality; fill-rule:evenodd; clip-rule:evenodd"
viewBox="0 0 2000 1600"
 xmlns:xlink="http://www.w3.org/1999/xlink">
 <defs>
  <style type="text/css">
   <![CDATA[
    .fil1 {fill:#003D7D;fill-rule:nonzero}
    .fil2 {fill:#79BCE9;fill-rule:nonzero}
    .fil0 {fill:#FEFEFE;fill-rule:nonzero}
   ]]>
  </style>
 </defs>
 <g id="Capa_x0020_1">
  <metadata id="CorelCorpID_0Corel-Layer"/>
  <g id="San_x0020_Diego_x0020_Toreros.cdr">
   <path class="fil0" d="M904.48 246.74c22.19,-9.67 44.25,-19.7 65.92,-30.53 7.2,13.85 15.45,27.4 21.37,41.8 -13.55,33.21 -27.36,66.36 -42.05,99.09 -3.98,-5.1 -6.79,-10.93 -9.97,-16.53 4.71,-4.07 9.51,-8.02 14.15,-12.16 -5.49,-5.6 -13.79,-2.74 -20.35,-1.19 1.54,-6.31 2.93,-12.71 3.41,-19.2 -7.08,2.4 -13.99,5.28 -21.03,7.8 -1.23,-10.93 -3.79,-21.69 -4.2,-32.71 5.62,-1.08 10.76,1.26 15.58,3.84 7.59,-4.64 13.15,-11.89 17.65,-19.43 0.18,-8.46 -0.55,-17.46 4.34,-24.96 -14.69,5.3 -27.65,14.49 -41.98,20.69 -1.06,-5.49 -2.25,-10.95 -2.84,-16.51zm-371.93 563.04c29.71,-20.11 67.11,-27.95 102.49,-22.56 33.01,4.78 63.5,20.92 88.64,42.43 22.42,19.4 41.07,43.08 55.27,69.12 -52.85,-2.06 -105.85,-0.55 -158.42,5.34 -57.08,6.43 -113.99,18.13 -167.23,40.17 8.51,-28.76 19.98,-56.76 35,-82.75 11.63,-19.54 25.39,-38.58 44.25,-51.75zm991.04 -68.45c7.7,-0.64 14.9,-4.28 22.74,-4.05 -5.69,13.65 -13.85,26.13 -21.37,38.83 -4.48,9.15 -16.71,12.37 -25.87,9.7 -2.4,-15.23 -4.23,-31.25 -1.05,-46.49 8.41,1.37 16.96,3.24 25.55,2.01zm-556.11 22.1c15.65,-21.6 41.46,-34.15 67.86,-35.64 -10.06,35.66 0.11,73.99 20.16,104.26 -25.17,-2.93 -50.13,-7.41 -75.02,-12.14 -4.18,-18.86 -9.19,-37.53 -13,-56.48zm208.54 -270.06c51.09,21.14 103.25,39.68 155.59,57.51 4.19,1.67 9.24,2.2 12.23,5.92 24.8,27.02 48.34,56.09 79.7,75.89 28.99,17.8 56.9,40.5 71.87,71.81 -8.83,7.11 -18.88,13.97 -23.43,24.78 0.09,12.3 3.22,24.41 3.75,36.71 -113.76,56.27 -243.36,81.05 -369.83,70.58 -14.42,-21.05 -27.84,-42.81 -42.11,-64 -1.57,-2.65 -4.45,-5.44 -2.76,-8.8 2.99,-11.22 6.13,-22.4 9.17,-33.6 3.42,0.71 6.85,1.44 10.3,2.2 45.97,-73.06 76.55,-155.04 95.52,-239zm-65.46 -79.52c2.58,-3.63 6.17,-6.38 9.37,-9.42 5.51,20.83 16.46,39.66 28.71,57.19 -7.18,0.07 -14.31,-0.57 -21.42,-1.28 -8.8,-14.03 -15.65,-29.78 -16.66,-46.49zm-194.67 -16.09c5.89,-3.93 11.61,-9.28 19.11,-9.46 -10.82,31.11 -28.28,59.72 -37.49,91.49 -11.27,40.14 -14.47,82.25 -13.44,123.78 2.35,10.6 -5.49,18.94 -10.22,27.54 4.3,11.31 11.34,21.23 17.19,31.77 -13.78,14.13 -32.02,22.77 -50.63,28.59 -5.99,-66.35 -4.71,-134.6 14.47,-198.88 11.25,-36.15 29.85,-71.97 61.01,-94.83z"/>
   <path class="fil1" d="M1400.82 1404c16.51,0.25 33.17,-0.87 49.56,1.6 9.07,1.3 17.32,8.64 18.12,18.06 1.54,13.76 0.69,27.61 0.9,41.44 -0.26,13 0.84,26.17 -1.47,39.06 -1.53,7.91 -9.67,12.02 -17.03,12.71 -16.66,1.85 -33.46,1.01 -50.14,0.78 0.16,-37.9 0,-75.77 0.06,-113.65zm120.09 -0.04c16.39,0.18 32.78,-0.19 49.17,0.2 -0.14,7.5 -0.11,15.02 -0.11,22.54 -6.45,0.2 -12.87,0.23 -19.29,0.11 -0.19,7.04 -0.19,14.11 -0.12,21.17 6.06,0.02 12.12,0.02 18.2,-0.02 0.04,7.33 0.04,14.67 0.18,22.03 -6.2,0.3 -12.37,0.37 -18.56,0.5 0.23,7.84 0.23,15.73 0.02,23.59 7.27,0.28 14.54,0.23 21.83,0.18 0.05,7.89 0.02,15.75 0.02,23.64 -17.14,0.09 -34.28,-0.09 -51.43,0.07 0.07,-38.01 -0.13,-76.03 0.09,-114.01zm-40.95 -0.07c9.8,0.18 19.61,0.09 29.41,0.09 0.12,37.9 -0.09,75.79 0.12,113.69 -9.92,1.07 -19.89,0.05 -29.81,0.09 0.16,-37.96 -0.36,-75.93 0.28,-113.87zm-181.67 0.52c8.43,-0.75 16.91,-0.41 25.39,-0.29 4.98,14.51 8.39,29.76 14.93,43.68 1.09,-14.56 0.25,-29.19 0.45,-43.75 8.32,-0.07 16.67,-0.03 25.01,-0.12 0.43,37.97 0.07,75.98 0.18,113.97 -8.71,0.16 -17.41,0.11 -26.1,-0.14 -5.1,-15.24 -8.09,-31.34 -14.58,-46.03 0.18,15.4 0.11,30.81 0.09,46.24 -8.37,0.29 -16.76,0.41 -25.1,0.02 -0.2,-37.85 0.32,-75.73 -0.27,-113.58zm-228.62 0.07c16.87,-1.03 33.81,-0.34 50.67,-0.34 -0.11,7.59 -0.09,15.18 -0.13,22.79 -6.68,-0.09 -13.33,-0.09 -19.98,0.02 0.02,6.97 0.02,13.99 0,20.98 5.9,0.05 11.82,0.07 17.71,0.05 0.05,7.45 0.05,14.9 -0.02,22.38 -5.9,-0.1 -11.82,-0.1 -17.71,0.02 0.13,15.75 -0.09,31.47 0.16,47.22 -10.13,0.5 -20.28,0.44 -30.4,0.37 -0.21,-37.83 0.36,-75.66 -0.3,-113.49zm-177.01 -0.57c9.19,0.11 18.38,0.09 27.57,0.07 2.99,13.39 4.34,27.08 7.36,40.45 1.83,-13.55 4.73,-26.92 7.27,-40.36 9.3,-0.11 18.63,-0.14 27.98,0.05 -6.02,19.54 -11.68,39.17 -17.54,58.78 -6.9,17.51 -2.83,36.62 -3.91,54.93 -9.32,0.89 -18.69,0.87 -28,-0.07 -0.22,-13.76 0.49,-27.52 -0.32,-41.23 -6.23,-24.35 -14.03,-48.3 -20.41,-72.62zm-67.86 0.11c21.71,-0.06 43.43,0 65.17,-0.04 0,7.56 -0.03,15.15 0.06,22.72 -5.87,0.2 -11.74,0.23 -17.6,0.02 -0.41,30.4 -0.06,60.8 -0.18,91.2 -9.89,0.25 -19.82,-0.11 -29.71,-0.11 -0.12,-30.38 0.23,-60.76 -0.19,-91.11 -5.89,0.27 -11.81,0.32 -17.69,-0.25 0.21,-7.48 0.19,-14.95 0.14,-22.43zm-36.25 0.44c10.15,-0.96 20.37,-0.28 30.56,-0.46 0.07,37.85 -0.12,75.73 0.09,113.6 -10.1,0.6 -20.25,0.5 -30.35,0.32 -0.23,-37.83 0.34,-75.66 -0.3,-113.46zm-209.17 -0.57c16.32,0.34 32.67,-0.19 49.01,0.29 -0.16,7.52 -0.12,15.07 -0.21,22.61 -6.33,0.11 -12.68,0.11 -19.01,-0.07 -0.51,7.06 -0.39,14.13 -0.35,21.21 6.08,0.07 12.16,0.07 18.22,0 0.07,7.36 0.05,14.72 0.18,22.08 -6.17,0.28 -12.36,0.32 -18.53,0.46 0.2,7.86 0.2,15.75 0,23.63 7.26,0.23 14.56,0.21 21.85,0.19 0.02,7.84 0.02,15.68 0,23.54 -17.15,0.05 -34.29,0.25 -51.43,0.39 0.18,-38.1 -0.37,-76.23 0.27,-114.33zm-81.89 -0.05c10.49,0.25 21,0.18 31.49,0.07 3.68,24.87 4.28,50.13 8.48,74.9 -0.5,-25.05 3.55,-49.94 5.7,-74.85 10.49,0.06 20.98,0.04 31.47,0.02 -5.03,37.94 -9.99,75.91 -15.16,113.83 -15.04,0.09 -30.14,0.61 -45.16,-0.51 -5.17,-37.87 -11.38,-75.61 -16.82,-113.46zm-34.27 0.07c9.83,0.14 19.66,0.14 29.49,0 0.3,38.01 0,76.05 0.14,114.08 -9.9,1.07 -19.82,-0.5 -29.74,-0.25 0.07,-37.94 -0.16,-75.89 0.11,-113.83zm-77.25 0.09c8.25,-0.02 16.5,0.07 24.77,-0.14 6.27,15.52 9.49,32.23 16.25,47.5 0.28,-15.77 0.05,-31.56 0.12,-47.36 8.39,-0.02 16.78,-0.04 25.19,0.07 -0.09,37.9 -0.03,75.79 -0.05,113.69 -8.98,0.3 -18.03,1.14 -26.97,-0.36 -4.07,-16.05 -9.32,-31.78 -13.76,-47.73 -0.89,16.05 -0.18,32.11 -0.41,48.18 -8.41,0.51 -16.85,0.41 -25.24,-0.29 0.21,-37.86 0.03,-75.71 0.1,-113.56zm-78.18 -0.11l28.93 0.01 0 91.28c0,2.41 1.97,4.39 4.39,4.39l0 0c2.41,0 4.39,-1.98 4.39,-4.39l0 -91.28 29.47 0.01c0.32,26.51 0.02,53.03 0.18,79.52 -0.18,8.64 0.1,18.31 -5.85,25.3 -5.41,7.5 -14.79,10.29 -23.56,11.27l-7.57 0c-9.8,-1.26 -20.57,-4.5 -26.24,-13.28 -4.2,-6.1 -4.32,-13.76 -4.32,-20.87l0.18 -81.96zm1278.82 7.65c13.28,-13.46 37.23,-13 51.68,-1.69 11.11,8.53 9.39,23.98 10.12,36.37 -10.15,0.09 -20.32,0.07 -30.44,0.07 0.16,-8.28 0.16,-16.55 -1.01,-24.73 -1.55,0.11 -4.66,0.38 -6.22,0.52 -2.37,6.4 -1.09,13.44 -1.37,20.14 0.41,19.31 -0.77,38.67 0.73,57.96 2.98,-0.84 7.98,0.46 8.14,-4.02 1.37,-7.11 0.78,-14.42 1.01,-21.6 -1.63,-0.09 -4.85,-0.32 -6.45,-0.41 0,-5.9 0.02,-11.77 0.09,-17.65 11.87,0.21 23.73,-0.27 35.59,0.39 -0.5,20.28 -0.09,40.55 -0.23,60.83 -6.47,-0.03 -12.89,-0.03 -19.31,0 -0.76,-2.4 -1.49,-4.76 -2.17,-7.11 -4.25,5.12 -10.08,8.82 -16.8,9.39l-3.29 0c-9.24,-0.87 -18.66,-5.51 -23.27,-13.83 -4.62,-8.29 -4.25,-18.1 -4.35,-27.27 0.16,-14.44 -0.16,-28.91 0.16,-43.36 0.53,-8.36 0.8,-17.89 7.39,-24zm-436.03 10.2c1.17,-11.82 12.96,-18.49 23.73,-19.66 12.23,-1.35 26.22,0.07 35.52,8.96 6.22,7.77 4.39,18.56 4.73,27.84 -9.12,-0.02 -18.22,-0.02 -27.34,-0.04 -0.18,-5.24 0.26,-10.56 -1.09,-15.66 -2.15,-1.94 -4.41,-2.13 -6.81,-0.57 -2.93,5.78 -2.72,14.21 2.85,18.4 10.63,8.36 24.73,13.51 31.55,25.89 4.54,11.32 4.54,24.21 2.05,36 -3.4,12.14 -17.51,16.12 -28.64,17.1l-5.71 0c-9.9,-0.91 -20.96,-3.98 -26.65,-12.78 -5.19,-9.3 -4.05,-20.41 -4.28,-30.65 9.35,0 18.7,0 28.07,0 0.11,7.43 -0.8,15 0.92,22.31 2.67,1.72 7.51,1.94 8.43,-1.97 1.76,-5.55 1.17,-11.79 -0.98,-17.14 -8.8,-9.85 -22.08,-14.33 -31,-24.07 -7.59,-9.48 -6.53,-22.65 -5.35,-33.96zm-436.66 -1.31c2.01,-10.9 12.94,-17.23 23.27,-18.28 12.27,-1.39 26.7,-0.32 35.82,9.05 6.01,7.82 4.73,18.49 4.84,27.79 -9.28,-0.18 -18.56,-0.15 -27.84,-0.13 -0.02,-4.96 0.19,-9.94 -0.39,-14.86 -2.31,-4.36 -8.09,-1.69 -8.64,2.45 -0.66,5.09 -0.45,11.54 4.35,14.67 10.37,7.77 23.36,12.98 30.72,24.12 5.41,10.85 4.84,23.72 3.36,35.45 -1.95,13.44 -17.17,18.26 -28.83,19.31l-5.73 0c-10.01,-0.84 -21.12,-3.89 -27,-12.71 -5.35,-9.28 -3.66,-20.48 -3.88,-30.69 9.16,-0.05 18.33,-0.05 27.49,0.04 0,7.48 -0.8,15.11 1.15,22.42 3.42,2.45 8.77,0.51 8.86,-3.97 0.46,-5.42 1.1,-11.71 -2.33,-16.32 -9.46,-9.92 -23.65,-14.36 -31.91,-25.56 -5.66,-9.8 -5.21,-21.96 -3.31,-32.78zm372.18 -254.05c32.46,0.2 64.94,-1.85 97.38,0.16 7.33,0.66 15.4,2.35 20.61,7.98 5.08,6.12 2.77,14.6 0.02,21.23 -4.59,11.36 -15.49,18.95 -27.08,21.87 1.39,-7.27 3.5,-16.64 -3.5,-21.8 -11.7,-8.25 -27.31,-5.83 -40.36,-2.54 -9.79,18.03 -18.06,36.85 -27.73,54.95 14.47,0.82 28.98,-0.05 43.47,0.48 -14.99,11.57 -33.94,17.65 -52.82,17.65 -9.62,17.89 -19.88,35.58 -27.45,54.49 18.63,9.35 40.64,1.89 56.37,-9.83 7.86,-5.01 12.18,-13.37 18.31,-20.09 3.93,4.09 6.51,9.76 4.27,15.4 -7.29,19.04 -24.53,33.94 -44.37,38.68 -14.85,4.27 -30.47,2.67 -45.73,3.04 -20.28,0.93 -40.58,0.43 -60.85,0.45 22.04,-23.01 33.65,-53.14 48.57,-80.75 10.52,-21.33 21.81,-42.26 32.05,-63.7 5.14,-11.84 10.49,-24.51 8.84,-37.67zm492.48 -4.78c30.5,0.02 61.01,0.57 91.48,-0.48 6.49,0.21 14.33,0.62 18.47,6.42 4,6.13 3.91,14.08 2.12,20.94 -3.95,12.34 -14.03,21.44 -24.93,27.8 0.82,-7.55 2.26,-16.3 -3.07,-22.61 -5.92,-8.8 -17.64,-9.05 -27.13,-8.78 -8.62,0.62 -19.31,5.12 -19.79,15.06 -1.51,12.92 11.13,20.05 17.23,29.65 9.26,14.26 17.72,30.9 15.61,48.44 -5.41,34.65 -33.46,64.57 -67.97,71.4 -27.5,0.55 -55.04,1.14 -82.56,0.8 7.33,-10.7 15.68,-21.07 19.17,-33.83 5.08,-19.08 11.84,-37.73 20.89,-55.31 4.58,5.05 8.85,10.42 12.12,16.43 -2.1,9.17 -4.89,18.84 -1.97,28.16 4.76,15.18 26.95,20.85 38.47,9.85 10.01,-8.45 9.53,-23.72 4.48,-34.76 -7.38,-14.79 -17.69,-27.84 -26.65,-41.63 -4.5,-11.08 -0.85,-23.49 2.83,-34.3 5.74,-13.81 10.7,-28.16 11.2,-43.25zm-1291.04 -96.41c-3.26,-9.76 5.58,-20.69 15.71,-19.98 386.99,15.45 774.01,31.13 1161,46.7 9.83,0.55 19.71,1.01 29.54,1.8 -227,9.13 -454.06,17.95 -681.08,26.95 -17.49,0.96 -35.45,-0.06 -52.25,5.74 -29.53,9.21 -52.73,32.05 -68.96,57.67 -11,17.74 -19.77,36.91 -25.31,57.05 -9.02,30.38 -29.73,56.62 -56.18,73.83 -34.44,22.58 -75.56,32.3 -116.07,36.41 -29.87,2.95 -59.97,2.29 -89.89,0.34 30.74,-8.36 58.78,-24.87 82.88,-45.5 22.17,-21.28 33.3,-51.07 41.57,-80 6.11,-25.58 11.16,-52.23 25.58,-74.7 5.97,-9.08 14.06,-18.47 25.46,-19.89 11.64,-0.8 23.23,1.63 34.86,1.17 -13.14,-5.35 -27.18,-9.19 -41.44,-9.35 -32.23,-1.21 -64.75,-0.07 -96.43,6.35 -16.67,3.64 -33.7,9.31 -46.66,20.8 -11.2,10.06 -15.06,26.27 -11.9,40.71 -8.39,3.64 -16.6,10.27 -25.49,11.18 -31.95,-40.6 -63.15,-81.81 -94.86,-122.61 -3.49,-4.77 -7.77,-9.16 -10.08,-14.67zm685.7 -985.19l12.89 0c11.79,1.58 22.99,6.54 32.38,13.83 22.02,16.8 34.27,42.88 42.13,68.78 -17.03,12.27 -35.06,23.13 -53.48,33.19 5.6,-0.26 11.17,-0.39 16.8,-0.46 0.66,17.32 5.37,35.77 18.71,47.77 4.9,-5.1 9.93,-10.08 15.07,-14.9 48.57,31.08 106.03,52.09 164.41,47.2 5.21,12.82 10.74,25.73 12.18,39.65 57.56,27.57 110.04,64.76 158.93,105.56 64.91,53.3 116.59,121.1 158.74,193.35 11.79,21.07 23.93,42.24 32.02,65.07 3.78,7.68 -5.37,11.63 -9.6,16.23 -5.71,4.91 -3.58,13.14 -2.88,19.61 12.19,-9.74 24.42,-19.47 35.68,-30.24 2.68,-1.85 4.85,-6.51 8.85,-4.14 0.25,19.07 -5.26,37.69 -9.78,56.1 -12.39,39.65 -30.75,77.18 -50.33,113.75 -24.62,45.1 -52.16,88.6 -82.38,130.13 -13.4,17.51 -25.99,35.82 -41.14,51.82 -27.43,0.25 -54.88,-2.11 -82.34,-2.79 -125.78,-5.14 -251.56,-10.31 -377.37,-15.36 -3.49,0.25 -6.53,-1.67 -7.77,-4.91 -20.43,-39.23 -44.3,-76.76 -72.23,-111.07 -42.12,-51.4 -93.58,-97.37 -155.52,-123.13 29.12,17.03 56.16,37.67 79.68,61.87 51.2,50.45 90.33,112.05 120.67,176.92 -23.91,-1.14 -47.82,-2.04 -71.66,-4.09 -11.7,-26.68 -25.12,-52.87 -42.63,-76.23 -3.59,-6.03 -11.38,-5.28 -17.35,-6.7 -75.41,-11.4 -152.09,-1.48 -226.35,13.03 -51,10.47 -101.44,23.82 -150.77,40.48 -3.36,0.94 -6.79,1.6 -10.26,1.97 -1.83,-52.64 13.83,-105.67 43.77,-148.99 25.16,-36.75 61.42,-66.19 103.5,-81.3 52.09,-19.2 110.1,-16.18 162.76,-0.8 41.12,12.48 82.15,25.37 123.52,37.1 -5.69,-14.1 -11.63,-28.12 -16.59,-42.52 -8.44,7.16 -16.34,14.95 -24.78,22.13 -16.82,-35.66 -28.78,-73.51 -36.73,-112.07 -16.28,-79.86 -17.08,-162.54 -6.04,-243.13 -5.46,-1.46 -13.87,-1.42 -15.63,-8.02 3.61,-54.24 38.33,-104.05 86.22,-129.08 -2.06,-1.69 -3.82,-5.71 -7.11,-3.75 -31.68,8.71 -64.18,14.81 -97.03,16.3 2.49,-27.18 5.21,-54.4 10.51,-81.21 2.15,-10.13 4.74,-21.94 14.4,-27.64 11.04,-6.35 24.3,-3.45 35.73,0.21 7.57,-27.52 25.92,-53.67 53.42,-63.95 25.07,-9.01 56.02,-11.48 78.19,5.87 7.45,-20.27 24.16,-38.83 46.59,-41.44zm-128.99 63.52l0 0c-20.75,13.17 -30.31,37.78 -36.3,60.55 -11.42,-2.74 -23.31,-6.47 -35.13,-3.84 -5.76,1.71 -7.74,8.02 -9.16,13.21 -3.96,16.46 -5.08,33.46 -5.81,50.33 2.49,-0.75 5.01,-1.51 7.5,-2.28 3.41,-7.57 6.44,-16.37 13.78,-21.01 11.13,-5.05 23.73,-1.9 35.5,-2.51 8.8,-20.69 18.65,-40.92 29.37,-60.67 5.49,-9.23 10.35,-19.93 20.41,-25 15.13,-7.75 32.6,-8.37 49.24,-7.98 3.86,0.71 3.54,-4.21 4.45,-6.56 -24.45,-2.74 -51.11,-5.71 -73.85,5.76zm149.01 64.75l0 0c3.65,4.76 7.45,9.72 8.66,15.78 3.95,13.94 -2.74,27.61 -4.87,41.25 -15.95,65.63 -42.19,128.19 -69.78,189.65 -16.71,40.32 -20.12,84.68 -19.57,127.88 1.24,54.18 9.56,108 22.15,160.64 38.61,-33.69 90.45,-47.63 140.73,-49.82 -5.34,-11.91 -7.33,-26.29 -18.08,-34.91 -7.54,-7.2 -18.72,-14.72 -29.32,-9.35 -12.34,5.38 -16.99,19.39 -18.74,31.71 -2.98,0.55 -5.97,1.09 -8.94,1.64 -4.71,-5.32 -10.52,-10.56 -18.04,-10.79 -9.87,0.55 -18.9,6.4 -24.7,14.2 -7.98,9.21 -10.66,21.28 -15.8,31.98 -2.51,-20.26 -4.36,-42.31 5.1,-61.15 5.74,-11.61 18.72,-17.28 31.2,-17.28 -1.19,-17.28 -4.07,-36.16 3.98,-52.23 11.56,12.85 19.29,28.64 25.14,44.78 12.45,-11.4 30.65,-12.16 45.8,-6.22 -12.66,-32.7 -25.6,-65.3 -39.45,-97.53 -4.91,-11.75 -11.36,-22.83 -15.56,-34.9 -18.5,-50.1 -22.22,-106.4 -6.27,-157.69 7.82,-26.33 21.6,-50.45 37.76,-72.5 -6.26,-17.63 -11.79,-35.64 -14.33,-54.22 -5.69,-0.37 -11.38,-0.67 -17.07,-0.92zm-88.78 38.47l0 0c0.59,5.56 1.78,11.02 2.84,16.51 14.33,-6.2 27.29,-15.39 41.98,-20.69 -4.89,7.5 -4.16,16.5 -4.34,24.96 -4.5,7.54 -10.06,14.79 -17.65,19.43 -4.82,-2.58 -9.96,-4.92 -15.58,-3.84 0.41,11.02 2.97,21.78 4.2,32.71 7.04,-2.52 13.95,-5.4 21.03,-7.8 -0.48,6.49 -1.87,12.89 -3.41,19.2 6.56,-1.55 14.86,-4.41 20.35,1.19 -4.64,4.14 -9.44,8.09 -14.15,12.16 3.18,5.6 5.99,11.43 9.97,16.53 14.69,-32.73 28.5,-65.88 42.05,-99.09 -5.92,-14.4 -14.17,-27.95 -21.37,-41.8 -21.67,10.83 -43.73,20.86 -65.92,30.53zm157.85 9.15l0 0c-23.93,23.36 -45.69,50.42 -56.48,82.49 -7.77,22.19 -4.11,46.58 3.61,68.23 4.37,12.84 15.16,24.61 29.47,25.18 13.19,2.45 25.28,-4.82 34.4,-13.6 23.31,-21.82 41.21,-48.59 62.74,-72.06 16.27,-16.46 35.95,-29.35 56.82,-39.25 4.41,-2.42 11.86,-3.75 9.33,-10.56 -8.34,0.91 -16.09,4.32 -23.87,7.22 -20.59,8.28 -40.77,19.5 -55.2,36.71 -17.09,19.36 -33.39,39.43 -51.83,57.53 -6.93,6.15 -13.83,13.15 -22.84,16.1 -11.52,1.87 -24.27,-3.3 -30.42,-13.45 -5.3,-8.06 -6.93,-17.92 -6.72,-27.42 9.14,4.73 20,7.74 30.08,4.11 11.79,-3.45 19.18,-15.59 19.45,-27.47 0.78,-9.44 -6.24,-18.08 -3.41,-27.55 1.47,-8.18 8.41,-14.26 15.89,-17.09 17.03,-8.19 34.7,6.35 52.16,0.98 9,-4 8.96,-15.75 6.65,-23.89 -24.23,-5.69 -48.43,-13.16 -69.83,-26.21zm-283.86 113.37l0 0c9.19,0.96 18.28,3.15 27.59,3.29 9.07,-1.12 17.55,-4.87 26.01,-8.14 18.06,-7.79 35.93,-16.04 53.07,-25.71 -11.63,-16.16 -23.74,-31.93 -35.68,-47.87 -31.84,16.76 -56.59,45.74 -70.99,78.43zm433.07 -28.46l0 0c-11.95,17.55 -24.75,35.31 -30.79,55.91 33.01,15.13 65.08,32.23 98.22,47.06 6.65,3.09 13.44,5.97 19.82,9.62 13.17,7.25 20.52,20.99 28.69,33.01 11.04,20.87 22.12,42.06 37.57,60.07 2.68,-12.62 7.98,-24.91 17.44,-33.92 15.27,29.99 27.68,62.4 50.49,87.82 31.14,27.86 58.7,59.72 82.36,94.12 7.93,-1.51 15.79,-3.47 23.56,-5.74 -15.95,-38.03 -35.2,-74.69 -57.55,-109.34 -12,-19.2 -27.66,-36.19 -36.21,-57.4 -5.32,-13.99 -15.54,-25.6 -27.7,-34.12 -6.1,-4.64 -13.99,-6.98 -18.79,-13.22 -10.33,-12.52 -20.73,-24.98 -30.95,-37.62 -5.55,-6.86 -13.48,-11.06 -20.61,-15.98 -44.28,-28.22 -89.08,-55.81 -135.55,-80.27zm-339.52 30.06l0 0c-17.18,13.41 -36.16,24.71 -56.75,32.02 -3.22,0.5 -4.62,3.41 -5.03,6.33 -16.78,66.33 -18.49,135.73 -11.09,203.5 0.49,6.1 1.51,12.16 3.68,17.92 -2.14,-11.27 -1.53,-22.72 -1.37,-34.1 1.35,-60.51 11.25,-122.08 38.52,-176.64 8.5,-17.72 22.35,-32.1 32.04,-49.03zm43.87 26.9l0 0c-31.16,22.86 -49.76,58.68 -61.01,94.83 -19.18,64.28 -20.46,132.53 -14.47,198.88 18.61,-5.82 36.85,-14.46 50.63,-28.59 -5.85,-10.54 -12.89,-20.46 -17.19,-31.77 4.73,-8.6 12.57,-16.94 10.22,-27.54 -1.03,-41.53 2.17,-83.64 13.44,-123.78 9.21,-31.77 26.67,-60.38 37.49,-91.49 -7.5,0.18 -13.22,5.53 -19.11,9.46zm194.67 16.09l0 0c1.01,16.71 7.86,32.46 16.66,46.49 7.11,0.71 14.24,1.35 21.42,1.28 -12.25,-17.53 -23.2,-36.36 -28.71,-57.19 -3.2,3.04 -6.79,5.79 -9.37,9.42zm65.46 79.52l0 0c-18.97,83.96 -49.55,165.94 -95.52,239 -3.45,-0.76 -6.88,-1.49 -10.3,-2.2 -3.04,11.2 -6.18,22.38 -9.17,33.6 -1.69,3.36 1.19,6.15 2.76,8.8 14.27,21.19 27.69,42.95 42.11,64 126.47,10.47 256.07,-14.31 369.83,-70.58 -0.53,-12.3 -3.66,-24.41 -3.75,-36.71 4.55,-10.81 14.6,-17.67 23.43,-24.78 -14.97,-31.31 -42.88,-54.01 -71.87,-71.81 -31.36,-19.8 -54.9,-48.87 -79.7,-75.89 -2.99,-3.72 -8.04,-4.25 -12.23,-5.92 -52.34,-17.83 -104.5,-36.37 -155.59,-57.51zm-208.54 270.06l0 0c3.81,18.95 8.82,37.62 13,56.48 24.89,4.73 49.85,9.21 75.02,12.14 -20.05,-30.27 -30.22,-68.6 -20.16,-104.26 -26.4,1.49 -52.21,14.04 -67.86,35.64zm556.11 -22.1l0 0c-8.59,1.23 -17.14,-0.64 -25.55,-2.01 -3.18,15.24 -1.35,31.26 1.05,46.49 9.16,2.67 21.39,-0.55 25.87,-9.7 7.52,-12.7 15.68,-25.18 21.37,-38.83 -7.84,-0.23 -15.04,3.41 -22.74,4.05zm-991.04 68.45l0 0c-18.86,13.17 -32.62,32.21 -44.25,51.75 -15.02,25.99 -26.49,53.99 -35,82.75 53.24,-22.04 110.15,-33.74 167.23,-40.17 52.57,-5.89 105.57,-7.4 158.42,-5.34 -14.2,-26.04 -32.85,-49.72 -55.27,-69.12 -25.14,-21.51 -55.63,-37.65 -88.64,-42.43 -35.38,-5.39 -72.78,2.45 -102.49,22.56zm937.71 353.15c19.87,-1.74 42.56,-5.01 59.43,8.34 9.03,5.44 9.12,17.51 5.56,26.31 -9.9,25.05 -23.45,48.41 -35.23,72.62 -6.97,13.39 -13.69,26.97 -21.6,39.88 -12.71,20.57 -34.67,34.06 -57.8,39.84 -19.52,4.6 -39.93,3.73 -59.57,0.28 -11.59,-1.74 -22.17,-12.35 -20.11,-24.67 2.24,-13.3 9.46,-25.1 15.11,-37.16 13.23,-26.22 26.1,-52.64 40.45,-78.27 14.36,-27.04 43.5,-44.73 73.76,-47.17zm-5.76 23.84l0 0c-9.02,1.05 -12.96,9.96 -16.82,16.96 -17.3,33.89 -34.51,67.81 -51.79,101.71 -2.77,6.01 -7.57,13.85 -2.2,19.86 12.28,6.08 30.43,1.85 35.73,-11.7 18.47,-36.98 37.51,-73.69 55.98,-110.67 2.05,-4.26 4.7,-9.33 1.46,-13.72 -6.2,-5.07 -15.09,-3.81 -22.36,-2.44zm-668.84 -21.74c19.7,-1.6 41.42,-6.17 59.63,4 5.83,3.36 12.5,7.77 13.31,15.11 1.3,6.95 -1.01,13.9 -3.66,20.25 -10.36,24 -23,46.9 -34.63,70.29 -8.43,15.72 -15.95,32.09 -26.68,46.42 -17.48,20.52 -43.88,32.39 -70.6,34.1 -13.9,0.76 -27.96,0.09 -41.62,-2.61 -8.1,-1.71 -16.16,-6.78 -18.93,-14.97 -2.86,-7.2 -0.82,-15.08 2.06,-21.92 9.64,-23.22 22.01,-45.14 33.14,-67.65 8.43,-15.89 16.05,-32.28 26.17,-47.18 14.75,-19.5 37.6,-32.62 61.81,-35.84zm-2.26 24.82l0 0c-9.54,3.06 -12.49,13.88 -17.17,21.63 -13.71,27.38 -27.89,54.53 -41.51,81.96 -4.18,8.39 -9.28,16.41 -12.02,25.44 -1.28,12.64 15.77,11.29 23.72,8.64 10.63,-2.58 13.95,-13.8 18.38,-22.35 16.64,-32.85 33.37,-65.65 50.1,-98.43 2.06,-4.77 5.99,-10.47 2.15,-15.42 -6.88,-4.74 -16.04,-3.71 -23.65,-1.47zm122.92 -23.61c25.65,0.43 51.29,-1.46 76.94,-0.07 16.09,0.76 34.01,-0.84 47.93,8.83 7.24,4.86 3.77,14.74 1.69,21.53 -6.08,15.54 -13.65,31.29 -25.9,42.94 -15.08,12.05 -35.63,8.94 -53.48,11.98 11.22,3.13 23.02,4.41 33.78,9.01 5.94,1.92 8.07,9.48 5.67,14.9 -9.19,24.41 -27.84,46.42 -26.72,73.81 -16.41,-0.71 -32.82,1.32 -49.21,0.04 -0.67,-5.55 -0.62,-11.22 1.03,-16.59 5.44,-19.27 16.59,-36.16 24.52,-54.4 1.74,-3.98 2.86,-10.4 -2.24,-12.37 -7.38,-3.04 -15.61,-2.51 -23.43,-3.15 -8.16,14.6 -15.36,29.71 -22.9,44.64 -6.58,13.28 -11.84,27.59 -11.68,42.65 -21.94,-0.5 -43.91,-0.27 -65.87,-0.11 3.38,-6.06 8.8,-10.61 12.64,-16.32 9.64,-13.1 16.5,-27.89 24.04,-42.2 13.67,-27.43 27.91,-54.51 41.53,-81.94 6.54,-13.47 12.64,-27.89 11.66,-43.18zm46.03 24.98l0 0c-7.7,16.87 -16.57,33.19 -24.63,49.9 10.67,-0.16 21.8,0.46 32.04,-3.06 9.24,-6.56 12.85,-18.01 18.13,-27.54 2.35,-4.94 5.87,-12.65 0.2,-16.58 -7.95,-3.7 -17.19,-3.24 -25.74,-2.72zm280.67 -25.39c35.56,0.07 71.2,-1.03 106.7,1.37 8.04,0.46 17.87,3.36 20.09,12.25 1.96,9.47 -2.7,18.72 -6.33,27.23 -6.63,13.02 -13.19,27.31 -25.81,35.63 -14.54,8.16 -31.79,6.51 -47.75,8.73 11.7,4.89 25.44,4.32 36.12,11.66 6.05,6.85 0.59,15.72 -2.54,22.58 -9.1,20.41 -23.64,40.14 -22.08,63.54 -16.48,0.51 -33.03,0.67 -49.49,-0.11 -2.05,-28.98 20.25,-51.54 28.03,-78.01 -0.21,-1.56 -0.64,-4.66 -0.85,-6.22 -8.41,-1.42 -17.19,-3.27 -25.62,-1.12 -7.73,13.9 -14.7,28.23 -21.85,42.45 -6.5,13.48 -12.87,27.86 -11.84,43.17 -22.15,1.38 -44.35,0.39 -66.52,0.9 3.41,-5.99 8.62,-10.63 12.6,-16.23 13.87,-19.16 22.97,-41.17 34.17,-61.88 10.69,-21.39 21.73,-42.58 32.34,-64 6.03,-13.16 12.14,-27.11 10.63,-41.94zm45.44 25.39l0 0c-9.31,16.39 -17.85,33.26 -25.76,50.36 9.85,-0.6 20.27,0.48 29.64,-3.13 9.03,-6.11 12.51,-17.1 17.7,-26.18 2.46,-5.27 6.4,-12.5 1.55,-17.57 -6.9,-4.14 -15.43,-2.9 -23.13,-3.48zm-287.13 217.92c-7.14,5.79 -9.76,15.23 -9.81,24.1 -0.75,15.2 -0.34,30.44 -0.37,45.69 0.46,10.05 -0.34,21.46 6.61,29.69 5.65,7.38 15,10.19 23.84,11.38l7.59 0c9.37,-1.21 19.52,-4.34 25.05,-12.59 5.97,-8.23 5.21,-18.91 5.46,-28.53 -0.32,-16.87 0.62,-33.76 -0.61,-50.6 -0.53,-11.34 -8.83,-21.56 -19.73,-24.6 -12.52,-3.72 -27.5,-2.9 -38.03,5.46zm674.17 -4.5c10.72,-4.09 23.18,-4.23 33.8,0.28 9.47,3.9 16.05,13.55 16.44,23.77 1.28,17.37 0.8,34.79 0.66,52.18 -0.62,9.33 0.19,19.93 -6.35,27.5 -5.92,7.86 -15.89,10.81 -25.28,11.63l-5.83 0c-9.4,-1.16 -19.66,-4.09 -25.28,-12.3 -6.54,-8.96 -5.53,-20.66 -5.74,-31.15 0.37,-16.02 -0.64,-32.09 0.6,-48.09 0.43,-10.36 7.26,-20.07 16.98,-23.82zm-1036.69 -0.75c16.21,0.5 32.53,-0.85 48.62,1.67 9.76,1.69 16.11,11.45 16.5,20.91 0.46,8.11 1.26,16.64 -1.51,24.48 -1.55,4.57 -6.67,5.85 -10.42,8.07 6.63,2.08 12.41,7.93 12.14,15.29 0.29,14.58 0.07,29.17 0.07,43.77 -9.19,0.07 -18.38,0.09 -27.55,-0.62 -0.27,-16.54 1.56,-33.3 -1.37,-49.69 -1.76,-0.27 -5.28,-0.8 -7.04,-1.05 0.05,16.94 -0.09,33.92 0.09,50.88 -9.92,0.53 -19.86,0.5 -29.8,0.25 0.16,-37.99 -0.37,-76 0.27,-113.96zm29.53 19.54l0 0c-0.13,8.37 -0.07,16.73 -0.16,25.1 1.88,-0.35 5.6,-1.08 7.48,-1.42 1,-8.07 4.84,-23.04 -7.32,-23.68zm565.79 -19.43c14.4,0.09 28.8,-0.2 43.2,0.16 5.16,38.04 11.29,75.93 16.75,113.92 -10.28,-0.11 -20.55,0.43 -30.81,-0.2 -0.53,-6.79 -1.17,-13.54 -1.17,-20.32 -3.45,-0.26 -6.88,-0.44 -10.28,-0.58 -0.6,6.98 -1.08,13.95 -1.99,20.9 -10.29,0.43 -20.57,0.22 -30.86,-0.05 5.15,-37.92 10.04,-75.91 15.16,-113.83zm17.41 72.57l0 0c3.11,-0.02 6.24,-0.02 9.4,0 -1.4,-14.44 -3.89,-28.87 -3.38,-43.43 -3.89,14.13 -4.3,28.94 -6.02,43.43zm178.95 -52.82l0 0c0.05,24.62 0.19,49.23 -0.07,73.85 4.41,0.5 9.12,-1.94 8.55,-6.97 0.32,-19.95 0.12,-39.95 0.09,-59.91 0.55,-4.98 -4.38,-7.2 -8.57,-6.97zm261.61 -1.76c-2.41,0 -4.39,1.98 -4.39,4.39l0 69.41c0,2.41 1.98,4.39 4.39,4.39l0 0c2.42,0 4.39,-1.98 4.39,-4.39l0 -69.41c0,-2.41 -1.97,-4.39 -4.39,-4.39l0 0zm-666.11 -0.27l0 0c2.42,0 4.39,1.97 4.39,4.39l0 69.41c0,2.41 -1.97,4.39 -4.39,4.39l0 0c-2.41,0 -4.39,-1.98 -4.39,-4.39l0 -69.41c0,-2.42 1.98,-4.39 4.39,-4.39z"/>
   <path class="fil2" d="M1288.46 1191.22c7.7,0.58 16.23,-0.66 23.13,3.48 4.85,5.07 0.91,12.3 -1.55,17.57 -5.19,9.08 -8.67,20.07 -17.7,26.18 -9.37,3.61 -19.79,2.53 -29.64,3.13 7.91,-17.1 16.45,-33.97 25.76,-50.36zm-416.44 -820.36c-9.69,16.93 -23.54,31.31 -32.04,49.03 -27.27,54.56 -37.17,116.13 -38.52,176.64 -0.16,11.38 -0.77,22.83 1.37,34.1 -2.17,-5.76 -3.19,-11.82 -3.68,-17.92 -7.4,-67.77 -5.69,-137.17 11.09,-203.5 0.41,-2.92 1.81,-5.83 5.03,-6.33 20.59,-7.31 39.57,-18.61 56.75,-32.02zm339.52 -30.06c46.47,24.46 91.27,52.05 135.55,80.27 7.13,4.92 15.06,9.12 20.61,15.98 10.22,12.64 20.62,25.1 30.95,37.62 4.8,6.24 12.69,8.58 18.79,13.22 12.16,8.52 22.38,20.13 27.7,34.12 8.55,21.21 24.21,38.2 36.21,57.4 22.35,34.65 41.6,71.31 57.55,109.34 -7.77,2.27 -15.63,4.23 -23.56,5.74 -23.66,-34.4 -51.22,-66.26 -82.36,-94.12 -22.81,-25.42 -35.22,-57.83 -50.49,-87.82 -9.46,9.01 -14.76,21.3 -17.44,33.92 -15.45,-18.01 -26.53,-39.2 -37.57,-60.07 -8.17,-12.02 -15.52,-25.76 -28.69,-33.01 -6.38,-3.65 -13.17,-6.53 -19.82,-9.62 -33.14,-14.83 -65.21,-31.93 -98.22,-47.06 6.04,-20.6 18.84,-38.36 30.79,-55.91zm-433.07 28.46c14.4,-32.69 39.15,-61.67 70.99,-78.43 11.94,15.94 24.05,31.71 35.68,47.87 -17.14,9.67 -35.01,17.92 -53.07,25.71 -8.46,3.27 -16.94,7.02 -26.01,8.14 -9.31,-0.14 -18.4,-2.33 -27.59,-3.29zm283.86 -113.37c21.4,13.05 45.6,20.52 69.83,26.21 2.31,8.14 2.35,19.89 -6.65,23.89 -17.46,5.37 -35.13,-9.17 -52.16,-0.98 -7.48,2.83 -14.42,8.91 -15.89,17.09 -2.83,9.47 4.19,18.11 3.41,27.55 -0.27,11.88 -7.66,24.02 -19.45,27.47 -10.08,3.63 -20.94,0.62 -30.08,-4.11 -0.21,9.5 1.42,19.36 6.72,27.42 6.15,10.15 18.9,15.32 30.42,13.45 9.01,-2.95 15.91,-9.95 22.84,-16.1 18.44,-18.1 34.74,-38.17 51.83,-57.53 14.43,-17.21 34.61,-28.43 55.2,-36.71 7.78,-2.9 15.53,-6.31 23.87,-7.22 2.53,6.81 -4.92,8.14 -9.33,10.56 -20.87,9.9 -40.55,22.79 -56.82,39.25 -21.53,23.47 -39.43,50.24 -62.74,72.06 -9.12,8.78 -21.21,16.05 -34.4,13.6 -14.31,-0.57 -25.1,-12.34 -29.47,-25.18 -7.72,-21.65 -11.38,-46.04 -3.61,-68.23 10.79,-32.07 32.55,-59.13 56.48,-82.49zm-69.07 -47.62c5.69,0.25 11.38,0.55 17.07,0.92 2.54,18.58 8.07,36.59 14.33,54.22 -16.16,22.05 -29.94,46.17 -37.76,72.5 -15.95,51.29 -12.23,107.59 6.27,157.69 4.2,12.07 10.65,23.15 15.56,34.9 13.85,32.23 26.79,64.83 39.45,97.53 -15.15,-5.94 -33.35,-5.18 -45.8,6.22 -5.85,-16.14 -13.58,-31.93 -25.14,-44.78 -8.05,16.07 -5.17,34.95 -3.98,52.23 -12.48,0 -25.46,5.67 -31.2,17.28 -9.46,18.84 -7.61,40.89 -5.1,61.15 5.14,-10.7 7.82,-22.77 15.8,-31.98 5.8,-7.8 14.83,-13.65 24.7,-14.2 7.52,0.23 13.33,5.47 18.04,10.79 2.97,-0.55 5.96,-1.09 8.94,-1.64 1.75,-12.32 6.4,-26.33 18.74,-31.71 10.6,-5.37 21.78,2.15 29.32,9.35 10.75,8.62 12.74,23 18.08,34.91 -50.28,2.19 -102.12,16.13 -140.73,49.82 -12.59,-52.64 -20.91,-106.46 -22.15,-160.64 -0.55,-43.2 2.86,-87.56 19.57,-127.88 27.59,-61.46 53.83,-124.02 69.78,-189.65 2.13,-13.64 8.82,-27.31 4.87,-41.25 -1.21,-6.06 -5.01,-11.02 -8.66,-15.78zm-149.01 -64.75c22.74,-11.47 49.4,-8.5 73.85,-5.76 -0.91,2.35 -0.59,7.27 -4.45,6.56 -16.64,-0.39 -34.11,0.23 -49.24,7.98 -10.06,5.07 -14.92,15.77 -20.41,25 -10.72,19.75 -20.57,39.98 -29.37,60.67 -11.77,0.61 -24.37,-2.54 -35.5,2.51 -7.34,4.64 -10.37,13.44 -13.78,21.01 -2.49,0.77 -5.01,1.53 -7.5,2.28 0.73,-16.87 1.85,-33.87 5.81,-50.33 1.42,-5.19 3.4,-11.5 9.16,-13.21 11.82,-2.63 23.71,1.1 35.13,3.84 5.99,-22.77 15.55,-47.38 36.3,-60.55zm-555.72 893.08c6.4,-4.05 14.28,-3.43 21.53,-3.18 364.93,15.52 729.92,30.1 1094.88,45.67 99.88,3.63 199.72,8.52 299.47,14.65 -136.34,7.52 -272.8,13.16 -409.25,19.04 -164.67,7.27 -329.33,14.42 -493.99,21.62 -23.07,0.53 -46.15,7.48 -64.76,21.28 -27.84,20.34 -45.12,51.98 -55.18,84.34 -8.13,26.84 -22.05,52.28 -42.3,71.87 -26.29,26.15 -61.53,41.48 -97.38,49.23 -52.09,10.77 -106.26,8.87 -158.26,-1.53 -8,-1.44 -16.18,-2.31 -23.79,-5.3 18.35,-4.39 37.03,-8.37 54.31,-16.23 20.38,-8.96 39.13,-21.24 56.77,-34.7 10.47,-7.84 18.59,-18.38 24.92,-29.71 11.65,-20.85 18.74,-43.89 23.91,-67.09 5.76,-25.14 14.74,-50.13 30.88,-70.61 -33.88,0.12 -67.59,6.5 -99.71,16.99 -9.53,2.95 -18.74,9.76 -21.25,19.86 -2.7,8.62 0.61,17.44 3.38,25.58 -14.26,8.41 -29.49,15.04 -44.39,22.22 -32.43,-42.43 -65.23,-84.58 -97.81,-126.86 -6.37,-8.53 -14.21,-16.46 -17.12,-27l0 -10.19c2.45,-8.18 7.48,-15.82 15.14,-19.95zm-0.99 28.59l0 0c2.31,5.51 6.59,9.9 10.08,14.67 31.71,40.8 62.91,82.01 94.86,122.61 8.89,-0.91 17.1,-7.54 25.49,-11.18 -3.16,-14.44 0.7,-30.65 11.9,-40.71 12.96,-11.49 29.99,-17.16 46.66,-20.8 31.68,-6.42 64.2,-7.56 96.43,-6.35 14.26,0.16 28.3,4 41.44,9.35 -11.63,0.46 -23.22,-1.97 -34.86,-1.17 -11.4,1.42 -19.49,10.81 -25.46,19.89 -14.42,22.47 -19.47,49.12 -25.58,74.7 -8.27,28.93 -19.4,58.72 -41.57,80 -24.1,20.63 -52.14,37.14 -82.88,45.5 29.92,1.95 60.02,2.61 89.89,-0.34 40.51,-4.11 81.63,-13.83 116.07,-36.41 26.45,-17.21 47.16,-43.45 56.18,-73.83 5.54,-20.14 14.31,-39.31 25.31,-57.05 16.23,-25.62 39.43,-48.46 68.96,-57.67 16.8,-5.8 34.76,-4.78 52.25,-5.74 227.02,-9 454.08,-17.82 681.08,-26.95 -9.83,-0.79 -19.71,-1.25 -29.54,-1.8 -386.99,-15.57 -774.01,-31.25 -1161,-46.7 -10.13,-0.71 -18.97,10.22 -15.71,19.98zm1184.55 85.87c22.27,-2.19 47.41,-3.63 65.81,11.57 11.7,8.3 13.21,24.55 8.84,37.23 -5,14.27 -12.02,27.73 -18.74,41.26 -12.5,24 -24.23,48.41 -37.67,71.91 -12.87,22.99 -35.86,39.18 -60.89,46.47 -22.08,6.76 -45.64,5.85 -68.23,2.56 -9.57,-1.28 -18.67,-6.04 -25.05,-13.28 -8.66,-10.68 -8.41,-26.06 -3.29,-38.24 7.29,-17.99 16.62,-35.06 25.14,-52.5 11.39,-21.24 21.35,-43.3 34.38,-63.62 17.99,-25.8 48.57,-41.3 79.7,-43.36zm-1.83 11.87l0 0c-30.26,2.44 -59.4,20.13 -73.76,47.17 -14.35,25.63 -27.22,52.05 -40.45,78.27 -5.65,12.06 -12.87,23.86 -15.11,37.16 -2.06,12.32 8.52,22.93 20.11,24.67 19.64,3.45 40.05,4.32 59.57,-0.28 23.13,-5.78 45.09,-19.27 57.8,-39.84 7.91,-12.91 14.63,-26.49 21.6,-39.88 11.78,-24.21 25.33,-47.57 35.23,-72.62 3.56,-8.8 3.47,-20.87 -5.56,-26.31 -16.87,-13.35 -39.56,-10.08 -59.43,-8.34zm89.67 -12.69c31.34,-0.07 62.7,0.53 94.04,-0.57 13.19,0.55 28.16,-2.42 39.45,6.22 10.38,8.18 11.08,23.08 8.64,35.06 -5.1,17.14 -19.09,30.47 -35.2,37.48 -5.21,2.22 -10.88,3.21 -16.02,5.61 3.08,12.86 10.97,25.21 9.87,39.17 -2.7,41.33 -35.18,78.08 -75.36,87.2 -8.3,1.17 -16.71,1.03 -25.05,1.28 -31.2,-0.04 -62.42,0.05 -93.62,-0.02 7.4,-7.59 16.43,-13.42 23.42,-21.4 7.43,-8.41 13.19,-18.33 16.51,-29.05 6.72,-25.14 16.18,-49.92 30.9,-71.49 9.28,11.4 17.37,23.77 26.06,35.68 -2.77,8.5 -6.54,17.48 -4.39,26.58 2.81,7.86 14.67,10.38 20.39,4.18 5.44,-5.62 3.86,-14.56 0.71,-20.93 -7.02,-13.81 -16.71,-25.99 -25.1,-38.93 -4.53,-6.93 -4.39,-15.61 -3.89,-23.57 1.17,-19.17 13.08,-35.58 15.11,-54.58 1.53,-6.95 -5.03,-11.61 -6.47,-17.92zm18.65 11.36l0 0c-0.5,15.09 -5.46,29.44 -11.2,43.25 -3.68,10.81 -7.33,23.22 -2.83,34.3 8.96,13.79 19.27,26.84 26.65,41.63 5.05,11.04 5.53,26.31 -4.48,34.76 -11.52,11 -33.71,5.33 -38.47,-9.85 -2.92,-9.32 -0.13,-18.99 1.97,-28.16 -3.27,-6.01 -7.54,-11.38 -12.12,-16.43 -9.05,17.58 -15.81,36.23 -20.89,55.31 -3.49,12.76 -11.84,23.13 -19.17,33.83 27.52,0.34 55.06,-0.25 82.56,-0.8 34.51,-6.83 62.56,-36.75 67.97,-71.4 2.11,-17.54 -6.35,-34.18 -15.61,-48.44 -6.1,-9.6 -18.74,-16.73 -17.23,-29.65 0.48,-9.94 11.17,-14.44 19.79,-15.06 9.49,-0.27 21.21,-0.02 27.13,8.78 5.33,6.31 3.89,15.06 3.07,22.61 10.9,-6.36 20.98,-15.46 24.93,-27.8 1.79,-6.86 1.88,-14.81 -2.12,-20.94 -4.14,-5.8 -11.98,-6.21 -18.47,-6.42 -30.47,1.05 -60.98,0.5 -91.48,0.48zm51.52 46.47l0 0c5.54,6.1 10.82,12.39 15.8,18.95 4.64,-7.91 13.67,-18.49 6.49,-27.45 -6.1,-3.91 -14.4,-3.66 -21.19,-1.9 -5.48,1.05 -4.11,7.5 -1.1,10.4zm-830.03 -54.7c19.11,-1.03 39.59,-4.43 57.51,4.3 9.87,4.73 20.2,12.34 21.73,24.02 2.82,14.9 -4.75,28.73 -10.85,41.76 -10.86,21.92 -21.72,43.87 -33.03,65.56 -8.07,15.06 -15.45,30.9 -27.09,43.65 -21.23,21.97 -51.9,34.13 -82.37,33.67 -14.38,-0.09 -29.12,-0.02 -42.91,-4.64 -12.34,-4.07 -22.08,-15.7 -22.76,-28.82 -1.33,-13.83 6.26,-26.13 11.54,-38.31 15.02,-29.87 29.51,-60.04 45.9,-89.19 16.11,-29.94 48.75,-49.32 82.33,-52zm-4.41 11.66l0 0c-24.21,3.22 -47.06,16.34 -61.81,35.84 -10.12,14.9 -17.74,31.29 -26.17,47.18 -11.13,22.51 -23.5,44.43 -33.14,67.65 -2.88,6.84 -4.92,14.72 -2.06,21.92 2.77,8.19 10.83,13.26 18.93,14.97 13.66,2.7 27.72,3.37 41.62,2.61 26.72,-1.71 53.12,-13.58 70.6,-34.1 10.73,-14.33 18.25,-30.7 26.68,-46.42 11.63,-23.39 24.27,-46.29 34.63,-70.29 2.65,-6.35 4.96,-13.3 3.66,-20.25 -0.81,-7.34 -7.48,-11.75 -13.31,-15.11 -18.21,-10.17 -39.93,-5.6 -59.63,-4zm102.12 -10.33c40.92,-0.03 81.92,-1.6 122.79,1.03 13.1,1.8 28.48,5.96 35.02,18.65 4.39,15.22 -2.61,30.51 -9.53,43.82 -7.68,15.15 -17.42,31.49 -34.31,37.5 2.38,6.68 5.39,13.81 3.13,20.99 -3.22,9.85 -8.16,19.06 -12.78,28.32 -5.53,10.9 -12.66,21.78 -12.96,34.4 10.29,-11.34 18.72,-24.23 25.67,-37.83 11.77,-23.25 23.52,-46.52 35.5,-69.67 8.68,-18.49 20.34,-35.98 24.34,-56.3 1.85,-7.82 -3.36,-14.69 -7.77,-20.55 37.19,-1 74.38,-0.8 111.59,-0.77 12.87,0.71 27.73,3.49 36,14.42 8.62,13.99 2.7,32.32 -7.27,44.05 -12.5,14.76 -33.07,19.42 -51.66,17.3 3.29,-7.16 9.24,-13.03 11.23,-20.73 1.25,-3.02 -1.17,-5.74 -3.98,-6.2 -6.99,-1.71 -14.9,-2.19 -21.62,0.64 -6.22,10.45 -11.36,21.58 -16.21,32.71 16.6,0.32 33.19,-0.21 49.78,0.32 -14.12,25.6 -43.22,38.93 -71.45,40.98 -6.53,11.84 -12.89,23.8 -18.65,36.03 20.82,-0.62 42.56,-13.4 49.26,-33.88 0.66,-4.16 5.42,-2.56 8.14,-1.62 8.73,2.74 16.89,10.22 17.6,19.75 1.57,14.56 -7.87,27.2 -16.94,37.51 -17.46,17.12 -42.84,24.73 -66.95,23.91 -48,1.64 -96.05,0.73 -144.05,1.62 -7.74,0.87 -13.8,-5.58 -15.91,-12.44 -2.12,-8.96 0.51,-18.21 3.34,-26.72 5.69,-16.27 14.88,-30.97 21.81,-46.72 -3.89,-0.7 -8.76,-0.64 -9.88,4.07 -9.07,19.73 -21.41,38.33 -26.37,59.73 -2.77,9.28 3.86,17.14 10.85,22.19 -27.38,0.03 -54.78,-0.02 -82.17,0 -13.03,0.16 -26.08,1.05 -39.08,0.19 17,-13.06 32.57,-28.46 43.4,-47.11 10.06,-17.1 17.94,-35.39 27.5,-52.76 10.44,-21.39 21.8,-42.31 32.04,-63.81 3.59,-7.96 6.91,-16.28 7.59,-25.06 0.14,-6.72 -3.59,-12.52 -7.04,-17.96zm18.54 11.54l0 0c0.98,15.29 -5.12,29.71 -11.66,43.18 -13.62,27.43 -27.86,54.51 -41.53,81.94 -7.54,14.31 -14.4,29.1 -24.04,42.2 -3.84,5.71 -9.26,10.26 -12.64,16.32 21.96,-0.16 43.93,-0.39 65.87,0.11 -0.16,-15.06 5.1,-29.37 11.68,-42.65 7.54,-14.93 14.74,-30.04 22.9,-44.64 7.82,0.64 16.05,0.11 23.43,3.15 5.1,1.97 3.98,8.39 2.24,12.37 -7.93,18.24 -19.08,35.13 -24.52,54.4 -1.65,5.37 -1.7,11.04 -1.03,16.59 16.39,1.28 32.8,-0.75 49.21,-0.04 -1.12,-27.39 17.53,-49.4 26.72,-73.81 2.4,-5.42 0.27,-12.98 -5.67,-14.9 -10.76,-4.6 -22.56,-5.88 -33.78,-9.01 17.85,-3.04 38.4,0.07 53.48,-11.98 12.25,-11.65 19.82,-27.4 25.9,-42.94 2.08,-6.79 5.55,-16.67 -1.69,-21.53 -13.92,-9.67 -31.84,-8.07 -47.93,-8.83 -25.65,-1.39 -51.29,0.5 -76.94,0.07zm169.78 0.14l0 0c1.65,13.16 -3.7,25.83 -8.84,37.67 -10.24,21.44 -21.53,42.37 -32.05,63.7 -14.92,27.61 -26.53,57.74 -48.57,80.75 20.27,-0.02 40.57,0.48 60.85,-0.45 15.26,-0.37 30.88,1.23 45.73,-3.04 19.84,-4.74 37.08,-19.64 44.37,-38.68 2.24,-5.64 -0.34,-11.31 -4.27,-15.4 -6.13,6.72 -10.45,15.08 -18.31,20.09 -15.73,11.72 -37.74,19.18 -56.37,9.83 7.57,-18.91 17.83,-36.6 27.45,-54.49 18.88,0 37.83,-6.08 52.82,-17.65 -14.49,-0.53 -29,0.34 -43.47,-0.48 9.67,-18.1 17.94,-36.92 27.73,-54.95 13.05,-3.29 28.66,-5.71 40.36,2.54 7,5.16 4.89,14.53 3.5,21.8 11.59,-2.92 22.49,-10.51 27.08,-21.87 2.75,-6.63 5.06,-15.11 -0.02,-21.23 -5.21,-5.63 -13.28,-7.32 -20.61,-7.98 -32.44,-2.01 -64.92,0.04 -97.38,-0.16zm136.05 -11.86c33.44,-0.53 66.9,-0.12 100.37,-0.21 13.41,0.73 27.1,-0.05 40.2,3.43 10.56,2.86 18.97,12.75 19.22,23.84 0.6,14.37 -6.44,27.5 -12.73,39.95 -7.45,13.97 -17.14,28.44 -32.66,34.11 2.1,6.33 4.94,12.91 3.43,19.74 -6.61,22.31 -22.56,40.96 -26.86,64.07 -1.85,7.84 3.09,14.84 7.36,20.87 -22.12,0.82 -44.3,-0.3 -66.42,0.76 -9.01,1 -13.46,-9.77 -14.17,-17.17 0.32,-25.6 16.98,-46.61 25.99,-69.58 -6.13,-1.41 -7.8,5.58 -10.2,9.56 -8.34,18.19 -19.63,35.38 -24.02,55.13 -2.65,9.19 3.91,17.07 10.42,22.58 -40.89,-0.75 -81.83,-0.5 -122.72,-0.09 15.36,-10.68 29.46,-23.47 39.96,-39.04 10.51,-15.25 17.64,-32.43 26.53,-48.59 9.81,-19.89 20.21,-39.46 29.99,-59.36 6.61,-13.42 14.35,-26.93 15.89,-42.08 0.68,-7.43 -4.57,-13.26 -9.58,-17.92zm20.87 11.31l0 0c1.51,14.83 -4.6,28.78 -10.63,41.94 -10.61,21.42 -21.65,42.61 -32.34,64 -11.2,20.71 -20.3,42.72 -34.17,61.88 -3.98,5.6 -9.19,10.24 -12.6,16.23 22.17,-0.51 44.37,0.48 66.52,-0.9 -1.03,-15.31 5.34,-29.69 11.84,-43.17 7.15,-14.22 14.12,-28.55 21.85,-42.45 8.43,-2.15 17.21,-0.3 25.62,1.12 0.21,1.56 0.64,4.66 0.85,6.22 -7.78,26.47 -30.08,49.03 -28.03,78.01 16.46,0.78 33.01,0.62 49.49,0.11 -1.56,-23.4 12.98,-43.13 22.08,-63.54 3.13,-6.86 8.59,-15.73 2.54,-22.58 -10.68,-7.34 -24.42,-6.77 -36.12,-11.66 15.96,-2.22 33.21,-0.57 47.75,-8.73 12.62,-8.32 19.18,-22.61 25.81,-35.63 3.63,-8.51 8.29,-17.76 6.33,-27.23 -2.22,-8.89 -12.05,-11.79 -20.09,-12.25 -35.5,-2.4 -71.14,-1.3 -106.7,-1.37zm221.48 20.94c7.27,-1.37 16.16,-2.63 22.36,2.44 3.24,4.39 0.59,9.46 -1.46,13.72 -18.47,36.98 -37.51,73.69 -55.98,110.67 -5.3,13.55 -23.45,17.78 -35.73,11.7 -5.37,-6.01 -0.57,-13.85 2.2,-19.86 17.28,-33.9 34.49,-67.82 51.79,-101.71 3.86,-7 7.8,-15.91 16.82,-16.96zm-3.38 17l0 0c-17.6,32.28 -33.26,65.6 -50.42,98.13 -2.59,4.75 -4.87,9.69 -6.56,14.86 5.16,-0.85 11.77,-1.51 14.08,-7.11 18.97,-37.35 37.55,-74.91 57.12,-111.93 -5.6,-0.85 -12.03,0.02 -14.22,6.05zm-667.72 -13.92c7.61,-2.24 16.77,-3.27 23.65,1.47 3.84,4.95 -0.09,10.65 -2.15,15.42 -16.73,32.78 -33.46,65.58 -50.1,98.43 -4.43,8.55 -7.75,19.77 -18.38,22.35 -7.95,2.65 -25,4 -23.72,-8.64 2.74,-9.03 7.84,-17.05 12.02,-25.44 13.62,-27.43 27.8,-54.58 41.51,-81.96 4.68,-7.75 7.63,-18.57 17.17,-21.63zm1.05 12.44l0 0c-5.24,7.26 -8.92,15.52 -13.06,23.45 -15.24,31.06 -32.25,61.3 -46.42,92.87 5.69,-0.6 12.46,-1.85 14.72,-7.96 16,-31.91 32.32,-63.63 48.41,-95.49 2.77,-5.29 5.58,-10.61 7.2,-16.37 -3.52,1.1 -8.43,0.02 -10.85,3.5zm167.9 -11.07c8.55,-0.52 17.79,-0.98 25.74,2.72 5.67,3.93 2.15,11.64 -0.2,16.58 -5.28,9.53 -8.89,20.98 -18.13,27.54 -10.24,3.52 -21.37,2.9 -32.04,3.06 8.06,-16.71 16.93,-33.03 24.63,-49.9zm8.14 11.11l0 0c-4.5,8.64 -9.41,17.12 -12.8,26.29 3.68,-0.25 7.96,-0.8 9.67,-4.64 4.18,-6.63 8,-13.58 10.29,-21.08 -1.79,-0.16 -5.38,-0.43 -7.16,-0.57zm325.21 0.57l0 0c-5.3,8.03 -9.18,16.94 -13,25.76 1.26,-0.32 3.75,-0.98 4.98,-1.3 6.06,-6.81 9.35,-15.54 13.35,-23.61 -1.33,-0.21 -4,-0.64 -5.33,-0.85z"/>
  </g>
 </g>
</svg>
