<?xml version="1.0" encoding="UTF-8"?>
<!DOCTYPE svg PUBLIC "-//W3C//DTD SVG 1.1//EN" "http://www.w3.org/Graphics/SVG/1.1/DTD/svg11.dtd">
<!-- Creator: CorelDRAW -->
<svg xmlns="http://www.w3.org/2000/svg" xml:space="preserve" width="2000px" height="1600px" version="1.1" style="shape-rendering:geometricPrecision; text-rendering:geometricPrecision; image-rendering:optimizeQuality; fill-rule:evenodd; clip-rule:evenodd"
viewBox="0 0 2000 1600"
 xmlns:xlink="http://www.w3.org/1999/xlink">
 <defs>
  <style type="text/css">
   <![CDATA[
    .fil1 {fill:black;fill-rule:nonzero}
    .fil3 {fill:#B3B6B9;fill-rule:nonzero}
    .fil2 {fill:#E2373E;fill-rule:nonzero}
    .fil0 {fill:#FEFEFE;fill-rule:nonzero}
   ]]>
  </style>
 </defs>
 <g id="Capa_x0020_1">
  <metadata id="CorelCorpID_0Corel-Layer"/>
  <g id="SE_x0020_Missouri_x0020_State_x0020_Redhawks.cdr">
   <path class="fil0" d="M1384.29 651.26c8.87,-2.98 17.43,2.86 22.59,9.66 3.94,9.88 -0.44,21.53 -10.1,26.03 -8.2,1.47 -18.12,-0.02 -22.78,-7.72 -7.16,-9.77 -1.35,-25.06 10.29,-27.97zm-321.02 563.34c10.31,20.27 20.34,40.7 30.54,61.02 -20.12,0 -40.23,0.02 -60.35,-0.02 10.05,-20.28 20.17,-40.53 29.81,-61zm0.04 21.07l0 0c-4.68,10.42 -9.99,20.51 -15.01,30.76 10.18,0.02 20.34,0.04 30.52,-0.02 -4.98,-10.36 -9.97,-20.71 -15.51,-30.74zm-461.81 -72.76c18.68,-1.12 38.44,1.15 54.03,12.36 28.37,18.53 40.23,58.03 26.21,89.02 -8.48,19.91 -26.19,35.57 -47.04,41.42 -10.77,3.17 -22.09,2.89 -33.2,2.82 0,-48.53 0,-97.06 0,-145.62zm9.17 8.98l0 0c0,42.55 0,85.11 0,127.67 19.95,0.19 40.29,-7.64 52.99,-23.38 18.73,-21.59 19.37,-56.11 1.97,-78.65 -12.51,-17.14 -33.93,-26.4 -54.96,-25.64zm-393.09 -17.65c11.69,-0.47 25,-0.49 33.71,8.72 14.34,12.98 12.47,38.24 -3.43,49.16 -8.61,6.79 -20.02,5.93 -30.31,5.84 0,-21.25 0,-42.47 0.03,-63.72zm9.16 8.74l0 0c-0.04,15.4 -0.04,30.82 0,46.22 14.02,0.78 27.22,-11.75 24.96,-26.1 -1.16,-12.35 -13.22,-20.21 -24.96,-20.12zm764.68 52.8c24.01,-45.01 47.97,-90.05 72,-135.05 42.45,78.93 84.51,158.09 126.83,237.12 1.64,2.93 3.56,5.72 5.48,8.5 5.63,-2.03 10.93,-4.83 16.22,-7.59 -29.44,-55.74 -58.76,-111.56 -88.14,-167.32 -3.08,-5.54 -5.32,-11.67 -9.62,-16.44 -4.7,-1.9 -9.94,-1.03 -14.86,-1.31 -2.41,-9.67 -4.85,-19.33 -7.25,-29.01 39.97,-0.24 79.92,0.97 119.91,0.54 0.02,9.4 -0.71,18.8 -0.67,28.23 -3.77,0.54 -13.5,-0.56 -8.9,5.8 15.18,30.35 30.93,60.44 46.26,90.7 5.33,-10.46 10.92,-20.81 16.07,-31.38 -10.63,-19.84 -20.96,-39.91 -31.71,-59.71 -2.17,-5.95 -9.1,-4.87 -14.1,-5.39 0,-9.42 0,-18.83 0,-28.25 27.39,-0.13 54.79,0.02 82.16,0.51 1.83,3.58 3.69,7.16 5.58,10.72 1.73,-3.58 3.48,-7.16 5.27,-10.72 27.41,-0.19 54.81,-0.8 82.24,-0.51 0,9.42 0,18.87 0,28.29 -5.02,0.52 -11.86,-0.64 -14.06,5.27 -10.74,19.84 -21.12,39.9 -31.75,59.81 5.22,10.48 10.55,20.88 16.15,31.15 13.49,-26.34 26.99,-52.68 40.45,-79.03 2.61,-5.09 5.91,-10.01 6.94,-15.73 -3.34,-0.9 -6.81,-1.25 -10.18,-1.66 0,-9.36 0,-18.74 0,-28.1 62.27,0.38 124.53,-0.59 186.78,-0.54 -1.79,8.82 -3.69,17.6 -5.44,26.44 8.52,-8.35 16.89,-16.82 25.32,-25.26 30.14,-1.16 60.31,-0.45 90.45,-1.18 -2.55,10.26 -5.16,20.51 -7.64,30.78 -5.07,-0.95 -11.15,-3.46 -15.14,1.33 -28.11,25.65 -53.73,53.93 -81.45,80.01 37.66,38 75.04,76.33 113.33,113.73 0.19,-22.23 0.02,-44.47 0.11,-66.71 8.88,-0.11 17.77,-0.65 26.68,-0.82 3.1,12.25 8.99,24.39 19.76,31.66 9.85,6.91 22.51,9.47 34.31,7.32 5.91,-1.06 12.47,-6.58 10.29,-13.14 -2.41,-9.62 -12.79,-13.31 -20.29,-18.18 -16.16,-10.19 -33.78,-18.62 -47.42,-32.29 -26.35,-26.04 -29.33,-70.71 -10,-101.6 11.75,-18.68 32.37,-30.5 53.9,-34.04 28.45,-4.68 60.05,-0.71 83.11,17.86 -0.09,21.66 0.69,43.36 -0.56,64.99 -8.13,1.77 -16.24,3.71 -24.36,5.59 -2.3,-5.69 -3.77,-12.01 -7.95,-16.72 -8.72,-10.28 -24.9,-12.96 -36.74,-6.92 -5.54,2.33 -7.85,10.1 -3.49,14.62 6.73,7.32 16.15,11.24 24.39,16.59 19.5,12.12 41.57,22.5 54.58,42.34 12.68,18.42 15.35,42.09 11.84,63.74 -4.08,21.46 -17.84,40.58 -36.37,51.99 -31.6,20.19 -73.85,18.78 -106.27,1.25 0.56,2.2 1.66,6.6 2.22,8.78 -32.23,-1.21 -64.47,-0.35 -96.68,-1.28 -24.31,-24.56 -48.77,-49 -73.31,-73.31 0.3,14.69 -0.76,29.46 0.51,44.11 5.31,1.47 10.87,1.23 16.35,1.42 1.99,9.64 4.01,19.31 6.04,28.95 -40.94,0.04 -81.85,0.02 -122.77,0.02 2,-9.66 3.99,-19.3 6.06,-28.95 5.24,-0.15 10.5,-0.45 15.74,-1.1 0.54,-3.81 0.93,-7.65 0.95,-11.49 -0.02,-57.44 -0.04,-114.91 0,-172.35 -41.37,78.56 -82.72,157.12 -124.11,235.68 -19.87,-36.26 -38.31,-73.28 -57.98,-109.62 -19.35,36.51 -38.26,73.29 -57.74,109.77 -7.75,-14.61 -15.47,-29.23 -23.06,-43.9 -35.42,18.31 -70.56,37.12 -105.97,55.44 -2.4,-9.65 -4.77,-19.27 -7.25,-28.86 4.23,-2.92 11.04,-4.1 12.96,-9 -2.93,-9.08 -8.26,-17.1 -11.99,-25.84 -33.18,0.11 -66.33,-0.09 -99.5,0.11 -4.34,8.97 -9.26,17.69 -12.82,27.03 4.49,2.82 9.19,5.32 13.94,7.72 -2.76,9.57 -5.48,19.15 -8.44,28.66 -18.76,-10.05 -37.76,-19.73 -56.49,-29.89 -3.38,-1.84 -6.94,-3.8 -10.91,-3.43 -30.8,0 -61.6,0.09 -92.39,-0.02 0.03,-9.67 0.03,-19.33 0.03,-28.97 5.32,-0.09 10.65,-0.35 15.96,-0.78 1.7,-24.7 0.3,-49.52 0.75,-74.28 -13.48,0 -26.98,-0.03 -40.46,0.02 0.3,24.28 -0.5,48.59 0.36,72.86 4.6,3.3 11.03,1.58 16.38,2.18 0,9.66 0,19.33 0,29.01 -38.92,0 -77.83,0.02 -116.74,-0.02 1.92,-9.64 3.97,-19.28 5.98,-28.9 5.45,-0.18 10.89,-0.48 16.32,-1.06 1.38,-20.52 0.13,-41.09 0.72,-61.65 -10.55,32.79 -34,61.22 -64.58,77.18 -20.22,10.72 -43.27,15.74 -66.12,15.01 -33.26,0.32 -66.48,-1.08 -99.71,-0.47 0.04,7.2 0.04,14.38 0.06,21.59 -9.51,-1.79 -19,-3.86 -28.49,-5.8 -0.31,-5.2 0.64,-10.73 -1.62,-15.56 -3.95,-1.74 -8.31,-1.4 -12.49,-1.46 -22.76,0.17 -45.51,-0.07 -68.27,0.15 -19.78,17.94 -39.64,35.8 -59.51,53.64 -0.09,-17.73 -0.04,-35.44 -0.02,-53.17 -27.01,0.26 -53.99,-0.41 -80.97,-0.49 -12.69,-17.89 -24.85,-36.13 -37.62,-53.95 -0.03,6.64 -0.31,13.29 0.02,19.93 -0.43,9.06 11.3,4.72 16.78,6.02 2.2,9.62 4.14,19.3 6.08,28.99 -40.89,0.06 -81.79,0 -122.67,0.02 1.99,-9.64 3.97,-19.3 6.02,-28.92 5.5,-0.16 11,-0.41 16.44,-1.23 1.57,-42.63 0.26,-85.34 0.69,-128 -0.43,-24.57 0.95,-49.2 -0.82,-73.73 -5.37,-1.03 -10.85,-1.16 -16.29,-1.23 -1.96,-9.66 -3.99,-19.32 -6.01,-28.96 27,-0.11 54.03,0.21 81.06,-0.15 23.25,-0.54 48.14,-2.7 69.39,8.77 25.19,12.45 42.08,38.2 45.64,65.84 7.31,1.98 14.82,3.12 22.19,4.78 0.09,-26.05 0.02,-52.11 0.05,-78.17 42.62,0.03 85.24,-0.04 127.84,0.03 3.91,-0.22 8.09,0.08 11.67,-1.71 3.28,-4.42 2.01,-10.29 2.44,-15.42 9.47,-1.96 18.96,-3.93 28.43,-5.95 0.02,7.31 0.02,14.64 0,21.95 33.32,-0.04 66.63,-0.86 99.93,-0.53 35.16,-1.58 70.27,12.55 95.73,36.6 15.98,14.84 27.52,33.93 34.68,54.44 -0.11,-17.04 -0.08,-34.08 -0.02,-51.12 -0.17,-3.32 0.45,-7.14 -1.98,-9.81 -4.94,-0.74 -9.97,-0.41 -14.91,-0.48 -2.07,-9.68 -4.1,-19.37 -6.08,-29.07 38.93,-0.03 77.84,0 116.76,0 0,9.68 0,19.34 0,29.03 -5.46,0.04 -10.92,0.13 -16.35,0.58 -0.82,21.57 -0.13,43.16 -0.39,64.73 13.48,0.02 26.98,0.02 40.46,0.02 0.05,-20.79 -0.13,-41.58 0.09,-62.38 -4.9,-3.62 -11.09,-2.86 -16.8,-2.97 0,-9.67 0,-19.33 -0.03,-28.99 38.87,-0.05 77.72,-0.02 116.57,-0.02 -2.07,9.68 -4.06,19.39 -6.08,29.07 -5.09,0.05 -10.21,-0.21 -15.25,0.39 -1.94,3.69 -1.28,7.98 -1.45,12.01 0.32,54.47 -0.37,108.93 0.37,163.4 17.62,-30.78 33.5,-62.58 50.43,-93.77zm-494.58 -119.52l0 0c-0.97,5.4 -0.65,12.38 -5.78,15.84 -5.37,3.02 -11.84,2.74 -17.82,2.89 -39.32,-0.2 -78.66,0.1 -118,-0.18 -0.37,31.84 -0.13,63.7 -0.13,95.54 -5.09,-0.76 -10.94,-0.69 -14.95,-4.36 -3.28,-4.03 -3.09,-9.53 -3.86,-14.39 -3.45,-0.75 -6.9,-1.51 -10.36,-2.24 -0.02,30.65 0.05,61.3 -0.02,91.95 3.43,-0.65 6.88,-1.29 10.31,-1.92 1.02,-5.2 0.56,-11.45 4.77,-15.31 4.16,-2.7 9.32,-2.94 14.04,-3.99 0.04,46.16 0.02,92.32 0,138.48 15.53,-14.09 31.08,-28.15 46.72,-42.11 23.77,0.07 47.54,0.09 71.31,-0.02 6,0.15 12.58,-0.5 17.93,2.78 5.24,3.41 4.85,10.46 5.84,15.92 3.45,0.65 6.88,1.3 10.33,1.96 -0.43,-27.11 -0.86,-54.24 -0.49,-81.36 -3.6,-0.11 -7.21,-0.17 -10.81,-0.19 -3.88,3.84 -8.56,7.2 -14.32,6.9 -22.78,0.28 -45.56,0.15 -68.34,0 0.16,-13.98 0.09,-27.93 0.07,-41.91 22.95,0.24 45.92,-0.6 68.85,0.39 7.64,-0.2 13.61,5.15 15.06,12.51 3.32,-0.02 6.66,-0.04 10.01,-0.04 -0.11,-25.31 -0.09,-50.61 -0.03,-75.89 -3.38,-0.04 -6.77,-0.06 -10.13,-0.06 -2.25,8.11 -9.71,12.96 -17.99,12.7 -21.92,0.54 -43.83,0.05 -65.75,0.22 -0.02,-13.83 0.07,-27.63 -0.06,-41.44 22.8,-0.11 45.62,-0.21 68.44,0 5.41,-0.39 10.01,2.55 13.69,6.21 3.74,0.11 7.47,0.16 11.22,0.24 -0.19,-27.09 0.15,-54.16 0.54,-81.25 -3.43,0.69 -6.86,1.4 -10.29,2.13zm566.47 4.17l0 0c-39.32,74.18 -78.92,148.2 -118.31,222.36 -2.76,5.85 -7.2,10.7 -13.16,13.4 -1.27,-10.85 -0.82,-21.79 -0.86,-32.68 -0.02,-48.82 0.02,-97.63 -0.02,-146.44 0.17,-8.63 -0.71,-17.58 2.09,-25.88 2.7,-6.6 10.91,-6.07 16.76,-6.99 0.73,-3.45 1.47,-6.88 2.2,-10.31 -32.53,-0.09 -65.05,-0.03 -97.58,-0.05 -0.04,3.41 -0.04,6.84 -0.04,10.27 4.78,0.99 10.37,0.65 14.36,3.99 4.16,4.1 3.82,10.42 4.03,15.83 -0.06,21.59 -0.04,43.21 -0.04,64.82 -19.78,0 -39.54,0 -59.32,0 0.56,-24.57 -1.18,-49.24 0.93,-73.7 0.67,-9.04 10.85,-10.53 18.01,-10.96 -0.04,-3.43 -0.08,-6.84 -0.08,-10.25 -32.6,0 -65.17,0 -97.76,0 0.69,3.43 1.34,6.84 2.01,10.29 5.09,0.93 11.08,0.63 15.05,4.51 3.6,4.23 3.47,10.25 3.65,15.51 -0.11,61.78 0,123.57 -0.05,185.37 -0.21,4.92 -0.51,10.79 -4.7,14.11 -4.05,2.78 -9.21,2.74 -13.87,3.62 -0.71,3.21 -1.44,6.43 -2.15,9.66 32.54,0.35 65.12,-0.06 97.67,0.22 0.08,-3.28 0.17,-6.51 0.27,-9.75 -4.98,-1.14 -10.67,-0.95 -14.84,-4.31 -3.99,-4.19 -3.71,-10.47 -4.12,-15.84 -0.12,-24.72 0.09,-49.43 -0.08,-74.13 19.8,-0.22 39.62,-0.2 59.42,-0.02 -0.08,21.2 -0.04,42.42 -0.02,63.63 -0.19,7.63 0.82,15.55 -1.55,22.95 -2.83,6.58 -10.96,6.49 -16.91,7.7 0.09,3.23 0.17,6.47 0.28,9.75 27.43,-0.17 54.85,0.04 82.29,-0.13 3.94,0.06 8.15,-0.22 11.71,1.9 17.6,9.25 35.01,18.94 52.74,27.95 0.71,-3.3 1.68,-6.51 2.09,-9.86 -4.83,-4.7 -13.46,-9.25 -10.33,-17.42 3.9,-11.18 10.01,-21.47 14.99,-32.16 37.12,0.1 74.24,-0.24 111.34,0.17 4.77,10.83 11.31,20.94 14.84,32.27 2.83,7.98 -5.39,12.98 -10.78,16.93 0.8,3.34 1.62,6.73 2.44,10.09 29.57,-15.74 59.21,-31.38 88.76,-47.15 -2.18,-2.63 -4.36,-5.28 -6.5,-7.92 -4.66,1.52 -9.34,3.74 -14.34,3.35 -5.09,-1.34 -7.96,-6.26 -10.46,-10.46 -40.1,-74.7 -79.7,-149.68 -120.06,-224.24zm659.26 54.91l0 0c-7.44,22.37 -5.65,48.9 8.44,68.34 12.59,17.51 32.78,26.59 50.51,37.77 10.25,6.21 23.28,11.92 26.53,24.63 2.98,8.69 -2.09,18.38 -10.09,22.24 -12.17,6.3 -26.79,4.07 -39.06,-0.69 -15.23,-6.06 -26.21,-19.76 -31.11,-35.14 -3.54,0.15 -7.09,0.34 -10.59,0.54 0,18.85 -0.21,37.72 0.65,56.58 -0.17,2.37 0.6,4.35 2.35,5.97 15.16,16.87 37.81,25.33 60.14,26.34 25.3,2.18 51.98,-6.6 69.41,-25.41 22.45,-23.12 24.24,-61.63 7.83,-88.59 -12.81,-20.06 -35.18,-30.18 -54.64,-42.43 -8.28,-5.26 -17.51,-9.42 -24.29,-16.69 -6.68,-7.08 -6.62,-19.65 0.95,-26.06 11.28,-9.75 28.52,-9.68 41.46,-3.36 9.04,3.94 14.63,12.46 18.9,20.96 2.93,-0.8 5.88,-1.57 8.84,-2.33 -0.11,-17.66 0.97,-35.31 0.43,-52.97 -22.43,-15.27 -51.42,-17.56 -77.41,-12.12 -22.15,4.72 -42,20.66 -49.25,42.42zm-1584.03 -41.5l0 0c0.63,3.41 1.28,6.84 1.92,10.27 5.33,0.99 11.85,0.56 15.66,5.16 3.5,5.62 3.11,12.68 3.26,19.08 -0.32,61.24 0.35,122.52 -0.34,183.76 0.99,10.78 -9.43,15.27 -18.51,15.18 -0.67,3.26 -1.3,6.5 -1.92,9.78 33.19,-0.03 66.37,-0.07 99.57,0 -0.65,-3.26 -1.3,-6.52 -1.95,-9.75 -4.81,-1.02 -10.16,-0.98 -14.3,-3.93 -4.27,-4.06 -4.18,-10.55 -4.4,-15.98 -0.04,-15.15 0.11,-30.31 -0.02,-45.45 17.15,24.78 34.54,49.39 51.38,74.39 24.76,0.11 49.5,1 74.27,0.69 0.04,-3.14 0.1,-6.29 0.17,-9.44 -6.73,-0.87 -12.55,-4.49 -16.18,-10.25 -19.5,-27.07 -38.13,-54.74 -57.09,-82.2 26.76,-12 45.08,-40.58 43.55,-70.04 -0.05,-36.93 -32.29,-70.12 -69.22,-71.2 -35.27,-0.17 -70.56,-0.02 -105.85,-0.07zm383.95 0l0 0c0.65,3.43 1.31,6.84 1.98,10.29 5.27,0.97 11.67,0.54 15.49,5.01 3.11,4.25 3.04,9.87 3.32,14.92 -0.02,61.11 -0.02,122.24 0,183.35 -0.3,5.45 -0.28,11.86 -4.48,15.92 -4.1,3.08 -9.54,2.93 -14.33,3.99 -0.67,3.19 -1.29,6.4 -1.94,9.64 12.32,0.77 24.63,0.67 36.97,0.62 22.91,-0.3 45.82,1.34 68.72,0.24 29.53,-1.77 58.22,-14.86 78.93,-36 25.45,-25.3 38.7,-62.29 34.94,-97.99 -2.59,-27.83 -15.12,-54.68 -35.01,-74.33 -22.54,-23.28 -54.85,-36.69 -87.25,-36.24 -32.46,-0.3 -64.88,0.89 -97.34,0.58zm581.31 0.05l0 0c0.88,3.25 1.61,6.6 2.8,9.83 4.66,1.55 10.16,1.25 14.13,4.49 4.42,4.55 6.81,10.59 9.84,16.09 39.3,74.83 78.79,149.54 118.05,224.41 19.84,-36.34 38.26,-73.46 58.13,-109.81 19.04,36.67 38.31,73.23 57.55,109.81 41.43,-78.04 82.37,-156.36 123.59,-234.5 1.69,-2.68 3.65,-5.16 5.61,-7.62 4.27,6.41 4.85,14.17 4.79,21.68 -0.07,58.97 0.02,117.94 -0.04,176.91 -0.46,6.09 0,13.08 -4.27,17.99 -4.19,3.22 -9.78,3.09 -14.69,4.21 -0.67,3.15 -1.3,6.34 -1.94,9.53 33.26,0.31 66.49,0.07 99.76,0.11 -0.69,-3.23 -1.36,-6.45 -1.99,-9.66 -5.41,-1.17 -12.06,-0.93 -15.85,-5.61 -3.11,-4.92 -2.74,-10.98 -2.83,-16.54 0.13,-18.36 0.02,-36.69 0.09,-55.05 27.61,27.26 54.96,54.79 82.35,82.29 2.07,1.9 4.19,4.53 7.44,4.01 25.71,-0.02 51.43,0.93 77.16,0.58 -0.73,-3.14 -1.45,-6.29 -2.12,-9.42 -4.98,-1.15 -10.28,-1.94 -14.17,-5.48 -12.81,-10.79 -23.9,-23.4 -35.89,-35.03 -30,-29.98 -59.94,-59.97 -89.95,-89.93 22.35,-23.03 45.73,-45.03 68.29,-67.88 10.75,-9.55 19.48,-23.96 35.06,-25.6 0.71,-3.32 1.46,-6.64 2.24,-9.94 -20.56,1.31 -41.18,0.06 -61.75,1.03 -5.16,0.63 -11.72,-1.55 -15.43,3.17 -17.75,17.71 -35.37,35.57 -53.23,53.17 0.54,-12.77 -1.4,-25.8 1.18,-38.37 2.05,-7.59 11.01,-7.77 17.35,-8.65 0.67,-3.45 1.4,-6.86 2.13,-10.27 -56.15,0 -112.29,0 -168.46,0 0,3.35 0.02,6.71 0.04,10.08 4.12,1.94 9.54,2.91 11.69,7.46 2.14,4.94 -0.58,10.07 -2.6,14.54 -17.71,34.79 -35.64,69.45 -53.28,104.27 -9.6,-16.89 -17.6,-34.6 -26.71,-51.73 11.5,-21.2 22.5,-42.69 33.98,-63.89 2.71,-5.95 8.65,-8.97 14.66,-10.61 0.11,-3.19 0.26,-6.41 0.43,-9.58 -22.97,-0.23 -45.94,0.2 -68.91,0.52 -3.97,7.29 -7.79,14.65 -11.52,22.07 -3.62,-7.42 -7.46,-14.74 -11.32,-22 -22.95,-0.52 -45.88,-0.65 -68.83,-0.7 0.04,3.22 0.08,6.43 0.13,9.67 5.52,1.72 11.45,3.99 14.17,9.6 11.9,21.37 22.73,43.35 34.62,64.75 -9,17.3 -17.32,34.94 -26.71,52.05 -17.51,-34.75 -35.37,-69.31 -53.1,-103.95 -2.11,-4.4 -4.83,-9.45 -2.93,-14.41 1.72,-5.02 7.61,-6.02 11.84,-8.06 0,-3.37 -0.02,-6.73 0,-10.08 -33.52,0.02 -67.06,-0.04 -100.58,0.05zm-588.02 19.8l0 0c-0.02,16.37 -0.02,32.76 0,49.16 -9.47,0.02 -18.92,0 -28.36,0.04 -0.41,-1.12 -1.23,-3.35 -1.64,-4.47 -21.08,-0.9 -42.22,-0.17 -63.31,-0.41 0,7.73 0,15.45 0,23.19 19.74,-0.13 39.47,0.24 59.19,-0.13 6.32,0.56 5.32,-7.33 6.66,-11.24 9.15,0.67 18.29,0.65 27.44,0.59 0,30.19 -0.02,60.37 0.02,90.57 -9.4,0.04 -18.81,0 -28.21,0.04 -0.8,-4.14 0.77,-11.84 -5.89,-10.74 -19.67,-1.38 -39.45,-0.2 -59.17,-0.65 -0.06,7.92 -0.04,15.84 -0.04,23.77 19.8,-0.19 39.6,0.39 59.38,-0.26 3.21,0.26 4.38,-3.34 6.45,-5.04 9.17,-0.15 18.33,-0.11 27.48,-0.05 -0.04,16.59 -0.04,33.16 0.02,49.74 5.85,-0.08 11.74,-0.3 17.52,-1.33 0.45,-4.45 0.82,-8.89 0.79,-13.33 -0.04,-53.2 -0.02,-106.41 -0.02,-159.62 -0.06,-9.49 0.43,-19 -0.77,-28.43 -5.76,-1.4 -11.69,-1.4 -17.54,-1.4zm1051.12 1.72l0 0c-1.59,4.19 -1.18,8.76 -1.46,13.18 5.17,-4.83 10.18,-9.83 15.01,-14.99 -4.47,0.56 -9.62,-0.88 -13.55,1.81zm-1283.28 123.12l0 0c14.02,20.37 28.07,40.68 42.13,61.02 4.36,6.02 8.28,12.52 13.85,17.54 1.42,-0.06 4.29,-0.24 5.71,-0.32 0.09,-16.72 0.02,-33.46 0.05,-50.17 -9.54,2.11 -19.09,4.05 -28.6,6.23 0.1,-24.48 -0.13,-48.96 0.12,-73.45 -7.01,15.95 -18.65,29.66 -33.26,39.15zm1426.01 -237.42c8.43,-0.04 16.89,-0.02 25.37,-0.02 -0.02,4.49 -0.02,8.97 0,13.46 -1.08,0.02 -3.24,0.02 -4.32,0.02 0,11.65 0,23.32 0,34.97 1.08,0.04 3.26,0.15 4.34,0.19 -0.04,4.45 -0.04,8.91 -0.04,13.4 -8.46,-0.05 -16.89,-0.02 -25.33,-0.02 -0.02,-4.49 -0.02,-8.98 -0.02,-13.44 0.95,-0.02 2.85,-0.07 3.8,-0.09 0,-11.67 0,-23.34 0,-35.01 -0.93,0.03 -2.81,0.03 -3.76,0.03 -0.04,-4.51 -0.04,-9 -0.04,-13.49zm-91.11 -0.02c12.25,0.15 24.52,-0.32 36.78,0.17 4.72,0.09 9.51,3.11 10.33,8.03 0.99,7.79 1.51,17.23 -5.78,22.28 6.25,3.99 6.21,11.5 6.45,18.12 0.86,0 2.61,-0.02 3.47,-0.02 -0.04,4.51 -0.04,9.01 -0.04,13.52 -6,-0.13 -12.06,0.13 -17.93,-1.05 -3.3,-0.61 -2.69,-4.47 -3.02,-6.93 -0.26,-5.82 -0.06,-11.65 -0.04,-17.45 -2.91,-0.02 -5.78,-0.02 -8.65,0 0,8.46 0,16.89 0,25.35 -7.23,0 -14.43,0 -21.63,0 1.14,-4.77 -3.15,-13.94 4.37,-14.24 0,-11.45 0,-22.89 0,-34.32 -1.07,0.02 -3.23,0.02 -4.31,0.02 -0.02,-4.51 -0.02,-8.99 0,-13.48zm21.5 13.48l0 0c0.05,3.8 0.09,7.6 0.2,11.39 2.78,-0.02 5.58,-0.04 8.43,-0.04 0.02,-3.8 0.05,-7.59 0.09,-11.37 -2.94,0 -5.83,0 -8.72,0.02zm-112.09 -13.48c7.18,0 14.36,0 21.57,0 0,16.16 0,32.29 0,48.45 1.98,0.06 5.97,0.17 7.98,0.24 0.23,-16.25 0.04,-32.47 0.1,-48.69 7.02,0 14,0 21.04,0 -0.03,4.45 -0.03,8.91 0,13.4 -1.08,0.04 -3.26,0.15 -4.36,0.19 -0.09,12.71 0.34,25.41 -0.13,38.12 0.09,5.32 -4.7,9.47 -9.77,9.79 -8.22,0.86 -16.59,0.95 -24.72,-0.41 -4.36,-0.71 -7.33,-4.88 -7.31,-9.15 -0.31,-12.83 0.04,-25.64 -0.11,-38.48 -1.06,0 -3.22,0.02 -4.29,0.02 -0.03,-4.51 -0.03,-8.99 0,-13.48zm-76.77 0.84c9.02,-1.57 18.4,-1.05 27.52,-0.36 5.01,0.51 8.7,5.26 8.67,10.2 0.28,12.98 0.2,25.99 0.05,38.98 0.08,5 -2.61,10.67 -8.05,11.49 -8.54,1.34 -17.32,1.28 -25.86,0.03 -5.61,-0.57 -8.82,-6.17 -8.87,-11.37 -0.62,-10.87 -0.23,-21.79 -0.21,-32.66 0.26,-5.84 0.24,-13.76 6.75,-16.31zm10.44 12.64l0 0c0,11.69 0,23.36 0,35.05 2.16,0 6.47,0 8.63,0 0,-11.69 0,-23.36 0,-35.05 -2.16,0 -6.47,0 -8.63,0zm-102.5 -0.64c-0.78,-5.85 2.98,-12.19 9.21,-12.6 10.76,-0.65 21.57,-0.04 32.35,-0.24 0,6.11 -0.02,12.21 0,18.34 -5.19,0 -10.39,0 -15.59,0 -0.02,-1.23 -0.09,-3.69 -0.13,-4.9 -2.14,0.02 -6.41,0.07 -8.54,0.09 -0.02,3.36 -0.02,6.75 0,10.16 7.91,0.64 18.2,-2.1 23.96,4.94 3.22,5.67 1.62,12.59 1.94,18.83 0.26,5.39 -1.55,12.18 -7.61,13.52 -11.54,1.94 -23.34,0.69 -34.99,1.04 -0.02,-6.48 -0.04,-12.95 -0.02,-19.42 5.57,0 11.13,-0.02 16.72,0 0,1.49 0,4.45 0,5.93 2.85,-0.02 5.71,0 8.6,0.03 0,-3.97 0.03,-7.92 0.05,-11.87 -7.44,-0.56 -15.94,1.81 -22.46,-2.78 -5.39,-5.59 -3.04,-14.11 -3.49,-21.07zm-84.96 -4.64c0.6,-4.66 5.34,-8.05 9.9,-8.07 10.28,-0.41 20.57,0 30.88,-0.13 0,6.11 0,12.21 0,18.34 -5.04,0 -10.09,-0.02 -15.12,0 0.02,-1.21 0.05,-3.63 0.07,-4.81 -3.09,-0.05 -6.15,-0.07 -9.19,-0.09 -0.02,3.41 -0.04,6.82 -0.02,10.25 8.13,0.73 19.02,-2.27 24.76,5.26 2.67,7.25 1.81,15.29 1.21,22.86 -0.22,4.84 -4.17,9.17 -9.02,9.54 -11,1.27 -22.11,0.45 -33.13,0.67 0,-6.5 0,-12.97 0.02,-19.42 5.37,-0.02 10.76,0 16.16,0 0,1.49 0,4.45 0.02,5.93 3.02,0 6.08,-0.02 9.14,0 -0.02,-3.96 -0.02,-7.91 0,-11.86 -8.17,-0.82 -20.06,3.02 -24.8,-5.95 -2.33,-7.21 -1.9,-15.1 -0.88,-22.52zm-66.07 -8.18c8.47,-0.04 16.95,-0.02 25.43,-0.02 -0.02,4.45 -0.02,8.91 0,13.38 -1.1,0.06 -3.28,0.19 -4.36,0.23 0.06,11.63 0.04,23.23 0.02,34.86 1.08,0.02 3.26,0.11 4.34,0.13 0,4.46 -0.02,8.93 0,13.42 -8.5,0 -16.98,0 -25.43,-0.03 0.86,-4.91 -2.31,-12.36 3.75,-14.75 0.19,-10.81 0.09,-21.63 0.09,-32.44 -6.13,-2.42 -3.05,-9.79 -3.84,-14.78zm-108.91 0c6.75,-0.04 13.52,-0.06 20.3,0.09 4.68,8.89 9.55,17.69 14.38,26.49 4.71,-8.89 9.43,-17.78 14.26,-26.62 6.52,0.02 13.07,0.02 19.61,0.02 -0.02,4.47 -0.02,8.93 0,13.42 -0.95,0.04 -2.87,0.13 -3.82,0.17 0.07,11.65 0.04,23.28 0.04,34.92 0.95,0.02 2.83,0.05 3.78,0.05 0,4.48 -0.02,8.95 0,13.46 -6.84,0 -13.68,0 -20.49,0 0,-10.57 -0.05,-21.14 0.04,-31.71 -4.51,8.32 -9.02,16.63 -13.54,24.93 -5.12,-8.3 -9.58,-16.95 -14.5,-25.36 -0.09,10.72 -0.02,21.42 -0.04,32.14 -6.67,0 -13.31,0 -19.96,0 -0.02,-4.49 -0.02,-8.93 -0.02,-13.4 1.08,-0.04 3.26,-0.13 4.36,-0.17 -0.04,-11.37 0,-22.72 -0.04,-34.06 -7.49,-0.65 -3.24,-9.58 -4.36,-14.37zm-126.72 0.09c17.62,-0.24 35.26,-0.06 52.91,-0.11 0,7.72 0,15.47 -0.02,23.21 -4.15,-0.02 -8.27,-0.04 -12.39,-0.02 -0.02,-3.26 0,-6.47 0.03,-9.68 -1.36,0 -4.08,-0.03 -5.42,-0.03 0.26,11.29 -0.54,22.63 0.37,33.89 0.82,0.6 2.48,1.83 3.32,2.46 0.07,4.05 0.07,8.11 0.11,12.19 -8.46,0 -16.91,0 -25.37,0 -0.02,-4.49 0,-8.98 0,-13.44 1.08,-0.02 3.24,-0.07 4.34,-0.09 -0.02,-11.65 -0.05,-23.29 0,-34.94 -1.47,-0.04 -4.4,-0.13 -5.85,-0.17 -0.08,3.25 -0.13,6.55 -0.17,9.85 -3.95,-0.04 -7.87,-0.06 -11.8,-0.06 0,-7.7 0.02,-15.38 -0.06,-23.06zm-83.8 8.8c0.34,-5.63 6.1,-9.19 11.37,-8.86 9.96,-0.24 19.93,0.04 29.91,-0.03 -0.02,6.11 -0.02,12.21 -0.02,18.32 -5.22,0 -10.44,0 -15.64,0 0,-1.21 0,-3.63 0,-4.83 -2.15,0 -6.47,-0.03 -8.63,-0.03 0,3.39 -0.02,6.78 0,10.18 8.98,0.31 25.24,-2.39 25.8,10.75 -0.56,8.65 3.41,22.21 -6.88,26.42 -11.73,2.2 -23.77,0.82 -35.63,1.19 0,-6.48 0,-12.95 0,-19.42 5.56,0 11.13,0 16.69,0 0,1.49 0.02,4.47 0.05,5.93 2.84,0 5.69,-0.02 8.58,0 0,-3.94 0.02,-7.87 0.09,-11.79 -8.39,-0.76 -20.54,2.89 -25.02,-6.71 -1.64,-6.88 -1.06,-14.13 -0.67,-21.12zm-90.12 39.34c2.76,-16.04 5.15,-32.16 8.5,-48.1 8.95,-0.43 17.94,-0.04 26.92,-0.15 2.89,16.09 5.84,32.18 8.54,48.32 1.1,0.11 3.3,0.28 4.4,0.37 -0.02,4.44 -0.02,8.86 -0.02,13.3 -6.5,0.03 -12.97,0.03 -19.46,-0.02 -0.73,-5.02 -1.45,-10.03 -2.18,-15.03 -3.3,-0.02 -6.6,-0.04 -9.88,-0.04 -0.69,5.02 -1.36,10.07 -2.02,15.12 -6.43,0 -12.84,0 -19.27,0.02 -0.04,-4.45 -0.06,-8.89 -0.08,-13.31 1.14,-0.13 3.4,-0.37 4.55,-0.48zm21.74 -35.33l0 0c-1.18,7.55 -2.35,15.12 -3.41,22.72 2.33,-0.05 4.64,-0.07 6.97,-0.09 -1.17,-7.55 -2.22,-15.12 -3.56,-22.63zm-113.11 -12.87c14.58,-0.09 29.16,-0.05 43.74,-0.03 -0.02,6.82 -0.02,13.64 -0.02,20.45 -4.79,0 -9.58,0.02 -14.34,0.11 -0.15,-2.41 -0.28,-4.81 -0.41,-7.2 -2.66,0.04 -5.29,0.1 -7.92,0.15 0,3.58 0.02,7.16 0.04,10.76 4.12,-0.02 8.27,-0.04 12.41,-0.02 -0.05,3.95 -0.05,7.91 -0.05,11.88 -4.14,-0.02 -8.26,-0.04 -12.38,-0.02 0,4.12 0,8.26 0,12.4 2.03,0 6.06,0 8.09,0 0,-2.02 0,-6.06 0,-8.08 5.22,0 10.42,0 15.64,0 0,7.18 0,14.36 0.02,21.54 -14.97,0 -29.92,0.11 -44.86,-0.06 0.04,-4.05 0.08,-8.07 0.21,-12.1 0.82,-0.63 2.46,-1.86 3.28,-2.48 0.93,-11.24 0.09,-22.54 0.37,-33.78 -0.93,-0.04 -2.83,-0.11 -3.76,-0.15 -0.02,-4.47 -0.04,-8.91 -0.06,-13.37zm-94.89 13.35c0.02,-4.49 0.02,-8.95 0.07,-13.42 6.99,0.02 13.97,0.02 20.98,0.02 0,7.9 0,15.79 -0.02,23.69 2.7,0.02 5.4,0.02 8.11,0.06 0,-7.92 0,-15.83 0,-23.75 7.04,0 14.09,-0.02 21.14,0.05 -1.01,4.83 2.63,12.7 -3.88,14.51 0,11.3 0,22.61 0,33.93 0.95,0.02 2.85,0.07 3.8,0.11 -0.03,4.46 -0.03,8.93 -0.03,13.42 -7.01,0 -14.02,0 -21,0.02 -0.03,-8.31 -0.03,-16.59 -0.05,-24.87 -2.69,0.02 -5.39,0.04 -8.07,0.06 0,8.26 0,16.53 0,24.79 -7.03,0 -14.04,0 -21.05,0 0,-4.08 0.02,-8.14 0.13,-12.19 0.82,-0.63 2.48,-1.86 3.32,-2.46 0.89,-11.24 0.09,-22.54 0.35,-33.78 -0.95,-0.06 -2.85,-0.15 -3.8,-0.19zm-95.96 -13.4c17.79,0.02 35.61,-0.02 53.41,0.02 -0.03,7.73 -0.03,15.43 -0.03,23.17 -4.12,-0.02 -8.22,0 -12.31,0.04 -0.09,-3.34 -0.15,-6.64 -0.24,-9.94 -1.32,0.09 -3.95,0.24 -5.29,0.32 0.07,11.59 0.07,23.17 0,34.77 0.98,0.07 2.87,0.22 3.84,0.31 -0.02,4.42 -0.02,8.88 -0.04,13.33 -8.43,0 -16.89,0 -25.32,0 0,-4.49 0,-8.96 -0.02,-13.42 1.1,-0.02 3.25,-0.11 4.33,-0.13 0,-11.67 0,-23.32 0,-34.99 -1.49,0 -4.44,0 -5.93,0 0,3.22 0,6.45 0,9.71 -4.12,-0.02 -8.26,0 -12.38,0.02 -0.04,-7.74 -0.02,-15.46 -0.02,-23.21zm-92.75 0c7.18,0 14.38,0 21.57,0 0,16.18 0,32.38 0,48.56 2.69,-0.05 5.41,-0.07 8.11,-0.09 -0.07,-16.16 0,-32.31 -0.02,-48.47 6.98,0 13.99,0 20.98,-0.02 0.03,4.47 0.05,8.93 0.07,13.4 -0.95,0.06 -2.85,0.17 -3.8,0.21 -0.52,13.63 1.25,27.48 -1.25,40.96 -2.95,9.06 -14.36,7.16 -21.78,7.53 -6.86,-0.19 -17.78,0.6 -19.29,-8.37 -0.73,-13.39 -0.04,-26.83 -0.28,-40.23 -1.08,0 -3.23,0 -4.31,0 0,-4.51 0,-8.99 0,-13.48zm-81.23 1.02c9.01,-1.92 18.52,-1.15 27.69,-0.54 5.98,0.58 9.3,6.83 8.76,12.4 -0.37,13.74 0.97,27.67 -0.76,41.33 -2.52,9.14 -13.97,7.57 -21.29,7.87 -6.92,-0.43 -17.34,0.73 -19.93,-7.7 -2.15,-11.5 -0.86,-23.32 -1.08,-34.96 0.5,-6.32 -0.56,-15.41 6.61,-18.4zm11.13 12.46l0 0c0,11.67 0,23.36 0,35.05 2.02,0 6.06,0 8.08,0 0,-11.69 0,-23.36 0,-35.05 -2.02,0 -6.06,0 -8.08,0zm-107.36 -0.71c-0.73,-5.76 2.91,-11.99 9.04,-12.51 10.83,-0.69 21.68,-0.06 32.53,-0.26 0,6.11 0,12.21 0,18.34 -5.2,0 -10.38,0 -15.58,0 -0.04,-1.23 -0.13,-3.69 -0.17,-4.92 -2.11,0.02 -6.38,0.09 -8.52,0.11 0,3.36 0,6.75 0,10.16 7.92,0.64 18.16,-2.07 23.94,4.91 3.26,5.7 1.66,12.73 1.97,19.01 0.23,5.32 -1.62,12.03 -7.57,13.37 -11.57,1.94 -23.39,0.69 -35.06,1.04 0,-6.48 0,-12.95 0,-19.42 5.57,0 11.13,-0.02 16.7,0 0.02,1.49 0.02,4.45 0.02,5.93 2.87,-0.02 5.74,0 8.61,0.03 0.02,-3.97 0.02,-7.92 0.06,-11.85 -7.44,-0.66 -16.18,1.97 -22.52,-2.99 -5.3,-5.59 -3,-14.02 -3.45,-20.95z"/>
   <path class="fil1" d="M341.17 130.26l0.54 0c22.91,31.34 55.59,53.81 89.54,71.74 26.55,13.74 54.38,25.1 83,33.86 93.78,27.81 189.15,49.85 284.79,70.23 130.26,27.44 261.25,51.3 392.63,72.56 87.68,16.44 174.74,39.87 255.56,78.26 61.65,29.79 121.16,69.05 161.5,125.45 13.52,19.48 24.65,41.01 29.57,64.34 40.87,6.93 81.49,22.09 112.79,49.96 24.2,21.7 42.97,50.91 48.27,83.3 3.71,44.72 2.12,91.16 -14.28,133.46 -11.62,30.09 -32.35,58.13 -61.99,72.32 -3.47,-20.67 -6.36,-41.41 -9.62,-62.1 -35.18,16.05 -73.23,27.42 -112.16,27.42 -27.87,0.25 -56.39,-5.4 -80.48,-19.87 -97.58,7.18 -193.96,25.6 -288.97,48.4 -23.84,6.11 -47.93,11.46 -71.31,19.11 216.58,0.63 433.16,0.13 649.75,0.26 -5.29,26.58 -10.64,53.13 -16.14,79.66 31.43,-0.35 63.68,9.75 87,31.36 -0.46,31.06 -0.76,62.12 -0.54,93.21 -5.74,1.31 -11.46,2.63 -17.2,3.86 17.54,15.57 30.91,36.41 34.67,59.79 5.13,27.91 0.08,58.32 -16.96,81.42 -21.7,30.25 -59.59,46.79 -96.44,45.5 -12.44,0.17 -24.63,-2.42 -36.82,-4.58 -39.43,-1.96 -78.94,0.15 -118.37,-1.51 -5.83,-5.78 -11.61,-11.58 -17.39,-17.4 1.25,6.19 2.55,12.38 3.84,18.59 -59.16,0.02 -118.33,-0.02 -177.5,0.02 5.12,-24.63 10.29,-49.24 15.36,-73.9 4.21,0 8.39,-0.02 12.62,0 0.04,-24.03 0,-48.06 0.04,-72.06 -34.25,64.49 -67.98,129.24 -102.22,193.74 -19.24,-36.58 -38.41,-73.21 -57.63,-109.81 -19.46,36.47 -38.42,73.25 -57.74,109.81 -11.05,-20.45 -21.62,-41.18 -32.62,-61.65 -37.08,19.35 -74.31,38.35 -111.36,57.7 -6.09,-24.52 -12.23,-49.03 -18.36,-73.53 -14.88,0.02 -29.79,0.04 -44.67,0 -7.12,24.2 -14.11,48.42 -21.18,72.63 -28.15,-13.75 -55.35,-29.53 -83.76,-42.63 -80.39,-0.77 -160.84,-0.06 -241.26,-0.34 1.45,-7.12 2.96,-14.22 4.45,-21.31 -23.02,13.43 -49.29,21.83 -76.06,21.89 -28.56,-0.02 -57.12,-0.02 -85.65,-0.02 0,8.86 0,17.75 0,26.62 -24.64,-5.14 -49.27,-10.25 -73.88,-15.41 0,-4.29 0,-8.56 0,-12.83 -16.95,0 -33.93,-0.04 -50.88,0.02 -29.79,27.59 -60.7,53.97 -90.06,81.95l-0.88 0c1.16,-27.14 0.26,-54.3 0.52,-81.45 -46.31,0.04 -92.63,0 -138.96,0.02 -28.08,0.99 -56.19,0.37 -84.27,0.54l0 -2.07c5.07,-23.92 9.99,-47.87 15.03,-71.81 4.17,-0.02 8.31,-0.02 12.47,0 -0.04,-53.04 0.07,-106.08 -0.04,-159.12 -4.17,0 -8.31,0.04 -12.47,0.09 -5.11,-23.75 -9.88,-47.56 -14.99,-71.31l0 -2.07c34.96,0.13 69.91,-0.93 104.89,-0.56 -5.63,-27.68 -11.3,-55.33 -16.8,-83.03 92.66,0.02 185.35,-0.06 278.01,0.05 19.83,-15.75 39.61,-31.6 60.4,-46.1 -65.85,-9.47 -127.63,-36.82 -185,-69.52 -75.37,-43.63 -144.57,-97.32 -208.5,-156.27 98.06,17.21 200.99,21.96 297.41,-6.62 -66.33,-16.44 -134.36,-25.15 -202.48,-29.53 104.25,-78.93 237.83,-118.25 368.22,-108.37 -26.66,-21.42 -55.56,-39.86 -85.37,-56.49 -70.62,-39.07 -145.58,-69.84 -222.02,-95.54 26.87,-9.62 54.79,-16.13 82.89,-20.98 45.15,-7.6 90.94,-11.41 136.71,-11.41 -56.38,-54.16 -100.3,-120.13 -134.6,-190.08 -12.2,-25.36 -23.59,-51.18 -32.59,-77.86zm722.14 1105.41c5.54,10.03 10.53,20.38 15.51,30.74 -10.18,0.06 -20.34,0.04 -30.52,0.02 5.02,-10.25 10.33,-20.34 15.01,-30.76zm-779.69 22.86c14.61,-9.49 26.25,-23.2 33.26,-39.15 -0.25,24.49 -0.02,48.97 -0.12,73.45 9.51,-2.18 19.06,-4.12 28.6,-6.23 -0.03,16.71 0.04,33.45 -0.05,50.17 -1.42,0.08 -4.29,0.26 -5.71,0.32 -5.57,-5.02 -9.49,-11.52 -13.85,-17.54 -14.06,-20.34 -28.11,-40.65 -42.13,-61.02zm327.05 -86.64c21.03,-0.76 42.45,8.5 54.96,25.64 17.4,22.54 16.76,57.06 -1.97,78.65 -12.7,15.74 -33.04,23.57 -52.99,23.38 0,-42.56 0,-85.12 0,-127.67zm22.73 100.77l0 0c14.43,-7.74 24.25,-23.85 22.5,-40.4 -0.84,-14.39 -10.38,-26.62 -22.39,-33.84 -0.39,24.74 -0.17,49.5 -0.11,74.24zm-406.66 -109.68c11.74,-0.09 23.8,7.77 24.96,20.12 2.26,14.35 -10.94,26.88 -24.96,26.1 -0.04,-15.4 -0.04,-30.82 0,-46.22zm1340.16 -27.57c3.93,-2.69 9.08,-1.25 13.55,-1.81 -4.83,5.16 -9.84,10.16 -15.01,14.99 0.28,-4.42 -0.13,-8.99 1.46,-13.18zm-1051.12 -1.72c5.85,0 11.78,0 17.54,1.4 1.2,9.43 0.71,18.94 0.77,28.43 0,53.21 -0.02,106.42 0.02,159.62 0.03,4.44 -0.34,8.88 -0.79,13.33 -5.78,1.03 -11.67,1.25 -17.52,1.33 -0.06,-16.58 -0.06,-33.15 -0.02,-49.74 -9.15,-0.06 -18.31,-0.1 -27.48,0.05 -2.07,1.7 -3.24,5.3 -6.45,5.04 -19.78,0.65 -39.58,0.07 -59.38,0.26 0,-7.93 -0.02,-15.85 0.04,-23.77 19.72,0.45 39.5,-0.73 59.17,0.65 6.66,-1.1 5.09,6.6 5.89,10.74 9.4,-0.04 18.81,0 28.21,-0.04 -0.04,-30.2 -0.02,-60.38 -0.02,-90.57 -9.15,0.06 -18.29,0.08 -27.44,-0.59 -1.34,3.91 -0.34,11.8 -6.66,11.24 -19.72,0.37 -39.45,0 -59.19,0.13 0,-7.74 0,-15.46 0,-23.19 21.09,0.24 42.23,-0.49 63.31,0.41 0.41,1.12 1.23,3.35 1.64,4.47 9.44,-0.04 18.89,-0.02 28.36,-0.04 -0.02,-16.4 -0.02,-32.79 0,-49.16zm945.82 -99.12c2.16,0 6.47,0 8.63,0 0,11.69 0,23.36 0,35.05 -2.16,0 -6.47,0 -8.63,0 0,-11.69 0,-23.36 0,-35.05zm-1108.15 0c2.02,0 6.06,0 8.08,0 0,11.69 0,23.36 0,35.05 -2.02,0 -6.06,0 -8.08,0 0,-11.69 0,-23.38 0,-35.05zm1286.57 0c2.89,-0.02 5.78,-0.02 8.72,-0.02 -0.04,3.78 -0.07,7.57 -0.09,11.37 -2.85,0 -5.65,0.02 -8.43,0.04 -0.11,-3.79 -0.15,-7.59 -0.2,-11.39zm-819.76 -0.56c1.34,7.51 2.39,15.08 3.56,22.63 -2.33,0.02 -4.64,0.04 -6.97,0.09 1.06,-7.6 2.23,-15.17 3.41,-22.72zm585.49 -377.66c10.81,-2.46 23.82,0.75 28.65,11.64 7.33,13.18 -3.65,31.3 -18.62,31.24 -8.73,1.12 -15.53,-5.14 -21.07,-10.92l2.07 -1.36c9.66,-4.5 14.04,-16.15 10.1,-26.03 -0.28,-1.15 -0.85,-3.43 -1.13,-4.57zm-930.54 -360.07l0 0c51.66,52.22 110.61,97.28 174.04,134.29 46.21,26.77 95.69,48.02 147.39,61.54 -86.69,-14.26 -173.46,-28.15 -260.8,-37.77 -20.38,-1.96 -40.75,-4.48 -61.24,-4.81 73.62,38.44 146.42,79.94 210.37,133.35 24.03,20.66 47.61,43.1 62.88,71.22 -44.45,-8.04 -89.32,-13.85 -134.42,-16.65 -59.86,-3.43 -120.82,-2.89 -179.31,11.61 -13.42,3.88 -27.42,6.96 -39.41,14.38 71.39,15.96 142.75,34.49 209.81,64.22 26.08,12.18 52.69,25.84 71.65,48.1 -33.9,11.43 -68.76,19.93 -103.83,27 -68.55,13.03 -139.5,20.11 -208.76,8.39 -12.68,-1.81 -24.85,-6.02 -37.53,-7.76 64.15,41.84 134.38,74.63 207.83,96.41 67.4,19.87 139.1,28.03 208.75,16.16 -66.46,20.02 -130.88,47.63 -190.46,83.39 151.96,0.41 303.94,0.04 455.9,0.17 25,-0.39 50.11,0.74 75.06,-0.49 14.2,-9.02 27.46,-19.7 39.97,-30.94 -18.59,6.39 -37.51,11.91 -56.79,15.84 -32.2,6.23 -66.78,10.35 -98.32,-1.15 8.63,-4.76 18.27,-7.11 27.38,-10.78 44.34,-17.15 87.12,-38.87 125.88,-66.5 24.5,-17.77 47.77,-37.7 66.61,-61.54 -54.94,-7.59 -111.89,-5.59 -165.14,10.61 21.2,-43.81 43.68,-87.05 68.39,-128.99 -49.2,-6.88 -98.29,-26.42 -133.34,-62.51 23.25,5.1 47.63,6.11 70.96,0.85 29.25,-6.11 55.85,-22.11 76.53,-43.47 -62.05,-15.16 -127.75,-23.06 -190.8,-9.27 42.9,-27.96 91.43,-45.9 139.94,-61.5 -31.88,-16.48 -60.67,-41.65 -75.28,-74.97 56.47,39.04 129.36,52.91 196.2,37.1 -18.96,-11.29 -39.36,-20.37 -56.66,-34.26 14.9,2.5 29.59,6.09 44.39,9.08 93.92,20.24 187.74,41.03 280.75,65.19 38.92,10.48 78.19,20.51 115.36,36.34 -16.24,-19.09 -36.76,-34.01 -57.18,-48.31 -70.23,-47.07 -150.43,-77.14 -231.9,-98.19 -106.71,-27.05 -216.93,-38.05 -326.81,-39.9 -71.8,-1.38 -143.03,-12.99 -213,-28.58 -86.69,-19.61 -171.82,-45.84 -255.06,-76.9zm813.38 280.32l0 0c57.8,4.72 116.99,14.32 168.22,43.08 15.34,8.24 28.86,19.37 41.03,31.7 23.87,2.1 48.05,-10.52 60.74,-30.75 -32.16,-25.26 -71.66,-38.59 -110.29,-50.46 -52.09,-14.88 -108.86,-11.86 -159.7,6.43zm69.11 49.33l0 0c-7.38,8.5 -14.13,17.93 -17.13,28.93 -6.56,21.72 0.43,46.59 17.02,61.99 27.33,27.26 75.34,27.87 104.35,2.89 13.44,-11.02 21.6,-27.39 23.97,-44.48 -18.06,-7.07 -33.63,-18.76 -50.56,-27.89 -24.81,-10.46 -51.38,-15.98 -77.65,-21.44zm151.96 98.71l0 0c-5.09,7.8 -15.1,9.68 -22.98,13.58 -39.66,16.68 -83.19,18.3 -124.82,27.08 -21.01,4.29 -41.16,13.61 -56.6,28.68 -26.42,25.33 -46.51,56.52 -63.78,88.57 29.25,-9.19 59.62,-15.04 90.29,-16.22 44.22,-2.31 88.05,5.33 131.68,11.45 20.99,3.09 42.24,4.14 63.29,6.9 18.31,2.08 36.63,5.14 55.13,4.88 19.85,-0.37 39.39,-4.92 58.22,-10.94 21.16,-7.09 42.04,-16.78 58.35,-32.35 -16.05,4.87 -33.52,8.86 -49.9,2.89 -17.88,-5.2 -30.9,-19.33 -41.67,-33.74 -18.03,-5.45 -37.16,-6.01 -55.84,-7.09 -77.91,-1.88 -155.59,6.58 -232.81,15.92 30.89,-14.61 64.8,-21.03 97.97,-28.17 48.32,-9.37 97.09,-17.24 146.29,-19.57 31.26,-1.44 64.5,7.94 86.24,31.43 7.14,-25.02 20.4,-48.75 40.63,-65.51 16.01,12.77 31.71,26.53 43.17,43.66 5.65,8.19 7.83,18.03 9.18,27.74 5.27,33.58 8.44,67.62 7.14,101.66 9.5,-26.47 16.64,-53.86 19.87,-81.8 2.18,-19.93 2.39,-40.74 -4.51,-59.83 -6.08,-16.87 -21.01,-28.26 -35.5,-37.66 -39.63,-24.23 -84.49,-37.94 -128.84,-50.52 -7.42,-7.27 -12.14,-16.97 -18.51,-25.19 -32.61,8.47 -54.5,37.01 -71.69,64.15zm-1263.57 309.22l0 0c0.45,6.93 -1.85,15.36 3.45,20.95 6.34,4.96 15.08,2.33 22.52,2.99 -0.04,3.93 -0.04,7.88 -0.06,11.85 -2.87,-0.03 -5.74,-0.05 -8.61,-0.03 0,-1.48 0,-4.44 -0.02,-5.93 -5.57,-0.02 -11.13,0 -16.7,0 0,6.47 0,12.94 0,19.42 11.67,-0.35 23.49,0.9 35.06,-1.04 5.95,-1.34 7.8,-8.05 7.57,-13.37 -0.31,-6.28 1.29,-13.31 -1.97,-19.01 -5.78,-6.98 -16.02,-4.27 -23.94,-4.91 0,-3.41 0,-6.8 0,-10.16 2.14,-0.02 6.41,-0.09 8.52,-0.11 0.04,1.23 0.13,3.69 0.17,4.92 5.2,0 10.38,0 15.58,0 0,-6.13 0,-12.23 0,-18.34 -10.85,0.2 -21.7,-0.43 -32.53,0.26 -6.13,0.52 -9.77,6.75 -9.04,12.51zm96.23 -11.75l0 0c-7.17,2.99 -6.11,12.08 -6.61,18.4 0.22,11.64 -1.07,23.46 1.08,34.96 2.59,8.43 13.01,7.27 19.93,7.7 7.32,-0.3 18.77,1.27 21.29,-7.87 1.73,-13.66 0.39,-27.59 0.76,-41.33 0.54,-5.57 -2.78,-11.82 -8.76,-12.4 -9.17,-0.61 -18.68,-1.38 -27.69,0.54zm81.23 -1.02l0 0c0,4.49 0,8.97 0,13.48 1.08,0 3.23,0 4.31,0 0.24,13.4 -0.45,26.84 0.28,40.23 1.51,8.97 12.43,8.18 19.29,8.37 7.42,-0.37 18.83,1.53 21.78,-7.53 2.5,-13.48 0.73,-27.33 1.25,-40.96 0.95,-0.04 2.85,-0.15 3.8,-0.21 -0.02,-4.47 -0.04,-8.93 -0.07,-13.4 -6.99,0.02 -14,0.02 -20.98,0.02 0.02,16.16 -0.05,32.31 0.02,48.47 -2.7,0.02 -5.42,0.04 -8.11,0.09 0,-16.18 0,-32.38 0,-48.56 -7.19,0 -14.39,0 -21.57,0zm92.75 0l0 0c0,7.75 -0.02,15.47 0.02,23.21 4.12,-0.02 8.26,-0.04 12.38,-0.02 0,-3.26 0,-6.49 0,-9.71 1.49,0 4.44,0 5.93,0 0,11.67 0,23.32 0,34.99 -1.08,0.02 -3.23,0.11 -4.33,0.13 0.02,4.46 0.02,8.93 0.02,13.42 8.43,0 16.89,0 25.32,0 0.02,-4.45 0.02,-8.91 0.04,-13.33 -0.97,-0.09 -2.86,-0.24 -3.84,-0.31 0.07,-11.6 0.07,-23.18 0,-34.77 1.34,-0.08 3.97,-0.23 5.29,-0.32 0.09,3.3 0.15,6.6 0.24,9.94 4.09,-0.04 8.19,-0.06 12.31,-0.04 0,-7.74 0,-15.44 0.03,-23.17 -17.8,-0.04 -35.62,0 -53.41,-0.02zm95.96 13.4l0 0c0.95,0.04 2.85,0.13 3.8,0.19 -0.26,11.24 0.54,22.54 -0.35,33.78 -0.84,0.6 -2.5,1.83 -3.32,2.46 -0.11,4.05 -0.13,8.11 -0.13,12.19 7.01,0 14.02,0 21.05,0 0,-8.26 0,-16.53 0,-24.79 2.68,-0.02 5.38,-0.04 8.07,-0.06 0.02,8.28 0.02,16.56 0.05,24.87 6.98,-0.02 13.99,-0.02 21,-0.02 0,-4.49 0,-8.96 0.03,-13.42 -0.95,-0.04 -2.85,-0.09 -3.8,-0.11 0,-11.32 0,-22.63 0,-33.93 6.51,-1.81 2.87,-9.68 3.88,-14.51 -7.05,-0.07 -14.1,-0.05 -21.14,-0.05 0,7.92 0,15.83 0,23.75 -2.71,-0.04 -5.41,-0.04 -8.11,-0.06 0.02,-7.9 0.02,-15.79 0.02,-23.69 -7.01,0 -13.99,0 -20.98,-0.02 -0.05,4.47 -0.05,8.93 -0.07,13.42zm94.89 -13.35l0 0c0.02,4.46 0.04,8.9 0.06,13.37 0.93,0.04 2.83,0.11 3.76,0.15 -0.28,11.24 0.56,22.54 -0.37,33.78 -0.82,0.62 -2.46,1.85 -3.28,2.48 -0.13,4.03 -0.17,8.05 -0.21,12.1 14.94,0.17 29.89,0.06 44.86,0.06 -0.02,-7.18 -0.02,-14.36 -0.02,-21.54 -5.22,0 -10.42,0 -15.64,0 0,2.02 0,6.06 0,8.08 -2.03,0 -6.06,0 -8.09,0 0,-4.14 0,-8.28 0,-12.4 4.12,-0.02 8.24,0 12.38,0.02 0,-3.97 0,-7.93 0.05,-11.88 -4.14,-0.02 -8.29,0 -12.41,0.02 -0.02,-3.6 -0.04,-7.18 -0.04,-10.76 2.63,-0.05 5.26,-0.11 7.92,-0.15 0.13,2.39 0.26,4.79 0.41,7.2 4.76,-0.09 9.55,-0.11 14.34,-0.11 0,-6.81 0,-13.63 0.02,-20.45 -14.58,-0.02 -29.16,-0.06 -43.74,0.03zm91.37 48.2l0 0c-1.15,0.11 -3.41,0.35 -4.55,0.48 0.02,4.42 0.04,8.86 0.08,13.31 6.43,-0.02 12.84,-0.02 19.27,-0.02 0.66,-5.05 1.33,-10.1 2.02,-15.12 3.28,0 6.58,0.02 9.88,0.04 0.73,5 1.45,10.01 2.18,15.03 6.49,0.05 12.96,0.05 19.46,0.02 0,-4.44 0,-8.86 0.02,-13.3 -1.1,-0.09 -3.3,-0.26 -4.4,-0.37 -2.7,-16.14 -5.65,-32.23 -8.54,-48.32 -8.98,0.11 -17.97,-0.28 -26.92,0.15 -3.35,15.94 -5.74,32.06 -8.5,48.1zm90.12 -39.34l0 0c-0.39,6.99 -0.97,14.24 0.67,21.12 4.48,9.6 16.63,5.95 25.02,6.71 -0.07,3.92 -0.09,7.85 -0.09,11.79 -2.89,-0.02 -5.74,0 -8.58,0 -0.03,-1.46 -0.05,-4.44 -0.05,-5.93 -5.56,0 -11.13,0 -16.69,0 0,6.47 0,12.94 0,19.42 11.86,-0.37 23.9,1.01 35.63,-1.19 10.29,-4.21 6.32,-17.77 6.88,-26.42 -0.56,-13.14 -16.82,-10.44 -25.8,-10.75 -0.02,-3.4 0,-6.79 0,-10.18 2.16,0 6.48,0.03 8.63,0.03 0,1.2 0,3.62 0,4.83 5.2,0 10.42,0 15.64,0 0,-6.11 0,-12.21 0.02,-18.32 -9.98,0.07 -19.95,-0.21 -29.91,0.03 -5.27,-0.33 -11.03,3.23 -11.37,8.86zm83.8 -8.8l0 0c0.08,7.68 0.06,15.36 0.06,23.06 3.93,0 7.85,0.02 11.8,0.06 0.04,-3.3 0.09,-6.6 0.17,-9.85 1.45,0.04 4.38,0.13 5.85,0.17 -0.05,11.65 -0.02,23.29 0,34.94 -1.1,0.02 -3.26,0.07 -4.34,0.09 0,4.46 -0.02,8.95 0,13.44 8.46,0 16.91,0 25.37,0 -0.04,-4.08 -0.04,-8.14 -0.11,-12.19 -0.84,-0.63 -2.5,-1.86 -3.32,-2.46 -0.91,-11.26 -0.11,-22.6 -0.37,-33.89 1.34,0 4.06,0.03 5.42,0.03 -0.03,3.21 -0.05,6.42 -0.03,9.68 4.12,-0.02 8.24,0 12.39,0.02 0.02,-7.74 0.02,-15.49 0.02,-23.21 -17.65,0.05 -35.29,-0.13 -52.91,0.11zm126.72 -0.09l0 0c1.12,4.79 -3.13,13.72 4.36,14.37 0.04,11.34 0,22.69 0.04,34.06 -1.1,0.04 -3.28,0.13 -4.36,0.17 0,4.47 0,8.91 0.02,13.4 6.65,0 13.29,0 19.96,0 0.02,-10.72 -0.05,-21.42 0.04,-32.14 4.92,8.41 9.38,17.06 14.5,25.36 4.52,-8.3 9.03,-16.61 13.54,-24.93 -0.09,10.57 -0.04,21.14 -0.04,31.71 6.81,0 13.65,0 20.49,0 -0.02,-4.51 0,-8.98 0,-13.46 -0.95,0 -2.83,-0.03 -3.78,-0.05 0,-11.64 0.03,-23.27 -0.04,-34.92 0.95,-0.04 2.87,-0.13 3.82,-0.17 -0.02,-4.49 -0.02,-8.95 0,-13.42 -6.54,0 -13.09,0 -19.61,-0.02 -4.83,8.84 -9.55,17.73 -14.26,26.62 -4.83,-8.8 -9.7,-17.6 -14.38,-26.49 -6.78,-0.15 -13.55,-0.13 -20.3,-0.09zm108.91 0l0 0c0.79,4.99 -2.29,12.36 3.84,14.78 0,10.81 0.1,21.63 -0.09,32.44 -6.06,2.39 -2.89,9.84 -3.75,14.75 8.45,0.03 16.93,0.03 25.43,0.03 -0.02,-4.49 0,-8.96 0,-13.42 -1.08,-0.02 -3.26,-0.11 -4.34,-0.13 0.02,-11.63 0.04,-23.23 -0.02,-34.86 1.08,-0.04 3.26,-0.17 4.36,-0.23 -0.02,-4.47 -0.02,-8.93 0,-13.38 -8.48,0 -16.96,-0.02 -25.43,0.02zm66.07 8.18l0 0c-1.02,7.42 -1.45,15.31 0.88,22.52 4.74,8.97 16.63,5.13 24.8,5.95 -0.02,3.95 -0.02,7.9 0,11.86 -3.06,-0.02 -6.12,0 -9.14,0 -0.02,-1.48 -0.02,-4.44 -0.02,-5.93 -5.4,0 -10.79,-0.02 -16.16,0 -0.02,6.45 -0.02,12.92 -0.02,19.42 11.02,-0.22 22.13,0.6 33.13,-0.67 4.85,-0.37 8.8,-4.7 9.02,-9.54 0.6,-7.57 1.46,-15.61 -1.21,-22.86 -5.74,-7.53 -16.63,-4.53 -24.76,-5.26 -0.02,-3.43 0,-6.84 0.02,-10.25 3.04,0.02 6.1,0.04 9.19,0.09 -0.02,1.18 -0.05,3.6 -0.07,4.81 5.03,-0.02 10.08,0 15.12,0 0,-6.13 0,-12.23 0,-18.34 -10.31,0.13 -20.6,-0.28 -30.88,0.13 -4.56,0.02 -9.3,3.41 -9.9,8.07zm84.96 4.64l0 0c0.45,6.96 -1.9,15.48 3.49,21.07 6.52,4.59 15.02,2.22 22.46,2.78 -0.02,3.95 -0.05,7.9 -0.05,11.87 -2.89,-0.03 -5.75,-0.05 -8.6,-0.03 0,-1.48 0,-4.44 0,-5.93 -5.59,-0.02 -11.15,0 -16.72,0 -0.02,6.47 0,12.94 0.02,19.42 11.65,-0.35 23.45,0.9 34.99,-1.04 6.06,-1.34 7.87,-8.13 7.61,-13.52 -0.32,-6.24 1.28,-13.16 -1.94,-18.83 -5.76,-7.04 -16.05,-4.3 -23.96,-4.94 -0.02,-3.41 -0.02,-6.8 0,-10.16 2.13,-0.02 6.4,-0.07 8.54,-0.09 0.04,1.21 0.11,3.67 0.13,4.9 5.2,0 10.4,0 15.59,0 -0.02,-6.13 0,-12.23 0,-18.34 -10.78,0.2 -21.59,-0.41 -32.35,0.24 -6.23,0.41 -9.99,6.75 -9.21,12.6zm92.06 -12l0 0c-6.51,2.55 -6.49,10.47 -6.75,16.31 -0.02,10.87 -0.41,21.79 0.21,32.66 0.05,5.2 3.26,10.8 8.87,11.37 8.54,1.25 17.32,1.31 25.86,-0.03 5.44,-0.82 8.13,-6.49 8.05,-11.49 0.15,-12.99 0.23,-26 -0.05,-38.98 0.03,-4.94 -3.66,-9.69 -8.67,-10.2 -9.12,-0.69 -18.5,-1.21 -27.52,0.36zm76.77 -0.84l0 0c-0.03,4.49 -0.03,8.97 0,13.48 1.07,0 3.23,-0.02 4.29,-0.02 0.15,12.84 -0.2,25.65 0.11,38.48 -0.02,4.27 2.95,8.44 7.31,9.15 8.13,1.36 16.5,1.27 24.72,0.41 5.07,-0.32 9.86,-4.47 9.77,-9.79 0.47,-12.71 0.04,-25.41 0.13,-38.12 1.1,-0.04 3.28,-0.15 4.36,-0.19 -0.03,-4.49 -0.03,-8.95 0,-13.4 -7.04,0 -14.02,0 -21.04,0 -0.06,16.22 0.13,32.44 -0.1,48.69 -2.01,-0.07 -6,-0.18 -7.98,-0.24 0,-16.16 0,-32.29 0,-48.45 -7.21,0 -14.39,0 -21.57,0zm90.59 0l0 0c-0.02,4.49 -0.02,8.97 0,13.48 1.08,0 3.24,0 4.31,-0.02 0,11.43 0,22.87 0,34.32 -7.52,0.3 -3.23,9.47 -4.37,14.24 7.2,0 14.4,0 21.63,0 0,-8.46 0,-16.89 0,-25.35 2.87,-0.02 5.74,-0.02 8.65,0 -0.02,5.8 -0.22,11.63 0.04,17.45 0.33,2.46 -0.28,6.32 3.02,6.93 5.87,1.18 11.93,0.92 17.93,1.05 0,-4.51 0,-9.01 0.04,-13.52 -0.86,0 -2.61,0.02 -3.47,0.02 -0.24,-6.62 -0.2,-14.13 -6.45,-18.12 7.29,-5.05 6.77,-14.49 5.78,-22.28 -0.82,-4.92 -5.61,-7.94 -10.33,-8.03 -12.26,-0.49 -24.53,-0.02 -36.78,-0.17zm91.11 0.02l0 0c0,4.49 0,8.98 0.04,13.49 0.95,0 2.83,0 3.76,-0.03 0,11.67 0,23.34 0,35.01 -0.95,0.02 -2.85,0.07 -3.8,0.09 0,4.46 0,8.95 0.02,13.44 8.44,0 16.87,-0.03 25.33,0.02 0,-4.49 0,-8.95 0.04,-13.4 -1.08,-0.04 -3.26,-0.15 -4.34,-0.19 0,-11.65 0,-23.32 0,-34.97 1.08,0 3.24,0 4.32,-0.02 -0.02,-4.49 -0.02,-8.97 0,-13.46 -8.48,0 -16.94,-0.02 -25.37,0.02zm-718.21 194.67l0 0c-16.93,31.19 -32.81,62.99 -50.43,93.77 -0.74,-54.47 -0.05,-108.93 -0.37,-163.4 0.17,-4.03 -0.49,-8.32 1.45,-12.01 5.04,-0.6 10.16,-0.34 15.25,-0.39 2.02,-9.68 4.01,-19.39 6.08,-29.07 -38.85,0 -77.7,-0.03 -116.57,0.02 0.03,9.66 0.03,19.32 0.03,28.99 5.71,0.11 11.9,-0.65 16.8,2.97 -0.22,20.8 -0.04,41.59 -0.09,62.38 -13.48,0 -26.98,0 -40.46,-0.02 0.26,-21.57 -0.43,-43.16 0.39,-64.73 5.43,-0.45 10.89,-0.54 16.35,-0.58 0,-9.69 0,-19.35 0,-29.03 -38.92,0 -77.83,-0.03 -116.76,0 1.98,9.7 4.01,19.39 6.08,29.07 4.94,0.07 9.97,-0.26 14.91,0.48 2.43,2.67 1.81,6.49 1.98,9.81 -0.06,17.04 -0.09,34.08 0.02,51.12 -7.16,-20.51 -18.7,-39.6 -34.68,-54.44 -25.46,-24.05 -60.57,-38.18 -95.73,-36.6 -33.3,-0.33 -66.61,0.49 -99.93,0.53 0.02,-7.31 0.02,-14.64 0,-21.95 -9.47,2.02 -18.96,3.99 -28.43,5.95 -0.43,5.13 0.84,11 -2.44,15.42 -3.58,1.79 -7.76,1.49 -11.67,1.71 -42.6,-0.07 -85.22,0 -127.84,-0.03 -0.03,26.06 0.04,52.12 -0.05,78.17 -7.37,-1.66 -14.88,-2.8 -22.19,-4.78 -3.56,-27.64 -20.45,-53.39 -45.64,-65.84 -21.25,-11.47 -46.14,-9.31 -69.39,-8.77 -27.03,0.36 -54.06,0.04 -81.06,0.15 2.02,9.64 4.05,19.3 6.01,28.96 5.44,0.07 10.92,0.2 16.29,1.23 1.77,24.53 0.39,49.16 0.82,73.73 -0.43,42.66 0.88,85.37 -0.69,128 -5.44,0.82 -10.94,1.07 -16.44,1.23 -2.05,9.62 -4.03,19.28 -6.02,28.92 40.88,-0.02 81.78,0.04 122.67,-0.02 -1.94,-9.69 -3.88,-19.37 -6.08,-28.99 -5.48,-1.3 -17.21,3.04 -16.78,-6.02 -0.33,-6.64 -0.05,-13.29 -0.02,-19.93 12.77,17.82 24.93,36.06 37.62,53.95 26.98,0.08 53.96,0.75 80.97,0.49 -0.02,17.73 -0.07,35.44 0.02,53.17 19.87,-17.84 39.73,-35.7 59.51,-53.64 22.76,-0.22 45.51,0.02 68.27,-0.15 4.18,0.06 8.54,-0.28 12.49,1.46 2.26,4.83 1.31,10.36 1.62,15.56 9.49,1.94 18.98,4.01 28.49,5.8 -0.02,-7.21 -0.02,-14.39 -0.06,-21.59 33.23,-0.61 66.45,0.79 99.71,0.47 22.85,0.73 45.9,-4.29 66.12,-15.01 30.58,-15.96 54.03,-44.39 64.58,-77.18 -0.59,20.56 0.66,41.13 -0.72,61.65 -5.43,0.58 -10.87,0.88 -16.32,1.06 -2.01,9.62 -4.06,19.26 -5.98,28.9 38.91,0.04 77.82,0.02 116.74,0.02 0,-9.68 0,-19.35 0,-29.01 -5.35,-0.6 -11.78,1.12 -16.38,-2.18 -0.86,-24.27 -0.06,-48.58 -0.36,-72.86 13.48,-0.05 26.98,-0.02 40.46,-0.02 -0.45,24.76 0.95,49.58 -0.75,74.28 -5.31,0.43 -10.64,0.69 -15.96,0.78 0,9.64 0,19.3 -0.03,28.97 30.79,0.11 61.59,0.02 92.39,0.02 3.97,-0.37 7.53,1.59 10.91,3.43 18.73,10.16 37.73,19.84 56.49,29.89 2.96,-9.51 5.68,-19.09 8.44,-28.66 -4.75,-2.4 -9.45,-4.9 -13.94,-7.72 3.56,-9.34 8.48,-18.06 12.82,-27.03 33.17,-0.2 66.32,0 99.5,-0.11 3.73,8.74 9.06,16.76 11.99,25.84 -1.92,4.9 -8.73,6.08 -12.96,9 2.48,9.59 4.85,19.21 7.25,28.86 35.41,-18.32 70.55,-37.13 105.97,-55.44 7.59,14.67 15.31,29.29 23.06,43.9 19.48,-36.48 38.39,-73.26 57.74,-109.77 19.67,36.34 38.11,73.36 57.98,109.62 41.39,-78.56 82.74,-157.12 124.11,-235.68 -0.04,57.44 -0.02,114.91 0,172.35 -0.02,3.84 -0.41,7.68 -0.95,11.49 -5.24,0.65 -10.5,0.95 -15.74,1.1 -2.07,9.65 -4.06,19.29 -6.06,28.95 40.92,0 81.83,0.02 122.77,-0.02 -2.03,-9.64 -4.05,-19.31 -6.04,-28.95 -5.48,-0.19 -11.04,0.05 -16.35,-1.42 -1.27,-14.65 -0.21,-29.42 -0.51,-44.11 24.54,24.31 49,48.75 73.31,73.31 32.21,0.93 64.45,0.07 96.68,1.28 -0.56,-2.18 -1.66,-6.58 -2.22,-8.78 32.42,17.53 74.67,18.94 106.27,-1.25 18.53,-11.41 32.29,-30.53 36.37,-51.99 3.51,-21.65 0.84,-45.32 -11.84,-63.74 -13.01,-19.84 -35.08,-30.22 -54.58,-42.34 -8.24,-5.35 -17.66,-9.27 -24.39,-16.59 -4.36,-4.52 -2.05,-12.29 3.49,-14.62 11.84,-6.04 28.02,-3.36 36.74,6.92 4.18,4.71 5.65,11.03 7.95,16.72 8.12,-1.88 16.23,-3.82 24.36,-5.59 1.25,-21.63 0.47,-43.33 0.56,-64.99 -23.06,-18.57 -54.66,-22.54 -83.11,-17.86 -21.53,3.54 -42.15,15.36 -53.9,34.04 -19.33,30.89 -16.35,75.56 10,101.6 13.64,13.67 31.26,22.1 47.42,32.29 7.5,4.87 17.88,8.56 20.29,18.18 2.18,6.56 -4.38,12.08 -10.29,13.14 -11.8,2.15 -24.46,-0.41 -34.31,-7.32 -10.77,-7.27 -16.66,-19.41 -19.76,-31.66 -8.91,0.17 -17.8,0.71 -26.68,0.82 -0.09,22.24 0.08,44.48 -0.11,66.71 -38.29,-37.4 -75.67,-75.73 -113.33,-113.73 27.72,-26.08 53.34,-54.36 81.45,-80.01 3.99,-4.79 10.07,-2.28 15.14,-1.33 2.48,-10.27 5.09,-20.52 7.64,-30.78 -30.14,0.73 -60.31,0.02 -90.45,1.18 -8.43,8.44 -16.8,16.91 -25.32,25.26 1.75,-8.84 3.65,-17.62 5.44,-26.44 -62.25,-0.05 -124.51,0.92 -186.78,0.54 0,9.36 0,18.74 0,28.1 3.37,0.41 6.84,0.76 10.18,1.66 -1.03,5.72 -4.33,10.64 -6.94,15.73 -13.46,26.35 -26.96,52.69 -40.45,79.03 -5.6,-10.27 -10.93,-20.67 -16.15,-31.15 10.63,-19.91 21.01,-39.97 31.75,-59.81 2.2,-5.91 9.04,-4.75 14.06,-5.27 0,-9.42 0,-18.87 0,-28.29 -27.43,-0.29 -54.83,0.32 -82.24,0.51 -1.79,3.56 -3.54,7.14 -5.27,10.72 -1.89,-3.56 -3.75,-7.14 -5.58,-10.72 -27.37,-0.49 -54.77,-0.64 -82.16,-0.51 0,9.42 0,18.83 0,28.25 5,0.52 11.93,-0.56 14.1,5.39 10.75,19.8 21.08,39.87 31.71,59.71 -5.15,10.57 -10.74,20.92 -16.07,31.38 -15.33,-30.26 -31.08,-60.35 -46.26,-90.7 -4.6,-6.36 5.13,-5.26 8.9,-5.8 -0.04,-9.43 0.69,-18.83 0.67,-28.23 -39.99,0.43 -79.94,-0.78 -119.91,-0.54 2.4,9.68 4.84,19.34 7.25,29.01 4.92,0.28 10.16,-0.59 14.86,1.31 4.3,4.77 6.54,10.9 9.62,16.44 29.38,55.76 58.7,111.58 88.14,167.32 -5.29,2.76 -10.59,5.56 -16.22,7.59 -1.92,-2.78 -3.84,-5.57 -5.48,-8.5 -42.32,-79.03 -84.38,-158.19 -126.83,-237.12 -24.03,45 -47.99,90.04 -72,135.05zm-5.5 -109.96l0 0c-3.5,16.72 -6.93,33.45 -10.46,50.15 -4.21,-0.07 -8.39,-0.11 -12.58,-0.13 -0.11,21.96 -0.19,43.94 0.02,65.94 20.8,-38.61 41.2,-77.44 61.95,-116.05 -12.98,0.07 -25.95,-0.04 -38.93,0.09zm-146.61 49.54l0 0c0,7.36 0,14.74 0,22.11 2.15,0 6.47,0 8.63,0 0,-7.37 0,-14.73 0,-22.11 -2.16,0 -6.48,0 -8.63,0zm836.02 12.95l0 0c-16.11,16.58 -33.11,32.24 -49.26,48.79 19.78,19.76 39.49,39.56 59.32,59.27 0.02,-11.41 -0.09,-22.82 0.08,-34.23 6.43,0.09 12.86,0.04 19.29,-0.34 -17.69,-24.66 -20.37,-56.28 -16.18,-85.51 -4.81,3.56 -9.1,7.72 -13.25,12.02zm-836.02 115.42l0 0c0,10.39 0,20.81 0,31.25 2.87,-0.02 5.74,-0.02 8.6,0.02 0.03,-10.44 0.03,-20.88 0,-31.32 -2.86,0 -5.73,0.03 -8.6,0.05z"/>
   <path class="fil2" d="M475.21 296.28c83.24,31.06 168.37,57.29 255.06,76.9 69.97,15.59 141.2,27.2 213,28.58 109.88,1.85 220.1,12.85 326.81,39.9 81.47,21.05 161.67,51.12 231.9,98.19 20.42,14.3 40.94,29.22 57.18,48.31 -37.17,-15.83 -76.44,-25.86 -115.36,-36.34 -93.01,-24.16 -186.83,-44.95 -280.75,-65.19 -14.8,-2.99 -29.49,-6.58 -44.39,-9.08 17.3,13.89 37.7,22.97 56.66,34.26 -66.84,15.81 -139.73,1.94 -196.2,-37.1 14.61,33.32 43.4,58.49 75.28,74.97 -48.51,15.6 -97.04,33.54 -139.94,61.5 63.05,-13.79 128.75,-5.89 190.8,9.27 -20.68,21.36 -47.28,37.36 -76.53,43.47 -23.33,5.26 -47.71,4.25 -70.96,-0.85 35.05,36.09 84.14,55.63 133.34,62.51 -24.71,41.94 -47.19,85.18 -68.39,128.99 53.25,-16.2 110.2,-18.2 165.14,-10.61 -18.84,23.84 -42.11,43.77 -66.61,61.54 -38.76,27.63 -81.54,49.35 -125.88,66.5 -9.11,3.67 -18.75,6.02 -27.38,10.78 31.54,11.5 66.12,7.38 98.32,1.15 19.28,-3.93 38.2,-9.45 56.79,-15.84 -12.51,11.24 -25.77,21.92 -39.97,30.94 -24.95,1.23 -50.06,0.1 -75.06,0.49 -151.96,-0.13 -303.94,0.24 -455.9,-0.17 59.58,-35.76 124,-63.37 190.46,-83.39 -69.65,11.87 -141.35,3.71 -208.75,-16.16 -73.45,-21.78 -143.68,-54.57 -207.83,-96.41 12.68,1.74 24.85,5.95 37.53,7.76 69.26,11.72 140.21,4.64 208.76,-8.39 35.07,-7.07 69.93,-15.57 103.83,-27 -18.96,-22.26 -45.57,-35.92 -71.65,-48.1 -67.06,-29.73 -138.42,-48.26 -209.81,-64.22 11.99,-7.42 25.99,-10.5 39.41,-14.38 58.49,-14.5 119.45,-15.04 179.31,-11.61 45.1,2.8 89.97,8.61 134.42,16.65 -15.27,-28.12 -38.85,-50.56 -62.88,-71.22 -63.95,-53.41 -136.75,-94.91 -210.37,-133.35 20.49,0.33 40.86,2.85 61.24,4.81 87.34,9.62 174.11,23.51 260.8,37.77 -51.7,-13.52 -101.18,-34.77 -147.39,-61.54 -63.43,-37.01 -122.38,-82.07 -174.04,-134.29zm628.59 817.61c33.52,-0.09 67.06,-0.03 100.58,-0.05 -0.02,3.35 0,6.71 0,10.08 -4.23,2.04 -10.12,3.04 -11.84,8.06 -1.9,4.96 0.82,10.01 2.93,14.41 17.73,34.64 35.59,69.2 53.1,103.95 9.39,-17.11 17.71,-34.75 26.71,-52.05 -11.89,-21.4 -22.72,-43.38 -34.62,-64.75 -2.72,-5.61 -8.65,-7.88 -14.17,-9.6 -0.05,-3.24 -0.09,-6.45 -0.13,-9.67 22.95,0.05 45.88,0.18 68.83,0.7 3.86,7.26 7.7,14.58 11.32,22 3.73,-7.42 7.55,-14.78 11.52,-22.07 22.97,-0.32 45.94,-0.75 68.91,-0.52 -0.17,3.17 -0.32,6.39 -0.43,9.58 -6.01,1.64 -11.95,4.66 -14.66,10.61 -11.48,21.2 -22.48,42.69 -33.98,63.89 9.11,17.13 17.11,34.84 26.71,51.73 17.64,-34.82 35.57,-69.48 53.28,-104.27 2.02,-4.47 4.74,-9.6 2.6,-14.54 -2.15,-4.55 -7.57,-5.52 -11.69,-7.46 -0.02,-3.37 -0.04,-6.73 -0.04,-10.08 56.17,0 112.31,0 168.46,0 -0.73,3.41 -1.46,6.82 -2.13,10.27 -6.34,0.88 -15.3,1.06 -17.35,8.65 -2.58,12.57 -0.64,25.6 -1.18,38.37 17.86,-17.6 35.48,-35.46 53.23,-53.17 3.71,-4.72 10.27,-2.54 15.43,-3.17 20.57,-0.97 41.19,0.28 61.75,-1.03 -0.78,3.3 -1.53,6.62 -2.24,9.94 -15.58,1.64 -24.31,16.05 -35.06,25.6 -22.56,22.85 -45.94,44.85 -68.29,67.88 30.01,29.96 59.95,59.95 89.95,89.93 11.99,11.63 23.08,24.24 35.89,35.03 3.89,3.54 9.19,4.33 14.17,5.48 0.67,3.13 1.39,6.28 2.12,9.42 -25.73,0.35 -51.45,-0.6 -77.16,-0.58 -3.25,0.52 -5.37,-2.11 -7.44,-4.01 -27.39,-27.5 -54.74,-55.03 -82.35,-82.29 -0.07,18.36 0.04,36.69 -0.09,55.05 0.09,5.56 -0.28,11.62 2.83,16.54 3.79,4.68 10.44,4.44 15.85,5.61 0.63,3.21 1.3,6.43 1.99,9.66 -33.27,-0.04 -66.5,0.2 -99.76,-0.11 0.64,-3.19 1.27,-6.38 1.94,-9.53 4.91,-1.12 10.5,-0.99 14.69,-4.21 4.27,-4.91 3.81,-11.9 4.27,-17.99 0.06,-58.97 -0.03,-117.94 0.04,-176.91 0.06,-7.51 -0.52,-15.27 -4.79,-21.68 -1.96,2.46 -3.92,4.94 -5.61,7.62 -41.22,78.14 -82.16,156.46 -123.59,234.5 -19.24,-36.58 -38.51,-73.14 -57.55,-109.81 -19.87,36.35 -38.29,73.47 -58.13,109.81 -39.26,-74.87 -78.75,-149.58 -118.05,-224.41 -3.03,-5.5 -5.42,-11.54 -9.84,-16.09 -3.97,-3.24 -9.47,-2.94 -14.13,-4.49 -1.19,-3.23 -1.92,-6.58 -2.8,-9.83zm5.54 5.13l0 0c7.12,1.9 14.15,4.77 21.66,4.66 18.72,-0.09 37.46,-0.07 56.21,-0.02 4.96,0.43 9.36,-2.01 13.63,-4.19 -30.48,-0.8 -61,0.09 -91.5,-0.45zm120.21 0.11l0 0c4.96,2.31 10.01,5.05 15.66,4.85 16.52,0.2 33.04,-0.15 49.57,0.11 -1.1,-1.55 -2.18,-3.09 -3.26,-4.6 -20.66,0.18 -41.31,0.11 -61.97,-0.36zm91.46 0.52l0 0c-3.52,7.95 -8.05,15.44 -11.63,23.38 -2.07,3.45 0.99,6.9 1.96,10.22 5.01,-9.81 9.58,-19.84 15.1,-29.4 14,0.17 28.02,0.26 42.04,0.17 5.48,0.2 10.29,-2.71 15.14,-4.87 -20.88,0.5 -41.73,0.34 -62.61,0.5zm91.78 -0.31l0 0c4.18,2.31 8.56,4.86 13.56,4.34 40.38,-0.13 80.7,-0.45 121.07,0.04 8.33,0.54 16.25,-2.28 24.06,-4.74 -52.89,0.56 -105.8,-0.15 -158.69,0.36zm202.6 0.22l0 0c-18.59,17.99 -36.58,36.62 -55.09,54.7 -3.51,2.74 -3.79,7.27 -4.61,11.3 21.03,-20.29 41.13,-41.54 62.27,-61.71 14.58,0.24 29.18,0.15 43.76,0.22 6.52,0.45 12.32,-2.72 18.06,-5.29 -21.44,1.19 -42.93,0.69 -64.39,0.78zm-189.9 7.48l0 0c0.3,6.19 1.51,12.82 -1.66,18.55 -18.23,35.55 -36.24,71.25 -54.7,106.67 -2.01,2.84 -1.3,6.25 -0.71,9.42 7.07,-8.9 10.95,-19.69 16.37,-29.57 14.17,-28.11 28.86,-55.97 43.03,-84.08 3.93,-6.77 3.32,-15.4 -2.33,-20.99zm77.61 16.85l0 0c-0.07,61.84 -0.07,123.7 0,185.57 0.04,6.53 -0.93,14.08 -6.58,18.29 -4.29,2.63 -9.4,3.32 -14.15,4.7 5.61,-0.11 11.22,-0.2 16.85,-0.17 4.05,-5.37 8.69,-11.18 8.26,-18.34 0.04,-63.33 0.02,-126.66 0,-189.98 0.36,-6.56 -3.43,-12.15 -6.64,-17.48 0.99,5.76 2.19,11.52 2.26,17.41zm-374.63 -15.57l0 0c39.2,76.89 80.61,152.67 120.04,229.46 0.99,-1.86 2.01,-3.71 3.02,-5.55 -33.78,-62.51 -66.26,-125.71 -99.65,-188.43 -6.93,-12.34 -11.63,-26.73 -23.41,-35.48zm115.34 -0.05l0 0c12.55,23.21 24.52,46.75 37.31,69.87 -6.36,13.13 -13.35,25.93 -19.8,39.02 -3.73,7.76 -9.14,15.23 -8.99,24.24 3.71,-3.12 6.08,-7.42 8.06,-11.77 8.16,-17.26 17.99,-33.78 25.35,-51.36 -8.76,-18.83 -19.39,-36.8 -28.77,-55.35 -2.83,-6.13 -7.88,-10.7 -13.16,-14.65zm66.91 119.03l0 0c0,4.87 0.21,9.92 2.95,14.17 12.25,22.41 23.69,45.27 35.79,67.77 5.37,9.71 9.49,20.15 16.22,29.08 0.93,-9.73 -5.35,-17.56 -9.47,-25.72 -8.07,-15.55 -16.2,-31.08 -24.4,-46.54 -7.05,-12.9 -12.92,-26.49 -21.09,-38.76zm250.21 102.6l0 0c-0.28,3.52 8.15,5.66 9.1,2.05 -2.18,-2.26 -6.21,-3.28 -9.1,-2.05zm-1038.44 -236.06c32.46,0.31 64.88,-0.88 97.34,-0.58 32.4,-0.45 64.71,12.96 87.25,36.24 19.89,19.65 32.42,46.5 35.01,74.33 3.76,35.7 -9.49,72.69 -34.94,97.99 -20.71,21.14 -49.4,34.23 -78.93,36 -22.9,1.1 -45.81,-0.54 -68.72,-0.24 -12.34,0.05 -24.65,0.15 -36.97,-0.62 0.65,-3.24 1.27,-6.45 1.94,-9.64 4.79,-1.06 10.23,-0.91 14.33,-3.99 4.2,-4.06 4.18,-10.47 4.48,-15.92 -0.02,-61.11 -0.02,-122.24 0,-183.35 -0.28,-5.05 -0.21,-10.67 -3.32,-14.92 -3.82,-4.47 -10.22,-4.04 -15.49,-5.01 -0.67,-3.45 -1.33,-6.86 -1.98,-10.29zm6.3 5.07l0 0c7.07,2.38 14.23,5.24 21.85,4.81 27.35,-0.73 54.72,-0.54 82.09,-0.43 26.34,0.71 50.71,13.07 70.88,29.34 -22.06,-21.53 -52.67,-34.97 -83.71,-33.89 -30.37,-0.17 -60.74,0.39 -91.11,0.17zm18.27 9.28l0 0c3.3,24.61 2,49.46 2.22,74.22 0.02,37.34 -0.07,74.67 0.04,112.01 -0.24,9.23 -0.45,18.77 -3.34,27.63 -2.76,6.99 -10.68,8.48 -17.15,10.08 5.05,0.06 10.12,0.17 15.18,0.41 4.77,-5.12 8.68,-11.48 8.31,-18.75 0.06,-63.24 0,-126.48 0.02,-189.73 0.52,-5.86 -2.18,-11.13 -5.28,-15.87zm54.44 34.72l0 0c0,48.56 0,97.09 0,145.62 11.11,0.07 22.43,0.35 33.2,-2.82 20.85,-5.85 38.56,-21.51 47.04,-41.42 14.02,-30.99 2.16,-70.49 -26.21,-89.02 -15.59,-11.21 -35.35,-13.48 -54.03,-12.36zm74.41 23.9l0 0c9.24,13.44 16.96,28.74 16.57,45.47 2.29,30.27 -16.26,59.88 -43.03,73.28 -14.71,7.83 -31.64,8.62 -47.93,8.08 -0.13,1.15 -0.34,3.41 -0.47,4.56 18.24,0.69 37.27,-0.74 53.32,-10.29 25.19,-13.94 44.04,-41.63 42.62,-71.05 0.34,-18.68 -7.92,-37 -21.08,-50.05zm-537.37 -72.97c35.29,0.05 70.58,-0.1 105.85,0.07 36.93,1.08 69.17,34.27 69.22,71.2 1.53,29.46 -16.79,58.04 -43.55,70.04 18.96,27.46 37.59,55.13 57.09,82.2 3.63,5.76 9.45,9.38 16.18,10.25 -0.07,3.15 -0.13,6.3 -0.17,9.44 -24.77,0.31 -49.51,-0.58 -74.27,-0.69 -16.84,-25 -34.23,-49.61 -51.38,-74.39 0.13,15.14 -0.02,30.3 0.02,45.45 0.22,5.43 0.13,11.92 4.4,15.98 4.14,2.95 9.49,2.91 14.3,3.93 0.65,3.23 1.3,6.49 1.95,9.75 -33.2,-0.07 -66.38,-0.03 -99.57,0 0.62,-3.28 1.25,-6.52 1.92,-9.78 9.08,0.09 19.5,-4.4 18.51,-15.18 0.69,-61.24 0.02,-122.52 0.34,-183.76 -0.15,-6.4 0.24,-13.46 -3.26,-19.08 -3.81,-4.6 -10.33,-4.17 -15.66,-5.16 -0.64,-3.43 -1.29,-6.86 -1.92,-10.27zm6.02 5.05l0 0c16.61,7.46 35.03,3.97 52.61,4.72 19.37,0.52 38.81,-1.59 58.13,0.48 12.92,1.49 24.01,8.65 34.67,15.59 -14.78,-14.56 -35.55,-22.28 -56.26,-20.94 -29.72,-0.17 -59.42,1.03 -89.15,0.15zm18.81 9.28l0 0c1.32,59.87 0.24,119.82 0.58,179.72 -0.36,10.78 1.08,21.78 -1.1,32.46 -2.41,8.13 -11.21,10.16 -18.37,12.21 5.22,-0.15 10.41,-0.26 15.61,-0.22 4.58,-5.13 8.54,-11.28 8.24,-18.42 0.18,-63.26 0,-126.55 0.07,-189.81 0.45,-5.83 -2.35,-11.01 -5.03,-15.94zm54.21 26.07l0 0c-0.03,21.25 -0.03,42.47 -0.03,63.72 10.29,0.09 21.7,0.95 30.31,-5.84 15.9,-10.92 17.77,-36.18 3.43,-49.16 -8.71,-9.21 -22.02,-9.19 -33.71,-8.72zm40.03 7.29l0 0c5.48,8.93 11.02,19.24 8.5,30.12 -2.57,16.15 -16.44,30.17 -33.05,31.19 -5.97,0.69 -13.31,-1.36 -17.4,4.31 12.87,1.08 27.09,1.32 37.83,-7.08 14.28,-9.25 20.12,-28.01 14.84,-43.98 -2.48,-5.58 -6.79,-10 -10.72,-14.56zm-40.62 102.68l0 0c0.48,4.18 0.28,8.75 3,12.29 17.11,24.61 34.41,49.14 51.19,73.99 1.51,0.06 4.51,0.17 5.99,0.21 -20.27,-28.66 -39.58,-58.04 -60.18,-86.49zm1505.58 -108.87c7.25,-21.76 27.1,-37.7 49.25,-42.42 25.99,-5.44 54.98,-3.15 77.41,12.12 0.54,17.66 -0.54,35.31 -0.43,52.97 -2.96,0.76 -5.91,1.53 -8.84,2.33 -4.27,-8.5 -9.86,-17.02 -18.9,-20.96 -12.94,-6.32 -30.18,-6.39 -41.46,3.36 -7.57,6.41 -7.63,18.98 -0.95,26.06 6.78,7.27 16.01,11.43 24.29,16.69 19.46,12.25 41.83,22.37 54.64,42.43 16.41,26.96 14.62,65.47 -7.83,88.59 -17.43,18.81 -44.11,27.59 -69.41,25.41 -22.33,-1.01 -44.98,-9.47 -60.14,-26.34 -1.75,-1.62 -2.52,-3.6 -2.35,-5.97 -0.86,-18.86 -0.65,-37.73 -0.65,-56.58 3.5,-0.2 7.05,-0.39 10.59,-0.54 4.9,15.38 15.88,29.08 31.11,35.14 12.27,4.76 26.89,6.99 39.06,0.69 8,-3.86 13.07,-13.55 10.09,-22.24 -3.25,-12.71 -16.28,-18.42 -26.53,-24.63 -17.73,-11.18 -37.92,-20.26 -50.51,-37.77 -14.09,-19.44 -15.88,-45.97 -8.44,-68.34zm25.48 -26.25l0 0c-30.4,22.59 -32.79,72.52 -6.67,99.25 -15.87,-24.08 -19.24,-57.94 -2.78,-82.57 10.22,-15.36 28.36,-22.95 46.12,-25.13 19.17,-3.35 38.33,1.53 56.9,5.95 -8.87,-5.2 -18.73,-8.78 -28.97,-9.77 -21.94,-3.15 -46.2,-1.12 -64.6,12.27zm32.05 68.55l0 0c4.72,5.4 9.51,10.87 15.53,14.89 16.03,10.35 32.68,19.65 49.85,27.93 -19.37,-17.67 -43.7,-28.41 -65.38,-42.82zm29.14 77.2l0 0c3.28,7.59 6.28,16.07 3.6,24.33 -3.49,9.3 -12.68,15.12 -22,17.32 -17.73,3.43 -36.3,-2.61 -49.87,-14.21 13.16,16 35.92,23.57 55.85,17.36 12.03,-4.16 23.12,-15.62 21.61,-29.18 0.17,-6.6 -5.26,-11.07 -9.19,-15.62zm-86.17 1.77l0 0c-0.82,18.03 -0.24,36.11 -0.32,54.16 1.53,1.75 3.08,3.52 4.63,5.29 -0.67,-16.61 0.09,-33.24 -0.32,-49.87 0.06,-3.63 -2.4,-6.54 -3.99,-9.58zm-659.76 -176.18c40.36,74.56 79.96,149.54 120.06,224.24 2.5,4.2 5.37,9.12 10.46,10.46 5,0.39 9.68,-1.83 14.34,-3.35 2.14,2.64 4.32,5.29 6.5,7.92 -29.55,15.77 -59.19,31.41 -88.76,47.15 -0.82,-3.36 -1.64,-6.75 -2.44,-10.09 5.39,-3.95 13.61,-8.95 10.78,-16.93 -3.53,-11.33 -10.07,-21.44 -14.84,-32.27 -37.1,-0.41 -74.22,-0.07 -111.34,-0.17 -4.98,10.69 -11.09,20.98 -14.99,32.16 -3.13,8.17 5.5,12.72 10.33,17.42 -0.41,3.35 -1.38,6.56 -2.09,9.86 -17.73,-9.01 -35.14,-18.7 -52.74,-27.95 -3.56,-2.12 -7.77,-1.84 -11.71,-1.9 -27.44,0.17 -54.86,-0.04 -82.29,0.13 -0.11,-3.28 -0.19,-6.52 -0.28,-9.75 5.95,-1.21 14.08,-1.12 16.91,-7.7 2.37,-7.4 1.36,-15.32 1.55,-22.95 -0.02,-21.21 -0.06,-42.43 0.02,-63.63 -19.8,-0.18 -39.62,-0.2 -59.42,0.02 0.17,24.7 -0.04,49.41 0.08,74.13 0.41,5.37 0.13,11.65 4.12,15.84 4.17,3.36 9.86,3.17 14.84,4.31 -0.1,3.24 -0.19,6.47 -0.27,9.75 -32.55,-0.28 -65.13,0.13 -97.67,-0.22 0.71,-3.23 1.44,-6.45 2.15,-9.66 4.66,-0.88 9.82,-0.84 13.87,-3.62 4.19,-3.32 4.49,-9.19 4.7,-14.11 0.05,-61.8 -0.06,-123.59 0.05,-185.37 -0.18,-5.26 -0.05,-11.28 -3.65,-15.51 -3.97,-3.88 -9.96,-3.58 -15.05,-4.51 -0.67,-3.45 -1.32,-6.86 -2.01,-10.29 32.59,0 65.16,0 97.76,0 0,3.41 0.04,6.82 0.08,10.25 -7.16,0.43 -17.34,1.92 -18.01,10.96 -2.11,24.46 -0.37,49.13 -0.93,73.7 19.78,0 39.54,0 59.32,0 0,-21.61 -0.02,-43.23 0.04,-64.82 -0.21,-5.41 0.13,-11.73 -4.03,-15.83 -3.99,-3.34 -9.58,-3 -14.36,-3.99 0,-3.43 0,-6.86 0.04,-10.27 32.53,0.02 65.05,-0.04 97.58,0.05 -0.73,3.43 -1.47,6.86 -2.2,10.31 -5.85,0.92 -14.06,0.39 -16.76,6.99 -2.8,8.3 -1.92,17.25 -2.09,25.88 0.04,48.81 0,97.62 0.02,146.44 0.04,10.89 -0.41,21.83 0.86,32.68 5.96,-2.7 10.4,-7.55 13.16,-13.4 39.39,-74.16 78.99,-148.18 118.31,-222.36zm0.11 10.67l0 0c-38.16,72.35 -76.86,144.44 -115.25,216.67 -3.47,7.64 -11.09,11.48 -17.97,15.43 10.87,4.09 18.34,-6.35 22.76,-14.63 37.23,-69.88 74.57,-139.73 111.77,-209.59 1.77,-2.68 -0.54,-5.33 -1.31,-7.88zm-323.18 7.79l0 0c18.57,8.02 39.04,3.58 58.56,4.79 10.44,0.95 20.62,-1.47 30.43,-4.77 -29.65,0.41 -59.33,0.45 -88.99,-0.02zm118.46 -0.02l0 0c6.49,2.18 12.96,5.05 19.95,4.81 15.08,-0.04 30.18,-0.11 45.25,0.02 7.7,0.3 14.95,-2.57 22.14,-4.87 -29.1,0.58 -58.22,0.51 -87.34,0.04zm-100.17 9.19l0 0c1.12,6.68 2.43,13.39 2.24,20.23 -0.47,61.88 0.41,123.81 -0.43,185.65 -0.02,11.37 -10.22,17.22 -20.25,18.55 5.58,-0.13 11.21,0.18 16.76,-0.65 6.49,-5.32 8.21,-14.32 8.3,-22.3 -0.04,-58.95 -0.07,-117.9 0,-176.85 -0.13,-8.58 -0.52,-17.95 -6.62,-24.63zm118.68 0.04l0 0c1.38,28.54 0.43,57.12 0.71,85.68 -21.38,-0.22 -42.73,0.04 -64.09,-0.16 0.37,1.17 1.1,3.54 1.47,4.71 22.37,-0.46 44.76,-0.05 67.15,-0.22 -0.31,-24.74 0.15,-49.46 -0.18,-74.2 0.2,-5.74 -2.43,-10.91 -5.06,-15.81zm189.85 75.3l0 0c0,4.44 0.61,8.97 2.89,12.9 11.11,21.35 21.34,43.18 32.29,64.65 -23.16,-0.05 -46.31,0.08 -69.47,-0.09 -0.82,1.53 -1.64,3.08 -2.46,4.64 26.44,-0.22 52.87,-0.13 79.31,-0.05 -11.69,-24.56 -24.42,-48.59 -36.17,-73.12 -1.6,-3.34 -3.93,-6.23 -6.39,-8.93zm-3.79 11.2l0 0c-9.64,20.47 -19.76,40.72 -29.81,61 20.12,0.04 40.23,0.02 60.35,0.02 -10.2,-20.32 -20.23,-40.75 -30.54,-61.02zm-185.42 45.94l0 0c-0.28,25.19 0.8,50.45 -0.47,75.62 -0.33,9.97 -10.03,14.78 -18.66,16.16 5.07,-0.04 10.14,-0.02 15.23,0.15 12.31,-10.72 7.59,-28.02 8.41,-42.28 -0.65,-19.69 1.42,-39.53 -1.18,-59.1 -1.99,2.76 -3.69,5.91 -3.33,9.45zm247.11 67.19l0 0c5.26,11.22 12.27,21.85 15.2,34.02 1.45,7.96 -6.47,12.85 -11.36,17.68 4.81,-2.58 9.66,-5.17 14.54,-7.65 -0.13,-7.51 1.2,-15.53 -2.4,-22.46 -3.3,-7.18 -6.99,-14.17 -10.31,-21.35 -1.42,-0.07 -4.25,-0.17 -5.67,-0.24zm-628.12 -231.47c3.43,-0.73 6.86,-1.44 10.29,-2.13 -0.39,27.09 -0.73,54.16 -0.54,81.25 -3.75,-0.08 -7.48,-0.13 -11.22,-0.24 -3.68,-3.66 -8.28,-6.6 -13.69,-6.21 -22.82,-0.21 -45.64,-0.11 -68.44,0 0.13,13.81 0.04,27.61 0.06,41.44 21.92,-0.17 43.83,0.32 65.75,-0.22 8.28,0.26 15.74,-4.59 17.99,-12.7 3.36,0 6.75,0.02 10.13,0.06 -0.06,25.28 -0.08,50.58 0.03,75.89 -3.35,0 -6.69,0.02 -10.01,0.04 -1.45,-7.36 -7.42,-12.71 -15.06,-12.51 -22.93,-0.99 -45.9,-0.15 -68.85,-0.39 0.02,13.98 0.09,27.93 -0.07,41.91 22.78,0.15 45.56,0.28 68.34,0 5.76,0.3 10.44,-3.06 14.32,-6.9 3.6,0.02 7.21,0.08 10.81,0.19 -0.37,27.12 0.06,54.25 0.49,81.36 -3.45,-0.66 -6.88,-1.31 -10.33,-1.96 -0.99,-5.46 -0.6,-12.51 -5.84,-15.92 -5.35,-3.28 -11.93,-2.63 -17.93,-2.78 -23.77,0.11 -47.54,0.09 -71.31,0.02 -15.64,13.96 -31.19,28.02 -46.72,42.11 0.02,-46.16 0.04,-92.32 0,-138.48 -4.72,1.05 -9.88,1.29 -14.04,3.99 -4.21,3.86 -3.75,10.11 -4.77,15.31 -3.43,0.63 -6.88,1.27 -10.31,1.92 0.07,-30.65 0,-61.3 0.02,-91.95 3.46,0.73 6.91,1.49 10.36,2.24 0.77,4.86 0.58,10.36 3.86,14.39 4.01,3.67 9.86,3.6 14.95,4.36 0,-31.84 -0.24,-63.7 0.13,-95.54 39.34,0.28 78.68,-0.02 118,0.18 5.98,-0.15 12.45,0.13 17.82,-2.89 5.13,-3.46 4.81,-10.44 5.78,-15.84zm3.73 8.65l0 0c-2.07,4.51 -3.23,10.59 -8.56,12.47 -8.05,3.04 -16.82,3.43 -25.32,3.6 -35.68,-0.15 -71.33,0.07 -106.99,-0.1 0.37,31.85 0.02,63.69 0.17,95.55 -6.53,-0.78 -13.02,-1.88 -19.56,-2.78 6.56,6.32 15.77,5.45 24.14,5.41 -0.24,-31.69 -0.29,-63.39 0.02,-95.1 39.79,0.06 79.61,0.06 119.41,0.02 6.36,0.5 11.69,-3.1 16.78,-6.34 -0.06,-4.27 -0.09,-8.5 -0.09,-12.73zm-169.13 167.11l0 0c7.04,-13.66 3.71,-29.25 4.47,-43.92 0.5,-9.92 0.06,-20.06 -4.27,-29.18 -0.48,24.35 -0.13,48.72 -0.2,73.1zm148.25 -56.37l0 0c-22.26,0.52 -44.54,0.09 -66.8,0.13 0.02,0.8 0.11,2.42 0.15,3.24 23.6,-0.33 47.22,0.08 70.82,-0.17 9.53,0.17 20.6,-6.35 18.29,-17.33 -5.07,7.77 -12.79,13.94 -22.46,14.13zm-119.97 45.34l0 0c0.2,42.17 0.26,84.34 -0.02,126.53 1.55,-1.64 3.11,-3.28 4.68,-4.87 -0.11,-40.53 -0.24,-81.08 0.07,-121.61 -1.19,0 -3.54,-0.05 -4.73,-0.05zm117.82 47.44l0 0c-21.55,0.45 -43.12,0.06 -64.67,0.1 0.04,0.8 0.11,2.42 0.15,3.22 23.66,-0.28 47.3,0.1 70.97,-0.15 6.17,0.15 11.54,-3.24 16.76,-6.07 -0.03,-1.66 -0.09,-4.96 -0.13,-6.6 -6.47,5.57 -14.37,9.5 -23.08,9.5zm880.16 -682.5c26.27,5.46 52.84,10.98 77.65,21.44 16.93,9.13 32.5,20.82 50.56,27.89 -2.37,17.09 -10.53,33.46 -23.97,44.48 -29.01,24.98 -77.02,24.37 -104.35,-2.89 -16.59,-15.4 -23.58,-40.27 -17.02,-61.99 3,-11 9.75,-20.43 17.13,-28.93zm26.59 25.33l0 0c-11.64,2.91 -17.45,18.2 -10.29,27.97 4.66,7.7 14.58,9.19 22.78,7.72l-2.07 1.36c5.54,5.78 12.34,12.04 21.07,10.92 14.97,0.06 25.95,-18.06 18.62,-31.24 -4.83,-10.89 -17.84,-14.1 -28.65,-11.64 0.28,1.14 0.85,3.42 1.13,4.57 -5.16,-6.8 -13.72,-12.64 -22.59,-9.66zm-95.7 -74.66c50.84,-18.29 107.61,-21.31 159.7,-6.43 38.63,11.87 78.13,25.2 110.29,50.46 -12.69,20.23 -36.87,32.85 -60.74,30.75 -12.17,-12.33 -25.69,-23.46 -41.03,-31.7 -51.23,-28.76 -110.42,-38.36 -168.22,-43.08z"/>
   <path class="fil3" d="M1509.66 724.64c17.19,-27.14 39.08,-55.68 71.69,-64.15 6.37,8.22 11.09,17.92 18.51,25.19 44.35,12.58 89.21,26.29 128.84,50.52 14.49,9.4 29.42,20.79 35.5,37.66 6.9,19.09 6.69,39.9 4.51,59.83 -3.23,27.94 -10.37,55.33 -19.87,81.8 1.3,-34.04 -1.87,-68.08 -7.14,-101.66 -1.35,-9.71 -3.53,-19.55 -9.18,-27.74 -11.46,-17.13 -27.16,-30.89 -43.17,-43.66 -20.23,16.76 -33.49,40.49 -40.63,65.51 -21.74,-23.49 -54.98,-32.87 -86.24,-31.43 -49.2,2.33 -97.97,10.2 -146.29,19.57 -33.17,7.14 -67.08,13.56 -97.97,28.17 77.22,-9.34 154.9,-17.8 232.81,-15.92 18.68,1.08 37.81,1.64 55.84,7.09 10.77,14.41 23.79,28.54 41.67,33.74 16.38,5.97 33.85,1.98 49.9,-2.89 -16.31,15.57 -37.19,25.26 -58.35,32.35 -18.83,6.02 -38.37,10.57 -58.22,10.94 -18.5,0.26 -36.82,-2.8 -55.13,-4.88 -21.05,-2.76 -42.3,-3.81 -63.29,-6.9 -43.63,-6.12 -87.46,-13.76 -131.68,-11.45 -30.67,1.18 -61.04,7.03 -90.29,16.22 17.27,-32.05 37.36,-63.24 63.78,-88.57 15.44,-15.07 35.59,-24.39 56.6,-28.68 41.63,-8.78 85.16,-10.4 124.82,-27.08 7.88,-3.9 17.89,-5.78 22.98,-13.58zm51.27 625.26c2.89,-1.23 6.92,-0.21 9.1,2.05 -0.95,3.61 -9.38,1.47 -9.1,-2.05zm-435.97 -22.17c1.42,0.07 4.25,0.17 5.67,0.24 3.32,7.18 7.01,14.17 10.31,21.35 3.6,6.93 2.27,14.95 2.4,22.46 -4.88,2.48 -9.73,5.07 -14.54,7.65 4.89,-4.83 12.81,-9.72 11.36,-17.68 -2.93,-12.17 -9.94,-22.8 -15.2,-34.02zm-647.42 -19.3c8.71,0 16.61,-3.93 23.08,-9.5 0.04,1.64 0.1,4.94 0.13,6.6 -5.22,2.83 -10.59,6.22 -16.76,6.07 -23.67,0.25 -47.31,-0.13 -70.97,0.15 -0.04,-0.8 -0.11,-2.42 -0.15,-3.22 21.55,-0.04 43.12,0.35 64.67,-0.1zm1245.53 -31.82c1.59,3.04 4.05,5.95 3.99,9.58 0.41,16.63 -0.35,33.26 0.32,49.87 -1.55,-1.77 -3.1,-3.54 -4.63,-5.29 0.08,-18.05 -0.5,-36.13 0.32,-54.16zm86.17 -1.77c3.93,4.55 9.36,9.02 9.19,15.62 1.51,13.56 -9.58,25.02 -21.61,29.18 -19.93,6.21 -42.69,-1.36 -55.85,-17.36 13.57,11.6 32.14,17.64 49.87,14.21 9.32,-2.2 18.51,-8.02 22,-17.32 2.68,-8.26 -0.32,-16.74 -3.6,-24.33zm-1592.25 -10.63c20.6,28.45 39.91,57.83 60.18,86.49 -1.48,-0.04 -4.48,-0.15 -5.99,-0.21 -16.78,-24.85 -34.08,-49.38 -51.19,-73.99 -2.72,-3.54 -2.52,-8.11 -3,-12.29zm142.73 -3.22c1.19,0 3.54,0.05 4.73,0.05 -0.31,40.53 -0.18,81.08 -0.07,121.61 -1.57,1.59 -3.13,3.23 -4.68,4.87 0.28,-42.19 0.22,-84.36 0.02,-126.53zm518.13 -0.45c-0.36,-3.54 1.34,-6.69 3.33,-9.45 2.6,19.57 0.53,39.41 1.18,59.1 -0.82,14.26 3.9,31.56 -8.41,42.28 -5.09,-0.17 -10.16,-0.19 -15.23,-0.15 8.63,-1.38 18.33,-6.19 18.66,-16.16 1.27,-25.17 0.19,-50.43 0.47,-75.62zm432.87 -13.24c8.17,12.27 14.04,25.86 21.09,38.76 8.2,15.46 16.33,30.99 24.4,46.54 4.12,8.16 10.4,15.99 9.47,25.72 -6.73,-8.93 -10.85,-19.37 -16.22,-29.08 -12.1,-22.5 -23.54,-45.36 -35.79,-67.77 -2.74,-4.25 -2.95,-9.3 -2.95,-14.17zm-243.66 -43.9c2.46,2.7 4.79,5.59 6.39,8.93 11.75,24.53 24.48,48.56 36.17,73.12 -26.44,-0.08 -52.87,-0.17 -79.31,0.05 0.82,-1.56 1.64,-3.11 2.46,-4.64 23.16,0.17 46.31,0.04 69.47,0.09 -10.95,-21.47 -21.18,-43.3 -32.29,-64.65 -2.28,-3.93 -2.89,-8.46 -2.89,-12.9zm-587.37 12.25c9.67,-0.19 17.39,-6.36 22.46,-14.13 2.31,10.98 -8.76,17.5 -18.29,17.33 -23.6,0.25 -47.22,-0.16 -70.82,0.17 -0.04,-0.82 -0.13,-2.44 -0.15,-3.24 22.26,-0.04 44.54,0.39 66.8,-0.13zm-148.25 56.37c0.07,-24.38 -0.28,-48.75 0.2,-73.1 4.33,9.12 4.77,19.26 4.27,29.18 -0.76,14.67 2.57,30.26 -4.47,43.92zm1448.66 -74.38c21.68,14.41 46.01,25.15 65.38,42.82 -17.17,-8.28 -33.82,-17.58 -49.85,-27.93 -6.02,-4.02 -10.81,-9.49 -15.53,-14.89zm-1104.19 -10.83c13.16,13.05 21.42,31.37 21.08,50.05 1.42,29.42 -17.43,57.11 -42.62,71.05 -16.05,9.55 -35.08,10.98 -53.32,10.29 0.13,-1.15 0.34,-3.41 0.47,-4.56 16.29,0.54 33.22,-0.25 47.93,-8.08 26.77,-13.4 45.32,-43.01 43.03,-73.28 0.39,-16.73 -7.33,-32.03 -16.57,-45.47zm-418.3 -25.28c3.93,4.56 8.24,8.98 10.72,14.56 5.28,15.97 -0.56,34.73 -14.84,43.98 -10.74,8.4 -24.96,8.16 -37.83,7.08 4.09,-5.67 11.43,-3.62 17.4,-4.31 16.61,-1.02 30.48,-15.04 33.05,-31.19 2.52,-10.88 -3.02,-21.19 -8.5,-30.12zm986.2 -33.26c5.28,3.95 10.33,8.52 13.16,14.65 9.38,18.55 20.01,36.52 28.77,55.35 -7.36,17.58 -17.19,34.1 -25.35,51.36 -1.98,4.35 -4.35,8.65 -8.06,11.77 -0.15,-9.01 5.26,-16.48 8.99,-24.24 6.45,-13.09 13.44,-25.89 19.8,-39.02 -12.79,-23.12 -24.76,-46.66 -37.31,-69.87zm-115.34 0.05c11.78,8.75 16.48,23.14 23.41,35.48 33.39,62.72 65.87,125.92 99.65,188.43 -1.01,1.84 -2.03,3.69 -3.02,5.55 -39.43,-76.79 -80.84,-152.57 -120.04,-229.46zm-251.26 -0.22c2.63,4.9 5.26,10.07 5.06,15.81 0.33,24.74 -0.13,49.46 0.18,74.2 -22.39,0.17 -44.78,-0.24 -67.15,0.22 -0.37,-1.17 -1.1,-3.54 -1.47,-4.71 21.36,0.2 42.71,-0.06 64.09,0.16 -0.28,-28.56 0.67,-57.14 -0.71,-85.68zm-118.68 -0.04c6.1,6.68 6.49,16.05 6.62,24.63 -0.07,58.95 -0.04,117.9 0,176.85 -0.09,7.98 -1.81,16.98 -8.3,22.3 -5.55,0.83 -11.18,0.52 -16.76,0.65 10.03,-1.33 20.23,-7.18 20.25,-18.55 0.84,-61.84 -0.04,-123.77 0.43,-185.65 0.19,-6.84 -1.12,-13.55 -2.24,-20.23zm-211.47 0.13c3.1,4.74 5.8,10.01 5.28,15.87 -0.02,63.25 0.04,126.49 -0.02,189.73 0.37,7.27 -3.54,13.63 -8.31,18.75 -5.06,-0.24 -10.13,-0.35 -15.18,-0.41 6.47,-1.6 14.39,-3.09 17.15,-10.08 2.89,-8.86 3.1,-18.4 3.34,-27.63 -0.11,-37.34 -0.02,-74.67 -0.04,-112.01 -0.22,-24.76 1.08,-49.61 -2.22,-74.22zm-383.69 -0.02c2.68,4.93 5.48,10.11 5.03,15.94 -0.07,63.26 0.11,126.55 -0.07,189.81 0.3,7.14 -3.66,13.29 -8.24,18.42 -5.2,-0.04 -10.39,0.07 -15.61,0.22 7.16,-2.05 15.96,-4.08 18.37,-12.21 2.18,-10.68 0.74,-21.68 1.1,-32.46 -0.34,-59.9 0.74,-119.85 -0.58,-179.72zm1339.73 15.72c-0.07,-5.89 -1.27,-11.65 -2.26,-17.41 3.21,5.33 7,10.92 6.64,17.48 0.02,63.32 0.04,126.65 0,189.98 0.43,7.16 -4.21,12.97 -8.26,18.34 -5.63,-0.03 -11.24,0.06 -16.85,0.17 4.75,-1.38 9.86,-2.07 14.15,-4.7 5.65,-4.21 6.62,-11.76 6.58,-18.29 -0.07,-61.87 -0.07,-123.73 0,-185.57zm-77.61 -16.85c5.65,5.59 6.26,14.22 2.33,20.99 -14.17,28.11 -28.86,55.97 -43.03,84.08 -5.42,9.88 -9.3,20.67 -16.37,29.57 -0.59,-3.17 -1.3,-6.58 0.71,-9.42 18.46,-35.42 36.47,-71.12 54.7,-106.67 3.17,-5.73 1.96,-12.36 1.66,-18.55zm189.9 -7.48c21.46,-0.09 42.95,0.41 64.39,-0.78 -5.74,2.57 -11.54,5.74 -18.06,5.29 -14.58,-0.07 -29.18,0.02 -43.76,-0.22 -21.14,20.17 -41.24,41.42 -62.27,61.71 0.82,-4.03 1.1,-8.56 4.61,-11.3 18.51,-18.08 36.5,-36.71 55.09,-54.7zm-202.6 -0.22c52.89,-0.51 105.8,0.2 158.69,-0.36 -7.81,2.46 -15.73,5.28 -24.06,4.74 -40.37,-0.49 -80.69,-0.17 -121.07,-0.04 -5,0.52 -9.38,-2.03 -13.56,-4.34zm-91.78 0.31c20.88,-0.16 41.73,0 62.61,-0.5 -4.85,2.16 -9.66,5.07 -15.14,4.87 -14.02,0.09 -28.04,0 -42.04,-0.17 -5.52,9.56 -10.09,19.59 -15.1,29.4 -0.97,-3.32 -4.03,-6.77 -1.96,-10.22 3.58,-7.94 8.11,-15.43 11.63,-23.38zm-91.46 -0.52c20.66,0.47 41.31,0.54 61.97,0.36 1.08,1.51 2.16,3.05 3.26,4.6 -16.53,-0.26 -33.05,0.09 -49.57,-0.11 -5.65,0.2 -10.7,-2.54 -15.66,-4.85zm-120.21 -0.11c30.5,0.54 61.02,-0.35 91.5,0.45 -4.27,2.18 -8.67,4.62 -13.63,4.19 -18.75,-0.05 -37.49,-0.07 -56.21,0.02 -7.51,0.11 -14.54,-2.76 -21.66,-4.66zm-250.64 -0.15c29.12,0.47 58.24,0.54 87.34,-0.04 -7.19,2.3 -14.44,5.17 -22.14,4.87 -15.07,-0.13 -30.17,-0.06 -45.25,-0.02 -6.99,0.24 -13.46,-2.63 -19.95,-4.81zm-118.46 0.02c29.66,0.47 59.34,0.43 88.99,0.02 -9.81,3.3 -19.99,5.72 -30.43,4.77 -19.52,-1.21 -39.99,3.23 -58.56,-4.79zm-211.45 0.02c30.37,0.22 60.74,-0.34 91.11,-0.17 31.04,-1.08 61.65,12.36 83.71,33.89 -20.17,-16.27 -44.54,-28.63 -70.88,-29.34 -27.37,-0.11 -54.74,-0.3 -82.09,0.43 -7.62,0.43 -14.78,-2.43 -21.85,-4.81zm-384.23 -0.02c29.73,0.88 59.43,-0.32 89.15,-0.15 20.71,-1.34 41.48,6.38 56.26,20.94 -10.66,-6.94 -21.75,-14.1 -34.67,-15.59 -19.32,-2.07 -38.76,0.04 -58.13,-0.48 -17.58,-0.75 -36,2.74 -52.61,-4.72zm1603.49 10.2c18.4,-13.39 42.66,-15.42 64.6,-12.27 10.24,0.99 20.1,4.57 28.97,9.77 -18.57,-4.42 -37.73,-9.3 -56.9,-5.95 -17.76,2.18 -35.9,9.77 -46.12,25.13 -16.46,24.63 -13.09,58.49 2.78,82.57 -26.12,-26.73 -23.73,-76.66 6.67,-99.25zm-684.63 -17.99c0.77,2.55 3.08,5.2 1.31,7.88 -37.2,69.86 -74.54,139.71 -111.77,209.59 -4.42,8.28 -11.89,18.72 -22.76,14.63 6.88,-3.95 14.5,-7.79 17.97,-15.43 38.39,-72.23 77.09,-144.32 115.25,-216.67zm-562.85 -6.19c0,4.23 0.03,8.46 0.09,12.73 -5.09,3.24 -10.42,6.84 -16.78,6.34 -39.8,0.04 -79.62,0.04 -119.41,-0.02 -0.31,31.71 -0.26,63.41 -0.02,95.1 -8.37,0.04 -17.58,0.91 -24.14,-5.41 6.54,0.9 13.03,2 19.56,2.78 -0.15,-31.86 0.2,-63.7 -0.17,-95.55 35.66,0.17 71.31,-0.05 106.99,0.1 8.5,-0.17 17.27,-0.56 25.32,-3.6 5.33,-1.88 6.49,-7.96 8.56,-12.47z"/>
  </g>
 </g>
</svg>
