<?xml version="1.0" encoding="UTF-8"?>
<!DOCTYPE svg PUBLIC "-//W3C//DTD SVG 1.1//EN" "http://www.w3.org/Graphics/SVG/1.1/DTD/svg11.dtd">
<!-- Creator: CorelDRAW -->
<svg xmlns="http://www.w3.org/2000/svg" xml:space="preserve" width="2000px" height="1600px" version="1.1" style="shape-rendering:geometricPrecision; text-rendering:geometricPrecision; image-rendering:optimizeQuality; fill-rule:evenodd; clip-rule:evenodd"
viewBox="0 0 2000 1600"
 xmlns:xlink="http://www.w3.org/1999/xlink">
 <defs>
  <style type="text/css">
   <![CDATA[
    .fil1 {fill:black;fill-rule:nonzero}
    .fil0 {fill:#CE143E;fill-rule:nonzero}
   ]]>
  </style>
 </defs>
 <g id="Capa_x0020_1">
  <metadata id="CorelCorpID_0Corel-Layer"/>
  <g id="Seattle_x0020_Redhawks.cdr">
   <path class="fil0" d="M156.36 602.06l72.15 0c16.65,2.08 33.61,8.31 44.33,21.86 17.25,20.58 18.91,48.9 17.75,74.57 -20.94,10.78 -41.69,21.96 -62.59,32.81 -0.06,-18.05 0.01,-36.11 -0.02,-54.16 0.1,-5.53 -2,-13.24 -8.55,-13.87 -13.07,-0.46 -26.18,-0.14 -39.26,-0.17 -7.29,-0.31 -13.64,5.2 -15.84,11.87 -2.83,9 -1.23,18.57 -1.62,27.83 -0.21,11.61 3.29,23.33 10.9,32.24 13.43,15.99 29.35,29.62 43.94,44.52 18.33,18.67 38.07,36.29 52.83,58.08 8.96,13.14 15.14,28.19 17.6,43.93 2.81,15.88 1.57,32.04 1.91,48.07 -0.31,24.57 -11.45,51.94 -35.27,62.21 -9.42,4.29 -19.93,5.33 -30.17,5.28 -21.01,-0.09 -42.01,0 -63,-0.06 -15.05,-0.07 -30.65,-4.83 -41.42,-15.71 -12.93,-12.85 -18.26,-31.23 -20.03,-48.91l0 -64.6c20.92,0.03 41.84,-0.14 62.76,0.08 -0.08,18.86 -0.08,37.71 -0.02,56.57 -0.18,5.14 3.01,11.67 8.89,11.54 12.56,0.1 25.14,0.06 37.7,0.01 9.4,0 15.78,-9.69 15.65,-18.41 0.01,-13.55 1.11,-27.64 -4.3,-40.42 -8.11,-19.92 -24.97,-34.17 -40.12,-48.67 -15.09,-13.91 -29.27,-28.75 -43.29,-43.72 -18.86,-20.54 -35.39,-45.47 -37.27,-74.07l0 -38.31c1.88,-20.96 8.21,-43.28 24.74,-57.44 8.76,-7.82 20.31,-11.02 31.62,-12.95zm1233.65 0l199.54 0c0.26,20.34 0.14,40.7 0.07,61.05 -40.22,-0.06 -80.44,-0.08 -120.66,0 0.09,35.14 -0.15,70.27 0.12,105.41 29.88,-0.05 59.76,-0.33 89.64,0.13 -0.36,20.67 -0.12,41.33 -0.12,62 -29.9,0.17 -59.78,-0.02 -89.65,0.1 0.05,35.12 0,70.22 0.01,105.34 40.24,0 80.48,-0.02 120.71,0 0.04,20.34 0.02,40.66 0.02,60.98 -66.89,0.04 -133.76,0.02 -200.66,0.02 5.26,-10.05 12.44,-19.26 16.68,-29.71 0.24,-111.56 0.12,-223.16 0.05,-334.74 -3.28,-10.99 -12.43,-19.51 -15.75,-30.58zm-218.17 0l79.59 0c-0.03,111.34 -0.09,222.68 0.02,334.03 38.68,0.05 77.37,-0.14 116.05,0.1 -0.07,20.25 -0.19,40.49 0.05,60.75 -59.6,0.36 -119.24,0.06 -178.86,0.13 -0.07,-121.46 0.12,-242.94 -0.09,-364.4 -4.01,-10.83 -11.94,-20.02 -16.76,-30.61zm-212.85 0l191.16 0c0.23,20.37 0.23,40.75 0,61.1 -21.41,-0.22 -42.84,-0.05 -64.26,-0.08 0.05,101.39 -0.17,202.82 0.1,304.2 4.2,10.49 11.42,19.73 16.68,29.81 -32.15,0 -64.28,0.04 -96.4,-0.03 4.78,-8.98 10.27,-17.55 15.29,-26.4 2.03,-3.64 0.96,-8 1.2,-11.96 -0.02,-98.51 -0.09,-197.03 0.03,-295.54 -21.35,-0.24 -42.7,-0.01 -64.04,-0.1 0.13,-20.34 -0.31,-40.68 0.24,-61zm-215.27 0l191.09 0c0.08,20.34 0.07,40.68 0.01,61 -21.45,0 -42.9,0 -64.36,0 -0.09,100.25 0.05,200.49 -0.07,300.74 -0.09,2.63 0.32,5.31 1.89,7.52 4.56,7.99 9.73,15.65 13.86,23.86 -0.09,0.7 -0.26,2.08 -0.34,2.76l-94.74 0c4.25,-10.92 12.51,-19.93 16.57,-30.83 0.32,-101.26 -0.14,-202.55 0.22,-303.83 -21.48,-0.49 -43,-0.1 -64.5,-0.18 0.17,-20.34 -0.55,-40.72 0.37,-61.04zm-135.71 0l73.45 0c-0.79,3.38 0.78,6.74 1.26,10.07 21.24,117.79 42.57,235.55 63.84,353.32 3.56,11.74 13.34,20.72 16.79,32.49l-76.02 0c-1.06,-12.21 0.88,-24.59 -1.56,-36.68 -1.84,-10.09 -3.48,-20.21 -5.37,-30.28 -24.03,-0.03 -48.07,-0.01 -72.11,-0.01 -2.09,11.24 -3.93,22.54 -5.96,33.8 -1.91,10.97 0.82,22.29 -1.59,33.17l-75.88 0c5.17,-13.54 17.27,-24.18 18.58,-39.12 21.52,-118.92 42.68,-237.91 64.57,-356.76zm36.2 110.96l0 0c-8.04,52.03 -16.28,104.03 -24.29,156.07 16.28,0 32.58,0.07 48.86,-0.03 -8.26,-52 -15.85,-104.14 -24.57,-156.04zm-339.43 -110.96l200.35 0c0.45,20.24 -0.22,40.49 0.36,60.71 -40.3,0.69 -80.63,0.09 -120.93,0.31 -0.04,35.12 -0.02,70.22 -0.02,105.34 29.9,0.13 59.78,-0.17 89.66,0.13 -0.16,20.72 -0.02,41.43 -0.07,62.15 -29.86,0.03 -59.73,0 -89.57,0.03 0.03,35.14 -0.12,70.27 0.07,105.41 40.22,-0.12 80.42,-0.04 120.62,-0.05 0.04,20.34 0.02,40.66 0,61 -66.87,0.02 -133.74,-0.03 -200.62,0.02 5.14,-10.19 12.58,-19.37 16.71,-29.93 0.17,-110.92 -0.02,-221.85 0.1,-332.79 0.12,-2.25 -0.48,-4.45 -1.69,-6.34 -5,-8.65 -10.39,-17.1 -14.97,-25.99z"/>
   <path class="fil1" d="M1609.04 602.06l84.31 0c0,101.85 0,203.69 0.02,305.55 0.09,6.24 -0.37,12.54 0.31,18.77 0.34,2.69 2.05,6.11 5.32,5.76 36.33,0.23 72.68,0.04 109.03,0.11 6.94,0.9 7.57,-7.89 7.74,-12.83 0.04,-105.79 0,-211.58 0.02,-317.36l84.21 0c-5.46,5.41 -10.78,10.94 -16.31,16.26 -0.17,103.22 0.02,206.44 -0.1,309.64 -0.43,21.64 -9.2,43.93 -26.32,57.73 -8.8,7.17 -19.91,10.86 -31.05,12.25l-143.63 0c-10.74,-1.46 -21.38,-4.96 -29.98,-11.67 -16.13,-12.63 -25.45,-32.88 -26.66,-53.08 -0.01,-104.74 -0.01,-209.48 0.02,-314.22 -5.65,-5.65 -11.21,-11.37 -16.93,-16.91z"/>
  </g>
 </g>
</svg>
