<?xml version="1.0" encoding="UTF-8"?>
<!DOCTYPE svg PUBLIC "-//W3C//DTD SVG 1.1//EN" "http://www.w3.org/Graphics/SVG/1.1/DTD/svg11.dtd">
<!-- Creator: CorelDRAW -->
<svg xmlns="http://www.w3.org/2000/svg" xml:space="preserve" width="2000px" height="1600px" version="1.1" style="shape-rendering:geometricPrecision; text-rendering:geometricPrecision; image-rendering:optimizeQuality; fill-rule:evenodd; clip-rule:evenodd"
viewBox="0 0 2000 1600"
 xmlns:xlink="http://www.w3.org/1999/xlink">
 <defs>
  <style type="text/css">
   <![CDATA[
    .fil1 {fill:black;fill-rule:nonzero}
    .fil2 {fill:#6C5224;fill-rule:nonzero}
    .fil3 {fill:#A7855F;fill-rule:nonzero}
    .fil4 {fill:#CFAB79;fill-rule:nonzero}
    .fil5 {fill:#ED2C23;fill-rule:nonzero}
    .fil0 {fill:#FEFEFE;fill-rule:nonzero}
   ]]>
  </style>
 </defs>
 <g id="Capa_x0020_1">
  <metadata id="CorelCorpID_0Corel-Layer"/>
  <g id="SIU_x0020_Edwardsville_x0020_Cougars.cdr">
   <path class="fil0" d="M1225.14 426.69c36.1,18.81 71.6,39.61 102.44,66.39 -18.63,8.46 -39.85,14.37 -60.23,9.26 -31.81,-7.54 -51.42,-44.94 -42.21,-75.65zm674.86 275.39l-2.09 -24.77c-48.18,24.96 -95.79,51.1 -143.92,76.15 -12.66,-4.3 -24.75,-10.27 -37.18,-15.19 -67.71,-28.6 -135.73,-56.57 -203.25,-85.6 -0.15,-0.32 -0.51,-0.95 -0.66,-1.27 -11.98,-2.08 -22.63,-8.85 -33.98,-13.05 0.86,2.35 1.98,4.6 3.46,6.67 11.24,16.38 22.22,32.96 33.27,49.48 26.03,7.63 51.47,17.1 76.85,26.63 52.42,20.01 104.06,42.06 155.28,65 2.23,1.62 4.6,0.63 6.69,-0.68 47.16,-27.14 94.49,-54.01 141.67,-81.09 0.97,-0.58 2.9,-1.72 3.86,-2.28z"/>
   <path class="fil1" d="M619.94 305.8c177.05,-46.78 362.49,-62.41 544.76,-44.04 155.18,15.55 307.92,55.09 451.35,116.31 62.11,26.75 122.86,57.09 179.9,93.49 8.19,4.65 10.14,16.1 4.63,23.58 -8.56,11.52 -17.82,22.5 -26.63,33.85 32.02,26.31 59.8,57.43 85.04,90.19 13.86,18.74 27.82,37.63 38.92,58.13 -48.18,24.96 -95.79,51.1 -143.92,76.15 -12.66,-4.3 -24.75,-10.27 -37.18,-15.19 -67.71,-28.6 -135.73,-56.57 -203.25,-85.6 -0.15,-0.32 -0.51,-0.95 -0.66,-1.27 -15.02,-28.39 -33.35,-55.06 -53.78,-79.84 -17.88,-20.79 -37.87,-41.12 -63.38,-52.25 -11.59,-5.27 -24.66,-6.48 -37.17,-4.65 -6.24,1.24 -12.7,4.52 -15.36,10.65 -3.18,7.17 -1.12,15.22 1.3,22.27 6.14,16.49 16.38,31.07 27.03,44.92 2.87,3.98 6.73,7.32 8.78,11.86 -60.37,-32.12 -128.95,-44.66 -196.43,-50.67 -85.72,-6.42 -172.09,-1.85 -257.03,10.98 -2.12,-0.37 -7.87,3.71 -6.66,-0.6 1.56,-0.09 4.68,-0.26 6.24,-0.35 41.84,-10.68 83.41,-22.47 124.1,-36.91 23.68,-8.54 47.26,-17.73 69.34,-29.87 12.3,-7.05 25.01,-14.73 33.17,-26.64 5.7,-8.21 4,-19.58 -2.1,-27.05 -9.2,-11.3 -23.12,-17.14 -36.51,-21.82 -33.59,-10.96 -69.02,-14.51 -104.07,-17.09 -7.55,-0.29 -15.11,-0.7 -22.67,-0.52 16.9,-3.98 34.31,-5.6 51.55,-7.56 54.02,-5.72 108.66,-6.32 162.74,-0.86 -2.63,-2.9 -6.49,-4.02 -9.84,-5.77 -62.96,-31.94 -130.33,-55.04 -199.46,-69.2 -118.25,-24.35 -241.04,-22.64 -359.56,-1.12 -33.36,6.33 -66.66,13.5 -99.09,23.61 -19.77,5.68 -39.22,12.38 -58.67,19.06 6.66,-0.33 12.91,-2.89 19.38,-4.35 66.78,-16.85 136.36,-21.57 204.95,-16.34 85.07,6.75 169.21,26.68 248.04,59.44 2.59,1.04 5.15,2.26 7.22,4.19 -42.99,6.79 -85.52,16.4 -127.78,26.91 -51.64,13.07 -102.63,28.8 -152.37,47.9 -7.42,2.79 -14.69,5.99 -22.26,8.37 -153.9,48.15 -295.28,131.77 -418.17,235.48 -43.49,36.94 -84.95,76.39 -122.91,119.02 -3.84,4.22 -7.07,9.05 -11.47,12.77l0 -2.84c2.72,-1.88 4.35,-4.79 5.89,-7.63 73.6,-132.84 177.97,-248.8 303.86,-333.96 55.04,-36.99 113.73,-69.27 176.39,-91.39 -1.58,-1.16 -3.4,-1.8 -5.28,-2.24 -62.96,-17.63 -128.56,-24.1 -193.74,-25.65 1,-1.4 2.28,-2.44 3.88,-3.1 73.25,-35.29 150.48,-61.75 228.94,-82.76zm877.49 910.57c14.78,0.1 29.57,-0.02 44.37,0.04 10.7,0.47 22.42,2.45 30.28,10.43 7.59,8.11 9,20.12 7.29,30.7 -2.22,12.45 -11.66,22.64 -22.95,27.8 11.85,19.15 23.53,38.41 35.53,57.5 -9.15,0.26 -18.29,0.17 -27.41,0.03 -10.28,-17.96 -20.95,-35.67 -31.16,-53.67 -4.36,-0.19 -8.71,-0.19 -13.06,0.14 0.24,17.86 -0.04,35.71 0.15,53.57 -7.68,0.14 -15.34,0.03 -23.01,0.07 -0.03,-42.2 0.02,-84.41 -0.03,-126.61zm23.01 18.42l0 0c-0.09,11.73 0.05,23.48 -0.11,35.24 0.48,0.38 1.42,1.15 1.9,1.56 8.01,0.03 16.52,0.56 23.96,-2.97 13.33,-5.66 13,-30.18 -1.88,-33.5 -7.93,-0.89 -15.92,-0.32 -23.87,-0.33zm-253.38 108.03c16.93,-42.03 32.37,-84.7 49.56,-126.59 7.94,0.37 15.91,0.05 23.87,0.23 15.44,42.18 31.13,84.3 46.82,126.4 -8.2,0.19 -16.39,0.17 -24.58,0.01 -3.75,-11.26 -8.31,-22.24 -12.01,-33.52 -16,-0.3 -32,0.06 -47.99,-0.17 -4.13,11.21 -8.28,22.38 -12.2,33.66 -7.82,0.21 -15.66,0.24 -23.47,-0.02zm59.31 -97.37l0 0c-5.96,15.37 -11.35,30.98 -17.31,46.36 11.96,0.07 23.96,0.41 35.92,-0.16 -5.98,-15.48 -11.54,-31.13 -16.96,-46.81l-1.65 0.61zm-498.91 -29.08c7.67,0.12 15.33,-0.12 23.01,0.16 -0.14,26.41 -0.05,52.85 -0.05,79.28 0.58,9.81 2.05,21.44 10.95,27.38 9.61,5.7 22.03,5.72 32.22,1.6 9.75,-4.33 12.86,-15.63 13.56,-25.36 0.63,-27.74 -0.6,-55.59 0.6,-83.29 7.48,0.51 15.01,0.18 22.52,0.25 0,27.1 0.05,54.2 -0.02,81.32 -0.63,12.99 -3.11,27.29 -13.17,36.52 -10.76,9.77 -26.12,11.64 -40.07,11.26 -13.68,0.08 -28.8,-2.81 -38.39,-13.37 -8.46,-9.33 -10.49,-22.33 -11.14,-34.43 -0.02,-27.12 0.02,-54.22 -0.02,-81.32zm875 18.82c5.08,-12.1 17.71,-19.63 30.41,-21.1 9.39,-0.65 19.28,-0.93 28.07,2.95 7.93,3.15 14.75,9.35 18.12,17.26 -6.11,3.79 -12.21,7.54 -18.17,11.54 -2.93,-6.91 -8.37,-13.42 -16.09,-14.84 -9.89,-2.84 -21.77,5.17 -21.43,15.75 -0.56,6.23 4.03,11.35 8.94,14.49 13.11,8.21 29.49,11.38 40.28,23.12 10.26,11.03 10.2,28.66 2.87,41.25 -6.01,10.93 -17.84,17.65 -29.97,19.33 -19.81,3.25 -44.05,-3.19 -52.7,-23.05 6.46,-3.89 12.6,-8.49 19.46,-11.59 3.86,12.66 18.41,20.94 31.17,16.35 12.5,-2.65 16.71,-20.84 6.98,-28.87 -12.33,-10.05 -29.24,-12.79 -40.7,-24.16 -10.47,-9.5 -12.28,-25.73 -7.24,-38.43zm-603.4 -20.57c10.59,-1.16 21.54,-1.64 32.01,0.78 13.12,3.02 24.74,11.44 31.54,23.07 -6.02,4.53 -12.91,7.74 -19.31,11.7 -8.68,-21.77 -40.22,-24.28 -55.94,-9.03 -10.96,10.31 -14.08,26.17 -14.14,40.64 0.2,14.14 3.88,29.92 16.09,38.59 13.94,9.44 32.4,8.94 47.9,3.95 0.05,-9.2 -0.05,-18.39 0.07,-27.58 -10.01,0 -20.01,-0.05 -30.03,0.04 0,-5.95 0.02,-11.88 0,-17.81 17.61,0.21 35.26,-0.38 52.85,0.3 -0.35,19.66 -0.07,39.34 -0.16,59.03 -22.71,6.47 -47.27,10.31 -70.51,4.38 -17.14,-4.33 -31.73,-17.49 -36.94,-34.52 -6.35,-21.12 -5.82,-45.24 4.75,-64.94 8.34,-15.61 24.63,-25.69 41.82,-28.6zm-468.26 0.29c17.31,-2.45 36.22,-2.08 51.57,7.28 13.83,8.26 22.64,23.21 25.41,38.87 3.67,19.25 2.23,40.33 -7.56,57.64 -8.22,14.74 -24.1,24.08 -40.66,26.05 -17.4,2.21 -36.45,0.47 -51.15,-9.93 -13.75,-9.59 -21.08,-26.01 -23.17,-42.25 -1.89,-18.44 -0.45,-38.24 9.88,-54.19 7.84,-12.54 21.31,-20.71 35.68,-23.47zm3.17 18.88l0 0c-13.38,4.91 -21.21,18.63 -23.35,32.13 -2.78,16.51 -1.29,35.03 9.02,48.82 12.33,16.52 40.05,17.36 53.31,1.59 9.4,-10.75 12.15,-25.83 11.77,-39.73 -0.79,-12.54 -3.85,-25.82 -12.86,-35.1 -9.53,-9.98 -25.22,-12.41 -37.89,-7.71zm-227.06 -15.96c12.77,-4.85 26.82,-4.83 40.18,-3.16 14,2.6 28.3,11.05 33.31,24.92 -5.38,4.79 -12.59,7.83 -18.78,11.79 -2.18,-6.59 -6.35,-12.7 -12.62,-15.96 -14.89,-7.54 -35.27,-4.37 -45.78,9.1 -8.49,10.4 -10.64,24.33 -10.77,37.38 0.39,11.46 2.39,23.58 9.74,32.78 8.68,11.28 24.52,14.97 37.94,11.92 9.73,-2.02 17.73,-9.51 21.31,-18.67 6.56,3.18 12.52,7.42 18.98,10.82 -4.31,12.74 -17.22,20.74 -29.57,24.51 -17.4,4.16 -36.49,3.12 -52.8,-4.51 -13.23,-6.16 -22.94,-18.45 -26.91,-32.38 -5.22,-18.28 -5.16,-38.43 1.77,-56.25 5.9,-15.09 18.72,-27.05 34,-32.29zm328.36 -322.26c15.33,-0.25 30.66,-0.02 45.99,-0.11 -0.12,52.17 0,104.34 -0.05,156.52 0.19,18.19 2.63,38.29 15.54,52.23 12.05,12.74 30.34,16.07 47.11,16.86 16.74,0.35 34.47,-0.79 49.24,-9.45 10.93,-6.37 18.15,-17.75 21.29,-29.82 3.69,-14.3 3.9,-29.17 3.72,-43.84 0.14,-47.53 -0.26,-95.08 0.21,-142.6 15.17,0.17 30.35,0.19 45.52,0 0.32,51.04 0.07,102.1 0.12,153.16 -0.21,25.75 -2.98,53.45 -18.96,74.71 -14.7,19.66 -39.22,28.77 -62.76,32.08 -27.33,3.67 -55.46,3.25 -82.3,-3.44 -21.54,-5.49 -42.1,-18.54 -52.27,-38.85 -13.73,-26.24 -12.4,-56.74 -12.33,-85.47 -0.05,-44 0.1,-87.99 -0.07,-131.98zm-111.12 -0.05c15.42,-0.09 30.82,-0.06 46.23,-0.02 -0.01,85.04 -0.01,170.07 0,255.11 -1.31,2.77 -5.05,1.19 -7.41,1.63 -10.53,0.23 -21.04,-0.8 -31.54,0.02 -2.25,-0.4 -6.04,0.65 -7.28,-1.65 0,-85.04 0.02,-170.06 0,-255.09zm-207.59 11.56c22.08,-15.39 50.27,-18.72 76.49,-16.44 21.15,1.81 42.97,8.75 58.11,24.28 4.79,4.89 9.39,10.42 11.53,17.03 -13.51,7.37 -26.77,15.19 -40.07,22.92 -6,-14.01 -18.56,-25.27 -33.5,-28.8 -12.35,-3.35 -25.96,-2.12 -37.22,4.05 -8.42,4.46 -15.45,12.37 -17.09,21.97 -2.17,9.59 1.79,19.76 9.02,26.2 8.6,7.7 19.33,12.4 29.87,16.77 21.51,8.79 44.19,15.58 63.53,28.84 11.6,8 21.74,18.94 26.23,32.52 9.47,27.97 -0.81,61.11 -23.88,79.37 -13.31,10.89 -29.97,16.96 -46.81,19.7 -22.59,3.52 -46.05,2.77 -68.06,-3.62 -21.85,-6.61 -42.74,-20.69 -52.66,-41.81l0.57 -1.3c13.89,-7.75 27.55,-16.03 41.76,-23.19 7.42,18.45 25.4,32.03 45.04,34.69 13.9,1.99 29.02,0.93 41.35,-6.27 15.59,-9.04 21.52,-32.33 10.45,-47 -9.05,-11.49 -22.94,-17.38 -35.97,-23.08 -23.53,-10.07 -48.96,-17.98 -68.24,-35.54 -12.89,-11.47 -20.36,-28.55 -19.91,-45.81 -0.7,-22.03 11.42,-43.22 29.46,-55.48zm421.81 -219.33c156.78,-27.61 317.56,-30.64 475.56,-12.07 38.96,4.33 77.6,10.95 116.28,17.24 10.14,1.58 19.03,6.84 28.26,11.02 46.36,22.06 90.47,49.24 129.68,82.49 43.29,36.94 81.24,81.64 104.2,134.13 -3.17,-12.78 -8.54,-24.87 -13.5,-37.02 -33.28,-77.66 -90.18,-145.96 -163.2,-189.04 26.03,7.63 51.47,17.1 76.85,26.63 52.42,20.01 104.06,42.06 155.28,65 2.23,1.62 4.6,0.63 6.69,-0.68 47.16,-27.14 94.49,-54.01 141.67,-81.09l2.56 -0.12c-35.9,70.54 -72.72,140.67 -108.87,211.12 4.17,-3.21 7.56,-7.3 11.05,-11.23 27.54,-29.77 55.6,-59.06 82.84,-89.11 -6.61,46.92 -13.52,93.79 -20.22,140.7 -0.72,2.73 0.35,5.28 1.63,7.66 9.68,19.26 10.79,42.15 4.86,62.71 -6.75,23.52 -21.14,44.24 -38.4,61.29 -17.84,18.08 -39.1,32.48 -61.57,44.15 -46.57,23.8 -99.03,35.57 -151.23,35.45 12.07,-8.18 24.82,-15.42 36.31,-24.47 14.71,-11.47 29.47,-24.28 37.52,-41.52 4.45,-9.53 4.93,-22.21 -2.9,-30.14 -32.82,1.72 -65.72,3.7 -98.5,5.76 -11.67,12.78 -25.7,23.18 -40.98,31.27 -31.94,17.14 -66.95,27.59 -102.07,36.01 -33.73,7.61 -67.88,13.93 -102.37,16.65 29.89,-28.31 55.15,-62.81 67.75,-102.35 9.82,-30.42 7.98,-63.57 -0.58,-94.04 -9.63,-34.03 -31.15,-63.84 -58.38,-86.05 -27.29,-22.44 -59.44,-38.24 -92.59,-50.01 -67.83,-23.85 -139.89,-32.41 -211.35,-36.17 -36.82,-1.02 -73.73,-1.88 -110.47,1.16 -66.62,4.68 -132.75,14.72 -198.65,25.19 17.19,-8.63 35.38,-15.21 53.31,-22.19 79.67,-29.38 162.3,-49.99 245.55,-66.3 -17.47,-2.39 -35.17,-2.86 -52.75,-3.99 -185.79,-9.45 -373.28,25.72 -544.06,99.2 -63.33,27.43 -124.94,59.51 -181.63,99.03 0,-0.56 0.02,-1.7 0.02,-2.26 5.21,-1.2 8.82,-5.37 13.07,-8.26 25.54,-18.6 52.25,-35.56 79.51,-51.52 63.46,-37.61 130.64,-68.48 199.05,-95.91 6.89,-1.92 13.45,-4.74 20.15,-7.18 85.81,-31.64 174.53,-55.44 264.62,-71.14zm121.35 -403.14l0 0c3.45,2.72 8.08,2.3 12.19,3.07 8.86,0.56 17.31,3.42 26.06,4.69 57.61,11.61 114.33,27.97 168.66,50.53 67.62,27.61 130.92,65.13 189.26,108.94 25.26,18.65 49.52,38.61 75.21,56.66 16.05,10.63 33.14,21.87 52.94,23.07 7.95,-0.46 17.14,-0.7 22.52,-7.6 8.42,-11.24 4.53,-26.43 -0.22,-38.39 -8.91,-21.05 -23.31,-39.19 -38.49,-56.06 -44.87,-48 -100.3,-84.74 -157.79,-115.84 -10.6,-4.09 -22.05,-5.39 -33.01,-8.21 -104.18,-21.31 -211.26,-28.45 -317.33,-20.86zm265.42 142.08l0 0c-9.21,30.71 10.4,68.11 42.21,75.65 20.38,5.11 41.6,-0.8 60.23,-9.26 -30.84,-26.78 -66.34,-47.58 -102.44,-66.39z"/>
   <path class="fil2" d="M959.72 284.61c106.07,-7.59 213.15,-0.45 317.33,20.86 10.96,2.82 22.41,4.12 33.01,8.21 57.49,31.1 112.92,67.84 157.79,115.84 15.18,16.87 29.58,35.01 38.49,56.06 4.75,11.96 8.64,27.15 0.22,38.39 -5.38,6.9 -14.57,7.14 -22.52,7.6 -19.8,-1.2 -36.89,-12.44 -52.94,-23.07 -25.69,-18.05 -49.95,-38.01 -75.21,-56.66 -58.34,-43.81 -121.64,-81.33 -189.26,-108.94 -54.33,-22.56 -111.05,-38.92 -168.66,-50.53 -8.75,-1.27 -17.2,-4.13 -26.06,-4.69 -4.11,-0.77 -8.74,-0.35 -12.19,-3.07zm936.42 419.75c0.97,-0.58 2.9,-1.72 3.86,-2.28 -5.49,37.64 -10.94,75.28 -16.28,112.94 -27.24,30.05 -55.3,59.34 -82.84,89.11 -3.49,3.93 -6.88,8.02 -11.05,11.23 36.15,-70.45 72.97,-140.58 108.87,-211.12l-2.56 0.12z"/>
   <path class="fil3" d="M633.13 319.31c118.52,-21.52 241.31,-23.23 359.56,1.12 69.13,14.16 136.5,37.26 199.46,69.2 3.35,1.75 7.21,2.87 9.84,5.77 -54.08,-5.46 -108.72,-4.86 -162.74,0.86 -3.21,-4.4 -8.97,-4.86 -13.69,-6.68 -94.98,-31.77 -194.01,-52.05 -294.13,-57.05 -60.99,-2.93 -122.37,0.28 -182.51,11.05 -4.91,0.39 -10.63,3.04 -14.88,-0.66 32.43,-10.11 65.73,-17.28 99.09,-23.61zm-37.36 423.31c148.32,-70.15 309.78,-115.77 474.28,-121.46 36.04,-0.33 72.18,-0.43 108.05,3.65 84,7.58 166.9,28.47 243.95,62.89 2.92,1.4 5.51,3.36 8.16,5.22 -38.68,-6.29 -77.32,-12.91 -116.28,-17.24 -158,-18.57 -318.78,-15.54 -475.56,12.07 -90.09,15.7 -178.81,39.5 -264.62,71.14 -6.7,2.44 -13.26,5.26 -20.15,7.18 1.65,-2.13 3.47,-4.19 6,-5.32 11.94,-6.24 24.13,-12.03 36.17,-18.13zm231.41 -310.79c42.26,-10.51 84.79,-20.12 127.78,-26.91 -133.5,38.4 -263.58,94.23 -375.35,177.78 -64.62,47.92 -122.57,105.24 -168.86,171.16 -22.94,33.5 -43.69,68.93 -58.09,107l1.89 1.12c-27.26,15.96 -53.97,32.92 -79.51,51.52 -4.25,2.89 -7.86,7.06 -13.07,8.26 0,-3.34 0.19,-6.67 0.72,-9.95 4.07,-25.54 9.98,-50.81 18.38,-75.3 21.17,-64.06 57.66,-122.5 103.4,-171.88 71.5,-76.85 163.24,-132.22 259.53,-172.39 3.14,-1.4 6.35,-2.84 9.86,-2.95 -0.33,-0.29 -0.98,-0.89 -1.31,-1.19 7.57,-2.38 14.84,-5.58 22.26,-8.37 49.74,-19.1 100.73,-34.83 152.37,-47.9z"/>
   <path class="fil4" d="M548.92 343.58c60.14,-10.77 121.52,-13.98 182.51,-11.05 100.12,5 199.15,25.28 294.13,57.05 4.72,1.82 10.48,2.28 13.69,6.68 -17.24,1.96 -34.65,3.58 -51.55,7.56 7.56,-0.18 15.12,0.23 22.67,0.52 35.05,2.58 70.48,6.13 104.07,17.09 13.39,4.68 27.31,10.52 36.51,21.82 6.1,7.47 7.8,18.84 2.1,27.05 -8.16,11.91 -20.87,19.59 -33.17,26.64 -22.08,12.14 -45.66,21.33 -69.34,29.87 -40.69,14.44 -82.26,26.23 -124.1,36.91 -1.56,0.09 -4.68,0.26 -6.24,0.35 -1.21,4.31 4.54,0.23 6.66,0.6 84.94,-12.83 171.31,-17.4 257.03,-10.98 67.48,6.01 136.06,18.55 196.43,50.67 -2.05,-4.54 -5.91,-7.88 -8.78,-11.86 -10.65,-13.85 -20.89,-28.43 -27.03,-44.92 -2.42,-7.05 -4.48,-15.1 -1.3,-22.27 2.66,-6.13 9.12,-9.41 15.36,-10.65 12.51,-1.83 25.58,-0.62 37.17,4.65 25.51,11.13 45.5,31.46 63.38,52.25 20.43,24.78 38.76,51.45 53.78,79.84 -11.98,-2.08 -22.63,-8.85 -33.98,-13.05 0.86,2.35 1.98,4.6 3.46,6.67 11.24,16.38 22.22,32.96 33.27,49.48 73.02,43.08 129.92,111.38 163.2,189.04 4.96,12.15 10.33,24.24 13.5,37.02 -22.96,-52.49 -60.91,-97.19 -104.2,-134.13 -39.21,-33.25 -83.32,-60.43 -129.68,-82.49 -9.23,-4.18 -18.12,-9.44 -28.26,-11.02 -2.65,-1.86 -5.24,-3.82 -8.16,-5.22 -77.05,-34.42 -159.95,-55.31 -243.95,-62.89 -35.87,-4.08 -72.01,-3.98 -108.05,-3.65 -164.5,5.69 -325.96,51.31 -474.28,121.46 -12.04,6.1 -24.23,11.89 -36.17,18.13 -2.53,1.13 -4.35,3.19 -6,5.32 -68.41,27.43 -135.59,58.3 -199.05,95.91l-1.89 -1.12c14.4,-38.07 35.15,-73.5 58.09,-107 46.29,-65.92 104.24,-123.24 168.86,-171.16 111.77,-83.55 241.85,-139.38 375.35,-177.78 -2.07,-1.93 -4.63,-3.15 -7.22,-4.19 -78.83,-32.76 -162.97,-52.69 -248.04,-59.44 -68.59,-5.23 -138.17,-0.51 -204.95,16.34 -6.47,1.46 -12.72,4.02 -19.38,4.35 19.45,-6.68 38.9,-13.38 58.67,-19.06 4.25,3.7 9.97,1.05 14.88,0.66z"/>
   <path class="fil5" d="M1078.05 914.6c30.11,-16.29 65.13,-21.12 98.96,-19.84 32.64,0.93 66.23,8.07 93.44,26.96 36.38,24.75 55.41,70.04 53.46,113.3 -53.64,-0.09 -107.27,0 -160.91,-0.04 -9.76,0.32 -19.6,-0.65 -29.28,0.49 0.35,14.84 2.53,30.63 11.7,42.82 11.4,15.1 34.31,19.05 50.68,10.14 8.98,-4.49 14.92,-13.07 19.08,-21.93 34.41,4.34 68.86,8.39 103.28,12.63 -7.93,20.17 -24.37,36 -42.4,47.45 -27.94,17.24 -61.35,23.4 -93.8,23.21 -37.07,0.12 -75.29,-5.06 -108.37,-22.7 -23.21,-12.28 -42.5,-32.29 -52.39,-56.75 -12.56,-30.73 -11.86,-66.51 1.52,-96.85 10.91,-25.16 30.87,-46.03 55.03,-58.89zm69.32 44.52l0 0c-10,12.26 -12.18,28.98 -11.61,44.29 23.36,-0.21 46.72,0 70.11,-0.11 0.61,-14.15 -0.85,-29.34 -9.16,-41.29 -10.84,-15.68 -36.84,-17.47 -49.34,-2.89z"/>
  </g>
 </g>
</svg>
