<?xml version="1.0" encoding="UTF-8"?>
<!DOCTYPE svg PUBLIC "-//W3C//DTD SVG 1.1//EN" "http://www.w3.org/Graphics/SVG/1.1/DTD/svg11.dtd">
<!-- Creator: CorelDRAW -->
<svg xmlns="http://www.w3.org/2000/svg" xml:space="preserve" width="2000px" height="1600px" version="1.1" style="shape-rendering:geometricPrecision; text-rendering:geometricPrecision; image-rendering:optimizeQuality; fill-rule:evenodd; clip-rule:evenodd"
viewBox="0 0 2000 1600"
 xmlns:xlink="http://www.w3.org/1999/xlink">
 <defs>
  <style type="text/css">
   <![CDATA[
    .fil0 {fill:#E41837;fill-rule:nonzero}
   ]]>
  </style>
 </defs>
 <g id="Capa_x0020_1">
  <metadata id="CorelCorpID_0Corel-Layer"/>
  <path id="SMU_x0020_Mustangs.cdr" class="fil0" d="M1699.04 331.46c4.06,-7.96 12.24,-15.81 21.91,-13.83 5.92,3.49 6.98,11.06 8.79,17.11 7.51,33.74 12.52,68.07 22.25,101.29 4.91,16.53 12.36,32.99 25.54,44.61 23.23,20.14 43.3,45.4 52.12,75.25 7.78,25.29 5.92,52.34 13.23,77.74 5.89,22.15 15.67,42.96 23.25,64.54 6.82,19.39 17.53,36.99 27.25,54.98 4.68,8.71 8.78,19.16 5.35,29.02 -2.44,7.32 -9.16,11.77 -15.31,15.76 -10.97,7.1 -19.23,17.35 -27.57,27.2 -3.78,4.33 -8.37,8.75 -14.35,9.49 -5.77,0.93 -9.89,-3.95 -14.78,-6.03 -10.6,-4.89 -23.92,-6.98 -30.79,-17.4 -7.97,-13.4 -6.86,-29.6 -9.38,-44.49 -3.2,-13.54 -13.42,-23.76 -22.63,-33.57 -10.92,-10.38 -21.5,-21.55 -35.11,-28.37 -18.37,-10.23 -39.35,-13.87 -58.48,-22.19 -17.39,-8.61 -23.18,-28.56 -30.57,-44.97 -3.47,-7.41 -6.57,-16.02 -14.08,-20.26 -8.59,-4.54 -18.86,-2.77 -27.73,0 -12.03,3.78 -23.08,10 -34.49,15.22 -35.95,16.91 -72.67,32.09 -109.33,47.38 -26.72,11.63 -53.05,25.42 -74.61,45.3 -12.73,11.6 -22.29,26.08 -31.77,40.33 -6.74,10.21 -9.49,22.29 -14.61,33.27 -3.76,7.99 -5.69,17.7 -0.95,25.76 8.08,13.42 9.51,29.35 11.46,44.56 1.9,17.05 2.65,34.21 2.72,51.36 1.25,32.22 14.19,62.48 18.13,94.31 0.6,8.9 1.12,18.71 -3.88,26.57 -4.33,6.82 -13.22,8.4 -17.93,14.86 -6.56,8.46 -14.48,17.07 -25.53,19.06 -12.15,2.99 -22.98,-4.74 -33.39,-9.71 -12.68,-7.01 -26.9,-10.28 -40.9,-13.4 -24.8,-5.33 -49.96,-8.79 -75.03,-12.63 -6.89,-0.99 -13.88,-2.27 -20.86,-1.6 -5.94,0.7 -10.43,5.08 -14.98,8.54 -10.45,8.66 -21.55,16.49 -33.2,23.45 -5.01,3.42 -10.98,6.38 -13.84,12.02 -0.15,3.81 1.55,7.37 3.27,10.68 4.69,8.6 10.79,16.47 18.32,22.77 17.04,14.61 34.11,29.34 52.77,41.88 11.82,7.48 25.31,16.67 27.89,31.47 1.08,9.19 -9.38,13.11 -14.32,19.21 7.48,10.51 18.39,17.78 27.47,26.81 7.45,7.25 17.09,13.21 20.99,23.33 2.62,6.36 -1.58,13.29 -7.02,16.57 -8.84,5.27 -19.34,6.51 -29.39,7.3 -11.17,0.45 -23.28,2.42 -33.42,-3.57 -13.32,-7.87 -21.45,-21.66 -28.94,-34.72 -9.14,-17.23 -27.31,-26.8 -44.51,-34.26 -11.6,-5.09 -24.38,-7.7 -34.8,-15.21 -9.21,-6.37 -14.52,-16.55 -20.6,-25.66 -9.16,-14.36 -21.34,-26.49 -34.39,-37.34 -10.62,9.44 -20.21,20.07 -31.39,28.84 -15,9.35 -32.7,15.07 -50.47,14.79 -6.03,-0.03 -11.46,2.91 -16.5,5.9 -13.37,8.14 -26.81,16.43 -41.47,22.08 -4.55,1.58 -10.44,3.14 -14.53,-0.31 -4.35,-4.09 -3.72,-10.96 -1.64,-16.05 8.03,-20 16.67,-39.82 26.66,-58.92 3.18,-6.23 7.39,-13.08 14.84,-14.47 14.37,-2.6 28.68,5.68 43,1.71 7.46,-1.85 12.82,-7.85 16.7,-14.15 4.21,-6.9 10.81,-11.79 15.62,-18.19 -9.05,-8.55 -18.56,-18.02 -31.2,-20.65 -24.75,-5.81 -50.32,-1.72 -75.34,-4.31 -15.14,-1.43 -30.09,-7.74 -40.4,-19.11 -5.67,-8.87 -7.05,-19.66 -10.41,-29.49 -5.74,-21.07 -13.6,-41.73 -25.49,-60.15 -7.47,-11.18 -14.09,-23.23 -24.31,-32.24 -27.33,-25.58 -57.85,-47.46 -87.4,-70.35 -36.24,-37.91 -65.96,-82.26 -86.54,-130.53 -7.99,-21.02 -18.01,-41.21 -25.35,-62.46 -1.13,-2.51 -1.69,-5.97 -4.64,-6.95 -6,-2.2 -12.49,-2.15 -18.78,-2.73 -26.57,-1.51 -53.22,-4.88 -78.78,-12.58 -17.13,-5.24 -33.54,-13.68 -46.43,-26.29 -7.39,-6.63 -13.66,-15.74 -23.85,-18.16 -13.99,-3.3 -28.49,-2.2 -42.74,-2.24 -31.27,1.45 -62.82,3.35 -93.93,-1.46 -21.27,-3.73 -40.62,-14.07 -58.99,-25.02 -22.1,-13.18 -42.65,-30.26 -55.68,-52.79 -13.85,-24.44 -24.61,-54.01 -15.43,-81.99 4.35,-1.82 9.18,-4.21 13.94,-2.35 4.14,1.27 6.63,5.03 9.24,8.2 6.69,8.42 16.21,13.83 25.43,18.99 23.57,12.45 49.39,19.98 75.43,25.17 22.34,4.38 45.28,6.81 68.01,4.45 25.16,-2.18 49.32,-10.88 74.6,-12.08 15.35,-0.77 30.86,0.53 45.81,4.13 10.04,2.44 20.49,7.42 25.25,17.15 5.99,12.87 7.04,27.52 13.8,40.14 7.87,15.02 18.73,30.28 35.14,36.57 14.98,5.56 30.55,-0.52 45.26,-3.84 22.17,-4.17 41.78,-15.82 61.62,-25.91 36.52,-18.87 73.71,-36.65 112.32,-50.85 30.37,-11.1 61.76,-19.97 94,-23.4 27.94,-3.11 56.23,-1.53 83.89,3.35 42.12,7.27 84.64,12.54 127.41,13.97 65.04,1.22 129.74,-10.26 192.21,-27.79 6.82,-1.92 14.14,-3.8 19.16,-9.16 -6.36,-8.37 -16.54,-12.18 -24.42,-18.78 -13.2,-10.5 -28.8,-19.75 -36.21,-35.61 -1.8,-4.53 -4.67,-9.72 -2.6,-14.62 3.87,-2.2 8.48,-0.36 12.39,0.81 18.01,6.84 34.79,16.87 53.47,22.01 26.08,6.96 53.03,10.67 79.97,11.94 5.83,0.16 11.81,0.26 17.29,-2.04 -2.27,-3.49 -4.99,-6.7 -8.44,-9.06 -20.81,-15.02 -44.58,-26.75 -61.26,-46.79 -4.83,-6.05 -10.09,-13.4 -8.37,-21.6 2.34,-6.07 10.07,-5.07 15.23,-4.18 27.08,6.33 48.76,24.89 73.77,36.04 24.54,11.12 50.11,19.86 76.04,27.12 5.7,1.65 11.56,2.9 17.53,3.33 -3.94,-11.81 -17.22,-18.51 -18.49,-31.47 -0.91,-4.58 2.38,-9.26 6.99,-10.01 6.65,-1.14 13.13,1.59 19.3,3.78 25.12,9.72 49.26,21.68 73.55,33.27 3.05,1.3 6.23,3.12 9.72,2.49 1,-5.19 -1.06,-10.35 -0.89,-15.55 0.55,-4.66 5.98,-5.28 9.66,-4.33 9.88,2.13 16.51,10.38 24.71,15.65 33.87,22.56 72.62,37.41 112.56,44.85 4.98,0.65 10.36,1.89 15.22,-0.03 2.1,-2.77 0.98,-6.67 1.36,-9.92 -0.17,-29.02 1.67,-59.22 15.03,-85.56zm-812.08 459.92l0 0c4.99,24.9 -0.49,51.11 7.96,75.37 10.86,20.74 19.49,42.89 23.68,66.01 3.78,16.46 10.59,33.49 24.56,43.9 6.61,5.09 14.83,7.53 23.04,8.32 23.37,2.42 46.54,10.71 64.72,25.85 3.25,2.5 6.1,5.6 7.44,9.55 1.65,3.44 3.09,9.57 8.23,7.84 7.29,-3.6 13.56,-9.77 17.01,-17.15 0.98,-3.1 2.87,-7.72 -0.53,-9.97 -7.41,-5.21 -16.45,-7.39 -24.11,-12.17 -14.4,-9.14 -30.5,-15.63 -43.65,-26.7 -11.31,-9.35 -21.24,-21.77 -24.07,-36.45 -1.21,-4.54 2.9,-7.75 7.15,-7.3 23.54,-0.48 47.08,1.03 70.64,0.1 5.59,0.14 12.29,-0.02 16.41,4.45 4.95,7.49 -3.38,16.72 1.17,24.44 4.4,3.83 11.41,0.99 16.02,4.67 5.51,4.47 10.56,9.88 17.61,11.98 5.94,-8.46 10.46,-17.8 15.05,-27.03 7.58,-18.15 9.13,-38.24 8.29,-57.71 -0.54,-7.4 -0.97,-14.93 -3.1,-22.1 -0.74,-2.3 -1.87,-4.81 -4.21,-5.84 -7.52,0.52 -15.02,2.03 -22.6,1.41 -20.77,-1.08 -41.36,-4.45 -61.84,-7.96 -32.2,-5.89 -64.08,-15.32 -93,-30.91 -17.19,-7.73 -34.68,-14.83 -51.87,-22.6zm338.55 145.74l0 0c-10.5,15.12 -22.47,29.15 -33.66,43.74 -2.25,3.12 -6.07,8.33 -1.17,10.98 23.73,15.26 53,17.16 80.46,17.32 1.99,-4.81 5.7,-8.37 9.55,-11.74 3.35,-2.83 0.59,-7.22 -1.05,-10.19 -10.74,-16.34 -18.97,-34.16 -26.75,-52.05 -3.61,-7.78 -4.4,-16.72 -9.45,-23.83 -7.34,7.57 -12.02,17.14 -17.93,25.77z"/>
 </g>
</svg>
