<?xml version="1.0" encoding="UTF-8"?>
<!DOCTYPE svg PUBLIC "-//W3C//DTD SVG 1.1//EN" "http://www.w3.org/Graphics/SVG/1.1/DTD/svg11.dtd">
<!-- Creator: CorelDRAW 2017 -->
<svg xmlns="http://www.w3.org/2000/svg" xml:space="preserve" width="1300px" height="1440px" version="1.1" style="shape-rendering:geometricPrecision; text-rendering:geometricPrecision; image-rendering:optimizeQuality; fill-rule:evenodd; clip-rule:evenodd"
viewBox="0 0 1300 1440.22"
 xmlns:xlink="http://www.w3.org/1999/xlink">
 <defs>
  <style type="text/css">
   <![CDATA[
    .fil0 {fill:#47121B;fill-rule:nonzero}
    .fil1 {fill:#FEFEFE;fill-rule:nonzero}
   ]]>
  </style>
 </defs>
 <g id="Capa_x0020_1">
  <metadata id="CorelCorpID_0Corel-Layer"/>
  <g id="_2266676672944">
   <path class="fil0" d="M582.83 0l38.96 0c9.78,1.3 18.77,5.95 26.81,11.85 11.24,-3.9 22.44,-8.43 34.3,-9.64 9.25,-1.18 18.49,0.43 27.7,1.44 19.32,2.16 38.72,3.99 58.17,4.37 9.42,0.28 18.86,-1.94 28.27,-0.59 10.6,1.39 20.85,5.01 30.49,9.85 13.92,7.02 24.47,19.3 35.33,30.54 6.99,-12.88 17.8,-23.14 30.37,-29.59 24.41,-12.53 53.48,-13.99 79.05,-4.53 38.23,12.4 73.99,34.82 100.88,66.46 9.51,11.76 19.63,24.61 21.43,40.57 2.39,16.48 6.07,32.68 9.42,48.96 3.39,16.82 8.13,33.75 6.74,51.17 -1.12,13.81 -1.44,28.53 -7.7,41.04 -6.5,8.5 -13.07,17.03 -17.87,26.81 14.41,18.48 28.87,36.94 43.18,55.56 -11.41,7.32 -22.89,14.5 -34.24,21.93 4.68,61.95 8.86,123.94 13.41,185.91 1.18,6.11 -4.33,10.35 -8.84,12.67 -11.5,5.13 -24.28,3.22 -36.16,1.12 -6.55,21.29 -15.71,41.55 -24.72,61.77 -19.39,41.96 -39.57,83.51 -60.9,124.38 -7.93,12.48 -17.82,26.82 -32.88,28.99 -13.62,-1.1 -20.81,-15.64 -29.2,-25.26 -46.48,17.28 -92.65,35.58 -138.83,53.79 -10,5.7 -17.16,15.55 -25.98,22.95 -19.35,0.14 -38.74,-0.48 -58.05,0.23 -16.92,14.93 -32.02,32.21 -48.3,47.96 -14.29,-13.79 -28.68,-27.42 -42.86,-41.33 -2.28,-1.98 -4.42,-4.76 -7.64,-4.58 -17.25,-1.16 -34.54,-1.48 -51.78,-2.48 -7.45,-8.98 -15.23,-17.62 -22.76,-26.49 -2.34,-2.87 -5.19,-5.35 -8.73,-6.27 -43.61,-14.56 -87.14,-29.3 -130.73,-43.91 -12.16,10.55 -26.36,23.93 -43.35,20.37 -14.98,-3.71 -21.19,-20.26 -27.89,-33.14 -28.29,-59.87 -51.67,-122.16 -76.3,-183.79 -7.14,6.11 -15.25,12.46 -24.86,12.51 -6.46,0.41 -13.8,-3.15 -15.25,-10.39 -3.97,-15 -3.52,-30.75 -3.54,-46.18 1.18,-40.34 4.46,-80.75 11.75,-120.41 1.53,-9.18 2.17,-18.51 2.32,-27.83 -8.67,-0.77 -18.17,-3.01 -23.51,-10.98 -6.8,-9.42 -10.62,-25.1 -1.59,-34.24 9.25,-11.67 18.19,-23.57 27.42,-35.23 -7.45,-21.09 -16.5,-41.71 -20.73,-63.91 -2.08,-11.81 -2.68,-24.25 0.73,-35.83 7.23,-25.32 5.32,-52.54 12.98,-77.77 2.38,-8.07 6.84,-15.36 12.78,-20.99 15.34,-15.02 31.9,-28.51 48.76,-41.5 30.55,-23.3 66.35,-41.19 104.43,-42.83 27.16,-1.18 49.7,17.94 69.89,34.8 18.64,-13.12 37.71,-28.21 60.73,-30.47 18.62,-3.39 37.62,3.26 56.11,-1.69 10.77,-2.87 21.67,-5.37 32.78,-6.15zm-167.42 983.39c-9.5,17.5 -19.06,34.96 -28.46,52.52l-24.31 45.44 -34.87 -36.86c-27.69,-29.27 -50.14,-62 -92.15,-64.04 -16.24,0.43 -31.07,9.54 -35.54,26.87 -5.68,22.03 38.05,44.81 52.15,51.43 28.13,13.22 56.11,26.62 82.69,43.19 30.17,18.81 60.06,42.58 80.32,73.45l0.17 -192zm-28.94 402.86c-36.42,36.41 -95.45,54.8 -144.81,53.94l-241.66 0 28.86 -60.31c17.77,-34.86 34.82,-70.13 52.68,-104.93l24.5 -47.74 35.54 39.12c11.78,12.97 54.29,58.39 69.78,61.98 9.57,2.14 21.46,1.75 31.05,-0.06 6.65,-1.26 22.55,-5.7 25.31,-13.56 1.75,-4.98 7.21,-21.34 5.8,-26.58 -1.92,-4.35 -13.75,-11.61 -17.45,-13.77 -39.26,-22.98 -79.37,-44.26 -118.73,-67.03 -10.62,-6.15 -21.2,-12.36 -31.46,-19.18 -23.09,-15.36 -44.62,-33.85 -58.95,-58.88 -12.07,-21.09 -17.58,-44.53 -16.52,-69.18 4.56,-107 64.35,-179.58 166.76,-183.55 128.11,0 255.4,0 383.01,0l69.54 159.05 69.53 -159.05c71.26,-0.08 142.52,0.26 213.78,0l-24.72 49.45c28.15,-30.43 67.66,-46.09 117.1,-49.45l274.59 0 -29.53 56.52c-17.91,34.61 -36.92,68.55 -55.28,102.87l-24.31 45.44 -34.87 -36.86c-27.69,-29.27 -50.15,-62 -92.16,-64.04 -16.23,0.43 -31.06,9.54 -35.53,26.87 -5.69,22.03 38.04,44.81 52.14,51.43 28.14,13.22 56.12,26.62 82.69,43.19 39.54,24.64 78.59,57.82 96.11,104.29 11.58,30.69 11.96,63.13 3.08,94.65 -27.51,97.68 -100.43,139.31 -191.42,139.31l-414.01 0.01 56.91 -97.23c0.16,-34.14 0.19,-68.28 0.19,-102.43l-64.29 157.47 -64.29 -157.47 0.19 102.43 57.04 97.22 -280.62 0 24.43 -53.94zm497.7 -243.29l0.16 181.02c0.12,0.27 0.25,0.54 0.37,0.82 8.28,-16.66 16.59,-33.31 25.08,-49.85l24.49 -47.74 35.54 39.12c11.79,12.97 54.3,58.39 69.78,61.98 9.58,2.14 21.46,1.75 31.05,-0.06 6.66,-1.26 22.55,-5.7 25.31,-13.56 1.76,-4.98 7.22,-21.34 5.8,-26.58 -1.91,-4.35 -13.75,-11.61 -17.45,-13.77 -39.25,-22.98 -79.36,-44.26 -118.72,-67.03 -10.62,-6.15 -21.2,-12.36 -31.46,-19.18 -18.66,-12.42 -36.3,-26.87 -49.95,-45.17z"/>
   <path class="fil1" d="M528.62 33.62c25.74,0.36 51.36,-3.78 77.1,-2.78 14.59,0.86 28.57,7.68 39.28,18.12 10.57,-10.03 23.91,-16.82 38.16,-18.01 25.74,-1.32 51.37,2.96 77.1,2.67 18.38,-0.23 37.17,1.32 54.44,8.55 16.77,6.7 31.62,17.64 45.5,29.47 2.06,2.84 4.72,-0.3 6.6,-1.51 13.45,-10.58 27.57,-20.24 42.39,-28.49 7.7,-4.19 15.75,-8.77 24.67,-8.66 10.83,0.09 21.26,3.78 31.96,5.2 12.36,1.64 23.41,8.2 33.79,15.11 20.59,14.04 39.13,31.18 57.14,48.7 5.52,5.27 12.77,10.31 13.26,19.03 4.36,27.27 8.13,54.66 10.98,82.15 1.31,14.24 3.18,28.67 1.49,42.94 -4.08,15.86 -18.15,25.52 -30.79,33.28 14.31,17.77 29.07,35.09 43.44,52.78 -8.11,3.97 -16.34,7.61 -24.45,11.53 3.36,66.81 5.98,133.66 9.24,200.46 -9.16,-3.69 -18.23,-7.61 -27.43,-11.21 -36.11,72.66 -72.23,145.32 -108.59,217.86 -7.17,-5.72 -14.14,-11.67 -21.11,-17.61 -52.75,15.43 -105.65,30.51 -158.2,46.65 -11.13,9.5 -21.86,19.6 -32.48,29.77 -17.85,-0.71 -35.59,-2.94 -53.37,-4.52 -10.88,12.68 -21.07,26.03 -32.09,38.54 -3.3,1.85 -4.96,-2.59 -7.02,-4.35 -9.22,-11.46 -18.68,-22.72 -27.97,-34.14 -17.72,1.55 -35.39,3.51 -53.13,4.65 -8.8,-8.37 -17.89,-16.37 -26.71,-24.68 -2.94,-2.62 -5.79,-5.72 -9.65,-6.64 -51.51,-15.11 -102.99,-30.24 -154.49,-45.33 -7.21,5.83 -14.21,11.94 -21.44,17.76 -36.1,-72.62 -72.46,-145.1 -108.41,-217.8 -9.29,3.23 -18.28,7.36 -27.44,11 2.77,-66.91 6.35,-133.79 8.78,-200.7 -8.07,-3.67 -16.11,-7.41 -24.16,-11.19 14.5,-17.55 28.96,-35.17 43.59,-52.61 -10.66,-6.74 -21.79,-14.17 -28.06,-25.98 -5.17,-9.12 -3.56,-20.19 -3.06,-30.27 2.55,-34.5 7.44,-68.76 12.8,-102.86 0.43,-4.46 2.68,-8.41 5.75,-11.4 19.24,-18.43 38.31,-37.33 59.98,-52.62 12.44,-8.78 25.87,-17.23 41.08,-18.78 13.79,-1.94 28.16,-8.23 41.81,-2.08 21.19,9.58 40.43,23.39 58.86,37.89 15.55,-13.52 32.43,-25.9 51.59,-32.85 15.81,-5.72 32.67,-7.18 49.27,-7.04zm101.1 482.85c13.43,-1.96 27.25,-3.6 40.65,-0.48 13.6,3.12 26.37,9.96 37.09,19.35 -7.72,18.46 -14.97,37.15 -23.27,55.31 -2.55,-17.48 -5.02,-34.98 -7.49,-52.46 -3.97,6.38 -7.94,12.74 -12.05,19.03 -2.94,-7.36 -5.88,-14.73 -8.78,-22.11 -3.19,6.79 -5.64,13.93 -8.66,20.81 -5.77,-5.06 -7.92,-14.22 -12.55,-20.67 -2.02,7.82 -3.93,15.68 -6.03,23.5 -5.36,-6.73 -10.86,-13.36 -15.85,-20.4 -2.21,16.98 -2.41,34.18 -3.46,51.28 -7.78,-18.92 -14.46,-38.32 -21.94,-57.37 12.21,-9.75 27.58,-13.29 42.34,-15.79zm-22.33 165.01c5.34,-12.47 9.96,-25.32 15.96,-37.45 1.89,11.6 3.37,23.3 5.06,34.92 2.69,-4.26 5.37,-8.5 8.14,-12.7 1.95,5.02 3.99,10.06 6.06,15.05 2.49,-4.1 2.47,-11.4 6.91,-13.36 2.6,4.31 4.79,8.89 7.1,13.4 1.46,-5.33 2.79,-10.69 4.1,-16.02 3.82,4.56 7.59,9.21 11.39,13.81 0.41,-11.53 1.1,-23.06 2,-34.57 5.19,12.94 9.8,26.12 14.91,39.11 -12.49,8.91 -27.91,10.83 -42.54,11.99 -14.23,1.09 -28.06,-4.95 -39.09,-14.18zm-188.93 235.06l-62.12 115.71c-35.98,-38.04 -64.94,-79.68 -120.38,-81.89 -29.2,0.34 -55.29,18.38 -63.19,49.01 -11.07,42.91 37.61,72.62 68,86.9 27.16,12.75 54.17,25.63 79.82,41.62 33.63,20.96 69.21,49.89 84.15,89.53 9.21,24.41 9.3,49.78 2.24,74.84 -23.94,84.98 -85.73,114.71 -164.27,117.76l-0.26 0 -0.26 0 -195.55 0 7.11 -15.81c17.77,-34.83 34.8,-70.08 52.65,-104.86l6.04 -11.77 8.77 9.64c17.55,19.32 59.98,65.08 84.31,70.53 27.31,6.11 77.37,-0.24 88.72,-32.53 4.82,-13.72 10.89,-33.36 5.73,-47.84 -4.75,-13.33 -19.07,-22.86 -30.24,-29.4 -39.29,-22.99 -79.45,-44.29 -118.84,-67.09 -10.12,-5.86 -20.21,-11.77 -29.98,-18.27 -19.13,-12.72 -37.9,-28.25 -49.78,-49 -9.17,-16.01 -13.24,-33.48 -12.44,-52.19 3.91,-91.66 52.35,-151.9 140.29,-157.89l362.02 -0.01c15.23,33.83 29.6,68.01 44.31,102.09 13.98,32.38 28.31,64.96 44.41,96.25 16.1,-31.29 30.43,-63.87 44.4,-96.25 13.45,-31.16 26.56,-62.51 40.48,-93.45l2.51 -5.59 5.84 0c42.53,-0.05 85.07,0.09 127.61,-0.07l15.43 -0.06 -7.2 14.5c-7.57,15.24 -15.19,30.47 -22.73,45.73l-0.16 0.32 -0.08 0.12c-0.23,1.09 -0.1,4.16 -0.12,5.72l0.32 357.89c8.91,20.23 18.44,40.14 27.63,60.22 17.17,-33.77 33.7,-67.9 50.99,-101.6l6.04 -11.77 8.76 9.64c17.55,19.32 59.99,65.08 84.31,70.53 27.31,6.11 77.38,-0.24 88.73,-32.53 4.82,-13.72 10.89,-33.36 5.72,-47.84 -4.75,-13.33 -19.06,-22.86 -30.23,-29.4 -39.3,-22.99 -79.45,-44.29 -118.85,-67.09 -10.12,-5.86 -20.21,-11.77 -29.98,-18.27 -19.13,-12.72 -37.9,-28.25 -49.78,-49 -9.16,-16.01 -13.23,-33.48 -12.43,-52.19 3.91,-91.66 52.35,-151.9 140.28,-157.89 70.16,-4.77 140.45,-1.98 210.63,0.42l15.1 0.52 -7.28 14.06c-17.85,34.48 -36.79,68.3 -55.09,102.51l-5.99 11.2 -8.6 -9.09c-34.6,-36.58 -59.17,-70.71 -111.79,-72.8 -29.19,0.34 -55.28,18.38 -63.18,49.01 -11.07,42.91 37.61,72.62 68,86.9 27.15,12.75 54.16,25.63 79.81,41.62 33.64,20.96 69.21,49.89 84.16,89.53 9.2,24.41 9.3,49.78 2.24,74.84 -23.94,84.98 -85.68,117.78 -164.28,117.76l-363.78 0 8.57 -14.93c8.49,-14.83 18.55,-28.81 26.36,-44.06 0.46,-85.05 0.08,-170.12 0.19,-255.17 -27.98,68.57 -56.08,137.09 -84.06,205.67l-8.5 20.84 -8.5 -20.84c-27.98,-68.58 -56.09,-137.1 -84.06,-205.67l0.19 255.17 34.93 58.99 -185.16 0 36.29 -79.29 0.32 -357.89c-0.01,-1.56 0.32,-4.88 -0.35,-6.16 -8.27,-16.74 -16.62,-33.43 -24.92,-50.14zm609.35 -3.17c-82.9,5.45 -127.86,61.53 -131.63,148.51 -2.39,57.45 46.31,86.31 87.37,110.36 39.52,22.58 79.46,44.33 118.89,67.12 38.6,22.87 44.73,43.46 28.72,89.3 -13.25,37.41 -67.14,46.07 -99.32,38.72 -27.15,-5.94 -69.99,-52.33 -89.07,-73.32l-53.26 106.14 181.09 0c73.63,-2.88 132.77,-29.35 155.74,-110.77 29.59,-105.13 -89.15,-160.69 -161.08,-194.16 -34.97,-16.77 -85.57,-49.43 -73.19,-98.51 9.27,-34.83 38.76,-55.95 72.25,-56.25 55.84,2.13 81.21,36.57 118.2,75.67 18.27,-34.16 37.19,-67.94 55.02,-102.38 -69.89,-2.39 -139.89,-5.38 -209.73,-0.43zm-378.09 204.33c-2.43,-0.11 -3.62,-2.46 -4.69,-4.49 -31.05,-59.03 -61.84,-137.52 -89.87,-199.84l-126.32 0c7.58,15.24 15.19,33.46 22.74,48.73 1.89,3.21 1.25,7.13 1.42,10.73l-0.32 360.09 -30.81 67.26 153.91 0.02 -27.69 -46.67c-0.51,-92.7 -0.02,-185.42 -0.23,-278.09 -0.3,-3.26 0.55,-9.02 4.84,-8.07 3.76,-0.8 4.29,4.54 5.8,7 30.34,74.45 60.85,148.81 91.22,223.24 30.36,-74.43 60.88,-148.79 91.22,-223.24 1.5,-2.46 2.04,-7.8 5.79,-7 4.29,-0.95 5.15,4.81 4.85,8.07 -0.21,92.67 0.28,185.39 -0.24,278.09 -8.02,16.22 -18.7,30.97 -27.69,46.67l153.91 -0.02c-10.19,-22.45 -20.91,-44.67 -30.8,-67.26l-0.32 -360.09c0.17,-3.6 -0.47,-7.52 1.41,-10.73 7.55,-15.27 15.17,-30.5 22.74,-45.75 -42.54,0.16 -85.1,0.03 -127.63,0.07 -28.04,62.32 -57.5,137.76 -88.56,196.79 -1.06,2.03 -2.26,4.38 -4.68,4.49zm-450.15 -204.33c-82.9,5.45 -127.85,61.53 -131.62,148.51 -2.39,57.45 46.3,86.31 87.37,110.36 39.51,22.58 79.45,44.33 118.88,67.12 38.6,22.87 44.73,43.46 28.73,89.3 -13.25,37.41 -67.15,46.07 -99.33,38.72 -27.15,-5.94 -69.99,-52.33 -89.06,-73.32 -17.85,34.78 -34.88,70.02 -52.64,104.84l180.47 1.3c73.63,-2.88 132.77,-29.35 155.74,-110.77 29.58,-105.13 -89.15,-160.69 -161.08,-194.16 -34.98,-16.77 -85.57,-49.43 -73.19,-98.51 9.26,-34.83 38.75,-55.95 72.24,-56.25 55.84,2.13 81.21,36.57 118.2,75.67l55.02 -102.81 -209.73 0zm298.49 -860.1l0 0c-13.07,2.16 -25.62,8.7 -34.24,19.53 -10.79,13.7 -21.58,27.42 -33.19,40.34 -12.37,-17.69 -24.79,-36.08 -42.02,-48.84 -10,-7.5 -21.52,-13.63 -33.93,-14.2 -23.26,0.52 -45.98,9.71 -64.23,24.91 -16.93,13.99 -33.4,28.74 -49.06,44.28 -6.37,23.71 -11.97,47.71 -16.71,71.84 -3.15,16.96 -5.83,35.03 -0.06,51.74 2.4,7.68 10.38,10.48 16.75,13.31 8.41,1.71 16.6,-2.51 23.23,-7.66 28.04,-22.38 56.12,-44.74 84.18,-67.09 -1.83,-2.51 -3.67,-5 -5.5,-7.48 -4.61,2.87 -9.31,5.49 -14.15,7.86 -1.53,-15.61 0.98,-33.11 13.51,-43.19 -13.04,1.55 -27.05,4.49 -36.83,14.52 -8.15,8.5 -9.8,21.97 -5.88,33.09 -6.46,5.88 -13.4,11.13 -20.1,16.69 -1.37,-9.87 -2.91,-19.74 -4.2,-29.63 -1.4,-3.56 2.23,-5.43 4.16,-7.41 24.37,-21.08 48.5,-42.46 72.87,-63.54 15.87,24.61 13.88,56.27 13.75,84.74l-0.86 1.39c-51.78,38.38 -97.6,85.22 -139.28,135.45 5.49,2.12 10.96,4.24 16.45,6.36 -4.14,62.31 -8.26,124.65 -11.97,187.01 5.45,-3.12 10.83,-6.32 16.28,-9.42 33.66,70.98 67.12,142.04 101.06,212.86 3.47,-3.6 6.91,-7.25 10.34,-10.87 56.63,18.25 113.28,36.3 169.96,54.36 -10.81,-28.4 -20.55,-57.33 -31.71,-85.57 -32.43,-8.93 -65.1,-17.11 -97.62,-25.71 -31.37,-59.16 -62.38,-118.56 -93.59,-177.82 -6.12,2.17 -12.23,4.33 -18.34,6.48 10.68,-55.57 21.06,-111.23 31.79,-166.8 -5.63,-1.16 -11.27,-2.23 -16.91,-3.32 15.51,-21.57 34.78,-39.64 54.59,-56.57 36.71,-30.91 76.01,-58.22 116.34,-83.47 54.55,26.74 109.03,53.68 163.56,80.52 5.51,2.56 12.34,2.49 17.81,-0.24 53.24,-26.4 106.61,-52.5 159.87,-78.84 3.05,-2.67 6.09,0.8 8.82,2.09 36.19,23.14 71.63,47.69 104.98,75.24 21.71,18.35 43.42,37.47 60.07,61.29 -5.6,1.12 -11.18,2.21 -16.76,3.28 10.58,55.64 21.3,111.23 31.66,166.91 -6.09,-2.17 -12.2,-4.33 -18.29,-6.48 -30.08,57.55 -60.49,114.9 -90.55,172.47 -1.46,2.1 -2.19,5.59 -5.13,5.83 -31.9,8.26 -63.75,16.78 -95.67,24.96 -10.53,28.58 -21,57.21 -31.42,85.84 56.67,-18.26 113.39,-36.29 170.1,-54.43 3.41,3.65 6.85,7.29 10.28,10.94 33.68,-70.97 67.18,-142.04 101.03,-212.92 5.41,3.19 10.86,6.31 16.37,9.37 -4.12,-62.34 -8.06,-124.7 -12.1,-187.04 5.43,-2.05 10.84,-4.14 16.26,-6.2 -41.63,-50.64 -87.8,-97.64 -139.94,-136 -1.12,-20.24 -0.56,-40.75 3.43,-60.62 1.69,-8.96 5.15,-17.42 9.89,-25 26.38,22.01 51.93,45.15 77.87,67.73 -1.61,10.94 -3.2,21.86 -4.57,32.82 -6.78,-5.4 -13.5,-10.87 -20.17,-16.36 3.37,-10.67 2.7,-23.36 -4.67,-32.02 -9.79,-11.42 -24.93,-14.27 -38.66,-16.12 12.98,9.67 16.05,27.97 13.71,43.65 -4.57,-2.74 -9.18,-5.47 -13.75,-8.16 -1.91,2.46 -3.82,4.9 -5.73,7.34 27.37,21.86 54.79,43.65 82.14,65.5 4.78,3.79 9.86,7.45 15.78,8.94 8.84,2.78 18.26,-2.15 24.44,-8.71 5.14,-9.71 5.85,-21.63 5.25,-32.57 -3.19,-30.22 -11.37,-59.49 -18.14,-88.96 -0.82,-3.05 -1.25,-6.49 -3.91,-8.43 -16,-15 -32.07,-29.97 -49.08,-43.69 -17.08,-13.7 -37.9,-21.86 -59.25,-23.25 -12.23,-0.5 -23.79,5.13 -33.83,12.01 -18.83,12.79 -32,32.46 -45.28,51.08 -11.24,-13.08 -22.09,-26.55 -32.82,-40.12 -8.17,-10.28 -19.72,-17.04 -32.13,-19.32 -15.79,-2.92 -31.45,-6.57 -47.3,-8.98 -19.12,-2.87 -38.42,-0.87 -57.62,-0.91 -12.79,-1.26 -21.07,10.8 -30.51,17.79 -3.99,43.86 -8,87.71 -12.07,131.56 -0.91,-0.04 -2.69,-0.14 -3.59,-0.18 -4.05,-43.76 -8.21,-87.5 -12.01,-131.28 -5.68,-4.72 -11.13,-9.76 -17.01,-14.18 -6.16,-4.88 -14.22,-3.51 -21.39,-3.74 -15.12,-0.41 -30.29,-1.34 -45.34,0.34 -16.67,1.99 -32.98,6.29 -49.51,9.08zm-124.4 220.17l0 0c-30.18,35.76 -49.75,81.93 -52.82,130.02 -1.2,23.68 -0.4,48.21 7.99,70.52 19.52,56.53 46.18,110.02 75.91,161.19 35.74,12.33 71.46,24.73 107.26,36.87 17.1,39.6 34.26,79.16 51.33,118.77 17.42,0.07 34.82,1.46 52.26,1.17 9.72,8 18.6,17.2 28.66,24.75 11.81,-5.27 19.77,-18.03 31.06,-24.55 17.09,-0.18 34.17,-1.3 51.25,-1.21 17.54,-39.38 34.36,-79.11 51.5,-118.7 35.7,-12.88 71.99,-24.07 107.41,-37.63 28.12,-47.18 52.6,-97 71.79,-149.03 3.89,-11.13 8.33,-22.2 10.11,-33.99 7.55,-48.8 -2.17,-100.21 -26.17,-142.49 -25.9,-46.11 -66.63,-80.78 -110.78,-105.73 -2.81,-2.42 -6,0.18 -8.75,1.14 -49.44,22.24 -98.93,44.35 -148.4,66.5 4.65,8.23 9.29,16.48 13.99,24.69 29.32,-11.31 58.73,-22.48 88.05,-33.8 4.08,-2.12 8.63,-1.26 12.96,-0.92 21.15,2.1 42.35,3.61 63.47,5.84 22.31,31.52 45.12,62.63 67.38,94.2 -2.79,1.91 -5.55,3.87 -8.32,5.83 -20.03,-27.94 -42.62,-54.38 -69.95,-74.44 -13.28,-9.25 -28.21,-17.34 -44.41,-17.82 -9.69,-0.34 -18.94,3.53 -26.94,9.05 8.9,6.36 18.32,11.85 27.24,18.19 -8.86,5.81 -18.25,10.85 -26.43,17.75 35.72,18.83 70.75,44.04 91.47,81.21 -3.41,0.45 -6.77,0.96 -10.16,1.44 -10.71,36.81 -21.13,73.73 -31.73,110.58 -14.09,5.47 -28.25,10.69 -42.35,16.12 -22.46,72.66 -45.22,145.18 -67.7,217.82 -16.11,1.8 -32.24,3.24 -48.35,4.92 -5.45,5.2 -10.77,10.58 -16.54,15.39 -5.72,-4.9 -10.61,-11.01 -16.79,-15.23 -15.88,-2.16 -31.88,-3.17 -47.77,-5.01 -22.46,-72.62 -45.27,-145.1 -67.66,-217.73 -14.07,-5.54 -28.21,-10.87 -42.37,-16.12 -10.51,-36.85 -21.15,-73.66 -31.62,-110.52 -3.49,-0.61 -6.99,-1.21 -10.46,-1.75 21.15,-37.15 56.13,-62.66 92.21,-81.41 -8.92,-6.02 -18.06,-11.7 -27,-17.65 8.88,-6.22 18.49,-11.32 26.94,-18.2 -7.94,-5.18 -16.84,-9.15 -26.32,-8.87 -18.84,0.61 -35.83,10.82 -50.69,22.31 -24.65,19.51 -45.37,44.01 -63.99,69.86 -2.77,-2.01 -5.56,-3.99 -8.32,-6 22.56,-31.31 45,-62.74 67.59,-94.06 22.14,-2.05 44.32,-3.85 66.48,-5.97 3.56,-0.61 7.12,-0.02 10.44,1.48 29.07,11.17 58.18,22.27 87.25,33.51 4.74,-8.19 9.33,-16.44 13.96,-24.67 -51.42,-23.13 -102.88,-46.17 -154.38,-69.12 -33.02,18.35 -64.06,41.66 -88.79,71.5zm127.98 72.09l0 0c-16.63,12.37 -31.94,29.63 -36.25,51.32 3.64,33.07 8.08,66.08 11.94,99.15 24.16,7.11 48.12,15 72.25,22.15 13.41,71.53 26.11,143.18 39.41,214.73 37.43,-0.28 74.86,0.02 112.32,-0.16 12.95,-70.7 25.78,-141.43 38.76,-212.13 0.32,-0.59 0.94,-1.8 1.26,-2.39 23.67,-7.98 47.8,-14.41 71.39,-22.61 4.04,-29.04 7.1,-58.26 10.9,-87.34 4.46,-17.78 -6.95,-34.17 -17.4,-46.79 -30.15,-32.98 -74.75,-43.97 -116.39,-48.18 17.59,33.59 35.39,67.05 52.96,100.67 -8.96,17.36 -17.89,34.76 -26.88,52.12 -4.33,-3.1 -8.66,-6.17 -12.97,-9.27 6.93,-17.55 13.47,-35.29 20.46,-52.84 -16.02,-29.21 -48.09,-44.35 -78.98,-45.67 -30.33,1.85 -61.78,16.68 -77.51,45.47 6.53,17.89 13.78,35.46 20.3,53.36 -4.34,2.96 -8.63,5.99 -12.87,9.09 -9.12,-17.25 -17.66,-34.83 -26.93,-51.96 17.29,-33.87 35.53,-67.17 52.88,-101 -34.36,3.54 -69.59,11.51 -98.65,32.28z"/>
  </g>
 </g>
</svg>
