<?xml version="1.0" encoding="UTF-8"?>
<!DOCTYPE svg PUBLIC "-//W3C//DTD SVG 1.1//EN" "http://www.w3.org/Graphics/SVG/1.1/DTD/svg11.dtd">
<!-- Creator: CorelDRAW -->
<svg xmlns="http://www.w3.org/2000/svg" xml:space="preserve" width="2000px" height="1600px" version="1.1" style="shape-rendering:geometricPrecision; text-rendering:geometricPrecision; image-rendering:optimizeQuality; fill-rule:evenodd; clip-rule:evenodd"
viewBox="0 0 2000 1600"
 xmlns:xlink="http://www.w3.org/1999/xlink">
 <defs>
  <style type="text/css">
   <![CDATA[
    .fil1 {fill:black;fill-rule:nonzero}
    .fil2 {fill:#850038;fill-rule:nonzero}
    .fil0 {fill:#FEFEFE;fill-rule:nonzero}
   ]]>
  </style>
 </defs>
 <g id="Capa_x0020_1">
  <metadata id="CorelCorpID_0Corel-Layer"/>
  <g id="Southern_x0020_Illinois_x0020_Salukis.cdr">
   <path class="fil0" d="M587.31 1112.58c6.73,-7.1 12.79,-14.85 19.98,-21.51 -1.51,22.76 -1.71,45.61 -3.44,68.37 -19.49,-0.27 -38.95,-0.01 -58.44,-0.12 13.54,-15.96 28.02,-31.1 41.9,-46.74zm471.9 6.69l0.46 0.02c13.92,0.24 27.82,-0.75 41.73,-1.04 -3.03,6.22 -5.8,12.57 -8.76,18.83 -14.07,0.73 -28.15,0.8 -42.23,1.08 3.25,-6.15 5.93,-12.56 8.8,-18.89zm-189.29 -8.19l0.56 0.04c16.8,1.55 33.57,3.24 50.38,4.57 -2.6,5.93 -5.31,11.82 -7.95,17.75 -16.99,-1.01 -33.89,-3.16 -50.83,-4.71 2.49,-5.93 5.33,-11.73 7.84,-17.65zm-151.21 -25.58c6.8,1.62 13.64,3.11 20.49,4.61 -2.44,5.67 -5.1,11.24 -7.55,16.9 -4.75,-0.89 -9.48,-1.89 -14.05,-3.44 0.64,-6 0.85,-12.05 1.11,-18.07zm-214.95 -57.18c12.5,0.24 25.06,-0.4 37.54,0.29 11.39,4.97 22.98,9.42 34.46,14.16 -4.22,4.62 -8.57,9.13 -12.74,13.8 -14.1,-5.25 -27.85,-11.35 -41.63,-17.39 -6.42,-2.67 -11.51,-7.6 -17.63,-10.86zm1078.57 -27.84c12.08,-1.95 24.71,-0.22 36.99,-0.78 -8.48,5.17 -17.01,10.33 -25.91,14.72 -12.88,0.56 -25.83,0.27 -38.75,0.11 9.39,-4.37 18.61,-9.06 27.67,-14.05zm223.26 -43.88c2.64,-6.04 5.99,-13.74 13.48,-14.48 9.72,-0.53 19.45,-0.04 29.19,-0.22 -0.57,1.43 -1.68,4.33 -2.22,5.78 -7.64,0.26 -15.29,0.09 -22.91,0.18 -0.87,1.93 -1.62,3.92 -2.07,5.99 6.2,0.89 16.84,-3.17 19.59,4.17 -3.78,7.73 -5.86,19.17 -15.57,21.43 -10.1,0.53 -20.25,0.05 -30.35,0.22 1.02,-2 2.07,-4.01 3.15,-5.99 7.16,0.11 14.33,0.07 21.5,0.07l1.44 -0.94c0.66,-1.78 1.33,-3.57 2.02,-5.33 -6.42,-0.4 -12.97,0.6 -19.27,-0.75 -2.07,-3.44 0.91,-6.95 2.02,-10.13zm-67.64 23.1c6.02,-12.53 11.73,-25.23 17.7,-37.79 4.58,0 9.2,0 13.83,0 -5.95,12.58 -11.68,25.24 -17.67,37.78 -4.62,-0.04 -9.26,-0.04 -13.86,0.01zm-149.12 -37.71c6.18,-0.13 12.37,-0.13 18.57,0.05 0.51,10.55 0.55,21.14 1.11,31.7 5.33,-10.36 10.1,-21.02 14.88,-31.64 1.46,-0.06 4.35,-0.19 5.81,-0.26 -5.73,12.67 -11.75,25.16 -17.49,37.83 -6.11,0 -12.22,0 -18.34,0 -0.5,-10.21 -0.6,-20.43 -1.1,-30.64 -6.57,9.26 -9.87,20.69 -15.32,30.71 -1.35,-0.02 -4.08,-0.07 -5.44,-0.09 5.58,-12.65 11.75,-25.02 17.32,-37.66zm-57.17 -0.11c4.58,0.03 9.19,0.03 13.81,0.03 -5.97,12.56 -11.79,25.17 -17.65,37.78 -4.62,-0.04 -9.22,-0.02 -13.83,-0.02 5.83,-12.63 11.67,-25.24 17.67,-37.79zm-92.13 37.77c5.78,-12.59 11.75,-25.13 17.52,-37.74 4.6,-0.01 9.24,-0.01 13.86,0.04 -4.82,10.64 -9.97,21.12 -14.7,31.8 6.11,0.02 12.24,0.04 18.38,-0.09 -0.97,2 -1.88,4.01 -2.79,6.01 -10.77,-0.02 -21.52,0.02 -32.27,-0.02zm-74.55 0c5.97,-12.54 11.76,-25.16 17.67,-37.74 4.6,0 9.22,0 13.86,0 -5.02,10.59 -9.89,21.25 -14.9,31.86 6.17,-0.02 12.38,-0.02 18.56,0 -1.02,1.97 -2.02,3.93 -3,5.92 -10.74,-0.06 -21.47,0 -32.19,-0.04zm-39.91 -37.68c4.63,-0.07 9.29,-0.07 13.95,0.02 -5.86,12.53 -11.75,25.03 -17.47,37.64 -4.62,0.02 -9.22,0.04 -13.82,0.07 5.53,-12.7 11.79,-25.05 17.34,-37.73zm-111.13 -0.02c6.24,-0.07 12.5,-0.13 18.75,0.15 -0.05,10.51 0.11,21.05 1.15,31.51 4.91,-10.52 9.81,-21.05 14.7,-31.6 1.4,-0.02 4.22,-0.08 5.64,-0.11 -5.66,12.64 -11.79,25.09 -17.47,37.73 -6.13,0.06 -12.28,0.06 -18.41,-0.02 -0.69,-10.53 0,-21.19 -1.44,-31.66 -5,10.58 -9.91,21.18 -14.86,31.77 -1.36,-0.03 -4.09,-0.07 -5.46,-0.11 5.61,-12.64 11.66,-25.07 17.4,-37.66zm-156.96 -0.04c10.75,0 21.52,0 32.29,0 -0.95,1.97 -1.87,3.94 -2.8,5.92 -6.12,-0.02 -12.23,0 -18.34,-0.04 -1.49,3.17 -2.99,6.31 -4.44,9.5 5.6,0.11 11.21,0.11 16.83,0.14 -0.66,1.46 -1.98,4.35 -2.66,5.81 -5.67,0.38 -11.62,-0.68 -17.1,0.56 -1.86,3.2 -3.22,6.64 -4.82,9.97 6.16,-0.03 12.33,-0.02 18.5,-0.02 -0.94,1.97 -1.87,3.93 -2.78,5.92 -10.79,0.02 -21.58,-0.04 -32.35,0.03 5.97,-12.55 11.79,-25.18 17.67,-37.79zm-83.13 0.26c4.73,-0.31 9.46,-0.31 14.21,-0.26 -2.39,5.15 -4.83,10.28 -7.17,15.45 3.75,0 7.53,0.04 11.3,0.11 2.56,-5.06 4.94,-10.21 7.18,-15.43 4.66,-0.16 9.34,-0.16 14.01,-0.02 -5.89,12.52 -11.81,25.02 -17.52,37.61 -4.62,0.02 -9.22,0.04 -13.84,0.07 2.49,-5.46 5.02,-10.89 7.51,-16.35 -3.82,-0.06 -7.61,-0.08 -11.41,-0.11 -2.55,5.44 -5.11,10.86 -7.57,16.34 -4.64,0.07 -9.26,0.11 -13.88,0.12 5.59,-12.57 11.86,-24.83 17.18,-37.53zm-79.79 -0.2c12.65,-0.13 25.33,-0.02 37.99,-0.06 -0.91,1.97 -1.8,3.95 -2.69,5.94 -4.02,-0.04 -8.02,-0.04 -12.03,-0.04 -4.98,10.61 -9.88,21.25 -14.88,31.84 -4.67,-0.02 -9.35,0.11 -14.01,0.02 5.28,-10.48 10.08,-21.2 15.01,-31.84 -3.96,-0.02 -7.93,0 -11.88,0.03 0.62,-1.47 1.88,-4.42 2.49,-5.89zm-81.94 0.15c4.62,-0.26 9.28,-0.24 13.92,-0.19 -4.92,10.57 -9.66,21.22 -14.49,31.81 4.1,-0.17 8.41,0.58 12.38,-0.77 5.75,-9.9 9.49,-20.85 14.55,-31.11 4.4,0.05 8.81,0.05 13.23,0.05 -4.24,9.25 -8.3,18.6 -12.63,27.81 -2.2,4.78 -6.11,9.6 -11.79,9.84 -10.61,0.31 -21.21,0 -31.8,0.11 5.49,-12.54 11.28,-24.95 16.63,-37.55zm-171.75 23.5c3.09,-8.37 5.56,-19.28 14.59,-23.05 10.4,-1.47 21.07,-0.29 31.58,-0.62 -0.8,1.86 -1.65,3.68 -2.6,5.48 -7.19,1.09 -14.59,-0.15 -21.83,0.54 -2.02,1.2 -2.5,3.68 -3.33,5.72 5.93,0.36 12.1,-0.79 17.86,1.01 3.44,1.19 1.51,5.15 0.51,7.43 -3.29,6.31 -5.35,15.12 -13.19,17.15 -10.24,0.9 -20.57,0.15 -30.85,0.37 0.76,-1.89 1.51,-3.78 2.27,-5.68 7.62,-0.36 15.25,-0.23 22.89,-0.14 0.91,-2.09 1.74,-4.22 2.56,-6.34 -6.78,-0.76 -14.21,1.46 -20.46,-1.87zm873.46 -263.72c24.87,13.99 49.96,27.91 72.83,45.06 7.66,5.9 14.98,12.41 20.6,20.34 -3.53,2.15 -6.66,4.86 -9.39,7.98 -10.88,-14.85 -25.15,-26.64 -39.08,-38.47 -14.69,-12.02 -29.7,-23.63 -44.96,-34.91zm-1053.48 -110.2c5.33,-4.03 10.52,-8.32 16.38,-11.58 3,-0.76 6.11,0.42 9.13,0.73 41.83,7.53 81.62,23.64 123.67,30.11 25.83,4.21 52.25,5.57 78.29,2.35 -15.07,5.91 -31.19,8.95 -47.38,8.88 -61.48,-0.8 -118.35,-32.17 -180.09,-30.49zm341.96 -19.31c9.41,-5.09 18.32,-11.02 27.57,-16.37 -16.4,18.06 -37.07,33.07 -60.34,40.9 -17.39,5.95 -37.79,4.51 -52.43,-7.32 29.4,5.24 59.53,-2.83 85.2,-17.21zm-295.22 -39.21c16.85,8.05 34.57,15.14 53.4,16.34 24.71,2.64 48.69,-8.97 73.34,-5.18 -25.09,3.62 -49.59,12.66 -75.19,11.57 -19.25,-1 -37.39,-9.92 -51.55,-22.73zm706.15 -17.83c11.94,-5.29 25.97,-2.89 36.28,4.81 15.83,9.88 26.69,28.45 46.24,31.55 -4.75,1.36 -9.76,3.05 -14.72,1.61 -10.01,-2.36 -17.03,-10.33 -24.49,-16.81 -10.19,-2.53 -20.8,0.8 -30.42,4.22 3.76,11.5 12.29,21.53 23.68,26.04 -16.59,-0.76 -28.83,-14.17 -34.56,-28.77 10.33,-6.13 22.61,-10.49 34.71,-7.75 -10.01,-9.22 -22.96,-15.04 -36.72,-14.9zm-389 -35.33c12.09,-6.6 25.96,-10.93 39.88,-9.52 11.19,0.93 21.85,4.64 32.8,6.86 -11.03,0.91 -22.18,0.59 -33.06,2.84 -18.08,3.2 -35.02,11.77 -48.69,24 -17.01,15.59 -35.49,29.93 -56.32,40.05 -15.34,7.24 -32.46,12.19 -49.55,10.11 -12.71,-1.49 -24.83,-7.29 -33.91,-16.34 15.92,6.41 33.57,9.46 50.51,5.5 17.41,-3.57 33.13,-12.99 46.21,-24.8 16.32,-14.21 33.06,-28.28 52.13,-38.7zm-250.17 -61.46c130.36,-48.92 269.51,-71.67 408.33,-76.52 145.13,-4.55 291.61,10.35 431.36,50.74 77.38,22.72 153,53.34 221.3,96.59 52.34,33.39 101.07,74.78 134.6,127.62 18.5,29.45 31.82,62.55 35.97,97.22 4.56,36.45 -0.98,73.93 -15.01,107.8 -15.27,37.63 -40.07,70.6 -68.38,99.38 -8.53,1.22 -17.34,0.18 -25.98,0.48 25.38,-23.26 48.02,-49.89 64.76,-80.08 17.19,-31 27.67,-66.13 27.45,-101.76 0.31,-35.77 -10.12,-71.08 -27.4,-102.23 -24.78,-44.72 -62.06,-81.26 -102.85,-111.48 -56.57,-41.61 -120.57,-72.12 -186.42,-95.9 -74.83,-26.82 -152.68,-44.77 -231.32,-56.09 -95.61,-13.61 -192.57,-17.5 -288.99,-12.37 -71.6,3.84 -142.97,12.79 -213.13,27.65 -76.98,16.47 -152.78,39.85 -224.08,73.49 -23.07,11.19 -45.99,22.83 -67.63,36.64 25.95,7.26 55.79,7.43 79.42,-6.91 10.19,-5.91 17.03,-15.81 26,-23.22 23.11,-19.81 54.91,-28.18 84.89,-23.85 4.3,1.26 7.81,-1.89 11.34,-3.8 45.23,-27.06 97.41,-43.34 150.3,-43.63 32.06,-0.49 64.3,4.67 94.37,15.85 24.73,-12.6 52.64,-19.42 80.44,-17.45 24.92,1.49 48.9,9.89 70.81,21.58 12.52,-3.15 25.98,-4.15 38.43,-0.11 36.42,11.26 74.9,11.11 112.36,16.33 24.68,3.86 50.2,9.25 70.96,23.88 12.17,8.57 25.05,16.7 39.59,20.52 15.85,5.13 31.84,14.53 39.16,30.2 3.42,6.68 3.62,14.32 3.03,21.65 -1,10.41 5.44,19.4 11.41,27.26 15.43,19.17 35.41,34 55.42,48.08 33.75,23.24 69.5,43.34 104.87,63.97 29.95,17.63 60.41,34.79 87.68,56.48 10.15,7.93 18.85,17.5 26.56,27.75 19.47,11.18 38.92,25.56 48.18,46.73 4.13,8.74 3.6,19.18 -1.31,27.5 -9.79,17.26 -27.04,29.33 -45.34,36.22 -11.41,4.66 -23.91,3.59 -35.9,5.06 -22.37,2.09 -44.95,1.16 -67.17,-2.07 -23.4,21.36 -52.49,37.31 -84.11,41.84 -34.97,5.39 -70.27,-2.8 -103.29,-13.94 -60.82,-21.05 -118.37,-52.34 -182.1,-64.4 -39.72,-8.03 -80.77,-5.41 -120.48,1.23 -32.37,5.39 -63.58,16.34 -93.03,30.64 -31.68,15.49 -62.88,32.13 -96.03,44.27 -24.22,-30.86 -58.46,-53.45 -96.28,-63.75 -28.4,-7.77 -58.46,-10.28 -87.61,-5.66 -17.01,-44.96 -46.74,-86.29 -88.17,-111.62 -17.37,-10.55 -36.71,-18.07 -56.85,-21.05 -14.05,-2.11 -28.1,-4.22 -42.14,-6.26 39.97,-17.34 79.93,-34.73 120.42,-50.8 -39.89,-6.77 -78.03,-21.98 -118.44,-25.91 -25.69,-2.53 -52.33,0.86 -75.58,12.48 -14.9,7.57 -28.96,16.69 -43.5,24.91 3.48,-7.62 7,-15.21 10.54,-22.81 17.39,-43.27 57.82,-73.05 100.44,-88.85 -17.01,-11.29 -33.75,-22.96 -50.28,-34.95 -36.25,24.46 -69.94,53.28 -97.03,87.74 -27.68,35.18 -47.82,77.54 -51.33,122.59 -4,43.66 8.26,87.78 30.69,125.15 15.96,27.08 36.9,50.84 59.64,72.4 -8.11,-0.13 -16.22,0.16 -24.34,-0.09 -5.11,-3.31 -8.7,-8.55 -12.95,-12.85 -35.43,-38.75 -63.06,-86.51 -70.36,-139.11 -6.8,-45.16 2.95,-91.88 24.05,-132.11 18.54,-35.53 44.76,-66.59 74.36,-93.41 62.34,-55.98 137.84,-95.17 215.68,-124.88zm319.28 8.62l0 0c-27.16,-11.04 -56.52,-15.93 -85.74,-16.77 -58.28,-1.62 -116.1,16.88 -164.77,48.52 -27.2,-5.91 -57.17,-0.29 -79.4,16.78 -10.9,8.02 -18.61,19.72 -30.33,26.74 -26.18,16.69 -59.64,17.25 -88.82,9.1 19.54,14.76 39.81,28.75 61.66,39.9 -45.87,10.66 -91.17,36.52 -114.39,78.82 22.45,-12.87 48.01,-20.83 74.03,-20.42 56.88,-1.05 109.17,26.99 165.59,29.9 26,1.42 52.54,-4.68 74.63,-18.65 21.6,8.02 45.72,7.38 67.48,0.29 32.02,-10.3 59.61,-30.15 87.15,-48.83 19.03,-12.79 38.14,-26.4 60.19,-33.45 12.04,-4.05 25.43,-3.94 37.06,1.44 -7.62,4.75 -16.36,7.28 -24.25,11.5 15.12,5.59 31.56,7.64 47.54,5.46 30.27,-3.8 56.62,-20.27 84.46,-31.44 20.15,-8.06 43.1,-14.14 64.49,-7.41 -15.92,1.04 -31.62,4.48 -46.7,9.57 -34.17,10.74 -63.68,33.34 -98.96,40.89 -25.18,5.64 -51.18,-0.84 -74.14,-11.43 -44.68,22.33 -81.05,59.4 -128.69,76.13 -24.67,8.98 -52.22,8.29 -76.59,-1.28 -16.85,12.68 -38.39,17.49 -59.14,18.27 -6.76,0.56 -13.93,-1.47 -20.32,1.47 -33.6,12.83 -66.92,26.4 -99.81,40.94 18.28,3.18 36.13,9 52.47,17.88 45.41,24.24 79.16,66.65 98.63,113.77 27.95,-3.13 56.48,-0.36 83.51,7.22 37.28,10.28 71.38,31.77 96.49,61.23 46.61,-17.69 88.76,-45.58 136.38,-60.86 36.4,-12.06 74.79,-16.96 113,-18.36 46.42,-0.76 91.88,11.52 134.95,27.89 36.22,13.54 71.32,30.02 107.96,42.52 30.62,10.39 63.28,17.87 95.76,13.39 30.02,-3.84 57.67,-18.92 79.8,-39.19 -24.89,6.12 -51.22,8.43 -76.31,2.13 -35.71,-8.59 -65.46,-31.15 -96.15,-50.12 -32.83,-21.05 -68.27,-38.43 -106.02,-48.58 18.48,-9.44 39.95,-14.01 60.57,-10.3 25.43,4.29 47.96,17.76 69.52,31.24 30.98,19.89 61.57,40.95 95.73,55.16 29.33,12.41 60.92,19.62 92.79,20.53 18.22,1.2 36.36,-1.48 54.53,-2.24 16.8,-2.27 32.26,-11.48 43.8,-23.69 6.38,-6.97 12.75,-16.87 8.29,-26.49 -8.66,-20.12 -27.65,-33.55 -46.65,-43.08 -7.22,-13.32 -19.07,-23.2 -30.93,-32.26 -21.1,-15.92 -43.96,-29.29 -66.66,-42.76 -37.3,-21.92 -75.18,-42.92 -111.19,-66.97 -21.37,-14.48 -42.57,-29.78 -60.04,-48.96 -9.06,-10.34 -18.19,-21.96 -20.01,-36.03 -1.24,-6.69 1.96,-13.62 -0.95,-20.12 -5.16,-13.53 -18.95,-21.23 -31.98,-25.63 -17.81,-4.37 -33.02,-15.05 -47.92,-25.24 -18.6,-11.33 -40.43,-15.61 -61.66,-18.92 -38.16,-5.19 -77.33,-5.3 -114.37,-16.88 -9.43,-3.17 -19.6,-2.23 -29.17,-0.31 7.28,6.04 14.48,12.33 20.03,20.06 -20.39,-15.21 -42.48,-28.87 -67.24,-35.6 -36.28,-10.72 -76.49,-5.26 -109.19,13.53zm392.82 335.54l0 0c7.09,3.46 14.52,6.24 21.63,9.73 30.31,14.09 57.87,33.15 86.13,50.82 24.23,14.94 51.02,28.51 80.11,28.78 -37.28,-14.9 -70.78,-37.26 -104.31,-59 -25.11,-15.83 -52.76,-32.11 -83.56,-30.33zm-993.51 187.49c16.01,-9.41 34.4,-15.01 53.03,-15.14 79.33,0.04 158.64,0 237.96,0.02 -12.1,26.38 -24.16,52.8 -36.26,79.16 -58.18,-0.05 -116.35,0 -174.51,-0.01 -3.21,6.6 -6.23,13.3 -9.23,20.01 23.12,0.2 46.27,-0.46 69.37,0.47 19.2,0.13 39.29,-1.63 57.35,6.23 9.74,3.96 18.32,11.69 21.36,21.99 3.97,12.87 0.26,26.51 -4.55,38.61 -10.55,24.02 -22.03,47.61 -32.45,71.67 45.13,-47.85 89.46,-96.5 134.5,-144.46 32.54,0.05 65.09,0.09 97.64,-0.02 -2.72,62.6 -6.66,125.14 -9.28,187.74 28.8,-62.53 57.36,-125.17 86.13,-187.72 35.91,0.09 71.81,0.01 107.72,0.03 -26.09,57.37 -52.54,114.57 -78.67,171.94 28.51,-0.02 57.04,0.05 85.57,-0.04 26.14,-57.33 52.38,-114.62 78.6,-171.92 35.77,0.04 71.56,0.02 107.34,0.02 -26.1,57.68 -52.76,115.12 -78.79,172.85 22.65,-0.02 45.3,0.07 67.95,-0.04 3.49,0.09 6.99,-1.51 8.17,-5 25.56,-55.57 51.07,-111.19 76.45,-166.84 149.98,-0.13 299.95,0 449.91,-0.06 -6.12,13.88 -12.79,27.53 -18.82,41.47 8.86,-12.54 19.07,-24.51 32.57,-32.24 11.26,-6.72 24.33,-10.45 37.46,-10.59 58.73,-0.02 117.48,0.03 176.23,-0.02 -9.64,21.23 -19.52,42.35 -29.09,63.62 -40.15,0.02 -80.31,0.13 -120.47,0.48 -0.43,1.03 -1.32,3.11 -1.76,4.13 15.99,0.05 31.99,-0.06 48,0.05 12.53,0.4 25.85,1.8 36.44,9.17 9.41,6.33 14.85,17.89 13.99,29.17 -0.76,15.13 -9.33,28.2 -15.06,41.82 -9.37,19.02 -16.18,39.69 -29.79,56.26 -15.06,19.49 -39.3,31.26 -63.91,30.95 -126.56,-0.16 -253.1,0.22 -379.64,-0.18 -1.4,-24.26 -2.35,-48.58 -4.62,-72.76 -11.85,24.36 -23.58,48.8 -35.72,73.01 -36.24,-0.23 -72.48,0 -108.71,-0.11 2.38,-5.56 5.04,-11 7.53,-16.52 -7.47,4.57 -14.99,9.32 -23.45,11.86 -13.83,4.7 -28.58,4.94 -43.03,4.68 -55.16,0.02 -110.33,-0.02 -165.51,0.02 -36.99,-0.93 -74.01,-0.27 -111.04,-0.47 -74.74,0.01 -149.48,-0.04 -224.24,0.03 0.56,-18.54 1.4,-37.06 2.22,-55.56 -22.93,0.05 -45.87,0.07 -68.81,-0.02 -17.47,18.39 -34.77,36.95 -52.09,55.47 -25.15,0.13 -50.29,0.09 -75.42,0.02 2.64,-2.82 5.21,-5.71 7.81,-8.55 -14.65,5.77 -30.33,9.01 -46.09,9.08 -77.47,-0.05 -154.96,0.02 -232.45,-0.04 12.01,-26.41 24.13,-52.76 36.23,-79.14 57.4,0.11 114.79,-0.11 172.19,0.11 4.56,-8.03 9.19,-16.03 13.39,-24.24 -32.84,0.09 -65.68,-0.02 -98.5,0.04 -13.16,0.13 -27.02,-0.77 -38.78,-7.22 -9.28,-4.97 -14.53,-15.58 -14.13,-25.93 0.16,-16.81 7.07,-32.57 13.93,-47.61 9.41,-20.47 18.73,-41 28.15,-61.46 12.85,-27.77 33.15,-52.62 59.68,-68.27zm6.89 9.41l0 0c-23.56,12.72 -41.08,34.68 -52.14,58.75 -9.79,21.19 -19.43,42.46 -29.18,63.69 -5.28,11.56 -10.19,23.6 -11.29,36.39 -0.47,7.26 1.51,15.34 7.57,19.94 8.34,6.24 19.2,7.28 29.28,7.74 34.51,0.07 69.04,-0.04 103.56,0.05 4.49,0.24 10.33,0.24 12.52,4.99 -0.88,6.85 -4.83,12.73 -7.43,19.01 -3.64,7.37 -6.35,15.26 -10.88,22.16 -4.38,6.22 -12.7,7 -19.67,7.04 -52.47,-0.07 -104.94,0.06 -157.39,-0.07 -7.68,16.68 -15.34,33.38 -22.96,50.09 72.85,0 145.69,-0.02 218.54,0.01 19.31,-0.12 38.85,-5.14 54.84,-16.21 20.09,-13.61 33.86,-34.6 43.63,-56.44 10.81,-23.78 21.78,-47.48 32.53,-71.26 4.59,-10.19 7.75,-21.65 5.24,-32.79 -1.85,-7.75 -7.84,-13.92 -14.94,-17.21 -12.75,-6.08 -27.25,-6.49 -41.11,-6.24 -26.75,-0.04 -53.5,0.07 -80.22,-0.05 -4.5,-0.44 -9.7,-0.04 -13.36,-3.13 -1.91,-3.86 0.8,-7.92 2.24,-11.43 4.3,-8.66 7.79,-17.72 12.43,-26.18 4.04,-7.31 13.19,-8.64 20.76,-8.75 52.54,-0.11 105.11,0.09 157.67,-0.11 7.35,-16.74 15.43,-33.17 22.65,-49.98 -74.71,0.03 -149.39,-0.02 -224.1,0.02 -13.48,0.12 -26.89,3.58 -38.79,9.97zm315.65 82.74l0 0c-64.28,68.81 -128.3,137.86 -192.2,207.02 12.77,-0.31 25.65,0.67 38.33,-0.46 17.49,-18.12 34.52,-36.71 51.84,-55.02 29.55,0.08 59.11,-0.12 88.68,0.09 -1.04,18.45 -1.42,36.96 -2.44,55.41 27.56,0 55.15,0 82.73,0 3.33,-69 6.95,-137.97 10.62,-206.94 -25.85,-0.1 -51.7,0.07 -77.56,-0.1zm177.1 0.1l0 0c-31.53,69.01 -63.27,137.91 -94.81,206.94 58.74,0.03 117.45,-0.08 176.18,0.05 5.37,-11.52 10.57,-23.09 15.9,-34.62 -32.77,-0.02 -65.52,0.03 -98.28,-0.02 26.43,-57.29 52.43,-114.77 79.03,-171.97 -25.98,-0.95 -52.02,-0.17 -78.02,-0.38zm192.99 0.45l0 0c-31.38,69.01 -63.1,137.89 -94.48,206.9 69.92,0.09 139.84,-0.01 209.78,0.08 13.66,0.03 27.52,-3.35 39.19,-10.63 16.84,-10.81 27.69,-28.42 36.28,-46.05 22.94,-49.92 45.81,-99.88 68.68,-149.84 -26,-0.02 -52.02,-0.1 -78.04,0.03 -23.18,51.02 -46.66,101.87 -69.97,152.81 -2.75,5.54 -5.1,11.79 -10.35,15.49 -4.22,3.09 -9.63,3.64 -14.69,3.62 -29.13,-0.15 -58.25,0.11 -87.36,-0.15 26.23,-57.35 52.32,-114.77 78.69,-172.06 -25.91,-0.51 -51.82,-0.11 -77.73,-0.2zm275.97 -0.47l0 0c-31.61,68.97 -63.23,137.93 -94.85,206.92 26.02,0.09 52.04,0.02 78.06,0.02 9.4,-20.82 19.03,-41.54 28.49,-62.35 1.16,-3.42 4.38,-5.32 7.13,-7.35 7.51,-5.37 14.97,-10.81 22.4,-16.32 1.73,28.67 3.38,57.36 5.22,86.04 30.18,0 60.35,0 90.51,0 -5.76,-47.75 -11.44,-95.51 -17.06,-143.25 29,-21.28 58.27,-42.23 87.17,-63.68 -31.02,-0.07 -62.03,-0.05 -93.03,-0.01 -2.38,-0.33 -4.15,1.4 -5.88,2.67 -16.14,12.55 -32.29,25.03 -48.56,37.41 6.12,-13.38 12.3,-26.69 18.34,-40.08 -25.98,-0.06 -51.96,-0.02 -77.94,-0.02zm136.82 69.75l0 0c-0.44,0.57 -1.31,1.7 -1.75,2.24 3.93,35.44 8.5,70.81 12.5,106.26 0.11,1.76 0.57,3.56 1.42,5.16 27.8,-61.18 56.42,-122.03 83.73,-183.41 -32.06,23.12 -63.95,46.48 -95.9,69.75zm242.84 -66.37l0 0c-19.71,6.57 -34.55,23.03 -43.74,41.16 -7.17,15.43 -14.08,30.96 -21.18,46.41 -3.91,8.53 -7.64,17.41 -8.17,26.91 -0.05,4.8 1.51,10.04 5.6,12.93 6.44,4.52 14.65,4.88 22.24,5.19 23.67,0.11 47.37,-0.13 71.05,0.09 2.85,-0.09 7.76,1.4 6.04,5.31 -3.15,8.26 -7.16,16.18 -11.03,24.13 -2.18,5.18 -8.13,7.02 -13.32,6.86 -36.75,0.2 -73.5,-0.29 -110.24,0.23 -4.84,11.61 -10.39,22.91 -15.57,34.36 50.98,-0.02 101.96,0.03 152.94,-0.02 16.66,-0.28 33.15,-6.93 44.98,-18.74 13.6,-13.21 20.55,-31.15 28.34,-48 5.35,-11.75 10.99,-23.36 16.1,-35.2 3.22,-8.32 5.32,-19.07 -0.98,-26.46 -7.42,-8.46 -19.63,-9.22 -30.11,-9.77 -21.27,-0.27 -42.54,0.07 -63.79,-0.14 -2.71,0.21 -4.87,-1.44 -6.86,-2.93 3.3,-8.21 6.84,-16.32 10.81,-24.24 3.02,-5.91 10.44,-6.24 16.26,-6.44 35.56,0.04 71.11,-0.05 106.64,0.06 5.44,-11.45 10.61,-23.02 15.88,-34.54 -45.72,-0.23 -91.42,-0.03 -137.14,-0.09 -11.61,0.13 -23.58,-0.98 -34.75,2.93zm-132.29 -2.35l0 0c-31.37,69.03 -63.14,137.9 -94.7,206.85 25.98,-0.03 51.98,0 77.98,-0.01 31.73,-68.94 63.27,-137.95 94.88,-206.94 -26.06,0.01 -52.11,-0.19 -78.16,0.1zm48.01 98.84l0 0c-9.41,19.08 -17.83,38.64 -26.82,57.92 39.96,0.04 79.91,0.11 119.87,-0.03 1.03,-2.4 2.09,-4.8 3.14,-7.19 -19.76,-0.11 -39.51,0.13 -59.27,-0.11 -13.03,-0.42 -28.11,-3.51 -35.46,-15.48 -7.01,-10.48 -4.97,-23.78 -1.46,-35.11zm-824.3 -198.94c7.18,-2.75 15.12,-0.96 22.65,-1.49 3.87,0.25 10.06,-1.04 11.44,3.98 -1.31,6.95 -5.29,12.99 -7.98,19.43 -2.55,5.77 -5.83,12.49 -12.6,13.98 -8.47,0.85 -17.04,0.25 -25.54,0.38 -2.87,0.2 -6.64,-1.46 -5.86,-4.97 1.2,-5.78 4.59,-10.82 6.81,-16.25 2.63,-5.62 4.94,-12.33 11.08,-15.06zm8.84 4.64l0 0c-2.37,1.47 -3.15,4.33 -4.37,6.66 -2.71,6.33 -6.24,12.32 -8.11,18.99 3.91,0 7.91,0.51 11.77,-0.38 4.17,-8.2 9.04,-16.45 11.24,-25.43 -3.53,-0.02 -7.04,-0.22 -10.53,0.16zm390.79 -6.06c10.26,0.02 20.56,-0.2 30.84,0.06 2.6,-0.3 4.59,1.4 6.3,3.14 -3.33,6.81 -4.81,17.2 -13.81,18.47 0.09,5.35 -0.71,10.9 0.96,16.1 -5.38,0 -10.77,-0.07 -16.14,-0.13 0.26,-5.43 0.6,-10.88 0.66,-16.32 -1.26,0.02 -3.75,0.04 -4.99,0.06 -2.45,5.49 -4.95,10.97 -7.6,16.37 -4.64,-0.05 -9.26,-0.05 -13.87,-0.03 6.06,-12.48 11.81,-25.13 17.65,-37.72zm11.12 5.9l0 0c-1.48,3.18 -2.93,6.38 -4.35,9.6 3.64,-0.11 7.37,0.17 10.99,-0.47 2.07,-2.66 3.22,-5.86 4,-9.1 -3.56,-0.05 -7.11,-0.07 -10.64,-0.03zm521.11 11.37c3.02,-6.88 6.43,-15.45 14.78,-17 8.6,-0.56 17.32,-0.49 25.94,-0.05 3.57,-0.31 5.72,3.75 4.13,6.79 -2.84,7.45 -6.53,14.57 -9.93,21.79 -2.93,6.1 -9.52,9.94 -16.29,8.95 -8.27,-0.81 -17.21,1.75 -25.01,-1.76 -0.55,-6.91 3.97,-12.61 6.38,-18.72zm17.43 -7.72l0 0c-3.22,7.37 -7.38,14.36 -9.51,22.13 3.64,0.09 7.31,0.14 10.97,0.27 5.09,-8.04 8.99,-16.92 12.24,-25.85 -4.6,0.29 -11.79,-2.5 -13.7,3.45zm-1105.47 193.81l0 0c5,-0.08 9.99,-0.09 14.99,-0.04 0.09,-5.71 0.51,-11.43 0.58,-17.12 -5.38,5.53 -10.48,11.35 -15.57,17.16z"/>
   <path class="fil1" d="M893.35 427.18c32.7,-18.79 72.91,-24.25 109.19,-13.53 24.76,6.73 46.85,20.39 67.24,35.6 -5.55,-7.73 -12.75,-14.02 -20.03,-20.06 9.57,-1.92 19.74,-2.86 29.17,0.31 37.04,11.58 76.21,11.69 114.37,16.88 21.23,3.31 43.06,7.59 61.66,18.92 14.9,10.19 30.11,20.87 47.92,25.24 13.03,4.4 26.82,12.1 31.98,25.63 2.91,6.5 -0.29,13.43 0.95,20.12 1.82,14.07 10.95,25.69 20.01,36.03 17.47,19.18 38.67,34.48 60.04,48.96 36.01,24.05 73.89,45.05 111.19,66.97 22.7,13.47 45.56,26.84 66.66,42.76 11.86,9.06 23.71,18.94 30.93,32.26 19,9.53 37.99,22.96 46.65,43.08 4.46,9.62 -1.91,19.52 -8.29,26.49 -11.54,12.21 -27,21.42 -43.8,23.69 -18.17,0.76 -36.31,3.44 -54.53,2.24 -31.87,-0.91 -63.46,-8.12 -92.79,-20.53 -34.16,-14.21 -64.75,-35.27 -95.73,-55.16 -21.56,-13.48 -44.09,-26.95 -69.52,-31.24 -20.62,-3.71 -42.09,0.86 -60.57,10.3 37.75,10.15 73.19,27.53 106.02,48.58 30.69,18.97 60.44,41.53 96.15,50.12 25.09,6.3 51.42,3.99 76.31,-2.13 -22.13,20.27 -49.78,35.35 -79.8,39.19 -32.48,4.48 -65.14,-3 -95.76,-13.39 -36.64,-12.5 -71.74,-28.98 -107.96,-42.52 -43.07,-16.37 -88.53,-28.65 -134.95,-27.89 -38.21,1.4 -76.6,6.3 -113,18.36 -47.62,15.28 -89.77,43.17 -136.38,60.86 -25.11,-29.46 -59.21,-50.95 -96.49,-61.23 -27.03,-7.58 -55.56,-10.35 -83.51,-7.22 -19.47,-47.12 -53.22,-89.53 -98.63,-113.77 -16.34,-8.88 -34.19,-14.7 -52.47,-17.88 32.89,-14.54 66.21,-28.11 99.81,-40.94 6.39,-2.94 13.56,-0.91 20.32,-1.47 20.75,-0.78 42.29,-5.59 59.14,-18.27 24.37,9.57 51.92,10.26 76.59,1.28 47.64,-16.73 84.01,-53.8 128.69,-76.13 22.96,10.59 48.96,17.07 74.14,11.43 35.28,-7.55 64.79,-30.15 98.96,-40.89 15.08,-5.09 30.78,-8.53 46.7,-9.57 -21.39,-6.73 -44.34,-0.65 -64.49,7.41 -27.84,11.17 -54.19,27.64 -84.46,31.44 -15.98,2.18 -32.42,0.13 -47.54,-5.46 7.89,-4.22 16.63,-6.75 24.25,-11.5 -11.63,-5.38 -25.02,-5.49 -37.06,-1.44 -22.05,7.05 -41.16,20.66 -60.19,33.45 -27.54,18.68 -55.13,38.53 -87.15,48.83 -21.76,7.09 -45.88,7.73 -67.48,-0.29 -22.09,13.97 -48.63,20.07 -74.63,18.65 -56.42,-2.91 -108.71,-30.95 -165.59,-29.9 -26.02,-0.41 -51.58,7.55 -74.03,20.42 23.22,-42.3 68.52,-68.16 114.39,-78.82 -21.85,-11.15 -42.12,-25.14 -61.66,-39.9 29.18,8.15 62.64,7.59 88.82,-9.1 11.72,-7.02 19.43,-18.72 30.33,-26.74 22.23,-17.07 52.2,-22.69 79.4,-16.78 48.67,-31.64 106.49,-50.14 164.77,-48.52 29.22,0.84 58.58,5.73 85.74,16.77zm-173.22 798.49c50.78,0.16 101.56,0.02 152.34,0.07 -1.6,4.22 -3.28,8.41 -5.19,12.5 -50.98,0.51 -101.99,0.15 -153.01,0.18 1.78,-4.33 3.75,-8.56 5.86,-12.75zm521.01 -32.29c8.35,-6.14 16.84,-12.07 25.12,-18.33 -7.91,20.05 -17.94,39.23 -26.43,59.04 -1.06,1.62 -1.53,4.88 -4.19,4.32 -17.45,0.18 -34.91,0.03 -52.36,0.03 1.76,-4.18 3.58,-8.33 5.4,-12.5 12.26,-0.63 24.58,0.33 36.85,-0.54 2.96,-7.92 6.62,-15.54 9.87,-23.33 1.41,-3.18 2.59,-6.77 5.74,-8.69zm-718.22 -10.56c3.66,-4.36 6.9,-9.57 11.88,-12.46 22.11,-0.27 44.25,-0.07 66.36,-0.07 -0.19,4.2 -0.37,8.4 -0.49,12.62 -25.91,0.08 -51.84,0.26 -77.75,-0.09zm1056.05 -28.02c25.59,0.08 51.21,-0.23 76.81,0.15 7.44,-0.07 16.01,5.15 15.78,13.35 -27.17,-1.92 -54.48,0.02 -81.68,-1.01 -3.46,-0.28 -6.89,-1 -10.02,-2.41 -2.11,-2.96 -0.79,-6.76 -0.89,-10.08zm-22.33 -12.49c-3.51,11.33 -5.55,24.63 1.46,35.11 7.35,11.97 22.43,15.06 35.46,15.48 19.76,0.24 39.51,0 59.27,0.11 -1.05,2.39 -2.11,4.79 -3.14,7.19 -39.96,0.14 -79.91,0.07 -119.87,0.03 8.99,-19.28 17.41,-38.84 26.82,-57.92zm-980.48 3c5.09,-5.81 10.19,-11.63 15.57,-17.16 -0.07,5.69 -0.49,11.41 -0.58,17.12 -5,-0.05 -9.99,-0.04 -14.99,0.04zm1168.64 -22.18c4.83,0.89 11.41,2.33 12.63,7.99 0.47,5.69 -1.76,11.13 -3.98,16.24 -7.08,15.3 -14.12,30.61 -21.14,45.93 -5.41,11.97 -12.07,23.81 -22.2,32.42 -9.55,8.09 -21.94,12.82 -34.5,12.79 -45.39,-0.11 -90.8,0.14 -136.2,-0.13 1.87,-4.15 3.75,-8.3 5.59,-12.46 33.2,-0.4 66.41,-0.06 99.63,-0.17 12.77,-0.18 26.12,1.33 38.2,-3.95 15.27,-6.02 26.24,-19.35 33.28,-33.8 8.14,-16.83 15.61,-33.97 23.6,-50.85 2.18,-4.5 3.82,-9.21 5.09,-14.01zm-1527.67 -2.13c5.17,0.64 10.36,1.4 15.6,1.49 35.09,0.13 70.21,-0.25 105.3,0.17 9.08,-0.21 18.18,4.6 20.82,13.71 -6.79,-0.58 -13.59,-1.23 -20.42,-1.16 -31.53,0.05 -63.08,-0.02 -94.61,0.04 -7.71,-0.31 -16.13,-0.7 -22.65,-5.3 -3.04,-1.98 -3.16,-5.84 -4.04,-8.95zm374.06 -37.24c5.07,-5.28 9.6,-11.12 15.33,-15.76 -0.23,3.57 0.42,7.82 -2.71,10.41 -46.63,50.96 -93.3,101.9 -139.91,152.9 -2.36,2.35 -4.19,5.5 -7.22,7.02 -2.88,0.19 -5.77,0.24 -8.65,0.13 47.36,-51.89 95.49,-103.09 143.16,-154.7zm-117.19 -19.49c5.86,1.66 11.33,6.17 12.35,12.43 1.37,8.97 -2.04,17.79 -5.58,25.89 -10.28,22.47 -20.58,44.92 -30.84,67.39 -6.79,15.28 -15.03,30.16 -26.64,42.34 -15.61,16.81 -38.39,26.2 -61.24,26.16 -67.96,-0.15 -135.93,0.29 -203.87,-0.22 1.95,-4.15 3.92,-8.3 5.84,-12.44 54.48,-0.19 108.97,-0.02 163.46,-0.08 18.9,0.2 38.61,0.89 56.22,-7.18 23.47,-10.03 39.52,-31.57 50.2,-53.99 11.57,-25.28 23.18,-50.56 34.73,-75.86 3.51,-7.65 5.82,-15.96 5.37,-24.44zm1192.68 -9.15c10.73,-1.87 21.69,-1.18 32.53,-1.31 32.26,0.14 64.54,-0.29 96.79,0.22 -1.83,4.42 -3.89,8.77 -6.07,13.02 -34.46,-0.11 -68.91,-0.03 -103.37,-0.03 -9.53,-0.33 -19.17,4.85 -22.92,13.84 -3.89,9.41 -9.93,18.25 -10.62,28.66 -6.88,-1.48 -12.76,-7.33 -12.49,-14.68 1.09,-8.66 6.1,-16.12 9.23,-24.11 2.84,-7.46 8.8,-14.08 16.92,-15.61zm-194.22 171.55c26.63,-57.33 52.74,-114.91 79.16,-172.33 6.02,-0.09 12.03,-0.15 18.07,-0.09 -8.68,21.23 -19.02,41.77 -28.31,62.77 -18.94,40.79 -37.16,81.92 -56.5,122.51 -17.95,-0.43 -35.91,0.17 -53.85,-0.3 1.55,-4.41 3.46,-8.68 5.84,-12.71 11.86,0.26 23.72,0.06 35.59,0.15zm-322.69 -42.72c20.01,-43.19 39.8,-86.49 59.89,-129.65 6,-0.05 12.01,-0.11 18.01,-0.04 -17.74,40.65 -37.08,80.62 -55.38,121.03 -8.44,17.5 -14.9,36.99 -29.89,50.23 -10.7,9.87 -25.46,14.18 -39.83,13.9 -65.05,-0.16 -130.09,0.19 -195.13,-0.18 1.72,-4.05 3.22,-8.26 5.53,-12.02 2.33,-1.09 5.09,-0.44 7.6,-0.62 55.77,0.14 111.53,0 167.3,0.07 11.46,0.02 23.34,-1.6 33.29,-7.66 13.39,-7.84 22.27,-21.25 28.61,-35.06zm266.63 -128.67c4.37,-3.45 10.43,-1.51 15.56,-1.91 -20.58,15.94 -41.94,30.86 -62.61,46.67 5.59,46.14 11.24,92.26 16.87,138.4 -22.89,0 -45.76,0.18 -68.65,-0.09 -0.25,-4.22 -0.51,-8.42 -0.77,-12.61 18.93,-0.01 37.83,0.02 56.75,-0.01 -5.4,-42.29 -10.69,-84.57 -16.01,-126.86 19.58,-14.59 39.3,-29 58.86,-43.59zm-112.58 -1.62c6.2,-0.51 12.46,-0.4 18.7,-0.2 -6.37,14.01 -12.86,27.99 -19.23,41.99 -1.55,3.68 -5.21,5.65 -8.14,8.05 -6.96,5.06 -13.4,10.79 -20.65,15.44 8.72,-22.17 19.91,-43.35 29.32,-65.28zm-275.66 -0.31c6.04,-0.01 12.09,-0.03 18.15,-0.03 -24,53.89 -48.94,107.38 -73.37,161.09 -6.04,-0.02 -12.08,-0.02 -18.13,-0.04 23.98,-53.89 48.96,-107.33 73.35,-161.02zm-192.88 -0.01c6.04,0.01 12.1,-0.02 18.14,-0.02 -23.94,53.52 -48.87,106.61 -73.05,160.03 -6.11,0.19 -12.25,0.2 -18.36,-0.03 24.2,-53.44 48.71,-106.73 73.27,-159.98zm-167.04 -0.02c4.4,-0.02 8.82,0.05 13.23,0.16 -2.93,61.57 -6.7,123.12 -9.17,184.71 -20.56,0.65 -41.14,0.11 -61.7,0.29 0.11,-4.24 0.24,-8.48 0.34,-12.72 16.2,-0.2 32.41,0.31 48.58,-0.27 2.66,-57.4 5.86,-114.79 8.72,-172.17zm729.84 58.87c31.95,-23.27 63.84,-46.63 95.9,-69.75 -27.31,61.38 -55.93,122.23 -83.73,183.41 -0.85,-1.6 -1.31,-3.4 -1.42,-5.16 -4,-35.45 -8.57,-70.82 -12.5,-106.26 0.44,-0.54 1.31,-1.67 1.75,-2.24zm-1051.73 -129.65c8.02,-6.24 18.74,-6.46 28.45,-6.55 54.7,0.18 109.41,-0.22 164.1,0.2 -1.71,4.37 -3.79,8.59 -6.12,12.67 -48.43,-0.19 -96.86,-0.02 -145.28,-0.1 -10.48,0.22 -22.41,0.42 -30.42,8.25 -7.53,7.33 -10.19,17.92 -14.92,27.03 -3.44,7.19 -7.24,14.49 -7.18,22.71 -5.35,-1.97 -11.07,-5.9 -11.56,-12.1 -0.74,-10.13 4.41,-19.36 8.41,-28.31 4.06,-8.31 6.84,-17.96 14.52,-23.8zm1335.28 -31.04c1.91,-5.95 9.1,-3.16 13.7,-3.45 -3.25,8.93 -7.15,17.81 -12.24,25.85 -3.66,-0.13 -7.33,-0.18 -10.97,-0.27 2.13,-7.77 6.29,-14.76 9.51,-22.13zm-538.54 -3.65c3.53,-0.04 7.08,-0.02 10.64,0.03 -0.78,3.24 -1.93,6.44 -4,9.1 -3.62,0.64 -7.35,0.36 -10.99,0.47 1.42,-3.22 2.87,-6.42 4.35,-9.6zm-401.91 0.16c3.49,-0.38 7,-0.18 10.53,-0.16 -2.2,8.98 -7.07,17.23 -11.24,25.43 -3.86,0.89 -7.86,0.38 -11.77,0.38 1.87,-6.67 5.4,-12.66 8.11,-18.99 1.22,-2.33 2,-5.19 4.37,-6.66zm254.83 -628.33l72.83 0c89.57,2.61 179.06,12.22 266.61,31.54 80.26,17.63 159.09,42.96 233.16,78.71 57.93,28.26 113.3,63.03 160.06,107.69 41.59,39.92 76.52,89.01 90.93,145.5 10.79,41.7 9.3,86.46 -4.11,127.4 -13.3,41.73 -37.97,79.03 -67.23,111.33 50.58,0.12 101.16,0.02 151.74,0.05 -12.1,25.91 -24.23,51.8 -36.22,77.76 -68.23,0.08 -136.46,0 -204.69,0.04 -4.93,-0.2 -8.42,3.98 -12.44,6.2 -6.17,4.5 -13.87,7.15 -18.47,13.54 9.57,-2.66 19.29,-5.19 29.31,-5.19 66.68,-0.05 133.36,0.02 200.03,-0.03 -13.87,30.69 -28.08,61.22 -42.01,91.9 -8.86,-0.02 -17.71,0.05 -26.57,-0.08 4.81,8.14 8.03,17.36 7.74,26.93 0.29,18.16 -9.36,34.13 -16.47,50.2 -10.93,22.8 -19.54,47.6 -37.61,66.03 -17.52,18.99 -42.95,30.11 -68.79,30.22 -95.81,0.01 -191.6,0 -287.39,0 -35.34,0.03 -70.67,-0.3 -105.95,0.91l-0.76 0c-0.31,-10.47 -1.13,-20.89 -1.79,-31.32 -4.47,10.28 -9.42,20.34 -13.8,30.68 -21.13,0.33 -42.25,0.38 -63.36,-0.29 -210.21,0.09 -420.43,-0.07 -630.64,0.09 0.45,-19.01 1.73,-37.99 2,-57 -14.87,0.23 -29.75,-0.09 -44.61,0.12 -2.37,-0.29 -3.81,1.88 -5.33,3.26 -15.49,16.67 -31.15,33.17 -46.64,49.83 -1.43,2.06 -3.89,2.55 -6.25,2.39 -120.09,-0.11 -240.19,0.05 -360.27,-0.09 -3,0.34 -6.69,-0.86 -9.02,1.67l0 -2.73c16.45,-35.33 32.51,-70.85 48.85,-106.23 17.7,0.09 35.41,-0.24 53.11,0.2 -11.04,-4.44 -21.47,-12.39 -24.84,-24.29 -5.69,-19.87 0.99,-40.61 8.74,-58.95 10.28,-23.05 20.61,-46.05 30.96,-69.07 6.44,-14.19 14.23,-27.82 23.58,-40.3 19.23,-26.14 47.02,-46.5 78.91,-53.85 -34.66,-37.34 -63,-81.98 -74.76,-132.02 -11.93,-48.74 -6.38,-101.1 13.9,-146.88 23.51,-53.71 63.66,-98.48 108.88,-135.09 65.69,-52.82 142.29,-90.52 221.27,-119.05 130.56,-46.57 269.17,-67.77 407.41,-71.73zm-421.94 98.88l0 0c-77.84,29.71 -153.34,68.9 -215.68,124.88 -29.6,26.82 -55.82,57.88 -74.36,93.41 -21.1,40.23 -30.85,86.95 -24.05,132.11 7.3,52.6 34.93,100.36 70.36,139.11 4.25,4.3 7.84,9.54 12.95,12.85 8.12,0.25 16.23,-0.04 24.34,0.09 78.88,0.09 157.78,-0.29 236.66,0.2 -16.29,35.73 -32.5,71.54 -49.15,107.13 -4.62,-0.04 -9.24,0.01 -13.84,0.27 -12.48,-0.69 -25.04,-0.05 -37.54,-0.29 6.12,3.26 11.21,8.19 17.63,10.86 13.78,6.04 27.53,12.14 41.63,17.39 4.17,-4.67 8.52,-9.18 12.74,-13.8 8.86,-9.61 17.9,-19.04 26.58,-28.81 39.99,-0.38 80.02,-0.18 120.01,-0.11 -1.09,23.89 -2.42,47.76 -3.64,71.65 -0.26,6.02 -0.47,12.07 -1.11,18.07 4.57,1.55 9.3,2.55 14.05,3.44 2.45,-5.66 5.11,-11.23 7.55,-16.9l0.32 0.07c11.41,-25.66 22.98,-51.27 35.17,-76.54 46.54,0.4 93.1,-0.08 139.66,0.23 -14.06,32.66 -30.07,64.48 -43.87,97.25l-0.56 -0.04c-2.51,5.92 -5.35,11.72 -7.84,17.65 16.94,1.55 33.84,3.7 50.83,4.71 2.64,-5.93 5.35,-11.82 7.95,-17.75 13.94,-30.06 27.59,-60.24 41.36,-90.36 1.8,-3.63 2.89,-7.75 5.59,-10.86 46.37,-0.51 92.8,-0.18 139.2,-0.16 -15.28,35.21 -32.33,69.66 -47.34,104.98l-0.46 -0.02c-2.87,6.33 -5.55,12.74 -8.8,18.89 14.08,-0.28 28.16,-0.35 42.23,-1.08 2.96,-6.26 5.73,-12.61 8.76,-18.83 15.54,-34.51 31.68,-68.75 47.13,-103.32 135.36,-0.68 270.78,0.16 406.13,-0.4 12.92,0.16 25.87,0.45 38.75,-0.11 8.9,-4.39 17.43,-9.55 25.91,-14.72 -12.28,0.56 -24.91,-1.17 -36.99,0.78 -12.46,-1.74 -25.13,-0.36 -37.68,-0.8 -318.83,-0.04 -637.67,0.09 -956.5,-0.05 11.88,-25.97 24.12,-51.77 36.08,-77.69 357.35,-0.11 714.7,0.03 1072.03,-0.07 8.64,-0.3 17.45,0.74 25.98,-0.48 28.31,-28.78 53.11,-61.75 68.38,-99.38 14.03,-33.87 19.57,-71.35 15.01,-107.8 -4.15,-34.67 -17.47,-67.77 -35.97,-97.22 -33.53,-52.84 -82.26,-94.23 -134.6,-127.62 -68.3,-43.25 -143.92,-73.87 -221.3,-96.59 -139.75,-40.39 -286.23,-55.29 -431.36,-50.74 -138.82,4.85 -277.97,27.6 -408.33,76.52zm-281.41 531.65l0 0c-26.53,15.65 -46.83,40.5 -59.68,68.27 -9.42,20.46 -18.74,40.99 -28.15,61.46 -6.86,15.04 -13.77,30.8 -13.93,47.61 -0.4,10.35 4.85,20.96 14.13,25.93 11.76,6.45 25.62,7.35 38.78,7.22 32.82,-0.06 65.66,0.05 98.5,-0.04 -4.2,8.21 -8.83,16.21 -13.39,24.24 -57.4,-0.22 -114.79,0 -172.19,-0.11 -12.1,26.38 -24.22,52.73 -36.23,79.14 77.49,0.06 154.98,-0.01 232.45,0.04 15.76,-0.07 31.44,-3.31 46.09,-9.08 -2.6,2.84 -5.17,5.73 -7.81,8.55 25.13,0.07 50.27,0.11 75.42,-0.02 17.32,-18.52 34.62,-37.08 52.09,-55.47 22.94,0.09 45.88,0.07 68.81,0.02 -0.82,18.5 -1.66,37.02 -2.22,55.56 74.76,-0.07 149.5,-0.02 224.24,-0.03 37.03,0.2 74.05,-0.46 111.04,0.47 55.18,-0.04 110.35,0 165.51,-0.02 14.45,0.26 29.2,0.02 43.03,-4.68 8.46,-2.54 15.98,-7.29 23.45,-11.86 -2.49,5.52 -5.15,10.96 -7.53,16.52 36.23,0.11 72.47,-0.12 108.71,0.11 12.14,-24.21 23.87,-48.65 35.72,-73.01 2.27,24.18 3.22,48.5 4.62,72.76 126.54,0.4 253.08,0.02 379.64,0.18 24.61,0.31 48.85,-11.46 63.91,-30.95 13.61,-16.57 20.42,-37.24 29.79,-56.26 5.73,-13.62 14.3,-26.69 15.06,-41.82 0.86,-11.28 -4.58,-22.84 -13.99,-29.17 -10.59,-7.37 -23.91,-8.77 -36.44,-9.17 -16.01,-0.11 -32.01,0 -48,-0.05 0.44,-1.02 1.33,-3.1 1.76,-4.13 40.16,-0.35 80.32,-0.46 120.47,-0.48 9.57,-21.27 19.45,-42.39 29.09,-63.62 -58.75,0.05 -117.5,0 -176.23,0.02 -13.13,0.14 -26.2,3.87 -37.46,10.59 -13.5,7.73 -23.71,19.7 -32.57,32.24 6.03,-13.94 12.7,-27.59 18.82,-41.47 -149.96,0.06 -299.93,-0.07 -449.91,0.06 -25.38,55.65 -50.89,111.27 -76.45,166.84 -1.18,3.49 -4.68,5.09 -8.17,5 -22.65,0.11 -45.3,0.02 -67.95,0.04 26.03,-57.73 52.69,-115.17 78.79,-172.85 -35.78,0 -71.57,0.02 -107.34,-0.02 -26.22,57.3 -52.46,114.59 -78.6,171.92 -28.53,0.09 -57.06,0.02 -85.57,0.04 26.13,-57.37 52.58,-114.57 78.67,-171.94 -35.91,-0.02 -71.81,0.06 -107.72,-0.03 -28.77,62.55 -57.33,125.19 -86.13,187.72 2.62,-62.6 6.56,-125.14 9.28,-187.74 -32.55,0.11 -65.1,0.07 -97.64,0.02 -45.04,47.96 -89.37,96.61 -134.5,144.46 10.42,-24.06 21.9,-47.65 32.45,-71.67 4.81,-12.1 8.52,-25.74 4.55,-38.61 -3.04,-10.3 -11.62,-18.03 -21.36,-21.99 -18.06,-7.86 -38.15,-6.1 -57.35,-6.23 -23.1,-0.93 -46.25,-0.27 -69.37,-0.47 3,-6.71 6.02,-13.41 9.23,-20.01 58.16,0.01 116.33,-0.04 174.51,0.01 12.1,-26.36 24.16,-52.78 36.26,-79.16 -79.32,-0.02 -158.63,0.02 -237.96,-0.02 -18.63,0.13 -37.02,5.73 -53.03,15.14zm347.71 15.41l0 0c6.25,3.33 13.68,1.11 20.46,1.87 -0.82,2.12 -1.65,4.25 -2.56,6.34 -7.64,-0.09 -15.27,-0.22 -22.89,0.14 -0.76,1.9 -1.51,3.79 -2.27,5.68 10.28,-0.22 20.61,0.53 30.85,-0.37 7.84,-2.03 9.9,-10.84 13.19,-17.15 1,-2.28 2.93,-6.24 -0.51,-7.43 -5.76,-1.8 -11.93,-0.65 -17.86,-1.01 0.83,-2.04 1.31,-4.52 3.33,-5.72 7.24,-0.69 14.64,0.55 21.83,-0.54 0.95,-1.8 1.8,-3.62 2.6,-5.48 -10.51,0.33 -21.18,-0.85 -31.58,0.62 -9.03,3.77 -11.5,14.68 -14.59,23.05zm91.97 -22.25l0 0c-6.14,2.73 -8.45,9.44 -11.08,15.06 -2.22,5.43 -5.61,10.47 -6.81,16.25 -0.78,3.51 2.99,5.17 5.86,4.97 8.5,-0.13 17.07,0.47 25.54,-0.38 6.77,-1.49 10.05,-8.21 12.6,-13.98 2.69,-6.44 6.67,-12.48 7.98,-19.43 -1.38,-5.02 -7.57,-3.73 -11.44,-3.98 -7.53,0.53 -15.47,-1.26 -22.65,1.49zm79.78 -1.25l0 0c-5.35,12.6 -11.14,25.01 -16.63,37.55 10.59,-0.11 21.19,0.2 31.8,-0.11 5.68,-0.24 9.59,-5.06 11.79,-9.84 4.33,-9.21 8.39,-18.56 12.63,-27.81 -4.42,0 -8.83,0 -13.23,-0.05 -5.06,10.26 -8.8,21.21 -14.55,31.11 -3.97,1.35 -8.28,0.6 -12.38,0.77 4.83,-10.59 9.57,-21.24 14.49,-31.81 -4.64,-0.05 -9.3,-0.07 -13.92,0.19zm81.94 -0.15l0 0c-0.61,1.47 -1.87,4.42 -2.49,5.89 3.95,-0.03 7.92,-0.05 11.88,-0.03 -4.93,10.64 -9.73,21.36 -15.01,31.84 4.66,0.09 9.34,-0.04 14.01,-0.02 5,-10.59 9.9,-21.23 14.88,-31.84 4.01,0 8.01,0 12.03,0.04 0.89,-1.99 1.78,-3.97 2.69,-5.94 -12.66,0.04 -25.34,-0.07 -37.99,0.06zm79.79 0.2l0 0c-5.32,12.7 -11.59,24.96 -17.18,37.53 4.62,-0.01 9.24,-0.05 13.88,-0.12 2.46,-5.48 5.02,-10.9 7.57,-16.34 3.8,0.03 7.59,0.05 11.41,0.11 -2.49,5.46 -5.02,10.89 -7.51,16.35 4.62,-0.03 9.22,-0.05 13.84,-0.07 5.71,-12.59 11.63,-25.09 17.52,-37.61 -4.67,-0.14 -9.35,-0.14 -14.01,0.02 -2.24,5.22 -4.62,10.37 -7.18,15.43 -3.77,-0.07 -7.55,-0.11 -11.3,-0.11 2.34,-5.17 4.78,-10.3 7.17,-15.45 -4.75,-0.05 -9.48,-0.05 -14.21,0.26zm83.13 -0.26l0 0c-5.88,12.61 -11.7,25.24 -17.67,37.79 10.77,-0.07 21.56,-0.01 32.35,-0.03 0.91,-1.99 1.84,-3.95 2.78,-5.92 -6.17,0 -12.34,-0.01 -18.5,0.02 1.6,-3.33 2.96,-6.77 4.82,-9.97 5.48,-1.24 11.43,-0.18 17.1,-0.56 0.68,-1.46 2,-4.35 2.66,-5.81 -5.62,-0.03 -11.23,-0.03 -16.83,-0.14 1.45,-3.19 2.95,-6.33 4.44,-9.5 6.11,0.04 12.22,0.02 18.34,0.04 0.93,-1.98 1.85,-3.95 2.8,-5.92 -10.77,0 -21.54,0 -32.29,0zm74.99 0.04l0 0c-5.84,12.59 -11.59,25.24 -17.65,37.72 4.61,-0.02 9.23,-0.02 13.87,0.03 2.65,-5.4 5.15,-10.88 7.6,-16.37 1.24,-0.02 3.73,-0.04 4.99,-0.06 -0.06,5.44 -0.4,10.89 -0.66,16.32 5.37,0.06 10.76,0.13 16.14,0.13 -1.67,-5.2 -0.87,-10.75 -0.96,-16.1 9,-1.27 10.48,-11.66 13.81,-18.47 -1.71,-1.74 -3.7,-3.44 -6.3,-3.14 -10.28,-0.26 -20.58,-0.04 -30.84,-0.06zm81.97 0l0 0c-5.74,12.59 -11.79,25.02 -17.4,37.66 1.37,0.04 4.1,0.08 5.46,0.11 4.95,-10.59 9.86,-21.19 14.86,-31.77 1.44,10.47 0.75,21.13 1.44,31.66 6.13,0.08 12.28,0.08 18.41,0.02 5.68,-12.64 11.81,-25.09 17.47,-37.73 -1.42,0.03 -4.24,0.09 -5.64,0.11 -4.89,10.55 -9.79,21.08 -14.7,31.6 -1.04,-10.46 -1.2,-21 -1.15,-31.51 -6.25,-0.28 -12.51,-0.22 -18.75,-0.15zm111.13 0.02l0 0c-5.55,12.68 -11.81,25.03 -17.34,37.73 4.6,-0.03 9.2,-0.05 13.82,-0.07 5.72,-12.61 11.61,-25.11 17.47,-37.64 -4.66,-0.09 -9.32,-0.09 -13.95,-0.02zm39.91 37.68l0 0c10.72,0.04 21.45,-0.02 32.19,0.04 0.98,-1.99 1.98,-3.95 3,-5.92 -6.18,-0.02 -12.39,-0.02 -18.56,0 5.01,-10.61 9.88,-21.27 14.9,-31.86 -4.64,0 -9.26,0 -13.86,0 -5.91,12.58 -11.7,25.2 -17.67,37.74zm74.55 0l0 0c10.75,0.04 21.5,0 32.27,0.02 0.91,-2 1.82,-4.01 2.79,-6.01 -6.14,0.13 -12.27,0.11 -18.38,0.09 4.73,-10.68 9.88,-21.16 14.7,-31.8 -4.62,-0.05 -9.26,-0.05 -13.86,-0.04 -5.77,12.61 -11.74,25.15 -17.52,37.74zm92.13 -37.77l0 0c-6,12.55 -11.84,25.16 -17.67,37.79 4.61,0 9.21,-0.02 13.83,0.02 5.86,-12.61 11.68,-25.22 17.65,-37.78 -4.62,0 -9.23,0 -13.81,-0.03zm57.17 0.11l0 0c-5.57,12.64 -11.74,25.01 -17.32,37.66 1.36,0.02 4.09,0.07 5.44,0.09 5.45,-10.02 8.75,-21.45 15.32,-30.71 0.5,10.21 0.6,20.43 1.1,30.64 6.12,0 12.23,0 18.34,0 5.74,-12.67 11.76,-25.16 17.49,-37.83 -1.46,0.07 -4.35,0.2 -5.81,0.26 -4.78,10.62 -9.55,21.28 -14.88,31.64 -0.56,-10.56 -0.6,-21.15 -1.11,-31.7 -6.2,-0.18 -12.39,-0.18 -18.57,-0.05zm75.37 17.23l0 0c-2.41,6.11 -6.93,11.81 -6.38,18.72 7.8,3.51 16.74,0.95 25.01,1.76 6.77,0.99 13.36,-2.85 16.29,-8.95 3.4,-7.22 7.09,-14.34 9.93,-21.79 1.59,-3.04 -0.56,-7.1 -4.13,-6.79 -8.62,-0.44 -17.34,-0.51 -25.94,0.05 -8.35,1.55 -11.76,10.12 -14.78,17zm73.75 20.48l0 0c4.6,-0.05 9.24,-0.05 13.86,-0.01 5.99,-12.54 11.72,-25.2 17.67,-37.78 -4.63,0 -9.25,0 -13.83,0 -5.97,12.56 -11.68,25.26 -17.7,37.79zm67.64 -23.1l0 0c-1.11,3.18 -4.09,6.69 -2.02,10.13 6.3,1.35 12.85,0.35 19.27,0.75 -0.69,1.76 -1.36,3.55 -2.02,5.33l-1.44 0.94c-7.17,0 -14.34,0.04 -21.5,-0.07 -1.08,1.98 -2.13,3.99 -3.15,5.99 10.1,-0.17 20.25,0.31 30.35,-0.22 9.71,-2.26 11.79,-13.7 15.57,-21.43 -2.75,-7.34 -13.39,-3.28 -19.59,-4.17 0.45,-2.07 1.2,-4.06 2.07,-5.99 7.62,-0.09 15.27,0.08 22.91,-0.18 0.54,-1.45 1.65,-4.35 2.22,-5.78 -9.74,0.18 -19.47,-0.31 -29.19,0.22 -7.49,0.74 -10.84,8.44 -13.48,14.48zm-981.35 -476.58l0 0c-19.07,10.42 -35.81,24.49 -52.13,38.7 -13.08,11.81 -28.8,21.23 -46.21,24.8 -16.94,3.96 -34.59,0.91 -50.51,-5.5 9.08,9.05 21.2,14.85 33.91,16.34 17.09,2.08 34.21,-2.87 49.55,-10.11 20.83,-10.12 39.31,-24.46 56.32,-40.05 13.67,-12.23 30.61,-20.8 48.69,-24 10.88,-2.25 22.03,-1.93 33.06,-2.84 -10.95,-2.22 -21.61,-5.93 -32.8,-6.86 -13.92,-1.41 -27.79,2.92 -39.88,9.52zm389 35.33l0 0c13.76,-0.14 26.71,5.68 36.72,14.9 -12.1,-2.74 -24.38,1.62 -34.71,7.75 5.73,14.6 17.97,28.01 34.56,28.77 -11.39,-4.51 -19.92,-14.54 -23.68,-26.04 9.62,-3.42 20.23,-6.75 30.42,-4.22 7.46,6.48 14.48,14.45 24.49,16.81 4.96,1.44 9.97,-0.25 14.72,-1.61 -19.55,-3.1 -30.41,-21.67 -46.24,-31.55 -10.31,-7.7 -24.34,-10.1 -36.28,-4.81zm-706.15 17.83l0 0c14.16,12.81 32.3,21.73 51.55,22.73 25.6,1.09 50.1,-7.95 75.19,-11.57 -24.65,-3.79 -48.63,7.82 -73.34,5.18 -18.83,-1.2 -36.55,-8.29 -53.4,-16.34zm295.22 39.21l0 0c-25.67,14.38 -55.8,22.45 -85.2,17.21 14.64,11.83 35.04,13.27 52.43,7.32 23.27,-7.83 43.94,-22.84 60.34,-40.9 -9.25,5.35 -18.16,11.28 -27.57,16.37zm-341.96 19.31l0 0c61.74,-1.68 118.61,29.69 180.09,30.49 16.19,0.07 32.31,-2.97 47.38,-8.88 -26.04,3.22 -52.46,1.86 -78.29,-2.35 -42.05,-6.47 -81.84,-22.58 -123.67,-30.11 -3.02,-0.31 -6.13,-1.49 -9.13,-0.73 -5.86,3.26 -11.05,7.55 -16.38,11.58zm1053.48 110.2l0 0c15.26,11.28 30.27,22.89 44.96,34.91 13.93,11.83 28.2,23.62 39.08,38.47 2.73,-3.12 5.86,-5.83 9.39,-7.98 -5.62,-7.93 -12.94,-14.44 -20.6,-20.34 -22.87,-17.15 -47.96,-31.07 -72.83,-45.06z"/>
   <path class="fil2" d="M1508.63 1043.47c26.05,-0.29 52.1,-0.09 78.16,-0.1 -31.61,68.99 -63.15,138 -94.88,206.94 -26,0.01 -52,-0.02 -77.98,0.01 31.56,-68.95 63.33,-137.82 94.7,-206.85zm-222.46 -280.75c30.8,-1.78 58.45,14.5 83.56,30.33 33.53,21.74 67.03,44.1 104.31,59 -29.09,-0.27 -55.88,-13.84 -80.11,-28.78 -28.26,-17.67 -55.82,-36.73 -86.13,-50.82 -7.11,-3.49 -14.54,-6.27 -21.63,-9.73zm-334.68 -400.76c96.42,-5.13 193.38,-1.24 288.99,12.37 78.64,11.32 156.49,29.27 231.32,56.09 65.85,23.78 129.85,54.29 186.42,95.9 40.79,30.22 78.07,66.76 102.85,111.48 17.28,31.15 27.71,66.46 27.4,102.23 0.22,35.63 -10.26,70.76 -27.45,101.76 -16.74,30.19 -39.38,56.82 -64.76,80.08 -357.33,0.1 -714.68,-0.04 -1072.03,0.07 -11.96,25.92 -24.2,51.72 -36.08,77.69 318.83,0.14 637.67,0.01 956.5,0.05 12.55,0.44 25.22,-0.94 37.68,0.8 -9.06,4.99 -18.28,9.68 -27.67,14.05 -135.35,0.56 -270.77,-0.28 -406.13,0.4 -15.45,34.57 -31.59,68.81 -47.13,103.32 -13.91,0.29 -27.81,1.28 -41.73,1.04 15.01,-35.32 32.06,-69.77 47.34,-104.98 -46.4,-0.02 -92.83,-0.35 -139.2,0.16 -2.7,3.11 -3.79,7.23 -5.59,10.86 -13.77,30.12 -27.42,60.3 -41.36,90.36 -16.81,-1.33 -33.58,-3.02 -50.38,-4.57 13.8,-32.77 29.81,-64.59 43.87,-97.25 -46.56,-0.31 -93.12,0.17 -139.66,-0.23 -12.19,25.27 -23.76,50.88 -35.17,76.54l-0.32 -0.07c-6.85,-1.5 -13.69,-2.99 -20.49,-4.61 1.22,-23.89 2.55,-47.76 3.64,-71.65 -39.99,-0.07 -80.02,-0.27 -120.01,0.11 -8.68,9.77 -17.72,19.2 -26.58,28.81 -11.48,-4.74 -23.07,-9.19 -34.46,-14.16 4.6,-0.26 9.22,-0.31 13.84,-0.27 16.65,-35.59 32.86,-71.4 49.15,-107.13 -78.88,-0.49 -157.78,-0.11 -236.66,-0.2 -22.74,-21.56 -43.68,-45.32 -59.64,-72.4 -22.43,-37.37 -34.69,-81.49 -30.69,-125.15 3.51,-45.05 23.65,-87.41 51.33,-122.59 27.09,-34.46 60.78,-63.28 97.03,-87.74 16.53,11.99 33.27,23.66 50.28,34.95 -42.62,15.8 -83.05,45.58 -100.44,88.85 -3.54,7.6 -7.06,15.19 -10.54,22.81 14.54,-8.22 28.6,-17.34 43.5,-24.91 23.25,-11.62 49.89,-15.01 75.58,-12.48 40.41,3.93 78.55,19.14 118.44,25.91 -40.49,16.07 -80.45,33.46 -120.42,50.8 14.04,2.04 28.09,4.15 42.14,6.26 20.14,2.98 39.48,10.5 56.85,21.05 41.43,25.33 71.16,66.66 88.17,111.62 29.15,-4.62 59.21,-2.11 87.61,5.66 37.82,10.3 72.06,32.89 96.28,63.75 33.15,-12.14 64.35,-28.78 96.03,-44.27 29.45,-14.3 60.66,-25.25 93.03,-30.64 39.71,-6.64 80.76,-9.26 120.48,-1.23 63.73,12.06 121.28,43.35 182.1,64.4 33.02,11.14 68.32,19.33 103.29,13.94 31.62,-4.53 60.71,-20.48 84.11,-41.84 22.22,3.23 44.8,4.16 67.17,2.07 11.99,-1.47 24.49,-0.4 35.9,-5.06 18.3,-6.89 35.55,-18.96 45.34,-36.22 4.91,-8.32 5.44,-18.76 1.31,-27.5 -9.26,-21.17 -28.71,-35.55 -48.18,-46.73 -7.71,-10.25 -16.41,-19.82 -26.56,-27.75 -27.27,-21.69 -57.73,-38.85 -87.68,-56.48 -35.37,-20.63 -71.12,-40.73 -104.87,-63.97 -20.01,-14.08 -39.99,-28.91 -55.42,-48.08 -5.97,-7.86 -12.41,-16.85 -11.41,-27.26 0.59,-7.33 0.39,-14.97 -3.03,-21.65 -7.32,-15.67 -23.31,-25.07 -39.16,-30.2 -14.54,-3.82 -27.42,-11.95 -39.59,-20.52 -20.76,-14.63 -46.28,-20.02 -70.96,-23.88 -37.46,-5.22 -75.94,-5.07 -112.36,-16.33 -12.45,-4.04 -25.91,-3.04 -38.43,0.11 -21.91,-11.69 -45.89,-20.09 -70.81,-21.58 -27.8,-1.97 -55.71,4.85 -80.44,17.45 -30.07,-11.18 -62.31,-16.34 -94.37,-15.85 -52.89,0.29 -105.07,16.57 -150.3,43.63 -3.53,1.91 -7.04,5.06 -11.34,3.8 -29.98,-4.33 -61.78,4.04 -84.89,23.85 -8.97,7.41 -15.81,17.31 -26,23.22 -23.63,14.34 -53.47,14.17 -79.42,6.91 21.64,-13.81 44.56,-25.45 67.63,-36.64 71.3,-33.64 147.1,-57.02 224.08,-73.49 70.16,-14.86 141.53,-23.81 213.13,-27.65zm-651.94 597.66c11.9,-6.39 25.31,-9.85 38.79,-9.97 74.71,-0.04 149.39,0.01 224.1,-0.02 -7.22,16.81 -15.3,33.24 -22.65,49.98 -52.56,0.2 -105.13,0 -157.67,0.11 -7.57,0.11 -16.72,1.44 -20.76,8.75 -4.64,8.46 -8.13,17.52 -12.43,26.18 -1.44,3.51 -4.15,7.57 -2.24,11.43 3.66,3.09 8.86,2.69 13.36,3.13 26.72,0.12 53.47,0.01 80.22,0.05 13.86,-0.25 28.36,0.16 41.11,6.24 7.1,3.29 13.09,9.46 14.94,17.21 2.51,11.14 -0.65,22.6 -5.24,32.79 -10.75,23.78 -21.72,47.48 -32.53,71.26 -9.77,21.84 -23.54,42.83 -43.63,56.44 -15.99,11.07 -35.53,16.09 -54.84,16.21 -72.85,-0.03 -145.69,-0.01 -218.54,-0.01 7.62,-16.71 15.28,-33.41 22.96,-50.09 52.45,0.13 104.92,0 157.39,0.07 6.97,-0.04 15.29,-0.82 19.67,-7.04 4.53,-6.9 7.24,-14.79 10.88,-22.16 2.6,-6.28 6.55,-12.16 7.43,-19.01 -2.19,-4.75 -8.03,-4.75 -12.52,-4.99 -34.52,-0.09 -69.05,0.02 -103.56,-0.05 -10.08,-0.46 -20.94,-1.5 -29.28,-7.74 -6.06,-4.6 -8.04,-12.68 -7.57,-19.94 1.1,-12.79 6.01,-24.83 11.29,-36.39 9.75,-21.23 19.39,-42.5 29.18,-63.69 11.06,-24.07 28.58,-46.03 52.14,-58.75zm46.8 22.92l0 0c-7.68,5.84 -10.46,15.49 -14.52,23.8 -4,8.95 -9.15,18.18 -8.41,28.31 0.49,6.2 6.21,10.13 11.56,12.1 -0.06,-8.22 3.74,-15.52 7.18,-22.71 4.73,-9.11 7.39,-19.7 14.92,-27.03 8.01,-7.83 19.94,-8.03 30.42,-8.25 48.42,0.08 96.85,-0.09 145.28,0.1 2.33,-4.08 4.41,-8.3 6.12,-12.67 -54.69,-0.42 -109.4,-0.02 -164.1,-0.2 -9.71,0.09 -20.43,0.31 -28.45,6.55zm127.65 81.73l0 0c0.45,8.48 -1.86,16.79 -5.37,24.44 -11.55,25.3 -23.16,50.58 -34.73,75.86 -10.68,22.42 -26.73,43.96 -50.2,53.99 -17.61,8.07 -37.32,7.38 -56.22,7.18 -54.49,0.06 -108.98,-0.11 -163.46,0.08 -1.92,4.14 -3.89,8.29 -5.84,12.44 67.94,0.51 135.91,0.07 203.87,0.22 22.85,0.04 45.63,-9.35 61.24,-26.16 11.61,-12.18 19.85,-27.06 26.64,-42.34 10.26,-22.47 20.56,-44.92 30.84,-67.39 3.54,-8.1 6.95,-16.92 5.58,-25.89 -1.02,-6.26 -6.49,-10.77 -12.35,-12.43zm-256.87 56.73l0 0c0.88,3.11 1,6.97 4.04,8.95 6.52,4.6 14.94,4.99 22.65,5.3 31.53,-0.06 63.08,0.01 94.61,-0.04 6.83,-0.07 13.63,0.58 20.42,1.16 -2.64,-9.11 -11.74,-13.92 -20.82,-13.71 -35.09,-0.42 -70.21,-0.04 -105.3,-0.17 -5.24,-0.09 -10.43,-0.85 -15.6,-1.49zm398.07 -78.64c25.86,0.17 51.71,0 77.56,0.1 -3.67,68.97 -7.29,137.94 -10.62,206.94 -27.58,0 -55.17,0 -82.73,0 1.02,-18.45 1.4,-36.96 2.44,-55.41 -29.57,-0.21 -59.13,-0.01 -88.68,-0.09 -17.32,18.31 -34.35,36.9 -51.84,55.02 -12.68,1.13 -25.56,0.15 -38.33,0.46 63.9,-69.16 127.92,-138.21 192.2,-207.02zm53.04 10.96l0 0c-2.86,57.38 -6.06,114.77 -8.72,172.17 -16.17,0.58 -32.38,0.07 -48.58,0.27 -0.1,4.24 -0.23,8.48 -0.34,12.72 20.56,-0.18 41.14,0.36 61.7,-0.29 2.47,-61.59 6.24,-123.14 9.17,-184.71 -4.41,-0.11 -8.83,-0.18 -13.23,-0.16zm-77.05 30.44l0 0c-47.67,51.61 -95.8,102.81 -143.16,154.7 2.88,0.11 5.77,0.06 8.65,-0.13 3.03,-1.52 4.86,-4.67 7.22,-7.02 46.61,-51 93.28,-101.94 139.91,-152.9 3.13,-2.59 2.48,-6.84 2.71,-10.41 -5.73,4.64 -10.26,10.48 -15.33,15.76zm-3.88 28.82l0 0c-13.88,15.64 -28.36,30.78 -41.9,46.74 19.49,0.11 38.95,-0.15 58.44,0.12 1.73,-22.76 1.93,-45.61 3.44,-68.37 -7.19,6.66 -13.25,14.41 -19.98,21.51zm-64.39 70.24l0 0c25.91,0.35 51.84,0.17 77.75,0.09 0.12,-4.22 0.3,-8.42 0.49,-12.62 -22.11,0 -44.25,-0.2 -66.36,0.07 -4.98,2.89 -8.22,8.1 -11.88,12.46zm269.38 -140.36c26,0.21 52.04,-0.57 78.02,0.38 -26.6,57.2 -52.6,114.68 -79.03,171.97 32.76,0.05 65.51,0 98.28,0.02 -5.33,11.53 -10.53,23.1 -15.9,34.62 -58.73,-0.13 -117.44,-0.02 -176.18,-0.05 31.54,-69.03 63.28,-137.93 94.81,-206.94zm42.98 10.88l0 0c-24.56,53.25 -49.07,106.54 -73.27,159.98 6.11,0.23 12.25,0.22 18.36,0.03 24.18,-53.42 49.11,-106.51 73.05,-160.03 -6.04,0 -12.1,0.03 -18.14,0.02zm-115.15 172.33l0 0c-2.11,4.19 -4.08,8.42 -5.86,12.75 51.02,-0.03 102.03,0.33 153.01,-0.18 1.91,-4.09 3.59,-8.28 5.19,-12.5 -50.78,-0.05 -101.56,0.09 -152.34,-0.07zm265.16 -182.76c25.91,0.09 51.82,-0.31 77.73,0.2 -26.37,57.29 -52.46,114.71 -78.69,172.06 29.11,0.26 58.23,0 87.36,0.15 5.06,0.02 10.47,-0.53 14.69,-3.62 5.25,-3.7 7.6,-9.95 10.35,-15.49 23.31,-50.94 46.79,-101.79 69.97,-152.81 26.02,-0.13 52.04,-0.05 78.04,-0.03 -22.87,49.96 -45.74,99.92 -68.68,149.84 -8.59,17.63 -19.44,35.24 -36.28,46.05 -11.67,7.28 -25.53,10.66 -39.19,10.63 -69.94,-0.09 -139.86,0.01 -209.78,-0.08 31.38,-69.01 63.1,-137.89 94.48,-206.9zm42.87 10.44l0 0c-24.39,53.69 -49.37,107.13 -73.35,161.02 6.05,0.02 12.09,0.02 18.13,0.04 24.43,-53.71 49.37,-107.2 73.37,-161.09 -6.06,0 -12.11,0.02 -18.15,0.03zm121.61 130.6l0 0c-6.34,13.81 -15.22,27.22 -28.61,35.06 -9.95,6.06 -21.83,7.68 -33.29,7.66 -55.77,-0.07 -111.53,0.07 -167.3,-0.07 -2.51,0.18 -5.27,-0.47 -7.6,0.62 -2.31,3.76 -3.81,7.97 -5.53,12.02 65.04,0.37 130.08,0.02 195.13,0.18 14.37,0.28 29.13,-4.03 39.83,-13.9 14.99,-13.24 21.45,-32.73 29.89,-50.23 18.3,-40.41 37.64,-80.38 55.38,-121.03 -6,-0.07 -12.01,-0.01 -18.01,0.04 -20.09,43.16 -39.88,86.46 -59.89,129.65zm111.49 -141.51c25.98,0 51.96,-0.04 77.94,0.02 -6.04,13.39 -12.22,26.7 -18.34,40.08 16.27,-12.38 32.42,-24.86 48.56,-37.41 1.73,-1.27 3.5,-3 5.88,-2.67 31,-0.04 62.01,-0.06 93.03,0.01 -28.9,21.45 -58.17,42.4 -87.17,63.68 5.62,47.74 11.3,95.5 17.06,143.25 -30.16,0 -60.33,0 -90.51,0 -1.84,-28.68 -3.49,-57.37 -5.22,-86.04 -7.43,5.51 -14.89,10.95 -22.4,16.32 -2.75,2.03 -5.97,3.93 -7.13,7.35 -9.46,20.81 -19.09,41.53 -28.49,62.35 -26.02,0 -52.04,0.07 -78.06,-0.02 31.62,-68.99 63.24,-137.95 94.85,-206.92zm42.56 11.22l0 0c-9.41,21.93 -20.6,43.11 -29.32,65.28 7.25,-4.65 13.69,-10.38 20.65,-15.44 2.93,-2.4 6.59,-4.37 8.14,-8.05 6.37,-14 12.86,-27.98 19.23,-41.99 -6.24,-0.2 -12.5,-0.31 -18.7,0.2zm112.58 1.62l0 0c-19.56,14.59 -39.28,29 -58.86,43.59 5.32,42.29 10.61,84.57 16.01,126.86 -18.92,0.03 -37.82,0 -56.75,0.01 0.26,4.19 0.52,8.39 0.77,12.61 22.89,0.27 45.76,0.09 68.65,0.09 -5.63,-46.14 -11.28,-92.26 -16.87,-138.4 20.67,-15.81 42.03,-30.73 62.61,-46.67 -5.13,0.4 -11.19,-1.54 -15.56,1.91zm-175.26 138.1l0 0c-3.15,1.92 -4.33,5.51 -5.74,8.69 -3.25,7.79 -6.91,15.41 -9.87,23.33 -12.27,0.87 -24.59,-0.09 -36.85,0.54 -1.82,4.17 -3.64,8.32 -5.4,12.5 17.45,0 34.91,0.15 52.36,-0.03 2.66,0.56 3.13,-2.7 4.19,-4.32 8.49,-19.81 18.52,-38.99 26.43,-59.04 -8.28,6.26 -16.77,12.19 -25.12,18.33zm399.78 -147.56c11.17,-3.91 23.14,-2.8 34.75,-2.93 45.72,0.06 91.42,-0.14 137.14,0.09 -5.27,11.52 -10.44,23.09 -15.88,34.54 -35.53,-0.11 -71.08,-0.02 -106.64,-0.06 -5.82,0.2 -13.24,0.53 -16.26,6.44 -3.97,7.92 -7.51,16.03 -10.81,24.24 1.99,1.49 4.15,3.14 6.86,2.93 21.25,0.21 42.52,-0.13 63.79,0.14 10.48,0.55 22.69,1.31 30.11,9.77 6.3,7.39 4.2,18.14 0.98,26.46 -5.11,11.84 -10.75,23.45 -16.1,35.2 -7.79,16.85 -14.74,34.79 -28.34,48 -11.83,11.81 -28.32,18.46 -44.98,18.74 -50.98,0.05 -101.96,0 -152.94,0.02 5.18,-11.45 10.73,-22.75 15.57,-34.36 36.74,-0.52 73.49,-0.03 110.24,-0.23 5.19,0.16 11.14,-1.68 13.32,-6.86 3.87,-7.95 7.88,-15.87 11.03,-24.13 1.72,-3.91 -3.19,-5.4 -6.04,-5.31 -23.68,-0.22 -47.38,0.02 -71.05,-0.09 -7.59,-0.31 -15.8,-0.67 -22.24,-5.19 -4.09,-2.89 -5.65,-8.13 -5.6,-12.93 0.53,-9.5 4.26,-18.38 8.17,-26.91 7.1,-15.45 14.01,-30.98 21.18,-46.41 9.19,-18.13 24.03,-34.59 43.74,-41.16zm25.76 9.3l0 0c-8.12,1.53 -14.08,8.15 -16.92,15.61 -3.13,7.99 -8.14,15.45 -9.23,24.11 -0.27,7.35 5.61,13.2 12.49,14.68 0.69,-10.41 6.73,-19.25 10.62,-28.66 3.75,-8.99 13.39,-14.17 22.92,-13.84 34.46,0 68.91,-0.08 103.37,0.03 2.18,-4.25 4.24,-8.6 6.07,-13.02 -32.25,-0.51 -64.53,-0.08 -96.79,-0.22 -10.84,0.13 -21.8,-0.56 -32.53,1.31zm78.12 68.01l0 0c-1.27,4.8 -2.91,9.51 -5.09,14.01 -7.99,16.88 -15.46,34.02 -23.6,50.85 -7.04,14.45 -18.01,27.78 -33.28,33.8 -12.08,5.28 -25.43,3.77 -38.2,3.95 -33.22,0.11 -66.43,-0.23 -99.63,0.17 -1.84,4.16 -3.72,8.31 -5.59,12.46 45.4,0.27 90.81,0.02 136.2,0.13 12.56,0.03 24.95,-4.7 34.5,-12.79 10.13,-8.61 16.79,-20.45 22.2,-32.42 7.02,-15.32 14.06,-30.63 21.14,-45.93 2.22,-5.11 4.45,-10.55 3.98,-16.24 -1.22,-5.66 -7.8,-7.1 -12.63,-7.99zm-165.83 31.67l0 0c0.1,3.32 -1.22,7.12 0.89,10.08 3.13,1.41 6.56,2.13 10.02,2.41 27.2,1.03 54.51,-0.91 81.68,1.01 0.23,-8.2 -8.34,-13.42 -15.78,-13.35 -25.6,-0.38 -51.22,-0.07 -76.81,-0.15zm-106.51 71.87l0 0c-11.87,-0.09 -23.73,0.11 -35.59,-0.15 -2.38,4.03 -4.29,8.3 -5.84,12.71 17.94,0.47 35.9,-0.13 53.85,0.3 19.34,-40.59 37.56,-81.72 56.5,-122.51 9.29,-21 19.63,-41.54 28.31,-62.77 -6.04,-0.06 -12.05,0 -18.07,0.09 -26.42,57.42 -52.53,115 -79.16,172.33z"/>
  </g>
 </g>
</svg>
