<?xml version="1.0" encoding="UTF-8"?>
<!DOCTYPE svg PUBLIC "-//W3C//DTD SVG 1.1//EN" "http://www.w3.org/Graphics/SVG/1.1/DTD/svg11.dtd">
<!-- Creator: CorelDRAW -->
<svg xmlns="http://www.w3.org/2000/svg" xml:space="preserve" width="2000px" height="1600px" version="1.1" style="shape-rendering:geometricPrecision; text-rendering:geometricPrecision; image-rendering:optimizeQuality; fill-rule:evenodd; clip-rule:evenodd"
viewBox="0 0 2000 1600"
 xmlns:xlink="http://www.w3.org/1999/xlink">
 <defs>
  <style type="text/css">
   <![CDATA[
    .fil1 {fill:#003C7C;fill-rule:nonzero}
    .fil2 {fill:#D10F41;fill-rule:nonzero}
    .fil0 {fill:#FEFEFE;fill-rule:nonzero}
   ]]>
  </style>
 </defs>
 <g id="Capa_x0020_1">
  <metadata id="CorelCorpID_0Corel-Layer"/>
  <g id="South_x0020_Alabama_x0020_Jaguars.cdr">
   <path class="fil0" d="M866.14 132.98c55.63,-13.69 112.92,-20.2 170.16,-21.39 89.66,-0.28 179.21,13.05 265.5,37.27 35.75,10.32 71.32,21.8 105.22,37.28 28.68,14.83 56.18,31.86 83.91,48.41 37.4,22.58 74.51,45.63 111.62,68.7 -4.59,8.31 -6.15,17.71 -8.54,26.79 49.25,37.42 97.84,75.68 146.73,113.57 -10.23,19.99 -24.16,37.76 -36.22,56.61 -2.25,16.53 -5.67,33.23 -13.79,48 -13.04,25.03 -35.3,45.06 -61.39,55.76 6,-6.9 13.06,-12.86 18.45,-20.29 21.88,-28.28 31.77,-64.23 32.81,-99.6 11.35,-12.27 21.92,-25.25 33.54,-37.27 -30.49,-2.23 -60.97,-4.51 -91.45,-6.63 17.7,15.25 35.47,30.42 53.3,45.52 -7.97,46.3 -32.98,88.31 -65.53,121.64 -5.02,4.93 -11.56,8 -18.19,10.14 -38.97,11.32 -79.99,10.08 -120.13,9.03 -15.93,-1.15 -31.91,-1.21 -47.79,-2.91 -18.59,-0.75 -36.98,-3.88 -55.55,-4.95 -18.39,-1.76 -36.94,-0.4 -55.12,2.6 -41.5,6.57 -82.59,17.39 -120.83,35.03 -31.32,14.39 -60.6,33.69 -84.83,58.32 -23.05,24.06 -42.02,53.07 -50.13,85.69 -3.53,24.04 3.79,49.13 18.12,68.59 16.59,22.17 40.57,37.91 66.2,47.77 81.43,29.07 169.77,39.73 255.54,27.77 38.62,-5.33 76.9,-14.77 112.77,-30.25 -6.29,36.65 -21.69,71.89 -44.66,101.17 -8.56,10.32 -17.58,20.54 -28.75,28.13 -24.65,14.45 -53.58,19.68 -81.84,20.2 -34.08,-0.21 -67.98,-5.96 -100.83,-14.85 -29.66,-7.97 -58.99,-17.22 -87.81,-27.84 -38.16,-15.04 -74.47,-34.34 -110.21,-54.37 -31.01,-17.56 -61.53,-36.04 -91.54,-55.31 -61.63,-41.73 -132.07,-68.18 -202.89,-89.78 -31.17,-14.14 -57.5,-41.52 -64.8,-75.65 -9,-41.87 3.31,-85.12 22.11,-122.56 -43.17,41.59 -81.2,91.27 -97.8,149.67 -12.9,44.09 -10.32,92.17 6.17,134.96 21.42,56.2 61.7,103.63 108.83,140.25 -21.5,-9.37 -41.34,-22.26 -60.83,-35.24 -67.21,-45.79 -121.88,-109.73 -156.2,-183.5 -38.34,-82 -53.8,-173.84 -49.29,-263.96 0.73,-24.62 6.96,-48.56 13.42,-72.18 20.12,-71.69 55.84,-139.07 104.62,-195.37 39.96,-45.73 87.59,-85.74 142.22,-112.75 7.53,17.95 17.83,34.52 28.36,50.84 24.1,36.65 50.18,72 77.34,106.46 2.31,3.48 6.55,2.94 10.15,2.41 -9.88,-19.34 -22.04,-37.44 -33.83,-55.65 -28.51,-36.81 -53.93,-76.4 -71.68,-119.57 -2.54,-6.52 -5.41,-14.41 -1.47,-20.95 3.53,-5.42 10.7,-4.6 16.26,-4.11 29.32,3.6 58.59,7.44 87.87,11.37 16.4,2.66 33.08,1.63 49.57,3.23 26.14,0.52 52.23,2.24 78.37,2.68 7.49,0.02 15,1.43 22.48,0.34 -5.87,-0.91 -11.85,-0.63 -17.72,-1.6 -45.58,-6.61 -91.23,-12.77 -136.81,-19.44 8.54,-3.88 17.83,-5.67 26.81,-8.23zm-148.69 708.75c13.16,-6.02 28.57,-4.01 41.56,1.53 30.6,14.47 61.78,27.67 92.49,41.93 -23.86,14.27 -46.49,32.1 -61.38,55.97 -12.59,20.14 -18.36,44.89 -14.06,68.42 2.44,18 10.43,34.55 19.78,49.89 -26.72,-14.02 -48.54,-35.41 -70.12,-56.12 -11.46,-12.25 -24.5,-23.47 -32.45,-38.51 -15.13,-27.38 -14.54,-61.13 -3.8,-89.93 5.18,-13.68 14.2,-27.04 27.98,-33.18zm683.24 50.38c9.4,-25.72 18.42,-51.6 28.19,-77.19 3.88,23.66 7.91,47.28 11.77,70.94 3.44,-6.42 6.94,-12.8 10.45,-19.19 3.81,4.89 7.53,9.84 11.2,14.83 3.9,-4.28 7.84,-8.54 11.96,-12.63 1.25,3.21 2.51,6.44 3.79,9.67 12.27,-17.47 23.08,-35.93 35.54,-53.26 -2.77,24.86 -6,49.67 -8.33,74.57 -34.17,20.54 -73.78,29.77 -113.07,33.92 -60.81,6.15 -122.17,0.67 -182.24,-9.56 -14.73,-2.9 -29.69,-5.04 -44.05,-9.59 18.04,-0.36 36.07,0.65 54.1,0.71 30.52,1.93 61.21,0.23 91.7,2.98 28.35,1.43 58.91,1.76 83.81,-13.93 2.87,-3.39 3.42,-8.24 5.18,-12.27zm-259.17 -111.22c8.56,-3.23 19.63,-3.12 26.16,4.09 3.73,3.13 3.54,8.33 4.82,12.65 7.78,30.25 28.03,56.39 53.56,73.95 15.65,11.12 33.58,18.35 51.54,24.79 -24.65,4.68 -49.97,4.81 -74.97,3.76 -34.28,-2.67 -70.53,-10.6 -96.66,-34.41 -20.69,-18.39 -30,-46.38 -30.4,-73.5 17.05,15.34 38.56,24.38 59.87,32.16 -7.36,-7.38 -14.2,-17.52 -12.06,-28.43 2.14,-8.37 10.71,-12.43 18.14,-15.06zm186.21 -154.18c73.53,11.04 148.25,19.11 222.61,12.63 18.81,-1.86 37.59,-5.05 55.59,-10.95 -18.5,29.35 -38.58,57.69 -57.04,87.06 -0.27,-19.28 1.93,-38.5 2.96,-57.73 -5.9,7.15 -10.83,15.02 -16.22,22.55 -2.79,-6.93 -5.12,-14.05 -7.95,-20.94 -5.43,7.72 -9.86,16.07 -14.79,24.09 -3.67,-6.88 -5.18,-14.6 -7.95,-21.82 -5.05,5.62 -8.18,12.57 -12.31,18.84 -15.84,25.27 -30.73,51.14 -47.09,76.06 -1.98,-11.68 -0.53,-23.56 -1.01,-35.33 -0.88,-17.16 0.04,-34.38 -0.86,-51.54 -36.6,-13.23 -73.1,-26.68 -109.69,-39.9 -2.18,-0.85 -4.25,-1.88 -6.25,-3.02zm-528.32 -429.28l0 0c5.33,20.68 15.12,39.91 25.61,58.41 16.07,27.8 34.87,53.96 55.04,78.94 5.52,6.15 10.79,13.18 18.76,16.24 1.19,-3.21 2.5,-6.51 2.2,-10.01 -1.93,-24.98 -7.95,-49.61 -7.68,-74.76 -0.18,-14.96 0.91,-31.88 11.65,-43.42 7.27,-7.81 18.39,-8.2 28.29,-8.88 -3.2,-0.65 -6.39,-1.25 -9.52,-2.05 -37.63,-10.76 -75.14,-22.03 -113.17,-31.4 -3.73,-0.88 -7.45,-1.89 -11.27,-2.1 -3.64,5.77 -1.02,12.88 0.09,19.03zm457.09 60.35l0 0c-8.1,22.21 -16.98,44.11 -25.07,66.34 76.39,14.12 152.62,29.29 229.08,42.96 -6.23,-2.15 -11.87,-5.53 -17.6,-8.7 -20.57,-11.14 -41.15,-22.26 -61.67,-33.5 -2.51,-1.59 -5.41,-2.24 -8.32,-1.8 -15.44,1.44 -30.82,3.67 -46.32,4.51 3.35,-8.81 7.28,-17.41 10.51,-26.25 -27.04,-14.18 -53.58,-29.32 -80.61,-43.56zm-687.65 213.87l0 0c-9.25,4.81 -14.18,14.81 -18.37,23.9 -3.57,7.49 -1.32,16.25 2.75,23.07 2.09,3.42 4.86,7.03 9.08,7.76 6.42,-1.15 12.82,-5.16 15.08,-11.53 2.2,-6.38 6.52,-12.13 6.76,-19.07 0.52,-8.08 -1.64,-16.34 -5.75,-23.27 -2.14,-3.33 -6.57,-2.24 -9.55,-0.86zm719.95 27.4l0 0c-79.08,3.59 -157.98,13.74 -234.98,32.37 -79.53,19.5 -157.25,48.31 -227.92,90.01 74.53,-31.72 152.27,-55.59 231.23,-73.42 84.79,-18.8 171.4,-30.39 258.31,-31.34 83.09,-1.41 166.55,6.44 247.36,26.12 8.54,-9.11 16.88,-18.44 25.29,-27.69 -59.93,-9.28 -120.42,-15 -181.04,-16.66 -39.38,-1.97 -78.86,-1.09 -118.25,0.61zm-59.14 57.44l0 0c-80.21,11.45 -159.57,33.45 -231.71,70.83 82.65,-30.18 168.66,-51.45 256.03,-62.09 83.99,-9.98 170.06,-9.4 252.66,10.28 7.6,-4.66 14.23,-10.78 21.31,-16.21 -98.57,-15.48 -199.44,-16.47 -298.29,-2.81zm-638.36 32.82l0 0c-0.27,10.45 7.38,19.55 16.8,23.25 6.94,0.14 11.47,-7.54 12.04,-13.72 -0.23,-7.68 1.09,-15.88 -2.43,-23.04 -3.04,-6.42 -8.25,-11.47 -13.8,-15.77 -11.27,5.03 -11.86,18.61 -12.61,29.28zm-78.58 7.77l0 0c0.13,10.13 8.7,17.78 17.45,21.41 4.22,2.02 8.86,-0.63 11.25,-4.19 3.98,-4.93 2.24,-11.56 2.2,-17.33 -0.55,-11.6 -9.71,-20.79 -19.43,-25.99 -10.3,4.19 -11.78,16.38 -11.47,26.1zm74.91 51.6l0 0c-4.13,3.35 -6.3,8.47 -7.74,13.46 -2.31,7.54 2.77,14.92 8.31,19.56 4.11,4.13 11.18,1 12.87,-4.01 2.33,-6.86 3.65,-14.89 -0.61,-21.31 -2.41,-4.66 -6.67,-11.88 -12.83,-7.7zm-57.23 19.04l0 0c-11.12,5.33 -12.08,19.6 -12.29,30.42 -1.01,11.94 8.54,22.74 19.47,26.12 7.19,0.4 11.49,-6.93 12.98,-13.03 0.36,-11.14 1.22,-23.73 -6.56,-32.85 -3.84,-4.09 -7.43,-10.47 -13.6,-10.66z"/>
   <path class="fil1" d="M780.34 134.28c92.01,-33.18 190.55,-48.54 288.31,-44.3 112.58,0.82 224.47,27 327.19,72.66 34.01,15.3 66.46,33.82 98.62,52.64 42.66,25.84 84.7,53.4 121.62,87.13 -1.95,7.43 -3.5,14.96 -5.41,22.39 50,35.63 98.29,73.6 144.51,113.96 -9.74,23.73 -24.28,44.98 -38.31,66.29 0.5,15.37 -1.65,31.04 -8.62,44.89 -14.35,29.54 -40.65,51.33 -68.38,67.86 -4.85,3.29 -11.33,4.74 -14.58,9.98 -55.36,82.23 -87.58,179.78 -92.76,278.74 -0.84,7.72 1.24,16.03 -2.56,23.18 -13.34,29.2 -27.69,58.02 -44.91,85.13 -8.2,12.6 -17.02,25.48 -30.12,33.46 -34.47,23.47 -77.45,29.85 -118.36,28.55 -33.37,-1.71 -66.77,-4.58 -99.53,-11.56 -78.39,-11.35 -152.23,-43.55 -219.63,-84.25 -43.65,-27.03 -87.35,-54.37 -134.12,-75.79 -2.9,-1.19 -5.86,-3 -9.11,-2.43 -9.14,6.32 -14.91,16.19 -20.56,25.49 -14.62,25.44 -24.73,53.89 -26.8,83.3 -1.68,36.68 7.51,73.16 22.36,106.5 -74.91,-22.89 -147.51,-55.7 -210.32,-102.98 -64.16,-47.83 -116.75,-111.41 -149.98,-184.32 -38.32,-83.24 -52.3,-176.46 -46.32,-267.54 1.45,-19.36 3.42,-38.76 7.39,-57.77 17.68,-71.11 47.89,-139.6 92.23,-198.19 47.83,-63.85 112.14,-114.32 183.55,-149.4 0.59,-9.48 4.38,-19.97 13.57,-24.22 12.96,-6.55 27.71,-2.4 41.03,0.6zm-663.77 1255.68c294.6,-0.61 589.22,-0.09 883.84,-0.26 0,9.9 -0.02,19.78 0,29.67 -216.65,0 -433.32,0 -649.99,0 -61.77,-0.2 -123.59,0.41 -185.33,-0.3 -16.28,-9.48 -32.87,-18.63 -48.52,-29.11zm1664.36 -193.64c7.3,-8.22 18.99,-9.48 29.27,-10.6 18.48,-1 37,-0.29 55.5,-0.48 10.05,0.36 20.89,-0.08 29.98,4.95 4.51,2.33 5.33,8.08 3.19,12.36 -19.16,50.66 -38.48,101.27 -57.82,151.85 -14.26,-0.02 -28.52,0.02 -42.75,-0.02 9.55,-25.07 19.16,-50.11 28.66,-75.2 -11.92,-0.02 -23.83,0.02 -35.73,-0.02 -9.77,25.02 -19.15,50.19 -28.78,75.24 -14.28,0 -28.55,-0.02 -42.81,0 17.94,-46.95 35.81,-93.95 53.72,-140.92 2.44,-5.73 3.78,-12.11 7.57,-17.16zm39.27 6.75l0 0c-7.28,18.84 -14.53,37.7 -21.6,56.64 11.93,0.09 23.85,0.02 35.78,0.06 7.2,-18.9 14.35,-37.8 21.63,-56.67 -11.95,-0.09 -23.89,-0.01 -35.81,-0.03zm-314.06 151.33c21.69,-56.47 43.17,-113.02 64.69,-169.56 21.34,0.03 42.67,0.02 64,0.02 -1.36,32.88 -2.03,65.83 -2.87,98.7 10.24,-11.87 18.54,-25.32 28,-37.82 14.62,-20.26 29.31,-40.47 43.82,-60.83 22.66,-0.15 45.33,0.04 68.01,-0.09 -21.4,56.54 -43.09,113 -64.55,169.52 -14.55,0.14 -29.09,-0.05 -43.61,0.12 9.3,-28.25 18.76,-56.45 28.18,-84.66 0.86,-2.69 1.5,-5.47 2.07,-8.22 -21.54,30.92 -42.85,62.02 -64.44,92.88 -15.02,-0.15 -30.04,-0.02 -45.06,-0.08 2.79,-34.19 4.77,-68.43 7.37,-102.62 -14.69,33.82 -27.84,68.38 -41.67,102.58 -14.64,0.12 -29.3,0.02 -43.94,0.06zm-65.37 -166.22c15.21,-3.94 31.07,-2.77 46.62,-2.96 13.13,0.17 26.32,-0.52 39.41,0.78 5.87,1 12.67,1.51 16.93,6.25 3.11,3.38 1.45,8.41 0.17,12.25 -18.94,49.95 -38.24,99.75 -56.95,149.79 -14.31,0.26 -28.62,0 -42.94,0.13 9.44,-25.09 19.06,-50.13 28.65,-75.18 -12.02,-0.1 -24.04,-0.11 -36.04,0.02 -9.29,24.86 -18.71,49.7 -28.36,74.43 -13.93,1.74 -28.69,0.08 -42.92,0.81 19.28,-50.86 38.73,-101.67 58.07,-152.5 2.47,-7.63 10.02,-11.91 17.36,-13.82zm24.92 14.92l0 0c-7,18.96 -14.38,37.77 -21.52,56.67 11.92,0 23.85,-0.08 35.79,0.03 7.32,-18.86 14.5,-37.78 21.61,-56.73 -11.96,0 -23.94,-0.06 -35.88,0.03zm-169.24 -18.23c31.13,0.02 62.26,-0.09 93.41,0.04 7.51,0.65 16.85,1.24 21.51,8.14 3.1,4.61 0.14,10.05 -1.26,14.72 -6.71,17.37 -13.13,34.86 -19.97,52.17 -1.7,5.35 -7.07,7.7 -11.56,10.24 2.35,3.46 4.82,7.57 2.87,11.85 -6.14,18.27 -13.63,36.08 -20.24,54.2 -5.18,13.66 -21.42,17.25 -34.42,18.06 -31.63,0.28 -63.27,-0.02 -94.9,0.13 21.5,-56.51 43.11,-113 64.56,-169.55zm36.23 19.76l0 0c-7.09,18.33 -13.91,36.73 -21.06,55.02 11.69,0.15 23.39,0.15 35.08,0 6.83,-18.36 13.9,-36.63 20.91,-54.94 -11.65,-0.13 -23.29,-0.02 -34.93,-0.08zm-27.86 72.79l0 0c-6.92,19.17 -14.59,38.05 -21.6,57.18 11.68,-0.09 23.39,0.21 35.09,-0.19 6.93,-19.17 14.43,-38.1 21.67,-57.16 -11.73,0.1 -23.45,-0.15 -35.16,0.17zm-156.84 -75.65c5.02,-13.47 21.5,-15.33 33.9,-16.42 21.52,-0.25 43.06,-0.17 64.59,-0.04 7.93,0.83 17.77,1.11 22.97,8.2 1.72,4.34 -0.42,8.89 -1.83,13.02 -19,49.15 -37.3,98.59 -56.51,147.64 -14.16,-0.29 -28.32,-0.11 -42.46,-0.09 9.34,-25 18.93,-49.92 28.47,-74.84 -11.98,-0.11 -23.94,-0.08 -35.93,-0.04 -9.55,24.98 -18.84,50.05 -28.66,74.93 -14.22,-0.21 -28.44,-0.05 -42.64,-0.09 19.42,-50.74 38.68,-101.54 58.1,-152.27zm42.14 1.11l0 0c-6.81,19.09 -14.39,37.87 -21.45,56.89 11.93,-0.02 23.87,-0.02 35.82,-0.02 7.22,-19 14.56,-37.96 21.67,-57.01 -12.02,0.04 -24.04,-0.13 -36.04,0.14zm-139.83 -17.93c14.77,-0.21 29.52,-0.02 44.3,-0.11 -19.13,49.87 -38.15,99.81 -57.11,149.74 17.15,0.06 34.33,-0.03 51.49,0.06 -2.35,6.57 -4.93,13.07 -7.23,19.67 -31.97,0.21 -63.94,0.01 -95.91,0.11 21.5,-56.49 43.3,-112.87 64.46,-169.47zm-148.07 -53.53c15.41,-5.69 32.07,-5.71 48.28,-5.44 21.61,0.04 43.24,-0.06 64.85,0.04 9.58,0.63 19.75,1.29 28.19,6.32 5.22,3.06 7.63,10.01 4.95,15.54 -26.1,68.89 -52.34,137.72 -78.67,206.52 -19.34,0 -38.68,-0.02 -58,0.02 13.03,-33.82 25.87,-67.75 38.75,-101.63 -16.22,0.02 -32.45,-0.27 -48.65,0.16 -12.52,33.97 -25.61,67.72 -38.51,101.55 -19.3,-0.19 -38.6,-0.12 -57.88,-0.06 26.21,-68.99 52.55,-137.94 78.81,-206.93 2.88,-7.94 10.24,-13.22 17.88,-16.09zm39.22 18.48l0 0c-9.75,25.65 -19.59,51.27 -29.3,76.92 16.19,0.06 32.37,0.29 48.56,-0.11 9.4,-25.71 19.47,-51.18 29.09,-76.81 -16.11,0.02 -32.24,0.02 -48.35,0zm-411.04 -482.18c6.17,0.19 9.76,6.57 13.6,10.66 7.78,9.12 6.92,21.71 6.56,32.85 -1.49,6.1 -5.79,13.43 -12.98,13.03 -10.93,-3.38 -20.48,-14.18 -19.47,-26.12 0.21,-10.82 1.17,-25.09 12.29,-30.42zm57.23 -19.04c6.16,-4.18 10.42,3.04 12.83,7.7 4.26,6.42 2.94,14.45 0.61,21.31 -1.69,5.01 -8.76,8.14 -12.87,4.01 -5.54,-4.64 -10.62,-12.02 -8.31,-19.56 1.44,-4.99 3.61,-10.11 7.74,-13.46zm-74.91 -51.6c-0.31,-9.72 1.17,-21.91 11.47,-26.1 9.72,5.2 18.88,14.39 19.43,25.99 0.04,5.77 1.78,12.4 -2.2,17.33 -2.39,3.56 -7.03,6.21 -11.25,4.19 -8.75,-3.63 -17.32,-11.28 -17.45,-21.41zm78.58 -7.77c0.75,-10.67 1.34,-24.25 12.61,-29.28 5.55,4.3 10.76,9.35 13.8,15.77 3.52,7.16 2.2,15.36 2.43,23.04 -0.57,6.18 -5.1,13.86 -12.04,13.72 -9.42,-3.7 -17.07,-12.8 -16.8,-23.25zm638.36 -32.82c98.85,-13.66 199.72,-12.67 298.29,2.81 -7.08,5.43 -13.71,11.55 -21.31,16.21 -82.6,-19.68 -168.67,-20.26 -252.66,-10.28 -87.37,10.64 -173.38,31.91 -256.03,62.09 72.14,-37.38 151.5,-59.38 231.71,-70.83zm59.14 -57.44c39.39,-1.7 78.87,-2.58 118.25,-0.61 60.62,1.66 121.11,7.38 181.04,16.66 -8.41,9.25 -16.75,18.58 -25.29,27.69 -80.81,-19.68 -164.27,-27.53 -247.36,-26.12 -86.91,0.95 -173.52,12.54 -258.31,31.34 -78.96,17.83 -156.7,41.7 -231.23,73.42 70.67,-41.7 148.39,-70.51 227.92,-90.01 77,-18.63 155.9,-28.78 234.98,-32.37zm-719.95 -27.4c2.98,-1.38 7.41,-2.47 9.55,0.86 4.11,6.93 6.27,15.19 5.75,23.27 -0.24,6.94 -4.56,12.69 -6.76,19.07 -2.26,6.37 -8.66,10.38 -15.08,11.53 -4.22,-0.73 -6.99,-4.34 -9.08,-7.76 -4.07,-6.82 -6.32,-15.58 -2.75,-23.07 4.19,-9.09 9.12,-19.09 18.37,-23.9zm687.65 -213.87c27.03,14.24 53.57,29.38 80.61,43.56 -3.23,8.84 -7.16,17.44 -10.51,26.25 15.5,-0.84 30.88,-3.07 46.32,-4.51 2.91,-0.44 5.81,0.21 8.32,1.8 20.52,11.24 41.1,22.36 61.67,33.5 5.73,3.17 11.37,6.55 17.6,8.7 -76.46,-13.67 -152.69,-28.84 -229.08,-42.96 8.09,-22.23 16.97,-44.13 25.07,-66.34zm-457.09 -60.35c-1.11,-6.15 -3.73,-13.26 -0.09,-19.03 3.82,0.21 7.54,1.22 11.27,2.1 38.03,9.37 75.54,20.64 113.17,31.4 3.13,0.8 6.32,1.4 9.52,2.05 -9.9,0.68 -21.02,1.07 -28.29,8.88 -10.74,11.54 -11.83,28.46 -11.65,43.42 -0.27,25.15 5.75,49.78 7.68,74.76 0.3,3.5 -1.01,6.8 -2.2,10.01 -7.97,-3.06 -13.24,-10.09 -18.76,-16.24 -20.17,-24.98 -38.97,-51.14 -55.04,-78.94 -10.49,-18.5 -20.28,-37.73 -25.61,-58.41zm66.73 -64.45l0 0c-8.98,2.56 -18.27,4.35 -26.81,8.23 45.58,6.67 91.23,12.83 136.81,19.44 5.87,0.97 11.85,0.69 17.72,1.6 -7.48,1.09 -14.99,-0.32 -22.48,-0.34 -26.14,-0.44 -52.23,-2.16 -78.37,-2.68 -16.49,-1.6 -33.17,-0.57 -49.57,-3.23 -29.28,-3.93 -58.55,-7.77 -87.87,-11.37 -5.56,-0.49 -12.73,-1.31 -16.26,4.11 -3.94,6.54 -1.07,14.43 1.47,20.95 17.75,43.17 43.17,82.76 71.68,119.57 11.79,18.21 23.95,36.31 33.83,55.65 -3.6,0.53 -7.84,1.07 -10.15,-2.41 -27.16,-34.46 -53.24,-69.81 -77.34,-106.46 -10.53,-16.32 -20.83,-32.89 -28.36,-50.84 -54.63,27.01 -102.26,67.02 -142.22,112.75 -48.78,56.3 -84.5,123.68 -104.62,195.37 -6.46,23.62 -12.69,47.56 -13.42,72.18 -4.51,90.12 10.95,181.96 49.29,263.96 34.32,73.77 88.99,137.71 156.2,183.5 19.49,12.98 39.33,25.87 60.83,35.24 -47.13,-36.62 -87.41,-84.05 -108.83,-140.25 -16.49,-42.79 -19.07,-90.87 -6.17,-134.96 16.6,-58.4 54.63,-108.08 97.8,-149.67 -18.8,37.44 -31.11,80.69 -22.11,122.56 7.3,34.13 33.63,61.51 64.8,75.65 70.82,21.6 141.26,48.05 202.89,89.78 30.01,19.27 60.53,37.75 91.54,55.31 35.74,20.03 72.05,39.33 110.21,54.37 28.82,10.62 58.15,19.87 87.81,27.84 32.85,8.89 66.75,14.64 100.83,14.85 28.26,-0.52 57.19,-5.75 81.84,-20.2 11.17,-7.59 20.19,-17.81 28.75,-28.13 22.97,-29.28 38.37,-64.52 44.66,-101.17 -35.87,15.48 -74.15,24.92 -112.77,30.25 -85.77,11.96 -174.11,1.3 -255.54,-27.77 -25.63,-9.86 -49.61,-25.6 -66.2,-47.77 -14.33,-19.46 -21.65,-44.55 -18.12,-68.59 8.11,-32.62 27.08,-61.63 50.13,-85.69 24.23,-24.63 53.51,-43.93 84.83,-58.32 38.24,-17.64 79.33,-28.46 120.83,-35.03 18.18,-3 36.73,-4.36 55.12,-2.6 18.57,1.07 36.96,4.2 55.55,4.95 15.88,1.7 31.86,1.76 47.79,2.91 40.14,1.05 81.16,2.29 120.13,-9.03 6.63,-2.14 13.17,-5.21 18.19,-10.14 32.55,-33.33 57.56,-75.34 65.53,-121.64 -17.83,-15.1 -35.6,-30.27 -53.3,-45.52 30.48,2.12 60.96,4.4 91.45,6.63 -11.62,12.02 -22.19,25 -33.54,37.27 -1.04,35.37 -10.93,71.32 -32.81,99.6 -5.39,7.43 -12.45,13.39 -18.45,20.29 26.09,-10.7 48.35,-30.73 61.39,-55.76 8.12,-14.77 11.54,-31.47 13.79,-48 12.06,-18.85 25.99,-36.62 36.22,-56.61 -48.89,-37.89 -97.48,-76.15 -146.73,-113.57 2.39,-9.08 3.95,-18.48 8.54,-26.79 -37.11,-23.07 -74.22,-46.12 -111.62,-68.7 -27.73,-16.55 -55.23,-33.58 -83.91,-48.41 -33.9,-15.48 -69.47,-26.96 -105.22,-37.28 -86.29,-24.22 -175.84,-37.55 -265.5,-37.27 -57.24,1.19 -114.53,7.7 -170.16,21.39zm461.59 493.73l0 0c2,1.14 4.07,2.17 6.25,3.02 36.59,13.22 73.09,26.67 109.69,39.9 0.9,17.16 -0.02,34.38 0.86,51.54 0.48,11.77 -0.97,23.65 1.01,35.33 16.36,-24.92 31.25,-50.79 47.09,-76.06 4.13,-6.27 7.26,-13.22 12.31,-18.84 2.77,7.22 4.28,14.94 7.95,21.82 4.93,-8.02 9.36,-16.37 14.79,-24.09 2.83,6.89 5.16,14.01 7.95,20.94 5.39,-7.53 10.32,-15.4 16.22,-22.55 -1.03,19.23 -3.23,38.45 -2.96,57.73 18.46,-29.37 38.54,-57.71 57.04,-87.06 -18,5.9 -36.78,9.09 -55.59,10.95 -74.36,6.48 -149.08,-1.59 -222.61,-12.63zm-186.21 154.18l0 0c-7.43,2.63 -16,6.69 -18.14,15.06 -2.14,10.91 4.7,21.05 12.06,28.43 -21.31,-7.78 -42.82,-16.82 -59.87,-32.16 0.4,27.12 9.71,55.11 30.4,73.5 26.13,23.81 62.38,31.74 96.66,34.41 25,1.05 50.32,0.92 74.97,-3.76 -17.96,-6.44 -35.89,-13.67 -51.54,-24.79 -25.53,-17.56 -45.78,-43.7 -53.56,-73.95 -1.28,-4.32 -1.09,-9.52 -4.82,-12.65 -6.53,-7.21 -17.6,-7.32 -26.16,-4.09zm259.17 111.22l0 0c-1.76,4.03 -2.31,8.88 -5.18,12.27 -24.9,15.69 -55.46,15.36 -83.81,13.93 -30.49,-2.75 -61.18,-1.05 -91.7,-2.98 -18.03,-0.06 -36.06,-1.07 -54.1,-0.71 14.36,4.55 29.32,6.69 44.05,9.59 60.07,10.23 121.43,15.71 182.24,9.56 39.29,-4.15 78.9,-13.38 113.07,-33.92 2.33,-24.9 5.56,-49.71 8.33,-74.57 -12.46,17.33 -23.27,35.79 -35.54,53.26 -1.28,-3.23 -2.54,-6.46 -3.79,-9.67 -4.12,4.09 -8.06,8.35 -11.96,12.63 -3.67,-4.99 -7.39,-9.94 -11.2,-14.83 -3.51,6.39 -7.01,12.77 -10.45,19.19 -3.86,-23.66 -7.89,-47.28 -11.77,-70.94 -9.77,25.59 -18.79,51.47 -28.19,77.19zm-683.24 -50.38l0 0c-13.78,6.14 -22.8,19.5 -27.98,33.18 -10.74,28.8 -11.33,62.55 3.8,89.93 7.95,15.04 20.99,26.26 32.45,38.51 21.58,20.71 43.4,42.1 70.12,56.12 -9.35,-15.34 -17.34,-31.89 -19.78,-49.89 -4.3,-23.53 1.47,-48.28 14.06,-68.42 14.89,-23.87 37.52,-41.7 61.38,-55.97 -30.71,-14.26 -61.89,-27.46 -92.49,-41.93 -12.99,-5.54 -28.4,-7.55 -41.56,-1.53z"/>
   <path class="fil2" d="M499.4 253.06c70.06,-60.42 151.66,-106.34 237.2,-140.99 -8.24,5.27 -17.15,9.35 -25.57,14.26 -91.22,50.98 -173.93,119.19 -235.02,204.44 -42.44,59.37 -73.86,127.17 -87.83,198.99 -12.31,61.44 -11.62,125.36 1.74,186.59 22.45,104.76 82.19,198.96 159.57,272 50.51,48.04 108.53,87.85 170.25,120.05 23.54,11.88 47.2,23.77 71.99,32.86 -22.8,-5.48 -44.72,-14.23 -66.72,-22.32 -75.9,-29.31 -148.31,-68.56 -212.25,-119.07 -75.1,-59.34 -138.87,-135.72 -173.46,-225.71 -24.22,-62.05 -33.26,-129.95 -25.84,-196.15 7.13,-65.85 30.67,-129.43 65.39,-185.65 32.24,-52.63 73.96,-99.03 120.55,-139.3zm1121.82 1127.66c21,-0.6 42.01,-0.06 63.03,-0.29 10.05,-0.23 21.51,1.83 27.92,10.41 10.95,14.03 9.59,35.3 -0.63,49.35 -5.85,8.38 -15.9,12.32 -25.57,14.23 11.08,16.59 18.46,35.22 24.71,54.08 -12.62,-0.07 -25.21,0.18 -37.8,-0.15 -3.81,-12.44 -8.62,-24.52 -13.44,-36.58 -2.06,-4.56 -3.82,-9.55 -7.58,-13.01 -2.7,-1.57 -5.87,-2.1 -8.76,-3.08 -4.18,17.41 -6.92,35.17 -10.3,52.75 -11.92,0.15 -23.85,0.04 -35.75,0.07 7.97,-42.61 16.68,-85.09 24.17,-127.78zm30.94 25.74l0 0c-1.6,8.73 -3.3,17.44 -4.93,26.18 9.46,0 19.07,0.21 28.38,-1.74 8.98,-2.2 14.06,-15.33 6.99,-22.04 -9.44,-4.45 -20.37,-2.06 -30.44,-2.4zm-125.69 -25.19c12.43,-1.89 25.63,-0.36 38.36,-0.69 6.09,42.62 12.04,85.25 18.44,127.83 -11.68,0.19 -23.37,0.04 -35.05,0.09 -0.46,-6.89 -0.9,-13.79 -1.45,-20.67 -12.63,-0.21 -25.26,-0.21 -37.9,-0.02 -2.88,6.8 -5.94,13.55 -8.6,20.46 -12.89,0.5 -25.79,0.12 -38.69,0.23 21.8,-42.31 43.2,-84.86 64.89,-127.23zm13.94 33.17l0 0c-7.06,15.16 -13.1,30.77 -19.9,46.04 7.93,0.04 15.88,0.02 23.83,0.06 -1.28,-15.37 -1.6,-30.88 -3.93,-46.1zm-172.65 -33.97c11.83,0 23.66,0 35.49,0 -4.2,23.41 -8.94,46.74 -13.39,70.11 -1.28,7.97 -3.46,18.04 3.02,24.41 9.24,6.7 24.15,3.65 29.73,-6.48 4.87,-8.56 6,-18.54 7.91,-28.04 3.61,-19.95 7.84,-39.79 11.03,-59.79 12.02,-0.44 24.06,-0.14 36.1,-0.21 -4.15,21.71 -8.41,43.41 -12.6,65.1 -3.28,18.45 -7.22,38.32 -21,52.06 -13.78,12.78 -34.13,14.22 -51.94,12.42 -12.19,-0.97 -24.14,-6.93 -30.94,-17.31 -9.38,-13.99 -8.18,-31.8 -5.85,-47.68 4.09,-21.54 8.2,-43.09 12.44,-64.59zm-217.7 0.66c12.56,-1.54 25.55,-0.34 38.28,-0.55 5.89,42.67 12.52,85.23 18.13,127.92 -11.57,0 -23.14,-0.01 -34.72,0 -0.44,-6.91 -0.9,-13.81 -1.49,-20.71 -12.63,-0.13 -25.24,-0.19 -37.87,0.02 -2.85,6.82 -5.93,13.53 -8.57,20.45 -12.9,0.53 -25.81,0.11 -38.71,0.24 21.82,-42.36 43.26,-84.94 64.95,-127.37zm13.95 33.28l0 0c-7.16,15.13 -13.13,30.8 -19.97,46.09 7.95,0.02 15.88,0 23.83,0.04 -1.22,-15.39 -1.74,-30.86 -3.86,-46.13zm-102.03 -33.87c11.99,-0.07 23.95,-0.24 35.93,0.12 -6.13,27.9 -10.89,56.09 -16.64,84.06 -2.56,12.12 -5.45,25.04 -14.01,34.5 -9.31,9.78 -23.81,11.56 -36.62,11.48 -12.69,0.02 -27.21,-1.79 -36,-11.94 -7.84,-9.1 -7.91,-21.77 -6.84,-33.06 11.25,-1.55 22.51,-3.02 33.8,-4.23 0.31,5.6 -1.93,12.62 2.58,17.11 4.51,3.57 11.74,3.42 15.88,-0.67 3.75,-4.19 4.78,-9.92 5.97,-15.19 5.35,-27.39 10.56,-54.81 15.95,-82.18zm716.1 -1.81c15.25,-1.13 32.35,0.15 44.75,10.07 8.37,6.48 11.62,17.03 13.02,27.1 -11.09,1.18 -22.21,1.37 -33.31,1.93 -0.84,-6.29 -3.44,-13.4 -10.09,-15.42 -6,-1.36 -13.82,-1.99 -18.06,3.42 -3.92,4.05 -1.87,11.02 3,13.37 13.28,7.76 29.32,11.35 40.44,22.59 10.37,10.24 12.55,26.7 7.49,40.04 -5.33,15.11 -19.88,26.23 -35.76,27.92 -14.77,1.85 -30.54,1.45 -44.26,-4.88 -14.23,-6.95 -20.56,-23.73 -19.79,-38.83 11.12,-0.74 22.2,-2 33.34,-2.39 0.4,7 1.26,15.81 8.35,19.38 8.62,4.4 21.9,2.87 26.4,-6.71 2.4,-5.33 -0.33,-11.81 -5.39,-14.41 -12.85,-6.99 -27.56,-10.68 -39.01,-20.1 -12.13,-10.2 -13.07,-29.16 -5.94,-42.54 6.69,-12.69 20.98,-19.38 34.82,-20.54zm-531.57 11.12c18.52,-12.27 43.46,-15.35 64.04,-6.57 13.83,5.92 21.75,20.02 25.07,34.11 -11.69,1.54 -23.39,3.23 -35.16,4.11 -1.89,-4.53 -4.07,-9.39 -8.49,-11.97 -9.04,-5.52 -21.76,-3.05 -28.36,5.16 -9.28,11.18 -13.18,26.01 -14.02,40.27 -0.77,10.07 3.84,21.23 13.37,25.64 9.41,4.02 20.03,1.02 28.46,-3.93 0.99,-4.65 1.93,-9.29 2.75,-13.97 -7.28,-0.1 -14.54,-0.08 -21.78,-0.08 1.93,-8.71 3.09,-17.58 5.23,-26.24 17.72,-1.68 35.87,-0.23 53.76,-0.7 -3.9,20.04 -7.76,40.09 -11.62,60.15 -20.51,11.34 -44.87,18.14 -68.24,13.19 -17.85,-3.57 -31.97,-18.9 -35.17,-36.67 -5.67,-29.93 3.92,-64.96 30.16,-82.5zm-521.8 -204.99c14.54,0 29.1,0 43.65,0 -9.37,25.09 -19.15,50.03 -28.48,75.14 11.6,0.15 23.18,0.04 34.78,0.07 9.56,-25.09 19.06,-50.18 28.71,-75.21 14.54,-0.06 29.08,0.09 43.63,-0.1 -21.37,56.6 -43.06,113.09 -64.56,169.64 -14.58,0.04 -29.16,-0.08 -43.74,0.08 9.38,-25.02 19.09,-49.88 28.45,-74.9 -11.58,-0.19 -23.16,0 -34.72,-0.13 -9.61,24.96 -19.07,49.97 -28.65,74.95 -14.56,0.04 -29.1,-0.11 -43.62,0.1 21.28,-56.63 43.03,-113.1 64.55,-169.64zm-112.04 0.11c33.29,-0.25 66.58,-0.06 99.88,-0.1 -2.48,6.52 -5.04,13.02 -7.33,19.61 -9.2,0.36 -18.41,-0.04 -27.6,0.36 -18.99,49.92 -38.33,99.72 -57.52,149.56 -14.56,0 -29.12,-0.04 -43.69,0.04 18.94,-49.96 38.34,-99.74 57.12,-149.73 -9.36,-0.11 -18.72,-0.02 -28.07,-0.09 2.39,-6.56 4.99,-13.04 7.21,-19.65zm-130.56 -0.11c14.54,0 29.08,-0.02 43.64,0 -18.97,49.89 -37.95,99.81 -57.06,149.65 11.68,0.19 23.35,0.05 35.01,0.09 18.86,-49.95 38.05,-99.79 56.95,-149.71 14.58,-0.11 29.16,0.04 43.74,-0.09 -19.09,50.43 -38.33,100.8 -57.58,151.18 -4.41,13.26 -19.74,17.18 -32.14,18.19 -21.02,0.54 -42.04,0.06 -63.08,0.25 -10,0.15 -21.08,-3.25 -26.51,-12.27 -2.18,-3.17 -0.09,-6.97 0.86,-10.15 18.81,-49.01 37.38,-98.13 56.17,-147.14zm-140.44 17.02c3.89,-10.56 15.42,-15.65 25.97,-16.47 17.77,-1.09 35.58,-0.33 53.37,-0.55 11.45,0.17 23.07,-0.66 34.36,1.66 5.14,0.78 9.33,5.37 9.65,10.57 -0.86,4.91 -2.81,9.53 -4.57,14.18 -16.07,41.98 -32,84 -48.04,126.01 -5.45,13.76 -21.98,17.5 -35.28,17.14 -21.63,-0.11 -43.28,0.11 -64.91,-0.1 -8.93,-0.42 -20.64,-2.42 -23.18,-12.59 3.68,-13.38 9.46,-26.05 14.16,-39.08 12.86,-33.58 25.55,-67.23 38.47,-100.77zm-6.87 132.7l0 0c11.6,0.06 23.19,-0.05 34.78,0.08 16.69,-43.23 32.97,-86.63 49.61,-129.87 -11.52,-0.4 -23.1,0.42 -34.56,-0.98 -16.55,43.61 -33.31,87.14 -49.83,130.77zm-134.26 -203.4c9.8,-4.4 20.79,-4.97 31.38,-5.2 42.76,0.05 85.53,-0.1 128.3,0.07 -10.55,6.94 -21.29,13.55 -31.82,20.51 -3.76,2.37 -7.62,5.43 -12.38,4.93 -25.05,-0.04 -50.11,-0.02 -75.16,-0.04 -9.73,25.36 -19.36,50.76 -29.03,76.14 21.37,0.13 42.75,-0.27 64.13,0.17 10.21,0.95 21.54,1.14 29.97,7.79 5.31,4.17 5.26,11.7 2.62,17.38 -9.65,25.28 -19.3,50.56 -28.9,75.84 -2.37,6.62 -6.53,12.75 -12.72,16.32 -11.66,6.98 -25.59,8.87 -38.95,9.29 -42.65,0.08 -85.33,-0.07 -127.98,0.08l0 -0.27c12.17,-7.22 24.63,-13.91 36.82,-21.08 3.96,-2.2 7.99,-4.95 12.75,-4.58 24.06,-0.02 48.14,0.11 72.22,-0.04 9.59,-25.21 19.11,-50.47 28.82,-75.64 -22.15,-0.4 -44.32,0.29 -66.47,-0.33 -10.03,-1.05 -21.67,-1.47 -29.16,-9.13 -5.49,-6.67 -1.38,-15.44 1.26,-22.38 9.17,-23.58 18.04,-47.3 27.1,-70.92 3,-8.23 9.25,-15.21 17.2,-18.91z"/>
  </g>
 </g>
</svg>
