<?xml version="1.0" encoding="UTF-8"?>
<!DOCTYPE svg PUBLIC "-//W3C//DTD SVG 1.1//EN" "http://www.w3.org/Graphics/SVG/1.1/DTD/svg11.dtd">
<!-- Creator: CorelDRAW -->
<svg xmlns="http://www.w3.org/2000/svg" xml:space="preserve" width="2000px" height="1600px" version="1.1" style="shape-rendering:geometricPrecision; text-rendering:geometricPrecision; image-rendering:optimizeQuality; fill-rule:evenodd; clip-rule:evenodd"
viewBox="0 0 2000 1600"
 xmlns:xlink="http://www.w3.org/1999/xlink">
 <defs>
  <style type="text/css">
   <![CDATA[
    .fil3 {fill:black}
    .fil1 {fill:#FEFEFE}
    .fil0 {fill:#134A93;fill-rule:nonzero}
    .fil2 {fill:#90182B;fill-rule:nonzero}
   ]]>
  </style>
 </defs>
 <g id="Capa_x0020_1">
  <metadata id="CorelCorpID_0Corel-Layer"/>
  <g id="South_x0020_Carolina_x0020_State_x0020_Bulldogs.cdr">
   <path class="fil0" d="M756.89 80l494.14 0c108.05,69.5 216.23,138.8 324.19,208.46 -0.1,93.28 -0.03,186.59 -0.05,279.87 -145.32,0 -290.66,0.02 -435.98,0 -5.81,-14.13 -14.42,-27.64 -15.49,-43.18 -0.11,-14.83 7.61,-28.41 8,-43.2 0.36,-7.54 -7.86,-12.81 -7.38,-20.15 4.77,-12.44 13.67,-22.73 21.98,-32.95 0.39,38.72 0.07,77.45 0.16,116.2 135.14,0 270.29,0 405.43,0 -0.02,-81.29 0.04,-162.58 -0.05,-243.87 -96.44,-61.85 -192.78,-123.83 -289.16,-185.77 -6.45,-3.91 -12.33,-8.88 -19.37,-11.65 -8.18,-1.07 -16.47,-0.37 -24.67,-0.48 -144.63,0 -289.25,0.05 -433.88,-0.02 -7.16,0.2 -14.52,-0.82 -21.53,0.86 -7.93,3.86 -14.95,9.24 -22.47,13.79 -96.82,61 -193.42,122.35 -290.34,183.2 -0.25,135.35 -0.04,270.67 -0.11,406 64.64,45.31 129.44,90.41 194.04,135.82 -1.48,10.13 -3.73,20.83 1.77,30.25 -72.68,-51.74 -146.16,-102.37 -219.11,-153.7 0.04,-143.75 0,-287.5 0.02,-431.25 109.98,-69.39 219.81,-138.98 329.86,-208.23zm60.19 1106.69c7.81,0.32 15.58,1.11 23.35,2.16 -0.09,26.09 0.09,52.21 -0.12,78.31 112.27,0.36 224.54,0.05 336.81,0.16 0,-25.8 -0.02,-51.6 0.03,-77.41 7.7,2.43 15.42,4.77 23.25,6.82 0,31.3 0,62.57 0,93.85 -127.78,-0.03 -255.56,0.13 -383.32,-0.07 0.09,-34.62 0.09,-69.23 0,-103.82zm307.15 -9.86c7.9,0.64 15.69,2.25 23.41,4.04 -0.09,19.74 -0.02,39.46 -0.04,59.19 -93.67,0.05 -187.34,-0.06 -281.01,0.07 -0.13,-15.72 -0.02,-31.39 -0.09,-47.08 7.7,1.61 15.56,1.91 23.37,1.02 -0.06,7.54 -0.06,15.08 -0.11,22.64 78.18,0.16 156.36,0.03 234.53,0.07 0.03,-13.33 0.07,-26.64 -0.06,-39.95zm-442.25 -97.96c43.34,-0.16 86.7,-0.02 130.06,-0.07 -0.89,7.77 -1.73,15.51 -2.37,23.31l-0.43 0c-35.86,0 -71.72,-0.14 -107.57,0.09 -5.86,-8.36 -12.4,-16.2 -19.69,-23.33zm89.31 -153.43c7.84,-0.86 -0.07,9.29 -2.02,2.37 0.5,-0.59 1.52,-1.78 2.02,-2.37zm353.98 -7.81c2.34,0.02 7,0.05 9.34,0.05 21.91,2.56 43.83,5.15 65.75,7.63 -0.18,17.3 0.61,34.61 -0.39,51.9l-0.52 3.25c-4.36,-6.37 -7.65,-13.41 -12.63,-19.33 -3.84,-4.57 -7.99,-8.95 -10.65,-14.38 -8.83,-3.25 -15.44,-10.22 -23.53,-14.81 -8.68,-5.61 -18.53,-9.02 -27.37,-14.31zm-457.94 -31.12c3.2,-0.63 8.81,2.41 8.45,6 -3.27,0.77 -8.77,-2.45 -8.45,-6zm676.69 -116.31c66.39,41.66 132.6,83.59 198.85,125.44 -0.57,50.65 0.82,101.28 0.5,151.95 -0.07,77.86 -0.07,155.72 0.57,233.58 -99.64,65.78 -198.65,132.6 -298.49,198.04 -35.37,1.02 -70.89,0.52 -106.3,-0.12 -122.74,0.1 -245.46,-0.06 -368.2,0.07 -5.84,-0.31 -12.54,1.25 -17.42,-2.84 -68.12,-47.72 -136.39,-95.28 -204.56,-142.95 -28.86,-20.51 -58.41,-40.14 -86.9,-61.14 -2.49,-64.42 -3.74,-128.95 -5.97,-193.41 50.11,-0.06 100.19,0 150.27,-0.04 -1.2,7.63 -1.77,15.35 -1.77,23.08l-1.7 0.04c-40.87,0.43 -81.73,0.05 -122.59,0.18 1.43,52.77 2.61,105.53 4.82,158.27 87.69,60.73 174.96,122.08 262.45,183.11 7.47,4.65 14.12,12.45 23.6,12.38 150.6,0.2 301.26,-0.57 451.87,0.7 6.61,-0.18 13.92,0.75 19.65,-3.29 77.22,-51.52 154.63,-102.8 231.9,-154.27 14.94,-10.65 31.25,-19.51 45.44,-31.12 1.82,-15.83 -0.02,-31.82 0.07,-47.69 -0.13,-102.87 0.37,-205.78 -0.81,-308.63 0.22,-3.49 -3.43,-4.88 -5.68,-6.72 -53.22,-33.36 -106.23,-67.05 -159.36,-100.53 -1.88,-11.79 -6.31,-22.89 -10.24,-34.09zm-42.09 -88.87c95.71,62.68 190.84,126.3 286.34,189.33 -0.47,56.72 0.94,113.43 0.53,170.17 -0.39,27.25 0.95,54.49 0.56,81.74 -0.38,62.6 1.16,125.17 0.46,187.77 -107.66,69.7 -214.93,140.02 -322.64,209.66l-530.55 0c-106.96,-73.13 -213.96,-146.25 -320.94,-219.36 -1.54,-84.74 -3.33,-169.46 -5.7,-254.16l0 -14.81c137.99,-0.02 275.94,0.05 413.93,-0.04 -3.8,7.49 -6.75,15.35 -9.16,23.37 -127.03,-0.05 -254.04,-0.16 -381.05,0.07 1.93,77.7 3.31,155.42 5.36,233.12 100.5,68.53 200.85,137.28 301.31,205.87 4.9,3.71 11.38,2.48 17.12,2.75 37.09,-0.57 74.16,0.96 111.25,0.48 127.94,0.02 255.91,-0.05 383.85,0.04 8.65,0.75 15.08,-5.88 21.96,-9.97 97.31,-63.41 194.7,-126.74 292.07,-190.04 -0.16,-33.27 0.5,-66.55 -0.55,-99.8 -0.2,-43.92 0.5,-87.87 -0.59,-131.78 0.5,-60.73 -0.75,-121.44 -0.52,-182.18 -77.5,-51.63 -155.24,-102.89 -232.87,-154.29 -6.96,-3.97 -9.32,-11.97 -12.84,-18.62 -4.88,-10.29 -11.26,-19.72 -17.33,-29.32zm-505.43 -2.09c9.29,2.7 4.77,14.87 -0.68,19.35 0.25,-6.45 0.41,-12.9 0.68,-19.35zm1.91 -362.28c10.33,-0.84 20.71,1.03 30,5.66 16.47,7.93 32.98,15.81 49.49,23.62 18.13,9.4 38.64,12.42 58.67,14.86 10.4,1.43 21.19,0.63 31.28,4.11 -24.69,5.2 -50.15,0.59 -73.98,-6.5 -33.18,-10.65 -63.39,-28.37 -95.46,-41.75zm102.34 -51.08c7.93,-2.65 15.06,3.16 22.62,4.57 -10.78,12.17 -23.8,23.05 -30.32,38.32 -3.99,11.53 -2.97,23.98 -3.36,35.99 -15.92,-6.47 -32.18,-12.33 -47.65,-19.78 -4.18,-12.31 -0.09,-26.5 8.93,-35.63 12.99,-13.77 31.89,-19.38 49.78,-23.47zm-54.92 50.54l0 0c8.32,0.09 8.88,-11.18 14.18,-15.92 2.95,-5.5 13.33,-9.09 8.7,-16.29 -10.23,8.41 -19.81,19.01 -22.88,32.21zm39.41 -27.23l0 0c-9.38,9.81 -13.36,23.21 -18.47,35.45 1.39,-0.04 4.21,-0.16 5.59,-0.2 4.52,-11.68 10.29,-22.72 16.45,-33.57 -0.89,-0.43 -2.68,-1.25 -3.57,-1.68zm-14.15 6.38l0 0c-5.16,7.47 -12.9,13.97 -14.56,23.26l3.25 0.47c5.79,-6.45 10.13,-14.06 15.74,-20.67 -1.11,-0.77 -3.32,-2.29 -4.43,-3.06zm97.35 -30.75c15.26,-5.05 32.59,-5.12 47.04,2.47 9.13,5 15.17,13.79 20.94,22.15 7.61,11.15 16.92,21.12 27.52,29.48 4.68,5.2 7.95,11.49 10.89,17.8 -10.95,7.61 -21.56,15.7 -31.53,24.56 -6.95,-9.2 -17.17,-16.45 -29.16,-15.99 -15.79,-1.43 -27.83,11.6 -43.2,12.1 -24.17,1.5 -48.36,-2.22 -71.69,-8.24 -2.18,-9.22 -3.93,-18.79 -2.31,-28.26 3.02,-19.96 17.51,-36.66 34.63,-46.4 10.38,-3.25 21.63,-4.41 32.46,-3.47 16.38,4.38 27.73,17.85 39.25,29.36 -4.66,-17.24 -21.67,-25.62 -34.84,-35.56zm38.88 24.03l0 0c12.81,16.08 26.51,32.79 30.05,53.73 1.11,-0.43 3.36,-1.29 4.48,-1.72 -1.07,-11.84 -6.93,-22.56 -13.06,-32.46 -5.59,-8.24 -11.25,-16.69 -19.04,-23.01 -0.61,0.87 -1.82,2.59 -2.43,3.46zm-52.71 -0.46l0 0c0.45,5.09 3.29,9.52 5.2,14.15 5.79,12.43 7.4,26.17 9.81,39.52 1,-0.82 3.02,-2.43 4.02,-3.25 -1.25,-17.87 -5.68,-36.5 -15.97,-51.42l-3.06 1zm-17.88 2.29l0 0c3.43,9.02 8.02,17.86 9.06,27.58 0.89,7.29 -0.77,14.53 -1.93,21.69 6.11,0.68 6.52,-5.79 7.11,-10.18 1.25,-13.37 -2.07,-27.27 -9.2,-38.63 -1.27,-0.11 -3.79,-0.34 -5.04,-0.46zm93.44 7.18l0 0c-0.34,0.71 -1.02,2.09 -1.36,2.8 4.81,9.69 11.11,18.6 15.58,28.5 1.52,2.77 4.5,9.79 7.81,4.77 -3.34,-9.97 -9.26,-18.78 -14.22,-27.98 -2.13,-3.09 -3.47,-7.68 -7.81,-8.09zm-100.03 8.59l0 0c2.18,11.83 3.98,23.78 2.91,35.86 8.52,-0.97 4.82,-11.47 5.36,-17.19 -1.09,-6.54 -0.14,-16.76 -8.27,-18.67zm56.83 9.95l0 0c2.52,6.54 5.07,13.06 7.61,19.58 1.2,-0.32 3.59,-0.98 4.79,-1.3 -2.18,-6.95 -4.86,-13.76 -7.99,-20.33 -1.12,0.5 -3.32,1.52 -4.41,2.05zm33.75 4.38l0 0c3,9.52 8.43,18.03 12.52,27.1 1.2,-0.48 3.56,-1.46 4.74,-1.96 -3.27,-6.92 -6.24,-14.01 -9.9,-20.78 -1.57,-2.34 -3.63,-7.61 -7.36,-4.36zm-248.64 -194.42c2.41,-1.57 5.07,-2.91 8.04,-2.64 144.64,-0.04 289.3,0.05 433.96,-0.02 7.13,0.54 15.35,-1.93 21.46,2.91 98.19,64.71 196.61,129.05 294.77,193.76 0,66.94 0,133.87 0,200.83 -121.15,-0.05 -242.3,0.11 -363.45,-0.09 0.14,-41.09 -0.09,-82.16 0.11,-123.24 0.46,-12.9 -3.86,-25.6 -10.17,-36.71 11.1,-0.11 22.21,-0.11 33.32,-0.04 0.06,45.54 0.15,91.08 -0.05,136.62 105.64,0.41 211.3,0.06 316.94,0.18 -0.05,-55.04 0.2,-110.07 -0.14,-165.1 -87.17,-56.83 -173.98,-114.2 -261.04,-171.24 -7.27,-4.54 -13.95,-10.19 -21.83,-13.71 -9.26,-1.93 -18.87,-0.62 -28.25,-0.89 -130.17,-0.02 -260.34,0.09 -390.48,-0.04 -9.06,0.45 -19.24,-2 -27.23,3.47 -94.22,61.01 -188.64,121.72 -282.9,182.66 -0.02,116.08 0.14,232.17 -0.06,348.26 47.38,31.61 94.85,63.11 142.45,94.39 2.82,12.06 7.66,23.46 11.63,35.14 -2.97,-1.57 -5.97,-3.09 -8.81,-4.91 -56.15,-37.18 -112.23,-74.45 -168.37,-111.59 -0.14,-124.83 -0.23,-249.64 0.04,-374.44 100.1,-64.42 200.06,-129.04 300.06,-193.56z"/>
   <path class="fil1" d="M1304.5 1270.98c-2.61,-0.34 -4.92,-1.49 -6.55,-3.61 -2.47,-3.23 -2.41,-7.36 -2.33,-11.21 0.06,-2.66 2.41,-5.41 4.06,-7.35 2.16,-2.54 4.49,-4.98 6.82,-7.37 2.16,-2.23 4.36,-4.43 6.55,-6.64 1.04,-1.05 2.52,-2.41 3.43,-3.57 2.82,-4.38 5,-8.99 8.35,-13.05l0.72 -0.87 1.04 -0.42c5.26,-2.15 20.77,-0.54 27.52,0.13 0.96,-0.19 2.34,-0.52 3.32,-1.03 -0.46,-14.13 -11.75,-25.32 -21.99,-33.89 -6.86,-5.73 -22.6,-10.73 -31.42,-8.52 -32.79,8.25 -65.38,17.35 -98.4,24.65l-0.79 0.18 -0.81 -0.12c-17.48,-2.48 -33.14,-10.51 -50.1,-14.66l-0.17 -0.04 -0.17 -0.06c-10.81,-3.55 -22.28,-4.92 -33.34,-7.5l-0.53 -0.12 -0.47 -0.24c-3.02,-1.52 -5.79,-3.42 -8.38,-5.58 -9.13,-7.66 -15.31,-18.44 -24.54,-25.61l-0.09 -0.07 -0.09 -0.08c-2.62,-2.26 -7.56,-2.51 -10.78,-3.02 -19.05,-2.6 -39.06,-9.9 -58.39,-6.94 -35.82,5.5 -74.69,5.2 -107.9,21.3 2.55,7.3 4.97,14.44 2.79,22.41l-0.09 0.31 -0.13 0.3c-3.8,8.71 -12.4,14.95 -21.67,16.65l-0.08 0.01 -0.08 0.01c-11.48,1.67 -22.15,-1.43 -33.35,-3.33 -58,-9.87 -117.35,-7.55 -175.55,-0.69 -10.48,1.75 -17.89,-6.46 -20.99,-15.54 -11.44,-2.18 -21.74,-7.87 -31.12,-14.45 -2.62,-1.73 -5.03,-3.73 -7.3,-5.89 -8.15,-7.77 -14.76,-18.57 -24.38,-24.49l-4.6 -2.83 3.64 -4c1.7,-1.86 3.41,-3.7 5.11,-5.55 -0.26,-8.04 0.57,-15.94 4.47,-23.12 0.98,-7.63 -0.34,-14.7 2.06,-22.48l1.16 -3.78 3.89 0.69c8.17,1.44 16.67,1.2 24.93,0.94 15.54,-0.48 30.7,-1.03 44.9,6.43l0.19 0.1 0.17 0.12c13.84,9.03 19.64,23.74 28.5,36.83 4.29,3.31 10.39,4.08 15.54,2.68l0.14 -0.04 0.15 -0.02c23.16,-4.63 46.83,-8.31 70.44,-5.09 1.77,0.24 7.48,0.94 8.1,-1.44 6.05,-25.64 3.57,-52.26 16.33,-76.26 4.19,-8.29 10.8,-14.77 18.32,-20.01 -24.44,-27.51 -48.06,-55.92 -67.81,-87.01 -14.72,9.65 -31.2,19.55 -49.37,14.36l-0.2 -0.06 -0.2 -0.08c-22.62,-8.88 -33.37,-30.52 -46.78,-49.01 -3.7,-2.62 -7.98,-4.73 -11.95,-6.9 -10.74,-5.88 -20.51,-12.68 -21.24,-26.08l-0.03 -0.72 0.18 -0.69c3.73,-13.7 0.66,-28.29 -1.68,-41.96l-0.44 -2.58 2.04 -1.64c1.9,-1.55 3.82,-3.06 5.75,-4.57 -5.48,-14.13 -11.22,-28.22 -11,-43.7 -0.15,-6.95 3.52,-11.32 6.58,-16.97 0.55,-3.76 0.37,-7.49 -0.31,-11.24 -1.21,-6.69 -3.94,-13.21 -6.4,-19.53 -3.04,-7.78 -5.83,-15.55 -6.3,-23.96 -0.95,-6.29 -0.52,-12.72 1.14,-18.85 6.61,-24.48 32.11,-43.51 57.63,-40.11 5.56,0.61 10.1,3.53 13.84,7.36 3.75,-4.57 8.02,-8.47 14.32,-9.53 18.36,-3.09 35.61,8.12 46.04,22.46 5.36,6.87 8.21,14.73 12.27,22.24 3.17,0.55 6.59,0.5 9.83,0.98 -5.82,-3.25 -10.8,-7.64 -13.77,-14.3 -10.74,-24.08 -17.98,-49.51 -28.4,-73.7 -5.92,-11.71 -2.23,-24.25 1.21,-36.08l0.02 -0.09 0.03 -0.09c3.27,-9.71 6.62,-19.75 15.25,-25.8 0.8,-16.84 6.37,-32.94 12.75,-48.43l0.06 -0.13c5.02,-11.14 10.69,-22.51 20.61,-29.83 -10.91,-15.38 -16.15,-35.95 -9,-53.72 -12.82,-5.31 -25.7,-10.66 -35.08,-21.42l-0.09 -0.12c-7.79,-9.55 -10.66,-23.8 -4.54,-34.94l0.04 -0.07 0.05 -0.07c1.72,-2.88 3.69,-5.61 5.86,-8.17 12.62,-14.87 32.1,-23.86 51.68,-22.83 10.12,-0.03 19.16,3.41 28.36,6.85 2.52,-14.87 10.38,-28.55 22.49,-37.78 15.57,-11.86 34.97,-19.23 54.65,-19.01 3.74,-8.18 8.68,-15.99 18.16,-18.16 15.1,-5.36 33.51,0.9 39.96,15.67 18.81,-4.19 39.49,-3.99 55.77,7.54 19.73,13.97 32.53,34.77 45.19,54.86l9.69 15.39c18.64,-2.04 39.93,-2 52.34,13.94 27,2.26 44.25,33.99 34.68,58.69 -1.66,4.29 -3.83,8.35 -6.32,12.22 -8.5,13.18 -20.95,24.02 -28.1,37.91 -1.55,3.01 -3.71,6.87 -3.65,10.39 0.21,0.65 0.47,1.28 0.76,1.89 2.25,4.8 5.58,8.31 7.19,13.66l0.19 0.62 0 0.65c0.05,13.91 -5.32,26.24 -7.8,39.64 -0.51,4.04 -0.25,8.04 0.59,12.02 1.51,7.19 4.78,14.11 7.88,20.74 5.86,12.5 11.52,24.99 9.33,39.15 -0.05,0.65 -0.12,1.3 -0.22,1.95 -0.46,3.01 -1.48,5.84 -2.57,8.67 -1.05,2.7 -2.47,5.96 -2.79,9.05 17.42,7.98 35.75,13.84 53.73,20.36 27.82,10.07 56.64,17.16 83.31,30.24 0.82,-0.12 1.67,-0.32 2.44,-0.47 4.93,-0.96 9.53,-0.83 12.71,3.63 28.34,33.23 42.85,74.84 56.99,115.36 2.51,6.66 4.18,13.57 5.27,20.6 3.56,22.86 0.86,46.26 4.79,68.98l0.77 4.47 -4.48 0.71c-4.26,0.67 -8.97,1.86 -12.28,4.75 2.82,2.6 5.67,5.43 8.8,7.26 4.98,-1.17 9.66,-3.08 14.86,-3.7l0.14 -0.02 0.14 -0.01c2.79,-0.15 5.57,0.07 8.31,0.59 5.4,1.03 10.47,3.15 15.48,5.35 7.81,3.43 16.32,7.6 25.08,5.47l0.16 -0.04 0.16 -0.03c2.62,-0.43 5.23,-0.88 7.84,-1.31l7.14 -1.17 -2.14 6.91c-2.06,6.62 -4.48,13.14 -8,19.15l-0.11 0.18 -0.12 0.17c-3.59,4.99 -7.74,9.54 -12.04,13.92 -2.4,2.44 -5.26,4.78 -7.47,7.45 0.71,4.58 1.9,9.09 2.95,13.59l0.7 2.99 -2.54 1.73c-12.67,8.6 -29.66,11.64 -44.02,5.57l-0.17 -0.07 -0.15 -0.08c-11.15,-5.78 -17.63,-15.87 -25.04,-25.41 -14.63,-0.49 -28.99,-4.77 -40.86,-13.53l-0.23 -0.17 -0.21 -0.19c-9.42,-9.02 -12.8,-20.9 -16.87,-32.76 -1,-0.39 -2.55,-0.6 -3.38,-0.73 -1.92,-0.31 -3.8,-0.64 -5.6,-1.41l-1.46 -0.64 -0.73 -1.41c-2.77,-5.36 -4.56,-11.11 -6.31,-16.86 -2.3,-7.55 -4.62,-15.56 -9.59,-21.86 -9.53,-9.1 -20.6,-16.51 -30.67,-25.03 -13.85,-10.77 -25.39,-24.27 -34.06,-39.5 -4.14,0.27 -8.27,0.66 -12.39,1.15 -0.61,21.85 -2.6,43.83 -10,64.55 -6.47,18.12 -13.36,36.78 -28.3,49.79l-0.1 0.08 -0.09 0.08c-3.06,2.37 -4.52,6.13 -5.41,9.92 3.11,0.55 6.22,1.1 9.35,1.54l4.13 0.58 -0.59 8.32 -1 0c2.68,1.08 5.31,2.17 7.64,3.45 21.97,10.63 41.16,27.36 52.63,49.1 0.83,0.95 1.79,1.64 3.08,1.85 3.75,0.61 10.01,-2.88 13.43,-4.4l0.1 -0.05 0.11 -0.04c3.89,-1.51 7.91,-2.04 12.06,-1.73 9.95,0.75 18.07,5.89 27.35,8.6l0.16 0.05 0.15 0.06c10.27,3.82 22.62,8.62 22.19,21.84 -0.1,3.21 -1.8,5.97 -4.71,7.4 -4.22,2.07 -9.53,3.5 -14.08,4.72 -4.3,1.16 -8.69,2.18 -12.95,3.45l-0.13 0.04c-0.77,0.2 -1.81,0.64 -2.49,1.29 0.3,1.32 0.69,2.63 1.14,3.92 0.86,1.29 1.7,2.5 2.49,3.87 3.64,6.23 6.04,13.69 4.41,20.91 0.08,8.61 2.03,18.73 9.33,23.98 7.23,4.85 14.74,9.14 21.46,14.71 4.61,1.71 8.43,1.49 13.02,-0.55l0.42 -0.19 0.46 -0.1c11.23,-2.42 24.01,-2.66 32.84,5.87 1.72,1.37 3.27,2.93 4.68,4.62 2.93,3.53 5.15,7.53 7.27,11.58 3.64,6.94 7.25,14.93 14.95,18.15l0.27 0.11 0.24 0.14c1.93,1.12 3.9,2.13 5.91,3.08 19.88,9.35 41.76,11.78 59.2,26.47 8.87,7.48 18.33,14.59 22.17,26.08 3.66,11 -1.88,22.23 -10.28,29.37 3.73,8.07 6.88,17.92 6.77,26.32 0.13,9.69 0.3,19.37 -0.84,29.02l-0.38 3.26 -3.22 0.61c-27.03,5.15 -54.59,5.02 -81.99,4.49 -16.15,-0.32 -32.22,1.32 -48.13,-2.52zm-278.83 -928.46c-3.39,-6.65 -6.94,-13.18 -9.21,-20.4l-0.88 -2.79 2.2 -1.92c1.11,-0.97 2.38,-1.67 3.74,-1.97 -4.7,-7.45 -10.24,-14.46 -15.66,-21.25 0.68,1.59 1.26,3.26 1.74,5.03l4.37 16.18 -11.85 -11.85c-10.68,-10.68 -21.8,-23.91 -36.87,-28.11 -9.98,-0.81 -20.3,0.25 -29.88,3.18 -15.75,9.09 -29.22,24.53 -32.01,42.94l-0.01 0.08c-1.35,7.9 -0.09,16.05 1.65,23.84 22.06,5.51 44.89,8.86 67.66,7.45l0.13 -0.01c2.14,-0.07 4.25,-0.43 6.31,-0.98 3.98,-1.07 7.82,-2.83 11.56,-4.54 8.34,-3.82 16.19,-7.36 25.59,-6.59 3.99,-0.12 7.81,0.51 11.42,1.71zm16.99 2.82l1.36 2.89 -4.29 1.81c-0.21,0.09 -0.41,0.18 -0.62,0.26 1.66,1.42 3.24,2.96 4.71,4.59 9.07,-7.8 18.63,-15.01 28.45,-21.84l0.91 -0.63 0.58 -0.07 -12.58 -9.92c-6.94,-5.47 -13.34,-11.61 -19.1,-18.31 5.07,9.38 10.95,18.19 14.36,28.39l0.7 2.07 -1.21 1.82c-1.51,2.29 -3.79,3.98 -6.66,3.74 -1.19,-0.09 -2.21,-0.48 -3.11,-1.05 0.05,0.45 0.1,0.91 0.14,1.37l0.3 3.35 -3.14 1.22c-0.27,0.1 -0.54,0.21 -0.8,0.31zm-16.76 -48.91c0.08,-0.17 0.16,-0.34 0.24,-0.52l1.36 -2.79 3.09 0.29c1.44,0.14 2.8,0.55 4.03,1.25 -0.64,-0.89 -1.27,-1.79 -1.89,-2.69 -5.24,-7.64 -10.98,-16.26 -19.36,-20.73 -10.55,-5.63 -22.89,-6.62 -34.55,-4.48 8.88,6.19 17.83,12.32 23.67,21.16l1.18 -1.66c0.82,-1.15 1.62,-2.31 2.44,-3.46l2.76 -3.88 3.7 3c5.18,4.2 9.42,9.21 13.33,14.51zm-235.42 381.93l0.05 0.07c3.47,5.13 4.58,10.83 5,16.69 4.17,-2.98 7.29,-8.05 5.5,-12.73 -3.56,-1.2 -7.14,-2.47 -10.55,-4.03z"/>
   <path class="fil2" d="M1059.34 627.97c12.42,-1.81 23.71,-8.17 36.29,-9.24 16.26,-1.73 32.3,2.7 47.92,6.59 35.14,10.03 69.23,23.46 102.78,37.88 12.42,6.66 25.73,11.79 39.91,12.92 5.24,16.65 14.44,31.67 23.05,46.72 23.46,30.24 36.09,68.28 36.43,106.48 -21.69,16.04 -48.69,22.37 -75.18,24.26 -9.58,-11.13 -19.21,-22.6 -31.93,-30.28 -17.22,-10.17 -30.64,-25.62 -41.73,-42.04 16.59,-8.79 34.32,-16.65 47.47,-30.46 6,-6.31 10.16,-15.98 19.7,-17.48 8.11,-1.16 12.72,7.33 19.87,9.26 2.77,-0.82 2.7,-4.45 0.21,-5.63 -5.05,-4.86 -11.66,-7.54 -17.72,-10.77 2.45,-8.26 10.74,-11.31 16.42,-16.8 1.34,-4.96 -6.5,-1.89 -8.99,-1.62 -12.75,6.61 -19.67,19.83 -28.76,30.28 -16.63,18.12 -38.45,32.25 -62.57,37.68 -26.14,3.13 -53.08,-2.95 -75.91,-15.92 -7.95,-4.45 -14.81,-10.61 -22.67,-15.2 2.52,7.84 11.72,11.41 13.97,18.97 -4.59,2.38 -9.54,3.88 -14.13,6.24 7.95,-0.15 15.56,-2.92 23.49,-3.08 9.38,0.47 17.44,5.81 25.6,9.88 7.76,4.02 16.37,5.83 24.87,7.58 5.77,31.48 -6.32,62.96 -21.56,90.01 -10.26,17.74 -22.12,35.66 -40.02,46.52 -13.4,7.47 -22.46,20.51 -30.39,33.23 -3.22,4.16 -0.61,8.86 2.5,12.15 12.11,-17.49 23.26,-37.95 43.93,-46.52l2.22 0c2.55,5.59 2.59,12.06 5.57,17.56 4.47,8.79 11.65,15.67 18.12,22.94 3.3,3.55 0.89,8.77 -0.86,12.52 -12.4,22.23 -28.35,44.17 -51.88,55.53 -8.49,4.97 -18.89,2.73 -27.77,6.54 -9.75,4.02 -20.35,4.95 -30.48,7.56 -10.95,2.75 -22.38,-0.54 -33.3,2.39 -10.52,2.61 -21.44,2.43 -31.96,4.95 -20.85,5.09 -44.04,3.52 -62.73,-7.61 -27.17,-15.53 -51.13,-36.29 -71.53,-59.94 -19.96,-23.07 -40.22,-46.97 -51.33,-75.79 -18.55,-46.29 -23.3,-98.71 -9.92,-147.02 5.59,-22.9 18.58,-44.31 37.54,-58.51 8.81,-6.7 19.65,-9.88 30.53,-10.9 8.27,13.22 23.48,20.12 38.66,21.28 40.31,2.63 80.63,-9.56 114.65,-30.87 13.04,-8.81 20.76,-23.48 34.12,-31.91 7.31,-4.95 16.01,-7.38 23.16,-12.58 4.46,-3.07 8.77,-6.88 14.34,-7.75zm-281.3 -477.56c7.99,-5.47 18.17,-3.02 27.23,-3.47 130.14,0.13 260.31,0.02 390.48,0.04 9.38,0.27 18.99,-1.04 28.25,0.89 7.89,3.52 14.56,9.17 21.83,13.71 87.06,57.04 173.87,114.41 261.04,171.24 0.34,55.03 0.09,110.06 0.14,165.1 -105.64,-0.12 -211.3,0.22 -316.94,-0.18 0.2,-45.54 0.11,-91.08 0.05,-136.62 -11.11,-0.07 -22.22,-0.07 -33.32,0.04 -5.96,-6.65 -13.04,-13.26 -22.38,-14.12 -8.13,-0.44 -11.35,-9.54 -18.58,-12.06 -12.62,-5.12 -26.64,-3.59 -39.86,-2.39 -4.13,-8.74 -9.97,-16.54 -15.15,-24.69 -11.74,-16.99 -22.84,-35.75 -40.97,-46.72 -16.33,-9.88 -36.23,-8.18 -54.26,-5.38 -3.73,-3.95 -5.54,-9.75 -10.61,-12.36 -10.33,-5.77 -23.73,-6.04 -34.02,-0.09 -5.39,3.3 -7.89,9.38 -10.88,14.61 -23.21,-1.32 -46.77,8.58 -62.64,25.44 -8.32,8.58 -12.72,20 -14.7,31.63 -13.38,-4.27 -27.12,-10.1 -41.45,-7.22 -19.81,3.59 -41.45,14.79 -47.22,35.59 -3.88,10.18 0.79,20.83 7.47,28.58 9.06,11.35 23.4,15.85 36.5,20.71 -7.95,18.17 -3.86,40.54 10.02,54.72 -10.63,4.9 -16.83,15.33 -21.83,25.41 -8.06,17.06 -13.88,35.39 -15.1,54.28 -8.98,4.32 -11.7,14.63 -14.9,23.17 -3.02,10.86 -7.39,23.06 -2.05,33.91 10.41,24.26 17.99,49.58 28.37,73.84 3.2,7.41 8.36,14.24 15.81,17.81 -3.73,2.22 -8.25,2.95 -12.33,1.27 -4.77,-7.15 -7.3,-15.6 -12.56,-22.51 -9.88,-14.24 -26.46,-26.37 -44.61,-23.89 -7,0.77 -11.68,6.38 -15.88,11.42 -4.65,-5.43 -10.43,-10.79 -18.17,-10.13 -18.85,1 -36.41,12.22 -47.31,27.33 -11.11,15.58 -8.4,36.32 -1.79,53.14 4.58,11.43 10.63,24.22 7.17,36.6 -6.65,7.36 -6.58,17.42 -5.36,26.66 -47.6,-31.28 -95.07,-62.78 -142.45,-94.39 0.2,-116.09 0.04,-232.18 0.07,-348.26 94.25,-60.94 188.67,-121.65 282.89,-182.66zm390.95 638.19c5.77,-0.3 11.54,-0.46 17.33,-0.41 11.52,24.3 34.14,39.72 54.99,55.33 16.65,11.2 17.76,33.05 25.35,49.97 3.45,-0.89 6.9,-1.8 10.38,-2.68 3.97,11.31 5.9,25.37 16.9,32.3 11.69,8.63 25.98,12.58 40.4,12.69 7.43,9.31 13.99,20.22 24.9,25.87 12.94,5.48 28.32,2.61 39.77,-5.15 0.38,-8.7 -0.16,-17.99 5.68,-25.19 4.13,-4.23 8.15,-8.61 11.6,-13.4 5.79,-7.14 9.38,-15.7 11.68,-24.53 -6.25,1.31 -12.31,3.79 -18.74,3.83 -14.4,-1.88 -26.05,-13.05 -40.84,-13.19 -4.81,0.5 -9.34,2.22 -13.85,3.81 -3.89,-1.63 -7.73,-3.33 -11.54,-5.08 3.13,-6.16 9.38,-8.5 15.96,-9 -3.9,-22.98 -1.68,-46.42 -4.7,-69.48 53.13,33.48 106.14,67.16 159.36,100.53 2.25,1.84 5.9,3.23 5.68,6.72 1.18,102.85 0.68,205.76 0.81,308.63 -0.09,15.87 1.75,31.86 -0.07,47.69 -14.19,11.61 -30.5,20.47 -45.44,31.12 -77.27,51.47 -154.68,102.75 -231.9,154.27 -5.73,4.04 -13.04,3.11 -19.65,3.29 -150.61,-1.27 -301.27,-0.5 -451.87,-0.7 -9.48,0.07 -16.13,-7.72 -23.6,-12.38 -87.49,-61.03 -174.76,-122.38 -262.45,-183.11 -2.21,-52.74 -3.39,-105.5 -4.82,-158.27 40.86,-0.13 81.72,0.25 122.59,-0.18 -5.18,9.38 0.02,21.99 -9.25,29.23 9.86,6.2 16.29,16.02 24.17,24.31 11.6,9.69 25.05,18.53 40.38,20.48 1.89,7.93 7.97,17.26 17.4,15.31 46.9,-5.61 94.28,-8.08 141.48,-4.97l0 0.43c0.09,34.59 0.09,69.21 0,103.82 127.76,0.2 255.54,0.04 383.32,0.07 0,-31.28 0,-62.55 0,-93.85 32.12,-6.93 63.94,-15.27 96.22,-21.51 8.58,-1.59 17.62,-3.57 26.21,-0.87 16.49,4.71 28.8,18.86 35.2,34.3 1.23,3.09 2.86,7.84 -1.13,9.68 -9.54,3.38 -19.56,-0.93 -29.28,-0.09 -9.93,10.88 -13.85,26.23 -25.1,36.06l-1.38 0.75 -1.05 1.21c-3,2.38 -5.77,8.24 -1.41,10.72 10.25,5.25 22.24,4.77 33.46,5.43 35.91,-0.46 72.5,4.86 107.89,-3.23 3.11,-18.94 -0.18,-38.45 -7.13,-56.19 7.7,-5.56 14.8,-14.76 12.42,-24.82 -3.34,-15.43 -16.79,-25.58 -29.19,-33.89 -21.17,-14.95 -46.79,-20.85 -69.91,-31.85 -6.4,-14.08 -12.72,-31.89 -29.03,-36.88 -11.92,-4.11 -23.25,5.72 -35.13,1.86l1.11 -1.11c-1.18,-0.03 -3.57,-0.05 -4.77,-0.07 -7.11,-7.02 -16.76,-10.86 -23.67,-18.08 -4.2,-6.84 -5.67,-14.9 -8.85,-22.19l-0.12 -0.39 -0.06 -0.25c-0.46,-3.13 -0.66,-6.4 -2.89,-8.85 -0.02,-6.34 -1.48,-12.5 -2.23,-18.74 7.57,-9.11 21.74,-6.27 31.14,-12.56 4.71,-3.68 2.05,-10.31 -1.52,-13.72 -6.7,-6.32 -15.78,-8.79 -24.12,-12.13 -6.09,-2.16 -11.85,-5.16 -18.12,-6.68 -10.25,-1.48 -18.74,5.41 -28.17,7.97l0.18 -3.4c1,-17.29 0.21,-34.6 0.39,-51.9 -21.92,-2.48 -43.84,-5.07 -65.75,-7.63 -4.68,-0.66 -9.34,-1.55 -13.97,-2.37 3.88,-13.83 17.69,-20.44 23.71,-32.91 15.54,-28.68 23.46,-61.28 24.64,-93.8zm-467.32 313.6c35.85,-0.23 71.71,-0.09 107.57,-0.09 -1.22,4.38 -0.57,11.24 -6.47,12.17 -4.57,0.36 -9.13,-0.55 -13.67,-0.89 -20.6,-2.06 -41.25,1.09 -61.42,5.2 -5.38,1.16 -11.97,1.98 -16.47,-1.92 -3.74,-4.46 -6.49,-9.59 -9.54,-14.47zm365.23 -27.35c6.27,2.77 12.49,6.06 16.83,11.58 -4.88,1.62 -9.93,2.57 -15.04,2.98 -0.63,-4.86 -1.25,-9.72 -1.79,-14.56zm-123.88 -17.92c5.52,-0.25 11.15,-1.25 16.63,-0.05 4.59,4.62 6.77,11.02 11.22,15.77 10.95,11.33 25.8,17.46 37.93,27.3 -10.29,0.7 -21.6,1.18 -30.44,-5.04 -14.19,-9.91 -29.84,-20.65 -35.34,-37.98zm-25.46 -1.02c6.84,-0.07 13.65,0.27 20.46,1.02 1.14,12.01 12.09,18.4 18.02,27.85 -15.95,-4.07 -28.33,-16.54 -38.48,-28.87zm48.22 -1.25c7.45,-1.23 14.97,-2.07 22.51,-2.66 1.66,12.97 9.01,24.05 14.85,35.43 -16.49,-4.81 -30.11,-17.3 -37.36,-32.77zm40.34 -1.77c-2.61,-6.86 8.04,-6.07 12.15,-4.98 9.11,16.01 23.21,28.64 30.78,45.7 -3.77,0.52 -7.82,2.57 -11.54,1 -6.43,-5 -10.68,-12.13 -15.83,-18.31 -5.61,-7.47 -12.45,-14.42 -15.56,-23.41zm-12.63 -3.43c2.25,-0.41 4.5,-0.73 6.77,-0.96 2.47,4.59 2.57,10.13 5.31,14.65 7.34,12.11 17.7,22.01 25.12,34.03 -5.17,0.2 -12.83,3.74 -16.19,-1.98 -8.61,-14.33 -21.35,-27.94 -21.01,-45.74zm41.25 -2.5c3.31,-1.14 6.65,-2.16 10.04,-3.11 3.34,9.6 8.4,18.49 14.62,26.55 4.18,4.86 4.77,11.31 5.23,17.44 -7.68,-1.91 -10.29,-9.7 -13.7,-15.83 -4.5,-8.9 -10.54,-16.87 -16.19,-25.05zm-6.02 -1.61c9.2,12.62 18.35,25.62 21.67,41.22 -10.38,-10.4 -15.63,-24.73 -26.56,-34.68 1.55,-2.25 3.19,-4.43 4.89,-6.54zm23.01 3.04c-3.8,-7.5 6.54,-7.79 11.31,-9.81 -0.41,12.85 12.31,18.33 18.8,27.53 4.75,6.51 13.06,8.97 17.74,15.55 -3.31,0.37 -6.86,3.14 -10.13,1.44 -15.4,-7.7 -30.3,-18.7 -37.72,-34.71zm14.37 -10.95c1.84,-0.57 5.52,-1.72 7.36,-2.32 9.95,15.15 26.1,24.47 37.89,37.89 2.54,3.61 -2.09,7.25 -5.38,5.18 -14.04,-6.13 -23.17,-18.94 -33.53,-29.62 -3.18,-3.04 -5.09,-6.99 -6.34,-11.13zm18.9 -5.13c1,-0.21 3.02,-0.57 4.04,-0.75 13.2,10.33 22.94,24.32 35.73,35.18 1.27,5.97 -7.4,6.68 -10.58,3.41 -11.25,-8.99 -22.13,-18.81 -30.96,-30.21 -2.86,-2.61 -1.75,-6.5 1.77,-7.63zm10.54 -0.8c-3.02,-5.49 3.02,-6.63 6.22,-3.13 11.95,10.56 23.44,21.76 36.34,31.23 -4.77,9.72 -15.6,1.29 -20.37,-4.09 -6.54,-8.81 -15.79,-15.17 -22.19,-24.01zm12.63 -12.67c0.88,-0.2 2.68,-0.59 3.56,-0.8 9.04,7.5 15.52,18.02 26.12,23.74 3.82,3.11 10.91,4.41 10.45,10.56 -9.63,3.5 -18.06,-3.86 -24.8,-9.72 -6.22,-5.95 -12.81,-11.56 -18.47,-18.03 0.05,-2.57 1.09,-4.48 3.14,-5.75zm7.45 -5.27c0.5,-3.68 3.77,-5.56 6.36,-7.65 6.56,9.79 14.74,18.87 25.53,24.05 3.83,2.45 9.26,3.61 10.97,8.36 -1.75,2.04 -3.55,4.06 -5.41,6.02 -14.94,-6.61 -29.41,-16.13 -37.45,-30.78zm12.26 -9.31c-2.97,-4.34 1.59,-8.02 3.89,-11.25 10.44,11.02 20.98,22.08 33.75,30.49 6.4,2.4 -1.02,10.94 -5.52,7.58 -12.72,-5.84 -26.08,-13.56 -32.12,-26.82zm7.25 -17.49c1.32,-3.63 5.2,-9.68 9.63,-6.38 10.51,9.88 18.96,23.25 33.52,27.68 -2.31,4.59 -3.74,11.18 -9.2,12.93 -10.65,-5.11 -16.55,-16.11 -26.16,-22.65 -3.32,-3.09 -10.31,-5.95 -7.79,-11.58zm9.7 -23.33c9.67,1.43 13.94,11.04 19.85,17.58 5.06,6.54 12.83,10.13 18.39,16.11 -0.15,1.97 -0.52,5.92 -0.7,7.88 -17.24,-4.3 -26.07,-21.85 -40.52,-30.94 0.98,-3.54 1.96,-7.11 2.98,-10.63zm-13.61 -24.78c3.27,-2.75 7.79,3.07 5.04,5.98 -3.31,2.61 -7.58,-3.09 -5.04,-5.98zm15.79 19.19c-2.12,-8.74 -5.77,-17.03 -7.29,-25.91 17.89,6.72 32.29,20.01 44.08,34.68 2.89,2.96 2.68,7.18 2.95,11.02 -11.83,-13.02 -23.94,-26.35 -39.43,-35.09 2.05,3.65 4.55,7.06 7.7,9.85 9.91,9 19.42,18.47 27.94,28.81 2.27,2.42 3.41,5.6 3.36,8.94 -5.52,3.61 -9.88,-2.74 -12.94,-6.52 -7.09,-10.17 -15.49,-19.57 -26.37,-25.78zm115.7 -93.84c1.06,-2.03 2.75,-2.66 5.06,-1.91 4.04,7.83 5.77,16.6 7.61,25.16 -7.15,-5.72 -11.15,-14.4 -12.67,-23.25zm23.69 -5.18c1.11,0.09 3.31,0.27 4.43,0.36 2.68,8.15 5.36,16.42 7.04,24.85 0.66,5.36 -5.8,3.4 -6.68,-0.05 -3.34,-7.86 -6,-16.55 -4.79,-25.16zm-12.84 4.63c-1.88,-4.13 4.14,-4.13 6.25,-5.5 2.29,9.75 5.02,19.38 7.27,29.14 -2.75,-1.27 -6.88,-1.04 -7.82,-4.58 -2.81,-6.02 -4.74,-12.47 -5.7,-19.06zm23.87 -8.72c1.71,0.04 5.11,0.13 6.82,0.2 1.75,8.75 4.75,17.4 4.72,26.4 -0.18,3.18 -6.02,3.43 -6.63,0.54 -4.04,-8.38 -5.65,-17.87 -4.91,-27.14zm14.11 -2.32c0.23,-4.02 6,-2.2 8.7,-2.91 1.32,10.88 1.7,21.9 0.25,32.8 -1.25,-0.59 -3.79,-1.77 -5.07,-2.34 -2.43,-8.92 -4.13,-18.3 -3.88,-27.55zm14.54 -4.22c1.77,-1.46 3.72,-2.66 5.83,-3.61 -0.06,10.33 1.96,20.41 4.52,30.36 -2.56,2.21 -6.17,1.96 -9.24,2.8 -1.41,-9.75 -3.16,-19.79 -1.11,-29.55zm12.87 -6.84c2,-1.36 4.07,-2.63 6.2,-3.79 1.21,10.22 3.43,20.37 3.59,30.71 -0.7,3.61 -5.29,3.61 -7.79,5.38 -2.72,-10.47 -4.77,-21.65 -2,-32.3zm-605.86 -49.65c4.99,-1.63 11.33,-3.38 14.85,1.86 7,5.45 3.13,14.77 3.63,22.22 0.71,20.32 2.78,40.72 7.11,60.62 3.61,13.65 9.43,27.12 8.5,41.54 -7.07,7.47 -16.76,12.04 -26.49,15.01 -13.53,3.79 -27.91,-3.65 -35.77,-14.6 -7.58,-10.68 -17.46,-19.81 -22.53,-32.1 -4.88,-12.53 -23.24,-9.24 -28.07,-21.75 -3.91,-7.27 0.27,-14.72 2.25,-21.79 -0.82,-8.56 -5.73,-17.12 -2.59,-25.78 2.52,-5.74 9.88,-5.86 15.03,-7.88 9.45,-3.29 19.47,-3.43 29.35,-2.91 5.54,0.91 9.51,-3.47 13.74,-6.17 6.11,-4.66 13.83,-6.04 20.99,-8.27zm-45.91 -16.65c-0.31,-4.18 4.27,-4.18 7,-5.43 2.2,10.11 3.91,20.4 3.88,30.78 -0.97,-0.16 -2.93,-0.43 -3.9,-0.57 -3.37,-7.88 -6,-16.24 -6.98,-24.78zm-11.6 -7.45c1.59,0.23 4.77,0.68 6.36,0.91 0.29,10.83 4.63,20.96 5.63,31.64 -3.11,0.36 -6.2,0.64 -9.31,0.82 -1.59,-4.66 -3.41,-9.22 -5.64,-13.59 1.8,-6.45 2.55,-13.12 2.96,-19.78zm23.62 3.23c2.06,-1.55 3.93,-3.57 6.49,-4.25 3.12,10.06 4.46,20.58 4.84,31.07 -1.97,0.14 -5.9,0.39 -7.86,0.52 -1.79,-9.04 -2.47,-18.21 -3.47,-27.34zm-41.5 -12.04c4.63,1.25 13.11,2.63 10.93,9.4 -1.62,10.61 0.34,21.13 1.79,31.62 2.3,3.86 -6.47,3.61 -5.72,0.25 -2.73,-13.67 -7.84,-27.14 -7,-41.27zm-11.13 2.45c-0.18,-3.59 6.61,-4.56 6,0.09 2.13,15.68 7.24,30.73 9.72,46.34 -7.13,-1.37 -6.84,-9.11 -8.7,-14.61 -2.43,-10.58 -9.27,-20.55 -7.02,-31.82zm65.46 -4.36c0.98,-3.27 4.36,-11.88 7.79,-6.02 2.23,13.65 2.89,27.6 5.93,41.16 -3.79,-0.12 -7.7,0.41 -11.36,-0.82 -4.04,-10.83 -3.34,-22.98 -2.36,-34.32zm13.65 -4.88c4.13,-2 8.27,-3.95 12.42,-5.88 0.69,10.47 -1.06,21.05 1.35,31.41 2.18,5.54 -4.93,7.7 -7.66,11.15 -7.11,-10.79 -4.97,-24.46 -6.11,-36.68zm70.14 -53.42c-2.57,-7.52 -4.84,-15.13 -7.84,-22.49 2.14,0.8 6.39,2.36 8.52,3.14 -0.27,6.45 -0.43,12.9 -0.68,19.35zm125.03 -25.01c3.16,-0.18 6.32,-0.34 9.48,-0.52 1.68,8.11 5.47,16.83 2.52,25.03 -3.32,1.77 -8.34,5.45 -11.5,1.61 -1.86,-8.59 -1.09,-17.44 -0.5,-26.12zm-20.42 -1.18c3.89,0.02 7.8,-0.02 11.66,0.43 2.99,9.27 3.13,19.17 3.95,28.8 -4.79,1.09 -10.06,5.09 -14.92,2.36 -3.23,-10.22 -0.75,-21.12 -0.69,-31.59zm-11.35 0.3c1.2,0.61 3.59,1.86 4.79,2.47 0.5,10.06 0.98,20.12 1.98,30.16 -2.93,0.57 -5.86,1.32 -8.84,1.28 -5,-10.61 -4.38,-24.06 2.07,-33.91zm-18.81 3.83c0.82,-4.47 6.34,-2.81 9.56,-3.83 0.23,11.28 -0.2,22.55 -0.63,33.84 -4.36,-0.32 -8.68,-0.68 -13.02,-1.12 1.46,-9.6 1.82,-19.42 4.09,-28.89zm65.96 -4.02c4.7,-1 9.45,-1.91 14.17,-2.88 1.5,6.74 4.7,13.51 3.84,20.53 -2.56,4.29 -7.74,7.68 -12.78,7.91 -4.5,-7.43 -3.91,-17.11 -5.23,-25.56zm-80.65 0.41c0.18,-3.25 9.01,-5.29 7.43,-0.25 0.2,10.2 -1.26,20.33 -1.8,30.48 -3.32,-1.52 -8.88,-1.18 -10.11,-5.31 0.37,-8.45 1.84,-16.9 4.48,-24.92zm-13.04 12.06c0.77,-5.74 0.5,-13.94 7.81,-15.19 -0.88,7.7 -1.41,15.69 -4.56,22.91 -4.27,-0.02 -3.23,-4.83 -3.25,-7.72zm115.27 -18.31c2.86,-2.86 6.86,-3.95 10.45,-5.56 1.88,6.84 4.17,13.65 4.79,20.78 -2.61,3.52 -8.79,8.41 -12.54,3.8 -3.79,-5.32 -5.75,-12.93 -2.7,-19.02zm18.33 -11.15c2.63,-2.31 5.68,-4.15 8.61,-6.06 2.72,7.52 4.06,15.4 4.58,23.35 -3,1.81 -5.81,4.11 -9.22,5.09 -3.2,-2.91 -3.34,-7.82 -4.56,-11.72 -0.21,-3.43 -2.93,-8.09 0.59,-10.66zm24.19 -7.61c2.7,0.53 5.4,1.16 8.08,1.89 -0.5,3.07 -2.25,4.84 -5.29,5.27 -1.02,-2.36 -1.95,-4.75 -2.79,-7.16zm-11.06 -5.29c10.81,1.73 9.24,14.63 9.13,22.78 -1.53,0.05 -4.55,0.12 -6.07,0.16 -0.97,-7.65 -2.16,-15.26 -3.06,-22.94zm-189.38 126.61l0 0c-5.07,17.03 -6.73,35.34 -6.75,53.1 6.88,9.92 16.12,17.94 24.3,26.78 7.13,0.56 14.24,1.15 21.37,1.68 0.91,9.01 2.37,17.99 2.55,27.07 -1.09,-0.16 -3.27,-0.45 -4.39,-0.59 -1.9,-7.13 -2.42,-14.51 -3.49,-21.78 -13.36,0.84 -26.74,0.68 -40.11,0.79 1.29,11.5 1.34,23.4 4.92,34.5 6.89,8.36 15.93,14.7 23.94,21.94 5.14,5.34 12.81,3.21 19.38,3.3 8.2,-0.43 16.46,0.39 24.64,-0.71 6.02,-6.9 10.54,-14.99 15.83,-22.41 4.09,-5.23 0.89,-12.02 0.43,-17.85 -2.56,-12.43 -2.08,-25.19 -3.84,-37.69 -6.69,-8.88 -14.8,-16.74 -22.41,-24.84 -6.7,-3.32 -14.88,-2.37 -22.19,-3.57 0.82,-8.52 1.04,-17.15 3.25,-25.44 1.11,-0.11 3.36,-0.29 4.47,-0.39 -0.25,7.25 -1.32,14.45 -2.23,21.63 13.5,0.7 27.03,0.47 40.55,0.25 0.45,-11.45 4.22,-22.62 3.86,-34.03 -5.54,-8.72 -11.72,-17.12 -18.15,-25.21 -12.36,-1.66 -25.1,-1.22 -37.57,-0.82 -10.24,7.02 -19.62,15.49 -28.36,24.29zm108.52 -11.54l0 0c-5.89,5.81 -15.15,10.13 -16.08,19.28 -5.8,35.55 -5.93,72.14 0.38,107.61 0.64,7.32 7.77,10.77 12.74,15.04 6.75,4.79 12.61,10.99 20.2,14.49 12.17,0.77 24.39,-0.3 36.59,0.02 5.4,-8.79 12.24,-16.65 17.35,-25.62 -0.89,-16.78 -5.11,-33.39 -5.56,-50.31 -13.16,-0.34 -26.31,-0.27 -39.46,-0.09 0.55,12.59 1.59,25.17 3.59,37.62 -1.38,0.36 -4.11,1.11 -5.5,1.47 -4.9,-26.98 -5.36,-54.65 -2.4,-81.88 0.7,-4.88 0.31,-11.97 7.11,-12.04 -1,10.72 -2.09,21.47 -2.57,32.23 13.26,0.55 26.55,0.66 39.82,-0.04 -0.03,-14.4 3.08,-28.53 3.99,-42.79 -5.06,-9.23 -12.08,-17.22 -17.55,-26.19 -11.13,0.29 -22.24,-0.14 -33.32,-0.34 -8.34,-0.82 -13.29,7.22 -19.33,11.54zm201.64 182.15l0 0c-0.43,4.87 0.91,10.66 -2.7,14.63 -8.43,9.95 -23.24,10.79 -31.5,20.9 -8.95,10.17 -11,24.53 -9.43,37.59 1.68,0.07 5.04,0.2 6.72,0.27 0.69,-12.9 1.64,-28.48 13.38,-36.52 10.81,-6.13 24.65,-9.97 30.3,-22.22 3.29,-5.74 2.43,-18.1 -6.77,-14.65z"/>
   <path class="fil3" d="M1303.81 1254.82c0.94,5.65 6.38,11.44 12.41,9.25 8.29,-2.43 9.95,-11.76 14.42,-17.99 4.38,-6.04 8.61,-12.99 15.81,-15.99 -2.61,12.93 -17.69,19.6 -18.1,33.44 10.67,3.5 22.57,3.47 32.25,-2.82 3.02,-15.13 8.81,-31.05 21.71,-40.47 3.34,-2.62 5.23,-0.07 6.8,2.74 -16.77,5.66 -22.45,25.06 -24.76,40.8 14.9,-1.43 29.93,-3.07 44.86,-1.16 7.26,0 16.76,1.7 22.03,-4.48 0.2,-2.09 0.07,-22.65 0.09,-22.65 0.75,-9.47 -9.04,-17 -7.57,-26.38 0.8,-6.8 8.82,-9.48 9.88,-16.15 1.55,-9.61 -4.92,-18.04 -11.03,-24.67 -8.36,-9.45 -20.99,-12.58 -31.87,-18.03 -16.65,-7.93 -33.75,-15.36 -48.83,-26.08 -3.18,-1.75 -3.98,-5.36 -5.09,-8.45 -3.57,-12.1 -14.04,-20.92 -25.21,-25.82 -12.48,0.6 -24.74,6.68 -29.3,5.59 -6.5,-4.21 -11.7,-10.27 -18.76,-13.63 -4.16,-2.41 -9.66,-3.34 -12.06,-7.93 -5.25,-9.24 -8.64,-20.03 -6.77,-30.73 0.26,-2.12 -2.85,-7.39 -5.11,-10.9 -0.51,-0.79 -0.97,-1.49 -1.35,-2.04 -0.56,-0.83 -0.92,-1.34 -0.92,-1.34 -6.82,-13.72 -18.67,-23.9 -30.37,-33.33 -4.43,-3.47 -7.97,-8.1 -13.27,-10.35 -3.33,9.79 -4.76,20.37 -10.49,29.21 -12.42,20.73 -27.64,40.4 -47.42,54.6 -27.42,20.05 -61.37,27.09 -94.22,32.39 -8.47,1.25 -17.37,0.97 -25.25,4.86 17.99,15.47 40.83,28.46 65.36,26.03 -4.67,-11.79 -19.62,-13.5 -25.55,-24.15 10.79,2.5 18.99,10.88 26.92,18.15 13.28,15.58 25.14,34.36 44.63,42.84 18.87,3.79 38.59,5.22 56.51,12.94 12.15,5.52 26.8,7.57 39.31,2.16 20.97,-10.24 44.59,-12.49 67.48,-14.85 5.59,-0.64 10.91,-3.36 14.88,-7.32 3.59,-4.2 5.38,-9.74 9.68,-13.35 -0.73,5.99 -2.68,11.9 -2.09,18.03 5.77,-2.13 9.42,-7.2 13.83,-11.19 -1.54,4.08 -3.25,8.08 -4.75,12.19 10.83,3.82 17.89,10.88 26.3,17.47 8.07,7.22 17.97,15.99 16.24,28.05 0.21,7.68 -4,6.96 -9.49,9.86 -6.18,1.05 -19.17,0.42 -23.34,-0.78 -3.81,4.42 -8.14,8.71 -9.62,14.59 0.11,2.82 -12.07,13.85 -18.81,17.84zm-3.72 1.44c0.07,-3.07 18.45,-20.19 20.06,-22.47 2.75,-4.24 4.9,-8.85 8.13,-12.76 4.05,-1.65 19.7,-0.12 26,0.5 3.35,-0.55 6.14,-1.59 7.61,-3.5 0.6,-16.58 -11.57,-29.23 -23.58,-39.36 -7.99,-6.6 -25.12,-11.99 -35.38,-9.42 -32.73,8.24 -65.3,17.33 -98.28,24.62 -17.12,-2.43 -32.89,-10.47 -49.67,-14.59 -10.99,-3.61 -22.51,-4.99 -33.73,-7.61 -13.56,-6.83 -20.44,-21.6 -32.18,-30.73 -3.64,-3.13 -8.61,-3.36 -13.11,-4.06 -19.83,-2.7 -39.45,-9.86 -59.67,-6.93 -37.81,5.97 -78.02,5.23 -112.72,23.49 2.5,7.47 6.18,15.42 3.97,23.46 -3.2,7.34 -10.56,12.61 -18.37,14.04 -10.79,1.56 -21.4,-1.55 -31.96,-3.32 -58.46,-9.97 -118.26,-7.63 -176.93,-0.7 -9.18,1.59 -15.02,-7.32 -16.86,-15.09 -11.85,-1.59 -22.5,-7.45 -32.16,-14.21 -12.44,-8.23 -19.03,-22.6 -31.79,-30.46 2.11,-2.32 4.24,-4.61 6.36,-6.91 -0.44,-8.06 0.09,-16.19 4.22,-23.32 1.11,-7.43 -0.25,-15.24 2.02,-22.62 22.65,3.99 47.29,-4.25 68.53,6.92 13.08,8.54 19.1,23.74 27.62,36.16 5.42,4.54 13.26,5.77 20.03,3.93 22.62,-4.52 45.88,-8.13 68.95,-5.04 4.59,0.68 11.59,0.79 13.06,-4.84 5.89,-24.94 3.64,-52.08 15.97,-75.27 4.61,-9.13 12.54,-15.88 21.12,-21.12 -26.5,-29.67 -52.24,-60.31 -73.24,-94.17 -14.43,9.49 -31.33,21.51 -49.5,16.31 -21.53,-8.45 -32.32,-30.42 -45.22,-48.06 -11.56,-8.48 -30.98,-12.84 -31.91,-30.01 3.95,-14.53 0.89,-29.41 -1.59,-43.88 2.75,-2.23 5.52,-4.38 8.31,-6.54 -5.56,-14.54 -12.15,-29.35 -11.9,-45.22 -0.16,-5.93 3.82,-10.56 6.41,-15.51 3.43,-20.22 -11.86,-36.91 -12.86,-56.63 -4.59,-29.53 24.65,-57.94 53.83,-54.05 6.22,0.68 10.93,5.22 14.49,10.01 3.86,-5.15 8.09,-11.04 14.9,-12.22 16.65,-2.77 32.32,7.77 41.73,20.74 5.56,7.11 8.47,15.74 12.92,23.48 4.27,1.14 8.77,0.8 13.11,1.64 4.17,6.18 4.33,13.81 4.49,20.96 9.63,-2.13 18.67,-13.6 12.88,-23.16 -10.54,-3.5 -22.53,-7.5 -27.41,-18.52 -10.77,-24.07 -17.99,-49.56 -28.44,-73.77 -5.36,-10.47 -1.61,-22.37 1.45,-32.93 3.11,-9.25 6.36,-19.6 15.4,-24.71 0.34,-17.13 6.04,-33.57 12.49,-49.24 5.25,-11.63 11.36,-24.12 23.04,-30.53 -12.79,-15.51 -19.54,-38.54 -9.48,-57.19 -13.37,-5.63 -27.91,-10.77 -37.72,-22.03 -6.63,-8.13 -9.34,-20.42 -4.09,-29.96 10.97,-18.26 32.21,-30.01 53.6,-28.82 11.34,-0.07 21.76,4.79 32.23,8.51 1.16,-15.78 8.72,-30.8 21.44,-40.36 15.49,-11.92 35.14,-19.03 54.81,-18.01 3.29,-7.68 7.49,-16.49 16.53,-18.42 14.04,-5.13 31.89,1.34 35.82,16.67 18.51,-4.79 39.75,-5.58 56.08,5.88 19.08,13.61 31.71,34.1 43.99,53.61 -10.6,-8.36 -19.91,-18.33 -27.52,-29.48 -5.77,-8.36 -11.81,-17.15 -20.94,-22.15 -14.45,-7.59 -31.78,-7.52 -47.04,-2.47 13.17,9.94 30.18,18.32 34.84,35.56 -11.52,-11.51 -22.87,-24.98 -39.25,-29.36 -10.83,-0.94 -22.08,0.22 -32.46,3.47 -17.12,9.74 -31.61,26.44 -34.63,46.4 -1.62,9.47 0.13,19.04 2.31,28.26 23.33,6.02 47.52,9.74 71.69,8.24 15.37,-0.5 27.41,-13.53 43.2,-12.1 11.99,-0.46 22.21,6.79 29.16,15.99 9.97,-8.86 20.58,-16.95 31.53,-24.56 18.07,-2.2 40.9,-3.54 52.58,13.5 25.12,0.54 41.72,30.2 32.86,52.71 -7.29,19.17 -24.89,31.71 -34.23,49.7 -2.04,4.11 -4.45,8.45 -4.11,13.19 1.64,5.87 6.36,10.27 8.11,16.09 0.05,13.37 -5.36,25.93 -7.75,38.93 -3.42,26.02 21.95,46.04 17.77,72.11 -0.46,7.97 -6.5,15.1 -5.57,23.03 18.26,8.63 37.71,14.65 56.65,21.69 28.07,10 57.19,17.26 83.99,30.62 4.13,-0.18 9.47,-3.05 12.45,1.32 28,32.75 42.36,74.13 56.35,114.2 10.7,28.41 4.75,59.37 9.83,88.76 -6.9,1.09 -13.99,3.38 -17.8,9.7 4.83,3.74 8.76,8.76 14.37,11.44 5.41,-1.06 10.54,-3.31 16.04,-3.97 17.58,-0.98 31.91,15.6 49.67,11.29 2.61,-0.43 5.2,-0.89 7.84,-1.32 -1.96,6.29 -4.25,12.52 -7.59,18.22 -3.45,4.79 -7.47,9.17 -11.6,13.4 -3.05,3.09 -6.48,5.81 -8.98,9.35 0.68,5.36 2.07,10.59 3.3,15.84 -11.45,7.76 -26.83,10.63 -39.77,5.15 -10.91,-5.65 -17.47,-16.56 -24.9,-25.87 -14.42,-0.11 -28.71,-4.06 -40.4,-12.7 -9.09,-8.69 -12.25,-20.98 -16.24,-32.43 -2.71,-2.47 -7.52,-1.86 -10.93,-3.34 -6.58,-12.74 -7.36,-28.23 -16.56,-39.68 -9.67,-9.29 -20.91,-16.81 -31.16,-25.48 -14.15,-10.99 -25.8,-24.92 -34.34,-40.66 -6.47,0.34 -12.9,0.96 -19.31,1.84 -0.47,22.58 -2.06,45.56 -9.83,66.98 -6.06,17.33 -12.81,35.55 -27.03,47.93 -5.31,4.13 -6.86,10.74 -7.9,17.05 4.63,0.82 9.29,1.71 13.97,2.37 -2.34,0 -7,-0.03 -9.34,-0.05 -1.23,0 -3.66,0.02 -4.88,0.02 6.4,6.09 15.4,7.73 22.96,11.93 21.28,10.26 39.93,26.48 50.95,47.6 6.13,7.73 15.1,2.16 22.07,-0.95 12.77,-4.95 24.67,3.52 36.55,7 8.22,3.06 19.62,6.88 19.28,17.51 -0.03,0.88 -0.32,2.59 -2.21,3.52 -6.2,3.05 -19.57,5.88 -26.34,7.9 -3.24,0.86 -5.29,2.79 -6.07,4.78 0.39,2.29 1.03,4.54 1.83,6.75 0.1,0.21 1.29,1.74 2.67,4.13 2.45,4.17 5.57,11.22 3.8,18.14 0,10.29 2.45,21.85 11.31,28.21 7.27,4.88 14.92,9.22 21.64,14.9 6.13,2.47 11.34,2.22 17.15,-0.36 9.68,-2.09 21.31,-2.69 28.94,4.86 12.22,9.56 12.99,28.77 28.14,35.11 20.55,11.86 45.9,13.56 64.46,29.09 8.02,6.86 17.33,13.66 20.8,24.08 3.46,10.33 -3.29,20.94 -11.65,26.62 3.36,6.55 8.05,18.04 7.92,27.71 0.12,9.47 0.3,18.99 -0.81,28.44 -26.71,5.08 -53.99,4.83 -81.06,4.4 -15.79,-0.41 -31.96,1.34 -47.43,-2.45 -5.49,-0.57 -5.29,-5.92 -5.2,-10.31zm-363.36 -965.58c1.25,0.12 3.77,0.35 5.04,0.46 7.13,11.36 10.45,25.26 9.2,38.63 -0.59,4.39 -1,10.86 -7.11,10.18 1.16,-7.16 2.82,-14.4 1.93,-21.69 -1.04,-9.72 -5.63,-18.56 -9.06,-27.58zm-65.64 4.89c1.11,0.77 3.32,2.29 4.43,3.06 -5.61,6.61 -9.95,14.22 -15.74,20.67l-3.25 -0.47c1.66,-9.29 9.4,-15.79 14.56,-23.26zm159.08 2.29c4.34,0.41 5.68,5 7.81,8.09 4.96,9.2 10.88,18.01 14.22,27.98 -3.31,5.02 -6.29,-2 -7.81,-4.77 -4.47,-9.9 -10.77,-18.81 -15.58,-28.5 0.34,-0.71 1.02,-2.09 1.36,-2.8zm-100.03 8.59c8.13,1.91 7.18,12.13 8.27,18.67 -0.54,5.72 3.16,16.22 -5.36,17.19 1.07,-12.08 -0.73,-24.03 -2.91,-35.86zm56.83 9.95c1.09,-0.53 3.29,-1.55 4.41,-2.05 3.13,6.57 5.81,13.38 7.99,20.33 -1.2,0.32 -3.59,0.98 -4.79,1.3 -2.54,-6.52 -5.09,-13.04 -7.61,-19.58zm33.75 4.38c3.73,-3.25 5.79,2.02 7.36,4.36 3.66,6.77 6.63,13.86 9.9,20.78 -1.18,0.5 -3.54,1.48 -4.74,1.96 -4.09,-9.07 -9.52,-17.58 -12.52,-27.1zm95.6 75c7,1.29 11.36,7.77 17.49,10.95 -7.74,4.24 -15.1,-4.21 -17.49,-10.95zm-1.95 11.31c4.34,1.27 7.43,4.88 11.04,7.4 3.4,1.23 0.13,4.27 -2,3.84 -5.29,-0.41 -9.66,-6.08 -9.04,-11.24zm-164.44 19.85c6.95,-5.95 14.62,-13.95 24.75,-11.45 -3.02,5.41 -9.22,7.36 -13.67,11.27 -7.11,5.02 -12.99,13.9 -22.85,12.33 1.3,-6.13 7.61,-8.31 11.77,-12.15zm27.46 0.05c8.29,-4.93 17.74,-11.54 27.86,-8.68 4.93,1.59 11.79,4.59 10.77,10.95 -4.95,1.45 -8.58,-3.09 -13.06,-4.25 -4.36,-0.2 -8.56,1.18 -12.7,2.34 8.95,4.38 14.9,13.15 14.06,23.33 5,-3.93 9.97,-10.27 17.17,-8.25l1.46 3.02c-6,4.57 -12.36,8.72 -17.26,14.56 0.77,3.16 1.45,6.31 2.13,9.49 -6.2,-1.9 -12.04,-5.49 -18.71,-5.17 -11.43,-0.32 -23.13,-1.73 -34.32,1.27 -6.68,1.72 -13.34,3.7 -20.24,4.2 -0.05,-6.63 6.11,-8.09 11.04,-10.06 -1.25,-3.45 -2.48,-6.88 -3.64,-10.36 -6.42,-3.88 -14.1,-3.52 -20.98,-5.81 -1.14,-5.52 5.65,-4.75 9.13,-5.32 6.9,0.98 13.17,4.52 20.17,5.09 10.97,-1.73 18.19,-10.74 27.12,-16.35zm-29.87 22.96c1.66,3.34 3.38,6.68 5.13,9.97 3.27,-0.8 6.59,-1.45 9.77,-2.61 -0.84,-3.05 -1.89,-6.02 -2.93,-9 -4,0.53 -8,1.05 -11.97,1.64zm164.3 -28.35c2.55,-1.61 7.3,0.03 7.23,3.39 -1.52,4.61 -10.54,0.68 -7.23,-3.39zm-71.9 4.98c4.83,1.34 10.1,3.52 12.26,8.47 5.34,10.65 2.09,23.71 -4.25,33.21 -1.04,-0.05 -3.13,-0.14 -4.18,-0.19 0.53,-9.4 6.34,-18.6 3.02,-28.11 -2.43,-4.48 -7.22,-7.73 -6.85,-13.38zm-27.76 38.84c5.41,-7.43 21.69,-2.75 20.67,6.77 -6.32,-4.14 -14.74,-2.57 -20.67,-6.77zm-197.24 23.48c3.23,-4.09 8.36,-9.99 13.88,-5.93 -3.25,3.12 -6.54,6.18 -9.72,9.38 -1.39,-1.16 -2.77,-2.31 -4.16,-3.45zm195.81 -4.13c5.2,1.86 10.61,8.15 8.52,13.88 -6.5,0.79 -12.31,-8.89 -8.52,-13.88zm48.76 11.22c6.84,0.91 17.22,2.13 17.74,10.9 -0.32,6.54 -2.47,13.17 -6.27,18.53 -1.06,-0.2 -3.2,-0.61 -4.27,-0.81 -1.77,-5.66 2.8,-11.72 3.07,-17.63 -4.13,-2.95 -9.2,-5.54 -10.27,-10.99zm38.68 22.57c-0.38,-8.33 2.5,-18.92 11.68,-21.14 -1.77,7.77 -5.29,15.22 -4.23,23.39 3.02,-4.29 5.43,-9.17 9.84,-12.31 -1.14,12.27 -2.79,24.83 3.27,36.16 -4.04,-0.16 -7.95,-1.61 -9.54,-5.54 -3.75,-6.77 -9.56,-12.74 -11.02,-20.56zm-46.03 -11.78c2.22,-0.39 4.45,-0.69 6.7,-0.89 1.74,3.2 0.65,8.86 -3.75,8.63 -3.98,0.07 -2.16,-5.43 -2.95,-7.74zm-235.68 41.18c6,-2.66 11.48,-6.57 17.86,-8.3 13.17,-2.47 24.98,5.5 37.86,6.55 -4.09,8.17 -13.35,3.7 -20.06,2.24 0.96,4.37 1.32,8.84 0.55,13.27 -4.68,-3.79 -6.86,-9.47 -9.29,-14.79 -0.7,0.46 -2.09,1.41 -2.77,1.89 2.75,4.95 5.29,10.2 4.93,16.03 -8.57,-2.09 -8.75,-12.42 -14.68,-17.62 -4.45,8.52 5.43,15.33 3.89,23.35 -1.11,-0.07 -3.34,-0.21 -4.45,-0.27 -3.48,-5.59 -4.48,-12.68 -9.68,-17.13 1.3,8.06 5.84,14.97 9.11,22.3 -1.11,0.93 -3.36,2.84 -4.48,3.8 0.89,6.58 1.75,13.24 1.05,19.91 -1.18,-0.95 -3.54,-2.83 -4.75,-3.79 -1.22,-11.44 -2.11,-24.14 -10.58,-32.91 -3.93,-6.09 -13.22,2.52 -15.56,-5.29 6.65,-3.86 14.2,-5.79 21.05,-9.24zm266.79 7.51c-4.88,-4.61 -5.13,-12.38 0.37,-16.67 2.29,2.23 4.83,4.14 7.65,5.7 0.09,1.3 0.27,3.86 0.38,5.16 2.12,2.04 3.78,4.41 3.98,7.47 8.63,1.34 -3.43,14.97 7.68,13.61 -0.82,4.13 -1.46,8.31 -2.07,12.49 -3.61,-2.57 -8.24,-4.05 -10.92,-7.7 0.06,-1.95 0.18,-5.88 0.25,-7.86 -3.39,-3.59 -10.59,-6.2 -7.32,-12.2zm-187.15 50.2c1.43,0.07 4.27,0.2 5.67,0.27 2.25,6.77 2.69,13.9 4.25,20.83 6.34,9.36 17.47,14.83 28.73,14.67 3.52,-0.77 2.25,5.43 0.07,6.25 -11.04,0.86 -22.03,-3.75 -30.48,-10.68 -8.81,-7.67 -9.58,-20.51 -8.24,-31.34zm213.95 334.17c9.2,-3.45 10.06,8.91 6.77,14.65 -5.65,12.25 -19.49,16.09 -30.3,22.22 -11.74,8.04 -12.69,23.62 -13.38,36.52 -1.68,-0.07 -5.04,-0.2 -6.72,-0.27 -1.57,-13.06 0.48,-27.42 9.43,-37.59 8.26,-10.11 23.07,-10.95 31.5,-20.9 3.61,-3.97 2.27,-9.76 2.7,-14.63zm223.52 190.43c2.59,1.75 5.2,3.63 7.32,6 11.33,12.4 24.05,24.12 39.42,31.29 5.3,2.59 11.47,2.8 16.65,5.66 1.03,4.7 -5.33,3.13 -7.99,2.77 -19.42,-4.68 -34.91,-18.44 -48.56,-32.34 -3.41,-3.8 -8.41,-7.52 -6.84,-13.38zm-579.2 25.94c19.78,-2.73 39.84,-3.89 59.78,-2.64 9.72,0.96 20.6,2.62 27.5,10.25 0.14,3.52 -2.24,4.27 -4.79,2.18 -12.7,-8.43 -28.57,-7.79 -43.15,-7.73 -15.31,-0.22 -30.44,2.43 -45.63,3.75 -5.48,-5.52 3.52,-4.65 6.29,-5.81zm91.46 -839.79c3.07,-13.2 12.65,-23.8 22.88,-32.21 4.63,7.2 -5.75,10.79 -8.7,16.29 -5.3,4.74 -5.86,16.01 -14.18,15.92zm161.49 -27.57c0.61,-0.87 1.82,-2.59 2.43,-3.46 7.79,6.32 13.45,14.77 19.04,23.01 6.13,9.9 11.99,20.62 13.06,32.46 -1.12,0.43 -3.37,1.29 -4.48,1.72 -3.54,-20.94 -17.24,-37.65 -30.05,-53.73zm-122.08 0.34c0.89,0.43 2.68,1.25 3.57,1.68 -6.16,10.85 -11.93,21.89 -16.45,33.57 -1.38,0.04 -4.2,0.16 -5.59,0.2 5.11,-12.24 9.09,-25.64 18.47,-35.45zm-85.36 480.03c8.75,-8.79 18.13,-17.26 28.37,-24.28 12.47,-0.4 25.21,-0.84 37.57,0.82 6.43,8.09 12.61,16.49 18.15,25.21 0.36,11.4 -3.41,22.58 -3.86,34.03 -13.52,0.22 -27.05,0.45 -40.55,-0.25 0.91,-7.18 1.98,-14.38 2.23,-21.63 -1.11,0.1 -3.36,0.28 -4.47,0.39 -2.21,8.29 -2.43,16.92 -3.25,25.44 7.31,1.2 15.49,0.25 22.19,3.57 7.61,8.1 15.72,15.96 22.42,24.84 1.75,12.5 1.27,25.26 3.83,37.68 0.46,5.84 3.66,12.63 -0.43,17.86 -5.29,7.42 -9.81,15.51 -15.83,22.41 -8.17,1.1 -16.44,0.28 -24.64,0.71 -6.57,-0.09 -14.24,2.04 -19.38,-3.3 -8.01,-7.24 -17.05,-13.58 -23.94,-21.94 -3.58,-11.1 -3.63,-23 -4.92,-34.5 13.37,-0.11 26.75,0.05 40.11,-0.79 1.07,7.27 1.59,14.65 3.49,21.78 1.12,0.14 3.3,0.43 4.39,0.59 -0.18,-9.08 -1.64,-18.06 -2.55,-27.07 -7.13,-0.53 -14.24,-1.12 -21.37,-1.68 -8.18,-8.84 -17.42,-16.86 -24.3,-26.78 0.02,-17.76 1.68,-36.07 6.74,-53.11zm31.14 -16.46c-8.35,6.74 -16.8,13.54 -24.25,21.28 -3.98,14.81 -4.82,30.34 -6.04,45.61 6.79,7.2 13.6,14.42 20.37,21.67 8.45,0.75 16.92,1.5 25.41,2.04 0.89,13.83 2.62,27.6 4.48,41.34 -6.91,0.93 -13.92,1.29 -20.87,0.95 -2.21,-6.95 -2.48,-14.33 -3.27,-21.53 -8.25,0.07 -16.52,0 -24.79,0.14 0.82,7.49 1.94,14.94 3.05,22.39 8.27,7.29 16.06,15.29 25.16,21.53 10.57,-0.61 21.36,0.48 31.76,-0.91 5.22,-6.51 9.49,-13.71 14.26,-20.55 -3.18,-15.15 -4,-30.6 -5.29,-45.95 -6.22,-7.59 -13.02,-14.85 -20.08,-21.62 -8.36,-1.84 -16.99,-2 -25.46,-2.86 0.75,-13.88 2.5,-27.65 4.88,-41.32 7.18,-0.04 14.36,0.11 21.53,0.66 -1.36,7.15 -2.43,14.35 -3.38,21.58 8.13,-0.07 16.26,-0.05 24.39,-0.07 0.94,-7.68 1.91,-15.38 3.52,-22.94 -4.99,-7.2 -10.24,-14.22 -15.3,-21.35 -10.02,0.43 -20.1,-0.59 -30.08,-0.09zm77.39 4.93c6.04,-4.32 10.99,-12.36 19.33,-11.54 11.08,0.2 22.19,0.63 33.32,0.34 5.47,8.97 12.49,16.97 17.55,26.19 -0.91,14.26 -4.02,28.39 -3.99,42.79 -13.27,0.7 -26.56,0.59 -39.82,0.04 0.48,-10.76 1.57,-21.51 2.57,-32.23 -6.8,0.07 -6.41,7.16 -7.11,12.04 -2.96,27.23 -2.5,54.9 2.41,81.88 1.38,-0.36 4.11,-1.11 5.49,-1.47 -2,-12.45 -3.04,-25.03 -3.59,-37.62 13.15,-0.18 26.3,-0.25 39.46,0.09 0.45,16.92 4.67,33.53 5.56,50.31 -5.11,8.97 -11.95,16.83 -17.35,25.62 -12.2,-0.32 -24.42,0.75 -36.59,-0.02 -7.59,-3.5 -13.45,-9.7 -20.19,-14.49 -4.98,-4.27 -12.11,-7.72 -12.75,-15.04 -6.31,-35.47 -6.18,-72.06 -0.38,-107.61 0.93,-9.15 10.19,-13.47 16.08,-19.28zm-7.54 17.6c-6.25,36.32 -7.32,74.13 0.68,110.22 8.22,7.75 17.6,14.18 26.53,21.1 9.83,-0.7 19.71,-0.4 29.59,-0.4 4.59,-6.82 9.27,-13.59 14.15,-20.2 -2.25,-13.24 -4.2,-26.57 -4.97,-39.99 -7.97,-0.05 -15.95,-0.07 -23.92,0.07 0.89,12.8 2.57,25.55 4.82,38.22 -7.41,0.34 -14.81,0.32 -22.24,0.3 -6.56,-35.75 -6.68,-72.62 -0.57,-108.43 7.38,-0.05 14.77,-0.03 22.17,-0.05 -1.8,10.54 -3.09,21.15 -4.02,31.8 7.9,0.02 15.81,0.02 23.71,0.02 0.84,-11.04 2.09,-22.05 3.98,-32.96 -4.82,-6.72 -9.63,-13.44 -14.09,-20.39 -10.37,0.02 -20.75,0.09 -31.09,-0.68 -8.31,7.04 -16.72,13.99 -24.73,21.37zm53.74 -486.9l3.06 -1c10.29,14.92 14.72,33.55 15.97,51.42 -1,0.82 -3.02,2.43 -4.02,3.25 -2.41,-13.35 -4.02,-27.09 -9.81,-39.52 -1.91,-4.63 -4.75,-9.06 -5.2,-14.15zm313.23 709.97c-2.46,-3.42 -6.04,-6.19 -10.36,-7.12 -7.7,-1.81 -15.69,-3.27 -22.41,-7.72 -10.27,-6.68 -21.36,2.59 -31.92,3.52 10.54,7.13 19.83,15.83 28.8,24.8 1.23,0.09 3.61,0.28 4.96,0.37 1.27,-1.38 2.7,-2.43 3.61,-2.94 -0.21,-0.19 20.89,-7.09 23.45,-7.7 1.65,-1.47 4.56,-2.24 3.87,-3.21zm-367.09 -732.48c-17.89,4.09 -36.79,9.7 -49.78,23.47 -9.02,9.13 -13.11,23.32 -8.93,35.63 15.47,7.45 31.73,13.31 47.65,19.78 0.39,-12.01 -0.63,-24.46 3.36,-35.99 6.52,-15.27 19.54,-26.15 30.32,-38.32 -7.56,-1.41 -14.69,-7.22 -22.62,-4.57zm-102.34 51.08c32.07,13.38 62.28,31.1 95.46,41.75 23.83,7.09 49.29,11.7 73.98,6.5 -10.09,-3.48 -20.88,-2.68 -31.28,-4.11 -20.03,-2.44 -40.54,-5.46 -58.67,-14.86 -16.51,-7.81 -33.02,-15.69 -49.49,-23.62 -9.29,-4.63 -19.67,-6.5 -30,-5.66zm249.93 49.25c-3.34,8.29 -14.6,7.06 -18.76,14.56 -1.79,2.56 -3.59,5.13 -5.56,7.56 -1.09,-1.36 -3.3,-4.11 -4.41,-5.5 -2.27,0.46 -6.81,1.37 -9.11,1.82 2.82,-8.52 13.63,-10.7 16.54,-19.26 2.25,-4.54 0,-11.77 -5.57,-12.24 -17.31,-2.82 -33.75,6.33 -46.97,16.58 -6.54,4.54 -10.72,12.92 -19.51,13.33 -0.2,1.63 -0.57,4.93 -0.75,6.56 7.09,-1.95 14.45,-2.5 21.78,-2.45 -6.27,6.63 -15.37,8.43 -22.76,13.24 14.32,-1.2 29.8,-4.59 42.96,3.29 2.61,2.07 9.35,3.62 6.63,8.14 -8.04,-1.46 -14.63,-7.5 -22.9,-8 -11.35,0.46 -22.73,2.32 -33.57,5.79 -14.42,4.34 -25.96,14.93 -40.49,19.06 -8.23,2.2 -16.77,4.82 -25.35,3.68 6.34,-9.31 19.17,-6.09 28.34,-10.5 13.7,-5.83 25.51,-15.78 40.23,-19.46 -2.16,-4.52 -4.34,-9.02 -6.79,-13.4 -4.61,1.66 -9.2,3.36 -13.81,5 -1.32,4.4 -2,9.38 -5.52,12.69 -22.19,2.12 -43.5,-4.9 -63.89,-12.76 -2.5,-1.43 -6.25,-2.89 -5.43,-6.45 18.76,1.04 35.68,15.47 55.06,11.56 2.95,-5.09 7.67,-10.95 5.95,-17.08 -8.43,-0.91 -5.98,11.74 -12.13,15.49 1.09,-5.72 3.25,-11.18 3.97,-16.97 -9.51,-3.31 -19.37,-5.56 -28.55,-9.79 -1.11,2.96 -2.18,5.91 -3.22,8.88 2.61,0.32 5.24,0.64 7.88,0.89 1.77,-1.75 3.61,-3.43 5.54,-5.02l-1.18 6.11c3.16,0.91 6.29,1.89 9.42,2.93 -2.81,1.86 -5.49,4.7 -9.17,4.45 -12.95,0.89 -22.6,-9.29 -33.73,-14.15 -11.08,-7.4 -28.1,-7.31 -37.32,3 10.84,2.04 21.1,6.68 29.35,14.08 7.77,6.09 13.26,15.7 23.21,18.6 3.27,1.46 8.18,1.14 9.4,5.32 -7.38,4 -15.46,-1.5 -21.8,-5.2 -12.86,-9.59 -22.78,-24.76 -39.54,-27.89 -8.2,-2.03 -13.47,5.58 -18.04,10.97 -6.99,8.85 -11.54,21.87 -5.56,32.36 3.59,2.32 7.49,4.16 10.83,6.88 1.39,-1.74 2.73,-3.54 4,-5.38 0.39,-7.06 -8.63,-11.08 -7.56,-18.28 8.99,0.66 13.28,11.47 22.66,11.51 0.18,-3.45 0.32,-6.88 0.46,-10.33 16.53,6.99 37.93,8.29 48.17,25.16 5.72,7.64 0.46,16.33 -1.91,24.08 0.59,5.59 7,3.5 10.66,2.48 11.99,-4.77 25.73,-3.43 37.11,2.4 26.5,16.13 59.39,17.04 89.24,12.4 -2.98,6.59 -10.41,7.16 -16.51,8.75 10.97,11.65 30.07,14.9 35.86,31.25 -8.38,-4.86 -15.6,-11.51 -24.28,-15.92 -7.79,-4 -14.42,-9.74 -20.69,-15.76 -6.63,-2.16 -14.04,-1.25 -20.97,-1.57 10.29,20.87 30.3,33.71 49.13,45.97 -4.47,0.14 -9.04,-0.2 -12.97,-2.5 -15.65,-8.01 -27.59,-21.46 -38.25,-35.13 -2.29,-2.75 -2.59,-6.43 -3.56,-9.73 -4.88,-1.09 -9.81,-2.09 -14.76,-2.88 2.56,9.74 9.17,17.94 10.76,28.03 5.18,1.04 9.34,4.11 9.47,9.83 2.36,-1.36 4.73,-2.72 7.09,-4.11 7.18,5.72 11.97,13.77 12.2,23.12 -0.84,0.89 -2.55,2.68 -3.39,3.57 -2.32,-7.11 -3.27,-15.04 -8.83,-20.53 -2.32,2.74 -4.66,5.49 -7.05,8.2 -2.29,-4.57 -3.54,-9.68 -6.63,-13.79 -2.59,1.57 -5.24,3 -7.95,4.31 -2.04,-7.83 -0.77,-16.53 -5.22,-23.64 -4.32,-7 -10.04,-12.99 -14.81,-19.62 -6.93,-2.89 -13.54,-6.48 -20.31,-9.7 -7.79,-1.46 -16.3,-0.91 -23.5,2.63 5.15,2.66 12.97,3.14 14.85,9.72 -0.75,6.64 -1.63,13.45 -3.34,19.88 -7.02,4.99 -15.46,0.59 -22.12,-2.75 -5.7,-0.48 -9.4,4.91 -13.76,7.68 -3.96,-4.3 -7.48,-9.43 -13.11,-11.68 -4,-2.22 -10.24,-2.97 -10.72,-8.61 2.43,-9.06 6.61,-17.53 15.17,-22.12 -9.06,1.32 -18.6,2.39 -26.23,7.95 -16.83,11.43 -37.05,20.46 -47.2,39.14 -7.97,12.99 -8.79,31.04 0.41,43.58 6.54,3.68 10.29,-4.38 13.76,-8.47 -2.06,-4.45 -3.83,-9.31 -2.77,-14.29 2.32,-14.49 9.57,-29.75 23.74,-35.86 -0.57,8.24 -4.82,16.1 -2.82,24.46 3.77,-1.57 7.38,-3.63 11.38,-4.7 3.93,-0.64 7.11,2.38 10.34,4.09 6.51,-5.7 15.08,-3.64 21.23,1.47 3.02,-1.52 5.95,-3.47 9.38,-4.02 5.45,-0.15 9.41,4.02 13.38,7.14 8.2,-4.5 16.1,1.15 21.6,7.08 7.79,-5.99 15.26,-12.72 24.48,-16.46 -2.24,4.92 -5.11,9.54 -7.81,14.24 0.3,4.61 0.41,9.22 0.5,13.85 12.83,5.22 27.33,7.97 41.07,5.45 -5.11,-7.81 -16.4,-10.24 -19.15,-19.46 15.74,1.34 26.87,15.58 31.34,29.71 3.59,9.24 1.73,19.89 6.66,28.68 6.81,14.72 27.03,11.02 37.54,21.69 -15.71,5.52 -31.89,-4.83 -43.11,-15.19 -10.01,3.43 -21.32,8.36 -31.61,3.16 -12.74,-6.66 -20.42,-19.67 -26.71,-32.1 -5.05,-11.63 -15.31,-21.55 -27.78,-24.66 -13.56,-2.48 -27.46,-2.41 -41.18,-1.8 -11.04,0.48 -21.24,5.04 -31.96,7.11 -7.88,1.82 -17.24,4.66 -19.98,13.29 -3.84,7.81 1.56,15.58 2.83,23.26 -2.59,-1.05 -5.17,-2.09 -7.76,-3.16 -3.16,6.22 -0.19,13.54 -3.25,19.83 -6.32,14.22 -10.79,30.8 -5.27,45.99 5.34,12.22 17.28,22.01 30.91,22.74 -2.77,-4.16 -5.45,-8.45 -5.77,-13.56 -2.7,-3.23 -5.86,-6.77 -5.09,-11.36 -0.13,-11.54 7.23,-20.92 10.48,-31.48 -5.68,4.79 -7.89,12.13 -11.16,18.56 -1.61,-1.5 -3.24,-3 -4.86,-4.5 2.48,-10.74 3.5,-25.12 14.95,-30.28 -2.98,-7.29 -7.45,-13.87 -10.38,-21.21 5.11,1.02 8.54,4.86 10.83,9.27 10.65,17.01 6.86,38.29 14.4,56.42 1.75,-0.28 5.27,-0.85 7.02,-1.12 1.09,9.09 5.04,20.22 15.51,21.63 -1.38,-5.64 -3.2,-11.18 -3.88,-16.95 6.97,4.73 6.25,15.81 14.38,18.94 -1.09,-5.81 -3.71,-11.51 -2.68,-17.53 3.74,5.9 5.9,13.04 11.33,17.72 5.34,-0.91 2.61,-7.43 3.36,-10.95 3.14,3.93 6.09,8.63 11.74,8.86 0.41,-11.56 -8.13,-20.56 -10.35,-31.53 13.24,6.43 11.26,25.71 23.64,33.43 12.02,9.82 28.33,7.07 42.32,4.36 8.26,-1.15 14.94,-6.42 22.57,-9.31 8.18,-3.5 17.49,-4.4 24.74,-9.92 1.95,-1.75 5.13,-3.27 4.81,-6.39 -2.13,-4.56 -5.72,-8.26 -9.06,-11.94 -5,-3.82 -11.67,-5.29 -15.49,-10.63 6.11,-2.14 14.58,7.31 17.81,-0.73 2.9,2.98 5.86,5.95 8.9,8.81 0.36,-3.88 0.82,-7.74 1.32,-11.6 4.27,8.95 6.88,19.19 15.35,25.32 -0.29,-4.77 -0.75,-9.51 -0.82,-14.28 5.77,7.67 6.84,18.96 16.49,23.35 -1.34,-6.16 -3.88,-11.93 -5.15,-18.06 4.11,4.15 6.79,9.54 11.26,13.35 8.41,-4.15 15.74,-10.4 24.9,-13.15 -10.11,-8.29 -19.63,-18.28 -22.69,-31.41 -2.66,-11.58 -11.45,-20.21 -15.36,-31.18 11.02,5.11 15.11,17.46 21.47,26.93 1.56,-3.56 3.13,-7.15 4.86,-10.65 3.72,8.9 0.09,18.83 2.52,27.98l2.41 -0.11c2.2,-6.93 1.13,-15.45 8.22,-19.83 -0.23,6.16 -1.05,12.27 -1.91,18.38 0.66,0.81 2,2.47 2.66,3.31 -1.3,2.11 -2.62,4.25 -3.66,6.52 2.79,1.61 4.45,0.93 5.02,-2.02 2.07,-8 -1.41,-18.65 6.81,-23.85 0.19,5.18 -0.66,10.31 -1.79,15.35 0.61,0.07 1.84,0.21 2.43,0.25 1.07,-3.99 2.27,-7.99 4.63,-11.47 1.62,8.2 -0.45,16.47 0.19,24.74 6.26,-3.52 3.63,-11.31 5.15,-17.01 1.73,1.47 3.45,2.99 5.18,4.52 1.07,-1.12 3.2,-3.34 4.27,-4.46 1.2,4.48 -0.14,9.07 -0.3,13.59 5.41,-1.87 7.04,-7.54 9.59,-12.04 0.2,3.09 0.41,6.18 0.68,9.29 1.68,-0.23 5.09,-0.71 6.79,-0.93 1.39,-3.23 2.73,-6.48 4.36,-9.57 0.52,3.23 1.16,6.43 1.86,9.64 3.07,-0.19 7.3,0.65 9.45,-2.03 2.41,-5.61 4.02,-11.65 7.84,-16.55 -0.39,6.79 -1.64,13.51 -2.02,20.3 4.9,-3.38 7.99,-8.61 8.61,-14.49 1.18,-8.15 5.79,-15.06 8.7,-22.58 -3.96,-18.1 -16.56,-33.77 -16.29,-52.85 -0.73,-9.61 5.13,-17.87 6.31,-27.19 2.37,-10.49 -2.22,-20.8 -7.1,-29.82 -2.66,-4.4 -5.02,-9.83 -10.41,-11.35 -1,4.61 -1.09,9.85 -5.02,13.1 -0.68,-5.5 -0.43,-11.04 -1.06,-16.51 -6.68,-4.7 -5.5,5.9 -7.73,9.65 -1.86,-6.43 -3.18,-12.99 -5.02,-19.42 -1.93,4.84 -3.09,9.93 -5.04,14.77 -0.98,-5.46 -1.57,-10.95 -2.41,-16.43 -1.93,-1.7 -3.77,-3.45 -5.54,-5.31 -1.32,-8.04 3.36,-15.97 1.98,-23.94 -5.36,-3.84 -12.79,-4.25 -17.47,-9.47 -4.18,1.38 -8.24,3.45 -12.72,3.4 1.75,-5.61 5.61,-10.92 1,-16.46 4.14,-0.32 8.31,-0.43 12.49,-0.57 7.57,-7.59 14.09,-16.26 22.47,-23.01 4.83,-3.63 12.58,-7.31 17.67,-2.09 5.15,4.7 1.18,11.93 1.27,17.81 -0.71,4.29 3.75,7.34 3.77,11.58 -5.7,10.61 -13.9,19.65 -20.01,30.01 -1.89,3.06 -2.68,6.74 -2.18,10.31 9.86,6.93 20.78,12.17 30.82,18.85 2.32,2.34 6.38,1.5 7.72,-1.45 7.27,-13.06 15.54,-25.49 24.49,-37.46 8.06,-10.01 11.76,-23.89 8.33,-36.45 -3.22,-11.13 -13.1,-21.15 -25.21,-21.33 -1.09,12.31 7.16,25.98 -0.88,37.23 -6.57,-15.45 1.93,-37 -13.88,-48.2 -22.53,-14.47 -53.33,-0.25 -66.03,21.06zm-189.29 3.31c2.48,4.39 7.04,7.02 11.84,8.18 1.88,-2.05 2.74,-4.45 2.63,-7.25 -4.7,-1.27 -9.65,-1 -14.47,-0.93zm61.42 13.72c-3.18,4.84 -5.04,10.38 -7.29,15.7 3.31,0.79 6.74,1.65 10.22,0.99 1.91,-3.67 1.22,-7.22 -2.07,-10.63 2.25,-1.43 4.48,-2.9 6.7,-4.38 -2.43,-0.88 -4.88,-2.13 -7.56,-1.68zm-105.46 45.04c-2.54,3.13 -4.52,6.77 -5.88,10.56 0.29,8.36 6.49,16.24 15.35,16.01 0.84,-6.51 1.32,-13.42 5.09,-19.03 2.98,-4.86 8.15,-8.27 9.74,-13.97 -7.56,4.05 -16.3,3.96 -24.3,6.43zm-15.01 25.87c-12.11,8.7 -18.13,23.62 -22.1,37.52 13.35,-10.97 28.34,-19.62 42.38,-29.59 -6.59,-3.09 -12.63,-14.02 -20.28,-7.93zm44.97 15.31c-0.7,2.45 -1.29,4.93 -1.73,7.45 -1.36,1.93 -2.72,3.86 -4.06,5.81 3.68,1.57 7.31,3.21 10.95,4.91 2.77,-4 1.88,-8.5 0.43,-12.81 4.15,-1.36 8.38,-2.5 12.53,-3.79 -5.29,-3.46 -12.37,-4.73 -18.12,-1.57zm-51.38 69.95c4.57,-1.02 9.13,-2.06 13.72,-3.04 -5.29,-9.11 -6.38,-19.83 -5.9,-30.16 -8.18,8.77 -13.79,21.64 -7.82,33.2zm17.47 -4.42c5.68,-1.25 11.29,-2.75 16.81,-4.64 -1.91,-4.77 -1.75,-14.08 -8.82,-13.78 -8.13,1.86 -8.74,11.63 -7.99,18.42zm20.67 -4.98c5.11,-0.59 10.22,-1.27 15.31,-2.07 -1.48,-4.72 -2.93,-14.01 -10.07,-11.51 -6.33,1.5 -5.76,8.52 -5.24,13.58zm21.37 -0.91c5.29,-0.16 10.61,-0.47 15.9,-0.81 -0.61,-5.82 -5.27,-10.79 -11.49,-9.29 -5.2,0.43 -4.57,6.33 -4.41,10.1zm21.9 0.25c4.29,0.57 9.4,5.09 13.12,1.18 -1.27,-6.88 -13.01,-10.83 -13.12,-1.18zm21.78 7.27c2.7,4.27 6.74,7.43 10.29,10.97 -1.37,-8.56 -0.84,-17.22 0.18,-25.75 -4.32,4.17 -9.2,8.67 -10.47,14.78zm-146.95 42.47c9.74,-9.08 3.04,-27.23 15.42,-34.34 -0.59,-3.09 -1.21,-6.15 -1.82,-9.2 -10.49,11.81 -14.11,28.1 -13.6,43.54zm15.44 -30.57c-3,1.55 -3.04,3.09 -0.16,4.64 3,-1.55 3.07,-3.09 0.16,-4.64zm-8.49 24.37c-1.12,6.14 -2.84,12.45 -1.28,18.7 4.2,-11.81 7.41,-24.44 7.59,-37.05 -3.77,5.43 -5.09,11.99 -6.31,18.35zm12.51 -18.12c0.75,3.77 2.77,6.54 6.04,8.34 -5.63,9.44 -8.63,20.25 -10.33,31.07 4.04,-3.46 4.83,-9 7.15,-13.54 2.09,-5.09 5.73,-9.31 8.47,-14.02 0.46,-6.72 -4.88,-11.46 -11.33,-11.85zm358.93 56.3c4.86,-4.95 5.39,-12.15 6.14,-18.64 -5.84,4.36 -6.09,12.01 -6.14,18.64zm-361.59 3.39c-0.77,-2.77 -1.66,-5.47 -2.72,-8.11 0.5,-2.36 0.95,-4.72 1.43,-7.09 -4.89,4.16 -5.75,12.68 1.29,15.2zm292.71 13.51c-5.57,0.87 -9.88,4.68 -14.34,7.75 -7.15,5.2 -15.85,7.63 -23.16,12.58 -13.36,8.43 -21.08,23.1 -34.12,31.91 -34.02,21.31 -74.34,33.5 -114.65,30.87 -15.18,-1.16 -30.39,-8.06 -38.66,-21.28 -10.88,1.02 -21.72,4.2 -30.53,10.9 -18.96,14.19 -31.95,35.61 -37.54,58.51 -13.38,48.31 -8.63,100.73 9.92,147.02 11.11,28.82 31.37,52.72 51.33,75.79 20.4,23.65 44.36,44.41 71.53,59.94 18.69,11.13 41.88,12.7 62.73,7.61 10.52,-2.52 21.44,-2.34 31.96,-4.95 10.92,-2.93 22.35,0.36 33.3,-2.39 10.13,-2.61 20.73,-3.54 30.48,-7.56 8.88,-3.81 19.28,-1.57 27.77,-6.54 23.53,-11.36 39.48,-33.3 51.88,-55.53 1.75,-3.75 4.16,-8.98 0.86,-12.52 -6.47,-7.27 -13.65,-14.15 -18.12,-22.94 -2.98,-5.5 -3.02,-11.97 -5.57,-17.56l-2.22 0c-20.67,8.57 -31.82,29.03 -43.93,46.52 -3.11,-3.29 -5.72,-7.99 -2.5,-12.15 7.93,-12.72 16.99,-25.76 30.39,-33.23 17.9,-10.86 29.76,-28.78 40.02,-46.52 15.24,-27.05 27.33,-58.53 21.56,-90.01 -8.5,-1.75 -17.11,-3.56 -24.87,-7.58 -8.16,-4.07 -16.22,-9.41 -25.6,-9.88 -7.93,0.16 -15.54,2.93 -23.49,3.08 4.59,-2.36 9.54,-3.86 14.13,-6.24 -2.25,-7.56 -11.45,-11.13 -13.97,-18.97 7.86,4.59 14.72,10.75 22.67,15.2 22.83,12.97 49.77,19.05 75.91,15.92 24.12,-5.43 45.95,-19.56 62.57,-37.68 9.09,-10.45 16.01,-23.67 28.76,-30.28 2.49,-0.27 10.33,-3.34 8.99,1.62 -5.68,5.49 -13.97,8.54 -16.42,16.8 6.06,3.23 12.67,5.91 17.72,10.77 2.49,1.18 2.56,4.81 -0.21,5.63 -7.15,-1.93 -11.76,-10.42 -19.87,-9.26 -9.54,1.5 -13.7,11.17 -19.7,17.48 -13.15,13.81 -30.88,21.67 -47.47,30.46 11.09,16.42 24.51,31.87 41.73,42.04 12.72,7.68 22.35,19.15 31.93,30.28 26.49,-1.89 53.49,-8.22 75.18,-24.26 -0.34,-38.2 -12.97,-76.24 -36.43,-106.48 -8.61,-15.05 -17.81,-30.07 -23.05,-46.72 -14.18,-1.13 -27.49,-6.26 -39.91,-12.92 -33.55,-14.42 -67.64,-27.85 -102.78,-37.88 -15.62,-3.89 -31.66,-8.32 -47.92,-6.59 -12.58,1.07 -23.87,7.43 -36.29,9.24zm-253.48 -2.77c-2.84,5.73 -3.93,12.09 -5.45,18.22l3.09 -4.41c1.5,3.14 2.47,6.45 2.13,9.99 2.64,-3.63 4.11,-7.88 5.29,-12.17 -1.31,0.16 -3.95,0.52 -5.27,0.7 1.14,-3.74 4.52,-9.19 0.21,-12.33zm-161.76 40.86c-9.38,14.49 -4.07,32.98 2.31,47.61 6.09,11.67 5.61,25.21 7.43,37.93 9.36,3.61 18.49,7.72 27.87,11.27 7.83,2.81 18.96,1.97 23.14,-6.27 2.87,-5.68 5.84,-11.41 10.93,-15.43 5.02,1.46 11.11,4.73 15.92,0.93 5.54,-3.36 4.63,-10.44 5.34,-15.92 11.58,0.8 24.57,2.18 34.52,-5.15 10.88,-7.54 15.24,-21.56 13.47,-34.3 -4.18,-0.98 -8.36,-1.88 -12.56,-2.7 -4.72,9.58 -15.06,14.04 -25.37,13.56 -2.27,5.97 -4.36,12.51 -9.63,16.58 -5.57,4.75 -13.2,5.45 -20.22,5.04 -4.67,7.88 -11.76,14.74 -21.07,16.44 -7.13,1.37 -17.74,3.43 -21.9,-4.38 -5.63,-8.92 -0.82,-20.89 -7.4,-29.28 -4.59,-5.54 -11.77,-0.65 -17.61,-1.18 3.96,-5.68 12.02,-10.99 18.67,-6.36 10.45,8.59 7.77,23.58 12.68,34.64 11.74,2.66 28.96,-1.09 30,-15.6 0.16,-15.47 -16.08,-23.83 -20.94,-37.3 16.85,4 22.21,23.17 29.94,36.41 7.72,4.68 19.58,-3.79 20.37,-12.42 -0.91,-12.52 -8.88,-25.37 -21.3,-29.14 -5.25,-1.96 -12.04,-2.77 -14.09,-8.88 8.84,-1.28 17.72,1.18 24.81,6.51 8.92,5.25 11.35,16.02 16.94,24.06 6.36,-1.46 14.1,-2.39 17.83,-8.54 3.52,-10.2 -4.86,-18.74 -10.56,-26.12 -7.68,-9.81 -18.72,-20.08 -32.21,-18.01 -8.2,0.79 -12.4,8.24 -16.31,14.44 -7.54,-7.88 -17.67,-15.4 -29.3,-12.54 -12.94,4 -23.82,13.29 -31.7,24.1zm165.76 -6.18c5.13,-3.04 10.83,-13.15 4.86,-18.28 -2.93,5.16 -11.41,12.99 -4.86,18.28zm179.4 -17.26c0.91,7.68 2.1,15.29 3.07,22.94 1.52,-0.04 4.54,-0.11 6.07,-0.16 0.11,-8.15 1.68,-21.05 -9.14,-22.78zm11.07 5.29c0.84,2.41 1.77,4.8 2.79,7.16 3.04,-0.43 4.79,-2.2 5.29,-5.27 -2.68,-0.73 -5.38,-1.36 -8.08,-1.89zm-24.19 7.61c-3.52,2.57 -0.8,7.23 -0.59,10.66 1.22,3.9 1.36,8.81 4.56,11.72 3.41,-0.98 6.23,-3.28 9.22,-5.09 -0.52,-7.95 -1.86,-15.83 -4.58,-23.35 -2.93,1.91 -5.98,3.75 -8.61,6.06zm-161.56 9.68c5.25,2.93 10.56,5.68 15.99,8.22 1.43,-3.77 2.68,-7.61 3.91,-11.45 -4.52,-3.88 -8.95,-7.83 -13.56,-11.6 -2.87,4.59 -4.77,9.67 -6.34,14.83zm143.23 1.47c-3.05,6.09 -1.09,13.7 2.7,19.02 3.75,4.61 9.93,-0.28 12.54,-3.8 -0.61,-7.13 -2.91,-13.94 -4.79,-20.78 -3.59,1.61 -7.59,2.7 -10.45,5.56zm-115.27 18.31c0.02,2.89 -1.02,7.7 3.25,7.73 3.16,-7.23 3.68,-15.22 4.56,-22.92 -7.31,1.25 -7.04,9.45 -7.81,15.19zm13.04 -12.06c-2.64,8.02 -4.11,16.47 -4.48,24.92 1.23,4.13 6.79,3.79 10.11,5.31 0.54,-10.15 2,-20.28 1.79,-30.48 1.59,-5.04 -7.24,-3 -7.42,0.25zm80.65 -0.41c1.32,8.45 0.73,18.13 5.22,25.56 5.05,-0.23 10.23,-3.62 12.79,-7.91 0.87,-7.02 -2.34,-13.79 -3.84,-20.53 -4.72,0.97 -9.47,1.88 -14.17,2.88zm-65.96 4.02c-2.27,9.47 -2.63,19.29 -4.09,28.89 4.34,0.44 8.66,0.8 13.02,1.12 0.43,-11.29 0.86,-22.56 0.63,-33.84 -3.22,1.02 -8.74,-0.64 -9.56,3.83zm18.81 -3.83c-6.45,9.85 -7.07,23.3 -2.07,33.9 2.98,0.05 5.91,-0.7 8.84,-1.27 -1,-10.04 -1.48,-20.1 -1.98,-30.16 -1.2,-0.61 -3.59,-1.86 -4.79,-2.47zm11.36 -0.3c-0.07,10.47 -2.55,21.37 0.68,31.59 4.86,2.73 10.13,-1.27 14.92,-2.36 -0.82,-9.63 -0.96,-19.53 -3.95,-28.8 -3.86,-0.45 -7.77,-0.41 -11.65,-0.43zm20.41 1.18c-0.59,8.68 -1.36,17.53 0.5,26.12 3.16,3.84 8.18,0.16 11.5,-1.61 2.95,-8.2 -0.84,-16.92 -2.52,-25.03 -3.16,0.18 -6.32,0.34 -9.48,0.52zm-176.32 62.76c0.34,17.03 -5.38,36.5 6.61,50.99 6.95,-17.74 10.5,-36.62 16.04,-54.83 -7.52,1.43 -15.06,2.68 -22.65,3.84zm-18.85 15.67c1.14,12.22 -1,25.89 6.11,36.68 2.73,-3.45 9.84,-5.61 7.66,-11.15 -2.41,-10.36 -0.66,-20.94 -1.34,-31.41 -4.16,1.93 -8.29,3.88 -12.43,5.88zm-13.65 4.88c-0.98,11.34 -1.68,23.49 2.36,34.32 3.66,1.23 7.57,0.7 11.36,0.82 -3.04,-13.56 -3.7,-27.51 -5.93,-41.16 -3.43,-5.86 -6.81,2.75 -7.79,6.02zm-65.46 4.36c-2.25,11.27 4.59,21.24 7.02,31.82 1.86,5.5 1.57,13.24 8.7,14.61 -2.48,-15.61 -7.59,-30.67 -9.72,-46.34 0.61,-4.65 -6.18,-3.68 -6,-0.09zm11.13 -2.45c-0.84,14.13 4.27,27.6 7,41.27 -0.75,3.36 8.02,3.61 5.72,-0.25 -1.45,-10.49 -3.41,-21.01 -1.79,-31.62 2.18,-6.77 -6.29,-8.15 -10.93,-9.4zm41.5 12.04c1,9.13 1.68,18.3 3.47,27.34 1.96,-0.13 5.89,-0.38 7.86,-0.52 -0.38,-10.49 -1.72,-21.01 -4.84,-31.07 -2.56,0.68 -4.43,2.7 -6.49,4.25zm-23.62 -3.23c-0.41,6.66 -1.16,13.33 -2.96,19.79 2.23,4.36 4.05,8.92 5.64,13.58 3.11,-0.18 6.2,-0.46 9.31,-0.82 -1,-10.68 -5.34,-20.81 -5.63,-31.64 -1.59,-0.23 -4.77,-0.68 -6.36,-0.91zm11.6 7.45c0.98,8.54 3.61,16.9 6.98,24.78 0.97,0.14 2.93,0.41 3.9,0.57 0.03,-10.38 -1.68,-20.67 -3.88,-30.78 -2.73,1.25 -7.32,1.25 -7,5.43zm45.91 16.65c-7.16,2.23 -14.88,3.61 -20.99,8.27 -4.23,2.7 -8.2,7.08 -13.74,6.18 -9.88,-0.53 -19.9,-0.39 -29.35,2.9 -5.15,2.02 -12.51,2.14 -15.03,7.88 -3.14,8.66 1.77,17.22 2.59,25.78 -1.98,7.07 -6.16,14.52 -2.25,21.79 4.83,12.51 23.19,9.22 28.07,21.75 5.07,12.29 14.95,21.42 22.53,32.1 7.86,10.95 22.24,18.4 35.77,14.6 9.73,-2.97 19.42,-7.54 26.49,-15.01 0.93,-14.42 -4.89,-27.89 -8.5,-41.54 -4.34,-19.9 -6.4,-40.3 -7.11,-60.62 -0.5,-7.45 3.37,-16.77 -3.63,-22.22 -3.52,-5.24 -9.86,-3.49 -14.85,-1.86zm605.86 49.65c-2.77,10.65 -0.72,21.83 2,32.3 2.5,-1.77 7.09,-1.77 7.79,-5.38 -0.16,-10.34 -2.38,-20.49 -3.59,-30.71 -2.13,1.16 -4.2,2.43 -6.2,3.79zm-12.87 6.84c-2.05,9.76 -0.3,19.8 1.11,29.55 3.07,-0.84 6.68,-0.59 9.24,-2.8 -2.56,-9.95 -4.58,-20.03 -4.52,-30.36 -2.11,0.95 -4.06,2.15 -5.83,3.61zm-14.54 4.22c-0.25,9.25 1.45,18.63 3.88,27.55 1.28,0.57 3.82,1.75 5.07,2.34 1.45,-10.9 1.07,-21.92 -0.25,-32.8 -2.7,0.71 -8.47,-1.11 -8.7,2.91zm-14.11 2.32c-0.74,9.27 0.87,18.76 4.91,27.14 0.61,2.89 6.45,2.64 6.63,-0.54 0.03,-9 -2.97,-17.65 -4.72,-26.4 -1.7,-0.06 -5.11,-0.16 -6.82,-0.2zm-23.87 8.72c0.96,6.59 2.89,13.04 5.7,19.06 0.94,3.54 5.07,3.31 7.82,4.58 -2.25,-9.76 -4.98,-19.39 -7.27,-29.14 -2.11,1.37 -8.13,1.37 -6.25,5.5zm12.84 -4.63c-1.21,8.61 1.45,17.3 4.79,25.16 0.89,3.46 7.34,5.41 6.68,0.05 -1.68,-8.43 -4.36,-16.7 -7.04,-24.85 -1.12,-0.09 -3.32,-0.27 -4.43,-0.36zm-23.69 5.18c1.52,8.85 5.52,17.53 12.67,23.25 -1.84,-8.56 -3.56,-17.33 -7.61,-25.16 -2.31,-0.75 -4,-0.12 -5.06,1.91zm26.37 29.07c-3.32,6.93 1.13,15.78 6.04,21.23 10.7,10.34 25.44,19.31 40.81,14.45 7.48,10.24 15.54,20.83 27.42,26.23 7.72,3.71 18.35,5.66 24.94,-1.22 3.74,-4.52 0.56,-10.02 -0.98,-14.67 -9.88,0.06 -20.42,0.83 -29.39,-4.07 -3.77,-1.3 -3.88,-5.82 -4.66,-9 9,2.37 16.95,8.73 26.65,8.07 14.87,0.32 25.59,-12.4 31.7,-24.58 -10.24,-1.93 -20.28,-4.95 -29.48,-9.9 -6.93,-3.77 -15.58,-6.16 -23.01,-2.45 0.23,5.11 1.14,10.19 0.98,15.35 -2.77,-0.89 -4.79,-2.54 -6.09,-4.93 -4.65,-11.51 -17.05,-16.37 -24.78,-25.44 -12.83,5.52 -26.62,7.95 -40.15,10.93zm-142.07 64.77c10.88,6.21 19.28,15.61 26.37,25.78 3.06,3.77 7.42,10.13 12.94,6.52 0.05,-3.33 -1.09,-6.52 -3.36,-8.95 -8.52,-10.33 -18.03,-19.8 -27.94,-28.79 -3.15,-2.8 -5.65,-6.21 -7.7,-9.86 15.5,8.74 27.6,22.07 39.43,35.09 -0.27,-3.84 -0.06,-8.06 -2.95,-11.02 -11.79,-14.67 -26.19,-27.96 -44.08,-34.68 1.52,8.88 5.17,17.17 7.29,25.91zm-15.79 -19.19c-2.54,2.89 1.73,8.59 5.04,5.98 2.75,-2.91 -1.77,-8.73 -5.04,-5.98zm13.61 24.78c-1.03,3.52 -2,7.09 -2.98,10.63 14.45,9.09 23.28,26.65 40.52,30.94 0.18,-1.96 0.55,-5.91 0.7,-7.88 -5.56,-5.98 -13.33,-9.57 -18.39,-16.11 -5.91,-6.54 -10.18,-16.15 -19.85,-17.58zm-9.7 23.33c-2.52,5.63 4.47,8.49 7.79,11.58 9.61,6.54 15.51,17.54 26.16,22.65 5.46,-1.75 6.89,-8.34 9.2,-12.93 -14.56,-4.43 -23.01,-17.8 -33.52,-27.68 -4.43,-3.3 -8.31,2.75 -9.63,6.38zm-7.25 17.49c6.04,13.26 19.4,20.98 32.12,26.82 4.5,3.36 11.92,-5.18 5.52,-7.58 -12.77,-8.41 -23.31,-19.47 -33.75,-30.49 -2.3,3.23 -6.86,6.91 -3.89,11.25zm-12.26 9.31c8.04,14.65 22.51,24.17 37.45,30.78 1.86,-1.96 3.66,-3.98 5.41,-6.02 -1.71,-4.75 -7.13,-5.91 -10.97,-8.36 -10.79,-5.18 -18.97,-14.26 -25.53,-24.05 -2.59,2.09 -5.86,3.97 -6.36,7.65zm-7.45 5.27c-2.05,1.27 -3.09,3.18 -3.14,5.75 5.66,6.47 12.25,12.08 18.47,18.03 6.74,5.86 15.17,13.22 24.8,9.72 0.46,-6.15 -6.63,-7.45 -10.45,-10.56 -10.6,-5.72 -17.08,-16.24 -26.12,-23.74 -0.88,0.21 -2.68,0.6 -3.56,0.8zm-268.27 11.22c-15.85,15.76 -21.14,39.02 -21.64,60.71 -0.34,7.68 1.91,15.79 -1.11,23.17 -2.05,5.54 -8.14,9.43 -14.06,8.18 -28.98,-4.34 -58.76,-1.07 -86.72,7.31 -10.95,-7.81 -19.67,-18.26 -26.85,-29.53 -5.27,-8.42 -13.26,-15.53 -23.12,-17.81 -9.79,-2.86 -19.53,1.8 -29.34,1.85 -7.77,0.63 -15.22,-1.98 -22.85,-2.73 -0.09,4.02 -0.19,8.04 -0.23,12.06 17.46,3.29 35.18,-4.86 52.51,-0.23 2.61,2.55 9.63,4.89 6.84,9.36 -7.54,-1.07 -14.22,-6.99 -22.15,-5.41 -13.22,2.8 -26.59,5.25 -40.18,4.64 -1.34,5.43 -1.72,11.04 -0.56,16.56 19.71,-10.38 44.58,-13.59 64.66,-2.39 -0.68,4.04 -4.34,5 -7.65,3.16 -19.92,-7.52 -43.23,-3.84 -60.26,8.81 5.59,4.91 11.1,9.9 15.87,15.65 9.75,12.13 23.81,20.49 38.87,24.14 6.72,2.03 13.51,-1.02 20.32,-0.34 -2.9,4.32 -8.15,5.16 -12.42,7.48 0.61,5.74 6.86,10.67 12.65,9.4 30.25,-3.29 60.67,-4.75 90.97,-7.5 28.27,-1.95 56.92,1.23 84.19,8.93 11.68,3 24.35,4.57 36,0.68 7.02,-5.18 12.95,-13.99 11.36,-23.1 -1.68,-3.47 -4.77,-5.95 -6.88,-9.11 2.77,-6.74 11.24,-7.42 17.28,-9.53 36.71,-9.43 74.09,-17.68 112.02,-19.58 -7.29,-8.04 -16.65,-14.68 -26.8,-18.47 -9.7,0.23 -19.85,0.21 -28.28,-5.31 -17.17,-6.43 -32.5,-16.65 -46.85,-27.92 -1.96,2.64 -3.86,5.29 -5.93,7.84 0.5,-3.86 0.59,-7.7 0.23,-11.52 -5.07,2.23 -8.29,6.91 -12.36,10.43 1.61,-5.66 3.79,-11.18 4.88,-16.99 -5.15,3.81 -8.15,9.52 -11.6,14.74 0.13,-2.25 0.41,-6.75 0.54,-9.02 -3.52,2.84 -6.86,5.91 -10.33,8.79 3,-8.61 10.72,-14.78 12.58,-23.8 -8.31,7.09 -15.01,15.74 -22.17,23.89 0.41,-2.29 0.82,-4.58 1.23,-6.86 -2.09,-1.04 -4.16,-2.09 -6.2,-3.18 -2.07,2.55 -4.16,5.05 -6.31,7.54 0.31,-2.02 0.93,-6.04 1.22,-8.04 -2.95,2.73 -5.81,5.59 -9.06,8 4.09,-10.43 10.72,-19.51 16.87,-28.73 -6.76,3.18 -15.62,6.33 -17.08,14.74 -0.88,4.15 -4.67,6.49 -7.42,9.38 0.82,-4.7 1.86,-9.34 2.34,-14.08 -5.93,5.08 -12.11,9.83 -18.22,14.67 1.45,-4.84 2.68,-9.79 4.7,-14.42 3.25,-5.95 10.02,-9.18 12.49,-15.65 -16.28,5.38 -19.44,24.23 -27.66,37.02 1.89,-15.08 8.88,-29.44 19.62,-40.18 4.37,-4.93 12.27,-3.36 16.36,-8.7 -3.02,-0.7 -6.48,-1.77 -9.41,-0.05 -12.4,6.23 -19.57,18.61 -27.02,29.71 0.5,-8.72 6.49,-15.67 11.92,-21.98 4.36,-5.2 11.24,-8.11 14.04,-14.54 -5.09,1.59 -10.18,3.79 -13.84,7.86zm255.64 1.45c6.4,8.84 15.65,15.2 22.19,24.01 4.77,5.38 15.6,13.81 20.37,4.09 -12.9,-9.47 -24.39,-20.67 -36.34,-31.23 -3.2,-3.5 -9.24,-2.36 -6.22,3.13zm-10.54 0.8c-3.52,1.13 -4.63,5.02 -1.77,7.63 8.83,11.4 19.71,21.21 30.96,30.21 3.18,3.27 11.85,2.56 10.58,-3.41 -12.79,-10.86 -22.53,-24.85 -35.73,-35.18 -1.02,0.18 -3.04,0.54 -4.04,0.75zm-18.9 5.13c1.25,4.13 3.16,8.09 6.34,11.13 10.36,10.68 19.49,23.49 33.53,29.62 3.29,2.07 7.92,-1.57 5.38,-5.18 -11.79,-13.42 -27.94,-22.74 -37.89,-37.89 -1.84,0.6 -5.52,1.75 -7.36,2.32zm-14.37 10.95c7.42,16.01 22.32,27.01 37.72,34.7 3.27,1.71 6.82,-1.06 10.13,-1.43 -4.68,-6.58 -12.99,-9.04 -17.74,-15.55 -6.49,-9.2 -19.21,-14.68 -18.8,-27.53 -4.77,2.02 -15.11,2.31 -11.31,9.81zm-23.01 -3.04c-1.71,2.11 -3.34,4.29 -4.89,6.54 10.93,9.95 16.18,24.28 26.56,34.68 -3.32,-15.6 -12.47,-28.6 -21.67,-41.22zm6.02 1.61c5.65,8.18 11.69,16.15 16.19,25.05 3.41,6.13 6.02,13.92 13.7,15.83 -0.46,-6.13 -1.05,-12.58 -5.23,-17.44 -6.22,-8.06 -11.29,-16.95 -14.62,-26.55 -3.39,0.95 -6.73,1.97 -10.04,3.11zm-41.25 2.5c-0.34,17.8 12.4,31.41 21.01,45.74 3.36,5.72 11.02,2.18 16.19,1.98 -7.42,-12.02 -17.78,-21.92 -25.12,-34.03 -2.74,-4.52 -2.84,-10.06 -5.31,-14.65 -2.27,0.23 -4.52,0.55 -6.77,0.96zm12.63 3.43c3.11,8.99 9.95,15.94 15.56,23.41 5.15,6.18 9.4,13.31 15.83,18.31 3.72,1.57 7.77,-0.48 11.54,-1 -7.57,-17.06 -21.67,-29.69 -30.78,-45.7 -4.11,-1.09 -14.76,-1.88 -12.15,4.98zm-40.34 1.77c7.24,15.47 20.87,27.96 37.36,32.77 -5.83,-11.38 -13.19,-22.46 -14.85,-35.43 -7.54,0.59 -15.06,1.43 -22.51,2.66zm-48.22 1.25c10.15,12.33 22.53,24.8 38.48,28.87 -5.93,-9.45 -16.88,-15.84 -18.01,-27.85 -6.82,-0.75 -13.63,-1.09 -20.47,-1.02zm25.46 1.02c5.5,17.33 21.15,28.07 35.34,37.98 8.84,6.22 20.15,5.74 30.44,5.04 -12.13,-9.84 -26.98,-15.97 -37.93,-27.3 -4.45,-4.75 -6.63,-11.15 -11.22,-15.77 -5.48,-1.2 -11.11,-0.2 -16.63,0.05zm123.88 17.92c0.54,4.84 1.16,9.7 1.79,14.56 5.11,-0.41 10.15,-1.36 15.04,-2.98 -4.34,-5.52 -10.56,-8.81 -16.83,-11.58z"/>
  </g>
 </g>
</svg>
