<?xml version="1.0" encoding="UTF-8"?>
<!DOCTYPE svg PUBLIC "-//W3C//DTD SVG 1.1//EN" "http://www.w3.org/Graphics/SVG/1.1/DTD/svg11.dtd">
<!-- Creator: CorelDRAW -->
<svg xmlns="http://www.w3.org/2000/svg" xml:space="preserve" width="2000px" height="1600px" version="1.1" style="shape-rendering:geometricPrecision; text-rendering:geometricPrecision; image-rendering:optimizeQuality; fill-rule:evenodd; clip-rule:evenodd"
viewBox="0 0 2000 1600"
 xmlns:xlink="http://www.w3.org/1999/xlink">
 <defs>
  <style type="text/css">
   <![CDATA[
    .fil0 {fill:#D67934}
    .fil1 {fill:#002B55;fill-rule:nonzero}
   ]]>
  </style>
 </defs>
 <g id="Capa_x0020_1">
  <metadata id="CorelCorpID_0Corel-Layer"/>
  <g id="Sout_x0020_Plains_x0020_College.cdr">
   <path class="fil0" d="M1302.32 266.68c52.04,-20.12 107.23,-30.29 163.07,-30.29 186.05,0 352.88,113.84 420.99,286.42l10.09 25.57 -164.42 0 -5.33 -9.68c-52.63,-95.57 -152.31,-155.62 -261.9,-155.62 -7.57,0 -15.15,0.29 -22.7,0.86 27.28,46.29 42.43,103.25 42.43,170.21 0,172.61 -126.7,254.56 -282.81,275.41 51.84,96.13 152.07,157.78 263.08,157.78 111.27,0 212.23,-61.91 264.15,-159.77l5.27 -9.94 165.76 0 -9.07 25.07c-64.7,178.89 -234.81,298.52 -425.54,298.52 -214.42,0 -393.99,-149.18 -440.62,-349.4l0 346.42 -186.83 0 0 -105.56c-81.74,65.55 -185.12,108.54 -290.22,108.54 -206.51,0 -357.34,-101.6 -436.75,-289.73l-10.97 -25.98 156.14 0 5.36 9.53c61.91,109.96 141.62,158.24 270.44,158.24 76.18,0 152.21,-39.11 206.39,-90.88 55.35,-52.89 93.42,-123.19 98.98,-199.76l-596.49 0 0 -18.71c0,-304.69 336.07,-444.85 597.12,-444.59l0 0 311.07 0c56.4,0 108.17,9.27 153.31,27.34zm-464.38 291.37l0 -156.7 -0.02 0c-133.72,-0.17 -311.82,29.91 -383.55,156.7l383.57 0zm186.83 -156.7l0 184.54c15.7,-67.48 46.77,-130.57 91.24,-184.54l-91.24 0zm141.33 263.03c60.46,-4.5 126.72,-38.16 147.13,-98.68 3.91,-11.61 5.83,-23.85 5.61,-36.11 -0.67,-36.42 -14.16,-64.43 -35.31,-84.85 -69,52.99 -111.61,132.91 -117.43,219.64z"/>
   <path class="fil1" d="M253.96 1330.54c0,5.24 -0.97,9.91 -2.9,14.02 -1.95,4.09 -4.64,7.58 -8.07,10.45 -3.43,2.84 -7.49,5 -12.13,6.45 -4.67,1.44 -9.67,2.15 -15.06,2.15 -3.75,0 -7.25,-0.32 -10.44,-0.94 -3.22,-0.65 -6.09,-1.45 -8.61,-2.37 -2.51,-0.92 -4.61,-1.89 -6.33,-2.87 -1.68,-1 -2.9,-1.83 -3.55,-2.54 -0.68,-0.68 -1.15,-1.57 -1.48,-2.63 -0.32,-1.07 -0.47,-2.49 -0.47,-4.27 0,-1.27 0.06,-2.33 0.18,-3.16 0.11,-0.83 0.29,-1.51 0.5,-2.01 0.24,-0.53 0.53,-0.89 0.89,-1.09 0.35,-0.21 0.74,-0.3 1.21,-0.3 0.8,0 1.95,0.5 3.43,1.48 1.45,0.97 3.34,2.04 5.68,3.19 2.31,1.13 5.09,2.22 8.37,3.23 3.26,1 7.04,1.51 11.3,1.51 3.26,0 6.21,-0.45 8.91,-1.31 2.69,-0.85 5,-2.07 6.92,-3.66 1.95,-1.57 3.43,-3.52 4.47,-5.83 1.03,-2.31 1.56,-4.94 1.56,-7.87 0,-3.17 -0.71,-5.89 -2.16,-8.14 -1.45,-2.24 -3.34,-4.23 -5.71,-5.94 -2.39,-1.69 -5.08,-3.26 -8.1,-4.67 -3.05,-1.42 -6.15,-2.84 -9.32,-4.32 -3.16,-1.48 -6.27,-3.11 -9.26,-4.91 -3.02,-1.78 -5.71,-3.88 -8.07,-6.31 -2.37,-2.42 -4.29,-5.26 -5.74,-8.54 -1.48,-3.26 -2.22,-7.16 -2.22,-11.72 0,-4.7 0.86,-8.87 2.54,-12.54 1.72,-3.64 4.08,-6.72 7.1,-9.2 3.05,-2.48 6.66,-4.38 10.83,-5.68 4.2,-1.3 8.7,-1.95 13.55,-1.95 2.48,0 4.97,0.2 7.48,0.65 2.52,0.44 4.88,1 7.1,1.74 2.22,0.71 4.2,1.54 5.95,2.43 1.71,0.89 2.87,1.63 3.4,2.16 0.56,0.56 0.91,0.97 1.09,1.3 0.18,0.33 0.3,0.74 0.42,1.21 0.12,0.51 0.2,1.1 0.26,1.81 0.06,0.68 0.09,1.56 0.09,2.69 0,1.04 -0.03,1.95 -0.12,2.78 -0.08,0.8 -0.23,1.48 -0.41,2.04 -0.15,0.53 -0.42,0.95 -0.71,1.21 -0.33,0.27 -0.68,0.39 -1.1,0.39 -0.64,0 -1.62,-0.42 -2.98,-1.21 -1.36,-0.83 -3.02,-1.72 -5,-2.76 -1.95,-1 -4.29,-1.92 -6.98,-2.75 -2.66,-0.85 -5.68,-1.27 -9.05,-1.27 -3.11,0 -5.83,0.42 -8.14,1.24 -2.31,0.86 -4.23,1.96 -5.74,3.35 -1.48,1.39 -2.6,3.01 -3.37,4.91 -0.74,1.92 -1.12,3.93 -1.12,6.06 0,3.11 0.7,5.8 2.15,8.05 1.46,2.25 3.38,4.23 5.77,5.97 2.43,1.75 5.15,3.32 8.23,4.77 3.04,1.45 6.18,2.89 9.37,4.37 3.17,1.48 6.3,3.08 9.35,4.86 3.08,1.74 5.8,3.84 8.23,6.24 2.39,2.39 4.31,5.2 5.79,8.49 1.48,3.25 2.22,7.1 2.22,11.56zm1375.01 25.29c0,1.07 -0.06,1.99 -0.17,2.75 -0.12,0.77 -0.33,1.43 -0.6,1.96 -0.29,0.53 -0.62,0.89 -1,1.12 -0.39,0.24 -0.8,0.36 -1.27,0.36l-53.87 0c-1.33,0 -2.6,-0.45 -3.79,-1.33 -1.18,-0.92 -1.77,-2.49 -1.77,-4.74l0 -100.04c0,-2.25 0.59,-3.82 1.77,-4.73 1.19,-0.89 2.46,-1.33 3.79,-1.33l53.25 0c0.47,0 0.88,0.11 1.27,0.35 0.38,0.24 0.68,0.59 0.91,1.12 0.21,0.54 0.42,1.19 0.57,1.96 0.14,0.77 0.2,1.74 0.2,2.9 0,1.06 -0.06,1.95 -0.2,2.75 -0.15,0.77 -0.36,1.42 -0.57,1.92 -0.23,0.47 -0.56,0.83 -0.91,1.06 -0.39,0.24 -0.8,0.36 -1.27,0.36l-43.9 0 0 35.14 37.68 0c0.48,0 0.89,0.12 1.28,0.39 0.35,0.26 0.68,0.62 0.94,1.09 0.27,0.47 0.45,1.09 0.56,1.89 0.12,0.83 0.18,1.78 0.18,2.87 0,1.07 -0.06,1.96 -0.18,2.69 -0.11,0.77 -0.29,1.37 -0.56,1.84 -0.26,0.47 -0.59,0.8 -0.94,1.01 -0.39,0.2 -0.8,0.29 -1.28,0.29l-37.68 0 0 40.11 44.52 0c0.47,0 0.88,0.12 1.27,0.36 0.38,0.23 0.71,0.59 1,1.06 0.27,0.51 0.48,1.15 0.6,1.92 0.11,0.78 0.17,1.75 0.17,2.9zm-626.07 -671.9l0 -107.18 -578.37 0c64.42,-156.77 262.47,-194.3 413.41,-194.1l0 -124.6c-250.63,-0.26 -578.42,132.83 -578.42,425.88l597.2 0c-0.43,181.25 -172.56,328.05 -324.78,328.05 -152.22,0 -230.37,-67.64 -286.74,-167.76l-117 0c69.03,163.52 202.28,278.29 419.52,278.29 217.25,0 446.44,-194.88 455.18,-438.58zm461.92 -319.55c119.73,0 224,66.72 278.28,165.3l125.88 0c-63.46,-160.8 -220.24,-274.59 -403.59,-274.59 -48.43,0 -95.01,7.95 -138.51,22.6 42.15,21.1 77.41,50.75 103.83,88.51 11.2,-1.2 22.59,-1.82 34.11,-1.82zm-317.52 301.23c5.65,-94.58 51.92,-178.11 121.46,-233.07 -30.07,-21.31 -70.21,-31.19 -110.57,-31.19l-17.57 0c-67.78,76.53 -108.94,177.19 -108.94,287.45 0,239.53 194.18,433.71 433.71,433.71 187.73,0 347.58,-119.27 407.95,-286.17l-127.85 0c-53.58,100.99 -159.16,169.71 -280.67,169.71 -123.23,0 -230.08,-70.68 -282.91,-174.03l-0.33 0.04 -5.69 -12.45c-0.8,-1.75 -1.59,-3.5 -2.36,-5.26l-0.17 -0.41 -0.02 -0.03 0 -0.01 -0.17 -0.44 -0.89 -2.38 -0.09 -0.24 -0.02 -0.04c-9.17,-24.59 -17.09,-49.9 -21.54,-75.79 -1.01,-5.88 -1.8,-11.74 -2.39,-17.61l-0.06 -0.53 -0.02 -0.27c-0.83,-8.12 -1.19,-15.52 -1.35,-22.48l-0.01 -0.68 -0.01 -0.13 -0.01 -0.8 -0.01 -0.51c-0.05,-2.79 -0.07,-5.59 -0.06,-8.4l0 0 0.07 -17.96 0.52 -0.03zm-141.24 -282.96l0 175.4 -149.41 0 0 -156.67 0 -143.34 149.41 0 142.95 0.01c174.98,0 316.83,94.1 316.83,296.1 0,165.67 -124.2,239.54 -272.94,257.69 -0.75,-1.66 -1.5,-3.32 -2.23,-4.98 -9.13,-24.19 -17.22,-49.5 -21.6,-75.02 -2.8,-16.27 -3.72,-31.7 -3.66,-48.17l0.01 -0.48c96.45,-6.23 173.62,-72.78 172.12,-153.94 -1.85,-100.72 -89.63,-146.6 -179.35,-146.6l-152.13 0zm0 401.31l0 335.57 -149.41 0 0 -102.57c3.22,-2.84 6.41,-5.71 9.56,-8.62 66.11,-61.2 115.91,-138.62 139.85,-224.38zm723.93 481.21c0,1.09 -0.06,2.07 -0.18,2.9 -0.12,0.82 -0.3,1.54 -0.51,2.1 -0.23,0.53 -0.53,0.91 -0.88,1.15 -0.33,0.24 -0.71,0.36 -1.13,0.36 -0.68,0 -1.83,-0.57 -3.46,-1.66 -1.63,-1.1 -3.78,-2.34 -6.51,-3.67 -2.72,-1.33 -5.97,-2.57 -9.76,-3.67 -3.78,-1.09 -8.28,-1.65 -13.46,-1.65 -6.21,0 -11.74,1.12 -16.65,3.37 -4.91,2.28 -9.08,5.38 -12.49,9.38 -3.43,3.99 -6.03,8.72 -7.86,14.22 -1.81,5.51 -2.73,11.45 -2.73,17.87 0,7.19 1.01,13.55 2.99,19.11 2.01,5.53 4.77,10.24 8.32,14.05 3.52,3.82 7.72,6.72 12.63,8.67 4.88,1.98 10.26,2.96 16.09,2.96 3.49,0 7.01,-0.42 10.56,-1.28 3.55,-0.82 6.86,-2.09 9.94,-3.75l0 -32.78 -25.97 0c-1.01,0 -1.75,-0.5 -2.22,-1.48 -0.5,-0.97 -0.74,-2.51 -0.74,-4.61 0,-1.1 0.06,-2.04 0.18,-2.81 0.11,-0.77 0.29,-1.42 0.56,-1.92 0.26,-0.48 0.56,-0.83 0.92,-1.07 0.32,-0.24 0.76,-0.35 1.3,-0.35l35.58 0c0.65,0 1.27,0.11 1.93,0.35 0.62,0.24 1.21,0.56 1.71,1.04 0.53,0.47 0.95,1.09 1.21,1.89 0.3,0.83 0.45,1.75 0.45,2.78l0 42.81c0,1.5 -0.27,2.81 -0.77,3.9 -0.53,1.1 -1.63,2.07 -3.31,2.9 -1.66,0.83 -3.85,1.74 -6.51,2.72 -2.66,1.01 -5.39,1.83 -8.23,2.54 -2.84,0.68 -5.7,1.22 -8.57,1.54 -2.9,0.36 -5.77,0.53 -8.58,0.53 -8.7,0 -16.45,-1.33 -23.25,-4.02 -6.84,-2.69 -12.61,-6.54 -17.31,-11.5 -4.7,-4.97 -8.31,-10.92 -10.8,-17.87 -2.48,-6.96 -3.72,-14.68 -3.72,-23.25 0,-8.91 1.33,-16.98 4.02,-24.2 2.69,-7.22 6.48,-13.37 11.36,-18.49 4.88,-5.09 10.74,-9.02 17.57,-11.83 6.86,-2.81 14.44,-4.2 22.75,-4.2 4.29,0 8.28,0.38 12.04,1.12 3.75,0.77 7.1,1.66 10.03,2.66 2.89,1.04 5.35,2.13 7.36,3.35 1.98,1.18 3.34,2.16 4.11,2.92 0.74,0.75 1.27,1.63 1.54,2.61 0.3,0.97 0.45,2.39 0.45,4.26zm85.09 90.66c0,1.07 -0.06,1.99 -0.18,2.75 -0.11,0.77 -0.32,1.43 -0.59,1.96 -0.29,0.53 -0.62,0.89 -1,1.12 -0.39,0.24 -0.8,0.36 -1.27,0.36l-53.87 0c-1.33,0 -2.61,-0.45 -3.79,-1.33 -1.18,-0.92 -1.77,-2.49 -1.77,-4.74l0 -100.04c0,-2.25 0.59,-3.82 1.77,-4.73 1.18,-0.89 2.46,-1.33 3.79,-1.33l53.24 0c0.48,0 0.89,0.11 1.28,0.35 0.38,0.24 0.68,0.59 0.91,1.12 0.21,0.54 0.42,1.19 0.56,1.96 0.15,0.77 0.21,1.74 0.21,2.9 0,1.06 -0.06,1.95 -0.21,2.75 -0.14,0.77 -0.35,1.42 -0.56,1.92 -0.23,0.47 -0.56,0.83 -0.91,1.06 -0.39,0.24 -0.8,0.36 -1.28,0.36l-43.89 0 0 35.14 37.68 0c0.48,0 0.89,0.12 1.27,0.39 0.36,0.26 0.68,0.62 0.95,1.09 0.27,0.47 0.44,1.09 0.56,1.89 0.12,0.83 0.18,1.78 0.18,2.87 0,1.07 -0.06,1.96 -0.18,2.69 -0.12,0.77 -0.29,1.37 -0.56,1.84 -0.27,0.47 -0.59,0.8 -0.95,1.01 -0.38,0.2 -0.79,0.29 -1.27,0.29l-37.68 0 0 40.11 44.52 0c0.47,0 0.88,0.12 1.27,0.36 0.38,0.23 0.71,0.59 1,1.06 0.27,0.51 0.48,1.15 0.59,1.92 0.12,0.78 0.18,1.75 0.18,2.9zm-1451.23 -51.2c0,9.08 -1.07,17.24 -3.2,24.52 -2.16,7.28 -5.35,13.46 -9.58,18.58 -4.26,5.09 -9.59,9.02 -16.01,11.77 -6.41,2.75 -13.9,4.11 -22.45,4.11 -8.43,0 -15.7,-1.24 -21.86,-3.75 -6.18,-2.52 -11.24,-6.18 -15.26,-10.98 -4.03,-4.79 -7.01,-10.73 -8.97,-17.84 -1.98,-7.09 -2.95,-15.26 -2.95,-24.49 0,-8.84 1.06,-16.89 3.19,-24.11 2.16,-7.21 5.36,-13.34 9.65,-18.4 4.25,-5.02 9.61,-8.93 16.03,-11.68 6.39,-2.75 13.87,-4.11 22.45,-4.11 8.25,0 15.44,1.24 21.56,3.72 6.13,2.49 11.25,6.1 15.3,10.86 4.08,4.76 7.13,10.65 9.11,17.69 1.98,7.01 2.99,15.06 2.99,24.11zm-15.8 1.03c0,-6.33 -0.56,-12.24 -1.68,-17.68 -1.13,-5.45 -2.99,-10.18 -5.63,-14.2 -2.63,-4 -6.12,-7.13 -10.5,-9.38 -4.4,-2.25 -9.82,-3.37 -16.27,-3.37 -6.47,0 -11.89,1.21 -16.27,3.64 -4.37,2.42 -7.95,5.65 -10.68,9.67 -2.75,4.05 -4.7,8.75 -5.88,14.17 -1.19,5.38 -1.78,11.03 -1.78,16.98 0,6.59 0.57,12.63 1.66,18.16 1.09,5.56 2.93,10.32 5.53,14.35 2.57,3.99 6.06,7.1 10.41,9.32 4.35,2.21 9.82,3.34 16.39,3.34 6.54,0 12.01,-1.21 16.45,-3.64 4.44,-2.43 8.02,-5.68 10.74,-9.82 2.69,-4.11 4.64,-8.91 5.8,-14.32 1.15,-5.41 1.71,-11.15 1.71,-17.22zm118.53 14.88c0,6.81 -1.01,12.9 -2.99,18.25 -1.98,5.33 -4.85,9.86 -8.55,13.55 -3.7,3.7 -8.19,6.51 -13.52,8.4 -5.29,1.93 -11.33,2.87 -18.1,2.87 -6.19,0 -11.81,-0.88 -16.89,-2.69 -5.09,-1.77 -9.44,-4.43 -13.08,-7.93 -3.64,-3.49 -6.45,-7.86 -8.4,-13.13 -1.98,-5.24 -2.96,-11.3 -2.96,-18.19l0 -69.58c0,-0.47 0.12,-0.88 0.35,-1.21 0.24,-0.35 0.63,-0.62 1.22,-0.83 0.59,-0.2 1.33,-0.38 2.28,-0.53 0.91,-0.15 2.13,-0.21 3.66,-0.21 1.39,0 2.58,0.06 3.55,0.21 1.01,0.15 1.78,0.33 2.31,0.53 0.56,0.21 0.95,0.48 1.18,0.83 0.24,0.33 0.36,0.74 0.36,1.21l0 67.74c0,5.18 0.62,9.74 1.89,13.58 1.27,3.88 3.11,7.1 5.5,9.68 2.37,2.57 5.27,4.49 8.64,5.79 3.34,1.3 7.13,1.96 11.36,1.96 4.29,0 8.14,-0.63 11.51,-1.9 3.37,-1.27 6.21,-3.19 8.55,-5.74 2.34,-2.54 4.11,-5.68 5.35,-9.43 1.25,-3.76 1.87,-8.14 1.87,-13.17l0 -68.51c0,-0.47 0.12,-0.88 0.35,-1.21 0.24,-0.35 0.62,-0.62 1.22,-0.83 0.59,-0.2 1.36,-0.38 2.3,-0.53 0.98,-0.15 2.16,-0.21 3.64,-0.21 1.39,0 2.54,0.06 3.52,0.21 0.95,0.15 1.72,0.33 2.25,0.53 0.56,0.21 0.97,0.48 1.24,0.83 0.27,0.33 0.39,0.74 0.39,1.21l0 68.45zm94.65 -64.31c0,1.1 -0.06,2.05 -0.18,2.84 -0.12,0.8 -0.3,1.45 -0.56,1.96 -0.27,0.47 -0.56,0.85 -0.95,1.06 -0.38,0.24 -0.8,0.36 -1.24,0.36l-31.51 0 0 97.32c0,0.47 -0.11,0.86 -0.35,1.21 -0.24,0.36 -0.62,0.62 -1.21,0.83 -0.57,0.21 -1.33,0.38 -2.28,0.53 -0.98,0.15 -2.16,0.21 -3.61,0.21 -1.39,0 -2.57,-0.06 -3.55,-0.21 -0.98,-0.15 -1.77,-0.32 -2.34,-0.53 -0.59,-0.21 -0.97,-0.47 -1.21,-0.83 -0.24,-0.35 -0.35,-0.74 -0.35,-1.21l0 -97.32 -31.51 0c-0.44,0 -0.86,-0.12 -1.24,-0.36 -0.38,-0.21 -0.68,-0.59 -0.92,-1.06 -0.21,-0.51 -0.41,-1.16 -0.56,-1.96 -0.15,-0.79 -0.21,-1.74 -0.21,-2.84 0,-1.09 0.06,-2.07 0.21,-2.9 0.15,-0.82 0.35,-1.5 0.56,-2.01 0.24,-0.53 0.54,-0.91 0.92,-1.12 0.38,-0.24 0.8,-0.35 1.24,-0.35l77.92 0c0.44,0 0.86,0.11 1.24,0.35 0.39,0.21 0.68,0.59 0.95,1.12 0.26,0.51 0.44,1.19 0.56,2.01 0.12,0.83 0.18,1.81 0.18,2.9zm91.75 103.54c0,0.47 -0.12,0.89 -0.36,1.21 -0.23,0.36 -0.62,0.62 -1.21,0.83 -0.59,0.21 -1.36,0.38 -2.31,0.53 -0.97,0.15 -2.13,0.21 -3.52,0.21 -1.53,0 -2.75,-0.06 -3.66,-0.21 -0.95,-0.15 -1.69,-0.32 -2.28,-0.53 -0.59,-0.21 -0.98,-0.47 -1.21,-0.83 -0.24,-0.32 -0.36,-0.74 -0.36,-1.21l0 -49.76 -50.94 0 0 49.76c0,0.47 -0.12,0.89 -0.35,1.21 -0.24,0.36 -0.62,0.62 -1.21,0.83 -0.57,0.21 -1.34,0.38 -2.28,0.53 -0.98,0.15 -2.16,0.21 -3.61,0.21 -1.39,0 -2.58,-0.06 -3.55,-0.21 -0.98,-0.15 -1.78,-0.32 -2.34,-0.53 -0.59,-0.21 -0.97,-0.47 -1.21,-0.83 -0.24,-0.32 -0.36,-0.74 -0.36,-1.21l0 -107.68c0,-0.47 0.12,-0.88 0.36,-1.21 0.24,-0.35 0.62,-0.62 1.21,-0.83 0.56,-0.2 1.36,-0.38 2.34,-0.53 0.97,-0.15 2.16,-0.21 3.55,-0.21 1.45,0 2.63,0.06 3.61,0.21 0.94,0.15 1.71,0.33 2.28,0.53 0.59,0.21 0.97,0.48 1.21,0.83 0.23,0.36 0.35,0.74 0.35,1.21l0 44.97 50.94 0 0 -44.97c0,-0.47 0.12,-0.85 0.36,-1.21 0.23,-0.35 0.62,-0.62 1.21,-0.83 0.59,-0.2 1.33,-0.38 2.28,-0.53 0.91,-0.15 2.13,-0.21 3.66,-0.21 1.39,0 2.55,0.06 3.52,0.21 0.95,0.15 1.72,0.33 2.31,0.53 0.59,0.21 0.98,0.48 1.21,0.83 0.24,0.33 0.36,0.74 0.36,1.21l0 107.68zm129.17 -77.06c0,5.62 -0.92,10.68 -2.78,15.2 -1.84,4.5 -4.47,8.35 -7.93,11.54 -3.43,3.17 -7.63,5.62 -12.63,7.37 -5,1.74 -10.95,2.6 -17.9,2.6l-12.72 0 0 40.35c0,0.47 -0.12,0.89 -0.38,1.21 -0.27,0.36 -0.68,0.62 -1.21,0.83 -0.57,0.21 -1.31,0.38 -2.25,0.53 -0.98,0.15 -2.16,0.21 -3.61,0.21 -1.45,0 -2.64,-0.06 -3.61,-0.21 -0.95,-0.15 -1.72,-0.32 -2.28,-0.53 -0.59,-0.21 -0.97,-0.47 -1.21,-0.83 -0.24,-0.32 -0.36,-0.74 -0.36,-1.21l0 -103.51c0,-2.3 0.62,-3.96 1.84,-4.94 1.21,-0.97 2.54,-1.47 4.05,-1.47l23.99 0c2.43,0 4.76,0.08 6.98,0.29 2.22,0.21 4.85,0.65 7.87,1.3 3.05,0.68 6.12,1.92 9.29,3.73 3.14,1.83 5.8,4.08 8.02,6.74 2.18,2.67 3.87,5.74 5.05,9.23 1.19,3.49 1.78,7.37 1.78,11.57zm-15.62 1.18c0,-4.58 -0.86,-8.4 -2.55,-11.47 -1.71,-3.05 -3.81,-5.36 -6.35,-6.87 -2.52,-1.48 -5.12,-2.45 -7.78,-2.84 -2.69,-0.41 -5.33,-0.62 -7.87,-0.62l-13.79 0 0 45.08 13.46 0c4.5,0 8.26,-0.59 11.21,-1.74 2.99,-1.16 5.48,-2.75 7.52,-4.82 2.01,-2.04 3.55,-4.5 4.58,-7.37 1.04,-2.87 1.57,-5.97 1.57,-9.35zm91.46 71.59c0,1.18 -0.06,2.16 -0.18,2.93 -0.12,0.77 -0.29,1.45 -0.56,2.01 -0.27,0.53 -0.56,0.95 -0.95,1.21 -0.38,0.27 -0.83,0.39 -1.36,0.39l-49.61 0c-1.33,0 -2.6,-0.45 -3.79,-1.33 -1.18,-0.92 -1.77,-2.49 -1.77,-4.74l0 -103.86c0,-0.47 0.12,-0.88 0.35,-1.21 0.24,-0.35 0.63,-0.62 1.22,-0.83 0.56,-0.2 1.36,-0.38 2.33,-0.53 0.98,-0.15 2.16,-0.21 3.56,-0.21 1.45,0 2.63,0.06 3.61,0.21 0.94,0.15 1.71,0.33 2.27,0.53 0.59,0.21 0.98,0.48 1.21,0.83 0.24,0.33 0.36,0.74 0.36,1.21l0 96.97 40.26 0c0.53,0 0.98,0.12 1.36,0.39 0.36,0.26 0.68,0.65 0.95,1.12 0.27,0.5 0.44,1.15 0.56,1.98 0.12,0.8 0.18,1.78 0.18,2.93zm95.15 1.27c0.45,1.27 0.71,2.28 0.74,3.08 0.03,0.77 -0.21,1.36 -0.65,1.77 -0.47,0.39 -1.24,0.65 -2.31,0.77 -1.06,0.12 -2.48,0.18 -4.29,0.18 -1.77,0 -3.22,-0.03 -4.28,-0.12 -1.07,-0.09 -1.87,-0.24 -2.43,-0.44 -0.56,-0.21 -0.95,-0.48 -1.21,-0.83 -0.27,-0.36 -0.51,-0.77 -0.74,-1.3l-9.62 -27.31 -46.62 0 -9.2 26.95c-0.17,0.54 -0.38,0.98 -0.68,1.36 -0.29,0.39 -0.71,0.68 -1.27,0.95 -0.53,0.27 -1.33,0.44 -2.34,0.56 -1,0.12 -2.3,0.18 -3.93,0.18 -1.69,0 -3.05,-0.06 -4.11,-0.21 -1.07,-0.15 -1.84,-0.41 -2.25,-0.83 -0.44,-0.41 -0.65,-1 -0.62,-1.77 0.03,-0.8 0.26,-1.81 0.74,-3.08l37.6 -104.21c0.23,-0.65 0.56,-1.18 0.91,-1.57 0.39,-0.41 0.92,-0.74 1.66,-0.95 0.71,-0.23 1.63,-0.41 2.78,-0.5 1.12,-0.09 2.54,-0.12 4.29,-0.12 1.83,0 3.37,0.03 4.58,0.12 1.22,0.09 2.19,0.27 2.93,0.5 0.77,0.21 1.33,0.57 1.75,0.98 0.41,0.44 0.74,0.98 0.94,1.6l37.63 104.24zm-48.27 -92l-0.09 0 -19.32 55.91 38.99 0 -19.58 -55.91zm76.69 95.02c0,0.47 -0.12,0.89 -0.35,1.21 -0.24,0.36 -0.62,0.62 -1.22,0.83 -0.56,0.21 -1.33,0.38 -2.27,0.53 -0.98,0.15 -2.16,0.21 -3.61,0.21 -1.39,0 -2.58,-0.06 -3.55,-0.21 -0.98,-0.15 -1.78,-0.32 -2.34,-0.53 -0.59,-0.21 -0.98,-0.47 -1.21,-0.83 -0.24,-0.32 -0.36,-0.74 -0.36,-1.21l0 -107.68c0,-0.47 0.12,-0.88 0.39,-1.21 0.26,-0.35 0.71,-0.62 1.3,-0.83 0.62,-0.2 1.39,-0.38 2.34,-0.53 0.94,-0.15 2.1,-0.21 3.43,-0.21 1.45,0 2.63,0.06 3.61,0.21 0.94,0.15 1.71,0.33 2.27,0.53 0.6,0.21 0.98,0.48 1.22,0.83 0.23,0.33 0.35,0.74 0.35,1.21l0 107.68zm109.44 -4c0,1.16 -0.2,2.16 -0.59,2.96 -0.38,0.8 -0.88,1.48 -1.51,1.98 -0.62,0.54 -1.33,0.89 -2.1,1.13 -0.8,0.24 -1.57,0.35 -2.33,0.35l-4.94 0c-1.54,0 -2.9,-0.14 -4.09,-0.47 -1.15,-0.32 -2.24,-0.89 -3.31,-1.71 -1.03,-0.83 -2.1,-1.96 -3.13,-3.38 -1.04,-1.42 -2.16,-3.28 -3.35,-5.53l-34.25 -63.8c-1.81,-3.29 -3.61,-6.75 -5.42,-10.36 -1.83,-3.61 -3.52,-7.13 -5.08,-10.53l-0.18 0c0.12,4.14 0.21,8.4 0.27,12.75 0.05,4.32 0.08,8.64 0.08,12.9l0 67.71c0,0.41 -0.11,0.8 -0.35,1.18 -0.27,0.36 -0.68,0.65 -1.24,0.86 -0.6,0.21 -1.33,0.38 -2.28,0.53 -0.95,0.15 -2.16,0.21 -3.61,0.21 -1.48,0 -2.69,-0.06 -3.64,-0.21 -0.95,-0.15 -1.68,-0.32 -2.22,-0.53 -0.56,-0.21 -0.94,-0.5 -1.21,-0.86 -0.24,-0.38 -0.35,-0.77 -0.35,-1.18l0 -103.51c0,-2.3 0.65,-3.96 1.98,-4.94 1.3,-0.97 2.72,-1.47 4.29,-1.47l7.33 0c1.72,0 3.17,0.14 4.32,0.44 1.18,0.26 2.22,0.77 3.14,1.42 0.91,0.65 1.83,1.6 2.69,2.78 0.86,1.18 1.77,2.66 2.72,4.47l26.33 49.22c1.63,3.02 3.19,5.94 4.7,8.82 1.51,2.86 2.99,5.67 4.38,8.45 1.39,2.75 2.78,5.51 4.14,8.2 1.39,2.66 2.72,5.38 4.08,8.1l0.09 0c-0.12,-4.58 -0.2,-9.32 -0.23,-14.25 -0.04,-4.94 -0.04,-9.71 -0.04,-14.26l0 -60.79c0,-0.42 0.12,-0.8 0.36,-1.13 0.27,-0.35 0.68,-0.65 1.24,-0.91 0.59,-0.27 1.36,-0.45 2.28,-0.56 0.95,-0.12 2.19,-0.18 3.73,-0.18 1.33,0 2.48,0.06 3.46,0.18 0.98,0.11 1.74,0.29 2.28,0.56 0.56,0.26 0.94,0.56 1.21,0.91 0.24,0.33 0.35,0.71 0.35,1.13l0 103.32zm84.86 -25.23c0,5.24 -0.97,9.91 -2.9,14.02 -1.95,4.09 -4.64,7.58 -8.07,10.45 -3.43,2.84 -7.49,5 -12.13,6.45 -4.67,1.44 -9.67,2.15 -15.06,2.15 -3.75,0 -7.24,-0.32 -10.44,-0.94 -3.22,-0.65 -6.09,-1.45 -8.61,-2.37 -2.51,-0.92 -4.61,-1.89 -6.33,-2.87 -1.68,-1 -2.9,-1.83 -3.55,-2.54 -0.68,-0.68 -1.15,-1.57 -1.48,-2.63 -0.32,-1.07 -0.47,-2.49 -0.47,-4.27 0,-1.27 0.06,-2.33 0.18,-3.16 0.12,-0.83 0.29,-1.51 0.5,-2.01 0.24,-0.53 0.53,-0.89 0.89,-1.09 0.35,-0.21 0.74,-0.3 1.21,-0.3 0.8,0 1.95,0.5 3.43,1.48 1.45,0.97 3.34,2.04 5.68,3.19 2.31,1.13 5.09,2.22 8.37,3.23 3.26,1 7.04,1.51 11.3,1.51 3.26,0 6.22,-0.45 8.91,-1.31 2.69,-0.85 5,-2.07 6.92,-3.66 1.95,-1.57 3.43,-3.52 4.47,-5.83 1.03,-2.31 1.56,-4.94 1.56,-7.87 0,-3.17 -0.7,-5.89 -2.15,-8.14 -1.46,-2.24 -3.35,-4.23 -5.71,-5.94 -2.4,-1.69 -5.09,-3.26 -8.11,-4.67 -3.05,-1.42 -6.15,-2.84 -9.32,-4.32 -3.16,-1.48 -6.27,-3.11 -9.26,-4.91 -3.01,-1.78 -5.71,-3.88 -8.07,-6.31 -2.37,-2.42 -4.29,-5.26 -5.74,-8.54 -1.48,-3.26 -2.22,-7.16 -2.22,-11.72 0,-4.7 0.86,-8.87 2.54,-12.54 1.72,-3.64 4.09,-6.72 7.1,-9.2 3.05,-2.48 6.66,-4.38 10.83,-5.68 4.2,-1.3 8.7,-1.95 13.55,-1.95 2.48,0 4.97,0.2 7.48,0.65 2.52,0.44 4.88,1 7.1,1.74 2.22,0.71 4.2,1.54 5.95,2.43 1.71,0.89 2.87,1.63 3.4,2.16 0.56,0.56 0.92,0.97 1.1,1.3 0.17,0.33 0.29,0.74 0.41,1.21 0.12,0.51 0.21,1.1 0.26,1.81 0.06,0.68 0.09,1.56 0.09,2.69 0,1.04 -0.03,1.95 -0.12,2.78 -0.08,0.8 -0.23,1.48 -0.41,2.04 -0.15,0.53 -0.41,0.95 -0.71,1.21 -0.32,0.27 -0.68,0.39 -1.09,0.39 -0.65,0 -1.63,-0.42 -2.99,-1.21 -1.36,-0.83 -3.02,-1.72 -5,-2.76 -1.95,-1 -4.29,-1.92 -6.98,-2.75 -2.66,-0.85 -5.68,-1.27 -9.05,-1.27 -3.11,0 -5.83,0.42 -8.14,1.24 -2.31,0.86 -4.23,1.96 -5.74,3.35 -1.48,1.39 -2.6,3.01 -3.37,4.91 -0.74,1.92 -1.12,3.93 -1.12,6.06 0,3.11 0.71,5.8 2.15,8.05 1.46,2.25 3.38,4.23 5.77,5.97 2.43,1.75 5.15,3.32 8.23,4.77 3.05,1.45 6.18,2.89 9.38,4.37 3.16,1.48 6.3,3.08 9.34,4.86 3.08,1.74 5.8,3.84 8.23,6.24 2.39,2.39 4.31,5.2 5.79,8.49 1.48,3.25 2.22,7.1 2.22,11.56zm126.6 15.68c0,0.92 -0.03,1.72 -0.09,2.43 -0.06,0.68 -0.15,1.27 -0.3,1.8 -0.14,0.5 -0.32,0.98 -0.56,1.39 -0.23,0.39 -0.65,0.89 -1.21,1.45 -0.59,0.59 -1.8,1.48 -3.64,2.66 -1.86,1.18 -4.17,2.34 -6.92,3.46 -2.75,1.13 -5.89,2.07 -9.44,2.84 -3.58,0.8 -7.45,1.19 -11.68,1.19 -7.28,0 -13.87,-1.22 -19.73,-3.64 -5.86,-2.43 -10.89,-6.01 -15,-10.77 -4.14,-4.73 -7.34,-10.59 -9.55,-17.54 -2.22,-6.98 -3.35,-15 -3.35,-24.08 0,-9.32 1.22,-17.6 3.61,-24.91 2.4,-7.27 5.77,-13.46 10.12,-18.52 4.35,-5.05 9.52,-8.9 15.59,-11.56 6.03,-2.66 12.75,-3.99 20.08,-3.99 3.26,0 6.42,0.29 9.47,0.88 3.08,0.62 5.92,1.36 8.52,2.28 2.6,0.92 4.91,1.98 6.95,3.2 2.01,1.18 3.43,2.18 4.2,2.95 0.8,0.77 1.3,1.36 1.54,1.78 0.24,0.38 0.41,0.86 0.56,1.42 0.15,0.56 0.27,1.21 0.36,1.95 0.08,0.77 0.11,1.66 0.11,2.69 0,1.19 -0.06,2.16 -0.17,2.96 -0.12,0.83 -0.3,1.51 -0.53,2.07 -0.21,0.53 -0.51,0.95 -0.83,1.21 -0.3,0.27 -0.71,0.39 -1.16,0.39 -0.82,0 -1.95,-0.56 -3.43,-1.69 -1.45,-1.12 -3.31,-2.36 -5.62,-3.73 -2.31,-1.36 -5.09,-2.6 -8.37,-3.72 -3.31,-1.13 -7.25,-1.69 -11.83,-1.69 -5.03,0 -9.59,1.01 -13.67,2.99 -4.11,2.01 -7.63,4.94 -10.53,8.81 -2.9,3.88 -5.18,8.61 -6.77,14.2 -1.6,5.59 -2.4,11.98 -2.4,19.14 0,7.13 0.77,13.43 2.31,18.9 1.53,5.48 3.75,10.06 6.62,13.73 2.87,3.67 6.42,6.45 10.59,8.34 4.2,1.86 8.94,2.81 14.23,2.81 4.47,0 8.4,-0.56 11.74,-1.65 3.35,-1.1 6.19,-2.31 8.53,-3.67 2.36,-1.36 4.28,-2.58 5.79,-3.67 1.54,-1.1 2.72,-1.66 3.58,-1.66 0.42,0 0.77,0.09 1.07,0.27 0.29,0.18 0.5,0.5 0.68,0.98 0.17,0.5 0.32,1.18 0.41,2.04 0.09,0.85 0.12,1.95 0.12,3.28zm106.84 -41.59c0,9.08 -1.07,17.24 -3.2,24.52 -2.16,7.28 -5.35,13.46 -9.58,18.58 -4.26,5.09 -9.59,9.02 -16.01,11.77 -6.41,2.75 -13.9,4.11 -22.45,4.11 -8.43,0 -15.7,-1.24 -21.86,-3.75 -6.18,-2.52 -11.24,-6.18 -15.26,-10.98 -4.02,-4.79 -7.01,-10.73 -8.96,-17.84 -1.99,-7.09 -2.96,-15.26 -2.96,-24.49 0,-8.84 1.06,-16.89 3.19,-24.11 2.16,-7.21 5.36,-13.34 9.65,-18.4 4.26,-5.02 9.61,-8.93 16.03,-11.68 6.39,-2.75 13.87,-4.11 22.45,-4.11 8.25,0 15.44,1.24 21.57,3.72 6.12,2.49 11.24,6.1 15.29,10.86 4.08,4.76 7.13,10.65 9.11,17.69 1.98,7.01 2.99,15.06 2.99,24.11zm-15.8 1.03c0,-6.33 -0.56,-12.24 -1.68,-17.68 -1.13,-5.45 -2.99,-10.18 -5.63,-14.2 -2.63,-4 -6.12,-7.13 -10.5,-9.38 -4.4,-2.25 -9.82,-3.37 -16.27,-3.37 -6.47,0 -11.89,1.21 -16.27,3.64 -4.37,2.42 -7.95,5.65 -10.67,9.67 -2.76,4.05 -4.71,8.75 -5.89,14.17 -1.19,5.38 -1.78,11.03 -1.78,16.98 0,6.59 0.57,12.63 1.66,18.16 1.09,5.56 2.93,10.32 5.53,14.35 2.57,3.99 6.07,7.1 10.41,9.32 4.35,2.21 9.83,3.34 16.39,3.34 6.54,0 12.01,-1.21 16.45,-3.64 4.44,-2.43 8.02,-5.68 10.74,-9.82 2.69,-4.11 4.64,-8.91 5.8,-14.32 1.15,-5.41 1.71,-11.15 1.71,-17.22zm92.43 49.82c0,1.18 -0.05,2.16 -0.17,2.93 -0.12,0.77 -0.3,1.45 -0.57,2.01 -0.26,0.53 -0.56,0.95 -0.94,1.21 -0.39,0.27 -0.83,0.39 -1.36,0.39l-49.61 0c-1.33,0 -2.6,-0.45 -3.79,-1.33 -1.18,-0.92 -1.77,-2.49 -1.77,-4.74l0 -103.86c0,-0.47 0.12,-0.88 0.35,-1.21 0.24,-0.35 0.63,-0.62 1.22,-0.83 0.56,-0.2 1.36,-0.38 2.33,-0.53 0.98,-0.15 2.16,-0.21 3.55,-0.21 1.45,0 2.64,0.06 3.61,0.21 0.95,0.15 1.72,0.33 2.28,0.53 0.59,0.21 0.98,0.48 1.21,0.83 0.24,0.33 0.36,0.74 0.36,1.21l0 96.97 40.26 0c0.53,0 0.97,0.12 1.36,0.39 0.35,0.26 0.68,0.65 0.94,1.12 0.27,0.5 0.45,1.15 0.57,1.98 0.12,0.8 0.17,1.78 0.17,2.93zm69.39 0c0,1.18 -0.06,2.16 -0.18,2.93 -0.11,0.77 -0.29,1.45 -0.56,2.01 -0.26,0.53 -0.56,0.95 -0.94,1.21 -0.39,0.27 -0.83,0.39 -1.36,0.39l-49.61 0c-1.33,0 -2.61,-0.45 -3.79,-1.33 -1.18,-0.92 -1.77,-2.49 -1.77,-4.74l0 -103.86c0,-0.47 0.12,-0.88 0.35,-1.21 0.24,-0.35 0.62,-0.62 1.21,-0.83 0.57,-0.2 1.37,-0.38 2.34,-0.53 0.98,-0.15 2.16,-0.21 3.55,-0.21 1.45,0 2.64,0.06 3.61,0.21 0.95,0.15 1.72,0.33 2.28,0.53 0.59,0.21 0.97,0.48 1.21,0.83 0.24,0.33 0.36,0.74 0.36,1.21l0 96.97 40.26 0c0.53,0 0.97,0.12 1.36,0.39 0.35,0.26 0.68,0.65 0.94,1.12 0.27,0.5 0.45,1.15 0.56,1.98 0.12,0.8 0.18,1.78 0.18,2.93z"/>
  </g>
 </g>
</svg>
