<?xml version="1.0" encoding="UTF-8"?>
<!DOCTYPE svg PUBLIC "-//W3C//DTD SVG 1.1//EN" "http://www.w3.org/Graphics/SVG/1.1/DTD/svg11.dtd">
<!-- Creator: CorelDRAW -->
<svg xmlns="http://www.w3.org/2000/svg" xml:space="preserve" width="2000px" height="1600px" version="1.1" style="shape-rendering:geometricPrecision; text-rendering:geometricPrecision; image-rendering:optimizeQuality; fill-rule:evenodd; clip-rule:evenodd"
viewBox="0 0 2000 1600"
 xmlns:xlink="http://www.w3.org/1999/xlink">
 <defs>
  <style type="text/css">
   <![CDATA[
    .fil1 {fill:black;fill-rule:nonzero}
    .fil2 {fill:#CD1041;fill-rule:nonzero}
    .fil0 {fill:#FEFEFE;fill-rule:nonzero}
   ]]>
  </style>
 </defs>
 <g id="Capa_x0020_1">
  <metadata id="CorelCorpID_0Corel-Layer"/>
  <g id="South_x0020_Dakota_x0020_Coyotes.cdr">
   <path class="fil0" d="M794.23 560.56c74.7,0.04 149.39,-0.05 224.09,0.02 28.92,29.35 58.72,57.76 87.62,87.13 -0.03,12.48 0,24.94 0,37.42 -32.96,-0.02 -65.92,0.02 -98.86,-0.02 0,-8.76 0,-17.51 0,-26.27 -66.86,-0.02 -133.72,0 -200.58,0 0.09,20.03 -0.2,40.07 0.16,60.12 14.52,11.08 28.32,23.06 42.68,34.38 0.07,-16.46 0,-32.9 0.02,-49.35 103.11,0 206.22,-0.03 309.33,0.02 29.63,28.48 58.56,57.69 87.82,86.56 0.02,137.97 -0.07,275.91 0.05,413.88 -28.67,29.76 -58.86,58.02 -87.78,87.55 -103.13,-0.03 -206.26,0 -309.4,-0.03 -0.02,-42.47 0,-84.93 -0.02,-127.4 -18.15,0.02 -36.3,-0.07 -54.42,0.04 -29.47,-28.91 -58.11,-58.6 -87.3,-87.79 0.03,-22.75 -0.02,-45.51 0.03,-68.26 32.93,0.03 65.89,0 98.83,0 0,19.04 -0.02,38.11 0,57.15 66.86,0 133.72,0 200.55,0 0.05,-18.79 0.03,-37.56 0.03,-56.35 -19.66,-15.88 -39.18,-31.95 -58.86,-47.79 0,28.43 -0.02,56.85 0,85.26 -32.94,0.04 -65.9,0.02 -98.86,0.02 -0.02,-55.29 0.05,-110.58 -0.02,-165.88 -47.29,-38.42 -94.61,-76.82 -141.74,-115.43 0.11,-39.45 0.04,-78.9 0.02,-118.35 28.82,-28.92 57.74,-57.76 86.61,-86.63zm-389.45 225.97c2.72,50.26 10.7,100.27 24.21,148.78 18.7,65.46 56,128 113.3,166.51 -14.1,16.28 -26.22,34.38 -35.02,54.06 -14.33,31.61 -19.52,66.95 -16.75,101.47 3.52,46.97 19.91,91.95 40.46,133.99 16.98,34.28 40.94,65.69 72.25,88.04 34.31,25.03 76.41,37.44 118.43,40.62l-316.88 0 0 -733.47zm487.37 -641.96c6.49,-3.52 13.03,-6.92 19.5,-10.44 10.49,17.62 22.74,34.42 30.12,53.71 6.95,17.94 11.64,36.89 12.37,56.16 2.08,29.35 1.21,59.02 -4.64,87.91 30.45,28.03 46.97,67.61 57.35,106.91 14.56,-32.78 35.7,-62.54 61.6,-87.32 -6.51,-20.48 -8.78,-42.1 -8.23,-63.52 -0.52,-25.6 2.93,-51.38 11.13,-75.7 5.72,-17.81 16.28,-33.47 24.51,-50.15 22.17,8.55 45.6,15.36 64.48,30.42 35.84,26.4 55.75,69.53 61.46,112.85 40.41,31.63 71.13,74.7 91.39,121.62 14.19,32.57 22.58,67.41 27.1,102.59 5.67,-19.29 14.25,-38.17 27.91,-53.12 7.78,-8.3 15.75,-16.39 23.41,-24.8 16.98,13.12 35.47,24.66 49.44,41.23 23.45,26.88 44.71,56.76 55.34,91.18 8.23,21.92 10.12,45.42 15.18,68.09 46.49,81.19 55.04,182.45 24.39,270.68 -15.75,46.1 -40.55,89.58 -74.77,124.48 -31.8,32.8 -72.92,58.29 -118.63,65.06 26.92,25.12 49.67,56.2 58.99,92.29 11.39,42.72 4.28,88.12 -10.56,129.08 -14.83,41.1 -35.98,81.81 -70.9,109.31 -29.81,24.02 -68.34,35.1 -106.24,35.77 -78.88,1.55 -154.38,-29.12 -233.24,-27.87 -60.96,1.79 -120.32,17.08 -180.6,24.76 -41.07,5.07 -83.75,6.72 -123.75,-5.65 -34.08,-10.24 -64.5,-31.75 -85.78,-60.23 -18.59,-24.43 -31,-52.87 -41.9,-81.39 -15.89,-43.59 -24.05,-92.25 -10.27,-137.51 12.37,-42.04 43.32,-75.52 77.58,-101.42 -39.15,-8.92 -73.03,-33.97 -97.62,-65.15 -26.56,-33.57 -43.75,-73.8 -53.65,-115.27 -18.86,-75.7 -25.85,-155.43 -11.75,-232.57 8.6,-46.59 24.74,-92.26 50.79,-132 17.6,-26.06 37.95,-50.56 62.22,-70.68 15.11,-11.22 30.31,-22.35 45.72,-33.19 10.74,29.14 25.07,57.42 29.03,88.6 17.87,-90.47 69.03,-172.65 137.05,-234.11 7.04,-15.5 10.63,-32.53 17.74,-48.11 18.49,-44.35 53.6,-81.42 96.73,-102.5zm-32.89 74.54l0 0c-17.01,18.97 -28.09,42.49 -35.57,66.65 26.26,1.47 52.92,6.01 76.53,18.13 4.23,2.03 7.95,5.39 12.52,6.58 3.14,-21.1 2.75,-42.51 1.61,-63.75 -0.78,-20.89 -7.3,-41.26 -16.83,-59.77 -14.42,8.53 -26.88,20 -38.26,32.16zm242.17 40.46l0 0c-2.4,23.11 -2.65,46.67 2.18,69.51 11.38,-7.41 22.94,-14.63 35.29,-20.35 13.16,-5.69 26.88,-9.96 40.52,-14.37 -4.98,-19.82 -13.44,-39.07 -26.74,-54.77 -10.26,-12.16 -23.68,-21.33 -38.08,-27.93 -7.18,15.04 -11.04,31.45 -13.17,47.91zm-418.43 262.63l0 0c-9.48,38.24 -11.17,80.51 5.79,116.94 0.43,5.99 1.48,12.34 -0.09,18.17 -8.12,8.51 -16.51,16.71 -24.92,24.92 -0.25,9.6 -0.11,19.2 -0.14,28.8 -9.39,-8.3 -18.08,-17.44 -28.16,-24.94 -16.5,-11.89 -36.62,-18.13 -56.84,-19.13 -29.47,-1.37 -58.75,6.38 -85.31,18.7 -11.34,54.92 -10.03,112.02 -0.64,167.13 7.73,42.86 19.82,85.67 42.43,123.27 14.55,24.11 33.25,46.52 57.62,61.19 20.96,13.19 46.51,18.06 70.93,14.19 -0.07,17.63 -0.03,35.27 -0.03,52.92 -24.59,16.75 -48.91,34.9 -67.06,58.79 -18.15,23.31 -26.95,53.21 -25.46,82.63 1.85,40.3 17.09,78.54 35.01,114.2 15.64,30.65 41.08,57.44 73.95,69.28 41.28,15.2 86.4,10.74 129.03,4.89 60.11,-8.85 119.79,-23.18 180.87,-23.25 30.29,0.55 60.37,4.8 90.13,10.26 48.73,8.44 97.69,21.24 147.54,16.87 29.31,-2.58 57.95,-14.76 78.68,-35.88 25.94,-26.54 40.8,-61.6 52.02,-96.44 11.18,-35.79 14.11,-76.11 -2.19,-110.84 -18.13,-39.29 -53.9,-65.78 -86.82,-92.04 0.03,-13.37 0.05,-26.72 0,-40.09 21.22,9.67 45.15,13.71 68.3,10.17 33.35,-4.73 63.34,-22.91 87.53,-45.72 31.42,-29.92 54.65,-67.82 69.94,-108.27 30.51,-80.14 26.45,-175.43 -20.23,-248.6 -52.85,-1.1 -109.21,8.48 -151.59,42.17 -21.67,19.27 -44.21,37.58 -65.08,57.74 -9.25,-9.05 -18.63,-17.97 -27.88,-27l1.99 0.14c32.71,-9.94 59.81,-37.51 67.65,-71.11 7.62,-29.21 7.18,-59.77 5.31,-89.67 -2.77,-36 -6.04,-72.34 -16.78,-107 -17.26,-57.41 -51.43,-110.99 -100.73,-145.94 -38.47,9.55 -73.26,31.47 -100.64,59.91 -38.38,40.48 -60.17,94.52 -67.55,149.33 -13.12,-0.12 -26.22,-0.05 -39.34,-0.03 -1.57,-38.62 -6.69,-77.46 -19.2,-114.19 -9.03,-25.74 -22.28,-51.18 -44.04,-68.41 -30.27,-23.2 -68.6,-33.47 -106.11,-36.62 -61.65,52.5 -107.89,123.91 -127.89,202.56zm-142.24 38.74l0 0c-14.58,22.18 -22.19,47.98 -28.05,73.61 26.52,-7.75 55.14,-11.84 82.25,-4.69 8.96,-41.55 13.57,-86.06 -1.83,-126.72 -20.25,16.48 -37.37,36.52 -52.37,57.8zm855.19 -56.2l0 0c-17.53,22.58 -23.29,52.23 -21.64,80.27 0.55,19.48 2.21,39 6.58,58.02 28.32,-8.58 57.94,-12.78 87.55,-12.19 -6.91,-24.66 -13.06,-50.19 -27.34,-71.84 -12.92,-19.66 -27.02,-39.04 -45.15,-54.26zm-447.73 298.11l0 0c-0.02,10.35 0.02,20.73 -0.05,31.08 52.51,43.04 105.24,85.81 157.79,128.78 -0.18,37.88 0.2,75.75 -0.18,113.63 -26.84,28.41 -55.34,55.45 -82.72,83.45 -2.36,1.92 -4.28,5.53 -7.91,4.78 -22.31,0.04 -44.62,-0.05 -66.93,0 0,9.71 0,19.43 0,29.14 66.67,0 133.33,0 200,0 0,-130.29 0,-260.58 0,-390.86 -66.67,0 -133.33,0 -200,0z"/>
   <path class="fil1" d="M948.22 802.85c66.67,0 133.33,0 200,0 0,130.28 0,260.57 0,390.86 -66.67,0 -133.33,0 -200,0 0,-9.71 0,-19.43 0,-29.14 22.31,-0.05 44.62,0.04 66.93,0 3.63,0.75 5.55,-2.86 7.91,-4.78 27.38,-28 55.88,-55.04 82.72,-83.45 0.38,-37.88 0,-75.75 0.18,-113.63 -52.55,-42.97 -105.28,-85.74 -157.79,-128.78 0.07,-10.35 0.03,-20.73 0.05,-31.08zm447.73 -298.11c18.13,15.22 32.23,34.6 45.15,54.26 14.28,21.65 20.43,47.18 27.34,71.84 -29.61,-0.59 -59.23,3.61 -87.55,12.19 -4.37,-19.02 -6.03,-38.54 -6.58,-58.02 -1.65,-28.04 4.11,-57.69 21.64,-80.27zm-855.19 56.2c15,-21.28 32.12,-41.32 52.37,-57.8 15.4,40.66 10.79,85.17 1.83,126.72 -27.11,-7.15 -55.73,-3.06 -82.25,4.69 5.86,-25.63 13.47,-51.43 28.05,-73.61zm560.67 -301.37c2.13,-16.46 5.99,-32.87 13.17,-47.91 14.4,6.6 27.82,15.77 38.08,27.93 13.3,15.7 21.76,34.95 26.74,54.77 -13.64,4.41 -27.36,8.68 -40.52,14.37 -12.35,5.72 -23.91,12.94 -35.29,20.35 -4.83,-22.84 -4.58,-46.4 -2.18,-69.51zm-242.17 -40.46c11.38,-12.16 23.84,-23.63 38.26,-32.16 9.53,18.51 16.05,38.88 16.83,59.77 1.14,21.24 1.53,42.65 -1.61,63.75 -4.57,-1.19 -8.29,-4.55 -12.52,-6.58 -23.61,-12.12 -50.27,-16.66 -76.53,-18.13 7.48,-24.16 18.56,-47.68 35.57,-66.65zm8.57 -108.14c19.77,-10.17 38.83,-21.71 59.04,-30.97 13.78,22.47 27.59,44.96 41.14,67.57 13.4,24.2 22.13,51.06 25.83,78.47 3.16,30.65 3.43,61.71 -0.34,92.32 7.98,9.46 14.95,19.7 21.42,30.24 2.56,-3.29 6.26,-5.97 7.72,-9.94 -7.43,-53.51 -4.96,-110.34 18.02,-160.03 11.77,-22.72 24.09,-45.19 36.11,-67.8 20.75,7.91 41.53,15.8 62.29,23.68 24.98,9.22 47.7,24.23 66.49,43.02 28.07,28.57 46.42,66.13 53.85,105.35 44.05,39.32 77.74,89.74 98.47,144.94 9.51,-10.42 19.36,-20.52 28.96,-30.85 17.44,12.79 34.68,25.89 52.12,38.72 26.06,18.74 46.26,44.27 64.3,70.53 24,34.04 37.96,74.41 44.32,115.34 1.39,7.34 1.99,15.07 5.85,21.67 51.31,96.03 54.95,214.73 13.28,314.91 -29.58,72.71 -81.44,139.18 -152.76,174.52 24.92,37.1 37.19,82.28 34.61,126.88 -2.36,45.21 -16.85,88.96 -36.25,129.56 -19.2,40.29 -48.16,76.96 -86.68,100.29 -31.79,19.66 -69.07,28.74 -106.13,30.61l-26.44 0c-47.11,-2.42 -93.15,-13.19 -139.48,-21.12 -28.57,-4.73 -57.6,-8.52 -86.58,-6.08 -65.99,4.69 -130.22,22.7 -196.26,27.2l-49.07 0c-42.02,-3.18 -84.12,-15.59 -118.43,-40.62 -31.31,-22.35 -55.27,-53.76 -72.25,-88.04 -20.55,-42.04 -36.94,-87.02 -40.46,-133.99 -2.77,-34.52 2.42,-69.86 16.75,-101.47 8.8,-19.68 20.92,-37.78 35.02,-54.06 -57.3,-38.51 -94.6,-101.05 -113.3,-166.51 -13.51,-48.51 -21.49,-98.52 -24.21,-148.78l0 -48.62c4.23,-83.23 27.11,-167.87 78.04,-235 19.88,-26.22 42.24,-51.04 69.28,-70.04 26.17,-18.83 52.09,-38.03 78.35,-56.73 3.71,9.51 7.46,19 11.11,28.53 23.94,-45.76 55,-87.73 91.66,-124.07 4.66,-4.41 10.31,-8.55 11.86,-15.18 12.6,-40.85 32.44,-80.64 63.75,-110.4 17.19,-17.63 36.87,-33.08 59,-44.05zm24.32 33.6l0 0c-43.13,21.08 -78.24,58.15 -96.73,102.5 -7.11,15.58 -10.7,32.61 -17.74,48.11 -68.02,61.46 -119.18,143.64 -137.05,234.11 -3.96,-31.18 -18.29,-59.46 -29.03,-88.6 -15.41,10.84 -30.61,21.97 -45.72,33.19 -24.27,20.12 -44.62,44.62 -62.22,70.68 -26.05,39.74 -42.19,85.41 -50.79,132 -14.1,77.14 -7.11,156.87 11.75,232.57 9.9,41.47 27.09,81.7 53.65,115.27 24.59,31.18 58.47,56.23 97.62,65.15 -34.26,25.9 -65.21,59.38 -77.58,101.42 -13.78,45.26 -5.62,93.92 10.27,137.51 10.9,28.52 23.31,56.96 41.9,81.39 21.28,28.48 51.7,49.99 85.78,60.23 40,12.37 82.68,10.72 123.75,5.65 60.28,-7.68 119.64,-22.97 180.6,-24.76 78.86,-1.25 154.36,29.42 233.24,27.87 37.9,-0.67 76.43,-11.75 106.24,-35.77 34.92,-27.5 56.07,-68.21 70.9,-109.31 14.84,-40.96 21.95,-86.36 10.56,-129.08 -9.32,-36.09 -32.07,-67.17 -58.99,-92.29 45.71,-6.77 86.83,-32.26 118.63,-65.06 34.22,-34.9 59.02,-78.38 74.77,-124.48 30.65,-88.23 22.1,-189.49 -24.39,-270.68 -5.06,-22.67 -6.95,-46.17 -15.18,-68.09 -10.63,-34.42 -31.89,-64.3 -55.34,-91.18 -13.97,-16.57 -32.46,-28.11 -49.44,-41.23 -7.66,8.41 -15.63,16.5 -23.41,24.8 -13.66,14.95 -22.24,33.83 -27.91,53.12 -4.52,-35.18 -12.91,-70.02 -27.1,-102.59 -20.26,-46.92 -50.98,-89.99 -91.39,-121.62 -5.71,-43.32 -25.62,-86.45 -61.46,-112.85 -18.88,-15.06 -42.31,-21.87 -64.48,-30.42 -8.23,16.68 -18.79,32.34 -24.51,50.15 -8.2,24.32 -11.65,50.1 -11.13,75.7 -0.55,21.42 1.72,43.04 8.23,63.52 -25.9,24.78 -47.04,54.54 -61.6,87.32 -10.38,-39.3 -26.9,-78.88 -57.35,-106.91 5.85,-28.89 6.72,-58.56 4.64,-87.91 -0.73,-19.27 -5.42,-38.22 -12.37,-56.16 -7.38,-19.29 -19.63,-36.09 -30.12,-53.71 -6.47,3.52 -13.01,6.92 -19.5,10.44zm-203.36 494.57c32.82,-33.9 66.54,-66.97 99.95,-100.28 63.84,0.12 127.66,0.07 191.5,0 13.12,-0.02 26.22,-0.09 39.34,0.03 2.81,0.04 5.62,0.11 8.46,0.2 20.66,19.25 40.07,39.77 60.27,59.5 13.6,12.8 26.61,26.24 39.84,39.43 0.05,14.77 -0.02,29.51 0.05,44.28 13.55,0.04 27.09,0.06 40.64,-0.03 20.3,20.53 41.56,40.05 61.49,60.96 9.25,9.03 18.63,17.95 27.88,27 3.71,3.75 7.41,7.54 11.09,11.34 0,93.71 -0.07,187.45 0.04,281.17 0.05,13.37 0.03,26.72 0,40.09 -0.11,36.23 -0.06,72.48 -0.02,108.71 -31.84,32.27 -64.2,64.09 -96.07,96.37 -2.03,1.78 -4,4.38 -7.08,4 -12,0.38 -24.03,-0.1 -36.03,0.09 -5.12,5.14 -10.26,10.26 -15.38,15.38 -66.74,0.02 -133.47,0 -200.21,0.02 -36.37,0.28 -72.71,-1.07 -109.08,-0.59 -0.2,-42.45 0,-84.92 -0.11,-127.39 -18.29,-0.04 -36.6,-0.06 -54.88,0.03 -29.19,-28.78 -57.53,-58.43 -86.77,-87.16 -0.02,-1.99 -0.04,-5.94 -0.07,-7.93 0,-17.65 -0.04,-35.29 0.03,-52.92 0.02,-2.67 0.06,-5.34 0.11,-8 8.53,0.05 17.05,0.03 25.6,0 0.09,-18.83 -0.04,-37.64 0.07,-56.48 38.63,-0.11 77.26,0.03 115.89,-0.04 0.11,-23.57 0,-47.14 0.06,-70.68 -47.2,-38.49 -94.46,-76.87 -141.69,-115.31 -0.11,-29.97 0,-59.94 -0.07,-89.9 0.03,-9.6 -0.11,-19.2 0.14,-28.8 8.41,-8.21 16.8,-16.41 24.92,-24.92 1.57,-5.83 0.52,-12.18 0.09,-18.17zm105.44 -78.58l0 0c-28.87,28.87 -57.79,57.71 -86.61,86.63 0.02,39.45 0.09,78.9 -0.02,118.35 47.13,38.61 94.45,77.01 141.74,115.43 0.07,55.3 0,110.59 0.02,165.88 32.96,0 65.92,0.02 98.86,-0.02 -0.02,-28.41 0,-56.83 0,-85.26 19.68,15.84 39.2,31.91 58.86,47.79 0,18.79 0.02,37.56 -0.03,56.35 -66.83,0 -133.69,0 -200.55,0 -0.02,-19.04 0,-38.11 0,-57.15 -32.94,0 -65.9,0.03 -98.83,0 -0.05,22.75 0,45.51 -0.03,68.26 29.19,29.19 57.83,58.88 87.3,87.79 18.12,-0.11 36.27,-0.02 54.42,-0.04 0.02,42.47 0,84.93 0.02,127.4 103.14,0.03 206.27,0 309.4,0.03 28.92,-29.53 59.11,-57.79 87.78,-87.55 -0.12,-137.97 -0.03,-275.91 -0.05,-413.88 -29.26,-28.87 -58.19,-58.08 -87.82,-86.56 -103.11,-0.05 -206.22,-0.02 -309.33,-0.02 -0.02,16.45 0.05,32.89 -0.02,49.35 -14.36,-11.32 -28.16,-23.3 -42.68,-34.38 -0.36,-20.05 -0.07,-40.09 -0.16,-60.12 66.86,0 133.72,-0.02 200.58,0 0,8.76 0,17.51 0,26.27 32.94,0.04 65.9,0 98.86,0.02 0,-12.48 -0.03,-24.94 0,-37.42 -28.9,-29.37 -58.7,-57.78 -87.62,-87.13 -74.7,-0.07 -149.39,0.02 -224.09,-0.02zm194.22 277.17l0 0c38.12,31.65 76.69,62.83 115.22,94.01 0.09,-31.36 0.07,-62.7 0.03,-94.06 -38.43,0 -76.85,-0.11 -115.25,0.05zm52.66 334.31l0 0c20.85,0.05 41.72,0.05 62.59,0 0.06,-20.87 0.04,-41.74 0,-62.58 -20.94,20.77 -41.81,41.64 -62.59,62.58z"/>
   <path class="fil2" d="M683 522.2c20,-78.65 66.24,-150.06 127.89,-202.56 37.51,3.15 75.84,13.42 106.11,36.62 21.76,17.23 35.01,42.67 44.04,68.41 12.51,36.73 17.63,75.57 19.2,114.19 -63.84,0.07 -127.66,0.12 -191.5,0 -33.41,33.31 -67.13,66.38 -99.95,100.28 -16.96,-36.43 -15.27,-78.7 -5.79,-116.94zm358.11 649.84c20.78,-20.94 41.65,-41.81 62.59,-62.58 0.04,20.84 0.06,41.71 0,62.58 -20.87,0.05 -41.74,0.05 -62.59,0zm228.23 -69.21c32.92,26.26 68.69,52.75 86.82,92.04 16.3,34.73 13.37,75.05 2.19,110.84 -11.22,34.84 -26.08,69.9 -52.02,96.44 -20.73,21.12 -49.37,33.3 -78.68,35.88 -49.85,4.37 -98.81,-8.43 -147.54,-16.87 -29.76,-5.46 -59.84,-9.71 -90.13,-10.26 -61.08,0.07 -120.76,14.4 -180.87,23.25 -42.63,5.85 -87.75,10.31 -129.03,-4.89 -32.87,-11.84 -58.31,-38.63 -73.95,-69.28 -17.92,-35.66 -33.16,-73.9 -35.01,-114.2 -1.49,-29.42 7.31,-59.32 25.46,-82.63 18.15,-23.89 42.47,-42.04 67.06,-58.79 0.03,1.99 0.05,5.94 0.07,7.93 29.24,28.73 57.58,58.38 86.77,87.16 18.28,-0.09 36.59,-0.07 54.88,-0.03 0.11,42.47 -0.09,84.94 0.11,127.39 36.37,-0.48 72.71,0.87 109.08,0.59 66.74,-0.02 133.47,0 200.21,-0.02 5.12,-5.12 10.26,-10.24 15.38,-15.38 12,-0.19 24.03,0.29 36.03,-0.09 3.08,0.38 5.05,-2.22 7.08,-4 31.87,-32.28 64.23,-64.1 96.07,-96.37 -0.04,-36.23 -0.09,-72.48 0.02,-108.71zm-280.89 -265.1c38.4,-0.16 76.82,-0.05 115.25,-0.05 0.04,31.36 0.06,62.7 -0.03,94.06 -38.53,-31.18 -77.1,-62.36 -115.22,-94.01zm334.84 -125.24c42.38,-33.69 98.74,-43.27 151.59,-42.17 46.68,73.17 50.74,168.46 20.23,248.6 -15.29,40.45 -38.52,78.35 -69.94,108.27 -24.19,22.81 -54.18,40.99 -87.53,45.72 -23.15,3.54 -47.08,-0.5 -68.3,-10.17 -0.11,-93.72 -0.04,-187.46 -0.04,-281.17 -3.68,-3.8 -7.38,-7.59 -11.09,-11.34 20.87,-20.16 43.41,-38.47 65.08,-57.74zm-829.96 -26.83c26.56,-12.32 55.84,-20.07 85.31,-18.7 20.22,1 40.34,7.24 56.84,19.13 10.08,7.5 18.77,16.64 28.16,24.94 0.07,29.96 -0.04,59.93 0.07,89.9 47.23,38.44 94.49,76.82 141.69,115.31 -0.06,23.54 0.05,47.11 -0.06,70.68 -38.63,0.07 -77.26,-0.07 -115.89,0.04 -0.11,18.84 0.02,37.65 -0.07,56.48 -8.55,0.03 -17.07,0.05 -25.6,0 -0.05,2.66 -0.09,5.33 -0.11,8 -24.42,3.87 -49.97,-1 -70.93,-14.19 -24.37,-14.67 -43.07,-37.08 -57.62,-61.19 -22.61,-37.6 -34.7,-80.41 -42.43,-123.27 -9.39,-55.11 -10.7,-112.21 0.64,-167.13zm593.8 -296.1c27.38,-28.44 62.17,-50.36 100.64,-59.91 49.3,34.95 83.47,88.53 100.73,145.94 10.74,34.66 14.01,71 16.78,107 1.87,29.9 2.31,60.46 -5.31,89.67 -7.84,33.6 -34.94,61.17 -67.65,71.11l-1.99 -0.14c-19.93,-20.91 -41.19,-40.43 -61.49,-60.96 -13.55,0.09 -27.09,0.07 -40.64,0.03 -0.07,-14.77 0,-29.51 -0.05,-44.28 -13.23,-13.19 -26.24,-26.63 -39.84,-39.43 -20.2,-19.73 -39.61,-40.25 -60.27,-59.5 -2.84,-0.09 -5.65,-0.16 -8.46,-0.2 7.38,-54.81 29.17,-108.85 67.55,-149.33z"/>
  </g>
 </g>
</svg>
