<?xml version="1.0" encoding="UTF-8"?>
<!DOCTYPE svg PUBLIC "-//W3C//DTD SVG 1.1//EN" "http://www.w3.org/Graphics/SVG/1.1/DTD/svg11.dtd">
<!-- Creator: CorelDRAW -->
<svg xmlns="http://www.w3.org/2000/svg" xml:space="preserve" width="2000px" height="1600px" version="1.1" style="shape-rendering:geometricPrecision; text-rendering:geometricPrecision; image-rendering:optimizeQuality; fill-rule:evenodd; clip-rule:evenodd"
viewBox="0 0 2000 1600"
 xmlns:xlink="http://www.w3.org/1999/xlink">
 <defs>
  <style type="text/css">
   <![CDATA[
    .fil1 {fill:#005DAB;fill-rule:nonzero}
    .fil5 {fill:#C9D9EF;fill-rule:nonzero}
    .fil3 {fill:#DEB406;fill-rule:nonzero}
    .fil0 {fill:#FEFEFE;fill-rule:nonzero}
    .fil2 {fill:#FFDE00;fill-rule:nonzero}
    .fil4 {fill:#FFF9C4;fill-rule:nonzero}
   ]]>
  </style>
 </defs>
 <g id="Capa_x0020_1">
  <metadata id="CorelCorpID_0Corel-Layer"/>
  <g id="South_x0020_Dakota_x0020_State_x0020_Jackrabbits.cdr">
   <path class="fil0" d="M407.01 1065.47c13.94,-0.73 27.96,0.32 41.88,-1.18 13.11,48.42 27.3,96.53 41.68,144.57 2.61,8.88 7.38,16.87 12.74,24.35 -20.08,3.38 -40.02,7.4 -60.12,10.62 6.34,-13.21 4.14,-27.8 1.68,-41.63 -15.51,1.57 -30.75,4.89 -46.17,7.09 -3.89,14.24 -7.43,29.87 -0.82,43.93 -14.29,2.74 -28.53,5.88 -42.72,9.13 5.02,-10.97 10.87,-21.63 13.92,-33.39 12.17,-43.04 21.98,-86.77 35.48,-129.47 3.7,-10.92 4.97,-22.69 2.45,-34.02zm421.35 235.71c-1.12,-4.83 6.29,-11.12 9.7,-6.01 15.28,23.09 41.67,37.02 68.61,41.22 4.68,0.93 9.36,2.02 14.02,3.16 -15.81,4.24 -32.8,3.38 -47.82,-3.32 -18.21,-6.63 -32.38,-20.42 -44.51,-35.05zm44.63 -43.13c35.39,-2.34 71.32,-11.92 99.87,-33.66 7.99,-0.36 16.1,-0.88 24.01,0.71 0.74,6.08 1.27,12.19 1.45,18.35 -1.41,2.02 -2.75,4.11 -4.04,6.24 -19.31,15.72 -40.87,29.8 -65.44,35.48 -11.36,3 -22.3,-2.34 -32.57,-6.47 -11.99,-4.91 -23.53,-10.86 -34.55,-17.67 2.5,-3.52 7.57,-2.16 11.27,-2.98zm837.95 -144.68c2.5,-20.33 18.08,-38.5 38.25,-42.9 15.83,-4.02 32.09,0.52 46.56,7.02 0.7,11.99 0.18,24 0.34,36.02 -10.15,-9.43 -23.19,-16.56 -37.32,-16.49 -8.4,0.32 -15.28,8.02 -14.47,16.42 -0.7,14.56 11.22,25.01 21.1,33.89 18.13,15.6 36.28,33.93 41.8,58.05 4.22,20.44 2.79,43.29 -8.77,61.21 -8.45,13.15 -24.65,20.88 -40.18,18.38 -16.24,-2.48 -31.41,-9.45 -45.79,-17.13 -2.11,-14.85 -4.84,-29.64 -6.59,-44.54 12,13.27 25.87,25.71 43.09,31.6 7.99,2.81 18.19,2.65 24.21,-4.09 6.45,-6.98 5.63,-17.45 3.75,-26.03 -1.73,-8.34 -7.04,-15.33 -13.26,-20.9 -16.13,-15.06 -32.76,-29.96 -45.3,-48.28 -8.69,-12.13 -8.94,-27.97 -7.42,-42.23zm-1432.35 -44.13c19.24,-0.27 38.48,0.11 57.69,-0.23 -6.2,13.18 -7.93,27.85 -8.04,42.27 -0.07,40.14 0.43,80.27 -0.79,120.38 -1.62,21.71 -15.31,41.22 -33.85,52.13 -18.89,12.33 -40.88,18.19 -62.55,23.44 1.09,-7.5 2.32,-14.95 4.07,-22.29 18.19,-3.51 37.02,-12.37 46.17,-29.34 5.61,-9.2 8.41,-19.92 7.84,-30.71 -0.61,-40.09 1.09,-80.15 0.38,-120.26 -0.06,-12.63 -4.42,-24.69 -10.92,-35.39zm1273.58 -6.75c47.38,-0.31 94.79,0.62 142.17,0.96 -2.46,14.74 -4.93,29.5 -7.73,44.2 -16.37,-6.25 -33.84,-9.66 -51.35,-9.54 1.7,38.41 -0.21,76.86 1.27,115.27 -1.02,14.62 1.89,29.32 8.61,42.38 -18.56,-4.54 -37.46,-7.57 -56.08,-11.81 7.5,-9.25 9.36,-21.33 8.9,-32.91 0.03,-38.21 -0.41,-76.41 0.55,-114.59 -17.72,-2.23 -36.05,-1.82 -52.92,4.57 1.84,-12.9 4.68,-25.65 6.58,-38.53zm-88.1 -1.81c18.6,-0.48 37.18,0.56 55.76,0.59 -5.02,8.2 -8.58,17.4 -8.88,27.09 -0.14,39.48 0.41,78.93 0.75,118.41 0,9.22 3.5,17.87 6.25,26.55 -17.22,-3.43 -34.62,-5.77 -51.93,-8.63 8.09,-13.7 7.39,-30.12 6.61,-45.43 -0.81,-31.82 0.69,-63.66 -0.93,-95.46 -0.11,-8.34 -3.7,-15.99 -7.63,-23.12zm-793.27 -3.07c16.3,0.48 32.64,-1.11 48.97,-0.16 -3.73,8.29 -3.73,17.49 -4.14,26.42 -0.5,24.96 0.48,49.97 -0.68,74.95 -0.07,15.31 -1.66,32.12 7.91,45.24 -18.4,1.28 -36.69,4 -55.08,5.45 3.45,-6.67 6.83,-13.58 7.56,-21.16 1.84,-27.24 0.25,-54.56 1.54,-81.84 -0.04,-16.47 1.87,-33.75 -6.08,-48.9zm-97.69 1c19.28,-5.59 39.47,-2.41 58.89,0.52 0.21,8.34 -0.36,16.67 -0.54,25.01 -13.88,-7.77 -30.55,-14.04 -46.38,-8.38 -18.56,6.61 -28.66,26.05 -32.21,44.36 -3.09,19.26 -2.7,40.49 8.13,57.46 7.93,13.58 23.37,22.53 39.21,21.71 15.55,0.28 29.86,-6.58 43.38,-13.51 -4.2,9.68 -8.41,19.35 -12.56,29.05 -20.69,7.52 -43.2,13.2 -65.28,9.15 -17.92,-3.13 -34.3,-14.67 -42.5,-31.02 -13.6,-26.46 -13.26,-58.67 -2.77,-86.11 8.79,-23.07 28.51,-42.06 52.63,-48.24zm270.78 -3.43c20.17,-1.86 40.52,-0.18 60.76,-0.91 15.92,-0.38 33.57,-0.34 46.79,9.88 15.35,11.22 11.81,37.75 -4.25,46.61 -4.2,2.54 -8.88,4.11 -13.44,5.79 13.44,26.71 29.91,52.13 51.03,73.48 -12.38,-0.32 -24.76,1.04 -37.11,0.59 -7.29,0.27 -12.2,-5.95 -16.22,-11.11 -13.38,-18.81 -25.05,-38.91 -33.32,-60.48 8.2,-2.64 17.99,-4.07 22.94,-12.04 7.02,-8.54 8.06,-24.67 -2.91,-30.44 -9.01,-4.31 -19.41,-3.29 -29.07,-2.43 0.46,23.72 0.16,47.43 -0.41,71.14 0.71,15.85 -3.38,34.36 8.72,47.13 -18.89,0.23 -37.74,1.7 -56.62,2.36 5.61,-7.83 9.7,-16.87 9.22,-26.73 0.23,-30.25 0,-60.53 0.12,-90.79 0.38,-7.85 -2.3,-15.37 -6.23,-22.05zm-78.47 0.52c13.24,-0.47 26.48,0.21 39.73,-0.5 -15.34,20.58 -32.92,39.48 -48.27,60.08 9.58,17.01 17.78,34.84 28.98,50.9 7.41,11.11 16.42,20.99 25.64,30.59 -12.12,0.5 -24.23,1.89 -36.36,2.43 -5.31,0.46 -10.29,-2.22 -14.04,-5.76 -9.49,-8.73 -14.71,-20.83 -20.1,-32.28 -5.63,-12.99 -12.9,-25.24 -17.53,-38.61 11.95,-18.58 27.46,-34.89 38.61,-54.11 2.34,-3.83 2.59,-8.42 3.34,-12.74zm1057.58 -176.11c0.66,-0.3 2,-0.87 2.68,-1.16 5.46,-0.32 10.93,-0.59 16.43,-1.02 -3.32,4.68 -7.73,8.33 -12.25,11.78 -2.31,-3.2 -4.61,-6.4 -6.86,-9.6zm-454.05 8.08c20.74,-3.68 40.95,-10.06 60.46,-17.99 7.59,4.39 15.56,8.04 23.94,10.7 -4.43,3.59 -9.34,6.5 -14.63,8.61 -41.97,18.76 -87.71,33.27 -134.23,29.41 -13.7,-0.79 -26.51,-5.88 -39.5,-9.72 2.75,-10.61 5.91,-21.1 9.61,-31.39 30.14,10.11 62.66,15.33 94.35,10.38zm373.65 -91.6c16.9,-2.32 35.39,0.57 48.42,12.31 16.92,14.29 22.92,36.93 25.42,58.06 -3.02,2.31 -6.09,4.54 -9.18,6.72 -21.98,-1.55 -44.67,1.38 -65.95,-5.82 -7.2,-2.58 -13.95,-7.31 -17.49,-14.24 -3.48,-6.4 -3.27,-13.87 -3.57,-20.91 6.5,-0.98 10.31,-6.77 13.47,-11.95 -1.64,-1.3 -3.25,-2.57 -4.86,-3.82 1.09,-1.97 2.22,-3.9 3.45,-5.79 6.54,0.23 15.99,-8.52 10.29,-14.56zm-1398.76 -12.79c39.09,-3.33 77.96,-16.08 108.69,-40.99 4.45,8.83 9.08,17.58 14.4,25.94 -28.51,26.34 -64.69,44.08 -103.01,50.3 -7.17,1.03 -14.63,3.12 -21.76,0.78 2.82,-4.55 5.43,-9.2 7.75,-13.99 -26.3,4.54 -52.38,10.87 -79.07,12.83 -3.22,0.48 -6.35,-0.34 -9.08,-2.02 -32.55,-17.42 -61.33,-41.86 -84.22,-70.75 14.94,9.92 30.46,19.19 47.42,25.3 37.78,14.13 79.05,16.03 118.88,12.6zm1056.38 16.18c-8.22,-27.53 -6.56,-59.9 12.09,-82.95 -1.71,15.78 5.22,31.36 12.65,44.95 21.94,33.68 61.05,52.15 99.64,58.87 36.86,7.04 74.23,-0.68 111.34,0.86 14.76,0.34 29.34,2.7 43.81,5.59 -1.41,3.93 -2.88,7.81 -4.4,11.7 -34.37,-13.15 -71.78,-5.14 -107.28,-2.43 -31.93,2.45 -64.23,0.31 -95.5,-6.5 -20.01,-4.45 -37.98,-16.44 -50.25,-32.8 -3.27,3.8 -6.47,7.63 -9.6,11.52 -2.3,-5.27 -3.96,-10.81 -4.3,-16.56 -2.7,2.61 -5.42,5.2 -8.2,7.75zm215.87 -131.19c-0.89,-17.06 10.61,-31.71 24.37,-40.46 7.47,4.16 14.49,9.07 21.05,14.56 -5.88,0.39 -11.6,1.77 -16.96,4.14 4.74,4.11 9.65,10.94 4.77,16.96 -3.86,7 -12.77,5.59 -17.45,0.34 0.16,6.55 -0.5,13.47 2.53,19.54 6.54,15.96 26.27,24.82 42.56,19.1 7.79,-2.23 13.29,-8.7 17.24,-15.45 0.5,-0.04 1.52,-0.16 2.02,-0.22 2.27,5.49 3.61,11.29 5.09,17.05 -15.47,12.93 -37.93,14.06 -56.4,7.77 1.18,-0.07 3.52,-0.2 4.7,-0.27 -17.21,-7.68 -33.02,-23.15 -33.52,-43.06zm-758.57 -68.8c1.07,14.97 1.68,30.41 -1.11,45.15 -5.36,11.81 -8.5,24.51 -14.61,36 -12.69,27.64 -32.11,52.2 -56.01,71.02 -40.99,31.33 -90.64,52.18 -142.23,56.58 -49.99,3.05 -101.91,-7.13 -144.59,-34.11 -2.79,-1.48 -5.74,-2.61 -8.65,-3.84 -10.27,-8.2 -18.87,-18.81 -25.91,-29.91 42.56,33.95 96.96,53.6 151.67,51.12 67.64,-1.91 132.01,-35.75 176.85,-85.6 1.49,4.86 2.97,9.7 4.52,14.56 33.52,-31.53 53.32,-75.84 60.07,-120.97zm246.16 -25.08c29.12,-15.03 64.01,-14.99 95.19,-7.02 5.05,1.87 12.18,2.94 13.9,8.91 3.68,13.19 3.59,27.03 5.55,40.52 -6.8,-1.5 -13.68,-2.48 -20.63,-2.43 -19.71,0.13 -39.77,-1.32 -59.05,3.84 -22.21,4.38 -35.82,25.03 -45.15,43.95 -14.43,27.05 -20.63,57.25 -28.53,86.58 -1.48,-3.66 -3.2,-7.18 -4.98,-10.68 -3.92,-26.14 -9.83,-52.49 -6.74,-79.11 2.34,-33.91 19.85,-68.02 50.44,-84.56zm15.81 -57.17c25.8,-9.88 54.67,-13.28 81.7,-6.65 5.84,1.77 12.45,3.13 16.88,7.65 3.68,6.57 5.7,13.93 7.92,21.08 -23.69,-6.56 -48.72,-10.26 -73.2,-6.54 -12.15,2.07 -24.8,6.02 -33.16,15.65 -15.42,5.81 -31.32,11.49 -44.61,21.64 5.63,-23.14 21.96,-44.13 44.47,-52.83zm16.83 -35.45c18.79,-5.77 39.66,-7.91 58.53,-1.36 6.34,1.68 6.5,9.31 6.86,14.62 -36.75,-8.33 -76.84,-1.36 -108.84,18.49 9.34,-15.99 26.3,-25.98 43.45,-31.75zm-83.4 571.93c14.01,0.37 28.05,-0.18 42.07,0.32 13.53,38.14 27.66,76.07 41.24,114.18 3.02,9.09 8.09,17.28 13.99,24.76 -19.96,-0.93 -39.95,-1.46 -59.91,-2.05 5.58,-10.1 3.97,-21.44 0.84,-32 -15.4,-1.27 -30.89,-0.36 -46.34,-0.64 -4.2,10.16 -6.43,21.63 -1.13,31.85 -14.04,-0.09 -28.05,0.04 -42.07,-0.09 5.07,-7.13 10.84,-13.95 13.88,-22.28 12.11,-30.33 24.26,-60.65 36.09,-91.08 3.11,-7.29 2.64,-15.33 1.34,-22.97zm-1 83.38l0 0c10.88,0.39 21.76,0.25 32.66,0.07 -3.41,-10.99 -7.02,-21.92 -10.31,-32.93 -1.34,-3.95 -1.91,-8.79 -6.29,-10.63 -6.82,13.88 -10.54,29.07 -16.06,43.49zm118.02 -82.74c18.28,1.36 36.63,-0.04 54.94,1.18 17.65,0.57 38.04,-2.7 52.56,9.81 16.1,13.04 13.42,43.11 -6.57,50.9 -6.51,4.36 -15.9,2.39 -21.41,8.07 12.17,1.81 24.73,5.63 33.22,15.12 12.91,12.81 12.25,36.53 -2.09,48.04 -13.49,11.04 -32.16,12.49 -48.87,10.79 -20.81,-1.91 -41.73,-2.27 -62.49,-4.43 4.3,-6.29 8.09,-13.35 7.88,-21.24 -0.02,-23.5 0.46,-47.06 -0.52,-70.56 -0.09,-16.06 1.89,-33.17 -6.65,-47.68zm45.26 21.69l0 0c0.28,12.22 -0.81,24.53 1,36.68 8.86,1 18.31,2.25 26.78,-1.36 11.15,-4.95 12.95,-21.71 5.52,-30.46 -9.15,-7.86 -22.21,-6.29 -33.3,-4.86zm0.57 55.67l0 0c0.14,14.33 -0.41,28.69 0.46,43.02 9.51,2.97 21.19,5.06 29.75,-1.45 8.11,-7.07 8.27,-19.81 4.68,-29.19 -6.18,-12.74 -22.51,-14.01 -34.89,-12.38zm100.76 -74.36c23.14,-0.3 46.26,1 69.41,1.32 12.04,0.38 25.26,0.54 35.07,8.58 14.69,10.72 17.4,33.05 7.9,47.99 -5.5,8.11 -15.17,11.81 -24.39,13.65 -2.93,0.91 -7.14,0.39 -7.91,4.21 12.9,1.56 25.51,7.54 33.6,17.94 10.74,13.33 11.33,34.39 0.34,47.74 -10.45,11.63 -27.24,14.99 -42.25,13.92 -24.12,-2.4 -48.13,-6.04 -72.3,-7.79 11.84,-16.01 7.82,-36.61 7.68,-55.12 0,-24.14 0.14,-48.29 -0.91,-72.41 -0.54,-7.09 -3.18,-13.72 -6.24,-20.03zm45.33 22.98l0 0c-0.63,12.95 0.87,25.9 0.39,38.84 11.26,2.25 26.73,4.41 34.25,-6.58 4.59,-9.2 4.52,-23.29 -5.02,-29.39 -9.04,-5 -19.76,-3.93 -29.62,-2.87zm0.43 59.22l0 0c1.16,15.62 0.14,31.29 0.68,46.92 9.98,2.11 22.15,6 30.62,-1.91 7.86,-8.9 7.72,-23 2.34,-33.13 -6.97,-11.32 -21.67,-12.45 -33.64,-11.88zm-940.84 -18.79l0 0c-5.99,19.17 -10.15,38.89 -15.58,58.22 10.72,-0.94 21.33,-2.98 32.05,-3.93 -3.22,-17.88 -8.31,-35.35 -12.04,-53.11 -1.11,-0.29 -3.31,-0.88 -4.43,-1.18z"/>
   <path class="fil1" d="M872.26 1471.08c5.38,0 10.77,0.09 16.17,0.41 5.8,15.21 9.91,31.3 18.4,45.31 -7.45,-0.3 -14.92,-0.3 -22.39,0 0.5,-3.25 0.97,-6.52 1.45,-9.77 -4.97,-0.79 -10.02,-0.82 -15.01,-0.34 -0.14,3.45 0.31,6.88 1.45,10.18 -5.88,-0.34 -11.77,-0.34 -17.65,-0.07 7.25,-10.09 10.49,-22.19 15.54,-33.39 1.84,-3.86 2.81,-8.09 2.04,-12.33zm835.68 0.04c12.72,0.07 25.44,0.05 38.16,0.03 -1.05,3.27 -1.98,6.63 -2.96,9.94 -3.58,-0.43 -7.17,-0.84 -10.74,-1.2 1.27,12.27 -2.75,25.57 3.3,36.93 -7.36,-0.32 -14.7,-0.34 -22.04,-0.07 7.73,-10.56 2.59,-24.55 4.07,-36.63 -4.52,0.2 -9.04,0.52 -13.51,0.97 1.27,-3.31 2.47,-6.65 3.72,-9.97zm-39.88 -0.2c7.08,0.29 14.19,0.32 21.28,0.16 -4.79,6.2 -3.23,14.22 -3.43,21.48 0.38,7.98 -1.52,16.58 2.66,23.9 -6.84,0.09 -13.66,0.16 -20.45,0.38 4.25,-7.38 2.87,-15.96 3.07,-24.03 -0.11,-7.4 1.04,-15.28 -3.13,-21.89zm-115.68 -0.05c9.58,0.66 19.24,-0.06 28.84,0.44 5.39,0.11 12.45,3.58 11.66,9.94 1.34,5.7 -3.66,9.27 -7.84,11.81 4.54,8.63 10.61,16.29 17.06,23.6 -6,-0.5 -12.56,1.25 -18.15,-1.36 -6.29,-6.72 -10.56,-15.06 -14.06,-23.49 5.61,-0.72 10.83,-4.4 9.49,-10.76 -3.22,-1.32 -6.65,-2.23 -10.1,-1.52 1.79,12.24 -3.16,25.98 3.97,37.02 -7.43,0.07 -14.81,0.07 -22.21,0.02 5.15,-6.02 3.52,-14.13 3.72,-21.39 -0.22,-8.16 1.16,-16.65 -2.38,-24.31zm-56.08 0.18c11.74,0.23 23.49,0.03 35.23,0.16 -0.07,4.07 -0.12,8.18 -0.09,12.29 -4.98,-4.18 -11.43,-3.36 -17.42,-3.31 -0.12,2.63 -0.19,5.26 -0.25,7.92 4.54,0.05 9.08,0.07 13.67,0.12 0.05,3.52 0.14,7.04 0.27,10.6 -4.5,-1.38 -9.15,-1.7 -13.78,-1.72 -0.03,3.29 0,6.61 0.04,9.94 7.4,0.28 14.83,-0.61 21.92,-2.93 -1.48,4.09 -2.91,8.2 -4.25,12.34 -12.06,0.38 -24.14,-0.18 -36.2,0.41 5.27,-7.04 3.4,-15.95 3.7,-24.06 -0.23,-7.31 1.16,-15.15 -2.84,-21.76zm-100.41 -0.02c7.17,0.21 14.35,0.18 21.53,-0.04 -5.02,7.13 -3.23,15.94 -3.5,24.07 0.14,7.23 -1.04,14.99 2.91,21.53 -6.86,-0.02 -13.7,-0.02 -20.51,0.1 4.29,-7.3 2.54,-15.9 2.86,-23.9 -0.36,-7.36 1.66,-15.49 -3.29,-21.76zm-67.05 0.18c6.04,-0.13 12.08,-0.16 18.15,0.25 5.76,8.02 11.87,15.81 18.07,23.53 -0.38,-7.99 1.73,-16.62 -2.52,-23.91 5.09,0.09 10.22,0.09 15.36,0.04 -1.48,3.25 -2.93,6.66 -2.59,10.34 -0.02,12.08 0.07,24.16 0,36.27 -4.52,-0.34 -10.09,1.25 -13.36,-2.84 -7.58,-7.84 -12.97,-17.51 -20.69,-25.23 0.46,9.1 -2.04,19.19 3.73,27.18 -5.77,-0.27 -11.52,-0.31 -17.27,-0.18 5.64,-5.93 3.55,-14.31 3.91,-21.62 -0.43,-7.97 1.57,-16.63 -2.79,-23.83zm-212.62 0.23c12.9,-0.57 25.85,-0.23 38.77,-0.2 -1,3.29 -1.97,6.61 -2.95,9.92 -3.57,-0.47 -7.11,-0.95 -10.65,-1.36 1.45,12.17 -3.52,26.05 3.72,36.89 -7.38,-0.19 -14.76,-0.19 -22.12,0.18 6.79,-11.06 2.5,-24.67 3.5,-36.89 -4.32,0.32 -8.66,0.73 -12.95,1.27 0.68,-2.45 2.02,-7.36 2.68,-9.81zm-112.52 9.68c0.93,-3.32 1.91,-6.57 2.84,-9.84 12.77,-0.29 25.53,0.03 38.32,-0.2 -0.84,3.29 -1.66,6.61 -2.46,9.95 -3.74,-0.44 -7.47,-0.82 -11.19,-1.19 1.22,12.18 -3.05,25.72 3.72,36.78 -7.43,-0.03 -14.83,-0.03 -22.23,-0.07 0.86,-1.46 2.61,-4.38 3.47,-5.86 0.75,-10.15 0.05,-20.35 0.32,-30.5 -4.29,0.13 -8.56,0.47 -12.79,0.93zm-197.33 -0.05c0.84,-3.29 1.7,-6.54 2.5,-9.81 12.83,-0.23 25.64,-0.02 38.47,-0.14 -0.86,3.3 -1.67,6.64 -2.49,9.97 -3.75,-0.47 -7.52,-0.88 -11.25,-1.27 1.18,12.18 -2.97,25.69 3.71,36.75 -7.36,0.05 -14.72,0.05 -22.08,0 7.13,-10.63 2.16,-24.39 3.63,-36.41 -4.18,0.18 -8.36,0.48 -12.49,0.91zm-127.15 -9.9c6.77,0.04 13.54,0.02 20.31,-0.25 -3.61,5.79 -2.89,12.65 -2.61,19.12 4.74,-5.63 12.51,-10.65 11.95,-18.89 5.9,-0.03 11.83,0 17.73,0.11 -4.99,6.54 -10.69,12.51 -16.21,18.62 5.06,9.73 11.26,18.79 18.89,26.69 -6.97,-0.88 -17.01,2.95 -21.37,-4.5 -4.2,-6.29 -7.43,-13.15 -11.31,-19.6 0.52,8.2 -1.32,16.97 3.25,24.4 -7.2,-0.37 -14.43,-0.37 -21.6,-0.14 4.58,-6.36 3.75,-14.33 3.81,-21.69 -0.2,-8.02 1.05,-16.49 -2.84,-23.87zm-278.5 9.79c1.25,-3.27 2.47,-6.57 3.7,-9.81 12.67,0.02 25.35,0.02 38,0 -0.82,3.2 -1.64,6.45 -2.45,9.72 -3.77,-0.34 -7.54,-0.59 -11.32,-0.87 1.16,12.25 -2.45,25.37 3.37,36.8 -7.43,-0.27 -14.84,-0.25 -22.26,-0.16 1.38,-1.89 2.77,-3.79 4.18,-5.61 0.11,-10.29 0.04,-20.58 0.06,-30.87 -4.42,0.18 -8.85,0.48 -13.28,0.8zm1357.82 -9.95c6.61,0.18 13.2,0.2 19.83,0.04 2.25,4.73 4.16,9.64 6.34,14.4 5.86,-0.38 5.7,-9.88 6.45,-14.51 5.07,0.18 10.15,0.21 15.24,0.16 -4.41,9.93 -11.04,18.67 -15.74,28.44 -1.04,5.99 -0.54,12.4 3.68,17.1 -7.34,-0.11 -14.65,-0.09 -21.96,0.14 2.63,-6 5.22,-13.2 1.84,-19.42 -4.8,-9.04 -9.34,-18.27 -15.68,-26.35zm-141.93 16.38c-2.68,-7.16 3.11,-14.72 10.06,-16.24 6.48,-1.96 13.24,-0.91 19.76,0.27 0.14,3.36 0.34,6.72 0.57,10.13 -5.47,-1.75 -12.13,-6.09 -17.44,-1.82 0.59,6.68 9.11,6.93 13.63,10.15 9.56,3.48 9.92,17.92 1.99,23.33 -8.17,6.02 -18.89,3.88 -28.23,3 -1.2,-4.43 -2.13,-8.95 -2.95,-13.4 6.27,4.58 14.35,8.27 22.23,5.63 0.37,-1.09 1.14,-3.27 1.53,-4.34 -7.61,-4.56 -18.74,-6.86 -21.15,-16.71zm-185 -16.4c6.25,0.13 12.52,0.2 18.81,0.29 3,8.61 5.77,17.35 9.63,25.67 2.23,-8.47 9.04,-16.76 5.84,-25.83 5.15,0.03 10.33,0.03 15.51,0.03 -7.24,16.12 -13.15,32.82 -20.65,48.85l-1.13 0c-3.45,-2.95 -8.18,-4.88 -9.93,-9.33 -6.22,-13.16 -9.95,-27.49 -18.08,-39.68zm-170.3 0.02c6.66,0.2 13.33,0.23 20.03,-0.07 -4.22,9.7 -2.22,20.51 -2.43,30.78 -0.84,8.22 14.43,8.7 14.02,0.45 -0.48,-10.31 2.11,-21.44 -2.82,-31.02 6.79,0.06 13.58,0.04 20.37,-0.23 -3.51,5.95 -2.74,12.88 -2.74,19.49 0.34,8.85 -1.59,18.35 3.31,26.34 -6.06,-1.47 -14.9,2.89 -18.92,-2.81 -8.31,5.65 -23.23,6.11 -27.27,-4.86 -2.87,-12.5 2.08,-26.1 -3.55,-38.07zm-90.58 0.02c11.75,0.25 23.49,0.14 35.25,0.07 0.09,4.04 0.18,8.11 0.34,12.2 -5.31,-3.66 -11.69,-3.27 -17.8,-3.05 0,2 0,5.95 0,7.95 4.52,-0.02 9.06,-0.02 13.6,0 0,3.73 0.02,7.45 0.09,11.2 -4.22,-2.29 -9.04,-2.25 -13.69,-2.23 -0.03,3.25 0,6.52 0,9.79 7.36,0.41 14.76,-0.31 21.62,-3.15 -1.34,4.31 -2.64,8.67 -4.34,12.88 -11.76,-0.12 -23.55,-0.23 -35.32,0.09 5.2,-9.47 2.73,-20.45 3.32,-30.73 0.41,-5.25 -0.73,-10.36 -3.07,-15.02zm-212.09 3.14c7.27,-5.07 17.4,-5.3 25.5,-2.18 0.6,3.18 0.78,6.4 0.57,9.69 -5.27,-2.27 -11.08,-5.31 -16.87,-2.81 -0.84,7.52 9.29,7.79 13.88,11.29 9.74,3.83 8.85,18.51 0.75,23.62 -8.27,5.15 -18.72,3.7 -27.85,2.09 -0.89,-4.45 -1.84,-8.93 -2.82,-13.36 6.29,4.88 17.9,10.86 24.15,3.41 -2.57,-5.34 -9.93,-5.45 -14.2,-9.09 -7.93,-4.24 -10.86,-16.87 -3.11,-22.66zm-501.21 -3.23c6.61,0.32 13.24,0.32 19.85,-0.02 -2.68,5.38 -2.79,11.38 -2.54,17.28 4.75,-0.02 9.52,-0.02 14.29,0 0.06,-5.81 0.36,-11.85 -2.84,-16.96 6.72,-0.05 13.42,-0.09 20.14,-0.23 -3.84,6.65 -2.41,14.4 -2.61,21.69 0.16,8.13 -1.32,16.81 3.27,24.1 -7.36,-0.27 -14.74,-0.3 -22.08,-0.09 4.77,-5.61 4.23,-13.09 4.09,-19.97 -4.74,-0.02 -9.49,-0.02 -14.24,0 -0.07,6.77 -0.91,14.15 3.64,19.85 -7.39,0 -14.77,0 -22.15,0 4.97,-6.22 3.66,-14.35 3.77,-21.71 -0.16,-8.04 1.02,-16.44 -2.59,-23.94zm-90.9 0.02c6.61,0.28 13.25,0.3 19.86,-0.04 -3.57,7.52 -2.34,15.94 -2.48,24.01 0.27,7.31 -1.57,15.51 3.61,21.62 -6.22,-0.89 -14.08,2.34 -19.1,-2.09 -8.4,4.13 -21.6,5.9 -26.78,-3.84 -4.29,-12.79 2.04,-27.23 -4.31,-39.63 6.65,0.09 13.33,0.18 19.98,0.36 -4.2,9.65 -1.9,20.49 -2.22,30.71 -0.39,8.11 14.74,8.15 14.01,-0.23 -0.23,-10.31 1.55,-21.1 -2.57,-30.87zm-146.2 2.91c7.5,-5.13 17.19,-4.29 25.55,-2.13 0.05,3.31 0.09,6.65 0.14,9.99 -5.54,-2.5 -13.2,-6.72 -18.1,-0.73 5.11,6.43 14.24,6.77 19.76,12.61 5.59,7.74 1.02,19.74 -8.11,22.23 -7.41,1.98 -15.85,2.18 -23.15,-0.2 -1.56,-4.18 -2.4,-8.59 -3.36,-12.88 6.36,4.59 20.33,11.77 24.46,1.52 -6.81,-3.77 -15.03,-6.06 -19.91,-12.53 -3.3,-5.52 -3.12,-14.11 2.72,-17.88zm1151.62 -325.13c6.56,0.65 14.69,2.54 17.01,9.69 1.91,6.27 2.22,14.06 -1.86,19.58 -4.41,3.52 -10.18,1.57 -15.18,1.18 0,-10.15 -0.02,-20.3 0.03,-30.45zm-956.54 23.96c3.2,-9.09 3.3,-19.54 8.36,-27.73 2.07,8.58 4,17.19 6.09,25.8 -4.79,0.72 -9.61,1.36 -14.45,1.93zm809.9 -32.05c5.32,0.34 11.56,0.52 15.29,4.97 3.95,5.27 3.95,12.93 1.11,18.7 -3.61,5.4 -10.9,3.52 -16.33,3.29 0.07,-8.99 0.09,-17.99 -0.07,-26.96zm-165.1 -8.5c2.91,-7.92 4.63,-16.44 9.18,-23.66 2.4,7.88 4.93,15.74 7.17,23.69 -5.45,0 -10.9,0 -16.35,-0.03zm311.17 -43.2c5.93,0.26 14.4,-1.18 17.87,5.05 1.3,4.63 1.53,10.17 -1.13,14.4 -4.2,4.56 -11.22,2.97 -16.74,3.4 -0.05,-7.61 -0.05,-15.24 0,-22.85zm-146.41 -4.65c5.95,0.54 13.72,-1.14 17.85,4.36 1.39,4.43 1.46,10.29 -2.36,13.58 -4.72,2.73 -10.4,1.95 -15.6,2.2 -0.05,-6.72 -0.03,-13.42 0.11,-20.14zm-326.5 -1.73c5.82,0.5 12.68,-0.5 17.42,3.73 5.11,11.56 -6.4,22.35 -17.55,22.67 0,-8.82 -0.03,-17.61 0.13,-26.4zm100.67 -875.22l2.77 -0.82c60.66,44.79 133.43,69.85 206.64,85.2 50.29,10.88 101.59,15.6 152.36,23.49 16.15,1.84 30.3,10.35 43.79,18.8 37.04,23.85 64.48,60.51 81.67,100.71 17.15,40.48 26.42,84.63 24.58,128.67 -1.91,1.54 -3.75,3.11 -5.59,4.68 -0.97,-31.57 -8.36,-63.23 -23.32,-91.15 -15.92,-30.14 -41.52,-55.1 -72.14,-70.09 -3.13,-1.68 -6.34,-3.16 -9.54,-4.61 5.18,7.88 10.4,15.76 14.79,24.14 -25.96,-3.63 -51.4,-10.08 -76.61,-17.15 -113,-32.5 -219.39,-89.03 -307.77,-166.8 -11.46,-10.72 -24.23,-20.94 -31.63,-35.07zm292.29 -127.35l9.86 0c20.67,8.36 39.47,20.62 59.73,29.91 41.82,20.51 86.11,35.41 127.85,56.06 27.74,13.6 54.29,31.43 72.5,56.83 22.47,28.14 37.14,61.46 47.63,95.69 19.53,64.16 38.5,128.53 57.4,192.9 0.86,3.59 3.15,6.83 6.74,8.13 8,3.41 16.54,5.56 24.03,10.08 17.15,9.47 30.87,23.74 43.98,38.02 22.73,25.33 43.6,52.38 61.8,81.16 8.61,14.33 18.78,29.53 17.03,47.1 7.91,6.43 14.43,14.4 19.31,23.35 15.33,27.33 27.37,56.65 34.23,87.27 2.18,9.24 8.36,16.99 10.01,26.46l0 16.44c-1.09,0.84 -3.27,2.5 -4.38,3.34 -8.56,28.12 -31.66,50.38 -58.71,60.96 -15.88,6.07 -33.14,10.45 -50.2,7.43 -13.33,-1.57 -24.67,-9.59 -37.88,-11.52 -44.79,-15.67 -91.88,-25.84 -139.46,-26.09 -17.69,0.43 -35.68,1.7 -52.49,7.65 -31.3,10.77 -61.89,24.73 -88.35,44.84 -11.18,8.92 -22.38,18.64 -29.05,31.54 -7.36,-7.38 -5.96,-18.3 -4.41,-27.64 -32.78,12.2 -66.78,20.78 -101.01,27.67 -17.55,18.33 -34.52,37.36 -51.08,56.67 129.94,0.11 259.86,0 389.8,0.04 28.83,-0.25 57.69,0.73 86.47,-1.07 23.6,-1.06 48.54,-2.06 70.48,8.18 9.93,4.68 18.92,11.22 26.57,19.12 -0.06,38.37 0.07,76.73 -0.09,115.09 -0.07,4.16 0.43,8.36 1.77,12.36 7.52,23.07 12.36,47.63 9.34,71.95 -2.27,23.56 -7.54,48.13 -22.85,66.87 -10.13,12.49 -26.67,17.51 -42.22,18.08 -20.85,0.54 -41.98,-3.64 -60.6,-13.13 -9.4,-5.11 -19.92,-7.43 -30.26,-9.74 -40.22,-9.02 -80.08,-19.54 -120.42,-28.01 -55.21,-10.31 -110.22,-21.69 -165.8,-29.84 -100.92,-15.86 -202.85,-24.33 -304.86,-29.05 -9.31,16.3 -18.3,33.2 -31.82,46.53 -14.47,13.95 -30.91,25.58 -47.56,36.71 -19.55,12.74 -39.41,25.44 -61.17,34.09 -17.67,14.06 -33.29,31.37 -53.67,41.63 -21.87,6.57 -45.51,2.23 -66.93,-4.27 -12.4,-4.72 -27.03,-10.06 -33.16,-22.8 -0.64,-9.58 3.22,-18.78 5.27,-28.03 -3.16,-3.52 -6.91,-6.72 -8.97,-11.06 -0.12,-8.47 3.52,-16.4 6.15,-24.3 3.48,-8.5 6.02,-17.63 11.47,-25.12 4.29,-1.64 8.97,-1.61 13.49,-2.11 4.16,-8.7 7.95,-17.61 13.06,-25.78 2.3,-4.14 7.61,-4.16 11.68,-5.05 19.21,-2.47 38.86,-3.27 57.3,-9.69 -107.5,2.79 -214.68,14.44 -320.93,30.73 -90.74,14.9 -180.73,34.2 -269.79,57.01 -5.11,1.36 -10.51,2.43 -14.67,5.95 -14.49,11.08 -30.71,20.37 -48.6,24.59 -29.87,7.57 -59.79,15.02 -89.72,22.45 5.43,-38.16 10.56,-76.41 16.67,-114.46 9.68,-3.97 20.96,-4.86 30.62,-9.63 10.31,-4.47 23.37,-11.47 23.28,-24.39 0.27,-30.34 -0.07,-60.71 0.16,-91.06 0.61,-10.83 -4.39,-20.69 -8.2,-30.5 -9.97,-23.87 -20.67,-47.45 -31.87,-70.75 89.08,-0.86 178.18,-0.11 267.29,-0.36 5.06,16.3 10.33,32.61 16.65,48.51 14.96,-25.44 39.49,-45.49 68.36,-52.74 27.1,-6.99 55.65,-4.79 82.86,0.46 4.52,0.79 9.11,0.97 13.69,0.97 84.63,-0.22 169.26,0.18 253.89,-0.18 -0.68,-7.49 -0.52,-14.99 -0.77,-22.46 -6.59,1.38 -11.45,6.81 -17.24,9.99 -5.63,-36.43 -15.45,-72.77 -34.16,-104.8 -10.93,-19.39 -27.73,-36.88 -49.72,-43.01 -20.78,-5.68 -42.5,-1.23 -63.12,2.99 -53.26,10.25 -109.82,12.04 -161.63,-6.11 -27.59,-10.15 -54.21,-24.32 -75.65,-44.69 -60.26,44.85 -139.28,64 -213.14,49.05 3.97,-7.24 8.18,-14.33 12.04,-21.62 -12.24,3.05 -24.44,6.25 -36.75,9.02 -29.35,-12.95 -56.58,-30.71 -79.86,-52.79 -28.71,-27.27 -53.9,-58.62 -72.2,-93.85l0 -7.54c9.94,-0.5 19.64,2.05 29.5,2.89 54.4,6.02 110.73,3.72 162.71,-14.61 42.25,-14.31 80.16,-40.4 109,-74.38 1.41,-38.18 9.75,-76.04 25.19,-111.02 33.25,-76.82 94.78,-140.71 169.71,-177.84 54.47,-26.72 115.52,-40 176.19,-38.41 53.81,1.04 108.77,14.56 152.86,46.47 1.63,-8.22 4.45,-16.15 8.65,-23.42 32.16,69.48 84.54,127.15 140.39,178.48 27.16,-19.99 62.28,-29.12 95.71,-24.17 10.59,1.82 21.65,4.77 30.07,11.77 4.95,9.04 6.45,19.44 9.25,29.28 4.27,2.18 10.08,3.15 11.97,8.2 4.56,9.9 7.27,20.55 10.1,31.04 5.05,3.16 10.68,5.61 15,9.77 2.83,8.11 2.97,16.83 4.36,25.23 3.93,2.5 9.56,3.96 11.04,8.98 2.52,7.33 3.72,15.03 5.13,22.66 20.69,8.86 43.79,13.99 66.27,10.77 26.42,-14.56 53.74,-27.46 81.27,-39.82 2.48,-10.97 6.43,-21.76 7.43,-33 -4.34,-21.96 -14.99,-43.79 -32.19,-58.48 -33.27,-8.11 -66.66,-15.95 -99.3,-26.42 -93.62,-28.8 -183.34,-72.86 -258.93,-135.69 -65.25,-54.1 -121.69,-119.74 -160.92,-195.12 -5.45,-12.04 -14.4,-24.4 -11.62,-38.27 0.99,-6 7.54,-8.82 12.85,-6.18 67.5,28.73 134.96,57.89 204.78,80.61 61.6,21.21 126.06,32.09 190.18,42.42 -8.43,-32.29 -7.57,-66.09 -4.02,-99.02 1.61,-10.45 2.95,-22.72 12.33,-29.35zm20.03 38.54l0 0c-0.61,3.71 -2,7.45 -1.25,11.22 10.61,10.59 23.44,18.56 36.05,26.56 52.35,32.43 108.7,60.16 153.4,103.34 18.31,16.83 30.62,38.72 41.27,60.87 20.69,43.02 38.23,87.44 55.31,132.01 6.86,18.74 15.31,37.09 26.89,53.44 2.59,3.11 4.93,7.66 9.67,7.5 -8.6,-44.02 -19.57,-87.58 -32.22,-130.6 -12.36,-39.39 -22.99,-80.11 -45.16,-115.41 -18.26,-29.57 -44.7,-53.51 -74.56,-70.98 -40.05,-23.69 -84.41,-38.47 -126.31,-58.32 -14.49,-6.29 -28.23,-14.24 -43.09,-19.63zm-383.55 22.63l0 0c21.51,37.59 47.15,72.86 77.06,104.2 23.44,25.28 50.31,47.06 77.73,67.85 32.32,24.55 66.68,46.51 103.02,64.64 78.14,39.81 163.29,63.09 248.12,83.56 24.33,28.75 37.88,66.91 36.32,104.68 -0.87,30.91 -12.61,60.71 -29.87,86.08 -2.95,4.09 -5.31,9.02 -10.06,11.32 3.72,-13.65 7.86,-27.33 8.79,-41.55 -15.81,2.57 -30.98,7.95 -46.15,12.95 -46,16.1 -91.42,33.91 -136.42,52.6 -0.04,-0.88 -0.14,-2.65 -0.18,-3.54 15.58,-12.15 32.82,-22.17 48.13,-34.68 -19.03,-0.84 -37.86,-5.57 -54.92,-14.09 -3.7,9.61 -13.02,14.93 -20.62,21.11 -18.43,13.85 -37.32,27.89 -51.04,46.67 -13.63,18.63 -24.96,39.16 -31.94,61.19l-0.11 -0.09c-1.59,6.61 -7.88,9.43 -14.22,8.13 1.71,5.13 3,10.4 4.11,15.72 18.79,2.02 37.23,6.33 55.95,8.74 1.43,0.39 4.31,1.16 5.74,1.55 -1.27,2.63 -2.66,6.02 -6.22,5.54 -22.19,2.06 -44.5,3.79 -66.3,8.49 -5.63,1.14 -8.06,7.07 -10.7,11.52 -7.74,15.44 -12.47,32.25 -16.49,48.99 -10.47,50.72 -22.08,101.16 -33.79,151.59 18.01,-0.12 36.04,0 54.05,-0.07 11.63,-0.43 23.6,0.97 35.03,-0.64 17.37,-28.62 31.75,-58.92 49.4,-87.37 23.89,-39.46 50.58,-77.3 80.81,-112.16 15.08,-16.85 30.18,-34.09 48.26,-47.79 -3.52,7.61 -2.93,17.26 -9.17,23.42 -20.44,22.64 -36.93,48.94 -47.63,77.56 -3.7,10.29 -6.86,20.78 -9.61,31.39 -1.59,6.11 -3.11,12.22 -4.41,18.4 27.42,8.11 56.54,9.36 84.75,5.06 45.63,-6.83 88.94,-24.82 129.03,-47.19 -7.11,-1.14 -14.11,-2.68 -21.01,-4.57 -8.38,-2.66 -16.35,-6.31 -23.94,-10.7 -13.6,-8.9 -24.92,-21.12 -32.84,-35.31 -5.25,-0.44 -4.66,7.85 -7.04,11.12 -9.86,-17.37 -15.74,-37.13 -17.31,-57.03 -1.57,-19.46 4.22,-38.95 14.79,-55.21 8.4,-10.72 17.71,-20.9 28.82,-28.87 -1.05,4.09 -2.34,8.09 -3.52,12.13 -18.65,23.05 -20.31,55.42 -12.09,82.95 2.78,-2.55 5.5,-5.14 8.2,-7.75 0.34,5.75 2,11.29 4.3,16.56 4.24,7.33 9.35,14.22 15.6,20.01 13.17,12.2 31.32,16.85 48.63,19.46 31.71,4.32 63.78,1.77 95.48,-1.2 21.94,-1.91 44,-5.77 66.05,-3.07 12.04,1.07 23.67,4.55 35,8.59 0.46,-4.54 1.05,-9.09 1.87,-13.58 1.52,-3.89 2.99,-7.77 4.4,-11.7 0.39,-0.73 1.16,-2.2 1.55,-2.93 -44.68,-7.75 -89.11,-16.95 -133.78,-24.8 -0.41,-3.71 3.52,-5.27 6.63,-4.52 45.34,5.61 90.58,11.9 135.96,16.99 3.02,-3.87 6.11,-7.68 9.31,-11.41 -18.78,-5.81 -37.66,-11.19 -56.42,-17.03l-0.41 0.2c-20.32,-6.63 -40.88,-12.47 -61.37,-18.46 0.94,-2.73 3.82,-5.04 6.86,-3.73 25.35,5.45 50.52,11.75 75.91,17.13 15.74,3.77 31.5,7.54 47.33,10.86 12.38,-5.25 24.94,-11.36 38.73,-11.61 -7.56,5.45 -16.76,8.43 -23.6,15.01 5.36,1.18 10.61,3.32 16.15,3.59 5.7,6.04 -3.75,14.79 -10.29,14.56 -5.86,-2.95 -12.24,-4.43 -18.51,-6.11 -2.11,3.04 -4.18,6.13 -6.13,9.29 6.99,1.25 14.08,2.11 21.19,2.61 1.61,1.25 3.22,2.52 4.86,3.82 -3.16,5.18 -6.97,10.97 -13.47,11.95 -6.79,-2.12 -14.7,-4.89 -21.49,-3.48 -13.74,24.73 5.3,58.15 32.85,61.19 25.93,2.41 53.6,-2.25 75.65,-16.74 3.09,-2.18 6.16,-4.41 9.18,-6.72 3.88,-4.66 9.67,-8.36 11.36,-14.43 0.5,-25.03 -10.63,-48.76 -25.69,-68.2 0.07,-1.12 0.25,-3.32 0.34,-4.43 17.1,10.99 28.8,28.02 41.93,43.11 3.29,0.22 6.22,-1.55 9.17,-2.77 -2.75,-30.03 -11.88,-61.37 -33.41,-83.45 -3.97,-4.88 -11.29,-6.57 -13.99,-12.36 4.18,-0.5 8.36,-0.97 12.58,-1.43 -5.97,-10.97 -16.1,-20.12 -28.55,-22.73 -3.29,-1.16 -7.54,-0.41 -9.81,-3.57 6.34,-3.2 13.4,-4.32 20.47,-4.48 -1.32,-11.53 -8.57,-21.03 -14.95,-30.29 -16.26,-22.1 -34.68,-42.52 -53.56,-62.42 -18.49,-20.37 -41.29,-37.2 -67.11,-46.97 -33.73,-12.97 -71.44,-14.17 -106.19,-4.56 3.77,-4.5 7.88,-8.68 12.18,-12.66 5.49,-5.08 11.15,-9.99 17.12,-14.49 -28.86,-59.94 -56.89,-121.24 -98.57,-173.66 -27.05,-34.46 -59.24,-67.23 -100.8,-83.45 -16.76,-6.86 -34.84,-8.95 -52.63,-11.63 -54.89,-8.67 -109.52,-19.05 -163.8,-30.98 -81.63,-17.69 -160.92,-44.88 -237.9,-77.02 -1.04,-0.25 -3.16,-0.77 -4.2,-1.04 -0.64,-0.34 -1.89,-1.02 -2.52,-1.36zm-248.19 191.67l0 0c-39.49,10.92 -78.13,26.8 -111.36,51.1 -31.66,22.67 -57.12,52.79 -78.93,84.77 -20.78,29.39 -35.95,62.64 -44.94,97.46 -7.16,29.39 -11.97,59.42 -13.16,89.67 -0.72,1.09 -2.2,3.29 -2.95,4.38 -1.32,-2.74 -2.59,-5.49 -3.86,-8.26 -6.2,4.97 -11.72,10.76 -17.83,15.87 -30,25.58 -65.93,44.2 -104.18,53.74 -44.09,11.4 -90.58,11.47 -135.17,3.05l1.25 -0.32c-2.86,-0.39 -5.72,-0.73 -8.58,-1.02 5.15,7.83 10.85,15.49 17.53,22.1 22.89,28.89 51.67,53.33 84.22,70.75 2.73,1.68 5.86,2.5 9.08,2.02 26.69,-1.96 52.77,-8.29 79.07,-12.83 -2.32,4.79 -4.93,9.44 -7.75,13.99 -3.84,7.63 -8.99,14.58 -12.01,22.6 21.3,1.99 42.77,-1.39 63.32,-6.89 31.96,-8.94 63.12,-25.82 83.4,-52.69 -3.47,-4.59 -6.72,-9.33 -9.94,-14.1 -5.32,-8.36 -9.95,-17.11 -14.4,-25.94 -5.75,-12.68 -10.95,-25.65 -14.4,-39.16 0.24,-1.07 0.72,-3.2 0.97,-4.27 9.02,13.42 14.56,29.19 25.31,41.5 7.04,11.1 15.64,21.71 25.91,29.91 4.18,6.74 10.72,11.42 16.67,16.47 25.73,20.82 56.58,35.22 89.06,41.65 51.9,10.74 106.93,1.96 154.26,-21.33 37.91,-18.28 69.69,-49.42 87.31,-87.78 10.61,-23.44 17.9,-48.88 18.79,-74.66 2.79,-14.74 2.18,-30.18 1.11,-45.15 -0.59,-12.34 -1.52,-25.03 -5.66,-36.75 0.73,-3.48 1.16,-6.97 1.82,-10.45 7.36,10.22 8.02,24.03 12.81,35.61 6.2,34.76 9.86,70.46 4.29,105.6 -5.63,40.38 -23.53,78.99 -51.49,108.79 12.93,8.38 24.42,18.85 34.14,30.8 23.44,28.46 40.75,61.44 54.69,95.44 11.93,26.46 21.67,53.88 33.1,80.52 -1.34,4.9 -2.61,9.81 -4.16,14.67 5.66,1.3 11.29,2.75 16.85,4.5 6.55,2.43 12.84,5.52 18.86,9.11 33.95,-84.07 77.38,-163.79 118.47,-244.46 6.24,-11.16 11.53,-22.83 17.8,-33.96 -5.83,-11.24 -13.49,-21.78 -16.6,-34.21 9.47,3.3 19.1,6.71 29.28,6.75 7.04,-21.42 17.83,-41.66 32.09,-59.14 15.65,-18.65 35.16,-33.48 54.99,-47.38 3.45,-2.34 6.63,-5.07 9.52,-8.11 -1.96,-13.49 -1.87,-27.33 -5.55,-40.52 -1.72,-5.97 -8.85,-7.04 -13.9,-8.91 -31.18,-7.97 -66.07,-8.01 -95.19,7.02 -30.59,16.54 -48.1,50.65 -50.44,84.56 -3.09,26.62 2.82,52.97 6.74,79.11 -3.92,-4.18 -6.76,-9.17 -10.31,-13.65l0.3 -1.07c-4.57,-6.04 -7.32,-13.31 -12.2,-19.12 -13.13,43.04 -24.19,86.67 -36.73,129.9 -11.47,41.47 -25.82,82.03 -40.74,122.37 -0.73,0.07 -2.16,0.21 -2.89,0.28 -6.56,-13.5 -9.31,-28.49 -11.92,-43.16 -6.11,-40.56 -5.86,-81.79 -3.91,-122.67 3.77,-66.53 11.31,-133.05 25.96,-198.13 5.41,-16.42 0.73,-33.86 -5.86,-49.19 -15.67,-35.73 -42.99,-65.55 -75.34,-86.99 -25.48,-17.68 -54.85,-30.62 -86.01,-33.26 -63.6,-5.45 -127.74,11.18 -183.73,41 -26.36,14.38 -51.83,30.89 -73.86,51.4 -1.36,-0.16 -4.11,-0.43 -5.47,-0.57 41.54,-55.46 102.27,-96.57 169.8,-112.7 55.33,-13.56 115.43,-11.7 168.12,11.04 53.99,22.96 97.8,67.46 121.99,120.72 6.75,15.78 12.84,32.66 11.75,50.1 -1.59,12.02 -6.21,23.33 -8.86,35.12 -18.81,66 -26.28,134.73 -27.37,203.19 -0.12,9.76 0.79,19.51 1.54,29.25 4.95,-11.51 6.93,-24.07 10.25,-36.13 13.19,-53.9 24.07,-108.37 37.63,-162.2 10.47,-43.95 24.3,-86.99 38.27,-129.89 2.12,-4.34 4.36,-8.61 6.75,-12.84 -39.91,-38.29 -78.22,-78.17 -115.93,-118.65 -28.89,-29.39 -66.3,-49.51 -105.77,-60.66 -53.95,-15.24 -111.91,-13.77 -165.72,1.29zm456.6 148.93l0 0c-17.15,5.77 -34.11,15.76 -43.45,31.75 32,-19.85 72.09,-26.82 108.84,-18.49 -0.36,-5.31 -0.52,-12.94 -6.86,-14.62 -18.87,-6.55 -39.74,-4.41 -58.53,1.36zm-16.83 35.45l0 0c-22.51,8.7 -38.84,29.69 -44.47,52.83 13.29,-10.15 29.19,-15.83 44.61,-21.64 32.75,-7.02 68.82,-7.41 98.84,9.29 3.98,-2.52 7.41,-5.75 10.48,-9.31 -0.84,-2.98 -1.66,-5.98 -2.46,-8.95l-0.5 -0.14c-2.22,-7.15 -4.24,-14.51 -7.92,-21.08 -4.43,-4.52 -11.04,-5.88 -16.88,-7.65 -27.03,-6.63 -55.9,-3.23 -81.7,6.65zm715.46 349.87l0 0c-3.16,3.75 -6.34,7.45 -9.27,11.34 -0.68,0.29 -2.02,0.86 -2.68,1.16 -16.12,13.85 -36.97,20.85 -57.78,23.73 5.16,1.71 10.61,2.73 16.08,2.2 17.17,-1.29 34.55,-6.01 48.56,-16.33 4.52,-3.45 8.93,-7.1 12.25,-11.78l0.54 -0.05c2.89,-4.25 5.63,-8.56 8.11,-13.06 -5.34,0.66 -10.61,1.61 -15.81,2.79zm-796.38 176.92l0 0c2.74,8.79 8.97,17.71 5.06,27.23 -10.7,28.28 -22.26,56.24 -33.23,84.4 -4.16,10.2 -8.33,21.4 -17.26,28.37 -19.53,-16.76 -33.41,-39.14 -45.63,-61.58 2.57,-3.54 7.22,-4.9 10.31,-7.99 15.17,-13.33 17.58,-40.09 2.84,-54.63 -10.06,-9.79 -24.39,-13.65 -38.04,-14.69 -20.38,-1.3 -40.77,0.48 -61.15,0.18 -11.47,0.11 -22.96,-0.34 -34.43,0.36 4.41,9.77 13.51,17.67 13.81,29.01 0.7,32.66 -0.43,65.34 -0.5,98 -0.21,10.07 -8.59,16.86 -14.11,24.38 -26.36,-21.33 -43.58,-51.25 -58.16,-81.34 18.92,-23.46 38.38,-46.47 57.48,-69.8 -23.6,-0.11 -47.22,0.21 -70.79,1.14 1.22,7.49 0.52,15.4 -3.84,21.83 -7.7,12.1 -16.76,23.32 -25.67,34.57 -0.04,-10.34 -0.36,-20.67 0.09,-30.98 0.23,-9.79 7.52,-17.02 12.38,-24.85 -27.68,0.2 -55.39,0.95 -83.08,0.97 3.29,8.73 10.15,15.81 12.01,25.1 2.39,11.61 0.16,23.44 0.57,35.16 0.39,24.94 -0.61,49.86 -0.68,74.8 -0.11,14.89 -11.33,25.68 -18.47,37.68 30.62,-3.64 61.31,-6.64 91.97,-9.88 -5.63,-8.88 -14.65,-16.52 -15.2,-27.74 -0.54,-11.29 -0.36,-22.62 0.07,-33.91 7.09,11.59 10.88,24.9 18.42,36.28 6.86,11.26 17.6,23.03 31.89,22.59 47.43,-3.61 94.94,-6.72 142.53,-7.63 -5.96,-7.81 -14.27,-13.97 -18.47,-22.96 -2,-11.06 -0.5,-22.46 -0.93,-33.66 9.49,14.76 17.42,30.64 28.59,44.29 5,6.34 12.41,11.47 20.81,11.06 37.79,-0.14 75.61,-1.32 113.4,-0.09 -5.47,-9.52 -16.1,-20.53 -9.1,-31.96 10.6,-0.97 21.3,-0.2 31.93,0.41 4.38,12.06 -5.06,21.94 -11.11,31.32 53.7,1.68 107.35,4.14 160.9,8.32 15.56,1.56 31.87,-0.71 45.68,-8.32 12.95,-7.08 21.99,-21.14 21.58,-36.11 0.97,-16.45 -9.41,-31.84 -23.49,-39.63 18.49,-9.98 24.71,-35.23 15.26,-53.45 -5.67,-11.47 -17.35,-18.96 -29.48,-22.05 -13.37,-2.68 -27.09,-1.34 -40.61,-2.32 -23.03,0.3 -46.06,-1.04 -69.09,-0.57 3.88,7.61 9.27,14.49 11.99,22.65 3.25,12.58 1.41,25.71 1.89,38.54 -0.57,22.12 1.2,44.2 0.36,66.3 0.05,6.34 -3.63,11.7 -7.02,16.74 -8.61,-6.63 -13.24,-16.88 -16.69,-26.85 -14.06,-39.31 -28.66,-78.42 -42.61,-117.79 -20.99,-0.86 -42.04,0.84 -62.98,-0.9zm-478.34 9.17l0 0c-25.67,10.22 -44.59,33.84 -51.81,60.19 -7.67,27.28 -6.63,57.83 6.27,83.38 9.25,18.31 27.05,31.64 47.04,35.91 25.76,5.59 52.42,-1.36 76.45,-10.74 6.77,-18.24 14.83,-36 21.35,-54.33 -17.96,9.67 -36.32,20.48 -57.03,22.48 -14.74,1.59 -29.21,-7.33 -35.48,-20.53 -8.97,-17.99 -8.22,-39.7 -1.91,-58.42 4.48,-12.85 13.97,-26.12 28.49,-27.82 17.87,-2.34 33.25,8.97 47.49,18.03 0.09,-16.58 0.02,-33.16 0.04,-49.74 -26.52,-5.18 -55.19,-9.27 -80.9,1.59zm740.37 -5.59l0 0c5.18,11.09 13.45,21.45 13.25,34.32 0.36,34.01 1.02,68.03 0.77,102.03 -0.39,12.06 -12.06,18.49 -17.15,28.25 28.82,2.44 57.53,5.96 86.24,9.41 17.35,1.97 36.39,-1.12 49.9,-12.9 12.15,-10.45 16.36,-27.92 13.27,-43.25 -2.75,-13.6 -11.95,-25.32 -23.6,-32.57 5.43,-4.38 11.54,-8.49 14.83,-14.88 8.95,-16.58 7.22,-39.06 -5.93,-52.98 -9.81,-11.16 -24.98,-15.24 -39.36,-15.31 -30.73,-0.91 -61.48,-1.73 -92.22,-2.12zm145.41 4.07l0 0c6.23,10.24 15.99,19.37 16.47,32.12 0.68,39.43 1.14,78.88 0.82,118.33 -0.21,10.74 -6.45,19.99 -12.43,28.44 2.21,1.59 4.86,2.09 7.54,2.43 25.65,3.65 51.15,8.15 76.71,12.47 -5.98,-13.27 -14.83,-25.99 -14.27,-41.18 0.12,-38.64 -1.13,-77.27 -0.61,-115.91 0.23,-13.94 9.77,-24.75 16.4,-36.2 -30.19,-0.5 -60.42,-0.91 -90.63,-0.5zm98.1 3.48l0 0c-3.5,20.55 -7.49,41.01 -10.7,61.62 17.22,-8.32 36.21,-12.7 55.4,-11.22 0.05,34.38 0.02,68.79 0.02,103.18 -0.25,6.5 -0.07,13.2 -2,19.49 -3.63,7.72 -10.29,13.42 -14.76,20.6 6.88,2.07 13.72,4.34 20.83,5.59 23.28,4.38 46.42,9.54 69.66,14.3 -6.95,-14.83 -17.19,-29.02 -16.88,-46.17 0.21,-38.29 -1,-76.57 -0.63,-114.88 17.03,1.32 33.91,5.63 48.65,14.49 3.7,-22.58 7.97,-45.06 11.65,-67.66 -24.67,-1.25 -49.4,-0.34 -74.09,-0.73 -26.46,-1.36 -52.99,0.41 -79.45,-1.11 -2.5,0.41 -7.43,-1.43 -7.7,2.5zm-1149.39 1.45l0 0c3.16,11.38 6.63,23.42 2.41,35.09 -14.13,44.68 -24.49,90.42 -37.25,135.48 -4.61,17.7 -15.08,32.8 -23.85,48.56 25.28,-4.9 50.29,-11.19 75.64,-15.8 -3.14,-7.75 -8.32,-15.02 -8.43,-23.65 0.02,-6.43 1.59,-12.7 3.16,-18.87 8.63,-1.28 17.19,-2.84 25.8,-4.18 3.45,-2.07 5.95,1.18 5.7,4.27 2.86,14.17 -6.04,26.5 -10.99,39.04 31.39,-5.63 62.68,-11.81 94.19,-16.81 -5.64,-7.83 -13.04,-14.4 -17.45,-23.1 -3.34,-6.7 -5.29,-13.96 -7.4,-21.12 -13.49,-46.47 -28.05,-92.69 -39.45,-139.75 -20.7,-0.55 -41.41,0.32 -62.08,0.84zm-133.03 3.38l0 0c5.2,10.47 13.65,19.35 16.51,30.94 1.8,5.77 1.84,11.88 1.84,17.87 -0.18,39.43 0.14,78.84 -0.13,118.27 0.22,16.31 -8.97,32.39 -23.19,40.38 -9.11,5.95 -20.49,6.82 -30.05,10.97 -2.82,13.72 -4.77,27.65 -7.34,41.43 24.67,-6.45 50.27,-11.4 72.62,-24.28 17.17,-9.13 32.41,-23.23 39.63,-41.61 6.84,-16.42 5.56,-34.59 5.77,-51.99 0.23,-26.44 -0.55,-52.92 0.57,-79.33 0.09,-12.18 -0.71,-24.49 2.09,-36.44 2.02,-9.85 8.29,-17.96 12.94,-26.66 -30.43,-0.27 -60.82,1.09 -91.26,0.45zm1478.87 3.36l0 0c-21.54,7.18 -36.69,28.06 -39,50.36 -1.34,15.06 -0.93,31.43 7.52,44.61 13.62,21.44 33.29,37.95 51.39,55.46 7.18,6.72 9.36,17.31 8.05,26.76 -1.8,7.58 -11.2,8.02 -17.11,5.4 -24.01,-9.2 -40.79,-29.66 -57.14,-48.44 2.43,22.85 5.47,45.61 8.47,68.39 0.43,2.77 0.59,5.74 1.91,8.33 14.08,7.93 29.02,14.7 44.76,18.63 15.04,3.86 32.03,1.68 44.52,-7.95 15.79,-11.86 22.96,-31.96 24.48,-51.04 2.48,-24.89 -5.9,-50.42 -22.37,-69.21 -9.97,-12.72 -23.23,-22.21 -34.43,-33.72 -5.5,-5.91 -11.24,-15.18 -6.43,-23.06 5.16,-3.27 11.65,-0.41 17.04,1.09 14.71,5.02 24.14,17.95 33.5,29.55 0.13,-21.98 -0.18,-43.99 0.18,-65.98 -19.6,-10.88 -43.59,-17.49 -65.34,-9.18zm-867.57 194.72l0 0c-3.7,0.82 -8.77,-0.54 -11.27,2.98l-0.07 -0.03c-3.7,7.43 -8.42,14.56 -10.08,22.81 3.95,12.29 15.35,20.35 25.76,27.05 20.44,12.27 48.15,17.47 69.11,3.59 22.69,-15.24 38.5,-39.43 47.84,-64.76 1.29,-2.13 2.63,-4.22 4.04,-6.24l0.77 -0.89c0.3,10.2 0.3,20.4 0.57,30.62 15.72,-15.67 31.27,-31.71 45.33,-48.9 -10.1,-0.18 -20.21,-0.98 -30.32,-0.64 -5.88,0.41 -12.4,-1.43 -17.8,1.46 -7.91,-1.59 -16.02,-1.07 -24.01,-0.71 -28.55,21.74 -64.48,31.32 -99.87,33.66zm-44.63 43.13l0 0c-2.07,5.32 -6.39,12 -1.62,17.08 15.61,18.54 39.25,28.96 62.87,32.42 6.89,0.79 14.06,2.22 20.85,0.13 7.5,-3.18 13.75,-8.65 19.58,-14.19 -7.79,0.36 -15.6,0.34 -23.37,-0.23 -26.94,-4.2 -53.33,-18.13 -68.61,-41.22 -3.41,-5.11 -10.82,1.18 -9.7,6.01zm2.11 50.81l0 0c12.95,11.52 30.37,16.67 47.22,19.04 8.11,1.29 15.85,-2.25 22.26,-6.89 -23.96,1.41 -46.04,-9.9 -66.44,-21.12 -1.02,2.98 -2.04,5.97 -3.04,8.97zm743.37 -767.26c17.33,-4.2 36.23,-2.84 52.54,4.61 13.6,5.9 24.16,16.67 33.7,27.75 17.74,20.01 34.23,41.25 53.76,59.6 15.86,15.31 37.96,21.19 59.01,25.03 -7.61,6.75 -16.62,11.54 -26.05,15.2 4.13,1.52 8.97,2.25 12.04,5.77 10.36,10.94 18.87,23.44 27.8,35.52 -0.8,0.18 -2.39,0.52 -3.18,0.68 -16.49,-13.74 -31.32,-31.91 -53.19,-36.93 -10.02,-1.93 -21.13,-4.02 -30.67,0.77 -15.44,7.72 -33.23,8.54 -50.08,6.77 -19.71,-2.34 -39.34,-9.43 -54.51,-22.51 -16.17,-13.99 -26.01,-35.52 -24.37,-57.03 0.84,-23.3 18.62,-47.27 43.02,-48.83 -7.77,-12.04 -23.53,-12.54 -36.34,-13.04 -0.87,-0.84 -2.61,-2.52 -3.48,-3.36zm31.23 78.95l0 0c0.27,22.62 18.36,42.7 39.84,47.92 18.47,6.29 40.93,5.16 56.4,-7.77 -1.48,-5.76 -2.82,-11.56 -5.09,-17.05 -0.5,0.06 -1.52,0.18 -2.02,0.22 -3.95,6.75 -9.45,13.22 -17.24,15.45 -16.29,5.72 -36.02,-3.14 -42.56,-19.1 -3.03,-6.07 -2.37,-12.99 -2.53,-19.54 4.68,5.25 13.59,6.66 17.45,-0.34 4.88,-6.02 -0.03,-12.85 -4.77,-16.96 5.36,-2.37 11.08,-3.75 16.96,-4.14 -6.56,-5.49 -13.58,-10.4 -21.05,-14.56 -3.7,-2.22 -7.52,-4.27 -11.36,-6.17 -14.76,8.38 -24.48,25 -24.03,42.04zm-1321.85 807.53c14.54,-5.58 35.59,2 36.34,19.42 2.05,18.36 -18.51,31.91 -35.13,26.03 -13.29,-2.77 -21.17,-18.26 -16.17,-30.75 2.34,-6.88 8.04,-12.49 14.96,-14.7zm4.11 6.52l0 0c-12.08,7.66 -4.54,34.23 11.02,30.55 6.97,-2.93 6.56,-11.83 5.81,-18.08 -0.9,-7.56 -8.65,-16.47 -16.83,-12.47zm468.32 -6.29c10.29,-3.38 22.97,-2.47 31.07,5.36 9.57,9.74 7.52,27.53 -3.4,35.48 -12.45,9.42 -34.05,6.93 -41.05,-8.06 -5.83,-12.2 0.66,-28.21 13.38,-32.78zm6 5.82l0 0c-11.72,5.92 -7.59,25 2.47,30.73 7.18,3.43 14.45,-3.48 13.84,-10.75 1.16,-9.24 -5.07,-23.07 -16.31,-19.98zm309.58 -6.3c5.27,0.14 10.54,0.21 15.81,0.37 6.4,15.01 9.49,31.75 18.96,45.26 -7.77,-0.04 -15.54,-0.06 -23.28,0.19 1.11,-3.41 1.59,-6.86 1.45,-10.36 -4.7,-0.05 -9.4,-0.05 -14.08,-0.05 -0.82,3.5 -0.48,6.95 1,10.32 -5.81,-0.07 -11.6,-0.12 -17.4,-0.23 6.27,-8.43 9.25,-18.6 13.29,-28.14 2.2,-5.57 5.25,-11.18 4.25,-17.36zm2.25 26.03l0 0c2.47,0.03 4.95,0.03 7.45,0.07 -1.21,-3.45 -2.18,-6.97 -3.03,-10.49 -1.45,3.47 -2.95,6.92 -4.42,10.42zm-515.88 -26.09c12.74,2.22 28.05,-3.98 38.88,4.9 9.02,11.63 7.75,34.05 -7.68,39.77 -10.74,2.18 -21.85,0.5 -32.75,1.05 2.55,-3.73 4.34,-7.98 3.91,-12.56 -0.5,-11.07 1.57,-22.53 -2.36,-33.16zm17.12 7.9l0 0c-0.04,9.79 0.02,19.56 -0.07,29.34 13.4,2.07 13.43,-14.76 11.04,-23.57 -1.11,-5.23 -6.65,-5.57 -10.97,-5.77zm56.15 -7.72c5.13,0.09 10.26,0.07 15.4,-0.07 6.95,14.99 10.04,31.75 19.19,45.68 -7.7,-0.14 -15.42,-0.16 -23.12,0.02 1.32,-3.39 1.75,-6.84 1.34,-10.36 -4.68,0 -9.36,0.05 -14.04,0.11 -0.34,3.43 -0.07,6.84 0.82,10.23 -5.86,-0.07 -11.72,-0.14 -17.58,-0.23 6.9,-7.82 9.43,-18.13 13.51,-27.46 2.12,-5.79 5.82,-11.47 4.48,-17.92zm2.5 26.25l0 0c1.81,-0.09 5.49,-0.25 7.31,-0.31 -1,-3.09 -2.02,-6.18 -3.04,-9.2 -1.78,3 -3.16,6.2 -4.27,9.51zm244.91 -9.63l0 0c-1.16,3.14 -2.25,6.36 -3.32,9.57 1.82,0 5.48,0 7.29,0 -1.06,-3.32 -2.29,-6.55 -3.97,-9.57z"/>
   <path class="fil2" d="M1311.46 118.54c14.86,5.39 28.6,13.34 43.09,19.63 41.9,19.85 86.26,34.63 126.31,58.32 29.86,17.47 56.3,41.41 74.56,70.98 22.17,35.3 32.8,76.02 45.16,115.41 12.65,43.02 23.62,86.58 32.22,130.6 -4.74,0.16 -7.08,-4.39 -9.67,-7.5 -11.58,-16.35 -20.03,-34.7 -26.89,-53.44 -17.08,-44.57 -34.62,-88.99 -55.31,-132.01 -10.65,-22.15 -22.96,-44.04 -41.27,-60.87 -44.7,-43.18 -101.05,-70.91 -153.4,-103.34 -12.61,-8 -25.44,-15.97 -36.05,-26.56 -0.75,-3.77 0.64,-7.51 1.25,-11.22zm-314.59 1106.56c5.4,-2.89 11.92,-1.05 17.8,-1.46 -4.9,6.54 -10.22,12.77 -15.58,18.92l-0.77 0.89c-0.18,-6.16 -0.71,-12.27 -1.45,-18.35zm252.61 -589.91c17.06,8.52 35.89,13.25 54.92,14.09 -15.31,12.51 -32.55,22.53 -48.13,34.68 0.04,0.89 0.14,2.66 0.18,3.54 0.05,0.73 0.14,2.16 0.18,2.87 42.61,-12.22 86.99,-20.13 131.47,-17.02 -3.25,19.56 -8.43,40.7 -1.09,59.9 -10.57,16.26 -16.36,35.75 -14.79,55.21 1.57,19.9 7.45,39.66 17.31,57.03 2.38,-3.27 1.79,-11.56 7.04,-11.12 7.92,14.19 19.24,26.41 32.84,35.31 -19.51,7.93 -39.72,14.31 -60.46,17.99 -31.69,4.95 -64.21,-0.27 -94.35,-10.38 10.7,-28.62 27.19,-54.92 47.63,-77.56 6.24,-6.16 5.65,-15.81 9.17,-23.42 2.37,-6.56 4.91,-13.06 7.18,-19.67 -25.05,14.49 -48.04,32.32 -71.3,49.49 -34.86,26.78 -69.02,56.38 -91.48,94.74 -15.13,26.57 -26.87,54.83 -39.98,82.38 -5.9,13.69 -12.49,27.12 -17.92,41.02 -18.01,0.07 -36.04,-0.05 -54.05,0.07 11.71,-50.43 23.32,-100.87 33.79,-151.59 4.02,-16.74 8.75,-33.55 16.49,-48.99 2.64,-4.45 5.07,-10.38 10.7,-11.52 21.8,-4.7 44.11,-6.43 66.3,-8.49 3.56,0.48 4.95,-2.91 6.22,-5.54 -1.43,-0.39 -4.31,-1.16 -5.74,-1.55 -13.86,-12.67 -31.69,-19.96 -45.73,-32.5 6.98,-22.03 18.31,-42.56 31.94,-61.19 13.72,-18.78 32.61,-32.82 51.04,-46.67 7.6,-6.18 16.92,-11.5 20.62,-21.11zm-546.48 -286.45c35.71,-7.29 72.66,-8.52 108.75,-3.68 43.75,6.13 87.47,22.28 120.18,52.79 43.02,41.74 85.19,84.33 128.46,125.85 -13.97,42.9 -27.8,85.94 -38.27,129.89 -8.56,-10.6 -13.44,-23.55 -22.05,-34.11 2.65,-11.79 7.27,-23.1 8.86,-35.12 1.09,-17.44 -5,-34.32 -11.75,-50.1 -24.19,-53.26 -68,-97.76 -121.99,-120.72 -52.69,-22.74 -112.79,-24.6 -168.12,-11.04 -67.53,16.13 -128.26,57.24 -169.8,112.7 1.36,0.14 4.11,0.41 5.47,0.57 6.7,0.09 11.56,-5.22 17.1,-8.2 42.05,-25.53 87.49,-45.95 135.26,-57.96 42.45,-10.4 88.13,-13.93 130.26,-0.3 46.22,15.08 87.19,47.18 111.27,89.58 9.27,17.08 16.74,36.8 12.97,56.47 -12.99,64.46 -20.9,129.94 -23.26,195.65 -0.59,37.79 -0.66,75.95 6.57,113.2 3.49,17.58 8.83,35.36 19.98,49.72 1.59,2.29 4.23,6.58 7.57,4.22 5.13,-5.22 7.95,-12.13 11.01,-18.65 31.16,-69.7 56.35,-141.95 78.2,-215.09 3.55,4.48 6.39,9.47 10.31,13.65 1.78,3.5 3.5,7.02 4.98,10.68 0.36,0.93 1.11,2.79 1.47,3.72 -2.99,5.82 -5.36,11.93 -7.38,18.15 -28.32,82.9 -64.62,162.76 -95.94,244.53 -1.68,5.2 -5.33,9.33 -9.2,13.06 -5.56,-1.75 -11.19,-3.2 -16.85,-4.5 1.55,-4.86 2.82,-9.77 4.16,-14.67 1.77,-5.91 5.34,-11.54 5.38,-17.81 -2.18,-8.22 -6.86,-15.47 -9.81,-23.39 -7.68,-19.38 -14.65,-39.05 -20.62,-59.01 -12.72,-41.86 -23.31,-84.9 -23.58,-128.92 -9.52,4.34 -18.67,9.45 -28.35,13.45 16.54,-25.74 23.03,-56.45 24.69,-86.61 2.07,-27.89 -3.7,-55.58 -10.54,-82.45 -3.68,-12.22 -6.42,-24.8 -11.9,-36.41 -4.79,-11.58 -5.45,-25.39 -12.81,-35.61 -0.66,3.48 -1.09,6.97 -1.82,10.45 -12.26,30.68 -26.75,60.94 -47.99,86.53 -16.74,21.06 -36.97,39.28 -59.46,53.99 -16.74,10.27 -34.25,20.08 -53.51,24.67 1.7,-12.4 5.15,-24.51 6.86,-36.91 -27.6,16.56 -58.35,29.26 -90.83,30.94 -21.06,0.7 -42.02,-4.3 -61.39,-12.27 -21.26,-9.22 -39.39,-26.19 -47.68,-48.08 -10.22,-26.01 -10.36,-56.01 -0.07,-82.04 3.59,-11.04 10.4,-20.69 13.77,-31.82 -8.61,2.93 -13.13,11.35 -18.7,17.9 -23.59,31.75 -42.49,67.86 -50.03,106.97 -1.77,8.68 -2.23,17.54 -3.73,26.26 -0.25,1.07 -0.73,3.2 -0.97,4.27 -10.16,5.72 -18.56,14.06 -28.8,19.67 -37.64,23.62 -82.86,32.73 -126.9,31.68 -34.89,-1.27 -69.73,-7.65 -102.3,-20.35 -5.82,-2.43 -12.49,-3.7 -16.94,-8.49 1.04,-0.25 3.11,-0.77 4.15,-1.02 44.59,8.42 91.08,8.35 135.17,-3.05 38.25,-9.54 74.18,-28.16 104.18,-53.74 6.11,-5.11 11.63,-10.9 17.83,-15.87 1.27,2.77 2.54,5.52 3.86,8.26l0.32 0.69c1.68,-0.25 3.32,-0.62 4.95,-1.09 3.32,-39.14 13.4,-77.61 28.19,-113.95 12.22,-30.26 29.25,-58.56 50.4,-83.43 25.69,-31.5 57.17,-58.48 93.35,-77.27 30.84,-15.92 63.23,-29.59 97.41,-36.43zm243.83 -193.83c54.4,35.34 114.7,61.12 177.09,78.58 40.13,10.57 80.72,19.38 121.56,26.67 41.41,7.72 83.54,10.92 124.79,19.51 28,5.2 50.87,23.76 71.11,42.7 33.14,32.3 59.3,70.98 82.11,111.04 18.26,32.62 34.82,66.28 47.72,101.39 -4.3,3.98 -8.41,8.16 -12.18,12.66 -2.11,2.58 -4.09,5.29 -5.99,8.01 43.72,-8.26 90.62,0.18 127.89,24.74 26.03,17.33 46.82,41.06 68.03,63.73 12.24,13.9 25.26,27.26 35.79,42.56 -4.81,3.46 -9.28,7.41 -12.76,12.22 12.15,3.23 23.94,9.7 30.28,20.99 -4.27,1.29 -8.5,2.61 -12.7,4.02 6.61,4.77 14.29,8.06 20.03,14.01 14.7,14.65 25.15,33.51 30.21,53.63 2.68,10.18 3.23,20.71 4.57,31.12 -13.13,-15.09 -24.83,-32.12 -41.93,-43.11 -5.52,-6.86 -10.7,-13.99 -15.81,-21.17 -8.93,-12.08 -17.44,-24.58 -27.8,-35.52 -3.07,-3.52 -7.91,-4.25 -12.04,-5.77 9.43,-3.66 18.44,-8.45 26.05,-15.2 -21.05,-3.84 -43.15,-9.72 -59.01,-25.03 -19.53,-18.35 -36.02,-39.59 -53.76,-59.6 -9.54,-11.08 -20.1,-21.85 -33.7,-27.75 -16.31,-7.45 -35.21,-8.81 -52.54,-4.61 -19.1,8.85 -32.75,27.41 -37,47.85 -3.95,18.72 -4.47,39.59 5.36,56.67 12.2,21.51 34.84,34.34 57.19,43.09 32.14,10.99 68.48,12.79 100.44,0.14 -0.63,9.4 -4.91,18.05 -10.79,25.3 -6.7,8.65 -16.71,13.6 -25.05,20.44 -25.39,-5.38 -50.56,-11.68 -75.91,-17.13 -3.04,-1.31 -5.92,1 -6.86,3.73 20.49,5.99 41.05,11.83 61.37,18.46 -10.83,6.05 -23.57,5.39 -35.52,6.34 -19.55,0.02 -39.16,-2 -58.12,-6.81 -30.03,-6.73 -59.44,-19.67 -81.75,-41.3 -14.62,-15.19 -24.12,-36.02 -24.28,-57.23 0.05,-21.78 13.66,-40.98 30.24,-53.99 5.2,-3.93 11.72,-6.04 16.05,-11.08 -7.85,-1.19 -15.78,-0.82 -23.59,0.34 6.42,-11.86 13.12,-23.72 16.83,-36.78 8.15,-25.71 3.61,-53.51 -5.12,-78.42 -12.42,-34.69 -33.5,-66.62 -61.66,-90.49 -2.23,-2.09 -3.95,-4.64 -5.77,-7.02 30.62,14.99 56.22,39.95 72.14,70.09 14.96,27.92 22.35,59.58 23.32,91.15 1.84,-1.57 3.68,-3.14 5.59,-4.68 1.84,-44.04 -7.43,-88.19 -24.58,-128.67 -17.19,-40.2 -44.63,-76.86 -81.67,-100.71 -13.49,-8.45 -27.64,-16.96 -43.79,-18.8 -50.77,-7.89 -102.07,-12.61 -152.36,-23.49 -73.21,-15.35 -145.98,-40.41 -206.64,-85.2 -12.77,-9.51 -24.26,-20.55 -35.78,-31.5 -6.65,-6.49 -14.71,-11.79 -19.3,-20.12z"/>
   <path class="fil3" d="M1362.29 1139.54c11.97,-0.57 26.67,0.56 33.64,11.88 5.38,10.13 5.52,24.23 -2.34,33.13 -8.47,7.91 -20.64,4.02 -30.62,1.91 -0.54,-15.63 0.48,-31.3 -0.68,-46.92zm-347.62 84.1c10.11,-0.34 20.22,0.46 30.32,0.64 -14.06,17.19 -29.61,33.23 -45.33,48.9 -0.27,-10.22 -0.27,-20.42 -0.57,-30.62 5.36,-6.15 10.68,-12.38 15.58,-18.92zm820.28 -356.55c5.2,-1.18 10.47,-2.13 15.81,-2.79 -2.48,4.5 -5.22,8.81 -8.11,13.06l-0.54 0.05c-5.5,0.43 -10.97,0.7 -16.43,1.02 2.93,-3.89 6.11,-7.59 9.27,-11.34zm-689.18 -103.02l0.11 0.09c14.04,12.54 31.87,19.83 45.73,32.5 -18.72,-2.41 -37.16,-6.72 -55.95,-8.74 -1.11,-5.32 -2.4,-10.59 -4.11,-15.72 6.34,1.3 12.63,-1.52 14.22,-8.13zm121.51 42.06c23.26,-17.17 46.25,-35 71.3,-49.49 -2.27,6.61 -4.81,13.11 -7.18,19.67 -18.08,13.7 -33.18,30.94 -48.26,47.79 -30.23,34.86 -56.92,72.7 -80.81,112.16 -17.65,28.45 -32.03,58.75 -49.4,87.37 -11.43,1.61 -23.4,0.21 -35.03,0.64 5.43,-13.9 12.02,-27.33 17.92,-41.02 13.11,-27.55 24.85,-55.81 39.98,-82.38 22.46,-38.36 56.62,-67.96 91.48,-94.74zm-208.23 -35.52c2.02,-6.22 4.39,-12.33 7.38,-18.15 6.75,14.31 15.54,27.6 24.81,40.39 -41.09,80.67 -84.52,160.39 -118.47,244.46 -6.02,-3.59 -12.31,-6.68 -18.86,-9.11 3.87,-3.73 7.52,-7.86 9.2,-13.06 31.32,-81.77 67.62,-161.63 95.94,-244.53zm-649.72 -47.81c10.24,-5.61 18.64,-13.95 28.8,-19.67 3.45,13.51 8.65,26.48 14.4,39.16 -30.73,24.91 -69.6,37.66 -108.69,40.99 -39.83,3.43 -81.1,1.53 -118.88,-12.6 -16.96,-6.11 -32.48,-15.38 -47.42,-25.3 -6.68,-6.61 -12.38,-14.27 -17.53,-22.1 2.86,0.29 5.72,0.63 8.58,1.02l-1.25 0.32c-1.04,0.25 -3.11,0.77 -4.15,1.02 4.45,4.79 11.12,6.06 16.94,8.49 32.57,12.7 67.41,19.08 102.3,20.35 44.04,1.05 89.26,-8.06 126.9,-31.68zm590.74 -103.32c8.61,10.56 13.49,23.51 22.05,34.11 -13.56,53.83 -24.44,108.3 -37.63,162.2 -3.32,12.06 -5.3,24.62 -10.25,36.13 -0.75,-9.74 -1.66,-19.49 -1.54,-29.25 1.09,-68.46 8.56,-137.19 27.37,-203.19zm-133.58 -31.6c5.48,11.61 8.22,24.19 11.9,36.41 6.84,26.87 12.61,54.56 10.54,82.45 -1.66,30.16 -8.15,60.87 -24.69,86.61 9.68,-4 18.83,-9.11 28.35,-13.45 0.27,44.02 10.86,87.06 23.58,128.92 5.97,19.96 12.94,39.63 20.62,59.01 2.95,7.92 7.63,15.17 9.81,23.39 -0.04,6.27 -3.61,11.9 -5.38,17.81 -11.43,-26.64 -21.17,-54.06 -33.1,-80.52 -13.94,-34 -31.25,-66.98 -54.69,-95.44 -9.72,-11.95 -21.21,-22.42 -34.14,-30.8 27.96,-29.8 45.86,-68.41 51.49,-108.79 5.57,-35.14 1.91,-70.84 -4.29,-105.6zm670.35 44.7c4.25,-20.44 17.9,-39 37,-47.85 0.87,0.84 2.61,2.52 3.48,3.36 12.81,0.5 28.57,1 36.34,13.04 -24.4,1.56 -42.18,25.53 -43.02,48.83 -1.64,21.51 8.2,43.04 24.37,57.03 15.17,13.08 34.8,20.17 54.51,22.51 16.85,1.77 34.64,0.95 50.08,-6.77 9.54,-4.79 20.65,-2.7 30.67,-0.77 21.87,5.02 36.7,23.19 53.19,36.93 0.79,-0.16 2.38,-0.5 3.18,-0.68 5.11,7.18 10.29,14.31 15.81,21.17 -0.09,1.11 -0.27,3.31 -0.34,4.43 15.06,19.44 26.19,43.17 25.69,68.2 -1.69,6.07 -7.48,9.77 -11.36,14.43 -2.5,-21.13 -8.5,-43.77 -25.42,-58.06 -13.03,-11.74 -31.52,-14.63 -48.42,-12.31 -5.54,-0.27 -10.79,-2.41 -16.15,-3.59 6.84,-6.58 16.04,-9.56 23.6,-15.01 -13.79,0.25 -26.35,6.36 -38.73,11.61 -15.83,-3.32 -31.59,-7.09 -47.33,-10.86 8.34,-6.84 18.35,-11.79 25.05,-20.44 5.88,-7.25 10.16,-15.9 10.79,-25.3 -31.96,12.65 -68.3,10.85 -100.44,-0.14 -22.35,-8.75 -44.99,-21.58 -57.19,-43.09 -9.83,-17.08 -9.31,-37.95 -5.36,-56.67zm-1043.98 -66.95c5.57,-6.55 10.09,-14.97 18.7,-17.9 -3.37,11.13 -10.18,20.78 -13.77,31.82 -10.29,26.03 -10.15,56.03 0.07,82.04 8.29,21.89 26.42,38.86 47.68,48.08 19.37,7.97 40.33,12.97 61.39,12.27 32.48,-1.68 63.23,-14.38 90.83,-30.94 -1.71,12.4 -5.16,24.51 -6.86,36.91 19.26,-4.59 36.77,-14.4 53.51,-24.67 22.49,-14.71 42.72,-32.93 59.46,-53.99 21.24,-25.59 35.73,-55.85 47.99,-86.53 4.14,11.72 5.07,24.41 5.66,36.75 -6.75,45.13 -26.55,89.44 -60.07,120.97 -1.55,-4.86 -3.03,-9.7 -4.52,-14.56 -44.84,49.85 -109.21,83.69 -176.85,85.6 -54.71,2.48 -109.11,-17.17 -151.67,-51.12 -10.75,-12.31 -16.29,-28.08 -25.31,-41.5 1.5,-8.72 1.96,-17.58 3.73,-26.26 7.54,-39.11 26.44,-75.22 50.03,-106.97zm435.05 -424.46c0.63,0.34 1.88,1.02 2.52,1.36 5.5,4.09 10.86,8.33 16.4,12.38 4.59,8.33 12.65,13.63 19.3,20.12 11.52,10.95 23.01,21.99 35.78,31.5l-2.77 0.82c7.4,14.13 20.17,24.35 31.63,35.07 88.38,77.77 194.77,134.3 307.77,166.8 25.21,7.07 50.65,13.52 76.61,17.15 -4.39,-8.38 -9.61,-16.26 -14.79,-24.14 3.2,1.45 6.41,2.93 9.54,4.61 1.82,2.38 3.54,4.93 5.77,7.02 28.16,23.87 49.24,55.8 61.66,90.49 8.73,24.91 13.27,52.71 5.12,78.42 -3.71,13.06 -10.41,24.92 -16.83,36.78 7.81,-1.16 15.74,-1.53 23.59,-0.34 -4.33,5.04 -10.85,7.15 -16.05,11.08 -16.58,13.01 -30.19,32.21 -30.24,53.99 0.16,21.21 9.66,42.04 24.28,57.23 22.31,21.63 51.72,34.57 81.75,41.3 18.96,4.81 38.57,6.83 58.12,6.81 11.95,-0.95 24.69,-0.29 35.52,-6.34l0.41 -0.2c18.76,5.84 37.64,11.22 56.42,17.03 -3.2,3.73 -6.29,7.54 -9.31,11.41 -45.38,-5.09 -90.62,-11.38 -135.96,-16.99 -3.11,-0.75 -7.04,0.81 -6.63,4.52 44.67,7.85 89.1,17.05 133.78,24.8 -0.39,0.73 -1.16,2.2 -1.55,2.93 -14.47,-2.89 -29.05,-5.25 -43.81,-5.59 -37.11,-1.54 -74.48,6.18 -111.34,-0.86 -38.59,-6.72 -77.7,-25.19 -99.64,-58.87 -7.43,-13.59 -14.36,-29.17 -12.65,-44.95 1.18,-4.04 2.47,-8.04 3.52,-12.13 -11.11,7.97 -20.42,18.15 -28.82,28.87 -7.34,-19.2 -2.16,-40.34 1.09,-59.9 -44.48,-3.11 -88.86,4.8 -131.47,17.02 -0.04,-0.71 -0.13,-2.14 -0.18,-2.87 45,-18.69 90.42,-36.5 136.42,-52.6 15.17,-5 30.34,-10.38 46.15,-12.95 -0.93,14.22 -5.07,27.9 -8.79,41.55 4.75,-2.3 7.11,-7.23 10.06,-11.32 17.26,-25.37 29,-55.17 29.87,-86.08 1.56,-37.77 -11.99,-75.93 -36.32,-104.68 -84.83,-20.47 -169.98,-43.75 -248.12,-83.56 -36.34,-18.13 -70.7,-40.09 -103.02,-64.64 -27.42,-20.79 -54.29,-42.57 -77.73,-67.85 -29.91,-31.34 -55.55,-66.61 -77.06,-104.2zm110.66 902.84c20.94,1.74 41.99,0.04 62.98,0.9 13.95,39.37 28.55,78.48 42.61,117.79 3.45,9.97 8.08,20.22 16.69,26.85 3.39,-5.04 7.07,-10.4 7.02,-16.74 0.84,-22.1 -0.93,-44.18 -0.36,-66.3 -0.48,-12.83 1.36,-25.96 -1.89,-38.54 -2.72,-8.16 -8.11,-15.04 -11.99,-22.65 23.03,-0.47 46.06,0.87 69.09,0.57 13.52,0.98 27.24,-0.36 40.61,2.32 12.13,3.09 23.81,10.58 29.48,22.05 9.45,18.22 3.23,43.47 -15.26,53.45 14.08,7.79 24.46,23.18 23.49,39.63 0.41,14.97 -8.63,29.03 -21.58,36.11 -13.81,7.61 -30.12,9.88 -45.68,8.32 -53.55,-4.18 -107.2,-6.64 -160.9,-8.32 6.05,-9.38 15.49,-19.26 11.11,-31.32 -10.63,-0.61 -21.33,-1.38 -31.93,-0.41 -7,11.43 3.63,22.44 9.1,31.96 -37.79,-1.23 -75.61,-0.05 -113.4,0.09 -8.4,0.41 -15.81,-4.72 -20.81,-11.06 -11.17,-13.65 -19.1,-29.53 -28.59,-44.29 0.43,11.2 -1.07,22.6 0.93,33.66 4.2,8.99 12.51,15.15 18.47,22.96 -47.59,0.91 -95.1,4.02 -142.53,7.63 -14.29,0.44 -25.03,-11.33 -31.89,-22.59 -7.54,-11.38 -11.33,-24.69 -18.42,-36.28 -0.43,11.29 -0.61,22.62 -0.07,33.91 0.55,11.22 9.57,18.86 15.2,27.74 -30.66,3.24 -61.35,6.24 -91.97,9.88 7.14,-12 18.36,-22.79 18.47,-37.68 0.07,-24.94 1.07,-49.86 0.68,-74.8 -0.41,-11.72 1.82,-23.55 -0.57,-35.16 -1.86,-9.29 -8.72,-16.37 -12.01,-25.1 27.69,-0.02 55.4,-0.77 83.08,-0.97 -4.86,7.83 -12.15,15.06 -12.38,24.85 -0.45,10.31 -0.13,20.64 -0.09,30.98 8.91,-11.25 17.97,-22.47 25.67,-34.57 4.36,-6.43 5.06,-14.34 3.84,-21.83 23.57,-0.93 47.19,-1.25 70.79,-1.14 -19.1,23.33 -38.56,46.34 -57.48,69.8 14.58,30.09 31.8,60.01 58.16,81.34 5.52,-7.52 13.9,-14.31 14.11,-24.38 0.07,-32.66 1.2,-65.34 0.5,-98 -0.3,-11.34 -9.4,-19.24 -13.81,-29.01 11.47,-0.7 22.96,-0.25 34.43,-0.36 20.38,0.3 40.77,-1.48 61.15,-0.18 13.65,1.04 27.98,4.9 38.04,14.69 14.74,14.54 12.33,41.3 -2.84,54.63 -3.09,3.09 -7.74,4.45 -10.31,7.99 12.22,22.44 26.1,44.82 45.63,61.58 8.93,-6.97 13.1,-18.17 17.26,-28.37 10.97,-28.16 22.53,-56.12 33.23,-84.4 3.91,-9.52 -2.32,-18.44 -5.06,-27.23zm-273.15 11.69l0 0c-0.75,4.32 -1,8.91 -3.34,12.74 -11.15,19.22 -26.66,35.53 -38.61,54.11 4.63,13.37 11.9,25.62 17.53,38.61 5.39,11.45 10.61,23.55 20.1,32.28 3.75,3.54 8.73,6.22 14.04,5.76 12.13,-0.54 24.24,-1.93 36.36,-2.43 -9.22,-9.6 -18.23,-19.48 -25.64,-30.59 -11.2,-16.06 -19.4,-33.89 -28.98,-50.9 15.35,-20.6 32.93,-39.5 48.27,-60.08 -13.25,0.71 -26.49,0.03 -39.73,0.5zm78.47 -0.52l0 0c3.93,6.68 6.61,14.2 6.23,22.05 -0.12,30.26 0.11,60.54 -0.12,90.79 0.48,9.86 -3.61,18.9 -9.22,26.73 18.88,-0.66 37.73,-2.13 56.62,-2.36 -12.1,-12.77 -8.01,-31.28 -8.72,-47.13 0.57,-23.71 0.87,-47.42 0.41,-71.14 9.66,-0.86 20.06,-1.88 29.07,2.43 10.97,5.77 9.93,21.9 2.91,30.44 -4.95,7.97 -14.74,9.4 -22.94,12.04 8.27,21.57 19.94,41.67 33.32,60.48 4.02,5.16 8.93,11.38 16.22,11.11 12.35,0.45 24.73,-0.91 37.11,-0.59 -21.12,-21.35 -37.59,-46.77 -51.03,-73.48 4.56,-1.68 9.24,-3.25 13.44,-5.79 16.06,-8.86 19.6,-35.39 4.25,-46.61 -13.22,-10.22 -30.87,-10.26 -46.79,-9.88 -20.24,0.73 -40.59,-0.95 -60.76,0.91zm209.03 -1.48l0 0c1.3,7.64 1.77,15.68 -1.34,22.97 -11.83,30.43 -23.98,60.75 -36.09,91.08 -3.04,8.33 -8.81,15.15 -13.88,22.28 14.02,0.13 28.03,0 42.07,0.09 -5.3,-10.22 -3.07,-21.69 1.13,-31.85 15.45,0.28 30.94,-0.63 46.34,0.64 3.13,10.56 4.74,21.9 -0.84,32 19.96,0.59 39.95,1.12 59.91,2.05 -5.9,-7.48 -10.97,-15.67 -13.99,-24.76 -13.58,-38.11 -27.71,-76.04 -41.24,-114.18 -14.02,-0.5 -28.06,0.05 -42.07,-0.32zm117.02 0.64l0 0c8.54,14.51 6.56,31.62 6.65,47.68 0.98,23.5 0.5,47.06 0.52,70.56 0.21,7.89 -3.58,14.95 -7.88,21.24 20.76,2.16 41.68,2.52 62.49,4.43 16.71,1.7 35.38,0.25 48.87,-10.79 14.34,-11.51 15,-35.23 2.09,-48.04 -8.49,-9.49 -21.05,-13.31 -33.22,-15.12 5.51,-5.68 14.9,-3.71 21.41,-8.07 19.99,-7.79 22.67,-37.86 6.57,-50.9 -14.52,-12.51 -34.91,-9.24 -52.56,-9.81 -18.31,-1.22 -36.66,0.18 -54.94,-1.18zm-499.14 3.27l0 0c7.95,15.15 6.04,32.43 6.08,48.9 -1.29,27.28 0.3,54.6 -1.54,81.84 -0.73,7.58 -4.11,14.49 -7.56,21.16 18.39,-1.45 36.68,-4.17 55.08,-5.45 -9.57,-13.12 -7.98,-29.93 -7.91,-45.24 1.16,-24.98 0.18,-49.99 0.68,-74.95 0.41,-8.93 0.41,-18.13 4.14,-26.42 -16.33,-0.95 -32.67,0.64 -48.97,0.16zm227.67 24.96l0 0c-0.16,8.79 -0.13,17.58 -0.13,26.4 11.15,-0.32 22.66,-11.11 17.55,-22.67 -4.74,-4.23 -11.6,-3.23 -17.42,-3.73zm-338.24 -29.39c25.71,-10.86 54.38,-6.77 80.9,-1.59 -0.02,16.58 0.05,33.16 -0.04,49.74 -14.24,-9.06 -29.62,-20.37 -47.49,-18.03 -14.52,1.7 -24.01,14.97 -28.49,27.82 -6.31,18.72 -7.06,40.43 1.91,58.42 6.27,13.2 20.74,22.12 35.48,20.53 20.71,-2 39.07,-12.81 57.03,-22.48 -6.52,18.33 -14.58,36.09 -21.35,54.33 -24.03,9.38 -50.69,16.33 -76.45,10.74 -19.99,-4.27 -37.79,-17.6 -47.04,-35.91 -12.9,-25.55 -13.94,-56.1 -6.27,-83.38 7.22,-26.35 26.14,-49.97 51.81,-60.19zm12.88 5.43l0 0c-24.12,6.18 -43.84,25.17 -52.63,48.24 -10.49,27.44 -10.83,59.65 2.77,86.11 8.2,16.35 24.58,27.89 42.5,31.02 22.08,4.05 44.59,-1.63 65.28,-9.15 4.15,-9.7 8.36,-19.37 12.56,-29.05 -13.52,6.93 -27.83,13.79 -43.38,13.51 -15.84,0.82 -31.28,-8.13 -39.21,-21.71 -10.83,-16.97 -11.22,-38.2 -8.13,-57.46 3.55,-18.31 13.65,-37.75 32.21,-44.36 15.83,-5.66 32.5,0.61 46.38,8.38 0.18,-8.34 0.75,-16.67 0.54,-25.01 -19.42,-2.93 -39.61,-6.11 -58.89,-0.52zm727.49 -11.02c30.74,0.39 61.49,1.21 92.22,2.12 14.38,0.07 29.55,4.15 39.36,15.31 13.15,13.92 14.88,36.4 5.93,52.98 -3.29,6.39 -9.4,10.5 -14.83,14.88 11.65,7.25 20.85,18.97 23.6,32.57 3.09,15.33 -1.12,32.8 -13.27,43.25 -13.51,11.78 -32.55,14.87 -49.9,12.9 -28.71,-3.45 -57.42,-6.97 -86.24,-9.41 5.09,-9.76 16.76,-16.19 17.15,-28.25 0.25,-34 -0.41,-68.02 -0.77,-102.03 0.2,-12.87 -8.07,-23.23 -13.25,-34.32zm15.93 9.75l0 0c3.06,6.31 5.7,12.94 6.24,20.03 1.05,24.12 0.91,48.27 0.91,72.41 0.14,18.51 4.16,39.11 -7.68,55.12 24.17,1.75 48.18,5.39 72.3,7.79 15.01,1.07 31.8,-2.29 42.25,-13.92 10.99,-13.35 10.4,-34.41 -0.34,-47.74 -8.09,-10.4 -20.7,-16.38 -33.6,-17.94 0.77,-3.82 4.98,-3.3 7.91,-4.21 9.22,-1.84 18.89,-5.54 24.39,-13.65 9.5,-14.94 6.79,-37.27 -7.9,-47.99 -9.81,-8.04 -23.03,-8.2 -35.07,-8.58 -23.15,-0.32 -46.27,-1.62 -69.41,-1.32zm129.48 -5.68c30.21,-0.41 60.44,0 90.63,0.5 -6.63,11.45 -16.17,22.26 -16.4,36.2 -0.52,38.64 0.73,77.27 0.61,115.91 -0.56,15.19 8.29,27.91 14.27,41.18 -25.56,-4.32 -51.06,-8.82 -76.71,-12.47 -2.68,-0.34 -5.33,-0.84 -7.54,-2.43 5.98,-8.45 12.22,-17.7 12.43,-28.44 0.32,-39.45 -0.14,-78.9 -0.82,-118.33 -0.48,-12.75 -10.24,-21.88 -16.47,-32.12zm18.06 9.02l0 0c3.93,7.13 7.52,14.78 7.63,23.12 1.62,31.8 0.12,63.64 0.93,95.46 0.78,15.31 1.48,31.73 -6.61,45.43 17.31,2.86 34.71,5.2 51.93,8.63 -2.75,-8.68 -6.25,-17.33 -6.25,-26.55 -0.34,-39.48 -0.89,-78.93 -0.75,-118.41 0.3,-9.69 3.86,-18.89 8.88,-27.09 -18.58,-0.03 -37.16,-1.07 -55.76,-0.59zm80.04 -5.54c0.27,-3.93 5.2,-2.09 7.7,-2.5 26.46,1.52 52.99,-0.25 79.45,1.11 24.69,0.39 49.42,-0.52 74.09,0.73 -3.68,22.6 -7.95,45.08 -11.65,67.66 -14.74,-8.86 -31.62,-13.17 -48.65,-14.49 -0.37,38.31 0.84,76.59 0.63,114.88 -0.31,17.15 9.93,31.34 16.88,46.17 -23.24,-4.76 -46.38,-9.92 -69.66,-14.3 -7.11,-1.25 -13.95,-3.52 -20.83,-5.59 4.47,-7.18 11.13,-12.88 14.76,-20.6 1.93,-6.29 1.75,-12.99 2,-19.49 0,-34.39 0.03,-68.8 -0.02,-103.18 -19.19,-1.48 -38.18,2.9 -55.4,11.22 3.21,-20.61 7.2,-41.07 10.7,-61.62zm8.06 7.35l0 0c-1.9,12.88 -4.74,25.63 -6.58,38.53 16.87,-6.39 35.2,-6.8 52.92,-4.57 -0.96,38.18 -0.52,76.38 -0.55,114.59 0.46,11.58 -1.4,23.66 -8.9,32.91 18.62,4.24 37.52,7.27 56.08,11.81 -6.72,-13.06 -9.63,-27.76 -8.61,-42.38 -1.48,-38.41 0.43,-76.86 -1.27,-115.27 17.51,-0.12 34.98,3.29 51.35,9.54 2.8,-14.7 5.27,-29.46 7.73,-44.2 -47.38,-0.34 -94.79,-1.27 -142.17,-0.96zm-1157.45 -5.9c20.67,-0.52 41.38,-1.39 62.08,-0.84 11.4,47.06 25.96,93.28 39.45,139.75 2.11,7.16 4.06,14.42 7.4,21.12 4.41,8.7 11.81,15.27 17.45,23.1 -31.51,5 -62.8,11.18 -94.19,16.81 4.95,-12.54 13.85,-24.87 10.99,-39.04 0.25,-3.09 -2.25,-6.34 -5.7,-4.27 -8.61,1.34 -17.17,2.9 -25.8,4.18 -1.57,6.17 -3.14,12.44 -3.16,18.87 0.11,8.63 5.29,15.9 8.43,23.65 -25.35,4.61 -50.36,10.9 -75.64,15.8 8.77,-15.76 19.24,-30.86 23.85,-48.56 12.76,-45.06 23.12,-90.8 37.25,-135.48 4.22,-11.67 0.75,-23.71 -2.41,-35.09zm12.29 8.88l0 0c2.52,11.33 1.25,23.1 -2.45,34.02 -13.5,42.7 -23.31,86.43 -35.48,129.47 -3.05,11.76 -8.9,22.42 -13.92,33.39 14.19,-3.25 28.43,-6.39 42.72,-9.13 -6.61,-14.06 -3.07,-29.69 0.82,-43.93 15.42,-2.2 30.66,-5.52 46.17,-7.09 2.46,13.83 4.66,28.42 -1.68,41.63 20.1,-3.22 40.04,-7.24 60.12,-10.62 -5.36,-7.48 -10.13,-15.47 -12.74,-24.35 -14.38,-48.04 -28.57,-96.15 -41.68,-144.57 -13.92,1.5 -27.94,0.45 -41.88,1.18zm-145.32 -5.5c30.44,0.64 60.83,-0.72 91.26,-0.45 -4.65,8.7 -10.92,16.81 -12.94,26.66 -2.8,11.95 -2,24.26 -2.09,36.44 -1.12,26.41 -0.34,52.89 -0.57,79.33 -0.21,17.4 1.07,35.57 -5.77,51.99 -7.22,18.38 -22.46,32.48 -39.63,41.61 -22.35,12.88 -47.95,17.83 -72.62,24.28 2.57,-13.78 4.52,-27.71 7.34,-41.43 9.56,-4.15 20.94,-5.02 30.05,-10.97 14.22,-7.99 23.41,-24.07 23.19,-40.38 0.27,-39.43 -0.05,-78.84 0.13,-118.27 0,-5.99 -0.04,-12.1 -1.84,-17.87 -2.86,-11.59 -11.31,-20.47 -16.51,-30.94zm16.9 9.27l0 0c6.5,10.7 10.86,22.76 10.92,35.39 0.71,40.11 -0.99,80.17 -0.38,120.26 0.57,10.79 -2.23,21.51 -7.84,30.71 -9.15,16.97 -27.98,25.83 -46.17,29.34 -1.75,7.34 -2.98,14.79 -4.07,22.29 21.67,-5.25 43.66,-11.11 62.55,-23.44 18.54,-10.91 32.23,-30.42 33.85,-52.13 1.22,-40.11 0.72,-80.24 0.79,-120.38 0.11,-14.42 1.84,-29.09 8.04,-42.27 -19.21,0.34 -38.45,-0.04 -57.69,0.23zm1461.97 -5.91c21.75,-8.31 45.74,-1.7 65.34,9.18 -0.36,21.99 -0.05,44 -0.18,65.98 -9.36,-11.6 -18.79,-24.53 -33.5,-29.55 -5.39,-1.5 -11.88,-4.36 -17.04,-1.09 -4.81,7.88 0.93,17.15 6.43,23.06 11.2,11.51 24.46,21 34.43,33.72 16.47,18.79 24.85,44.32 22.37,69.21 -1.52,19.08 -8.69,39.18 -24.48,51.04 -12.49,9.63 -29.48,11.81 -44.52,7.95 -15.74,-3.93 -30.68,-10.7 -44.76,-18.63 -1.32,-2.59 -1.48,-5.56 -1.91,-8.33 -3,-22.78 -6.04,-45.54 -8.47,-68.39 16.35,18.78 33.13,39.24 57.14,48.44 5.91,2.62 15.31,2.18 17.11,-5.4 1.31,-9.45 -0.87,-20.04 -8.05,-26.76 -18.1,-17.51 -37.77,-34.02 -51.39,-55.46 -8.45,-13.18 -8.86,-29.55 -7.52,-44.61 2.31,-22.3 17.46,-43.18 39,-50.36zm-29.62 50.04l0 0c-1.52,14.26 -1.27,30.1 7.42,42.23 12.54,18.32 29.17,33.22 45.3,48.28 6.22,5.57 11.53,12.56 13.26,20.9 1.88,8.58 2.7,19.05 -3.75,26.03 -6.02,6.74 -16.22,6.9 -24.21,4.09 -17.22,-5.89 -31.09,-18.33 -43.09,-31.6 1.75,14.9 4.48,29.69 6.59,44.54 14.38,7.68 29.55,14.65 45.79,17.13 15.53,2.5 31.73,-5.23 40.18,-18.38 11.56,-17.92 12.99,-40.77 8.77,-61.21 -5.52,-24.12 -23.67,-42.45 -41.8,-58.05 -9.88,-8.88 -21.8,-19.33 -21.1,-33.89 -0.81,-8.4 6.07,-16.1 14.47,-16.42 14.13,-0.07 27.17,7.06 37.32,16.49 -0.16,-12.02 0.36,-24.03 -0.34,-36.02 -14.47,-6.5 -30.73,-11.04 -46.56,-7.02 -20.17,4.4 -35.75,22.57 -38.25,42.9zm-495.74 -37.34c11.09,-1.43 24.15,-3 33.3,4.86 7.43,8.75 5.63,25.51 -5.52,30.46 -8.47,3.61 -17.92,2.36 -26.78,1.36 -1.81,-12.15 -0.72,-24.46 -1,-36.68zm9.77 8.27l0 0c-0.14,6.72 -0.16,13.42 -0.11,20.14 5.2,-0.25 10.88,0.53 15.6,-2.2 3.82,-3.29 3.75,-9.15 2.36,-13.58 -4.13,-5.5 -11.9,-3.82 -17.85,-4.36zm136.89 -3.98c9.86,-1.06 20.58,-2.13 29.62,2.87 9.54,6.1 9.61,20.19 5.02,29.39 -7.52,10.99 -22.99,8.83 -34.25,6.58 0.48,-12.94 -1.02,-25.89 -0.39,-38.84zm9.52 8.63l0 0c-0.05,7.61 -0.05,15.24 0,22.85 5.52,-0.43 12.54,1.16 16.74,-3.4 2.66,-4.23 2.43,-9.77 1.13,-14.4 -3.47,-6.23 -11.94,-4.79 -17.87,-5.05zm-319.46 48.13c5.52,-14.42 9.24,-29.61 16.06,-43.49 4.38,1.84 4.95,6.68 6.29,10.63 3.29,11.01 6.9,21.94 10.31,32.93 -10.9,0.18 -21.78,0.32 -32.66,-0.07zm8.29 -4.93l0 0c5.45,0.03 10.9,0.03 16.35,0.03 -2.24,-7.95 -4.77,-15.81 -7.17,-23.69 -4.55,7.22 -6.27,15.74 -9.18,23.66zm-638.76 -11.4c1.12,0.3 3.32,0.89 4.43,1.18 3.73,17.76 8.82,35.23 12.04,53.11 -10.72,0.95 -21.33,2.99 -32.05,3.93 5.43,-19.33 9.59,-39.05 15.58,-58.22zm-6.04 51.95l0 0c4.84,-0.57 9.66,-1.21 14.45,-1.93 -2.09,-8.61 -4.02,-17.22 -6.09,-25.8 -5.06,8.19 -5.16,18.64 -8.36,27.73zm800.36 -41c12.38,-1.63 28.71,-0.36 34.89,12.38 3.59,9.38 3.43,22.12 -4.68,29.19 -8.56,6.51 -20.24,4.42 -29.75,1.45 -0.87,-14.33 -0.32,-28.69 -0.46,-43.02zm9.54 8.95l0 0c0.16,8.97 0.14,17.97 0.07,26.96 5.43,0.23 12.72,2.11 16.33,-3.29 2.84,-5.77 2.84,-13.43 -1.11,-18.7 -3.73,-4.45 -9.97,-4.63 -15.29,-4.97zm146.64 8.09l0 0c-0.05,10.15 -0.03,20.3 -0.03,30.45 5,0.39 10.77,2.34 15.18,-1.18 4.08,-5.52 3.77,-13.31 1.86,-19.58 -2.32,-7.15 -10.45,-9.04 -17.01,-9.69z"/>
   <path class="fil4" d="M930.43 142.53c1.04,0.27 3.16,0.79 4.2,1.04 76.98,32.14 156.27,59.33 237.9,77.02 54.28,11.93 108.91,22.31 163.8,30.98 17.79,2.68 35.87,4.77 52.63,11.63 41.56,16.22 73.75,48.99 100.8,83.45 41.68,52.42 69.71,113.72 98.57,173.66 -5.97,4.5 -11.63,9.41 -17.12,14.49 -12.9,-35.11 -29.46,-68.77 -47.72,-101.39 -22.81,-40.06 -48.97,-78.74 -82.11,-111.04 -20.24,-18.94 -43.11,-37.5 -71.11,-42.7 -41.25,-8.59 -83.38,-11.79 -124.79,-19.51 -40.84,-7.29 -81.43,-16.1 -121.56,-26.67 -62.39,-17.46 -122.69,-43.24 -177.09,-78.58 -5.54,-4.05 -10.9,-8.29 -16.4,-12.38zm628.6 404.93c34.75,-9.61 72.46,-8.41 106.19,4.56 25.82,9.77 48.62,26.6 67.11,46.97 18.88,19.9 37.3,40.32 53.56,62.42 6.38,9.26 13.63,18.76 14.95,30.29 -7.07,0.16 -14.13,1.28 -20.47,4.48 2.27,3.16 6.52,2.41 9.81,3.57 12.45,2.61 22.58,11.76 28.55,22.73 -4.22,0.46 -8.4,0.93 -12.58,1.43 2.7,5.79 10.02,7.48 13.99,12.36 21.53,22.08 30.66,53.42 33.41,83.45 -2.95,1.22 -5.88,2.99 -9.17,2.77 -1.34,-10.41 -1.89,-20.94 -4.57,-31.12 -5.06,-20.12 -15.51,-38.98 -30.21,-53.63 -5.74,-5.95 -13.42,-9.24 -20.03,-14.01 4.2,-1.41 8.43,-2.73 12.7,-4.02 -6.34,-11.29 -18.13,-17.76 -30.28,-20.99 3.48,-4.81 7.95,-8.76 12.76,-12.22 -10.53,-15.3 -23.55,-28.66 -35.79,-42.56 -21.21,-22.67 -42,-46.4 -68.03,-63.73 -37.27,-24.56 -84.17,-33 -127.89,-24.74 1.9,-2.72 3.88,-5.43 5.99,-8.01zm-942.43 -83.09c55.99,-29.82 120.13,-46.45 183.73,-41 31.16,2.64 60.53,15.58 86.01,33.26 32.35,21.44 59.67,51.26 75.34,86.99 6.59,15.33 11.27,32.77 5.86,49.19 -14.65,65.08 -22.19,131.6 -25.96,198.13 -1.95,40.88 -2.2,82.11 3.91,122.67 2.61,14.67 5.36,29.66 11.92,43.16 0.73,-0.07 2.16,-0.21 2.89,-0.28 14.92,-40.34 29.27,-80.9 40.74,-122.37 12.54,-43.23 23.6,-86.86 36.73,-129.9 4.88,5.81 7.63,13.08 12.2,19.12l-0.3 1.07c-21.85,73.14 -47.04,145.39 -78.2,215.09 -3.06,6.52 -5.88,13.43 -11.01,18.65 -3.34,2.36 -5.98,-1.93 -7.57,-4.22 -11.15,-14.36 -16.49,-32.14 -19.98,-49.72 -7.23,-37.25 -7.16,-75.41 -6.57,-113.2 2.36,-65.71 10.27,-131.19 23.26,-195.65 3.77,-19.67 -3.7,-39.39 -12.97,-56.47 -24.08,-42.4 -65.05,-74.5 -111.27,-89.58 -42.13,-13.63 -87.81,-10.1 -130.26,0.3 -47.77,12.01 -93.21,32.43 -135.26,57.96 -5.54,2.98 -10.4,8.29 -17.1,8.2 22.03,-20.51 47.5,-37.02 73.86,-51.4zm63.12 -131.53c53.81,-15.06 111.77,-16.53 165.72,-1.29 39.47,11.15 76.88,31.27 105.77,60.66 37.71,40.48 76.02,80.36 115.93,118.65 -2.39,4.23 -4.63,8.5 -6.75,12.84 -43.27,-41.52 -85.44,-84.11 -128.46,-125.85 -32.71,-30.51 -76.43,-46.66 -120.18,-52.79 -36.09,-4.84 -73.04,-3.61 -108.75,3.68 -34.18,6.84 -66.57,20.51 -97.41,36.43 -36.18,18.79 -67.66,45.77 -93.35,77.27 -21.15,24.87 -38.18,53.17 -50.4,83.43 -14.79,36.34 -24.87,74.81 -28.19,113.95 -1.63,0.47 -3.27,0.84 -4.95,1.09l-0.32 -0.69c0.75,-1.09 2.23,-3.29 2.95,-4.38 1.19,-30.25 6,-60.28 13.16,-89.67 8.99,-34.82 24.16,-68.07 44.94,-97.46 21.81,-31.98 47.27,-62.1 78.93,-84.77 33.23,-24.3 71.87,-40.18 111.36,-51.1z"/>
   <path class="fil5" d="M1152.79 532.76c24.48,-3.72 49.51,-0.02 73.2,6.54l0.5 0.14c0.8,2.97 1.62,5.97 2.46,8.95 -3.07,3.56 -6.5,6.79 -10.48,9.31 -30.02,-16.7 -66.09,-16.31 -98.84,-9.29 8.36,-9.63 21.01,-13.58 33.16,-15.65zm-322.32 819.23c1,-3 2.02,-5.99 3.04,-8.97 20.4,11.22 42.48,22.53 66.44,21.12 -6.41,4.64 -14.15,8.18 -22.26,6.89 -16.85,-2.37 -34.27,-7.52 -47.22,-19.04zm-3.73 -33.73c-4.77,-5.08 -0.45,-11.76 1.62,-17.08 12.13,14.63 26.3,28.42 44.51,35.05 15.02,6.7 32.01,7.56 47.82,3.32 -4.66,-1.14 -9.34,-2.23 -14.02,-3.16 7.77,0.57 15.58,0.59 23.37,0.23 -5.83,5.54 -12.08,11.01 -19.58,14.19 -6.79,2.09 -13.96,0.66 -20.85,-0.13 -23.62,-3.46 -47.26,-13.88 -62.87,-32.42zm102.1 -33.09c24.57,-5.68 46.13,-19.76 65.44,-35.48 -9.34,25.33 -25.15,49.52 -47.84,64.76 -20.96,13.88 -48.67,8.68 -69.11,-3.59 -10.41,-6.7 -21.81,-14.76 -25.76,-27.05 1.66,-8.25 6.38,-15.38 10.08,-22.81l0.07 0.03c11.02,6.81 22.56,12.76 34.55,17.67 10.27,4.13 21.21,9.47 32.57,6.47zm836.38 -381.85c20.81,-2.88 41.66,-9.88 57.78,-23.73 2.25,3.2 4.55,6.4 6.86,9.6 -14.01,10.32 -31.39,15.04 -48.56,16.33 -5.47,0.53 -10.92,-0.49 -16.08,-2.2zm-311.87 -22.94c6.9,1.89 13.9,3.43 21.01,4.57 -40.09,22.37 -83.4,40.36 -129.03,47.19 -28.21,4.3 -57.33,3.05 -84.75,-5.06 1.3,-6.18 2.82,-12.29 4.41,-18.4 12.99,3.84 25.8,8.93 39.5,9.72 46.52,3.86 92.26,-10.65 134.23,-29.41 5.29,-2.11 10.2,-5.02 14.63,-8.61zm245.41 -51.67c6.79,-1.41 14.7,1.36 21.49,3.48 0.3,7.04 0.09,14.51 3.57,20.91 3.54,6.93 10.29,11.66 17.49,14.24 21.28,7.2 43.97,4.27 65.95,5.82 -22.05,14.49 -49.72,19.15 -75.65,16.74 -27.55,-3.04 -46.59,-36.46 -32.85,-61.19zm15.04 -24.19c6.27,1.68 12.65,3.16 18.51,6.11 -1.23,1.89 -2.36,3.82 -3.45,5.79 -7.11,-0.5 -14.2,-1.36 -21.19,-2.61 1.95,-3.16 4.02,-6.25 6.13,-9.29zm-301.08 3.75c3.13,-3.89 6.33,-7.72 9.6,-11.52 12.27,16.36 30.24,28.35 50.25,32.8 31.27,6.81 63.57,8.95 95.5,6.5 35.5,-2.71 72.91,-10.72 107.28,2.43 -0.82,4.49 -1.41,9.04 -1.87,13.58 -11.33,-4.04 -22.96,-7.52 -35,-8.59 -22.05,-2.7 -44.11,1.16 -66.05,3.07 -31.7,2.97 -63.77,5.52 -95.48,1.2 -17.31,-2.61 -35.46,-7.26 -48.63,-19.46 -6.25,-5.79 -11.36,-12.68 -15.6,-20.01zm-945.79 -40.04c3.22,4.77 6.47,9.51 9.94,14.1 -20.28,26.87 -51.44,43.75 -83.4,52.69 -20.55,5.5 -42.02,8.88 -63.32,6.89 3.02,-8.02 8.17,-14.97 12.01,-22.6 7.13,2.34 14.59,0.25 21.76,-0.78 38.32,-6.22 74.5,-23.96 103.01,-50.3zm374.87 -87.61c6.11,-11.49 9.25,-24.19 14.61,-36 -0.89,25.78 -8.18,51.22 -18.79,74.66 -17.62,38.36 -49.4,69.5 -87.31,87.78 -47.33,23.29 -102.36,32.07 -154.26,21.33 -32.48,-6.43 -63.33,-20.83 -89.06,-41.65 -5.95,-5.05 -12.49,-9.73 -16.67,-16.47 2.91,1.23 5.86,2.36 8.65,3.84 42.68,26.98 94.6,37.16 144.59,34.11 51.59,-4.4 101.24,-25.25 142.23,-56.58 23.9,-18.82 43.32,-43.38 56.01,-71.02zm763.27 -16.94c-0.45,-17.04 9.27,-33.66 24.03,-42.04 3.84,1.9 7.66,3.95 11.36,6.17 -13.76,8.75 -25.26,23.4 -24.37,40.46 0.5,19.91 16.31,35.38 33.52,43.06 -1.18,0.07 -3.52,0.2 -4.7,0.27 -21.48,-5.22 -39.57,-25.3 -39.84,-47.92zm-466.43 -45.47c19.28,-5.16 39.34,-3.71 59.05,-3.84 6.95,-0.05 13.83,0.93 20.63,2.43 -2.89,3.04 -6.07,5.77 -9.52,8.11 -19.83,13.9 -39.34,28.73 -54.99,47.38 -14.26,17.48 -25.05,37.72 -32.09,59.14 -10.18,-0.04 -19.81,-3.45 -29.28,-6.75 3.11,12.43 10.77,22.97 16.6,34.21 -6.27,11.13 -11.56,22.8 -17.8,33.96 -9.27,-12.79 -18.06,-26.08 -24.81,-40.39 -0.36,-0.93 -1.11,-2.79 -1.47,-3.72 7.9,-29.33 14.1,-59.53 28.53,-86.58 9.33,-18.92 22.94,-39.57 45.15,-43.95z"/>
  </g>
 </g>
</svg>
