<?xml version="1.0" encoding="UTF-8"?>
<!DOCTYPE svg PUBLIC "-//W3C//DTD SVG 1.1//EN" "http://www.w3.org/Graphics/SVG/1.1/DTD/svg11.dtd">
<!-- Creator: CorelDRAW -->
<svg xmlns="http://www.w3.org/2000/svg" xml:space="preserve" width="2000px" height="1600px" version="1.1" style="shape-rendering:geometricPrecision; text-rendering:geometricPrecision; image-rendering:optimizeQuality; fill-rule:evenodd; clip-rule:evenodd"
viewBox="0 0 2000 1600"
 xmlns:xlink="http://www.w3.org/1999/xlink">
 <defs>
  <style type="text/css">
   <![CDATA[
    .fil2 {fill:#FEFEFE}
    .fil0 {fill:#0A0D0B;fill-rule:nonzero}
    .fil1 {fill:#FDC327;fill-rule:nonzero}
   ]]>
  </style>
 </defs>
 <g id="Capa_x0020_1">
  <metadata id="CorelCorpID_0Corel-Layer"/>
  <g id="Southern_x0020_Miss_x0020_Golden_x0020_Eagles.cdr">
   <path class="fil0" d="M1024.93 935.46c28.67,-0.3 57.31,-0.02 85.98,-0.16 15.55,-0.05 33.7,6.93 38.83,22.97 2.42,16.61 -1.69,33.18 -3.25,49.67 -1.5,9.59 -1.21,20.05 -6.72,28.5 -5.48,9.07 -15.07,14.27 -24.02,19.32 3.23,29.14 12.27,57.31 16.42,86.34 -16.56,0.14 -33.1,0.12 -49.64,0.02 -6.62,-27.67 -9.54,-56.08 -15.97,-83.8 -3.11,-0.02 -6.22,-0.07 -9.31,-0.11 -4.32,27.67 -7.47,55.6 -10.06,83.51 -15.71,0.85 -31.42,0.43 -47.11,0.31 7.83,-68.9 16.33,-137.74 24.85,-206.57zm535.06 0.53c14.43,-1.31 28.96,-0.53 43.43,-0.5 -7.4,68.82 -16.85,137.5 -24.35,206.35 -14.45,0.64 -28.93,0.31 -43.4,0.28 1.09,-22.4 4.86,-44.54 7.42,-66.8 5.49,-46.47 11.14,-92.91 16.9,-139.33zm-668.15 0.54c4.84,-0.95 9.78,-1.37 14.74,-1.28 28.93,0.24 57.86,-0.07 86.79,0.17 -0.26,13.5 -2.61,26.84 -4.35,40.2 -19.36,0.42 -38.73,-0.45 -58.07,0.5 -1.49,12.1 -3.46,24.18 -4.1,36.4 14.5,0.24 29,0.05 43.5,0.12 -0.31,13.01 -1.66,25.91 -3.87,38.73 -14.79,0.17 -29.55,0.02 -44.33,0.1 -3.02,17.11 -4.99,34.43 -5.63,51.8 18.75,0.05 37.47,-0.19 56.2,0.1 -0.12,13.03 -1.92,25.89 -3.89,38.73 -33.73,0.16 -67.45,0.02 -101.2,0.05 7.69,-68.59 16.57,-137.03 24.21,-205.62zm889.38 17.37c10.28,-13.14 27.51,-18.86 43.76,-18.58 22.03,0.12 44.05,0.03 66.07,0.05 -0.59,13.48 -1.52,27.19 -5.6,40.13 -22,0.12 -44.09,-0.9 -66.02,0.31 -6.29,5.24 -4.39,14.88 -5.32,22.19 17.59,18.48 36.01,36.14 53.88,54.34 4.24,4.61 8.52,10.04 8.54,16.62 0.66,13.33 -1.59,26.55 -3.61,39.7 -3.98,19.6 -23.85,33.22 -43.28,33.41 -24.9,0.29 -49.79,-0.04 -74.69,0.15 0.17,-12.94 3.3,-25.56 3.44,-38.5 23.33,-0.92 46.68,0.15 70.01,-0.69 3.7,-8.21 5.1,-17.53 4.23,-26.43 -12.3,-14 -26.3,-26.49 -39.21,-39.94 -8.4,-9 -19.82,-16.78 -22.54,-29.55 -1.86,-6.05 0.21,-12.32 0.64,-18.44 1.49,-11.89 1.25,-25.25 9.7,-34.77zm-153.14 20.08c1.71,-22.54 24.06,-37.31 45.18,-38.47 24.26,-0.38 48.51,0 72.79,-0.14 -0.28,13.43 -2.47,26.74 -4.86,39.94 -22.83,0.36 -45.66,-0.5 -68.47,0.36 -3.06,7.09 -3.49,14.83 -3.68,22.44 17.42,17.9 35.22,35.41 52.88,53.09 5.22,5.39 9.87,12.3 9.68,20.11 0.35,11.7 -2.28,23.18 -3.42,34.76 -2.4,20.67 -23.11,35.51 -43.1,35.98 -25.03,0.38 -50.1,-0.07 -75.13,0.21 -0.24,-12.98 3.13,-25.63 3.42,-38.56 22.09,-0.95 44.23,0.24 66.35,-0.62 6.38,0.05 6.53,-8.02 7.21,-12.67 0.15,-5.53 3.42,-12.53 -1.75,-16.73 -16.83,-17.16 -34.08,-33.91 -50.88,-51.12 -13.25,-12.67 -7.05,-32.56 -6.22,-48.58zm-358.76 -38.54c14.88,-0.21 29.74,-0.07 44.62,-0.12 -2.66,37.57 -8.71,74.85 -12.79,112.28 -3.99,31.44 -6.98,63.01 -11.58,94.38 -12.94,0.35 -25.87,0.21 -38.78,0.17 -10.37,-32.11 -18.89,-64.77 -28.57,-97.09 -6.82,31.89 -7.46,64.81 -12.94,96.94 -15.33,0.33 -30.66,0.19 -45.97,0.1 4.08,-52.83 12.53,-105.25 18.01,-157.96 2.71,-16.26 2.69,-33.04 7.17,-48.91 16.09,0.21 32.21,0.04 48.32,0.12 4.56,13.43 8.26,27.14 12.34,40.72 3.44,11.51 5.53,23.59 11.27,34.27 2.85,-24.99 5.44,-49.98 8.9,-74.9zm-454.56 -0.21c15.26,0.14 30.52,-0.05 45.8,0.12 -7.26,68.87 -16.73,137.5 -24.39,206.32 -15.6,1.05 -31.24,0.38 -46.85,0.38 3.11,-31.78 8.83,-63.27 10.46,-95.16 -10.03,-0.08 -20.1,-0.69 -30.11,0.11 -3.85,5.42 -2.64,13.32 -4.01,19.75 -2.61,25.11 -5.48,50.19 -8.81,75.23 -15.49,0.38 -31.01,0.17 -46.51,0.17 0.43,-15.81 3.56,-31.33 5.15,-47.02 4.46,-41.96 10.25,-83.72 14.81,-125.66 1.63,-11.39 2.01,-22.92 4.79,-34.12 15.12,-0.05 30.26,-0.29 45.4,0.18 -0.52,22.93 -5.29,45.48 -6.6,68.38 10.52,0.28 21.05,0.28 31.59,0 4.11,-22.74 4.6,-46.04 9.28,-68.68zm-222.23 0.21c37.31,-0.24 74.62,-0.02 111.95,-0.12 0.04,13.43 -2.8,26.6 -3.66,39.99 -11.53,0.45 -23.09,0.24 -34.62,0.38 -8.19,55.25 -13.48,110.95 -20.84,166.34 -14.67,0.21 -29.33,0.35 -43.98,-0.15 5.89,-38.39 9.31,-77.12 14.41,-115.62 1.9,-16.85 4.77,-33.6 5.72,-50.55 -11.49,-0.16 -22.97,-0.04 -34.46,-0.26 1.78,-13.34 2.37,-26.89 5.48,-40.01zm-157.13 -0.09c14.39,0 28.74,-0.12 43.12,0.07 -5.52,46.89 -11.27,93.78 -17.01,140.66 -1.24,8.37 -2.49,16.75 -2.45,25.25 11.66,2.8 23.83,1.99 35.7,1.37 6.12,-0.61 6.19,-7.33 7,-12.08 5.17,-47.96 11.89,-95.76 16.99,-143.74 0.36,-3.99 1.64,-7.81 2.8,-11.61 14.12,0.41 28.31,-0.73 42.39,0.81 -6.34,55.89 -13.65,111.68 -19.94,167.6 -1.97,22.28 -23.83,38.42 -45.35,38.37 -16.66,0.12 -33.34,0.28 -49.98,-0.07 -12.58,-0.31 -25.39,-6.81 -31.26,-18.27 -6,-10.28 -2.56,-22.62 -1.21,-33.66 4.54,-38.73 9.19,-77.41 14.08,-116.07 1.59,-12.91 2.3,-25.94 5.12,-38.63zm928.66 206.63c8.66,-73.76 17.61,-147.49 26.6,-221.21 14.5,-0.16 29,-0.04 43.53,-0.09 7.88,19.24 13.05,39.46 20.27,58.97 11.29,-17.2 20.5,-35.67 31.08,-53.28 1.71,-2.44 3.3,-6.38 7.05,-5.64 13.25,-0.22 26.51,-0.03 39.78,0.09 -3.47,35.93 -8.71,71.72 -12.48,107.65 -5.27,37.76 -8.64,75.78 -14.01,113.51 -14.38,0.35 -28.76,0.24 -43.12,0.12 3.35,-38.76 10.35,-77.15 13.01,-115.96 -11.8,19.08 -21.29,39.56 -34.04,58.05 -5.22,-14.62 -10.17,-29.31 -14.61,-44.16 -1.29,-4.42 -3.35,-8.55 -5.84,-12.39 -4.75,38.14 -8.81,76.37 -14,114.43 -14.41,0.17 -28.81,0.24 -43.22,-0.09zm-1228.27 -203.12c9.99,-12.37 26.46,-18.92 42.19,-18.18 22.67,0.14 45.33,-0.07 67.99,0.14 -0.83,13.39 -2.82,26.68 -5,39.89 -21.77,0.34 -43.55,-0.42 -65.31,0.27 -4.61,-0.27 -5.58,5.24 -5.75,8.75 -0.28,5.96 -2.25,12.89 2.26,17.8 16.78,21.88 33.29,43.95 50.03,65.88 12.53,13.51 5.81,32.7 4.65,48.87 -1,22.37 -22.55,39.68 -44.19,39.79 -24.97,0.24 -49.96,0.12 -74.92,0.03 0.52,-12.91 2.96,-25.63 3.84,-38.5 23.31,-0.66 46.66,0.22 69.96,-0.59 2.3,-9.9 8.21,-22.14 0.88,-31.18 -16.75,-22.1 -33.51,-44.19 -50.26,-66.29 -5.41,-6.78 -8.67,-15.44 -7.12,-24.18 2.23,-14.36 1.16,-30.47 10.75,-42.5zm535.01 -504.28c91.42,-63.01 200.54,-101.72 311.82,-104.71 120.37,-1.71 240.09,37.64 338.91,105.84 5.86,4.04 11.7,8.15 16.59,13.39 -11.86,13.74 -22.05,28.93 -35.41,41.34 29,20.12 57.65,41.67 79.84,69.46 22.14,25.92 37.11,57.84 42.86,91.42 0.83,15.8 1.37,31.75 -0.55,47.49 -9.87,44.97 -41.2,82.04 -77.39,108.93 -5.01,-34.44 -33.17,-60.38 -63.93,-73.45 -34.06,-14.43 -71.93,-21.67 -108.79,-16.17 -30.28,2.95 -59.31,13.27 -86.79,25.92 -33.15,15.81 -64.34,36.12 -91.18,61.28 -38.49,-39.99 -86.55,-70.35 -138.87,-88.69 -80.84,-27.96 -168.98,-31.47 -252.73,-16.16 11.65,-23.59 29.88,-42.96 44.74,-64.46 -16.43,-1.33 -32.92,-0.73 -49.39,-0.83 -17.44,0.29 -35,-0.12 -52.3,2.68 -12.87,0.1 -25.4,3.71 -38.31,3.16 25.66,-42.36 58.17,-80.36 94.08,-114.39 26.88,-26.08 57.4,-48.08 88.56,-68.75 -16.18,-0.52 -32.3,-1.83 -48.48,-2.21 7.78,-8.35 17.51,-14.47 26.72,-21.09zm276.05 -63.96l0 0c-48.43,4.41 -96.59,15.16 -141.44,34.24 -10.49,4.61 -21.62,8.55 -30.28,16.31 23.33,1.4 46.84,0.26 69.98,4.32 -75.87,21.57 -144.17,65.76 -199.77,121.2 -9.69,10.01 -20.01,19.57 -28.13,30.99 9.43,-5.27 17.97,-11.94 27.01,-17.82 82.59,-54.23 174.79,-95.76 272.44,-113.13 19.09,-3.71 38.57,-3.28 57.79,-5.58 -18.6,-13.67 -42.81,-14.12 -63.67,-22.21 38.94,-4.42 78.81,-1 116.36,10.41 45.09,12.84 87.47,34.37 125.8,61.21 7.71,5.05 14.5,12.7 24.18,13.69 23.45,3.02 47.25,-4.17 67.24,-16.28 2.75,-1.45 4.7,-3.89 6.64,-6.26 -24.61,-19.27 -51.02,-36.1 -76.04,-54.8 32.73,10.11 63.3,26.06 92.7,43.45 5.25,-4.17 10.32,-8.75 13.96,-14.47 -22.88,-15.83 -47.16,-29.67 -72.77,-40.56 -26.98,-12.03 -55.62,-19.63 -83.87,-28 -31.87,-8.29 -64.4,-14.24 -97.25,-16.83 -26.94,-1.26 -53.94,-1.21 -80.88,0.12zm87.43 113.15l0 0c4.01,10.11 10.4,19.06 17.94,26.82 10.21,10.65 23.73,19.91 39.16,19.13 -7.4,-7.93 -16.9,-14.34 -21.74,-24.35 -3.27,-5.25 -3.58,-12.18 -7.4,-16.92 -8.67,-3.94 -18.51,-4.61 -27.96,-4.68zm-183.61 22.86l0 0c-40.78,14.26 -80.5,33.06 -115.2,58.97 14.19,-3.32 27.84,-8.52 41.82,-12.53 62.96,-18.04 128.06,-29.48 193.6,-30.81 4.87,-0.73 8.33,3.02 11.87,5.7 32.06,27.72 77.7,37.95 118.8,28.69 -28.5,-4.65 -58.02,-14.5 -77.46,-37.02 -8.71,-8.87 -12.96,-20.65 -17.78,-31.8 -1.3,-3.92 -6.17,-3.13 -9.35,-3.51 -49.57,-1.47 -99.36,6.26 -146.3,22.31zm370.79 37.28l0 0c-16.31,8.64 -33.89,14.55 -50.1,23.35 -31.42,16.78 -59.59,40.75 -78.72,70.98 10.06,0.15 19.93,-2.11 30,-2.2 50.57,-1.45 101.81,8.85 146.94,32.08 29.41,14.86 55.49,35.48 78.72,58.74 16.05,-19.86 23.95,-45.45 24.47,-70.77 0.38,-11.2 -2.25,-22.17 -2.99,-33.3 9.87,9.54 16.59,21.6 23.23,33.47 -1.4,-37.24 -24.75,-69.16 -49.88,-94.84 -20.74,-19.48 -43.12,-37.64 -68.18,-51.28 -16.97,12.55 -34.63,24.25 -53.49,33.77zm-147.14 133.23l0 0c-5.13,1.14 -9.4,4.46 -11.11,9.54 -5.96,13.29 -12.32,26.44 -17.04,40.23 28.81,-17.28 60.23,-31.12 93.69,-35.91 43.53,-6.93 87.79,-0.52 130.51,8.52 -22.26,-14.41 -48.04,-22.4 -73.76,-27.98 -40.39,-7.5 -82.9,-6.62 -122.29,5.6zm-766.38 259.53c15.09,-2.8 30.57,-0.64 45.83,-1.37 15.66,-0.9 33.69,3.6 42.29,17.89 6.69,10.7 3.08,23.66 1.78,35.29 -3.66,32.42 -7.69,64.79 -11.75,97.16 -1.42,10.49 -1.14,21.53 -5.56,31.35 -7.99,15.76 -25.72,25.46 -43.24,25.11 -15.87,0.05 -31.77,0.21 -47.65,-0.07 -14.74,0.04 -29.9,-9.28 -34.39,-23.64 -2.09,-13.29 1.07,-26.6 2.35,-39.8 4.58,-35.24 8.64,-70.58 12.63,-105.89 2.58,-18.87 19.67,-32.78 37.71,-36.03zm6.26 40.44l0 0c-4.88,34.44 -8.66,69.06 -13.07,103.57 -0.98,7.31 -1.43,14.74 -0.78,22.09 10.58,0.34 21.19,0.55 31.77,0.26 2.83,0.15 5.51,-0.87 7.62,-2.72 2.73,-8.43 2.99,-17.35 3.92,-26.09 4.36,-32.03 7.23,-64.24 11.72,-96.23 -13.1,-4.37 -27.7,-2.89 -41.18,-0.88zm753.09 -1.8l0 0c-2.37,14.19 -3.72,28.53 -5.48,42.81 12.77,0.31 25.56,0.29 38.35,-0.02 4.94,-13.62 5.44,-28.34 5.1,-42.67 -12.65,-0.48 -25.32,-0.41 -37.97,-0.12z"/>
   <path class="fil1" d="M1156.07 1269.73c15.19,-21.79 33.85,-41.15 47.04,-64.31 7.12,-0.15 14.26,-0.1 21.38,0.26 11.35,21.21 22.76,42.4 33.28,64.05 -8.29,0.38 -16.57,0.28 -24.85,0.07 -2.83,-3.18 -5.65,-6.31 -8.5,-9.42 -9.44,-0.1 -18.89,-0.62 -28.31,-0.03 -6.41,-0.09 -9.9,6.27 -15.07,9.07 -8.26,1.33 -16.66,0.43 -24.97,0.31zm255.19 -64.15c8.5,-0.26 17.02,-0.24 25.52,0.26 -1.78,17.26 -5.3,34.37 -5.01,51.79 17.8,0.49 35.72,-1.26 53.47,1.02 -0.86,3.7 -1.69,7.4 -2.57,11.1 -25.72,0.52 -51.45,0.17 -77.17,0.19 0.99,-21.55 6.74,-42.69 5.76,-64.36zm-545.74 0.12c9.57,0.02 19.37,-1.4 28.77,0.74 10.48,10.29 16.84,24.06 27.79,34.03 2.37,-11.54 2.77,-23.35 5.24,-34.89 7.74,-0.21 15.47,-0.19 23.19,0.19 -2.73,21.29 -4.92,42.62 -7.74,63.89 -8.52,0.26 -17.13,1.11 -25.61,-0.15 -11.65,-10.1 -17.44,-25.51 -29.9,-34.88 -0.69,11.75 -2.06,23.4 -3.58,35.05 -7.98,0.41 -15.97,0.43 -23.95,0.14 1.9,-21.38 6.84,-42.52 5.79,-64.12zm-344.16 -0.07c8.57,-0.29 17.14,-0.29 25.7,0.14 -1.78,17.28 -5.38,34.41 -5.19,51.88 17.84,0.5 35.78,-1.31 53.53,1 -0.8,3.7 -1.63,7.42 -2.51,11.15 -25.77,0.36 -51.55,0.31 -77.3,0.02 1.69,-21.43 6.82,-42.57 5.77,-64.19zm1112.51 29.78c-0.05,-10.37 -0.4,-25.75 11.56,-29.64 24.75,-0.62 49.57,-0.45 74.33,0 -0.5,4.72 -1.1,9.45 -1.85,14.15 -18.87,-3.94 -38.26,-2.47 -57.36,-2.07 -0.27,2.09 -0.76,6.27 -1,8.35 17.7,4.51 36.09,6.2 53.51,11.87 -0.09,8.88 1.21,18.51 -2.92,26.7 -3.67,6.26 -11.7,5.1 -17.82,5.32 -21.9,-0.31 -43.83,0.18 -65.74,-0.29 0.45,-4.34 0.88,-8.69 1.36,-13.03 19.5,1.23 39.08,0.81 58.64,0.64 0.95,-2.42 1.95,-4.86 2.94,-7.26 -18.13,-6.5 -37.8,-7.43 -55.65,-14.74zm-108.62 -29.99c26.2,-0.1 52.42,-0.03 78.65,-0.05 0,3.75 0.04,7.52 0.09,11.29 -17.89,1.31 -35.83,0.15 -53.78,0.65 -0.56,3.67 -1.13,7.35 -1.61,11.08 13.31,0.64 26.68,0.26 40.04,0.38 -0.22,3.56 -0.45,7.12 -0.72,10.7 -13.62,2.21 -27.45,0.5 -41.15,1.64 -0.38,5.43 -0.73,10.87 -0.99,16.33 17.8,0.37 35.62,-0.6 53.39,0.54 -0.71,3.94 -1.4,7.88 -2.11,11.84 -25.75,-0.16 -51.59,1 -77.29,-0.59 1.94,-21.26 6.74,-42.36 5.48,-63.81zm-235.07 18.1c0.15,-8.45 5.32,-19.17 15.19,-18.13 22.66,-0.09 45.35,-0.07 68.04,0.05 -0.5,4.2 -0.97,8.42 -1.42,12.65 -17.3,-1.21 -34.65,-1.21 -51.98,-0.81 -3.72,-0.52 -4.34,3.94 -5.12,6.5 -2.16,10.3 -2.8,20.86 -4.01,31.31 10.53,4.32 22.12,2.13 33.15,1.8 0.88,-6.98 0.97,-14.03 0.4,-21.03 8.76,-0.12 17.54,-0.16 26.32,0.12 -1.23,11.3 -2.35,22.59 -4.46,33.77 -21.14,0.45 -42.29,0.07 -63.43,0.26 -5.65,0.1 -13.74,-0.4 -15.5,-6.97 -1.54,-13.22 2.09,-26.35 2.82,-39.52zm-228.04 -18.15c26.25,0.02 52.5,-0.05 78.72,0.05 0,3.63 0,7.28 0.05,10.94 -17.8,1.94 -35.74,0.35 -53.59,0.87 -0.92,3.44 -1.78,6.91 -2.61,10.4 13.62,2.06 27.43,0.69 41.15,1.3 -0.76,3.87 -1.56,7.76 -2.35,11.63 -13.14,0.24 -26.29,-0.02 -39.44,0.22 -0.71,5.41 -1.28,10.84 -1.71,16.3 17.59,0.88 35.17,0.12 52.76,0.4 -0.26,4.11 -0.69,8.19 -1.12,12.3 -25.7,0.33 -51.42,0.26 -77.15,0.02 0.66,-21.57 6.45,-42.76 5.29,-64.43zm-310.41 -0.05c26.29,0.19 52.59,-0.1 78.88,0.14 -0.42,3.87 -0.85,7.72 -1.28,11.61 -17.75,0.5 -35.5,-0.07 -53.25,0.24 -0.26,3.6 -0.5,7.23 -0.69,10.89 13.12,0.97 26.29,0.45 39.46,0.52 -0.21,3.63 -0.45,7.26 -0.68,10.92 -13.53,1.85 -27.22,0.71 -40.82,1.04 -0.5,5.51 -0.79,11.04 -0.9,16.59 17.61,0.57 35.24,-0.14 52.87,0.36 -0.69,4.05 -1.35,8.11 -1.99,12.19 -25.68,0.22 -51.36,0.24 -77.04,-0.02 0.14,-21.64 7.17,-42.74 5.44,-64.48zm-467.24 13.58c0.86,-6.32 5.25,-13.79 12.46,-13.41 23.35,-0.19 46.75,-0.38 70.11,0.21 -0.65,4.67 -1.38,9.33 -2.21,13.98 -17.54,-3.97 -35.79,-2.76 -53.59,-1.97 -0.66,0.66 -1.97,2.02 -2.63,2.68 -2.83,12.1 -3.94,24.59 -3.87,37 10.68,0.21 21.36,0.19 32.04,0.09 1.18,-7.19 1.52,-14.47 1.14,-21.71 8.37,-0.03 16.75,-0.03 25.15,0.14 -0.59,11.32 -1.54,22.64 -3.42,33.84 -22.49,0.36 -45.01,0.29 -67.51,0.12 -5.25,0.38 -11.68,-3.01 -11.44,-8.9 -0.74,-14.12 1.85,-28.14 3.77,-42.07zm789.83 -541.76c39.39,-12.22 81.9,-13.1 122.29,-5.6 25.72,5.58 51.5,13.57 73.76,27.98 -42.72,-9.04 -86.98,-15.45 -130.51,-8.52 -33.46,4.79 -64.88,18.63 -93.69,35.91 4.72,-13.79 11.08,-26.94 17.04,-40.23 1.71,-5.08 5.98,-8.4 11.11,-9.54zm147.14 -133.23c18.86,-9.52 36.52,-21.22 53.49,-33.77 25.06,13.64 47.44,31.8 68.18,51.28 25.13,25.68 48.48,57.6 49.88,94.84 -6.64,-11.87 -13.36,-23.93 -23.23,-33.47 0.74,11.13 3.37,22.1 2.99,33.3 -0.52,25.32 -8.42,50.91 -24.47,70.77 -23.23,-23.26 -49.31,-43.88 -78.72,-58.74 -45.13,-23.23 -96.37,-33.53 -146.94,-32.08 -10.07,0.09 -19.94,2.35 -30,2.2 19.13,-30.23 47.3,-54.2 78.72,-70.98 16.21,-8.8 33.79,-14.71 50.1,-23.35zm-370.79 -37.28c46.94,-16.05 96.73,-23.78 146.3,-22.31 3.18,0.38 8.05,-0.41 9.35,3.51 4.82,11.15 9.07,22.93 17.78,31.8 19.44,22.52 48.96,32.37 77.46,37.02 -41.1,9.26 -86.74,-0.97 -118.8,-28.69 -3.54,-2.68 -7,-6.43 -11.87,-5.7 -65.54,1.33 -130.64,12.77 -193.6,30.81 -13.98,4.01 -27.63,9.21 -41.82,12.53 34.7,-25.91 74.42,-44.71 115.2,-58.97zm96.18 -136.01c26.94,-1.33 53.94,-1.38 80.88,-0.12 32.85,2.59 65.38,8.54 97.25,16.83 28.25,8.37 56.89,15.97 83.87,28 25.61,10.89 49.89,24.73 72.77,40.56 -3.64,5.72 -8.71,10.3 -13.96,14.47 -29.4,-17.39 -59.97,-33.34 -92.7,-43.45 25.02,18.7 51.43,35.53 76.04,54.8 -1.94,2.37 -3.89,4.81 -6.64,6.26 -19.99,12.11 -43.79,19.3 -67.24,16.28 -9.68,-0.99 -16.47,-8.64 -24.18,-13.69 -38.33,-26.84 -80.71,-48.37 -125.8,-61.21 -37.55,-11.41 -77.42,-14.83 -116.36,-10.41 20.86,8.09 45.07,8.54 63.67,22.21 -19.22,2.3 -38.7,1.87 -57.79,5.58 -97.65,17.37 -189.85,58.9 -272.44,113.13 -9.04,5.88 -17.58,12.55 -27.01,17.82 8.12,-11.42 18.44,-20.98 28.13,-30.99 55.6,-55.44 123.9,-99.63 199.77,-121.2 -23.14,-4.06 -46.65,-2.92 -69.98,-4.32 8.66,-7.76 19.79,-11.7 30.28,-16.31 44.85,-19.08 93.01,-29.83 141.44,-34.24zm-825.78 584.8c3.49,-24.63 28.39,-41.41 52.17,-41.77 26.88,-0.12 53.77,-0.07 80.66,-0.02 -1.26,22.9 -4.67,45.68 -8.78,68.23 -11.27,-4.49 -20.88,-14.5 -33.65,-14 -11.27,-0.14 -22.57,0.04 -33.84,0.12 -3.49,10.11 3.25,18.32 9.3,25.63 13.17,16.92 25.65,34.36 38.87,51.26 5.29,7.02 11.16,14.74 10.87,24.01 0.17,16.24 -0.97,32.78 -5.84,48.35 -8.73,21.5 -32.65,33.22 -55.05,33.08 -25.26,-0.05 -50.55,0.81 -75.78,-0.52 0.4,-22.76 4.6,-45.21 6.64,-67.83 11.8,3.09 20.63,13.96 33.32,13.88 12.39,0.17 24.8,0.43 37.14,-0.9 0.1,-5.22 0.6,-10.44 -0.07,-15.64 -1.78,-4.15 -4.7,-7.69 -7.38,-11.27 -13.95,-17.73 -27.17,-36 -41.01,-53.82 -5.64,-7.48 -11.41,-15.95 -11.13,-25.75 -0.07,-11.11 2.16,-22.07 3.56,-33.04zm14.72 -16.56l0 0c-9.59,12.03 -8.52,28.14 -10.75,42.5 -1.55,8.74 1.71,17.4 7.12,24.18 16.75,22.1 33.51,44.19 50.26,66.29 7.33,9.04 1.42,21.28 -0.88,31.18 -23.3,0.81 -46.65,-0.07 -69.96,0.59 -0.88,12.87 -3.32,25.59 -3.84,38.5 24.96,0.09 49.95,0.21 74.92,-0.03 21.64,-0.11 43.19,-17.42 44.19,-39.79 1.16,-16.17 7.88,-35.36 -4.65,-48.87 -16.74,-21.93 -33.25,-44 -50.03,-65.88 -4.51,-4.91 -2.54,-11.84 -2.26,-17.8 0.17,-3.51 1.14,-9.02 5.75,-8.75 21.76,-0.69 43.54,0.07 65.31,-0.27 2.18,-13.21 4.17,-26.5 5,-39.89 -22.66,-0.21 -45.32,0 -67.99,-0.14 -15.73,-0.74 -32.2,5.81 -42.19,18.18zm1233.66 -25.13c23.54,-0.36 47.08,-0.1 70.65,-0.2 6.52,15.12 10.37,31.19 16.04,46.64 12.27,-13.48 18.25,-31.42 28.5,-46.4 18.42,-0.45 36.86,-0.21 55.27,-0.16 -1.61,34.41 -7.64,68.46 -11.32,102.68 -5.15,44.22 -10.65,88.38 -15.94,132.57 -18.97,2.85 -38.31,1.69 -57.36,0.83 0.45,-29.54 7.9,-58.52 8.66,-88.07 -8.64,13.27 -15.29,27.67 -24.04,40.85 -6.03,-13.18 -9.07,-27.44 -14.41,-40.87 -6.22,28.76 -6.52,58.55 -11.65,87.55 -19.2,2.11 -38.73,1.97 -57.91,0.04 7.34,-66.37 15.76,-132.63 23.9,-198.89 2.3,-13.27 -7.02,-24.38 -10.39,-36.57zm-5.39 228.25l0 0c14.41,0.33 28.81,0.26 43.22,0.09 5.19,-38.06 9.25,-76.29 14,-114.43 2.49,3.84 4.55,7.97 5.84,12.39 4.44,14.85 9.39,29.54 14.61,44.16 12.75,-18.49 22.24,-38.97 34.04,-58.05 -2.66,38.81 -9.66,77.2 -13.01,115.96 14.36,0.12 28.74,0.23 43.12,-0.12 5.37,-37.73 8.74,-75.75 14.01,-113.51 3.77,-35.93 9.01,-71.72 12.48,-107.65 -13.27,-0.12 -26.53,-0.31 -39.78,-0.09 -3.75,-0.74 -5.34,3.2 -7.05,5.64 -10.58,17.61 -19.79,36.08 -31.08,53.28 -7.22,-19.51 -12.39,-39.73 -20.27,-58.97 -14.53,0.05 -29.03,-0.07 -43.53,0.09 -8.99,73.72 -17.94,147.45 -26.6,221.21zm-1059.3 -212c15.31,-3.13 31.06,-1.21 46.59,-1.76 15.16,-0.4 32.18,0.46 43.83,11.52 9.89,8.35 14.05,21.78 12.03,34.43 -5.53,42.98 -10.66,86.03 -15.35,129.1 -1.86,16.4 -12.13,31.4 -26.84,38.92 -11.23,6.77 -24.62,7.6 -37.38,8.12 -16.43,0.14 -32.99,0.69 -49.25,-2.14 -18.72,-3.77 -34.74,-22.26 -31.85,-41.84 6.03,-45.51 11.18,-91.15 17.12,-136.69 2.98,-20.7 21.83,-34.94 41.1,-39.66zm3.18 6.69l0 0c-18.04,3.25 -35.13,17.16 -37.71,36.03 -3.99,35.31 -8.05,70.65 -12.63,105.89 -1.28,13.2 -4.44,26.51 -2.35,39.8 4.49,14.36 19.65,23.68 34.39,23.64 15.88,0.28 31.78,0.12 47.65,0.07 17.52,0.35 35.25,-9.35 43.24,-25.11 4.42,-9.82 4.14,-20.86 5.56,-31.35 4.06,-32.37 8.09,-64.74 11.75,-97.16 1.3,-11.63 4.91,-24.59 -1.78,-35.29 -8.6,-14.29 -26.63,-18.79 -42.29,-17.89 -15.26,0.73 -30.74,-1.43 -45.83,1.37zm106.39 -8.02c23.87,-0.66 47.8,-0.66 71.67,-0.07 -4.03,55.65 -14.52,110.74 -18.27,166.41 8.52,0.83 17.11,0.83 25.6,-0.12 7.46,-55.2 13.53,-110.61 20.34,-165.89 19.25,-1.47 38.64,-0.71 57.93,-0.45 -0.21,14.91 -3.04,29.57 -4.7,44.36 -4.67,43.78 -10.82,87.38 -15.59,131.14 -1.4,18.35 -15.21,33.61 -31.54,40.8 -9.59,4.53 -20.43,4.6 -30.8,5.41 -17.04,0.16 -34.3,1.07 -51.15,-2.16 -13.83,-3.32 -26.58,-13.79 -30.21,-27.89 -2.16,-11.6 0.34,-23.35 1.59,-34.91 4.18,-33.25 8.21,-66.49 12.11,-99.77 1.16,-10.58 3.7,-21.26 2.13,-31.92 -2.47,-8.51 -6.36,-16.51 -9.11,-24.94zm21.07 6.7l0 0c-2.82,12.69 -3.53,25.72 -5.12,38.63 -4.89,38.66 -9.54,77.34 -14.08,116.07 -1.35,11.04 -4.79,23.38 1.21,33.66 5.87,11.46 18.68,17.96 31.26,18.27 16.64,0.35 33.32,0.19 49.98,0.07 21.52,0.05 43.38,-16.09 45.35,-38.37 6.29,-55.92 13.6,-111.71 19.94,-167.6 -14.08,-1.54 -28.27,-0.4 -42.39,-0.81 -1.16,3.8 -2.44,7.62 -2.8,11.61 -5.1,47.98 -11.82,95.78 -16.99,143.74 -0.81,4.75 -0.88,11.47 -7,12.08 -11.87,0.62 -24.04,1.43 -35.7,-1.37 -0.04,-8.5 1.21,-16.88 2.45,-25.25 5.74,-46.88 11.49,-93.77 17.01,-140.66 -14.38,-0.19 -28.73,-0.07 -43.12,-0.07zm150.51 -7.01c42.48,-0.04 84.99,-0.4 127.47,0.19 -1.64,18.11 -4.47,36.1 -6.58,54.16 -11.48,0.17 -23.02,-0.33 -34.48,0.78 -7.55,55.06 -13.03,110.43 -20.39,165.51 -19.08,2.59 -38.58,1.85 -57.76,0.47 4.84,-55.62 13.67,-110.87 19.18,-166.45 -11.18,-0.31 -22.38,-0.26 -33.59,-0.24 0.29,-18.27 2.92,-36.45 6.15,-54.42zm6.62 7.1l0 0c-3.11,13.12 -3.7,26.67 -5.48,40.01 11.49,0.22 22.97,0.1 34.46,0.26 -0.95,16.95 -3.82,33.7 -5.72,50.55 -5.1,38.5 -8.52,77.23 -14.41,115.62 14.65,0.5 29.31,0.36 43.98,0.15 7.36,-55.39 12.65,-111.09 20.84,-166.34 11.53,-0.14 23.09,0.07 34.62,-0.38 0.86,-13.39 3.7,-26.56 3.66,-39.99 -37.33,0.1 -74.64,-0.12 -111.95,0.12zm135.82 -7.22c20.34,-0.14 40.68,-0.26 61.02,0.1 -1.05,23.02 -5.82,45.66 -7.62,68.61 5.74,0.02 11.48,0.02 17.25,0 3.16,-22.64 5.58,-45.38 8.24,-68.09 20.31,-1.4 40.72,-0.73 61.08,-0.35 -0.07,14.92 -2.92,29.61 -4.67,44.4 -6.29,58.64 -14.86,117.02 -20.44,175.73 -20.31,3.26 -41.19,2.14 -61.65,0.74 2.09,-31.9 8.3,-63.46 9.94,-95.38 -5.29,-0.05 -10.58,-0.05 -15.87,-0.09 -5.82,31.49 -7.67,63.6 -12.2,95.28 -20.41,2.42 -41.06,1.21 -61.56,0.78 3.2,-38.99 9.28,-77.72 13.62,-116.62 1.97,-12.93 -6.93,-23.8 -10.42,-35.67 4.87,-0.52 9.73,-0.92 14.6,-1.39 3.55,-22.6 4.72,-45.5 8.68,-68.05zm86.41 7.01l0 0c-4.68,22.64 -5.17,45.94 -9.28,68.68 -10.54,0.28 -21.07,0.28 -31.59,0 1.31,-22.9 6.08,-45.45 6.6,-68.38 -15.14,-0.47 -30.28,-0.23 -45.4,-0.18 -2.78,11.2 -3.16,22.73 -4.79,34.12 -4.56,41.94 -10.35,83.7 -14.81,125.66 -1.59,15.69 -4.72,31.21 -5.15,47.02 15.5,0 31.02,0.21 46.51,-0.17 3.33,-25.04 6.2,-50.12 8.81,-75.23 1.37,-6.43 0.16,-14.33 4.01,-19.75 10.01,-0.8 20.08,-0.19 30.11,-0.11 -1.63,31.89 -7.35,63.38 -10.46,95.16 15.61,0 31.25,0.67 46.85,-0.38 7.66,-68.82 17.13,-137.45 24.39,-206.32 -15.28,-0.17 -30.54,0.02 -45.8,-0.12zm70.82 -6.34c38.73,-1.33 77.55,-0.64 116.33,-0.33 -1.64,18.03 -3.23,36.12 -6.1,54.04 -19.44,1.02 -38.97,-1.03 -58.33,1.16 -1.09,6.67 -1.52,13.43 -1.57,20.19 14.45,0.48 28.93,0.12 43.38,0.19 -0.9,18.35 -3.79,36.53 -6.26,54.71 -14.88,0.66 -29.83,-0.62 -44.67,1.06 -1.47,11.82 -3.46,23.62 -3.96,35.56 18.94,0.66 37.9,0.11 56.84,0.18 -0.33,18.04 -3.25,35.93 -5.93,53.76 -19.63,2.16 -39.42,0.5 -59.12,0.97 -18.87,-0.45 -37.8,1.14 -56.58,-1.16 0.62,-15.83 3.44,-31.45 5.3,-47.16 6.71,-57.76 13.83,-115.45 20.67,-173.17zm6.26 7.64l0 0c-7.64,68.59 -16.52,137.03 -24.21,205.62 33.75,-0.03 67.47,0.11 101.2,-0.05 1.97,-12.84 3.77,-25.7 3.89,-38.73 -18.73,-0.29 -37.45,-0.05 -56.2,-0.1 0.64,-17.37 2.61,-34.69 5.63,-51.8 14.78,-0.08 29.54,0.07 44.33,-0.1 2.21,-12.82 3.56,-25.72 3.87,-38.73 -14.5,-0.07 -29,0.12 -43.5,-0.12 0.64,-12.22 2.61,-24.3 4.1,-36.4 19.34,-0.95 38.71,-0.08 58.07,-0.5 1.74,-13.36 4.09,-26.7 4.35,-40.2 -28.93,-0.24 -57.86,0.07 -86.79,-0.17 -4.96,-0.09 -9.9,0.33 -14.74,1.28zm126.02 -7.78c30.16,-1.19 60.35,-0.12 90.54,-0.57 13.74,-0.38 28.45,2.25 38.84,11.93 9.33,8.38 13.2,21.91 10.9,34.11 -2.66,17.77 -3.66,35.79 -6.79,53.47 -3.27,14.76 -15.85,24.53 -27.77,32.51 5.3,29.83 13.25,59.19 17.76,89.14 -21.74,1.7 -43.79,1.92 -65.5,-0.1 -5.39,-22.83 -7.62,-46.3 -13.65,-68.99 -4.18,22.78 -5.44,45.99 -9.16,68.85 -20.03,2.42 -40.42,1.59 -60.52,0.54 -0.09,-19.08 4.27,-37.78 5.89,-56.74 6.24,-54.72 13.64,-109.36 19.46,-164.15zm7.07 6.71l0 0c-8.52,68.83 -17.02,137.67 -24.85,206.57 15.69,0.12 31.4,0.54 47.11,-0.31 2.59,-27.91 5.74,-55.84 10.06,-83.51 3.09,0.04 6.2,0.09 9.31,0.11 6.43,27.72 9.35,56.13 15.97,83.8 16.54,0.1 33.08,0.12 49.64,-0.02 -4.15,-29.03 -13.19,-57.2 -16.42,-86.34 8.95,-5.05 18.54,-10.25 24.02,-19.32 5.51,-8.45 5.22,-18.91 6.72,-28.5 1.56,-16.49 5.67,-33.06 3.25,-49.67 -5.13,-16.04 -23.28,-23.02 -38.83,-22.97 -28.67,0.14 -57.31,-0.14 -85.98,0.16zm141.7 -6.78c25.47,-0.46 51.05,-1.26 76.49,0.35 5.01,13.79 8.45,28.05 11.99,42.24 0.8,-0.45 2.39,-1.37 3.2,-1.82 0.78,-13.41 2.9,-26.7 3.82,-40.09 20.1,-2.35 40.44,-0.9 60.64,-0.83 -6.2,54.61 -12.98,109.17 -19.65,163.73 -2.95,19.37 -3.11,39.18 -7.91,58.24 -16.7,-0.1 -33.39,0.12 -50.09,-0.14 -7.86,-22.12 -12.58,-45.26 -20.6,-67.35 -3.99,21.8 -5.32,43.99 -8.48,65.92 -20.24,3.09 -40.89,1.05 -61.27,1.26 0.16,-16.8 3.49,-33.32 5.2,-49.98 4.69,-36.55 8.49,-73.21 13.38,-109.71 1.14,-12.3 4.41,-24.66 2.61,-37.02 -2.63,-8.43 -6.69,-16.38 -9.33,-24.8zm102.69 6.76l0 0c-3.46,24.92 -6.05,49.91 -8.9,74.9 -5.74,-10.68 -7.83,-22.76 -11.27,-34.27 -4.08,-13.58 -7.78,-27.29 -12.34,-40.72 -16.11,-0.08 -32.23,0.09 -48.32,-0.12 -4.48,15.87 -4.46,32.65 -7.17,48.91 -5.48,52.71 -13.93,105.13 -18.01,157.96 15.31,0.09 30.64,0.23 45.97,-0.1 5.48,-32.13 6.12,-65.05 12.94,-96.94 9.68,32.32 18.2,64.98 28.57,97.09 12.91,0.04 25.84,0.18 38.78,-0.17 4.6,-31.37 7.59,-62.94 11.58,-94.38 4.08,-37.43 10.13,-74.71 12.79,-112.28 -14.88,0.05 -29.74,-0.09 -44.62,0.12zm284.17 -5.46c2.63,-2.73 7,-1.28 10.42,-1.83 15.71,0.17 31.42,-0.3 47.13,0.48 -2.44,38.23 -8.83,76.11 -12.89,114.17 -4.01,35.6 -8.68,71.13 -12.98,106.7 -19.2,1.81 -38.54,0.95 -57.76,0.52 -0.62,-11.89 2.25,-23.54 3.56,-35.29 5.76,-51.61 12.69,-103.09 18.44,-154.7 1.61,-10 1.16,-20.29 4.08,-30.05zm6.5 6.01l0 0c-5.76,46.42 -11.41,92.86 -16.9,139.33 -2.56,22.26 -6.33,44.4 -7.42,66.8 14.47,0.03 28.95,0.36 43.4,-0.28 7.5,-68.85 16.95,-137.53 24.35,-206.35 -14.47,-0.03 -29,-0.81 -43.43,0.5zm62.77 27.5c7.34,-22.76 32.3,-35.38 55.11,-35.19 25.63,0.12 51.28,-0.41 76.94,0.33 -3.28,22.83 -4.42,46.06 -9.57,68.58 -9.06,-4.69 -17.37,-11.1 -27.22,-14.09 -13.48,-1.28 -27.07,-0.5 -40.6,-0.15 -0.03,5.08 -1.85,11.21 2.75,14.98 16.66,17.37 34.36,33.75 50.83,51.31 13.1,14.71 6.6,35.6 5.27,53.16 -0.9,17.23 -12,32.87 -27.34,40.39 -20.45,10.82 -44.38,6.88 -66.56,7.62 -13.91,-0.74 -28.36,2.11 -41.84,-2.35 4.7,-22 3.77,-44.9 9.89,-66.55 9.09,4.58 17.23,11.61 27.29,13.94 13.79,0.83 27.7,0.87 41.46,-0.65 -0.28,-6.4 2.61,-14.45 -3.32,-19.08 -15.3,-15.47 -30.99,-30.56 -46.11,-46.18 -7.62,-7.74 -13.03,-18.2 -12.01,-29.31 1,-12.31 1.92,-24.77 5.03,-36.76zm5.32 10.49l0 0c-0.83,16.02 -7.03,35.91 6.22,48.58 16.8,17.21 34.05,33.96 50.88,51.12 5.17,4.2 1.9,11.2 1.75,16.73 -0.68,4.65 -0.83,12.72 -7.21,12.67 -22.12,0.86 -44.26,-0.33 -66.35,0.62 -0.29,12.93 -3.66,25.58 -3.42,38.56 25.03,-0.28 50.1,0.17 75.13,-0.21 19.99,-0.47 40.7,-15.31 43.1,-35.98 1.14,-11.58 3.77,-23.06 3.42,-34.76 0.19,-7.81 -4.46,-14.72 -9.68,-20.11 -17.66,-17.68 -35.46,-35.19 -52.88,-53.09 0.19,-7.61 0.62,-15.35 3.68,-22.44 22.81,-0.86 45.64,0 68.47,-0.36 2.39,-13.2 4.58,-26.51 4.86,-39.94 -24.28,0.14 -48.53,-0.24 -72.79,0.14 -21.12,1.16 -43.47,15.93 -45.18,38.47zm146.02 -22.45c11.08,-15.16 29.91,-23.61 48.56,-23.23 25.77,0.09 51.57,-0.34 77.34,0.28 -2.44,23.04 -5.96,45.95 -8.83,68.94 -9.56,-4.58 -18.13,-11.41 -28.36,-14.43 -13.29,-1.09 -26.7,-0.83 -39.94,0.24 -0.5,3.35 -0.97,6.67 -1.45,10.02 11.87,13.76 25.44,25.89 38.05,38.94 8.54,9.07 19.55,16.97 23.3,29.4 1.97,9.43 0.74,19.13 0.05,28.63 -1.59,12.88 -2.11,26.98 -10.8,37.47 -11.77,16.09 -32.37,22.71 -51.64,22.61 -24.44,-0.23 -48.91,0.72 -73.31,-0.57 1.54,-22.87 2.99,-46.04 8.21,-68.42 9.12,4.51 17.19,11.54 27.2,14.01 13.81,0.97 27.77,0.76 41.58,-0.45 -0.4,-6.58 2.63,-14.69 -2.94,-19.77 -16.17,-16.97 -33.42,-32.9 -49.51,-49.94 -7.43,-7.78 -10.39,-18.98 -8.61,-29.49 2.18,-14.98 1.92,-31.43 11.1,-44.24zm7.12 2.37l0 0c-8.45,9.52 -8.21,22.88 -9.7,34.77 -0.43,6.12 -2.5,12.39 -0.64,18.44 2.72,12.77 14.14,20.55 22.54,29.55 12.91,13.45 26.91,25.94 39.21,39.94 0.87,8.9 -0.53,18.22 -4.23,26.43 -23.33,0.84 -46.68,-0.23 -70.01,0.69 -0.14,12.94 -3.27,25.56 -3.44,38.5 24.9,-0.19 49.79,0.14 74.69,-0.15 19.43,-0.19 39.3,-13.81 43.28,-33.41 2.02,-13.15 4.27,-26.37 3.61,-39.7 -0.02,-6.58 -4.3,-12.01 -8.54,-16.62 -17.87,-18.2 -36.29,-35.86 -53.88,-54.34 0.93,-7.31 -0.97,-16.95 5.32,-22.19 21.93,-1.21 44.02,-0.19 66.02,-0.31 4.08,-12.94 5.01,-26.65 5.6,-40.13 -22.02,-0.02 -44.04,0.07 -66.07,-0.05 -16.25,-0.28 -33.48,5.44 -43.76,18.58zm-713.93 21.41c12.65,-0.29 25.32,-0.36 37.97,0.12 0.34,14.33 -0.16,29.05 -5.1,42.67 -12.79,0.31 -25.58,0.33 -38.35,0.02 1.76,-14.28 3.11,-28.62 5.48,-42.81zm7.1 7.19l0 0c-2.42,9.3 -3.14,18.91 -3.37,28.5 8,0.12 16.02,0.07 24.02,-0.19 1.49,-9.35 2.68,-18.75 2.8,-28.21 -7.81,-0.19 -15.64,-0.19 -23.45,-0.1zm-760.19 -5.39c13.48,-2.01 28.08,-3.49 41.18,0.88 -4.49,31.99 -7.36,64.2 -11.72,96.23 -0.93,8.74 -1.19,17.66 -3.92,26.09 -2.11,1.85 -4.79,2.87 -7.62,2.72 -10.58,0.29 -21.19,0.08 -31.77,-0.26 -0.65,-7.35 -0.2,-14.78 0.78,-22.09 4.41,-34.51 8.19,-69.13 13.07,-103.57zm6.58 6.6l0 0c-4.96,37.12 -9.64,74.33 -13.36,111.61 8.75,0.48 17.56,0.45 26.29,-0.57 2.73,-18.03 4.23,-36.24 6.53,-54.34 1.42,-19.13 5.79,-38 5.93,-57.25 -8.47,-0.64 -16.99,-0.85 -25.39,0.55zm314.4 221.71c22.52,-0.12 45.04,0 67.56,-0.12 4.75,0.16 10.92,-0.5 13.03,4.93 3.42,8.67 -0.5,18.25 -0.71,27.27 -2.11,9.47 0.36,21.45 -7.66,28.57 -4.28,4.47 -10.9,3.75 -16.52,3.97 -20.36,-0.24 -40.7,0.14 -61.06,-0.24 0.73,-21.57 6.71,-42.74 5.36,-64.38zm24.89 11.91l0 0c-2.32,13.27 -3.84,26.67 -4.39,40.15 9.69,-0.12 19.39,0.67 29.03,-0.42 2.89,-0.15 4.22,-3.4 4.48,-5.87 1.78,-10.96 2.92,-22.04 3.23,-33.15 -10.73,-1.54 -21.57,-0.97 -32.35,-0.71zm-250.7 -10.02c3.82,-2.49 8.73,-1.59 13.05,-1.92 16.71,0.26 33.42,-0.14 50.1,0.14 6.48,-0.57 13.72,5.63 12.06,12.42 -2,12.86 -3.3,25.79 -5.25,38.66 -0.73,7.11 -6.74,13.64 -14.19,13.29 -18.89,0.21 -37.81,0.28 -56.7,-0.05 -5.86,0.4 -10.98,-5.2 -10.6,-10.92 0.21,-10.77 2.3,-21.41 3.48,-32.08 1.24,-6.86 1.1,-15.67 8.05,-19.54zm18.63 12.04l0 0c-4.82,11.62 -4.56,24.7 -4.96,37.14 10.54,1.71 21.29,1.59 31.85,0.07 1.99,-12.84 4.36,-25.68 4.22,-38.71 -10.23,0.29 -21.64,-2.66 -31.11,1.5zm772.29 28.95l0 0c6.5,0.14 13,0.14 19.53,0.05 -2.38,-5.27 -4.89,-10.47 -7.55,-15.57 -4.82,4.48 -8.92,9.68 -11.98,15.52z"/>
   <path class="fil2" d="M1052.22 510.59c10.21,10.65 23.73,19.91 39.16,19.13 -7.4,-7.93 -16.9,-14.34 -21.74,-24.35 -3.27,-5.25 -3.58,-12.18 -7.4,-16.92 -8.67,-3.94 -18.51,-4.61 -27.96,-4.68 4.01,10.11 10.4,19.06 17.94,26.82z"/>
  </g>
 </g>
</svg>
