<?xml version="1.0" encoding="UTF-8"?>
<!DOCTYPE svg PUBLIC "-//W3C//DTD SVG 1.1//EN" "http://www.w3.org/Graphics/SVG/1.1/DTD/svg11.dtd">
<!-- Creator: CorelDRAW -->
<svg xmlns="http://www.w3.org/2000/svg" xml:space="preserve" width="2000px" height="1600px" version="1.1" style="shape-rendering:geometricPrecision; text-rendering:geometricPrecision; image-rendering:optimizeQuality; fill-rule:evenodd; clip-rule:evenodd"
viewBox="0 0 2000 1600"
 xmlns:xlink="http://www.w3.org/1999/xlink">
 <defs>
  <style type="text/css">
   <![CDATA[
    .fil1 {fill:#00529B;fill-rule:nonzero}
    .fil0 {fill:#FEFEFE;fill-rule:nonzero}
    .fil2 {fill:#FFC422;fill-rule:nonzero}
   ]]>
  </style>
 </defs>
 <g id="Capa_x0020_1">
  <metadata id="CorelCorpID_0Corel-Layer"/>
  <g id="Southern_x0020_Jaguars.cdr">
   <path class="fil0" d="M1394.37 315.6c-0.23,-4.94 3.75,-8.48 6.31,-12.25 3.27,5.69 6.4,11.47 9.61,17.21 3.72,-5.55 4.96,-13.49 10.95,-17.15 2.33,3.57 5.05,7.57 4.05,12.1 -0.76,5.12 -5.81,7.57 -9.17,10.86l-1.42 0.67c-4.57,1.32 -9.42,1.39 -13.79,-0.58 -3.04,-2.97 -6.45,-6.31 -6.54,-10.86zm-1050.68 671.73c23.82,36.93 62.72,60.78 102.53,77.29 49.24,20.1 101.76,30.87 154.43,37.02 -9.22,29.09 -19.51,57.83 -28.93,86.88 -45.19,1.41 -90.58,0 -135.49,-5.33 -17.7,-2.27 -35.26,-5.61 -52.46,-10.38 -31.97,-8.21 -65.54,-13.95 -98.47,-8.49 19.35,-59.04 39.13,-117.93 58.39,-176.99zm909.84 -104.16c79.69,0.11 159.41,0.02 239.1,0.04 -19.16,16.72 -35.51,36.89 -46.67,59.8 -6.98,13.97 -11.41,29.02 -16.38,43.77 -30.07,88.7 -60.11,177.4 -90.11,266.13 -4.28,12.17 -7.6,24.83 -14.18,36.04 -15.16,26.57 -38.1,47.84 -63.02,65.17 -40.57,27.78 -87.13,45.51 -134.42,58.01 -94.17,24.2 -192.13,29.09 -288.95,26.9 -48.52,-0.87 -96.84,-7.18 -144.02,-18.59 -31.74,-9.63 -63.57,-22.37 -89.09,-44.12 -13.65,-11.86 -25.06,-27.39 -28.08,-45.57 -2.86,-13.93 -0.05,-28.26 4.62,-41.48 32.88,-96.68 65.31,-193.53 98.33,-290.14 39.54,2.61 79.17,1.05 118.72,2.83 -30.5,96.18 -61.12,192.32 -91.92,288.41 33.77,18.08 71.37,27.85 108.8,35.14 82.53,14.98 167.87,10.77 249.6,-7.2 23.99,-2.51 48.23,-4.73 71.5,-11.5 17.11,-4.64 32.91,-12.83 49.35,-19.28 32.02,-95.72 64.69,-191.22 96.87,-286.87 6.63,-18 12.07,-37.25 8.92,-56.6 -3.25,-24.92 -19.4,-46.07 -38.97,-60.89zm-377.47 -304.41c16.9,-1.12 33.82,-0.82 50.74,-0.16 0.32,10.75 -0.34,21.47 -0.89,32.2 6.63,-9.97 12.37,-20.52 17.63,-31.26 12.78,1 25.59,1.48 38.37,2.6 -1.1,12.99 -3.02,25.91 -5.62,38.69 8.46,-11.54 15.11,-24.35 20.83,-37.45 68.26,5.49 136.63,13.4 203.2,29.91 17.93,4.14 35.12,11.39 53.48,13.63l-0.16 0.55c-12.18,40.31 -26.39,80.01 -38.8,120.28 -59.73,-20.9 -123.44,-25.77 -186.12,-29.64 -34.6,-5.49 -69.56,-7.98 -104.46,-10.49 -43.35,-7.44 -87.35,-10.68 -131.28,-11.89 -78.27,-1.13 -159.25,4.82 -231.32,37.93 -5.36,2.7 -12.54,4.8 -13.56,11.69 -5.42,18.38 -12.4,36.38 -17.02,54.99 4.37,20.26 23.76,32.41 41.96,39.04 41.17,14.52 85.5,14.5 128.61,14.06 34.64,-0.96 69.24,-4 103.57,-8.85 61.39,-1.3 123.11,2.54 183.69,12.97 35.95,9.35 71.73,21.49 103.13,41.75 16.69,11.05 32.54,25.07 40.66,43.77 6.2,14.02 5.97,30.21 1.03,44.57 -9.17,26.66 -18.32,53.37 -27.4,80.08 -8.21,29.16 -30.57,52.39 -55.56,68.33 -57.36,28.54 -120.42,42.58 -182.74,55.5 10.86,-31.83 21.27,-63.8 32.25,-95.59 23.39,-4.48 46.62,-10.38 68.8,-19.21 3.2,-0.64 3.55,-4.25 4.62,-6.67 7.66,-23.85 16.17,-47.41 23.83,-71.26 -21.68,-10.31 -45.21,-15.98 -68.63,-20.72 -65.08,-12.25 -131.55,-13.99 -197.59,-13.72 -38.58,-0.8 -77.29,-2.85 -115.37,-9.58 -32.17,-5.6 -63.77,-13.99 -95.33,-22.32 -33.75,-9.42 -67.69,-21.31 -96.11,-42.39 -17.93,-13.36 -33.46,-32.38 -36.04,-55.3 -3.11,-20.85 6.58,-40.31 12.53,-59.7 6.29,-17.31 10.18,-35.74 20.03,-51.55 13.33,-21.95 33.09,-39.28 54.38,-53.28 34.33,-22.27 72.9,-37 111.94,-48.64 61.03,-17.17 123.53,-29.04 186.43,-36.88 2.66,14.73 2.52,29.75 1.58,44.61 11.69,-13.76 20.4,-30.07 25.91,-47.26 17.11,-1.21 34.23,-2.27 51.36,-3.07 0.53,11.64 -0.82,23.24 -2.63,34.72 10.36,-10.27 19.09,-22.18 26.07,-34.99zm553.2 -10.79c2.45,-11.69 7.57,-23.19 16.13,-31.68 -0.07,12.24 0.39,25.48 8.55,35.4 15.91,-0.23 34.21,1.21 47.11,-9.97 7.95,-6.03 12.32,-15.32 19.46,-22.18 -0.39,13.56 -4.49,27.35 -12.17,38.58 -23.05,7.13 -47.95,10.31 -71.85,5.85 -18.45,-3.68 -37.43,-14.02 -45.05,-32.03 12.53,5.48 24.29,12.92 37.82,16.03zm-21.74 -93.9c46.14,5.17 93.96,3.73 138.09,-11.89 12.92,0.89 25.75,4.53 38.81,2.61 -3.77,19.73 -11.39,41.62 -29.45,52.46 1.14,-10.84 1.99,-21.8 0.48,-32.64 -3.25,2.52 -5.58,7.05 -9.81,7.64 -3.75,-2.35 -6.5,-5.9 -9.54,-9.05 -4.05,3.47 -8.07,6.99 -12.03,10.54 -4.43,-2.29 -8.78,-4.71 -13.1,-7.2 -2.65,3.68 -3.61,10.67 -9.03,10.88 -3.32,-2.4 -6.2,-5.28 -9.17,-8.03 -2.24,8.37 -3.78,16.9 -5.19,25.46 -0.83,2.56 -0.67,6.47 -3.89,7.36 -10.54,-8.19 -13.04,-22.39 -18,-33.59 -19.91,-1.76 -40.38,-4.92 -58.17,-14.55zm177.29 -168.39c1.97,2.99 4.94,6.06 4.02,10.01 -1.03,8.76 -10.9,13.29 -18.89,11.62 -2.6,-3.89 -5.67,-7.43 -8.98,-10.7 0.57,-4.14 2.81,-7.59 5.28,-10.84 3.11,5.49 6.29,10.97 9.88,16.19 2.63,-5.58 5.51,-11.02 8.69,-16.28z"/>
   <path class="fil1" d="M409.86 511.16c12.85,-2.47 26.87,0.78 36.96,9.22 4.78,5.28 6.44,12.64 11,18.15 4.48,5.81 13.3,6.29 16.99,12.95 4.59,8.02 3.52,19.12 -2.82,25.95 -5.19,5.31 -13.19,3.62 -19.71,5.67 -8.23,3 -6.74,13.82 -12.96,18.92 -9.97,9.07 -24.08,11.95 -37.19,12.62 -15.41,0.91 -29.47,-6.95 -41.98,-15.05 -13.7,-10.66 -8.32,-33.32 5.33,-41.57 5.58,-3.96 14.38,-6.04 15.71,-13.79 -0.46,-5.53 -1.47,-11.59 2.19,-16.35 6.29,-8.62 16.33,-14.04 26.48,-16.72zm166.11 -14.84c-2.99,-13.81 12.08,-26.25 25.11,-21.97 8.48,3.4 18.36,-4.07 25.89,2.74 6.99,4 8.34,12.92 3.47,19.14 4.37,5.83 8.64,12.94 5.65,20.49 -2.95,14.57 -19.07,22.41 -32.84,20.92 -11.52,-2.51 -16.33,-14.75 -16.05,-25.43 -5.17,-4.11 -11.43,-8.43 -11.23,-15.89zm652.34 -58.81c6.51,-5.29 11.43,3.82 17.54,4.85 3.86,-1.1 7.45,-2.96 11.34,-3.98 12.51,1.23 23.44,11.43 26.04,23.69 2.31,6.7 3.73,15.87 -3.38,20.21 -5.97,5.03 -13.63,2.06 -20.37,1.03 -6.98,-0.55 -8.67,10.04 -16.06,8.35 -14.68,0.82 -26.75,-15.96 -20.05,-29.36 4,-7.96 -4.53,-19.21 4.94,-24.79zm178.27 -9.15c6.54,-4.02 14.93,-3.02 20.86,1.69 -2.98,7.5 -12.26,7.78 -18.92,5.99 -3.61,-1.3 -6.03,-5.05 -1.94,-7.68zm25.31 1.53c7.16,-6.35 19.33,-9.12 27.17,-2.67 3.55,3.91 -2.13,7.77 -5.62,8.85 -7.34,2.21 -18.69,2.83 -21.55,-6.18zm48.21 -7.66c6.84,-1.23 20.6,-2.29 20.97,7.39 -6.68,9.76 -22.21,11.2 -32.15,5.88 -6.25,-6.84 5.23,-12.65 11.18,-13.27zm-27.74 -20.81c8.53,-3.36 18.78,-3.68 27.08,0.53 3.86,1.26 5.03,7.06 1.12,9.03 -8.99,5.76 -21.77,5.44 -30.87,0.09 -3.91,-3.04 -1.4,-8.39 2.67,-9.65zm-36.43 -2.05c7.78,-2.93 18.18,-3.12 24.33,3.33 2.15,4.65 -3.75,6.91 -7.22,7.46 -6.61,0.89 -14.18,0.71 -19.53,-3.75 -2.17,-2.59 -0.3,-5.97 2.42,-7.04zm-32.17 -0.67c6.97,-2.58 15.62,-3.25 21.63,1.97 2.33,4.34 -2.97,6.38 -6.36,6.77 -5.39,1 -10.54,-1.24 -15.36,-3.34 0.02,-1.35 0.07,-4.05 0.09,-5.4zm-741.88 10.31c9.23,-1.85 12.78,-13.81 22.98,-12.94 8.16,-1.46 15.39,4.53 15,12.92 7.77,1.03 15.55,5.7 17.24,13.88 4.5,12.01 -2.97,24.13 -11.85,31.81 -5.74,4.21 -13.63,3.98 -20.19,2.04 -5.3,-1.65 -8.25,-6.68 -12.14,-10.25 -6.93,-0.04 -14.86,0.39 -19.44,-5.92 -10.24,-9.4 -4.3,-27.72 8.4,-31.54zm-104.46 -8.48c9.44,-9.03 24.56,-12.1 36.15,-5.37 6.7,2.67 8.46,10.17 12.46,15.46 3.3,2.95 7.98,4.2 10.64,7.88 3.63,6.34 2.6,15.28 -3.05,20.13 -4.13,2.79 -9.94,1.32 -13.88,4.25 -2.65,4.23 -3.88,9.67 -8.34,12.51 -16.51,10.91 -40.07,7.75 -53.76,-6.27 -5.65,-7.77 -2.88,-19.23 4.27,-25.06 3.59,-2.86 7.62,-5.08 11.39,-7.64 -0.71,-5.62 -0.71,-11.96 4.12,-15.89zm725.33 -26.57c13.49,-5.4 32.08,10.15 24.65,24.47 -5.31,7.27 2.63,18.77 -6.93,23.32 -5.6,3.84 -10.36,-2.1 -14.93,-4.62 -5.86,-1.58 -11.64,3.52 -17.54,1.4 -9.47,-3.11 -18.43,-10.5 -20.4,-20.7 -1.4,-5.49 -3.41,-12.39 1.48,-16.78 5.74,-5.65 14.2,-4.12 21.2,-2.13 5.01,2.15 8.6,-2.77 12.47,-4.96zm-105.58 -28.95c6.42,-9.26 19.05,-14.18 29.7,-9.42 9.49,2.26 9.26,14.66 17.77,18.34 5.42,1.9 8.05,7.93 5.62,13.21 -2.6,8.17 -15.59,2.38 -18.08,11 -2.73,10.61 -14.66,13.54 -24.17,14.07 -9.81,0 -19.88,-4.19 -26.69,-11.23 -4.62,-8.23 1.78,-17.47 9.47,-20.95 6.1,-2.51 7.95,-8.98 6.38,-15.02zm144.43 -28.49c4.39,-4.69 9.92,-0.83 13.76,2.31 6.25,4.96 12.83,-3.89 19.69,-1.49 10.04,2.79 18.89,10.68 21.61,20.95 2.15,7.04 4.99,16.67 -2.06,21.93 -6.29,5.69 -14.79,2.1 -22.13,1.55 -5.74,0.28 -7.27,8.44 -13.2,8.14 -10.2,1.03 -20.39,-5.6 -22.91,-15.64 -3.36,-8.51 4.85,-16.6 1.76,-25.15 -1.6,-4.51 -0.64,-9.79 3.48,-12.6zm-85.02 -41.53c6.12,-2.97 9.46,5.42 15.27,5.72 4.94,-0.28 9.06,-4.51 14.2,-3.46 10.8,2.38 20.35,10.87 23.1,21.75 1.94,6.61 4.62,15.07 -1.24,20.51 -5.9,6.43 -15.02,3.39 -22.38,2.38 -6.57,-0.14 -8.6,9.58 -15.6,8.41 -14.29,0.78 -26.43,-15.09 -20.49,-28.4 4.8,-8.8 -4.87,-21.97 7.14,-26.91zm248.93 -25.04c6.88,-10.72 20.83,3.27 27.26,-7.55 10.1,-1.64 20.28,5.12 20.92,15.69 -6.26,6.45 0.69,18.04 -7.64,22.36 -5.9,3.62 -9.62,-6.24 -15.59,-3.68 -14.98,6.18 -30.74,-13.12 -24.95,-26.82zm-100.85 -10.82c10.27,16.99 23.9,32.11 41.17,42.22 19.2,11.75 41.32,18.06 63.59,20.76 9.97,16.85 20.63,33.27 30.55,50.12 -17.88,-11.63 -34.85,-24.65 -52.53,-36.58 -9.81,5.4 -20.62,8.25 -31.35,11.07 0,-0.1 0.03,-0.26 0.03,-0.35 3.36,-3.29 8.41,-5.74 9.17,-10.86 1,-4.53 -1.72,-8.53 -4.05,-12.1 -5.99,3.66 -7.23,11.6 -10.95,17.15 -3.21,-5.74 -6.34,-11.52 -9.61,-17.21 -2.56,3.77 -6.54,7.31 -6.31,12.25 0.09,4.55 3.5,7.89 6.54,10.86 -12.3,-1.62 -25.82,-5.48 -33.23,-16.23 -5.51,-8.58 -2.19,-19.28 2.66,-27.33 -6.86,-13.38 -9.56,-29.06 -5.68,-43.77zm-51.61 1.99c2.73,-1.87 7.18,-1.62 10.02,0.05 1.94,2.99 1.81,8.05 6.06,8.8 3.11,1.44 7.32,2.08 8.55,5.83 6.27,11.32 -6.33,29.11 -19.23,23.74 -4.85,-2.01 -7.11,-8.76 -13.03,-8.14 -7.25,1.44 -14.5,-5.6 -12.63,-12.9 2.5,-9.9 14.89,-9.63 20.26,-17.38zm107.41 -36.4c3.04,-2.75 8.53,-2.68 11.46,0.3 3.63,3.22 3.66,8.52 5.76,12.66 2.95,3.34 9.19,3.02 10.25,8.1 3.11,7.34 1.07,16.6 -5.31,21.49 -4.73,2.04 -10.22,2.61 -14.06,6.34 -2.47,2.56 -7,3.75 -9.77,1.05 -5.07,-3.61 1.15,-11.14 -3.77,-14.7 -11.09,-9.52 -4.99,-27.54 5.44,-35.24zm-230.78 -9.31c25.64,1.35 52.74,3.11 75.37,16.56 9.27,5.49 16.97,14.04 19.65,24.67 -15.23,3.64 -29.57,10.02 -43.31,17.38 -21.61,-15.02 -39.49,-35.28 -51.71,-58.61zm180.84 -13.24c8.76,-3.59 21.95,1.08 21.36,12.01 -0.55,6.1 7.82,10.79 3.38,16.69 -3.34,6.75 -11.98,-0.39 -16.28,4.48 -10.47,10.89 -31.15,4.57 -35.44,-9.4 -1.28,-8.25 7.84,-11.73 14.33,-12.85 6.29,-0.96 6.38,-9.83 12.65,-10.93zm-384.61 -102.17l30.28 0c33.89,3.22 67.48,12.69 97.14,29.66 4.96,2.51 9.7,7 15.71,5.78 41.02,-3.86 82.51,-5.71 123.55,-1 27.47,3.7 56.99,8.85 78.44,27.85 32.29,-6.31 65.58,-4.39 97.71,1.74 4.92,-10.11 11.23,-19.42 18.18,-28.22 46.97,5.42 95.31,16.83 133.91,45.48 27.58,20.13 47.79,52.39 47.68,87.22 8.83,7.64 16.6,17.1 19.48,28.67 3.36,11.44 1.92,23.49 0.21,35.06 16.42,12.71 28.22,30.6 35.92,49.74 8.74,19.14 5.95,41.27 0.69,60.96 -8.99,32.02 -35.29,56.6 -65.45,69.04 -5.51,35.19 -32.49,62.61 -63.32,78.11 -11.71,40.68 -35.15,79.79 -71.82,102.45 11.22,9.35 24.1,17.45 38.34,21.13 36.57,-1.35 73.06,-5.22 109.68,-6.04 14.45,0.41 31.19,-0.6 42.44,10.22 17.15,1.33 34.41,0.96 51.52,2.91 10.24,1.19 18.79,7.98 23.44,17.01 19,4.89 38.73,10.45 53.89,23.53 6.59,5.49 11.19,12.99 13.98,21.04l0 23.53c-7.28,27.96 -26.78,50.58 -46.65,70.68 -4.33,5.08 -11,6.38 -17.18,7.73 -70.22,16.05 -136.22,55.38 -178.64,114.31 -13.14,18.32 -24.44,38.08 -32.49,59.16 -28.65,84.77 -57.65,169.4 -86.46,254.1 -12.56,42.33 -43.13,76.33 -75.39,105.15 -62.71,54.35 -141.85,86.02 -222.12,103.79 -110.26,23.67 -224.37,23.07 -336.05,11.09 -54.66,-6.17 -109.19,-15.71 -161.47,-33.09 -37.36,-12.73 -74.09,-29.7 -104.14,-55.77 -23.41,-20.22 -41.82,-47.54 -47.19,-78.39 -3.37,-17.36 -2.04,-35.28 2.1,-52.39 -55.64,-6.88 -110.93,-16.55 -165.74,-28.38 -22.46,-4.64 -44.44,-12.69 -67.62,-13.03 -30.76,-1.4 -61.84,5.4 -89.25,19.39 -2.24,-1.23 -4.49,-2.47 -6.73,-3.7l0 -2.54c35.81,-104.46 70.11,-209.44 105.12,-314.15 -49,-50.49 -86.96,-113.56 -99.79,-183.38 -2.7,-14.04 -4.23,-28.31 -5.33,-42.55l0 -37c6.27,-105.15 58.77,-202.47 128.68,-279.21 36.86,-39.84 79.14,-74.39 124.12,-104.64 58.18,-39.04 120.51,-71.76 185.29,-98.38 9.27,-4.11 19.97,-6.03 27.29,-13.58 65.99,-65.08 160.04,-100.85 252.66,-95.11 6.7,0.32 13.76,2.18 20.17,-0.82 20.78,-8.39 42.89,-13.28 65.21,-15.16zm-38.94 59.11l0 0c18.02,12.08 34.26,27.47 45.28,46.26 3.36,5.31 -3.94,11.53 -8.94,8.19 -26.42,-13.31 -54.43,-23.6 -83.33,-29.96 -2.2,2.61 -3.78,5.72 -6.38,7.94 -5.67,2.74 -12.72,0.75 -18.2,4.18 -9.2,3.89 -6.91,16.67 -15.46,21.38 -16.6,10.32 -38.97,12.53 -56.37,2.79 -7.41,-4.11 -17.33,-7.54 -19.48,-16.8 -2.5,-9.77 3.4,-18.62 9.85,-25.27 -15.59,3.06 -31.23,6.29 -46.14,11.96 -50.08,17.95 -91.5,54.9 -121.04,98.55 -12.51,19.1 -25.86,37.64 -40.16,55.46 -22.2,27.23 -46,53.69 -74.82,74.09 -8.82,6.4 -19.46,10.65 -26.43,19.37 -11.18,13.08 -13.04,34.43 -2.27,48.25 9.01,10.29 24.18,5.74 35.15,12.14 22.96,11.34 36.66,34.69 46.35,57.42 5.54,13.24 8.88,28.93 21.22,37.75 2.36,2.08 5.63,0.19 8.35,-0.04 36.24,-8.9 72.7,-17.04 109.44,-23.65 12.88,-2.17 25.78,-4.53 38.83,-5.12 5.1,9.92 10,20.08 12.21,31.1 5.35,-0.5 10.71,-0.96 16.08,-1.39 -3.18,-12.28 -8.16,-24.18 -15.89,-34.28 3.11,-13.61 12.83,-25.8 26.61,-29.52 8.81,7.52 16.49,16.96 19.21,28.47 8.69,-0.46 17.38,-1.19 26.12,-0.92 3.98,9.74 7.34,19.73 8.94,30.16 4.73,0.03 9.44,0.03 14.18,0.05 -1.22,-12.14 -4.69,-23.99 -10.3,-34.81 6.25,-16.48 17.38,-31.03 32.09,-40.81 10.81,11.25 14.77,27.19 15.43,42.39 4.44,0.19 8.88,0.41 13.34,0.66 4.55,10.11 7.93,20.77 9,31.84 4.92,0.16 9.84,0.39 14.78,0.68 -0.8,-13.83 -4.85,-27.3 -11.73,-39.31 3.79,-14.56 11.73,-28.51 24.67,-36.77 12.1,11.85 15.96,29.25 16.12,45.62 2.77,0.28 5.56,0.58 8.35,0.87 2.47,10.73 4.09,21.68 4.25,32.7 4.87,0.39 9.77,0.8 14.68,1.17 0.94,-14.02 -1.07,-27.92 -5.26,-41.28 3.41,-12.53 11.71,-23.62 22.94,-30.18 7.57,12.16 11.11,26.59 9.4,40.88 5.23,0.28 10.47,0.51 15.75,0.53 6.77,-13.13 12.65,-29.27 5.65,-43.54 -7.8,-14.77 -25.34,-19.92 -40.68,-22.5 -5.67,7.68 -10.11,17.88 -19.76,21.18 -0.64,-7.51 2.66,-15.33 -0.71,-22.48 -3.24,-7.73 -11.5,-11.71 -19.41,-12.72 -10.68,-1.44 -21.45,-1.92 -32.22,-2.31 -1.14,8.58 -3.04,17.11 -7,24.88 -1.14,-0.09 -3.45,-0.27 -4.62,-0.36 -3.18,-16.56 -20.35,-25.34 -36.06,-24.88 -17.83,0.66 -35.47,3.86 -53.26,5.19 7,7.86 9.17,19.3 2.73,28.19 -8.44,-12.53 -25.27,-12.14 -38.7,-12.92 -45.5,0.62 -90.19,10.61 -134.36,20.74 -0.03,-1.55 -0.07,-4.68 -0.1,-6.24 44.62,-23.71 93.14,-39.88 142.74,-49.32 -17.15,-11.44 -35.83,-21.93 -48.36,-38.79 -6.25,-8.34 -14.96,-14.31 -23.49,-20.07 -20.99,-13.66 -43.93,-24.17 -67.69,-32.04 -0.38,-1.35 -1.21,-4.05 -1.6,-5.4 50.86,1.63 105.22,14.84 142.4,51.7 14.56,-8.25 30.76,-13.88 47.45,-15.57 10.01,-0.8 20.26,-0.25 30.02,-3.08 18.25,-4.76 33.98,-15.85 48,-28.11 0.94,0.78 2.86,2.33 3.8,3.09 -8.72,19.37 -23.44,36.29 -41.92,46.9 -17.95,10.13 -38.69,13.17 -58.36,18 8.53,4.89 16.97,9.92 25.59,14.63 19.65,-4.02 39.75,-7.04 59.82,-5.14 5.56,0.41 10.34,3.43 15.32,5.55 21.18,1.95 43.27,-4 63.78,3.36 6.45,2.06 10.63,7.71 13.04,13.75 22.84,4.07 48.25,12.28 60.8,33.38 10.7,18.27 4.23,40.36 -4.39,58.06 58.61,4.69 116.72,15.1 173.68,29.48 15.09,3.8 29.89,9.03 45.41,10.75 -17.97,-13.81 -37.55,-26.25 -59.36,-33 -48.59,-12.83 -94.15,-43.79 -117.72,-89.02 -19.44,-37.39 -20.93,-81.84 -11.41,-122.27 4.39,5.64 8.94,11.16 13.79,16.41 10.58,-27.85 27.02,-54.92 51.79,-72.26 -21.54,35.08 -34.69,78.51 -22.84,119.26 6.76,24.44 22.84,44.82 39.72,63.18 17.19,17.63 37.86,33.77 62.68,38.32 25.88,7.32 54.12,18.78 67.91,43.43 18.14,39.08 52.39,71.73 94.4,83.28 23.55,6.13 49.62,7.02 72.4,-2.58 16.39,-6.84 28.05,-21.47 34.69,-37.57 -31.49,6.52 -67.1,10.56 -96.09,-6.45 -15.37,-8.44 -21.25,-25.84 -32.34,-38.42 -8.8,-11.25 -19.94,-20.3 -31.83,-28.06 9.76,0.58 19.6,0.87 29.32,2.27 -16.56,-15.37 -30.28,-35.08 -33.85,-57.76 -4.66,-26.03 5.58,-52.62 21.89,-72.68 9.14,32.27 34.76,59.98 67.59,68.58 39.61,10.64 80.98,-1.19 117.68,-16.6 -26.14,-15.18 -48.75,-37.09 -62.06,-64.46 15.41,5.12 31.14,9.46 47.29,11.71 24.51,3.54 51.15,3.26 73.17,-9.49 -5.88,-19.49 -16.3,-37.1 -27.81,-53.72 7.99,1.67 17.86,-2.86 18.89,-11.62 0.92,-3.95 -2.05,-7.02 -4.02,-10.01 -3.18,5.26 -6.06,10.7 -8.69,16.28 -3.59,-5.22 -6.77,-10.7 -9.88,-16.19 -2.47,3.25 -4.71,6.7 -5.28,10.84 -5.95,-5.95 -11.87,-11.94 -18.2,-17.45 -2.5,-31.99 -15.76,-63.85 -39.2,-86.09 -5.9,0 -11.75,-0.35 -17.56,-1.33 -5.51,-1.58 -8.14,4.46 -11.82,7.2 -10.11,2.81 -21.86,-2.51 -25.43,-12.58 -3.96,-7.72 0.64,-15.98 1.99,-23.73 -38.01,-10.66 -78.35,-8.85 -116.74,-1.37 -1.19,8.43 -2.54,16.85 -3.93,25.26 -11.14,-19.84 -31.35,-32.49 -52.44,-39.6 -38.05,-12.88 -79.05,-11.53 -118.52,-7.94 -1.92,41.6 25.47,79.31 60.07,99.96 -2.53,2.12 -4.94,4.52 -7.89,6.08 -3.13,0.55 -5.99,-1.44 -8.85,-2.33 -22.73,-9.61 -43.9,-24.22 -58.29,-44.48 -13.78,-18.89 -19.61,-42.69 -18.38,-65.88 -16.99,-6.77 -34.53,-12.05 -52.32,-16.21 -41.39,-9.36 -86.21,-12.88 -126.48,2.99zm-128.17 17.31l0 0c-0.66,0.41 -1.97,1.28 -2.63,1.72 -5.03,8.53 7.2,10.61 9.58,17.17 4.76,12.76 28.15,10.11 28.31,-3.86 -0.18,-7.32 9.31,-7.92 12.01,-13.77 -15.64,-1.76 -31.61,-3.45 -47.27,-1.26zm710.99 15.48l0 0c27.76,21.45 55.13,51.11 55.22,88.36 14.27,6.41 25.09,18.07 34.03,30.6 -1.74,-12.83 -10.01,-24.1 -20.88,-30.85 -0.32,-15.34 -4.59,-30.62 -13.42,-43.26 -13.67,-19.69 -33.66,-34.33 -54.95,-44.85zm-1019.59 135.26l0 0c1.61,7 2.29,16.03 -4.34,20.74 -6.11,3.3 -14.09,0.76 -19.85,5.22 -7.64,3.98 -5.85,14.7 -12.76,19.46 -11.5,9.12 -26.89,9.49 -40.79,11.66 -21.64,17.22 -42.33,35.81 -61.63,55.64 3.68,6.74 6.65,14.33 12.71,19.41 4.74,3.84 12.58,4.6 14.25,11.43 2.35,7.02 0.41,16.95 -7.16,19.85 -7.68,1.01 -16.78,1.1 -21.75,8.17 -2.62,6.74 -5.05,14.47 -12.05,17.97 -15.82,8.46 -35.81,10.61 -52.2,2.43 -39.4,56.91 -65.81,125.88 -60.19,195.97 2.63,41.11 17.06,80.35 35.88,116.67 -0.73,-7.78 -2.81,-15.32 -4.12,-23.01 -13.44,-81.68 10.64,-167.29 59.98,-233.11 2.68,-3.72 7.51,-1.3 9.84,1.47 -16.72,51.56 -20.7,109.26 -1.65,160.78 19.07,-28.54 44.25,-52.55 72.1,-72.4 35.86,-25.59 76.01,-44.71 117.61,-58.91 1.16,-18.41 -3,-37.68 -14.71,-52.27 -11.63,-14.96 -29.52,-23.49 -47.63,-27.69 -13.22,-2.98 -26.62,-9.06 -34.55,-20.49 -9.24,-13.4 -8.6,-31.06 -4.28,-46.1 5.35,-17.47 14.23,-34.81 28.68,-46.45 24.99,-19.87 50.76,-39.17 72.05,-63.16 15.78,-17.6 29.75,-37.43 37.23,-60.05 -20.81,11.25 -41.04,23.58 -60.67,36.77zm1046.94 133.16l0 0c0,0.55 0.02,1.69 0.04,2.26 9.7,6.73 22.67,8.99 33.8,4.6 22.85,-9.28 40.57,-33.64 36.32,-59 -16.67,24.79 -42.17,42.42 -70.16,52.14zm-1233.08 31.95l0 0c4.19,14.29 29.75,11.84 29.16,-3.53 0.89,-7.52 12.44,-7.77 12.83,-15.89 1.17,-8.28 -8.87,-9.97 -14.34,-13.08 -9.6,10.5 -18.68,21.45 -27.65,32.5zm1083.46 1.8l0 0c17.79,9.63 38.26,12.79 58.17,14.55 4.96,11.2 7.46,25.4 18,33.59 3.22,-0.89 3.06,-4.8 3.89,-7.36 1.41,-8.56 2.95,-17.09 5.19,-25.46 2.97,2.75 5.85,5.63 9.17,8.03 5.42,-0.21 6.38,-7.2 9.03,-10.88 4.32,2.49 8.67,4.91 13.1,7.2 3.96,-3.55 7.98,-7.07 12.03,-10.54 3.04,3.15 5.79,6.7 9.54,9.05 4.23,-0.59 6.56,-5.12 9.81,-7.64 1.51,10.84 0.66,21.8 -0.48,32.64 18.06,-10.84 25.68,-32.73 29.45,-52.46 -13.06,1.92 -25.89,-1.72 -38.81,-2.61 -44.13,15.62 -91.95,17.06 -138.09,11.89zm21.74 93.9l0 0c-13.53,-3.11 -25.29,-10.55 -37.82,-16.03 7.62,18.01 26.6,28.35 45.05,32.03 23.9,4.46 48.8,1.28 71.85,-5.85 7.68,-11.23 11.78,-25.02 12.17,-38.58 -7.14,6.86 -11.51,16.15 -19.46,22.18 -12.9,11.18 -31.2,9.74 -47.11,9.97 -8.16,-9.92 -8.62,-23.16 -8.55,-35.4 -8.56,8.49 -13.68,19.99 -16.13,31.68zm-553.2 10.79l0 0c-6.98,12.81 -15.71,24.72 -26.07,34.99 1.81,-11.48 3.16,-23.08 2.63,-34.72 -17.13,0.8 -34.25,1.86 -51.36,3.07 -5.51,17.19 -14.22,33.5 -25.91,47.26 0.94,-14.86 1.08,-29.88 -1.58,-44.61 -62.9,7.84 -125.4,19.71 -186.43,36.88 -39.04,11.64 -77.61,26.37 -111.94,48.64 -21.29,14 -41.05,31.33 -54.38,53.28 -9.85,15.81 -13.74,34.24 -20.03,51.55 -5.95,19.39 -15.64,38.85 -12.53,59.7 2.58,22.92 18.11,41.94 36.04,55.3 28.42,21.08 62.36,32.97 96.11,42.39 31.56,8.33 63.16,16.72 95.33,22.32 38.08,6.73 76.79,8.78 115.37,9.58 66.04,-0.27 132.51,1.47 197.59,13.72 23.42,4.74 46.95,10.41 68.63,20.72 -7.66,23.85 -16.17,47.41 -23.83,71.26 -1.07,2.42 -1.42,6.03 -4.62,6.67 -22.18,8.83 -45.41,14.73 -68.8,19.21 -10.98,31.79 -21.39,63.76 -32.25,95.59 -4.87,14.5 -9.83,28.99 -14.45,43.58 54.65,-8.98 109.19,-19.66 162.27,-35.74 37.73,-11.55 75.05,-25.72 108.66,-46.63 25.55,-16.12 49.72,-37.54 60.65,-66.47 9.01,-25.82 17.76,-51.73 26.82,-77.54 7.09,-21.27 6.31,-46.17 -6.79,-65.02 -17.77,-26.29 -47.25,-41.25 -75.78,-52.98 -45.05,-17.31 -92.71,-27.35 -140.5,-33.2 -60.58,-10.43 -122.3,-14.27 -183.69,-12.97 -47.66,0.07 -95.8,-1.03 -142.42,-11.94 -19.92,-4.82 -40.13,-10.79 -57.06,-22.75 7.64,-23.71 15.9,-47.22 23.72,-70.86 20.19,-8.49 41.48,-14.02 62.88,-18.39 76.24,-15.34 154.49,-16.14 231.92,-13.03 34.9,2.51 69.86,5 104.46,10.49 59.02,10.68 118.52,26.48 170.04,58.2 21.15,13.38 41.28,29.73 54.13,51.59 22.36,-67.19 44.04,-134.58 66.31,-201.78 -21.6,4.41 -43.74,3.4 -65.56,1.35l0.16 -0.55c-18.36,-2.24 -35.55,-9.49 -53.48,-13.63 -66.57,-16.51 -134.94,-24.42 -203.2,-29.91 -5.72,13.1 -12.37,25.91 -20.83,37.45 2.6,-12.78 4.52,-25.7 5.62,-38.69 -12.78,-1.12 -25.59,-1.6 -38.37,-2.6 -5.26,10.74 -11,21.29 -17.63,31.26 0.55,-10.73 1.21,-21.45 0.89,-32.2 -16.92,-0.66 -33.84,-0.96 -50.74,0.16zm486.87 101.44l0 0c-17.04,52.91 -35.24,105.46 -52.41,158.33 67.73,0.25 135.48,-0.04 203.22,0.16 1.37,5.24 1.96,10.64 2.19,16.08 2.61,-1.03 5.19,-2.06 7.85,-3.04 3.79,-23.1 -7.96,-44.39 -20.88,-62.46 3.91,-16.64 17.88,-28.26 31.05,-37.95 12.03,9.19 22.41,21.88 24.79,37.25 3.16,17.35 -3.8,34.59 -13.06,48.96 14.23,-0.1 28.5,-0.07 42.74,-0.03 -0.25,4 -0.52,7.98 -0.75,11.98 3.82,-2.3 10.65,-2.44 11.2,-8 4.46,-20.95 2.06,-44.11 -10.15,-62.13 6.08,-16.99 21.31,-28.47 37.14,-35.83 7.93,9.76 14.68,21.1 15.84,33.91 2.54,19.71 -6.17,38.71 -17.45,54.36 13.43,-0.05 26.87,-0.03 40.3,-0.03 1.51,6.29 2.12,12.74 2.24,19.21 2.61,-1.12 5.23,-2.19 7.86,-3.29 3.09,-21.11 -2.85,-42.51 -13.24,-60.83 5.77,-15.34 16.33,-28.38 28.82,-38.83 9.65,8.01 16.67,19.3 18.22,31.88 2.36,17.93 -3.95,35.58 -11.82,51.43 7.25,-0.07 14.52,-0.51 21.79,0 3.62,4.37 5.7,9.81 8.62,14.68 6.02,-16.56 3.34,-34.8 -3.45,-50.65 5.33,-14.5 17.13,-24.95 27.83,-35.51 6.49,7.43 11.21,16.53 12.26,26.43 2.33,15.62 -3.43,30.64 -8.97,44.89 20.65,-15.51 31.08,-45.07 21.82,-69.59 -8.21,-9.46 -21.27,-12.02 -32.77,-15.25 -6.95,9.22 -17.33,14.8 -28.27,17.84 3.14,-7.8 9.17,-18.41 0.97,-25.27 -12.33,-9.97 -29.34,-10.25 -44.46,-11.37 -1.94,9.97 -5.99,20.81 -15.78,25.45 0.32,-8.91 -3.15,-18.13 -11.57,-22.22 -21.61,-11.25 -46.94,-8.85 -70.45,-8.19 4.89,10.13 1.23,22.59 -8.92,27.72 -2.01,-12.44 -16.4,-13.56 -26.39,-15.44 -48,-5.56 -96.48,-1.55 -144.43,2.72 0,-2.08 -0.02,-6.22 -0.02,-8.3 21.52,-9.92 45.23,-13.44 68.35,-17.77 -8.74,-7.77 -16.21,-16.99 -21.11,-27.64 -26,6.67 -53.03,1.96 -78.75,-3.66zm-109.4 202.97l0 0c19.57,14.82 35.72,35.97 38.97,60.89 3.15,19.35 -2.29,38.6 -8.92,56.6 -32.18,95.65 -64.85,191.15 -96.87,286.87 -16.44,6.45 -32.24,14.64 -49.35,19.28 -23.27,6.77 -47.51,8.99 -71.5,11.5 -68.67,3.77 -138.19,5.4 -206.11,-7.34 -24.01,-4.89 -48.38,-11.11 -69.37,-24.26 30.93,-92.75 62.38,-185.39 93.87,-277.98 -28.18,-3.34 -56.49,-5.97 -84.87,-6.77 -39.55,-1.78 -79.18,-0.22 -118.72,-2.83 -33.02,96.61 -65.45,193.46 -98.33,290.14 -4.67,13.22 -7.48,27.55 -4.62,41.48 3.02,18.18 14.43,33.71 28.08,45.57 25.52,21.75 57.35,34.49 89.09,44.12 11.85,4.93 24.33,8.02 36.68,11.36 97.21,25.04 198.63,28.61 298.37,22.11 55.96,-3.77 111.85,-11.5 166.02,-26.25 46.33,-12.8 91.84,-30.89 131.14,-58.95 25.52,-18.43 48.92,-41.39 62.55,-70.11 7.38,-19.14 13.33,-38.78 20.07,-58.13 29.37,-86.55 58.57,-173.15 87.95,-259.7 14.25,-40.43 44,-73.71 79.05,-97.6 -28.03,0.09 -56.04,0.02 -84.08,0.04 -79.69,-0.02 -159.41,0.07 -239.1,-0.04zm-909.84 104.16l0 0c-19.26,59.06 -39.04,117.95 -58.39,176.99 -3.47,10.82 -7.24,21.54 -10.63,32.4 28.63,-5.85 58.5,-4.36 86.67,3.25 63,19.92 128.83,28.75 194.35,35.65 5.37,-15.68 10.72,-31.39 16.03,-47.1 9.42,-29.05 19.71,-57.79 28.93,-86.88 -52.67,-6.15 -105.19,-16.92 -154.43,-37.02 -39.81,-16.51 -78.71,-40.36 -102.53,-77.29zm683.98 -795.62c13.33,-3.27 27.71,-1.81 39.86,4.68 7.91,4.46 17.95,7.85 21.63,16.97 5.1,12.33 -1.4,26.99 -12.3,33.82 -5.1,3.48 -11.76,5.51 -14.75,11.37 -0.69,6.35 1.74,13.7 -2.98,19 -10.45,12.76 -28.1,19.92 -44.4,15.85 -9.2,-2.43 -19.72,-6.66 -23.26,-16.28 -3.18,-7.12 -7.5,-14.36 -15.28,-17.06 -14.88,-5.49 -14.26,-30.07 -0.04,-35.97 6.47,-1.65 14.34,-0.37 19.39,-5.7 2.45,-5.1 3.54,-11.09 7.8,-15.16 6.31,-6.79 15.59,-9.44 24.33,-11.52zm-10.27 43.38l0 0c-0.2,1.83 -0.59,5.51 -0.78,7.34 -1.41,7.22 -12.64,7.59 -12.69,15.18 6.89,6.97 20.22,9.49 27.49,2.08 2.24,-7.29 8.96,-10.75 16.17,-11.43 -5.51,-3.73 -9.84,-8.74 -13.29,-14.36 -4.69,-5.15 -12.21,-2.54 -16.9,1.19zm-324 -16.56c12.43,-3.36 26.16,-0.34 36.54,7.09 6.51,4.55 7.89,13.01 12.64,18.98 4.42,6.72 14.34,6.95 17.98,14.38 4.09,8.44 3.2,20.24 -4.53,26.35 -5.51,4.8 -13.63,2.1 -19.76,5.44 -6.54,3.24 -5.58,12.19 -10.54,16.94 -8.42,9.13 -21.27,11.94 -33.04,13.68 -16.93,2.58 -32.82,-5.65 -46.63,-14.43 -8.83,-6.22 -10.59,-18.78 -6.52,-28.27 3.09,-7.68 9.58,-13.44 16.86,-17.12 4.52,-2.63 11.15,-6.04 9.99,-12.33 -3.52,-16.39 13.81,-26.48 27.01,-30.71zm5.62 39.26l0 0c-5.76,0.69 -6.49,7.32 -10.08,10.73 -3.02,2.9 -7.5,2.79 -11.28,3.79 5.22,4.42 10.54,9.01 13.04,15.58 5.71,3.01 12.19,1.96 16.96,-2.29 0.28,-4.28 0.12,-9.54 4.21,-12.17 3.34,-3.08 9.83,-4.78 9.19,-10.42 -6.08,-4.92 -14.33,-8.24 -22.04,-5.22zm128.01 -8.69c3.68,-9.69 15.16,-16.46 25.36,-14.06 9.54,1.76 9.49,14.2 18.11,17.52 8.53,-2.45 18.55,-2.86 25.84,2.99 13.22,10.52 23.24,26.6 22.55,43.98 -0.39,10.03 0.71,20.92 -4.19,30.09 -6.49,11.78 -22.4,15.85 -34.43,10.84 -5.06,-2.24 -9.15,-6.22 -14.34,-8.19 -7.34,-2.38 -11.14,6.88 -18.11,6.77 -9.9,0.82 -18.89,-4.82 -26.03,-11.11 -10.93,-10.75 -13.33,-27.86 -9.39,-42.19 3.04,-6.79 8.91,-11.94 11.73,-18.89 2.65,-5.58 1.48,-11.92 2.9,-17.75zm42.49 33l0 0c-3.23,9.08 -0.6,19.9 7.61,25.43 7.48,-3.22 13.66,2.26 18.62,7.13 0.18,-6.63 2.72,-12.62 6.4,-18.02 3.77,-5.74 -1.05,-12.11 -5.92,-15.18 -4.23,1.72 -8.94,4.87 -13.54,2.43 -4.28,-1.1 -9.44,-6.64 -13.17,-1.79zm-463.18 275.67l0 0c-2.1,5.92 -9.01,6.65 -14.24,7.89 6.01,3.95 10.22,9.71 14.29,15.55 5.32,3.68 11.32,0.84 16,-2.45 0.3,-4.25 -0.06,-9.61 4.17,-12.17 2.99,-3.27 10.01,-4.89 9.1,-10.31 -7.43,-7.66 -24.65,-10.2 -29.32,1.49z"/>
   <path class="fil2" d="M510.2 307.16c19.63,-13.19 39.86,-25.52 60.67,-36.77 -7.48,22.62 -21.45,42.45 -37.23,60.05 -21.29,23.99 -47.06,43.29 -72.05,63.16 -14.45,11.64 -23.33,28.98 -28.68,46.45 -4.32,15.04 -4.96,32.7 4.28,46.1 7.93,11.43 21.33,17.51 34.55,20.49 18.11,4.2 36,12.73 47.63,27.69 11.71,14.59 15.87,33.86 14.71,52.27 -41.6,14.2 -81.75,33.32 -117.61,58.91 -27.85,19.85 -53.03,43.86 -72.1,72.4 -19.05,-51.52 -15.07,-109.22 1.65,-160.78 -2.33,-2.77 -7.16,-5.19 -9.84,-1.47 -49.34,65.82 -73.42,151.43 -59.98,233.11 1.31,7.69 3.39,15.23 4.12,23.01 -18.82,-36.32 -33.25,-75.56 -35.88,-116.67 -5.62,-70.09 20.79,-139.06 60.19,-195.97 16.39,8.18 36.38,6.03 52.2,-2.43 7,-3.5 9.43,-11.23 12.05,-17.97 4.97,-7.07 14.07,-7.16 21.75,-8.17 7.57,-2.9 9.51,-12.83 7.16,-19.85 -1.67,-6.83 -9.51,-7.59 -14.25,-11.43 -6.06,-5.08 -9.03,-12.67 -12.71,-19.41 19.3,-19.83 39.99,-38.42 61.63,-55.64 13.9,-2.17 29.29,-2.54 40.79,-11.66 6.91,-4.76 5.12,-15.48 12.76,-19.46 5.76,-4.46 13.74,-1.92 19.85,-5.22 6.63,-4.71 5.95,-13.74 4.34,-20.74zm-224.9 857.16c32.93,-5.46 66.5,0.28 98.47,8.49 17.2,4.77 34.76,8.11 52.46,10.38 44.91,5.33 90.3,6.74 135.49,5.33 -5.31,15.71 -10.66,31.42 -16.03,47.1 -65.52,-6.9 -131.35,-15.73 -194.35,-35.65 -28.17,-7.61 -58.04,-9.1 -86.67,-3.25 3.39,-10.86 7.16,-21.58 10.63,-32.4zm514.08 -162.36c28.38,0.8 56.69,3.43 84.87,6.77 -31.49,92.59 -62.94,185.23 -93.87,277.98 20.99,13.15 45.36,19.37 69.37,24.26 67.92,12.74 137.44,11.11 206.11,7.34 -81.73,17.97 -167.07,22.18 -249.6,7.2 -37.43,-7.29 -75.03,-17.06 -108.8,-35.14 30.8,-96.09 61.42,-192.23 91.92,-288.41zm693.25 -118.75c28.04,-0.02 56.05,0.05 84.08,-0.04 -35.05,23.89 -64.8,57.17 -79.05,97.6 -29.38,86.55 -58.58,173.15 -87.95,259.7 -6.74,19.35 -12.69,38.99 -20.07,58.13 -13.63,28.72 -37.03,51.68 -62.55,70.11 -39.3,28.06 -84.81,46.15 -131.14,58.95 -54.17,14.75 -110.06,22.48 -166.02,26.25 -99.74,6.5 -201.16,2.93 -298.37,-22.11 -12.35,-3.34 -24.83,-6.43 -36.68,-11.36 47.18,11.41 95.5,17.72 144.02,18.59 96.82,2.19 194.78,-2.7 288.95,-26.9 47.29,-12.5 93.85,-30.23 134.42,-58.01 24.92,-17.33 47.86,-38.6 63.02,-65.17 6.58,-11.21 9.9,-23.87 14.18,-36.04 30,-88.73 60.04,-177.43 90.11,-266.13 4.97,-14.75 9.4,-29.8 16.38,-43.77 11.16,-22.91 27.51,-43.08 46.67,-59.8zm-503.72 -25.65c47.79,5.85 95.45,15.89 140.5,33.2 28.53,11.73 58.01,26.69 75.78,52.98 13.1,18.85 13.88,43.75 6.79,65.02 -9.06,25.81 -17.81,51.72 -26.82,77.54 -10.93,28.93 -35.1,50.35 -60.65,66.47 -33.61,20.91 -70.93,35.08 -108.66,46.63 -53.08,16.08 -107.62,26.76 -162.27,35.74 4.62,-14.59 9.58,-29.08 14.45,-43.58 62.32,-12.92 125.38,-26.96 182.74,-55.5 24.99,-15.94 47.35,-39.17 55.56,-68.33 9.08,-26.71 18.23,-53.42 27.4,-80.08 4.94,-14.36 5.17,-30.55 -1.03,-44.57 -8.12,-18.7 -23.97,-32.72 -40.66,-43.77 -31.4,-20.26 -67.18,-32.4 -103.13,-41.75zm-427.25 -123.9c72.07,-33.11 153.05,-39.06 231.32,-37.93 43.93,1.21 87.93,4.45 131.28,11.89 -77.43,-3.11 -155.68,-2.31 -231.92,13.03 -21.4,4.37 -42.69,9.9 -62.88,18.39 -7.82,23.64 -16.08,47.15 -23.72,70.86 16.93,11.96 37.14,17.93 57.06,22.75 46.62,10.91 94.76,12.01 142.42,11.94 -34.33,4.85 -68.93,7.89 -103.57,8.85 -43.11,0.44 -87.44,0.46 -128.61,-14.06 -18.2,-6.63 -37.59,-18.78 -41.96,-39.04 4.62,-18.61 11.6,-36.61 17.02,-54.99 1.02,-6.89 8.2,-8.99 13.56,-11.69zm801.27 -53.46c25.72,5.62 52.75,10.33 78.75,3.66 4.9,10.65 12.37,19.87 21.11,27.64 -23.12,4.33 -46.83,7.85 -68.35,17.77 0,2.08 0.02,6.22 0.02,8.3 47.95,-4.27 96.43,-8.28 144.43,-2.72 9.99,1.88 24.38,3 26.39,15.44 10.15,-5.13 13.81,-17.59 8.92,-27.72 23.51,-0.66 48.84,-3.06 70.45,8.19 8.42,4.09 11.89,13.31 11.57,22.22 9.79,-4.64 13.84,-15.48 15.78,-25.45 15.12,1.12 32.13,1.4 44.46,11.37 8.2,6.86 2.17,17.47 -0.97,25.27 10.94,-3.04 21.32,-8.62 28.27,-17.84 11.5,3.23 24.56,5.79 32.77,15.25 9.26,24.52 -1.17,54.08 -21.82,69.59 5.54,-14.25 11.3,-29.27 8.97,-44.89 -1.05,-9.9 -5.77,-19 -12.26,-26.43 -10.7,10.56 -22.5,21.01 -27.83,35.51 6.79,15.85 9.47,34.09 3.45,50.65 -2.92,-4.87 -5,-10.31 -8.62,-14.68 -7.27,-0.51 -14.54,-0.07 -21.79,0 7.87,-15.85 14.18,-33.5 11.82,-51.43 -1.55,-12.58 -8.57,-23.87 -18.22,-31.88 -12.49,10.45 -23.05,23.49 -28.82,38.83 10.39,18.32 16.33,39.72 13.24,60.83 -2.63,1.1 -5.25,2.17 -7.86,3.29 -0.12,-6.47 -0.73,-12.92 -2.24,-19.21 -13.43,0 -26.87,-0.02 -40.3,0.03 11.28,-15.65 19.99,-34.65 17.45,-54.36 -1.16,-12.81 -7.91,-24.15 -15.84,-33.91 -15.83,7.36 -31.06,18.84 -37.14,35.83 12.21,18.02 14.61,41.18 10.15,62.13 -0.55,5.56 -7.38,5.7 -11.2,8 0.23,-4 0.5,-7.98 0.75,-11.98 -14.24,-0.04 -28.51,-0.07 -42.74,0.03 9.26,-14.37 16.22,-31.61 13.06,-48.96 -2.38,-15.37 -12.76,-28.06 -24.79,-37.25 -13.17,9.69 -27.14,21.31 -31.05,37.95 12.92,18.07 24.67,39.36 20.88,62.46 -2.66,0.98 -5.24,2.01 -7.85,3.04 -0.23,-5.44 -0.82,-10.84 -2.19,-16.08 -67.74,-0.2 -135.49,0.09 -203.22,-0.16 17.17,-52.87 35.37,-105.42 52.41,-158.33zm-109.29 -52.73c21.82,2.05 43.96,3.06 65.56,-1.35 -22.27,67.2 -43.95,134.59 -66.31,201.78 -12.85,-21.86 -32.98,-38.21 -54.13,-51.59 -51.52,-31.72 -111.02,-47.52 -170.04,-58.2 62.68,3.87 126.39,8.74 186.12,29.64 12.41,-40.27 26.62,-79.97 38.8,-120.28zm-847.3 -69.7c4.67,-11.69 21.89,-9.15 29.32,-1.49 0.91,5.42 -6.11,7.04 -9.1,10.31 -4.23,2.56 -3.87,7.92 -4.17,12.17 -4.68,3.29 -10.68,6.13 -16,2.45 -4.07,-5.84 -8.28,-11.6 -14.29,-15.55 5.23,-1.24 12.14,-1.97 14.24,-7.89zm-82.28 -85.5c8.97,-11.05 18.05,-22 27.65,-32.5 5.47,3.11 15.51,4.8 14.34,13.08 -0.39,8.12 -11.94,8.37 -12.83,15.89 0.59,15.37 -24.97,17.82 -29.16,3.53zm1233.08 -31.95c27.99,-9.72 53.49,-27.35 70.16,-52.14 4.25,25.36 -13.47,49.72 -36.32,59 -11.13,4.39 -24.1,2.13 -33.8,-4.6 -0.02,-0.57 -0.04,-1.71 -0.04,-2.26zm-687.62 -158.22c3.73,-4.85 8.89,0.69 13.17,1.79 4.6,2.44 9.31,-0.71 13.54,-2.43 4.87,3.07 9.69,9.44 5.92,15.18 -3.68,5.4 -6.22,11.39 -6.4,18.02 -4.96,-4.87 -11.14,-10.35 -18.62,-7.13 -8.21,-5.53 -10.84,-16.35 -7.61,-25.43zm-170.5 -24.31c7.71,-3.02 15.96,0.3 22.04,5.22 0.64,5.64 -5.85,7.34 -9.19,10.42 -4.09,2.63 -3.93,7.89 -4.21,12.17 -4.77,4.25 -11.25,5.3 -16.96,2.29 -2.5,-6.57 -7.82,-11.16 -13.04,-15.58 3.78,-1 8.26,-0.89 11.28,-3.79 3.59,-3.41 4.32,-10.04 10.08,-10.73zm318.38 -22.7c4.69,-3.73 12.21,-6.34 16.9,-1.19 3.45,5.62 7.78,10.63 13.29,14.36 -7.21,0.68 -13.93,4.14 -16.17,11.43 -7.27,7.41 -20.6,4.89 -27.49,-2.08 0.05,-7.59 11.28,-7.96 12.69,-15.18 0.19,-1.83 0.58,-5.51 0.78,-7.34zm512.39 -63.19c21.29,10.52 41.28,25.16 54.95,44.85 8.83,12.64 13.1,27.92 13.42,43.26 10.87,6.75 19.14,18.02 20.88,30.85 -8.94,-12.53 -19.76,-24.19 -34.03,-30.6 -0.09,-37.25 -27.46,-66.91 -55.22,-88.36zm-710.99 -15.48c15.66,-2.19 31.63,-0.5 47.27,1.26 -2.7,5.85 -12.19,6.45 -12.01,13.77 -0.16,13.97 -23.55,16.62 -28.31,3.86 -2.38,-6.56 -14.61,-8.64 -9.58,-17.17 0.66,-0.44 1.97,-1.31 2.63,-1.72zm128.17 -17.31c40.27,-15.87 85.09,-12.35 126.48,-2.99 17.79,4.16 35.33,9.44 52.32,16.21 -1.23,23.19 4.6,46.99 18.38,65.88 14.39,20.26 35.56,34.87 58.29,44.48 2.86,0.89 5.72,2.88 8.85,2.33 2.95,-1.56 5.36,-3.96 7.89,-6.08 -34.6,-20.65 -61.99,-58.36 -60.07,-99.96 39.47,-3.59 80.47,-4.94 118.52,7.94 21.09,7.11 41.3,19.76 52.44,39.6 1.39,-8.41 2.74,-16.83 3.93,-25.26 38.39,-7.48 78.73,-9.29 116.74,1.37 -1.35,7.75 -5.95,16.01 -1.99,23.73 3.57,10.07 15.32,15.39 25.43,12.58 3.68,-2.74 6.31,-8.78 11.82,-7.2 5.81,0.98 11.66,1.33 17.56,1.33 23.44,22.24 36.7,54.1 39.2,86.09 6.33,5.51 12.25,11.5 18.2,17.45 3.31,3.27 6.38,6.81 8.98,10.7 11.51,16.62 21.93,34.23 27.81,53.72 -22.02,12.75 -48.66,13.03 -73.17,9.49 -16.15,-2.25 -31.88,-6.59 -47.29,-11.71 13.31,27.37 35.92,49.28 62.06,64.46 -36.7,15.41 -78.07,27.24 -117.68,16.6 -32.83,-8.6 -58.45,-36.31 -67.59,-68.58 -16.31,20.06 -26.55,46.65 -21.89,72.68 3.57,22.68 17.29,42.39 33.85,57.76 -9.72,-1.4 -19.56,-1.69 -29.32,-2.27 11.89,7.76 23.03,16.81 31.83,28.06 11.09,12.58 16.97,29.98 32.34,38.42 28.99,17.01 64.6,12.97 96.09,6.45 -6.64,16.1 -18.3,30.73 -34.69,37.57 -22.78,9.6 -48.85,8.71 -72.4,2.58 -42.01,-11.55 -76.26,-44.2 -94.4,-83.28 -13.79,-24.65 -42.03,-36.11 -67.91,-43.43 -24.82,-4.55 -45.49,-20.69 -62.68,-38.32 -16.88,-18.36 -32.96,-38.74 -39.72,-63.18 -11.85,-40.75 1.3,-84.18 22.84,-119.26 -24.77,17.34 -41.21,44.41 -51.79,72.26 -4.85,-5.25 -9.4,-10.77 -13.79,-16.41 -9.52,40.43 -8.03,84.88 11.41,122.27 23.57,45.23 69.13,76.19 117.72,89.02 21.81,6.75 41.39,19.19 59.36,33 -15.52,-1.72 -30.32,-6.95 -45.41,-10.75 -56.96,-14.38 -115.07,-24.79 -173.68,-29.48 8.62,-17.7 15.09,-39.79 4.39,-58.06 -12.55,-21.1 -37.96,-29.31 -60.8,-33.38 -2.41,-6.04 -6.59,-11.69 -13.04,-13.75 -20.51,-7.36 -42.6,-1.41 -63.78,-3.36 -4.98,-2.12 -9.76,-5.14 -15.32,-5.55 -20.07,-1.9 -40.17,1.12 -59.82,5.14 -8.62,-4.71 -17.06,-9.74 -25.59,-14.63 19.67,-4.83 40.41,-7.87 58.36,-18 18.48,-10.61 33.2,-27.53 41.92,-46.9 -0.94,-0.76 -2.86,-2.31 -3.8,-3.09 -14.02,12.26 -29.75,23.35 -48,28.11 -9.76,2.83 -20.01,2.28 -30.02,3.08 -16.69,1.69 -32.89,7.32 -47.45,15.57 -37.18,-36.86 -91.54,-50.07 -142.4,-51.7 0.39,1.35 1.22,4.05 1.6,5.4 23.76,7.87 46.7,18.38 67.69,32.04 8.53,5.76 17.24,11.73 23.49,20.07 12.53,16.86 31.21,27.35 48.36,38.79 -49.6,9.44 -98.12,25.61 -142.74,49.32 0.03,1.56 0.07,4.69 0.1,6.24 44.17,-10.13 88.86,-20.12 134.36,-20.74 13.43,0.78 30.26,0.39 38.7,12.92 6.44,-8.89 4.27,-20.33 -2.73,-28.19 17.79,-1.33 35.43,-4.53 53.26,-5.19 15.71,-0.46 32.88,8.32 36.06,24.88 1.17,0.09 3.48,0.27 4.62,0.36 3.96,-7.77 5.86,-16.3 7,-24.88 10.77,0.39 21.54,0.87 32.22,2.31 7.91,1.01 16.17,4.99 19.41,12.72 3.37,7.15 0.07,14.97 0.71,22.48 9.65,-3.3 14.09,-13.5 19.76,-21.18 15.34,2.58 32.88,7.73 40.68,22.5 7,14.27 1.12,30.41 -5.65,43.54 -5.28,-0.02 -10.52,-0.25 -15.75,-0.53 1.71,-14.29 -1.83,-28.72 -9.4,-40.88 -11.23,6.56 -19.53,17.65 -22.94,30.18 4.19,13.36 6.2,27.26 5.26,41.28 -4.91,-0.37 -9.81,-0.78 -14.68,-1.17 -0.16,-11.02 -1.78,-21.97 -4.25,-32.7 -2.79,-0.29 -5.58,-0.59 -8.35,-0.87 -0.16,-16.37 -4.02,-33.77 -16.12,-45.62 -12.94,8.26 -20.88,22.21 -24.67,36.77 6.88,12.01 10.93,25.48 11.73,39.31 -4.94,-0.29 -9.86,-0.52 -14.78,-0.68 -1.07,-11.07 -4.45,-21.73 -9,-31.84 -4.46,-0.25 -8.9,-0.47 -13.34,-0.66 -0.66,-15.2 -4.62,-31.14 -15.43,-42.39 -14.71,9.78 -25.84,24.33 -32.09,40.81 5.61,10.82 9.08,22.67 10.3,34.81 -4.74,-0.02 -9.45,-0.02 -14.18,-0.05 -1.6,-10.43 -4.96,-20.42 -8.94,-30.16 -8.74,-0.27 -17.43,0.46 -26.12,0.92 -2.72,-11.51 -10.4,-20.95 -19.21,-28.47 -13.78,3.72 -23.5,15.91 -26.61,29.52 7.73,10.1 12.71,22 15.89,34.28 -5.37,0.43 -10.73,0.89 -16.08,1.39 -2.21,-11.02 -7.11,-21.18 -12.21,-31.1 -13.05,0.59 -25.95,2.95 -38.83,5.12 -36.74,6.61 -73.2,14.75 -109.44,23.65 -2.72,0.23 -5.99,2.12 -8.35,0.04 -12.34,-8.82 -15.68,-24.51 -21.22,-37.75 -9.69,-22.73 -23.39,-46.08 -46.35,-57.42 -10.97,-6.4 -26.14,-1.85 -35.15,-12.14 -10.77,-13.82 -8.91,-35.17 2.27,-48.25 6.97,-8.72 17.61,-12.97 26.43,-19.37 28.82,-20.4 52.62,-46.86 74.82,-74.09 14.3,-17.82 27.65,-36.36 40.16,-55.46 29.54,-43.65 70.96,-80.6 121.04,-98.55 14.91,-5.67 30.55,-8.9 46.14,-11.96 -6.45,6.65 -12.35,15.5 -9.85,25.27 2.15,9.26 12.07,12.69 19.48,16.8 17.4,9.74 39.77,7.53 56.37,-2.79 8.55,-4.71 6.26,-17.49 15.46,-21.38 5.48,-3.43 12.53,-1.44 18.2,-4.18 2.6,-2.22 4.18,-5.33 6.38,-7.94 28.9,6.36 56.91,16.65 83.33,29.96 5,3.34 12.3,-2.88 8.94,-8.19 -11.02,-18.79 -27.26,-34.18 -45.28,-46.26zm423.55 43.06l0 0c-6.27,1.1 -6.36,9.97 -12.65,10.93 -6.49,1.12 -15.61,4.6 -14.33,12.85 4.29,13.97 24.97,20.29 35.44,9.4 4.3,-4.87 12.94,2.27 16.28,-4.48 4.44,-5.9 -3.93,-10.59 -3.38,-16.69 0.59,-10.93 -12.6,-15.6 -21.36,-12.01zm-342.85 9.54l0 0c-8.74,2.08 -18.02,4.73 -24.33,11.52 -4.26,4.07 -5.35,10.06 -7.8,15.16 -5.05,5.33 -12.92,4.05 -19.39,5.7 -14.22,5.9 -14.84,30.48 0.04,35.97 7.78,2.7 12.1,9.94 15.28,17.06 3.54,9.62 14.06,13.85 23.26,16.28 16.3,4.07 33.95,-3.09 44.4,-15.85 4.72,-5.3 2.29,-12.65 2.98,-19 2.99,-5.86 9.65,-7.89 14.75,-11.37 10.9,-6.83 17.4,-21.49 12.3,-33.82 -3.68,-9.12 -13.72,-12.51 -21.63,-16.97 -12.15,-6.49 -26.53,-7.95 -39.86,-4.68zm162.01 3.7l0 0c12.22,23.33 30.1,43.59 51.71,58.61 13.74,-7.36 28.08,-13.74 43.31,-17.38 -2.68,-10.63 -10.38,-19.18 -19.65,-24.67 -22.63,-13.45 -49.73,-15.21 -75.37,-16.56zm230.78 9.31l0 0c-10.43,7.7 -16.53,25.72 -5.44,35.24 4.92,3.56 -1.3,11.09 3.77,14.7 2.77,2.7 7.3,1.51 9.77,-1.05 3.84,-3.73 9.33,-4.3 14.06,-6.34 6.38,-4.89 8.42,-14.15 5.31,-21.49 -1.06,-5.08 -7.3,-4.76 -10.25,-8.1 -2.1,-4.14 -2.13,-9.44 -5.76,-12.66 -2.93,-2.98 -8.42,-3.05 -11.46,-0.3zm-727.06 13.81l0 0c-13.2,4.23 -30.53,14.32 -27.01,30.71 1.16,6.29 -5.47,9.7 -9.99,12.33 -7.28,3.68 -13.77,9.44 -16.86,17.12 -4.07,9.49 -2.31,22.05 6.52,28.27 13.81,8.78 29.7,17.01 46.63,14.43 11.77,-1.74 24.62,-4.55 33.04,-13.68 4.96,-4.75 4,-13.7 10.54,-16.94 6.13,-3.34 14.25,-0.64 19.76,-5.44 7.73,-6.11 8.62,-17.91 4.53,-26.35 -3.64,-7.43 -13.56,-7.66 -17.98,-14.38 -4.75,-5.97 -6.13,-14.43 -12.64,-18.98 -10.38,-7.43 -24.11,-10.45 -36.54,-7.09zm133.63 30.57l0 0c-1.42,5.83 -0.25,12.17 -2.9,17.75 -2.82,6.95 -8.69,12.1 -11.73,18.89 -3.94,14.33 -1.54,31.44 9.39,42.19 7.14,6.29 16.13,11.93 26.03,11.11 6.97,0.11 10.77,-9.15 18.11,-6.77 5.19,1.97 9.28,5.95 14.34,8.19 12.03,5.01 27.94,0.94 34.43,-10.84 4.9,-9.17 3.8,-20.06 4.19,-30.09 0.69,-17.38 -9.33,-33.46 -22.55,-43.98 -7.29,-5.85 -17.31,-5.44 -25.84,-2.99 -8.62,-3.32 -8.57,-15.76 -18.11,-17.52 -10.2,-2.4 -21.68,4.37 -25.36,14.06zm486.02 -7.98l0 0c-5.37,7.75 -17.76,7.48 -20.26,17.38 -1.87,7.3 5.38,14.34 12.63,12.9 5.92,-0.62 8.18,6.13 13.03,8.14 12.9,5.37 25.5,-12.42 19.23,-23.74 -1.23,-3.75 -5.44,-4.39 -8.55,-5.83 -4.25,-0.75 -4.12,-5.81 -6.06,-8.8 -2.84,-1.67 -7.29,-1.92 -10.02,-0.05zm51.61 -1.99l0 0c-3.88,14.71 -1.18,30.39 5.68,43.77 -4.85,8.05 -8.17,18.75 -2.66,27.33 7.41,10.75 20.93,14.61 33.23,16.23 4.37,1.97 9.22,1.9 13.79,0.58l1.42 -0.67c0,0.09 -0.03,0.25 -0.03,0.35 10.73,-2.82 21.54,-5.67 31.35,-11.07 17.68,11.93 34.65,24.95 52.53,36.58 -9.92,-16.85 -20.58,-33.27 -30.55,-50.12 -22.27,-2.7 -44.39,-9.01 -63.59,-20.76 -17.27,-10.11 -30.9,-25.23 -41.17,-42.22zm100.85 10.82l0 0c-5.79,13.7 9.97,33 24.95,26.82 5.97,-2.56 9.69,7.3 15.59,3.68 8.33,-4.32 1.38,-15.91 7.64,-22.36 -0.64,-10.57 -10.82,-17.33 -20.92,-15.69 -6.43,10.82 -20.38,-3.17 -27.26,7.55zm-248.93 25.04l0 0c-12.01,4.94 -2.34,18.11 -7.14,26.91 -5.94,13.31 6.2,29.18 20.49,28.4 7,1.17 9.03,-8.55 15.6,-8.41 7.36,1.01 16.48,4.05 22.38,-2.38 5.86,-5.44 3.18,-13.9 1.24,-20.51 -2.75,-10.88 -12.3,-19.37 -23.1,-21.75 -5.14,-1.05 -9.26,3.18 -14.2,3.46 -5.81,-0.3 -9.15,-8.69 -15.27,-5.72zm85.02 41.53l0 0c-4.12,2.81 -5.08,8.09 -3.48,12.6 3.09,8.55 -5.12,16.64 -1.76,25.15 2.52,10.04 12.71,16.67 22.91,15.64 5.93,0.3 7.46,-7.86 13.2,-8.14 7.34,0.55 15.84,4.14 22.13,-1.55 7.05,-5.26 4.21,-14.89 2.06,-21.93 -2.72,-10.27 -11.57,-18.16 -21.61,-20.95 -6.86,-2.4 -13.44,6.45 -19.69,1.49 -3.84,-3.14 -9.37,-7 -13.76,-2.31zm-144.43 28.49l0 0c1.57,6.04 -0.28,12.51 -6.38,15.02 -7.69,3.48 -14.09,12.72 -9.47,20.95 6.81,7.04 16.88,11.23 26.69,11.23 9.51,-0.53 21.44,-3.46 24.17,-14.07 2.49,-8.62 15.48,-2.83 18.08,-11 2.43,-5.28 -0.2,-11.31 -5.62,-13.21 -8.51,-3.68 -8.28,-16.08 -17.77,-18.34 -10.65,-4.76 -23.28,0.16 -29.7,9.42zm105.58 28.95l0 0c-3.87,2.19 -7.46,7.11 -12.47,4.96 -7,-1.99 -15.46,-3.52 -21.2,2.13 -4.89,4.39 -2.88,11.29 -1.48,16.78 1.97,10.2 10.93,17.59 20.4,20.7 5.9,2.12 11.68,-2.98 17.54,-1.4 4.57,2.52 9.33,8.46 14.93,4.62 9.56,-4.55 1.62,-16.05 6.93,-23.32 7.43,-14.32 -11.16,-29.87 -24.65,-24.47zm-725.33 26.57l0 0c-4.83,3.93 -4.83,10.27 -4.12,15.89 -3.77,2.56 -7.8,4.78 -11.39,7.64 -7.15,5.83 -9.92,17.29 -4.27,25.06 13.69,14.02 37.25,17.18 53.76,6.27 4.46,-2.84 5.69,-8.28 8.34,-12.51 3.94,-2.93 9.75,-1.46 13.88,-4.25 5.65,-4.85 6.68,-13.79 3.05,-20.13 -2.66,-3.68 -7.34,-4.93 -10.64,-7.88 -4,-5.29 -5.76,-12.79 -12.46,-15.46 -11.59,-6.73 -26.71,-3.66 -36.15,5.37zm104.46 8.48l0 0c-12.7,3.82 -18.64,22.14 -8.4,31.54 4.58,6.31 12.51,5.88 19.44,5.92 3.89,3.57 6.84,8.6 12.14,10.25 6.56,1.94 14.45,2.17 20.19,-2.04 8.88,-7.68 16.35,-19.8 11.85,-31.81 -1.69,-8.18 -9.47,-12.85 -17.24,-13.88 0.39,-8.39 -6.84,-14.38 -15,-12.92 -10.2,-0.87 -13.75,11.09 -22.98,12.94zm741.88 -10.31l0 0c-0.02,1.35 -0.07,4.05 -0.09,5.4 4.82,2.1 9.97,4.34 15.36,3.34 3.39,-0.39 8.69,-2.43 6.36,-6.77 -6.01,-5.22 -14.66,-4.55 -21.63,-1.97zm32.17 0.67l0 0c-2.72,1.07 -4.59,4.45 -2.42,7.04 5.35,4.46 12.92,4.64 19.53,3.75 3.47,-0.55 9.37,-2.81 7.22,-7.46 -6.15,-6.45 -16.55,-6.26 -24.33,-3.33zm36.43 2.05l0 0c-4.07,1.26 -6.58,6.61 -2.67,9.65 9.1,5.35 21.88,5.67 30.87,-0.09 3.91,-1.97 2.74,-7.77 -1.12,-9.03 -8.3,-4.21 -18.55,-3.89 -27.08,-0.53zm27.74 20.81l0 0c-5.95,0.62 -17.43,6.43 -11.18,13.27 9.94,5.32 25.47,3.88 32.15,-5.88 -0.37,-9.68 -14.13,-8.62 -20.97,-7.39zm-48.21 7.66l0 0c2.86,9.01 14.21,8.39 21.55,6.18 3.49,-1.08 9.17,-4.94 5.62,-8.85 -7.84,-6.45 -20.01,-3.68 -27.17,2.67zm-25.31 -1.53l0 0c-4.09,2.63 -1.67,6.38 1.94,7.68 6.66,1.79 15.94,1.51 18.92,-5.99 -5.93,-4.71 -14.32,-5.71 -20.86,-1.69zm-178.27 9.15l0 0c-9.47,5.58 -0.94,16.83 -4.94,24.79 -6.7,13.4 5.37,30.18 20.05,29.36 7.39,1.69 9.08,-8.9 16.06,-8.35 6.74,1.03 14.4,4 20.37,-1.03 7.11,-4.34 5.69,-13.51 3.38,-20.21 -2.6,-12.26 -13.53,-22.46 -26.04,-23.69 -3.89,1.02 -7.48,2.88 -11.34,3.98 -6.11,-1.03 -11.03,-10.14 -17.54,-4.85zm-652.34 58.81l0 0c-0.2,7.46 6.06,11.78 11.23,15.89 -0.28,10.68 4.53,22.92 16.05,25.43 13.77,1.49 29.89,-6.35 32.84,-20.92 2.99,-7.55 -1.28,-14.66 -5.65,-20.49 4.87,-6.22 3.52,-15.14 -3.47,-19.14 -7.53,-6.81 -17.41,0.66 -25.89,-2.74 -13.03,-4.28 -28.1,8.16 -25.11,21.97zm-166.11 14.84l0 0c-10.15,2.68 -20.19,8.1 -26.48,16.72 -3.66,4.76 -2.65,10.82 -2.19,16.35 -1.33,7.75 -10.13,9.83 -15.71,13.79 -13.65,8.25 -19.03,30.91 -5.33,41.57 12.51,8.1 26.57,15.96 41.98,15.05 13.11,-0.67 27.22,-3.55 37.19,-12.62 6.22,-5.1 4.73,-15.92 12.96,-18.92 6.52,-2.05 14.52,-0.36 19.71,-5.67 6.34,-6.83 7.41,-17.93 2.82,-25.95 -3.69,-6.66 -12.51,-7.14 -16.99,-12.95 -4.56,-5.51 -6.22,-12.87 -11,-18.15 -10.09,-8.44 -24.11,-11.69 -36.96,-9.22z"/>
  </g>
 </g>
</svg>
