<?xml version="1.0" encoding="UTF-8"?>
<!DOCTYPE svg PUBLIC "-//W3C//DTD SVG 1.1//EN" "http://www.w3.org/Graphics/SVG/1.1/DTD/svg11.dtd">
<!-- Creator: CorelDRAW -->
<svg xmlns="http://www.w3.org/2000/svg" xml:space="preserve" width="2000px" height="1600px" version="1.1" style="shape-rendering:geometricPrecision; text-rendering:geometricPrecision; image-rendering:optimizeQuality; fill-rule:evenodd; clip-rule:evenodd"
viewBox="0 0 2000 1600"
 xmlns:xlink="http://www.w3.org/1999/xlink">
 <defs>
  <style type="text/css">
   <![CDATA[
    .fil1 {fill:#A80531;fill-rule:nonzero}
    .fil0 {fill:#FCB827;fill-rule:nonzero}
   ]]>
  </style>
 </defs>
 <g id="Capa_x0020_1">
  <metadata id="CorelCorpID_0Corel-Layer"/>
  <g id="Southern_x0020_California_x0020_Trojans.cdr">
   <path class="fil0" d="M719.63 650.03c35.64,-35.52 71.08,-71.22 106.81,-106.67 108.55,0.12 217.1,0.02 325.66,0.05 34.25,34.24 68.5,68.51 102.75,102.74 0,42.49 0,84.97 0,127.46 -58.41,0 -116.82,0 -175.24,0 -0.01,-21.21 0,-42.41 0,-63.61 -63.31,0 -126.64,0 -189.95,0 0,26.97 0,53.95 0,80.91 87.61,0 175.23,0.02 262.82,-0.01 33.73,33.71 67.52,67.36 101.13,101.19 -0.09,11.7 -0.05,23.4 -0.04,35.12 28.06,0.02 56.13,-0.05 84.22,0.04 31.3,31.39 62.71,62.7 94.04,94.08 0,47.08 0.01,94.17 0,141.27 -54.52,0.01 -109.04,0 -163.56,0 -0.02,-28.27 0.02,-56.55 0,-84.81 -4.92,0 -9.81,0 -14.7,0 -0.01,7.3 -0.01,14.62 -0.05,21.94 -37.43,37.34 -74.82,74.74 -112.19,112.18 -25.04,0.05 -50.08,0 -75.13,0.01 0,50.77 0,101.53 0,152.31 65.04,0 130.1,0 195.15,0 0.01,-27.41 -0.02,-54.81 0.01,-82.23 54.23,0.02 108.44,0.02 162.66,0 0.07,50.66 -0.07,101.32 0.07,151.98 -28.68,28.71 -57.22,57.57 -86.16,86.02l-357.33 0c-29.03,-28.35 -57.48,-57.31 -86.21,-85.97 0.07,-74.35 0.03,-148.7 0.01,-223.06 -28.15,0.94 -56.33,0.35 -84.51,0.54 -30.13,-30.01 -60.13,-60.16 -90.26,-90.19 -0.03,-48.69 -0.02,-97.39 -0.02,-146.08 55.11,0 110.2,-0.02 165.29,0 0,27.4 0.02,54.78 0,82.18 3.17,0.02 6.34,0.02 9.5,0.05 0.25,-10.9 -0.43,-21.83 0.2,-32.73 -0.04,-2.6 2.19,-4.33 3.7,-6.14 23.81,-23.58 47.46,-47.34 71.13,-71.05 -49.03,-0.04 -98.08,0.05 -147.11,-0.04 -34.2,-34.28 -68.49,-68.48 -102.71,-102.75 0.02,-64.91 -0.01,-129.83 0.02,-194.73zm319.29 -570.03l14.04 0c9.4,1.26 19.04,4.31 25.93,11.13 5.26,5.02 7.99,12.74 6.35,19.9 -1.71,8.12 -8.08,14.35 -15.09,18.3 -12,6.63 -26.43,7.91 -39.74,5.38 -9.52,-2.08 -19.33,-6.78 -24.28,-15.58 -4.31,-7.37 -3.14,-17.15 2.12,-23.73 7.29,-9.46 19.27,-13.6 30.67,-15.4zm-5.43 11.23l0 0c-7.96,2.31 -16.91,6.48 -19.78,14.89 -1.98,6.59 3.37,12.36 8.77,15.19 12.69,6.74 28.59,6.27 41.42,0.09 5.42,-2.79 11.13,-7.22 11.89,-13.71 0.52,-5.9 -4.34,-10.52 -9.02,-13.26 -10.07,-5.43 -22.32,-6.1 -33.28,-3.2zm-421.65 30.1c11.11,-3.17 22.9,-8.5 34.46,-4.12 12.05,4.48 22.14,12.83 33.51,18.69 0,6.46 0,12.92 0,19.37 -5.18,-1.92 -10.35,-3.84 -15.53,-5.73 -37.99,12.39 -74.84,28.39 -109.45,48.38 -14.78,56.87 -31.74,113.76 -35.85,172.68 -1.85,24.09 -1.02,48.39 2.55,72.29 0.29,6.61 7.94,11.94 14.09,8.79 9.77,-4.65 16.46,-13.67 25.37,-19.61 5.16,-3.7 11.34,-5.38 17.31,-7.25 -1.79,8.6 -3.86,17.26 -7.93,25.13 -9.76,19.35 -25.03,35.05 -37.33,52.7 -3.81,4.76 -6.72,11.1 -12.97,13.05 -17.51,6.32 -36.45,13.24 -55.22,8.43 -4.37,-1.4 -10.63,-2.42 -11.17,-8.03 -8.95,-38.09 -4.79,-77.66 1.06,-115.87 3.61,-22.28 5.6,-44.78 9.34,-67.02 7.36,-30.98 15.11,-61.84 22.49,-92.8 -36.33,24.06 -70.93,52.37 -95.59,88.72 8.56,-2.18 17.08,-4.55 25.68,-6.63 -0.43,5.92 -0.07,12.88 -5.21,16.98 -11.44,10.1 -24.71,17.86 -37.04,26.81 -11.8,8.37 -24.35,16.94 -39.03,18.91 -8.32,0.92 -17.2,0.28 -24.73,-3.65 -6.51,-3.53 -9.99,-10.61 -11.61,-17.57l0 -14.03c0.72,-4.88 1.36,-10.14 4.84,-13.92 18.06,-21.16 37.2,-41.38 57.17,-60.75 71.14,-68.47 155.82,-124.91 250.79,-153.95zm20.06 4.47l0 0c-40.74,10.83 -80.03,27.03 -117.02,47.23 -74.21,40.57 -139.26,96.52 -195.02,159.82 -3.27,3.91 -7.24,7.39 -9.66,11.94 -1.63,7.48 -3.04,15.94 0.45,23.12 2.89,5.89 9.95,7.58 15.92,8.03 13.16,1.03 25,-6.04 35.47,-13.11 11.73,-8.35 23.74,-16.29 35.51,-24.6 -7.66,1.18 -15.28,-0.57 -21.08,-5.81 8.79,-14.54 19.3,-28.01 30.98,-40.31 24.96,-26.14 53.93,-48.22 84.69,-67.05 2.15,2.71 4.27,5.43 6.42,8.17 -7.96,32.24 -15.73,64.54 -23.68,96.78 -2.14,8.26 -2.96,16.77 -4.08,25.22 -2.98,25.4 -7.29,50.62 -10.32,76.03 -3.22,27.12 -3.37,54.83 2.63,81.61 16.78,6.21 34.52,0.43 50.51,-5.32 6.35,-1.75 9.22,-8.17 13.01,-12.93 11.65,-16.7 26.16,-31.55 35.09,-50.03 -8.05,5.8 -14.77,13.91 -24.49,17.04 -10.87,3.6 -25.03,-4.65 -25.48,-16.54 -5.35,-37.18 -4.1,-75.1 1.54,-112.17 7.06,-46.99 20.32,-92.72 32.3,-138.6 0.72,-3.88 4.84,-5.25 7.77,-7.15 35.65,-19.73 73.07,-36.64 112.22,-48.13 -10.7,-5.3 -20.72,-16 -33.68,-13.24zm238.74 39.72c5.82,-6.94 15.27,-8.43 23.76,-9.42 23.11,-2.25 46.87,9.33 59.32,28.92 13.26,21.48 17.79,47.13 17.44,72.07 8.14,-2.44 15.74,-6.75 21.34,-13.22 9.66,-10.18 12.85,-24.51 13.85,-38.08 0.94,-15.14 2.39,-30.25 4.14,-45.33 9.05,-1.99 18.36,-2.63 27.6,-1.95 12.91,0.95 25.86,1.07 38.79,1.57 -2.08,60.87 -14.97,120.67 -19.45,181.34 17.82,-10.77 31.36,-26.9 44.49,-42.74 -14.52,-32.86 -9.17,-75.75 17.88,-100.68 20.24,-18.67 49.17,-24.71 75.97,-22.41 15.21,1.35 29.4,7.51 43.08,13.92 3.82,-3.1 8.11,-7.84 13.58,-5.56 17.21,5.95 34.24,12.44 51.44,18.4 -4.22,25.67 -9.24,51.21 -13.41,76.9 -1.6,12.86 -4.05,25.87 -2.67,38.85 8.41,0.94 18.09,-1.14 23.51,-8.13 11.94,-14.58 16.87,-33.34 19.67,-51.6 2.25,-15.3 4.37,-30.61 6.81,-45.9 22.83,0.7 42.82,12.72 63.83,20.2 1.02,20.65 -5.3,40.55 -7.9,60.86 17.8,-9.82 30.78,-26.11 48.24,-36.35 10.96,-6.54 25.17,-9.33 37.13,-3.98 6.63,4.88 11.75,11.51 18.38,16.42 7.54,6.34 16.61,10.49 26.08,13.09 0,3.46 0,6.92 0.02,10.38 -14.59,11.55 -29.3,24.32 -36.95,41.73 -6.36,13.59 -6.72,29.56 -1.27,43.51 32.26,-23.34 55.02,-56.82 76,-90.07 4.15,-6.31 7.88,-14.31 15.8,-16.49 8.48,-2.03 17.53,-0.9 25.74,1.87 5.61,1.92 10.21,7.86 9.17,13.95 -1.75,6.35 -6.83,11.13 -8.63,17.44 0.7,2.15 2.23,3.9 3.68,5.6 20.18,21.79 40.21,44.53 52.93,71.63 9.79,20.65 14,44.24 10,66.86 -0.91,6.54 -5.59,11.48 -9.29,16.62 13.41,3.53 26.81,7.09 40.22,10.64l0 12.53c-44.12,12.12 -93.17,8 -133.6,-13.93 -5.52,-2.89 -10.69,-6.46 -14.95,-11.03 -13.48,-14.21 -24.99,-30.13 -36.02,-46.28 -16.3,5.42 -30.79,18.75 -49.01,16.01 -13.11,-0.97 -21.97,-11.82 -28.94,-21.79 -16.89,-24.92 -20.44,-55.81 -22.73,-85.1 -11.18,2.75 -23.05,6.46 -31.05,15.18 -2.18,10 -2.02,20.39 -3.77,30.5 -1.8,10.02 -0.54,20.18 1.8,29.99 -11.03,0.61 -22.26,0.78 -33.02,-2.06 -14.28,-3.41 -27.42,-10.33 -39.36,-18.69 0.83,-11.39 1.64,-22.78 2.42,-34.18 -21.36,7.09 -41.81,21.51 -65.33,18.08 -10.11,-3.49 -11.7,-15.94 -18.25,-23.26 -17.48,6.02 -35.6,11.37 -54.27,11.18 -10.32,-0.14 -21.24,-0.86 -30.33,-6.26 -9.46,-5.44 -18.93,-10.87 -28.43,-16.22 -15.84,15.94 -32.21,31.36 -48.17,47.21 -7.75,7.84 -17.38,14.59 -21.41,25.29 -15.89,35.55 -35.05,72.09 -67.97,94.67 -7.7,5.91 -17.95,5.54 -27.12,5.07 -24.75,-1.73 -47.8,-14.62 -64.02,-33.1 24.52,-35.87 59.71,-62.88 96.66,-84.97 8.6,-30.58 11.82,-62.43 12.34,-94.12 -15.35,6.75 -29.11,16.72 -44.98,22.35 -6.89,2.26 -11.61,7.99 -17.1,12.37 -16.36,13.24 -35.15,23.8 -55.56,29.27 -22.22,6.04 -46.4,5.29 -67.88,-3.22 -8.1,-3.18 -14.47,-9.45 -19.97,-16.01 -17.53,-21.5 -20.63,-50.82 -19.04,-77.57 -11.92,5.15 -22.62,16.94 -36.64,14.26 -10.54,-2.81 -12.91,-14.61 -16.44,-23.37 -27.95,13.73 -49.62,37.65 -65.42,64.08 -3.76,6.52 -8.45,13.25 -7.85,21.16 0.42,22.16 -1.73,44.87 5.01,66.36 -21.05,9.49 -43.45,18.87 -67.09,16.27 -7.75,-61.13 8.53,-121.45 17,-181.57 20.16,-11.31 43.09,-17.71 66.3,-16.22 -2.26,12.55 -5.59,24.92 -6.99,37.61 15.73,-14.51 24.92,-34.41 39.97,-49.54 7.56,-7.61 17.37,-13.95 28.41,-14.22 6.75,-0.44 13.19,1.85 19.35,4.31 5.59,2.49 11.83,2 17.8,2.23 0.79,15.9 -6.72,30.23 -10.51,45.26 23.89,-7.15 33.39,-32.35 51.08,-47.49 9.58,-9.11 22.57,-12.74 34.7,-17.14 10.49,-3.74 22.41,-5.9 30.06,-14.76zm6.18 7.73l0 0c-9.1,9.97 -22.76,12.66 -34.93,16.98 -8.58,3.27 -17.72,5.71 -25.21,11.27 -17.43,12.69 -26.09,34.15 -44.33,45.95 3.45,-0.14 6.89,-0.21 10.35,-0.24 -2.25,22.19 -2.53,45.5 6.27,66.41 4.89,11.35 12.65,22.1 23.6,28.21 19.77,8.91 42.67,9.5 63.44,3.86 23.14,-6.32 44.08,-19.35 61.46,-35.7 5.02,-5.13 12.48,-5.84 18.6,-8.99 16.72,-7.94 31.81,-19.87 50.42,-23.35 0.03,36.89 -2.75,74.1 -12.65,109.75 -0.94,5.92 -7.43,7.62 -11.69,10.66 -30.75,19.06 -59.6,42.15 -81.51,71.17 14.21,13.54 32.78,22.99 52.54,24.27 6.84,0.33 14.52,0.71 20.17,-3.91 29.85,-20.39 47.23,-53.33 62.04,-85.3 2.82,-5.71 4.69,-12.06 8.97,-16.9 23.36,-22.94 46.92,-45.66 70.2,-68.65 11.73,6.61 23.35,13.43 35.03,20.13 7.03,4.16 15.4,4.76 23.4,5.11 19.75,0.52 38.7,-5.96 57.08,-12.4 10.25,4.63 13.66,15.67 19.02,24.58 26.93,1.94 48.41,-18.03 74.37,-21.39 -0.4,13.88 -2.92,27.76 -2.37,41.62 14.54,10.39 32.19,16.17 50,17.12 -2.4,-15.78 2.05,-31.34 2.76,-47.04 0.67,-4.02 -0.16,-9.05 3.41,-11.91 12.75,-11.97 30.23,-18.69 47.73,-18.55 2.04,33.26 4.24,69.83 26.34,96.73 5.83,8.14 15.8,13.81 26.02,11.13 15.21,-4.03 27.65,-15.42 43.66,-17.14 11.6,17.61 23.96,34.81 38.34,50.27 5.71,6.3 13.53,9.95 21.06,13.55 31.87,14.68 68.32,17.67 102.64,11.4 -10.21,-2.85 -20.46,-5.62 -30.76,-8.1 -0.72,-3.15 -2.02,-6.37 -1.38,-9.65 1.75,-6.67 8.6,-10.73 9.69,-17.66 3.67,-20.9 -0.93,-42.52 -10.19,-61.39 -12.78,-26.2 -32.39,-48.16 -51.94,-69.45 -2.72,-2.93 -4.78,-6.65 -4.61,-10.75 -0.12,-7.63 5.51,-13.5 9.17,-19.68 -8.48,-4.76 -23.27,-8.98 -29.02,1.64 -24.18,38.5 -49.81,78.1 -88.3,103.8 -3.35,-2.41 -7.29,-4.5 -9.13,-8.38 -6.54,-14.55 -6.31,-31.55 -1.02,-46.45 6.79,-19.09 21.48,-33.94 36.92,-46.47 -12.88,-5.14 -24.16,-13.56 -33.73,-23.47 -6.58,-8 -18.57,-6.15 -27,-2.46 -22.31,10.44 -36.54,32.99 -59.84,41.87 -2.95,-2.55 -5.95,-5.09 -8.93,-7.6 2.69,-19.47 7.74,-38.6 9.14,-58.26 -15.26,-5.64 -29.96,-13.1 -46.07,-16.11 -1.54,9.91 -3,19.85 -4.34,29.8 -3.33,24.42 -9.11,50.71 -27.61,68.37 -10.66,7.06 -25.5,9.81 -36.83,2.66 -0.75,-39.08 9.76,-77.02 15.35,-115.42 -14.57,-5.11 -29.11,-10.34 -43.62,-15.61 -1.9,3.18 -3.75,6.4 -5.55,9.64 -15.18,-7.67 -30.83,-15.63 -48,-17.35 -18.19,-1.54 -37.1,0.78 -53.49,9.16 -14.7,7.65 -26.92,20.51 -32.59,36.19 -8.43,22.34 -7.53,48.37 4.1,69.44 -17.19,20.66 -34.32,43.28 -59.64,54.41 -2.34,-2.32 -4.68,-4.62 -7.01,-6.9 4.15,-59.68 16.61,-118.46 19.68,-178.22 -15.7,-0.09 -31.38,-2.22 -47.05,-0.66 -1.66,13.64 -2.58,27.37 -3.61,41.07 -1.34,16 -6.51,32.58 -18.92,43.5 -9.17,9.83 -22.9,15.47 -36.33,12.27 2.16,-25.48 -1.39,-52.17 -14.64,-74.42 -10.42,-17.24 -31.21,-27.63 -51.23,-25.29 -6.41,0.88 -13.5,1.99 -17.9,7.23zm-176.56 48.48l0 0c-14.78,17.81 -25.02,40.55 -45.98,52.29 -1.79,-5.12 -3.71,-10.3 -3.91,-15.79 -0.54,-9.95 2.71,-19.5 4.48,-29.18 -15.91,0.75 -31.22,5.75 -45.33,12.93 -2.42,13.83 -4.5,27.71 -6.78,41.58 -7.01,40.96 -14.66,82.61 -10.22,124.3 16.34,-0.71 31.78,-6.44 46.56,-13 -4.76,-21.03 -2.56,-42.64 -3.04,-63.97 -0.06,-3.58 0.24,-7.25 2,-10.43 10.18,-19.94 23.27,-38.5 39.29,-54.18 13.12,-12.54 28.14,-23.59 45.38,-29.73 3.76,6.28 7.15,12.77 9.54,19.69 1.02,3.4 3.91,5.61 6.39,7.93 6.83,-2.21 13.2,-5.57 19.26,-9.43 -5.19,0.6 -10.39,1.12 -15.59,1.49 1.14,-16.12 9.19,-30.45 12.3,-46.09 -9.05,-1.6 -16.84,-8.21 -26.38,-7.27 -11.97,0.76 -20.78,10.17 -27.97,18.86zm139.07 0.57c5.63,-13.51 20.18,-24.23 35.27,-21.28 -3.2,23.36 -6.9,48.44 2.81,70.82 4.38,10.82 13.43,18.79 23.55,24.14 -0.86,4.47 -1.22,9.37 -4.24,13.04 -5.4,7.06 -13.62,11.14 -21.37,15.05 -11.79,5.91 -26.52,1.01 -34.96,-8.43 -4.43,-4.62 -5.63,-11.14 -6.96,-17.16 -5.18,-25.22 -4.31,-52.27 5.9,-76.18zm9.61 2.57l0 0c-10.79,23.86 -11.04,51.43 -4.78,76.56 1.82,9.96 12.77,16.6 22.43,15.43 8.93,-3.38 17.83,-8.16 23.61,-16.01 -8.43,-6.03 -16.13,-13.38 -20.6,-22.88 -10.35,-20.58 -8.89,-44.47 -6.05,-66.64 -5.73,3.39 -11.89,7.15 -14.61,13.54zm38.47 -22.87c8.86,3.12 18.31,7.27 22.95,16.01 8.09,14.63 5.52,32.02 5.25,48.03 -6.63,-1.75 -13.99,-3.11 -18.82,-8.41 -5.88,-6.28 -7.3,-15.27 -7.51,-23.54 -0.21,-10.71 -1.19,-21.39 -1.87,-32.09zm11.2 16.7l0 0c0.52,11.53 -1.52,25.29 7.79,34.07 0.71,-11.77 -0.28,-24.41 -7.79,-34.07zm288.21 -7.49c14.26,-9.83 34.67,-7.44 47.75,3.29 2.98,2.02 2.27,6.09 2.67,9.17 1.21,26.69 -12.41,51.27 -12.31,77.89 -13.71,7.68 -28.54,15.82 -44.81,14.62 -8.53,0.11 -13.76,-7.7 -18.1,-13.93 -8.12,-12.19 -6.81,-27.56 -4.99,-41.35 2.81,-19.57 12.6,-39.05 29.79,-49.69zm-2.91 14.8l0 0c-14.12,14.22 -18.74,35.18 -18.33,54.66 0.04,9.9 5.42,19.52 13.43,25.2 13.1,2.21 25.34,-4.8 36.63,-10.49 0.88,-18.66 7.3,-36.37 10.69,-54.59 0.9,-6.27 2.01,-12.74 0.71,-19.02 -5.33,-4.54 -12.46,-6.61 -19.37,-6.84 -9.24,-0.73 -17.36,5.04 -23.76,11.08zm391.19 109.57c16.06,10.96 30.37,25.64 37.4,44.07 6.73,16.87 5.49,36.97 -4.38,52.35 -2.82,3.86 -8.08,6.01 -12.74,4.44 -11.64,-2.7 -20.78,-11.27 -27.83,-20.53 -6.78,-9.04 -14.07,-17.67 -21.29,-26.36 6.44,-19.37 12.57,-40.33 28.84,-53.97zm-17.69 51.77l0 0c5.26,6.51 10.77,12.83 15.77,19.56 5.42,7.18 11.53,14.36 19.94,18.12 2.14,0.43 5.1,3.06 6.92,0.73 7.55,-11.25 8.79,-26.05 4.78,-38.86 -4.8,-15.47 -15.89,-28.09 -28.42,-37.96 -9.35,11.1 -14.51,24.81 -18.99,38.41zm-607.5 51.02c11.98,-14.73 25.56,-28.69 42.82,-37.16 -2.54,13.92 -6.09,27.94 -13.81,39.97 -3.76,5.6 -7.43,11.89 -13.54,15.19 -5.22,-0.1 -11.47,-0.78 -15.07,-5 -2.06,-3.82 -3.06,-9.26 -0.4,-13zm7.46 7.43l0 0c1.23,-0.04 3.69,-0.09 4.92,-0.12 5.88,-5.26 9.26,-12.64 12.73,-19.58 -6.37,6.08 -12.84,12.24 -17.65,19.7zm-123.85 116.27l0 0c-31.71,31.93 -63.73,63.56 -95.37,95.56 0.21,59.99 -0.09,119.99 0.16,179.98 30.75,30.5 61.23,61.25 91.92,91.8 87.32,-0.05 174.61,-0.02 261.91,-0.02 0.02,51.04 0.02,102.1 0,153.14 -8.65,0 -17.3,0 -25.94,0.02 -0.02,37.05 0.02,74.11 -0.02,111.18 22.42,0.07 44.85,0 67.26,0.04 33.87,-33.86 67.74,-67.68 101.55,-101.58 -0.07,-64.3 0,-128.61 -0.04,-192.91 -28.3,-28.3 -56.63,-56.56 -84.86,-84.91 -2.75,-2.57 -5.59,-5.94 -9.79,-5.3 -89.59,0.02 -179.19,0.02 -268.79,0 -0.02,-39.08 -0.02,-78.14 0,-117.23 75.42,-0.01 150.83,-0.01 226.26,0 0.03,21.21 -0.02,42.41 0.03,63.59 46.3,-0.01 92.6,0.02 138.9,-0.01 -0.09,-33.89 0.12,-67.8 -0.1,-101.69 -30.76,-30.44 -61.22,-61.2 -91.89,-91.73 -103.73,0.07 -207.47,-0.07 -311.19,0.07zm423.93 383.31l0 0c-0.02,38.08 0,76.16 0,114.24 9.66,0 19.33,-0.02 29.01,0.01 -0.04,28.13 -0.04,56.25 0,84.38 42.39,-0.02 84.79,-0.02 127.18,0 0.01,-38.32 0.03,-76.66 0,-114.98 -27.92,-27.83 -55.8,-55.71 -83.65,-83.63 -24.18,-0.05 -48.36,-0.02 -72.54,-0.02zm-262.04 2.17l0 0c-27.59,27.74 -55.42,55.23 -82.9,83.08 0.19,130.84 0.02,261.71 0.09,392.57 -0.44,3.1 2.12,5.16 3.98,7.23 24.05,23.85 47.94,47.88 71.91,71.83 113.81,0.02 227.65,0 341.46,0 25.31,-25.41 50.78,-50.61 75.98,-76.12 -0.13,-41.97 -0.03,-83.94 -0.05,-125.93 -42.12,-0.03 -84.25,-0.05 -126.4,0.02 0.06,27.38 0.02,54.78 0.02,82.16 -77.16,0.01 -154.3,0.01 -231.45,0 -0.04,-106.13 0,-212.28 -0.02,-318.41 8.08,-0.04 16.18,-0.02 24.26,-0.09 -0.07,-38.79 0,-77.56 -0.03,-116.34 -25.62,0 -51.23,-0.02 -76.85,0zm-257.19 45.86l0 0c-0.05,40.12 0.07,80.24 -0.05,120.36 26.22,26.46 52.7,52.69 78.97,79.1 25.48,0.01 50.96,0.03 76.43,0 -0.03,-39.08 0,-78.16 0,-117.24 -8.94,-0.02 -17.89,-0.02 -26.84,-0.02 -0.02,-27.4 0.02,-54.8 0,-82.2 -42.84,0 -85.67,-0.01 -128.51,0z"/>
   <path class="fil1" d="M876.82 173.25c4.4,-5.24 11.49,-6.35 17.9,-7.23 20.02,-2.34 40.81,8.05 51.23,25.29 13.25,22.25 16.8,48.94 14.64,74.42 13.43,3.2 27.16,-2.44 36.33,-12.27 12.41,-10.92 17.58,-27.5 18.92,-43.5 1.03,-13.7 1.95,-27.43 3.61,-41.07 15.67,-1.56 31.35,0.57 47.05,0.66 -3.07,59.76 -15.53,118.54 -19.68,178.22 2.33,2.28 4.67,4.58 7.01,6.9 25.32,-11.13 42.45,-33.75 59.64,-54.41 -11.63,-21.07 -12.53,-47.1 -4.1,-69.44 5.67,-15.68 17.89,-28.54 32.59,-36.19 16.39,-8.38 35.3,-10.7 53.49,-9.16 17.17,1.72 32.82,9.68 48,17.35 1.8,-3.24 3.65,-6.46 5.55,-9.64 14.51,5.27 29.05,10.5 43.62,15.61 -5.59,38.4 -16.1,76.34 -15.35,115.42 11.33,7.15 26.17,4.4 36.83,-2.66 18.5,-17.66 24.28,-43.95 27.61,-68.37 1.34,-9.95 2.8,-19.89 4.34,-29.8 16.11,3.01 30.81,10.47 46.07,16.11 -1.4,19.66 -6.45,38.79 -9.14,58.26 2.98,2.51 5.98,5.05 8.93,7.6 23.3,-8.88 37.53,-31.43 59.84,-41.87 8.43,-3.69 20.42,-5.54 27,2.46 9.57,9.91 20.85,18.33 33.73,23.47 -15.44,12.53 -30.13,27.38 -36.92,46.47 -5.29,14.9 -5.52,31.9 1.02,46.45 1.84,3.88 5.78,5.97 9.13,8.38 38.49,-25.7 64.12,-65.3 88.3,-103.8 5.75,-10.62 20.54,-6.4 29.02,-1.64 -3.66,6.18 -9.29,12.05 -9.17,19.68 -0.17,4.1 1.89,7.82 4.61,10.75 19.55,21.29 39.16,43.25 51.94,69.45 9.26,18.87 13.86,40.49 10.19,61.39 -1.09,6.93 -7.94,10.99 -9.69,17.66 -0.64,3.28 0.66,6.5 1.38,9.65 10.3,2.48 20.55,5.25 30.76,8.1 -34.32,6.27 -70.77,3.28 -102.64,-11.4 -7.53,-3.6 -15.35,-7.25 -21.06,-13.55 -14.38,-15.46 -26.74,-32.66 -38.34,-50.27 -16.01,1.72 -28.45,13.11 -43.66,17.14 -10.22,2.68 -20.19,-2.99 -26.02,-11.13 -22.1,-26.9 -24.3,-63.47 -26.34,-96.73 -17.5,-0.14 -34.98,6.58 -47.73,18.55 -3.57,2.86 -2.74,7.89 -3.41,11.91 -0.71,15.7 -5.16,31.26 -2.76,47.04 -17.81,-0.95 -35.46,-6.73 -50,-17.12 -0.55,-13.86 1.97,-27.74 2.37,-41.62 -25.96,3.36 -47.44,23.33 -74.37,21.39 -5.36,-8.91 -8.77,-19.95 -19.02,-24.58 -18.38,6.44 -37.33,12.92 -57.08,12.4 -8,-0.35 -16.37,-0.95 -23.4,-5.11 -11.68,-6.7 -23.3,-13.52 -35.03,-20.13 -23.28,22.99 -46.84,45.71 -70.2,68.65 -4.28,4.84 -6.15,11.19 -8.97,16.9 -14.81,31.97 -32.19,64.91 -62.04,85.3 -5.65,4.62 -13.33,4.24 -20.17,3.91 -19.76,-1.28 -38.33,-10.73 -52.54,-24.27 21.91,-29.02 50.76,-52.11 81.51,-71.17 4.26,-3.04 10.75,-4.74 11.69,-10.66 9.9,-35.65 12.68,-72.86 12.65,-109.75 -18.61,3.48 -33.7,15.41 -50.42,23.35 -6.12,3.15 -13.58,3.86 -18.6,8.99 -17.38,16.35 -38.32,29.38 -61.46,35.7 -20.77,5.64 -43.67,5.05 -63.44,-3.86 -10.95,-6.11 -18.71,-16.86 -23.6,-28.21 -8.8,-20.91 -8.52,-44.22 -6.27,-66.41 -3.46,0.03 -6.9,0.1 -10.35,0.24 18.24,-11.8 26.9,-33.26 44.33,-45.95 7.49,-5.56 16.63,-8 25.21,-11.27 12.17,-4.32 25.83,-7.01 34.93,-16.98zm-138.6 820.16c42.84,-0.01 85.67,0 128.51,0 0.02,27.4 -0.02,54.8 0,82.2 8.95,0 17.9,0 26.84,0.02 0,39.08 -0.03,78.16 0,117.24 -25.47,0.03 -50.95,0.01 -76.43,0 -26.27,-26.41 -52.75,-52.64 -78.97,-79.1 0.12,-40.12 0,-80.24 0.05,-120.36zm257.19 -45.86c25.62,-0.02 51.23,0 76.85,0 0.03,38.78 -0.04,77.55 0.03,116.34 -8.08,0.07 -16.18,0.05 -24.26,0.09 0.02,106.13 -0.02,212.28 0.02,318.41 77.15,0.01 154.29,0.01 231.45,0 0,-27.38 0.04,-54.78 -0.02,-82.16 42.15,-0.07 84.28,-0.05 126.4,-0.02 0.02,41.99 -0.08,83.96 0.05,125.93 -25.2,25.51 -50.67,50.71 -75.98,76.12 -113.81,0 -227.65,0.02 -341.46,0 -23.97,-23.95 -47.86,-47.98 -71.91,-71.83 -1.86,-2.07 -4.42,-4.13 -3.98,-7.23 -0.07,-130.86 0.1,-261.73 -0.09,-392.57 27.48,-27.85 55.31,-55.34 82.9,-83.08zm262.04 -2.17c24.18,0 48.36,-0.03 72.54,0.02 27.85,27.92 55.73,55.8 83.65,83.63 0.03,38.32 0.01,76.66 0,114.98 -42.39,-0.02 -84.79,-0.02 -127.18,0 -0.04,-28.13 -0.04,-56.25 0,-84.38 -9.68,-0.03 -19.35,-0.01 -29.01,-0.01 0,-38.08 -0.02,-76.16 0,-114.24zm-423.93 -383.31c103.72,-0.14 207.46,0 311.19,-0.07 30.67,30.53 61.13,61.29 91.89,91.73 0.22,33.89 0.01,67.8 0.1,101.69 -46.3,0.03 -92.6,0 -138.9,0.01 -0.05,-21.18 0,-42.38 -0.03,-63.59 -75.43,-0.01 -150.84,-0.01 -226.26,0 -0.02,39.09 -0.02,78.15 0,117.23 89.6,0.02 179.2,0.02 268.79,0 4.2,-0.64 7.04,2.73 9.79,5.3 28.23,28.35 56.56,56.61 84.86,84.91 0.04,64.3 -0.03,128.61 0.04,192.91 -33.81,33.9 -67.68,67.72 -101.55,101.58 -22.41,-0.04 -44.84,0.03 -67.26,-0.04 0.04,-37.07 0,-74.13 0.02,-111.18 8.64,-0.02 17.29,-0.02 25.94,-0.02 0.02,-51.04 0.02,-102.1 0,-153.14 -87.3,0 -174.59,-0.03 -261.91,0.02 -30.69,-30.55 -61.17,-61.3 -91.92,-91.8 -0.25,-59.99 0.05,-119.99 -0.16,-179.98 31.64,-32 63.66,-63.63 95.37,-95.56zm-133.26 -340.34c7.19,-8.69 16,-18.1 27.97,-18.86 9.54,-0.94 17.33,5.67 26.38,7.27 -3.11,15.64 -11.16,29.97 -12.3,46.09 5.2,-0.37 10.4,-0.89 15.59,-1.49 -6.06,3.86 -12.43,7.22 -19.26,9.43 -2.48,-2.32 -5.37,-4.53 -6.39,-7.93 -2.39,-6.92 -5.78,-13.41 -9.54,-19.69 -17.24,6.14 -32.26,17.19 -45.38,29.73 -16.02,15.68 -29.11,34.24 -39.29,54.18 -1.76,3.18 -2.06,6.85 -2,10.43 0.48,21.33 -1.72,42.94 3.04,63.97 -14.78,6.56 -30.22,12.29 -46.56,13 -4.44,-41.69 3.21,-83.34 10.22,-124.3 2.28,-13.87 4.36,-27.75 6.78,-41.58 14.11,-7.18 29.42,-12.18 45.33,-12.93 -1.77,9.68 -5.02,19.23 -4.48,29.18 0.2,5.49 2.12,10.67 3.91,15.79 20.96,-11.74 31.2,-34.48 45.98,-52.29zm-68.36 -95.93c12.96,-2.76 22.98,7.94 33.68,13.24 -39.15,11.49 -76.57,28.4 -112.22,48.13 -2.93,1.9 -7.05,3.27 -7.77,7.15 -11.98,45.88 -25.24,91.61 -32.3,138.6 -5.64,37.07 -6.89,74.99 -1.54,112.17 0.45,11.89 14.61,20.14 25.48,16.54 9.72,-3.13 16.44,-11.24 24.49,-17.04 -8.93,18.48 -23.44,33.33 -35.09,50.03 -3.79,4.76 -6.66,11.18 -13.01,12.93 -15.99,5.75 -33.73,11.53 -50.51,5.32 -6,-26.78 -5.85,-54.49 -2.63,-81.61 3.03,-25.41 7.34,-50.63 10.32,-76.03 1.12,-8.45 1.94,-16.96 4.08,-25.22 7.95,-32.24 15.72,-64.54 23.68,-96.78 -2.15,-2.74 -4.27,-5.46 -6.42,-8.17 -30.76,18.83 -59.73,40.91 -84.69,67.05 -11.68,12.3 -22.19,25.77 -30.98,40.31 5.8,5.24 13.42,6.99 21.08,5.81 -11.77,8.31 -23.78,16.25 -35.51,24.6 -10.47,7.07 -22.31,14.14 -35.47,13.11 -5.97,-0.45 -13.03,-2.14 -15.92,-8.03 -3.49,-7.18 -2.08,-15.64 -0.45,-23.12 2.42,-4.55 6.39,-8.03 9.66,-11.94 55.76,-63.3 120.81,-119.25 195.02,-159.82 36.99,-20.2 76.28,-36.4 117.02,-47.23zm401.59 -34.57c10.96,-2.9 23.21,-2.23 33.28,3.2 4.68,2.74 9.54,7.36 9.02,13.26 -0.76,6.49 -6.47,10.92 -11.89,13.71 -12.83,6.18 -28.73,6.65 -41.42,-0.09 -5.4,-2.83 -10.75,-8.6 -8.77,-15.19 2.87,-8.41 11.82,-12.58 19.78,-14.89zm-194.16 131.07l0 0c-10.21,23.91 -11.08,50.96 -5.9,76.18 1.33,6.02 2.53,12.54 6.96,17.16 8.44,9.44 23.17,14.34 34.96,8.43 7.75,-3.91 15.97,-7.99 21.37,-15.05 3.02,-3.67 3.38,-8.57 4.24,-13.04 -10.12,-5.35 -19.17,-13.32 -23.55,-24.14 -9.71,-22.38 -6.01,-47.46 -2.81,-70.82 -15.09,-2.95 -29.64,7.77 -35.27,21.28zm48.08 -20.3l0 0c0.68,10.7 1.66,21.38 1.87,32.09 0.21,8.27 1.63,17.26 7.51,23.54 4.83,5.3 12.19,6.66 18.82,8.41 0.27,-16.01 2.84,-33.4 -5.25,-48.03 -4.64,-8.74 -14.09,-12.89 -22.95,-16.01zm299.41 9.21l0 0c-17.19,10.64 -26.98,30.12 -29.79,49.69 -1.82,13.79 -3.13,29.16 4.99,41.35 4.34,6.23 9.57,14.04 18.1,13.93 16.27,1.2 31.1,-6.94 44.81,-14.62 -0.1,-26.62 13.52,-51.2 12.31,-77.89 -0.4,-3.08 0.31,-7.15 -2.67,-9.17 -13.08,-10.73 -33.49,-13.12 -47.75,-3.29zm388.28 124.37l0 0c-16.27,13.64 -22.4,34.6 -28.84,53.97 7.22,8.69 14.51,17.32 21.29,26.36 7.05,9.26 16.19,17.83 27.83,20.53 4.66,1.57 9.92,-0.58 12.74,-4.44 9.87,-15.38 11.11,-35.48 4.38,-52.35 -7.03,-18.43 -21.34,-33.11 -37.4,-44.07zm-625.19 102.79l0 0c-2.66,3.74 -1.66,9.18 0.4,13 3.6,4.22 9.85,4.9 15.07,5 6.11,-3.3 9.78,-9.59 13.54,-15.19 7.72,-12.03 11.27,-26.05 13.81,-39.97 -17.26,8.47 -30.84,22.43 -42.82,37.16z"/>
  </g>
 </g>
</svg>
