<?xml version="1.0" encoding="UTF-8"?>
<!DOCTYPE svg PUBLIC "-//W3C//DTD SVG 1.1//EN" "http://www.w3.org/Graphics/SVG/1.1/DTD/svg11.dtd">
<!-- Creator: CorelDRAW -->
<svg xmlns="http://www.w3.org/2000/svg" xml:space="preserve" width="2000px" height="1600px" version="1.1" style="shape-rendering:geometricPrecision; text-rendering:geometricPrecision; image-rendering:optimizeQuality; fill-rule:evenodd; clip-rule:evenodd"
viewBox="0 0 2000 1600"
 xmlns:xlink="http://www.w3.org/1999/xlink">
 <defs>
  <style type="text/css">
   <![CDATA[
    .fil1 {fill:#64180F;fill-rule:nonzero}
    .fil3 {fill:#B8B4B7;fill-rule:nonzero}
    .fil2 {fill:#F5D29A;fill-rule:nonzero}
    .fil0 {fill:#FEFEFE;fill-rule:nonzero}
   ]]>
  </style>
 </defs>
 <g id="Capa_x0020_1">
  <metadata id="CorelCorpID_0Corel-Layer"/>
  <g id="St_x0020_Bonaventure_x0020_Bonnies.cdr">
   <path class="fil0" d="M664.56 769.99c22.75,-13.3 48.28,-21.42 74.33,-24.98 29.7,29.63 66.13,53.69 107.09,64.21 0.15,20.3 0.62,40.63 1.4,60.93 -17.8,24.03 -36.92,47.14 -54.61,71.24 -3.45,34.7 -0.62,70.03 7.57,103.92 9.93,40.6 29.62,79.64 60.41,108.4 19.22,18.17 42.37,31.89 67.02,41.37 -1.76,-10.26 -4.87,-20.21 -6.6,-30.47 22.58,5.94 45.47,11.3 68.81,13.04 31.3,1.99 62.17,-5.13 92.21,-13.06 -1.68,10.23 -4.65,20.23 -6.74,30.41 40.89,-14.93 76.72,-43.62 99.31,-80.9 29.32,-47.8 39.25,-105.34 36.87,-160.74 -0.35,-5.01 0.41,-10.64 -2.94,-14.82 -17.48,-22.87 -35.43,-45.35 -52.77,-68.32 1.17,-20.3 1.17,-40.68 1.55,-61 40.91,-10.57 77.29,-34.63 107.02,-64.21 45.41,5.7 88.01,27.9 120.02,60.38 25.34,24.27 45.19,53.72 61.38,84.71 -40.15,83.61 -90.75,162.16 -150.05,233.48 -84.54,101.49 -186.36,188.21 -298.42,257.93 -80.03,-50.41 -155.4,-108.64 -222.37,-175.56 -90.5,-89 -165.49,-193.51 -221.86,-307.21 25,-51.46 61.07,-99.78 111.37,-128.75zm514.99 -92.09c4.14,-2.54 8.24,-5.13 12.37,-7.7 8.39,9.74 12.61,23.54 8.48,36.03 -5.41,21.39 -29.02,35.76 -50.55,30.99 -12.26,-2.33 -23.51,-11.21 -27.27,-23.3 4.02,-2.44 8.03,-4.94 12.07,-7.38 11.44,9.85 30.25,7.9 39.46,-4.02 5.75,-6.76 7.63,-16.1 5.44,-24.62zm-372.44 -7.65c4.2,2.52 8.38,5.08 12.56,7.63 -4.84,15.41 7.25,32.69 22.97,34.71 7.83,1.52 15.69,-1.33 21.84,-6.1 4.3,2.59 8.55,5.27 12.75,8.03 -5.1,10.47 -14.03,19.54 -25.69,22.15 -20.44,5.8 -43.57,-6.31 -51.22,-25.93 -5.65,-13.51 -2.59,-29.4 6.79,-40.49zm586.88 -299.04c54.87,5.65 109.59,12.99 164.13,21.21 1.14,28.64 1.19,57.32 1.26,86.01 1.92,27.54 0.52,55.21 0.97,82.8 -1.94,68.84 -0.92,138.23 -12.11,206.43 -9.21,-19.02 -19.16,-38.73 -35.33,-52.79 -9.22,33.22 -21.61,65.4 -32.96,97.89 1.16,-32.35 2.63,-64.9 -1.36,-97.15 -3.65,-36.93 -11.58,-73.38 -23.1,-108.64 -16.58,5.77 -35.03,11.21 -52.2,4.58 -19.35,-6.6 -30.51,-25.67 -36.42,-44.12 -5.25,-17.22 -7.74,-35.34 -7.48,-53.31 9.61,-10.4 14.65,-23.89 18.9,-37.14 10.02,-34.39 13.01,-70.24 15.7,-105.77zm-953.1 21.25c54.74,-8.02 109.54,-16.07 164.68,-20.94 0.95,26.38 4.3,52.65 8.81,78.62 5.04,22.28 9.81,46.1 25.25,63.81 0.33,26.1 -3.73,53.43 -17.65,75.99 -8.81,14.87 -25.41,24.67 -42.74,24.65 -12.35,0.45 -23.91,-4.25 -35.6,-7.46 -21.54,66.04 -30.2,136.47 -23.39,205.67 -13.25,-32.06 -24.36,-64.97 -34.03,-98.28 -15.88,14.81 -26.33,34.24 -35.62,53.62 -9.14,-62.2 -10.61,-125.17 -10.87,-187.93 -2.31,-37.14 0.42,-74.38 -0.03,-111.59 0.5,-25.39 0.57,-50.77 1.19,-76.16zm366.6 -36.07c38.52,-3.87 77.37,-2.75 115.98,-4.7 48.3,-0.52 96.6,-0.54 144.9,-0.02 41.01,1.76 82.16,1.3 123.1,4.77 -65.42,18.02 -129.23,41.63 -191.47,68.53 -40.67,-18.07 -82.4,-33.67 -124.48,-48.18 -22.53,-7.22 -44.95,-15.05 -68.03,-20.4zm751.82 -159.29c16.81,-4.96 33.79,-9.28 50.7,-13.89 4.44,-1.59 9,0.33 13.46,1 19.17,3.68 38.38,7.22 57.52,11.18 7.43,1.76 15.72,1.78 22.15,6.44 16.32,10.71 32.53,21.51 48.9,32.13 0.64,9.92 0.31,19.9 0.35,29.82 -26.19,-6.17 -52.6,-11.42 -78.86,-17.26 0.59,-7.08 0.74,-14.18 0.62,-21.28 -10.86,-2.56 -21.87,-4.3 -32.8,-6.51 -0.26,10.78 -0.66,21.57 -0.5,32.37 19.57,4.87 39.42,8.81 58.8,14.37 18.45,11.23 36.26,23.58 54.5,35.19 0.19,24.41 0.09,48.82 0.05,73.26 -47.35,-8.95 -94.51,-18.97 -141.7,-28.76 -18.57,-9.69 -35.71,-22.04 -53.78,-32.63 0.02,-9.61 -0.12,-19.23 0.16,-28.83 27.19,3.85 54.17,9.27 81.26,13.8 0.14,7.2 0.14,14.44 0.1,21.66 10.85,2.18 21.7,4.37 32.58,6.43 -0.19,-11.16 0.47,-22.32 0.4,-33.48 -19.11,-4.2 -38.21,-8.6 -57.28,-12.96 -19.14,-10.71 -37.82,-22.3 -56.8,-33.32 0.45,-16.24 0.22,-32.49 0.17,-48.73zm-174.42 -47.49c50.58,6.24 101.14,12.77 151.62,19.68 0,10.41 0.52,20.88 -1.07,31.21 -22.41,-3.76 -45,-6.25 -67.39,-9.98 -0.5,9.98 -1.61,19.93 -1.26,29.9 19.33,2.94 38.69,5.77 58.06,8.31 0.1,10.35 0.05,20.68 0.07,31.01 -19.47,-2.68 -38.94,-5.05 -58.37,-8.02 -0.09,13.13 0.05,26.29 -0.09,39.44 23.44,3.33 46.83,6.94 70.29,10.14 0.02,10.45 0.02,20.92 0.02,31.37 -50.51,-7.5 -101.16,-13.8 -151.81,-20.07 -0.14,-54.33 0.03,-108.66 -0.07,-162.99zm-124.91 -10.88c27.48,1.26 54.74,4.96 82.19,6.34 0.05,54.38 -0.05,108.76 0.05,163.16 -27.41,-2.39 -54.86,-4.41 -82.26,-7.07 0.07,-54.14 0.02,-108.29 0.02,-162.43zm-241.22 -10.28c22.99,1.12 46,1.47 69.01,1.16 17.81,26.46 34.93,53.36 52.86,79.74 -0.16,-25.93 0.5,-51.83 0.45,-77.77 25.51,1.41 51.01,3.02 76.51,3.92 -0.35,54.41 0.03,108.81 -0.16,163.21 -22.96,-1.75 -45.98,-2.32 -68.96,-3.61 -17.79,-26.78 -35.55,-53.59 -53.26,-80.43 -0.34,26.2 -0.08,52.39 -0.12,78.58 -25.55,-1.14 -51.18,-1.11 -76.75,-1.42 0.26,-54.46 -0.57,-108.93 0.42,-163.38zm-115.31 1.3c25.39,0.15 50.7,-1.32 76.09,-1.23 0.42,54.26 -0.15,108.55 0.3,162.81 -23.03,0.9 -46.09,0.64 -69.12,0.88 -17.41,-25.63 -35.01,-51.11 -52.36,-76.75 -0.17,26.07 -0.91,52.14 -0.55,78.22 -25.69,1.26 -51.39,2.92 -77.13,3.32 0.05,-54.16 0.05,-108.33 0,-162.49 23.15,-1.81 46.4,-1.91 69.55,-3.64 17.89,25.08 34.87,50.8 52.56,75.99 0.49,-25.69 0.68,-51.41 0.66,-77.11zm-225 11.57c3.35,-0.12 6.89,-1.16 10.14,0.1 17.79,6.07 35.48,12.32 53.22,18.49 0.16,46.48 -0.03,92.92 0.09,139.4 -47.89,4.53 -95.84,8.45 -143.78,12.37 -18.81,-4.16 -36.83,-11.9 -55.45,-17.08 0.9,-20.23 -0.64,-40.53 1.16,-60.72 0.29,-9.59 0.17,-19.21 -0.16,-28.78 0.45,-8.85 0.71,-17.74 0.47,-26.59 16.58,-9.26 33.27,-18.26 49.85,-27.48 6.17,-3.7 13.65,-3.06 20.51,-3.89 21.3,-2.02 42.65,-3.66 63.95,-5.82zm-52.07 35.81l0 0c-1.26,33.58 -0.27,67.23 -1.6,100.8 11.36,-0.99 22.71,-2.35 34.08,-3.25 -0.02,-33.65 1.05,-67.3 0.76,-100.95 -11.04,1.43 -22.18,2.02 -33.24,3.4zm-319.78 15.17c47.21,-8.69 94.47,-17.14 141.96,-24.15 16.55,2.59 32.22,9.38 48.59,13.14 -0.41,14.46 -0.55,28.9 -0.41,43.36 -12.75,7.26 -25.6,14.36 -38.42,21.46 15.1,3.19 30.3,6.08 45.24,10.12 -0.45,22.27 -1.69,44.52 -0.86,66.82 -67.44,10.62 -134.9,21.35 -201.89,34.65 -26.91,4.68 -53.5,11.14 -80.41,15.72 28.74,-14.25 57.3,-28.78 86.18,-42.7 0.12,-46.14 0.07,-92.28 0.02,-138.42zm82.1 16.63l0 0c0,11.3 0.11,22.58 -0.15,33.88 10.95,-2.13 21.97,-3.7 32.99,-5.46 0.66,-11.28 0.31,-22.61 0.42,-33.88 -11.13,1.42 -22.25,3.25 -33.26,5.46zm-0.08 64.71l0 0c-0.33,12.04 -0.83,24.05 -0.49,36.09 10.99,-1.95 22.08,-3.37 33.03,-5.58 -0.41,-11.97 0,-23.91 0.38,-35.86 -10.95,1.93 -21.85,4.11 -32.92,5.35zm274.28 504.37l0 0c-44.67,27.55 -77.65,70.63 -101.07,116.96 -2.42,3.2 -0.02,6.76 1.36,9.87 57.77,114.84 135.42,219.61 228.11,308.66 62.78,60.75 132.43,114.15 206.12,160.93 44.07,-27.35 86.22,-57.8 126.64,-90.3 131.2,-105.75 240.24,-239.54 313.81,-391.37 1.85,-3.28 -1.38,-6.56 -2.5,-9.5 -18.45,-33.15 -41.6,-64.26 -71.28,-88.22 -27.88,-22.89 -61.93,-39.06 -97.93,-43.27 -28.86,28.03 -63.6,50.99 -102.59,61.86 -0.57,18.1 -1.4,36.22 -1.09,54.31 16.6,24.37 36.4,46.57 53.6,70.58 3.68,22.84 2.04,46.18 -0.12,69.17 -5.61,47.78 -21.38,95.75 -52.6,133.08 -24.75,30.44 -59.27,51.88 -96.39,63.95 2.49,-10.64 5.11,-21.26 7.43,-31.92 -26,6.82 -52.71,12.09 -79.71,11 -22.25,-0.98 -44.27,-5.16 -65.71,-11.09 2.3,10.73 5.01,21.39 7.53,32.08 -38.59,-12.61 -74.45,-35.31 -99.41,-67.68 -36.85,-46.38 -50.79,-106.81 -51.98,-165.04 0.31,-11.3 -0.38,-22.96 2.52,-33.96 17.52,-23.6 36.12,-46.42 53.83,-69.91 -0.52,-18.16 -1.07,-36.33 -1.61,-54.47 -38.92,-11.04 -73.78,-33.79 -102.56,-61.91 -26.39,2.78 -51.77,12.54 -74.4,26.19z"/>
   <path class="fil1" d="M576.93 105.46c198.48,-22.32 398.59,-30.68 598.18,-22.22 211.13,8.85 421.86,36.66 626.84,88.62 4.51,1.56 3.9,7.98 5.42,11.8 11.04,57.94 10.47,117.31 7.52,175.96 -6.72,109 -26.31,216.83 -53.16,322.58 -9.96,38.56 -20.36,77.05 -32.59,114.98 -18.4,-30.71 -27.02,-66.23 -45.33,-96.96 -60.46,180.47 -162.07,345.61 -287.69,487.97 -62.97,71.5 -132.05,137.56 -205.81,197.86 -60.48,49.06 -123.62,95.22 -191.28,133.95 -36.45,-18.9 -70.12,-42.67 -103.77,-66.09 -72.12,-51.81 -140.44,-109.09 -203.37,-171.8 -146.11,-143.6 -266.29,-315.38 -341.43,-506.49 -9.83,-24.3 -17.9,-49.21 -26.9,-73.78 -16.74,30.75 -27.48,64.33 -43.91,95.27 -43.76,-120.94 -67.3,-248.25 -81.95,-375.72 -9.09,-82.66 -14.65,-165.78 -14.41,-248.96 129.53,-31.09 261.42,-51.41 393.64,-66.97zm-188.31 168.18c11.07,-1.24 21.97,-3.42 32.92,-5.35 -0.38,11.95 -0.79,23.89 -0.38,35.86 -10.95,2.21 -22.04,3.63 -33.03,5.58 -0.34,-12.04 0.16,-24.05 0.49,-36.09zm0.08 -64.71c11.01,-2.21 22.13,-4.04 33.26,-5.46 -0.11,11.27 0.24,22.6 -0.42,33.88 -11.02,1.76 -22.04,3.33 -32.99,5.46 0.26,-11.3 0.15,-22.58 0.15,-33.88zm237.68 -31.8c11.06,-1.38 22.2,-1.97 33.24,-3.4 0.29,33.65 -0.78,67.3 -0.76,100.95 -11.37,0.9 -22.72,2.26 -34.08,3.25 1.33,-33.57 0.34,-67.22 1.6,-100.8zm277.07 -47.38l0 0c0.02,25.7 -0.17,51.42 -0.66,77.11 -17.69,-25.19 -34.67,-50.91 -52.56,-75.99 -23.15,1.73 -46.4,1.83 -69.55,3.64 0.05,54.16 0.05,108.33 0,162.49 25.74,-0.4 51.44,-2.06 77.13,-3.32 -0.36,-26.08 0.38,-52.15 0.55,-78.22 17.35,25.64 34.95,51.12 52.36,76.75 23.03,-0.24 46.09,0.02 69.12,-0.88 -0.45,-54.26 0.12,-108.55 -0.3,-162.81 -25.39,-0.09 -50.7,1.38 -76.09,1.23zm115.31 -1.3l0 0c-0.99,54.45 -0.16,108.92 -0.42,163.38 25.57,0.31 51.2,0.28 76.75,1.42 0.04,-26.19 -0.22,-52.38 0.12,-78.58 17.71,26.84 35.47,53.65 53.26,80.43 22.98,1.29 46,1.86 68.96,3.61 0.19,-54.4 -0.19,-108.8 0.16,-163.21 -25.5,-0.9 -51,-2.51 -76.51,-3.92 0.05,25.94 -0.61,51.84 -0.45,77.77 -17.93,-26.38 -35.05,-53.28 -52.86,-79.74 -23.01,0.31 -46.02,-0.04 -69.01,-1.16zm241.22 10.28l0 0c0,54.14 0.05,108.29 -0.02,162.43 27.4,2.66 54.85,4.68 82.26,7.07 -0.1,-54.4 0,-108.78 -0.05,-163.16 -27.45,-1.38 -54.71,-5.08 -82.19,-6.34zm-581.53 2.59l0 0c-21.3,2.16 -42.65,3.8 -63.95,5.82 -6.86,0.83 -14.34,0.19 -20.51,3.89 -16.58,9.22 -33.27,18.22 -49.85,27.48 0.24,8.85 -0.02,17.74 -0.47,26.59 0.33,9.57 0.45,19.19 0.16,28.78 -1.8,20.19 -0.26,40.49 -1.16,60.72 18.62,5.18 36.64,12.92 55.45,17.08 47.94,-3.92 95.89,-7.84 143.78,-12.37 -0.12,-46.48 0.07,-92.92 -0.09,-139.4 -17.74,-6.17 -35.43,-12.42 -53.22,-18.49 -3.25,-1.26 -6.79,-0.22 -10.14,-0.1zm706.44 8.29l0 0c0.1,54.33 -0.07,108.66 0.07,162.99 50.65,6.27 101.3,12.57 151.81,20.07 0,-10.45 0,-20.92 -0.02,-31.37 -23.46,-3.2 -46.85,-6.81 -70.29,-10.14 0.14,-13.15 0,-26.31 0.09,-39.44 19.43,2.97 38.9,5.34 58.37,8.02 -0.02,-10.33 0.03,-20.66 -0.07,-31.01 -19.37,-2.54 -38.73,-5.37 -58.06,-8.31 -0.35,-9.97 0.76,-19.92 1.26,-29.9 22.39,3.73 44.98,6.22 67.39,9.98 1.59,-10.33 1.07,-20.8 1.07,-31.21 -50.48,-6.91 -101.04,-13.44 -151.62,-19.68zm-1078.29 42.69l0 0c0.05,46.14 0.1,92.28 -0.02,138.42 -28.88,13.92 -57.44,28.45 -86.18,42.7 26.91,-4.58 53.5,-11.04 80.41,-15.72 66.99,-13.3 134.45,-24.03 201.89,-34.65 -0.83,-22.3 0.41,-44.55 0.86,-66.82 -14.94,-4.04 -30.14,-6.93 -45.24,-10.12 12.82,-7.1 25.67,-14.2 38.42,-21.46 -0.14,-14.46 0,-28.9 0.41,-43.36 -16.37,-3.76 -32.04,-10.55 -48.59,-13.14 -47.49,7.01 -94.75,15.46 -141.96,24.15zm1252.71 4.8l0 0c0.05,16.24 0.28,32.49 -0.17,48.73 18.98,11.02 37.66,22.61 56.8,33.32 19.07,4.36 38.17,8.76 57.28,12.96 0.07,11.16 -0.59,22.32 -0.4,33.48 -10.88,-2.06 -21.73,-4.25 -32.58,-6.43 0.04,-7.22 0.04,-14.46 -0.1,-21.66 -27.09,-4.53 -54.07,-9.95 -81.26,-13.8 -0.28,9.6 -0.14,19.22 -0.16,28.83 18.07,10.59 35.21,22.94 53.78,32.63 47.19,9.79 94.35,19.81 141.7,28.76 0.04,-24.44 0.14,-48.85 -0.05,-73.26 -18.24,-11.61 -36.05,-23.96 -54.5,-35.19 -19.38,-5.56 -39.23,-9.5 -58.8,-14.37 -0.16,-10.8 0.24,-21.59 0.5,-32.37 10.93,2.21 21.94,3.95 32.8,6.51 0.12,7.1 -0.03,14.2 -0.62,21.28 26.26,5.84 52.67,11.09 78.86,17.26 -0.04,-9.92 0.29,-19.9 -0.35,-29.82 -16.37,-10.62 -32.58,-21.42 -48.9,-32.13 -6.43,-4.66 -14.72,-4.68 -22.15,-6.44 -19.14,-3.96 -38.35,-7.5 -57.52,-11.18 -4.46,-0.67 -9.02,-2.59 -13.46,-1 -16.91,4.61 -33.89,8.93 -50.7,13.89zm-751.82 159.29l0 0c23.08,5.35 45.5,13.18 68.03,20.4 42.08,14.51 83.81,30.11 124.48,48.18 62.24,-26.9 126.05,-50.51 191.47,-68.53 -40.94,-3.47 -82.09,-3.01 -123.1,-4.77 -48.3,-0.52 -96.6,-0.5 -144.9,0.02 -38.61,1.95 -77.46,0.83 -115.98,4.7zm478.26 91.69l0 0c19.94,6.91 37.52,19.57 51.6,35.17 10.64,-20.73 18.21,-42.96 24.84,-65.26 5.2,-20.09 9.69,-40.8 8.19,-61.67 -33.24,25.27 -62.52,56.23 -84.63,91.76zm-657.17 -91.05l0 0c-0.78,44.17 15.08,86.63 33.04,126.31 14.24,-15.5 31.77,-28.37 51.86,-35.19 -19.93,-32.72 -46.69,-60.74 -75.9,-85.3 -2.68,-2.4 -5.7,-4.41 -9,-5.82zm-187.69 35.43l0 0c-0.62,25.39 -0.69,50.77 -1.19,76.16 0.45,37.21 -2.28,74.45 0.03,111.59 0.26,62.76 1.73,125.73 10.87,187.93 9.29,-19.38 19.74,-38.81 35.62,-53.62 9.67,33.31 20.78,66.22 34.03,98.28 -6.81,-69.2 1.85,-139.63 23.39,-205.67 11.69,3.21 23.25,7.91 35.6,7.46 17.33,0.02 33.93,-9.78 42.74,-24.65 13.92,-22.56 17.98,-49.89 17.65,-75.99 -15.44,-17.71 -20.21,-41.53 -25.25,-63.81 -4.51,-25.97 -7.86,-52.24 -8.81,-78.62 -55.14,4.87 -109.94,12.92 -164.68,20.94zm953.1 -21.25l0 0c-2.69,35.53 -5.68,71.38 -15.7,105.77 -4.25,13.25 -9.29,26.74 -18.9,37.14 -0.26,17.97 2.23,36.09 7.48,53.31 5.91,18.45 17.07,37.52 36.42,44.12 17.17,6.63 35.62,1.19 52.2,-4.58 11.52,35.26 19.45,71.71 23.1,108.64 3.99,32.25 2.52,64.8 1.36,97.15 11.35,-32.49 23.74,-64.67 32.96,-97.89 16.17,14.06 26.12,33.77 35.33,52.79 11.19,-68.2 10.17,-137.59 12.11,-206.43 -0.45,-27.59 0.95,-55.26 -0.97,-82.8 -0.07,-28.69 -0.12,-57.37 -1.26,-86.01 -54.54,-8.22 -109.26,-15.56 -164.13,-21.21zm-614.9 126.36l0 0c-36.24,21.99 -66.09,52.98 -92.02,86.17 -37.97,48.9 -67.41,103.75 -92.87,159.98 10.68,-12.91 26.12,-20.35 41.53,-26.09 26.17,-9.55 53.53,-15.49 80.98,-20.02 -2.26,-16.41 -4.78,-32.77 -7.82,-49.06 28.31,-2.64 56.64,-5.01 84.95,-7.48 0.9,-20.88 2.13,-41.75 3.53,-62.57 43.77,42.38 88.2,84.15 131.54,126.99 1.4,39.25 5.03,78.41 7.48,117.62 -11.76,-0.95 -23.51,-1.28 -35.29,-1.31 -9.78,57.47 -19.4,114.96 -29.09,172.45 -14.39,-15.17 -28.07,-31.01 -42.89,-45.81 -2.44,21.68 -2.3,43.84 2.33,65.21 5.96,30.75 21.9,60.13 47.09,79.24 19.71,-9.95 39.71,-19.35 59.08,-29.92 -16.19,-6.05 -32.27,-12.39 -48.16,-19.09 0.29,-39.96 16.94,-78.77 43.82,-108.05 1.45,15.82 6.91,31.14 15.03,44.72 7.81,4.84 17.17,6.77 25.57,10.57 -5.93,-83.85 -11.77,-167.73 -17.88,-251.55 1.85,-51.34 5.54,-102.61 6.98,-153.95 -47.99,-42.93 -106.36,-75.14 -169.55,-88.77 -4.72,-0.78 -10.14,-2.58 -14.34,0.72zm426.73 -0.74l0 0c-58.9,12.8 -113.8,41.58 -159.77,80.31 -3.4,3.11 -7.69,5.68 -9.9,9.81 2.09,50.82 4.91,101.59 6.93,152.4 -5.82,83.93 -11.64,167.82 -17.95,251.72 7.72,-2.95 15.51,-5.68 23.17,-8.72 2.83,-0.83 3.78,-3.94 5.16,-6.17 6.22,-12.61 11.8,-25.93 12.35,-40.2 27.11,29.02 44.02,68.2 43.71,108.16 -15.83,6.41 -31.72,12.71 -47.68,18.86 19.09,10.83 39.16,19.83 58.68,29.89 12.51,-9.54 23.1,-21.56 30.89,-35.24 19.17,-32.77 22.37,-72.09 19,-109.18 -15.32,14.39 -28.59,30.75 -43.27,45.8 -9.59,-57.51 -19.18,-115.02 -29.04,-172.49 -11.75,0.09 -23.48,0.33 -35.19,1.33 2.8,-38.28 4.87,-76.63 7.74,-114.91 -0.19,-5.77 5.7,-8.48 9.02,-12.25 40.87,-39.19 81.6,-78.49 122.39,-117.74 0.74,20.92 2.47,41.79 3.28,62.74 28.24,2.73 56.54,4.94 84.8,7.55 -2.99,16.29 -4.91,32.77 -7.88,49.08 29.02,4.8 57.99,11.07 85.51,21.71 13.68,5.29 27.05,12.49 36.64,23.91 -23.51,-53.86 -52.03,-105.77 -87.25,-152.9 -27.16,-35.79 -58.53,-69.39 -97.24,-92.85 -4.13,-3.18 -9.47,-1.33 -14.1,-0.62zm-398.71 173.42l0 0c-9.38,11.09 -12.44,26.98 -6.79,40.49 7.65,19.62 30.78,31.73 51.22,25.93 11.66,-2.61 20.59,-11.68 25.69,-22.15 -4.2,-2.76 -8.45,-5.44 -12.75,-8.03 -6.15,4.77 -14.01,7.62 -21.84,6.1 -15.72,-2.02 -27.81,-19.3 -22.97,-34.71 -4.18,-2.55 -8.36,-5.11 -12.56,-7.63zm372.44 7.65l0 0c2.19,8.52 0.31,17.86 -5.44,24.62 -9.21,11.92 -28.02,13.87 -39.46,4.02 -4.04,2.44 -8.05,4.94 -12.07,7.38 3.76,12.09 15.01,20.97 27.27,23.3 21.53,4.77 45.14,-9.6 50.55,-30.99 4.13,-12.49 -0.09,-26.29 -8.48,-36.03 -4.13,2.57 -8.23,5.16 -12.37,7.7zm-514.99 92.09l0 0c-50.3,28.97 -86.37,77.29 -111.37,128.75 56.37,113.7 131.36,218.21 221.86,307.21 66.97,66.92 142.34,125.15 222.37,175.56 112.06,-69.72 213.88,-156.44 298.42,-257.93 59.3,-71.32 109.9,-149.87 150.05,-233.48 -16.19,-30.99 -36.04,-60.44 -61.38,-84.71 -32.01,-32.48 -74.61,-54.68 -120.02,-60.38 -29.73,29.58 -66.11,53.64 -107.02,64.21 -0.38,20.32 -0.38,40.7 -1.55,61 17.34,22.97 35.29,45.45 52.77,68.32 3.35,4.18 2.59,9.81 2.94,14.82 2.38,55.4 -7.55,112.94 -36.87,160.74 -22.59,37.28 -58.42,65.97 -99.31,80.9 2.09,-10.18 5.06,-20.18 6.74,-30.41 -30.04,7.93 -60.91,15.05 -92.21,13.06 -23.34,-1.74 -46.23,-7.1 -68.81,-13.04 1.73,10.26 4.84,20.21 6.6,30.47 -24.65,-9.48 -47.8,-23.2 -67.02,-41.37 -30.79,-28.76 -50.48,-67.8 -60.41,-108.4 -8.19,-33.89 -11.02,-69.22 -7.57,-103.92 17.69,-24.1 36.81,-47.21 54.61,-71.24 -0.78,-20.3 -1.25,-40.63 -1.4,-60.93 -40.96,-10.52 -77.39,-34.58 -107.09,-64.21 -26.05,3.56 -51.58,11.68 -74.33,24.98z"/>
   <path class="fil2" d="M1285.75 448.08c22.11,-35.53 51.39,-66.49 84.63,-91.76 1.5,20.87 -2.99,41.58 -8.19,61.67 -6.63,22.3 -14.2,44.53 -24.84,65.26 -14.08,-15.6 -31.66,-28.26 -51.6,-35.17zm-79.93 48.75c4.63,-0.71 9.97,-2.56 14.1,0.62 38.71,23.46 70.08,57.06 97.24,92.85 35.22,47.13 63.74,99.04 87.25,152.9 -9.59,-11.42 -22.96,-18.62 -36.64,-23.91 -27.52,-10.64 -56.49,-16.91 -85.51,-21.71 2.97,-16.31 4.89,-32.79 7.88,-49.08 -28.26,-2.61 -56.56,-4.82 -84.8,-7.55 -0.81,-20.95 -2.54,-41.82 -3.28,-62.74 -40.79,39.25 -81.52,78.55 -122.39,117.74 -3.32,3.77 -9.21,6.48 -9.02,12.25 -2.87,38.28 -4.94,76.63 -7.74,114.91 11.71,-1 23.44,-1.24 35.19,-1.33 9.86,57.47 19.45,114.98 29.04,172.49 14.68,-15.05 27.95,-31.41 43.27,-45.8 3.37,37.09 0.17,76.41 -19,109.18 -7.79,13.68 -18.38,25.7 -30.89,35.24 -19.52,-10.06 -39.59,-19.06 -58.68,-29.89 15.96,-6.15 31.85,-12.45 47.68,-18.86 0.31,-39.96 -16.6,-79.14 -43.71,-108.16 -0.55,14.27 -6.13,27.59 -12.35,40.2 -1.38,2.23 -2.33,5.34 -5.16,6.17 -7.66,3.04 -15.45,5.77 -23.17,8.72 6.31,-83.9 12.13,-167.79 17.95,-251.72 -2.02,-50.81 -4.84,-101.58 -6.93,-152.4 2.21,-4.13 6.5,-6.7 9.9,-9.81 45.97,-38.73 100.87,-67.51 159.77,-80.31zm-426.73 0.74c4.2,-3.3 9.62,-1.5 14.34,-0.72 63.19,13.63 121.56,45.84 169.55,88.77 -1.44,51.34 -5.13,102.61 -6.98,153.95 6.11,83.82 11.95,167.7 17.88,251.55 -8.4,-3.8 -17.76,-5.73 -25.57,-10.57 -8.12,-13.58 -13.58,-28.9 -15.03,-44.72 -26.88,29.28 -43.53,68.09 -43.82,108.05 15.89,6.7 31.97,13.04 48.16,19.09 -19.37,10.57 -39.37,19.97 -59.08,29.92 -25.19,-19.11 -41.13,-48.49 -47.09,-79.24 -4.63,-21.37 -4.77,-43.53 -2.33,-65.21 14.82,14.8 28.5,30.64 42.89,45.81 9.69,-57.49 19.31,-114.98 29.09,-172.45 11.78,0.03 23.53,0.36 35.29,1.31 -2.45,-39.21 -6.08,-78.37 -7.48,-117.62 -43.34,-42.84 -87.77,-84.61 -131.54,-126.99 -1.4,20.82 -2.63,41.69 -3.53,62.57 -28.31,2.47 -56.64,4.84 -84.95,7.48 3.04,16.29 5.56,32.65 7.82,49.06 -27.45,4.53 -54.81,10.47 -80.98,20.02 -15.41,5.74 -30.85,13.18 -41.53,26.09 25.46,-56.23 54.9,-111.08 92.87,-159.98 25.93,-33.19 55.78,-64.18 92.02,-86.17zm-150.51 -140.54c3.3,1.41 6.32,3.42 9,5.82 29.21,24.56 55.97,52.58 75.9,85.3 -20.09,6.82 -37.62,19.69 -51.86,35.19 -17.96,-39.68 -33.82,-82.14 -33.04,-126.31z"/>
   <path class="fil3" d="M662.9 778.01c22.63,-13.65 48.01,-23.41 74.4,-26.19 28.78,28.12 63.64,50.87 102.56,61.91 0.54,18.14 1.09,36.31 1.61,54.47 -17.71,23.49 -36.31,46.31 -53.83,69.91 -2.9,11 -2.21,22.66 -2.52,33.96 1.19,58.23 15.13,118.66 51.98,165.04 24.96,32.37 60.82,55.07 99.41,67.68 -2.52,-10.69 -5.23,-21.35 -7.53,-32.08 21.44,5.93 43.46,10.11 65.71,11.09 27,1.09 53.71,-4.18 79.71,-11 -2.32,10.66 -4.94,21.28 -7.43,31.92 37.12,-12.07 71.64,-33.51 96.39,-63.95 31.22,-37.33 46.99,-85.3 52.6,-133.08 2.16,-22.99 3.8,-46.33 0.12,-69.17 -17.2,-24.01 -37,-46.21 -53.6,-70.58 -0.31,-18.09 0.52,-36.21 1.09,-54.31 38.99,-10.87 73.73,-33.83 102.59,-61.86 36,4.21 70.05,20.38 97.93,43.27 29.68,23.96 52.83,55.07 71.28,88.22 1.12,2.94 4.35,6.22 2.5,9.5 -73.57,151.83 -182.61,285.62 -313.81,391.37 -40.42,32.5 -82.57,62.95 -126.64,90.3 -73.69,-46.78 -143.34,-100.18 -206.12,-160.93 -92.69,-89.05 -170.34,-193.82 -228.11,-308.66 -1.38,-3.11 -3.78,-6.67 -1.36,-9.87 23.42,-46.33 56.4,-89.41 101.07,-116.96z"/>
  </g>
 </g>
</svg>
