<?xml version="1.0" encoding="UTF-8"?>
<!DOCTYPE svg PUBLIC "-//W3C//DTD SVG 1.1//EN" "http://www.w3.org/Graphics/SVG/1.1/DTD/svg11.dtd">
<!-- Creator: CorelDRAW -->
<svg xmlns="http://www.w3.org/2000/svg" xml:space="preserve" width="2000px" height="1600px" version="1.1" style="shape-rendering:geometricPrecision; text-rendering:geometricPrecision; image-rendering:optimizeQuality; fill-rule:evenodd; clip-rule:evenodd"
viewBox="0 0 2000 1600"
 xmlns:xlink="http://www.w3.org/1999/xlink">
 <defs>
  <style type="text/css">
   <![CDATA[
    .fil1 {fill:black;fill-rule:nonzero}
    .fil2 {fill:#CD1041;fill-rule:nonzero}
    .fil0 {fill:#FEFEFE;fill-rule:nonzero}
   ]]>
  </style>
 </defs>
 <g id="Capa_x0020_1">
  <metadata id="CorelCorpID_0Corel-Layer"/>
  <g id="St_x0020_Cloud_x0020_State_x0020_Huskies.cdr">
   <path class="fil0" d="M657 255.18c78.24,-19.74 158.97,-28.59 239.55,-30.1 115.94,-2.11 232.15,7.27 346.24,28.3 58.56,10.87 116.64,24.78 173.28,43.31 11.69,-8.89 23.67,-17.43 35.49,-26.15 77.77,22.3 155.46,44.87 233.22,67.25 19.1,86.39 38.21,172.79 57.62,259.11 -47.81,54.94 -96.41,109.22 -144.39,164.04 -58.77,-45.72 -124.91,-81.23 -193.04,-110.84 -0.1,32.92 0.06,65.85 -0.08,98.78 -30.94,-9.01 -61.54,-19.86 -93.38,-25.16 -2.48,41.81 -0.76,83.85 -1.27,125.75 0.76,41.65 0.33,83.34 1,125 79.5,-24.56 156.72,-57.51 227.41,-101.62 32.15,-20.21 63.17,-42.55 90.59,-68.92 59.92,87.5 120.19,174.77 180.27,262.15 -23.02,22.88 -48.7,42.86 -74.5,62.44 -139.97,103.45 -302.4,175.88 -472.28,213.2 -95.69,20.99 -193.82,30.53 -291.75,29.2 -79.68,-1.09 -159.56,-4.59 -238.5,-16.16 -54.41,-8.09 -108.39,-20.48 -159.81,-40.2 -37.27,-14.13 -72.88,-32.19 -107.76,-51.4 -34.23,-18.08 -66.94,-39.15 -96.73,-63.93 -79.72,-66.08 -143.47,-152.89 -176.91,-251.3 -18.19,-53.74 -26.7,-111.05 -22.14,-167.74 6.12,-71.32 28.08,-140.84 60.76,-204.37 41.14,-79.9 101.02,-149.98 173.22,-203.44 75.26,-56.28 163.03,-94.37 253.89,-117.2zm94.21 30.66l0 0c-96.26,15.87 -190.56,46.93 -275.16,95.94 -78.71,45.68 -149.09,107.89 -197.42,185.53 -41.8,66.57 -65.96,144.12 -68.52,222.73 -1.62,47.57 2.39,95.92 17.2,141.38 13.66,42.23 34.4,81.97 59.59,118.42 27.83,40.14 61.11,76.61 99.24,107.19 60.53,46.99 126.38,88.21 198.57,114.73 89.77,33.48 185.73,46.43 280.98,51.26 109.55,4.91 219.89,2.4 328.28,-15.48 169.84,-27.44 335.79,-88.28 477.21,-187.23 26.32,-18.94 52.47,-38.48 75.42,-61.48 -42.43,-63.13 -84.67,-126.34 -127.19,-189.44 -33.74,26.17 -70.3,48.5 -107.73,68.97 -168,90.82 -358.73,137.88 -549.48,139.91 -87.14,0.82 -174.92,-7.54 -259.01,-31.17 -56.92,-16.24 -112.73,-39.58 -160.01,-75.71 -34.24,-26.17 -63.71,-60.1 -79.11,-100.77 -19.47,-50.58 -15.7,-109.29 9.67,-157.12 25.43,-48.56 68.91,-85.15 116.17,-111.53 72.16,-39.95 153.56,-59.89 234.78,-71.09 87.44,-11.39 176.13,-13.91 263.96,-5.53 98.05,9.33 194.78,31.76 287.18,65.87 74.33,27.89 146.83,62.03 212.58,106.79 34.22,-36.94 68.74,-73.61 103.11,-110.43 -16.69,-71.96 -33.63,-143.88 -50.28,-215.86 -57.6,-16.42 -115.1,-33.17 -173.04,-48.41 -4.64,-0.94 -10.21,-3.42 -14.39,0.12 -10.38,7.6 -19.6,16.78 -28.1,26.42 -55.65,-22.69 -114.06,-37.9 -172.91,-49.72 -98.38,-19.35 -198.74,-27.62 -298.92,-28.18 -67.74,-0.02 -135.76,2.42 -202.67,13.89zm162.68 280.07l0 0c32.62,10.51 66.1,23.82 89.88,49.54 22.46,23.63 32.68,57.95 27.5,90.06 -41.18,0.49 -82.3,1.88 -123.48,2.13 -1.72,-12.41 -7.11,-24.98 -17.41,-32.62 -8.74,-6.49 -19.98,-7.7 -30.51,-8.32 -13.09,-0.49 -27.07,0.11 -38.58,7.09 -9.2,5.73 -14.01,17.61 -10.98,28.05 2.77,8.79 11.27,13.81 19.03,17.7 19.55,8.88 40.79,13.02 61.43,18.57 41.06,10.61 83.92,22.59 116.6,51.07 22.94,19.68 36.9,48.56 39.81,78.49 3.63,37.74 -1.66,78.35 -24.22,109.83 -19.36,27.5 -50.11,44.8 -82.02,53.59 29.65,0.69 59.29,-1.31 88.83,-3.71 54.62,-4.55 108.97,-12.1 162.7,-22.85 0.1,-102.13 -0.08,-204.27 0.08,-306.39 -30.8,-14.46 -65.22,-16.73 -98.41,-21.5 0.06,-35.66 0.22,-71.31 -0.09,-106.94 -59.83,-6.23 -120.12,-6.76 -180.16,-3.79zm-282.74 65.45l0 0c-41.49,21.5 -80.31,51.01 -105.29,91.13 -18.31,29.22 -28.53,64.23 -25.44,98.82 4.22,39.83 29.35,73.97 58.83,99.57 45.12,38.84 100.86,62.92 157.32,80.19 -32.38,-31.03 -50.28,-74.32 -58.16,-117.83 43.6,0 87.17,-0.11 130.77,0.06 7.56,16.32 17.59,32.03 31.95,43.21 9.25,7.02 21.31,8.35 32.56,8.95 17.34,0.14 35.75,-2.77 50.08,-13.21 9.34,-6.58 15.16,-19.13 11.7,-30.33 -4.86,-11.43 -17.14,-16.75 -27.75,-21.56 -28.94,-11.84 -59.53,-18.93 -88.94,-29.43 -36.96,-13.21 -75.5,-29.9 -99.89,-62.07 -19.9,-25.82 -22.38,-60.08 -20.41,-91.45 2.5,-34.75 18.06,-68.79 44.58,-91.74 -31.62,9.13 -62.69,20.5 -91.91,35.69z"/>
   <path class="fil1" d="M631.15 631.36c29.22,-15.19 60.29,-26.56 91.91,-35.69 -26.52,22.95 -42.08,56.99 -44.58,91.74 -1.97,31.37 0.51,65.63 20.41,91.45 24.39,32.17 62.93,48.86 99.89,62.07 29.41,10.5 60,17.59 88.94,29.43 10.61,4.81 22.89,10.13 27.75,21.56 3.46,11.2 -2.36,23.75 -11.7,30.33 -14.33,10.44 -32.74,13.35 -50.08,13.21 -11.25,-0.6 -23.31,-1.93 -32.56,-8.95 -14.36,-11.18 -24.39,-26.89 -31.95,-43.21 -43.6,-0.17 -87.17,-0.06 -130.77,-0.06 7.88,43.51 25.78,86.8 58.16,117.83 -56.46,-17.27 -112.2,-41.35 -157.32,-80.19 -29.48,-25.6 -54.61,-59.74 -58.83,-99.57 -3.09,-34.59 7.13,-69.6 25.44,-98.82 24.98,-40.12 63.8,-69.63 105.29,-91.13zm285.14 -476.13l80.76 0c28.71,1.23 57.44,2.19 86.09,4.32 47.77,2.62 94.71,12.72 141.48,22.22 57.4,12.06 114.43,25.78 171.4,39.72 10.49,-8.55 21.13,-16.87 31.62,-25.41 104.48,28.59 208.85,57.53 313.31,86.23 25.5,111.81 50.99,223.6 76.69,335.37 -43.41,47.04 -87.38,93.6 -130.77,140.66 71.18,108.02 142.03,216.27 213.13,324.33l0 1.97c-42.98,41.71 -90.67,78.32 -140.07,112.09 -216.45,146.62 -473.65,230.75 -734.33,245.65 -91.5,5.33 -183.65,1.95 -274.24,-12.22 -89.33,-14.07 -177.24,-39.11 -258.99,-78.06 -98.41,-46.57 -187,-114.37 -255.82,-198.88 -38.28,-46.53 -71.29,-97.76 -93.75,-153.81 -25.15,-60.88 -39.75,-126.08 -42.8,-191.9l0 -42.84c1.33,-21.11 3.09,-42.22 6.78,-63.05 15.42,-93.3 58.87,-180.57 118.85,-253.17 56.15,-67.66 123.4,-126.53 199.56,-170.68 87.87,-51.24 185.79,-83.53 285.56,-101.88 67.78,-12.63 136.67,-18.45 205.54,-20.66zm-259.29 99.95l0 0c-90.86,22.83 -178.63,60.92 -253.89,117.2 -72.2,53.46 -132.08,123.54 -173.22,203.44 -32.68,63.53 -54.64,133.05 -60.76,204.37 -4.56,56.69 3.95,114 22.14,167.74 33.44,98.41 97.19,185.22 176.91,251.3 29.79,24.78 62.5,45.85 96.73,63.93 34.88,19.21 70.49,37.27 107.76,51.4 51.42,19.72 105.4,32.11 159.81,40.2 78.94,11.57 158.82,15.07 238.5,16.16 97.93,1.33 196.06,-8.21 291.75,-29.2 169.88,-37.32 332.31,-109.75 472.28,-213.2 25.8,-19.58 51.48,-39.56 74.5,-62.44 -60.08,-87.38 -120.35,-174.65 -180.27,-262.15 -27.42,26.37 -58.44,48.71 -90.59,68.92 -70.69,44.11 -147.91,77.06 -227.41,101.62 -0.67,-41.66 -0.24,-83.35 -1,-125 0.51,-41.9 -1.21,-83.94 1.27,-125.75 31.84,5.3 62.44,16.15 93.38,25.16 0.14,-32.93 -0.02,-65.86 0.08,-98.78 68.13,29.61 134.27,65.12 193.04,110.84 47.98,-54.82 96.58,-109.1 144.39,-164.04 -19.41,-86.32 -38.52,-172.72 -57.62,-259.11 -77.76,-22.38 -155.45,-44.95 -233.22,-67.25 -11.82,8.72 -23.8,17.26 -35.49,26.15 -56.64,-18.53 -114.72,-32.44 -173.28,-43.31 -114.09,-21.03 -230.3,-30.41 -346.24,-28.3 -80.58,1.51 -161.31,10.36 -239.55,30.1zm796.73 489.01l0 0c-1.54,26.32 -1.46,52.71 -2.81,79.03 -27.13,-7.91 -54.22,-15.98 -81.36,-23.88 1.07,27.87 1.35,55.76 2.73,83.61 28.64,-11.43 57.66,-22.18 85.33,-35.86 24.98,-14.43 47.34,-32.94 69.5,-51.31 -21.32,-21.1 -44.66,-41.47 -73.39,-51.59zm-539.84 -178.28c60.04,-2.97 120.33,-2.44 180.16,3.79 0.31,35.63 0.15,71.28 0.09,106.94 33.19,4.77 67.61,7.04 98.41,21.5 -0.16,102.12 0.02,204.26 -0.08,306.39 -53.73,10.75 -108.08,18.3 -162.7,22.85 -29.54,2.4 -59.18,4.4 -88.83,3.71 31.91,-8.79 62.66,-26.09 82.02,-53.59 22.56,-31.48 27.85,-72.09 24.22,-109.83 -2.91,-29.93 -16.87,-58.81 -39.81,-78.49 -32.68,-28.48 -75.54,-40.46 -116.6,-51.07 -20.64,-5.55 -41.88,-9.69 -61.43,-18.57 -7.76,-3.89 -16.26,-8.91 -19.03,-17.7 -3.03,-10.44 1.78,-22.32 10.98,-28.05 11.51,-6.98 25.49,-7.58 38.58,-7.09 10.53,0.62 21.77,1.83 30.51,8.32 10.3,7.64 15.69,20.21 17.41,32.62 41.18,-0.25 82.3,-1.64 123.48,-2.13 5.18,-32.11 -5.04,-66.43 -27.5,-90.06 -23.78,-25.72 -57.26,-39.03 -89.88,-49.54zm187.84 171.05l0 0c-1.96,7.7 -0.82,16.69 -4.36,23.66 -13.33,0.3 -26.68,0.45 -40.03,0.79 21.23,22.04 39.66,47.86 48.59,77.43 3.52,11.41 4.2,23.41 4.63,35.26 0.55,26.34 -2.66,52.73 -9.3,78.21 10.98,-2.44 21.87,-5.14 32.87,-7.52 0.02,-65.07 -0.02,-130.15 0,-195.23 -10.79,-4.22 -21.67,-8.21 -32.4,-12.6zm-524.76 9.92l0 0c-12.12,15.62 -19.88,35.44 -17.88,55.45 1.46,23.2 13.27,45.64 31.84,59.67 0.05,-15.46 0,-30.9 0.03,-46.34 21.03,-0.04 42.04,-0.04 63.07,0 -8.87,-9.99 -16.3,-21.24 -22.1,-33.28 -10.46,-21.72 -12.47,-46.09 -17.49,-69.36 -14.35,8.93 -27.03,20.57 -37.47,33.86z"/>
   <path class="fil2" d="M751.21 285.84c66.91,-11.47 134.93,-13.91 202.67,-13.89 100.18,0.56 200.54,8.83 298.92,28.18 58.85,11.82 117.26,27.03 172.91,49.72 8.5,-9.64 17.72,-18.82 28.1,-26.42 4.18,-3.54 9.75,-1.06 14.39,-0.12 57.94,15.24 115.44,31.99 173.04,48.41 16.65,71.98 33.59,143.9 50.28,215.86 -34.37,36.82 -68.89,73.49 -103.11,110.43 -65.75,-44.76 -138.25,-78.9 -212.58,-106.79 -92.4,-34.11 -189.13,-56.54 -287.18,-65.87 -87.83,-8.38 -176.52,-5.86 -263.96,5.53 -81.22,11.2 -162.62,31.14 -234.78,71.09 -47.26,26.38 -90.74,62.97 -116.17,111.53 -25.37,47.83 -29.14,106.54 -9.67,157.12 15.4,40.67 44.87,74.6 79.11,100.77 47.28,36.13 103.09,59.47 160.01,75.71 84.09,23.63 171.87,31.99 259.01,31.17 190.75,-2.03 381.48,-49.09 549.48,-139.91 37.43,-20.47 73.99,-42.8 107.73,-68.97 42.52,63.1 84.76,126.31 127.19,189.44 -22.95,23 -49.1,42.54 -75.42,61.48 -141.42,98.95 -307.37,159.79 -477.21,187.23 -108.39,17.88 -218.73,20.39 -328.28,15.48 -95.25,-4.83 -191.21,-17.78 -280.98,-51.26 -72.19,-26.52 -138.04,-67.74 -198.57,-114.73 -38.13,-30.58 -71.41,-67.05 -99.24,-107.19 -25.19,-36.45 -45.93,-76.19 -59.59,-118.42 -14.81,-45.46 -18.82,-93.81 -17.2,-141.38 2.56,-78.61 26.72,-156.16 68.52,-222.73 48.33,-77.64 118.71,-139.85 197.42,-185.53 84.6,-49.01 178.9,-80.07 275.16,-95.94z"/>
  </g>
 </g>
</svg>
