<?xml version="1.0" encoding="UTF-8"?>
<!DOCTYPE svg PUBLIC "-//W3C//DTD SVG 1.1//EN" "http://www.w3.org/Graphics/SVG/1.1/DTD/svg11.dtd">
<!-- Creator: CorelDRAW -->
<svg xmlns="http://www.w3.org/2000/svg" xml:space="preserve" width="2000px" height="1600px" version="1.1" style="shape-rendering:geometricPrecision; text-rendering:geometricPrecision; image-rendering:optimizeQuality; fill-rule:evenodd; clip-rule:evenodd"
viewBox="0 0 2000 1600"
 xmlns:xlink="http://www.w3.org/1999/xlink">
 <defs>
  <style type="text/css">
   <![CDATA[
    .fil0 {fill:black}
    .fil1 {fill:#D20B43;fill-rule:nonzero}
   ]]>
  </style>
 </defs>
 <g id="Capa_x0020_1">
  <metadata id="CorelCorpID_0Corel-Layer"/>
  <g id="St_x0020_John_x0027_s_x0020_Red_x0020_Storm.cdr">
   <path class="fil0" d="M1150.88 695.85l-0.01 -1.93c-0.16,-51.13 0.21,-102.26 0.02,-153.39 -21.07,0.02 -42.13,0.19 -63.2,0.14l-37.31 -0.09 -8.5 -36.33c-3.16,-13.53 -1.85,-22.87 -2.23,-36.07l-0.03 -0.94 0.02 -0.94c0.12,-10.63 0.04,-21.26 -0.02,-31.89 -26.65,0.99 -53.25,0.06 -79.9,0.39l-0.7 0.01 -0.7 -0.01c-17.76,-0.31 -35.33,0.61 -53.11,-0.56l-42.03 -2.77 -1.97 -42.08c-1,-21.35 -8.55,-44.88 -25.35,-59.05 -24.37,-20.57 -69.63,-13.99 -87.5,12.27l-0.24 0.36 -0.25 0.35c-11.12,15.7 -12.39,37.92 -9.32,56.27 2.09,12.5 9.11,24.46 19.21,32.16l0.48 0.36 0.47 0.38c13.92,11.17 32.07,18.39 48.75,24.21 37.98,13.24 76.86,23 114.33,37.89 42.71,16.98 83.37,39.4 117.39,70.6l0.53 0.49 0.52 0.5c54.64,53.29 84.52,128.3 87.92,203.99 3.02,67.41 -11.18,135.91 -43.98,195.12 -23.87,43.09 -57.57,80.72 -98.46,108.17l10.7 0.02 3.59 43.19c2.18,26.17 -1.85,55.43 2.52,80.46l0.16 0.92 0.12 0.92c2.56,19.02 8.84,38.3 20.48,53.77 12.07,16.03 32.5,26.55 52.69,26.06l1.04 -0.03 1.04 0.02c17.64,0.35 40.1,-4.38 51.83,-18.86 16.53,-20.41 20.19,-51.95 20.97,-77.4 0.08,-147.69 0,-295.39 0.02,-443.08l0.01 -43.6zm250.82 16.32l0.11 27.09c0.52,139.58 0.3,279.16 0.23,418.74 -0.02,31.43 0.85,62.2 -3.72,93.44 -6.77,46.24 -22.21,91.38 -48.08,130.49 -40.89,61.84 -106.18,103.69 -176.76,123.83 -50.02,14.28 -103.26,18.81 -154.56,9.03 -82.52,-15.73 -158.94,-61.5 -210.57,-127.95 -22.75,-29.28 -40.21,-62.69 -50.51,-98.24 -13.57,-0.01 -27.14,0.04 -40.71,0.17l-41.72 0.38 -5.47 -41.35c-2.02,-15.29 -0.68,-29.04 -1.14,-44.13l-0.04 -1.12 0.02 -1.12c0.48,-27.93 -0.91,-55.72 0.75,-83.66l0.8 -13.38 -3.9 0.17c-25.87,1.12 -51.69,0.16 -77.56,0.48l-0.63 0.01 -0.62 -0.01c-14.45,-0.2 -28.66,0.49 -43.13,-0.5l-43.29 -2.98 -0.63 -43.38c-0.87,-59.45 -0.37,-118.9 -0.37,-178.34 0,-32.21 -0.52,-64.42 0.38,-96.62l1.25 -44.79 44.79 -1.04c38.99,-0.91 77.98,0.02 116.97,-0.44 7.73,-0.09 15.45,0.06 23.15,0.72l42.44 3.61 0.72 42.58c0.37,22.42 5.71,45.56 17.89,64.59 9.23,14.42 23.94,27.26 40.97,31.07 18.28,4.1 38.73,0.88 54.51,-9.37 17.33,-11.26 28.71,-30.92 32.55,-50.97 3.66,-19.07 3.02,-41.83 -7.72,-58.71 -10.51,-16.53 -30.49,-28 -47.84,-35.96 -45.97,-19.73 -95.24,-30.05 -141.27,-50.98 -45.39,-20.63 -87.64,-48.85 -120.53,-86.65 -45.61,-52.42 -69.8,-121.4 -70.99,-190.58 -1.98,-60.68 13.6,-121.92 45.38,-173.74 39.34,-64.16 102.82,-113.05 175.72,-132.51 42.82,-11.43 88.36,-13.77 131.67,-3.58 16.45,3.59 32.52,8.99 47.71,16.18l36.57 -2.94c23.96,-1.92 47.58,-0.39 71.51,-0.92l0.99 -0.02 1 0.02c15.76,0.32 31.08,-0.66 46.89,0.72l42.97 3.73 0.11 43.12c0.17,65.03 -0.03,130.06 0.05,195.09 69.41,-0.84 138.83,-0.35 208.24,-0.35 56.53,0 113.06,-0.5 169.59,0.37l45.57 0.7 0.86 45.56c0.66,35.09 0.34,70.18 0.17,105.27l-0.22 45.81 -45.79 1.11c-21.49,0.52 -42.98,0.54 -64.47,0.45 -0.16,51.28 0.27,102.57 -0.14,153.85l-0.15 17.95z"/>
   <path class="fil1" d="M720.74 135.61c35.42,-9.48 73.2,-11.67 109.06,-3.16 28.89,6.26 56.58,19.56 78.05,40.08 7.14,6.58 12.98,14.37 20.02,21.05 1.09,-15.59 0.1,-31.23 0.42,-46.86 22.84,-1.83 45.85,-0.28 68.78,-0.78 14.58,0.29 29.2,-0.72 43.76,0.55 0.21,80.22 -0.14,160.46 0.17,240.67 -27.24,1.19 -54.57,0.15 -81.86,0.49 -16.94,-0.3 -33.91,0.65 -50.83,-0.46 -1.62,-34.71 -14.7,-70.3 -42.03,-92.89 -45.58,-38.94 -123.33,-27.54 -156.9,21.77 -18.54,26.19 -22.63,60.24 -17.34,91.3 3.98,24.36 17.51,46.93 37.15,61.89 18.48,14.83 40.62,24.02 62.75,31.96 37.34,12.79 75.75,22.47 112.43,37.2 37.32,14.68 73.23,34.28 102.94,61.52 46,44.87 71.2,108.61 73.73,172.35 2.97,58.72 -9.59,118.57 -38.12,170.15 -23.18,41.76 -57.02,78.09 -98.93,101.42 -49.1,28.29 -108.52,38.18 -164.23,28.11 -45.83,-7.95 -87.45,-34.67 -115.09,-71.9 -0.13,19.11 0.63,38.27 -0.28,57.38 -25.35,1.09 -50.74,0.12 -76.11,0.44 -13.53,-0.19 -27.05,0.53 -40.56,-0.4 -0.86,-59.21 -0.11,-118.44 -0.36,-177.65 0.25,-31.76 -0.53,-63.56 0.36,-95.31 38.79,-0.91 77.61,-0.02 116.42,-0.42 6.19,-0.13 12.41,0.02 18.61,0.55 0.52,31.22 8.32,62.77 25.32,89.21 15.97,25.08 41.11,44.97 70.38,51.67 30.64,6.72 64.18,1.58 90.5,-15.85 28.32,-18.05 46.91,-48.94 53.19,-81.63 5.98,-31.25 3.33,-65.61 -14.25,-92.9 -15.82,-25.22 -41.97,-41.64 -68.5,-53.75 -45.92,-19.79 -95.41,-29.86 -140.88,-50.81 -39.3,-17.59 -76.01,-42.16 -104.48,-74.67 -38.28,-44.21 -58.49,-102.62 -59.42,-160.8 -1.75,-51.6 11.09,-103.97 38.44,-147.92 32.74,-54.05 86.5,-95.29 147.69,-111.6zm477.29 603.85c52.21,-0.04 104.43,0.02 156.62,-0.02 0.53,139.49 0.06,279.02 0.23,418.54 -0.25,28.87 1.16,57.94 -3.22,86.62 -5.59,39.39 -18.57,78.14 -40.75,111.32 -34.46,52.47 -90.65,87.68 -150.37,104.5 -42.92,12.47 -88.71,16.6 -132.79,8.05 -71.33,-13.45 -137.54,-53.27 -182.17,-110.57 -25.89,-33.48 -43.93,-73.39 -49.37,-115.51 -8.11,-1.66 -16.41,-0.84 -24.63,-0.93 -18.29,0 -36.6,-0.02 -54.89,0.15 -1.73,-13.06 -0.36,-26.25 -0.76,-39.38 0.47,-27.2 -0.95,-54.49 0.68,-81.65 78.8,-0.11 157.59,-0.11 236.4,0 2.34,28.15 -1.84,56.66 3.05,84.66 3.65,27.14 12.77,53.97 29.54,75.86 21.08,28.38 56.16,45.7 91.52,44.84 32.85,0.65 68.14,-9.95 89.4,-36.33 24.11,-29.62 30.41,-69.26 31.48,-106.37 0.09,-147.92 0,-295.86 0.03,-443.78zm-110.82 -350.84c69.66,-0.86 139.37,-0.11 209.07,-0.36 56.28,0.25 112.59,-0.5 168.87,0.36 0.65,34.7 0.34,69.45 0.17,104.16 -36.5,0.88 -73.06,0.29 -109.57,0.25 -1.65,11.57 -0.68,23.26 -0.87,34.91 -0.15,55.29 0.25,110.61 -0.19,165.9 -52.21,0.21 -104.45,0.31 -156.66,-0.06 -0.21,-66.67 0.48,-133.39 -0.34,-200.06 -36.62,-0.69 -73.27,-0.12 -109.89,-0.21 -2.04,-8.74 -0.76,-17.8 -1.01,-26.67 0.3,-26.07 -0.61,-52.18 0.42,-78.22z"/>
  </g>
 </g>
</svg>
