<?xml version="1.0" encoding="UTF-8"?>
<!DOCTYPE svg PUBLIC "-//W3C//DTD SVG 1.1//EN" "http://www.w3.org/Graphics/SVG/1.1/DTD/svg11.dtd">
<!-- Creator: CorelDRAW -->
<svg xmlns="http://www.w3.org/2000/svg" xml:space="preserve" width="2000px" height="1600px" version="1.1" style="shape-rendering:geometricPrecision; text-rendering:geometricPrecision; image-rendering:optimizeQuality; fill-rule:evenodd; clip-rule:evenodd"
viewBox="0 0 2000 1600"
 xmlns:xlink="http://www.w3.org/1999/xlink">
 <defs>
  <style type="text/css">
   <![CDATA[
    .fil1 {fill:#352C66;fill-rule:nonzero}
    .fil3 {fill:#482E91;fill-rule:nonzero}
    .fil2 {fill:#BDC0C2;fill-rule:nonzero}
    .fil0 {fill:#FEFEFE;fill-rule:nonzero}
   ]]>
  </style>
 </defs>
 <g id="Capa_x0020_1">
  <metadata id="CorelCorpID_0Corel-Layer"/>
  <g id="Stephen_x0020_F_x0020_Austin_x0020_Lumberjacks.cdr">
   <path class="fil0" d="M1232.92 1025.86c21.59,-44.21 42.85,-88.58 64.94,-132.51 17.25,44.34 35.48,88.29 52.89,132.57 -39.28,-0.01 -78.55,0.1 -117.83,-0.06zm-145.6 287.83c75.93,0 151.87,0 227.79,0 -0.68,6.31 2.16,11.86 5.63,16.87 1.89,0.39 3.81,0.77 5.75,1.17 0.5,5.05 -1.52,9.76 -2.97,14.49 -2.99,9.4 -5.93,18.82 -8.82,28.26 5.11,12.8 11.24,25.23 15.25,38.46 5.88,17.17 11.14,34.54 17.17,51.67 2.76,4.74 7.37,8.15 10.93,12.34 -1.12,7.05 -4.78,13.13 -9.19,18.59 -16.99,-5.81 -30.67,-19.51 -48.81,-22.08 -17.66,-0.75 -35.37,-0.4 -53.01,-1.29 -13.38,-6.19 -25.84,-14.28 -39.16,-20.64 -8.85,-3.18 -18.22,-4.75 -27.03,-8.06 -7.93,-3.65 -15.37,-8.33 -23.28,-11.99 -4.68,-0.82 -9.48,-0.4 -14.19,-0.74 -1.23,-4.12 -2.02,-8.47 -4.27,-12.19 -6.72,-11.09 -13.37,-22.24 -20.05,-33.34 -4.9,-7.84 -8.77,-16.51 -15.99,-22.56 -3.59,-2.72 -3.09,-7.56 -3.91,-11.49 -1.23,-7.1 -1.75,-14.35 -3.56,-21.33 -2.45,-3.64 -5.59,-6.74 -8.35,-10.11 0.02,-1.5 0.05,-4.51 0.07,-6.03zm549.91 -321.24c1.13,-0.55 2.28,-1.11 3.47,-1.64 0.75,6.2 2.99,12.04 4.99,17.92 -3.5,-5.02 -10.55,-9.23 -8.46,-16.28zm-623.4 -255.15c41.97,0.11 83.95,0.04 125.91,0.04 0.27,8.64 0.17,17.26 0.12,25.89 -33.53,0.05 -67.06,-0.01 -100.59,0.04 0.02,43.29 -0.11,86.61 0.07,129.91 16.24,-0.05 32.48,-0.08 48.71,0 0.15,12.97 -0.05,25.93 0.12,38.89 0,3.94 0.12,8.09 -1.7,11.73 -7.59,16.51 -15.09,33.06 -22.47,49.66 -1.24,2.66 -2.76,5.2 -4.35,7.69 0.17,-27.23 0.02,-54.46 0.09,-81.69 -15.32,-0.05 -30.64,0 -45.94,-0.03 0.02,-60.71 -0.07,-121.42 0.03,-182.13zm-783.85 -42.96c1.76,-2.39 3.48,-4.8 5.2,-7.18 75.22,2.72 150.43,5.89 225.64,8.92 0.01,7.98 0.03,15.97 -0.02,23.97 45.19,42.48 90.58,84.76 135.83,127.16 50.52,-0.03 101.02,0 151.54,-0.02 0.03,42.95 -0.09,85.92 0.05,128.87 -7.77,-3.51 -16.14,-5.25 -24.26,-7.65 -3.81,5.28 -7.8,10.47 -10.86,16.25 -6.55,-1.37 -13.08,-2.79 -19.59,-4.19 -5.53,4.32 -12.85,6.91 -16.47,13.28 -3.78,6.35 -8.46,12.23 -11.21,19.13 -6.29,15.62 -12.32,31.34 -18.65,46.92 -2.8,4.19 -7.5,6.73 -10.51,10.83 -4.42,4.78 -7.38,11.36 -13.61,14.11 -4.99,0.52 -10.46,0.22 -14.9,-2.32 -17.58,-9.19 -35.3,-18.04 -52.82,-27.31 -26.41,-16.46 -52.54,-33.38 -78.92,-49.88 -4.83,-2.88 -7.32,-8.14 -10.74,-12.37 -5.35,-7.75 -12.98,-14.56 -14.2,-24.4 -1.85,-15.34 -0.07,-30.97 -1.79,-46.28 -4.83,-7.4 -10.86,-13.96 -15.85,-21.25 -3.99,-4.96 0.12,-12.02 -3.38,-17.25 -3.09,-5.97 -5.84,-12.26 -10.17,-17.44 -19.11,-13.85 -38.82,-26.91 -57.83,-40.91 -19.03,-19.4 -37.81,-39.08 -56.82,-58.52 -5.26,-5.3 -9.92,-11.55 -16.75,-14.95 -5.63,-3.31 -11.75,-5.87 -16.98,-9.79 -6.7,-9.07 -10.94,-19.58 -14.8,-30.09 -7.15,-3.96 -14.35,-7.83 -21.46,-11.86 -2.53,-1.2 -4,-3.66 -5.67,-5.78zm279.37 -101.84c57.03,-0.06 114.04,-0.11 171.08,0.02 0.18,18.91 -0.02,37.82 0.1,56.71 47.61,0.19 95.23,-0.31 142.84,0.26 -0.36,8.6 0.61,17.29 -0.48,25.85l-0.95 0.66c-57.54,-0.12 -115.05,0.05 -172.57,-0.09 0.59,-18.92 0.07,-37.87 0.24,-56.79 -18.68,0.65 -37.37,0.45 -56.05,0.46 -18.91,-0.03 -37.82,0.22 -56.72,-0.48 0.02,20.76 -0.03,41.53 -0.01,62.28 -0.57,3.22 1.82,5.48 3.87,7.51 28.27,27.92 56.1,56.28 84.42,84.15l0.95 0.11c58,0.27 116,0.04 173.98,0.12 7.86,0 15.71,-0.01 23.57,0.05 -0.51,8.96 -0.25,17.93 -0.26,26.88 -67.21,0.52 -134.43,-0.02 -201.65,0.27 -3.41,-0.04 -7.32,0.43 -9.73,-2.54 -33.22,-31.96 -66.47,-63.9 -99.76,-95.79 -2.19,-1.8 -3.31,-4.48 -2.97,-7.32 0.11,-34.09 -0.05,-68.2 0.1,-102.32zm297.7 -192.53c177.33,-0.1 354.66,-0.06 531.99,-0.01 0.13,59.54 0.08,119.09 0.03,178.63 -58.49,0.21 -116.97,-0.15 -175.44,0.18 -0.85,-13 0.17,-26.03 -0.57,-39.04 -40.23,0.13 -80.45,0.07 -120.68,0.03 -0.42,34.27 -0.23,68.55 -0.1,102.81 32.53,0.03 65.05,-0.07 97.58,0.05 0.13,8.87 -0.15,17.76 0.25,26.63 -42.1,0.06 -84.21,0 -126.31,0.03 -0.02,-52.22 -0.04,-104.44 0.02,-156.64 59.43,0.1 118.87,-0.04 178.31,0.06 -0.1,12.61 0.11,25.24 -0.14,37.86 39.58,0.26 79.17,0.08 118.75,0.08 -0.05,-41.75 0,-83.51 -0.02,-125.26 -158.57,0 -317.12,-0.01 -475.69,0 -0.01,25.36 0,50.72 0,76.08l1.31 -0.12c13.35,0.05 26.68,0.09 40.02,0.04 0.05,139.35 0,278.69 0.02,418.05 -17.26,0.03 -34.51,0 -51.79,0.01 0,27.3 -0.03,54.6 0.05,81.89l-0.08 1.24c78.37,-0.03 156.73,0 235.08,-0.02 -3.74,9.12 -8.05,17.98 -12.01,27 -84.08,0.28 -168.18,0.13 -252.27,0.08 0.02,-45.49 -0.03,-90.98 0.03,-136.45 17.54,-0.15 35.08,0.1 52.64,-0.11 -0.02,-121.74 -0.13,-243.47 0.05,-365.18 -13.66,-0.42 -27.35,-0.07 -41.01,-0.2 -0.03,-42.57 0,-85.15 -0.02,-127.72zm-195.08 -219.42c1.65,-1.69 3.79,-2.71 6.21,-2.41 108.69,-0.01 217.39,0.09 326.09,-0.05 4.26,3.56 8.27,7.42 12.15,11.4 22.48,22.75 45.58,44.88 68.1,67.6 0.22,30.19 0.1,60.38 0.05,90.56 -53,0.09 -106.01,0.04 -159.01,0.02 -0.11,-12.38 0.01,-24.76 -0.05,-37.14 -61.7,0.05 -123.37,-0.11 -185.07,0.1 0.19,29.77 -0.1,59.56 0.15,89.34 33.93,-0.05 67.86,-0.15 101.79,0.04 0.12,9 -0.15,18.01 0.2,27.01 -43.65,0.03 -87.3,0.08 -130.97,-0.03 0.03,-48 0.35,-96.03 -0.15,-144.02 80.82,0.03 161.64,-0.08 242.48,0.07 -0.04,12.51 -0.02,25 -0.02,37.52 19.11,0 38.21,0 57.32,0 17.22,0 34.44,0 51.68,0 0,-17.53 0,-35.03 0,-52.54 -22.28,-20.55 -44.77,-40.88 -67.05,-61.41 -1.77,-1.86 -4.14,-2.89 -6.72,-2.59 -101.3,0.02 -202.6,0.02 -303.88,0 -29.42,28.4 -59.16,56.46 -88.46,84.96 0.08,47.11 -0.02,94.22 0.05,141.33 20.5,23.72 40.86,47.58 61.44,71.23l1.01 0.15c61.12,0.27 122.24,0.09 183.35,0.09 -0.46,8.62 -0.18,17.27 -0.28,25.91 -65.9,0.05 -131.81,0 -197.71,0.01 -22.43,-25.3 -44.72,-50.76 -67.14,-76.09 -2.6,-3.02 -5.54,-5.8 -7.7,-9.17 -1.08,-4.31 -0.45,-8.84 -0.57,-13.25 0.04,-49.53 0.07,-99.08 -0.01,-148.63 -0.12,-2.42 0.26,-4.97 2.35,-6.51 33.45,-31.17 66.96,-62.29 100.37,-93.5zm58.98 -81.34c41.5,0.22 82.98,0.87 124.49,0.89 20.02,0.95 40.08,-0.22 60.09,0.75 45.94,-0.04 91.86,0.85 137.81,0.9 0.03,19.48 1.01,38.92 0.75,58.4 -9.89,-9.65 -19.93,-19.16 -29.84,-28.78 -98.16,-0.03 -196.32,0.07 -294.47,-0.05 0.52,-10.71 0.46,-21.42 1.17,-32.11zm877.35 335.76c6.99,-2.1 13.78,-4.79 20.77,-6.95 16.27,7.42 32.49,14.97 48.74,22.47 3.46,1.59 7.37,1.4 11.03,2.37 2.37,1.31 4.41,3.21 6.95,4.25 11.56,4.31 20.33,14.78 33.33,15.28 6.9,-2.42 13.39,-7.92 21.13,-6.03 4.73,66.19 9.42,132.37 14.37,198.53 2.47,6.91 6.54,13.9 13.04,17.79 4.21,3.09 8.82,5.7 12.68,9.27 3.24,4.08 5.61,8.77 8.44,13.16 -1.87,4.76 -3.69,9.56 -5.38,14.39 1.8,2.95 3.47,6.04 5.49,8.9 2.83,3.99 8.87,4.66 10.81,9.44 2.16,4.04 4.18,8.17 6.9,11.89 -0.16,2.81 -0.43,5.65 -0.18,8.49 6.41,5.88 13.01,12.36 15.6,20.93 1.67,5.82 4.06,11.5 4.54,17.59 1.14,10.06 -1.71,19.95 -3.19,29.82 -1.38,5.05 -1.93,11.06 -6.49,14.35 -2.16,2.22 -5.48,3.93 -5.68,7.39 -1.52,8.38 -3.91,16.78 -2.69,25.39 -0.99,8.52 -3.56,18.97 2.79,26.11 1.2,1.6 2.44,3.21 3.71,4.83 -2.29,7.65 -3.96,15.52 -6.7,23.03 -3.09,4.85 -8.57,8.17 -9.76,14.12 -1.15,4.93 -4.69,8.62 -7.82,12.39 1.69,3.44 3.39,6.89 5.06,10.36 -6.78,1.09 -14.03,0.67 -20.24,4.01 -12.92,6.11 -25.96,11.93 -38.88,18.06 -0.65,-0.84 -1.97,-2.51 -2.64,-3.34 -6.96,1.2 -13.96,2.27 -20.93,3.41 0.92,-6.49 1.81,-12.97 2.66,-19.47 -6.62,-0.18 -13.18,-1.6 -19.76,-1.22 -9.74,3.96 -19.06,8.89 -28.69,13.12 -0.88,8.48 -1.65,17 -2.4,25.51 4.41,5.21 8.82,10.44 13.19,15.72 -9.83,8.92 -20.13,17.35 -29.7,26.51 -2.45,4.98 -1.22,11.13 -3.46,16.24 -1.62,1.37 -3.37,2.55 -5.07,3.8 -3.21,-0.03 -6.42,-0.03 -9.59,0 -35.55,-85.01 -71.32,-169.97 -106.43,-255.14 -0.59,-72.51 -0.09,-145.1 -0.25,-217.63 -28.82,-0.02 -57.64,0 -86.45,0 -0.02,-48.05 0.03,-96.11 -0.02,-144.15 3.61,-0.66 7.38,-1.02 10.68,-2.84 13.41,4.96 25.25,13.13 37.56,20.28 6.9,-5.82 13.62,-11.86 20.47,-17.74 6.51,-6.1 16.07,-4.78 24.22,-6.39 10.02,-0.51 18.33,-6.79 27.75,-9.45 13.45,-2.87 27.01,1.19 40.49,1.15zm80.47 246.06l0 0c-15.5,-0.09 -31,-0.11 -46.5,0 9.97,9.2 20.36,17.94 30.36,27.11 -7.63,14 -15.3,27.98 -22.78,42.08 13.95,-7.87 27.85,-15.81 41.61,-23.99 11.03,7.58 21.33,16.15 32.21,23.95 -0.37,-13.89 0.57,-27.84 -0.58,-41.71 15.06,-9.35 30.6,-17.96 45.63,-27.38 -15.95,-0.23 -31.9,-0.1 -47.86,-0.08 -2.05,-14.38 -3.79,-28.82 -5.88,-43.2 -8.58,14.5 -17.34,28.88 -26.21,43.22zm-464.41 -41c87.02,0.08 174.04,0.02 261.06,0.03 0.28,45.21 0.1,90.43 0.1,135.65 -6.3,0.08 -12.6,0.05 -18.88,-0.03 7.13,19.98 16.34,39.17 24.27,58.87 39.01,92.34 77.85,184.74 116.98,277.06 15.45,0 30.92,-0.17 46.37,0.06 0.02,51.02 0.07,102.04 -0.02,153.07 -86.55,0.14 -173.1,0.09 -259.65,0.04 -0.05,-48.6 -0.18,-97.2 0.07,-145.79 -27.93,-0.84 -55.91,-0.07 -83.85,-0.4 -0.61,48.71 0,97.46 -0.31,146.19 -87.79,0.05 -175.59,0.1 -263.38,-0.04 -0.08,-48.54 -0.1,-97.1 0,-145.65 16.27,-0.05 32.54,0.03 48.81,-0.03 51.09,-114.39 102.34,-228.7 153.07,-343.22 -8.13,-0.7 -16.7,0.99 -24.59,-0.73 -0.5,-45.01 -0.36,-90.06 -0.05,-135.08zm28.59 27.16l0 0c0.1,26.06 -0.22,52.12 0.16,78.18l-0.75 0.67c12.8,0.47 25.64,-0.55 38.41,0.55 -58.5,132.31 -116.61,264.8 -175.02,397.14 -13.3,-0.05 -26.58,-0.02 -39.88,-0.02 0.08,30.56 -0.18,61.11 0.15,91.66l-0.75 0.59c68.96,0.12 137.93,0.02 206.91,0.05 -0.12,-30.52 0.25,-61.04 -0.18,-91.56l0.73 -0.67c-12.84,-0.03 -25.69,-0.42 -38.52,0.45 8.62,-17.52 17.37,-34.98 26.19,-52.39 56.43,0.19 112.87,0.07 169.3,0.05 7.91,17.23 15.63,34.53 23.5,51.77 -13.43,0.1 -26.84,0.02 -40.28,0.05 0.14,30.49 -0.3,60.99 0.24,91.5l-0.89 0.68c67.73,0.27 135.47,0.04 203.21,0.12 -0.1,-30.99 0.18,-61.99 -0.15,-92.98l-0.76 0.9c-12.12,-0.42 -24.25,-0.2 -36.38,-0.17 -54.48,-132.69 -109.92,-264.98 -164.43,-397.65 10.86,0.05 21.72,0.02 32.57,0.02 -0.3,-26.65 0.62,-53.34 -0.46,-79.97l-1.17 1.28c-67.24,-0.58 -134.51,-0.1 -201.75,-0.25zm104.52 293.15l0 0c-5.91,12.83 -12.01,25.59 -17.91,38.44 11.43,0.01 22.86,0.06 34.28,-0.04 -5.33,-12.86 -10.52,-25.77 -16.37,-38.4z"/>
   <path class="fil1" d="M1394.7 667.44l1.17 -1.28c1.08,26.63 0.16,53.32 0.46,79.97 -10.85,0 -21.71,0.03 -32.57,-0.02 54.51,132.67 109.95,264.96 164.43,397.65 -20.3,0.65 -40.63,0.55 -60.94,0.12 -10.68,-24.56 -21,-49.25 -31.71,-73.79 -2.27,-4.91 -3.61,-10.37 -7.06,-14.6 -27.79,-0.72 -55.63,-0.07 -83.43,-0.25 -46.22,-0.73 -92.47,-0.2 -138.69,-0.35 -12.98,0.22 -25.99,-0.55 -38.94,0.52 13.72,12.83 29.17,23.69 42.98,36.43 -8.82,17.41 -17.57,34.87 -26.19,52.39 -20.61,0.47 -41.28,0.57 -61.89,-0.02 14.25,-32.82 30.95,-64.53 45.44,-97.27 42.79,-100.15 85.74,-200.22 128.46,-300.4 -21.8,-0.7 -43.65,-0.62 -65.45,0.05 -12.77,-1.1 -25.61,-0.08 -38.41,-0.55l0.75 -0.67c10.78,-9.4 21.2,-19.17 31.76,-28.83 3.21,-2.87 6.13,-6.2 9.97,-8.25 6,-1.17 12.15,-0.54 18.21,-0.6 32.9,0.08 65.79,0.01 98.66,0.05 3.55,0.38 6.54,-1.54 8.79,-4.1 11.36,-12.11 23.49,-23.48 34.2,-36.2zm-208.8 514.7c12.12,-12.47 23.1,-26.08 36.1,-37.69 0.43,30.52 0.06,61.04 0.18,91.56 -68.98,-0.03 -137.95,0.07 -206.91,-0.05l0.75 -0.59c16.14,-12.54 32.17,-25.22 48.06,-38.08 2.76,-2.59 6.68,-2.37 10.19,-2.44 26.78,0.15 53.56,0.07 80.34,0.11 6.1,-0.06 12.26,0.52 18.32,-0.5 5.22,-3.04 8.74,-8.15 12.97,-12.32zm378.67 -38.21l0.76 -0.9c0.33,30.99 0.05,61.99 0.15,92.98 -67.74,-0.08 -135.48,0.15 -203.21,-0.12l0.89 -0.68c13.18,-10.48 25.92,-21.5 38.72,-32.44 3.99,-3.13 7.52,-8.19 13.18,-7.84 33.41,-0.05 66.86,0.1 100.28,-0.01 4.86,0.61 7.87,-3.46 10.73,-6.67 12.71,-14.89 25.94,-29.32 38.5,-44.32zm-500.24 -357.71c25.04,-0.02 50.1,-0.02 75.14,0 0,5.01 0.02,10.02 0.05,15.05 4.06,-0.02 8.12,-0.02 12.2,0 -12.97,27.31 -25.53,54.83 -38.84,81.97 -0.15,-4.64 -0.15,-9.27 -0.14,-13.9 -16.12,0 -32.22,-0.06 -48.34,0.04 -0.2,-27.72 -0.03,-55.45 -0.07,-83.16zm564.44 -105.19c8.87,-14.34 17.63,-28.72 26.21,-43.22 2.09,14.38 3.83,28.82 5.88,43.2 15.96,-0.02 31.91,-0.15 47.86,0.08 -15.03,9.42 -30.57,18.03 -45.63,27.38 1.15,13.87 0.21,27.82 0.58,41.71 -10.88,-7.8 -21.18,-16.37 -32.21,-23.95 -13.76,8.18 -27.66,16.12 -41.61,23.99 7.48,-14.1 15.15,-28.08 22.78,-42.08 -10,-9.17 -20.39,-17.91 -30.36,-27.11 15.5,-0.11 31,-0.09 46.5,0zm-1091.93 -61.93c18.9,0.7 37.81,0.45 56.72,0.48 0.35,17.29 -0.25,34.6 0.2,51.89 -0.18,3.39 2.67,5.63 4.76,7.87 14.22,13.5 28.03,27.41 42.6,40.54 2.75,-14.67 5.06,-29.4 8.25,-43.97 57.52,0.14 115.03,-0.03 172.57,0.09l1.82 0c-0.1,32.44 0.18,64.88 -0.14,97.32 -7.86,-0.06 -15.71,-0.05 -23.57,-0.05 -0.23,-17.27 0.04,-34.55 -0.13,-51.8 -47.16,-0.85 -94.33,-0.05 -141.51,-0.42 -5.58,-0.05 -11.16,0.08 -16.74,0.3 -5.45,17.19 -11.01,34.36 -15.6,51.8l-0.95 -0.11c-28.32,-27.87 -56.15,-56.23 -84.42,-84.15 -2.05,-2.03 -4.44,-4.29 -3.87,-7.51 -0.02,-20.75 0.03,-41.52 0.01,-62.28zm298.19 -193.72c158.57,-0.01 317.12,0 475.69,0 0.02,41.75 -0.03,83.51 0.02,125.26 -39.58,0 -79.17,0.18 -118.75,-0.08 19.17,-14.55 39.26,-27.82 58.77,-41.88 0.45,-13.5 0.27,-27 0.12,-40.48 -101.78,0.3 -203.57,-0.22 -305.36,0.28 22.51,15.12 45.91,28.85 68.3,44.16 -0.06,52.2 -0.04,104.42 -0.02,156.64 42.1,-0.03 84.21,0.03 126.31,-0.03 0.47,8.62 -0.05,17.27 0.45,25.89 -49.33,0.05 -98.66,0 -147.99,0.03 -15.31,0.19 -30.63,-0.43 -45.93,0.32 21.79,14.87 45.21,27.25 67.19,41.81 -0.1,60.71 -0.01,121.42 -0.03,182.13 15.3,0.03 30.62,-0.02 45.94,0.03 -0.07,27.23 0.08,54.46 -0.09,81.69l-0.01 1.4c-78.35,0.02 -156.71,-0.01 -235.08,0.02l0.08 -1.24c14.6,-10.84 28.12,-23.07 42.03,-34.74 4.58,-3.7 9.08,-8.91 15.56,-8.34 20.93,-0.07 41.88,0.27 62.81,-0.08 -0.13,-44.92 -0.02,-89.86 -0.05,-134.78 -1.47,-73.47 0.2,-146.99 -0.97,-220.48 -0.05,-44.7 0.17,-89.41 -0.1,-134.11 -15.55,-0.62 -31.14,-0.03 -46.69,-0.37 -6.4,-0.06 -13.43,-0.55 -18.74,3.69 -14,9.83 -28.57,18.82 -42.15,29.22l-1.31 0.12c0,-25.36 -0.01,-50.72 0,-76.08zm-129.48 -49.73c0.17,-14.23 -0.28,-28.48 0.25,-42.73 44.89,0.38 89.78,0.05 134.66,0.17 0,14.2 0,28.39 0,42.59 -44.97,-0.01 -89.94,0.04 -134.91,-0.03zm-168.74 -86.67c29.3,-28.5 59.04,-56.56 88.46,-84.96 7.5,10.74 14.31,21.95 21.14,33.13 1.41,1.75 2.43,4.67 5.13,4.64 7.25,0.75 14.55,0.18 21.82,0.25 76.29,-0.03 152.59,0.07 228.88,-0.05 3.16,-0.02 6.57,0.39 8.8,2.89 11.3,11.04 23.21,21.43 34.28,32.69 2.91,2.44 6.05,6.62 10.33,4.67 15.88,-4.25 31.34,-10.09 47.27,-14.22 0,17.51 0,35.01 0,52.54 -17.24,0 -34.46,0 -51.68,0 0.26,-11.9 0.36,-23.81 -0.05,-35.7 -19,-2.17 -38.19,-0.8 -57.25,-1.82 -80.84,-0.15 -161.66,-0.04 -242.48,-0.07 -1.52,-13.08 -1.07,-26.28 -2.41,-39.37 -2.97,2.32 -5.88,4.69 -8.57,7.33 -15.61,15.58 -32.22,30.13 -47.89,45.65 -3.21,2.59 -2.64,6.97 -2.81,10.63 0.19,34.51 0.05,69.03 0.1,103.52 -0.25,3.69 1.32,7.09 3.7,9.83 11,13.83 21.68,27.91 32.45,41.93 9.93,-10.78 16.19,-24.29 25.58,-35.5 43.67,0.11 87.32,0.06 130.97,0.03 0.53,12.29 0.13,24.61 0.25,36.92 -48.71,-0.27 -97.43,0.08 -146.14,-0.18 -3.22,0.06 -6.5,-0.07 -9.62,0.81 -2.79,2.28 -4.8,5.33 -6.95,8.21 -6.87,9.69 -14.42,18.89 -20.81,28.91l-1.01 -0.15c-20.58,-23.65 -40.94,-47.51 -61.44,-71.23 -0.07,-47.11 0.03,-94.22 -0.05,-141.33zm113.25 -208.98l73.9 0c27.11,1.67 54.34,-0.38 81.47,1.19 22.37,0.01 44.76,0.26 67.12,-0.15 47.21,0.16 94.42,0.75 141.63,0.63 0.12,20.63 0.79,41.25 0.99,61.88 0.75,12.51 -0.42,25.19 1.29,37.6 17.5,18.08 36.4,34.85 54.15,52.72 -0.05,39.34 -0.03,78.67 -0.01,118.01 105.51,0 211.04,-0.02 316.55,0 0,23.52 0,47.04 0,70.55 6.48,0.81 13.09,0.93 19.49,2.42 4.06,2.17 6.77,6.23 10.86,8.42 5.21,2.8 10.44,5.61 15.47,8.79 6.8,-6.05 13.55,-12.75 22.4,-15.63 8.17,-2.02 16.69,-2.03 24.88,-3.92 7.53,-1.99 14.18,-6.42 21.76,-8.27 11.48,-2.47 23.36,-1.84 34.92,-0.25 10.56,1.77 21.23,-2.86 28.78,-10.11 19.14,8.81 38.29,17.64 57.42,26.48 4.72,2.21 10.04,2.19 15.15,2.82 8.4,7.44 19.29,11.13 28.23,17.88 4.96,-2.01 9.86,-4.13 14.72,-6.38 9.7,1.38 19.36,3.09 29.03,4.71 4.83,69.02 9.97,138.04 14.92,207.04 0.8,12.37 16.14,14.4 22.5,23.11 5.06,7.68 9.56,15.73 14.55,23.47 -1.7,4.41 -3.39,8.82 -5.04,13.25 11.01,4.64 12.11,18.09 20.85,25.24 -0.02,2.6 0,5.21 0.01,7.82 4.08,5.81 8.96,11.16 12.13,17.54 2.91,8.37 5.76,16.84 7.5,25.54l0 18.31c-2.3,12.58 -3.66,25.54 -8.85,37.35 -2.01,2.92 -5,5 -7.1,7.85 -4.01,8.26 -0.25,17.51 -2.59,26.03 -2.62,7.64 5.53,12.78 8.99,18.63 -2.89,11.07 -6.12,22.06 -9.19,33.09 -1.05,4.78 -5.03,7.94 -7.85,11.66 -2.86,3.38 -3.95,7.77 -5.57,11.79 5.62,6.37 11.61,12.4 17.31,18.71 -5.58,2.08 -11.04,4.53 -16.74,6.22 -10.57,2.6 -21.82,1.67 -32.16,5.21 -17.79,8.19 -35.55,16.44 -53.3,24.69 -1.84,-2.22 -3.65,-4.41 -5.45,-6.61 -9.54,1.42 -19.04,3.04 -28.58,4.51 1.84,2.12 3.69,4.27 5.56,6.43 -1.59,5.51 -1.27,12.43 -6.36,16.17 -8.56,7.65 -17.34,15.03 -25.83,22.77 -3.44,2.82 -2.81,7.72 -3.66,11.66 9.09,0 18.18,-0.02 27.26,0 0,82.27 0.02,164.55 0,246.82 -86.16,0 -172.33,0 -258.48,0 -13.81,0.27 -27.66,-0.6 -41.44,0.53 2.37,7.62 4.76,15.56 4.42,23.61 -3.17,11.96 -7.35,23.65 -10.86,35.55 9.76,21.58 16.56,44.28 23.99,66.74 1.87,5.26 2.89,10.96 5.82,15.8 4.89,5.81 10.84,10.64 15.77,16.44 2.67,0.93 5.34,1.9 8.03,2.89 0.13,6.04 0.45,12.09 0.89,18.14 -3.04,3.16 -5.83,6.57 -9.16,9.42 -4.09,0.94 -8.42,-0.48 -12.54,-0.75 -4.13,5.96 -8.21,11.96 -12.32,17.94l-1.41 0c-10.16,-4.04 -20.8,-7 -30.31,-12.46 -6.88,-3.73 -13.58,-7.75 -20.55,-11.28 -8.47,-4.36 -18.24,-2.62 -27.36,-3.05 -12.46,-0.69 -24.99,0.11 -37.4,-1.16 -13.85,-6.31 -26.7,-14.7 -40.4,-21.33 -8.68,-3.54 -18.07,-4.88 -26.84,-8.13 -7.85,-3.03 -14.64,-8.36 -22.59,-11.1 -8.08,-1.03 -16.25,-0.73 -24.37,-0.82 -2.67,-9.15 -3.64,-19.07 -8.95,-27.21 -8.11,-13.18 -15.92,-26.53 -23.93,-39.76 -3.29,-5.74 -9.15,-9.35 -12.84,-14.73 -2.29,-10.04 -3.21,-20.37 -4.93,-30.52 -3.28,-3.78 -6.53,-7.57 -9.86,-11.28 0.05,-4.49 0.24,-8.99 0.47,-13.46 -42.33,-0.04 -84.65,-0.02 -126.98,-0.02 -0.01,-58.19 0,-116.37 0,-174.57 0.17,-3.84 -1.67,-7.28 -3.35,-10.58 -4.43,-8.38 -8.82,-16.77 -12.9,-25.32 -2.16,-4.33 -2.19,-9.51 -5.08,-13.47 -2.99,-4.27 -6.35,-8.3 -9.52,-12.42 -53.48,-0.04 -106.95,0 -160.42,-0.02 0.03,-25.98 -0.09,-51.95 0.05,-77.93 -5.03,-2.51 -9.99,-5.13 -15.09,-7.45 -1.54,3.82 -3.07,7.67 -4.59,11.49 -4.46,0.84 -8.89,1.94 -13.42,2.19 -6.01,-0.47 -11.71,-2.77 -17.74,-3.11 -5.03,5.2 -8.58,11.7 -11.84,18.11 -6.43,15.97 -12.68,32.03 -19.03,48.03 -1.75,5.6 -7.2,8.47 -11.01,12.51 -6.51,6.32 -10.51,15.27 -18.81,19.63 -4.16,2.29 -8.38,5.68 -13.45,4.79 -7.96,-0.86 -16.58,-0.16 -23.7,-4.47 -19.63,-10.51 -39.86,-19.91 -59.19,-30.94 -25.91,-16.37 -51.7,-32.91 -77.66,-49.21 -7.07,-4.15 -10.69,-11.86 -15.69,-18.03 -4.69,-7 -11.34,-12.96 -13.85,-21.22 -5.99,-16.82 -2.84,-34.91 -4.09,-52.35 -5.53,-7.37 -11.51,-14.42 -16.44,-22.22 -3.52,-5.09 -0.73,-11.68 -2.72,-17.2 -1.9,-4.93 -4.83,-9.68 -9.42,-12.52 -15.77,-10.82 -31.31,-21.98 -47.06,-32.84 -2.99,-2.07 -5.8,-4.38 -8.27,-7.03 -20.26,-20.92 -40.56,-41.8 -60.79,-62.75 -6.72,-7.25 -16.37,-10.41 -24.59,-15.52 -4.91,-2.39 -6.85,-7.8 -9.64,-12.11 -4.23,-6.71 -7.75,-13.81 -10.34,-21.3 -7.1,-4.09 -14.58,-7.55 -21.37,-12.14 -5.93,-5.92 -8.78,-14.12 -13.14,-21.15 1.4,-1.99 2.82,-4 4.24,-5.97 -2.44,-2.05 -4.88,-4.09 -7.2,-6.24l0 -0.94c4.49,-4.43 8.75,-9.07 13.18,-13.55 81.77,3.53 163.56,6.55 245.35,9.99 -0.12,-43.63 0.15,-87.27 -0.13,-130.88 25.81,-0.35 51.63,-0.07 77.44,-0.15 -24.75,-26.62 -49.58,-53.19 -74.39,-79.77 -2.05,-2.01 -3.39,-4.56 -2.97,-7.5 0.07,-67.34 0,-134.7 0.03,-202.05 45.36,-41.35 90.71,-82.71 136,-124.13 17.29,-0.03 34.58,-0.01 51.86,-0.01 0.28,-17.12 1.25,-34.25 1.37,-51.37zm20.89 19.21l0 0c-0.71,10.69 -0.65,21.4 -1.17,32.11 98.15,0.12 196.31,0.02 294.47,0.05 9.91,9.62 19.95,19.13 29.84,28.78 0.26,-19.48 -0.72,-38.92 -0.75,-58.4 -45.95,-0.05 -91.87,-0.94 -137.81,-0.9 -20.01,-0.97 -40.07,0.2 -60.09,-0.75 -41.51,-0.02 -82.99,-0.67 -124.49,-0.89zm-184.07 165.05l0 0c-2.11,1.37 -2.41,3.84 -2.27,6.16 0.1,60.63 -0.05,121.25 0.08,181.88 30.2,32.2 60.24,64.58 90.41,96.82 1.47,2.14 3.94,2.62 6.4,2.42 77.39,-0.1 154.81,0.02 232.2,-0.05 0.07,24.79 0.04,49.58 0.02,74.37 -36.97,0.05 -73.94,-0.16 -110.91,0.1 -0.42,-19.11 0,-38.22 -0.2,-57.34 -72.67,0.04 -145.32,0 -217.97,0.03 0,46.99 -0.02,93.98 0.02,140.99 40.67,37.82 81.12,75.91 121.78,113.75 72.3,0.01 144.62,-0.04 216.92,0.03 -0.04,15.57 -0.04,31.14 0.01,46.71 -17.14,0.08 -34.26,0 -51.4,0.03 0.03,61.13 -0.08,122.25 0.07,183.38 88.6,-0.07 177.21,-0.05 265.81,0 -6.24,15.03 -12.51,30.07 -18.81,45.09 -18.59,-0.04 -37.18,-0.04 -55.77,0 -0.02,63.61 -0.02,127.22 0,190.84 103.97,0 207.96,0.01 311.95,-0.02 0,-48.29 0,-96.59 0,-144.9 11.54,-0.02 23.09,0.01 34.63,-0.02 0.08,48.31 0,96.63 0.03,144.94 103.29,0 206.58,0 309.87,0 0.02,-66.27 0.02,-132.53 0,-198.8 -18.56,-0.03 -37.13,0.07 -55.69,-0.05 -40.8,-98.02 -81.84,-195.95 -122.69,-293.96 2.79,-0.02 5.61,-0.02 8.44,-0.03 -0.04,-59.56 -0.04,-119.13 0,-178.7 -127.81,-0.07 -255.63,0.05 -383.44,-0.05 0.07,-18.23 0.02,-36.45 0.03,-54.68 24.11,0.09 48.22,-0.15 72.34,0.12 -0.2,12.58 0.03,25.17 -0.17,37.75 74.92,0.3 149.85,0.05 224.77,0.14 0,-75.18 0,-150.35 0,-225.53 -105.54,-0.06 -211.09,0.14 -316.63,-0.1 0.11,-43.81 0.08,-87.63 0.01,-131.45 -30.8,-29.69 -61.57,-59.4 -92.51,-88.96 -115.92,0 -231.82,0 -347.74,0 -39.89,36.34 -79.65,72.81 -119.59,109.09zm1061.42 170.71l0 0c-13.48,0.04 -27.04,-4.02 -40.49,-1.15 -9.42,2.66 -17.73,8.94 -27.75,9.45 -8.15,1.61 -17.71,0.29 -24.22,6.39 -6.85,5.88 -13.57,11.92 -20.47,17.74 -12.31,-7.15 -24.15,-15.32 -37.56,-20.28 -3.3,1.82 -7.07,2.18 -10.68,2.84 0.05,48.04 0,96.1 0.02,144.15 28.81,0 57.63,-0.02 86.45,0 0.16,72.53 -0.34,145.12 0.25,217.63 35.11,85.17 70.88,170.13 106.43,255.14 3.17,-0.03 6.38,-0.03 9.59,0 1.7,-1.25 3.45,-2.43 5.07,-3.8 2.24,-5.11 1.01,-11.26 3.46,-16.24 9.57,-9.16 19.87,-17.59 29.7,-26.51 -4.37,-5.28 -8.78,-10.51 -13.19,-15.72 0.75,-8.51 1.52,-17.03 2.4,-25.51 9.63,-4.23 18.95,-9.16 28.69,-13.12 6.58,-0.38 13.14,1.04 19.76,1.22 -0.85,6.5 -1.74,12.98 -2.66,19.47 6.97,-1.14 13.97,-2.21 20.93,-3.41 0.67,0.83 1.99,2.5 2.64,3.34 12.92,-6.13 25.96,-11.95 38.88,-18.06 6.21,-3.34 13.46,-2.92 20.24,-4.01 -1.67,-3.47 -3.37,-6.92 -5.06,-10.36 3.13,-3.77 6.67,-7.46 7.82,-12.39 1.19,-5.95 6.67,-9.27 9.76,-14.12 2.74,-7.51 4.41,-15.38 6.7,-23.03 -1.27,-1.62 -2.51,-3.23 -3.71,-4.83 -6.35,-7.14 -3.78,-17.59 -2.79,-26.11 -1.22,-8.61 1.17,-17.01 2.69,-25.39 0.2,-3.46 3.52,-5.17 5.68,-7.39 4.56,-3.29 5.11,-9.3 6.49,-14.35 1.48,-9.87 4.33,-19.76 3.19,-29.82 -0.48,-6.09 -2.87,-11.77 -4.54,-17.59 -2.59,-8.57 -9.19,-15.05 -15.6,-20.93 -0.25,-2.84 0.02,-5.68 0.18,-8.49 -2.72,-3.72 -4.74,-7.85 -6.9,-11.89 -1.94,-4.78 -7.98,-5.45 -10.81,-9.44 -2.02,-2.86 -3.69,-5.95 -5.49,-8.9 1.69,-4.83 3.51,-9.63 5.38,-14.39 -2.83,-4.39 -5.2,-9.08 -8.44,-13.16 -3.86,-3.57 -8.47,-6.18 -12.68,-9.27 -6.5,-3.89 -10.57,-10.88 -13.04,-17.79 -4.95,-66.16 -9.64,-132.34 -14.37,-198.53 -7.74,-1.89 -14.23,3.61 -21.13,6.03 -13,-0.5 -21.77,-10.97 -33.33,-15.28 -2.54,-1.04 -4.58,-2.94 -6.95,-4.25 -3.66,-0.97 -7.57,-0.78 -11.03,-2.37 -16.25,-7.5 -32.47,-15.05 -48.74,-22.47 -6.99,2.16 -13.78,4.85 -20.77,6.95zm-1318.32 259.37l0 0c1.67,2.12 3.14,4.58 5.67,5.78 7.11,4.03 14.31,7.9 21.46,11.86 3.86,10.51 8.1,21.02 14.8,30.09 5.23,3.92 11.35,6.48 16.98,9.79 6.83,3.4 11.49,9.65 16.75,14.95 19.01,19.44 37.79,39.12 56.82,58.52 19.01,14 38.72,27.06 57.83,40.91 4.33,5.18 7.08,11.47 10.17,17.44 3.5,5.23 -0.61,12.29 3.38,17.25 4.99,7.29 11.02,13.85 15.85,21.25 1.72,15.31 -0.06,30.94 1.79,46.28 1.22,9.84 8.85,16.65 14.2,24.4 3.42,4.23 5.91,9.49 10.74,12.37 26.38,16.5 52.51,33.42 78.92,49.88 17.52,9.27 35.24,18.12 52.82,27.31 4.44,2.54 9.91,2.84 14.9,2.32 6.23,-2.75 9.19,-9.33 13.61,-14.11 3.01,-4.1 7.71,-6.64 10.51,-10.83 6.33,-15.58 12.36,-31.3 18.65,-46.92 2.75,-6.9 7.43,-12.78 11.21,-19.13 3.62,-6.37 10.94,-8.96 16.47,-13.28 6.51,1.4 13.04,2.82 19.59,4.19 3.06,-5.78 7.05,-10.97 10.86,-16.25 8.12,2.4 16.49,4.14 24.26,7.65 -0.14,-42.95 -0.02,-85.92 -0.05,-128.87 -50.52,0.02 -101.02,-0.01 -151.54,0.02 -45.25,-42.4 -90.64,-84.68 -135.83,-127.16 0.05,-8 0.03,-15.99 0.02,-23.97 -75.21,-3.03 -150.42,-6.2 -225.64,-8.92 -1.72,2.38 -3.44,4.79 -5.2,7.18zm1407.25 298.11l0 0c-2.09,7.05 4.96,11.26 8.46,16.28 -2,-5.88 -4.24,-11.72 -4.99,-17.92 -1.19,0.53 -2.34,1.09 -3.47,1.64zm-549.91 321.24l0 0c-0.02,1.52 -0.05,4.53 -0.07,6.03 2.76,3.37 5.9,6.47 8.35,10.11 1.81,6.98 2.33,14.23 3.56,21.33 0.82,3.93 0.32,8.77 3.91,11.49 7.22,6.05 11.09,14.72 15.99,22.56 6.68,11.1 13.33,22.25 20.05,33.34 2.25,3.72 3.04,8.07 4.27,12.19 4.71,0.34 9.51,-0.08 14.19,0.74 7.91,3.66 15.35,8.34 23.28,11.99 8.81,3.31 18.18,4.88 27.03,8.06 13.32,6.36 25.78,14.45 39.16,20.64 17.64,0.89 35.35,0.54 53.01,1.29 18.14,2.57 31.82,16.27 48.81,22.08 4.41,-5.46 8.07,-11.54 9.19,-18.59 -3.56,-4.19 -8.17,-7.6 -10.93,-12.34 -6.03,-17.13 -11.29,-34.5 -17.17,-51.67 -4.01,-13.23 -10.14,-25.66 -15.25,-38.46 2.89,-9.44 5.83,-18.86 8.82,-28.26 1.45,-4.73 3.47,-9.44 2.97,-14.49 -1.94,-0.4 -3.86,-0.78 -5.75,-1.17 -3.47,-5.01 -6.31,-10.56 -5.63,-16.87 -75.92,0 -151.86,0 -227.79,0zm209.79 -564.39l0 0c-0.54,9.71 0.66,19.38 0.43,29.1 -0.32,38.32 0.4,76.64 0.32,114.95 -22.09,43.93 -43.35,88.3 -64.94,132.51 39.28,0.16 78.55,0.05 117.83,0.06 26.06,8.89 51.53,19.45 77.59,28.32 -2.37,-6.92 -5.34,-13.6 -8.3,-20.28 -37.56,-87.7 -75.16,-175.39 -112.86,-263.04 -3.23,-7.27 -5.82,-14.87 -10.07,-21.62z"/>
   <path class="fil2" d="M486.88 264.26c39.94,-36.28 79.7,-72.75 119.59,-109.09 115.92,0 231.82,0 347.74,0 30.94,29.56 61.71,59.27 92.51,88.96 0.07,43.82 0.1,87.64 -0.01,131.45 105.54,0.24 211.09,0.04 316.63,0.1 0,75.18 0,150.35 0,225.53 -74.92,-0.09 -149.85,0.16 -224.77,-0.14 0.2,-12.58 -0.03,-25.17 0.17,-37.75 -24.12,-0.27 -48.23,-0.03 -72.34,-0.12 -0.01,18.23 0.04,36.45 -0.03,54.68 127.81,0.1 255.63,-0.02 383.44,0.05 -0.04,59.57 -0.04,119.14 0,178.7 -2.83,0.01 -5.65,0.01 -8.44,0.03 40.85,98.01 81.89,195.94 122.69,293.96 18.56,0.12 37.13,0.02 55.69,0.05 0.02,66.27 0.02,132.53 0,198.8 -103.29,0 -206.58,0 -309.87,0 -0.03,-48.31 0.05,-96.63 -0.03,-144.94 -11.54,0.03 -23.09,0 -34.63,0.02 0,48.31 0,96.61 0,144.9 -103.99,0.03 -207.98,0.02 -311.95,0.02 -0.02,-63.62 -0.02,-127.23 0,-190.84 18.59,-0.04 37.18,-0.04 55.77,0 6.3,-15.02 12.57,-30.06 18.81,-45.09 -88.6,-0.05 -177.21,-0.07 -265.81,0 -0.15,-61.13 -0.04,-122.25 -0.07,-183.38 17.14,-0.03 34.26,0.05 51.4,-0.03 -0.05,-15.57 -0.05,-31.14 -0.01,-46.71 -72.3,-0.07 -144.62,-0.02 -216.92,-0.03 -40.66,-37.84 -81.11,-75.93 -121.78,-113.75 -0.04,-47.01 -0.02,-94 -0.02,-140.99 72.65,-0.03 145.3,0.01 217.97,-0.03 0.2,19.12 -0.22,38.23 0.2,57.34 36.97,-0.26 73.94,-0.05 110.91,-0.1 0.02,-24.79 0.05,-49.58 -0.02,-74.37 -77.39,0.07 -154.81,-0.05 -232.2,0.05 -2.46,0.2 -4.93,-0.28 -6.4,-2.42 -30.17,-32.24 -60.21,-64.62 -90.41,-96.82 -0.13,-60.63 0.02,-121.25 -0.08,-181.88 -0.14,-2.32 0.16,-4.79 2.27,-6.16zm810.59 696.08c5.85,12.63 11.04,25.54 16.37,38.4 -11.42,0.1 -22.85,0.05 -34.28,0.04 5.9,-12.85 12,-25.61 17.91,-38.44zm-573.51 -880.34l151.23 0 -2.64 1.04c-22.36,0.41 -44.75,0.16 -67.12,0.15 -27.13,-1.57 -54.36,0.48 -81.47,-1.19zm-111.99 100.55l0 0c-33.41,31.21 -66.92,62.33 -100.37,93.5 -2.09,1.54 -2.47,4.09 -2.35,6.51 0.08,49.55 0.05,99.1 0.01,148.63 0.12,4.41 -0.51,8.94 0.57,13.25 2.16,3.37 5.1,6.15 7.7,9.17 22.42,25.33 44.71,50.79 67.14,76.09 65.9,-0.01 131.81,0.04 197.71,-0.01 0.1,-8.64 -0.18,-17.29 0.28,-25.91 0.37,-12.62 0.1,-25.23 0.17,-37.84 -0.12,-12.31 0.28,-24.63 -0.25,-36.92 -0.35,-9 -0.08,-18.01 -0.2,-27.01 -33.93,-0.19 -67.86,-0.09 -101.79,-0.04 -0.25,-29.78 0.04,-59.57 -0.15,-89.34 61.7,-0.21 123.37,-0.05 185.07,-0.1 0.06,12.38 -0.06,24.76 0.05,37.14 53,0.02 106.01,0.07 159.01,-0.02 0.05,-30.18 0.17,-60.37 -0.05,-90.56 -22.52,-22.72 -45.62,-44.85 -68.1,-67.6 -3.88,-3.98 -7.89,-7.84 -12.15,-11.4 -108.7,0.14 -217.4,0.04 -326.09,0.05 -2.42,-0.3 -4.56,0.72 -6.21,2.41zm93.58 195.1l0 0c44.97,0.07 89.94,0.02 134.91,0.03 0,-14.2 0,-28.39 0,-42.59 -44.88,-0.12 -89.77,0.21 -134.66,-0.17 -0.53,14.25 -0.08,28.5 -0.25,42.73zm101.5 24.32l0 0c0.02,42.57 -0.01,85.15 0.02,127.72 13.66,0.13 27.35,-0.22 41.01,0.2 -0.18,121.71 -0.07,243.44 -0.05,365.18 -17.56,0.21 -35.1,-0.04 -52.64,0.11 -0.06,45.47 -0.01,90.96 -0.03,136.45 84.09,0.05 168.19,0.2 252.27,-0.08 3.96,-9.02 8.27,-17.88 12.01,-27l0.01 -1.4c1.59,-2.49 3.11,-5.03 4.35,-7.69 7.38,-16.6 14.88,-33.15 22.47,-49.66 1.82,-3.64 1.7,-7.79 1.7,-11.73 -0.17,-12.96 0.03,-25.92 -0.12,-38.89 -16.23,-0.08 -32.47,-0.05 -48.71,0 -0.18,-43.3 -0.05,-86.62 -0.07,-129.91 33.53,-0.05 67.06,0.01 100.59,-0.04 0.05,-8.63 0.15,-17.25 -0.12,-25.89l0.57 0c-0.12,-14.07 0.97,-28.13 0.25,-42.2 -0.5,-8.62 0.02,-17.27 -0.45,-25.89 -0.4,-8.87 -0.12,-17.76 -0.25,-26.63 -32.53,-0.12 -65.05,-0.02 -97.58,-0.05 -0.13,-34.26 -0.32,-68.54 0.1,-102.81 40.23,0.04 80.45,0.1 120.68,-0.03 0.74,13.01 -0.28,26.04 0.57,39.04 58.47,-0.33 116.95,0.03 175.44,-0.18 0.05,-59.54 0.1,-119.09 -0.03,-178.63 -177.33,-0.05 -354.66,-0.09 -531.99,0.01zm-297.7 192.53l0 0c-0.15,34.12 0.01,68.23 -0.1,102.32 -0.34,2.84 0.78,5.52 2.97,7.32 33.29,31.89 66.54,63.83 99.76,95.79 2.41,2.97 6.32,2.5 9.73,2.54 67.22,-0.29 134.44,0.25 201.65,-0.27 0.01,-8.95 -0.25,-17.92 0.26,-26.88 0.32,-32.44 0.04,-64.88 0.14,-97.32l-1.82 0 0.95 -0.66c1.09,-8.56 0.12,-17.25 0.48,-25.85 -47.61,-0.57 -95.23,-0.07 -142.84,-0.26 -0.12,-18.89 0.08,-37.8 -0.1,-56.71 -57.04,-0.13 -114.05,-0.08 -171.08,-0.02zm655.01 47.53l0 0c-0.31,45.02 -0.45,90.07 0.05,135.08 7.89,1.72 16.46,0.03 24.59,0.73 -50.73,114.52 -101.98,228.83 -153.07,343.22 -16.27,0.06 -32.54,-0.02 -48.81,0.03 -0.1,48.55 -0.08,97.11 0,145.65 87.79,0.14 175.59,0.09 263.38,0.04 0.31,-48.73 -0.3,-97.48 0.31,-146.19 27.94,0.33 55.92,-0.44 83.85,0.4 -0.25,48.59 -0.12,97.19 -0.07,145.79 86.55,0.05 173.1,0.1 259.65,-0.04 0.09,-51.03 0.04,-102.05 0.02,-153.07 -15.45,-0.23 -30.92,-0.06 -46.37,-0.06 -39.13,-92.32 -77.97,-184.72 -116.98,-277.06 -7.93,-19.7 -17.14,-38.89 -24.27,-58.87 6.28,0.08 12.58,0.11 18.88,0.03 0,-45.22 0.18,-90.44 -0.1,-135.65 -87.02,-0.01 -174.04,0.05 -261.06,-0.03zm-100.03 146.19l0 0c0.04,27.71 -0.13,55.44 0.07,83.16 16.12,-0.1 32.22,-0.04 48.34,-0.04 -0.01,4.63 -0.01,9.26 0.14,13.9 13.31,-27.14 25.87,-54.66 38.84,-81.97 -4.08,-0.02 -8.14,-0.02 -12.2,0 -0.03,-5.03 -0.05,-10.04 -0.05,-15.05 -25.04,-0.02 -50.1,-0.02 -75.14,0z"/>
   <path class="fil3" d="M625.27 204.02c101.28,0.02 202.58,0.02 303.88,0 2.58,-0.3 4.95,0.73 6.72,2.59 22.28,20.53 44.77,40.86 67.05,61.41 -15.93,4.13 -31.39,9.97 -47.27,14.22 -4.28,1.95 -7.42,-2.23 -10.33,-4.67 -11.07,-11.26 -22.98,-21.65 -34.28,-32.69 -2.23,-2.5 -5.64,-2.91 -8.8,-2.89 -76.29,0.12 -152.59,0.02 -228.88,0.05 -7.27,-0.07 -14.57,0.5 -21.82,-0.25 -2.7,0.03 -3.72,-2.89 -5.13,-4.64 -6.83,-11.18 -13.64,-22.39 -21.14,-33.13zm542.15 851.39c12.95,-1.07 25.96,-0.3 38.94,-0.52 46.22,0.15 92.47,-0.38 138.69,0.35 27.8,0.18 55.64,-0.47 83.43,0.25 3.45,4.23 4.79,9.69 7.06,14.6 10.71,24.54 21.03,49.23 31.71,73.79 20.31,0.43 40.64,0.53 60.94,-0.12 12.13,-0.03 24.26,-0.25 36.38,0.17 -12.56,15 -25.79,29.43 -38.5,44.32 -2.86,3.21 -5.87,7.28 -10.73,6.67 -33.42,0.11 -66.87,-0.04 -100.28,0.01 -5.66,-0.35 -9.19,4.71 -13.18,7.84 -12.8,10.94 -25.54,21.96 -38.72,32.44 -0.54,-30.51 -0.1,-61.01 -0.24,-91.5 13.44,-0.03 26.85,0.05 40.28,-0.05 -7.87,-17.24 -15.59,-34.54 -23.5,-51.77 -56.43,0.02 -112.87,0.14 -169.3,-0.05 -13.81,-12.74 -29.26,-23.6 -42.98,-36.43zm129.69 -306.11c4.25,6.75 6.84,14.35 10.07,21.62 37.7,87.65 75.3,175.34 112.86,263.04 2.96,6.68 5.93,13.36 8.3,20.28 -26.06,-8.87 -51.53,-19.43 -77.59,-28.32 -17.41,-44.28 -35.64,-88.23 -52.89,-132.57 0.08,-38.31 -0.64,-76.63 -0.32,-114.95 0.23,-9.72 -0.97,-19.39 -0.43,-29.1zm-66.34 -2.71c21.8,-0.67 43.65,-0.75 65.45,-0.05 -42.72,100.18 -85.67,200.25 -128.46,300.4 -14.49,32.74 -31.19,64.45 -45.44,97.27 20.61,0.59 41.28,0.49 61.89,0.02 12.83,-0.87 25.68,-0.48 38.52,-0.45l-0.73 0.67c-13,11.61 -23.98,25.22 -36.1,37.69 -4.23,4.17 -7.75,9.28 -12.97,12.32 -6.06,1.02 -12.22,0.44 -18.32,0.5 -26.78,-0.04 -53.56,0.04 -80.34,-0.11 -3.51,0.07 -7.43,-0.15 -10.19,2.44 -15.89,12.86 -31.92,25.54 -48.06,38.08 -0.33,-30.55 -0.07,-61.1 -0.15,-91.66 13.3,0 26.58,-0.03 39.88,0.02 58.41,-132.34 116.52,-264.83 175.02,-397.14zm-589.1 -25.24c5.58,-0.22 11.16,-0.35 16.74,-0.3 47.18,0.37 94.35,-0.43 141.51,0.42 0.17,17.25 -0.1,34.53 0.13,51.8 -57.98,-0.08 -115.98,0.15 -173.98,-0.12 4.59,-17.44 10.15,-34.61 15.6,-51.8zm304.97 -25.86c15.3,-0.75 30.62,-0.13 45.93,-0.32 49.33,-0.03 98.66,0.02 147.99,-0.03 0.72,14.07 -0.37,28.13 -0.25,42.2l-0.57 0c-41.96,0 -83.94,0.07 -125.91,-0.04 -21.98,-14.56 -45.4,-26.94 -67.19,-41.81zm246.31 -28.3c67.24,0.15 134.51,-0.33 201.75,0.25 -10.71,12.72 -22.84,24.09 -34.2,36.2 -2.25,2.56 -5.24,4.48 -8.79,4.1 -32.87,-0.04 -65.76,0.03 -98.66,-0.05 -6.06,0.06 -12.21,-0.57 -18.21,0.6 -3.84,2.05 -6.76,5.38 -9.97,8.25 -10.56,9.66 -20.98,19.43 -31.76,28.83 -0.38,-26.06 -0.06,-52.12 -0.16,-78.18zm-599.39 -47.61c18.68,-0.01 37.37,0.19 56.05,-0.46 -0.17,18.92 0.35,37.87 -0.24,56.79 -3.19,14.57 -5.5,29.3 -8.25,43.97 -14.57,-13.13 -28.38,-27.04 -42.6,-40.54 -2.09,-2.24 -4.94,-4.48 -4.76,-7.87 -0.45,-17.29 0.15,-34.6 -0.2,-51.89zm284.93 -147.46c5.31,-4.24 12.34,-3.75 18.74,-3.69 15.55,0.34 31.14,-0.25 46.69,0.37 0.27,44.7 0.05,89.41 0.1,134.11 1.17,73.49 -0.5,147.01 0.97,220.48 0.03,44.92 -0.08,89.86 0.05,134.78 -20.93,0.35 -41.88,0.01 -62.81,0.08 -6.48,-0.57 -10.98,4.64 -15.56,8.34 -13.91,11.67 -27.43,23.9 -42.03,34.74 -0.08,-27.29 -0.05,-54.59 -0.05,-81.89 17.28,-0.01 34.53,0.02 51.79,-0.01 -0.02,-139.36 0.03,-278.7 -0.02,-418.05 -13.34,0.05 -26.67,0.01 -40.02,-0.04 13.58,-10.4 28.15,-19.39 42.15,-29.22zm67.03 -3.64c101.79,-0.5 203.58,0.02 305.36,-0.28 0.15,13.48 0.33,26.98 -0.12,40.48 -19.51,14.06 -39.6,27.33 -58.77,41.88 0.25,-12.62 0.04,-25.25 0.14,-37.86 -59.44,-0.1 -118.88,0.04 -178.31,-0.06 -22.39,-15.31 -45.79,-29.04 -68.3,-44.16zm-318.45 -3.91c3.12,-0.88 6.4,-0.75 9.62,-0.81 48.71,0.26 97.43,-0.09 146.14,0.18 -0.07,12.61 0.2,25.22 -0.17,37.84 -61.11,0 -122.23,0.18 -183.35,-0.09 6.39,-10.02 13.94,-19.22 20.81,-28.91 2.15,-2.88 4.16,-5.93 6.95,-8.21zm266.87 -181.53c19.06,1.02 38.25,-0.35 57.25,1.82 0.41,11.89 0.31,23.8 0.05,35.7 -19.11,0 -38.21,0 -57.32,0 0,-12.52 -0.02,-25.01 0.02,-37.52zm-253.46 -32.11c2.69,-2.64 5.6,-5.01 8.57,-7.33 1.34,13.09 0.89,26.29 2.41,39.37 0.5,47.99 0.18,96.02 0.15,144.02 -9.39,11.21 -15.65,24.72 -25.58,35.5 -10.77,-14.02 -21.45,-28.1 -32.45,-41.93 -2.38,-2.74 -3.95,-6.14 -3.7,-9.83 -0.05,-34.49 0.09,-69.01 -0.1,-103.52 0.17,-3.66 -0.4,-8.04 2.81,-10.63 15.67,-15.52 32.28,-30.07 47.89,-45.65z"/>
  </g>
 </g>
</svg>
