<?xml version="1.0" encoding="UTF-8"?>
<!DOCTYPE svg PUBLIC "-//W3C//DTD SVG 1.1//EN" "http://www.w3.org/Graphics/SVG/1.1/DTD/svg11.dtd">
<!-- Creator: CorelDRAW -->
<svg xmlns="http://www.w3.org/2000/svg" xml:space="preserve" width="2000px" height="1600px" version="1.1" style="shape-rendering:geometricPrecision; text-rendering:geometricPrecision; image-rendering:optimizeQuality; fill-rule:evenodd; clip-rule:evenodd"
viewBox="0 0 2000 1600"
 xmlns:xlink="http://www.w3.org/1999/xlink">
 <defs>
  <style type="text/css">
   <![CDATA[
    .fil1 {fill:#002375;fill-rule:nonzero}
    .fil0 {fill:#23357A;fill-rule:nonzero}
    .fil2 {fill:#FF5E15;fill-rule:nonzero}
   ]]>
  </style>
 </defs>
 <g id="Capa_x0020_1">
  <metadata id="CorelCorpID_0Corel-Layer"/>
  <g id="Syracuse_x0020_Orange.cdr">
   <path class="fil0" d="M676.33 80.03c213.26,0.07 426.53,0.1 639.79,-0.03l-0.15 2.78c-213.16,0.26 -426.33,0.33 -639.49,-0.05l-0.15 -2.7zm8.35 1437.99c23.1,-2.04 46.33,-0.48 69.48,-0.93 71.07,0 142.13,-0.03 213.22,0 76.08,1.73 152.18,0.78 228.26,1 43.4,-0.37 86.82,0.68 130.19,-0.53l0.42 2.36c-202.4,-0.05 -404.8,-0.02 -607.2,-0.02 -12.22,-0.25 -24.51,0.7 -36.68,-0.61l2.31 -1.27zm174.64 -482.09l2.35 -1.61c0.83,50.62 0.1,101.29 0.38,151.93 92.21,0.28 184.44,-0.45 276.65,0.38 -13.42,3.24 -27.24,2.11 -40.88,2.01 -79.4,-0.13 -158.76,0.32 -238.13,-0.23 -1.2,-50.79 -0.57,-101.66 -0.37,-152.48 -121.16,0.4 -242.34,-0.05 -363.52,0.25 -7.78,0 -15.53,-0.33 -23.25,-0.88 5.39,-3.59 12.16,-1.71 18.23,-2.11 113.71,0.15 227.44,0.03 341.14,0.08 9.69,0.07 19.39,-0.38 29.05,0.4l-1.65 2.26zm279.36 -75.08c4.59,24.68 1.33,49.97 1.9,74.93l-2.71 0.02c0.61,-24.98 -0.97,-50.04 0.81,-74.95zm389.38 -124.94l0.27 -2.34c1.56,8.78 0.83,17.74 0.96,26.62 -0.06,137.96 -0.03,275.92 -0.03,413.88 -0.45,14.7 1.05,29.53 -0.93,44.18l-0.3 -2.36c-1,-53.2 -0.15,-106.48 -0.43,-159.71 0.3,-106.76 -0.6,-213.54 0.46,-320.27zm-668.44 -421.94l2.4 -0.15c0,65.19 -0.02,130.36 0.03,195.53 -0.1,9.93 0.6,19.91 -0.73,29.77 -4.34,-18.84 -1.55,-38.25 -2.2,-57.37 0.35,-55.91 -0.81,-111.87 0.5,-167.78zm667.61 -127.45l1.48 -2.31c1.35,93.31 0.1,186.72 0.63,280.09l-2.76 -0.1c-0.63,-83.61 0,-167.21 -0.33,-250.84 -0.05,-8.96 -0.05,-17.91 0.98,-26.84zm-1055.74 -4.84l0.65 2.33c1.41,13.92 0.56,27.92 0.83,41.86 0.18,104.53 -0.17,209.05 0.05,313.58 0.05,41.71 -0.55,83.45 0.53,125.17l-2.91 0.45c0.15,-151.41 0.05,-302.81 0.07,-454.22 0.16,-9.73 -0.67,-19.52 0.78,-29.17z"/>
   <path class="fil1" d="M672.14 82.68c1.08,0 3.23,0.03 4.34,0.05 213.16,0.38 426.33,0.31 639.49,0.05 1.08,-0.02 3.26,-0.05 4.34,-0.05 17.21,17.26 33.46,35.7 52.8,50.65 22.4,21.9 43.95,44.67 66.63,66.25 9.5,6.29 16.63,15.2 24.58,23.17 18.76,17.16 36.04,35.85 54.33,53.48 2.98,3.29 6.85,6.05 8.58,10.24 -1.03,8.93 -1.03,17.88 -0.98,26.84 0.33,83.63 -0.3,167.23 0.33,250.84l0.05 2.53c-129.56,-0.05 -259.15,-0.02 -388.71,0 0.05,-51.02 0,-102.02 0.03,-153.01 -91.98,0.05 -183.94,-0.2 -275.93,0.1l-2.4 0.15c-1.31,55.91 -0.15,111.87 -0.5,167.78 0.65,19.12 -2.14,38.53 2.2,57.37 145.72,0.83 291.43,0.13 437.17,0.38 11.36,0.3 22.85,-0.93 34.16,0.58 40.99,40.18 81.25,81.17 121.99,121.65 24.33,24.84 49.74,48.72 73.42,74.18 -1.06,106.73 -0.16,213.51 -0.46,320.27 0.28,53.23 -0.57,106.51 0.43,159.71 -19.44,21.32 -40.71,40.96 -60.85,61.63 -43.02,43.09 -86.22,86.06 -129.14,129.26 -3.96,3.66 -7.29,8.33 -12.21,10.78 -43.37,1.21 -86.79,0.16 -130.19,0.53 -76.08,-0.22 -152.18,0.73 -228.26,-1 -71.09,-0.03 -142.15,0 -213.22,0 -23.15,0.45 -46.38,-1.11 -69.48,0.93 -12.49,-8.56 -20.89,-22.13 -33.74,-30.41 -19.14,-17.61 -36.75,-36.82 -55.46,-54.85 -28.42,-22.33 -50.69,-51.53 -79.01,-74.03 -13.47,-13.27 -26.72,-26.79 -40.16,-40.11 -3.87,-2.76 -2.86,-7.75 -3.16,-11.84 0.25,-81.97 -0.03,-163.95 0.15,-245.92 -0.15,-8.58 1.05,-17.58 -2.61,-25.66l1.86 0.1c7.72,0.55 15.47,0.88 23.25,0.88 121.18,-0.3 242.36,0.15 363.52,-0.25 -0.2,50.82 -0.83,101.69 0.37,152.48 79.37,0.55 158.73,0.1 238.13,0.23 13.64,0.1 27.46,1.23 40.88,-2.01l1.96 -0.4c-0.38,-50.14 -0.25,-100.29 -0.08,-150.45 -0.57,-24.96 2.69,-50.25 -1.9,-74.93 -157.18,-0.93 -314.38,-0.05 -471.56,-0.43 -60.78,-61.5 -122.16,-122.43 -183.31,-183.59 -3.31,-4.04 -8.98,-7 -10.26,-12.21 -1.08,-41.72 -0.48,-83.46 -0.53,-125.17 -0.22,-104.53 0.13,-209.05 -0.05,-313.58 -0.27,-13.94 0.58,-27.94 -0.83,-41.86 5.92,-7.98 13.67,-14.3 20.5,-21.45 59.8,-60 120.03,-119.57 179.5,-179.88zm3.26 31.46l0 0c-39.66,40.56 -80.7,79.77 -119.78,120.88 -19.19,16.76 -36.32,35.69 -54.78,53.23 -7.85,5.99 -5.39,16.58 -5.74,25.11 0.22,136.28 0.05,272.58 0.07,408.87 0.18,9.93 -0.57,19.94 0.55,29.85 3.47,7.09 9.96,12.04 15.3,17.66 35.6,34.64 69.94,70.53 105.93,104.75 21.25,20.44 40.99,42.61 63.09,62.03 161.27,1 322.58,-0.13 483.87,0.55 0.5,91 0.18,182.03 0.2,273.04 -32.96,0.88 -65.94,0.15 -98.9,0.38 -76.29,-0.18 -152.54,0.37 -228.8,-0.25 -0.27,-50.35 0.11,-100.67 -0.17,-151.01 -5.59,-0.78 -11.19,-1.68 -16.83,-1.71 -102.87,0.03 -205.74,0.03 -308.64,0 -4.66,0.05 -9.33,0.38 -13.99,0.83 0.17,80.29 0.15,160.59 0.1,240.88 0.07,3.09 0,6.58 2.78,8.63 15.25,15.7 31.96,29.9 47.51,45.3 46.96,45.83 94.72,90.83 141.58,136.76 3.66,4.54 9.55,5.77 15.12,5.54 201.6,-0.1 403.23,0.06 604.83,-0.07 4.89,0.4 9.15,-2.21 12.34,-5.7 59.95,-60.42 120.45,-120.3 180.75,-180.37 6.62,-5.6 3.24,-15.2 4.07,-22.71 -0.15,-144.68 0,-289.36 -0.05,-434.02 -0.05,-3.16 -0.18,-6.62 -2.96,-8.66 -23.58,-23.23 -46.51,-47.13 -70.64,-69.81 -35.19,-35.04 -70.31,-70.18 -105.38,-105.35 -3.13,-2.73 -6.22,-6.6 -10.86,-5.92 -159.78,-0.27 -319.59,0.35 -479.38,-0.32 -0.43,-91.46 -0.4,-182.94 0.15,-274.4 108.26,-0.63 216.53,-0.27 324.79,-0.17 0.7,51.14 0.32,102.29 0.17,153.44 4.59,0.55 9.18,0.95 13.8,1 96.17,-0.05 192.37,0 288.54,-0.03 13.12,-0.07 26.34,0.7 39.41,-1.1 -0.08,-80.17 -0.03,-160.36 0,-240.53 0,-3.21 -0.15,-6.75 -3.01,-8.81 -61.91,-60.12 -124.07,-120 -185.92,-180.2 -3.87,-3.26 -7.76,-7.85 -13.35,-7.17 -202.45,0 -404.91,0 -607.36,-0.3 -7.92,-1.43 -13.42,4.84 -18.41,9.88z"/>
   <path class="fil2" d="M675.4 114.14c4.99,-5.04 10.49,-11.31 18.41,-9.88 202.45,0.3 404.91,0.3 607.36,0.3 5.59,-0.68 9.48,3.91 13.35,7.17 61.85,60.2 124.01,120.08 185.92,180.2 2.86,2.06 3.01,5.6 3.01,8.81 -0.03,80.17 -0.08,160.36 0,240.53 -13.07,1.8 -26.29,1.03 -39.41,1.1 -96.17,0.03 -192.37,-0.02 -288.54,0.03 -4.62,-0.05 -9.21,-0.45 -13.8,-1 0.15,-51.15 0.53,-102.3 -0.17,-153.44 -108.26,-0.1 -216.53,-0.46 -324.79,0.17 -0.55,91.46 -0.58,182.94 -0.15,274.4 159.79,0.67 319.6,0.05 479.38,0.32 4.64,-0.68 7.73,3.19 10.86,5.92 35.07,35.17 70.19,70.31 105.38,105.35 24.13,22.68 47.06,46.58 70.64,69.81 2.78,2.04 2.91,5.5 2.96,8.66 0.05,144.66 -0.1,289.34 0.05,434.02 -0.83,7.51 2.55,17.11 -4.07,22.71 -60.3,60.07 -120.8,119.95 -180.75,180.37 -3.19,3.49 -7.45,6.1 -12.34,5.7 -201.6,0.13 -403.23,-0.03 -604.83,0.07 -5.57,0.23 -11.46,-1 -15.12,-5.54 -46.86,-45.93 -94.62,-90.93 -141.58,-136.76 -15.55,-15.4 -32.26,-29.6 -47.51,-45.3 -2.78,-2.05 -2.71,-5.54 -2.78,-8.63 0.05,-80.29 0.07,-160.59 -0.1,-240.88 4.66,-0.45 9.33,-0.78 13.99,-0.83 102.9,0.03 205.77,0.03 308.64,0 5.64,0.03 11.24,0.93 16.83,1.71 0.28,50.34 -0.1,100.66 0.17,151.01 76.26,0.62 152.51,0.07 228.8,0.25 32.96,-0.23 65.94,0.5 98.9,-0.38 -0.02,-91.01 0.3,-182.04 -0.2,-273.04 -161.29,-0.68 -322.6,0.45 -483.87,-0.55 -22.1,-19.42 -41.84,-41.59 -63.09,-62.03 -35.99,-34.22 -70.33,-70.11 -105.93,-104.75 -5.34,-5.62 -11.83,-10.57 -15.3,-17.66 -1.12,-9.91 -0.37,-19.92 -0.55,-29.85 -0.02,-136.29 0.15,-272.59 -0.07,-408.87 0.35,-8.53 -2.11,-19.12 5.74,-25.11 18.46,-17.54 35.59,-36.47 54.78,-53.23 39.08,-41.11 80.12,-80.32 119.78,-120.88z"/>
  </g>
 </g>
</svg>
