<?xml version="1.0" encoding="UTF-8"?>
<!DOCTYPE svg PUBLIC "-//W3C//DTD SVG 1.1//EN" "http://www.w3.org/Graphics/SVG/1.1/DTD/svg11.dtd">
<!-- Creator: CorelDRAW -->
<svg xmlns="http://www.w3.org/2000/svg" xml:space="preserve" width="2000px" height="1600px" version="1.1" style="shape-rendering:geometricPrecision; text-rendering:geometricPrecision; image-rendering:optimizeQuality; fill-rule:evenodd; clip-rule:evenodd"
viewBox="0 0 2000 1600"
 xmlns:xlink="http://www.w3.org/1999/xlink">
 <defs>
  <style type="text/css">
   <![CDATA[
    .fil1 {fill:#221F1F;fill-rule:nonzero}
    .fil2 {fill:#502D84;fill-rule:nonzero}
    .fil0 {fill:#FAFAFA;fill-rule:nonzero}
   ]]>
  </style>
 </defs>
 <g id="Capa_x0020_1">
  <metadata id="CorelCorpID_0Corel-Layer"/>
  <g id="TCU_x0020_Horned_x0020_Frogs.cdr">
   <path class="fil0" d="M1294.96 1363.99c3.95,-5.04 7.83,-10.53 13.3,-14.04 4.17,2.23 2.25,6.42 1.59,10.06 5.41,1.79 10.92,5.24 16.73,2.6 1.97,5.02 1.97,10.57 3.99,15.57 4.09,3.58 10.32,4.81 12.62,10.24 2.24,2.57 0.02,5.87 -0.23,8.76 -10.11,0.43 -18.75,6.85 -23.62,15.47 -2.23,-3.25 -3.83,-6.83 -4.53,-10.7 -2.6,-0.32 -5.17,-0.62 -7.72,-0.9 0.04,-7.1 1.53,-14.7 -3.28,-20.72 -3.77,3.45 -7,7.38 -10.47,11.11 -2.55,-0.51 -4.49,-1.96 -5.81,-4.36 3.17,-2.69 7.07,-4.71 9.41,-8.24 -0.45,-4.98 -2.83,-9.83 -1.98,-14.85zm34.4 51.94c1.68,-8.94 11.47,-11.64 19.3,-9.3 7.72,8.36 2.09,19.66 -3.68,27.42 -4.11,5.69 -9.94,9.73 -15.96,13.11 0.77,-10.19 10.11,-22.89 0.34,-31.23zm-475.64 -9c2.9,-5.17 9.73,-3.26 14.6,-3.85 1.59,3.7 3.28,7.48 3.34,11.59 0.68,12.26 2.72,24.39 5.62,36.3 -8.15,-5.51 -13.6,-13.6 -19.45,-21.26 -2.23,-7.38 -4.32,-15.04 -4.11,-22.78zm-52.34 3.12c4.77,-3.4 10.81,-4.06 16.26,-5.93 0.55,16.06 -0.92,33.13 7.57,47.59 -9.38,-6.1 -17.44,-14.12 -23.4,-23.59 -3.75,-5.3 -2.64,-12.41 -0.43,-18.07zm574 -2.44c6.32,-4.83 14.75,-6.85 22.56,-5.32 2.51,2.91 1.36,6.96 0.95,10.36 -2.08,13.72 -13.02,24.57 -25.53,29.64 3.21,-6.73 8.11,-13.15 8.26,-20.92 0.25,-5.36 -3.45,-9.61 -6.24,-13.76zm50.02 -5.92c5.3,-3.66 15.13,-3.66 18.28,2.73 -1.19,14.74 -11.74,27.85 -25.32,33.34 3.55,-7.79 8.68,-15.9 7.92,-24.71 -0.28,-3.68 -5.62,-8.85 -0.88,-11.36zm-674.12 2.68c2.1,-3.42 6.49,-3.17 9.93,-4.06 1.22,0.51 3.66,1.53 4.87,2.04 -2,17.6 3.58,34.79 12.6,49.7 -15.77,-5.17 -27.19,-20.48 -29.17,-36.76 -0.08,-3.66 -0.96,-7.94 1.77,-10.92zm437.21 6.75c1.6,-9.21 5.45,-20.53 15.74,-22.89 7.34,-2.41 15.58,2.02 17.07,9.7 -3.85,1.42 -8.32,2.7 -10.09,6.87 -8.95,13.02 -8.19,29.42 -12.55,44.08 -6.43,-11.42 -11.17,-24.46 -10.17,-37.76zm-193.51 -22.68c5.53,-0.83 11.7,-1.51 16.55,2 4.41,10.19 2.47,22.95 -5.08,31.19 -6.94,7.76 -15.98,13.19 -24.68,18.77 8.7,-15.52 21.27,-33.66 13.21,-51.96zm-475.36 -0.73c2.17,-3.63 6.95,-2.19 10.44,-2.91 8.09,6.3 2.56,15.98 0.68,23.87 -1.53,12.45 2.37,24.7 4.92,36.77 -12.41,-5 -19.17,-17.92 -22.09,-30.3 -2.44,-9.49 0.66,-19.55 6.05,-27.43zm41.68 -5.29c5.34,-0.28 11.49,0.55 14.55,5.55 0.19,5.06 0,10.19 -0.59,15.26 -1.73,10.57 0.89,21.19 0.19,31.82 -8.05,-6.91 -9.79,-17.97 -12.62,-27.61 -2.72,-8.09 -1.49,-16.71 -1.53,-25.02zm-90.24 -4.81c3.15,-3.17 7.07,-6.9 11.96,-5.81 6.62,0.94 13.77,8.25 10.32,15.21 -6.11,6.15 -14.17,9.9 -20.32,16.02 -4.79,6.26 -7.79,13.64 -11.34,20.62 -1.81,-15.51 -2,-33.87 9.38,-46.04zm763.13 -4.64c5.21,-3.24 10.09,-7.11 16.32,-8.15 0.49,1.79 1.47,5.36 1.94,7.13 7.02,-4.36 14.85,-5.77 22.85,-3.34 -1.47,5.78 -3,11.55 -3.98,17.44 -3.94,1.03 -7.81,2.2 -11.66,3.49 -2.87,-1.29 -5.92,-5.91 -9.06,-2.89 -3.68,2.89 -2.45,8.47 -5.39,11.87 -3.21,3.7 -8.46,3.77 -12.91,4.58 3.98,-14.75 -11.9,-23.17 -23.98,-25.47 5.83,-2.13 11.13,-5.43 16.08,-9.15 2.9,2.09 5.77,5.43 9.79,4.49zm-574.4 -4.68c3.38,-2.21 7.42,-3.02 11.25,-4.11 2.04,7.34 0.15,15.09 -1.7,22.26 -6.13,10.79 -17.7,16.89 -27.38,24.08 4.51,-10.36 12.95,-19.19 14,-30.85 1.02,-3.83 -0.28,-9.19 3.83,-11.38zm291.08 -3.17c4.98,-1.3 9.47,-3.83 13.13,-7.43 7.15,3.94 15.26,5.39 23.34,5.32 7.15,-0.96 9.3,7.64 12.06,12.53 4.71,0.62 9.05,2.56 11.11,7.07 -8,-2.53 -16.98,-2.3 -24.72,0.93 -6.28,2.28 -5.73,9.45 -6.9,14.88 -5.27,-3.9 -10.76,-7.49 -16.55,-10.56 3.02,-3.98 1.6,-8.21 -0.23,-12.25 -3.26,0.06 -6.49,0.17 -9.73,0.4 -0.87,4.15 -2.06,10.02 -7.66,9.56 -10.68,0.91 -9.59,-13.05 -9.66,-20.22 2.37,-2.59 4.75,-5.15 7.2,-7.66 3.1,2.17 5.97,4.68 8.61,7.43zm398.05 -5.73c4.53,-1.57 9.06,-3.23 13.76,-4.29 1.96,3.27 2.19,8.55 5.94,10.3 11.96,2.29 18.38,15.65 18.23,26.97 -7.53,4.34 -16.57,6.41 -21.02,14.62 0.43,-5.08 2.45,-10.23 1.17,-15.34 -1.23,-7.34 -8.26,-11.53 -10.72,-18.3 -1.7,-5.04 -4.58,-9.49 -7.36,-13.96zm44.08 -6.53c3.45,-0.02 8.79,-1.49 9.92,3.19 2.17,6.11 6.02,13.28 13.8,10.81 0.39,4.15 0.79,8.3 1.32,12.45 4.09,1.17 8.22,2.3 12.32,3.51 0.13,1.74 0.41,5.26 0.53,7 -7.17,0.23 -13.23,4.13 -19.02,7.92 -0.1,-4.52 1.24,-9.32 -0.32,-13.64 -2.89,-2.88 -6.53,-4.81 -9.66,-7.32 -5.68,-3.49 -4.38,-11.07 -6,-16.62 1.05,-0.06 3.15,-0.19 4.22,-0.25 -4.07,-0.28 -5.26,-4.17 -7.11,-7.05zm-500.36 11.81c3.53,-3.68 4.55,-8.51 5,-13.38 5,2.57 7.17,8.3 12.02,11.17 3.21,-1.94 6.47,-3.85 9.72,-5.72 0.34,8.48 5.36,21.31 -4.64,25.97 -2.27,1.43 -4.57,2.83 -6.87,4.26 -3.15,-7.3 -10.62,-9.79 -17.98,-10.32 0.17,5.75 3.37,10.57 5.05,15.89 -2.24,5.39 -6.58,9.43 -11.28,12.66 -3.04,-3.66 -5.81,-9.21 -11.32,-9.02 -5.7,0.88 -11.21,2.66 -16.94,3.45 -1.63,-5.02 -3.74,-10.4 -0.8,-15.41 1.68,0.11 5.08,0.3 6.76,0.41 4.39,-9.87 16,-12.77 20.77,-22.36 3.76,-0.62 7.3,0.42 10.51,2.4zm-107.83 -10.85c6.57,1.41 13.04,-1.51 19.55,-0.72 -1.79,9.29 -11.32,13.02 -17.62,18.72 -2.93,7.75 -8.21,14.87 -8.12,23.47 -6.19,-1.38 -12.66,-1.73 -18.96,-0.83l-2.21 4.17c-0.6,-1.98 -1.17,-3.96 -1.73,-5.89 3.02,-0.54 6.07,-1 9.13,-1.43 0.02,-4.19 -0.34,-8.4 0,-12.55 0.83,-3.64 5.32,-3.32 8.09,-4.15 0.93,-8.51 7.87,-13.79 11.87,-20.79zm52.83 -2.7c8.27,0.23 16.53,1.06 24.55,3.25 -4.06,5.64 -7.96,11.51 -13.19,16.13 -5.66,3.96 -12.94,6.62 -16.04,13.28 -3.53,7.4 2.7,14.76 2.29,22.4 -4.89,-2.02 -8.25,-6.12 -11.85,-9.81 -6.76,-0.21 -12.29,3.75 -17.7,7.24 -4.44,-4.9 -6.93,-12.36 -3.76,-18.56 3.27,-5.53 8.51,-11.87 15.76,-10 2,-2.49 3.62,-5.23 5,-8.08 3.13,-0.28 6.28,-0.43 9.41,-0.94 1.85,-2.72 1.68,-8.38 6.42,-6.53 -0.32,-2.81 -0.64,-5.62 -0.89,-8.38zm-295.88 -5.04c6.88,0.29 13.75,-0.15 20.58,-0.83 -3.64,3.02 -7.19,6.1 -10.77,9.21 -1.55,-0.26 -4.63,-0.77 -6.17,-1.02 -0.17,9.25 -1.25,18.44 -2.06,27.68 -5.77,-3.04 -12,-4.96 -18.55,-5.06 -0.13,-2.71 -0.13,-5.37 0,-8.03 2.68,-3.19 6.38,-5.29 9.04,-8.44 2.77,-4.45 4.91,-9.24 7.93,-13.51zm-25.89 -4.54c2.43,-0.29 4.87,-0.42 7.34,-0.4 -1.83,3.6 -3.85,7.11 -5.87,10.64 -2.08,0.74 -4.17,1.51 -6.23,2.3 0,1.55 0,4.68 0,6.25 -2.75,-0.13 -5.47,-0.21 -8.2,-0.3 0.2,4.17 0.45,8.39 0.86,12.58 -4.18,-3.24 -8.98,-5.43 -13.94,-7.13 2.25,-1.62 4.53,-3.17 6.83,-4.7 0.79,-4.02 2.08,-7.92 4.66,-11.15 7.3,3.94 10.04,-4.17 14.55,-8.09zm135.43 -5.7c1.66,-0.38 3.34,-0.68 5.04,-0.91 2.26,6.61 8.34,10.29 13,15.06 -0.51,1.94 -1.51,5.83 -2.02,7.77 -6.09,2.78 -12.6,4.55 -18.6,7.55 -4.74,2.53 -6.87,-4.45 -9.13,-7.13 -0.7,0.3 -2.1,0.87 -2.8,1.17 -0.05,-1.7 -0.15,-5.13 -0.19,-6.83 -5.3,2.71 -12.28,4.58 -13.81,11.21 -0.83,3.84 -5.73,3.24 -8.43,4.86 -2.49,-3.6 -4.11,-7.66 -5.4,-11.79 -4.79,4.87 -8.24,11.04 -7.47,18.13 -3.64,4.74 -10.13,3.57 -14.64,6.95 -5.06,-4.83 -12.47,-6.8 -18.98,-3.83 -1.51,-2.31 -3,-4.63 -4.44,-6.95 4.48,-1.24 4.08,-5.75 5.04,-9.3 4.72,-2.15 10.19,-3.77 11.15,-9.7 5.76,0.49 8.02,-7.09 13.74,-6.58 6.32,-0.06 12.83,-0.72 18.04,-4.66 3.32,0.11 6.64,0.19 9.96,0.3 0.55,2.49 1.11,4.98 1.68,7.51 4.36,-2.74 8.62,-5.74 11.81,-9.83 5.89,0.41 10.55,-4.49 16.45,-3zm89.93 -35.68c5.64,-7.19 15.24,-7.89 23.17,-4.36 -0.72,2.28 -1.51,4.53 -2.42,6.76 -3.32,0.94 -6.77,1.2 -10.17,1.71 -0.83,-1.05 -2.49,-3.15 -3.32,-4.19 -1.81,0.02 -5.43,0.06 -7.26,0.08zm-95.04 -59.66c6.43,-2.96 -0.08,7.15 0,0zm648.62 -203c5.79,-6.23 14.74,-6.98 22.72,-7.53 1.02,9.42 -6,16.4 -10.15,24.08 -1.72,2.62 -3.74,6.2 -7.34,6.09 -3.93,-4.23 -6.87,-9.26 -10.4,-13.81 -6.58,5.43 -9.98,13.36 -14.66,20.28 -3.98,-3.19 -7.81,-6.51 -11.6,-9.9 -3.57,3.15 -7.06,6.39 -10.44,9.73 -7.88,-1.66 -15.3,-4.94 -23.13,-6.7 -5.32,2.34 -9.62,6.57 -14.43,9.8 -7.4,-2.42 -14.83,-4.74 -22.23,-7.1 -5.07,4.93 -10,10 -15.26,14.72 -4.66,-2.21 -9.34,-4.4 -14,-6.59 -10.25,3.51 -17.8,12.21 -28.42,14.8 7.42,-8.15 16.23,-14.83 24.4,-22.15 7.36,1.15 9.75,-7.8 16.64,-8.12 12.02,-2.51 24.15,-4.56 36.04,-7.71 14.39,-1.85 29,-1.38 43.47,-2.36 5.51,1.66 11.11,3.05 16.45,5.28 4.13,-2.04 7.38,-5.36 10.91,-8.23 4.11,-0.64 8.49,-1.3 11.43,-4.58zm-826.04 -8.7c6.87,12.79 8.17,28.45 18.1,39.57 12.94,14.62 22.17,31.96 33.55,47.73 1.49,-4.03 3,-8.05 4.54,-12.02 6.72,15.17 17.36,28.17 29.08,39.74 3.34,3.21 6.62,6.57 8.68,10.79 -13.1,-1.58 -25.32,-6.88 -37.55,-11.53 4.32,7.78 7.53,16.1 8.6,25 -3.43,-0.32 -6.83,-0.71 -10.22,-1.26 -3.7,1.13 -7.51,0.87 -10.76,-1.3 -6.56,-0.76 -13.15,-0.85 -19.73,-0.66 4.45,6.05 10.37,11.09 13.73,17.9 2.91,8.25 0.81,16.98 -4.17,23.98 -10.85,-12.41 -19.88,-26.54 -25.37,-42.13 3.77,0.1 7.56,0.38 11.35,0.57 -9.69,-18.68 -19.39,-37.81 -22.54,-58.85 -3.95,-25.64 -4.59,-52.42 2.71,-77.53zm613.95 -45.13c-5.68,-8.51 -7.72,-19.04 -5.06,-29 4.38,3.94 8.42,8.28 11.66,13.21 -2.02,5.34 -4.13,10.64 -6.6,15.79zm259.62 -162.96c11.17,16.54 20.6,34.17 31.36,50.96 -7.13,-0.51 -14.23,-1.28 -21.32,-2.15 -2.76,-16.38 -6.64,-32.55 -10.04,-48.81zm-482.64 -674.34c77.3,-3.1 154.73,-3.4 231.96,1.04 49.6,49.05 98.26,99.05 147.76,148.18 -0.17,14.95 -0.4,29.91 0.45,44.87 0.13,33.38 0,66.76 0.05,100.15 -51.22,-5.17 -102.32,-12 -153.77,-14.62 0.34,-20.49 -0.47,-40.96 -0.62,-61.43 -19.61,-20.63 -39.95,-40.55 -59.49,-61.23 -32.91,-2.7 -65.96,-1.3 -98.91,-1.77 -20.24,19.77 -40.43,39.58 -59.53,60.45 -0.54,93.77 -1.68,187.53 -2.75,281.3 15.11,14.04 29.3,29.02 44.06,43.42 41.58,-0.4 83.24,-1.61 124.75,1.35 17.08,-17.47 34.66,-34.47 51.45,-52.24 0,-23.51 0,-47.02 0,-70.53 51.29,2.66 102.21,9.64 153.19,15.62 0,42.29 0,84.57 0,126.85 -11.19,10.81 -21.79,22.19 -32.83,33.15 -1.36,-6.2 -2.79,-12.39 -3.85,-18.62 6.21,-7.89 13.91,-14.41 20.76,-21.68 -0.15,-35.07 -0.02,-70.15 -0.06,-105.21 -40.32,-5.03 -80.66,-9.81 -121.15,-13 -0.13,20.21 -0.17,40.44 0.02,60.66 -20.83,20.61 -40.81,42.06 -61.91,62.4 -45.45,-5.23 -91.26,-2.89 -136.85,-2.19 -17.88,-17.6 -35.79,-35.13 -53.49,-52.9 0.19,-98.21 2.19,-196.38 2.55,-294.59 21.45,-24.68 45,-47.45 68.51,-70.15 35.85,0.4 71.81,-1.21 107.62,1.43 5.29,-0.49 8.81,3.72 12.21,7.06 20.51,21.1 41,42.23 61.74,63.1 0.71,17.79 0.58,35.6 0.56,53.39 40.53,2.64 80.87,7.59 121.25,11.89 0.17,-39.87 1.26,-79.79 0.07,-119.68 -45.71,-46.1 -91.75,-91.92 -137.41,-138.04 -1.46,-1.07 -3.13,-1.58 -5,-1.53 -71.27,-4.32 -142.76,-3.83 -214.1,-0.79 -46.43,47.38 -93.11,94.53 -139.81,141.64 -0.28,34.06 1.4,68.13 0.06,102.19 0.11,83.7 -1.25,167.38 -1.13,251.08 -0.19,13.58 -1.02,27.15 -0.38,40.73 0.04,4.91 4.49,7.98 7.4,11.36 17,16.4 32.96,33.81 49.83,50.32 18.3,19.36 37.75,37.62 55.6,57.38 -3.11,-2.23 -6.15,-4.55 -9.23,-6.78 0.76,7.65 1.93,15.27 2.8,22.95 -39.97,-40.72 -80.1,-81.32 -119.87,-122.23 -4.13,-8.75 -2.25,-18.9 -2.68,-28.28 1.02,-32.53 0.41,-65.11 0.55,-97.64 1.15,-56.76 -0.04,-113.57 1.6,-170.32 0.02,-39.66 -0.23,-79.32 0.55,-118.95 49.13,-49.9 98.56,-99.47 147.47,-149.56zm-353.53 49c63.3,-14.1 127.23,-25.15 191.43,-34.32 5.48,22.47 2.23,45.9 2.4,68.77 0.38,64.08 -0.83,128.13 -0.49,192.19 -48.47,8.85 -97.13,16.66 -145.3,27.07 0.05,-33.86 0.05,-67.73 0,-101.58 -22.06,5.06 -44.59,8.7 -65.98,16.43 0,34.02 0.49,68.06 -0.49,102.06 0.47,97.83 -0.74,195.64 -0.51,293.47 27.39,-7.94 54.58,-16.6 82.43,-22.77 3.23,54.98 -1.41,110.07 1.45,165.04 -109.28,30.07 -213.73,75.26 -314.64,126.43 -0.64,-59.32 1.04,-118.62 0.34,-177.96 24.7,-13.3 51.12,-22.93 76.68,-34.4 0.25,-40.72 -0.53,-81.47 0.55,-122.19 0,-95.15 0,-190.32 0,-285.47 -21.93,5.85 -42.96,14.45 -64.3,22.11 -0.06,35.53 -0.91,71.06 -0.59,106.61 -53.81,18.98 -105.15,44.05 -156.92,67.9 -0.55,-33.47 -1.06,-66.98 0,-100.45 0.22,-28.36 -0.53,-56.75 0.51,-85.09 0.13,-33.1 -0.17,-66.21 0.15,-99.32 127.05,-53.1 258.79,-94.95 393.28,-124.53zm-377.43 135.75l0 0c0.39,82.7 -0.91,165.38 -0.55,248.08 41.26,-18.89 82.36,-38.34 125,-53.98 0.3,-34.51 -0.62,-69.04 0.53,-103.53 2.64,-2.21 5.07,-4.89 8.39,-6.08 29.06,-10.39 57.76,-22.49 88.34,-27.75 0.06,38.07 0.55,76.15 -0.45,114.22 0.04,107.97 0,215.95 0.02,323.93 -25.34,12.26 -51.83,21.92 -77.15,34.17 0.04,47.21 -0.04,94.43 0.04,141.64 90.41,-45.23 184.15,-84.3 281.37,-112.32 -1.88,-44.04 1.66,-88.06 0.17,-132.11 -28.2,6.64 -55.49,16.56 -83.66,23.28 0.61,-69.45 0.51,-138.91 0.44,-208.36 1.24,-68.77 0.15,-137.55 0.68,-206.32 0.2,-4.74 0.45,-9.49 0.71,-14.23 29.42,-11.07 60.61,-15.71 90.98,-23.26 2.27,3.04 6.85,5.28 6.57,9.64 0.15,30.3 -0.02,60.62 0.04,90.91 37.47,-7.46 75.13,-13.83 112.71,-20.68 0.97,-30.38 0.44,-60.81 0.55,-91.23 1.02,-45.87 0.23,-91.79 1.06,-137.66 -190.57,27.28 -377.96,77.79 -555.79,151.64zm1124.56 -166.45c93.66,11.83 186.23,31.04 278.06,52.68 3.3,55.21 -1.45,110.53 0.6,165.79 -20.58,-4.94 -41.13,-9.98 -61.66,-15.04 -2.72,49.59 -1.34,99.27 -1.68,148.93 0,60.26 0.02,120.51 0,180.77 -0.47,4.53 2.47,8.25 4.51,12.02 13.64,23.62 27.64,47.04 42.32,70.04 32.96,10.22 64.89,23.43 96.91,36.26 16.98,-14.79 33.98,-29.55 50.98,-44.32 1.36,-55.79 -0.3,-111.64 0.83,-167.43 0.58,-59.36 -0.42,-118.72 0.68,-178.06 -17.4,-6.02 -34.66,-12.41 -52.04,-18.45 0.32,-55.72 0.64,-111.42 0.47,-167.15 93.12,30.28 185.85,62.66 274.47,104.62 -0.26,58.81 -2.96,117.62 -1.58,176.43 -21.42,-11.05 -43.08,-21.69 -65.27,-31.07 -0.35,72.66 -1.45,145.32 -1.96,217.98 -0.53,44.81 -0.15,89.64 -0.96,134.45 -1.19,2.3 -3.55,3.74 -5.32,5.55 -59.32,51.47 -118.89,102.62 -178.26,154.02 -70.12,-35.49 -143.97,-63.32 -219.19,-85.91 -5.23,-8.43 -10.23,-17 -15.44,-25.45 2.19,-5.89 4.31,-11.81 6.29,-17.79 -6.02,-0.55 -12.06,-0.78 -18.04,-1.44 -19.98,-34.02 -40.91,-67.47 -60.91,-101.47 -5.7,-12.68 -10.45,-25.79 -17,-38.06 -4.71,-7.92 -2.24,-17.45 -2.3,-26.11 0.62,-123.62 1.42,-247.24 2.3,-370.83 -18.45,-3.83 -37.26,-5.39 -55.64,-9.55 -2.07,-5.62 -4.07,-11.41 -3.43,-17.49 0.96,-16.32 0.36,-32.69 0.54,-49.03 1.44,-31.61 -0.64,-63.29 1.72,-94.89zm15.32 18.38l0 0c-1.41,42.96 0.49,85.96 -1.45,128.92 19.62,3.76 39.66,5.28 58.94,10.81 -0.24,93.08 -1,186.15 -1.62,279.21 0.32,43.87 -1.36,87.77 -0.26,131.62 9.73,18.06 21.15,35.25 31.54,52.98 23.49,38.87 46.74,77.87 70.53,116.57 70.42,21.28 139.57,47.32 205.53,80.04 56.77,-49.04 113.7,-97.91 170.3,-147.17 0.15,-110.61 1.53,-221.19 2.64,-331.79 0,-12.57 -0.32,-25.19 0.68,-37.74 21.66,8.89 43.25,18.06 64.15,28.68 -0.3,-46.51 1.7,-93 1.66,-139.51 -78.24,-36.3 -159.51,-65.55 -241.47,-92.17 -0.81,44.21 -0.38,88.47 -0.55,132.72 17.14,6.39 34.46,12.3 51.63,18.62 -0.02,24.15 -0.04,48.3 0,72.45 -1.3,58.42 0.13,116.89 -0.81,175.32 -0.55,38.78 -0.19,77.59 -0.19,116.4 -21.27,18.87 -42.95,37.26 -64.3,56.07 -36.68,-14.52 -73.04,-30 -110.85,-41.47 -16.14,-25.36 -31.63,-51.11 -46.63,-77.15 -2.45,-4.49 -5.94,-8.92 -5.45,-14.32 0.02,-63.83 0,-127.66 0.02,-191.49 0.15,-54.34 -0.89,-108.68 2.15,-162.96 20.21,4.7 40.34,9.87 60.57,14.6 -0.74,-43.92 2.36,-87.83 0.49,-131.75 -81.7,-19.27 -164.06,-36 -247.25,-47.49zm-130.64 588.52c9.42,-21.67 19.21,-43.15 28.68,-64.79 9.87,28.25 22.45,55.55 31.06,84.23 12.2,-6.7 23.07,-15.47 34.62,-23.21 3.19,4.04 8.55,7.42 8.17,13.21 -0.57,5.26 6.41,5.66 9.41,8.45 -1.71,0.15 -5.15,0.49 -6.88,0.66 -0.25,14.08 0.94,28.13 1.51,42.19 6.26,-9.06 9.36,-19.68 14.02,-29.53 10.22,1.1 20.26,3.36 30.45,4.64 2.92,-8.64 6.41,-17.07 10.06,-25.41 8.79,32.15 12.92,65.72 10.47,99.04 4.92,0.13 9.88,0.22 14.81,0.58 3.81,3.45 7.81,6.68 11.83,9.91 -2.89,17.19 -7.79,34 -10.76,51.17 -0.79,2.96 -0.2,5.96 0.42,8.9 3.32,-9.66 5.28,-20.41 13,-27.73 6.62,-9.7 14.28,-20.76 13.04,-33.04 4.96,3.13 13.28,4.96 14.54,11.15 -3.77,13.47 -9.79,26.19 -13.9,39.55 -1.15,9.02 -0.27,18.17 -0.42,27.26 2.95,-2.09 5.83,-4.28 8.76,-6.38 -3.49,11.12 -4.23,23.21 -9.66,33.63 -4.47,4.17 -8.12,8.98 -10.61,14.6 -7.09,1.91 -14.58,1.28 -21.73,2.89 -17.1,2.92 -32.74,10.85 -47.59,19.49 -48.39,-2.02 -97,8.98 -140.66,29.66 -6.58,3.36 -14.71,3.96 -19.68,9.96 -16.3,15.83 -37.98,23.62 -58.03,33.36 -18.57,6.77 -39.55,6.98 -58.44,1.41 -10.22,-2.24 -15.21,-12.11 -21.85,-19.09 -1.34,0.17 -4.05,0.53 -5.39,0.7 -4.78,-7.47 -13.76,-7.44 -21.63,-8.02 -3.66,3.45 -7.41,6.79 -11.2,10.13 -3.23,-12.04 -6.66,-24.21 -6.51,-36.79 -2.85,-0.66 -5.74,-3.36 -8.68,-1.66 -10.27,4.05 -20.36,8.6 -30.68,12.58 -2.3,-5.36 -3.55,-11.05 -4.19,-16.81 -3.4,-2.85 -6.94,-5.53 -10.51,-8.09 -8.17,22.26 -21.21,42.56 -37.77,59.49 -0.08,4.11 -0.19,8.22 -0.29,12.34 11.91,-4.89 21.19,-14.19 28.48,-24.57 1.32,0.13 3.94,0.34 5.26,0.45 3.98,-3.43 8.17,-7.09 13.53,-7.96 4.87,-0.21 9.64,1.06 14.49,1.34 4.9,-1.11 9.58,-2.96 14.34,-4.49 -0.78,8.53 -3.1,16.83 -4.27,25.32 -0.69,13.7 -1.41,27.49 0.08,41.19 7.11,-7.04 12.26,-15.81 19.64,-22.62 4.68,-4.76 10.77,-7.68 16.45,-11.04 2.17,-7.87 10.59,-11.4 13.74,-18.96 1.24,5.85 0.13,12.79 4.21,17.64 5.92,4.21 13.24,5.7 20.11,7.7 0.53,1.32 1.55,3.96 2.06,5.28 5.05,0.43 10.34,-0.72 15.15,1.32 10.58,4.21 21.87,6.59 33.24,7.08 3.1,-0.95 3.93,-4.74 5.91,-7 4.38,3.83 8.79,7.69 13.07,11.64 18.04,-19.3 43.74,-30.81 70.14,-31.57 26.03,-4.09 52.15,-8.3 78.58,-8.21 30.66,0.46 61.34,2.74 91.64,7.57 3.66,0.42 7.06,1.89 10.42,3.43 8.09,-10.77 18.47,-19.45 27.79,-29.07 7.47,-8.53 11.36,-19.38 15.34,-29.81 5.64,6.07 1.81,15.07 5.53,22.13 -5.91,11.28 -16,20.19 -19.61,32.68 -6.13,15.19 -19.73,25.49 -28.9,38.75 -35.51,-4 -71.7,-3.58 -106.72,4.02 -16.87,5.59 -33.81,11.04 -50.94,15.78 -28.45,6.15 -57.51,13.2 -86.81,9.58 -24.51,-1.81 -47.46,-11.06 -70.49,-18.96 -11.06,-3.72 -20.85,-10.23 -31.72,-14.38 -5.19,21.04 -10.28,42.17 -14.81,63.38 8.83,-4.42 17.02,-9.96 25.43,-15.1 1.61,8.38 3,16.85 5.27,25.08 13.05,-3.15 25.11,-9.47 38.35,-11.94 1.82,14.11 2.34,28.32 4.31,42.41 8.07,-5.51 15.34,-12.13 23.45,-17.58 4.72,-2.06 10.11,-2.34 14.79,-4.61 14.15,-6.56 29.32,-10.37 43.87,-15.81 33.6,-16.7 71.3,-22.19 108.17,-26.51 10.77,-1.41 21.79,-0.34 32.32,-3.38 1.21,9.7 0.62,20.02 -3.04,29.14 -7.32,12.73 -14.68,25.47 -21.28,38.6 21.98,-12 42.66,-26.34 61.94,-42.28 12.46,-12.38 23.51,-26.17 36.74,-37.78 13.49,-15.45 28.26,-29.73 42,-44.96 3.58,2.83 6.68,6.42 10.79,8.53 3.59,0.57 7.25,0.85 10.89,1.3 2.85,4 4.77,9.89 10.19,11.02 4.51,1.32 8.6,3.74 12.81,5.83 -0.04,4.45 0.26,8.93 -0.27,13.4 -1.77,4.19 -5.39,7.87 -5.24,12.71 -0.04,9.17 -0.25,18.36 0.43,27.53 5.08,1.13 10.32,1.1 15.51,0.72 0.25,-2.85 0.64,-5.66 1.15,-8.42 4.74,-4.03 10.76,-6.07 16.66,-7.81 -2,7.42 -3.88,14.89 -1.98,22.61 2.15,-0.59 6.42,-1.76 8.57,-2.36 -9.76,17.77 -22.59,33.51 -34.42,49.9 4.19,0.36 8.4,0.66 12.64,1.12 -10.56,9.39 -21,18.96 -30.2,29.75 1.51,4.17 3.11,8.32 4.81,12.47 2.13,-2.43 4.19,-4.9 6.24,-7.39 1.17,1.19 2.36,2.39 3.55,3.6 -8.3,4.68 -14.23,12.45 -22.51,17.19 -10.49,9.15 -22.9,17.83 -27.66,31.51 -6.11,0.11 -12.64,5.58 -18.06,0.79 -6.41,-4.77 -15.11,-5.81 -22.45,-2.66 -7.92,2.49 -12.58,10.49 -20.66,12.51 -5.73,7.25 -14.81,0.89 -20.7,-2.96 -2.45,0.13 -4.88,0.26 -7.28,0.41 -3.15,-1.64 -6.4,-3.11 -9.91,-3.75 -4.75,-5.04 -8.49,-10.91 -11.58,-17.06 3.51,-6.04 9.21,-10.05 15.34,-13.09 1.15,-8.04 -3.28,-14.79 -6.06,-21.89 8.42,-6.17 18.13,-10.32 26.66,-16.32 16.63,-11.7 32.93,-23.85 49.29,-35.89 -6.34,-9.11 -15.02,-16.05 -22.59,-24.02 -1.62,8.36 -2.19,16.87 -2.49,25.38 -1.15,0.42 -3.43,1.27 -4.55,1.7 -0.6,0.85 -1.79,2.57 -2.39,3.43 -6.55,3.27 -12.91,6.97 -19.83,9.51 -0.23,-1.54 -0.72,-4.58 -0.97,-6.11 -4.56,-0.87 -9.17,-1.51 -13.79,-0.96 -5.92,-6.49 -14.81,-7.23 -22.7,-9.7 -1.13,0.45 -3.37,1.38 -4.47,1.83 5.81,7.45 11.64,14.92 17.08,22.64 -2.17,3.08 -4.38,6.13 -6.61,9.15 -1.58,-0.22 -4.73,-0.66 -6.28,-0.88 -4.47,8.35 -12.6,13.32 -20.11,18.6 4.53,1.47 9.28,2.45 13.58,4.58 4.72,2.38 5.36,8.12 6.68,12.65 -2.98,1.77 -5.94,3.56 -8.9,5.35 -7.59,-0.54 -13.8,4.44 -20.27,7.59 4.02,5.41 8.7,10.26 13.25,15.21 -26.51,34.05 -69.59,51.79 -111.89,54.64 -21.87,2.58 -42.21,-8.44 -63.79,-9.49 -3.85,-0.34 -7.7,-0.72 -11.51,-1.13 -1.17,-4.48 -2.23,-9.14 -5.15,-12.87 -3.49,-5.44 -10.1,-7.1 -15.25,-10.42 -5.22,-4.11 -7.41,-11.17 -12.79,-15 -15.19,0.85 -30.28,3.57 -45.53,3.47 2.93,-3.3 6.06,-6.45 9.17,-9.6 -3.13,-0.06 -6.24,-0.15 -9.34,-0.19 -3.22,-6.28 -10.85,-7.62 -15.36,-12.7 2.08,-2.79 4.25,-5.49 6.46,-8.18 -2.4,-3.17 -5.32,-6.29 -5.78,-10.42 1.49,-2 3.08,-3.87 4.81,-5.64 1.1,-4.51 2,-9.08 2.66,-13.66 6.36,-7.53 16.85,-8.32 25.99,-7.08 1.58,-11.39 -1.19,-22.3 -6.36,-32.37 0.02,-2.29 0.07,-4.57 0.09,-6.85 -2.94,-2.7 -3.3,-6.72 -4.28,-10.34 -3.66,-2.95 -7.38,-5.8 -11.1,-8.63 -0.94,9.95 -0.83,19.95 -0.73,29.95 -0.93,-0.15 -2.83,-0.42 -3.78,-0.57 0.21,5.91 0.53,11.85 0.72,17.79 -3.11,1.8 -6.11,3.8 -9.38,5.34 -1.52,-1.75 -2.94,-3.54 -4.28,-5.34 -4.79,-0.56 -9.58,-1.15 -14.36,-1.62 3.72,7.62 10.38,14.57 7.12,23.83 -2.85,-3.34 -1.36,-8.64 -5,-11.34 -2.93,-2.77 -6.1,-5.26 -9.14,-7.85 -1.41,5.04 -2.9,10.04 -4.56,15.02 -4.64,-6.6 -5.49,-15.32 -12.15,-20.53 -3.08,0.06 -6.19,0.15 -9.25,0.23 0.34,5.06 0.72,10.15 1.21,15.23 3.34,3.88 2.92,9.26 3.87,13.98 -1.85,2.3 -3.61,4.64 -5.38,7 -10.15,3.73 -12.89,14.81 -15.09,24.22 6,-3.32 12,-6.68 17.58,-10.71 6.91,-2.27 12.91,-7.1 20.51,-7.15 -0.87,2.35 -1.74,4.71 -2.64,7.09 1.34,1.62 2.7,3.25 4.05,4.89 4.65,-3.23 9.29,-6.46 14.16,-9.38 0.58,5.79 -1.68,11.09 -6.85,13.98 -0.19,3.43 -0.29,6.85 -0.4,10.32 4.55,-0.06 9.59,-2.51 13.94,-0.38 4.36,4.44 10.31,9.85 8.02,16.8 -6.43,-2.98 -12.11,-8.06 -18.34,-11.7 -12.2,-3.42 -24.98,-0.72 -34,8.26 -9.03,-4.68 -19.6,-3.94 -28.9,-7.73 -4.32,-1.76 -8.59,-3.63 -12.91,-5.36 0.1,1.21 0.32,3.62 0.42,4.81 -3.72,0.77 -7.4,1.85 -10.64,3.87 -4,-0.08 -7.97,-0.36 -11.95,-0.66 0,-5.46 0.44,-10.95 -0.22,-16.38 -5.55,-4.94 -13.29,-5.32 -19.87,-7.96 -6.7,-7.1 -15.93,-13.53 -17.42,-23.89 -1.26,-8.13 -1.66,-17.15 3,-24.36 4.87,-7.56 2.57,-16.81 3.27,-25.24 0.13,-5.97 4.75,-10.53 5.77,-16.27 1.83,-3.81 0.79,-10.22 6.04,-11.22 -1.47,-7.87 1.73,-15.25 5.34,-22 4.17,-7.63 0.36,-16.66 -4.17,-23.21 -5,12.53 -11.76,24.24 -19.19,35.45 -13.13,13.57 -24.3,28.85 -36.06,43.59 7.87,-2.42 15.59,-5.29 23.34,-8.1 1.21,5.21 2.85,10.98 0.78,16.21 -9.38,9.83 -21.17,17.11 -30.1,27.4 -3.7,3.77 -2.98,9.3 -3.17,14.13 -3.81,-0.3 -7.22,-1.36 -7.47,-5.83 -4.45,0.68 -8.89,1.34 -13.34,2.07 -0.09,-0.9 -0.26,-2.66 -0.34,-3.56 -7.53,-0.4 -15.09,-0.63 -22.6,-1.15 -7.78,-3.78 -15.83,-6.93 -23.72,-10.46 -0.28,0.93 -0.85,2.83 -1.13,3.78 -4.7,-7.27 -10.4,-13.85 -14.49,-21.53 2.28,-3.25 4.79,-8.91 9.47,-8.1 1.6,5.1 1.36,10.53 1.79,15.82 5.21,-3.44 10.47,-6.87 15.55,-10.51 1.81,2.37 3.64,4.75 5.51,7.11 2.19,-2.76 5.38,-5.13 6.09,-8.77 0.61,-6.91 6.63,-11.08 10.34,-16.36 -4.19,-0.98 -8.53,-2.85 -12.88,-1.66 -3.72,1.75 -6.72,4.68 -10.12,6.94 -0.53,-4.38 -2.28,-9.04 0.17,-13.21 -2.9,-4.6 -6.88,-8.3 -11.26,-11.39 -8.08,3.73 -7.06,14.11 -14.72,17.96 -2.36,-3.42 -4.64,-6.91 -6.79,-10.45 -1.08,-0.19 -3.27,-0.55 -4.36,-0.74 -1.51,-3.11 -2.98,-6.17 -4.47,-9.26 -2.13,3.79 -5.06,6.75 -9.64,7.05 -3.85,4.83 -2.46,10.7 1.71,14.76 -1.88,1.64 -3.77,3.3 -5.62,4.96 -4.6,-0.4 -9.17,-0.66 -13.77,-0.85 -2.1,5.11 -4.08,10.25 -6.34,15.32 9.17,-2.26 18.43,-5.24 27.96,-4.68 5.57,4.1 4.38,12.4 5.06,18.57 1.66,4.22 4.62,8.24 3.79,13.04 0,9.28 -8.13,15.58 -16.34,17.86 1.15,7.17 1.6,14.44 -0.92,21.4 -6.8,0.4 -13.65,-0.13 -20.14,-2.38 -0.66,0.95 -2.02,2.85 -2.68,3.8 -5.41,-0.55 -9.96,2.13 -14.17,5.13 -6.92,-3.06 -14.54,-3.4 -21.96,-4.15 -4.64,-5.78 -10.62,-10.14 -17.62,-12.63 0.04,-1.49 0.13,-4.49 0.17,-6 2.11,1.38 4.23,2.8 6.34,4.23 0.62,-2.3 1.24,-4.6 1.87,-6.87 3.79,-0.77 7.56,-1.6 11.32,-2.45 -7.42,-7.68 -18.44,-12.13 -23.1,-22.23 -2.49,-7.09 2.12,-13.47 6.19,-18.75 2.06,1.34 4.17,2.7 6.28,4.05 -1.3,-6.09 -2.96,-12.09 -4.73,-18.03 -8.74,-0.32 -17.89,0.77 -25.68,-4.1 -7.49,1.15 -13.42,-3.9 -20.64,-4.17 0,-3.05 -0.19,-6.09 0.11,-9.09 7.32,-6.49 16.06,-11.1 23.7,-17.21 1.68,2.4 3.32,4.81 4.96,7.25 4.36,-0.93 8.7,-1.93 13.04,-2.95 -2.68,-11.79 -12.47,-20.71 -13.81,-32.88 -0.89,-3.95 3.15,-8.34 7.21,-6.53 1.45,2.28 2.81,4.64 4.09,7.07 3.38,-3.15 6.57,-6.54 9.64,-10 -0.11,-1.71 -0.32,-5.13 -0.43,-6.83 1.94,-0.83 3.87,-1.68 5.81,-2.49 3.58,4.47 5.28,9.95 7.13,15.32 4.38,0.31 8.76,0.55 13.17,0.7 0.7,-5.94 -0.11,-12.07 1.45,-17.85 8.7,-10.45 22.59,-13.11 32.89,-21.3 5.15,5.51 11.77,8.74 19.42,8.85 -1.36,-4.36 -1.74,-9.11 -4.08,-13.08 -3.87,-4.24 -9.04,-7.11 -12.15,-12.05 5.26,0.7 10.66,2.39 15.89,0.41 3.51,3.53 6.9,7.21 10.05,11.1 -0.17,1.37 -0.49,4.13 -0.66,5.49 1.4,0.28 4.23,0.81 5.64,1.09 -1.2,13.19 -8.15,25.21 -8.32,38.64 3.36,2.7 6.72,5.4 10.1,8.1 3.49,-8.23 6.26,-16.74 9.22,-25.17 4.68,-3.13 9.1,-6.85 10.57,-12.51 3.43,0.72 6.85,1.51 10.26,2.36 -0.85,-5.15 -0.07,-11.17 -4.11,-15.12 -11.87,-14.34 -25.09,-27.56 -36.15,-42.56 0.6,-5.44 0.89,-10.93 1.43,-16.36 4.48,-1.08 9.08,-2 13.19,-4.19 19.08,-9.87 38.68,-18.77 58.68,-26.66 -12.17,-10.83 -25.32,-20.49 -38,-30.7 2.19,-4.17 5.19,-8.28 10.08,-9.3 15.34,-4.28 30.64,-9.51 46.64,-10.66 14.64,-2.11 29.43,-3.34 43.96,-6.15 -4.15,-13.57 -13.55,-25.83 -12.32,-40.7 9.4,0.06 19.28,1.23 27.7,-3.92 13.45,11.41 29.47,19.41 42.19,31.73 11.94,8.72 21.77,19.85 32.85,29.55 -9.23,-16.42 -19.91,-31.96 -29.51,-48.15 -4.02,-6.15 -2.55,-13.91 -3.27,-20.85 2.53,-1.51 5.08,-3.02 7.68,-4.49 0.38,-2.45 0.79,-4.85 1.17,-7.28 1.79,0.03 5.36,0.05 7.13,0.05 4.17,-5.53 8.17,-12.96 16.38,-11.47 0.96,-0.62 2.87,-1.85 3.83,-2.47 2.42,1.83 4.87,3.62 7.42,5.3 -0.55,-4.87 -5.29,-6.68 -8.91,-8.92 -7.55,-4.55 -15.96,-7.85 -22.66,-13.7 -5.17,-4.4 -10.28,-8.87 -15.47,-13.23 2.28,-2 4.51,-4.04 6.75,-6.11 2.12,1.6 4.25,3.21 6.38,4.81 1.57,-2.43 3.13,-4.85 4.72,-7.25 1.85,0.78 5.58,2.34 7.43,3.12 2.02,-1.72 4.15,-3.32 6.36,-4.79 8.09,1.13 16.02,3.09 24.17,3.83 -4.43,-8.34 -9.15,-16.51 -13.57,-24.83 9.14,-0.21 18.25,0.81 27.36,1.54 -10.7,-34.34 -23.58,-67.96 -33.9,-102.43 16.98,3.87 32.75,11.6 49.26,16.94 6.4,1.81 12.66,4.17 18.91,6.49 -0.57,9.7 -0.55,19.4 -0.48,29.1 0.95,1.05 2.87,3.11 3.85,4.13 -0.6,19.43 -1.47,38.85 -2.2,58.28 4.84,-3.43 10.13,-6.66 13.56,-11.64 0.74,-5.15 0.57,-10.36 0.98,-15.55 2.95,-1.15 5.95,-2.26 8.95,-3.36 1.43,-8.58 6.17,-19.05 15.24,-21.54 26.85,40.73 57.91,78.56 89.76,115.47 -6.14,26.83 8.07,58.36 34.39,68.41 10.85,2.57 19.74,-6.07 28.83,-10.43 9.78,6.3 19.42,12.87 29.21,19.19 6.28,0.3 11.79,3.36 17.19,6.28 -4.59,-6.22 -10.76,-10.64 -17.85,-13.53 -29.89,-23.86 -56.53,-51.41 -83.66,-78.28 -35.62,-34.92 -61.15,-79.51 -75.19,-127.26 26.53,12.05 50.81,28.47 74.19,45.68 3.13,-7.53 5.17,-15.55 9.53,-22.55 14.53,6.64 28.19,15.77 44.15,18.77 -2.34,-3.24 -6.4,-3.15 -9.87,-3.79 -3.68,-4.21 -6.92,-8.85 -11.21,-12.43 -6.56,-5 -14.45,-8.02 -20.73,-13.38 -0.3,-1.36 -0.89,-4.08 -1.19,-5.45 -6.51,8.28 -11.57,17.56 -18.04,25.86 -22.02,-14.09 -40.7,-33.13 -54.04,-55.62 -1.34,-2.41 -1.96,-5.13 -2.77,-7.68 4.02,-1.19 8.19,-1.7 12.38,-0.81 5.58,-9.32 9.68,-19.4 14.64,-29.04 14.56,10.02 28.41,21.04 42.81,31.29 8.34,-8.31 15.51,-17.7 23.77,-26.12 13.59,9 26.08,19.66 40.04,28.13zm103.45 62.4l0 0c1.06,1.28 1.06,1.28 0,0zm25.08 12.57l0 0c1.04,2.51 4.34,1.3 6.45,1.96 0.57,-1.64 1.72,-4.89 2.29,-6.53 -1.76,-1.75 -3.55,-3.47 -5.33,-5.15 -2.47,2.43 -6.94,6.06 -3.41,9.72zm17.28 0.75l0 0c2.36,1.79 4.34,5.13 7.78,4.53 4.98,-0.26 5.66,-8.98 0.52,-9.7 -3.94,-1.7 -5.88,3.08 -8.3,5.17zm-14.49 15.7l0 0c-0.15,2.55 -1.15,5.34 0.32,7.72 3.34,2.15 6.76,0.32 9.91,-1.21 0,-1.17 -0.02,-3.53 -0.02,-4.7 -3.32,-1.09 -6.76,-1.62 -10.21,-1.81zm-149.07 16.75l0 0c0.05,2.89 0.11,5.78 0.22,8.68 3.98,1.02 8.89,-0.13 7.72,-5.41 0,-4.87 -4.66,-4.38 -7.94,-3.27zm-13.91 17.29l0 0c-0.72,1.34 -2.13,4.05 -2.85,5.39 1.25,4.93 4.64,7.66 9.87,7.15 0.68,-3.66 3.04,-7.62 0.66,-11.13 -1.09,-3.39 -5.21,-1.32 -7.68,-1.41zm-107.51 0.56l0 0c-3.92,16 15.53,25.17 13.79,40.74 -2.81,22.64 7.34,45.89 24.87,60.23 14.66,12.37 34.08,18.43 53.17,17.56 -10.77,-5.98 -22.24,-11.53 -30.21,-21.26 -13.28,-14.59 -18.79,-34.81 -17.24,-54.25 -14.45,-14.7 -29.38,-28.9 -44.38,-43.02zm130.47 14.66l0 0c-1.62,4.04 3.4,5.1 6.04,6.7 0.98,-3 1.76,-6.04 2.28,-9.15 -2.98,-0.53 -7.66,-1.98 -8.32,2.45zm-243.22 14.57l0 0c3.28,7.57 12.24,8.96 18.15,13.77 6.15,3.49 9.66,11.12 17.09,12.14 -1.87,-3.97 -4,-7.78 -6.49,-11.36 0.36,-5.85 4.19,-9.68 9.27,-12.19 -12.72,0.32 -25.68,1.6 -38.02,-2.36zm117.15 41.66l0 0c-4.15,5.81 -4.83,14.83 -11.95,17.96 -6.98,3 -9.43,10.78 -12.47,17.12 5.15,-2.97 10.32,-5.93 15.44,-8.97 1.26,0.23 3.81,0.74 5.07,1 2.25,-1.66 4.51,-3.3 6.79,-4.92 4.17,1.41 8.38,2.68 12.68,3.7 -3.71,-8.93 -9.07,-17.1 -13.28,-25.83 -0.55,-0.02 -1.7,-0.04 -2.28,-0.06zm-220.68 8.96l0 0c2.07,9.15 6.28,17.57 9.17,26.46 2.7,7.73 5.13,15.6 8.98,22.88 4.68,-8.26 2.6,-18.36 4.26,-27.39 4.1,1.92 8.04,4.17 11.93,6.52 -0.21,-1.07 -0.64,-3.2 -0.85,-4.28 -10.62,-8.75 -20.38,-19.09 -33.49,-24.19zm484.79 4.38l0 0c1,7.6 1.94,15.28 4.45,22.6 4.27,-3.41 7.17,-8.15 10.38,-12.49 -5.92,-1.79 -10.41,-6.07 -14.83,-10.11zm-368.87 35.15l0 0c6,-1.06 12.06,-2.06 18.17,-1.62 9.68,1.07 19.02,-2.17 28.61,-2.76 -0.44,-1.17 -1.36,-3.54 -1.8,-4.71 -4.56,-0.04 -9.09,-0.17 -13.62,-0.34 0.7,-7.02 2.64,-14.23 0.02,-21.1 -12.57,7.78 -21.09,20.19 -31.38,30.53zm347.04 -31.85l0 0c-2.36,7.89 -4.87,15.95 -10.55,22.19 6.51,-0.43 13.1,-0.36 19.46,1.34 -2.59,-7.96 -4.34,-16.36 -8.91,-23.53zm-232.98 23.19l0 0c-1.62,9.43 -16.28,10.55 -13.98,21.68 6.02,-3.57 10.94,-8.64 16.75,-12.47 7.91,-3.87 17.1,-1.61 25.44,-0.59 -6.95,-5.47 -12.95,-11.98 -19.59,-17.77 -6.32,-2.89 -7.34,4.98 -8.62,9.15zm41.23 9.62l0 0c0.37,7.02 4.71,13 5,20.04 -3.93,4.49 -7.65,9.17 -11.63,13.64 0.02,1.64 0.08,4.89 0.12,6.51 15.07,-8.47 25.88,-22.34 37.56,-34.7 -6.79,-0.28 -14.09,0.57 -20.05,-3.34 -0.8,0.27 -2.4,0.83 -3.19,1.1 -2.61,-1.13 -5.21,-2.19 -7.81,-3.25zm-67.57 47.06l0 0c-3.96,6.98 -3.36,15.21 -2.04,22.83 5.83,-9.74 13.74,-18.94 25.42,-21.3 0.51,-2.38 1.02,-4.78 1.53,-7.17 -4.16,1.55 -8.25,3.28 -12.29,5.13 -0.71,-3.21 -2.19,-6.06 -4.73,-8.17 -0.32,-2.72 -0.63,-5.45 -0.95,-8.13 -5.71,3.7 -3.9,11.43 -6.94,16.81zm-265.85 -8.81l0 0c9.42,7.77 16.17,18.02 23.23,27.85 3.13,4.68 5.58,10.41 11.66,11.92 -3.23,-9.51 -4.4,-19.43 -3.04,-29.41 6.45,-1.31 13.64,-2.1 18.45,-7.17 -16.68,-2 -33.51,-3.02 -50.3,-3.19zm-4.68 65.94l0 0c-5.62,2.34 -11.94,3.68 -16.45,8.06 8.15,2.92 16.7,4.6 24.77,7.77 5.49,2.49 7.47,10.53 13.83,10.93 3.68,-7.19 -4.13,-14.1 -3,-21.44 0.17,-7 8.76,-9.41 9.53,-16.28 -9.85,2.81 -19.06,7.43 -28.68,10.96zm75.98 30.68l0 0c9.44,10.55 23.76,16.7 29.51,30.4 6.06,-2.7 5.44,-8.59 3.85,-14.12 4.38,0.49 9.45,1.61 12.66,-2.32 -5.17,-3.77 -9.77,-9.32 -16.51,-9.98 -9.81,-1.6 -19.64,-2.9 -29.51,-3.98zm85.61 26.45l0 0c-0.61,5.63 6.86,4.63 10.56,4.87 0.4,-1.45 1.21,-4.36 1.61,-5.81 -4.06,-1.13 -8.7,-2.23 -12.17,0.94zm497.83 2.27l0 0c0.75,2.41 -0.65,8.09 3.68,7.19 3.24,0.34 1.07,-4.93 1.45,-6.91 -1.28,-0.06 -3.85,-0.21 -5.13,-0.28zm-20.36 2.41l0 0c0,2.8 0.02,5.63 0.07,8.46 2,0.09 4.02,0.17 6.04,0.28 0.04,-2.81 0.55,-5.68 -0.32,-8.36 -1.92,-0.47 -3.83,-0.6 -5.79,-0.38zm-510.13 14.19l0 0c-4.21,2.42 -0.68,6.51 1.88,8.57 1.42,-0.59 4.23,-1.79 5.66,-2.38 1.57,-4.72 -3.07,-9.43 -7.54,-6.19zm522.26 1.17l0 0c0.83,1.59 2.49,4.76 3.32,6.34 2.57,-0.77 5.98,-1.72 5.57,-5.19 -0.51,-4.98 -6.02,-1.81 -8.89,-1.15zm-551.04 17.17l0 0c-0.71,8 0.12,16.08 -1.09,24.04 -3.96,9.28 -7.04,19.47 -15.15,26.15 -0.47,7.49 -1.81,15.09 -0.59,22.6 -0.6,4.34 3.32,7.97 7.21,4.78 0.96,-5.53 0.72,-11.4 3.83,-16.27 0.51,-7.51 -1.62,-16.98 5.34,-22.2 4.38,-3.42 6.94,-8.31 8.72,-13.48 4.09,1.02 7.47,3.53 10.3,6.63 3.68,-6.17 -1.79,-11.93 -3.83,-17.55 -5.21,-9.76 -8.17,-21 -16.02,-29.11 -2.23,4.9 -2.45,10.2 1.28,14.41zm64.89 -2.77l0 0c-0.74,1.53 -2.21,4.64 -2.96,6.19 2.96,3.15 11.09,5.43 11.6,-0.78 0.76,-5.19 -5.15,-5.09 -8.64,-5.41zm215.6 59.13l0 0c-32.13,2.04 -64.43,-0.15 -96.47,2.64 4.79,3.49 9.55,7.21 15.13,9.42 17.68,1.54 35.49,1.32 53.25,1.41 11.98,0.62 23.28,5.53 35.21,6.66 6.79,-13.6 19.03,-22.73 29.73,-33.04 6.04,10.72 12.76,21.06 18.74,31.85 9.22,-2.19 17.51,-7 26.62,-9.51 10.13,-2.94 20.49,-5.11 30.79,-7.43 0.93,-2.62 1.87,-5.19 2.83,-7.79 -18.88,-0.81 -37.77,-0.25 -56.62,-1.34 -4.66,-11.44 -10.3,-22.44 -14.85,-33.93 -15.17,13.27 -28.83,28.21 -44.36,41.06zm123.46 -29.77l0 0c1.17,1.09 1.17,1.09 0,0zm132.3 24.51l0 0c-5.21,7.75 -11.87,14.9 -19.93,19.71 -0.88,-1.58 -2.64,-4.75 -3.54,-6.32 -4.82,7.57 -9.21,15.42 -13.02,23.55 -4.23,8.81 -13.25,13.77 -18.61,21.77 8.68,-3.58 17.49,-7.22 24.51,-13.64 3.27,-3.49 8.08,-1.45 11.25,1.06 6.36,-5.17 12.75,-10.36 18.22,-16.51 -2.58,0.47 -7.77,1.45 -10.35,1.92 8.75,-9.19 19.37,-16.43 27.62,-26.13 -3.3,-2.51 -6.57,-5 -9.81,-7.55 -1.42,-5.96 -3.57,-11.79 -7.32,-16.71 -3.66,6.2 1.15,12.56 0.98,18.85zm-288.66 62.07l0 0c15.81,-1.38 31.19,-6.68 47.22,-5.34 5.97,-5.34 9.95,-12.43 15.34,-18.28 0.72,-5.34 1.19,-10.7 1.38,-16.06 -20.17,15 -41.98,27.53 -63.94,39.68zm72.64 -39.81l0 0c0.58,6.66 0.6,13.38 1.41,20.02 1.51,5.79 4.63,10.98 7.25,16.34 14.07,-2.1 27.83,1.68 41.64,3.66 -8.58,-6.98 -18.49,-12 -27.06,-18.96 -8.32,-6.38 -14.92,-14.65 -23.24,-21.06zm-89.17 73.09l0 0c14.6,1.57 29.26,2.49 43.94,2.57 6.49,-7.55 12.21,-15.72 17.68,-24.04 -20.81,6.36 -40.96,14.61 -61.62,21.47zm75.98 -22.15l0 0c2.38,7.59 5.53,14.91 8.51,22.29 13.11,-1.08 26.21,-2.1 39.32,-3.1 -16.7,-4.34 -32.83,-10.68 -47.83,-19.19zm213.89 51.25l0 0c1.28,1.07 1.28,1.07 0,0z"/>
   <path class="fil1" d="M922.47 131.93l95.51 0c26.25,1.4 52.66,1.36 78.83,3.91 9.15,6.72 16.23,15.94 24.59,23.6 39.13,40.04 78.9,79.44 118.49,119.02 0.15,-42.7 -0.08,-85.43 1.73,-128.11 101.51,13.45 202.08,33.43 301.68,57.13 3.19,63.72 -1.34,127.53 0.93,191.28 -20.78,-4.94 -41.55,-10 -62.27,-15.11 -2.17,45.17 -0.66,90.42 -1.11,135.62 0,58.17 0,116.34 -0.02,174.51 -0.38,6.78 4.47,12.13 7.41,17.83 11.72,19.29 22.31,39.53 35.76,57.64 28.96,9.95 57.6,20.87 85.92,32.55 13.51,-12.28 28.12,-23.43 41.02,-36.34 1.38,-7.55 0.44,-15.32 0.68,-22.96 0.19,-49.6 -0.53,-99.21 0.55,-148.81 0.06,-52.85 -0.38,-105.7 0.47,-158.53 -17.43,-6.13 -34.77,-12.45 -52.13,-18.68 1.36,-64.17 -0.36,-128.36 1.21,-192.53 101.2,32.83 201.94,68.02 298.28,113.42l0 29.73c-1.3,58.25 -3.11,116.55 -1.23,174.81 -22.05,-10.64 -43.39,-22.73 -65.79,-32.58 -0.53,95.49 -2.64,190.94 -2.15,286.45 -0.64,17.87 -0.64,35.74 -0.51,53.64 -64.4,56.29 -129.51,111.78 -194.02,167.97 -73.47,-37.1 -150.62,-66.53 -229.34,-90.29 -4.36,-7.28 -8.68,-14.58 -13.21,-21.73 -1.69,9.98 -4.98,19.43 -9.22,28.58 6.3,-0.36 12.58,-1.28 18.83,-2.22 -11.91,28.96 -26.53,56.77 -38.55,85.69 -1.13,2.55 -1.53,5.21 -1.26,7.97 0.9,15.47 4.22,30.81 10.28,45.09 -2.94,8.47 -5.87,16.94 -8.91,25.38 16.59,12 35.27,21.13 55.1,26.39 6.21,1.55 12.49,4.17 16.47,9.46 -3.51,4.73 -7.49,9.22 -9.53,14.88 15.13,3.61 30.4,6.83 45.17,11.85 -4.36,3.66 -9.26,6.87 -12.62,11.55 -2.19,3.85 -2.23,8.47 -3.02,12.75 5.04,3.06 9.6,6.8 13.51,11.23 -12.34,10.02 -23.85,22.85 -26.3,39.17 6.07,2.04 11.6,5.34 15.81,10.23 -12.34,7.3 -26.51,11.75 -37.08,21.81 -6.11,5.51 -8.41,13.94 -14.64,19.34 1.59,3.77 3.36,7.45 4.98,11.22 2.46,4.91 0.32,10.38 0.1,15.53 -8.57,2.27 -17.25,5.38 -23.66,11.78 -6.89,7.39 -17.91,7.37 -25.72,13.43 5.66,1.57 11.62,1.7 17.02,-0.91 12.77,-5.86 27.45,-0.41 37.7,7.91 6.94,8.75 15.96,15.83 21.11,25.94 4.74,8.78 14.87,14.46 15.66,25.19 5.34,6.21 1,14.06 -1.47,20.55 -3.38,7.58 -6.08,15.96 -12.68,21.45 -13.53,12.87 -32.04,19.53 -50.62,19.51 6.05,-7.92 10.81,-16.68 14.09,-26.11 -8.72,8.21 -16.66,17.85 -27.92,22.75 -8.91,4.38 -19.1,3.04 -28.63,2.36 4.87,-8.15 11.44,-15.13 16.1,-23.41 2.02,-3.08 0.09,-6.63 -0.45,-9.8 -2.95,7.02 -5.06,14.72 -10.36,20.46 -6.95,8.43 -17.23,13.47 -27.72,15.96 -8.49,1.09 -16.26,-3.51 -23.49,-7.25 8.62,-3.94 16.47,-11.64 16.45,-21.71 -1.39,-3.59 -4.92,-5.72 -7.66,-8.17 -5.85,-4.29 -11.66,-9.57 -19.15,-10.42 -4.45,-3.32 -8.36,-7.32 -13.09,-10.24 -5.25,-0.78 -8.17,4.32 -11.68,7.2l0.43 2.72c-1.49,-0.41 -4.47,-1.26 -5.94,-1.66 -4.89,3.96 -10,8.13 -16.3,9.51 -8.32,2.08 -16.7,-0.87 -24.38,-3.83 -7.19,5.85 -7.28,15.53 -8.6,23.98 -1.23,9.94 -3.1,19.79 -5.12,29.62 -5.02,-1.75 -9.9,-4.28 -13.05,-8.66 -11.8,-15.56 -20.36,-35.24 -17.02,-55.09 2.58,-8.49 7.62,-15.93 11.83,-23.66 -7.91,2.04 -15.74,4.6 -22.89,8.66 -12.04,6.55 -25.94,7.81 -38.68,12.34 -5.24,4.11 -6.38,11.66 -11.51,16 -3.02,2.41 -6.79,3.51 -10.28,5.04 -4.4,-5.34 -7.36,-12.97 -14.47,-15.23 -19.95,-6.89 -40.38,-13.19 -61.57,-14.72 -0.68,7.87 -0.98,16.12 -5.13,23.12 -6.72,14.54 -20.74,23.66 -34.11,31.45 -7.89,5 -17.55,3.9 -26.36,3 4.45,-11.57 12.85,-21.83 12.88,-34.76 -6.69,-6.17 -12.26,-14.98 -21.98,-16.41 -9.32,-1.51 -18.88,-1.87 -27.83,-5.13 -7.28,2.58 -17.49,-0.64 -21.17,8.05 0.23,1.42 0.7,4.27 0.93,5.7 -3.04,2.98 -6.06,5.98 -9.06,9.02 -0.83,-0.3 -2.47,-0.87 -3.28,-1.15 -2.53,0.7 -5.04,1.4 -7.55,2.13 -0.92,5.3 -1.81,10.93 0.83,15.96 4.74,9.91 7.17,20.7 8.7,31.55 -9.62,-1.43 -19.81,-2.53 -28.25,-7.72 -6.17,-4.86 -11.54,-10.71 -18.32,-14.79 -0.02,-10.11 -8.15,-16.66 -13.47,-24.26 -2.41,4 -6.06,8.32 -4.3,13.36 3.17,10.05 9.34,18.88 14.94,27.73 -11.58,3.47 -24.83,4.25 -35.6,-2.09 -11.72,-6.74 -17.72,-19.3 -24.72,-30.23 1.21,12.91 5.57,25.36 12.76,36.15 -17.98,1.4 -36.61,-4.3 -49.95,-16.51 -10.39,-14.85 -14.64,-33.49 -14.47,-51.45 -0.07,-7.02 4.61,-12.74 9.27,-17.49 9.81,-8.87 17.39,-19.85 25.17,-30.42 7.58,-7.98 19.96,-8.92 30.2,-6.58 -0.32,-4.34 -0.9,-9.57 -5.83,-10.98 -5.13,1.07 -8.64,5.26 -12.54,8.41 -1.48,-4.02 -2.89,-8.07 -4.23,-12.11 -2.49,-0.17 -4.98,-0.3 -7.45,-0.43 -0.44,-1.21 -1.38,-3.63 -1.85,-4.85 -3.89,1.43 -7.51,3.39 -10.36,6.43 -4.51,-1.7 -9.3,-2.09 -14.06,-2.02 -0.43,-1.34 -1.26,-4.02 -1.68,-5.36 -9.32,-0.77 -20.58,2.76 -27.37,-5.64 -7.46,0.15 -14.95,1.02 -22.4,0.1 -3.96,-1.66 -7.36,-4.38 -10.91,-6.72 -7.62,0.34 -15.22,0.92 -22.81,1.34 -2.45,-2.08 -4.88,-4.17 -7.3,-6.23 -1.92,4.74 -3.92,9.46 -5.66,14.3 13.74,4.51 28.64,9.27 38.3,20.7 8.02,11.1 6.87,25.85 4.08,38.55 -1.72,7.85 -4.4,15.85 -10.17,21.7 -12.38,13.79 -28.98,22.9 -45.85,30.02 -0.66,-6.91 -1.81,-14.08 0.02,-20.89 2.87,-6.47 9.53,-10.94 10.56,-18.3 0.42,-3.83 1.36,-8.91 -2.32,-11.47 -4.6,-1.95 -10.11,-0.85 -13.75,2.56 -5.96,-0.05 -13.13,-0.34 -13.87,7.32 -7.79,6.55 -17.45,9.95 -26.64,14.06 0.21,3.4 0.96,6.74 2.41,9.89 1.34,13.71 0.63,27.45 0.8,41.2 -5.36,-0.73 -11.17,-0.77 -15.78,-3.94 -6.3,-4.3 -11.05,-10.41 -15.68,-16.34 -6.45,-8 -8.15,-18.38 -12.2,-27.55 -6.02,19.02 2.24,38.66 9.03,56.34 -17.77,2.59 -34.2,-7.64 -45.66,-20.3 -6.96,-8.3 -10.64,-19.21 -10.32,-30 0.32,-4.26 -1.17,-8.17 -3.41,-11.68 -5.4,3.49 -11.42,6.93 -14.44,12.91 -3.88,7.13 -2.86,15.85 -7,22.87 -3.47,6.15 -7.75,11.81 -11.96,17.49 -12.39,-16.1 -15.73,-37.98 -12.6,-57.72 2.51,-20.21 19.73,-34.04 35.58,-44.64 12.38,-7.25 22.38,-17.68 34.21,-25.68 6.91,-5.08 9.45,-13.62 13.79,-20.64 -0.34,-5.51 0.17,-11.4 -3.39,-16.04 -5.06,0.77 -12.46,2.92 -15.32,-2.91 -4.17,-5.64 5.03,-7.13 7.51,-11.07 1.18,-7.32 -6.14,-11.89 -11.91,-14.34 -17.4,-7.13 -36.04,-10.51 -54.26,-14.87 8.75,-9.32 20.28,-15.09 30.47,-22.55 -21.81,-29.75 -41.04,-62.22 -49.68,-98.41 5.17,3.96 10.19,8.11 15.47,11.94 -3.96,-24.43 -12.25,-48.77 -9.04,-73.79 2.32,-18.4 4.68,-37.77 15.17,-53.6 5.21,-8.14 12.85,-14.36 21.21,-19.04 5.64,17.15 9.23,34.96 15.32,51.94 6.64,10.96 15.13,20.68 22.64,31.04 3.27,-5.32 2.64,-14.98 9.32,-17.06 3.02,6.55 3,14 5.32,20.8 6.63,21 21.4,38.58 38.57,51.98 1.23,-3 2.49,-5.97 3.72,-8.95 1.64,1.23 3.28,2.46 4.94,3.7 1.26,-0.92 3.81,-2.72 5.06,-3.62 -0.48,4 -1.68,8 -1.34,12.09 1.77,2.49 3.85,4.72 5.83,7.08 7.68,-4.38 14.69,-9.93 20.26,-16.85 0.4,-5.45 2.45,-11.04 0.55,-16.4 -3.7,-11.62 -13.23,-19.77 -21.81,-27.83 7.88,-0.94 16.3,-0.75 23.28,-5.07 6.17,-3.76 12.57,-7.25 19.7,-8.85 12.3,-3.04 24.11,-7.91 35,-14.4 -9.53,-15.3 -25.3,-25.58 -42,-31.56 36.92,-12.23 75.94,-20.23 109.24,-41.21 -2.34,-9.34 -5.49,-18.45 -8.19,-27.66 24.8,-8.89 50.29,-15.79 75.19,-24.51 -8.75,-22.15 -23.56,-41.06 -37.85,-59.83 17.1,-0.89 35.02,2.11 51.34,-4.23 6.51,-2 13.38,-2.6 19.91,-4.6 0.51,-2.51 -0.23,-4.57 -2.25,-6.19 -41.96,-42.45 -83.71,-85.13 -125.58,-127.66 -6.81,-6.36 -6.59,-16.68 -7.04,-25.3 0.28,-39.74 0.81,-79.47 0.55,-119.21 1.11,-32.64 0.22,-65.28 0.62,-97.92 0.74,-14.68 0.36,-29.38 0.51,-44.06 -52.47,9.15 -104.94,18.28 -156.94,29.77 0,-33.92 -0.06,-67.83 0.02,-101.75 -14,2.7 -27.89,6.04 -41.55,10.17 -0.27,42.39 0.51,84.79 -0.55,127.15 0.02,56.75 0.04,113.47 0,170.21 -0.94,24.34 -0.39,48.71 -0.49,73.05 27.19,-7.75 54.25,-16.05 81.87,-22.15 3.96,63.25 -1.06,126.66 2.23,189.95 -118.42,31.11 -230.61,81.56 -339.38,137.01 -0.4,-68.6 0.85,-137.15 0.47,-205.75 24.79,-13.02 50.94,-23.11 76.45,-34.53 0.08,-59.34 1,-118.68 0.68,-178.02 0.23,-68.58 -0.53,-137.15 0.53,-205.7 -13.74,4.19 -27.09,9.51 -40.43,14.78 -0.97,35.66 0.05,71.36 -1.08,107 -62.21,21.38 -121.34,50.56 -180.83,78.41l0 -312.07c193.51,-82.25 398.66,-136.21 606.87,-164.68 2.49,12.45 6.66,24.77 5.92,37.62 -0.32,31.1 -0.85,62.23 -0.54,93.36 21.35,-22.7 44.17,-43.94 65.54,-66.62 25.87,-25.29 50.53,-51.85 76.4,-77.08 22.6,-2.47 45.55,-1.43 68.28,-2.87zm200.36 1208.83c15,8.51 31.13,14.85 47.83,19.19 -13.11,1 -26.21,2.02 -39.32,3.1 -2.98,-7.38 -6.13,-14.7 -8.51,-22.29zm-75.98 22.15c20.66,-6.86 40.81,-15.11 61.62,-21.47 -5.47,8.32 -11.19,16.49 -17.68,24.04 -14.68,-0.08 -29.34,-1 -43.94,-2.57zm89.17 -73.09c8.32,6.41 14.92,14.68 23.24,21.06 8.57,6.96 18.48,11.98 27.06,18.96 -13.81,-1.98 -27.57,-5.76 -41.64,-3.66 -2.62,-5.36 -5.74,-10.55 -7.25,-16.34 -0.81,-6.64 -0.83,-13.36 -1.41,-20.02zm-72.64 39.81c21.96,-12.15 43.77,-24.68 63.94,-39.68 -0.19,5.36 -0.66,10.72 -1.38,16.06 -5.39,5.85 -9.37,12.94 -15.34,18.28 -16.03,-1.34 -31.41,3.96 -47.22,5.34zm288.66 -62.07c0.17,-6.29 -4.64,-12.65 -0.98,-18.85 3.75,4.92 5.9,10.75 7.32,16.71 3.24,2.55 6.51,5.04 9.81,7.55 -8.25,9.7 -18.87,16.94 -27.62,26.13 2.58,-0.47 7.77,-1.45 10.35,-1.92 -5.47,6.15 -11.86,11.34 -18.22,16.51 -3.17,-2.51 -7.98,-4.55 -11.25,-1.06 -7.02,6.42 -15.83,10.06 -24.51,13.64 5.36,-8 14.38,-12.96 18.61,-21.77 3.81,-8.13 8.2,-15.98 13.02,-23.55 0.9,1.57 2.66,4.74 3.54,6.32 8.06,-4.81 14.72,-11.96 19.93,-19.71zm-255.76 5.26c15.53,-12.85 29.19,-27.79 44.36,-41.06 4.55,11.49 10.19,22.49 14.85,33.93 18.85,1.09 37.74,0.53 56.62,1.34 -0.96,2.6 -1.9,5.17 -2.83,7.79 -10.3,2.32 -20.66,4.49 -30.79,7.43 -9.11,2.51 -17.4,7.32 -26.62,9.51 -5.98,-10.79 -12.7,-21.13 -18.74,-31.85 -10.7,10.31 -22.94,19.44 -29.73,33.04 -11.93,-1.13 -23.23,-6.04 -35.21,-6.66 -17.76,-0.09 -35.57,0.13 -53.25,-1.41 -5.58,-2.21 -10.34,-5.93 -15.13,-9.42 32.04,-2.79 64.34,-0.6 96.47,-2.64zm-215.6 -59.13c3.49,0.32 9.4,0.22 8.64,5.41 -0.51,6.21 -8.64,3.93 -11.6,0.78 0.75,-1.55 2.22,-4.66 2.96,-6.19zm-64.89 2.77c-3.73,-4.21 -3.51,-9.51 -1.28,-14.41 7.85,8.11 10.81,19.35 16.02,29.11 2.04,5.62 7.51,11.38 3.83,17.55 -2.83,-3.1 -6.21,-5.61 -10.3,-6.63 -1.78,5.17 -4.34,10.06 -8.72,13.48 -6.96,5.22 -4.83,14.69 -5.34,22.2 -3.11,4.87 -2.87,10.74 -3.83,16.27 -3.89,3.19 -7.81,-0.44 -7.21,-4.78 -1.22,-7.51 0.12,-15.11 0.59,-22.6 8.11,-6.68 11.19,-16.87 15.15,-26.15 1.21,-7.96 0.38,-16.04 1.09,-24.04zm551.04 -17.17c2.87,-0.66 8.38,-3.83 8.89,1.15 0.41,3.47 -3,4.42 -5.57,5.19 -0.83,-1.58 -2.49,-4.75 -3.32,-6.34zm-522.26 -1.17c4.47,-3.24 9.11,1.47 7.54,6.19 -1.43,0.59 -4.24,1.79 -5.66,2.38 -2.56,-2.06 -6.09,-6.15 -1.88,-8.57zm510.13 -14.19c1.96,-0.22 3.87,-0.09 5.79,0.38 0.87,2.68 0.36,5.55 0.32,8.36 -2.02,-0.11 -4.04,-0.19 -6.04,-0.28 -0.05,-2.83 -0.07,-5.66 -0.07,-8.46zm20.36 -2.41c1.28,0.07 3.85,0.22 5.13,0.28 -0.38,1.98 1.79,7.25 -1.45,6.91 -4.33,0.9 -2.93,-4.78 -3.68,-7.19zm-497.83 -2.27c3.47,-3.17 8.11,-2.07 12.17,-0.94 -0.4,1.45 -1.21,4.36 -1.61,5.81 -3.7,-0.24 -11.17,0.76 -10.56,-4.87zm-85.61 -26.45c9.87,1.08 19.7,2.38 29.51,3.98 6.74,0.66 11.34,6.21 16.51,9.98 -3.21,3.93 -8.28,2.81 -12.66,2.32 1.59,5.53 2.21,11.42 -3.85,14.12 -5.75,-13.7 -20.07,-19.85 -29.51,-30.4zm-75.98 -30.68c9.62,-3.53 18.83,-8.15 28.68,-10.96 -0.77,6.87 -9.36,9.28 -9.53,16.28 -1.13,7.34 6.68,14.25 3,21.44 -6.36,-0.4 -8.34,-8.44 -13.83,-10.93 -8.07,-3.17 -16.62,-4.85 -24.77,-7.77 4.51,-4.38 10.83,-5.72 16.45,-8.06zm4.68 -65.94c16.79,0.17 33.62,1.19 50.3,3.19 -4.81,5.07 -12,5.86 -18.45,7.17 -1.36,9.98 -0.19,19.9 3.04,29.41 -6.08,-1.51 -8.53,-7.24 -11.66,-11.92 -7.06,-9.83 -13.81,-20.08 -23.23,-27.85zm265.85 8.81c3.04,-5.38 1.23,-13.11 6.94,-16.81 0.32,2.68 0.63,5.41 0.95,8.13 2.54,2.11 4.02,4.96 4.73,8.17 4.04,-1.85 8.13,-3.58 12.29,-5.13 -0.51,2.39 -1.02,4.79 -1.53,7.17 -11.68,2.36 -19.59,11.56 -25.42,21.3 -1.32,-7.62 -1.92,-15.85 2.04,-22.83zm67.57 -47.06c2.6,1.06 5.2,2.12 7.81,3.25 0.79,-0.27 2.39,-0.83 3.19,-1.1 5.96,3.91 13.26,3.06 20.05,3.34 -11.68,12.36 -22.49,26.23 -37.56,34.7 -0.04,-1.62 -0.1,-4.87 -0.12,-6.51 3.98,-4.47 7.7,-9.15 11.63,-13.64 -0.29,-7.04 -4.63,-13.02 -5,-20.04zm-41.23 -9.62c1.28,-4.17 2.3,-12.04 8.62,-9.15 6.64,5.79 12.64,12.3 19.59,17.77 -8.34,-1.02 -17.53,-3.28 -25.44,0.59 -5.81,3.83 -10.73,8.9 -16.75,12.47 -2.3,-11.13 12.36,-12.25 13.98,-21.68zm232.98 -23.19c4.57,7.17 6.32,15.57 8.91,23.53 -6.36,-1.7 -12.95,-1.77 -19.46,-1.34 5.68,-6.24 8.19,-14.3 10.55,-22.19zm-347.04 31.85c10.29,-10.34 18.81,-22.75 31.38,-30.53 2.62,6.87 0.68,14.08 -0.02,21.1 4.53,0.17 9.06,0.3 13.62,0.34 0.44,1.17 1.36,3.54 1.8,4.71 -9.59,0.59 -18.93,3.83 -28.61,2.76 -6.11,-0.44 -12.17,0.56 -18.17,1.62zm368.87 -35.15c4.42,4.04 8.91,8.32 14.83,10.11 -3.21,4.34 -6.11,9.08 -10.38,12.49 -2.51,-7.32 -3.45,-15 -4.45,-22.6zm-484.79 -4.38c13.11,5.1 22.87,15.44 33.49,24.19 0.21,1.08 0.64,3.21 0.85,4.28 -3.89,-2.35 -7.83,-4.6 -11.93,-6.52 -1.66,9.03 0.42,19.13 -4.26,27.39 -3.85,-7.28 -6.28,-15.15 -8.98,-22.88 -2.89,-8.89 -7.1,-17.31 -9.17,-26.46zm220.68 -8.96c0.58,0.02 1.73,0.04 2.28,0.06 4.21,8.73 9.57,16.9 13.28,25.83 -4.3,-1.02 -8.51,-2.29 -12.68,-3.7 -2.28,1.62 -4.54,3.26 -6.79,4.92 -1.26,-0.26 -3.81,-0.77 -5.07,-1 -5.12,3.04 -10.29,6 -15.44,8.97 3.04,-6.34 5.49,-14.12 12.47,-17.12 7.12,-3.13 7.8,-12.15 11.95,-17.96zm-117.15 -41.66c12.34,3.96 25.3,2.68 38.02,2.36 -5.08,2.51 -8.91,6.34 -9.27,12.19 2.49,3.58 4.62,7.39 6.49,11.36 -7.43,-1.02 -10.94,-8.65 -17.09,-12.14 -5.91,-4.81 -14.87,-6.2 -18.15,-13.77zm243.22 -14.57c0.66,-4.43 5.34,-2.98 8.32,-2.45 -0.52,3.11 -1.3,6.15 -2.28,9.15 -2.64,-1.6 -7.66,-2.66 -6.04,-6.7zm-130.47 -14.66c15,14.12 29.93,28.32 44.38,43.02 -1.55,19.44 3.96,39.66 17.24,54.25 7.97,9.73 19.44,15.28 30.21,21.26 -19.09,0.87 -38.51,-5.19 -53.17,-17.56 -17.53,-14.34 -27.68,-37.59 -24.87,-60.23 1.74,-15.57 -17.71,-24.74 -13.79,-40.74zm107.51 -0.56c2.47,0.09 6.59,-1.98 7.68,1.41 2.38,3.51 0.02,7.47 -0.66,11.13 -5.23,0.51 -8.62,-2.22 -9.87,-7.15 0.72,-1.34 2.13,-4.05 2.85,-5.39zm13.91 -17.29c3.28,-1.11 7.94,-1.6 7.94,3.27 1.17,5.28 -3.74,6.43 -7.72,5.41 -0.11,-2.9 -0.17,-5.79 -0.22,-8.68zm149.07 -16.75c3.45,0.19 6.89,0.72 10.21,1.81 0,1.17 0.02,3.53 0.02,4.7 -3.15,1.53 -6.57,3.36 -9.91,1.21 -1.47,-2.38 -0.47,-5.17 -0.32,-7.72zm14.49 -15.7c2.42,-2.09 4.36,-6.87 8.3,-5.17 5.14,0.72 4.46,9.44 -0.52,9.7 -3.44,0.6 -5.42,-2.74 -7.78,-4.53zm-17.28 -0.75c-3.53,-3.66 0.94,-7.29 3.41,-9.72 1.78,1.68 3.57,3.4 5.33,5.15 -0.57,1.64 -1.72,4.89 -2.29,6.53 -2.11,-0.66 -5.41,0.55 -6.45,-1.96zm-406.81 -700.17l0 0c-48.91,50.09 -98.34,99.66 -147.47,149.56 -0.78,39.63 -0.53,79.29 -0.55,118.95 -1.64,56.75 -0.45,113.56 -1.6,170.32 -0.14,32.53 0.47,65.11 -0.55,97.64 0.43,9.38 -1.45,19.53 2.68,28.28 39.77,40.91 79.9,81.51 119.87,122.23 -0.87,-7.68 -2.04,-15.3 -2.8,-22.95 3.08,2.23 6.12,4.55 9.23,6.78 5.11,5.62 12.94,7.32 19.87,9.64 -13.83,-38.36 -32.68,-74.68 -50.61,-111.23 -5.34,-11.45 -12.07,-22.3 -16.22,-34.28 44.34,26.51 88.81,53.4 136.64,73.19 -0.36,-11.38 -1.66,-22.74 -1.34,-34.15 20.79,13.15 43.28,23.7 67.15,29.92 11.32,-14.24 21.91,-29.07 33.4,-43.19 13.22,8.99 26.15,18.42 39.11,27.8 9.3,-8.19 17.36,-17.66 26.72,-25.78 9.2,5.4 18.37,10.83 27.64,16.06 2.68,-4.45 5.36,-8.91 7.66,-13.59 9.98,-21.81 22.53,-42.37 35.77,-62.32 7.08,-10.03 13.59,-20.6 22.38,-29.26 3.38,20.02 1.4,40.83 7.7,60.36 4.6,13.53 4.07,28.09 7.24,41.96 1.06,6.23 2.49,12.42 3.85,18.62 11.04,-10.96 21.64,-22.34 32.83,-33.15 0,-42.28 0,-84.56 0,-126.85 -50.98,-5.98 -101.9,-12.96 -153.19,-15.62 0,23.51 0,47.02 0,70.53 -16.79,17.77 -34.37,34.77 -51.45,52.24 -41.51,-2.96 -83.17,-1.75 -124.75,-1.35 -14.76,-14.4 -28.95,-29.38 -44.06,-43.42 1.07,-93.77 2.21,-187.53 2.75,-281.3 19.1,-20.87 39.29,-40.68 59.53,-60.45 32.95,0.47 66,-0.93 98.91,1.77 19.54,20.68 39.88,40.6 59.49,61.23 0.15,20.47 0.96,40.94 0.62,61.43 51.45,2.62 102.55,9.45 153.77,14.62 -0.05,-33.39 0.08,-66.77 -0.05,-100.15 -0.85,-14.96 -0.62,-29.92 -0.45,-44.87 -49.5,-49.13 -98.16,-99.13 -147.76,-148.18 -77.23,-4.44 -154.66,-4.14 -231.96,-1.04zm-353.53 49l0 0c-134.49,29.58 -266.23,71.43 -393.28,124.53 -0.32,33.11 -0.02,66.22 -0.15,99.32 -1.04,28.34 -0.29,56.73 -0.51,85.09 -1.06,33.47 -0.55,66.98 0,100.45 51.77,-23.85 103.11,-48.92 156.92,-67.9 -0.32,-35.55 0.53,-71.08 0.59,-106.61 21.34,-7.66 42.37,-16.26 64.3,-22.11 0,95.15 0,190.32 0,285.47 -1.08,40.72 -0.3,81.47 -0.55,122.19 -25.56,11.47 -51.98,21.1 -76.68,34.4 0.7,59.34 -0.98,118.64 -0.34,177.96 100.91,-51.17 205.36,-96.36 314.64,-126.43 -2.86,-54.97 1.78,-110.06 -1.45,-165.04 -27.85,6.17 -55.04,14.83 -82.43,22.77 -0.23,-97.83 0.98,-195.64 0.51,-293.47 0.98,-34 0.49,-68.04 0.49,-102.06 21.39,-7.73 43.92,-11.37 65.98,-16.43 0.05,33.85 0.05,67.72 0,101.58 48.17,-10.41 96.83,-18.22 145.3,-27.07 -0.34,-64.06 0.87,-128.11 0.49,-192.19 -0.17,-22.87 3.08,-46.3 -2.4,-68.77 -64.2,9.17 -128.13,20.22 -191.43,34.32zm747.13 -30.7l0 0c-2.36,31.6 -0.28,63.28 -1.72,94.89 -0.18,16.34 0.42,32.71 -0.54,49.03 -0.64,6.08 1.36,11.87 3.43,17.49 18.38,4.16 37.19,5.72 55.64,9.55 -0.88,123.59 -1.68,247.21 -2.3,370.83 0.06,8.66 -2.41,18.19 2.3,26.11 6.55,12.27 11.3,25.38 17,38.06 20,34 40.93,67.45 60.91,101.47 5.98,0.66 12.02,0.89 18.04,1.44 -1.98,5.98 -4.1,11.9 -6.29,17.79 5.21,8.45 10.21,17.02 15.44,25.45 75.22,22.59 149.07,50.42 219.19,85.91 59.37,-51.4 118.94,-102.55 178.26,-154.02 1.77,-1.81 4.13,-3.25 5.32,-5.55 0.81,-44.81 0.43,-89.64 0.96,-134.45 0.51,-72.66 1.61,-145.32 1.96,-217.98 22.19,9.38 43.85,20.02 65.27,31.07 -1.38,-58.81 1.32,-117.62 1.58,-176.43 -88.62,-41.96 -181.35,-74.34 -274.47,-104.62 0.17,55.73 -0.15,111.43 -0.47,167.15 17.38,6.04 34.64,12.43 52.04,18.45 -1.1,59.34 -0.1,118.7 -0.68,178.06 -1.13,55.79 0.53,111.64 -0.83,167.43 -17,14.77 -34,29.53 -50.98,44.32 -32.02,-12.83 -63.95,-26.04 -96.91,-36.26 -14.68,-23 -28.68,-46.42 -42.32,-70.04 -2.04,-3.77 -4.98,-7.49 -4.51,-12.02 0.02,-60.26 0,-120.51 0,-180.77 0.34,-49.66 -1.04,-99.34 1.68,-148.93 20.53,5.06 41.08,10.1 61.66,15.04 -2.05,-55.26 2.7,-110.58 -0.6,-165.79 -91.83,-21.64 -184.4,-40.85 -278.06,-52.68zm-373.62 202.87l0 0c0.15,67.58 -1.47,135.11 -1.53,202.68 -1.26,22.56 0.34,45.2 -1.19,67.75 11.47,10.53 22.27,21.72 33.25,32.77 1.92,1.61 3.66,4.36 6.6,3.74 37.15,-0.98 74.45,-2.17 111.53,1.19 14.87,-15.1 30.3,-29.7 44.6,-45.36 -0.03,-26.13 -0.24,-52.26 0.1,-78.36 59.34,4.13 118.45,10.83 177.49,17.85 -0.08,47.55 -0.08,95.13 0.53,142.68 -11.25,11.64 -23.38,22.49 -34,34.72 10.09,-0.76 17.85,-7.83 26.9,-11.55 7.81,14.34 11.49,30.66 20.36,44.38 11.64,-17.87 23.51,-36 30.66,-56.21 1.7,-26.98 0.32,-54.11 0.76,-81.15 0.96,-30.51 0.39,-61.06 0.54,-91.6 1.4,-34.72 -0.32,-69.51 1.08,-104.23 -0.13,-33.79 0.04,-67.59 0.47,-101.38 -15.17,-2.96 -30.51,-4.85 -45.74,-7.36 0.04,38.78 0.04,77.57 0,116.36 -59.34,-5.85 -118.49,-14.3 -178.13,-16.26 0.02,-22.89 0.19,-45.78 -0.56,-68.66 -17.68,-17.98 -35.34,-35.98 -52.83,-54.17 -29.57,-2.89 -59.25,-0.74 -88.89,-1.02 -17.68,17.36 -35.91,34.28 -52,53.19zm258.3 404.03l0 0c-13.96,-8.47 -26.45,-19.13 -40.04,-28.13 -8.26,8.42 -15.43,17.81 -23.77,26.12 -14.4,-10.25 -28.25,-21.27 -42.81,-31.29 -4.96,9.64 -9.06,19.72 -14.64,29.04 -4.19,-0.89 -8.36,-0.38 -12.38,0.81 0.81,2.55 1.43,5.27 2.77,7.68 13.34,22.49 32.02,41.53 54.04,55.62 6.47,-8.3 11.53,-17.58 18.04,-25.86 0.3,1.37 0.89,4.09 1.19,5.45 6.28,5.36 14.17,8.38 20.73,13.38 4.29,3.58 7.53,8.22 11.21,12.43 3.47,0.64 7.53,0.55 9.87,3.79 -15.96,-3 -29.62,-12.13 -44.15,-18.77 -4.36,7 -6.4,15.02 -9.53,22.55 -23.38,-17.21 -47.66,-33.63 -74.19,-45.68 14.04,47.75 39.57,92.34 75.19,127.26 27.13,26.87 53.77,54.42 83.66,78.28 7.09,2.89 13.26,7.31 17.85,13.53 -5.4,-2.92 -10.91,-5.98 -17.19,-6.28 -9.79,-6.32 -19.43,-12.89 -29.21,-19.19 -9.09,4.36 -17.98,13 -28.83,10.43 -26.32,-10.05 -40.53,-41.58 -34.39,-68.41 -31.85,-36.91 -62.91,-74.74 -89.76,-115.47 -9.07,2.49 -13.81,12.96 -15.24,21.54 -3,1.1 -6,2.21 -8.95,3.36 -0.41,5.19 -0.24,10.4 -0.98,15.55 -3.43,4.98 -8.72,8.21 -13.56,11.64 0.73,-19.43 1.6,-38.85 2.2,-58.28 -0.98,-1.02 -2.9,-3.08 -3.85,-4.13 -0.07,-9.7 -0.09,-19.4 0.48,-29.1 -6.25,-2.32 -12.51,-4.68 -18.91,-6.49 -16.51,-5.34 -32.28,-13.07 -49.26,-16.94 10.32,34.47 23.2,68.09 33.9,102.43 -9.11,-0.73 -18.22,-1.75 -27.36,-1.54 4.42,8.32 9.14,16.49 13.57,24.83 -8.15,-0.74 -16.08,-2.7 -24.17,-3.83 -2.21,1.47 -4.34,3.07 -6.36,4.79 -1.85,-0.78 -5.58,-2.34 -7.43,-3.12 -1.59,2.4 -3.15,4.82 -4.72,7.25 -2.13,-1.6 -4.26,-3.21 -6.38,-4.81 -2.24,2.07 -4.47,4.11 -6.75,6.11 5.19,4.36 10.3,8.83 15.47,13.23 6.7,5.85 15.11,9.15 22.66,13.7 3.62,2.24 8.36,4.05 8.91,8.92 -2.55,-1.68 -5,-3.47 -7.42,-5.3 -0.96,0.62 -2.87,1.85 -3.83,2.47 -8.21,-1.49 -12.21,5.94 -16.38,11.47 -1.77,0 -5.34,-0.02 -7.13,-0.05 -0.38,2.43 -0.79,4.83 -1.17,7.28 -2.6,1.47 -5.15,2.98 -7.68,4.49 0.72,6.94 -0.75,14.7 3.27,20.85 9.6,16.19 20.28,31.73 29.51,48.15 -11.08,-9.7 -20.91,-20.83 -32.85,-29.55 -12.72,-12.32 -28.74,-20.32 -42.19,-31.73 -8.42,5.15 -18.3,3.98 -27.7,3.92 -1.23,14.87 8.17,27.13 12.32,40.7 -14.53,2.81 -29.32,4.04 -43.96,6.15 -16,1.15 -31.3,6.38 -46.64,10.66 -4.89,1.02 -7.89,5.13 -10.08,9.3 12.68,10.21 25.83,19.87 38,30.7 -20,7.89 -39.6,16.79 -58.68,26.66 -4.11,2.19 -8.71,3.11 -13.19,4.19 -0.54,5.43 -0.83,10.92 -1.43,16.36 11.06,15 24.28,28.22 36.15,42.56 4.04,3.95 3.26,9.97 4.11,15.12 -3.41,-0.85 -6.83,-1.64 -10.26,-2.36 -1.47,5.66 -5.89,9.38 -10.57,12.51 -2.96,8.43 -5.73,16.94 -9.22,25.17 -3.38,-2.7 -6.74,-5.4 -10.1,-8.1 0.17,-13.43 7.12,-25.45 8.32,-38.64 -1.41,-0.28 -4.24,-0.81 -5.64,-1.09 0.17,-1.36 0.49,-4.12 0.66,-5.49 -3.15,-3.89 -6.54,-7.57 -10.05,-11.1 -5.23,1.98 -10.63,0.29 -15.89,-0.41 3.11,4.94 8.28,7.81 12.15,12.05 2.34,3.97 2.72,8.72 4.08,13.08 -7.65,-0.11 -14.27,-3.34 -19.42,-8.85 -10.3,8.19 -24.19,10.85 -32.89,21.3 -1.56,5.78 -0.75,11.91 -1.45,17.85 -4.41,-0.15 -8.79,-0.39 -13.17,-0.7 -1.85,-5.37 -3.55,-10.85 -7.13,-15.32 -1.94,0.81 -3.87,1.66 -5.81,2.49 0.11,1.7 0.32,5.12 0.43,6.83 -3.07,3.46 -6.26,6.85 -9.64,10 -1.28,-2.43 -2.64,-4.79 -4.09,-7.07 -4.06,-1.81 -8.1,2.58 -7.21,6.53 1.34,12.17 11.13,21.09 13.81,32.88 -4.34,1.02 -8.68,2.02 -13.04,2.95 -1.64,-2.44 -3.28,-4.85 -4.96,-7.25 -7.64,6.11 -16.38,10.72 -23.7,17.21 -0.3,3 -0.11,6.04 -0.11,9.09 7.22,0.27 13.15,5.32 20.64,4.17 7.79,4.87 16.94,3.78 25.68,4.1 1.77,5.94 3.43,11.94 4.73,18.03 -2.11,-1.35 -4.22,-2.71 -6.28,-4.05 -4.07,5.28 -8.68,11.66 -6.19,18.75 4.66,10.1 15.68,14.55 23.1,22.23 -3.76,0.85 -7.53,1.68 -11.32,2.45 -0.63,2.27 -1.25,4.57 -1.87,6.87 -2.11,-1.43 -4.23,-2.85 -6.34,-4.23 -0.04,1.51 -0.13,4.51 -0.17,6 7,2.49 12.98,6.85 17.62,12.63 7.42,0.75 15.04,1.09 21.96,4.15 4.21,-3 8.76,-5.68 14.17,-5.13 0.66,-0.95 2.02,-2.85 2.68,-3.8 6.49,2.25 13.34,2.78 20.14,2.38 2.52,-6.96 2.07,-14.23 0.92,-21.4 8.21,-2.28 16.34,-8.58 16.34,-17.86 0.83,-4.8 -2.13,-8.82 -3.79,-13.04 -0.68,-6.17 0.51,-14.47 -5.06,-18.57 -9.53,-0.56 -18.79,2.42 -27.96,4.68 2.26,-5.07 4.24,-10.21 6.34,-15.32 4.6,0.19 9.17,0.45 13.77,0.85 1.85,-1.66 3.74,-3.32 5.62,-4.96 -4.17,-4.06 -5.56,-9.93 -1.71,-14.76 4.58,-0.3 7.51,-3.26 9.64,-7.05 1.49,3.09 2.96,6.15 4.47,9.26 1.09,0.19 3.28,0.55 4.36,0.74 2.15,3.54 4.43,7.03 6.79,10.45 7.66,-3.85 6.64,-14.23 14.72,-17.96 4.38,3.09 8.36,6.79 11.26,11.39 -2.45,4.17 -0.7,8.83 -0.17,13.21 3.4,-2.26 6.4,-5.19 10.12,-6.94 4.35,-1.19 8.69,0.68 12.88,1.66 -3.71,5.28 -9.73,9.45 -10.34,16.36 -0.71,3.64 -3.9,6.01 -6.09,8.77 -1.87,-2.36 -3.7,-4.74 -5.51,-7.11 -5.08,3.64 -10.34,7.07 -15.55,10.51 -0.43,-5.29 -0.19,-10.72 -1.79,-15.82 -4.68,-0.81 -7.19,4.85 -9.47,8.1 4.09,7.68 9.79,14.26 14.49,21.53 0.28,-0.95 0.85,-2.85 1.13,-3.78 7.89,3.53 15.94,6.68 23.72,10.46 7.51,0.52 15.07,0.75 22.6,1.15 0.08,0.9 0.25,2.66 0.34,3.56 4.45,-0.73 8.89,-1.39 13.34,-2.07 0.25,4.47 3.66,5.53 7.47,5.83 0.19,-4.83 -0.53,-10.36 3.17,-14.13 8.93,-10.29 20.72,-17.57 30.1,-27.4 2.07,-5.23 0.43,-11 -0.78,-16.21 -7.75,2.81 -15.47,5.68 -23.34,8.1 11.76,-14.74 22.93,-30.02 36.06,-43.59 7.43,-11.21 14.19,-22.92 19.19,-35.45 4.53,6.55 8.34,15.58 4.17,23.21 -3.61,6.75 -6.81,14.13 -5.34,22 -5.25,1 -4.21,7.41 -6.04,11.22 -1.02,5.74 -5.64,10.3 -5.77,16.27 -0.7,8.43 1.6,17.68 -3.27,25.24 -4.66,7.21 -4.26,16.23 -3,24.36 1.49,10.36 10.72,16.79 17.42,23.89 6.58,2.64 14.32,3.02 19.87,7.96 0.66,5.43 0.22,10.92 0.22,16.38 3.98,0.3 7.95,0.58 11.95,0.66 3.24,-2.02 6.92,-3.1 10.64,-3.87 -0.1,-1.19 -0.32,-3.6 -0.42,-4.81 4.32,1.73 8.59,3.6 12.91,5.36 9.3,3.79 19.87,3.05 28.9,7.73 9.02,-8.98 21.8,-11.68 34,-8.26 6.23,3.64 11.91,8.72 18.34,11.7 2.29,-6.95 -3.66,-12.36 -8.02,-16.8 -4.35,-2.13 -9.39,0.32 -13.94,0.38 0.11,-3.47 0.21,-6.89 0.4,-10.32 5.17,-2.89 7.43,-8.19 6.85,-13.98 -4.87,2.92 -9.51,6.15 -14.16,9.38 -1.35,-1.64 -2.71,-3.27 -4.05,-4.89 0.9,-2.38 1.77,-4.74 2.64,-7.09 -7.6,0.05 -13.6,4.88 -20.51,7.15 -5.58,4.03 -11.58,7.39 -17.58,10.71 2.2,-9.41 4.94,-20.49 15.09,-24.22 1.77,-2.36 3.53,-4.7 5.38,-7 -0.95,-4.72 -0.53,-10.1 -3.87,-13.98 -0.49,-5.08 -0.87,-10.17 -1.21,-15.23 3.06,-0.08 6.17,-0.17 9.25,-0.23 6.66,5.21 7.51,13.93 12.15,20.53 1.66,-4.98 3.15,-9.98 4.56,-15.02 3.04,2.59 6.21,5.08 9.14,7.85 3.64,2.7 2.15,8 5,11.34 3.26,-9.26 -3.4,-16.21 -7.12,-23.83 4.78,0.47 9.57,1.06 14.36,1.62 1.34,1.8 2.76,3.59 4.28,5.34 3.27,-1.54 6.27,-3.54 9.38,-5.34 -0.19,-5.94 -0.51,-11.88 -0.72,-17.79 0.95,0.15 2.85,0.42 3.78,0.57 -0.1,-10 -0.21,-20 0.73,-29.95 3.72,2.83 7.44,5.68 11.1,8.63 0.98,3.62 1.34,7.64 4.28,10.34 -0.02,2.28 -0.07,4.56 -0.09,6.85 5.17,10.07 7.94,20.98 6.36,32.37 -9.14,-1.24 -19.63,-0.45 -25.99,7.08 -0.66,4.58 -1.56,9.15 -2.66,13.66 -1.73,1.77 -3.32,3.64 -4.81,5.64 0.46,4.13 3.38,7.25 5.78,10.42 -2.21,2.69 -4.38,5.39 -6.46,8.18 4.51,5.08 12.14,6.42 15.36,12.7 3.1,0.04 6.21,0.13 9.34,0.19 -3.11,3.15 -6.24,6.3 -9.17,9.6 15.25,0.1 30.34,-2.62 45.53,-3.47 5.38,3.83 7.57,10.89 12.79,15 5.15,3.32 11.76,4.98 15.25,10.42 2.92,3.73 3.98,8.39 5.15,12.87 3.81,0.41 7.66,0.79 11.51,1.13 21.58,1.05 41.92,12.07 63.79,9.49 42.3,-2.85 85.38,-20.59 111.89,-54.64 -4.55,-4.95 -9.23,-9.8 -13.25,-15.21 6.47,-3.15 12.68,-8.13 20.27,-7.59 2.96,-1.79 5.92,-3.58 8.9,-5.35 -1.32,-4.53 -1.96,-10.27 -6.68,-12.65 -4.3,-2.13 -9.05,-3.11 -13.58,-4.58 7.51,-5.28 15.64,-10.25 20.11,-18.6 1.55,0.22 4.7,0.66 6.28,0.88 2.23,-3.02 4.44,-6.07 6.61,-9.15 -5.44,-7.72 -11.27,-15.19 -17.08,-22.64 1.1,-0.45 3.34,-1.38 4.47,-1.83 7.89,2.47 16.78,3.21 22.7,9.7 4.62,-0.55 9.23,0.09 13.79,0.96 0.25,1.53 0.74,4.57 0.97,6.11 6.92,-2.54 13.28,-6.24 19.83,-9.51 0.6,-0.86 1.79,-2.58 2.39,-3.43 1.12,-0.43 3.4,-1.28 4.55,-1.7 0.3,-8.51 0.87,-17.02 2.49,-25.38 7.57,7.97 16.25,14.91 22.59,24.02 -16.36,12.04 -32.66,24.19 -49.29,35.89 -8.53,6 -18.24,10.15 -26.66,16.32 2.78,7.1 7.21,13.85 6.06,21.89 -6.13,3.04 -11.83,7.05 -15.34,13.09 3.09,6.15 6.83,12.02 11.58,17.06 3.51,0.64 6.76,2.11 9.91,3.75 2.4,-0.15 4.83,-0.28 7.28,-0.41 5.89,3.85 14.97,10.21 20.7,2.96 8.08,-2.02 12.74,-10.02 20.66,-12.51 7.34,-3.15 16.04,-2.11 22.45,2.66 5.42,4.79 11.95,-0.68 18.06,-0.79 4.76,-13.68 17.17,-22.36 27.66,-31.51 8.28,-4.74 14.21,-12.51 22.51,-17.19 -1.19,-1.21 -2.38,-2.41 -3.55,-3.6 -2.05,2.49 -4.11,4.96 -6.24,7.39 -1.7,-4.15 -3.3,-8.3 -4.81,-12.47 9.2,-10.79 19.64,-20.36 30.2,-29.75 -4.24,-0.46 -8.45,-0.76 -12.64,-1.12 11.83,-16.39 24.66,-32.13 34.42,-49.9 -2.15,0.6 -6.42,1.77 -8.57,2.36 -1.9,-7.72 -0.02,-15.19 1.98,-22.61 -5.9,1.74 -11.92,3.78 -16.66,7.81 -0.51,2.76 -0.9,5.57 -1.15,8.42 -5.19,0.38 -10.43,0.41 -15.51,-0.72 -0.68,-9.17 -0.47,-18.36 -0.43,-27.53 -0.15,-4.84 3.47,-8.52 5.24,-12.71 0.53,-4.47 0.23,-8.95 0.27,-13.4 -4.21,-2.09 -8.3,-4.51 -12.81,-5.83 -5.42,-1.13 -7.34,-7.02 -10.19,-11.02 -3.64,-0.45 -7.3,-0.73 -10.89,-1.3 -4.11,-2.11 -7.21,-5.7 -10.79,-8.53 -13.74,15.23 -28.51,29.51 -42,44.96 -13.23,11.61 -24.28,25.4 -36.74,37.78 -19.28,15.94 -39.96,30.28 -61.94,42.28 6.6,-13.13 13.96,-25.87 21.28,-38.6 3.66,-9.12 4.25,-19.44 3.04,-29.14 -10.53,3.04 -21.55,1.97 -32.32,3.38 -36.87,4.32 -74.57,9.81 -108.17,26.51 -14.55,5.44 -29.72,9.25 -43.87,15.81 -4.68,2.27 -10.07,2.55 -14.79,4.61 -8.11,5.45 -15.38,12.07 -23.45,17.58 -1.97,-14.09 -2.49,-28.3 -4.31,-42.41 -13.24,2.47 -25.3,8.79 -38.35,11.94 -2.27,-8.23 -3.66,-16.7 -5.27,-25.08 -8.41,5.14 -16.6,10.68 -25.43,15.1 4.53,-21.21 9.62,-42.34 14.81,-63.38 10.87,4.15 20.66,10.66 31.72,14.38 23.03,7.9 45.98,17.15 70.49,18.96 29.3,3.62 58.36,-3.43 86.81,-9.58 17.13,-4.74 34.07,-10.19 50.94,-15.78 35.02,-7.6 71.21,-8.02 106.72,-4.02 9.17,-13.26 22.77,-23.56 28.9,-38.75 3.61,-12.49 13.7,-21.4 19.61,-32.68 -3.72,-7.06 0.11,-16.06 -5.53,-22.13 -3.98,10.43 -7.87,21.28 -15.34,29.81 -9.32,9.62 -19.7,18.3 -27.79,29.07 -3.36,-1.54 -6.76,-3.01 -10.42,-3.43 -30.3,-4.83 -60.98,-7.11 -91.64,-7.57 -26.43,-0.09 -52.55,4.12 -78.58,8.21 -26.4,0.76 -52.1,12.27 -70.14,31.57 -4.28,-3.95 -8.69,-7.81 -13.07,-11.64 -1.98,2.26 -2.81,6.05 -5.91,7 -11.37,-0.49 -22.66,-2.87 -33.24,-7.08 -4.81,-2.04 -10.1,-0.89 -15.15,-1.32 -0.51,-1.32 -1.53,-3.96 -2.06,-5.28 -6.87,-2 -14.19,-3.49 -20.11,-7.7 -4.08,-4.85 -2.97,-11.79 -4.21,-17.64 -3.15,7.56 -11.57,11.09 -13.74,18.96 -5.68,3.36 -11.77,6.28 -16.45,11.04 -7.38,6.81 -12.53,15.58 -19.64,22.62 -1.49,-13.7 -0.77,-27.49 -0.08,-41.19 1.17,-8.49 3.49,-16.79 4.27,-25.32 -4.76,1.53 -9.44,3.38 -14.34,4.49 -4.85,-0.28 -9.62,-1.55 -14.49,-1.34 -5.36,0.87 -9.55,4.53 -13.53,7.96 -1.32,-0.11 -3.94,-0.32 -5.26,-0.45 -7.29,10.38 -16.57,19.68 -28.48,24.57 0.1,-4.12 0.21,-8.23 0.29,-12.34 16.56,-16.93 29.6,-37.23 37.77,-59.49 3.57,2.56 7.11,5.24 10.51,8.09 0.64,5.76 1.89,11.45 4.19,16.81 10.32,-3.98 20.41,-8.53 30.68,-12.58 2.94,-1.7 5.83,1 8.68,1.66 -0.15,12.58 3.28,24.75 6.51,36.79 3.79,-3.34 7.54,-6.68 11.2,-10.13 7.87,0.58 16.85,0.55 21.63,8.02 1.34,-0.17 4.05,-0.53 5.39,-0.7 6.64,6.98 11.63,16.85 21.85,19.09 18.89,5.57 39.87,5.36 58.44,-1.41 20.05,-9.74 41.73,-17.53 58.03,-33.36 4.97,-6 13.1,-6.6 19.68,-9.96 43.66,-20.68 92.27,-31.68 140.66,-29.66 14.85,-8.64 30.49,-16.57 47.59,-19.49 7.15,-1.61 14.64,-0.98 21.73,-2.89 2.49,-5.62 6.14,-10.43 10.61,-14.6 5.43,-10.42 6.17,-22.51 9.66,-33.63 -2.93,2.1 -5.81,4.29 -8.76,6.38 0.15,-9.09 -0.73,-18.24 0.42,-27.26 4.11,-13.36 10.13,-26.08 13.9,-39.55 -1.26,-6.19 -9.58,-8.02 -14.54,-11.15 1.24,12.28 -6.42,23.34 -13.04,33.04 -7.72,7.32 -9.68,18.07 -13,27.73 -0.62,-2.94 -1.21,-5.94 -0.42,-8.9 2.97,-17.17 7.87,-33.98 10.76,-51.17 -4.02,-3.23 -8.02,-6.46 -11.83,-9.91 -4.93,-0.36 -9.89,-0.45 -14.81,-0.58 2.45,-33.32 -1.68,-66.89 -10.47,-99.04 -3.65,8.34 -7.14,16.77 -10.06,25.41 -10.19,-1.28 -20.23,-3.54 -30.45,-4.64 -4.66,9.85 -7.76,20.47 -14.02,29.53 -0.57,-14.06 -1.76,-28.11 -1.51,-42.19 1.73,-0.17 5.17,-0.51 6.88,-0.66 -3,-2.79 -9.98,-3.19 -9.41,-8.45 0.38,-5.79 -4.98,-9.17 -8.17,-13.21 -11.55,7.74 -22.42,16.51 -34.62,23.21 -8.61,-28.68 -21.19,-55.98 -31.06,-84.23 -9.47,21.64 -19.26,43.12 -28.68,64.79zm204.36 49.14l0 0c3.4,16.26 7.28,32.43 10.04,48.81 7.09,0.87 14.19,1.64 21.32,2.15 -10.76,-16.79 -20.19,-34.42 -31.36,-50.96zm-578.06 124.28l0 0c0.06,7.11 6.44,-3.02 0,0zm12.46 4.21l0 0c-3.04,6.47 7.09,0.05 0,0zm305.98 34.47l0 0c2.47,-5.15 4.58,-10.45 6.6,-15.79 -3.24,-4.93 -7.28,-9.27 -11.66,-13.21 -2.66,9.96 -0.62,20.49 5.06,29zm-613.95 45.13l0 0c-7.3,25.11 -6.66,51.89 -2.71,77.53 3.15,21.04 12.85,40.17 22.54,58.85 -3.79,-0.19 -7.58,-0.47 -11.35,-0.57 5.49,15.59 14.52,29.72 25.37,42.13 4.98,-7 7.08,-15.73 4.17,-23.98 -3.36,-6.81 -9.28,-11.85 -13.73,-17.9 6.58,-0.19 13.17,-0.1 19.73,0.66 3.25,2.17 7.06,2.43 10.76,1.3 3.39,0.55 6.79,0.94 10.22,1.26 -1.07,-8.9 -4.28,-17.22 -8.6,-25 12.23,4.65 24.45,9.95 37.55,11.53 -2.06,-4.22 -5.34,-7.58 -8.68,-10.79 -11.72,-11.57 -22.36,-24.57 -29.08,-39.74 -1.54,3.97 -3.05,7.99 -4.54,12.02 -11.38,-15.77 -20.61,-33.11 -33.55,-47.73 -9.93,-11.12 -11.23,-26.78 -18.1,-39.57zm826.04 8.7l0 0c-2.94,3.28 -7.32,3.94 -11.43,4.58 -3.53,2.87 -6.78,6.19 -10.91,8.23 -5.34,-2.23 -10.94,-3.62 -16.45,-5.28 -14.47,0.98 -29.08,0.51 -43.47,2.36 -11.89,3.15 -24.02,5.2 -36.04,7.71 -6.89,0.32 -9.28,9.27 -16.64,8.12 -8.17,7.32 -16.98,14 -24.4,22.15 10.62,-2.59 18.17,-11.29 28.42,-14.8 4.66,2.19 9.34,4.38 14,6.59 5.26,-4.72 10.19,-9.79 15.26,-14.72 7.4,2.36 14.83,4.68 22.23,7.1 4.81,-3.23 9.11,-7.46 14.43,-9.8 7.83,1.76 15.25,5.04 23.13,6.7 3.38,-3.34 6.87,-6.58 10.44,-9.73 3.79,3.39 7.62,6.71 11.6,9.9 4.68,-6.92 8.08,-14.85 14.66,-20.28 3.53,4.55 6.47,9.58 10.4,13.81 3.6,0.11 5.62,-3.47 7.34,-6.09 4.15,-7.68 11.17,-14.66 10.15,-24.08 -7.98,0.55 -16.93,1.3 -22.72,7.53zm-648.62 203l0 0c-0.08,7.15 6.43,-2.96 0,0zm95.04 59.66l0 0c1.83,-0.02 5.45,-0.06 7.26,-0.08 0.83,1.04 2.49,3.14 3.32,4.19 3.4,-0.51 6.85,-0.77 10.17,-1.71 0.91,-2.23 1.7,-4.48 2.42,-6.76 -7.93,-3.53 -17.53,-2.83 -23.17,4.36zm-89.93 35.68l0 0c-5.9,-1.49 -10.56,3.41 -16.45,3 -3.19,4.09 -7.45,7.09 -11.81,9.83 -0.57,-2.53 -1.13,-5.02 -1.68,-7.51 -3.32,-0.11 -6.64,-0.19 -9.96,-0.3 -5.21,3.94 -11.72,4.6 -18.04,4.66 -5.72,-0.51 -7.98,7.07 -13.74,6.58 -0.96,5.93 -6.43,7.55 -11.15,9.7 -0.96,3.55 -0.56,8.06 -5.04,9.3 1.44,2.32 2.93,4.64 4.44,6.95 6.51,-2.97 13.92,-1 18.98,3.83 4.51,-3.38 11,-2.21 14.64,-6.95 -0.77,-7.09 2.68,-13.26 7.47,-18.13 1.29,4.13 2.91,8.19 5.4,11.79 2.7,-1.62 7.6,-1.02 8.43,-4.86 1.53,-6.63 8.51,-8.5 13.81,-11.21 0.04,1.7 0.14,5.13 0.19,6.83 0.7,-0.3 2.1,-0.87 2.8,-1.17 2.26,2.68 4.39,9.66 9.13,7.13 6,-3 12.51,-4.77 18.6,-7.55 0.51,-1.94 1.51,-5.83 2.02,-7.77 -4.66,-4.77 -10.74,-8.45 -13,-15.06 -1.7,0.23 -3.38,0.53 -5.04,0.91zm-135.43 5.7l0 0c-4.51,3.92 -7.25,12.03 -14.55,8.09 -2.58,3.23 -3.87,7.13 -4.66,11.15 -2.3,1.53 -4.58,3.08 -6.83,4.7 4.96,1.7 9.76,3.89 13.94,7.13 -0.41,-4.19 -0.66,-8.41 -0.86,-12.58 2.73,0.09 5.45,0.17 8.2,0.3 0,-1.57 0,-4.7 0,-6.25 2.06,-0.79 4.15,-1.56 6.23,-2.3 2.02,-3.53 4.04,-7.04 5.87,-10.64 -2.47,-0.02 -4.91,0.11 -7.34,0.4zm25.89 4.54l0 0c-3.02,4.27 -5.16,9.06 -7.93,13.51 -2.66,3.15 -6.36,5.25 -9.04,8.44 -0.13,2.66 -0.13,5.32 0,8.03 6.55,0.1 12.78,2.02 18.55,5.06 0.81,-9.24 1.89,-18.43 2.06,-27.68 1.54,0.25 4.62,0.76 6.17,1.02 3.58,-3.11 7.13,-6.19 10.77,-9.21 -6.83,0.68 -13.7,1.12 -20.58,0.83zm295.88 5.04l0 0c0.25,2.76 0.57,5.57 0.89,8.38 -4.74,-1.85 -4.57,3.81 -6.42,6.53 -3.13,0.51 -6.28,0.66 -9.41,0.94 -1.38,2.85 -3,5.59 -5,8.08 -7.25,-1.87 -12.49,4.47 -15.76,10 -3.17,6.2 -0.68,13.66 3.76,18.56 5.41,-3.49 10.94,-7.45 17.7,-7.24 3.6,3.69 6.96,7.79 11.85,9.81 0.41,-7.64 -5.82,-15 -2.29,-22.4 3.1,-6.66 10.38,-9.32 16.04,-13.28 5.23,-4.62 9.13,-10.49 13.19,-16.13 -8.02,-2.19 -16.28,-3.02 -24.55,-3.25zm457.32 12.87l0 0c-0.85,5.02 1.53,9.87 1.98,14.85 -2.34,3.53 -6.24,5.55 -9.41,8.24 1.32,2.4 3.26,3.85 5.81,4.36 3.47,-3.73 6.7,-7.66 10.47,-11.11 4.81,6.02 3.32,13.62 3.28,20.72 2.55,0.28 5.12,0.58 7.72,0.9 0.7,3.87 2.3,7.45 4.53,10.7 4.87,-8.62 13.51,-15.04 23.62,-15.47 0.25,-2.89 2.47,-6.19 0.23,-8.76 -2.3,-5.43 -8.53,-6.66 -12.62,-10.24 -2.02,-5 -2.02,-10.55 -3.99,-15.57 -5.81,2.64 -11.32,-0.81 -16.73,-2.6 0.66,-3.64 2.58,-7.83 -1.59,-10.06 -5.47,3.51 -9.35,9 -13.3,14.04zm-510.15 -10.17l0 0c-4,7 -10.94,12.28 -11.87,20.79 -2.77,0.83 -7.26,0.51 -8.09,4.15 -0.34,4.15 0.02,8.36 0,12.55 -3.06,0.43 -6.11,0.89 -9.13,1.43 0.56,1.93 1.13,3.91 1.73,5.89l2.21 -4.17c6.3,-0.9 12.77,-0.55 18.96,0.83 -0.09,-8.6 5.19,-15.72 8.12,-23.47 6.3,-5.7 15.83,-9.43 17.62,-18.72 -6.51,-0.79 -12.98,2.13 -19.55,0.72zm107.83 10.85l0 0c-3.21,-1.98 -6.75,-3.02 -10.51,-2.4 -4.77,9.59 -16.38,12.49 -20.77,22.36 -1.68,-0.11 -5.08,-0.3 -6.76,-0.41 -2.94,5.01 -0.83,10.39 0.8,15.41 5.73,-0.79 11.24,-2.57 16.94,-3.45 5.51,-0.19 8.28,5.36 11.32,9.02 4.7,-3.23 9.04,-7.27 11.28,-12.66 -1.68,-5.32 -4.88,-10.14 -5.05,-15.89 7.36,0.53 14.83,3.02 17.98,10.32 2.3,-1.43 4.6,-2.83 6.87,-4.26 10,-4.66 4.98,-17.49 4.64,-25.97 -3.25,1.87 -6.51,3.78 -9.72,5.72 -4.85,-2.87 -7.02,-8.6 -12.02,-11.17 -0.45,4.87 -1.47,9.7 -5,13.38zm500.36 -11.81l0 0c1.85,2.88 3.04,6.77 7.11,7.05 -1.07,0.06 -3.17,0.19 -4.22,0.25 1.62,5.55 0.32,13.13 6,16.62 3.13,2.51 6.77,4.44 9.66,7.32 1.56,4.32 0.22,9.12 0.32,13.64 5.79,-3.79 11.85,-7.69 19.02,-7.92 -0.12,-1.74 -0.4,-5.26 -0.53,-7 -4.1,-1.21 -8.23,-2.34 -12.32,-3.51 -0.53,-4.15 -0.93,-8.3 -1.32,-12.45 -7.78,2.47 -11.63,-4.7 -13.8,-10.81 -1.13,-4.68 -6.47,-3.21 -9.92,-3.19zm-44.08 6.53l0 0c2.78,4.47 5.66,8.92 7.36,13.96 2.46,6.77 9.49,10.96 10.72,18.3 1.28,5.11 -0.74,10.26 -1.17,15.34 4.45,-8.21 13.49,-10.28 21.02,-14.62 0.15,-11.32 -6.27,-24.68 -18.23,-26.97 -3.75,-1.75 -3.98,-7.03 -5.94,-10.3 -4.7,1.06 -9.23,2.72 -13.76,4.29zm-398.05 5.73l0 0c-2.64,-2.75 -5.51,-5.26 -8.61,-7.43 -2.45,2.51 -4.83,5.07 -7.2,7.66 0.07,7.17 -1.02,21.13 9.66,20.22 5.6,0.46 6.79,-5.41 7.66,-9.56 3.24,-0.23 6.47,-0.34 9.73,-0.4 1.83,4.04 3.25,8.27 0.23,12.25 5.79,3.07 11.28,6.66 16.55,10.56 1.17,-5.43 0.62,-12.6 6.9,-14.88 7.74,-3.23 16.72,-3.46 24.72,-0.93 -2.06,-4.51 -6.4,-6.45 -11.11,-7.07 -2.76,-4.89 -4.91,-13.49 -12.06,-12.53 -8.08,0.07 -16.19,-1.38 -23.34,-5.32 -3.66,3.6 -8.15,6.13 -13.13,7.43zm-291.08 3.17l0 0c-4.11,2.19 -2.81,7.55 -3.83,11.38 -1.05,11.66 -9.49,20.49 -14,30.85 9.68,-7.19 21.25,-13.29 27.38,-24.08 1.85,-7.17 3.74,-14.92 1.7,-22.26 -3.83,1.09 -7.87,1.9 -11.25,4.11zm574.4 4.68l0 0c-4.02,0.94 -6.89,-2.4 -9.79,-4.49 -4.95,3.72 -10.25,7.02 -16.08,9.15 12.08,2.3 27.96,10.72 23.98,25.47 4.45,-0.81 9.7,-0.88 12.91,-4.58 2.94,-3.4 1.71,-8.98 5.39,-11.87 3.14,-3.02 6.19,1.6 9.06,2.89 3.85,-1.29 7.72,-2.46 11.66,-3.49 0.98,-5.89 2.51,-11.66 3.98,-17.44 -8,-2.43 -15.83,-1.02 -22.85,3.34 -0.47,-1.77 -1.45,-5.34 -1.94,-7.13 -6.23,1.04 -11.11,4.91 -16.32,8.15zm-763.13 4.64l0 0c-11.38,12.17 -11.19,30.53 -9.38,46.04 3.55,-6.98 6.55,-14.36 11.34,-20.62 6.15,-6.12 14.21,-9.87 20.32,-16.02 3.45,-6.96 -3.7,-14.27 -10.32,-15.21 -4.89,-1.09 -8.81,2.64 -11.96,5.81zm90.24 4.81l0 0c0.04,8.31 -1.19,16.93 1.53,25.02 2.83,9.64 4.57,20.7 12.62,27.61 0.7,-10.63 -1.92,-21.25 -0.19,-31.82 0.59,-5.07 0.78,-10.2 0.59,-15.26 -3.06,-5 -9.21,-5.83 -14.55,-5.55zm-41.68 5.29l0 0c-5.39,7.88 -8.49,17.94 -6.05,27.43 2.92,12.38 9.68,25.3 22.09,30.3 -2.55,-12.07 -6.45,-24.32 -4.92,-36.77 1.88,-7.89 7.41,-17.57 -0.68,-23.87 -3.49,0.72 -8.27,-0.72 -10.44,2.91zm475.36 0.73l0 0c8.06,18.3 -4.51,36.44 -13.21,51.96 8.7,-5.58 17.74,-11.01 24.68,-18.77 7.55,-8.24 9.49,-21 5.08,-31.19 -4.85,-3.51 -11.02,-2.83 -16.55,-2zm193.51 22.68l0 0c-1,13.3 3.74,26.34 10.17,37.76 4.36,-14.66 3.6,-31.06 12.55,-44.08 1.77,-4.17 6.24,-5.45 10.09,-6.87 -1.49,-7.68 -9.73,-12.11 -17.07,-9.7 -10.29,2.36 -14.14,13.68 -15.74,22.89zm-437.21 -6.75l0 0c-2.73,2.98 -1.85,7.26 -1.77,10.92 1.98,16.28 13.4,31.59 29.17,36.76 -9.02,-14.91 -14.6,-32.1 -12.6,-49.7 -1.21,-0.51 -3.65,-1.53 -4.87,-2.04 -3.44,0.89 -7.83,0.64 -9.93,4.06zm674.12 -2.68l0 0c-4.74,2.51 0.6,7.68 0.88,11.36 0.76,8.81 -4.37,16.92 -7.92,24.71 13.58,-5.49 24.13,-18.6 25.32,-33.34 -3.15,-6.39 -12.98,-6.39 -18.28,-2.73zm-50.02 5.92l0 0c2.79,4.15 6.49,8.4 6.24,13.76 -0.15,7.77 -5.05,14.19 -8.26,20.92 12.51,-5.07 23.45,-15.92 25.53,-29.64 0.41,-3.4 1.56,-7.45 -0.95,-10.36 -7.81,-1.53 -16.24,0.49 -22.56,5.32zm-574 2.44l0 0c-2.21,5.66 -3.32,12.77 0.43,18.07 5.96,9.47 14.02,17.49 23.4,23.59 -8.49,-14.46 -7.02,-31.53 -7.57,-47.59 -5.45,1.87 -11.49,2.53 -16.26,5.93zm52.34 -3.12l0 0c-0.21,7.74 1.88,15.4 4.11,22.78 5.85,7.66 11.3,15.75 19.45,21.26 -2.9,-11.91 -4.94,-24.04 -5.62,-36.3 -0.06,-4.11 -1.75,-7.89 -3.34,-11.59 -4.87,0.59 -11.7,-1.32 -14.6,3.85zm475.64 9l0 0c9.77,8.34 0.43,21.04 -0.34,31.23 6.02,-3.38 11.85,-7.42 15.96,-13.11 5.77,-7.76 11.4,-19.06 3.68,-27.42 -7.83,-2.34 -17.62,0.36 -19.3,9.3z"/>
   <g>
    <path class="fil2" d="M866.94 162.48c71.34,-3.04 142.83,-3.53 214.1,0.79 1.87,-0.05 3.54,0.46 5,1.53 45.66,46.12 91.7,91.94 137.41,138.04 1.19,39.89 0.1,79.81 -0.07,119.68 -40.38,-4.3 -80.72,-9.25 -121.25,-11.89 0.02,-17.79 0.15,-35.6 -0.56,-53.39 -20.74,-20.87 -41.23,-42 -61.74,-63.1 -3.4,-3.34 -6.92,-7.55 -12.21,-7.06 -35.81,-2.64 -71.77,-1.03 -107.62,-1.43 -23.51,22.7 -47.06,45.47 -68.51,70.15 -0.36,98.21 -2.36,196.38 -2.55,294.59 17.7,17.77 35.61,35.3 53.49,52.9 45.59,-0.7 91.4,-3.04 136.85,2.19 21.1,-20.34 41.08,-41.79 61.91,-62.4 -0.19,-20.22 -0.15,-40.45 -0.02,-60.66 40.49,3.19 80.83,7.97 121.15,13 0.04,35.06 -0.09,70.14 0.06,105.21 -6.85,7.27 -14.55,13.79 -20.76,21.68 -3.17,-13.87 -2.64,-28.43 -7.24,-41.96 -6.3,-19.53 -4.32,-40.34 -7.7,-60.36 -8.79,8.66 -15.3,19.23 -22.38,29.26 -13.24,19.95 -25.79,40.51 -35.77,62.32 -2.3,4.68 -4.98,9.14 -7.66,13.59 -9.27,-5.23 -18.44,-10.66 -27.64,-16.06 -9.36,8.12 -17.42,17.59 -26.72,25.78 -12.96,-9.38 -25.89,-18.81 -39.11,-27.8 -11.49,14.12 -22.08,28.95 -33.4,43.19 -23.87,-6.22 -46.36,-16.77 -67.15,-29.92 -0.32,11.41 0.98,22.77 1.34,34.15 -47.83,-19.79 -92.3,-46.68 -136.64,-73.19 4.15,11.98 10.88,22.83 16.22,34.28 17.93,36.55 36.78,72.87 50.61,111.23 -6.93,-2.32 -14.76,-4.02 -19.87,-9.64 -17.85,-19.76 -37.3,-38.02 -55.6,-57.38 -16.87,-16.51 -32.83,-33.92 -49.83,-50.32 -2.91,-3.38 -7.36,-6.45 -7.4,-11.36 -0.64,-13.58 0.19,-27.15 0.38,-40.73 -0.12,-83.7 1.24,-167.38 1.13,-251.08 1.34,-34.06 -0.34,-68.13 -0.06,-102.19 46.7,-47.11 93.38,-94.26 139.81,-141.64zm469.78 1229.53c1.28,1.07 1.28,1.07 0,0zm-116.98 -148.96c1.17,1.09 1.17,1.09 0,0l0 0zm-443 -293.85c7.09,0.05 -3.04,6.47 0,0zm-12.46 -4.21c6.44,-3.02 0.06,7.11 0,0zm477.15 -111.02c1.06,1.28 1.06,1.28 0,0l0 0zm27.19 -650.92c83.19,11.49 165.55,28.22 247.25,47.49 1.87,43.92 -1.23,87.83 -0.49,131.75 -20.23,-4.73 -40.36,-9.9 -60.57,-14.6 -3.04,54.28 -2,108.62 -2.15,162.96 -0.02,63.83 0,127.66 -0.02,191.49 -0.49,5.4 3,9.83 5.45,14.32 15,26.04 30.49,51.79 46.63,77.15 37.81,11.47 74.17,26.95 110.85,41.47 21.35,-18.81 43.03,-37.2 64.3,-56.07 0,-38.81 -0.36,-77.62 0.19,-116.4 0.94,-58.43 -0.49,-116.9 0.81,-175.32 -0.04,-24.15 -0.02,-48.3 0,-72.45 -17.17,-6.32 -34.49,-12.23 -51.63,-18.62 0.17,-44.25 -0.26,-88.51 0.55,-132.72 81.96,26.62 163.23,55.87 241.47,92.17 0.04,46.51 -1.96,93 -1.66,139.51 -20.9,-10.62 -42.49,-19.79 -64.15,-28.68 -1,12.55 -0.68,25.17 -0.68,37.74 -1.11,110.6 -2.49,221.18 -2.64,331.79 -56.6,49.26 -113.53,98.13 -170.3,147.17 -65.96,-32.72 -135.11,-58.76 -205.53,-80.04 -23.79,-38.7 -47.04,-77.7 -70.53,-116.57 -10.39,-17.73 -21.81,-34.92 -31.54,-52.98 -1.1,-43.85 0.58,-87.75 0.26,-131.62 0.62,-93.06 1.38,-186.13 1.62,-279.21 -19.28,-5.53 -39.32,-7.05 -58.94,-10.81 1.94,-42.96 0.04,-85.96 1.45,-128.92zm-1139.88 148.07c177.83,-73.85 365.22,-124.36 555.79,-151.64 -0.83,45.87 -0.04,91.79 -1.06,137.66 -0.11,30.42 0.42,60.85 -0.55,91.23 -37.58,6.85 -75.24,13.22 -112.71,20.68 -0.06,-30.29 0.11,-60.61 -0.04,-90.91 0.28,-4.36 -4.3,-6.6 -6.57,-9.64 -30.37,7.55 -61.56,12.19 -90.98,23.26 -0.26,4.74 -0.51,9.49 -0.71,14.23 -0.53,68.77 0.56,137.55 -0.68,206.32 0.07,69.45 0.17,138.91 -0.44,208.36 28.17,-6.72 55.46,-16.64 83.66,-23.28 1.49,44.05 -2.05,88.07 -0.17,132.11 -97.22,28.02 -190.96,67.09 -281.37,112.32 -0.08,-47.21 0,-94.43 -0.04,-141.64 25.32,-12.25 51.81,-21.91 77.15,-34.17 -0.02,-107.98 0.02,-215.96 -0.02,-323.93 1,-38.07 0.51,-76.15 0.45,-114.22 -30.58,5.26 -59.28,17.36 -88.34,27.75 -3.32,1.19 -5.75,3.87 -8.39,6.08 -1.15,34.49 -0.23,69.02 -0.53,103.53 -42.64,15.64 -83.74,35.09 -125,53.98 -0.36,-82.7 0.94,-165.38 0.55,-248.08z"/>
   </g>
  </g>
 </g>
</svg>
