<?xml version="1.0" encoding="UTF-8"?>
<!DOCTYPE svg PUBLIC "-//W3C//DTD SVG 1.1//EN" "http://www.w3.org/Graphics/SVG/1.1/DTD/svg11.dtd">
<!-- Creator: CorelDRAW -->
<svg xmlns="http://www.w3.org/2000/svg" xml:space="preserve" width="2000px" height="1600px" version="1.1" style="shape-rendering:geometricPrecision; text-rendering:geometricPrecision; image-rendering:optimizeQuality; fill-rule:evenodd; clip-rule:evenodd"
viewBox="0 0 2000 1600"
 xmlns:xlink="http://www.w3.org/1999/xlink">
 <defs>
  <style type="text/css">
   <![CDATA[
    .fil0 {fill:#E06F1D}
   ]]>
  </style>
 </defs>
 <g id="Capa_x0020_1">
  <metadata id="CorelCorpID_0Corel-Layer"/>
  <path id="Texas_x0020_Longhorns.cdr" class="fil0" d="M125.26 345.84c54.53,-11.73 111.17,-4.99 164.87,7.83 81.55,19.43 155.55,60.65 226.63,103.86 48.43,29.16 95.98,59.89 146.04,86.19 36.28,14.83 75.89,21.39 115,19.41 28.49,-1.75 57.28,-8.61 81.71,-23.89 10.79,-7.12 24.44,-5.71 36.5,-3.43 8.17,-5.18 18.85,-7.51 27.74,-2.58 8.79,5.34 19.26,8.1 29.51,5.87 18.11,-3.36 37.1,-10.52 55.14,-2.58 16.81,-9.39 35.73,-1.54 53.34,0.25 7.94,1.2 15.62,-1.42 23.03,-3.96 9.9,-3.22 18.81,6.38 28.62,2.97 24.44,-5.57 49.25,2.86 70.89,13.86 19.68,9.32 39.31,20.6 61.46,22.37 16.43,1.82 32.04,-4.62 48.03,-7.09 73.52,-15.9 137.74,-57.33 199.42,-98.46 46.04,-30.69 91.96,-62.24 142.55,-85.08 31.88,-14.61 65.74,-24.9 100.51,-29.64 48.89,-7.32 99.32,-10.34 148.03,-0.09 10.06,1.31 16,11.71 15.67,21.22 0.95,13.94 -12.79,22.69 -24.21,27.04 -23.82,7.02 -48.84,0.72 -73.15,3.5 -43.99,5.73 -87.83,15.74 -128.27,34.39 -36.69,16.5 -69.13,40.74 -100.57,65.48 -58.44,46.29 -113.03,98.79 -179.58,133.62 -15.1,7.8 -30.77,14.43 -46.88,19.79 11.51,20.17 35.35,26.43 55.19,35.17 12.27,5.11 26.63,13.49 27.32,28.41 -0.3,11.85 -3.38,26.01 -14.93,31.83 -46.94,30.68 -110.65,30.82 -159.86,5.22 -12.45,-6.46 -23.78,-19.63 -39.08,-16.75 -3.98,5.5 -5.53,12.36 -5.41,19.06 2.51,35.01 -7.62,69.85 -22.9,101.09 -18.74,39.24 -44.38,74.97 -60.65,115.45 -10.48,26.06 -16.23,54.67 -12.11,82.73 1.61,14.24 6.9,27.69 10.26,41.57 4.24,15.99 13.24,31.18 12.76,48.12 -3.92,14.53 -9.67,28.52 -13.01,43.23 -1.65,6.19 -2,13.14 -6.3,18.28 -11.28,14.68 -23.23,29.5 -39.2,39.31 -6.15,3.91 -13.54,4.58 -20.53,5.73 -31.15,4.74 -63.12,7.64 -94.33,1.93 -10.06,-2.09 -20.48,-4.16 -29.18,-9.96 -13.68,-8.89 -25.55,-20.37 -35.52,-33.22 -2.76,-3.82 -5.96,-7.66 -6.61,-12.47 -2.41,-13.42 -3.86,-27.46 -10.75,-39.52 -3.22,-5.6 -8.88,-10.68 -7.8,-17.75 2.99,-37.28 26.38,-70.36 24.65,-108.39 -2.74,-38.07 -17.26,-74.07 -34.09,-107.92 -22.16,-45.3 -48.77,-89.77 -57.08,-140.27 -2.67,-13.54 -2.53,-27.37 -2.99,-41.06 -3.13,-3.29 -8.22,-5.87 -12.73,-4.24 -34.71,18.23 -72.85,34.3 -112.85,32.25 -14.76,-0.46 -29.14,-4.93 -42.1,-11.86 -19.17,-8.72 -41.87,-14.73 -54.09,-33.37 -7.18,-9.46 -1.43,-22.42 5.55,-30.27 11.32,-10.93 27.66,-13.09 42.14,-17.45 16.66,-4.53 32.43,-13.09 44.52,-25.54 -57.46,-19.11 -109.38,-51.29 -157.93,-86.89 -70.29,-50.9 -136.58,-109.13 -216.29,-145.27 -54.85,-25.29 -116.76,-36.18 -176.79,-27.52 -12.11,3.1 -19.59,-9.92 -24.17,-19.04 -2.9,-14.85 10.49,-29.6 24.86,-31.47z"/>
 </g>
</svg>
