<?xml version="1.0" encoding="UTF-8"?>
<!DOCTYPE svg PUBLIC "-//W3C//DTD SVG 1.1//EN" "http://www.w3.org/Graphics/SVG/1.1/DTD/svg11.dtd">
<!-- Creator: CorelDRAW -->
<svg xmlns="http://www.w3.org/2000/svg" xml:space="preserve" width="2000px" height="1600px" version="1.1" style="shape-rendering:geometricPrecision; text-rendering:geometricPrecision; image-rendering:optimizeQuality; fill-rule:evenodd; clip-rule:evenodd"
viewBox="0 0 2000 1600"
 xmlns:xlink="http://www.w3.org/1999/xlink">
 <defs>
  <style type="text/css">
   <![CDATA[
    .fil1 {fill:#002C56;fill-rule:nonzero}
    .fil3 {fill:#0068AE;fill-rule:nonzero}
    .fil0 {fill:#008546;fill-rule:nonzero}
    .fil2 {fill:#FEFEFE;fill-rule:nonzero}
   ]]>
  </style>
 </defs>
 <g id="Capa_x0020_1">
  <metadata id="CorelCorpID_0Corel-Layer"/>
  <g id="Texas_x0020_A_x0026_M_x0020_CC_x0020_Islanders.cdr">
   <path class="fil0" d="M956.89 80l78.19 0c46.47,1.34 93,2.86 139.31,7.26 30.23,3.19 56.49,25.71 66.22,54.22 -0.07,-16.12 -0.05,-32.23 0,-48.34 75.9,11.3 151.55,24.49 226.48,41.06 24.96,5.54 49.83,11.61 74.42,18.59 36.18,9.92 63.62,43.79 67.77,80.82 4.02,-15.99 16.58,-29.29 32.15,-34.48 18,-6.14 37.84,-3.29 55.29,3.35 23.57,9.1 47.23,17.98 70.76,27.19 -0.12,32.22 0,64.43 -0.07,96.63 -15.88,-6 -31.6,-12.43 -47.56,-18.25 19.43,15.01 39.5,31.32 49.51,54.43 3.62,8.05 5.64,16.76 6.69,25.51l0 16.93c-1.35,14.47 -5.57,29.54 -15.95,40.22 -9.14,9.74 -22.63,14.42 -35.77,14.71 -16.52,0.74 -32.58,-4.09 -47.91,-9.71 -80.53,-27.18 -161.8,-52.82 -244.85,-71.15 -0.09,-56.29 0.17,-112.6 -0.14,-168.91 -7.16,-1.46 -14.26,-3.14 -21.4,-4.71 -0.02,24.79 -0.03,49.55 0.02,74.33 4.14,0.8 8.29,1.57 12.46,2.35 0,31.44 0.02,62.87 -0.01,94.31 -56.48,-9.43 -112.94,-19 -169.42,-28.55 -0.02,-56.17 0,-112.36 0,-168.53 -2.88,-0.38 -5.76,-0.76 -8.61,-1.14 -0.01,28.2 -0.03,56.38 0.02,84.58 0.19,10.5 -0.91,21.14 -4.64,31.02 -7.19,20.37 -24,37.61 -45.1,43.32 -15.72,4.59 -32.23,1.83 -48.27,1.14 -28.57,-1.72 -57.13,-3.64 -85.71,-5.24 0.02,-56.29 0.04,-112.56 -0.01,-168.85 -2.88,-0.02 -5.73,-0.04 -8.59,-0.04 0,56.19 0,112.37 0,168.56 -25.37,0.09 -50.74,-0.09 -76.11,0.1 -11.55,-21.83 -22.45,-43.97 -33.83,-65.88 0,22.04 0.01,44.1 -0.02,66.16 -55.05,2.07 -110.01,6.21 -164.83,11.59 -3.49,-14.68 -7.12,-29.3 -10.63,-43.94 -5.86,0.72 -11.72,1.44 -17.59,2.08 -0.19,15.06 -0.01,30.13 -0.1,45.19 -83.66,11.29 -166.49,28.05 -248.73,46.96 -0.05,-56.1 0,-112.2 -0.02,-168.3 -2.88,0.72 -5.74,1.45 -8.62,2.17 0,3.41 0,6.83 0,10.26 -16.76,4.81 -33.53,9.61 -50.34,14.26 15.88,3.5 32.39,10.28 41.77,24.28 10.15,14.85 9.45,33.86 7.36,50.93 -3.05,25.32 -14.73,49.84 -33.96,66.84 -14.76,13.3 -33.02,22.27 -52.13,27.44 -61.17,18.85 -121.17,41.39 -180.44,65.53l0 -87.48 0.02 1.52c4.02,-1.62 8.03,-3.25 12.05,-4.85 0,-27.59 0.02,-55.17 -0.01,-82.76 -4.04,1.58 -8.09,3.14 -12.06,4.9l0 -86.37c32.53,-12.92 65.26,-25.33 97.89,-37.97 -0.04,16.55 0,33.11 -0.02,49.66 3.6,-11.9 8.78,-23.42 16.31,-33.37 15.7,-21.35 39.7,-35.19 64.78,-42.61 60.44,-18 121.44,-34.35 183.2,-47.24 0.01,53 -0.04,105.98 0.01,158.97 23.58,-4.52 47.14,-9.17 70.71,-13.71 0,9.78 -0.26,19.59 0.45,29.37 2.26,-10.12 5.29,-20.04 8.07,-30.02 15.59,-55.46 31.23,-110.91 46.79,-166.37 27.12,-3.21 54.22,-6.6 81.31,-9.88 3.04,-1.36 3.07,2.79 3.98,4.48 20.61,70.33 41.2,140.67 62.04,210.97 -0.04,-73.71 -0.02,-147.42 -0.02,-221.11 25.44,-1.12 50.86,-2.64 76.31,-3.64 6.86,13.99 13.93,27.87 21.09,41.72 0.07,-14.18 0.02,-28.33 0.04,-42.51zm-179.32 978.36c10.6,13.81 23.26,25.93 37.06,36.5 -0.02,24.46 -0.04,48.9 0,73.35 -0.09,4.64 0.43,9.35 -0.47,13.95 -24.76,3.9 -49.54,7.76 -74.14,12.62 0,92.96 0,185.93 0,278.88 170.92,-35.33 349.04,-35.35 519.96,0 0,-92.95 0,-185.92 0,-278.88 -24.77,-4.79 -49.65,-8.93 -74.61,-12.55 0.02,-29.14 0.04,-58.27 0,-87.4 13.8,-10.55 26.47,-22.66 37.06,-36.47 0.11,30.71 -0.03,61.44 0.07,92.16 24.97,4.07 49.84,8.83 74.55,14.28 0,118.4 0,236.79 0.02,355.2l-0.6 0c-193.86,-47.99 -399.39,-47.8 -593.28,0l-0.26 0c0.03,-118.41 0,-236.8 0.02,-355.2 24.69,-5.47 49.56,-10.23 74.55,-14.27 0.1,-30.73 -0.04,-61.44 0.07,-92.17zm45.75 -175.51c33.63,-31.18 80,-44.79 125.01,-47.19 32.22,-1.31 65.93,0.25 95.49,14.44 15.95,7.64 30.58,20.21 36.44,37.35 -29.68,10.11 -51.06,41.44 -47.61,72.99 -1.56,2.93 -3.3,5.76 -5.07,8.58 -4.37,-17.74 -5.45,-36.64 -0.09,-54.3 -3.95,2.53 -7.95,5 -11.99,7.36 2.92,-9.38 8.85,-17.21 15.04,-24.64 -17.47,7.52 -26.13,27.18 -26.99,45.27 3.3,-1.97 6.57,-4 9.83,-6.02 -6.91,20.99 -4.72,43.92 2.35,64.57 1.46,-2.42 2.93,-4.85 4.4,-7.28 0.65,11.74 7.14,21.57 14.14,30.56 -27.49,-10.44 -41.86,-41.1 -41.48,-69.19 -2.41,3.84 -4.83,7.67 -7.29,11.5 -6.26,-18.33 -7.18,-38.77 0.65,-56.77 -4.65,3.14 -9.31,6.26 -14.09,9.22 1.85,-11.55 9.9,-20.07 17.37,-28.42 -9.85,4.13 -18.16,11.58 -23.32,20.94 -5.58,9.86 -7.97,21.13 -9.46,32.28 3.24,-2.12 6.45,-4.27 9.67,-6.41 -7.21,22.81 -6.64,47.75 1.14,70.33 2.77,-3.83 5.57,-7.64 8.41,-11.44 0.97,7.64 1.44,15.47 3.94,22.82 2,5.93 5.41,11.24 8.55,16.62 -16.25,-5.36 -29.33,-18.05 -36.48,-33.44 -6.5,-13.21 -8.98,-28 -8.81,-42.63 -2.98,4.4 -5.95,8.8 -8.95,13.18 -8.62,-19.61 -5.43,-41.62 0.67,-61.41 -5.38,4.5 -10.57,9.21 -15.98,13.66 1.64,-8.06 3.81,-16.18 8.35,-23.15 4.2,-6.81 10.67,-11.73 16.27,-17.3 -14.17,5.76 -25.17,17.63 -31.62,31.32 -5.9,12.26 -8.47,25.87 -9.28,39.39 3.46,-2.43 6.9,-4.9 10.31,-7.38 -5.48,21.44 -5.72,44.55 1.36,65.65 2.16,-3.62 4.28,-7.26 6.44,-10.86 0.5,8.47 0.76,17.12 3.62,25.23 2.43,7.83 7.09,14.68 11.78,21.31 -21.41,-10.31 -40,-28.16 -47.41,-51.13 -3.68,-10.33 -3.88,-21.38 -3.78,-32.2 -3.48,4.99 -7,9.94 -10.71,14.75 -3.34,-10.24 -5.33,-21.04 -4.5,-31.84 0.57,-10.29 4.02,-20.09 7,-29.87 -5.69,4.63 -11.03,9.63 -16.55,14.44 1.88,-10.23 5.31,-20.23 10.98,-28.99 4.99,-8.11 11.95,-14.64 18.49,-21.45 -30.99,16.33 -47.13,52.08 -48.36,85.97 4.02,-3.89 7.99,-7.8 11.94,-11.73 -4.62,21.85 -3.9,45.25 4.27,66.19 2.66,-4.47 5.32,-8.92 7.99,-13.35 0.5,20.93 10.97,39.77 22.5,56.62 -24.42,-8.49 -44.64,-28.41 -52.96,-52.95 -3.19,-8.84 -4.1,-18.26 -5.33,-27.52 -3.24,4.29 -6.5,8.57 -9.84,12.79 -5.35,-16.98 -7.9,-35.42 -3.33,-52.89 1.34,-5.07 3.1,-10 4.69,-15 -5.4,5.33 -10.52,10.93 -16.02,16.16 2,-14.44 6.62,-28.56 14.36,-40.96 5.18,-8.74 12.39,-16.11 17.44,-24.94 -31.91,23.2 -49.24,63.57 -48.62,102.53 3.4,-3.04 6.75,-6.14 10.04,-9.3 -5,17.21 -4.55,35.53 -0.07,52.79 -12.69,-18.78 -18.49,-42.16 -15.83,-64.7 2.78,-30.67 18.25,-59.52 40.89,-80.16zm-120.39 -412.05c194.91,-43.06 399.23,-43.04 594.14,0 -0.03,118.37 0.02,236.76 -0.02,355.14 -24.71,-5.95 -49.56,-11.4 -74.58,-15.87 -0.04,24.84 0.03,49.65 -0.04,74.47 -10.64,-13.76 -23.26,-25.92 -37.06,-36.51 0.07,-27.15 -0.07,-54.31 0.07,-81.45 24.97,3.62 49.82,8.02 74.52,13.14 0.03,-92.97 0,-185.92 0.02,-278.88 -171.11,-33.92 -348.85,-33.92 -519.96,0 0.04,92.96 -0.03,185.93 0.02,278.88 24.7,-5.16 49.55,-9.52 74.52,-13.14 0.14,27.14 0,54.3 0.07,81.45 -13.78,10.6 -26.44,22.75 -37.06,36.53 -0.09,-24.85 0.01,-49.69 -0.07,-74.52 -24.99,4.55 -49.84,9.93 -74.55,15.9 -0.04,-118.38 0.01,-236.75 -0.02,-355.14zm884.3 -163.59c6.31,17.45 12.28,35.04 18.52,52.51 0,-9.98 -0.02,-19.99 0,-29.97 18.78,6.38 37.56,12.68 56.32,19.11 -11.95,-9.09 -23.83,-18.51 -33.54,-30.03 -10.76,-12.1 -17.69,-27.04 -21.69,-42.61 -3.63,11.85 -10.04,22.97 -19.61,30.99zm-440.61 -138.62c-0.1,28.51 0,57.03 -0.03,85.54 3.74,-0.09 7.96,1.43 11.47,-0.24 0.91,-2.69 0.51,-5.59 0.65,-8.37 -0.24,-23.52 0.24,-47.04 -0.24,-70.55 -0.74,-5.78 -7.28,-6.1 -11.85,-6.38zm-762.37 164.66c-13.97,-1.47 -28.2,-4 -40.62,-10.86 -9.95,-5.25 -17.5,-14.2 -21.88,-24.46 0.15,18.7 0.09,37.41 0.03,56.1 20.92,-6.6 41.57,-14.09 62.47,-20.78z"/>
   <path class="fil1" d="M844.36 828.65c42.29,-23.39 90.33,-35.39 138.43,-37.69 59.5,-2.82 120.42,8.8 172.85,37.69 10.35,5.74 20.3,12.22 29.73,19.38 13.8,10.59 26.42,22.75 37.06,36.51 20.96,27 33.36,61.34 30.73,95.73 -1.76,28.44 -13.45,55.65 -30.73,78.09 -10.59,13.81 -23.26,25.92 -37.06,36.47 -9.4,7.24 -19.43,13.61 -29.75,19.42 -52.96,29.25 -114.58,40.66 -174.68,37.61 -47.47,-2.57 -94.83,-14.52 -136.56,-37.61 -10.37,-5.74 -20.32,-12.21 -29.75,-19.39 -13.8,-10.57 -26.46,-22.69 -37.06,-36.5 -20.96,-26.91 -33.27,-61.16 -30.79,-95.46 1.73,-28.54 13.44,-55.86 30.79,-78.34 10.62,-13.78 23.28,-25.93 37.06,-36.53 9.4,-7.19 19.38,-13.64 29.73,-19.38zm-21.04 54.2c-22.64,20.64 -38.11,49.49 -40.89,80.16 -2.66,22.54 3.14,45.92 15.83,64.7 -4.48,-17.26 -4.93,-35.58 0.07,-52.79 -3.29,3.16 -6.64,6.26 -10.04,9.3 -0.62,-38.96 16.71,-79.33 48.62,-102.53 -5.05,8.83 -12.26,16.2 -17.44,24.94 -7.74,12.4 -12.36,26.52 -14.36,40.96 5.5,-5.23 10.62,-10.83 16.02,-16.16 -1.59,5 -3.35,9.93 -4.69,15 -4.57,17.47 -2.02,35.91 3.33,52.89 3.34,-4.22 6.6,-8.5 9.84,-12.79 1.23,9.26 2.14,18.68 5.33,27.52 8.32,24.54 28.54,44.46 52.96,52.95 -11.53,-16.85 -22,-35.69 -22.5,-56.62 -2.67,4.43 -5.33,8.88 -7.99,13.35 -8.17,-20.94 -8.89,-44.34 -4.27,-66.19 -3.95,3.93 -7.92,7.84 -11.94,11.73 1.23,-33.89 17.37,-69.64 48.36,-85.97 -6.54,6.81 -13.5,13.34 -18.49,21.45 -5.67,8.76 -9.1,18.76 -10.98,28.99 5.52,-4.81 10.86,-9.81 16.55,-14.44 -2.98,9.78 -6.43,19.58 -7,29.87 -0.83,10.8 1.16,21.6 4.5,31.84 3.71,-4.81 7.23,-9.76 10.71,-14.75 -0.1,10.82 0.1,21.87 3.78,32.2 7.41,22.97 26,40.82 47.41,51.13 -4.69,-6.63 -9.35,-13.48 -11.78,-21.31 -2.86,-8.11 -3.12,-16.76 -3.62,-25.23 -2.16,3.6 -4.28,7.24 -6.44,10.86 -7.08,-21.1 -6.84,-44.21 -1.36,-65.65 -3.41,2.48 -6.85,4.95 -10.31,7.38 0.81,-13.52 3.38,-27.13 9.28,-39.39 6.45,-13.69 17.45,-25.56 31.62,-31.32 -5.6,5.57 -12.07,10.49 -16.27,17.3 -4.54,6.97 -6.71,15.09 -8.35,23.15 5.41,-4.45 10.6,-9.16 15.98,-13.66 -6.1,19.79 -9.29,41.8 -0.67,61.41 3,-4.38 5.97,-8.78 8.95,-13.18 -0.17,14.63 2.31,29.42 8.81,42.63 7.15,15.39 20.23,28.08 36.48,33.44 -3.14,-5.38 -6.55,-10.69 -8.55,-16.62 -2.5,-7.35 -2.97,-15.18 -3.94,-22.82 -2.84,3.8 -5.64,7.61 -8.41,11.44 -7.78,-22.58 -8.35,-47.52 -1.14,-70.33 -3.22,2.14 -6.43,4.29 -9.67,6.41 1.49,-11.15 3.88,-22.42 9.46,-32.28 5.16,-9.36 13.47,-16.81 23.32,-20.94 -7.47,8.35 -15.52,16.87 -17.37,28.42 4.78,-2.96 9.44,-6.08 14.09,-9.22 -7.83,18 -6.91,38.44 -0.65,56.77 2.46,-3.83 4.88,-7.66 7.29,-11.5 -0.38,28.09 13.99,58.75 41.48,69.19 -7,-8.99 -13.49,-18.82 -14.14,-30.56 -1.47,2.43 -2.94,4.86 -4.4,7.28 -7.07,-20.65 -9.26,-43.58 -2.35,-64.57 -3.26,2.02 -6.53,4.05 -9.83,6.02 0.86,-18.09 9.52,-37.75 26.99,-45.27 -6.19,7.43 -12.12,15.26 -15.04,24.64 4.04,-2.36 8.04,-4.83 11.99,-7.36 -5.36,17.66 -4.28,36.56 0.09,54.3 1.77,-2.82 3.51,-5.65 5.07,-8.58 -3.45,-31.55 17.93,-62.88 47.61,-72.99 -5.86,-17.14 -20.49,-29.71 -36.44,-37.35 -29.56,-14.19 -63.27,-15.75 -95.49,-14.44 -45.01,2.4 -91.38,16.01 -125.01,47.19z"/>
   <path class="fil2" d="M969.39 92.5c23.42,0 46.84,0.02 70.26,0 0.03,76.02 0.01,152.04 0.01,228.06 -18.76,-0.07 -37.52,-0.69 -56.28,-0.43 -17.63,-34.8 -35.32,-69.57 -53.22,-104.22 0,35.15 0,70.29 0,105.44 -19.41,0.74 -38.79,1.98 -58.19,2.76 0.03,-76.04 -0.12,-152.05 0.07,-228.09 18.62,-0.6 37.23,-1.6 55.84,-2.65 18.19,34.93 35.37,70.43 53.5,105.4 0.18,-15.87 0.05,-31.75 0.08,-47.63 -4.03,0 -8.05,0 -12.07,-0.02 0.02,-19.54 0,-39.08 0,-58.62zm91.4 59.4c0.1,-19.7 -0.17,-39.39 0.14,-59.07 36.54,2.48 73.15,4.21 109.71,6.5 28.7,2.02 54.03,24.92 59.85,52.95 1.98,8.51 1.41,17.29 1.46,25.95 -0.03,31.04 0.04,62.08 -0.03,93.13 -0.52,24.86 -18.63,48.35 -42.98,54.16 -11.35,3.23 -23.12,1.4 -34.66,0.78 -27.01,-1.6 -54,-3.4 -81,-4.98 0.07,-56.26 -0.06,-112.5 0.07,-168.75 -4.2,-0.31 -8.39,-0.57 -12.56,-0.67zm-338.81 -40.65c21.75,-2.48 43.45,-5.52 65.21,-7.76 21.42,74.05 43.42,147.95 65.08,221.93 -21.76,2.05 -43.52,3.79 -65.27,5.98 -3.62,-14.76 -7.21,-29.52 -10.78,-44.3 -13.24,1.48 -26.44,3.21 -39.66,4.76 0.01,15.13 0,30.23 0.01,45.36 -23.83,3.64 -47.68,7.21 -71.53,10.69 0.33,-12.31 -0.83,-24.77 0.57,-37.01 18.71,-66.57 37.46,-133.14 56.37,-199.65zm531.08 -3.47c52.46,8.61 104.92,17.3 157.38,26.04 0,19.66 0.02,39.32 -0.01,58.98 -28.03,-5.07 -56.03,-10.21 -84.06,-15.33 -0.02,8.54 0,17.09 -0.02,25.65 23.73,4.2 47.43,8.62 71.16,12.93 -0.02,19.64 0,39.28 -0.02,58.93 -23.71,-4.31 -47.42,-8.64 -71.12,-13.01 -0.02,8.52 0,17.03 0,25.54 7.61,1.28 15.21,2.56 22.83,3.83 0,-3.53 0.04,-7.07 0.07,-10.6 20.4,3.83 40.77,7.78 61.17,11.66 0,23.12 0,46.26 -0.01,69.39 -48.43,-8.12 -96.85,-16.26 -145.28,-24.5 -0.03,-56.31 0.07,-112.6 -0.03,-168.91 -4.02,-0.51 -8.02,-1.05 -12.02,-1.62 -0.06,-19.66 0.03,-39.32 -0.04,-58.98zm-752.75 46.98c24.42,-5.81 48.84,-11.54 73.28,-17.28 0.05,56.37 -0.04,112.73 0.03,169.11 3.16,-0.67 6.31,-1.33 9.49,-2.02 -0.02,-3.54 -0.02,-7.05 -0.04,-10.59 20.42,-3.96 40.82,-8.03 61.27,-11.86 -0.06,23.12 -0.03,46.25 -0.01,69.36 -43.82,9.5 -87.71,18.73 -131.55,28.13 0.09,-56.26 0.02,-112.5 0.03,-168.73 -4.17,0.89 -8.33,1.91 -12.47,2.93 -0.06,-19.68 -0.01,-39.37 -0.03,-59.05zm930.83 -16.54c33.99,8.38 67.95,16.88 101.92,25.23 38.25,7.93 66.93,46.67 64.1,85.5 1.23,20.04 -5.62,43.22 -24.73,52.86 7.61,23.37 16.35,46.37 24.15,69.71 1.31,12.76 0.15,25.73 0.56,38.58 -24.47,-6.95 -48.87,-14.09 -73.31,-21.13 -0.01,-15.26 0.04,-30.51 -0.01,-45.77 1.53,0.38 4.62,1.16 6.17,1.54 -2.48,-9.7 -4.79,-19.42 -7.14,-29.13 -6,-1.55 -11.99,-3.14 -17.99,-4.71 -0.01,24.35 0,48.68 0,73.04 -20.42,-4.92 -40.82,-9.85 -61.22,-14.84 0.02,-56.3 -0.02,-112.61 0.02,-168.92 -4.18,-0.98 -8.35,-1.88 -12.52,-2.77 0,-19.73 -0.02,-39.46 0,-59.19zm-306.14 7.73c10.14,0.46 20.28,1.17 30.4,2.03 13.18,1.42 24.23,13.59 24.38,26.84 0,25.85 -0.01,51.71 0,77.57 0.26,13.02 -11.71,24.35 -24.66,23.73 -10.03,-0.61 -20.09,-1.3 -30.11,-2.14 0.02,-42.67 0.07,-85.35 -0.01,-128.03zm-719.32 35.18c24.51,-7 49,-14.14 73.51,-21.16 -0.02,23.24 0.01,46.51 -0.02,69.76 -20.27,5.72 -40.51,11.45 -60.76,17.24 -0.02,-3.5 -0.02,-7 -0.02,-10.48 -6.79,2.24 -14.03,3.55 -20.28,7.2 -4.81,2.8 -8.17,9.18 -5.76,14.53 3.45,2.56 7.97,2.6 12.06,3.25 18.85,1.83 38.9,1.9 55.8,11.61 10.63,5.85 17.61,17.23 18.72,29.22 1.95,25.88 -4.59,53.11 -21.2,73.46 -12.66,15.4 -30.07,26.59 -49.01,32.63 -26.08,8.6 -52.17,17.14 -78.24,25.76 -0.05,-23.28 -0.02,-46.54 -0.04,-69.81 20.42,-6.77 40.82,-13.64 61.24,-20.38 -0.02,3.52 -0.02,7.05 -0.02,10.59 6.75,-2.35 13.92,-3.67 20.22,-7.14 5.94,-3.31 6.96,-11.11 6.31,-17.23 -1.95,-5.26 -8.37,-6.09 -13.14,-7.04 -19.01,-2.84 -39.58,-2.05 -56.6,-12.27 -10.95,-6.26 -17.11,-18.66 -17.78,-30.99 -1.5,-24.11 6.02,-49.21 22.5,-67.18 13.87,-15.48 32.77,-25.67 52.51,-31.57zm343.4 -7.56c2.95,-0.01 5.91,-0.01 8.88,-0.01 5.67,24.09 11.78,48.09 17.38,72.22 -15.38,1.67 -30.71,3.79 -46.09,5.5 6.63,-25.9 13.29,-51.79 19.83,-77.71zm746.75 29.84c10.46,2.71 20.97,5.35 31.42,8.14 10.88,2.91 18.88,14.17 17.74,25.44 -0.29,6.69 0.68,13.52 -0.76,20.1 -2.15,7.16 -10.26,11.82 -17.5,9.85 -10.36,-2.64 -20.66,-5.52 -30.96,-8.4 0.11,-18.38 0,-36.75 0.06,-55.13zm155.76 5.79c17.76,-3.84 35.47,2.47 51.72,9.13 17.33,6.74 34.76,13.21 52.06,20.04 -0.05,23.29 0,46.61 -0.03,69.91 -17.51,-6.69 -34.94,-13.64 -52.48,-20.25 -0.09,-3.57 -0.1,-7.15 -0.1,-10.72 -7.87,-2.45 -15.34,-7.13 -23.82,-6.61 -0.72,13.59 7.78,25.25 17.4,33.91 19.21,17.5 42.75,31.05 56.77,53.61 11.95,18.8 13.97,43.13 6.61,64 -3.81,10.73 -12.42,19.75 -23.46,23.01 -16.48,4.98 -34.09,0.84 -49.87,-4.78 -22.7,-7.9 -45.48,-15.61 -68.15,-23.58 0.05,-23.26 -0.02,-46.52 0.03,-69.79 20.23,6.99 40.54,13.69 60.77,20.73 -0.01,3.52 -0.01,7.05 0,10.57 7.68,2.23 15.14,7.28 23.42,5.49 2.38,-12.06 -5.74,-22.58 -14.26,-30.01 -19.23,-16.73 -42.13,-29.99 -56.67,-51.51 -13.12,-18.72 -16.86,-43.5 -10.31,-65.33 4.16,-13.86 16.05,-25.07 30.37,-27.82zm-1415.57 32.61c24.41,-9.48 48.83,-18.93 73.28,-28.35 0.07,76.12 -0.05,152.25 0.05,228.37 -24.42,9.53 -48.92,18.87 -73.33,28.42 0,-19.8 0,-39.61 0,-59.41 4.18,-1.64 8.33,-3.33 12.51,-4.99 0,-36.54 0.03,-73.06 -0.02,-109.59 -4.16,1.67 -8.33,3.33 -12.49,5 0,-19.81 0,-39.63 0,-59.45zm504 259.03c171.11,-33.92 348.85,-33.92 519.96,0 -0.02,92.96 0.01,185.91 -0.02,278.88 -24.7,-5.12 -49.55,-9.52 -74.52,-13.14 -0.14,27.14 0,54.3 -0.07,81.45 -9.43,-7.16 -19.38,-13.64 -29.73,-19.38 0.02,-31.98 0,-63.95 0,-95.92 24.96,3.03 49.84,6.69 74.59,11.07 -0.02,-72.81 0.02,-145.62 -0.02,-218.45 -151.88,-27.06 -308.54,-27.08 -460.42,0 -0.05,72.83 0,145.64 -0.04,218.45 24.77,-4.37 49.65,-8.06 74.61,-11.07 0,31.97 -0.02,63.94 0,95.92 -10.35,5.74 -20.33,12.19 -29.73,19.38 -0.07,-27.15 0.07,-54.31 -0.07,-81.45 -24.97,3.62 -49.82,7.98 -74.52,13.14 -0.05,-92.95 0.02,-185.92 -0.02,-278.88zm204.73 319.11c42.94,-6.43 87.09,-5.19 129.53,4.11 29.99,6.78 59.41,17.6 85.09,34.75 18.4,12.59 36.04,28.87 43.23,50.58 5.88,17.16 -0.21,37.04 -13.74,48.82 2.86,-9.95 3.29,-21.26 -2.71,-30.21 -1.78,11.21 -6.4,22.69 -16.07,29.33 -6.59,4.93 -14.72,7.07 -22.7,8.4 6.09,-10.66 13.21,-23.02 8.97,-35.66 -0.31,-3.56 -2.54,0.65 -2.83,1.69 -6.24,14.67 -20.78,24.43 -36.11,27.52 -10.35,2.41 -21.09,1.72 -31.48,-0.07 15.34,-7.95 32.25,-20.11 33.34,-38.97 -5.71,9.29 -13.97,17.34 -24.59,20.62 -11.83,4.02 -24.7,3.07 -36.6,-0.12 12.99,-12.07 24.42,-28.26 23.03,-46.87 -29.79,10.98 -48.46,47.06 -38.08,77.5 6.59,19.4 23.68,33.18 41.96,41.11 24.73,10.81 52.49,13.13 79.12,10.3 22.8,-2.95 45.16,-11.59 62.79,-26.58 -4.59,26.06 -19.95,48.88 -38.41,67.28 -23.81,23.16 -53.47,39.83 -84.9,50.3 -36.54,12.32 -75.45,16.7 -113.89,15.47 -38.04,-1.96 -75.7,-11.03 -110.59,-26.33 -25.82,-11.54 -50.67,-26.37 -70.4,-46.89 -18.16,-18.01 -31.64,-41.53 -34.82,-67.16 -3.27,-29.07 4.28,-59.03 20.18,-83.52 14.66,-22.95 35.8,-41.28 59.34,-54.72 28.04,-16.12 59.47,-25.73 91.34,-30.68zm-130.12 274.92c9.43,7.17 19.38,13.64 29.75,19.38 -0.04,26 -0.04,51.99 0,78 -0.07,5.31 0.41,10.67 -0.49,15.93 -24.74,3.35 -49.53,6.66 -74.12,11.18 0.02,72.81 -0.08,145.64 0.05,218.45 152.04,-27.15 308.78,-26.97 460.82,0.02 0.04,-72.8 0.02,-145.57 0.02,-218.37 -23.39,-4.22 -46.89,-7.76 -70.5,-10.55 -1.55,-0.55 -5.02,0.07 -4.43,-2.66 -0.23,-30.66 0.01,-61.34 -0.11,-92 10.32,-5.81 20.35,-12.18 29.75,-19.42 0.04,29.13 0.02,58.26 0,87.4 24.96,3.62 49.84,7.76 74.61,12.56 0,92.95 0,185.92 0,278.87 -170.92,-35.35 -349.04,-35.33 -519.96,0 0,-92.95 0,-185.92 0,-278.87 24.6,-4.87 49.38,-8.73 74.14,-12.63 0.9,-4.6 0.38,-9.31 0.47,-13.95 -0.04,-24.45 -0.02,-48.89 0,-73.34zm8.69 -212.02l0 0c-22.64,20.64 -38.11,49.49 -40.89,80.16 -2.65,22.53 3.14,45.92 15.83,64.7 12.87,21.21 32.23,37.85 52.95,51.17 29.21,18.4 62.36,29.97 96.19,36.3 42.1,7.54 85.81,7.86 127.6,-1.86 33.06,-7.69 64.76,-21.82 92.01,-42.15 20.45,-15.85 40.16,-34.87 49.46,-59.58 -18.99,12.81 -41.95,18.95 -64.71,19.5 -31.49,0.76 -64.51,-5.47 -90.56,-24.06 -15.43,-10.76 -26.21,-27.85 -28.55,-46.59 -3.45,-31.55 17.93,-62.88 47.61,-72.99 -5.86,-17.14 -20.49,-29.71 -36.44,-37.35 -29.56,-14.19 -63.27,-15.75 -95.49,-14.44 -45.01,2.4 -91.38,16.01 -125.01,47.19zm-578.26 -635l0 0c0.05,13.37 -0.05,26.75 0.07,40.11 4.14,-1.65 8.29,-3.31 12.45,-4.98 0,42.94 -0.02,85.87 0.02,128.81 -4.18,1.67 -8.35,3.34 -12.52,5.03 0,13.42 -0.06,26.84 0.03,40.27 18.42,-7.04 36.82,-14.16 55.19,-21.37 -0.07,-69.72 -0.02,-139.46 -0.04,-209.2 -18.4,7.12 -36.78,14.24 -55.2,21.33zm1401.87 -27.77l0 0c-9.88,4.01 -16.19,13.75 -18.33,23.87 -3.31,16.85 -1.12,35.13 8.02,49.88 10.17,16.98 26.57,28.69 42.04,40.46 9.37,7.19 19.02,14.4 26.01,24.07 5.24,7.38 8.71,16.85 6.57,25.94 -1.9,7.15 -10.45,10.46 -17.18,8.65 -8.17,-2.17 -15.91,-5.67 -23.98,-8.17 -0.09,-3.57 -0.11,-7.12 -0.13,-10.67 -14.21,-4.82 -28.43,-9.61 -42.63,-14.53 -0.05,17.01 -0.03,34.03 0,51.03 22.42,7.71 44.81,15.52 67.26,23.15 12.64,4.02 26.65,7.15 39.63,2.77 8.97,-2.89 15.3,-11.03 17.95,-19.85 5.35,-18.28 3.25,-39.14 -7.72,-55.01 -15.99,-24.19 -43.2,-37.28 -62,-58.84 -7.55,-8.57 -12.95,-19.69 -12.38,-31.32 0.1,-6.5 6.79,-10.55 12.83,-9.62 10.16,1.02 19.28,6.19 28.92,9.24 -0.02,3.55 -0.02,7.11 0,10.66 11.48,4.52 22.99,8.97 34.49,13.45 0,-16.97 0.02,-33.94 -0.02,-50.91 -19.17,-7.29 -38.32,-14.69 -57.48,-21.99 -13.22,-4.82 -28.4,-7.81 -41.87,-2.26zm-142.08 -5.12l0 0c-0.04,12.23 0.1,24.47 -0.09,36.72 8.21,2.15 16.28,5 24.68,6.4 3.34,0.86 6.6,-2.18 6.43,-5.52 0.15,-5.81 0.05,-11.64 0.05,-17.47 0.59,-6.99 -4.88,-13.66 -11.6,-15.07 -6.49,-1.73 -13.01,-3.31 -19.47,-5.06zm-751.46 -21.43l0 0c-4.26,15.72 -8.12,31.56 -12.21,47.34 7.71,-1.06 15.45,-1.87 23.18,-2.92 -3.76,-14.78 -7.04,-29.7 -10.97,-44.42zm-345.1 -3.85l0 0c-17.61,5.17 -34.44,14.06 -47.31,27.3 -16.31,17.13 -23.45,41.77 -21.02,65.07 1.11,10.17 8.09,19.23 17.47,23.19 17.11,7.69 36.46,5.73 54.34,10.21 6.23,1.66 13.19,4.97 14.95,11.78 2.57,10.97 -1.82,24.39 -12.72,29.13 -10.13,4.35 -20.92,6.9 -31.37,10.4 -0.02,-3.5 -0.02,-6.99 -0.02,-10.47 -14.38,4.9 -28.92,9.36 -43.18,14.59 0.15,16.95 0.03,33.9 0.07,50.86 22.97,-7.54 45.94,-15.13 68.91,-22.65 17.3,-6.15 33.37,-16.71 44.32,-31.63 13.87,-18.46 18.99,-42.44 17.09,-65.2 -1.03,-9.62 -7.14,-18.47 -15.95,-22.59 -17.83,-8.74 -38.34,-6.31 -57.31,-10.44 -5.53,-1.27 -11.88,-3.94 -13.64,-9.89 -2.28,-10.09 3.97,-20.34 13.04,-24.58 10,-4.74 21,-6.86 31.47,-10.36 0.02,3.55 0.04,7.1 0.05,10.65 14.23,-4.07 28.49,-7.98 42.69,-12.12 -0.09,-17.02 0.03,-34.02 -0.07,-51.05 -20.61,5.92 -41.2,11.9 -61.81,17.8zm725.79 -34.27l0 0c-0.01,36.77 -0.01,73.54 0,110.31 7.61,0.24 15.16,1.29 22.77,1.34 7.57,-0.15 14.48,-6.88 13.86,-14.64 0.07,-23.52 -0.05,-47.05 0.06,-70.55 0.19,-6.33 0.39,-13.4 -4.32,-18.32 -7.86,-9.7 -21.54,-6.31 -32.37,-8.14zm306.08 34.77l0 0c4.17,0.97 8.35,1.92 12.54,2.88 -0.02,56.34 0,112.68 0,169.02 14.34,3.51 28.69,7.01 43.07,10.4 0.11,-24.42 -0.03,-48.82 0.07,-73.22 11.49,3 22.97,6.02 34.44,9.07 3.8,16.44 8.16,32.71 12.11,49.1 -3.19,-0.83 -6.35,-1.66 -9.5,-2.48 -0.02,9.08 0.01,18.19 -0.04,27.29 18.4,5.35 36.8,10.68 55.22,15.96 -0.34,-8.76 0.73,-17.64 -0.55,-26.34 -8.69,-25.07 -17.73,-50.04 -26.58,-75.08 7.32,-2.45 14.28,-6.54 18.84,-12.92 8.34,-10.88 8.69,-25.18 8.33,-38.29 1.72,-33.75 -23.85,-66.72 -57,-73.36 -30.32,-7.47 -60.6,-15.05 -90.92,-22.47 -0.02,13.47 0.02,26.96 -0.03,40.44zm-930.81 -28.33l0 0c0.03,13.48 0,26.99 0.01,40.47 4.16,-1.02 8.32,-2.05 12.47,-3.08 0.09,56.42 0,112.83 0.05,169.26 37.77,-8.07 75.54,-16.19 113.33,-24.16 0.12,-17.13 0.01,-34.27 0.05,-51.39 -14.35,2.79 -28.7,5.64 -43.07,8.36 -0.05,3.52 -0.06,7.05 -0.08,10.59 -9.19,1.85 -18.35,3.9 -27.54,5.78 -0.04,-56.27 0,-112.56 -0.02,-168.84 -18.42,4.25 -36.8,8.66 -55.2,13.01zm752.78 -43.48l0 0c0.04,13.54 -0.07,27.08 0.05,40.61 3.94,0.49 7.9,0.99 11.87,1.42 0.36,56.43 0.05,112.85 0.15,169.28 42.39,7.24 84.82,14.3 127.22,21.52 -0.06,-17.12 0,-34.23 -0.03,-51.35 -14.37,-2.82 -28.75,-5.54 -43.11,-8.28 -0.02,3.48 0.01,6.98 0.05,10.47 -13.66,-2.33 -27.3,-4.66 -40.96,-6.88 -0.1,-14.65 -0.05,-29.29 -0.03,-43.93 23.64,4.4 47.33,8.49 70.96,13.02 0.33,-13.57 0.1,-27.16 0.12,-40.75 -23.68,-4.28 -47.34,-8.69 -71.02,-12.92 -0.13,-14.64 -0.13,-29.28 0,-43.92 27.98,5.16 55.95,10.38 83.99,15.29 0.02,-13.52 -0.02,-27.04 0.02,-40.56 -46.43,-7.65 -92.85,-15.41 -139.28,-23.02zm-533.18 1.07l0 0c-18.09,63.83 -35.92,127.72 -53.99,191.55 -1.87,8.69 -0.5,17.69 -0.9,26.5 17.81,-2.58 35.59,-5.38 53.41,-7.93 0.08,-9.07 0.03,-18.14 0.05,-27.21 -3.9,0.5 -7.78,1.01 -11.66,1.53 1.62,-6.47 3.23,-12.93 5.16,-19.31 20.71,-2.19 41.35,-5.07 62.07,-7.39 3.5,14.78 7.17,29.53 10.65,44.31 15.66,-1.04 31.25,-2.76 46.88,-4.07 -20.06,-68.05 -40.08,-136.12 -59.97,-204.24 -17.22,2.1 -34.45,4.29 -51.7,6.26zm340.86 -16.9l0 0c0.09,13.61 -0.04,27.2 0.07,40.8 4.16,0.02 8.33,0.09 12.48,0.31 -0.06,56.36 0.02,112.72 -0.03,169.08 30.02,2.07 60.08,3.74 90.11,5.64 17.55,0.88 35.28,-8.32 43.87,-23.8 5.4,-8.99 7.07,-19.66 6.62,-30.01 -0.1,-33.9 0.07,-67.81 -0.08,-101.73 -0.93,-27.56 -24.35,-52.25 -51.88,-54.43 -33.71,-2.07 -67.45,-3.91 -101.16,-5.86zm-91.37 -0.98l0 0c0,13.5 -0.01,27.02 0,40.52 4.02,0 8.04,0 12.06,0 0.01,25.44 0.01,50.88 0,76.3 -3.16,0 -6.3,0.02 -9.45,0.02 -19.37,-38.58 -38.7,-77.18 -58.29,-115.65 -13.92,0.57 -27.82,1.55 -41.74,1.88 -0.03,70 -0.01,140 -0.01,209.99 13.36,-0.55 26.73,-1.36 40.09,-1.91 0,-38.61 0,-77.24 0,-115.87 3.16,0.02 6.33,0.02 9.49,0.03 19.21,38.08 39.01,75.88 57.99,114.08 14.01,0.28 28.03,-0.03 42.03,0.62 0.02,-70 -0.02,-140 0.02,-210 -17.4,-0.03 -34.79,-0.01 -52.19,-0.01z"/>
   <path class="fil3" d="M978.44 101.56c17.4,0 34.79,-0.02 52.19,0.01 -0.04,70 0,140 -0.02,210 -14,-0.65 -28.02,-0.34 -42.03,-0.62 -18.98,-38.2 -38.78,-76 -57.99,-114.08 -3.16,-0.01 -6.33,-0.01 -9.49,-0.03 0,38.63 0,77.26 0,115.87 -13.36,0.55 -26.73,1.36 -40.09,1.91 0,-69.99 -0.02,-139.99 0.01,-209.99 13.92,-0.33 27.82,-1.31 41.74,-1.88 19.59,38.47 38.92,77.07 58.29,115.65 3.15,0 6.29,-0.02 9.45,-0.02 0.01,-25.42 0.01,-50.86 0,-76.3 -4.02,0 -8.04,0 -12.06,0 -0.01,-13.5 0,-27.02 0,-40.52zm91.37 0.98c33.71,1.95 67.45,3.79 101.16,5.86 27.53,2.18 50.95,26.87 51.88,54.43 0.15,33.92 -0.02,67.83 0.08,101.73 0.45,10.35 -1.22,21.02 -6.62,30.01 -8.59,15.48 -26.32,24.68 -43.87,23.8 -30.03,-1.9 -60.09,-3.57 -90.11,-5.64 0.05,-56.36 -0.03,-112.72 0.03,-169.08 -4.15,-0.22 -8.32,-0.29 -12.48,-0.31 -0.11,-13.6 0.02,-27.19 -0.07,-40.8zm-340.86 16.9c17.25,-1.97 34.48,-4.16 51.7,-6.26 19.89,68.12 39.91,136.19 59.97,204.24 -15.63,1.31 -31.22,3.03 -46.88,4.07 -3.48,-14.78 -7.15,-29.53 -10.65,-44.31 -20.72,2.32 -41.36,5.2 -62.07,7.39 -1.93,6.38 -3.54,12.84 -5.16,19.31 3.88,-0.52 7.76,-1.03 11.66,-1.53 -0.02,9.07 0.03,18.14 -0.05,27.21 -17.82,2.55 -35.6,5.35 -53.41,7.93 0.4,-8.81 -0.97,-17.81 0.9,-26.5 18.07,-63.83 35.9,-127.72 53.99,-191.55zm533.18 -1.07c46.43,7.61 92.85,15.37 139.28,23.02 -0.04,13.52 0,27.04 -0.02,40.56 -28.04,-4.91 -56.01,-10.13 -83.99,-15.29 -0.13,14.64 -0.13,29.28 0,43.92 23.68,4.23 47.34,8.64 71.02,12.92 -0.02,13.59 0.21,27.18 -0.12,40.75 -23.63,-4.53 -47.32,-8.62 -70.96,-13.02 -0.02,14.64 -0.07,29.28 0.03,43.93 13.66,2.22 27.3,4.55 40.96,6.88 -0.04,-3.49 -0.07,-6.99 -0.05,-10.47 14.36,2.74 28.74,5.46 43.11,8.28 0.03,17.12 -0.03,34.23 0.03,51.35 -42.4,-7.22 -84.83,-14.28 -127.22,-21.52 -0.1,-56.43 0.21,-112.85 -0.15,-169.28 -3.97,-0.43 -7.93,-0.93 -11.87,-1.42 -0.12,-13.53 -0.01,-27.07 -0.05,-40.61zm-752.78 43.48c18.4,-4.35 36.78,-8.76 55.2,-13.01 0.02,56.28 -0.02,112.57 0.02,168.84 9.19,-1.88 18.35,-3.93 27.54,-5.78 0.02,-3.54 0.03,-7.07 0.08,-10.59 14.37,-2.72 28.72,-5.57 43.07,-8.36 -0.04,17.12 0.07,34.26 -0.05,51.39 -37.79,7.97 -75.56,16.09 -113.33,24.16 -0.05,-56.43 0.04,-112.84 -0.05,-169.26 -4.15,1.03 -8.31,2.06 -12.47,3.08 -0.01,-13.48 0.02,-26.99 -0.01,-40.47zm930.81 28.33c0.05,-13.48 0.01,-26.97 0.03,-40.44 30.32,7.42 60.6,15 90.92,22.47 33.15,6.64 58.72,39.61 57,73.36 0.36,13.11 0.01,27.41 -8.33,38.29 -4.56,6.38 -11.52,10.47 -18.84,12.92 8.85,25.04 17.89,50.01 26.58,75.08 1.28,8.7 0.21,17.58 0.55,26.34 -18.42,-5.28 -36.82,-10.61 -55.22,-15.96 0.05,-9.1 0.02,-18.21 0.04,-27.29 3.15,0.82 6.31,1.65 9.5,2.48 -3.95,-16.39 -8.31,-32.66 -12.11,-49.1 -11.47,-3.05 -22.95,-6.07 -34.44,-9.07 -0.1,24.4 0.04,48.8 -0.07,73.22 -14.38,-3.39 -28.73,-6.89 -43.07,-10.4 0,-56.34 -0.02,-112.68 0,-169.02 -4.19,-0.96 -8.37,-1.91 -12.54,-2.88zm-1031.87 -0.5c20.61,-5.9 41.2,-11.88 61.81,-17.8 0.1,17.03 -0.02,34.03 0.07,51.05 -14.2,4.14 -28.46,8.05 -42.69,12.12 -0.01,-3.55 -0.03,-7.1 -0.05,-10.65 -10.47,3.5 -21.47,5.62 -31.47,10.36 -9.07,4.24 -15.32,14.49 -13.04,24.58 1.76,5.95 8.11,8.62 13.64,9.89 18.97,4.13 39.48,1.7 57.31,10.44 8.81,4.12 14.92,12.97 15.95,22.59 1.9,22.76 -3.22,46.74 -17.09,65.2 -10.95,14.92 -27.02,25.48 -44.32,31.63 -22.97,7.52 -45.94,15.11 -68.91,22.65 -0.04,-16.96 0.08,-33.91 -0.07,-50.86 14.26,-5.23 28.8,-9.69 43.18,-14.59 0,3.48 0,6.97 0.02,10.47 10.45,-3.5 21.24,-6.05 31.37,-10.4 10.9,-4.74 15.29,-18.16 12.72,-29.13 -1.76,-6.81 -8.72,-10.12 -14.95,-11.78 -17.88,-4.48 -37.23,-2.52 -54.34,-10.21 -9.38,-3.96 -16.36,-13.02 -17.47,-23.19 -2.43,-23.3 4.71,-47.94 21.02,-65.07 12.87,-13.24 29.7,-22.13 47.31,-27.3zm1238.64 30.4c13.47,-5.55 28.65,-2.56 41.87,2.26 19.16,7.3 38.31,14.7 57.48,21.99 0.04,16.97 0.02,33.94 0.02,50.91 -11.5,-4.48 -23.01,-8.93 -34.49,-13.45 -0.02,-3.55 -0.02,-7.11 0,-10.66 -9.64,-3.05 -18.76,-8.22 -28.92,-9.24 -6.04,-0.93 -12.73,3.12 -12.83,9.62 -0.57,11.63 4.83,22.75 12.38,31.32 18.8,21.56 46.01,34.65 62,58.84 10.97,15.87 13.07,36.73 7.72,55.01 -2.65,8.82 -8.98,16.96 -17.95,19.85 -12.98,4.38 -26.99,1.25 -39.63,-2.77 -22.45,-7.63 -44.84,-15.44 -67.26,-23.15 -0.03,-17 -0.05,-34.02 0,-51.03 14.2,4.92 28.42,9.71 42.63,14.53 0.02,3.55 0.04,7.1 0.13,10.67 8.07,2.5 15.81,6 23.98,8.17 6.73,1.81 15.28,-1.5 17.18,-8.65 2.14,-9.09 -1.33,-18.56 -6.57,-25.94 -6.99,-9.67 -16.64,-16.88 -26.01,-24.07 -15.47,-11.77 -31.87,-23.48 -42.04,-40.46 -9.14,-14.75 -11.33,-33.03 -8.02,-49.88 2.14,-10.12 8.45,-19.86 18.33,-23.87zm-1401.87 27.77c18.42,-7.09 36.8,-14.21 55.2,-21.33 0.02,69.74 -0.03,139.48 0.04,209.2 -18.37,7.21 -36.77,14.33 -55.19,21.37 -0.09,-13.43 -0.03,-26.85 -0.03,-40.27 4.17,-1.69 8.34,-3.36 12.52,-5.03 -0.04,-42.94 -0.02,-85.87 -0.02,-128.81 -4.16,1.67 -8.31,3.33 -12.45,4.98 -0.12,-13.36 -0.02,-26.74 -0.07,-40.11zm524.73 277.5c151.88,-27.08 308.54,-27.06 460.42,0 0.04,72.83 0,145.64 0.02,218.45 -24.75,-4.38 -49.63,-8.04 -74.59,-11.07 0,31.97 0.02,63.94 0,95.92 -52.43,-28.89 -113.35,-40.52 -172.85,-37.69 -48.1,2.3 -96.15,14.3 -138.43,37.69 -0.02,-31.98 0,-63.95 0,-95.92 -24.96,3.01 -49.84,6.7 -74.61,11.07 0.04,-72.81 -0.01,-145.62 0.04,-218.45zm74.59 588.9c41.73,23.09 89.09,35.04 136.56,37.61 60.1,3.05 121.72,-8.36 174.68,-37.61 0.12,30.66 -0.12,61.34 0.11,92 -0.59,2.73 2.88,2.11 4.43,2.66 23.61,2.79 47.11,6.33 70.5,10.55 0,72.8 0.02,145.57 -0.02,218.37 -152.04,-26.99 -308.78,-27.17 -460.82,-0.02 -0.13,-72.81 -0.03,-145.64 -0.05,-218.45 24.59,-4.52 49.38,-7.83 74.12,-11.18 0.9,-5.26 0.42,-10.62 0.49,-15.93 -0.04,-26.01 -0.04,-52 0,-78zm651.45 -910.84l0 0c-0.06,18.38 0.05,36.75 -0.06,55.13 10.3,2.88 20.6,5.76 30.96,8.4 7.24,1.97 15.35,-2.69 17.5,-9.85 1.44,-6.58 0.47,-13.41 0.76,-20.1 1.14,-11.27 -6.86,-22.53 -17.74,-25.44 -10.45,-2.79 -20.96,-5.43 -31.42,-8.14zm-746.75 -29.84l0 0c-6.54,25.92 -13.2,51.81 -19.83,77.71 15.38,-1.71 30.71,-3.83 46.09,-5.5 -5.6,-24.13 -11.71,-48.13 -17.38,-72.22 -2.97,0 -5.93,0 -8.88,0.01zm375.92 -27.62l0 0c0.08,42.68 0.03,85.36 0.01,128.03 10.02,0.84 20.08,1.53 30.11,2.14 12.95,0.62 24.92,-10.71 24.66,-23.73 -0.01,-25.86 0,-51.72 0,-77.57 -0.15,-13.25 -11.2,-25.42 -24.38,-26.84 -10.12,-0.86 -20.26,-1.57 -30.4,-2.03z"/>
  </g>
 </g>
</svg>
