<?xml version="1.0" encoding="UTF-8"?>
<!DOCTYPE svg PUBLIC "-//W3C//DTD SVG 1.1//EN" "http://www.w3.org/Graphics/SVG/1.1/DTD/svg11.dtd">
<!-- Creator: CorelDRAW -->
<svg xmlns="http://www.w3.org/2000/svg" xml:space="preserve" width="2000px" height="1600px" version="1.1" style="shape-rendering:geometricPrecision; text-rendering:geometricPrecision; image-rendering:optimizeQuality; fill-rule:evenodd; clip-rule:evenodd"
viewBox="0 0 2000 1600"
 xmlns:xlink="http://www.w3.org/1999/xlink">
 <defs>
  <style type="text/css">
   <![CDATA[
    .fil4 {fill:#1699D3;fill-rule:nonzero}
    .fil1 {fill:#172552;fill-rule:nonzero}
    .fil2 {fill:#C09963;fill-rule:nonzero}
    .fil3 {fill:#DEDFDD;fill-rule:nonzero}
    .fil0 {fill:#FEFEFE;fill-rule:nonzero}
   ]]>
  </style>
 </defs>
 <g id="Capa_x0020_1">
  <metadata id="CorelCorpID_0Corel-Layer"/>
  <g id="The_x0020_Citadel_x0020_Bulldogs.cdr">
   <path class="fil0" d="M440.53 1218.8c9.7,0.31 19.35,1.56 28.93,3.12 -5.16,19.6 -10.47,39.17 -16.15,58.61 -2.7,-7.11 -3.49,-14.74 -5.12,-22.13 -2.52,-13.2 -5.56,-26.31 -7.66,-39.6zm99.94 -13.15c7.59,-5.07 15.97,-8.77 24.29,-12.48 4.9,18.93 7.94,38.28 11.64,57.46 -12.77,-14.31 -24.43,-29.63 -35.93,-44.98zm-189.41 -19.27c8.93,2.56 16.85,7.46 25.08,11.61 -1.41,3.22 -2.92,6.43 -4.96,9.31 -9.87,14.06 -19.13,28.64 -30.8,41.31 3.61,-20.72 6.25,-41.64 10.68,-62.23zm289.11 -54.94c3.12,1.97 5.31,5.01 7.61,7.84 9.6,12.06 19.2,24.18 27.79,37.02 -16.2,-7.9 -31.92,-16.73 -47.88,-25.11 3.34,-7.06 7.99,-13.41 12.48,-19.75zm-397.83 41.38c11.36,-18.7 24.13,-36.49 37.73,-53.62 5.02,7.36 9.73,14.97 13.88,22.85 -16.81,10.84 -34.3,20.71 -51.61,30.77zm-29.37 -125.86c12.58,-6 25.03,-12.31 37.99,-17.5 2.5,8.19 4.51,16.56 5.59,25.08 -20.9,1.9 -41.92,2.91 -62.88,2.36 6,-4.11 12.82,-6.72 19.3,-9.94zm450.33 -19.32c9.36,3.82 17.71,9.58 26.45,14.59 10.73,6.58 21.79,12.77 31.73,20.55 -17.49,-0.85 -34.97,-1.47 -52.44,-2.22 -2.69,-0.04 -5.3,-0.76 -7.87,-1.44 -0.14,-10.51 -1.35,-21.35 2.13,-31.48zm-122.4 -55.28c2.16,-3.21 4.25,-7.12 8.36,-8.06 4.12,1.99 4.49,7.06 6.05,10.82 -4.88,-0.5 -9.67,-1.6 -14.41,-2.76zm-21.17 -2.4c2.12,-3.91 5.04,-7.29 8.81,-9.71 3.07,3.04 5.09,6.84 6.15,11.03 -5.04,0.32 -10.06,-0.19 -14.96,-1.32zm-42.74 1.38c1.49,-3.3 3.17,-7.32 7.03,-8.33 3.7,0.6 5.29,4.75 7.49,7.36 -4.78,0.97 -9.67,1.16 -14.52,0.97zm24.27 -1.83c1.13,-4.01 3.76,-7.2 6.96,-9.75 3.93,2.41 7.19,5.77 8.68,10.23 -5.22,0.26 -10.44,0.12 -15.64,-0.48zm-312.65 -17.49c20.61,-3.65 41.61,-4.11 62.43,-5.57 -0.15,8.76 -2.05,17.33 -3.61,25.91 -19.84,-6.06 -39.29,-13.34 -58.82,-20.34zm392.33 -7.26c0.89,-2.78 1.41,-7.8 5.59,-6.54 4.56,1.97 6.26,7.03 7.35,11.49 3.07,12.39 3.31,26.28 -3.05,37.75 -9.49,-3.41 -18.94,-6.91 -28.4,-10.37 8.33,-9.33 15.31,-20.13 18.51,-32.33zm89.11 -9.3c19.78,3.96 39.33,9.18 58.56,15.28 -19.47,5.36 -39.12,10.16 -59.04,13.44 0.02,-9.59 -0.19,-19.15 0.48,-28.72zm-144.92 -14.82c3.78,-3.85 10.55,-4.77 14.6,-0.83 2.68,9.79 -0.67,21.05 -8.61,27.57 -4.55,-3.88 -6.6,-9.62 -9.7,-14.56 -2.72,5.22 -4.59,10.86 -7.71,15.88 -5.08,-3.41 -7.29,-9.19 -10.12,-14.3 3.16,-3.96 6.48,-7.87 10.43,-11.07 3.17,-2.78 8.16,0.61 11.11,-2.69zm20.98 -2.05c4.71,-9.01 18.48,-13.31 26.06,-5.4 8.89,18.52 -7.39,46.5 -29.16,42.79 4.76,-11.79 7.56,-24.97 3.1,-37.39zm-109.13 -12.78c5.02,-4.29 12.15,-8.25 18.75,-5.13 -6.02,2.45 -12.22,4.68 -18.75,5.13zm250.4 -47.85c0.1,-3.62 -0.94,-8.64 2.44,-11.07 6.19,-0.66 12.43,0.13 18.63,0.49 -6.79,4 -13.66,7.91 -21.07,10.58zm-476.28 -11.02c4.34,-0.57 7.2,2.28 7.9,6.43 -2.82,-1.91 -5.45,-4.08 -7.9,-6.43zm158.3 -2.69c2.76,3.56 6.62,6.84 7.68,11.33 -1.71,9.91 -3.43,19.85 -3.94,29.93 -4.87,-13.13 -4.94,-27.5 -3.74,-41.26zm169.25 20.38c-2.98,-8.18 -1.64,-18.43 6.28,-23.28 1.26,7.39 0.03,14.84 -0.26,22.27 -2.03,0.29 -4.03,0.63 -6.02,1.01z"/>
   <path class="fil1" d="M444.84 247.14l14.65 0c10.13,1.19 20.65,4.58 27.41,12.66 6.94,8.34 10.13,19.44 9.49,30.22 -1.83,60.08 -5.6,120.08 -9.75,180.03 -0.26,9.81 -5.14,19.03 -12.87,25 -0.95,10.68 -0.54,21.65 -4.44,31.83 29.28,1.49 58.42,6.43 86.43,15.14 12.15,3.92 24.77,8.52 33.72,18.08 3.29,3.48 3.14,8.83 1.51,13.05 -5.8,16.39 -11.16,32.91 -15.82,49.64 49.37,14.27 95.74,38.83 135.15,71.82 5.47,4.14 10.11,10.42 17.25,11.6 7.95,0.19 10.18,-8.79 12.63,-14.64 0.63,-3.17 4.34,-3.02 6.7,-4.16 0.53,81.39 0.14,162.8 0.21,244.2 -3.12,-0.02 -6.23,-0.04 -9.33,-0.05 -5.23,-28.51 -13.23,-56.52 -24.36,-83.3 -9.27,5.16 -18.53,10.37 -27.61,15.86 -0.52,13.3 2.7,27.37 -2.53,40.07 -4.02,8.47 -14.84,8.25 -22.83,7.99 0.24,4.08 -0.12,8.34 1.32,12.24 1.96,0.83 3.96,1.5 5.98,2.2 1.77,3.34 4.39,6.34 8.37,6.87 21.05,4.97 42.1,10.15 62.49,17.45 -22.89,6.57 -46.08,11.9 -69.3,17.2 -2.09,3 -4.78,5.5 -8.05,7.18 0.68,12.91 -2.92,25.44 -5.15,38.04 2.35,0.77 4.74,1.42 7.03,2.38 1.34,3.72 0.91,8.8 5.06,10.79 21.48,12.03 42.26,25.23 63.24,38.09 -23.33,0.99 -46.68,-0.14 -70.01,-0.88 -2.45,21.83 -10.63,42.38 -19.39,62.34 12.02,15.29 24.21,30.46 35.95,45.97 23.43,-24.96 41.98,-54.39 54.92,-86.06 6.04,-13.5 9.72,-28.73 6.3,-43.42 -1.17,-5.55 -4.6,-10.18 -7.87,-14.64 1.73,-2 2.58,-7.15 6.01,-4.44 17.01,8.06 33.52,17.11 50.49,25.27 0.07,-51.24 -0.05,-102.48 0.05,-153.7 -0.07,-7.97 -0.89,-16.17 -4.18,-23.5 -2.3,-5.46 -7.66,-8.46 -12.02,-12.02 4.65,-0.62 9.33,-0.98 14.01,-0.88 28.06,0.17 56.12,-0.12 84.19,0.16 -10.39,6.65 -12.76,19.76 -13.44,31.18 0,66.29 -0.06,132.58 0.01,198.88 0.24,9.68 9.26,15.36 14.8,22.18 -1.8,3.03 -5.58,1.93 -8.42,2.3 -14.35,-0.11 -28.68,-0.04 -43.01,-0.09 -23.52,61.3 -63.45,116.25 -114.65,157.35 -49.31,39.83 -108.93,66.81 -171.48,77.13 -16.7,2.91 -33.62,4.22 -50.54,5.11l-22.29 0c-62.28,-2.06 -124.06,-19.51 -177.72,-51.29 -56.6,-33.35 -104.11,-81.91 -136.18,-139.24 -28.11,-49.9 -43.9,-106.4 -46.97,-163.54l0 -35.95c1.42,-21.65 3.96,-43.27 8.84,-64.44 12.88,-57.48 39.84,-111.7 77.73,-156.81 40.8,-48.77 94.25,-86.86 153.76,-109.28 -6.14,-19.1 -13.93,-37.66 -22.96,-55.56 -3.05,-5.33 -0.34,-11.95 4.42,-15.21 10.87,-7.81 23.49,-12.66 36.07,-16.93 26.52,-8.78 53.95,-15.17 81.84,-17.46 -6.34,-8.62 -5.35,-19.78 -6.03,-29.87 -10.1,-5.08 -12.21,-17.06 -13.8,-27.16 -5.69,-44.93 -10.51,-89.98 -14.28,-135.12 -1.17,-14.96 -2.35,-29.95 -2.45,-44.96 -0.4,-9.73 4.63,-18.54 10.13,-26.16 7.34,-10.03 19.42,-15.5 31.57,-16.74zm1275.04 615.95c6.24,-1.1 12.6,-1.05 18.94,-1 27.23,0.28 54.48,-0.29 81.71,0.26 -1.68,8.55 -11.59,11.83 -13.61,20.18 -3.47,8.98 -2.39,18.7 -2.49,28.09 -0.03,52.92 0.07,105.84 -0.05,158.76 17.07,-1.14 34.13,1.17 51.2,0.54 12.18,-0.59 26.22,-3.5 33.4,-14.4 3.2,-4.1 4.23,-11.76 11.02,-10.43l0 69.91c-59.91,-0.1 -119.84,0.21 -179.76,-0.15 2.49,-6.29 7.92,-10.46 12.19,-15.45 3.33,-3.82 3.82,-9.17 3.89,-14.02 -0.1,-65.13 0,-130.25 -0.05,-195.4 0.14,-11.36 -7.99,-20.31 -16.39,-26.89zm25.68 6.89c7.49,3.12 14.67,7.2 22.51,9.46 10.03,-2.16 19.53,-6.38 29.35,-9.34 -17.28,-0.45 -34.58,-0.24 -51.86,-0.12zm-4.23 3.89c0.96,4.78 2.09,9.57 2.21,14.47 0.26,63.96 -0.41,127.94 0.53,191.9 0.46,7.79 -1.39,15.44 -4.29,22.64 8.85,-3.62 18.33,-5.9 26.68,-10.58 0.61,-69.24 0.01,-138.53 0.29,-207.8 -8.44,-3.65 -16.92,-7.17 -25.42,-10.63zm30.96 10.63c0.07,68 -0.11,136.03 0.08,204.05 8.32,-4.37 15.77,-10.1 23.39,-15.57 0.22,-24.99 0.03,-49.98 0.1,-74.98 0.2,-32.04 -0.93,-64.08 -0.31,-96.12 0.87,-9.24 4.42,-17.93 6.29,-26.96 -9.87,3.15 -19.73,6.29 -29.55,9.58zm47.17 191.88c-14.21,-0.24 -29.89,2.88 -39.36,14.43 31.44,0.38 62.9,0.14 94.36,0.12 4.01,-7.06 8.17,-14.04 12.17,-21.1 -20.57,11.59 -44.78,6.48 -67.17,6.55zm59.64 17.11c4.15,3.46 8.35,6.92 12.62,10.27 0.14,-10.98 0.38,-21.95 -0.19,-32.9 -4.57,7.3 -8.43,15 -12.43,22.63zm-134.64 14.05c47.32,0.33 94.65,0.19 141.96,0.07 -3.77,-3.72 -7.49,-7.49 -11.05,-11.38 -31.2,-0.15 -62.39,-0.07 -93.59,-0.07 -13.32,-0.14 -25.45,6.1 -37.32,11.38zm-442.73 -244.21c2.01,-1.56 4.25,-2.13 6.76,-1.7 42.87,3.19 86.05,-3.29 128.79,2.88 25.29,3.39 51.03,13.15 67.99,32.98 21.32,24.6 28.06,58.46 27.48,90.23 -0.24,41.38 -17.26,84.63 -51.74,109.18 -25.25,17.23 -57.14,18.53 -86.67,18.12 -31.24,-0.93 -62.49,-0.1 -93.74,-0.6 0.99,-5.64 6.43,-7.96 10.39,-11.21 3.31,-2.68 4.18,-7.12 5.19,-11.03 3.28,-16.33 3.89,-33.05 4.7,-49.66 1.8,-49.71 0.98,-99.48 -0.75,-149.18 -0.09,-12.53 -7.48,-24.08 -18.4,-30.01zm27 5.31c9.04,3.45 18.1,7.17 27.62,9.07 20.52,1.22 41.19,0.24 61.66,2.88 22.27,2.49 45.58,10.51 59.68,28.92 15.96,21.27 21.56,48.6 22.06,74.74 0.44,34.43 -10.32,69.89 -34.41,95.14 -6.75,6.76 -15.56,11.11 -24.68,13.63 -22.44,5.83 -45.86,3 -68.75,3.14 -14.64,-0.43 -28.49,5.14 -42.1,9.81 22.68,0.55 45.35,1.51 68.02,2.17 28.74,0.04 59.76,-3.39 82.99,-21.96 26.01,-21.13 39.93,-54.3 42.62,-87.19 1.94,-25.47 -1.7,-51.73 -12.14,-75.15 -10.56,-23.64 -32.64,-40.58 -57.17,-47.81 -40.63,-12.31 -83.6,-7.97 -125.4,-7.39zm-5.12 5.16c2.04,6.45 5.19,12.76 5.14,19.68 -0.02,61.13 -0.07,122.26 0.02,183.4 0.12,8.51 -3.98,16.26 -6.02,24.35 10.13,-2.98 20.11,-6.47 30.24,-9.54 0.36,-69.53 0.05,-139.08 0.15,-208.61 -9.82,-3.19 -19.61,-6.47 -29.53,-9.28zm40.11 10.18c6.21,3.81 12.24,7.89 18.6,11.47 4.17,2.56 9.19,0.67 13.77,0.67 16.97,-1.27 35.84,1.42 48.63,13.66 13.8,12.18 20.37,30.64 21.33,48.67 1.23,20.45 2.33,41.18 -0.86,61.51 -3.12,20.16 -12.07,40.56 -28.84,52.97 -13.81,9.43 -31.3,8.45 -47.24,8.23 -7.95,1.75 -14.92,6.45 -22.22,9.91 24.88,-0.55 50.33,3.58 74.73,-3.12 14.69,-5.56 25.56,-18.02 33.96,-30.86 8.16,-11.86 11.18,-26.19 14.35,-39.99 6.2,-30.58 6.49,-64.27 -8.68,-92.4 -8.86,-17.2 -25.61,-29.28 -43.97,-34.65 -23.76,-7.27 -48.98,-6.97 -73.56,-6.07zm-4.54 4.53c0,66.5 -0.14,132.99 0.07,199.47 7.44,-3.51 14.91,-7.01 22.23,-10.81 -0.22,-58.29 0.19,-116.58 -0.21,-174.86 -7.45,-4.48 -14.62,-9.39 -22.09,-13.8zm33.01 17.09c-0.06,55.8 -0.08,111.62 0,167.43 9.33,0.74 18.98,0.81 27.95,-2.26 13.33,-4.39 23.19,-15.87 28.8,-28.39 9.48,-22.01 8.83,-46.57 8.74,-70.08 -0.92,-19.38 -4.34,-40.69 -18.74,-54.96 -12.25,-11.89 -30.55,-13.71 -46.75,-11.74zm128.58 -43.42c6.3,-1.41 12.8,-0.82 19.21,-0.91 55.56,0 111.14,0.03 166.7,-0.02 -0.1,20.13 0.41,40.29 -0.27,60.4 -7.17,-2.87 -11.04,-10.62 -18.6,-12.98 -24.81,-9.96 -51.79,-1.22 -77.52,-3.72 0.05,18.19 -0.12,36.36 0.08,54.55 22.92,-1.01 46.3,3.49 68.83,-2.47 7.73,-1.82 14.31,-6.41 20.98,-10.49 1.02,22.82 0.64,45.75 0.19,68.59 -4.81,-1.31 -8.83,-4.15 -12.48,-7.37 -3.8,-3.64 -9.44,-2.73 -14.19,-3.26 -21.12,-0.81 -42.29,-0.76 -63.41,0.02 0,22.54 0,45.08 0,67.64 21.72,-2.86 43.64,1.96 65.36,-0.93 10.03,-1.37 20.35,-5.26 26.83,-13.38 1.95,-2.63 4.29,-4.97 7.54,-5.92 0.28,21.02 0.05,42.05 0.12,63.07 -61.85,0.02 -123.72,-0.02 -185.58,0.02 -2.78,0.44 -5.87,-0.67 -5.87,-3.93 5.66,-3.56 12.05,-6.58 15.57,-12.6 8.9,-12.85 7.47,-29.12 7.46,-43.93 -0.02,-48 0.05,-96.02 -0.04,-144.02 -0.75,-12.14 -0.41,-25.2 -6.91,-35.97 -3.29,-5.52 -9.36,-8.26 -14,-12.39zm27.12 6.05c11.79,5.16 23.33,13.47 36.77,12.41 33.08,-0.17 66.19,-0.03 99.27,-0.07 3.45,-4.11 6.84,-8.28 10.2,-12.48 -48.75,0.17 -97.49,-0.07 -146.24,0.14zm141.48 14.47c3.1,5.04 6.2,10.09 9.58,14.96 0.07,-9.03 0.07,-18.05 0.02,-27.08 -3.47,3.82 -6.65,7.88 -9.6,12.12zm-144.19 -8.35c8.4,19.54 5.76,41.19 5.64,61.87 -0.24,37.75 -0.04,75.5 -0.11,113.26 -0.35,17.68 0.14,35.95 -6.94,52.54 10.17,-3.75 20.45,-7.2 30.59,-11.12 -0.3,-68.47 0.23,-136.96 -0.28,-205.44 -9.74,-3.43 -19.22,-7.54 -28.9,-11.11zm44.26 12.82c6.94,4.49 14.69,7.73 22.89,9.11 20.31,3.46 40.92,-0.18 61.37,0.63 7.95,0.12 14.81,4.63 22.15,7.1 -3.93,-5.87 -7.99,-11.64 -12.02,-17.44 -31.46,0.19 -62.93,0.48 -94.39,0.6zm-9.21 2.64c0.43,28.82 -0.42,57.64 -0.34,86.45 7.73,-3.87 15.1,-8.41 22.63,-12.67 -0.02,-21.56 0.27,-43.13 -0.15,-64.69 -7.36,-3.09 -14.63,-6.4 -22.14,-9.09zm31.6 77.38c-9.29,2.54 -17.38,8.37 -25.87,12.81 31.27,0.05 62.52,-0.08 93.79,0.05 3.02,-5.5 5.93,-11.07 8.71,-16.71 -25.08,6.67 -51.1,3.03 -76.63,3.85zm72.53 15.5c2.49,3.7 5.02,7.39 7.68,11.01 0.16,-8.49 0.17,-16.97 0,-25.46 -2.83,4.66 -5.31,9.53 -7.68,14.45zm-100.06 2.47c7.25,3.87 14.4,8.74 22.63,10.13 26.46,-0.72 53,-0.97 79.42,1.17 -3.24,-3.89 -4.7,-11.57 -10.83,-11.32 -30.42,-0.01 -60.81,0 -91.22,0.02zm-3.88 3.65c-0.01,32.92 -0.48,65.83 -0.56,98.75 7.66,-3.4 15.51,-6.91 21.87,-12.47 1.01,-25.25 0.02,-50.6 0.48,-75.89 -7.2,-3.63 -14.45,-7.13 -21.79,-10.39zm100.29 89.25c-14.85,2.02 -29.85,0.79 -44.78,0.91 -17.17,-0.18 -35.66,1.18 -50.09,11.48 33.81,1.22 67.7,0.26 101.54,0.5 4.2,-6.48 8.48,-12.93 12.36,-19.63 -6.26,2.44 -12.31,5.76 -19.03,6.74zm11.81 15.79c3.12,3.03 6.26,6.03 9.46,9.01 0.02,-8.14 0.02,-16.28 0.07,-24.42 -3.41,4.98 -6.55,10.14 -9.53,15.41zm-120.98 4.39c-7.81,2.69 -15.67,5.31 -23.26,8.6 48.82,0.04 97.65,0.02 146.47,0 -2.13,-3.63 -4.56,-7.06 -7.12,-10.39 -31.49,0.28 -62.98,0.07 -94.45,0.12 -7.24,0.11 -14.71,-0.87 -21.64,1.67zm-456.8 -234.06c0.82,-2.19 3.01,-2.64 5.14,-2.48 28.46,0 56.93,0.03 85.39,0 -2.25,14.42 0,29.19 4.82,42.87 21.78,60.89 43.37,121.85 65.74,182.54 3.58,9.79 11.55,17.13 15.36,26.83 -34.37,0.56 -68.76,-0.11 -103.15,0.34 6.1,-5.86 11.64,-13.2 11.69,-22.05 0.38,-16.86 -8.83,-31.74 -13.23,-47.57 -19.44,0.11 -38.87,0.07 -58.29,0.02 -4.35,15.31 -13.04,29.62 -13.42,45.84 -0.48,9.04 4.75,16.92 10.83,23.06 -10.97,1.15 -22.03,0.32 -33.03,0.56 -18.79,-0.2 -37.6,0.43 -56.37,-0.34 2.81,-6.36 9.72,-9.07 13.36,-14.78 18.03,-24.9 27.03,-54.68 36.65,-83.52 13.46,-39.29 26.6,-78.68 40.08,-117.96 2.4,-7.15 2.71,-15.22 -0.19,-22.26 -2.01,-5.23 -7.59,-7.43 -11.38,-11.1zm25.3 5.68c4.23,3.75 8.18,8.02 13.2,10.71 13.23,3.43 24.98,-4.57 36.02,-10.59 -16.41,-0.28 -32.81,-0.05 -49.22,-0.12zm30.93 16.78c23.52,68.5 48.73,136.41 73.21,204.57 10.41,3.96 20.56,8.58 31.03,12.39 -3.12,-6.58 -6.77,-12.92 -9.29,-19.77 -22.1,-60.99 -43.92,-122.09 -65.57,-183.25 -2.47,-8.78 -2.38,-18.02 -3.52,-27.02 -8.7,4.18 -17.38,8.45 -25.86,13.08zm-33.95 -10.73c0.79,11.81 -2.43,23.31 -5.59,34.58 -6.82,23.12 -15.9,45.49 -23.65,68.31 -5.28,15.91 -10.68,31.77 -16.36,47.54 -9.63,25.92 -18.58,52.45 -33.32,76.04 7.15,-2.72 14.53,-4.81 21.58,-7.78 2.19,-0.7 2.54,-3.26 3.41,-5.06 22.18,-65.19 44.59,-130.33 66.84,-195.51 3.07,-8.83 -6.92,-13.99 -12.91,-18.12zm18.11 11.57c1.52,7.97 -2.87,15.14 -5.13,22.48 -12.24,35.76 -25.15,71.28 -37.05,107.14 7.19,-6.48 17.76,-10.91 20.4,-21 6.02,-18.36 12,-36.74 19.14,-54.71 1.11,-2.55 2.02,-5.41 4.35,-7.14 9.91,23.04 16.68,47.29 26.62,70.33 9.02,4.58 18,9.21 27.17,13.48 -14.72,-44.13 -30.92,-87.77 -46.16,-131.73 -3.14,0.29 -6.24,0.69 -9.34,1.15zm-0.19 69.93c-4.68,13.8 -9.23,27.63 -13.85,41.45 10.13,0 20.24,-0.04 30.37,0.03 -5.48,-13.83 -10.63,-27.8 -16.52,-41.48zm-37.27 63.05c28.16,0.34 56.38,0.56 84.55,-0.12 -7.31,-4.48 -15.11,-8.04 -22.72,-11.93 -6.15,-3.42 -13.38,-2.08 -20.09,-2.27 -7.35,0.28 -14.81,-0.7 -22.1,0.54 -7.06,3.78 -13.16,9.1 -19.64,13.78zm-1.1 5.4c2.93,3.84 5.92,7.64 8.9,11.48 19.87,0.23 39.75,-0.03 59.64,0.16 9.38,1.09 15.74,-6.98 22.83,-11.64 -30.46,0 -60.92,0.02 -91.37,0zm-28.3 68.02c6.39,2.98 12.79,5.98 19.23,8.9 -1.03,-6.35 -1.81,-12.84 -0.75,-19.25 2,-14.88 10.01,-28.15 12.56,-42.88 -2.48,-4.39 -6,-8.09 -9.15,-11.98 -8.18,21.41 -14.59,43.49 -21.89,65.21zm106.88 -51.19c6.04,19.61 15.66,39.07 13.38,60.19 9.51,-3.98 19.28,-7.37 28.35,-12.38 -7.42,-20.33 -14.88,-40.64 -22.56,-60.87 -6.45,4.27 -12.86,8.57 -19.17,13.06zm-132.15 64.15c12.45,-0.2 24.94,0.69 37.34,-0.74 -5.23,-3.07 -10.51,-6.37 -16.44,-7.83 -7.36,1.71 -14.15,5.28 -20.9,8.57zm151.35 -0.31c17.8,0.46 35.59,0.35 53.4,0.29 -9.56,-4.16 -19.57,-7.11 -29.43,-10.39 -7.99,3.36 -16.1,6.47 -23.97,10.1zm-331.74 -249.46c8.84,0.91 17.65,2.55 26.58,2.52 46.82,-0.05 93.66,-0.02 140.49,-0.02 6.67,-0.05 13.2,-1.56 19.75,-2.67 0.14,21.73 -0.29,43.47 -0.72,65.21 -3.89,-7.13 -9.93,-13.78 -18.26,-15.29 -13.61,-1.63 -27.36,-0.94 -41,-0.19 0.29,49.29 -0.71,98.54 -0.45,147.82 0.29,14.88 -1.89,30.71 5.33,44.44 2.73,7.13 12.07,7.73 14.95,14.88 -36.12,0.77 -72.27,0.37 -108.41,0.19 3.15,-10.05 15.41,-13.08 18.22,-23.18 1.06,-3.4 1.32,-6.98 1.36,-10.51 -0.09,-57.81 0.03,-115.61 -0.06,-173.42 -13.83,-2.48 -27.92,-1.06 -41.76,0.57 -7.04,2.06 -9.9,9.67 -14.07,14.96 -0.53,-0.08 -1.59,-0.29 -2.13,-0.39 -0.66,-21.62 -0.32,-43.29 0.18,-64.92zm13.85 8.62c3.84,5.13 7.83,10.12 11.81,15.16 45.19,0.32 90.39,0.08 135.6,0.12 4.54,-5.04 9.12,-10.05 13.46,-15.26 -53.63,-0.22 -107.25,-0.19 -160.87,-0.02zm-5.73 3.1c-0.02,9.69 0.04,19.36 -0.22,29.04 4.87,-4.33 9.17,-9.25 13.08,-14.46 -4.13,-4.99 -8.37,-9.91 -12.86,-14.58zm158.09 16.62c4.01,5.11 8.2,10.09 12.5,14.98 -0.07,-9.77 0,-19.54 -0.09,-29.3 -4.35,4.58 -8.41,9.41 -12.41,14.32zm-152.14 14.71c17.31,-3.83 35.28,-1.6 52.87,-1.31 -0.28,61.1 -0.02,122.2 -0.14,183.29 -0.2,6.67 -2.74,12.93 -4.4,19.31 9.18,-3.6 19.62,-4.94 27.72,-10.79 0.63,-67.42 0.1,-134.89 0.25,-202.33 -21.32,-0.02 -42.65,0 -63.97,0 -4.19,3.87 -8.32,7.8 -12.33,11.83zm81.94 -11.85c-0.24,67.65 0.23,135.29 -0.22,202.94 9.12,4.51 18.55,8.31 27.82,12.48 -2.59,-8.15 -4.88,-16.53 -4.56,-25.15 0.24,-59.75 -0.22,-119.49 0.23,-179.23 16.81,0.19 33.61,0.19 50.43,0.02 -2.73,-3.71 -5.5,-7.36 -8.26,-10.99 -21.83,-0.12 -43.63,-0.02 -65.44,-0.07zm-3.46 208.37c-8.04,2.61 -15.82,5.95 -23.78,8.83 15.89,1.01 31.85,0.55 47.76,0.27 -6,-2.88 -12.07,-5.6 -18.22,-8.12 -1.85,-0.62 -3.79,-1.78 -5.76,-0.98zm121.01 -322.1c9.4,-1.93 18.21,-5.82 26.88,-9.87 -0.65,4.65 2.88,13.63 -3.99,14.23 -0.67,-1.13 -2.03,-3.41 -2.69,-4.55 -3.07,1.12 -6.12,2.25 -9.16,3.42 -1.1,14.09 -1.15,28.23 -0.34,42.36 1.87,1.08 3.75,2.16 5.66,3.24 -7.86,5.12 -17.4,6.97 -26.61,7.62 1.82,-2.19 3.7,-4.35 5.66,-6.44 0.25,-14.33 0.15,-28.68 0.03,-43.01 -2.88,0.68 -5.74,1.37 -8.6,2.12 -1.15,3.96 -2.47,8.08 -7.31,8.22 -0.51,-3.98 -1.09,-7.98 -1.21,-11.99 6.84,-3 14.5,-3.36 21.68,-5.35zm56.76 -28.16c5.25,-5.26 12.48,-7.75 19.44,-9.93 0.89,3.65 -1.42,6.31 -3.79,8.73 -0.25,15.29 -0.22,30.58 -0.03,45.87 1.85,1.85 3.94,3.77 4.06,6.62 -4.94,4.15 -11.26,6.32 -17.18,8.69 -4.95,-0.62 -1.2,-6 0.81,-7.97 0.17,-7.41 -0.22,-14.8 -0.36,-22.2 -3.65,1.32 -7.29,2.66 -10.9,4.01 -0.12,7.44 -0.29,14.92 0.03,22.37 1.72,2.64 3.04,5.51 4.08,8.49 -7.01,2.98 -14.14,5.76 -21.53,7.73 -0.1,-3.46 1.99,-6 4.29,-8.28 0.24,-14.28 0.29,-28.58 -0.02,-42.84 -1.22,-1.54 -5.54,-3.69 -2.92,-6.02 5.11,-6.22 12.74,-9.75 20.2,-12.43 -0.62,3.88 -2.64,7.22 -4.22,10.75 -0.94,5.09 -0.58,10.31 -0.79,15.47 4.2,-1.48 8.35,-3.12 12.45,-4.94 -0.04,-6.14 -0.07,-12.29 -0.82,-18.38 -1.91,-1.46 -4.34,-3.05 -2.8,-5.74zm23.61 -9.83c13.47,-6.77 29.07,-4.14 43.16,-0.95 -0.63,3.73 -1.25,7.49 -1.97,11.22 -3.1,-2.86 -5.78,-6.2 -9.1,-8.83 -4.44,-2.38 -9.7,-1.09 -14.47,-0.92 0.05,6.7 -0.1,13.42 -0.39,20.13 5.09,0.34 9.15,-2.56 12.66,-5.9 0.86,4.71 1.5,9.53 0.91,14.33 -4.71,-0.15 -8,-5.31 -13.15,-4.46 -0.08,8.59 -0.05,17.2 -0.01,25.78 5.43,0.54 11.05,1.5 16.42,-0.08 2.28,-2.79 2.67,-6.72 5.23,-9.33 4.42,4.39 2.67,11.52 2.47,17.16 -13.48,-4.59 -27.45,-1.04 -40.82,1.79 0.94,-2.57 1.95,-5.13 3.12,-7.61 0.33,-15.85 0.84,-31.7 0.69,-47.54 -1.62,-1.6 -3.19,-3.19 -4.75,-4.79zm-58.15 13.24c20.31,-11.64 39.36,-27.53 63.2,-31.13 22.5,-2.9 48.14,-0.94 65.23,15.73 -11.36,23.83 -11.57,51.64 -4.95,76.84 0.94,3.96 2.62,7.76 2.93,11.86 -1.82,14.74 -12.89,27.19 -26.13,33.16 -3.85,1.03 -7.98,3.07 -12,1.99 -0.78,-2.87 1.26,-5.37 2.23,-7.91 6.09,-12.75 9.65,-27.53 6.43,-41.53 -12.51,-2.59 -25.64,-0.83 -37.49,3.75 -18.43,6.67 -34.63,18.57 -53.71,23.57 -31.49,9.33 -66.08,14.14 -97.9,3.72 -19.25,-6.02 -34.8,-20.18 -46.06,-36.53 -2.71,-3.99 -4.31,-8.61 -5.68,-13.2 15.7,7.64 31.8,15.74 49.49,17.19 8.99,1 18.12,-0.42 26.57,-3.58 -32.26,-10.83 -56,-42.79 -57.34,-76.7 6.52,4.8 11.57,11.27 18.1,16.07 16.99,13.8 38.59,23.1 60.79,21.7 16.32,-1.25 32.2,-6.74 46.29,-15zm-1.77 6.58c-19.68,10.91 -43.06,16.01 -65.33,11.52 -19.59,-3.41 -36.82,-14.36 -51.39,-27.48 5.57,24.48 23.28,45.69 46.3,55.65 5.4,2.28 11.37,2.98 16.7,5.5 0.05,0.52 0.17,1.51 0.22,2.01 -23.54,13.92 -53.02,8.93 -77.16,-0.89 14.04,18.25 34.1,32.48 56.98,36.78 28.96,5.59 58.89,-0.13 86.3,-10.02 12.81,-4.36 24.15,-11.92 36.6,-17.1 15.22,-6.7 31.95,-11.48 48.72,-9.24 7.82,0.93 15.1,4.1 22.25,7.29 -6.55,-24.5 -5.96,-50.97 3.16,-74.74 -14.13,-13.1 -34.84,-14.03 -52.99,-12.21 -26.33,3.6 -47.57,20.78 -70.36,32.93zm105.47 54.69c0.6,14.43 -3.09,28.51 -8.42,41.79 13.06,-4.06 24.41,-15.53 25.85,-29.43 -1.3,-8.21 -10.8,-10.17 -17.43,-12.36zm-870.42 -99.79c0.79,0.17 2.39,0.5 3.19,0.67 -0.36,0.77 -1.08,2.35 -1.44,3.12 0.79,2.53 1.61,5.29 -1.51,6.77 -0.17,-3.53 -0.25,-7.05 -0.24,-10.56zm8.92 8.97c-3.74,-2.44 -2.85,-8.52 -0.04,-11.42 0.06,1.51 0.16,4.51 0.21,6.02 0.1,1.78 0.5,3.65 -0.17,5.4zm11.33 -2.9c-2.26,-3.64 -3.07,-8.61 0.12,-11.97 0.17,3.98 0.17,7.97 -0.12,11.97zm184.15 -4.03c-0.14,-3.63 -1.27,-8.19 2.59,-10.34 -0.35,1.77 -0.71,3.53 -1.08,5.32 0.53,1.45 1.06,2.93 1.61,4.4 -0.79,0.16 -2.33,0.46 -3.12,0.62zm-169.03 -0.62c-5.09,-0.61 -3.07,-7.64 -1.27,-10.75 0.5,3.57 0.94,7.15 1.27,10.75zm155.31 -11.67c0.79,0.07 2.4,0.24 3.19,0.32 -0.43,0.9 -1.28,2.68 -1.71,3.59 0.6,1.61 1.18,3.24 1.78,4.87 -0.8,0.13 -2.45,0.42 -3.27,0.56 -0.02,-3.12 0,-6.24 0.01,-9.34zm-12.92 5.19c0.22,-3.34 0.15,-6.82 2.09,-9.7 -0.02,1.63 -0.05,4.88 -0.05,6.51 0.46,0.91 1.42,2.71 1.9,3.62 -0.99,-0.1 -2.95,-0.32 -3.94,-0.43zm-130.22 1.8c0.38,-3.53 0.63,-7.06 1.39,-10.51 0.79,3.45 1.41,6.96 2.09,10.46 -0.86,0.02 -2.61,0.03 -3.48,0.05zm120.65 -2.4c-4.52,-2.07 -3.67,-8.72 -0.53,-11.67 -0.14,1.87 -0.27,3.74 -0.41,5.62 0.31,2.01 0.63,4.01 0.94,6.05zm-87.41 -0.84c0.34,-3.65 -0.68,-8.16 2.79,-10.63 -0.3,1.96 -0.61,3.91 -0.92,5.85 0.53,1.47 1.08,2.95 1.63,4.42 -0.88,0.09 -2.62,0.28 -3.5,0.36zm73.25 -0.7c-3.13,-3.5 -3,-8.33 -0.32,-12.03 0.32,3.99 0.51,8 0.32,12.03zm-12.01 -1.01c-2.75,-3.31 -3.23,-8.3 -0.23,-11.61 0.28,3.86 0.4,7.73 0.23,11.61zm-28.5 -0.5c-4.62,-1.32 -4.98,-8.91 -0.55,-10.66 -0.34,1.82 -0.7,3.63 -1.06,5.45 0.4,1.3 1.2,3.91 1.61,5.21zm-18.78 -1.42c0.25,-3.29 0.51,-6.62 2.4,-9.41 0.25,3.75 0.39,7.5 0.51,11.28 -0.74,-0.48 -2.18,-1.41 -2.91,-1.87zm33.18 0.87c-5.07,-1.42 -2.64,-7.68 -1.71,-11.26 0.7,3.72 1.3,7.47 1.71,11.26zm-41.35 -208.47c4.82,-2.14 9.62,-4.8 15,-5.13 5.65,-0.46 10.96,1.89 16.17,3.69 -3.38,-7.55 -10.83,-14.11 -19.61,-12.52 -7.06,0.76 -9.77,8.15 -11.56,13.96zm10.39 1.2c-4.32,1.27 -10.99,3.63 -9.49,9.41 0.82,6.6 0.94,13.95 4.88,19.59 6.12,4.7 16.08,3.23 21.62,-1.76 3.67,-7.18 3.46,-15.53 4.06,-23.39 -6.41,-3.44 -13.8,-5.98 -21.07,-3.85zm-5.55 46.23c-4.18,1.2 -6.87,7.32 -11.69,5.13 -2.33,0.92 -4.63,1.9 -6.95,2.86 -4.59,4.42 -7.97,9.81 -10.9,15.43 0.33,0.8 1,2.42 1.34,3.22 0,1.7 0.22,3.38 0.63,5.03 -1.9,4.73 -2.4,10.11 -0.61,14.96 2.31,5.06 7.44,7.83 12.13,10.32 4.05,-2.88 7.61,-6.33 11.3,-9.63 5.2,2.6 5.04,10.11 6.82,15.1 -2.86,1.7 -5.65,3.48 -8.36,5.4 -3.46,-0.19 -6.91,-0.43 -10.34,-0.77 -3.14,6.27 -2.45,13.3 -1.83,20.06 4.85,-2.54 9.65,-5.8 15.24,-6.36 0.7,0.54 2.12,1.68 2.82,2.24 3.3,-1.1 6.57,-2.3 9.59,-4.03 2.62,-0.75 5.28,-1.47 7.9,-2.29 7.49,5.21 17.2,4.8 25.32,8.69 2.5,0.58 3.64,2.95 4.99,4.88 -1.46,-0.22 -4.41,-0.65 -5.86,-0.86 2.07,1.1 4.18,2.11 6.36,3.02 -0.04,-9.82 1.04,-20.12 -3.54,-29.21 -7.83,4.68 -16.59,-0.1 -23.43,-4.35 1.32,-4.22 3.12,-8.27 5.11,-12.19 5.42,1.04 10.7,2.81 15.45,5.66 2.1,-0.31 4.21,-0.62 6.34,-0.93 1.68,-4.23 3.91,-8.31 4.85,-12.79 -0.28,-4.49 -1.03,-9 -0.33,-13.49 -0.41,-0.64 -1.23,-1.9 -1.64,-2.54 -0.46,-4.54 -1.15,-9.05 -2.06,-13.51 -5.72,-2.64 -12.12,-5.83 -18.39,-2.98 -5.28,-1.66 -10.17,-4.27 -14.92,-7.05 -4.75,-2.98 -10.42,-0.05 -15.34,0.98zm-5.37 88.67c-2.4,1.2 -5.88,2.19 -5.21,5.89 -0.92,-1.1 -1.83,-2.21 -2.72,-3.31 -1.05,0.6 -3.14,1.8 -4.19,2.4 -0.22,-1.49 -0.67,-4.49 -0.89,-6 -0.34,2.44 -0.48,4.91 -0.6,7.36 2.74,0.07 5.49,0.12 8.25,0.12 -3.5,4.69 -9.14,9.17 -7.97,15.75 -0.04,4.43 2.79,11.37 8.26,9.81 5.59,-1.05 12.12,-1.17 16.01,-5.92 4.7,-4.35 6.84,-10.47 9.41,-16.15 4.55,7.99 8.75,16.79 17.02,21.62 -0.75,1.42 -1.49,2.87 -2.24,4.29 -5.09,-5.76 -9.55,-12.04 -13.66,-18.52 -4.15,5.97 -7.51,13.24 -14.66,16.17 -4.35,-0.74 -8.71,-0.03 -12.77,1.59 0.65,3.3 0.92,6.67 1.76,9.93 2.92,2.38 3.67,-3.36 1.19,-4.48 -0.12,-1.35 -0.35,-4.09 -0.45,-5.46 2.81,1.75 4.99,4.23 7.2,6.65 1.63,-0.94 3.26,-1.87 4.9,-2.8 5.32,0.83 10.82,2.8 16.17,1.14 5.78,-1.93 11.67,0.87 17.52,-0.16 0.48,-2.37 0.94,-4.71 1.39,-7.08 1.47,1.77 3.27,2.59 5.35,2.49 -0.43,-1.53 -0.9,-3.05 -1.39,-4.55 3.03,-2.82 6.34,-5.96 6.22,-10.49 1.29,-8.72 -6.94,-14.02 -10.46,-21.05 -6.03,-2.67 -12.78,-3.6 -19.35,-3.84 -1.77,1.53 -3.34,3.24 -4.96,4.92 -5.14,-6.02 -12.99,-2.74 -19.13,-0.32zm134.49 4.64c-2.18,9.76 -4.1,19.58 -5.71,29.44 55.42,16.81 106.42,48.03 146.06,90.34 7.4,-12.91 14.42,-26.02 21.43,-39.14 -4.32,1.15 -8.92,3.38 -13.37,1.54 -7.79,-2.84 -13.1,-9.61 -19.51,-14.52 -37.79,-30.89 -81.72,-54.84 -128.9,-67.66zm-419.45 178.25c-28.97,54.57 -43.24,116.75 -41.47,178.48 1.37,45.08 11.06,89.96 28.92,131.41 23.24,54.6 60.39,103.1 106.73,140.15 49.37,39.63 109.39,65.86 172.05,75.01 67.08,9.86 136.95,0.76 198.9,-26.91 61.14,-26.91 114.3,-71.42 151.99,-126.5 15.91,-23.59 29.92,-48.75 39.02,-75.79 3.33,-9.15 8.04,-17.86 14.71,-25.02 -12.46,0.15 -24.93,-0.48 -37.39,-0.4 -23.69,74.01 -74.93,138.6 -141.12,179.2 -52.16,32.21 -113.5,49.44 -174.82,48.73 -69.26,0.14 -138.23,-22.78 -193.89,-63.92 -48.2,-35.39 -86.6,-84.04 -109.52,-139.29 -22.53,-53.83 -30.12,-113.69 -22.32,-171.48 7.47,-56.54 30.1,-110.95 64.83,-156.17 36.38,-47.74 86.01,-85.01 141.76,-107.19 -2.13,-9.93 -4.36,-19.86 -7.5,-29.52 -81.32,30.83 -150.49,92.19 -190.88,169.21zm331.63 -145.09c-2.8,0.78 -1.58,5.62 1.26,5.04 2.9,-0.74 1.67,-5.8 -1.26,-5.04zm81.15 3.59c-0.79,7.17 -1.37,14.34 -1.71,21.54 3.31,2.17 8.46,3.91 8.12,8.77 0.89,2.52 -1.28,7.67 2.92,7.44 11.58,-4.86 22.85,-12.1 35.91,-11.7 9.26,-0.11 16.25,6.89 21.86,13.42 11.93,14.24 21.92,31.16 38.81,40.22 11.57,6.75 26.54,11.31 32.24,24.65 4.74,10.35 1.15,21.58 -0.53,32.12 14.47,24.6 24.66,51.6 30.52,79.54 0.58,-10.45 -1.2,-20.81 -2.45,-31.14 -3.6,-27.31 -9.84,-54.21 -17.4,-80.68 -1.82,-5.86 -2.71,-12.46 -7.15,-17.07 -38.49,-40.55 -87.53,-71.09 -141.14,-87.11zm-373.01 146.89c-30.26,51.56 -45.53,111.73 -43.84,171.47 1.34,50.61 14.73,100.89 38.99,145.36 30.73,56.67 78.75,103.89 136.16,133.32 59.45,31.06 128.83,42.39 195.14,32.55 53.31,-7.76 104.52,-29.26 147.48,-61.76 52.7,-39.53 93.31,-95.38 113.5,-158.18 -10.38,-11.4 -19.92,-23.55 -30.39,-34.87 -0.19,9.57 0.17,19.36 -2.68,28.61 -13.19,39.09 -35.17,75.07 -63.32,105.18 0.58,0.84 1.77,2.5 2.35,3.32 -1.17,-0.22 -3.5,-0.67 -4.66,-0.89 -28.5,29.33 -62.97,52.9 -100.99,68.07 0.31,3.4 0.63,6.79 0.87,10.2 -2.69,-2.43 -5.35,-4.85 -8,-7.3 -36.18,13.17 -74.9,19.51 -113.37,17.68 -2.23,7.4 -4.3,14.84 -6.75,22.18 -1.82,-7.61 -3.52,-15.24 -5.25,-22.87 -34.3,-2.69 -67.84,-12.03 -99.14,-26.14 -3.98,5.77 -8.07,11.5 -12.72,16.78 0.58,-7.42 1.56,-14.8 2.4,-22.2 -32.41,-16.63 -61.33,-39.75 -85.42,-67.05 -6.65,3.71 -13.34,7.38 -20.35,10.38 3.07,-6.43 7.39,-12.11 10.99,-18.23 1.95,-2.05 -0.53,-4.03 -1.54,-5.72 -22.48,-28.82 -39.11,-62.08 -49.25,-97.15 -4.58,-0.05 -9.16,-0.1 -13.74,-0.19 3.98,-2.13 7.98,-4.18 11.99,-6.21 -8.59,-32.77 -10.85,-66.92 -8.23,-100.64 -2.71,-1.1 -5.4,-2.25 -8.09,-3.34 2.93,-0.81 5.86,-1.67 8.81,-2.42 3.62,-33.09 13.27,-65.37 27.75,-95.3 -2.59,-3.02 -5.18,-6.03 -7.71,-9.08 4.11,-0.57 8.24,-1.12 12.36,-1.63 -3.52,-10.99 -9.07,-24.09 -1.43,-34.63 7.29,-12.59 23.16,-15.14 32.11,-25.97 9.72,-11.27 17.08,-24.28 24.83,-36.91 5.07,-8.47 14.45,-13.37 23.93,-15.09 8.67,-2.06 17.28,0.65 25.66,2.59 8.59,-3.56 16.23,-9.1 24.79,-12.82 0.44,-4.48 0.44,-9.1 1.95,-13.39 1.89,-2.08 4.7,-2.97 7.05,-4.39 -0.5,-7.04 -1.37,-14.06 -2.5,-21.03 -66.64,26.36 -123.78,75.77 -159.74,137.71zm283.16 -129.47c-6.95,-0.75 -13.95,0.28 -20.93,-0.25 -3.63,-0.4 -7.06,1.04 -10.45,2.05 -1.22,-0.34 -3.64,-1.06 -4.86,-1.42 -4.45,1.87 -9.11,4.1 -14.03,2.66 -4.33,-1.27 -8.13,1.52 -11.85,3.24 -5.33,-1.19 -10.78,-1.2 -15.94,0.7 -7.8,-0.84 -14.04,5.01 -21.69,5.3 -8.6,1.01 -16.04,6.08 -24.56,7.26 -1.51,5.75 -2.49,12.14 0.47,17.61 4.41,0.28 9.4,0.34 13.08,-2.47 6.72,-5.83 16.21,-4.75 24.47,-5.81 6.7,-6.07 16.4,-0.91 23.65,-6 13.84,-0.65 28.15,-0.17 41.73,-3.62 5.81,1.89 11.93,1.84 17.45,-0.97 5.86,0.8 12.04,1.88 17.64,-0.65 3.98,1.07 8.08,1.47 12.17,1.42 9.04,2.04 18.83,-0.74 27.43,3.32 3.16,1.68 6.69,2.13 10.24,2.11 8.53,2.76 17.74,3.5 26.71,4 1.49,-5.69 2.22,-11.56 1.97,-17.44 -8.8,-0.43 -17.25,-3.92 -26.1,-3.14 -8.33,-2.6 -17.09,-6.66 -25.91,-4.47 -8.27,-3.55 -17.56,-4.25 -26.46,-3.48 -4.59,-2.19 -9.65,-2.21 -14.23,0.05zm90.26 35.01c-3.79,13.88 -6.48,28.46 -13.76,41.11 -16.29,28.44 -45,49.75 -77.18,56.33 -21.39,3.43 -43.58,-1.72 -62.4,-12.07 -24.22,-13.18 -43.06,-34.9 -55.01,-59.55 -17.73,-2.56 -33.45,-13.91 -51.79,-12.9 -12.22,0.48 -22.96,7.72 -30.84,16.63 -7.18,7.46 -10.46,17.71 -17.73,25.08 -11.89,12.96 -28.83,22.48 -34.76,39.98 -6.26,17.86 5.59,35.21 5.14,53.18 1.47,14.77 -3.31,29.96 1.11,44.41 2.08,7.98 11.42,10.44 18.64,10.79 14.62,0.43 26.95,-8.83 36.86,-18.59 14.52,-14.62 25.23,-34.57 24.07,-55.66 -1.05,-22.88 -12.12,-45.5 -5.95,-68.5 2.84,-8.51 6.29,-19.61 16.16,-21.93 -2.79,5.27 -6.79,9.93 -8.53,15.71 -4.03,12.01 -2.58,24.99 -0.06,37.18 2.33,11.93 7.43,23.45 7.03,35.83 0.79,21.96 -9.84,42.8 -24.67,58.44 -3,3.49 -7.28,6.3 -8.24,11.12 -5.61,20.9 -11.52,42.89 -7.13,64.6 8.04,-27.6 24.82,-51.31 36.37,-77.37 6.4,-14.57 10.6,-30.36 10.32,-46.37 -0.25,-5.71 -1.09,-11.4 -0.94,-17.11 1.8,1.95 3.98,3.93 3.91,6.88 1.87,15.51 -0.33,31.4 -5.5,46.11 -6.21,17.86 -16.31,33.99 -24.21,51.09 -12.65,29.69 -26.4,60.15 -27.1,93 1.03,22.93 4.45,46.08 12.92,67.54 8.92,22.63 24.66,43.37 46.46,54.8 11.44,6.4 25.03,11.97 38.23,7.94 9.45,-2.45 15.05,-11.73 16.97,-20.74 -7.78,-10.2 -14.91,-21.33 -17.76,-34 -2.3,-9.73 -5.09,-19.8 -3.24,-29.88 2.88,6.76 3.16,14.27 5.55,21.19 6.5,21.09 20.06,41.03 40.33,50.88 12.03,5.99 26.62,4.48 38.34,-1.52 8.97,-4.26 15.4,-12.17 23.87,-17.21 7.18,-4.74 15.48,-7.69 24.06,-8.47 -0.42,0.87 -1.26,2.6 -1.69,3.48 -6.48,3.07 -13.46,5.16 -19.49,9.19 12.84,18.08 39.65,23.34 58.87,12.82 12.44,-6.58 21.87,-18.07 27.41,-30.88 6.56,-16.44 10.83,-33.72 13.95,-51.12 0.41,-2.77 1.17,-5.55 3.36,-7.45 0.91,7.45 -0.38,14.91 -1.73,22.23 -3.1,14.81 -6.48,29.86 -14.01,43.17 -5.55,10.06 0.29,22.04 7.73,29.38 7.5,7.9 20.06,9.21 29.66,4.58 10.94,-4.32 18.41,-13.91 25.08,-23.16 18.95,-28.17 31.29,-61.67 29.99,-95.99 1.02,-32.96 -12.6,-63.65 -26.06,-92.94 -4.77,15.32 -8.14,31.04 -11.68,46.69 6.23,4.8 12.9,9.91 15.74,17.56 3.65,9.94 2.95,22.44 -4.66,30.39 -6.5,7.32 -17.21,9.4 -26.47,7.44 -13.56,-2.69 -25.08,-10.78 -36.48,-18.14 -13.27,-8.77 -28.47,-16.93 -44.93,-15.2 -3.33,-0.28 -8.01,2.07 -10.1,-1.67 5.21,-4.06 12.46,-2.36 18.62,-2.81 23.45,0.54 41.95,16.6 61.58,27.28 10.07,4.51 24.63,5.35 31.81,-4.56 7.13,-7.89 5.71,-20.45 -0.63,-28.36 -7.51,-9.29 -19.05,-13.71 -29.3,-19.23 -15.31,-8.61 -32.4,-13.54 -49.66,-16.3 -41.37,-6.29 -83.5,0.2 -123.6,10.78 -30.43,7.8 -60.04,21.19 -83.57,42.31 -7.38,7.85 -11.56,19.66 -9.28,30.38 2.37,11.22 16.49,17.82 26.78,13.04 13.47,-5.78 22.29,-18.48 35.42,-24.82 5.76,-2.74 11.6,-6.19 18.24,-5.54 -2.3,4.22 -7.07,5.52 -11.01,7.68 -13.85,7.24 -25.9,17.37 -37.9,27.28 -8.3,7.04 -21.23,7.5 -30.48,2.09 -7.79,-5.47 -11.35,-15.55 -10.6,-24.81 0.5,-10.51 6.6,-19.56 12.76,-27.65 -0.91,-13.59 -2.21,-27.19 -2.02,-40.82 0.11,-26.21 5.51,-54.24 24.18,-73.87 -6.24,-29.77 -8.09,-60.37 -6.54,-90.72 -0.24,-2.53 0.73,-6.15 -2.18,-7.45 -6.84,-4.46 -13.37,-9.48 -18.52,-15.88 -3.32,-4.28 -7.23,-8.79 -7.35,-14.52 4.73,3.64 8.48,8.32 12.7,12.52 9.86,10.27 26.64,9.39 35.8,20.6 11.82,15.65 19.44,34.99 35.43,47.15 10.05,7.73 24.67,11.86 36.1,4.61 7.22,-3.6 10.17,-11.37 13.29,-18.24 3.33,7.28 -1.29,15 -6.19,20.28 -6.19,6.78 -15.31,9.6 -24.12,10.9 -0.05,4.63 -0.24,9.82 2.37,13.87 2.77,2.12 6.53,2.16 9.82,2.98 14.59,-7.85 33.05,-12.41 48.58,-4.47 7.72,3.75 11.11,12 14.76,19.21 1.8,4.12 8.23,5.97 7.32,11.01 -4.99,1.28 -10.13,1.7 -15.22,2.35 -7.89,1.22 -12.86,-6.12 -19.23,-9.26 -0.49,4.85 3.08,11.61 -2.87,14.25 -6,2.31 -12.73,2.07 -19.06,1.8 -2.64,-3.16 -1.34,-7.72 -2.13,-11.47 -6.05,3.08 -9.34,9.34 -14.7,13.23 -5.37,2.64 -11.51,3.23 -17.39,2.76 7.19,-10.85 6.53,-24.75 13.96,-35.47 -16.08,-5.29 -33.86,-5.57 -49.75,0.53 -14.93,5.22 -26.37,17.65 -33.02,31.7 -7.56,15.93 -9.33,34.01 -7.92,51.41 0.84,10.75 0.93,21.74 4.58,32.03 24.03,-16.44 50.72,-29.27 79.13,-36 9.77,-1.98 18.93,-6.09 27.67,-10.77 9.2,-5.04 18.86,-9.39 27.07,-16.01 24.46,-18.79 41.38,-46.75 69.58,-60.69 16.22,-8.07 36.19,-11.79 53.14,-3.72 12.88,5.71 19.01,20.45 19.66,33.79 1.15,22.91 -9.56,43.85 -17.48,64.68 4.37,2.68 8.73,5.42 13.53,7.29 7.09,-22.29 12.42,-45.24 14.94,-68.5 1.44,-17.65 1.08,-37.51 -10.76,-51.86 -9.38,-11.71 -26.44,-13.7 -39.94,-8.9 -13.26,3.45 -24.19,12.67 -37.55,15.64 0.6,-0.91 1.79,-2.75 2.39,-3.66 8.38,-4.14 17.46,-7.49 24.03,-14.48 -13.03,-0.31 -25.95,2.3 -38.31,6.24 -13.7,4.61 -24.72,14.31 -34.91,24.2 -4.93,0.09 -0.49,-4.8 0.62,-6.87 2.16,-2.78 4.56,-8.71 -0.29,-10.06 -11.25,-3.98 -24.5,-10.84 -25.87,-24.16 4.56,3.52 8.19,8.21 13.23,11.13 9.3,5.14 21.48,5.52 30.47,-0.52 16.23,-10.26 22.8,-29.62 36.36,-42.51 16.57,-15.31 40.21,-18.28 58.3,-31.13 3.43,-2.21 1.89,-7.22 2.6,-10.65 0.49,-12.55 -0.42,-28.51 -12.51,-35.65 -6.14,-4.38 -13.87,-2.73 -20.85,-3.48 12.81,-12.3 35.9,-1.7 37.82,15.22 1.68,33.1 -1.83,67.64 10.82,99.15 5.57,14.87 16.23,26.95 27.72,37.56 5.45,4.84 12.69,8.57 20.18,7.41 5.55,-3.1 9.82,-9.04 9.92,-15.55 1.92,-17.92 -0.32,-36.77 6.89,-53.74 6.5,-16.68 12.96,-35.08 7.77,-53.03 -3.93,-12.37 -16.51,-18.39 -26.79,-24.7 -16.14,-9.12 -25.27,-26 -38.82,-38.11 -7.88,-7.2 -18.1,-12.8 -29.09,-12.19 -13.39,0.98 -26.06,8.32 -34.56,18.52zm172.97 -5.32c-7.45,14.4 -15.05,28.74 -22.56,43.1 11.2,36.84 19.89,74.76 22.27,113.26 1.55,-23.36 0.48,-46.8 0.79,-70.18 -0.33,-28.73 0.67,-57.48 -0.5,-86.18zm-293.86 9.55c-9.77,11.15 -19.17,23.61 -22.22,38.45 5.47,-8.84 11.68,-17.21 18.6,-24.97 4.94,-5.73 10.84,-10.56 15.38,-16.63 -3.96,0.51 -9.02,-0.55 -11.76,3.15zm56.4 1.51c-11.16,14.06 -21.51,29.13 -27.43,46.22 13.44,-17.16 27.98,-33.48 44.66,-47.57 -5.54,-1.27 -13.17,-4.46 -17.23,1.35zm-1.95 69.7c-22.56,11.76 -50.46,12.35 -73.56,1.75 -28.73,-12.79 -50.37,-38.17 -62.87,-66.63 -1.47,0.56 -4.42,1.68 -5.89,2.24 6.85,17.69 17.43,33.88 30.72,47.42 16.2,16.36 36.96,29.07 59.96,32.59 20.11,3.19 41.09,-1.29 58.48,-11.78 27.9,-16.52 47.29,-45.85 53.31,-77.54 -2.4,-0.27 -4.82,-0.53 -7.22,-0.75 -7.04,29.86 -25.16,58.35 -52.93,72.7zm68.21 20.56c1.13,14.16 2.12,28.34 2.74,42.55 8.85,-2.8 17.79,-6.26 27.27,-4.63 -0.73,-8.13 -4.61,-16.92 -0.85,-24.77 2.81,8.33 3.27,17.21 5.86,25.61 8.55,5.04 16.1,12.07 20.59,21.02 9.2,17.46 9.24,38.04 7.01,57.17 -1.78,8.95 3.81,17.04 6.88,25.06 0.41,1.39 2.89,5.59 3.66,2.38 3.35,-20.52 1.91,-41.6 -0.3,-62.19 -0.02,-6.43 -5.61,-10.34 -8.78,-15.28 -18.52,-25.61 -24.71,-57.92 -24.93,-88.99 -12.62,8.16 -28.16,11.35 -39.15,22.07zm-217.65 0.24c-2.72,29.86 -1.83,60.34 6,89.4 1.7,-0.74 3.4,-1.48 5.09,-2.2 -2.21,-18.75 -6.31,-37.42 -5.14,-56.4 -0.82,-8.04 -0.05,-16.06 0.24,-24.1 0.77,-4.05 -3.51,-5.11 -6.19,-6.7zm207.29 10.35c-0.44,10.53 0.29,21.05 0.55,31.58 1.39,-0.07 4.13,-0.17 5.52,-0.24 0.59,-12.72 0.43,-25.47 -0.61,-38.16 -2.18,1.87 -5.89,3.27 -5.46,6.82zm-18.7 34.58c1.99,-0.38 3.99,-0.72 6.02,-1.01 0.29,-7.43 1.52,-14.88 0.26,-22.27 -7.92,4.85 -9.26,15.1 -6.28,23.28zm-169.25 -20.38c-1.2,13.76 -1.13,28.13 3.74,41.26 0.51,-10.08 2.23,-20.02 3.94,-29.93 -1.06,-4.49 -4.92,-7.77 -7.68,-11.33zm-158.3 2.69c2.45,2.35 5.08,4.52 7.9,6.43 -0.7,-4.15 -3.56,-7 -7.9,-6.43zm476.28 11.02c7.41,-2.67 14.28,-6.58 21.07,-10.58 -6.2,-0.36 -12.44,-1.15 -18.63,-0.49 -3.38,2.43 -2.34,7.45 -2.44,11.07zm-471.98 7.08c-11.62,26.06 -19.43,53.85 -22.74,82.2 19.3,-2.11 38.71,-3.2 58.02,-5.12 1.94,-3.5 9.33,-3.96 8.1,-8.47 -6.06,1.42 -12.26,3.67 -18.55,2.16 -6.26,-1.39 -13.55,-3.6 -16.48,-9.91 -5,-10.17 -3.37,-21.86 -1.56,-32.61 0.83,-10.78 0.48,-21.96 -2.69,-32.33 -2.72,-0.6 -3.13,2.28 -4.1,4.08zm578.75 0.19c9.68,3.69 19.01,8.86 29.14,11.07 9.43,-3.12 18.5,-7.32 27.7,-11.07 -18.96,-0.14 -37.9,-0.15 -56.84,0zm0.17 5.35c0.05,60.53 -0.26,121.06 0.15,181.58 8.58,3.68 16.96,7.78 25.5,11.53 -0.07,-60.51 0.3,-121.03 -0.19,-181.52 -8.56,-3.72 -16.92,-7.84 -25.46,-11.59zm29.95 12.24c0.12,61.25 -0.12,122.52 0.1,183.77 5.66,3.24 11.5,6.17 17.04,9.62 3.57,1.56 4.03,7.15 1.05,9.46 -3.17,2.85 -8.51,3.43 -10.46,7.41 6.14,3.01 12.65,5.17 18.91,7.95 -1.46,-5.66 -2.64,-11.42 -2.64,-17.26 0,-64.05 0.05,-128.09 -0.02,-192.14 0,-7.24 1.48,-14.33 2.66,-21.41 -8.93,4.11 -17.8,8.35 -26.64,12.6zm-387.29 22.99c6.53,-0.45 12.73,-2.68 18.75,-5.13 -6.6,-3.12 -13.73,0.84 -18.75,5.13zm208.28 -4.19c1.65,21.26 3.89,42.6 2.21,63.95 -0.29,5.05 -1.23,10.08 -1.08,15.17 1.08,7.61 4.46,14.65 8.18,21.31 2.11,-9.57 0.5,-19.43 1.85,-29.04 0.41,-3.76 5.28,-2.95 7.85,-4.24 0.81,-12.74 0.59,-25.51 0.91,-38.26 -2.23,-0.84 -4.51,-1.54 -6.63,-2.57 -1.48,-5.88 -1.58,-11.98 -2.27,-17.98 -3.6,-2.87 -7.26,-5.68 -11.02,-8.34zm-99.15 16.97c4.46,12.42 1.66,25.6 -3.1,37.39 21.77,3.71 38.05,-24.27 29.16,-42.79 -7.58,-7.91 -21.35,-3.61 -26.06,5.4zm-20.98 2.05c-2.95,3.3 -7.94,-0.09 -11.11,2.69 -3.95,3.2 -7.27,7.11 -10.43,11.07 2.83,5.11 5.04,10.89 10.12,14.3 3.12,-5.02 4.99,-10.66 7.71,-15.88 3.1,4.94 5.15,10.68 9.7,14.56 7.94,-6.52 11.29,-17.78 8.61,-27.57 -4.05,-3.94 -10.82,-3.02 -14.6,0.83zm-260.32 10.95c-1.87,2.66 -1.97,6.09 -2.84,9.15 -1.98,0.43 -3.97,0.86 -5.94,1.31 -1.78,11.65 -3.53,23.33 -4.95,35.04 1.92,0.92 3.84,1.87 5.76,2.81 0.98,12.34 0.02,24.86 2.66,37.04 1.44,3.83 -2.92,5.4 -5.13,7.43 2.45,11.55 3.84,23.5 8.43,34.47 0.93,-13.95 -0.13,-28.16 3.47,-41.83 3.77,-12.34 0.68,-25.27 1.81,-37.88 0.54,-18.91 5.34,-37.25 8.83,-55.73 -4.21,2.4 -8.84,4.47 -12.1,8.19zm405.24 3.87c-0.67,9.57 -0.46,19.13 -0.48,28.72 19.92,-3.28 39.57,-8.08 59.04,-13.44 -19.23,-6.1 -38.78,-11.32 -58.56,-15.28zm-89.11 9.3c-3.2,12.2 -10.18,23 -18.51,32.33 9.46,3.46 18.91,6.96 28.4,10.37 6.36,-11.47 6.12,-25.36 3.05,-37.75 -1.09,-4.46 -2.79,-9.52 -7.35,-11.49 -4.18,-1.26 -4.7,3.76 -5.59,6.54zm-392.33 7.26c19.53,7 38.98,14.28 58.82,20.34 1.56,-8.58 3.46,-17.15 3.61,-25.91 -20.82,1.46 -41.82,1.92 -62.43,5.57zm3 5.01c-2.57,31.11 0.03,62.62 7.63,92.9 16.92,-8.44 33.68,-17.2 50.6,-25.7 0.09,-0.91 0.28,-2.73 0.36,-3.64 2.03,-1.35 6.35,-1.81 4.98,-5.27 -1.53,-10.38 -2.37,-20.85 -2.23,-31.34 -3.36,-1.96 -6.07,-4.75 -7.94,-8.16 -17.91,-5.93 -35.69,-12.31 -53.4,-18.79zm309.65 12.48c5.2,0.6 10.42,0.74 15.64,0.48 -1.49,-4.46 -4.75,-7.82 -8.68,-10.23 -3.2,2.55 -5.83,5.74 -6.96,9.75zm-24.27 1.83c4.85,0.19 9.74,0 14.52,-0.97 -2.2,-2.61 -3.79,-6.76 -7.49,-7.36 -3.86,1.01 -5.54,5.03 -7.03,8.33zm42.74 -1.38c4.9,1.13 9.92,1.64 14.96,1.32 -1.06,-4.19 -3.08,-7.99 -6.15,-11.03 -3.77,2.42 -6.69,5.8 -8.81,9.71zm21.17 2.4c4.74,1.16 9.53,2.26 14.41,2.76 -1.56,-3.76 -1.93,-8.83 -6.05,-10.82 -4.11,0.94 -6.2,4.85 -8.36,8.06zm122.4 55.28c-3.48,10.13 -2.27,20.97 -2.13,31.48 2.57,0.68 5.18,1.4 7.87,1.44 17.47,0.75 34.95,1.37 52.44,2.22 -9.94,-7.78 -21,-13.97 -31.73,-20.55 -8.74,-5.01 -17.09,-10.77 -26.45,-14.59zm-450.33 19.32c-6.48,3.22 -13.3,5.83 -19.3,9.94 20.96,0.55 41.98,-0.46 62.88,-2.36 -1.08,-8.52 -3.09,-16.89 -5.59,-25.08 -12.96,5.19 -25.41,11.5 -37.99,17.5zm538.87 -7.82c11.38,12.28 22.08,25.29 34.01,36.98 12.57,0.94 25.24,-0.03 37.84,-0.24 -23.52,-13.03 -47.85,-24.6 -71.85,-36.74zm-549.5 21.43c9.64,33.77 26.45,65.28 47.73,93.12 9.27,-13.08 18.39,-26.26 27.91,-39.19 -5.78,-16.37 -10.72,-33.07 -14.1,-50.11 -2.65,-1.13 -4.98,-2.82 -6.99,-4.88 -18.19,0.14 -36.36,1.2 -54.55,1.06zm618.89 44.59c8.23,0 16.48,-0.02 24.71,-0.03 -6.26,-2.8 -12.4,-6.07 -19.1,-7.63 -3.67,0.34 -4.13,5.02 -5.61,7.66zm-578.89 67.66c17.31,-10.06 34.8,-19.93 51.61,-30.77 -4.15,-7.88 -8.86,-15.49 -13.88,-22.85 -13.6,17.13 -26.37,34.92 -37.73,53.62zm397.83 -41.38c-4.49,6.34 -9.14,12.69 -12.48,19.75 15.96,8.38 31.68,17.21 47.88,25.11 -8.59,-12.84 -18.19,-24.96 -27.79,-37.02 -2.3,-2.83 -4.49,-5.87 -7.61,-7.84zm-378.96 35.37c22.17,25.18 48.93,46.3 78.53,62.12 2.08,-15.46 4.56,-30.84 6.81,-46.27 -18.07,-9.53 -34.7,-21.73 -48.89,-36.44 -12.24,6.7 -24.31,13.7 -36.45,20.59zm173.38 2.69c-15.53,4.04 -32.19,-1.13 -43.78,-11.93 -1.58,4.2 -3.89,8.35 -3.96,12.94 19.42,14.4 44.11,20.02 67.94,21.03 19.68,0.45 40.04,0.66 58.75,-6.44 15.54,-5.61 30.97,-11.78 45.54,-19.63 -2.07,-4.89 -3.66,-9.94 -5.12,-15.03 -11.19,11.98 -27.14,21.89 -44.16,19.26 -15.63,-1.61 -29.73,-10.32 -39.67,-22.25 -10.66,8.97 -21.36,19.22 -35.54,22.05zm160.22 7.7c-7.71,2.81 -16.3,0.3 -23.79,4.06 -0.02,2.88 -0.05,5.78 -0.09,8.67 -0.65,0.72 -1.95,2.2 -2.59,2.92 3.33,16.09 7.22,32.09 10.18,48.27 34.96,-14.49 66.95,-35.96 93.62,-62.81 -16.23,-7.56 -32.09,-15.91 -47.69,-24.7 -7.35,10.44 -17.47,19.33 -29.64,23.59zm-51.34 3.77c-32.69,14.71 -69.45,22.21 -105.17,16.73 -19.97,-3.02 -38.42,-11.76 -55.77,-21.7 -6.1,4.73 -13.1,8.19 -20.69,9.77 6.39,3.84 13.08,7.18 19.71,10.57 1.6,-1.92 3.19,-3.8 4.82,-5.67 14.8,8.93 31.58,13.23 48.02,17.98 0.34,1.99 0.7,3.98 1.06,5.99 12.82,0.9 25.65,1.76 38.45,2.82 0.67,-2.64 1.32,-5.28 2.04,-7.9 18.5,-1.28 36.45,-6.15 54.28,-11 1.13,1.78 2.22,3.61 3.37,5.43 10.99,-5.54 22.07,-10.92 32.99,-16.59 -0.52,-4.39 1.32,-8.34 2.84,-12.3 -1.99,-1.56 -4.11,-3.03 -6.56,-3.68 -6.69,2.71 -12.76,6.72 -19.39,9.55zm-192.41 5.41c-4.43,20.59 -7.07,41.51 -10.68,62.23 11.67,-12.67 20.93,-27.25 30.8,-41.31 2.04,-2.88 3.55,-6.09 4.96,-9.31 -8.23,-4.15 -16.15,-9.05 -25.08,-11.61zm189.41 19.27c11.5,15.35 23.16,30.67 35.93,44.98 -3.7,-19.18 -6.74,-38.53 -11.64,-57.46 -8.32,3.71 -16.7,7.41 -24.29,12.48zm-153.64 -9.67c-0.66,1.12 -2,3.35 -2.67,4.44 -1.01,0.16 -3.02,0.47 -4.03,0.6 -8.38,11.9 -17.21,23.47 -25.76,35.25 28.76,13.2 59.72,21.48 91.23,24.51 -3.17,-13.98 -6.5,-27.96 -9.57,-41.98 -1.73,-0.55 -3.46,-1.08 -5.19,-1.59 -0.22,-1.85 -0.46,-3.71 -0.7,-5.54 -14.59,-4.77 -28.96,-10.2 -43.31,-15.69zm92.39 17.27c-0.65,2.41 -1.29,4.85 -1.96,7.27 -1.44,1.25 -3.91,1.74 -4.42,3.78 -3.67,12.53 -6.94,25.17 -10.61,37.7 35.45,0.93 71.04,-4.52 104.48,-16.35 -8.94,-10.94 -17.94,-21.86 -26.52,-33.11 -3.08,-5.11 -9.44,-5.94 -13.81,-9.53 -15.05,6.02 -31.19,8.23 -47.16,10.24zm-38.69 5.55c2.1,13.29 5.14,26.4 7.66,39.6 1.63,7.39 2.42,15.02 5.12,22.13 5.68,-19.44 10.99,-39.01 16.15,-58.61 -9.58,-1.56 -19.23,-2.81 -28.93,-3.12z"/>
   <path class="fil2" d="M438.24 493.54c1.79,-5.81 4.5,-13.2 11.56,-13.96 8.78,-1.59 16.23,4.97 19.61,12.52 -5.21,-1.8 -10.52,-4.15 -16.17,-3.69 -5.38,0.33 -10.18,2.99 -15,5.13zm61.26 305.36c27.77,-14.35 45.89,-42.84 52.93,-72.7 2.4,0.22 4.82,0.48 7.22,0.75 -6.02,31.69 -25.41,61.02 -53.31,77.54 -17.39,10.49 -38.37,14.97 -58.48,11.78 -23,-3.52 -43.76,-16.23 -59.96,-32.59 -13.29,-13.54 -23.87,-29.73 -30.72,-47.42 1.47,-0.56 4.42,-1.68 5.89,-2.24 12.5,28.46 34.14,53.84 62.87,66.63 23.1,10.6 51,10.01 73.56,-1.75zm-23.82 -110.45c4.58,-2.26 9.64,-2.24 14.23,-0.05 8.9,-0.77 18.19,-0.07 26.46,3.48 8.82,-2.19 17.58,1.87 25.91,4.47 8.85,-0.78 17.3,2.71 26.1,3.14 0.25,5.88 -0.48,11.75 -1.97,17.44 -8.97,-0.5 -18.18,-1.24 -26.71,-4 -3.55,0.02 -7.08,-0.43 -10.24,-2.11 -8.6,-4.06 -18.39,-1.28 -27.43,-3.32 -4.09,0.05 -8.19,-0.35 -12.17,-1.42 -5.6,2.53 -11.78,1.45 -17.64,0.65 -5.52,2.81 -11.64,2.86 -17.45,0.97 -13.58,3.45 -27.89,2.97 -41.73,3.62 -7.25,5.09 -16.95,-0.07 -23.65,6 -8.26,1.06 -17.75,-0.02 -24.47,5.81 -3.68,2.81 -8.67,2.75 -13.08,2.47 -2.96,-5.47 -1.98,-11.86 -0.47,-17.61 8.52,-1.18 15.96,-6.25 24.56,-7.26 7.65,-0.29 13.89,-6.14 21.69,-5.3 5.16,-1.9 10.61,-1.89 15.94,-0.7 3.72,-1.72 7.52,-4.51 11.85,-3.24 4.92,1.44 9.58,-0.79 14.03,-2.66 1.22,0.36 3.64,1.08 4.86,1.42 3.39,-1.01 6.82,-2.45 10.45,-2.05 6.98,0.53 13.98,-0.5 20.93,0.25zm3.91 13.56l0 0c-0.41,-3.79 -1.01,-7.54 -1.71,-11.26 -0.93,3.58 -3.36,9.84 1.71,11.26zm-33.18 -0.87l0 0c0.73,0.46 2.17,1.39 2.91,1.87 -0.12,-3.78 -0.26,-7.53 -0.51,-11.28 -1.89,2.79 -2.15,6.12 -2.4,9.41zm18.78 1.42l0 0c-0.41,-1.3 -1.21,-3.91 -1.61,-5.21 0.36,-1.82 0.72,-3.63 1.06,-5.45 -4.43,1.75 -4.07,9.34 0.55,10.66zm28.5 0.5l0 0c0.17,-3.88 0.05,-7.75 -0.23,-11.61 -3,3.31 -2.52,8.3 0.23,11.61zm12.01 1.01l0 0c0.19,-4.03 0,-8.04 -0.32,-12.03 -2.68,3.7 -2.81,8.53 0.32,12.03zm-73.25 0.7l0 0c0.88,-0.08 2.62,-0.27 3.5,-0.36 -0.55,-1.47 -1.1,-2.95 -1.63,-4.42 0.31,-1.94 0.62,-3.89 0.92,-5.85 -3.47,2.47 -2.45,6.98 -2.79,10.63zm87.41 0.84l0 0c-0.31,-2.04 -0.63,-4.04 -0.94,-6.05 0.14,-1.88 0.27,-3.75 0.41,-5.62 -3.14,2.95 -3.99,9.6 0.53,11.67zm-120.65 2.4l0 0c0.87,-0.02 2.62,-0.03 3.48,-0.05 -0.68,-3.5 -1.3,-7.01 -2.09,-10.46 -0.76,3.45 -1.01,6.98 -1.39,10.51zm130.22 -1.8l0 0c0.99,0.11 2.95,0.33 3.94,0.43 -0.48,-0.91 -1.44,-2.71 -1.9,-3.62 0,-1.63 0.03,-4.88 0.05,-6.51 -1.94,2.88 -1.87,6.36 -2.09,9.7zm12.92 -5.19l0 0c-0.01,3.1 -0.03,6.22 -0.01,9.34 0.82,-0.14 2.47,-0.43 3.27,-0.56 -0.6,-1.63 -1.18,-3.26 -1.78,-4.87 0.43,-0.91 1.28,-2.69 1.71,-3.59 -0.79,-0.08 -2.4,-0.25 -3.19,-0.32zm-155.31 11.67l0 0c-0.33,-3.6 -0.77,-7.18 -1.27,-10.75 -1.8,3.11 -3.82,10.14 1.27,10.75zm169.03 0.62l0 0c0.79,-0.16 2.33,-0.46 3.12,-0.62 -0.55,-1.47 -1.08,-2.95 -1.61,-4.4 0.37,-1.79 0.73,-3.55 1.08,-5.32 -3.86,2.15 -2.73,6.71 -2.59,10.34zm-184.15 4.03l0 0c0.29,-4 0.29,-7.99 0.12,-11.97 -3.19,3.36 -2.38,8.33 -0.12,11.97zm-11.33 2.9l0 0c0.67,-1.75 0.27,-3.62 0.17,-5.4 -0.05,-1.51 -0.15,-4.51 -0.21,-6.02 -2.81,2.9 -3.7,8.98 0.04,11.42zm-8.92 -8.97l0 0c-0.01,3.51 0.07,7.03 0.24,10.56 3.12,-1.48 2.3,-4.24 1.51,-6.77 0.36,-0.77 1.08,-2.35 1.44,-3.12 -0.8,-0.17 -2.4,-0.5 -3.19,-0.67zm132.71 -43.83c2.93,-0.76 4.16,4.3 1.26,5.04 -2.84,0.58 -4.06,-4.26 -1.26,-5.04zm-46.67 -37.8c6.14,-2.42 13.99,-5.7 19.13,0.32 1.62,-1.68 3.19,-3.39 4.96,-4.92 6.57,0.24 13.32,1.17 19.35,3.84 3.52,7.03 11.75,12.33 10.46,21.05 0.12,4.53 -3.19,7.67 -6.22,10.49 0.49,1.5 0.96,3.02 1.39,4.55 -2.08,0.1 -3.88,-0.72 -5.35,-2.49 -0.45,2.37 -0.91,4.71 -1.39,7.08 -5.85,1.03 -11.74,-1.77 -17.52,0.16 -5.35,1.66 -10.85,-0.31 -16.17,-1.14 -1.64,0.93 -3.27,1.86 -4.9,2.8 -2.21,-2.42 -4.39,-4.9 -7.2,-6.65 0.1,1.37 0.33,4.11 0.45,5.46 2.48,1.12 1.73,6.86 -1.19,4.48 -0.84,-3.26 -1.11,-6.63 -1.76,-9.93 4.06,-1.62 8.42,-2.33 12.77,-1.59 7.15,-2.93 10.51,-10.2 14.66,-16.17 4.11,6.48 8.57,12.76 13.66,18.52 0.75,-1.42 1.49,-2.87 2.24,-4.29 -8.27,-4.83 -12.47,-13.63 -17.02,-21.62 -2.57,5.68 -4.71,11.8 -9.41,16.15 -3.89,4.75 -10.42,4.87 -16.01,5.92 -5.47,1.56 -8.3,-5.38 -8.26,-9.81 -1.17,-6.58 4.47,-11.06 7.97,-15.75 -2.76,0 -5.51,-0.05 -8.25,-0.12 0.12,-2.45 0.26,-4.92 0.6,-7.36 0.22,1.51 0.67,4.51 0.89,6 1.05,-0.6 3.14,-1.8 4.19,-2.4 0.89,1.1 1.8,2.21 2.72,3.31 -0.67,-3.7 2.81,-4.69 5.21,-5.89zm5.37 -88.67c4.92,-1.03 10.59,-3.96 15.34,-0.98 4.75,2.78 9.64,5.39 14.92,7.05 6.27,-2.85 12.67,0.34 18.39,2.98 0.91,4.46 1.6,8.97 2.06,13.51 0.41,0.64 1.23,1.9 1.64,2.54 -0.7,4.49 0.05,9 0.33,13.49 -0.94,4.48 -3.17,8.56 -4.85,12.79 -2.13,0.31 -4.24,0.62 -6.34,0.93 -4.75,-2.85 -10.03,-4.62 -15.45,-5.66 -1.99,3.92 -3.79,7.97 -5.11,12.19 6.84,4.25 15.6,9.03 23.43,4.35 4.58,9.09 3.5,19.39 3.54,29.21 -2.18,-0.91 -4.29,-1.92 -6.36,-3.02 1.45,0.21 4.4,0.64 5.86,0.86 -1.35,-1.93 -2.49,-4.3 -4.99,-4.88 -8.12,-3.89 -17.83,-3.48 -25.32,-8.69 -2.62,0.82 -5.28,1.54 -7.9,2.29 -3.02,1.73 -6.29,2.93 -9.59,4.03 -0.7,-0.56 -2.12,-1.7 -2.82,-2.24 -5.59,0.56 -10.39,3.82 -15.24,6.36 -0.62,-6.76 -1.31,-13.79 1.83,-20.06 3.43,0.34 6.88,0.58 10.34,0.77 2.71,-1.92 5.5,-3.7 8.36,-5.4 -1.78,-4.99 -1.62,-12.5 -6.82,-15.1 -3.69,3.3 -7.25,6.75 -11.3,9.63 -4.69,-2.49 -9.82,-5.26 -12.13,-10.32 -1.79,-4.85 -1.29,-10.23 0.61,-14.96 -0.41,-1.65 -0.63,-3.33 -0.63,-5.03 -0.34,-0.8 -1.01,-2.42 -1.34,-3.22 2.93,-5.62 6.31,-11.01 10.9,-15.43 2.32,-0.96 4.62,-1.94 6.95,-2.86 4.82,2.19 7.51,-3.93 11.69,-5.13zm5.55 -46.23c7.27,-2.13 14.66,0.41 21.07,3.85 -0.6,7.86 -0.39,16.21 -4.06,23.39 -5.54,4.99 -15.5,6.46 -21.62,1.76 -3.94,-5.64 -4.06,-12.99 -4.88,-19.59 -1.5,-5.78 5.17,-8.14 9.49,-9.41z"/>
   <path class="fil3" d="M565.94 723.46c8.5,-10.2 21.17,-17.54 34.56,-18.52 10.99,-0.61 21.21,4.99 29.09,12.19 13.55,12.11 22.68,28.99 38.82,38.11 10.28,6.31 22.86,12.33 26.79,24.7 5.19,17.95 -1.27,36.35 -7.77,53.03 -7.21,16.97 -4.97,35.82 -6.89,53.74 -0.1,6.51 -4.37,12.45 -9.92,15.55 -7.49,1.16 -14.73,-2.57 -20.18,-7.41 -11.49,-10.61 -22.15,-22.69 -27.72,-37.56 -12.65,-31.51 -9.14,-66.05 -10.82,-99.15 -1.92,-16.92 -25.01,-27.52 -37.82,-15.22 6.98,0.75 14.71,-0.9 20.85,3.48 12.09,7.14 13,23.1 12.51,35.65 -0.71,3.43 0.83,8.44 -2.6,10.65 -18.09,12.85 -41.73,15.82 -58.3,31.13 -13.56,12.89 -20.13,32.25 -36.36,42.51 -8.99,6.04 -21.17,5.66 -30.47,0.52 -5.04,-2.92 -8.67,-7.61 -13.23,-11.13 1.37,13.32 14.62,20.18 25.87,24.16 4.85,1.35 2.45,7.28 0.29,10.06 -1.11,2.07 -5.55,6.96 -0.62,6.87 10.19,-9.89 21.21,-19.59 34.91,-24.2 12.36,-3.94 25.28,-6.55 38.31,-6.24 -6.57,6.99 -15.65,10.34 -24.03,14.48 -0.6,0.91 -1.79,2.75 -2.39,3.66 13.36,-2.97 24.29,-12.19 37.55,-15.64 13.5,-4.8 30.56,-2.81 39.94,8.9 11.84,14.35 12.2,34.21 10.76,51.86 -2.52,23.26 -7.85,46.21 -14.94,68.5 -4.8,-1.87 -9.16,-4.61 -13.53,-7.29 7.92,-20.83 18.63,-41.77 17.48,-64.68 -0.65,-13.34 -6.78,-28.08 -19.66,-33.79 -16.95,-8.07 -36.92,-4.35 -53.14,3.72 -28.2,13.94 -45.12,41.9 -69.58,60.69 -8.21,6.62 -17.87,10.97 -27.07,16.01 -8.74,4.68 -17.9,8.79 -27.67,10.77 -28.41,6.73 -55.1,19.56 -79.13,36 -3.65,-10.29 -3.74,-21.28 -4.58,-32.03 -1.41,-17.4 0.36,-35.48 7.92,-51.41 6.65,-14.05 18.09,-26.48 33.02,-31.7 15.89,-6.1 33.67,-5.82 49.75,-0.53 -7.43,10.72 -6.77,24.62 -13.96,35.47 5.88,0.47 12.02,-0.12 17.39,-2.76 5.36,-3.89 8.65,-10.15 14.7,-13.23 0.79,3.75 -0.51,8.31 2.13,11.47 6.33,0.27 13.06,0.51 19.06,-1.8 5.95,-2.64 2.38,-9.4 2.87,-14.25 6.37,3.14 11.34,10.48 19.23,9.26 5.09,-0.65 10.23,-1.07 15.22,-2.35 0.91,-5.04 -5.52,-6.89 -7.32,-11.01 -3.65,-7.21 -7.04,-15.46 -14.76,-19.21 -15.53,-7.94 -33.99,-3.38 -48.58,4.47 -3.29,-0.82 -7.05,-0.86 -9.82,-2.98 -2.61,-4.05 -2.42,-9.24 -2.37,-13.87 8.81,-1.3 17.93,-4.12 24.12,-10.9 4.9,-5.28 9.52,-13 6.19,-20.28 -3.12,6.87 -6.07,14.64 -13.29,18.24 -11.43,7.25 -26.05,3.12 -36.1,-4.61 -15.99,-12.16 -23.61,-31.5 -35.43,-47.15 -9.16,-11.21 -25.94,-10.33 -35.8,-20.6 -4.22,-4.2 -7.97,-8.88 -12.7,-12.52 0.12,5.73 4.03,10.24 7.35,14.52 5.15,6.4 11.68,11.42 18.52,15.88 2.91,1.3 1.94,4.92 2.18,7.45 -1.55,30.35 0.3,60.95 6.54,90.72 -18.67,19.63 -24.07,47.66 -24.18,73.87 -0.19,13.63 1.11,27.23 2.02,40.82 -6.16,8.09 -12.26,17.14 -12.76,27.65 -0.75,9.26 2.81,19.34 10.6,24.81 9.25,5.41 22.18,4.95 30.48,-2.09 12,-9.91 24.05,-20.04 37.9,-27.28 3.94,-2.16 8.71,-3.46 11.01,-7.68 -6.64,-0.65 -12.48,2.8 -18.24,5.54 -13.13,6.34 -21.95,19.04 -35.42,24.82 -10.29,4.78 -24.41,-1.82 -26.78,-13.04 -2.28,-10.72 1.9,-22.53 9.28,-30.38 23.53,-21.12 53.14,-34.51 83.57,-42.31 40.1,-10.58 82.23,-17.07 123.6,-10.78 17.26,2.76 34.35,7.69 49.66,16.3 10.25,5.52 21.79,9.94 29.3,19.23 6.34,7.91 7.76,20.47 0.63,28.36 -7.18,9.91 -21.74,9.07 -31.81,4.56 -19.63,-10.68 -38.13,-26.74 -61.58,-27.28 -6.16,0.45 -13.41,-1.25 -18.62,2.81 2.09,3.74 6.77,1.39 10.1,1.67 16.46,-1.73 31.66,6.43 44.93,15.2 11.4,7.36 22.92,15.45 36.48,18.14 9.26,1.96 19.97,-0.12 26.47,-7.44 7.61,-7.95 8.31,-20.45 4.66,-30.39 -2.84,-7.65 -9.51,-12.76 -15.74,-17.56 3.54,-15.65 6.91,-31.37 11.68,-46.69 13.46,29.29 27.08,59.98 26.06,92.94 1.3,34.32 -11.04,67.82 -29.99,95.99 -6.67,9.25 -14.14,18.84 -25.08,23.16 -9.6,4.63 -22.16,3.32 -29.66,-4.58 -7.44,-7.34 -13.28,-19.32 -7.73,-29.38 7.53,-13.31 10.91,-28.36 14.01,-43.17 1.35,-7.32 2.64,-14.78 1.73,-22.23 -2.19,1.9 -2.95,4.68 -3.36,7.45 -3.12,17.4 -7.39,34.68 -13.95,51.12 -5.54,12.81 -14.97,24.3 -27.41,30.88 -19.22,10.52 -46.03,5.26 -58.87,-12.82 6.03,-4.03 13.01,-6.12 19.49,-9.19 0.43,-0.88 1.27,-2.61 1.69,-3.48 -8.58,0.78 -16.88,3.73 -24.06,8.47 -8.47,5.04 -14.9,12.95 -23.87,17.21 -11.72,6 -26.31,7.51 -38.34,1.52 -20.27,-9.85 -33.83,-29.79 -40.33,-50.88 -2.39,-6.92 -2.67,-14.43 -5.55,-21.19 -1.85,10.08 0.94,20.15 3.24,29.88 2.85,12.67 9.98,23.8 17.76,34 -1.92,9.01 -7.52,18.29 -16.97,20.74 -13.2,4.03 -26.79,-1.54 -38.23,-7.94 -21.8,-11.43 -37.54,-32.17 -46.46,-54.8 -8.47,-21.46 -11.89,-44.61 -12.92,-67.54 0.7,-32.85 14.45,-63.31 27.1,-93 7.9,-17.1 18,-33.23 24.21,-51.09 5.17,-14.71 7.37,-30.6 5.5,-46.11 0.07,-2.95 -2.11,-4.93 -3.91,-6.88 -0.15,5.71 0.69,11.4 0.94,17.11 0.28,16.01 -3.92,31.8 -10.32,46.37 -11.55,26.06 -28.33,49.77 -36.37,77.37 -4.39,-21.71 1.52,-43.7 7.13,-64.6 0.96,-4.82 5.24,-7.63 8.24,-11.12 14.83,-15.64 25.46,-36.48 24.67,-58.44 0.4,-12.38 -4.7,-23.9 -7.03,-35.83 -2.52,-12.19 -3.97,-25.17 0.06,-37.18 1.74,-5.78 5.74,-10.44 8.53,-15.71 -9.87,2.32 -13.32,13.42 -16.16,21.93 -6.17,23 4.9,45.62 5.95,68.5 1.16,21.09 -9.55,41.04 -24.07,55.66 -9.91,9.76 -22.24,19.02 -36.86,18.59 -7.22,-0.35 -16.56,-2.81 -18.64,-10.79 -4.42,-14.45 0.36,-29.64 -1.11,-44.41 0.45,-17.97 -11.4,-35.32 -5.14,-53.18 5.93,-17.5 22.87,-27.02 34.76,-39.98 7.27,-7.37 10.55,-17.62 17.73,-25.08 7.88,-8.91 18.62,-16.15 30.84,-16.63 18.34,-1.01 34.06,10.34 51.79,12.9 11.95,24.65 30.79,46.37 55.01,59.55 18.82,10.35 41.01,15.5 62.4,12.07 32.18,-6.58 60.89,-27.89 77.18,-56.33 7.28,-12.65 9.97,-27.23 13.76,-41.11zm-131.35 446.04c14.18,-2.83 24.88,-13.08 35.54,-22.05 9.94,11.93 24.04,20.64 39.67,22.25 17.02,2.63 32.97,-7.28 44.16,-19.26 1.46,5.09 3.05,10.14 5.12,15.03 -14.57,7.85 -30,14.02 -45.54,19.63 -18.71,7.1 -39.07,6.89 -58.75,6.44 -23.83,-1.01 -48.52,-6.63 -67.94,-21.03 0.07,-4.59 2.38,-8.74 3.96,-12.94 11.59,10.8 28.25,15.97 43.78,11.93zm122.76 -339.45c-0.43,-3.55 3.28,-4.95 5.46,-6.82 1.04,12.69 1.2,25.44 0.61,38.16 -1.39,0.07 -4.13,0.17 -5.52,0.24 -0.26,-10.53 -0.99,-21.05 -0.55,-31.58zm-207.29 -10.35c2.68,1.59 6.96,2.65 6.19,6.7 -0.29,8.04 -1.06,16.06 -0.24,24.1 -1.17,18.98 2.93,37.65 5.14,56.4 -1.69,0.72 -3.39,1.46 -5.09,2.2 -7.83,-29.06 -8.72,-59.54 -6,-89.4zm217.65 -0.24c10.99,-10.72 26.53,-13.91 39.15,-22.07 0.22,31.07 6.41,63.38 24.93,88.99 3.17,4.94 8.76,8.85 8.78,15.28 2.21,20.59 3.65,41.67 0.3,62.19 -0.77,3.21 -3.25,-0.99 -3.66,-2.38 -3.07,-8.02 -8.66,-16.11 -6.88,-25.06 2.23,-19.13 2.19,-39.71 -7.01,-57.17 -4.49,-8.95 -12.04,-15.98 -20.59,-21.02 -2.59,-8.4 -3.05,-17.28 -5.86,-25.61 -3.76,7.85 0.12,16.64 0.85,24.77 -9.48,-1.63 -18.42,1.83 -27.27,4.63 -0.62,-14.21 -1.61,-28.39 -2.74,-42.55zm-66.26 -90.26c4.06,-5.81 11.69,-2.62 17.23,-1.35 -16.68,14.09 -31.22,30.41 -44.66,47.57 5.92,-17.09 16.27,-32.16 27.43,-46.22zm-56.4 -1.51c2.74,-3.7 7.8,-2.64 11.76,-3.15 -4.54,6.07 -10.44,10.9 -15.38,16.63 -6.92,7.76 -13.13,16.13 -18.6,24.97 3.05,-14.84 12.45,-27.3 22.22,-38.45z"/>
   <path class="fil4" d="M572.2 634.28c47.18,12.82 91.11,36.77 128.9,67.66 6.41,4.91 11.72,11.68 19.51,14.52 4.45,1.84 9.05,-0.39 13.37,-1.54 -7.01,13.12 -14.03,26.23 -21.43,39.14 -39.64,-42.31 -90.64,-73.53 -146.06,-90.34 1.61,-9.86 3.53,-19.68 5.71,-29.44zm-28.73 546.69c6.63,-2.83 12.7,-6.84 19.39,-9.55 2.45,0.65 4.57,2.12 6.56,3.68 -1.52,3.96 -3.36,7.91 -2.84,12.3 -10.92,5.67 -22,11.05 -32.99,16.59 -1.15,-1.82 -2.24,-3.65 -3.37,-5.43 -17.83,4.85 -35.78,9.72 -54.28,11 -0.72,2.62 -1.37,5.26 -2.04,7.9 -12.8,-1.06 -25.63,-1.92 -38.45,-2.82 -0.36,-2.01 -0.72,-4 -1.06,-5.99 -16.44,-4.75 -33.22,-9.05 -48.02,-17.98 -1.63,1.87 -3.22,3.75 -4.82,5.67 -6.63,-3.39 -13.32,-6.73 -19.71,-10.57 7.59,-1.58 14.59,-5.04 20.69,-9.77 17.35,9.94 35.8,18.68 55.77,21.7 35.72,5.48 72.48,-2.02 105.17,-16.73zm1028.07 -82.73c6.93,-2.54 14.4,-1.56 21.64,-1.67 31.47,-0.05 62.96,0.16 94.45,-0.12 2.56,3.33 4.99,6.76 7.12,10.39 -48.82,0.02 -97.65,0.04 -146.47,0 7.59,-3.29 15.45,-5.91 23.26,-8.6zm-357.19 8.29c7.87,-3.63 15.98,-6.74 23.97,-10.1 9.86,3.28 19.87,6.23 29.43,10.39 -17.81,0.06 -35.6,0.17 -53.4,-0.29zm-151.35 0.31c6.75,-3.29 13.54,-6.86 20.9,-8.57 5.93,1.46 11.21,4.76 16.44,7.83 -12.4,1.43 -24.89,0.54 -37.34,0.74zm-241.77 -1.68c1.48,-2.64 1.94,-7.32 5.61,-7.66 6.7,1.56 12.84,4.83 19.1,7.63 -8.23,0.01 -16.48,0.03 -24.71,0.03zm923.23 2.38c11.87,-5.28 24,-11.52 37.32,-11.38 31.2,0 62.39,-0.08 93.59,0.07 3.56,3.89 7.28,7.66 11.05,11.38 -47.31,0.12 -94.64,0.26 -141.96,-0.07zm-769.3 -10.9c1.97,-0.8 3.91,0.36 5.76,0.98 6.15,2.52 12.22,5.24 18.22,8.12 -15.91,0.28 -31.87,0.74 -47.76,-0.27 7.96,-2.88 15.74,-6.22 23.78,-8.83zm717.36 -2.79c2.98,-5.27 6.12,-10.43 9.53,-15.41 -0.05,8.14 -0.05,16.28 -0.07,24.42 -3.2,-2.98 -6.34,-5.98 -9.46,-9.01zm186.58 -0.36c4,-7.63 7.86,-15.33 12.43,-22.63 0.57,10.95 0.33,21.92 0.19,32.9 -4.27,-3.35 -8.47,-6.81 -12.62,-10.27zm-198.39 -15.43c6.72,-0.98 12.77,-4.3 19.03,-6.74 -3.88,6.7 -8.16,13.15 -12.36,19.63 -33.84,-0.24 -67.73,0.72 -101.54,-0.5 14.43,-10.3 32.92,-11.66 50.09,-11.48 14.93,-0.12 29.93,1.11 44.78,-0.91zm138.75 -1.68c22.39,-0.07 46.6,5.04 67.17,-6.55 -4,7.06 -8.16,14.04 -12.17,21.1 -31.46,0.02 -62.92,0.26 -94.36,-0.12 9.47,-11.55 25.15,-14.67 39.36,-14.43zm-1067.62 -37.24c24,12.14 48.33,23.71 71.85,36.74 -12.6,0.21 -25.27,1.18 -37.84,0.24 -11.93,-11.69 -22.63,-24.7 -34.01,-36.98zm443.31 3.55c6.31,-4.49 12.72,-8.79 19.17,-13.06 7.68,20.23 15.14,40.54 22.56,60.87 -9.07,5.01 -18.84,8.4 -28.35,12.38 2.28,-21.12 -7.34,-40.58 -13.38,-60.19zm-106.88 51.19c7.3,-21.72 13.71,-43.8 21.89,-65.21 3.15,3.89 6.67,7.59 9.15,11.98 -2.55,14.73 -10.56,28 -12.56,42.88 -1.06,6.41 -0.28,12.9 0.75,19.25 -6.44,-2.92 -12.84,-5.92 -19.23,-8.9zm28.3 -68.02c30.45,0.02 60.91,0 91.37,0 -7.09,4.66 -13.45,12.73 -22.83,11.64 -19.89,-0.19 -39.77,0.07 -59.64,-0.16 -2.98,-3.84 -5.97,-7.64 -8.9,-11.48zm1.1 -5.4c6.48,-4.68 12.58,-10 19.64,-13.78 7.29,-1.24 14.75,-0.26 22.1,-0.54 6.71,0.19 13.94,-1.15 20.09,2.27 7.61,3.89 15.41,7.45 22.72,11.93 -28.17,0.68 -56.39,0.46 -84.55,0.12zm462.75 -31.65c7.34,3.26 14.59,6.76 21.79,10.39 -0.46,25.29 0.53,50.64 -0.48,75.89 -6.36,5.56 -14.21,9.07 -21.87,12.47 0.08,-32.92 0.55,-65.83 0.56,-98.75zm3.88 -3.65c30.41,-0.02 60.8,-0.03 91.22,-0.02 6.13,-0.25 7.59,7.43 10.83,11.32 -26.42,-2.14 -52.96,-1.89 -79.42,-1.17 -8.23,-1.39 -15.38,-6.26 -22.63,-10.13zm100.06 -2.47c2.37,-4.92 4.85,-9.79 7.68,-14.45 0.17,8.49 0.16,16.97 0,25.46 -2.66,-3.62 -5.19,-7.31 -7.68,-11.01zm-72.53 -15.5c25.53,-0.82 51.55,2.82 76.63,-3.85 -2.78,5.64 -5.69,11.21 -8.71,16.71 -31.27,-0.13 -62.52,0 -93.79,-0.05 8.49,-4.44 16.58,-10.27 25.87,-12.81zm-1347.02 -35.6c3.26,-3.72 7.89,-5.79 12.1,-8.19 -3.49,18.48 -8.29,36.82 -8.83,55.73 -1.13,12.61 1.96,25.54 -1.81,37.88 -3.6,13.67 -2.54,27.88 -3.47,41.83 -4.59,-10.97 -5.98,-22.92 -8.43,-34.47 2.21,-2.03 6.57,-3.6 5.13,-7.43 -2.64,-12.18 -1.68,-24.7 -2.66,-37.04 -1.92,-0.94 -3.84,-1.89 -5.76,-2.81 1.42,-11.71 3.17,-23.39 4.95,-35.04 1.97,-0.45 3.96,-0.88 5.94,-1.31 0.87,-3.06 0.97,-6.49 2.84,-9.15zm380.45 -29.97c3.76,2.66 7.42,5.47 11.02,8.34 0.69,6 0.79,12.1 2.27,17.98 2.12,1.03 4.4,1.73 6.63,2.57 -0.32,12.75 -0.1,25.52 -0.91,38.26 -2.57,1.29 -7.44,0.48 -7.85,4.24 -1.35,9.61 0.26,19.47 -1.85,29.04 -3.72,-6.66 -7.1,-13.7 -8.18,-21.31 -0.15,-5.09 0.79,-10.12 1.08,-15.17 1.68,-21.35 -0.56,-42.69 -2.21,-63.95zm934.97 -11.81c7.51,2.69 14.78,6 22.14,9.09 0.42,21.56 0.13,43.13 0.15,64.69 -7.53,4.26 -14.9,8.8 -22.63,12.67 -0.08,-28.81 0.77,-57.63 0.34,-86.45zm-221.05 -1.3c7.47,4.41 14.64,9.32 22.09,13.8 0.4,58.28 -0.01,116.57 0.21,174.86 -7.32,3.8 -14.79,7.3 -22.23,10.81 -0.21,-66.48 -0.07,-132.97 -0.07,-199.47zm-380.56 -0.24c21.81,0.05 43.61,-0.05 65.44,0.07 2.76,3.63 5.53,7.28 8.26,10.99 -16.82,0.17 -33.62,0.17 -50.43,-0.02 -0.45,59.74 0.01,119.48 -0.23,179.23 -0.32,8.62 1.97,17 4.56,25.15 -9.27,-4.17 -18.7,-7.97 -27.82,-12.48 0.45,-67.65 -0.02,-135.29 0.22,-202.94zm-81.94 11.85c4.01,-4.03 8.14,-7.96 12.33,-11.83 21.32,0 42.65,-0.02 63.97,0 -0.15,67.44 0.38,134.91 -0.25,202.33 -8.1,5.85 -18.54,7.19 -27.72,10.79 1.66,-6.38 4.2,-12.64 4.4,-19.31 0.12,-61.09 -0.14,-122.19 0.14,-183.29 -17.59,-0.29 -35.56,-2.52 -52.87,1.31zm692.76 -12.95c31.46,-0.12 62.93,-0.41 94.39,-0.6 4.03,5.8 8.09,11.57 12.02,17.44 -7.34,-2.47 -14.2,-6.98 -22.15,-7.1 -20.45,-0.81 -41.06,2.83 -61.37,-0.63 -8.2,-1.38 -15.95,-4.62 -22.89,-9.11zm-434.31 0.31c3.1,-0.46 6.2,-0.86 9.34,-1.15 15.24,43.96 31.44,87.6 46.16,131.73 -9.17,-4.27 -18.15,-8.9 -27.17,-13.48 -9.94,-23.04 -16.71,-47.29 -26.62,-70.33 -2.33,1.73 -3.24,4.59 -4.35,7.14 -7.14,17.97 -13.12,36.35 -19.14,54.71 -2.64,10.09 -13.21,14.52 -20.4,21 11.9,-35.86 24.81,-71.38 37.05,-107.14 2.26,-7.34 6.65,-14.51 5.13,-22.48zm208.59 -3.5c24.58,-0.9 49.8,-1.2 73.56,6.07 18.36,5.37 35.11,17.45 43.97,34.65 15.17,28.13 14.88,61.82 8.68,92.4 -3.17,13.8 -6.19,28.13 -14.35,39.99 -8.4,12.84 -19.27,25.3 -33.96,30.86 -24.4,6.7 -49.85,2.57 -74.73,3.12 7.3,-3.46 14.27,-8.16 22.22,-9.91 15.94,0.22 33.43,1.2 47.24,-8.23 16.77,-12.41 25.72,-32.81 28.84,-52.97 3.19,-20.33 2.09,-41.06 0.86,-61.51 -0.96,-18.03 -7.53,-36.49 -21.33,-48.67 -12.79,-12.24 -31.66,-14.93 -48.63,-13.66 -4.58,0 -9.6,1.89 -13.77,-0.67 -6.36,-3.58 -12.39,-7.66 -18.6,-11.47zm408.57 0.52c9.82,-3.29 19.68,-6.43 29.55,-9.58 -1.87,9.03 -5.42,17.72 -6.29,26.96 -0.62,32.04 0.51,64.08 0.31,96.12 -0.07,25 0.12,49.99 -0.1,74.98 -7.62,5.47 -15.07,11.2 -23.39,15.57 -0.19,-68.02 -0.01,-136.05 -0.08,-204.05zm-635.27 -8.59c5.99,4.13 15.98,9.29 12.91,18.12 -22.25,65.18 -44.66,130.32 -66.84,195.51 -0.87,1.8 -1.22,4.36 -3.41,5.06 -7.05,2.97 -14.43,5.06 -21.58,7.78 14.74,-23.59 23.69,-50.12 33.32,-76.04 5.68,-15.77 11.08,-31.63 16.36,-47.54 7.75,-22.82 16.83,-45.19 23.65,-68.31 3.16,-11.27 6.38,-22.77 5.59,-34.58zm604.31 -2.04c8.5,3.46 16.98,6.98 25.42,10.63 -0.28,69.27 0.32,138.56 -0.29,207.8 -8.35,4.68 -17.83,6.96 -26.68,10.58 2.9,-7.2 4.75,-14.85 4.29,-22.64 -0.94,-63.96 -0.27,-127.94 -0.53,-191.9 -0.12,-4.9 -1.25,-9.69 -2.21,-14.47zm-196.15 0.48c9.68,3.57 19.16,7.68 28.9,11.11 0.51,68.48 -0.02,136.97 0.28,205.44 -10.14,3.92 -20.42,7.37 -30.59,11.12 7.08,-16.59 6.59,-34.86 6.94,-52.54 0.07,-37.76 -0.13,-75.51 0.11,-113.26 0.12,-20.68 2.76,-42.33 -5.64,-61.87zm-221.57 -0.55c9.92,2.81 19.71,6.09 29.53,9.28 -0.1,69.53 0.21,139.08 -0.15,208.61 -10.13,3.07 -20.11,6.56 -30.24,9.54 2.04,-8.09 6.14,-15.84 6.02,-24.35 -0.09,-61.14 -0.04,-122.27 -0.02,-183.4 0.05,-6.92 -3.1,-13.23 -5.14,-19.68zm-152.64 12.84c8.48,-4.63 17.16,-8.9 25.86,-13.08 1.14,9 1.05,18.24 3.52,27.02 21.65,61.16 43.47,122.26 65.57,183.25 2.52,6.85 6.17,13.19 9.29,19.77 -10.47,-3.81 -20.62,-8.43 -31.03,-12.39 -24.48,-68.16 -49.69,-136.07 -73.21,-204.57zm518.4 -3.94c2.95,-4.24 6.13,-8.3 9.6,-12.12 0.05,9.03 0.05,18.05 -0.02,27.08 -3.38,-4.87 -6.48,-9.92 -9.58,-14.96zm-640.55 2.71c4,-4.91 8.06,-9.74 12.41,-14.32 0.09,9.76 0.02,19.53 0.09,29.3 -4.3,-4.89 -8.49,-9.87 -12.5,-14.98zm-224.55 -2.59c8.84,-4.25 17.71,-8.49 26.64,-12.6 -1.18,7.08 -2.66,14.17 -2.66,21.41 0.07,64.05 0.02,128.09 0.02,192.14 0,5.84 1.18,11.6 2.64,17.26 -6.26,-2.78 -12.77,-4.94 -18.91,-7.95 1.95,-3.98 7.29,-4.56 10.46,-7.41 2.98,-2.31 2.52,-7.9 -1.05,-9.46 -5.54,-3.45 -11.38,-6.38 -17.04,-9.62 -0.22,-61.25 0.02,-122.52 -0.1,-183.77zm-29.95 -12.24c8.54,3.75 16.9,7.87 25.46,11.59 0.49,60.49 0.12,121.01 0.19,181.52 -8.54,-3.75 -16.92,-7.85 -25.5,-11.53 -0.41,-60.52 -0.1,-121.05 -0.15,-181.58zm951.24 -0.6c17.28,-0.12 34.58,-0.33 51.86,0.12 -9.82,2.96 -19.32,7.18 -29.35,9.34 -7.84,-2.26 -15.02,-6.34 -22.51,-9.46zm-605.52 -0.12c16.41,0.07 32.81,-0.16 49.22,0.12 -11.04,6.02 -22.79,14.02 -36.02,10.59 -5.02,-2.69 -8.97,-6.96 -13.2,-10.71zm-249.31 -1.07c4.49,4.67 8.73,9.59 12.86,14.58 -3.91,5.21 -8.21,10.13 -13.08,14.46 0.26,-9.68 0.2,-19.35 0.22,-29.04zm657.16 -0.56c48.75,-0.21 97.49,0.03 146.24,-0.14 -3.36,4.2 -6.75,8.37 -10.2,12.48 -33.08,0.04 -66.19,-0.1 -99.27,0.07 -13.44,1.06 -24.98,-7.25 -36.77,-12.41zm-219.16 0.41c41.8,-0.58 84.77,-4.92 125.4,7.39 24.53,7.23 46.61,24.17 57.17,47.81 10.44,23.42 14.08,49.68 12.14,75.15 -2.69,32.89 -16.61,66.06 -42.62,87.19 -23.23,18.57 -54.25,22 -82.99,21.96 -22.67,-0.66 -45.34,-1.62 -68.02,-2.17 13.61,-4.67 27.46,-10.24 42.1,-9.81 22.89,-0.14 46.31,2.69 68.75,-3.14 9.12,-2.52 17.93,-6.87 24.68,-13.63 24.09,-25.25 34.85,-60.71 34.41,-95.14 -0.5,-26.14 -6.1,-53.47 -22.06,-74.74 -14.1,-18.41 -37.41,-26.43 -59.68,-28.92 -20.47,-2.64 -41.14,-1.66 -61.66,-2.88 -9.52,-1.9 -18.58,-5.62 -27.62,-9.07zm-432.27 -2.95c53.62,-0.17 107.24,-0.2 160.87,0.02 -4.34,5.21 -8.92,10.22 -13.46,15.26 -45.21,-0.04 -90.41,0.2 -135.6,-0.12 -3.98,-5.04 -7.97,-10.03 -11.81,-15.16zm-102.31 -0.46c18.94,-0.15 37.88,-0.14 56.84,0 -9.2,3.75 -18.27,7.95 -27.7,11.07 -10.13,-2.21 -19.46,-7.38 -29.14,-11.07zm427.94 -54.17c6.63,2.19 16.13,4.15 17.43,12.36 -1.44,13.9 -12.79,25.37 -25.85,29.43 5.33,-13.28 9.02,-27.36 8.42,-41.79zm-105.47 -54.69c22.79,-12.15 44.03,-29.33 70.36,-32.93 18.15,-1.82 38.86,-0.89 52.99,12.21 -9.12,23.77 -9.71,50.24 -3.16,74.74 -7.15,-3.19 -14.43,-6.36 -22.25,-7.29 -16.77,-2.24 -33.5,2.54 -48.72,9.24 -12.45,5.18 -23.79,12.74 -36.6,17.1 -27.41,9.89 -57.34,15.61 -86.3,10.02 -22.88,-4.3 -42.94,-18.53 -56.98,-36.78 24.14,9.82 53.62,14.81 77.16,0.89 -0.05,-0.5 -0.17,-1.49 -0.22,-2.01 -5.33,-2.52 -11.3,-3.22 -16.7,-5.5 -23.02,-9.96 -40.73,-31.17 -46.3,-55.65 14.57,13.12 31.8,24.07 51.39,27.48 22.27,4.49 45.65,-0.61 65.33,-11.52zm59.92 -19.82l0 0c1.56,1.6 3.13,3.19 4.75,4.79 0.15,15.84 -0.36,31.69 -0.69,47.54 -1.17,2.48 -2.18,5.04 -3.12,7.61 13.37,-2.83 27.34,-6.38 40.82,-1.79 0.2,-5.64 1.95,-12.77 -2.47,-17.16 -2.56,2.61 -2.95,6.54 -5.23,9.33 -5.37,1.58 -10.99,0.62 -16.42,0.08 -0.04,-8.58 -0.07,-17.19 0.01,-25.78 5.15,-0.85 8.44,4.31 13.15,4.46 0.59,-4.8 -0.05,-9.62 -0.91,-14.33 -3.51,3.34 -7.57,6.24 -12.66,5.9 0.29,-6.71 0.44,-13.43 0.39,-20.13 4.77,-0.17 10.03,-1.46 14.47,0.92 3.32,2.63 6,5.97 9.1,8.83 0.72,-3.73 1.34,-7.49 1.97,-11.22 -14.09,-3.19 -29.69,-5.82 -43.16,0.95zm-23.61 9.83l0 0c-1.54,2.69 0.89,4.28 2.8,5.74 0.75,6.09 0.78,12.24 0.82,18.38 -4.1,1.82 -8.25,3.46 -12.45,4.94 0.21,-5.16 -0.15,-10.38 0.79,-15.47 1.58,-3.53 3.6,-6.87 4.22,-10.75 -7.46,2.68 -15.09,6.21 -20.2,12.43 -2.62,2.33 1.7,4.48 2.92,6.02 0.31,14.26 0.26,28.56 0.02,42.84 -2.3,2.28 -4.39,4.82 -4.29,8.28 7.39,-1.97 14.52,-4.75 21.53,-7.73 -1.04,-2.98 -2.36,-5.85 -4.08,-8.49 -0.32,-7.45 -0.15,-14.93 -0.03,-22.37 3.61,-1.35 7.25,-2.69 10.9,-4.01 0.14,7.4 0.53,14.79 0.36,22.2 -2.01,1.97 -5.76,7.35 -0.81,7.97 5.92,-2.37 12.24,-4.54 17.18,-8.69 -0.12,-2.85 -2.21,-4.77 -4.06,-6.62 -0.19,-15.29 -0.22,-30.58 0.03,-45.87 2.37,-2.42 4.68,-5.08 3.79,-8.73 -6.96,2.18 -14.19,4.67 -19.44,9.93zm-56.76 28.16l0 0c-7.18,1.99 -14.84,2.35 -21.68,5.35 0.12,4.01 0.7,8.01 1.21,11.99 4.84,-0.14 6.16,-4.26 7.31,-8.22 2.86,-0.75 5.72,-1.44 8.6,-2.12 0.12,14.33 0.22,28.68 -0.03,43.01 -1.96,2.09 -3.84,4.25 -5.66,6.44 9.21,-0.65 18.75,-2.5 26.61,-7.62 -1.91,-1.08 -3.79,-2.16 -5.66,-3.24 -0.81,-14.13 -0.76,-28.27 0.34,-42.36 3.04,-1.17 6.09,-2.3 9.16,-3.42 0.66,1.14 2.02,3.42 2.69,4.55 6.87,-0.6 3.34,-9.58 3.99,-14.23 -8.67,4.05 -17.48,7.94 -26.88,9.87zm-357.26 -56.4c1.17,28.7 0.17,57.45 0.5,86.18 -0.31,23.38 0.76,46.82 -0.79,70.18 -2.38,-38.5 -11.07,-76.42 -22.27,-113.26 7.51,-14.36 15.11,-28.7 22.56,-43.1zm-546.39 99.78c35.96,-61.94 93.1,-111.35 159.74,-137.71 1.13,6.97 2,13.99 2.5,21.03 -2.35,1.42 -5.16,2.31 -7.05,4.39 -1.51,4.29 -1.51,8.91 -1.95,13.39 -8.56,3.72 -16.2,9.26 -24.79,12.82 -8.38,-1.94 -16.99,-4.65 -25.66,-2.59 -9.48,1.72 -18.86,6.62 -23.93,15.09 -7.75,12.63 -15.11,25.64 -24.83,36.91 -8.95,10.83 -24.82,13.38 -32.11,25.97 -7.64,10.54 -2.09,23.64 1.43,34.63 -4.12,0.51 -8.25,1.06 -12.36,1.63 2.53,3.05 5.12,6.06 7.71,9.08 -14.48,29.93 -24.13,62.21 -27.75,95.3 -2.95,0.75 -5.88,1.61 -8.81,2.42 2.69,1.09 5.38,2.24 8.09,3.34 -2.62,33.72 -0.36,67.87 8.23,100.64 -4.01,2.03 -8.01,4.08 -11.99,6.21 4.58,0.09 9.16,0.14 13.74,0.19 10.14,35.07 26.77,68.33 49.25,97.15 1.01,1.69 3.49,3.67 1.54,5.72 -3.6,6.12 -7.92,11.8 -10.99,18.23 7.01,-3 13.7,-6.67 20.35,-10.38 24.09,27.3 53.01,50.42 85.42,67.05 -0.84,7.4 -1.82,14.78 -2.4,22.2 4.65,-5.28 8.74,-11.01 12.72,-16.78 31.3,14.11 64.84,23.45 99.14,26.14 1.73,7.63 3.43,15.26 5.25,22.87 2.45,-7.34 4.52,-14.78 6.75,-22.18 38.47,1.83 77.19,-4.51 113.37,-17.68 2.65,2.45 5.31,4.87 8,7.3 -0.24,-3.41 -0.56,-6.8 -0.87,-10.2 38.02,-15.17 72.49,-38.74 100.99,-68.07 1.16,0.22 3.49,0.67 4.66,0.89 -0.58,-0.82 -1.77,-2.48 -2.35,-3.32 28.15,-30.11 50.13,-66.09 63.32,-105.18 2.85,-9.25 2.49,-19.04 2.68,-28.61 10.47,11.32 20.01,23.47 30.39,34.87 -20.19,62.8 -60.8,118.65 -113.5,158.18 -42.96,32.5 -94.17,54 -147.48,61.76 -66.31,9.84 -135.69,-1.49 -195.14,-32.55 -57.41,-29.43 -105.43,-76.65 -136.16,-133.32 -24.26,-44.47 -37.65,-94.75 -38.99,-145.36 -1.69,-59.74 13.58,-119.91 43.84,-171.47zm373.01 -146.89c53.61,16.02 102.65,46.56 141.14,87.11 4.44,4.61 5.33,11.21 7.15,17.07 7.56,26.47 13.8,53.37 17.4,80.68 1.25,10.33 3.03,20.69 2.45,31.14 -5.86,-27.94 -16.05,-54.94 -30.52,-79.54 1.68,-10.54 5.27,-21.77 0.53,-32.12 -5.7,-13.34 -20.67,-17.9 -32.24,-24.65 -16.89,-9.06 -26.88,-25.98 -38.81,-40.22 -5.61,-6.53 -12.6,-13.53 -21.86,-13.42 -13.06,-0.4 -24.33,6.84 -35.91,11.7 -4.2,0.23 -2.03,-4.92 -2.92,-7.44 0.34,-4.86 -4.81,-6.6 -8.12,-8.77 0.34,-7.2 0.92,-14.37 1.71,-21.54zm-412.78 141.5c40.39,-77.02 109.56,-138.38 190.88,-169.21 3.14,9.66 5.37,19.59 7.5,29.52 -55.75,22.18 -105.38,59.45 -141.76,107.19 -34.73,45.22 -57.36,99.63 -64.83,156.17 -7.8,57.79 -0.21,117.65 22.32,171.48 22.92,55.25 61.32,103.9 109.52,139.29 55.66,41.14 124.63,64.06 193.89,63.92 61.32,0.71 122.66,-16.52 174.82,-48.73 66.19,-40.6 117.43,-105.19 141.12,-179.2 12.46,-0.08 24.93,0.55 37.39,0.4 -6.67,7.16 -11.38,15.87 -14.71,25.02 -9.1,27.04 -23.11,52.2 -39.02,75.79 -37.69,55.08 -90.85,99.59 -151.99,126.5 -61.95,27.67 -131.82,36.77 -198.9,26.91 -62.66,-9.15 -122.68,-35.38 -172.05,-75.01 -46.34,-37.05 -83.49,-85.55 -106.73,-140.15 -17.86,-41.45 -27.55,-86.33 -28.92,-131.41 -1.77,-61.73 12.5,-123.91 41.47,-178.48z"/>
  </g>
 </g>
</svg>
