<?xml version="1.0" encoding="UTF-8"?>
<!DOCTYPE svg PUBLIC "-//W3C//DTD SVG 1.1//EN" "http://www.w3.org/Graphics/SVG/1.1/DTD/svg11.dtd">
<!-- Creator: CorelDRAW -->
<svg xmlns="http://www.w3.org/2000/svg" xml:space="preserve" width="2000px" height="1600px" version="1.1" style="shape-rendering:geometricPrecision; text-rendering:geometricPrecision; image-rendering:optimizeQuality; fill-rule:evenodd; clip-rule:evenodd"
viewBox="0 0 2000 1600"
 xmlns:xlink="http://www.w3.org/1999/xlink">
 <defs>
  <style type="text/css">
   <![CDATA[
    .fil0 {fill:#0B2476;fill-rule:nonzero}
    .fil2 {fill:#FEFEFE;fill-rule:nonzero}
    .fil1 {fill:#FFD41F;fill-rule:nonzero}
   ]]>
  </style>
 </defs>
 <g id="Capa_x0020_1">
  <metadata id="CorelCorpID_0Corel-Layer"/>
  <g id="Toledo_x0020_Rockets.cdr">
   <path class="fil0" d="M1282.73 297.58c63.32,-11.61 127.4,-21.36 191.95,-20.48 48.87,-0.12 97.57,5.7 145.78,13.23 -41.26,48.61 -85.56,95.03 -135.84,134.44 -27.47,21.74 -56.42,41.54 -85.84,60.53 -54.75,35.22 -111.12,68.49 -171.38,93.46 -54.41,22.83 -111.53,38.5 -169.04,51.35 -3.62,0.93 -7.68,1.1 -10.69,3.57 -46.73,36.09 -93.81,71.94 -144.23,102.79 -1.62,1.14 -4.18,2.18 -3.77,4.64 -5.55,108.27 -11.68,216.53 -17.19,324.79 -0.71,0.7 -2.12,2.08 -2.84,2.76 29.32,-3.79 58.75,-6.99 88.09,-10.69 17.06,-128.77 34.61,-257.48 51.6,-386.26 78.98,-5.22 158.02,-9.63 237.03,-14.4 -4.91,37.87 -10.04,75.71 -15.18,113.55 -35.49,1.97 -70.97,4.47 -106.48,6.07 2.2,1.41 4.41,2.85 6.6,4.31 -3.5,23.46 -6.49,47.01 -9.77,70.5 30.83,-1.75 61.67,-3.64 92.5,-5.53 -5.01,36.62 -9.65,73.28 -14.87,109.86 -30.84,1.5 -61.62,3.74 -92.46,5.36 -3.92,29.75 -7.92,59.5 -11.93,89.24 34.49,-1.88 68.96,-3.94 103.44,-6.2 27.04,-126.45 53.95,-252.94 81.11,-379.38 49.86,-0.27 99.7,0.77 149.57,0.41 23.62,0.46 47.75,0.85 70.43,8.25 15.38,4.93 29.48,14.83 37.94,28.76 8.86,14.6 11.92,31.97 12.32,48.83 0.91,33.37 -5.2,66.4 -11.76,98.97 -8.04,37.91 -16.18,75.78 -24.26,113.67 -7.73,36.31 -16.06,72.77 -30.37,107.14 -10.54,24.7 -25.21,48.96 -48.06,64.03 -25.58,17.62 -57.59,21.14 -87.81,22.05 -43.64,-0.12 -87.29,0.36 -130.91,-0.42 -11.37,0.44 -22.91,-1.17 -34.1,1.41 -71.88,4.4 -143.81,8.63 -215.71,12.99 -79.79,10.53 -159.57,21.38 -239.41,31.58 1.65,-26.21 3.01,-52.46 4.15,-78.69 -5.27,26.1 -20.81,49.66 -41.83,65.81 -28.24,21.87 -62.76,33.33 -96.88,42.37 -29.51,7.53 -59.75,14.3 -90.4,13.28 -19.83,-0.73 -40.73,-6.55 -54.67,-21.42 -15.07,-15.81 -20.1,-38.35 -20.72,-59.56 -0.05,-97.51 0,-195 -0.03,-292.5 -0.71,-25.33 4.86,-51.15 18.17,-72.89 -13.82,3.98 -27.66,7.91 -41.48,11.87 2.52,0.68 5.04,1.39 7.55,2.09 5.14,154.79 9.59,309.61 14.57,464.4 -53.16,15.08 -106.26,30.33 -159.41,45.44 -2.01,-76.14 -4.69,-152.28 -6.92,-228.41 -2.65,-80.09 -4.71,-160.2 -7.65,-240.28 -30.38,8.74 -60.77,17.41 -91.18,25.99 -1.02,-16.76 -0.85,-33.59 -1.89,-50.35 -22.86,7.75 -45.64,15.76 -68.57,23.34 22.56,-10.9 45.83,-20.31 68.62,-30.72 -1.15,-24.69 -1.29,-49.44 -2.6,-74.13 114.18,-32.62 228.38,-65.15 342.59,-97.69 -0.1,7.19 0.46,14.37 0.55,21.56 80.52,-35.43 160.92,-71.13 241.49,-106.46 -23.62,29.55 -46.55,59.73 -70.45,89.03 -56.51,19.82 -113.38,38.73 -169.97,58.36 0.93,12.54 0.71,25.12 1.48,37.69 27.11,-13.5 56.48,-21.68 85.84,-28.63 22.86,-5.15 46.15,-9.47 69.68,-8.75 22.64,-0.09 46.95,7.42 61.21,25.95 14.7,18.92 17.25,43.98 16.91,67.15 4.32,-2.42 8.67,-4.76 13.12,-6.92 1.77,-25.96 2.78,-51.97 4.31,-77.94 -9.81,4.4 -19.54,8.97 -29.45,13.14 30.43,-42.34 56.66,-87.51 82.31,-132.86 65.55,-25.43 131.5,-49.83 196.52,-76.56 59.22,-23.9 118.4,-47.94 177.62,-71.84 -6.95,18.43 -18.14,34.76 -27.69,51.88 37.4,-14.84 74.08,-31.48 109.47,-50.64 52.87,-28.84 105.24,-59 153.65,-94.97 12.09,-8.91 24.17,-17.85 35.88,-27.25 -35.73,1.06 -71.53,1.62 -107.14,5.12 -69.93,5.95 -138.69,22.27 -204.78,45.64 -64.25,22.9 -128.05,47.97 -187.75,81.22 -50.52,28.13 -97.09,62.72 -141.95,99.07 -4.41,-6.41 -9.29,-12.5 -13.47,-19.04 19.26,-18.53 38.45,-37.21 59.41,-53.87 44.91,-35.54 91.93,-68.78 143.05,-94.85 -39.53,7.27 -79.13,14.55 -117.72,25.92 -20.79,6.14 -41.44,12.73 -61.79,20.2 -24.34,9.58 -47.51,22.02 -69.37,36.39 -17.37,11.56 -34.1,24.46 -47.78,40.34 -5.99,7.22 -11.17,15.35 -13.52,24.54 -33.25,-16.1 -69.18,-25.68 -105.49,-31.87 -16.22,-2.72 -32.69,-3.37 -49.11,-3.98 55.35,-28.81 112.53,-54.39 172.03,-73.4 52.91,-16.76 106.39,-32.01 160.65,-43.74 61.47,-13.36 124.26,-19.44 187.02,-22.31 3.11,-0.09 6.3,-0.48 9.14,-1.92 28.7,-13.26 57.82,-25.74 87.61,-36.33 39.83,-14.33 81.04,-24.44 122.6,-32.2zm412.11 390.58c33,-3.6 66.31,-0.31 98.97,4.86 22.22,3.84 44.6,8.94 64.68,19.57 16.57,8.8 31.12,22.86 37.21,40.96 7.55,21.46 4.13,44.93 -2.33,66.2 -26.91,86.57 -53.9,173.13 -80.83,259.68 -6.59,20.4 -11.68,41.63 -22.9,60.15 -12.88,22.47 -33.87,40.27 -58.52,48.49 -25.52,9.15 -53.06,9.49 -79.81,8.25 -28.2,-1.98 -56.44,-5.56 -83.75,-12.97 -21.22,-6 -42.65,-15.25 -57.2,-32.45 -10.47,-12.24 -15.8,-28.29 -16.2,-44.29 -0.46,-15.19 2.61,-30.27 7.12,-44.7 29.53,-94.62 58.92,-189.28 88.44,-283.9 7.72,-25.36 21.3,-49.89 42.69,-66.19 17.88,-13.9 40.15,-21.01 62.43,-23.66zm-1117.78 152.85c0,57.39 0,114.78 0,172.15 0.26,38.21 -0.52,76.44 0.4,114.62 8.21,-1.31 16.64,-2.89 23.91,-7.07 2.96,-1.89 3.22,-5.78 3.3,-8.91 0.02,-93.53 0,-187.05 0.02,-280.58 -11.34,1.7 -22.29,5.23 -33.46,7.68 1.94,0.7 3.88,1.4 5.83,2.11zm169.06 206.96c2.78,-77.36 7.98,-154.62 11.56,-231.96 -4.08,1.99 -8.13,4.03 -12.23,5.98 -0.23,34.81 -0.03,69.64 -0.1,104.47 0.24,40.51 -0.61,81.02 0.77,121.51zm981.28 -247.65c-29.29,94.46 -59.04,188.78 -88.04,283.31 7.19,1.57 14.62,3.22 22.03,2.32 5.41,-0.5 6.32,-6.86 7.92,-10.97 28.34,-91.71 57.37,-183.21 85.35,-275.02 -11.03,-2.7 -22.44,-3.21 -33.64,-4.88 2.11,1.75 4.22,3.49 6.38,5.24zm-326.85 -22.99c-18.97,89.45 -38.17,178.86 -57.05,268.33 8.41,-0.26 20.07,2.48 25.41,-5.97 4.69,-8.17 6.58,-17.59 8.67,-26.69 13.8,-64.57 27.62,-129.17 41.39,-193.76 2.48,-12.41 5.82,-24.7 7.09,-37.32 -0.12,-2.6 0.9,-5.69 -0.83,-7.9 -10.24,-1.24 -20.59,-0.22 -30.84,-0.58 2.04,1.29 4.1,2.59 6.16,3.89z"/>
   <path class="fil1" d="M180.47 758.87c104.81,-29.95 209.64,-59.81 314.49,-89.68 1.09,34.37 2.43,68.74 3.06,103.11 -45.37,12.99 -90.79,25.88 -136.17,38.83 15.18,4.28 30.39,8.45 45.55,12.75 4.73,147.7 9.28,295.42 13.75,443.13 -43.75,12.51 -87.5,25.01 -131.28,37.45 -4.99,-156.22 -9.67,-312.43 -14.6,-468.65 -30.54,8.84 -61.18,17.37 -91.72,26.18 -0.65,-34.37 -1.89,-68.74 -3.08,-103.12zm458.62 -29.93c18.55,-1.97 38,-3.08 55.88,3.28 12.07,4.11 22.33,13.19 27.89,24.65 6.82,13.5 8.23,28.91 8.49,43.8 -0.06,96.93 0.01,193.86 -0.04,290.78 -0.17,26.91 -8.13,54.65 -26.74,74.69 -23.34,25.2 -56.43,38 -88.56,47.82 -29.36,8.42 -59.31,15.84 -89.91,17.54 -18.97,0.72 -39.89,-1.05 -54.95,-13.85 -15.27,-12.99 -19.59,-34.07 -20.26,-53.17 -0.07,-97.45 0,-194.91 -0.06,-292.34 -0.32,-18.23 2.28,-36.77 9.78,-53.48 8.34,-19.19 23.46,-34.78 40.98,-45.9 24.82,-15.89 53.21,-24.99 81.49,-32.5 18.45,-4.81 37.09,-8.94 56.01,-11.32zm-44.92 89.94l0 0c-24.62,6 -49.21,12.07 -73.79,18.26 14.14,4.93 28.47,9.28 42.66,14.04 0,90.24 0,180.51 0,270.75 0.29,5.98 0,13.21 4.98,17.49 6.22,4.08 13.97,1.92 20.71,0.6 8.21,-2.11 16.98,-4.22 23.42,-10.1 4.93,-4.61 6.6,-11.64 6.58,-18.17 -0.04,-92.9 -0.02,-185.81 0,-278.71 -0.15,-4.69 -0.77,-10.05 -4.54,-13.31 -5.95,-4.11 -13.51,-2.19 -20.02,-0.85zm1115.46 -117.95c32.26,-1.23 64.56,2.38 96.21,8.62 19.94,4.36 40.36,10.04 56.97,22.43 11.2,8.18 19.39,20.54 21.86,34.25 3.79,19.6 -1.33,39.49 -7.4,58.09 -28.88,92.78 -57.78,185.56 -86.66,278.33 -7.14,22.61 -19.29,44.52 -38.67,58.82 -19.21,14.41 -43.52,19.73 -67.07,21.09 -31.21,1.19 -62.44,-2.12 -93.07,-7.9 -22.22,-4.56 -45.15,-10.67 -63.12,-25.21 -10.84,-8.84 -18.17,-21.89 -19.84,-35.81 -2.19,-15.85 1.08,-31.86 5.66,-46.99 27.07,-86.83 54.08,-173.67 81.14,-260.5 5.9,-18.39 10.52,-37.48 20.45,-54.28 10.86,-19.34 28.51,-34.9 49.46,-42.46 14.06,-5.34 29.11,-7.58 44.08,-8.48zm-33.37 74.52l0 0c11.63,9.94 23.39,19.73 34.95,29.76 -28.16,90.15 -56.18,180.34 -84.28,270.52 -1.46,5.12 -2.68,11.17 0.48,15.93 4.06,5.03 10.89,6.22 16.91,7.34 8.47,1.21 17.6,2.53 25.69,-1.11 6.52,-3.07 9.96,-10.01 12,-16.57 28.37,-91.11 56.72,-182.24 85.09,-273.35 1.75,-5.7 3.01,-12.97 -1.8,-17.55 -6.13,-5.18 -14.55,-5.61 -22.13,-6.73 -22.3,-2.72 -44.6,-5.54 -66.91,-8.24zm-898.54 -69.87c36.94,-5.2 73.84,-10.6 110.76,-15.89 -6.61,122.93 -13.24,245.85 -19.69,368.8 -15.19,10.98 -30.86,21.28 -46.15,32.15 46.51,-7.4 93.38,-12.06 140.09,-17.95 -1.48,28.95 -2.97,57.91 -4.59,86.86 -68.66,8.92 -137.26,18.32 -205.95,27.13 8.63,-160.37 16.89,-320.73 25.53,-481.1zm522.87 -26.48c35.96,-0.29 71.89,0.66 107.84,0.44 24.99,0.12 50.12,-0.75 74.95,2.64 15.76,2.34 32.35,6.58 44.11,18 11.98,11.34 16.37,28.23 17.71,44.16 2.15,33.25 -3.85,66.29 -10.21,98.8 -8.81,41.78 -17.85,83.53 -26.72,125.29 -7.93,36.01 -16.27,72.33 -31.96,105.87 -10.4,22.47 -26.01,43.81 -48.7,54.99 -28.53,14.03 -61.23,14.04 -92.32,13.89 -44.59,0.2 -89.18,-0.22 -133.75,-0.46 33.03,-154.53 66.08,-309.07 99.05,-463.62zm46.1 79.88l0 0c12.72,8.31 25.45,16.59 38.17,24.93 -19.65,91.83 -39.12,183.71 -58.72,275.53 13.13,-0.66 26.44,1.84 39.41,-0.96 7.32,-1.62 13.22,-7.09 16.59,-13.65 4.81,-9.44 7.17,-19.86 9.43,-30.14 13.7,-64.09 27.37,-128.17 41.09,-192.24 2.6,-12.8 5.88,-25.48 7.29,-38.49 0.58,-6.57 0.68,-14.12 -3.86,-19.42 -5.56,-5.34 -13.87,-5.14 -21.03,-5.14 -22.79,0.39 -45.57,-0.58 -68.37,-0.42zm-314.76 -74.27c69.44,-4.01 138.88,-8.28 208.3,-12.46 -3.69,28.49 -7.6,56.95 -11.39,85.42 -47.88,2.48 -95.72,5.69 -143.6,8.29 13.33,7.47 26.82,14.62 40.06,22.22 0.11,0.46 0.33,1.38 0.45,1.84 -3.34,25.6 -7.01,51.16 -10.44,76.76 30.85,-1.7 61.67,-3.81 92.52,-5.42 -3.63,27.06 -7.24,54.12 -10.89,81.2 -30.87,2.04 -61.78,3.62 -92.65,5.7 -5.11,39.21 -10.48,78.41 -15.69,117.61 35.84,-2.28 71.7,-4.35 107.55,-6.49 -3.89,28.45 -7.41,56.96 -11.6,85.38 -72.06,4.1 -144.12,8.52 -216.16,12.94 21.35,-157.65 42.16,-315.36 63.54,-472.99z"/>
   <path class="fil2" d="M1328.88 462.86c44.5,-24.39 87.18,-51.98 128.48,-81.47 -1.99,7.66 -4.12,15.3 -6.09,22.96 -26.72,19.69 -53.85,38.83 -82.05,56.35 -31.43,19.5 -63.88,37.35 -96.54,54.74 -51.64,27.86 -105.78,50.84 -161.18,70.13 8.86,-10.4 16.95,-21.45 25.35,-32.17 26.34,-10.31 52.84,-20.32 78.6,-32.06 38.77,-17.56 76.1,-38.1 113.43,-58.48zm-481.86 218.64c58.73,-29.33 117.05,-59.62 173.68,-92.87 -24.14,26.64 -48.37,53.29 -74.71,77.79 -14.28,13.16 -29.12,25.7 -44.3,37.82 0.66,-10.27 1,-20.55 1.75,-30.82 -18.84,2.54 -37.62,5.41 -56.42,8.08zm-95.24 -245.28c30.25,-10.01 61.21,-18.46 92.83,-22.81 -41.28,11.22 -81.07,28.39 -116.84,51.92 -18.69,11.52 -34.16,27.24 -48.78,43.46 -19.62,-8.62 -40.75,-14.14 -62.2,-15.04 43.02,-23.49 88.72,-41.6 134.99,-57.53z"/>
  </g>
 </g>
</svg>
