<?xml version="1.0" encoding="UTF-8"?>
<!DOCTYPE svg PUBLIC "-//W3C//DTD SVG 1.1//EN" "http://www.w3.org/Graphics/SVG/1.1/DTD/svg11.dtd">
<!-- Creator: CorelDRAW -->
<svg xmlns="http://www.w3.org/2000/svg" xml:space="preserve" width="2000px" height="1600px" version="1.1" style="shape-rendering:geometricPrecision; text-rendering:geometricPrecision; image-rendering:optimizeQuality; fill-rule:evenodd; clip-rule:evenodd"
viewBox="0 0 2000 1600"
 xmlns:xlink="http://www.w3.org/1999/xlink">
 <defs>
  <style type="text/css">
   <![CDATA[
    .fil0 {fill:black;fill-rule:nonzero}
    .fil1 {fill:#006141;fill-rule:nonzero}
    .fil3 {fill:#C2B55E;fill-rule:nonzero}
    .fil2 {fill:#D63646;fill-rule:nonzero}
    .fil4 {fill:#FEFEFE;fill-rule:nonzero}
   ]]>
  </style>
 </defs>
 <g id="Capa_x0020_1">
  <metadata id="CorelCorpID_0Corel-Layer"/>
  <g id="UAB_x0020_Blazers.cdr">
   <path class="fil0" d="M468.26 85.06c2.76,-3.79 7.63,-5.39 12.18,-5 20.63,0.79 40.34,8.27 58.51,17.63 20.4,9.54 39.32,21.94 57.66,34.94 17.39,12.98 34.92,26.2 49.09,42.76 13.55,16.78 15.28,39.92 12.29,60.51 6.19,-6.28 10.95,-13.8 17.36,-19.89 2.28,-2.74 5.57,-5.08 6.72,-8.54 -10.22,-22.51 -18.06,-47.25 -15.02,-72.25 0.86,-5.5 2.42,-10.87 4.99,-15.81 13.32,1.21 26.56,4.07 38.64,10.02 16.6,7.21 30.2,19.66 46.03,28.16 14.46,-0.19 28.91,-1.17 43.39,0.21 1.77,-4.85 5.48,-10.61 11.41,-9.99 6.67,0.86 12.89,3.64 19.13,6 19.14,8.26 38.8,17.14 53.51,32.4 20.47,20.97 39.27,43.77 54.47,68.89 10.09,-6.47 20.61,-12.24 30.26,-19.37 11.64,-5.31 25.31,-0.63 36.38,4.05 13.3,17.9 20.95,39.79 36.63,56 23.54,-19.56 49.36,-37.85 79.48,-45.42 12.08,-3.2 24.55,-5.18 37.09,-5.18 20.03,10.35 38.7,24.32 51.32,43.27 6.89,9.52 11.19,20.55 17.58,30.35 22.07,-9.93 46.16,-14.23 69.6,-19.77 9.06,-2.6 19.62,-1.25 27.22,4.53 4.69,3.31 5.65,9.19 7.13,14.37 4.78,17.54 8.66,35.35 11.95,53.24 -2.21,21.52 -4.83,43.17 -4.32,64.89 2.76,13.77 9.99,26.46 19.68,36.59 -1.49,11.64 -1.98,23.53 -5.01,34.89 -5.08,5.52 -12.33,8.38 -18.87,11.76 -1.2,30.26 -5.58,60.29 -10.15,90.2 -30.71,-20.91 -61.32,-42.13 -93.81,-60.27 -24.52,-13.68 -50.17,-25.82 -77.48,-32.86 -3.92,4.61 -7.53,9.52 -10.39,14.86 -7.76,14.24 -15.05,29.08 -17.52,45.27 -31.44,-17.26 -47.33,-51.68 -56.69,-84.71 -12.08,9.87 -25.52,17.98 -39.22,25.42 -11.72,6.34 -23.95,12.25 -37.27,14.2 6.31,-15.27 8.22,-32.71 3.25,-48.64 -15.26,13.87 -28.54,30.41 -46.9,40.51 -8.07,4.7 -17,7.75 -26.19,9.32 3.81,-15.83 6.78,-33.12 0.57,-48.75 -0.49,-0.07 -1.48,-0.24 -1.97,-0.32 -15.19,20.02 -37.62,34.94 -62.59,39.12 0.84,-9.64 1.81,-20.81 -5.92,-28.16 -16.04,23.81 -40.47,44.77 -70.17,47.13 0.38,-9.97 1.44,-20.51 -2.74,-29.87 -2.53,-6.49 -7.12,-11.84 -12.01,-16.65 -7.1,10.88 -14.78,21.69 -25.27,29.59 -12.48,9.7 -28.29,13.83 -43.8,15.3 -3.22,-19.75 -11.19,-40.7 -28.2,-52.54 -10.07,11.68 -14.27,26.89 -18.82,41.31 -4.04,15.24 -9.53,30.9 -6.78,46.91 1.62,9.83 6.3,20.68 16.16,24.67 9.89,3.87 20.68,-0.59 28.71,-6.54 10.62,-8.26 19.26,-18.95 25.48,-30.84 4.55,2.05 9,4.52 12.45,8.23 12.33,12.52 19.63,29.02 24.79,45.58 14.82,-11.53 28.87,-25.58 34.97,-43.81 20.71,14.66 31.9,40.25 31.84,65.27 15.37,-12.18 27.13,-28.83 34.42,-46.98 15.97,11.99 25.19,30.86 30.29,49.76 2.48,9.28 3.22,18.93 2.52,28.5 13.89,-4.68 26.24,-13.45 35.66,-24.64 17.88,17.24 26.5,43.46 22.9,67.97 17.13,-5.94 31.95,-17.89 43.2,-31.97 10.39,24.17 12.96,51.15 12.06,77.24 23.37,-17.05 42.46,-39.41 57.94,-63.71 6.95,14.41 11,30.07 12.66,45.95 67.3,19.15 131.22,49.4 189.81,87.52 0.49,0.59 1.46,1.79 1.95,2.39 -6.5,12.66 -10.56,27.21 -21.29,37.13 -6.6,7.57 -13.74,14.65 -21.63,20.91 3.31,11.21 6.2,22.99 4.6,34.77 -28.27,5.21 -47.89,28.18 -71.01,43.21 -14.77,5.69 -31.25,2.45 -46.58,2.19 -14.92,15.69 -34.33,26.48 -55.15,32.21 6.59,-16.32 9.59,-35.07 4.63,-52.19 -19.98,11.72 -42.93,19.54 -66.22,19.75 6.22,-12.79 7.34,-27.8 4.7,-41.62 -18.93,5.27 -40.19,10.73 -59.24,3.35 10.83,-6.24 15.21,-18.7 15.59,-30.58 -13.85,1.85 -28.3,0.78 -41.48,-3.99 -8.51,-14.16 -16.44,-28.81 -26.97,-41.67 -27.44,-35 -62.73,-63.67 -102.14,-84.19 -17.58,-8.37 -35.87,-15.24 -54.52,-20.83 -29.68,-9.46 -60.24,-16.31 -91.24,-19.47 -6.51,-0.4 -13.03,-0.32 -19.54,0 7.86,21.35 21.81,39.71 36.59,56.74 25.29,28.62 54.35,53.61 84.05,77.51 57.45,45.8 118.79,86.37 180.77,125.7 64.31,42.56 122.54,94.76 169.39,156.18 71.83,93.34 116.3,207.94 123.76,325.63 0.76,16.31 2.51,32.73 0.99,49 -33.51,-66.33 -90.88,-117.35 -153.29,-155.99 -68.11,-41.96 -142.11,-72.96 -215.54,-104.18 -73.87,-31.04 -147.83,-62.07 -219.43,-98.11 -96.78,-49 -191.67,-105.1 -269.69,-181.34 -35.81,-35.05 -67.51,-74.1 -95.86,-115.35 -14.31,-20.86 -28.68,-41.81 -39.79,-64.6 -26.24,-54.23 -41.05,-114 -43.29,-174.21 -0.46,-12.9 0.4,-25.78 1.12,-38.64 -7.69,-3.09 -15.92,-4.55 -24.2,-3.83 6.54,-16.76 15.03,-32.75 24.81,-47.82 2.95,-4.73 6.95,-8.94 8.66,-14.32 -11.48,-3.79 -23.64,-4.42 -35.6,-3.3 11.66,-26.05 31.18,-48.67 55.24,-64.01l0.49 -1.27c-11.23,-7.58 -24.53,-11.34 -37.83,-13.15 17.68,-17.98 34.98,-37.09 57.39,-49.28 5.9,-3.41 12.52,-5.29 18.4,-8.68 -10.96,-13.24 -26.58,-22.32 -43.42,-25.59 2.82,-4.97 8.18,-7.69 12.73,-10.85 19.31,-11.13 41.31,-17.26 63.46,-18.91 8.14,0 16.51,-0.99 24.41,1.46 -8.43,-14.8 -24.47,-22.51 -35.83,-34.61 23.92,-10.49 50.33,-13.51 76.17,-14.48 9.5,0.42 18.9,-1.87 28.32,-0.15 19.04,-0.16 38.15,1.58 56.74,5.84 -3.43,-13.91 -13.72,-24.7 -24.36,-33.66 30.24,-5.16 61.03,1.35 89.53,11.55 -14.88,-34.27 -32.96,-68.52 -36.13,-106.39 -1.15,-12.6 0.39,-25.21 2.3,-37.66 2.22,-11.64 4.96,-23.73 12.21,-33.41z"/>
   <path class="fil1" d="M1127.29 282.86c10.14,-1.39 20.68,-2.87 30.69,0.13 2.42,0.55 4.02,2.63 5.71,4.28 16,17.64 31.42,35.83 46.11,54.58 9.62,12.48 4.92,30.12 12.71,43.3 3.55,-0.15 3,-3.93 3.86,-6.39 0.87,-5.59 4.79,-10.01 8.56,-13.97 12.03,-11.85 27.16,-19.98 42.63,-26.45 8.27,-3.25 17.69,-5.84 26.46,-3.02 3.43,0.89 2.82,4.87 3.22,7.57 -10.07,3.03 -22.74,-2.41 -30.83,6.09 -5.65,5.75 -12.61,10.14 -17.58,16.54l0.15 1.25c13.97,12.1 27.73,24.55 39.66,38.71 2.03,2.34 3.94,5.23 7.27,5.74 0.49,-9.09 -3.88,-17.22 -8.03,-24.96 -0.08,-4.07 5.42,-4.61 8.29,-6.07 6.87,17.73 6,37.35 3.01,55.81 -1.05,7.15 2.74,13.6 5.86,19.71 -37.01,-3.29 -73.01,-14.63 -106.56,-30.31 -10.96,-5.29 -21.82,-10.88 -31.58,-18.17 -26.13,-18.16 -58.02,-26.78 -89.55,-28.28 -34.61,0.76 -68.81,7.04 -102.93,12.52 -59.84,10.71 -119.4,23.03 -178.88,35.6 -47.49,10.03 -95.5,20.5 -144.31,19.55 -17.55,0.07 -35.36,-1.91 -52.01,-7.56 -1.1,2.04 -2.22,4.07 -2.66,6.36 -6.66,27.26 -14.14,54.34 -19.73,81.86 -2.78,13.77 -5.86,27.7 -5.31,41.84 0.06,6.62 3.27,12.58 6.09,18.36 9.38,18.48 21.33,35.45 33.01,52.5 1.72,2.04 3.12,5.23 6.24,5.25 30.13,3.9 60.65,8.22 88.94,19.83 44.95,18.23 88.05,41.56 126.48,71.24 9.67,8.01 20,15.43 28.26,24.99 -8.92,-4.15 -16.88,-10.05 -25.61,-14.54 -39.92,-21.43 -81.52,-40.07 -124.87,-53.47 -37.29,-9.57 -75.65,-14.99 -114.15,-16.48 -2.98,0.31 -5.42,-1.2 -6.96,-3.65 -32.44,-41.05 -65,-82 -97.08,-123.31 8.31,-3.46 17.22,-6.31 23.76,-12.8 -2.76,-16.96 -2.64,-34.82 2.9,-51.23 6.29,-1.71 13.41,0.19 19.63,-2.74 -4.75,-5.65 -10.94,-9.8 -16.04,-15.11 -18.72,-19.27 -34.04,-43 -38.7,-69.83 -1.77,-12.1 -2.13,-24.77 1.81,-36.51 7.11,-24.49 19.29,-49.92 42.47,-62.82 33.34,-5.23 67.24,3.35 97.99,16.04 13.61,5.92 26.95,12.89 38.5,22.31 2.49,1.63 3.06,4.54 2.41,7.32 -0.3,7.33 -3.1,14.14 -5.74,20.86 25.04,-11.69 51.05,-21.54 77.94,-28.01 41.23,-8.64 83.49,-13.17 125.64,-11.19 20.25,2.05 40.49,-1.39 60.76,-1.5 17.12,-0.61 34.25,-1.68 51.39,-1.34 33.13,-1.14 66.11,5.98 97.28,16.75 1.27,-1.62 2.34,-3.33 3.19,-5.18 -4.03,-8.01 -10.88,-14.35 -14.12,-22.83 10.62,-5.82 19.32,-14.35 29.19,-21.2 7.31,-5.35 16.48,-6.58 25.16,-7.97zm-112.74 1001.93c21.65,-2.26 43.4,-4.2 65.19,-3.94 5.17,0.38 11.26,-0.45 15.33,3.56 7.92,6.87 13.65,15.83 18.84,24.85 7.25,13.59 13.02,28.24 14.84,43.63 -33.6,-29.39 -73.67,-50.02 -114.2,-68.1zm-96.29 -145.45c23.18,-3.56 46.68,-5.04 70.12,-3.82 7.08,0.22 12.28,5.63 17.79,9.41 30.98,23.9 54.56,57.26 68.03,93.89 -36.32,-0.3 -72.54,3.73 -108.77,5.94 -5.88,-1.83 -10.88,-5.66 -16.32,-8.41 -45.52,-24.8 -93.11,-45.46 -140.53,-66.26 5.5,-4.26 12.37,-6.01 18.71,-8.62 29.46,-10.45 60.11,-17.35 90.97,-22.13zm-161.81 -103.84c35.92,-10.77 73.73,-18.28 111.33,-14.14 22.21,9.58 41.62,24.59 60.02,40.1 13.18,11.79 26.6,23.8 36.93,38.28 -68.73,-5.67 -139.9,6.07 -200.71,39.43 -32.6,-11.02 -62.85,-28.92 -88.18,-52.2 -4.09,-3.59 -7.97,-7.42 -11.3,-11.74 28.98,-16.68 60.05,-29.66 91.91,-39.73zm-46.41 -124.86c2.03,-0.55 3.8,0.72 5.51,1.64 33.46,20.01 66.72,40.47 98.08,63.68 5.74,4.86 12.33,8.79 17.22,14.58 -55.85,2.19 -112.17,12.96 -162.1,38.89 -11.19,5.35 -21.32,12.6 -32.26,18.38 -20.41,-19.98 -44.16,-37.14 -60.07,-61.25 -0.95,-2.11 -4.22,-5.12 -1.46,-7.15 20.72,-19.26 43.82,-36.19 69.28,-48.64 20.79,-9.86 43.04,-16.69 65.8,-20.13zm244.47 -61.84c20.63,15.09 44.3,27.32 70.03,29.99 5.48,0.83 11.64,-0.31 16.42,3.1 14.17,9.04 31.49,13.18 48.2,11.53 4.68,-0.27 10.06,-3.41 13.98,0.59 8.39,6.94 19.98,6.41 30.18,5.36 7.21,-0.81 13.64,-4.45 19.81,-8.06 14.04,7.99 30.25,11.76 46.39,11.45 -20.38,12.29 -44.39,19.81 -68.35,17.6 -19.2,-1.58 -38.32,-4.26 -57.16,-8.24 -25.5,-6.47 -49.57,-17.35 -74.82,-24.64 -19.41,-5.8 -36.67,-19.86 -44.68,-38.68zm-411.03 -15.05c26.89,-9.35 55.17,-14.03 83.48,-16.08 18.23,18.15 34.38,38.38 53.75,55.39 3.07,2.68 6.06,5.48 8.99,8.35 -44.3,19.45 -93.13,30.09 -132.82,58.93 -3.24,1.85 -5.9,5.88 -9.74,5.94 -17.78,-21.29 -35.95,-42.51 -50.2,-66.39 -3.31,-6.15 -7.27,-12.12 -8.77,-19.01 17.48,-10.83 35.69,-20.74 55.31,-27.13zm-51.55 -106.14c21.39,-3.92 43.85,-6.11 65.21,-1.28 7.65,9.1 13.15,19.85 20.1,29.49 7.95,12.58 17.37,24.11 26.24,36.03 -46.64,1.37 -91.64,16.19 -134.23,34.32 -13.77,-24.43 -26.18,-50.35 -30.88,-78.22 15.83,-11.13 34.8,-16.61 53.56,-20.34zm-52.68 -72.1c27.62,-6.26 56.76,-5.9 84.42,-0.1 5.9,0.74 8.79,6.42 11.86,10.79 6.91,10.09 11.32,21.56 15.54,32.96 -10.86,-1.75 -21.63,-4.61 -32.74,-4.13 -31.13,-0.53 -60.57,10.94 -89.06,22.13 -6.54,-16.8 -7.38,-35.11 -7.45,-52.92 3.42,-5.67 11.45,-6.73 17.43,-8.73zm-0.42 -94.67c5.33,4.44 8.31,10.9 13.07,15.89 13.97,17.39 31.91,30.88 47.65,46.51 -25.83,-3.16 -51.76,-0.04 -77.64,0.36 3.9,-21.28 7.36,-43.16 16.92,-62.76zm-179.46 -9.23c11.17,-1.88 22.68,-1.52 33.83,0.27 -4.32,6.74 -10.35,12.12 -14.99,18.61 -18.15,23.2 -32.25,49.28 -43.39,76.49 -3.06,6.36 -4.62,13.42 -8.48,19.39 -4.8,-14.42 -9.92,-29.8 -7.37,-45.13 8.51,-22.86 22.36,-43.12 34.58,-64.07 1.5,-2.19 2.74,-5.31 5.82,-5.56zm-38.47 -11.76c4.14,-10.18 7.68,-21.44 15.9,-29.13 0.23,7.12 1.85,14.79 -0.59,21.6 -9.55,14.06 -19.22,28.26 -25.68,44.09 1.92,-12.54 6.45,-24.53 10.37,-36.56zm130.74 -49.85c6.79,-0.82 13.7,-0.08 20.53,0.04 -2.87,2.76 -6.37,4.68 -9.7,6.83 -18.14,12.31 -34.1,27.42 -50.12,42.3 0.21,-7.08 -1.87,-16.37 4.96,-21.03 11.25,-9.59 21.66,-20.43 34.33,-28.14zm-160.26 7.4c6.99,-7.46 14.44,-14.69 22.7,-20.74 -3.84,9.04 -8.1,17.96 -12.84,26.6 -2.91,-2.15 -9.9,-1.39 -9.86,-5.86zm117.94 -59.35c7.84,-10.16 22.32,-8.25 33.68,-8.1 -1.5,13.91 -1.47,28.03 -3.6,41.86 -18.21,12.44 -35.12,26.83 -50.4,42.76 -3.22,3.08 -5.94,6.81 -9.71,9.26 -6.24,1.09 -12.61,1.2 -18.89,2.11 0.19,-9.76 0.36,-19.5 0.38,-29.24 -0.55,-6.38 4.89,-10.54 8.41,-15.07 12.63,-15.19 26.53,-29.27 40.13,-43.58zm-89.74 -17.71c7.99,-4.45 15.62,-10.94 25.04,-11.69 -4.62,7.22 -8.86,14.66 -13.64,21.73 -5.69,0.27 -11.3,-3.25 -16.88,-4.79 0.04,-2.93 3.64,-3.67 5.48,-5.25zm207.53 -28.26c3.78,-1.64 7.8,-4.83 12.12,-2.91 10.63,3.67 21.8,8.12 29.62,16.48 -1.27,9.82 -6.83,18.38 -9.91,27.66 -1.5,3.39 -2.06,7.81 -5.75,9.61 -15.54,9.88 -31.55,19.01 -47.03,28.98 -2.97,1.68 -5.79,3.98 -9.25,4.59 -8.51,-2.72 -16.04,-7.73 -24.15,-11.36 -0.42,-14.37 0.5,-28.73 2.19,-42.98 16.08,-12.09 34.29,-20.97 52.16,-30.07zm-159.98 40.07c14.01,-17.24 29.69,-33.18 46.05,-48.16 -1.54,6.93 -2.83,13.93 -4.85,20.74 -5.63,6.4 -12.75,11.29 -18.86,17.21 -5.93,5.95 -14.23,8.77 -22.34,10.21zm-17.01 -79.19c16.03,-2.67 32.33,-3.64 48.54,-2.78 -6.5,7.48 -13.28,15.74 -21.74,20.72 -9.25,-5.44 -18.02,-11.74 -26.8,-17.94zm149.7 -16.9c12.18,-1.65 24.96,-2.41 36.97,0.67 -4.91,10.03 -10.92,19.5 -17.43,28.56 -2.3,3.58 -6.34,5.21 -9.93,7.15 -19.24,9.96 -38.31,20.5 -55.6,33.61 -8.13,1.98 -16.9,0.43 -25.27,0.63 2.57,-11.54 5.54,-23.09 10.67,-33.78 2.02,-5.06 7.56,-6.89 11.8,-9.59 16.36,-8.91 32.08,-19.05 48.79,-27.25zm-84.51 -32.12c26.74,-4.72 55.24,-6.22 81.35,2.55 -5.29,2.63 -11.06,4.02 -16.52,6.19 -14.21,5.57 -27.8,12.76 -42.35,17.5 -4.95,-10.58 -11.57,-21.03 -22.48,-26.24zm643.08 -12.18c4.5,-5.19 10.49,-8.83 16.77,-11.47 5.73,5.5 12,10.6 16.4,17.3 -10.85,-0.86 -21.83,-1.32 -32.46,-3.66 -0.17,-0.53 -0.53,-1.63 -0.71,-2.17zm-504.95 -19.52c8.18,0.74 15.76,4.13 22.91,7.99 -4,6.26 -6.56,13.61 -11.84,18.94 -2.18,-9.58 -7.47,-17.91 -11.07,-26.93zm273.61 -69.45c30.31,-5.88 61.31,-10.24 92.23,-7.67 16.82,2.57 30.54,13.76 43.5,23.99 14.52,11.34 28.23,23.71 42.47,35.38 9.3,11.19 9.78,26.62 14.88,39.77 -18.12,-8.64 -33.04,-22.4 -49.28,-33.91 -19.66,-14.03 -39.74,-28.11 -62.53,-36.59 -4.53,-1.75 -9.33,-2.55 -14.08,-3.3 2.68,5.52 7.95,10.85 6.58,17.45 -10.31,-0.89 -20.7,-2.05 -31.03,-0.64 -9.1,1.16 -19.11,2.49 -25.94,9.26 -13.11,12.26 -22.83,27.8 -29.97,44.19 -3.08,6.68 -4.38,13.94 -5.33,21.18 -11.19,0.28 -19.63,-9.12 -30.86,-9.31 23.25,-24.51 15.91,-62.6 35.24,-89.18 3.65,-4.65 8.01,-9.52 14.12,-10.62zm-249.02 -94.71c17.14,1.64 33.71,7.16 49.36,14.18 38.72,18.19 75,43.76 101.01,78.11 -11.87,20.32 -12.97,44.22 -14.89,67.06 -5.75,-7.82 -6,-18.21 -6.45,-27.54 -0.25,-13.41 2.28,-27.34 10.4,-38.32 -18.03,-20.15 -39.33,-37.14 -61.48,-52.54 -13.54,-8.45 -27.11,-17.35 -42.39,-22.36 16.55,17.87 38.59,31.4 50.46,53.36 -13.03,-3.5 -26.98,-5.98 -40.24,-2.23 13.83,7.14 29.83,12.43 39.6,25.35 -11.06,0.47 -21.26,5.59 -29.59,12.63 16.78,2.97 34.84,6.3 48.29,17.51 3.96,7.29 1.69,16.52 2.13,24.58 -7.67,-2.68 -15.49,-4.83 -23.31,-7 -2.43,-4.95 -5.25,-9.93 -9.87,-13.18 -13.1,-10.17 -30.01,-12.41 -45.52,-16.83 3.46,-3.71 8.73,-4.73 12.43,-8.12 3.19,-2.87 2.07,-7.67 0.57,-11.11 -7.5,-15.09 -18.94,-27.75 -30.94,-39.39 7.19,-0.76 14.57,-1.72 20.79,-5.73 -0.93,-20.27 -17.81,-34.35 -30.36,-48.43zm654.11 208.69l0 0c-9.49,7.3 -17.3,16.53 -25.67,25.06 13.64,3.57 27.48,7.13 39.92,13.98 8.07,4.55 15.02,10.81 23.03,15.47 0.61,-7.29 -6.36,-12.33 -6.45,-19.52 2.24,1.1 4.64,2.09 6.35,4.01 9.82,9.9 18.48,21.39 30.9,28.28 5.12,-6.66 -0.4,-14.69 -4.58,-20.23 -14.67,-18.17 -29.7,-36.78 -49.27,-49.95 -4.58,-3.5 -10.23,0.29 -14.23,2.9z"/>
   <path class="fil2" d="M920.97 483.53c0.49,0.08 1.48,0.25 1.97,0.32 6.21,15.63 3.24,32.92 -0.57,48.76 9.19,-1.58 18.12,-4.63 26.19,-9.33 18.36,-10.1 31.64,-26.64 46.9,-40.51 4.97,15.93 3.06,33.37 -3.25,48.64 13.32,-1.95 25.55,-7.86 37.27,-14.2 13.7,-7.44 27.14,-15.55 39.22,-25.42 9.36,33.03 25.25,67.45 56.69,84.71 2.47,-16.19 9.76,-31.03 17.52,-45.27 2.86,-5.34 6.47,-10.25 10.39,-14.86 27.31,7.04 52.96,19.18 77.48,32.86 32.49,18.14 63.1,39.36 93.81,60.27 30.92,24.03 58.67,51.79 85.92,79.86 8.64,9.84 18.28,18.95 25.34,30.05 11.82,-14.1 9.72,-35.21 3.64,-51.44 15.43,6.91 29.43,17.01 40.56,29.78 13.82,15.89 26.17,33.79 44.34,45.16 20.11,12.31 42.21,21.88 65.44,26.35 17.58,2.07 35.62,4.74 53.05,0.04 28.83,-7.84 54.74,-25.98 72.31,-50.1 13.13,-17.04 20.81,-37.59 25.42,-58.42 0.09,0.55 0.28,1.67 0.38,2.23 1.33,15.48 3.14,31.16 0.32,46.59 -3.61,24.76 -15.54,47.54 -31.26,66.72 25.55,-2.4 52.88,1.75 73.94,17.31 17.03,12.22 28.36,31.17 33.95,51.15 -19.92,-10.84 -41.86,-18.21 -64.58,-19.73 -26.95,-1.9 -53.8,2.93 -80.02,8.7 -17.14,3.38 -35.45,7.19 -52.44,1 -13.09,-4.01 -23.31,-13.33 -34.08,-21.29 5.05,18.55 18.71,34.08 35.83,42.57 -27.09,-4.19 -53.71,4.89 -78.13,15.73 -28.48,12.14 -58.24,25.01 -89.91,23.29 -7.95,-0.47 -15.87,-1.46 -23.67,-2.96 -15.79,-4.32 -32.17,-8.09 -46.07,-17.15 -9.83,-6.53 -19,-13.95 -28.54,-20.85 3.43,25.8 5.31,56.06 -12.1,77.52 -4.59,-19.64 -10.28,-39.85 -23.2,-55.81 -6.01,-7.94 -13.94,-14.06 -21.46,-20.46 -12.46,-9.89 -25.38,-19.31 -39.05,-27.47 -58.58,-38.12 -122.5,-68.37 -189.8,-87.51 -1.66,-15.89 -5.71,-31.55 -12.66,-45.96 -15.48,24.3 -34.57,46.66 -57.94,63.71 0.9,-26.09 -1.67,-53.07 -12.06,-77.24 -11.25,14.08 -26.07,26.03 -43.2,31.97 3.6,-24.51 -5.02,-50.73 -22.9,-67.97 -9.42,11.19 -21.77,19.96 -35.66,24.64 0.7,-9.57 -0.04,-19.22 -2.52,-28.5 -5.09,-18.9 -14.32,-37.77 -30.29,-49.76 -7.29,18.15 -19.05,34.8 -34.42,46.98 0.06,-25.02 -11.13,-50.61 -31.84,-65.27 -6.1,18.23 -20.15,32.28 -34.97,43.81 -5.16,-16.56 -12.46,-33.06 -24.79,-45.58 -3.45,-3.71 -7.9,-6.18 -12.45,-8.24 -6.22,11.9 -14.86,22.59 -25.48,30.85 -8.03,5.95 -18.82,10.41 -28.71,6.55 -9.86,-4 -14.54,-14.85 -16.16,-24.68 -2.76,-16.01 2.74,-31.67 6.78,-46.91 4.55,-14.42 8.75,-29.63 18.82,-41.31 17.01,11.84 24.98,32.79 28.2,52.54 15.5,-1.47 31.32,-5.6 43.8,-15.3 10.48,-7.9 18.17,-18.71 25.27,-29.59 4.89,4.81 9.48,10.16 12.01,16.65 4.18,9.36 3.12,19.9 2.74,29.87 29.7,-2.36 54.13,-23.32 70.17,-47.13 7.73,7.35 6.76,18.51 5.92,28.16 24.97,-4.18 47.4,-19.1 62.59,-39.12z"/>
   <path class="fil3" d="M774.24 267.14c10.12,-7.5 23.63,-6.14 35.16,-3.25 13.99,3.88 27.88,9.55 39.2,18.84 8.54,8.02 17.3,15.85 25.84,23.87 -23.08,1.81 -46.18,2.88 -69.24,4.63 -4.17,-13.26 -5.31,-27.55 -2.06,-41.16 -13.57,12.67 -21.56,29.7 -29.28,46.26 -9.02,2.45 -17.85,5.61 -26.62,8.87 -6,-9.21 -4.4,-21.58 1.12,-30.62 6.51,-10.87 15.68,-20.04 25.88,-27.44zm966.75 395.87c8.31,9.45 13.11,21.65 15.51,33.9 5.48,27.77 -6.43,57.83 -29.06,74.73 19.01,-3.26 39.29,-0.8 56.44,8.29 24.98,12.2 43.35,35.22 54.15,60.44 9.4,20.62 13.25,43.44 13.53,66.01 -25.08,-28.83 -58.45,-51.4 -96.15,-59.45 -20.09,-4.22 -40.72,-2.03 -61,-0.91 -12.2,1.29 -24.53,2.17 -36.29,5.8 22.02,7.98 45.44,11.44 68.52,15.17 10.05,1.58 20.19,2.22 30.37,2.57 -15.07,13.64 -36.63,15.26 -56,14.8 -35.92,-0.57 -71.41,-9.46 -107.43,-7.06 -18.82,0.73 -35.55,10.2 -53.32,15.22 -28.88,9.56 -60.36,14.56 -90.27,6.87 -6.47,-2.05 -13.36,-3.44 -19.05,-7.3 7.8,1.5 15.72,2.49 23.67,2.97 31.67,1.71 61.43,-11.16 89.91,-23.3 24.42,-10.84 51.04,-19.92 78.13,-15.73 -17.12,-8.49 -30.78,-24.02 -35.83,-42.57 10.77,7.96 20.99,17.28 34.08,21.29 16.99,6.19 35.3,2.38 52.44,-1 26.22,-5.77 53.07,-10.6 80.02,-8.7 22.72,1.52 44.66,8.89 64.58,19.73 -5.59,-19.98 -16.92,-38.93 -33.95,-51.15 -21.06,-15.56 -48.39,-19.71 -73.94,-17.31 15.72,-19.18 27.65,-41.96 31.26,-66.71 2.82,-15.44 1.01,-31.12 -0.32,-46.6zm-832.6 -95.34c28.39,-4.43 57.22,-4.18 85.85,-3.54 25.18,1.72 50.12,5.9 75.13,9.29 19.37,2.32 38.4,7.54 58,7.48 16.32,-0.42 33.56,-1.39 47.72,-10.45 2.78,7.42 2.7,15.38 2.17,23.18 40.09,17.29 79.82,35.47 118.28,56.19 12.86,7.29 26.14,14.1 37.71,23.42 15.4,11.29 30.71,22.72 46.68,33.25 11.05,6.81 22.05,14.19 34.84,17.35 -2.61,8.87 -11,14.02 -19.01,17.43 29.85,18.63 63.33,30.81 96.99,40.62 13.81,4.34 28.31,5.67 42.3,9.08 -16.03,14.31 -36.27,22.83 -56.65,28.89 -23.75,6.75 -49.74,9.32 -73.47,1.08 -10.03,-3.03 -18.86,-8.85 -27.32,-14.86 -31.65,-22.51 -57.53,-52.06 -89.36,-74.34 -14.18,-9.46 -27.95,-19.6 -43.5,-26.7 -12.42,27.57 -40.21,49.97 -71.56,48.25 2.93,-16.11 -0.06,-32.99 -8.62,-46.96 -9.77,-18.42 -25.94,-32.14 -42.15,-44.69 -20.44,-15.53 -42.95,-28.36 -67.15,-37.03 -19.87,-7.52 -40.55,-12.51 -61.24,-17.09 -27.24,-5.94 -55.08,-8.51 -82.27,-14.71 -4.89,-1.07 -9.8,-1.96 -14.73,-2.84 -11.72,-1.96 -22.82,-6.79 -34.75,-7.68 2.23,-3.07 6.09,-3.64 9.46,-4.74 12.22,-3.29 24.07,-8.01 36.65,-9.88z"/>
   <path class="fil4" d="M820.82 273.44c14.9,7.01 35.05,9.66 17.87,29.32 0.64,-20.69 -0.41,-18.71 -17.87,-29.32zm197.82 134.93c9.8,-1.71 19.86,-3.12 29.78,-1.6 4.85,0.69 10.35,4.3 9.3,9.93 -1.75,15.04 -6.49,29.59 -12.23,43.56 -6.63,15.2 -14.22,30.67 -26.97,41.75 1.07,-19.93 -1.33,-40.51 -10.96,-58.27 -2.55,-4.28 -4.68,-9.21 -8.98,-12.02 -7.7,18.45 -19.65,34.86 -32.94,49.68 -5.69,5.67 -10.98,12.02 -18.07,15.98 -0.42,-13.09 -1.85,-26.77 -8.51,-38.32 -4.05,-7.31 -9.97,-13.3 -15.85,-19.12 -10.05,21.52 -25.04,42.39 -47.4,52.25 -0.76,-9.61 -5.88,-18.08 -11.15,-25.86 -4.32,-5.88 -8.73,-11.95 -14.88,-16.04 -6.64,16.63 -14.86,32.94 -26.79,46.45 -5.9,6.24 -12.46,12.84 -21.08,14.9 -3.16,-22.4 -22.86,-37.7 -41.94,-47.06 -10.3,21.01 -25.77,39.86 -46.45,51.3 -2.74,-19.72 -15.85,-37.2 -33.64,-45.9 48.92,-4.18 97,-14.57 145.15,-23.88 64.73,-11.59 128.87,-26.14 193.61,-37.73zm88.73 20.76c9.32,-11.17 25.23,-14.08 38.78,-10.09 15.9,3.47 28.88,13.67 43.04,21.07 17.87,9.59 35.89,19.24 55.26,25.48 21.16,7.19 42.49,13.89 64.04,19.82 7.43,0.75 9.25,9.44 10.49,15.42 2.66,19.84 -0.95,40.39 -8.66,58.78 -13.76,-19.79 -20.61,-44.82 -17.69,-68.83 -9.94,4.36 -17.68,12.1 -25.46,19.39 -3.96,-11.26 -8.36,-22.61 -15.97,-31.99 -5.92,7.27 -11.99,15.38 -21.01,18.9 -5.53,-8.41 -9.34,-17.76 -13.14,-27.02 -5.39,7.36 -12.43,13.2 -19.89,18.32 -10.83,-12.94 -18.02,-28.88 -21.48,-45.36 -12.94,9.09 -21.56,22.76 -30.05,35.79 -11.59,18.99 -22.05,38.76 -30.39,59.39 -17.88,-20.48 -21.16,-49.59 -18.74,-75.7 1.9,-11.49 2.04,-24.6 10.87,-33.37zm-438.99 198.77c18.97,-6.59 37.68,-17.01 49.74,-33.49 9.59,13.05 18.18,31.91 7.88,47 -19.08,-5.01 -38.26,-9.69 -57.62,-13.51zm71.13 17.26c21.26,-4.13 39.52,-18.52 51.23,-36.39 8.25,16.5 6.71,35.59 4.18,53.26 12.71,5.89 27.88,2.61 38.82,-5.48 9.02,-7.89 15.58,-18.17 21.58,-28.46 11.61,18.4 11.09,42.58 3.88,62.51 20.11,7.25 43.06,0.03 59.29,-12.77 6.41,12.06 5.16,26.33 3.52,39.41 -1.04,6.16 -2.02,12.48 -5,18.05 20.15,5.71 42.6,-0.87 58.97,-13.3 5.08,20.8 2.98,44.03 -8.93,62.21 6.43,7.53 17.66,5.91 26.01,3.04 22.51,-9 40.06,-26.89 55.17,-45.29 8.56,29.65 0.38,62.91 -18.84,86.73 -4.93,6.93 -14.63,6.34 -22.04,4.86 -8.86,-1.51 -17.12,-6.24 -22.62,-13.4 -9.21,-11.74 -17.47,-24.3 -27.8,-35.14 -26.66,-28 -56.17,-53.23 -87.38,-76 -17.2,-12.47 -35.09,-24.07 -54.08,-33.65 -24.3,-12.48 -50.19,-21.36 -75.96,-30.19zm318.23 206.28c11.78,-12.04 26.28,-20.83 40.06,-30.33 1.16,9.95 3.4,20.34 9.58,28.49 2.31,3.59 6.93,1.61 10.17,0.78 12.59,-4.72 23.27,-13.42 32.78,-22.72 4.09,6.07 7.84,12.61 8.68,20.03 14.1,0.61 27.74,-7.11 36.88,-17.5 13.16,1.71 25.63,8.67 34.57,18.42 -11.66,12 -24.96,24.3 -42.09,27.17 -14.2,1.48 -26.81,-6.85 -38.59,-13.59 -14.35,9.29 -33.93,12.39 -48.88,2.7 -15.59,7.69 -34.5,3.85 -49.61,-3.27 0.29,-4.32 3.67,-7.25 6.45,-10.18z"/>
  </g>
 </g>
</svg>
