<?xml version="1.0" encoding="UTF-8"?>
<!DOCTYPE svg PUBLIC "-//W3C//DTD SVG 1.1//EN" "http://www.w3.org/Graphics/SVG/1.1/DTD/svg11.dtd">
<!-- Creator: CorelDRAW -->
<svg xmlns="http://www.w3.org/2000/svg" xml:space="preserve" width="2000px" height="1600px" version="1.1" style="shape-rendering:geometricPrecision; text-rendering:geometricPrecision; image-rendering:optimizeQuality; fill-rule:evenodd; clip-rule:evenodd"
viewBox="0 0 2000 1600"
 xmlns:xlink="http://www.w3.org/1999/xlink">
 <defs>
  <style type="text/css">
   <![CDATA[
    .fil2 {fill:#007CC3}
    .fil0 {fill:black;fill-rule:nonzero}
    .fil1 {fill:#FBB827;fill-rule:nonzero}
   ]]>
  </style>
 </defs>
 <g id="Capa_x0020_1">
  <metadata id="CorelCorpID_0Corel-Layer"/>
  <g id="UCLA_x0020_Bruins.cdr">
   <path class="fil0" d="M1319.03 133.66l23.45 0c19.14,1.71 38.13,5.74 56.08,12.65 13.17,5.3 26.47,11.91 35.61,23.14 12.06,15.46 19.51,34.29 21.98,53.71 9.08,4.25 17.87,9.9 23.72,18.25 11.85,16.65 18.76,37.14 18.07,57.66 -3.64,28.49 -11.73,56.4 -23.85,82.47 -8.95,19.51 -18.99,38.52 -29.42,57.3 31.74,-1.38 64.54,7.89 88.4,29.41 16.17,-13.08 35.29,-22.88 55.67,-27.29 19.19,-3.63 41.46,-0.71 55.26,14.36 15.05,14.82 16.42,37.67 13.85,57.43 14.89,0.44 29.99,7.96 37.08,21.48 6.41,12.88 6.31,27.93 4.21,41.86 -2.51,17.31 -9.86,33.32 -16.08,49.51 -9.49,23.68 -18.93,47.39 -28.68,70.97 28.04,-9.9 59.17,-12.85 88.08,-5.1 25.94,7.64 51.03,20.02 70.26,39.39 15.25,15.23 27.29,33.71 34.7,53.97 1.99,4.9 2.85,10.69 7.34,14.1 29.53,27.08 44.16,67.37 45.24,106.85l0 52.83c-3.23,51.9 -17.91,103.48 -45.77,147.62 -14.43,23.33 -31.76,44.76 -50.82,64.41 -12.1,13.63 -27.13,24.12 -41.67,34.92 -36.03,26.26 -76.28,46.64 -118.73,60.31 -34.21,11.26 -69.57,18.76 -105.18,23.97 -31.38,4.89 -63.11,6.54 -94.58,10.59 -73.16,7.2 -146.65,9.7 -220.05,12.94 -98.46,4.22 -197.06,7.56 -295.11,17.89 -128.33,13.56 -256.18,31.91 -383.05,55.53 -36.51,7.28 -73.35,13.41 -109.13,23.91 -56.46,15.37 -113.27,29.39 -169.77,44.55 -18,5.24 -36.41,9.26 -55.08,11.09l-16.35 0c-11.64,-0.89 -24.24,-6.17 -29.3,-17.4 -5.76,-11.19 -2.65,-24.18 0.69,-35.61 -15.97,1.69 -33.35,1.96 -47.57,-6.62 -10.3,-5.9 -16.66,-17.03 -18.53,-28.54l0 -12.28c2.47,-20.35 12.44,-38.59 20.11,-57.29 39.06,-92.93 77.46,-186.13 117.6,-278.6 7.75,-17.52 15.12,-35.29 24.13,-52.22 14.21,-21.64 40.82,-30.17 64.89,-35.41 -22.28,-12.02 -40.6,-30.64 -54.34,-51.71 -4.67,-3.8 -10.53,-5.94 -15.33,-9.61 -16.67,-12.16 -31.75,-26.82 -43.14,-44.09 -17.1,-25.94 -23.17,-57.78 -21.61,-88.47 1.42,-38.93 12.51,-76.64 25.16,-113.23 22.23,-68.39 51.12,-134.31 80.53,-199.85 -8.37,-2.57 -16.56,-6.78 -22,-13.85 -8.53,-10.43 -11.44,-24.49 -9.88,-37.67 -19.9,2.77 -41.77,-5 -52.95,-22.25 -9.76,-13.9 -11.16,-31.7 -8.69,-48.07 4.23,-42.86 23.28,-84.97 55.71,-113.83 28.34,-25.48 65.62,-39.6 103.24,-43.49 33.58,-3.15 68.92,1.56 98.24,19.08 32.73,18.68 56.74,50.73 67.31,86.73 31.57,26.76 47.74,68.39 48.26,109.23 12.56,-36.46 25.3,-72.87 39.13,-108.89 5.59,-16.1 12.36,-32.29 23.88,-45.13 10.78,-12.23 25.87,-20.9 42.2,-22.7 20.2,-2.06 40.55,-4.05 60.86,-2.7 17.07,0.93 34.83,1.42 50.64,8.67 11.96,5.41 21.96,16.07 24.27,29.27 2.63,12.63 -2.91,24.73 -6.75,36.48 12.38,1.16 25.52,2.75 35.89,10.22 6.44,4.32 11.47,11.03 12.6,18.81 1.87,10.56 -3.62,20.33 -6.47,30.16 -14.44,45.88 -30.59,91.21 -46.85,136.46 26.05,-13.34 54.96,-20.29 84.05,-22.51 30.58,-3.52 62.67,4.25 87.61,22.44 22.52,16.56 37,42.33 42.72,69.43 13.7,-39.89 28.34,-79.47 44.26,-118.52 27.85,-67.81 62.6,-133.04 106.08,-192.17 12.34,-17.51 26.94,-33.46 43.91,-46.58 29.64,-23.24 66.1,-37.83 103.76,-40.37z"/>
   <path class="fil1" d="M557.71 1006.88l159.32 2.19 34.72 39 -17.68 62.59 -34.19 23.17 11.59 45.52 23.35 -2.13 -15.3 54.12 -106.01 15.8 15.42 -53.82 10.38 -1.96 -11.66 -35.5 -20.35 1.97 -10.99 38.97 13.04 -1.67 -15.71 55.21 -111.32 20.41 18.65 -65.01 19.44 -3.06 37.48 -132.07 -18.61 1.36 18.43 -65.09zm662.7 -819.09c39.21,-32.59 93.16,-47.93 143.36,-36.98 20.7,4.46 42.61,10.46 58.12,25.75 16.7,20.25 24.93,48.45 18.34,74.25 -6.36,38.49 -23.62,73.92 -41.94,107.97 -15.62,28.48 -31.11,57.11 -49.36,84.01 -36.28,53.29 -75.66,104.8 -121.04,150.72 -28.86,32.62 -59.42,63.72 -91.39,93.3 -3.05,2.38 -3.5,6.43 -4.56,9.88 -4.96,18.09 -10.49,36.45 -10.26,55.37 0.46,4.78 0.5,11.18 5.26,13.89 16.72,2.03 33.12,-3.48 48.28,-9.98 13.97,-6.42 27.75,-14.39 37.95,-26.1 1.87,-11.43 2.1,-23.1 4.04,-34.53 4.46,-34.49 18.27,-66.74 32.11,-98.31 12.76,-29.02 29.97,-56.44 53.3,-78.14 25.36,-23.36 54.5,-43.21 87,-55.2 26.71,-10.06 55.92,-13.12 84.15,-9.08 22.45,4.26 44.29,15.24 58.48,33.54 17.1,-17.34 39.18,-30.54 63.53,-34.15 13.91,-2.09 29.62,1.02 39.21,11.98 7.59,8.07 9.69,19.51 10.04,30.21 0.3,16.93 -4.4,33.49 -10.68,49.09 -21.53,54.91 -44.31,109.32 -65.88,164.22 -5.32,14.54 -10.93,29.11 -13.56,44.43 -0.52,4.93 -1.49,10.5 1.1,15.03 4.05,2.84 9.01,0.5 12.72,-1.78 14.09,-8.72 25.2,-21.32 38.93,-30.53 35.79,-25.83 81.32,-42.27 125.67,-33.12 26.86,6.72 52.88,19.57 72.1,39.86 21.2,21.98 33.5,51.4 37.71,81.4 4.62,53.57 2.19,108.8 -16.19,159.81 -16.33,46.04 -44.65,87.18 -78.89,121.74 -13.56,14.62 -30.03,26.03 -46.09,37.69 -41.83,29.74 -89.47,50.69 -139.01,63.81 -35.66,9.59 -72.2,15.68 -108.87,19.82 -18.36,2.1 -36.8,3.11 -55.09,5.69 -87.42,9.03 -175.36,11.27 -263.1,15.27 -87.39,3.73 -174.87,7.39 -261.88,16.63 -85.56,8.93 -170.85,20.41 -255.84,33.67 -67.88,10.75 -135.61,22.67 -202.8,37.19 -11.66,2.31 -22.96,6.06 -34.45,9.03 -46.42,12.59 -93.01,24.43 -139.53,36.58 -27.93,7.02 -55.52,16.44 -84.45,18.39 -10.63,0.43 -22.05,0.43 -31.4,-5.43 -8.85,-5.19 -12.92,-16.1 -11.71,-26.02 1.81,-18.96 11.44,-35.82 18.52,-53.14 30.59,-72.96 60.91,-146.03 91.86,-218.83 13.63,-31.9 27.08,-63.86 41.53,-95.4 4.01,-8.16 6.87,-17.29 13.84,-23.53 9.9,-8.87 22.41,-14.23 35.01,-18.07 22.56,-6.95 46.3,-8.03 69.7,-9.58 66.32,-3.59 132.7,-3.62 199.09,-4 47.94,0.63 95.91,0.22 143.8,3.17 96.77,5.52 193.19,15.88 289.67,24.86 88.14,7.89 176.34,15.01 264.62,21.11 36.21,2.39 72.43,4.81 108.71,6.14 71.77,3.45 143.68,-8.61 212.14,-29.78 14.11,-4.53 28.24,-9.17 41.85,-15.06 24.7,-12.02 43.39,-33.71 56.51,-57.42 12.58,-23.58 21.16,-50.69 17.07,-77.61 -1.78,-7.96 -3.21,-17.59 -10.94,-22.05 -9.44,-7.23 -22.46,-4.76 -31.95,0.99 -26.3,15.05 -48.17,36.5 -73.94,52.37 -29,19.31 -62.83,30.81 -97.39,34.49 -14.32,1.47 -29.28,0.76 -42.7,-4.84 -17.59,-8.33 -28.84,-26.56 -32.11,-45.36 -20.81,19.49 -44.78,36.66 -72.3,45.1 -18.82,6.06 -38.92,7.74 -58.53,5.83 -30.4,-5.74 -56.72,-28.08 -67.92,-56.85 -27.88,18.98 -57.67,35.7 -90.01,45.74 -29.87,9.28 -61.98,14.94 -93.04,8.6 -10.59,-2.58 -21.79,-5.1 -30.33,-12.28 -15.32,-11.3 -27.99,-26.26 -35.65,-43.76 -26.74,19.28 -55.69,35.96 -87.08,46.41 -36.71,12.74 -76.68,16.47 -115.01,9.7 -36.74,-8.26 -71.04,-28.07 -94.85,-57.52 -17.25,14.57 -35.61,28.13 -56.31,37.41 -26.3,14.99 -56.96,21.68 -87.12,20.68 -14.78,-0.37 -29.53,-4.21 -42.18,-11.96 -16.17,-9.77 -28.36,-25.12 -36.16,-42.16 -31.7,25.17 -67.77,46.62 -107.93,54.46 -29.62,5.81 -61.91,1.51 -87.25,-15.55 -24.18,-16.69 -44.92,-39.87 -54.26,-68.13 -7.63,-22.67 -7.8,-47.07 -5.33,-70.61 3.32,-31.54 12.68,-61.98 22.95,-91.85 22.13,-67.98 50.7,-133.59 80.11,-198.66 21.96,-48.9 42.84,-98.45 57.98,-149.95 2.86,-9.95 -1.99,-21.94 -11.89,-25.82 -10.61,-3.64 -23.72,-2.79 -32.38,4.92 -11.19,11.64 -16.49,27.24 -21.12,42.35 -4.06,15.17 -5.94,31.95 -16.48,44.37 -10.02,12.36 -28.28,15.58 -42.89,10.68 -13.41,-4.34 -23.29,-16.78 -25.59,-30.53 -1.88,-8.78 -0.3,-17.7 0.57,-26.49 4.48,-37.16 20.9,-73.52 48.62,-99.07 25.83,-24.34 60.52,-37.88 95.47,-41.84 34.31,-3.77 71.08,1.7 99.7,22.08 41.01,26.84 62.19,77.76 58.75,125.84 -2.3,28.38 -12.9,55.12 -22.27,81.74 -5.38,16.28 -12.79,31.77 -19.21,47.64 -25.85,61.96 -51.79,123.9 -76.94,186.18 -11.55,30.67 -22.76,62.23 -24.57,95.23 0.09,11.37 0.73,25.05 10.43,32.71 5.72,3.09 12.3,4.44 18.67,5.33 11.52,1.1 21.01,-7.18 28.15,-15.21 20.77,-24.68 32.09,-55.33 45.76,-84.13 29.19,-65.32 50.8,-133.65 77.22,-200.05 23.76,-68.28 46.73,-136.86 72.34,-204.47 5.76,-16.36 13.57,-32.92 27.43,-43.99 6.53,-5.12 14.29,-8.78 22.45,-10.31 28.84,-3.96 58.17,-4.6 87.1,-1.22 10.16,1.63 20.97,3.98 28.84,11.1 6.79,5.81 9.91,15.48 7.66,24.15 -16.69,53.48 -35.26,106.36 -54.16,159.1 -34.47,96.72 -71.01,192.73 -110.03,287.7 -7.23,19.1 -18.03,36.82 -23.2,56.7 -1.25,5.16 -2.17,11.04 0.69,15.83 3.53,3.06 8.07,-0.01 11.5,-1.67 12.68,-7.74 22.4,-19.33 31.39,-30.95 2.86,-3.04 2.86,-7.36 3.54,-11.21 4.48,-29.85 10.5,-59.67 21.37,-87.92 9.12,-25 20.3,-49.4 35.24,-71.49 18.84,-28 42.98,-52.47 70.99,-71.32 13.64,-9.49 28.34,-17.67 44.08,-23.12 22.77,-8.05 46.97,-11.34 71.03,-12.22 25.49,0.79 51.4,9.23 70.47,26.61 17.68,16.44 28.61,39.56 31.22,63.46 4.55,33.9 -10.82,69.81 -38.81,89.55 -14.96,10.95 -34.12,14.36 -52.29,13.92 -15.8,-0.13 -32.15,-4.36 -44.44,-14.65 -11.27,-10.25 -17.4,-25.76 -16.44,-40.95 0.32,-13.85 7.57,-26.32 16.12,-36.77 -22.45,15.64 -37.58,39.34 -49.79,63.35 -10.42,20.06 -19.25,41.45 -21.38,64.16 -1.85,17.22 0.37,34.63 4.59,51.35 3.69,14.06 15.51,24.97 29.26,29.04 22.78,6.86 47.53,3.84 69.55,-4.35 23.76,-9.62 47.48,-19.99 68.66,-34.58 6.15,-17.11 10.66,-34.85 16.38,-52.12 24.49,-78.5 50.57,-156.56 80.57,-233.13 25.58,-65.53 57.16,-128.97 96.98,-187.05 15.49,-22.5 31.29,-45.4 52.99,-62.44zm58.69 -17.56l0 0c-32.75,11.68 -61.3,34.03 -81.69,62.09 -22.15,29.53 -41.95,60.8 -59.77,93.12 -32.59,58.8 -56.97,121.65 -79.66,184.8 -25.96,72.2 -49.42,145.28 -71.41,218.77 -0.39,2.26 -2.74,3.18 -4.29,4.5 -20.59,14.21 -43.44,24.7 -66.45,34.27 -21.25,9.1 -44.81,13.1 -67.84,10.72 -17.72,-2.03 -35.77,-9.63 -46.58,-24.36 -9.91,-12.79 -11.71,-29.39 -13.77,-44.9 -3.91,-31.49 5.07,-63.07 18.96,-91.1 9.03,-18.63 19.25,-36.86 32.7,-52.71 13.13,-15.81 30.12,-29.09 50,-35.04 9.72,-2.79 21.3,-3.34 29.66,3.29 7.28,5.56 9.84,14.98 10.37,23.74 -9.58,-4.27 -20.52,-6.44 -30.77,-3.34 -23.16,6.87 -36.15,37.42 -22.98,58.3 6.42,12.95 21.57,17.59 34.9,19.22 18.37,1.75 38.38,-0.87 53.38,-12.42 16.29,-12.67 27.08,-31.89 30.6,-52.13 3.35,-26.19 -4.5,-54.21 -22.69,-73.62 -16.51,-17.89 -41.16,-26.19 -65.02,-27.03 -31.72,1.28 -64.18,6.76 -91.9,23.03 -29.82,17.67 -56.44,41 -76.75,69.16 -21.28,28.75 -35.18,62.14 -46.14,95.99 -7.98,25.25 -11.48,51.6 -16.21,77.54 -8.65,13.03 -19.12,25 -31.24,34.92 -7.83,5.83 -17.16,11.71 -27.34,10.41 -10.97,-2.52 -16.72,-14.69 -15.2,-25.25 2.19,-20.82 13.21,-39.14 21.29,-58.05 37.53,-91.1 72.87,-183.09 106.22,-275.81 19.76,-55.23 39.67,-110.42 57.29,-166.37 1.81,-6.84 7.34,-15.23 1.74,-21.66 -5.63,-5.44 -13.68,-7.2 -21.14,-8.57 -28.11,-3.53 -56.61,-2.77 -84.65,1.07 -10.72,1.99 -19.73,9.35 -25.7,18.23 -9.72,13.72 -13.66,30.31 -20.06,45.63 -18.59,50.13 -35.84,100.73 -53.39,151.22 -5.82,16.59 -11.04,33.38 -17.83,49.61 -23.54,61.1 -43.99,123.47 -70.54,183.41 -14,29.67 -25.8,60.96 -46.41,86.92 -8.18,9.64 -17.88,19.14 -30.55,22.2 -11.1,3.09 -22.51,-0.8 -33.01,-4.27 -10.56,-4.88 -16.92,-15.99 -19.21,-27.02 -3.61,-17.13 -0.96,-34.76 2.47,-51.69 8.37,-39.29 24.54,-76.23 39.69,-113.24 24.26,-59.03 48.83,-117.94 73.52,-176.77 10.39,-30.74 24,-61.2 25.94,-94 0.82,-21.38 -3.98,-42.79 -12.88,-62.19 -9.71,-21.43 -26.46,-39.4 -46.83,-51.07 -24.13,-15.12 -53.73,-18.05 -81.54,-15.83 -35.43,3.68 -70.88,17.84 -95.45,44.24 -25.57,26.96 -38.42,64.19 -39.68,100.91 0.07,10.43 5.4,21.72 15.74,25.41 9.93,3.52 23.03,2.4 29.69,-6.71 8.16,-11.23 9.39,-25.57 13.05,-38.58 4.39,-14.22 9.02,-28.72 18.3,-40.6 12.4,-19.94 42.4,-24.54 61.16,-11.3 11.66,8.47 16.99,24.57 12.72,38.36 -14.11,47.8 -32.96,94.03 -53.18,139.54 -27.79,62.07 -55.87,124.15 -77.97,188.53 -10.79,32.14 -22.67,64.2 -27.79,97.85 -4.25,27.14 -5.1,55.85 4.94,81.87 8.24,21.73 24.82,39.02 42.82,53.13 23.42,17.44 54.52,22.05 82.68,15.9 44.05,-9.28 82.18,-35.38 115.71,-64.36 6.06,27.08 24.52,53 52.05,61.09 24.68,6.32 50.89,2.7 74.88,-4.83 12.1,-3.61 22.83,-10.36 34.18,-15.68 20.78,-10.78 38.67,-26.1 56.46,-41.11 14.02,21.05 33.01,39.12 55.95,50.1 15.41,7.45 31.67,13.9 48.83,15.69 36.57,4.78 74.1,-0.97 108.3,-14.48 32.15,-12.35 61.36,-31.25 88.37,-52.42 5.58,24.99 21.78,47.29 43.94,60.13 10.86,4.64 22.69,6.61 34.42,7.45 34.51,1.58 68.45,-8.39 99.77,-22.14 26.34,-12.46 51.43,-27.76 73.96,-46.29 -0.64,11.78 2.75,23.54 9.22,33.37 10.89,16.95 28.15,30.35 47.96,34.9 31.27,4 63.68,-4.18 89.8,-21.71 20.67,-13.12 37.71,-30.85 55.37,-47.55 -2.08,15.35 -1.78,31.71 5.19,45.86 5.22,10.13 14.2,19.08 25.62,21.57 15.3,3.75 31.24,1.56 46.5,-1.28 21.65,-4.5 43.04,-11.34 62.02,-22.85 24.95,-13.91 46.45,-32.89 69.65,-49.36 11.23,-7.54 22.96,-15.66 36.73,-17.38 10.63,-1.57 21.52,2.26 29.62,9.13 7.57,5.55 10.34,15.05 12.49,23.74 5.24,23.1 0.95,47.36 -7.09,69.32 -11.85,31.4 -32.48,60.11 -60.73,78.68 -10.5,7.05 -22.43,11.44 -34.3,15.62 -52.8,18.3 -107.73,30.83 -163.42,35.98 -37.33,3.8 -74.89,1.99 -112.26,-0.05 -93.02,-5.24 -185.88,-12.78 -278.71,-20.51 -94.83,-7.74 -189.4,-18.48 -284.3,-25.62 -58.52,-4.82 -117.23,-7.13 -175.93,-7.14 -75.91,-0.09 -151.84,-0.31 -227.68,3.64 -28.18,1.85 -57.46,2.82 -83.41,15.24 -7.44,3.84 -15.38,8.59 -18.92,16.58 -21.11,45.4 -40.28,91.67 -59.88,137.73 -30.07,70.88 -59.31,142.08 -89.51,212.91 -3.58,10.16 -9.15,21.34 -5.24,32.23 3.98,7.27 13.51,7.18 20.72,7.7 25.84,-0.4 50.7,-8.34 75.47,-14.86 60.16,-15.8 120.47,-31.01 180.42,-47.6 108.41,-23.58 218.08,-40.92 327.97,-55.94 86.94,-11.6 174.17,-21.77 261.79,-26.67 96,-5.62 192.15,-8.28 288.18,-13.33 44.2,-2.5 88.45,-5.04 132.38,-10.78 66.66,-5.42 133.83,-15.55 196.34,-40.3 42.45,-16.58 81.06,-41.67 116.07,-70.6 35.06,-33.99 65.48,-73.88 83,-119.83 19.58,-50.57 22.57,-105.98 17.95,-159.53 -2.9,-20.47 -9.6,-40.69 -21.2,-57.93 -13.03,-20.15 -32.89,-35.29 -55.05,-44.18 -14.07,-6.41 -29.46,-10.16 -44.99,-9.75 -34.12,-0.46 -66.35,14.46 -93.65,33.87 -12.93,8.85 -23.52,20.7 -36.71,29.19 -7.53,4.89 -17.36,8.09 -26.05,4.37 -8.29,-3.41 -11.79,-13.07 -11.38,-21.46 0.81,-18.5 7.76,-35.9 13.8,-53.17 21.2,-54.23 43.71,-107.93 65.07,-162.09 7.55,-18.42 14.15,-38.31 10.96,-58.46 -1.26,-9.87 -9.68,-18.3 -19.59,-19.35 -14.1,-2.5 -27.97,3.04 -40.38,9.17 -16.11,8.48 -31.11,20.76 -39.48,37.23 -3.39,-7.71 -6.88,-15.6 -12.84,-21.7 -16.67,-17.75 -41.62,-26.1 -65.63,-25.87 -35.13,-1.05 -69.05,11.96 -98.53,30.19 -26.84,17.41 -52.08,38.45 -69.81,65.39 -16.19,24.54 -27.13,52.01 -37.94,79.2 -11.72,29.21 -17.27,60.68 -18.1,92.06 -13.51,18.74 -34.65,30.31 -55.73,38.7 -15.17,5.58 -31.63,9.97 -47.85,7.21 -10.68,-2.45 -15.67,-13.93 -16.2,-23.91 -1.5,-24.54 6.45,-48.28 13.06,-71.58 0.62,-3.69 4.07,-5.65 6.52,-8.1 23.93,-22.16 47.12,-45.12 69.26,-69.1 12.35,-13.15 23.9,-27.05 36.89,-39.59 37.33,-40.29 70.6,-84.19 101.64,-129.43 19.15,-27.9 35.23,-57.73 51.47,-87.37 17.47,-32.48 33.8,-66.32 39.72,-103.04 5.33,-19.48 -0.73,-40.32 -11.39,-56.88 -4.09,-6.81 -11.05,-11.02 -17.97,-14.47 -36.69,-16.91 -80.01,-19.86 -118.14,-5.88zm-120.82 400.39c3.1,-13.84 7.27,-26.94 12.02,-39.82 24.4,-66.81 52.38,-132.61 88.68,-193.9 18.11,-30.56 38.49,-59.7 59.35,-88.41 7.87,-9.12 16.28,-18.66 27.54,-23.57 5.64,-2.68 13.26,-1.9 16.94,3.59 4.74,7.82 4.16,17.49 2.27,26.09 -2.15,10.34 -6.38,20.18 -11.55,29.37 -32.98,59.76 -63.74,121.13 -104.2,176.36 -27.25,38.93 -57.91,75.28 -91.05,110.29zm170.39 -311.6l0 0c-16.38,22.82 -32.69,45.72 -47.56,69.57 -23.87,38.01 -44.14,78.16 -62.14,119.23 -8.48,20.15 -17.58,40.16 -24.44,60.93 31.97,-40.48 62.71,-82.15 88.25,-127.05 19.49,-33.5 37.83,-67.65 56.36,-101.67 7.3,-12.73 13.79,-26.94 12.63,-41.98 -9.33,4.91 -16.59,12.85 -23.1,20.97zm118.97 270.27c13.25,-3.91 28.68,-0.68 38.25,9.56 5.76,5.44 7.22,13.75 7.2,21.34 -0.46,15.62 -5.13,30.85 -11.87,44.87 -14.94,33.46 -27.22,68.07 -42.82,101.26 -11.32,22.62 -21.86,46.54 -40.21,64.5 -9.47,9.55 -23.67,15.5 -37.07,11.77 -13.11,-4.23 -21.25,-16.87 -25.29,-29.39 -7.44,-23.97 -6.68,-50.02 -0.01,-74.1 12.36,-51.23 40.12,-99.29 80.49,-133.5 8.88,-7.98 19.76,-13.43 31.33,-16.31zm3.59 14.02l0 0c-15.53,3.41 -27.46,14.52 -38.42,25.34 -35.36,35.36 -58.16,82.39 -66.65,131.51 -2.1,18.14 -1.56,37.29 5.81,54.28 3.18,6.82 8.55,14.29 16.76,14.84 10.11,0.41 18.07,-7 24.32,-14.08 13.51,-16.08 22.39,-35.28 31.63,-53.98 16.7,-35.07 29.34,-71.93 45.6,-107.2 5.34,-13.08 10.19,-27.63 7.28,-41.84 -4.82,-9.1 -16.95,-11.75 -26.33,-8.87zm-208.83 576.56l-7.48 36.93 24.26 -0.99 -6.24 34.24 -109.12 3.98 8.41 -36.38 19.86 -0.44 16.88 -75.91 -19.42 -1.01 7.77 -36.2 92.45 7.24 51.83 62.52 8.8 0 4.26 -32.58 -21.77 -0.64 4.86 -29.68 98.17 1.39 -3.47 30.56 -16.5 0.11 -11.93 100.98 -2.79 4.65 -66.01 5.33 -66.01 -73.93 -6.81 -0.17zm-212 -44.16l10.7 -40.04 113.99 5.28 -8.89 40.67 -19.36 -0.46 -19.3 81.81 19.72 -0.52 -8.76 37.58 -120.95 3.31 11.12 -41.97 20.12 -0.75 20.95 -83.8 -19.34 -1.11zm462.69 -33.93l90.91 -13.22 39.27 5.25 0 14.73 -72.7 18.85 1.03 -6.17 -43.3 6.45 -0.67 22 86.58 -15.33 30.37 2.95 -0.51 33.08 -13.31 18.73 -32.11 23.44 -105.05 18.74 -7.57 -1.4 -39.18 -13.27 2.06 -18.96 76.16 -7.11 -0.78 9.65 44.26 -7.27 0.96 -25.78 -85.13 10.5 -32.52 -12.31 2.89 -35.47 2.21 -5.9 39.59 -19.1 16.54 -3.08zm-713.8 24.74l14.93 -53.45 100.61 9.58 -12.11 42.82 -10.98 -0.27 -28.91 104.24 42.04 -2.6 27.19 -100.23 -10.52 -0.25 10.66 -43.06 107.54 10.52 -11 40.34 -21.36 -0.98 -26.6 102.28 -57.18 35.38 -100.07 10.59 -39.16 -32.2 34.22 -122.16 -19.3 -0.55zm-288.2 -57.84l30.51 45.79 -19.49 67.59 -18.16 16.28 9.72 14.5 -21.61 74.75 -52.27 48.42 -15.05 11.38 -161.81 41.42 21.36 -75.4 18.64 -4.55 43.54 -154.02 -18.38 2.9 22.23 -80.21 160.77 -8.85zm-89.75 75.94l-9.88 35.77 39.31 -5.29 10.02 -34.88 -39.45 4.4zm-29.48 104.13l-11.86 42.7 39.62 -7.89 12.35 -41.86 -40.11 7.05zm261.46 -121.31l-8.9 31.15 39.34 -1.92 8.85 -30.12 -39.29 0.89z"/>
   <path class="fil2" d="M223.78 1133.56c-30.07,70.88 -59.31,142.08 -89.51,212.91 -3.58,10.16 -9.15,21.34 -5.24,32.23 3.98,7.27 13.51,7.18 20.72,7.7 25.84,-0.4 50.7,-8.34 75.47,-14.86 60.16,-15.8 120.47,-31.01 180.42,-47.6 108.41,-23.58 218.08,-40.92 327.97,-55.94 86.94,-11.6 174.17,-21.77 261.79,-26.67 96,-5.62 192.15,-8.28 288.18,-13.33 44.2,-2.5 88.45,-5.04 132.38,-10.78 66.66,-5.42 133.83,-15.55 196.34,-40.3 42.45,-16.58 81.06,-41.67 116.07,-70.6 35.06,-33.99 65.48,-73.88 83,-119.83 19.58,-50.57 22.57,-105.98 17.95,-159.53 -2.9,-20.47 -9.6,-40.69 -21.2,-57.93 -13.03,-20.15 -32.89,-35.29 -55.05,-44.18 -14.07,-6.41 -29.46,-10.16 -44.99,-9.75 -34.12,-0.46 -66.35,14.46 -93.65,33.87 -12.93,8.85 -23.52,20.7 -36.71,29.19 -7.53,4.89 -17.36,8.09 -26.05,4.37 -8.29,-3.41 -11.79,-13.07 -11.38,-21.46 0.81,-18.5 7.76,-35.9 13.8,-53.17 21.2,-54.23 43.71,-107.93 65.07,-162.09 7.55,-18.42 14.15,-38.31 10.96,-58.46 -1.26,-9.87 -9.68,-18.3 -19.59,-19.35 -14.1,-2.5 -27.97,3.04 -40.38,9.17 -16.11,8.48 -31.11,20.76 -39.48,37.23 -3.39,-7.71 -6.88,-15.6 -12.84,-21.7 -16.67,-17.75 -41.62,-26.1 -65.63,-25.87 -35.13,-1.05 -69.05,11.96 -98.53,30.19 -26.84,17.41 -52.08,38.45 -69.81,65.39 -16.19,24.54 -27.13,52.01 -37.94,79.2 -11.72,29.21 -17.27,60.68 -18.1,92.06 -13.51,18.74 -34.65,30.31 -55.73,38.7 -15.17,5.58 -31.63,9.97 -47.85,7.21 -10.68,-2.45 -15.67,-13.93 -16.2,-23.91 -1.5,-24.54 6.45,-48.28 13.06,-71.58 0.62,-3.69 4.07,-5.65 6.52,-8.1 23.93,-22.16 47.12,-45.12 69.26,-69.1 12.35,-13.15 23.9,-27.05 36.89,-39.59 37.33,-40.29 70.6,-84.19 101.64,-129.43 19.15,-27.9 35.23,-57.73 51.47,-87.37 17.47,-32.48 33.8,-66.32 39.72,-103.04 5.33,-19.48 -0.73,-40.32 -11.39,-56.88 -4.09,-6.81 -11.05,-11.02 -17.97,-14.47 -36.69,-16.91 -80.01,-19.86 -118.14,-5.88 -32.75,11.68 -61.3,34.03 -81.69,62.09 -22.15,29.53 -41.95,60.8 -59.77,93.12 -32.59,58.8 -56.97,121.65 -79.66,184.8 -25.96,72.2 -49.42,145.28 -71.41,218.77 -0.39,2.26 -2.74,3.18 -4.29,4.5 -20.59,14.21 -43.44,24.7 -66.45,34.27 -21.25,9.1 -44.81,13.1 -67.84,10.72 -17.72,-2.03 -35.77,-9.63 -46.58,-24.36 -9.91,-12.79 -11.71,-29.39 -13.77,-44.9 -3.91,-31.49 5.07,-63.07 18.96,-91.1 9.03,-18.63 19.25,-36.86 32.7,-52.71 13.13,-15.81 30.12,-29.09 50,-35.04 9.72,-2.79 21.3,-3.34 29.66,3.29 7.28,5.56 9.84,14.98 10.37,23.74 -9.58,-4.27 -20.52,-6.44 -30.77,-3.34 -23.16,6.87 -36.15,37.42 -22.98,58.3 6.42,12.95 21.57,17.59 34.9,19.22 18.37,1.75 38.38,-0.87 53.38,-12.42 16.29,-12.67 27.08,-31.89 30.6,-52.13 3.35,-26.19 -4.5,-54.21 -22.69,-73.62 -16.51,-17.89 -41.16,-26.19 -65.02,-27.03 -31.72,1.28 -64.18,6.76 -91.9,23.03 -29.82,17.67 -56.44,41 -76.75,69.16 -21.28,28.75 -35.18,62.14 -46.14,95.99 -7.98,25.25 -11.48,51.6 -16.21,77.54 -8.65,13.03 -19.12,25 -31.24,34.92 -7.83,5.83 -17.16,11.71 -27.34,10.41 -10.97,-2.52 -16.72,-14.69 -15.2,-25.25 2.19,-20.82 13.21,-39.14 21.29,-58.05 37.53,-91.1 72.87,-183.09 106.22,-275.81 19.76,-55.23 39.67,-110.42 57.29,-166.37 1.81,-6.84 7.34,-15.23 1.74,-21.66 -5.63,-5.44 -13.68,-7.2 -21.14,-8.57 -28.11,-3.53 -56.61,-2.77 -84.65,1.07 -10.72,1.99 -19.73,9.35 -25.7,18.23 -9.72,13.72 -13.66,30.31 -20.06,45.63 -18.59,50.13 -35.84,100.73 -53.39,151.22 -5.82,16.59 -11.04,33.38 -17.83,49.61 -23.54,61.1 -43.99,123.47 -70.54,183.41 -14,29.67 -25.8,60.96 -46.41,86.92 -8.18,9.64 -17.88,19.14 -30.55,22.2 -11.1,3.09 -22.51,-0.8 -33.01,-4.27 -10.56,-4.88 -16.92,-15.99 -19.21,-27.02 -3.61,-17.13 -0.96,-34.76 2.47,-51.69 8.37,-39.29 24.54,-76.23 39.69,-113.24 24.26,-59.03 48.83,-117.94 73.52,-176.77 10.39,-30.74 24,-61.2 25.94,-94 0.82,-21.38 -3.98,-42.79 -12.88,-62.19 -9.71,-21.43 -26.46,-39.4 -46.83,-51.07 -24.13,-15.12 -53.73,-18.05 -81.54,-15.83 -35.43,3.68 -70.88,17.84 -95.45,44.24 -25.57,26.96 -38.42,64.19 -39.68,100.91 0.07,10.43 5.4,21.72 15.74,25.41 9.93,3.52 23.03,2.4 29.69,-6.71 8.16,-11.23 9.39,-25.57 13.05,-38.58 4.39,-14.22 9.02,-28.72 18.3,-40.6 12.4,-19.94 42.4,-24.54 61.16,-11.3 11.66,8.47 16.99,24.57 12.72,38.36 -14.11,47.8 -32.96,94.03 -53.18,139.54 -27.79,62.07 -55.87,124.15 -77.97,188.53 -10.79,32.14 -22.67,64.2 -27.79,97.85 -4.25,27.14 -5.1,55.85 4.94,81.87 8.24,21.73 24.82,39.02 42.82,53.13 23.42,17.44 54.52,22.05 82.68,15.9 44.05,-9.28 82.18,-35.38 115.71,-64.36 6.06,27.08 24.52,53 52.05,61.09 24.68,6.32 50.89,2.7 74.88,-4.83 12.1,-3.61 22.83,-10.36 34.18,-15.68 20.78,-10.78 38.67,-26.1 56.46,-41.11 14.02,21.05 33.01,39.12 55.95,50.1 15.41,7.45 31.67,13.9 48.83,15.69 36.57,4.78 74.1,-0.97 108.3,-14.48 32.15,-12.35 61.36,-31.25 88.37,-52.42 5.58,24.99 21.78,47.29 43.94,60.13 10.86,4.64 22.69,6.61 34.42,7.45 34.51,1.58 68.45,-8.39 99.77,-22.14 26.34,-12.46 51.43,-27.76 73.96,-46.29 -0.64,11.78 2.75,23.54 9.22,33.37 10.89,16.95 28.15,30.35 47.96,34.9 31.27,4 63.68,-4.18 89.8,-21.71 20.67,-13.12 37.71,-30.85 55.37,-47.55 -2.08,15.35 -1.78,31.71 5.19,45.86 5.22,10.13 14.2,19.08 25.62,21.57 15.3,3.75 31.24,1.56 46.5,-1.28 21.65,-4.5 43.04,-11.34 62.02,-22.85 24.95,-13.91 46.45,-32.89 69.65,-49.36 11.23,-7.54 22.96,-15.66 36.73,-17.38 10.63,-1.57 21.52,2.26 29.62,9.13 7.57,5.55 10.34,15.05 12.49,23.74 5.24,23.1 0.95,47.36 -7.09,69.32 -11.85,31.4 -32.48,60.11 -60.73,78.68 -10.5,7.05 -22.43,11.44 -34.3,15.62 -52.8,18.3 -107.73,30.83 -163.42,35.98 -37.33,3.8 -74.89,1.99 -112.26,-0.05 -93.02,-5.24 -185.88,-12.78 -278.71,-20.51 -94.83,-7.74 -189.4,-18.48 -284.3,-25.62 -58.52,-4.82 -117.23,-7.13 -175.93,-7.14 -75.91,-0.09 -151.84,-0.31 -227.68,3.64 -28.18,1.85 -57.46,2.82 -83.41,15.24 -7.44,3.84 -15.38,8.59 -18.92,16.58 -21.11,45.4 -40.28,91.67 -59.88,137.73zm175.84 90l12.35 -41.86 -40.11 7.05 -11.86 42.7 39.62 -7.89zm233.7 -156.12l-8.9 31.15 39.34 -1.92 8.85 -30.12 -39.29 0.89zm-231.98 17.18l-9.88 35.77 39.31 -5.29 10.02 -34.88 -39.45 4.4zm-118.41 164.24l43.54 -154.02 -18.38 2.9 22.23 -80.21 160.77 -8.85 30.51 45.79 -19.49 67.59 -18.16 16.28 9.72 14.5 -21.61 74.75 -52.27 48.42 -15.05 11.38 -161.81 41.42 21.36 -75.4 18.64 -4.55zm256.35 -176.89l18.43 -65.09 159.32 2.19 34.72 39 -17.68 62.59 -34.19 23.17 11.59 45.52 23.35 -2.13 -15.3 54.12 -106.01 15.8 15.42 -53.82 10.38 -1.96 -11.66 -35.5 -20.35 1.97 -10.99 38.97 13.04 -1.67 -15.71 55.21 -111.32 20.41 18.65 -65.01 19.44 -3.06 37.48 -132.07 -18.61 1.36zm619 -501.35c5.67,-12.53 7.27,-26.94 12.02,-39.82 24.4,-66.81 52.38,-132.61 88.68,-193.9 18.11,-30.56 38.49,-59.7 59.35,-88.41 7.87,-9.12 16.28,-18.66 27.54,-23.57 5.64,-2.68 13.26,-1.9 16.94,3.59 4.74,7.82 4.16,17.49 2.27,26.09 -2.15,10.34 -6.38,20.18 -11.55,29.37 -32.98,59.76 -63.74,121.13 -104.2,176.36 -27.25,38.93 -60.47,73.97 -91.05,110.29zm177.54 108.48c12.36,-51.23 40.12,-99.29 80.49,-133.5 8.88,-7.98 19.76,-13.43 31.33,-16.31 13.25,-3.91 28.68,-0.68 38.25,9.56 5.76,5.44 7.22,13.75 7.2,21.34 -0.46,15.62 -5.13,30.85 -11.87,44.87 -14.94,33.46 -27.22,68.07 -42.82,101.26 -11.32,22.62 -21.86,46.54 -40.21,64.5 -9.47,9.55 -23.67,15.5 -37.07,11.77 -13.11,-4.23 -21.25,-16.87 -25.29,-29.39 -7.44,-23.97 -6.68,-50.02 -0.01,-74.1zm-571.45 510.13l34.22 -122.16 -19.3 -0.55 14.93 -53.45 100.61 9.58 -12.11 42.82 -10.98 -0.27 -28.91 104.24 42.04 -2.6 27.19 -100.23 -10.52 -0.25 10.66 -43.06 107.54 10.52 -11 40.34 -21.36 -0.98 -26.6 102.28 -57.18 35.38 -100.07 10.59 -39.16 -32.2zm264.42 -28.61l20.95 -83.8 -19.34 -1.11 10.7 -40.04 113.99 5.28 -8.89 40.67 -19.36 -0.46 -19.3 81.81 19.72 -0.52 -8.76 37.58 -120.95 3.31 11.12 -41.97 20.12 -0.75zm143.3 -3.41l16.88 -75.91 -19.42 -1.01 7.77 -36.2 92.45 7.24 51.83 62.52 8.8 0 4.26 -32.58 -21.77 -0.64 4.86 -29.68 98.17 1.39 -3.47 30.56 -16.5 0.11 -11.93 100.98 -2.79 4.65 -66.01 5.33 -66.01 -73.93 -6.81 -0.17 -7.48 36.93 24.26 -0.99 -6.24 34.24 -109.12 3.98 8.41 -36.38 19.86 -0.44zm264.87 -93.25l39.59 -19.1 16.54 -3.08 90.91 -13.22 39.27 5.25 0 14.73 -72.7 18.85 1.03 -6.17 -43.3 6.45 -0.67 22 86.58 -15.33 30.37 2.95 -0.51 33.08 -13.31 18.73 -32.11 23.44 -105.05 18.74 -7.57 -1.4 -39.18 -13.27 2.06 -18.96 76.16 -7.11 -0.78 9.65 44.26 -7.27 0.96 -25.78 -85.13 10.5 -32.52 -12.31 2.89 -35.47 2.21 -5.9z"/>
  </g>
 </g>
</svg>
