<?xml version="1.0" encoding="UTF-8"?>
<!DOCTYPE svg PUBLIC "-//W3C//DTD SVG 1.1//EN" "http://www.w3.org/Graphics/SVG/1.1/DTD/svg11.dtd">
<!-- Creator: CorelDRAW -->
<svg xmlns="http://www.w3.org/2000/svg" xml:space="preserve" width="2000px" height="1600px" version="1.1" style="shape-rendering:geometricPrecision; text-rendering:geometricPrecision; image-rendering:optimizeQuality; fill-rule:evenodd; clip-rule:evenodd"
viewBox="0 0 2000 1600"
 xmlns:xlink="http://www.w3.org/1999/xlink">
 <defs>
  <style type="text/css">
   <![CDATA[
    .fil0 {fill:#EB3642}
    .fil1 {fill:#001341;fill-rule:nonzero}
    .fil2 {fill:#FEFEFE;fill-rule:nonzero}
   ]]>
  </style>
 </defs>
 <g id="Capa_x0020_1">
  <metadata id="CorelCorpID_0Corel-Layer"/>
  <g id="UConn_x0020_Huskies.cdr">
   <path class="fil0" d="M1071.57 1039.09c23.91,5.97 47.37,14.27 68.71,26.74l4.32 2.52 0 5c-0.02,82.24 -0.04,164.49 0.01,246.74l0.01 5.07 -4.41 2.5c-31.13,17.69 -66.08,28.09 -101.58,32.09 -58.49,6.58 -119.75,-2.96 -171.25,-32.28l-4.39 -2.51 -0.01 -5.05c-0.01,-82.14 0.04,-164.27 -0.03,-246.4l0 -5.06 4.38 -2.5c21.34,-12.21 44.59,-21.1 68.58,-26.43 -4.43,-3.53 -8.66,-7.3 -12.67,-11.26 -19.04,-18.82 -34.24,-41.45 -44.87,-65.99l-0.12 -0.27 -0.1 -0.27c-0.09,-0.28 -0.25,-0.49 -0.45,-0.71 -1.02,-1.1 -3.04,-2.19 -4.34,-2.92 -2.18,-1.23 -4.31,-2.44 -6.28,-3.97 -51,-34.75 -91.44,-82.75 -124.63,-134.32 -2.87,-4.46 -5.7,-8.95 -8.43,-13.49 -1.39,4.34 -2.76,8.69 -4.14,13.03l-6.04 19 -9.83 -17.34c-20.88,-36.84 -38.21,-75.6 -53.51,-115.06 -19.47,-50.25 -36.53,-101.47 -50.52,-153.53l-0.96 -3.58 1.92 -3.17c19.99,-33.16 43.44,-64.18 69.32,-92.97 -2.19,-1.18 -4.39,-2.36 -6.58,-3.55l-7.13 -3.88 3.36 -7.38c9.28,-20.4 21.01,-39.59 33.9,-57.9l0.12 -0.18 0.14 -0.17c2.05,-2.64 2.4,-10.76 3.1,-14.39 11.81,-72.43 32.55,-144.59 71.48,-207.38 17.23,-27.78 37.85,-53.99 64.4,-73.43l5.81 -4.26 5.27 4.92c40.2,37.5 66.44,87.94 80.48,140.72 34.47,-2.97 69,-6.07 103.56,-2.53 11.43,0.41 22.82,1.48 34.21,2.43 14,-52.76 40.36,-103.1 80.37,-140.72l5.31 -5 5.85 4.36c27.18,20.26 48.43,47.27 65.93,76.06 38.11,62.68 58.56,134.34 70.12,206.31 0.41,2.02 0.61,4.05 0.84,6.1 0.17,1.56 0.43,4.68 1.47,5.98l0.14 0.17 0.13 0.18c13.26,18.43 24.79,38.08 34.56,58.57l3.61 7.58 -7.44 3.88c-2.22,1.16 -4.43,2.34 -6.64,3.52 25.75,28.85 49.51,59.6 69.17,92.94l1.77 2.99 -0.78 3.39c-6.04,26.24 -14.84,51.69 -22.89,77.36l-0.05 0.16c-22.01,65.72 -46.67,130.94 -80.93,191.39l-10.05 17.74 -5.86 -19.53c-1.3,-4.34 -2.7,-8.64 -4.12,-12.94 -28.05,46.55 -62.03,89.8 -103.29,125.33 -12.62,10.87 -26.14,20.71 -40.37,29.36 -12.57,29.31 -31.47,56.02 -55.82,76.7l-0.13 0.11c-0.57,0.46 -1.14,0.92 -1.71,1.38zm-125.04 74.57c-0.02,55.33 0,110.66 -0.02,165.99 37.45,9.96 77.6,9.94 115.04,-0.07 0.02,-55.24 -0.05,-110.48 0.02,-165.72 -37.4,-9.96 -77.64,-10.22 -115.04,-0.2zm-310.58 0.16c0.09,55.28 0.06,110.55 0.02,165.83 37.11,10.04 76.99,9.86 114.16,0.1 0,-16.51 -0.01,-33.02 -0.01,-49.53l0 -8.7 8.71 0c22.14,0 44.28,-0.02 66.42,0.01l8.67 0.02 0.02 8.67c0.07,29.83 -0.07,59.66 0.07,89.49l0.02 5.02 -4.34 2.53c-30.77,17.96 -65.61,28.24 -100.89,32.38 -58.65,6.88 -119.99,-2.86 -171.77,-31.96l-4.42 -2.48 -0.02 -5.06c-0.38,-81.97 0.09,-163.94 -0.23,-245.91l-0.01 -4.95 4.25 -2.55c33.01,-19.77 70.91,-30.46 109.1,-33.83 56.26,-4.95 114.84,4.83 163.95,33.58l4.31 2.52 0 4.99c-0.02,25.65 0.02,51.3 -0.02,76.94l-0.01 8.69 -8.69 0c-22.13,0.02 -44.27,0.02 -66.4,0l-8.69 0 -0.01 -8.69c-0.02,-12.42 -0.03,-24.84 -0.01,-37.27 -37.16,-9.72 -77.1,-9.97 -114.18,0.16zm917.63 48.27c-0.16,60.73 0.05,121.45 -0.06,182.18l-0.01 8.68 -8.69 0.01c-19.89,0.01 -39.79,0.01 -59.68,0l-8.7 -0.01 0 -8.7c-0.02,-98.39 -0.02,-196.78 -0.02,-295.17l0 -8.73 8.73 0.03c23.69,0.07 47.37,-0.16 71.06,0.12l4.77 0.06 2.52 4.06c31.47,50.76 63.17,101.38 94.93,151.95 6.99,11.14 13.88,22.34 20.87,33.47 0.27,-60.33 -0.09,-120.67 0.07,-181l0.02 -8.66 8.66 -0.02c20.01,-0.05 40.01,0.16 60.02,-0.1l8.78 -0.12 0.04 8.78c0.43,98.44 0.08,196.88 0.17,295.32l0.01 8.76 -8.75 -0.04c-23.62,-0.11 -47.24,0.26 -70.86,-0.18l-4.74 -0.09 -2.49 -4.02c-38.66,-62.34 -77.79,-124.38 -116.65,-186.58zm-1227.18 117.71c18.31,5.87 37.21,10.87 56.49,11.35 19.8,-0.11 39.28,-5.32 58.11,-11.28 -0.02,-76.93 -0.02,-153.86 0,-230.79l0 -8.7 8.7 0c22.04,0 44.08,-0.02 66.13,0l8.69 0 0 8.7c0.02,90.14 -0.01,180.28 0.02,270.42l0 4.97 -4.28 2.53c-32.93,19.44 -70.5,30.4 -108.47,33.93 -56.54,5.26 -115.37,-5.01 -164.61,-34.03l-4.29 -2.53 0 -4.98c0.09,-90.1 0,-180.21 0.04,-270.31l0 -8.7 8.7 0c22.04,-0.02 44.08,0 66.12,0l8.71 0 -0.01 8.71c-0.03,76.9 0.1,153.81 -0.05,230.71zm1047.2 -49.43c0.28,-60.44 -0.09,-120.87 0.06,-181.31l0.02 -8.67 8.68 -0.01c20.02,-0.02 40.04,0 60.06,0l8.7 0 0 8.7c0,98.4 0.02,196.79 0,295.19l0 8.7 -8.7 0c-23.5,0 -47,-0.03 -70.5,0.02l-4.83 0.01 -2.57 -4.09c-39.1,-62.35 -78.1,-124.77 -117.14,-187.16 -0.16,60.85 0.05,121.69 -0.04,182.53l-0.01 8.69 -8.69 0c-19.94,0 -39.87,0 -59.8,-0.01l-8.7 -0.01 0 -8.7c-0.02,-98.38 -0.04,-196.77 0,-295.15l0 -8.69 8.68 -0.02c23.66,-0.05 47.31,0.02 70.96,-0.03l4.83 -0.01 2.57 4.09c38.84,61.95 77.63,123.94 116.42,185.93z"/>
   <path class="fil1" d="M1297.77 1443.74c15.45,-5.94 33.77,-2.82 47.04,6.93 -3.48,5.11 -7.1,10.12 -10.62,15.19 -7.98,-4.82 -18.29,-10.12 -27.56,-5.99 -3.43,2.58 -1.35,7.16 2.22,8.22 10.93,4.01 23.91,4.32 32.74,12.84 9.88,10.59 4.98,29.9 -8.25,35.35 -17.65,7.42 -38.88,2.81 -53.54,-8.98 3.95,-4.79 7.95,-9.55 11.94,-14.32 8.33,6.1 18.85,10.85 29.37,8.66 4.39,-0.44 5.85,-7.23 1.55,-8.85 -11.24,-5.3 -25.66,-4.55 -34.59,-14.3 -9.32,-10.99 -3.66,-29.86 9.7,-34.75zm-511.72 -1281.29c16.81,-26.66 36.52,-52.23 62.14,-70.99 40.78,38.04 66.69,89.94 79.81,143.66 36.4,-3.08 73.07,-6.92 109.57,-3.14 13.85,0.47 27.63,1.95 41.44,3 13.06,-53.7 39.12,-105.48 79.7,-143.64 26.26,19.58 46.61,45.93 63.69,73.6 37.35,61.84 57.62,132.45 68.99,203.35 1.12,5.35 0.47,11.44 4.08,15.96 12.96,18.01 24.23,37.2 33.77,57.23 -5.54,2.89 -11.02,5.87 -16.51,8.83 28.22,30.79 54.34,63.76 75.57,99.77 -5.97,25.95 -14.73,51.27 -22.71,76.7 -21.82,65.18 -46.28,129.94 -80.24,189.87 -3.19,-10.63 -6.98,-21.04 -10.17,-31.67 -29.35,52.1 -65.86,100.78 -111.26,139.97 -13.01,11.11 -26.91,21.21 -41.61,29.96 -12.02,29.07 -30.5,55.64 -54.54,76.06 -18.39,15.03 -40.63,26.16 -64.41,28.81 -28.14,-3.31 -53.95,-18.1 -74,-37.71 -18.13,-18.13 -32.82,-39.73 -43,-63.26 -2.22,-6.22 -9.39,-7.91 -14.13,-11.71 -50.13,-34.08 -89.79,-81.42 -122.46,-132 -6.2,-9.83 -12.37,-19.7 -17.75,-29.99 -3.81,10.41 -7.07,21.03 -10.43,31.61 -20.68,-36.47 -37.8,-74.86 -52.97,-113.91 -19.33,-49.97 -36.33,-100.9 -50.23,-152.65 21.63,-35.88 47.37,-69.21 75.87,-99.87 -5.49,-2.89 -10.97,-5.83 -16.43,-8.79 9.06,-19.91 20.52,-38.64 33.1,-56.51 4.04,-5.17 3.55,-12.1 4.8,-18.2 11.62,-71.32 32.19,-142.4 70.32,-204.34zm59.48 -25.55c-27.42,22.07 -46.8,52.48 -62.04,83.81 -20.71,44.26 -33.25,92.26 -38.41,140.77 13.97,-33.47 27.7,-67.07 42.71,-100.1 15.45,-32.78 34.36,-63.88 55.79,-93.07 11.67,19.85 17.47,42.74 19.24,65.59 -15.12,21.46 -27.59,44.99 -35.75,69.98 5.34,-0.85 10.71,-1.65 16.11,-2.25 -8.62,18.73 -14.01,38.97 -16.36,59.42 29.72,-30.61 64.2,-56.42 101.49,-77.04 -10.2,-1.53 -20.48,-2.35 -30.76,-3.17 5.51,-2.79 10.65,-6.22 15.91,-9.42 -5.68,-26.77 -14.06,-53.09 -26.41,-77.56 -10.4,-21.16 -23.96,-41.07 -41.52,-56.96zm317.18 0.09c-21.12,18.71 -36.03,43.44 -47.37,69.04 -9.02,21.04 -16.37,42.93 -20.38,65.51 5.07,3.13 10.09,6.39 15.33,9.23 -10.09,1.06 -20.2,1.6 -30.22,3.33 37.33,20.77 71.88,46.67 101.72,77.29 -3.24,-20.46 -8,-40.89 -16.69,-59.79 5.3,0.68 10.57,1.55 15.9,2.06 -7.94,-25.15 -21.11,-48.3 -35.54,-70.23 1.63,-22.59 7.52,-45.37 19.19,-64.97 24.49,33.29 45.7,69.08 62.07,107.05 12.65,28.44 24.34,57.32 36.46,85.99 -6.08,-54.2 -20.55,-108.01 -46.4,-156.23 -14.06,-25.49 -31.14,-49.99 -54.07,-68.28zm-159.17 216.25c-4.27,17.86 -7.09,36.02 -10.05,54.14 -8.2,54.91 -13.74,110.26 -16.44,165.72 -26.15,19.09 -48.72,42.99 -66.83,69.77 -4.25,-21.35 -5.99,-43.23 -5.16,-64.98 -9.2,-3.08 -18.36,-6.5 -26.49,-11.86 -17.56,-11.01 -30.64,-29.45 -33.44,-50.18 14.85,-2.11 29.99,-1.41 44.81,0.68 -1.62,-5.78 -3.53,-11.49 -5.19,-17.28 25.14,16.53 40.64,43.56 52.78,70.33 7.71,-7.94 11.25,-18.83 13.77,-29.35 6.12,-25.84 4.72,-52.63 3.99,-78.95 -13.71,-17.29 -30.93,-32.62 -51.74,-40.67 -9.48,12.09 -18.19,24.82 -25.8,38.16 3.41,1.69 6.88,3.3 10.38,4.85 -16.65,21.49 -40.43,37.76 -67.04,43.94 -1.39,33.95 3.31,67.95 9.74,101.23 -19.13,-23.32 -30.13,-52.25 -36.42,-81.46 -19.53,-6.9 -39.59,-12.23 -60.04,-15.48 -11.65,9.54 -23.08,19.36 -34.61,29.06 11.17,7.18 22.16,14.63 33.44,21.6 -18.39,2.3 -36.76,4.74 -55.14,7.16 13.52,55.51 32.12,109.76 54.19,162.45 3.72,-8.32 6.88,-16.88 10.29,-25.32 14.18,27.88 30.74,54.67 50.6,78.9 10.9,12.96 22.41,25.76 36.45,35.42 -8.57,-31.28 -19.77,-61.81 -32.03,-91.8 28.76,22.01 50.55,51.71 68.21,83.04 15.1,26.79 27.34,55.11 37.76,84.02 7.58,20 11.86,41.58 24.24,59.41 17.75,27.77 50.76,46.28 84.02,43.16 28.64,-2.94 54.76,-20.62 69.73,-44.98 11.46,-17.27 15.62,-37.8 22.83,-56.91 13.79,-38.12 30.59,-75.43 53.07,-109.27 14.58,-22.14 32.22,-42.36 53.23,-58.61 -12.35,30.02 -23.6,60.63 -32.08,92 10.5,-7.23 19.5,-16.36 28.04,-25.75 23.77,-26.51 42.63,-57 58.97,-88.53 3.38,8.5 6.72,17 10.26,25.45 21.93,-52.79 40.71,-107.05 54.17,-162.64 -18.5,-2.46 -37,-5.06 -55.53,-7.15 11.57,-6.63 22.45,-14.43 33.74,-21.54 -11.25,-9.86 -22.7,-19.54 -34.31,-28.95 -20.54,2.7 -40.62,8.43 -60.14,15.29 -6.33,29.19 -17.44,57.95 -36.34,81.39 6.34,-33.28 10.72,-67.12 9.84,-101.07 -26.45,-6.42 -50.8,-22.21 -66.97,-44.17 3.4,-1.57 6.76,-3.22 10.09,-4.93 -7.4,-12.61 -15.45,-24.89 -24.63,-36.26 -1.22,-2.61 -3.95,-0.37 -5.69,0.12 -15.56,7.09 -29.04,18.12 -40.5,30.69 -2.65,3.41 -6.92,6.46 -6.88,11.2 -1.05,20.41 -1.27,40.93 1.48,61.22 2.47,15.4 5.28,32.29 16.56,43.96 12.01,-26.75 27.58,-53.82 52.78,-70.14 -1.9,5.68 -3.57,11.43 -5.49,17.09 14.88,-2 29.96,-2.49 44.9,-0.89 -1.44,10.61 -5.4,20.83 -11.51,29.63 -11.11,16.65 -29.42,26.96 -48.24,32.59 0.43,21.92 -0.93,43.91 -5.14,65.45 -17.93,-27.31 -41.23,-50.91 -67.23,-70.59 -0.96,-32.15 -4.72,-64.15 -7.84,-96.14 -4.91,-41.3 -10.03,-82.72 -19.42,-123.27zm-52.51 378.43c13.08,-14.46 32.41,-22.8 51.79,-23.43 20.38,-0.31 40.08,8.76 54.45,22.96 -0.29,19.85 -4.62,40.48 -16.81,56.59 -7.17,9.7 -17.47,16.77 -28.82,20.71 -1.01,9.63 8.13,15.78 16.61,17.05 12.28,1.83 25.15,1.32 36.98,-2.72 12.02,-4.11 21.2,-13.62 28.44,-23.7 12.28,-17.47 21.32,-36.93 31.58,-55.58 5.54,-9.01 11.64,-19.2 22.49,-22.3 -24.89,45.25 -40.85,94.61 -55.11,144.03 -4.95,20.43 -9.6,41.5 -21.56,59.22 -14.74,22.9 -39.23,39.76 -66.26,43.89 -33.09,-3.89 -61.83,-27.8 -75.42,-57.74 -7.28,-14.84 -9.82,-31.27 -14.33,-47.01 -14.2,-48.91 -29.75,-97.89 -54.59,-142.6 9.56,3.3 15.87,11.76 20.92,20.07 7.32,12.59 13.52,25.79 20.81,38.4 9.25,15.96 19.23,33.29 36.51,41.65 13.52,5.87 29.11,6.77 43.44,3.8 7.99,-1.4 14.3,-7.82 14.98,-16.01 -14.18,-5 -26.42,-14.98 -34.03,-27.94 -8.66,-14.86 -11.99,-32.36 -12.07,-49.34zm16.4 8.29c21.34,-14.67 51.02,-14.46 72.37,0.12 -8.78,-13.67 -26.61,-18.01 -41.92,-16.65 -11.51,1.5 -24.49,5.75 -30.45,16.53zm-0.82 111.09c0.58,15.76 8.09,32.06 22.4,39.76 9.51,5.9 22.3,5 31.34,-1.41 12.78,-8.34 19.31,-23.55 19.97,-38.44 -7.85,0.03 -16.39,0.89 -22.62,6.18 -5.16,4.04 -6.88,10.63 -10.59,15.75 -1.31,2.28 -5.59,2.78 -6.95,0.4 -3.95,-5.49 -5.73,-12.66 -11.48,-16.72 -6.25,-4.88 -14.44,-5.58 -22.07,-5.52zm-29.33 38.38c0.53,12.72 3.82,26.03 12.46,35.76 6.91,8.4 18.53,9.15 27.48,14.37 11.5,6.67 25.39,9.04 38.35,5.84 7.65,-1.99 14.3,-6.47 21.62,-9.3 5.97,-2.56 12.82,-3.82 17.54,-8.63 10.57,-9.7 14.31,-24.52 14.8,-38.4 0.11,-12.49 -2.24,-26.32 -11.93,-35.13 5.05,22.64 -4.53,45.65 -18.51,63.17 -1.64,-3.4 -3.99,-6.36 -6.86,-8.78 -2.44,4.34 -4.59,9.02 -8.4,12.37 -9.98,9.18 -26.21,10.22 -37.39,2.63 -5.46,-3.48 -8.94,-9.15 -11.41,-14.96 -3.16,2.33 -6.06,5.1 -7.2,9 -13.95,-17.62 -23.3,-40.51 -18.62,-63.24 -9.65,8.85 -12.15,22.76 -11.93,35.3zm242.97 552.88c20.54,-0.02 41.06,-0.02 61.59,0 -0.05,5.89 -0.05,11.78 -0.02,17.68 -13.44,-0.02 -26.91,0 -40.35,0 -0.02,3.95 -0.02,7.93 0,11.91 12.19,0 24.37,0 36.56,0 0.02,5.56 0.02,11.12 0.02,16.69 -12.2,0 -24.39,0 -36.58,0 -0.02,3.95 0,7.92 0,11.91 13.55,-0.01 27.1,0.02 40.67,-0.01 -0.02,5.99 -0.02,12 0,18.01 -20.62,-0.04 -41.23,-0.02 -61.85,-0.02 -0.02,-25.4 0.03,-50.79 -0.04,-76.17zm-69.35 -0.75c8.12,0 16.25,0 24.38,0 0,26.13 0,52.25 0,78.38 -8.13,0 -16.26,0 -24.38,0 0,-26.13 0,-52.25 0,-78.38zm-63.99 0.7c8.44,0.03 16.89,0.12 25.36,-0.07 -9.88,10.71 -19.28,21.82 -29.07,32.62 10.08,14.49 19.96,29.14 29.97,43.69 -8.5,-0.04 -16.98,-0.04 -25.46,0 -6.36,-9.41 -12.91,-18.69 -19.11,-28.2 -2.68,2.78 -5.35,5.59 -7.99,8.41 -0.02,6.58 0,13.17 0,19.77 -7.07,-0.02 -14.13,0 -21.18,0 0,-25.4 0,-50.79 0,-76.19 7.07,0 14.12,0 21.19,0 -0.01,10.19 -0.1,20.4 0.06,30.59 8.85,-10.12 17.38,-20.5 26.23,-30.62zm-140.46 2.07c15.59,-6.84 34.72,-3.6 48.29,6.39 -3.56,5.06 -7.13,10.09 -10.68,15.12 -5.96,-3.85 -12.54,-6.82 -19.67,-7.47 -4,-0.64 -9.84,0.77 -9.72,5.82 1.5,3.8 5.89,4.65 9.39,5.68 9.58,2.26 20.03,4.16 27.52,11.07 9.63,10.73 4.88,29.84 -8.36,35.34 -17.62,7.46 -38.94,2.86 -53.54,-9.04 3.97,-4.75 7.98,-9.47 11.97,-14.21 8.58,6.18 19.68,11.3 30.37,8.22 3.12,-0.78 2.74,-4.3 3.28,-6.74 -11.17,-7.3 -26.53,-5.38 -36.44,-15.05 -10.12,-10.24 -5.47,-29.59 7.59,-35.13zm-127.12 -2.05c7.17,0.03 14.35,0.01 21.52,0.01 0.04,13.14 0,26.27 0,39.4 0.16,4.77 -0.14,10.17 3.16,14.08 6.35,8.51 22.87,5.76 24.41,-5.4 0.75,-16.01 0.09,-32.07 0.34,-48.08 7.17,0 14.35,0 21.52,-0.01 -0.12,15.45 0.04,30.88 -0.07,46.33 -0.05,12.49 -7.57,25.23 -19.94,28.94 -13.64,4.17 -30.37,3.59 -41.5,-6.25 -7.11,-6.67 -9.36,-16.87 -9.39,-26.28 -0.07,-14.25 0.07,-28.5 -0.05,-42.74zm-114.63 0.03c7.07,-0.02 14.15,-0.02 21.2,-0.02 0.03,9.43 0,18.85 0.03,28.29 9.08,-0.02 18.17,0 27.24,-0.02 0,-9.44 0.06,-18.86 -0.03,-28.28 6.95,0.01 13.9,0.03 20.86,-0.04 -0.12,25.43 -0.01,50.84 -0.06,76.27 -6.92,-0.07 -13.83,-0.05 -20.77,-0.01 0,-9.78 0.02,-19.55 0,-29.3 -9.09,-0.02 -18.16,0 -27.24,-0.02 -0.03,9.76 -0.01,19.53 -0.01,29.3 -7.07,0 -14.13,-0.02 -21.18,0 -0.02,-25.4 0.03,-50.79 -0.04,-76.17zm514.14 -393.21c23.66,-0.05 47.31,0.02 70.96,-0.04 39.52,63.04 78.99,126.11 118.46,189.17 4.67,6.97 8.39,14.62 13.86,21.04 0.59,-70.05 0.07,-140.12 0.24,-210.19 20.02,-0.02 40.05,0 60.06,0 0,98.39 0.02,196.78 0,295.19 -23.51,0 -47.03,-0.04 -70.52,0.02 -41.63,-66.38 -83.14,-132.83 -124.69,-199.22 -2.55,-3.78 -4.25,-8.47 -8.43,-10.75 -0.33,69.98 -0.04,139.97 -0.14,209.95 -19.95,0 -39.87,0 -59.8,-0.02 -0.01,-98.39 -0.03,-196.76 0,-295.15zm-927.21 -0.02c22.04,-0.02 44.09,0 66.12,0 -0.04,79.01 0.1,158.03 -0.07,237.03 21.09,6.99 42.76,13.21 65.12,13.75 22.98,-0.11 45.24,-6.61 66.9,-13.64 -0.02,-79.06 -0.02,-158.1 0,-237.14 22.04,0 44.09,-0.02 66.12,0 0.02,90.14 -0.02,180.29 0.02,270.42 -31.84,18.8 -68.21,29.13 -104.86,32.77 -54.72,4.85 -111.71,-4.78 -159.38,-32.87 0.08,-90.1 0,-180.22 0.03,-270.32zm1436.44 -0.02c20.03,-0.05 40.08,0.16 60.11,-0.1 0.44,98.43 0.09,196.87 0.18,295.29 -23.59,-0.1 -47.17,0.26 -70.74,-0.17 -42.72,-68.89 -86.02,-137.41 -128.88,-206.19 -0.96,-1.51 -2.22,-2.7 -3.77,-3.55 -0.33,69.96 -0.03,139.95 -0.15,209.91 -19.89,0.02 -39.78,0.02 -59.67,0 -0.02,-98.39 -0.02,-196.78 -0.02,-295.17 23.65,0.07 47.32,-0.16 70.97,0.12 31.48,50.77 63.37,101.29 94.96,152 12.39,19.3 24.06,39.05 36.75,58.16 0.59,-70.09 0.07,-140.19 0.26,-210.3zm-1021.61 -7.49c54.45,-4.66 111.25,4.59 158.79,32.42 -0.01,25.64 0.02,51.29 -0.01,76.93 -22.14,0.02 -44.26,0.02 -66.4,0 -0.01,-14.63 -0.03,-29.24 0,-43.87 -42.58,-12.47 -89.1,-12.82 -131.6,0.24 0.1,59.64 0.07,119.27 0.01,178.91 42.54,12.92 88.97,12.7 131.58,0.16 0.01,-18.71 0,-37.42 0,-56.14 22.13,0 44.27,-0.02 66.41,0.02 0.07,29.84 -0.07,59.67 0.07,89.51 -29.73,17.34 -63.45,27.18 -97.52,31.24 -56.82,6.6 -116.32,-2.7 -166.49,-30.89 -0.39,-81.97 0.08,-163.94 -0.23,-245.9 31.87,-19.09 68.54,-29.25 105.39,-32.63zm402.22 5.77c23.37,5.78 46.36,13.83 67.21,26 -0.01,82.25 -0.03,164.51 0.02,246.76 -30.11,17.1 -63.94,27.11 -98.25,31 -56.66,6.36 -116.09,-2.79 -165.97,-31.2 -0.02,-82.14 0.03,-164.26 -0.04,-246.4 20.77,-11.88 43.43,-20.5 66.76,-25.62 19.63,12.26 41.18,22.97 64.64,25.15 23.79,-2.07 46.07,-12.37 65.63,-25.69zm-130.86 59.74c-0.01,59.71 0,119.43 -0.01,179.16 42.88,12.78 89.57,12.76 132.44,-0.07 0.03,-59.62 -0.06,-119.26 0.03,-178.9 -42.81,-12.75 -89.63,-13.08 -132.46,-0.19z"/>
   <path class="fil2" d="M873.4 532.8c-0.35,31.79 32.23,32.42 36.99,12.31 -7.77,-3.81 -12.59,-9.4 -19.72,-7.73 4.37,2.07 4.23,5.55 6.12,10.36 -10.24,-0.82 -14.71,-3.07 -14.37,-14.79 -3.01,-0.05 -6.03,-0.1 -9.02,-0.15zm260.25 13.32c1.3,-5.29 1.25,-10.81 0,-16.09 -0.34,1 -29.44,39.17 -17.37,5.75 -45.98,18.83 9.25,32.82 17.37,10.34zm-53.58 -262.02c37.33,20.77 71.88,46.67 101.72,77.29 -3.24,-20.46 -8,-40.89 -16.69,-59.79 5.3,0.68 10.57,1.55 15.9,2.06 -7.94,-25.15 -21.11,-48.3 -35.54,-70.23 1.63,-22.59 7.52,-45.37 19.19,-64.97 24.49,33.29 45.7,69.08 62.07,107.05 12.65,28.44 24.34,57.32 36.46,85.99 -6.08,-54.2 -20.55,-108.01 -46.4,-156.23 -14.06,-25.49 -31.14,-49.99 -54.07,-68.28 -21.12,18.71 -36.03,43.44 -47.37,69.04 -9.02,21.04 -16.37,42.93 -20.38,65.51 5.07,3.13 10.09,6.39 15.33,9.23 -10.09,1.06 -20.2,1.6 -30.22,3.33zm-182.52 -3.26c5.51,-2.79 10.65,-6.22 15.91,-9.42 -5.68,-26.77 -14.06,-53.09 -26.41,-77.56 -10.4,-21.16 -23.96,-41.07 -41.52,-56.96 -27.42,22.07 -46.8,52.48 -62.04,83.81 -20.71,44.26 -33.25,92.26 -38.41,140.77 13.97,-33.47 27.7,-67.07 42.71,-100.1 15.45,-32.78 34.36,-63.88 55.79,-93.07 11.67,19.85 17.47,42.74 19.24,65.59 -15.12,21.46 -27.59,44.99 -35.75,69.98 5.34,-0.85 10.71,-1.65 16.11,-2.25 -8.62,18.73 -14.01,38.97 -16.36,59.42 29.72,-30.61 64.2,-56.42 101.49,-77.04 -10.2,-1.53 -20.48,-2.35 -30.76,-3.17zm141.54 636.27c-1.64,-3.4 -3.99,-6.36 -6.86,-8.78 -2.44,4.34 -4.59,9.02 -8.4,12.37 -9.98,9.18 -26.21,10.22 -37.39,2.63 -5.46,-3.48 -8.94,-9.15 -11.41,-14.96 -3.16,2.33 -6.06,5.1 -7.2,9 -13.95,-17.62 -23.3,-40.51 -18.62,-63.24 -9.65,8.85 -12.15,22.76 -11.93,35.3 0.53,12.72 3.82,26.03 12.46,35.76 6.91,8.4 18.53,9.15 27.48,14.37 11.5,6.67 25.39,9.04 38.35,5.84 7.65,-1.99 14.3,-6.47 21.62,-9.3 5.97,-2.56 12.82,-3.82 17.54,-8.63 10.57,-9.7 14.31,-24.52 14.8,-38.4 0.11,-12.49 -2.24,-26.32 -11.93,-35.13 5.05,22.64 -4.53,45.65 -18.51,63.17zm0.71 -177.03c-8.78,-13.67 -26.61,-18.01 -41.92,-16.65 -11.51,1.5 -24.49,5.75 -30.45,16.53 21.34,-14.67 51.02,-14.46 72.37,0.12zm58.23 -96.84c-17.93,-27.31 -41.23,-50.91 -67.23,-70.59 -0.96,-32.15 -4.72,-64.15 -7.84,-96.14 -4.91,-41.3 -10.03,-82.72 -19.42,-123.27 -4.27,17.86 -7.09,36.02 -10.05,54.14 -8.2,54.91 -13.74,110.26 -16.44,165.72 -26.15,19.09 -48.72,42.99 -66.83,69.77 -4.25,-21.35 -5.99,-43.23 -5.16,-64.98 -9.2,-3.08 -18.36,-6.5 -26.49,-11.86 -17.56,-11.01 -30.64,-29.45 -33.44,-50.18 14.85,-2.11 29.99,-1.41 44.81,0.68 -1.62,-5.78 -3.53,-11.49 -5.19,-17.28 25.14,16.53 40.64,43.56 52.78,70.33 7.71,-7.94 11.25,-18.83 13.77,-29.35 6.12,-25.84 4.72,-52.63 3.99,-78.95 -13.71,-17.29 -30.93,-32.62 -51.74,-40.67 -9.48,12.09 -18.19,24.82 -25.8,38.16 3.41,1.69 6.88,3.3 10.38,4.85 -16.65,21.49 -40.43,37.76 -67.04,43.94 -1.39,33.95 3.31,67.95 9.74,101.23 -19.13,-23.32 -30.13,-52.25 -36.42,-81.46 -19.53,-6.9 -39.59,-12.23 -60.04,-15.48 -11.65,9.54 -23.08,19.36 -34.61,29.06 11.17,7.18 22.16,14.63 33.44,21.6 -18.39,2.3 -36.76,4.74 -55.14,7.16 13.52,55.51 32.12,109.76 54.19,162.45 3.72,-8.32 6.88,-16.88 10.29,-25.32 14.18,27.88 30.74,54.67 50.6,78.9 10.9,12.96 22.41,25.76 36.45,35.42 -8.57,-31.28 -19.77,-61.81 -32.03,-91.8 28.76,22.01 50.55,51.71 68.21,83.04 15.1,26.79 27.34,55.11 37.76,84.02 7.58,20 11.86,41.58 24.24,59.41 17.75,27.77 50.76,46.28 84.02,43.16 28.64,-2.94 54.76,-20.62 69.73,-44.98 11.46,-17.27 15.62,-37.8 22.83,-56.91 13.79,-38.12 30.59,-75.43 53.07,-109.27 14.58,-22.14 32.22,-42.36 53.23,-58.61 -12.35,30.02 -23.6,60.63 -32.08,92 10.5,-7.23 19.5,-16.36 28.04,-25.75 23.77,-26.51 42.63,-57 58.97,-88.53 3.38,8.5 6.72,17 10.26,25.45 21.93,-52.79 40.71,-107.05 54.17,-162.64 -18.5,-2.46 -37,-5.06 -55.53,-7.15 11.57,-6.63 22.45,-14.43 33.74,-21.54 -11.25,-9.86 -22.7,-19.54 -34.31,-28.95 -20.54,2.7 -40.62,8.43 -60.14,15.29 -6.33,29.19 -17.44,57.95 -36.34,81.39 6.34,-33.28 10.72,-67.12 9.84,-101.07 -26.45,-6.42 -50.8,-22.21 -66.97,-44.17 3.4,-1.57 6.76,-3.22 10.09,-4.93 -7.4,-12.61 -15.45,-24.89 -24.63,-36.26 -1.22,-2.61 -3.95,-0.37 -5.69,0.12 -15.56,7.09 -29.04,18.12 -40.5,30.69 -2.65,3.41 -6.92,6.46 -6.88,11.2 -1.05,20.41 -1.27,40.93 1.48,61.22 2.47,15.4 5.28,32.29 16.56,43.96 12.01,-26.75 27.58,-53.82 52.78,-70.14 -1.9,5.68 -3.57,11.43 -5.49,17.09 14.88,-2 29.96,-2.49 44.9,-0.89 -1.44,10.61 -5.4,20.83 -11.51,29.63 -11.11,16.65 -29.42,26.96 -48.24,32.59 0.43,21.92 -0.93,43.91 -5.14,65.45zm-147 88.43c13.08,-14.46 32.41,-22.8 51.79,-23.43 20.38,-0.31 40.08,8.76 54.45,22.96 -0.29,19.85 -4.62,40.48 -16.81,56.59 -7.17,9.7 -17.47,16.77 -28.82,20.71 -1.01,9.63 8.13,15.78 16.61,17.05 12.28,1.83 25.15,1.32 36.98,-2.72 12.02,-4.11 21.2,-13.62 28.44,-23.7 12.28,-17.47 21.32,-36.93 31.58,-55.58 5.54,-9.01 11.64,-19.2 22.49,-22.3 -24.89,45.25 -40.85,94.61 -55.11,144.03 -4.95,20.43 -9.6,41.5 -21.56,59.22 -14.74,22.9 -39.23,39.76 -66.26,43.89 -33.09,-3.89 -61.83,-27.8 -75.42,-57.74 -7.28,-14.84 -9.82,-31.27 -14.33,-47.01 -14.2,-48.91 -29.75,-97.89 -54.59,-142.6 9.56,3.3 15.87,11.76 20.92,20.07 7.32,12.59 13.52,25.79 20.81,38.4 9.25,15.96 19.23,33.29 36.51,41.65 13.52,5.87 29.11,6.77 43.44,3.8 7.99,-1.4 14.3,-7.82 14.98,-16.01 -14.18,-5 -26.42,-14.98 -34.03,-27.94 -8.66,-14.86 -11.99,-32.36 -12.07,-49.34z"/>
  </g>
 </g>
</svg>
