<?xml version="1.0" encoding="UTF-8"?>
<!DOCTYPE svg PUBLIC "-//W3C//DTD SVG 1.1//EN" "http://www.w3.org/Graphics/SVG/1.1/DTD/svg11.dtd">
<!-- Creator: CorelDRAW -->
<svg xmlns="http://www.w3.org/2000/svg" xml:space="preserve" width="2000px" height="1600px" version="1.1" style="shape-rendering:geometricPrecision; text-rendering:geometricPrecision; image-rendering:optimizeQuality; fill-rule:evenodd; clip-rule:evenodd"
viewBox="0 0 2000 1600"
 xmlns:xlink="http://www.w3.org/1999/xlink">
 <defs>
  <style type="text/css">
   <![CDATA[
    .fil0 {fill:black;fill-rule:nonzero}
    .fil2 {fill:#005FAA;fill-rule:nonzero}
    .fil5 {fill:#1D105F;fill-rule:nonzero}
    .fil4 {fill:#A8B8DC;fill-rule:nonzero}
    .fil3 {fill:#FCB613;fill-rule:nonzero}
    .fil1 {fill:#FEFEFE;fill-rule:nonzero}
   ]]>
  </style>
 </defs>
 <g id="Capa_x0020_1">
  <metadata id="CorelCorpID_0Corel-Layer"/>
  <g id="UCSB_x0020_Gauchos.cdr">
   <path class="fil0" d="M735.83 227.64c89.83,-18.49 181.82,-23.94 273.33,-24.13 85.73,1.14 171.79,6.86 255.9,24.33 34.83,7.5 69.59,16.59 102.07,31.47 19.81,9.21 39.25,21.13 52.3,39.08 7.19,9.81 10.85,21.93 10.91,34.04 0,19.81 0.02,39.62 -0.04,59.43 83.89,13.66 167.38,31.38 248.09,58.38 39.21,13.38 77.84,28.9 114.11,49.06 29.62,16.69 58.17,36.52 79.88,62.98 16.69,20.37 28.15,46.01 27.6,72.7 -0.06,30.63 -15.54,59.22 -36.48,80.78 -28.22,29.77 -64.27,50.62 -100.89,68.36 -70.63,33.19 -146.25,54.25 -222.19,71.27 -36.33,8.09 -73,14.46 -109.65,20.84 2.4,40.73 -4.48,82.05 -19.56,119.95 -7.15,0.11 -14.29,0.07 -21.42,-0.08 9.73,-27.64 17.25,-56.41 17.99,-85.83 0.76,-10.9 1.43,-21.85 -0.29,-32.68 -7.1,0.07 -14.15,1.08 -21.03,2.79 5.27,37.31 3.29,76 -8.43,111.96 -0.62,4.11 -5.3,3.7 -8.4,3.93 -74.31,-0.04 -148.63,-0.09 -222.93,0.02 -16.88,-0.25 -33.57,3.08 -49.7,7.79 -9.12,2.48 -16.94,8.26 -26.05,10.78 -1.72,-5.91 1.46,-11.94 2.21,-17.79 -77.53,-0.99 -155.1,-0.14 -232.66,-0.43 -31.47,0.52 -63.46,-2.36 -94.34,5.41 -10.66,2.3 -20.31,7.58 -30.72,10.66 0.68,-5.31 1.42,-10.58 2.13,-15.88 -31.78,-0.56 -63.57,0.16 -95.36,-0.36 -6.96,-22.89 -12.23,-46.62 -11.85,-70.68 -0.23,-15.27 -0.09,-30.64 2.52,-45.74 -7.23,-1.51 -14.57,-2.27 -21.96,-2.5 0,12.17 -0.15,24.36 0.35,36.54 1.75,28.26 8.36,56.07 18.42,82.47 -7.08,0.16 -14.15,0.18 -21.23,0.12 -15.16,-38.19 -22.06,-79.74 -19.77,-120.74 -77.15,-12.44 -153.87,-28.59 -228.45,-52.1 -35.94,-11.5 -71.51,-24.52 -105.49,-41.04 -39.13,-19.07 -77.63,-42.12 -106.04,-75.73 -18.59,-22.08 -30.84,-50.69 -28.4,-79.95 2.07,-35.55 24.48,-66.06 50.47,-88.74 38.83,-33.48 85.77,-55.75 133.13,-74.45 91.99,-35.36 188.85,-56.04 285.85,-72.17 -0.18,-19.77 -0.1,-39.56 -0.08,-59.33 0.04,-11.9 3.56,-23.76 10.47,-33.46 12.75,-18.02 32.06,-29.91 51.67,-39.19 33.07,-15.27 68.5,-24.54 104.01,-32.14z"/>
   <path class="fil1" d="M1403.44 521.86c0.48,0.53 1.43,1.59 1.92,2.12 -0.8,3.93 -1.19,7.92 -1.53,11.94 10.25,5.4 16.84,15.37 20.46,26.12 -4.55,-5.66 -9.65,-10.83 -15.29,-15.39 -1.45,-0.03 -4.36,-0.09 -5.82,-0.11 0,-1.49 -0.03,-4.5 -0.05,-5.99 -0.14,-6.22 -0.26,-12.46 0.31,-18.69zm-370.36 736.15c39.33,0.19 78.66,-0.06 117.99,0.11 -20.61,9.15 -41.91,16.83 -62.25,26.48 -4.78,8.1 -3.1,18.78 -7.36,27.27 -21.42,11.44 -44.12,20.49 -65.67,31.77l-0.62 0.31c5.93,-28.65 11.51,-57.39 17.91,-85.94zm-186.01 -0.02c39.29,0.21 78.59,0 117.88,0.09l-0.06 0.02c-21.15,8.96 -42.51,17.45 -63.56,26.64 -1.84,8.54 -3.66,17.13 -5.47,25.7 -45.03,0.04 -90.03,0.02 -135.04,0.04 -8.38,0.06 -16.55,-2.19 -24,-5.9 17.74,-10.4 37.04,-17.89 55.4,-27.13 16.84,-1.07 33.78,-0.18 50.67,-0.45 1.2,-6.37 2.6,-12.73 4.18,-19.01zm713.35 -16.25c21.75,-8.68 43.17,-18.31 65.23,-26.24 0.79,5.45 1.38,11.05 0.04,16.47 -3.08,13.98 -5.82,28.03 -8.8,42.05 -3.59,20.12 -23.19,33.78 -42.49,36.55 -21.01,2.6 -42.26,1.24 -63.37,1.59 -22.36,-0.23 -44.73,0.47 -67.08,-0.38 20.64,-11.05 42.8,-19.1 63.79,-29.53 11.09,-1.16 22.37,0.66 33.42,-1.37 5.85,-1.13 11.41,-5.14 13.14,-11.05 2.62,-9.23 4.28,-18.68 6.12,-28.09zm-351.79 -12.27c19.48,-7.13 37.63,-17.6 56.66,-25.87 3.8,5.48 6.46,11.94 5.1,18.74 -2.33,15.7 -6.49,31.05 -9.4,46.64 -2.48,12.42 -5.18,26.2 -15.37,34.79 -10.28,8.43 -24.45,8.14 -37.01,8.43 -40.89,-0.33 -81.79,0.47 -122.67,-0.42 19.86,-12.2 41.69,-20.96 61.77,-32.86 16.59,-0.31 33.21,0.23 49.8,-0.23 0.46,-0.41 1.39,-1.22 1.86,-1.65 3.29,-15.82 6.2,-31.71 9.26,-47.57zm-89.28 -39.93c18.24,-9.32 36.97,-17.62 55.4,-26.51 28.07,-1.01 56.23,-0.14 84.36,-0.43 20.35,-0.12 42.37,1.69 58.92,14.91 -17.54,8.43 -35.06,16.94 -52.84,24.85 -7.23,-3.84 -15.15,-6.52 -23.41,-6.36 -32.33,-0.14 -64.68,0.02 -97.01,-0.04 -8.9,0.14 -17.64,-2.11 -25.42,-6.42zm464.57 -69.49c19.84,-8.64 40.1,-16.28 59.83,-25.14 3.43,4.87 5.99,10.74 4.98,16.85 -1.72,12.4 -5,24.54 -7.21,36.87 -1.61,8.93 -3.52,18.47 -10.08,25.25 -8.85,9.19 -21.24,13.8 -33.3,17.1 -9.46,2.4 -19.05,4.81 -28.88,4.59 -33.47,-0.35 -66.99,0.37 -100.46,-0.37 21.01,-10.79 42.84,-19.98 64.18,-30.08 12.58,-0.72 26.11,1.2 37.39,-5.77 11.03,-5.76 13.8,-18.98 15.19,-30.22 0.57,-3.16 -0.66,-6.19 -1.64,-9.08zm-149.02 -71.68c57.06,-0.56 114.15,-0.07 171.21,-0.23 19.95,0.2 39.97,-0.7 59.86,1.22 14.88,1.96 31.24,5.84 40.91,18.34 -20.7,8.66 -41.42,17.33 -62.24,25.78 -17.94,-15.93 -43.47,-13.57 -65.74,-13.67 -30.01,-0.07 -60,0.16 -90,-0.13 -16.89,77.3 -32.53,154.87 -49.14,232.21 -21.94,10.94 -44.39,20.88 -66.06,32.31 2.93,-23.43 9.4,-46.3 13.73,-69.5 15.72,-75.46 31.92,-150.83 47.47,-226.33zm-317.48 3.82c17.71,-4.71 36.16,-3.49 54.31,-3.62 64.85,0 129.71,-0.02 194.55,0.02 -22.31,10.7 -44.93,20.74 -67.28,31.38 -0.89,9.19 -2.33,18.32 -3.99,27.41 -21.21,8.95 -42.67,17.38 -63.7,26.79l-0.48 0.21c1.97,-6.9 3.25,-14 4.57,-21.05 11.98,-4.01 22.53,-11.24 33.85,-16.73 9.82,-5.5 20.33,-9.85 29.52,-16.44 -43.62,-0.85 -87.25,-0.04 -130.88,-0.42 -11.65,-0.14 -24.71,1.47 -33.03,10.56 -10.49,11.03 -11.51,26.94 -14.75,41.04 -2.4,13.53 -6.53,26.76 -7.95,40.47 -0.97,6.34 2.08,12.11 5.16,17.41 -16.71,7.98 -33.61,15.6 -50.22,23.82l-1.65 0.27c-4.63,-0.76 -6.44,-6.51 -8.71,-10.12 -8.16,-17.06 -1.58,-35.98 1.54,-53.4 5.68,-24.31 7.03,-50.75 21.8,-71.82 8.36,-13.18 22.24,-22.21 37.34,-25.78zm-361.95 0.72c18.72,-5.64 38.51,-4.65 57.84,-4.77 65.17,-0.02 130.35,0.02 195.54,-0.02 -17.81,8.43 -35.69,16.79 -53.5,25.22 -4.75,2.33 -9.94,4.07 -13.86,7.75 -2.54,8.46 -3.37,17.29 -5.46,25.86 -21.09,9.54 -42.82,17.6 -63.91,27.18 1.84,-6.88 3.1,-13.9 4.42,-20.88 8.93,-2.73 16.8,-7.91 25.14,-12 10.74,-5.31 21.3,-11.01 32.1,-16.24 2.01,-1.16 4.34,-2.13 5.71,-4.13 -5.69,-1.9 -11.74,-0.95 -17.6,-1.08 -34.88,0 -69.78,0.05 -104.67,-0.02 -11.64,-0.04 -24.13,-0.66 -34.63,5.21 -15.1,8.7 -17.55,27.52 -20.67,43.03 -10.73,51.46 -21.67,102.89 -32.29,154.35 -1.92,7.54 1.07,14.91 4.56,21.46 -17.41,8.39 -34.88,16.69 -52.44,24.75 -11.36,-11.63 -13.2,-28.92 -10.06,-44.21 9.81,-47.71 19.66,-95.39 29.54,-143.07 4.54,-21.63 7.29,-44.56 20.09,-63.27 7.61,-12.42 20.33,-21.01 34.15,-25.12zm-223.69 -4.77c40.5,0.02 80.99,-0.1 121.48,0.08 -16.73,7.87 -33.36,15.95 -50.07,23.84 -5.27,2.56 -10.89,4.54 -15.7,7.97 -2.75,5.64 -3.22,12.03 -4.59,18.1 -11.38,54.39 -22.91,108.76 -34.33,163.15 -2.27,10.93 -3.8,22.95 -11.65,31.56 -10.16,10.93 -24.62,17.75 -39.54,18.41 -25.82,1.8 -51.72,0.53 -77.55,0.91 -16.03,-0.38 -32.12,0.84 -48.11,-0.71 20.97,-10.28 42.5,-19.35 63.67,-29.23 13.06,-1.73 26.94,2.03 39.5,-2.93 9.11,-3.39 9.71,-14.31 11.61,-22.39 14.97,-69.6 30.26,-139.15 45.28,-208.76zm-169.93 0.12c41.07,-0.22 82.13,-0.16 123.18,-0.04 -20.89,8.88 -41.19,19.07 -61.95,28.24 -3.41,1.65 -7.91,3.18 -8.1,7.7 -15.97,76.06 -31.62,152.21 -48.03,228.2 -22,10.21 -43.85,20.78 -65.56,31.57 -0.37,0.2 -1.12,0.58 -1.49,0.78 20.18,-98.92 41.77,-197.56 61.95,-296.45zm881.44 -107.04c3.94,-1.41 7.91,-2.77 11.88,-4.14 1.4,-0.18 4.19,-0.53 5.59,-0.68 -1.19,16.88 -8.42,34.07 -22.59,44.04 -20.17,15.58 -50.88,13.89 -69.68,-3.16 6.51,-2.48 13.03,-4.95 19.5,-7.56 10.89,5.46 24.35,5.58 35.04,-0.47 9.52,-4.81 15.88,-14.19 18.9,-24.21 0.33,-0.95 1.01,-2.87 1.36,-3.82zm-44.19 -3.52c5.77,-3.51 13.53,2.75 11.43,9.14 -0.97,7.12 -12.21,8.18 -14.86,1.73 -2.35,-3.68 -0.57,-9.19 3.43,-10.87zm-406.36 0.44c5.62,-4.48 14.52,2.06 12.23,8.8 -1.24,5.53 -8.99,7.89 -13.08,4.01 -3.97,-3.12 -3.49,-10.21 0.85,-12.81zm-52.95 -2.87c1.49,0.41 4.48,1.26 5.97,1.67 2.67,1.01 5.35,1.96 8.08,2.93 0.29,0.48 0.85,1.43 1.14,1.92l1.67 -3.22c1.82,9.34 5.37,18.76 12.68,25.24 11.09,10.54 28.67,13.02 42.31,6.06 6.69,2.6 13.49,4.91 20.39,6.96 -10.95,9.56 -25.35,15.35 -40,14.23 -28.87,-0.23 -53.58,-27.1 -52.24,-55.79zm242.37 -284.56c4.18,-1.81 8.88,-1.21 13.33,-1.36 7.58,0.17 15.35,-0.72 22.78,1.39 6.26,1.57 12.38,3.67 18.12,6.67 -11.67,-4.24 -23.92,-4.28 -36.17,-4.13l0.06 1.81c-5.23,0.29 -10.35,1.49 -15.49,2.44l-0.03 2.19c-0.94,-0.27 -2.82,-0.84 -3.77,-1.11l-0.32 2.02c-10.76,2.56 -18.59,11.14 -25.77,18.98 -1.53,4.41 -3.06,8.83 -4.63,13.23 -0.15,1.71 -0.42,5.12 -0.58,6.83 -2.62,-8.01 -1.72,-16.5 -1.76,-24.77l1.68 -0.22c2.43,-10.5 13.71,-15.66 22.16,-20.91 1.06,-0.24 3.2,-0.7 4.24,-0.95 2,-0.82 4.05,-1.53 6.15,-2.11zm178.96 -10.96c10.18,0.08 20.61,-0.85 30.44,2.56 2.46,0.97 4.98,1.9 7.46,2.87 -7.83,-1.2 -15.86,-2.38 -23.75,-1.03 -5.36,1.26 -10.6,3.22 -16.14,3.57l0.06 2.15c-0.76,-0.13 -2.27,-0.43 -3.03,-0.58 -1.59,1.74 -3.58,2.54 -6.03,2.42 -2.81,2.48 -5.95,4.56 -9.22,6.34 -6.03,4.46 -11.21,9.67 -15.97,15.41 -4,7.29 -7.29,14.94 -6.96,23.49 -3.43,-8.33 -4.23,-17.38 -1.03,-25.89l2.19 -0.35c-0.23,-0.91 -0.74,-2.71 -0.97,-3.61l1.96 -0.29c2.5,-6.35 9.05,-9.82 13.37,-14.86 4.52,-2.6 8.73,-6.27 14.17,-6.65l0.08 -2.02c0.74,0.12 2.19,0.33 2.91,0.45 2.65,-3.18 7.21,-1.59 10.77,-2.02l-0.31 -1.96zm-352.54 2.37c12.58,-3.57 25.8,-2.97 38.46,-0.14l0.31 1.42c5.27,0.56 10.37,2.15 15.23,4.26 -14.34,-1.99 -29.75,-4.84 -43.73,0.43 -1.96,0.73 -3.93,1.39 -5.95,1.94 -2.17,1.16 -4.28,2.4 -6.36,3.74 -5.44,4.26 -9.98,9.51 -13.66,15.35 -0.33,6.71 -0.53,13.41 -0.29,20.12 -3.8,-10.29 -9.05,-22.43 -2.23,-32.68 3.84,-4.58 7.81,-10.7 14.28,-11.28l0.06 -2.14c0.93,0.28 2.77,0.8 3.7,1.07l0.18 -2.09zm527.29 -37.35c4.86,0.05 9.73,0.15 14.61,0.44 2.52,0.95 5.06,1.9 7.62,2.85 -4.65,0.25 -9.28,0.52 -13.88,1.09 -2.11,1 -4.32,1.61 -6.65,1.82l-0.21 1.92c-1.4,-0.14 -4.21,-0.43 -5.6,-0.56l-0.02 2.01c-7.12,1.49 -12.7,6.69 -18.75,10.39 -9.92,7.81 -19.4,16.71 -26.3,27.33 -3.68,4.94 -6.28,10.55 -7.48,16.59l-1.63 0.26c-0.14,2.98 -0.31,5.99 -0.56,8.97 -4.17,-12.19 -1.13,-26.25 6.43,-36.58 6.56,-9.15 14.6,-17.4 23.83,-23.82 1.9,-1.45 3.93,-2.67 6.14,-3.64 2.23,-2.48 5.2,-3.53 8.55,-3.37l0.39 -1.44c4.26,-1.47 8.68,-2.38 13.24,-2.38l0.27 -1.88zm-689.03 1.16c6.19,-1.18 13.07,-2.33 19,0.25 4.21,0.87 8.45,1.63 12.6,2.81l0.04 1.42c7.13,0.35 12.58,5.56 18.64,8.72 -4.53,-1.76 -8.89,-3.88 -13.2,-6.15 -2.77,-0.36 -5.73,-0.21 -8.04,-2.05 -6.01,-0.37 -12.04,-0.29 -18.03,0.1 -2.03,0.62 -4.05,1.28 -6.06,1.94 -3.84,2.79 -7.04,6.31 -10.08,9.92 -0.93,10.78 -0.51,21.73 4.46,31.56 -4.21,-6.59 -6.83,-13.98 -9.99,-21.09 0.27,-7.51 -3.08,-17.02 3.53,-22.68 1.82,-2.33 4.63,-3.34 7.13,-4.75zm-69.54 -43.4c-0.12,-12.77 11.24,-20.7 19.63,-28.48 -0.08,3.96 -0.09,7.91 -0.06,11.89 -6.66,0.68 -11.78,5.08 -16.49,9.42 -0.99,2.4 -2.02,4.79 -3.08,7.17z"/>
   <path class="fil2" d="M1412.1 1020c79.53,-0.14 159.08,-0.02 238.63,-0.06 22.37,1.03 45.9,4.13 64.82,17.04 14.71,9.5 23.94,26.4 24.93,43.76 1.47,15.22 -3.92,29.82 -6.38,44.63 -3.96,16.84 -5.12,34.83 -14.07,50.02 -4.77,8.65 -12.04,15.47 -19.31,22 4.79,7.74 9.6,15.82 10.85,25.01 1.01,8.35 0.82,16.92 -0.87,25.2 -3.97,18.55 -7.79,37.12 -11.74,55.67 -2.97,13.39 -8.8,26.3 -18.22,36.4 -14.29,14.98 -32.82,26.55 -53.33,30.45 -14.63,2.98 -29.63,2.79 -44.48,2.87 -61.39,-0.02 -122.76,0 -184.14,0 -20.34,-0.29 -40.69,0.58 -60.99,-0.49 25.2,-117.4 49.63,-234.98 74.3,-352.5zm109.63 250.26c2.33,-10.01 4.37,-20.07 6.44,-30.11 6.92,-0.13 13.88,-0.07 20.82,0.41 -2.17,8.94 -4.07,17.95 -5.95,26.94 -6.52,3.67 -14.19,2.62 -21.31,2.76zm25.38 -116.92c2.4,-9.6 4.49,-19.29 6.28,-29.02 7.01,-0.1 14.22,-0.58 20.97,1.82 -1.67,6.13 -1.76,12.87 -5,18.47 -4.87,7.25 -14.34,8.12 -22.25,8.73zm-1377.68 -495.15c8.28,6.74 15.97,14.18 24.73,20.31 25.72,18.41 54.41,32.1 83.41,44.49 42.04,17.27 85.5,30.91 129.5,42.27 121.46,31.15 246.23,47.64 371.12,56.87 100.03,7.48 200.44,8.92 300.71,7.04 21.94,-1.55 44,-0.78 65.94,-2.48 78.99,-3.65 157.88,-10.34 236.29,-20.88 85.75,-11.71 171.06,-27.91 254.17,-52.24 35.72,-10.95 71.2,-23.01 105.23,-38.51 24.41,-11.4 48.62,-23.71 70.11,-40.13 6.63,-4.92 12.37,-11.01 19.31,-15.56 -5.89,13.16 -16.98,22.85 -27.31,32.5 -29,24.08 -63.04,41.1 -97.62,55.6 -67.61,27.85 -138.65,46.32 -210.17,60.96 -140.78,28.22 -284.34,40.39 -427.71,44 -167.94,3.18 -336.48,-5.47 -502.35,-32.95 -80.84,-13.88 -161.34,-31.77 -238.57,-59.84 -41.94,-15.62 -83.68,-33.55 -119.73,-60.52 -14.26,-11.53 -29.23,-23.92 -37.06,-40.93zm548.73 -268.66c11.14,1.11 22.09,3.45 33.16,5.02 96.76,14.75 194.84,18.71 292.61,16.83 79.15,-1.26 158.15,-8.82 236.29,-21.48 -37.01,11.92 -75.62,17.99 -114.04,23.26 -75.18,9.83 -151.19,11.48 -226.88,8.96 -66.45,-3.26 -133.05,-9.91 -197.75,-25.82 -7.89,-1.98 -15.7,-4.15 -23.39,-6.77zm-97.06 -30.33c14.95,15.39 31.5,29.44 50.77,39.15 8.74,5 18.64,7.35 27.5,12.08 -25.1,0.46 -50.32,-3.65 -74.1,-11.73 20.53,22.02 47.04,37.97 75.69,47.04 -25.23,1.24 -50.3,-3.83 -74.47,-10.66 20.14,21.69 46.37,37.67 74.8,45.85 -25.72,1.33 -51.83,-2.81 -76.02,-11.62 11.53,14.25 26.87,24.89 42.63,33.98 10.46,6.17 22.11,9.73 33.3,14.37 -25.28,0.48 -50.5,-3.82 -74.63,-11.15 19.75,22.08 46.4,37.51 74.63,46.11 -15.78,1.07 -31.58,-0.98 -47.09,-3.66 -11.53,-2.07 -22.97,-5.14 -33.47,-10.39 0.58,-59.8 -0.33,-119.59 0.46,-179.37zm460.46 677.76c26.61,-17.37 59.64,-17.78 90.32,-17.47 77.4,0.2 154.8,-0.4 232.2,0.29 -9.29,46.31 -18.65,92.58 -28.13,138.85 -12.02,-0.02 -24.03,-0.2 -36.03,0.04 9.92,11.26 17.27,25.25 18.49,40.41 2.27,24.33 -6.22,47.76 -9.94,71.51 -4.27,26.82 -13.73,53.94 -33.01,73.73 -12.82,12.95 -29.87,21.19 -47.63,24.71 -27.76,5.59 -56.19,2.89 -84.3,3.53 -54.89,0.58 -109.81,0.41 -164.72,0.43 -12.75,-0.25 -25.55,0.54 -38.26,-0.52 9.83,-46 18.74,-92.19 28.43,-138.21 11.58,0 23.15,0.14 34.72,-0.08 -8.88,-10.73 -16.24,-23.16 -18.08,-37.21 -1.44,-12.27 -0.99,-24.79 1.76,-36.85 4.3,-19.96 7.73,-40.12 12.48,-59.99 6.26,-24.83 19.27,-49.49 41.7,-63.17zm18.41 8.58l0 0c-14.63,6.4 -26.83,17.84 -34.08,32.07 -11.26,20.95 -13.74,45.02 -18.72,67.93 -2.68,15.16 -7.66,30.34 -5.76,45.92 1.36,12.35 6.88,24.43 16.44,32.57 13.72,12.03 32.39,16.32 50.18,17.19 28.79,0.58 57.57,-0.33 86.36,0.41 -1.5,8.23 -3.32,16.42 -4.71,24.69 -9.75,0.21 -19.5,0.16 -29.23,0.1 0.81,-5.29 1.95,-10.53 3.04,-15.76 -47.08,-0.04 -94.17,0 -141.25,-0.02 -6.47,35.43 -15.14,70.48 -20.95,106.03 56.87,-0.08 113.72,0.23 170.57,-0.39 19.37,0.15 38.75,0.02 58.11,0.08 23.38,-0.89 48.68,-2.89 67.63,-18.18 21.5,-17.22 30.53,-44.92 34.82,-71.16 3.49,-21.94 11.22,-43.57 9.51,-66.02 -0.91,-15.06 -9.59,-29.17 -22.25,-37.27 -16.69,-11.03 -37.29,-12.76 -56.73,-13.5 -24.5,-0.01 -49,0.08 -73.51,-0.01 1.21,-8.13 2.97,-16.15 4.58,-24.2 10.14,0.08 20.27,0 30.41,0.08 -0.81,5.29 -1.86,10.53 -3.1,15.76 47.08,0.16 94.15,0.02 141.23,0.06 7.4,-34.89 13.72,-69.99 21.65,-104.75 -2.91,-0.79 -5.8,-1.72 -8.82,-1.45 -72.36,0.11 -144.72,0.06 -217.08,0.04 -19.71,0.83 -40.12,1.28 -58.34,9.78zm-777.47 53.54c5.93,-26.4 10.57,-53.11 17.16,-79.35 116.3,0.4 232.6,0.25 348.9,0.07 -0.51,8.82 -3.22,17.27 -4.91,25.9 -18.08,84.07 -36.44,168.09 -54.46,252.2 -3.05,14.81 -8.96,29.42 -19.21,40.74 -14.72,15.66 -34.04,27.53 -55.29,31.58 -14.44,2.81 -29.21,2.73 -43.86,2.79 -81.95,-0.12 -163.92,0.11 -245.9,-0.14 19.17,-91.25 38.5,-182.49 57.57,-273.79zm30.08 -62.45l0 0c-22.69,106.63 -44.73,213.41 -67.49,320.04 79.78,-0.02 159.58,0.02 239.39,-0.02 15.17,-0.54 30.85,-1.73 44.81,-8.26 19.25,-9.28 37.04,-25.06 42.01,-46.65 19.63,-88.16 37.81,-176.66 57.74,-264.76 -48.96,-0.57 -97.93,-0.35 -146.89,-0.1 -16.3,76.84 -33.63,153.48 -49.76,230.35 -7.11,4.05 -15.48,2.89 -23.31,3.12 16.16,-77.98 34.05,-155.63 50.26,-233.61 -48.93,-0.19 -97.83,0.06 -146.76,-0.11zm371.76 -0.23c25.35,-15.61 56.21,-16.73 85.11,-16.46 78.21,0.06 156.43,-0.12 234.62,0.08 -1.15,12.03 -4.17,23.76 -6.46,35.6 -6.78,34.29 -14.01,68.5 -20.7,102.79 -57.41,0.43 -114.86,-0.09 -172.28,0.28 -4.71,25.27 -10.85,50.28 -15.04,75.65 57.01,-0.1 114.03,-0.06 171.04,-0.02 -9.98,46.02 -20.31,91.93 -29.99,138.01 -76.99,0.52 -154,0.06 -231.01,0.23 -23.01,-0.02 -47.2,-3 -66.99,-15.62 -15.77,-9.94 -26.84,-26.91 -29.56,-45.36 -3.1,-16.92 1.13,-33.92 4.62,-50.43 10.81,-51.74 21.34,-103.55 32.11,-155.28 6.32,-27.16 20.18,-54.39 44.53,-69.47zm7.21 14.84l0 0c-20.82,14.1 -31.71,38.61 -36.6,62.53 -10.21,49.57 -20.43,99.15 -30.68,148.73 -2.66,13.59 -6.69,27.22 -5.41,41.21 0.58,16.61 10.29,32.51 24.79,40.63 18.57,10.91 40.9,11.71 61.88,12.04 63.9,-0.06 127.81,0 191.72,-0.04 6.72,-0.02 13.55,0.46 20.21,-0.8 7.02,-35.2 15.7,-70.07 22.47,-105.33 -46.93,-0.13 -93.84,0.08 -140.74,-0.11 -1.11,5.19 -2.12,10.43 -3.47,15.56 -9.91,-0.21 -19.81,-0.07 -29.7,-0.11 9.3,-46.62 19.38,-93.1 28.42,-139.76 10.35,-0.29 20.72,-0.19 31.07,-0.11 -0.93,5.44 -2.13,10.83 -3.35,16.22 47.12,-0.06 94.28,0.21 141.4,-0.14 6.57,-35.08 14.34,-69.93 20.85,-105.02 -76.85,-0.13 -153.69,-0.01 -230.52,-0.05 -21.4,0.17 -43.98,2.61 -62.34,14.55zm693.69 -14.44l0 0c-21.75,106.73 -45.02,213.16 -66.85,319.89 79.32,-0.08 158.63,0.02 237.95,-0.04 16.09,-0.85 32.86,-1.69 47.39,-9.4 16.19,-8.55 31.46,-21.58 36.99,-39.64 4.28,-14.62 6.53,-29.74 9.84,-44.58 2.12,-13.3 7.81,-26.85 4.23,-40.38 -2.66,-12.44 -12.7,-20.97 -22.85,-27.58 17.6,-7.79 34.15,-21.36 39.19,-40.67 4.32,-18.76 7.81,-37.72 11.8,-56.54 3.01,-15 0.45,-32.33 -11.47,-42.95 -15.97,-14.02 -38.21,-17.47 -58.73,-18.18 -75.83,-0.02 -151.66,-0.18 -227.49,0.07z"/>
   <path class="fil3" d="M1520.05 1227.88c10.52,-0.54 21.26,-0.42 31.61,1.85 5.33,1.06 10.04,6.35 8.76,12.01 -1.84,9.41 -3.5,18.86 -6.12,28.09 -1.73,5.91 -7.29,9.92 -13.14,11.05 -11.05,2.03 -22.33,0.21 -33.42,1.37 2.93,-17.75 7.11,-35.31 10.91,-52.89 0.35,-0.37 1.05,-1.11 1.4,-1.48zm-302.83 -297.26c8.97,-6.65 18.24,9.36 8.39,13.88 -8.54,5.6 -16.78,-8.9 -8.39,-13.88zm-442.37 -0.68c3.47,-0.6 7.93,-0.75 10.04,2.66 3.07,4.98 0.16,13.08 -6.39,13.02 -8.61,0.66 -11.67,-12.38 -3.65,-15.68zm628.98 -394.02c0.34,-4.02 0.73,-8.01 1.53,-11.94l0.19 -1.03c30.3,14.75 37.23,58.07 17.58,84.01 -5,6.88 -12.15,11.96 -20.06,14.96 0.54,-25.12 -0.47,-50.26 0.11,-75.38 1.46,0.02 4.37,0.08 5.82,0.11 5.64,4.56 10.74,9.73 15.29,15.39 -3.62,-10.75 -10.21,-20.72 -20.46,-26.12zm-835.68 19.32c3.99,-13.66 13.41,-27.23 27.46,-31.65l1.44 -0.18c0.02,3.53 -0.06,7.08 -0.12,10.64 -8.39,7.78 -19.75,15.71 -19.63,28.48 1.06,-2.38 2.09,-4.77 3.08,-7.17 4.71,-4.34 9.83,-8.74 16.49,-9.42 0.45,25.35 -0.21,50.7 0.1,76.06 -26.13,-9.38 -36.21,-41.73 -28.82,-66.76zm73.69 36.67c15.8,-5.11 32.88,-0.94 47.43,5.98 18.32,9.07 34.14,23.64 43.79,41.75 6.3,12.15 9.58,26.9 4.89,40.16 -4.42,12.04 -16.83,19.6 -29.31,20.22 -23.55,1.78 -46.13,-9.79 -62.96,-25.49 -14.77,-14.23 -27.08,-33.71 -25.37,-54.99 0.42,-12.64 9.67,-23.83 21.53,-27.63zm5 14.02l0 0c-2.5,1.41 -5.31,2.42 -7.13,4.75 -6.61,5.66 -3.26,15.17 -3.53,22.68 3.16,7.11 5.78,14.5 9.99,21.09 -4.97,-9.83 -5.39,-20.78 -4.46,-31.56 3.04,-3.61 6.24,-7.13 10.08,-9.92 2.01,-0.66 4.03,-1.32 6.06,-1.94 5.99,-0.39 12.02,-0.47 18.03,-0.1 2.31,1.84 5.27,1.69 8.04,2.05 4.31,2.27 8.67,4.39 13.2,6.15 -6.06,-3.16 -11.51,-8.37 -18.64,-8.72l-0.04 -1.42c-4.15,-1.18 -8.39,-1.94 -12.6,-2.81 -5.93,-2.58 -12.81,-1.43 -19,-0.25zm686.1 -15.39c12.41,-2.27 26.5,-0.7 36.36,7.79 8.22,6.98 11.4,18.38 10.37,28.84 -1.41,16.46 -10.39,31.21 -21.34,43.15 -13.6,14.34 -31.32,25.33 -50.9,29 -13.08,1.99 -28.32,1.26 -38.22,-8.65 -11.48,-10.62 -11.46,-28.39 -6.28,-42.14 11.32,-29.52 39.05,-52.06 70.01,-57.99zm2.93 14.23l0 0 -0.27 1.88c-4.56,0 -8.98,0.91 -13.24,2.38l-0.39 1.44c-3.35,-0.16 -6.32,0.89 -8.55,3.37 -2.21,0.97 -4.24,2.19 -6.14,3.64 -9.23,6.42 -17.27,14.67 -23.83,23.82 -7.56,10.33 -10.6,24.39 -6.43,36.58 0.25,-2.98 0.42,-5.99 0.56,-8.97l1.63 -0.26c1.2,-6.04 3.8,-11.65 7.48,-16.59 6.9,-10.62 16.38,-19.52 26.3,-27.33 6.05,-3.7 11.63,-8.9 18.75,-10.39l0.02 -2.01c1.39,0.13 4.2,0.42 5.6,0.56l0.21 -1.92c2.33,-0.21 4.54,-0.82 6.65,-1.82 4.6,-0.57 9.23,-0.84 13.88,-1.09 -2.56,-0.95 -5.1,-1.9 -7.62,-2.85 -4.88,-0.29 -9.75,-0.39 -14.61,-0.44zm-525.74 21.63c24.27,-5.88 51.02,0.95 69.99,17.02 11.09,9.49 19.58,23.2 19.77,38.12 0.76,14.43 -7.59,28.34 -19.71,35.81 -26.63,16.43 -63.01,11.18 -86.84,-8.03 -15.15,-11.71 -25.12,-31.87 -19.92,-51.06 4.53,-16.82 20.41,-28 36.71,-31.86zm-1.55 15.72l0 0 -0.18 2.09c-0.93,-0.27 -2.77,-0.79 -3.7,-1.07l-0.06 2.14c-6.47,0.58 -10.44,6.7 -14.28,11.28 -6.82,10.25 -1.57,22.39 2.23,32.68 -0.24,-6.71 -0.04,-13.41 0.29,-20.12 3.68,-5.84 8.22,-11.09 13.66,-15.35 2.08,-1.34 4.19,-2.58 6.36,-3.74 2.02,-0.55 3.99,-1.21 5.95,-1.94 13.98,-5.27 29.39,-2.42 43.73,-0.43 -4.86,-2.11 -9.96,-3.7 -15.23,-4.26l-0.31 -1.42c-12.66,-2.83 -25.88,-3.43 -38.46,0.14zm350.1 -16.61c15.72,-2.81 32.62,-0.8 46.7,7.01 12.11,6.75 21.57,19.25 22.25,33.4 1.14,13.8 -5,27.43 -14.62,37.12 -15.33,16.36 -38.16,24.81 -60.39,23.96 -16.38,-0.33 -33.4,-6.52 -43.93,-19.5 -10.46,-12.31 -11.28,-30.69 -4.11,-44.8 10.12,-20.64 31.99,-33.4 54.1,-37.19zm2.44 14.24l0 0 0.31 1.96c-3.56,0.43 -8.12,-1.16 -10.77,2.02 -0.72,-0.12 -2.17,-0.33 -2.91,-0.45l-0.08 2.02c-5.44,0.38 -9.65,4.05 -14.17,6.65 -4.32,5.04 -10.87,8.51 -13.37,14.86l-1.96 0.29c0.23,0.9 0.74,2.7 0.97,3.61l-2.19 0.35c-3.2,8.51 -2.4,17.56 1.03,25.89 -0.33,-8.55 2.96,-16.2 6.96,-23.49 4.76,-5.74 9.94,-10.95 15.97,-15.41 3.27,-1.78 6.41,-3.86 9.22,-6.34 2.45,0.12 4.44,-0.68 6.03,-2.42 0.76,0.15 2.27,0.45 3.03,0.58l-0.06 -2.15c5.54,-0.35 10.78,-2.31 16.14,-3.57 7.89,-1.35 15.92,-0.17 23.75,1.03 -2.48,-0.97 -5,-1.9 -7.46,-2.87 -9.83,-3.41 -20.26,-2.48 -30.44,-2.56zm-176.19 -5.11c20.86,-3.34 43.38,0.13 61.04,12.17 9.07,6.34 16.92,15.06 20.27,25.76 3.05,10.41 2.12,22.15 -3.49,31.56 -7.85,13.62 -21.86,22.71 -36.63,27.31 -21.46,6.45 -45.49,4.94 -65.52,-5.31 -11.61,-6.13 -22,-15.74 -26.57,-28.3 -4.54,-12.37 -2.29,-26.83 5.56,-37.39 10.55,-14.6 27.88,-22.95 45.34,-25.8zm-2.77 16.07l0 0c-2.1,0.58 -4.15,1.29 -6.15,2.11 -1.04,0.25 -3.18,0.71 -4.24,0.95 -8.45,5.25 -19.73,10.41 -22.16,20.91l-1.68 0.22c0.04,8.27 -0.86,16.76 1.76,24.77 0.16,-1.71 0.43,-5.12 0.58,-6.83 1.57,-4.4 3.1,-8.82 4.63,-13.23 7.18,-7.84 15.01,-16.42 25.77,-18.98l0.32 -2.02c0.95,0.27 2.83,0.84 3.77,1.11l0.03 -2.19c5.14,-0.95 10.26,-2.15 15.49,-2.44l-0.06 -1.81c12.25,-0.15 24.5,-0.11 36.17,4.13 -5.74,-3 -11.86,-5.1 -18.12,-6.67 -7.43,-2.11 -15.2,-1.22 -22.78,-1.39 -4.45,0.15 -9.15,-0.45 -13.33,1.36zm-629.58 385.92c48.93,0.17 97.83,-0.08 146.76,0.11 -16.21,77.98 -34.1,155.63 -50.26,233.61 7.83,-0.23 16.2,0.93 23.31,-3.12 16.13,-76.87 33.46,-153.51 49.76,-230.35 48.96,-0.25 97.93,-0.47 146.89,0.1 -19.93,88.1 -38.11,176.6 -57.74,264.76 -4.97,21.59 -22.76,37.37 -42.01,46.65 -13.96,6.53 -29.64,7.72 -44.81,8.26 -79.81,0.04 -159.61,0 -239.39,0.02 22.76,-106.63 44.8,-213.41 67.49,-320.04zm9.27 11.63l0 0c-20.18,98.89 -41.77,197.53 -61.95,296.45 0.37,-0.2 1.12,-0.58 1.49,-0.78 17.37,2.12 34.99,0.41 52.45,0.95 57.5,0 114.97,0.02 172.46,0 12.52,-0.71 25.41,-1.49 37.06,-6.57 16.96,-7.73 33.05,-21.32 36.93,-40.41 10.13,-45.96 19.88,-92 29.94,-137.97 7.81,-37.41 16.63,-74.63 23.92,-112.14l-0.89 0.43c-40.49,-0.18 -80.98,-0.06 -121.48,-0.08 -15.02,69.61 -30.31,139.16 -45.28,208.76 -1.9,8.08 -2.5,19 -11.61,22.39 -12.56,4.96 -26.44,1.2 -39.5,2.93 0.66,-11.23 3.86,-22.06 6.11,-33.03 14.4,-67.01 29.23,-133.94 43.53,-200.97 -41.05,-0.12 -82.11,-0.18 -123.18,0.04zm369.7 2.98c18.36,-11.94 40.94,-14.38 62.34,-14.55 76.83,0.04 153.67,-0.08 230.52,0.05 -6.51,35.09 -14.28,69.94 -20.85,105.02 -47.12,0.35 -94.28,0.08 -141.4,0.14 1.22,-5.39 2.42,-10.78 3.35,-16.22 -10.35,-0.08 -20.72,-0.18 -31.07,0.11 -9.04,46.66 -19.12,93.14 -28.42,139.76 9.89,0.04 19.79,-0.1 29.7,0.11 1.35,-5.13 2.36,-10.37 3.47,-15.56 46.9,0.19 93.81,-0.02 140.74,0.11 -6.77,35.26 -15.45,70.13 -22.47,105.33 -6.66,1.26 -13.49,0.78 -20.21,0.8 -63.91,0.04 -127.82,-0.02 -191.72,0.04 -20.98,-0.33 -43.31,-1.13 -61.88,-12.04 -14.5,-8.12 -24.21,-24.02 -24.79,-40.63 -1.28,-13.99 2.75,-27.62 5.41,-41.21 10.25,-49.58 20.47,-99.16 30.68,-148.73 4.89,-23.92 15.78,-48.43 36.6,-62.53zm23.92 1.67l0 0c-13.82,4.11 -26.54,12.7 -34.15,25.12 -12.8,18.71 -15.55,41.64 -20.09,63.27 -9.88,47.68 -19.73,95.36 -29.54,143.07 -3.14,15.29 -1.3,32.58 10.06,44.21 13.82,11.77 32.45,15.57 50.17,15.33 71.95,-0.05 143.9,0.16 215.83,-0.11 4.77,-23.59 9.83,-47.12 14.71,-70.67 1.13,-4.97 2.45,-9.91 2.43,-15.03l0.06 -0.02c-39.29,-0.09 -78.59,0.12 -117.88,-0.09 -1.58,6.28 -2.98,12.64 -4.18,19.01 -16.89,0.27 -33.83,-0.62 -50.67,0.45 3.95,-26.27 10.47,-52.08 15.39,-78.18 6.53,-28.66 10.84,-57.84 18.38,-86.25 16.84,0.39 33.7,0.1 50.55,0.23 -1.32,6.98 -2.58,14 -4.42,20.88 39.64,0.73 79.3,0.04 118.93,0.35 6.13,-28.75 12.53,-57.44 17.8,-86.36 -65.19,0.04 -130.37,0 -195.54,0.02 -19.33,0.12 -39.12,-0.87 -57.84,4.77zm344.5 -7.37c18.22,-8.5 38.63,-8.95 58.34,-9.78 72.36,0.02 144.72,0.07 217.08,-0.04 3.02,-0.27 5.91,0.66 8.82,1.45 -7.93,34.76 -14.25,69.86 -21.65,104.75 -47.08,-0.04 -94.15,0.1 -141.23,-0.06 1.24,-5.23 2.29,-10.47 3.1,-15.76 -10.14,-0.08 -20.27,0 -30.41,-0.08 -1.61,8.05 -3.37,16.07 -4.58,24.2 24.51,0.09 49.01,0 73.51,0.01 19.44,0.74 40.04,2.47 56.73,13.5 12.66,8.1 21.34,22.21 22.25,37.27 1.71,22.45 -6.02,44.08 -9.51,66.02 -4.29,26.24 -13.32,53.94 -34.82,71.16 -18.95,15.29 -44.25,17.29 -67.63,18.18 -19.36,-0.06 -38.74,0.07 -58.11,-0.08 -56.85,0.62 -113.7,0.31 -170.57,0.39 5.81,-35.55 14.48,-70.6 20.95,-106.03 47.08,0.02 94.17,-0.02 141.25,0.02 -1.09,5.23 -2.23,10.47 -3.04,15.76 9.73,0.06 19.48,0.11 29.23,-0.1 1.39,-8.27 3.21,-16.46 4.71,-24.69 -28.79,-0.74 -57.57,0.17 -86.36,-0.41 -17.79,-0.87 -36.46,-5.16 -50.18,-17.19 -9.56,-8.14 -15.08,-20.22 -16.44,-32.57 -1.9,-15.58 3.08,-30.76 5.76,-45.92 4.98,-22.91 7.46,-46.98 18.72,-67.93 7.25,-14.23 19.45,-25.67 34.08,-32.07zm17.45 6.65l0 0c-15.1,3.57 -28.98,12.6 -37.34,25.78 -14.77,21.07 -16.12,47.51 -21.8,71.82 -3.12,17.42 -9.7,36.34 -1.54,53.4 2.27,3.61 4.08,9.36 8.71,10.12l1.65 -0.27 -0.41 1.3c0.31,0.75 0.89,2.26 1.2,3.04 14.67,9.4 32.58,12.35 49.78,12.04 30.31,0 60.65,-0.06 90.96,0.05 -3.06,15.86 -5.97,31.75 -9.26,47.57 -0.47,0.43 -1.4,1.24 -1.86,1.65 -16.59,0.46 -33.21,-0.08 -49.8,0.23 1.57,-7 3.01,-14.03 4.11,-21.13l-0.75 0.33c-39.33,-0.17 -78.66,0.08 -117.99,-0.11 -6.4,28.55 -11.98,57.29 -17.91,85.94l0.62 -0.31c70.09,0.66 140.2,0.08 210.29,0.29 20.18,-0.06 41.69,-0.97 59.31,-11.96 17.35,-10.97 26.64,-30.72 31.62,-49.95 4.2,-19.21 7.67,-38.53 11.68,-57.76 3.26,-16.09 2.52,-35.12 -10.66,-46.75 -16.55,-13.22 -38.57,-15.03 -58.92,-14.91 -28.13,0.29 -56.29,-0.58 -84.36,0.43 2.89,-16.73 5.76,-33.52 9.89,-49.99 16.92,0.37 33.84,0 50.76,0.29 -1.32,7.05 -2.6,14.15 -4.57,21.05l0.48 -0.21c39.76,0.42 79.55,0.42 119.31,0 3.41,-19.48 7.98,-38.73 11.76,-58.14 1.61,-9.32 4.54,-18.41 4.91,-27.93l-1.01 0.49c-64.84,-0.04 -129.7,-0.02 -194.55,-0.02 -18.15,0.13 -36.6,-1.09 -54.31,3.62zm307.82 -15.39c75.83,-0.25 151.66,-0.09 227.49,-0.07 20.52,0.71 42.76,4.16 58.73,18.18 11.92,10.62 14.48,27.95 11.47,42.95 -3.99,18.82 -7.48,37.78 -11.8,56.54 -5.04,19.31 -21.59,32.88 -39.19,40.67 10.15,6.61 20.19,15.14 22.85,27.58 3.58,13.53 -2.11,27.08 -4.23,40.38 -3.31,14.84 -5.56,29.96 -9.84,44.58 -5.53,18.06 -20.8,31.09 -36.99,39.64 -14.53,7.71 -31.3,8.55 -47.39,9.4 -79.32,0.06 -158.63,-0.04 -237.95,0.04 21.83,-106.73 45.1,-213.16 66.85,-319.89zm9.66 11.57l0 0c-15.55,75.5 -31.75,150.87 -47.47,226.33 -4.33,23.2 -10.8,46.07 -13.73,69.5l-0.79 0.43c73.17,0.62 146.38,0.04 219.57,0.29 9.71,0.12 19.44,-0.89 29.02,-2.48 13.96,-2.5 26.44,-10.16 36.64,-19.75 7.75,-7.58 12.01,-17.97 13.97,-28.49 3.86,-18.11 7.33,-36.31 11.42,-54.38 2.81,-10.91 -1.3,-23.53 -10.84,-29.83 -13.86,-9.82 -31.19,-11.57 -47.41,-14.63 22.16,-4.03 45.8,-9.07 63.04,-24.6 14.16,-13.14 13.66,-33.82 18.23,-51.23 2.76,-16.94 11.15,-36.01 0.61,-51.95l-0.28 0.12c-9.67,-12.5 -26.03,-16.38 -40.91,-18.34 -19.89,-1.92 -39.91,-1.02 -59.86,-1.22 -57.06,0.16 -114.15,-0.33 -171.21,0.23zm108.81 64.42c13.36,0.17 29.88,-3.59 40.21,7.26 0.98,2.89 2.21,5.92 1.64,9.08 -1.39,11.24 -4.16,24.46 -15.19,30.22 -11.28,6.97 -24.81,5.05 -37.39,5.77 3.12,-17.54 7.87,-34.75 10.73,-52.33zm3.4 40.55l0 0c7.91,-0.61 17.38,-1.48 22.25,-8.73 3.24,-5.6 3.33,-12.34 5,-18.47 -6.75,-2.4 -13.96,-1.92 -20.97,-1.82 -1.79,9.73 -3.88,19.42 -6.28,29.02zm-25.38 116.92l0 0c7.12,-0.14 14.79,0.91 21.31,-2.76 1.88,-8.99 3.78,-18 5.95,-26.94 -6.94,-0.48 -13.9,-0.54 -20.82,-0.41 -2.07,10.04 -4.11,20.1 -6.44,30.11z"/>
   <path class="fil4" d="M1706.88 1067.7l0.28 -0.12c10.54,15.94 2.15,35.01 -0.61,51.95 -4.57,17.41 -4.07,38.09 -18.23,51.23 -17.24,15.53 -40.88,20.57 -63.04,24.6 16.22,3.06 33.55,4.81 47.41,14.63 9.54,6.3 13.65,18.92 10.84,29.83 -4.09,18.07 -7.56,36.27 -11.42,54.38 -1.96,10.52 -6.22,20.91 -13.97,28.49 -10.2,9.59 -22.68,17.25 -36.64,19.75 -9.58,1.59 -19.31,2.6 -29.02,2.48 -73.19,-0.25 -146.4,0.33 -219.57,-0.29l0.79 -0.43c21.67,-11.43 44.12,-21.37 66.06,-32.31 16.61,-77.34 32.25,-154.91 49.14,-232.21 30,0.29 59.99,0.06 90,0.13 22.27,0.1 47.8,-2.26 65.74,13.67 20.82,-8.45 41.54,-17.12 62.24,-25.78zm-572.02 22.6c8.32,-9.09 21.38,-10.7 33.03,-10.56 43.63,0.38 87.26,-0.43 130.88,0.42 -9.19,6.59 -19.7,10.94 -29.52,16.44 -11.32,5.49 -21.87,12.72 -33.85,16.73 -16.92,-0.29 -33.84,0.08 -50.76,-0.29 -4.13,16.47 -7,33.26 -9.89,49.99 -18.43,8.89 -37.16,17.19 -55.4,26.51 7.78,4.31 16.52,6.56 25.42,6.42 32.33,0.06 64.68,-0.1 97.01,0.04 8.26,-0.16 16.18,2.52 23.41,6.36 17.78,-7.91 35.3,-16.42 52.84,-24.85 13.18,11.63 13.92,30.66 10.66,46.75 -4.01,19.23 -7.48,38.55 -11.68,57.76 -4.98,19.23 -14.27,38.98 -31.62,49.95 -17.62,10.99 -39.13,11.9 -59.31,11.96 -70.09,-0.21 -140.2,0.37 -210.29,-0.29 21.55,-11.28 44.25,-20.33 65.67,-31.77 4.26,-8.49 2.58,-19.17 7.36,-27.27 20.34,-9.65 41.64,-17.33 62.25,-26.48l0.75 -0.33c-1.1,7.1 -2.54,14.13 -4.11,21.13 -20.08,11.9 -41.91,20.66 -61.77,32.86 40.88,0.89 81.78,0.09 122.67,0.42 12.56,-0.29 26.73,0 37.01,-8.43 10.19,-8.59 12.89,-22.37 15.37,-34.79 2.91,-15.59 7.07,-30.94 9.4,-46.64 1.36,-6.8 -1.3,-13.26 -5.1,-18.74 -19.03,8.27 -37.18,18.74 -56.66,25.87 -30.31,-0.11 -60.65,-0.05 -90.96,-0.05 -17.2,0.31 -35.11,-2.64 -49.78,-12.04 -0.31,-0.78 -0.89,-2.29 -1.2,-3.04l0.41 -1.3c16.61,-8.22 33.51,-15.84 50.22,-23.82 -3.08,-5.3 -6.13,-11.07 -5.16,-17.41 1.42,-13.71 5.55,-26.94 7.95,-40.47 3.24,-14.1 4.26,-30.01 14.75,-41.04zm-352.27 -5.31c10.5,-5.87 22.99,-5.25 34.63,-5.21 34.89,0.07 69.79,0.02 104.67,0.02 5.86,0.13 11.91,-0.82 17.6,1.08 -1.37,2 -3.7,2.97 -5.71,4.13 -10.8,5.23 -21.36,10.93 -32.1,16.24 -8.34,4.09 -16.21,9.27 -25.14,12 -16.85,-0.13 -33.71,0.16 -50.55,-0.23 -7.54,28.41 -11.85,57.59 -18.38,86.25 -4.92,26.1 -11.44,51.91 -15.39,78.18 -18.36,9.24 -37.66,16.73 -55.4,27.13 7.45,3.71 15.62,5.96 24,5.9 45.01,-0.02 90.01,0 135.04,-0.04 1.81,-8.57 3.63,-17.16 5.47,-25.7 21.05,-9.19 42.41,-17.68 63.56,-26.64 0.02,5.12 -1.3,10.06 -2.43,15.03 -4.88,23.55 -9.94,47.08 -14.71,70.67 -71.93,0.27 -143.88,0.06 -215.83,0.11 -17.72,0.24 -36.35,-3.56 -50.17,-15.33 17.56,-8.06 35.03,-16.36 52.44,-24.75 -3.49,-6.55 -6.48,-13.92 -4.56,-21.46 10.62,-51.46 21.56,-102.89 32.29,-154.35 3.12,-15.51 5.57,-34.33 20.67,-43.03zm172.76 -11.65c17.81,-8.43 35.69,-16.79 53.5,-25.22 -5.27,28.92 -11.67,57.61 -17.8,86.36 -39.63,-0.31 -79.29,0.38 -118.93,-0.35 21.09,-9.58 42.82,-17.64 63.91,-27.18 2.09,-8.57 2.92,-17.4 5.46,-25.86 3.92,-3.68 9.11,-5.42 13.86,-7.75zm410.93 -24.75l1.01 -0.49c-0.37,9.52 -3.3,18.61 -4.91,27.93 -3.78,19.41 -8.35,38.66 -11.76,58.14 -39.76,0.42 -79.55,0.42 -119.31,0 21.03,-9.41 42.49,-17.84 63.7,-26.79 1.66,-9.09 3.1,-18.22 3.99,-27.41 22.35,-10.64 44.97,-20.68 67.28,-31.38zm-713.02 -0.37l0.89 -0.43c-7.29,37.51 -16.11,74.73 -23.92,112.14 -10.06,45.97 -19.81,92.01 -29.94,137.97 -3.88,19.09 -19.97,32.68 -36.93,40.41 -11.65,5.08 -24.54,5.86 -37.06,6.57 -57.49,0.02 -114.96,0 -172.46,0 -17.46,-0.54 -35.08,1.17 -52.45,-0.95 21.71,-10.79 43.56,-21.36 65.56,-31.57 16.41,-75.99 32.06,-152.14 48.03,-228.2 0.19,-4.52 4.69,-6.05 8.1,-7.7 20.76,-9.17 41.06,-19.36 61.95,-28.24 -14.3,67.03 -29.13,133.96 -43.53,200.97 -2.25,10.97 -5.45,21.8 -6.11,33.03 -21.17,9.88 -42.7,18.95 -63.67,29.23 15.99,1.55 32.08,0.33 48.11,0.71 25.83,-0.38 51.73,0.89 77.55,-0.91 14.92,-0.66 29.38,-7.48 39.54,-18.41 7.85,-8.61 9.38,-20.63 11.65,-31.56 11.42,-54.39 22.95,-108.76 34.33,-163.15 1.37,-6.07 1.84,-12.46 4.59,-18.1 4.81,-3.43 10.43,-5.41 15.7,-7.97 16.71,-7.89 33.34,-15.97 50.07,-23.84zm504.76 -85.66c4.56,-2.88 9.58,-4.96 14.44,-7.26 4.07,5.85 9.15,11.06 15.53,14.42 -6.47,2.61 -12.99,5.08 -19.5,7.56 -3.8,-4.66 -8.72,-8.76 -10.47,-14.72zm-330.37 -7.38c4.93,2.62 10.02,4.96 15.06,7.35 -3,5.15 -6.7,9.86 -10.68,14.3 -6.9,-2.05 -13.7,-4.36 -20.39,-6.96 6.59,-3.35 11.71,-8.78 16.01,-14.69zm413.26 -31.83c5.33,-2.01 10.7,-4.03 16.22,-5.54 1.22,5.62 2.33,11.26 3.37,16.94 -1.78,0.77 -3.56,1.55 -5.33,2.33 -3.97,1.37 -7.94,2.73 -11.88,4.14 -0.35,0.95 -1.03,2.87 -1.36,3.82 1.3,-7.23 0.78,-14.61 -1.02,-21.69zm-501.16 11.03c0.66,-5.7 1.86,-11.3 3.53,-16.78 5.19,1.82 10.37,3.72 15.5,5.71 -0.68,4.93 -1.22,9.87 -1.63,14.83 -0.83,0.43 -2.48,1.3 -3.31,1.73 -2.73,-0.97 -5.41,-1.92 -8.08,-2.93 -1.94,-1.03 -3.94,-1.88 -6.01,-2.56zm844.17 185.67l0 0c-10.33,-10.85 -26.85,-7.09 -40.21,-7.26 -2.86,17.58 -7.61,34.79 -10.73,52.33 -21.34,10.1 -43.17,19.29 -64.18,30.08 33.47,0.74 66.99,0.02 100.46,0.37 9.83,0.22 19.42,-2.19 28.88,-4.59 12.06,-3.3 24.45,-7.91 33.3,-17.1 6.56,-6.78 8.47,-16.32 10.08,-25.25 2.21,-12.33 5.49,-24.47 7.21,-36.87 1.01,-6.11 -1.55,-11.98 -4.98,-16.85 -19.73,8.86 -39.99,16.5 -59.83,25.14zm-23.5 121.69l0 0c1.28,-5.66 -3.43,-10.95 -8.76,-12.01 -10.35,-2.27 -21.09,-2.39 -31.61,-1.85 -0.35,0.37 -1.05,1.11 -1.4,1.48 -3.8,17.58 -7.98,35.14 -10.91,52.89 -20.99,10.43 -43.15,18.48 -63.79,29.53 22.35,0.85 44.72,0.15 67.08,0.38 21.11,-0.35 42.36,1.01 63.37,-1.59 19.3,-2.77 38.9,-16.43 42.49,-36.55 2.98,-14.02 5.72,-28.07 8.8,-42.05 1.34,-5.42 0.75,-11.02 -0.04,-16.47 -22.06,7.93 -43.48,17.56 -65.23,26.24z"/>
   <path class="fil5" d="M590.92 877.55c7.39,0.23 14.73,0.99 21.96,2.5 -2.61,15.1 -2.75,30.47 -2.52,45.74 -0.38,24.06 4.89,47.78 11.85,70.68 31.79,0.52 63.58,-0.2 95.36,0.36 -0.71,5.3 -1.45,10.57 -2.13,15.88 10.41,-3.08 20.06,-8.36 30.72,-10.66 30.88,-7.77 62.87,-4.89 94.34,-5.41 77.56,0.29 155.13,-0.56 232.66,0.43 -0.75,5.85 -3.93,11.88 -2.21,17.79 9.11,-2.52 16.93,-8.3 26.05,-10.78 16.13,-4.71 32.82,-8.04 49.7,-7.79 74.3,-0.11 148.62,-0.06 222.93,-0.02 3.1,-0.23 7.78,0.18 8.4,-3.93 11.72,-35.96 13.7,-74.65 8.43,-111.96 6.88,-1.71 13.93,-2.72 21.03,-2.79 1.72,10.83 1.05,21.78 0.29,32.68 -0.74,29.42 -8.26,58.19 -17.99,85.83 7.13,0.15 14.27,0.19 21.42,0.08 82.4,1.08 164.86,0.15 247.29,0.58 29.87,1.82 61.93,9.2 83.35,31.61 20.51,20.59 26.19,52.28 19.85,79.92 -4.65,20.27 -7.56,40.98 -13.24,61 -3.43,12.35 -11.39,22.64 -17.95,33.24 5.78,15.55 7.12,32.59 3.43,48.79 -4.98,21.84 -8.51,44.02 -14.22,65.69 -8.9,31.63 -34.82,55.9 -64.26,68.87 -22.79,9.96 -48.17,10.93 -72.69,10.54 -91.29,0.02 -182.59,-0.05 -273.9,0.04 1.51,-6.86 2.94,-13.74 4.49,-20.58 -14.15,8.82 -30.16,14.4 -46.56,17.27 -24.9,4.49 -50.32,2.25 -75.48,2.79 -49.77,0.87 -99.55,0.33 -149.34,0.48 -33.58,-0.21 -67.17,0.49 -100.72,-0.5 -57.53,0.04 -115.04,0 -172.55,0.02 -25.34,-0.27 -51.12,1.72 -75.85,-5.04 -24.5,-5.82 -47.02,-20.55 -60.69,-41.91 -19.5,23.81 -47.76,40.71 -78.33,45.17 -18.01,2.98 -36.3,2.15 -54.48,2.26 -87.83,0.04 -175.66,-0.09 -263.48,0.06 28.06,-133.28 56.09,-266.58 84.1,-399.88 89.49,0.16 178.99,0.04 268.48,0.08 7.08,0.06 14.15,0.04 21.23,-0.12 -10.06,-26.4 -16.67,-54.21 -18.42,-82.47 -0.5,-12.18 -0.35,-24.37 -0.35,-36.54zm643.05 50.01c0.25,-3.45 4.71,-2.97 6.94,-4.21 1.8,7.08 2.32,14.46 1.02,21.69 -3.02,10.02 -9.38,19.4 -18.9,24.21 -10.69,6.05 -24.15,5.93 -35.04,0.47 -6.38,-3.36 -11.46,-8.57 -15.53,-14.42 1.4,-0.9 4.19,-2.68 5.57,-3.57 6.86,5.1 12.56,12.87 21.67,13.86 13.92,2.71 28.59,-6.09 33.3,-19.33 2.79,-5.93 0.93,-12.48 0.97,-18.7zm-475.19 -4.25c2.48,0.8 4.99,1.61 7.5,2.44 -0.36,7.78 -2.38,16.31 1.96,23.4 5.8,12.29 20.37,19.35 33.61,16.09 8.24,-1.05 12.97,-8.43 19.39,-12.74 2.26,0.49 4.4,1.38 6.41,2.68 -4.3,5.91 -9.42,11.34 -16.01,14.69 -13.64,6.96 -31.22,4.48 -42.31,-6.06 -7.31,-6.48 -10.86,-15.9 -12.68,-25.24l-1.67 3.22c-0.29,-0.49 -0.85,-1.44 -1.14,-1.92 0.83,-0.43 2.48,-1.3 3.31,-1.73 0.41,-4.96 0.95,-9.9 1.63,-14.83zm420.82 -33.74c10.37,-1.28 20.82,-2.52 31.28,-1.55 -6.14,2.94 -12.87,4.14 -19.52,5.31 -62.37,13.72 -126.38,19.36 -190.19,18.28 -48.61,0.83 -97.24,-2.99 -145.28,-10.53 -17.67,-3.68 -36.05,-5.29 -52.93,-11.88 6.08,-1.49 12.27,-0.23 18.39,0.29 20.63,0.54 41.15,2.87 61.82,2.54 38.01,2.36 76.12,1.9 114.18,1.98 39.45,-0.12 78.91,0.46 118.3,-1.9 21.36,0.23 42.61,-2.12 63.95,-2.54zm111.96 -9.27c15.62,-2.91 30.95,3.41 43.98,11.55 6.82,4.52 13.88,9.13 18.86,15.78 -11.23,-5.25 -22.24,-11.45 -34.58,-13.66 -30.88,-6.42 -62.32,3.08 -90.54,15.25 -27.22,12.39 -53.5,26.67 -80.21,40.11 -22.14,10.09 -45.24,21.26 -70.21,20.17 -14.9,0.43 -29.75,-4.86 -41.05,-14.57 8.7,0.52 16.61,5.15 25.43,5 25.24,1.59 49.17,-8.26 71.56,-18.73 35.26,-16.72 67.79,-39 104.32,-53.03 16.6,-7.02 35.03,-4.67 52.44,-7.87zm-646.65 27.78c16.55,-17.62 40.64,-31.83 65.63,-27.6 12.97,1.91 26.13,2.09 39.08,4.08 16.78,4.23 32.06,12.66 47.45,20.34 33.04,17.13 64.68,37.6 100.21,49.41 12.93,4.01 26.5,6.47 40.1,5.56 8.28,-0.14 15.88,-3.93 24.04,-5.02 -15.3,15.21 -38.89,16.5 -59.04,13.39 -29.6,-6.57 -56.49,-21.24 -83.16,-35.12 -10.5,-6.67 -22.43,-10.5 -33.14,-16.78 -28.34,-13.86 -59.11,-25.48 -91.13,-24.41 -17.91,0.62 -34.52,7.79 -50.04,16.15zm201.25 -670.38c85.02,-8.39 170.73,-9.42 256,-4.32 20.63,2.23 41.48,2.36 61.99,5.74 48.65,5.19 97.09,13.35 144.15,26.94 24.91,7.54 49.74,16.42 71.63,30.84 11.32,8 23.68,18.57 23.6,33.73 -0.09,63.75 0.06,127.5 -0.09,191.23 -0.57,6.23 -0.45,12.47 -0.31,18.69 -6.79,17.46 -23.38,27.87 -38.98,36.59 -6.5,4.27 -14.44,2.25 -21.69,2.43 -21.4,-0.43 -41.54,9.59 -57.8,22.85 -5.43,4.85 -12.93,5.6 -19.74,7.1 -18.72,3.41 -37.27,7.83 -56.15,10.29 -5.25,0.81 -10.14,-1.71 -15.02,-3.2 -8.82,-3.24 -18.4,-2.19 -27.61,-2.37 -16.95,-0.25 -32.31,8.15 -46.96,15.61 -14.07,0.7 -28.09,2.52 -42.2,2.54 -13.31,0.09 -27.45,3.78 -40.1,-2.04 -23.63,-10.17 -51.47,-10.04 -75,0.33 -5.25,2.46 -11.07,3.24 -16.82,2.89 -21.38,-1.34 -42.84,-1.51 -64.14,-3.92 -12.62,-5.64 -24.79,-13.14 -38.79,-14.88 -8.99,-0.85 -18.06,-0.64 -27.06,-0.2 -8.66,0.33 -16.28,6.56 -25.1,5.1 -17.52,-2.46 -34.83,-6.2 -52.2,-9.55 -8.47,-1.9 -17.81,-2.85 -24.5,-8.98 -16.36,-13.65 -37.39,-22.79 -58.98,-21.49 -6.03,-0.06 -12.72,1.49 -18.01,-2.23 -14.19,-8.49 -30.43,-17.04 -37.08,-33.15 -0.78,0.56 -1.55,1.11 -2.33,1.67 -0.03,-3.98 -0.02,-7.93 0.06,-11.89 0.06,-3.56 0.14,-7.11 0.12,-10.64l-1.44 0.18c1.73,-10.66 0.97,-21.46 1.11,-32.18 -0.02,-53.55 0.04,-107.11 -0.06,-160.67 -0.58,-12.07 8.59,-21.75 17.19,-28.98 17.29,-12.3 36.31,-22.27 56.54,-28.74 56.7,-19.68 116.38,-28.4 175.77,-35.32zm-102.57 52.05l0 0c-30.84,6.35 -61.33,15.29 -89.85,28.82 -6.55,3.55 -13.25,7.5 -17.63,13.68 3.64,3.32 7.46,6.5 11.84,8.82 21.03,11.63 44.14,18.79 67.12,25.34 10.02,2.56 19.99,5.85 30.4,6.18 -18.86,-6.47 -37.97,-12.46 -55.98,-21.11 -7.45,-3.7 -15.47,-6.59 -21.77,-12.17 46.37,-20.51 96.41,-30.66 146.21,-38.88 42.1,-6.07 84.45,-10.47 127,-11.69 40.08,-2.42 80.34,-2.27 120.43,0.06 49.39,1.78 98.64,6.94 147.31,15.48 23.63,4.85 47.51,8.79 70.54,16.15 18.01,5.62 36.57,10.37 53.19,19.58 -23.94,14.73 -50.92,23.08 -77.17,32.64 18.65,-1.94 36.54,-8.1 54.24,-14.02 16.3,-4.9 32.27,-11.22 46.9,-19.98 3.45,-1.94 6.28,-4.73 8.82,-7.75 -6.66,-4.93 -13.39,-9.87 -20.93,-13.36 -34.39,-15.78 -71.33,-25.16 -108.45,-31.84 -36.56,-6.87 -73.48,-12 -110.6,-14.43 -22.82,-2.46 -45.77,-3.48 -68.7,-4.07 -19.63,-1.82 -39.39,-1.12 -59.08,-1.24 -16.78,0.1 -33.61,-0.5 -50.36,1.05 -68.26,2.05 -136.59,8.59 -203.48,22.74zm-122.49 69.45l0 0c-0.79,59.78 0.12,119.57 -0.46,179.37 10.5,5.25 21.94,8.32 33.47,10.39 15.51,2.68 31.31,4.73 47.09,3.66 -28.23,-8.6 -54.88,-24.03 -74.63,-46.11 24.13,7.33 49.35,11.63 74.63,11.15 -11.19,-4.64 -22.84,-8.2 -33.3,-14.37 -15.76,-9.09 -31.1,-19.73 -42.63,-33.98 24.19,8.81 50.3,12.95 76.02,11.62 -28.43,-8.18 -54.66,-24.16 -74.8,-45.85 24.17,6.83 49.24,11.9 74.47,10.66 -28.65,-9.07 -55.16,-25.02 -75.69,-47.04 23.78,8.08 49,12.19 74.1,11.73 -8.86,-4.73 -18.76,-7.08 -27.5,-12.08 -19.27,-9.71 -35.82,-23.76 -50.77,-39.15zm680.59 50.01l0 0c24.66,1.92 48.81,-4.46 72.38,-10.76 -17.62,22.13 -43.81,34.99 -69,46.56 23.31,-0.06 46.67,-4.09 68.77,-11.55 -2.77,6.06 -8.41,9.82 -13.28,14.03 -11.05,9.38 -22.95,17.93 -36.15,23.98 -5.41,2.81 -11.69,4.32 -15.93,8.93 23.24,-0.19 46.46,-4.67 68.36,-12.5 0.86,-16.07 -0.23,-32.14 0.76,-48.17 -1.42,-19.36 0.48,-38.73 -0.82,-58.11 -20.89,21.28 -46.05,39.49 -75.09,47.59zm-583.53 -19.68l0 0c7.69,2.62 15.5,4.79 23.39,6.77 64.7,15.91 131.3,22.56 197.75,25.82 75.69,2.52 151.7,0.87 226.88,-8.96 38.42,-5.27 77.03,-11.34 114.04,-23.26 -78.14,12.66 -157.14,20.22 -236.29,21.48 -97.77,1.88 -195.85,-2.08 -292.61,-16.83 -11.07,-1.57 -22.02,-3.91 -33.16,-5.02zm586.97 126.48l0 0c2.03,0.46 4.08,0.76 6.18,0.87 20.97,-0.83 41.38,-5.83 61.64,-10.81 -4.95,7.96 -12.62,13.6 -19.89,19.3 -12.08,9.27 -25.37,16.96 -39.56,22.52 -2.6,0.97 -4.92,2.54 -6.98,4.39 23.8,-0.86 47.94,-4.21 70.13,-13.26 1.03,-19.06 -0.54,-38.17 0.95,-57.2 0.43,-4.4 -0.16,-8.78 -1.51,-12.97 -19.41,21.22 -43.91,37.49 -70.96,47.16zm-761.37 -92.11c12.93,-2.38 25.84,-5.23 39,-5.95 0.39,8.39 0.8,16.82 0.06,25.2 -0.31,2.36 -1.69,3.66 -4.11,3.86 -77.92,12.57 -155.4,29.4 -230.37,54.36 -51.08,17.84 -102.48,38.07 -145.69,71.39 -10.52,9.44 -22.05,18.57 -28.99,31.17 4.88,-2.54 9.2,-6.01 13.31,-9.67 8.41,-7.48 18.01,-13.43 27.76,-18.98 35.26,-21.32 73.89,-36.2 112.66,-49.83 27.5,-8.3 54.64,-17.81 82.7,-24.13 56.49,-14.56 113.86,-25.41 171.47,-34.45 0.74,3.01 1.76,5.97 1.61,9.11 -0.08,13.67 -0.16,27.33 0,41.02 -10.91,8.95 -20.62,19.98 -24.54,33.84 -6.69,21.3 -2.87,46.19 11.16,63.79 3.61,4.79 9.11,7.76 12.62,12.6 1.3,7.25 0.26,14.98 3.49,21.85 6.57,15 19.29,26.51 33.34,34.48 21.56,13.45 45.79,21.61 69.92,29.07 80.73,22.45 164.6,31.31 248.11,34.68 23.22,1.59 46.52,0.74 69.8,0.97 47.93,0.58 95.77,-2.81 143.49,-6.78 39.58,-4.35 79.09,-9.77 118.03,-18.17 36.07,-8.58 72.59,-17.77 105.37,-35.62 15.6,-8.88 31.36,-19.81 39.19,-36.56 4.05,-7.6 3.93,-16.38 4.01,-24.75 30.18,-19.95 36.03,-65.95 14.63,-94.32 -4.26,-5.64 -9.67,-10.27 -14.73,-15.16 0.27,-16.53 -0.15,-33.09 0.26,-49.62 14.03,0.79 27.71,4.26 41.61,6.2 74.69,13.28 149.12,29.56 220.88,54.53 43.16,15.04 85.59,33.18 123.72,58.67 6.05,4.42 11.42,9.91 18.47,12.81 -3.84,-9.18 -12.05,-15.21 -19.07,-21.82 -24.64,-21.6 -54.14,-36.54 -83.68,-50.17 -77.03,-33.78 -159.08,-54.31 -241.36,-70.59 -20.12,-4.29 -40.69,-6.38 -60.63,-11.26 -0.1,-9.29 -0.49,-18.57 0.25,-27.84 21.55,1.82 42.55,7.35 63.89,10.55 77.36,14.79 154.19,33.98 227.56,62.95 30.97,13.05 61.79,27.01 89.61,46.08 23.98,16.14 47.33,35.45 60.34,61.87 11.59,21.71 11.36,49.2 -0.54,70.71 -14.04,27.53 -39.04,47.2 -64.32,63.87 -29.42,18.61 -61.06,33.47 -93.48,46.04 -75.48,29.19 -154.57,47.85 -234.02,62.49 -31.58,5.81 -63.31,10.93 -95.13,15.02 -15.32,2.93 -31,2.87 -46.29,5.76 -61.21,7.25 -122.74,11.64 -184.26,14.94 -31.67,0.47 -63.29,2.97 -94.98,2.31 -23.24,1.53 -46.54,1.03 -69.82,1.03 -27.1,-1.92 -54.31,-0.41 -81.43,-2.2 -16.69,-1.47 -33.49,-0.38 -50.16,-1.97 -123.07,-6.67 -246.08,-20.12 -366.72,-45.9 -73.38,-15.7 -146.13,-36.07 -214.77,-66.76 -25.6,-12.21 -51.15,-25.1 -73.73,-42.45 -22.29,-16.53 -43.3,-37.12 -52.67,-63.85 -7.4,-20.81 -4.43,-44.52 6.77,-63.4 16.73,-29.71 45.3,-50.28 73.89,-67.61 15.53,-8.86 31.01,-18.01 47.8,-24.35 8.55,-3.25 16.38,-8.12 24.98,-11.22 81.63,-32.29 167.42,-52.72 253.73,-67.84zm-374.33 234.29l0 0c7.83,17.01 22.8,29.4 37.06,40.93 36.05,26.97 77.79,44.9 119.73,60.52 77.23,28.07 157.73,45.96 238.57,59.84 165.87,27.48 334.41,36.13 502.35,32.95 143.37,-3.61 286.93,-15.78 427.71,-44 71.52,-14.64 142.56,-33.11 210.17,-60.96 34.58,-14.5 68.62,-31.52 97.62,-55.6 10.33,-9.65 21.42,-19.34 27.31,-32.5 -6.94,4.55 -12.68,10.64 -19.31,15.56 -21.49,16.42 -45.7,28.73 -70.11,40.13 -34.03,15.5 -69.51,27.56 -105.23,38.51 -83.11,24.33 -168.42,40.53 -254.17,52.24 -78.41,10.54 -157.3,17.23 -236.29,20.88 -21.94,1.7 -44,0.93 -65.94,2.48 -100.27,1.88 -200.68,0.44 -300.71,-7.04 -124.89,-9.23 -249.66,-25.72 -371.12,-56.87 -44,-11.36 -87.46,-25 -129.5,-42.27 -29,-12.39 -57.69,-26.08 -83.41,-44.49 -8.76,-6.13 -16.45,-13.57 -24.73,-20.31zm912.13 378.77l0 0c-22.43,13.68 -35.44,38.34 -41.7,63.17 -4.75,19.87 -8.18,40.03 -12.48,59.99 -2.75,12.06 -3.2,24.58 -1.76,36.85 1.84,14.05 9.2,26.48 18.08,37.21 -11.57,0.22 -23.14,0.08 -34.72,0.08 -9.69,46.02 -18.6,92.21 -28.43,138.21 12.71,1.06 25.51,0.27 38.26,0.52 54.91,-0.02 109.83,0.15 164.72,-0.43 28.11,-0.64 56.54,2.06 84.3,-3.53 17.76,-3.52 34.81,-11.76 47.63,-24.71 19.28,-19.79 28.74,-46.91 33.01,-73.73 3.72,-23.75 12.21,-47.18 9.94,-71.51 -1.22,-15.16 -8.57,-29.15 -18.49,-40.41 12,-0.24 24.01,-0.06 36.03,-0.04 9.48,-46.27 18.84,-92.54 28.13,-138.85 -77.4,-0.69 -154.8,-0.09 -232.2,-0.29 -30.68,-0.31 -63.71,0.1 -90.32,17.47zm-759.06 62.12l0 0c-19.07,91.3 -38.4,182.54 -57.57,273.79 81.98,0.25 163.95,0.02 245.9,0.14 14.65,-0.06 29.42,0.02 43.86,-2.79 21.25,-4.05 40.57,-15.92 55.29,-31.58 10.25,-11.32 16.16,-25.93 19.21,-40.74 18.02,-84.11 36.38,-168.13 54.46,-252.2 1.69,-8.63 4.4,-17.08 4.91,-25.9 -116.3,0.18 -232.6,0.33 -348.9,-0.07 -6.59,26.24 -11.23,52.95 -17.16,79.35zm401.84 -62.68l0 0c-24.35,15.08 -38.21,42.31 -44.53,69.47 -10.77,51.73 -21.3,103.54 -32.11,155.28 -3.49,16.51 -7.72,33.51 -4.62,50.43 2.72,18.45 13.79,35.42 29.56,45.36 19.79,12.62 43.98,15.6 66.99,15.62 77.01,-0.17 154.02,0.29 231.01,-0.23 9.68,-46.08 20.01,-91.99 29.99,-138.01 -57.01,-0.04 -114.03,-0.08 -171.04,0.02 4.19,-25.37 10.33,-50.38 15.04,-75.65 57.42,-0.37 114.87,0.15 172.28,-0.28 6.69,-34.29 13.92,-68.5 20.7,-102.79 2.29,-11.84 5.31,-23.57 6.46,-35.6 -78.19,-0.2 -156.41,-0.02 -234.62,-0.08 -28.9,-0.27 -59.76,0.85 -85.11,16.46zm687.76 -16.4l0 0c-24.67,117.52 -49.1,235.1 -74.3,352.5 20.3,1.07 40.65,0.2 60.99,0.49 61.38,0 122.75,-0.02 184.14,0 14.85,-0.08 29.85,0.11 44.48,-2.87 20.51,-3.9 39.04,-15.47 53.33,-30.45 9.42,-10.1 15.25,-23.01 18.22,-36.4 3.95,-18.55 7.77,-37.12 11.74,-55.67 1.69,-8.28 1.88,-16.85 0.87,-25.2 -1.25,-9.19 -6.06,-17.27 -10.85,-25.01 7.27,-6.53 14.54,-13.35 19.31,-22 8.95,-15.19 10.11,-33.18 14.07,-50.02 2.46,-14.81 7.85,-29.41 6.38,-44.63 -0.99,-17.36 -10.22,-34.26 -24.93,-43.76 -18.92,-12.91 -42.45,-16.01 -64.82,-17.04 -79.55,0.04 -159.1,-0.08 -238.63,0.06z"/>
  </g>
 </g>
</svg>
