<?xml version="1.0" encoding="UTF-8"?>
<!DOCTYPE svg PUBLIC "-//W3C//DTD SVG 1.1//EN" "http://www.w3.org/Graphics/SVG/1.1/DTD/svg11.dtd">
<!-- Creator: CorelDRAW -->
<svg xmlns="http://www.w3.org/2000/svg" xml:space="preserve" width="2000px" height="1600px" version="1.1" style="shape-rendering:geometricPrecision; text-rendering:geometricPrecision; image-rendering:optimizeQuality; fill-rule:evenodd; clip-rule:evenodd"
viewBox="0 0 2000 1600"
 xmlns:xlink="http://www.w3.org/1999/xlink">
 <defs>
  <style type="text/css">
   <![CDATA[
    .fil3 {fill:#031B49}
    .fil0 {fill:#BABCBE}
    .fil4 {fill:#FEFEFE}
    .fil1 {fill:#031B48;fill-rule:nonzero}
    .fil2 {fill:#FEFEFE;fill-rule:nonzero}
   ]]>
  </style>
 </defs>
 <g id="Capa_x0020_1">
  <metadata id="CorelCorpID_0Corel-Layer"/>
  <g id="UNF_x0020_Ospreys.cdr">
   <path class="fil0" d="M1567.31 344.08l110.47 0.11 80.33 74.52 0.11 535.28 -200.66 -61.97 -37.57 40.32c-0.09,24.59 0.14,49.17 -0.11,73.76l-0.22 22.57 -21.58 -6.61c-31.03,-9.5 -62.99,-16.77 -94.85,-22.85 -38.98,-7.45 -78.36,-13.13 -117.78,-17.66 -94.49,-10.86 -190.36,-15.34 -285.44,-15.34 -100.24,0 -201.58,4.94 -301.11,17.21 -40.72,5.01 -81.44,11.31 -121.61,19.68 -31.82,6.63 -63.96,14.61 -94.69,25.27l-22.44 7.8 0.18 -104.7 -33.56 -35.23 -184.83 57.89 0.03 -121.83 33.87 -24.3 0.54 -338.44 -34.61 -20.8 0.24 -103.68 258.06 0.13 0.15 -160.25 -21.93 -11.81 0.12 -93.07 1023.45 -0.08 0.18 223.7 65.26 0 0 40.38z"/>
   <path class="fil1" d="M1505.62 346.44l0 -21.5 -7.66 0 0 -4.37 20.53 0 0 4.37 -7.63 0 0 21.5 -5.24 0zm-657.33 488.87l54.46 -2.3c2.17,-0.09 4.06,0.63 5.62,2.13 1.57,1.5 2.36,3.36 2.36,5.53l0 20.09c0,4.11 -3.24,7.41 -7.33,7.65l-42.29 2.57 0.1 22.02 -13.31 0.56 0.39 -58.25zm-228.87 37.16l43.54 -6.85 0.08 37.35 -43.68 6.72 0.06 -37.22zm-12.24 1.12l-0.06 35.27c0,3.42 1.35,6.37 3.94,8.6 2.59,2.22 5.71,3.12 9.09,2.59l45.54 -7.01c5.57,-0.85 9.6,-5.56 9.59,-11.2l-0.08 -35.4c0,-3.41 -1.36,-6.35 -3.96,-8.58 -2.6,-2.21 -5.72,-3.09 -9.1,-2.56l-45.41 7.13c-5.53,0.87 -9.54,5.55 -9.55,11.16zm357.98 -42.48l52.76 0.26c5.83,0.03 10.57,4.79 10.57,10.62l0 14.24c0,5.85 -4.77,10.62 -10.62,10.62l-10.33 0 25.53 22.09 -17.88 -0.14 -25.22 -21.95 -11.06 0 0.06 22.01 -13.73 0.16 -0.08 -57.91zm13.77 9.89l-0.06 15.98 35.63 -0.14 -0.3 -15.46 -35.27 -0.38zm-185.45 9.87l0 2.97 -11.8 3.37 -0.19 -6.56 -37.61 4.1 0 12.06 38.14 -3c3.06,-0.24 5.79,0.71 8.04,2.79 2.26,2.09 3.42,4.73 3.42,7.8l0 15.56c0,5.55 -4.25,10.15 -9.79,10.59l-42.52 3.35c-3.07,0.24 -5.79,-0.7 -8.05,-2.79 -2.25,-2.08 -3.41,-4.73 -3.41,-7.8l0 -4.81 12.26 -3.09 -0.08 6.82 40.51 -3.19 -0.18 -13.85 -38.78 3.06c-3.06,0.25 -5.79,-0.7 -8.05,-2.78 -2.26,-2.09 -3.41,-4.73 -3.41,-7.81l0 -13.61c0,-5.56 4.25,-10.15 9.79,-10.59l40.25 -3.18c3.06,-0.24 5.79,0.71 8.04,2.79 2.26,2.09 3.42,4.73 3.42,7.8zm580.44 19.46l0 2.92 -11.84 0.45 -0.2 -6.52 -37.77 -5.15 0 11.9 38.3 6.36c3.08,0.51 5.82,2.11 8.08,4.72 2.27,2.61 3.43,5.5 3.43,8.53l0 15.34c0,5.48 -4.27,8.98 -9.83,8.05l-42.71 -7.09c-3.07,-0.51 -5.81,-2.1 -8.08,-4.71 -2.26,-2.61 -3.43,-5.5 -3.43,-8.53l0 -4.74 12.32 -0.06 -0.08 6.71 40.68 6.75 -0.18 -13.69 -38.95 -6.46c-3.07,-0.51 -5.81,-2.11 -8.08,-4.72 -2.27,-2.61 -3.43,-5.5 -3.43,-8.53l0 -13.43c0,-5.48 4.27,-8.98 9.83,-8.05l40.43 6.7c3.08,0.51 5.82,2.11 8.08,4.72 2.27,2.61 3.43,5.5 3.43,8.53zm-181.68 -31.4l17.76 2 20.07 24.32 19.86 -19.82 15.64 1.76 -30.13 28.78 -0.08 26.37 -13.41 -2.01 -0.37 -26.07 -29.34 -35.33zm-104.74 -7.03l59.19 3.98 -0.06 10.02 -45.68 -2.86 -0.02 12.36 27.05 2.23 0 9.74 -27.05 -1.89 0.15 15.14 46.85 2.58 -0.02 10.12 -60.37 -2.59 -0.04 -58.83zm-226.35 13.3l-0.14 14.4 36.61 -1.51 0 -14.42 -36.47 1.53zm664.36 -498.76l0 -25.87 7.85 0 4.63 17.64 4.58 -17.64 7.87 0 0 25.87 -4.84 0 -0.02 -20.37 -5.1 20.37 -5.04 0 -5.07 -20.37 -0.02 20.37 -4.84 0zm-1048.44 666l0.15 -87.7 -45.47 -47.74 -172.92 54.17 0.02 -90.21 33.86 -24.3 0.57 -356.63 -34.61 -20.8 0.18 -77.27 258.09 0.13 0.17 -187.2 -21.92 -11.81 0.07 -66.13 989.75 -0.08 0.24 290.19 33.58 -26.15 152.32 0.14 70.1 65.03 0.09 505.05 -188.91 -58.35 -49.28 52.88c-0.17,26.77 0.13,53.51 -0.14,80.27 -111.89,-34.26 -295.48,-56.59 -503,-56.59 -220.38,0 -413.75,25.19 -522.94,63.1zm989.42 -54.56c0.28,-16.98 -0.61,-30.86 0.34,-47.79 12.22,-14.4 25.67,-27.92 38.53,-41.86 -306.13,-79.29 -723.45,-79.5 -1029.11,0.02 11.93,14.51 26.18,26.95 38.19,41.34 0.77,17.45 -0.07,34.94 0.38,52.41 288.96,-66.43 661.76,-67.04 951.67,-4.12z"/>
   <path class="fil2" d="M297.65 415.31l0.18 -14.73 203.15 0 0.18 53.02 -91.11 -0.02 -0.04 134.1 73.48 -10.82 -10.62 67.12 -62.9 10.39c0.01,63.21 0.02,126.43 0.04,189.64 -37.45,11.2 -74.89,22.4 -112.34,33.6l0.32 -17.01 33.2 -22.29 0.56 -21.29 -0.04 -385.03 -34.06 -16.68zm615.81 -256.14l-32.26 -27.06 -84.22 0 -32.25 27.06 0 229.12 32.25 27.06 84.22 0 32.26 -27.06 0 -229.12zm-51.27 10.4c0.36,69.41 0.36,138.91 0,208.32l-46.2 0c-0.36,-69.41 -0.36,-138.91 0,-208.32l46.2 0zm-245.35 -37.39l51.86 145.62 0.37 -124.95 -21.66 -11.58 0 -9.09 71.93 0 0.02 283.17 -54.46 0 -61.33 -181.7 -1.59 181.7 -71.07 0 0 -9.09 21.67 -11.58 0 -235.51 0 -6.28 -21.72 -11.62 0 -9.09 85.98 0zm522.16 361.49l-26.32 -11.61 0 -9.09 86.51 0.01 -0.02 299.87 -86.49 -6.19 -0.01 -11.22 25.55 -11.89 0.78 -249.88zm9.86 -78.32l73.44 0 -0.04 -242.11 35.45 0 -0.06 -41.06 -126.12 0 -0.15 41.1 39.39 0.11 -0.2 221.27 -21.71 11.6 0 9.09zm127.02 0l71.33 0 0.17 -119.78 52.57 -0.14 0.02 119.92 49.49 0 0.16 -283.17 -71.46 0 0 9.09 21.73 11.62 0.06 99.87 -52.61 -0.3 -0.07 -120.28 -71.44 0 0 9.09 21.73 11.62 0.05 241.76 -21.73 11.61 0 9.09zm-333.89 0l71.36 0 0.12 -245.74 47.26 0.61 0 87.23 -28.99 38.57 36.96 119.33 47.77 0 -33.91 -110.97 28.8 -39.28 0.24 -100.22 -38.97 -32.7 -130.7 0 0 9.09 21.73 11.62 0.04 241.77 -21.71 11.6 0 9.09zm288.17 57.61l163.4 0.08 36.5 34.85 -0.1 264.35 -36.5 26.36 -163.2 -22.52 -0.16 -10.98 26.05 -11.08 0.18 -256.76 -26.19 -13 0.02 -11.3zm84.93 272.5l53.02 7.65 -0.02 -236.27 -52.87 0 -0.13 228.62zm169.96 -308.48l46.14 -36.71 124.84 -0.16 45.92 43.08 0.35 432.92 -75.24 -22.83 0.06 -192.64 -40.62 -6.73 40.28 -52.13 0.34 -146.58 -65.96 -0.02 -0.02 379.68 -108.33 -24.8 -0.17 -13.55 32.08 -8.75 0.33 -350.78zm-598.15 35.96l163.04 0.12 36.8 34.83 -0.5 104.3 -33.18 37.23 42.21 115.41 -57.97 -1.6 -43.77 -123.57 33.7 -38.59 -0.02 -83.35 -55.27 -0.9 -0.06 245.98 -85.06 1.87 0.14 -11.12 25.93 -13.61 0.05 -242.7 -26.08 -12.94 0.04 -11.36zm-204.59 30.25l37.84 -30.19 101.23 0.38 36.75 34.03 -0.43 229.36 -35.95 31.43 -102.91 10.57 -36.53 -22.52 0 -253.06zm60.79 232.61l54.4 -4.59c0.68,-71.6 0.13,-142.77 -0.34,-214.41l-53.89 0.1 -0.17 218.9zm-230.86 -262.84l84.77 0.04 0.02 278.95 42.71 -6.11 13.35 -27.75 10.9 -0.92 0.02 69.37 -151.75 27.52 0.16 -10.84 25.55 -18.97 -0.04 -286.99 -25.65 -13.04 -0.04 -11.26z"/>
   <g>
    <path class="fil0" d="M1383.67 1273.41c-3.1,-50.33 -33.16,-101.69 -108.3,-123.12 -0.88,-1.01 -2.53,-2.71 -4.71,-4.37 6.19,-54.98 -24.57,-106.91 -63.44,-143.24 -43.2,-40.36 -109.57,-70.58 -174.15,-73.19 24.86,13.38 68.57,43.34 81.88,64.37 -69.48,-53.8 -162.71,-75.1 -249.15,-65.47 -68.75,7.66 -144.45,43.26 -171.87,115.38 70.49,-49.9 163.4,-70.42 244.57,-51.64 70.09,16.24 132.8,60.58 168.87,123.21 0,0 -5.46,-1.63 -8.66,-4.08 -48.79,-37.17 -91.62,-66.83 -149.39,-65.99 -44.35,0.64 -94.11,28.4 -108.86,74.13 18.96,-7.45 45.93,-11.83 66.22,-11.5 -0.32,6.1 -0.54,12.28 -0.22,18.38 -51.14,0.42 -176.69,4.96 -253.11,78.52 19.87,-3.95 50.37,-5.83 69.42,-5.29 -67.57,27.68 -157.25,83.37 -183.05,169.81 18.32,-13.88 69.79,-37.09 98.03,-47.17 -32.91,32.26 -89.06,105.82 -105.38,197.85 94.91,-129.47 241.91,-189.92 343.13,-211.92 -9.97,-13.25 -27.16,-27.7 -44.87,-38.49 31.7,-9 69.89,-10.99 102.66,-8.21 -2.11,-12.08 -10.96,-31.99 -23.38,-43.58 43.09,-3.22 81.52,18.58 122.57,27.23 37.57,7.93 76.92,3.23 107.68,-21.17 15.67,-2.33 32.43,-3.2 48.03,0.05 12.31,28.47 57.29,14.45 52.65,-15.8 -4.7,-30.82 -45.17,-31.86 -67.86,-23.79 3.82,-7.04 6.78,-13.95 9.12,-20.35 46.28,2.64 96.89,9.15 125.41,50.03 33.55,47.99 26.25,116.56 -9.6,161.07 -53.82,-70.67 -158.89,-76.77 -238.78,-59.02 8.11,-15.5 32.91,-41.7 48.12,-52.05 -44.35,-1.39 -87.47,10.11 -122.13,38.81 -41.8,34.6 -59.45,90.54 -26.21,145.98 3.72,-18.69 17.38,-55.21 32.52,-76.25 0,0 1.19,13.28 3.46,24.51 55.08,-23.28 124.11,-39.3 182.32,-23.91 42.93,11.35 90.11,40.67 95.67,91.7 78.3,-26.66 115.69,-115.44 110.8,-191.42l-0.01 -0.01zm0 0l0 0 0 0z"/>
   </g>
   <path class="fil3" d="M899.61 942.33c-76.62,1.09 -134.75,28.62 -166.7,61.47 121.3,-69.75 321.66,-39.77 398.87,123.64 -9.2,9.5 -32.01,5.04 -43.06,-3.67 -102.62,-80.43 -163.69,-78.36 -221.85,-25.91 0,0 24.54,-7.54 59.12,-5.64 -2.57,8.01 -3.98,16.5 -3.98,25.36 0,8.63 1.34,16.96 3.81,24.81 -38.4,-0.76 -154.94,0.69 -221.62,43.03 0,0 46.45,-5.09 95.9,6.01 0,0 -157.63,32.67 -229.02,142.06 59.66,-35.1 137.45,-44.44 137.45,-44.44 0,0 -91.87,43.85 -141.55,168.42 0,0 92.25,-115.91 277.23,-158.5 0,0 -15.67,-14.94 -53.2,-32.18 63.33,-27.71 118.15,-23.25 118.15,-23.25 0,0 -8.38,-20.35 -39.85,-31.43 0,0 32.47,-20.03 93.05,-5.29 43.86,10.66 94.55,41.86 146.41,17.68 39.88,-18.61 55.26,-53.89 61.82,-77.16 22.77,0.72 57.67,3.87 93.9,14.81 0,0 -3.78,-3.81 -11.16,-9.24 15.49,-76.63 -58.42,-163.25 -167.91,-203.54 56.15,35.58 91.66,82.93 93.28,140.78 -20.51,-43.26 -87.89,-105.18 -144.56,-124.74 -49.18,-16.97 -94.38,-23.65 -134.52,-23.08l-0.01 0zm392.59 231.49c31.01,25.16 49.18,62.01 52.06,91.7 5.98,61.82 -21.46,112.07 -48.9,135.15 -45.2,-84.39 -179.48,-89.19 -262.46,-60.69 9.92,-40.8 37.98,-60.79 37.98,-60.79 -57.56,7.52 -125.49,67.73 -112.61,123.47 0,0 14.49,-49.7 55.33,-71.06 -4.74,11.95 -7.08,26.17 -5.43,43.03 168.77,-65.04 262.7,17.66 275.85,67.73 56.29,-26.31 87.92,-102.07 83.67,-167.94 -2.92,-45.06 -28.68,-83.05 -75.49,-100.6l0 0zm-96.61 22.25c-9.48,0.14 -20.26,2.63 -29.26,9.89 0,0 19.61,-1.34 35.96,5.67 0,0 -1.86,8.18 6.52,11.4 6.49,2.48 12.36,-0.01 14.87,-5.43 2.68,-5.91 1.79,-12.42 -6.73,-17.31 -3.78,-2.15 -11.92,-4.36 -21.36,-4.22l0 0zm30.7 -71.67c-3.37,3.12 -7.73,5.46 -12.64,6.75 2.61,1.04 5.12,2.12 7.49,3.19 2.68,-2.73 4.53,-6.12 5.15,-9.94zm-144.66 39.38c-5.49,6.62 -14.83,11.02 -25.34,11.02 -10.44,0 -19.61,-4.27 -25.11,-10.8 0.35,11.15 11.47,20.12 25.21,20.12 13.81,0 25,-9.08 25.24,-20.34l0 0z"/>
   <path class="fil4" d="M1215.13 1076.36c1.37,11.07 1.41,26.57 -2.54,43.03 5.35,-0.16 9.89,-3.31 12.12,-7.85 1.58,1.67 3.06,3.46 4.19,5.58 3.57,6.68 3.95,14.41 1.65,21.8 2.51,1.34 4.95,2.62 7.21,3.9 7.04,-25.28 -5.36,-50.94 -22.63,-66.46zm-238.32 25.46c-3.39,9.06 -5.32,18.87 -5.32,29.11 0,45.97 37.3,83.23 83.29,83.23 30.12,0 56.49,-16.02 71.16,-40 -12.78,3.7 -23.42,3.14 -33.28,-0.25 -5.29,12.2 -19.48,20.96 -36.27,20.96 -21.26,0 -38.53,-14.07 -38.53,-31.43 0,-3.55 0.75,-6.94 2.06,-10.11 2.43,1.03 5.08,1.6 7.83,1.6 8.48,0 15.69,-5.34 18.54,-12.83 -17.65,-14.41 -38.88,-30.13 -69.48,-40.28l0 0z"/>
  </g>
 </g>
</svg>
