<?xml version="1.0" encoding="UTF-8"?>
<!DOCTYPE svg PUBLIC "-//W3C//DTD SVG 1.1//EN" "http://www.w3.org/Graphics/SVG/1.1/DTD/svg11.dtd">
<!-- Creator: CorelDRAW -->
<svg xmlns="http://www.w3.org/2000/svg" xml:space="preserve" width="2000px" height="1600px" version="1.1" style="shape-rendering:geometricPrecision; text-rendering:geometricPrecision; image-rendering:optimizeQuality; fill-rule:evenodd; clip-rule:evenodd"
viewBox="0 0 2000 1600"
 xmlns:xlink="http://www.w3.org/1999/xlink">
 <defs>
  <style type="text/css">
   <![CDATA[
    .fil0 {fill:black}
    .fil1 {fill:#FEFEFE}
    .fil2 {fill:#85172E;fill-rule:nonzero}
   ]]>
  </style>
 </defs>
 <g id="Capa_x0020_1">
  <metadata id="CorelCorpID_0Corel-Layer"/>
  <g id="Union_x0020_Dutchmen_x0020_.cdr">
   <path class="fil0" d="M863.84 502.55l-0.04 540.74 50.33 58.2 172.5 0.02 51.36 -60.89 -0.04 -536.87 -67.73 -0.02 -0.07 -423.73 534.57 0.06 -0.03 423.64 -65.41 0.03 -0.13 707 -282.05 309.27 -517.9 -0.03 -279.74 -308.06 0.04 -708.18 -64.19 -0.03 -0.03 -423.69 529.92 0.13 -0.18 422.44 -61.18 -0.03z"/>
   <path class="fil1" d="M829.08 467.78l-0.04 588.45 69.2 80.02 204.54 0.02 69.97 -82.95 -0.04 -584.31 -67.74 -0.03 -0.05 -354.22 465.04 0.06 -0.03 354.14 -65.4 0.02 -0.14 728.28 -262.63 287.98 -487.17 -0.02 -260.38 -286.74 0.05 -729.5 -64.19 -0.02 -0.03 -354.18 460.39 0.11 -0.15 352.92 -61.2 -0.03z"/>
   <path class="fil2" d="M464.8 149.55l390.85 0.09 -0.12 283.39 -61.2 -0.02 -0.05 636.17 88.06 101.82 236.59 0.03 88.58 -105.01 -0.05 -631.76 -67.73 -0.02 -0.05 -284.72 395.52 0.05 -0.02 284.64 -65.4 0.03 -0.14 749.54 -243.22 266.7 -456.45 -0.02 -241 -265.4 0.05 -750.82 -64.2 -0.03 -0.02 -284.66z"/>
  </g>
 </g>
</svg>
