<?xml version="1.0" encoding="UTF-8"?>
<!DOCTYPE svg PUBLIC "-//W3C//DTD SVG 1.1//EN" "http://www.w3.org/Graphics/SVG/1.1/DTD/svg11.dtd">
<!-- Creator: CorelDRAW -->
<svg xmlns="http://www.w3.org/2000/svg" xml:space="preserve" width="2000px" height="1600px" version="1.1" style="shape-rendering:geometricPrecision; text-rendering:geometricPrecision; image-rendering:optimizeQuality; fill-rule:evenodd; clip-rule:evenodd"
viewBox="0 0 2000 1600"
 xmlns:xlink="http://www.w3.org/1999/xlink">
 <defs>
  <style type="text/css">
   <![CDATA[
    .fil1 {fill:#113156;fill-rule:nonzero}
    .fil0 {fill:#ACAAA4;fill-rule:nonzero}
   ]]>
  </style>
 </defs>
 <g id="Capa_x0020_1">
  <metadata id="CorelCorpID_0Corel-Layer"/>
  <g id="Utah_x0020_State_x0020_Aggies.cdr">
   <path class="fil0" d="M131.58 567.64c14.7,-11.84 33.58,-17.85 52.41,-17.68 338.46,-0.06 676.95,-0.02 1015.41,-0.02 105.65,-0.26 211.3,0.56 316.93,-0.54 125.16,-0.02 250.32,-0.02 375.5,0 -0.22,42.99 0.91,85.95 0.58,128.93 -67.32,-4.31 -134.62,-8.64 -201.99,-12.05 -0.08,13.28 -0.08,26.56 -0.02,39.86 63.27,4.72 126.54,9.64 189.73,15.44 -0.56,40.44 0.77,80.84 0.4,121.25 -63.09,-9.52 -126.28,-18.6 -189.65,-26.1 0.97,15.67 0.43,31.39 0.56,47.1 69.71,10.41 139.36,21.32 208.56,34.81l0 124.22c-26.69,-8 -54.06,-13.63 -81.14,-20.27 -94.07,-21.79 -189.05,-39.7 -284.62,-53.78 -1.24,-27.72 -0.49,-55.47 -0.73,-83.19 -1.27,-33.71 0.17,-67.47 -1.08,-101.19 0.37,-35.16 -0.47,-70.32 -0.56,-105.48 -31.79,-1.2 -63.63,-1.44 -95.43,-2.37 1.27,27.36 0.32,54.74 0.67,82.11 1.23,32.99 -0.22,66.03 1.06,99.01 -0.37,34.17 0.45,68.3 0.49,102.46 -106.36,-13.71 -213.37,-22.63 -320.55,-26.64 -10.2,-22.51 -20.03,-45.21 -30.53,-67.6 -48.52,-1.81 -97.11,-1.1 -145.68,-1.08 -9.83,22.18 -19.61,44.36 -29.46,66.52 -101.82,2.61 -203.54,8.78 -304.78,19.99 0.11,-92.31 1.28,-184.62 1.56,-276.94 -37.34,1.46 -74.7,2.17 -111.99,4.07 -0.09,13.88 0.04,27.79 -0.09,41.67 -15.78,1.1 -31.6,1.81 -47.4,2.67 16.73,5.24 34.85,11.38 45.42,26.37 8.04,10.69 7.78,24.66 7.46,37.38 -1.34,32.31 0.15,64.67 -1.06,96.98 0.17,10.93 0.43,22.46 -5.13,32.32 -10.61,20.15 -29.17,34.85 -48.44,46.28 -14.07,8.12 -29.34,14.59 -45.46,17.2 -76.01,12.37 -151.46,27.96 -226.54,44.97 -37.3,7.56 -76.21,-24.99 -74.98,-63.08 0.17,-34.55 -0.08,-69.11 0.13,-103.67 13.82,-2.17 27.66,-4.16 41.48,-6.31 -20.59,-9.38 -37.62,-27.55 -42.62,-49.99l0 -158.27c3.08,-21.56 14.23,-42.04 31.58,-55.36zm166.76 -411.63c162.57,-0.02 325.1,-0.04 487.66,0.02 0.11,118.61 -0.06,237.24 0.09,355.86 -7.2,0.33 -14.4,0.41 -21.6,0.35 0,-111.39 0.02,-222.75 -0.02,-334.13 -148.38,-0.05 -296.73,-0.05 -445.11,0 -0.04,111.38 -0.02,222.74 -0.02,334.13 -7.05,0.04 -14.1,-0.02 -21.15,-0.35 0.33,-118.62 0.02,-237.25 0.15,-355.88zm949.61 0c162.54,-0.02 325.1,-0.04 487.66,0.02 0,118.63 0.06,237.24 -0.02,355.86 -7.16,0.33 -14.34,0.41 -21.47,0.35 -0.07,-111.39 -0.03,-222.75 -0.03,-334.11 -148.22,-0.05 -296.42,-0.11 -444.65,0.02 0.02,111.36 0.06,222.72 -0.02,334.09 -7.18,0.06 -14.34,-0.02 -21.49,-0.37 -0.03,-118.6 -0.05,-237.23 0.02,-355.86zm-483.46 804.05c7.11,-0.5 14.25,-0.97 21.36,-1.42 0.46,53.85 0,107.72 0.24,161.59 0.76,23.69 2.29,47.99 11.3,70.19 9.59,24.68 31.75,42.42 56.33,50.96 44.32,15.78 92.19,15.78 138.69,15.63 50.81,-0.69 102.09,2.8 152.41,-6.19 29.62,-5.45 61.05,-15.71 80.21,-40.42 19.6,-25.54 21.75,-59.24 22.81,-90.19 0.09,-53.83 0.15,-107.68 -0.02,-161.51 7.2,0.48 14.38,1 21.6,1.6 0.02,53.22 0.15,106.47 -0.07,159.69 -1.14,36.61 -4.55,76.49 -28.67,106 -23.21,28.41 -59.95,40.59 -94.89,46.86 -35.61,6.47 -71.91,6.6 -108,6.25 -53.79,-0.64 -108.3,3.21 -161.25,-8.58 -33.28,-7.11 -67.71,-21.45 -87.67,-50.4 -20.67,-29.66 -23.26,-67.21 -24.31,-102.2 -0.18,-52.62 0,-105.24 -0.07,-157.86zm-472.76 67.15c9.11,-2.13 18.28,-4.09 27.46,-5.95 0.37,49.47 0.02,98.95 0.17,148.42 0.99,42.68 18.99,83.73 45.79,116.5 26.75,32.91 62.32,57.64 100.11,76.37 76.85,37.08 162.32,51.67 246.76,58.03 43.09,3.69 86.38,2.09 129.56,2.42 131.49,0 262.99,0 394.49,0 73.08,0.97 146.46,-5.39 217.85,-21.24 69.93,-16.08 140.04,-42.81 193.3,-92.41 41.48,-38.85 70.67,-94.61 66.9,-152.54 -0.2,-45.01 0.21,-90.02 -0.22,-135.05 8,1.42 15.95,3.04 23.86,4.87l-2.04 0.5c-0.18,43.95 -0.13,87.9 -0.03,131.88 2.29,41.89 -11.42,83.47 -33.82,118.52 -35.14,54.82 -91.12,93.06 -150.68,117.27 -86.1,34.94 -179.63,46.63 -271.88,50.25 -174.74,0.06 -349.48,0.06 -524.2,0 -89.65,-3.49 -180.36,-14.64 -264.54,-47.12 -58.03,-22.62 -113.28,-57.43 -150.3,-108.44 -27.72,-38.11 -44.58,-85.3 -41.97,-132.74 0.04,-43.63 0.07,-87.24 -0.02,-130.85 -1.64,0.32 -4.92,0.99 -6.55,1.31zm477.61 -152.56c37.79,-75.21 76.25,-150.1 114.73,-224.97 -37.88,-0.36 -75.73,0.85 -113.59,1.02 -0.32,24.92 0.43,49.86 -0.6,74.78 0.15,49.73 0,99.46 -0.54,149.17zm391.86 -225.09c38.8,76.78 77.71,153.52 115.68,230.74 -0.54,-35.03 -0.46,-70.1 -0.41,-105.13 -1.45,-41.07 0.39,-82.2 -1.19,-123.26 -38.02,-1.1 -76.07,-1.23 -114.08,-2.35zm-144.73 26.51c-10.82,23.67 -21.64,47.34 -32.23,71.12 20.74,0 41.48,0.02 62.24,-0.03 -10.05,-23.66 -19.84,-47.46 -30.01,-71.09zm-751 154.76l0 42.57 63.98 -9.1 0.58 -36.84 -64.56 3.37zm-4.33 -170.82l0.02 35.37 71.05 1.66 0.04 -40.44 -71.11 3.41z"/>
   <path class="fil1" d="M949.56 564.45c48.85,0.06 97.67,0.04 146.52,0 58.66,113.62 117.25,227.3 173.04,342.37 -45.64,-3.17 -91.3,-6.26 -137.02,-7.83 -9.92,-22.68 -20.24,-45.16 -30.2,-67.82 -57.92,-2.07 -115.93,-1.42 -173.9,-1.55 -10.07,22.4 -19.9,44.88 -29.83,67.32 -40.6,1.02 -81.21,2.42 -121.76,4.94 56.85,-112.94 114.6,-225.4 173.15,-337.43zm-684.65 -442.41l554.01 0 0 389.64 -32.83 0c-0.15,-118.56 0.02,-237.11 -0.09,-355.65 -162.56,-0.06 -325.1,-0.04 -487.66,-0.02 -0.13,118.56 0.18,237.11 -0.15,355.67l-33.28 0 0 -389.64zm499.58 389.64l-445.15 0c0,-111.2 -0.02,-222.38 0.02,-333.57 148.38,-0.05 296.73,-0.05 445.11,0 0.04,111.19 0.02,222.37 0.02,333.57zm-499.6 521.35c8.94,-1.92 17.89,-3.9 26.84,-5.82 1.63,-0.32 4.91,-0.99 6.55,-1.31 0.09,43.61 0.06,87.22 0.02,130.85 -2.61,47.44 14.25,94.63 41.97,132.74 37.02,51.01 92.27,85.82 150.3,108.44 84.18,32.48 174.89,43.63 264.54,47.12 174.72,0.06 349.46,0.06 524.2,0 92.25,-3.62 185.78,-15.31 271.88,-50.25 59.56,-24.21 115.54,-62.45 150.68,-117.27 22.4,-35.05 36.11,-76.63 33.82,-118.52 -0.1,-43.98 -0.15,-87.93 0.03,-131.88l2.04 -0.5c10.42,2.28 20.87,4.5 31.28,6.83 0,47.56 0.02,95.11 0,142.67 -1.55,42.34 -16.12,83.62 -38.78,119.21 -36.39,57.12 -93.06,98.75 -154.5,125.65 -84.87,37.32 -177.82,51.22 -269.69,56.98l-577.79 0c-88.63,-5.57 -178.11,-18.69 -260.61,-52.95 -62.1,-25.69 -120.18,-65.53 -158.53,-121.58 -28.45,-41.54 -45.76,-91.7 -44.23,-142.36 0,-42.68 0,-85.37 -0.02,-128.05zm54.3 -11.77c146.89,-30.01 295.76,-50.36 445.3,-61.2 0.07,52.62 -0.11,105.24 0.07,157.86 1.05,34.99 3.64,72.54 24.31,102.2 19.96,28.95 54.39,43.29 87.67,50.4 52.95,11.8 107.46,7.94 161.25,8.58 36.09,0.35 72.39,0.22 108,-6.25 34.94,-6.27 71.68,-18.45 94.89,-46.86 24.12,-29.51 27.53,-69.39 28.67,-106 0.22,-53.22 0.09,-106.47 0.07,-159.69 149.26,11.06 297.83,31.51 444.48,61.46 0.43,45.03 0.02,90.04 0.22,135.05 3.77,57.93 -25.42,113.69 -66.9,152.54 -53.26,49.6 -123.37,76.33 -193.3,92.41 -71.39,15.85 -144.77,22.21 -217.85,21.24 -131.5,0 -263,0 -394.49,0 -43.18,-0.33 -86.47,1.27 -129.56,-2.42 -84.44,-6.36 -169.91,-20.95 -246.76,-58.03 -37.79,-18.73 -73.36,-43.46 -100.11,-76.38 -26.8,-32.76 -44.8,-73.81 -45.79,-116.49 -0.15,-49.47 0.2,-98.95 -0.17,-148.42zm466.66 -62.62c11.02,-0.65 22.01,-1.45 33.05,-1.96 0.07,36.54 0,73.05 0.02,109.59 0.07,25.85 -0.49,51.78 1.77,77.58 1.77,16.71 4.81,34.52 15.95,47.78 12.14,13.9 30.35,20.13 47.82,24.16 43.24,9.33 87.71,6.94 131.62,7.27 38.82,-0.31 77.86,1.55 116.41,-4.16 22.29,-3.54 46.3,-8.71 62.9,-25.16 16.06,-17.33 17.51,-42.47 18.91,-64.85 1.59,-57.38 0.3,-114.81 0.77,-172.21 10.91,0.66 21.82,1.35 32.75,2.02 0.17,53.83 0.11,107.68 0.02,161.51 -1.06,30.95 -3.21,64.65 -22.81,90.19 -19.16,24.71 -50.59,34.97 -80.21,40.42 -50.32,8.99 -101.6,5.5 -152.41,6.19 -46.5,0.15 -94.37,0.15 -138.7,-15.63 -24.57,-8.54 -46.73,-26.28 -56.32,-50.96 -9.01,-22.2 -10.54,-46.5 -11.3,-70.19 -0.24,-53.87 0.22,-107.74 -0.24,-161.59zm-601.74 -389.92c77.59,-1.08 155.17,-1.38 232.75,-2.1 22.98,-0.45 46.98,11.43 57.13,32.69 6.4,12.44 3.86,26.77 4.33,40.18 -0.73,15.2 -0.52,30.39 -0.56,45.59 -42.06,1.94 -84.07,4.53 -126.11,6.81 -0.02,-13.19 0.07,-26.38 0.03,-39.58 0.71,-8.64 -9.01,-13.92 -16.62,-13.32 -26.69,1.12 -53.38,2.22 -80.07,3.36 -7.28,0.24 -13.51,7.08 -13.23,14.34 -0.07,18.84 0,37.68 0.02,56.52 37.51,-0.17 75,1.04 112.5,1.19 31.31,1.77 63.34,-1.73 94.01,6.21 14.62,4.03 31.76,12.15 34.47,28.82 0.87,13.67 0.46,27.4 0.16,41.09 -1.06,30.76 0.79,61.58 -1.15,92.3 -3.9,16.08 -16.99,27.92 -29.7,37.55 -14.81,10.74 -31.56,19.73 -49.87,22.36 -69.49,11.04 -138.65,24.1 -207.39,39.08 -7.83,1.62 -15.55,4.08 -23.59,4.21 -26.4,0.88 -51.39,-22.42 -51.3,-49.02 0.04,-27.75 -0.05,-55.47 0.06,-83.19 41.97,-6.64 83.97,-13.43 126.15,-18.67 -0.08,15.99 -0.17,31.99 -0.02,47.98 0.09,6.41 7.4,10.7 13.26,9.32 25.2,-4.08 50.42,-8 75.64,-11.73 7.18,-0.95 14.51,-7.22 13.95,-14.94 0.26,-18.67 -0.54,-37.38 0.69,-56.05 -60.21,1.56 -120.4,5.05 -180.58,7.57 -18.24,-0.95 -34.6,-13.02 -44.35,-27.96 -3.83,-6.12 -6.25,-13.21 -5.9,-20.48 0.09,-41 0.02,-81.98 0.04,-122.96 -0.04,-10.91 -0.58,-22.12 3,-32.57 8.17,-26.19 34.6,-45.92 62.25,-44.6zm933.42 -4.14c40.25,-0.56 80.45,0.9 120.69,0.45 105.63,-0.19 211.24,1.08 316.85,1.1 31.6,1.36 63.25,-0.34 94.85,1.03 74.13,-0.08 148.25,1.34 222.38,1.56 0.5,29.68 0.11,59.39 0.2,89.09 -67.37,-3.64 -134.76,-7.65 -202.19,-9.76 1.12,24.7 0.5,49.45 0.65,74.17 63.25,5.2 126.49,10.41 189.63,16.82 0.16,27.2 0.05,54.39 0.07,81.59 -62.95,-8.77 -125.98,-16.86 -189.14,-23.69 -0.37,27.27 0.39,54.54 0.54,81.81 70.12,10.39 140.05,22.2 209.64,35.76 -0.04,27.94 -0.02,55.88 0,83.79 -108.39,-25.99 -217.94,-47.16 -328.25,-63.24 -0.95,-97.27 -1.21,-194.56 -2.13,-291.84 -44.71,-1.81 -89.46,-2.35 -134.19,-3.26 -0.07,71.66 1.27,143.27 1.07,214.9 0.93,22.21 0.5,44.41 0.46,66.64 -40.49,-4.64 -81.01,-8.93 -121.63,-12.27 -1.23,-30.29 -0.39,-60.62 -0.6,-90.93 -1.08,-33 -0.35,-66.03 -0.56,-99.05 -1.1,-27.49 -0.26,-55.01 -0.58,-82.52 -47.52,-0.8 -95,-1.75 -142.54,-2.18 -11.75,-23.32 -23.11,-46.84 -35.22,-69.97zm-381.67 0.99c64.07,-1.06 128.18,-0.35 192.27,-0.52 -11.38,23.3 -23.41,46.28 -34.92,69.52 -47.41,-0.41 -94.77,1.02 -142.15,1.04 -1.06,54.45 0,108.93 -1.12,163.36 -0.35,34.96 0.78,69.95 -0.65,104.89 -40.68,2.7 -81.35,5.69 -121.92,9.9 0.06,-58.38 0.92,-116.78 0.8,-175.2 1.42,-33.39 -0.5,-66.84 1.14,-100.24 -44.04,0.89 -88.11,2.16 -132.15,3.65 0.03,-25.07 0.03,-50.12 0,-75.19 31.43,-1.43 62.93,-0.35 94.38,-0.65 48.09,-1.06 96.23,-0.37 144.32,-0.56zm479.17 -53.89l0 -389.64 554.01 0 0 389.64 -33.45 0c0.08,-118.56 0.02,-237.09 0.02,-355.65 -162.56,-0.06 -325.12,-0.04 -487.66,-0.02 -0.07,118.56 -0.05,237.12 -0.02,355.67l-32.9 0zm499.09 0l-444.7 0c0.08,-111.18 0.04,-222.36 0.02,-333.53 148.23,-0.13 296.43,-0.07 444.65,-0.02 0,111.17 -0.04,222.35 0.03,333.55zm-757.69 250.6l0 0zm0 0c39.06,0.04 78.13,-0.24 117.19,0.47 -18.93,-44.62 -37.34,-89.46 -56.46,-134 -20.65,44.32 -40.33,89.1 -60.73,133.53z"/>
  </g>
 </g>
</svg>
