<?xml version="1.0" encoding="UTF-8"?>
<!DOCTYPE svg PUBLIC "-//W3C//DTD SVG 1.1//EN" "http://www.w3.org/Graphics/SVG/1.1/DTD/svg11.dtd">
<!-- Creator: CorelDRAW -->
<svg xmlns="http://www.w3.org/2000/svg" xml:space="preserve" width="2000px" height="1600px" version="1.1" style="shape-rendering:geometricPrecision; text-rendering:geometricPrecision; image-rendering:optimizeQuality; fill-rule:evenodd; clip-rule:evenodd"
viewBox="0 0 2000 1600"
 xmlns:xlink="http://www.w3.org/1999/xlink">
 <defs>
  <style type="text/css">
   <![CDATA[
    .fil0 {fill:black}
    .fil2 {fill:#C31F33;fill-rule:nonzero}
    .fil1 {fill:#FEFEFE;fill-rule:nonzero}
   ]]>
  </style>
 </defs>
 <g id="Capa_x0020_1">
  <metadata id="CorelCorpID_0Corel-Layer"/>
  <g id="Utah_x0020_Utes.cdr">
   <path class="fil0" d="M1171.51 80l41.85 0c68.34,2.72 136.27,16.89 199.6,42.83 110.24,44.69 206.03,124.01 270.71,223.84 31.74,48.73 56.12,102.26 71.96,158.24 14.16,49.33 21.12,100.57 22.13,151.84l0 14.14c-1.04,53.89 -8.75,107.75 -24.34,159.41 -26.65,89.72 -75.56,172.65 -140.88,239.67 -62.62,64.7 -140.35,114.71 -225.3,144.62 -119.22,42.32 -252.26,44.36 -372.73,5.79 -114.53,-36.2 -216.96,-109.01 -289.33,-204.83 -19.12,-25.18 -36.17,-51.91 -51.01,-79.82 -2.3,8.53 -4.65,17.04 -6.95,25.57 8.43,29.76 16,59.76 24.59,89.46 13.88,18.48 29.28,35.91 43.64,54.08 -11,13.77 -21.99,27.55 -33.03,41.28 -2.84,3.61 -6.27,7.1 -7.16,11.8 -3.63,14.11 -7.37,28.2 -11.05,42.3 -5.14,4.4 -10.2,8.87 -15.22,13.43 1.55,3.56 3.08,7.16 4.61,10.74 -9.94,14.36 -20.03,28.62 -30.13,42.87 -9.12,-2.7 -17.74,-7.37 -27.24,-8.46 3.56,6.36 8.26,12.02 11.63,18.5 0.91,10.25 0,20.62 0.41,30.91 -8.72,8.5 -18.03,16.37 -26.54,25.09 -11.02,13.95 -21.35,28.45 -32.38,42.39 -13.07,-1.23 -26.18,-2.2 -39.28,-3.04 -2.51,-10.3 -4.29,-20.8 -7.21,-30.98 -12.95,-20.54 -27.98,-39.64 -43.77,-58.06 -3.3,6.62 -4.93,13.85 -7.2,20.85 -7.9,25.1 -15.63,50.27 -23.65,75.35 -6.68,16.32 -13.86,32.43 -20.74,48.67 -6.84,2.26 -13.65,4.58 -20.54,6.76 -6.65,18.5 -12.92,37.12 -19.54,55.64 -9.96,4.44 -20.08,8.55 -29.95,13.19 -6.32,4.46 -10.94,10.87 -16.78,15.93l-34.98 0c-2.41,-10.97 -4.49,-21.98 -6.74,-32.98 -8.09,-4.95 -17.03,-8.59 -24.67,-14.17 -13.45,-21.79 -26.53,-43.87 -39.62,-65.9 -1.87,-11.8 0.98,-23.99 0.18,-35.93 -3.84,-5.01 -8.75,-9.06 -12.62,-14.02l0 -78.3c0.97,-5.19 0.84,-10.48 0.84,-15.74 0.82,-32.85 2.51,-65.68 5.31,-98.42 14.53,-173.16 59.26,-344.82 139.8,-499.23 53.03,-101.24 120.54,-195.76 204.5,-273.7 -6.04,-0.03 -12.08,-0.02 -18.11,-0.02 0,-21.3 -0.02,-42.58 0,-63.86 12.3,0 24.6,-0.03 36.9,0.02 -5.79,-22.64 -12.07,-45.19 -17.57,-67.89 1.17,-6.54 3.69,-12.76 5.38,-19.17 8.9,9.23 17.38,18.86 26.25,28.14 15.62,-25.19 31.45,-50.25 47.22,-75.35 6.72,0.01 13.45,0.01 20.19,0.01 0,44.75 -0.02,89.49 0,134.24 13.55,0 27.11,-0.02 40.66,0 59.23,-83.73 140.63,-151.63 233.83,-194.46 70.16,-32.49 146.87,-50.34 224.07,-53.27z"/>
   <path class="fil1" d="M606.25 397.29c0.43,-2.67 2.96,-3.97 4.71,-5.73 21.15,0.08 42.28,0 63.44,0.05 -51.76,96.85 -74.51,208.66 -65.77,318.05 5.11,66.02 21.62,131.18 48.8,191.58 -5.49,19.97 -10.81,39.98 -16.28,59.96 8.63,31.84 17.45,63.65 25.83,95.56 -1.79,8.38 -4.92,16.43 -7.15,24.7 -5.33,0.34 -10.67,0.5 -16.01,0.94 -3.4,16.97 -7.25,33.86 -10.74,50.83 -11.45,-0.65 -22.92,-0.47 -34.38,-0.82 -7.43,16.79 -15.37,33.38 -22.79,50.19 -15.77,-1.38 -31.52,-3.03 -47.3,-4.29 -2.92,15.83 -5.81,31.66 -9.03,47.43 -10.47,-8.94 -21.01,-17.76 -31.54,-26.59 -1.53,-1.4 -3.24,-2.7 -4.2,-4.56 -17.5,-34.54 -34.38,-69.39 -51.83,-103.97 -3.89,-8.09 -8.13,-16.04 -11.61,-24.29 0.51,-9.49 0.64,-19.07 1.65,-28.48 9.35,-15.91 19.36,-31.43 29.01,-47.17 -0.56,-7.43 -0.7,-14.89 -1.65,-22.27 -4.68,-6.06 -10.12,-11.49 -15.18,-17.22 -0.08,-4.83 -0.08,-9.66 -0.04,-14.5 -8.29,-0.04 -16.55,0 -24.82,-0.03 -0.03,8.19 -0.01,16.39 -0.01,24.57 5.4,5.79 10.42,11.93 15.92,17.64 -0.17,2.49 0.4,5.25 -1.25,7.4 -8.56,13.78 -17.08,27.62 -25.59,41.43 -1.14,1.63 -1.52,3.6 -1.56,5.56 -0.7,13 -1.29,26.02 -2.05,39.02 22.01,44.24 43.88,88.57 65.91,132.79 1.3,2.39 0.28,5.19 0.26,7.76 -1.92,18.63 -3.29,37.35 -5.34,55.96 -14.72,16.58 -30.72,32.07 -45.9,48.28 -5.91,6.47 -12.95,12.1 -17.31,19.85 -4.59,7.5 -9.23,14.97 -13.77,22.5 -3.36,-0.29 -6.73,-0.63 -10.08,-0.96 -7.85,-9.37 -15.45,-18.97 -23.21,-28.43 -6.62,-0.01 -13.24,0 -19.86,-0.01 -9.05,7.3 -18.16,14.51 -27.23,21.8 -1.22,-1.04 -2.45,-2.06 -3.69,-3.07 -0.21,-11.83 -0.24,-23.66 -0.86,-35.47 -15.3,-6.38 -30.62,-12.66 -45.94,-19.01 0.92,-72.78 5.6,-145.61 16.36,-217.63 25.44,-173.67 83.94,-343.74 180.01,-491.24 36.96,-56.75 79.25,-110.22 127.48,-157.85 -3.55,11.49 -5.96,23.37 -10.1,34.66 -10.69,17.74 -21.61,35.37 -32.43,53.06 -2.67,4.3 -4.1,9.19 -5.91,13.9 -12.02,32 -23.97,64.04 -35.89,96.08 -1.37,3.79 -3.21,7.52 -3.55,11.6 -1.74,23.69 -3.32,47.4 -5.16,71.07 -21.48,27.14 -44.17,53.42 -66.03,80.3 0.18,22.6 -0.26,45.23 0.2,67.82 3.85,10.04 9.87,19.12 13.68,29.17 0.15,8.25 -0.89,16.47 -0.91,24.73 8.3,0.49 16.6,0.83 24.9,1.24 0.61,-10.62 1.38,-21.28 1.46,-31.91 -4.57,-10.08 -9.97,-19.81 -14.37,-29.97 -0.36,-17.08 0.04,-34.18 -0.18,-51.27 21.79,-26.81 44.12,-53.22 65.92,-80.04 1.35,-24.11 3.45,-48.19 4.99,-72.29 0.23,-2.64 0.26,-5.32 1.26,-7.81 11.96,-31.97 23.8,-63.99 35.74,-95.97 2.1,-5.55 3.73,-11.35 6.99,-16.38 10.52,-17.04 21.03,-34.11 31.56,-51.16 2.25,-3.32 2.98,-7.32 4.05,-11.1 6.14,-22 12.22,-44.01 18.37,-65.99zm-384.01 959.71c3.87,4.96 8.78,9.01 12.62,14.02 0.8,11.94 -2.05,24.13 -0.18,35.93 13.09,22.03 26.17,44.11 39.62,65.9 7.64,5.58 16.58,9.22 24.67,14.17 2.25,11 4.33,22.01 6.74,32.98l-83.47 0 0 -163zm397.18 -1029.32c11.96,-29.84 24.09,-59.6 36.04,-89.44 -0.02,29.82 0.01,59.65 -0.02,89.47 -12.01,0 -24.02,0.07 -36.02,-0.03zm542.74 -177.96c66.16,-3.87 133.15,5 195.9,26.38 117.73,39.37 219.7,123.17 281.61,230.71 33.6,57.87 55.63,122.45 64.38,188.81 8.66,64.56 4.92,130.75 -11.03,193.92 -24.99,99.89 -81.14,191.58 -158.38,259.6 -81.59,72.58 -186.75,118.07 -295.54,127.57 -76.26,6.87 -154.07,-3.14 -225.89,-29.77 -115.85,-42.42 -215.05,-128.03 -274.17,-236.3 -35.55,-64.64 -56.82,-137.06 -61.89,-210.67 -4.33,-60.78 2.27,-122.33 19.44,-180.79 33.28,-114.68 108.37,-216.38 207.59,-282.7 76.16,-51.32 166.26,-81.68 257.98,-86.76zm-331.36 189.38l0 0c-0.05,62.24 0,124.49 -0.02,186.73 19.12,0.02 38.24,-0.02 57.36,0 -0.02,139.82 0.01,279.62 -0.02,419.44 41.91,46.18 83.75,92.4 125.61,138.63 119.04,0.07 238.08,0.05 357.14,0.02 41.67,-46.31 83.6,-92.38 125.38,-138.6 0.05,-139.82 0,-279.65 0.02,-419.49 19.25,-0.02 38.51,0.02 57.76,0 0.05,-62.2 -0.08,-124.41 0.07,-186.61 -114.73,-0.25 -229.46,-0.02 -344.19,-0.12 -0.03,62.24 -0.01,124.49 -0.01,186.73 12.2,0 24.4,-0.02 36.61,0 0,117.43 0,234.84 0,352.26 -36.21,0.01 -72.41,0.01 -108.6,0 -0.01,-117.42 -0.01,-234.83 -0.01,-352.26 12.2,-0.02 24.4,0.02 36.61,0 0,-62.24 0.01,-124.47 -0.02,-186.71 -114.56,-0.02 -229.13,0.01 -343.69,-0.02zm-287.29 338.23l0 0c-1.15,19.53 -3.12,38.99 -3.97,58.51 2.12,19.72 5.11,39.35 7.49,59.05 8.34,-1.04 16.67,-2.28 25.05,-3.16 -2.49,-18.64 -5.07,-37.27 -7.29,-55.95 0.57,-18.94 3.05,-37.82 3.55,-56.76 -8.28,-0.42 -16.55,-1.25 -24.83,-1.69zm-18.63 167.01l0 0c-0.16,11 0.29,22.01 -0.19,33 -7.6,19.9 -15.64,39.65 -23.44,59.49 -0.74,2.26 -2.34,4.7 -1.02,7.12 5.94,19.12 11.86,38.26 17.77,57.41 1.43,4.62 3.24,9.22 3.45,14.14 2.76,30.65 5.58,61.32 8.41,91.98 8.38,-0.93 16.79,-1.5 25.15,-2.49 -3.35,-32.97 -5.92,-66.01 -9.29,-98.98 -6.23,-21.2 -13.01,-42.26 -19.51,-63.39 7.72,-20.13 16,-40.06 23.66,-60.21 0.59,-12.67 0.07,-25.4 0.21,-38.07 -8.39,0 -16.8,0 -25.2,0zm-202.89 263.09l0 0c-1.02,32.83 -1.61,65.69 -2.16,98.54 -0.91,5.84 5.21,8.73 8.18,12.85 -0.01,11.86 -0.03,23.71 0,35.57 8.42,-0.07 16.85,0.08 25.27,-0.1 -0.11,-15.13 -0.06,-30.26 -0.03,-45.39 -2.75,-2.97 -5.48,-5.94 -8.17,-8.95 0.46,-30.69 1.21,-61.36 1.92,-92.03 -8.33,0.13 -16.67,-0.02 -25.01,-0.49z"/>
   <path class="fil2" d="M830.8 339.1c114.56,0.03 229.13,0 343.69,0.02 0.03,62.24 0.02,124.47 0.02,186.71 -12.21,0.02 -24.41,-0.02 -36.61,0 0,117.43 0,234.84 0.01,352.26 36.19,0.01 72.39,0.01 108.6,0 0,-117.42 0,-234.83 0,-352.26 -12.21,-0.02 -24.41,0 -36.61,0 0,-62.24 -0.02,-124.49 0.01,-186.73 114.73,0.1 229.46,-0.13 344.19,0.12 -0.15,62.2 -0.02,124.41 -0.07,186.61 -19.25,0.02 -38.51,-0.02 -57.76,0 -0.02,139.84 0.03,279.67 -0.02,419.49 -41.78,46.22 -83.71,92.29 -125.38,138.6 -119.06,0.03 -238.1,0.05 -357.14,-0.02 -41.86,-46.23 -83.7,-92.45 -125.61,-138.63 0.03,-139.82 0,-279.62 0.02,-419.44 -19.12,-0.02 -38.24,0.02 -57.36,0 0.02,-62.24 -0.03,-124.49 0.02,-186.73zm-583.38 982.34c7.16,2.92 14.26,5.96 21.43,8.82 1.4,10.25 -0.47,20.96 1.63,31 8.84,8 18.19,15.47 27.19,23.32 12.14,-9.42 24.03,-19.15 36.11,-28.67 7.28,8.68 14.18,17.72 21.65,26.27 12.09,1.42 24.18,2.77 36.25,4.38 8.12,-12.98 15.87,-26.2 24.09,-39.1 7.74,-8.82 16.48,-16.76 24.19,-25.61 -5.08,16.45 -10.14,32.9 -15.41,49.29 -4.96,12.38 -10.61,24.5 -15.63,36.87 -7.16,2.53 -14.47,4.67 -21.68,7.09 -6.21,17.61 -12.4,35.24 -18.47,52.9 -0.74,1.79 -1.05,4.25 -3.28,4.86 -7.16,3.34 -14.55,6.17 -21.72,9.47 -6.79,3.14 -9.72,11.99 -17.25,13.59 -1.84,-8.58 -3.39,-17.22 -5.45,-25.73 -9.46,-5.22 -19.2,-10 -28.31,-15.79 -11.36,-18.13 -22.26,-36.63 -33.13,-55.07 -0.7,-11.78 0.94,-23.69 0.86,-35.53 0.52,-2.57 -1.55,-4.27 -3.03,-5.94 -3.43,-3.7 -6.93,-7.31 -10.34,-11 0.6,-8.46 0.29,-16.94 0.3,-25.42zm431.47 -215.62c2.21,-7.37 4.34,-14.76 6.67,-22.1 5.84,7.01 11.52,14.17 17.39,21.19 -9.6,12.31 -19.6,24.34 -29.11,36.74 -4.86,14.56 -7.47,29.89 -12.35,44.45 -7.17,7.26 -15.29,13.55 -22.86,20.42 1.94,4.91 4,9.78 6.25,14.56 -3.4,5.52 -7.34,10.68 -11.08,15.97 -7.08,-2.38 -14.08,-4.97 -21.17,-7.33 -9.92,8.25 -19.61,16.81 -29.51,25.09 6.03,9.64 12.62,18.93 18.72,28.53 2.74,3.98 1.19,9.12 1.53,13.66 -8.88,8.64 -18.92,16.28 -26.05,26.53 -6.52,8.59 -13.06,17.16 -19.54,25.79 -2.36,-0.12 -4.72,-0.23 -7.06,-0.31 -2.62,-7.6 -2.18,-16.47 -7.6,-22.9 -8.88,-12.26 -16.69,-25.33 -26.62,-36.82 -9.18,-11.19 -18.3,-22.42 -27.5,-33.58 -2.32,0.62 -4.62,1.27 -6.93,1.92 0.98,-9.44 1.69,-18.88 2.67,-28.3 10.1,8.61 20.11,17.35 30.3,25.87 8.23,-0.03 16.46,0 24.7,-0.03 3.15,-16.56 6.28,-33.13 9.43,-49.71 14.01,1.19 28.02,2.49 42.03,3.84 7.94,-17.03 15.79,-34.1 23.58,-51.2 12.87,-0.51 25.72,0.66 38.59,0.29 3.93,-17.3 7.34,-34.71 11.21,-52 4.77,-0.08 9.54,-0.3 14.31,-0.57z"/>
  </g>
 </g>
</svg>
