<?xml version="1.0" encoding="UTF-8"?>
<!DOCTYPE svg PUBLIC "-//W3C//DTD SVG 1.1//EN" "http://www.w3.org/Graphics/SVG/1.1/DTD/svg11.dtd">
<!-- Creator: CorelDRAW -->
<svg xmlns="http://www.w3.org/2000/svg" xml:space="preserve" width="2000px" height="1600px" version="1.1" style="shape-rendering:geometricPrecision; text-rendering:geometricPrecision; image-rendering:optimizeQuality; fill-rule:evenodd; clip-rule:evenodd"
viewBox="0 0 2000 1600"
 xmlns:xlink="http://www.w3.org/1999/xlink">
 <defs>
  <style type="text/css">
   <![CDATA[
    .fil0 {fill:#A7A9AC}
    .fil1 {fill:#004712;fill-rule:nonzero}
    .fil2 {fill:#E8D666;fill-rule:nonzero}
    .fil3 {fill:#FEFEFE;fill-rule:nonzero}
   ]]>
  </style>
 </defs>
 <g id="Capa_x0020_1">
  <metadata id="CorelCorpID_0Corel-Layer"/>
  <g id="Utah_x0020_Valley_x0020_Wolverines.cdr">
   <path class="fil0" d="M1459.94 637.85c-3.8,22.17 -9.32,43.79 -21.06,63.3 -3.95,6.57 -8.48,12.78 -13.52,18.55 1.17,2.87 2.13,5.82 2.85,8.82 30.65,-6.05 61.18,-12.53 91.59,-19.82l40.6 -9.74 -17.97 37.69c-31.92,66.98 -63.61,134.08 -95.23,201.21 -15.25,32.38 -30.47,64.78 -45.33,97.34 18.29,-2.4 36.59,-4.83 54.89,-7.2 48.54,-108.25 97.02,-216.54 145.64,-324.76 3.2,-8.61 10.67,-14.71 19.74,-16.09l277.86 -65.29 -229.96 496.62c-1.93,4.18 -4.49,8.08 -7.58,11.5 -34.17,37.82 -68.32,75.67 -102.46,113.52l-5.1 5.64 -7.56 0.82c-117.43,12.69 -234.23,30.52 -351.57,43.91l-13.84 1.58 -6.24 -12.46c-22.03,-43.97 -44.56,-87.68 -66.75,-131.57 -54.27,78.55 -108.42,157.2 -162.71,235.74l-5.52 7.99 -9.7 0.58c-78.87,4.66 -157.49,12.8 -236.02,21.41l-26.41 2.89 4.62 -26.17c10.19,-57.66 20.53,-115.29 30.87,-172.93 -6.26,13.69 -12.52,27.37 -18.8,41.04l-0.1 0.21 -0.1 0.21c-1.89,3.87 -4.31,7.47 -7.09,10.76l-0.18 0.22 -0.19 0.21c-31.27,34.92 -62.57,69.81 -93.74,104.83l-4.85 5.45 -7.22 1.03c-92.3,13.19 -184.73,25.51 -277.03,38.75 -33.32,4.78 -66.89,7.09 -100.38,10.37l-13.63 1.34 -6.13 -12.25c-23.31,-46.61 -47,-93.02 -70.35,-139.6l-4.28 -8.55 3.98 -8.68c30.71,-67.05 60.09,-134.69 90.12,-202.04 18.03,-40.44 35.95,-80.94 53.89,-121.42l4.26 -9.61 10.34 -1.91c79.11,-14.62 158.23,-29.25 237.35,-43.85l38.12 -7.03 -16.47 35.09c-40.82,87.02 -81.3,174.2 -121.97,261.29 24.48,-2.45 48.95,-4.93 73.42,-7.44 9.8,-21.49 19.6,-42.98 29.43,-64.46 -10.66,1.4 -21.31,2.8 -31.98,4.15l-35.57 4.53 14.94 -32.6c29.11,-63.5 58.35,-126.94 87.3,-190.51l4.34 -9.53 10.31 -1.84c10.93,-1.94 21.88,-3.79 32.84,-5.62 -16.51,-24.74 -29.85,-51.43 -40.37,-79.25 0.03,4.85 0.29,9.7 0.9,14.5l9.01 69.93 -44.28 -54.87c-39.71,-49.21 -70.84,-105.06 -93.99,-163.82 -21.2,-53.79 -34.78,-110.58 -39.78,-168.2l-0.59 -6.8 3.71 -5.73c14.46,-22.38 31.35,-42.83 48.47,-63.14 -20.67,-15.74 -39.64,-33.66 -54.46,-55.2 -14.42,-20.96 -23.95,-46.11 -22.36,-71.85l0.26 -4.21 1.94 -3.74c4.41,-8.5 10.96,-13.47 18.72,-18.58l0.3 -0.19 0.31 -0.19c20.52,-12.45 43.77,-17.35 67.3,-20.22 34.34,-4.2 68.96,-3.32 103.41,-0.99 2.83,0.18 6.94,0.88 9.41,0.79l0.23 -0.08c29.21,-11.24 58.04,-23.44 87.59,-33.77 68.4,-23.93 140.38,-36.03 212.55,-40.69 63.81,-4.12 128.15,-3.99 191.4,6.42 40.28,6.63 79.82,17.58 117.78,32.61 30.5,12.07 59.51,27.61 87.31,44.99 27.74,17.35 54.49,36.45 78,59.31l0.15 0.14 0.15 0.15c11,11.16 21.22,22.8 28.29,36.88 1.95,3.38 3.12,7.1 3.49,11.01 0.41,4.21 -0.18,6.78 -0.76,10.14 5.91,14.75 12.09,29.77 20.38,43.37 1.27,0.35 2.57,0.68 3.86,1.13 22.94,7.44 45.44,16.29 67.09,26.93l0.19 0.09 0.18 0.09c13.56,7.01 26.53,13.75 37.45,24.71 10.45,10.48 11.49,22.43 12.53,36.19l0.03 0.49 0.02 0.49c0.78,30.44 -5.61,60.62 -15.29,89.35 -5.29,16.89 -13.94,32.6 -25.24,46.19zm-436.05 143.6c-35.08,-10.99 -74.64,-8.2 -107.46,8.58 -16.74,8.56 -31.25,20.85 -43.18,35.32 33.17,-5.13 66.32,-10.41 99.51,-15.49l27.41 -4.19 -4.77 27.32c-7.82,44.8 -15.65,89.6 -23.49,134.4 34.2,-50.58 68.47,-101.11 102.71,-151.67 -13.1,-15.85 -30.32,-28.48 -50.21,-34.12l-0.26 -0.07 -0.26 -0.08z"/>
   <path class="fil1" d="M854.21 187.06c62.27,-4.07 125.17,-4.04 186.88,6.2 38.89,6.32 77.14,16.68 113.68,31.46 29.49,11.36 57.26,26.74 84.08,43.37 26.45,16.68 52.21,34.85 74.68,56.7 9.6,9.73 18.93,20.11 25,32.46 3.55,5.44 -2.37,11.73 1.05,17.34 7.03,17.57 14.32,35.28 24.57,51.24 2.5,4.53 8.12,4.72 12.45,6.37 22.11,7.15 43.82,15.68 64.69,25.93 11.45,5.92 23.25,11.88 32.49,21.07 6.1,6.2 6.16,15.5 6.77,23.63 0.72,28.15 -5.35,56.1 -14.32,82.67 -5.03,16.17 -13.67,31.04 -25.03,43.55 -3.41,21.35 -7.98,43.1 -19.39,61.82 -5.64,9.62 -12.95,18.21 -21.26,25.63 8.09,10.04 11.77,23.67 7.66,36.2 39.87,-7.61 76.76,-15.15 116.24,-24.63 -31.93,67.01 -63.64,134.13 -95.28,201.3 -20.36,43.25 -40.68,86.52 -60.16,130.18 33.8,-4.29 67.56,-8.88 101.36,-13.21 50.19,-111.9 100.31,-223.86 150.57,-335.75 0.65,-2.2 2.37,-3.64 4.7,-3.79l239.08 -56.18 -212.76 459.49c-1.11,2.35 -2.57,4.55 -4.29,6.51 -34.19,37.79 -68.32,75.68 -102.47,113.53 -117.47,12.69 -234.31,30.52 -351.69,43.92 -22.87,-45.64 -46.27,-91 -69.28,-136.58 18.35,-40.61 36.52,-81.33 54.66,-122.03 -83.34,119.9 -166.03,240.26 -249.05,360.37 -79.22,4.68 -158.17,12.86 -237.02,21.5 19.28,-109.11 39.13,-218.15 58.39,-327.26 -28.31,61.05 -55.93,122.43 -84.05,183.57 -1.16,2.39 -2.68,4.61 -4.4,6.65 -31.28,34.94 -62.6,69.85 -93.77,104.87 -92.32,13.19 -184.7,25.9 -277.05,38.75 -32.97,5.13 -66.3,7.02 -99.49,10.27 -23.31,-46.6 -47.01,-93.03 -70.36,-139.61 30.75,-67.12 60.04,-134.86 90.21,-202.22 17.92,-40.51 35.96,-80.97 53.91,-121.47 79.12,-14.61 158.22,-29.25 237.34,-43.84 -45.78,97.6 -91.14,195.41 -136.82,293.07 39.92,-3.98 79.83,-8 119.71,-12.1 16.32,-35.83 32.67,-71.65 49.08,-107.43 -22.53,2.76 -45.01,5.83 -67.54,8.7 29.12,-63.53 58.36,-126.98 87.32,-190.57 21.53,-3.83 43.12,-7.3 64.67,-10.91 -45.05,-55.17 -70.39,-124.04 -81.27,-193.87 -7.23,27.02 -11.56,54.81 -13.65,82.71 -0.83,11.52 -1.11,23.14 0.37,34.63 -38.44,-47.64 -68.56,-101.75 -90.96,-158.62 -20.5,-52 -33.63,-106.9 -38.46,-162.61 17.85,-27.62 39.72,-52.39 60.84,-77.55 -25.4,-17.33 -49.58,-37.42 -67.15,-62.9 -11.86,-17.31 -20.2,-38.05 -18.89,-59.32 2.57,-4.96 7.44,-8.12 11.97,-11.1 17.91,-10.86 38.92,-14.8 59.38,-17.48 33.08,-3.87 66.49,-3.13 99.66,-0.89 6.01,0.16 12.38,2.07 18.13,-0.58 29.01,-11.15 57.59,-23.47 87.02,-33.55 66.62,-23.52 136.9,-35.12 207.25,-39.61zm244.8 628.17c-16.33,-24.68 -40.42,-44.64 -69.17,-52.8 -40.05,-12.55 -85.06,-9.42 -122.48,9.86 -33.36,16.91 -58.85,46.64 -74.52,80.21 12.08,-1.4 23.81,-4.66 35.86,-6.29 35.7,-5.49 71.37,-11.19 107.07,-16.65 -13.17,75.46 -26.38,150.92 -39.59,226.38 54.11,-80.34 108.54,-160.5 162.83,-240.71z"/>
   <path class="fil2" d="M648.9 271.92c106.56,-48.86 225.35,-70.64 342.3,-63.48 49.19,3.26 98.45,11.62 144.57,29.49 47.34,18.24 91.74,44.12 131.03,76.22 6.81,5.29 14.41,11.56 14.4,21.03 -3.89,-0.77 -7.72,-1.81 -10.97,-4.12 -12.6,-8.29 -24.5,-17.63 -37.37,-25.51 -14.65,-9.23 -30.19,-16.95 -46.01,-23.96 16.83,13.78 32.82,28.9 45.45,46.71 5.83,8.47 11.75,17.71 12.4,28.29 0.31,9.21 -6.24,17.15 -14.01,21.36 -8.51,4.65 -18.18,8.09 -27.95,7.64 -4.57,-1.92 -7.27,-6.34 -10.14,-10.13 -11.41,-16.78 -19.63,-35.49 -30.67,-52.48 -1.74,-2.26 -3.13,-5.35 -6.2,-5.96 -2.48,6.08 2.43,11.63 4.31,17.16 5.81,14.79 12.12,30.36 10.84,46.55 -3.7,-0.15 -7.6,-0.02 -10.84,-2.09 -9.67,-5.4 -17.02,-13.95 -24.14,-22.28 -13.61,-16.55 -27.25,-33.11 -41.51,-49.11 -11.42,-12.6 -22.92,-25.29 -36.56,-35.52 -17.53,-12.67 -37.99,-20.63 -58.68,-26.49 -40.62,-11.06 -83.23,-14.13 -125.15,-10.92 27.51,9.44 55.5,20.63 77.54,40.13 -99.2,-22.79 -202.85,-20.15 -302.64,-2.53zm-192.19 25.17c17.45,-4.79 35.61,-5.66 53.6,-6.06 44.17,0.57 88.05,7.21 131.16,16.55 -13.25,5.83 -27.79,9.97 -42.38,8.53 -27.61,-2.53 -55.41,-4.81 -83.12,-2.66 -11.34,1.27 -25.11,2.85 -31.58,13.63 -4.29,7.92 2.61,16.95 9.65,20.37 15.84,1.7 31.8,2.29 47.68,3.72 -5.29,9.43 -7.85,20.99 -3.81,31.39 15.91,-5.6 32.83,-9.91 49.82,-7.81 -21.8,22.48 -41.92,48.44 -50.42,79.07 21.04,-18.52 43.88,-35.15 69.04,-47.64 33.6,-17 70.16,-27.28 106.97,-34.53 -41.42,22.34 -82.66,47.34 -113.85,83.22 -27.06,30.23 -45.08,68.51 -50.11,108.84 5.96,-5.64 11.65,-11.55 17.48,-17.32 21.68,-21.01 46.41,-39.01 73.68,-52.07 39.28,-19.17 82.45,-28.84 125.56,-34.6 -17.33,10.94 -33.5,23.64 -48.93,37.11 -19.63,17.45 -38.3,36.43 -52.3,58.76 -21.94,34.63 -21.77,79.97 -5.79,116.93 7.03,-24.59 15.63,-49.91 33.35,-69 30.73,-32.99 73.58,-51.6 116.38,-63.2 -13.76,23.59 -27.04,48.14 -31.74,75.37 -7.68,39.57 2.03,80.14 17.78,116.49 1.75,-23.4 4.57,-46.99 12.34,-69.24 4.66,-12.89 11.21,-26.03 22.86,-33.95 -5.9,46.64 0.69,95.48 21.55,137.82 -21.18,27.16 -40.29,57.07 -49,90.74 -3.55,0.61 -7.07,1.24 -10.6,1.89 -40.29,-30.23 -69.97,-74.24 -82.32,-123.11 -2.04,-7.74 -3.54,-15.6 -5.04,-23.44 -3.92,19.72 -2.68,40.05 0.28,59.82 3.87,24.18 10.29,47.92 18.56,70.93 -4.55,9.73 -9.2,19.43 -13.4,29.32 -9.23,1.43 -18.46,2.92 -27.65,4.53 -19.19,-14.94 -38.02,-30.56 -54.24,-48.74 -18.67,-20.52 -34.06,-43.99 -45.48,-69.28 -15.57,-34.19 -24.03,-71.22 -28.36,-108.43 -2.07,-15.98 -2.29,-32.11 -3.79,-48.13 -11.91,33.22 -26.23,65.93 -31.93,101.01 -47.84,-58.69 -82.02,-129.58 -91.92,-205.02 0.22,-7.08 6.36,-12.26 10.28,-17.7 24.24,-27.9 51.14,-53.46 79.55,-77.05 -19.81,-9.16 -37.29,-22.7 -52.83,-37.91 -15.27,-15.41 -29.07,-32.89 -36.84,-53.35 8.07,-8.19 18.93,-12.84 29.86,-15.8zm605.95 132.46c35.48,-8.86 72.78,-6.12 108.21,1.53 29.93,6.24 59.12,15.42 88.83,22.59 -5.59,3.94 -12.23,8.33 -13.14,15.71 -0.46,4.51 3.82,7.25 6.59,10.06 12.23,10.14 25.44,19.06 37.67,29.21 16.37,13.71 31.58,28.79 45.58,44.9 -4.11,-18.78 -6.81,-37.81 -9.84,-56.77 24.19,15.57 39.1,42.56 44.04,70.46 1.39,7.97 2.89,16.98 -2.09,24.07 -11.35,18.42 -27.02,33.61 -40.03,50.83 -36.44,-0.81 -71.85,-13.68 -101.89,-33.98 0.9,-25.1 1.27,-51.13 -6.92,-75.22 -12.73,16.73 -26.09,33.25 -42.55,46.45 -20.35,-21.47 -35.95,-47.63 -43.92,-76.18 -5.62,-19.66 -7.75,-40.2 -7.33,-60.62 -41.73,5.16 -82.43,20.17 -116.52,44.96 -43.05,31.06 -75.35,75.44 -95.94,124.09 -13.36,31.97 -22.77,66.01 -23.96,100.8 25.92,-23.86 59.39,-37.53 93.07,-46.3 36.59,-9.29 74.54,-12.34 112.22,-11.91 50.1,0.55 100.19,6.32 149.03,17.66 30.56,7.23 60.83,16.25 89.61,28.94 15.95,6.69 30.12,18.37 38.56,33.59 3.73,6.55 4.46,16.22 -2.04,21.33 -6.95,5.53 -16.52,5.03 -24.92,5.11 -4.75,27.74 -19.79,53.05 -39.81,72.57 -21.2,21.98 -48.99,37.92 -79.18,43.29 22.28,-17.21 43.07,-37.07 57.74,-61.29 4.13,-6.6 6.99,-13.88 9.12,-21.33 -24.23,31.5 -56.85,56.7 -93.51,72.04 13.81,-16.27 28.98,-32.8 34.65,-53.93 -20.69,23.64 -48.58,39.29 -76.92,51.98 -3.37,-37.33 -13.42,-74.86 -34.69,-106.13 -7.64,-11.8 -17.3,-22.05 -26.55,-32.57 14.49,-6.11 30.21,-8.2 45.68,-10.42 16.52,-2.29 33.17,-3.24 49.83,-3.68 -0.11,-6.94 -7.49,-8.9 -13.09,-9.66 -42.13,-7.42 -85.21,-9.34 -127.83,-5.92 -36.45,2.89 -72.3,11.47 -106.63,23.9 -16.52,6.02 -32.32,13.9 -47.22,23.22 -3.95,2.55 -9.32,4.64 -13.56,1.41 -7.62,-5.59 -10.56,-15.19 -13.59,-23.74 -11.9,-35.24 -9.36,-74.16 2.74,-109 16,-45.97 45.6,-86.28 81.04,-119.23 31.19,-28.61 67.97,-52.65 109.46,-62.82zm322.28 157.71c19.7,-12.01 40.02,-23.79 56.3,-40.5 -7.92,13.93 -15.34,28.34 -25.7,40.66 16.78,-10.5 34.04,-21.05 47.23,-36.03 -8.88,25.25 -20.17,51.24 -41.44,68.57 -21.85,16.34 -49.45,23.28 -76.33,24.52 14.21,-18.45 26.68,-38.13 39.94,-57.22z"/>
   <path class="fil3" d="M966.21 336.94c3.12,-0.02 6.12,1.02 9.12,1.78 18.77,5.32 37.27,11.54 55.66,18.07 6.49,11.47 13.69,22.51 20,34.08 -15.54,1.51 -31.1,3.01 -46.51,5.66 -10.47,-11.01 -20.35,-22.59 -29.43,-34.76 -4.14,-5.76 -8.4,-11.6 -10.82,-18.32 -1.11,-2.22 -1.26,-6.12 1.98,-6.51zm-381.09 587.97c66.02,-10.69 132.03,-21.48 198.07,-31.99 -49.24,110.19 -98.49,220.35 -147.74,330.52 -2.09,4.58 -3.7,9.56 -7.19,13.31 -26.7,29.72 -53.32,59.46 -79.88,89.28 -110.48,14.76 -220.98,29.47 -331.49,44.16 -16.84,-32.06 -32.6,-64.67 -49.21,-96.86 42.62,-95.55 85.22,-191.1 127.83,-286.67 45.08,-8.71 90.28,-16.93 135.38,-25.51 -43.81,95.47 -87.39,191.06 -131.14,286.57 71.44,-7.25 142.88,-14.37 214.31,-21.7 29.77,-65.41 59.72,-130.75 89.58,-196.13 -22.43,2.85 -44.88,5.61 -67.31,8.53 16.34,-37.81 32.49,-75.7 48.79,-113.51zm288.15 279.64c81.61,-117.86 163.36,-235.65 244.96,-353.53 14.4,33.97 21.5,70.87 21.56,107.72 16.37,-5.56 32.5,-11.8 48.24,-18.9 -92.25,134.12 -184.73,268.07 -276.95,402.23 -58.92,3.76 -117.7,9.53 -176.39,15.58 15.52,-87.58 31.09,-175.14 46.61,-262.7 11.36,-69.16 24.7,-138.02 36.71,-207.1 37.92,-6.21 75.83,-12.45 113.73,-18.75 -19.51,111.81 -39.22,223.6 -58.47,335.45zm778.21 -461.51c46.32,-10.62 92.54,-21.77 138.84,-32.48 -58.13,126.53 -116.33,253.05 -174.73,379.46 -11.45,14.37 -24.56,27.41 -36.63,41.27 -17.98,20 -36.13,39.83 -53.98,59.92 -102.69,13.06 -205.4,25.99 -308.09,38.87 -15.65,-31.16 -31.5,-62.2 -47.34,-93.26 38.94,-84.52 78.18,-168.92 117.16,-253.44 0.83,-2.22 2.46,-3.94 4.33,-5.35 28.23,-22.11 53.76,-47.58 76.42,-75.35 27.38,-4.47 54.76,-9.08 82.17,-13.37 -49.41,106.94 -99.15,213.74 -148.21,320.85 65.61,-8.69 131.25,-17.22 196.89,-25.84 51.07,-113.75 101.78,-227.67 153.17,-341.28zm-295.67 -60.83c23.77,-9.06 45.65,-22.29 67.31,-35.5 -6.43,21.28 -19.61,40.35 -36.37,54.84 -9.45,-7.72 -20.07,-13.88 -30.94,-19.34zm-200.37 -43.01c19.37,-21.05 40.21,-41.08 56.13,-65 -0.99,24.51 -4.8,48.87 -10.85,72.63 -14.98,-3.09 -30.1,-5.59 -45.28,-7.63zm-22.91 -73.2c8.27,10.66 17.15,20.85 26.88,30.19 -9.39,8.23 -19.2,15.97 -28.91,23.79 -0.17,-18 -0.13,-36.07 2.03,-53.98zm-165.47 70.34c22.42,-29.25 45.52,-59.09 75.97,-80.46 0.02,19.76 1.43,39.67 6.15,58.89 20.88,-16.49 42.47,-32.06 64.21,-47.4 -0.3,22.76 1,45.51 2.42,68.23 -44.4,-2.48 -89.31,2.03 -131.96,14.89 -26.84,7.82 -52.5,19.05 -77.95,30.47 9.1,-37.15 25.92,-72.48 49.98,-102.3 2.17,19.46 4.43,39.18 11.18,57.68zm78.08 -125.87c16.75,-2.5 33.75,-1.82 50.6,-1.13 7.75,11.89 14,24.71 22.07,36.46 -22.48,13.69 -42.35,31.1 -62.31,48.12 0.97,-21.68 3.2,-43.27 4.83,-64.9 -35.63,9.34 -65.34,34.26 -86.02,64.14 -2.18,-10.66 -2.2,-21.57 -2.48,-32.39 15.82,-16.08 33.65,-30.19 53.19,-41.44 6.36,-3.65 12.71,-7.83 20.12,-8.86zm213.49 -110.95c7.36,-1.48 14.72,-2.97 22.16,-4.1 3.59,5.9 7.36,11.69 11.1,17.5 -7.98,-1.48 -16.06,-2.39 -23.88,-4.51 -3.69,-2.34 -6.5,-5.7 -9.38,-8.89zm48.02 -9.5c2.26,-0.58 4.53,-1.13 6.83,-1.71 6.36,8.87 9.89,19.58 10.08,30.49 -9.69,-1.79 -19.39,-3.51 -29.06,-5.35 3.9,-7.88 8.19,-15.57 12.15,-23.43zm-241.36 -20.24c14.15,5.83 28.47,11.56 41.44,19.79 -17.76,-1.16 -35.54,-0.15 -53.26,1.08 3.96,-6.94 7.9,-13.9 11.82,-20.87z"/>
  </g>
 </g>
</svg>
