<?xml version="1.0" encoding="UTF-8"?>
<!DOCTYPE svg PUBLIC "-//W3C//DTD SVG 1.1//EN" "http://www.w3.org/Graphics/SVG/1.1/DTD/svg11.dtd">
<!-- Creator: CorelDRAW -->
<svg xmlns="http://www.w3.org/2000/svg" xml:space="preserve" width="2000px" height="1600px" version="1.1" style="shape-rendering:geometricPrecision; text-rendering:geometricPrecision; image-rendering:optimizeQuality; fill-rule:evenodd; clip-rule:evenodd"
viewBox="0 0 2000 1600"
 xmlns:xlink="http://www.w3.org/1999/xlink">
 <defs>
  <style type="text/css">
   <![CDATA[
    .fil2 {fill:#002C61;fill-rule:nonzero}
    .fil1 {fill:#A9AEB7;fill-rule:nonzero}
    .fil3 {fill:#EB793C;fill-rule:nonzero}
    .fil0 {fill:#FEFEFE;fill-rule:nonzero}
   ]]>
  </style>
 </defs>
 <g id="Capa_x0020_1">
  <metadata id="CorelCorpID_0Corel-Layer"/>
  <g id="UTEP_x0020_Miners.cdr">
   <path class="fil0" d="M991.44 521.2c7.73,-3.14 15.36,-6.46 23.02,-9.76 10.91,9.83 21.35,20.18 32.28,29.97 3.84,-6.75 7.47,-13.63 11.22,-20.42 8.45,9.46 17.61,18.33 25.71,28.1 2.34,12.29 2.2,24.96 4.84,37.18 6.23,13.27 16.74,23.83 25.31,35.56 19.81,27.09 38.87,54.74 58.79,81.76 8.92,5.83 22.34,3.3 29.62,12.32 29.22,31.09 56.38,64.13 82.44,97.89 -2.11,-9.51 0.91,-20.96 -6.37,-28.64 -16.62,-23.27 -33.45,-46.4 -49.99,-69.72 26.67,26.67 51.77,54.93 78.06,81.99 1.93,13.61 4.45,27.23 5.06,40.98 -3.72,17.98 -7.51,36.03 -12.8,53.61 6.67,13.23 13.86,26.2 20.6,39.38l-0.96 0.07c-14.17,0.8 -28.17,3.24 -42.24,4.87 -34.6,-40.38 -68.95,-80.96 -103.58,-121.3 -0.05,-9.18 5.9,-20.07 -1.03,-27.93 -12.69,-17.35 -25.31,-34.72 -37.81,-52.17 6.39,0.42 12.81,0.87 19.24,1.31 -47.27,-61.29 -94.63,-122.5 -142.33,-183.46 -0.82,11.3 0.47,22.85 -2.71,33.87 -5.36,-6.95 -9.98,-14.47 -14.47,-22 -3.75,1.19 -7.49,2.38 -11.24,3.58 -0.42,-5.69 -1.8,-11.43 -0.87,-17.12 2.25,-4.09 5.23,-7.75 7.8,-11.66 1.83,-5.85 1.5,-12.22 2.41,-18.26zm304.75 162.16c12.67,0.8 25.36,1.38 38,2.74 -0.8,0.66 -2.36,1.99 -3.16,2.65 -10.07,0.86 -20.18,1.15 -30.2,2.41l-0.4 0.05c-1.43,-2.63 -2.83,-5.25 -4.24,-7.85zm-364.52 11.12c8.66,-13.46 15.47,-28.07 24.96,-41.02 3.04,5.53 6.08,11.08 9.15,16.6 -6.74,12.25 -13.65,24.4 -20.53,36.55 -4.4,-4.19 -8.9,-8.26 -13.58,-12.13zm318.28 -40.17c10.02,10.6 20.74,20.53 30.72,31.21 -0.49,0.65 -1.45,1.96 -1.92,2.62 -10.3,-2.04 -20.37,-5.06 -30.6,-7.35 0.58,-8.83 1.28,-17.66 1.8,-26.48zm-109.08 -45.52c-5.53,-6.34 -11.85,-12.17 -15.76,-19.74 7.82,7.19 15.22,15.03 24.37,20.56 19.51,11.22 41.26,17.58 61.67,26.78 5.43,5.32 8.31,12.84 12.67,19.09 -9.48,-1.15 -19.04,-1.71 -28.4,-3.47 -12.57,-2.53 -21.63,-12.43 -32.4,-18.59 -7.92,-7.75 -14.85,-16.36 -22.15,-24.63zm-18.55 -109.48c15.38,-1.94 30.75,-4 46.17,-5.62 -8.26,7.12 -16.36,14.42 -25.05,21.03 -4.1,-2.11 -8.26,-4.1 -12.41,-6.07 12.37,25.48 25.01,50.83 37.09,76.45 -7.98,-3.4 -15.83,-7.08 -23.72,-10.59 -8.24,-14.75 -15.92,-29.8 -24.23,-44.51 -4.45,-9.17 -7.31,-18.98 -9.58,-28.89 3.89,-0.63 7.82,-1.24 11.73,-1.8zm32.15 30.06c19.6,-12.27 38.94,-24.89 58.56,-37.08 1.35,11.49 1.49,23.15 3.23,34.6 4.91,5.88 11.61,10.05 17.25,15.2 0.82,17.72 0.24,35.49 1.29,53.19 -5.62,6.58 -11.26,13.11 -16.93,19.62 -10.63,-14.3 -20.51,-29.12 -30.81,-43.64 6.39,-17.12 13.32,-34.02 19.83,-51.09 -13.23,10.14 -26.01,20.86 -39.4,30.79 -4.26,-7.26 -8.71,-14.38 -13.02,-21.59zm-75.88 -87.38c5.29,-3.16 8.17,5.55 11.8,8.22 -14.89,23.51 -30.04,46.85 -44.75,70.45 -3.06,-2.78 -6.04,-5.69 -8.96,-8.59 14.23,-23.2 27.88,-46.76 41.91,-70.08zm81.5 -3.02c4.56,-4.59 9.08,-9.22 13.39,-14.04 34.25,7.07 68.6,13.67 102.83,20.76 3.07,0.38 5.69,2.09 7.94,4.12 39.1,32.81 80.05,63.38 119.36,95.9 -41.91,-26.83 -83.33,-54.45 -125.07,-81.57 -2.11,-1.33 -4.38,-2.2 -6.84,-2.55 -37.23,-7.49 -74.43,-14.96 -111.61,-22.62zm142.7 -56.63c38,12.71 75.46,26.95 113.35,40.03 -2.91,23.65 -5.72,47.32 -8.85,70.95 -6.3,1.1 -12.6,2.17 -18.94,3.04 4.47,-22.38 9.03,-44.77 13.39,-67.17 -33.04,-15.48 -66.07,-31 -98.95,-46.85zm-518.42 49.52c72.26,-16.84 144.49,-33.81 216.83,-50.27 -7.79,5.52 -15.47,11.33 -23.76,16.11 -26.48,13.25 -51.41,29.36 -77.38,43.59 -16.46,8.55 -29.24,22.27 -43.64,33.65 -7.64,5.83 -13.96,14.35 -23.86,16.27 -27.79,6.3 -55.51,13.02 -83.33,19.25 -3.04,0.79 -6.18,1.42 -8.99,2.87 -3.96,7.78 -6.39,16.23 -10.16,24.12 -1.13,-0.59 -3.37,-1.78 -4.5,-2.39 -4.75,-9.74 -8.08,-20.13 -12.38,-30.06 13.09,-4.99 26.29,-9.62 39.4,-14.56 10.47,-19.6 21.24,-39.03 31.77,-58.58zm310.96 -108.13c23.6,5.55 46.59,13.51 70,19.81 5.39,12.99 10.26,26.22 15.9,39.1 -13.98,19.48 -28.94,38.24 -43.43,57.32 -4.4,0.09 -8.8,0.28 -13.18,0.44 1.94,-2.25 3.91,-4.52 5.92,-6.74 -8.78,-6.58 -17.56,-13.18 -25.99,-20.18 -17.49,2.1 -34.79,5.66 -52.28,7.84 9.18,-5.43 18.96,-9.72 28.42,-14.63 2.63,-4.78 5.3,-9.56 7.96,-14.31 17.03,9.02 34.33,17.49 51.56,26.11 1.19,-1.78 3.61,-5.34 4.82,-7.14 -12.38,-9.86 -25.12,-19.25 -37.15,-29.51 14.84,5.91 29.47,12.3 44.2,18.53 2.32,-4.06 4.57,-8.15 6.86,-12.2 -15.57,-11.31 -31.91,-21.59 -47.2,-33.3 17.14,5.97 34.21,12.2 51.25,18.41 -2.32,-7.05 -4.54,-14.12 -6.76,-21.17 -20.33,-9.41 -40.6,-18.94 -60.9,-28.38zm141.25 -149.35c4.21,2.79 12.81,6.86 9.11,12.97 -29.97,45.8 -59.96,91.57 -90.21,137.18 -4.03,-1.36 -8.06,-2.69 -12.06,-4.03 31.28,-48.56 62.58,-97.14 93.16,-146.12zm-5.88 -42.73c25.48,4.92 50.34,12.78 75.56,19.08 -8.22,6.23 -16.91,11.75 -25.45,17.42 2.34,-5.22 4.84,-10.37 7.44,-15.48 -19.08,-7.28 -38.65,-13.29 -57.55,-21.02zm3.23 385.88c-0.16,-9.32 1.83,-18.62 2.42,-27.91 6.01,11.19 12.1,22.36 18.14,33.55 4.03,-9.27 8.69,-18.24 13.21,-27.28 21.96,4.5 32.26,27.61 52.42,35.54 -4.66,1.57 -9.25,3.26 -13.84,4.92 13.91,3.58 28.54,4.61 41.91,10.16 7.4,2.97 14.31,7.05 21.17,11.08 -1.78,3.88 -3.56,7.77 -5.32,11.68 2.13,8.62 1.36,17.54 -1.36,25.92 -10.02,-4.73 -19.97,-9.56 -29.87,-14.5 2.25,-3.34 4.54,-6.64 6.84,-9.95 -13.72,-1.57 -27.42,-3.18 -41.17,-4.65 -6.83,11.16 -13.04,22.73 -20.11,33.76l-1.71 0.18c1.6,-9.53 3.8,-18.96 4.59,-28.58 0.31,-2.93 0.66,-5.86 1.08,-8.76 -8.1,7.91 -17.28,14.59 -25.99,21.77 0.73,-13.04 1.87,-26.1 1.9,-39.17 -7.5,-9.76 -16.72,-18.07 -24.31,-27.76zm43.01 -2.98l0 0c-0.14,13.54 0.26,27.09 -0.72,40.62 7.91,-4.75 15.76,-9.67 23.69,-14.37 -7.77,-8.66 -15.19,-17.63 -22.97,-26.25zm-100.42 226.22l0 0c20.12,29.29 40.46,58.46 61.68,86.94 0,-9.63 0.07,-19.25 0.49,-28.87 0.89,-3.98 -3.26,-5.95 -5.5,-8.36 -19.13,-16.27 -36.79,-34.37 -56.67,-49.71z"/>
   <path class="fil1" d="M1458.84 1204.69c7.03,-23.86 13.93,-47.77 20.96,-71.63 29.45,0 58.93,-0.07 88.38,0.03 -4.82,12.15 -10.88,24 -20.09,33.46 -22.78,24.7 -56.82,34.58 -89.25,38.14zm-28.82 -306.39c20.3,1.85 40.58,3.63 60.88,5.57 29.38,30.51 58.62,61.16 88.12,91.57 -55.77,-0.02 -111.56,0.28 -167.33,-0.16 25.99,-11.99 52.59,-22.62 78.57,-34.63 -19.69,-21.19 -40.57,-41.19 -60.24,-62.35zm-803.33 13.81c21.61,-15.31 44.13,-29.31 66.09,-44.16 50.2,42.83 101.22,84.71 151.11,127.84 -45.02,-24.79 -89.53,-50.53 -134.27,-75.81 4.07,12.01 8.35,23.95 12.52,35.94 -31.94,-14.36 -63.59,-29.32 -95.45,-43.81zm350.87 -88.38c30.32,63.7 70.38,124.09 123.9,170.7 -17.98,-0.47 -35.91,-1.5 -53.9,-1.87 -9.17,-8.41 -15.43,-19.34 -21.58,-30.02 -23.65,-43.19 -39.76,-90.4 -48.42,-138.81zm198.96 -82.96c19.88,15.34 37.54,33.44 56.67,49.71 2.24,2.41 6.39,4.38 5.5,8.36 -0.42,9.62 -0.49,19.24 -0.49,28.87 -21.22,-28.48 -41.56,-57.65 -61.68,-86.94zm124.31 -49.61c10.02,-1.26 20.13,-1.55 30.2,-2.41 -5.71,8.22 -12.46,15.68 -18.82,23.39 -3.84,-6.96 -7.87,-13.84 -11.38,-20.98zm-69.42 2.69c5.52,-4.42 11.14,-8.73 16.74,-13.06 10.23,2.29 20.3,5.31 30.6,7.35 0.47,-0.66 1.43,-1.97 1.92,-2.62l0.61 -0.87c-1.13,7.49 -0.4,15.05 -0.22,22.59 -16.52,-4.54 -33.15,-8.73 -49.65,-13.39zm-319.88 -18.17c9.93,-16.62 19.67,-33.36 29.57,-50.01 5.18,9.25 10.28,18.57 15.53,27.79 -9.49,12.95 -16.3,27.56 -24.96,41.02 -7.07,-5.87 -13.56,-12.38 -20.14,-18.8zm41.86 -57.76c11.95,12.46 20.87,27.54 32.64,40.11 15.46,1.9 31.07,2.34 46.62,3.3 26.06,38.77 52.52,77.36 76.84,117.25 4.1,13.91 -0.61,29.27 3.35,43.13 48.33,60.15 98.17,119.13 146.19,179.51 -8.73,0.56 -17.46,0.8 -26.2,1.08 -46.66,-58.25 -93.88,-116.06 -140.87,-174.08 -0.1,-13.77 0.07,-27.53 0,-41.3 0.14,-2.83 -0.61,-5.41 -2.28,-7.7 -21.56,-33.98 -43.33,-67.83 -64.73,-101.9 -16.18,-4.89 -32.69,-8.57 -48.87,-13.46 -7.35,-15.41 -15.45,-30.46 -22.69,-45.94zm281.41 -22.64c15.38,14.05 31.47,27.35 46.55,41.7 3.09,7.99 2.24,17.26 3.84,25.71 -16.42,-9.02 -32.74,-18.19 -49.17,-27.16 -8.78,-3.96 -12.53,-13.44 -18.15,-20.63 5.67,-6.51 11.31,-13.04 16.93,-19.62zm153.99 -19.43c5.78,-0.05 11.57,-0.14 17.35,-0.24 -1.64,2.74 -2.34,6.21 -4.75,8.41 -5.36,1.76 -11.01,2.53 -16.51,3.7 1.29,-3.98 2.6,-7.92 3.91,-11.87zm-95.41 18.4c3.16,-6.13 6.79,-11.99 10.75,-17.58 7.28,0.96 14.61,1.78 21.94,2.5 -0.71,1.24 -2.11,3.75 -2.81,4.99 -5.53,-0.63 -11.03,-1.31 -16.53,-2.04 -4.48,4.03 -8.88,8.1 -13.35,12.13zm-30.23 7.94c6.19,-11.85 11.29,-24.23 17.89,-35.85l0.21 5.11c-0.79,9.62 -2.99,19.05 -4.59,28.58l1.71 -0.18c15.71,-0.75 31.45,-1.5 47.18,-2.32 3.3,-0.49 6.35,1.05 9.23,2.46 11.68,5.87 23.27,11.98 35.19,17.39 -0.14,1.46 -0.43,4.34 -0.54,5.76 -10.66,-2.67 -20.42,-7.86 -30.6,-11.82 -3.91,1.47 -7.8,2.97 -11.66,4.52 12.29,6.23 24.65,12.31 36.94,18.52 -4.23,7.37 -8.07,15.01 -13.04,21.94 -2.76,-8.41 -5.31,-16.86 -8.05,-25.27 -5.34,3.66 -10.66,7.33 -15.9,11.08 -21.4,-13.16 -42.68,-26.55 -63.97,-39.92zm-167.71 -42.68c9.88,9.81 21.08,18.59 29.67,29.54 3.91,7.57 10.23,13.4 15.76,19.74 7.3,8.27 14.23,16.88 22.15,24.63 10.18,11.55 20.2,24.91 35.47,29.85 11.4,4.03 22.87,7.89 34.18,12.2 -7.68,3.3 -14.89,8.31 -23.06,10.09 -9.72,-4.05 -19.11,-8.89 -28.66,-13.37 -8.78,-3.58 -12.99,-12.57 -18.45,-19.69 -21.38,-31.67 -45.35,-61.53 -67.06,-92.99zm-122.24 -11.71c5.11,-3.07 10.4,-5.85 15.83,-8.34 -2.57,3.91 -5.55,7.57 -7.8,11.66 -0.93,5.69 0.45,11.43 0.87,17.12 3.75,-1.2 7.49,-2.39 11.24,-3.58 4.49,7.53 9.11,15.05 14.47,22 3.18,-11.02 1.89,-22.57 2.71,-33.87 47.7,60.96 95.06,122.17 142.33,183.46 -6.43,-0.44 -12.85,-0.89 -19.24,-1.31 12.5,17.45 25.12,34.82 37.81,52.17 6.93,7.86 0.98,18.75 1.03,27.93 34.63,40.34 68.98,80.92 103.58,121.3 14.07,-1.63 28.07,-4.07 42.24,-4.87 -14.87,11.69 -30.74,22.06 -46.29,32.81 -39.38,-47.51 -78.67,-95.11 -118.26,-142.43 1.08,-8.52 2.41,-16.97 3.91,-25.4 -18.85,-26.67 -37.95,-53.15 -56.75,-79.84 10.02,2.25 19.92,4.89 29.9,7.33 -37.49,-47.84 -74.48,-96.07 -112.13,-143.76 0.54,9.62 1.57,19.22 2.2,28.85 -7.09,-3.84 -14.8,-6.51 -21.61,-10.84 -4.5,-6.33 -7.61,-13.52 -11.61,-20.14 -5.58,1.99 -11.15,3.98 -16.7,5.97 -0.16,6.23 0.28,12.62 -1.59,18.66 -3.75,-7.4 -7,-15.06 -10.68,-22.5 5.51,-3.82 11.1,-7.45 16.86,-10.86 -0.66,-7.19 -1.4,-14.38 -2.32,-21.52zm125.43 -45.42c7.87,-1.22 15.76,-2.32 23.69,-3.07 -3.91,0.56 -7.84,1.17 -11.73,1.8 2.27,9.91 5.13,19.72 9.58,28.89 2.76,12.62 7.47,24.68 10.98,37.09 -7.33,-6.65 -14.8,-13.25 -21.4,-20.6 -4.38,-14.52 -7.19,-29.48 -11.12,-44.11zm-123.41 -28.61c11.05,-2.04 22.1,-4.15 33.22,-5.95 -9.01,13.88 -18.15,27.7 -27.49,41.37 2.02,-9.76 5.32,-19.18 8.01,-28.78 -4.57,-2.24 -9.15,-4.44 -13.74,-6.64zm65.32 -23.11c12.64,-3.07 25.26,-6.21 38.05,-8.67 -14.03,23.32 -27.68,46.88 -41.91,70.08 -3.68,-3.75 -7.4,-7.44 -11.1,-11.17 -6.09,0.05 -12.2,0.31 -18.29,0.61 11.05,-16.97 22.22,-33.85 33.25,-50.85zm-140.48 -9.37c25.97,-14.23 50.9,-30.34 77.38,-43.59 -9.74,10.48 -21.66,18.63 -32.12,28.37 14.02,-0.07 28.07,-0.42 42.07,0.24 -23.83,10.77 -49.24,17.65 -73.94,26.13 -8.26,3.3 -18.12,3.86 -24.61,10.53 -14.65,13.51 -29.45,26.86 -44.01,40.48 -28.05,4.31 -56.22,7.75 -84.15,12.74 33.6,2.72 67.13,5.92 100.7,8.8 12.01,-14.02 23.86,-28.16 35.82,-42.21 4.1,-5.29 11.29,-5.88 17.09,-8.36 25.71,-8.62 50.84,-19.17 76.89,-26.64 -27.39,13.23 -55.74,24.72 -82.06,40.03 -14.49,12.95 -23.32,30.93 -35.94,45.52 -20.95,4.52 -42.19,7.75 -63.21,11.94 19.36,16.53 39.68,31.91 59.02,48.47 -7.07,1.42 -14.17,2.83 -21.24,4.28 -16.92,-13.06 -31.84,-29.99 -52.77,-36.69 -21.89,-7.26 -43.15,-16.22 -64.92,-23.83l0.02 -0.05c3.77,-7.89 6.2,-16.34 10.16,-24.12 2.81,-1.45 5.95,-2.08 8.99,-2.87 27.82,-6.23 55.54,-12.95 83.33,-19.25 9.9,-1.92 16.22,-10.44 23.86,-16.27 14.4,-11.38 27.18,-25.1 43.64,-33.65zm135.87 -42.73c17.06,-14.66 34.79,-28.54 52.16,-42.84 -0.72,3.98 -1.43,7.93 -2.13,11.91 -16.72,10.23 -32.75,21.68 -50.03,30.93zm-3.35 -20.44c18.24,-16.5 36.83,-32.68 55.49,-48.74 -0.94,5.99 -1.95,11.98 -2.9,17.98 -17.61,10.11 -34.68,21.19 -52.59,30.76zm183.77 -198.82c3.72,-7.64 13.35,-6.54 20.23,-4.92 -30.58,48.98 -61.88,97.56 -93.16,146.12 -5.06,-0.12 -10.07,-3.51 -14.99,-5.03 29.01,-45.56 58.65,-90.75 87.92,-136.17zm117.93 -8.15c2.86,-3.47 5.76,-6.91 8.74,-10.3 48.07,20.2 95.69,42.12 140.2,69.37 -9.34,-2.95 -17.94,-7.75 -26.93,-11.57 -39.85,-17.84 -80.63,-33.55 -122.01,-47.5zm-326.19 -31.38c58.09,-7.98 116.83,-14.4 175.53,-9.92 -4.24,4.44 -7.94,9.43 -12.71,13.29 -40.46,-3.55 -81.16,-5.71 -121.78,-4 -13.69,-0.23 -27.39,2.18 -41.04,0.63zm193.67 -59.77c49.36,11.47 98.88,22.36 148.26,33.81 2.27,5.29 2.34,12.45 6.83,16.32 87.76,39.12 174.27,81.73 255.21,133.71 5.5,3.77 11.71,6.72 16.44,11.5 0.79,21.63 1.19,43.29 1.33,64.92 -81.06,-35.26 -161.27,-72.58 -243.33,-105.47 -20.02,-7.64 -39.83,-15.97 -60.36,-22.11 -7.1,8.9 -14.89,17.19 -22.29,25.83 -13.07,-4.52 -25.76,-10.07 -38.92,-14.31 -22.92,36.53 -45.93,73.01 -69.11,109.37 6.6,17.72 15.36,34.65 20.93,52.75 3.18,0.07 6.37,0.16 9.58,0.23 15.75,-17.98 31.93,-35.59 47.85,-53.43 60.55,20.72 120.98,41.77 181.46,62.66 -4.03,32.17 -8.39,64.31 -12.44,96.48 37.58,16.63 75.23,33.18 112.86,49.73 -22.83,23.07 -46.78,45.03 -70.03,67.69 22.66,35.64 39.19,74.81 52.28,114.87 18.5,58.67 25.85,120.88 21.19,182.25 42.73,42.09 86.07,83.61 128.91,125.63 -436.33,-0.14 -872.69,-0.02 -1309.02,-0.07 -2.29,-0.11 -4.61,-0.21 -6.9,-0.35 67.1,-58.23 134.25,-116.43 201.26,-174.78 2.67,-105.17 40.95,-208.89 107.44,-290.42 -1.57,-3.07 -3.25,-6.11 -3.96,-9.51 -5.1,-23.5 -10.53,-46.96 -15.8,-70.45 17.98,-9.83 36.22,-19.17 54.32,-28.77 3.16,-1.36 5.1,-4.26 6.72,-7.17 10.63,-19.05 21.19,-38.16 32.1,-57.05 82.34,-16.82 164.66,-33.77 246.99,-50.6 5.57,-1.47 10.06,-5.27 14.84,-8.26 21.1,-13.65 42.12,-27.4 63.26,-40.96 -81.55,-14.86 -163.98,-24.23 -246.19,-34.74 -2.43,-0.37 -4.77,-0.96 -7.09,-1.73 64.01,-13 129.47,-18.38 194.73,-17.75 35.3,-0.31 70.56,1.9 105.83,3.23 -58.75,-13.16 -119.11,-15.45 -178.65,-23.18 70.01,-16.08 142.12,-20.58 213.72,-23.48 -1.92,-3.68 -2.32,-9.84 -7.66,-9.77 -90.04,-12.97 -181.36,-6.04 -271.62,0.73 -3.77,-20.14 -6.36,-40.5 -9.57,-60.73 97.84,-14.38 195.97,-31.47 295.19,-30.61 5.97,0.03 12.2,1.34 18.06,-0.3 5.52,-4.8 10.02,-10.68 15.35,-15.71zm-10.34 32.31l0 0c-101.1,-3.86 -201.34,12.78 -300.98,27.6 1.47,9.91 3.04,19.81 4.54,29.72 90.84,-5.74 182.74,-11.69 273.12,2.69 1.82,3.21 2.71,7.28 5.59,9.76 6.16,1.34 12.48,1.9 18.71,2.93 -6.3,9.9 -12.67,19.74 -19.08,29.57 -40.39,-3.14 -81.25,-3.86 -121.4,2.2 35.92,4.22 72,9.18 106.58,20.11 -5.83,9.11 -11.73,18.17 -17.75,27.16 -42.68,-6.81 -85.91,-9.92 -129.08,-11.31 -28.91,-0.07 -57.95,-0.79 -86.7,2.7 67.24,8.89 134.67,17.06 201.15,30.88 -5.3,7.79 -10.4,15.73 -15.78,23.46 -6.3,-1.76 -12.65,-3.47 -18.95,-5.2 -21.16,14.82 -41.98,30.11 -63.05,45.05 -5.71,3.84 -10.81,9.29 -17.93,10.35 -79.94,16.83 -159.87,33.69 -239.78,50.59 -3.18,0.05 -4.5,2.86 -5.83,5.25 -10.02,18.12 -20.16,36.17 -30.16,54.29 -16.06,7.33 -32.14,14.66 -48.25,21.9 4.96,19.4 10.32,38.72 15.19,58.15 16.82,7.17 34.09,13.18 50.9,20.35 3.66,7.16 7.66,14.16 11.43,21.28 -2.88,4.78 -7.3,8.99 -8.66,14.45 3.86,14.3 8.99,28.26 13.18,42.47 17.02,3.84 34.11,7.49 51.11,11.57 3.28,0.3 4.5,3.81 6.37,6.01 24.49,36.53 50.01,72.37 74.1,109.16 -28.54,-30.44 -56.52,-61.37 -84.82,-92.04 -9.39,31.26 -12.23,64.15 -11.08,96.65 1.9,46.26 11.05,92.16 26.22,135.89 -20.58,-15.36 -40.74,-31.3 -61.01,-47.06 -8.9,2.48 -17.66,5.31 -26.48,8.01 -17.4,-15.62 -34.91,-31.12 -52.28,-46.78 -26.06,17.42 -51.68,35.54 -77.41,53.43 -10.09,-2.2 -20.04,-4.94 -29.99,-7.59 -55.14,45.84 -110.3,91.64 -165.32,137.63 405.24,0.14 810.47,-0.03 1215.71,0.06 -29.82,-31.32 -59.7,-62.63 -89.55,-93.95 -14.35,-14.54 -27.75,-30.16 -42.64,-44.04 -15.85,-0.59 -31.72,-0.12 -47.55,0.58 -6.04,-8.5 -11.82,-17.18 -17.86,-25.68 -11.59,13.88 -23.37,27.65 -34.75,41.72 1.45,6.16 4.33,12.22 4.45,18.61 -18.78,25.9 -38.68,51.02 -57.6,76.82 -13.74,1.45 -27.56,1.52 -41.35,1.01 -5.92,3.02 -9.27,10.16 -16.08,11.8 -6.58,0.61 -13.18,0.14 -19.76,0.07 10.3,-8.03 20.18,-16.69 31.02,-23.97 12.97,-2.39 26.32,-2.37 39.4,-4.13 16.21,-21.07 32.6,-41.95 48.7,-63.09 -1.21,-5.48 -2.38,-10.96 -3.51,-16.46 12.32,-16.79 24.87,-33.51 35.71,-51.28 5.71,-14.77 10.25,-30.02 14.84,-45.16 -27.84,-28.94 -55,-58.54 -82.67,-87.62 -9.18,-7.75 -4.5,-21.26 -6.77,-31.65 4.57,1.1 9.13,3.98 13.89,3.72 8.96,-16.83 17.82,-33.76 26.74,-50.62 5.22,6.18 8.85,13.77 15.19,18.94 1.2,-12.45 2.44,-24.89 3.4,-37.34 -2.07,-2.55 -4.1,-5.08 -6.16,-7.59 1.24,-6.09 6.34,-9.53 11.14,-12.73 22.13,1.21 44.3,1.14 66.43,2.45 16.32,-15.59 32.78,-31.09 48.88,-46.92 -34.04,-15.15 -68.2,-30.01 -102.24,-45.14 4.16,-31.56 8.33,-63.12 12.24,-94.7 -1.47,-0.73 -4.42,-2.21 -5.92,-2.93 -50.95,-17.54 -101.94,-35.03 -152.82,-52.82 -15.64,17.32 -31.3,34.65 -46.76,52.14 -11.33,-1.57 -22.76,-2.2 -34.02,-4.12 -3.34,-1.97 -5.83,-5.13 -7.98,-8.29 1.78,-3.86 4.94,-6.88 7.54,-10.18 -6.67,-16.35 -13.44,-32.67 -20.32,-48.91 27.06,-42.69 53.82,-85.53 80.98,-128.15 13.47,5.08 26.9,10.21 40.34,15.34 7.61,-8.59 15.08,-17.3 22.71,-25.87 100.12,33.64 195.11,80.17 292.16,121.42 -0.8,-10.56 -0.78,-21.12 -0.73,-31.7 -85.53,-55.8 -177.52,-100.84 -270.75,-142.17 -1.62,-4.63 -3.16,-9.29 -4.71,-13.93 -43.64,-9.93 -87.28,-19.85 -130.95,-29.69 -4.56,5.2 -9.39,10.16 -14.44,14.87zm-588.38 687.79l0 0c-3.12,19.81 -4.31,39.85 -6.75,59.75 6.23,1.66 12.51,3.16 18.83,4.45 25.73,-18.05 51.51,-36.1 77.59,-53.64 18.33,16.13 36.17,32.85 54.81,48.61 8.71,-1.52 16.91,-5.11 25.43,-7.43 8.78,7.12 17.23,14.68 26.01,21.83 -7.23,-33.11 -14.54,-66.57 -14.42,-100.66 -0.63,-32.61 5.1,-65.09 14.58,-96.23 -15.07,-4.73 -30.39,-8.68 -45.44,-13.46 -4.94,-19.34 -9.97,-38.65 -14.98,-57.97 -1.83,-6.67 -0.12,-13.58 0.65,-20.25 -11.38,-3.96 -22.69,-8.11 -34.14,-11.83 -53.71,64.53 -89.53,143.81 -102.17,226.83zm820.78 -192.36l0 0c-4.1,25.33 -8.1,50.69 -12.2,76.04 -7.31,-7.75 -13.28,-16.6 -20.25,-24.58 -7.43,13.86 -14.68,27.79 -22.13,41.65 28.4,30.77 56.94,61.44 86.11,91.48 -3.41,13.39 -8.28,26.34 -12.36,39.52 6.16,9.51 12.81,18.68 19.01,28.17 14.64,1.05 29.27,-0.87 43.9,-0.36 3.73,-0.32 6.14,2.96 8.69,5.11 7.21,7.16 14.59,14.21 22.06,21.14 3.44,-97.82 -25.31,-196.37 -80.64,-277.1 -10.75,-0.58 -21.47,-0.84 -32.19,-1.07zm-238.35 -461.6c8.5,-9.88 16.9,-19.85 25.38,-29.76 37.2,8.64 74.38,17.42 111.63,25.78 1.67,3.44 3.3,6.91 4.99,10.35 -11.28,12.99 -22.38,26.18 -33.83,39.01 -10.47,-3.94 -21.45,-6.44 -31.77,-10.73 -7.29,-10.91 -19.27,-18.56 -32.5,-19.48 -6.79,0.54 -12.25,5.18 -17.7,8.78 -7.61,-2.15 -15.22,-4.35 -22.81,-6.57 -1.14,-5.79 -2.29,-11.57 -3.39,-17.38zm45.23 -14.49l0 0c18.9,7.73 38.47,13.74 57.55,21.02 -2.6,5.11 -5.1,10.26 -7.44,15.48 8.54,-5.67 17.23,-11.19 25.45,-17.42 -25.22,-6.3 -50.08,-14.16 -75.56,-19.08zm-869.57 923.61c60.15,-0.12 120.3,-0.12 180.45,0 -21.15,72.58 -42.36,145.14 -63.57,217.68 12.29,0.53 25.29,1.19 36.85,-3.77 5.65,-2.32 9.06,-7.78 10.45,-13.49 18.63,-66.8 37.08,-133.67 55.79,-200.44 378.06,-0.1 756.13,-0.03 1134.19,-0.05 -15.38,45.05 -32.97,90 -60.1,129.41 -21.57,31.91 -50.25,59.84 -85.44,76.23 -36.38,17.42 -77.26,21.45 -117.09,22.29 -8.31,28.96 -17.09,57.78 -25.24,86.77 -47.57,0.47 -95.17,0.09 -142.75,0.19 21.12,-72.58 42.47,-145.12 63.55,-217.72 -58.87,0.09 -117.75,-0.21 -176.61,0.14 -1.73,5.99 -3.44,11.98 -5.15,17.98 25.8,0.07 51.58,-0.1 77.36,0.07 -7.26,26.71 -15.04,53.26 -22.25,79.98 -26.08,0.42 -52.14,-0.03 -78.22,0.21 -2.23,7.26 -4.38,14.52 -6.35,21.84 51.37,0.87 102.74,0.03 154.13,0.42 -9.36,32.41 -18.82,64.77 -28.4,97.1 -111.47,-0.07 -222.96,0.12 -334.46,-0.07 9.77,-32.36 18.52,-65.04 28.8,-97.21 11.68,0.18 23.37,0.09 35.05,0.14 11.82,-40.18 23.79,-80.31 35.14,-120.6 -35.72,0.02 -71.45,-0.03 -107.18,0.02 -21.31,72.49 -42.54,145.02 -63.57,217.6 -47.81,0.26 -95.64,0.05 -143.45,0.12 21.51,-72.63 43.38,-145.14 64.99,-217.72 -26.85,-0.09 -53.73,0.02 -80.59,-0.05 -12.76,42.78 -25.17,85.65 -37.64,128.52 -5.93,19.74 -15.39,39.12 -30.86,53.15 -19.02,17.44 -44.21,26.13 -69.1,31.14 -31.56,6.15 -63.89,6.65 -95.92,5.97 -26.97,-1.13 -54.32,-3.35 -80.03,-12.13 -17.56,-6.13 -34.91,-16.58 -43.74,-33.58 -9.83,-17.86 -7.77,-39.42 -2.88,-58.48 10.85,-38.26 22.34,-76.33 33.3,-114.54 -12.62,-0.07 -25.24,0.02 -37.86,-0.05 9.55,-32.33 19.01,-64.69 28.4,-97.07zm11.78 17.05l0 0c-5.79,20.93 -12.65,41.55 -17.91,62.63 12.47,-0.33 24.95,0.02 37.43,-0.24 -11,38.7 -22.52,77.27 -33.76,115.9 -4.14,14.61 -9.27,29.22 -9.53,44.55 -0.21,11.55 3.75,23.54 12.43,31.45 16.21,16.18 40.16,20.44 61.89,24.07 39.59,4.98 79.91,5.03 119.5,0 29.36,-4.36 60.78,-12.55 81.41,-35.4 16.29,-17.52 20.6,-41.82 27.27,-63.92 17.47,-59.61 34.8,-119.27 52.36,-178.86 -37,-0.65 -74.04,-0.28 -111.05,-0.18 -17.05,61.81 -34.37,123.52 -51.42,185.31 -2.53,9.44 -7.16,19.04 -15.62,24.52 -10.06,6.43 -22.33,7.7 -33.99,8.31 -10.89,0.19 -22.88,-0.07 -31.63,-7.47 -0.12,-11.36 4.82,-21.87 7.61,-32.66 16.92,-59.05 35.05,-117.91 51.34,-177.05l-0.82 0.32c-3.65,-2.1 -8.29,-1.24 -12.36,-1.5 -44.37,0.29 -88.76,-0.16 -133.15,0.22zm334.55 62.65l0 0c30.84,-0.38 61.7,-0.05 92.55,-0.16 -21.47,73.05 -43.73,145.86 -65.18,218.93l0.94 -0.7c36.29,0.24 72.58,0.03 108.87,0.1 21.17,-72.8 42.54,-145.52 63.75,-218.29 27.02,-0.04 54.07,-0.07 81.09,0 5.94,-20.46 12.59,-40.74 17.63,-61.46l1.05 -1.03c-94.19,-0.47 -188.41,0.05 -282.6,-0.26 -6.3,20.87 -12.99,41.68 -18.1,62.87zm320.01 -55.75l0 0c-4.91,18.64 -11.47,36.88 -15.64,55.7 12.46,-0.25 24.92,0 37.4,-0.19 -14.85,51.77 -30.14,103.42 -45.24,155.12 -11.73,0.12 -23.44,0.14 -35.14,-0.05 -6.44,20.91 -13.35,41.8 -17.98,63.17l-0.28 0.19c100.09,0.02 200.16,-0.14 300.25,0.09 6.48,-21 12.38,-42.16 18.64,-63.21 -51.79,-0.35 -103.58,0.16 -155.38,-0.26 7.87,-18.08 10.64,-38.91 18.8,-56.45 25.57,-0.47 51.19,-0.05 76.78,-0.19 4.07,-14.91 8.54,-29.71 12.38,-44.69l1.1 -0.89c-26.15,-0.14 -52.33,0.16 -78.48,-0.19 5.34,-17.42 10.3,-34.93 15.29,-52.47 49.64,-0.14 99.27,-0.17 148.91,0.02 6.72,-20.62 12.2,-41.63 18.57,-62.35 -98.29,-0.86 -196.58,-0.18 -294.87,-0.35 -4.19,-0.86 -3.91,4.5 -5.11,7zm321.17 -6.9l0 0c-5.62,20.97 -12.69,41.55 -17.73,62.67 13.07,-0.4 26.16,-0.04 39.22,-0.23 -21.03,73.05 -42.89,145.89 -63.73,218.98l0.79 -0.67c36.11,0.09 72.23,0.16 108.34,-0.03 8.45,-29.05 16.95,-58.11 25.5,-87.14 40.36,0.32 82.11,-2.16 119.36,-19.11 35.12,-15.5 63.26,-43.59 84.12,-75.37 20.02,-30.48 35.43,-63.94 47.09,-98.47l0.89 -0.59c-114.61,-0.33 -229.24,-0.23 -343.85,-0.04zm143.03 77.7l0 0c-3.42,11.15 -6.74,22.34 -9.81,33.6 22.73,-4.94 45.68,-14.72 60.38,-33.48 -16.86,-0.26 -33.71,-0.07 -50.57,-0.12z"/>
   <path class="fil2" d="M1666.85 1088.86c8.75,-4.47 16.46,-10.68 24.75,-15.92 -11.66,34.53 -27.07,67.99 -47.09,98.47 -20.86,31.78 -49,59.87 -84.12,75.37 -37.25,16.95 -79,19.43 -119.36,19.11 -8.55,29.03 -17.05,58.09 -25.5,87.14 -36.11,0.19 -72.23,0.12 -108.34,0.03 7.92,-8.18 20.3,-13.61 22.69,-25.74 20.26,-69.93 41.09,-139.68 61.32,-209.62 -7.14,5.53 -14.16,11.22 -21.07,17.05 -13.06,0.19 -26.15,-0.17 -39.22,0.23 6.53,-4.59 12.95,-9.34 19.41,-14.04 3.07,-10.4 6.11,-20.8 9.18,-31.19 96.37,-0.05 192.76,-0.05 289.13,0.02 6.04,-0.23 12.34,0.77 18.22,-0.91zm-362.23 0.72c9.11,-2.78 15.22,-11.54 22.83,-17.02 -6.37,20.72 -11.85,41.73 -18.57,62.35 -49.64,-0.19 -99.27,-0.16 -148.91,-0.02 -4.99,17.54 -9.95,35.05 -15.29,52.47 -7.7,5.71 -15.15,11.75 -22.69,17.7 26.13,-0.28 52.31,0.42 78.39,-0.31 8.27,-3.67 14.36,-11.07 21.68,-16.31 -3.84,14.98 -8.31,29.78 -12.38,44.69 -25.59,0.14 -51.21,-0.28 -76.78,0.19 -8.16,17.54 -10.93,38.37 -18.8,56.45 -6.29,5.99 -12.99,11.56 -19.26,17.61 51.9,0.23 103.81,-0.03 155.74,0.11 6.46,-5.64 12.78,-11.42 18.9,-17.46 -6.26,21.05 -12.16,42.21 -18.64,63.21 -100.09,-0.23 -200.16,-0.07 -300.25,-0.09l0.28 -0.19c6.36,-5.1 13.55,-9.34 19.06,-15.4 4.12,-9.7 5.97,-20.14 9.24,-30.11 11.83,0.02 23.63,0 35.45,0.04 18.76,-62.53 37.28,-125.17 55.75,-187.8 -7.1,4.97 -14.14,9.95 -21.14,15.03 -12.48,0.19 -24.94,-0.06 -37.4,0.19 6.3,-4.4 13.09,-8.22 18.69,-13.51 4.35,-10.18 6.27,-21.26 9.88,-31.72 88.08,0 176.16,0.21 264.22,-0.1zm-314.28 0.12c5.53,-5.48 11.1,-10.96 16.77,-16.32 -5.04,20.72 -11.69,41 -17.63,61.46 -27.02,-0.07 -54.07,-0.04 -81.09,0 -21.21,72.77 -42.58,145.49 -63.75,218.29 -36.29,-0.07 -72.58,0.14 -108.87,-0.1 7.58,-7 19.69,-10.98 21.75,-22.24 20.7,-70.36 42.05,-140.55 62.58,-210.96 -6.81,4.85 -13.51,9.81 -20.09,14.97 -30.85,0.11 -61.71,-0.22 -92.55,0.16 6.51,-4.35 12.85,-8.94 19.22,-13.49 3.19,-10.58 6.18,-21.21 9.35,-31.77 84.75,0.05 169.53,0.02 254.31,0zm-471.92 -16.11l0.82 -0.32c-16.29,59.14 -34.42,118 -51.34,177.05 -2.79,10.79 -7.73,21.3 -7.61,32.66 2.43,12.99 14.16,22.31 26.97,23.86 15.4,1.87 31.98,1.5 46.19,-5.36 10.8,-5.11 16.16,-16.6 19.13,-27.54 16.95,-61.37 34.14,-122.68 51.04,-184.07 25.38,-0.57 50.79,0.42 76.12,-0.45 8.94,-4.21 16.23,-11.26 24.26,-16.93 -17.56,59.59 -34.89,119.25 -52.36,178.86 -6.67,22.1 -10.98,46.4 -27.27,63.92 -20.63,22.85 -52.05,31.04 -81.41,35.4 -39.59,5.03 -79.91,4.98 -119.5,0 -21.73,-3.63 -45.68,-7.89 -61.89,-24.07 -3.55,-15.27 -0.37,-30.88 4.05,-45.56 15.76,-53.04 31.8,-105.95 47.42,-159 -6.93,4.09 -13.82,8.28 -20.61,12.66 -12.48,0.26 -24.96,-0.09 -37.43,0.24 6.46,-4.38 13.53,-8.1 19.08,-13.68 4.07,-10.18 6.2,-21.02 9.57,-31.44 38.26,-0.24 76.52,0.02 114.78,-0.14 6.72,-5.29 13.48,-10.54 19.99,-16.09zm758.52 -559.04c7.78,8.62 15.2,17.59 22.97,26.25 -7.93,4.7 -15.78,9.62 -23.69,14.37 0.98,-13.53 0.58,-27.08 0.72,-40.62zm-85.52 -402.24c5.05,-4.71 9.88,-9.67 14.44,-14.87 43.67,9.84 87.31,19.76 130.95,29.69 1.55,4.64 3.09,9.3 4.71,13.93 93.23,41.33 185.22,86.37 270.75,142.17 -0.05,10.58 -0.07,21.14 0.73,31.7 -97.05,-41.25 -192.04,-87.78 -292.16,-121.42 -7.63,8.57 -15.1,17.28 -22.71,25.87 -13.44,-5.13 -26.87,-10.26 -40.34,-15.34 -27.16,42.62 -53.92,85.46 -80.98,128.15 6.88,16.24 13.65,32.56 20.32,48.91 -2.6,3.3 -5.76,6.32 -7.54,10.18 2.15,3.16 4.64,6.32 7.98,8.29 11.26,1.92 22.69,2.55 34.02,4.12 15.46,-17.49 31.12,-34.82 46.76,-52.14 50.88,17.79 101.87,35.28 152.82,52.82 1.5,0.72 4.45,2.2 5.92,2.93 -3.91,31.58 -8.08,63.14 -12.24,94.7 34.04,15.13 68.2,29.99 102.24,45.14 -16.1,15.83 -32.56,31.33 -48.88,46.92 -22.13,-1.31 -44.3,-1.24 -66.43,-2.45 -4.8,3.2 -9.9,6.64 -11.14,12.73 2.06,2.51 4.09,5.04 6.16,7.59 -0.96,12.45 -2.2,24.89 -3.4,37.34 -6.34,-5.17 -9.97,-12.76 -15.19,-18.94 -8.92,16.86 -17.78,33.79 -26.74,50.62 -4.76,0.26 -9.32,-2.62 -13.89,-3.72 2.27,10.39 -2.41,23.9 6.77,31.65 27.67,29.08 54.83,58.68 82.67,87.62 -4.59,15.14 -9.13,30.39 -14.84,45.16 -10.84,17.77 -23.39,34.49 -35.71,51.28 1.13,5.5 2.3,10.98 3.51,16.46 -16.1,21.14 -32.49,42.02 -48.7,63.09 -13.08,1.76 -26.43,1.74 -39.4,4.13 -10.84,7.28 -20.72,15.94 -31.02,23.97 6.58,0.07 13.18,0.54 19.76,-0.07 6.81,-1.64 10.16,-8.78 16.08,-11.8 13.79,0.51 27.61,0.44 41.35,-1.01 18.92,-25.8 38.82,-50.92 57.6,-76.82 -0.12,-6.39 -3,-12.45 -4.45,-18.61 11.38,-14.07 23.16,-27.84 34.75,-41.72 6.04,8.5 11.82,17.18 17.86,25.68 15.83,-0.7 31.7,-1.17 47.55,-0.58 14.89,13.88 28.29,29.5 42.64,44.04 29.85,31.32 59.73,62.63 89.55,93.95 -405.24,-0.09 -810.47,0.08 -1215.71,-0.06 55.02,-45.99 110.18,-91.79 165.32,-137.63 9.95,2.65 19.9,5.39 29.99,7.59 25.73,-17.89 51.35,-36.01 77.41,-53.43 17.37,15.66 34.88,31.16 52.28,46.78 8.82,-2.7 17.58,-5.53 26.48,-8.01 20.27,15.76 40.43,31.7 61.01,47.06 -15.17,-43.73 -24.32,-89.63 -26.22,-135.89 -1.15,-32.5 1.69,-65.39 11.08,-96.65 28.3,30.67 56.28,61.6 84.82,92.04 -24.09,-36.79 -49.61,-72.63 -74.1,-109.16 -1.87,-2.2 -3.09,-5.71 -6.37,-6.01 -17,-4.08 -34.09,-7.73 -51.11,-11.57 -4.19,-14.21 -9.32,-28.17 -13.18,-42.47 1.36,-5.46 5.78,-9.67 8.66,-14.45 -3.77,-7.12 -7.77,-14.12 -11.43,-21.28 -16.81,-7.17 -34.08,-13.18 -50.9,-20.35 -4.87,-19.43 -10.23,-38.75 -15.19,-58.15 16.11,-7.24 32.19,-14.57 48.25,-21.9 10,-18.12 20.14,-36.17 30.16,-54.29 1.33,-2.39 2.65,-5.2 5.83,-5.25 79.91,-16.9 159.84,-33.76 239.78,-50.59 7.12,-1.06 12.22,-6.51 17.93,-10.35 21.07,-14.94 41.89,-30.23 63.05,-45.05 6.3,1.73 12.65,3.44 18.95,5.2 5.38,-7.73 10.48,-15.67 15.78,-23.46 -66.48,-13.82 -133.91,-21.99 -201.15,-30.88 28.75,-3.49 57.79,-2.77 86.7,-2.7 43.17,1.39 86.4,4.5 129.08,11.31 6.02,-8.99 11.92,-18.05 17.75,-27.16 -34.58,-10.93 -70.66,-15.89 -106.58,-20.11 40.15,-6.06 81.01,-5.34 121.4,-2.2 6.41,-9.83 12.78,-19.67 19.08,-29.57 -6.23,-1.03 -12.55,-1.59 -18.71,-2.93 -2.88,-2.48 -3.77,-6.55 -5.59,-9.76 -90.38,-14.38 -182.28,-8.43 -273.12,-2.69 -1.5,-9.91 -3.07,-19.81 -4.54,-29.72 99.64,-14.82 199.88,-31.46 300.98,-27.6zm-5.95 33.83l0 0c1.1,5.81 2.25,11.59 3.39,17.38 7.59,2.22 15.2,4.42 22.81,6.57 5.45,-3.6 10.91,-8.24 17.7,-8.78 13.23,0.92 25.21,8.57 32.5,19.48 10.32,4.29 21.3,6.79 31.77,10.73 11.45,-12.83 22.55,-26.02 33.83,-39.01 -1.69,-3.44 -3.32,-6.91 -4.99,-10.35 -37.25,-8.36 -74.43,-17.14 -111.63,-25.78 -8.48,9.91 -16.88,19.88 -25.38,29.76zm-177.38 -6.37l0 0c13.65,1.55 27.35,-0.86 41.04,-0.63 40.62,-1.71 81.32,0.45 121.78,4 4.77,-3.86 8.47,-8.85 12.71,-13.29 -58.7,-4.48 -117.44,1.94 -175.53,9.92zm326.19 31.38l0 0c41.38,13.95 82.16,29.66 122.01,47.5 8.99,3.82 17.59,8.62 26.93,11.57 -44.51,-27.25 -92.13,-49.17 -140.2,-69.37 -2.98,3.39 -5.88,6.83 -8.74,10.3zm-117.93 8.15l0 0c-29.27,45.42 -58.91,90.61 -87.92,136.17 4.92,1.52 9.93,4.91 14.99,5.03 4,1.34 8.03,2.67 12.06,4.03 30.25,-45.61 60.24,-91.38 90.21,-137.18 3.7,-6.11 -4.9,-10.18 -9.11,-12.97 -6.88,-1.62 -16.51,-2.72 -20.23,4.92zm-121.02 144.43l0 0c20.3,9.44 40.57,18.97 60.9,28.38 2.22,7.05 4.44,14.12 6.76,21.17 -17.04,-6.21 -34.11,-12.44 -51.25,-18.41 15.29,11.71 31.63,21.99 47.2,33.3 -2.29,4.05 -4.54,8.14 -6.86,12.2 -14.73,-6.23 -29.36,-12.62 -44.2,-18.53 12.03,10.26 24.77,19.65 37.15,29.51 -1.21,1.8 -3.63,5.36 -4.82,7.14 -17.23,-8.62 -34.53,-17.09 -51.56,-26.11 -2.66,4.75 -5.33,9.53 -7.96,14.31 -9.46,4.91 -19.24,9.2 -28.42,14.63 17.49,-2.18 34.79,-5.74 52.28,-7.84 8.43,7 17.21,13.6 25.99,20.18 -2.01,2.22 -3.98,4.49 -5.92,6.74 4.38,-0.16 8.78,-0.35 13.18,-0.44 14.49,-19.08 29.45,-37.84 43.43,-57.32 -5.64,-12.88 -10.51,-26.11 -15.9,-39.1 -23.41,-6.3 -46.4,-14.26 -70,-19.81zm-62.75 54.39l0 0c17.91,-9.57 34.98,-20.65 52.59,-30.76 0.95,-6 1.96,-11.99 2.9,-17.98 -18.66,16.06 -37.25,32.24 -55.49,48.74zm3.35 20.44l0 0c17.28,-9.25 33.31,-20.7 50.03,-30.93 0.7,-3.98 1.41,-7.93 2.13,-11.91 -17.37,14.3 -35.1,28.18 -52.16,42.84zm-251.56 33.3l0 0c-10.53,19.55 -21.3,38.98 -31.77,58.58 -13.11,4.94 -26.31,9.57 -39.4,14.56 4.3,9.93 7.63,20.32 12.38,30.06 1.13,0.61 3.37,1.8 4.5,2.39l-0.02 0.05c21.77,7.61 43.03,16.57 64.92,23.83 20.93,6.7 35.85,23.63 52.77,36.69 7.07,-1.45 14.17,-2.86 21.24,-4.28 -19.34,-16.56 -39.66,-31.94 -59.02,-48.47 21.02,-4.19 42.26,-7.42 63.21,-11.94 12.62,-14.59 21.45,-32.57 35.94,-45.52 26.32,-15.31 54.67,-26.8 82.06,-40.03 -26.05,7.47 -51.18,18.02 -76.89,26.64 -5.8,2.48 -12.99,3.07 -17.09,8.36 -11.96,14.05 -23.81,28.19 -35.82,42.21 -33.57,-2.88 -67.1,-6.08 -100.7,-8.8 27.93,-4.99 56.1,-8.43 84.15,-12.74 14.56,-13.62 29.36,-26.97 44.01,-40.48 6.49,-6.67 16.35,-7.23 24.61,-10.53 24.7,-8.48 50.11,-15.36 73.94,-26.13 -14,-0.66 -28.05,-0.31 -42.07,-0.24 10.46,-9.74 22.38,-17.89 32.12,-28.37 8.29,-4.78 15.97,-10.59 23.76,-16.11 -72.34,16.46 -144.57,33.43 -216.83,50.27zm512.62 -52.19l0 0c17.44,20.46 35.96,39.96 53.92,59.98 -23.18,-2.85 -46.34,-6.13 -69.56,-8.5 35.42,22.29 71.43,43.62 106.86,65.91l0.14 -0.7c6.34,-0.87 12.64,-1.94 18.94,-3.04 3.13,-23.63 5.94,-47.3 8.85,-70.95 -37.89,-13.08 -75.35,-27.32 -113.35,-40.03 -1.45,-0.68 -4.35,-2.02 -5.8,-2.67zm-136.9 59.3l0 0c37.18,7.66 74.38,15.13 111.61,22.62 2.46,0.35 4.73,1.22 6.84,2.55 41.74,27.12 83.16,54.74 125.07,81.57 1.85,1.5 3.82,3.31 6.42,3.1 28.84,1.12 57.76,1.21 86.6,2.34 -6.62,-4.45 -14.44,-6.51 -21.66,-9.77 -18.42,-7.44 -36.66,-15.45 -55.67,-21.33 -9.81,-3.04 -20.14,-0.86 -30.16,-1.38 -35.33,-22.36 -69.19,-47.13 -104.89,-68.86 -2.25,-2.03 -4.87,-3.74 -7.94,-4.12 -34.23,-7.09 -68.58,-13.69 -102.83,-20.76 -4.31,4.82 -8.83,9.45 -13.39,14.04zm-119.55 11.69l0 0c-11.03,17 -22.2,33.88 -33.25,50.85 6.09,-0.3 12.2,-0.56 18.29,-0.61 3.7,3.73 7.42,7.42 11.1,11.17 2.92,2.9 5.9,5.81 8.96,8.59 14.71,-23.6 29.86,-46.94 44.75,-70.45 -3.63,-2.67 -6.51,-11.38 -11.8,-8.22 -12.79,2.46 -25.41,5.6 -38.05,8.67zm-65.32 23.11l0 0c4.59,2.2 9.17,4.4 13.74,6.64 -2.69,9.6 -5.99,19.02 -8.01,28.78 9.34,-13.67 18.48,-27.49 27.49,-41.37 -11.12,1.8 -22.17,3.91 -33.22,5.95zm258.71 43.76l0 0c7.59,9.69 16.81,18 24.31,27.76 -0.03,13.07 -1.17,26.13 -1.9,39.17 8.71,-7.18 17.89,-13.86 25.99,-21.77 -0.42,2.9 -0.77,5.83 -1.08,8.76l-0.21 -5.11c-6.6,11.62 -11.7,24 -17.89,35.85 21.29,13.37 42.57,26.76 63.97,39.92 5.24,-3.75 10.56,-7.42 15.9,-11.08 2.74,8.41 5.29,16.86 8.05,25.27 4.97,-6.93 8.81,-14.57 13.04,-21.94 -12.29,-6.21 -24.65,-12.29 -36.94,-18.52 3.86,-1.55 7.75,-3.05 11.66,-4.52 10.18,3.96 19.94,9.15 30.6,11.82 0.11,-1.42 0.4,-4.3 0.54,-5.76 -11.92,-5.41 -23.51,-11.52 -35.19,-17.39 -2.88,-1.41 -5.93,-2.95 -9.23,-2.46 -15.73,0.82 -31.47,1.57 -47.18,2.32 7.07,-11.03 13.28,-22.6 20.11,-33.76 13.75,1.47 27.45,3.08 41.17,4.65 -2.3,3.31 -4.59,6.61 -6.84,9.95 9.9,4.94 19.85,9.77 29.87,14.5 2.72,-8.38 3.49,-17.3 1.36,-25.92 1.76,-3.91 3.54,-7.8 5.32,-11.68 -6.86,-4.03 -13.77,-8.11 -21.17,-11.08 -13.37,-5.55 -28,-6.58 -41.91,-10.16 4.59,-1.66 9.18,-3.35 13.84,-4.92 -20.16,-7.93 -30.46,-31.04 -52.42,-35.54 -4.52,9.04 -9.18,18.01 -13.21,27.28 -6.04,-11.19 -12.13,-22.36 -18.14,-33.55 -0.59,9.29 -2.58,18.59 -2.42,27.91zm-308.35 -12.65l0 0c-9.88,29.18 -19.9,58.3 -29.45,87.59 -0.94,2.53 -1.62,5.53 -4.36,6.75 -8.03,5.12 -16.62,9.34 -24.51,14.7 11.91,-3.07 23.71,-6.6 35.47,-10.23 8.45,-18.8 17.63,-37.28 26.2,-56.03 2.97,3.53 5.97,7.05 9.18,10.42 9.64,-21.85 19.94,-43.39 29.64,-65.21 -14.1,3.84 -28.05,8.2 -42.17,12.01zm228.89 24.49l0 0c4.31,7.21 8.76,14.33 13.02,21.59 13.39,-9.93 26.17,-20.65 39.4,-30.79 -6.51,17.07 -13.44,33.97 -19.83,51.09 10.3,14.52 20.18,29.34 30.81,43.64 5.62,7.19 9.37,16.67 18.15,20.63 16.43,8.97 32.75,18.14 49.17,27.16 -1.6,-8.45 -0.75,-17.72 -3.84,-25.71 -15.08,-14.35 -31.17,-27.65 -46.55,-41.7 -1.05,-17.7 -0.47,-35.47 -1.29,-53.19 -5.64,-5.15 -12.34,-9.32 -17.25,-15.2 -1.74,-11.45 -1.88,-23.11 -3.23,-34.6 -19.62,12.19 -38.96,24.81 -58.56,37.08zm-32.15 -30.06l0 0c-7.93,0.75 -15.82,1.85 -23.69,3.07 3.93,14.63 6.74,29.59 11.12,44.11 6.6,7.35 14.07,13.95 21.4,20.6 -3.51,-12.41 -8.22,-24.47 -10.98,-37.09 8.31,14.71 15.99,29.76 24.23,44.51 7.89,3.51 15.74,7.19 23.72,10.59 -12.08,-25.62 -24.72,-50.97 -37.09,-76.45 4.15,1.97 8.31,3.96 12.41,6.07 8.69,-6.61 16.79,-13.91 25.05,-21.03 -15.42,1.62 -30.79,3.68 -46.17,5.62zm-130.88 21.89l0 0c-0.91,6.04 -0.58,12.41 -2.41,18.26 -5.43,2.49 -10.72,5.27 -15.83,8.34 0.92,7.14 1.66,14.33 2.32,21.52 -5.76,3.41 -11.35,7.04 -16.86,10.86 3.68,7.44 6.93,15.1 10.68,22.5 1.87,-6.04 1.43,-12.43 1.59,-18.66 5.55,-1.99 11.12,-3.98 16.7,-5.97 4,6.62 7.11,13.81 11.61,20.14 6.81,4.33 14.52,7 21.61,10.84 -0.63,-9.63 -1.66,-19.23 -2.2,-28.85 37.65,47.69 74.64,95.92 112.13,143.76 -9.98,-2.44 -19.88,-5.08 -29.9,-7.33 18.8,26.69 37.9,53.17 56.75,79.84 -1.5,8.43 -2.83,16.88 -3.91,25.4 39.59,47.32 78.88,94.92 118.26,142.43 15.55,-10.75 31.42,-21.12 46.29,-32.81l0.96 -0.07c-6.74,-13.18 -13.93,-26.15 -20.6,-39.38 5.29,-17.58 9.08,-35.63 12.8,-53.61 -0.61,-13.75 -3.13,-27.37 -5.06,-40.98 -26.29,-27.06 -51.39,-55.32 -78.06,-81.99 16.54,23.32 33.37,46.45 49.99,69.72 7.28,7.68 4.26,19.13 6.37,28.64 -26.06,-33.76 -53.22,-66.8 -82.44,-97.89 -7.28,-9.02 -20.7,-6.49 -29.62,-12.32 -19.92,-27.02 -38.98,-54.67 -58.79,-81.76 -8.57,-11.73 -19.08,-22.29 -25.31,-35.56 -2.64,-12.22 -2.5,-24.89 -4.84,-37.18 -8.1,-9.77 -17.26,-18.64 -25.71,-28.1 -3.75,6.79 -7.38,13.67 -11.22,20.42 -10.93,-9.79 -21.37,-20.14 -32.28,-29.97 -7.66,3.3 -15.29,6.62 -23.02,9.76zm104 38.31l0 0c21.71,31.46 45.68,61.32 67.06,92.99 5.46,7.12 9.67,16.11 18.45,19.69 9.55,4.48 18.94,9.32 28.66,13.37 8.17,-1.78 15.38,-6.79 23.06,-10.09 -11.31,-4.31 -22.78,-8.17 -34.18,-12.2 -15.27,-4.94 -25.29,-18.3 -35.47,-29.85 10.77,6.16 19.83,16.06 32.4,18.59 9.36,1.76 18.92,2.32 28.4,3.47 -4.36,-6.25 -7.24,-13.77 -12.67,-19.09 -20.41,-9.2 -42.16,-15.56 -61.67,-26.78 -9.15,-5.53 -16.55,-13.37 -24.37,-20.56 -8.59,-10.95 -19.79,-19.73 -29.67,-29.54zm197.94 34.74l0 0c4.47,-4.03 8.87,-8.1 13.35,-12.13 5.5,0.73 11,1.41 16.53,2.04 0.7,-1.24 2.1,-3.75 2.81,-4.99 -7.33,-0.72 -14.66,-1.54 -21.94,-2.5 -3.96,5.59 -7.59,11.45 -10.75,17.58zm95.41 -18.4l0 0c-1.31,3.95 -2.62,7.89 -3.91,11.87 5.5,-1.17 11.15,-1.94 16.51,-3.7 2.41,-2.2 3.11,-5.67 4.75,-8.41 -5.78,0.1 -11.57,0.19 -17.35,0.24zm-512.71 56.45l0 0c-28.72,-3.16 -57.26,-8.22 -86.02,-11.26 30.02,10.39 60.27,20.11 90.47,29.85 10.7,-11.66 21.92,-22.88 32.34,-34.79 -12.44,5.03 -24.21,11.61 -36.79,16.2zm77.31 -14.38l0 0c7.24,15.48 15.34,30.53 22.69,45.94 16.18,4.89 32.69,8.57 48.87,13.46 21.4,34.07 43.17,67.92 64.73,101.9 1.67,2.29 2.42,4.87 2.28,7.7 0.07,13.77 -0.1,27.53 0,41.3 46.99,58.02 94.21,115.83 140.87,174.08 8.74,-0.28 17.47,-0.52 26.2,-1.08 -48.02,-60.38 -97.86,-119.36 -146.19,-179.51 -3.96,-13.86 0.75,-29.22 -3.35,-43.13 -24.32,-39.89 -50.78,-78.48 -76.84,-117.25 -15.55,-0.96 -31.16,-1.4 -46.62,-3.3 -11.77,-12.57 -20.69,-27.65 -32.64,-40.11zm-41.86 57.76l0 0c6.58,6.42 13.07,12.93 20.14,18.8 4.68,3.87 9.18,7.94 13.58,12.13 6.88,-12.15 13.79,-24.3 20.53,-36.55 -3.07,-5.52 -6.11,-11.07 -9.15,-16.6 -5.25,-9.22 -10.35,-18.54 -15.53,-27.79 -9.9,16.65 -19.64,33.39 -29.57,50.01zm338.42 -21.37l0 0c-0.52,8.82 -1.22,17.65 -1.8,26.48 -5.6,4.33 -11.22,8.64 -16.74,13.06 16.5,4.66 33.13,8.85 49.65,13.39 -0.18,-7.54 -0.91,-15.1 0.22,-22.59l-0.61 0.87c-9.98,-10.68 -20.7,-20.61 -30.72,-31.21zm-403.02 5.78l0 0c12.55,16.41 24.78,33.15 38.26,48.84 -4.75,-14.8 -9.69,-29.55 -14.4,-44.37 -7.93,-1.61 -15.87,-3.14 -23.86,-4.47zm449.26 23.27l0 0c1.41,2.6 2.81,5.22 4.24,7.85l0.4 -0.05c3.51,7.14 7.54,14.02 11.38,20.98 6.36,-7.71 13.11,-15.17 18.82,-23.39 0.8,-0.66 2.36,-1.99 3.16,-2.65 -12.64,-1.36 -25.33,-1.94 -38,-2.74zm23.91 52.1l0 0c-9.63,0.26 -19.25,0.68 -28.85,1.07 23.46,17.59 47.55,34.33 71.48,51.28 0.66,12.9 1.62,25.75 2.27,38.66 7,-5.25 13.7,-10.89 20.68,-16.18 -6,12.71 -12.11,25.4 -17.03,38.61 -4.07,9.9 -1.31,20.67 -0.16,30.88 12.48,-14.21 24.87,-28.54 36.81,-43.2 5.22,-10.4 7.91,-21.92 12.1,-32.76 -27.49,-27.51 -55,-55.04 -82.53,-82.53 -5.13,4.5 -10.05,9.25 -14.77,14.17zm-44.51 4.23l0 0c20.32,28.08 41.95,55.24 62.81,82.94 -5.54,22.57 -10.74,45.18 -16.22,67.75 7.14,14.03 14.33,28.01 21.61,41.96 7.89,-8.45 15.73,-16.95 24.02,-25.01 -6.95,-7.6 -14.49,-14.65 -21.7,-22 -1.1,-28.54 -1.27,-57.11 -2.11,-85.67 -23.02,-19.74 -45.19,-40.48 -68.41,-59.97zm-422.5 27.73l0 0c1.78,63.54 18.52,126.4 46.43,183.37 6.93,13.58 14.05,27.53 25.15,38.23 20.88,0.87 41.81,0.99 62.72,1.2 -32.54,-26.58 -57.46,-61.11 -79.67,-96.44 -23.86,-39.31 -45,-81.08 -54.63,-126.36zm124.47 56.31l0 0c8.66,48.41 24.77,95.62 48.42,138.81 6.15,10.68 12.41,21.61 21.58,30.02 17.99,0.37 35.92,1.4 53.9,1.87 -53.52,-46.61 -93.58,-107 -123.9,-170.7zm-350.87 88.38l0 0c31.86,14.49 63.51,29.45 95.45,43.81 -4.17,-11.99 -8.45,-23.93 -12.52,-35.94 44.74,25.28 89.25,51.02 134.27,75.81 -49.89,-43.13 -100.91,-85.01 -151.11,-127.84 -21.96,14.85 -44.48,28.85 -66.09,44.16zm803.33 -13.81l0 0c19.67,21.16 40.55,41.16 60.24,62.35 -25.98,12.01 -52.58,22.64 -78.57,34.63 55.77,0.44 111.56,0.14 167.33,0.16 -29.5,-30.41 -58.74,-61.06 -88.12,-91.57 -20.3,-1.94 -40.58,-3.72 -60.88,-5.57zm138.16 234.79l0 0c-29.45,-0.1 -58.93,-0.03 -88.38,-0.03 -7.03,23.86 -13.93,47.77 -20.96,71.63l-1.19 0.16c-5.92,5.92 -12.15,11.54 -18.31,17.18 34.42,0.26 71.18,-3.91 99.9,-24.53 26.81,-19.18 41.96,-50.06 52.01,-80.62 -7.66,5.37 -16.3,9.74 -23.07,16.21z"/>
   <path class="fil3" d="M1072.5 1398.9c23.41,-0.42 46.87,-0.02 70.29,-0.17 21.42,0.24 43.05,-1.1 64.24,2.81 8.36,1.95 18.22,4.83 22.15,13.3 4.61,10.12 0.45,21.52 -3.63,31.1 -4.63,10.74 -16.22,15.4 -26.71,18.45 12.1,15.94 14.33,36.73 19.5,55.56 -20.37,0 -40.74,0 -61.08,0 -2.21,-12.2 -2.51,-24.82 -6.12,-36.69 -6.55,-9.18 -19.57,-5.15 -29.15,-6 -4.05,14.19 -7.7,28.5 -11.77,42.69 -19.2,-0.03 -38.38,0 -57.55,0 8.43,-31.45 17.11,-62.8 25.61,-94.2 -4.56,-0.02 -9.13,-0.02 -13.69,-0.02 2.85,-8.85 4.07,-18.4 7.91,-26.83zm227.25 3.96c37.25,-7.24 75.44,-3.84 113.13,-4.66 -3.02,10.72 -6.08,21.42 -8.99,32.19 -15.87,0.14 -31.72,-0.12 -47.57,0.16 -0.17,-1.35 -0.52,-4.07 -0.68,-5.43 -10.54,-0.33 -21.45,-1.1 -31.63,2.11 -4.17,0.89 -6.11,4.89 -8.32,8.08 2.37,2.41 4.73,5.17 8.25,5.97 21.11,6.13 44.57,4.73 64.17,15.82 8.15,4.15 12.08,14.19 9.09,22.83 -3.52,15.24 -15.27,27.82 -30,32.85 -22.31,8.03 -46.43,7.19 -69.77,7.17 -20.72,0 -41.44,0 -62.16,0 3.09,-11.2 6.34,-22.34 9.74,-33.44 17.51,0.12 35.05,0 52.56,0.07 -0.33,1.62 -0.98,4.83 -1.33,6.42 12.01,-0.54 24.3,1.38 36.08,-1.52 5.38,-1.22 6.83,-6.94 8.52,-11.36 -6.98,-5.53 -16.04,-6.37 -24.44,-8.03 -14.82,-2.69 -30.16,-4.59 -43.81,-11.36 -7.68,-3.74 -14.66,-11.56 -12.6,-20.72 2.65,-19.97 20.84,-33.78 39.76,-37.15zm-417.72 -3.87c52.07,-0.58 104.17,-0.07 156.24,-0.26 -2.48,9.02 -4.87,18.06 -7.47,27.02 -28.28,-0.02 -56.57,-0.02 -84.83,0 -1.57,5.62 -3.11,11.27 -4.63,16.91 25.68,0.04 51.34,0 77,0.02 -2.67,9.6 -5.1,19.25 -8.03,28.8 -25.63,-0.14 -51.3,-0.23 -76.93,0.02 -1.85,6.93 -3.73,13.86 -5.6,20.79 29.74,0.24 59.47,0.03 89.23,0.12 -2.48,9.18 -5.01,18.36 -7.52,27.54 -53.4,0 -106.81,0 -160.21,0 2.57,-8.83 4.37,-17.89 7.39,-26.58 3.59,-2.29 8.81,-0.37 12.98,-0.84 7,-22.01 12.24,-44.56 18.66,-66.75 -4.38,-0.03 -8.78,-0.05 -13.16,-0.05 2.06,-8.97 4.75,-17.79 6.88,-26.74zm-202.81 -0.3c18.64,0.12 37.28,0.04 55.92,0.04 13.9,20.96 27.74,41.98 41.6,63.01 3.14,-12.03 6.51,-23.98 9.74,-35.96 -4.82,-0.05 -9.62,-0.05 -14.42,-0.07 2.29,-9.04 4.82,-18.03 7.44,-27 21.94,0.05 43.88,0.02 65.82,0.02 -10.94,40.42 -22.01,80.81 -33.04,121.22 -18.28,-0.1 -36.55,0.18 -54.83,-0.17 -13.98,-20.95 -28.52,-41.56 -42.54,-62.49 -5.67,20.89 -11.36,41.79 -17.1,62.66 -17.27,-0.03 -34.53,0 -51.81,0 11.01,-40.44 21.87,-80.92 33.22,-121.26zm-122.19 0.04c23.86,0.03 47.74,-0.02 71.6,0.03 -10.12,38.12 -20.79,76.07 -30.98,114.16 -1.24,2.3 -0.65,7.8 -4.73,7 -22.99,0.1 -45.98,-0.02 -68.95,0.03 2.39,-9.23 4.89,-18.41 7.47,-27.56 4.82,0 9.62,-0.02 14.42,0 6.11,-22.22 12.13,-44.42 18.19,-66.64 -4.77,-0.02 -9.53,-0.02 -14.3,0 2.27,-9.06 4.8,-18.02 7.28,-27.02zm-239.35 0.1c23.01,-0.19 46.05,-0.05 69.06,-0.07 4.08,21.59 7.71,43.27 11.83,64.85 14.28,-19.85 28.42,-39.82 42.49,-59.86 1.74,-2.07 3.09,-5.51 6.42,-4.97 23.23,-0.12 46.47,-0.05 69.72,0.03 -10.93,40.36 -22.19,80.63 -32.99,121.02 -20.15,0.26 -40.34,0.05 -60.5,0.12 2.3,-9.23 4.85,-18.38 7.45,-27.51 2.86,-0.07 5.74,-0.1 8.59,-0.12 3.89,-14.21 7.71,-28.47 11.66,-42.66 -16.79,23.46 -33.46,47.01 -50.45,70.31 -11.41,-0.09 -22.81,0.09 -34.21,-0.16 -3.7,-23.14 -7.26,-46.29 -11.31,-69.38 -6.84,22.99 -12.85,46.24 -19.08,69.4 -17.21,0.26 -34.44,0.05 -51.65,0.12 10.96,-40.39 22.1,-80.73 32.97,-121.12zm777.16 -91.45c6.27,-6.05 12.97,-11.62 19.26,-17.61 51.8,0.42 103.59,-0.09 155.38,0.26 -6.12,6.04 -12.44,11.82 -18.9,17.46 -51.93,-0.14 -103.84,0.12 -155.74,-0.11zm27.15 -102.32c7.54,-5.95 14.99,-11.99 22.69,-17.7 26.15,0.35 52.33,0.05 78.48,0.19l-1.1 0.89c-7.32,5.24 -13.41,12.64 -21.68,16.31 -26.08,0.73 -52.26,0.03 -78.39,0.31zm-729.56 -70.36c6.79,-4.38 13.68,-8.57 20.61,-12.66 -15.62,53.05 -31.66,105.96 -47.42,159 -4.42,14.68 -7.6,30.29 -4.05,45.56 -8.68,-7.91 -12.64,-19.9 -12.43,-31.45 0.26,-15.33 5.39,-29.94 9.53,-44.55 11.24,-38.63 22.76,-77.2 33.76,-115.9zm656.8 0.02c7,-5.08 14.04,-10.06 21.14,-15.03 -18.47,62.63 -36.99,125.27 -55.75,187.8 -11.82,-0.04 -23.62,-0.02 -35.45,-0.04 -3.27,9.97 -5.12,20.41 -9.24,30.11 -5.51,6.06 -12.7,10.3 -19.06,15.4 4.63,-21.37 11.54,-42.26 17.98,-63.17 11.7,0.19 23.41,0.17 35.14,0.05 15.1,-51.7 30.39,-103.35 45.24,-155.12zm518.95 -1.63c6.77,-6.47 15.41,-10.84 23.07,-16.21 -10.05,30.56 -25.2,61.44 -52.01,80.62 -28.72,20.62 -65.48,24.79 -99.9,24.53 6.16,-5.64 12.39,-11.26 18.31,-17.18l1.19 -0.16c32.43,-3.56 66.47,-13.44 89.25,-38.14 9.21,-9.46 15.27,-21.31 20.09,-33.46zm-768.17 1.71c6.58,-5.16 13.28,-10.12 20.09,-14.97 -20.53,70.41 -41.88,140.6 -62.58,210.96 -2.06,11.26 -14.17,15.24 -21.75,22.24l-0.94 0.7c21.45,-73.07 43.71,-145.88 65.18,-218.93zm570.12 -0.05c6.91,-5.83 13.93,-11.52 21.07,-17.05 -20.23,69.94 -41.06,139.69 -61.32,209.62 -2.39,12.13 -14.77,17.56 -22.69,25.74l-0.79 0.67c20.84,-73.09 42.7,-145.93 63.73,-218.98zm-21.49 -62.44c114.61,-0.19 229.24,-0.29 343.85,0.04l-0.89 0.59c-8.29,5.24 -16,11.45 -24.75,15.92 -5.88,1.68 -12.18,0.68 -18.22,0.91 -96.37,-0.07 -192.76,-0.07 -289.13,-0.02 -3.07,10.39 -6.11,20.79 -9.18,31.19 -6.46,4.7 -12.88,9.45 -19.41,14.04 5.04,-21.12 12.11,-41.7 17.73,-62.67zm-321.17 6.9c1.2,-2.5 0.92,-7.86 5.11,-7 98.29,0.17 196.58,-0.51 294.87,0.35 -7.61,5.48 -13.72,14.24 -22.83,17.02 -88.06,0.31 -176.14,0.1 -264.22,0.1 -3.61,10.46 -5.53,21.54 -9.88,31.72 -5.6,5.29 -12.39,9.11 -18.69,13.51 4.17,-18.82 10.73,-37.06 15.64,-55.7zm-320.01 55.75c5.11,-21.19 11.8,-42 18.1,-62.87 94.19,0.31 188.41,-0.21 282.6,0.26l-1.05 1.03c-5.67,5.36 -11.24,10.84 -16.77,16.32 -84.78,0.02 -169.56,0.05 -254.31,0 -3.17,10.56 -6.16,21.19 -9.35,31.77 -6.37,4.55 -12.71,9.14 -19.22,13.49zm-114.51 -62.65c37.01,-0.1 74.05,-0.47 111.05,0.18 -8.03,5.67 -15.32,12.72 -24.26,16.93 -25.33,0.87 -50.74,-0.12 -76.12,0.45 -16.9,61.39 -34.09,122.7 -51.04,184.07 -2.97,10.94 -8.33,22.43 -19.13,27.54 -14.21,6.86 -30.79,7.23 -46.19,5.36 -12.81,-1.55 -24.54,-10.87 -26.97,-23.86 8.75,7.4 20.74,7.66 31.63,7.47 11.66,-0.61 23.93,-1.88 33.99,-8.31 8.46,-5.48 13.09,-15.08 15.62,-24.52 17.05,-61.79 34.37,-123.5 51.42,-185.31zm-220.04 0c44.39,-0.38 88.78,0.07 133.15,-0.22 4.07,0.26 8.71,-0.6 12.36,1.5 -6.51,5.55 -13.27,10.8 -19.99,16.09 -38.26,0.16 -76.52,-0.1 -114.78,0.14 -3.37,10.42 -5.5,21.26 -9.57,31.44 -5.55,5.58 -12.62,9.3 -19.08,13.68 5.26,-21.08 12.12,-41.7 17.91,-62.63zm480.18 -304.89c9.63,45.28 30.77,87.05 54.63,126.36 22.21,35.33 47.13,69.86 79.67,96.44 -20.91,-0.21 -41.84,-0.33 -62.72,-1.2 -11.1,-10.7 -18.22,-24.65 -25.15,-38.23 -27.91,-56.97 -44.65,-119.83 -46.43,-183.37zm422.5 -27.73c23.22,19.49 45.39,40.23 68.41,59.97 0.84,28.56 1.01,57.13 2.11,85.67 7.21,7.35 14.75,14.4 21.7,22 -8.29,8.06 -16.13,16.56 -24.02,25.01 -7.28,-13.95 -14.47,-27.93 -21.61,-41.96 5.48,-22.57 10.68,-45.18 16.22,-67.75 -20.86,-27.7 -42.49,-54.86 -62.81,-82.94zm44.51 -4.23c4.72,-4.92 9.64,-9.67 14.77,-14.17 27.53,27.49 55.04,55.02 82.53,82.53 -4.19,10.84 -6.88,22.36 -12.1,32.76 -11.94,14.66 -24.33,28.99 -36.81,43.2 -1.15,-10.21 -3.91,-20.98 0.16,-30.88 4.92,-13.21 11.03,-25.9 17.03,-38.61 -6.98,5.29 -13.68,10.93 -20.68,16.18 -0.65,-12.91 -1.61,-25.76 -2.27,-38.66 -23.93,-16.95 -48.02,-33.69 -71.48,-51.28 9.6,-0.39 19.22,-0.81 28.85,-1.07zm-473.17 -75.37c7.99,1.33 15.93,2.86 23.86,4.47 4.71,14.82 9.65,29.57 14.4,44.37 -13.48,-15.69 -25.71,-32.43 -38.26,-48.84zm29.15 -27.79c12.58,-4.59 24.35,-11.17 36.79,-16.2 -10.42,11.91 -21.64,23.13 -32.34,34.79 -30.2,-9.74 -60.45,-19.46 -90.47,-29.85 28.76,3.04 57.3,8.1 86.02,11.26zm547.74 -24.56c10.72,0.23 21.44,0.49 32.19,1.07 55.33,80.73 84.08,179.28 80.64,277.1 -7.47,-6.93 -14.85,-13.98 -22.06,-21.14 -2.55,-2.15 -4.96,-5.43 -8.69,-5.11 -14.63,-0.51 -29.26,1.41 -43.9,0.36 -6.2,-9.49 -12.85,-18.66 -19.01,-28.17 4.08,-13.18 8.95,-26.13 12.36,-39.52 -29.17,-30.04 -57.71,-60.71 -86.11,-91.48 7.45,-13.86 14.7,-27.79 22.13,-41.65 6.97,7.98 12.94,16.83 20.25,24.58 4.1,-25.35 8.1,-50.71 12.2,-76.04zm-820.78 192.36c12.64,-83.02 48.46,-162.3 102.17,-226.83 11.45,3.72 22.76,7.87 34.14,11.83 -0.77,6.67 -2.48,13.58 -0.65,20.25 5.01,19.32 10.04,38.63 14.98,57.97 15.05,4.78 30.37,8.73 45.44,13.46 -9.48,31.14 -15.21,63.62 -14.58,96.23 -0.12,34.09 7.19,67.55 14.42,100.66 -8.78,-7.15 -17.23,-14.71 -26.01,-21.83 -8.52,2.32 -16.72,5.91 -25.43,7.43 -18.64,-15.76 -36.48,-32.48 -54.81,-48.61 -26.08,17.54 -51.86,35.59 -77.59,53.64 -6.32,-1.29 -12.6,-2.79 -18.83,-4.45 2.44,-19.9 3.63,-39.94 6.75,-59.75zm322.54 -295.22c14.12,-3.81 28.07,-8.17 42.17,-12.01 -9.7,21.82 -20,43.36 -29.64,65.21 -3.21,-3.37 -6.21,-6.89 -9.18,-10.42 -8.57,18.75 -17.75,37.23 -26.2,56.03 -11.76,3.63 -23.56,7.16 -35.47,10.23 7.89,-5.36 16.48,-9.58 24.51,-14.7 2.74,-1.22 3.42,-4.22 4.36,-6.75 9.55,-29.29 19.57,-58.41 29.45,-87.59zm358.67 -55.07c35.7,21.73 69.56,46.5 104.89,68.86 10.02,0.52 20.35,-1.66 30.16,1.38 19.01,5.88 37.25,13.89 55.67,21.33 7.22,3.26 15.04,5.32 21.66,9.77 -28.84,-1.13 -57.76,-1.22 -86.6,-2.34 -2.6,0.21 -4.57,-1.6 -6.42,-3.1 -39.31,-32.52 -80.26,-63.09 -119.36,-95.9zm12.74 -70.14c1.45,0.65 4.35,1.99 5.8,2.67 32.88,15.85 65.91,31.37 98.95,46.85 -4.36,22.4 -8.92,44.79 -13.39,67.17l-0.14 0.7c-35.43,-22.29 -71.44,-43.62 -106.86,-65.91 23.22,2.37 46.38,5.65 69.56,8.5 -17.96,-20.02 -36.48,-39.52 -53.92,-59.98zm-161.06 1046.11l0 0c-2.35,8.52 -4.71,17.07 -6.98,25.61 9.76,-0.12 19.62,0.7 29.31,-0.77 5.86,-0.87 10.68,-5.22 12.25,-10.91 1.66,-4.05 3.37,-11.24 -2.39,-12.76 -10.56,-2.34 -21.49,-0.8 -32.19,-1.17z"/>
  </g>
 </g>
</svg>
