<?xml version="1.0" encoding="UTF-8"?>
<!DOCTYPE svg PUBLIC "-//W3C//DTD SVG 1.1//EN" "http://www.w3.org/Graphics/SVG/1.1/DTD/svg11.dtd">
<!-- Creator: CorelDRAW -->
<svg xmlns="http://www.w3.org/2000/svg" xml:space="preserve" width="2000px" height="1600px" version="1.1" style="shape-rendering:geometricPrecision; text-rendering:geometricPrecision; image-rendering:optimizeQuality; fill-rule:evenodd; clip-rule:evenodd"
viewBox="0 0 2000 1600"
 xmlns:xlink="http://www.w3.org/1999/xlink">
 <defs>
  <style type="text/css">
   <![CDATA[
    .fil1 {fill:black;fill-rule:nonzero}
    .fil0 {fill:#BA8D08;fill-rule:nonzero}
    .fil2 {fill:#FEFEFE;fill-rule:nonzero}
   ]]>
  </style>
 </defs>
 <g id="Capa_x0020_1">
  <metadata id="CorelCorpID_0Corel-Layer"/>
  <g id="Vanderbilt_x0020_Commodores.cdr">
   <path class="fil0" d="M1001.6 80l0.64 0c61.41,173.99 123.71,347.65 185.62,521.48 182.71,-0.04 365.41,0 548.11,-0.02l0 3.49 -0.02 -2.6c-144.18,109.63 -288.48,219.13 -432.64,328.76 69.88,184.76 139.99,369.44 209.93,554.18 4.29,11.55 9.09,22.91 12.65,34.71l-0.35 0c-61.07,-37.97 -123.25,-74.14 -184.76,-111.43 -113.94,-68.17 -227.52,-136.91 -341.56,-204.91 -167.43,100.91 -335.03,201.6 -502.51,302.44 -7.28,4.41 -15,8.22 -21.43,13.9l-0.98 0c13.25,-39.11 29.02,-77.34 43.31,-116.09 59.65,-157.62 119.54,-315.18 179.1,-472.83 -137.27,-104.29 -274.49,-208.56 -411.76,-312.83 -7.01,-5.38 -14.24,-10.47 -20.93,-16.24l0 -0.89c52.49,0.82 105.03,0.11 157.54,0.34 130.19,0.02 260.41,-0.05 390.6,0.02 45.64,-125.72 91.17,-251.49 136.72,-377.25 17.76,-48.02 34.37,-96.47 52.72,-144.23z"/>
   <path class="fil1" d="M994.59 198.83c2.17,-5.71 3.47,-11.98 7.44,-16.82 53.79,151.03 107.67,302.03 161.44,453.06 64.6,-0.18 129.21,0.62 193.79,-0.54 94.48,0.13 188.94,-0.16 283.39,0.13 -125.24,96.15 -251.48,190.99 -376.91,286.93 64.77,170.52 129.37,341.08 193.91,511.69 -152.9,-91.42 -305.48,-183.36 -458.36,-274.83 -72.82,44.02 -145.8,87.75 -218.69,131.65 -79.42,47.61 -158.52,95.81 -238.18,143 64.49,-170.56 129.19,-341.06 193.81,-511.58 -125.46,-95.87 -251.62,-190.87 -377.02,-286.88 94.55,-0.23 189.07,0 283.6,-0.11 64.56,1.18 129.16,0.34 193.72,0.57 52.67,-145.42 105.41,-290.83 158.06,-436.27z"/>
   <path class="fil2" d="M806.59 666.5c51.53,0 103.06,0 154.61,0 0.05,22.59 -0.11,45.16 0.1,67.75 -12.65,0.28 -25.27,0.07 -37.89,0.14 25.79,101.62 51.05,203.38 77.27,304.87 28.53,-101.44 55.82,-203.27 83.8,-304.87 -12.37,0 -24.76,0 -37.13,0 -0.02,-22.62 0.05,-45.23 -0.02,-67.85 47.56,-0.09 95.12,-0.04 142.68,-0.02 -0.05,22.62 -0.03,45.25 -0.03,67.87 -10.97,0 -21.95,0 -32.9,0 -38.32,131.61 -76.66,263.19 -114.89,394.8 -31.37,0 -62.73,0 -94.11,0 -35.78,-131.58 -71.45,-263.19 -107.28,-394.78 -11.39,-0.04 -22.77,-0.04 -34.16,0 -0.09,-22.64 -0.03,-45.27 -0.05,-67.91z"/>
  </g>
 </g>
</svg>
