<?xml version="1.0" encoding="UTF-8"?>
<!DOCTYPE svg PUBLIC "-//W3C//DTD SVG 1.1//EN" "http://www.w3.org/Graphics/SVG/1.1/DTD/svg11.dtd">
<!-- Creator: CorelDRAW -->
<svg xmlns="http://www.w3.org/2000/svg" xml:space="preserve" width="2000px" height="1600px" version="1.1" style="shape-rendering:geometricPrecision; text-rendering:geometricPrecision; image-rendering:optimizeQuality; fill-rule:evenodd; clip-rule:evenodd"
viewBox="0 0 2000 1600"
 xmlns:xlink="http://www.w3.org/1999/xlink">
 <defs>
  <style type="text/css">
   <![CDATA[
    .fil1 {fill:black;fill-rule:nonzero}
    .fil0 {fill:#005738;fill-rule:nonzero}
    .fil3 {fill:#9A6B38;fill-rule:nonzero}
    .fil4 {fill:#EEDDC5;fill-rule:nonzero}
    .fil2 {fill:#FCB827;fill-rule:nonzero}
    .fil5 {fill:#FEFEFE;fill-rule:nonzero}
   ]]>
  </style>
 </defs>
 <g id="Capa_x0020_1">
  <metadata id="CorelCorpID_0Corel-Layer"/>
  <g id="Vermont_x0020_Catamounts.cdr">
   <path class="fil0" d="M500.2 241.08c143.5,-0.02 286.99,0 430.49,-0.02 0.02,78.17 0.05,156.34 0,234.51 -28.2,-0.07 -56.41,0.02 -84.61,-0.05 2.52,7.34 5.14,14.65 7.56,22.03 -8.57,-3.66 -17.51,-6.51 -26.59,-8.64 -4.18,-11.9 -8.4,-23.76 -12.41,-35.7 31.21,-0.05 62.42,-0.05 93.62,0 0.21,-63.24 0.05,-126.51 0.1,-189.75 -128.62,-0.04 -257.21,-0.02 -385.8,-0.02 0.02,63.26 -0.02,126.5 0.02,189.74 36.39,0.1 72.78,-0.25 109.17,0.19 10.48,30.95 21.51,61.73 32.13,92.66 -5.94,4.91 -12.45,9.1 -19.17,12.82 -9.68,-27.77 -19.42,-55.49 -28.99,-83.28 -38.5,-0.05 -77.02,-0.03 -115.52,-0.03 -0.02,-78.14 0,-156.31 0,-234.46zm577.17 964.62c6.03,-6.26 11.74,-12.86 17.2,-19.63 2,7.57 4.86,14.88 7.5,22.27 1.81,-5.19 3.69,-10.34 5.36,-15.57 2.18,8.34 2.09,16.99 0.44,25.43 5.71,-2.37 11.4,-4.77 16.92,-7.57 -7.36,22.13 -15.11,44.14 -22.56,66.24 -8.28,-23.73 -16.53,-47.46 -24.86,-71.17zm-172.02 -178.79c19.08,-16.64 42.95,-32.23 69.48,-28.73 -4.45,12 -13.46,21.31 -20.29,31.9 -4.5,6.83 -9.36,13.39 -14.36,19.86 -10.87,14.08 -19.12,29.87 -28.36,45.03 -8.62,13.03 -9.45,29.1 -14.93,43.43 -8.71,-23.43 -16.55,-47.17 -24.88,-70.72 7.25,-16.3 20.46,-28.86 33.34,-40.77zm413.45 -738.8c111.99,0.02 223.98,-0.18 336,0.09 -0.14,46.78 -0.05,93.53 -0.05,140.31 -34.67,0.16 -69.34,-0.2 -104.01,0.19 -103.19,302.46 -206.78,604.8 -309.99,907.24 33.06,0.09 66.15,0 99.24,0.05 0.04,45.68 0.02,91.33 0.02,137 -157.46,0 -314.9,0 -472.33,0 -0.05,-45.67 -0.05,-91.32 0,-137 32.56,0 65.12,-0.03 97.68,0.02 -18.71,-54.27 -37.63,-108.5 -56.64,-162.66 4.84,-9.52 12.82,-17.61 22.8,-21.63 6.92,-2.59 14.53,0.44 21.48,-1.44 4.93,-3.58 9.49,-7.66 14.65,-10.96 -4.26,15.82 -2.84,32.12 -2.54,48.27 0.53,9.72 -4.56,18.27 -9.47,26.23 29.94,3 48.93,-23.64 71.93,-37.63 5.11,5.3 12.79,9.95 13.09,18.07 0.58,11.99 -3.76,23.41 -6.4,34.94 7.76,-1.35 15.55,-3.18 22.5,-7.01 15.18,43.61 30.5,87.15 45.63,130.79 105.75,-308.13 211.44,-616.27 317.05,-924.42 -33.54,-0.07 -67.09,0.02 -100.66,-0.05 0.02,-46.8 0.02,-93.6 0.02,-140.4zm-771.59 -0.02c111.97,-0.02 223.96,-0.02 335.92,0 0.03,46.82 0,93.62 0,140.44 -34.55,0.03 -69.08,0 -103.64,0 6.67,18.88 13.23,37.79 19.81,56.71 -8.39,-0.02 -16.81,0.55 -25.06,2.16 -12.64,2.2 -23.69,9.37 -36.3,11.74 -20.06,4.12 -38.96,13.36 -54.73,26.37 -11.42,-32.29 -22.45,-64.71 -33.94,-96.98 -34,0 -68.03,0 -102.06,0 0,-46.82 -0.02,-93.62 0,-140.44zm724.59 -47.03c143.51,0.02 287.01,0 430.51,0.02 0,78.15 0.02,156.32 0,234.46 -39.21,0.03 -78.43,-0.02 -117.63,0.03 -41.85,123.38 -84.43,246.54 -126.21,369.95 -1.28,3.78 -2.64,7.54 -3.97,11.32 -3.05,8.58 -5.89,17.2 -8.85,25.82 -1.86,5.32 -3.67,10.67 -5.48,16.01 -13.16,38.38 -26.25,76.79 -39.39,115.17 -3.21,9.27 -6.31,18.58 -9.52,27.84 -1.79,5.14 -3.53,10.3 -5.3,15.46 -26.37,77.09 -52.62,154.22 -79.1,231.27 26.89,0 53.81,0 80.73,0 0,77.2 0,154.39 0,231.59l-566.94 0c0,-77.2 0,-154.39 0,-231.59 26.03,-0.02 52.05,0.02 78.1,-0.02 -21.33,-61.55 -42.77,-123.05 -64.27,-184.5 7.31,-1.31 15.68,-1.24 21.09,-7.22 25.16,71.26 49.74,142.71 74.71,214.05 -29.1,0.11 -58.18,0 -87.25,0.07 -0.02,62.28 -0.02,124.55 0,186.83 174.06,0.05 348.12,0.02 522.18,0.02 0.05,-62.3 0.03,-124.57 0,-186.85 -29.83,-0.07 -59.68,0.04 -89.52,-0.07 97.64,-285.85 195.37,-571.69 293.14,-857.51 37.03,-0.07 74.06,0 111.12,-0.03 0,-63.24 -0.02,-126.48 0,-189.72 -128.59,-0.04 -257.18,-0.02 -385.77,-0.02 -0.05,63.22 0.02,126.46 -0.05,189.67 30.11,0.14 60.24,0.07 90.37,0.03 -66.32,194.83 -133.5,389.37 -200.11,584.09 -11.1,31.83 -21.6,63.86 -33.05,95.58 -2.7,-9.82 -4.6,-21.49 -14.42,-26.86 12.13,-33.75 23.34,-67.85 35.13,-101.71 3.99,-11.35 7.82,-22.77 11.53,-34.21 4.82,-12.68 8.9,-25.62 13.3,-38.43 15.67,-45.18 31.07,-90.44 46.6,-135.66 1.72,-5.06 3.46,-10.11 5.2,-15.18 13.03,-37.85 25.96,-75.74 38.98,-113.59 1.22,-3.58 2.46,-7.13 3.7,-10.71 1.94,-5.64 3.87,-11.31 5.8,-16.97 18.68,-54.66 37.58,-109.24 56.13,-163.92 -27.17,-0.05 -54.35,0.02 -81.49,-0.05 0,-78.15 -0.03,-156.29 0,-234.46z"/>
   <path class="fil1" d="M712.33 80l49.37 0c47.67,2.64 95.18,9.77 141.08,23.04 90.51,24.54 172.21,83.79 220.04,164.89 40.95,59.09 58.43,130.09 74.2,199.17 3.14,12.75 5.23,25.85 10.11,38.11 10.85,28.55 23.37,56.59 39.01,82.87 9.26,12.64 18.36,25.48 28.82,37.17 5.85,6.9 14.47,10.07 22.2,14.24 -1.93,5.66 -3.86,11.33 -5.8,16.97 -30.25,-17.11 -63.59,-28.53 -97.89,-33.98 5.68,4.38 11.39,8.73 16.94,13.3 -15.59,3.14 -28.73,-8.86 -41.87,-15.34 -21.78,-13.85 -43.68,-31.33 -70.42,-33.05 -39,3.99 -74.01,23.46 -106.87,43.62 -5.48,3.28 -8.69,9.01 -12.34,14.03 -16.39,23.07 -31.55,47.53 -52.76,66.61 4.77,-8.02 7.5,-17.06 6.19,-26.48l0.92 -2.64c9.08,-23.59 9.06,-50.45 1.51,-74.48 -9.06,-28.31 -31.16,-54.07 -61.15,-60.51 8.64,-1.7 17.42,-0.85 25.84,1.65 -7.29,-8.73 -14.93,-17.38 -24.47,-23.73 -18.46,-13.3 -40.7,-19.56 -62.5,-24.88 -29.52,-6.49 -60.33,3.99 -83.97,21.72 -13.3,9.15 -23.76,21.57 -35.91,32.05 3.62,-12.5 13.25,-21.44 21.67,-30.79 -26.67,10.73 -46.78,34.51 -55.1,61.79 16.64,-9.83 35.7,-16.51 55.21,-15.86 12.25,16.14 31.53,24 46.41,37.14 1.88,1.61 3.72,3.26 5.6,4.91 26.71,-10.09 52.25,-23.27 80.02,-30.45 0.21,0.14 0.64,0.36 0.85,0.5 -24.63,12.84 -50.38,24.13 -72.39,41.37 31.71,-5.94 62.23,-18.9 94.89,-19.15 -27.06,9.33 -54.3,18.18 -81.11,28.21 28.66,-2.07 57.05,-7.37 85.83,-8.01 -27.65,7.09 -55.74,12.43 -83.28,19.95 21.87,5.99 44.71,9.01 65.71,17.91 -11,-0.66 -21.94,-1.99 -32.92,-2.55 -13.6,-1.3 -27.17,-3.43 -40.89,-2.49 8.97,5.06 18.81,8.34 27.57,13.82 -11.47,-1.19 -22.59,-4.22 -33.76,-6.81 -5.2,4.36 -9.26,9.93 -11.44,16.37 19.76,2.89 40.29,3.93 59.89,-0.68 -3.83,9.76 -11.99,16.71 -17.24,25.63 -12.7,21.14 -18.6,45.4 -24.26,69.18 -4.04,13.32 -8.16,29.19 -21.19,36.55 -17.86,6.19 -37.63,0.53 -55.49,7.22 1.95,11.81 11.92,21.26 23.44,23.76 16.41,3.67 35.81,-0.43 46.27,-14.49 22.4,-24.28 40.93,-52.21 66.52,-73.4 10.89,-9.17 21.64,-18.57 33.48,-26.53 -1.24,4.52 -4.11,8.25 -7.2,11.65 -7.27,7.98 -13.56,17.06 -22.48,23.34 -8.85,6.38 -15.04,15.48 -21.5,24.1 -5.28,7.29 -10.76,15.59 -9.68,25.06 0.3,7.82 7.87,12.52 9.75,19.79 2.11,8.03 2.98,16.33 4.15,24.54 -5.51,-8.07 -9.15,-17.32 -15.07,-25.11 -2.57,-3.26 -8.46,-7.27 -11.85,-2.98 -6.26,6.9 -10.67,15.61 -18.69,20.77 -11.51,9.31 -28.39,7.52 -39.19,17.98 -5.96,5.27 -5.82,14.28 -3.14,21.19 4.13,10.57 11.85,19.1 18.57,28.04 -10.82,-7.43 -22.26,-14.06 -34.74,-18.39 7.73,17.95 16.88,35.36 28.07,51.41 -23.85,-4.17 -48.18,-1.17 -71.7,3.55 -14.22,2.94 -28.25,7.18 -42.79,8.33 -31,2.7 -62.3,-1.26 -93.23,2.89 -27.73,3.27 -55.22,9.76 -83.28,8.94 -12.94,-0.37 -23.99,-7.8 -34.84,-13.99 -15.49,-9.03 -31.57,-19.17 -50.03,-19.95 -7.36,-0.57 -14.47,1.72 -21.37,3.99 2.89,4.73 6.38,9.06 9.26,13.81 2.89,7.65 0.65,18.78 9.73,22.88 17.03,7.52 36.52,2.52 53.68,-2.18 -7.13,7.59 -14.38,15.07 -21.6,22.54 11.44,4.68 19.35,14.29 28.77,21.81 10.28,8.02 23.94,7.5 36.26,7.15 13.18,0.9 26.48,0.28 39.64,1.88 -15.43,10.73 -34.9,12.18 -51.82,19.61 2.98,1.05 6.05,1.49 9.2,1.28 34.05,-2.43 67.94,-6.58 101.44,-13.07 -7.55,3.65 -15.3,6.93 -23.3,9.5 -8.94,2.98 -17.68,6.55 -26.44,10.11 -34.37,14.35 -63.54,38.34 -97.11,54.27 -8.8,4.31 -19.01,1.26 -28.2,3.99 -4.38,1.33 -8.53,6.51 -5.94,11.08 9.22,3.39 15.94,-12.66 24.31,-5.8 -0.12,3.04 -0.37,6.09 -0.71,9.14 12.93,-0.68 24,-7.93 32.88,-16.89 23.41,-21.95 56.02,-27.66 84.75,-39.54 15.93,-7.1 33.82,-8.75 51.04,-6.99 27.28,2.41 53.1,12.31 79.86,17.43 52.51,5.23 106.26,9.88 158.38,-1.15 16.92,-2.06 27.84,-16.94 36.37,-30.22 4.58,-7.7 8,-16.01 11.58,-24.19 8.53,-20.18 19.53,-39.17 31.53,-57.46 -1.66,9.35 -2.92,18.8 -4.06,28.24 26.89,-13.78 59.52,-11 85.04,-27.88 9.61,-5.98 9.63,-18.94 7.64,-28.8 -4.68,-18.89 -9.97,-39.87 -1.88,-58.56 2.29,10.66 3.99,21.6 8.48,31.64 5.69,13.71 14.86,25.62 25.07,36.3 4.1,-4.88 7.79,-10.16 9.79,-16.26 7.66,-21.09 12.95,-43.24 24.26,-62.83 18.09,-35.44 52.87,-57.64 75.69,-89.49 8.35,-9.88 3,-23.76 7.77,-35.04 7.23,14.86 7.89,33.04 0.65,48.02 -6.52,14.01 -17.75,24.92 -28.37,35.84 -10.96,10.61 -20.48,22.61 -29.65,34.76 -20.54,28.82 -22.24,66.31 -41.55,95.75 -3.35,5.46 -8.07,9.86 -13.04,13.81 5.43,0.21 10.89,0.55 16.3,1.44 -5.71,5.99 -14.22,7.04 -21.44,10.3 -19.72,8.44 -37.63,21.78 -50.03,39.42 -6.88,9.81 -16.17,17.49 -23.8,26.64 -11.86,13.25 -19.15,29.65 -27.68,45.03 7.45,-4.65 15.52,-10.98 24.92,-9.08 4.75,1.88 8.67,6.45 8.26,11.81 -0.41,9.45 -3.9,18.39 -5.39,27.68 9.86,-5.85 17.52,-14.49 26.69,-21.23 11.79,-8.69 19.9,-21.21 31.35,-30.29 -7.92,21.32 -20.39,40.93 -25.25,63.42 6.92,-5.27 14.51,-12.5 24.03,-10.2 6.1,0.64 9.42,6.26 11.05,11.55 0.71,3.21 1.33,6.42 2.02,9.63 8.07,-8.5 15.68,-17.7 21,-28.22 3.1,-7.89 3.74,-16.49 6.24,-24.56 2.8,-0.69 5.62,-1.22 8.46,-1.74 -4.31,21.16 -9.97,42.55 -7.86,64.36 4.01,-7.2 6.76,-15.06 11.21,-22.01 3.42,-5.39 10.02,-6.84 15.8,-8.28l2.77 -0.5c7.07,3.07 10.92,9.9 13.44,16.8 -0.27,-3.96 -0.44,-7.93 -0.62,-11.87 -3.62,-4.66 -7.82,-9.73 -7.24,-16.01 0.48,-11.05 6.78,-20.66 11.53,-30.29 0.82,-1.51 1.65,-2.98 2.52,-4.45 5.94,24.01 0.39,50.38 12.25,72.87 5.29,-7.95 10.61,-16.09 17.88,-22.45 3.88,-3.34 8.16,-6.19 12.43,-9.03 -3.81,-9.88 -16.49,-10.85 -20.71,-20.36 -7.49,-14.63 -3.51,-32.24 -11.03,-46.94 6.06,-23.14 20.62,-43.57 39.79,-57.71 13,-10.78 24.92,-22.84 38.63,-32.79 -3.71,11.44 -7.54,22.86 -11.53,34.21 -4.7,3.85 -9.54,7.52 -14.58,10.91 -14.79,10.07 -25.89,24.86 -33.16,41.09 2.68,14.36 1.9,29.03 3.83,43.5 2.91,2.09 5.82,4.13 8.78,6.21 9.82,5.37 11.72,17.04 14.42,26.86 3.47,27.97 -2.59,60.16 -26.55,77.82 -5.52,2.8 -11.21,5.2 -16.92,7.57 1.65,-8.44 1.74,-17.09 -0.44,-25.43 -0.34,-2.07 -0.68,-4.11 -1.03,-6.15 -2.91,-1.56 -5.8,-3.14 -8.64,-4.74 -0.8,1.03 -2.39,3.14 -3.19,4.19 -5.46,6.77 -11.17,13.37 -17.2,19.63 -6.21,6.26 -13.09,11.88 -20.61,16.49 -6.95,3.83 -14.74,5.66 -22.5,7.01 2.64,-11.53 6.98,-22.95 6.4,-34.94 -0.3,-8.12 -7.98,-12.77 -13.09,-18.07 -23,13.99 -41.99,40.63 -71.93,37.63 4.91,-7.96 10,-16.51 9.47,-26.23 -0.3,-16.15 -1.72,-32.45 2.54,-48.27 -5.16,3.3 -9.72,7.38 -14.65,10.96 -6.95,1.88 -14.56,-1.15 -21.48,1.44 -9.98,4.02 -17.96,12.11 -22.8,21.63 -1.44,2.56 -2.86,5.16 -4.31,7.72 -11.6,-10.96 -10.91,-28.34 -7.52,-42.67 5.48,-14.33 6.31,-30.4 14.93,-43.43 9.24,-15.16 17.49,-30.95 28.36,-45.03 5,-6.47 9.86,-13.03 14.36,-19.86 6.83,-10.59 15.84,-19.9 20.29,-31.9 -26.53,-3.5 -50.4,12.09 -69.48,28.73 -12.88,11.91 -26.09,24.47 -33.34,40.77 -4.52,10.16 -9.86,20 -16.44,28.99 -5.41,5.98 -13.78,5.91 -21.09,7.22 -61.96,9.88 -126.49,12.64 -187.57,-3.92 -27.56,-8.83 -56,-17.2 -85.23,-16.07 -24.81,4.86 -48.09,14.99 -72.19,22.28 -13.39,6.54 -28.22,10.39 -39.85,20.09 -11.44,8.67 -24.81,14.06 -38.43,18.12 -13.73,12.72 -25.89,29.09 -44.5,34.9 -13.76,1.88 -25.99,-7.09 -34.86,-16.63 -7.77,-7.75 -12.88,-17.77 -20.73,-25.34 -8.69,-1.33 -17.72,-0.64 -26.02,-4.05 -9.2,-3.15 -17.71,-9.89 -20.96,-19.27 -2.64,-10.02 2.73,-19.67 3.62,-29.55 0.78,-9.5 5.8,-17.82 7.68,-27.04 -5.66,-4.93 -11.42,-10.18 -14.28,-17.31l0 -9.61c2.96,-13.53 13.11,-25.29 26.21,-29.92 12.2,-5.05 26.78,-9.66 33.5,-21.97 1.26,-15.04 1.65,-33.27 15.86,-42.46 18.39,4.7 34.68,-10.03 53,-6.79 13.18,1.83 21.69,13.34 33.54,18.25 32.91,18.32 72.6,18.62 108.55,10.5 51.02,-12.24 105.09,-8.35 154.78,-26.6 7.25,-3.07 15.25,-5.43 21.19,-10.75 7.01,-13.19 1.88,-29.17 8.41,-42.51 2.94,-7.29 6.58,-15.36 3.88,-23.3 -7.98,-11.69 -23.76,-14.29 -32.01,-25.61 -3.9,-5.05 -3.35,-11.6 -2.82,-17.57 -8.74,-17.77 -16.3,-36.39 -18.62,-56.22 2.68,-1.03 5.52,-4.36 8.55,-2.55 6.72,4.15 12.77,9.31 19.4,13.6 0.48,-10.87 2.04,-22.45 -2.8,-32.65 -0.57,5.11 -0.52,10.3 -1.47,15.36 -1.9,2.64 -5.36,3.3 -7.65,0.76 -15.83,-11.01 -28.11,-26.39 -37.56,-43.04 -13.1,-3.44 -16.24,-17.4 -20.18,-28.46 -14.36,5.07 -28.55,10.64 -43.04,15.25 12.93,-9.42 26.85,-17.52 39.55,-27.29l0.19 -2.95c-17.2,1.1 -32.45,10.34 -49.46,12.49 15.96,-9.74 33.2,-17.12 49.85,-25.59 -24.72,1.56 -49.14,6.17 -73.75,8.83 21.33,-9.58 43.94,-15.87 66.2,-22.84 -25.63,-3.69 -51.57,-3.57 -77.39,-4.47 26.42,-4.72 53.23,-6.58 79.94,-8.3 -27.52,-6.76 -56,-9.28 -83.03,-18.09 6.14,-0.48 12.31,-0.69 18.46,-0.16 27.24,2.18 54.32,6.08 81.24,10.71 3.09,-3.67 6.26,-7.27 9.45,-10.85 -12.8,-6.51 -27.06,-9.9 -39.4,-17.26 -3.64,-2.27 -0.32,-5.99 2.23,-7.32 12.13,-8.6 25.52,-15.18 38.75,-21.87 6.72,-3.72 13.23,-7.91 19.17,-12.82 6.72,-6.58 11.94,-14.58 19.33,-20.52 15.77,-13.01 34.67,-22.25 54.73,-26.37 12.61,-2.37 23.66,-9.54 36.3,-11.74 8.25,-1.61 16.67,-2.18 25.06,-2.16 9.33,0.48 18.62,1.65 27.75,3.67 9.08,2.13 18.02,4.98 26.59,8.64 21.35,12.2 46.3,14.63 70.38,16.1 38.43,1.08 77.52,5.25 113.48,19.77 6.69,3.32 14.15,7.22 17.52,14.28 0.89,13.48 -11.15,22.5 -20.23,30.48 14.61,-3.19 28.8,-8.76 43.94,-8.97 6.88,-28.8 9.97,-58.4 10.75,-87.96 -0.05,-49.55 -12.24,-98.37 -30.22,-144.27 -18.23,-40.59 -39.42,-80.9 -70.51,-113.23 -23,-20.23 -50.17,-35.8 -78.88,-46.39 -87.96,-25.5 -181.84,-42.35 -272.84,-23.41 -37.27,6.35 -70.03,27.72 -107.41,33.64 -7.01,1.37 -15.61,1.14 -20.5,-4.89 -3.39,-3.57 -2.56,-8.96 -2.63,-13.43 0.96,-19.91 15.36,-36.76 32.42,-45.7 53.22,-28.37 113.62,-40.38 173.42,-43.57zm-86.47 979.93c63.42,6.59 127.9,3.01 190.27,-10.15 3.65,-0.05 8.23,-3.21 11.28,-0.03 0.21,4.66 -3.3,8.24 -5.89,11.72 -5.32,3.35 -10.84,6.9 -17.27,7.59 -53.93,7.43 -109.07,6.86 -162.68,-2.93 -15.09,-2.57 -29.86,-7.09 -45.22,-8.03 9.86,0.05 19.72,0.53 29.51,1.83zm814.31 -161.26c1.81,-5.34 3.62,-10.69 5.48,-16.01 22.93,19.95 38.52,46.83 49.64,74.82 4.22,11.58 11.58,23.03 9.22,35.89 -25.31,-28.8 -43.29,-62.9 -64.34,-94.7zm14.33 -41.83c1.33,-3.78 2.69,-7.54 3.97,-11.32 32.35,38.82 62,80.09 86.77,124.21 5.54,9.51 9.12,20.61 18.04,27.72 14.45,0.23 28.69,5.85 38.85,16.19 17.01,17.17 24.83,40.68 33.63,62.62 3.03,6.65 4.54,14.88 11.38,18.87 29,20.46 49.98,50.56 63.93,82.85 4.08,11.42 20.61,12.91 22.4,25.66 3.78,14.83 7.43,30.49 4.01,45.76 -1.76,4.29 -7.29,4.32 -10.91,6.08 -2.3,7.64 -4.27,17.01 -12.41,20.57 -7.54,4.47 -16.33,2.75 -24.54,2.18 -5.18,-0.92 -8.66,3.57 -12.31,6.35 -17.63,-1.45 -29.07,-16.63 -45.58,-20.96 -8.88,-5.89 -11.38,-17.61 -12.98,-27.52 -27.22,-22.24 -29.05,-60.09 -48.06,-87.77 -14.31,-23.5 -32.17,-46.3 -57.17,-59.07 -12.22,1.63 -24.58,3.4 -36.91,2.27 -32.17,-5.16 -63.04,-17.13 -90.65,-34.39 1.77,-5.16 3.51,-10.32 5.3,-15.46 25.43,14.33 51.46,29.17 80.46,34.79 22.52,4.47 47.22,0.39 65.61,-13.83 7.1,-9.08 2.56,-21.78 4.65,-32.38 2.04,2.34 4.01,4.68 6.05,7.07 4.41,5.02 8.67,10.57 10.07,17.29 5,22.24 6.42,45.37 14.44,66.88 6.68,15.62 17.27,29.24 23.46,45.1 5.23,13.6 10,27.5 17.18,40.25 3.21,5.73 8.85,9.56 12.38,15.06 3.19,5.85 5.36,12.18 8.32,18.16 1.4,-0.16 4.2,-0.48 5.62,-0.64 6.47,6.74 11.17,15.13 18.71,20.89 4.98,4.24 11.47,5.94 17.66,7.63 -0.87,-6.05 -2.39,-11.99 -4.61,-17.67 8.76,7.77 19.92,14.72 32.17,12.95 4.1,-0.82 9.97,-1.81 10.34,-7.04 1.33,-9.15 -12.93,-13.11 -8.74,-22.58 4.45,6.94 14.02,4.26 20.94,6.21 0.44,-10.3 -0.67,-20.75 -3.39,-30.68 -4.98,-9.13 -17.18,-11.67 -21.37,-21.46 -9.98,-21.26 -20.64,-42.61 -36.46,-60.22 2.63,4.8 4.65,9.93 5.36,15.41 -10.66,-6.51 -20.29,-15.15 -26.57,-26.05 -7,-12.61 -14.13,-25.22 -18.94,-38.86 -7.16,-18.21 -13.58,-38.04 -28.67,-51.41 -11.05,-9.88 -25.88,-14.77 -40.63,-14.04 -5.75,-4.4 -11.49,-8.91 -16.07,-14.56 -23.09,-49.91 -52.3,-96.76 -84.73,-141.11zm-307.99 -45.35c5.34,-9.31 7.75,-20.27 15.11,-28.37 -11.86,58.91 -40.57,113.74 -79.11,159.57 -14.54,15.53 -22.5,35.61 -34.67,52.83 0.76,-14.3 6.65,-27.53 12.95,-40.15 6.17,-12.13 9.25,-25.54 15.71,-37.53 19.61,-37.86 51.94,-67.55 70.01,-106.35zm81.99 -43.25c8.85,0.28 16.1,4.73 20.18,12.52 -1.74,5.07 -3.48,10.12 -5.2,15.18 -5.51,-8.96 -10.69,-18.11 -14.98,-27.7zm-241.72 -93.57c2.38,-4.55 5,-8.97 8.25,-12.94 -5.66,21.97 -15.68,42.51 -24.83,63.22 -9.04,23.82 -32.45,41.55 -57.65,44.42 31.39,-25.69 55.13,-59.23 74.23,-94.7zm-239.51 -126.92c17.31,-9.15 34.74,-20.57 54.85,-21.51 -11.44,8.6 -23.82,16.03 -33.98,26.25 22.15,1.24 45.91,-0.8 66.08,10.28 -9.37,4.1 -19.35,6.81 -28.29,11.9 -10.41,5.5 -19.75,12.75 -29.6,19.12 -5.09,3.53 -11.54,0.25 -16.72,-1.44 -14.19,-6.88 -25.22,-19.08 -40.31,-24.36 8.48,-11.28 19.1,-20.75 30.59,-28.89 -0.64,2.16 -1.95,6.47 -2.62,8.65z"/>
   <path class="fil2" d="M522.56 263.44c128.59,0 257.18,-0.02 385.8,0.02 -0.05,63.24 0.11,126.51 -0.1,189.75 -31.2,-0.05 -62.41,-0.05 -93.62,0 4.01,11.94 8.23,23.8 12.41,35.7 -9.13,-2.02 -18.42,-3.19 -27.75,-3.67 -6.58,-18.92 -13.14,-37.83 -19.81,-56.71 34.56,0 69.09,0.03 103.64,0 0,-46.82 0.03,-93.62 0,-140.44 -111.96,-0.02 -223.95,-0.02 -335.92,0 -0.02,46.82 0,93.62 0,140.44 34.03,0 68.06,0 102.06,0 11.49,32.27 22.52,64.69 33.94,96.98 -7.39,5.94 -12.61,13.94 -19.33,20.52 -10.62,-30.93 -21.65,-61.71 -32.13,-92.66 -36.39,-0.44 -72.78,-0.09 -109.17,-0.19 -0.04,-63.24 0,-126.48 -0.02,-189.74zm771.62 0c128.59,0 257.18,-0.02 385.77,0.02 -0.02,63.24 0,126.48 0,189.72 -37.06,0.03 -74.09,-0.04 -111.12,0.03 -97.77,285.82 -195.5,571.66 -293.14,857.51 29.84,0.11 59.69,0 89.52,0.07 0.03,62.28 0.05,124.55 0,186.85 -174.06,0 -348.12,0.03 -522.18,-0.02 -0.02,-62.28 -0.02,-124.55 0,-186.83 29.07,-0.07 58.15,0.04 87.25,-0.07 -24.97,-71.34 -49.55,-142.79 -74.71,-214.05 6.58,-8.99 11.92,-18.83 16.44,-28.99 8.33,23.55 16.17,47.29 24.88,70.72 -3.39,14.33 -4.08,31.71 7.52,42.67 1.45,-2.56 2.87,-5.16 4.31,-7.72 19.01,54.16 37.93,108.39 56.64,162.66 -32.56,-0.05 -65.12,-0.02 -97.68,-0.02 -0.05,45.68 -0.05,91.33 0,137 157.43,0 314.87,0 472.33,0 0,-45.67 0.02,-91.32 -0.02,-137 -33.09,-0.05 -66.18,0.04 -99.24,-0.05 103.21,-302.44 206.8,-604.78 309.99,-907.24 34.67,-0.39 69.34,-0.03 104.01,-0.19 0,-46.78 -0.09,-93.53 0.05,-140.31 -112.02,-0.27 -224.01,-0.07 -336,-0.09 0,46.8 0,93.6 -0.02,140.4 33.57,0.07 67.12,-0.02 100.66,0.05 -105.61,308.15 -211.3,616.29 -317.05,924.42 -15.13,-43.64 -30.45,-87.18 -45.63,-130.79 7.52,-4.61 14.4,-10.23 20.61,-16.49 8.33,23.71 16.58,47.44 24.86,71.17 7.45,-22.1 15.2,-44.11 22.56,-66.24 23.96,-17.66 30.02,-49.85 26.55,-77.82 11.45,-31.72 21.95,-63.75 33.05,-95.58 66.61,-194.72 133.79,-389.26 200.11,-584.09 -30.13,0.04 -60.26,0.11 -90.37,-0.03 0.07,-63.21 0,-126.45 0.05,-189.67z"/>
   <path class="fil3" d="M607.24 124.62c30.22,-10.71 62.09,-16.62 94.11,-18.23 28.27,0.09 56.7,-1.49 84.83,2.02 29.63,0.5 59.05,5.82 87.41,14.28 22.18,6.47 44.92,10.87 67.03,17.62 22.2,8.16 42.83,20.08 65.01,28.34 47.58,30.06 86.49,74.04 110.45,125.03 9.12,19.86 19.19,39.31 27.33,59.62 20.11,48.13 33.91,98.69 43.22,149.99 12.89,35.68 28.97,70.55 37.22,107.77 -22.36,-0.48 -43.29,-9.36 -63.72,-17.52 -18.23,-7.22 -35.04,-18.09 -54.23,-22.82 0.25,-39.78 4.77,-79.56 1.33,-119.32 -1.61,-18.99 -6.49,-37.49 -10.71,-56.02 -11.17,-45.17 -26.51,-89.91 -51.29,-129.58 -26.24,-42.62 -64.97,-78.35 -111.67,-97.15 -64.21,-26.05 -134.14,-30.61 -202.41,-36.53 -54.25,-6.33 -108.85,6.83 -158.72,27.61 -5.48,2.68 -11.65,2.66 -17.61,2.45l0.44 -0.62c10.8,-19.6 31.87,-29.53 51.98,-36.94zm121.28 397.68c23.64,-17.73 54.45,-28.21 83.97,-21.72 21.8,5.32 44.04,11.58 62.5,24.88 9.54,6.35 17.18,15 24.47,23.73 -8.42,-2.5 -17.2,-3.35 -25.84,-1.65 29.99,6.44 52.09,32.2 61.15,60.51 7.55,24.03 7.57,50.89 -1.51,74.48 -10.76,-22.29 -25.8,-42.28 -41.96,-60.92 -13.39,-14.66 -27.5,-28.92 -44.03,-40.02 -0.21,-0.14 -0.64,-0.36 -0.85,-0.5 -9.4,-5.21 -20.86,-12.75 -31.8,-7.32 -19.06,8.95 -37.47,19.56 -53.82,32.86 -14.88,-13.14 -34.16,-21 -46.41,-37.14 -19.51,-0.65 -38.57,6.03 -55.21,15.86 8.32,-27.28 28.43,-51.06 55.1,-61.79 -8.42,9.35 -18.05,18.29 -21.67,30.79 12.15,-10.48 22.61,-22.9 35.91,-32.05zm172.38 8.5c38.34,-4.72 77.74,-2.24 115.32,6.86 -19.68,3.6 -39.1,8.37 -58.11,14.61 -10.89,2.75 -21.07,7.56 -30.81,13.07 -8.95,-11.4 -17.98,-22.75 -26.4,-34.54zm-274.99 51.55c8.46,-5.71 17.9,-11.53 28.64,-9.54 -1.47,5.82 -3.31,11.51 -5.49,17.11 -7.49,-3.17 -15.2,-5.9 -23.15,-7.57zm471.92 17.22c25.61,-1.4 46.93,14.47 70.71,20.87 13.14,6.48 26.28,18.48 41.87,15.34 7.87,-0.97 15.6,1.35 23.05,3.64 19.49,6.12 37.21,16.63 54.2,27.75 -13.02,37.85 -25.95,75.74 -38.98,113.59 -4.08,-7.79 -11.33,-12.24 -20.18,-12.52 4.29,9.59 9.47,18.74 14.98,27.7 -15.53,45.22 -30.93,90.48 -46.6,135.66 -13.36,13.34 -25.56,28.7 -42.74,37.37 13.71,-16.65 29.95,-31.8 38.59,-51.98 -13.11,7.15 -25.7,15.5 -36.43,25.98 -15.34,14.67 -27.04,32.63 -42.08,47.56 -9.74,9.26 -18.46,20.54 -20.89,34.09 -3.44,16.05 3.58,31.62 8.88,46.44 4.54,11.76 2.43,24.58 4.21,36.8 1.24,12.27 14.31,17.82 18.05,29 -7.27,6.36 -12.59,14.5 -17.88,22.45 -11.86,-22.49 -6.31,-48.86 -12.25,-72.87 -0.87,1.47 -1.7,2.94 -2.52,4.45 -4.75,-0.71 -10.5,-1.17 -13.3,3.65 -9.42,10.68 -4.43,25.47 -6.58,38.22 -5.78,1.44 -12.38,2.89 -15.8,8.28 -4.45,6.95 -7.2,14.81 -11.21,22.01 -2.11,-21.81 3.55,-43.2 7.86,-64.36 -2.84,0.52 -5.66,1.05 -8.46,1.74 -14.7,10.64 -17.49,30.06 -29.26,43.15 -1.63,-5.29 -4.95,-10.91 -11.05,-11.55 -9.52,-2.3 -17.11,4.93 -24.03,10.2 4.86,-22.49 17.33,-42.1 25.25,-63.42 -11.45,9.08 -19.56,21.6 -31.35,30.29 -9.17,6.74 -16.83,15.38 -26.69,21.23 1.49,-9.29 4.98,-18.23 5.39,-27.68 0.41,-5.36 -3.51,-9.93 -8.26,-11.81 -9.4,-1.9 -17.47,4.43 -24.92,9.08 8.53,-15.38 15.82,-31.78 27.68,-45.03 7.63,-9.15 16.92,-16.83 23.8,-26.64 12.4,-17.64 30.31,-30.98 50.03,-39.42 7.22,-3.26 15.73,-4.31 21.44,-10.3 -5.41,-0.89 -10.87,-1.23 -16.3,-1.44 4.97,-3.95 9.69,-8.35 13.04,-13.81 19.31,-29.44 21.01,-66.93 41.55,-95.75 9.17,-12.15 18.69,-24.15 29.65,-34.76 10.62,-10.92 21.85,-21.83 28.37,-35.84 7.24,-14.98 6.58,-33.16 -0.65,-48.02 -4.77,11.28 0.58,25.16 -7.77,35.04 -22.82,31.85 -57.6,54.05 -75.69,89.49 -11.31,19.59 -16.6,41.74 -24.26,62.83 -2,6.1 -5.69,11.38 -9.79,16.26 -10.21,-10.68 -19.38,-22.59 -25.07,-36.3 -4.49,-10.04 -6.19,-20.98 -8.48,-31.64 -8.09,18.69 -2.8,39.67 1.88,58.56 1.99,9.86 1.97,22.82 -7.64,28.8 -25.52,16.88 -58.15,14.1 -85.04,27.88 1.14,-9.44 2.4,-18.89 4.06,-28.24 -12,18.29 -23,37.28 -31.53,57.46 -6.26,-12.82 -13.74,-25.18 -24.35,-34.88 -12.57,-12.43 -24.95,-25.04 -37.75,-37.21 8.39,14.97 16.1,31.16 30.09,41.84 -33.07,-2.43 -63.5,-17.47 -96.33,-21.09 -13.35,-1.86 -26.49,1.99 -39.24,5.43 8.72,4.84 17.84,9.66 24.26,17.54 6.17,6.97 9.68,15.73 12.89,24.36 -16.69,-11.63 -35.01,-21.22 -54.94,-25.82 -10.89,-2.43 -22.2,-5.53 -33.38,-3.31 -26.81,5.87 -54.14,12.64 -81.8,9.54 -33.43,-0.69 -62.89,18.21 -95.38,23.16 -12.32,0.35 -25.98,0.87 -36.26,-7.15 -9.42,-7.52 -17.33,-17.13 -28.77,-21.81 7.22,-7.47 14.47,-14.95 21.6,-22.54 -17.16,4.7 -36.65,9.7 -53.68,2.18 -9.08,-4.1 -6.84,-15.23 -9.73,-22.88 -2.88,-4.75 -6.37,-9.08 -9.26,-13.81 6.9,-2.27 14.01,-4.56 21.37,-3.99 18.46,0.78 34.54,10.92 50.03,19.95 10.85,6.19 21.9,13.62 34.84,13.99 28.06,0.82 55.55,-5.67 83.28,-8.94 30.93,-4.15 62.23,-0.19 93.23,-2.89 14.54,-1.15 28.57,-5.39 42.79,-8.33 23.52,-4.72 47.85,-7.72 71.7,-3.55 -11.19,-16.05 -20.34,-33.46 -28.07,-51.41 12.48,4.33 23.92,10.96 34.74,18.39 -6.72,-8.94 -14.44,-17.47 -18.57,-28.04 -2.68,-6.91 -2.82,-15.92 3.14,-21.19 10.8,-10.46 27.68,-8.67 39.19,-17.98 8.02,-5.16 12.43,-13.87 18.69,-20.77 3.39,-4.29 9.28,-0.28 11.85,2.98 5.92,7.79 9.56,17.04 15.07,25.11 -1.17,-8.21 -2.04,-16.51 -4.15,-24.54 -1.88,-7.27 -9.45,-11.97 -9.75,-19.79 -1.08,-9.47 4.4,-17.77 9.68,-25.06 6.46,-8.62 12.65,-17.72 21.5,-24.1 8.92,-6.28 15.21,-15.36 22.48,-23.34 3.09,-3.4 5.96,-7.13 7.2,-11.65l0.71 -0.48c8.99,-6.08 17.54,-12.73 26.32,-19.13 -0.18,-10.43 -0.25,-21.6 -5.91,-30.77 -6.17,-9.86 -15.73,-17.19 -25.94,-22.54 -9.63,-5.16 -20.96,-4.33 -31.18,-7.61 20.61,-0.6 42.05,1.08 60.9,10.16 12.86,5.98 21.25,17.86 30.54,28.09 1.31,9.42 -1.42,18.46 -6.19,26.48 21.21,-19.08 36.37,-43.54 52.76,-66.61 14.17,-9.7 29.33,-17.98 45.4,-24.08 8.14,-3.07 16.67,-6.53 25.57,-5.34 22.31,2.2 42.6,12.43 63.4,20.02 -1.72,-13.23 -6.6,-25.96 -15.45,-36.07zm347.82 283.09c2.96,-8.62 5.8,-17.24 8.85,-25.82 32.43,44.35 61.64,91.2 84.73,141.11 -6.35,21.4 -16.17,43.57 -34.9,56.89 -11.03,7.89 -25.32,4.22 -37.01,0 -24.63,-9.21 -45.72,-25.36 -66.54,-41 13.14,-38.38 26.23,-76.79 39.39,-115.17 21.05,31.8 39.03,65.9 64.34,94.7 2.36,-12.86 -5,-24.31 -9.22,-35.89 -11.12,-27.99 -26.71,-54.87 -49.64,-74.82zm-1168.17 135.52c13.17,-8.6 28.67,-12.41 43.5,-16.95 5.62,-2.13 12.09,1.15 15.37,5.8 5.29,9.36 7.81,20.57 4.99,31.14 -5.94,2.71 -11.94,5.28 -18.06,7.53 -10.02,-8.65 -18.35,-21.61 -32.22,-23.92 -9.26,-1.65 -14.31,7.31 -18.69,13.73 0.53,-5.87 -0.53,-13.5 5.11,-17.33zm1270.55 19.15c15.76,-3.38 27.61,8.55 40.66,14.83 4.08,1.93 7.36,5.16 9.33,9.26 12.66,23.9 17.95,50.91 30.4,74.92 6.04,11.67 15.39,21.09 22.91,31.75 8.35,11.1 15.32,23.14 22.93,34.72 8.1,12.38 22.36,18.71 30.77,30.8 -4.19,9.47 10.07,13.43 8.74,22.58 -0.37,5.23 -6.24,6.22 -10.34,7.04 -12.25,1.77 -23.41,-5.18 -32.17,-12.95 2.22,5.68 3.74,11.62 4.61,17.67 -6.19,-1.69 -12.68,-3.39 -17.66,-7.63 -7.54,-5.76 -12.24,-14.15 -18.71,-20.89 -1.42,0.16 -4.22,0.48 -5.62,0.64 -2.96,-5.98 -5.13,-12.31 -8.32,-18.16 -3.53,-5.5 -9.17,-9.33 -12.38,-15.06 -7.18,-12.75 -11.95,-26.65 -17.18,-40.25 -6.19,-15.86 -16.78,-29.48 -23.46,-45.1 -8.02,-21.51 -9.44,-44.64 -14.44,-66.88 -1.4,-6.72 -5.66,-12.27 -10.07,-17.29zm-1214.78 23.16c17.01,0.98 33.68,5.11 49.78,10.45 -15.64,5.43 -34.78,7.57 -48.95,-2.73 -0.21,-1.95 -0.62,-5.8 -0.83,-7.72zm-53.54 16.46c5.55,11.88 19.53,14.72 27.77,24.08 -11.03,4.33 -29.08,5.27 -29.17,20.95 -8.53,-14.15 -2.41,-30.47 1.4,-45.03zm83.28 13.21c5.3,-2.34 11.1,-0.48 16.56,0.23 -3.15,9.72 -12.43,15.18 -21.93,17.26 -9.95,-2.93 -20.79,-0.18 -30.36,-4.95 0.74,-1.45 2.23,-4.29 2.99,-5.73 6.81,1.23 13.62,3.67 20.61,3.27 5.5,-1.19 7.75,-7.15 12.13,-10.08zm-20.45 39.09c2.15,-6.56 7.24,-11.19 12.72,-15.04 5.28,7.09 12.11,12.86 20.82,15.06 -8.83,5.26 -16.53,12.48 -21.92,21.26 -2.38,7.7 2.43,14.45 8.07,19.12 -15.73,-1.03 -24.51,-15.96 -33.91,-26.62 5.89,-3.16 11.83,-7.17 14.22,-13.78zm644.24 -454.58l0 0c-19.1,35.47 -42.84,69.01 -74.23,94.7 25.2,-2.87 48.61,-20.6 57.65,-44.42 9.15,-20.71 19.17,-41.25 24.83,-63.22 -3.25,3.97 -5.87,8.39 -8.25,12.94zm159.73 136.82l0 0c-18.07,38.8 -50.4,68.49 -70.01,106.35 -6.46,11.99 -9.54,25.4 -15.71,37.53 -6.3,12.62 -12.19,25.85 -12.95,40.15 12.17,-17.22 20.13,-37.3 34.67,-52.83 38.54,-45.83 67.25,-100.66 79.11,-159.57 -7.36,8.1 -9.77,19.06 -15.11,28.37zm-399.24 -263.74l0 0c0.67,-2.18 1.98,-6.49 2.62,-8.65 -11.49,8.14 -22.11,17.61 -30.59,28.89 15.09,5.28 26.12,17.48 40.31,24.36 5.18,1.69 11.63,4.97 16.72,1.44 9.85,-6.37 19.19,-13.62 29.6,-19.12 8.94,-5.09 18.92,-7.8 28.29,-11.9 -20.17,-11.08 -43.93,-9.04 -66.08,-10.28 10.16,-10.22 22.54,-17.65 33.98,-26.25 -20.11,0.94 -37.54,12.36 -54.85,21.51z"/>
   <path class="fil4" d="M687.91 98.57c9.79,-1.99 19.86,-1.58 29.76,-2.36 11.21,-2.64 22.68,-0.21 33.96,0.37 17.66,-0.14 35.29,1.51 52.72,4.13 6.09,0.61 12.22,1.16 18.29,2.24 4.57,0.78 9.18,1.42 13.74,2.25 3.85,0.8 7.75,1.49 11.6,2.29 18.6,3.49 36.94,8.23 55.01,13.78 20.34,6.26 40.22,14.06 59.44,23.19 1.14,0.57 3.46,1.74 4.6,2.31 13.3,6.47 26.17,13.85 38.6,21.88 -22.18,-8.26 -42.81,-20.18 -65.01,-28.34 -22.11,-6.75 -44.85,-11.15 -67.03,-17.62 -28.36,-8.46 -57.78,-13.78 -87.41,-14.28 -28.13,-3.51 -56.56,-1.93 -84.83,-2.02 -32.02,1.61 -63.89,7.52 -94.11,18.23 -20.11,7.41 -41.18,17.34 -51.98,36.94 -3.58,-1.88 -7.11,-3.83 -10.69,-5.71 -0.3,-4.22 -0.64,-8.87 2.55,-12.2 25.54,-24.48 60.51,-35.95 94.97,-40.65 6.79,-1.29 13.69,-1.74 20.6,-2.25 8.27,-1.83 16.8,-1.72 25.22,-2.18zm126.71 475.2c10.94,-5.43 22.4,2.11 31.8,7.32 -27.77,7.18 -53.31,20.36 -80.02,30.45 -1.88,-1.65 -3.72,-3.3 -5.6,-4.91 16.35,-13.3 34.76,-23.91 53.82,-32.86zm32.65 7.82c16.53,11.1 30.64,25.36 44.03,40.02 16.16,18.64 31.2,38.63 41.96,60.92l-0.92 2.64c-9.29,-10.23 -17.68,-22.11 -30.54,-28.09 -18.85,-9.08 -40.29,-10.76 -60.9,-10.16 10.22,3.28 21.55,2.45 31.18,7.61 10.21,5.35 19.77,12.68 25.94,22.54 5.66,9.17 5.73,20.34 5.91,30.77 -8.78,6.4 -17.33,13.05 -26.32,19.13 1.33,-8.92 4.9,-18.8 -0.42,-27.13 -11.58,-20.06 -32.95,-31.09 -53.19,-40.52 10.98,0.56 21.92,1.89 32.92,2.55 -21,-8.9 -43.84,-11.92 -65.71,-17.91 27.54,-7.52 55.63,-12.86 83.28,-19.95 -28.78,0.64 -57.17,5.94 -85.83,8.01 26.81,-10.03 54.05,-18.88 81.11,-28.21 -32.66,0.25 -63.18,13.21 -94.89,19.15 22.01,-17.24 47.76,-28.53 72.39,-41.37zm143.98 49.42c32.86,-20.16 67.87,-39.63 106.87,-43.62 26.74,1.72 48.64,19.2 70.42,33.05 -23.78,-6.4 -45.1,-22.27 -70.71,-20.87 8.85,10.11 13.73,22.84 15.45,36.07 -20.8,-7.59 -41.09,-17.82 -63.4,-20.02 -8.9,-1.19 -17.43,2.27 -25.57,5.34 -16.07,6.1 -31.23,14.38 -45.4,24.08 3.65,-5.02 6.86,-10.75 12.34,-14.03zm202.22 -8.53c34.3,5.45 67.64,16.87 97.89,33.98 -1.24,3.58 -2.48,7.13 -3.7,10.71 -16.99,-11.12 -34.71,-21.63 -54.2,-27.75 -7.45,-2.29 -15.18,-4.61 -23.05,-3.64 -5.55,-4.57 -11.26,-8.92 -16.94,-13.3zm-542.62 10.55c7.52,-2.85 15.43,-4.59 23.35,-5.9 -6.56,3.26 -11.79,8.42 -10.62,16.4 -4.31,-3.21 -13,-3.83 -12.73,-10.5zm505.45 309.94c10.73,-10.48 23.32,-18.83 36.43,-25.98 -8.64,20.18 -24.88,35.33 -38.59,51.98 17.18,-8.67 29.38,-24.03 42.74,-37.37 -4.4,12.81 -8.48,25.75 -13.3,38.43 -13.71,9.95 -25.63,22.01 -38.63,32.79 -19.17,14.14 -33.73,34.57 -39.79,57.71 7.52,14.7 3.54,32.31 11.03,46.94 4.22,9.51 16.9,10.48 20.71,20.36 -4.27,2.84 -8.55,5.69 -12.43,9.03 -3.74,-11.18 -16.81,-16.73 -18.05,-29 -1.78,-12.22 0.33,-25.04 -4.21,-36.8 -5.3,-14.82 -12.32,-30.39 -8.88,-46.44 2.43,-13.55 11.15,-24.83 20.89,-34.09 15.04,-14.93 26.74,-32.89 42.08,-47.56zm-349.71 13.99c12.8,12.17 25.18,24.78 37.75,37.21 10.61,9.7 18.09,22.06 24.35,34.88 -3.58,8.18 -7,16.49 -11.58,24.19 -11.93,2.52 -23.23,7.86 -35.59,8.23 2.59,-3.48 6.1,-7.06 5.89,-11.72 -3.05,-3.18 -7.63,-0.02 -11.28,0.03 -62.37,13.16 -126.85,16.74 -190.27,10.15 -9.79,-1.3 -19.65,-1.78 -29.51,-1.83 -16.42,-1.76 -32.43,-6.31 -48.43,-10.29 8,-2.57 15.75,-5.85 23.3,-9.5 -33.5,6.49 -67.39,10.64 -101.44,13.07 -3.15,0.21 -6.22,-0.23 -9.2,-1.28 16.92,-7.43 36.39,-8.88 51.82,-19.61 -13.16,-1.6 -26.46,-0.98 -39.64,-1.88 32.49,-4.95 61.95,-23.85 95.38,-23.16 27.66,3.1 54.99,-3.67 81.8,-9.54 11.18,-2.22 22.49,0.88 33.38,3.31 19.93,4.6 38.25,14.19 54.94,25.82 -3.21,-8.63 -6.72,-17.39 -12.89,-24.36 -6.42,-7.88 -15.54,-12.7 -24.26,-17.54 12.75,-3.44 25.89,-7.29 39.24,-5.43 32.83,3.62 63.26,18.66 96.33,21.09 -13.99,-10.68 -21.7,-26.87 -30.09,-41.84zm697.74 97.88c18.73,-13.32 28.55,-35.49 34.9,-56.89 4.58,5.65 10.32,10.16 16.07,14.56 14.75,-0.73 29.58,4.16 40.63,14.04 15.09,13.37 21.51,33.2 28.67,51.41 4.81,13.64 11.94,26.25 18.94,38.86 6.28,10.9 15.91,19.54 26.57,26.05 -0.71,-5.48 -2.73,-10.61 -5.36,-15.41 15.82,17.61 26.48,38.96 36.46,60.22 4.19,9.79 16.39,12.33 21.37,21.46 2.72,9.93 3.83,20.38 3.39,30.68 -6.92,-1.95 -16.49,0.73 -20.94,-6.21 -8.41,-12.09 -22.67,-18.42 -30.77,-30.8 -7.61,-11.58 -14.58,-23.62 -22.93,-34.72 -7.52,-10.66 -16.87,-20.08 -22.91,-31.75 -12.45,-24.01 -17.74,-51.02 -30.4,-74.92 -1.97,-4.1 -5.25,-7.33 -9.33,-9.26 -13.05,-6.28 -24.9,-18.21 -40.66,-14.83 -2.04,-2.39 -4.01,-4.73 -6.05,-7.07 -2.09,10.6 2.45,23.3 -4.65,32.38 -18.39,14.22 -43.09,18.3 -65.61,13.83 -29,-5.62 -55.03,-20.46 -80.46,-34.79 3.21,-9.26 6.31,-18.57 9.52,-27.84 20.82,15.64 41.91,31.79 66.54,41 11.69,4.22 25.98,7.89 37.01,0zm-425.81 39.7c2.8,-4.82 8.55,-4.36 13.3,-3.65 -4.75,9.63 -11.05,19.24 -11.53,30.29 -0.58,6.28 3.62,11.35 7.24,16.01 0.18,3.94 0.35,7.91 0.62,11.87 -2.52,-6.9 -6.37,-13.73 -13.44,-16.8l-2.77 0.5c2.15,-12.75 -2.84,-27.54 6.58,-38.22zm-63.45 49.04c11.77,-13.09 14.56,-32.51 29.26,-43.15 -2.5,8.07 -3.14,16.67 -6.24,24.56 -5.32,10.52 -12.93,19.72 -21,28.22 -0.69,-3.21 -1.31,-6.42 -2.02,-9.63z"/>
   <path class="fil5" d="M999.59 561.74c7.59,-6.61 18.69,-4.8 27.66,-2.48 -0.83,2.68 -1.26,5.85 -4.13,7.22 -26.32,19.42 -51.71,40.27 -74.43,63.88 -1.7,-12.35 -7.08,-26.82 1.56,-37.81 11.58,-16.85 33.13,-20.27 49.34,-30.81zm-227.78 1.71c5.02,-0.18 10.09,-0.16 15.11,0.14 1.03,9.01 -5.64,15.64 -12.7,19.93 0.23,-6.79 -0.74,-13.51 -2.41,-20.07zm-25.25 3.56c4.73,-0.18 9.79,-2.39 14.38,-0.78 3.35,6.05 5.71,12.59 8.94,18.69 -9.77,-2.41 -19.83,-7.87 -23.32,-17.91zm-61.89 48.66c14.04,-3.51 28.8,-4.24 43.09,-1.95 6.53,0.73 9.68,7.2 12.77,12.17 -2.22,10.14 -15.57,14.38 -15.06,25.16 5.02,9.63 12.72,17.54 19.35,26.09 -23.25,-1.12 -46.23,-5.32 -68.72,-11.12 -3.51,-18.5 15.02,-28.52 27.31,-37.97 -3.83,-7.11 -11.65,-9.72 -18.74,-12.38zm-48.54 33.11c0.14,-7.02 0.85,-14.59 5.37,-20.27 0.78,4.83 -2.57,12.22 3.35,14.83 10.11,5.76 18.5,14.77 22.08,25.98 -1.33,9.45 -8.24,17.45 -15.94,22.66 -0.73,-0.32 -2.2,-0.94 -2.94,-1.26 -6.44,-13.07 -11.32,-27.27 -11.92,-41.94zm146.98 8.05c13.72,-0.94 27.29,1.19 40.89,2.49 20.24,9.43 41.61,20.46 53.19,40.52 5.32,8.33 1.75,18.21 0.42,27.13l-0.71 0.48c-11.84,7.96 -22.59,17.36 -33.48,26.53 -25.59,21.19 -44.12,49.12 -66.52,73.4 -10.46,14.06 -29.86,18.16 -46.27,14.49 -11.52,-2.5 -21.49,-11.95 -23.44,-23.76 17.86,-6.69 37.63,-1.03 55.49,-7.22 13.03,-7.36 17.15,-23.23 21.19,-36.55 5.66,-23.78 11.56,-48.04 24.26,-69.18 5.25,-8.92 13.41,-15.87 17.24,-25.63 -19.6,4.61 -40.13,3.57 -59.89,0.68 2.18,-6.44 6.24,-12.01 11.44,-16.37 11.17,2.59 22.29,5.62 33.76,6.81 -8.76,-5.48 -18.6,-8.76 -27.57,-13.82zm-106.48 26.73c4.61,-2.08 9.72,-1.67 14.63,-1.28 -1.61,4.61 -3.76,9.01 -6.13,13.27 -2.77,-3.85 -9.74,-6.46 -8.5,-11.99zm18.87 -1.26c4.77,0.55 9.56,1.08 14.35,1.65 -2.04,3.56 -4.2,7.06 -6.58,10.41 -2.77,-3.9 -5.34,-7.93 -7.77,-12.06zm22.61 1.97c7.47,0.83 14.97,1.4 22.47,1.97 -0.94,14.52 -10.09,26.28 -17.15,38.37 -1.43,-13.49 -1.91,-27.15 -5.32,-40.34zm-62.47 14.88c5.21,-3.8 10.48,-7.56 15.78,-11.25 4.11,15.27 6.1,31 8.71,46.57 -9.63,-10.64 -18.73,-22.06 -24.49,-35.32zm87.76 94.09c-1.13,-12.57 -3.63,-25.14 -3.14,-37.77 8.43,12.41 16.05,25.34 23.91,38.09 -3.73,4.38 -8.37,8.25 -14.31,8.96 -17.45,2.75 -35.24,1.88 -52.78,3.9 -9.68,-11.1 -14.54,-25.27 -17.89,-39.35 12.02,10.69 21.79,23.92 35.59,32.56 0.34,-4.95 0.92,-9.88 2.09,-14.72 4.36,2.64 8.16,6.03 11.53,9.84 0.99,-3.83 2.07,-7.64 3.21,-11.42 4.27,2.89 8.14,6.28 11.79,9.91zm-410.91 171.56c0.49,-7.57 3.15,-17.11 11.61,-19.1 8.2,-0.99 13.96,7.56 14.17,14.95 1.65,7.01 -5.25,11.76 -5.81,18.39 -0.8,7.77 0.83,15.5 2.48,23.07 -11.23,-9.06 -25.66,-21.1 -22.45,-37.31zm-50.88 82.75c-1.6,-6.94 2.75,-13.25 5.76,-19.12 11.3,5.18 25.36,10.46 28.36,24.07 -4.17,1.27 -6.3,-2.61 -8.85,-5.09 -2.61,13.76 11.19,22.22 18.83,31.51 -19.61,2.73 -41.39,-11.05 -44.1,-31.37zm239.87 10.37c8.76,-3.56 17.5,-7.13 26.44,-10.11 16,3.98 32.01,8.53 48.43,10.29 15.36,0.94 30.13,5.46 45.22,8.03 53.61,9.79 108.75,10.36 162.68,2.93 6.43,-0.69 11.95,-4.24 17.27,-7.59 12.36,-0.37 23.66,-5.71 35.59,-8.23 -8.53,13.28 -19.45,28.16 -36.37,30.22 -52.12,11.03 -105.87,6.38 -158.38,1.15 -26.76,-5.12 -52.58,-15.02 -79.86,-17.43 -17.22,-1.76 -35.11,-0.11 -51.04,6.99 -28.73,11.88 -61.34,17.59 -84.75,39.54 -8.88,8.96 -19.95,16.21 -32.88,16.89 0.34,-3.05 0.59,-6.1 0.71,-9.14 -8.37,-6.86 -15.09,9.19 -24.31,5.8 -2.59,-4.57 1.56,-9.75 5.94,-11.08 9.19,-2.73 19.4,0.32 28.2,-3.99 33.57,-15.93 62.74,-39.92 97.11,-54.27zm399.35 50.88c5.6,-6.61 13.92,-10.23 22.52,-10.41 1.03,14.9 -6.38,29.1 -15.5,40.31 -9.93,5.96 -20.32,12.91 -24.4,24.37 -0.48,-19.24 4.4,-39.6 17.38,-54.27zm-626.13 2.02c6.52,-2.64 13.85,-5.9 20.92,-3.42 -2.36,2.34 -4.82,4.56 -7.25,6.81 12.73,-0.14 25.45,-1.1 38.2,-0.5 -12.4,10.08 -28.66,12.91 -44.21,13.18 -5.23,-0.25 -11.1,-1.63 -14.53,-5.94 -2.07,-4.98 3.37,-7.96 6.87,-10.13zm75.86 43.98c12.68,-8.14 23.96,-18.26 36.18,-27.06 -6.19,18.66 -22.61,34.16 -42.49,36.69 -2.34,-4.66 -3.78,-10.41 -1.63,-15.39 3.97,-6.33 10.71,-10.52 17.89,-12.36 -0.78,7.29 -5.85,12.5 -9.95,18.12zm744.35 14.53c2.36,-11.97 8.37,-24.97 19.77,-30.72 7.77,1.05 9.69,10.2 9.86,16.71 0.34,21.69 -11.77,42.4 -28.97,55.08 4.34,-13.57 -0.41,-27.38 -0.66,-41.07zm-126.05 -22.26c3.81,-3.46 9.52,-10.39 14.75,-5.53 6.78,6.7 3.35,17.06 2.08,25.27 -6.03,17.04 -19.9,30.45 -36.16,37.97 7.48,-18.87 5.09,-41.84 19.33,-57.71zm73.29 -2.2c3.55,-5.67 13.16,-6.24 16.37,0.09 6.15,11.07 4.45,24.76 -0.18,36.05 -7.16,15.91 -18.33,30.06 -32.98,39.66 12.22,-17.4 10.62,-39.66 9.4,-59.8 2.55,-5.3 4.25,-11.03 7.39,-16z"/>
  </g>
 </g>
</svg>
