<?xml version="1.0" encoding="UTF-8"?>
<!DOCTYPE svg PUBLIC "-//W3C//DTD SVG 1.1//EN" "http://www.w3.org/Graphics/SVG/1.1/DTD/svg11.dtd">
<!-- Creator: CorelDRAW -->
<svg xmlns="http://www.w3.org/2000/svg" xml:space="preserve" width="2000px" height="1600px" version="1.1" style="shape-rendering:geometricPrecision; text-rendering:geometricPrecision; image-rendering:optimizeQuality; fill-rule:evenodd; clip-rule:evenodd"
viewBox="0 0 2000 1600"
 xmlns:xlink="http://www.w3.org/1999/xlink">
 <defs>
  <style type="text/css">
   <![CDATA[
    .fil0 {fill:#EBDCA8}
    .fil1 {fill:#3E366A;fill-rule:nonzero}
   ]]>
  </style>
 </defs>
 <g id="Capa_x0020_1">
  <metadata id="CorelCorpID_0Corel-Layer"/>
  <g id="Washington_x0020_Huskies.cdr">
   <path class="fil0" d="M659.21 477.26l94.39 381.06 182.5 -678.1 279.96 0.05 168.5 678.41 102.69 -381.39 -132.32 -0.07 0.2 -297.02 544.87 0.07 -0.51 297.26 -143.56 -0.28 -248.17 942.52 -396.01 0.03 -114.48 -457 -120.39 456.9 -396.53 0 -235.51 -942.44 -144.84 -0.03 0 -296.96 698.43 -0.03 0.03 297.02 -139.25 0z"/>
   <path class="fil1" d="M144.5 224.77l609.43 -0.02 0.02 208.01 -151.61 0 149.47 603.43 218.39 -811.46 211.05 0.04 201.57 811.52 162.5 -603.47 -145.86 -0.08 0.14 -208.03 455.82 0.06 -0.36 208.17 -133.41 -0.26 -248.19 942.6 -326.99 0.02 -148.11 -591.3 -155.77 591.2 -327.49 0 -235.51 -942.44 -135.09 -0.02 0 -207.97z"/>
  </g>
 </g>
</svg>
