<?xml version="1.0" encoding="UTF-8"?>
<!DOCTYPE svg PUBLIC "-//W3C//DTD SVG 1.1//EN" "http://www.w3.org/Graphics/SVG/1.1/DTD/svg11.dtd">
<!-- Creator: CorelDRAW -->
<svg xmlns="http://www.w3.org/2000/svg" xml:space="preserve" width="2000px" height="1600px" version="1.1" style="shape-rendering:geometricPrecision; text-rendering:geometricPrecision; image-rendering:optimizeQuality; fill-rule:evenodd; clip-rule:evenodd"
viewBox="0 0 2000 1600"
 xmlns:xlink="http://www.w3.org/1999/xlink">
 <defs>
  <style type="text/css">
   <![CDATA[
    .fil0 {fill:#065A4E;fill-rule:nonzero}
    .fil1 {fill:#FEFEFE;fill-rule:nonzero}
   ]]>
  </style>
 </defs>
 <g id="Capa_x0020_1">
  <metadata id="CorelCorpID_0Corel-Layer"/>
  <g id="Wayne_x0020_State_x0020_Tartars.cdr">
   <path class="fil0" d="M1203.9 80l106.92 151.58c3.82,5.85 8.65,11.11 11.47,17.56 1.3,2.7 -0.97,5.2 -2.56,7.14 -7.89,8.88 -15.97,17.61 -24.02,26.34 -2.58,2.64 -5.49,5.93 -9.61,5.36 -3.25,0.08 -5.41,-2.48 -7.29,-4.73l-150.34 -187.86c-27.11,0.03 -54.19,-0.03 -81.28,0.03 0.5,9.96 1.45,20.75 8.16,28.73 6.22,7.26 12.29,15.77 21.78,18.86 30.85,11.9 54.7,39.04 64.06,70.59 -69.77,0.08 -139.57,0.02 -209.35,0.03 7.24,-24.62 23.14,-46.63 44.7,-60.64 7.07,-5.02 15.73,-7.5 22.02,-13.64 7.03,-6.59 14.28,-13.4 18.59,-22.16 3.16,-6.79 3.49,-14.42 3.66,-21.79 -147.32,-0.03 -294.64,0 -441.94,-0.01 0,103.65 -0.06,207.28 0.03,310.92 17.67,-50.69 53.41,-94.84 99.51,-122.4 42.9,-26.07 94.53,-37.26 144.4,-31.65 45.47,4.83 89.23,23.78 124.03,53.42 -16.99,-24.71 -22.95,-56.27 -16.64,-85.54 70.85,-0.08 141.69,-0.01 212.53,-0.03 5.06,23.75 2.48,49.24 -8.34,71.08 -12.87,27.03 -37.51,48.1 -66.16,56.72 -31.38,9.69 -66.9,4.17 -93.81,-14.66 30.54,36.14 49.68,81.77 53.59,128.94 4.5,50.97 -8.36,103.37 -36.55,146.14 -28.2,43.5 -71.43,77.08 -120.65,93.39 -44.19,14.84 -92.9,15.8 -137.65,2.79 -44.65,-12.81 -85.06,-39.65 -114.44,-75.58 -17.38,-21.06 -30.81,-45.26 -39.93,-70.96 0.15,315.27 0.03,630.53 0.06,945.81 120.84,0.03 241.69,0.01 362.55,0.01 -7.88,-20.15 -15.6,-40.36 -22.63,-60.82 -3.6,-11.29 -8.51,-22.72 -6.77,-34.84 0.5,-30.65 8.94,-62.02 28.8,-85.93 19.16,-24.44 50.6,-38.41 81.6,-36.35 25.19,69.96 50.49,139.89 75.69,209.84 1.95,5.71 4.26,11.28 6.73,16.79 -2.18,4.22 -5.59,7.69 -10.79,7.51l-523.87 0c-1.93,-2.04 -4.28,-3.58 -6.69,-4.94l0 -1435.05 640.43 0zm153.51 154.07c3.87,-0.52 8.55,-0.47 11.4,2.68 6.8,6.75 13.15,13.93 20.1,20.55 2.92,3.31 7.5,7.1 6.02,12.04 -4.46,4.97 -9.31,10.02 -15.24,13.21 -8.63,0.41 -17.31,-2.44 -26.03,-1.03 -19.55,2.1 -35.18,18.24 -40.98,36.38 -3.16,8.96 -1.83,18.51 -0.58,27.7 0.53,7.5 -6.14,12.31 -10.83,17.07 -3.31,3.71 -9.24,2.91 -12.43,-0.52 -7.3,-7.32 -14.03,-15.19 -21.11,-22.73 -4.45,-4.34 -5.32,-12.82 -0.64,-17.29 26.61,-26.91 53.66,-53.38 80.47,-80.09 3.14,-2.73 5.6,-6.88 9.85,-7.97zm-2.66 53.05c12.75,-2.83 26.51,-0.84 37.84,5.72 14.17,8.21 24.21,23.28 25.82,39.64 2.43,19.95 -7.89,40.73 -25.32,50.78 -12.59,7.51 -28.38,9.33 -42.34,4.92 -14.84,-4.5 -27.25,-16.07 -32.98,-30.44 -8.17,-19.94 -2.59,-44.68 13.86,-58.76 6.56,-5.78 14.57,-9.95 23.12,-11.86zm-239.86 49.53c5.2,-5.15 10.16,-12.76 18.66,-10.86 24.3,0.82 48.63,0.81 72.92,1.58 4.59,-0.19 9.95,2.6 10.23,7.67 1.05,15.68 6.7,30.51 11.67,45.28 5.7,19.33 24.75,33.44 44.51,35.32 17.11,0.32 33.44,-6.45 48.47,-14 5.67,-2.57 9.18,-8.32 14.85,-10.77 10.63,2.43 21.21,6.01 32.29,5.46 13,0.31 24.91,-6.29 34.43,-14.63 7.53,-6.67 15.39,-13.98 18.26,-23.97 0.66,-4.23 5.94,-4.49 8.71,-2.14 2.92,1.38 2.67,4.97 3.06,7.68 2.25,39.88 1.72,79.85 3.58,119.75l0 1.42c-11.25,11.68 -23.63,22.33 -36.95,31.61 -16.43,11.25 -34.88,20.96 -55.08,22.53 -24.06,2.3 -48.47,2.22 -72.39,-1.44 -19,-3.18 -38.33,-8.44 -54.04,-20.04 -10.4,-7.89 -20.49,-16.18 -30.9,-24.07 -5.72,-4.7 -14.84,-0.94 -17.4,5.54 -14.89,30.76 -28.67,62.04 -42.54,93.27 -4.52,10.7 -9.73,21.17 -12.86,32.39 -0.89,3.06 -2.6,7.15 -6.54,6.46 -34.53,-0.27 -69.07,-1.7 -103.6,-1.5 -3.27,-1.02 -5.9,-5.31 -3.86,-8.57 12.2,-27.08 23.67,-54.6 31.51,-83.31 4.21,-15.97 7.67,-32.39 7.19,-48.98 -2.01,-29.95 -7.42,-59.67 -16.18,-88.37 -2.85,-9.58 -6.76,-18.79 -11.6,-27.52 -2.48,-3.84 -1.43,-11.08 4.02,-11.33 20.97,-0.73 42.29,2.77 63.04,-1.57 13.9,-4.23 26.58,-12.36 36.54,-22.89zm-125.16 305.63c4.68,-1.35 9.54,0.21 14.3,0.14 31.9,0.62 63.79,-0.13 95.68,-0.39 7.99,-0.69 15.99,3.92 20.02,10.69 9.48,41.28 22.54,81.67 33.92,122.44 1.12,4.94 1.59,11.76 -3.61,14.6 -121.65,61.15 -242.17,124.53 -363.95,185.47 -3.66,2.04 -9.99,4.77 -12.5,-0.2 -4.02,-11.13 -4.26,-23.16 -5.38,-34.82 -3.36,-47.51 -4.23,-95.46 2.39,-142.73 3.65,-26.1 11.23,-52.49 27.98,-73.36 30.01,0.38 60.64,-3.17 89.09,-13.34 19.63,-8.07 37.77,-19.31 55.46,-30.96 10.41,-7.22 21.01,-14.41 30.06,-23.34 4.76,-5.49 8.99,-12.32 16.54,-14.2zm-326.48 67.14c10.69,-11.57 28.67,-12.82 42.66,-7.2 12.39,4.9 20.59,17.13 23,29.92 3.11,18.55 -0.21,37.86 -8.5,54.69 -12.28,0.63 -24.41,2.83 -36.43,5.33 -2.04,-5.25 -4.17,-12.17 -0.02,-16.91 5.53,-3.91 12.65,-4.86 18.01,-9.14 8.72,-5.69 10.6,-17.41 8.7,-26.94 -1.29,-6.54 -7.66,-11.34 -14.35,-10.49 -6.33,-0.05 -10.38,5.47 -12.99,10.54 -6.32,12.23 -8.52,26.68 -18.03,37.16 -15.3,18.58 -48.53,14.93 -60.29,-5.82 -11.71,-19.45 -6.64,-43.89 1.74,-63.64 10.49,-0.39 20.89,-1.91 31.19,-3.9 1.75,5.15 3.83,11.77 -0.4,16.29 -5.74,3.96 -13.45,5.8 -16.94,12.41 -3.88,7.57 -4.46,17.35 -0.23,24.9 3.48,6.43 14.04,6.74 17.83,0.42 10.4,-14.77 11.68,-34.68 25.05,-47.62zm51.34 80.53c3.68,-4.48 10.27,-2.38 14.99,-0.98 -0.7,10.46 -0.75,20.96 -1.3,31.43 -0.02,7.89 -6.59,13.55 -12.44,17.82 -13.59,9.32 -27.29,18.47 -40.9,27.76 11.55,0.04 23.11,-0.03 34.68,0.05 1.6,-4.69 2.09,-9.68 3.55,-14.41 3.32,-5.74 10.74,-3.52 15.99,-2.56 -1.58,20.29 -1.89,40.72 -0.07,61 -0.86,0.44 -2.56,1.31 -3.42,1.73 0.84,0.47 2.51,1.41 3.34,1.88 -1.65,18.47 -1.15,37.01 0.03,55.48 -3.97,1.7 -8.67,3.42 -12.73,1.02 -3.73,-1.93 -3.92,-6.46 -5.02,-9.99 -7.7,2.59 -15.23,5.66 -22.92,8.27 -0.37,10.49 -0.1,20.98 -0.18,31.48 7.71,2.91 15.42,5.88 23.16,8.73 1.02,-3.24 1.02,-7.02 3.18,-9.74 4.01,-3.68 9.86,-1.75 14.64,-1.15 -1.3,14.89 -2.07,29.94 0.05,44.81 -4.11,1.84 -8.97,3.12 -13.22,0.95 -5.57,-2.8 -2.3,-12.02 -8.55,-14.06 -34.63,-14.61 -69.44,-28.81 -103.96,-43.67 -6.33,-2.62 -5.65,-10.38 -4.44,-15.89 32.58,-12.87 64.94,-26.3 97.43,-39.39 4.52,-1.96 9.3,-3.4 13.61,-5.82 2.19,-4.39 2.24,-9.94 6.59,-12.99 -5,-2.49 -4.39,-8.76 -6.04,-13.3 -31,0.05 -62,-0.12 -93.02,0.09 -1.27,4.16 -1.07,9.07 -3.88,12.6 -4.17,3.53 -10.15,2.31 -14.51,-0.18 1.62,-18.32 0.93,-36.71 1.1,-55.06 0.21,-12.45 3.42,-25.77 12.59,-34.74 10.95,-11.58 30.29,-13.4 43.47,-4.62 5.53,3.37 9.54,8.59 12.95,13.98 12.58,-8.46 25.07,-17.04 37.49,-25.71 5.07,-3.32 5.01,-9.97 7.76,-14.82zm439.13 6.69c8.56,-4.78 17.38,5.75 15.06,14.08 -5.6,45.18 -14.71,90.93 -36.33,131.45 -7.03,11.87 -13.96,24.71 -25.84,32.46 -13.16,9.1 -27.61,16.14 -42.17,22.75 -12.96,5.98 -26.67,10.87 -40.94,12.31 -4.87,0.63 -9.78,-1.16 -13.62,-4.04 -3.45,-4.41 -4.37,-10.11 -5.85,-15.35 -7.64,-31.13 -14.8,-62.39 -22.01,-93.62 -1.36,-4.92 -0.52,-10.67 2.92,-14.54 3.11,-2.53 6.96,-3.88 10.52,-5.62 52.83,-26.49 105.39,-53.49 158.26,-79.88zm-233.56 121.02c4.76,-1.59 10.61,-0.73 13.88,3.33 4.76,5.93 5.1,13.84 6.93,20.93 23.95,106.83 47.56,213.75 72.13,320.44 1.49,5.43 -1.89,11.89 -7.46,13.26 -15.25,4.27 -29.14,12.14 -42.47,20.5 -14.71,9.17 -26.78,21.98 -37.05,35.8 -9.69,12.34 -14.04,27.71 -18.6,42.47 -1.52,4.32 -2.1,10.19 -7.02,12.1 -4.88,-0.28 -6.18,-5.62 -8.04,-9.19 -12.47,-30.11 -22.5,-61.16 -33.12,-91.97 -23.13,-69.82 -45.41,-139.98 -65.07,-210.88 -6.32,-24.57 -13.87,-49.09 -16.04,-74.47 -0.98,-6.29 2.24,-12.64 8.07,-15.25 30.13,-15.9 60.53,-31.27 90.95,-46.61 14.24,-6.95 28.22,-14.55 42.91,-20.46zm227.03 8.48c1.63,-1.29 4.75,-0.92 5.12,1.49 1.72,8.9 -0.08,18.02 0.27,27.01 -1.39,21.52 -0.08,43.86 -7.79,64.4 -6.67,19.86 -13.05,39.94 -22.34,58.78 -2.72,6.35 -8.63,10.21 -14.65,13.04 -19.39,9.22 -39.51,17.14 -60.16,23.03 -5.04,0.59 -13.76,3.11 -15.39,-3.79 -5.7,-25.2 -10.77,-50.55 -16.26,-75.8 -0.99,-4.8 -2.3,-9.87 -0.9,-14.71 1.43,-4.55 7.18,-2.9 10.78,-3.84 26.46,-4.66 53.14,-12.73 74.85,-29.17 10.11,-7.14 17.2,-17.46 24.47,-27.28 4.9,-6.93 10.01,-13.73 14.24,-21.09 2.41,-4.1 3.84,-9.09 7.76,-12.07zm-541.75 96.9c10.05,-1.41 20.11,-3.16 29.62,-6.85 1.8,4.84 5.18,10.5 2.11,15.53 -4.72,5.1 -13.37,5.69 -16.38,12.61 -2.51,6.36 -1.67,13.39 -1.86,20.1 30.79,0 61.58,-0.02 92.36,0 1.13,-3.81 0.99,-8.48 4.16,-11.28 4.03,-3.12 9.23,-1.02 13.69,-0.26 -1.56,18.29 -1.7,36.68 -0.02,54.95 -4.35,2.33 -10.4,3.93 -14.51,0.31 -2.51,-3.03 -2.38,-7.29 -3.43,-10.92 -30.75,0 -61.49,-0.02 -92.25,0.01 0.21,6.77 -0.72,13.92 1.88,20.36 2.99,6.89 11.56,7.68 16.39,12.64 2.98,4.92 -0.21,10.43 -2.25,15.05 -8.54,-2.56 -17.16,-4.93 -26.05,-5.85 -3.84,-0.31 -8.78,-1.95 -9.36,-6.37 -0.65,-7.61 1.18,-15.21 0.79,-22.84 -0.42,-26.46 0.91,-52.96 -1.02,-79.37 -0.19,-3.66 2.3,-7.41 6.13,-7.82zm109.7 106.07c3.97,-3.78 10,-2 14.48,-0.26 -1,11.46 -0.55,23.03 -1.7,34.5 -1.68,6.43 -7.25,10.82 -12.27,14.72 -13.55,9.27 -27.23,18.32 -40.73,27.67 11.6,0 23.18,0.09 34.78,-0.07 1.64,-4.83 1.91,-10.06 3.73,-14.79 3.66,-5.13 10.56,-3.11 15.73,-2.15 -1.56,20.28 -1.9,40.7 -0.07,61 -1.26,0.75 -2.51,1.51 -3.76,2.28 0.96,0.05 2.84,0.15 3.79,0.2 -1.76,18.82 -1.31,37.72 -0.03,56.56 -4.11,2.03 -9.25,3.44 -13.41,0.75 -3.31,-2.11 -3.27,-6.38 -4.39,-9.72 -7.73,2.72 -15.36,5.71 -23.07,8.45 -0.06,10.47 -0.01,20.95 -0.03,31.41 7.79,2.79 15.44,5.95 23.26,8.62 1.13,-3.73 0.81,-8.76 4.73,-10.89 4.1,-2.1 8.78,-0.47 13.04,0.17 -1.49,14.85 -1.96,29.83 -0.11,44.67 -3.99,1.7 -8.56,3.21 -12.75,1.25 -6.09,-2.6 -2.41,-12.25 -8.96,-14.32 -33.82,-14.21 -67.67,-28.33 -101.53,-42.49 -3.38,-1.33 -6.87,-3.73 -7.5,-7.56 -0.34,-3.13 0.2,-6.22 0.52,-9.3 36.24,-14.74 72.5,-29.38 108.72,-44.14 5.96,-2.2 3.06,-11.13 8.91,-13.75 -4.29,-3.31 -4.52,-8.88 -5.75,-13.72 -28.54,-0.15 -57.1,0.05 -85.64,-0.1 -2.53,0.03 -5.09,-0.11 -7.55,0.5 -1.55,4.04 -1,9.09 -4.13,12.39 -4.08,3.08 -9.75,1.9 -14.06,-0.08 0.49,-11.27 1.2,-22.51 0.93,-33.79 0.29,-16.29 -2,-33.95 6.7,-48.62 6.74,-12.78 22.02,-19.88 36.16,-17.38 11.29,1.54 20.65,9.47 26.19,19.13 12.34,-8.57 24.85,-16.93 37.16,-25.56 5.5,-3.44 5.16,-10.76 8.61,-15.58zm-108.73 233.39c9.76,-1.18 19.44,-3.17 28.7,-6.53 1.93,5.09 5.68,11.7 1.1,16.49 -5.1,3.86 -12.55,5.36 -15.47,11.63 -2.44,6.38 -1.65,13.41 -1.75,20.12 30.75,-0.08 61.49,-0.02 92.23,-0.05 1.28,-4.03 1.06,-9.28 5.01,-11.82 4.03,-2.43 8.76,-0.51 12.94,0.45 -1.64,18.24 -1.72,36.61 -0.03,54.86 -4.37,2.09 -10.09,3.76 -14.3,0.47 -2.77,-2.99 -2.58,-7.43 -3.65,-11.14 -30.76,0.03 -61.52,-0.05 -92.28,0.05 0.28,6.8 -0.71,14.04 1.98,20.5 3.04,6.47 10.93,7.52 15.94,11.81 3.56,4.91 0.27,10.87 -1.83,15.65 -8.7,-2.59 -17.5,-5.02 -26.57,-5.93 -4.35,-0.1 -9.17,-2.84 -9.1,-7.71 0.05,-7.53 1.31,-15.02 1,-22.56 -0.45,-26.08 0.96,-52.24 -1.05,-78.27 -0.28,-4.1 3.03,-7.82 7.13,-8.02zm18.17 -173.35c-5.12,3.84 -5.01,10.85 -5.69,16.6 12.64,-0.03 25.27,0.05 37.91,-0.05 -0.47,-6.78 -0.99,-15.48 -8.15,-18.69 -7.73,-2.87 -17.1,-2.54 -24.07,2.14zm22.71 134.65c7.22,3 14.55,5.75 21.85,8.52 0.02,-5.6 0.02,-11.22 0,-16.81 -7.29,2.75 -14.58,5.48 -21.85,8.29zm-22.27 -474.72c-5.45,3.74 -5.48,11.01 -6.11,16.92 12.62,0 25.25,0.02 37.89,-0.02 -0.36,-7.02 -1.2,-16.13 -8.93,-18.95 -7.38,-2.22 -16.15,-2.15 -22.85,2.05zm22.08 135.12c7.35,2.8 14.69,5.67 22.06,8.44 0,-5.62 -0.02,-11.24 0.01,-16.85 -7.33,2.85 -14.75,5.51 -22.07,8.41z"/>
   <path class="fil1" d="M776.19 427.67c8.07,-9.81 20.84,-14.98 33.4,-14.85 12.69,-0.49 25.06,3.01 36.77,7.51 0.18,2.37 0.37,4.72 0.57,7.08 13.59,1.17 27.24,1.1 40.83,0.07 -0.58,2.15 1.17,6.61 -2.1,7.08 -2.74,1.36 -8.64,0.48 -8.33,4.9 -0.14,14.08 0.03,28.17 -0.06,42.25 0,7.48 1.08,15.94 6.75,21.38 7.31,5.52 17.71,5.12 26,2.18 7.99,-3.22 10.16,-12.73 10.53,-20.45 0.18,-15.05 0.11,-30.13 0.03,-45.18 0.67,-4.21 -4.47,-3.61 -7.03,-4.78 -4.03,-0.11 -3.08,-4.6 -3.19,-7.29 10.27,0.86 20.6,1.11 30.86,-0.09 -0.07,1.41 -0.18,4.24 -0.25,5.67 -2.6,2.44 -6.75,2.51 -9.91,4.19 0.21,15.36 0.05,30.71 0.1,46.08 -0.2,9.35 -1.85,19.72 -8.94,26.49 -8.38,7.77 -20.59,9.1 -31.53,8.36 -9.1,-0.52 -18.95,-2.76 -25.35,-9.76 -5.68,-5.79 -6.93,-14.28 -7.36,-22.04 -0.44,-16.43 0.27,-32.86 -0.33,-49.29 -2.86,-2.12 -6.75,-1.93 -10.07,-2.87 0.66,4.07 1.31,8.13 1.92,12.22 -1.42,-0.12 -4.29,-0.36 -5.71,-0.47 -4.54,-6.71 -7.15,-15.28 -14.58,-19.6 -10.12,-5.79 -23.52,-6.61 -34.02,-1.35 -11.16,5.15 -12.49,22.9 -2.64,29.97 15.71,12.18 37.78,12.97 52.11,27.31 17.45,15.68 11.65,47.93 -9.3,57.76 -20.57,9.9 -44.99,5.54 -65.23,-3.16 -0.63,-10.87 -2.54,-21.59 -4.58,-32.25 3,-0.06 7.42,-0.95 8.23,3.05 3.9,10.12 8.66,21.39 19.21,26.17 9.14,3.89 20.05,4.67 29.38,1.12 13.9,-5.15 16.44,-26.6 4.83,-35.36 -15.4,-12.34 -38.18,-12.2 -51.2,-28.07 -9.57,-10.25 -7.16,-25.21 -5.96,-37.89 -10.89,28.07 -20.2,56.76 -30.84,84.93 -2.21,-0.44 -5.2,-0.44 -5.83,-3.19 -7.15,-17.87 -13.21,-36.19 -20.72,-53.91 -7,18.95 -13.4,38.13 -20.39,57.08 -2.11,-0.53 -5.09,-0.1 -5.75,-2.77 -8.8,-22.63 -17.22,-45.42 -25.86,-68.11 -1.58,-3.83 -2.48,-8.05 -5,-11.39 -2.74,-0.95 -5.65,-1.21 -8.5,-1.68 -0.31,-2.37 -0.56,-4.72 -0.77,-7.08 13.51,0.63 27.04,0.99 40.53,-0.15 -0.02,1.4 -0.05,4.18 -0.06,5.58 -2.4,2.52 -6.48,2.33 -9.59,3.72 5.54,15.71 11.4,31.33 16.97,47.02 6.9,-18.98 13.51,-38.06 20.23,-57.11 2.53,-0.08 5.77,-0.24 6.42,2.91 7.01,17.92 13.6,36.03 20.62,53.96 5.6,-15.45 10.82,-31.03 16.16,-46.58 -2.96,-1.09 -6.01,-1.87 -8.99,-2.9 -0.58,-2.16 -0.84,-4.36 -0.81,-6.61 9.41,0.86 18.91,1.21 28.33,0.19z"/>
  </g>
 </g>
</svg>
