<?xml version="1.0" encoding="UTF-8"?>
<!DOCTYPE svg PUBLIC "-//W3C//DTD SVG 1.1//EN" "http://www.w3.org/Graphics/SVG/1.1/DTD/svg11.dtd">
<!-- Creator: CorelDRAW -->
<svg xmlns="http://www.w3.org/2000/svg" xml:space="preserve" width="2000px" height="1600px" version="1.1" style="shape-rendering:geometricPrecision; text-rendering:geometricPrecision; image-rendering:optimizeQuality; fill-rule:evenodd; clip-rule:evenodd"
viewBox="0 0 2000 1600"
 xmlns:xlink="http://www.w3.org/1999/xlink">
 <defs>
  <style type="text/css">
   <![CDATA[
    .fil2 {fill:black;fill-rule:nonzero}
    .fil0 {fill:#492580;fill-rule:nonzero}
    .fil1 {fill:#92949B;fill-rule:nonzero}
    .fil3 {fill:#FBFDFB;fill-rule:nonzero}
   ]]>
  </style>
 </defs>
 <g id="Capa_x0020_1">
  <metadata id="CorelCorpID_0Corel-Layer"/>
  <g id="Weber_x0020_State_x0020_Wildcats.cdr">
   <path class="fil0" d="M818.5 583.28c-23.76,-11.78 -27.6,-50.7 -5.65,-66.11 -1.03,7.57 3.9,13.56 8.25,19.14 -2.77,13.42 2.36,29.65 14.65,36.49 18.21,-7.9 15.3,-32.42 13.08,-48.71 6.09,2.33 12.25,4.55 18.55,6.3 1.51,11.23 4.42,22.93 0.96,34.09 -3.56,11.27 -15.1,16.68 -23.69,23.52 -0.75,0.18 -2.19,0.52 -2.94,0.69 -7.26,-3.6 -15.58,-3.19 -23.21,-5.41zm445.49 -45.22c1.3,-0.48 3.9,-1.44 5.24,-1.92 19.85,11.67 28.17,40.43 14.2,59.6 -12.42,17.29 -41.97,12.26 -50.73,-6.23 -5.89,-12.77 -2.13,-27.32 1.57,-40.16l3.05 -1.67c2.67,4.86 5.41,9.75 8.66,14.24 1.75,12.05 3.08,27.01 14.82,33.72 4.83,0.34 9.38,-3.39 11.23,-7.71 6.78,-16.32 4.59,-36.93 -8.04,-49.87zm44.26 89.55c37.01,-8.86 79.46,-23.89 94.35,-62.58 5.34,20.1 20.06,36.33 37.18,47.48 22.7,15.31 50.22,22.74 77.54,22.22 -14.2,16.47 -34.51,25.85 -53.64,35.3 46.97,46.18 79.94,106.64 92.09,171.44 1.4,7.4 3.01,14.86 2.53,22.46 -29.24,-28.72 -69.97,-45.26 -110.85,-45.84 17.02,21.81 26.05,48.24 29.37,75.45 39.41,32.6 54.23,85.21 60.94,133.96 -9.35,-8.83 -20.06,-20.23 -34.23,-18.31 -8.63,4.11 -6.2,14.89 -7.88,22.59 -10.47,86.17 -21.43,177.51 -73.53,249.95 -6.13,-88.02 -10.41,-180.38 -53.34,-259.74 -23.04,-43.65 -65.11,-78.5 -115.1,-84.73 14.31,-23.14 31.36,-46.18 36.36,-73.46 1.99,-11.88 -9.79,-17.43 -16.74,-24.21 8.94,-5.82 19.96,-7.46 29.78,-11.36 20.44,-5.99 37.32,-19.55 53.96,-32.22 21.57,-17.22 31.53,-46.04 28.55,-73.05 -3.6,-32.08 -19.38,-63.27 -44.99,-83.3 -9.2,-7.39 -20.74,-10.85 -32.35,-12.05zm-749.83 181.17c9.17,-22.7 19.89,-45.46 36.94,-63.4 11.19,91.85 29.1,186.1 79.45,265.42 -16.63,28.14 -30.05,58.16 -39.54,89.49 -19.13,61 -25.57,124.92 -39.91,187.05 -25.3,-73.8 -37.76,-151.69 -40.88,-229.54 -2.12,-52.27 1.81,-104.69 10.13,-156.31 -11.84,18.07 -24.13,36.18 -39.78,51.25 7.71,-48.68 16.16,-97.67 33.59,-143.96z"/>
   <path class="fil1" d="M227.1 181.68c17.97,7.05 26.97,25.98 42.45,36.49 68.64,35.94 144.91,57.68 208.31,103.25 9.42,2.05 19.48,-1.57 29.21,-1.16 61.48,-2.33 123.99,1.64 183.56,17.8 -0.34,-11.74 -10.65,-19.79 -17.18,-28.55 42.75,-31.53 93.87,-52.24 147.17,-55.6 -7.74,-7.29 -18.39,-11.3 -24.41,-20.3 40.6,-7.53 82.37,-6.09 123.14,-0.62 42.21,6.17 84.76,16.2 122.11,37.52 23.7,-15.47 51.19,-23.86 78.78,-29.13 28.69,-4.96 58.23,-7.22 87.13,-2.5 4.34,0.65 8.35,2.23 12.04,4.69 -7.9,6.88 -16.12,13.35 -24.1,20.1 32.32,-1.96 66.08,-1.41 96.58,10.71 10.13,4.73 21.98,10.07 26.53,21.06 -1.51,11.53 -8.28,21.73 -10.41,33.24 25.58,-12.02 54.37,-13.01 82,-15.95 94.17,-7.09 188.83,-5.62 282.81,-15.45 30.33,-3.38 59.08,-14.27 85.62,-28.99 -19.42,29.34 -42.9,55.77 -67.24,81.07 -11.57,11.81 -24.68,22.01 -35.67,34.44l1.47 -6.37c-41.8,18.76 -84.42,37.11 -129.75,45.22 -27.08,4.9 -54.88,4.59 -82.02,0.69 19.06,9.41 37.65,19.75 57.1,28.38 0.61,3.86 -3.53,5.75 -5.62,8.28 -29.99,27.42 -64.87,49.71 -103.18,63.54 3.63,1.03 7.29,2.02 10.99,3.01 -17.43,2.54 -34.95,-2.19 -52.45,0.28 8.42,-8.46 16.81,-16.95 24.55,-26.02 -25.23,5.85 -49.4,15.2 -74.15,22.7 6.02,-16.5 -11.88,-23.93 -25.16,-20.07 23.27,-19.13 48.2,-36.45 69.63,-57.78 -39.13,15.37 -79.08,29.37 -115.85,49.95 -17.67,9.61 -33.04,23 -45.12,39.09 4.17,-14.82 8.8,-29.48 12.56,-44.37 1.85,-8.11 1.17,-19 -6.23,-24.17 -9.24,-2.7 -19.03,-2.77 -28.52,-4.04 11.85,-38.61 51.36,-61.76 61.56,-101.06 -43.17,30.78 -86.1,66.66 -107.81,116.37 10.75,8.93 24.41,12.46 37.66,15.98 4.93,37.66 14.76,74.43 20.95,111.88 -6.91,19.62 1.1,40.74 -3.97,60.53 1.2,-12.19 3.12,-29.31 -9.45,-36.36 -14.2,-6.19 -29.4,1.13 -43.61,3.6 -43.51,11.02 -85.49,-14.76 -129.1,-10.51 -6.54,0.34 -11.74,4.55 -16.74,8.25 -1.03,-10.24 -3.59,-20.34 -2.81,-30.64 0.65,-10.68 -1.61,-21.16 -3.25,-31.64 -4.69,-29.71 -10.44,-59.26 -16.84,-88.63 12.94,-1.51 26.19,-3.18 37.96,-9.14 -14.41,-41.59 -31.56,-82.23 -51.31,-121.57 0.2,31.33 5.51,62.41 11.43,93.09 -13.01,1.85 -27.42,-1.41 -39.34,5.2 -8.35,4.42 -6.12,15.2 -4.14,22.63 6.54,23.01 16.02,45.05 23.07,67.92 -29.54,-32.86 -56.48,-69.29 -94.24,-93.39 -30.3,-19.31 -62.82,-35.5 -96.99,-46.66 29.14,24.37 58.92,48.06 85.49,75.28 -10.55,-2.05 -22.77,-4.35 -31.84,3.15 -6.64,5.41 -3.15,14.51 -2.98,21.7 -29.58,-11.4 -57.17,-27.35 -86.58,-39.09 7.6,13.18 18.93,23.55 28.21,35.47 -22.53,3.42 -46.46,5.61 -65.87,18.79 -9.79,6.2 -16.7,15.68 -22.9,25.26 7.22,-1.19 14.41,-2.49 21.64,-3.69 1.71,19.75 14.82,36.73 31.01,47.31 20.54,12.56 45.19,14.69 68.71,15.75 -33.58,18.11 -68.26,43.06 -77.92,82.23 -11.91,48.23 15.55,94.96 45.6,130.5 -12.15,11.19 -25.33,24.92 -23.58,42.9 3.01,27.97 20.06,51.69 27.14,78.49 -0.99,4.15 -4.58,6.95 -7.05,10.21 -19.17,21.15 -36.29,44.16 -51.08,68.57 -50.35,-79.32 -68.26,-173.57 -79.45,-265.42 -17.05,17.94 -27.77,40.7 -36.94,63.4 -17.43,46.29 -25.88,95.28 -33.59,143.96 15.65,-15.07 27.94,-33.18 39.78,-51.25 -8.32,51.62 -12.25,104.04 -10.13,156.31 -33.86,47.21 -61.42,98.46 -87.47,150.29 -9.79,-34.85 -21.26,-69.36 -26.94,-105.2 -13.49,-76.45 -7.02,-156.9 22.66,-228.89 8.18,-20.95 19.21,-40.57 29.86,-60.32 -24.89,-2.91 -50.26,-1.24 -74.47,5.27 16.44,-50.98 16.06,-110.34 54.27,-151.87 -33.38,2.81 -66.08,-8.72 -93.33,-27.38 33.45,-12.53 72.34,-25.13 91.07,-58.03l0.72 -1.3c16.09,-14.31 31.49,-29.48 49.91,-40.98 -15.54,2.53 -32.11,7.09 -47.52,1.88 -35.4,-20.4 -68.91,-46.45 -89.83,-82.26 18.28,-2.6 36.77,-0.55 54.91,2.05 -45.63,-18.31 -87.91,-45.43 -121.84,-81.2 -52.41,-52.04 -91.33,-122.66 -89.38,-198.18zm516.39 351.41c4.35,-3.32 8.11,-7.74 13.38,-9.69 6.61,-0.89 13.01,1.65 19.38,2.98 -3.7,11.91 -5.75,24.41 -4.28,36.91 -10.61,-8.97 -19.68,-19.48 -28.48,-30.2zm192.84 434.16c18.15,-13.25 42.96,-9.1 63.57,-4.86 8.97,24.92 19.24,49.67 33.45,72.13 -4.38,-24.54 -16.29,-48.71 -12.05,-74.05 26.6,-7.19 54.33,1.17 78.71,11.99 9,2.84 9.17,13.72 11.67,21.26 10.06,41.8 5.99,91.3 -25.27,123.45 -2.67,-5.04 -5.27,-10.07 -7.9,-15.07 -9.55,6.13 -14.48,16.61 -20.44,25.81 -7.36,-7.73 -13.32,-16.67 -20.64,-24.41 -4.22,8.05 -8.36,16.09 -12.81,23.97 -7.15,-6.27 -14.31,-12.5 -21.5,-18.69 -5.1,4.34 -7.97,14.07 -15.33,14.17 -36.64,-29.34 -56.42,-75.86 -59.13,-122.11 -0.41,-11.4 -3.7,-26.19 7.67,-33.59zm-546.65 -590.23l0 0c6.88,7.39 15.23,13.11 23.17,19.24 43.03,32.04 93.84,59.94 149.02,58.33 -11.05,-11.43 -25.53,-18.59 -37.89,-28.41 21.63,-4.11 42.17,-12.12 62.71,-19.93 -39.19,-1.81 -78.77,1.85 -117.56,-5.54 -27.59,-3.87 -53.5,-14.18 -79.45,-23.69z"/>
   <path class="fil2" d="M189.2 80c14.69,18.28 28.65,37.07 43.27,55.39 10.34,12.63 17.73,27.52 29.27,39.17 12.26,12.56 27.83,21.32 44.13,27.38 62.96,23.49 125.02,49.88 183.53,83.16 42.76,-1.75 85.76,-1.44 128.41,2.87 13.9,2.57 25.47,-7.42 37.94,-11.74 26.77,-10.71 49.67,-29.61 77.57,-37.62 -9.17,-6.47 -19.2,-11.71 -27.59,-19.24 26.29,-6.75 52.55,-13.56 78.84,-20.37 36.8,-9.72 75.38,-7.88 112.87,-3.6 48.92,6.13 97.33,17.09 143.68,34.03 36.77,-15.78 76.04,-26.77 116.3,-27.18 50.6,-0.65 100.89,6.37 151.31,9.42 -7.91,12.28 -21.33,19.78 -31.39,30.22 28.62,9.35 60.63,10.62 85.55,29.21 65.08,-4.32 130.16,2.73 195.07,7.05 56.14,2.53 112.32,-9.66 164.12,-30.95 33.51,-15.23 63.68,-37.01 91.54,-60.9 -2.91,12.94 -5.24,26.02 -8.04,38.99 -8.97,31.84 -23.08,61.9 -37.83,91.37 -30.71,62.51 -69.98,121.67 -121.47,168.98 -17.25,16.06 -35.46,31.05 -52.07,47.79 -26.12,16.88 -55.94,29.93 -87.33,31.67 15.2,6.85 30.54,15.03 47.52,16.13 23.31,1.81 46.52,4.62 69.84,6.23 -9.11,11.36 -19.07,22.04 -26.64,34.54 -10.3,15.37 -14.92,34.3 -28.31,47.62 -4.96,5.75 -12.56,7.84 -18.35,12.43 9.48,18.48 22.9,34.61 33.86,52.24 20.37,30.64 36.01,64.53 43.99,100.58 18.25,78.53 25.5,159.26 29.2,239.67 -18.25,-21.67 -33.03,-46.11 -51.49,-67.58 21.23,55.84 14.55,116.98 4.28,174.39 -6.02,32.36 -13.73,64.36 -23.07,95.93 -15.82,-45.26 -28.76,-91.54 -46.35,-136.19 -22.6,115.41 -62.62,226.5 -105.99,335.54 -1.99,-2.67 -3.8,-5.52 -5.04,-8.56 -16.84,-40.19 -34.3,-80.15 -51.49,-120.2 -3.01,-6.47 -4.55,-13.93 -9.85,-19 -12.91,49.23 -26.16,98.36 -39.07,147.55 -19.44,-43.17 -35.87,-87.67 -55.39,-130.78 -21.29,-34.54 -58.37,-54.74 -84.59,-85 -82.4,59.16 -193.97,66.45 -287.74,32.08 -14.79,-5.79 -29.78,-12.22 -41.6,-23.14 -39.4,26.8 -78.87,54.94 -109.58,91.81 -14.55,17.09 -24.34,37.42 -35.74,56.56 -15.71,26.56 -30.78,53.51 -46.56,80 -7.46,-53.37 -15.68,-106.64 -22.42,-160.08 -35.13,48.79 -55.5,105.69 -80.49,159.88 -3.77,7.36 -5.58,16.05 -11.33,22.25 -13.9,-66.65 -31.73,-132.76 -38.51,-200.68 -14.96,27.21 -28.62,55.12 -43.21,82.5 -35.43,-58.47 -65.62,-120.19 -90.89,-183.77 -23.93,-61.99 -43.61,-126.73 -46.63,-193.56 -1.4,-41.22 4.15,-84.97 27.77,-119.85 -35.16,9.17 -69.29,21.91 -104.35,31.39 25.47,-42.72 52.45,-84.59 76.48,-128.17 16.3,-36.5 24.65,-76.18 28.93,-115.78 -36.09,-14.86 -67.34,-39.24 -95.79,-65.56 -17.05,-15.79 -35.02,-30.64 -51.62,-46.94 32.86,-2.26 65.83,-3.63 98.73,-5.2 38.99,-0.45 81,2.39 116.33,-17.19 -33.31,-23.65 -64.23,-51.38 -87.3,-85.34 -18.39,-23.8 -33.55,-50.33 -55.53,-71.11 -46.49,-50.19 -86.13,-110.99 -95.14,-180.11 -3.35,-37.79 -0.55,-76.13 -7.26,-113.62 -0.78,-9.11 2.68,-17.94 2.71,-27.01zm759.25 362.27c-5.92,-30.68 -11.23,-61.76 -11.43,-93.09 19.75,39.34 36.9,79.98 51.31,121.57 -11.77,5.96 -25.02,7.63 -37.96,9.14 6.4,29.37 12.15,58.92 16.84,88.63 1.64,10.48 3.9,20.96 3.25,31.64 -18.62,-4.28 -37.11,-9.11 -55.63,-13.83 -23.07,-5.76 -47.28,-3.98 -70.18,1.67 8.59,-6.84 20.13,-12.25 23.69,-23.52 3.46,-11.16 0.55,-22.86 -0.96,-34.09 1.27,0.34 3.73,0.99 4.97,1.3 -15.58,-20.41 -32.25,-39.95 -50.05,-58.44 -26.57,-27.22 -56.35,-50.91 -85.49,-75.28 34.17,11.16 66.69,27.35 96.99,46.66 37.76,24.1 64.7,60.53 94.24,93.39 -7.05,-22.87 -16.53,-44.91 -23.07,-67.92 -1.98,-7.43 -4.21,-18.21 4.14,-22.63 11.92,-6.61 26.33,-3.35 39.34,-5.2zm169.08 35.16c21.71,-49.71 64.64,-85.59 107.81,-116.37 -10.2,39.3 -49.71,62.45 -61.56,101.06 9.49,1.27 19.28,1.34 28.52,4.04 7.4,5.17 8.08,16.06 6.23,24.17 -3.76,14.89 -8.39,29.55 -12.56,44.37 12.08,-16.09 27.45,-29.48 45.12,-39.09 36.77,-20.58 76.72,-34.58 115.85,-49.95 -21.43,21.33 -46.36,38.65 -69.63,57.78 -19.89,15.34 -38.79,32.15 -54.95,51.36 2.98,-1.34 8.94,-4.08 11.91,-5.45 -3.7,12.84 -7.46,27.39 -1.57,40.16 8.76,18.49 38.31,23.52 50.73,6.23 13.97,-19.17 5.65,-47.93 -14.2,-59.6 11.16,-3.97 22.15,-8.42 33.24,-12.63 24.75,-7.5 48.92,-16.85 74.15,-22.7 -7.74,9.07 -16.13,17.56 -24.55,26.02 -0.85,0.89 -2.63,2.67 -3.49,3.56 13.01,6.33 25.68,13.38 38.07,20.88 -12.56,12.09 -28.07,20.06 -42.9,28.89 -4.45,-17.69 -21.63,-26.53 -37.52,-31.94 5.04,17.16 7.47,37.46 -3.87,52.73 -12.11,15.3 -34.43,15.43 -51.38,9.27 -12.29,-4.65 -24.89,-8.32 -37.56,-11.67 -7.25,-5.75 -3.49,-16.71 -5.06,-24.62 -4.62,7.3 -8.25,15.27 -13.8,21.91 -5.1,4.83 -12.29,6.4 -18.42,9.45 -6.19,-37.45 -16.02,-74.22 -20.95,-111.88 -13.25,-3.52 -26.91,-7.05 -37.66,-15.98zm-727.85 -100.41c25.95,9.51 51.86,19.82 79.45,23.69 38.79,7.39 78.37,3.73 117.56,5.54 -20.54,7.81 -41.08,15.82 -62.71,19.93 12.36,9.82 26.84,16.98 37.89,28.41 -55.18,1.61 -105.99,-26.29 -149.02,-58.33 -7.94,-6.13 -16.29,-11.85 -23.17,-19.24zm311.22 81.99c29.41,11.74 57,27.69 86.58,39.09 12.56,5.69 24.92,11.82 37.83,16.74 -3.12,0.59 -9.35,1.75 -12.46,2.33 -21.95,15.41 -18.11,54.33 5.65,66.11 7.63,2.22 15.95,1.81 23.21,5.41 -15.92,3.8 -32.8,5.34 -48.92,1.85 -12.02,-3.63 -17.74,-16.06 -20.82,-27.25 -1.47,-12.5 0.58,-25 4.28,-36.91 -6.37,-1.33 -12.77,-3.87 -19.38,-2.98 -5.27,1.95 -9.03,6.37 -13.38,9.69 -26.81,-5.34 -54.67,-1.81 -81.51,1.75 -7.23,1.2 -14.42,2.5 -21.64,3.69 6.2,-9.58 13.11,-19.06 22.9,-25.26 19.41,-13.18 43.34,-15.37 65.87,-18.79 -9.28,-11.92 -20.61,-22.29 -28.21,-35.47zm131.84 58.71c5.34,2.16 10.68,4.31 16.09,6.37 2.22,16.29 5.13,40.81 -13.08,48.71 -12.29,-6.84 -17.42,-23.07 -14.65,-36.49 3.63,3.66 7.36,7.22 11.16,10.78 1.02,-9.75 1.13,-19.61 0.48,-29.37zm424.54 22.84c1.68,-0.62 5.03,-1.89 6.71,-2.5 12.63,12.94 14.82,33.55 8.04,49.87 -1.85,4.32 -6.4,8.05 -11.23,7.71 -11.74,-6.71 -13.07,-21.67 -14.82,-33.72 4.93,4.48 10.07,8.69 15.24,12.9 0.51,-11.57 -0.62,-23.14 -3.94,-34.26zm-530.6 110.67c6.02,-14.89 19.1,-31.63 37.11,-29.03 55.08,2.5 110.3,16.92 157.75,45.4 -64.56,-8.83 -129.47,-18.97 -194.86,-16.37zm246.59 -20.43c5,-3.7 10.2,-7.91 16.74,-8.25 43.61,-4.25 85.59,21.53 129.1,10.51 14.21,-2.47 29.41,-9.79 43.61,-3.6 12.57,7.05 10.65,24.17 9.45,36.36 -1.61,6.78 -6.09,12.15 -10.88,16.94 -5.59,-6.95 -10.65,-15.2 -19.24,-18.76 -15.24,-6.57 -34.68,2.81 -40.23,18.15 -0.51,13.69 18.76,19.99 15.47,34.78 -11.6,21.84 -32.83,37.32 -42.69,60.32 22.43,7.46 48.72,8.42 65.94,26.67 -33.04,-4.28 -65.87,-10.96 -99.28,-11.64 -23.59,-1.2 -47.04,1.68 -70.28,5.1 2.94,-3.08 6.09,-6.16 10.37,-7.26 22.83,-8.35 47.07,-11.09 70.86,-15.27 -4.17,-22.8 -19.58,-41.11 -27.31,-62.54 -3.53,-10.07 9.1,-15.2 14.61,-21.53 10.34,-7.71 7.4,-26.95 -5.65,-29.99 -10.92,-2.33 -23.21,-1.31 -32.79,4.75 -7.19,4.59 -8.83,13.42 -11.68,20.82 -10.51,-16.16 -23.45,-35.47 -16.12,-55.56zm226.08 61.72c34.27,-25.61 76.42,-40.26 119.04,-42.79 16.02,-2.57 24.54,14.75 28.79,27.39 -49.78,-3.33 -98.97,7.43 -147.83,15.4zm-490.16 9.83c1.78,-12.29 4.27,-24.58 9.65,-35.88 57.75,2.36 115.92,9.04 171.24,26.39 14.75,5.45 30.33,10.31 42.83,20.17 -74.02,-10.31 -149.03,-17.43 -223.72,-10.68zm530.6 7.46c36.66,-11.5 74.97,-17.19 113.28,-19.07 3.56,10.85 6.16,22.01 6.84,33.45 -56.65,-6.34 -113.55,1.47 -169.39,10.44 14.17,-12.02 31.87,-18.9 49.27,-24.82zm-532.62 12.97c74.63,-8.76 154.53,-4.21 221.87,31.91 -71.96,-4.28 -144.2,-5.13 -216.09,0.62 -2.98,-10.65 -5.44,-21.47 -5.78,-32.53zm487.02 51.22c47.58,-33.62 110.09,-39.37 166.48,-31.43 0.03,10.17 -0.76,20.41 -4.52,29.96 -53.92,-4.42 -108.11,-3.53 -161.96,1.47zm-141.36 43c2.12,-2.26 2.91,-8.53 7.05,-7.33 3.73,14.45 11.95,26.91 20.99,38.55 11.3,-9.28 16.67,-23.62 27.11,-33.48 0.45,17.01 7.43,33.31 19.82,45.05 5.79,-6.88 10.96,-14.21 15.96,-21.64 2.39,0.52 7.19,1.54 9.58,2.09 -0.68,36.77 12.98,73.13 5.51,109.93 30.13,-28.83 44.03,-69.94 55.67,-108.94 12.5,0.66 31.6,-2.42 37.08,12.26 4.31,19.41 -7.33,37.15 -16.2,53.44 -30.98,55.7 -47.1,117.8 -63.3,178.94 -7.01,35.2 2.57,77.85 -25.33,105.79 -16.16,19.14 -42.66,16.29 -64.98,19.86 -35.67,4.58 -71.89,6.43 -107.53,0.44 -14.86,-2.77 -33.96,-1.23 -42.82,-16.19 -18.73,-29.89 -28.04,-65.22 -51.19,-92.44 -32.59,-34.74 -59.01,-74.66 -83.87,-115.16 -22.01,-37.42 -43.17,-75.76 -57.24,-116.98 -3.56,-12.94 -8.97,-27.01 -4.28,-40.33 3.25,-6.47 11.02,-5.75 16.23,-2.26 40.67,22.05 89.56,35.3 135.16,21.67 11.91,34.75 36.42,63.34 61.96,88.98 -4.49,-33.41 -0.31,-67.34 8.9,-99.62 0.27,-3.73 3.29,-5.34 6.37,-6.68 3.05,11.98 8.9,23.38 19.07,30.85 8.45,-15.58 14.92,-32.7 26.15,-46.46 3.87,12.29 11.27,23.07 21.09,31.39 8.87,-9.65 16.81,-20.2 23.04,-31.73zm-116.5 150.25l0 0c-11.37,7.4 -8.08,22.19 -7.67,33.59 2.71,46.25 22.49,92.77 59.13,122.11 7.36,-0.1 10.23,-9.83 15.33,-14.17 7.19,6.19 14.35,12.42 21.5,18.69 4.45,-7.88 8.59,-15.92 12.81,-23.97 7.32,7.74 13.28,16.68 20.64,24.41 5.96,-9.2 10.89,-19.68 20.44,-25.81 2.63,5 5.23,10.03 7.9,15.07 31.26,-32.15 35.33,-81.65 25.27,-123.45 -2.5,-7.54 -2.67,-18.42 -11.67,-21.26 -24.38,-10.82 -52.11,-19.18 -78.71,-11.99 -4.24,25.34 7.67,49.51 12.05,74.05 -14.21,-22.46 -24.48,-47.21 -33.45,-72.13 -20.61,-4.24 -45.42,-8.39 -63.57,4.86zm181.07 143.89l0 0c-11.54,12.8 -25.99,25.26 -27.08,43.82 -6.58,-6.23 -11.85,-13.63 -16.98,-21.05 -6.1,9.89 -12.43,19.85 -15,31.35 -5.71,-9.58 -12.15,-18.72 -17.77,-28.34 -5.85,10.2 -11.5,20.64 -14.96,31.94 -3.39,-11.95 -8.21,-23.38 -13.35,-34.65 -9.65,6.99 -15.68,17.4 -20.85,27.87 -5.85,-31.98 -42.93,-43 -53.68,-72.23 -4.1,27.59 -5.75,58.47 10.38,82.74 10.85,10.37 28.21,5.92 40.22,0.27 11.3,3.87 30.23,13.63 37.63,-0.51 4.17,11.3 19.17,7.91 28.58,7.7 13.42,-5.78 30.33,3.8 41.97,-8.04 12.77,0.75 30.47,3.63 37.59,-10.07 12.09,-25.3 7.26,-54.53 1.92,-80.96 -5.17,10.65 -10.41,21.46 -18.62,30.16zm-890.3 -929.46l0 0c-1.95,75.52 36.97,146.14 89.38,198.18 33.93,35.77 76.21,62.89 121.84,81.2 -18.14,-2.6 -36.63,-4.65 -54.91,-2.05 20.92,35.81 54.43,61.86 89.83,82.26 15.41,5.21 31.98,0.65 47.52,-1.88 -18.42,11.5 -33.82,26.67 -49.91,40.98l-0.72 1.3c-37.46,18.97 -79.22,27.29 -120.85,29.65 -9.24,1.37 -19.17,-0.62 -27.94,3.22 15.65,13.07 31.29,26.29 48.31,37.65 16.77,11.1 34.75,22.02 55.29,23.69 -9.97,32.66 -15.44,66.59 -27.49,98.63 -10.2,27.12 -23.04,53.17 -37.08,78.5 31.91,-4.41 64.19,-6.74 95.75,-13.52 -20.88,24.1 -38.3,51.49 -49.26,81.55 -19.99,52.44 -19.89,110.5 -8.66,164.94 15.92,77.98 52.14,149.46 82.4,222.45 5.31,-41.28 14.04,-82.37 28.79,-121.39 9.45,-24.1 21.43,-47.93 40.4,-66.01 -4.72,24.62 -8.8,49.54 -8.49,74.7 -1.71,69.88 15.68,138.07 25.74,206.74 18.08,-37.79 31.53,-77.84 52.38,-114.37 19.48,-35.85 44.95,-69.02 77.24,-94.18 -4.32,10.61 -8.8,21.36 -9.56,32.97 -4.51,46.25 15.41,90.17 16.95,135.97 30.71,-46.11 70.59,-86.06 116.5,-117.08 19.14,-12.32 39.37,-23.65 61.52,-29.58 5.24,11.95 16.02,20.03 27.04,26.37 29.89,16.63 64.09,23.99 97.98,26.29 65.36,4.31 131.67,-15.96 183.67,-55.74 45.43,42.25 105.03,74.19 130.23,133.96 4.55,-6.26 5.61,-14.2 7.94,-21.43 12.94,-44.3 18.49,-92.43 5.07,-137.28 14.24,9.01 24.48,22.9 33.89,36.56 24.65,38.35 39.64,81.89 52.31,125.4 3.42,10.96 4.79,22.6 9.59,33.14 47.41,-106.19 90.58,-217.59 96.88,-334.98 10.99,11.5 17.12,26.74 25.44,40.19 12.11,20.34 20.64,42.59 32.38,63.06 3.15,-54.09 4.62,-109.75 -12.15,-161.96 -14.76,-47.35 -43.41,-88.87 -76.04,-125.68 31.36,21.02 68.95,33.11 95.65,60.67 -5.99,-90.96 -28.38,-187.81 -95.48,-253.95 28.66,-6.06 39.58,-35.74 56.22,-56.15 -59.88,1.23 -113.59,-33.34 -152.65,-76.17 29.71,4.62 60.18,7.5 90,2.06 34.81,-7.5 70.11,-21.92 94.04,-49.34 -12.74,-3.52 -25.33,-7.36 -38.1,-10.68 -7.19,11.71 -18.97,19.21 -31.05,25.13 -34.07,17.56 -73.16,17.77 -110.41,20.88 -3.7,-0.99 -7.36,-1.98 -10.99,-3.01 38.31,-13.83 73.19,-36.12 103.18,-63.54 2.09,-2.53 6.23,-4.42 5.62,-8.28 -19.45,-8.63 -38.04,-18.97 -57.1,-28.38 27.14,3.9 54.94,4.21 82.02,-0.69 45.33,-8.11 87.95,-26.46 129.75,-45.22l-1.47 6.37c-29.03,31.76 -61.25,63.88 -102.88,78.02 -1.06,4 -2.09,8.04 -3.08,12.04 29.17,-10.3 57.24,-24.33 82.06,-42.82 42.93,-34.85 81.93,-75.45 110.48,-123.11 7.87,-13.59 15.71,-27.52 19.54,-42.89 -0.78,0.82 -2.43,2.43 -3.21,3.25 -26.54,14.72 -55.29,25.61 -85.62,28.99 -93.98,9.83 -188.64,8.36 -282.81,15.45 -27.63,2.94 -56.42,3.93 -82,15.95 2.13,-11.51 8.9,-21.71 10.41,-33.24 -4.55,-10.99 -16.4,-16.33 -26.53,-21.06 -30.5,-12.12 -64.26,-12.67 -96.58,-10.71 7.98,-6.75 16.2,-13.22 24.1,-20.1 -3.69,-2.46 -7.7,-4.04 -12.04,-4.69 -28.9,-4.72 -58.44,-2.46 -87.13,2.5 -27.59,5.27 -55.08,13.66 -78.78,29.13 -37.35,-21.32 -79.9,-31.35 -122.11,-37.52 -40.77,-5.47 -82.54,-6.91 -123.14,0.62 6.02,9 16.67,13.01 24.41,20.3 -53.3,3.36 -104.42,24.07 -147.17,55.6 6.53,8.76 16.84,16.81 17.18,28.55 -59.57,-16.16 -122.08,-20.13 -183.56,-17.8 -9.73,-0.41 -19.79,3.21 -29.21,1.16 -63.4,-45.57 -139.67,-67.31 -208.31,-103.25 -15.48,-10.51 -24.48,-29.44 -42.45,-36.49z"/>
   <path class="fil3" d="M1758.44 268.29c0.78,-0.82 2.43,-2.43 3.21,-3.25 -3.83,15.37 -11.67,29.3 -19.54,42.89 -28.55,47.66 -67.55,88.26 -110.48,123.11 -24.82,18.49 -52.89,32.52 -82.06,42.82 0.99,-4 2.02,-8.04 3.08,-12.04 41.63,-14.14 73.85,-46.26 102.88,-78.02 10.99,-12.43 24.1,-22.63 35.67,-34.44 24.34,-25.3 47.82,-51.73 67.24,-81.07zm-967.98 208.11c9.07,-7.5 21.29,-5.2 31.84,-3.15 17.8,18.49 34.47,38.03 50.05,58.44 -1.24,-0.31 -3.7,-0.96 -4.97,-1.3 -6.3,-1.75 -12.46,-3.97 -18.55,-6.3 -5.41,-2.06 -10.75,-4.21 -16.09,-6.37 0.65,9.76 0.54,19.62 -0.48,29.37 -3.8,-3.56 -7.53,-7.12 -11.16,-10.78 -4.35,-5.58 -9.28,-11.57 -8.25,-19.14 3.11,-0.58 9.34,-1.74 12.46,-2.33 -12.91,-4.92 -25.27,-11.05 -37.83,-16.74 -0.17,-7.19 -3.66,-16.29 2.98,-21.7zm755.52 4.14c12.77,3.32 25.36,7.16 38.1,10.68 -23.93,27.42 -59.23,41.84 -94.04,49.34 -29.82,5.44 -60.29,2.56 -90,-2.06 39.06,42.83 92.77,77.4 152.65,76.17 -16.64,20.41 -27.56,50.09 -56.22,56.15 67.1,66.14 89.49,162.99 95.48,253.95 -26.7,-27.56 -64.29,-39.65 -95.65,-60.67 32.63,36.81 61.28,78.33 76.04,125.68 16.77,52.21 15.3,107.87 12.15,161.96 -11.74,-20.47 -20.27,-42.72 -32.38,-63.06 -8.32,-13.45 -14.45,-28.69 -25.44,-40.19 -6.3,117.39 -49.47,228.79 -96.88,334.98 -4.8,-10.54 -6.17,-22.18 -9.59,-33.14 -12.67,-43.51 -27.66,-87.05 -52.31,-125.4 -9.41,-13.66 -19.65,-27.55 -33.89,-36.56 13.42,44.85 7.87,92.98 -5.07,137.28 -2.33,7.23 -3.39,15.17 -7.94,21.43 -25.2,-59.77 -84.8,-91.71 -130.23,-133.96 -52,39.78 -118.31,60.05 -183.67,55.74 -33.89,-2.3 -68.09,-9.66 -97.98,-26.29 -11.02,-6.34 -21.8,-14.42 -27.04,-26.37 -22.15,5.93 -42.38,17.26 -61.52,29.58 -45.91,31.02 -85.79,70.97 -116.5,117.08 -1.54,-45.8 -21.46,-89.72 -16.95,-135.97 0.76,-11.61 5.24,-22.36 9.56,-32.97 -32.29,25.16 -57.76,58.33 -77.24,94.18 -20.85,36.53 -34.3,76.58 -52.38,114.37 -10.06,-68.67 -27.45,-136.86 -25.74,-206.74 -0.31,-25.16 3.77,-50.08 8.49,-74.7 -18.97,18.08 -30.95,41.91 -40.4,66.01 -14.75,39.02 -23.48,80.11 -28.79,121.39 -30.26,-72.99 -66.48,-144.47 -82.4,-222.45 -11.23,-54.44 -11.33,-112.5 8.66,-164.94 10.96,-30.06 28.38,-57.45 49.26,-81.55 -31.56,6.78 -63.84,9.11 -95.75,13.52 14.04,-25.33 26.88,-51.38 37.08,-78.5 12.05,-32.04 17.52,-65.97 27.49,-98.63 -20.54,-1.67 -38.52,-12.59 -55.29,-23.69 -17.02,-11.36 -32.66,-24.58 -48.31,-37.65 8.77,-3.84 18.7,-1.85 27.94,-3.22 41.63,-2.36 83.39,-10.68 120.85,-29.65 -18.73,32.9 -57.62,45.5 -91.07,58.03 27.25,18.66 59.95,30.19 93.33,27.38 -38.21,41.53 -37.83,100.89 -54.27,151.87 24.21,-6.51 49.58,-8.18 74.47,-5.27 -10.65,19.75 -21.68,39.37 -29.86,60.32 -29.68,71.99 -36.15,152.44 -22.66,228.89 5.68,35.84 17.15,70.35 26.94,105.2 26.05,-51.83 53.61,-103.08 87.47,-150.29 3.12,77.85 15.58,155.74 40.88,229.54 14.34,-62.13 20.78,-126.05 39.91,-187.05 9.49,-31.33 22.91,-61.35 39.54,-89.49 14.79,-24.41 31.91,-47.42 51.08,-68.57 2.47,-3.26 6.06,-6.06 7.05,-10.21 -7.08,-26.8 -24.13,-50.52 -27.14,-78.49 -1.75,-17.98 11.43,-31.71 23.58,-42.9 -30.05,-35.54 -57.51,-82.27 -45.6,-130.5 9.66,-39.17 44.34,-64.12 77.92,-82.23 -23.52,-1.06 -48.17,-3.19 -68.71,-15.75 -16.19,-10.58 -29.3,-27.56 -31.01,-47.31 26.84,-3.56 54.7,-7.09 81.51,-1.75 8.8,10.72 17.87,21.23 28.48,30.2 3.08,11.19 8.8,23.62 20.82,27.25 16.12,3.49 33,1.95 48.92,-1.85 0.75,-0.17 2.19,-0.51 2.94,-0.69 22.9,-5.65 47.11,-7.43 70.18,-1.67 18.52,4.72 37.01,9.55 55.63,13.83 -0.78,10.3 1.78,20.4 2.81,30.64 -7.33,20.09 5.61,39.4 16.12,55.56 2.85,-7.4 4.49,-16.23 11.68,-20.82 9.58,-6.06 21.87,-7.08 32.79,-4.75 13.05,3.04 15.99,22.28 5.65,29.99 -5.51,6.33 -18.14,11.46 -14.61,21.53 7.73,21.43 23.14,39.74 27.31,62.54 -23.79,4.18 -48.03,6.92 -70.86,15.27 -4.28,1.1 -7.43,4.18 -10.37,7.26 23.24,-3.42 46.69,-6.3 70.28,-5.1 33.41,0.68 66.24,7.36 99.28,11.64 -17.22,-18.25 -43.51,-19.21 -65.94,-26.67 9.86,-23 31.09,-38.48 42.69,-60.32 3.29,-14.79 -15.98,-21.09 -15.47,-34.78 5.55,-15.34 24.99,-24.72 40.23,-18.15 8.59,3.56 13.65,11.81 19.24,18.76 4.79,-4.79 9.27,-10.16 10.88,-16.94 5.07,-19.79 -2.94,-40.91 3.97,-60.53 6.13,-3.05 13.32,-4.62 18.42,-9.45 5.55,-6.64 9.18,-14.61 13.8,-21.91 1.57,7.91 -2.19,18.87 5.06,24.62 12.67,3.35 25.27,7.02 37.56,11.67 16.95,6.16 39.27,6.03 51.38,-9.27 11.34,-15.27 8.91,-35.57 3.87,-52.73 15.89,5.41 33.07,14.25 37.52,31.94 14.83,-8.83 30.34,-16.8 42.9,-28.89 -12.39,-7.5 -25.06,-14.55 -38.07,-20.88 0.86,-0.89 2.64,-2.67 3.49,-3.56 17.5,-2.47 35.02,2.26 52.45,-0.28 37.25,-3.11 76.34,-3.32 110.41,-20.88 12.08,-5.92 23.86,-13.42 31.05,-25.13zm-323.62 74.26c16.16,-19.21 35.06,-36.02 54.95,-51.36 13.28,-3.86 31.18,3.57 25.16,20.07 -11.09,4.21 -22.08,8.66 -33.24,12.63 -1.34,0.48 -3.94,1.44 -5.24,1.92 -1.68,0.61 -5.03,1.88 -6.71,2.5 3.32,11.12 4.45,22.69 3.94,34.26 -5.17,-4.21 -10.31,-8.42 -15.24,-12.9 -3.25,-4.49 -5.99,-9.38 -8.66,-14.24l-3.05 1.67c-2.97,1.37 -8.93,4.11 -11.91,5.45zm-104.96 556.34c8.21,-8.7 13.45,-19.51 18.62,-30.16 5.34,26.43 10.17,55.66 -1.92,80.96 -7.12,13.7 -24.82,10.82 -37.59,10.07 -11.64,11.84 -28.55,2.26 -41.97,8.04 -9.41,0.21 -24.41,3.6 -28.58,-7.7 -7.4,14.14 -26.33,4.38 -37.63,0.51 -12.01,5.65 -29.37,10.1 -40.22,-0.27 -16.13,-24.27 -14.48,-55.15 -10.38,-82.74 10.75,29.23 47.83,40.25 53.68,72.23 5.17,-10.47 11.2,-20.88 20.85,-27.87 5.14,11.27 9.96,22.7 13.35,34.65 3.46,-11.3 9.11,-21.74 14.96,-31.94 5.62,9.62 12.06,18.76 17.77,28.34 2.57,-11.5 8.9,-21.46 15,-31.35 5.13,7.42 10.4,14.82 16.98,21.05 1.09,-18.56 15.54,-31.02 27.08,-43.82zm190.85 -483.53l0 0c11.61,1.2 23.15,4.66 32.35,12.05 25.61,20.03 41.39,51.22 44.99,83.3 2.98,27.01 -6.98,55.83 -28.55,73.05 -16.64,12.67 -33.52,26.23 -53.96,32.22 -9.82,3.9 -20.84,5.54 -29.78,11.36 6.95,6.78 18.73,12.33 16.74,24.21 -5,27.28 -22.05,50.32 -36.36,73.46 49.99,6.23 92.06,41.08 115.1,84.73 42.93,79.36 47.21,171.72 53.34,259.74 52.1,-72.44 63.06,-163.78 73.53,-249.95 1.68,-7.7 -0.75,-18.48 7.88,-22.59 14.17,-1.92 24.88,9.48 34.23,18.31 -6.71,-48.75 -21.53,-101.36 -60.94,-133.96 -3.32,-27.21 -12.35,-53.64 -29.37,-75.45 40.88,0.58 81.61,17.12 110.85,45.84 0.48,-7.6 -1.13,-15.06 -2.53,-22.46 -12.15,-64.8 -45.12,-125.26 -92.09,-171.44 19.13,-9.45 39.44,-18.83 53.64,-35.3 -27.32,0.52 -54.84,-6.91 -77.54,-22.22 -17.12,-11.15 -31.84,-27.38 -37.18,-47.48 -14.89,38.69 -57.34,53.72 -94.35,62.58zm-581.57 23.62l0 0c65.39,-2.6 130.3,7.54 194.86,16.37 -47.45,-28.48 -102.67,-42.9 -157.75,-45.4 -18.01,-2.6 -31.09,14.14 -37.11,29.03zm472.67 41.29l0 0c48.86,-7.97 98.05,-18.73 147.83,-15.4 -4.25,-12.64 -12.77,-29.96 -28.79,-27.39 -42.62,2.53 -84.77,17.18 -119.04,42.79zm-490.16 9.83l0 0c74.69,-6.75 149.7,0.37 223.72,10.68 -12.5,-9.86 -28.08,-14.72 -42.83,-20.17 -55.32,-17.35 -113.49,-24.03 -171.24,-26.39 -5.38,11.3 -7.87,23.59 -9.65,35.88zm530.6 7.46l0 0c-17.4,5.92 -35.1,12.8 -49.27,24.82 55.84,-8.97 112.74,-16.78 169.39,-10.44 -0.68,-11.44 -3.28,-22.6 -6.84,-33.45 -38.31,1.88 -76.62,7.57 -113.28,19.07zm-532.62 12.97l0 0c0.34,11.06 2.8,21.88 5.78,32.53 71.89,-5.75 144.13,-4.9 216.09,-0.62 -67.34,-36.12 -147.24,-40.67 -221.87,-31.91zm487.02 51.22l0 0c53.85,-5 108.04,-5.89 161.96,-1.47 3.76,-9.55 4.55,-19.79 4.52,-29.96 -56.39,-7.94 -118.9,-2.19 -166.48,31.43zm-141.36 43l0 0c-6.23,11.53 -14.17,22.08 -23.04,31.73 -9.82,-8.32 -17.22,-19.1 -21.09,-31.39 -11.23,13.76 -17.7,30.88 -26.15,46.46 -10.17,-7.47 -16.02,-18.87 -19.07,-30.85 -3.08,1.34 -6.1,2.95 -6.37,6.68 -9.21,32.28 -13.39,66.21 -8.9,99.62 -25.54,-25.64 -50.05,-54.23 -61.96,-88.98 -45.6,13.63 -94.49,0.38 -135.16,-21.67 -5.21,-3.49 -12.98,-4.21 -16.23,2.26 -4.69,13.32 0.72,27.39 4.28,40.33 14.07,41.22 35.23,79.56 57.24,116.98 24.86,40.5 51.28,80.42 83.87,115.16 23.15,27.22 32.46,62.55 51.19,92.44 8.86,14.96 27.96,13.42 42.82,16.19 35.64,5.99 71.86,4.14 107.53,-0.44 22.32,-3.57 48.82,-0.72 64.98,-19.86 27.9,-27.94 18.32,-70.59 25.33,-105.79 16.2,-61.14 32.32,-123.24 63.3,-178.94 8.87,-16.29 20.51,-34.03 16.2,-53.44 -5.48,-14.68 -24.58,-11.6 -37.08,-12.26 -11.64,39 -25.54,80.11 -55.67,108.94 7.47,-36.8 -6.19,-73.16 -5.51,-109.93 -2.39,-0.55 -7.19,-1.57 -9.58,-2.09 -5,7.43 -10.17,14.76 -15.96,21.64 -12.39,-11.74 -19.37,-28.04 -19.82,-45.05 -10.44,9.86 -15.81,24.2 -27.11,33.48 -9.04,-11.64 -17.26,-24.1 -20.99,-38.55 -4.14,-1.2 -4.93,5.07 -7.05,7.33z"/>
  </g>
 </g>
</svg>
