<?xml version="1.0" encoding="UTF-8"?>
<!DOCTYPE svg PUBLIC "-//W3C//DTD SVG 1.1//EN" "http://www.w3.org/Graphics/SVG/1.1/DTD/svg11.dtd">
<!-- Creator: CorelDRAW -->
<svg xmlns="http://www.w3.org/2000/svg" xml:space="preserve" width="2000px" height="1600px" version="1.1" style="shape-rendering:geometricPrecision; text-rendering:geometricPrecision; image-rendering:optimizeQuality; fill-rule:evenodd; clip-rule:evenodd"
viewBox="0 0 2000 1600"
 xmlns:xlink="http://www.w3.org/1999/xlink">
 <defs>
  <style type="text/css">
   <![CDATA[
    .fil1 {fill:black;fill-rule:nonzero}
    .fil2 {fill:#6C4022;fill-rule:nonzero}
    .fil0 {fill:#AAA9AB;fill-rule:nonzero}
    .fil3 {fill:#B7A269;fill-rule:nonzero}
    .fil4 {fill:#FEFEFE;fill-rule:nonzero}
   ]]>
  </style>
 </defs>
 <g id="Capa_x0020_1">
  <metadata id="CorelCorpID_0Corel-Layer"/>
  <g id="Western_x0020_Michigan_x0020_Broncos.cdr">
   <path class="fil0" d="M105.55 118.6l1683.5 0c-0.12,153.7 0,307.4 -0.07,461.1 -36.26,0.12 -72.51,-0.21 -108.77,0.13 -20.24,99.07 -41.06,198.02 -61.48,297.06 19.59,15.91 43.84,24.81 68.28,29.97 35.33,7.27 71.79,7.61 107.6,4.06 -31.83,33.13 -67.38,63.12 -107.13,86.33 -12.89,7.68 -26.64,13.71 -40.54,19.25 26.61,35.88 60.32,65.78 95.62,92.88 49.27,37.51 102.43,69.71 157.44,98.05l0 0.59c-81.68,18.17 -164.34,32.13 -247.56,41.02 -37.37,3.86 -74.87,6.53 -112.44,7.06 -10.52,50.91 -21.11,101.78 -31.64,152.69 -5.33,24.16 -9.52,48.6 -15.49,72.61l-524.94 0c-0.28,-5.32 -2.21,-10.31 -3.49,-15.43 -5.12,-19.35 -10.33,-38.68 -15.37,-58.07 -0.51,-1.89 -1.33,-3.6 -2.17,-5.31 -7.35,26.2 -13.61,52.74 -21.38,78.81l-524.68 0c-18.97,-94.91 -39.33,-189.58 -58.66,-284.44 -13.35,7.31 -26.66,14.72 -40.15,21.79 -3.84,2.15 -8.42,1.24 -12.6,1.21 -13.56,-0.56 -26.59,-4.63 -39.61,-8.08 -28.69,-7.97 -56.95,-17.4 -85.8,-24.74 -8.91,-28.97 -17.59,-58.51 -33.62,-84.49 -6.42,-9.61 -15.37,-17.16 -22.73,-26.01 3.65,-9.71 7.55,-19.31 11.27,-28.99 1.54,-3.4 -1.25,-6.68 -2.22,-9.82 -7.5,-16.77 -11.27,-34.83 -16.72,-52.26l0 -4.31c5.07,-4.81 8.86,-10.72 13.18,-16.17 15.13,-19.47 30.44,-38.85 46.93,-57.19 13.82,-15.32 28.54,-30.21 45.94,-41.43 8.44,-1.39 17.05,-0.46 25.55,-0.62 11.9,-10.04 23.98,-19.93 35.68,-30.21 -17.87,-85.25 -35.58,-170.55 -53.1,-255.88 -36.24,-0.22 -72.46,0.09 -108.68,-0.15 0.08,-153.67 -0.04,-307.35 0.05,-461.01z"/>
   <path class="fil1" d="M144.4 157.45c191,-0.02 381.98,0 572.96,0 -0.03,52.72 0.07,105.45 -0.05,158.19 0.65,-1.3 1.21,-2.61 1.73,-3.98 15.5,-51.42 30.79,-102.93 46.46,-154.3 121.24,0.33 242.49,-0.24 363.71,0.27 15.69,52.61 31.3,105.24 47.66,157.63 -0.29,-52.61 -0.05,-105.21 -0.12,-157.81 190.99,0 381.97,-0.02 572.97,0 0,127.79 0,255.6 0,383.39 -33.7,0.02 -67.38,-0.01 -101.04,0.02 -24.42,117.14 -48.57,234.34 -73,351.48 8.84,6.99 17.84,13.82 26.59,20.94 10.12,8.72 22.21,14.72 34.08,20.68 21.28,10.48 45.35,16.65 69.1,13.01 -25.31,17.75 -54.61,29.19 -84.52,36.48 -15.52,3.57 -31.3,6.57 -47.25,7 21.77,25.24 43.17,50.93 65.15,76.05 29.9,33.81 62.32,65.75 98.91,92.34 15.7,11.66 32.81,21.18 49.65,31 -91.86,18.13 -185.47,28.36 -279.15,27.3 -15.32,74.89 -31.08,149.67 -46.46,224.54 -154.48,0.04 -308.97,0.02 -463.44,0.02 -17.04,-63.62 -33.86,-127.28 -50.91,-190.9 -6.83,21.38 -11.71,43.42 -17.79,65.04 -11.22,41.96 -22.24,83.97 -33.59,125.88 -154.39,0.01 -308.77,-0.11 -463.17,0.06 -21.57,-101.88 -42.35,-203.96 -63.65,-305.91 -25.85,15.15 -51.49,30.76 -78.13,44.52 -5.24,1.25 -10.66,-1.06 -15.83,-2.03 -27.1,-6.88 -53.71,-15.51 -80.52,-23.47 -3.54,-11.64 -7.62,-23.15 -12.33,-34.39 3.92,-2.8 8.01,-5.4 12.05,-8.03 -0.83,-4.51 -1.7,-9 -2.57,-13.47 -6.63,-0.84 -13.28,-1.44 -19.93,-1.95 -5.4,-10.26 -11.19,-20.44 -19.15,-28.96 2.94,-8.1 6.49,-15.95 10.43,-23.6 -9.71,-16.5 -16.13,-34.71 -21.1,-53.13 13.68,-17.78 27.54,-35.44 42.37,-52.3 10.93,-12.15 21.84,-24.66 35.14,-34.27 9.09,-0.34 18.19,-0.21 27.29,-0.65 20.86,-17.95 41.95,-35.64 63.23,-53.09 -21.49,-103.38 -43.01,-206.73 -64.3,-310.14 -33.82,-0.15 -67.65,-0.01 -101.48,-0.07 0,-127.79 0,-255.6 0,-383.39z"/>
   <path class="fil2" d="M216.5 229.4c141.68,-0.5 283.36,-0.07 425.04,-0.23 2.75,-0.66 4.8,0.87 4.11,3.78 -0.1,78.47 -0.03,156.94 -0.03,235.42 -24.82,-0.17 -49.65,-0.17 -74.44,0 -0.33,0.36 -0.96,1.07 -1.27,1.43 0.14,1.98 0.4,3.95 0.74,5.91 6.78,34.09 13.3,68.24 20.08,102.33 0.44,1.95 1.16,3.82 1.86,5.7l0.14 0.38c-12.79,3.23 -24.88,8.8 -36.62,14.74 -1.69,0.85 -3.48,1.36 -5.36,1.53 -27.1,2.17 -54.84,5.57 -79.63,17.44 -14.38,6.94 -27.79,18.97 -30.73,35.35 -3.5,17.59 4.55,34.62 13.82,49.05 -31.08,14.98 -62.69,29.17 -91.91,47.61 -17.03,-85.54 -35.39,-170.83 -52.86,-256.28 -1.93,-7.96 -2.83,-16.16 -5.48,-23.93l-0.48 -1.45c-29,0.17 -58.01,0.12 -87.01,0.03 0.12,-79.61 0.03,-159.21 0.03,-238.81zm602.44 -0.19c85.46,-0.07 170.93,0 256.39,-0.04 39.5,129.83 78.46,259.84 117.7,389.75 -38.22,-9.75 -75.45,-23.24 -114.1,-31.33 -57.89,-11.75 -117.59,-2.7 -174.36,10.84 14.92,-18.02 16.46,-42.93 12.88,-65.13 -5.71,2.57 -10.81,6.25 -16.5,8.84 -15.39,7.53 -32.52,10.83 -49.54,11.43 -21.59,1.29 -43.28,-0.68 -64.78,2.15 -6.63,0.46 -13.05,2.58 -19.69,2.8 7.51,-10.95 13.83,-23.26 14.52,-36.75 -18.09,15.13 -37.99,29.03 -60.96,35.47 32.52,-109.44 65.62,-218.7 98.44,-328.03zm430.02 -0.02c142.99,-0.02 286,-0.03 429.01,0.02 0,79.68 0.07,159.39 -0.03,239.09 -29.09,-0.09 -58.17,0.03 -87.25,-0.07l-0.4 1.42c-7.75,33.66 -14.17,67.64 -21.36,101.44 -11.29,54.36 -22.63,108.68 -33.78,163.06 -5.62,1.93 -9.84,6.56 -15.51,8.43 -25.63,10.52 -54.47,10.35 -81.37,5.49 -48.42,-9.26 -92.85,-31.63 -136.62,-53.41 -6.22,-2.8 -12.22,-6.32 -18.98,-7.63l0.21 -0.51c3.48,-9.36 4.28,-19.44 6.54,-29.1l-2.04 0.17c13.56,-9.34 26.89,-19.18 39.25,-30.09 -10.52,2.53 -21.3,3.58 -32.09,3.84 8.47,-42.13 16.74,-84.3 25.17,-126.41 2.14,-11.66 5.11,-23.17 6.53,-34.96l0.17 -1.45c-25.84,-0.67 -51.7,0.09 -77.54,-0.38 0.14,-79.65 -0.03,-159.3 0.09,-238.95zm-632.63 390.54c21.3,-10.81 44.32,-17.52 66.52,-26.18 -3.79,4.42 -9.12,7.05 -13.32,11.01 -11.8,10.18 -22.72,23.47 -23.54,39.72 -22.91,4.97 -45.01,12.98 -66.91,21.25 6.3,-16.87 17.17,-31.88 30.86,-43.58 2.17,-0.58 4.34,-1.27 6.39,-2.22zm359.73 12.96c27.77,-3.04 56.01,-5.55 83.73,-0.68 41.96,6.42 82.08,22.61 124.68,25.03 17.58,1.32 35.18,-1.02 52.31,-4.87 -1.21,3.57 -5.44,4.04 -8.36,5.61 -36.86,15.71 -77.23,18.75 -115.98,27.34 -13.32,3.21 -26.96,6.04 -39.3,12.21 -11.28,2.77 -22.57,5.57 -33.54,9.41 1.75,0.84 3.5,1.69 5.3,2.51 -2.73,-0.55 -5.42,-1.2 -7.93,-2.36 -12.58,-5.51 -25.51,-10.3 -38.59,-14.48 -1.59,-0.43 -2.86,-1.28 -3.81,-2.6 35.44,-14.72 73.4,-22.86 111.4,-27.46 -59.62,-17.72 -124.98,-14 -182.8,8.52 -10.66,-1.81 -21.11,-4.73 -31.7,-6.84 -6.8,-1.62 -13.87,-2.26 -20.37,-4.9 33.62,-13.36 69.01,-22.31 104.96,-26.44zm87.09 84.35c73.08,-18.07 152.18,-18.38 223.09,8.72 21.86,8.66 41.96,21.13 63.82,29.82 27.41,11.66 57.08,17.9 86.91,17.32 -13.2,6.1 -28.11,6.85 -42.42,7.8 -42.75,0.96 -84.67,-13.46 -127.49,-8.72 -14.55,1.75 -29.29,4.59 -42.5,11.15 -11.38,1.21 -22.72,2.75 -33.84,5.48 -8.11,-7.04 -17.45,-12.45 -25.88,-19.04 -0.11,-0.4 -0.31,-1.16 -0.42,-1.56 33.26,-13.25 69.65,-19.98 105.44,-16.54 -4.11,-3.56 -9.59,-4.77 -14.53,-6.72 -49.37,-17.19 -103.17,-18.8 -154.45,-10.41 -3.76,1.04 -7.04,-1.34 -10.27,-2.77 -13.14,-6.3 -26.28,-12.67 -39.6,-18.6 -1.95,-0.84 -3.65,-2.05 -5.26,-3.36 5.94,2.1 11.68,4.76 17.4,7.43zm459.6 33.61c4.24,-4.51 7.34,-9.98 11.84,-14.27 -7.59,36.64 -15.1,73.29 -22.82,109.87 -22.22,-14.88 -44.73,-29.33 -67.97,-42.53 -1.3,-0.8 -2.46,-1.74 -3.47,-2.83 31.41,-8.63 60.72,-25.84 82.42,-50.24zm-309.67 54.44c19.9,-2.73 40.05,-3.11 60.1,-2.13 70.46,4.35 138.07,30.62 197.57,67.76 23.79,14.46 45.31,32.28 68.96,46.96 27.92,17.63 58.03,32.21 90.12,40.39 -15.83,5.07 -33.15,3.79 -49.29,0.69 -32.68,-6.6 -61.56,-24.22 -92.82,-35.05 -41.48,-14.75 -86.48,-23.21 -130.32,-15.28 0.94,0.77 1.9,1.53 2.89,2.32 -8.15,-0.1 -16.33,0.58 -24.1,3.09 -7.95,-7.12 -15.69,-14.77 -22.01,-23.38 15.95,-5.29 32.89,-6.27 49.56,-6.78 34.12,0.05 68.23,4.61 101.12,13.7 -19.42,-18.84 -43.26,-32.65 -67.89,-43.53 -49.01,-20.96 -103.11,-29.68 -156.24,-26.18 -9.27,-7.45 -18.53,-14.93 -27.65,-22.58zm142 125.45c40.68,0.57 79.79,15.89 113.86,37.39 41.46,26.31 76.75,60.96 110.77,96.06 26.76,26.54 51.64,56 84.36,75.53 -3.14,2.26 -6.71,-0.25 -10.01,-0.71 -57,-13.92 -110.3,-39.98 -159.71,-71.25 -21.19,-12.86 -39.79,-29.37 -58.52,-45.46 26.72,17.35 56.1,30.11 85.69,41.72 11.79,4.27 23.43,9.27 35.78,11.66 -34.1,-26.31 -63.22,-58.47 -97.02,-85.22 -28.88,-23.07 -60.88,-43.48 -96.86,-53.28 -3.73,-0.6 -6.92,-2.9 -8.34,-6.44zm-828.53 97.72c4.51,-1.35 9.36,-3.87 13.99,-1.43 48.09,16.43 99.48,27.54 150.44,20.34 3.31,-0.17 7.24,-1.98 10.06,0.61 12.67,9.17 23.36,21.93 27.63,37.18 5.1,17.35 1.74,36.85 -8.47,51.73 -14.21,21.69 -32.31,40.47 -50.14,59.17 -19.74,20 -40.15,39.32 -61.13,58.02 1.78,-0.33 3.56,-0.63 5.32,-1.1 79.83,-24.33 161.19,-44.14 243.82,-56.34 9.99,-1.33 19.94,-3.34 30.04,-3.62 -16.09,58.8 -31.32,117.84 -47.29,176.67 -116.52,0.11 -233.06,0.18 -349.58,-0.03 -20.75,-99.91 -41.79,-199.76 -62.07,-299.77 30.63,-17.71 63.67,-30.91 97.38,-41.43zm477.55 155.12c66.35,-2.71 132.8,1.83 198.84,8.3 77.41,7.99 154.6,18.56 232.34,23.11 -10.42,51.55 -21.55,102.96 -31.83,154.53 -69.03,0.58 -138.08,0.09 -207.11,0.24 -47.58,-0.08 -95.17,0.21 -142.77,-0.15 -16.61,-61.98 -33.2,-123.97 -49.47,-186.03z"/>
   <path class="fil3" d="M185.41 198.01c163.7,-0.09 327.39,0.22 491.1,-0.16 0.7,100.54 0.04,201.13 0.33,301.68 -10.54,-10.24 -20.87,-20.71 -31.22,-31.16 0,-78.48 -0.07,-156.95 0.03,-235.42 0.69,-2.91 -1.36,-4.44 -4.11,-3.78 -141.68,0.16 -283.36,-0.27 -425.04,0.23 0,79.6 0.09,159.2 -0.03,238.81 -10.45,10.21 -20.65,20.67 -31.06,30.91 -0.04,-100.36 -0.04,-200.75 0,-301.11zm603.88 22.11c2.38,-7.37 4.27,-14.91 6.9,-22.2 100.8,0.29 201.59,-0.1 302.38,0.19 42.87,142.84 86.06,285.59 129.13,428.38 -11.67,-1.98 -23.23,-4.61 -34.67,-7.57 -39.24,-129.91 -78.2,-259.92 -117.7,-389.75 -85.46,0.04 -170.93,-0.03 -256.39,0.04 -32.82,109.33 -65.92,218.59 -98.44,328.03 -11.23,4.3 -23.27,6.46 -35.09,8.73 34.56,-115.31 69.3,-230.55 103.88,-345.85zm428.47 -22.11c163.79,0.01 327.6,-0.02 491.4,0.01 0.01,100.49 -0.06,200.96 0.03,301.44 -10.59,-10.23 -20.94,-20.68 -31.25,-31.16 0.1,-79.7 0.03,-159.41 0.03,-239.09 -143.01,-0.05 -286.02,-0.04 -429.01,-0.02 -0.12,79.65 0.05,159.3 -0.09,238.95 -10.46,10.17 -20.49,20.79 -31.09,30.8 -0.07,-100.32 -0.02,-200.62 -0.02,-300.93zm-913.8 271.62c2.65,7.77 3.55,15.97 5.48,23.93 17.47,85.45 35.83,170.74 52.86,256.28 -5.67,3.38 -11.14,7.09 -16.4,11.09 -0.48,18.8 2.02,37.57 5.98,55.93 -2,1.58 -4,3.21 -5.98,4.83 -22.25,-107.27 -44.66,-214.48 -66.69,-321.78 8.37,-9.99 16.5,-20.19 24.75,-30.28zm265.95 0.17c12.5,9.8 24.49,20.27 36.96,30.14 5.17,25.3 10.14,50.66 14.89,76.03 -9.87,2 -19.59,4.67 -29.17,7.77 -0.7,-1.88 -1.42,-3.75 -1.86,-5.7 -6.78,-34.09 -13.3,-68.24 -20.08,-102.33 -0.34,-1.96 -0.6,-3.93 -0.74,-5.91zm719.56 30.23c12.14,-10.15 24.28,-20.34 36.77,-30.06 -1.42,11.79 -4.39,23.3 -6.53,34.96 -8.43,42.11 -16.7,84.28 -25.17,126.41 -10.52,0.21 -21.02,-0.15 -31.52,-0.5 9.06,-43.54 16.92,-87.4 26.45,-130.81zm279.46 71.06c7.19,-33.8 13.61,-67.78 21.36,-101.44 8.32,10.28 17.44,20.2 24.8,31.1 -25.09,121.68 -50.46,243.3 -75.65,364.97 -9.04,-6.77 -18.43,-13.02 -27.67,-19.47 7.72,-36.58 15.23,-73.23 22.82,-109.87l0.56 -2.23c11.15,-54.38 22.49,-108.7 33.78,-163.06zm-719.06 6.54c15.76,-1.4 32.19,-3.14 46.13,-11.31 -0.59,12.61 -11.33,21.37 -22.2,25.72 -31.96,13 -67.63,12.08 -99.69,24.72 -10.59,4.06 -20.46,12.34 -21.57,24.33 -14.14,14 -31.28,24.56 -46.89,36.67 8.66,1.38 17.42,-0.34 26.14,-0.21 69.65,0.38 138.44,16.29 203.6,40.12 60.68,22.3 118.44,52.03 173.26,86.21 51.78,32.29 100.13,70.03 144.02,112.42 50.5,47.95 94.98,102.19 149.26,146.14 56.47,46.28 123.08,78.78 192.22,101.37 2.74,0.85 5.42,1.89 7.67,3.79 -47.46,4.1 -95.38,1.71 -142.58,-4.44 -64.15,-8.93 -128.15,-27.09 -183.31,-61.82 -27.4,-17.37 -52.21,-39.04 -72.14,-64.68 -37.28,-50.56 -84.42,-93.22 -135.62,-129.33 -49.66,-34.56 -103.88,-63.29 -161.98,-80.72 -26.9,-7.77 -54.65,-13.49 -82.72,-13.83 -5.95,-15.17 -11.75,-30.71 -21.21,-44.07 -9.91,0.24 -19.81,-0.08 -29.7,0.58 -8.3,0.55 -16.52,1.97 -24.68,3.47 15.3,23 21.07,51.1 20.68,78.42 -0.87,29.05 -8.54,58.7 -26.04,82.28 -7.64,10.42 -17.75,18.72 -28.61,25.59 -27.56,9.35 -58.47,11.11 -86.34,1.94 -18.46,-5.56 -33.15,-21.84 -36.72,-40.8 -1.76,-11.57 -0.58,-23.56 2.88,-34.71 5.98,-16.42 19.92,-27.84 32.62,-39.01 -14.48,-3.54 -28.89,-7.38 -43.08,-11.92 -27.26,14.45 -54.79,28.4 -81.86,43.17 4.46,5.65 6.56,12.76 5.96,19.93 -29.05,15.35 -56.7,33.24 -85.52,48.91 6.23,-10.98 13.69,-21.17 21.81,-30.81 1.41,-5.75 -1.49,-11.85 -3.91,-17.06 -19.13,7.94 -36.96,18.64 -54.28,29.94 -0.8,-6.98 -2.47,-13.83 -5.04,-20.37 -20.06,5.12 -39.12,13.49 -57.99,21.92 -1.93,0.94 -4.22,1.63 -5.31,3.66 7.3,-0.7 14.74,-1.86 22.04,-0.55 3.06,0.81 6.43,3.23 6.68,6.59 -0.8,35.01 -19.16,69.32 -47.97,89.17 4.54,-7.62 8.68,-15.56 10.67,-24.27 -10.65,10.06 -23.84,17.1 -37.55,22.08 -8.25,2.77 -17.13,5.38 -25.87,3.59 -7.72,-2.1 -15.8,-8.25 -15.78,-16.96 -0.98,-12.5 6.04,-23.7 13.11,-33.37 6.08,-8.32 13.63,-15.34 20.79,-22.68 -11.53,0.53 -23.06,1.54 -34.59,2.07 7.91,-10.44 18.07,-19.15 25.16,-30.16l0.2 -0.34 0.33 0c6.61,0.32 13.1,-1.13 19.64,-1.76 2.46,-0.48 5.4,-0.33 7.29,-2.26 51.11,-49.76 102.45,-99.29 153.56,-149.05 -1.35,0.78 -2.68,1.59 -4.03,2.41 -15.98,6.69 -31.57,14.6 -46.26,23.84 -0.43,-0.24 -1.26,-0.7 -1.69,-0.94 -2.43,-9.77 -3.11,-19.97 -2.56,-29.99 5.57,1.88 11.22,3.52 16.84,5.29 21.24,-16.72 41.15,-35.59 64.74,-49.01l0.56 1.88c-3.21,11.41 -5.91,22.97 -8.47,34.55 43.05,-26.9 86.84,-52.76 132.32,-75.39 19.42,-9.47 39.19,-18.32 59.81,-24.93 0.7,2.25 1.43,4.51 2.18,6.78 -17.37,12.93 -37.57,21.37 -55.14,33.99 4.32,-0.55 8.45,-1.88 12.62,-3.1 27.22,-7.58 54.73,-14 82.18,-20.76 -5.31,-10.56 -11.55,-21.84 -9.89,-34.09 1.26,-11.1 9.77,-19.13 17.11,-26.73 18.8,-18.32 43.82,-28.79 69.25,-33.95 28.11,-5.87 56.92,-5.97 85.46,-8.16zm-375.95 71.97c10.19,-13.5 27.89,-17.12 43.53,-20.28 -13.42,13.26 -25.81,27.88 -34.17,44.9 -2.31,4.17 -3.66,8.95 -6.82,12.62 -6.81,-10.88 -10.84,-26.04 -2.54,-37.24zm780.68 25.71c11.39,-4.96 22.45,-10.74 32.78,-17.72l2.04 -0.17c-2.26,9.66 -3.06,19.74 -6.54,29.1 -9.72,-2.32 -19.44,-4.7 -28.98,-7.6 0.17,-0.91 0.51,-2.7 0.7,-3.61zm-455.49 310.67c15.85,-14.07 25.89,-33.59 31.43,-53.81 56.64,17.96 105.18,55.93 143.18,100.91 17.5,21.29 34.19,44.02 44.07,69.97 3.44,8.76 1.15,20.05 -7.05,25.34 -6.52,4.73 -14.84,4.92 -22.51,5.94 -34.31,4.44 -68.65,8.66 -102.96,13.22 12.45,-12.18 15.27,-31.18 12.86,-47.77 -3.59,-17.3 -12.5,-32.99 -22.4,-47.42 -19.68,-27.87 -46.3,-50.74 -76.62,-66.38zm-436.83 15.44c18.96,-13.5 39.96,-24.54 62.3,-31.32 7.87,3.26 15.35,7.58 21.86,13.11 -11.9,16.38 -24.22,32.62 -33.56,50.67 2.67,-9.9 4.78,-20.49 2.61,-30.67 -1.21,-6.11 -7.65,-9.12 -13.33,-9.36 -13.72,-0.68 -26.75,4.49 -39.88,7.57zm61.62 72.63c0.63,-2.51 3.38,-3.11 5.27,-4.36 20.28,100.01 41.32,199.86 62.07,299.77 -8.46,10.33 -16.62,20.89 -25.38,30.94 -15.73,-76.73 -31.8,-153.39 -47.65,-230.08 -3.79,-19.23 -8.4,-38.33 -11.63,-57.64 1.9,-1.32 4.01,-2.55 4.68,-4.92 4.92,-10.96 8.85,-22.34 12.64,-33.71zm548.57 110.65c10.52,-0.69 21.07,-1.24 31.63,-1.32 16.27,62.06 32.86,124.05 49.47,186.03 -7.89,10.45 -15.78,20.88 -23.94,31.1 -18.8,-72 -38.51,-143.78 -57.16,-215.81zm-84.13 7.39c10.93,-0.97 21.83,-2.41 32.76,-3.48 -18.77,70.65 -37.6,141.3 -56.41,211.97 -7.94,-10.39 -15.98,-20.67 -23.87,-31.09 15.97,-58.83 31.2,-117.87 47.29,-176.67l0.23 -0.73zm546.94 22.7c10.4,0.63 20.83,0.82 31.23,1.62 -12.41,61.41 -25.36,122.72 -38.08,184.06 -8.32,-10.38 -17.21,-20.42 -24.98,-31.15 10.28,-51.57 21.41,-102.98 31.83,-154.53zm-874.23 -455.78l0 0c-28.61,14.32 -56.55,30.16 -82.67,48.68 -15.92,13.3 -36.81,18.87 -57.08,21.05 2.08,2.22 5.14,3.06 7.87,4.24 18.58,7.58 38.5,12.05 58.6,12.55 30.82,0.41 61.62,-9.19 86.82,-26.92 17.95,-13.42 26.42,-37.14 23.91,-59.03 -12.26,-1.4 -25.91,-7.64 -37.45,-0.57zm-288.26 214.02l0 0c6.13,-0.65 12.26,-1.82 18.46,-1.26 -5.32,7.14 -15.02,9.31 -22.01,14.67 -7.58,4.51 -14,13.47 -11.1,22.59 4.52,3.73 11.07,2.36 16.36,1.37 17.79,-5.36 30.38,-20.99 37.93,-37.32 2.19,-5.55 5.89,-11.2 4.49,-17.4 -16.26,-0.97 -32.84,5.64 -44.13,17.35z"/>
   <path class="fil4" d="M674.09 592.23c5.38,-0.44 10.65,-1.6 16,-2.22 -2.32,1.37 -4.73,2.56 -7.24,3.54 -22.2,8.66 -45.22,15.37 -66.52,26.18 -2.05,0.95 -4.22,1.64 -6.39,2.22 -13.83,3.38 -26.42,10.43 -38.63,17.55 -14.29,8.44 -27.68,18.28 -40.23,29.09 20.95,-33.7 56.56,-55.88 93.89,-67.36 16.09,-4.29 32.43,-8.25 49.12,-9zm309.11 23.89c23.61,-2.35 47.54,-4.3 71.19,-1.02 38.72,5.04 75.13,20 113.06,28.6 25.63,6.07 52.29,8.29 78.49,5.01 -2.84,1.64 -5.95,2.82 -9.16,3.46 -17.13,3.85 -34.73,6.19 -52.31,4.87 -42.6,-2.42 -82.72,-18.61 -124.68,-25.03 -27.72,-4.87 -55.96,-2.36 -83.73,0.68 -35.95,4.13 -71.34,13.08 -104.96,26.44l-1.2 0.47c-8.95,-1.75 -17.95,-3.28 -26.98,-4.47 44.37,-20.03 91.69,-34.33 140.28,-39.01zm-277.55 61.64c42.84,-9.12 87.26,-10.56 130.63,-4.32 69.21,9.71 134.48,36.42 197.65,65.29 56.31,24.98 110.07,56.04 158.59,94.11 44.71,34.55 84.82,74.49 124.34,114.73 42.18,43.28 84.96,86.26 132.56,123.66 43.14,34.04 89.93,63.43 139.27,87.59 5.51,2.82 11.17,5.38 16.6,8.37 -0.87,0.1 -2.6,0.31 -3.47,0.41 -2.25,-1.9 -4.93,-2.94 -7.67,-3.79 -69.14,-22.59 -135.75,-55.09 -192.22,-101.37 -54.28,-43.95 -98.76,-98.19 -149.26,-146.14 -43.89,-42.39 -92.24,-80.13 -144.02,-112.42 -54.82,-34.18 -112.58,-63.91 -173.26,-86.21 -65.16,-23.83 -133.95,-39.74 -203.6,-40.12 -8.72,-0.13 -17.48,1.59 -26.14,0.21zm367.49 19.57c38.77,-8.17 78.66,-10.42 118.17,-7.91 19.57,1.45 39.22,3.48 58.21,8.73 66.76,18.1 124.47,60.85 192.9,73.91 -1.83,0.31 -3.64,0.72 -5.45,0.84 -29.83,0.58 -59.5,-5.66 -86.91,-17.32 -21.86,-8.69 -41.96,-21.16 -63.82,-29.82 -70.91,-27.1 -150.01,-26.79 -223.09,-8.72 -5.72,-2.67 -11.46,-5.33 -17.4,-7.43l-0.85 -0.36c-1.8,-0.82 -3.55,-1.67 -5.3,-2.51 10.97,-3.84 22.26,-6.64 33.54,-9.41zm-671.55 59.04c19.81,-11.92 41.01,-21.27 61.88,-31.09 -0.35,1.37 -0.69,2.76 -1.03,4.14l-0.56 -1.88c-23.59,13.42 -43.5,32.29 -64.74,49.01 -5.62,-1.77 -11.27,-3.41 -16.84,-5.29 6.28,-6.05 13.92,-10.37 21.29,-14.89zm346.29 16.39c8.16,-1.5 16.38,-2.92 24.68,-3.47 8.95,13.75 12,30.28 14.58,46.22 3.61,27.1 2.94,55.35 -5.87,81.44 -6.27,18.45 -17.85,35.57 -34.52,46.08 -10.47,6.25 -21.1,12.46 -32.84,16.02 10.86,-6.87 20.97,-15.17 28.61,-25.59 17.5,-23.58 25.17,-53.23 26.04,-82.28 0.39,-27.32 -5.38,-55.42 -20.68,-78.42zm-317.07 5.59c1.35,-0.82 2.68,-1.63 4.03,-2.41 -51.11,49.76 -102.45,99.29 -153.56,149.05 -1.89,1.93 -4.83,1.78 -7.29,2.26 -6.54,0.63 -13.03,2.08 -19.64,1.76 56.42,-52.95 115.39,-103.17 176.46,-150.66zm759.91 10.26c11.12,-2.73 22.46,-4.27 33.84,-5.48 70.2,-4.99 140.44,12.86 203.41,43.22 27.84,13.61 54.07,30.35 78.85,48.93 36.36,26.59 70.91,56.36 111.57,76.39 4.56,2.41 9.65,3.88 13.87,6.95 -0.6,-0.14 -1.82,-0.41 -2.43,-0.55 -32.09,-8.18 -62.2,-22.76 -90.12,-40.39 -23.65,-14.68 -45.17,-32.5 -68.96,-46.96 -59.5,-37.14 -127.11,-63.41 -197.57,-67.76 -20.05,-0.98 -40.2,-0.6 -60.1,2.13 -7.68,-4.95 -15.13,-10.76 -22.36,-16.48zm-674.82 17.18c8.24,-5.46 16.71,-10.61 25.18,-15.75 4.1,7.45 0.16,17.2 -7.85,19.83 -6.06,3.02 -12.83,0.36 -17.33,-4.08zm820.29 108.05c7.77,-2.51 15.95,-3.19 24.1,-3.09 28.35,1.23 55.38,11.58 80.8,23.55 31.45,15.44 61.36,34.39 87.79,57.45 33.2,29.1 59.18,65.02 87.68,98.44 17.04,19.81 35.74,38.56 57.83,52.75 -3.56,-0.73 -7.21,-1.52 -10.32,-3.42 -32.72,-19.53 -57.6,-48.99 -84.36,-75.53 -34.02,-35.1 -69.31,-69.75 -110.77,-96.06 -34.07,-21.5 -73.18,-36.82 -113.86,-37.39l-0.84 -0.01c-6.26,-5.3 -12.38,-10.78 -18.05,-16.69zm-1108.06 19.18c8.35,-2.36 17.01,-3.65 25.69,-3.67 -7.09,11.01 -17.25,19.72 -25.16,30.16 -11.9,13.15 -23.84,26.35 -35.07,40.08 4.83,12.55 8.84,25.43 13.27,38.13 -1.9,7.35 -5.85,14.11 -8.3,21.33 -5.83,0.11 -11.64,-0.58 -17.44,-0.93 2.58,-7.98 5.94,-15.65 9.34,-23.28 -7.28,-12.88 -12.12,-27.04 -15.05,-41.5 12.18,-19.25 27.59,-36.15 43.02,-52.79 3.03,-2.77 5.23,-6.98 9.7,-7.53zm89.17 127.02c13.47,-11.37 27.51,-23.53 44.96,-28.07 -10.94,13.63 -23.26,26.5 -31.66,41.94 16.1,-10.36 30.11,-23.58 45.43,-34.97 -3.42,14.22 -7.67,28.26 -12.32,42.13 -1.58,5.38 -7.61,7.19 -11.63,10.43 -21.65,13.63 -43.8,26.92 -67.62,36.41 -21.25,-3.5 -42.49,-7.65 -63.62,-12.04 -1.23,-6.95 -2.59,-13.9 -3.67,-20.87 20.73,-0.36 41.18,3.64 61.72,5.67 11.34,-14.86 24.64,-28.06 38.41,-40.63z"/>
  </g>
 </g>
</svg>
