<?xml version="1.0" encoding="UTF-8"?>
<!DOCTYPE svg PUBLIC "-//W3C//DTD SVG 1.1//EN" "http://www.w3.org/Graphics/SVG/1.1/DTD/svg11.dtd">
<!-- Creator: CorelDRAW -->
<svg xmlns="http://www.w3.org/2000/svg" xml:space="preserve" width="2000px" height="1600px" version="1.1" style="shape-rendering:geometricPrecision; text-rendering:geometricPrecision; image-rendering:optimizeQuality; fill-rule:evenodd; clip-rule:evenodd"
viewBox="0 0 2000 1600"
 xmlns:xlink="http://www.w3.org/1999/xlink">
 <defs>
  <style type="text/css">
   <![CDATA[
    .fil0 {fill:#493192;fill-rule:nonzero}
    .fil1 {fill:#D1AC7B;fill-rule:nonzero}
    .fil2 {fill:#FEFEFE;fill-rule:nonzero}
   ]]>
  </style>
 </defs>
 <g id="Capa_x0020_1">
  <metadata id="CorelCorpID_0Corel-Layer"/>
  <g id="Western_x0020_Carolina_x0020_Catamounts.cdr">
   <path class="fil0" d="M1003.04 109.12c71.5,1.35 144.68,18.47 204,59.79 36.11,24.83 65.62,58.7 86.35,97.24 21.97,10.42 43.98,21.67 62.01,38.35 42.45,-7.52 86.7,0.16 125.72,17.9 40.84,18.51 76.96,48.69 99.8,87.54 11.29,19.13 18.85,40.35 22.9,62.17 19.97,-0.66 39.95,-1.8 59.93,-2.39 -13.62,16.16 -27.41,32.18 -41.03,48.34 33.81,29 67.91,57.69 101.76,86.65 2.42,2.12 5.26,3.82 8.41,4.71 19.5,6.24 38.9,14.01 55.38,26.4 -1.37,5.44 -3.06,10.79 -4.86,16.11 25.78,11.59 48.7,31.29 60.25,57.49 10.83,23.63 11.2,52.04 -0.35,75.5 -9.16,19.4 -25.39,34.53 -43.63,45.41 -0.41,30.13 -17.03,57.94 -39.88,76.73 -31.5,26.38 -71.37,39.82 -110.73,49.31 -4.18,40.87 -13.89,83.1 -39.26,116.34 18.28,18.24 26.03,44.87 24.29,70.26 -1.94,30.93 -15.45,60.09 -34.03,84.5 -25.05,32.6 -58.88,57.54 -95.41,75.91 -80.78,39.84 -172.5,50.47 -261.57,49.17 13.25,-15.91 26.74,-31.63 39.65,-47.82 -47.93,10.93 -97.64,17.35 -146.7,11.29 -14.62,-2.05 -29.07,-5.07 -43.56,-7.72 35.38,-19.66 71.09,-39.41 102.4,-65.28 -34.93,-24.21 -77.14,-34.52 -118.38,-41.97 -94.58,-15.29 -191.79,-10.1 -285.42,9.12 -77.23,16.37 -152.82,43.59 -219.65,86.08 -42.01,26.7 -80.23,59.77 -110.97,99.04 -16.26,20.39 -29.56,42.88 -41.99,65.74 -22.01,-38.06 -29.79,-82.77 -31.07,-126.22 -2.76,-90.03 31.04,-177.89 82.63,-250.56 -50.33,25.53 -98.72,55.45 -141.78,92.05 -26.26,22.49 -50.56,47.65 -69.49,76.68 -4.87,6.91 -8.82,14.45 -14.56,20.71 -11.38,-49.62 -10.21,-101.32 -2.03,-151.31 13.23,-80.87 47.73,-157.85 97.74,-222.61 14.28,-18.9 30.28,-36.34 46.47,-53.6 -68.69,33.81 -125.42,87.38 -174.06,145.67 -22.45,26.7 -42.22,55.45 -62.54,83.73 -1.94,-55.2 -2.06,-110.68 5.03,-165.56 12.18,-101.55 45.19,-200.98 99.47,-287.86 69.95,-113.19 173.92,-202.58 290.4,-265.49 -16.8,-49 -32.06,-98.56 -46.51,-148.32 -19.63,-7.27 -39.75,-13.05 -59.86,-18.76 49.73,-19.89 102.37,-33.19 155.95,-36.19 47.5,-3.04 95.18,2.18 141.67,11.8 69.33,14.79 137.3,36.23 202.19,64.85 4.74,1.89 9.47,5 14.82,4.04 24.93,-2.56 49.96,-4.09 74.99,-5.07 1.78,-24.3 3.09,-48.6 4.94,-72.87 -10.61,-15.25 -20.41,-31.02 -29.83,-47.02zm533.3 424.73c23.91,14.52 47.75,29.1 71.36,44.05 -19.47,-1.53 -39.15,-1.08 -58.49,1.83 -4.3,-15.29 -8.75,-30.54 -12.87,-45.88zm-981.9 -312.02l0 0c8,24.18 16.1,48.34 24.03,72.55 13.99,-0.67 28,-0.57 41.99,-1.37 -8.71,11.11 -18.06,21.73 -27.14,32.57 13.67,0.73 27.34,0.73 41.01,0.8 -9.99,10.21 -20.16,20.27 -29.9,30.72 1.51,6.12 3.07,12.25 4.6,18.37 -37.56,19.8 -75.43,40.23 -107.32,68.6 91.13,-35.84 183.09,-69.9 277.12,-97.44 -25.83,-27.06 -56.93,-48.55 -89.21,-67.18 -42.74,-24.11 -88.2,-43.4 -135.18,-57.62zm398.68 145.83l0 0c-56.66,38.17 -94.04,101.09 -107.04,167.54 58.7,-62.13 139.04,-106.72 225.39,-111.75 -23.61,-12.82 -48.36,-23.4 -73.16,-33.71 49.35,-15.43 101.96,-18.72 153.28,-14.15 62.72,5.85 123.91,25.51 178.83,56.2 13.56,7.2 26.01,16.8 40.99,21.06 27.93,9.05 58.65,4.18 84.77,-8.21 1.81,13.1 1.26,26.72 -3.2,39.27 -4.64,14.03 -16.18,24.66 -29.62,30.24 21.19,7.09 43.77,0.52 63.25,-8.57 -5.54,19.86 -23.04,34.15 -42.29,39.88 -29.65,9.15 -61.24,4.85 -91.06,-1.16 -36.96,-6.84 -77.99,-5.85 -110.54,14.99 -32.23,20.28 -50.26,57.3 -55.04,94.2 14.74,-19.5 35.75,-33.03 57.39,-43.73 44.64,-21.51 94.47,-30.17 143.73,-31.06 -24.76,6.81 -49.28,14.92 -72.07,26.92 -68.5,34.2 -124.02,95.07 -147.95,168.19 -18.13,53.28 -19.43,111.08 -10.15,166.21 4.29,-19.86 10.01,-39.47 18.24,-58.1 16.16,-37.21 42.44,-70.24 76.2,-92.91 40.62,-27.41 90.33,-41.12 139.23,-38.95 21.46,0.34 40.93,10.12 61.41,15.24 37.72,10.17 77.47,18.06 116.51,11.41 21.57,-3.82 43.68,-14.42 54.58,-34.38 9.33,-16.77 8.5,-37.76 -0.11,-54.67 -15.52,1.96 -24.12,16.75 -27.55,30.6 -7.72,-1.57 -15.45,-3.04 -23.17,-4.5 -11.89,-38.74 -19.8,-79.31 -17.4,-119.98 8.89,-3.06 18.33,-3.72 27.66,-4.41 20.68,-0.73 41.46,-0.34 62.03,2.29 -26.12,-21.92 -52.41,-43.66 -78.56,-65.56 -2.4,-2.26 -5.44,-3.52 -8.71,-3.36 -16.61,-1.05 -33.18,-2.53 -49.78,-3.49 15.63,-11.43 29.72,-27.94 30.79,-48.12 0.96,-22.01 -13.49,-41.03 -29.07,-55.06 -37.93,-34.54 -89.03,-52.14 -139.8,-54.54 16.64,16.16 31.91,33.99 43.18,54.36 -38.17,-21.03 -77.99,-39.16 -119,-53.99 -59.86,-21.6 -122.83,-36.78 -186.74,-37.37 -54.4,-0.46 -110.1,12.13 -155.45,43.13zm178.86 77.57l0 0c-1.54,30.79 15.7,60.9 40.82,78.02 35.82,24.18 88.85,12.13 113.58,-22.38 -15.36,-6.65 -31.84,-9.85 -47.64,-15.2 -10.17,14.15 -26.47,21.78 -41.46,29.67 -5.46,-17.33 -10.86,-34.88 -12.48,-53.05 -17.67,-5.54 -34.93,-12.28 -52.82,-17.06zm-78.45 238.95l0 0c-81.12,12.28 -161.37,30.24 -240.16,53.1 -75.77,22.35 -150.67,49.05 -220.64,86.1 -35.68,19.27 -70.49,41.15 -99.68,69.58 75.66,-33.83 152.8,-64.34 231.09,-91.57 66.85,-23.1 134.67,-43.7 203.58,-59.79 71.41,-16.36 144.37,-28.62 217.86,-27.34 7.36,-14.05 15.63,-27.59 24.8,-40.52 -39.18,-0.32 -78.13,4.98 -116.85,10.44zm713.46 6.11l0 0c-10.28,19.26 -22.01,39.31 -41.3,50.81 -6.92,-2.4 -13.87,-4.64 -20.78,-7.04 1.15,-9.99 -2.58,-19.45 -7.04,-28.14 -12.91,0.78 -23.17,11.38 -26.37,23.45 -5.53,17.92 1.94,37.62 15.06,50.29 19.52,19.43 49.1,27.65 75.95,21.92 16.23,-3.23 32.37,-12.64 39.46,-28.19 7.38,-16.82 9.12,-37.48 -0.26,-53.92 -7.31,-13.8 -20.8,-22.94 -34.72,-29.18zm-741.89 67.72l0 0c-72.44,14.47 -144.19,32.39 -214.72,54.27 -74.22,23.1 -147.23,50.6 -216.76,85.5 -60.89,30.97 -119.7,67.8 -168.16,116.41 46.17,-21.6 92.57,-42.72 139.43,-62.78 124.91,-53.01 251.96,-102.17 383.43,-136.35 56.25,-14.17 113.53,-25.73 171.66,-27.74 3.61,-15.94 8.11,-31.69 14.03,-46.93 -36.57,4.07 -72.8,10.67 -108.91,17.62zm518.28 53.63l0 0c0.44,16.34 -0.39,32.66 -0.57,49 15.75,-13.35 32.02,-26.15 46.79,-40.59 2.9,12.96 6.01,25.89 8.91,38.88 12.96,-12.87 25.1,-26.56 38.22,-39.3 0.98,13.08 1.99,26.18 2.86,39.27 16.48,-13.6 33.12,-27.01 49.05,-41.3 -16.89,-8.87 -32.71,-19.77 -47.13,-32.25 -29.62,17.46 -64.07,24.73 -98.13,26.29zm-103.01 93.92l0 0c15.68,-37.56 41.39,-71.5 75.58,-93.99 -21.64,-1.42 -43.24,-4.03 -64.45,-8.64 -20.67,29.32 -28.69,69.89 -11.13,102.63zm-441.63 -64.6l0 0c-63.31,14.67 -126.08,31.95 -187.75,52.53 -63.22,21.32 -125.83,45.64 -183.93,78.67 -27.86,16.37 -55.29,34.45 -77.28,58.38 126.95,-55.84 257.33,-105.08 392.19,-138.17 55.97,-13.33 112.91,-24.12 170.56,-26.27 -0.33,-15.88 0.68,-31.75 2.26,-47.54 -39.04,5.51 -77.63,13.65 -116.05,22.4zm651.71 63.98l0 0c45.34,-4.39 85.87,-33.99 107.52,-73.53 -17.03,3.04 -34.43,0.11 -50.59,-5.56 -13.12,30.01 -32.71,57.08 -56.93,79.09zm-563.78 58.76l0 0c-6.42,36.6 -5.82,75 5.65,110.56 12.18,37.6 40.05,69.03 74.29,88.3 42.44,24.14 92.11,32.91 140.5,32.34 -10.68,23.16 -27.2,42.93 -44.16,61.74 50.24,-9.05 98.86,-26.06 144.75,-48.32 -0.87,26.36 -17.37,48.53 -32.78,68.59 31.27,-7.31 62.02,-17.05 91.53,-29.8 27.79,-12.32 55.24,-27.09 76.82,-48.89 15.04,-15.27 26.6,-35.61 25.99,-57.58 0.13,-19.11 -11.98,-37.51 -29.35,-45.28 -17.78,-8.27 -38.42,-6.58 -56.85,-1.46 -47.52,14.4 -96.55,24.25 -146.1,27.75 -41.33,2.69 -83.95,1.09 -123.2,-13.21 -15.5,-7.18 -30.26,-16.37 -42.99,-27.75 -14.18,-15.93 -24.26,-35.11 -32.19,-54.79 -16.73,-42.15 -22.92,-87.68 -23.88,-132.8 -15.25,20.66 -23.34,45.62 -28.03,70.6zm345.6 -4.48l0 0c-18.95,16.28 -29.48,40.69 -31.36,65.33 21.08,-18.4 50.27,-25.99 77.79,-22.26 20.57,3.15 41.57,8.04 62.4,4.13 8.77,-1.69 18.33,-5.82 22.05,-14.58 2.4,-6.42 3.96,-14.03 0.44,-20.34 -12.53,-25.08 -41.21,-40.62 -69.05,-38.04 -22.65,2.18 -44.94,10.88 -62.27,25.76zm-106.33 132.85l0 0c25.74,6.35 51.61,-2.72 76.53,-8.66 -31.09,-28.21 -41.21,-71.87 -43.34,-112.21 -24.18,34.77 -42.74,77.83 -33.19,120.87zm207.61 -35.63l0 0c13.44,0.8 26.79,3.29 39.32,8.29 15.88,-22.88 26.51,-49.26 31.52,-76.61 -22.33,23.97 -43.96,49.21 -70.84,68.32zm-116.7 24.93l0 0c31.93,-9.46 64.06,-19.06 97.28,-22.63 2.49,-9.87 5.11,-19.7 7.63,-29.55 -11.63,8 -23.36,15.88 -35.09,23.75 -5.71,-9.88 -10.67,-20.16 -16.06,-30.2 -17.92,19.55 -35.87,39.09 -53.76,58.63z"/>
   <path class="fil1" d="M953.9 80l18.26 0c26.49,1.28 53.07,1.14 79.43,4.59 68.73,7.94 137.03,31.87 190.81,76.3 27.34,22.38 50.7,49.65 68.48,80.18 3.13,5.6 9.8,7.25 15.04,10.2 13.42,6.63 25.94,14.92 37.9,23.88 76.41,-7.74 154.88,22.79 208.32,77.49 24.73,25.46 43.43,56.8 53.57,90.88 33.4,-1.49 66.79,-2.95 100.19,-4.16 -21.12,25.33 -42.7,50.29 -64.05,75.43 24.32,21.23 49.26,41.76 73.62,62.95 9.42,9 23.2,9.92 34.4,15.82 19.21,7.31 35.43,20.25 49.35,35.13 -0.77,3.33 -1.51,6.69 -2.19,10.05 32.34,21.03 56.39,55.43 61.83,93.95l0 31.65c-4.48,33.44 -25.44,62.52 -52.46,81.83 -5.07,30.45 -21.55,58.24 -44.66,78.49 -30.24,27.23 -68.74,42.93 -107.39,54.02 -4.75,32.13 -13.92,63.83 -29.71,92.34 17.37,24.43 24.39,55.5 20.02,85.07 -5.92,41.95 -30.35,78.84 -59.93,108.12 -47.27,46.03 -108.27,75.68 -171.22,93.64 -52.87,14.86 -107.82,21.85 -162.68,22.31 -29.32,0.96 -58.69,-0.16 -88,1.01 9.97,-12.51 20.53,-24.51 30.79,-36.78 -32.04,2.61 -64.52,2.76 -96.2,-3.22 -35.32,-6.59 -70.68,-12.9 -105.95,-19.66 31.32,-17.65 62.84,-34.88 94.22,-52.37 -3.68,-5.05 -8.02,-10.14 -8.82,-16.59 -1.44,-6.52 1.21,-12.82 3.2,-18.88 -54.79,-12.64 -111.36,-15.11 -167.36,-13.26 -87.93,3.86 -175.78,20.67 -257.51,53.74 -71.43,28.98 -138.63,72 -187.89,132.02 -28.82,34.4 -47.63,75.48 -70.37,113.83l-2.45 0c-11.34,-29.87 -29.12,-57.14 -39.06,-87.63 -28.28,-89.01 -17.47,-187.16 19.47,-271.98 -40.04,27.63 -78.22,59.36 -106.92,99.02 -19.8,29.16 -38.98,58.72 -58.52,88.06 -5.32,-27.81 -10.15,-55.7 -15.31,-83.51 -6.2,-30.84 -7.07,-62.52 -5.19,-93.83 3.7,-64.51 20.29,-128.03 47.38,-186.63 -49.64,54.08 -88.5,116.66 -131.61,175.79 -1.65,-37.35 -1.88,-74.76 -3.59,-112.11l0 -65.14c3.18,-75.59 14.86,-151.11 38.86,-223 26.35,-80.62 67.66,-156.27 120.93,-222.24 63.21,-78.56 142.86,-142.99 230.09,-193.17 -12.78,-37.71 -24.1,-75.9 -35.68,-113.98 -41.6,-12.55 -83.75,-23.14 -125.67,-34.45 55.49,-21.74 110.08,-47.18 168.75,-59.31 54.17,-11.87 110.31,-13.9 165.33,-7.32 43.33,5.05 85.89,15.11 127.88,26.79 43.23,11.96 85.56,27.11 126.86,44.59 6.86,2.82 13.78,7.14 21.55,5.65 13.95,-1.49 27.96,-2.24 41.97,-3.31 0.73,-12.76 1.53,-25.51 2.58,-38.24 -17.67,-27.55 -33.94,-55.96 -50.69,-84.05zm-399.46 141.83c46.98,14.22 92.44,33.51 135.18,57.62 32.28,18.63 63.38,40.12 89.21,67.18 -94.03,27.54 -185.99,61.6 -277.12,97.44 31.89,-28.37 69.76,-48.8 107.32,-68.6 -1.53,-6.12 -3.09,-12.25 -4.6,-18.37 9.74,-10.45 19.91,-20.51 29.9,-30.72 -13.67,-0.07 -27.34,-0.07 -41.01,-0.8 9.08,-10.84 18.43,-21.46 27.14,-32.57 -13.99,0.8 -28,0.7 -41.99,1.37 -7.93,-24.21 -16.03,-48.37 -24.03,-72.55zm398.68 145.83c45.35,-31 101.05,-43.59 155.45,-43.13 63.91,0.59 126.88,15.77 186.74,37.37 41.01,14.83 80.83,32.96 119,53.99 -11.27,-20.37 -26.54,-38.2 -43.18,-54.36 50.77,2.4 101.87,20 139.8,54.54 15.58,14.03 30.03,33.05 29.07,55.06 -1.07,20.18 -15.16,36.69 -30.79,48.12 16.6,0.96 33.17,2.44 49.78,3.49 3.27,-0.16 6.31,1.1 8.71,3.36 26.15,21.9 52.44,43.64 78.56,65.56 -20.57,-2.63 -41.35,-3.02 -62.03,-2.29 -9.33,0.69 -18.77,1.35 -27.66,4.41 -2.4,40.67 5.51,81.24 17.4,119.98 7.72,1.46 15.45,2.93 23.17,4.5 3.43,-13.85 12.03,-28.64 27.55,-30.6 8.61,16.91 9.44,37.9 0.11,54.67 -10.9,19.96 -33.01,30.56 -54.58,34.38 -39.04,6.65 -78.79,-1.24 -116.51,-11.41 -20.48,-5.12 -39.95,-14.9 -61.41,-15.24 -48.9,-2.17 -98.61,11.54 -139.23,38.95 -33.76,22.67 -60.04,55.7 -76.2,92.91 -8.23,18.63 -13.95,38.24 -18.24,58.1 -9.28,-55.13 -7.98,-112.93 10.15,-166.21 23.93,-73.12 79.45,-133.99 147.95,-168.19 22.79,-12 47.31,-20.11 72.07,-26.92 -49.26,0.89 -99.09,9.55 -143.73,31.06 -21.64,10.7 -42.65,24.23 -57.39,43.73 4.78,-36.9 22.81,-73.92 55.04,-94.2 32.55,-20.84 73.58,-21.83 110.54,-14.99 29.82,6.01 61.41,10.31 91.06,1.16 19.25,-5.73 36.75,-20.02 42.29,-39.88 -19.48,9.09 -42.06,15.66 -63.25,8.57 13.44,-5.58 24.98,-16.21 29.62,-30.24 4.46,-12.55 5.01,-26.17 3.2,-39.27 -26.12,12.39 -56.84,17.26 -84.77,8.21 -14.98,-4.26 -27.43,-13.86 -40.99,-21.06 -54.92,-30.69 -116.11,-50.35 -178.83,-56.2 -51.32,-4.57 -103.93,-1.28 -153.28,14.15 24.8,10.31 49.55,20.89 73.16,33.71 -86.35,5.03 -166.69,49.62 -225.39,111.75 13,-66.45 50.38,-129.37 107.04,-167.54zm100.41 316.52c38.72,-5.46 77.67,-10.76 116.85,-10.44 -9.17,12.93 -17.44,26.47 -24.8,40.52 -73.49,-1.28 -146.45,10.98 -217.86,27.34 -68.91,16.09 -136.73,36.69 -203.58,59.79 -78.29,27.23 -155.43,57.74 -231.09,91.57 29.19,-28.43 64,-50.31 99.68,-69.58 69.97,-37.05 144.87,-63.75 220.64,-86.1 78.79,-22.86 159.04,-40.82 240.16,-53.1zm713.46 6.11c13.92,6.24 27.41,15.38 34.72,29.18 9.38,16.44 7.64,37.1 0.26,53.92 -7.09,15.55 -23.23,24.96 -39.46,28.19 -26.85,5.73 -56.43,-2.49 -75.95,-21.92 -13.12,-12.67 -20.59,-32.37 -15.06,-50.29 3.2,-12.07 13.46,-22.67 26.37,-23.45 4.46,8.69 8.19,18.15 7.04,28.14 6.91,2.4 13.86,4.64 20.78,7.04 19.29,-11.5 31.02,-31.55 41.3,-50.81zm-741.89 67.72c36.11,-6.95 72.34,-13.55 108.91,-17.62 -5.92,15.24 -10.42,30.99 -14.03,46.93 -58.13,2.01 -115.41,13.57 -171.66,27.74 -131.47,34.18 -258.52,83.34 -383.43,136.35 -46.86,20.06 -93.26,41.18 -139.43,62.78 48.46,-48.61 107.27,-85.44 168.16,-116.41 69.53,-34.9 142.54,-62.4 216.76,-85.5 70.53,-21.88 142.28,-39.8 214.72,-54.27zm-26.36 82.95c38.42,-8.75 77.01,-16.89 116.05,-22.4 -1.58,15.79 -2.59,31.66 -2.26,47.54 -57.65,2.15 -114.59,12.94 -170.56,26.27 -134.86,33.09 -265.24,82.33 -392.19,138.17 21.99,-23.93 49.42,-42.01 77.28,-58.38 58.1,-33.03 120.71,-57.35 183.93,-78.67 61.67,-20.58 124.44,-37.86 187.75,-52.53zm87.93 122.74c4.69,-24.98 12.78,-49.94 28.03,-70.6 0.96,45.12 7.15,90.65 23.88,132.8 7.93,19.68 18.01,38.86 32.19,54.79 12.73,11.38 27.49,20.57 42.99,27.75 39.25,14.3 81.87,15.9 123.2,13.21 49.55,-3.5 98.58,-13.35 146.1,-27.75 18.43,-5.12 39.07,-6.81 56.85,1.46 17.37,7.77 29.48,26.17 29.35,45.28 0.61,21.97 -10.95,42.31 -25.99,57.58 -21.58,21.8 -49.03,36.57 -76.82,48.89 -29.51,12.75 -60.26,22.49 -91.53,29.8 15.41,-20.06 31.91,-42.23 32.78,-68.59 -45.89,22.26 -94.51,39.27 -144.75,48.32 16.96,-18.81 33.48,-38.58 44.16,-61.74 -48.39,0.57 -98.06,-8.2 -140.5,-32.34 -34.24,-19.27 -62.11,-50.7 -74.29,-88.3 -11.47,-35.56 -12.07,-73.96 -5.65,-110.56zm345.6 -4.48c17.33,-14.88 39.62,-23.58 62.27,-25.76 27.84,-2.58 56.52,12.96 69.05,38.04 3.52,6.31 1.96,13.92 -0.44,20.34 -3.72,8.76 -13.28,12.89 -22.05,14.58 -20.83,3.91 -41.83,-0.98 -62.4,-4.13 -27.52,-3.73 -56.71,3.86 -77.79,22.26 1.88,-24.64 12.41,-49.05 31.36,-65.33zm104.07 -425.37l0 0c4.12,15.34 8.57,30.59 12.87,45.88 19.34,-2.91 39.02,-3.36 58.49,-1.83 -23.61,-14.95 -47.45,-29.53 -71.36,-44.05zm-533.3 -424.73c9.42,16 19.22,31.77 29.83,47.02 -1.85,24.27 -3.16,48.57 -4.94,72.87 -25.03,0.98 -50.06,2.51 -74.99,5.07 -5.35,0.96 -10.08,-2.15 -14.82,-4.04 -64.89,-28.62 -132.86,-50.06 -202.19,-64.85 -46.49,-9.62 -94.17,-14.84 -141.67,-11.8 -53.58,3 -106.22,16.3 -155.95,36.19 20.11,5.71 40.23,11.49 59.86,18.76 14.45,49.76 29.71,99.32 46.51,148.32 -116.48,62.91 -220.45,152.3 -290.4,265.49 -54.28,86.88 -87.29,186.31 -99.47,287.86 -7.09,54.88 -6.97,110.36 -5.03,165.56 20.32,-28.28 40.09,-57.03 62.54,-83.73 48.64,-58.29 105.37,-111.86 174.06,-145.67 -16.19,17.26 -32.19,34.7 -46.47,53.6 -50.01,64.76 -84.51,141.74 -97.74,222.61 -8.18,49.99 -9.35,101.69 2.03,151.31 5.74,-6.26 9.69,-13.8 14.56,-20.71 18.93,-29.03 43.23,-54.19 69.49,-76.68 43.06,-36.6 91.45,-66.52 141.78,-92.05 -51.59,72.67 -85.39,160.53 -82.63,250.56 1.28,43.45 9.06,88.16 31.07,126.22 12.43,-22.86 25.73,-45.35 41.99,-65.74 30.74,-39.27 68.96,-72.34 110.97,-99.04 66.83,-42.49 142.42,-69.71 219.65,-86.08 93.63,-19.22 190.84,-24.41 285.42,-9.12 41.24,7.45 83.45,17.76 118.38,41.97 -31.31,25.87 -67.02,45.62 -102.4,65.28 14.49,2.65 28.94,5.67 43.56,7.72 49.06,6.06 98.77,-0.36 146.7,-11.29 -12.91,16.19 -26.4,31.91 -39.65,47.82 89.07,1.3 180.79,-9.33 261.57,-49.17 36.53,-18.37 70.36,-43.31 95.41,-75.91 18.58,-24.41 32.09,-53.57 34.03,-84.5 1.74,-25.39 -6.01,-52.02 -24.29,-70.26 25.37,-33.24 35.08,-75.47 39.26,-116.34 39.36,-9.49 79.23,-22.93 110.73,-49.31 22.85,-18.79 39.47,-46.6 39.88,-76.73 18.24,-10.88 34.47,-26.01 43.63,-45.41 11.55,-23.46 11.18,-51.87 0.35,-75.5 -11.55,-26.2 -34.47,-45.9 -60.25,-57.49 1.8,-5.32 3.49,-10.67 4.86,-16.11 -16.48,-12.39 -35.88,-20.16 -55.38,-26.4 -3.15,-0.89 -5.99,-2.59 -8.41,-4.71 -33.85,-28.96 -67.95,-57.65 -101.76,-86.65 13.62,-16.16 27.41,-32.18 41.03,-48.34 -19.98,0.59 -39.96,1.73 -59.93,2.39 -4.05,-21.82 -11.61,-43.04 -22.9,-62.17 -22.84,-38.85 -58.96,-69.03 -99.8,-87.54 -39.02,-17.74 -83.27,-25.42 -125.72,-17.9 -18.03,-16.68 -40.04,-27.93 -62.01,-38.35 -20.73,-38.54 -50.24,-72.41 -86.35,-97.24 -59.32,-41.32 -132.5,-58.44 -204,-59.79z"/>
   <path class="fil2" d="M1131.98 445.23c17.89,4.78 35.15,11.52 52.82,17.06 1.62,18.17 7.02,35.72 12.48,53.05 14.99,-7.89 31.29,-15.52 41.46,-29.67 15.8,5.35 32.28,8.55 47.64,15.2 -24.73,34.51 -77.76,46.56 -113.58,22.38 -25.12,-17.12 -42.36,-47.23 -40.82,-78.02zm411.4 366.41c34.06,-1.56 68.51,-8.83 98.13,-26.29 14.42,12.48 30.24,23.38 47.13,32.25 -15.93,14.29 -32.57,27.7 -49.05,41.3 -0.87,-13.09 -1.88,-26.19 -2.86,-39.27 -13.12,12.74 -25.26,26.43 -38.22,39.3 -2.9,-12.99 -6.01,-25.92 -8.91,-38.88 -14.77,14.44 -31.04,27.24 -46.79,40.59 0.18,-16.34 1.01,-32.66 0.57,-49zm-103.01 93.92c-17.56,-32.74 -9.54,-73.31 11.13,-102.63 21.21,4.61 42.81,7.22 64.45,8.64 -34.19,22.49 -59.9,56.43 -75.58,93.99zm210.08 -0.62c24.22,-22.01 43.81,-49.08 56.93,-79.09 16.16,5.67 33.56,8.6 50.59,5.56 -21.65,39.54 -62.18,69.14 -107.52,73.53zm-324.51 187.13c-9.55,-43.04 9.01,-86.1 33.19,-120.87 2.13,40.34 12.25,84 43.34,112.21 -24.92,5.94 -50.79,15.01 -76.53,8.66zm207.61 -35.63c26.88,-19.11 48.51,-44.35 70.84,-68.32 -5.01,27.35 -15.64,53.73 -31.52,76.61 -12.53,-5 -25.88,-7.49 -39.32,-8.29zm-116.7 24.93c17.89,-19.54 35.84,-39.08 53.76,-58.63 5.39,10.04 10.35,20.32 16.06,30.2 11.73,-7.87 23.46,-15.75 35.09,-23.75 -2.52,9.85 -5.14,19.68 -7.63,29.55 -33.22,3.57 -65.35,13.17 -97.28,22.63z"/>
  </g>
 </g>
</svg>
