<?xml version="1.0" encoding="UTF-8"?>
<!DOCTYPE svg PUBLIC "-//W3C//DTD SVG 1.1//EN" "http://www.w3.org/Graphics/SVG/1.1/DTD/svg11.dtd">
<!-- Creator: CorelDRAW -->
<svg xmlns="http://www.w3.org/2000/svg" xml:space="preserve" width="2000px" height="1600px" version="1.1" style="shape-rendering:geometricPrecision; text-rendering:geometricPrecision; image-rendering:optimizeQuality; fill-rule:evenodd; clip-rule:evenodd"
viewBox="0 0 2000 1600"
 xmlns:xlink="http://www.w3.org/1999/xlink">
 <defs>
  <style type="text/css">
   <![CDATA[
    .fil1 {fill:black;fill-rule:nonzero}
    .fil2 {fill:#A8A8A8;fill-rule:nonzero}
    .fil0 {fill:#C5003B;fill-rule:nonzero}
    .fil3 {fill:#FEFEFE;fill-rule:nonzero}
   ]]>
  </style>
 </defs>
 <g id="Capa_x0020_1">
  <metadata id="CorelCorpID_0Corel-Layer"/>
  <g id="Western_x0020_Kentucky_x0020_Hilltoppers.cdr">
   <path class="fil0" d="M351.24 266.4c119.18,-30.96 241.69,-48.55 364.64,-54.74 203.92,-9.94 410.71,13.78 604.18,80.4 132.89,43.95 251.42,129.06 337.66,239.08 46.33,59.42 82.75,126.94 104.16,199.3 18.75,63.56 26.02,130.67 19.85,196.68 -27.88,-7.59 -54.14,-21.21 -76.16,-39.95 -39.33,6.66 -78.57,13.65 -117.93,20.11 -21.93,-23.48 -51.36,-38.44 -81.31,-49.07 -47.68,-16.43 -98.28,-22.21 -148.46,-23.95 -102.46,-2.44 -204.65,12.5 -304.16,36.09 -86.16,20.81 -170.69,48.74 -251.69,84.87 -80.46,36.62 -158.57,78.34 -234.05,124.35 -15.81,-18.23 -28.7,-38.72 -41.22,-59.27 -4.18,-6.93 -7.53,-14.31 -10.62,-21.75 76.31,-14.09 152.66,-35.56 219.54,-76.03 20.98,-13.2 41.79,-27.29 59.04,-45.24 -57,29.2 -118.41,48.72 -180.25,64.8 -44.02,11 -88.73,19.86 -133.99,23.56 -10.83,-20.97 -17.19,-43.8 -26.13,-65.56 30.85,0.02 61.52,-3.92 91.92,-8.69 36.96,-6.53 72.99,-18.33 106.81,-34.56 -54.95,7.63 -110.58,9.83 -165.99,7.99 -20.2,-0.38 -40.35,-2.14 -60.33,-5.11 -10.22,-25.92 -19.99,-52.26 -24.71,-79.81 14.81,3.42 29.56,7.19 44.56,9.69 22.78,3.56 45.88,4.32 68.9,3.49 -43.15,-16.12 -86.97,-31.27 -127.36,-53.72 -5.79,-3.89 -13.14,-6.69 -16.77,-12.96 -12.5,-32.6 -21.82,-66.42 -27.25,-100.92 -6.42,-40.37 -12.29,-80.82 -19.83,-120.98 -6.4,-36.17 -18.74,-71.03 -34.1,-104.32 -16.23,-33.91 -35.3,-68.24 -65.46,-91.76 40.77,-17.89 83.56,-30.58 126.51,-42.02zm1316.42 736.37c9.94,-3.41 20.03,-6.38 29.95,-9.92 8.49,8.48 19.66,13.14 30.7,17.3 -4.94,9.55 -7.06,21.23 -0.89,30.79 -22.72,10.3 -36.21,40.3 -24.66,63.21 -19.84,8.84 -34.82,30.6 -31.03,52.77 -28.33,6.91 -42.93,41.79 -31.53,67.7 2.41,5.26 6.91,9.07 11,13.04 -24.88,28.52 -53.91,53.23 -84.64,75.24 -15.19,10.28 -29.75,21.6 -46.09,30.07 -35.31,19.12 -74.34,30.56 -113.86,36.9 -44.14,6.91 -89.18,8.12 -133.61,3.52 -11.28,-1.13 -22.44,-2.99 -33.47,-5.56 -11.18,-18.41 -20.68,-37.78 -31.99,-56.11 49.69,13.48 101.8,15.6 152.87,10.94 31.55,-3.54 63.24,-12.64 89.64,-30.73 -42.28,11.72 -86.63,13.65 -130.24,11.93 -48.34,-2.12 -96.78,-8.92 -142.77,-24.33 -10.02,-19.24 -18.5,-39.22 -26.99,-59.16 47.91,16.29 97.84,26.68 148.31,30.51 39.42,2.65 79.72,3.05 118.12,-7.5 30.84,-8.41 60.42,-22.36 85.4,-42.43 -61.88,22.76 -128.9,34.86 -194.79,26.71 -65.92,-6.74 -132.23,-20.01 -191.93,-49.76 -3.47,-2.42 -4.36,-7.08 -6.29,-10.62 -16.19,-38.33 -26.04,-79.02 -34.27,-119.71 44.04,51.88 107.34,84.94 173.14,99.77 45.13,10.24 91.9,11.4 137.91,7.71 23.56,-2.14 47.13,-5.89 69.76,-12.99 18.8,-6.71 37.47,-13.85 55.71,-21.93 2.48,-1.02 4.96,-2.2 7.69,-2.33 35.88,-0.49 72.82,-11.97 99.41,-36.79 25.18,-23.35 41.52,-55.07 49.44,-88.24zm-843.73 -637.92l0 0c-93.62,5.24 -187.39,15.94 -278.36,39.44 13.77,47.64 27.71,95.21 41.45,142.85 0.34,1.97 1.29,3.56 2.83,4.79 6.26,5.19 13.12,9.64 19.16,15.09 2.61,1.63 3.08,4.7 3.5,7.5 11.29,76.29 22.31,152.62 31.81,229.16 -0.04,2.67 2.14,4.3 3.81,6.02 17.99,16.72 36.26,33.16 55.04,49.01 93.49,-55.94 195.72,-98.56 303.11,-118.58 88.56,-16.83 179.39,-19.31 269.15,-12.76 10.83,0.78 22.21,-0.66 31.62,-6.4 8.03,-4.56 13.54,-12.14 19.77,-18.73 15.09,-15.98 29.27,-32.87 45.63,-47.6 17.06,-16.12 22.69,-40.41 23.14,-63.11 0.08,-25.51 0.02,-51.02 0,-76.54 4.57,-5.23 10.78,-9.3 14.11,-15.47 6.68,-31.45 13.01,-62.98 19.43,-94.47 -71.39,-14.17 -143.65,-23.58 -216.06,-30.6 -129.27,-12.16 -259.42,-16.48 -389.14,-9.6z"/>
   <path class="fil1" d="M270.57 255.89c197.01,-60.91 404.54,-88.45 610.58,-79.17 132.42,6.16 264.21,28.44 390.81,67.94 71.79,21.99 142.02,50.07 206.82,88.28 71.74,41.94 137.45,94.81 191.38,158.17 46.81,54.88 84.49,117.74 109.35,185.53 30.26,82.31 41.79,171.33 34.54,258.68 6.38,1.44 12.82,2.76 19.26,4.01 -2.6,12.14 -7.41,23.9 -14.72,33.99 18.67,-0.32 38.1,9.74 44.77,27.88 8.67,24.35 -0.7,54.53 -22.46,68.92 4.39,25.83 -7.99,56.3 -34.14,65.14 3.26,18.61 -1.55,39.39 -15.53,52.66 -10.24,10.09 -25.2,14.75 -39.35,12.25 -0.22,19.75 -9.73,40.79 -28.53,49.16 -15.43,7.74 -32.91,3.37 -49.08,1.15 -45.88,55.05 -103.07,101.1 -168.3,131.19 -85.21,39.5 -182.11,52.43 -274.91,39.06 -7.76,-1.47 -15.85,-2.04 -23.25,-4.82 -20.57,-33.37 -37.23,-69.06 -54.69,-104.06 -5.91,-2.97 -12.17,-5.07 -18.2,-7.68 -12.72,-28.37 -24.31,-57.21 -34.23,-86.69 -8.01,-3.13 -16,-6.31 -23.95,-9.6 -12.07,-39.54 -23.83,-79.36 -31,-120.13 -5.57,-36.79 -8.79,-73.94 -10.11,-111.13 28.15,32.19 59.64,61.6 94.43,86.51 31.56,22.75 67.28,39.32 104.45,50.6 62.5,-25.26 124.84,-50.92 187.31,-76.23 4.49,-1.97 9.56,-3.2 13.14,-6.76 38.78,-38.2 77.92,-76.07 116.43,-114.53 -28.15,-20.41 -62.2,-30.41 -96,-36.62 -54.04,-9.58 -109.28,-9.88 -163.91,-6.64 -102.44,6.64 -203.74,26.71 -302.17,55.46 -44.82,13.25 -89.11,28.36 -132.45,45.86 -66.01,27.68 -128.05,63.81 -189.11,100.95 -35.92,22.17 -71.47,44.99 -106.31,68.88 -31.72,-33.42 -60.06,-70.3 -81.91,-110.96 -4.91,-8.8 -9.66,-17.67 -14.26,-26.62 -6.8,-1.54 -13.6,-2.96 -20.43,-4.36 -10.02,-17.8 -19.77,-35.84 -27.65,-54.72 -6.99,-17.29 -13.37,-34.84 -20.03,-52.28 -5.27,-1.93 -10.55,-3.87 -15.87,-5.76 -15.34,-39.54 -24.88,-80.95 -34.03,-122.27 -4.88,-1.21 -9.75,-2.38 -14.62,-3.61 -7.44,-25.17 -13.95,-50.64 -18.84,-76.43 -7.86,-43.36 -13.16,-87.12 -21.19,-130.46 -6.51,-35.15 -15.83,-69.76 -27.02,-103.71 -6.44,-19.22 -12.4,-38.78 -22.53,-56.45 -21.25,-38.04 -50.22,-71.12 -81.25,-101.46 35.54,-14.94 71.99,-27.59 108.76,-39.12zm553.36 108.96c129.72,-6.88 259.87,-2.56 389.14,9.6 72.41,7.02 144.67,16.43 216.06,30.6 -6.42,31.49 -12.75,63.02 -19.43,94.47 -3.33,6.17 -9.54,10.24 -14.11,15.47 0.02,25.52 0.08,51.03 0,76.54 -0.45,22.7 -6.08,46.99 -23.14,63.11 -16.36,14.73 -30.54,31.62 -45.63,47.6 -6.23,6.59 -11.74,14.17 -19.77,18.73 -9.41,5.74 -20.79,7.18 -31.62,6.4 -89.76,-6.55 -180.59,-4.07 -269.15,12.76 -107.39,20.02 -209.62,62.64 -303.11,118.58 -18.78,-15.85 -37.05,-32.29 -55.04,-49.01 -1.67,-1.72 -3.85,-3.35 -3.81,-6.02 -9.5,-76.54 -20.52,-152.87 -31.81,-229.16 -0.42,-2.8 -0.89,-5.87 -3.5,-7.5 -6.04,-5.45 -12.9,-9.9 -19.16,-15.09 -1.54,-1.23 -2.49,-2.82 -2.83,-4.79 -13.74,-47.64 -27.68,-95.21 -41.45,-142.85 90.97,-23.5 184.74,-34.2 278.36,-39.44zm15.16 24.39l0 0c3.09,21.89 5.87,43.83 8.92,65.72 4.7,-0.19 9.45,-0.49 14.17,-0.83 -5,42.68 -10.02,85.36 -15.34,128 -8.88,-63.96 -16.55,-128.08 -25.22,-192.06 -27.18,2.1 -54.44,3.84 -81.52,7.29 -9.98,71.12 -17.71,142.53 -27,213.76 -4.17,-46.09 -9.62,-92.08 -15.28,-138.02 5.07,-1 10.16,-2.04 15.24,-2.99 1.93,-23.37 4.03,-46.75 5.68,-70.16 -46.13,6.12 -92.01,14.11 -137.57,23.62 9.26,33.74 18.86,67.35 28.12,101.09 7.92,-2.1 15.89,-4.14 23.8,-6.36 11.31,77.94 20.13,156.24 29.51,234.44 32,-14.79 64.91,-27.47 98.12,-39.27 6.1,-51.32 11.91,-102.67 17.93,-154 0.25,-1.99 0.51,-4.07 1.93,-5.61 0.57,6.21 0.48,12.48 1.37,18.69 5.24,42.89 10.22,85.82 16.19,128.63 35.33,-11 71.23,-20.09 107.23,-28.72 7.78,-73.95 16.09,-147.87 23.65,-221.85 5.72,-0.19 11.42,-0.57 17.15,-0.67 2.66,-21.53 5.38,-43.04 8.07,-64.57 -38.4,0.52 -76.82,1.42 -115.15,3.87zm122.59 -3.41l0 0c-0.32,21.7 4.36,43.13 3.79,64.83 4.92,-0.15 9.85,-0.47 14.79,-0.75 0.68,48.85 0.55,97.7 0.53,146.54 -4.92,0.66 -9.83,1.32 -14.73,1.97 -2.71,22.21 -5.1,44.46 -7.75,66.67 29.62,-5.13 59.35,-9.58 89.21,-13.24 0.04,-26.15 -0.02,-52.33 0.04,-78.48 19.5,23.51 36.6,48.91 56.56,72.05 26.03,-1.9 52.13,-2.43 78.18,-3.81 -3.26,-18.9 -6.89,-37.74 -10.43,-56.58 -7.46,0.13 -14.87,0.66 -22.31,0.74 -17.72,-21.04 -35.24,-42.25 -53.53,-62.79 16.49,-23.86 34.67,-46.49 51.87,-69.8 6.91,0.57 13.86,0.63 20.81,0.55 1.93,-19.37 3.69,-38.76 5.66,-58.13 -23.69,-2.22 -47.51,-2.88 -71.2,-4.85 -18.73,29.28 -37.45,58.59 -55.69,88.2 0.13,-30.26 0,-60.55 0.06,-90.81 -28.6,-1.23 -57.23,-1.54 -85.86,-2.31zm220.13 10.03l0 0c1.4,19.81 3.33,39.6 4.68,59.42 5.96,0.5 11.91,0.97 17.89,1.22 -0.06,44.99 0.02,89.98 -0.04,134.99 -0.17,12.48 1.04,26.11 9.49,36.03 9.11,11.25 24.29,14.58 38.08,14.79 22.25,0.02 44.5,0.57 66.71,1.8 13.56,1.12 28.93,-0.38 38.99,-10.6 11.57,-10.55 13.95,-27.06 14.65,-41.91 0.1,-35.03 -0.02,-70.08 0.06,-105.13 6.15,0.74 12.33,1.38 18.52,2.1 4.58,-22.51 9.64,-44.93 14.07,-67.48 -34.01,-4 -67.9,-9.19 -101.99,-12.56 -0.07,59.82 0.02,119.64 -0.04,179.44 -9.79,-0.46 -19.37,-2.88 -29.16,-3.05 0.1,-59.93 -0.02,-119.83 0.06,-179.74 -30.64,-3.35 -61.28,-6.44 -91.97,-9.32zm-830.57 -129.46l0 0c-42.95,11.44 -85.74,24.13 -126.51,42.02 30.16,23.52 49.23,57.85 65.46,91.76 15.36,33.29 27.7,68.15 34.1,104.32 7.54,40.16 13.41,80.61 19.83,120.98 5.43,34.5 14.75,68.32 27.25,100.92 3.63,6.27 10.98,9.07 16.77,12.96 40.39,22.45 84.21,37.6 127.36,53.72 -23.02,0.83 -46.12,0.07 -68.9,-3.49 -15,-2.5 -29.75,-6.27 -44.56,-9.69 4.72,27.55 14.49,53.89 24.71,79.81 19.98,2.97 40.13,4.73 60.33,5.11 55.41,1.84 111.04,-0.36 165.99,-7.99 -33.82,16.23 -69.85,28.03 -106.81,34.56 -30.4,4.77 -61.07,8.71 -91.92,8.69 8.94,21.76 15.3,44.59 26.13,65.56 45.26,-3.7 89.97,-12.56 133.99,-23.56 61.84,-16.08 123.25,-35.6 180.25,-64.8 -17.25,17.95 -38.06,32.04 -59.04,45.24 -66.88,40.47 -143.23,61.94 -219.54,76.03 3.09,7.44 6.44,14.82 10.62,21.75 12.52,20.55 25.41,41.04 41.22,59.27 75.48,-46.01 153.59,-87.73 234.05,-124.35 81,-36.13 165.53,-64.06 251.69,-84.87 99.51,-23.59 201.7,-38.53 304.16,-36.09 50.18,1.74 100.78,7.52 148.46,23.95 29.95,10.63 59.38,25.59 81.31,49.07 39.36,-6.46 78.6,-13.45 117.93,-20.11 22.02,18.74 48.28,32.36 76.16,39.95 6.17,-66.01 -1.1,-133.12 -19.85,-196.68 -21.41,-72.36 -57.83,-139.88 -104.16,-199.3 -86.24,-110.02 -204.77,-195.13 -337.66,-239.08 -193.47,-66.62 -400.26,-90.34 -604.18,-80.4 -122.95,6.19 -245.46,23.78 -364.64,54.74zm1229.98 671.61l0 0c-7.56,0.76 -11.86,7.63 -17.18,12.17 -38.76,36.04 -76.91,72.81 -116,108.43 -54.36,24.14 -109.39,46.88 -163.92,70.67 12.38,2.76 25.09,3.5 37.72,4.35 24.71,1.33 49.72,2.56 74.23,-1.61 3.84,-0.32 6.89,-2.76 9.8,-5.05 18.47,-14.83 37.16,-29.37 55.69,-44.14 2.9,-3.01 7.26,-2.18 11.04,-2.52 26.97,-0.97 55.16,-5.34 77.89,-20.85 18.89,-13.25 36.56,-29.12 48.17,-49.29 7.91,-13.61 12.36,-28.89 15.24,-44.27 27.95,-6.82 55.86,-13.75 83.83,-20.47 14.33,15.74 35.94,22.82 56.73,23.8 14.03,0.17 29.77,-3.88 38.31,-15.9 -33.73,-3.39 -64.14,-20.38 -91.71,-38.88 -40.05,7.22 -79.85,15.89 -119.84,23.56zm86.44 64.76l0 0c-7.92,33.17 -24.26,64.89 -49.44,88.24 -26.59,24.82 -63.53,36.3 -99.41,36.79 -2.73,0.13 -5.21,1.31 -7.69,2.33 -18.24,8.08 -36.91,15.22 -55.71,21.93 -22.63,7.1 -46.2,10.85 -69.76,12.99 -46.01,3.69 -92.78,2.53 -137.91,-7.71 -65.8,-14.83 -129.1,-47.89 -173.14,-99.77 8.23,40.69 18.08,81.38 34.27,119.71 1.93,3.54 2.82,8.2 6.29,10.62 59.7,29.75 126.01,43.02 191.93,49.76 65.89,8.15 132.91,-3.95 194.79,-26.71 -24.98,20.07 -54.56,34.02 -85.4,42.43 -38.4,10.55 -78.7,10.15 -118.12,7.5 -50.47,-3.83 -100.4,-14.22 -148.31,-30.51 8.49,19.94 16.97,39.92 26.99,59.16 45.99,15.41 94.43,22.21 142.77,24.33 43.61,1.72 87.96,-0.21 130.24,-11.93 -26.4,18.09 -58.09,27.19 -89.64,30.73 -51.07,4.66 -103.18,2.54 -152.87,-10.94 11.31,18.33 20.81,37.7 31.99,56.11 11.03,2.57 22.19,4.43 33.47,5.56 44.43,4.6 89.47,3.39 133.61,-3.52 39.52,-6.34 78.55,-17.78 113.86,-36.9 16.34,-8.47 30.9,-19.79 46.09,-30.07 30.73,-22.01 59.76,-46.72 84.64,-75.24 -4.09,-3.97 -8.59,-7.78 -11,-13.04 -11.4,-25.91 3.2,-60.79 31.53,-67.7 -3.79,-22.17 11.19,-43.93 31.03,-52.77 -11.55,-22.91 1.94,-52.91 24.66,-63.21 -6.17,-9.56 -4.05,-21.24 0.89,-30.79 -11.04,-4.16 -22.21,-8.82 -30.7,-17.3 -9.92,3.54 -20.01,6.51 -29.95,9.92zm108.5 -3.33l0 0c-5.45,1.57 -10.76,4.22 -14.41,8.65 -7.31,8.8 -5.49,23.18 3.6,30.07 8.46,8.08 20.85,6.13 31.49,6.97 8.35,0.09 16.83,1.93 25.12,0.36 14.07,-4.28 19.7,-21.27 17.14,-34.58 -1.84,-8.5 -10.81,-13.08 -18.99,-12.46 -14.62,0.34 -29.56,-2.52 -43.95,0.99zm-33.65 63.9l0 0c-9.2,3.26 -16.7,11.76 -16.87,21.82 -0.7,12.06 10.68,21.47 22.02,22.36 16.23,1.4 32.55,2.06 48.82,2.35 14.29,-1.65 19.37,-18.35 18.02,-30.66 -0.64,-8.37 -7.82,-15.17 -16.02,-16 -11.96,-1.1 -24.01,-0.81 -35.92,-2.33 -6.76,-1.06 -13.71,-0.02 -20.05,2.46zm-21.83 62.81l0 0c-6.16,1.23 -12.35,3.66 -16.7,8.35 -7.82,8.54 -6.84,23.33 2.08,30.74 8.52,7.87 20.85,5.83 31.43,6.93 9.05,0.11 18.14,2.4 27.14,1.19 13.08,-4.47 18.42,-20.55 15.41,-33.14 -1.95,-7.59 -9.69,-12 -17.1,-12.42 -14.05,-1.08 -28.21,-3.62 -42.26,-1.65zm-39.58 57.98l0 0c-16.36,1.18 -24.56,24.43 -12.84,35.75 6.97,8.56 18.83,6.92 28.58,8.94 9.94,2.39 21.53,-2.4 25.18,-12.33 3.73,-8.5 4.85,-21.45 -4.54,-26.64 -11.31,-5 -24.03,-8.14 -36.38,-5.72z"/>
   <path class="fil2" d="M594.92 151.08c252.01,-28.55 511.49,-4.48 750.64,81.84 132.46,47.72 255.69,125.6 348.17,232.57 52.7,60.82 94.53,131.24 121.3,207.19 26.59,74.5 37.4,154.04 35.81,232.95 7.12,3.26 15.7,3.1 23.42,4.98 -4.05,14.35 -8.29,28.63 -12.17,43.04 18.52,9.64 33.4,27.57 36.85,48.49 2.65,15.28 -0.1,30.83 -3.56,45.77 -3.01,12.71 -9,25.24 -19.75,33.14 3.73,28.38 -12.97,55.23 -34.73,72.03 3.16,22.61 -7.33,45.35 -23.58,60.71 -9.71,9.99 -22.98,15.11 -36.11,18.8 -7.02,18.82 -19.99,35.3 -37.47,45.39 2.12,16.76 -2.69,34.56 -14.62,46.81 -13.14,14.58 -34.44,20.98 -53.49,16.41 -10,-1.89 -18.67,-7.57 -26.45,-13.86 -53.76,49.48 -118.33,87.28 -188.15,108.98 -51.05,16.07 -104.6,23.89 -158.09,24.03 -39.44,-0.1 -79.15,-3.43 -117.31,-13.81 -21.22,-34.27 -39.36,-70.29 -57.56,-106.19 -5.15,-5.13 -13.24,-6.17 -19.58,-9.6 -12.08,-28.57 -24.73,-56.94 -35.24,-86.1 -6.95,-5.04 -16.11,-6.13 -23.52,-10.45 -2.33,-2.2 -2.86,-5.62 -4.07,-8.43 -15.73,-47.51 -29.57,-95.91 -36.03,-145.65 -4.83,-40.03 -7.97,-80.48 -6.52,-120.81 -44.17,12.86 -87.31,28.99 -130.1,45.79 -66.22,27.47 -128.25,63.85 -189.36,101.08 -43,26.54 -85.36,54.15 -126.73,83.18 -25.28,-25.11 -49.12,-51.75 -70.29,-80.44 -16.97,-22.55 -31.11,-47.05 -44.46,-71.86 -6.48,-1.4 -12.99,-2.76 -19.49,-4.05 -10.85,-18.46 -20.83,-37.4 -30.33,-56.58 -8.79,-17.46 -14.96,-36.07 -22.14,-54.21 -5.26,-2.01 -10.53,-3.92 -15.83,-5.72 -15.05,-39.16 -27.38,-79.38 -36.11,-120.43 -5.32,-1.52 -10.7,-2.79 -16.13,-3.9 -11.29,-42.95 -21.1,-86.39 -27.78,-130.32 -5.62,-34.76 -10.21,-69.66 -16.89,-104.22 -8.09,-41.94 -20.45,-82.96 -34.9,-123.14 -12.4,-31.68 -33.67,-58.87 -55.84,-84.3 -20.28,-23.5 -43.97,-43.66 -66.73,-64.63 13.01,-6.64 26.7,-11.81 40.14,-17.51 145.47,-58.93 298.6,-99.98 454.78,-116.97zm986.3 786.93c39.99,-7.67 79.79,-16.34 119.84,-23.56 27.57,18.5 57.98,35.49 91.71,38.88 -8.54,12.02 -24.28,16.07 -38.31,15.9 -20.79,-0.98 -42.4,-8.06 -56.73,-23.8 -27.97,6.72 -55.88,13.65 -83.83,20.47 -2.88,15.38 -7.33,30.66 -15.24,44.27 -11.61,20.17 -29.28,36.04 -48.17,49.29 -22.73,15.51 -50.92,19.88 -77.89,20.85 -3.78,0.34 -8.14,-0.49 -11.04,2.52 -18.53,14.77 -37.22,29.31 -55.69,44.14 -2.91,2.29 -5.96,4.73 -9.8,5.05 -24.51,4.17 -49.52,2.94 -74.23,1.61 -12.63,-0.85 -25.34,-1.59 -37.72,-4.35 54.53,-23.79 109.56,-46.53 163.92,-70.67 39.09,-35.62 77.24,-72.39 116,-108.43 5.32,-4.54 9.62,-11.41 17.18,-12.17zm194.94 61.43c14.39,-3.51 29.33,-0.65 43.95,-0.99 8.18,-0.62 17.15,3.96 18.99,12.46 2.56,13.31 -3.07,30.3 -17.14,34.58 -8.29,1.57 -16.77,-0.27 -25.12,-0.36 -10.64,-0.84 -23.03,1.11 -31.49,-6.97 -9.09,-6.89 -10.91,-21.27 -3.6,-30.07 3.65,-4.43 8.96,-7.08 14.41,-8.65zm-33.65 63.9c6.34,-2.48 13.29,-3.52 20.05,-2.46 11.91,1.52 23.96,1.23 35.92,2.33 8.2,0.83 15.38,7.63 16.02,16 1.35,12.31 -3.73,29.01 -18.02,30.66 -16.27,-0.29 -32.59,-0.95 -48.82,-2.35 -11.34,-0.89 -22.72,-10.3 -22.02,-22.36 0.17,-10.06 7.67,-18.56 16.87,-21.82zm-21.83 62.81c14.05,-1.97 28.21,0.57 42.26,1.65 7.41,0.42 15.15,4.83 17.1,12.42 3.01,12.59 -2.33,28.67 -15.41,33.14 -9,1.21 -18.09,-1.08 -27.14,-1.19 -10.58,-1.1 -22.91,0.94 -31.43,-6.93 -8.92,-7.41 -9.9,-22.2 -2.08,-30.74 4.35,-4.69 10.54,-7.12 16.7,-8.35zm-39.58 57.98c12.35,-2.42 25.07,0.72 36.38,5.72 9.39,5.19 8.27,18.14 4.54,26.64 -3.65,9.93 -15.24,14.72 -25.18,12.33 -9.75,-2.02 -21.61,-0.38 -28.58,-8.94 -11.72,-11.32 -3.52,-34.57 12.84,-35.75zm-1410.53 -928.24c-36.77,11.53 -73.22,24.18 -108.76,39.12 31.03,30.34 60,63.42 81.25,101.46 10.13,17.67 16.09,37.23 22.53,56.45 11.19,33.95 20.51,68.56 27.02,103.71 8.03,43.34 13.33,87.1 21.19,130.46 4.89,25.79 11.4,51.26 18.84,76.43 4.87,1.23 9.74,2.4 14.62,3.61 9.15,41.32 18.69,82.73 34.03,122.27 5.32,1.89 10.6,3.83 15.87,5.76 6.66,17.44 13.04,34.99 20.03,52.28 7.88,18.88 17.63,36.92 27.65,54.72 6.83,1.4 13.63,2.82 20.43,4.36 4.6,8.95 9.35,17.82 14.26,26.62 21.85,40.66 50.19,77.54 81.91,110.96 34.84,-23.89 70.39,-46.71 106.31,-68.88 61.06,-37.14 123.1,-73.27 189.11,-100.95 43.34,-17.5 87.63,-32.61 132.45,-45.86 98.43,-28.75 199.73,-48.82 302.17,-55.46 54.63,-3.24 109.87,-2.94 163.91,6.64 33.8,6.21 67.85,16.21 96,36.62 -38.51,38.46 -77.65,76.33 -116.43,114.53 -3.58,3.56 -8.65,4.79 -13.14,6.76 -62.47,25.31 -124.81,50.97 -187.31,76.23 -37.17,-11.28 -72.89,-27.85 -104.45,-50.6 -34.79,-24.91 -66.28,-54.32 -94.43,-86.51 1.32,37.19 4.54,74.34 10.11,111.13 7.17,40.77 18.93,80.59 31,120.13 7.95,3.29 15.94,6.47 23.95,9.6 9.92,29.48 21.51,58.32 34.23,86.69 6.03,2.61 12.29,4.71 18.2,7.68 17.46,35 34.12,70.69 54.69,104.06 7.4,2.78 15.49,3.35 23.25,4.82 92.8,13.37 189.7,0.44 274.91,-39.06 65.23,-30.09 122.42,-76.14 168.3,-131.19 16.17,2.22 33.65,6.59 49.08,-1.15 18.8,-8.37 28.31,-29.41 28.53,-49.16 14.15,2.5 29.11,-2.16 39.35,-12.25 13.98,-13.27 18.79,-34.05 15.53,-52.66 26.15,-8.84 38.53,-39.31 34.14,-65.14 21.76,-14.39 31.13,-44.57 22.46,-68.92 -6.67,-18.14 -26.1,-28.2 -44.77,-27.88 7.31,-10.09 12.12,-21.85 14.72,-33.99 -6.44,-1.25 -12.88,-2.57 -19.26,-4.01 7.25,-87.35 -4.28,-176.37 -34.54,-258.68 -24.86,-67.79 -62.54,-130.65 -109.35,-185.53 -53.93,-63.36 -119.64,-116.23 -191.38,-158.17 -64.8,-38.21 -135.03,-66.29 -206.82,-88.28 -126.6,-39.5 -258.39,-61.78 -390.81,-67.94 -206.04,-9.28 -413.57,18.26 -610.58,79.17zm779.96 690.87c6.27,7.4 13.33,14.07 20.45,20.67 20.85,19.49 41.77,39.09 64.93,55.88 28.55,21.14 60.4,37.53 93.64,49.92 3.06,0.83 6.4,2.84 9.58,1.19 56.69,-22.99 113.29,-46.22 170.02,-69.17 6.78,-2.63 11.08,-8.83 16.21,-13.65 21.96,-21.74 44.12,-43.2 66.12,-64.88 -11.59,-4.58 -23.78,-7.29 -35.9,-9.88 -47.45,-9.41 -96.06,-10.81 -144.27,-9.39 -88.05,3.33 -175.44,17.81 -260.78,39.31z"/>
   <path class="fil3" d="M839.09 389.24c38.33,-2.45 76.75,-3.35 115.15,-3.87 -2.69,21.53 -5.41,43.04 -8.07,64.57 -5.73,0.1 -11.43,0.48 -17.15,0.67 -7.56,73.98 -15.87,147.9 -23.65,221.85 -36,8.63 -71.9,17.72 -107.23,28.72 -5.97,-42.81 -10.95,-85.74 -16.19,-128.63 -0.89,-6.21 -0.8,-12.48 -1.37,-18.69 -1.42,1.54 -1.68,3.62 -1.93,5.61 -6.02,51.33 -11.83,102.68 -17.93,154 -33.21,11.8 -66.12,24.48 -98.12,39.27 -9.38,-78.2 -18.2,-156.5 -29.51,-234.44 -7.91,2.22 -15.88,4.26 -23.8,6.36 -9.26,-33.74 -18.86,-67.35 -28.12,-101.09 45.56,-9.51 91.44,-17.5 137.57,-23.62 -1.65,23.41 -3.75,46.79 -5.68,70.16 -5.08,0.95 -10.17,1.99 -15.24,2.99 5.66,45.94 11.11,91.93 15.28,138.02 9.29,-71.23 17.02,-142.64 27,-213.76 27.08,-3.45 54.34,-5.19 81.52,-7.29 8.67,63.98 16.34,128.1 25.22,192.06 5.32,-42.64 10.34,-85.32 15.34,-128 -4.72,0.34 -9.47,0.64 -14.17,0.83 -3.05,-21.89 -5.83,-43.83 -8.92,-65.72zm122.59 -3.41c28.63,0.77 57.26,1.08 85.86,2.31 -0.06,30.26 0.07,60.55 -0.06,90.81 18.24,-29.61 36.96,-58.92 55.69,-88.2 23.69,1.97 47.51,2.63 71.2,4.85 -1.97,19.37 -3.73,38.76 -5.66,58.13 -6.95,0.08 -13.9,0.02 -20.81,-0.55 -17.2,23.31 -35.38,45.94 -51.87,69.8 18.29,20.54 35.81,41.75 53.53,62.79 7.44,-0.08 14.85,-0.61 22.31,-0.74 3.54,18.84 7.17,37.68 10.43,56.58 -26.05,1.38 -52.15,1.91 -78.18,3.81 -19.96,-23.14 -37.06,-48.54 -56.56,-72.05 -0.06,26.15 0,52.33 -0.04,78.48 -29.86,3.66 -59.59,8.11 -89.21,13.24 2.65,-22.21 5.04,-44.46 7.75,-66.67 4.9,-0.65 9.81,-1.31 14.73,-1.97 0.02,-48.84 0.15,-97.69 -0.53,-146.54 -4.94,0.28 -9.87,0.6 -14.79,0.75 0.57,-21.7 -4.11,-43.13 -3.79,-64.83zm220.13 10.03c30.69,2.88 61.33,5.97 91.97,9.32 -0.08,59.91 0.04,119.81 -0.06,179.74 9.79,0.17 19.37,2.59 29.16,3.05 0.06,-59.8 -0.03,-119.62 0.04,-179.44 34.09,3.37 67.98,8.56 101.99,12.56 -4.43,22.55 -9.49,44.97 -14.07,67.48 -6.19,-0.72 -12.37,-1.36 -18.52,-2.1 -0.08,35.05 0.04,70.1 -0.06,105.13 -0.7,14.85 -3.08,31.36 -14.65,41.91 -10.06,10.22 -25.43,11.72 -38.99,10.6 -22.21,-1.23 -44.46,-1.78 -66.71,-1.8 -13.79,-0.21 -28.97,-3.54 -38.08,-14.79 -8.45,-9.92 -9.66,-23.55 -9.49,-36.03 0.06,-45.01 -0.02,-90 0.04,-134.99 -5.98,-0.25 -11.93,-0.72 -17.89,-1.22 -1.35,-19.82 -3.28,-39.61 -4.68,-59.42z"/>
  </g>
 </g>
</svg>
