<?xml version="1.0" encoding="UTF-8"?>
<!DOCTYPE svg PUBLIC "-//W3C//DTD SVG 1.1//EN" "http://www.w3.org/Graphics/SVG/1.1/DTD/svg11.dtd">
<!-- Creator: CorelDRAW -->
<svg xmlns="http://www.w3.org/2000/svg" xml:space="preserve" width="2000px" height="1600px" version="1.1" style="shape-rendering:geometricPrecision; text-rendering:geometricPrecision; image-rendering:optimizeQuality; fill-rule:evenodd; clip-rule:evenodd"
viewBox="0 0 2000 1600"
 xmlns:xlink="http://www.w3.org/1999/xlink">
 <defs>
  <style type="text/css">
   <![CDATA[
    .fil2 {fill:#0F5540;fill-rule:nonzero}
    .fil0 {fill:#BE955C;fill-rule:nonzero}
    .fil3 {fill:#D2D2D3;fill-rule:nonzero}
    .fil1 {fill:#F7B11B;fill-rule:nonzero}
    .fil4 {fill:#FEFEFE;fill-rule:nonzero}
   ]]>
  </style>
 </defs>
 <g id="Capa_x0020_1">
  <metadata id="CorelCorpID_0Corel-Layer"/>
  <g id="William_x0020_and_x0020_Mary_x0020_Tribe.cdr">
   <path class="fil0" d="M1517.12 497.43c9.62,-7.56 22.69,-7.99 34.35,-6.74 23.85,3.25 45.54,15.76 63.2,31.72 14.83,13.27 26.33,29.76 36.12,46.98 1.58,-6.68 1.98,-13.6 0.99,-20.4 13.96,-4.44 29.15,-1.3 42.95,-6.42 8.5,-2.91 15.94,-8.24 22.17,-14.63 1.33,8.35 3.66,17.97 -1.34,25.6 -3.99,6.04 -12.21,4.28 -18.3,3.95 6.93,10.63 19.03,17.65 31.84,17.47 18.38,-0.22 35.06,-9.35 50.26,-18.85 -2.88,14.84 -8.51,29.62 -18.81,40.92 -6.91,7.56 -17.05,12.63 -27.45,11.68 -12.5,-1.05 -23.68,-7.76 -33.25,-15.44 -2.02,-1.69 -4.5,-2.67 -6.89,-3.66 -2.71,2.48 -5.53,5.45 -5.12,9.46 -0.36,11.68 8.65,20.83 18.07,26.37 -9.76,5.78 -21.78,7.91 -32.71,4.42 -8.94,-2.94 -17.99,-7.78 -23.01,-16.06 -3.72,-5.88 -5.69,-12.62 -7.62,-19.26 5.93,5.2 13.04,8.79 20.32,11.73 -16.7,-30.03 -37.47,-58.65 -65.05,-79.58 -12.71,-9.33 -27.28,-17.48 -43.33,-18.5 -9,-0.53 -19.24,2.92 -23.62,11.35 -4.51,8.03 -2.78,17.84 0.63,25.96 5.58,13.8 16.29,24.43 25.63,35.71 41.05,48.63 79.14,99.86 112.13,154.33 27.61,45.68 51.67,93.69 69.57,144.05 20.9,58.8 33.66,121.45 29.51,184.08 -2.95,44.52 -15.23,89.54 -41.66,126.04 -12.42,17.16 -27.91,32.22 -45.96,43.37 -25.36,15.94 -55.8,23.52 -85.68,21.5 -36.71,-2.19 -71.86,-17.72 -100.38,-40.54 -2.22,-5.89 -2.2,-12.44 -3.6,-18.58 -5.37,-31.85 -10.97,-63.63 -16.13,-95.5 16.83,21.65 35.79,41.96 58.33,57.77 20.74,14.66 44.67,25.49 70.06,28.53 25,3.31 51.18,-1.78 72.72,-15 17.18,-10.25 31.33,-25.09 41.95,-41.94 16,-25.16 24.55,-54.44 28.11,-83.88 6.46,-56.63 -4.23,-113.9 -22.62,-167.41 -17.89,-52.05 -43.39,-101.21 -72.78,-147.64 -25.69,-40.44 -54.47,-78.85 -85.32,-115.5 -13.93,-16.88 -29.47,-32.54 -41.21,-51.12 -7.66,-12.2 -14.59,-25.43 -16.34,-39.92 -1.25,-9.53 1.27,-20.38 9.27,-26.42z"/>
   <path class="fil1" d="M997.81 262.61c9.81,-6.36 23.48,-4.17 32.18,3.14 33.48,26.75 62.3,58.76 89.44,91.77 14.48,17.9 28.66,36.09 41.97,54.88 -20.9,-9.43 -44.41,-12.82 -67.13,-9.66 -10.21,-20.26 -25.28,-39.11 -46.12,-49.1 -20.1,-10.1 -44.14,-10.46 -65.2,-3.12 -2.47,-21.19 -4.12,-42.98 0.78,-63.93 2.28,-9.04 6.14,-18.48 14.08,-23.98zm-447.49 231.8c24.85,-42.9 49.49,-85.93 74.53,-128.71 36.64,63.11 73.32,126.21 109.96,189.33 4.57,7.68 8.81,15.56 13.66,23.07 9.7,-65.12 18.62,-130.38 28.06,-195.55 0.88,-5.62 6.4,-10.18 12.12,-9.86 46.91,-0.02 93.82,-0.04 140.73,0.01 -21.4,13.71 -38.17,33.74 -50.36,55.87 -10.77,20.08 -18.47,41.95 -21.71,64.54 -5.71,34.23 -11.36,68.45 -17.02,102.68 26.77,-14.32 57.89,-19.72 88.02,-17.02 24.39,1.92 48.51,9.88 68.47,24.18 24.37,17.37 42.23,43.37 50.66,72.01 11.86,39.11 -2.03,85.7 -35.51,109.92 -19.49,14.42 -44.54,20.02 -68.5,18.25 -25.39,-1.47 -50.17,-15.46 -63.39,-37.39 -6.11,-9.86 -8.97,-21.46 -9.22,-33 12.91,19.27 41.12,25.57 61.09,13.85 18.61,-10.16 28.63,-33.72 22.45,-54.12 -4.42,-15.39 -17.11,-27.97 -32.4,-32.59 -15.55,-4.76 -32.75,-1.47 -46.75,6.33 -20.03,10.97 -33.47,32.89 -34.1,55.75 -0.25,19.02 4.49,38.22 14.15,54.64 12.04,20.83 31.52,36.11 52.34,47.51 -19.26,10.76 -38.08,22.61 -54.45,37.51 -21.67,19.27 -38.79,44.33 -45.97,72.63 -5.11,20.59 -6.87,42.4 -2.53,63.29 5.43,25.49 20.67,48.77 42.03,63.73 17.93,12.75 39.95,19.64 61.94,19.24 20.73,0.01 41.24,-6.76 58.35,-18.38 20.97,-14.43 36.56,-36.54 42.73,-61.27 9.18,-36.7 -1.94,-78.78 -30.38,-104.26 -18.74,-5.13 -40.74,2.76 -50.85,19.7 -6.25,9.83 -8.34,22.62 -4.06,33.63 3.55,9.27 11.54,16.3 20.58,20.05 9.27,4.01 19.47,5.05 29.49,5.22 1.42,13.38 -0.39,27.61 -7.83,39.1 -6.92,10.94 -18.26,18.64 -30.61,22.18 -24.25,7.15 -51.94,0.76 -70.75,-16.1 -15.04,-13.28 -23.29,-33.05 -24.53,-52.87 -1.23,-23.06 2.88,-46.92 14.81,-66.93 11.49,-19.36 29.7,-33.94 49.62,-43.96 27.71,-14.23 58.22,-21.62 88.45,-28.35 28.34,-6.33 57.15,-11.12 84.71,-20.53 15.15,-5.51 30.95,-12.6 40.63,-26.09 6.14,-8.44 7.86,-19.13 7.37,-29.34 13.21,3.65 24.11,13.25 30.93,24.96 11.61,19.66 13.22,45.03 3.59,65.81 -7.62,16.95 -22.23,31.33 -40.45,36.22 -13.23,3.81 -27.24,1.21 -40.15,-2.6 -7.22,-2.2 -14.08,-5.47 -20.46,-9.46 53.42,97.04 106.29,194.37 159.86,291.31 57.2,-103.72 113.6,-207.89 170.92,-311.54 21.37,128.05 42.65,256.13 63.97,384.18 4.94,21.88 13.71,42.92 25.85,61.8 11.49,17.51 26,33.38 43.87,44.56 -46.65,0.04 -93.31,0 -139.96,0.02 -6.43,0.27 -12.72,-4.85 -13.16,-11.4 -9.43,-64.63 -18.69,-129.3 -28.31,-193.91 -6.63,9.52 -11.8,19.95 -17.79,29.89 -35.16,60.74 -70.23,121.53 -105.42,182.27 -32.83,-56.14 -65.36,-112.45 -98.06,-168.67 -8.65,-14.51 -16.66,-29.44 -25.75,-43.68 -9.46,64.85 -18.53,129.79 -27.84,194.68 -0.47,6.36 -6.66,11.17 -12.9,10.82 -46.63,-0.09 -93.28,0.14 -139.91,-0.12 38.55,-25.55 62.27,-69.13 70.8,-113.82 4.91,-29.6 9.85,-59.19 14.77,-88.79 -46.57,27.56 -105.44,32.85 -156.22,14.17 -43.59,-15.73 -80.67,-48.49 -101.64,-89.82 -23.63,-45.83 -26.58,-101.67 -8.01,-149.77 10.13,-26.69 26.67,-50.86 47.64,-70.2 -52.63,-95.91 -105.01,-191.97 -157.83,-287.79 -56.97,103.93 -113.76,207.94 -170.82,311.82 -21.58,-128.5 -42.75,-257.05 -64.28,-385.55 -9.85,-41.36 -32.86,-80.98 -68.72,-104.91 46.62,-0.27 93.22,-0.03 139.83,-0.12 6.32,-0.29 12.12,5.12 12.51,11.39 9.49,64.7 18.76,129.45 28.37,194.12 16.68,-27.65 32.41,-55.9 48.74,-83.77zm625.59 -57.52c1.7,1.63 3.41,3.26 5.14,4.88 -3.45,17.18 -8.33,34.15 -15.44,50.18 -3.47,7.17 -7.17,14.79 -13.77,19.6 -5.47,3.56 -11.96,0.07 -17.55,-1.39 -28.02,-10.38 -54.74,-23.9 -82.15,-35.72 25.62,2.01 51.99,2.72 76.85,-4.89 18.6,-5.52 35.58,-16.81 46.92,-32.66zm-169.87 -161.68l0 0c-1.48,5.46 -1,11.22 -1.6,16.8 6.78,-4.73 15.4,-2.75 22.38,0.43 14.73,6.88 26.62,18.28 38.25,29.37 -8.42,-11.59 -18.35,-22.04 -28.36,-32.28 -6.46,-6.13 -13,-12.55 -21.15,-16.37 -3.09,-1.47 -8.14,-1.93 -9.52,2.05z"/>
   <path class="fil2" d="M833.39 104.28c20.18,-4.01 40.93,-6.62 61.48,-4.31 10.64,1.34 22.41,4.53 28.5,14.16 5.86,8.11 3.92,18.84 0.95,27.67 -5.07,14.57 -11.14,28.9 -14,44.14 -5.53,26.87 -2.64,54.89 5.09,81.02 6.02,21 15.06,40.97 24.91,60.41 -0.98,-23.4 1.35,-47.64 11.23,-69.13 7.48,-16.25 21.06,-29.89 38.07,-35.9 13.81,-5 29.23,-4.54 43.12,-0.06 4.65,-5.63 10.33,-10.41 16.79,-13.85 23.46,-12.25 50.31,-18.74 76.8,-16.27 26.8,2.18 52.15,12.23 76.22,23.66 27.31,12.94 53.82,27.97 82.7,37.23 22.89,7.41 47.6,10.37 71.32,5.44 22.06,-4.13 42.24,-14.63 60.93,-26.72 8.64,49.4 -4.91,102.1 -36.09,141.34 -5.59,7.04 -11.6,13.74 -18.02,20.05 17.58,24.04 31.91,50.4 42.82,78.1 7.19,17.6 12.45,35.91 17.7,54.16 18.7,-18.33 31.59,-41.95 39.07,-66.9 6.15,-20.54 9.03,-41.96 9.82,-63.35 0.11,-5.93 3.06,-11.86 8.34,-14.82 7.69,-4.27 17,-3.5 25.4,-2.28 22,4.26 42.11,15.07 60.68,27.27 43.04,29.01 78.06,69.21 102.72,114.74 7.28,-0.64 15.14,-0.6 21.46,-4.87 6.83,-3.91 10.13,-11.34 14.7,-17.37 7.29,-9.98 14.29,-20.15 21.69,-30.03 4.14,14.54 8.15,29.12 12.16,43.7 3.03,10.88 5.07,22.15 4.87,33.49 23.46,-10.44 42.76,-27.81 63.83,-42.13 -0.87,16.94 -1.02,33.94 -2.47,50.84 -3.69,26.17 -14.17,53.35 -35.89,69.72 -10.21,7.58 -22.8,11.68 -35.51,11.68 -8.1,8.74 -18.35,15.25 -29.5,19.34 0.78,26.4 -1.83,52.87 -7.33,78.69 28.76,49.07 53.45,100.72 71.06,154.87 19.81,61.39 31.21,126.61 24.19,191.14 -5.17,47.32 -20.85,94.46 -50.5,132.17 -15.25,19.24 -33.92,35.99 -55.46,47.89 -25.01,14.09 -53.7,21.47 -82.38,21.52 -33.67,0.11 -66.98,-9.62 -96.17,-26.18 12.12,21.47 28.38,40.34 45.92,57.57 26.8,25.97 56.94,48.27 88.37,68.29 -44.79,0.4 -89.57,-0.45 -134.36,-0.29 -91.77,0.01 -183.54,-0.03 -275.3,0.03 14.02,16.25 30.71,30.02 48.5,42 -27.01,15.6 -59.85,15.39 -89.83,10.91 20.02,20.48 43.2,37.59 67.2,53.09 3.71,2.44 7.71,4.49 11.06,7.48 -67.1,8.66 -135.38,9.58 -202.46,0.35 -70.44,-9.76 -139.62,-30.85 -202.15,-64.96 -30.89,-16.99 -60.45,-36.86 -86.06,-61.18 -1.66,14.93 3.21,29.62 9.18,43.1 4.14,9.13 9.18,17.79 14.65,26.19 -78.39,-35.06 -148.41,-87.91 -205.76,-151.65 -68.72,-76.36 -119.01,-168.48 -149.92,-266.27 -14.74,-46.38 -25.07,-94.12 -31.57,-142.34 -22.1,-127.27 -44.37,-254.5 -66.52,-381.77 -3.46,-25.84 -17.22,-48.81 -32.11,-69.67 -26.42,-35.84 -58.43,-67.28 -92.63,-95.66 38.63,-0.02 77.26,0.01 115.89,-0.02 17.17,0.66 34.34,0.25 51.51,0.37 40.09,0 80.16,0 120.23,-0.02 49.09,-73.59 116.29,-134.9 193.85,-177.42 39.88,-21.74 82.45,-39.09 127.01,-48.4zm172.65 170.93c1.38,-3.98 6.43,-3.52 9.52,-2.05 8.15,3.82 14.69,10.24 21.15,16.37 10.01,10.24 19.94,20.69 28.36,32.28 -11.63,-11.09 -23.52,-22.49 -38.25,-29.37 -6.98,-3.18 -15.6,-5.16 -22.38,-0.43 0.6,-5.58 0.12,-11.34 1.6,-16.8zm331.31 61.93c9.8,-4.97 17.42,-13.4 22.87,-22.8 -2.27,9.96 -6.71,19.29 -12.01,27.99 -3.91,6.05 -8.76,12.36 -15.99,14.45 -10.88,3.1 -22.27,-0.71 -33.2,1.91 -9.14,1.89 -16.82,7.43 -24.82,11.89 2.41,-9.14 9.6,-16.17 18.04,-19.98 14.33,-6.77 31.05,-5.97 45.11,-13.46zm-709.28 729.39c8.25,-3.06 16.48,-6.14 24.75,-9.12 1.87,5.35 4.69,11.17 2.51,16.87 -3.04,6.72 -12.44,9.83 -18.87,6.3 -4.93,-3.07 -6.47,-8.97 -8.39,-14.05zm102.43 133.15c4.02,-4.74 7.84,-9.67 11.92,-14.37 4.02,3.7 9.84,6.6 10.9,12.48 0.23,5.02 -4.4,9.82 -9.4,10.07 -5.52,-0.45 -9.41,-4.87 -13.42,-8.18zm-25.14 30.74c4.5,-5.38 8.87,-10.85 13.36,-16.24 3.8,3.23 8.28,6.02 10.71,10.52 3.04,5.71 -1.71,13.05 -7.58,14.42 -6.84,1.06 -11.75,-4.8 -16.49,-8.7zm379.18 -997.7l0 0c-10.46,3.17 -18.68,11.12 -24.41,20.18 14.09,-6.63 30.19,-6.02 45.33,-4.55 -0.22,0.26 -0.65,0.78 -0.86,1.04 -10.16,1.79 -19.61,6.6 -27.83,12.72 -3.82,3.08 -7.83,6.43 -9.7,11.1 -1.36,2.95 0.6,6.28 3.37,7.51 12.39,6.7 27.05,5.83 40.62,4.48 11.08,-1.01 21.95,-4.81 33.16,-3.36 18.13,2.01 33.48,13.43 45.91,26.06 19.93,19.87 46.33,33.69 74.55,36.25 -8.06,3.41 -16.59,6.06 -25.41,6.21 -15.83,0.7 -31.21,-4.13 -45.85,-9.67 -7.91,-2.93 -15.68,-6.44 -23.94,-8.31 -6.59,-1.57 -14.19,-0.1 -18.89,4.99 -3.59,3.99 -3.67,10.37 -0.45,14.6 5.62,9.67 16.51,13.66 25.62,19.11 13.05,7.71 23.51,19.15 31.83,31.68 -4.48,-2.28 -8.85,-6.09 -14.17,-5.61 -4.88,0.89 -3.23,7.32 -0.79,10 7.02,8.42 16.64,14 24.84,21.14 12.3,10.05 24.23,22.8 26.38,39.24 -5.58,-6.32 -12.6,-11.74 -21.03,-13.42 7.05,7.32 11.61,16.67 14.39,26.38 6.24,23 4.45,47.49 -0.64,70.52 -5.95,-16.77 -11.08,-34.46 -22.34,-48.61 5.89,20.37 6.15,42.84 -2.05,62.64 -9.1,22.59 -28.01,39.92 -49.15,51.26 4.9,-15.51 8.64,-31.56 9.04,-47.89 0.24,-10.28 -0.4,-21.53 -7.18,-29.87 -6.56,9.63 -15.13,17.75 -24.99,23.94 -15.94,10.27 -34.77,17.05 -53.95,15.66 6.74,-4.33 12.79,-10.12 15.97,-17.6 5.22,-11.72 4.25,-25.08 1.11,-37.22 -5.06,13.1 -11.72,26.4 -23.4,34.84 -11.38,8.69 -26.16,11.3 -40.18,10.56 10.45,14.15 26.82,24.07 44.58,25.03 -7.3,5.19 -13.29,12.41 -21.91,15.52 0.94,1.42 1.9,2.85 2.86,4.26 16.93,25.46 27.89,55.32 29.12,86.01l0.51 0.64c14.77,4.14 29.7,7.8 44.52,11.8 11.34,3.23 21.91,8.97 31.09,16.37 32.78,26.59 46.6,73.2 35.76,113.71 -6.67,25.99 -22.78,49.53 -45,64.68 -7.69,4.96 -15.95,8.92 -24.56,11.99 27.72,50.61 55.47,101.19 83.17,151.8 37.94,-69.04 75.67,-138.21 113.58,-207.26 2.01,-3.05 1.63,-6.77 1.84,-10.2 1.52,-26.86 -3.04,-54.21 -14.6,-78.6 16.46,20.62 28.09,45.75 30.77,72.16 18.32,-25.71 24.74,-59.17 17.99,-89.93 -5.11,-25.02 -18.39,-47.66 -35.14,-66.68 36.17,24.7 62.67,65.39 65.01,109.72 9.2,-33.81 11.08,-69.59 6.16,-104.27 -6.99,-48.2 -28.48,-94.17 -60.92,-130.52 22.84,14.31 39.72,36.1 54.13,58.47 -2.98,-45.5 -11.7,-90.81 -27.6,-133.61 -16.7,-44.88 -42.87,-87.62 -81.44,-116.93 9.22,2.05 18.14,5.18 27.12,8.06 15.97,-4.29 28.79,-16.36 37.48,-30.08 11.67,-18.44 17.99,-39.68 22.76,-60.82 -1.24,0.66 -2.45,1.33 -3.64,2l-0.15 0.37c-12.51,6.06 -26.14,10.13 -40.12,10.15 -10.24,-0.22 -20.46,1.31 -30.68,0.46 -9.27,-0.74 -18.55,-2 -27.86,-1.2 -15.82,0.65 -31.31,4.2 -46.47,8.55 10.31,-7.55 22.06,-14.71 35.38,-13.81 -9.57,-4.16 -18.99,-8.67 -28.74,-12.41 -26.49,-10.45 -54.77,-16.76 -83.31,-16.96 19.07,-6.69 39.65,-6 59.24,-2.31 -23.7,-11.26 -47.78,-22 -72.99,-29.4 -17.05,-4.67 -35.54,-8.19 -52.85,-2.76zm-86.73 29.89l0 0c-7.94,5.5 -11.8,14.94 -14.08,23.98 -4.9,20.95 -3.25,42.74 -0.78,63.93 21.06,-7.34 45.1,-6.98 65.2,3.12 20.84,9.99 35.91,28.84 46.12,49.1 22.72,-3.16 46.23,0.23 67.13,9.66 -13.31,-18.79 -27.49,-36.98 -41.97,-54.88 -27.14,-33.01 -55.96,-65.02 -89.44,-91.77 -8.7,-7.31 -22.37,-9.5 -32.18,-3.14zm91.62 38.38l0 0c11.24,11.42 22.66,22.68 33.75,34.25 -1.81,-6.16 0.8,-12.76 5.9,-16.48 10.87,-8.44 25.79,-10.59 39.02,-7.51 -7.19,-6.33 -16.77,-9.99 -26.35,-9.77 -8.06,0.51 -15.69,3.63 -23.76,4.09 -9.77,1.01 -19.37,-1.6 -28.56,-4.58zm-539.11 193.42l0 0c-16.33,27.87 -32.06,56.12 -48.74,83.77 -9.61,-64.67 -18.88,-129.42 -28.37,-194.12 -0.39,-6.27 -6.19,-11.68 -12.51,-11.39 -46.61,0.09 -93.21,-0.15 -139.83,0.12 35.86,23.93 58.87,63.55 68.72,104.91 21.53,128.5 42.7,257.05 64.28,385.55 57.06,-103.88 113.85,-207.89 170.82,-311.82 52.82,95.82 105.2,191.88 157.83,287.79 -20.97,19.34 -37.51,43.51 -47.64,70.2 -18.57,48.1 -15.62,103.94 8.01,149.77 20.97,41.33 58.05,74.09 101.64,89.82 50.78,18.68 109.65,13.39 156.22,-14.17 -4.92,29.6 -9.86,59.19 -14.77,88.79 -8.53,44.69 -32.25,88.27 -70.8,113.82 46.63,0.26 93.28,0.03 139.91,0.12 6.24,0.35 12.43,-4.46 12.9,-10.82 9.31,-64.89 18.38,-129.83 27.84,-194.68 9.09,14.24 17.1,29.17 25.75,43.68 32.7,56.22 65.23,112.53 98.06,168.67 35.19,-60.74 70.26,-121.53 105.42,-182.27 5.99,-9.94 11.16,-20.37 17.79,-29.89 9.62,64.61 18.88,129.28 28.31,193.91 0.44,6.55 6.73,11.67 13.16,11.4 46.65,-0.02 93.31,0.02 139.96,-0.02 -17.87,-11.18 -32.38,-27.05 -43.87,-44.56 -12.14,-18.88 -20.91,-39.92 -25.85,-61.8 -21.32,-128.05 -42.6,-256.13 -63.97,-384.18 -57.32,103.65 -113.72,207.82 -170.92,311.54 -53.57,-96.94 -106.44,-194.27 -159.86,-291.31 6.38,3.99 13.24,7.26 20.46,9.46 12.91,3.81 26.92,6.41 40.15,2.6 18.22,-4.89 32.83,-19.27 40.45,-36.22 9.63,-20.78 8.02,-46.15 -3.59,-65.81 -6.82,-11.71 -17.72,-21.31 -30.93,-24.96 0.49,10.21 -1.23,20.9 -7.37,29.34 -9.68,13.49 -25.48,20.58 -40.63,26.09 -27.56,9.41 -56.37,14.2 -84.71,20.53 -30.23,6.73 -60.74,14.12 -88.45,28.35 -19.92,10.02 -38.13,24.6 -49.62,43.96 -11.93,20.01 -16.04,43.87 -14.81,66.93 1.24,19.82 9.49,39.59 24.53,52.87 18.81,16.86 46.5,23.25 70.75,16.1 12.35,-3.54 23.69,-11.24 30.61,-22.18 7.44,-11.49 9.25,-25.72 7.83,-39.1 -10.02,-0.17 -20.22,-1.21 -29.49,-5.22 -9.04,-3.75 -17.03,-10.78 -20.58,-20.05 -4.28,-11.01 -2.19,-23.8 4.06,-33.63 10.11,-16.94 32.11,-24.83 50.85,-19.7 28.44,25.48 39.56,67.56 30.38,104.26 -6.17,24.73 -21.76,46.84 -42.73,61.27 -17.11,11.62 -37.62,18.39 -58.35,18.38 -21.99,0.4 -44.01,-6.49 -61.94,-19.24 -21.36,-14.96 -36.6,-38.24 -42.03,-63.73 -4.34,-20.89 -2.58,-42.7 2.53,-63.29 7.18,-28.3 24.3,-53.36 45.97,-72.63 16.37,-14.9 35.19,-26.75 54.45,-37.51 -20.82,-11.4 -40.3,-26.68 -52.34,-47.51 -9.66,-16.42 -14.4,-35.62 -14.15,-54.64 0.63,-22.86 14.07,-44.78 34.1,-55.75 14,-7.8 31.2,-11.09 46.75,-6.33 15.29,4.62 27.98,17.2 32.4,32.59 6.18,20.4 -3.84,43.96 -22.45,54.12 -19.97,11.72 -48.18,5.42 -61.09,-13.85 0.25,11.54 3.11,23.14 9.22,33 13.22,21.93 38,35.92 63.39,37.39 23.96,1.77 49.01,-3.83 68.5,-18.25 33.48,-24.22 47.37,-70.81 35.51,-109.92 -8.43,-28.64 -26.29,-54.64 -50.66,-72.01 -19.96,-14.3 -44.08,-22.26 -68.47,-24.18 -30.13,-2.7 -61.25,2.7 -88.02,17.02 5.66,-34.23 11.31,-68.45 17.02,-102.68 3.24,-22.59 10.94,-44.46 21.71,-64.54 12.19,-22.13 28.96,-42.16 50.36,-55.87 -46.91,-0.05 -93.82,-0.03 -140.73,-0.01 -5.72,-0.32 -11.24,4.24 -12.12,9.86 -9.44,65.17 -18.36,130.43 -28.06,195.55 -4.85,-7.51 -9.09,-15.39 -13.66,-23.07 -36.64,-63.12 -73.32,-126.22 -109.96,-189.33 -25.04,42.78 -49.68,85.81 -74.53,128.71zm420.68 -108.72l0 0c13.72,5.05 26.46,12.94 35.92,24.21 15.67,18.83 34.38,36.53 58.2,44.15 -5.3,-4.64 -10,-9.98 -13.92,-15.82 6.47,2.37 12.69,5.4 19.1,7.98 13.25,5.48 27.33,9.24 41.65,10.3 14.96,-2.32 29.75,-7.9 41.54,-17.58 -18.81,2.09 -37.93,2.81 -56.67,-0.2 -24.74,-4.19 -48.97,-13.31 -68.93,-28.76 -16.59,-12.4 -35.43,-24.3 -56.89,-24.28zm204.91 51.2l0 0c-11.34,15.85 -28.32,27.14 -46.92,32.66 -24.86,7.61 -51.23,6.9 -76.85,4.89 27.41,11.82 54.13,25.34 82.15,35.72 5.59,1.46 12.08,4.95 17.55,1.39 6.6,-4.81 10.3,-12.43 13.77,-19.6 7.11,-16.03 11.99,-33 15.44,-50.18 -1.73,-1.62 -3.44,-3.25 -5.14,-4.88zm341.21 60.54l0 0c-8,6.04 -10.52,16.89 -9.27,26.42 1.75,14.49 8.68,27.72 16.34,39.92 11.74,18.58 27.28,34.24 41.21,51.12 30.85,36.65 59.63,75.06 85.32,115.5 29.39,46.43 54.89,95.59 72.78,147.64 18.39,53.51 29.08,110.78 22.62,167.41 -3.56,29.44 -12.11,58.72 -28.11,83.88 -10.62,16.85 -24.77,31.69 -41.95,41.94 -21.54,13.22 -47.72,18.31 -72.72,15 -25.39,-3.04 -49.32,-13.87 -70.06,-28.53 -22.54,-15.81 -41.5,-36.12 -58.33,-57.77 5.16,31.87 10.76,63.65 16.13,95.5 1.4,6.14 1.38,12.69 3.6,18.58 28.52,22.82 63.67,38.35 100.38,40.54 29.88,2.02 60.32,-5.56 85.68,-21.5 18.05,-11.15 33.54,-26.21 45.96,-43.37 26.43,-36.5 38.71,-81.52 41.66,-126.04 4.15,-62.63 -8.61,-125.28 -29.51,-184.08 -17.9,-50.36 -41.96,-98.37 -69.57,-144.05 -32.99,-54.47 -71.08,-105.7 -112.13,-154.33 -9.34,-11.28 -20.05,-21.91 -25.63,-35.71 -3.41,-8.12 -5.14,-17.93 -0.63,-25.96 4.38,-8.43 14.62,-11.88 23.62,-11.35 16.05,1.02 30.62,9.17 43.33,18.5 27.58,20.93 48.35,49.55 65.05,79.58 -7.28,-2.94 -14.39,-6.53 -20.32,-11.73 1.93,6.64 3.9,13.38 7.62,19.26 5.02,8.28 14.07,13.12 23.01,16.06 10.93,3.49 22.95,1.36 32.71,-4.42 -9.42,-5.54 -18.43,-14.69 -18.07,-26.37 -0.41,-4.01 2.41,-6.98 5.12,-9.46 2.39,0.99 4.87,1.97 6.89,3.66 9.57,7.68 20.75,14.39 33.25,15.44 10.4,0.95 20.54,-4.12 27.45,-11.68 10.3,-11.3 15.93,-26.08 18.81,-40.92 -15.2,9.5 -31.88,18.63 -50.26,18.85 -12.81,0.18 -24.91,-6.84 -31.84,-17.47 6.09,0.33 14.31,2.09 18.3,-3.95 5,-7.63 2.67,-17.25 1.34,-25.6 -6.23,6.39 -13.67,11.72 -22.17,14.63 -13.8,5.12 -28.99,1.98 -42.95,6.42 0.99,6.8 0.59,13.72 -0.99,20.4 -9.79,-17.22 -21.29,-33.71 -36.12,-46.98 -17.66,-15.96 -39.35,-28.47 -63.2,-31.72 -11.66,-1.25 -24.73,-0.82 -34.35,6.74zm74.98 260.04l0 0c17.46,29.46 24.17,64.39 22.31,98.36 -1.82,33.64 -12.12,66.85 -30.05,95.4 -11.02,17.82 -25.19,33.53 -41.09,47.1 -1.62,-28.42 -8.29,-56.62 -20.11,-82.54 5.05,23.29 0.57,47.44 -6.38,69.86 -8.55,26.85 -21.74,52.03 -37.59,75.28 17.72,27.52 38.64,53.54 65.05,73.19 18.95,14.01 41.11,24.57 64.8,26.8 22.48,2.47 45.74,-4.45 63.31,-18.67 19.35,-15.24 31.91,-37.49 39.63,-60.56 11.86,-35.83 12.58,-74.44 7.87,-111.6 -7.22,-53.51 -25.7,-104.97 -49.65,-153.16 -5.97,12.51 -11.87,25.1 -18.86,37.08 -0.2,0.05 -0.59,0.14 -0.79,0.19 -13.03,-35.57 -32.88,-68.74 -58.45,-96.73zm-973.94 162.29l0 0c2.68,2.08 5.65,4.12 7.16,7.29 3.01,5.73 2.76,12.39 3.47,18.67 -24.94,2.15 -49.87,4.64 -74.81,6.83 0.86,9.98 1.84,19.96 2.76,29.93 24.91,-2.35 49.84,-4.61 74.76,-6.93 1.38,9.47 2.96,21.79 -6.58,27.71 11.27,-1.59 22.66,-2.15 33.97,-3.46 -2.73,-27.68 -4.97,-55.41 -7.84,-83.06 -10.97,1.01 -21.92,2.13 -32.89,3.02zm31.79 105.85l0 0c-3.27,3.21 -7.87,4.23 -12,5.84 -22.91,8.45 -45.84,16.88 -68.72,25.39 3.4,9.34 6.85,18.64 10.32,27.97 9.7,-3.7 19.45,-7.23 29.19,-10.83 0.13,1.64 1.65,3.75 0.13,5.2 -7.21,8.75 -14.6,17.36 -21.74,26.16 3.98,10.82 7.94,21.65 12,32.43 9.14,-12 18.18,-24.08 27.33,-36.07 6.23,5.25 14.11,9 22.43,8.35 11.23,-0.99 23.06,-6.46 28.39,-16.89 5.07,-10.07 3.48,-22.02 0.07,-32.35 -5.93,-16.83 -12.67,-33.38 -17.96,-50.42 -1.82,5.76 -4.91,11.15 -9.44,15.22zm43.07 75.16l0 0c-0.03,10.04 -4.8,20.11 -12.86,26.15 -20.21,14.47 -40.38,28.99 -60.53,43.53 5.72,8.23 11.77,16.22 17.45,24.48 27.16,-19.48 54.27,-39.02 81.38,-58.54 -8.43,-11.9 -17.15,-23.61 -25.44,-35.62zm30.53 41.98l0 0c2.31,10.04 0.07,21.3 -6.83,29.1 -15.58,18.92 -31.02,37.95 -46.6,56.87 10.46,8.47 20.81,17.08 31.27,25.54 8.24,6.15 18.06,11.58 28.69,10.71 10.66,-0.72 19.36,-9.3 22.93,-18.96 2.55,-6.95 0.19,-14.41 -3.35,-20.54 5.83,1.19 12.17,1.08 17.46,-1.95 8.84,-5.25 14.81,-16.24 12.05,-26.53 -2.41,-9.15 -9.39,-16.2 -16.51,-22.02 -13.11,-10.64 -26.13,-21.4 -39.11,-32.22zm66.25 57.55l0 0c5.49,8.76 7.02,20.12 3.07,29.79 -9.04,22.84 -17.9,45.75 -26.95,68.59 20.94,8.24 41.95,16.34 62.86,24.7 2.87,-7.39 5.83,-14.76 8.63,-22.17 -11.82,-4.6 -23.63,-9.24 -35.44,-13.88 1.82,-4.8 3.71,-9.56 5.54,-14.33 9.28,3.47 18.49,7.13 27.68,10.82 2.96,-7.25 5.82,-14.55 8.61,-21.87 -9.19,-3.51 -18.27,-7.26 -27.5,-10.64 1.31,-4.49 3.18,-8.79 4.9,-13.13 11.41,4.54 22.83,9.04 34.3,13.45 2.87,-7.34 5.73,-14.68 8.62,-22.02 -24.73,-9.89 -49.67,-19.22 -74.32,-29.31z"/>
   <path class="fil3" d="M861.32 80l34.03 0c11.16,2.57 23.04,4.42 32.48,11.44 10.56,7.62 18.38,19.84 18.49,33.14 0.68,17.57 -8.11,33.36 -13.03,49.74 -8.39,25.62 -8.35,53.62 -1.22,79.53 4.43,-8.64 8.95,-17.36 15.38,-24.74 17.05,-20.61 44.61,-32.33 71.3,-29.18 3.37,0.08 7.39,1.7 10.22,-0.94 11.04,-8.7 24.24,-13.98 37.41,-18.53 22.99,-7.82 47.86,-9.96 71.86,-6.26 27.35,4.03 53.15,14.72 77.83,26.75 26.46,12.54 52.14,27.26 80.44,35.38 25.31,7.59 53.17,7.06 77.68,-3.15 20.37,-7.71 37.35,-21.61 55.55,-33.17 4.2,18.38 9.68,36.73 9.47,55.76 1.61,46.36 -13.71,93.07 -42.69,129.31 -2.72,3.36 -5.49,6.7 -8.12,10.13 18.28,27.38 32.12,57.43 43.15,88.38 12.86,-22.6 18.73,-48.5 21.06,-74.2 1.12,-10.8 -0.13,-22.46 5.57,-32.22 5.93,-11.35 18.44,-17.81 30.86,-18.99 18.27,-1.75 36.37,3.65 52.97,10.83 33.4,14.9 62.62,37.91 88.02,64 19.41,20.11 36.15,42.64 50.61,66.53 7.76,-8.86 13.78,-19.09 20.94,-28.45 11.46,-15.56 22.15,-31.72 34.09,-46.9 8.34,29.8 16.59,59.65 24.95,89.46 23.07,-16.47 46.05,-33.07 68.92,-49.8l0 4.81c-1.11,18.77 -1.65,37.58 -2.53,56.36 -0.67,13.07 -0.46,26.26 -2.94,39.17 -4.11,21.97 -12.69,43.56 -27.24,60.75 -12.24,14.41 -29.32,25.13 -48.14,28.12 -3.38,0.47 -6.66,1.55 -9.22,3.85 -4.15,3.47 -8.86,6.16 -13.26,9.28 -2.05,1.07 -1.46,3.6 -1.72,5.48 -0.33,17.79 -2.09,35.57 -5.37,53.05 -0.49,2.58 -0.96,5.41 0.62,7.76 25.73,44.75 47.84,91.69 64.57,140.55 17.36,51.09 28.96,104.51 30.17,158.61 1.03,48.9 -6.78,98.6 -27.27,143.26 -17.17,37.66 -43.96,71.45 -78.8,94.16 -24.44,16.09 -52.66,26.4 -81.74,29.69 -20,2.36 -40.22,1.08 -60.05,-2.1 15.38,15.67 32.6,29.45 50.19,42.56 30.6,22.91 64.55,40.7 97.18,60.5 -121.44,-0.09 -242.92,-0.03 -364.37,-0.04 -21.77,0.16 -43.55,-0.38 -65.3,0.28 10.52,8.62 23.09,14.33 33.58,22.96 -9.62,5.7 -19.16,11.58 -28.84,17.19 -13.24,7.58 -28.21,11.29 -43.16,13.71 25.84,18.94 54.18,34.13 80.82,51.86 -35.61,4.66 -71.18,9.94 -107.04,12.31 -10.53,0.86 -21.14,0.81 -31.64,2.02l-31.75 0c-55.24,-0.89 -110.54,-7.1 -164.13,-20.8 -45.43,-11.54 -89.67,-28.16 -131.04,-50.28 -14.73,-7.49 -28.41,-16.81 -42.75,-24.99 12.11,19.06 25.89,37.03 38.45,55.8 -16.38,-6.14 -32.4,-13.25 -48.64,-19.78 -32.15,-12.63 -62.43,-29.56 -91.53,-48.03 -75,-48.14 -139.33,-112.27 -189.6,-185.72 -58.71,-85.65 -98.56,-183.66 -119.47,-285.21 -5.86,-26.79 -8.92,-54.06 -13.9,-80.99 -21.31,-122.32 -42.69,-244.62 -63.95,-366.93 -2.36,-13.53 -8.67,-25.92 -15.49,-37.66 -12.33,-20.55 -27.71,-39.05 -43.91,-56.63 -18.55,-19.67 -38.07,-38.48 -59.18,-55.39 -13.52,-10.92 -27.15,-21.7 -40.69,-32.59l0 -0.65c28.39,0.33 56.77,-0.31 85.15,0.42 61.35,0 122.72,0 184.09,0 20.91,0.5 41.84,0.49 62.76,0.19 56.11,-81.11 133.7,-147.25 222.89,-189.39 40.8,-19.11 84,-34.06 128.81,-40.03 2.38,-0.41 4.76,-0.91 7.16,-1.34zm215.45 182.11c8.22,-6.12 17.67,-10.93 27.83,-12.72 -4.08,5.56 -10.26,10.33 -11.17,17.57 0.8,4.83 6.51,5.63 10.5,5.86 10.22,0.31 20.38,-1.56 30.62,-1.46 19.29,-0.76 39.52,5.06 53.18,19.23 9.39,10.17 18.85,20.42 30.22,28.45 17.31,12.71 39.02,21.57 60.8,17.7 -7.38,11.35 -19.16,19.75 -32.48,22.39 -18.56,3.72 -37.57,-0.54 -55.27,-6.17 -6.28,-1.82 -12.49,-5.04 -19.19,-4.17 12.64,16.25 34.06,21.87 47.97,36.72 9.1,9.41 13.76,22.31 14.12,35.28 -6.9,-5.39 -14.68,-10.18 -23.66,-10.71 5.34,5.11 11.72,8.92 17.48,13.53 13.76,10.81 26.71,22.78 37.72,36.43 10.31,13.1 19.27,28.43 20.06,45.49 -9.09,-9.86 -19.6,-18.6 -32.15,-23.68 3.58,11.08 8.08,21.92 9.69,33.54 5.13,27.77 -0.56,58.07 -18.66,80.22 -2.82,-10.8 -6.79,-21.39 -13.06,-30.68 -3.19,23.94 -17.12,45.33 -35.62,60.43 -20.04,16.48 -44.18,27.54 -69.1,34.3 4.69,-7.47 10.03,-14.53 13.99,-22.44 9.12,-17.54 14.41,-37.97 10.5,-57.69 -15.06,18.51 -37.95,29.61 -61.33,32.94 -8.2,1.4 -16.55,-0.05 -24.78,1.06 -0.96,-1.41 -1.92,-2.84 -2.86,-4.26 8.62,-3.11 14.61,-10.33 21.91,-15.52 -17.76,-0.96 -34.13,-10.88 -44.58,-25.03 14.02,0.74 28.8,-1.87 40.18,-10.56 11.68,-8.44 18.34,-21.74 23.4,-34.84 3.14,12.14 4.11,25.5 -1.11,37.22 -3.18,7.48 -9.23,13.27 -15.97,17.6 19.18,1.39 38.01,-5.39 53.95,-15.66 9.86,-6.19 18.43,-14.31 24.99,-23.94 6.78,8.34 7.42,19.59 7.18,29.87 -0.4,16.33 -4.14,32.38 -9.04,47.89 21.14,-11.34 40.05,-28.67 49.15,-51.26 8.2,-19.8 7.94,-42.27 2.05,-62.64 11.26,14.15 16.39,31.84 22.34,48.61 5.09,-23.03 6.88,-47.52 0.64,-70.52 -2.78,-9.71 -7.34,-19.06 -14.39,-26.38 8.43,1.68 15.45,7.1 21.03,13.42 -2.15,-16.44 -14.08,-29.19 -26.38,-39.24 -8.2,-7.14 -17.82,-12.72 -24.84,-21.14 -2.44,-2.68 -4.09,-9.11 0.79,-10 5.32,-0.48 9.69,3.33 14.17,5.61 -8.32,-12.53 -18.78,-23.97 -31.83,-31.68 -9.11,-5.45 -20,-9.44 -25.62,-19.11 -3.22,-4.23 -3.14,-10.61 0.45,-14.6 4.7,-5.09 12.3,-6.56 18.89,-4.99 8.26,1.87 16.03,5.38 23.94,8.31 14.64,5.54 30.02,10.37 45.85,9.67 8.82,-0.15 17.35,-2.8 25.41,-6.21 -28.22,-2.56 -54.62,-16.38 -74.55,-36.25 -12.43,-12.63 -27.78,-24.05 -45.91,-26.06 -11.21,-1.45 -22.08,2.35 -33.16,3.36 -13.57,1.35 -28.23,2.22 -40.62,-4.48 -2.77,-1.23 -4.73,-4.56 -3.37,-7.51 1.87,-4.67 5.88,-8.02 9.7,-11.1zm296.32 29.93c1.19,-0.67 2.4,-1.34 3.64,-2 -4.77,21.14 -11.09,42.38 -22.76,60.82 -8.69,13.72 -21.51,25.79 -37.48,30.08 -8.98,-2.88 -17.9,-6.01 -27.12,-8.06 38.57,29.31 64.74,72.05 81.44,116.93 15.9,42.8 24.62,88.11 27.6,133.61 -14.41,-22.37 -31.29,-44.16 -54.13,-58.47 32.44,36.35 53.93,82.32 60.92,130.52 4.92,34.68 3.04,70.46 -6.16,104.27 -2.34,-44.33 -28.84,-85.02 -65.01,-109.72 16.75,19.02 30.03,41.66 35.14,66.68 6.75,30.76 0.33,64.22 -17.99,89.93 -2.68,-26.41 -14.31,-51.54 -30.77,-72.16 11.56,24.39 16.12,51.74 14.6,78.6 -0.21,3.43 0.17,7.15 -1.84,10.2 -37.91,69.05 -75.64,138.22 -113.58,207.26 -27.7,-50.61 -55.45,-101.19 -83.17,-151.8 8.61,-3.07 16.87,-7.03 24.56,-11.99 5.99,17.4 13.44,34.39 23.47,49.86 4.08,-11.39 9.46,-22.39 17.19,-31.76 -1.73,8.4 -3.29,17 -2.16,25.61 2.11,17.77 9.92,34.52 20.27,48.97 8.46,-9.39 14.31,-20.77 19.06,-32.4 10.47,-27.05 14.82,-56.81 10.15,-85.57 10.62,11.02 17.22,25.1 22.62,39.23 5.15,-7.56 8.56,-16.11 12.49,-24.34 12.86,-28.71 22.5,-59.24 24.96,-90.73 1.87,-23.69 -0.56,-48.22 -10.76,-69.94 20.5,3.9 35.79,19.37 49.74,33.76 -2.77,-19.86 -11.79,-38.08 -20.97,-55.66 -11.73,-22.2 -25.96,-42.92 -39.83,-63.8 33.37,1.51 66.51,14.35 91.33,36.9 -1.28,-15.56 -6.25,-30.53 -11.88,-44.99 -16.51,-41.04 -40.62,-78.42 -65.72,-114.63 23.47,3.25 44.91,14.21 65.28,25.74 -11.28,-45.25 -26.16,-90.83 -53.79,-128.98 -7.67,-10.93 -17.52,-19.95 -27.08,-29.16 5.27,-0.2 10.56,-0.1 15.85,0.14 -5.43,-6.8 -11.9,-13.26 -20.18,-16.41 -4.91,-2.03 -10.31,-1.2 -15.41,-0.71 2.41,-8.57 6.13,-16.92 12.18,-23.56 7.98,-9.25 19.48,-14.92 31.41,-16.98 20.65,-3.08 37.48,-16.83 52.1,-30.81 4.13,-4.44 9.43,-8.23 11.64,-14.11l0.15 -0.37zm-402.09 93.65c21.46,-0.02 40.3,11.88 56.89,24.28 19.96,15.45 44.19,24.57 68.93,28.76 18.74,3.01 37.86,2.29 56.67,0.2 -11.79,9.68 -26.58,15.26 -41.54,17.58 -14.32,-1.06 -28.4,-4.82 -41.65,-10.3 -6.41,-2.58 -12.63,-5.61 -19.1,-7.98 3.92,5.84 8.62,11.18 13.92,15.82 -23.82,-7.62 -42.53,-25.32 -58.2,-44.15 -9.46,-11.27 -22.2,-19.16 -35.92,-24.21zm621.1 371.78c25.57,27.99 45.42,61.16 58.45,96.73 0.2,-0.05 0.59,-0.14 0.79,-0.19 6.99,-11.98 12.89,-24.57 18.86,-37.08 23.95,48.19 42.43,99.65 49.65,153.16 4.71,37.16 3.99,75.77 -7.87,111.6 -7.72,23.07 -20.28,45.32 -39.63,60.56 -17.57,14.22 -40.83,21.14 -63.31,18.67 -23.69,-2.23 -45.85,-12.79 -64.8,-26.8 -26.41,-19.65 -47.33,-45.67 -65.05,-73.19 15.85,-23.25 29.04,-48.43 37.59,-75.28 6.95,-22.42 11.43,-46.57 6.38,-69.86 11.82,25.92 18.49,54.12 20.11,82.54 15.9,-13.57 30.07,-29.28 41.09,-47.1 17.93,-28.55 28.23,-61.76 30.05,-95.4 1.86,-33.97 -4.85,-68.9 -22.31,-98.36zm75.24 107.67l0 0c-7,11.83 -12.86,24.36 -20.44,35.83 -4.84,-12.24 -8.75,-24.81 -13.51,-37.06 -1.65,10.31 -2.29,20.76 -4.58,30.97 -9.36,47.24 -36.72,90.06 -73.85,120.38 -7.19,5.68 -14.33,11.65 -22.66,15.57 -1.22,-6.26 -2.26,-12.55 -3.35,-18.83 -7.97,16.77 -16.91,33.05 -26.61,48.89 18.84,27.36 41.68,53.18 71.27,69.12 21.06,11.35 47.17,16.67 69.93,7.18 15.33,-6.18 27.69,-18.18 36.37,-32.07 15.37,-24.42 21.78,-53.47 23.22,-82 2.25,-55.36 -12.6,-109.89 -33.39,-160.73 -0.88,0.86 -1.67,1.77 -2.4,2.75zm-329.99 -528l0 0c-14.06,7.49 -30.78,6.69 -45.11,13.46 -8.44,3.81 -15.63,10.84 -18.04,19.98 8,-4.46 15.68,-10 24.82,-11.89 10.93,-2.62 22.32,1.19 33.2,-1.91 7.23,-2.09 12.08,-8.4 15.99,-14.45 5.3,-8.7 9.74,-18.03 12.01,-27.99 -5.45,9.4 -13.07,17.83 -22.87,22.8zm-503.96 -232.86l0 0c-44.56,9.31 -87.13,26.66 -127.01,48.4 -77.56,42.52 -144.76,103.83 -193.85,177.42 -40.07,0.02 -80.14,0.02 -120.23,0.02 -17.17,-0.12 -34.34,0.29 -51.51,-0.37 -38.63,0.03 -77.26,0 -115.89,0.02 34.2,28.38 66.21,59.82 92.63,95.66 14.89,20.86 28.65,43.83 32.11,69.67 22.15,127.27 44.42,254.5 66.52,381.77 6.5,48.22 16.83,95.96 31.57,142.34 30.91,97.79 81.2,189.91 149.92,266.27 57.35,63.74 127.37,116.59 205.76,151.65 -5.47,-8.4 -10.51,-17.06 -14.65,-26.19 -5.97,-13.48 -10.84,-28.17 -9.18,-43.1 25.61,24.32 55.17,44.19 86.06,61.18 62.53,34.11 131.71,55.2 202.15,64.96 67.08,9.23 135.36,8.31 202.46,-0.35 -3.35,-2.99 -7.35,-5.04 -11.06,-7.48 -24,-15.5 -47.18,-32.61 -67.2,-53.09 29.98,4.48 62.82,4.69 89.83,-10.91 -17.79,-11.98 -34.48,-25.75 -48.5,-42 91.76,-0.06 183.53,-0.02 275.3,-0.03 44.79,-0.16 89.57,0.69 134.36,0.29 -31.43,-20.02 -61.57,-42.32 -88.37,-68.29 -17.54,-17.23 -33.8,-36.1 -45.92,-57.57 29.19,16.56 62.5,26.29 96.17,26.18 28.68,-0.05 57.37,-7.43 82.38,-21.52 21.54,-11.9 40.21,-28.65 55.46,-47.89 29.65,-37.71 45.33,-84.85 50.5,-132.17 7.02,-64.53 -4.38,-129.75 -24.19,-191.14 -17.61,-54.15 -42.3,-105.8 -71.06,-154.87 5.5,-25.82 8.11,-52.29 7.33,-78.69 11.15,-4.09 21.4,-10.6 29.5,-19.34 12.71,0 25.3,-4.1 35.51,-11.68 21.72,-16.37 32.2,-43.55 35.89,-69.72 1.45,-16.9 1.6,-33.9 2.47,-50.84 -21.07,14.32 -40.37,31.69 -63.83,42.13 0.2,-11.34 -1.84,-22.61 -4.87,-33.49 -4.01,-14.58 -8.02,-29.16 -12.16,-43.7 -7.4,9.88 -14.4,20.05 -21.69,30.03 -4.57,6.03 -7.87,13.46 -14.7,17.37 -6.32,4.27 -14.18,4.23 -21.46,4.87 -24.66,-45.53 -59.68,-85.73 -102.72,-114.74 -18.57,-12.2 -38.68,-23.01 -60.68,-27.27 -8.4,-1.22 -17.71,-1.99 -25.4,2.28 -5.28,2.96 -8.23,8.89 -8.34,14.82 -0.79,21.39 -3.67,42.81 -9.82,63.35 -7.48,24.95 -20.37,48.57 -39.07,66.9 -5.25,-18.25 -10.51,-36.56 -17.7,-54.16 -10.91,-27.7 -25.24,-54.06 -42.82,-78.1 6.42,-6.31 12.43,-13.01 18.02,-20.05 31.18,-39.24 44.73,-91.94 36.09,-141.34 -18.69,12.09 -38.87,22.59 -60.93,26.72 -23.72,4.93 -48.43,1.97 -71.32,-5.44 -28.88,-9.26 -55.39,-24.29 -82.7,-37.23 -24.07,-11.43 -49.42,-21.48 -76.22,-23.66 -26.49,-2.47 -53.34,4.02 -76.8,16.27 -6.46,3.44 -12.14,8.22 -16.79,13.85 -13.89,-4.48 -29.31,-4.94 -43.12,0.06 -17.01,6.01 -30.59,19.65 -38.07,35.9 -9.88,21.49 -12.21,45.73 -11.23,69.13 -9.85,-19.44 -18.89,-39.41 -24.91,-60.41 -7.73,-26.13 -10.62,-54.15 -5.09,-81.02 2.86,-15.24 8.93,-29.57 14,-44.14 2.97,-8.83 4.91,-19.56 -0.95,-27.67 -6.09,-9.63 -17.86,-12.82 -28.5,-14.16 -20.55,-2.31 -41.3,0.3 -61.48,4.31z"/>
   <path class="fil4" d="M1084.54 232.72c17.31,-5.43 35.8,-1.91 52.85,2.76 25.21,7.4 49.29,18.14 72.99,29.4 -19.59,-3.69 -40.17,-4.38 -59.24,2.31 28.54,0.2 56.82,6.51 83.31,16.96 9.75,3.74 19.17,8.25 28.74,12.41 -13.32,-0.9 -25.07,6.26 -35.38,13.81 15.16,-4.35 30.65,-7.9 46.47,-8.55 9.31,-0.8 18.59,0.46 27.86,1.2 10.22,0.85 20.44,-0.68 30.68,-0.46 13.98,-0.02 27.61,-4.09 40.12,-10.15 -2.21,5.88 -7.51,9.67 -11.64,14.11 -14.62,13.98 -31.45,27.73 -52.1,30.81 -11.93,2.06 -23.43,7.73 -31.41,16.98 -6.05,6.64 -9.77,14.99 -12.18,23.56 5.1,-0.49 10.5,-1.32 15.41,0.71 8.28,3.15 14.75,9.61 20.18,16.41 -5.29,-0.24 -10.58,-0.34 -15.85,-0.14 9.56,9.21 19.41,18.23 27.08,29.16 27.63,38.15 42.51,83.73 53.79,128.98 -20.37,-11.53 -41.81,-22.49 -65.28,-25.74 25.1,36.21 49.21,73.59 65.72,114.63 5.63,14.46 10.6,29.43 11.88,44.99 -24.82,-22.55 -57.96,-35.39 -91.33,-36.9 13.87,20.88 28.1,41.6 39.83,63.8 9.18,17.58 18.2,35.8 20.97,55.66 -13.95,-14.39 -29.24,-29.86 -49.74,-33.76 10.2,21.72 12.63,46.25 10.76,69.94 -2.46,31.49 -12.1,62.02 -24.96,90.73 -3.93,8.23 -7.34,16.78 -12.49,24.34 -5.4,-14.13 -12,-28.21 -22.62,-39.23 4.67,28.76 0.32,58.52 -10.15,85.57 -4.75,11.63 -10.6,23.01 -19.06,32.4 -10.35,-14.45 -18.16,-31.2 -20.27,-48.97 -1.13,-8.61 0.43,-17.21 2.16,-25.61 -7.73,9.37 -13.11,20.37 -17.19,31.76 -10.03,-15.47 -17.48,-32.46 -23.47,-49.86 22.22,-15.15 38.33,-38.69 45,-64.68 10.84,-40.51 -2.98,-87.12 -35.76,-113.71 -9.18,-7.4 -19.75,-13.14 -31.09,-16.37 -14.82,-4 -29.75,-7.66 -44.52,-11.8l-0.51 -0.64c-1.23,-30.69 -12.19,-60.55 -29.12,-86.01 8.23,-1.11 16.58,0.34 24.78,-1.06 23.38,-3.33 46.27,-14.43 61.33,-32.94 3.91,19.72 -1.38,40.15 -10.5,57.69 -3.96,7.91 -9.3,14.97 -13.99,22.44 24.92,-6.76 49.06,-17.82 69.1,-34.3 18.5,-15.1 32.43,-36.49 35.62,-60.43 6.27,9.29 10.24,19.88 13.06,30.68 18.1,-22.15 23.79,-52.45 18.66,-80.22 -1.61,-11.62 -6.11,-22.46 -9.69,-33.54 12.55,5.08 23.06,13.82 32.15,23.68 -0.79,-17.06 -9.75,-32.39 -20.06,-45.49 -11.01,-13.65 -23.96,-25.62 -37.72,-36.43 -5.76,-4.61 -12.14,-8.42 -17.48,-13.53 8.98,0.53 16.76,5.32 23.66,10.71 -0.36,-12.97 -5.02,-25.87 -14.12,-35.28 -13.91,-14.85 -35.33,-20.47 -47.97,-36.72 6.7,-0.87 12.91,2.35 19.19,4.17 17.7,5.63 36.71,9.89 55.27,6.17 13.32,-2.64 25.1,-11.04 32.48,-22.39 -21.78,3.87 -43.49,-4.99 -60.8,-17.7 -11.37,-8.03 -20.83,-18.28 -30.22,-28.45 -13.66,-14.17 -33.89,-19.99 -53.18,-19.23 -10.24,-0.1 -20.4,1.77 -30.62,1.46 -3.99,-0.23 -9.7,-1.03 -10.5,-5.86 0.91,-7.24 7.09,-12.01 11.17,-17.57 0.21,-0.26 0.64,-0.78 0.86,-1.04 -15.14,-1.47 -31.24,-2.08 -45.33,4.55 5.73,-9.06 13.95,-17.01 24.41,-20.18zm4.89 68.27c9.19,2.98 18.79,5.59 28.56,4.58 8.07,-0.46 15.7,-3.58 23.76,-4.09 9.58,-0.22 19.16,3.44 26.35,9.77 -13.23,-3.08 -28.15,-0.93 -39.02,7.51 -5.1,3.72 -7.71,10.32 -5.9,16.48 -11.09,-11.57 -22.51,-22.83 -33.75,-34.25zm-471.27 618.77c10.97,-0.89 21.92,-2.01 32.89,-3.02 2.87,27.65 5.11,55.38 7.84,83.06 -11.31,1.31 -22.7,1.87 -33.97,3.46 9.54,-5.92 7.96,-18.24 6.58,-27.71 -24.92,2.32 -49.85,4.58 -74.76,6.93 -0.92,-9.97 -1.9,-19.95 -2.76,-29.93 24.94,-2.19 49.87,-4.68 74.81,-6.83 -0.71,-6.28 -0.46,-12.94 -3.47,-18.67 -1.51,-3.17 -4.48,-5.21 -7.16,-7.29zm31.79 105.85c4.53,-4.07 7.62,-9.46 9.44,-15.22 5.29,17.04 12.03,33.59 17.96,50.42 3.41,10.33 5,22.28 -0.07,32.35 -5.33,10.43 -17.16,15.9 -28.39,16.89 -8.32,0.65 -16.2,-3.1 -22.43,-8.35 -9.15,11.99 -18.19,24.07 -27.33,36.07 -4.06,-10.78 -8.02,-21.61 -12,-32.43 7.14,-8.8 14.53,-17.41 21.74,-26.16 1.52,-1.45 0,-3.56 -0.13,-5.2 -9.74,3.6 -19.49,7.13 -29.19,10.83 -3.47,-9.33 -6.92,-18.63 -10.32,-27.97 22.88,-8.51 45.81,-16.94 68.72,-25.39 4.13,-1.61 8.73,-2.63 12,-5.84zm43.07 75.16c8.29,12.01 17.01,23.72 25.44,35.62 -27.11,19.52 -54.22,39.06 -81.38,58.54 -5.68,-8.26 -11.73,-16.25 -17.45,-24.48 20.15,-14.54 40.32,-29.06 60.53,-43.53 8.06,-6.04 12.83,-16.11 12.86,-26.15zm30.53 41.98c12.98,10.82 26,21.58 39.11,32.22 7.12,5.82 14.1,12.87 16.51,22.02 2.76,10.29 -3.21,21.28 -12.05,26.53 -5.29,3.03 -11.63,3.14 -17.46,1.95 3.54,6.13 5.9,13.59 3.35,20.54 -3.57,9.66 -12.27,18.24 -22.93,18.96 -10.63,0.87 -20.45,-4.56 -28.69,-10.71 -10.46,-8.46 -20.81,-17.07 -31.27,-25.54 15.58,-18.92 31.02,-37.95 46.6,-56.87 6.9,-7.8 9.14,-19.06 6.83,-29.1zm66.25 57.55c24.65,10.09 49.59,19.42 74.32,29.31 -2.89,7.34 -5.75,14.68 -8.62,22.02 -11.47,-4.41 -22.89,-8.91 -34.3,-13.45 -1.72,4.34 -3.59,8.64 -4.9,13.13 9.23,3.38 18.31,7.13 27.5,10.64 -2.79,7.32 -5.65,14.62 -8.61,21.87 -9.19,-3.69 -18.4,-7.35 -27.68,-10.82 -1.83,4.77 -3.72,9.53 -5.54,14.33 11.81,4.64 23.62,9.28 35.44,13.88 -2.8,7.41 -5.76,14.78 -8.63,22.17 -20.91,-8.36 -41.92,-16.46 -62.86,-24.7 9.05,-22.84 17.91,-45.75 26.95,-68.59 3.95,-9.67 2.42,-21.03 -3.07,-29.79zm-59.3 -0.62l0 0c4.01,3.31 7.9,7.73 13.42,8.18 5,-0.25 9.63,-5.05 9.4,-10.07 -1.06,-5.88 -6.88,-8.78 -10.9,-12.48 -4.08,4.7 -7.9,9.63 -11.92,14.37zm-25.14 30.74l0 0c4.74,3.9 9.65,9.76 16.49,8.7 5.87,-1.37 10.62,-8.71 7.58,-14.42 -2.43,-4.5 -6.91,-7.29 -10.71,-10.52 -4.49,5.39 -8.86,10.86 -13.36,16.24zm-77.29 -163.89l0 0c1.92,5.08 3.46,10.98 8.39,14.05 6.43,3.53 15.83,0.42 18.87,-6.3 2.18,-5.7 -0.64,-11.52 -2.51,-16.87 -8.27,2.98 -16.5,6.06 -24.75,9.12z"/>
  </g>
 </g>
</svg>
