<?xml version="1.0" encoding="UTF-8"?>
<!DOCTYPE svg PUBLIC "-//W3C//DTD SVG 1.1//EN" "http://www.w3.org/Graphics/SVG/1.1/DTD/svg11.dtd">
<!-- Creator: CorelDRAW -->
<svg xmlns="http://www.w3.org/2000/svg" xml:space="preserve" width="2000px" height="1600px" version="1.1" style="shape-rendering:geometricPrecision; text-rendering:geometricPrecision; image-rendering:optimizeQuality; fill-rule:evenodd; clip-rule:evenodd"
viewBox="0 0 2000 1600"
 xmlns:xlink="http://www.w3.org/1999/xlink">
 <defs>
  <style type="text/css">
   <![CDATA[
    .fil0 {fill:#A7A9AC}
    .fil1 {fill:#006E51;fill-rule:nonzero}
    .fil3 {fill:#B30738;fill-rule:nonzero}
    .fil2 {fill:#FEFEFE;fill-rule:nonzero}
   ]]>
  </style>
 </defs>
 <g id="Capa_x0020_1">
  <metadata id="CorelCorpID_0Corel-Layer"/>
  <g id="Wisconsin_x0020_Green_x0020_Bay_x0020_Phoenix.cdr">
   <path class="fil0" d="M1574.34 979.62l21.04 0.16 -45.22 47.73c10.34,23.79 6.98,51.04 -15.2,66.4l-29.25 20.25c-0.02,-7.77 4.55,-35.86 -0.08,-44.11l-415.93 -0.15 7.1 -33.43c-15.1,19.82 -32.34,32.1 -52.49,46.7l-75.3 54.56 48.37 -79.42c14.59,-23.94 14.34,-30.18 4.82,-57.73 -23.27,50.75 -70.46,76.79 -77.38,97.37 -3.65,11.89 -6.04,26.75 -0.32,38.33l43.71 88.41 -73.03 -66.29c-23.79,-21.6 -38.01,-54.22 -33.59,-86.5 3.89,-28.37 14.86,-50.09 23.7,-76.69l-67.05 -0.11c-6.49,9.26 -7.74,22.62 -6.91,33.31l5.31 68.82 -39.31 -56.73c-9.37,-13.53 -13.95,-29.21 -15.63,-45.31l-213.28 0.02 -4.23 -10.68 -2.36 10.75 -108.73 0.01 0.69 -3.48c-36.37,11.62 -81.33,11.89 -118.17,2.93 -93.31,-22.7 -73.31,-141.98 -15.41,-184.8 8.06,-5.96 16.84,-10.86 26.06,-14.74 0.73,-0.44 35.69,-64.87 97.86,-70.73 -12.5,-4.05 -25.42,-6.77 -38.46,-8.32 -52.8,-6.31 -91.72,-8.27 -131.05,32.4l-69.44 71.8 38.78 -92.05c18.79,-44.59 48.53,-72.36 85.8,-89 -12.53,-0.25 -30.89,-1.45 -43.19,-3.23 -54.23,-7.86 -101.04,-52.57 -129.71,-96.59l-56.86 -87.29 83.66 62.08c57.02,42.32 228.37,8.69 290.25,-12.27 54.34,-18.4 72.15,-24.63 133.75,-22.61 49.74,1.62 101.03,24.4 144.81,47.11 14.87,-14.35 43.36,-26.89 43.43,-26.95 7.52,-12.72 16.04,-24.68 27.41,-34.31 27.44,-23.55 69.67,-13.1 105.9,-10.55 36.28,2.54 50.22,7.57 84.03,-8.73 12.51,-6.02 24.17,-11.13 38.24,-11.62 28.68,-1.73 43.1,11.81 61.95,-1.03l85.19 -58 -59.39 84.22c-9.1,12.9 -21.21,25.08 -36.05,31.16 18.6,6.2 22.01,14.24 48.02,10.89 14.17,-2.09 26.38,-12.71 35.49,-23.13l51.93 -59.4 -19.77 76.39c-8.09,31.25 -28.39,60.54 -59.53,72.08 -10.39,3.84 -26.62,6.28 -39.7,11.37 31.74,7.16 69.01,-11.85 95.39,-27.41 21.32,-12.57 39.54,-30.21 60.66,-43.47 99.82,-62.68 198.15,-6.61 290.49,1.55 103.82,9.17 91.94,-37.86 178.09,-26.86l4.68 -5.41 -2.39 5.72c11.83,1.64 23.51,4.28 34.78,8.32l118.68 42.62 -125.94 -6.36c-18.66,-0.94 -37.09,7.2 -53.03,16.66l-16.99 40.81c-14.11,33.88 -38.87,64.04 -71.9,80.81 -49.82,25.3 -92.11,6.53 -125.88,14.22 -8.87,2.02 -17.85,4.48 -26.58,7.6 35.91,12.76 49.08,28.25 97.3,24.32l49.07 -4c-39.78,41.54 -56.26,67.73 -121.75,66.43 -21.5,-0.43 -40.32,-2.74 -60.77,1.41 -32.35,6.26 -51.5,21.7 -88.7,19.39 19.23,3.46 58.04,3.63 78.7,4.31l-9.84 7.14 123.92 -0.06 2.89 10.76 7.29 -10.67 133.38 0.03 -109.19 135.39c-2.53,12.5 -5.18,24.97 -7.64,37.48z"/>
   <path class="fil1" d="M1102.24 457.15c7.88,-0.71 15.23,-3.98 21.71,-8.39 -6.31,8.95 -13.92,17.21 -23.59,22.55 -8.86,5.16 -19.54,5.29 -28.66,9.85 -11.18,5 -19.12,14.78 -26,24.56 21.31,-3.91 44.22,-2.44 63.63,7.85 13.34,7.58 29.32,8.23 44.23,6.55 19.11,-2.68 34.86,-15.25 47.2,-29.36 -6.53,25.2 -22.67,49.87 -47.94,59.23 -16.65,5.46 -34.57,7.62 -50.1,16.17 -5.88,2.94 -9.33,9.79 -7.75,16.27 1.58,7.42 9.03,11.38 15.69,13.43 13.56,3.92 28.1,4.13 41.96,1.76 25.6,-5.34 49.56,-16.69 71.89,-30.04 21.73,-12.64 39.76,-30.51 61.1,-43.74 19.53,-12.43 41.67,-20.68 64.59,-24 31.08,-4.67 62.76,-1.68 93.39,4.52 40.28,7.99 79.88,20.05 120.92,23.81 28.46,2.38 57.9,1.93 85.14,-7.62 15.23,-5.12 29.19,-13.54 44.77,-17.73 11,-3.04 22.53,-3.64 33.88,-2.87 15.84,1 31.71,3.59 46.7,8.97 -24.74,-1.25 -48.1,9.44 -68.57,22.35 -22.59,14.04 -41.95,32.53 -64.12,47.15 -20.1,13.43 -44.01,19.32 -67.54,23.29 18.12,2.62 36.52,2.77 54.78,1.99 21.58,-0.37 43.03,-9.37 57.23,-25.82 -12.38,29.73 -34.06,56.6 -63.11,71.33 -25.13,12.78 -54.36,13.14 -81.84,10.73 -13.25,-1.31 -26.7,-0.99 -39.72,1.93 -27.14,6.23 -54.25,16.05 -75.61,34.47 19.95,0.42 39.59,5.38 57.86,13.26 14.93,6 29.03,14.41 44.91,17.75 16.15,3.41 32.78,4.63 49.23,3.29 -18.83,19.66 -47.39,26.43 -73.83,25.11 -21.54,0.21 -43.43,-3.2 -64.69,1.75 -18.59,3.6 -35.94,11.42 -54.17,16.23 -17.25,4.63 -35.73,3.96 -52.79,-1.26 -30.26,-9 -57.65,-27.38 -77.11,-52.27 4.55,27.56 16.38,56.1 40.13,72.44 24.52,15.48 53.58,22.87 82.4,23.81 -10.13,7.36 -22.29,11.23 -34.5,13.4 1.34,6.34 2.19,12.83 1.71,19.33 -1.08,12.55 -6.24,24.63 -14.91,33.82 4.96,6.35 8.02,13.96 9.11,21.94 13.81,-22.77 28,-45.34 41.98,-68.01 2.39,-3.92 4.83,-7.79 7.34,-11.63 2.49,0.03 4.99,0.06 7.52,0.08 45.52,-0.03 91.05,0.05 136.59,-0.03 3.26,12.12 6.43,24.27 9.66,36.4 8.36,-12.05 16.45,-24.26 24.72,-36.35 28.16,-0.04 56.32,-0.04 84.5,0 -27.11,33.66 -54.23,67.33 -81.35,100.98 -2.52,3.33 -6.03,6.29 -6.85,10.58 -2.7,13.14 -5.45,26.28 -8.04,39.44 -45.05,0.27 -90.1,0.06 -135.14,0.11 -0.74,-5.02 -1.5,-10.03 -2.26,-15.03 -12.27,0.07 -24.56,-0.12 -36.84,0.11 -2.65,5.05 -5.46,10 -8.28,14.93 -25.99,0.02 -51.98,0 -77.96,0 1.34,-2.22 2.71,-4.43 4.08,-6.63 -10.42,3.61 -21.36,5.78 -32.4,5.86 -46.5,0 -93.01,0 -139.51,0 4.49,-21.92 9.02,-43.82 13.54,-65.72 3.72,-18.14 8.11,-47.47 -8.7,-61.1 -8.74,39.45 -16.51,80.88 -25,120.77 -5.57,26.5 -19.22,51.19 -38.48,70.18 -11.13,10.27 -23.36,19.27 -35.63,28.16 6.59,-10.81 12.87,-22.36 14.23,-35.15 0.84,-11.47 -2.78,-22.63 -6.04,-33.47 -7.29,-22.22 -16.93,-43.6 -27.26,-64.54 2.08,20.54 -0.91,41.72 -10.18,60.29 -11.6,23.9 -30.2,43.44 -49.4,61.44 -10.52,10.59 -22.5,20.93 -27.61,35.43 -5.26,16.91 -7.45,36.12 0.67,52.52 -19.23,-17.45 -31.31,-43.93 -27.64,-70.12 4.6,-34.09 22.87,-64.33 29.61,-97.87 -6.17,-0.05 -12.32,-0.05 -18.49,-0.05 -18.15,-0.01 -36.31,0.03 -54.46,-0.03 -9.05,0.29 -18.12,-0.45 -27.14,0.28 -14.53,13.12 -18.38,34.3 -16.94,53.08 -10.74,-15.51 -13.41,-34.91 -13.06,-53.38 -6,0.05 -12,0.05 -18.01,0.04 -66.83,0.03 -133.65,0.01 -200.5,0.01 -5.16,-13.05 -1.08,-26.8 0.61,-40.07 -8.86,-0.06 -17.71,0 -26.56,-0.06 -2.79,13.39 -5.43,26.81 -8.36,40.16 -23.64,-0.06 -47.29,-0.04 -70.93,0 1.16,-5.81 2.36,-11.63 3.56,-17.43 -13.88,9.23 -29.65,15.3 -45.93,18.71 -30.76,6.36 -62.9,6.02 -93.47,-1.25 -16.92,-4.29 -33.24,-14.02 -42.01,-29.53 -9.92,-17.48 -9.36,-38.73 -5.42,-57.84 5,-25 18.09,-48.84 38.72,-64.25 9.63,-6.97 20.32,-12.46 31.66,-16.05 24.91,-8.18 51.63,-8.18 77.48,-5.82 18,2.01 36.92,6.14 51.07,18.17 5.69,4.58 9.45,10.94 13.21,17.07 0.65,-4.3 1.34,-8.6 2.1,-12.9 7.25,-0.05 14.5,-0.02 21.76,-0.19 -25.74,-8.61 -48.16,-24.58 -73.63,-33.82 -28.28,-9.99 -60.3,-7.73 -87.27,5.21 13.77,-20.91 33.36,-38.23 56.34,-48.33 20.77,-8.56 43.86,-5.8 65.46,-2.61 10.86,1.5 21.74,3.81 32.76,3.29 7.61,-0.33 14.59,-4.06 20.3,-8.89 9.65,-8.19 16.87,-18.8 22.96,-29.79 -24.3,10.61 -51.86,14.29 -77.93,8.85 -12.58,-2.64 -24.29,-8.07 -36.44,-12.05 -14.05,-4.68 -28.63,-7.63 -43.28,-9.51 -59.92,-7.02 -103.05,-7.17 -146.7,37.97 28.72,-68.16 85.38,-91.45 154.75,-97.9 6.4,-1.01 13.98,-0.37 18.99,-5.16 4.55,-6.03 -1.24,-13.43 -6.73,-16.37 -10.78,-6.3 -23.56,-2.02 -35.02,-0.45 -34.25,6.37 -69.43,6.26 -103.9,1.9 -15.89,-2.32 -31.08,-8.36 -44.82,-16.54 -29.26,-17.7 -53.35,-43.23 -71.93,-71.76 17.7,13.14 39.76,18.17 61.21,21.13 39.61,5.04 79.72,2.16 119.17,-2.84 42.98,-5.83 85.87,-13.83 127.01,-27.87 15.88,-5.27 31.55,-11.25 47.82,-15.28 25.85,-6.52 52.78,-7.48 79.32,-6.35 27.11,0.6 53.41,8.62 78.55,18.24 24.07,9.16 47.13,20.79 69.85,32.87 4.19,-3.06 7.37,-7.25 11.41,-10.51 10.93,-9.14 23.36,-16.51 36.52,-21.99 2.65,-1.2 5.72,-2.24 7.11,-5.04 6.79,-11.8 14.51,-23.37 25,-32.22 10.44,-9.14 25.12,-10.58 38.43,-10.63 18.03,0.87 35.97,3.26 53.98,4.54 15.39,1.06 30.8,4.13 46.27,2.48 10.84,-1.02 21.84,-2.27 32.05,-6.26 15.37,-5.69 29.44,-16.13 46.39,-16.55 16.79,-1.62 32.83,6.65 49.63,4.15zm23.26 532.83c16.34,0.1 32.69,-0.06 49.04,0.07 5.52,0.29 12.01,0.91 15.71,5.58 4.38,6.25 2.64,14.48 0.42,21.21 -3.01,8.69 -11.54,14.55 -20.56,15.29 -9.9,0.74 -19.83,0 -29.73,0.39 -1.22,6.29 -2.49,12.58 -3.86,18.85 -7.93,-0.1 -15.84,-0.03 -23.75,-0.07 4.35,-20.42 8.41,-40.88 12.73,-61.32zm18.16 27.07c6.45,-0.32 13,0.54 19.39,-0.49 4.98,-1.16 7.11,-11.06 0.8,-11.45 -5.83,-0.89 -11.75,-0.3 -17.61,-0.44 -0.93,4.12 -1.78,8.23 -2.58,12.38zm144.22 -20.14c10.97,-0.93 22.99,-1.84 33,3.58 7.59,4.08 9.32,13.75 7.87,21.56 -1.4,11.29 -7.68,22.65 -18.49,27.26 -11.85,4.86 -25.28,4.72 -37.71,2.52 -7.97,-1.34 -14.99,-7.8 -15.39,-16.16 -0.63,-11.12 2.76,-23.23 11.36,-30.77 5.31,-4.78 12.39,-7.1 19.36,-7.99zm3.25 13.76c-9.42,2.63 -13.18,14.25 -11.25,22.98 1.83,6.24 9.73,6.44 14.99,5.22 9.54,-2.59 13.29,-14.29 11.46,-23.11 -2.23,-5.99 -9.89,-6.64 -15.2,-5.09zm-93.5 -12.56c6.84,0 13.72,-0.01 20.59,0.02 -1.21,6.15 -2.49,12.32 -3.77,18.47 7.4,0.03 14.82,0 22.26,0.02 1.23,-6.17 2.51,-12.32 3.81,-18.49 6.86,-0.03 13.74,-0.03 20.62,0 -3.54,17.75 -7.33,35.44 -10.91,53.19 -6.91,0 -13.8,0 -20.69,0 1.45,-7.06 2.93,-14.11 4.38,-21.17 -7.42,-0.07 -14.83,-0.02 -22.21,-0.05 -1.53,7.06 -2.93,14.16 -4.44,21.22 -6.85,0 -13.7,0 -20.55,0 3.47,-17.77 7.27,-35.47 10.91,-53.21zm139.12 0c18.28,-0.03 36.56,0.05 54.83,-0.03 -0.89,4.38 -1.79,8.76 -2.74,13.14 -11.4,0 -22.78,0 -34.17,0 -0.44,2.33 -0.87,4.66 -1.29,6.99 10.55,-0.12 21.1,0 31.65,-0.08 -0.93,4.37 -1.82,8.73 -2.69,13.09 -10.62,0.1 -21.23,0.04 -31.85,0.05 -0.44,2.31 -0.87,4.63 -1.29,6.96 11.37,0 22.75,-0.11 34.13,0.06 -0.96,4.3 -1.87,8.63 -2.62,12.98 -18.31,0.1 -36.62,0.05 -54.92,0.03 3.62,-17.73 7.28,-35.47 10.96,-53.19zm58.05 0.02c7.81,-0.03 15.61,-0.03 23.43,-0.02 4.8,9.52 9.45,19.11 14.28,28.61 1.98,-9.51 4.1,-19.01 6.05,-28.53 6.61,-0.12 13.25,-0.09 19.88,-0.06 -3.69,17.72 -7.34,35.45 -10.98,53.19 -7.55,-0.02 -15.09,0.06 -22.61,-0.08 -5,-9.68 -10.07,-19.34 -15.24,-28.93 -1.82,9.67 -4.06,19.25 -5.85,28.93 -6.64,0.13 -13.29,0.08 -19.92,0.06 3.68,-17.72 7.37,-35.44 10.96,-53.17zm68.42 -0.02c6.88,0 13.77,-0.01 20.67,0.02 -3.91,17.66 -6.95,35.56 -11.26,53.11 -6.79,0.25 -13.59,0 -20.38,0.06 3.6,-17.75 7.27,-35.47 10.97,-53.19zm25.58 0.03c8.19,0.02 16.38,-0.23 24.57,0.17 1.76,3.53 3.78,6.93 5.94,10.26 2.9,-3.49 5.81,-6.94 8.68,-10.44 8.13,-0.03 16.26,-0.05 24.39,0.01 -8.19,8.69 -16.49,17.28 -24.83,25.8 5.04,9.4 10.34,19.48 9.47,30.51 0.01,9.52 -4.88,18.68 -12.7,24.09 -0.03,-14.17 -6.74,-27.08 -12.4,-39.71 -3.88,4.16 -7.72,8.37 -11.61,12.54 -8.51,-0.11 -17.01,0.01 -25.52,-0.1 9.46,-9.23 19.04,-18.36 28.64,-27.46 -4.91,-8.55 -9.86,-17.06 -14.63,-25.67z"/>
   <path class="fil2" d="M1468.18 835.93c19.1,-0.33 38.21,-0.05 57.3,-0.14 4.39,16.83 8.91,33.62 13.34,50.45 11.54,-16.72 22.83,-33.59 34.21,-50.42 19.14,-0.06 38.28,-0.01 57.42,-0.01 -24.51,30.62 -49.23,61.08 -73.79,91.68 -3.39,4.07 -7.71,31.78 -9.2,38.65 -16.71,-0.18 -33.42,0.22 -50.13,-0.21 2.69,-12.19 5.03,-24.43 7.65,-36.63 -12.32,-31.11 -24.44,-62.28 -36.8,-93.37zm-699.73 -286.21c15.88,-11.88 35.45,-17.35 54.58,-21.47 2.74,3.07 5.75,6.46 5.86,10.82 0.68,13.39 2.7,22.02 17.19,25 11.83,2.5 23.95,3.04 35.99,3.95 -13.33,3.52 -44.1,6.65 -56.34,2.47 -6.63,-2.14 -12.56,-7.14 -19.87,-6.57 -6.6,1.28 -10.28,8.3 -16.93,9.53 -20.58,4.46 -23.11,-13.7 -41.24,16.57 -0.68,-15.94 9.05,-30.37 20.76,-40.3zm82.32 -33.53c15.71,-13.63 37.1,-6.77 52.36,-6.91 8.41,0.21 16.67,-1.53 25.03,-2.22 -6.69,2.88 -13.41,5.77 -20.46,7.63 -13.71,3.22 -22.5,15.75 -35.31,20.79 -9.63,-2.45 -18.21,-9.88 -21.62,-19.29zm-512 316.39c26.98,-19.26 61.83,-22.07 93.93,-19.59 35.76,2.94 69.36,12.87 65.87,55.46 -21.33,0.27 -42.66,0 -63.99,0.14 -1.38,-19.47 -20.32,-19.74 -35.69,-18.01 -39.44,4.43 -53.94,75.43 -16.15,82.43 18.53,3.43 36.56,1.39 43.9,-18.15 -6.48,-0.06 -12.94,-0.03 -19.41,-0.03 2.23,-11.32 4.71,-22.59 6.93,-33.91 26.93,-0.02 53.86,-0.05 80.8,0.01 -3.92,19.82 -8.13,39.59 -12.14,59.39 -0.26,4.34 -4.49,6.37 -7.48,8.78 -32.16,24.31 -84.05,25.54 -122.76,19.4 -36.92,-5.89 -56.22,-27.2 -51.85,-65.41 2.85,-27.16 15.16,-54.55 38.04,-70.51zm136.82 -6.58c7.93,11.76 8.99,14.99 7.94,29.84 -15.61,-0.03 -31.2,0.05 -46.81,-0.05 0.74,1.93 1.5,3.87 2.22,5.82 17.22,-0.02 34.43,0.11 51.62,-0.06 1,-16.11 0.08,-26.03 -14.97,-35.55zm-113.3 22.14c-20.43,19.58 -23.78,63.88 2.53,80.05 -28.1,-36.41 -3.16,-99.46 52.95,-82.5 -10.64,-14.1 -43.1,-9.54 -55.48,2.45zm114.02 38.56c-3.08,14.27 -5.8,28.59 -8.91,42.84 -0.31,1.67 -1.85,2.67 -2.98,3.8 -32.03,29.63 -85.15,29.91 -125.15,21.9 -9.15,-1.81 -17.58,-5.82 -25.66,-10.31 23.76,25.11 87.92,23.24 117.55,15.4 15.96,-4.2 30.67,-12.48 42.99,-23.4 3.41,-16.76 6.94,-33.5 10.35,-50.25 -2.73,0 -5.46,0 -8.19,0.02zm-61.35 15.48c-0.37,1.88 -0.74,3.8 -1.09,5.71 5.18,0.02 10.36,0.03 15.54,-0.11 0.65,-1.9 1.28,-3.81 1.93,-5.7 -5.46,0.01 -10.93,0 -16.38,0.1zm755.88 -84.94c42.9,0.14 85.81,-0.02 128.7,0.06 16.34,0.25 35.22,4.64 36.06,24.37 0.76,17.89 -10.94,39.39 -23.72,40.94 0.18,1.58 0.37,3.16 0.58,4.77 5.29,11.32 1.62,24.1 -3.34,34.82 -10.84,23.49 -35.13,30.26 -59.1,30.43 -33.47,-0.03 -66.92,-0.01 -100.39,-0.01 -0.31,1.43 -0.96,4.28 -1.26,5.7 37.01,0.19 74.01,0.03 111.02,0.09 31.32,-0.39 56.6,-14.71 61.79,-47.5 1.29,-8.9 -0.76,-19.29 -8.55,-24.75 0.81,-0.71 1.64,-1.4 2.49,-2.07 4.68,3.23 9.56,6.8 11.78,12.28 9.63,22.52 -6.93,54.17 -30.8,63.53 -14.08,5.7 -29.53,5.62 -44.45,5.44 -37.15,-0.02 -74.32,0 -111.47,-0.02 10.28,-49.35 20.25,-98.76 30.66,-148.08zm144.74 4.31c6.78,8.83 5.44,20.87 2.05,30.77 -3.5,9.55 -13,14.53 -21.64,18.57 3.22,1.47 6.43,3.04 9.55,4.78 15.9,-8.32 24.73,-21.64 21.36,-40.44 -1.11,-6.24 -6.06,-10.7 -11.32,-13.68zm-111.55 19.62c-2.1,10.66 -4.12,21.33 -6.13,32.02 2.73,-0.02 5.48,-0.02 8.24,-0.03 1.59,-8.75 3.22,-17.48 4.92,-26.19 18.92,0.14 37.86,-0.28 56.78,0.22 -1.15,-4.48 -5.78,-6.09 -9.94,-5.97 -17.97,-0.11 -35.92,0.03 -53.87,-0.05zm11.12 31.25c9.36,0.01 44.21,1.41 51.83,-1.51 8.78,-3.37 10.4,-16.8 -2.99,-16.98 -15.02,-0.08 -30.03,0.01 -45.03,-0.02 -1.28,6.17 -2.59,12.32 -3.81,18.51zm-21.95 21.19c-2.71,11.92 -5.21,23.89 -7.88,35.82 2.71,0.04 5.46,0.05 8.2,0.1 2.29,-10.04 4.42,-20.1 6.68,-30.12 20.82,0.15 41.66,-0.31 62.48,0.24 -2.1,-4.11 -6.45,-6.21 -11,-5.99 -19.49,-0.11 -38.99,0.01 -58.48,-0.05zm10.24 35.52c10.46,-0.05 50.34,1.68 58.25,-2.27 9.81,-4.9 10.23,-20.5 -3.81,-20.5 -16.58,-0.06 -33.16,0.02 -49.72,-0.01 -1.6,7.59 -3.13,15.19 -4.72,22.78zm-688.26 -93.19c35.73,-0.34 71.47,-0.06 107.22,-0.15 9.82,0.43 20.68,0.23 29.01,6.28 15.94,12.4 11.53,50.36 -16.49,60.16 6.8,2.24 10.13,9.55 9.73,16.33 -1.22,17.35 -7.59,32.51 -1.08,47.6 -18.28,-0.11 -36.55,-0.02 -54.83,-0.06 -0.74,-13.02 9.8,-39.87 -4.98,-39.97 -12.27,-0.33 -24.58,-0.01 -36.87,-0.12 -2.79,13.36 -5.56,26.71 -8.25,40.1 -16.74,-0.01 -33.46,0.02 -50.17,-0.03 8.85,-43.38 18.02,-86.71 26.71,-130.14zm126.89 3.64c6.85,10.37 3.4,23.54 -1.72,33.86 -4.24,8.36 -12.66,13.24 -21.19,16.31 2.74,1.45 5.33,3.2 7.54,5.4 17.84,-6.18 26.29,-18.63 25.74,-38.12 -0.19,-7.16 -3.84,-14.16 -10.37,-17.45zm-98.24 16.57c-2.87,12.27 -4.9,24.74 -7.49,37.07 2.71,0.02 5.44,0.03 8.17,0.05 2.02,-10.43 4.21,-20.81 6.15,-31.25 15.71,0.11 31.44,-0.34 47.14,0.31 -1.64,-4.59 -6.5,-6.04 -10.91,-6.07 -14.34,-0.16 -28.7,0.1 -43.06,-0.11zm9.9 36.7c11.56,-0.01 23.11,0.02 34.66,0.02 10.3,0.09 19.02,-7.14 16.39,-18.17 -1.2,-4.38 -6.2,-5.71 -10.18,-5.71 -11.99,-0.15 -23.98,0.04 -35.98,-0.06 -1.6,7.98 -3.33,15.93 -4.89,23.92zm72.81 8.84c7.35,16.75 -6.49,35.13 1.76,51.77 -11.32,-0.09 -22.64,-0.2 -33.96,0.05 -0.12,1.4 -0.37,4.19 -0.49,5.6 13.92,0.14 27.87,0.03 41.81,0.06 -9.51,-17.58 11.1,-49.16 -9.12,-57.48zm-94.71 11.66c-2.69,13.39 -5.36,26.79 -8.32,40.13 -8.52,-0.17 -17.03,-0.08 -25.54,-0.08 -0.3,1.45 -0.88,4.34 -1.18,5.79 11.25,0 22.51,-0.1 33.76,0.06 3,-13.36 5.56,-26.79 8.38,-40.18 16.72,0.03 33.44,-0.08 50.15,0.06 -1.89,-2.99 -4.58,-5.94 -8.46,-5.73 -16.26,-0.25 -32.53,-0.1 -48.79,-0.05zm147.41 -77.61c44.73,0.19 89.45,-0.1 134.2,0.14 -2.36,10.58 -4.46,21.22 -6.64,31.83 -28.02,0.17 -56.04,0.03 -84.07,0.08 -1.2,5.65 -2.39,11.29 -3.53,16.97 26.02,0.01 52.02,0 78.03,0 -2.04,10.68 -4.48,21.31 -6.51,32 -25.88,0.06 -51.76,-0.16 -77.64,0.11 -2.27,5.36 -2.58,11.53 -4.07,17.22 28.02,0.03 56.06,0 84.08,0.02 -2.23,10.69 -4.35,21.39 -6.68,32.06 -44.72,-0.26 -89.45,0.19 -134.17,-0.21 9.17,-43.37 17.84,-86.85 27,-130.22zm112.56 19.33c-27.83,0.06 -55.65,-0.14 -83.45,0.09 -3.49,9.3 -4.26,19.87 -6.74,29.64 2.74,-0.04 5.52,-0.09 8.28,-0.14 1.57,-7.94 3.27,-15.87 4.87,-23.81 28.04,-0.03 56.09,0.05 84.13,-0.03 1.24,-6.18 2.62,-12.32 4.03,-18.46 -2.75,-0.02 -5.48,-0.03 -8.21,-0.03 -1.02,4.22 -2,8.48 -2.91,12.74zm-13.2 36.21c-0.99,4.26 -1.95,8.5 -2.89,12.77 -26.05,0.03 -52.1,-0.14 -78.14,0.08 -1.95,10.01 -4.14,19.97 -6.11,29.98 2.71,-0.02 5.44,0 8.19,0 1.63,-7.94 3.37,-15.86 4.86,-23.83 26,-0.11 52,-0.17 78,0.03 1.56,-6.29 2.93,-12.64 4.29,-18.98 -2.74,-0.02 -5.48,-0.03 -8.2,-0.05zm-6.99 62.05c-36.32,0.07 -72.66,0.12 -108.98,-0.02 -0.43,1.96 -0.84,3.93 -1.25,5.91 39.05,-0.13 78.12,0 117.18,-0.05 1.49,-6.57 3.03,-13.11 4.54,-19.65 -2.76,-0.01 -5.51,-0.01 -8.24,-0.01 -1.12,4.59 -2.26,9.19 -3.25,13.82zm52.94 -117.57c44.7,0.03 89.39,0.08 134.1,-0.02 -2.08,10.69 -4.41,21.35 -6.55,32.04 -28.01,0.04 -56.03,-0.02 -84.04,0.03 -1.23,5.63 -2.34,11.3 -3.55,16.95 26.02,0 52.04,0 78.07,0 -2.19,10.67 -4.33,21.36 -6.61,32.01 -25.99,-0.03 -51.99,-0.01 -77.98,-0.01 -1.22,5.77 -2.47,11.55 -3.59,17.35 27.97,0 55.95,0 83.94,0 -2.02,10.7 -4.38,21.33 -6.51,32.02 -44.74,-0.14 -89.48,0.18 -134.22,-0.17 9.1,-43.37 17.83,-86.82 26.94,-130.2zm115.01 6.58c-0.96,4.25 -1.94,8.49 -2.91,12.73 -28.01,0 -56,-0.02 -84,0.01 -2.08,9.89 -4.13,19.79 -6.15,29.71 2.75,-0.03 5.51,-0.05 8.28,-0.08 1.51,-7.97 3.29,-15.9 4.88,-23.84 28.02,-0.05 56.04,0.03 84.08,-0.05 1.34,-6.17 2.67,-12.35 4.04,-18.52 -2.75,0.01 -5.49,0.03 -8.22,0.04zm-16.08 48.94c-0.95,4.26 -1.93,8.5 -2.92,12.75 -26.03,0.05 -52.05,-0.1 -78.08,0.08 -1.96,10.01 -4.14,19.99 -6.14,30 2.73,-0.02 5.44,0 8.19,0 1.66,-7.93 3.37,-15.86 4.87,-23.81 26.03,-0.16 52.05,-0.16 78.08,0 1.48,-6.31 2.81,-12.67 4.25,-18.99 -2.77,-0.01 -5.51,-0.01 -8.25,-0.03zm-7.69 61.92c-36.02,0.39 -72.1,0.17 -108.14,0.09 -0.52,1.95 -1.02,3.91 -1.5,5.88 39.12,0 78.21,0 117.33,0 1.46,-6.55 3.03,-13.09 4.5,-19.65 -2.75,-0.01 -5.49,-0.03 -8.22,-0.03 -1.5,4.41 -1.59,10.13 -3.97,13.71zm53.15 -117.43c19.06,0.04 38.13,0.02 57.19,0.02 17.02,35.54 39.99,75.15 50.88,112.74 -1.13,-18.71 -6.02,-36.97 -12.6,-54.44 3.56,-19.51 8.23,-38.84 12.2,-58.28 16,0.06 32.03,-0.19 48.04,0.12 -8.32,39.63 -16.47,79.3 -24.6,118.97 -1.7,7.99 -2.99,16.08 -5.51,23.87 -6.97,22.01 -19.75,42.26 -37.04,57.61 5.06,-35.65 -36.54,-111.36 -52.41,-142.2 -5.29,23.94 -9.85,48.03 -15.05,71.98 -16.01,-0.17 -32.02,0.07 -48.03,-0.13 9.13,-43.38 17.95,-86.84 26.93,-130.26zm48.69 6.65c17.13,33.04 31.77,67.34 50.2,99.69 -5.41,-28.91 -30.07,-73.66 -43.52,-99.92 -1.67,0.06 -5,0.17 -6.68,0.23zm87.95 1.08c-7.89,36.85 -15.4,73.75 -22.93,110.66 -3.68,17.78 -11.32,34.64 -21.88,49.37 0.94,3.74 2.03,7.46 2.97,11.21 13.73,-16.92 23,-37.34 26.76,-58.79 7.62,-37.51 15.49,-74.97 23.24,-112.45 -2.73,0 -5.44,0 -8.16,0zm-113.75 28.5c-5.49,27.11 -11.2,54.2 -16.61,81.33 -8.04,0.09 -16.07,0.1 -24.09,-0.02 -0.43,1.94 -0.84,3.89 -1.22,5.85 10.75,0.03 21.5,0.01 32.26,0 5.2,-25.33 10.43,-50.67 15.56,-76.02 -1.83,-3.8 -3.74,-7.54 -5.9,-11.14zm402.68 -36.1c13.41,-0.17 50.15,-1.19 61.48,0.46 9.14,43.18 17.85,86.46 26.94,129.64 -17.8,0.25 -35.6,0.02 -53.38,0.14 -0.72,-5.04 -1.46,-10.05 -2.2,-15.07 -17.23,0.08 -34.44,-0.15 -51.65,0.13 -2.6,5.06 -5.45,9.96 -8.26,14.91 -17.75,0 -35.48,-0.01 -53.22,0.02 26.37,-43.65 53.73,-86.69 80.29,-130.23zm50.09 4.93c7.59,37.54 15.46,75.02 23.15,112.54 -11.38,0.02 -22.75,0.06 -34.11,-0.03 0.28,1.94 0.6,3.9 0.94,5.86 13.45,-0.06 26.9,-0.01 40.34,-0.03 -8.11,-39.47 -16.28,-78.92 -24.44,-118.38 -1.47,0.01 -4.41,0.04 -5.88,0.04zm-73.58 78.23c3.38,0 6.77,0.01 10.18,0.01 11.86,-20.17 23.72,-40.34 35.53,-60.55 -0.61,-4.78 -1.18,-9.56 -1.92,-14.31 -14.79,24.83 -29.15,49.92 -43.79,74.85zm22.52 0.03c9.79,-0.03 19.59,0 29.4,-0.02 -2.01,-14.5 -3.81,-29.01 -5.73,-43.52 -7.94,14.48 -15.76,29.02 -23.67,43.54zm-41.16 34.36c-8.18,-0.12 -16.34,-0.03 -24.49,-0.09 -1.19,1.92 -2.38,3.84 -3.52,5.78 11.72,0.06 23.44,0.02 35.16,0.03 2.84,-5 5.66,-10.01 8.5,-15.02 19.6,-0.06 39.22,0.05 58.82,-0.05 -0.2,-1.43 -0.63,-4.32 -0.85,-5.75 -21.66,-0.02 -43.32,0 -64.99,0 -2.91,5.01 -5.69,10.1 -8.63,15.1zm248.98 -112.62c-20.21,25.13 -40.62,50.08 -60.64,75.36 -3.72,12.09 -5.26,24.84 -8.16,37.2 -8.67,-0.02 -17.34,0.03 -25.99,-0.05 -0.45,1.93 -0.88,3.87 -1.28,5.83 11.46,-0.01 22.92,0.05 34.38,-0.05 2.5,-12.16 4.69,-24.43 7.66,-36.47 21.44,-27.56 44.1,-54.24 65.49,-81.86 -3.84,-0.02 -7.65,0 -11.46,0.04zm-86.38 -0.03c4.93,18.89 10.01,37.74 14.79,56.66 1.4,-1.78 2.8,-3.56 4.22,-5.35 -4.24,-17.15 -8.93,-34.2 -13.34,-51.32 -1.42,0 -4.25,0.01 -5.67,0.01z"/>
   <path class="fil3" d="M1335.04 533.37c16.63,-6.56 34.38,-10.6 52.3,-10.6 23.1,0.25 45.7,5.79 67.87,11.77 28.32,7.74 56.14,17.29 84.9,23.34 18.79,3.96 37.91,7.26 57.19,6.41 -22.31,18.35 -49.77,31.25 -78.76,33.59 -22.49,2.02 -45.34,1.84 -67.57,-2.4 10.94,8.09 21.95,16.42 34.64,21.6 6.19,2.66 12.66,4.48 19,6.67 -30.6,3.7 -60.3,14.58 -85.99,31.61 -21.87,14.16 -44.51,27.96 -69.82,35.01 -27.01,7.88 -55.69,7.97 -83.36,4.04 -19.9,-2.84 -39.85,-6.12 -58.98,-12.43 -6.95,-2.24 -13.6,-5.4 -19.52,-9.68 3.38,26.65 24.86,45.35 42.67,63.4 -22.65,1.72 -44.6,-6.88 -63.99,-17.83 -14.43,-7.96 -29.79,-15.62 -46.54,-16.66 -10.1,-0.66 -20.77,3.5 -26.42,12.2 -6.06,8.24 -6.25,18.92 -5.23,28.67 -24.74,-9.65 -42.66,-30.81 -56.86,-52.48 -8.53,-13.71 -17.1,-28.67 -17.51,-45.22 -4.81,10.43 -10.3,21.24 -19.94,28.04 -6.8,4.55 -13.77,9.02 -21.54,11.72 5.7,-22.95 9.99,-47.55 3.42,-70.79 -3.14,-11.54 -11.35,-21.41 -22.01,-26.77 -13.54,-7.3 -28.99,-9.37 -44.01,-11.31 24.2,0.54 48.63,2.1 72.67,-1.63 27.17,-3.8 50.08,-25.06 78.52,-21.86 -8.66,7.61 -15.78,17.6 -17.2,29.29 -2.02,16.49 4.98,32.85 14.79,45.76 13.73,17.75 36.49,25.74 58.3,26.82 17.35,0.71 34.99,-0.76 51.71,-5.63 22.42,-7.31 42.24,-20.65 61.06,-34.56 22.7,-17.09 43.95,-36 66.1,-53.8 12.6,-9.82 25.37,-19.85 40.11,-26.29z"/>
  </g>
 </g>
</svg>
