<?xml version="1.0" encoding="UTF-8"?>
<!DOCTYPE svg PUBLIC "-//W3C//DTD SVG 1.1//EN" "http://www.w3.org/Graphics/SVG/1.1/DTD/svg11.dtd">
<!-- Creator: CorelDRAW -->
<svg xmlns="http://www.w3.org/2000/svg" xml:space="preserve" width="2000px" height="1600px" version="1.1" style="shape-rendering:geometricPrecision; text-rendering:geometricPrecision; image-rendering:optimizeQuality; fill-rule:evenodd; clip-rule:evenodd"
viewBox="0 0 2000 1600"
 xmlns:xlink="http://www.w3.org/1999/xlink">
 <defs>
  <style type="text/css">
   <![CDATA[
    .fil0 {fill:black}
    .fil1 {fill:#FEFEFE}
    .fil2 {fill:#E31C39;fill-rule:nonzero}
   ]]>
  </style>
 </defs>
 <g id="Capa_x0020_1">
  <metadata id="CorelCorpID_0Corel-Layer"/>
  <g id="Youngstown_x0020_State_x0020_Penguins.cdr">
   <path class="fil0" d="M980.75 558.99l111.98 98.77 114.66 -98.33 -52.36 -0.02 1.25 -322.02 743.72 0 0 322.04 -184.15 0.09 -477.16 409.08 0.03 49.17 164.85 0.02 0 344.92 -807.1 -0.05 -0.03 -344.78 169.33 -0.08 0.01 -49.09 -478.98 -409.17 -186.76 -0.17 -0.04 -321.93 958.83 -0.14 0.26 321.7 -78.34 -0.01z"/>
   <path class="fil1" d="M831.83 502.69l260.38 229.67 267.2 -229.14 -147.87 -0.07 0.82 -209.47 631.35 0 0 209.49 -148.7 0.07 -512.62 439.49 0.07 131.32 164.82 0.02 0 232.34 -694.52 -0.04 -0.03 -232.23 169.31 -0.08 0.04 -131.29 -514.49 -439.5 -151.27 -0.13 -0.02 -209.42 846.29 -0.13 0.17 209.12 -170.93 -0.02z"/>
   <path class="fil2" d="M187.08 324.5l784.75 -0.12 0.12 147.54 -221.57 -0.02 341.55 301.26 350.62 -300.68 -200.11 -0.1 0.58 -147.92 569.91 0 0 147.94 -129.31 0.06 -532.02 456.12 0.1 176.25 164.79 0.02 0 170.78 -632.95 -0.04 -0.02 -170.68 169.3 -0.08 0.04 -176.25 -533.9 -456.08 -131.86 -0.12 -0.02 -147.88z"/>
  </g>
 </g>
</svg>
